<svg enable-background="new 0 0 14 14" viewBox="0 0 14 14" xmlns="http://www.w3.org/2000/svg"><path d="m2.9 11.8-1.6-.8v-8.1l1.6-.8z" fill="#4b612c"/><path d="m8.8 10.2-5.9 1.6v-9.7l5.9 1.6z" fill="#759c3e"/><path d="m3.9 5.6 3.1-.4.1.1v3.3l-.1.1-3.1-.4z" fill="#4b612c"/><path d="m12.7 5-2.8.3-6-1 3.1-1z" fill="#3c4929"/><path d="m12.7 9-2.8-.3-6 1 3.3.8z" fill="#b7ca9d"/><path d="m3.9 12.4 3.1 1.5.1-3.4-3.2-.8z" fill="#4b612c"/><path d="m12.7 11.1-5.7 2.8v-3.4l5.7-1.5z" fill="#759c3e"/><path d="m3.9 1.6 3.1-1.5v3.4l-3.1.8z" fill="#4b612c"/><g fill="#759c3e"><path d="m12.7 8-5.7.7v-3.5l5.7.8z"/><path d="m12.7 5-5.7-1.5v-3.4l5.7 2.8z"/></g></svg>