<svg enable-background="new 0 0 14 14" viewBox="0 0 14 14" xmlns="http://www.w3.org/2000/svg"><path d="m8.9 11.5c-.2-.5-.5-1-.7-1.6 0 0 0-.1.1-.2.7-.6 1-1.4 1-2.3 0-1.9-1.5-3.3-3.4-3.2-.2 0-.2 0-.3-.2-.2-.4-.4-.8-.6-1.3 1.7-.5 4.4.1 5.6 2.6 1.1 2.3.3 5-1.7 6.2z" fill="#fff"/><path d="m6.6 10.6c-1.3.3-2.8-.5-3.4-1.8-.5-1.3-.2-3 .9-3.8.9 1.9 1.7 3.7 2.5 5.6z" fill="#fff"/><path d="m2 9.7 5 1.5v-.9l-3.4-.8z" fill="#b7ca9d"/><path d="m7 3.8-3.4.8-1.6-.3 5-1.5z" fill="#3c4929"/><path d="m12 9.7-5 1.5v-.9l3.4-.8z" fill="#b7ca9d"/><path d="m7 3.8 3.4.8 1.6-.3-5-1.5z" fill="#3c4929"/><path d="m3.6 9.5-1.6.2v-5.4l1.6.3z" fill="#759c3e"/><path d="m7 0-5.7 2.9v8.2l5.7 2.9zm-1.7 10.7-3.3-1v-5.4l3.3-1z" fill="#4b612c"/><path d="m10.4 9.5 1.6.2v-5.4l-1.6.3z" fill="#4b612c"/><path d="m7 14 5.7-2.9v-8.2l-5.7-2.9zm1.7-10.6 3.3 1v5.3l-3.3 1z" fill="#759c3e"/></svg>