<svg enable-background="new 0 0 14 14" viewBox="0 0 14 14" xmlns="http://www.w3.org/2000/svg"><path d="m4.8 1.3c-.1.9-.4 2.3-.5 3.7-.2 2.5-.1 4.2-.1 4.2l-3.5 3.3s-.3-1.8-.4-3.9c0-1.3-.1-2.4-.1-3.1v-.1c0-.1.1-.5.5-1 .6-.5 4.2-3.4 4.1-3.1z" fill="#1496ff"/><path d="m4.8 1.3c-.1.9-.4 2.3-.5 3.7 0 0-3.9-.5-4.1.5 0-.1.1-.6.5-1.1s4.2-3.4 4.1-3.1z" fill="#1284ea"/><path d="m.2 5.3v.2c.1-.2.2-.3.3-.5.3-.3.7-.4.9-.4 1-.1 2.3-.3 3.8-.3 2.4-.1 4.1.1 4.1.1l3.5-3.4s-1.8-.3-3.9-.6c-1.4-.1-2.6-.3-3.3-.3-.1 0-.5-.1-1 .4s-3 2.9-4 3.8c-.4.5-.4 1-.4 1z" fill="#b4dc00"/><path d="m12.6 9.5c-1 .1-2.3.3-3.8.3-2.4.1-4-.1-4-.1l-3.5 3.3s1.8.4 3.9.6c1.3.2 2.4.2 3.1.3.1 0 .1-.1.2-.1s.5-.1 1-.5c.4-.5 3.4-3.8 3.1-3.8z" fill="#6f2da8"/><path d="m12.6 9.5c-1 .1-2.3.3-3.8.3 0 0 .3 3.9-.6 4 .1 0 .7-.1 1.1-.5.6-.3 3.6-3.8 3.3-3.8z" fill="#591f91"/><path d="m8.4 13.9h-.2c.2-.1.3-.1.5-.2.4-.3.5-.8.5-.9.2-.9.4-2.3.5-3.7.2-2.5.1-4.1.1-4.1l3.5-3.3s.3 1.8.4 3.9c.1 1.3.1 2.6.1 3.2 0 .1.1.5-.4 1s-3 2.9-4 3.8c-.4.4-.9.3-1 .3z" fill="#73be28"/></svg>