<svg enable-background="new 0 0 14 14" viewBox="0 0 14 14" xmlns="http://www.w3.org/2000/svg" xmlns:xlink="http://www.w3.org/1999/xlink"><symbol id="a" viewBox="-141.2 -141.2 282.4 282.4"><path d="m-126.1 117-15.1-8.1v-228.5l15.1-8.1 59.5 117.6z" fill="#9d5025" transform="translate(0 5.3451)"/><path d="m-97.4 73.6 22.3 33.8 99.7-47.5-23.3-4z" fill="#9d5025" transform="translate(17.3176 7.4629)"/><path d="m-109.8-141.3 24.5-36.1 114.8 53.1-22.2 3.7z" fill="#9d5025" transform="translate(12.4236 57.8002)"/><path d="m-95.1-118.8-35.2-8.9v244.7l35.2-8.6z" fill="#f58536" transform="translate(4.2824 5.3451)"/><path d="m-118.4 131.3 18.5 9.9 34.9-157-34.9-125.3-18.5 9.9z" fill="#9d5025" transform="translate(9.0118)"/><path d="m-26.7-83.6 23.4-3.9 21.4 63.9-21.4 70-23.4-4z" fill="#9d5025" transform="translate(45.247 20.9266)"/><path d="m-69.1-130.3-36-10.9v282.4l36-10.9z" fill="#f58536" transform="translate(14.2588)"/><path d="m52.2-119-157.3-31.3v-48.3l157.3 47.6z" fill="#f58536" transform="translate(14.2588 57.4473)"/><path d="m52.5 62.3-157.6 32.1v46.8l157.6-47.9z" fill="#f58536" transform="translate(14.2588)"/><path d="m-9.9 89.4 25.3-7.5v-186.9l-25.3-7.4z" fill="#f58536" transform="translate(51.8823 11.4341)"/><path d="m87.1 8-67.7-3.5-23.9 1.8 68.5 59z" fill="#6b3a19" transform="translate(54.047 16.7413)"/><path d="m-4.5 6.3 68.5 4.1v54.9l-68.5-11.8z" fill="#9d5025" transform="translate(54.047 16.7413)"/><path d="m-50.6 16.7 69.3 74.9 35.3-72.4-71.9-4.9z" fill="#6b3a19" transform="translate(35.8001 10.9549)"/><path d="m-50.6 16.7 69.3 6.3v68.6l-69.3-17.4z" fill="#9d5025" transform="translate(35.8001 10.9549)"/><path d="m-4.5-70.8 91.6-1.7-23.1-57.4-68.5 11.9z" fill="#9d5025" transform="translate(54.047 46.7949)"/><path d="m-50.6-76.7 104.6-2.6-35.3-72.3-69.3 17.4z" fill="#9d5025" transform="translate(35.8001 48.1058)"/><path d="m-50.6-76 69.3-6.4 35.3 3.8-71.9 4.9z" fill="#fbbf93" transform="translate(35.8001 47.4378)"/><path d="m87.1-72-67.7 3.4-23.9-1.7 68.5-4.2z" fill="#fbbf93" transform="translate(54.047 46.3158)"/><path d="m44.6 10.4 23.1-2.4v50l-23.2 7.4v-55z" fill="#f58536" transform="translate(73.4353 16.7413)"/><path d="m34.3 19.2-35.2 3.8v68.6l35.3-11.3v-61.1z" fill="#f58536" transform="translate(55.4471 10.9549)"/><path d="m44.6-75.4 23.2 2.5v-50l-23.2-7.4z" fill="#f58536" transform="translate(73.4353 47.2739)"/><path d="m34.3-80-35.3-3.8v-68.5l35.3 11.3z" fill="#f58536" transform="translate(55.4471 48.8371)"/></symbol><path d="m.7-4.4-.7.4v10.5l.7.4 2.8-5.4z" fill="#9d5025" transform="translate(0 5.3451)"/><path d="m-14.4-4.6 1-1.6 4.6 2.2-1.1.2z" fill="#9d5025" transform="translate(17.3176 7.4629)"/><path d="m-10.3-47.3 1.1 1.7 5.3-2.5-1-.2z" fill="#9d5025" transform="translate(12.4236 57.8002)"/><path d="m-1.9 6.5-1.6.4v-11.3l1.6.4z" fill="#f58536" transform="translate(4.2824 5.3451)"/><path d="m-7.5.5.9-.5 1.6 7.3-1.6 5.8-.9-.5z" fill="#9d5025" transform="translate(9.0118)"/><path d="m-37.8-11.4 1.1.2 1-3-1-3.2-1.1.2z" fill="#9d5025" transform="translate(45.247 20.9266)"/><g fill="#f58536"><path d="m-10.2 12.6-1.7.5v-13.1l1.7.5z" transform="translate(14.2588)"/><path d="m-4.6-48-7.3 1.5v2.2l7.3-2.2z" transform="translate(14.2588 57.4473)"/><path d="m-4.6 3.7-7.3-1.5v-2.2l7.3 2.2z" transform="translate(14.2588)"/><path d="m-43.3-9.5 1.2.3v8.7l-1.2.3z" transform="translate(51.8823 11.4341)"/></g><path d="m-40.9-11.3-3.1.2-1.1-.1 3.1-2.8z" fill="#6b3a19" transform="translate(54.047 16.7413)"/><path d="m-45.2-11.2 3.2-.2v-2.6l-3.2.6z" fill="#9d5025" transform="translate(54.047 16.7413)"/><path d="m-29.9-5.6 3.2-3.5 1.6 3.4-3.3.2z" fill="#6b3a19" transform="translate(35.8001 10.9549)"/><path d="m-29.9-5.6 3.2-.3v-3.2l-3.2.8z" fill="#9d5025" transform="translate(35.8001 10.9549)"/><path d="m-45.2-39.1 4.2.1-1.1 2.7-3.2-.6v-2.2z" fill="#9d5025" transform="translate(54.047 46.7949)"/><path d="m-29.9-40.2 4.8.1-1.6 3.4-3.2-.8z" fill="#9d5025" transform="translate(35.8001 48.1058)"/><path d="m-29.9-39.5 3.2.3 1.6-.2-3.3-.2z" fill="#fbbf93" transform="translate(35.8001 47.4378)"/><path d="m-40.9-38.5-3.1-.2-1.1.1 3.2.2z" fill="#fbbf93" transform="translate(54.047 46.3158)"/><g fill="#f58536"><path d="m-61.4-11.4 1.1.1v-2.3l-1.1-.3z" transform="translate(73.4353 16.7413)"/><path d="m-44.7-5.8-1.6-.2v-3.2l1.6.5z" transform="translate(55.4471 10.9549)"/><path d="m-61.4-39.4 1.1-.1v2.3l-1.1.3z" transform="translate(73.4353 47.2739)"/><path d="m-44.7-40.8-1.6.2v3.2l1.6-.5z" transform="translate(55.4471 48.8371)"/></g><use height="282.4" transform="matrix(.04923394 0 0 .04923394 7 7)" width="282.4" x="-141.2" xlink:href="#a" y="-141.2"/></svg>
