<svg enable-background="new 0 0 14 14" viewBox="0 0 14 14" xmlns="http://www.w3.org/2000/svg"><path d="m10.2 0c-.1 0-.1 0-.2.1l-7.8 7.9s-.1.1-.1.1l-2.1 5.5c0 .1 0 .2.1.3s.2.1.3.1l5.5-2.1s.1 0 .1-.1l.4-.4c.1 0 .1-.1.2-.2l7.3-7.4c.1.1.1-.1.1-.2s-.1-.2-.2-.2-.2 0-.3.1l-7.3 7.3c-.2-.1-.6-.2-1-.2 0-.1.1-.2.2-.4 0-.4 0-.9-.4-1.2-.3-.4-.8-.4-1.2-.4-.1 0-.2.1-.3.1 0 0 0 0 0-.1 0-.3-.1-.6-.3-.9l7.3-7.3c.1-.1.1-.2.1-.3-.1 0-.2-.1-.4-.1zm-7.4 8.3c.1.1.1.3.1.4 0 .2-.1.4-.1.5s0 .3.1.4.3.1.4 0 .4-.2.7-.3.5 0 .7.1c.2.2.2.4.2.7s-.2.6-.3.7-.1.3 0 .4.2.2.4.1c.4-.1.7-.1.9 0l-.1.1-3.4 1.3-.9-.9 1.3-3.4z" fill="#77787b"/></svg>