<svg enable-background="new 0 0 52.077 52.077" viewBox="0 0 52.077 52.077" xmlns="http://www.w3.org/2000/svg"><path d="m51.039 7c0-4.596-12.577-7-25-7s-25 2.404-25 7c0 1.042.651 1.969 1.796 2.783l17.204 23.54v17.528c0 .43.256.813.652.979l.686.246 10.662-10.663v-8.087l17.185-23.517-.001-.012c1.156-.817 1.816-1.75 1.816-2.797zm-25-5c14.04 0 23 2.961 23 5 0 .422-.404.883-1.135 1.349l-.051-.006.017.027c-2.837 1.781-10.737 3.63-21.831 3.63-11.105 0-19.01-1.852-21.839-3.635l.017-.027-.412-.245c-.491-.378-.766-.749-.766-1.093 0-2.039 8.96-5 23-5zm4 38.586-8 8v-14.586h8zm.494-8.586h-8.987l-14.931-20.433c4.823 1.607 12.148 2.433 19.424 2.433s14.6-.826 19.424-2.432z"/></svg>