<svg enable-background="new 0 0 14 14" viewBox="0 0 14 14" xmlns="http://www.w3.org/2000/svg"><path d="m7 0c-.6 0-1.1.5-1.1 1.1v.1c-1.8.5-3.2 2.2-3.2 4.2v4.8c0 .3-.2.5-.5.5h-.6v1.1h3.8c-.1.2-.1.3-.1.5.1.9.8 1.7 1.7 1.7s1.6-.7 1.6-1.6c0-.2 0-.4-.1-.5h3.8v-1.1h-.5c-.3 0-.5-.2-.5-.5v-4.8c0-2-1.3-3.8-3.2-4.3v-.1c0-.6-.5-1.1-1.1-1.1zm-.2 2.2h.2.1c1.7.1 3.1 1.6 3.1 3.4v4.7c0 .2 0 .4.1.5h-6.6c.1-.2.1-.3.1-.5v-4.9c0-1.7 1.3-3.1 3-3.2zm.2 9.6c.3 0 .5.2.5.5s-.2.5-.5.5-.5-.2-.5-.5c0-.2.2-.5.5-.5z" fill="#b6b8ba"/><path d="m6.5-2.3h1v18.5h-1z" fill="#77787b" transform="matrix(.7071 .7071 -.7071 .7071 7 -2.8995)"/></svg>