<svg enable-background="new 0 0 25 25" viewBox="0 0 25 25" xmlns="http://www.w3.org/2000/svg"><path d="m21.7 13.6c0-.5.2-.9.2-1.4s0-.9-.2-1.1l2.7-1.8c.2-.2.5-.5.2-.9l-2.7-4.3c-.2-.2-.5-.5-.7-.2l-3.2 1.4c-.5-.7-1.4-1.1-2.3-1.4l-.2-3.2c0-.5-.2-.7-.7-.7h-5c-.3 0-.6.2-.6.7l-.2 3.2c-.9.2-1.6.6-2.3 1.1l-2.9-1.1c-.2-.2-.7 0-.7.2l-2.7 4.3c-.2.4-.2.7.2.9l2.5 2c0 .5-.2.9-.2 1.1 0 .5 0 .9.2 1.4l-2.5 1.8c-.2 0-.5.5-.2.9l2.5 4.3c.2.5.5.5.7.5l3.2-1.6c.7.7 1.4 1.1 2.3 1.4l.5 3.2c0 .5.2.7.7.7h5c.5 0 .7-.2.7-.7v-3.2c.9-.5 1.8-.7 2.3-1.4l2.9 1.4c.2.2.7 0 .7-.2l2.5-4.3c.2-.2.2-.7-.2-.9zm-9.3 3.9c-2.7 0-5-2.3-5-5s2.3-5 5-5 5 2.3 5 5-2.3 5-5 5" fill="#00ade4"/></svg>