<svg viewBox="0 0 36 36" fill="currentColor" xmlns="http://www.w3.org/2000/svg"><path fill-rule="evenodd" clip-rule="evenodd" d="M16.945 8.557c0-.124.101-.225.225-.225h2.369a.225.225 0 1 1 0 .45H17.17a.225.225 0 0 1-.225-.225ZM16.002 9.488c.124 0 .225.101.225.225v2.369a.225.225 0 0 1-.45 0V9.713c0-.124.1-.225.225-.225ZM16.002 5.34c.124 0 .225.1.225.225v2.368a.225.225 0 0 1-.45 0V5.565c0-.124.1-.225.225-.225ZM12.297 8.557c0-.124.1-.225.225-.225h2.368a.225.225 0 1 1 0 .45h-2.368a.225.225 0 0 1-.225-.225ZM22.29 27.56c0-.123.1-.224.224-.224h2.369a.225.225 0 0 1 0 .45h-2.369a.225.225 0 0 1-.225-.225ZM21.345 28.492c.125 0 .225.1.225.225v2.369a.225.225 0 1 1-.45 0v-2.369c0-.124.101-.225.225-.225ZM21.345 24.344c.125 0 .225.1.225.225v2.368a.225.225 0 0 1-.45 0V24.57c0-.124.101-.225.225-.225ZM17.64 27.56c0-.123.101-.224.226-.224h2.368a.225.225 0 0 1 0 .45h-2.368a.225.225 0 0 1-.225-.225Z" fill="#000"/><path d="m5.855 24.874-.37-1.168c2.005-3.1 5.413-3.4 6.866-3.163l9.432-5.528c-.638-2.508 3.533-2.925 5.699-2.82v1.025c-1.596.957-1.368 1.462-1.055 1.595.912.274 3.325-.55 4.417-.997v2.28c-.707 2.165-3.999 2.536-5.556 2.45l-9.232 5.5c-.775 3.19-4.483 3.685-6.24 3.533 0-2.598 0-1.529.113-1.596 2.781-1.641 2.527-2.431 2.052-2.621-1.527-.798-4.72.674-6.126 1.51Z" fill="#00ADE4"/><path fill-rule="evenodd" clip-rule="evenodd" d="M11.613 23.17c-.933-.637-2.287-.547-3.417-.276a8.035 8.035 0 0 0-2.216.899.225.225 0 1 1-.228-.389 8.486 8.486 0 0 1 2.339-.947c1.148-.276 2.674-.411 3.776.342.401.274.61.598.626.957.015.346-.155.667-.375.936-.442.538-1.186.987-1.664 1.213a.225.225 0 0 1-.193-.406c.456-.216 1.13-.63 1.509-1.092.19-.231.282-.445.274-.632-.008-.174-.106-.383-.43-.605Z" fill="#000"/><path fill-rule="evenodd" clip-rule="evenodd" d="M15.47 22.842a.225.225 0 0 1 .151.28c-.535 1.77-1.796 2.6-3.066 2.95-1.258.347-2.535.227-3.164.099a.225.225 0 1 1 .09-.441c.585.119 1.785.23 2.955-.092 1.158-.32 2.275-1.059 2.754-2.646a.225.225 0 0 1 .28-.15Z" fill="#000"/><path fill-rule="evenodd" clip-rule="evenodd" d="M25.106 17.255a.225.225 0 0 1-.091.305 124.442 124.442 0 0 0-9.502 5.658.225.225 0 1 1-.248-.376c3.097-2.04 6.271-3.92 9.536-5.678a.225.225 0 0 1 .305.091Z" fill="#000"/><path fill-rule="evenodd" clip-rule="evenodd" d="M30.611 13.535c.125 0 .225.1.225.225 0 1.634-1.043 2.635-2.341 3.192-1.292.555-2.873.691-4.069.597a.225.225 0 1 1 .035-.448c1.147.09 2.65-.044 3.856-.562 1.2-.516 2.07-1.389 2.07-2.779 0-.124.1-.225.224-.225Z" fill="#000"/><path fill-rule="evenodd" clip-rule="evenodd" d="M27.69 12.226a.225.225 0 0 1-.184.26c-.416.071-.762.3-1.163.565l-.016.01a6.49 6.49 0 0 0-.9.701c-.102.097-.2.192-.264.293-.06.096-.068.162-.044.223.024.06.073.113.157.16.085.047.192.08.302.106.496.116 1.055.108 1.588.067.998-.078 1.91-.378 2.802-.836a.225.225 0 0 1 .206.4c-.935.48-1.904.8-2.973.884-.545.043-1.16.055-1.725-.076a1.619 1.619 0 0 1-.42-.152.772.772 0 0 1-.356-.39c-.095-.243-.02-.464.082-.626.096-.152.233-.282.327-.371a6.933 6.933 0 0 1 .97-.757l.045-.03c.379-.251.794-.527 1.306-.615a.225.225 0 0 1 .26.184Z" fill="#000"/><path fill-rule="evenodd" clip-rule="evenodd" d="m26.82 11.857.329.002a.225.225 0 0 1 0 .45c-.117 0-.232 0-.346-.002a13.531 13.531 0 0 0-1.014.017c-.795.054-1.616.273-2.368.571-.595.236-1.212.575-1.465 1.098-.162.334-.072.623.12 1.025a.225.225 0 0 1-.407.193c-.196-.412-.379-.877-.118-1.415.336-.691 1.107-1.082 1.704-1.319.783-.31 1.65-.544 2.504-.602.354-.023.713-.02 1.06-.018ZM12.48 21.025c-1.057-.47-2.446-.285-3.56.114-.906.324-1.728.922-2.435 1.602a3.06 3.06 0 0 0-.696.989.225.225 0 0 1-.41-.187c.201-.44.441-.787.794-1.127.734-.705 1.608-1.348 2.596-1.701 1.156-.414 2.68-.64 3.894-.1a.225.225 0 0 1-.182.41Z" fill="#000"/><path fill-rule="evenodd" clip-rule="evenodd" d="M23.18 14.476a.225.225 0 0 1-.094.304 181.2 181.2 0 0 1-2.052 1.053c-1.411.716-2.815 1.43-4.187 2.222-1.769 1.023-3.48 2.136-5.185 3.273a.225.225 0 0 1-.25-.375c1.707-1.138 3.428-2.257 5.21-3.287 1.382-.8 2.805-1.522 4.223-2.242.68-.345 1.36-.69 2.032-1.043a.225.225 0 0 1 .304.095ZM9.966 25.797a.225.225 0 0 1 .223.227c-.002.182-.01.363-.018.54l-.002.038c-.008.19-.016.376-.016.56a.225.225 0 1 1-.45 0c0-.195.008-.39.017-.58l.001-.037c.008-.178.016-.352.018-.526a.225.225 0 0 1 .227-.222Z" fill="#000"/><path fill-rule="evenodd" clip-rule="evenodd" d="M15.967 23.934c.121.026.2.145.174.267-.323 1.537-1.465 2.556-2.745 3.113-1.275.556-2.73.674-3.743.372a.225.225 0 1 1 .128-.431c.893.265 2.237.169 3.435-.353 1.194-.52 2.2-1.443 2.484-2.794a.225.225 0 0 1 .267-.174Z" fill="#000"/><path fill-rule="evenodd" clip-rule="evenodd" d="M25.403 18.464a.225.225 0 0 1-.082.307l-1.45.842c-2.532 1.47-4.982 2.893-7.839 4.529a.225.225 0 1 1-.223-.39c2.855-1.636 5.304-3.058 7.836-4.528l1.45-.842a.225.225 0 0 1 .308.082Z" fill="#000"/><path fill-rule="evenodd" clip-rule="evenodd" d="M30.927 15.647a.225.225 0 0 1 .146.283c-.367 1.16-1.352 1.898-2.468 2.35-1.118.451-2.404.633-3.445.659a.225.225 0 0 1-.011-.45c1.006-.026 2.234-.201 3.287-.627 1.055-.427 1.898-1.09 2.208-2.068a.225.225 0 0 1 .283-.147ZM5.377 23.468a.225.225 0 0 1 .3.104c.214.442.412.904.45 1.437a.225.225 0 1 1-.449.032c-.031-.442-.196-.839-.405-1.273a.225.225 0 0 1 .104-.3Z" fill="#000"/><path fill-rule="evenodd" clip-rule="evenodd" d="M11.25 23.513c-.77-.009-1.562.088-2.317.258a10.2 10.2 0 0 0-2.368.87 3.37 3.37 0 0 0-.795.548.225.225 0 1 1-.308-.328c.273-.257.572-.454.9-.62a10.658 10.658 0 0 1 2.472-.909 10.567 10.567 0 0 1 2.42-.269c.358.004.64.041.966.236a.225.225 0 0 1-.232.386c-.228-.137-.42-.168-.738-.172ZM27.526 11.93c.123.012.215.121.204.245-.022.238-.015.456-.008.69.004.126.008.255.008.395a.225.225 0 0 1-.45 0c0-.11-.003-.225-.007-.344-.007-.25-.015-.517.008-.781a.225.225 0 0 1 .245-.204Z" fill="#000"/><path fill-rule="evenodd" clip-rule="evenodd" d="M27.86 13.178a.225.225 0 0 1-.126.291c-.41.163-.784.336-1.05.626a.764.764 0 0 0-.197.322.648.648 0 0 0 .025.348.225.225 0 1 1-.431.127 1.09 1.09 0 0 1-.03-.585c.048-.19.155-.355.301-.515.343-.374.805-.578 1.217-.741a.225.225 0 0 1 .292.127ZM30.874 13.778a.225.225 0 0 1 .178.264c-.072.361-.093.73-.109 1.114l-.005.133c-.014.34-.028.691-.076 1.042a.225.225 0 0 1-.446-.062c.045-.327.058-.656.072-.998l.006-.133c.016-.385.038-.785.116-1.183a.225.225 0 0 1 .264-.177ZM24.895 17.367a.225.225 0 0 1 .262.18l.007.039c.064.342.13.69.16 1.051a.225.225 0 1 1-.448.04c-.03-.34-.09-.669-.155-1.016l-.006-.032a.225.225 0 0 1 .18-.262ZM15.751 22.543a.225.225 0 0 1 .23.22c.004.172.023.345.046.526l.012.097c.02.149.04.304.051.46a.225.225 0 0 1-.448.035 8.425 8.425 0 0 0-.049-.434l-.013-.102a5.52 5.52 0 0 1-.049-.572.225.225 0 0 1 .22-.23ZM17.018 21.863a.225.225 0 0 1 .276.159c.062.23.115.462.168.689l.026.114a.225.225 0 1 1-.439.1l-.026-.115c-.053-.227-.104-.45-.164-.67a.225.225 0 0 1 .159-.277ZM18.575 21.044a.225.225 0 0 1 .28.152c.05.17.067.343.074.502.004.074.005.14.007.202.002.083.003.162.01.248a.225.225 0 1 1-.45.032 6.646 6.646 0 0 1-.01-.29l-.006-.171a1.669 1.669 0 0 0-.057-.395.225.225 0 0 1 .152-.28ZM20.48 19.884a.225.225 0 0 1 .243.206c.03.386.065.759.134 1.127a.225.225 0 0 1-.443.083c-.074-.394-.11-.787-.14-1.175a.225.225 0 0 1 .207-.241ZM22.875 18.517c.123.01.214.12.203.244-.025.273-.003.525.021.816l.007.076a.225.225 0 0 1-.449.038l-.007-.082a4.93 4.93 0 0 1-.02-.889.225.225 0 0 1 .245-.203ZM26.786 17.175a.225.225 0 0 1 .262.182c.054.297.141.583.278.837a.225.225 0 0 1-.396.214 3.28 3.28 0 0 1-.325-.97.225.225 0 0 1 .181-.262ZM29.333 16.269c.123.02.205.137.184.26-.043.257-.031.532.002.812a.225.225 0 1 1-.447.053 3.317 3.317 0 0 1 .002-.941.225.225 0 0 1 .26-.184Z" fill="#000"/><path fill-rule="evenodd" clip-rule="evenodd" d="M25.73 13.097c.121-.031.244.041.275.161.028.108.068.214.112.332l.031.083c.054.147.111.312.136.487a.225.225 0 0 1-.445.063 1.961 1.961 0 0 0-.113-.394 19.055 19.055 0 0 0-.027-.073c-.045-.12-.095-.252-.13-.385a.225.225 0 0 1 .162-.274ZM14.752 24.184a.225.225 0 0 1 .244.204c.018.202.07.398.13.618l.006.027c.06.224.124.47.139.733a.225.225 0 1 1-.45.025 3.205 3.205 0 0 0-.134-.68c-.056-.21-.117-.441-.14-.682a.225.225 0 0 1 .204-.244ZM12.53 25.83a.225.225 0 0 1 .247.2l.015.138c.037.332.08.72-.022 1.095a.225.225 0 0 1-.434-.118c.078-.286.046-.581.009-.922l-.016-.147a.225.225 0 0 1 .201-.247ZM7.139 22.849a.225.225 0 0 1 .267.172l.031.14c.05.22.111.483.111.73a.225.225 0 1 1-.45 0c0-.191-.045-.39-.095-.608l-.037-.167a.225.225 0 0 1 .173-.267ZM9.226 22.41a.225.225 0 0 1 .26.183l.016.09c.033.188.07.39.07.606a.225.225 0 1 1-.45 0 2.92 2.92 0 0 0-.062-.521l-.018-.098a.225.225 0 0 1 .184-.26Z" fill="#000"/><path d="M12.695 18.07c-4.574-1.917-7.467-4.338-7.601-4.742.807-2.044 2.578-2.802 3.363-2.926l5.482 3.599 1.85 1.413c-.054 2.582-2.085 2.847-3.094 2.656Z" fill="#00ADE4"/><path d="M14.073 17.767c-.592-.727-.068-1.491.269-1.783l9.753 5.852 6.491 2.69-3.935 2.12-2.556-1.38-.908-2.353c-2.791-1.413-8.522-4.42-9.114-5.146Z" fill="#fff"/><path fill-rule="evenodd" clip-rule="evenodd" d="M14.512 14.586c.2-.032.41-.033.627.008.46.086.703.41.802.768.095.347.063.74-.023 1.05a.225.225 0 0 1-.434-.12c.07-.255.091-.564.023-.81-.065-.237-.201-.4-.45-.446-.53-.098-1.023.123-1.456.516-.433.393-.78.936-.994 1.408a.225.225 0 0 1-.316.102c-.017.12-.017.237 0 .345.041.247.176.463.463.606.479.24 1.092.253 1.515-.033a.225.225 0 1 1 .252.372c-.589.399-1.381.357-1.968.064-.42-.21-.642-.551-.705-.936-.062-.373.028-.773.195-1.125.195-.413.543-.866.964-1.21.417-.341.936-.6 1.472-.563.011 0 .022.002.033.004Z" fill="#000"/><path fill-rule="evenodd" clip-rule="evenodd" d="M5.12 13.841a.225.225 0 0 1 .313-.054c1.105.782 2.3 1.447 3.498 2.112l.454.254c1.33.743 2.654 1.472 4.05 2.049a.225.225 0 0 1-.173.416c-1.422-.589-2.768-1.33-4.097-2.073l-.453-.252c-1.195-.664-2.412-1.342-3.539-2.138a.225.225 0 0 1-.054-.314ZM8.172 10.2c.07-.102.21-.13.312-.06.661.448 1.335.877 2.013 1.307l.01.007a81.3 81.3 0 0 1 2.015 1.306c.176.12.36.239.546.36.779.508 1.622 1.058 2.238 1.776a.225.225 0 1 1-.342.293c-.57-.664-1.342-1.169-2.116-1.674-.194-.126-.388-.253-.578-.382-.66-.446-1.331-.873-2.006-1.301l-.008-.005a79.775 79.775 0 0 1-2.024-1.314.225.225 0 0 1-.06-.313Z" fill="#000"/><path fill-rule="evenodd" clip-rule="evenodd" d="M6.941 11.074c-.433.324-.814.77-1.13 1.19-.205.268-.397.58-.466.872a.762.762 0 0 0-.006.382c.03.109.096.218.225.32a.225.225 0 0 1-.28.352 1.061 1.061 0 0 1-.379-.551 1.208 1.208 0 0 1 .002-.608c.092-.385.33-.757.545-1.04.324-.428.736-.915 1.22-1.277.485-.363 1.064-.614 1.714-.53a.225.225 0 1 1-.058.447c-.492-.064-.955.12-1.387.443Z" fill="#000"/><path fill-rule="evenodd" clip-rule="evenodd" d="M6.101 12.67a.225.225 0 0 1 .308-.08c2.036 1.19 4.073 2.375 6.203 3.358a.225.225 0 0 1-.189.409c-2.152-.994-4.208-2.19-6.241-3.38a.225.225 0 0 1-.08-.307ZM7.489 11.566a.225.225 0 0 1 .305-.089c2.133 1.172 4.251 2.35 6.245 3.78a.225.225 0 1 1-.262.365c-1.97-1.412-4.065-2.578-6.2-3.75a.225.225 0 0 1-.088-.306ZM13.551 17.473c.06-.11.196-.15.305-.09a276.158 276.158 0 0 1 9.6 5.513.225.225 0 1 1-.232.386 275.678 275.678 0 0 0-9.584-5.504.225.225 0 0 1-.089-.305ZM14.31 15.873a.225.225 0 0 1 .31-.068c1.168.752 2.34 1.494 3.514 2.237.679.429 1.358.858 2.036 1.29 1.295.824 2.592 1.62 3.944 2.329a.225.225 0 1 1-.208.398c-1.37-.717-2.68-1.521-3.978-2.347-.676-.43-1.354-.86-2.032-1.288a528.224 528.224 0 0 1-3.52-2.24.225.225 0 0 1-.067-.311Z" fill="#000"/><path fill-rule="evenodd" clip-rule="evenodd" d="M23.293 22.84a.225.225 0 0 1 .29.128c.105.271.201.554.296.833.053.156.106.31.159.46.151.428.313.838.523 1.215a.225.225 0 0 1-.393.219c-.229-.41-.4-.849-.554-1.283-.058-.162-.112-.322-.166-.48a21.817 21.817 0 0 0-.285-.802.225.225 0 0 1 .13-.29Z" fill="#000"/><path fill-rule="evenodd" clip-rule="evenodd" d="M23.991 25.053a.225.225 0 0 1 .316-.042c.57.434 1.165.804 1.81 1.114.12.058.25.11.387.165l.11.044c.175.07.36.149.526.248a.225.225 0 1 1-.232.386 3.335 3.335 0 0 0-.462-.217 19.384 19.384 0 0 0-.101-.04c-.14-.056-.287-.115-.423-.18a10.86 10.86 0 0 1-1.888-1.162.225.225 0 0 1-.043-.316Z" fill="#000"/><path fill-rule="evenodd" clip-rule="evenodd" d="M23.128 22.587a.225.225 0 0 1 .313.057c.59.85 1.282 1.667 2.024 2.389.253.246.531.466.82.695l.023.018c.294.233.597.475.872.75a.225.225 0 0 1-.318.319 9.585 9.585 0 0 0-.834-.716l-.03-.024c-.283-.225-.577-.457-.847-.72a16.915 16.915 0 0 1-2.08-2.455.225.225 0 0 1 .057-.313Z" fill="#000"/><path fill-rule="evenodd" clip-rule="evenodd" d="M30.905 24.322a.225.225 0 0 1-.08.308c-.686.403-1.389.777-2.087 1.15l-.144.076c-.747.398-1.488.795-2.206 1.23a.225.225 0 1 1-.233-.385c.73-.442 1.48-.845 2.227-1.242l.143-.076a55.67 55.67 0 0 0 2.072-1.141.225.225 0 0 1 .308.08Z" fill="#000"/><path fill-rule="evenodd" clip-rule="evenodd" d="M23.87 21.744a.225.225 0 0 1 .297-.116 98.322 98.322 0 0 0 6.536 2.594.225.225 0 1 1-.151.424 98.808 98.808 0 0 1-6.566-2.605.225.225 0 0 1-.116-.297ZM14.835 15.706a.225.225 0 0 1-.169.27c-.293.067-.481.3-.56.617-.08.323-.034.693.112.957a.225.225 0 1 1-.394.217 1.83 1.83 0 0 1-.155-1.282c.107-.429.39-.831.896-.948a.225.225 0 0 1 .27.169Z" fill="#000"/></svg>