<svg viewBox="0 0 40 40" fill="currentColor" xmlns="http://www.w3.org/2000/svg"><path d="m6.086 21.31 13.36-7.615 13.952 7.889v5.015l-13.314 7.98-13.998-7.615V21.31Z" fill="#fff"/><path fill-rule="evenodd" clip-rule="evenodd" d="M19.481 28.288a.25.25 0 0 1 .25.25v6.174a.25.25 0 0 1-.5 0v-6.174a.25.25 0 0 1 .25-.25ZM33.258 20.36a.25.25 0 0 1 .25.25v6.396a.25.25 0 1 1-.5 0v-6.397a.25.25 0 0 1 .25-.25ZM5.842 20.361a.25.25 0 0 1 .25.25v6.253a.25.25 0 0 1-.5 0V20.61a.25.25 0 0 1 .25-.25Z" fill="#000"/><path fill-rule="evenodd" clip-rule="evenodd" d="M4.758 20.814a.25.25 0 0 1 .34-.095L20.3 29.312a.25.25 0 0 1-.246.435l-15.2-8.591a.25.25 0 0 1-.095-.34ZM19.266 13.178c.069-.12.212-.166.32-.103l15.144 8.747c.108.063.14.21.07.33-.069.12-.212.166-.32.103l-15.144-8.747c-.108-.063-.14-.21-.07-.33Z" fill="#000"/><path fill-rule="evenodd" clip-rule="evenodd" d="M5.427 21.53a.25.25 0 0 1 .098-.34l13.856-7.62a.25.25 0 0 1 .242.438l-13.856 7.62a.25.25 0 0 1-.34-.098ZM19.271 29.164a.25.25 0 0 1 .088-.343L33.6 20.393a.25.25 0 0 1 .254.43l-14.241 8.429a.25.25 0 0 1-.343-.088ZM3.766 25.201a.25.25 0 0 1 .341-.09l16.747 9.673a.25.25 0 1 1-.25.433L3.857 25.543a.25.25 0 0 1-.091-.341Z" fill="#000"/><path fill-rule="evenodd" clip-rule="evenodd" d="M18.637 35.118a.25.25 0 0 1 .092-.342l15.265-8.806a.25.25 0 0 1 .25.433L18.98 35.21a.25.25 0 0 1-.342-.091Z" fill="#000"/><path fill-rule="evenodd" clip-rule="evenodd" d="M33.319 21.576a.25.25 0 0 1 .175.307l-1.576 5.797a.25.25 0 1 1-.483-.131l1.577-5.797a.25.25 0 0 1 .306-.176Zm-1.543 0a.25.25 0 0 1 .176.307l-2 7.353a.25.25 0 0 1-.482-.13l2-7.354a.25.25 0 0 1 .306-.176Zm-2 1.095a.25.25 0 0 1 .176.307l-1.906 7.01a.25.25 0 0 1-.483-.131l1.907-7.01a.25.25 0 0 1 .307-.176ZM27.64 24.01a.25.25 0 0 1 .176.307l-1.819 6.689a.25.25 0 0 1-.482-.131l1.819-6.69a.25.25 0 0 1 .306-.175Zm-2.043 1a.25.25 0 0 1 .175.306l-1.891 6.956a.25.25 0 1 1-.483-.131l1.892-6.956a.25.25 0 0 1 .307-.176Zm-1.69.878a.25.25 0 0 1 .175.307l-1.92 7.065a.25.25 0 0 1-.483-.132l1.921-7.064a.25.25 0 0 1 .307-.176Zm-2.16 1.485a.25.25 0 0 1 .176.307l-1.891 6.954a.25.25 0 1 1-.483-.13l1.891-6.955a.25.25 0 0 1 .307-.176Z" fill="#000"/><path d="M21.584 8.133c-.973.334-2.964.994-3.146.957v10.533h1.641v-9.94l.775-.273 2.69 4.605 1.505-.502-3.465-5.38Z" fill="#00ADE4"/><path d="M20.057 5.15a3.71 3.71 0 0 1 1.025.089c2.678.632 1.86 3.46-.284 4.204-4.71 1.634-5.601-5.554-.741-4.294Z" fill="#00ADE4"/><path fill-rule="evenodd" clip-rule="evenodd" d="M20.083 4.898c-1.25-.316-2.188-.105-2.79.434-.602.539-.813 1.359-.702 2.14a2.877 2.877 0 0 0 1.287 2.023c.744.472 1.764.613 3.001.184 1.149-.398 1.962-1.36 2.116-2.341.078-.496-.013-1.001-.324-1.428-.31-.425-.819-.747-1.532-.915-.342-.08-.7-.111-1.056-.097Zm-1.77.438c-.282.08-.51.21-.686.368-.451.404-.634 1.042-.541 1.697.093.653.458 1.29 1.06 1.672.594.377 1.452.522 2.57.134.995-.345 1.663-1.17 1.785-1.947.06-.383-.012-.75-.234-1.055-.223-.306-.616-.575-1.242-.723a3.46 3.46 0 0 0-.962-.083c-.792.039-1.591.325-2.193.793a.25.25 0 1 1-.307-.395c.23-.178.482-.332.75-.46Z" fill="#000"/><path d="M19.139 19.283c.301-.075.609-.11.91-.1 2.448.088 2.223 2.7.48 3.72-3.828 2.242-5.85-3.878-1.39-3.62Z" fill="#00ADE4"/><path fill-rule="evenodd" clip-rule="evenodd" d="M19.113 19.032c-1.15-.058-1.941.29-2.38.874-.439.583-.48 1.346-.246 2.015.235.67.756 1.277 1.49 1.56.74.286 1.664.231 2.675-.361.942-.551 1.491-1.541 1.455-2.436a1.706 1.706 0 0 0-.539-1.208c-.35-.323-.857-.517-1.513-.541a3.54 3.54 0 0 0-.942.098Zm-2.123 1.41c-.184.389-.19.861-.031 1.313a2.088 2.088 0 0 0 1.198 1.26c.576.222 1.34.202 2.243-.327.802-.47 1.236-1.295 1.208-1.983a1.206 1.206 0 0 0-.379-.862c-.241-.223-.624-.388-1.192-.408a3.051 3.051 0 0 0-.835.09l-.011.003c-.68.17-1.322.555-1.763 1.063a.25.25 0 0 1-.438-.148ZM25.505 13.084c-1.048-.263-1.845-.088-2.359.373-.514.46-.693 1.159-.599 1.82a2.44 2.44 0 0 0 1.092 1.717c.634.402 1.498.52 2.54.158.97-.337 1.66-1.15 1.791-1.985a1.614 1.614 0 0 0-.278-1.222c-.265-.364-.7-.636-1.301-.778a3.33 3.33 0 0 0-.886-.083Z" fill="#000"/><path fill-rule="evenodd" clip-rule="evenodd" d="M25.531 12.833c-1.085-.265-1.963-.09-2.551.437-.59.529-.783 1.318-.68 2.043a2.69 2.69 0 0 0 1.205 1.893c.709.448 1.655.564 2.755.182 1.047-.363 1.81-1.246 1.957-2.183.075-.479-.012-.98-.323-1.407-.309-.424-.801-.723-1.446-.875a3.57 3.57 0 0 0-.917-.09Zm-.087.493c-.995-.25-1.697-.072-2.13.317-.44.392-.604 1-.52 1.6a2.19 2.19 0 0 0 .979 1.54c.558.354 1.341.473 2.323.133.894-.31 1.512-1.055 1.627-1.788.057-.367-.01-.73-.233-1.035-.222-.305-.598-.552-1.156-.683a3.08 3.08 0 0 0-.82-.077l-.035.002-.035-.009Z" fill="#000"/><path d="M25.479 13.335c.29-.014.58.01.855.075 2.233.527 1.55 2.886-.238 3.506-3.927 1.362-4.67-4.632-.617-3.58Z" fill="#00ADE4"/><path fill-rule="evenodd" clip-rule="evenodd" d="m22.194 8.754 2.65 4.239-.425.265-2.649-4.24.424-.264Zm.808 5.114-2.385-4.15.434-.25 2.384 4.15-.433.25ZM18.195 19.217V9.68h.5v9.537h-.5Zm2.178-9.537v9.537h-.5V9.68h.5Z" fill="#000"/></svg>
