<svg xmlns="http://www.w3.org/2000/svg" viewBox="0 0 80 80" fill="currenColor"><path fill="#EFFBFF" d="M61.072 65.77 28.881 55.693V12.868l31.136 10.076 1.055 42.826Z"/><path fill="#000" fill-rule="evenodd" d="M26.285 12.71a.51.51 0 0 1 .642-.327l2.39.776c12.511 4.058 20.071 6.51 33.477 10.303a.51.51 0 1 1-.278.98c-13.424-3.797-21-6.255-33.51-10.313l-2.394-.777a.51.51 0 0 1-.327-.642Zm0 42.322a.51.51 0 0 1 .642-.327 1312.39 1312.39 0 0 0 16.459 5.204c5.51 1.713 10.868 3.378 18.109 5.755a.51.51 0 0 1-.318.968c-7.262-2.383-12.59-4.04-18.078-5.745-4.879-1.516-9.884-3.072-16.487-5.213a.51.51 0 0 1-.327-.642Z" clip-rule="evenodd"/><path fill="#000" fill-rule="evenodd" d="M28.353 10.343a.51.51 0 0 1 .51.51V56.7a.51.51 0 0 1-1.02 0V10.853a.51.51 0 0 1 .51-.51Zm31.664 9.07a.51.51 0 0 1 .51.509V65.77a.51.51 0 1 1-1.02 0V19.922a.51.51 0 0 1 .51-.51Z" clip-rule="evenodd"/><path fill="#fff" d="M52.679 70.12 20.487 60.043V17.217l31.137 10.077 1.055 42.825Z"/><path fill="#000" fill-rule="evenodd" d="M17.891 17.06a.51.51 0 0 1 .642-.327l2.391.775c12.51 4.059 20.07 6.511 33.476 10.303a.51.51 0 0 1-.277.98c-13.425-3.797-21-6.255-33.511-10.313l-2.393-.776a.51.51 0 0 1-.328-.642Zm0 42.322a.51.51 0 0 1 .642-.328 1312.35 1312.35 0 0 0 16.459 5.204c5.51 1.713 10.868 3.379 18.11 5.755a.51.51 0 0 1-.319.968c-7.262-2.383-12.59-4.039-18.077-5.744a1305.56 1305.56 0 0 1-16.487-5.213.51.51 0 0 1-.328-.642ZM24.225 44.496a.51.51 0 0 1 .644-.323l1.477.49c7.727 2.563 12.393 4.11 20.669 6.505a.51.51 0 1 1-.283.979c-8.295-2.4-12.978-3.953-20.705-6.516l-1.479-.49a.51.51 0 0 1-.323-.645Zm.815 7a.51.51 0 0 1 .644-.322 529.539 529.539 0 0 1 9.695 3.313l.506.178c2.507.88 5.08 1.784 9.04 3.112a.51.51 0 1 1-.325.966c-3.965-1.33-6.544-2.236-9.052-3.116l-.506-.178a528.567 528.567 0 0 0-9.679-3.308.51.51 0 0 1-.323-.644Z" clip-rule="evenodd"/><path fill="#000" fill-rule="evenodd" d="M19.96 14.693a.51.51 0 0 1 .51.51V61.05a.51.51 0 0 1-1.02 0V15.202a.51.51 0 0 1 .51-.51Zm31.663 9.069a.51.51 0 0 1 .51.51V70.12a.51.51 0 1 1-1.019 0V24.27a.51.51 0 0 1 .51-.51ZM31.622 30.302a.51.51 0 0 1-.147.705l-3.976 2.604 4.044 3.765a.51.51 0 1 1-.694.745l-4.52-4.207a.51.51 0 0 1 .068-.799l4.52-2.96a.51.51 0 0 1 .705.147Zm7.203 1.273a.51.51 0 0 1 .105.713l-5.921 7.946a.51.51 0 0 1-.817-.609l5.92-7.946a.51.51 0 0 1 .713-.104Zm1.721 1.562a.51.51 0 0 1 .714.095l4.052 5.298a.51.51 0 0 1-.225.786l-5.765 2.181a.51.51 0 0 1-.36-.953l5.124-1.94-3.635-4.753a.51.51 0 0 1 .095-.714Z" clip-rule="evenodd"/></svg>