<svg width="42" height="42" viewBox="0 0 42 42" fill="none" xmlns="http://www.w3.org/2000/svg">
<mask id="mask0_1039_735" style="mask-type:luminance" maskUnits="userSpaceOnUse" x="1" y="1" width="41" height="41">
<path d="M1.5166 1.45959H41.5166V41.4596H1.5166V1.45959Z" fill="white"/>
</mask>
<g mask="url(#mask0_1039_735)">
<path d="M21.5161 30.8723L35.0673 34.1582L35.0887 34.1242L35.0883 8.73157L35.0668 8.70885L21.5161 11.9898V30.8723Z" fill="#D9DAE6"/>
<path d="M27.4262 29.6742L21.5157 28.59L15.6069 29.6742L21.5085 31.3216L27.4262 29.6742Z" fill="#F3F3FA"/>
<path fill-rule="evenodd" clip-rule="evenodd" d="M27.4267 13.2454L21.5162 11.7832V1.93318L27.4267 4.88812V13.2454ZM7.96484 34.1511L21.8953 30.8351V26.3477L27.4267 25.6437V17.2869L21.8953 16.5931V11.9526L7.96484 8.70885V34.1511ZM27.4262 38.0319L21.5162 40.9858V31.1365L27.4262 29.6747V38.0319ZM37.6715 10.0106L35.0674 8.70885V34.1582L37.6715 32.857V10.0106Z" fill="white"/>
<path fill-rule="evenodd" clip-rule="evenodd" d="M15.6072 13.2454L21.5161 11.7832L21.5639 11.7684V1.97269L21.5161 1.93318L15.6072 4.88812V13.2454ZM5.36182 10.0106L7.96475 8.70885L7.9804 8.72677V34.1323L7.96475 34.1511L5.36182 32.857V10.0106ZM21.5161 26.396L15.6072 25.6437V17.2869L21.5161 16.5456L21.5864 16.6213L21.5532 26.3104L21.5161 26.396ZM15.6066 38.032L21.5161 40.986L21.5795 40.8155L21.6031 31.2354L21.5161 31.1366L15.6066 29.6749V38.032Z" fill="#D9DAE6"/>
<path d="M27.4262 13.2454L21.5157 14.3226L15.6069 13.2454L21.5083 11.6986L27.4262 13.2454Z" fill="#B0B1C4"/>
</g>
</svg>
