<svg viewBox="0 0 24 25" xmlns="http://www.w3.org/2000/svg">
<g clip-path="url(#clip0_1039_853)">
<path d="M3.86889 4.84154L2.30713 5.62257V19.3304L3.86889 20.1069L3.87828 20.0956V4.85229L3.86889 4.84154Z" fill="#D9DAE5"/>
<path d="M12.2272 18.1173L3.8689 20.1069V4.84154L12.2272 6.78776V18.1173Z" fill="white"/>
<path d="M8.45435 15.0025L11.9997 15.4538L12.0219 15.4024L12.0418 9.589L11.9997 9.54356L8.45435 9.98838V15.0025" fill="#D9DAE5"/>
<path d="M11.9996 18.1396L20.1304 20.1111L20.1432 20.0908L20.1429 4.85517L20.1301 4.84154L11.9996 6.8101V18.1396Z" fill="#D9DAE5"/>
<path d="M15.5459 15.0025L11.9996 15.4538V9.54356L15.5459 9.98838V15.0025Z" fill="white"/>
<path d="M15.546 7.56348L11.9997 8.2098L8.45435 7.56348L11.9952 6.63539L15.546 7.56348Z" fill="#B0B1C3"/>
<path d="M15.546 17.4208L11.9997 16.7702L8.45435 17.4208L11.9953 18.4092L15.546 17.4208Z" fill="#F3F3FA"/>
<path d="M8.45435 7.56349L11.9997 6.68613L12.0284 6.67727V0.79984L11.9997 0.776138L8.45435 2.5491V7.56349Z" fill="#D9DAE5"/>
<path d="M15.5459 7.56349L11.9996 6.68613V0.776138L15.5459 2.5491V7.56349Z" fill="white"/>
<path d="M11.9997 24.2078L8.45398 22.4354V17.4211L11.9997 18.2982L12.0518 18.3575L12.0377 24.1055L11.9997 24.2078Z" fill="#D9DAE5"/>
<path d="M11.9996 24.2077L15.5456 22.4354V17.4211L11.9996 18.2981V24.2077M20.1304 4.84154L21.6928 5.62257V19.3304L20.1304 20.1111V4.84154Z" fill="white"/>
</g>
<defs>
<clipPath id="clip0_1039_853">
<rect width="24" height="24" fill="white" transform="translate(0 0.491989)"/>
</clipPath>
</defs>
</svg>
