<svg xmlns="http://www.w3.org/2000/svg" width="40" height="40" fill="none" viewBox="0 0 24 25">
  <path fill="#fff" d="M11.838 16.914V14.45c-1.115-.527-1.815-1.62-1.8-2.814L7.741 10.31a6.173 6.173 0 0 0 .854 3.828 6.55 6.55 0 0 0 3.242 2.775Z"/>
  <path fill="#fff" d="M11.837 20.289v-2.86c-1.555-.582-2.78-1.608-3.643-3.05a6.616 6.616 0 0 1-.892-4.322L5.17 8.827c-1.224 4.716 1.62 9.606 6.666 11.462Zm.525-2.886v2.884c4.953-1.9 7.872-6.883 6.703-11.444l-2.117 1.233c.273 1.591.015 3.11-.749 4.398-.765 1.29-2.09 2.301-3.837 2.93Z"/>
  <path fill="#fff" d="M12.362 14.446v2.47c1.559-.593 2.744-1.518 3.434-2.681.677-1.142.924-2.49.718-3.907L14.22 11.65c-.011 1.134-.685 2.148-1.858 2.796Zm2.161-7.023a5.228 5.228 0 0 1 2.28 2.165l2.061-1.19a1.094 1.094 0 0 1-.039-.058c-.81-1.311-1.881-2.298-3.182-2.933-3.62-1.764-8.113-.45-10.278 2.991l2.07 1.195c1.549-2.408 4.644-3.361 7.088-2.17Z"/>
  <path fill="#fff" d="M12.172 10.041a2.17 2.17 0 0 1 1.905 1.122l2.32-1.34a4.763 4.763 0 0 0-2.08-1.978c-2.225-1.085-5.05-.214-6.476 1.983l2.308 1.332c.48-.715 1.249-1.119 2.023-1.119Zm.332 13.775 9.362-5.456a.095.095 0 0 0 .047-.081V7.348a.095.095 0 0 0-.142-.082l-2.286 1.332c1.335 4.9-1.78 10.23-7.123 12.189v2.948c0 .073.08.118.142.081ZM4.75 8.583 2.46 7.261a.095.095 0 0 0-.141.082v10.926c0 .038.02.073.052.092l9.324 5.455a.094.094 0 0 0 .143-.082v-2.946C6.482 18.903 3.383 13.565 4.75 8.583Z"/>
  <path fill="#fff" d="M15.848 4.986c1.382.674 2.518 1.72 3.376 3.107a.9.9 0 0 0 .048.07l2.265-1.308a.095.095 0 0 0 0-.164l-9.26-5.347a.322.322 0 0 0-.322 0L2.694 6.692a.095.095 0 0 0 0 .164l2.265 1.308c2.287-3.652 7.052-5.05 10.89-3.178Zm-2.111 6.743c0-.003.004-.094-.003-.24-.02-.06-.245-.5-.808-.808-.385-.21-.879-.234-1.356-.066-.467.164-.864.49-1.091.898a1.823 1.823 0 0 0-.004.216c.03.76.502 1.795 1.462 2.268l.147.071.129-.069c.933-.522 1.488-1.35 1.524-2.27Z"/>
</svg>
