<svg height="58" viewBox="0 0 46 58" width="46" xmlns="http://www.w3.org/2000/svg"><path d="m116.877778 83c6.661111 4.4935806 11.122222 12.9415121 11.122222 22.706961 0 14.439972-9.838889 19.293039-22 19.293039-12.1611111 0-22-4.853067-22-19.293039 0-9.7654489 4.4611111-18.2133804 11.1222222-22.706961 3.5444445.5386305 7.2111108.8382026 10.8777778.8382026s7.333333-.2995721 10.877778-.8382026zm-9.228046 7.56h-2.457618c-.479535 0-.839186.362427-.839186.8456629v2.1745618c-3.17692.604045-5.3947703 3.5028566-5.0950609 6.8251043.2997095 3.202042 3.1769199 5.678626 6.5336659 5.678626h1.618431c.599419 0 1.138896.241014 1.558489.663845.419594.423436.599419 1.027481.539477 1.631526-.119883 1.026876-1.078954 1.871935-2.21785 1.871935h-2.157908c-.65936 0-1.198837-.483236-1.318721-1.087281-.119884-.361823-.419593-.663845-.839187-.663845h-2.517559c-.239768 0-.4795352.120809-.6593609.302022-.1798256.181214-.2397675.422832-.2397675.663846.2397675 2.597393 2.2777914 4.65175 4.7953514 4.953772v2.173958c0 .48384.359651.846267.839186.846267h2.457618c.479535 0 .839186-.362427.839186-.846267v-2.234362c2.757327-.604045 4.855293-2.839011 5.095061-5.436405.179826-1.812135-.419593-3.563865-1.618431-4.893368-1.198838-1.26789-2.937153-2.053149-4.675468-2.053149h-1.858198c-.599419 0-1.138896-.302022-1.558489-.724853-.419594-.422832-.599419-1.026877-.539477-1.6309218.119883-1.0274805 1.078954-1.8725394 2.21785-1.8725394h2.157908c.659361 0 1.198838.483236 1.318721 1.0872809.059942.361823.419594.6638454.839187.6638454h2.517559c.239768 0 .479535-.1202049.659361-.3020224.179826-.1806095.239768-.4222275.239768-.6638454-.239768-2.5973933-2.21785-4.6511461-4.795352-4.9531686v-2.1745618c0-.4832359-.359651-.8456629-.839186-.8456629zm7.375865-21.4810003c1.754229-.4177263 3.383737.8876685 2.88235 2.3497106l-2.381589 6.996916c-2.945651.3655105-6.141368.5743737-9.526358.5743737-3.384365 0-6.5807086-.2088632-9.5263589-.5743737l-2.3815895-6.9447002c-.5013873-1.4620421 1.1281213-2.8196527 2.8829768-2.3497106 5.8913006 1.514258 12.1586416 1.514258 18.0505686-.0522158z" fill="#fff2d1" fill-rule="evenodd" stroke="#ffdf87" transform="translate(-83 -68)"/></svg>