<svg xmlns="http://www.w3.org/2000/svg" width="40" height="40" fill="none" viewBox="0 0 24 25">
  <path fill="url(#a)" d="M21.512 5.599a1.776 1.776 0 0 0 .015-2.597 1.77 1.77 0 0 0-2.513.084L10.9 11.828a.394.394 0 0 1-.587-.01L6.214 7.1a1.783 1.783 0 0 0-2.575-.122 1.788 1.788 0 0 0 .067 2.65L8.442 13.7a.396.396 0 0 1-.001.6l-4.716 4.04a1.808 1.808 0 0 0-.108 2.646c.74.747 1.96.704 2.647-.093l4.073-4.73a.394.394 0 0 1 .597 0l4.07 4.697a1.79 1.79 0 0 0 2.741-.042 1.795 1.795 0 0 0-.218-2.492l-4.734-4.09a.396.396 0 0 1-.009-.59l8.728-8.047Z"/>
  <defs>
    <linearGradient id="a" x1="12.584" x2="12.584" y1="2.52" y2="21.52" gradientUnits="userSpaceOnUse">
      <stop offset=".594" stop-color="#fff"/>
      <stop offset=".594" stop-color="#C9C9C9"/>
      <stop offset=".964" stop-color="#CACACA"/>
    </linearGradient>
  </defs>
</svg>
