<svg fill="none" height="24" width="24" xmlns="http://www.w3.org/2000/svg" xmlns:xlink="http://www.w3.org/1999/xlink"><clipPath id="a"><path d="m0 0h19.69v24h-19.69z" transform="translate(2)"/></clipPath><g clip-path="url(#a)"><path d="m3.268 16.579.168.19 8.454 2.396.038-1.485-5.92-1.486-.29-.105z" fill="#b7ca9d"/><path d="m20.421 16.579-8.634 2.881-.026-1.78 5.921-1.486.258-.29z" fill="#b7ca9d"/><path d="m11.761 6.398 5.921 1.38 2.604-.124.135-.26-8.25-2.97z" fill="#3c4929"/><path d="m6.007 16.194-2.739.384-.076-.284v-8.601l.076-.3 2.475.184.264.201z" fill="#759c3e"/><path d="m11.928 6.398-5.92 1.38-2.74-.385.104-.162 8.518-2.424.038 1.59z" fill="#3c4929"/><path d="m11.833.002-9.833 4.963.005 14.045 9.828 4.96.146-.222v-23.458zm-2.875 18.284-5.69-1.707v-9.185l5.69-1.707v12.6zm8.724-2.092 2.739.385.153-.272v-8.652l-.153-.261-2.739.384z" fill="#4b612c"/><path d="m11.833 23.97 9.852-4.96.005-14.045-9.857-4.963zm2.899-18.283 5.689 1.707v9.185l-5.69 1.707v-12.6z" fill="#759c3e"/></g></svg>