<?xml version="1.0" encoding="UTF-8"?>
<svg viewBox="0 0 16 16" xmlns="http://www.w3.org/2000/svg">
<mask id="a" fill="currentColor">
<path d="m11.833 12h-8.0296-0.00332c-1.5464 0-2.8-1.2399-2.8-2.7692 0-1.5294 1.2536-2.7692 2.8-2.7692l0.01573 4e-5c0.17682-1.9407 1.826-3.4616 3.8343-3.4616 1.7757 0 3.2707 1.189 3.7154 2.8059 0.1579-0.02412 0.3198-0.03664 0.4846-0.03664 1.7396 0 3.15 1.3948 3.15 3.1154 0 1.6036-1.225 2.9242-2.8 3.0964v0.019h-0.333-0.017-0.0171z" clip-rule="evenodd" fill-rule="evenodd"/>
</mask>
<path d="m11.833 12 0.0052-1h-0.0052v1zm-8.0329-5.5385 0.00273-1h-0.00273v1zm0.01573 4e-5 -0.00273 0.99999 0.91554 0.0025 0.08307-0.91176-0.99588-0.09073zm7.5497-0.65567-0.9642 0.26517 0.2359 0.85763 0.8792-0.13426-0.1509-0.98854zm0.8346 6.1751-0.1087-0.9941-0.8913 0.0975v0.8966h1zm0 0.019v1h1v-1h-1zm-0.333 0v-1h-0.0052l0.0052 1zm-0.0341-1h-8.0296v2h8.0296v-2zm-8.0296 0h-0.00252-6.2e-4 -1.8e-4v2h0.00252 6.2e-4 1.8e-4v-2zm-0.00332 0c-1.0046 0-1.8-0.8025-1.8-1.7692h-2c0 2.092 1.7118 3.7692 3.8 3.7692v-2zm-1.8-1.7692c0-0.96673 0.79544-1.7692 1.8-1.7692v-2c-2.0882 0-3.8 1.6772-3.8 3.7692h2zm1.7973-1.7692 0.01573 4e-5 0.00546-2-0.01573-4e-5 -0.00546 2zm1.0143-0.90922c0.1295-1.4214 1.3429-2.5523 2.8384-2.5523v-2c-2.5211 0-4.606 1.9108-4.8302 4.3708l1.9918 0.18147zm2.8384-2.5523c1.3207 0 2.4246 0.88348 2.7512 2.0711l1.9284-0.53035c-0.5628-2.0462-2.4488-3.5407-4.6796-3.5407v2zm3.8663 2.7944c0.1082-0.01652 0.2196-0.02518 0.3337-0.02518v-2c-0.2155 0-0.4278 0.01637-0.6355 0.04809l0.3018 1.9771zm0.3337-0.02518c1.1978 0 2.15 0.95748 2.15 2.1154h2c0-2.2832-1.8685-4.1154-4.15-4.1154v2zm2.15 2.1154c0 1.079-0.8265 1.984-1.9087 2.1023l0.2175 1.9882c2.0677-0.2262 3.6912-1.9624 3.6912-4.0905h-2zm-2.8 3.0964v0.019h2v-0.019h-2zm1-0.981h-0.333v2h0.333v-2zm-0.3382 0h-0.0118v2h0.0222l-0.0104-2zm-0.0118 0h-0.0119l-0.0104 2h0.0223v-2z" fill="#fff" mask="url(#a)"/>
</svg>
