<svg fill="none" height="56" viewBox="0 0 184 56" width="184" xmlns="http://www.w3.org/2000/svg" xmlns:xlink="http://www.w3.org/1999/xlink"><linearGradient id="a" gradientUnits="userSpaceOnUse" x1="17.5385" x2="34.0683" y1="12" y2="43.9878"><stop offset="0" stop-color="#bea1ff"/><stop offset="1" stop-color="#8a36ff"/></linearGradient><g fill="#fff"><path d="m58.5375 18.2912c-.0464-.4342-.2419-.7723-.5866-1.0142-.3414-.242-.7855-.3629-1.3324-.3629-.3845 0-.7143.058-.9894.174s-.4855.2734-.6314.4723c-.1458.1988-.2204.4259-.2237.6811 0 .2121.0481.396.1442.5518.0994.1558.2337.2884.4027.3978.169.106.3563.1955.5618.2684s.4126.1342.6214.184l.9546.2386c.3844.0895.754.2105 1.1086.3629.358.1525.6778.3447.9596.5767.285.232.5104.5121.6761.8402.1657.3282.2486.7126.2486 1.1534 0 .5966-.1525 1.122-.4574 1.576-.3049.4508-.7458.8038-1.3225 1.059-.5733.2519-1.2677.3778-2.0831.3778-.7921 0-1.4798-.1226-2.0632-.3679-.58-.2452-1.0341-.6032-1.3622-1.0738-.3248-.4707-.5005-1.0441-.527-1.7202h1.8147c.0265.3546.1359.6496.3281.8849.1922.2354.4425.411.7507.527.3115.116.6596.174 1.044.174.4011 0 .7524-.0596 1.054-.1789.3049-.1227.5436-.2917.7159-.5071.1724-.2188.2602-.474.2635-.7657-.0033-.2651-.0812-.4839-.2337-.6562-.1524-.1757-.3662-.3215-.6413-.4375-.2718-.1193-.59-.2254-.9545-.3182l-1.1584-.2983c-.8386-.2154-1.5014-.5419-1.9887-.9794-.4839-.4408-.7258-1.0258-.7258-1.755 0-.5999.1624-1.1252.4872-1.576.3281-.4507.7739-.8004 1.3374-1.049.5634-.2519 1.2014-.3778 1.914-.3778.7226 0 1.3556.1259 1.8992.3778.5469.2486.9761.595 1.2876 1.0391.3116.4408.4723.9479.4823 1.5213z"/><path d="m65.3971 25.8232c-.7657 0-1.4269-.1591-1.9837-.4773-.5535-.3215-.9794-.7756-1.2777-1.3622-.2983-.59-.4474-1.2844-.4474-2.0831 0-.7855.1491-1.4749.4474-2.0682.3016-.5966.7225-1.0606 1.2628-1.3921.5402-.3347 1.1749-.5021 1.9041-.5021.4706 0 .9148.0762 1.3324.2287.4209.1492.7921.3812 1.1136.696.3248.3149.58.7159.7656 1.2032.1857.4839.2785 1.0606.2785 1.7301v.5518h-6.2593v-1.2131h4.5341c-.0033-.3447-.0779-.6512-.2237-.9197-.1458-.2718-.3497-.4856-.6115-.6413-.2585-.1558-.5601-.2337-.9048-.2337-.3679 0-.6911.0895-.9695.2685-.2784.1756-.4955.4076-.6513.696-.1524.285-.2303.5982-.2336.9396v1.059c0 .4441.0812.8253.2436 1.1434.1624.3149.3894.5569.6811.7259.2916.1657.633.2486 1.0241.2486.2619 0 .4988-.0365.711-.1094.2121-.0762.396-.1873.5518-.3331s.2734-.3265.353-.5419l1.6804.1889c-.1061.4441-.3083.8319-.6066 1.1634-.2949.3281-.6728.5833-1.1335.7656-.4607.179-.9877.2685-1.5809.2685z"/><path d="m70.3152 25.674v-7.6364h1.745v1.2728h.0796c.1392-.4408.3778-.7806.7159-1.0192.3414-.242.7308-.3629 1.1683-.3629.0994 0 .2105.0049.3331.0149.126.0066.2304.0182.3132.0348v1.6555c-.0762-.0265-.1972-.0497-.3629-.0696-.1624-.0232-.3198-.0348-.4723-.0348-.3281 0-.6231.0713-.8849.2138-.2586.1392-.4624.3331-.6116.5817-.1491.2486-.2237.5352-.2237.8601v4.4893z"/><path d="m82.9194 18.0376-2.7194 7.6364h-1.9887l-2.7194-7.6364h1.919l1.755 5.6726h.0795l1.76-5.6726z"/><path d="m84.1648 25.674v-7.6364h1.7997v7.6364zm.9048-8.7202c-.285 0-.5303-.0944-.7357-.2833-.2055-.1923-.3083-.4226-.3083-.6911 0-.2718.1028-.5021.3083-.691.2054-.1923.4507-.2884.7357-.2884.2884 0 .5337.0961.7358.2884.2055.1889.3083.4192.3083.691 0 .2685-.1028.4988-.3083.6911-.2021.1889-.4474.2833-.7358.2833z"/><path d="m91.1462 25.8232c-.7623 0-1.4169-.1674-1.9638-.5022-.5436-.3347-.9628-.7971-1.2578-1.3871-.2917-.5932-.4375-1.276-.4375-2.0482 0-.7756.1491-1.46.4474-2.0533.2983-.5966.7193-1.0606 1.2628-1.3921.5469-.3347 1.1932-.5021 1.9389-.5021.6198 0 1.1684.1144 1.6456.343.4806.2254.8634.5453 1.1485.9596.285.411.4474.8915.4872 1.4417h-1.7202c-.0696-.3679-.2353-.6745-.4972-.9197-.2585-.2486-.6048-.3729-1.039-.3729-.3679 0-.6911.0994-.9695.2983-.2784.1956-.4955.4773-.6513.8452-.1524.3679-.2286.8087-.2286 1.3224 0 .5204.0762.9678.2286 1.3424.1525.3712.3663.6579.6414.86.2784.1989.6049.2983.9794.2983.2651 0 .5021-.0497.7109-.1491.2121-.1028.3895-.2502.532-.4425.1425-.1922.2403-.4259.2933-.701h1.7202c-.0431.5403-.2022 1.0192-.4773 1.4368-.2751.4143-.6496.7391-1.1236.9744-.4739.232-1.0308.3481-1.6704.3481z"/><path d="m99.276 25.8232c-.7657 0-1.4269-.1591-1.9837-.4773-.5535-.3215-.9794-.7756-1.2777-1.3622-.2983-.59-.4474-1.2844-.4474-2.0831 0-.7855.1491-1.4749.4474-2.0682.3016-.5966.7225-1.0606 1.2628-1.3921.5402-.3347 1.1749-.5021 1.9041-.5021.4707 0 .9145.0762 1.3325.2287.421.1492.792.3812 1.114.696.324.3149.58.7159.765 1.2032.186.4839.279 1.0606.279 1.7301v.5518h-6.2597v-1.2131h4.5337c-.003-.3447-.077-.6512-.223-.9197-.146-.2718-.35-.4856-.612-.6413-.2583-.1558-.5599-.2337-.9046-.2337-.3679 0-.6911.0895-.9695.2685-.2784.1756-.4955.4076-.6513.696-.1524.285-.2303.5982-.2336.9396v1.059c0 .4441.0812.8253.2436 1.1434.1624.3149.3894.5569.6811.7259.2916.1657.633.2486 1.0241.2486.2619 0 .4988-.0365.7112-.1094.212-.0762.396-.1873.552-.3331.155-.1458.273-.3265.353-.5419l1.68.1889c-.106.4441-.308.8319-.607 1.1634-.295.3281-.672.5833-1.133.7656-.461.179-.9878.2685-1.581.2685z"/><path d="m107.746 25.674v-10.1818h3.818c.783 0 1.439.1359 1.969.4077.534.2717.937.6529 1.208 1.1434.275.4872.413 1.0557.413 1.7053 0 .6529-.139 1.2197-.418 1.7003-.275.4772-.681.8468-1.218 1.1086-.537.2586-1.196.3878-1.978.3878h-2.72v-1.5312h2.471c.457 0 .832-.063 1.124-.189.291-.1292.507-.3165.646-.5617.142-.2486.214-.5536.214-.9148 0-.3613-.072-.6695-.214-.9247-.143-.2586-.36-.4541-.651-.5867-.292-.1359-.668-.2038-1.129-.2038h-1.69v8.6406zm5.26-4.6136 2.521 4.6136h-2.058l-2.476-4.6136z"/><path d="m120.044 25.8232c-.766 0-1.427-.1591-1.984-.4773-.554-.3215-.98-.7756-1.278-1.3622-.298-.59-.447-1.2844-.447-2.0831 0-.7855.149-1.4749.447-2.0682.302-.5966.723-1.0606 1.263-1.3921.54-.3347 1.175-.5021 1.904-.5021.471 0 .915.0762 1.332.2287.421.1492.793.3812 1.114.696.325.3149.58.7159.766 1.2032.185.4839.278 1.0606.278 1.7301v.5518h-6.259v-1.2131h4.534c-.003-.3447-.078-.6512-.224-.9197-.146-.2718-.349-.4856-.611-.6413-.259-.1558-.56-.2337-.905-.2337-.368 0-.691.0895-.97.2685-.278.1756-.495.4076-.651.696-.152.285-.23.5982-.233.9396v1.059c0 .4441.081.8253.243 1.1434.163.3149.39.5569.681.7259.292.1657.633.2486 1.024.2486.262 0 .499-.0365.711-.1094.212-.0762.396-.1873.552-.3331s.274-.3265.353-.5419l1.681.1889c-.106.4441-.309.8319-.607 1.1634-.295.3281-.673.5833-1.133.7656-.461.179-.988.2685-1.581.2685z"/><path d="m126.761 15.4922v10.1818h-1.799v-10.1818z"/><path d="m128.612 25.674v-7.6364h1.8v7.6364zm.905-8.7202c-.285 0-.53-.0944-.736-.2833-.205-.1923-.308-.4226-.308-.6911 0-.2718.103-.5021.308-.691.206-.1923.451-.2884.736-.2884.288 0 .534.0961.736.2884.205.1889.308.4192.308.691 0 .2685-.103.4988-.308.6911-.202.1889-.448.2833-.736.2833z"/><path d="m134.46 25.8281c-.484 0-.92-.0861-1.308-.2585-.384-.1757-.689-.4342-.914-.7756-.222-.3413-.333-.7623-.333-1.2628 0-.4308.079-.7871.238-1.0688.159-.2818.376-.5071.651-.6762.276-.169.585-.2966.93-.3828.348-.0895.708-.1541 1.079-.1939.447-.0464.81-.0878 1.089-.1243.278-.0397.48-.0994.606-.1789.13-.0829.194-.2105.194-.3829v-.0298c0-.3745-.111-.6645-.333-.87s-.542-.3083-.959-.3083c-.441 0-.791.0962-1.049.2884-.256.1922-.428.4193-.518.6811l-1.68-.2386c.133-.4641.351-.8518.656-1.1634.305-.3149.678-.5502 1.119-.706.441-.159.928-.2386 1.462-.2386.368 0 .734.0431 1.098.1293.365.0861.698.2287 1 .4275.301.1956.543.4624.725.8005.186.338.279.7606.279 1.2677v5.1108h-1.73v-1.049h-.06c-.109.2121-.263.411-.462.5966-.196.1823-.443.3298-.741.4425-.295.1093-.641.164-1.039.164zm.467-1.3224c.362 0 .675-.0713.94-.2138.265-.1458.469-.3381.611-.5767.146-.2386.219-.4988.219-.7805v-.8999c-.056.0464-.152.0895-.288.1293-.133.0397-.282.0745-.448.1044-.165.0298-.329.0563-.492.0795-.162.0232-.303.0431-.422.0597-.269.0364-.509.0961-.721.1789-.212.0829-.38.1989-.502.3481-.123.1458-.184.3347-.184.5667 0 .3315.121.5817.363.7507.241.1691.55.2536.924.2536z"/><path d="m140.381 25.674v-10.1818h1.8v3.8082h.074c.093-.1856.224-.3828.393-.5916.169-.2121.398-.3927.686-.5419.289-.1525.656-.2287 1.104-.2287.59 0 1.122.1508 1.596.4524.477.2983.855.7408 1.133 1.3274.282.5834.423 1.2993.423 2.1478 0 .8385-.138 1.5511-.413 2.1378-.275.5866-.649 1.034-1.123 1.3423-.474.3082-1.011.4623-1.611.4623-.438 0-.801-.0729-1.089-.2187s-.52-.3215-.696-.527c-.172-.2088-.307-.406-.403-.5916h-.104v1.2031zm1.765-3.8182c0 .4939.07.9264.209 1.2976.142.3712.346.6612.611.87.269.2055.594.3083.975.3083.397 0 .731-.1061.999-.3182.268-.2154.471-.5088.607-.88.139-.3745.208-.8004.208-1.2777 0-.4739-.068-.8949-.203-1.2628-.136-.3679-.339-.6562-.607-.865s-.603-.3132-1.004-.3132c-.385 0-.711.1011-.98.3032-.268.2022-.472.4856-.611.8502-.136.3646-.204.7938-.204 1.2876z"/><path d="m149.12 25.674v-7.6364h1.8v7.6364zm.905-8.7202c-.285 0-.531-.0944-.736-.2833-.206-.1923-.308-.4226-.308-.6911 0-.2718.102-.5021.308-.691.205-.1923.451-.2884.736-.2884.288 0 .533.0961.736.2884.205.1889.308.4192.308.691 0 .2685-.103.4988-.308.6911-.203.1889-.448.2833-.736.2833z"/><path d="m154.57 15.4922v10.1818h-1.8v-10.1818z"/><path d="m156.421 25.674v-7.6364h1.799v7.6364zm.905-8.7202c-.286 0-.531-.0944-.736-.2833-.206-.1923-.309-.4226-.309-.6911 0-.2718.103-.5021.309-.691.205-.1923.45-.2884.736-.2884.288 0 .533.0961.735.2884.206.1889.309.4192.309.691 0 .2685-.103.4988-.309.6911-.202.1889-.447.2833-.735.2833z"/><path d="m163.884 18.0376v1.3921h-4.39v-1.3921zm-3.306-1.8295h1.8v7.169c0 .242.036.4276.109.5568.076.126.176.2122.299.2586.122.0464.258.0696.407.0696.113 0 .216-.0083.308-.0249.097-.0166.169-.0315.219-.0447l.303 1.4069c-.096.0332-.233.0696-.412.1094-.176.0398-.391.063-.646.0696-.451.0133-.857-.0547-1.219-.2038-.361-.1525-.647-.3878-.86-.706-.208-.3182-.311-.7159-.308-1.1932z"/><path d="m166.508 28.5376c-.245 0-.472-.0198-.681-.0596-.206-.0365-.37-.0796-.492-.1293l.417-1.402c.262.0763.496.1127.701.1094.206-.0033.386-.0679.542-.1939.159-.1226.294-.3281.403-.6165l.154-.4126-2.769-7.7955h1.909l1.76 5.7671h.079l1.765-5.7671h1.914l-3.057 8.5611c-.143.4044-.332.7507-.567 1.0391-.235.2917-.524.5137-.865.6662-.338.1558-.742.2336-1.213.2336z"/><path d="m53.0041 30.4922h2.2571l3.0228 7.3778h.1193l3.0227-7.3778h2.2571v10.1818h-1.7699v-6.995h-.0944l-2.814 6.9652h-1.3224l-2.8139-6.9801h-.0945v7.0099h-1.7699z"/><path d="m67.8095 40.8281c-.4839 0-.9197-.0861-1.3075-.2585-.3845-.1757-.6894-.4342-.9148-.7756-.222-.3413-.3331-.7623-.3331-1.2628 0-.4308.0796-.7871.2387-1.0688.1591-.2818.3761-.5071.6512-.6762.2751-.169.585-.2966.9297-.3828.348-.0895.7077-.1541 1.0789-.1939.4474-.0464.8103-.0878 1.0887-.1243.2785-.0397.4806-.0994.6066-.179.1292-.0828.1939-.2104.1939-.3828v-.0298c0-.3745-.1111-.6645-.3331-.87-.2221-.2055-.5419-.3083-.9595-.3083-.4409 0-.7905.0962-1.049.2884-.2553.1922-.4276.4193-.5171.6811l-1.6804-.2386c.1326-.4641.3513-.8518.6563-1.1634.3049-.3149.6778-.5502 1.1186-.706.4408-.159.928-.2386 1.4616-.2386.3679 0 .7342.0431 1.0987.1293.3646.0861.6977.2287.9993.4275.3016.1956.5436.4624.7259.8005.1856.338.2784.7606.2784 1.2677v5.1108h-1.7301v-1.049h-.0597c-.1094.2121-.2635.411-.4623.5966-.1956.1823-.4425.3298-.7408.4425-.295.1093-.6413.164-1.0391.164zm.4674-1.3224c.3612 0 .6744-.0713.9396-.2138.2651-.1458.469-.3381.6115-.5767.1458-.2386.2187-.4988.2187-.7805v-.8999c-.0563.0464-.1524.0895-.2883.1293-.1326.0397-.2817.0745-.4475.1044-.1657.0298-.3297.0563-.4921.0795s-.3033.0431-.4226.0597c-.2685.0364-.5088.0961-.7209.1789-.2121.0829-.3795.1989-.5021.3481-.1227.1458-.184.3347-.184.5667 0 .3315.121.5817.3629.7507.242.1691.5502.2536.9248.2536z"/><path d="m75.4509 36.1996v4.4744h-1.7998v-7.6364h1.7202v1.2976h.0895c.1757-.4275.4557-.7673.8402-1.0191.3878-.2519.8667-.3779 1.4368-.3779.527 0 .986.1127 1.3771.3381.3944.2254.6994.5518.9148.9794.2187.4275.3265.9462.3231 1.5561v4.8622h-1.7997v-4.5838c0-.5104-.1325-.9098-.3977-1.1982-.2618-.2883-.6248-.4325-1.0888-.4325-.3148 0-.5949.0696-.8402.2088-.2419.1359-.4325.3331-.5717.5916-.1359.2586-.2038.5718-.2038.9397z"/><path d="m84.3798 40.8281c-.4839 0-.9197-.0861-1.3075-.2585-.3845-.1757-.6894-.4342-.9148-.7756-.222-.3413-.3331-.7623-.3331-1.2628 0-.4308.0796-.7871.2387-1.0688.1591-.2818.3762-.5071.6513-.6762.2751-.169.5849-.2966.9296-.3828.3481-.0895.7077-.1541 1.0789-.1939.4474-.0464.8103-.0878 1.0888-.1243.2784-.0397.4805-.0994.6065-.179.1293-.0828.1939-.2104.1939-.3828v-.0298c0-.3745-.1111-.6645-.3331-.87-.2221-.2055-.5419-.3083-.9595-.3083-.4408 0-.7905.0962-1.049.2884-.2552.1922-.4276.4193-.5171.6811l-1.6804-.2386c.1326-.4641.3513-.8518.6563-1.1634.3049-.3149.6778-.5502 1.1186-.706.4408-.159.928-.2386 1.4616-.2386.3679 0 .7342.0431 1.0987.1293.3646.0861.6977.2287.9993.4275.3016.1956.5436.4624.7259.8005.1856.338.2784.7606.2784 1.2677v5.1108h-1.7301v-1.049h-.0597c-.1094.2121-.2635.411-.4623.5966-.1956.1823-.4425.3298-.7408.4425-.295.1093-.6413.164-1.0391.164zm.4674-1.3224c.3612 0 .6744-.0713.9396-.2138.2651-.1458.469-.3381.6115-.5767.1458-.2386.2188-.4988.2188-.7805v-.8999c-.0564.0464-.1525.0895-.2884.1293-.1326.0397-.2817.0745-.4474.1044-.1658.0298-.3298.0563-.4922.0795s-.3033.0431-.4226.0597c-.2685.0364-.5088.0961-.7209.1789-.2121.0829-.3795.1989-.5021.3481-.1227.1458-.184.3347-.184.5667 0 .3315.121.5817.363.7507.2419.1691.5501.2536.9247.2536z"/><path d="m93.5425 43.6967c-.6463 0-1.2015-.0878-1.6655-.2635-.464-.1723-.8369-.4043-1.1186-.696s-.4773-.6148-.5867-.9694l1.6208-.3928c.0729.1491.179.2966.3182.4425.1392.1491.3264.2718.5618.3679.2386.0994.5385.1491.8998.1491.5104 0 .933-.1243 1.2678-.3729.3347-.2452.5021-.6496.5021-1.213v-1.4468h-.0895c-.0928.1857-.2287.3762-.4077.5718-.1756.1955-.4093.3596-.701.4922-.2883.1325-.6512.1988-1.0887.1988-.5867 0-1.1186-.1375-1.5959-.4126-.474-.2784-.8518-.6927-1.1335-1.2429-.2784-.5535-.4177-1.2462-.4177-2.0781 0-.8386.1393-1.5462.4177-2.1229.2817-.58.6612-1.0192 1.1385-1.3175.4772-.3016 1.0092-.4524 1.5958-.4524.4475 0 .8154.0762 1.1037.2287.2917.1492.5237.3298.6961.5419.1723.2088.3032.406.3927.5916h.0994v-1.2628h1.7749v7.7607c0 .6529-.1558 1.1932-.4673 1.6207-.3116.4276-.7375.7474-1.2777.9596-.5403.2121-1.1534.3181-1.8395.3181zm.0149-4.544c.3812 0 .706-.0928.9744-.2784.2685-.1856.4723-.4524.6115-.8004s.2088-.7657.2088-1.2529c0-.4806-.0696-.9015-.2088-1.2628-.1359-.3612-.338-.6413-.6065-.8402-.2652-.2021-.5916-.3032-.9794-.3032-.401 0-.7358.1044-1.0043.3132-.2684.2088-.4706.4955-.6065.8601-.1359.3612-.2038.7722-.2038 1.2329 0 .4674.0679.8767.2038 1.228.1392.348.343.6198.6115.8153.2718.1923.6049.2884.9993.2884z"/><path d="m102.352 40.8232c-.765 0-1.427-.1591-1.984-.4773-.553-.3215-.9789-.7756-1.2772-1.3622-.2983-.59-.4475-1.2844-.4475-2.0831 0-.7855.1492-1.4749.4475-2.0682.3016-.5966.7225-1.0606 1.2632-1.3921.54-.3347 1.175-.5021 1.904-.5021.47 0 .914.0762 1.332.2287.421.1492.792.3812 1.114.696.325.3149.58.7159.765 1.2032.186.4839.279 1.0606.279 1.7301v.5518h-6.2595v-1.2131h4.5345c-.004-.3447-.078-.6512-.224-.9197-.146-.2718-.35-.4856-.612-.6413-.258-.1558-.56-.2337-.904-.2337-.368 0-.692.0895-.97.2685-.278.1756-.495.4076-.651.696-.153.285-.231.5982-.234.9396v1.059c0 .4441.081.8253.244 1.1434.162.3149.389.5569.681.7259.292.1657.633.2486 1.024.2486.262 0 .499-.0365.711-.1094.212-.0762.396-.1873.552-.3331s.273-.3265.353-.5419l1.68.1889c-.106.4441-.308.8319-.606 1.1634-.295.3281-.673.5833-1.134.7656-.461.179-.988.2685-1.581.2685z"/><path d="m107.27 40.674v-7.6364h1.72v1.2976h.09c.159-.4375.423-.7789.79-1.0241.368-.2486.807-.3729 1.318-.3729.517 0 .953.126 1.307.3779.358.2485.61.5883.756 1.0191h.08c.169-.4242.454-.7623.855-1.0142.404-.2552.883-.3828 1.437-.3828.702 0 1.276.2221 1.72.6662s.666 1.0921.666 1.9439v5.1257h-1.805v-4.8473c0-.474-.126-.8203-.378-1.0391-.252-.222-.56-.3331-.924-.3331-.435 0-.774.1359-1.019.4077-.242.2685-.363.6181-.363 1.049v4.7628h-1.765v-4.9219c0-.3944-.12-.7093-.358-.9446-.236-.2353-.544-.353-.925-.353-.259 0-.494.0663-.706.1989-.212.1293-.381.3132-.507.5519-.126.2353-.189.5104-.189.8252v4.6435z"/><path d="m123.215 40.8232c-.765 0-1.426-.1591-1.983-.4773-.554-.3215-.98-.7756-1.278-1.3622-.298-.59-.447-1.2844-.447-2.0831 0-.7855.149-1.4749.447-2.0682.302-.5966.723-1.0606 1.263-1.3921.54-.3347 1.175-.5021 1.904-.5021.471 0 .915.0762 1.332.2287.421.1492.792.3812 1.114.696.325.3149.58.7159.766 1.2032.185.4839.278 1.0606.278 1.7301v.5518h-6.259v-1.2131h4.534c-.003-.3447-.078-.6512-.224-.9197-.146-.2718-.35-.4856-.611-.6413-.259-.1558-.56-.2337-.905-.2337-.368 0-.691.0895-.97.2685-.278.1756-.495.4076-.651.696-.152.285-.23.5982-.234.9396v1.059c0 .4441.082.8253.244 1.1434.162.3149.389.5569.681.7259.292.1657.633.2486 1.024.2486.262 0 .499-.0365.711-.1094.212-.0762.396-.1873.552-.3331s.274-.3265.353-.5419l1.68.1889c-.106.4441-.308.8319-.606 1.1634-.295.3281-.673.5833-1.134.7656-.46.179-.987.2685-1.581.2685z"/><path d="m129.933 36.1996v4.4744h-1.799v-7.6364h1.72v1.2976h.089c.176-.4275.456-.7673.84-1.0191.388-.2519.867-.3779 1.437-.3779.527 0 .986.1127 1.377.3381.395.2254.7.5518.915.9794.219.4275.327.9462.323 1.5561v4.8622h-1.799v-4.5838c0-.5104-.133-.9098-.398-1.1982-.262-.2883-.625-.4325-1.089-.4325-.315 0-.595.0696-.84.2088-.242.1359-.433.3331-.572.5916-.136.2586-.204.5718-.204.9397z"/><path d="m140.478 33.0376v1.3921h-4.39v-1.3921zm-3.306-1.8295h1.8v7.169c0 .242.036.4276.109.5568.076.126.176.2122.298.2586.123.0464.259.0696.408.0696.113 0 .215-.0083.308-.0249.096-.0166.169-.0315.219-.0447l.303 1.4069c-.096.0332-.233.0696-.412.1094-.176.0398-.392.063-.647.0696-.45.0133-.856-.0547-1.218-.2038-.361-.1525-.648-.3878-.86-.706-.209-.3182-.311-.7159-.308-1.1932z"/></g><path clip-rule="evenodd" d="m40.2947 38.209-7.4006-4.7094c-1.3029 1.1538-3.0165 1.8542-4.8938 1.8542-1.8772 0-3.5909-.7005-4.8938-1.8543l-7.4011 4.7097c2.935 3.52 7.3532 5.7601 12.2946 5.7601 4.9415 0 9.3598-2.2402 12.2947-5.7603zm1.185-1.6165-7.2692-4.6259c.7432-1.1521 1.1745-2.5244 1.1745-3.9974 0-3.7394-2.7794-6.8296-6.385-7.3175v-8.6517c8.3707.5162 15 7.4686 15 15.9693 0 3.1753-.925 6.1347-2.5203 8.6232zm-14.4797-24.5925c-8.3707.5162-15 7.4686-15 15.9693 0 3.1754.9251 6.1348 2.5204 8.6234l7.2697-4.6262c-.7431-1.1521-1.1744-2.5243-1.1744-3.9973 0-3.7391 2.779-6.8292 6.3843-7.3174z" fill="url(#a)" fill-rule="evenodd"/><path d="m24.9899 27.7305c-.4037-.3769-1.0365-.355-1.4133.0487-.3769.4038-.3551 1.0366.0487 1.4134zm1.4276 2.7003-.6823.731c.3842.3586.9804.3586 1.3646 0zm5.9571-4.1921c.4037-.3768.4255-1.0096.0487-1.4133-.3768-.4038-1.0096-.4256-1.4134-.0488zm-8.7493 2.9539 2.1099 1.9692 1.3646-1.4621-2.1099-1.9692zm3.4745 1.9692 5.2748-4.9231-1.3647-1.4621-5.2747 4.9231z" fill="#ae82fc"/></svg>