<svg fill="none" viewBox="0 0 32 33" xmlns="http://www.w3.org/2000/svg" xmlns:xlink="http://www.w3.org/1999/xlink"><linearGradient id="a" gradientUnits="userSpaceOnUse" x1="16" x2="16" y1="2.036" y2="30.475"><stop offset="0" stop-color="#fff"/><stop offset="1" stop-color="#e3edfe"/></linearGradient><g clip-rule="evenodd" fill-rule="evenodd"><path d="m.387 17.715 6.563 11.37a2.877 2.877 0 0 0 2.487 1.437h13.126c1.024 0 1.975-.55 2.487-1.438l6.563-11.369a2.88 2.88 0 0 0 0-2.875l-6.563-11.368a2.877 2.877 0 0 0 -2.488-1.438h-13.124c-1.025 0-1.975.55-2.487 1.438l-6.564 11.368a2.88 2.88 0 0 0 0 2.875zm11.163-8.13v1.774l-2.05 1.181v7.476l2.05 1.18v1.776l-3.613-2.088v-9.212l3.613-2.088zm8.9 1.774v-1.775l3.613 2.088v9.212l-3.613 2.088v-1.775l2.05-1.181v-7.476l-2.05-1.182zm-4.45 4.232-2-1.157v-2.312l2-1.156 2 1.156v2.312zm.625 3.343 2 1.156 2-1.156v-2.312l-2-1.156-2 1.156zm-3.25 1.156-2-1.156v-2.312l2-1.156 2 1.156v2.312z" fill="url(#a)"/><path d="m31.05 18.69-6 10.394a2.877 2.877 0 0 1 -2.488 1.438h-4.956l-9.61-9.603 3.554 2.053v-1.775l-2.05-1.181v-7.476l2.05-1.182v-1.757l.012-.01 2.497 2.496-.059.035v2.312l2 1.157 2-1.157v-2.262l4.5 4.494v3.35l-2.05 1.18v1.776l3.613-2.088v-9.187zm-8.55-6.15v.888l-2.038-2.038.015-.015zm-3.875 7.55-2-1.156v-2.312l2-1.156 2 1.156v2.312zm-7.25-1.156 2 1.156 2-1.156v-2.312l-2-1.156-2 1.156z" fill="#d8dfed"/></g></svg>