<svg fill="none" viewBox="0 0 41 41" xmlns="http://www.w3.org/2000/svg" xmlns:xlink="http://www.w3.org/1999/xlink"><clipPath id="a"><path d="m.661621.967606h40v40h-40z"/></clipPath><g clip-path="url(#a)" clip-rule="evenodd" fill-rule="evenodd"><path d="m31.9625 4.83149 8.2188 14.29381c.3148.5528.4803 1.178.4803 1.8141s-.1655 1.2613-.4803 1.8141l-8.2188 14.2939c-.3063.5555-.7516 1.0221-1.2922 1.3541-.5407.3319-1.1582.5179-1.7922.5396h-16.4408c-.6341-.0247-1.251-.213-1.7908-.5464-.5399-.3335-.98444-.8008-1.29046-1.3567l-8.21881-14.3751c-.311653-.5442-.475609-1.1604-.475609-1.7875 0-.6272.163956-1.2434.475609-1.7876l8.22193-14.25631c.30884-.54832.75564-1.00637 1.29614-1.32869.5405-.32233 1.1559-.49774 1.7851-.50883h16.4408c.6293.01078 1.2448.18606 1.7853.50842.5406.32236.9874.78057 1.296 1.3291zm-4.8351 11.84091h-12.9501c-.1009-.0026-.1987.0347-.2724.1037s-.1173.1642-.1213.265v2.6876c0 .1002.0398.1964.1107.2673s.1671.1108.2674.1108h12.9657c.1001-.0008.1958-.0409.2665-.1117.0707-.0707.1108-.1664.1116-.2664v-2.6782c0-.1003-.0398-.1965-.1107-.2674s-.1671-.1107-.2674-.1107zm-2.0031 2.5c-.1533 0-.3031-.0455-.4306-.1306-.1274-.0852-.2268-.2062-.2854-.3478-.0587-.1416-.074-.2975-.0441-.4478s.1037-.2884.2121-.3968.2464-.1822.3968-.2121c.1503-.0299.3061-.0146.4478.0441.1416.0586.2626.158.3478.2854.0851.1275.1306.2773.1306.4306 0 .2055-.0817.4027-.227.548-.1454.1453-.3425.227-.548.227zm2.0031 2.6625h-12.9501c-.1009-.0025-.1987.0347-.2724.1037s-.1173.1642-.1213.2651v2.7031c.0047.0976.0465.1897.1167.2576s.1637.1066.2614.108h12.9657c.1001-.0008.1958-.0409.2665-.1116.0707-.0708.1108-.1665.1116-.2665v-2.6938c0-.1003-.0398-.1964-.1107-.2673-.0709-.071-.1671-.1108-.2674-.1108zm-2.0031 2.4875c-.1533 0-.3031-.0454-.4306-.1306-.1274-.0851-.2268-.2062-.2854-.3478-.0587-.1416-.074-.2974-.0441-.4478.0299-.1503.1037-.2884.2121-.3968s.2464-.1822.3968-.2121c.1503-.0299.3061-.0146.4478.0441.1416.0587.2626.158.3478.2854.0851.1275.1306.2773.1306.4306 0 .1018-.0201.2026-.059.2966-.039.094-.096.1795-.168.2514-.072.072-.1574.1291-.2514.168-.0941.039-.1948.059-.2966.059z" fill="#f6faff"/><path d="m13.884 19.9853-.0027.0027 1.847 1.8469h11.3991v-.0125c.1003 0 .1965.0398.2674.1108.0709.0709.1107.167.1107.2673v2.6938c-.0008.1-.0409.1957-.1116.2665-.0708.0707-.1665.1108-.2665.1116h-12.9657c-.0595-.0009-.1173-.0155-.1694-.0421l13.7016 13.7016h1.1688c.6341-.0218 1.2516-.2077 1.7922-.5397.5407-.3319.9859-.7985 1.2922-1.3541l5.7282-9.9626-10.3001-10.3157-.0054.0005c.0086.0072.017.0148.025.0228.0709.0709.1107.1671.1107.2674v2.6782c-.0008.1-.0409.1957-.1116.2664-.0708.0708-.1665.1109-.2665.1117h-12.9657c-.1003 0-.1965-.0399-.2674-.1108-.0035-.0035-.0069-.007-.0103-.0107zm11.2402-.8129c-.1532 0-.3031-.0455-.4305-.1306-.1275-.0852-.2268-.2062-.2855-.3478-.0586-.1416-.074-.2975-.0441-.4478s.1038-.2884.2121-.3968c.1084-.1084.2465-.1822.3969-.2121.1503-.0299.3061-.0146.4477.0441.1416.0586.2627.158.3478.2854.0852.1275.1307.2773.1307.4306 0 .2055-.0817.4027-.227.548-.1454.1453-.3425.227-.5481.227zm0 5.15c-.1532 0-.3031-.0454-.4305-.1306-.1275-.0851-.2268-.2062-.2855-.3478-.0586-.1416-.074-.2974-.0441-.4478.0299-.1503.1038-.2884.2121-.3968.1084-.1084.2465-.1822.3969-.2121.1503-.0299.3061-.0146.4477.0441s.2627.158.3478.2854c.0852.1275.1307.2773.1307.4306 0 .1018-.0201.2026-.059.2966-.039.094-.0961.1795-.168.2514-.072.072-.1574.1291-.2515.168-.094.039-.1948.059-.2966.059z" fill="#d7dfed"/></g></svg>