<svg enable-background="new 0 0 141 30" viewBox="0 0 141 30" xmlns="http://www.w3.org/2000/svg"><path d="m28.4 9.8-7.5-7.5c-.1-.1-1.3-1.3-3.1-1.9-2.6-.9-5.1-.2-7.2 1.9l-7.6 7.5c-.1.1-1.3 1.3-1.9 3.1-.9 2.6-.2 5.1 1.9 7.2l7.5 7.5c.1.1 1.3 1.3 3.1 1.9.7.2 1.5.4 2.2.4 1.8 0 3.5-.8 5-2.2l7.5-7.5c.1-.1 1.3-1.3 1.9-3.1.9-2.6.2-5.2-1.8-7.3m-12.1-5.3c.8.3 1.5.8 1.5.9l2.2 2.2-4.3 4.3-4.3-4.3 2.2-2.2c.6-.6 1.4-1.3 2.7-.9m-11.1 9.9c.3-.8.8-1.5.9-1.5l2.2-2.2 4.3 4.3-4.3 4.3-2.3-2.2c-.6-.6-1.2-1.5-.8-2.7m9.9 11.1c-.8-.3-1.5-.8-1.5-.9l-2.2-2.2 4.3-4.3 4.3 4.3-2.2 2.2c-.6.6-1.5 1.2-2.7.9m11.1-9.9c-.3.8-.8 1.5-.9 1.5l-2.2 2.2-4.4-4.3 4.3-4.3 2.2 2.2c.7.6 1.3 1.4 1 2.7" fill="#00a3e0"/><path d="m44.6 25.6h3.9v-10.8c0-3.3-2-5.8-5.5-5.8-1.7 0-3.5.7-4.4 2.1v-8h-3.9v22.4h3.9v-8.5c0-2 1-4.5 3.3-4.5 2.1 0 2.7 1.2 2.7 3zm15.7-6.4c0 2.4-1.7 3.7-4.1 3.7-1.2 0-2.3-.8-2.3-2 0-1.3 1.1-2 2.3-2.1l4.1-.3zm3.2 6.6c.9 0 1.3-.2 1.9-.4v-2.8s-.2.1-.5.1c-.6 0-.9-.3-.9-1v-6c0-1.1-.1-2.2-.5-3.2-.9-2.4-3.3-3.3-6-3.3-3.6 0-6.4 1.6-6.7 5.2h3.7c.1-1.5 1.1-2.3 2.9-2.3 2.2 0 2.7 1 2.7 2.5v1l-4.7.3c-3.1.2-5.4 2-5.4 5 0 2.6 2 5 5.8 5 2.3 0 4.1-1.1 4.9-2.4.2 1.3 1.2 2.3 2.8 2.3m12.1-12.8h.6v-3.6c-.2 0-.3 0-.5 0-1.9 0-3.8.8-4.5 2.6l-.3-2.4h-3.3v16h3.9v-8.1c0-2.6 1.4-4.5 4.1-4.5m12.2 12.6h3.9v-10.7c0-3.3-2-5.7-5.4-5.7-1.9 0-3.8.8-4.7 2.5l-.3-2.1h-3.3v16h3.9v-6.5c0-1.4 0-3 .5-4.3.5-1.2 1.4-2 2.8-2 2 0 2.7 1.1 2.7 3v9.8zm16.5-9.6h-6.9c0-1 .3-1.8.8-2.5.6-.7 1.5-1.2 2.7-1.2 1.1 0 1.9.4 2.4.9.6.6 1 1.6 1 2.8m3.9 1.7c.1-2-.2-3.8-1.4-5.6-1.3-2-3.5-3-5.9-3-2.2 0-3.9.8-5.1 2-1.5 1.6-2.3 3.9-2.3 6.4 0 2.6.9 4.9 2.5 6.4 1.3 1.2 2.9 2 5.1 2 2 0 4-.6 5.4-2.3.6-.7 1.3-2 1.4-3h-3.7c-.2.6-.4 1-.8 1.4-.6.6-1.2.8-2.3.8-1 0-1.8-.5-2.4-1-.8-.7-1.2-1.9-1.2-3.1h10.7c-.1-.3 0-1 0-1m5.1-3.7c0-.8.6-1.4 1.2-1.7.6-.2 1.1-.2 1.7-.2.8 0 1.6.3 2.1.7.4.4.6.9.6 1.5h3.7c0-1.2-.6-2.4-1.4-3.3-1.2-1.3-3.1-1.9-5-1.9-2 0-3.7.6-4.9 1.6-1 .8-1.6 2-1.6 3.6 0 2 1.5 3.8 3.7 4.3 1.4.3 3 .4 4.4.6 1 .2 1.6.8 1.6 1.7 0 1.8-2 2-3.3 2-1.1 0-1.8-.2-2.4-.7-.4-.3-.7-.9-.8-1.5h-3.6c.1 1.3.8 2.5 1.7 3.3 1.3 1.3 3.1 1.9 5.2 1.9 2.2 0 4.2-.6 5.5-1.9.8-.8 1.4-2 1.4-3.5 0-2.5-1.8-4.1-4.4-4.5-1.6-.2-2-.3-3.4-.5-1 0-2-.3-2-1.5m20.5.3h3.7c0-1.2-.6-2.4-1.4-3.3-1.2-1.3-3.1-1.9-5-1.9-2 0-3.7.6-4.9 1.6-1 .8-1.6 2-1.6 3.6 0 2 1.5 3.8 3.7 4.3 1.4.3 3 .4 4.4.6 1 .2 1.6.8 1.6 1.7 0 1.8-2 2-3.3 2-1.1 0-1.8-.2-2.4-.7-.4-.3-.7-.9-.8-1.5h-3.6c.1 1.3.8 2.5 1.7 3.3 1.3 1.3 3.1 1.9 5.2 1.9 2.2 0 4.2-.6 5.5-1.9.8-.8 1.4-2 1.4-3.5 0-2.5-1.8-4.1-4.4-4.5-1.6-.2-2-.3-3.4-.5-.9-.1-1.9-.5-1.9-1.6 0-.8.6-1.4 1.2-1.7.6-.2 1.1-.2 1.7-.2.8 0 1.6.3 2.1.7.2.5.5 1 .5 1.6" fill="#fff"/></svg>