<svg viewBox="0 0 14 14" xmlns="http://www.w3.org/2000/svg"><path d="M7 0a.961.961 0 00-.688.282L4.907 1.703a.515.515 0 00-.187.172L.281 6.313a.973.973 0 000 1.375l6.032 6.031a.978.978 0 001.375 0l6.031-6.031a.974.974 0 000-1.375L7.687.28A.962.962 0 007 0zm0 1.015L12.985 7 7 12.985 1.015 7l4.142-4.14.875.874A.99.99 0 006 4c0 .369.201.686.5.86v4.28A.99.99 0 006 10a1 1 0 002 0 .991.991 0 00-.5-.86V5.22L9.031 6.75a1 1 0 10.718-.719L7.97 4.25A1 1 0 007 3a.99.99 0 00-.265.032l-.875-.876L7 1.016z" fill="#555770" fill-rule="nonzero"/></svg>