<svg fill="none" viewBox="0 0 41 41" xmlns="http://www.w3.org/2000/svg" xmlns:xlink="http://www.w3.org/1999/xlink"><clipPath id="a"><path d="m.661621.967606h40v40h-40z"/></clipPath><g clip-path="url(#a)"><path d="m20.6611 30.3803 13.5512 3.2859.0214-.034-.0004-25.39263-.0215-.02272-13.5507 3.28095z" fill="#8c3123"/><path clip-rule="evenodd" d="m26.5717 12.7534-5.9105-1.4622v-9.85002l5.9105 2.95494zm-19.46184 20.9057 13.93044-3.316v-4.4874l5.5314-.704v-8.3568l-5.5314-.6938v-4.6405l-13.93044-3.24375zm19.46134 3.8808-5.91 2.9539v-9.8493l5.91-1.4618zm10.2453-28.02133-2.6041-1.30172v25.44935l2.6041-1.3013z" fill="#e05243" fill-rule="evenodd"/><path clip-rule="evenodd" d="m14.7522 12.7534 5.9089-1.4622.0478-.0148v-9.79571l-.0478-.03951-5.9089 2.95494zm-10.24536-3.23483 2.60293-1.30172.01565.01792v25.40553l-.01565.0188-2.60293-1.2941zm16.15426 16.38533-5.9089-.7522v-8.3568l5.9089-.7413.0703.0757-.0332 9.6891zm-5.9095 11.6361 5.9095 2.954.0634-.1705.0236-9.5801-.087-.0988-5.9095-1.4618z" fill="#8c3123" fill-rule="evenodd"/><path d="m26.5718 12.7534-5.9105 1.0772-5.9089-1.0772 5.9015-1.5468z" fill="#5e1f18"/><path d="m26.5713 29.1822-5.9105-1.0842-5.9088 1.0842 5.9016 1.6474z" fill="#f2b0a9"/></g></svg>