<svg viewBox="0 0 28 27" fill="none" xmlns="http://www.w3.org/2000/svg"><path d="M5.943 23.137.33 13.413a2.459 2.459 0 0 1 0-2.46L5.943 1.23A2.46 2.46 0 0 1 8.073 0h11.228a2.459 2.459 0 0 1 2.13 1.23l5.614 9.723a2.46 2.46 0 0 1 0 2.46l-5.614 9.724a2.46 2.46 0 0 1-2.13 1.23H8.073a2.46 2.46 0 0 1-2.13-1.23Z" fill="#FCFEFF"/><path opacity=".07" d="m10.547 10.018-1.5 1.495 1.274 1.274-1.261 2.24 9.546 9.546h2.313l4.517-8.113-7.153-7.153-7.736.71Z" fill="#0278D5"/><path d="M18.114 9.247H9.253a.26.26 0 0 0-.26.26v1.832c0 .142.117.259.26.259h8.861a.26.26 0 0 0 .26-.26V9.506a.26.26 0 0 0-.26-.26Zm-1.372 1.706a.531.531 0 0 1 0-1.06.53.53 0 1 1 0 1.06Zm1.372 1.815H9.253a.26.26 0 0 0-.26.26v1.832c0 .143.117.26.26.26h8.861a.26.26 0 0 0 .26-.26v-1.832a.26.26 0 0 0-.26-.26Zm-1.372 1.706a.531.531 0 0 1-.202-1.02.528.528 0 0 1 .202-.04.53.53 0 1 1 0 1.06" fill="#0278D5"/><path fill-rule="evenodd" clip-rule="evenodd" d="M18.66 15.359h6.297l2.984 3.012.059.004v6.727c0 .554-.45 1.008-.999 1.008h-8.34c-.55 0-.999-.454-.999-1.008v-8.736c0-.554.45-1.007.999-1.007Zm1.654 8.357h5.035v.748h-5.035v-.748Zm-.64-1.41h6.315v.748h-6.316v-.749Zm1.11-1.412h4.094v.749h-4.094v-.748Zm-.963-.75h6.02c.55 0 .998.453.998 1.007v2.908c0 .554-.449 1.008-.998 1.008h-6.02c-.55 0-.998-.454-.998-1.008V21.15c0-.554.449-1.007.998-1.007Z" fill="#EFFBFF"/><path d="M18.889 19.485h8.174v5.776h-8.174v-5.776Z" fill="#EFFBFF"/><path fill-rule="evenodd" clip-rule="evenodd" d="M19.009 15.784h5.811l2.755 2.754.054.003v6.15a.924.924 0 0 1-.922.922H19.01a.924.924 0 0 1-.922-.921v-7.987c0-.507.415-.921.922-.921Zm1.525 7.64h4.648v.685h-4.648v-.684Zm-.59-1.289h5.829v.684h-5.83v-.684Zm1.025-1.29h3.779v.684h-3.78v-.684Zm-.889-.686h5.556c.507 0 .922.414.922.921v2.658a.924.924 0 0 1-.922.922H20.08a.924.924 0 0 1-.922-.922V21.08c0-.507.415-.921.922-.921Z" fill="#4F5162"/></svg>