<svg enable-background="new 0 0 12 14" viewBox="0 0 12 14" xmlns="http://www.w3.org/2000/svg"><path d="m1 9.7 5 1.5v-.9l-3.4-.8z" fill="#b7ca9d"/><path d="m6 3.8-3.4.8-1.6-.3 5-1.5z" fill="#3c4929"/><path d="m11 9.7-5 1.5v-.9l3.4-.8z" fill="#b7ca9d"/><path d="m6 3.8 3.4.8 1.6-.3-5-1.5z" fill="#3c4929"/><path d="m2.6 9.5-1.6.2v-5.4l1.6.3z" fill="#759c3e"/><path d="m6 0-5.7 2.9v8.2l5.7 2.9zm-1.7 10.7-3.3-1v-5.4l3.3-1z" fill="#4b612c"/><path d="m9.4 9.5 1.6.2v-5.4l-1.6.3z" fill="#4b612c"/><path d="m6 14 5.7-2.9v-8.2l-5.7-2.9zm1.7-10.6 3.3 1v5.3l-3.3 1z" fill="#759c3e"/></svg>