<svg enable-background="new 0 0 14 12" viewBox="0 0 14 12" xmlns="http://www.w3.org/2000/svg" xmlns:xlink="http://www.w3.org/1999/xlink"><mask id="a" height="8.5" maskUnits="userSpaceOnUse" width="9.1" x="0" y="0"><path d="m0 0h9.1v8.5h-9.1z" fill="#fff"/></mask><path d="m4.5 11-2.5-4.5 2.5-4.5h5l2.5 4.5-2.5 4.5z" fill="#cac9c2"/><path d="m7 7.8c-1.1 0-1.9-.8-1.9-1.8s.8-1.9 1.9-1.9c1 0 1.9.9 1.9 1.9s-.9 1.8-1.9 1.8" fill="#fff"/><path d="m10.8.5c-.1-.3-.5-.5-.8-.5h-6c-.3 0-.7.2-.9.5l-1.7 2.9c0 .2 0 .4.1.5l1.2 2 2.1-3.6h6.8c.2 0 .3.1.5.2z" fill="#5072aa"/><path d="m1.4 3.3v.1c0 .2 0 .4.1.5l1.2 2 .6-1.1z" fill="#4d6796"/><path d="m4.1 1.5c-.2 0-.4-.2-.4-.4s.2-.4.4-.4.4.2.4.4c0 .3-.2.4-.4.4" fill="#fff"/><path d="m10.2 1.2c0 .2-.2.3-.3.3s-.4-.1-.4-.3.2-.3.3-.3.4.1.4.3" fill="#fff"/><path d="m13.9 5.5-1.8-3c-.2-.1-.3-.2-.5-.2h-2.5l2.1 3.7-3.3 5.7c-.1.1-.2.2-.3.3h2.4c.3 0 .7-.2.8-.5l3-5c.2-.3.2-.7.1-1" fill="#cc4232"/><path d="m12.2 2.7-.1-.1c-.2-.1-.3-.2-.5-.2h-2.5l.6 1.1z" fill="#b23f33"/><path d="m9.8 11.1c-.2 0-.4-.2-.4-.4s.2-.4.4-.4.4.2.4.4-.2.4-.4.4" fill="#fff"/><path d="m12.7 6.3c-.2 0-.4-.2-.4-.4s.2-.4.4-.4.4.2.4.4c0 .3-.2.4-.4.4" fill="#fff"/><path d="m4.9 6.1-3.4-5.6c-.1-.1-.1-.3-.1-.5l-1.3 2.1c-.1.3-.1.7 0 .9l3 5c.2.3.6.5.9.5h3.6c.1-.1.3-.2.3-.3l1.2-2.1z" fill="#ecb02a" mask="url(#a)" transform="translate(0 3.421053)"/><path d="m7.4 11.9h.2c.1-.1.3-.2.3-.3l1.2-2.1h-1.3z" fill="#c79732"/><g fill="#fff"><path d="m4.1 11.1c-.2 0-.4-.2-.4-.4s.2-.4.4-.4.4.2.4.4-.2.4-.4.4"/><path d="m1.2 6.3c-.2 0-.3-.1-.3-.3s.2-.4.4-.4.4.2.4.4c-.1.2-.3.3-.5.3"/></g></svg>