<svg enable-background="new 0 0 14 14" viewBox="0 0 14 14" xmlns="http://www.w3.org/2000/svg"><path d="m14 .7v12.6c0 .1-.1.2-.1.3-.2.2-.3.4-.6.4-4.2 0-8.3 0-12.5 0-.4 0-.6-.3-.7-.6 0-.1 0-.2 0-.3 0-3.3 0-6.6 0-10 0-.8 0-1.5 0-2.3 0-.1 0-.3.1-.4.1-.2.2-.3.4-.4-.1 0 0 0 .1 0h.1 12.5.1c.1 0 .2.1.3.2s.2.2.3.3z" fill="#25bf50"/><path d="m2.4 8.5c0-.8 0-1.6 0-2.4 0-.3.1-.6.3-.9s.5-.4.9-.5h.3 1.5c.3 0 .5 0 .8.2.3.1.5.4.6.8v.4 1.9c0 .3-.1.5-.2.8-.2.3-.5.5-.9.5-.1 0-.2 0-.3 0-.6 0-1.3 0-1.9 0 0 0-.1 0-.1.1v1.6s0 .1-.1.1c-.3 0-.6 0-.9 0 0 0-.1 0-.1-.1.1-.8.1-1.7.1-2.5z" fill="#fefefe"/><path d="m11.6 5.6v2.4c0 .2 0 .4-.1.6-.2.4-.5.7-1 .8-.1 0-.2 0-.3 0-.5 0-1 0-1.5 0-.2 0-.4 0-.7-.1-.4-.2-.7-.5-.8-1 0-.1 0-.2 0-.3 0-.6 0-1.2 0-1.8 0-.2 0-.4.1-.6.2-.4.5-.6 1-.7h.3 1.9c.1 0 .1 0 .1-.1 0-.5 0-1 0-1.6 0-.1 0-.1.1-.1h.9c.1 0 .1 0 .1.1-.1.7-.1 1.5-.1 2.4z" fill="#fefefe"/><g fill="#25c051"><path d="m3.4 7.1c0-.4 0-.7 0-1.1 0-.1 0-.1 0-.2s.1-.2.3-.3h.2 1.5.2s.2.1.2.2v.2 1.9.1c0 .2-.1.3-.3.3 0 0 0 0-.1 0-.6 0-1.3 0-1.9 0-.1 0-.1 0-.1-.1 0-.2 0-.6 0-1z"/><path d="m10.6 6.9v1.1c0 .3-.1.4-.4.4-.5 0-1 0-1.5 0-.1 0-.1 0-.2 0s-.2-.1-.2-.2 0-.1 0-.2c0-.6 0-1.3 0-1.9v-.1c0-.2.1-.3.3-.3h.1 1.9c.1 0 .1 0 .1.1-.1.3-.1.7-.1 1.1z"/></g></svg>