<svg fill="none" viewBox="0 0 41 41" xmlns="http://www.w3.org/2000/svg" xmlns:xlink="http://www.w3.org/1999/xlink"><clipPath id="a"><path d="m.661621.967606h40v40h-40z"/></clipPath><g clip-path="url(#a)"><path d="m18.3976 27.0115-2.1107.5874c.1835.5321.3303 1.4866.3303 2.7713v6.3138h2.3678v-6.6808c.4405-.5323.9176-.7893 1.4315-.7893.257 0 .459.0551.6791.1836l.6424-2.1841c-.367-.1652-.5322-.2019-.881-.2019-.2569 0-.5689.055-.7709.1469-.4405.2201-.9911.7156-1.3398 1.193 0-.5324-.1285-.9545-.3487-1.3399zm-8.1492-3.1203h-.25696v12.7745h2.45946v-5.653h3.1018v-2.1108h-3.1018v-2.9367h3.8727l.1468-1.1195c-2.331-.1652-4.4417-.5323-6.222-.9545zm-5.74483 14.4813 1.13795 1.3215c1.10125-.4405 2.4778-1.4315 2.84488-3.01.12849-.5138.16519-.8443.16519-2.5145v-10.2598h-2.4778v10.5352c0 1.3765-.05505 1.8905-.2386 2.3676-.2386.5322-.80759 1.1564-1.43162 1.56zm22.33693-6.4788c0 2.2392-.4405 3.1935-1.45 3.1935-.4589 0-.9729-.257-1.193-.7708-.1835-.4772-.2937-1.2849-.2937-2.386 0-.936.0918-1.5969.2387-2.1107.1835-.5873.6423-.9545 1.2113-.9545.4222 0 .7892.1835 1.0095.4955.3303.4405.4772 1.2665.4772 2.533zm1.45 3.6707c.7708-.9177 1.1195-2.0372 1.1195-3.6524 0-1.5235-.312-2.5696-1.0279-3.4506-.7708-.9544-1.762-1.4132-3.0466-1.4132-2.4229 0-4.038 1.9638-4.038 4.9372 0 2.9733 1.5968 4.8821 4.038 4.8821 1.3765.0184 2.2758-.4955 2.955-1.3031zm6.7175-5.2859c0 .8625-.5139 1.3399-1.4317 1.3399-.8258 0-1.3765-.3855-1.3765-1.3399 0-.881.514-1.395 1.395-1.395s1.4132.514 1.4132 1.395zm4.1663-2.019-.9727-1.5601c-.5506.514-1.2113.8076-1.8538.8076-.2937 0-.4588-.0366-1.1012-.2018-.6425-.1837-1.1013-.2387-1.6151-.2387-2.2944 0-3.781 1.248-3.781 3.1937 0 1.3948.624 2.2758 1.9271 2.6245-.5321.1285-1.1011.4038-1.3581.7158-.1835.2204-.2754.514-.2754.8627 0 .2937.0735.5507.1835.7708.1285.202.2937.3672.514.4589.4222.1651 1.1012.2753 2.1474.2936.5506 0 .881.0184.9911.0184.6425.0368.9729.1468 1.2299.2753.2385.1468.422.4773.422.8443s-.2202.7342-.5689.9544c-.3121.2203-.826.3121-1.4868.3121-1.0828 0-1.6885-.4038-1.6885-1.1563 0-.3303.0367-.4038.1102-.6057h-2.1659c-.0916.1835-.2018.4405-.2018.9544 0 .6423.2385 1.193.7342 1.6701.8075.7894 2.129 1.0095 3.3955 1.0095 1.3948 0 2.753-.3303 3.5423-1.2113.4955-.5507.7158-1.1563.7158-1.9455 0-.8443-.2386-1.4867-.771-2.019-.624-.6057-1.3398-.8258-2.7163-.8443l-1.2665-.0184c-.2385 0-.3853-.0916-.3853-.2201 0-.257.3303-.4772.936-.7709.1835.0184.2386.0184.3486.0184 1.9089 0 3.3039-1.1747 3.3039-2.8082 0-.624-.1835-1.1013-.5324-1.5418.2937.0368.3855.0551.6057.0551.6242 0 1.1197-.202 1.6335-.6975zm-29.54995-15.4724c-2.93665.7158-4.93723 2.129-4.93723 3.7442 0 1.0094.77087 1.9272 2.0373 2.6431-.38545-.6059-.58733-1.2665-.58733-1.9274.01835-1.6701 1.32148-3.2302 3.48726-4.4599zm30.98165 6.3321c0-1.0645-.6607-2.0373-1.762-2.8449.0918.3304.1651.6608.1651.9912 0 3.0284-4.2396 5.6347-10.2598 6.7175.679.0735 1.3765.1102 2.1107.1102 5.3776-.0183 9.746-2.2392 9.746-4.974zm-3.4689-1.6518c0-1.1196-.9545-2.1475-2.588-2.9918.3855.4589.5874.9545.5874 1.4684 0 2.698-5.7265 4.8822-12.8112 4.8822-7.0663 0-12.81108-2.1842-12.81108-4.8822 0-.3488.09178-.6791.27532-.9912-1.13795.7526-1.78035 1.6152-1.78035 2.5329 0 2.9183 6.51571 5.286 14.55481 5.286 8.039 0 14.5731-2.4043 14.5731-5.3043zm-6.3505-.1469c-2.9735 1.9089-12.1136 2.643-16.0415.1835-3.0834-1.9271-2.0189-4.9922-10.84721-11.70981-1.1563-.881.22025-1.81705 1.0829-1.21137.86263.60568.07341.75252 1.81705 2.49615 3.52396 3.52393 3.48726.34872 4.03786 1.56008 1.1747 2.51455 3.7442 5.04735 3.7442 5.04735 2.588 1.6886 4.6436 2.0557 8.4612-.5322 2.4229-1.6336 1.4317 2.6062 7.36-.4589 2.1659-1.1196 2.074-.3671 4.2765-3.43221.9177-1.26642 2.6614.97281.679 1.28481-.7891.1285-2.129.9911-2.698 2.3493-.8258 2.0373-.4771 3.5423-1.872 4.4233zm-16.482-5.1758c-.7341-.3304-1.505-1.5785-1.7987-2.074.826-.8076.4956-2.14745.0184-2.88161-.4589-.73415-1.0278-.53227-1.6335-1.21137-.6241-.6791.2386-2.44108 1.0278-1.08288 2.955 5.08406 4.9005 2.97335 7.3049 2.66133 2.3126-.29367 4.3683.97277 4.9923-2.60627.1102-.58733.6792-.71581.7342.2386.055.97277.4221 3.32209 1.6886 3.61574 1.2664.31203 2.2942-.29365 2.5879-.62404.2936-.33036.4588-.29366.5873.55064.1285.82591.4588 1.98226 2.2392.69745 3.6525-2.60629 2.6063-3.61575 4.0378-4.29485.8077-.38544 2.0925.86263.2387 1.7987-2.643 1.33983-2.9184 2.9917-4.5885 4.03786-2.8082 1.762-1.9455.0734-6.4607-.5689-1.7435-.2387-2.2942 1.6885-3.6523 1.1379-3.1019-1.2848-5.2861-1.0278-7.3234.6057zm9.7827-9.41565c.1102.77089.2387.75252.514.80759.2753.07341.624-.36709.624-.77087.0183-.42215-.1835-.6791-.5873-.66075-.4222.01835-.569.22025-.5507.62403zm13.582 1.37657c.3303.31202 1.2113.11012 1.4133-.12848.5322-.58734.5505-.93607.2754-1.33985-.2754-.38544-.8444-.33037-1.4134.09176-.569.42215-.4588 1.21137-.2753 1.37657zm-.2385 3.89105c-.2753.36708-.2937.64238-.0918.84428.2201.22025.6606.40379.9728.16519.312-.25695.312-.62404.055-.93605-.2753-.33039-.6423-.33039-.936-.07342zm-27.86151-4.58852c.42215.12849.62401.53227.97281.07342.1835-.22025.2019-.53227-.0368-.86263-.1468-.2019-.84425-.34874-1.13791-.05507-.29365.29367-.01835.77087.2019.84428zm-8.608043-.25695c.770873.4772 1.266433 1.19302 1.853753.55062.2019-.22025.4405-.60568.01835-1.37655-.31201-.56897-1.32148-.78922-1.67021-.56897-.367079.20189-.807576 1.02782-.201893 1.3949zm7.103003 3.65245c.2386.25697.66075.2386.9177.09177.2386-.14683.2019-.53227-.0367-.86263-.14683-.2019-.58733-.31202-.881 0-.29366.31201-.16518.58733 0 .77086z" fill="#fff"/></g></svg>