<svg xmlns="http://www.w3.org/2000/svg" width="40" height="40" fill="none" viewBox="0 0 24 25">
  <g clip-path="url(#a)">
    <path fill="url(#b)" d="M12.64 23.499c5.705 0 10.33-4.624 10.33-10.328S18.346 2.843 12.64 2.843c-5.707 0-10.333 4.624-10.333 10.328S6.933 23.499 12.64 23.499Z"/>
    <path fill="#fff" d="M1.84 5.827 10.041 2.3a.136.136 0 0 1 .168.048l4.434 6.296a.148.148 0 0 1-.072.228l-1.2.4a.148.148 0 0 0-.065.232l3.502 4.4a.148.148 0 0 1-.076.236l-1.517.372a.148.148 0 0 0-.08.236l5.17 6.528a.144.144 0 0 1-.176.22L8.526 14.8a.148.148 0 0 1 .02-.264l1.4-.556a.148.148 0 0 0 .028-.256l-4.713-3.4a.152.152 0 0 1 .028-.256l1.076-.472a.148.148 0 0 0 .024-.256L1.81 6.083a.148.148 0 0 1 .028-.256Z"/>
    <path fill="#000" d="M10.094 2.299a.14.14 0 0 1 .116.06l4.434 6.284a.15.15 0 0 1 .022.132.148.148 0 0 1-.094.096l-1.2.4a.148.148 0 0 0-.065.232l3.502 4.4a.15.15 0 0 1 .026.139.148.148 0 0 1-.102.097l-1.517.372a.148.148 0 0 0-.08.236l5.17 6.528a.149.149 0 0 1-.032.214.148.148 0 0 1-.076.026.12.12 0 0 1-.068 0L8.526 14.819a.148.148 0 0 1 .02-.264l1.4-.556a.148.148 0 0 0 .028-.256l-4.713-3.4a.152.152 0 0 1 .028-.256l1.076-.472a.148.148 0 0 0 .024-.256L1.81 6.083a.148.148 0 0 1 .028-.256l8.203-3.528a.124.124 0 0 1 .052 0m0-.8a.889.889 0 0 0-.364.076L1.531 5.099a.928.928 0 0 0-.172 1.6l3.665 2.608-.056.024a.936.936 0 0 0-.168 1.6l3.774 2.748-.324.128a.932.932 0 0 0-.12 1.668l11.604 6.696c.14.082.298.125.46.124a.928.928 0 0 0 .72-1.504l-4.545-5.764.564-.136a.928.928 0 0 0 .652-.592.944.944 0 0 0-.152-.88l-2.937-3.704.316-.104a.916.916 0 0 0 .63-1.014.944.944 0 0 0-.158-.402l-4.437-6.296a.92.92 0 0 0-.753-.4Z"/>
  </g>
  <defs>
    <radialGradient id="b" cx="0" cy="0" r="1" gradientTransform="matrix(10.3318 0 0 10.328 12.64 13.171)" gradientUnits="userSpaceOnUse">
      <stop stop-color="#4389FF"/>
      <stop offset="1" stop-color="#00549E"/>
    </radialGradient>
    <clipPath id="a">
      <path fill="#fff" d="M0 0h22v22H0z" transform="translate(.97 1.499)"/>
    </clipPath>
  </defs>
</svg>
