<svg fill="none" viewBox="0 0 64 64" xmlns="http://www.w3.org/2000/svg"><path clip-rule="evenodd" d="m17.576 6.92624c0-.55229-.4477-1-1-1s-1 .44771-1 1v5.99996c0 .2653.1054.5196.2929.7071.1875.1876.4419.2929.7071.2929h6c.5523 0 1-.4477 1-1 0-.5522-.4477-1-1-1h-3.7114c2.0952-1.3812 4.4453-2.45515 7.0049-3.141 10.7937-2.89217 21.8436 2.0543 27.1004 11.352.2718.4808.8819.6502 1.3626.3784.4808-.2718.6502-.8819.3784-1.3627-5.6947-10.0721-17.6631-15.43348-29.359-12.29956-2.8465.76271-5.4571 1.97016-7.7759 3.52806zm-6.5251 36.61746c-.2659-.484-.8739-.6609-1.35791-.3949-.48404.2659-.66086.8739-.39493 1.3579 5.63094 10.2495 17.71044 15.7371 29.51244 12.5748 3.025-.8106 5.7837-2.1235 8.2089-3.8255v3.4847c0 .5523.4477 1 1 1 .5522 0 1-.4477 1-1v-6c0-.2652-.1054-.5196-.2929-.7071-.1876-.1875-.4419-.2929-.7071-.2929h-6c-.5523 0-1 .4477-1 1s.4477 1 1 1h3.6759c-2.194 1.5106-4.6797 2.6794-7.4025 3.4089-10.8916 2.9184-22.044-2.1447-27.2419-11.6059zm18.1014-30.5406c-.8284 0-1.5.6716-1.5 1.5v2.6889c-1.2894.3505-2.5111.8647-3.6413 1.5186l-1.9089-1.9094c-.5858-.586-1.5358-.586-2.1216 0l-3.535 3.536c-.5856.5858-.5856 1.5353 0 2.121l1.9188 1.9195c-.647 1.1275-1.1551 2.3453-1.5009 3.6299h-2.715c-.8284 0-1.5.6716-1.5 1.5v5c0 .8285.6716 1.5 1.5 1.5h2.715c.346 1.2854.8545 2.5039 1.502 3.632l-1.917 1.9171c-.5858.5858-.5858 1.5355 0 2.1213l3.5355 3.5355c.5858.5858 1.5355.5858 2.1213 0l1.9078-1.9077c1.1297.6534 2.3507 1.1672 3.6393 1.5175v2.6889c0 .8284.6716 1.5 1.5 1.5h5c.8284 0 1.5-.6716 1.5-1.5v-2.6691c1.2966-.3456 2.5255-.8565 3.6627-1.5085l1.8819 1.8825c.5858.586 1.5358.586 2.1216 0l3.535-3.5361c.5856-.5857.5856-1.5352 0-2.121l-1.8698-1.8704c.6612-1.1421 1.1798-2.3776 1.5309-3.682h2.6428c.8285 0 1.5-.6715 1.5-1.5v-5c0-.8284-.6715-1.5-1.5-1.5h-2.6428c-.3505-1.3021-.8679-2.5355-1.5275-3.676l1.8733-1.8732c.5858-.5858.5858-1.5355 0-2.1213l-3.5356-3.5356c-.5857-.5857-1.5355-.5857-2.1213 0l-1.8825 1.8826c-1.1389-.6536-2.3698-1.1657-3.6687-1.5119v-2.6691c0-.8284-.6716-1.5-1.5-1.5zm.5 4.5705v-2.5705h4v2.5527c0 .7161.4999 1.3084 1.1629 1.4674 1.3573.3256 2.6341.8585 3.7954 1.564.5809.3529 1.35.2857 1.8544-.2187l1.7992-1.7992 2.8284 2.8284-1.7908 1.7908c-.5058.5059-.5718 1.2775-.216 1.8588.7115 1.1622 1.2498 2.4412 1.5797 3.8013.1603.6611.7519 1.159 1.4665 1.159h2.5254v4h-2.5254c-.7146 0-1.3062.4979-1.4665 1.1591-.3304 1.3622-.8698 2.6429-1.5828 3.8065-.3562.5812-.2904 1.3532.2154 1.8592l1.7876 1.7881-2.828 2.8289-1.7983-1.7989c-.5042-.5044-1.2731-.5717-1.854-.2192-1.1599.7039-2.435 1.2357-3.7902 1.5608-.663.159-1.1629.7513-1.1629 1.4674v2.5527h-4v-2.5705c0-.713-.4959-1.3039-1.1553-1.4656-1.3478-.3305-2.6155-.8659-3.7684-1.5716-.5812-.3558-1.3529-.2898-1.8588.216l-1.8252 1.8253-2.8285-2.8285 1.8337-1.8336c.5044-.5044.5716-1.2735.2187-1.8544-.6997-1.1519-1.2298-2.4175-1.556-3.7626-.1604-.6612-.752-1.1591-1.4665-1.1591h-2.5976v-4h2.5976c.7145 0 1.3061-.4979 1.4665-1.159.326-1.3444.8557-2.6094 1.5549-3.7608.3527-.5808.2856-1.3497-.2186-1.854l-1.8355-1.8361 2.828-2.8288 1.8264 1.827c.5059.506 1.2778.572 1.8592.216 1.1533-.7063 2.4216-1.242 3.7701-1.5727.6594-.1617 1.1553-.7526 1.1553-1.4656zm-6.7518 14.4341c0-4.8519 3.9344-8.7856 8.7884-8.7856s8.7884 3.9337 8.7884 8.7856c0 4.8518-3.9344 8.7855-8.7884 8.7855s-8.7884-3.9337-8.7884-8.7855zm8.7884-10.7856c-5.958 0-10.7884 4.8286-10.7884 10.7856 0 5.9569 4.8304 10.7855 10.7884 10.7855s10.7884-4.8286 10.7884-10.7855c0-5.957-4.8304-10.7856-10.7884-10.7856z" fill="#0278d5" fill-rule="evenodd"/></svg>