<svg viewBox="0 0 75 69" fill="currentColor" xmlns="http://www.w3.org/2000/svg"><path opacity=".01" fill="#000" d="M14.889 11.889h46.222v46.222H14.889z"/><path fill-rule="evenodd" clip-rule="evenodd" d="m59.103 40.61-3.313-2.832a18.186 18.186 0 0 0 0-5.849l3.313-2.833a1.62 1.62 0 0 0 .47-1.78l-.045-.132a22.453 22.453 0 0 0-4.032-6.977l-.09-.106a1.625 1.625 0 0 0-1.777-.48l-4.113 1.462a17.827 17.827 0 0 0-5.043-2.914l-.795-4.3a1.622 1.622 0 0 0-1.305-1.3l-.137-.026a22.858 22.858 0 0 0-8.044 0l-.136.025a1.622 1.622 0 0 0-1.305 1.3l-.8 4.32a17.796 17.796 0 0 0-5.008 2.905l-4.144-1.473a1.62 1.62 0 0 0-1.775.481l-.091.106a22.559 22.559 0 0 0-4.032 6.977l-.046.131c-.228.633-.04 1.341.47 1.781l3.355 2.864a17.79 17.79 0 0 0-.233 2.888c0 .972.076 1.943.233 2.889L17.325 40.6a1.62 1.62 0 0 0-.47 1.781l.046.132a22.502 22.502 0 0 0 4.032 6.976l.09.107a1.625 1.625 0 0 0 1.776.48l4.144-1.472a17.678 17.678 0 0 0 5.008 2.904l.8 4.32a1.621 1.621 0 0 0 1.305 1.3l.136.026a22.726 22.726 0 0 0 8.044 0l.137-.025a1.621 1.621 0 0 0 1.305-1.3l.795-4.3a17.71 17.71 0 0 0 5.043-2.915l4.113 1.462a1.62 1.62 0 0 0 1.776-.48l.091-.107a22.565 22.565 0 0 0 4.032-6.976l.046-.132c.228-.622.04-1.33-.47-1.77ZM52.2 32.524a14.315 14.315 0 0 1 0 4.664l-.334 2.03 3.779 3.232a18.712 18.712 0 0 1-2.155 3.724l-4.695-1.665-1.588 1.305a14.147 14.147 0 0 1-4.012 2.317l-1.928.724-.905 4.907a19.11 19.11 0 0 1-4.3 0l-.906-4.917-1.913-.734a14.16 14.16 0 0 1-3.981-2.312l-1.588-1.31-4.726 1.68a19.106 19.106 0 0 1-2.155-3.724l3.82-3.263-.33-2.024a14.549 14.549 0 0 1-.186-2.302c0-.774.06-1.548.187-2.301l.329-2.024-3.82-3.263a18.722 18.722 0 0 1 2.155-3.724l4.726 1.68 1.588-1.31a14.15 14.15 0 0 1 3.981-2.312l1.918-.724.905-4.917a19.11 19.11 0 0 1 4.3 0l.906 4.907 1.928.724a14.203 14.203 0 0 1 4.012 2.316l1.588 1.306 4.695-1.665a19.115 19.115 0 0 1 2.155 3.724l-3.78 3.233.33 2.018Z" fill="#4F5162"/><path fill-rule="evenodd" clip-rule="evenodd" d="M38.22 25.447a8.904 8.904 0 1 0 .001 17.808 8.904 8.904 0 0 0 0-17.809Zm4.007 12.91a5.645 5.645 0 0 1-4.006 1.66 5.645 5.645 0 0 1-4.007-1.66 5.645 5.645 0 0 1-1.66-4.006c0-1.513.592-2.934 1.66-4.007a5.625 5.625 0 0 1 4.007-1.66c1.512 0 2.934.588 4.006 1.66a5.646 5.646 0 0 1 1.66 4.007 5.645 5.645 0 0 1-1.66 4.007Z" fill="#4F5162"/><path d="M69.593 34.5c.806 0 1.463-.654 1.428-1.459A33.553 33.553 0 0 0 23.197 4.149c-.73.343-1.002 1.228-.627 1.942.375.713 1.256.984 1.986.644A30.634 30.634 0 0 1 68.099 33.04c.039.805.688 1.459 1.494 1.459Z" fill="#4F5162"/><path d="m69.737 40.42 4.558-7.894h-9.116l4.558 7.895ZM5.386 34.5c-.794 0-1.442.645-1.408 1.438a33.552 33.552 0 0 0 47.844 28.905c.718-.34.988-1.212.618-1.916-.37-.703-1.238-.97-1.958-.634A30.676 30.676 0 0 1 6.858 35.938c-.037-.793-.677-1.438-1.472-1.438Z" fill="#4F5162"/><path d="M5.263 28.58.705 36.473h9.116l-4.558-7.895Z" fill="#4F5162"/></svg>