<svg width="16" height="16" xmlns="http://www.w3.org/2000/svg"><path d="M8 0C3.538.036-.035 3.644 0 8.053.036 12.427 3.61 16 8 16h.054c2.133-.018 4.142-.853 5.635-2.382 1.493-1.53 2.329-3.538 2.311-5.671C15.965 3.573 12.391 0 8 0zm5.262 8.836h-1.635a.52.52 0 01-.48-.338l-.836-2.276-1.653 5.245a.49.49 0 01-.462.355H8.16a.51.51 0 01-.462-.302L5.796 7.253l-.907 1.351a.5.5 0 01-.427.232H2.667a.516.516 0 010-1.032h1.511L5.44 5.902a.513.513 0 01.48-.23.488.488 0 01.427.301L8.07 9.867l1.725-5.423a.512.512 0 01.48-.355c.23 0 .426.124.498.338l1.208 3.36h1.28c.285 0 .516.23.516.515a.531.531 0 01-.516.534z" fill="#1D76FF" fill-rule="nonzero"/></svg>