<svg fill="none" xmlns="http://www.w3.org/2000/svg" viewBox="0 0 88 88"><g opacity=".38"><path fill="#F0F9FF" d="M0 0h88v88H0z"/><path fill="#D5EBFF" d="M7 7h74v74H7z"/><path fill="#AED3F3" d="M14 14h60v60H14z"/></g><path fill="#fff" d="M21 19h48v48H21z"/><path d="M20.5 18c0 10.455-.541 35.25-.541 53.25M19 19.75c10.455 0 35.25.541 53.25.541M19 66.75c10.455 0 35.25.541 53.25.541M69.541 18.75C69.541 29.205 69 54 69 72M40.208 56.125c-3.784 1.923-5.5 2.89-9.208 4.958M39.985 51.044c-3.745-1.999-3.749-2.274-7.568-4.127M44.856 45.553c-1.607-3.93-1.474-4.688-3.231-8.553" stroke="#4F5162" stroke-linecap="round"/><path d="M52.25 57.223c1.628.409 2.233 2.152 2.45 3.61.386-4.912 5.564-3.947 5.564 2.126C61.721 54.294 65 58.793 65 64.302c0 3.769-1.869 10.449-8.426 11.562-13.423 2.28-12.8-24.863-9.789-24.863 1.579-.065 2.734 3.724 2.734 13.544.41-1.376-.184-8.054 2.73-7.322z" fill="#fff" stroke="#4F5162" stroke-linecap="round" stroke-linejoin="round"/></svg>