<svg viewBox="0 0 24 24" fill="currentColor" xmlns="http://www.w3.org/2000/svg"><path d="M9.961 11.38h.227a.248.248 0 0 0 .247-.248v-.226a.248.248 0 0 0-.247-.247H9.96a.248.248 0 0 0-.247.247v.226c0 .136.112.247.247.247zM10.929 12.347h.226a.248.248 0 0 0 .247-.247v-.227a.248.248 0 0 0-.247-.247h-.226a.248.248 0 0 0-.247.247v.227c0 .135.11.247.247.247zM10.929 11.38h.226a.248.248 0 0 0 .247-.248v-.226a.248.248 0 0 0-.247-.247h-.226a.248.248 0 0 0-.247.247v.226c0 .136.11.247.247.247zM9.961 12.347h.227a.248.248 0 0 0 .247-.247v-.227a.248.248 0 0 0-.247-.247H9.96a.248.248 0 0 0-.247.247v.227c0 .135.112.247.247.247zM15.441 13.547h-.249a.273.273 0 0 0-.272.272v.25c0 .149.123.27.272.27h.25c.149 0 .27-.121.27-.27v-.25a.273.273 0 0 0-.27-.272zM16.256 15.404h.25c.148 0 .271-.123.271-.272v-.25a.273.273 0 0 0-.272-.27h-.249a.272.272 0 0 0-.271.27v.25c0 .15.122.272.271.272zM16.256 14.34h.25c.148 0 .271-.122.271-.271v-.25a.273.273 0 0 0-.272-.272h-.249a.272.272 0 0 0-.271.272v.25c0 .149.122.27.271.27zM15.441 14.612h-.249a.272.272 0 0 0-.272.27v.25c0 .15.123.272.272.272h.25c.149 0 .27-.123.27-.272v-.25a.272.272 0 0 0-.27-.27zM8.325 14.845h-.2a.218.218 0 0 0-.217.217v.2c0 .12.098.218.218.218h.199c.12 0 .218-.098.218-.218v-.2a.218.218 0 0 0-.218-.217zM8.978 16.332h.2c.12 0 .217-.098.217-.218v-.2a.218.218 0 0 0-.218-.217h-.2a.218.218 0 0 0-.217.218v.2c0 .119.098.217.218.217zM8.978 15.48h.2c.12 0 .217-.098.217-.218v-.2a.218.218 0 0 0-.218-.217h-.2a.218.218 0 0 0-.217.217v.2c0 .12.098.218.218.218zM8.325 15.697h-.2a.218.218 0 0 0-.217.218v.2c0 .119.098.217.218.217h.199c.12 0 .218-.098.218-.218v-.2a.218.218 0 0 0-.218-.217z" fill="currentColor"/><path d="m5.173 15.877 7.062 4.076a.344.344 0 0 0 .346 0l7.061-4.076a.347.347 0 0 0 .173-.3V7.423a.347.347 0 0 0-.173-.3l-7.06-4.077a.347.347 0 0 0-.347 0L5.173 7.123a.347.347 0 0 0-.173.3v8.154c0 .124.066.238.173.3zm7.235 2.98L6.739 15.67l1.636-1.636a.4.4 0 0 1 .56-.006l4.392 4.192-.92.638zm6.444-3.824-4.782 2.762-2.337-2.443 3.775-3.817a.4.4 0 0 1 .566-.003l2.781 2.757-.003.744zM5.889 8.153a.6.6 0 0 1 .301-.52l6.018-3.456a.4.4 0 0 1 .4.001l5.948 3.454a.6.6 0 0 1 .299.519v4.91l-2.82-2.662a.347.347 0 0 0-.49 0l-1.105 1.105-3.698-3.699a.357.357 0 0 0-.49 0l-4.363 4.36V8.152zm0 5.499 4.323-4.487a.4.4 0 0 1 .573-.003l2.967 3.002-2.55 2.656-2.275-2.035a.347.347 0 0 0-.49 0L5.89 15.352v-1.7z" fill="currentColor"/></svg>