<svg viewBox="0 0 24 24" fill="currentColor" xmlns="http://www.w3.org/2000/svg"><path d="M9.961 11.38h.227a.248.248 0 00.247-.248v-.226a.248.248 0 00-.247-.247H9.96a.248.248 0 00-.247.247v.226c0 .136.112.247.247.247zm.968.967h.226a.248.248 0 00.247-.247v-.227a.248.248 0 00-.247-.247h-.226a.248.248 0 00-.247.247v.227c0 .135.11.247.247.247zm0-.967h.226a.248.248 0 00.247-.248v-.226a.248.248 0 00-.247-.247h-.226a.248.248 0 00-.247.247v.226c0 .136.11.247.247.247zm-.968.967h.227a.248.248 0 00.247-.247v-.227a.248.248 0 00-.247-.247H9.96a.248.248 0 00-.247.247v.227c0 .135.112.247.247.247zm5.48 1.2h-.249a.273.273 0 00-.272.272v.25c0 .149.123.27.272.27h.25a.27.27 0 00.27-.27v-.25a.273.273 0 00-.27-.272zm.815 1.857h.25a.273.273 0 00.271-.272v-.25a.273.273 0 00-.272-.27h-.249a.272.272 0 00-.271.27v.25c0 .15.122.272.271.272zm0-1.064h.25a.273.273 0 00.271-.271v-.25a.273.273 0 00-.272-.272h-.249a.272.272 0 00-.271.272v.25c0 .149.122.27.271.27zm-.815.272h-.249a.272.272 0 00-.272.27v.25c0 .15.123.272.272.272h.25c.149 0 .27-.123.27-.272v-.25a.272.272 0 00-.27-.27zm-7.116.233h-.2a.218.218 0 00-.217.217v.2c0 .12.098.218.218.218h.199c.12 0 .218-.098.218-.218v-.2a.218.218 0 00-.218-.217zm.653 1.487h.2c.12 0 .217-.098.217-.218v-.2a.218.218 0 00-.218-.217h-.2a.218.218 0 00-.217.218v.2c0 .119.098.217.218.217zm0-.852h.2c.12 0 .217-.098.217-.218v-.2a.218.218 0 00-.218-.217h-.2a.218.218 0 00-.217.217v.2c0 .12.098.218.218.218zm-.653.217h-.2a.218.218 0 00-.217.218v.2c0 .119.098.217.218.217h.199c.12 0 .218-.098.218-.218v-.2a.218.218 0 00-.218-.217z"/><path d="M5.173 15.877l7.062 4.076a.344.344 0 00.346 0l7.061-4.076a.347.347 0 00.173-.3V7.423a.347.347 0 00-.173-.3l-7.06-4.077a.347.347 0 00-.347 0L5.173 7.123a.347.347 0 00-.173.3v8.154c0 .124.066.238.173.3zm7.235 2.98L6.739 15.67l1.636-1.636a.4.4 0 01.56-.006l4.392 4.192-.92.638zm6.444-3.824l-4.782 2.762-2.337-2.443 3.775-3.817a.4.4 0 01.566-.003l2.781 2.757-.003.744zM5.889 8.153a.6.6 0 01.301-.52l6.018-3.456a.4.4 0 01.4.001l5.948 3.454a.6.6 0 01.299.519v4.91l-2.82-2.662a.347.347 0 00-.49 0l-1.105 1.105-3.698-3.699a.357.357 0 00-.49 0l-4.363 4.36V8.152zm0 5.499l4.323-4.487a.4.4 0 01.573-.003l2.967 3.002-2.55 2.656-2.275-2.035a.347.347 0 00-.49 0L5.89 15.352v-1.7z"/></svg>