<svg enable-background="new 0 0 14 14" viewBox="0 0 14 14" xmlns="http://www.w3.org/2000/svg"><path d="m.4 13.6c0-4.4 0-8.8 0-13.1h13.1v13.1c-4.3 0-8.7 0-13.1 0zm8.5-2.1c2-1.3 2.8-4 1.6-6.3-1.2-2.4-3.8-3-5.5-2.5.2.5.4.9.6 1.4.1.2.1.2.3.2 1.9-.1 3.5 1.3 3.4 3.2 0 .9-.4 1.7-1 2.3 0 0-.1.1-.1.2.3.5.5 1 .7 1.5zm-2.3-.9c-.8-1.9-1.6-3.7-2.5-5.6-1.1.8-1.4 2.5-.9 3.8.6 1.3 2.1 2.1 3.4 1.8z"/><g fill="#fff"><path d="m8.9 11.5c-.2-.5-.5-1-.7-1.6 0 0 0-.1.1-.2.7-.6 1-1.4 1-2.3 0-1.9-1.5-3.3-3.4-3.2-.2 0-.2 0-.3-.2-.2-.4-.4-.8-.6-1.3 1.7-.5 4.4.1 5.6 2.6 1.1 2.3.3 5-1.7 6.2z"/><path d="m6.6 10.6c-1.3.3-2.8-.5-3.4-1.8-.5-1.3-.2-3 .9-3.8.9 1.9 1.7 3.7 2.5 5.6z"/></g></svg>