<svg xmlns="http://www.w3.org/2000/svg" viewBox="0 0 33 33"><path fill-rule="evenodd" clip-rule="evenodd" d="M24.695 13.426l2.025 2.026a1 1 0 010 1.414l-9.871 9.871a1 1 0 01-1.414 0L5.248 16.551a1 1 0 010-1.414l9.844-9.844a1 1 0 011.428.014l3.95 4.106 1.441-1.386-3.95-4.106a3 3 0 00-4.283-.042l-9.844 9.844a3 3 0 000 4.242L14.02 28.152a3 3 0 004.243 0l9.871-9.872a3 3 0 000-4.243l-2.025-2.025-1.415 1.414zm1.4-4.114a1 1 0 00-1.413-1.414l-9.271 9.27-3.783-3.782a1 1 0 10-1.414 1.414l5.197 5.197L26.096 9.312z" fill="currentColor"/></svg>