<svg fill="none" xmlns="http://www.w3.org/2000/svg" viewBox="0 0 80 84"><path d="M4.509 59.985l10.727-8.18 35.509-1.85 22.563 4.809v14.425l-7.768 9.617-34.03 2.263L3.77 75.151l.74-15.166z" fill="#fff"/><path fill-rule="evenodd" clip-rule="evenodd" d="M35.535 67.09a.322.322 0 01.244.403 931.82 931.82 0 01-1.96 6.98l-.018.063c-.67 2.363-1.334 4.704-1.91 6.796a.362.362 0 01-.423.253.322.322 0 01-.244-.402c.576-2.094 1.24-4.437 1.91-6.8l.018-.065a931.045 931.045 0 001.96-6.974.362.362 0 01.423-.253zm-3.887.013a.322.322 0 01.244.402c-.236.858-.425 1.52-.607 2.156a138.4 138.4 0 00-.98 3.561.362.362 0 01-.42.259.322.322 0 01-.25-.4c.416-1.593.693-2.56.987-3.587.182-.636.37-1.294.602-2.138a.362.362 0 01.424-.253zm-3.184-.002c.185.036.3.213.255.395l-3.176 12.887a.362.362 0 01-.418.264.322.322 0 01-.255-.396l3.176-12.886a.362.362 0 01.418-.264zm1.607 7.633c.183.047.286.23.23.41l-1.92 6.198a.362.362 0 01-.432.24.322.322 0 01-.23-.41l1.92-6.198a.362.362 0 01.432-.24zM47.839 66.01a.322.322 0 01.238.4c-.603 2.197-1.374 4.605-2.137 6.985l-.019.06-.021.066-2.06 6.725a.362.362 0 01-.426.243.322.322 0 01-.239-.401c.572-2.08 1.315-4.403 2.064-6.739l2.173-7.097a.362.362 0 01.427-.243zm-4.24.475c.183.04.293.22.245.4v.002l-1.9 7.088a768.705 768.705 0 01-1.806 6.739.362.362 0 01-.423.254.322.322 0 01-.245-.401v-.002l1.805-6.734.016-.061.016-.06a792.292 792.292 0 011.868-6.971.362.362 0 01.423-.254zm-4.1.992a.322.322 0 01.243.402l-3.617 13.155a.362.362 0 01-.424.253.322.322 0 01-.243-.402l3.616-13.155a.362.362 0 01.424-.253z" fill="#000" stroke="#000" stroke-width=".25" stroke-linecap="round" stroke-linejoin="round"/><path fill-rule="evenodd" clip-rule="evenodd" d="M58.417 64.86a.322.322 0 01.244.402c-.602 2.188-1.28 4.645-1.952 7.082l-.019.066-.017.065-1.885 6.834a.362.362 0 01-.424.254.322.322 0 01-.243-.403c.57-2.073 1.223-4.442 1.884-6.834l1.988-7.213a.362.362 0 01.424-.253zm-2.963 0a.322.322 0 01.239.402c-.603 2.192-1.46 4.849-2.308 7.478l-.02.062-.023.071-2.23 7.218a.362.362 0 01-.425.242.321.321 0 01-.239-.402c.572-2.081 1.4-4.648 2.234-7.231l2.346-7.597a.362.362 0 01.426-.242zm-3.907 1.15c.183.048.286.231.23.411l-4.234 13.67a.362.362 0 01-.432.24.321.321 0 01-.23-.41l4.234-13.67a.362.362 0 01.432-.24z" fill="#000"/><path d="M58.661 65.262a.322.322 0 00-.244-.402.362.362 0 00-.424.253l-1.988 7.213c-.66 2.392-1.315 4.761-1.885 6.834m4.541-13.898s0 0 0 0zm0 0c-.602 2.188-1.28 4.645-1.952 7.082l-.019.066-.017.065-1.885 6.834a.362.362 0 01-.424.254.322.322 0 01-.243-.403m0 0s0 0 0 0zm1.572-13.898a.322.322 0 00-.239-.401.362.362 0 00-.426.242L52.682 72.7c-.834 2.582-1.662 5.15-2.234 7.231-.05.18.057.358.239.402a.362.362 0 00.426-.242l2.23-7.218.022-.07.02-.063c.849-2.629 1.705-5.286 2.308-7.478zm-3.916 1.16a.321.321 0 00-.23-.411.362.362 0 00-.431.24l-4.235 13.67a.321.321 0 00.23.41.362.362 0 00.432-.24l4.234-13.67z" stroke="#000" stroke-width=".25" stroke-linecap="round" stroke-linejoin="round"/><path fill-rule="evenodd" clip-rule="evenodd" d="M71.337 57.566a.322.322 0 01.251.398l-4.763 18.594a.362.362 0 01-.42.26.322.322 0 01-.251-.397l4.763-18.594a.362.362 0 01.42-.26zm-9.208 7.013c.184.044.29.227.237.407L58.22 79.132a.362.362 0 01-.428.247.322.322 0 01-.237-.407L61.7 64.826a.362.362 0 01.428-.247zm2.338 3.955c.184.044.29.226.238.406l-2.868 9.871a.362.362 0 01-.428.248.321.321 0 01-.238-.406l2.868-9.871a.362.362 0 01.428-.248zM14.475 63.148a.322.322 0 01.244.402l-3.54 12.873a.362.362 0 01-.423.254.322.322 0 01-.244-.403l3.54-12.872a.362.362 0 01.423-.254zm-4.053 0a.322.322 0 01.243.403L7.323 75.708a.362.362 0 01-.424.254.322.322 0 01-.244-.403l3.343-12.157a.362.362 0 01.424-.254zm-3.343-.744a.322.322 0 01.244.403L3.84 75.477a.362.362 0 01-.424.253.322.322 0 01-.244-.403l3.483-12.67a.362.362 0 01.424-.253zM73.613 57.806a.322.322 0 01.244.403c-.562 2.045-1.25 4.91-1.936 7.773l-.013.057c-.68 2.838-1.36 5.669-1.908 7.665a.362.362 0 01-.424.253.322.322 0 01-.244-.402c.546-1.986 1.223-4.807 1.905-7.654l.01-.046c.686-2.858 1.377-5.737 1.942-7.795a.362.362 0 01.424-.254zm-5.137 1.872a.322.322 0 01.244.403l-3.483 12.67a.362.362 0 01-.425.253.322.322 0 01-.243-.403l3.483-12.67a.362.362 0 01.424-.253zm5.137 7.808a.322.322 0 01.244.402l-.681 2.478a.362.362 0 01-.424.254.322.322 0 01-.244-.403l.681-2.478a.362.362 0 01.424-.253zM18.042 64.073a.322.322 0 01.244.402l-3.547 12.901a.362.362 0 01-.424.254.322.322 0 01-.244-.403l3.547-12.901a.362.362 0 01.424-.253zm3.01 1.121a.322.322 0 01.253.391l-1.534 6.55c-.464 2.155-.928 4.308-1.485 6.336a.362.362 0 01-.418.254.322.322 0 01-.253-.39l1.48-6.319.009-.041.007-.034c.47-2.183.945-4.39 1.523-6.492a.362.362 0 01.418-.255zm3.707.954a.322.322 0 01.25.395l-1.644 6.664c-.478 2.063-.954 4.11-1.534 6.217a.362.362 0 01-.42.255.322.322 0 01-.25-.395l1.53-6.204.018-.076.017-.073c.49-2.115.99-4.264 1.613-6.529a.362.362 0 01.42-.254zM18.328 49.572c.12.145.101.36-.044.48-4.695 3.904-9.37 7.779-14.305 11.454a.341.341 0 11-.408-.547c4.918-3.663 9.58-7.526 14.277-11.431.145-.12.36-.101.48.044z" fill="#000" stroke="#000" stroke-width=".25" stroke-linecap="round" stroke-linejoin="round"/><path fill-rule="evenodd" clip-rule="evenodd" d="M1.06 60.675a.341.341 0 01.413-.25c3.576.874 6.837 1.703 9.975 2.5 7.142 1.816 13.647 3.47 21.77 5.125a.341.341 0 01-.137.668c-8.139-1.658-14.667-3.318-21.817-5.135-3.135-.797-6.39-1.625-9.953-2.496a.341.341 0 01-.25-.412zM46.58 48.279a.341.341 0 01.413-.25c3.576.874 6.837 1.703 9.975 2.5 7.142 1.816 13.647 3.47 21.77 5.125a.341.341 0 01-.137.668c-8.139-1.658-14.667-3.318-21.817-5.135-3.135-.797-6.39-1.625-9.953-2.496a.341.341 0 01-.25-.412z" fill="#000" stroke="#000" stroke-width=".25" stroke-linecap="round" stroke-linejoin="round"/><path fill-rule="evenodd" clip-rule="evenodd" d="M62.556 66.725c.137.13.353.124.483-.013a321.832 321.832 0 004.336-4.705c3.09-3.399 5.894-6.484 9.403-9.577a.341.341 0 10-.451-.512c-3.538 3.12-6.381 6.247-9.484 9.66a319.449 319.449 0 01-4.3 4.665.341.341 0 00.014.482zM62.556 81.028c.137.13.353.123.483-.014 1.557-1.647 2.974-3.206 4.336-4.704 3.09-3.399 5.894-6.484 9.403-9.577a.341.341 0 10-.451-.512c-3.538 3.119-6.381 6.246-9.484 9.66a318.944 318.944 0 01-4.3 4.665.341.341 0 00.014.482zM2.119 74.98a.341.341 0 01.41-.253c3.695.874 7.065 1.703 10.307 2.501 7.38 1.816 14.103 3.47 22.496 5.125a.341.341 0 11-.132.669c-8.41-1.658-15.154-3.318-22.542-5.135-3.24-.797-6.604-1.625-10.286-2.496a.341.341 0 01-.253-.41z" fill="#000" stroke="#000" stroke-width=".25" stroke-linecap="round" stroke-linejoin="round"/><path fill-rule="evenodd" clip-rule="evenodd" d="M68.95 64.048a.341.341 0 01-.293.383c-17.062 2.26-26.52 2.808-41.422 3.67l-2.534.147a.341.341 0 01-.04-.681l2.533-.147c14.899-.862 24.337-1.408 41.374-3.665a.341.341 0 01.383.293zM13.47 52.368l-2.533.147a.341.341 0 01-.04-.681l2.532-.147c51.334-2.97 51.35-2.288.041.68zM71.065 77.874a.341.341 0 01-.294.383c-17.062 2.26-26.52 2.808-41.422 3.67l-2.534.147a.341.341 0 11-.04-.681l2.533-.147c14.9-.862 24.337-1.408 41.374-3.665a.341.341 0 01.383.293zM5.097 60.415c.188 0 .341.152.341.34V76.49a.341.341 0 01-.682 0V60.756c0-.189.153-.341.341-.341zM73.374 50.879c.189 0 .342.153.342.341v20.024a.341.341 0 11-.683 0V51.22c0-.188.153-.341.341-.341z" fill="#000" stroke="#000" stroke-width=".25" stroke-linecap="round" stroke-linejoin="round"/><path fill-rule="evenodd" clip-rule="evenodd" d="M29.974 66.136c.189 0 .342.153.342.341v15.734a.341.341 0 11-.683 0V66.477c0-.188.153-.34.341-.34zM64.905 62.322c.188 0 .34.152.34.34 0 3.416-.135 6.871-.397 10.278-.075.97-.082 1.943-.089 2.928-.002.29-.004.582-.008.875-.016 1.279-.067 2.574-.305 3.86a.341.341 0 11-.67-.123c.226-1.228.276-2.475.293-3.746.004-.283.006-.569.008-.856.007-.99.014-1.993.09-2.99.262-3.39.397-6.828.397-10.225 0-.188.152-.341.34-.341z" fill="#000" stroke="#000" stroke-width=".25" stroke-linecap="round" stroke-linejoin="round"/><path d="M52.706 55.361V37.237L34.95 33.168l-12.576 4.069V55.36L39.76 60.91l12.946-5.549z" fill="#fff"/><path fill-rule="evenodd" clip-rule="evenodd" d="M22.83 34.664a.37.37 0 01.37.37v23.892a.37.37 0 11-.74 0V35.034a.37.37 0 01.37-.37z" fill="#000" stroke="#000" stroke-width=".25" stroke-linecap="round" stroke-linejoin="round"/><path fill-rule="evenodd" clip-rule="evenodd" d="M20.573 56.078a.377.377 0 01.455-.267l21.828 5.514c.198.05.316.25.263.448a.377.377 0 01-.455.266l-21.828-5.513a.363.363 0 01-.263-.448zM18.67 35.884c.04-.2.235-.332.436-.294l29.42 5.513c.201.038.332.23.292.431a.375.375 0 01-.436.295L18.96 36.315a.364.364 0 01-.291-.43zM33.858 32.193a.377.377 0 01.45-.275l23.726 5.513c.199.047.32.245.271.443a.376.376 0 01-.45.275L34.13 32.636a.364.364 0 01-.271-.443z" fill="#000" stroke="#000" stroke-width=".25" stroke-linecap="round" stroke-linejoin="round"/><path fill-rule="evenodd" clip-rule="evenodd" d="M37.672 62.087a.36.36 0 01.198-.478l18.98-7.618a.38.38 0 01.49.203.36.36 0 01-.198.477L38.16 62.29a.38.38 0 01-.49-.202zM38.605 40.71a.363.363 0 01.255-.452l17.154-4.66a.377.377 0 01.46.258.363.363 0 01-.254.452l-17.155 4.66a.377.377 0 01-.46-.257zM18.68 37.691a.362.362 0 01.245-.457l24.33-7.148a.378.378 0 01.466.249.362.362 0 01-.244.457L19.146 37.94a.378.378 0 01-.466-.248z" fill="#000" stroke="#000" stroke-width=".25" stroke-linecap="round" stroke-linejoin="round"/><path fill-rule="evenodd" clip-rule="evenodd" d="M40.863 39.258a.37.37 0 01.37.37v22.054a.37.37 0 01-.74 0V39.628a.37.37 0 01.37-.37zM53.199 36.042a.37.37 0 01.37.37v19.94a.37.37 0 11-.74 0v-19.94a.37.37 0 01.37-.37z" fill="#000" stroke="#000" stroke-width=".25" stroke-linecap="round" stroke-linejoin="round"/><path fill-rule="evenodd" clip-rule="evenodd" d="M50.114 36.779c.2.048.32.246.27.443l-5.406 21.136a.377.377 0 01-.453.27.363.363 0 01-.269-.444l5.406-21.135a.377.377 0 01.452-.27zm2.853.76c.198.051.316.252.262.448l-5.55 20.376a.377.377 0 01-.456.264.363.363 0 01-.263-.448l5.55-20.376a.377.377 0 01.457-.264zm-5.794-.76c.2.047.32.246.27.443-.951 3.718-1.927 7.603-2.889 11.43l-.046.186c-.945 3.763-1.876 7.467-2.753 10.898a.377.377 0 01-.452.27.363.363 0 01-.27-.443c.877-3.43 1.807-7.132 2.753-10.896l.046-.185c.961-3.827 1.938-7.713 2.89-11.433a.377.377 0 01.451-.27zm-3.344 1.838c.199.047.32.246.27.443l-3.174 12.406a.377.377 0 01-.452.27.363.363 0 01-.27-.443l3.173-12.406a.377.377 0 01.453-.27zM52.979 48.11c.197.057.308.26.248.456l-2.715 8.89a.377.377 0 01-.465.25.363.363 0 01-.248-.456l2.716-8.89a.377.377 0 01.464-.25z" fill="#000" stroke="#000" stroke-width=".25" stroke-linecap="round" stroke-linejoin="round"/><path d="M43.652 13.656c0 5.875-4.763 10.638-10.638 10.638-5.876 0-10.639-4.763-10.639-10.638 0-5.876 4.763-10.639 10.639-10.639 5.875 0 10.638 4.763 10.638 10.639z" fill="#CDF4FE"/><path fill-rule="evenodd" clip-rule="evenodd" d="M44.47 1.263a.333.333 0 01-.109.458c-6.87 4.236-9.678 9.368-10.8 13.18-.563 1.908-.704 3.49-.717 4.468-.005.315.004.565.016.742l.016.044a.33.33 0 01.018.078 3.187 3.187 0 01.014.223h0a.448.448 0 01-.026.147.333.333 0 01-.58.072c-.03-.041-.044-.082-.048-.091v-.001a1.17 1.17 0 01-.033-.163 3.854 3.854 0 01-.017-.168c-1.024-2.796-2.58-4.806-4.462-6.647a.332.332 0 11.465-.475c1.59 1.555 2.972 3.248 4.007 5.426.07-.999.26-2.323.709-3.844 1.165-3.956 4.068-9.228 11.09-13.557a.332.332 0 01.457.108zM32.243 20.451v-.002.002z" fill="#000" stroke="#000" stroke-width=".25" stroke-linecap="round" stroke-linejoin="round"/><path fill-rule="evenodd" clip-rule="evenodd" d="M30.785 3.814c2.767-1.093 6.367-1.03 9.027-.001 1.649.638 3.743 2.316 5.065 4.652 1.329 2.35 1.885 5.386.404 8.709-1.345 3.019-3.577 5.239-6.26 6.3-2.688 1.064-5.802.956-8.879-.634-3.11-1.607-5.07-4.389-5.68-7.886-.399-2.285.076-5.08 1.924-7.308 1.856-2.236 5.058-3.855 10.027-3.855a.332.332 0 010 .665c-4.82 0-7.814 1.565-9.515 3.615-1.708 2.058-2.15 4.65-1.78 6.77.576 3.303 2.414 5.902 5.33 7.408 2.916 1.507 5.83 1.596 8.328.607 2.502-.99 4.614-3.072 5.898-5.953 1.381-3.1.866-5.914-.376-8.11-1.251-2.212-3.23-3.781-4.726-4.36h0c-2.512-.972-5.938-1.03-8.543 0-2.35.928-4.742 2.306-5.959 4.219a.332.332 0 11-.56-.357c1.334-2.097 3.893-3.54 6.274-4.481z" fill="#000" stroke="#000" stroke-width=".25" stroke-linecap="round" stroke-linejoin="round"/></svg>