<svg xmlns="http://www.w3.org/2000/svg" fill="none" viewBox="0 0 33 32"><defs/><path fill="#4F5162" d="M31.4696 14.4236l-1.5523-2.0266c-.0298-.0385-.0517-.0826-.0644-.1297-.0127-.047-.016-.0961-.0097-.1444l.3408-2.46004c.0796-.57366-.0351-1.15746-.3258-1.65835-.2908-.50089-.7408-.89006-1.2784-1.10547l-2.334-.93362c-.0469-.01863-.0895-.04664-.1252-.08232-.0357-.03567-.0637-.07826-.0823-.12515l-.9336-2.33405c-.2148-.5383-.6037-.98914-1.1047-1.28058-.5009-.29144-1.0851-.40668-1.6592-.32732l-2.4563.34084c-.0489.00679-.0987.00374-.1464-.00899-.0477-.01272-.0924-.03486-.1314-.06511L17.5801.534119C17.1276.187711 16.5736 0 16.0037 0c-.5699 0-1.1239.187711-1.5764.534119L12.4007 2.08645c-.039.03025-.0837.05238-.1314.06511-.0477.01272-.0975.01578-.1464.00899L9.66286 1.8197c-.57366-.07961-1.15746.03509-1.65835.32583-.50089.29073-.89006.74076-1.10547 1.27837l-.93362 2.33405c-.01863.04689-.04664.08948-.08232.12515-.03567.03568-.07826.06369-.12515.08232l-2.33405.93362c-.53761.21541-.98764.60458-1.27837 1.10547-.29074.50089-.40544 1.08469-.32583 1.65835l.34085 2.46004c.00628.0483.00297.0974-.00974.1444-.01271.0471-.03459.0912-.06436.1297L.534119 14.4236C.187711 14.8761 0 15.4301 0 16c0 .5699.187711 1.1239.534119 1.5764L2.08645 19.603c.02977.0385.05165.0826.06436.1297.01271.047.01602.0961.00974.1444l-.34085 2.46c-.07961.5737.03509 1.1575.32583 1.6584.29073.5009.74076.89 1.27837 1.1055l2.33405.9336c.04689.0186.08948.0466.12515.0823.03568.0357.06369.0783.08232.1251l.93362 2.3341c.21541.5376.60458.9876 1.10547 1.2784.50089.2907 1.08469.4054 1.65835.3258l2.45634-.3408c.0489-.0068.0987-.0038.1464.0089.0477.0128.0924.0349.1314.0652l2.0266 1.5523C14.8761 31.8123 15.4301 32 16 32c.5699 0 1.1239-.1877 1.5764-.5341l2.0266-1.5523c.039-.0303.0837-.0524.1314-.0652.0477-.0127.0975-.0157.1464-.0089l2.46.3408c.5737.0796 1.1575-.0351 1.6584-.3258.5009-.2908.89-.7408 1.1055-1.2784l.9336-2.3341c.0186-.0468.0466-.0894.0823-.1251.0357-.0357.0783-.0637.1252-.0823l2.334-.9336c.5376-.2155.9876-.6046 1.2784-1.1055.2907-.5009.4054-1.0847.3258-1.6584l-.3408-2.46c-.0063-.0483-.003-.0974.0097-.1444.0127-.0471.0346-.0912.0644-.1297l1.5523-2.0266c.3464-.4525.5341-1.0065.5341-1.5764 0-.5699-.1877-1.1239-.5341-1.5764zm-1.7598 1.8042l-1.5561 2.0266c-.2085.272-.361.5826-.4488.9139-.0878.3313-.109.6768-.0624 1.0163l.3408 2.4563c.0126.0829-.0032.1675-.0449.2402-.0418.0727-.1069.1291-.1848.16l-2.334.9336c-.3262.1304-.6224.3257-.8708.5741-.2484.2484-.4437.5446-.5741.8708l-.9336 2.334c-.0306.0765-.0859.1407-.157.1823s-.1541.0583-.2358.0474l-2.46-.3408c-.3395-.0466-.685-.0254-1.0163.0624-.3313.0878-.6419.2403-.9139.4488l-2.0303 1.5561c-.0647.0499-.1442.0769-.2259.0769-.0818 0-.1613-.027-.226-.0769l-2.0266-1.5561c-.4549-.3458-1.0105-.5332-1.582-.5334-.1164-.0006-.2328.0069-.3482.0222l-2.46004.3408c-.08226.0117-.16607-.0045-.23797-.0462-.0719-.0417-.1277-.1063-.15845-.1835l-.93362-2.334c-.13044-.3262-.32576-.6224-.57414-.8708-.24837-.2484-.54461-.4437-.87075-.5741l-2.33405-.9336c-.0772-.0308-.14182-.0866-.18348-.1585-.04165-.0719-.05793-.1557-.04622-.238l.34085-2.4563c.04655-.3395.02534-.685-.06242-1.0163-.08776-.3313-.24031-.6419-.44885-.9139l-1.55604-2.0303c-.04987-.0647-.07691-.1442-.07691-.2259 0-.0818.02704-.1613.07691-.226l1.55233-2.0266c.20854-.272.3611-.5826.44885-.9139.08776-.3313.10897-.6768.06242-1.0163l-.34085-2.45633c-.01235-.08329.00404-.16831.04646-.24104.04243-.07273.10837-.12884.18695-.15909l2.33405-.93362c.32614-.13044.62238-.32576.87075-.57414.24838-.24837.4437-.54461.57414-.87075l.93362-2.33405c.03075-.0772.08655-.14182.15845-.18348.0719-.04165.15571-.05793.23797-.04622l2.46004.34085c.3395.04655.685.02534 1.0163-.06242.3313-.08776.6419-.24031.9139-.44885l2.0266-1.55604c.0644-.04898.1431-.07549.2241-.07549.081 0 .1597.02651.2241.07549l2.0266 1.55233c.5507.4186 1.2445.6024 1.9302.51127l2.46-.34085c.0817-.01083.1647.00587.2358.04747.0711.04161.1264.10573.157.18224l.9336 2.33405c.1304.32613.3257.62237.5741.87075.2484.24837.5446.4437.8708.57414l2.3414.93732c.0772.03075.1418.08655.1835.15845.0417.0719.0579.15571.0462.23797l-.3408 2.45634c-.0466.3395-.0254.685.0624 1.0163.0878.3313.2403.6419.4488.9139l1.5561 2.0303c.0499.0647.0769.1442.0769.226 0 .0817-.027.1612-.0769.2259z"/><path fill="#4F5162" d="M20.6588 11.2708l-6.2204 7.2207-3.2529-2.649c-.2289-.1766-.5177-.2571-.805-.2242-.2874.0328-.55056.1763-.73379.4s-.27204.5101-.24758.7982c.02445.2882.16025.5554.37856.7451L13.853 20.896c.2241.1834.511.2721.7996.2472.2885-.0249.556-.1615.7453-.3806l6.9281-8.0395c.1841-.2242.2732-.5114.2484-.8003-.0247-.289-.1615-.5568-.381-.7464-.2195-.1895-.5044-.2857-.7939-.2681-.2895.0176-.5606.1477-.7555.3625h.0148z"/></svg>