<svg xmlns="http://www.w3.org/2000/svg" fill="none" viewBox="0 0 33 32"><path fill="#4F5162" d="M31.47 14.424l-1.553-2.027a.369.369 0 01-.074-.274l.341-2.46a2.594 2.594 0 00-1.604-2.764l-2.334-.934a.37.37 0 01-.208-.207l-.933-2.334a2.593 2.593 0 00-2.764-1.608l-2.456.34a.37.37 0 01-.278-.073L17.58.534a2.593 2.593 0 00-3.153 0l-2.026 1.552a.37.37 0 01-.278.075l-2.46-.341a2.593 2.593 0 00-2.764 1.604l-.934 2.334a.37.37 0 01-.207.207L3.424 6.9A2.593 2.593 0 001.82 9.663l.34 2.46a.37.37 0 01-.074.274L.534 14.424a2.593 2.593 0 000 3.152l1.552 2.027a.37.37 0 01.075.274l-.341 2.46a2.593 2.593 0 001.604 2.764l2.334.934a.37.37 0 01.207.207l.934 2.334a2.594 2.594 0 002.764 1.604l2.456-.34a.37.37 0 01.278.074l2.027 1.552a2.593 2.593 0 003.152 0l2.027-1.552a.37.37 0 01.278-.075l2.46.341a2.594 2.594 0 002.764-1.604l.933-2.334a.37.37 0 01.208-.207l2.334-.934a2.594 2.594 0 001.604-2.764l-.34-2.46a.37.37 0 01.073-.274l1.553-2.027a2.593 2.593 0 000-3.152zm-1.76 1.804l-1.556 2.026a2.595 2.595 0 00-.511 1.93l.34 2.457a.37.37 0 01-.23.4l-2.333.934a2.592 2.592 0 00-1.445 1.445l-.934 2.334a.37.37 0 01-.393.23l-2.46-.341a2.592 2.592 0 00-1.93.51l-2.03 1.557a.37.37 0 01-.452 0l-2.027-1.556a2.616 2.616 0 00-1.93-.511l-2.46.34a.37.37 0 01-.396-.23l-.934-2.333a2.593 2.593 0 00-1.445-1.445L4.25 23.04a.37.37 0 01-.23-.396l.341-2.457a2.594 2.594 0 00-.511-1.93l-1.556-2.03a.37.37 0 010-.452l1.552-2.027a2.593 2.593 0 00.512-1.93l-.341-2.456a.37.37 0 01.233-.4l2.334-.934A2.593 2.593 0 008.03 6.584l.934-2.334a.37.37 0 01.396-.23l2.46.341a2.594 2.594 0 001.93-.511l2.027-1.556a.37.37 0 01.448 0l2.027 1.552a2.62 2.62 0 001.93.512l2.46-.341a.37.37 0 01.393.23l.933 2.333a2.592 2.592 0 001.445 1.445l2.342.938a.37.37 0 01.23.396l-.342 2.456a2.592 2.592 0 00.512 1.93l1.556 2.03a.37.37 0 010 .453z"/><path fill="#4F5162" d="M20.659 11.27l-6.22 7.221-3.254-2.649a1.111 1.111 0 00-1.407 1.72l4.075 3.334a1.112 1.112 0 001.545-.133l6.928-8.04a1.111 1.111 0 00-1.682-1.452h.015z"/></svg>