<svg width="24" height="24" fill="none" xmlns="http://www.w3.org/2000/svg"><path d="M12.024 10.372c-.046 0-.046 0-.092-.049L5.483 6.34c-.046-.048-.091-.097-.091-.146 0-.048.045-.145.091-.145l6.404-3.983a.132.132 0 01.183 0l6.449 3.983c.046.048.092.097.092.145 0 .049-.046.146-.092.146l-6.403 3.983c-.046 0-.046.05-.092.05z" fill="#0F74C4"/><path d="M11.11 20.039c-.047 0-.047 0-.092-.05l-6.45-3.934c-.045-.049-.091-.097-.091-.146V7.896c0-.049.046-.146.092-.146.045-.048.136-.048.182 0l6.45 3.934c.045.05.091.098.091.146v7.967c0 .048-.046.146-.091.146-.046.097-.092.097-.092.097z" fill="#0F5E9A"/><path d="M12.938 20.039c-.046 0-.046 0-.092-.05-.046-.047-.091-.096-.091-.145v-7.869c0-.048.045-.146.091-.146l6.45-3.983a.132.132 0 01.182 0c.046.049.092.097.092.146v7.87c0 .047-.046.144-.092.144L13.03 19.99c-.045.049-.045.049-.091.049z" fill="#59B4D9"/><path opacity=".5" d="M12.938 20.039c-.046 0-.046 0-.092-.05-.046-.047-.091-.096-.091-.145v-7.869c0-.048.045-.146.091-.146l6.45-3.983a.132.132 0 01.182 0c.046.049.092.097.092.146v7.87c0 .047-.046.144-.092.144L13.03 19.99c-.045.049-.045.049-.091.049z" fill="#2E89CB"/><path d="M5.208 20.962c-.091 0-.183-.05-.32-.098L1.87 18.97C1.366 18.63 1 17.998 1 17.367V5.563c0-.632.366-1.311.87-1.603l3.018-1.894a.65.65 0 01.869.291.784.784 0 01-.183.972L2.555 5.175c-.091.048-.274.34-.274.437v11.803c0 .098.137.389.274.438l3.019 1.894c.32.195.411.583.275.923-.184.146-.366.292-.64.292zM18.792 2.017c.091 0 .183.049.32.097l3.019 1.895c.503.34.869.971.869 1.602v11.804c0 .632-.366 1.312-.87 1.603l-3.018 1.895c-.32.194-.686.049-.869-.292-.183-.34-.046-.728.274-.922l3.02-1.895c.091-.049.274-.34.274-.437V5.563c0-.097-.137-.388-.275-.437L18.517 3.23c-.32-.194-.411-.631-.274-.971a.822.822 0 01.549-.243z" fill="#3F9AC5"/></svg>