<svg fill="none" viewBox="0 0 16 16" xmlns="http://www.w3.org/2000/svg"><path clip-rule="evenodd" d="M1.689 10.614c-.21 1.345-.018 2.37.654 3.043.672.672 1.698.865 3.043.654C6.188 15.411 7.049 16 8 16s1.812-.589 2.614-1.689c1.345.21 2.37.018 3.043-.654.672-.672.865-1.698.654-3.043C15.411 9.812 16 8.951 16 8s-.589-1.812-1.689-2.614c.21-1.345.018-2.37-.654-3.043-.672-.672-1.698-.865-3.043-.654C9.812.589 8.951 0 8 0S6.188.589 5.386 1.689c-1.345-.21-2.37-.018-3.043.654-.672.672-.865 1.698-.654 3.043C.589 6.188 0 7.049 0 8s.589 1.812 1.689 2.614zm4.64 2.5a.727.727 0 00-.764-.316c-1.152.247-1.868.155-2.193-.17s-.417-1.04-.17-2.194a.727.727 0 00-.317-.762c-.99-.64-1.43-1.212-1.43-1.672 0-.46.44-1.031 1.43-1.672a.727.727 0 00.316-.763c-.246-1.152-.155-1.868.17-2.193s1.042-.417 2.194-.17a.727.727 0 00.763-.317c.64-.99 1.212-1.43 1.672-1.43.46 0 1.031.44 1.672 1.43.164.254.467.38.762.316 1.153-.246 1.87-.155 2.194.17s.417 1.042.17 2.194a.727.727 0 00.316.763c.99.64 1.431 1.212 1.431 1.672 0 .46-.44 1.031-1.43 1.672a.727.727 0 00-.317.762c.247 1.153.155 1.87-.17 2.194s-1.04.417-2.194.17a.727.727 0 00-.762.316c-.64.99-1.212 1.431-1.672 1.431-.46 0-1.031-.44-1.672-1.43z" fill="#7d4dd3" fill-rule="evenodd"/></svg>