<svg fill="none" viewBox="0 0 16 16" xmlns="http://www.w3.org/2000/svg"><path clip-rule="evenodd" d="m1.68895 10.6141c-.21079 1.3453-.01796 2.3706.6542 3.0428.67215.6721 1.69744.8649 3.04273.6541.8022 1.1004 1.66355 1.689 2.61412 1.689s1.81192-.5886 2.6141-1.689c1.3453.2108 2.3706.018 3.0428-.6541.6721-.6722.8649-1.6975.6541-3.0428 1.1004-.80218 1.689-1.66353 1.689-2.6141s-.5886-1.81192-1.689-2.61412c.2108-1.34529.018-2.37058-.6541-3.04273-.6722-.67216-1.6975-.86499-3.0428-.6542-.80218-1.100312-1.66353-1.68895-2.6141-1.68895s-1.81192.588638-2.61412 1.68895c-1.34529-.21079-2.37058-.01796-3.04273.6542-.67216.67215-.86499 1.69744-.6542 3.04273-1.100312.8022-1.68895 1.66355-1.68895 2.61412s.588638 1.81192 1.68895 2.6141zm4.63939 2.5004c-.16405-.2535-.46763-.3792-.76285-.316-1.15275.2469-1.86865.155-2.19385-.1702s-.41707-1.0411-.1702-2.1938c.06323-.2953-.06252-.59884-.31598-.76289-.98969-.64055-1.43094-1.21173-1.43094-1.67164 0-.4599.44125-1.03108 1.43094-1.67163.25346-.16405.37921-.46763.31598-.76285-.24687-1.15275-.155-1.86865.1702-2.19385s1.0411-.41707 2.19385-.1702c.29522.06323.5988-.06252.76285-.31598.64055-.98969 1.21173-1.43094 1.67163-1.43094.45991 0 1.03109.44125 1.67164 1.43094.16405.25346.46759.37921.76289.31598 1.1527-.24687 1.8686-.155 2.1938.1702s.4171 1.0411.1702 2.19385c-.0632.29522.0625.5988.316.76285.9897.64055 1.4309 1.21173 1.4309 1.67163 0 .45991-.4412 1.03109-1.4309 1.67164-.2535.16405-.3792.46759-.316.76289.2469 1.1527.155 1.8686-.1702 2.1938s-1.0411.4171-2.1938.1702c-.2953-.0632-.59884.0625-.76289.316-.64055.9897-1.21173 1.4309-1.67164 1.4309-.4599 0-1.03108-.4412-1.67163-1.4309z" fill="#7d4dd3" fill-rule="evenodd"/></svg>