<svg viewBox="0 0 68 68" fill="none" xmlns="http://www.w3.org/2000/svg">
<path d="M14.1667 8.5H45.3334L53.8334 19.8333V59.5H14.1667V8.5Z" stroke="#383946" stroke-width="2.83333" stroke-linecap="round" stroke-linejoin="round"/>
<g opacity="0.3">
<mask id="path-2-inside-1_1224_7175" fill="white">
<path fill-rule="evenodd" clip-rule="evenodd" d="M25.5 25.5C24.7176 25.5 24.0833 26.1343 24.0833 26.9167C24.0833 27.6991 24.7176 28.3333 25.5 28.3333H42.5C43.2824 28.3333 43.9166 27.6991 43.9166 26.9167C43.9166 26.1343 43.2824 25.5 42.5 25.5H25.5ZM24.0833 35.4167C24.0833 34.6343 24.7176 34 25.5 34H42.5C43.2824 34 43.9166 34.6343 43.9166 35.4167C43.9166 36.1991 43.2824 36.8333 42.5 36.8333H25.5C24.7176 36.8333 24.0833 36.1991 24.0833 35.4167ZM24.0833 43.9167C24.0833 43.1343 24.7176 42.5 25.5 42.5H42.5C43.2824 42.5 43.9166 43.1343 43.9166 43.9167C43.9166 44.6991 43.2824 45.3333 42.5 45.3333H25.5C24.7176 45.3333 24.0833 44.6991 24.0833 43.9167Z"/>
</mask>
<path d="M26.9166 26.9167C26.9166 27.6991 26.2824 28.3333 25.5 28.3333V22.6667C23.1528 22.6667 21.25 24.5695 21.25 26.9167H26.9166ZM25.5 25.5C26.2824 25.5 26.9166 26.1343 26.9166 26.9167H21.25C21.25 29.2639 23.1528 31.1667 25.5 31.1667V25.5ZM42.5 25.5H25.5V31.1667H42.5V25.5ZM41.0833 26.9167C41.0833 26.1343 41.7176 25.5 42.5 25.5V31.1667C44.8472 31.1667 46.75 29.2639 46.75 26.9167H41.0833ZM42.5 28.3333C41.7176 28.3333 41.0833 27.6991 41.0833 26.9167H46.75C46.75 24.5695 44.8472 22.6667 42.5 22.6667V28.3333ZM25.5 28.3333H42.5V22.6667H25.5V28.3333ZM25.5 31.1667C23.1528 31.1667 21.25 33.0695 21.25 35.4167H26.9166C26.9166 36.1991 26.2824 36.8333 25.5 36.8333V31.1667ZM42.5 31.1667H25.5V36.8333H42.5V31.1667ZM46.75 35.4167C46.75 33.0695 44.8472 31.1667 42.5 31.1667V36.8333C41.7176 36.8333 41.0833 36.1991 41.0833 35.4167H46.75ZM42.5 39.6667C44.8472 39.6667 46.75 37.7639 46.75 35.4167H41.0833C41.0833 34.6343 41.7176 34 42.5 34V39.6667ZM25.5 39.6667H42.5V34H25.5V39.6667ZM21.25 35.4167C21.25 37.7639 23.1528 39.6667 25.5 39.6667V34C26.2824 34 26.9166 34.6343 26.9166 35.4167H21.25ZM25.5 39.6667C23.1528 39.6667 21.25 41.5695 21.25 43.9167H26.9166C26.9166 44.6991 26.2824 45.3333 25.5 45.3333V39.6667ZM42.5 39.6667H25.5V45.3333H42.5V39.6667ZM46.75 43.9167C46.75 41.5695 44.8472 39.6667 42.5 39.6667V45.3333C41.7176 45.3333 41.0833 44.6991 41.0833 43.9167H46.75ZM42.5 48.1667C44.8472 48.1667 46.75 46.2639 46.75 43.9167H41.0833C41.0833 43.1343 41.7176 42.5 42.5 42.5V48.1667ZM25.5 48.1667H42.5V42.5H25.5V48.1667ZM21.25 43.9167C21.25 46.2639 23.1528 48.1667 25.5 48.1667V42.5C26.2824 42.5 26.9166 43.1343 26.9166 43.9167H21.25Z" fill="currentColor" mask="url(#path-2-inside-1_1224_7175)"/>
</g>
</svg>
