<svg viewBox="0 0 28 28" fill="none" xmlns="http://www.w3.org/2000/svg" style="border-radius:8px"><path d="M28 0H0v28h28V0z" fill="url(#paint0_linear)"/><path d="M9.147 23.148a.374.374 0 01-.28-.127L7.56 21.527a.373.373 0 01-.093-.246v-.963l-1.012-1.012a.373.373 0 010-.53l1.012-1.008v-.437L6.455 16.32a.373.373 0 010-.53l1.012-1.008v-.903A4.648 4.648 0 014.48 9.465a4.667 4.667 0 019.333.056 4.64 4.64 0 01-2.986 4.353v7.78a.374.374 0 01-.131.284l-1.307 1.12a.374.374 0 01-.242.09zm-.934-2.009l.971 1.12.896-.776v-7.874a.374.374 0 01.261-.373 3.917 3.917 0 10-2.4 0 .374.374 0 01.272.373v1.325a.373.373 0 01-.108.265l-.855.855.855.855a.373.373 0 01.108.265v.747c0 .098-.039.192-.108.261l-.855.859.855.855a.372.372 0 01.108.265v.978zm.934-11.245a1.68 1.68 0 110-3.36 1.68 1.68 0 010 3.36zm0-2.613a.933.933 0 100 1.867.933.933 0 000-1.867zM22.807 20.535H11.574v-.747h11.2v-8.213H14.56v-.747h8.247a.71.71 0 01.713.698v8.31a.71.71 0 01-.713.699z" fill="#fff"/><path d="M12.88 16.987a1.493 1.493 0 110-2.987 1.493 1.493 0 010 2.987zm0-2.24a.747.747 0 100 1.494.747.747 0 000-1.494zM16.613 16.987a1.493 1.493 0 110-2.987 1.493 1.493 0 010 2.987zm0-2.24a.747.747 0 100 1.494.747.747 0 000-1.494zM14.187 17.92h-2.614v.747h2.614v-.747zM17.92 17.92h-2.613v.747h2.613v-.747zM21.653 17.92H19.04v.747h2.613v-.747z" fill="#fff"/><defs><linearGradient id="paint0_linear" x1="-5.798" y1="33.801" x2="33.8" y2="-5.797" gradientUnits="userSpaceOnUse"><stop stop-color="#BD0816"/><stop offset="1" stop-color="#FF5252"/></linearGradient></defs></svg>