<svg xmlns="http://www.w3.org/2000/svg" viewBox="0 0 75 75"><defs><linearGradient id="RedGradient" x1="-2042.54" y1="1985.47" x2="-1936.47" y2="2091.54" gradientTransform="rotate(-90 -1976.5 24.5)" gradientUnits="userSpaceOnUse"><stop offset="0" stop-color="#bd0816"/><stop offset="1" stop-color="#ff5252"/></linearGradient><style>.cls-2{fill:#fff}</style></defs><g id="Reference"><path id="Red_Gradient" data-name="Red Gradient" fill="url(#RedGradient)" d="M0 0h75v75H0z"/><g id="Icon_Test" data-name="Icon Test"><path class="cls-2" transform="rotate(-45 55.526 55.54)" d="M54.52 47.08h2v16.91h-2z"/><path class="cls-2" transform="rotate(-45 20.124 20.144)" d="M19.13 10.77h2v18.74h-2z"/><path class="cls-2" transform="rotate(-45 20.004 55.054)" d="M15.05 54.05h9.9v2h-9.9z"/><path class="cls-2" transform="rotate(-45 54.995 20.05)" d="M50.05 19.05h9.9v2h-9.9z"/><path class="cls-2" d="M60.46 36.52a22.87 22.87 0 00-4.31-12.44l-1.62 1.18a20.86 20.86 0 013.93 11.26h-2v2h2a20.7 20.7 0 01-3.93 11.32L56.15 51a22.72 22.72 0 004.31-12.5h2v-2zM25.21 20.52a20.77 20.77 0 0111.29-3.93v1.93h2v-1.93a20.77 20.77 0 0111.29 3.93L51 18.9a22.81 22.81 0 00-12.5-4.31v-2.07h-2v2.07A22.81 22.81 0 0024 18.9zM49.79 54.58a20.77 20.77 0 01-11.29 3.93v-2h-2v2a20.77 20.77 0 01-11.29-3.93L24 56.2a22.81 22.81 0 0012.5 4.31v2h2v-2A22.81 22.81 0 0051 56.2zM18.85 51l1.62-1.18a20.7 20.7 0 01-3.93-11.32h2v-2h-2a20.86 20.86 0 013.93-11.26l-1.62-1.18a22.87 22.87 0 00-4.31 12.44h-2v2h2A22.72 22.72 0 0018.85 51zM42.39 24.25a7.5 7.5 0 00-4.89-1.73c-3.86 0-7 2.73-7 6.09v4.91h-2a1 1 0 00-1 1v14a1 1 0 00.29.71 1 1 0 00.71.29h18a1 1 0 001-1v-14a1 1 0 00-.29-.7 1 1 0 00-.71-.3h-2v-4.9a5.71 5.71 0 00-2.11-4.37zm-9.89 4.36c0-2.26 2.25-4.09 5-4.09a5.55 5.55 0 013.6 1.25 3.76 3.76 0 011.41 2.85v4.9h-10zm13 9.91h-3v2h3v2h-3v2h3v3h-16v-12h16z"/><path class="cls-2" d="M36.5 42.76v2.76h2v-2.76a2.93 2.93 0 10-2 0zm1-3.82A1.08 1.08 0 1136.43 40a1.07 1.07 0 011.07-1.06z"/></g></g></svg>