<svg enable-background="new 0 0 14 14" viewBox="0 0 14 14" xmlns="http://www.w3.org/2000/svg" xmlns:xlink="http://www.w3.org/1999/xlink"><linearGradient id="a"><stop offset="0" stop-color="#0052cc"/><stop offset="1" stop-color="#2684ff"/></linearGradient><linearGradient id="b" gradientTransform="matrix(1 0 0 -1 0 16)" gradientUnits="userSpaceOnUse" x1="4.044" x2="4.044" xlink:href="#a" y1="13.9186" y2="5.7746"/><linearGradient id="c" gradientTransform="matrix(1 0 0 -1 0 16)" gradientUnits="userSpaceOnUse" x1="4.0158" x2="4.0158" xlink:href="#a" y1="13.9186" y2="5.7746"/><path d="m12.6 7.9h-2.9c-.2 0-.3.1-.4.3-.2 1.2-1.2 2-2.3 2l.8 3.6c2.8-.4 5-2.7 5.2-5.5 0-.2-.2-.3-.4-.4z" fill="#2684ff"/><path d="m7.6 7.9 4.1-3.6c.2-.1.2-.4 0-.5l-4.1-3.6c-.1-.2-.4-.1-.5 0s-.1.2-.1.3v7.1c0 .2.2.4.4.4.1-.1.2-.1.2-.1z" fill="#2684ff"/><path d="m1.1 8.7c.4 3 2.9 5.2 5.9 5.2v-3.6c-1.3 0-2.4-1.1-2.4-2.4z" fill="url(#b)"/><path d="m1 7.9 3.6.1c0-1.3 1.1-2.4 2.4-2.4l-.8-3.6c-2.9.4-5.1 2.9-5.2 5.9" fill="url(#c)"/></svg>