<svg viewBox="0 0 14 13" xmlns="http://www.w3.org/2000/svg">
<path d="M6.49998 13C4.99622 12.9991 3.53928 12.4769 2.3774 11.5222C1.21552 10.5676 0.420569 9.23964 0.128002 7.76462C-0.164566 6.28959 0.063346 4.75876 0.772906 3.43293C1.48247 2.1071 2.62977 1.06831 4.01935 0.49354C5.40894 -0.0812286 6.95482 -0.156414 8.39362 0.280794C9.83242 0.718001 11.0751 1.64055 11.91 2.89127C12.7449 4.14198 13.1203 5.64347 12.9722 7.13993C12.8242 8.63638 12.1618 10.0352 11.0981 11.0981C10.4947 11.7023 9.77784 12.1814 8.98876 12.5077C8.19968 12.8341 7.35389 13.0014 6.49998 13ZM6.49998 1.2155C5.27743 1.21647 4.09305 1.64129 3.1486 2.41758C2.20415 3.19388 1.55808 4.27362 1.32045 5.47285C1.08283 6.67207 1.26835 7.91659 1.84541 8.99438C2.42248 10.0722 3.35538 10.9165 4.48518 11.3836C5.61498 11.8507 6.87178 11.9116 8.04145 11.5559C9.21112 11.2003 10.2213 10.4501 10.8999 9.43319C11.5785 8.41626 11.8835 7.19551 11.7629 5.97892C11.6424 4.76234 11.1037 3.62518 10.2388 2.7612C9.74816 2.26992 9.16528 1.88046 8.52364 1.6152C7.88201 1.34993 7.19428 1.2141 6.49998 1.2155Z" />
<path d="M10.2395 1.90079L1.90204 10.2383L2.76153 11.0978L11.099 2.76028L10.2395 1.90079Z" />
</svg>
