<svg fill="none" xmlns="http://www.w3.org/2000/svg" viewBox="0 0 28 29"><path d="M26.37 20.97l.011.4a.402.402 0 00.388-.407l-.4.007zm-.006-.3l.4-.011-.4.012zM17.228 1.86l.248-.314a.402.402 0 00-.648.326l.4-.012zm.066 2.705l-.4.011a.398.398 0 00.127.282l.273-.293zm7.07 16.172l.4-.011-.4.011zm.006.3l-.4.007a.398.398 0 00.412.393l-.012-.4zm2.4-.074l-.002-.076-.8.016.002.074.8-.014zm-.005-.228l-.001-.076-.8.023.002.074.8-.021zm-.001-.076c-.004-.167-.01-.333-.017-.5l-.8.039c.008.16.013.322.017.484l.8-.023zm-.078-1.495a26.46 26.46 0 00-.1-.993l-.793.097c.037.32.07.64.095.964l.797-.068zm-.235-1.981c-.052-.33-.11-.658-.173-.983l-.785.158c.062.315.117.632.168.952l.79-.127zm-.384-1.958c-.077-.325-.16-.647-.248-.966l-.771.217c.086.31.166.622.24.936l.779-.187zm-.534-1.922c-.101-.318-.209-.632-.322-.944l-.752.277c.11.301.214.606.312.914l.762-.247zm-.681-1.874a25.289 25.289 0 00-.396-.916l-.728.335c.133.292.261.587.383.886l.74-.305zm-.827-1.815a25.03 25.03 0 00-.467-.881l-.7.391c.157.28.307.565.453.853l.714-.363zm-.968-1.743a24.69 24.69 0 00-.537-.84l-.666.445c.178.267.351.539.52.814l.683-.419zM21.95 6.212c-.196-.27-.398-.534-.604-.794l-.627.498c.199.252.393.508.583.769l.648-.473zm-1.239-1.563c-.217-.253-.44-.5-.667-.742l-.584.549c.22.234.434.473.644.717l.607-.524zm-1.364-1.455a23.48 23.48 0 00-.727-.684l-.537.596c.239.215.473.435.703.66l.561-.572zm-1.483-1.335c-.128-.106-.258-.21-.388-.313l-.498.629c.126.099.251.2.375.302l.51-.618zm-1.037.013l.017.676.8-.023-.017-.677-.8.024zm.05 2.028l.016.676.8-.023-.017-.676-.8.023zm.143.958c.12.112.239.226.357.34l.56-.573c-.122-.12-.246-.237-.37-.354l-.547.587zm1.046 1.047c.224.24.442.487.655.739l.612-.519a21.922 21.922 0 00-.68-.766l-.587.546zm1.276 1.507c.2.26.395.526.584.797l.656-.46c-.196-.281-.398-.557-.606-.827l-.634.49zm1.132 1.62c.175.277.345.56.51.846l.694-.4c-.17-.297-.346-.59-.528-.877l-.676.43zm.98 1.715c.15.293.295.59.433.89l.727-.337a23.107 23.107 0 00-.447-.92l-.712.367zm.825 1.798c.124.304.241.613.352.925l.754-.272a23.355 23.355 0 00-.365-.957l-.741.304zm.663 1.864c.097.314.187.632.27.952l.775-.205c-.087-.332-.18-.66-.28-.985l-.765.238zm.5 1.916c.069.321.132.645.188.973l.788-.14a24.16 24.16 0 00-.194-1.005l-.782.172zm.334 1.953c.042.326.078.654.106.985l.797-.072c-.03-.342-.066-.682-.11-1.019l-.793.105zm.17 1.975c.008.165.014.33.018.496l.8-.023c-.005-.172-.01-.342-.018-.513l-.8.04zm.018.496l.002.074.8-.021-.002-.076-.8.023zm.005.22v.075l.8-.014v-.076l-.8.016zm.412.468l.5-.017-.023-.8-.5.017.023.8zm1.5-.05l.499-.017-.023-.8-.5.017.023.8z" fill="#0B0B0D"/><ellipse rx="2.798" ry="3.031" transform="matrix(.99952 -.03094 .02637 .99965 23.947 19.484)" fill="#fff" stroke="#0B0B0D"/><path d="M9.905 17.642L6.984 21.09l-.449-2.179a2.988 2.988 0 00-1.352-1.946l.018-.027 4.704.704zM13.65 13.132l.012.011-1.89 2.227-5.685-.933 1.883-2.239 5.68.934zM17.312 8.617l.083.067-1.887 2.218-.046-.04L9.81 9.93l1.883-2.24 5.619.926zM20.97 4.104l.15.12-1.883 2.22-.117-.095-5.585-.92 1.883-2.239 5.552.914z" fill="#0B0B0D"/><path d="M17.207 1.013A.994.994 0 0118.602.87l2.395 1.976c.413.34.462.963.108 1.38l-.15-.12-5.551-.933 1.803-2.159zM19.133 6.367l.117.096-1.88 2.22-.083-.067-5.614-.944 1.88-2.243 5.58.938zM15.477 10.883l.045.04-1.88 2.22-.01-.011-5.677-.953L9.83 9.933l5.648.95zM5.195 16.913l-.018.027a2.955 2.955 0 00-.858-.374l1.783-2.13 5.68.952-1.898 2.243-4.69-.718z" fill="#F2C94C"/><path d="M7.184 19.688c.044 1.674-1.173 3.07-2.717 3.117-1.545.048-2.833-1.27-2.877-2.943-.044-1.674 1.172-3.07 2.717-3.117 1.545-.048 2.833 1.27 2.877 2.943z" stroke="#0B0B0D"/></svg>