<svg xmlns="http://www.w3.org/2000/svg" viewBox="0 0 35 27"><path fill-rule="evenodd" clip-rule="evenodd" d="M31.53 22.033C31.011 13.914 27.008 6.743 21 2v2.612c4.854 4.35 8.05 10.511 8.525 17.42h2.004z" fill="#FAFBFC"/><path d="M31.53 22.033v.5h.532L32.028 22l-.499.032zM21 2l.31-.392-.81-.64V2h.5zm0 2.612h-.5v.224l.166.149.334-.373zm8.525 17.42l-.499.035.032.466h.467v-.5zm2.503-.03c-.02-.331-.047-.66-.08-.987l-.995.099c.031.315.057.632.077.95l.998-.063zm-.342-2.946c-.111-.653-.245-1.3-.4-1.937l-.972.237c.15.614.279 1.237.386 1.867l.986-.167zm-.934-3.84a28.054 28.054 0 00-.668-1.862l-.928.37c.234.59.449 1.188.643 1.796l.953-.304zm-1.464-3.671a28.184 28.184 0 00-.921-1.75l-.868.497c.315.55.611 1.113.888 1.687l.901-.434zm-1.963-3.43A28.331 28.331 0 0026.17 6.51l-.79.612c.388.502.76 1.019 1.114 1.548l.831-.556zm-2.42-3.124c-.44-.492-.895-.968-1.367-1.428l-.698.716c.455.444.895.904 1.319 1.378l.746-.666zm-2.83-2.757a28.493 28.493 0 00-.765-.626l-.62.784c.25.198.496.399.739.604l.646-.762zM20.5 2v.653h1V2h-1zm0 1.96v.652h1V3.96h-1zm.166 1.025c.242.217.48.438.714.664l.695-.718c-.242-.235-.49-.465-.741-.69l-.668.744zm2.062 2.073c.431.486.843.989 1.236 1.507l.797-.604a26.44 26.44 0 00-1.284-1.566l-.749.663zm2.353 3.105c.351.546.682 1.106.991 1.68l.88-.475a26.23 26.23 0 00-1.03-1.746l-.84.541zm1.849 3.43c.262.592.503 1.196.72 1.811l.943-.333a26.112 26.112 0 00-.749-1.883l-.914.405zm1.297 3.673c.167.624.311 1.258.43 1.9l.984-.182a26.124 26.124 0 00-.448-1.977l-.966.259zm.713 3.83c.035.322.064.646.086.971l.998-.068a26.628 26.628 0 00-.09-1.01l-.994.107zm.585 1.437h.501v-1h-.501v1zm1.503 0h.501v-1h-.5v1z" fill="#25A6F7"/><path d="M9.056 21.594l-3.99 4.016-.369-2.834a3.977 3.977 0 00-1.525-2.654l.024-.032 5.86 1.504zM14.237 16.353l.013.015-2.59 2.607-7.09-1.927 2.582-2.623 7.085 1.928zM19.317 11.083l.099.097-2.586 2.594-.053-.056-7.05-1.921 2.582-2.623 7.008 1.909zM24.395 5.813l.178.173-2.579 2.6-.139-.138L14.89 6.55l2.581-2.623 6.924 1.885z" fill="#0B0B0D"/><path d="M20.122 1.231a1 1 0 011.417-.01l3.204 3.175a1 1 0 01.005 1.415l-.175.177-.178-.173L17.47 3.93l2.651-2.699zM21.852 8.451l.139.138-2.58 2.593-.099-.096-7.007-1.91 2.581-2.622 6.966 1.897zM16.776 13.72l.053.057-2.579 2.594-.014-.016-7.084-1.928L9.727 11.8l7.05 1.92zM3.192 20.091l-.025.032a3.85 3.85 0 00-1.05-.584l2.45-2.49 7.09 1.927-2.605 2.62-5.86-1.505z" fill="#F2C94C"/><path d="M7.5 22.896c0 1.863-1.554 3.395-3.5 3.395S.5 24.76.5 22.896 2.054 19.5 4 19.5s3.5 1.533 3.5 3.396zM34.5 22.896c0 1.863-1.554 3.395-3.5 3.395-1.945 0-3.5-1.532-3.5-3.395S29.055 19.5 31 19.5c1.946 0 3.5 1.533 3.5 3.396z" fill="#fff" stroke="#25A6F7"/></svg>