<svg fill="none" xmlns="http://www.w3.org/2000/svg" viewBox="0 0 35 35"><path d="M8.327 20.29l-5.661-.04 1.767-2.246c.685-.871.95-1.928.828-2.947l.04-.005 3.026 5.239zM15.697 20.323l-.002.02-3.674-.025-3.586-6.413 3.68.008 3.582 6.41zM23.015 20.264v.139l-3.662-.031.003-.078-3.561-6.38 3.68.009 3.54 6.341zM30.334 20.204l.001.248-3.661-.023.001-.195-3.52-6.304 3.68.01 3.5 6.264z" fill="#0B0B0D"/><path d="M30.617 13.945a1 1 0 01.998 1.006l-.025 4.51a1 1 0 01-1.008.994l-.248-.002-.001-.248-3.499-6.265 3.783.005zM26.67 20.233l-.001.196-3.658-.028v-.138l-3.54-6.342 3.68.009 3.52 6.303zM19.353 20.295l-.003.078-3.658-.028.002-.02-3.581-6.41h3.68l3.56 6.38zM5.297 15.05l-.04.005a3.85 3.85 0 00-.317-1.16l3.492.008 3.586 6.413-3.695-.027-3.026-5.24z" fill="#F2C94C"/><path d="M7.5 17.896c0 1.863-1.554 3.395-3.5 3.395S.5 19.76.5 17.896 2.054 14.5 4 14.5s3.5 1.533 3.5 3.396zM34.5 17.896c0 1.863-1.554 3.395-3.5 3.395-1.945 0-3.5-1.532-3.5-3.395S29.055 14.5 31 14.5c1.946 0 3.5 1.533 3.5 3.396z" fill="#fff" stroke="#25A6F7"/></svg>