<svg xmlns="http://www.w3.org/2000/svg" viewBox="0 0 34 34"><path d="M7.403 19.548l-5.661.054 1.729-2.275c.67-.883.917-1.944.778-2.961l.04-.005 3.114 5.187zm7.369-.092l-.001.02-3.674.037-3.693-6.353 3.68-.053 3.688 6.349zm7.317-.183l.003.139-3.663.03.002-.077-3.669-6.32 3.68-.053 3.647 6.281zm7.316-.183l.006.248-3.662.039-.002-.195-3.625-6.244 3.68-.053 3.603 6.205z" fill="#0B0B0D"/><path d="M29.582 12.827a1 1 0 011.016.989l.05 4.51a1 1 0 01-.99 1.01l-.249.003-.005-.248-3.604-6.206 3.782-.058zm-3.84 6.353l.002.196-3.657.034-.003-.138-3.647-6.28 3.68-.054 3.625 6.243zm-7.314.186l-.001.078-3.658.034v-.02l-3.688-6.35 3.679-.061 3.668 6.319zM4.285 14.358l-.04.006a3.851 3.851 0 00-.337-1.153l3.493-.053 3.693 6.352-3.695.035-3.114-5.187z" fill="#F2C94C"/></svg>