<svg viewBox="0 0 33 26" xmlns="http://www.w3.org/2000/svg"><path fill-rule="evenodd" clip-rule="evenodd" d="M20.403 3.879a2.917 2.917 0 0 1 2.796-.054l8.825 4.604c.413.216.671.643.671 1.109v8.659a2.917 2.917 0 0 1-1.481 2.539L22.429 25.7a1.25 1.25 0 0 1-1.273-.025L13.15 20.72a2.917 2.917 0 0 1-1.381-2.48V9.538c0-.449.24-.863.63-1.086l8.003-4.573Zm1.64 2.163a.417.417 0 0 0-.4.008L15.54 9.538l6.302 3.6 6.902-3.6-6.7-3.496Zm8.152 5.558-7.131 3.72v7.15l6.92-3.91a.417.417 0 0 0 .211-.363V11.6Zm-9.631 10.77v-7.082l-6.294-3.596v6.549c0 .144.075.278.197.354l6.097 3.774ZM1.09 4.422a1.25 1.25 0 0 1 1.705-.465l6.21 3.548a1.25 1.25 0 1 1-1.24 2.171l-6.21-3.548a1.25 1.25 0 0 1-.465-1.706ZM5.725.874A1.25 1.25 0 0 1 7.43.409l6.21 3.548a1.25 1.25 0 1 1-1.24 2.17L6.19 2.58A1.25 1.25 0 0 1 5.725.874Z" fill="currentColor"/><path fill-rule="evenodd" clip-rule="evenodd" d="M6.688 15.626a1.25 1.25 0 0 1 1.706-.465l6.21 3.548a1.25 1.25 0 0 1-1.241 2.17l-6.21-3.548a1.25 1.25 0 0 1-.465-1.705Z" fill="currentColor"/></svg>