<svg fill="none" xmlns="http://www.w3.org/2000/svg" viewBox="0 0 22 22"><g opacity=".6"><mask id="a" fill="#fff"><path fill-rule="evenodd" clip-rule="evenodd" d="M8.666 4.583a.5.5 0 01.5-.5h3.667a.5.5 0 01.5.5V5h2.25a.5.5 0 01.5.5v1.833a.5.5 0 01-.5.5H6.417a.5.5 0 01-.5-.5V5.5a.5.5 0 01.5-.5h2.25v-.417zm1 .5V5.5a.5.5 0 01-.5.5h-2.25v.833h8.167V6h-2.25a.5.5 0 01-.5-.5v-.417H9.666zm-3.75 4.083a.5.5 0 01.5-.5h9.167a.5.5 0 01.5.5v8.25a.5.5 0 01-.5.5H6.417a.5.5 0 01-.5-.5v-8.25zm1 .5v7.25h8.167v-7.25H6.916z"/></mask><path d="M13.333 5h-1a1 1 0 001 1V5zM8.666 5v1a1 1 0 001-1h-1zm1 .083v-1a1 1 0 00-1 1h1zM6.916 6V5a1 1 0 00-1 1h1zm0 .833h-1a1 1 0 001 1v-1zm8.167 0v1a1 1 0 001-1h-1zm0-.833h1a1 1 0 00-1-1v1zm-2.75-.917h1a1 1 0 00-1-1v1zM6.916 16.916h-1a1 1 0 001 1v-1zm0-7.25v-1a1 1 0 00-1 1h1zm8.167 7.25v1a1 1 0 001-1h-1zm0-7.25h1a1 1 0 00-1-1v1zM9.166 3.083a1.5 1.5 0 00-1.5 1.5h2a.5.5 0 01-.5.5v-2zm3.667 0H9.166v2h3.667v-2zm1.5 1.5a1.5 1.5 0 00-1.5-1.5v2a.5.5 0 01-.5-.5h2zm0 .417v-.417h-2V5h2zm1.25-1h-2.25v2h2.25V4zm1.5 1.5a1.5 1.5 0 00-1.5-1.5v2a.5.5 0 01-.5-.5h2zm0 1.833V5.5h-2v1.833h2zm-1.5 1.5a1.5 1.5 0 001.5-1.5h-2a.5.5 0 01.5-.5v2zm-9.166 0h9.166v-2H6.417v2zm-1.5-1.5a1.5 1.5 0 001.5 1.5v-2a.5.5 0 01.5.5h-2zm0-1.833v1.833h2V5.5h-2zm1.5-1.5a1.5 1.5 0 00-1.5 1.5h2a.5.5 0 01-.5.5V4zm2.25 0h-2.25v2h2.25V4zm-1 .583V5h2v-.417h-2zm3 .917v-.417h-2V5.5h2zM9.166 7a1.5 1.5 0 001.5-1.5h-2a.5.5 0 01.5-.5v2zm-2.25 0h2.25V5h-2.25v2zm1-.167V6h-2v.833h2zm7.166-1H6.917v2h8.166v-2zm-1 .167v.833h2V6h-2zm-1.25 1h2.25V5h-2.25v2zm-1.5-1.5a1.5 1.5 0 001.5 1.5V5a.5.5 0 01.5.5h-2zm0-.417V5.5h2v-.417h-2zm-1.667 1h2.667v-2H9.666v2zm-3.25 1.583a1.5 1.5 0 00-1.5 1.5h2a.5.5 0 01-.5.5v-2zm9.167 0H6.416v2h9.167v-2zm1.5 1.5a1.5 1.5 0 00-1.5-1.5v2a.5.5 0 01-.5-.5h2zm0 8.25v-8.25h-2v8.25h2zm-1.5 1.5a1.5 1.5 0 001.5-1.5h-2a.5.5 0 01.5-.5v2zm-9.166 0h9.166v-2H6.417v2zm-1.5-1.5a1.5 1.5 0 001.5 1.5v-2a.5.5 0 01.5.5h-2zm0-8.25v8.25h2v-8.25h-2zm3 7.75v-7.25h-2v7.25h2zm7.166-1H6.917v2h8.166v-2zm-1-6.25v7.25h2v-7.25h-2zm-7.167 1h8.167v-2H6.916v2z" fill="currentColor" mask="url(#a)"/><g opacity=".3"><mask id="b" fill="#fff"><path fill-rule="evenodd" clip-rule="evenodd" d="M9.625 10.755a.5.5 0 01.5.5v4.062a.5.5 0 01-1 0v-4.062a.5.5 0 01.5-.5zm2.75 0a.5.5 0 01.5.5v4.062a.5.5 0 01-1 0v-4.062a.5.5 0 01.5-.5z"/></mask><path d="M11.125 11.255a1.5 1.5 0 00-1.5-1.5v2a.5.5 0 01-.5-.5h2zm0 4.062v-4.062h-2v4.062h2zm-1.5 1.5a1.5 1.5 0 001.5-1.5h-2a.5.5 0 01.5-.5v2zm-1.5-1.5a1.5 1.5 0 001.5 1.5v-2a.5.5 0 01.5.5h-2zm0-4.062v4.062h2v-4.062h-2zm1.5-1.5a1.5 1.5 0 00-1.5 1.5h2a.5.5 0 01-.5.5v-2zm4.25 1.5a1.5 1.5 0 00-1.5-1.5v2a.5.5 0 01-.5-.5h2zm0 4.062v-4.062h-2v4.062h2zm-1.5 1.5a1.5 1.5 0 001.5-1.5h-2a.5.5 0 01.5-.5v2zm-1.5-1.5a1.5 1.5 0 001.5 1.5v-2a.5.5 0 01.5.5h-2zm0-4.062v4.062h2v-4.062h-2zm1.5-1.5a1.5 1.5 0 00-1.5 1.5h2a.5.5 0 01-.5.5v-2z" fill="currentColor" mask="url(#b)"/></g></g></svg>