<svg width="24" height="24" xmlns="http://www.w3.org/2000/svg"><defs><linearGradient x1="108.633%" y1="13.408%" x2="46.927%" y2="79.102%" id="b"><stop stop-color="#0052CC" offset="18%"/><stop stop-color="#2684FF" offset="100%"/></linearGradient><filter id="a"><feColorMatrix in="SourceGraphic" values="0 0 0 0 0.157377 0 0 0 0 0.161311 0 0 0 0 0.240000 0 0 0 1.000000 0"/></filter></defs><g transform="translate(2 3)" filter="url(#a)" fill="none" fill-rule="evenodd"><path d="M8.305 12.59h4.383l1.058-6.211H7.14z"/><path d="M.681.008a.671.671 0 00-.518.235.68.68 0 00-.154.55l2.855 17.432c.074.44.45.764.895.768h13.698a.674.674 0 00.673-.568L20.985.797a.68.68 0 00-.154-.55.671.671 0 00-.519-.235L.682.008zm12.024 12.6H8.333l-1.184-6.22h6.615l-1.06 6.22z" fill="#2684FF" fill-rule="nonzero"/><path d="M20.06 6.379h-6.308l-1.059 6.215H8.325L3.166 18.75a.908.908 0 00.588.223h13.691a.673.673 0 00.672-.568L20.06 6.38z" fill="url(#b)" fill-rule="nonzero"/></g></svg>