<svg height="58" width="46" xmlns="http://www.w3.org/2000/svg"><path d="M33.878 15C40.538 19.494 45 27.942 45 37.707 45 52.147 35.161 57 23 57S1 52.147 1 37.707C1 27.942 5.461 19.494 12.122 15c3.545.539 7.211.838 10.878.838s7.333-.3 10.878-.838zm-9.228 7.56h-2.458c-.48 0-.84.362-.84.846v2.174c-3.176.604-5.394 3.503-5.094 6.825.3 3.202 3.177 5.679 6.534 5.679h1.618c.6 0 1.139.241 1.558.664.42.423.6 1.027.54 1.631-.12 1.027-1.079 1.872-2.218 1.872h-2.158c-.66 0-1.199-.483-1.319-1.087-.12-.362-.42-.664-.839-.664h-2.517c-.24 0-.48.12-.66.302-.18.181-.24.423-.24.664.24 2.597 2.278 4.652 4.796 4.954v2.174c0 .484.36.846.84.846h2.457c.48 0 .839-.362.839-.846v-2.235c2.757-.604 4.855-2.839 5.095-5.436a6.337 6.337 0 00-1.618-4.893c-1.2-1.268-2.938-2.054-4.676-2.054h-1.858c-.6 0-1.139-.302-1.559-.724-.42-.423-.599-1.027-.54-1.631.12-1.028 1.08-1.873 2.219-1.873h2.158c.659 0 1.199.483 1.318 1.087.06.362.42.664.84.664h2.517c.24 0 .48-.12.66-.302.18-.18.24-.422.24-.664-.24-2.597-2.219-4.65-4.796-4.953v-2.174a.823.823 0 00-.84-.846zm7.376-21.481c1.754-.418 3.383.888 2.882 2.35l-2.382 6.997A77.581 77.581 0 0123 11c-3.384 0-6.58-.209-9.526-.574L11.092 3.48c-.501-1.462 1.128-2.82 2.883-2.35 5.891 1.514 12.159 1.514 18.05-.052z" fill="#fff2d1" fill-rule="evenodd" stroke="#ffdf87"/></svg>