<svg fill="none" xmlns="http://www.w3.org/2000/svg" viewBox="0 0 124 76"><path d="M105.253 70.328l-21.695-3.732V46.563l21.695 2.704 8.113-4.807 9.241-3.605-6.856 5.708v18.328l-10.498 5.437z" fill="#fff"/><path fill-rule="evenodd" clip-rule="evenodd" d="M108.772 43.445c.16.038.258.199.218.36h0l-1.673 6.74a957.6 957.6 0 01-1.585 6.39.304.304 0 01-.364.22.295.295 0 01-.218-.358v-.002l1.585-6.387.016-.063.015-.062c.575-2.34 1.155-4.698 1.642-6.618a.304.304 0 01.364-.22zm-4.962-1.111a.295.295 0 01.206.367l-1.713 5.992a.304.304 0 01-.371.21.295.295 0 01-.206-.367l1.713-5.993a.304.304 0 01.371-.21zm2.876.695a.295.295 0 01.206.367l-1.662 5.852a.304.304 0 01-.371.21.294.294 0 01-.206-.367l1.662-5.852a.304.304 0 01.371-.21zm3.371 2.924c.161.04.258.2.218.36a957.927 957.927 0 01-2.156 8.206l-.022.083c-.824 3.106-1.641 6.182-2.106 8.015a.303.303 0 01-.364.22.296.296 0 01-.218-.36c.466-1.836 1.284-4.915 2.107-8.018l.023-.087c.832-3.134 1.668-6.282 2.154-8.199a.303.303 0 01.364-.22zM115.621 42.608a.295.295 0 01.224.356l-6.12 26.337a.304.304 0 01-.36.227.295.295 0 01-.225-.356l6.121-26.337a.303.303 0 01.36-.227zm-2.997 1.445a.294.294 0 01.222.357l-6.425 26.982a.303.303 0 01-.361.226.296.296 0 01-.223-.358l6.426-26.982c.038-.16.2-.262.361-.225zm2.569 11.515a.295.295 0 01.223.356l-2.57 10.87a.303.303 0 01-.361.225.295.295 0 01-.223-.357l2.571-10.869a.303.303 0 01.36-.225zM89.497 35.986c.16.039.258.2.217.36l-2.324 9.132a.303.303 0 01-.364.22.295.295 0 01-.217-.36l2.324-9.133a.303.303 0 01.364-.22zm2.142 1.19c.16.038.257.2.217.36-.338 1.33-.602 2.355-.864 3.37l-.005.02a1.356 1.356 0 00-.005.02l-.84 3.278h0a.303.303 0 01-.364.22.295.295 0 01-.217-.36c.325-1.28.582-2.279.84-3.28l.873-3.41h0a.303.303 0 01.365-.219zm2.141 1.253c.161.039.258.2.218.36l-1.061 4.18a.303.303 0 01-.365.22.295.295 0 01-.217-.36l1.061-4.18a.303.303 0 01.364-.22zM87.442 34.667c.16.038.258.2.217.36l-2.864 11.287a.303.303 0 01-.364.22.295.295 0 01-.217-.36l2.864-11.288a.303.303 0 01.364-.22zm-2.66.835c.16.037.26.195.222.355l-1.048 4.556c-.337 1.537-.674 3.069-1.01 4.389a.304.304 0 01-.36.22.295.295 0 01-.222-.354l1.007-4.38.007-.032.006-.028c.343-1.558.689-3.131 1.037-4.505a.303.303 0 01.361-.221zm-2.568 1.255c.161.038.259.199.22.359l-1.562 6.27a.303.303 0 01-.363.222.295.295 0 01-.22-.36l1.562-6.27c.04-.16.203-.26.363-.221zm-2.133.838c.16.042.253.206.208.365l-1.285 4.599a.303.303 0 01-.37.21.295.295 0 01-.208-.365l1.285-4.598a.303.303 0 01.37-.211zm-2.13.421c.158.05.244.217.193.374l-.95 2.927a.303.303 0 01-.379.195.295.295 0 01-.192-.374l.95-2.926a.303.303 0 01.378-.196z" fill="#000" stroke="#000" stroke-width=".25" stroke-linecap="round" stroke-linejoin="round"/><path fill-rule="evenodd" clip-rule="evenodd" d="M91.21 43.02c.162.038.259.2.218.36l-.85 3.352a.303.303 0 01-.365.22.295.295 0 01-.217-.36l.85-3.353a.303.303 0 01.365-.22zm-3.706 1.68c.16.038.258.2.217.36l-.424 1.672a.303.303 0 01-.365.22.295.295 0 01-.217-.36l.425-1.673a.303.303 0 01.364-.22zM97.706 40.937c.16.04.258.2.218.36l-1.592 6.271a.303.303 0 01-.364.22.295.295 0 01-.217-.36l1.591-6.27a.303.303 0 01.364-.22zm2.963 1.254c.16.04.257.2.217.36l-1.485 5.853a.303.303 0 01-.365.22.295.295 0 01-.217-.36l1.485-5.853a.304.304 0 01.365-.22zm-6.03-.476c.16.04.257.2.217.36l-1.394 5.493a.303.303 0 01-.365.22.295.295 0 01-.217-.36l1.394-5.493a.303.303 0 01.364-.22zM84.58 45.012a.3.3 0 01.298.3V67.05a.3.3 0 01-.298.3.3.3 0 01-.298-.3V45.312a.3.3 0 01.298-.3z" fill="#000" stroke="#000" stroke-width=".25" stroke-linecap="round" stroke-linejoin="round"/><path fill-rule="evenodd" clip-rule="evenodd" d="M83.43 66.163a.302.302 0 01.347-.244l23.988 4.18a.296.296 0 01.239.347.302.302 0 01-.347.244l-23.988-4.18a.296.296 0 01-.24-.347zM83.428 46.102a.302.302 0 01.344-.25l26.558 4.18a.297.297 0 01.245.343.302.302 0 01-.343.25l-26.558-4.18a.296.296 0 01-.246-.343zM94.137 41.51a.302.302 0 01.337-.258c4.21.567 8.18 1.289 12.03 1.989 2.164.393 4.29.78 6.398 1.128a.297.297 0 01.243.344.301.301 0 01-.345.248c-2.127-.351-4.262-.74-6.429-1.134-3.839-.698-7.783-1.415-11.981-1.98a.297.297 0 01-.253-.337zm21.418 3.34a.302.302 0 01.342-.253c.402.061.579.158.741.247l.006.004c.118.065.227.125.533.167a.297.297 0 01.253.337.301.301 0 01-.337.257c-.403-.054-.581-.147-.746-.238l-.012-.007a1.326 1.326 0 00-.532-.173.297.297 0 01-.248-.342z" fill="#000" stroke="#000" stroke-width=".25" stroke-linecap="round" stroke-linejoin="round"/><path fill-rule="evenodd" clip-rule="evenodd" d="M104.874 70.947a.292.292 0 01.125-.4c2.249-1.137 4.452-2.358 6.599-3.552l.186-.104c2.08-1.157 4.108-2.284 6.066-3.275a.307.307 0 01.407.13.292.292 0 01-.126.4c-1.947.985-3.966 2.108-6.049 3.266l-.183.102c-2.145 1.193-4.358 2.42-6.618 3.563a.306.306 0 01-.407-.13zM104.872 50.52a.292.292 0 01.13-.398l11.994-5.913a.307.307 0 01.406.135.292.292 0 01-.13.398l-11.994 5.913a.307.307 0 01-.406-.134zM81.735 47.751a.293.293 0 01.154-.39l15.42-6.504a.306.306 0 01.397.158.293.293 0 01-.153.39L82.132 47.91a.306.306 0 01-.397-.158z" fill="#000" stroke="#000" stroke-width=".25" stroke-linecap="round" stroke-linejoin="round"/><path fill-rule="evenodd" clip-rule="evenodd" d="M105.997 50.028c.165 0 .298.135.298.3v20.067c0 .166-.133.3-.298.3a.3.3 0 01-.298-.3V50.329a.3.3 0 01.298-.3zM115.422 45.012a.3.3 0 01.298.3v20.902a.3.3 0 01-.298.3.299.299 0 01-.298-.3V45.312c0-.166.133-.3.298-.3zM75.437 40.244a.297.297 0 01.41-.1c2.562 1.575 5.029 3.283 7.489 4.986.827.572 1.653 1.144 2.482 1.71.136.093.172.28.08.417a.297.297 0 01-.415.08c-.835-.57-1.666-1.145-2.495-1.72-2.457-1.7-4.904-3.394-7.452-4.96a.302.302 0 01-.1-.413zM86.04 34.283a.297.297 0 01.412-.094c2.128 1.348 4.746 3.193 7.192 4.918 1.333.94 2.615 1.844 3.74 2.612.136.093.171.28.079.417a.297.297 0 01-.414.08c-1.141-.779-2.432-1.69-3.768-2.632-2.438-1.718-5.029-3.545-7.146-4.887a.302.302 0 01-.094-.414z" fill="#000" stroke="#000" stroke-width=".25" stroke-linecap="round" stroke-linejoin="round"/><path fill-rule="evenodd" clip-rule="evenodd" d="M89.14 34.33a.301.301 0 01-.165.392c-5.136 2.088-8.988 3.759-14.554 6.266a.297.297 0 01-.394-.152.301.301 0 01.15-.397c5.572-2.509 9.43-4.183 14.575-6.275a.297.297 0 01.388.167zM112.236 45.136a.303.303 0 01-.066.42c-1.468 1.073-3.005 2.304-4.581 3.566-.642.513-1.29 1.032-1.943 1.548a.296.296 0 01-.418-.052.302.302 0 01.05-.421c.646-.51 1.29-1.026 1.929-1.537 1.581-1.266 3.134-2.509 4.612-3.59a.297.297 0 01.417.066zM122.504 40.104a.302.302 0 01-.039.423c-2.414 2.019-4.281 3.234-5.968 4.331-.42.274-.829.54-1.233.809a.297.297 0 01-.413-.084.302.302 0 01.084-.417c.411-.274.824-.543 1.247-.818 1.685-1.096 3.519-2.29 5.902-4.284a.297.297 0 01.42.04z" fill="#000" stroke="#000" stroke-width=".25" stroke-linecap="round" stroke-linejoin="round"/><path fill-rule="evenodd" clip-rule="evenodd" d="M122.979 40.288a.3.3 0 01-.165.39c-2.022.823-3.904 1.713-5.786 2.62l-.761.366c-1.629.787-3.272 1.58-5.011 2.342a.3.3 0 01-.238-.551c1.729-.757 3.361-1.545 4.991-2.332l.762-.368c1.883-.907 3.78-1.804 5.82-2.634a.297.297 0 01.388.167z" fill="#000" stroke="#000" stroke-width=".25" stroke-linecap="round" stroke-linejoin="round"/><path d="M110.683 47.164c-4.173 3.906-8.644 1.202-12.22 1.202-3.876-.601-11.03-1.202-11.03-2.103 0-6.306 3.882-9.343 9.539-9.615 6.259-.3 13.711 4.21 13.711 10.516z" fill="url(#paint0_linear)"/><path fill-rule="evenodd" clip-rule="evenodd" d="M110.613 45.696c.024.199.041.4.053.601-.926.149-1.826.308-2.721.466l-.055.01h0c-1.45.256-2.89.511-4.398.715a.316.316 0 01-.348-.257.282.282 0 01.24-.336c1.496-.202 2.926-.455 4.379-.712l.05-.009a167.74 167.74 0 012.8-.478zm-.549-2.3c.073.2.14.403.2.607l-1.908.333c-1.487.288-2.975.576-4.408.77a.317.317 0 01-.348-.251.283.283 0 01.228-.34l4.392-.767.029-.005.023-.005c.595-.115 1.194-.231 1.792-.341zm-1.115-2.226c.119.184.233.371.342.561l-3.958.536a.317.317 0 01-.349-.257.283.283 0 01.241-.336l3.724-.504zm-1.569-1.937c.177.178.349.361.514.55-.724.12-1.455.234-2.204.335a.317.317 0 01-.348-.253.284.284 0 01.232-.339l1.806-.293zm-.19 11.251c1.199.188 2.074.123 2.648-.415a.302.302 0 00-.142-.013c-.827.12-1.665.268-2.506.428zm-4.437-1.061l6.938-1a.283.283 0 00.237-.339.316.316 0 00-.351-.254l-8.386 1.21c.546.127 1.066.257 1.562.383z" fill="#000" stroke="#000" stroke-width=".25" stroke-linecap="round" stroke-linejoin="round"/><path fill-rule="evenodd" clip-rule="evenodd" d="M110.311 48.185a.3.3 0 01-.271-.325 6.058 6.058 0 000-1.078l-.001-.028c0-1.474-.509-3.309-1.483-4.982-.972-1.671-2.394-3.155-4.199-3.956-2.606-1.157-5.816-1.559-8.766-.724-2.936.83-5.632 2.89-7.237 6.691a12.592 12.592 0 00-.444 2.976.299.299 0 01-.307.29.3.3 0 01-.288-.31 13.183 13.183 0 01.483-3.174c1.676-3.982 4.52-6.17 7.631-7.051 3.102-.878 6.454-.453 9.169.752 1.946.864 3.453 2.45 4.473 4.202 1.015 1.744 1.561 3.677 1.564 5.271.034.375.033.768-.001 1.172a.3.3 0 01-.323.274z" fill="#000" stroke="#000" stroke-width=".25" stroke-linecap="round" stroke-linejoin="round"/><path fill-rule="evenodd" clip-rule="evenodd" d="M83.265 45.916a.302.302 0 01.343-.25l26.558 4.18c.163.026.273.179.246.343a.302.302 0 01-.344.25l-26.558-4.18a.297.297 0 01-.245-.343z" fill="#000" stroke="#000" stroke-width=".25" stroke-linecap="round" stroke-linejoin="round"/><path fill-rule="evenodd" clip-rule="evenodd" d="M52.733 5.482c2.726-.359 5.353.344 7.552 2.371.118.109.231.218.34.33a11.365 11.365 0 012.49 2.364c.078.101.05.266-.061.368-.112.102-.265.103-.344.001a10.565 10.565 0 00-.623-.737c.785 1.518 1.067 3.261 1.045 5.325-.019 1.782-.678 3.737-1.676 5.537-.998 1.802-2.347 3.468-3.77 4.675a.325.325 0 01-.027.02c-3.588 2.443-6.892 2.803-9.584 1.945-2.685-.855-4.751-2.917-5.9-5.3-.822-1.706-.9-3.787-.54-5.757.358-1.962 1.157-3.84 2.125-5.16 1.411-2.265 4.555-4.42 7.977-5.269 1.537-.381 3.372-.3 5.184.221-1.342-.485-2.764-.608-4.213-.417-2.601.342-5.306 1.697-7.804 3.816-.115.097-.268.09-.341-.015-.073-.106-.04-.271.075-.369 2.567-2.177 5.373-3.59 8.095-3.949zm7.544 3.13a12.117 12.117 0 00-2.852-1.463c-1.987-.707-4.026-.852-5.659-.447-3.33.826-6.32 2.914-7.615 5.002a.357.357 0 01-.014.021c-.904 1.229-1.673 3.018-2.019 4.909-.345 1.89-.263 3.855.505 5.45 1.108 2.298 3.098 4.278 5.666 5.096 2.557.815 5.698.483 9.144-1.858 1.355-1.152 2.648-2.75 3.608-4.481.964-1.739 1.58-3.593 1.598-5.252.03-2.922-.56-5.13-2.362-6.977z" fill="#B0B1C4" stroke="#B0B1C4" stroke-width=".25" stroke-linecap="round" stroke-linejoin="round" opacity=".6"/><path fill-rule="evenodd" clip-rule="evenodd" d="M57.608 3.852c1.984-1.741 4.516-2.646 7.49-2.345.158.016.314.035.468.058 1.128-.024 2.28.097 3.406.393.123.032.2.168.17.304-.03.135-.153.219-.276.186-.312-.082-.625-.15-.94-.204 1.533.691 2.792 1.822 3.998 3.353 1.04 1.323 1.669 3.119 1.932 4.984.263 1.867.164 3.824-.267 5.484a.268.268 0 01-.01.03c-1.443 3.741-3.89 5.796-6.567 6.623-2.67.824-5.556.425-7.893-.708-1.673-.81-2.97-2.3-3.847-3.944-.875-1.64-1.344-3.455-1.346-4.95-.206-2.432 1.05-5.722 3.303-8.2 1.012-1.113 2.538-2.048 4.307-2.645a9.078 9.078 0 00-3.642 1.975c-1.892 1.66-3.268 4.123-4.024 7.036-.035.134-.162.211-.284.173-.121-.038-.192-.178-.157-.312.777-2.993 2.2-5.553 4.18-7.291zM65.54 2.07a13.163 13.163 0 00-3.164.468c-2.02.555-3.748 1.553-4.823 2.735-2.193 2.413-3.364 5.568-3.17 7.807l.001.024c0 1.394.44 3.127 1.283 4.707.842 1.577 2.073 2.98 3.637 3.738 2.253 1.092 5.03 1.471 7.584.683 2.542-.785 4.875-2.73 6.264-6.32.408-1.582.504-3.459.25-5.253-.254-1.802-.856-3.5-1.825-4.732C69.87 3.76 68.086 2.453 65.54 2.07z" fill="#B0B1C4" stroke="#B0B1C4" stroke-width=".25" stroke-linecap="round" stroke-linejoin="round" opacity=".5"/><path fill-rule="evenodd" clip-rule="evenodd" d="M68.55 14.457c.108-2.747 1.245-5.218 3.615-7.042a9.62 9.62 0 01.382-.28 11.366 11.366 0 012.751-2.053c.114-.06.272-.005.353.122.082.127.056.279-.057.339-.286.151-.564.315-.832.49 1.629-.518 3.394-.5 5.425-.13 1.753.32 3.569 1.3 5.174 2.588 1.607 1.289 3.02 2.9 3.97 4.507l.015.03c1.8 3.95 1.597 7.266.296 9.775-1.297 2.502-3.678 4.19-6.222 4.918-1.82.522-3.884.248-5.765-.44-1.874-.686-3.59-1.79-4.726-2.968-1.994-1.774-3.586-5.237-3.844-8.753-.116-1.58.274-3.375 1.095-5.072-.705 1.24-1.067 2.62-1.124 4.082-.103 2.62.775 5.516 2.44 8.337.077.13.045.279-.072.333-.117.054-.273-.007-.35-.137-1.712-2.898-2.63-5.902-2.523-8.646zm4.361-6.906a12.116 12.116 0 00-1.924 2.563c-1.033 1.84-1.52 3.824-1.398 5.502.252 3.423 1.804 6.722 3.642 8.352a.404.404 0 01.019.018c1.058 1.098 2.691 2.159 4.496 2.82 1.804.66 3.756.91 5.457.423 2.452-.703 4.74-2.33 5.981-4.722 1.236-2.382 1.44-5.534-.285-9.327-.906-1.53-2.261-3.075-3.806-4.314-1.55-1.243-3.273-2.164-4.906-2.462-2.874-.525-5.151-.316-7.276 1.147z" fill="#B0B1C4" stroke="#B0B1C4" stroke-width=".25" stroke-linecap="round" stroke-linejoin="round" opacity=".3"/><path fill-rule="evenodd" clip-rule="evenodd" d="M27.026 48.54c2.367-1.643 5.017-2.163 7.744-1.14.146.055.289.113.428.174a9.638 9.638 0 013.11 1.23c.108.066.142.245.075.401-.066.156-.206.228-.314.162a9.085 9.085 0 00-.83-.454c1.254 1.17 2.127 2.805 2.835 4.907.611 1.815.699 4.106.421 6.399-.277 2.294-.923 4.616-1.8 6.507a.378.378 0 01-.017.033c-2.42 4.16-5.314 6.075-8.08 6.469-2.758.392-5.375-.729-7.267-2.606-1.353-1.343-2.16-3.416-2.526-5.581-.364-2.158-.296-4.437.123-6.228.492-2.959 2.608-6.618 5.438-9.083 1.272-1.108 2.979-1.887 4.82-2.208-1.398.137-2.742.68-4.001 1.553-2.258 1.567-4.255 4.21-5.792 7.53-.07.152-.213.217-.317.144-.105-.073-.132-.256-.061-.409 1.58-3.411 3.647-6.16 6.01-7.8zm8.005-.367a10.322 10.322 0 00-3.125-.145c-2.067.215-3.983 1.025-5.334 2.201-2.755 2.4-4.753 5.919-5.2 8.643a.41.41 0 01-.007.029c-.393 1.67-.465 3.843-.114 5.922.351 2.077 1.12 4.032 2.385 5.287 1.824 1.81 4.344 2.884 6.981 2.509 2.626-.374 5.382-2.184 7.709-6.174.832-1.802 1.452-4.029 1.719-6.234.268-2.215.177-4.383-.392-6.073-1.003-2.977-2.322-4.939-4.622-5.965z" fill="#B0B1C4" stroke="#B0B1C4" stroke-width=".25" stroke-linecap="round" stroke-linejoin="round" opacity=".7"/><path fill-rule="evenodd" clip-rule="evenodd" d="M19.595 57.84c2.857-1.365 6.505-2.074 10.788-1.838.229.012.454.028.675.045a32.212 32.212 0 014.907.308c.177.026.287.132.244.238-.042.106-.22.172-.398.147-.448-.065-.9-.118-1.352-.16 2.207.541 4.021 1.428 5.757 2.628 1.5 1.036 2.405 2.444 2.784 3.906.379 1.463.236 2.997-.385 4.298a.15.15 0 01-.013.023c-2.08 2.933-5.604 4.543-9.461 5.191-3.846.646-8.003.334-11.37-.554-2.41-.635-4.278-1.802-5.542-3.092-1.26-1.285-1.935-2.707-1.939-3.88-.296-1.906 1.513-4.484 4.758-6.426 1.459-.873 3.657-1.605 6.204-2.073-1.97.29-3.726.822-5.245 1.548-2.725 1.301-4.708 3.231-5.798 5.514-.05.105-.232.166-.408.136-.175-.03-.277-.14-.227-.244 1.12-2.346 3.168-4.353 6.021-5.715zm11.426-1.397c-1.572.02-3.113.15-4.558.367-2.91.435-5.399 1.217-6.948 2.144-3.159 1.89-4.845 4.364-4.566 6.118a.12.12 0 01.002.02c0 1.092.634 2.45 1.848 3.688 1.212 1.237 2.986 2.336 5.238 2.93 3.247.856 7.247 1.154 10.925.536 3.662-.615 7.023-2.14 9.024-4.954.588-1.24.726-2.71.36-4.117-.365-1.412-1.233-2.744-2.629-3.708-2.458-1.7-5.029-2.723-8.696-3.024z" fill="#B0B1C4" stroke="#B0B1C4" stroke-width=".25" stroke-linecap="round" stroke-linejoin="round"/><path d="M.832 65.286c19.053 0 16.7.26 34.79 0 2.462-.035.086-1.066-.843-1.879-7.147-6.253-8.165-26.287 0-36.761 5.087-6.526 27.662-33.284 59.863 4.33m0 0L87.38 27.46m7.263 3.514l-1.708-7.462" stroke="#B0B1C4" stroke-linecap="round"/><defs><linearGradient id="paint0_linear" x1="118.069" y1="21.492" x2="100.704" y2="119.762" gradientUnits="userSpaceOnUse"><stop stop-color="#92B5F7"/><stop offset=".518" stop-color="#B6E5F7"/></linearGradient></defs></svg>