<svg xmlns="http://www.w3.org/2000/svg" viewBox="0 0 32 32" fill="none"><path fill-rule="evenodd" clip-rule="evenodd" d="M31.062 25.533h-1.034v-.501c-.02-.308-.045-.614-.075-.919l.995-.098c.032.327.06.656.08.986l.034.532Zm-.776-5.414c.155.638.288 1.284.4 1.937l-.986.167a27.1 27.1 0 0 0-.386-1.867l.972-.237Zm-1.202-3.765c.244.61.466 1.231.668 1.862l-.953.304a27.167 27.167 0 0 0-.644-1.795l.93-.37Zm-.058 9.179h-.968l-.032-.466c-.023-.326-.051-.65-.086-.971l.995-.107c.019.18.037.362.052.544h.039v1Zm-1.368-3.366a25.172 25.172 0 0 0-.431-1.901l.966-.259c.174.65.323 1.308.448 1.977l-.983.183Zm-.291-9.372c.326.571.634 1.155.92 1.75l-.9.434a27.264 27.264 0 0 0-.888-1.687l.868-.497Zm-.717 5.61a25.109 25.109 0 0 0-.72-1.812l.914-.405c.273.615.523 1.244.749 1.883l-.943.333ZM25.17 9.51c.403.52.788 1.055 1.155 1.604l-.83.556a27.393 27.393 0 0 0-1.116-1.548l.79-.612Zm-.098 5.331a25.245 25.245 0 0 0-.99-1.679l.84-.54c.365.567.709 1.149 1.03 1.745l-.88.474Zm-2.534-8.279c.472.46.928.936 1.367 1.428l-.746.666a27.414 27.414 0 0 0-1.32-1.378l.699-.716Zm.426 5.002a25.46 25.46 0 0 0-1.236-1.507l.748-.663c.448.505.877 1.027 1.285 1.566l-.797.604ZM20.38 8.65a25.529 25.529 0 0 0-.714-.664l-.166-.15V6.96h1v.431c.194.178.386.358.575.54l-.695.72Zm-.07-4.042c.259.205.514.413.765.626l-.647.763a27.36 27.36 0 0 0-.413-.343H19.5V3.968l.81.64Z" fill="#fff"/><path d="M8.062 24.594 4.071 28.61 1.5 27s-1-.594-1-2c0-1.406.5-2.5.5-2.5l7.062 2.094ZM13.242 19.352l.014.016-2.59 2.607-7.09-1.927 2.581-2.623 7.085 1.927ZM18.322 14.083l.099.097-2.585 2.594-.054-.056-7.05-1.92 2.582-2.624 7.008 1.91ZM23.4 8.813l.179.173-2.579 2.6-.139-.138-6.966-1.897 2.582-2.623L23.4 8.813Z" fill="#D9DAE6"/><path d="M19.127 4.231a1 1 0 0 1 1.418-.01l3.203 3.175a1 1 0 0 1 .005 1.415l-.175.176-.178-.172-6.924-1.886 2.651-2.698ZM20.858 11.45l.139.138-2.58 2.594-.099-.097-7.008-1.909 2.582-2.622 6.966 1.897ZM15.781 16.72l.054.057-2.58 2.594-.013-.016-7.085-1.928L8.732 14.8l7.05 1.92ZM2.198 23.09 2 23s-.495-.32-.877-.461l2.45-2.49 7.09 1.926-2.605 2.62-5.86-1.504Z" fill="#fff"/></svg>