<svg viewBox="0 0 32 23" xmlns="http://www.w3.org/2000/svg"><g fill-rule="nonzero" fill="none"><path d="M26.389 4.602L19.52 3.05a1.968 1.968 0 00-1.622.351L4.852 13.183a2.161 2.161 0 00-.841 1.515c-.06.606.132 1.211.523 1.661.24.271 5.902 6.641 12.162 6.641 1.065 0 2.1-.184 3.076-.547 3.157-1.174 5.585-4.325 7.018-9.112 1.009-3.36 1.2-6.39 1.206-6.518.063-1.053-.62-1.997-1.607-2.22z" fill="#F6BB42"/><path d="M2.11 20c-.66 0-1.308-.311-1.721-.895a2.135 2.135 0 01.5-2.962l17.785-12.75a2.094 2.094 0 012.937.501c.673.956.45 2.284-.5 2.962L3.327 19.606c-.37.266-.796.394-1.216.394z" fill="#ED5564"/><path d="M29.996 8h-1.998A1.998 1.998 0 0126 6c0-1.105.893-2 1.998-2h1.998a2.001 2.001 0 110 4z" fill="#434A54"/><path d="M23.5 0C19.92 0 17 2.917 17 6.5c0 3.585 2.92 6.5 6.5 6.5 3.586 0 6.5-2.915 6.5-6.5C30 2.917 27.087 0 23.5 0z" fill="#FFCE54"/></g></svg>