<svg viewBox="0 0 15 13" xmlns="http://www.w3.org/2000/svg"><path d="M1.1 5.226a.536.536 0 01.739.1l.548.704A5.638 5.638 0 014.08 2.564c2.296-2.238 6.03-2.238 8.325 0a5.642 5.642 0 010 8.114 5.947 5.947 0 01-4.162 1.678 5.946 5.946 0 01-4.162-1.678.505.505 0 010-.727c.206-.2.54-.2.745 0 1.884 1.837 4.95 1.837 6.834 0a4.632 4.632 0 000-6.66c-1.884-1.837-4.95-1.837-6.834 0a4.627 4.627 0 00-1.394 2.896l.675-.68a.537.537 0 01.746-.01.505.505 0 01.011.727l-1.62 1.629a.532.532 0 01-.41.156.531.531 0 01-.388-.202L.998 5.947a.505.505 0 01.102-.72z" fill="#515151" fill-rule="nonzero"/></svg>