<svg xmlns="http://www.w3.org/2000/svg" viewBox="0 0 168 56" fill="currentColor" xmlns:v="https://vecta.io/nano"><path d="M33.799 41.19c0 .345.28.625.625.625h10.074.029.029.299v-.006c4.39-.172 7.896-3.785 7.896-8.217 0-4.312-3.319-7.849-7.541-8.196-.3-.025-.553-.242-.615-.536-1.14-5.349-5.892-9.36-11.581-9.36-6.54 0-11.842 5.302-11.842 11.842 0 .069-.049.128-.117.142a7.24 7.24 0 0 0 1.433 14.332h8.326c.345 0 .625-.28.625-.625v-1.96a.66.66 0 0 0-.544-.637c-1.302-.25-2.416-.787-3.178-1.555-.682-.687-1.09-1.539-1.216-2.54-.044-.346.243-.632.592-.63l1.392.007c.334.002.6.269.676.594.32 1.366 1.556 2.266 3.388 2.275.714.003 3.375-.33 3.384-2.17.007-1.471-1.927-2.029-3.757-2.481l-.947-.241c-2.07-.55-4.259-1.179-4.247-3.827.012-2.572 2.177-3.899 4.458-4.169v-2.467c0-.345.28-.625.625-.625h1.11c.345 0 .625.28.625.625v2.534c1.645.266 3.86 1.098 4.236 3.634.052.348-.237.64-.589.638l-1.399-.006c-.321-.002-.58-.25-.676-.556-.363-1.158-1.5-1.86-3.165-1.868-1.108-.005-2.713.583-2.72 1.925-.006 1.217.926 1.631 4.401 2.529l.46.117.186.045c1.324.319 4.04.974 4.027 3.887-.011 2.299-1.581 3.871-4.206 4.339-.313.056-.552.32-.552.638v1.946z" fill="url(#A)"/><path d="M69.72 19.254c-.313-2.262-2.053-3.575-4.31-3.575-2.66 0-4.663 1.939-4.663 5.23s1.979 5.23 4.663 5.23c2.421 0 4.027-1.566 4.31-3.51l-1.859-.01c-.234 1.193-1.208 1.864-2.426 1.864-1.651 0-2.834-1.238-2.834-3.575 0-2.297 1.173-3.575 2.839-3.575 1.238 0 2.207.701 2.421 1.919h1.859zm3.409-3.436h-1.8V26h1.8V15.818zm5.181 10.331c2.237 0 3.659-1.576 3.659-3.937s-1.422-3.947-3.659-3.947-3.659 1.581-3.659 3.947 1.422 3.938 3.659 3.938zm.01-1.442c-1.238 0-1.844-1.104-1.844-2.501s.607-2.516 1.844-2.516c1.218 0 1.825 1.119 1.825 2.516s-.607 2.501-1.825 2.501zm10.044-1.919c0 1.163-.83 1.74-1.626 1.74-.865 0-1.442-.612-1.442-1.581v-4.584h-1.8v4.862c0 1.835 1.044 2.874 2.545 2.874 1.144 0 1.949-.601 2.297-1.457h.08V26h1.745v-7.636h-1.8v4.425zm6.484 3.346c1.313 0 1.904-.78 2.188-1.337h.109V26h1.77V15.818H97.11v3.808h-.075c-.273-.552-.835-1.362-2.183-1.362-1.765 0-3.152 1.382-3.152 3.928 0 2.516 1.347 3.942 3.147 3.942zm.502-1.477c-1.188 0-1.815-1.044-1.815-2.476 0-1.422.616-2.441 1.815-2.441 1.158 0 1.795.959 1.795 2.441s-.646 2.476-1.795 2.476zm17.75-5.403c-.313-2.262-2.053-3.575-4.31-3.575-2.66 0-4.663 1.939-4.663 5.23s1.978 5.23 4.663 5.23c2.421 0 4.027-1.566 4.31-3.51l-1.859-.01c-.234 1.193-1.208 1.864-2.426 1.864-1.651 0-2.834-1.238-2.834-3.575 0-2.297 1.173-3.575 2.839-3.575 1.238 0 2.207.701 2.421 1.919h1.859zm4.941 6.895c2.237 0 3.659-1.576 3.659-3.937s-1.422-3.947-3.659-3.947-3.659 1.581-3.659 3.947 1.422 3.938 3.659 3.938zm.01-1.442c-1.238 0-1.845-1.104-1.845-2.501s.607-2.516 1.845-2.516c1.218 0 1.824 1.119 1.824 2.516s-.606 2.501-1.824 2.501zm11.212-4.325c-.249-1.293-1.283-2.118-3.072-2.118-1.84 0-3.093.905-3.088 2.317-.005 1.114.681 1.849 2.148 2.153l1.302.273c.701.154 1.03.438 1.03.87 0 .522-.567.915-1.422.915-.826 0-1.363-.358-1.517-1.044l-1.755.169c.224 1.402 1.402 2.232 3.277 2.232 1.909 0 3.256-.989 3.261-2.436-.005-1.089-.706-1.755-2.148-2.068l-1.302-.278c-.776-.174-1.084-.442-1.079-.885-.005-.517.567-.875 1.317-.875.831 0 1.268.452 1.407.955l1.641-.179zm5.461-2.018h-1.506v-1.83h-1.8v1.83h-1.084v1.392h1.084v4.246c-.01 1.437 1.034 2.143 2.387 2.103a3.6 3.6 0 0 0 1.058-.179l-.303-1.407a2.24 2.24 0 0 1-.527.07c-.452 0-.815-.159-.815-.885v-3.947h1.506v-1.392zm-73.72 12.454V41h1.77v-7.01h.094l2.814 6.98h1.322l2.814-6.965h.094V41h1.77V30.818h-2.257l-3.023 7.378h-.119l-3.023-7.378h-2.257zM75.81 41.154c1.198 0 1.914-.562 2.242-1.203h.06V41h1.73v-5.111c0-2.019-1.646-2.625-3.102-2.625-1.606 0-2.839.716-3.237 2.108l1.68.239c.179-.522.686-.969 1.566-.969.835 0 1.293.428 1.293 1.178v.03c0 .517-.542.542-1.889.686-1.481.159-2.898.602-2.898 2.322 0 1.502 1.099 2.297 2.555 2.297zm.467-1.322c-.751 0-1.288-.343-1.288-1.004 0-.691.602-.979 1.407-1.094.472-.065 1.417-.184 1.651-.373v.9c0 .85-.686 1.571-1.77 1.571zm7.174-3.306c0-1.104.666-1.74 1.616-1.74.93 0 1.486.611 1.486 1.631V41h1.8v-4.862c.005-1.83-1.039-2.874-2.615-2.874-1.143 0-1.929.547-2.277 1.397h-.089v-1.298h-1.72V41h1.8v-4.474zm8.929 4.628c1.198 0 1.914-.562 2.242-1.203h.06V41h1.73v-5.111c0-2.019-1.646-2.625-3.102-2.625-1.606 0-2.839.716-3.237 2.108l1.68.239c.179-.522.686-.969 1.566-.969.835 0 1.293.428 1.293 1.178v.03c0 .517-.542.542-1.889.686-1.481.159-2.898.602-2.898 2.322 0 1.502 1.099 2.297 2.555 2.297zm.467-1.322c-.751 0-1.288-.343-1.288-1.004 0-.691.601-.979 1.407-1.094.472-.065 1.417-.184 1.651-.373v.9c0 .85-.686 1.571-1.77 1.571zm8.696 4.191c2.063 0 3.584-.945 3.584-2.898v-7.761h-1.775v1.263h-.099c-.274-.552-.845-1.362-2.193-1.362-1.764 0-3.152 1.382-3.152 3.893 0 2.491 1.387 3.734 3.147 3.734 1.308 0 1.919-.701 2.198-1.263h.089v1.447c0 1.124-.745 1.586-1.77 1.586-1.083 0-1.561-.512-1.779-.959l-1.621.393c.328 1.069 1.427 1.929 3.371 1.929zm.015-4.544c-1.189 0-1.815-.925-1.815-2.332 0-1.387.616-2.406 1.815-2.406 1.158 0 1.794.959 1.794 2.406 0 1.457-.646 2.332-1.794 2.332zm8.794 1.67c1.78 0 3.003-.87 3.321-2.197l-1.68-.189c-.244.646-.84.984-1.616.984-1.163 0-1.934-.766-1.949-2.073h5.32v-.552c0-2.68-1.611-3.858-3.49-3.858-2.188 0-3.615 1.606-3.615 3.962 0 2.396 1.407 3.922 3.709 3.922zm-1.919-4.688c.055-.974.776-1.795 1.85-1.795 1.034 0 1.73.756 1.74 1.795h-3.59zM115.27 41h1.8v-4.644c0-.94.627-1.576 1.402-1.576.761 0 1.283.512 1.283 1.298V41h1.765v-4.763c0-.86.512-1.457 1.382-1.457.726 0 1.302.428 1.302 1.372V41h1.805v-5.126c0-1.705-.984-2.61-2.386-2.61-1.109 0-1.954.547-2.292 1.397h-.08c-.293-.865-1.034-1.397-2.063-1.397s-1.79.527-2.108 1.397h-.089v-1.298h-1.721V41zm15.946.149c1.779 0 3.002-.87 3.321-2.197l-1.681-.189c-.243.646-.84.984-1.616.984-1.163 0-1.934-.766-1.948-2.073h5.319v-.552c0-2.68-1.611-3.858-3.49-3.858-2.187 0-3.614 1.606-3.614 3.962 0 2.396 1.407 3.922 3.709 3.922zm-1.919-4.688c.054-.974.775-1.795 1.849-1.795 1.034 0 1.73.756 1.74 1.795h-3.589zm8.636.065c0-1.104.667-1.74 1.616-1.74.93 0 1.487.611 1.487 1.631V41h1.799v-4.862c.005-1.83-1.039-2.874-2.615-2.874-1.143 0-1.929.547-2.277 1.397h-.089v-1.298h-1.72V41h1.799v-4.474zm10.545-3.162h-1.506v-1.829h-1.8v1.829h-1.084v1.392h1.084v4.246c-.01 1.437 1.034 2.143 2.386 2.103a3.61 3.61 0 0 0 1.059-.179l-.303-1.407a2.24 2.24 0 0 1-.527.07c-.452 0-.815-.159-.815-.885v-3.947h1.506v-1.392z" fill="#000"/><defs><linearGradient id="A" x1="21.277" y1="13.491" x2="38.089" y2="49.837" gradientUnits="userSpaceOnUse"><stop stop-color="#00cfde"/><stop offset="1" stop-color="#05a660"/></linearGradient></defs></svg>