<svg fill="none" viewBox="0 0 32 32" xmlns="http://www.w3.org/2000/svg" xmlns:xlink="http://www.w3.org/1999/xlink"><linearGradient id="a" gradientUnits="userSpaceOnUse" x1="5.82144" x2="19.2714" y1="4.39288" y2="33.4695"><stop offset="0" stop-color="#00cfde"/><stop offset="1" stop-color="#05a660"/></linearGradient><path d="m15.8394 26.5523c0 .2761.2238.5.5.5h8.0588.0232.0232.2389v-.0051c3.5119-.1376 6.3167-3.0281 6.3167-6.5737 0-3.4495-2.6549-6.279-6.0329-6.5565-.2398-.0197-.442-.1933-.4922-.4286-.9123-4.27903-4.7139-7.4884-9.2651-7.4884-5.23211 0-9.47354 4.2414-9.47354 9.4735 0 .0552-.03939.1027-.09349.1135-2.64826.532-4.64297 2.871-4.64297 5.6759 0 3.1973 2.59185 5.7892 5.78912 5.7894h6.66088c.2761 0 .5-.2239.5-.5v-1.5683c0-.252-.1881-.4625-.4356-.51-1.0412-.1997-1.9326-.6294-2.5427-1.2443-.5458-.55-.8716-1.2314-.97288-2.0316-.03504-.277.19468-.5054.47378-.5041l1.1137.0052c.2673.0013.4802.2149.5411.4752.2559 1.093 1.2451 1.8129 2.7106 1.8198.571.0027 2.7002-.2641 2.7071-1.7358.0055-1.1769-1.5419-1.6233-3.0059-1.9847-.2495-.0615-.5038-.1243-.758-.1925-1.6559-.4399-3.4076-.9432-3.3977-3.0618.0096-2.0579 1.7418-3.1193 3.5665-3.3355v-1.9735c0-.2761.2238-.5.5-.5h.8875c.2762 0 .5.2239.5.5v2.0272c1.316.2124 3.0881.8785 3.3886 2.9069.0413.2786-.1898.512-.4714.5107l-1.1191-.0052c-.2568-.0012-.4637-.1999-.5405-.4449-.2901-.9266-1.2-1.4883-2.5323-1.4946-.8862-.0041-2.1707.4661-2.1757 1.5402-.0046.9735.7404 1.3051 3.5205 2.0234l.3681.094c.0465.0115.0961.0235.1484.0361 1.0591.2554 3.2322.7795 3.2213 3.1092-.0085 1.8391-1.2649 3.097-3.3644 3.4714-.2503.0446-.4416.2562-.4416.5105z" fill="url(#a)"/></svg>