<svg fill="none" viewBox="0 0 168 56" xmlns="http://www.w3.org/2000/svg" xmlns:xlink="http://www.w3.org/1999/xlink"><linearGradient id="a" gradientUnits="userSpaceOnUse" x1="23.2768" x2="40.0893" y1="13.4911" y2="49.8369"><stop offset="0" stop-color="#00cfde"/><stop offset="1" stop-color="#05a660"/></linearGradient><g fill="#000"><path d="m61.0737 41h1.1733v-4.7728c0-1.1186.8154-1.9091 1.7301-1.9091.89 0 1.5114.5817 1.5114 1.4518v5.2301h1.1932v-4.9716c0-.9844.6165-1.7103 1.6903-1.7103.8353 0 1.5512.4425 1.5512 1.5711v5.1108h1.1733v-5.1108c0-1.7948-.9645-2.625-2.3267-2.625-1.0938 0-1.8942.5021-2.287 1.2926h-.0795c-.3779-.8154-1.0441-1.2926-2.0483-1.2926-.9943 0-1.7301.4772-2.0483 1.2926h-.0994v-1.1932h-1.1336z"/><path d="m75.4889 41.1789c1.3323 0 2.0284-.7159 2.267-1.213h.0597v1.0341h1.1733v-5.0313c0-2.4261-1.8495-2.7045-2.8239-2.7045-1.1534 0-2.4659.3977-3.0625 1.7897l1.1136.3978c.2586-.5568.8701-1.1534 1.9887-1.1534 1.0788 0 1.6108.5717 1.6108 1.5511v.0398c0 .5667-.5767.517-1.9688.696-1.4169.1839-2.9631.4972-2.9631 2.2472 0 1.4914 1.1535 2.3465 2.6052 2.3465zm.1789-1.0539c-.9346 0-1.6108-.4176-1.6108-1.233 0-.8949.8154-1.1733 1.7302-1.2926.4971-.0597 1.8295-.1989 2.0284-.4375v1.0739c0 .9545-.7557 1.8892-2.1478 1.8892z"/><path d="m82.3037 36.4062c0-1.3324.8253-2.0881 1.9488-2.0881 1.0888 0 1.75.711 1.75 1.9091v4.7728h1.1733v-4.8523c0-1.9489-1.039-2.8835-2.5852-2.8835-1.1534 0-1.8693.517-2.2273 1.2926h-.0994v-1.1932h-1.1335v7.6364h1.1733z"/><path d="m91.567 41.1789c1.3324 0 2.0284-.7159 2.267-1.213h.0597v1.0341h1.1733v-5.0313c0-2.4261-1.8495-2.7045-2.8239-2.7045-1.1534 0-2.4659.3977-3.0625 1.7897l1.1137.3978c.2585-.5568.87-1.1534 1.9886-1.1534 1.0788 0 1.6108.5717 1.6108 1.5511v.0398c0 .5667-.5767.517-1.9688.696-1.4169.1839-2.963.4972-2.963 2.2472 0 1.4914 1.1534 2.3465 2.6051 2.3465zm.179-1.0539c-.9347 0-1.6108-.4176-1.6108-1.233 0-.8949.8153-1.1733 1.7301-1.2926.4971-.0597 1.8295-.1989 2.0284-.4375v1.0739c0 .9545-.7557 1.8892-2.1477 1.8892z"/><path d="m100.291 44.0227c1.829 0 3.301-.8352 3.301-2.804v-7.8551h-1.134v1.2131h-.119c-.258-.3978-.736-1.3125-2.227-1.3125-1.9291 0-3.2615 1.5312-3.2615 3.8778 0 2.3864 1.3921 3.7386 3.2415 3.7386 1.491 0 1.969-.875 2.227-1.2926h.1v1.5512c0 1.2727-.895 1.8494-2.128 1.8494-1.3872 0-1.8744-.7308-2.1876-1.1534l-.9347.6562c.4773.8005 1.4169 1.5313 3.1223 1.5313zm-.04-4.196c-1.4715 0-2.2272-1.1137-2.2272-2.7046 0-1.5511.7358-2.804 2.2272-2.804 1.432 0 2.188 1.1535 2.188 2.804 0 1.6904-.776 2.7046-2.188 2.7046z"/><path d="m108.941 41.1591c1.552 0 2.685-.7756 3.043-1.929l-1.133-.3182c-.299.7955-.99 1.1932-1.91 1.1932-1.377 0-2.326-.8899-2.381-2.5256h5.543v-.4971c0-2.8438-1.69-3.8182-3.281-3.8182-2.068 0-3.44 1.6307-3.44 3.9772 0 2.3466 1.352 3.9177 3.559 3.9177zm-2.381-4.5938c.08-1.1882.92-2.2472 2.262-2.2472 1.273 0 2.088.9546 2.088 2.2472z"/><path d="m113.888 41h1.173v-4.7728c0-1.1186.816-1.9091 1.731-1.9091.89 0 1.511.5817 1.511 1.4518v5.2301h1.193v-4.9716c0-.9844.617-1.7103 1.69-1.7103.836 0 1.552.4425 1.552 1.5711v5.1108h1.173v-5.1108c0-1.7948-.965-2.625-2.327-2.625-1.094 0-1.894.5021-2.287 1.2926h-.079c-.378-.8154-1.044-1.2926-2.049-1.2926-.994 0-1.73.4772-2.048 1.2926h-.099v-1.1932h-1.134z"/><path d="m129.258 41.1591c1.551 0 2.685-.7756 3.042-1.929l-1.133-.3182c-.298.7955-.989 1.1932-1.909 1.1932-1.377 0-2.327-.8899-2.382-2.5256h5.544v-.4971c0-2.8438-1.691-3.8182-3.281-3.8182-2.069 0-3.441 1.6307-3.441 3.9772 0 2.3466 1.352 3.9177 3.56 3.9177zm-2.382-4.5938c.08-1.1882.92-2.2472 2.263-2.2472 1.272 0 2.088.9546 2.088 2.2472z"/><path d="m135.378 36.4062c0-1.3324.825-2.0881 1.949-2.0881 1.089 0 1.75.711 1.75 1.9091v4.7728h1.173v-4.8523c0-1.9489-1.039-2.8835-2.585-2.8835-1.154 0-1.869.517-2.227 1.2926h-.1v-1.1932h-1.133v7.6364h1.173z"/><path d="m145.715 33.3636h-1.631v-1.8295h-1.173v1.8295h-1.153v.9943h1.153v4.7727c0 1.3324 1.074 1.9688 2.068 1.9688.438 0 .716-.0795.875-.1392l-.238-1.054c-.1.0199-.259.0597-.517.0597-.517 0-1.015-.1591-1.015-1.1534v-4.4546h1.631z"/><path d="m64.2956 26.1492c2.0334 0 3.3111-1.1932 3.4105-2.9481h-1.9985c-.1243.8153-.6613 1.2727-1.3871 1.2727-.9894 0-1.6307-.8303-1.6307-2.2919 0-1.4418.6463-2.2671 1.6307-2.2671.7756 0 1.2727.5121 1.3871 1.2728h1.9985c-.0894-1.765-1.4268-2.9233-3.4204-2.9233-2.3168 0-3.7486 1.6058-3.7486 3.9474 0 2.3217 1.407 3.9375 3.7585 3.9375z"/><path d="m71.18 15.8182h-2.1179v10.1819h2.1179z"/><path d="m76.3269 26.1492c2.3167 0 3.7585-1.5859 3.7585-3.9375 0-2.3665-1.4418-3.9474-3.7585-3.9474-2.3168 0-3.7585 1.5809-3.7585 3.9474 0 2.3516 1.4417 3.9375 3.7585 3.9375zm.0099-1.6406c-1.0689 0-1.6157-.9794-1.6157-2.3118s.5468-2.3168 1.6157-2.3168c1.049 0 1.5959.9844 1.5959 2.3168s-.5469 2.3118-1.5959 2.3118z"/><path d="m86.3596 22.7486c.0049 1.0242-.6961 1.5611-1.4567 1.5611-.8005 0-1.3175-.5618-1.3225-1.4616v-4.4844h-2.1179v4.8622c.005 1.7848 1.049 2.8736 2.5853 2.8736 1.1484 0 1.9737-.5916 2.3167-1.4865h.0796v1.3871h2.0334v-7.6364h-2.1179z"/><path d="m92.9854 26.1243c1.233 0 1.8743-.7109 2.1677-1.3473h.0894v1.2231h2.0881v-10.1819h-2.1129v3.8282h-.0646c-.2834-.6215-.8949-1.3821-2.1726-1.3821-1.6755 0-3.0924 1.3025-3.0924 3.9275 0 2.5554 1.3573 3.9325 3.0973 3.9325zm.6712-1.6853c-1.0391 0-1.6058-.9247-1.6058-2.2571 0-1.3225.5568-2.2323 1.6058-2.2323 1.0291 0 1.6058.8701 1.6058 2.2323s-.5866 2.2571-1.6058 2.2571z"/><path d="m105.762 26.1492c2.034 0 3.312-1.1932 3.411-2.9481h-1.999c-.124.8153-.661 1.2727-1.387 1.2727-.989 0-1.63-.8303-1.63-2.2919 0-1.4418.646-2.2671 1.63-2.2671.776 0 1.273.5121 1.387 1.2728h1.999c-.09-1.765-1.427-2.9233-3.421-2.9233-2.316 0-3.748 1.6058-3.748 3.9474 0 2.3217 1.407 3.9375 3.758 3.9375z"/><path d="m113.979 26.1492c2.317 0 3.759-1.5859 3.759-3.9375 0-2.3665-1.442-3.9474-3.759-3.9474s-3.758 1.5809-3.758 3.9474c0 2.3516 1.441 3.9375 3.758 3.9375zm.01-1.6406c-1.069 0-1.616-.9794-1.616-2.3118s.547-2.3168 1.616-2.3168c1.049 0 1.596.9844 1.596 2.3168s-.547 2.3118-1.596 2.3118z"/><path d="m125.469 20.5412c-.189-1.4069-1.323-2.2769-3.252-2.2769-1.954 0-3.241.9048-3.236 2.3764-.005 1.1434.716 1.8842 2.207 2.1825l1.322.2635c.667.1342.97.3778.98.7607-.01.4524-.502.7755-1.243.7755-.756 0-1.258-.3231-1.387-.9446l-2.083.1094c.199 1.4616 1.442 2.3615 3.465 2.3615 1.979 0 3.396-1.0092 3.401-2.5156-.005-1.1037-.726-1.7649-2.208-2.0682l-1.382-.2784c-.711-.1541-.974-.3977-.969-.7656-.005-.4574.512-.7557 1.168-.7557.736 0 1.173.4027 1.278.8949z"/><path d="m131.038 18.3637h-1.437v-1.8296h-2.118v1.8296h-1.044v1.5909h1.044v3.9773c-.01 1.4964 1.01 2.2372 2.546 2.1726.547-.0199.934-.1293 1.148-.1989l-.333-1.576c-.104.0199-.328.0696-.527.0696-.422 0-.716-.1591-.716-.7457v-3.6989h1.437z"/></g><path d="m35.7992 41.1904c0 .3451.2799.625.625.625h10.0735.029.029.2987v-.0064c4.3898-.172 7.8958-3.7851 7.8958-8.2171 0-4.312-3.3186-7.8488-7.5411-8.1956-.2997-.0246-.5525-.2417-.6152-.5358-1.1404-5.3488-5.8924-9.3605-11.5814-9.3605-6.5401 0-11.8419 5.3018-11.8419 11.8419 0 .069-.0493.1283-.1169.1419-3.3103.665-5.8037 3.5887-5.8037 7.0948 0 3.9967 3.2398 7.2366 7.2364 7.2367l8.326.0001c.3452 0 .625-.2799.625-.625v-1.9604c0-.315-.2351-.5782-.5444-.6375-1.3015-.2496-2.4157-.7868-3.1783-1.5554-.6823-.6875-1.0896-1.5392-1.2162-2.5395-.0438-.3462.2434-.6317.5923-.6301l1.3921.0065c.3341.0016.6002.2687.6764.594.3198 1.3663 1.5563 2.2662 3.3882 2.2747.7138.0034 3.3753-.3301 3.3839-2.1696.0068-1.4713-1.9274-2.0293-3.7574-2.4809-.3119-.0769-.6298-.1555-.9475-.2407-2.0699-.5498-4.2594-1.179-4.2471-3.8272.012-2.5724 2.1772-3.8992 4.458-4.1694v-2.4669c0-.3451.2799-.625.625-.625h1.1095c.3452 0 .625.2799.625.625v2.5339c1.6449.2656 3.8601 1.0983 4.2357 3.6338.0516.3482-.2372.64-.5892.6383l-1.3989-.0065c-.321-.0015-.5797-.2499-.6756-.5561-.3627-1.1583-1.5-1.8604-3.1654-1.8682-1.1078-.0052-2.7134.5826-2.7197 1.9252-.0056 1.2168.9256 1.6314 4.4007 2.5292l.4601.1175c.0581.0144.1202.0293.1856.0451 1.3238.3193 4.0402.9744 4.0266 3.8865-.0107 2.2989-1.5812 3.8713-4.2055 4.3393-.3129.0558-.5521.3203-.5521.6381z" fill="url(#a)"/></svg>