<svg fill="none" viewBox="0 0 32 32" xmlns="http://www.w3.org/2000/svg"><linearGradient id="a" gradientUnits="userSpaceOnUse" x1="5.821" x2="19.271" y1="4.393" y2="33.469"><stop offset="0" stop-color="#00cfde"/><stop offset="1" stop-color="#05a660"/></linearGradient><path d="M15.84 26.552a.5.5 0 00.5.5H24.682v-.005a6.579 6.579 0 00.284-13.13.548.548 0 01-.492-.429C23.563 9.21 19.761 6 15.21 6a9.473 9.473 0 00-9.474 9.474c0 .055-.039.102-.093.113a5.791 5.791 0 001.146 11.465h6.661a.5.5 0 00.5-.5v-1.568a.527.527 0 00-.436-.51c-1.04-.2-1.932-.63-2.542-1.244-.546-.55-.872-1.232-.973-2.032-.035-.277.194-.505.474-.504l1.113.005c.268.001.48.215.541.475.256 1.093 1.245 1.813 2.711 1.82.571.003 2.7-.264 2.707-1.736.006-1.177-1.542-1.623-3.006-1.984a38.2 38.2 0 01-.758-.193c-1.656-.44-3.407-.943-3.398-3.062.01-2.058 1.742-3.119 3.567-3.335V10.71a.5.5 0 01.5-.5h.887a.5.5 0 01.5.5v2.028c1.316.212 3.089.878 3.39 2.906.04.28-.19.512-.472.511l-1.12-.005c-.256-.001-.463-.2-.54-.445-.29-.926-1.2-1.488-2.532-1.494-.886-.005-2.17.466-2.176 1.54-.005.973.74 1.305 3.52 2.023l.369.094.148.036c1.06.256 3.232.78 3.221 3.11-.008 1.839-1.265 3.096-3.364 3.47a.526.526 0 00-.442.511z" fill="url(#a)"/></svg>