<svg fill="none" xmlns="http://www.w3.org/2000/svg" viewBox="0 0 26 21"><path fill-rule="evenodd" clip-rule="evenodd" d="M15.201 2.9a5.325 5.325 0 00-2.498 3.256l-.34 1.273 2.656.712.34-1.273a2.615 2.615 0 013.2-1.847 2.617 2.617 0 011.847 3.2 2.614 2.614 0 01-3.199 1.847l-.03-.008-7.673-2.057a5.325 5.325 0 00-4.069.535 5.325 5.325 0 00-2.497 3.256 5.328 5.328 0 00.536 4.07 5.328 5.328 0 003.256 2.499 5.325 5.325 0 004.069-.535 5.325 5.325 0 002.498-3.256l.34-1.274-2.656-.712-.34 1.273a2.614 2.614 0 01-3.2 1.847 2.617 2.617 0 01-1.847-3.2 2.604 2.604 0 011.218-1.585 2.604 2.604 0 011.98-.262l7.704 2.066a5.325 5.325 0 004.069-.535 5.325 5.325 0 002.497-3.257 5.329 5.329 0 00-.536-4.07 5.329 5.329 0 00-3.256-2.498 5.325 5.325 0 00-4.069.534z" fill="url(#paint0_linear)"/><defs><linearGradient id="paint0_linear" x1="3.557" y1="9.622" x2="8.848" y2="18.787" gradientUnits="userSpaceOnUse"><stop stop-color="#62F91F"/><stop offset="1" stop-color="#5EAA53"/></linearGradient></defs></svg>