<svg version="1.1" id="Layer_1" xmlns="http://www.w3.org/2000/svg" x="0" y="0" viewBox="0 0 101 103" xml:space="preserve"><style>.st0{fill:#fff}.st1,.st2{fill:none;stroke:#000;stroke-width:1.75;stroke-linecap:round;stroke-linejoin:round}.st2{stroke-width:1.5}</style><path class="st0" d="M16 32.2L2.8 60.4v15.9L38 94.8l44.1-6.2 12.3-28.2v-15L62.7 26 16 32.2z"/><path class="st1" d="M1 73.6C12.5 80 30 90.1 41.6 96.5M80.3 90.4c4.4-9.7 7.1-15.9 14.1-31.7M31 94.8c19.4-2.6 29.1-3.5 53.8-7.9M1.9 57.7c11.5 6.4 29 16.5 40.6 22.9M59.2 26c11.5 6.4 29 16.5 40.6 22.9"/><path class="st1" d="M2.8 62.1c4.4-9.7 7.1-15.9 14.1-31.7m64.3 44.1c4.4-9.7 7.1-15.9 14.1-31.7"/><path class="st1" d="M12.5 33.9c19.4-2.6 29.1-3.5 53.8-7.9M31.9 78.9C51.3 76.3 61 75.4 85.7 71"/><path class="st1" d="M4.4 57.8c0 4 .1 14.5.1 18.5m32.5.9c0 4 .1 14.5.1 18.5M82 71c0 4 .1 14.5.1 18.5m11.5-45.9c0 4 .1 14.5.1 18.5M42.4 77.5L38 93.7m5.3-.9l4.2-15.3m1.1 14.4l4.2-15.3m5.5-.9L54.1 91m9.5-16.1l-4.2 15.3M69.8 74l-4.4 16.2m9.7-17.1l-4.4 16.2m9.6-17.1l-4.4 16.2M86.5 75.3V63.9m3.5 4.4l.2-13.3M16.9 66.6l-3.4 13.1m7.8-10.5l-3.5 13.5m8.8-10.9l-3.7 14.1M31 74.8l-3.7 13.8m8.1-11.5L31.7 91M12.5 63.9L8.7 78m-.6-15.9l-3.5 13"/><g><path class="st0" d="M32.1 21.3l-2.9 14 4.7 1.7v7L28 50.4l5.8 8.1 8.7 1.7 7 1.7 7.6-5.8v-6.4l4.1-5.8H67l2.3-11.1-4.1-1.2-1.2-6.4 4.1-4.7-1.1-9.7-9.9-2.9-7.6-2.3-9.9 5.2V19l-2.9 2.3h-4.6z"/><path class="st1" d="M28.5 34.5c.7.2 1.4.4 2.1.5 3.1.6 6.3 1.1 9.5 1.6M30.6 21c.8.1 1.4.3 2.2.5 3.5 1.1 6.9 2.3 10.4 3.5M40.1 10.4c3.6 1.2 7.3 2 10.9 2.9M48.1 5c3.1 1.2 6.2 2.2 9.3 3.3M59.4 9.7c2.7.7 4.1 1.2 6.7 2.1M64.4 32.4c1.7.4 3.4.8 5.2 1.3M61 43.9c1.9.4 3.8 1 5.7 1.5M56.9 49.1c.1.5.1.9.1 1.4.1 2.8 0 5.6 0 8.3M48.6 53.9c.2 2.7.2 5.5.3 8.2M39.6 59.3c2.1-1.5 3.8-3.8 5.5-5.7M35.3 51c1.8-2.2 4.2-4.1 6.3-6M40.6 46.4c-.4-2.3-1.1-6.6-.4-10.9M43.4 25.3c1-1.7 2.3-3.5 5.8-5.5M48.6 12c-.1 3.5-.2 7-.2 10.5M55.9 8.4v8.7M55.4 17.2c1.7 0 3.6-.4 4.8 1.1"/><path class="st1" d="M59.2 17.8c.5-.4 1-.8 1.4-1.2 2.4-2.3 4.8-4.7 7.1-7M64 25.4c.1-.3.3-.6.5-.8 1.7-1.9 3.6-3.7 5.4-5.5"/><path class="st1" d="M65.4 11.1c.5.9.7 1.7.9 2.7.5 2.1.9 4.2 1.5 6.3.1.3.2.5.5.6M64 24.6c.8 3.5 1 6 0 8.8M68 33c.7 4.4-1.7 10.2-2.8 13.3M55.7 50.1c2.9-2.4 4-4 5.4-7.5M47.6 61.5c.6-.1 1-.2 1.6-.5 2.9-1.4 5.7-3.1 8.5-4.7M41.6 59.8c2.9.4 5.7 1.4 8.7 1.7M41.8 60.2c-.2-1.1-.3-2.3-.5-3.4M36 36.6c-.4-3.9 1.2-10.9 3.5-13.6M29.4 35.2c-.1-4.8 1.6-9.8 3.9-14.1M36.5 22.9c1.4-1.2 2.7-2.6 4.1-3.9M40.8 10.6c0 2.2-.1 4.3-.2 6.5 0 .4 0 .7.1 1M39.5 18.6c2.9.5 5.9 1 8.8 1.9M55.8 14.7c1.4-2.2 2.7-3.4 4.2-5.7M39.2 10.8c3.6-2.1 7.4-3.8 11-5.6M48.4 12.6s4.7-2.3 8.7-4.7M33.8 36.3c0 2.6.4 5.3.4 7.9M33.8 43.4l6.4 1.7"/><path class="st1" d="M28.4 50c.7-.5 1.3-1.2 2-1.9 1.4-1.4 2.8-2.9 4.2-4.4M28 49.8c3.1.5 6.3.7 9.4 1M44.4 53.1c2.1.5 4.2.7 6.3.8M35.4 50.8c1.6 2.2 3 4.5 4.5 6.8.5.7 1 1.7 1.7 2.2M28.2 49.9c2.3 2.7 4.7 5.7 6.6 8.1M33.3 57.4c2.6.1 5.2 1.3 7.8 1.6M44.6 39.3c3.5 2.4 5.8 4 8.2 5.9M45.3 41.7c.4-2.7.8-7.8 1.2-11.3M44.9 32.7c1.5-1.3 7-5 8.6-6.2M53.6 26.5c2.1 1.3 3.8 2.7 5.8 4.1M50 44.8c1.6-.8 7.2-4.3 8.6-5.1M57.4 40.5c.8-3.5 1.2-7 1.9-10.5M53.6 31.2c-.5 2.4-1.2 5.8-1.3 7.1"/><path class="st1" d="M46.9 41.2c1-.4 2-.9 3-1.3s2-.9 2.9-1.4M50.8 28.9s1.7 1.2 2.8 2.3M53.5 30.7c2.3 0 5.4-.2 7.4-.3M51.5 38.1c1.5.4 3 .7 4.4 1 1.1.3 2.3.5 3.5.7"/><path class="st2" d="M48.5 57.4l-5.3-1.1m-5.3-1.4l-5.8-.7M62.9 14.3l-5.3-1.2M37.9 48.1c-2.1-.4-4.2-.9-6.2-1.3m7.8-7.2l-5.1-1.1M37.5 27.1l-5.8-1.3m-2.3 4.8l7.1 1.5M48.4 16.8l-8.2-1.7M52.5 10c-4.7-1.3-5-1.4-7.7-2.1l7.7 2.1z"/></g></svg>