<svg fill="none" viewBox="0 0 32 32" xmlns="http://www.w3.org/2000/svg"><linearGradient id="a" gradientUnits="userSpaceOnUse" x1="6.774" x2="21.5" y1="2" y2="30"><stop offset="0" stop-color="#62f91f"/><stop offset="1" stop-color="#45bd35"/></linearGradient><path clip-rule="evenodd" d="M26.427 7.06A5.073 5.073 0 0129 11.52l-.077 8.934a5.073 5.073 0 01-2.537 4.35l-8.002 4.618a5.073 5.073 0 01-5.035.021l-7.776-4.402A5.073 5.073 0 013 20.583l.077-8.935a5.073 5.073 0 012.537-4.35l8.002-4.619a5.073 5.073 0 015.036-.02zm-2.83 6.938c-.42 1.586-2.029 2.538-3.601 2.141l-7.489-2.026a4.696 4.696 0 00-3.62.48 4.773 4.773 0 00-2.222 2.925c-.33 1.245-.161 2.545.479 3.664s1.67 1.917 2.905 2.251a4.696 4.696 0 003.62-.48 4.773 4.773 0 002.222-2.924l.26-1.047a.25.25 0 00-.177-.302l-1.258-.34a.25.25 0 00-.307.18l-.256 1.025c-.426 1.602-2.064 2.556-3.651 2.127-1.582-.428-2.523-2.073-2.1-3.67.421-1.586 2.03-2.538 3.602-2.142l7.489 2.027a4.696 4.696 0 003.62-.48 4.773 4.773 0 002.222-2.925 4.835 4.835 0 00-.479-3.664 4.757 4.757 0 00-2.905-2.251 4.696 4.696 0 00-3.62.48 4.773 4.773 0 00-2.222 2.924l-.247.828a.25.25 0 00.174.312l1.259.34a.25.25 0 00.304-.169l.248-.827c.426-1.602 2.064-2.557 3.651-2.127 1.582.428 2.523 2.073 2.1 3.67z" fill="url(#a)" fill-rule="evenodd"/></svg>