<svg viewBox="0 0 168 56" fill="none" xmlns="http://www.w3.org/2000/svg"><path fill-rule="evenodd" clip-rule="evenodd" d="M49.033 16.826A6.341 6.341 0 0152.25 22.4l-.096 11.168a6.341 6.341 0 01-3.172 5.438L38.98 44.778a6.34 6.34 0 01-6.294.026l-9.72-5.503a6.341 6.341 0 01-3.216-5.573l.096-11.168a6.341 6.341 0 013.171-5.437l10.003-5.774a6.341 6.341 0 016.294-.026l9.72 5.503zm-3.536 8.672c-.526 1.982-2.537 3.171-4.502 2.676l-9.361-2.533a5.87 5.87 0 00-4.526.6 5.966 5.966 0 00-2.777 3.656 6.043 6.043 0 00.599 4.58 5.946 5.946 0 003.63 2.814 5.87 5.87 0 004.526-.6 5.967 5.967 0 002.777-3.655l.327-1.308a.312.312 0 00-.222-.378l-1.572-.425a.313.313 0 00-.385.226l-.32 1.28c-.532 2.003-2.58 3.196-4.564 2.66-1.978-.536-3.153-2.592-2.624-4.589.526-1.982 2.537-3.172 4.503-2.677l9.36 2.534a5.87 5.87 0 004.526-.6 5.966 5.966 0 002.777-3.656 6.043 6.043 0 00-.599-4.58 5.946 5.946 0 00-3.63-2.814 5.87 5.87 0 00-4.526.6 5.966 5.966 0 00-2.777 3.655l-.31 1.034a.312.312 0 00.219.391l1.572.426a.312.312 0 00.381-.212l.31-1.034c.532-2.003 2.58-3.196 4.564-2.66 1.978.536 3.154 2.592 2.624 4.589z" fill="url(#paint0_linear)"/><path d="M69.72 19.254c-.314-2.263-2.054-3.575-4.311-3.575-2.66 0-4.663 1.939-4.663 5.23 0 3.286 1.978 5.23 4.663 5.23 2.421 0 4.027-1.566 4.31-3.51l-1.859-.01c-.234 1.194-1.208 1.865-2.426 1.865-1.65 0-2.834-1.238-2.834-3.575 0-2.297 1.173-3.574 2.839-3.574 1.238 0 2.207.7 2.421 1.919h1.86zM74.66 26.15c2.237 0 3.659-1.577 3.659-3.938 0-2.367-1.422-3.948-3.66-3.948-2.236 0-3.658 1.581-3.658 3.948 0 2.361 1.422 3.937 3.659 3.937zm.01-1.443c-1.238 0-1.845-1.103-1.845-2.5s.607-2.516 1.845-2.516c1.218 0 1.824 1.119 1.824 2.516s-.606 2.5-1.824 2.5zM81.646 21.526c0-1.104.666-1.74 1.616-1.74.93 0 1.486.611 1.486 1.63V26h1.8v-4.862c.005-1.83-1.039-2.874-2.615-2.874-1.143 0-1.929.547-2.277 1.397h-.09v-1.297h-1.72V26h1.8v-4.474zM92.19 18.364h-1.505v-1.83h-1.8v1.83H87.8v1.392h1.084V24c-.01 1.437 1.034 2.143 2.386 2.104a3.621 3.621 0 001.06-.18l-.304-1.407c-.1.025-.303.07-.527.07-.453 0-.816-.159-.816-.885v-3.947h1.507v-1.392zM93.696 26h1.8v-7.636h-1.8V26zm.905-8.72c.572 0 1.039-.438 1.039-.975 0-.541-.467-.979-1.04-.979-.576 0-1.043.438-1.043.98 0 .536.467.974 1.044.974zM99.146 21.526c0-1.104.666-1.74 1.616-1.74.93 0 1.486.611 1.486 1.63V26h1.8v-4.862c.005-1.83-1.039-2.874-2.615-2.874-1.143 0-1.929.547-2.277 1.397h-.09v-1.297h-1.72V26h1.8v-4.474zM110.745 22.788c0 1.164-.83 1.74-1.626 1.74-.865 0-1.442-.611-1.442-1.58v-4.584h-1.799v4.862c0 1.834 1.044 2.873 2.545 2.873 1.144 0 1.949-.601 2.297-1.456h.08V26h1.745v-7.636h-1.8v4.424zM117.726 26.15c2.237 0 3.659-1.577 3.659-3.938 0-2.367-1.422-3.948-3.659-3.948s-3.659 1.581-3.659 3.948c0 2.361 1.422 3.937 3.659 3.937zm.01-1.443c-1.238 0-1.844-1.103-1.844-2.5s.606-2.516 1.844-2.516c1.218 0 1.825 1.119 1.825 2.516s-.607 2.5-1.825 2.5zM127.78 22.788c0 1.164-.83 1.74-1.626 1.74-.865 0-1.441-.611-1.441-1.58v-4.584h-1.8v4.862c0 1.834 1.044 2.873 2.545 2.873 1.144 0 1.949-.601 2.297-1.456h.08V26h1.745v-7.636h-1.8v4.424zM137.466 20.382c-.249-1.293-1.283-2.118-3.072-2.118-1.84 0-3.093.905-3.088 2.317-.005 1.114.681 1.85 2.148 2.153l1.302.273c.701.154 1.03.438 1.03.87 0 .522-.567.915-1.422.915-.826 0-1.363-.358-1.517-1.044l-1.755.169c.224 1.402 1.402 2.232 3.277 2.232 1.909 0 3.256-.99 3.261-2.436-.005-1.089-.706-1.755-2.148-2.068l-1.302-.279c-.776-.174-1.084-.442-1.079-.884-.005-.517.567-.875 1.317-.875.831 0 1.268.452 1.407.954l1.641-.179zM64.454 41c3.103 0 4.942-1.919 4.942-5.1 0-3.173-1.84-5.082-4.872-5.082h-3.52V41h3.45zm-1.605-1.596v-6.99h1.57c2.069 0 3.148 1.154 3.148 3.485 0 2.342-1.08 3.505-3.202 3.505h-1.516zM74.45 41.15c1.78 0 3.003-.87 3.32-2.198l-1.68-.19c-.243.647-.84.985-1.615.985-1.164 0-1.934-.765-1.95-2.073h5.32v-.552c0-2.68-1.61-3.858-3.49-3.858-2.187 0-3.614 1.606-3.614 3.963 0 2.396 1.407 3.922 3.709 3.922zm-1.92-4.689c.055-.974.776-1.795 1.85-1.795 1.034 0 1.73.756 1.74 1.795h-3.59zM81.168 30.818h-1.8V41h1.8V30.818zM83.018 41h1.8v-7.636h-1.8V41zm.905-8.72c.572 0 1.04-.438 1.04-.975 0-.541-.468-.979-1.04-.979-.576 0-1.044.438-1.044.98 0 .536.468.974 1.044.974zM93.49 33.364h-1.914l-1.76 5.672h-.08l-1.755-5.672h-1.919L88.782 41h1.988l2.72-7.636zM97.856 41.15c1.78 0 3.003-.87 3.321-2.198l-1.68-.19c-.244.647-.84.985-1.616.985-1.163 0-1.934-.765-1.949-2.073h5.32v-.552c0-2.68-1.611-3.858-3.49-3.858-2.188 0-3.615 1.606-3.615 3.963 0 2.396 1.407 3.922 3.709 3.922zm-1.919-4.689c.055-.974.776-1.795 1.85-1.795 1.033 0 1.73.756 1.74 1.795h-3.59zM102.774 41h1.8v-4.49c0-.969.731-1.655 1.72-1.655.303 0 .681.055.835.105v-1.656a4.32 4.32 0 00-.646-.05c-.875 0-1.606.498-1.884 1.382h-.08v-1.272h-1.745V41zM109.676 43.864c1.402 0 2.212-.721 2.645-1.94l3.067-8.55-1.924-.01-1.765 5.767h-.079l-1.76-5.767h-1.909l2.769 7.795-.154.413c-.333.87-.86.93-1.646.7l-.417 1.403c.243.1.681.189 1.173.189z" fill="#fff"/><defs><linearGradient id="paint0_linear" x1="24.467" y1="10.5" x2="42.875" y2="45.5" gradientUnits="userSpaceOnUse"><stop stop-color="#62F91F"/><stop offset="1" stop-color="#45BD35"/></linearGradient></defs></svg>

