<svg fill="none" viewBox="0 0 168 56" xmlns="http://www.w3.org/2000/svg" xmlns:xlink="http://www.w3.org/1999/xlink"><linearGradient id="a" gradientUnits="userSpaceOnUse" x1="24.4671" x2="42.875" y1="10.5" y2="45.5"><stop offset="0" stop-color="#62f91f"/><stop offset="1" stop-color="#45bd35"/></linearGradient><g fill="#000"><path d="m62.6593 41.1242c1.233 0 1.8743-.7109 2.1676-1.3473h.0895v1.223h2.0881v-10.1818h-2.1129v3.8282h-.0647c-.2834-.6215-.8949-1.3822-2.1726-1.3822-1.6754 0-3.0923 1.3026-3.0923 3.9276 0 2.5554 1.3573 3.9325 3.0973 3.9325zm.6712-1.6853c-1.0391 0-1.6058-.9248-1.6058-2.2571 0-1.3225.5568-2.2323 1.6058-2.2323 1.0291 0 1.6058.87 1.6058 2.2323 0 1.3622-.5866 2.2571-1.6058 2.2571z"/><path d="m72.2259 41.1491c1.8892 0 3.1619-.9198 3.4602-2.3367l-1.9588-.1292c-.2138.5817-.7606.8849-1.4666.8849-1.059 0-1.7301-.701-1.7301-1.8395v-.0049h5.2003v-.5817c0-2.5952-1.5711-3.8779-3.5895-3.8779-2.2472 0-3.7039 1.5959-3.7039 3.9525 0 2.4211 1.4368 3.9325 3.7884 3.9325zm-1.6953-4.7379c.0447-.8701.7059-1.5661 1.6456-1.5661.9197 0 1.5561.6563 1.5611 1.5661z"/><path d="m79.2309 30.8181h-2.1179v10.1818h2.1179z"/><path d="m80.9274 40.9999h2.1179v-7.6363h-2.1179zm1.0639-8.6207c.6314 0 1.1485-.4822 1.1485-1.0739 0-.5866-.5171-1.0688-1.1485-1.0688-.6264 0-1.1434.4822-1.1434 1.0688 0 .5917.517 1.0739 1.1434 1.0739z"/><path d="m91.8612 33.3636h-2.2422l-1.581 5.4638h-.0795l-1.5859-5.4638h-2.2373l2.6698 7.6363h2.3864z"/><path d="m96.1653 41.1491c1.8893 0 3.162-.9198 3.4603-2.3367l-1.9588-.1292c-.2138.5817-.7607.8849-1.4667.8849-1.0589 0-1.7301-.701-1.7301-1.8395v-.0049h5.2003v-.5817c0-2.5952-1.571-3.8779-3.5895-3.8779-2.2471 0-3.7038 1.5959-3.7038 3.9525 0 2.4211 1.4368 3.9325 3.7883 3.9325zm-1.6953-4.7379c.0448-.8701.706-1.5661 1.6456-1.5661.9198 0 1.5561.6563 1.5611 1.5661z"/><path d="m101.052 40.9999h2.118v-4.3203c0-.9396.686-1.5859 1.621-1.5859.293 0 .696.0497.895.1143v-1.8792c-.189-.0448-.452-.0746-.666-.0746-.855 0-1.556.4972-1.835 1.4418h-.079v-1.3324h-2.054z"/><path d="m108.321 43.8636c1.576 0 2.411-.8054 2.844-2.0384l2.968-8.4517-2.243-.0099-1.595 5.6079h-.08l-1.581-5.6079h-2.227l2.739 7.8551-.124.3231c-.279.716-.81.7508-1.556.5221l-.477 1.5809c.303.1293.795.2188 1.332.2188z"/><path d="m63.176 26.1591c1.6904 0 2.804-1.0341 3.0029-2.3864h-1.1733c-.2188.8353-.9148 1.3324-1.8296 1.3324-1.392 0-2.2869-1.1534-2.2869-2.9233 0-1.7301.9148-2.8636 2.2869-2.8636 1.0341 0 1.6506.6363 1.8296 1.3324h1.1733c-.1989-1.4318-1.4119-2.3864-3.0227-2.3864-2.0682 0-3.4404 1.6307-3.4404 3.9574 0 2.2869 1.3125 3.9375 3.4602 3.9375z"/><path d="m70.9964 26.1591c2.0681 0 3.4602-1.571 3.4602-3.9375 0-2.3864-1.3921-3.9574-3.4602-3.9574-2.0682 0-3.4603 1.571-3.4603 3.9574 0 2.3665 1.3921 3.9375 3.4603 3.9375zm0-1.054c-1.5711 0-2.287-1.3523-2.287-2.8835 0-1.5313.7159-2.9034 2.287-2.9034 1.571 0 2.2869 1.3721 2.2869 2.9034 0 1.5312-.7159 2.8835-2.2869 2.8835z"/><path d="m77.4209 21.4062c0-1.3323.8253-2.088 1.9489-2.088 1.0887 0 1.75.7109 1.75 1.9091v4.7727h1.1733v-4.8523c0-1.9488-1.0391-2.8835-2.5853-2.8835-1.1534 0-1.8693.517-2.2272 1.2926h-.0995v-1.1932h-1.1335v7.6364h1.1733z"/><path d="m87.7581 18.3636h-1.6307v-1.8295h-1.1733v1.8295h-1.1534v.9944h1.1534v4.7727c0 1.3324 1.0739 1.9687 2.0682 1.9687.4375 0 .7159-.0795.875-.1392l-.2387-1.054c-.0994.0199-.2585.0597-.517.0597-.517 0-1.0142-.1591-1.0142-1.1534v-4.4545h1.6307z"/><path d="m89.523 26h1.1733v-7.6364h-1.1733zm.5966-8.9091c.4574 0 .8352-.3579.8352-.7954s-.3778-.7955-.8352-.7955-.8352.358-.8352.7955.3778.7954.8352.7954z"/><path d="m94.0186 21.4062c0-1.3323.8252-2.088 1.9488-2.088 1.0888 0 1.75.7109 1.75 1.9091v4.7727h1.1733v-4.8523c0-1.9488-1.039-2.8835-2.5852-2.8835-1.1534 0-1.8693.517-2.2273 1.2926h-.0994v-1.1932h-1.1335v7.6364h1.1733z"/><path d="m105.847 22.8778c0 1.4319-1.094 2.0881-1.969 2.0881-.974 0-1.67-.7159-1.67-1.8295v-4.7728h-1.173v4.8523c0 1.9489 1.034 2.8835 2.466 2.8835 1.153 0 1.909-.6164 2.267-1.392h.079v1.2926h1.174v-7.6364h-1.174z"/><path d="m112.272 26.1591c2.068 0 3.46-1.571 3.46-3.9375 0-2.3864-1.392-3.9574-3.46-3.9574s-3.46 1.571-3.46 3.9574c0 2.3665 1.392 3.9375 3.46 3.9375zm0-1.054c-1.571 0-2.287-1.3523-2.287-2.8835 0-1.5313.716-2.9034 2.287-2.9034s2.287 1.3721 2.287 2.9034c0 1.5312-.716 2.8835-2.287 2.8835z"/><path d="m122.335 22.8778c0 1.4319-1.093 2.0881-1.968 2.0881-.975 0-1.671-.7159-1.671-1.8295v-4.7728h-1.173v4.8523c0 1.9489 1.034 2.8835 2.466 2.8835 1.153 0 1.909-.6164 2.267-1.392h.079v1.2926h1.174v-7.6364h-1.174z"/><path d="m131.067 20.0739c-.368-1.0838-1.193-1.8097-2.705-1.8097-1.61 0-2.804.9148-2.804 2.2074 0 1.054.627 1.7599 2.029 2.0881l1.272.2983c.771.1789 1.134.5468 1.134 1.0738 0 .6563-.696 1.1932-1.79 1.1932-.959 0-1.561-.4126-1.77-1.233l-1.113.2785c.273 1.2975 1.342 1.9886 2.903 1.9886 1.775 0 2.983-.9695 2.983-2.2869 0-1.064-.666-1.7351-2.028-2.0682l-1.134-.2784c-.905-.2238-1.312-.527-1.312-1.1137 0-.6562.696-1.1335 1.63-1.1335 1.024 0 1.447.5668 1.651 1.0938z"/></g><path clip-rule="evenodd" d="m49.0332 16.8262c2.005 1.1352 3.2364 3.2687 3.2166 5.5726l-.0963 11.1683c-.0194 2.2462-1.2256 4.3145-3.171 5.4374l-10.0025 5.7734c-1.9454 1.1229-4.3397 1.1328-6.2943.026l-9.7189-5.503c-2.005-1.1352-3.2364-3.2687-3.2166-5.5727l.0963-11.1683c.0194-2.2461 1.2256-4.3144 3.171-5.4373l10.0025-5.7734c1.9454-1.1229 4.3397-1.1328 6.2943-.0261zm-3.5362 8.6714c-.5258 1.982-2.5366 3.1719-4.5023 2.6761l-9.3609-2.5323c-1.5417-.4174-3.1464-.2036-4.5253.6-1.3787.8034-2.3645 2.0994-2.7772 3.6558-.4132 1.5566-.2017 3.1817.5985 4.5807.8001 1.3989 2.0888 2.3963 3.631 2.8135 1.5417.4174 3.1464.2036 4.5251-.5998 1.3789-.8036 2.3647-2.0995 2.7774-3.6559l.3264-1.3079c.0412-.1651-.0573-.3329-.2216-.3773l-1.5725-.4256c-.169-.0457-.3425.0562-.3849.226l-.3191 1.2799c-.5324 2.0032-2.5805 3.196-4.5643 2.6597-1.9779-.5356-3.1538-2.5914-2.6243-4.5882.5258-1.982 2.5368-3.1728 4.5026-2.6771l9.3606 2.5333c1.5417.4174 3.1464.2036 4.5253-.6 1.3787-.8034 2.3645-2.0993 2.7772-3.6557.4132-1.5567.2017-3.1818-.5985-4.5807-.8001-1.399-2.0888-2.3964-3.631-2.8136-1.5417-.4174-3.1464-.2036-4.5251.5999-1.3789.8035-2.3647 2.0994-2.7774 3.6558l-.3088 1.034c-.0503.1684.0481.3452.2178.3911l1.5726.4256c.1635.0443.3325-.0498.381-.2121l.3091-1.0336c.5324-2.0033 2.5805-3.1961 4.5643-2.6597 1.9779.5355 3.1538 2.5914 2.6243 4.5881z" fill="url(#a)" fill-rule="evenodd"/></svg>