<svg viewBox="0 0 24 24" fill="currentcolor" xmlns="http://www.w3.org/2000/svg"><path fill-rule="evenodd" clip-rule="evenodd" d="M13.949 5.79a4.44 4.44 0 0 0-2.028 2.724l-.277 1.065 2.157.596.277-1.065c.303-1.165 1.468-1.857 2.597-1.546 1.13.313 1.802 1.514 1.5 2.678-.303 1.164-1.467 1.857-2.597 1.545l-.024-.006-6.23-1.722a4.211 4.211 0 0 0-3.304.448 4.44 4.44 0 0 0-2.028 2.724 4.578 4.578 0 0 0 .435 3.406 4.346 4.346 0 0 0 2.644 2.09 4.212 4.212 0 0 0 3.304-.447 4.44 4.44 0 0 0 2.028-2.725l.277-1.065-2.157-.596-.277 1.066c-.302 1.164-1.467 1.857-2.597 1.545-1.13-.312-1.803-1.513-1.5-2.678a2.171 2.171 0 0 1 .988-1.326 2.06 2.06 0 0 1 1.609-.219L15 14.01a4.212 4.212 0 0 0 3.304-.448 4.44 4.44 0 0 0 2.028-2.724 4.577 4.577 0 0 0-.436-3.405 4.346 4.346 0 0 0-2.644-2.091 4.211 4.211 0 0 0-3.303.447z" fill="currentColor"/></svg>