<?xml version="1.0" encoding="UTF-8"?>
<svg width="38px" height="37px" viewBox="0 0 38 37" version="1.1" xmlns="http://www.w3.org/2000/svg" xmlns:xlink="http://www.w3.org/1999/xlink">
    <!-- Generator: Sketch 62 (91390) - https://sketch.com -->
    <title>Cluster</title>
    <desc>Created with Sketch.</desc>
    <g id="GA-Use-cases" stroke="none" stroke-width="1" fill="none" fill-rule="evenodd">
        <g id="Overview---Full-Data-(GA)" transform="translate(-739.000000, -758.000000)" fill="#E4E7EB">
            <g id="Cluster" transform="translate(524.000000, 620.000000)">
                <g id="Group-15" transform="translate(134.000000, 138.000000)">
                    <g id="Group-18">
                        <path d="M107.051196,15.4532911 C112.857596,15.4532911 117.564107,20.1602244 117.564107,25.9666244 C117.564107,31.7730244 112.857596,36.4799578 107.051196,36.4799578 C101.244796,36.4799578 96.5378622,31.7730244 96.5378622,25.9666244 C96.5378622,20.1602244 101.244796,15.4532911 107.051196,15.4532911 Z M87.7555556,20.8578622 C91.4863111,20.8578622 94.5111111,23.88224 94.5111111,27.6134178 C94.5111111,31.3441733 91.4863111,34.3689733 87.7555556,34.3689733 C84.0248,34.3689733 81,31.3441733 81,27.6134178 C81,23.88224 84.0248,20.8578622 87.7555556,20.8578622 Z M99.0289733,6.12213778 C101.687284,6.12213778 103.841884,8.27716 103.841884,10.9354711 C103.841884,13.5937822 101.687284,15.7488044 99.0289733,15.7488044 C96.3706622,15.7488044 94.21564,13.5937822 94.21564,10.9354711 C94.21564,8.27716 96.3706622,6.12213778 99.0289733,6.12213778 Z M112.666667,1.26658222 C116.164356,1.26658222 119,4.10222667 119,7.59991556 C119,11.0980267 116.164356,13.9332489 112.666667,13.9332489 C109.168978,13.9332489 106.333333,11.0980267 106.333333,7.59991556 C106.333333,4.10222667 109.168978,1.26658222 112.666667,1.26658222 Z M92.2734178,0.422137778 C93.99904,0.422137778 95.3978622,1.82096 95.3978622,3.54658222 C95.3978622,5.27220444 93.99904,6.67102667 92.2734178,6.67102667 C90.5477956,6.67102667 89.1489733,5.27220444 89.1489733,3.54658222 C89.1489733,1.82096 90.5477956,0.422137778 92.2734178,0.422137778 Z" id="Cluster"></path>
                    </g>
                </g>
            </g>
        </g>
    </g>
</svg>