<svg height="37" viewBox="0 0 38 37" width="38" xmlns="http://www.w3.org/2000/svg"><path d="m107.051196 15.4532911c5.8064 0 10.512911 4.7069333 10.512911 10.5133333s-4.706511 10.5133334-10.512911 10.5133334-10.5133338-4.7069334-10.5133338-10.5133334 4.7069338-10.5133333 10.5133338-10.5133333zm-19.2956404 5.4045711c3.7307555 0 6.7555555 3.0243778 6.7555555 6.7555556 0 3.7307555-3.0248 6.7555555-6.7555555 6.7555555-3.7307556 0-6.7555556-3.0248-6.7555556-6.7555555 0-3.7311778 3.0248-6.7555556 6.7555556-6.7555556zm11.2734177-14.73572442c2.6583107 0 4.8129107 2.15502222 4.8129107 4.81333332s-2.1546 4.8133333-4.8129107 4.8133333c-2.6583111 0-4.8133333-2.1550222-4.8133333-4.8133333s2.1550222-4.81333332 4.8133333-4.81333332zm13.6376937-4.85555556c3.497689 0 6.333333 2.83564445 6.333333 6.33333334 0 3.49811114-2.835644 6.33333334-6.333333 6.33333334s-6.333334-2.8352222-6.333334-6.33333334c0-3.49768889 2.835645-6.33333334 6.333334-6.33333334zm-20.3932492-.84444444c1.7256222 0 3.1244444 1.39882222 3.1244444 3.12444444s-1.3988222 3.12444445-3.1244444 3.12444445-3.1244445-1.39882223-3.1244445-3.12444445 1.3988223-3.12444444 3.1244445-3.12444444z" fill="#e4e7eb" fill-rule="evenodd" transform="translate(-81)"/></svg>