<svg viewBox="0 0 100 100" xmlns="http://www.w3.org/2000/svg" xmlns:xlink="http://www.w3.org/1999/xlink"><defs><linearGradient x1="49.646%" y1="31.729%" x2="8.204%" y2="59.895%" id="c"><stop stop-color="#9928CC" offset="0%"/><stop stop-color="#B933F4" offset="100%"/></linearGradient><filter x="-3.2%" y="-1.5%" width="106.3%" height="105.9%" filterUnits="objectBoundingBox" id="a"><feOffset dy="1" in="SourceAlpha" result="shadowOffsetOuter1"/><feGaussianBlur stdDeviation=".5" in="shadowOffsetOuter1" result="shadowBlurOuter1"/><feColorMatrix values="0 0 0 0 0 0 0 0 0 0 0 0 0 0 0 0 0 0 0.4 0" in="shadowBlurOuter1"/></filter><path d="M29.591 14l32.269 2.908.457 3.184-3.46-.248 1.412 9.75.449.22c3.652 1.8 8.784 4.606 12.156 7.987l.373.38c3.794 3.953 5.86 8.477 6.521 13.197l.063.485c.715 5.991-.872 11.984-4.21 17.042l-.253.379c-3.696 5.391-9.544 9.483-16.797 11.444l-.668.174A36.82 36.82 0 0148.991 82h-.051l-.635-.006c-5.077-.092-10.178-1.228-14.91-3.47l-.44-.213c-8.478-4.157-14.235-11.12-15.556-19.463l-.065-.43c-2.052-14.137 5.478-25.404 19.146-29.354l-1.659-10.951-4.654-.335L29.59 14zm12.047 5.336l1.998 13.36-2.186.443-.37.099C29.653 36.366 22.702 45.673 24.6 57.812c1.811 11.59 13.555 19.097 25.965 19.095l.658-.007c2.197-.047 4.411-.33 6.589-.87l.484-.124c5.938-1.58 10.74-4.923 13.77-9.383l.263-.397c2.756-4.262 3.853-9.314 3.134-14.407l-.045-.297c-1.101-6.757-7.474-15.026-18.782-18.232l-1.481-.436-1.84-12.575-11.678-.843zm31.205 31.156l.158.473c.252.792.442 1.609.563 2.45l.04.304c1.039 8.618-5.737 17.255-16.355 19.672l-.366.08C44.792 76.044 32.47 69.753 30.79 58.878l-.066-.477a15.139 15.139 0 01-.034-3.302l.914.163c7.914 1.372 15.712 1.612 23.07.667 7.05-.903 13.12-2.823 18.17-5.436zM60.752 69.2c-.142-.521-.693-.838-1.294-.717l-.127.032c-.579.178-.972.732-.89 1.289.075.512.527.857 1.061.857l.135-.007.138-.021.125-.034c.572-.184.956-.732.876-1.284zm-10.276-2.902c-.208-.85-1.142-1.387-2.166-1.21l-.154.031c-1.007.245-1.707 1.126-1.572 2.027.123.823.894 1.381 1.804 1.381l.142-.004a2.27 2.27 0 00.288-.037l.159-.036c.987-.26 1.659-1.133 1.526-2.015zm11.65-7.884c-.334-1.602-1.982-2.696-3.805-2.458l-.191.03c-1.829.334-3.113 1.924-2.861 3.63.23 1.566 1.674 2.658 3.335 2.658l.21-.006c.14-.008.282-.024.425-.047l.191-.037c1.769-.388 2.964-1.96 2.726-3.597zm6.843.861c-.226-1.032-1.254-1.723-2.38-1.556l-.152.028c-1.109.242-1.874 1.266-1.717 2.357.146 1.013 1.04 1.721 2.07 1.721l.128-.004c.085-.005.172-.015.259-.03l.157-.033c1.084-.265 1.813-1.28 1.661-2.34z" id="b"/></defs><g fill="none" fill-rule="evenodd"><g><use fill="#000" filter="url(#a)" xlink:href="#b"/><use fill="url(#c)" xlink:href="#b"/></g><path d="M0 0h95v95H0z"/></g></svg>