<svg fill="none" xmlns="http://www.w3.org/2000/svg" viewBox="0 0 31 22"><path d="M15.357 20.552c0 .276.217.5.486.5h8.105v-.005c3.412-.137 6.136-3.028 6.136-6.574 0-3.449-2.579-6.279-5.86-6.556a.538.538 0 01-.478-.429C22.86 3.21 19.166 0 14.746 0 9.662 0 5.542 4.241 5.542 9.473a.115.115 0 01-.091.114c-2.573.532-4.51 2.871-4.51 5.676 0 3.197 2.517 5.79 5.623 5.79h6.47a.493.493 0 00.486-.5v-1.569a.523.523 0 00-.423-.51c-1.011-.2-1.877-.63-2.47-1.244-.53-.55-.847-1.232-.945-2.032a.454.454 0 01.46-.504l1.082.005c.26.002.467.215.526.475.248 1.093 1.21 1.813 2.633 1.82.555.003 2.623-.264 2.63-1.736.005-1.176-1.498-1.623-2.92-1.984-.243-.062-.49-.125-.737-.193-1.608-.44-3.31-.943-3.3-3.062.01-2.058 1.692-3.119 3.464-3.335V4.71c0-.276.218-.5.486-.5h.862c.268 0 .486.224.486.5v2.028c1.278.212 3 .878 3.292 2.907a.452.452 0 01-.458.51l-1.087-.005c-.25-.001-.45-.2-.525-.445-.282-.926-1.166-1.488-2.46-1.494-.861-.005-2.109.466-2.114 1.54-.004.973.72 1.305 3.42 2.023l.358.094.144.036c1.029.256 3.14.78 3.13 3.11-.01 1.838-1.23 3.096-3.27 3.47a.522.522 0 00-.428.511v1.557z" fill="url(#paint0_linear)"/><defs><linearGradient id="paint0_linear" x1="5.625" y1="-1.607" x2="19.326" y2="27.167" gradientUnits="userSpaceOnUse"><stop stop-color="#00CFDE"/><stop offset="1" stop-color="#05A660"/></linearGradient></defs></svg>