<svg height="16" width="22" xmlns="http://www.w3.org/2000/svg"><g fill="none" fill-rule="evenodd"><path d="M16.5 4.452c-.132 0-.264.034-.396.045C15.213 1.88 12.782 0 9.9 0 6.259 0 3.3 2.994 3.3 6.679c0 .055.011.1.011.155A4.42 4.42 0 000 11.131c0 2.46 1.969 4.452 4.4 4.452h12.1c3.036 0 5.5-2.493 5.5-5.565 0-3.072-2.464-5.566-5.5-5.566z" fill="#25a6f7"/><path d="M14.091 9.288c-.068-.206-.171-.399-.309-.577s-.31-.337-.516-.482a2.683 2.683 0 00-.721-.33c-.11-.027-.296-.075-.55-.137-.241-.062-.502-.124-.77-.193s-.51-.13-.73-.185a8.521 8.521 0 00-.37-.09c-.296-.082-.537-.199-.722-.357s-.275-.378-.275-.653c0-.2.048-.365.144-.495s.22-.234.371-.316c.152-.076.317-.131.495-.165.18-.035.358-.055.53-.055.508 0 .928.103 1.258.316.33.206.515.57.557 1.072h1.471c0-.412-.09-.777-.261-1.086s-.406-.577-.702-.79-.639-.372-1.024-.482a5.72 5.72 0 00-.516-.096v-.75c0-.378-.309-.687-.687-.687s-.688.31-.688.687v.743c-.158.02-.316.048-.467.09a3.21 3.21 0 00-.99.419 2.34 2.34 0 00-.701.722c-.179.295-.268.639-.268 1.03 0 .207.027.406.089.606s.158.385.302.564.33.336.571.48.543.262.9.352c.585.144 1.073.26 1.472.357.399.09.742.193 1.045.289.172.062.33.158.474.302.145.145.22.365.22.667 0 .145-.034.289-.096.433s-.165.27-.31.378c-.144.11-.322.2-.556.269a2.872 2.872 0 01-.825.103 3.54 3.54 0 01-.832-.097 2.19 2.19 0 01-.68-.295c-.2-.138-.351-.31-.461-.523s-.165-.467-.165-.77H7.333c.007.49.103.908.296 1.265.186.358.44.647.756.873s.68.4 1.107.51c.186.048.385.082.584.11v.749c0 .378.31.687.688.687s.687-.31.687-.687v-.722c.207-.021.42-.055.62-.103.398-.09.755-.234 1.072-.434s.57-.453.762-.763c.193-.308.29-.687.29-1.127 0-.213-.035-.42-.104-.626" fill="#fff"/></g></svg>