<svg height="16" viewBox="0 0 22 16" width="22" xmlns="http://www.w3.org/2000/svg"><g fill="none" fill-rule="evenodd"><path d="m16.5 4.45238095c-.132 0-.264.03339286-.396.04452381-.891-2.61577381-3.322-4.49690476-6.204-4.49690476-3.641 0-6.6 2.99422619-6.6 6.67857143 0 .05565476.011.10017857.011.15583333-1.903.48976191-3.311 2.21505953-3.311 4.29654764 0 2.4599405 1.969 4.4523809 4.4 4.4523809h12.1c3.036 0 5.5-2.4933333 5.5-5.5654762 0-3.07214281-2.464-5.56547615-5.5-5.56547615z" fill="#25a6f7"/><path d="m14.0914583 9.288125c-.06875-.20625-.171875-.39875-.309375-.5775s-.309375-.336875-.515625-.48125c-.20625-.1375-.446875-.2475-.721875-.33-.11-.0275-.295625-.075625-.55-.1375-.240625-.061875-.501875-.12375-.77-.1925s-.50875-.130625-.72875-.185625c-.213125-.055-.336875-.0825-.37125-.089375-.29562497-.0825-.53624997-.199375-.72187497-.3575s-.275-.378125-.275-.653125c0-.199375.048125-.364375.144375-.495s.22-.23375.37125-.31625c.15125-.075625.31625-.130625.49499997-.165.17875-.034375.3575-.055.529375-.055.50875 0 .928125.103125 1.258125.31625.33.20625.515625.570625.556875 1.0725h1.47125c0-.4125-.089375-.776875-.26125-1.08625s-.405625-.5775-.70125-.790625-.639375-.37125-1.024375-.48125c-.165-.04125-.336875-.06875-.515625-.09625v-.749375c0-.378125-.309375-.6875-.6875-.6875s-.6875.309375-.6875.6875v.7425c-.15812497.020625-.31624997.048125-.46749997.089375-.37125.089375-.70125.23375-.99.419375-.28875.1925-.5225.433125-.70125.721875-.17875.295625-.268125.639375-.268125 1.03125 0 .20625.0275.405625.089375.605s.158125.385.3025.56375.33.336875.570625.48125.543125.26125.900625.350625c.58437497.144375 1.07249997.26125 1.47124997.3575.39875.089375.7425.1925 1.045.28875.171875.061875.3293125.158125.4736875.3025.1450625.144375.2206875.3650625.2206875.666875 0 .144375-.034375.28875-.09625.433125s-.165.2688125-.309375.378125c-.144375.11-.323125.199375-.556875.268125-.226875.06875-.501875.103125-.825.103125-.295625 0-.5775-.034375-.831875-.09625-.25437497-.061875-.48124997-.165-.68062497-.2949375-.199375-.1381875-.350625-.3100625-.460625-.5231875s-.165-.4675-.165-.7693125h-1.464375c.006875.488125.103125.9068125.295625 1.2643125.185625.3575.44.64625.75625.873125s.680625.39875 1.106875.50875c.185625.0488125.385.0825.58437497.11v.749375c0 .378125.309375.6875.6875.6875s.6875-.309375.6875-.6875v-.721875c.20625-.020625.419375-.055.61875-.103125.39875-.089375.75625-.23375 1.0725-.433125s.570625-.45375.7624375-.763125c.1931875-.3086875.2894375-.6875.2894375-1.1275 0-.2124375-.034375-.419375-.103125-.625625" fill="#fff"/></g></svg>