<svg fill="none" xmlns="http://www.w3.org/2000/svg" viewBox="0 0 24 24"><path fill-rule="evenodd" clip-rule="evenodd" d="M1.01 16.246c.149 2.325 2.003 4.128 4.234 4.117H18.15c2.693 0 5.038-1.92 5.68-4.652.642-2.732-.584-5.569-2.97-6.872-1.227-.67-1.79-.793-2.543-.793-.752 0-1.499.157-2.442.993a.591.591 0 01-.58.219.615.615 0 01-.463-.426.653.653 0 01.136-.629c.585-.69.859-.825 1.564-1.084.705-.26.964-.26 1.777 0-2.023-3.007-6.296-4.078-9.292-2.152-2.997 1.927-4.04 5.956-2.382 9.198a.657.657 0 01-.019.632.6.6 0 01-.533.3.603.603 0 01-.515-.334 8.472 8.472 0 01-.89-3.19c-2.212.302-3.819 2.348-3.67 4.673zm12.345-3.213l.21.053c.566.14 1.89.465 1.89 1.883 0 1.169-.858 1.937-2.271 2.073v.586a.208.208 0 01-.207.207h-.52a.208.208 0 01-.207-.207v-.591c-.72-.08-1.342-.347-1.75-.759-.377-.382-.573-.876-.582-1.47h1.288c.035.786.617 1.252 1.57 1.252.327 0 1.393-.067 1.393-.92 0-.683-.792-.878-1.63-1.083-.143-.035-.288-.071-.434-.11-.948-.25-1.96-.621-1.96-1.85 0-1.222 1.035-1.843 2.105-1.953V9.54c0-.115.093-.208.207-.208h.52c.114 0 .207.093.207.208v.627c.817.115 2.003.532 2.043 1.985h-1.29c-.07-.689-.53-1.024-1.406-1.024-.507 0-1.1.221-1.1.845 0 .564.332.65 1.924 1.059z" fill="url(#paint0_linear)"/><defs><linearGradient id="paint0_linear" x1="-6.429" y1="9.286" x2="2.371" y2="28.433" gradientUnits="userSpaceOnUse"><stop stop-color="#00CFDE"/><stop offset="1" stop-color="#05A660"/></linearGradient></defs></svg>