<svg width="41" height="30" fill="none" xmlns="http://www.w3.org/2000/svg"><path d="M31.217 12.9l-3.772-.466a9.684 9.684 0 00-1.055-2.362l2.312-2.805a.417.417 0 00-.042-.58l-2.686-2.492a.5.5 0 00-.624-.038l-3.024 2.145a11.331 11.331 0 00-2.545-.98l-.503-3.499a.465.465 0 00-.471-.383h-3.8a.464.464 0 00-.47.383l-.503 3.5c-.9.226-1.754.558-2.545.979L8.465 4.156a.501.501 0 00-.624.039L5.155 6.687a.417.417 0 00-.042.58l2.313 2.805a9.679 9.679 0 00-1.056 2.361l-3.772.467a.454.454 0 00-.412.437v3.525c0 .22.176.408.412.437l3.771.466a9.678 9.678 0 001.056 2.362l-2.312 2.806a.417.417 0 00.041.579l2.687 2.492c.092.086.213.13.336.13.101 0 .203-.03.288-.091l3.024-2.146c.791.42 1.645.752 2.545.98l.503 3.499c.031.22.233.383.47.383h3.8c.238 0 .44-.163.47-.383l.503-3.499a11.33 11.33 0 002.546-.98l3.023 2.146c.086.061.188.09.289.09a.494.494 0 00.336-.128l2.686-2.493a.417.417 0 00.042-.579l-2.312-2.805a9.682 9.682 0 001.055-2.362l3.772-.467a.454.454 0 00.412-.437v-3.525a.453.453 0 00-.412-.437zm-14.31 6.165c-2.36 0-4.274-1.775-4.274-3.965s1.914-3.966 4.274-3.966c2.361 0 4.274 1.775 4.274 3.966 0 2.19-1.913 3.965-4.274 3.965z" fill="#0278D5" opacity=".3"/><path d="M1.71 20.136l5.428 5.035 8.684-8.057 4.342 4.029L39.703 1" stroke="#0278D5" stroke-width="2" stroke-linecap="round"/></svg>