<svg width="32" height="31" fill="none" xmlns="http://www.w3.org/2000/svg"><path d="M0 24.99h3.99V0H0v24.99zm7.98 0h3.99V7.403H7.98V24.99zm7.98-10.181v10.18h3.99V14.81h-3.99z" fill="#0278D5" opacity=".3"/><g clip-path="url(#clip0)"><path d="M30.014 27.178l-4.198-3.895c1.008-1.409 1.598-3.096 1.598-4.91 0-4.914-4.31-8.912-9.606-8.912-5.297 0-9.606 3.998-9.606 8.912 0 4.915 4.31 8.913 9.606 8.913 1.955 0 3.773-.547 5.292-1.482l4.196 3.895c.376.348.984.348 1.359 0l1.358-1.26a.846.846 0 000-1.26zm-19.89-8.805c0-3.93 3.447-7.13 7.684-7.13s7.684 3.2 7.684 7.13c0 3.932-3.447 7.13-7.684 7.13s-7.685-3.198-7.685-7.13z" fill="#0278D5"/></g><defs><clipPath id="clip0"><path fill="#fff" transform="translate(8.202 9.46)" d="M0 0h23.054v21.39H0z"/></clipPath></defs></svg>