<svg viewBox="0 0 65 66" xmlns="http://www.w3.org/2000/svg" xmlns:xlink="http://www.w3.org/1999/xlink"><defs><linearGradient x1="0%" y1="50%" x2="100%" y2="50%" id="c"><stop stop-color="#F6C800" offset="0%"/><stop stop-color="#DD9E15" offset="100%"/></linearGradient><filter x="-3.2%" y="-1.6%" width="106.3%" height="106.3%" filterUnits="objectBoundingBox" id="a"><feOffset dy="1" in="SourceAlpha" result="shadowOffsetOuter1"/><feGaussianBlur stdDeviation=".5" in="shadowOffsetOuter1" result="shadowBlurOuter1"/><feColorMatrix values="0 0 0 0 0 0 0 0 0 0 0 0 0 0 0 0 0 0 0.4 0" in="shadowBlurOuter1"/></filter><path d="M52.57 16.625l8.56 2.014v7.432l.418.152c3.138 1.176 4.67 2.485 6.56 4.126l4.663-4.3 5.084 6.964-4.33 4.612.122.233c1.03 1.996 1.528 3.41 1.948 6.869l4.363.151v6.826l-4.34.15-.05.407c-.409 3.31-.699 4.856-1.77 6.901l4.178 4.932-5.191 6.947-4.64-4.35-.246.213c-1.865 1.615-3.489 2.879-6.77 4.054v6.988l-8.558 2.012v-7.377l-.388.004c-8.11.069-6.218-.905-8.977-2.12l-7.489 7.445-9.898-6.949 7.757-7.9-.199-.246c-2.042-2.522-3.793-4.718-4.64-9.516l-12.112.355V42.927l12.119.358.083-.442c.922-4.628 2.979-6.502 5.042-9.054l-7.824-7.927 9.941-6.814 7.253 7.503.125-.057c2.614-1.214.78-2.102 9.207-2.017v-7.852zm4.048 12.986C45.79 28.308 35.72 36.51 35.72 48.317c0 10.977 8.702 18.837 18.628 18.836l.516-.007c.69-.019 1.384-.076 2.081-.173l.348-.051c9.242-1.456 15.804-9.648 15.804-18.611l-.003-.336c-.164-8.943-6.84-17.038-16.149-18.322zm10.535 8.6l-6.43 10.083-.008.232a3.974 3.974 0 01-1.148 2.548l-.155.147a3.85 3.85 0 01-5.359-.19l-.15-.164a4 4 0 01.308-5.55l.187-.163c.763-.62 1.691-.9 2.603-.86l10.152-6.082z" id="b"/></defs><g fill="none" fill-rule="evenodd"><g transform="translate(-16 -16)"><use fill="#000" filter="url(#a)" xlink:href="#b"/><use fill="url(#c)" xlink:href="#b"/></g><path d="M-16-16h95v95h-95z"/></g></svg>