<svg fill="none" xmlns="http://www.w3.org/2000/svg" viewBox="0 0 20 21"><path fill-rule="evenodd" clip-rule="evenodd" d="M18.378 10.6c0-4.63-3.749-8.378-8.378-8.378A8.376 8.376 0 001.622 10.6a8.377 8.377 0 004.76 7.56l.007.012.05.102 1.177 2.04C3.243 19.245 0 15.303 0 10.6 0 5.076 4.476.6 10 .6s10 4.476 10 10a9.998 9.998 0 01-10.259 9.997.893.893 0 00-.014-.128c-.252-.071-.372-.213-.496-.427L3.965 10.38c-.189-.326-.16-.945.08-1.083a.354.354 0 01.227-.03l.059.012-.016.03-.017.036a.694.694 0 01.218.015l.093.03.04.022c.094.057.183.126.256.201l.066.083c.026.037.05.077.075.119.445.782 1.172 2.032 2.178 3.75l.134.228L5.027 9.77a.834.834 0 00-.122-.158l-.015-.018a.766.766 0 00-.272-.202l-.009-.003-.055-.03a1.075 1.075 0 00-.19-.074l-.033-.007.007-.011c.133-.245.609-1.005 1.526-1.327l.19-.059c2.14-.569 2.346.192 4.49-.378 1.034-.275 1.976-.915 2.35-1.191l.108-.082c.041-.031.063-.05.063-.05l3.34 5.333s-1.182.967-2.522 1.323c-2.142.57-2.347-.19-4.49.379-1.237.328-1.75 1.061-1.75 1.061l-.198-.335 2.916 5.03a8.376 8.376 0 008.017-8.371z" fill="url(#paint0_linear)"/><defs><linearGradient id="paint0_linear" x1="3.54" y1=".6" x2="15.939" y2="19.793" gradientUnits="userSpaceOnUse"><stop stop-color="#FFC100"/><stop offset="1" stop-color="#E66B35"/></linearGradient></defs></svg>