<svg fill="none" xmlns="http://www.w3.org/2000/svg" viewBox="0 0 28 28"><path d="M9.3.96a5.041 5.041 0 00-5.84 4.09L.99 19.046a5.041 5.041 0 004.09 5.84l7.238 1.276a.2.2 0 00.208-.298l-6.87-11.716c-.288-.456-.284-1.343.049-1.554a4.95 4.95 0 00.303-.252l.387-.424.064-.07c.359-.394.683-.751 1.71-1.264l.22-.077c1.504-.47 2.34-.436 3.177-.402.837.034 1.674.068 3.18-.403 1.236-.386 2.36-1.144 2.987-1.62a.604.604 0 01.873.148l4.466 7.15a.514.514 0 01-.1.676 8.445 8.445 0 01-2.752 1.495c-1.504.47-2.362.45-3.22.429-.86-.02-1.718-.041-3.224.43-1.27.396-1.809.914-2.007 1.165-.049.061-.07.21-.033.28.393.71 2.225 3.934 3.676 6.485a.998.998 0 00.695.49l2.97.524a5.041 5.041 0 005.84-4.09l2.468-13.997a5.041 5.041 0 00-4.09-5.84L9.3.96z" fill="url(#paint0_linear)"/><path d="M15.142 11.64c-1.266.331-2.033.307-2.8.283-.767-.024-1.534-.048-2.799.282-.72.209-1.142.573-1.54 1.038a.197.197 0 00-.016.23l2.405 3.944c.064.105.209.13.308.055.366-.277 1.243-.873 2.344-1.16 1.427-.372 2.281-.364 3.18-.355.697.006 1.42.013 2.458-.156a4.326 4.326 0 001.582-.617.337.337 0 00.091-.474l-2.468-3.822a.41.41 0 00-.544-.123 9.322 9.322 0 01-2.201.876z" fill="url(#paint1_linear)"/><defs><linearGradient id="paint0_linear" x1="5.613" y1=".883" x2="22.072" y2="26.361" gradientUnits="userSpaceOnUse"><stop stop-color="#FFC100"/><stop offset="1" stop-color="#E66B35"/></linearGradient><linearGradient id="paint1_linear" x1="5.613" y1=".883" x2="22.072" y2="26.361" gradientUnits="userSpaceOnUse"><stop stop-color="#FFC100"/><stop offset="1" stop-color="#E66B35"/></linearGradient></defs></svg>