<svg viewBox="0 0 32 32" xmlns="http://www.w3.org/2000/svg"><path d="M10.632 2.07971c-2.82243-.49768-5.51395 1.38693-6.01163 4.20941L2.07971 20.698c-.49768 2.8224 1.38693 5.514 4.20941 6.0116l7.46438 1.3162c.1679.0296.2935-.151.2072-.2981L6.88248 15.6562c-.29658-.4692-.29241-1.3825.05036-1.6001.07852-.0505.31177-.259.31177-.259l.39862-.4359.06546-.0718c.36979-.4065.70389-.7738 1.75973-1.3023l.22718-.0791c1.5487-.4838 2.4098-.4488 3.2711-.4139.8615.035 1.7232.07 3.2734-.4142 1.2722-.3974 2.4293-1.17776 3.0743-1.66713.2862-.21723.7089-.15379.8993.15103l4.5967 7.3608c.143.229.1072.525-.1017.696-.4965.4061-1.5001 1.122-2.8336 1.5385-1.5487.4837-2.4322.4627-3.3158.4417-.8839-.021-1.768-.042-3.3182.4422-1.3142.4105-1.868.9475-2.0695 1.2038-.0485.0616-.0703.2104-.0324.279.3995.7242 2.2948 4.0598 3.7934 6.6936.1472.2588.4018.4378.695.4895l3.0704.5414c2.8224.4977 5.514-1.3869 6.0116-4.2094l2.5407-14.4089c.4977-2.82243-1.3869-5.51395-4.2094-6.01163L10.632 2.07971Z" fill="url(#a)"/><path d="M16.6465 13.0743c-1.3034.3401-2.0932.3153-2.8829.2906-.7894-.0248-1.5787-.0496-2.8808.2902-.7439.2156-1.1778.592-1.58721 1.072-.05524.0648-.06157.1578-.01723.2305l2.48154 4.0684c.0644.1056.209.1297.3076.055.3732-.2826 1.2802-.9008 2.4193-1.198 1.4688-.3833 2.348-.3747 3.2737-.3657.7169.0069 1.4619.0142 2.5302-.1601.7166-.1169 1.3017-.4284 1.6278-.6356.1658-.1054.2014-.3225.0948-.4875L19.4717 12.3c-.1188-.184-.3687-.2355-.5593-.1276-.4181.2366-1.2035.6248-2.2659.9019Z" fill="url(#b)"/><defs><linearGradient id="a" x1="6.83717" y1="2" x2="23.7805" y2="28.2273" gradientUnits="userSpaceOnUse"><stop stop-color="#ffffff"/><stop offset="1" stop-color="#ffffff"/></linearGradient><linearGradient id="b" x1="6.83717" y1="2" x2="23.7805" y2="28.2273" gradientUnits="userSpaceOnUse"><stop stop-color="#ffffff"/><stop offset="1" stop-color="#ffffff"/></linearGradient></defs></svg>