<svg fill="none" xmlns="http://www.w3.org/2000/svg" viewBox="0 0 122 82"><circle cx="65.5" cy="34.5" r="7.5" fill="#CDF4FE"/><path d="M48.863 28.057c-.943 3.042-2.144 7.134-.573 10.168 1.946 3.758 3.604.229 4.086-2.233.467-2.384.55-7.54-2.508-8.486-2.337-.724-2.535 5.513-2.768 6.904" stroke="#000" stroke-linecap="round"/><path d="M19 17v12.543c0 2.025 0 5.995 2.775 7.808C24.551 39.163 28.14 40 36.441 40H50" stroke="#000" stroke-linecap="round"/><path d="M50 27.915c-3.38.191-8.41 0-14.748 0-4.343 0-5.252-.927-5.252-5.366V17M64 31v8M60 35h9M66.535 27.357c-6.523-1.638-15.096 6.827-7.652 12.61 7.267 6.278 18.64-3.388 12.227-10.013-3.009-3.108-9.492-3.98-12.778-1.571M78.237 32.906c0 .022.044 6.996 1.675 5.682.8-.644.908-2.282 1.007-3.196a16.199 16.199 0 00-.419-5.735c-.24-.94-1.831-4.744-2.3-1.878-.561 3.44-.09 7.047.962 10.327" stroke="#000" stroke-linecap="round"/><path d="M76 26.123c11.57 0 15.16-.276 19.417 0 8.653.56 7.536 13.12 7.536 19.219 0 6.098-.359 13.076-.359 21.658" stroke="#000" stroke-linecap="round"/><path d="M78 39h8.87c4.484 0 5.13 1.361 5.13 7.43V67" stroke="#000" stroke-linecap="round"/><path d="M48 32.36L51.929 29M53 31.52l-5 3.84m.714 2.64L53 34.64M78 31.987L80.357 29M81 31.24l-3 3.413M78.429 37L81 34.013" stroke="#000"/><path d="M17.747 31.639s8.513-4.176 12.193-6.49M22.726 38.224c1.928-1.927 7.389-7.549 9.776-10.567M90.433 40.57l10.43-10.83M91.902 43.618l12.568-5.792M91.008 61.603c1.793-.006 10.692-.516 12.478-.719M91.137 65.911c4.6.39 8.296.335 12.895.656M77 15l2 3M90 19c.612-1.401 1.307-2.676 2-4M43 49a92.14 92.14 0 01-5 3M50 53l2 4M17 17h14" stroke="#000" stroke-linecap="round"/></svg>