<svg fill="none" xmlns="http://www.w3.org/2000/svg" viewBox="0 0 26 26"><path fill-rule="evenodd" clip-rule="evenodd" d="M24 20.012h-8.8v3.8H24v-3.8zm-8.8-1.6a1.6 1.6 0 00-1.6 1.6v3.8a1.6 1.6 0 001.6 1.6H24a1.6 1.6 0 001.6-1.6v-3.8a1.6 1.6 0 00-1.6-1.6h-8.8z" fill="#4F5162"/><path fill-rule="evenodd" clip-rule="evenodd" d="M22.4 19.213v-4.279c0-.879-.142-1.012-.22-1.068-.073-.052-.23-.125-.57-.178-.338-.052-.791-.075-1.41-.075h-1.8v-1.6h1.8c.641 0 1.192.023 1.653.094.458.07.894.198 1.256.457.792.565.89 1.492.89 2.37v4.279h-1.6zM12.95 15.511a2.55 2.55 0 100-5.098 2.55 2.55 0 000 5.098zm0 1.6a4.15 4.15 0 100-8.298 4.15 4.15 0 000 8.298z" fill="#4F5162"/><path fill-rule="evenodd" clip-rule="evenodd" d="M11.218 12.363h3.547v1.2h-3.547v-1.2z" fill="#4F5162"/><path fill-rule="evenodd" clip-rule="evenodd" d="M12.35 14.778v-3.547h1.2v3.547h-1.2zM10.4 2.414H1.6v3.8h8.8v-3.8zM1.6.814a1.6 1.6 0 00-1.6 1.6v3.8a1.6 1.6 0 001.6 1.6h8.8a1.6 1.6 0 001.6-1.6v-3.8a1.6 1.6 0 00-1.6-1.6H1.6z" fill="#4F5162"/><path fill-rule="evenodd" clip-rule="evenodd" d="M3.2 6.414v4.278c0 .879.142 1.013.22 1.069.073.052.23.125.57.177.338.052.791.075 1.41.075h1.8v1.6H5.4c-.641 0-1.193-.022-1.654-.094-.458-.07-.894-.198-1.256-.456-.792-.566-.89-1.493-.89-2.371V6.414h1.6z" fill="#4F5162"/></svg>