<svg xmlns="http://www.w3.org/2000/svg" viewBox="0 0 32 32"><path fill-rule="evenodd" clip-rule="evenodd" d="M4.555 3.965a1.6 1.6 0 0 0-1.6 1.6v3.4a1.6 1.6 0 0 0 1.6 1.6h.169v3.68c0 .887.099 1.823.898 2.394.366.26.806.39 1.268.461.466.072 1.023.095 1.67.095h1.817v-1.616H8.56c-.625 0-1.083-.023-1.424-.075-.344-.053-.501-.127-.575-.18-.079-.056-.222-.191-.222-1.079v-3.68h6.616a1.6 1.6 0 0 0 1.6-1.6v-3.4a1.6 1.6 0 0 0-1.6-1.6h-8.4Zm0 1.6h8.4v3.4h-8.4v-3.4ZM28.883 24a1.6 1.6 0 0 0-1.544-1.6v-3.872c0-.887-.1-1.822-.898-2.393-.366-.261-.806-.39-1.269-.461-.465-.072-1.022-.095-1.67-.095h-1.817v1.616h1.818c.625 0 1.082.023 1.423.075.344.053.502.127.576.18.079.056.222.19.222 1.078V22.4h-6.841a1.6 1.6 0 0 0-1.6 1.6v3.4a1.6 1.6 0 0 0 1.6 1.6h8.4a1.6 1.6 0 0 0 1.6-1.6V24Zm-10.125-7.462a2.574 2.574 0 1 1-5.148-.001 2.574 2.574 0 0 1 5.148 0Zm1.615 0a4.19 4.19 0 1 1-8.378-.001 4.19 4.19 0 0 1 8.378 0Zm-3.584-.606h1.227v1.212h-1.227v1.227h-1.212v-1.227h-1.143v-1.211h1.143V14.79h1.212v1.143ZM27.283 24h-8.4v3.4h8.4V24Z" fill="currentColor"/></svg>