<?xml version="1.0" encoding="UTF-8"?>
<svg viewBox="0 0 42 42" xmlns="http://www.w3.org/2000/svg">
<path d="m22.83 12.623c0-1.1598 0.9402-2.1 2.1-2.1h11.025c1.1598 0 2.1 0.9402 2.1 2.1v4.4625c0 1.1598-0.9402 2.1-2.1 2.1h-11.025c-1.1598 0-2.1-0.9402-2.1-2.1v-4.4625zm13.125 0h-11.025v4.4625h11.025v-4.4625z" clip-rule="evenodd" fill="#0278D5" fill-rule="evenodd"/>
<path d="m22.83 24.944c0-1.1597 0.9402-2.0999 2.1-2.0999h11.025c1.1598 0 2.1 0.9402 2.1 2.0999v4.4625c0 1.1598-0.9402 2.1-2.1 2.1h-11.025c-1.1598 0-2.1-0.9402-2.1-2.1v-4.4625zm13.125 0h-11.025v4.4625h11.025v-4.4625z" clip-rule="evenodd" fill="#0278D5" fill-rule="evenodd"/>
<path d="m3.9648 12.6c0-1.1598 0.94021-2.1 2.1-2.1h11.025c1.1598 0 2.1 0.9402 2.1 2.1v4.4625c0 1.1598-0.9402 2.1-2.1 2.1h-11.025c-1.1598 0-2.1-0.9402-2.1-2.1v-4.4625zm13.125 0h-11.025v4.4625h11.025v-4.4625z" clip-rule="evenodd" fill="#0278D5" fill-rule="evenodd"/>
<path d="m23.625 16.471h-5.25v-2.1h5.25v2.1z" clip-rule="evenodd" fill="#0278D5" fill-rule="evenodd"/>
<path d="m12.862 18.703v3.9375c1e-4 0.8724 0.146 1.4796 0.3609 1.9094 0.208 0.4159 0.5066 0.7192 0.9148 0.9524 0.8825 0.5044 2.2648 0.682 4.2363 0.682h5.25v2.1h-5.25c-1.9655 0-3.8641-0.1505-5.2783-0.9587-0.7402-0.423-1.3438-1.0221-1.7511-1.8366-0.4003-0.8007-0.5825-1.7521-0.5826-2.8484v-3.9376h2.1z" clip-rule="evenodd" fill="#0278D5" fill-rule="evenodd"/>
</svg>
