<?xml version="1.0" encoding="UTF-8"?>
<svg fill="currentColor" viewBox="0 0 50 38" xmlns="http://www.w3.org/2000/svg">
<circle cx="10.45" cy="22.166" r="5.2913" fill="#A4CDF8"/>
<path d="m6.0114 17.907c2.5849-1.1323 4.5438-0.6282 6.4109 1.2563 1.867 1.8845 1.5943 7.5381-3.7348 7.5381-3.2112 0-5.462-1.9844-4.9773-5.6536 1.2445-3.769 5.3726-4.866 8.0896-3.769" stroke="#000" stroke-linecap="round" stroke-linejoin="round"/>
<path d="m7.7391 24.22c-0.00116-2.0948-7.3e-4 -2.7931-7.3e-4 -4.8879l3.2755 2.7931c-1.0917 0.6983-3.2747 2.3443-3.2748 2.0948z" stroke="#000" stroke-linecap="round" stroke-linejoin="round"/>
<path d="m5.1567 22.165c-0.50708-0.169-0.7559 4.5354-0.7559 5.6693-0.37796 3.0236 1.1339 7.1811 4.1575 6.4252 3.0236-0.7559 2.6457-5.6693 2.6457-6.8032 0-1.1338-0.7559-1.5118-1.1339-1.5118-0.30234 0-0.6299 1.2599-0.75589 1.8898-0.12598-0.7559-0.45354-2.2677-0.7559-2.2677s-0.62992 1.2598-0.75591 1.8897c-0.12598-0.7559-0.45354-2.1921-0.7559-1.8897-0.37796 0.3779-0.37796 2.6456-0.75591 1.5118-0.37795-1.1339 0-4.5355-1.1339-4.9134z" fill="#fff"/>
<path d="m6.5149 28.487c-0.21727-2.0785-0.18578-6.3227-1.0563-6.3227-1.0563 0-1.0563 5.3659-1.0563 6.8398 0 2.4182 0.23923 5.0995 3.4081 5.2507 3.2916 0.157 3.4739-4.3616 3.3769-6.7036-0.0306-0.7394-0.3058-1.9854-1.2018-1.4575-0.6668 0.3928-0.55227 1.6806-0.55227 2.3933 0 0.1414-0.06788 0.768-0.07377 0.3201-0.00955-0.7267 0.05781-1.4745-0.04508-2.1959-0.04672-0.3276-0.26792-1.491-0.76637-0.8783-0.47616 0.5852-0.71737 1.465-0.73768 2.2041-0.00717 0.261 0 1.0933 0 0.353 0-0.9683-0.18736-2.5571-0.39013-2.8008-0.75449-0.9068-1.0305 2.1522-0.90539 2.9978z" stroke="#000" stroke-linecap="round" stroke-linejoin="round"/>
<path d="m5.1566 18.388c-1.8898-3.7795-2.99-9.7932-2.2301-15.872" stroke="#000" stroke-linecap="round" stroke-linejoin="round"/>
<path d="M1 5.91339L2.88976 1" stroke="#000" stroke-linecap="round" stroke-linejoin="round"/>
<path d="m2.8906 1c0.60883 1.9084 1.192 3.8245 2.0321 5.6448" stroke="#000" stroke-linecap="round" stroke-linejoin="round"/>
<path d="m14.217 24.755c1.8803-0.4381 3.2907-0.288 4.8608 0.9408 2.765 2.1639 4.8643 5.1512 7.8086 7.0936 3.0313 1.9998 9.9396 1.4714 13.421 1.4714" stroke="#000" stroke-linecap="round" stroke-linejoin="round"/>
<path d="m34.65 32.996 6.7899 1.2644" stroke="#000" stroke-linecap="round" stroke-linejoin="round"/>
<path d="m34.639 36.529 6.8031-2.2677" stroke="#000" stroke-linecap="round" stroke-linejoin="round"/>
<path d="m14.104 22.949c2.6635-1.1353 5.6438-1.3956 8.5174-1.4426 3.6076-0.059 8.7264 0.232 9.2699 4.7165 0.1162 0.9582-0.0541 2.3067 0.8907 2.9102 0.9262 0.5918 2.2677 0.6411 3.3241 0.6774 3.3583 0.1154 8.0422-0.1841 11.382 0.2931" stroke="#000" stroke-linecap="round" stroke-linejoin="round"/>
<path d="m43.23 28.367c1.0793 0.4384 4.6735 1.3397 5.7689 1.7356" stroke="#000" stroke-linecap="round" stroke-linejoin="round"/>
<path d="m43.006 31.865c1.832-1.0292 3.8705-1.2608 5.8705-1.8063" stroke="#000" stroke-linecap="round" stroke-linejoin="round"/>
</svg>
