<svg viewBox="0 0 95 95" xmlns="http://www.w3.org/2000/svg" xmlns:xlink="http://www.w3.org/1999/xlink"><defs><linearGradient x1="0%" y1="92.378%" x2="100%" y2="7.622%" id="c"><stop stop-color="#F6B3E4" offset="0%"/><stop stop-color="#FE87DE" offset="100%"/></linearGradient><filter x="-3.2%" y="-1.7%" width="106.3%" height="106.9%" filterUnits="objectBoundingBox" id="a"><feOffset dy="1" in="SourceAlpha" result="shadowOffsetOuter1"/><feGaussianBlur stdDeviation=".5" in="shadowOffsetOuter1" result="shadowBlurOuter1"/><feColorMatrix values="0 0 0 0 0 0 0 0 0 0 0 0 0 0 0 0 0 0 0.4 0" in="shadowBlurOuter1"/></filter><path d="M69.005 19.01l-8.428 1.23c-.645.094-1.43.649-1.24 1.26l3.68 11.942-2.243.532-.035.025c-.802.3-1.525.3-2.65-.62-1.167-.958-2.212-2.532-3.24-4.04-.827-1.21-1.556-2.217-2.427-3.1-.985-1.002-2.551-1.99-4.679-1.639l-5.808.956c-1.994-3.587-7.07-6.188-12.658-5.548-7.118.817-12.901 6.067-12.223 11.997.714 6.249 8.18 10.343 15.8 8.404 5.781-1.47 9.74-5.278 10.153-9.642l5.607-1.141c.443-.09 1.454 1.525 2.12 2.517 1.201 1.785 2.515 3.617 4.304 5.067.452.368.873.566 1.318.815-.259.476-.508.96-.71 1.562-.788 2.336-.909 5.156-1.03 7.666-.071 1.46.025 4.435-.455 4.621l-5.652 2.185c-2.115-4.36-7.905-7.12-14.166-5.153-7.82 2.46-14.14 10.642-13.246 18.465.68 5.953 5.241 9.613 10.869 9.629h.086c2.198-.008 4.556-.571 6.908-1.767 6.098-3.103 10.243-8.478 10.669-14.428l6.546-2.885c2.311-1.018 3.067-3.797 3.385-5.564.274-1.52.252-3.434.286-5.216.098-5.356.463-7.793 2.47-8.178l-.097-.005 2.298-.653 4.222 13.698c.244.797 1.499 1.306 2.175.998l8.751-3.981c.24-.11.33-.324.335-.59v-.035c-.005-.356-.154-.794-.294-1.189l-9.79-27.343c-.18-.505-.331-.862-.77-.862-.045 0-.09.003-.141.01M24.003 30.677c-.433-2.98 2.354-5.799 6.035-6.327 3.512-.504 6.688 1.255 7.24 3.96.564 2.77-1.79 5.676-5.414 6.456-.61.131-1.216.193-1.806.193-3.08 0-5.685-1.715-6.055-4.282m4.848 33.5c-.563-3.888 2.445-8.196 6.482-9.63 3.828-1.358 7.354.326 8.056 3.772.722 3.542-1.74 7.883-5.697 9.682-1.159.525-2.309.775-3.377.775-2.797 0-5.045-1.702-5.464-4.598" id="b"/></defs><g fill="none" fill-rule="evenodd"><g><use fill="#000" filter="url(#a)" xlink:href="#b"/><use fill="url(#c)" xlink:href="#b"/></g><path d="M0 0h95v95H0z"/></g></svg>