<svg xmlns="http://www.w3.org/2000/svg" fill="currentColor" viewBox="0 0 14 14">
  <path fill="#4F5162" fill-rule="evenodd" d="M6.145.383a.766.766 0 0 0-.734.014L.568 3.164a.383.383 0 0 0-.193.333v5.29c0 .264.137.51.363.65l6.8 4.209a.383.383 0 0 0 .39.007l5.31-3a.766.766 0 0 0 .388-.667v-5.28a.383.383 0 0 0-.206-.339L6.145.383Zm-.354.679 6.625 3.645-4.667 2.435-6.22-3.645 4.262-2.435ZM8.123 7.81l4.737-2.472v4.648l-4.737 2.678V7.81Zm-.766-.01v4.833L1.141 8.786v-4.63L7.357 7.8Z" clip-rule="evenodd"/>
</svg>