<?xml version="1.0" encoding="UTF-8"?>
<svg fill="currentColor" viewBox="0 0 50 49" xmlns="http://www.w3.org/2000/svg">
<path d="m8.2096 14.996-6.3619 13.572v7.6342l16.965 8.9067 21.206-2.9689 5.9378-13.572v-7.2102l-15.268-9.3308-22.479 2.9689z" fill="#fff"/>
<path d="m1 34.93c5.5494 3.0705 13.964 7.9553 19.51 11.027" stroke="#000" stroke-linecap="round" stroke-linejoin="round"/>
<path d="m39.172 42.987c2.1206-4.6654 3.393-7.6343 6.786-15.268" stroke="#000" stroke-linecap="round" stroke-linejoin="round"/>
<path d="m15.42 45.106c9.3308-1.2724 13.996-1.6965 25.872-3.8171" stroke="#000" stroke-linecap="round" stroke-linejoin="round"/>
<path d="m1.4238 27.297c5.5494 3.0704 13.964 7.9553 19.51 11.027" stroke="#000" stroke-linecap="round" stroke-linejoin="round"/>
<path d="m28.992 12.027c5.5494 3.0705 13.964 7.9554 19.51 11.027" stroke="#000" stroke-linecap="round" stroke-linejoin="round"/>
<path d="m1.8477 29.417c2.1206-4.6654 3.393-7.6343 6.786-15.269m30.961 21.206c2.1206-4.6654 3.393-7.6343 6.786-15.269" stroke="#000" stroke-linecap="round" stroke-linejoin="round"/>
<path d="m6.5137 15.844c9.3308-1.2724 13.996-1.6965 25.872-3.8172m-16.541 25.448c9.3307-1.2724 13.996-1.6965 25.872-3.8171" stroke="#000" stroke-linecap="round" stroke-linejoin="round"/>
<path d="m2.6445 27.321c0.00907 1.914 0.05104 6.969 0.05104 8.8833m15.642 0.4474c0.0091 1.9141 0.0511 6.9691 0.0511 8.8834m21.579-11.852c9e-3 1.914 0.051 6.969 0.051 8.8833m5.5136-22.055c0.0091 1.9141 0.0511 6.969 0.0511 8.8833" stroke="#000" stroke-linecap="round" stroke-linejoin="round"/>
<path d="m20.936 36.802-2.1206 7.7982m2.5445-0.4232 2.0056-7.375m0.5392 6.9509 2.0053-7.3741m2.6601-0.4242-2.0056 7.3751m4.5504-7.7983-2.0054 7.3741m4.9742-7.7983-2.1207 7.7983m4.6655-8.2215-2.1207 7.7983m4.6655-8.2224-2.1207 7.7983" stroke="#000" stroke-linecap="round" stroke-linejoin="round"/>
<path d="m42.141 35.766v-5.5021m1.6965 2.1207 0.0597-6.3961" stroke="#000" stroke-linecap="round" stroke-linejoin="round"/>
<path d="m8.6347 31.537-1.639 6.3092m3.7594-5.0368-1.6962 6.4924m4.241-5.22-1.7896 6.786m3.9102-5.3581-1.8031 6.6305m3.924-5.5137-1.782 6.6815m-9.2453-13.043-1.8097 6.786m-0.31088-7.6342-1.6967 6.2349" stroke="#000" stroke-linecap="round" stroke-linejoin="round"/>
<path d="m8.635 3.9705-5.9378 13.148 6.3619 2.9688 10.179 6.3619 21.63-3.8171 2.9689-6.3619 2.5448-5.9378-16.117-8.9066-21.63 2.5448z" fill="#A4CDF8"/>
<path d="m1.8496 16.27c5.5494 3.0705 13.964 7.9554 19.51 11.027" stroke="#000" stroke-dasharray="4 4" stroke-linecap="round" stroke-linejoin="round"/>
<path d="m29.418 1c5.5494 3.0705 13.964 7.9553 19.51 11.027" stroke="#000" stroke-dasharray="4 4" stroke-linecap="round" stroke-linejoin="round"/>
<path d="m2.6973 17.966c2.1206-4.6654 2.9689-7.2101 6.3619-14.844m30.961 21.206c2.1206-4.6654 3.393-7.6343 6.786-15.269" stroke="#000" stroke-dasharray="4 4" stroke-linecap="round" stroke-linejoin="round"/>
<path d="m6.9394 4.8171c9.3308-1.2724 13.996-1.6965 25.872-3.8171m-16.541 25.448c9.3308-1.2724 13.996-1.6965 25.872-3.8172" stroke="#000" stroke-dasharray="4 4" stroke-linecap="round" stroke-linejoin="round"/>
<path d="m20.51 11.602h4.2412m4.2413 0h-4.2413m0 0v-3.8171m0 3.8171v3.8171" stroke="#000" stroke-linecap="round" stroke-linejoin="round"/>
</svg>
