<svg fill="none" xmlns="http://www.w3.org/2000/svg" viewBox="0 0 20 20"><path fill-rule="evenodd" clip-rule="evenodd" d="M12.005 10.97a2.9 2.9 0 01-3.003-2.96 2.9 2.9 0 013.002-3.008 2.927 2.927 0 012.994 3.007 2.882 2.882 0 01-2.993 2.989v-.027zM6 .9a9.987 9.987 0 014.203-.9C15.56-.053 19.945 4.258 20 9.63v.144A9.928 9.928 0 0119.103 14l-3.092-3.102a5.15 5.15 0 00.762-2.697 4.743 4.743 0 00-4.93-4.937 5.013 5.013 0 00-2.688.765L6 .899zM3.991 2.2l-.099.09L7.36 5.734a5.16 5.16 0 00-.766 2.762c-.081 2.635 1.977 4.838 4.597 4.921.116.003.232.002.349-.002a5.116 5.116 0 002.774-.77L17.8 16.13A9.792 9.792 0 019.91 20c-5.393.08-9.829-4.25-9.908-9.673L0 10.153A9.645 9.645 0 013.99 2.2z" fill="url(#paint0_linear)"/><defs><linearGradient id="paint0_linear" x1="-6.46" y1="6.46" x2="6.46" y2="26.46" gradientUnits="userSpaceOnUse"><stop stop-color="#73DFE7"/><stop offset="1" stop-color="#0095F7"/></linearGradient></defs></svg>