<svg fill="none" xmlns="http://www.w3.org/2000/svg" viewBox="0 0 27 26"><path fill-rule="evenodd" clip-rule="evenodd" d="M26.142 13c0 1.604-.302 3.163-.83 4.6a.371.371 0 01-.619.13l-3.875-3.94a.546.546 0 01-.083-.628c.42-.827.63-1.773.63-2.762.055-3.222-2.526-5.878-5.71-5.878-1.011 0-1.938.26-2.743.706a.503.503 0 01-.605-.08l-3.45-3.504c-.243-.247-.169-.668.15-.794A12.11 12.11 0 0113.513 0c6.973 0 12.629 5.822 12.629 13zM6.204 2.42a.553.553 0 01.725.072l3.92 4.035c.173.178.188.46.053.67a5.951 5.951 0 00-.958 3.26c0 3.278 2.581 5.934 5.766 5.934a5.548 5.548 0 003.166-.985.505.505 0 01.65.054l4.244 4.368a.595.595 0 01.063.756C21.503 23.86 17.787 26 13.513 26 6.54 26 .885 20.178.885 13c0-4.403 2.082-8.231 5.319-10.58zm9.506 11.71c2.141 0 3.843-1.752 3.843-3.956 0-2.204-1.702-3.957-3.843-3.957-2.142 0-3.844 1.753-3.844 3.957 0 2.204 1.702 3.956 3.844 3.956z" fill="url(#paint0_linear)"/><defs><linearGradient id="paint0_linear" x1="-7.274" y1="8.398" x2="9.718" y2="33.949" gradientUnits="userSpaceOnUse"><stop stop-color="#73DFE7"/><stop offset="1" stop-color="#0095F7"/></linearGradient></defs></svg>