<?xml version="1.0" encoding="utf-8"?>
<!-- Generator: Adobe Illustrator 25.2.1, SVG Export Plug-In . SVG Version: 6.00 Build 0)  -->
<svg version="1.1" id="Layer_1" xmlns="http://www.w3.org/2000/svg" xmlns:xlink="http://www.w3.org/1999/xlink" x="0px" y="0px"
	 viewBox="0 0 101 103" style="enable-background:new 0 0 101 103;" xml:space="preserve">
<style type="text/css">
	.st0{fill:#FFFFFF;}
	.st1{fill:none;stroke:#000000;stroke-width:1.75;stroke-linecap:round;stroke-linejoin:round;}
	.st2{fill:none;stroke:#000000;stroke-width:2;stroke-linecap:round;stroke-linejoin:round;}
</style>
<g>
	<path class="st0" d="M16,32.2L2.8,60.4v15.9L38,94.8l44.1-6.2l12.3-28.2v-15L62.7,26L16,32.2z"/>
	<path class="st1" d="M1,73.6C12.5,80,30,90.1,41.6,96.5"/>
	<path class="st1" d="M80.3,90.4c4.4-9.7,7.1-15.9,14.1-31.7"/>
	<path class="st1" d="M31,94.8c19.4-2.6,29.1-3.5,53.8-7.9"/>
	<path class="st1" d="M1.9,57.7c11.5,6.4,29,16.5,40.6,22.9"/>
	<path class="st1" d="M59.2,26c11.5,6.4,29,16.5,40.6,22.9"/>
	<path class="st1" d="M2.8,62.1c4.4-9.7,7.1-15.9,14.1-31.7 M81.2,74.5c4.4-9.7,7.1-15.9,14.1-31.7"/>
	<path class="st1" d="M12.5,33.9c19.4-2.6,29.1-3.5,53.8-7.9 M31.9,78.9c19.4-2.6,29.1-3.5,53.8-7.9"/>
	<path class="st1" d="M4.4,57.8c0,4,0.1,14.5,0.1,18.5 M37,77.2c0,4,0.1,14.5,0.1,18.5 M82,71c0,4,0.1,14.5,0.1,18.5 M93.6,43.6
		c0,4,0.1,14.5,0.1,18.5"/>
	<path class="st1" d="M42.4,77.5L38,93.7 M43.3,92.8l4.2-15.3 M48.6,91.9l4.2-15.3 M58.3,75.7l-4.2,15.3 M63.6,74.9l-4.2,15.3
		 M69.8,74l-4.4,16.2 M75.1,73.1l-4.4,16.2 M80.3,72.2l-4.4,16.2"/>
	<path class="st1" d="M86.5,75.3V63.9 M90,68.3L90.2,55"/>
	<path class="st1" d="M16.9,66.6l-3.4,13.1 M21.3,69.2l-3.5,13.5 M26.6,71.8l-3.7,14.1 M31,74.8l-3.7,13.8 M35.4,77.1L31.7,91
		 M12.5,63.9L8.7,78 M8.1,62.1l-3.5,13"/>
</g>
<g>
	<path class="st0" d="M22.2,49.4V22.1L47.9,7.6l25.4,15.1l0.6,27.8L48.6,64.9L22.2,49.4z"/>
	<path class="st2" d="M47.9,36.2v29.3"/>
	<path class="st2" d="M73.7,22.1V51"/>
	<path class="st2" d="M22.2,22.1V51"/>
	<path class="st2" d="M20.9,21.4l28.4,16"/>
	<path class="st2" d="M44.7,6L76,24.1"/>
	<path class="st2" d="M19,47.8l31.3,18.1"/>
	<path class="st2" d="M22.2,22.2L50.5,6.6"/>
	<path class="st2" d="M47.9,36.6l26.6-15.7"/>
	<path class="st2" d="M46.8,65.9l28.5-16.4"/>
	<path class="st2" d="M54.2,33.2l-6,22.2 M61,30.1l-9.3,33.3 M73.7,25.1l-8.4,29.6 M67.8,25.1l-9.3,33.3 M70.8,51.6l2.8-10.4"/>
</g>
</svg>
