<svg fill="none" viewBox="0 0 32 32" xmlns="http://www.w3.org/2000/svg" xmlns:xlink="http://www.w3.org/1999/xlink"><linearGradient id="a" gradientUnits="userSpaceOnUse" x1="-5.39823" x2="11.3982" y1="11.3982" y2="37.3982"><stop offset="0" stop-color="#73dfe7"/><stop offset="1" stop-color="#0095f7"/></linearGradient><path clip-rule="evenodd" d="m29 16c0 1.6038-.3111 3.1631-.8544 4.5992-.0998.2637-.4365.3299-.6371.1317l-3.989-3.9409c-.1664-.1644-.1943-.4212-.0858-.6285.4326-.8268.6489-1.7725.6489-2.7615.0565-3.2217-2.6-5.87826-5.8783-5.87826-1.0408 0-1.9947.26076-2.8235.70606-.204.10961-.458.08344-.6229-.07926l-3.5509-3.50486c-.2503-.24699-.1738-.66779.1545-.79382 1.4438-.55442 2.9779-.84986 4.6385-.84986 7.1783 0 13 5.82174 13 13zm-20.52445-10.57938c.23175-.16331.54614-.12936.74662.07111l4.03533 4.03529c.1783.17831.1939.46028.0539.67008-.6307.9455-.9853 2.0581-.9853 3.2594 0 3.2783 2.6565 5.9348 5.9348 5.9348 1.2013 0 2.3139-.3546 3.2594-.9853.2098-.14.4918-.1244.6701.0539l4.3678 4.3679c.2035.2034.235.5235.0651.7557-2.3986 3.2766-6.2239 5.4165-10.6233 5.4165-7.17826 0-13-5.8217-13-13 0-4.4033 2.14366-8.23149 5.47555-10.57938zm9.78535 11.70978c2.2043 0 3.9565-1.7521 3.9565-3.9565 0-2.2043-1.7522-3.95651-3.9565-3.95651-2.2044 0-3.9566 1.75221-3.9566 3.95651 0 2.2044 1.7522 3.9565 3.9566 3.9565z" fill="url(#a)" fill-rule="evenodd"/></svg>