<?xml version="1.0" encoding="UTF-8"?>
<svg viewBox="0 0 42 42" xmlns="http://www.w3.org/2000/svg">
<path d="m4.2168 12.956c0-1.1598 0.94019-2.1 2.1-2.1h6.0349c1.1598 0 2.1 0.9402 2.1 2.1v0.1599h2.5106v-0.1599c0-1.1598 0.9402-2.1 2.1-2.1h5.9956c1.1598 0 2.1 0.9402 2.1 2.1v2.2728c0 1.1598-0.9402 2.1-2.1 2.1h-5.9956c-1.1598 0-2.1-0.9402-2.1-2.1v-0.0129h-2.5106v0.1595c0 1.1598-0.9402 2.1-2.1 2.1h-2.4079v2.2292c0 0.4239 0.13058 0.8164 0.39468 1.0952 0.2489 0.2627 0.7334 0.5484 1.6979 0.5484h4.9259v-0.4957c0-1.1598 0.9402-2.1 2.1-2.1h6.0349c1.1597 0 2.0999 0.9402 2.0999 2.1v2.4194c0 1.1598-0.9402 2.1-2.0999 2.1h-6.0349c-1.1004 0-2.0032-0.8464-2.0927-1.9237h-4.9332c-1.4057 0-2.4925-0.4337-3.2224-1.2041-0.71457-0.7543-0.97019-1.7087-0.97019-2.5395v-2.2292h-1.5271c-1.1598 0-2.1-0.9402-2.1-2.1v-2.4194zm8.1349 0h-6.0349v2.4194h6.0349v-2.4194zm12.706 0h-5.9956v2.2728h5.9956v-2.2728zm-5.9956 7.8965h6.0349v2.4194h-6.0349v-2.4194z" clip-rule="evenodd" fill="#0278D5" fill-rule="evenodd"/>
<path d="m30.256 4.2227c1.7397 0 3.1499 1.4103 3.1499 3.15v15.848c0 0.5799-0.47 1.05-1.0499 1.05s-1.05-0.4701-1.05-1.05v-15.848c0-0.5799-0.4701-1.05-1.05-1.05h-20.798c-0.5799 0-1.05 0.4701-1.05 1.05v0.28504c0 0.5799-0.4701 1.05-1.05 1.05-0.5799 0-1.05-0.4701-1.05-1.05v-0.28505c0-1.7397 1.4103-3.15 3.15-3.15h20.798zm-4.5684 28.084c0 0.5799-0.4701 1.05-1.05 1.05h-15.18c-1.7397 0-3.15-1.4103-3.15-3.15v-4.896c0-0.5799 0.4701-1.05 1.05-1.05 0.57989 0 1.05 0.4701 1.05 1.05v4.896c0 0.5799 0.4701 1.05 1.05 1.05h15.18c0.5799 0 1.05 0.4701 1.05 1.05z" clip-rule="evenodd" fill="#0278D5" fill-rule="evenodd"/>
<path d="m32.356 22.172c0.5799 0 1.0499 0.4701 1.0499 1.05v2.7853c0 4.0593-3.2906 7.35-7.3499 7.35h-6.199c-0.5799 0-1.05-0.4701-1.05-1.05s0.4701-1.05 1.05-1.05h6.199c2.8995 0 5.25-2.3505 5.25-5.25v-2.7853c0-0.5799 0.4701-1.05 1.05-1.05z" clip-rule="evenodd" fill="#0278D5" fill-rule="evenodd"/>
<path d="m34.774 10.719c1.7396 0 3.1499 1.4104 3.1499 3.15v14.571c0 0.5799-0.4701 1.05-1.05 1.05s-1.05-0.4701-1.05-1.05v-14.571c0-0.5798-0.4701-1.0499-1.0499-1.0499h-2.4168c-0.5799 0-1.05-0.4702-1.05-1.0501 0-0.5798 0.4701-1.05 1.05-1.05h2.4168zm-4.2917 26.16c0 0.5799-0.4701 1.05-1.05 1.05h-14.56c-1.7396 0-3.1499-1.4103-3.1499-3.15v-2.2358c0-0.5799 0.4701-1.05 1.05-1.05s1.0499 0.4701 1.0499 1.05v2.2358c0 0.5799 0.4701 1.05 1.05 1.05h14.56c0.5799 0 1.05 0.4701 1.05 1.05z" clip-rule="evenodd" fill="#0278D5" fill-rule="evenodd"/>
<path d="m36.874 27.387c0.5799 0 1.05 0.4701 1.05 1.05v2.1387c0 4.0593-3.2907 7.35-7.3499 7.35h-5.751c-0.5798 0-1.0499-0.4701-1.0499-1.05s0.4701-1.05 1.0499-1.05h5.751c2.8995 0 5.2499-2.3505 5.2499-5.25v-2.1387c0-0.5799 0.4701-1.05 1.05-1.05z" clip-rule="evenodd" fill="#0278D5" fill-rule="evenodd"/>
</svg>
