<svg viewBox="0 0 168 56" fill="none" xmlns="http://www.w3.org/2000/svg"><path fill-rule="evenodd" clip-rule="evenodd" d="M52.25 28c0 2.005-.389 3.954-1.068 5.749a.484.484 0 01-.796.165l-4.987-4.927a.668.668 0 01-.107-.785c.54-1.034.811-2.216.811-3.452.07-4.027-3.25-7.348-7.348-7.348a7.41 7.41 0 00-3.529.883.662.662 0 01-.779-.1l-4.438-4.38c-.313-.31-.217-.835.193-.993A15.988 15.988 0 0136 11.75c8.973 0 16.25 7.277 16.25 16.25zM26.594 14.776a.727.727 0 01.934.089l5.044 5.044a.664.664 0 01.067.837 7.286 7.286 0 00-1.231 4.075 7.418 7.418 0 007.418 7.418 7.286 7.286 0 004.074-1.231.664.664 0 01.838.067l5.46 5.46a.728.728 0 01.081.944C46.281 41.575 41.5 44.25 36 44.25c-8.973 0-16.25-7.277-16.25-16.25 0-5.504 2.68-10.29 6.844-13.224zm12.232 14.637a4.915 4.915 0 004.946-4.946 4.915 4.915 0 00-4.946-4.945 4.915 4.915 0 00-4.946 4.945 4.915 4.915 0 004.946 4.946z" fill="url(#paint0_linear)"/><path d="M69.72 19.254c-.314-2.263-2.054-3.575-4.311-3.575-2.66 0-4.663 1.939-4.663 5.23 0 3.286 1.978 5.23 4.663 5.23 2.421 0 4.027-1.566 4.31-3.51l-1.859-.01c-.234 1.194-1.208 1.865-2.426 1.865-1.65 0-2.834-1.238-2.834-3.575 0-2.297 1.173-3.574 2.839-3.574 1.238 0 2.207.7 2.421 1.919h1.86zM74.66 26.15c2.237 0 3.659-1.577 3.659-3.938 0-2.367-1.422-3.948-3.66-3.948-2.236 0-3.658 1.581-3.658 3.948 0 2.361 1.422 3.937 3.659 3.937zm.01-1.443c-1.238 0-1.845-1.103-1.845-2.5s.607-2.516 1.845-2.516c1.218 0 1.824 1.119 1.824 2.516s-.606 2.5-1.824 2.5zM81.646 21.526c0-1.104.666-1.74 1.616-1.74.93 0 1.486.611 1.486 1.63V26h1.8v-4.862c.005-1.83-1.039-2.874-2.615-2.874-1.143 0-1.929.547-2.277 1.397h-.09v-1.297h-1.72V26h1.8v-4.474zM92.19 18.364h-1.505v-1.83h-1.8v1.83H87.8v1.392h1.084V24c-.01 1.437 1.034 2.143 2.386 2.104a3.621 3.621 0 001.06-.18l-.304-1.407c-.1.025-.303.07-.527.07-.453 0-.816-.159-.816-.885v-3.947h1.507v-1.392zM93.696 26h1.8v-7.636h-1.8V26zm.905-8.72c.572 0 1.039-.438 1.039-.975 0-.541-.467-.979-1.04-.979-.576 0-1.043.438-1.043.98 0 .536.467.974 1.044.974zM99.146 21.526c0-1.104.666-1.74 1.616-1.74.93 0 1.486.611 1.486 1.63V26h1.8v-4.862c.005-1.83-1.039-2.874-2.615-2.874-1.143 0-1.929.547-2.277 1.397h-.09v-1.297h-1.72V26h1.8v-4.474zM110.745 22.788c0 1.164-.83 1.74-1.626 1.74-.865 0-1.442-.611-1.442-1.58v-4.584h-1.799v4.862c0 1.834 1.044 2.873 2.545 2.873 1.144 0 1.949-.601 2.297-1.456h.08V26h1.745v-7.636h-1.8v4.424zM117.726 26.15c2.237 0 3.659-1.577 3.659-3.938 0-2.367-1.422-3.948-3.659-3.948s-3.659 1.581-3.659 3.948c0 2.361 1.422 3.937 3.659 3.937zm.01-1.443c-1.238 0-1.844-1.103-1.844-2.5s.606-2.516 1.844-2.516c1.218 0 1.825 1.119 1.825 2.516s-.607 2.5-1.825 2.5zM127.78 22.788c0 1.164-.83 1.74-1.626 1.74-.865 0-1.441-.611-1.441-1.58v-4.584h-1.8v4.862c0 1.834 1.044 2.873 2.545 2.873 1.144 0 1.949-.601 2.297-1.456h.08V26h1.745v-7.636h-1.8v4.424zM137.466 20.382c-.249-1.293-1.283-2.118-3.072-2.118-1.84 0-3.093.905-3.088 2.317-.005 1.114.681 1.85 2.148 2.153l1.302.273c.701.154 1.03.438 1.03.87 0 .522-.567.915-1.422.915-.826 0-1.363-.358-1.517-1.044l-1.755.169c.224 1.402 1.402 2.232 3.277 2.232 1.909 0 3.256-.99 3.261-2.436-.005-1.089-.706-1.755-2.148-2.068l-1.302-.279c-.776-.174-1.084-.442-1.079-.884-.005-.517.567-.875 1.317-.875.831 0 1.268.452 1.407.954l1.641-.179zM62.849 30.818h-1.845V41h1.845V30.818zM66.566 36.526c0-1.104.666-1.74 1.616-1.74.93 0 1.486.611 1.486 1.63V41h1.8v-4.862c.005-1.83-1.039-2.874-2.615-2.874-1.143 0-1.929.547-2.277 1.397h-.09v-1.297h-1.72V41h1.8v-4.474zM77.11 33.364h-1.506v-1.83h-1.8v1.83h-1.083v1.392h1.084V39c-.01 1.437 1.034 2.143 2.386 2.104a3.62 3.62 0 001.059-.18l-.303-1.406c-.1.024-.303.07-.527.07-.453 0-.816-.16-.816-.886v-3.947h1.507v-1.392zM81.915 41.15c1.78 0 3.002-.87 3.32-2.198l-1.68-.19c-.243.647-.84.985-1.616.985-1.163 0-1.933-.765-1.948-2.073h5.32v-.552c0-2.68-1.612-3.858-3.49-3.858-2.188 0-3.615 1.606-3.615 3.963 0 2.396 1.407 3.922 3.709 3.922zm-1.92-4.689c.055-.974.776-1.795 1.85-1.795 1.034 0 1.73.756 1.74 1.795h-3.59zM90.154 44.023c2.063 0 3.584-.945 3.584-2.899v-7.76h-1.775v1.263h-.099c-.273-.552-.845-1.363-2.192-1.363-1.765 0-3.152 1.382-3.152 3.893 0 2.49 1.387 3.734 3.147 3.734 1.307 0 1.919-.701 2.197-1.263h.09v1.447c0 1.123-.746 1.586-1.77 1.586-1.084 0-1.561-.513-1.78-.96l-1.62.393c.327 1.069 1.426 1.929 3.37 1.929zm.015-4.544c-1.188 0-1.815-.925-1.815-2.332 0-1.387.617-2.406 1.815-2.406 1.158 0 1.794.96 1.794 2.406 0 1.457-.646 2.332-1.794 2.332zM95.583 41h1.8v-4.49c0-.969.73-1.655 1.72-1.655.303 0 .68.055.835.105v-1.656a4.325 4.325 0 00-.646-.05c-.875 0-1.606.498-1.885 1.382h-.08v-1.272h-1.744V41zM103.181 41.154c1.198 0 1.914-.562 2.242-1.203h.059v1.05h1.731v-5.112c0-2.018-1.646-2.625-3.103-2.625-1.606 0-2.838.716-3.236 2.108l1.68.239c.179-.522.686-.97 1.566-.97.835 0 1.293.428 1.293 1.179v.03c0 .517-.542.541-1.889.686-1.482.159-2.899.601-2.899 2.321 0 1.502 1.099 2.297 2.556 2.297zm.467-1.322c-.751 0-1.288-.343-1.288-1.005 0-.69.602-.979 1.407-1.093.473-.065 1.417-.184 1.651-.373v.9c0 .85-.686 1.57-1.77 1.57zM112.835 33.364h-1.506v-1.83h-1.8v1.83h-1.083v1.392h1.083V39c-.01 1.437 1.034 2.143 2.387 2.104a3.623 3.623 0 001.059-.18l-.304-1.406c-.099.024-.303.07-.527.07-.452 0-.815-.16-.815-.886v-3.947h1.506v-1.392zM114.341 41h1.799v-7.636h-1.799V41zm.904-8.72c.572 0 1.039-.438 1.039-.975 0-.541-.467-.979-1.039-.979-.576 0-1.044.438-1.044.98 0 .536.468.974 1.044.974zM121.322 41.15c2.237 0 3.659-1.577 3.659-3.938 0-2.367-1.422-3.948-3.659-3.948s-3.659 1.581-3.659 3.948c0 2.361 1.422 3.937 3.659 3.937zm.01-1.443c-1.238 0-1.845-1.103-1.845-2.5s.607-2.516 1.845-2.516c1.218 0 1.824 1.119 1.824 2.516s-.606 2.5-1.824 2.5zM128.308 36.526c0-1.104.666-1.74 1.616-1.74.93 0 1.487.611 1.487 1.63V41h1.799v-4.862c.005-1.83-1.039-2.874-2.615-2.874-1.143 0-1.929.547-2.277 1.397h-.089v-1.297h-1.72V41h1.799v-4.474z" fill="#fff"/><defs><linearGradient id="paint0_linear" x1="9.252" y1="22.248" x2="30.248" y2="54.748" gradientUnits="userSpaceOnUse"><stop stop-color="#73DFE7"/><stop offset="1" stop-color="#0095F7"/></linearGradient></defs></svg>
