<svg fill="none" viewBox="0 0 168 56" xmlns="http://www.w3.org/2000/svg" xmlns:xlink="http://www.w3.org/1999/xlink"><linearGradient id="a" gradientUnits="userSpaceOnUse" x1="9.25221" x2="30.2478" y1="22.2478" y2="54.7478"><stop offset="0" stop-color="#73dfe7"/><stop offset="1" stop-color="#0095f7"/></linearGradient><g fill="#000"><path d="m59.8452 40.9999h2.1179v-7.6363h-2.1179zm1.0639-8.6207c.6314 0 1.1484-.4822 1.1484-1.0739 0-.5866-.517-1.0688-1.1484-1.0688-.6264 0-1.1435.4822-1.1435 1.0688 0 .5917.5171 1.0739 1.1435 1.0739z"/><path d="m65.7775 36.5852c.005-.9844.5916-1.5611 1.4468-1.5611.8501 0 1.3622.5568 1.3572 1.4915v4.4843h2.1179v-4.8622c0-1.7798-1.044-2.8736-2.6349-2.8736-1.1336 0-1.9539.5569-2.2969 1.4468h-.0895v-1.3473h-2.0185v7.6363h2.1179z"/><path d="m76.4304 33.3636h-1.4368v-1.8296h-2.1179v1.8296h-1.044v1.5909h1.044v3.9773c-.0099 1.4964 1.0092 2.2372 2.5455 2.1725.5468-.0198.9346-.1292 1.1484-.1988l-.3331-1.576c-.1044.0199-.3281.0696-.527.0696-.4226 0-.7159-.1591-.7159-.7457v-3.6989h1.4368z"/><path d="m81.2081 41.1491c1.8892 0 3.1619-.9198 3.4602-2.3367l-1.9588-.1292c-.2138.5817-.7606.8849-1.4666.8849-1.059 0-1.7301-.701-1.7301-1.8395v-.0049h5.2003v-.5817c0-2.5952-1.5711-3.8779-3.5895-3.8779-2.2472 0-3.7039 1.5959-3.7039 3.9525 0 2.4211 1.4368 3.9325 3.7884 3.9325zm-1.6953-4.7379c.0447-.8701.706-1.5661 1.6456-1.5661.9197 0 1.5561.6563 1.5611 1.5661z"/><path d="m89.5355 44.0227c2.1825 0 3.7337-.9943 3.7337-2.9482v-7.7109h-2.103v1.2827h-.0796c-.2833-.6215-.9048-1.3822-2.1825-1.3822-1.6754 0-3.0923 1.3026-3.0923 3.9027 0 2.5405 1.3771 3.7238 3.0973 3.7238 1.218 0 1.8991-.6115 2.1775-1.2429h.0895v1.397c0 1.049-.6711 1.4567-1.5909 1.4567-.9346 0-1.4069-.4077-1.5809-.8701l-1.9588.2635c.2535 1.2032 1.4318 2.1279 3.49 2.1279zm.0448-4.723c-1.0391 0-1.6059-.8253-1.6059-2.1428 0-1.2976.5568-2.2074 1.6059-2.2074 1.0291 0 1.6058.87 1.6058 2.2074 0 1.3473-.5867 2.1428-1.6058 2.1428z"/><path d="m94.9545 40.9999h2.1179v-4.3203c0-.9396.6861-1.5859 1.6208-1.5859.2933 0 .696.0497.8949.1143v-1.8792c-.1889-.0448-.4524-.0746-.6662-.0746-.8551 0-1.5561.4972-1.8345 1.4418h-.0796v-1.3324h-2.0533z"/><path d="m102.642 41.1441c1.128 0 1.859-.4922 2.232-1.2031h.06v1.0589h2.008v-5.1505c0-1.8196-1.541-2.5853-3.241-2.5853-1.83 0-3.033.875-3.326 2.2671l1.959.1591c.144-.5071.596-.88 1.357-.88.721 0 1.133.3629 1.133.9894v.0298c0 .4922-.522.5568-1.849.6861-1.511.1392-2.869.6463-2.869 2.3515 0 1.5114 1.079 2.277 2.536 2.277zm.606-1.4616c-.651 0-1.118-.3033-1.118-.885 0-.5966.492-.8899 1.238-.9943.462-.0646 1.218-.174 1.471-.343v.8103c0 .8005-.661 1.412-1.591 1.412z"/><path d="m112.647 33.3636h-1.437v-1.8296h-2.117v1.8296h-1.045v1.5909h1.045v3.9773c-.01 1.4964 1.009 2.2372 2.545 2.1725.547-.0198.935-.1292 1.148-.1988l-.333-1.576c-.104.0199-.328.0696-.527.0696-.422 0-.716-.1591-.716-.7457v-3.6989h1.437z"/><path d="m114.027 40.9999h2.118v-7.6363h-2.118zm1.064-8.6207c.631 0 1.148-.4822 1.148-1.0739 0-.5866-.517-1.0688-1.148-1.0688-.627 0-1.144.4822-1.144 1.0688 0 .5917.517 1.0739 1.144 1.0739z"/><path d="m121.292 41.1491c2.316 0 3.758-1.5859 3.758-3.9375 0-2.3665-1.442-3.9475-3.758-3.9475-2.317 0-3.759 1.581-3.759 3.9475 0 2.3516 1.442 3.9375 3.759 3.9375zm.009-1.6406c-1.068 0-1.615-.9794-1.615-2.3118s.547-2.3168 1.615-2.3168c1.049 0 1.596.9844 1.596 2.3168s-.547 2.3118-1.596 2.3118z"/><path d="m128.545 36.5852c.005-.9844.592-1.5611 1.447-1.5611.85 0 1.362.5568 1.357 1.4915v4.4843h2.118v-4.8622c0-1.7798-1.044-2.8736-2.635-2.8736-1.133 0-1.954.5569-2.297 1.4468h-.089v-1.3473h-2.019v7.6363h2.118z"/><path d="m63.176 26.1591c1.6904 0 2.804-1.0341 3.0029-2.3864h-1.1733c-.2188.8353-.9148 1.3324-1.8296 1.3324-1.392 0-2.2869-1.1534-2.2869-2.9233 0-1.7301.9148-2.8636 2.2869-2.8636 1.0341 0 1.6506.6363 1.8296 1.3324h1.1733c-.1989-1.4318-1.4119-2.3864-3.0227-2.3864-2.0682 0-3.4404 1.6307-3.4404 3.9574 0 2.2869 1.3125 3.9375 3.4602 3.9375z"/><path d="m70.9964 26.1591c2.0681 0 3.4602-1.571 3.4602-3.9375 0-2.3864-1.3921-3.9574-3.4602-3.9574-2.0682 0-3.4603 1.571-3.4603 3.9574 0 2.3665 1.3921 3.9375 3.4603 3.9375zm0-1.054c-1.5711 0-2.287-1.3523-2.287-2.8835 0-1.5313.7159-2.9034 2.287-2.9034 1.571 0 2.2869 1.3721 2.2869 2.9034 0 1.5312-.7159 2.8835-2.2869 2.8835z"/><path d="m77.4209 21.4062c0-1.3323.8253-2.088 1.9489-2.088 1.0887 0 1.75.7109 1.75 1.9091v4.7727h1.1733v-4.8523c0-1.9488-1.0391-2.8835-2.5853-2.8835-1.1534 0-1.8693.517-2.2272 1.2926h-.0995v-1.1932h-1.1335v7.6364h1.1733z"/><path d="m87.7581 18.3636h-1.6307v-1.8295h-1.1733v1.8295h-1.1534v.9944h1.1534v4.7727c0 1.3324 1.0739 1.9687 2.0682 1.9687.4375 0 .7159-.0795.875-.1392l-.2387-1.054c-.0994.0199-.2585.0597-.517.0597-.517 0-1.0142-.1591-1.0142-1.1534v-4.4545h1.6307z"/><path d="m89.523 26h1.1733v-7.6364h-1.1733zm.5966-8.9091c.4574 0 .8352-.3579.8352-.7954s-.3778-.7955-.8352-.7955-.8352.358-.8352.7955.3778.7954.8352.7954z"/><path d="m94.0186 21.4062c0-1.3323.8252-2.088 1.9488-2.088 1.0888 0 1.75.7109 1.75 1.9091v4.7727h1.1733v-4.8523c0-1.9488-1.039-2.8835-2.5852-2.8835-1.1534 0-1.8693.517-2.2273 1.2926h-.0994v-1.1932h-1.1335v7.6364h1.1733z"/><path d="m105.847 22.8778c0 1.4319-1.094 2.0881-1.969 2.0881-.974 0-1.67-.7159-1.67-1.8295v-4.7728h-1.173v4.8523c0 1.9489 1.034 2.8835 2.466 2.8835 1.153 0 1.909-.6164 2.267-1.392h.079v1.2926h1.174v-7.6364h-1.174z"/><path d="m112.272 26.1591c2.068 0 3.46-1.571 3.46-3.9375 0-2.3864-1.392-3.9574-3.46-3.9574s-3.46 1.571-3.46 3.9574c0 2.3665 1.392 3.9375 3.46 3.9375zm0-1.054c-1.571 0-2.287-1.3523-2.287-2.8835 0-1.5313.716-2.9034 2.287-2.9034s2.287 1.3721 2.287 2.9034c0 1.5312-.716 2.8835-2.287 2.8835z"/><path d="m122.335 22.8778c0 1.4319-1.093 2.0881-1.968 2.0881-.975 0-1.671-.7159-1.671-1.8295v-4.7728h-1.173v4.8523c0 1.9489 1.034 2.8835 2.466 2.8835 1.153 0 1.909-.6164 2.267-1.392h.079v1.2926h1.174v-7.6364h-1.174z"/><path d="m131.067 20.0739c-.368-1.0838-1.193-1.8097-2.705-1.8097-1.61 0-2.804.9148-2.804 2.2074 0 1.054.627 1.7599 2.029 2.0881l1.272.2983c.771.1789 1.134.5468 1.134 1.0738 0 .6563-.696 1.1932-1.79 1.1932-.959 0-1.561-.4126-1.77-1.233l-1.113.2785c.273 1.2975 1.342 1.9886 2.903 1.9886 1.775 0 2.983-.9695 2.983-2.2869 0-1.064-.666-1.7351-2.028-2.0682l-1.134-.2784c-.905-.2238-1.312-.527-1.312-1.1137 0-.6562.696-1.1335 1.63-1.1335 1.024 0 1.447.5668 1.651 1.0938z"/></g><path clip-rule="evenodd" d="m52.25 28c0 2.0047-.3888 3.9539-1.068 5.749-.1247.3296-.5456.4124-.7963.1647l-4.9863-4.9262c-.2081-.2056-.2429-.5265-.1073-.7856.5408-1.0335.8112-2.2157.8112-3.4519.0706-4.0272-3.25-7.3478-7.3479-7.3478-1.301 0-2.4933.3259-3.5294.8826-.2551.137-.5725.1043-.7786-.0991l-4.4387-4.3811c-.3128-.3087-.2171-.8347.1931-.9923 1.8049-.693 3.7224-1.0623 5.7982-1.0623 8.9728 0 16.25 7.2772 16.25 16.25zm-25.6556-13.2242c.2897-.2042.6827-.1617.9333.0889l5.0441 5.0441c.2229.2229.2424.5753.0675.8375-.7884 1.1819-1.2317 2.5727-1.2317 4.0744 0 4.0978 3.3207 7.4184 7.4185 7.4184 1.5016 0 2.8924-.4432 4.0743-1.2316.2622-.175.6147-.1555.8376.0674l5.4598 5.4599c.2543.2542.2937.6544.0813.9445-2.9982 4.0959-7.7798 6.7707-13.2791 6.7707-8.9728 0-16.25-7.2772-16.25-16.25 0-5.5041 2.6796-10.2894 6.8444-13.2242zm12.2317 14.6372c2.7554 0 4.9456-2.1902 4.9456-4.9456s-2.1902-4.9457-4.9456-4.9457-4.9457 2.1903-4.9457 4.9457 2.1903 4.9456 4.9457 4.9456z" fill="url(#a)" fill-rule="evenodd"/></svg>