<svg viewBox="0 0 10 12" fill="none" xmlns="http://www.w3.org/2000/svg"><path fill-rule="evenodd" clip-rule="evenodd" d="M3.833.751a.292.292 0 00-.291.292v.875c0 .161.13.292.291.292h2.625c.161 0 .292-.13.292-.292v-.875a.292.292 0 00-.292-.292H3.833zm-.875.292c0-.483.392-.875.875-.875h2.625c.484 0 .875.392.875.875v.292H8.5c.483 0 .875.391.875.875v8.166a.875.875 0 01-.875.875h-7a.875.875 0 01-.875-.875V2.21c0-.484.392-.875.875-.875h1.458v-.292zm0 .875H1.5a.292.292 0 00-.292.292v8.166c0 .161.13.292.292.292h7c.161 0 .292-.13.292-.292V2.21a.292.292 0 00-.292-.292H7.333a.875.875 0 01-.875.875H3.833a.875.875 0 01-.875-.875z" fill="currentColor"/></svg>