<svg viewBox="0 0 28 22" fill="none" xmlns="http://www.w3.org/2000/svg">
  <path fill-rule="evenodd" clip-rule="evenodd" d="M13.533.733c4.107 0 7.56 2.738 8.587 6.845 3.36.391 5.88 3.324 5.88 6.844 0 3.814-2.893 6.845-6.533 6.845H5.133c-2.8 0-5.133-2.445-5.133-5.378 0-2.836 2.053-5.182 4.667-5.378v-.489c0-5.084 4.013-9.289 8.866-9.289zm2.081 4.328c-2.364 0-4.28 1.972-4.28 4.404 0 .307.03.61.09.905l-3.76 3.869v3.406h4.281v-1.258h1.223v-1.259h1.223V13.87h1.223c2.364 0 4.28-1.972 4.28-4.405 0-2.432-1.916-4.404-4.28-4.404zm0 7.55h-2.446v1.259h-1.223v1.258h-1.223v1.259H8.888v-1.628l3.906-4.019-.106-.36c-.087-.294-.131-.601-.131-.915 0-1.737 1.369-3.146 3.057-3.146 1.689 0 3.058 1.409 3.058 3.146 0 1.738-1.37 3.146-3.058 3.146zm0-1.887c-.675 0-1.223-.564-1.223-1.259s.548-1.258 1.223-1.258 1.223.563 1.223 1.258c0 .695-.547 1.259-1.223 1.259z" fill="currentColor"/>
</svg>
