<svg xmlns="http://www.w3.org/2000/svg"><path fill-rule="evenodd" clip-rule="evenodd" d="M22.481 10.906c-.807-2.002-1.709-4.292-2.548-6.922-.184.08-.434.216-.732.412-.72.475-1.64 1.252-2.457 2.246-1.64 1.994-2.778 4.741-1.299 7.663.06.12.07.259.025.385a.5.5 0 0 1-.264.287h-.001l-.002.001-.004.002-.013.006a1.809 1.809 0 0 1-.178.069 4.453 4.453 0 0 1-2.101.183c-1.188-.187-2.546-.91-3.639-2.805a8.491 8.491 0 0 0-.626 1.111c-.556 1.176-1.124 2.99-1.124 5.501 0 3.956 2.547 7.293 6.052 8.444-2.138-1.582-3.234-4.413-2.148-7.512a.508.508 0 0 1 .98.101l.008.013c.043.07.121.177.235.313.225.268.556.61.936.95.38.338.799.662 1.198.902.356.214.654.335.875.37.25-.13.41-.445.472-.946.036-.299.028-.602.01-.835a4.866 4.866 0 0 0-.043-.35l-.003-.018v-.003a.498.498 0 0 1 .406-.579c.275-.05.539.13.589.4v.004l.002.008.005.028.015.096c.011.082.025.197.037.334a5.19 5.19 0 0 1-.014 1.034c-.077.625-.342 1.506-1.235 1.805a.513.513 0 0 1-.185.026c-.489-.02-1.003-.252-1.459-.525a9.326 9.326 0 0 1-1.35-1.015 11.396 11.396 0 0 1-.792-.776c-.656 3.6 2.06 6.495 5.52 6.495h.005c.462-.074.911-.184 1.346-.328a.508.508 0 0 1 .64.313.495.495 0 0 1-.317.63 9.647 9.647 0 0 1-3.04.488c-5.403 0-9.757-4.432-9.757-9.867 0-2.664.603-4.62 1.218-5.92a9.147 9.147 0 0 1 .852-1.458 5.89 5.89 0 0 1 .402-.495l.008-.008.003-.003.001-.001s-.004.004 0-.001a.511.511 0 0 1 .823.138c1.023 2.178 2.303 2.81 3.253 2.958a3.42 3.42 0 0 0 1.23-.035c-1.344-3.218-.006-6.175 1.661-8.204.883-1.073 1.878-1.917 2.68-2.445.397-.263.767-.461 1.066-.567a1.37 1.37 0 0 1 .48-.091.704.704 0 0 1 .327.085.594.594 0 0 1 .28.343c.857 2.739 1.791 5.113 2.632 7.198l.277.688c.724 1.79 1.365 3.377 1.786 4.778a.496.496 0 0 1-.341.618.507.507 0 0 1-.629-.337c-.407-1.354-1.03-2.894-1.757-4.695l-.277-.685Z" fill="#fff"/><path d="m22.513 27.948.094.107 4.755 1.348.022-.836-3.33-.836-.164-.058-1.377.275Z" fill="#fff"/><path d="m32.161 27.948-4.857 1.62-.014-1 3.33-.837.146-.163 1.395.38Z" fill="#FAFCF9"/><path d="m27.29 22.221 3.33.776 1.465-.069.076-.147-4.64-1.67-.231 1.11Z" fill="#C3C4C3"/><path d="m24.053 27.731-1.54.217-.043-.16V22.95l.043-.169 1.392.104.148.113v4.733Z" fill="#FBFCF9"/><path d="m27.384 22.221-3.33.776-1.541-.216.058-.091 4.791-1.364.022.895Z" fill="#C3C4C3"/><path d="m27.33 18.623-5.53 2.792.002 7.9 5.528 2.791.083-.125V18.786l-.083-.163Zm-1.617 10.285-3.2-.96V22.78l3.2-.96v7.087Zm4.907-1.177 1.541.217.086-.153v-4.867l-.086-.147-1.54.217v4.733Z" fill="#DBDCD9"/><path d="m27.33 32.106 5.542-2.79.003-7.9-5.544-2.793v13.483Zm1.631-10.285 3.2.96v5.167l-3.2.96v-7.087Z" fill="#fff"/></svg>