<svg xmlns="http://www.w3.org/2000/svg"><path fill-rule="evenodd" clip-rule="evenodd" d="M21.86 11.487c-.807-2.001-1.71-4.291-2.548-6.921-.185.08-.435.215-.733.412-.72.475-1.64 1.252-2.456 2.245-1.64 1.995-2.78 4.742-1.3 7.663a.49.49 0 0 1-.238.673h-.002l-.001.001-.005.002-.012.006a1.85 1.85 0 0 1-.179.068 4.453 4.453 0 0 1-2.101.183c-1.188-.186-2.546-.91-3.638-2.805a8.483 8.483 0 0 0-.627 1.112c-.556 1.176-1.124 2.99-1.124 5.5 0 3.957 2.547 7.294 6.052 8.444-2.138-1.581-3.233-4.412-2.148-7.511a.508.508 0 0 1 .98.1l.008.013c.044.071.122.178.236.313.225.269.555.611.935.95.381.339.8.663 1.198.903.357.214.655.334.876.37.249-.131.41-.445.471-.946a4.22 4.22 0 0 0 .01-.836 4.882 4.882 0 0 0-.042-.35l-.003-.017v-.003a.498.498 0 0 1 .406-.579c.274-.05.538.13.588.4v.001l.001.003.002.008.004.027a4.63 4.63 0 0 1 .052.43c.022.273.034.647-.013 1.035-.077.625-.342 1.505-1.236 1.804a.515.515 0 0 1-.185.027c-.488-.021-1.003-.252-1.458-.526a9.324 9.324 0 0 1-1.35-1.014 11.441 11.441 0 0 1-.793-.777c-.656 3.6 2.06 6.496 5.52 6.496h.006c.461-.074.91-.184 1.345-.328a.508.508 0 0 1 .64.312.495.495 0 0 1-.317.63 9.65 9.65 0 0 1-3.04.489c-5.403 0-9.756-4.432-9.756-9.867 0-2.664.603-4.62 1.217-5.92.307-.65.616-1.133.852-1.458a5.861 5.861 0 0 1 .403-.495l.008-.009.002-.003h.001s-.003.003.001-.002a.511.511 0 0 1 .822.139c1.024 2.177 2.303 2.809 3.253 2.958.486.076.917.03 1.23-.035-1.344-3.218-.005-6.175 1.662-8.204.882-1.073 1.878-1.917 2.679-2.446.397-.262.767-.46 1.066-.566a1.37 1.37 0 0 1 .481-.092.705.705 0 0 1 .326.086.595.595 0 0 1 .28.342c.857 2.74 1.792 5.114 2.632 7.199l.278.688c.724 1.79 1.365 3.377 1.786 4.777a.496.496 0 0 1-.342.618.507.507 0 0 1-.628-.336c-.407-1.354-1.03-2.894-1.758-4.695l-.277-.686Z" fill="#0278D5"/><path d="m21.439 28.944.094.107 4.755 1.348.022-.836-3.33-.835-.163-.06-1.378.276Z" fill="#B7CA9D"/><path d="m31.087 28.944-4.856 1.621-.015-1.002 3.33-.836.146-.163 1.395.38Z" fill="#B7CA9D"/><path d="m26.216 23.217 3.33.777 1.465-.07.076-.147-4.64-1.67-.23 1.11Z" fill="#3C4929"/><path d="m22.98 28.727-1.541.217-.043-.16v-4.838l.043-.169 1.392.104.148.113v4.733Z" fill="#759C3E"/><path d="m26.31 23.217-3.33.776-1.541-.216.058-.091 4.791-1.364.022.895Z" fill="#3C4929"/><path d="m26.257 19.62-5.531 2.791.002 7.9 5.529 2.791.082-.125V19.782l-.082-.163Zm-1.618 10.284-3.2-.96v-5.167l3.2-.96v7.087Zm4.908-1.177 1.54.217.087-.153v-4.867l-.087-.147-1.54.217v4.733Z" fill="#4B612C"/><path d="m26.257 33.102 5.542-2.79.002-7.9-5.544-2.793v13.483Zm1.63-10.285 3.2.96v5.167l-3.2.96v-7.087Z" fill="#759C3E"/></svg>