<svg xmlns="http://www.w3.org/2000/svg"><path fill-rule="evenodd" clip-rule="evenodd" d="M15.327 4.276a.501.501 0 0 1-.005.707L13.127 7.15h14.202c.826 0 1.496.672 1.496 1.5v5.377a.5.5 0 1 1-.997 0V8.65a.5.5 0 0 0-.5-.5H13.128l2.194 2.167c.197.193.2.51.006.707a.498.498 0 0 1-.705.006L11.56 8.007a.5.5 0 0 1 0-.714l3.063-3.023a.498.498 0 0 1 .705.006ZM5.323 13.162a.5.5 0 0 1 .499.5v11.964a.5.5 0 0 0 .499.5h10.273a.5.5 0 0 1 0 1H6.321a1.498 1.498 0 0 1-1.496-1.5V13.662a.5.5 0 0 1 .498-.5Z" fill="#fff"/><path d="m22.513 27.948.094.107 4.755 1.348.022-.836-3.33-.836-.164-.058-1.377.275Z" fill="#fff"/><path d="m32.161 27.948-4.857 1.62-.014-1 3.33-.837.146-.163 1.395.38Z" fill="#FAFCF9"/><path d="m27.29 22.221 3.33.776 1.465-.069.076-.147-4.64-1.67-.231 1.11Z" fill="#C3C4C3"/><path d="m24.053 27.731-1.54.217-.043-.16V22.95l.043-.169 1.392.104.148.113v4.733Z" fill="#FBFCF9"/><path d="m27.384 22.221-3.33.776-1.541-.216.058-.091 4.791-1.364.022.895Z" fill="#C3C4C3"/><path d="m27.33 18.623-5.53 2.792.002 7.9 5.528 2.791.083-.125V18.786l-.083-.163Zm-1.617 10.285-3.2-.96V22.78l3.2-.96v7.087Zm4.907-1.177 1.541.217.086-.153v-4.867l-.086-.147-1.54.217v4.733Z" fill="#DBDCD9"/><path d="m27.33 32.106 5.542-2.79.003-7.9-5.544-2.793v13.483Zm1.631-10.285 3.2.96v5.167l-3.2.96v-7.087Z" fill="#fff"/></svg>