<svg xmlns="http://www.w3.org/2000/svg" viewBox="0 0 14 14"><defs/><path fill-rule="evenodd" d="M.333008 7.00065c0 3.68185 2.984772 6.66665 6.666662 6.66665 3.68193 0 6.66663-2.9848 6.66663-6.66665 0-3.6819-2.9847-6.666666-6.66663-6.666666C3.31778.333984.333008 3.31875.333008 7.00065zM4.61903 3.83928l2.37851 2.38207 2.38315-2.38242c.52112-.52096 1.30141.26189.78031.78285L7.77852 7.0035l2.37288 2.37638c.5206.52143-.26038 1.30362-.78103.78212L6.99684 7.78494 4.61868 10.1624c-.52112.5209-1.3014-.26191-.78028-.78288l2.37746-2.37673-2.37781-2.38136c-.52065-.52143.26033-1.30358.78098-.78215z" clip-rule="evenodd"/></svg>