<?xml version="1.0" encoding="utf-8"?>
<!-- Generator: Adobe Illustrator 20.1.0, SVG Export Plug-In . SVG Version: 6.00 Build 0)  -->
<svg version="1.1" id="Layer_1" xmlns="http://www.w3.org/2000/svg" xmlns:xlink="http://www.w3.org/1999/xlink" x="0px" y="0px"
	 viewBox="0 0 11 14" style="enable-background:new 0 0 11 14;" xml:space="preserve">
<style type="text/css">
	.st0{fill:#4D5969;}
</style>
<title>HDL/Icon/Standard/Command/http</title>
<desc>Created with Sketch.</desc>
<g id="Colors">
	<g id="Command-Icons" transform="translate(-120.000000, -500.000000)">
		<g id="HTTP" transform="translate(102.000000, 482.000000)">
			<g id="HDL_x2F_Icon_x2F_Standard_x2F_Command_x2F_http" transform="translate(18.000000, 18.000000)">
				<path id="Combined-Shape" class="st0" d="M6.6,0L11,4.2v9.1c0,0.3-0.4,0.7-0.7,0.7l0,0H0.7C0.4,14,0,13.6,0,13.3l0,0V0.7
					C0,0.3,0.3,0,0.7,0l0,0H6.6z M5.9,1.4H1.5v11.2h8.1V4.9H5.9V1.4z M6.1,6c0.2,0,0.4,0.1,0.3,0.3l0,0v0.1l-1.3,4.4
					c0,0.1-0.2,0.2-0.3,0.2c-0.2,0-0.3-0.1-0.3-0.3l0,0v-0.1l1.3-4.4C5.8,6.1,6,6,6.1,6z M3.8,6.9c0.2,0,0.3,0.1,0.3,0.3
					s0,0.2-0.1,0.2l0,0L2.9,8.5l1.1,1c0.1,0.1,0.1,0.1,0.1,0.2c0,0.1-0.2,0.3-0.3,0.3c-0.1,0-0.2,0-0.2-0.1l0,0L2.2,8.6
					C2.2,8.6,2.2,8.5,2.2,8.4c0-0.1,0-0.1,0.1-0.2l0,0L3.6,7C3.6,6.9,3.7,6.9,3.8,6.9z M7.2,6.9c0.1,0,0.2,0,0.2,0.1l0,0l1.3,1.3
					c0.1,0,0.1,0.1,0.1,0.1c0,0.1,0,0.1-0.1,0.2l0,0L7.4,9.9C7.4,9.9,7.3,9.9,7.2,9.9c-0.2,0-0.3-0.1-0.3-0.3c0-0.1,0-0.1,0.1-0.2
					l0,0l1.1-1L7,7.4C6.9,7.4,6.9,7.3,6.9,7.2C6.9,7.1,7.1,6.9,7.2,6.9z"/>
			</g>
		</g>
	</g>
</g>
</svg>
