<?xml version="1.0" encoding="utf-8"?>
<!-- Generator: Adobe Illustrator 20.1.0, SVG Export Plug-In . SVG Version: 6.00 Build 0)  -->
<svg version="1.1" id="Layer_1" xmlns="http://www.w3.org/2000/svg" xmlns:xlink="http://www.w3.org/1999/xlink" x="0px" y="0px"
	 viewBox="0 0 12 14" style="enable-background:new 0 0 12 14;" xml:space="preserve">
<style type="text/css">
	.st0{fill:#4D5969;}
</style>
<title>HDL/Icon/Standard/Command/swap</title>
<desc>Created with Sketch.</desc>
<g id="Colors">
	<g id="Command-Icons" transform="translate(-121.000000, -828.000000)">
		<g id="Swap" transform="translate(101.000000, 812.000000)">
			<g id="HDL_x2F_Icon_x2F_Standard_x2F_Command_x2F_swap" transform="translate(20.000000, 16.000000)">
				<path id="Shape" class="st0" d="M0.9,4.4h8.2L8,5.5C7.8,5.7,7.7,5.9,7.7,6.1C7.7,6.6,8.1,7,8.6,7C8.8,7,9,6.9,9.2,6.7l2.6-2.6
					C11.9,4,12,3.7,12,3.5S11.9,3,11.8,2.9L9.2,0.2C9,0.1,8.8,0,8.6,0C8.1,0,7.7,0.4,7.7,0.9c0,0.2,0.1,0.5,0.2,0.6l1.1,1.1H0.9
					C0.4,2.6,0,3,0,3.5C0,4,0.4,4.4,0.9,4.4z M11.1,9.6H2.9L4,8.5c0.2-0.2,0.2-0.4,0.2-0.6C4.3,7.4,3.9,7,3.4,7C3.2,7,3,7.1,2.8,7.3
					L0.2,9.9C0.1,10,0,10.3,0,10.5c0,0.2,0.1,0.5,0.2,0.6l2.6,2.6C3,13.9,3.2,14,3.4,14c0.5,0,0.9-0.4,0.9-0.9
					c0-0.2-0.1-0.5-0.2-0.6l-1.1-1.1h8.2c0.5,0,0.9-0.4,0.9-0.9C12,10,11.6,9.6,11.1,9.6z"/>
			</g>
		</g>
	</g>
</g>
</svg>
