<svg enable-background="new 0 0 12 14" viewBox="0 0 12 14" xmlns="http://www.w3.org/2000/svg"><path d="m.9 4.4h8.2l-1.1 1.1c-.2.2-.3.4-.3.6 0 .5.4.9.9.9.2 0 .4-.1.6-.3l2.6-2.6c.1-.1.2-.4.2-.6s-.1-.5-.2-.6l-2.6-2.7c-.2-.1-.4-.2-.6-.2-.5 0-.9.4-.9.9 0 .2.1.5.2.6l1.1 1.1h-8.1c-.5 0-.9.4-.9.9s.4.9.9.9zm10.2 5.2h-8.2l1.1-1.1c.2-.2.2-.4.2-.6.1-.5-.3-.9-.8-.9-.2 0-.4.1-.6.3l-2.6 2.6c-.1.1-.2.4-.2.6s.1.5.2.6l2.6 2.6c.2.2.4.3.6.3.5 0 .9-.4.9-.9 0-.2-.1-.5-.2-.6l-1.1-1.1h8.2c.5 0 .9-.4.9-.9-.1-.5-.5-.9-1-.9z" fill="currentColor"/></svg>