<?xml version="1.0" encoding="UTF-8"?>
<svg width="14px" height="14px" viewBox="0 0 14 14" version="1.1" xmlns="http://www.w3.org/2000/svg" xmlns:xlink="http://www.w3.org/1999/xlink">
    <!-- Generator: Sketch 59 (86127) - https://sketch.com -->
    <title>HDL/Icon/Standard/Command/rollback</title>
    <desc>Created with Sketch.</desc>
    <g id="Colors" stroke="none" stroke-width="1" fill="none" fill-rule="evenodd">
        <g id="Command-Icons" transform="translate(-123.000000, -641.000000)" fill="#4D5969">
            <g id="Rollback" transform="translate(101.000000, 623.000000)">
                <g id="HDL/Icon/Standard/Command/rollback" transform="translate(21.000000, 19.000000)">
                    <path d="M10.8,3.2 C10.8,3.585 11.115,3.9 11.5,3.9 L14.3,3.9 C14.685,3.9 15,3.585 15,3.2 L15,0.4 C15,0.015 14.685,-0.3 14.3,-0.3 C13.915,-0.3 13.6,0.015 13.6,0.4 L13.6,1.835 C12.326,0.12 10.303,-1 8,-1 C4.136,-1 1,2.136 1,6 C1,9.864 4.136,13 8,13 C11.864,13 15,9.864 15,6 C15,5.615 14.685,5.3 14.3,5.3 C13.915,5.3 13.6,5.615 13.6,6 C13.6,9.094 11.094,11.6 8,11.6 C4.906,11.6 2.4,9.094 2.4,6 C2.4,2.906 4.906,0.4 8,0.4 C9.771,0.4 11.339,1.219 12.368,2.5 L11.5,2.5 C11.115,2.5 10.8,2.815 10.8,3.2 Z" id="Path"></path>
                </g>
            </g>
        </g>
    </g>
</svg>