<svg enable-background="new 0 0 13 13" viewBox="0 0 13 13" xmlns="http://www.w3.org/2000/svg"><path d="m12.6 10.9-2.2-2.2c.6-.9.9-1.9.9-3.1.1-3.1-2.5-5.6-5.6-5.6s-5.7 2.5-5.7 5.7 2.5 5.7 5.7 5.7c1.1 0 2.2-.3 3.1-.9l2.2 2.2c.2.2.5.4.9.4.7 0 1.2-.5 1.2-1.2-.1-.5-.2-.8-.5-1zm-6.9-1.1c-2.2 0-4.1-1.8-4.1-4.1s1.8-4.1 4.1-4.1 4.1 1.8 4.1 4.1-1.9 4.1-4.1 4.1zm2-4.9h-4c-.2 0-.4.2-.4.4s.2.4.4.4h4.1c.2 0 .4-.2.4-.4s-.3-.4-.5-.4zm0-1.7h-4c-.2 0-.4.2-.4.4s.2.4.4.4h4.1c.2 0 .4-.2.4-.4s-.3-.4-.5-.4zm0 3.3h-4c-.2 0-.4.2-.4.4s.2.4.4.4h4.1c.2 0 .4-.2.4-.4s-.3-.4-.5-.4z" fill="#4d5969"/></svg>