<?xml version="1.0" encoding="UTF-8"?>
<svg width="13px" height="13px" viewBox="0 0 13 13" version="1.1" xmlns="http://www.w3.org/2000/svg" xmlns:xlink="http://www.w3.org/1999/xlink">
    <!-- Generator: Sketch 59 (86127) - https://sketch.com -->
    <title>HDL/Icon/Standard/Command/resource-constraint</title>
    <desc>Created with Sketch.</desc>
    <g id="Colors" stroke="none" stroke-width="1" fill="none" fill-rule="evenodd">
        <g id="Command-Icons" transform="translate(-121.000000, -595.000000)" fill="#4D5969">
            <g id="Resource-Constraint" transform="translate(100.000000, 577.000000)">
                <g id="HDL/Icon/Standard/Command/resource_constraint" transform="translate(21.000000, 18.000000)">
                    <path d="M12.6425,10.92 L10.473125,8.750625 C11.041875,7.865 11.375,6.816875 11.375,5.6875 C11.375,2.543125 8.831875,0 5.6875,0 C2.543125,0 0,2.543125 0,5.6875 C0,8.831875 2.543125,11.375 5.6875,11.375 C6.816875,11.375 7.865,11.041875 8.750625,10.473125 L10.92,12.6425 C11.139375,12.861875 11.448125,13 11.78125,13 C12.455625,13 13,12.455625 13,11.78125 C13,11.448125 12.861875,11.139375 12.6425,10.92 Z M5.6875,9.75 C3.445,9.75 1.625,7.93 1.625,5.6875 C1.625,3.445 3.445,1.625 5.6875,1.625 C7.93,1.625 9.75,3.445 9.75,5.6875 C9.75,7.93 7.93,9.75 5.6875,9.75 Z M7.71875,4.875 L3.65625,4.875 C3.42875,4.875 3.25,5.05375 3.25,5.28125 C3.25,5.50875 3.42875,5.6875 3.65625,5.6875 L7.71875,5.6875 C7.94625,5.6875 8.125,5.50875 8.125,5.28125 C8.125,5.05375 7.94625,4.875 7.71875,4.875 Z M7.71875,3.25 L3.65625,3.25 C3.42875,3.25 3.25,3.42875 3.25,3.65625 C3.25,3.88375 3.42875,4.0625 3.65625,4.0625 L7.71875,4.0625 C7.94625,4.0625 8.125,3.88375 8.125,3.65625 C8.125,3.42875 7.94625,3.25 7.71875,3.25 Z M7.71875,6.5 L3.65625,6.5 C3.42875,6.5 3.25,6.67875 3.25,6.90625 C3.25,7.13375 3.42875,7.3125 3.65625,7.3125 L7.71875,7.3125 C7.94625,7.3125 8.125,7.13375 8.125,6.90625 C8.125,6.67875 7.94625,6.5 7.71875,6.5 Z" id="Shape"></path>
                </g>
            </g>
        </g>
    </g>
</svg>