<svg viewBox="0 0 42 42" xmlns="http://www.w3.org/2000/svg"><g fill="none" fill-rule="evenodd" transform="translate(1 1)"><circle cx="20" cy="20" fill="#f0edff" r="20" stroke="#7258f4"/><path d="M26.057 22.215h-2.258v-4.43h2.258a3.847 3.847 0 003.843-3.842 3.847 3.847 0 00-3.843-3.843 3.847 3.847 0 00-3.843 3.843V16.2h-4.429v-2.258c0-2.119-1.724-3.843-3.843-3.843S10.1 11.824 10.1 13.943a3.847 3.847 0 003.842 3.843H16.2v4.429h-2.258a3.847 3.847 0 00-3.842 3.843c0 2.119 1.723 3.842 3.842 3.842s3.843-1.723 3.843-3.842V23.8h4.43v2.258a3.847 3.847 0 003.842 3.842 3.847 3.847 0 003.843-3.842 3.847 3.847 0 00-3.843-3.843zm-2.258-8.272a2.26 2.26 0 012.258-2.258 2.26 2.26 0 012.258 2.258 2.26 2.26 0 01-2.258 2.258h-2.258zm-9.857 2.258a2.26 2.26 0 01-2.258-2.258 2.26 2.26 0 012.258-2.258 2.26 2.26 0 012.258 2.258v2.258zm2.259 9.857a2.26 2.26 0 01-2.258 2.258 2.26 2.26 0 01-2.258-2.258 2.26 2.26 0 012.258-2.258H16.2zm1.584-3.843v-4.43h4.43v4.43zm8.272 6.1a2.26 2.26 0 01-2.258-2.257V23.8h2.258a2.26 2.26 0 012.258 2.258 2.26 2.26 0 01-2.258 2.258z" fill="#7258f4" fill-rule="nonzero"/></g></svg>