<?xml version="1.0" encoding="UTF-8"?>
<svg width="8px" height="10px" viewBox="0 0 8 10" version="1.1" xmlns="http://www.w3.org/2000/svg" xmlns:xlink="http://www.w3.org/1999/xlink">
    <!-- Generator: Sketch 59 (86127) - https://sketch.com -->
    <title>HDL/Icon/Standard/Command/start</title>
    <desc>Created with Sketch.</desc>
    <g id="Colors" stroke="none" stroke-width="1" fill="none" fill-rule="evenodd">
        <g id="Command-Icons" transform="translate(-115.000000, -739.000000)" fill="#4D5969">
            <g id="Start" transform="translate(101.000000, 717.000000)">
                <g id="HDL/Icon/Standard/Command/start" transform="translate(14.000000, 22.000000)">
                    <path d="M8,5 C8,4.74285714 7.86666667,4.52142857 7.67333333,4.4 L7.68,4.39285714 L1.01333333,0.107142857 L1.00666667,0.114285714 C0.906666667,0.05 0.793333333,0 0.666666667,0 C0.3,0 0,0.321428571 0,0.714285714 L0,9.28571429 C0,9.67857143 0.3,10 0.666666667,10 C0.793333333,10 0.906666667,9.95 1.00666667,9.88571429 L1.01333333,9.89285714 L7.68,5.60714286 L7.67333333,5.6 C7.86666667,5.47857143 8,5.25714286 8,5 Z" id="Path"></path>
                </g>
            </g>
        </g>
    </g>
</svg>