<svg enable-background="new 0 0 13 14" viewBox="0 0 13 14" xmlns="http://www.w3.org/2000/svg"><path d="m10.3 0c-.1 0-.1 0-.2 0-.2.1-.4.4-.4.6v1.3h-8.4c-.7 0-1.3.6-1.3 1.3v3.2c0 .2.1.4.3.6.2 0 .5 0 .7-.1s.3-.3.3-.6v-3.1h8.4v1.3c0 .3.2.5.4.6h.2c.2 0 .3-.1.5-.2l2-1.9c.3-.2.3-.7 0-.9l-1.9-1.9c-.2-.1-.4-.2-.6-.2zm2 7c-.4 0-.6.3-.6.6v3.2h-8.4v-1.3c0-.3-.2-.5-.4-.6-.1 0-.2 0-.2 0-.3 0-.4.1-.6.2l-1.9 1.9c-.3.2-.3.7 0 .9l1.9 1.9c.2.2.5.2.7.2.2-.1.4-.3.4-.6v-1.3h8.4c.7 0 1.3-.6 1.3-1.3v-3.2c0-.2-.1-.3-.2-.5s-.2-.1-.4-.1z" fill="#4d5969"/></svg>