<?xml version="1.0" encoding="UTF-8"?>
<svg version="1.1" viewBox="0 0 42 42" xmlns="http://www.w3.org/2000/svg">
<title>App Icon</title>
<desc>Created with Sketch.</desc>
<g fill="none" fill-rule="evenodd">
<g transform="translate(-607 -194)">
<g transform="translate(588 180)">
<g transform="translate(20 15)">
<circle cx="20" cy="20" r="20" fill="#F0EDFF" stroke="#7258F4"/>
<path d="m26.057 22.215h-2.258v-4.4293h2.258c2.119 0 3.8428-1.7238 3.8428-3.8428 0-2.1188-1.7238-3.8426-3.8428-3.8426-2.1186 0-3.8426 1.7238-3.8426 3.8426v2.2582h-4.4293v-2.2582c0-2.1188-1.724-3.8426-3.8428-3.8426s-3.8426 1.7238-3.8426 3.8426c0 2.119 1.7238 3.8428 3.8426 3.8428h2.258v4.4293h-2.258c-2.1188 0-3.8426 1.7238-3.8426 3.8426 0 2.119 1.7238 3.8428 3.8426 3.8428s3.8428-1.7238 3.8428-3.8428v-2.258h4.4291v2.258c0 2.119 1.724 3.8428 3.8426 3.8428 2.1192 0 3.843-1.7238 3.843-3.8428 0-2.1188-1.7238-3.8426-3.8428-3.8426zm-2.258-8.272c0-1.245 1.013-2.258 2.258-2.258 1.2452 0 2.2582 1.013 2.2582 2.258 0 1.2452-1.013 2.2582-2.2582 2.2582h-2.258v-2.2582zm-9.8566 2.2582c-1.245 0-2.258-1.013-2.258-2.2582 0-1.245 1.013-2.258 2.258-2.258 1.2452 0 2.258 1.013 2.258 2.258v2.2582h-2.258zm2.2582 9.8564c0 1.2452-1.0128 2.258-2.258 2.258-1.245 0-2.258-1.0128-2.258-2.258 0-1.245 1.013-2.258 2.258-2.258h2.258v2.258zm1.5846-3.8426v-4.4293h4.4291v4.4293h-4.4291zm8.2718 6.1008c-1.245 0-2.258-1.0128-2.258-2.258v-2.2582h2.258c1.2452 0 2.2582 1.013 2.2582 2.258 0 1.2452-1.013 2.2582-2.2582 2.2582z" fill="#7258F4" fill-rule="nonzero"/>
</g>
</g>
</g>
</g>
</svg>
