<?xml version="1.0" encoding="utf-8"?>
<!-- Generator: Adobe Illustrator 20.1.0, SVG Export Plug-In . SVG Version: 6.00 Build 0)  -->
<svg version="1.1" id="Layer_1" xmlns="http://www.w3.org/2000/svg" xmlns:xlink="http://www.w3.org/1999/xlink" x="0px" y="0px"
	 viewBox="0 0 14 13" style="enable-background:new 0 0 14 13;" xml:space="preserve">
<style type="text/css">
	.st0{fill:#4D5969;}
</style>
<title>HDL/Icon/Standard/Command/barrier</title>
<desc>Created with Sketch.</desc>
<g id="Colors">
	<g id="Command-Icons" transform="translate(-122.000000, -313.000000)">
		<g id="Barrier" transform="translate(101.000000, 295.000000)">
			<g id="HDL_x2F_Icon_x2F_Standard_x2F_Command_x2F_barrier" transform="translate(21.000000, 18.000000)">
				<path id="Shape" class="st0" d="M4,0C3.4,0,3,0.4,3,1s0.4,1,1,1s1-0.4,1-1S4.6,0,4,0z M11,0c-0.6,0-1,0.4-1,1s0.4,1,1,1
					s1-0.4,1-1S11.6,0,11,0z M5.2,3C5.2,3,5.2,3,5.2,3L1.2,3C0.5,3,0,3.5,0,4.2v2.3c0,0.6,0.5,1.2,1.2,1.2h0.5c0,0,0.1,0,0.1,0v4.7
					c0,0.2,0.1,0.4,0.3,0.5s0.4,0.1,0.6,0s0.3-0.3,0.3-0.5V7.7h2.2c0.1,0,0.1,0,0.2,0h3.3c0.1,0,0.1,0,0.2,0h2.2v2.3h-7v1.2h7v1.2
					c0,0.2,0.1,0.4,0.3,0.5c0.2,0.1,0.4,0.1,0.6,0c0.2-0.1,0.3-0.3,0.3-0.5V7.7h0.6c0.6,0,1.2-0.5,1.2-1.2V4.2C14,3.5,13.5,3,12.8,3
					h-0.5c0,0-0.1,0-0.1,0c0,0,0,0-0.1,0H8.8c0,0-0.1,0-0.1,0c0,0,0,0-0.1,0L5.2,3C5.3,3,5.3,3,5.2,3z M1,5h3L1.4,7H1V5z M5.2,5H7
					L4.8,7H3L5.2,5z M9.2,5H11L8.8,7H7L9.2,5z M12.6,5H13v2h-3L12.6,5z"/>
			</g>
		</g>
	</g>
</g>
</svg>
