<?xml version="1.0" encoding="UTF-8"?>
<svg width="12px" height="14px" viewBox="0 0 12 14" version="1.1" xmlns="http://www.w3.org/2000/svg" xmlns:xlink="http://www.w3.org/1999/xlink">
    <!-- Generator: Sketch 59 (86127) - https://sketch.com -->
    <title>HDL/Icon/Standard/Command/swap</title>
    <desc>Created with Sketch.</desc>
    <g id="Colors" stroke="none" stroke-width="1" fill="none" fill-rule="evenodd">
        <g id="Command-Icons" transform="translate(-121.000000, -828.000000)" fill="#4D5969">
            <g id="Swap" transform="translate(101.000000, 812.000000)">
                <g id="HDL/Icon/Standard/Command/swap" transform="translate(20.000000, 16.000000)">
                    <path d="M0.858369099,4.37171464 L9.07296137,4.37171464 L7.96566524,5.50187735 C7.8111588,5.66833542 7.7167382,5.8873592 7.7167382,6.12390488 C7.7167382,6.6057572 8.10300429,7 8.5751073,7 C8.81545064,7 9.03004292,6.90362954 9.18454936,6.74593242 L11.751073,4.11764706 C11.9055794,3.95994994 12,3.74092616 12,3.49561952 C12,3.25031289 11.9055794,3.03128911 11.751073,2.87359199 L9.18454936,0.245306633 C9.02145923,0.0963704631 8.80686695,0 8.5751073,0 C8.10300429,0 7.7167382,0.394242804 7.7167382,0.876095119 C7.7167382,1.12140175 7.8111588,1.34042553 7.96566524,1.49812265 L9.07296137,2.62828536 L0.858369099,2.62828536 C0.386266094,2.62828536 0,3.02252816 0,3.50438048 C0.00858369099,3.98623279 0.386266094,4.37171464 0.858369099,4.37171464 Z M11.1416309,9.62828536 L2.92703863,9.62828536 L4.03433476,8.49812265 C4.1888412,8.33166458 4.2832618,8.1126408 4.2832618,7.87609512 C4.2832618,7.3942428 3.89699571,7 3.4248927,7 C3.18454936,7 2.96995708,7.09637046 2.81545064,7.25406758 L0.248927039,9.88235294 C0.0944206009,10.0400501 0,10.2590738 0,10.4956195 C0,10.7409262 0.0944206009,10.9599499 0.248927039,11.1176471 L2.81545064,13.7459324 C2.97854077,13.9036295 3.19313305,14 3.4248927,14 C3.89699571,14 4.2832618,13.6057572 4.2832618,13.1239049 C4.2832618,12.8785982 4.1888412,12.6595745 4.03433476,12.5018773 L2.92703863,11.3717146 L11.1416309,11.3717146 C11.6137339,11.3717146 12,10.9774718 12,10.4956195 C12,10.0137672 11.6137339,9.62828536 11.1416309,9.62828536 Z" id="Shape"></path>
                </g>
            </g>
        </g>
    </g>
</svg>