<?xml version="1.0" encoding="utf-8"?>
<!-- Generator: Adobe Illustrator 20.1.0, SVG Export Plug-In . SVG Version: 6.00 Build 0)  -->
<svg version="1.1" id="Layer_1" xmlns="http://www.w3.org/2000/svg" xmlns:xlink="http://www.w3.org/1999/xlink" x="0px" y="0px"
	 viewBox="0 0 14 14" style="enable-background:new 0 0 14 14;" xml:space="preserve">
<style type="text/css">
	.st0{fill:#4D5969;}
</style>
<title>HDL/Icon/Standard/Command/calendar</title>
<desc>Created with Sketch.</desc>
<g id="Colors">
	<g id="Command-Icons" transform="translate(-123.000000, -359.000000)">
		<g id="Calendar" transform="translate(102.000000, 341.000000)">
			<g id="HDL_x2F_Icon_x2F_Standard_x2F_Command_x2F_calendar" transform="translate(21.000000, 18.000000)">
				<path id="Shape" class="st0" d="M10.9,3.1c0.5,0,0.8-0.3,0.8-0.8V0.8c0-0.4-0.3-0.8-0.8-0.8c-0.5,0-0.8,0.4-0.8,0.8v1.6
					C10.1,2.8,10.4,3.1,10.9,3.1z M3.1,3.1c0.5,0,0.8-0.3,0.8-0.8V0.8C3.9,0.4,3.6,0,3.1,0S2.3,0.4,2.3,0.8v1.6
					C2.3,2.8,2.6,3.1,3.1,3.1z M13.2,1.6h-0.8v0.8c0,0.9-0.7,1.6-1.6,1.6c-0.9,0-1.6-0.7-1.6-1.6V1.6H4.7v0.8c0,0.9-0.7,1.6-1.6,1.6
					S1.6,3.2,1.6,2.3V1.6H0.8C0.4,1.6,0,1.9,0,2.3v10.9C0,13.6,0.4,14,0.8,14h12.4c0.4,0,0.8-0.4,0.8-0.8V2.3
					C14,1.9,13.6,1.6,13.2,1.6z M4.7,12.4H1.6V9.3h3.1V12.4z M4.7,8.6H1.6V5.4h3.1V8.6z M8.6,12.4H5.4V9.3h3.1V12.4z M8.6,8.6H5.4
					V5.4h3.1V8.6z M12.4,12.4H9.3V9.3h3.1V12.4z M12.4,8.6H9.3V5.4h3.1V8.6z"/>
			</g>
		</g>
	</g>
</g>
</svg>
