<?xml version="1.0" encoding="utf-8"?>
<!-- Generator: Adobe Illustrator 20.1.0, SVG Export Plug-In . SVG Version: 6.00 Build 0)  -->
<svg version="1.1" id="Layer_1" xmlns="http://www.w3.org/2000/svg" xmlns:xlink="http://www.w3.org/1999/xlink" x="0px" y="0px"
	 viewBox="0 0 13 13" style="enable-background:new 0 0 13 13;" xml:space="preserve">
<style type="text/css">
	.st0{fill:#4D5969;}
</style>
<title>HDL/Icon/Standard/Command/resource-constraint</title>
<desc>Created with Sketch.</desc>
<g id="Colors">
	<g id="Command-Icons" transform="translate(-121.000000, -595.000000)">
		<g id="Resource-Constraint" transform="translate(100.000000, 577.000000)">
			<g id="HDL_x2F_Icon_x2F_Standard_x2F_Command_x2F_resource_x5F_constraint" transform="translate(21.000000, 18.000000)">
				<path id="Shape" class="st0" d="M12.6,10.9l-2.2-2.2c0.6-0.9,0.9-1.9,0.9-3.1C11.4,2.5,8.8,0,5.7,0S0,2.5,0,5.7s2.5,5.7,5.7,5.7
					c1.1,0,2.2-0.3,3.1-0.9l2.2,2.2c0.2,0.2,0.5,0.4,0.9,0.4c0.7,0,1.2-0.5,1.2-1.2C13,11.4,12.9,11.1,12.6,10.9z M5.7,9.8
					c-2.2,0-4.1-1.8-4.1-4.1s1.8-4.1,4.1-4.1s4.1,1.8,4.1,4.1S7.9,9.8,5.7,9.8z M7.7,4.9H3.7c-0.2,0-0.4,0.2-0.4,0.4
					s0.2,0.4,0.4,0.4h4.1c0.2,0,0.4-0.2,0.4-0.4S7.9,4.9,7.7,4.9z M7.7,3.2H3.7c-0.2,0-0.4,0.2-0.4,0.4s0.2,0.4,0.4,0.4h4.1
					c0.2,0,0.4-0.2,0.4-0.4S7.9,3.2,7.7,3.2z M7.7,6.5H3.7c-0.2,0-0.4,0.2-0.4,0.4s0.2,0.4,0.4,0.4h4.1c0.2,0,0.4-0.2,0.4-0.4
					S7.9,6.5,7.7,6.5z"/>
			</g>
		</g>
	</g>
</g>
</svg>
