<svg enable-background="new 0 0 14 11" viewBox="0 0 14 11" xmlns="http://www.w3.org/2000/svg"><path d="m3 0c-.2 0-.5 0-.7.2s-.3.4-.3.7c-.7 2.9-1.3 5.8-2 8.8 0 .3 0 .6.2.9s.5.4.9.4h9.9c.3 0 .5-.1.7-.3s.3-.4.3-.6c.6-2.9 1.3-5.9 1.9-8.8.1-.3.1-.7-.1-.9s-.5-.4-.9-.4zm0 1h9.9v.1c-.6 2.9-1.3 5.9-1.9 8.8v.1h-9.9c-.1 0-.1 0-.1 0s0 0 0-.1c.6-3 1.3-5.9 2-8.9-.1 0 0 0 0 0zm1.8.5c-.3 0-.6.2-.7.4s-.1.6.1.9l2.4 2.6-3.8 2.7c-.2.2-.3.5-.3.7s.2.5.5.6.5.1.8-.1l4.5-3.3c.2-.1.3-.3.3-.5s-.1-.4-.2-.6l-3-3.2c-.2-.1-.4-.2-.6-.2zm1.9 6.5c-.2 0-.5.1-.6.4-.1.2-.1.5 0 .7s.4.4.7.4h2c.3 0 .5-.1.7-.4.1-.2.1-.5 0-.8-.2-.2-.5-.3-.8-.3z" fill="#4d5969"/></svg>