<?xml version="1.0" encoding="UTF-8"?>
<svg width="13px" height="14px" viewBox="0 0 13 14" version="1.1" xmlns="http://www.w3.org/2000/svg" xmlns:xlink="http://www.w3.org/1999/xlink">
    <!-- Generator: Sketch 59 (86127) - https://sketch.com -->
    <title>HDL/Icon/Standard/Command/switch</title>
    <desc>Created with Sketch.</desc>
    <g id="Colors" stroke="none" stroke-width="1" fill="none" fill-rule="evenodd">
        <g id="Command-Icons" transform="translate(-121.000000, -876.000000)" fill="#4D5969">
            <g id="AutoScaling" transform="translate(102.000000, 858.000000)">
                <g id="HDL/Icon/Standard/Command/switch" transform="translate(19.000000, 18.000000)">
                    <path d="M10.3389547,0.00282441882 C10.2756321,0.00869088603 10.2120054,0.0243115291 10.1510696,0.0488113542 C9.90797583,0.147447014 9.74990872,0.379608693 9.74990872,0.636697767 L9.74990872,1.90941596 L1.30014628,1.90941596 C0.589675431,1.90941596 0.000117544747,2.48655369 0.000117544747,3.18213414 L0.000117544747,6.36392962 C-0.00313227139,6.59342356 0.120023397,6.80688732 0.322491115,6.92258145 C0.524958832,7.03827558 0.775370268,7.03827558 0.977837986,6.92258145 C1.1803057,6.80688732 1.30346137,6.59342356 1.30014628,6.36392962 L1.30014628,3.18213414 L9.74990872,3.18213414 L9.74990872,4.45485233 C9.74990872,4.71194141 9.90797648,4.94410309 10.1510696,5.04273875 C10.2316667,5.07519306 10.3160428,5.09121143 10.3998904,5.09121143 C10.5688857,5.09121143 10.7353012,5.02632265 10.8594477,4.90477807 L12.8093929,2.99570078 C13.0635357,2.74688438 13.0635357,2.34466566 12.8093929,2.09584932 L10.8594477,0.186772033 C10.7200266,0.0502729438 10.5289222,-0.0147748556 10.3389547,0.00282441882 Z M12.3396797,6.99158841 C11.9812042,6.99707451 11.6949448,7.28567549 11.6998539,7.6366478 L11.6998539,10.8184433 L3.25009146,10.8184433 L3.25009146,9.54572509 C3.25009146,9.28863601 3.09202403,9.0564744 2.84893086,8.95783874 C2.76833313,8.92538442 2.68395737,8.90936599 2.60010973,8.90936599 C2.43111448,8.90936599 2.26469881,8.97425489 2.14055237,9.09579948 L0.19060719,11.0048768 C-0.06353573,11.2536932 -0.06353573,11.6565479 0.19060719,11.904728 L2.14055237,13.8138053 C2.32644708,13.995804 2.60518771,14.0497653 2.84893086,13.951766 C3.09202403,13.8531303 3.25009146,13.6216051 3.25009146,13.3638797 L3.25009146,12.0911615 L11.6998539,12.0911615 C12.4103249,12.0911615 12.9998784,11.5140239 12.9998784,10.8184433 L12.9998784,7.6366478 C13.0022232,7.46463973 12.9334044,7.29900416 12.8090414,7.1774818 C12.6846785,7.05595945 12.515365,6.98890187 12.3396797,6.99158841 Z" id="Shape"></path>
                </g>
            </g>
        </g>
    </g>
</svg>