<?xml version="1.0" encoding="UTF-8"?>
<svg width="14px" height="14px" viewBox="0 0 14 14" version="1.1" xmlns="http://www.w3.org/2000/svg" xmlns:xlink="http://www.w3.org/1999/xlink">
    <!-- Generator: Sketch 59 (86127) - https://sketch.com -->
    <title>HDL/Icon/Standard/Command/artifact-check</title>
    <desc>Created with Sketch.</desc>
    <g id="Colors" stroke="none" stroke-width="1" fill="none" fill-rule="evenodd">
        <g id="Command-Icons" transform="translate(-120.000000, -265.000000)" fill="#4D5969">
            <g id="Artifact-Check" transform="translate(99.000000, 247.000000)">
                <g id="HDL/Icon/Standard/Command/artifact_check" transform="translate(21.000000, 18.000000)">
                    <path d="M7,14 C3.136,14 0,10.864 0,7 C0,3.136 3.136,0 7,0 C10.864,0 14,3.136 14,7 C14,10.864 10.864,14 7,14 Z M10.3333333,4 C10.1466667,4 9.98,4.07333333 9.86,4.19333333 L5.66666667,8.39333333 L4.14,6.86 C4.02,6.74 3.85333333,6.66666667 3.66666667,6.66666667 C3.3,6.66666667 3,6.96666667 3,7.33333333 C3,7.52 3.07333333,7.68666667 3.19333333,7.80666667 L5.19333333,9.80666667 C5.31333333,9.92666667 5.48,10 5.66666667,10 C5.85333333,10 6.02,9.92666667 6.14,9.80666667 L10.8066667,5.14 C10.9266667,5.02 11,4.85333333 11,4.66666667 C11,4.3 10.7,4 10.3333333,4 Z" id="Combined-Shape_5_"></path>
                </g>
            </g>
        </g>
    </g>
</svg>