<?xml version="1.0" encoding="utf-8"?>
<!-- Generator: Adobe Illustrator 20.1.0, SVG Export Plug-In . SVG Version: 6.00 Build 0)  -->
<svg version="1.1" id="Layer_1" xmlns="http://www.w3.org/2000/svg" xmlns:xlink="http://www.w3.org/1999/xlink" x="0px" y="0px"
	 viewBox="0 0 14 14" style="enable-background:new 0 0 14 14;" xml:space="preserve">
<style type="text/css">
	.st0{fill:#4D5969;}
</style>
<title>HDL/Icon/Standard/command/approval</title>
<desc>Created with Sketch.</desc>
<g id="Colors">
	<g id="Command-Icons" transform="translate(-121.000000, -218.000000)">
		<g id="Approval" transform="translate(100.000000, 201.000000)">
			<g id="HDL_x2F_Icon_x2F_Standard_x2F_Command_x2F_approval" transform="translate(21.000000, 17.000000)">
				<path id="Shape" class="st0" d="M7.5,3.8C7.4,3.7,7.1,3.6,6.9,3.6C6.4,3.6,6,4,6,4.4C6,4.7,6.1,4.9,6.3,5L8,6.8
					C8.2,6.9,8.4,7,8.7,7s0.5-0.1,0.6-0.2l4.4-4.3C13.9,2.3,14,2.1,14,1.9C14,1.4,13.6,1,13.1,1c-0.2,0-0.5,0.1-0.6,0.2L8.7,4.9
					L7.5,3.8z M12.2,6.4c0,0.2,0.1,0.4,0.1,0.6c0,2.9-2.4,5.2-5.2,5.2S1.8,9.9,1.8,7S4.1,1.8,7,1.8c0.7,0,1.4,0.1,2,0.4l1.3-1.3
					C9.3,0.3,8.2,0,7,0C3.1,0,0,3.1,0,7s3.1,7,7,7s7-3.1,7-7c0-0.7-0.1-1.4-0.3-2.1L12.2,6.4z"/>
			</g>
		</g>
	</g>
</g>
</svg>
