<svg viewBox="0 0 24 24" fill="none" xmlns="http://www.w3.org/2000/svg">
<path fill-rule="evenodd" clip-rule="evenodd" d="M12.1539 3.65385C12.1539 3.29274 11.8612 3 11.5001 3C11.139 3 10.8462 3.29274 10.8462 3.65385V19.6731C10.8462 20.0342 11.139 20.3269 11.5001 20.3269C11.8612 20.3269 12.1539 20.0342 12.1539 19.6731V3.65385ZM14.7692 5.61462H18.6923V6.92232H14.7692V5.61462ZM13.4615 5.61462C13.4615 4.89241 14.047 4.30693 14.7692 4.30693H18.6923C19.4145 4.30693 20 4.89241 20 5.61462V6.92232C20 7.64454 19.4145 8.23001 18.6923 8.23001H14.7692C14.047 8.23001 13.4615 7.64454 13.4615 6.92232V5.61462ZM18.6923 10.8456H18.0083L16.864 12.1533H18.6923V10.8456ZM17.7122 9.53788H17.7115H14.7692C14.047 9.53788 13.4615 10.1234 13.4615 10.8456V12.1533C13.4615 12.8755 14.047 13.461 14.7692 13.461H15.418H15.4277H18.6923C19.4145 13.461 20 12.8755 20 12.1533V10.8456C20 10.1234 19.4145 9.53788 18.6923 9.53788H17.7122ZM14.7692 12.1533H15.1264L16.2706 10.8456H14.7692V12.1533ZM18.0083 16.0765H18.6923V17.3842H16.864L18.0083 16.0765ZM16.2706 16.0765H14.7692V17.3842H15.1264L16.2706 16.0765ZM15.418 18.6919H14.7692C14.047 18.6919 13.4615 18.1064 13.4615 17.3842V16.0765C13.4615 15.3543 14.047 14.7688 14.7692 14.7688H18.6923C19.4145 14.7688 20 15.3543 20 16.0765V17.3842C20 18.1064 19.4145 18.6919 18.6923 18.6919H15.4277C15.4244 18.6919 15.4212 18.6919 15.418 18.6919ZM8.23084 12.1533V10.8456H6.2693V12.1533H8.23084ZM6.2693 9.53788C5.54708 9.53788 4.96161 10.1234 4.96161 10.8456V12.1533C4.96161 12.8755 5.54708 13.461 6.2693 13.461H8.23084C8.95306 13.461 9.53853 12.8755 9.53853 12.1533V10.8456C9.53853 10.1234 8.95306 9.53788 8.23084 9.53788H6.2693ZM4.96156 16.0765H8.23079V17.3842H4.96156V16.0765ZM3.65387 16.0765C3.65387 15.3543 4.23934 14.7688 4.96156 14.7688H8.23079C8.95301 14.7688 9.53848 15.3543 9.53848 16.0765V17.3842C9.53848 18.1064 8.95301 18.6919 8.23079 18.6919H4.96156C4.23934 18.6919 3.65387 18.1064 3.65387 17.3842V16.0765ZM5.80914 5.61462H4.30769L4.30769 6.92232H4.66491L5.80914 5.61462ZM6.40253 6.92232L7.54676 5.61462H8.23077V6.92232H6.40253ZM4.96617 8.23001H8.23077C8.95299 8.23001 9.53846 7.64454 9.53846 6.92232V5.61462C9.53846 4.89241 8.95299 4.30693 8.23077 4.30693H7.25046H7.25017H4.30769C3.58547 4.30693 3 4.89241 3 5.61462V6.92232C3 7.64454 3.58547 8.23001 4.30769 8.23001H4.95649H4.96617Z" fill="currentColor"/>
</svg>
