<svg xmlns="http://www.w3.org/2000/svg" fill="none" viewBox="0 0 26 24"><g filter="url(#filter0_dd)"><rect width="18" height="16" x="4" y="2" fill="#F79400" rx="2"/></g><path fill="#fff" d="M20.479 7.054c-.243-.128-.555-.064-.693.191l-.798 1.183c-.831-2.365-3.257-3.994-5.995-3.994-2.807 0-5.268 1.725-6.065 4.153-.07.256.07.512.346.607.278.064.555-.063.659-.319.658-2.045 2.703-3.483 5.06-3.483 2.287 0 4.297 1.342 4.99 3.291l-1.317-.703c-.242-.128-.554-.064-.693.16a.446.446 0 00.174.64l2.39 1.277c.07.032.174.064.278.064.035 0 .104 0 .139-.032a.548.548 0 00.312-.224l1.386-2.204c.139-.192.07-.48-.173-.607z"/><path fill="#fff" fill-rule="evenodd" d="M9.875 11.125V16H5v-4.875h4.875zm-.813.813h-3.25v3.25h3.25v-3.25zm6.5-.813V16h-4.874v-4.875h4.874zm-.812.813H11.5v3.25h3.25v-3.25zm6.5-.813V16h-4.875v-4.875h4.875zm-.813.813h-3.25v3.25h3.25v-3.25z" clip-rule="evenodd"/><path fill="#fff" d="M7.438 12.75h-.813v.813h.813v-.813zm.812.813h-.813v.812h.813v-.813z"/><path fill="#fff" fill-rule="evenodd" d="M18 12.75h.813v.813H18v-.813z" clip-rule="evenodd"/><path fill="#fff" d="M19.625 13.563h-.813v.812h.813v-.813z"/><defs><filter id="filter0_dd" width="26" height="24" x="0" y="0" color-interpolation-filters="sRGB" filterUnits="userSpaceOnUse"><feBlend in="SourceGraphic" in2="effect2_dropShadow" result="shape"/></filter></defs></svg>