<svg width="25" height="20" viewBox="0 0 25 20" fill="none" xmlns="http://www.w3.org/2000/svg">
    <path d="M23.8138 6.23903C23.4406 6.04239 22.9607 6.14071 22.7474 6.53398L21.521 8.35286C20.2414 4.71511 16.509 2.20801 12.2967 2.20801C7.97774 2.20801 4.19201 4.86258 2.96565 8.59865C2.85901 8.99192 3.07229 9.38519 3.49885 9.53267C3.92541 9.63098 4.35198 9.43435 4.51194 9.04108C5.52502 5.89492 8.6709 3.68277 12.2967 3.68277C15.8158 3.68277 18.9084 5.74744 19.9748 8.74613L17.9486 7.66463C17.5754 7.468 17.0955 7.56632 16.8822 7.91043C16.6689 8.25454 16.7756 8.69697 17.1488 8.8936L20.8279 10.86C20.9345 10.9091 21.0945 10.9583 21.2544 10.9583C21.3078 10.9583 21.4144 10.9583 21.4677 10.9091C21.681 10.86 21.841 10.7125 21.9476 10.565L24.0804 7.17305C24.2937 6.87809 24.1871 6.43566 23.8138 6.23903Z" fill="#6B6D85"/>
    <path fill-rule="evenodd" clip-rule="evenodd" d="M7.50023 12.5005V20.0007H0V12.5005H7.50023ZM6.25019 13.7505H1.25004V18.7507H6.25019V13.7505Z" fill="#6B6D85"/>
    <path fill-rule="evenodd" clip-rule="evenodd" d="M16.2512 12.5V20.0002H8.75098V12.5H16.2512ZM15.0012 13.75H10.001V18.7502H15.0012V13.75Z" fill="#6B6D85"/>
    <path fill-rule="evenodd" clip-rule="evenodd" d="M24.9997 12.5V20.0002H17.4995V12.5H24.9997ZM23.7497 13.75H18.7495V18.7502H23.7497V13.75Z" fill="#6B6D85"/>
    <path d="M3.75101 15.001H2.50098V16.251H3.75101V15.001Z" fill="#6B6D85"/>
    <path d="M4.99906 16.249H3.74902V17.4991H4.99906V16.249Z" fill="#6B6D85"/>
    <path fill-rule="evenodd" clip-rule="evenodd" d="M20.0015 15.001H21.2515V15.5036V16.251H20.0015V15.001Z" fill="#6B6D85"/>
    <path d="M22.5015 16.249H21.2515V17.4991H22.5015V16.249Z" fill="#6B6D85"/>
</svg>
