<?xml version="1.0" encoding="UTF-8"?>
<svg viewBox="0 0 16 11" version="1.1" xmlns="http://www.w3.org/2000/svg" xmlns:xlink="http://www.w3.org/1999/xlink">
    <!-- Generator: Sketch 61 (89581) - https://sketch.com -->
    <title>Fill 1</title>
    <desc>Created with Sketch.</desc>
    <g id="Page-1" stroke="none" stroke-width="1" fill="none" fill-rule="evenodd">
        <g id="Skip-1" transform="translate(-265.000000, -582.000000)" fill="#E59C0B">
            <g id="Group" transform="translate(261.000000, 575.000000)">
                <path d="M17.3333333,16.3333333 L18.6666667,16.3333333 L18.6666667,15 L17.3333333,15 L17.3333333,16.3333333 Z M11.3333333,16.3333333 L12.6666667,16.3333333 L12.6666667,15 L11.3333333,15 L11.3333333,16.3333333 Z M5.33333333,16.3333333 L6.66666667,16.3333333 L6.66666667,15 L5.33333333,15 L5.33333333,16.3333333 Z M16,13.6666667 L16,14.3333333 L16,17.6666667 L20,17.6666667 L20,13.6666667 L16,13.6666667 Z M10,13.6666667 L10,14.3333333 L10,17.6666667 L14,17.6666667 L14,13.6666667 L10,13.6666667 Z M4,13.6666667 L4,14.3333333 L4,17.6666667 L8,17.6666667 L8,13.6666667 L4,13.6666667 Z M12,7 C9.10533333,7 6.53266667,8.42466667 4.95933333,10.6106667 L6.04266667,11.3893333 C7.37533333,9.538 9.54133333,8.33333333 12,8.33333333 C13.948,8.33333333 15.7053333,9.098 17.0166667,10.3333333 L14.6666667,10.3333333 L14.6666667,11.6666667 L19.3333333,11.6666667 L19.3333333,7 L18,7 L18,9.432 C16.4406667,7.93266667 14.33,7 12,7 L12,7 Z" id="Fill-1"></path>
            </g>
        </g>
    </g>
</svg>