<svg xmlns="http://www.w3.org/2000/svg" fill="none" viewBox="0 0 26 24"><defs/><g filter="url(#filter0_dd)"><rect width="18" height="16" x="4" y="2" fill="#F79400" rx="2"/></g><path fill="#fff" d="M20.4787 7.05368c-.2426-.12781-.5545-.06391-.6931.19171l-.7971 1.18223c-.8318-2.36446-3.2578-3.99403-5.9957-3.99403-2.8072 0-5.26787 1.72543-6.06498 4.1538-.06931.25561.06931.51123.34657.60709.27726.0639.55451-.06391.65848-.31952.65849-2.04495 2.70323-3.4828 5.05993-3.4828 2.2874 0 4.2975 1.342 4.9906 3.29108l-1.317-.70295c-.2426-.12781-.5545-.0639-.6931.15976-.1386.22367-.0693.51124.1733.63905l2.3913 1.2781c.0693.0319.1733.0639.2773.0639.0346 0 .104 0 .1386-.032.1386-.0319.2426-.12777.3119-.22362l1.3863-2.20471c.1386-.19171.0693-.47928-.1733-.60709z"/><path fill="#fff" fill-rule="evenodd" d="M9.875 11.125V16H5v-4.875h4.875zm-.8125.8125h-3.25v3.25h3.25v-3.25zM15.5625 11.125V16h-4.875v-4.875h4.875zm-.8125.8125H11.5v3.25h3.25v-3.25zM21.25 11.125V16h-4.875v-4.875h4.875zm-.8125.8125h-3.25v3.25h3.25v-3.25z" clip-rule="evenodd"/><path fill="#fff" d="M7.4375 12.75H6.625v.8125h.8125V12.75zM8.25 13.5625h-.8125v.8125H8.25v-.8125z"/><path fill="#fff" fill-rule="evenodd" d="M18 12.75h.8125v.8125H18V12.75z" clip-rule="evenodd"/><path fill="#fff" d="M19.625 13.5625h-.8125v.8125h.8125v-.8125z"/><defs><filter id="filter0_dd" width="26" height="24" x="0" y="0" color-interpolation-filters="sRGB" filterUnits="userSpaceOnUse"><feBlend in="SourceGraphic" in2="effect2_dropShadow" result="shape"/></filter></defs></svg>