<svg viewBox="0 0 25 20" xmlns="http://www.w3.org/2000/svg"><path d="M23.814 6.239c-.373-.197-.853-.098-1.067.295l-1.226 1.819c-1.28-3.638-5.012-6.145-9.224-6.145-4.32 0-8.105 2.655-9.331 6.39-.107.394.106.787.533.935.426.098.853-.099 1.013-.492 1.013-3.146 4.159-5.358 7.785-5.358 3.519 0 6.611 2.064 7.678 5.063l-2.026-1.081c-.374-.197-.854-.099-1.067.245a.685.685 0 0 0 .267.984l3.679 1.966c.107.05.267.098.426.098.054 0 .16 0 .214-.049a.843.843 0 0 0 .48-.344l2.132-3.392c.214-.295.107-.737-.266-.934z" fill="currentColor"/><path fill-rule="evenodd" clip-rule="evenodd" d="M7.5 12.5V20H0v-7.5h7.5zm-1.25 1.25h-5v5h5v-5zm10.001-1.25V20h-7.5v-7.5h7.5zm-1.25 1.25h-5v5h5v-5zM25 12.5V20h-7.5v-7.5H25zm-1.25 1.25h-5v5h5v-5z" fill="currentColor"/><path d="M3.751 15.001h-1.25v1.25h1.25v-1.25z" fill="currentColor"/><path d="M5 16.249H3.748v1.25h1.25v-1.25z" fill="currentColor"/><path fill-rule="evenodd" clip-rule="evenodd" d="M20.002 15.001h1.25v1.25h-1.25v-1.25z" fill="currentColor"/><path d="M22.502 16.249h-1.25v1.25h1.25v-1.25z" fill="currentColor"/></svg>