<svg viewBox="0 0 14 15" fill="none" xmlns="http://www.w3.org/2000/svg"><path fill-rule="evenodd" clip-rule="evenodd" d="M4.396.302C2.026.326.086 2.418.04 4.777H.026L0 14.313l9.555.026c2.356-.042 4.368-1.976 4.415-4.323h.004L14 .328 4.396.302zM6.175 3.31c-.568 0-1.614.358-1.665.411-.06.063-.063.124-.044.19.033.11.23.358.448.576l.268.266c.346.343.706.7.972 1.001-.114.11-.229.227-.343.343-.185.188-.37.376-.556.541-.23-.223-.483-.482-.735-.74-.172-.176-.343-.351-.505-.513a7.388 7.388 0 01-.105-.108 1.757 1.757 0 00-.313-.282c-.135-.08-.24-.083-.362 0-.216.147-.475 1.329-.397 2.012.07.61.315 1.24.836 1.824.533.598 1.194.9 1.811 1.017a3.395 3.395 0 001.832-.146c.192.193.377.374.564.556.156.153.313.306.474.467.065.065.13.133.194.2.26.273.519.543.83.656.544.197 1.375.014 1.693-.73.087-.205.121-.456.098-.683-.018-.173-.085-.436-.235-.62-.077-.112-.52-.54-.52-.54-.079-.078-.16-.155-.242-.234-.094-.09-.19-.181-.285-.277l-.474-.473a4.36 4.36 0 01-.14-.15c-.115-.126-.228-.25-.34-.303-.282-.13-.59.205-.467.467.053.114.177.226.303.34.051.046.102.093.15.14.161.162.327.324.492.486.164.16.326.319.483.475l.047.048.064.067.097.1c.142.15.329.355.359.427l.001.005.003.007c.17.547-.474 1.047-.961.752a.77.77 0 01-.176-.166c-.03-.034-.061-.07-.096-.105-.219-.219-.458-.453-.7-.69-.374-.368-.755-.741-1.076-1.072-.914.496-1.945.548-2.864-.104a2.634 2.634 0 01-.982-1.386 2.433 2.433 0 01-.028-1.42L4.74 7.098c.042.042.081.087.12.13.085.096.165.187.256.232.222.11.4-.072.619-.297l.091-.093.404-.404c.05-.049.116-.11.19-.178.225-.207.515-.475.57-.636.067-.202-.098-.366-.29-.554l-.052-.052c-.412-.413-.79-.794-1.17-1.184.744-.17 1.579-.094 2.327.53.711.592.958 1.402.94 2.025a.959.959 0 01-.007.085c-.008.065-.016.131.007.194.123.263.465.333.641.07.053-.08.051-.234.05-.354l-.001-.057c0-.694-.232-1.416-.78-2.075a3.17 3.17 0 00-2.48-1.17zm3.422 9.191c1.412-.044 2.492-1.079 2.534-2.49h-.004l.038-7.873-7.774-.005c-1.457.004-2.508 1.229-2.538 2.676l-.037 7.687 7.78.005z" fill="#27AE60"/></svg>