<svg xmlns="http://www.w3.org/2000/svg" viewBox="0 0 22 22"><defs/><path d="M13.75 22c1.094 0 2.1432-.4346 2.9168-1.2082.7736-.7736 1.2082-1.8228 1.2082-2.9168V13.75h-2.75v4.125c0 .3647-.1449.7144-.4027.9723-.2579.2578-.6076.4027-.9723.4027H4.125c-.36467 0-.71441-.1449-.97227-.4027-.25786-.2579-.40273-.6076-.40273-.9723V8.25c0-.36467.14487-.71441.40273-.97227s.6076-.40273.97227-.40273H8.25v-2.75H4.125c-1.09402 0-2.14323.4346-2.91682 1.20818C.434597 6.10677 0 7.15598 0 8.25v9.625c0 1.094.434597 2.1432 1.20818 2.9168C1.98177 21.5654 3.03098 22 4.125 22h9.625z"/><path d="M17.875 0h-2.75v4.125H11v2.75h4.125V11h2.75V6.875H22v-2.75h-4.125V0z"/></svg>