<svg fill="none" xmlns="http://www.w3.org/2000/svg" viewBox="0 0 37 37"><path d="M34.898 16.867h-5.157c-.582-5.545-5.002-9.965-10.547-10.547V1.163C19.194.504 18.69 0 18.03 0c-.66 0-1.164.504-1.164 1.163V6.32c-5.545.582-9.965 5.002-10.547 10.547H1.163c-.659 0-1.163.504-1.163 1.164 0 .659.504 1.163 1.163 1.163H6.32c.582 5.545 5.002 9.965 10.547 10.547v5.157c0 .66.504 1.163 1.164 1.163.659 0 1.163-.504 1.163-1.163v-5.157c5.545-.582 9.965-5.002 10.547-10.547h5.157c.66 0 1.163-.504 1.163-1.163 0-.66-.504-1.164-1.163-1.164zM19.194 27.375v-4.032c0-.66-.504-1.163-1.163-1.163-.66 0-1.164.504-1.164 1.163v4.032a9.464 9.464 0 01-8.181-8.181h4.032c.66 0 1.164-.504 1.164-1.163 0-.66-.505-1.164-1.164-1.164H8.686a9.464 9.464 0 018.181-8.181v4.032c0 .66.504 1.164 1.164 1.164.659 0 1.163-.504 1.163-1.164V8.686a9.464 9.464 0 018.181 8.181h-4.032c-.66 0-1.163.504-1.163 1.164 0 .659.504 1.163 1.163 1.163h4.032a9.464 9.464 0 01-8.181 8.181z" fill="#6374D0"/></svg>