<svg fill="none" xmlns="http://www.w3.org/2000/svg" viewBox="0 0 25 22"><path fill-rule="evenodd" clip-rule="evenodd" d="M4.586 1.6a.8.8 0 00-.8.8v4.255h-1.6V2.4a2.4 2.4 0 012.4-2.4h5.686v1.6H4.586zm15.743 0h-5.686V0h5.686a2.4 2.4 0 012.4 2.4v4.957h-1.6V2.4a.8.8 0 00-.8-.8zM3.786 11.702v5.713a.8.8 0 00.8.8h5.756v1.6H4.586a2.4 2.4 0 01-2.4-2.4v-5.713h1.6zm17.343 5.713v-5.686h1.6v5.686a2.4 2.4 0 01-2.4 2.4h-5.755v-1.6h5.755a.8.8 0 00.8-.8z" fill="#4F5162"/><path fill-rule="evenodd" clip-rule="evenodd" d="M10.343 18.286a2.114 2.114 0 104.229 0h1.6a3.714 3.714 0 01-7.429 0h1.6zM10.4 0v.69c0 .864.811 1.71 2 1.71 1.19 0 2-.846 2-1.71V0H16v.69C16 2.597 14.304 4 12.4 4 10.496 4 8.8 2.598 8.8.69V0h1.6zm10.729 11.658h.072a2.114 2.114 0 100-4.23h-.072v-1.6h.072a3.714 3.714 0 110 7.43h-.072v-1.6zM3.788 7.429h-.074a2.114 2.114 0 000 4.228h.074v1.6h-.074a3.714 3.714 0 110-7.428h.074v1.6zm9.452-1.814a.8.8 0 01.63.939l-1.485 7.59a.8.8 0 11-1.57-.308l1.486-7.59a.8.8 0 01.938-.631zm1.49.997a.8.8 0 011.131-.037l2.972 2.783a.8.8 0 01.047 1.12l-2.972 3.29a.8.8 0 01-1.187-1.073l2.445-2.706-2.398-2.246a.8.8 0 01-.037-1.13zM9.944 6.6a.8.8 0 00-1.132-.013L5.841 9.491a.8.8 0 00-.025 1.12l2.972 3.167a.8.8 0 001.167-1.094L7.52 10.087l2.41-2.356A.8.8 0 009.945 6.6z" fill="#4F5162"/></svg>