<svg viewBox="0 0 95 95" xmlns="http://www.w3.org/2000/svg" xmlns:xlink="http://www.w3.org/1999/xlink"><defs><linearGradient x1="3.824%" y1="76.964%" x2="89.162%" y2="36.714%" id="c"><stop stop-color="#007E0B" offset="0%"/><stop stop-color="#00B80D" offset="100%"/></linearGradient><filter x="-3.2%" y="-1.6%" width="106.3%" height="106.3%" filterUnits="objectBoundingBox" id="a"><feOffset dy="1" in="SourceAlpha" result="shadowOffsetOuter1"/><feGaussianBlur stdDeviation=".5" in="shadowOffsetOuter1" result="shadowBlurOuter1"/><feColorMatrix values="0 0 0 0 0 0 0 0 0 0 0 0 0 0 0 0 0 0 0.4 0" in="shadowBlurOuter1"/></filter><path d="M49.994 17l.375.006c12.35.327 21.873 12.82 20.936 28.485l.313.18c5.169 3.074 8.33 9.155 8.382 15.433v.307l-.012.531a18.425 18.425 0 01-.512 3.708l-.087.34c-2.516 9.511-12.215 15.279-20.38 13.772l-29.006-5.346-.264-.053c-5.037-1.111-10.761-7.503-12.17-13.708l-.118-.555A24.302 24.302 0 0117 55.494v-.144l.005-.45c.048-2.237.41-4.342 1.081-5.897l-.057-.276-.064-.33c-1.368-7.448 2.799-14.3 8.1-15.122l.08-.011a18.966 18.966 0 012.764-.147l.163-.41c3.03-7.479 8.8-13.328 16.037-15.114l.526-.123c1.4-.309 2.775-.461 4.121-.47h.238zm13.723 31.013c.976-12.76-7.849-23.046-18.457-21.141l-.344.066c-5.597 1.152-10.144 5.696-12.348 11.708l-.79 2.165-1.722-.59-.095-.025c-.546-.123-2.074-.176-2.94-.092l-.184.022c-3.065.437-5.853 4.326-5.103 8.502l.504 2.801-.578.782-.092.138c-.94 1.5-1.43 5.207-.753 8.54l.058.265c.978 4.158 5.153 8.673 8.522 9.183l30.08 4.57.26.036c5.276.634 11.264-3.736 12.419-9.923l.05-.289c.845-5.3-2.082-11.236-6.555-12.917l-2.201-.827.236-2.587zm-10.444-8.717l.202.008a2.554 2.554 0 011.513.664l.14.134c1.223 1.247 1.296 3.521.17 5.132L41.22 65.377l-.096.126c-.766.928-2.167.841-3.108-.2l-6.15-6.803-.134-.158c-.81-1.026-.983-2.56-.357-3.541l.088-.128c.701-.934 1.98-.899 2.907.132l4.526 5.028 11.665-18.856c.672-1.085 1.703-1.681 2.712-1.681z" id="b"/></defs><g fill="none" fill-rule="evenodd"><g><use fill="#000" filter="url(#a)" xlink:href="#b"/><use fill="url(#c)" xlink:href="#b"/></g><path d="M0 0h95v95H0z"/></g></svg>