<svg fill="none" xmlns="http://www.w3.org/2000/svg" viewBox="0 0 24 24"><path fill-rule="evenodd" clip-rule="evenodd" d="M10.867 21.7l.307.182c.312.181.665.274 1.021.268.35.002.695-.09 1.002-.268l.306-.183c4.869-2.881 7.883-8.291 7.888-14.158v-.15a2.168 2.168 0 00-1.022-1.878l-1.39-.82-6.6 10.775a.716.716 0 01-.528.245.72.72 0 01-.536-.238l-3.521-3.84a.758.758 0 01-.165-.724.733.733 0 01.529-.51.714.714 0 01.694.216l2.984 3.261 5.918-9.91-4.537-2.68a1.96 1.96 0 00-2.043 0L4.022 5.512A2.168 2.168 0 003 7.391v.15c.001 5.862 3.007 11.271 7.867 14.158z" fill="url(#paint0_linear)"/><defs><linearGradient id="paint0_linear" x1="3.942" y1="7.1" x2="14.781" y2="25.951" gradientUnits="userSpaceOnUse"><stop stop-color="#9E74FF"/><stop offset="1" stop-color="#8A36FF"/></linearGradient></defs></svg>