<svg viewBox="0 0 32 32" xmlns="http://www.w3.org/2000/svg"><path d="m14.1945 29.1563.4166.2392c.4247.2382.9036.3595 1.3889.3518.476.0028.9446-.1183 1.3611-.3518l.4167-.2392c6.6179-3.7803 10.7148-10.8777 10.7221-18.5752v-.197c.009-1.01452-.5217-1.9554-1.3889-2.46263l-.3322-.18945L15.9402 21.3807c-.2256.284-.6362.3369-.9264.1193l-6.1939-4.6454c-.29593-.222-.3559-.6418-.13396-.9377l.34446-.4593c.22194-.2959.64175-.3559.93768-.134l4.70472 3.5286c.2902.2176.7008.1647.9264-.1193l9.4977-11.96006-7.708-4.39578c-.8595-.50275-1.9183-.50275-2.7778 0L4.88899 7.92147c-.8672.50723-1.39784 1.44811-1.38888 2.46263v.197c.00167 7.6916 4.08709 14.7877 10.69439 18.5752Z" fill="url(#a)"/><defs><linearGradient id="a" x1="7.82692" y1="2" x2="23.0162" y2="28.4575" gradientUnits="userSpaceOnUse"><stop stop-color="#BEA1FF"/><stop offset="1" stop-color="#8A36FF"/></linearGradient></defs></svg>