<svg fill="none" xmlns="http://www.w3.org/2000/svg" viewBox="0 0 26 28"><path d="M11.194 27.156l.417.24a2.75 2.75 0 001.389.351 2.75 2.75 0 001.361-.352l.417-.239C21.396 23.376 25.493 16.28 25.5 8.581v-.197a2.822 2.822 0 00-1.389-2.463l-.332-.189L12.94 19.381a.67.67 0 01-.926.119L5.82 14.855a.67.67 0 01-.134-.938l.344-.46a.67.67 0 01.938-.133l4.705 3.528c.29.218.7.165.926-.12l9.498-11.96L14.389.378a2.747 2.747 0 00-2.778 0L1.89 5.921A2.822 2.822 0 00.5 8.384v.197c.002 7.692 4.087 14.788 10.694 18.575z" fill="url(#paint0_linear)"/><defs><linearGradient id="paint0_linear" x1="4.827" y1="0" x2="20.016" y2="26.457" gradientUnits="userSpaceOnUse"><stop stop-color="#BEA1FF"/><stop offset="1" stop-color="#8A36FF"/></linearGradient></defs></svg>