<svg fill="none" viewBox="0 0 32 32" xmlns="http://www.w3.org/2000/svg"><linearGradient id="a" gradientUnits="userSpaceOnUse" x1="7.827" x2="23.016" y1="2" y2="28.457"><stop offset="0" stop-color="#bea1ff"/><stop offset="1" stop-color="#8a36ff"/></linearGradient><path d="M14.194 29.156l.417.24c.425.238.904.359 1.389.351a2.75 2.75 0 001.361-.351l.417-.24c6.618-3.78 10.715-10.877 10.722-18.575v-.197a2.822 2.822 0 00-1.389-2.463l-.332-.189L15.94 21.381a.67.67 0 01-.926.119L8.82 16.855a.67.67 0 01-.134-.938l.344-.46a.67.67 0 01.938-.133l4.705 3.528c.29.218.7.165.926-.12l9.498-11.96-7.708-4.395a2.747 2.747 0 00-2.778 0L4.89 7.921A2.822 2.822 0 003.5 10.384v.197c.002 7.692 4.087 14.788 10.694 18.575z" fill="url(#a)"/></svg>