<svg fill="none" viewBox="0 0 168 56" xmlns="http://www.w3.org/2000/svg" xmlns:xlink="http://www.w3.org/1999/xlink"><linearGradient id="a" gradientUnits="userSpaceOnUse" x1="25.7837" x2="44.7702" y1="10.5" y2="43.5719"><stop offset="0" stop-color="#bea1ff"/><stop offset="1" stop-color="#8a36ff"/></linearGradient><g fill="#000"><path d="m59.8452 40.9999h2.1179v-7.6363h-2.1179zm1.0639-8.6207c.6314 0 1.1484-.4822 1.1484-1.0739 0-.5866-.517-1.0688-1.1484-1.0688-.6264 0-1.1435.4822-1.1435 1.0688 0 .5917.5171 1.0739 1.1435 1.0739z"/><path d="m65.7775 36.5852c.005-.9844.5916-1.5611 1.4468-1.5611.8501 0 1.3622.5568 1.3572 1.4915v4.4843h2.1179v-4.8622c0-1.7798-1.044-2.8736-2.6349-2.8736-1.1336 0-1.9539.5569-2.2969 1.4468h-.0895v-1.3473h-2.0185v7.6363h2.1179z"/><path d="m76.4304 33.3636h-1.4368v-1.8296h-2.1179v1.8296h-1.044v1.5909h1.044v3.9773c-.0099 1.4964 1.0092 2.2372 2.5455 2.1725.5468-.0198.9346-.1292 1.1484-.1988l-.3331-1.576c-.1044.0199-.3281.0696-.527.0696-.4226 0-.7159-.1591-.7159-.7457v-3.6989h1.4368z"/><path d="m81.2081 41.1491c1.8892 0 3.1619-.9198 3.4602-2.3367l-1.9588-.1292c-.2138.5817-.7606.8849-1.4666.8849-1.059 0-1.7301-.701-1.7301-1.8395v-.0049h5.2003v-.5817c0-2.5952-1.5711-3.8779-3.5895-3.8779-2.2472 0-3.7039 1.5959-3.7039 3.9525 0 2.4211 1.4368 3.9325 3.7884 3.9325zm-1.6953-4.7379c.0447-.8701.706-1.5661 1.6456-1.5661.9197 0 1.5561.6563 1.5611 1.5661z"/><path d="m88.2131 30.8181h-2.1179v10.1818h2.1179z"/><path d="m92.0275 30.8181h-2.1179v10.1818h2.1179z"/><path d="m93.7241 40.9999h2.1179v-7.6363h-2.1179zm1.0639-8.6207c.6314 0 1.1484-.4822 1.1484-1.0739 0-.5866-.517-1.0688-1.1484-1.0688-.6264 0-1.1435.4822-1.1435 1.0688 0 .5917.5171 1.0739 1.1435 1.0739z"/><path d="m100.979 44.0227c2.182 0 3.734-.9943 3.734-2.9482v-7.7109h-2.103v1.2827h-.08c-.283-.6215-.905-1.3822-2.183-1.3822-1.6749 0-3.0919 1.3026-3.0919 3.9027 0 2.5405 1.3772 3.7238 3.0969 3.7238 1.218 0 1.9-.6115 2.178-1.2429h.089v1.397c0 1.049-.671 1.4567-1.59 1.4567-.935 0-1.4074-.4077-1.5814-.8701l-1.9588.2635c.2536 1.2032 1.4318 2.1279 3.4902 2.1279zm.045-4.723c-1.0394 0-1.6062-.8253-1.6062-2.1428 0-1.2976.5568-2.2074 1.6062-2.2074 1.029 0 1.605.87 1.605 2.2074 0 1.3473-.586 2.1428-1.605 2.1428z"/><path d="m109.878 41.1491c1.889 0 3.162-.9198 3.46-2.3367l-1.959-.1292c-.213.5817-.76.8849-1.466.8849-1.059 0-1.73-.701-1.73-1.8395v-.0049h5.2v-.5817c0-2.5952-1.571-3.8779-3.589-3.8779-2.248 0-3.704 1.5959-3.704 3.9525 0 2.4211 1.436 3.9325 3.788 3.9325zm-1.695-4.7379c.044-.8701.706-1.5661 1.645-1.5661.92 0 1.556.6563 1.561 1.5661z"/><path d="m116.883 36.5852c.005-.9844.592-1.5611 1.447-1.5611.85 0 1.362.5568 1.357 1.4915v4.4843h2.118v-4.8622c0-1.7798-1.044-2.8736-2.635-2.8736-1.134 0-1.954.5569-2.297 1.4468h-.089v-1.3473h-2.019v7.6363h2.118z"/><path d="m126.924 41.1491c2.034 0 3.311-1.1932 3.411-2.9482h-1.999c-.124.8154-.661 1.2728-1.387 1.2728-.989 0-1.63-.8303-1.63-2.2919 0-1.4418.646-2.2671 1.63-2.2671.776 0 1.273.5121 1.387 1.2727h1.999c-.09-1.7649-1.427-2.9233-3.421-2.9233-2.316 0-3.748 1.6059-3.748 3.9475 0 2.3217 1.407 3.9375 3.758 3.9375z"/><path d="m135.171 41.1491c1.889 0 3.162-.9198 3.46-2.3367l-1.959-.1292c-.213.5817-.76.8849-1.466.8849-1.059 0-1.73-.701-1.73-1.8395v-.0049h5.2v-.5817c0-2.5952-1.571-3.8779-3.59-3.8779-2.247 0-3.703 1.5959-3.703 3.9525 0 2.4211 1.436 3.9325 3.788 3.9325zm-1.695-4.7379c.044-.8701.706-1.5661 1.645-1.5661.92 0 1.556.6563 1.561 1.5661z"/><path d="m63.176 26.1591c1.6904 0 2.804-1.034 3.0029-2.3863h-1.1733c-.2188.8352-.9148 1.3324-1.8296 1.3324-1.392 0-2.2869-1.1534-2.2869-2.9233 0-1.7301.9148-2.8637 2.2869-2.8637 1.0341 0 1.6506.6364 1.8296 1.3324h1.1733c-.1989-1.4318-1.4119-2.3863-3.0227-2.3863-2.0682 0-3.4404 1.6306-3.4404 3.9573 0 2.287 1.3125 3.9375 3.4602 3.9375z"/><path d="m69.0674 21.4063c0-1.3324.8501-2.0881 2.0085-2.0881 1.1037 0 1.7699.6961 1.7699 1.9091v4.7728h1.1733v-4.8523c0-1.9638-1.044-2.8835-2.6051-2.8835-1.2032 0-1.8892.5021-2.2472 1.2926h-.0994v-3.7387h-1.1733v10.1819h1.1733z"/><path d="m78.4127 26.179c1.3324 0 2.0284-.7159 2.2671-1.213h.0596v1.0341h1.1733v-5.0313c0-2.4261-1.8494-2.7045-2.8238-2.7045-1.1534 0-2.4659.3977-3.0625 1.7897l1.1136.3978c.2585-.5569.87-1.1534 1.9886-1.1534 1.0789 0 1.6108.5717 1.6108 1.5511v.0398c0 .5667-.5767.517-1.9687.696-1.4169.1839-2.9631.4971-2.9631 2.2471 0 1.4915 1.1534 2.3466 2.6051 2.3466zm.179-1.0539c-.9347 0-1.6108-.4177-1.6108-1.233 0-.8949.8154-1.1733 1.7301-1.2926.4972-.0597 1.8296-.1989 2.0284-.4375v1.0739c0 .9545-.7556 1.8892-2.1477 1.8892z"/><path d="m85.2275 21.4063c0-1.3324.8253-2.0881 1.9489-2.0881 1.0888 0 1.75.711 1.75 1.9091v4.7728h1.1733v-4.8523c0-1.9489-1.0391-2.8835-2.5852-2.8835-1.1534 0-1.8693.517-2.2273 1.2926h-.0994v-1.1932h-1.1336v7.6364h1.1733z"/><path d="m95.3261 29.0228c1.8295 0 3.3011-.8352 3.3011-2.804v-7.8551h-1.1335v1.2131h-.1193c-.2585-.3978-.7358-1.3125-2.2273-1.3125-1.929 0-3.2614 1.5312-3.2614 3.8778 0 2.3864 1.3921 3.7386 3.2415 3.7386 1.4915 0 1.9688-.875 2.2273-1.2926h.0994v1.5512c0 1.2727-.8949 1.8494-2.1278 1.8494-1.3871 0-1.8743-.7308-2.1875-1.1534l-.9347.6562c.4773.8005 1.4169 1.5313 3.1222 1.5313zm-.0398-4.196c-1.4716 0-2.2273-1.1137-2.2273-2.7046 0-1.5511.7358-2.804 2.2273-2.804 1.4318 0 2.1875 1.1534 2.1875 2.804 0 1.6904-.7756 2.7046-2.1875 2.7046z"/><path d="m103.977 26.1591c1.551 0 2.684-.7755 3.042-1.9289l-1.133-.3182c-.299.7954-.99 1.1932-1.909 1.1932-1.377 0-2.327-.8899-2.382-2.5256h5.544v-.4972c0-2.8437-1.691-3.8181-3.282-3.8181-2.068 0-3.44 1.6306-3.44 3.9772s1.352 3.9176 3.56 3.9176zm-2.382-4.5937c.08-1.1882.92-2.2472 2.262-2.2472 1.273 0 2.088.9546 2.088 2.2472z"/></g><path d="m33.7431 44.4453.5208.2991c.5308.2977 1.1294.4494 1.7361.4397.5949.0035 1.1808-.1479 1.7014-.4397l.5208-.2991c8.2725-4.7253 13.3935-13.597 13.4027-23.2189v-.2463c.0112-1.2681-.6521-2.4442-1.7361-3.0783l-.4153-.2368-13.5483 17.0609c-.2819.355-.7953.4211-1.1579.1491l-7.7424-5.8068c-.3699-.2774-.4449-.8022-.1675-1.1721l.4306-.5741c.2774-.3699.8022-.4449 1.1721-.1674l5.8809 4.4107c.3627.272.876.2059 1.158-.1492l11.8721-14.9501-9.635-5.4947c-1.0743-.6284-2.3979-.6284-3.4722 0l-12.1527 6.9305c-1.084.6341-1.7473 1.8102-1.7361 3.0783v.2463c.0021 9.6145 5.1089 18.4846 13.368 23.2189z" fill="url(#a)"/></svg>