<svg width="184" height="56" viewBox="0 0 184 56" fill="none" xmlns="http://www.w3.org/2000/svg">
    <path d="M58.5375 18.2912C58.4911 17.857 58.2956 17.5189 57.9509 17.277C57.6095 17.035 57.1654 16.9141 56.6185 16.9141C56.234 16.9141 55.9042 16.9721 55.6291 17.0881C55.354 17.2041 55.1436 17.3615 54.9977 17.5604C54.8519 17.7592 54.7773 17.9863 54.774 18.2415C54.774 18.4536 54.8221 18.6375 54.9182 18.7933C55.0176 18.9491 55.1519 19.0817 55.3209 19.1911C55.4899 19.2971 55.6772 19.3866 55.8827 19.4595C56.0882 19.5324 56.2953 19.5937 56.5041 19.6435L57.4587 19.8821C57.8431 19.9716 58.2127 20.0926 58.5673 20.245C58.9253 20.3975 59.2451 20.5897 59.5269 20.8217C59.8119 21.0537 60.0373 21.3338 60.203 21.6619C60.3687 21.9901 60.4516 22.3745 60.4516 22.8153C60.4516 23.4119 60.2991 23.9373 59.9942 24.3913C59.6893 24.8421 59.2484 25.1951 58.6717 25.4503C58.0984 25.7022 57.404 25.8281 56.5886 25.8281C55.7965 25.8281 55.1088 25.7055 54.5254 25.4602C53.9454 25.215 53.4913 24.857 53.1632 24.3864C52.8384 23.9157 52.6627 23.3423 52.6362 22.6662H54.4509C54.4774 23.0208 54.5868 23.3158 54.779 23.5511C54.9712 23.7865 55.2215 23.9621 55.5297 24.0781C55.8412 24.1941 56.1893 24.2521 56.5737 24.2521C56.9748 24.2521 57.3261 24.1925 57.6277 24.0732C57.9326 23.9505 58.1713 23.7815 58.3436 23.5661C58.516 23.3473 58.6038 23.0921 58.6071 22.8004C58.6038 22.5353 58.5259 22.3165 58.3734 22.1442C58.221 21.9685 58.0072 21.8227 57.7321 21.7067C57.4603 21.5874 57.1421 21.4813 56.7776 21.3885L55.6192 21.0902C54.7806 20.8748 54.1178 20.5483 53.6305 20.1108C53.1466 19.67 52.9047 19.085 52.9047 18.3558C52.9047 17.7559 53.0671 17.2306 53.3919 16.7798C53.72 16.3291 54.1658 15.9794 54.7293 15.7308C55.2927 15.4789 55.9307 15.353 56.6433 15.353C57.3659 15.353 57.9989 15.4789 58.5425 15.7308C59.0894 15.9794 59.5186 16.3258 59.8301 16.7699C60.1417 17.2107 60.3024 17.7178 60.3124 18.2912H58.5375Z" fill="white"/>
    <path d="M65.3971 25.8232C64.6314 25.8232 63.9702 25.6641 63.4134 25.3459C62.8599 25.0244 62.434 24.5703 62.1357 23.9837C61.8374 23.3937 61.6883 22.6993 61.6883 21.9006C61.6883 21.1151 61.8374 20.4257 62.1357 19.8324C62.4373 19.2358 62.8582 18.7718 63.3985 18.4403C63.9387 18.1056 64.5734 17.9382 65.3026 17.9382C65.7732 17.9382 66.2174 18.0144 66.635 18.1669C67.0559 18.3161 67.4271 18.5481 67.7486 18.8629C68.0734 19.1778 68.3286 19.5788 68.5142 20.0661C68.6999 20.55 68.7927 21.1267 68.7927 21.7962V22.348H62.5334V21.1349H67.0675C67.0642 20.7902 66.9896 20.4837 66.8438 20.2152C66.698 19.9434 66.4941 19.7296 66.2323 19.5739C65.9738 19.4181 65.6722 19.3402 65.3275 19.3402C64.9596 19.3402 64.6364 19.4297 64.358 19.6087C64.0796 19.7843 63.8625 20.0163 63.7067 20.3047C63.5543 20.5897 63.4764 20.9029 63.4731 21.2443V22.3033C63.4731 22.7474 63.5543 23.1286 63.7167 23.4467C63.8791 23.7616 64.1061 24.0036 64.3978 24.1726C64.6894 24.3383 65.0308 24.4212 65.4219 24.4212C65.6838 24.4212 65.9207 24.3847 66.1329 24.3118C66.345 24.2356 66.5289 24.1245 66.6847 23.9787C66.8405 23.8329 66.9581 23.6522 67.0377 23.4368L68.7181 23.6257C68.612 24.0698 68.4098 24.4576 68.1115 24.7891C67.8166 25.1172 67.4387 25.3724 66.978 25.5547C66.5173 25.7337 65.9903 25.8232 65.3971 25.8232Z" fill="white"/>
    <path d="M70.3152 25.674V18.0376H72.0602V19.3104H72.1398C72.279 18.8696 72.5176 18.5298 72.8557 18.2912C73.1971 18.0492 73.5865 17.9283 74.024 17.9283C74.1234 17.9283 74.2345 17.9332 74.3571 17.9432C74.4831 17.9498 74.5875 17.9614 74.6703 17.978V19.6335C74.5941 19.607 74.4731 19.5838 74.3074 19.5639C74.145 19.5407 73.9876 19.5291 73.8351 19.5291C73.507 19.5291 73.212 19.6004 72.9502 19.7429C72.6916 19.8821 72.4878 20.076 72.3386 20.3246C72.1895 20.5732 72.1149 20.8598 72.1149 21.1847V25.674H70.3152Z" fill="white"/>
    <path d="M82.9194 18.0376L80.2 25.674H78.2113L75.4919 18.0376H77.4109L79.1659 23.7102H79.2454L81.0054 18.0376H82.9194Z" fill="white"/>
    <path d="M84.1648 25.674V18.0376H85.9645V25.674H84.1648ZM85.0696 16.9538C84.7846 16.9538 84.5393 16.8594 84.3339 16.6705C84.1284 16.4782 84.0256 16.2479 84.0256 15.9794C84.0256 15.7076 84.1284 15.4773 84.3339 15.2884C84.5393 15.0961 84.7846 15 85.0696 15C85.358 15 85.6033 15.0961 85.8054 15.2884C86.0109 15.4773 86.1137 15.7076 86.1137 15.9794C86.1137 16.2479 86.0109 16.4782 85.8054 16.6705C85.6033 16.8594 85.358 16.9538 85.0696 16.9538Z" fill="white"/>
    <path d="M91.1462 25.8232C90.3839 25.8232 89.7293 25.6558 89.1824 25.321C88.6388 24.9863 88.2196 24.5239 87.9246 23.9339C87.6329 23.3407 87.4871 22.6579 87.4871 21.8857C87.4871 21.1101 87.6362 20.4257 87.9345 19.8324C88.2328 19.2358 88.6538 18.7718 89.1973 18.4403C89.7442 18.1056 90.3905 17.9382 91.1362 17.9382C91.756 17.9382 92.3046 18.0526 92.7818 18.2812C93.2624 18.5066 93.6452 18.8265 93.9303 19.2408C94.2153 19.6518 94.3777 20.1323 94.4175 20.6825H92.6973C92.6277 20.3146 92.462 20.008 92.2001 19.7628C91.9416 19.5142 91.5953 19.3899 91.1611 19.3899C90.7932 19.3899 90.47 19.4893 90.1916 19.6882C89.9132 19.8838 89.6961 20.1655 89.5403 20.5334C89.3879 20.9013 89.3117 21.3421 89.3117 21.8558C89.3117 22.3762 89.3879 22.8236 89.5403 23.1982C89.6928 23.5694 89.9066 23.8561 90.1817 24.0582C90.4601 24.2571 90.7866 24.3565 91.1611 24.3565C91.4262 24.3565 91.6632 24.3068 91.872 24.2074C92.0841 24.1046 92.2615 23.9572 92.404 23.7649C92.5465 23.5727 92.6443 23.339 92.6973 23.0639H94.4175C94.3744 23.6042 94.2153 24.0831 93.9402 24.5007C93.6651 24.915 93.2906 25.2398 92.8166 25.4751C92.3427 25.7071 91.7858 25.8232 91.1462 25.8232Z" fill="white"/>
    <path d="M99.276 25.8232C98.5103 25.8232 97.8491 25.6641 97.2923 25.3459C96.7388 25.0244 96.3129 24.5703 96.0146 23.9837C95.7163 23.3937 95.5672 22.6993 95.5672 21.9006C95.5672 21.1151 95.7163 20.4257 96.0146 19.8324C96.3162 19.2358 96.7371 18.7718 97.2774 18.4403C97.8176 18.1056 98.4523 17.9382 99.1815 17.9382C99.6522 17.9382 100.096 18.0144 100.514 18.1669C100.935 18.3161 101.306 18.5481 101.628 18.8629C101.952 19.1778 102.208 19.5788 102.393 20.0661C102.579 20.55 102.672 21.1267 102.672 21.7962V22.348H96.4123V21.1349H100.946C100.943 20.7902 100.869 20.4837 100.723 20.2152C100.577 19.9434 100.373 19.7296 100.111 19.5739C99.8527 19.4181 99.5511 19.3402 99.2064 19.3402C98.8385 19.3402 98.5153 19.4297 98.2369 19.6087C97.9585 19.7843 97.7414 20.0163 97.5856 20.3047C97.4332 20.5897 97.3553 20.9029 97.352 21.2443V22.3033C97.352 22.7474 97.4332 23.1286 97.5956 23.4467C97.758 23.7616 97.985 24.0036 98.2767 24.1726C98.5683 24.3383 98.9097 24.4212 99.3008 24.4212C99.5627 24.4212 99.7996 24.3847 100.012 24.3118C100.224 24.2356 100.408 24.1245 100.564 23.9787C100.719 23.8329 100.837 23.6522 100.917 23.4368L102.597 23.6257C102.491 24.0698 102.289 24.4576 101.99 24.7891C101.695 25.1172 101.318 25.3724 100.857 25.5547C100.396 25.7337 99.8692 25.8232 99.276 25.8232Z" fill="white"/>
    <path d="M107.746 25.674V15.4922H111.564C112.347 15.4922 113.003 15.6281 113.533 15.8999C114.067 16.1716 114.47 16.5528 114.741 17.0433C115.016 17.5305 115.154 18.099 115.154 18.7486C115.154 19.4015 115.015 19.9683 114.736 20.4489C114.461 20.9261 114.055 21.2957 113.518 21.5575C112.981 21.8161 112.322 21.9453 111.54 21.9453H108.82V20.4141H111.291C111.748 20.4141 112.123 20.3511 112.415 20.2251C112.706 20.0959 112.922 19.9086 113.061 19.6634C113.203 19.4148 113.275 19.1098 113.275 18.7486C113.275 18.3873 113.203 18.0791 113.061 17.8239C112.918 17.5653 112.701 17.3698 112.41 17.2372C112.118 17.1013 111.742 17.0334 111.281 17.0334H109.591V25.674H107.746ZM113.006 21.0604L115.527 25.674H113.469L110.993 21.0604H113.006Z" fill="white"/>
    <path d="M120.044 25.8232C119.278 25.8232 118.617 25.6641 118.06 25.3459C117.506 25.0244 117.08 24.5703 116.782 23.9837C116.484 23.3937 116.335 22.6993 116.335 21.9006C116.335 21.1151 116.484 20.4257 116.782 19.8324C117.084 19.2358 117.505 18.7718 118.045 18.4403C118.585 18.1056 119.22 17.9382 119.949 17.9382C120.42 17.9382 120.864 18.0144 121.281 18.1669C121.702 18.3161 122.074 18.5481 122.395 18.8629C122.72 19.1778 122.975 19.5788 123.161 20.0661C123.346 20.55 123.439 21.1267 123.439 21.7962V22.348H117.18V21.1349H121.714C121.711 20.7902 121.636 20.4837 121.49 20.2152C121.344 19.9434 121.141 19.7296 120.879 19.5739C120.62 19.4181 120.319 19.3402 119.974 19.3402C119.606 19.3402 119.283 19.4297 119.004 19.6087C118.726 19.7843 118.509 20.0163 118.353 20.3047C118.201 20.5897 118.123 20.9029 118.12 21.2443V22.3033C118.12 22.7474 118.201 23.1286 118.363 23.4467C118.526 23.7616 118.753 24.0036 119.044 24.1726C119.336 24.3383 119.677 24.4212 120.068 24.4212C120.33 24.4212 120.567 24.3847 120.779 24.3118C120.991 24.2356 121.175 24.1245 121.331 23.9787C121.487 23.8329 121.605 23.6522 121.684 23.4368L123.365 23.6257C123.259 24.0698 123.056 24.4576 122.758 24.7891C122.463 25.1172 122.085 25.3724 121.625 25.5547C121.164 25.7337 120.637 25.8232 120.044 25.8232Z" fill="white"/>
    <path d="M126.761 15.4922V25.674H124.962V15.4922H126.761Z" fill="white"/>
    <path d="M128.612 25.674V18.0376H130.412V25.674H128.612ZM129.517 16.9538C129.232 16.9538 128.987 16.8594 128.781 16.6705C128.576 16.4782 128.473 16.2479 128.473 15.9794C128.473 15.7076 128.576 15.4773 128.781 15.2884C128.987 15.0961 129.232 15 129.517 15C129.805 15 130.051 15.0961 130.253 15.2884C130.458 15.4773 130.561 15.7076 130.561 15.9794C130.561 16.2479 130.458 16.4782 130.253 16.6705C130.051 16.8594 129.805 16.9538 129.517 16.9538Z" fill="white"/>
    <path d="M134.46 25.8281C133.976 25.8281 133.54 25.742 133.152 25.5696C132.768 25.3939 132.463 25.1354 132.238 24.794C132.016 24.4527 131.905 24.0317 131.905 23.5312C131.905 23.1004 131.984 22.7441 132.143 22.4624C132.302 22.1806 132.519 21.9553 132.794 21.7862C133.07 21.6172 133.379 21.4896 133.724 21.4034C134.072 21.3139 134.432 21.2493 134.803 21.2095C135.25 21.1631 135.613 21.1217 135.892 21.0852C136.17 21.0455 136.372 20.9858 136.498 20.9063C136.628 20.8234 136.692 20.6958 136.692 20.5234V20.4936C136.692 20.1191 136.581 19.8291 136.359 19.6236C136.137 19.4181 135.817 19.3153 135.4 19.3153C134.959 19.3153 134.609 19.4115 134.351 19.6037C134.095 19.7959 133.923 20.023 133.833 20.2848L132.153 20.0462C132.286 19.5821 132.504 19.1944 132.809 18.8828C133.114 18.5679 133.487 18.3326 133.928 18.1768C134.369 18.0178 134.856 17.9382 135.39 17.9382C135.758 17.9382 136.124 17.9813 136.488 18.0675C136.853 18.1536 137.186 18.2962 137.488 18.495C137.789 18.6906 138.031 18.9574 138.213 19.2955C138.399 19.6335 138.492 20.0561 138.492 20.5632V25.674H136.762V24.625H136.702C136.593 24.8371 136.439 25.036 136.24 25.2216C136.044 25.4039 135.797 25.5514 135.499 25.6641C135.204 25.7734 134.858 25.8281 134.46 25.8281ZM134.927 24.5057C135.289 24.5057 135.602 24.4344 135.867 24.2919C136.132 24.1461 136.336 23.9538 136.478 23.7152C136.624 23.4766 136.697 23.2164 136.697 22.9347V22.0348C136.641 22.0812 136.545 22.1243 136.409 22.1641C136.276 22.2038 136.127 22.2386 135.961 22.2685C135.796 22.2983 135.632 22.3248 135.469 22.348C135.307 22.3712 135.166 22.3911 135.047 22.4077C134.778 22.4441 134.538 22.5038 134.326 22.5866C134.114 22.6695 133.946 22.7855 133.824 22.9347C133.701 23.0805 133.64 23.2694 133.64 23.5014C133.64 23.8329 133.761 24.0831 134.003 24.2521C134.244 24.4212 134.553 24.5057 134.927 24.5057Z" fill="white"/>
    <path d="M140.381 25.674V15.4922H142.181V19.3004H142.255C142.348 19.1148 142.479 18.9176 142.648 18.7088C142.817 18.4967 143.046 18.3161 143.334 18.1669C143.623 18.0144 143.99 17.9382 144.438 17.9382C145.028 17.9382 145.56 18.089 146.034 18.3906C146.511 18.6889 146.889 19.1314 147.167 19.718C147.449 20.3014 147.59 21.0173 147.59 21.8658C147.59 22.7043 147.452 23.4169 147.177 24.0036C146.902 24.5902 146.528 25.0376 146.054 25.3459C145.58 25.6541 145.043 25.8082 144.443 25.8082C144.005 25.8082 143.642 25.7353 143.354 25.5895C143.066 25.4437 142.834 25.268 142.658 25.0625C142.486 24.8537 142.351 24.6565 142.255 24.4709H142.151V25.674H140.381ZM142.146 21.8558C142.146 22.3497 142.216 22.7822 142.355 23.1534C142.497 23.5246 142.701 23.8146 142.966 24.0234C143.235 24.2289 143.56 24.3317 143.941 24.3317C144.338 24.3317 144.672 24.2256 144.94 24.0135C145.208 23.7981 145.411 23.5047 145.547 23.1335C145.686 22.759 145.755 22.3331 145.755 21.8558C145.755 21.3819 145.687 20.9609 145.552 20.593C145.416 20.2251 145.213 19.9368 144.945 19.728C144.677 19.5192 144.342 19.4148 143.941 19.4148C143.556 19.4148 143.23 19.5159 142.961 19.718C142.693 19.9202 142.489 20.2036 142.35 20.5682C142.214 20.9328 142.146 21.362 142.146 21.8558Z" fill="white"/>
    <path d="M149.12 25.674V18.0376H150.92V25.674H149.12ZM150.025 16.9538C149.74 16.9538 149.494 16.8594 149.289 16.6705C149.083 16.4782 148.981 16.2479 148.981 15.9794C148.981 15.7076 149.083 15.4773 149.289 15.2884C149.494 15.0961 149.74 15 150.025 15C150.313 15 150.558 15.0961 150.761 15.2884C150.966 15.4773 151.069 15.7076 151.069 15.9794C151.069 16.2479 150.966 16.4782 150.761 16.6705C150.558 16.8594 150.313 16.9538 150.025 16.9538Z" fill="white"/>
    <path d="M154.57 15.4922V25.674H152.77V15.4922H154.57Z" fill="white"/>
    <path d="M156.421 25.674V18.0376H158.22V25.674H156.421ZM157.326 16.9538C157.04 16.9538 156.795 16.8594 156.59 16.6705C156.384 16.4782 156.281 16.2479 156.281 15.9794C156.281 15.7076 156.384 15.4773 156.59 15.2884C156.795 15.0961 157.04 15 157.326 15C157.614 15 157.859 15.0961 158.061 15.2884C158.267 15.4773 158.37 15.7076 158.37 15.9794C158.37 16.2479 158.267 16.4782 158.061 16.6705C157.859 16.8594 157.614 16.9538 157.326 16.9538Z" fill="white"/>
    <path d="M163.884 18.0376V19.4297H159.494V18.0376H163.884ZM160.578 16.2081H162.378V23.3771C162.378 23.6191 162.414 23.8047 162.487 23.9339C162.563 24.0599 162.663 24.1461 162.786 24.1925C162.908 24.2389 163.044 24.2621 163.193 24.2621C163.306 24.2621 163.409 24.2538 163.501 24.2372C163.598 24.2206 163.67 24.2057 163.72 24.1925L164.023 25.5994C163.927 25.6326 163.79 25.669 163.611 25.7088C163.435 25.7486 163.22 25.7718 162.965 25.7784C162.514 25.7917 162.108 25.7237 161.746 25.5746C161.385 25.4221 161.099 25.1868 160.886 24.8686C160.678 24.5504 160.575 24.1527 160.578 23.6754V16.2081Z" fill="white"/>
    <path d="M166.508 28.5376C166.263 28.5376 166.036 28.5178 165.827 28.478C165.621 28.4415 165.457 28.3984 165.335 28.3487L165.752 26.9467C166.014 27.023 166.248 27.0594 166.453 27.0561C166.659 27.0528 166.839 26.9882 166.995 26.8622C167.154 26.7396 167.289 26.5341 167.398 26.2457L167.552 25.8331L164.783 18.0376H166.692L168.452 23.8047H168.531L170.296 18.0376H172.21L169.153 26.5987C169.01 27.0031 168.821 27.3494 168.586 27.6378C168.351 27.9295 168.062 28.1515 167.721 28.304C167.383 28.4598 166.979 28.5376 166.508 28.5376Z" fill="white"/>
    <path d="M53.0041 30.4922H55.2612L58.284 37.87H58.4033L61.426 30.4922H63.6831V40.674H61.9132V33.679H61.8188L59.0048 40.6442H57.6824L54.8685 33.6641H54.774V40.674H53.0041V30.4922Z" fill="white"/>
    <path d="M67.8095 40.8281C67.3256 40.8281 66.8898 40.742 66.502 40.5696C66.1175 40.3939 65.8126 40.1354 65.5872 39.794C65.3652 39.4527 65.2541 39.0317 65.2541 38.5312C65.2541 38.1004 65.3337 37.7441 65.4928 37.4624C65.6519 37.1806 65.8689 36.9553 66.144 36.7862C66.4191 36.6172 66.729 36.4896 67.0737 36.4034C67.4217 36.3139 67.7814 36.2493 68.1526 36.2095C68.6 36.1631 68.9629 36.1217 69.2413 36.0852C69.5198 36.0455 69.7219 35.9858 69.8479 35.9062C69.9771 35.8234 70.0418 35.6958 70.0418 35.5234V35.4936C70.0418 35.1191 69.9307 34.8291 69.7087 34.6236C69.4866 34.4181 69.1668 34.3153 68.7492 34.3153C68.3083 34.3153 67.9587 34.4115 67.7002 34.6037C67.4449 34.7959 67.2726 35.023 67.1831 35.2848L65.5027 35.0462C65.6353 34.5821 65.854 34.1944 66.159 33.8828C66.4639 33.5679 66.8368 33.3326 67.2776 33.1768C67.7184 33.0178 68.2056 32.9382 68.7392 32.9382C69.1071 32.9382 69.4734 32.9813 69.8379 33.0675C70.2025 33.1536 70.5356 33.2962 70.8372 33.495C71.1388 33.6906 71.3808 33.9574 71.5631 34.2955C71.7487 34.6335 71.8415 35.0561 71.8415 35.5632V40.674H70.1114V39.625H70.0517C69.9423 39.8371 69.7882 40.036 69.5894 40.2216C69.3938 40.4039 69.1469 40.5514 68.8486 40.6641C68.5536 40.7734 68.2073 40.8281 67.8095 40.8281ZM68.2769 39.5057C68.6381 39.5057 68.9513 39.4344 69.2165 39.2919C69.4816 39.1461 69.6855 38.9538 69.828 38.7152C69.9738 38.4766 70.0467 38.2164 70.0467 37.9347V37.0348C69.9904 37.0812 69.8943 37.1243 69.7584 37.1641C69.6258 37.2038 69.4767 37.2386 69.3109 37.2685C69.1452 37.2983 68.9812 37.3248 68.8188 37.348C68.6564 37.3712 68.5155 37.3911 68.3962 37.4077C68.1277 37.4441 67.8874 37.5038 67.6753 37.5866C67.4632 37.6695 67.2958 37.7855 67.1732 37.9347C67.0505 38.0805 66.9892 38.2694 66.9892 38.5014C66.9892 38.8329 67.1102 39.0831 67.3521 39.2521C67.5941 39.4212 67.9023 39.5057 68.2769 39.5057Z" fill="white"/>
    <path d="M75.4509 36.1996V40.674H73.6511V33.0376H75.3713V34.3352H75.4608C75.6365 33.9077 75.9165 33.5679 76.301 33.3161C76.6888 33.0642 77.1677 32.9382 77.7378 32.9382C78.2648 32.9382 78.7238 33.0509 79.1149 33.2763C79.5093 33.5017 79.8143 33.8281 80.0297 34.2557C80.2484 34.6832 80.3562 35.2019 80.3528 35.8118V40.674H78.5531V36.0902C78.5531 35.5798 78.4206 35.1804 78.1554 34.892C77.8936 34.6037 77.5306 34.4595 77.0666 34.4595C76.7518 34.4595 76.4717 34.5291 76.2264 34.6683C75.9845 34.8042 75.7939 35.0014 75.6547 35.2599C75.5188 35.5185 75.4509 35.8317 75.4509 36.1996Z" fill="white"/>
    <path d="M84.3798 40.8281C83.8959 40.8281 83.4601 40.742 83.0723 40.5696C82.6878 40.3939 82.3829 40.1354 82.1575 39.794C81.9355 39.4527 81.8244 39.0317 81.8244 38.5312C81.8244 38.1004 81.904 37.7441 82.0631 37.4624C82.2222 37.1806 82.4393 36.9553 82.7144 36.7862C82.9895 36.6172 83.2993 36.4896 83.644 36.4034C83.9921 36.3139 84.3517 36.2493 84.7229 36.2095C85.1703 36.1631 85.5332 36.1217 85.8117 36.0852C86.0901 36.0455 86.2922 35.9858 86.4182 35.9062C86.5475 35.8234 86.6121 35.6958 86.6121 35.5234V35.4936C86.6121 35.1191 86.501 34.8291 86.279 34.6236C86.0569 34.4181 85.7371 34.3153 85.3195 34.3153C84.8787 34.3153 84.529 34.4115 84.2705 34.6037C84.0153 34.7959 83.8429 35.023 83.7534 35.2848L82.073 35.0462C82.2056 34.5821 82.4243 34.1944 82.7293 33.8828C83.0342 33.5679 83.4071 33.3326 83.8479 33.1768C84.2887 33.0178 84.7759 32.9382 85.3095 32.9382C85.6774 32.9382 86.0437 32.9813 86.4082 33.0675C86.7728 33.1536 87.1059 33.2962 87.4075 33.495C87.7091 33.6906 87.9511 33.9574 88.1334 34.2955C88.319 34.6335 88.4118 35.0561 88.4118 35.5632V40.674H86.6817V39.625H86.622C86.5126 39.8371 86.3585 40.036 86.1597 40.2216C85.9641 40.4039 85.7172 40.5514 85.4189 40.6641C85.1239 40.7734 84.7776 40.8281 84.3798 40.8281ZM84.8472 39.5057C85.2084 39.5057 85.5216 39.4344 85.7868 39.2919C86.0519 39.1461 86.2558 38.9538 86.3983 38.7152C86.5441 38.4766 86.6171 38.2164 86.6171 37.9347V37.0348C86.5607 37.0812 86.4646 37.1243 86.3287 37.1641C86.1961 37.2038 86.047 37.2386 85.8813 37.2685C85.7155 37.2983 85.5515 37.3248 85.3891 37.348C85.2267 37.3712 85.0858 37.3911 84.9665 37.4077C84.698 37.4441 84.4577 37.5038 84.2456 37.5866C84.0335 37.6695 83.8661 37.7855 83.7435 37.9347C83.6208 38.0805 83.5595 38.2694 83.5595 38.5014C83.5595 38.8329 83.6805 39.0831 83.9225 39.2521C84.1644 39.4212 84.4726 39.5057 84.8472 39.5057Z" fill="white"/>
    <path d="M93.5425 43.6967C92.8962 43.6967 92.341 43.6089 91.877 43.4332C91.413 43.2609 91.0401 43.0289 90.7584 42.7372C90.4767 42.4455 90.2811 42.1224 90.1717 41.7678L91.7925 41.375C91.8654 41.5241 91.9715 41.6716 92.1107 41.8175C92.2499 41.9666 92.4371 42.0893 92.6725 42.1854C92.9111 42.2848 93.211 42.3345 93.5723 42.3345C94.0827 42.3345 94.5053 42.2102 94.8401 41.9616C95.1748 41.7164 95.3422 41.312 95.3422 40.7486V39.3018H95.2527C95.1599 39.4875 95.024 39.678 94.845 39.8736C94.6694 40.0691 94.4357 40.2332 94.144 40.3658C93.8557 40.4983 93.4928 40.5646 93.0553 40.5646C92.4686 40.5646 91.9367 40.4271 91.4594 40.152C90.9854 39.8736 90.6076 39.4593 90.3259 38.9091C90.0475 38.3556 89.9082 37.6629 89.9082 36.831C89.9082 35.9924 90.0475 35.2848 90.3259 34.7081C90.6076 34.1281 90.9871 33.6889 91.4644 33.3906C91.9416 33.089 92.4736 32.9382 93.0602 32.9382C93.5077 32.9382 93.8756 33.0144 94.1639 33.1669C94.4556 33.3161 94.6876 33.4967 94.86 33.7088C95.0323 33.9176 95.1632 34.1148 95.2527 34.3004H95.3521V33.0376H97.127V40.7983C97.127 41.4512 96.9712 41.9915 96.6597 42.419C96.3481 42.8466 95.9222 43.1664 95.382 43.3786C94.8417 43.5907 94.2286 43.6967 93.5425 43.6967ZM93.5574 39.1527C93.9386 39.1527 94.2634 39.0599 94.5318 38.8743C94.8003 38.6887 95.0041 38.4219 95.1433 38.0739C95.2825 37.7259 95.3521 37.3082 95.3521 36.821C95.3521 36.3404 95.2825 35.9195 95.1433 35.5582C95.0074 35.197 94.8053 34.9169 94.5368 34.718C94.2716 34.5159 93.9452 34.4148 93.5574 34.4148C93.1564 34.4148 92.8216 34.5192 92.5531 34.728C92.2847 34.9368 92.0825 35.2235 91.9466 35.5881C91.8107 35.9493 91.7428 36.3603 91.7428 36.821C91.7428 37.2884 91.8107 37.6977 91.9466 38.049C92.0858 38.397 92.2896 38.6688 92.5581 38.8643C92.8299 39.0566 93.163 39.1527 93.5574 39.1527Z" fill="white"/>
    <path d="M102.352 40.8232C101.587 40.8232 100.925 40.6641 100.368 40.3459C99.815 40.0244 99.3891 39.5703 99.0908 38.9837C98.7925 38.3937 98.6433 37.6993 98.6433 36.9006C98.6433 36.1151 98.7925 35.4257 99.0908 34.8324C99.3924 34.2358 99.8133 33.7718 100.354 33.4403C100.894 33.1056 101.529 32.9382 102.258 32.9382C102.728 32.9382 103.172 33.0144 103.59 33.1669C104.011 33.3161 104.382 33.5481 104.704 33.8629C105.029 34.1778 105.284 34.5788 105.469 35.0661C105.655 35.55 105.748 36.1267 105.748 36.7962V37.348H99.4885V36.1349H104.023C104.019 35.7902 103.945 35.4837 103.799 35.2152C103.653 34.9434 103.449 34.7296 103.187 34.5739C102.929 34.4181 102.627 34.3402 102.283 34.3402C101.915 34.3402 101.591 34.4297 101.313 34.6087C101.035 34.7843 100.818 35.0163 100.662 35.3047C100.509 35.5897 100.431 35.9029 100.428 36.2443V37.3033C100.428 37.7474 100.509 38.1286 100.672 38.4467C100.834 38.7616 101.061 39.0036 101.353 39.1726C101.645 39.3383 101.986 39.4212 102.377 39.4212C102.639 39.4212 102.876 39.3847 103.088 39.3118C103.3 39.2356 103.484 39.1245 103.64 38.9787C103.796 38.8329 103.913 38.6522 103.993 38.4368L105.673 38.6257C105.567 39.0698 105.365 39.4576 105.067 39.7891C104.772 40.1172 104.394 40.3724 103.933 40.5547C103.472 40.7337 102.945 40.8232 102.352 40.8232Z" fill="white"/>
    <path d="M107.27 40.674V33.0376H108.99V34.3352H109.08C109.239 33.8977 109.503 33.5563 109.87 33.3111C110.238 33.0625 110.677 32.9382 111.188 32.9382C111.705 32.9382 112.141 33.0642 112.495 33.3161C112.853 33.5646 113.105 33.9044 113.251 34.3352H113.331C113.5 33.911 113.785 33.5729 114.186 33.321C114.59 33.0658 115.069 32.9382 115.623 32.9382C116.325 32.9382 116.899 33.1603 117.343 33.6044C117.787 34.0485 118.009 34.6965 118.009 35.5483V40.674H116.204V35.8267C116.204 35.3527 116.078 35.0064 115.826 34.7876C115.574 34.5656 115.266 34.4545 114.902 34.4545C114.467 34.4545 114.128 34.5904 113.883 34.8622C113.641 35.1307 113.52 35.4803 113.52 35.9112V40.674H111.755V35.7521C111.755 35.3577 111.635 35.0428 111.397 34.8075C111.161 34.5722 110.853 34.4545 110.472 34.4545C110.213 34.4545 109.978 34.5208 109.766 34.6534C109.554 34.7827 109.385 34.9666 109.259 35.2053C109.133 35.4406 109.07 35.7157 109.07 36.0305V40.674H107.27Z" fill="white"/>
    <path d="M123.215 40.8232C122.45 40.8232 121.789 40.6641 121.232 40.3459C120.678 40.0244 120.252 39.5703 119.954 38.9837C119.656 38.3937 119.507 37.6993 119.507 36.9006C119.507 36.1151 119.656 35.4257 119.954 34.8324C120.256 34.2358 120.677 33.7718 121.217 33.4403C121.757 33.1056 122.392 32.9382 123.121 32.9382C123.592 32.9382 124.036 33.0144 124.453 33.1669C124.874 33.3161 125.245 33.5481 125.567 33.8629C125.892 34.1778 126.147 34.5788 126.333 35.0661C126.518 35.55 126.611 36.1267 126.611 36.7962V37.348H120.352V36.1349H124.886C124.883 35.7902 124.808 35.4837 124.662 35.2152C124.516 34.9434 124.312 34.7296 124.051 34.5739C123.792 34.4181 123.491 34.3402 123.146 34.3402C122.778 34.3402 122.455 34.4297 122.176 34.6087C121.898 34.7843 121.681 35.0163 121.525 35.3047C121.373 35.5897 121.295 35.9029 121.291 36.2443V37.3033C121.291 37.7474 121.373 38.1286 121.535 38.4467C121.697 38.7616 121.924 39.0036 122.216 39.1726C122.508 39.3383 122.849 39.4212 123.24 39.4212C123.502 39.4212 123.739 39.3847 123.951 39.3118C124.163 39.2356 124.347 39.1245 124.503 38.9787C124.659 38.8329 124.777 38.6522 124.856 38.4368L126.536 38.6257C126.43 39.0698 126.228 39.4576 125.93 39.7891C125.635 40.1172 125.257 40.3724 124.796 40.5547C124.336 40.7337 123.809 40.8232 123.215 40.8232Z" fill="white"/>
    <path d="M129.933 36.1996V40.674H128.134V33.0376H129.854V34.3352H129.943C130.119 33.9077 130.399 33.5679 130.783 33.3161C131.171 33.0642 131.65 32.9382 132.22 32.9382C132.747 32.9382 133.206 33.0509 133.597 33.2763C133.992 33.5017 134.297 33.8281 134.512 34.2557C134.731 34.6832 134.839 35.2019 134.835 35.8118V40.674H133.036V36.0902C133.036 35.5798 132.903 35.1804 132.638 34.892C132.376 34.6037 132.013 34.4595 131.549 34.4595C131.234 34.4595 130.954 34.5291 130.709 34.6683C130.467 34.8042 130.276 35.0014 130.137 35.2599C130.001 35.5185 129.933 35.8317 129.933 36.1996Z" fill="white"/>
    <path d="M140.478 33.0376V34.4297H136.088V33.0376H140.478ZM137.172 31.2081H138.972V38.3771C138.972 38.6191 139.008 38.8047 139.081 38.9339C139.157 39.0599 139.257 39.1461 139.379 39.1925C139.502 39.2389 139.638 39.2621 139.787 39.2621C139.9 39.2621 140.002 39.2538 140.095 39.2372C140.191 39.2206 140.264 39.2057 140.314 39.1925L140.617 40.5994C140.521 40.6326 140.384 40.669 140.205 40.7088C140.029 40.7486 139.813 40.7718 139.558 40.7784C139.108 40.7917 138.702 40.7237 138.34 40.5746C137.979 40.4221 137.692 40.1868 137.48 39.8686C137.271 39.5504 137.169 39.1527 137.172 38.6754V31.2081Z" fill="white"/>
    <path fill-rule="evenodd" clip-rule="evenodd" d="M40.2947 38.209L32.8941 33.4996C31.5912 34.6534 29.8776 35.3538 28.0003 35.3538C26.1231 35.3538 24.4094 34.6533 23.1065 33.4995L15.7054 38.2092C18.6404 41.7292 23.0586 43.9693 28 43.9693C32.9415 43.9693 37.3598 41.7291 40.2947 38.209ZM41.4797 36.5925L34.2105 31.9666C34.9537 30.8145 35.385 29.4422 35.385 27.9692C35.385 24.2298 32.6056 21.1396 29 20.6517V12C37.3707 12.5162 44 19.4686 44 27.9693C44 31.1446 43.075 34.104 41.4797 36.5925ZM27 12C18.6293 12.5162 12 19.4686 12 27.9693C12 31.1447 12.9251 34.1041 14.5204 36.5927L21.7901 31.9665C21.047 30.8144 20.6157 29.4422 20.6157 27.9692C20.6157 24.2301 23.3947 21.14 27 20.6518V12Z" fill="url(#paint0_linear_20638_159548)"/>
    <path d="M24.9899 27.7305C24.5862 27.3536 23.9534 27.3755 23.5766 27.7792C23.1997 28.183 23.2215 28.8158 23.6253 29.1926L24.9899 27.7305ZM26.4175 30.4308L25.7352 31.1618C26.1194 31.5204 26.7156 31.5204 27.0998 31.1618L26.4175 30.4308ZM32.3746 26.2387C32.7783 25.8619 32.8001 25.2291 32.4233 24.8254C32.0465 24.4216 31.4137 24.3998 31.0099 24.7766L32.3746 26.2387ZM23.6253 29.1926L25.7352 31.1618L27.0998 29.6997L24.9899 27.7305L23.6253 29.1926ZM27.0998 31.1618L32.3746 26.2387L31.0099 24.7766L25.7352 29.6997L27.0998 31.1618Z" fill="#AE82FC"/>
    <defs>
    <linearGradient id="paint0_linear_20638_159548" x1="17.5385" y1="12" x2="34.0683" y2="43.9878" gradientUnits="userSpaceOnUse">
    <stop stop-color="#BEA1FF"/>
    <stop offset="1" stop-color="#8A36FF"/>
    </linearGradient>
    </defs>
</svg>
