<svg viewBox="0 0 168 56" fill="none" xmlns="http://www.w3.org/2000/svg"><path d="M33.743 44.445l.52.3c.532.297 1.13.449 1.737.44a3.437 3.437 0 001.701-.44l.521-.3c8.273-4.725 13.394-13.597 13.403-23.219v-.246a3.527 3.527 0 00-1.736-3.078l-.416-.237-13.548 17.06a.837.837 0 01-1.158.15l-7.742-5.807a.837.837 0 01-.168-1.172l.431-.574a.837.837 0 011.172-.167l5.881 4.41a.837.837 0 001.158-.149l11.872-14.95-9.635-5.495a3.433 3.433 0 00-3.472 0l-12.153 6.93a3.527 3.527 0 00-1.736 3.08v.245c.002 9.615 5.109 18.485 13.368 23.22z" fill="url(#paint0_linear)"/><path d="M69.72 19.253c-.314-2.262-2.054-3.574-4.311-3.574-2.66 0-4.663 1.939-4.663 5.23 0 3.286 1.978 5.23 4.663 5.23 2.421 0 4.027-1.566 4.31-3.51l-1.859-.01c-.234 1.194-1.208 1.865-2.426 1.865-1.65 0-2.834-1.238-2.834-3.575 0-2.297 1.173-3.575 2.839-3.575 1.238 0 2.207.701 2.421 1.92h1.86zM73.129 21.526c0-1.104.686-1.74 1.65-1.74.945 0 1.502.601 1.502 1.63V26h1.8v-4.862c0-1.845-1.045-2.874-2.63-2.874-1.174 0-1.92.532-2.273 1.397h-.09v-3.843h-1.76V26h1.8v-4.474zM82.112 26.154c1.198 0 1.914-.562 2.242-1.203h.06V26h1.73v-5.11c0-2.02-1.645-2.626-3.102-2.626-1.606 0-2.839.716-3.237 2.108l1.68.239c.18-.522.687-.97 1.567-.97.835 0 1.292.428 1.292 1.179v.03c0 .516-.541.541-1.889.685-1.481.16-2.898.602-2.898 2.322 0 1.502 1.099 2.297 2.555 2.297zm.468-1.322c-.751 0-1.288-.343-1.288-1.005 0-.69.602-.979 1.407-1.093.472-.065 1.417-.184 1.65-.373v.9c0 .85-.686 1.57-1.77 1.57zM89.754 21.526c0-1.104.666-1.74 1.615-1.74.93 0 1.487.611 1.487 1.63V26h1.8v-4.862c.005-1.83-1.04-2.874-2.616-2.874-1.143 0-1.928.547-2.277 1.397h-.089v-1.297h-1.72V26h1.8v-4.474zM99.806 29.023c2.063 0 3.585-.945 3.585-2.899v-7.76h-1.775v1.262h-.1c-.273-.551-.845-1.362-2.192-1.362-1.765 0-3.152 1.382-3.152 3.893 0 2.49 1.387 3.734 3.147 3.734 1.307 0 1.919-.701 2.197-1.263h.09v1.447c0 1.123-.746 1.585-1.77 1.585-1.084 0-1.561-.512-1.78-.959l-1.62.393c.327 1.069 1.426 1.929 3.37 1.929zm.015-4.544c-1.188 0-1.815-.925-1.815-2.332 0-1.387.617-2.406 1.815-2.406 1.158 0 1.795.96 1.795 2.406 0 1.457-.646 2.332-1.795 2.332zM108.616 26.15c1.78 0 3.003-.87 3.321-2.198l-1.681-.19c-.243.647-.84.985-1.615.985-1.164 0-1.934-.765-1.949-2.073h5.319v-.552c0-2.68-1.61-3.858-3.49-3.858-2.187 0-3.614 1.606-3.614 3.963 0 2.396 1.407 3.922 3.709 3.922zm-1.919-4.69c.054-.974.775-1.794 1.849-1.794 1.034 0 1.73.756 1.74 1.795h-3.589zM62.849 30.818h-1.845V41h1.845V30.818zM66.566 36.526c0-1.104.666-1.74 1.616-1.74.93 0 1.486.611 1.486 1.63V41h1.8v-4.862c.005-1.83-1.039-2.874-2.615-2.874-1.143 0-1.929.547-2.277 1.397h-.09v-1.297h-1.72V41h1.8v-4.474zM77.11 33.364h-1.506v-1.83h-1.8v1.83h-1.083v1.392h1.084V39c-.01 1.437 1.034 2.143 2.386 2.103a3.616 3.616 0 001.059-.179l-.303-1.407c-.1.025-.303.07-.527.07-.453 0-.816-.159-.816-.885v-3.947h1.507v-1.392zM81.915 41.15c1.78 0 3.002-.87 3.32-2.198l-1.68-.19c-.243.647-.84.985-1.616.985-1.163 0-1.933-.766-1.948-2.073h5.32v-.552c0-2.68-1.612-3.858-3.49-3.858-2.188 0-3.615 1.606-3.615 3.962 0 2.397 1.407 3.923 3.709 3.923zm-1.92-4.69c.055-.974.776-1.794 1.85-1.794 1.034 0 1.73.756 1.74 1.795h-3.59zM88.632 30.818h-1.8V41h1.8V30.818zM92.283 30.818h-1.8V41h1.8V30.818zM94.134 41h1.8v-7.636h-1.8V41zm.904-8.72c.572 0 1.04-.438 1.04-.975 0-.541-.468-.979-1.04-.979-.576 0-1.044.438-1.044.98 0 .536.468.974 1.044.974zM101.105 44.023c2.063 0 3.584-.945 3.584-2.899v-7.76h-1.774v1.262h-.1c-.273-.551-.845-1.362-2.192-1.362-1.765 0-3.152 1.382-3.152 3.893 0 2.49 1.387 3.734 3.147 3.734 1.307 0 1.919-.701 2.197-1.263h.09v1.447c0 1.123-.746 1.585-1.77 1.585-1.084 0-1.561-.512-1.78-.959l-1.62.393c.327 1.069 1.426 1.929 3.37 1.929zm.015-4.544c-1.188 0-1.815-.925-1.815-2.332 0-1.387.617-2.406 1.815-2.406 1.158 0 1.795.96 1.795 2.406 0 1.457-.647 2.332-1.795 2.332zM109.915 41.15c1.779 0 3.002-.87 3.321-2.198l-1.681-.19c-.243.647-.84.985-1.616.985-1.163 0-1.933-.766-1.948-2.073h5.319v-.552c0-2.68-1.611-3.858-3.49-3.858-2.187 0-3.614 1.606-3.614 3.962 0 2.397 1.407 3.923 3.709 3.923zm-1.919-4.69c.054-.974.775-1.794 1.849-1.794 1.034 0 1.73.756 1.74 1.795h-3.589zM116.632 36.526c0-1.104.667-1.74 1.616-1.74.93 0 1.487.611 1.487 1.63V41h1.799v-4.862c.005-1.83-1.039-2.874-2.615-2.874-1.143 0-1.929.547-2.277 1.397h-.089v-1.297h-1.72V41h1.799v-4.474zM126.695 41.15c1.919 0 3.142-1.14 3.271-2.76h-1.72c-.154.82-.746 1.292-1.536 1.292-1.124 0-1.85-.94-1.85-2.5 0-1.541.741-2.466 1.85-2.466.865 0 1.397.557 1.536 1.292h1.72c-.124-1.655-1.417-2.744-3.281-2.744-2.237 0-3.649 1.616-3.649 3.948 0 2.311 1.377 3.937 3.659 3.937zM134.825 41.15c1.78 0 3.003-.87 3.321-2.198l-1.681-.19c-.243.647-.84.985-1.615.985-1.164 0-1.934-.766-1.949-2.073h5.319v-.552c0-2.68-1.61-3.858-3.49-3.858-2.187 0-3.614 1.606-3.614 3.962 0 2.397 1.407 3.923 3.709 3.923zm-1.919-4.69c.054-.974.775-1.794 1.849-1.794 1.034 0 1.73.756 1.74 1.795h-3.589z" fill="#fff"/><defs><linearGradient id="paint0_linear" x1="25.784" y1="10.5" x2="44.77" y2="43.572" gradientUnits="userSpaceOnUse"><stop stop-color="#BEA1FF"/><stop offset="1" stop-color="#8A36FF"/></linearGradient></defs></svg>
