<svg viewBox="0 0 87 119" fill="none" xmlns="http://www.w3.org/2000/svg"><path d="M3.735 108.802l-.63-10.635c3.648-3.002 10.263-2.902 8.05-3.002-2.214-.1-5.87-3.796-7.42-5.63-.21-1.168-.504-5.23 0-12.137.503-6.906 10.606-11.385 15.594-12.762V29.854l5.534-1.501 6.54 1.501V63.51l6.288-.75V21.847l6.54-1.377 5.407 1.377V62.76l3.521.75V18.97h8.552l3.396 1.501v44.166c13.482 2.403 18.194 7.84 18.865 10.26v12.636c-4.126 9.21-20.08 13.263-27.543 14.138L44.23 85.03l-6.54 2.502 12.703 17.392-.755 10.509c-19.82 4.605-38.86-2.502-45.903-6.631z" fill="#fff"/><path fill-rule="evenodd" clip-rule="evenodd" d="M18.086 29.28a.33.33 0 01.422-.198c2.672.955 5.35 1.78 8.07 2.609a.328.328 0 11-.194.628c-2.718-.828-5.411-1.658-8.099-2.619a.328.328 0 01-.2-.42zM18.086 72.807a.33.33 0 01.422-.198c2.672.955 5.35 1.78 8.07 2.61a.328.328 0 11-.194.627c-2.718-.828-5.411-1.658-8.099-2.618a.328.328 0 01-.2-.42zM23.938 28.105a.33.33 0 01.4-.24c.837.207 1.67.428 2.502.648 1.95.517 3.892 1.031 5.86 1.358a.329.329 0 11-.109.648c-2-.332-3.991-.86-5.955-1.38-.824-.218-1.644-.435-2.458-.636a.328.328 0 01-.24-.398z" fill="#000"/><path fill-rule="evenodd" clip-rule="evenodd" d="M31.547 29.696a.328.328 0 01-.217.411c-2.83.874-5.735 1.371-8.636 1.82a.329.329 0 11-.102-.65c2.9-.448 5.762-.939 8.542-1.797a.33.33 0 01.413.216zM32.945 73.553a.328.328 0 01-.216.411c-2.65.826-5.375 1.318-8.098 1.767a.329.329 0 11-.108-.648c2.721-.449 5.407-.935 8.008-1.746a.33.33 0 01.414.216zM27.01 27.524a.329.329 0 01-.272.378c-.736.122-1.44.311-2.179.508l-.226.061c-2.08.554-4.19.98-6.286 1.402l-.19.038a.329.329 0 11-.131-.644l.182-.037c2.103-.423 4.194-.845 6.254-1.393l.229-.062c.733-.196 1.47-.393 2.239-.52a.33.33 0 01.38.27z" fill="#000"/><path fill-rule="evenodd" clip-rule="evenodd" d="M19.307 26.75a.33.33 0 01.33.328v49.06a.33.33 0 01-.33.329.33.33 0 01-.33-.329v-49.06a.33.33 0 01.33-.328zm12.126 0a.33.33 0 01.33.328v49.06a.33.33 0 01-.33.329.33.33 0 01-.33-.329v-49.06a.33.33 0 01.33-.328zm-6.467 2.413a.33.33 0 01.33.328v46.647a.33.33 0 01-.33.329.33.33 0 01-.33-.329V29.491a.33.33 0 01.33-.328zM35.568 21.339a.33.33 0 01.423-.198c2.67.955 5.35 1.78 8.069 2.608a.328.328 0 11-.193.629c-2.719-.829-5.412-1.658-8.1-2.62a.328.328 0 01-.199-.42zM36.616 69.566a.33.33 0 01.438-.16c2.578 1.18 5.175 2.234 7.811 3.294a.328.328 0 11-.247.61c-2.636-1.06-5.247-2.12-7.84-3.308a.328.328 0 01-.162-.436zM42.027 19.761a.33.33 0 01.4-.24c.838.207 1.671.428 2.503.648 1.95.517 3.891 1.032 5.86 1.358a.329.329 0 11-.11.648c-2-.332-3.99-.86-5.954-1.38-.824-.218-1.644-.435-2.458-.636a.328.328 0 01-.24-.398z" fill="#000"/><path fill-rule="evenodd" clip-rule="evenodd" d="M52.775 21.378a.328.328 0 01-.25.392c-3.081.681-6.4 1.185-9.1 1.595l-1.43.219a.329.329 0 11-.102-.65l1.438-.22c2.7-.41 5.994-.91 9.05-1.585a.33.33 0 01.394.25zM51.553 70.403a.328.328 0 01-.207.416c-3.46 1.164-7.01 1.827-10.56 2.426a.329.329 0 11-.11-.648c3.547-.598 7.053-1.254 10.458-2.4a.33.33 0 01.419.206zM46.051 20.58a.329.329 0 01-.303.354c-.744.058-1.462.185-2.215.318l-.23.04c-2.121.374-4.26.615-6.385.856l-.193.022a.329.329 0 11-.075-.653l.186-.021c2.131-.241 4.251-.48 6.351-.85l.233-.041c.748-.133 1.499-.265 2.276-.326a.33.33 0 01.355.301z" fill="#000"/><path fill-rule="evenodd" clip-rule="evenodd" d="M37.395 19.11a.33.33 0 01.33.328v52.679a.33.33 0 01-.33.328.33.33 0 01-.33-.328v-52.68a.33.33 0 01.33-.328zm12.126 1.206a.33.33 0 01.33.328v51.473a.33.33 0 01-.33.328.33.33 0 01-.33-.328V20.644a.33.33 0 01.33-.328zm-6.467 2.413a.33.33 0 01.33.328v49.06a.33.33 0 01-.33.328.33.33 0 01-.33-.328v-49.06a.33.33 0 01.33-.328zM59.012 18.12a.33.33 0 01.422-.198c2.671.955 5.35 1.78 8.07 2.609a.328.328 0 11-.194.628c-2.719-.829-5.411-1.658-8.1-2.619a.328.328 0 01-.198-.42zM51.807 74.302a.331.331 0 01.467-.013c1.865 1.759 3.736 3.28 5.64 4.809.141.114.163.32.049.462a.331.331 0 01-.465.049c-1.903-1.53-3.792-3.065-5.678-4.843a.327.327 0 01-.013-.464zM51.199 18.913a.33.33 0 01.428-.185c.803.316 1.6.645 2.394.973 1.864.77 3.72 1.537 5.627 2.12a.328.328 0 11-.195.628c-1.938-.593-3.84-1.379-5.717-2.154-.788-.326-1.572-.65-2.351-.956a.328.328 0 01-.186-.426z" fill="#000"/><path fill-rule="evenodd" clip-rule="evenodd" d="M67.08 20.507a.329.329 0 01-.305.352c-3.147.234-6.504.26-9.235.28l-1.447.013a.33.33 0 01-.334-.325.33.33 0 01.327-.332c.46-.005.947-.009 1.455-.012 2.732-.021 6.063-.046 9.185-.28a.33.33 0 01.354.304zM66.927 77.709a.329.329 0 01-.29.364c-5.271.605-7.306.605-10.951.605a.33.33 0 01-.33-.328.33.33 0 01.33-.329h.004c3.628 0 5.636 0 10.871-.6a.33.33 0 01.366.288zM63.696 19.034a.33.33 0 01-.33.33l-11.055.03a.33.33 0 11-.001-.657l11.055-.03a.33.33 0 01.331.327z" fill="#000"/><path fill-rule="evenodd" clip-rule="evenodd" d="M52.855 17.5a.33.33 0 01.33.328v57.505a.33.33 0 01-.33.329.33.33 0 01-.33-.329V17.828a.33.33 0 01.33-.328zm12.531 0a.33.33 0 01.33.328v59.516a.33.33 0 01-.33.328.33.33 0 01-.33-.328V17.829a.33.33 0 01.33-.329zm-8.892 2.413a.33.33 0 01.33.328v58.711a.33.33 0 01-.33.329.33.33 0 01-.33-.329v-58.71a.33.33 0 01.33-.33zM45.084 75.232a.328.328 0 01-.208.416c-2.501.835-4.998 1.683-7.494 2.53-8.223 2.794-16.447 5.587-24.86 7.93a.328.328 0 11-.178-.633c8.394-2.337 16.594-5.122 24.813-7.914 2.5-.849 5-1.698 7.509-2.536a.33.33 0 01.418.207z" fill="#000"/><path fill-rule="evenodd" clip-rule="evenodd" d="M42.938 75.088a.331.331 0 01.466.033l1.567 1.798c4.54 5.21 8.953 10.275 13.878 15.175a.327.327 0 010 .465.331.331 0 01-.467 0c-4.943-4.918-9.371-10-13.91-15.21l-1.567-1.797a.327.327 0 01.033-.464zM43.768 84.924a.331.331 0 01.462.068c5.254 7.037 8.89 11.86 13.334 17.486a.327.327 0 01-.056.461.331.331 0 01-.464-.056c-4.449-5.633-8.089-10.462-13.344-17.5a.327.327 0 01.068-.459z" fill="#000"/><path fill-rule="evenodd" clip-rule="evenodd" d="M65.067 64.795a.33.33 0 01.405-.233c.619.164 1.228.323 1.826.478 5.234 1.363 9.694 2.524 13.652 5.613 2.515 1.962 3.414 4.08 3.12 6.187-.289 2.074-1.724 4.05-3.673 5.78-3.897 3.456-10.032 6.092-14.135 6.71-1.38.36-3.631.676-5.864.943-1.125.135-2.243.258-3.253.368-1.02.112-1.931.212-2.63.3a.329.329 0 11-.083-.652c.695-.087 1.619-.189 2.65-.302a324.14 324.14 0 003.237-.366c2.25-.27 4.464-.581 5.791-.931a.334.334 0 01.036-.008c3.98-.594 10.008-3.18 13.811-6.553 1.903-1.688 3.202-3.533 3.46-5.38.252-1.814-.49-3.719-2.874-5.58-3.845-3-8.166-4.125-13.422-5.495-.594-.155-1.2-.313-1.82-.477a.328.328 0 01-.234-.402z" fill="#000"/><path fill-rule="evenodd" clip-rule="evenodd" d="M84.018 75.42a.328.328 0 01.222.408c-.037.126-.073.41-.1.852a39.87 39.87 0 00-.055 1.598c-.015.787-.022 1.693-.03 2.645l-.015 1.711c-.017 1.551-.047 3.105-.126 4.347-.04.62-.091 1.17-.161 1.605a4.967 4.967 0 01-.123.578 1.471 1.471 0 01-.188.432c-3.052 4.339-7.765 7.388-13.117 9.402-5.353 2.015-11.367 3.002-17.053 3.204a.33.33 0 01-.342-.317.33.33 0 01.318-.34c5.632-.2 11.572-1.178 16.843-3.161 5.274-1.985 9.858-4.968 12.81-9.165.02-.03.056-.1.095-.236.037-.13.072-.297.105-.5.065-.406.115-.932.154-1.544.078-1.223.108-2.761.125-4.312l.015-1.703c.007-.955.014-1.868.03-2.659.012-.627.029-1.183.056-1.625.027-.43.064-.789.126-.999a.33.33 0 01.41-.221zM38.208 84.46a.328.328 0 01-.183.427c-9.606 3.851-17.384 6.692-25.923 9.81a2166.05 2166.05 0 00-11.07 4.067.328.328 0 11-.23-.615 2172.12 2172.12 0 0111.082-4.072c8.534-3.117 16.299-5.952 25.894-9.8a.33.33 0 01.43.183z" fill="#000"/><path fill-rule="evenodd" clip-rule="evenodd" d="M35.28 84.117a.331.331 0 01.462.073c.778 1.067 1.559 2.133 2.34 3.199 4.28 5.84 8.569 11.69 12.426 17.831a.328.328 0 01-.105.453.332.332 0 01-.454-.104c-3.845-6.12-8.117-11.95-12.397-17.79-.782-1.066-1.565-2.133-2.344-3.203a.327.327 0 01.073-.459z" fill="#000"/><path fill-rule="evenodd" clip-rule="evenodd" d="M.426 96.486a.331.331 0 01.45-.122c2.8 1.59 7.358 3.275 9.638 3.993 13.716 4.317 31.667 6.55 43.475 3.614a.328.328 0 11.16.637c-11.977 2.979-30.064.71-43.834-3.625-2.295-.722-6.906-2.423-9.766-4.049a.327.327 0 01-.123-.448z" fill="#000"/><path fill-rule="evenodd" clip-rule="evenodd" d="M3.122 95.415a.33.33 0 01.346.31c.405 7.749.405 10.168.405 16.203a.33.33 0 01-.66 0v-.002c0-6.027 0-8.434-.404-16.166a.33.33 0 01.313-.346zM50.132 101.75a.329.329 0 01.327.332c-.025 2.046-.14 4.371-.254 6.672l-.019.383c-.12 2.43-.233 4.814-.233 6.815a.33.33 0 01-.33.328.33.33 0 01-.33-.328c0-2.02.114-4.421.234-6.847l.018-.378c.114-2.306.229-4.619.253-6.652a.33.33 0 01.334-.325z" fill="#000"/><path fill-rule="evenodd" clip-rule="evenodd" d="M1.657 107.716a.331.331 0 01.46-.077c5.602 3.981 14.001 6.841 23.05 8.173 9.044 1.331 18.699 1.128 26.797-.985a.328.328 0 11.168.636c-8.203 2.14-17.95 2.34-27.062.999-9.108-1.341-17.62-4.226-23.336-8.288a.327.327 0 01-.077-.458zM44.272 84.867c.065.17-.02.36-.19.424-.96.367-1.734.67-2.407.934-1.53.6-2.545.998-4.078 1.486a.328.328 0 11-.2-.626c1.51-.48 2.5-.868 4.017-1.464.675-.264 1.455-.57 2.431-.943a.33.33 0 01.427.19zM3.528 88.095a.33.33 0 01.424.194c1.153 3.09 4.01 5.467 7.085 6.643.17.066.255.256.19.425a.33.33 0 01-.427.189c-3.202-1.226-6.231-3.717-7.467-7.029a.328.328 0 01.195-.422z" fill="#000"/><path fill-rule="evenodd" clip-rule="evenodd" d="M3.954 77.422a.33.33 0 01.323.335c-.081 3.874-.058 5.918-.031 8.281.015 1.308.03 2.713.03 4.58a.33.33 0 01-.33.329.33.33 0 01-.33-.329c0-1.853-.015-3.254-.03-4.56-.027-2.371-.05-4.431.03-8.315a.33.33 0 01.338-.321zM43.971 75.008a.33.33 0 01.323.335c-.08 3.802-.058 5.359-.032 7.31.015 1.14.032 2.413.032 4.345a.33.33 0 01-.33.328.33.33 0 01-.33-.328c0-1.915-.017-3.185-.032-4.324-.026-1.96-.048-3.534.032-7.345a.33.33 0 01.337-.321zM56.961 89.484a.33.33 0 01.324.336c-.08 3.801-.059 5.358-.033 7.31.016 1.14.033 2.413.033 4.345a.33.33 0 01-.33.328.33.33 0 01-.33-.328c0-1.915-.018-3.185-.033-4.324-.026-1.961-.047-3.534.032-7.345a.33.33 0 01.337-.322zM13.305 84.254a.33.33 0 01.323.335c-.075 3.581-.06 4.171-.037 5.164.017.678.037 1.544.038 3.676a.33.33 0 01-.33.329.33.33 0 01-.33-.329c0-2.098-.021-2.965-.038-3.648-.024-1.008-.038-1.617.037-5.206a.33.33 0 01.337-.321z" fill="#000"/><path fill-rule="evenodd" clip-rule="evenodd" d="M2.696 75.01a.33.33 0 01.366.288c.173 1.459.919 2.86 1.935 4.123 1.015 1.261 2.283 2.366 3.463 3.23 2.24 1.64 4.769 3.026 7.499 2.913a.33.33 0 11.027.656c-2.967.123-5.652-1.382-7.917-3.04-1.211-.886-2.526-2.029-3.587-3.349-1.06-1.317-1.883-2.831-2.075-4.456a.329.329 0 01.289-.365z" fill="#000"/><path fill-rule="evenodd" clip-rule="evenodd" d="M19.625 65.14a.328.328 0 01-.236.401c-4.156 1.073-8.207 2.566-11.261 5.505-1.532 1.474-3.005 3.404-3.596 5.42-.377 1.287-.127 2.51.424 3.763a.328.328 0 01-.17.433.33.33 0 01-.435-.17c-.585-1.328-.89-2.72-.453-4.21.637-2.17 2.2-4.195 3.77-5.708 3.181-3.061 7.37-4.588 11.555-5.669a.33.33 0 01.402.236z" fill="#000"/><path d="M31.433 63.27a74.909 74.909 0 015.659-.653l-5.659.653z" fill="#22222A"/><path fill-rule="evenodd" clip-rule="evenodd" d="M37.422 62.586a.329.329 0 01-.29.358l-5.66.653a.329.329 0 01-.09-.65 75.27 75.27 0 015.686-.657.33.33 0 01.354.296zM49.294 62.838a.33.33 0 01.359-.298c.462.042.81.066 1.133.09.598.042 1.112.078 2.112.203a.329.329 0 11-.082.652 33.036 33.036 0 00-2.058-.199c-.324-.023-.679-.048-1.164-.091a.329.329 0 01-.3-.357zM30.583 29.574a.328.328 0 01.238.4l-5.313 20.509a.33.33 0 01-.64-.164l5.313-20.509a.33.33 0 01.402-.236zm.8 5.63a.328.328 0 01.238.4l-5.833 22.52a.33.33 0 01-.64-.165l5.834-22.519a.33.33 0 01.402-.236zm.13 9.651a.328.328 0 01.238.4 4217.98 4217.98 0 01-3.218 12.33l-.064.245a4054.927 4054.927 0 00-3.017 11.553.33.33 0 01-.64-.164 4018.11 4018.11 0 013.017-11.554l.065-.246c1.026-3.913 2.075-7.915 3.218-12.328a.33.33 0 01.402-.236zm-9.696 37.802c.176.047.28.228.232.403l-2.431 8.847a.33.33 0 01-.637-.173l2.43-8.847a.33.33 0 01.406-.23zm-3.09 1.41a.328.328 0 01.237.4l-2.239 8.642a.33.33 0 01-.64-.164l2.24-8.643a.33.33 0 01.402-.236zm-2.259 0a.328.328 0 01.237.4l-2.238 8.642a.33.33 0 01-.64-.164l2.239-8.643a.33.33 0 01.402-.236zm-4.264 16.462a.328.328 0 01.237.4l-2.87 11.08a.33.33 0 01-.64-.164l2.87-11.08a.33.33 0 01.403-.236zm2.025.899a.328.328 0 01.238.4l-2.638 10.181a.33.33 0 01-.639-.164l2.637-10.181a.331.331 0 01.402-.236zm2.259 1.246a.328.328 0 01.237.4l-2.627 10.141a.33.33 0 01-.402.236.328.328 0 01-.237-.4l2.627-10.141a.33.33 0 01.402-.236z" fill="#000"/><path d="M7.179 99.463c-.484 1.867-.92 3.51-1.352 5.143l-1.292 4.911c.455-1.756.872-3.329 1.292-4.911l1.352-5.143z" fill="#22222A"/><path fill-rule="evenodd" clip-rule="evenodd" d="M27.512 30.78a.328.328 0 01.238.4l-2.581 9.966a.33.33 0 01-.64-.164l2.581-9.965a.33.33 0 01.402-.236zM9.131 83.059a.328.328 0 01.237.4l-2.273 8.775a.33.33 0 01-.64-.164l2.274-8.775a.33.33 0 01.402-.236zm4.527 1.206a.328.328 0 01.238.4l-2.582 9.965a.33.33 0 01-.639-.164l2.581-9.965a.33.33 0 01.402-.236zm-2.58 0a.328.328 0 01.236.4l-2.5 9.651a.33.33 0 01-.639-.164l2.5-9.65a.33.33 0 01.402-.237zM5.172 98.34a.328.328 0 01.237.4l-1.563 6.032a.331.331 0 01-.402.236.328.328 0 01-.237-.4l1.563-6.032a.33.33 0 01.402-.236zm2.09.804a.328.328 0 01.236.4c-.48 1.854-.913 3.487-1.342 5.107l-.01.036v.001l-1.29 4.909-.001.001a.33.33 0 01-.64-.165c.456-1.756.873-3.329 1.292-4.912v-.001l1.352-5.14v-.001a.33.33 0 01.403-.235zm2.229 1.206a.329.329 0 01.237.4l-2.634 10.169a.331.331 0 01-.402.236.329.329 0 01-.237-.4l2.634-10.169a.331.331 0 01.402-.236zM5.234 80.246a.328.328 0 01.237.4L4.325 85.07a.33.33 0 01-.64-.164l1.147-4.424a.33.33 0 01.402-.236zm2.164 1.609a.328.328 0 01.238.4L5.47 90.61a.33.33 0 01-.64-.164l2.165-8.356a.33.33 0 01.402-.236zM44.276 22.34a.328.328 0 01.237.4l-.937 3.619a.33.33 0 01-.64-.164l.938-3.62a.33.33 0 01.402-.236zm-12.86 30.963a.328.328 0 01.237.4l-5.521 21.313a.33.33 0 01-.64-.164l5.521-21.313a.33.33 0 01.402-.236zm0 8.72a.328.328 0 01.237.4L28.39 75.016a.33.33 0 01-.64-.164l3.262-12.593a.33.33 0 01.402-.236zm.36 8.572a.328.328 0 01.238.4l-.904 3.487a.33.33 0 01-.64-.164l.904-3.487a.33.33 0 01.402-.236zm-2.604 10.053a.328.328 0 01.237.4l-2.083 8.043a.33.33 0 01-.64-.164l2.084-8.043a.33.33 0 01.402-.236zm-2.736.597a.328.328 0 01.238.4L24.328 90.7a.33.33 0 01-.64-.165l2.346-9.054a.33.33 0 01.402-.236zm-2.52 1.012a.328.328 0 01.237.4L22.07 90.7a.33.33 0 01-.64-.165l2.083-8.042a.33.33 0 01.402-.236zm-2.95 20.106a.329.329 0 01.237.4c-.541 2.09-.974 3.819-1.403 5.535l-.028.114a587.864 587.864 0 01-1.425 5.611.33.33 0 01-.64-.164c.549-2.107.986-3.852 1.424-5.606l.029-.114c.429-1.716.862-3.447 1.404-5.54a.331.331 0 01.402-.236zm2.373.805a.328.328 0 01.237.4c-.552 2.13-1.137 4.342-1.713 6.518-.466 1.759-.925 3.494-1.355 5.144a.33.33 0 01-.403.235.327.327 0 01-.237-.4c.433-1.657.892-3.392 1.357-5.15.575-2.173 1.16-4.379 1.712-6.511a.33.33 0 01.402-.236zm-4.632-.805a.329.329 0 01.238.4l-2.917 11.26a.33.33 0 01-.64-.164l2.917-11.26a.331.331 0 01.402-.236zM48.578 21.531a.328.328 0 01.238.4L43.71 41.636a.33.33 0 01-.639-.164l5.104-19.705a.33.33 0 01.402-.236zm-2.258 0a.328.328 0 01.237.4l-3.084 11.905a.33.33 0 01-.64-.164l3.085-11.905a.33.33 0 01.402-.236zm3.277 6.032a.328.328 0 01.237.4l-6.36 24.557a.33.33 0 01-.64-.163l6.361-24.558a.33.33 0 01.402-.236zM36.577 77.83a.328.328 0 01.237.4l-1.98 7.64a.33.33 0 01-.639-.164l1.98-7.64a.33.33 0 01.401-.236zm-2.895 1.206a.328.328 0 01.238.4l-1.98 7.64a.33.33 0 01-.639-.163l1.98-7.64a.33.33 0 01.401-.237zm-2.466.804a.328.328 0 01.237.4l-2.083 8.043a.33.33 0 01-.64-.164l2.084-8.043a.33.33 0 01.402-.236zm-3.992 24.128a.328.328 0 01.238.4l-3.125 12.064a.33.33 0 01-.64-.164l3.125-12.064a.331.331 0 01.402-.236zm2.373.804a.329.329 0 01.237.4l-1.622 6.259-1.296 5.001a.33.33 0 01-.64-.164l1.297-5.002 1.622-6.258a.331.331 0 01.402-.236zm-4.631-.804a.328.328 0 01.237.4l-2.917 11.26a.331.331 0 01-.402.236.328.328 0 01-.237-.4l2.917-11.26a.331.331 0 01.402-.236zM54.326 19.523a.328.328 0 01.237.4l-1.25 4.826a.33.33 0 01-.64-.164l1.25-4.826a.33.33 0 01.403-.236zm2.05.805a.328.328 0 01.237.4l-3.3 12.74a.33.33 0 01-.64-.164l3.3-12.74a.33.33 0 01.403-.236zm0 9.965a.328.328 0 01.237.4l-3.3 12.74a.33.33 0 01-.64-.164l3.3-12.74a.33.33 0 01.403-.236zm-7.05 8.533a.328.328 0 01.237.4L43.417 62.95a.33.33 0 01-.64-.163l6.146-23.726a.33.33 0 01.403-.236zm.383 7.238a.328.328 0 01.237.4l-6.529 25.207a.33.33 0 01-.64-.164l6.53-25.207a.33.33 0 01.402-.236zm0 9.965a.328.328 0 01.237.4l-3.948 15.242a.33.33 0 01-.639-.164l3.948-15.242a.33.33 0 01.402-.236zm-5.231 20.195a.328.328 0 01.237.4l-2.291 8.847a.33.33 0 01-.64-.164l2.292-8.847a.33.33 0 01.402-.236zm-2.581 0a.328.328 0 01.237.4l-2.708 10.455a.33.33 0 01-.64-.164l2.709-10.455a.33.33 0 01.402-.236zm-2.467.804a.328.328 0 01.237.4l-2.292 8.847a.33.33 0 01-.639-.164l2.292-8.847a.33.33 0 01.402-.236zm-2.348 27.747a.328.328 0 01.237.4l-3.229 12.466a.33.33 0 01-.402.236.328.328 0 01-.237-.4l3.23-12.466a.331.331 0 01.401-.236zm-2.581 0a.328.328 0 01.237.4l-3.02 11.662a.33.33 0 01-.64-.164l3.02-11.662a.331.331 0 01.403-.236zm-2.259 0a.328.328 0 01.238.4l-3.021 11.662a.33.33 0 01-.64-.164l3.021-11.662a.331.331 0 01.402-.236zM56.392 38.824a.328.328 0 01.237.4L52.984 53.3a.33.33 0 01-.64-.164L55.99 39.06a.33.33 0 01.402-.236zm.28 7.64a.328.328 0 01.237.4l-3.75 14.477a.33.33 0 01-.64-.163L56.27 46.7a.33.33 0 01.402-.236zm0 9.966a.328.328 0 01.237.4l-3.75 14.476a.33.33 0 01-.64-.164l3.75-14.476a.33.33 0 01.402-.236zm-7.05 8.533a.328.328 0 01.236.4l-1.562 6.032a.33.33 0 01-.64-.164l1.563-6.032a.33.33 0 01.402-.236zM46.08 78.635a.328.328 0 01.237.4l-1.771 6.836a.33.33 0 01-.64-.163l1.771-6.837a.33.33 0 01.403-.236zm1.979 1.079a.328.328 0 01.237.4l-1.98 7.64a.33.33 0 01-.639-.163l1.98-7.64a.33.33 0 01.402-.237zm1.923 2.54a.328.328 0 01.237.4l-1.923 7.425a.33.33 0 01-.64-.164l1.924-7.425a.33.33 0 01.402-.236zm-5.938 22.922a.328.328 0 01.238.4l-2.917 11.259a.33.33 0 01-.402.237.329.329 0 01-.237-.4l2.916-11.26a.33.33 0 01.402-.236zm-2.58 0a.328.328 0 01.236.4l-3.125 12.064a.331.331 0 01-.402.236.328.328 0 01-.237-.4l3.125-12.064a.33.33 0 01.402-.236zm-2.26 0a.328.328 0 01.238.4l-2.917 11.259a.33.33 0 01-.402.237.329.329 0 01-.237-.4l2.916-11.26a.33.33 0 01.403-.236zM56.576 67.012a.328.328 0 01.237.4l-2.386 9.21a.33.33 0 01-.64-.163l2.386-9.211a.33.33 0 01.403-.236zm.185 8.004a.328.328 0 01.237.4l-.73 2.815a.33.33 0 01-.639-.163l.73-2.815a.33.33 0 01.402-.237zM51.898 85.07a.328.328 0 01.237.4l-1.979 7.64a.33.33 0 01-.64-.164l1.98-7.64a.33.33 0 01.402-.236zm1.738 2.01a.328.328 0 01.237.4l-1.98 7.641a.33.33 0 01-.639-.164l1.98-7.64a.33.33 0 01.402-.237zm2.268 1.207a.328.328 0 01.238.4l-2.396 9.249a.33.33 0 01-.64-.164l2.396-9.25a.33.33 0 01.402-.235zm-6.956 16.889a.329.329 0 01.237.4l-2.916 11.26a.33.33 0 01-.64-.164l2.917-11.26a.331.331 0 01.402-.236zm-2.258 0a.329.329 0 01.237.4l-2.917 11.26a.33.33 0 01-.64-.164l2.918-11.26a.331.331 0 01.402-.236zm3.485 5.228a.328.328 0 01.238.4l-1.354 5.228a.331.331 0 01-.403.236.328.328 0 01-.237-.4l1.354-5.228a.33.33 0 01.402-.236zM63.05 89.496a.328.328 0 01.237.4l-3.02 11.661a.33.33 0 01-.403.236.328.328 0 01-.237-.4l3.02-11.661a.33.33 0 01.403-.236zm-2.582 0a.328.328 0 01.238.4l-3.021 11.661a.33.33 0 01-.402.236.328.328 0 01-.238-.4l3.021-11.661a.33.33 0 01.402-.236zm-2.258 0a.328.328 0 01.237.4l-1.25 4.825a.33.33 0 01-.64-.164l1.25-4.825a.33.33 0 01.403-.236zM71.128 87.207a.328.328 0 01.237.4l-3.092 11.936a.33.33 0 01-.64-.164l3.093-11.936a.33.33 0 01.402-.236zm-2.996 1.601a.328.328 0 01.237.4l-2.99 11.541a.33.33 0 01-.639-.164l2.99-11.54a.33.33 0 01.402-.237zm-2.259 0a.328.328 0 01.237.4l-2.99 11.541a.33.33 0 01-.639-.164l2.99-11.54a.33.33 0 01.402-.237zM80.18 82.66a.328.328 0 01.238.4l-3.23 12.466a.33.33 0 01-.639-.164l3.23-12.466a.33.33 0 01.401-.236zm-3.102 2.01a.328.328 0 01.238.4L74.19 97.134a.33.33 0 01-.64-.164l3.125-12.064a.33.33 0 01.402-.236zm-2.57 1.207a.328.328 0 01.237.4L71.62 98.34a.33.33 0 01-.64-.164l3.125-12.064a.33.33 0 01.402-.236zM84.062 77.082a.328.328 0 01.237.4l-4.152 16.03a.33.33 0 01-.64-.164l4.153-16.03a.33.33 0 01.402-.236zm0 8.72a.328.328 0 01.237.4l-1.06 4.093a.33.33 0 01-.64-.164l1.06-4.094a.33.33 0 01.403-.236z" fill="#000"/><path d="M76.724 34.29c-3.282-.001-5.334 7.346-6.565 11.02-1.23 3.673-2.437 6.227 3.283 6.122 4.236-.105 14.863 1.476 11.898-3.265-2.224-3.583-5.744-13.878-8.616-13.878z" fill="#F5C0BC"/><path fill-rule="evenodd" clip-rule="evenodd" d="M74.239 35.275c.703-.78 1.529-1.314 2.483-1.314.46 0 .899.205 1.305.518.409.313.81.755 1.204 1.278.787 1.046 1.577 2.467 2.337 3.981.591 1.177 1.17 2.423 1.72 3.606l.469 1.005c.689 1.472 1.318 2.77 1.862 3.646l-.281.172.28-.173c.388.62.582 1.18.564 1.682-.02.52-.263.931-.649 1.242-.375.302-.884.51-1.458.656-.578.148-1.246.238-1.96.292-1.43.107-3.08.066-4.625.007l-.959-.04c-1.183-.048-2.257-.093-3.083-.072h-.002c-1.445.026-2.498-.113-3.233-.422-.758-.317-1.185-.82-1.342-1.475-.15-.624-.043-1.35.156-2.115.156-.599.38-1.257.615-1.947.067-.196.135-.395.202-.596l.312.103-.312-.103c.114-.34.236-.713.365-1.11.564-1.733 1.278-3.927 2.162-5.813.544-1.16 1.163-2.226 1.868-3.008zm-3.396 9.006c-.131.403-.255.783-.372 1.133-.07.21-.14.414-.208.614-.234.686-.447 1.313-.597 1.886-.194.744-.263 1.338-.153 1.798.103.43.37.776.956 1.022.608.255 1.55.396 2.964.37.85-.021 1.954.025 3.14.074l.943.038c1.545.06 3.162.098 4.549-.005.693-.052 1.32-.139 1.847-.273.53-.135.935-.313 1.206-.53.26-.21.393-.453.404-.756.011-.319-.111-.747-.465-1.311v-.001c-.568-.915-1.213-2.248-1.9-3.714l-.47-1.012c-.55-1.182-1.124-2.415-1.71-3.582-.756-1.508-1.524-2.885-2.274-3.881-.375-.498-.737-.889-1.08-1.152-.344-.265-.643-.381-.901-.381-.687 0-1.349.383-1.992 1.096-.641.711-1.228 1.71-1.76 2.847-.866 1.845-1.563 3.987-2.127 5.72z" fill="#000"/><path d="M75.584 36.922c.635 2.318.318 4.741 1.27 7.06.319.737.213-.211.213-.422 0-1.37 0-2.74-.212-4.11-.106-.526-.424-1.58-.212-2.107.106-.21 1.165 1.58 1.165 1.686.636 1.475.847 3.372.318 4.847" fill="#F5C0BC"/><path fill-rule="evenodd" clip-rule="evenodd" d="M75.497 36.605a.33.33 0 01.406.23c.28 1.025.38 2.07.478 3.087.016.166.031.332.048.497.07.699.153 1.384.304 2.057-.011-.998-.052-1.984-.203-2.968-.016-.076-.039-.176-.065-.29a13.287 13.287 0 01-.16-.767 4.097 4.097 0 01-.063-.627 1.594 1.594 0 01.106-.627.36.36 0 01.364-.197.439.439 0 01.21.088c.073.055.145.136.204.208.127.155.277.376.418.596.142.222.281.455.385.64.052.092.097.175.13.24a1.578 1.578 0 01.062.146l.003.01c.65 1.526.874 3.496.313 5.059a.33.33 0 01-.622-.221c.495-1.378.302-3.186-.31-4.607a.33.33 0 01-.017-.05 4.961 4.961 0 00-.135-.256 13.03 13.03 0 00-.426-.7c.008.062.018.125.029.19.041.247.094.474.142.682.03.127.058.248.08.362l.004.014c.215 1.395.215 2.785.215 4.147v.012c0 .027.002.068.005.124l.006.12c.005.106.01.24.001.348a.684.684 0 01-.04.198.385.385 0 01-.124.164.355.355 0 01-.327.054.403.403 0 01-.168-.11.663.663 0 01-.075-.101 1.907 1.907 0 01-.123-.246l-.003-.005c-.496-1.206-.658-2.432-.777-3.621l-.05-.51c-.097-1.018-.192-2-.456-2.966a.328.328 0 01.231-.404z" fill="#000"/><path d="M77.596 46.93c-.212 1.686 1.8 1.686 1.8.316 0-1.053-1.483-.632-1.588-.105-.106.948 1.694-.948.953-.738-.424.106-.953.843-.953.738" fill="#F5C0BC"/><path fill-rule="evenodd" clip-rule="evenodd" d="M78.078 47.72a.53.53 0 00.366.187c.29.024.622-.174.622-.66 0-.13-.03-.198-.06-.236a3.033 3.033 0 01-.558.526 1.197 1.197 0 01-.37.183zm1.187-1.332c.03.017.061.036.09.056.244.175.371.456.371.802 0 .884-.674 1.37-1.337 1.316a1.193 1.193 0 01-.868-.484c-.219-.298-.314-.703-.253-1.188a.33.33 0 01.483-.25 1.28 1.28 0 01.173-.13c.063-.04.13-.076.201-.107.035-.03.072-.059.109-.087.12-.09.273-.187.441-.23a.648.648 0 01.221-.026.403.403 0 01.299.16.384.384 0 01.07.168z" fill="#000"/><path d="M28.263.77c-3.282 0-5.334 7.347-6.565 11.02-1.23 3.674-2.436 6.228 3.283 6.123 4.236-.106 14.863 1.476 11.898-3.266C34.655 11.065 31.135.77 28.263.77z" fill="#F5C0BC"/><path fill-rule="evenodd" clip-rule="evenodd" d="M25.78 1.756C26.483.976 27.309.44 28.263.44c.46 0 .899.206 1.305.518.409.314.81.756 1.204 1.279.788 1.045 1.577 2.466 2.337 3.98a134.6 134.6 0 011.72 3.607l.468 1.004c.69 1.472 1.319 2.77 1.863 3.646l-.281.173.28-.174c.388.62.582 1.18.564 1.683-.02.519-.263.93-.649 1.241-.375.303-.884.51-1.458.657-.578.147-1.246.238-1.96.291-1.43.107-3.08.067-4.625.007-.325-.012-.646-.026-.959-.039-1.183-.049-2.256-.093-3.083-.073h-.002c-1.445.027-2.498-.112-3.233-.421-.758-.318-1.185-.82-1.342-1.475-.15-.625-.043-1.35.156-2.116.156-.598.38-1.256.615-1.946l.202-.596.312.103-.312-.103c.114-.34.235-.714.365-1.111.564-1.733 1.278-3.927 2.162-5.812.544-1.16 1.163-2.227 1.868-3.008zm-3.396 9.005a143.541 143.541 0 01-.58 1.748c-.234.685-.447 1.312-.597 1.885-.194.744-.263 1.338-.152 1.799.102.429.369.775.955 1.022.608.255 1.55.395 2.963.37.851-.022 1.955.024 3.14.074l.944.038c1.546.06 3.162.098 4.549-.006.693-.052 1.32-.138 1.846-.273.531-.135.936-.312 1.207-.53.26-.21.393-.453.404-.755.011-.32-.111-.747-.465-1.312-.568-.916-1.213-2.249-1.9-3.714l-.47-1.012a133.836 133.836 0 00-1.71-3.583c-.756-1.507-1.524-2.884-2.274-3.88-.375-.499-.737-.89-1.08-1.153-.344-.264-.643-.38-.901-.38-.687 0-1.349.383-1.992 1.096-.641.71-1.227 1.71-1.76 2.846-.866 1.845-1.563 3.988-2.127 5.72z" fill="#000"/><path d="M27.123 3.398c.636 2.318.318 4.742 1.271 7.06.318.737.212-.21.212-.422 0-1.37 0-2.74-.212-4.109-.106-.527-.424-1.58-.212-2.107.106-.21 1.165 1.58 1.165 1.686.636 1.475.848 3.371.318 4.846" fill="#F5C0BC"/><path fill-rule="evenodd" clip-rule="evenodd" d="M27.038 3.082a.33.33 0 01.406.23c.28 1.025.38 2.07.478 3.086.016.167.031.333.048.498.07.698.153 1.383.304 2.057-.011-.998-.052-1.984-.203-2.968-.016-.076-.039-.176-.065-.29a13.277 13.277 0 01-.16-.767 4.084 4.084 0 01-.063-.627 1.592 1.592 0 01.106-.628.36.36 0 01.364-.196.44.44 0 01.21.088c.073.055.145.135.204.208.127.155.277.375.418.595.142.223.281.455.385.64a5.7 5.7 0 01.13.241 1.517 1.517 0 01.062.146l.003.01c.65 1.526.874 3.495.313 5.058a.33.33 0 01-.622-.22c.495-1.378.302-3.187-.31-4.607a.328.328 0 01-.017-.051 4.848 4.848 0 00-.135-.256 13.12 13.12 0 00-.426-.7c.008.062.018.126.029.191.041.247.094.473.142.682.03.127.058.247.08.361l.004.015c.215 1.394.215 2.785.215 4.147v.012a16.303 16.303 0 01.011.243c.005.106.01.24.001.348a.684.684 0 01-.04.198.385.385 0 01-.124.165.355.355 0 01-.327.054.403.403 0 01-.168-.11.657.657 0 01-.075-.102 1.92 1.92 0 01-.123-.245l-.003-.005c-.495-1.207-.657-2.433-.777-3.622l-.05-.509c-.097-1.018-.192-2.001-.456-2.967a.328.328 0 01.231-.403z" fill="#000"/><path d="M29.137 13.407c-.212 1.685 1.8 1.685 1.8.316 0-1.054-1.483-.633-1.588-.106-.106.949 1.694-.948.953-.737-.424.105-.953.843-.953.737" fill="#F5C0BC"/><path fill-rule="evenodd" clip-rule="evenodd" d="M29.619 14.2a.531.531 0 00.366.187c.29.024.622-.174.622-.66 0-.13-.03-.197-.06-.235a3.019 3.019 0 01-.558.526 1.196 1.196 0 01-.37.182zm1.187-1.332c.03.017.061.036.09.057.244.174.371.455.371.802 0 .883-.674 1.37-1.337 1.315a1.193 1.193 0 01-.868-.484c-.219-.297-.314-.703-.253-1.188a.33.33 0 01.482-.25 1.548 1.548 0 01.375-.237 2.47 2.47 0 01.109-.086c.12-.091.273-.187.441-.23a.65.65 0 01.221-.027.403.403 0 01.299.16.384.384 0 01.07.168z" fill="#000"/></svg>