<svg width="16" height="16" fill="none" xmlns="http://www.w3.org/2000/svg"><path d="M.802.35h0a.49.49 0 01.042 0h6.133a.491.491 0 01.491.491v6.136a.49.49 0 01-.49.491h0H.84h0a.49.49 0 01-.347-.143M.802.35L.599 7.22l-.105.106s0 0 0 0M.802.35L.795.351h.007zM.494 7.325a.49.49 0 01-.144-.348m.144.348L.35 6.977m0 0h0V.842v0H.5L.35 6.976zM8.984.351h0l-.302.49h-.15v0s0 0 0 0v6.136a.491.491 0 00.49.491h6.137a.49.49 0 00.491-.49V.84v0a.49.49 0 00-.144-.347h0A.491.491 0 0015.16.35h0-6.133a.49.49 0 00-.042 0zM.802 8.532h0l-.302.49H.35V15.16h0a.491.491 0 00.49.491h6.137a.491.491 0 00.491-.49V9.022v0a.49.49 0 00-.49-.491h0H.843a.49.49 0 00-.042 0zm.53-7.2h5.154v5.155H1.332V1.332zm8.182 0h5.154v5.155H9.514V1.332zm2.577 7.195a3.569 3.569 0 00-3.56 3.564 3.564 3.564 0 003.56 3.559 3.564 3.564 0 003.559-3.559 3.569 3.569 0 00-3.56-3.564zm-10.76.987h5.155v5.154H1.332V9.514zm10.76 0a2.572 2.572 0 012.577 2.577 2.568 2.568 0 01-2.577 2.572 2.568 2.568 0 01-2.577-2.572 2.572 2.572 0 012.577-2.577z" fill="currentColor" stroke="currentColor" stroke-width=".3"/></svg>