<?xml version="1.0" encoding="utf-8"?>
<!-- Generator: Adobe Illustrator 20.1.0, SVG Export Plug-In . SVG Version: 6.00 Build 0)  -->
<svg version="1.1" id="Layer_1" xmlns="http://www.w3.org/2000/svg" xmlns:xlink="http://www.w3.org/1999/xlink" x="0px" y="0px"
	 viewBox="0 0 14 14" style="enable-background:new 0 0 14 14;" xml:space="preserve">
<style type="text/css">
	.st0{fill:#AA3D53;}
	.st1{fill:#FFFFFF;}
</style>
<title>HDL/Icon/Standard/Deployment/rejected</title>
<desc>Created with Sketch.</desc>
<g id="Colors">
	<g id="Deployment-Icons" transform="translate(-121.000000, -594.000000)">
		<g id="Rejected" transform="translate(100.000000, 576.000000)">
			<g id="HDL_x2F_Icon_x2F_Standard_x2F_Deployment_x2F_rejected" transform="translate(21.000000, 18.000000)">
				<g id="rejected">
					<path id="Rectangle" class="st0" d="M4,0h6c2.2,0,4,1.8,4,4v6c0,2.2-1.8,4-4,4H4c-2.2,0-4-1.8-4-4V4C0,1.8,1.8,0,4,0z"/>
					<path id="Fill-5" class="st1" d="M6.8,10.7c-0.2,0-0.4-0.1-0.5-0.3L4.5,7.9C4.3,7.7,4.2,7.4,4.2,7.1V5.6c0-0.8,0.6-1.4,1.4-1.4
						h3c0.5,0,0.8,0.4,0.8,0.7c0,0.1,0,0.2-0.1,0.3c0.2,0.1,0.4,0.3,0.4,0.6c0,0.2-0.1,0.4-0.2,0.5c0.1,0.1,0.2,0.3,0.2,0.5
						c0,0.3-0.2,0.5-0.3,0.6v0.3c0,0.3-0.3,0.6-0.7,0.6h-2c0.2,0.4,0.5,1.1,0.5,1.3v0.1c0,0.1,0.1,0.2,0.1,0.3
						C7.4,10.5,7,10.7,6.8,10.7"/>
				</g>
			</g>
		</g>
	</g>
</g>
</svg>
