<svg viewBox="0 0 320 220" xmlns="http://www.w3.org/2000/svg"><style>.st0{fill:#fff}.st1{fill:none;stroke:#000;stroke-linecap:round;stroke-linejoin:round}.st2{fill:#ef9790}.st3{fill:#bdeab7}.st4{fill:#fff;stroke:#000}</style><path class="st0" d="M133.5 179c-28.7-6.7-85.6-23.6-91.5-45.5-7.5-28 75.3-25.2 108-26.5 98.5-4 123.5 12.5 118 26.5-1.5 3.7-41.2 37.7-62 54l-62.5-8.5v-5l-10 5z"/><path class="st1" d="M85 132c12.5 4 24.5 7.5 37 11m-7-15.5c12.5 4 24.5 7.5 37 11m-36.5 4c13.5-2 18.5-2.5 36.5-5.5m-66.5-4.5c13.5-2 18.5-2.5 36.5-5.5m-35 5v10.5m32.5-2.5v10.5m29-14.5v10.5m-29 5.5c5.5-.5 18.5-2.5 31-5.5m17 15.5c-2-5.5-5-15-9-25-.3-.5 28.8-5.4 29.5-5.5"/><path class="st1" d="M187.5 131c4 10.5 7.5 18 10.5 24.5 0 0-19.5 4-30.5 7m-10-28.3c1.5 4.8.9 9.9.8 14.9m-.4-.9c3 8.5 6.5 16.7 9.4 25.2m.1-12.2c0 3.2-.2 6.4-.4 9.6m-2 .7c4.9-.9 17-3.5 22.2-4.9m6.3-22.6v6.5m-54.3-2c4 .8 7.9 1.9 11.7 3.4 2.7 1 5.4 2.1 8.2 3m-26.6 16.3c3.3-1.9 6.6-3.7 10-5.5m-9 3.3v12.5m-3.5-1c3.7-1.8 9.2-4.7 13.5-6.9m-16 3.4c2.8.9 6.2 2.1 9 3m-9.4-11.1c4.4 1.1 8.2 2.6 10.4 3.1m4.7-10c.4 4.7.7 9.3 1.1 14m-2.4-14.5c3.6.9 14 2.8 23.6 4.5m-24 10c6.5 1.6 35 6.6 41.6 7.5M141 161.8c6.5-3.2 10.5-4.8 17.5-8.2"/><path class="st1" d="M170.8 152.1c2.5-2.8 5.4-5.4 8.3-7.8 1.9-1.6 4-3 5.8-4.7m-14.4 2.4c5.6 2 11.3 4 17.1 5.5"/><path class="st0" d="M196 87v-9l40-10 9.5 13c-.5 2.5-2 6-4.5 7-4.2 1.7-26.5 7.3-37 11.5L196 87z"/><path class="st1" d="M195.5 77c3.5 6.5 7 12 9.5 15.5m-12.5-13c15-6 32.5-9.5 48.5-12M202.5 93c17-7 27.4-8.8 47-12.5m-14-13.5c3.5 4 8 11 10.5 14m-50-3.1v9.6m8.1 3.7c0 2.3-.1 4.7-.1 7m-9.8-13.8c3.3 5 6.7 9.7 10 14.6m-.8.4C214.5 95.5 227.5 90 242 88m5-8c-2 3-4.5 6.5-6.5 9.5"/><path class="st1" d="M175 93c3-4.9 12.4-8 15-1 1 2.7-4 2-5 1s11.3-4.7 11.9-4.9m.1-.9c.1 2.7 1.9 1.9 1.2 0-.2-.6-1.5 1.3.2 1.6.8.1 1-.8 1-1.5 0-.8-.6-1.1-1.3-1.3-1-.3-1.4.5-1.3 1.4.1.9 1 1.1 1.7 1.4M141 113c-1 3-1.2 5.7-.7 8.8.4 2.5 1.3 5.5.3 7.9-1.4 3.7-5 3.9-8.1 2.5"/><path class="st1" d="M140.3 113.2c-.7.5-1.4 1.1-1.3 2 0 1 1.3 1.8 2.2 1.3.8-.5.7-2.1.6-2.9-.2-1.2-.9-1.5-1.9-1.4"/><path class="st0" d="M127 213v-68c-31.5 0-76.5-9-87-20v68c0 15.5 64.3 18.2 87 20zm55.5-.5V144c31.5 0 74.5-8 85-19v68c0 15.5-62.3 17.7-85 19.5z"/><path class="st1" d="M128.5 144.5c-49.9-2.1-87-9.8-87-19 0-10.8 50.8-19.5 113.5-19.5s113.5 8.7 113.5 19.5c0 9.1-36.6 16.8-86 18.9m86 49.1c0 9.2-37.1 16.9-87 19m-140-19c0 9.2 37.1 16.9 87 19m-1-71V213m-86-88v71.5m227-72.5v71.5m-86-51v69"/><path class="st0" d="M139.5 113l-4-6 11-26 25.5 9 3 6.5-9 23-26.5-6.5z"/><path class="st1" d="M139.8 112c3.6-9.6 8.1-18.8 11-28.8M149 85c10.5 5 17 6.9 27.5 10.8M139 112c11 2.8 19.5 5 30 7m-3 1c2-6.5 7-18 10.5-27m-35 22c-2.2-3.7-4.9-7.1-7.5-10.5m1 3.5c4.3-9.4 8.1-19.6 12.5-29m-1.7-.3c2.2 2.2 4.2 6.2 5.8 8.8m-6.1-7.5c10.5 3.5 21 7.5 28.5 10m-2.5-2l5 9m-25 7c2.2 1.5 4.2 3.4 6.3 5 .8.7 1.7 1.4 2.5 2 .2.1.5.4.5.1 0-.8-.2-1.7-.3-2.5-.3-2.4-.3-4.8 0-7.2.2-2.4.8-4.7 1.4-7M45.1 130l2.7-10.5m4.4-2c-1.3 5.1-2.6 10.1-3.9 15M57 116c-1.6 6.1-3.1 12.1-4.6 18m9.4-19l-5 19.5m9.1-20.5c-1.9 7.5-3.8 14.8-5.7 22m10.4-23c-2.1 8.2-4.2 16.2-6.2 24m4.3 1l6.7-26m-3.1 27c2.3-9.1 4.7-18.4 7.2-28m-2.8 28c2.3-9.1 4.7-18.4 7.2-28m4.6-.9L80.8 140m12.7-31c-2.9 11.1-5.6 21.7-8.2 32m12.6-32c-2 7.7-3.9 15.2-5.8 22.5m-2.6 10.2c.7-2.5 1.3-5.1 2-7.7m2.1 8l1.7-6.5m1.1-4.5l5.8-22.5m-1.6 21.5c1.9-7.2 3.8-14.6 5.7-22.2m-7.4 28.7c-.5 1.8-.9 3.7-1.4 5.5m13.2-34.2c-2 7.6-3.9 15-5.7 22.2l5.7-22.2zm-7.7 29.9c-.4 1.6-.8 3.3-1.3 4.9l1.3-4.9zm2.9 5.3l1-4m2.6-10l5.5-21.5m-.8 20.5c1.7-6.7 3.5-13.5 5.3-20.5m-8.4 32.5c-.3 1-.5 2-.8 3m4.9-2c-.2.7-.3 1.3-.5 2l.5-2zm3.4-13c1.8-6.8 3.6-13.8 5.4-21l-5.4 21zm10.1-21.5l-5.9 23m-3.3 12.5l-.5 2m4.5-2.4c-.2.6-.3 1.2-.5 1.8m3.2-12.4c2-7.9 4.2-16.1 6.3-24.5m4 2c-2.1 8.2-4.2 16.2-6.2 24m-2.1 8c-.3 1.2-.6 2.3-.9 3.5"/><path class="st1" d="M129.3 151l2.8-11m1.4 9.8c.8-3.2 1.7-6.5 2.5-9.8m-7.4 29c-.3 1.3-.7 2.7-1 4m3.2 4.5c.6-2.3 1.2-4.6 1.8-7m5.5-21.5l2.7-10.5M154.1 87c.3-1.2.6-2.3.9-3.5m-4.9 2c.3-1.2.6-2.3.9-3.5m-17 51l5.5-21.5m3.5 1.5c-1.8 7.2-3.6 14.2-5.4 21m4 1.5c1.8-7 3.6-14.2 5.5-21.5l-5.5 21.5zm17.7-51l-1.2 4.5m4.7-3l-1.2 4.5m5.2-3c-.3 1.3-.7 2.7-1 4m-6.5 25.2c-3.1 12.1-6.1 23.7-9 34.8m-3 11.5c-1.2 4.6-2.3 9.1-3.5 13.5m-4-1.5c.8-3 1.5-6 2.3-9m4.2-16c2.8-10.7 5.6-21.8 8.6-33.3m-12.3 32.6l8.7-33.8m-13.7 53l-2.7 10.4m35-85.9l1-4m-7.3 28.5l-9 35m-3 11.5l-3.5 13.5m3.6 1c1.1-4.5 2.3-9 3.5-13.5m.8 14c1.1-4.4 2.3-9 3.5-13.6m2-7.9c.7-2.6 1.3-5.2 2-7.8m-4.7 1.3c.7-2.6 1.4-5.3 2.1-8m13.8-36.5c-2.5 9.8-5 19.3-7.3 28.5m6-40.5c.2-.8.4-1.7.6-2.5m-6.8 26.5l-4.5 17.5c1.4-5.7 2.9-11.6 4.5-17.5zM166 158l-1.8 7-3.9 15m3.6 1c1.6-6.1 3.2-12.2 4.8-18.5m-.4 18.5c1.7-6.5 3.4-13.1 5.2-20m7.4-29c2.1-8.1 4.2-16.4 6.4-25m-11.2 26.5c2.2-8.6 4.5-17.4 6.8-26.5m-3.8 0l-7.1 27.5M198.8 83l-1.7 6.5m4.4-2c-.5 1.8-.9 3.7-1.4 5.5m.7 14.5c-3 11.6-5.9 22.8-8.6 33.5m-3.1-5.5c2.3-9.1 4.7-18.4 7.2-28m-10 24l6.2-24m-13.4 52l-5.8 22.4m9-19.9c-1.8 7-3.6 13.8-5.3 20.5m5.3-3.3c-.4 1.5-.7 2.9-1.1 4.3l1.1-4.3zm27-88.7l-1.8 7m-2.7 10.5l-9.1 35.5m22.7-56c-.6 2.3-1.2 4.7-1.8 7l1.8-7zm-5.6 21.5c-3 11.6-5.9 22.8-8.6 33.5l8.6-33.5zm-13.3 34.5c2.9-11.1 5.8-22.6 8.9-34.5l-8.9 34.5zm12.1-47c.6-2.5 1.3-5 1.9-7.5l-1.9 7.5zm9.7-4l1.5-6m2.5 5.3c.5-2.1 1.1-4.2 1.6-6.3m3.2 5l1.5-6m-14.7 25l-8.5 33m12.4-33c-2.9 11.4-5.8 22.4-8.5 33m12.6-32c-2.8 10.8-5.5 21.2-8 31.2m12.4-30.7l-7.7 30m11.4-29.2c-2.6 10.1-5.1 19.8-7.5 29.2m11.9-29.2c-2.5 9.7-4.9 19.1-7.3 28.2m8.9-51.5c.6-2.1 1.1-4.3 1.7-6.5m-5.6 6.5l1.4-5.3m-2.4 56.3l6.9-26.8m3.7.8c-2.2 8.6-4.3 16.9-6.4 25m10.5-24c-2 7.9-4 15.5-5.9 23l5.9-23zm3.7 1.5l-5.4 21m9.4-19.5c-1.6 6.1-3.1 12.1-4.6 18m8.7-17c-1.4 5.5-2.8 10.9-4.2 16.2m8.2-14.2l-3 11.5m6.1-8.5l-1.5 6"/><circle class="st2" cx="198.9" cy="129.9" r="7.9"/><path class="st1" d="M198.4 124.5c.6 2.2.3 4.5 1.2 6.7.3.7.2-.2.2-.4 0-1.3 0-2.6-.2-3.9-.1-.5-.4-1.5-.2-2 .1-.2 1.1 1.5 1.1 1.6.6 1.4.8 3.2.3 4.6m-.5 2.9c-.2 1.6 1.7 1.6 1.7.3 0-1-1.4-.6-1.5-.1-.1.9 1.6-.9.9-.7-.4.1-.9.8-.9.7"/><path class="st1" d="M202.3 124c-3.8-.9-8.3-1.8-11.3 1.5-4.5 5.1 2.5 12.1 7.9 12 4-.1 10.8-5 8-9.5-2.1-3.4-7.7-3.6-10.9-2.3"/><circle class="st2" cx="246.9" cy="44.9" r="7.9"/><path class="st1" d="M246.4 39.5c.6 2.2.3 4.5 1.2 6.7.3.7.2-.2.2-.4 0-1.3 0-2.6-.2-3.9-.1-.5-.4-1.5-.2-2 .1-.2 1.1 1.5 1.1 1.6.6 1.4.8 3.2.3 4.6m-.5 2.9c-.2 1.6 1.7 1.6 1.7.3 0-1-1.4-.6-1.5-.1-.1.9 1.6-.9.9-.7-.4.1-.9.8-.9.7"/><path class="st1" d="M250.3 39c-3.8-.9-8.3-1.8-11.3 1.5-4.5 5.1 2.5 12.1 7.9 12 4-.1 10.8-5 8-9.5-2.1-3.4-7.7-3.6-10.9-2.3"/><circle class="st2" cx="80.3" cy="125.6" r="6.6"/><path class="st1" d="M79.9 121.1c.5 1.8.3 3.8 1 5.5.2.6.2-.1.2-.3 0-1.1 0-2.2-.2-3.3-.1-.4-.4-1.3-.2-1.7.1-.1.9 1.3.9 1.4.5 1.1.6 2.7.2 3.9m-.3 2.4c-.2 1.3 1.4 1.3 1.4.2 0-.9-1.2-.5-1.2 0 0 .7 1.4-.7.8-.6-.3.1-.8.7-.8.6"/><path class="st1" d="M83.1 120.7c-3.2-.8-6.9-1.5-9.4 1.3-3.8 4.3 2.1 10.1 6.6 10 3.4-.1 9-4.1 6.7-7.9-1.7-2.8-6.4-3-9.1-1.9"/><ellipse class="st3" cx="256.2" cy="15.9" rx="10.4" ry="8.9"/><path class="st1" d="M249.5 14.4c11 20.8-3.7-8.9 17.8-5.5m-21 2.3c3.9-5.1 11.2-5.4 16.4-1.5 6.1 4.6 2.1 16.1-8.3 16.1-7.3 0-12.9-7.1-8.1-14.6z"/><ellipse class="st3" cx="265.2" cy="71.9" rx="10.4" ry="8.9"/><path class="st1" d="M258.5 70.4c11 20.8-3.7-8.9 17.8-5.5m-21 2.3c3.9-5.1 11.2-5.4 16.4-1.5 6.1 4.6 2.1 16.1-8.3 16.1-7.3 0-12.9-7.1-8.1-14.6z"/><ellipse class="st3" cx="104.2" cy="110.9" rx="10.4" ry="8.9"/><path class="st1" d="M97.5 109.4c11 20.8-3.7-8.9 17.8-5.5m-21 2.3c3.9-5.1 11.2-5.4 16.4-1.5 6.1 4.6 2.1 16.1-8.3 16.1-7.3 0-12.9-7.1-8.1-14.6z"/><ellipse class="st3" cx="223.2" cy="119.9" rx="10.4" ry="8.9"/><path class="st1" d="M216.5 118.4c11 20.8-3.7-8.9 17.8-5.5m-21 2.3c3.9-5.1 11.2-5.4 16.4-1.5 6.1 4.6 2.1 16.1-8.3 16.1-7.3 0-12.9-7.1-8.1-14.6z"/><path class="st0" d="M96 30.5l2-10 21-2 4 3V33l-23 1-4-3.5zm46 0l-4.5-9 8.5-4 23-3 4.5 8L169 27l-27 3.5zM205 11c-.4 1.6-9.2 8.3-13.5 11.5L202 33c5.3-3.8 15.4-11.5 13-11.5-3 0-9.5-12.5-10-10.5z"/><path class="st1" d="M137.6 21.4c1.2 2.8 2.3 5.5 3.6 8.3.3.6.4.9.9 1.2m-5.7-9.5c10.6-1.8 20-3.1 30.6-4.9m-27.5 15c8.7-2.4 20.5-2 30.5-4.5m-5.2-10.3c1.4 3.5 3.6 7.2 4.2 11m-32-6c3.8-1.9 7.7-3.5 11.6-5m15.6 0c2.4-1.4 4.9-2.6 7.4-3.9m-3.5-1.2c1.7 4.1 3 8.3 5.6 11.9m-5.6 3c2.3-2.2 4.9-4.3 6.5-7.1M142 18.2c11.1-2.1 20.2-4.2 31.5-4.2m-5.1 5.9c.4.2 2 1.8 2.1.7 0-.8.1-1.9-1-1.8-.7.1-1.3.8-1.4 1.4-.2.8 1.5.4 1.9.3m-1 0c9.5 1.5 12.5 2 22.5 2"/><path class="st1" d="M190 22.6c5-2.8 11.5-6.1 14.5-11.2.4-.6 2.1-3.2.9-3.6"/><path class="st1" d="M204.3 9.3c1.7 2.5 3.1 5.2 5 7.6 1.9 2.4 4.2 3.8 6.9 5.2m-24.4.8c2.6 2.6 5 5.5 7.6 8 1.1 1.1 3 1.9 3.7 3.2m-2.1 1c4.3-5.5 10.6-9.2 15.1-14.5m-1.2 2c10.1.6 20.5-.2 29.9-3.9"/><path class="st1" d="M200.4 19.8c.7 1.3 1.5 2.5 2.7 3.5 1.2 1 1.4-1.5 1.6-2.2 1.9-5.5 5.5-10 8.3-15M97.8 18.7c-.7 4.1-1.4 8.1-2.1 12.2m22.6-11.6c-.3 3.5-1.2 6.9-1.8 10.4m-22.3.9c8.2-.8 15.3-.7 23.3-2.6M94 21.7c9.1-2.4 18.5-3.3 27.9-3.3M96 30.6c1.3 1.2 2.7 2.2 3.9 3.6m-3 0c9.9-.1 20.1-1 29.9-2.1"/><path class="st1" d="M118.6 18.7c1.6 1.3 3.2 2.3 5 3.3m-6.1 6.7c1.6 1.3 3.2 2.3 5 3.3m1.1-11.5c-.1 3.9-1.2 7.6-1.2 11.6m-2.9-5.1c8 1.7 12.5 2.5 20-1"/><path class="st1" d="M120.1 25c-.1.2-1.6 3.5-1 3.5 1 0 1.4-2.1 1.3-2.8-.1-1.2-2 1.7 0 1.7m-25.2.5c-5.9-.5-11.2-1.8-16.9-3.3"/><path class="st1" d="M78.8 24.1c.4 1.5 2.7 2.6 2.3.4-.4-2.2-3.5-.8-2.3.7.9 1.2 2.7-.5 1.9-1.3-.8-.8-.8 2-.8 2.2"/><path class="st4" d="M78 23.8c0 2.2-.9 4.3-2.4 5.8s-3.5 2.4-5.5 2.2c-1.4-.2-3-1-4.3-2.5-1.3-1.4-2.2-3.3-2.2-5.5 0-1.9.6-3.9 1.6-5.5 1.1-1.5 2.7-2.5 4.9-2.5 4.3 0 7.9 3.6 7.9 8z"/><path class="st4" d="M75 23.8c0 2.2-.8 4.4-2.2 5.9-1.3 1.5-3.2 2.4-5.3 2.1-1.4-.2-3-1-4.3-2.5-1.3-1.4-2.2-3.3-2.2-5.5 0-1.9.6-3.9 1.6-5.5 1.1-1.5 2.7-2.5 4.9-2.5 4.4 0 7.5 3.5 7.5 8z"/><path class="st1" d="M64.1 20.3c.3 2.6 1.3 4.9 1.8 7.4M64 20.5c3 1 6 3 9 3m-7.4 3.9c2.6-1.2 5.5-2.3 7.7-4.2"/><path class="st0" d="M93 60.5l2-10 21-2 4 3V63l-23 1-4-3.5zm46 0l-4.5-9 8.5-4 23-3 4.5 8L166 57l-27 3.5zM202 41c-.4 1.6-9.2 8.3-13.5 11.5L199 63c5.3-3.8 15.4-11.5 13-11.5-3 0-9.5-12.5-10-10.5z"/><path class="st1" d="M134.6 51.4c1.2 2.8 2.3 5.5 3.6 8.3.3.6.4.9.9 1.2m-5.7-9.5c10.6-1.8 20-3.1 30.6-4.9m-27.5 15c8.7-2.4 20.5-2 30.5-4.5m-5.2-10.3c1.4 3.5 3.6 7.2 4.2 11m-32-6c3.8-1.9 7.7-3.5 11.6-5m15.6 0c2.4-1.4 4.9-2.6 7.4-3.9m-3.5-1.2c1.7 4.1 3 8.3 5.6 11.9m-5.6 3c2.3-2.2 4.9-4.3 6.5-7.1M139 48.2c11.1-2.1 20.2-4.2 31.5-4.2m-5.1 5.9c.4.2 2 1.8 2.1.7 0-.8.1-1.9-1-1.8-.7.1-1.3.8-1.4 1.4-.2.8 1.5.4 1.9.3m-1 0c9.5 1.5 12.5 2 22.5 2"/><path class="st1" d="M187 52.6c5-2.8 11.5-6.1 14.5-11.2.4-.6 2.1-3.2.9-3.6"/><path class="st1" d="M201.3 39.3c1.7 2.5 3.1 5.2 5 7.6 1.9 2.4 4.2 3.8 6.9 5.2m-24.4.8c2.6 2.6 5 5.5 7.6 8 1.1 1.1 3 1.9 3.7 3.2m-2.1 1c4.3-5.5 10.6-9.2 15.1-14.5m-1.2 2c10.1.6 20.5-.2 29.9-3.9"/><path class="st1" d="M197.4 49.8c.7 1.3 1.5 2.5 2.7 3.5 1.2 1 1.4-1.5 1.6-2.2 1.9-5.5 5.5-10 8.3-15M94.8 48.7c-.7 4.1-1.4 8.1-2.1 12.2m22.6-11.6c-.3 3.5-1.2 6.9-1.8 10.4m-22.3.9c8.2-.8 15.3-.7 23.3-2.6M91 51.7c9.1-2.4 18.5-3.3 27.9-3.3M93 60.6c1.3 1.2 2.7 2.2 3.9 3.6m-3 0c9.9-.1 20.1-1 29.9-2.1"/><path class="st1" d="M115.6 48.7c1.6 1.3 3.2 2.3 5 3.3m-6.1 6.7c1.6 1.3 3.2 2.3 5 3.3m1.1-11.5c-.1 3.9-1.2 7.6-1.2 11.6m-2.9-5.1c8 1.7 12.5 2.5 20-1"/><path class="st1" d="M117.1 55c-.1.2-1.6 3.5-1 3.5 1 0 1.4-2.1 1.3-2.8-.1-1.2-2 1.7 0 1.7m-25.2.5c-5.9-.5-11.2-1.8-16.9-3.3"/><path class="st1" d="M75.8 54.1c.4 1.5 2.7 2.6 2.3.4-.4-2.2-3.5-.8-2.3.7.9 1.2 2.7-.5 1.9-1.3-.8-.8-.8 2-.8 2.2"/><path class="st4" d="M75 53.8c0 2.2-.9 4.3-2.4 5.8s-3.5 2.4-5.5 2.2c-1.4-.2-3-1-4.3-2.5-1.3-1.4-2.2-3.3-2.2-5.5 0-1.9.6-3.9 1.6-5.5 1.1-1.5 2.7-2.5 4.9-2.5 4.3 0 7.9 3.6 7.9 8z"/><path class="st4" d="M72 53.8c0 2.2-.8 4.4-2.2 5.9-1.3 1.5-3.2 2.4-5.3 2.1-1.4-.2-3-1-4.3-2.5-1.3-1.4-2.2-3.3-2.2-5.5 0-1.9.6-3.9 1.6-5.5 1.1-1.5 2.7-2.5 4.9-2.5 4.4 0 7.5 3.5 7.5 8z"/><path class="st1" d="M61.1 50.3c.3 2.6 1.3 4.9 1.8 7.4M61 50.5c3 1 6 3 9 3m-7.4 3.9c2.6-1.2 5.5-2.3 7.7-4.2m30.5-23.1c1.9.9 3.1 2.9 5 3.9m.1-4.1c1.6.7 2.6 2.5 4 3.5m1.7-3.9c1.6 1.4 3.3 2.5 4.9 3.9m31.4-13.9c1.6-1 3.2-2.1 4.9-3m1.7 1.5c2.2-.6 3.8-1.9 5.8-3.1M97.5 60.2c1.7 1 3.1 2.4 4.9 3.4m1.1-3.7c1.6.9 3 2 4.5 3m2-3.9c2.2 1.2 4.1 3 6.4 4.1m-1.2-11c1.2.7 2.4 1.4 3.6 2.2.3.2.7.4 1.1.5m23.3-5.4c2.2-1 4.3-2.1 6.5-3m1.1 2.1c2-1 4-2.5 6.1-3.2"/></svg>