<?xml version="1.0" encoding="UTF-8"?>
<svg width="14px" height="14px" viewBox="0 0 14 14" version="1.1" xmlns="http://www.w3.org/2000/svg" xmlns:xlink="http://www.w3.org/1999/xlink">
    <!-- Generator: Sketch 59 (86127) - https://sketch.com -->
    <title>HDL/Icon/Standard/Deployment/Legacy/rejected</title>
    <desc>Created with Sketch.</desc>
    <g id="Colors" stroke="none" stroke-width="1" fill="none" fill-rule="evenodd">
        <g id="Deployment-Icons" transform="translate(-101.000000, -1108.000000)">
            <g id="Legacy-icons---HDL-Colors" transform="translate(101.000000, 732.000000)">
                <g id="HDL/Icon/Standard/Deployment/Legacy/rejected" transform="translate(0.000000, 376.000000)">
                    <g id="Rejected">
                        <g id="Ellipse_524" fill="#AA3D53" fill-rule="nonzero">
                            <circle id="accent" cx="7" cy="7" r="7"></circle>
                        </g>
                        <g id="Ellipse_1550" transform="translate(1.000000, 1.000000)" fill="#FFFFFF" fill-rule="nonzero">
                            <circle id="Oval" cx="6" cy="6" r="5.2"></circle>
                        </g>
                        <g id="surface1" transform="translate(4.000000, 4.000000)" fill="#AA3D53" fill-rule="nonzero">
                            <path d="M2.8,6.7 C2.6,6.7 2.4,6.6 2.3,6.4 L0.5,3.9 C0.3,3.7 0.2,3.4 0.2,3.1 L0.2,1.6 C0.2,0.8 0.8,0.2 1.6,0.2 L4.6,0.2 C5.1,0.2 5.4,0.6 5.4,0.9 C5.4,1 5.4,1.1 5.3,1.2 C5.5,1.3 5.7,1.5 5.7,1.8 C5.7,2 5.6,2.2 5.5,2.3 C5.6,2.4 5.7,2.6 5.7,2.8 C5.7,3.1 5.5,3.3 5.4,3.4 C5.4,3.5 5.4,3.6 5.4,3.7 C5.4,4 5.1,4.3 4.7,4.3 C4.3,4.3 3.2,4.3 2.7,4.3 C2.9,4.7 3.2,5.4 3.2,5.6 C3.2,5.6 3.2,5.7 3.2,5.7 C3.2,5.8 3.3,5.9 3.3,6 C3.4,6.5 3,6.7 2.8,6.7 Z" id="Path"></path>
                        </g>
                    </g>
                </g>
            </g>
        </g>
    </g>
</svg>