<?xml version="1.0" encoding="UTF-8"?>
<svg width="14px" height="14px" viewBox="0 0 14 14" version="1.1" xmlns="http://www.w3.org/2000/svg" xmlns:xlink="http://www.w3.org/1999/xlink">
    <!-- Generator: Sketch 59 (86127) - https://sketch.com -->
    <title>HDL/Icon/Standard/Deployment/Legacy/timeout</title>
    <desc>Created with Sketch.</desc>
    <g id="Colors" stroke="none" stroke-width="1" fill="none" fill-rule="evenodd">
        <g id="Deployment-Icons" transform="translate(-101.000000, -1014.000000)">
            <g id="Legacy-icons---HDL-Colors" transform="translate(101.000000, 732.000000)">
                <g id="HDL/Icon/Standard/Deployment/Legacy/timeout" transform="translate(0.000000, 282.000000)">
                    <g id="Timedout">
                        <g id="Ellipse_524_copy" fill="#627386" fill-rule="nonzero">
                            <circle id="accent_2_" cx="7" cy="7" r="7"></circle>
                        </g>
                        <g id="Ellipse_1552" transform="translate(1.000000, 1.000000)" fill="#FFFFFF" fill-rule="nonzero">
                            <circle id="Oval" cx="6" cy="6" r="5.2"></circle>
                        </g>
                        <path d="M13.1,4.2 C12.6,3.7 12.3,3.2 12,2.6 C11.1,2.3 10.4,1.8 9.8,1.2 C9.5,1.3 9.2,1.3 8.8,1.3 C7.9,1.2 7,1 6.3,0.6 L6.3,7.7 L12.9,7.7 C13,7.3 13.1,6.9 13.3,6.5 C13.3,6.2 13.3,5.8 13.3,5.5 C13.2,5.1 13.1,4.7 13.1,4.2 Z" id="Path" fill="#627386" fill-rule="nonzero"></path>
                    </g>
                </g>
            </g>
        </g>
    </g>
</svg>