<?xml version="1.0" encoding="utf-8"?>
<!-- Generator: Adobe Illustrator 20.1.0, SVG Export Plug-In . SVG Version: 6.00 Build 0)  -->
<svg version="1.1" id="Layer_1" xmlns="http://www.w3.org/2000/svg" xmlns:xlink="http://www.w3.org/1999/xlink" x="0px" y="0px"
	 viewBox="0 0 14 14" style="enable-background:new 0 0 14 14;" xml:space="preserve">
<style type="text/css">
	.st0{fill:#AA3D53;}
	.st1{fill:#FFFFFF;}
</style>
<title>HDL/Icon/Standard/Deployment/Legacy/rejected</title>
<desc>Created with Sketch.</desc>
<g id="Colors">
	<g id="Deployment-Icons" transform="translate(-101.000000, -1108.000000)">
		<g id="Legacy-icons---HDL-Colors" transform="translate(101.000000, 732.000000)">
			<g id="HDL_x2F_Icon_x2F_Standard_x2F_Deployment_x2F_Legacy_x2F_rejected" transform="translate(0.000000, 376.000000)">
				<g id="Rejected">
					<g id="Ellipse_524">
						<circle id="accent" class="st0" cx="7" cy="7" r="7"/>
					</g>
					<g id="Ellipse_1550" transform="translate(1.000000, 1.000000)">
						<circle id="Oval" class="st1" cx="6" cy="6" r="5.2"/>
					</g>
					<g id="surface1" transform="translate(4.000000, 4.000000)">
						<path id="Path" class="st0" d="M2.8,6.7c-0.2,0-0.4-0.1-0.5-0.3L0.5,3.9C0.3,3.7,0.2,3.4,0.2,3.1V1.6c0-0.8,0.6-1.4,1.4-1.4h3
							c0.5,0,0.8,0.4,0.8,0.7c0,0.1,0,0.2-0.1,0.3c0.2,0.1,0.4,0.3,0.4,0.6c0,0.2-0.1,0.4-0.2,0.5c0.1,0.1,0.2,0.3,0.2,0.5
							c0,0.3-0.2,0.5-0.3,0.6c0,0.1,0,0.2,0,0.3c0,0.3-0.3,0.6-0.7,0.6c-0.4,0-1.5,0-2,0c0.2,0.4,0.5,1.1,0.5,1.3v0.1
							c0,0.1,0.1,0.2,0.1,0.3C3.4,6.5,3,6.7,2.8,6.7z"/>
					</g>
				</g>
			</g>
		</g>
	</g>
</g>
</svg>
