<svg fill="none" xmlns="http://www.w3.org/2000/svg" viewBox="0 0 124 65"><path fill-rule="evenodd" clip-rule="evenodd" d="M70.162 13.702a.304.304 0 01-.136.407c-1.418.71-2.85 1.418-4.277 2.121 5.935.44 14.276.97 19.898 1.302-.583-.767-1.166-1.54-1.735-2.299a.303.303 0 11.485-.364c.672.896 1.362 1.81 2.048 2.71 1.257.073 2.35.135 3.212.181a.304.304 0 01-.033.607c-.741-.04-1.653-.092-2.694-.152 1.862 2.435 3.65 4.712 4.907 6.192a94.697 94.697 0 002.19-1.125.304.304 0 01.285.535c-.438.234-.92.484-1.438.747 6.077.244 14.226.6 19.976.875l-.998-1.076a.303.303 0 11.445-.413l1.42 1.53c1.508.073 2.818.139 3.837.194a.303.303 0 01-.033.606 663.18 663.18 0 00-3.214-.164c2.578 2.778 4.891 5.267 6.468 6.9.596-.307 1.187-.618 1.779-.933a.303.303 0 11.285.535c-.54.288-1.079.572-1.622.853.171.176.332.338.48.486a.303.303 0 11-.429.43 61.847 61.847 0 01-.615-.625c-3.277 1.684-6.7 3.31-10.921 5.316h-.001l-.799.38c1.351.067 2.529.126 3.462.177a.303.303 0 11-.032.606 799.552 799.552 0 00-4.59-.23l-.08.037.532.574.055.059.023.025.018.019c2.845 3.066 5.414 5.835 7.096 7.573a221.21 221.21 0 001.978-1.041.304.304 0 01.286.535c-.553.295-1.163.617-1.821.96.132.135.258.261.376.38a.304.304 0 01-.43.428c-.156-.156-.327-.329-.509-.516a623.978 623.978 0 01-13.683 6.846c.988.049 1.861.093 2.587.133a.303.303 0 11-.032.606c-.987-.054-2.247-.117-3.695-.187-.764.368-1.51.726-2.228 1.068a.303.303 0 11-.261-.548l1.216-.581c-6.347-.302-15.465-.698-21.556-.936l.064.076a.304.304 0 01-.46.395 46.956 46.956 0 01-.19-.222C73.123 57.76 67.166 60.747 61.9 63.3l.118.006a.304.304 0 01-.033.606l-1.213-.067c-.677.326-1.339.644-1.979.948a.303.303 0 11-.26-.548l.986-.471c-5.594-.323-15.133-.921-21.653-1.408l.11.164a.303.303 0 01-.506.337l-.373-.558c-.893-.068-1.719-.134-2.457-.195a.303.303 0 11.05-.605c.603.05 1.265.103 1.974.158-1.506-2.224-3.252-4.717-5.534-7.918-.926.457-1.822.9-2.68 1.33a.304.304 0 01-.271-.543c.673-.336 1.369-.682 2.084-1.036l-.93-.052h-.005c-5.265-.298-12.636-.715-19.768-.76.168.248.332.494.495.738a.304.304 0 11-.505.337c-.236-.354-.477-.713-.725-1.08h-.54a.303.303 0 110-.607h.128a434.204 434.204 0 00-5.39-7.694c-.522.223-1.053.453-1.597.69a.304.304 0 01-.242-.557c.503-.22.995-.431 1.477-.639l-.086-.12a.303.303 0 11.494-.353l.163.229c1.475-.63 2.866-1.215 4.23-1.787 3.925-1.648 7.616-3.198 12.37-5.458a.305.305 0 01.019-.231 421.354 421.354 0 00-4.894-6.99c-.553.236-1.117.48-1.696.731a.304.304 0 11-.242-.556c.538-.234 1.063-.46 1.577-.681l-.489-.686a.304.304 0 01.494-.352l.567.793a715.972 715.972 0 014.13-1.744c3.148-1.322 6.145-2.58 9.66-4.192a.303.303 0 01.267-.447h.699c.805-.373 1.638-.767 2.508-1.184a.303.303 0 01.263.547c-.464.222-.917.438-1.361.647 6.888.072 13.912.469 18.971.755l.395.022-1.085-1.521a.304.304 0 01.494-.353l1.205 1.691c2.424-1.207 5.12-2.523 7.936-3.899h.002l.001-.001.49-.24c1.23-.6 2.483-1.212 3.744-1.83-.424-.034-.827-.066-1.207-.098a.303.303 0 11.05-.605c.675.056 1.422.116 2.227.177a842.585 842.585 0 005.199-2.574.303.303 0 01.407.136zM90.48 25.077l-.268-.01a.303.303 0 11.024-.607l.88.034c-1.32-1.578-3.132-3.895-4.985-6.326-5.941-.348-15.308-.941-21.456-1.41-1.573.773-3.136 1.537-4.666 2.284l-.49.239-.002.001-.003.002c-2.6 1.27-5.096 2.488-7.369 3.616l.767.042a.304.304 0 01-.033.606 591.28 591.28 0 01-.956-.052 341.667 341.667 0 014.614 6.642l.626.047c1.379-.624 2.832-1.3 4.402-2.053a.303.303 0 01.263.547 219.115 219.115 0 01-3.406 1.6c5.766.42 13.42.904 18.758 1.22a.304.304 0 01.101-.29l-.36-.39h-.001l-1.486-1.6a.304.304 0 01.445-.414l1.406 1.516.01.01.022.024.024.026.006.006.017.019.494.532c2.492-1.113 8.177-3.69 12.622-5.861zm-12.186 6.33c2.784-1.245 8.994-4.064 13.46-6.28 6.371.252 15.574.653 21.686.947 2.674 2.882 5.104 5.5 6.772 7.232-3.218 1.649-6.588 3.25-10.74 5.224h-.001l-1.823.867-.586-.028-.228-.245a.302.302 0 00-.525.21 2920.68 2920.68 0 00-21.233-.914.303.303 0 00-.151.034c-1.348-1.371-3.453-3.626-5.88-6.237.903.052 1.7.097 2.362.132a.303.303 0 00.033-.606c-.811-.043-1.827-.1-2.991-.169l-.155-.166zm22.054 24.421a631.966 631.966 0 0014.506-7.239c-1.69-1.751-4.207-4.464-6.979-7.45l-1.089-1.175c-6.481-.306-15.52-.697-21.418-.925a.302.302 0 01-.518.202c-1.393-1.393-3.845-4.022-6.68-7.075-5.673-.332-14.669-.899-20.898-1.364l-.222.1.043.066a.303.303 0 11-.505.337l-.1-.15c-2.759 1.233-5.25 2.28-7.837 3.366h-.001c-1.799.755-3.645 1.53-5.66 2.401a.304.304 0 01-.126.586l-.061-.003c2.569 3.411 5.3 6.947 6.985 8.912a.303.303 0 11-.46.395c-1.766-2.06-4.66-5.815-7.316-9.349-5.273-.274-12.527-.56-21.111-.84.234.347.462.686.685 1.022a.303.303 0 11-.505.336 204.56 204.56 0 00-.772-1.15c-4.873 2.323-8.636 3.904-12.629 5.58-1.321.555-2.667 1.12-4.088 1.727 2.288 3.208 4.044 5.71 5.555 7.94 7.279.032 14.852.46 20.217.764h.016l1.149.065-.034-.047a.304.304 0 01.494-.353l.316.444.064.003c1.722-.848 3.542-1.737 5.416-2.652h.002l.002-.001.003-.002h.002v-.001l.49-.24a1203.14 1203.14 0 0010.013-4.93.303.303 0 11.272.543c-3.34 1.67-6.755 3.34-10.018 4.933l-.489.239h-.001l-.006.003-.003.002-.008.003-.001.001c-1.652.807-3.261 1.593-4.798 2.348a.305.305 0 01-.306.393l-.183-.01c2.354 3.305 4.137 5.854 5.679 8.142 6.955.525 17.727 1.196 23.213 1.505C66.061 60.62 72.42 57.44 76.6 55.25a.302.302 0 01-.033-.143c-1.847-2.233-4.504-5.697-6.919-8.917a.303.303 0 01.486-.364c2.453 3.27 5.145 6.778 6.982 8.992l.283.011c.187-.098.368-.194.543-.288a.303.303 0 01.44.327c6.456.255 15.84.665 21.966.961zM50.52 23.417l-.253-.014c-5.374-.304-12.942-.732-20.211-.763-3.9 1.809-7.136 3.168-10.54 4.597-1.29.542-2.605 1.094-3.989 1.684a409.95 409.95 0 014.953 7.082l.15.005a.303.303 0 01.212.007c8.421.274 15.57.554 20.832.823a.302.302 0 01.448-.198l.03-.016c2.264-.983 4.301-1.839 6.279-2.67 2.507-1.052 4.92-2.065 7.573-3.248-.697-.054-1.348-.106-1.943-.155a.304.304 0 01.05-.605c.512.042 1.065.087 1.654.133a367.032 367.032 0 00-4.616-6.627l-.101-.005-.141.07a.303.303 0 01-.386-.1z" fill="#B0B1C4"/><path d="M70.026 14.11l-.056-.113.056.112zm.136-.408l.112-.056-.112.056zm-4.413 2.528l-.055-.112a.125.125 0 00.046.237l.009-.125zm19.898 1.302l-.008.125a.125.125 0 00.107-.2l-.1.075zm-1.735-2.299l-.1.075.1-.075zm.485-.364l-.1.075.1-.075zm2.048 2.71l-.1.075a.125.125 0 00.092.05l.008-.125zm3.212.181l-.007.125.007-.125zm.287.32l-.125-.007.125.007zm-.32.287l-.006.124.006-.124zm-2.694-.152l.007-.125a.125.125 0 00-.106.2l.1-.075zm4.907 6.192l-.095.08c.037.044.1.057.151.032l-.056-.112zm2.19-1.125l.058.11-.059-.11zm.285.535l.059.11-.06-.11zm-1.438.747l-.056-.112a.125.125 0 00.052.237l.004-.125zm19.976.875l-.006.124a.124.124 0 00.119-.072.125.125 0 00-.021-.138l-.092.085zm-.998-1.076l.091-.085-.091.085zm.016-.429l-.085-.091.085.091zm.429.016l-.092.085.092-.085zm1.42 1.53l-.092.085a.124.124 0 00.086.04l.006-.125zm3.837.194l.006-.125-.006.125zm-.033.606l.007-.125-.007.125zm-3.214-.164l.006-.124a.124.124 0 00-.119.072.125.125 0 00.021.137l.092-.085zm6.468 6.9l-.09.087c.039.04.099.05.148.024l-.058-.11zm1.779-.933l.058.11-.058-.11zm.285.535l.059.11-.059-.11zm-1.622.853l-.058-.11a.127.127 0 00-.066.09.126.126 0 00.035.108l.089-.088zm.48.486l-.089.088.089-.088zm0 .43l-.089-.09.089.09zm-.429 0l-.089.088.089-.089zm-.615-.625l.089-.087a.124.124 0 00-.146-.024l.057.111zm-10.921 5.316l.053.114h.001l-.054-.114zm0 0l-.053-.113h-.001l.054.114zm-.001 0l.054.114-.054-.113zm-.799.38l-.054-.112a.125.125 0 00.048.238l.006-.125zm3.462.177l-.006.124.006-.124zm-.032.606l.006-.125-.006.125zm-4.59-.23l.006-.125a.123.123 0 00-.06.012l.054.113zm-.08.037l-.054-.113a.129.129 0 00-.069.09c-.007.039.005.08.032.108l.091-.085zm.532.574l.092-.085-.092.085zm.055.059l.092-.085-.092.085zm.023.025l.092-.085-.092.085zm.018.019l-.092.085.092-.085zm7.096 7.573l-.089.087c.038.04.098.049.147.023l-.058-.11zm1.978-1.041l-.059-.11.059.11zm.411.125l-.11.059.11-.06zm-.125.41l.059.11-.059-.11zm-1.821.96l-.058-.111a.125.125 0 00-.066.091.125.125 0 00.035.107l.089-.087zm.376.38l-.089.088.089-.089zm0 .428l-.089-.088.089.088zm-.43 0l-.088.089.088-.089zm-.509-.516l.089-.087a.125.125 0 00-.147-.024l.058.111zm-13.683 6.846l-.055-.113a.126.126 0 00-.068.138c.012.056.06.097.117.1l.006-.125zm2.587.133l.007-.125-.007.125zm-.032.606l-.007.125.007-.125zm-3.695-.187l.006-.125a.127.127 0 00-.061.012l.055.113zm-2.228 1.068l.053.113-.053-.113zm-.405-.143l-.113.053.113-.053zm.144-.405l.053.113-.053-.113zm1.216-.581l.054.112a.125.125 0 00-.048-.237l-.006.125zm-21.556-.936l.005-.124a.125.125 0 00-.1.206l.095-.082zm.064.076l-.095.08v.001l.096-.081zm-.46.395l.094-.082-.094.082zm-.19-.222l.096-.081a.125.125 0 00-.153-.03l.058.11zM61.9 63.3l-.055-.113a.125.125 0 00.048.238l.007-.125zm.118.006l-.007.125.007-.125zm.287.32l.124.006-.124-.006zm-.32.286l.007-.124-.007.124zm-1.213-.067l.007-.124a.125.125 0 00-.061.012l.054.112zm-1.979.948l-.053-.113.053.113zm-.404-.143l.113-.054-.113.054zm.144-.405l.053.113-.053-.113zm.986-.471l.054.113a.125.125 0 00-.047-.238l-.007.125zm-21.653-1.408l.01-.124a.125.125 0 00-.114.194l.104-.07zm.11.164l.103-.07-.104.07zm-.085.42l.07.105-.07-.104zm-.42-.083l.103-.07-.104.07zm-.374-.558l.103-.07a.125.125 0 00-.094-.055l-.01.125zm-2.457-.195l-.01.124.01-.124zm-.278-.328l.125.01-.125-.01zm.328-.277l.01-.125-.01.125zm1.974.158l-.01.124a.125.125 0 00.113-.194l-.103.07zm-5.534-7.918l.102-.073a.125.125 0 00-.157-.04l.055.113zm-2.68 1.33l.056.112-.056-.112zm-.271-.543l.056.112-.056-.112zm2.084-1.036l.055.112a.125.125 0 00-.048-.237l-.007.125zm-.93-.052l-.008.124.007-.124zm-.005 0l.007-.126h-.007v.125zm0 0l-.007.124h.007v-.125zm-19.768-.76v-.126a.125.125 0 00-.104.195l.104-.07zm.495.738l-.104.07.104-.07zm-.084.42l.069.105-.07-.104zm-.421-.083l.104-.07-.104.07zm-.725-1.08l.104-.07a.125.125 0 00-.103-.054v.125zm-.54-.607v-.125.125zm.128 0v.125a.125.125 0 00.104-.195l-.104.07zm-5.39-7.694l.1-.073a.125.125 0 00-.15-.042l.05.115zm-1.597.69l.05.114-.05-.115zm-.4-.158l.115-.05-.115.05zm.158-.4l.05.115-.05-.114zm1.477-.638l.05.115a.125.125 0 00.052-.187l-.102.072zm-.086-.12l.102-.073-.102.073zm.07-.424l.073.102-.072-.102zm.424.07l.102-.072-.102.073zm.163.23l-.101.072a.125.125 0 00.15.043l-.049-.115zm4.23-1.787l-.049-.115.048.115zm0 0l.048.115-.048-.115zm12.37-5.458l.053.113a.125.125 0 00.066-.15l-.12.037zm-.015-.102l.125.004-.125-.004zm.034-.13l.11.058a.125.125 0 00-.007-.127l-.103.07zm-4.894-6.99l.102-.072a.125.125 0 00-.151-.043l.049.115zm-1.696.732l.05.115-.05-.115zm-.399-.157l-.115.05.115-.05zm.157-.4l-.05-.114.05.114zm1.577-.68l.05.114a.125.125 0 00.052-.187l-.102.073zm-.489-.686l.102-.072-.102.072zm.494-.352l.102-.073-.102.073zm.567.793l-.102.073a.125.125 0 00.15.042l-.048-.115zm4.13-1.744l-.049-.116.048.116zm0 0l-.048-.116.047.116zm0 0l.047.115h.001l-.049-.115zm0 0l-.049-.116.049.116zm9.66-4.192l.052.113a.125.125 0 00.058-.173l-.11.06zm.966-.447v.125a.125.125 0 00.053-.011l-.053-.114zm2.508-1.184l.054.112-.054-.112zm.405.142l.113-.054-.113.054zm-.142.405l.054.113-.054-.113zm-1.361.647l-.053-.113a.125.125 0 00.052.238l.001-.125zm18.971.755l-.007.125h.001l.006-.125zm0 0l.008-.125h-.001l-.007.125zm.395.022l-.008.125a.125.125 0 00.11-.197l-.102.072zm-1.085-1.521l-.102.072.102-.072zm.494-.353l.102-.073-.102.073zm1.205 1.691l-.102.073c.036.05.103.066.158.039l-.056-.112zm7.936-3.899l.055.113-.055-.113zm.002 0l-.055-.113.055.113zm.001-.001l-.054-.113.054.113zm0 0l.055.113-.055-.113zm.49-.24l.055.113-.055-.112zm3.744-1.83l.055.112a.125.125 0 00-.045-.237l-.01.125zm-1.207-.098l.01-.125-.01.125zm.05-.605l.01-.124-.01.124zm2.227.177l-.01.125a.124.124 0 00.066-.012l-.056-.113zm5.199-2.574l.056.112-.056-.112zm20.725 11.51l.055.113a.125.125 0 00-.05-.237l-.005.125zm-.268-.01l.005-.125-.005.125zm-.291-.315l-.125-.005.125.005zm.315-.291l.004-.125-.004.125zm.88.034l-.004.125a.125.125 0 00.1-.205l-.095.08zm-4.985-6.326l.1-.075a.125.125 0 00-.093-.05l-.007.125zm-21.456-1.41l.01-.124a.124.124 0 00-.065.012l.055.112zm-4.666 2.284l.055.112-.055-.112zm-.49.239l.055.112-.054-.112zm0 0l-.054-.113.054.113zm0 0l.054.113-.054-.113zm-.002.001l.054.113-.054-.113zm0 0l-.054-.113.054.113zm0 0l-.055-.112.055.112zm-.003.002l.055.112-.055-.113zM52.145 22.9l-.055-.112a.125.125 0 00.048.237l.008-.125zm.767.042l-.007.125.007-.125zm.287.32l.125.006-.125-.006zm-.32.286l.007-.125-.007.125zm-.956-.052l.008-.125a.125.125 0 00-.11.197l.102-.072zm4.614 6.642l-.103.07a.125.125 0 00.094.055l.01-.125zm.626.047l-.01.125a.126.126 0 00.062-.01l-.052-.115zm4.402-2.053l.054.112-.054-.112zm.405.142l-.113.054.113-.054zm-.142.405l.054.113-.054-.113zm-3.406 1.6l-.052-.114a.125.125 0 00.043.238l.009-.125zm18.758 1.22l-.008.126a.125.125 0 00.13-.15l-.122.025zm.101-.29l.08.095a.125.125 0 00.012-.18l-.092.084zm-.36-.39l.091-.084-.091.085zm-.001 0l-.092.085.092-.085zm-1.486-1.6l.092-.086-.092.085zm.016-.43l-.085-.091.085.091zm.429.016l-.092.085.092-.085zm1.406 1.516l-.091.085.091-.085zm.01.01l.092-.085-.092.085zm.022.024l-.092.085.092-.085zm.024.026l-.091.085.091-.085zm.006.006l.091-.085-.091.085zm.017.019l.093-.084-.001-.002-.092.086zm0 0l-.092.084.001.001.092-.085zm.494.532l-.091.085c.036.04.094.05.142.03l-.05-.115zm13.895-5.812l.005-.125a.126.126 0 00-.06.013l.055.112zm-13.459 6.282l-.05-.114a.125.125 0 00-.041.199l.091-.085zm35.146-5.334l.092-.085a.126.126 0 00-.086-.04l-.006.125zm6.772 7.232l.057.112a.126.126 0 00.066-.091.128.128 0 00-.033-.107l-.09.086zm-10.74 5.224l-.054-.113h-.001l.055.113zm-.001 0l-.054-.112h-.002l.056.112zm0 0l.054.113h.002l-.056-.113zm-1.823.867l-.006.125a.128.128 0 00.06-.012l-.054-.113zm-.586-.028l-.092.085a.125.125 0 00.086.04l.006-.125zm-.228-.245l.092-.085-.092.085zm-.428-.016l-.086-.091.086.091zm-.097.226l-.006.125a.126.126 0 00.131-.126h-.125zm-21.233-.914l-.005.125.005-.125zm-.151.034l-.09.088c.039.039.099.048.147.023l-.057-.11zm-5.88-6.237l.008-.125a.125.125 0 00-.099.21l.092-.085zm2.362.132l.007-.124-.007.124zm.32-.286l.124.006-.125-.006zm-.287-.32l.007-.125-.007.125zm-2.991-.169l-.092.085a.125.125 0 00.085.04l.007-.125zm36.405 17.015l.058.111a.125.125 0 00.032-.198l-.09.087zm-14.506 7.239l-.006.125a.126.126 0 00.06-.012l-.054-.113zm7.527-14.69l.092-.085-.092.085zm-1.089-1.174l.091-.085a.124.124 0 00-.086-.04l-.005.125zm-21.418-.925l.005-.125a.125.125 0 00-.13.12l.125.005zm-.089.202l-.088-.088.088.088zm-.43 0l-.088.089.089-.089zm-6.679-7.075l.092-.085a.125.125 0 00-.085-.04l-.007.125zm-20.898-1.364l.01-.124a.124.124 0 00-.061.01l.05.114zm-.222.1l-.052-.114a.125.125 0 00-.052.184l.104-.07zm.043.066l.104-.07-.104.07zm-.084.42l.07.105-.07-.104zm-.42-.084l.103-.069-.104.07zm-.1-.15l.103-.069a.125.125 0 00-.155-.045l.051.114zm-7.838 3.367l-.048-.116.048.116zm0 0l.046.116.002-.001-.048-.115zm0 0l-.047-.116h-.002l.048.116zm0 0l-.049-.115.048.115zm-.001 0l.048.115-.048-.115zm-5.66 2.401l-.049-.114a.125.125 0 00.005.231l.045-.117zm.194.3l.125.006-.125-.006zm-.32.286l.007-.124-.007.124zm-.061-.003l.007-.125a.125.125 0 00-.107.2l.1-.075zm6.985 8.912l-.095.08.095-.08zm-.46.395l-.096.08.095-.08zm-7.316-9.349l.1-.075a.125.125 0 00-.094-.05l-.006.125zm-21.111-.84l.004-.124a.125.125 0 00-.108.195l.104-.07zm.685 1.022l-.104.069.104-.07zm-.084.42l.07.104-.07-.104zm-.421-.084l-.104.07.104-.07zm-.772-1.15l.103-.07a.125.125 0 00-.157-.042l.054.113zM7.68 42.412l.049.115-.049-.115zm-4.088 1.727l-.049-.115a.125.125 0 00-.052.187l.101-.072zm5.555 7.94l-.103.07a.125.125 0 00.103.055v-.125zm20.217.764l-.007.124.007-.124zm.016 0l.007-.124-.007.124zm1.149.065l-.008.125a.125.125 0 00.11-.197l-.102.072zm-.034-.047l.101-.073-.101.073zm.07-.423l.073.101-.073-.101zm.424.07l.101-.072-.101.072zm.316.444l-.102.072c.023.031.057.05.095.052l.007-.125zm.064.003l-.007.125a.125.125 0 00.063-.013l-.056-.112zm5.416-2.652l.055.113-.055-.113zm.002 0l-.055-.113.055.112zm.002-.001l.054.112-.055-.112zm.003-.002l-.055-.112.055.112zm.002 0l.055.112v-.001l-.055-.112zm0 0l-.055-.113h-.001l.056.112zm0-.001l-.054-.113.055.113zm.49-.24l.056.113-.055-.113zm10.42-4.794l-.111.056.111-.056zm-.135.407l.056.112-.056-.112zM37.55 50.604l.055.112-.055-.112zm-.489.239l.055.112-.055-.112zm-.001 0l-.055-.112a.132.132 0 00-.014.008l.069.104zm0 0l.055.112a.114.114 0 00.014-.008l-.069-.104zm-.006.003l.054.113h.001l-.055-.113zm0 0l-.053-.113H37l.055.113zm-.003.002l.055.112-.055-.112zm-.008.003l.055.113-.054-.113zm-.001.001l-.055-.112.055.112zM32.245 53.2l-.055-.113a.125.125 0 00-.064.15l.12-.037zm.014.106l.124.007-.125-.007zm-.32.287l-.007.125.007-.125zm-.183-.01l.007-.125a.125.125 0 00-.109.198l.102-.073zm5.679 8.142l-.104.07a.125.125 0 00.095.055l.009-.125zm23.213 1.505l-.007.125a.125.125 0 00.062-.012l-.055-.113zM76.6 55.25l.058.11a.125.125 0 00.053-.167l-.111.057zm-.033-.143l.125.002c0-.03-.01-.059-.029-.082l-.096.08zm-6.919-8.917l-.1.075.1-.075zm.06-.425l-.074-.1.075.1zm.426.06l-.1.076.1-.075zm6.982 8.993l-.096.08a.125.125 0 00.091.045l.005-.125zm.283.011l-.005.125a.125.125 0 00.064-.014l-.059-.11zm.543-.288l-.059-.11.06.11zm.41.125l.111-.059-.11.06zm.03.202l-.122-.024a.125.125 0 00.118.149l.005-.125zM50.268 23.403l.007-.125-.007.125zm.253.014l.104-.07a.125.125 0 00-.096-.055l-.008.125zm-.253-.014l-.007.124.007-.124zm-20.211-.763v-.125a.125.125 0 00-.053.012l.053.113zm-10.54 4.597l.049.115-.049-.115zm-3.989 1.684l-.049-.115a.125.125 0 00-.053.188l.102-.073zm4.953 7.082l-.103.07c.022.033.059.054.099.055l.004-.125zm.15.005l-.005.125c.015 0 .03-.002.045-.007l-.04-.118zm.212.007l-.048.115a.127.127 0 00.044.01l.004-.125zm20.832.823l-.007.125a.125.125 0 00.129-.098l-.122-.027zm.114-.178l-.075-.1.075.1zm.334-.02l-.062.108a.125.125 0 00.124 0l-.062-.108zm.03-.016l.05.115-.05-.115zm6.279-2.67l.048.116.002-.001-.05-.114zm0 0l-.049-.115-.002.002.05.114zm7.573-3.248l.051.114a.125.125 0 00-.041-.239l-.01.125zm-1.943-.155l.01-.125-.01.125zm.05-.605l.011-.125-.01.125zm1.654.133l-.01.124a.125.125 0 00.113-.194l-.103.07zm-4.616-6.627l.102-.072a.125.125 0 00-.095-.052l-.007.124zm-.101-.005l.007-.125a.126.126 0 00-.063.013l.056.112zm-.141.07l-.056-.112.056.112zm19.175-9.296a.429.429 0 00.192-.575l-.224.112a.178.178 0 01-.08.24l.112.223zm-4.278 2.121c1.428-.703 2.86-1.412 4.278-2.121l-.112-.224a791.667 791.667 0 01-4.276 2.121l.11.224zm19.85 1.065c-5.621-.332-13.962-.861-19.896-1.302l-.018.25c5.936.44 14.277.97 19.9 1.302l.014-.25zm-1.842-2.099c.57.76 1.152 1.532 1.735 2.3l.199-.152c-.582-.767-1.165-1.539-1.734-2.298l-.2.15zm.086-.6a.428.428 0 00-.086.6l.2-.15a.178.178 0 01.036-.25l-.15-.2zm.6.086a.428.428 0 00-.6-.086l.15.2a.178.178 0 01.25.036l.2-.15zm2.046 2.709c-.685-.9-1.375-1.813-2.046-2.709l-.2.15c.672.896 1.362 1.81 2.047 2.71l.2-.151zm3.12.133c-.862-.047-1.955-.109-3.212-.182l-.015.25c1.258.073 2.35.135 3.213.181l.014-.25zm.405.45a.429.429 0 00-.405-.45l-.014.25c.099.005.174.089.169.187l.25.014zm-.451.405a.428.428 0 00.45-.404l-.249-.014a.179.179 0 01-.188.169l-.013.25zm-2.695-.151c1.04.06 1.953.111 2.695.151l.013-.25c-.741-.04-1.653-.09-2.694-.15l-.014.249zm5.01 5.986c-1.255-1.477-3.042-3.753-4.904-6.187l-.198.152c1.862 2.435 3.652 4.714 4.91 6.197l.191-.162zm-.04.192a94.586 94.586 0 002.192-1.126l-.118-.22c-.642.342-1.381.72-2.186 1.123l.112.223zm2.192-1.126a.178.178 0 01.241.073l.221-.117a.429.429 0 00-.58-.177l.118.221zm.241.073a.178.178 0 01-.073.242l.118.22a.429.429 0 00.176-.58l-.22.118zm-.073.242c-.437.233-.919.483-1.435.745l.113.223c.518-.263 1-.514 1.44-.747l-.118-.221zm18.603 1.607c-5.751-.275-13.9-.631-19.976-.875l-.01.25c6.075.244 14.224.6 19.974.874l.012-.25zm-1.096-.866l.998 1.075.184-.17-.999-1.075-.183.17zm.023-.605a.428.428 0 00-.023.605l.183-.17a.179.179 0 01.01-.252l-.17-.183zm.605.022a.428.428 0 00-.605-.022l.17.183a.178.178 0 01.252.01l.183-.17zm1.42 1.53l-1.42-1.53-.183.17 1.42 1.53.183-.17zm3.752.154c-1.019-.055-2.329-.12-3.837-.194l-.012.25c1.508.073 2.817.139 3.836.194l.013-.25zm.405.451a.428.428 0 00-.405-.451l-.013.25a.18.18 0 01.169.188l.249.013zm-.451.405a.428.428 0 00.451-.405l-.249-.014a.18.18 0 01-.188.17l-.014.249zm-3.213-.164c1.247.061 2.338.117 3.213.164l.014-.25c-.876-.047-1.967-.103-3.215-.163l-.012.25zm6.564 6.689c-1.576-1.633-3.888-4.12-6.466-6.899l-.184.17c2.578 2.778 4.892 5.268 6.47 6.902l.18-.173zm1.63-.957c-.591.315-1.182.625-1.777.932l.115.222c.596-.308 1.187-.618 1.779-.934l-.117-.22zm.58.176a.429.429 0 00-.58-.177l.117.221a.179.179 0 01.242.074l.221-.118zm-.177.58a.429.429 0 00.177-.58l-.221.118a.179.179 0 01-.074.241l.118.22zm-1.624.853c.544-.281 1.084-.565 1.624-.853l-.118-.22c-.539.287-1.078.57-1.621.851l.115.222zm.511.287c-.148-.148-.307-.31-.479-.485l-.178.175c.171.175.332.338.48.486l.177-.176zm0 .606a.427.427 0 000-.606l-.177.176c.07.07.07.183 0 .253l.177.177zm-.606 0a.429.429 0 00.606 0l-.177-.177a.178.178 0 01-.252 0l-.177.177zm-.616-.626c.223.23.429.439.616.626l.177-.177a71.364 71.364 0 01-.614-.623l-.179.175zm-10.777 5.342c4.22-2.005 7.645-3.633 10.924-5.318l-.114-.222c-3.275 1.682-6.697 3.308-10.918 5.315l.108.225zm-.001 0l-.106-.226.106.227zm0 0h.001l-.108-.225h-.001l.108.225zm-.8.38l.8-.38-.107-.225-.8.38.107.226zm3.416-.061c-.934-.05-2.112-.11-3.463-.176l-.012.25c1.35.065 2.528.125 3.462.175l.013-.25zm.405.45a.429.429 0 00-.405-.45l-.013.25c.098.005.174.089.168.187l.25.014zm-.451.405a.429.429 0 00.451-.404l-.25-.014a.178.178 0 01-.188.169l-.013.25zm-4.589-.23c1.826.088 3.404.166 4.589.23l.013-.25a791.738 791.738 0 00-4.59-.23l-.012.25zm-.02.026l.079-.038-.107-.225-.08.037.108.226zm.57.376l-.532-.574-.183.17.532.574.183-.17zm.055.059l-.055-.06-.183.17.055.06.183-.17zm.023.025l-.023-.025-.183.17.023.025.183-.17zm.017.019l-.017-.02-.183.17.017.02.183-.17zm7.095 7.57c-1.681-1.736-4.249-4.504-7.095-7.57l-.183.17c2.845 3.065 5.415 5.835 7.099 7.575l.179-.174zm1.829-1.063c-.595.317-1.259.666-1.976 1.04l.115.221c.718-.373 1.383-.723 1.979-1.04l-.118-.221zm.58.176a.429.429 0 00-.58-.176l.118.22a.18.18 0 01.242.074l.22-.118zm-.176.58a.428.428 0 00.176-.58l-.22.118a.179.179 0 01-.074.241l.118.22zm-1.822.96c.658-.344 1.269-.665 1.822-.96l-.118-.22c-.552.294-1.162.615-1.82.958l.116.221zm.406.18c-.117-.118-.243-.244-.375-.379l-.178.175c.132.136.258.263.376.38l.177-.176zm0 .606a.429.429 0 000-.606l-.177.177c.07.07.07.182 0 .252l.177.177zm-.606 0a.428.428 0 00.606 0l-.177-.177a.178.178 0 01-.252 0l-.177.177zm-.511-.517c.183.187.354.36.511.517l.177-.177a62.249 62.249 0 01-.509-.515l-.179.175zm-13.539 6.87a623.782 623.782 0 0013.686-6.847l-.115-.222a625.024 625.024 0 01-13.68 6.844l.109.225zm2.54-.104c-.726-.04-1.6-.084-2.588-.133l-.012.25c.987.048 1.861.093 2.587.132l.013-.25zm.405.45a.429.429 0 00-.405-.45l-.013.25c.098.005.174.089.168.187l.25.014zm-.451.406a.429.429 0 00.451-.405l-.25-.014a.178.178 0 01-.188.169l-.013.25zm-3.695-.187c1.449.07 2.709.133 3.695.187l.013-.25c-.987-.053-2.247-.117-3.695-.187l-.013.25zm-2.168 1.056c.72-.342 1.465-.7 2.229-1.069l-.109-.225c-.764.369-1.509.726-2.227 1.068l.107.226zm-.57-.203a.428.428 0 00.57.203l-.107-.226a.178.178 0 01-.238-.084l-.226.107zm.202-.57a.429.429 0 00-.203.57l.226-.107a.178.178 0 01.084-.238l-.107-.226zm1.216-.582l-1.216.581.107.226 1.217-.582-.108-.225zm-21.507-.698c6.091.238 15.209.634 21.555.936l.012-.25c-6.347-.302-15.465-.697-21.557-.935l-.01.25zm.165-.13l-.065-.076-.19.163.064.075.19-.162zm-.047.604c.18-.154.2-.425.046-.605l-.19.163a.179.179 0 01-.019.252l.163.19zm-.604-.047c.154.18.424.2.604.047l-.163-.19a.179.179 0 01-.251-.02l-.19.163zm-.19-.222l.19.222.19-.163a42.253 42.253 0 01-.189-.221l-.19.162zm-15.01 7.637c5.268-2.553 11.225-5.54 15.164-7.608l-.117-.22c-3.935 2.064-9.89 5.05-15.156 7.603l.11.225zm.07-.23l-.117-.007-.014.25.118.006.014-.25zm.405.45a.429.429 0 00-.404-.45l-.014.25c.099.004.174.088.169.187l.25.013zm-.45.405a.428.428 0 00.45-.405l-.25-.013a.179.179 0 01-.187.169l-.014.25zm-1.214-.067l1.213.067.014-.25-1.213-.066-.014.25zm-1.918.936c.64-.305 1.302-.622 1.979-.948l-.108-.225c-.677.326-1.338.643-1.978.947l.107.226zm-.57-.202a.429.429 0 00.57.202l-.107-.226a.178.178 0 01-.238-.084l-.226.108zm.202-.572a.429.429 0 00-.203.572l.226-.108a.179.179 0 01.084-.238l-.107-.226zm.986-.47l-.986.47.107.226.987-.471-.108-.226zm-21.608-1.17c6.52.485 16.06 1.084 21.655 1.407l.014-.25c-5.594-.323-15.132-.921-21.65-1.407l-.02.25zm.222-.031l-.109-.164-.208.139.11.163.207-.138zm-.119.594a.429.429 0 00.12-.594l-.209.138a.179.179 0 01-.05.248l.14.208zm-.594-.119c.131.197.398.25.594.119l-.138-.208a.179.179 0 01-.248-.05l-.208.14zm-.373-.558l.373.558.208-.139-.374-.558-.207.14zm-2.364-.14c.74.062 1.565.127 2.458.195l.02-.25c-.893-.067-1.719-.132-2.457-.194l-.02.25zm-.391-.462a.428.428 0 00.391.462l.02-.249a.178.178 0 01-.162-.193l-.25-.02zm.462-.392a.428.428 0 00-.462.392l.249.02a.179.179 0 01.193-.163l.02-.249zm1.973.158a322.71 322.71 0 01-1.973-.158l-.02.25c.603.05 1.265.102 1.974.157l.02-.249zm-5.645-7.72c2.282 3.2 4.028 5.692 5.532 7.915l.207-.14c-1.506-2.226-3.253-4.719-5.535-7.92l-.204.145zm-2.522 1.369c.858-.43 1.754-.873 2.68-1.33l-.111-.224c-.926.457-1.822.9-2.68 1.33l.111.224zm-.575-.192a.428.428 0 00.575.192l-.112-.224a.178.178 0 01-.24-.08L27.93 55zm.192-.575a.429.429 0 00-.192.575l.224-.112a.179.179 0 01.08-.24l-.112-.223zm2.085-1.036c-.716.354-1.412.7-2.085 1.036l.112.224c.672-.337 1.368-.682 2.083-1.036l-.11-.224zm-.883.184l.931.053.014-.25-.93-.052-.015.25zm-.004 0h.004l.014-.25h-.004l-.014.25zm.007 0v-.25.25zm-19.769-.76c7.13.046 14.497.463 19.762.76l.014-.25c-5.264-.297-12.638-.714-19.774-.76l-.002.25zm.6.545l-.495-.74-.208.14.495.738.208-.138zm-.12.594a.428.428 0 00.12-.594l-.208.138a.178.178 0 01-.05.248l.139.208zm-.593-.12c.131.198.397.251.594.12l-.139-.208a.179.179 0 01-.247-.05l-.208.139zm-.724-1.077c.247.366.488.724.724 1.078l.208-.139a201.43 201.43 0 00-.725-1.08l-.207.14zm-.437.054h.54v-.25h-.54v.25zm-.429-.428c0 .236.192.428.429.428v-.25a.178.178 0 01-.179-.178h-.25zm.429-.429a.428.428 0 00-.429.429h.25c0-.099.08-.179.179-.179v-.25zm.128 0h-.128v.25h.128v-.25zM2.92 44.455a433.778 433.778 0 015.39 7.692l.207-.141a434.387 434.387 0 00-5.393-7.697l-.204.146zm-1.445.73c.544-.236 1.076-.465 1.596-.688l-.098-.23c-.521.224-1.053.453-1.597.69l.1.229zm-.563-.221a.428.428 0 00.563.222l-.1-.23a.178.178 0 01-.234-.092l-.23.1zm.222-.564a.429.429 0 00-.222.564l.229-.1a.178.178 0 01.092-.235l-.1-.229zm1.478-.639c-.483.208-.975.42-1.478.639l.1.23c.502-.22.994-.432 1.477-.639l-.099-.23zm-.139.067l.087.121.203-.145-.086-.12-.204.144zm.1-.597a.429.429 0 00-.1.597l.204-.145a.179.179 0 01.041-.249l-.145-.203zm.598.1a.429.429 0 00-.598-.1l.145.203a.178.178 0 01.25.042l.203-.146zm.163.228l-.163-.229-.204.146.164.228.203-.145zm4.079-1.83a709.754 709.754 0 00-4.23 1.788l.099.23a703.22 703.22 0 014.228-1.787l-.097-.23zm0 0l.096.231-.096-.23zm12.365-5.455c-4.75 2.259-8.439 3.807-12.365 5.456l.097.23c3.926-1.648 7.619-3.199 12.375-5.46l-.107-.226zm-.086.007a.428.428 0 00.02.144l.239-.076a.18.18 0 01-.009-.06l-.25-.008zm.048-.182a.427.427 0 00-.048.182l.25.008c.001-.027.008-.053.02-.076l-.222-.114zm-4.885-6.861a421.433 421.433 0 014.893 6.988l.206-.14a421.515 421.515 0 00-4.895-6.993l-.204.145zm-1.544.774c.579-.252 1.143-.495 1.695-.732l-.098-.23c-.553.237-1.118.48-1.697.732l.1.23zm-.564-.222a.429.429 0 00.564.222l-.1-.23a.178.178 0 01-.234-.092l-.23.1zm.223-.564a.428.428 0 00-.223.564l.23-.1a.179.179 0 01.092-.235l-.1-.23zm1.577-.681c-.514.22-1.04.447-1.577.68l.1.23c.537-.233 1.061-.46 1.576-.68l-.099-.23zm-.541-.498l.489.685.203-.145-.489-.685-.203.145zm.1-.598a.429.429 0 00-.1.598l.203-.145a.179.179 0 01.041-.25l-.145-.203zm.597.1a.429.429 0 00-.598-.1l.146.204a.179.179 0 01.248.041l.204-.145zm.566.794l-.566-.794-.204.145.567.794.203-.145zm3.98-1.787c-1.333.56-2.693 1.13-4.13 1.744l.098.23c1.437-.614 2.796-1.184 4.129-1.744l-.097-.23zm0 0l.096.23-.096-.23zm0 0l.096.23-.095-.23zm0 0l.097.23-.097-.23zm9.657-4.191c-3.513 1.611-6.508 2.869-9.657 4.19l.097.23c3.148-1.32 6.147-2.58 9.664-4.193l-.104-.227zm-.11-.03c0 .073.02.142.052.203l.22-.119a.177.177 0 01-.021-.084h-.25zm.43-.429a.428.428 0 00-.43.429h.25c0-.099.08-.179.18-.179v-.25zm.698.002l-.699-.002v.25c.232 0 .465 0 .698.002l.001-.25zm2.454-1.173c-.87.417-1.702.81-2.507 1.184l.106.227c.805-.374 1.639-.768 2.509-1.186l-.108-.225zm.572.2a.428.428 0 00-.572-.2l.108.225a.178.178 0 01.238.084l.226-.108zm-.201.573a.428.428 0 00.2-.572l-.225.108a.178.178 0 01-.084.238l.109.226zm-1.362.648c.445-.21.898-.426 1.362-.648l-.108-.226c-.464.223-.916.438-1.36.647l.106.227zm18.926.516c-5.06-.286-12.086-.683-18.978-.755l-.002.25c6.885.072 13.905.468 18.965.755l.015-.25zm-.001 0l-.013.25.013-.25zm.395.022l-.394-.022-.014.25.393.022.014-.25zm-1.194-1.324l1.085 1.521.203-.144-1.084-1.522-.204.145zm.1-.597a.429.429 0 00-.1.597l.203-.145a.179.179 0 01.042-.249l-.145-.203zm.597.1a.428.428 0 00-.597-.1l.145.203a.179.179 0 01.249.041l.203-.145zm1.206 1.69c-.386-.542-.787-1.105-1.206-1.69l-.203.144c.419.586.82 1.15 1.205 1.692l.204-.145zm7.78-3.938a1190.202 1190.202 0 00-7.938 3.9l.112.223c2.423-1.207 5.118-2.523 7.935-3.898l-.11-.225zm.001 0h-.002l.11.225.002-.001-.11-.225zm.002-.001h-.002l.11.225h.001l-.11-.225zm0 0l.109.225-.109-.226zm.49-.24l-.49.24.11.224.49-.24-.11-.224zm3.743-1.83c-1.261.618-2.513 1.23-3.743 1.83l.11.225 3.743-1.83-.11-.225zm-1.163.139l1.208.098.02-.25c-.424-.033-.827-.066-1.207-.098l-.02.25zm-.391-.463a.428.428 0 00.391.462l.021-.249a.179.179 0 01-.163-.192l-.25-.021zm.462-.392a.429.429 0 00-.462.392l.249.02a.179.179 0 01.193-.162l.02-.25zm2.227.178c-.805-.062-1.552-.121-2.227-.177l-.02.249c.675.056 1.423.115 2.228.177l.019-.25zm5.133-2.561a839.527 839.527 0 01-5.198 2.573l.11.225a834.383 834.383 0 005.2-2.575l-.112-.224zm.575.191a.429.429 0 00-.575-.192l.112.224a.178.178 0 01.24.08l.223-.112zm20.211 11.306l-.268-.01-.01.25.269.01.01-.25zm-.268-.01a.179.179 0 01-.171-.186l-.25-.01a.428.428 0 00.411.445l.01-.25zm-.171-.186a.179.179 0 01.185-.171l.01-.25a.429.429 0 00-.445.412l.25.01zm.185-.171l.88.034.01-.25-.88-.034-.01.25zm.982-.171c-1.32-1.576-3.13-3.891-4.983-6.322l-.199.152c1.854 2.43 3.666 4.75 4.99 6.33l.192-.16zm-5.075-6.37c-5.94-.35-15.306-.942-21.453-1.41l-.02.249c6.15.468 15.517 1.061 21.459 1.41l.014-.25zM64.62 16.646c-1.573.773-3.136 1.537-4.666 2.284l.11.224c1.53-.747 3.093-1.51 4.667-2.284l-.11-.224zm-4.666 2.284l-.489.239.11.224.489-.239-.11-.224zm-.489.238l.109.226-.108-.226zm0 0l-.001.001.11.225-.11-.225zm-.001.001h-.001l.109.225h.001l-.109-.225zm0 0h-.001l.108.226-.108-.226zm-.002 0l.11.226-.11-.225zm0 .001l-.003.001.11.225.003-.001-.11-.225zm-.003.001c-2.6 1.27-5.096 2.489-7.37 3.617l.112.224c2.273-1.128 4.767-2.346 7.368-3.616l-.11-.225zm-7.32 3.854l.766.042.014-.25a434.44 434.44 0 01-.767-.042l-.014.25zm.766.042c.099.005.174.09.169.188l.25.013a.428.428 0 00-.405-.45l-.014.249zm.169.188a.178.178 0 01-.188.168l-.013.25a.428.428 0 00.45-.405l-.249-.013zm-.188.168a591.34 591.34 0 01-.956-.052l-.013.25.956.052.013-.25zm-1.064.145a341.42 341.42 0 014.612 6.64l.207-.14a341.92 341.92 0 00-4.615-6.645l-.204.145zm4.706 6.695l.626.047.018-.25a595.6 595.6 0 01-.625-.046l-.02.249zm.687.036c1.379-.624 2.833-1.3 4.404-2.055l-.108-.225c-1.57.753-3.022 1.429-4.4 2.053l.104.227zm4.404-2.055a.178.178 0 01.238.084l.226-.108a.429.429 0 00-.572-.201l.108.225zm.238.084a.178.178 0 01-.083.238l.108.226a.428.428 0 00.2-.572l-.225.108zm-.083.238a218.436 218.436 0 01-3.404 1.599l.104.227a218.93 218.93 0 003.408-1.6l-.108-.226zm-3.361 1.837c5.767.42 13.422.905 18.76 1.222l.014-.25c-5.337-.316-12.99-.801-18.756-1.221l-.018.249zm18.89 1.072a.179.179 0 01.059-.171l-.161-.191a.429.429 0 00-.144.411l.245-.049zm.07-.352l-.36-.388-.184.17.36.388.184-.17zm-.361-.389h-.001l-.182.17v.001l.183-.17zm0 0l-1.486-1.6-.183.17 1.485 1.6.183-.17zm-1.486-1.6a.178.178 0 01.01-.253l-.171-.183a.428.428 0 00-.022.605l.183-.17zm.01-.253a.178.178 0 01.251.01l.183-.17a.428.428 0 00-.605-.023l.17.183zm.251.01l1.407 1.515.183-.17-1.406-1.516-.184.17zm1.407 1.515l.01.01.183-.17-.01-.01-.183.17zm.01.01l.021.024.184-.17-.022-.024-.184.17zm.021.024l.025.026.183-.17-.024-.026-.184.17zm.025.026l.005.006.183-.17-.005-.006-.184.17zm.005.006l.018.019.183-.17-.018-.02-.183.17zm.017.017l.185-.167-.185.167zm.001.002l.494.532.183-.17-.494-.532-.183.17zm.636.561c2.492-1.113 8.179-3.69 12.626-5.863l-.11-.225c-4.443 2.171-10.126 4.747-12.618 5.86l.102.228zm13.789-6.038c-4.463 2.216-10.671 5.034-13.455 6.28l.103.228c2.783-1.246 8.995-4.066 13.463-6.284l-.111-.224zm21.748.936c-6.113-.295-15.316-.696-21.688-.948l-.01.25c6.372.251 15.574.653 21.686.947l.012-.25zm6.856 7.27c-1.667-1.731-4.096-4.348-6.77-7.23l-.184.17c2.674 2.881 5.105 5.5 6.774 7.233l.18-.173zm-10.777 5.423c4.152-1.973 7.524-3.576 10.744-5.225l-.114-.223c-3.216 1.648-6.585 3.249-10.737 5.222l.107.226zm.001 0l-.109-.225.109.225zm.001 0l-.112-.224.112.223zm-1.825.867l1.823-.867-.108-.226-1.822.867.107.226zm-.646-.016l.586.028.012-.25-.586-.028-.012.25zm-.313-.285l.227.245.183-.17-.227-.245-.183.17zm-.252-.009a.178.178 0 01.252.01l.183-.17a.429.429 0 00-.606-.023l.171.183zm-.057.133a.173.173 0 01.057-.133l-.171-.183a.423.423 0 00-.136.318l.25-.002zm-21.363-.788c5.738.22 14.672.606 21.232.914l.011-.25c-6.56-.308-15.494-.693-21.233-.914l-.01.25zm-.089.02a.178.178 0 01.09-.02l.009-.25a.428.428 0 00-.214.048l.115.222zm-6.028-6.263c2.425 2.611 4.533 4.867 5.882 6.24l.178-.175c-1.346-1.37-3.45-3.623-5.877-6.235l-.183.17zm2.46-.078c-.661-.035-1.458-.08-2.361-.132l-.014.25c.902.052 1.7.096 2.361.132l.014-.25zm.188-.168a.178.178 0 01-.188.169l-.014.25a.429.429 0 00.451-.406l-.25-.013zm-.169-.188c.098.005.174.09.169.188l.25.013a.429.429 0 00-.406-.45l-.013.25zm-2.991-.169c1.164.068 2.18.125 2.991.17l.013-.25a713.9 713.9 0 01-2.99-.17l-.014.25zm-.24-.206l.155.166.184-.17-.155-.166-.183.17zm36.595 16.985a630.656 630.656 0 01-14.504 7.237l.109.226a633.61 633.61 0 0014.51-7.24l-.115-.223zm-7.013-7.255c2.771 2.986 5.289 5.7 6.98 7.453l.18-.173c-1.689-1.751-4.205-4.463-6.977-7.45l-.183.17zm-1.09-1.174l1.09 1.174.183-.17-1.09-1.174-.183.17zm-21.331-.885c5.897.228 14.937.619 21.417.925l.011-.25c-6.48-.306-15.52-.697-21.418-.925l-.01.25zm.005.166c.079-.08.12-.182.125-.286l-.25-.01a.177.177 0 01-.052.119l.177.177zm-.606 0a.429.429 0 00.606 0l-.177-.177a.178.178 0 01-.253 0l-.177.177zm-6.683-7.079c2.833 3.052 5.288 5.684 6.683 7.079l.176-.177c-1.39-1.39-3.841-4.018-6.676-7.072l-.183.17zm-20.816-1.324c6.23.465 15.227 1.032 20.9 1.364l.014-.25c-5.672-.331-14.667-.899-20.896-1.363l-.018.249zm-.162.09l.222-.1-.102-.229-.223.1.103.228zm.096-.119l-.043-.065-.208.139.043.065.208-.139zm-.118.595a.428.428 0 00.118-.595l-.208.14a.178.178 0 01-.05.247l.14.208zm-.595-.12c.132.198.398.251.595.12l-.14-.208a.178.178 0 01-.247-.05l-.208.139zm-.1-.15l.1.15.208-.138-.1-.15-.208.139zM48.7 34.637c2.588-1.087 5.08-2.133 7.84-3.367l-.102-.229c-2.757 1.233-5.247 2.279-7.834 3.365l.096.23zm0 0l-.097-.23.098.23zm-.002 0l-.093-.231.093.232zm.002 0l-.097-.23.097.23zm0 0l-.097-.23.096.23zm0 0l-.097-.23.097.23zm-5.658 2.401c2.013-.87 3.858-1.645 5.657-2.4l-.096-.231c-1.8.755-3.645 1.53-5.66 2.402l.099.23zm.268.191a.429.429 0 00-.273-.422l-.09.233c.07.027.117.097.113.176l.25.013zm-.451.405a.428.428 0 00.45-.405l-.249-.013a.179.179 0 01-.188.169l-.013.25zm-.062-.003l.062.003.013-.25-.061-.003-.014.25zm7.087 8.705c-1.681-1.961-4.411-5.493-6.98-8.905l-.2.15c2.569 3.412 5.303 6.95 6.99 8.918l.19-.163zm-.047.604c.18-.154.2-.424.047-.604l-.19.163a.179.179 0 01-.02.252l.163.19zm-.604-.046c.154.18.425.2.604.046l-.162-.19a.179.179 0 01-.252-.019l-.19.163zm-7.32-9.355c2.655 3.534 5.552 7.292 7.32 9.355l.19-.163c-1.762-2.055-4.655-5.808-7.31-9.342l-.2.15zm-21.015-.79c8.584.28 15.836.566 21.108.84l.013-.25c-5.274-.273-12.528-.56-21.113-.839l-.008.25zm.793.827a201.09 201.09 0 00-.685-1.021l-.208.14c.234.345.462.685.685 1.02l.208-.139zm-.119.594a.428.428 0 00.119-.594l-.208.139a.178.178 0 01-.05.247l.14.208zm-.594-.118c.131.196.397.25.594.118l-.139-.208a.178.178 0 01-.247-.05l-.208.14zm-.772-1.15c.264.391.521.773.772 1.15l.208-.14c-.251-.376-.508-.759-.773-1.15l-.207.14zM7.73 42.527c3.993-1.676 7.758-3.257 12.634-5.582l-.108-.225c-4.87 2.321-8.63 3.9-12.623 5.577l.097.23zM3.64 44.252c1.42-.606 2.766-1.17 4.088-1.726l-.097-.23c-1.321.555-2.668 1.12-4.089 1.727l.098.23zm5.61 7.756c-1.513-2.23-3.27-4.734-5.557-7.943l-.203.145c2.287 3.208 4.042 5.71 5.553 7.938l.207-.14zm20.12.709c-5.365-.303-12.94-.732-20.223-.764l-.001.25c7.275.032 14.844.46 20.21.763l.014-.25zm.016 0h-.016l-.014.25h.016l.014-.25zm1.148.066l-1.148-.065-.014.25 1.148.064.014-.25zm-.142.15l.034.047.203-.145-.034-.048-.203.145zm.1-.598a.428.428 0 00-.1.597l.203-.145a.179.179 0 01.042-.249l-.145-.203zm.597.1a.429.429 0 00-.597-.1l.145.203a.179.179 0 01.249.042l.203-.146zm.317.443l-.317-.444-.203.146.316.443.204-.145zm-.03-.049l-.065-.003-.014.25.064.003.014-.25zm5.354-2.639c-1.874.915-3.695 1.804-5.417 2.652l.11.224c1.722-.848 3.542-1.736 5.416-2.651l-.11-.225zm.001 0h-.002l.11.225.002-.001-.11-.225zm.002-.002l-.002.001.11.225h.001l-.11-.226zm.003-.001l-.003.002.11.224.003-.002-.11-.224zm.002-.001h-.002l.11.226.001-.001-.109-.225zm-.001 0l.112.224-.112-.224zm.002 0l.109.224-.109-.225zm.49-.24l-.49.24.11.224.49-.24-.11-.224zm10.011-4.93a1204.63 1204.63 0 01-10.011 4.93l.11.225c3.262-1.594 6.676-3.262 10.013-4.931l-.112-.224zm.575.192a.428.428 0 00-.575-.192l.112.224a.178.178 0 01.24.08l.223-.112zm-.191.575a.428.428 0 00.191-.575l-.223.112a.178.178 0 01-.08.24l.112.223zm-10.019 4.933c3.262-1.593 6.678-3.263 10.019-4.933l-.112-.224c-3.34 1.67-6.754 3.34-10.017 4.933l.11.224zm-.489.239l.49-.239-.11-.224-.49.238.11.225zm-.001 0h.001l-.11-.225.109.226zm.014-.008l-.138-.208.138.208zm-.02.011l.006-.002-.11-.225-.005.003.11.224zm-.002.001l-.106-.226.106.226zm-.001 0h.003l-.11-.225-.003.001.11.225zm-.008.005l.008-.004-.11-.225-.007.004.11.225zm-.002 0h.002l-.11-.225.108.226zM32.3 53.313c1.537-.755 3.146-1.54 4.798-2.348l-.11-.224c-1.652.806-3.261 1.592-4.798 2.347l.11.225zm.083.001a.43.43 0 00-.018-.15l-.24.074c.007.02.01.04.009.063l.25.013zm-.45.405a.428.428 0 00.45-.405l-.25-.013a.179.179 0 01-.187.168l-.014.25zm-.184-.01l.183.01.014-.25-.183-.01-.014.25zm5.79 7.948c-1.543-2.29-3.327-4.84-5.681-8.145l-.204.145c2.354 3.304 4.136 5.852 5.677 8.14l.208-.14zm23.116 1.45c-5.485-.31-16.257-.98-23.21-1.505l-.02.25c6.956.524 17.73 1.194 23.216 1.504l.014-.25zm15.887-7.968c-4.18 2.19-10.536 5.37-15.948 7.98l.109.225c5.414-2.611 11.772-5.793 15.955-7.983l-.116-.222zm-.1-.034a.427.427 0 00.046.202l.223-.114a.178.178 0 01-.019-.084l-.25-.004zm-6.894-8.84c2.415 3.22 5.074 6.686 6.923 8.922l.192-.16c-1.844-2.23-4.5-5.692-6.915-8.912l-.2.15zm.086-.6a.428.428 0 00-.086.6l.2-.15a.178.178 0 01.036-.25l-.15-.2zm.6.086a.428.428 0 00-.6-.086l.15.2a.178.178 0 01.25.036l.2-.15zm6.978 8.988c-1.835-2.212-4.526-5.718-6.978-8.988l-.2.15c2.453 3.27 5.147 6.78 6.986 8.997l.192-.16zm.192-.035l-.283-.01-.01.25.283.01.01-.25zm.48-.273l-.543.288.117.22c.186-.098.368-.194.543-.288l-.118-.22zm.579.176a.429.429 0 00-.58-.176l.118.22a.178.178 0 01.241.074l.221-.118zm.042.285a.428.428 0 00-.042-.285l-.22.118c.02.038.025.08.017.119l.245.048zm21.849.812c-6.126-.296-15.511-.706-21.966-.96l-.01.249c6.454.255 15.838.665 21.964.96l.012-.249zM50.26 23.527l.253.015.015-.25-.254-.014-.014.25zm0 0l.013-.25-.012.25zm-20.205-.762c7.266.031 14.83.459 20.205.762l.014-.25c-5.373-.303-12.944-.73-20.218-.762v.25zm-10.49 4.587c3.403-1.429 6.642-2.789 10.543-4.599l-.105-.226c-3.897 1.807-7.132 3.166-10.535 4.595l.096.23zm-3.989 1.684a740.2 740.2 0 013.988-1.684l-.096-.23c-1.29.542-2.606 1.094-3.99 1.684l.098.23zm5.007 6.897a409.755 409.755 0 00-4.954-7.084l-.204.145a410.215 410.215 0 014.952 7.08l.206-.141zm.05-.05l-.149-.005-.008.25.15.005.008-.25zm.256.016a.428.428 0 00-.3-.01l.08.237a.178.178 0 01.125.004l.095-.23zm20.791.814c-5.263-.269-12.412-.549-20.834-.823l-.008.25c8.421.274 15.568.554 20.83.823l.012-.25zm.033-.153a.428.428 0 00-.161.252l.244.053a.178.178 0 01.067-.105l-.15-.2zm.472-.029a.429.429 0 00-.472.029l.15.2a.178.178 0 01.197-.012l.125-.217zm-.082-.021a.428.428 0 00-.043.021l.124.217a.189.189 0 01.018-.009l-.1-.23zm6.28-2.67c-1.978.83-4.016 1.685-6.28 2.67l.1.23c2.262-.985 4.298-1.84 6.276-2.67l-.097-.23zm-.003 0l.101.229-.101-.229zm7.573-3.248c-2.652 1.182-5.063 2.194-7.57 3.248l.096.23c2.508-1.053 4.92-2.066 7.576-3.25l-.102-.228zm-1.902.083c.595.05 1.246.102 1.944.156l.019-.25c-.697-.053-1.348-.105-1.942-.155l-.021.25zm-.392-.462a.429.429 0 00.392.462l.02-.249a.178.178 0 01-.162-.193l-.25-.02zm.463-.392a.429.429 0 00-.462.392l.249.02a.178.178 0 01.192-.163l.021-.249zm1.652.133c-.588-.046-1.14-.09-1.652-.133l-.02.25c.511.042 1.064.086 1.653.132l.02-.249zm-4.727-6.43a366.383 366.383 0 014.614 6.625l.207-.14a366.333 366.333 0 00-4.617-6.629l-.204.145zm-.006.047l.1.006.015-.25-.101-.005-.014.25zm-.078.058l.14-.07-.111-.224-.141.07.112.224zm-.546-.142a.428.428 0 00.546.142l-.112-.224a.178.178 0 01-.227-.059l-.207.141z" fill="#9293AB"/><path d="M41.363 29.316l15.477-6.98h21.548l7.89 7.89v7.89l-15.174 7.588H48.04l-6.676-9.105v-7.283z" fill="#fff" stroke="#000" stroke-width=".25"/><path fill-rule="evenodd" clip-rule="evenodd" d="M71.145 46.158a.304.304 0 00.414.112c2.3-1.314 4.946-2.712 7.855-4.249 2.468-1.304 5.126-2.708 7.922-4.246a.304.304 0 00-.293-.531 527.155 527.155 0 01-7.897 4.232c-2.922 1.544-5.588 2.953-7.888 4.267a.304.304 0 00-.113.415zM41.488 36.96a.303.303 0 01.424.067l.725.997c2.026 2.79 3.467 4.774 5.64 7.49a.304.304 0 01-.474.379c-2.182-2.727-3.631-4.722-5.657-7.511l-.725-.998a.303.303 0 01.067-.424z" fill="#000" stroke="#000" stroke-width=".25" stroke-linecap="round" stroke-linejoin="round"/><path fill-rule="evenodd" clip-rule="evenodd" d="M41.667 25.673c.168 0 .304.136.304.304v11.718a.303.303 0 11-.607 0V25.977c0-.168.136-.304.303-.304zM85.975 26.28c.168 0 .304.137.304.304v11.86a.303.303 0 11-.607 0v-11.86c0-.167.136-.303.303-.303zM47.736 35.385c.168 0 .304.136.304.304V46.42a.304.304 0 01-.607 0V35.689c0-.168.136-.304.303-.304zM71.409 35.385c.167 0 .303.136.303.304 0 .526.01 1.46.024 2.587.037 3.14.092 7.78-.025 9.272a.304.304 0 01-.605-.047c.114-1.462.06-6.024.024-9.163a287.701 287.701 0 01-.025-2.65c0-.167.136-.303.303-.303z" fill="#000" stroke="#000" stroke-width=".25" stroke-linecap="round" stroke-linejoin="round"/><path fill-rule="evenodd" clip-rule="evenodd" d="M74.96 46.31H48.345a.304.304 0 010-.606H74.96a.303.303 0 110 .607zM43.526 31.576c.163.042.26.207.218.37l-1.617 6.278a.304.304 0 01-.588-.151l1.618-6.279a.304.304 0 01.37-.218zm1.843 1.968c.162.042.26.207.218.37l-1.621 6.29a.304.304 0 01-.588-.151L45 33.763a.304.304 0 01.37-.219zm2.105 2.25c.163.041.26.207.219.369l-1.618 6.278a.304.304 0 11-.588-.151l1.618-6.279a.303.303 0 01.37-.218z" fill="#000" stroke="#000" stroke-width=".25" stroke-linecap="round" stroke-linejoin="round"/><path fill-rule="evenodd" clip-rule="evenodd" d="M56.158 36.912c.162.042.26.207.218.37l-2.268 8.8a.304.304 0 01-.588-.15l2.268-8.802a.303.303 0 01.37-.218zm-2.686 0c.163.042.26.207.219.37l-2.268 8.8a.303.303 0 11-.588-.15l2.268-8.802a.303.303 0 01.37-.218zm-2.35 0c.163.042.26.207.22.37l-1.878 7.283a.304.304 0 01-.588-.151l1.877-7.284a.304.304 0 01.37-.218zM64.351 36.913c.162.041.26.207.218.37l-2.268 8.8a.304.304 0 01-.588-.151l2.268-8.801a.304.304 0 01.37-.218zm-2.685 0c.162.041.26.207.218.37l-2.268 8.8a.304.304 0 01-.588-.151l2.268-8.801a.304.304 0 01.37-.218zm-2.816.303c.163.042.26.207.218.37l-2.19 8.497a.304.304 0 01-.587-.151l2.19-8.498a.304.304 0 01.37-.218zM71.92 36.912c.163.042.26.207.219.37l-2.268 8.8a.304.304 0 01-.588-.15l2.268-8.802a.303.303 0 01.37-.218zm-2.685 0c.162.042.26.207.218.37l-2.268 8.8a.303.303 0 01-.588-.15l2.269-8.802a.303.303 0 01.37-.218zm-2.35 0c.163.042.26.207.219.37l-2.268 8.8a.303.303 0 11-.588-.15l2.268-8.802a.304.304 0 01.37-.218zM80.662 32.36c.162.042.26.207.218.37l-2.425 9.407a.304.304 0 01-.587-.151l2.424-9.408a.304.304 0 01.37-.218zm-3.11 1.643c.163.042.26.208.219.37l-2.47 9.585a.304.304 0 01-.588-.151l2.47-9.586a.304.304 0 01.37-.218zm-2.707 1.392c.162.041.26.207.218.37l-2.451 9.51a.304.304 0 11-.588-.151l2.451-9.511a.304.304 0 01.37-.218zM83.725 31.146c.163.042.26.207.219.37l-2.347 9.104a.303.303 0 11-.587-.151l2.346-9.105a.304.304 0 01.37-.218zm2.194.607c.162.042.26.207.218.37l-1.799 6.98a.304.304 0 01-.588-.152l1.8-6.98a.303.303 0 01.369-.218z" fill="#000" stroke="#000" stroke-width=".25" stroke-linecap="round" stroke-linejoin="round"/><path d="M41.363 29.316l15.478-6.98h21.547l7.587 7.587-1.214.607-13.656 6.676H48.04l-5.766-6.98-.91-.91z" fill="#fff" stroke="#000" stroke-width=".25"/><path fill-rule="evenodd" clip-rule="evenodd" d="M39.574 26.96a.303.303 0 01.427.035c1 1.177 1.868 2.208 2.656 3.143 2.609 3.099 4.336 5.15 7.05 8.037a.303.303 0 11-.442.416c-2.726-2.9-4.466-4.966-7.078-8.068-.787-.934-1.653-1.963-2.648-3.136a.303.303 0 01.035-.427z" fill="#000" stroke="#000" stroke-width=".25" stroke-linecap="round" stroke-linejoin="round"/><path fill-rule="evenodd" clip-rule="evenodd" d="M59.851 21.002a.304.304 0 01-.16.399c-8.496 3.641-14.558 6.37-19.094 8.679a.303.303 0 11-.275-.541c4.555-2.32 10.632-5.054 19.13-8.696a.304.304 0 01.4.16zM77.566 21.515a.304.304 0 01.43 0c3.944 3.944 5.762 5.762 9.702 9.4a.303.303 0 11-.411.445c-3.95-3.646-5.775-5.47-9.72-9.416h0a.304.304 0 010-.43z" fill="#000" stroke="#000" stroke-width=".25" stroke-linecap="round" stroke-linejoin="round"/><path fill-rule="evenodd" clip-rule="evenodd" d="M69.619 37.949c.075.15.257.21.407.136 2.428-1.215 10.316-5.159 16.687-8.192a.303.303 0 10-.261-.548c-6.376 3.036-14.269 6.983-16.697 8.197h0a.304.304 0 00-.136.407z" fill="#000" stroke="#000" stroke-width=".25" stroke-linecap="round" stroke-linejoin="round"/><path fill-rule="evenodd" clip-rule="evenodd" d="M46.22 37.207c0-.168.135-.304.303-.304h28.255a.304.304 0 010 .607H46.523a.304.304 0 01-.304-.303zM81.637 22.639H55.02a.304.304 0 010-.607h26.617a.304.304 0 010 .607z" fill="#000" stroke="#000" stroke-width=".25" stroke-linecap="round" stroke-linejoin="round"/><path fill-rule="evenodd" clip-rule="evenodd" d="M59.995 27.51h-2.982l-3.209-3.958 1.99-2.093v-5.27h-1.99l1.99-6.9h2.211l1.99-1.77V3.983l4.864-2.653 2.653 1.783v3.081l1.769-3.081 3.674 1.755.969 4.422-2.211 1.99v3.537h2.21l-.968 6.643-2.864-.786-2.579 2.879.78 3.959-4.319 1.8-3.978-.72v-1.08zm2.308-12.46l2.732-1.82 1.82.91-1.214 3.642-2.124 1.517-1.214-.607v-3.641z" fill="#AEEEB6"/><path fill-rule="evenodd" clip-rule="evenodd" d="M53.54 15.88a.304.304 0 01.384-.194c.33.109.663.177 1.027.246 1.082.207 2.167.387 3.255.568.503.084 1.007.168 1.512.255a.303.303 0 11-.102.598c-.499-.086-1-.169-1.501-.253a144.076 144.076 0 01-3.277-.571 8.694 8.694 0 01-1.104-.266.303.303 0 01-.193-.383zM54.609 9.105a.303.303 0 01.348-.251c.384.062.745.13 1.135.253 1.21.377 2.414.794 3.611 1.21.545.188 1.089.377 1.632.56a.303.303 0 01-.195.575c-.551-.186-1.1-.376-1.647-.566-1.192-.413-2.38-.825-3.582-1.2a7.286 7.286 0 00-1.05-.233.303.303 0 01-.252-.348zM59.379 3.713a.303.303 0 01.383-.194c1.26.415 2.551.735 3.851 1.057.54.134 1.083.268 1.625.41a.304.304 0 01-.153.587c-.526-.137-1.059-.27-1.594-.402-1.31-.324-2.636-.653-3.919-1.075a.303.303 0 01-.193-.383zM63.405 1.003a.304.304 0 01.39-.179c1.273.473 2.555.919 3.84 1.365l.865.301a.304.304 0 01-.2.573l-.862-.3c-1.285-.446-2.575-.895-3.854-1.37a.303.303 0 01-.179-.39zM68.742 3.148a.303.303 0 01.365-.225c1.007.24 2.002.578 2.977.909.376.127.749.254 1.118.373a.303.303 0 01-.186.578c-.388-.126-.772-.256-1.154-.386-.965-.327-1.918-.65-2.895-.883a.303.303 0 01-.225-.366zM71.637 14.822a.303.303 0 01.368-.222l1.195.293c.469.114.938.23 1.405.345a.304.304 0 01-.146.589c-.468-.116-.934-.23-1.401-.344a626.6 626.6 0 01-1.199-.294.303.303 0 01-.222-.367zM69.92 20.665a.304.304 0 01.364-.227c.666.153 1.332.328 1.992.5.304.08.608.16.91.237a.303.303 0 11-.15.588c-.31-.079-.618-.16-.925-.24a68.744 68.744 0 00-1.964-.494.303.303 0 01-.227-.364zM68.106 23.034a.303.303 0 01.348.251c.04.252.066.484.072.75.022.956.008 1.917-.004 2.871-.006.447-.012.892-.015 1.335a.303.303 0 11-.607-.003c.003-.453.009-.904.015-1.354.013-.948.025-1.89.004-2.835a4.704 4.704 0 00-.064-.668.303.303 0 01.251-.347zM63.96 25.434a.304.304 0 01.327.28c.066.843.084 1.704.102 2.554.011.532.023 1.06.046 1.577a.303.303 0 11-.607.027 69.515 69.515 0 01-.047-1.623c-.017-.832-.034-1.656-.1-2.488a.303.303 0 01.28-.326zM62.423 25.366a.304.304 0 01.02.429c-.219.238-.434.488-.654.745l-.052.062c-.202.235-.408.476-.619.712-.459.511-.953 1.012-1.52 1.417a.304.304 0 01-.353-.493c.513-.368.973-.83 1.421-1.33.206-.23.408-.465.61-.702l.052-.06c.22-.257.44-.514.666-.76a.303.303 0 01.429-.02zM60.675 21.067a.304.304 0 01-.017.428 49.54 49.54 0 01-.942.84c-.793.693-1.572 1.375-2.218 2.17a.303.303 0 01-.47-.382c.68-.838 1.52-1.573 2.326-2.28.306-.267.606-.53.892-.794a.304.304 0 01.43.018z" fill="#000" stroke="#000" stroke-width=".25" stroke-linecap="round" stroke-linejoin="round"/><path fill-rule="evenodd" clip-rule="evenodd" d="M59.82 16.166c.164.03.274.188.244.353-.358 1.967-.046 3.94.147 5.156l.037.235a.303.303 0 11-.6.093l-.038-.241c-.192-1.212-.52-3.279-.143-5.352a.304.304 0 01.352-.244zM64.544 8.467a.303.303 0 01-.118.413c-1.712.951-2.362 1.841-2.83 2.636a.304.304 0 01-.523-.308c.514-.873 1.238-1.847 3.058-2.859a.303.303 0 01.413.118z" fill="#000" stroke="#000" stroke-width=".25" stroke-linecap="round" stroke-linejoin="round"/><path fill-rule="evenodd" clip-rule="evenodd" d="M63.99 4.338c.168.004.301.142.297.31l-.016.732a371.789 371.789 0 00-.082 4.563.304.304 0 01-.606-.006c.014-1.525.048-3.049.082-4.57l.016-.732a.304.304 0 01.31-.297zM67.663 2.522c.168 0 .304.136.304.303v4.367a.303.303 0 11-.607 0V2.825c0-.167.136-.303.303-.303z" fill="#000" stroke="#000" stroke-width=".25" stroke-linecap="round" stroke-linejoin="round"/><path fill-rule="evenodd" clip-rule="evenodd" d="M66.87 6.8c0-.167.135-.303.303-.303.444 0 .98.065 1.49.237.507.171 1.01.457 1.353.915a.303.303 0 11-.486.364c-.245-.327-.625-.557-1.062-.704a4.166 4.166 0 00-1.295-.205.304.304 0 01-.303-.303z" fill="#000" stroke="#000" stroke-width=".25" stroke-linecap="round" stroke-linejoin="round"/><path fill-rule="evenodd" clip-rule="evenodd" d="M73.865 3.202a.304.304 0 01-.003.429c-.36.354-.718.71-1.078 1.066-.837.83-1.675 1.66-2.522 2.482a7.617 7.617 0 01-.749.649.304.304 0 01-.364-.486c.247-.185.46-.376.69-.599.845-.819 1.68-1.646 2.516-2.474l1.08-1.07a.304.304 0 01.43.003zM74.942 8.008c.12.118.12.31.003.429-.291.293-.583.582-.874.869a48.894 48.894 0 00-1.854 1.896 1.176 1.176 0 00-.203.333.304.304 0 01-.555-.245c.074-.17.164-.337.309-.496.605-.666 1.252-1.304 1.89-1.934.288-.285.575-.567.855-.85.118-.12.31-.12.43-.002z" fill="#000" stroke="#000" stroke-width=".25" stroke-linecap="round" stroke-linejoin="round"/><path fill-rule="evenodd" clip-rule="evenodd" d="M72.275 3.934a.304.304 0 01.413.118c.253.453.365.904.48 1.362l.018.075c.1.398.188.79.275 1.179.148.661.293 1.311.49 1.957a.318.318 0 00.044.096.304.304 0 01-.196.574c-.275-.091-.383-.342-.429-.493-.202-.664-.358-1.358-.51-2.039-.086-.383-.17-.761-.262-1.127-.005-.017-.01-.035-.013-.052-.12-.476-.214-.855-.427-1.237a.303.303 0 01.117-.413zM71.67 10.673a.303.303 0 01.362.23c.396 1.783.533 3.091-.01 4.586a.303.303 0 11-.571-.208c.483-1.328.378-2.495-.011-4.246a.304.304 0 01.23-.362zM73.7 14.938a.304.304 0 01.347.253c.182 1.167-.04 2.505-.368 3.725-.295 1.095-.683 2.124-.971 2.887a98.4 98.4 0 00-.1.262.304.304 0 01-.568-.213l.1-.264c.289-.765.666-1.766.952-2.83.322-1.195.517-2.433.355-3.474a.304.304 0 01.254-.346zM70.373 19.763c.156.06.234.236.174.392-.34.884-.66 1.558-1.088 2.166-.43.608-.959 1.136-1.702 1.739a.304.304 0 01-.382-.472c.718-.582 1.202-1.07 1.588-1.617.387-.549.686-1.17 1.018-2.034a.303.303 0 01.392-.174zM69.197 27.168a.303.303 0 01-.159.399c-.832.357-1.456.616-1.981.835-.995.414-1.638.682-2.674 1.182a2.94 2.94 0 01-.889.28.304.304 0 01-.1-.599c.28-.047.457-.098.725-.227 1.05-.508 1.714-.784 2.72-1.203.526-.219 1.144-.476 1.96-.826a.303.303 0 01.398.16z" fill="#000" stroke="#000" stroke-width=".25" stroke-linecap="round" stroke-linejoin="round"/><path fill-rule="evenodd" clip-rule="evenodd" d="M60.151 28.69a.303.303 0 01.34-.26c.678.089 1.345.246 1.995.398l.216.05c.724.17 1.43.325 2.142.384a.303.303 0 01-.05.605c-.762-.064-1.506-.229-2.23-.397a141.09 141.09 0 01-.214-.05c-.655-.154-1.293-.304-1.938-.389a.303.303 0 01-.26-.34z" fill="#000" stroke="#000" stroke-width=".25" stroke-linecap="round" stroke-linejoin="round"/><path fill-rule="evenodd" clip-rule="evenodd" d="M60.261 26.91a.303.303 0 01.343.257c.028.195.055.387.08.58.053.379.105.755.165 1.132a.304.304 0 11-.6.096 52.979 52.979 0 01-.167-1.156l-.078-.566a.304.304 0 01.257-.343zM59.57 9.954c.127.109.142.3.033.428-.541.631-1.018 1.8-1.334 3.088-.314 1.28-.454 2.617-.36 3.553a.303.303 0 11-.605.06c-.102-1.027.052-2.438.376-3.757.322-1.313.826-2.597 1.462-3.34.11-.126.3-.141.428-.032zM56.378 8.937c.147.08.201.265.12.412-1.16 2.13-1.978 4.606-1.925 6.961a.303.303 0 01-.606.014c-.057-2.496.806-5.078 1.999-7.266a.304.304 0 01.412-.121zM60.13 7.961a.303.303 0 01-.006.43c-.159.153-.318.309-.477.465-.519.508-1.045 1.023-1.595 1.507a.303.303 0 11-.4-.456 40.728 40.728 0 001.562-1.477l.487-.475a.303.303 0 01.43.006z" fill="#000" stroke="#000" stroke-width=".25" stroke-linecap="round" stroke-linejoin="round"/><path fill-rule="evenodd" clip-rule="evenodd" d="M60.01 3.65c.168 0 .304.137.304.304 0 .75-.029 1.505-.057 2.252-.013.344-.026.687-.036 1.028v.024c-.006.193-.008.267.028.378a.304.304 0 01-.576.192c-.072-.216-.066-.394-.06-.566l.002-.046c.01-.351.023-.7.036-1.047.028-.741.056-1.476.056-2.215 0-.167.136-.303.303-.303z" fill="#000" stroke="#000" stroke-width=".25" stroke-linecap="round" stroke-linejoin="round"/><path fill-rule="evenodd" clip-rule="evenodd" d="M59.082 7.889a.304.304 0 01.379-.202c.788.24 1.492.413 2.173.58l.119.029c.716.176 1.41.35 2.135.59a.304.304 0 01-.192.576 26.186 26.186 0 00-2.088-.577l-.121-.03c-.68-.166-1.399-.342-2.203-.587a.304.304 0 01-.202-.38zM69.988 2.375c.14.092.18.28.088.42-.254.391-.51.78-.764 1.169-.484.737-.966 1.473-1.442 2.215a.303.303 0 11-.51-.328c.476-.744.962-1.485 1.447-2.224l.761-1.163c.092-.14.28-.18.42-.089zM65.04 1.069a.303.303 0 01-.132.408c-.606.31-1.217.611-1.826.911-1.255.618-2.504 1.234-3.704 1.927a.304.304 0 01-.304-.525c1.217-.704 2.498-1.335 3.764-1.958.604-.298 1.205-.594 1.794-.895a.303.303 0 01.408.132zM69.639 1.783a.304.304 0 01-.1.417c-.86.53-1.744 1.017-2.622 1.501l-.562.31c-.236.131-.475.268-.717.406-.7.401-1.423.815-2.171 1.14a.303.303 0 11-.242-.558c.715-.31 1.395-.699 2.087-1.094a62.846 62.846 0 011.317-.738c.876-.483 1.746-.963 2.593-1.484a.303.303 0 01.417.1zM56.527 16.603c.168 0 .304.136.304.303 0 .651.048 1.302.097 1.966v.006c.05.658.099 1.328.099 2.002a.303.303 0 11-.607 0c0-.65-.048-1.3-.097-1.963v-.005c-.05-.659-.1-1.33-.1-2.005 0-.168.136-.304.304-.304z" fill="#000" stroke="#000" stroke-width=".25" stroke-linecap="round" stroke-linejoin="round"/><path fill-rule="evenodd" clip-rule="evenodd" d="M55.979 20.72a.303.303 0 01.368-.22c.907.226 1.735.412 2.744.64.507.114 1.06.238 1.693.383a.303.303 0 11-.136.592c-.625-.144-1.176-.267-1.682-.381-1.014-.229-1.852-.417-2.766-.646a.303.303 0 01-.221-.368z" fill="#000" stroke="#000" stroke-width=".25" stroke-linecap="round" stroke-linejoin="round"/><path fill-rule="evenodd" clip-rule="evenodd" d="M57.079 20.414a.303.303 0 01.011.43 294.55 294.55 0 01-2.283 2.39c-.252.267-.526.558-.853.788a.303.303 0 01-.35-.495c.272-.193.494-.428.742-.69l.202-.211c.705-.729 1.403-1.464 2.102-2.2a.303.303 0 01.429-.012z" fill="#000" stroke="#000" stroke-width=".25" stroke-linecap="round" stroke-linejoin="round"/><path fill-rule="evenodd" clip-rule="evenodd" d="M53.283 23.63a.304.304 0 01.346-.254c.795.12 1.474.255 2.206.402l.06.012c.715.143 1.487.298 2.479.463a.303.303 0 11-.1.6 72.38 72.38 0 01-2.496-.467l-.063-.013a44.337 44.337 0 00-2.177-.397.304.304 0 01-.255-.345zM61.53 25.27a.304.304 0 01.37-.22c1.02.26 2.055.33 3.13.384a.303.303 0 11-.031.607c-1.074-.055-2.164-.127-3.249-.402a.303.303 0 01-.22-.369z" fill="#000" stroke="#000" stroke-width=".25" stroke-linecap="round" stroke-linejoin="round"/><path fill-rule="evenodd" clip-rule="evenodd" d="M57.133 23.922a.303.303 0 01.424.067c.552.758 1.06 1.555 1.561 2.342.231.362.461.723.693 1.077.06.09.11.172.16.253.067.108.132.213.212.328.128.187.258.341.402.45a.303.303 0 11-.364.485 2.492 2.492 0 01-.538-.59 10.188 10.188 0 01-.245-.38c-.049-.08-.095-.154-.134-.213-.242-.37-.477-.738-.71-1.104-.496-.779-.986-1.548-1.528-2.291a.303.303 0 01.067-.424zM53.484 23.495a.303.303 0 01.428.033c.9 1.05 1.807 2.177 2.616 3.18.252.313.495.615.725.898a.304.304 0 01-.471.383c-.233-.287-.477-.59-.731-.906a136.361 136.361 0 00-2.6-3.16.304.304 0 01.033-.428z" fill="#000" stroke="#000" stroke-width=".25" stroke-linecap="round" stroke-linejoin="round"/><path fill-rule="evenodd" clip-rule="evenodd" d="M55.93 27.497a.303.303 0 01.309-.297c.707.013 1.392.193 2.04.371l.135.038c.609.168 1.185.328 1.769.377a.304.304 0 11-.05.605c-.644-.054-1.273-.229-1.87-.394a49.07 49.07 0 00-.146-.04c-.652-.18-1.268-.338-1.89-.35a.303.303 0 01-.298-.31zM61.674 18.205a.303.303 0 01.423-.076l.75.52c1.364.943 2.379 1.645 3.392 2.489a.303.303 0 11-.389.466c-.99-.825-1.98-1.51-3.344-2.453l-.755-.523a.304.304 0 01-.077-.423z" fill="#000" stroke="#000" stroke-width=".25" stroke-linecap="round" stroke-linejoin="round"/><path fill-rule="evenodd" clip-rule="evenodd" d="M62.938 13.612a.304.304 0 01.268.335c-.077.694-.155 1.52-.233 2.35-.119 1.256-.238 2.521-.357 3.35a.304.304 0 11-.6-.085c.116-.82.233-2.051.35-3.291.078-.834.157-1.672.237-2.391a.304.304 0 01.335-.268z" fill="#000" stroke="#000" stroke-width=".25" stroke-linecap="round" stroke-linejoin="round"/><path fill-rule="evenodd" clip-rule="evenodd" d="M66.677 11.765a.304.304 0 01-.053.426 71.97 71.97 0 01-1.839 1.33l-.337.24c-.891.633-1.764 1.258-2.135 1.564a.303.303 0 11-.386-.468c.392-.324 1.288-.965 2.169-1.591l.337-.24c.769-.546 1.482-1.053 1.818-1.314a.304.304 0 01.426.053z" fill="#000" stroke="#000" stroke-width=".25" stroke-linecap="round" stroke-linejoin="round"/><path fill-rule="evenodd" clip-rule="evenodd" d="M64.904 11.692a.304.304 0 01.419-.096c.875.55 1.822.986 2.782 1.427.392.18.787.362 1.18.553.11.053.23.104.36.16l.214.092c.207.09.43.196.622.324a.303.303 0 01-.337.505 3.552 3.552 0 00-.53-.273l-.189-.082c-.139-.06-.282-.12-.406-.18-.367-.179-.747-.353-1.13-.53-.975-.448-1.978-.91-2.889-1.482a.303.303 0 01-.096-.418zM69.25 18.47a.304.304 0 01-.11.416c-.193.112-.592.354-1.076.647-1.121.678-2.702 1.635-3.257 1.913a.303.303 0 01-.272-.543c.533-.267 2.043-1.18 3.157-1.855a100.8 100.8 0 011.144-.687.303.303 0 01.415.11z" fill="#000" stroke="#000" stroke-width=".25" stroke-linecap="round" stroke-linejoin="round"/><path fill-rule="evenodd" clip-rule="evenodd" d="M69.447 13.422a.303.303 0 01.23.362c-.194.874-.34 1.75-.487 2.634v.004c-.148.88-.296 1.77-.494 2.661a.303.303 0 01-.593-.132c.195-.873.34-1.749.488-2.633v-.004c.147-.88.296-1.77.494-2.661a.304.304 0 01.362-.23zM66.843 13.322a.303.303 0 01.234.36l-.095.454a97.62 97.62 0 01-.363 1.688l-.155.67c-.098.42-.195.838-.286 1.26l-.01.045a1.2 1.2 0 00-.012.06.285.285 0 00-.004.053.304.304 0 01-.607 0c0-.107.015-.174.032-.252l.007-.034c.092-.426.191-.853.29-1.277l.153-.66c.126-.556.243-1.114.36-1.675l.097-.457a.303.303 0 01.36-.235z" fill="#000" stroke="#000" stroke-width=".25" stroke-linecap="round" stroke-linejoin="round"/><path fill-rule="evenodd" clip-rule="evenodd" d="M66.334 17.813a.304.304 0 01-.118.413 15.42 15.42 0 01-1.133.55l-.345.157-.35.165c-.382.18-.776.367-1.18.52a.303.303 0 11-.215-.568c.379-.144.744-.316 1.12-.494a53.519 53.519 0 01.737-.34c.37-.168.727-.33 1.072-.521a.304.304 0 01.412.118zM64.792 12.993a.303.303 0 01.407-.136h.002c.78.391 1.165.583 2.134.971a.304.304 0 01-.225.564c-.993-.397-1.394-.598-2.182-.992a.304.304 0 01-.136-.407z" fill="#000" stroke="#000" stroke-width=".25" stroke-linecap="round" stroke-linejoin="round"/><path fill-rule="evenodd" clip-rule="evenodd" d="M70.468 13.886a.303.303 0 01-.275.33 46.402 46.402 0 01-3.756.173.304.304 0 010-.607c1.168 0 2.681-.078 3.701-.17a.304.304 0 01.33.274zM65.111 17.718a.304.304 0 01.366-.225l.666.16c.522.127 1.041.252 1.564.368l.273.061c.487.11.954.215 1.43.263a.303.303 0 11-.06.604c-.516-.052-1.025-.167-1.511-.277l-.263-.059c-.53-.117-1.057-.244-1.582-.371l-.658-.158a.303.303 0 01-.225-.366zM69.19 16.529a.303.303 0 01-.361.233c-.907-.195-1.808-.39-2.708-.59a.303.303 0 01.13-.592c.9.198 1.8.393 2.705.588a.304.304 0 01.233.36zm-1.329-3.757a.304.304 0 01-.165.397c-.65.268-1.204.482-1.62.637a.304.304 0 01-.212-.57c.41-.151.958-.363 1.601-.628a.303.303 0 01.396.164zM67.014 20.054a.303.303 0 01-.402.15l-2.602-1.183a.303.303 0 11.25-.552l2.603 1.183c.153.07.22.25.15.402zM64.187 27.455a.303.303 0 01-.348.251l-2.829-.459a.304.304 0 01.098-.599l2.828.46a.304.304 0 01.25.347zm-5.561-1.152a.304.304 0 01-.34.262l-2.943-.377a.304.304 0 01.077-.602l2.943.377a.303.303 0 01.263.34zM71.733 6.017a.303.303 0 01-.37.217 26.635 26.635 0 01-1.703-.51 27.02 27.02 0 00-1.163-.358.303.303 0 01.162-.585 27.655 27.655 0 011.356.42c.452.146.928.297 1.5.446.163.042.26.208.218.37zM58.964 22.908a.303.303 0 01-.36.235 81.761 81.761 0 01-1.566-.346l-.105-.024c-.457-.105-.909-.208-1.405-.314a.304.304 0 01.126-.593 92.124 92.124 0 011.52.339c.492.112.99.226 1.555.344.164.034.27.195.235.359zm.706-3.737a.304.304 0 01-.36.233l-2.552-.552a.304.304 0 01.129-.593l2.55.551a.303.303 0 01.233.361zM58.152 14.432a.303.303 0 01-.36.235l-3.583-.751a.303.303 0 11.125-.594l3.583.75c.164.035.27.196.235.36zm.337-2.153a.304.304 0 01-.361.232l-2.944-.646a.303.303 0 11.13-.593l2.944.646a.304.304 0 01.231.361zM64.117 7.017a.303.303 0 01-.359.236l-4.127-.857a.303.303 0 11.123-.594l4.128.856c.164.034.27.195.235.36zm-2.09 3.29a.303.303 0 01-.39.177L58.901 9.46a.304.304 0 01.213-.568l2.734 1.025a.304.304 0 01.178.39zM66.477 3.95a.303.303 0 01-.375.208 87.09 87.09 0 01-1.507-.443l-2.522-.743a.304.304 0 01.16-.585c.714.178 1.155.316 1.766.507.233.073.492.154.8.248l1.472.433c.16.047.253.215.206.376z" fill="#000" stroke="#000" stroke-width=".25" stroke-linecap="round" stroke-linejoin="round"/></svg>