<?xml version="1.0" encoding="UTF-8"?>
<svg width="14px" height="14px" viewBox="0 0 14 14" version="1.1" xmlns="http://www.w3.org/2000/svg" xmlns:xlink="http://www.w3.org/1999/xlink">
    <!-- Generator: Sketch 59 (86127) - https://sketch.com -->
    <title>HDL/Icon/Standard/Deployment/timeout</title>
    <desc>Created with Sketch.</desc>
    <g id="Colors" stroke="none" stroke-width="1" fill="none" fill-rule="evenodd">
        <g id="Deployment-Icons" transform="translate(-121.000000, -500.000000)">
            <g id="Timeout" transform="translate(100.000000, 482.000000)">
                <g id="HDL/Icon/Standard/Deployment/timeout" transform="translate(21.000000, 18.000000)">
                    <g id="Timeout">
                        <rect id="Rectangle" fill="#627386" x="0" y="0" width="14" height="14" rx="4"></rect>
                        <path d="M7,1.8 C9.872,1.8 12.2,4.128 12.2,7 C12.2,9.872 9.872,12.2 7,12.2 C4.128,12.2 1.8,9.872 1.8,7 C1.8,4.128 4.128,1.8 7,1.8" id="Fill-3" fill="#FFFFFF"></path>
                        <path d="M13.1,4.2 C12.6,3.7 12.3,3.2 12,2.6 C11.1,2.3 10.4,1.8 9.8,1.2 C9.5,1.3 9.2,1.3 8.8,1.3 C7.9,1.2 7,1 6.3,0.6 L6.3,7.7 L12.9,7.7 C13,7.3 13.1,6.9 13.3,6.5 L13.3,5.5 C13.2,5.1 13.1,4.7 13.1,4.2" id="Fill-7" fill="#627386"></path>
                    </g>
                </g>
            </g>
        </g>
    </g>
</svg>