<?xml version="1.0" encoding="utf-8"?>
<!-- Generator: Adobe Illustrator 20.1.0, SVG Export Plug-In . SVG Version: 6.00 Build 0)  -->
<svg version="1.1" id="Layer_1" xmlns="http://www.w3.org/2000/svg" xmlns:xlink="http://www.w3.org/1999/xlink" x="0px" y="0px"
	 viewBox="0 0 14 14" style="enable-background:new 0 0 14 14;" xml:space="preserve">
<style type="text/css">
	.st0{fill:#627386;}
	.st1{fill:#FFFFFF;}
</style>
<title>HDL/Icon/Standard/Deployment/Legacy/timeout</title>
<desc>Created with Sketch.</desc>
<g id="Colors">
	<g id="Deployment-Icons" transform="translate(-101.000000, -1014.000000)">
		<g id="Legacy-icons---HDL-Colors" transform="translate(101.000000, 732.000000)">
			<g id="HDL_x2F_Icon_x2F_Standard_x2F_Deployment_x2F_Legacy_x2F_timeout" transform="translate(0.000000, 282.000000)">
				<g id="Timedout">
					<g id="Ellipse_524_copy">
						<circle id="accent_2_" class="st0" cx="7" cy="7" r="7"/>
					</g>
					<g id="Ellipse_1552" transform="translate(1.000000, 1.000000)">
						<circle id="Oval" class="st1" cx="6" cy="6" r="5.2"/>
					</g>
					<path id="Path" class="st0" d="M13.1,4.2c-0.5-0.5-0.8-1-1.1-1.6c-0.9-0.3-1.6-0.8-2.2-1.4c-0.3,0.1-0.6,0.1-1,0.1
						C7.9,1.2,7,1,6.3,0.6v7.1h6.6c0.1-0.4,0.2-0.8,0.4-1.2c0-0.3,0-0.7,0-1C13.2,5.1,13.1,4.7,13.1,4.2z"/>
				</g>
			</g>
		</g>
	</g>
</g>
</svg>
