<?xml version="1.0" encoding="UTF-8"?>
<svg width="14px" height="14px" viewBox="0 0 14 14" version="1.1" xmlns="http://www.w3.org/2000/svg" xmlns:xlink="http://www.w3.org/1999/xlink">
    <!-- Generator: Sketch 59 (86127) - https://sketch.com -->
    <title>HDL/Icon/Standard/Deployment/queued</title>
    <desc>Created with Sketch.</desc>
    <g id="Colors" stroke="none" stroke-width="1" fill="none" fill-rule="evenodd">
        <g id="Deployment-Icons" transform="translate(-121.000000, -547.000000)">
            <g id="Queued" transform="translate(100.000000, 529.000000)">
                <g id="HDL/Icon/Standard/Deployment/queued" transform="translate(21.000000, 18.000000)">
                    <g id="Queued">
                        <rect id="Rectangle" fill="#B8BFCA" x="0" y="0" width="14" height="14" rx="4"></rect>
                        <path d="M6.9,8 L7.5,7.2 L8.5,8.2 C8.7,7.8 8.8,7.4 8.8,7 C8.8,5.9 8,4.8 6.9,4.8 C5.9,4.8 5.1,5.8 5.1,7 C5.1,8.2 5.9,9.2 7,9.2 C7.3,9.2 7.7,9.1 8,8.9 L6.9,8 Z M10,9.4 L9.4,10.2 L8.7,9.6 C8.2,9.9 7.7,10.1 6.9,10.1 C5.1,10.1 3.9,8.7 3.9,6.9 C3.9,5.2 5.1,3.8 6.9,3.8 C8.7,3.8 10,5.2 10,7 C10,7.7 9.8,8.3 9.4,8.8 L10,9.4 Z" id="Fill-5" fill="#FFFFFF"></path>
                    </g>
                </g>
            </g>
        </g>
    </g>
</svg>