<svg xmlns="http://www.w3.org/2000/svg" xmlns:v="https://vecta.io/nano" viewBox="0 0 18 18" fill="none" width="18" height="18"><g opacity=".3"><mask id="A" fill="#fff"><path fill-rule="evenodd" d="M6.75 6.625a.5.5 0 1 0 0 1h4.5a.5.5 0 1 0 0-1h-4.5zm-.5 2.75a.5.5 0 0 1 .5-.5h4.5a.5.5 0 1 1 0 1h-4.5a.5.5 0 0 1-.5-.5zm0 2.25a.5.5 0 0 1 .5-.5h4.5a.5.5 0 1 1 0 1h-4.5a.5.5 0 0 1-.5-.5z"/></mask><path d="M7.25 7.125a.5.5 0 0 1-.5.5v-2a1.5 1.5 0 0 0-1.5 1.5h2zm-.5-.5a.5.5 0 0 1 .5.5h-2a1.5 1.5 0 0 0 1.5 1.5v-2zm4.5 0h-4.5v2h4.5v-2zm-.5.5a.5.5 0 0 1 .5-.5v2a1.5 1.5 0 0 0 1.5-1.5h-2zm.5.5a.5.5 0 0 1-.5-.5h2a1.5 1.5 0 0 0-1.5-1.5v2zm-4.5 0h4.5v-2h-4.5v2zm0 .25a1.5 1.5 0 0 0-1.5 1.5h2a.5.5 0 0 1-.5.5v-2zm4.5 0h-4.5v2h4.5v-2zm1.5 1.5a1.5 1.5 0 0 0-1.5-1.5v2a.5.5 0 0 1-.5-.5h2zm-1.5 1.5a1.5 1.5 0 0 0 1.5-1.5h-2a.5.5 0 0 1 .5-.5v2zm-4.5 0h4.5v-2h-4.5v2zm-1.5-1.5a1.5 1.5 0 0 0 1.5 1.5v-2a.5.5 0 0 1 .5.5h-2zm1.5.75a1.5 1.5 0 0 0-1.5 1.5h2a.5.5 0 0 1-.5.5v-2zm4.5 0h-4.5v2h4.5v-2zm1.5 1.5a1.5 1.5 0 0 0-1.5-1.5v2a.5.5 0 0 1-.5-.5h2zm-1.5 1.5a1.5 1.5 0 0 0 1.5-1.5h-2a.5.5 0 0 1 .5-.5v2zm-4.5 0h4.5v-2h-4.5v2zm-1.5-1.5a1.5 1.5 0 0 0 1.5 1.5v-2a.5.5 0 0 1 .5.5h-2z" fill="#6b6d85" mask="url(#A)"/></g><rect x="3.75" y="2.25" width="10.5" height="13.5" rx="1" stroke="#6b6d85"/></svg>