<svg width="32" height="32" viewBox="0 0 32 32" fill="none" xmlns="http://www.w3.org/2000/svg">
<g clip-path="url(#clip0_896_46028)">
<path d="M31.3395 12.8121C30.6189 12.3122 28.9676 12.1247 27.6765 12.3747C27.5264 11.1247 26.8358 10.031 25.6349 9.0623L24.9443 8.56232L24.4639 9.28104C23.8634 10.2185 23.5632 11.5309 23.6533 12.7809C23.6833 13.2184 23.8334 13.9996 24.2838 14.6871C23.8634 14.9371 22.9927 15.2495 21.8518 15.2495H0.144346L0.0842979 15.4995C-0.125871 16.7495 -0.125871 20.6556 2.33611 23.6555C4.19761 25.9366 6.95983 27.0928 10.5928 27.0928C18.4591 27.0928 24.2838 23.3117 27.016 16.4683C28.0969 16.4995 30.4087 16.4683 31.5797 14.1246C31.6097 14.0621 31.6697 13.9371 31.8799 13.4684L32 13.2184L31.3395 12.8121ZM17.4983 4H14.1957V7.12487H17.4983V4ZM17.4983 7.74985H14.1957V10.8747H17.4983V7.74985ZM13.5952 7.74985H10.2925V10.8747H13.5952V7.74985ZM9.69203 7.74985H6.38938V10.8747H9.69203V7.74985ZM5.78889 11.4997H2.48623V14.6246H5.78889V11.4997ZM9.69203 11.4997H6.38938V14.6246H9.69203V11.4997ZM13.5952 11.4997H10.2925V14.6246H13.5952V11.4997ZM17.4983 11.4997H14.1957V14.6246H17.4983V11.4997ZM21.4015 11.4997H18.0988V14.6246H21.4015V11.4997Z" fill="#FAFCFF"/>
</g>
<defs>
<clipPath id="clip0_896_46028">
<rect width="32" height="23.125" fill="white" transform="translate(0 4)"/>
</clipPath>
</defs>
</svg>
