<svg xmlns="http://www.w3.org/2000/svg" viewBox="0 0 24 24"><path fill-rule="evenodd" clip-rule="evenodd" d="M16.207 4.485a.5.5 0 0 1 .354-.146 3.5 3.5 0 0 1 3.5 3.5.5.5 0 0 1-.147.353l-11 11a.5.5 0 0 1-.353.147h-3a.5.5 0 0 1-.5-.5v-3a.5.5 0 0 1 .146-.354l11-11Zm.553.862L6.06 16.046v2.293h2.294l10.699-10.7a2.5 2.5 0 0 0-2.293-2.292Z" fill="currentColor"/><path opacity=".3" fill-rule="evenodd" clip-rule="evenodd" d="M16.89 6.646a.5.5 0 0 1 0 .708l-3.536 3.535a.5.5 0 0 1-.708-.707l3.536-3.536a.5.5 0 0 1 .707 0Z" fill="currentColor"/></svg>