<svg viewBox="0 0 134 151" xmlns="http://www.w3.org/2000/svg"><defs><linearGradient x1="50%" y1="0%" x2="50%" y2="98.383%" id="a"><stop stop-color="#3D4EDC" offset="0%"/><stop stop-color="#4166DB" offset="100%"/></linearGradient><linearGradient x1="23.941%" y1="3.647%" x2="61.624%" y2="73.406%" id="b"><stop stop-color="#1A8AFF" offset="0%"/><stop stop-color="#2577FE" offset="100%"/></linearGradient><linearGradient x1="50%" y1="0%" x2="50%" y2="100%" id="c"><stop stop-color="#3D4CDC" offset="0%"/><stop stop-color="#4470DD" offset="100%"/></linearGradient></defs><g fill="none" fill-rule="evenodd"><path d="M61.75.554v33.289L30.146 52.09a3 3 0 00-1.494 2.399l-.006.2v40.535a3 3 0 001.33 2.493l.17.105L65.25 118.09a3 3 0 002.812.1l.188-.1 31.557-18.22 27.462 15.856-57.02 32.921a8 8 0 01-8 0L4 115.016a8 8 0 01-4-6.928V40.825a8 8 0 014-6.928L61.75.554zm8.5-.288l58.252 33.631a8 8 0 014 6.928v67.263c0 .458-.04.91-.115 1.353l-27.531-15.894V54.688a3 3 0 00-1.33-2.492l-.17-.106L69.75 32.688V0c.17.082.337.17.5.266z" fill="url(#a)" transform="translate(.25 .044)"/><path d="M61.75.555v33.288L30.146 52.09a3 3 0 00-1.494 2.399l-.006.2v40.535a3 3 0 001.33 2.493l.17.105L65.25 118.09a3 3 0 002.812.1l.188-.1 32.542-18.789 26.981 16.134-57.523 33.212a8 8 0 01-8 0L4 115.016a8 8 0 01-4-6.928V40.825a8 8 0 014-6.928L61.75.555z" fill="url(#b)" transform="translate(.25 .044)"/><path d="M78.025 51.94l7.242.243-19.642 19.64 20.4 20.401-8.49 1.49L59.75 77.05v17.907h-6v-43h6v17.389L78.025 51.94z" fill="url(#c)" transform="translate(.25 .044)"/></g></svg>