<svg xmlns="http://www.w3.org/2000/svg" fill="none" viewBox="0 0 32 23"><defs/><path fill="currentColor" d="M2.46154 0c-.32672 0-.63832.0649026-.92308.179487L15.141 12.7564c.5837.5396 1.1073.54 1.6923 0L30.4615.179487C30.1768.0649026 29.8652 0 29.5385 0H2.46154zM.025641 2.12821C.0112451 2.23631 0 2.34937 0 2.46154V19.6923c0 1.3637 1.09786 2.4615 2.46154 2.4615H29.5385c1.3636 0 2.4615-1.0978 2.4615-2.4615V2.46154c0-.11217-.0112-.22523-.0256-.33333L18.5128 14.5641c-1.4117 1.3031-3.6397 1.3052-5.0513 0L.025641 2.12821z"/></svg>