<svg viewBox="0 0 16 16" fill="none" xmlns="http://www.w3.org/2000/svg"><path d="M7.423 1.631a.667.667 0 0 1 1.154 0l6.543 11.333a.667.667 0 0 1-.577 1H1.457a.667.667 0 0 1-.577-1L7.423 1.631z" fill="#fff"/><path fill-rule="evenodd" clip-rule="evenodd" d="M7.57 2.253a.5.5 0 0 1 .869 0l5.993 10.5a.5.5 0 0 1-.434.747H2.011a.5.5 0 0 1-.434-.748L7.57 2.253zm.407 8.242c.422 0 .763.333.763.744a.754.754 0 0 1-.763.745.754.754 0 0 1-.763-.745c0-.411.341-.745.763-.745zm.5-1.498a.5.5 0 1 1-1 0V5.498a.5.5 0 1 1 1 0v3.499z" fill="currentColor"/></svg>