<svg viewBox="0 0 28 28" xmlns="http://www.w3.org/2000/svg"><path fill-rule="evenodd" clip-rule="evenodd" d="M14.854 1a1 1 0 10-2 0v1.037c-5.86.455-10.54 5.113-11.025 10.96H1a1 1 0 100 2h.827c.484 5.888 5.225 10.572 11.143 10.975V27a1 1 0 102 0v-1.056C20.726 25.387 25.293 20.773 25.77 15h1.227a1 1 0 100-2H25.77c-.48-5.812-5.106-10.45-10.916-10.954V1zm-9.85 13.996H3.839c.474 4.784 4.321 8.577 9.133 8.97V23a1 1 0 112 0v.932c4.648-.541 8.324-4.265 8.788-8.932h-.766a1 1 0 110-2h.766c-.468-4.707-4.202-8.453-8.905-8.945V5a1 1 0 11-2 0v-.956c-4.754.445-8.542 4.211-9.015 8.952h1.166a1 1 0 110 2zM11.798 14a2.001 2.001 0 114.006.002A2.001 2.001 0 0111.797 14zm2.002-4a4.002 4.002 0 00-4.004 4c0 2.21 1.793 4 4.004 4a4.002 4.002 0 004.004-4c0-2.21-1.793-4-4.004-4z" fill="#4F5162"/></svg>