<svg viewBox="0 0 17 17" xmlns="http://www.w3.org/2000/svg"><circle cx="8.5" cy="8.5" r="8.5" color="var(--white)"/><circle cx="8.5" cy="8.5" r="7.5"/><path d="M9.694 13.407c-.1.025-.2.047-.3.065a.482.482 0 00.176.948 6 6 0 00.357-.078.482.482 0 10-.233-.935zm3.563-6.457a.48.48 0 00.609.305.482.482 0 00.306-.609 6.012 6.012 0 00-.126-.343.482.482 0 10-.894.358c.038.094.073.191.105.288zm-1.997 5.77a5.1 5.1 0 01-.262.16.482.482 0 10.482.835c.105-.06.21-.125.31-.192a.482.482 0 00-.53-.804zm3.211-4.425a.482.482 0 10-.963.038c.004.101.005.204.003.306a.481.481 0 10.963.021 6.019 6.019 0 00-.003-.365zm-1.293 3.157a.482.482 0 00-.675.096 5.082 5.082 0 01-.191.24.482.482 0 00.734.624 5.83 5.83 0 00.228-.286.482.482 0 00-.096-.674zm.708-1.742a.482.482 0 00-.604.316 5.07 5.07 0 01-.1.29.482.482 0 00.9.343 7.42 7.42 0 00.12-.345.482.482 0 00-.316-.604z" color="var(--white)"/><path fill-rule="evenodd" clip-rule="evenodd" d="M7.75 3a.75.75 0 00-.75.75v5.5c0 .088.015.172.043.25a.749.749 0 00.707 1h2.5a.75.75 0 000-1.5H8.5V3.75A.75.75 0 007.75 3z" color="var(--white)"/></svg>