<svg xmlns="http://www.w3.org/2000/svg" viewBox="0 0 16 16"><path fill-rule="evenodd" clip-rule="evenodd" d="M3.546 4.017a.5.5 0 0 0-.5.492v7.005a.5.5 0 0 0 .5.507h8.98a.5.5 0 0 0 .5-.5V6.61a.5.5 0 0 1 1 0v4.91a1.5 1.5 0 0 1-1.5 1.5h-8.98a1.5 1.5 0 0 1-1.5-1.522V4.495a1.5 1.5 0 0 1 1.5-1.478h6.804a.5.5 0 0 1 0 1H3.546Z" fill="#CurrentColor"/><path fill-rule="evenodd" clip-rule="evenodd" d="M5.219 5.094a.467.467 0 0 1 .48-.04l5.025 2.463c.18.088.296.284.296.5 0 .214-.116.41-.296.498l-5.026 2.463a.468.468 0 0 1-.479-.04.56.56 0 0 1-.23-.459V5.553a.56.56 0 0 1 .23-.46ZM5.994 6.4v3.233l3.3-1.617-3.3-1.616Z" fill="currentColor"/></svg>