<svg viewBox="0 0 19 20" xmlns="http://www.w3.org/2000/svg"><g filter="url(#filter0_dd)"><circle cx="9.5" cy="9.5" r="7" stroke="var(--white)"/><path opacity=".867" d="M4.616 6.395l.525 2.177a.415.415 0 00.193.262.415.415 0 00.324.037l2.146-.635a.461.461 0 00.314-.544.408.408 0 00-.517-.298l-1.143.338.002-.003c1.075-1.862 3.387-2.545 5.157-1.524 1.768 1.021 2.333 3.366 1.259 5.228-1.075 1.861-3.388 2.544-5.157 1.523a3.595 3.595 0 01-1.699-2.299.406.406 0 00-.516-.298.46.46 0 00-.313.543c.29 1.213 1.031 2.215 2.084 2.823 2.173 1.254 5.013.415 6.332-1.87 1.32-2.285.626-5.165-1.546-6.42-2.172-1.253-5.013-.414-6.332 1.871l-.002.004-.28-1.16a.408.408 0 00-.517-.298.46.46 0 00-.314.543z" color="var(--white)"/></g><defs><filter id="filter0_dd" x="0" y=".5" width="19" height="19" filterUnits="userSpaceOnUse" color-interpolation-filters="sRGB"><feFlood flood-opacity="0" result="BackgroundImageFix"/><feColorMatrix in="SourceAlpha" values="0 0 0 0 0 0 0 0 0 0 0 0 0 0 0 0 0 0 127 0"/><feOffset dy=".5"/><feGaussianBlur stdDeviation="1"/><feColorMatrix values="0 0 0 0 0.376471 0 0 0 0 0.380392 0 0 0 0 0.439216 0 0 0 0.16 0"/><feBlend in2="BackgroundImageFix" result="effect1_dropShadow"/><feColorMatrix in="SourceAlpha" values="0 0 0 0 0 0 0 0 0 0 0 0 0 0 0 0 0 0 127 0"/><feOffset/><feGaussianBlur stdDeviation=".5"/><feColorMatrix values="0 0 0 0 0.156863 0 0 0 0 0.160784 0 0 0 0 0.239216 0 0 0 0.08 0"/><feBlend in2="effect1_dropShadow" result="effect2_dropShadow"/><feBlend in="SourceGraphic" in2="effect2_dropShadow" result="shape"/></filter></defs></svg>