<svg viewBox="0 0 24 24" fill="currentColor" xmlns="http://www.w3.org/2000/svg"><path opacity=".01" fill="currentColor" d="M4 4h16v16H4z"/><path fill-rule="evenodd" clip-rule="evenodd" d="M12 5.91c2.427-1.202 4.725-1.245 6.03.06 1.33 1.33 1.237 3.652.058 6.03 1.179 2.378 1.272 4.7-.057 6.03-1.329 1.328-3.65 1.236-6.028.058-2.428 1.204-4.727 1.247-6.033-.058-1.2-1.2-1.238-3.212-.368-5.341a1.49 1.49 0 0 1-.202-1.906c-.667-1.957-.515-3.727.57-4.813C7.276 4.665 9.574 4.708 12 5.91zm-2.815 8.906c2.967 2.967 6.642 4.01 8.142 2.51.871-.872.88-2.477.156-4.25-.47.737-1.007 1.429-1.606 2.066a1.244 1.244 0 1 1-1.023-.538c.038 0 .075.005.112.01l.038.005a12.797 12.797 0 0 0 1.963-2.62 12.379 12.379 0 0 0-1.33-1.912 1.232 1.232 0 0 1-.286.037 1.245 1.245 0 1 1 1.245-1.245c0 .222-.063.427-.164.607.381.456.733.937 1.051 1.438.724-1.773.715-3.379-.156-4.25-.97-.97-2.913-.905-5.072.22a.484.484 0 0 1-.25.05.482.482 0 0 1-.257-.048c-2.16-1.127-4.103-1.192-5.074-.222-.727.728-.866 2.005-.42 3.506.126-.036.255-.055.385-.056.131.001.262.02.387.057a14.52 14.52 0 0 1 1.455-1.7.498.498 0 0 1 .704.703 13.542 13.542 0 0 0-1.339 1.56c.179.246.287.546.287.873 0 .825-.669 1.493-1.494 1.493-.028 0-.055-.003-.083-.007a.93.93 0 0 0-.047-.006c-.714 1.765-.702 3.36.165 4.228.846.846 2.431.905 4.255.16a14.203 14.203 0 0 1-2.448-1.965.498.498 0 1 1 .704-.704zm2.93-4.693a1.991 1.991 0 1 0 0 3.983 1.991 1.991 0 0 0 0-3.982zm-.862 2.49a.996.996 0 1 0 1.725-.997.996.996 0 0 0-1.725.996z" fill="currentColor" opacity=".8"/></svg>