<svg viewBox="0 0 14 14"  xmlns="http://www.w3.org/2000/svg">
<path d="M6.83129 2.30469H5.94589V5.98797H3.53021V6.87337H6.83129V2.30469Z" />
<path d="M12.5392 7.46583C12.7832 6.13962 12.5968 4.77013 12.0071 3.55741C11.4175 2.34469 10.4555 1.3523 9.2617 0.725195C8.06791 0.0980945 6.70488 -0.13085 5.37172 0.071806C4.03856 0.274462 2.80513 0.8981 1.85162 1.85162C0.8981 2.80513 0.274462 4.03856 0.071806 5.37172C-0.13085 6.70488 0.0980945 8.06791 0.725195 9.2617C1.3523 10.4555 2.34469 11.4175 3.55741 12.0071C4.77013 12.5968 6.13962 12.7832 7.46583 12.5392C7.77667 12.9568 8.17378 13.3025 8.63017 13.553C9.08655 13.8034 9.59151 13.9526 10.1107 13.9904C10.6299 14.0282 11.1512 13.9538 11.639 13.7723C12.1269 13.5907 12.5699 13.3061 12.938 12.938C13.3061 12.5699 13.5907 12.1269 13.7723 11.639C13.9538 11.1512 14.0282 10.6299 13.9904 10.1107C13.9526 9.59151 13.8034 9.08655 13.553 8.63017C13.3025 8.17378 12.9568 7.77667 12.5392 7.46583ZM6.32219 11.7586C5.24697 11.7586 4.1959 11.4397 3.3019 10.8424C2.40789 10.245 1.71109 9.39597 1.29963 8.4026C0.888158 7.40923 0.7805 6.31616 0.990264 5.2616C1.20003 4.20705 1.71779 3.23838 2.47808 2.47808C3.23838 1.71779 4.20705 1.20003 5.2616 0.990264C6.31616 0.7805 7.40923 0.888158 8.4026 1.29963C9.39597 1.71109 10.245 2.40789 10.8424 3.3019C11.4397 4.1959 11.7586 5.24697 11.7586 6.32219C11.7597 6.54805 11.7468 6.77376 11.7202 6.99805C11.06 6.7297 10.3352 6.66197 9.63669 6.80334C8.93816 6.9447 8.2968 7.28889 7.79284 7.79284C7.28889 8.2968 6.9447 8.93816 6.80334 9.63669C6.66197 10.3352 6.7297 11.06 6.99805 11.7202C6.77376 11.7469 6.54805 11.7597 6.32219 11.7586ZM10.3685 13.1103C9.82614 13.1103 9.29599 12.9494 8.84507 12.6481C8.39415 12.3468 8.04273 11.9185 7.83525 11.4174C7.62777 10.9163 7.57356 10.3649 7.67947 9.83304C7.78539 9.30114 8.04667 8.81261 8.43026 8.42922C8.81386 8.04583 9.30254 7.78481 9.83449 7.67919C10.3664 7.57356 10.9178 7.62807 11.4187 7.83581C11.9197 8.04356 12.3478 8.39521 12.6489 8.8463C12.95 9.29738 13.1106 9.82762 13.1103 10.37C13.1091 11.0964 12.82 11.7927 12.3064 12.3064C11.7927 12.82 11.0964 13.1091 10.37 13.1103H10.3685Z" />
<path d="M10.8127 8.46875H9.92725V11.2356H10.8127V8.46875Z" />
<path d="M10.8127 11.5664H9.92725V12.4149H10.8127V11.5664Z" />
</svg>
