<svg viewBox="0 0 12.46 4.07" xmlns="http://www.w3.org/2000/svg"><path d="M10.92 4l.4-1 .42 1h.72l-.65-1.51.63-1.49h-.73l-.39 1L11 1h-.73l.62 1.51L10.18 4zm-2-.71a.29.29 0 01-.23-.1.61.61 0 01-.14-.28 1.34 1.34 0 010-.42 1.31 1.31 0 010-.42.61.61 0 01.14-.28.33.33 0 01.23-.1.3.3 0 01.22.1.67.67 0 01.14.28 1.34 1.34 0 010 .42 1.34 1.34 0 010 .42.61.61 0 01-.14.28.28.28 0 01-.26.12zm.25.75a.7.7 0 00.45-.17 1.17 1.17 0 00.33-.52 2.66 2.66 0 00.05-.84 2.68 2.68 0 00-.12-.87 1.17 1.17 0 00-.34-.51.66.66 0 00-.41-.13.53.53 0 00-.31.08.7.7 0 00-.21.21 1.23 1.23 0 00-.12.26V0h-.74v4h.71v-.47a.91.91 0 00.13.26.58.58 0 00.21.2.56.56 0 00.33.07zm-2.78-.22v-1h.77V2h-.77V1h-.6v1H5v.79h.77v1zM3.13 4l.41-1L4 4h.73L4 2.51 4.65 1h-.73l-.38 1-.38-1h-.73l.62 1.51L2.4 4zM1 3.44a.28.28 0 01-.2-.08.29.29 0 01-.09-.23A.47.47 0 01.72 3a.38.38 0 01.11-.11.75.75 0 01.17-.11H1.38V3a.51.51 0 01-.06.25.45.45 0 01-.15.18.37.37 0 01-.17.01zm-.22.63A.82.82 0 001 4a.6.6 0 00.22-.16 1 1 0 00.16-.26V4h.69V2A1.18 1.18 0 002 1.54a.85.85 0 00-.21-.31A1 1 0 001.5 1a1.29 1.29 0 00-.4 0 1.05 1.05 0 00-.52.12.86.86 0 00-.34.34 1.35 1.35 0 00-.16.49L.75 2a.38.38 0 01.11-.22.32.32 0 01.23-.09.26.26 0 01.21.09.28.28 0 01.08.22.17.17 0 010 .15.45.45 0 01-.17.08l-.32.05a1.65 1.65 0 00-.32.07 1 1 0 00-.27.17.62.62 0 00-.18.28 1 1 0 00-.12.38 1.06 1.06 0 00.1.5.62.62 0 00.26.32.71.71 0 00.39.07z" fill="currentColor"/></svg>