<svg xmlns="http://www.w3.org/2000/svg" viewBox="0 0 16 16"><path fill-rule="evenodd" clip-rule="evenodd" d="M4.875 2.588C5.305 2.218 5.889 2 6.647 2a.5.5 0 1 1 0 1c-.556 0-.898.155-1.12.346-.228.197-.374.472-.462.784a3.18 3.18 0 0 0-.106.86h1.449a.5.5 0 0 1 0 1H4.992v5.505a.5.5 0 0 1-1 0V5.99h-.936a.5.5 0 0 1 0-1h.903a4.173 4.173 0 0 1 .143-1.13c.123-.435.35-.907.773-1.27Zm.111 2.823c0 .001 0 .001 0 0m0 0ZM12.045 10.43c-.242.268-.455.59-.553.786-.17.341-.472.705-.766.994-.285.281-.635.565-.932.684a.5.5 0 1 1-.371-.929c.102-.04.335-.204.6-.467.258-.253.475-.528.575-.729.142-.283.407-.68.704-1.009.15-.165.32-.33.5-.456.168-.118.406-.248.68-.248a.5.5 0 0 1 .013 1c-.004.002-.042.012-.118.066-.097.068-.211.174-.332.307Z" fill="#CurrentColor"/><path fill-rule="evenodd" clip-rule="evenodd" d="M10.045 10.43c.242.268.455.59.553.786.17.341.473.705.766.994.285.281.635.565.932.684a.5.5 0 1 0 .372-.929c-.103-.04-.335-.204-.602-.467-.257-.253-.473-.528-.574-.729a5.003 5.003 0 0 0-.704-1.009c-.149-.165-.32-.33-.5-.456-.168-.118-.406-.248-.68-.248a.5.5 0 0 0-.012 1c.003.002.041.012.118.066a2.1 2.1 0 0 1 .33.307Z" fill="#CurrentColor"/><path fill-rule="evenodd" clip-rule="evenodd" d="M8.367 7.805a.5.5 0 0 1 .186.682c-.854 1.494-.652 3.467.013 4.797a.5.5 0 1 1-.895.447c-.771-1.543-1.049-3.881.013-5.74a.5.5 0 0 1 .683-.186Zm5.273 0a.5.5 0 0 1 .683.186c1.062 1.859.784 4.197.013 5.74a.5.5 0 1 1-.895-.447c.665-1.33.867-3.303.013-4.797a.5.5 0 0 1 .186-.682Z" fill="currentColor"/></svg>