<svg viewBox="0 0 12.46 4.07" xmlns="http://www.w3.org/2000/svg"><path d="m10.92 4 .4-1 .42 1h.72l-.65-1.51.63-1.49h-.73l-.39 1-.32-1h-.73l.62 1.51-.71 1.49zm-2-.71a.29.29 0 0 1 -.23-.1.61.61 0 0 1 -.14-.28 1.34 1.34 0 0 1 0-.42 1.31 1.31 0 0 1 0-.42.61.61 0 0 1 .14-.28.33.33 0 0 1 .23-.1.3.3 0 0 1 .22.1.67.67 0 0 1 .14.28 1.34 1.34 0 0 1 0 .42 1.34 1.34 0 0 1 0 .42.61.61 0 0 1 -.14.28.28.28 0 0 1 -.26.12zm.25.75a.7.7 0 0 0 .45-.17 1.17 1.17 0 0 0 .33-.52 2.66 2.66 0 0 0 .05-.84 2.68 2.68 0 0 0 -.12-.87 1.17 1.17 0 0 0 -.34-.51.66.66 0 0 0 -.41-.13.53.53 0 0 0 -.31.08.7.7 0 0 0 -.21.21 1.23 1.23 0 0 0 -.12.26v-1.55h-.74v4h.71v-.47a.91.91 0 0 0 .13.26.58.58 0 0 0 .21.2.56.56 0 0 0 .33.07zm-2.78-.22v-1h.77v-.82h-.77v-1h-.6v1h-.79v.79h.77v1zm-3.26.18.41-1 .46 1h.73l-.73-1.49.65-1.51h-.73l-.38 1-.38-1h-.73l.62 1.51-.65 1.49zm-2.13-.56a.28.28 0 0 1 -.2-.08.29.29 0 0 1 -.09-.23.47.47 0 0 1 .01-.13.38.38 0 0 1 .11-.11.75.75 0 0 1 .17-.11h.1.11.09.08v.22a.51.51 0 0 1 -.06.25.45.45 0 0 1 -.15.18.37.37 0 0 1 -.17.01zm-.22.63a.82.82 0 0 0 .22-.07.6.6 0 0 0 .22-.16 1 1 0 0 0 .16-.26v.42h.69v-2a1.18 1.18 0 0 0 -.07-.46.85.85 0 0 0 -.21-.31 1 1 0 0 0 -.29-.23 1.29 1.29 0 0 0 -.4 0 1.05 1.05 0 0 0 -.52.12.86.86 0 0 0 -.34.34 1.35 1.35 0 0 0 -.16.49l.67.05a.38.38 0 0 1 .11-.22.32.32 0 0 1 .23-.09.26.26 0 0 1 .21.09.28.28 0 0 1 .08.22.17.17 0 0 1 0 .15.45.45 0 0 1 -.17.08l-.32.05a1.65 1.65 0 0 0 -.32.07 1 1 0 0 0 -.27.17.62.62 0 0 0 -.18.28 1 1 0 0 0 -.12.38 1.06 1.06 0 0 0 .1.5.62.62 0 0 0 .26.32.71.71 0 0 0 .39.07z" fill="currentColor"/></svg>
