<svg viewBox="0 0 22 10" xmlns="http://www.w3.org/2000/svg" xmlns:xlink="http://www.w3.org/1999/xlink">

  <defs>
    <path id="cross-path" fill="black" d="M19.9723 4L20.6794 3.29289L19.9723 2.58579L19.2651 3.29289L19.9723 4ZM21.5002 5.52798L20.7931 6.23509L21.5002 6.9422L22.2073 6.23509L21.5002 5.52798ZM19 4.97226L18.2929 4.26515L17.5858 4.97226L18.2929 5.67936L19 4.97226ZM20.528 6.50024L21.2351 7.20735L21.9422 6.50024L21.2351 5.79313L20.528 6.50024ZM19.0001 8.02817L18.2929 7.32106L17.5858 8.02817L18.2929 8.73527L19.0001 8.02817ZM19.9723 9.00042L19.2652 9.70753L19.9723 10.4146L20.6794 9.70753L19.9723 9.00042ZM21.5002 7.47249L22.2073 6.76539L21.5002 6.05828L20.7931 6.76539L21.5002 7.47249ZM23.0279 9.00017L22.3208 9.70728L23.0279 10.4144L23.735 9.70728L23.0279 9.00017ZM24.0002 8.02791L24.7073 8.73502L25.4144 8.02791L24.7073 7.32081L24.0002 8.02791ZM22.4725 6.50024L21.7654 5.79313L21.0583 6.50024L21.7654 7.20735L22.4725 6.50024ZM24.0002 4.97251L24.7073 5.67961L25.4144 4.97251L24.7073 4.2654L24.0002 4.97251ZM23.028 4.00025L23.7351 3.29315L23.028 2.58604L22.3209 3.29315L23.028 4.00025ZM19.2651 4.70711L20.7931 6.23509L22.2073 4.82088L20.6794 3.29289L19.2651 4.70711ZM19.7071 5.67936L20.6794 4.70711L19.2651 3.29289L18.2929 4.26515L19.7071 5.67936ZM21.2351 5.79313L19.7071 4.26515L18.2929 5.67936L19.8209 7.20735L21.2351 5.79313ZM19.7072 8.73527L21.2351 7.20735L19.8209 5.79313L18.2929 7.32106L19.7072 8.73527ZM20.6794 8.29331L19.7072 7.32106L18.2929 8.73527L19.2652 9.70753L20.6794 8.29331ZM20.7931 6.76539L19.2652 8.29331L20.6794 9.70753L22.2073 8.1796L20.7931 6.76539ZM23.735 8.29306L22.2073 6.76539L20.7931 8.1796L22.3208 9.70728L23.735 8.29306ZM23.2931 7.32081L22.3208 8.29306L23.735 9.70728L24.7073 8.73502L23.2931 7.32081ZM21.7654 7.20735L23.2931 8.73502L24.7073 7.32081L23.1796 5.79313L21.7654 7.20735ZM23.2931 4.2654L21.7654 5.79313L23.1796 7.20735L24.7073 5.67961L23.2931 4.2654ZM22.3209 4.70736L23.2931 5.67961L24.7073 4.2654L23.7351 3.29315L22.3209 4.70736ZM22.2073 6.23509L23.7351 4.70736L22.3209 3.29315L20.7931 4.82088L22.2073 6.23509Z" />
    <mask id="cross-mask">
      <rect  x="16.137" y="6.5" width="5.40036" height="5.84794" stroke-width="1.1" stroke="#fff" fill="white" />
      <use xlink:href="#cross-path" />
    </mask>
     <mask id="dash-mask">
      <rect  x="23.5" y="9" width="2.5" height="1" fill="white" />
      <use xlink:href="#cross-path" />
    </mask>
  </defs>
  <g transform="translate(-12 -3.7)">
   <path d="M12.7313 9.46225H14.0899" stroke="currentColor" stroke-linecap="square" />
    <rect x="16.137" y="6.5" width="5.40036" height="5.84794" rx="0.5" stroke="currentColor" stroke-width="1.1"  fill="none" mask="url(#cross-mask)"/>
    <rect x="23.5" y="9" width="2.4" height="1.1" fill="currentColor" mask="url(#dash-mask)"  />
    <rect x="27.0994" y="6.5" width="5.40036" height="5.84794" rx="0.5" stroke="currentColor" stroke-width="1.1" fill="none"   />
    <path fill-rule="evenodd" clip-rule="evenodd" d="M21.5002 5.52798L19.9723 4L19 4.97226L20.528 6.50024L19.0001 8.02817L19.9723 9.00042L21.5002 7.47249L23.0279 9.00017L24.0002 8.02791L22.4725 6.50024L24.0002 4.97251L23.028 4.00025L21.5002 5.52798Z" fill="#DA291D"/>
  </g>
</svg>
