<svg viewBox="0 0 22 10" xmlns="http://www.w3.org/2000/svg" xmlns:xlink="http://www.w3.org/1999/xlink"><defs><mask id="b"><path stroke-width="1.1" stroke="#fff" fill="#fff" d="M16.137 6.5h5.4v5.848h-5.4z"/><use xlink:href="#a"/></mask><mask id="c"><path fill="#fff" d="M23.5 9H26v1h-2.5z"/><use xlink:href="#a"/></mask><path id="a" fill="#000" d="M19.972 4l.707-.707-.707-.707-.707.707.707.707zM21.5 5.528l-.707.707.707.707.707-.707-.707-.707zM19 4.972l-.707-.707-.707.707.707.707.707-.707zM20.528 6.5l.707.707.707-.707-.707-.707-.707.707zM19 8.028l-.707-.707-.707.707.707.707.707-.707zm.972.972l-.707.708.707.707.707-.707L19.972 9zM21.5 7.472l.707-.707-.707-.707-.707.707.707.707zM23.028 9l-.707.707.707.707.707-.707L23.028 9zM24 8.028l.707.707.707-.707-.707-.707-.707.707zM22.473 6.5l-.708-.707-.707.707.707.707.707-.707zM24 4.973l.707.707.707-.707-.707-.708-.707.708zM23.028 4l.707-.707-.707-.707-.707.707.707.707zm-3.763.707l1.528 1.528 1.414-1.414-1.528-1.528-1.414 1.414zm.442.972l.972-.972-1.414-1.414-.972.972 1.414 1.414zm1.528.114l-1.528-1.528-1.414 1.414 1.528 1.528 1.414-1.414zm-1.528 2.942l1.528-1.528-1.414-1.414-1.528 1.528 1.414 1.414zm.972-.442l-.972-.972-1.414 1.414.972.973 1.414-1.415zm.114-1.528l-1.528 1.528 1.414 1.415 1.528-1.528-1.414-1.415zm2.942 1.528l-1.528-1.528-1.414 1.415 1.528 1.527 1.414-1.414zm-.442-.972l-.972.972 1.414 1.414.972-.972-1.414-1.414zm-1.528-.114l1.528 1.528 1.414-1.414-1.527-1.528-1.415 1.414zm1.528-2.942l-1.528 1.528 1.415 1.414 1.527-1.527-1.414-1.415zm-.972.442l.972.973 1.414-1.415-.972-.972-1.414 1.414zm-.114 1.528l1.528-1.528-1.414-1.414-1.528 1.528 1.414 1.414z"/></defs><g transform="translate(-12 -3.7)"><path d="M12.731 9.462h1.359" stroke="currentColor" stroke-linecap="square"/><rect x="16.137" y="6.5" width="5.4" height="5.848" rx=".5" stroke="currentColor" stroke-width="1.1" fill="none" mask="url(#b)"/><path fill="currentColor" mask="url(#c)" d="M23.5 9h2.4v1.1h-2.4z"/><rect x="27.099" y="6.5" width="5.4" height="5.848" rx=".5" stroke="currentColor" stroke-width="1.1" fill="none"/><path fill-rule="evenodd" clip-rule="evenodd" d="M21.5 5.528L19.972 4 19 4.972 20.528 6.5 19 8.028l.972.972L21.5 7.472 23.028 9 24 8.028 22.473 6.5 24 4.973 23.028 4 21.5 5.528z" fill="#DA291D"/></g></svg>