<svg width="39" height="21" fill="none" xmlns="http://www.w3.org/2000/svg">
  <rect x="16.137" y="6.5" width="5.4" height="5.848" rx=".5" stroke="#6B6D85"/>
  <path d="M23.973 9.521h1.368M12.732 9.462h1.358" stroke="#6B6D85" stroke-linecap="square"/>
  <rect x="27.1" y="6.5" width="5.4" height="5.848" rx=".5" stroke="#6B6D85"/>
  <mask id="a" maskUnits="userSpaceOnUse" x="17" y="2" width="9" height="9" fill="#000">
    <path fill="#fff" d="M17 2h9v9h-9z"/>
    <path fill-rule="evenodd" clip-rule="evenodd" d="M21.5 5.528L19.972 4 19 4.972 20.528 6.5 19 8.028l.972.972L21.5 7.472 23.028 9 24 8.028 22.473 6.5 24 4.973 23.028 4 21.5 5.528z"/>
  </mask>
  <path fill-rule="evenodd" clip-rule="evenodd" d="M21.5 5.528L19.972 4 19 4.972 20.528 6.5 19 8.028l.972.972L21.5 7.472 23.028 9 24 8.028 22.473 6.5 24 4.973 23.028 4 21.5 5.528z" fill="#DA291D"/>
  <path d="M19.972 4l.707-.707-.707-.707-.707.707.707.707zM21.5 5.528l-.707.707.707.707.707-.707-.707-.707zM19 4.972l-.707-.707-.707.707.707.707.707-.707zM20.528 6.5l.707.707.707-.707-.707-.707-.707.707zM19 8.028l-.707-.707-.707.707.707.707.707-.707zm.972.972l-.707.708.707.707.707-.707L19.972 9zM21.5 7.472l.707-.707-.707-.707-.707.707.707.707zM23.028 9l-.707.707.707.707.707-.707L23.028 9zM24 8.028l.707.707.707-.707-.707-.707-.707.707zM22.473 6.5l-.708-.707-.707.707.707.707.707-.707zM24 4.973l.707.707.707-.707-.707-.708-.707.708zM23.028 4l.707-.707-.707-.707-.707.707.707.707zm-3.763.707l1.528 1.528 1.414-1.414-1.528-1.528-1.414 1.414zm.442.972l.972-.972-1.414-1.414-.972.972 1.414 1.414zm1.528.114l-1.528-1.528-1.414 1.414 1.528 1.528 1.414-1.414zm-1.528 2.942l1.528-1.528-1.414-1.414-1.528 1.528 1.414 1.414zm.972-.442l-.972-.972-1.414 1.414.972.973 1.414-1.415zm.114-1.528l-1.528 1.528 1.414 1.415 1.528-1.528-1.414-1.415zm2.942 1.528l-1.528-1.528-1.414 1.415 1.528 1.527 1.414-1.414zm-.442-.972l-.972.972 1.414 1.414.972-.972-1.414-1.414zm-1.528-.114l1.528 1.528 1.414-1.414-1.527-1.528-1.415 1.414zm1.528-2.942l-1.528 1.528 1.415 1.414 1.527-1.527-1.414-1.415zm-.972.442l.972.973 1.414-1.415-.972-.972-1.414 1.414zm-.114 1.528l1.528-1.528-1.414-1.414-1.528 1.528 1.414 1.414z" fill="#fff" mask="url(#a)"/>
</svg>
