<svg viewBox="0 0 16 18" fill="none" xmlns="http://www.w3.org/2000/svg"><path fill-rule="evenodd" clip-rule="evenodd" d="M8.311 1.168a.5.5 0 00-.747 0L1.129 8.412a.5.5 0 00.374.832h2.435a.5.5 0 01.5.5v6.25a.5.5 0 00.5.5h6a.5.5 0 00.5-.5v-6.25a.5.5 0 01.5-.5h2.434a.5.5 0 00.374-.832L8.31 1.168l.374-.332-.374.332zM6.816.504a1.5 1.5 0 012.243 0l6.434 7.244c.86.968.173 2.496-1.121 2.496h-1.934v5.75a1.5 1.5 0 01-1.5 1.5h-6a1.5 1.5 0 01-1.5-1.5v-5.75H1.503c-1.294 0-1.98-1.528-1.122-2.496L6.816.504z" fill="#3E7BFA"/></svg>