<svg xmlns="http://www.w3.org/2000/svg" viewBox="0 0 96 95.5"><path d="M87.4 20.6l-8-8c-.8-.8-2-.8-2.8 0l-24 24c-.4.4-.6.9-.6 1.4v8c0 1.1.9 2 2 2h8c.5 0 1-.2 1.4-.6l24-24c.8-.8.8-2 0-2.8zM61.2 44H56v-5.2l22-22 5.2 5.2-22 22zM42 32H22c-1.1 0-2 .9-2 2s.9 2 2 2h20c1.1 0 2-.9 2-2s-.9-2-2-2zM22 48h20c1.1 0 2-.9 2-2s-.9-2-2-2H22c-1.1 0-2 .9-2 2s.9 2 2 2zM22 60h40c1.1 0 2-.9 2-2s-.9-2-2-2H22c-1.1 0-2 .9-2 2s.9 2 2 2z"/><path d="M74 48c-1.1 0-2 .9-2 2v12c0 3.3-2.7 6-6 6H46c-.4 0-.9.1-1.2.4L32 78v-8c0-1.1-.9-2-2-2H18c-3.3 0-6-2.7-6-6V30c0-3.3 2.7-6 6-6h36c1.1 0 2-.9 2-2s-.9-2-2-2H18c-5.5 0-10 4.5-10 10v32c0 5.5 4.5 10 10 10h10v10c0 1.1.9 2 2 2 .4 0 .9-.1 1.2-.4L46.7 72H66c5.5 0 10-4.5 10-10V50c0-1.1-.9-2-2-2z"/></svg>