<svg version="1.1" id="Layer_1" xmlns="http://www.w3.org/2000/svg" xmlns:xlink="http://www.w3.org/1999/xlink" x="0px" y="0px"
	 viewBox="0 0 96 95.5">
<g>
	<path d="M87.4,20.6l-8-8c-0.8-0.8-2-0.8-2.8,0l-24,24C52.2,37,52,37.5,52,38v8c0,1.1,0.9,2,2,2c0,0,0,0,0,0h8c0.5,0,1-0.2,1.4-0.6
		l24-24C88.2,22.6,88.2,21.4,87.4,20.6z M61.2,44H56v-5.2l22-22l5.2,5.2L61.2,44z"/>
	<path d="M42,32H22c-1.1,0-2,0.9-2,2s0.9,2,2,2h20c1.1,0,2-0.9,2-2S43.1,32,42,32z"/>
	<path d="M22,48h20c1.1,0,2-0.9,2-2s-0.9-2-2-2H22c-1.1,0-2,0.9-2,2S20.9,48,22,48z"/>
	<path d="M22,60h40c1.1,0,2-0.9,2-2s-0.9-2-2-2H22c-1.1,0-2,0.9-2,2S20.9,60,22,60z"/>
	<path d="M74,48c-1.1,0-2,0.9-2,2c0,0,0,0,0,0v12c0,3.3-2.7,6-6,6H46c-0.4,0-0.9,0.1-1.2,0.4L32,78v-8c0-1.1-0.9-2-2-2c0,0,0,0,0,0
		H18c-3.3,0-6-2.7-6-6V30c0-3.3,2.7-6,6-6h36c1.1,0,2-0.9,2-2s-0.9-2-2-2H18c-5.5,0-10,4.5-10,10v32c0,5.5,4.5,10,10,10h10v10
		c0,1.1,0.9,2,2,2c0.4,0,0.9-0.1,1.2-0.4L46.7,72H66c5.5,0,10-4.5,10-10V50C76,48.9,75.1,48,74,48C74,48,74,48,74,48z"/>
</g>
</svg>
