<svg fill="none" viewBox="0 0 32 32" xmlns="http://www.w3.org/2000/svg"><linearGradient id="a" gradientUnits="userSpaceOnUse" x1="6.837" x2="23.78" y1="2" y2="28.227"><stop offset="0" stop-color="#ffc100"/><stop offset="1" stop-color="#e66b35"/></linearGradient><g fill="url(#a)"><path d="M10.632 2.08A5.19 5.19 0 004.62 6.29L2.08 20.697a5.19 5.19 0 004.21 6.012l7.463 1.316a.2.2 0 00.208-.298L6.882 15.656c-.296-.469-.292-1.382.05-1.6.08-.05.313-.259.313-.259l.398-.436.066-.072c.37-.406.704-.773 1.76-1.302l.227-.079c1.548-.484 2.41-.449 3.27-.414.862.035 1.724.07 3.274-.414 1.272-.398 2.43-1.178 3.074-1.667a.622.622 0 01.9.15l4.596 7.362a.53.53 0 01-.101.696 8.694 8.694 0 01-2.834 1.538c-1.549.484-2.432.463-3.316.442-.884-.021-1.768-.042-3.318.442-1.314.41-1.868.948-2.07 1.204-.048.061-.07.21-.032.279.4.724 2.295 4.06 3.794 6.693a.998.998 0 00.695.49l3.07.541a5.19 5.19 0 006.012-4.21l2.54-14.408a5.19 5.19 0 00-4.21-6.012z"/><path d="M16.646 13.074c-1.303.34-2.093.316-2.882.29-.79-.024-1.58-.049-2.881.291-.744.216-1.178.592-1.587 1.072a.197.197 0 00-.018.23l2.482 4.069c.064.106.209.13.307.055.374-.283 1.28-.9 2.42-1.198 1.469-.383 2.348-.375 3.273-.366.717.007 1.462.014 2.53-.16a4.454 4.454 0 001.629-.635.347.347 0 00.094-.488L19.472 12.3a.421.421 0 00-.56-.128 9.57 9.57 0 01-2.265.902z"/></g></svg>