<svg fill="none" viewBox="0 0 168 56" xmlns="http://www.w3.org/2000/svg" xmlns:xlink="http://www.w3.org/1999/xlink"><linearGradient id="a" gradientUnits="userSpaceOnUse" x1="24.5465" x2="45.7256" y1="10.5" y2="43.2842"><stop offset="0" stop-color="#ffc100"/><stop offset="1" stop-color="#e66b35"/></linearGradient><g fill="#000"><path d="m60.0737 41h1.1733v-4.7728c0-1.1186.8154-1.9091 1.7301-1.9091.89 0 1.5114.5817 1.5114 1.4518v5.2301h1.1932v-4.9716c0-.9844.6165-1.7103 1.6903-1.7103.8353 0 1.5512.4425 1.5512 1.5711v5.1108h1.1733v-5.1108c0-1.7948-.9645-2.625-2.3267-2.625-1.0938 0-1.8942.5021-2.287 1.2926h-.0795c-.3779-.8154-1.0441-1.2926-2.0483-1.2926-.9943 0-1.7301.4772-2.0483 1.2926h-.0994v-1.1932h-1.1336z"/><path d="m74.4889 41.1789c1.3323 0 2.0284-.7159 2.267-1.213h.0597v1.0341h1.1733v-5.0313c0-2.4261-1.8495-2.7045-2.8239-2.7045-1.1534 0-2.4659.3977-3.0625 1.7897l1.1136.3978c.2586-.5568.8701-1.1534 1.9887-1.1534 1.0788 0 1.6108.5717 1.6108 1.5511v.0398c0 .5667-.5767.517-1.9688.696-1.4169.1839-2.9631.4972-2.9631 2.2472 0 1.4914 1.1535 2.3465 2.6052 2.3465zm.1789-1.0539c-.9346 0-1.6108-.4176-1.6108-1.233 0-.8949.8154-1.1733 1.7302-1.2926.4971-.0597 1.8295-.1989 2.0284-.4375v1.0739c0 .9545-.7557 1.8892-2.1478 1.8892z"/><path d="m81.3037 36.4062c0-1.3324.8253-2.0881 1.9488-2.0881 1.0888 0 1.75.711 1.75 1.9091v4.7728h1.1733v-4.8523c0-1.9489-1.039-2.8835-2.5852-2.8835-1.1534 0-1.8693.517-2.2273 1.2926h-.0994v-1.1932h-1.1335v7.6364h1.1733z"/><path d="m90.567 41.1789c1.3324 0 2.0284-.7159 2.267-1.213h.0597v1.0341h1.1733v-5.0313c0-2.4261-1.8495-2.7045-2.8239-2.7045-1.1534 0-2.4659.3977-3.0625 1.7897l1.1137.3978c.2585-.5568.87-1.1534 1.9886-1.1534 1.0788 0 1.6108.5717 1.6108 1.5511v.0398c0 .5667-.5767.517-1.9688.696-1.4169.1839-2.963.4972-2.963 2.2472 0 1.4914 1.1534 2.3465 2.6051 2.3465zm.179-1.0539c-.9347 0-1.6108-.4176-1.6108-1.233 0-.8949.8153-1.1733 1.7301-1.2926.4971-.0597 1.8295-.1989 2.0284-.4375v1.0739c0 .9545-.7557 1.8892-2.1477 1.8892z"/><path d="m99.2909 44.0227c1.8291 0 3.3011-.8352 3.3011-2.804v-7.8551h-1.134v1.2131h-.119c-.258-.3978-.736-1.3125-2.2271-1.3125-1.929 0-3.2614 1.5312-3.2614 3.8778 0 2.3864 1.3921 3.7386 3.2415 3.7386 1.491 0 1.969-.875 2.227-1.2926h.1v1.5512c0 1.2727-.895 1.8494-2.1281 1.8494-1.3871 0-1.8743-.7308-2.1875-1.1534l-.9347.6562c.4773.8005 1.4169 1.5313 3.1222 1.5313zm-.0398-4.196c-1.4716 0-2.2273-1.1137-2.2273-2.7046 0-1.5511.7358-2.804 2.2273-2.804 1.4319 0 2.1879 1.1535 2.1879 2.804 0 1.6904-.776 2.7046-2.1879 2.7046z"/><path d="m107.941 41.1591c1.552 0 2.685-.7756 3.043-1.929l-1.133-.3182c-.299.7955-.99 1.1932-1.91 1.1932-1.377 0-2.326-.8899-2.381-2.5256h5.543v-.4971c0-2.8438-1.69-3.8182-3.281-3.8182-2.068 0-3.44 1.6307-3.44 3.9772 0 2.3466 1.352 3.9177 3.559 3.9177zm-2.381-4.5938c.08-1.1882.92-2.2472 2.262-2.2472 1.273 0 2.088.9546 2.088 2.2472z"/><path d="m112.888 41h1.173v-4.7728c0-1.1186.816-1.9091 1.731-1.9091.89 0 1.511.5817 1.511 1.4518v5.2301h1.193v-4.9716c0-.9844.617-1.7103 1.69-1.7103.836 0 1.552.4425 1.552 1.5711v5.1108h1.173v-5.1108c0-1.7948-.965-2.625-2.327-2.625-1.094 0-1.894.5021-2.287 1.2926h-.079c-.378-.8154-1.044-1.2926-2.049-1.2926-.994 0-1.73.4772-2.048 1.2926h-.099v-1.1932h-1.134z"/><path d="m128.258 41.1591c1.551 0 2.685-.7756 3.042-1.929l-1.133-.3182c-.298.7955-.989 1.1932-1.909 1.1932-1.377 0-2.327-.8899-2.382-2.5256h5.544v-.4971c0-2.8438-1.691-3.8182-3.281-3.8182-2.069 0-3.441 1.6307-3.441 3.9772 0 2.3466 1.352 3.9177 3.56 3.9177zm-2.382-4.5938c.08-1.1882.92-2.2472 2.263-2.2472 1.272 0 2.088.9546 2.088 2.2472z"/><path d="m134.378 36.4062c0-1.3324.825-2.0881 1.949-2.0881 1.089 0 1.75.711 1.75 1.9091v4.7728h1.173v-4.8523c0-1.9489-1.039-2.8835-2.585-2.8835-1.154 0-1.869.517-2.227 1.2926h-.1v-1.1932h-1.133v7.6364h1.173z"/><path d="m144.715 33.3636h-1.631v-1.8295h-1.173v1.8295h-1.153v.9943h1.153v4.7727c0 1.3324 1.074 1.9688 2.068 1.9688.438 0 .716-.0795.875-.1392l-.238-1.054c-.1.0199-.259.0597-.517.0597-.517 0-1.015-.1591-1.015-1.1534v-4.4546h1.631z"/><path d="m63.9518 18.3637h-1.5163v-.5121c0-.517.2088-.8203.8303-.8203.2535 0 .512.0547.6811.1094l.3728-1.591c-.2635-.0795-.8451-.2088-1.4964-.2088-1.4368 0-2.5057.8104-2.5057 2.4709v.5519h-1.0788v1.5909h1.0788v6.0454h2.1179v-6.0454h1.5163z"/><path d="m68.4524 26.1492c1.8892 0 3.1619-.9198 3.4602-2.3367l-1.9588-.1292c-.2138.5816-.7607.8849-1.4666.8849-1.059 0-1.7301-.701-1.7301-1.8395v-.0049h5.2002v-.5817c0-2.5952-1.571-3.8779-3.5894-3.8779-2.2472 0-3.7039 1.5959-3.7039 3.9525 0 2.4211 1.4368 3.9325 3.7884 3.9325zm-1.6953-4.7379c.0447-.8701.7059-1.5661 1.6456-1.5661.9197 0 1.5561.6563 1.561 1.5661z"/><path d="m75.517 26.1442c1.1286 0 1.8594-.4922 2.2322-1.2031h.0597v1.0589h2.0085v-5.1505c0-1.8196-1.5412-2.5853-3.2414-2.5853-1.8296 0-3.0327.875-3.326 2.2671l1.9588.1591c.1441-.5071.5966-.88 1.3572-.88.7209 0 1.1335.3629 1.1335.9893v.0299c0 .4922-.522.5568-1.8494.6861-1.5114.1392-2.8686.6463-2.8686 2.3515 0 1.5114 1.0788 2.277 2.5355 2.277zm.6065-1.4616c-.6512 0-1.1186-.3033-1.1186-.885 0-.5966.4922-.8899 1.238-.9943.4623-.0646 1.218-.174 1.4715-.343v.8103c0 .8005-.6612 1.412-1.5909 1.412z"/><path d="m85.5223 18.3637h-1.4368v-1.8296h-2.1179v1.8296h-1.044v1.5909h1.044v3.9773c-.0099 1.4964 1.0093 2.2372 2.5455 2.1725.5469-.0198.9347-.1292 1.1484-.1988l-.3331-1.576c-.1044.0199-.3281.0696-.527.0696-.4225 0-.7159-.1591-.7159-.7458v-3.6988h1.4368z"/><path d="m91.799 22.7486c.0049 1.0242-.6961 1.5611-1.4567 1.5611-.8004 0-1.3175-.5618-1.3225-1.4617v-4.4843h-2.1179v4.8622c.005 1.7848 1.049 2.8736 2.5853 2.8736 1.1484 0 1.9737-.5917 2.3167-1.4865h.0796v1.387h2.0334v-7.6363h-2.1179z"/><path d="m95.6109 26h2.1179v-4.3203c0-.9396.6861-1.5859 1.6208-1.5859.2933 0 .6964.0497.8944.1143v-1.8792c-.188-.0448-.452-.0746-.6657-.0746-.8552 0-1.5562.4972-1.8346 1.4418h-.0795v-1.3324h-2.0533z"/><path d="m104.464 26.1492c1.889 0 3.162-.9198 3.46-2.3367l-1.958-.1292c-.214.5816-.761.8849-1.467.8849-1.059 0-1.73-.701-1.73-1.8395v-.0049h5.2v-.5817c0-2.5952-1.571-3.8779-3.589-3.8779-2.248 0-3.704 1.5959-3.704 3.9525 0 2.4211 1.437 3.9325 3.788 3.9325zm-1.695-4.7379c.045-.8701.706-1.5661 1.645-1.5661.92 0 1.556.6563 1.561 1.5661z"/><path d="m116.698 18.3637h-1.516v-.5121c0-.517.208-.8203.83-.8203.253 0 .512.0547.681.1094l.373-1.591c-.264-.0795-.845-.2088-1.497-.2088-1.436 0-2.505.8104-2.505 2.4709v.5519h-1.079v1.5909h1.079v6.0454h2.118v-6.0454h1.516z"/><path d="m120.11 15.8182h-2.118v10.1818h2.118z"/><path d="m123.984 26.1442c1.128 0 1.859-.4922 2.232-1.2031h.06v1.0589h2.008v-5.1505c0-1.8196-1.541-2.5853-3.241-2.5853-1.83 0-3.033.875-3.326 2.2671l1.959.1591c.144-.5071.596-.88 1.357-.88.721 0 1.133.3629 1.133.9893v.0299c0 .4922-.522.5568-1.849.6861-1.511.1392-2.869.6463-2.869 2.3515 0 1.5114 1.079 2.277 2.536 2.277zm.606-1.4616c-.651 0-1.118-.3033-1.118-.885 0-.5966.492-.8899 1.238-.9943.462-.0646 1.218-.174 1.471-.343v.8103c0 .8005-.661 1.412-1.591 1.412z"/><path d="m133.368 29.0228c2.182 0 3.733-.9944 3.733-2.9482v-7.7109h-2.103v1.2826h-.079c-.284-.6214-.905-1.3821-2.183-1.3821-1.675 0-3.092 1.3026-3.092 3.9027 0 2.5405 1.377 3.7238 3.097 3.7238 1.218 0 1.899-.6115 2.178-1.2429h.089v1.397c0 1.049-.671 1.4567-1.591 1.4567-.934 0-1.407-.4077-1.581-.8701l-1.958.2635c.253 1.2031 1.431 2.1279 3.49 2.1279zm.044-4.7231c-1.039 0-1.605-.8252-1.605-2.1427 0-1.2976.556-2.2074 1.605-2.2074 1.03 0 1.606.87 1.606 2.2074 0 1.3473-.586 2.1427-1.606 2.1427z"/></g><path d="m29.2901 10.5996c-3.5281-.62207-6.8925 1.7337-7.5146 5.2618l-3.1759 18.011c-.6221 3.5281 1.7337 6.8925 5.2618 7.5146l9.437 1.664c.1679.0296.2935-.151.2072-.2981l-8.9025-15.1827c-.3707-.5865-.3655-1.7281.0629-2.0001.0982-.0631.3898-.3237.3898-.3237l.4982-.5449.0819-.0898c.4622-.5081.8798-.9672 2.1996-1.6279l.284-.0989c1.9359-.6046 3.0123-.5609 4.0888-.5172 1.077.0437 2.1541.0874 4.0918-.5179 1.5903-.4967 3.0367-1.4721 3.8428-2.0838.3579-.2716.8863-.1923 1.1242.1888l5.7459 9.201c.1787.2862.134.6562-.1271.8699-.6207.5077-1.8752 1.4026-3.542 1.9232-1.9359.6046-3.0403.5784-4.1448.5522-1.1049-.0263-2.21-.0526-4.1478.5527-1.7063.533-2.3872 1.2366-2.6141 1.5403-.047.0628-.0713.2076-.0335.2763.4564.8309 2.9113 5.1512 4.8198 8.5055.1473.2588.402.4381.6953.4898l3.9536.6972c3.5281.6221 6.8925-1.7337 7.5146-5.2618l3.1759-18.011c.6221-3.5281-1.7337-6.8925-5.2618-7.5146z" fill="url(#a)"/><path d="m36.8081 24.3429c-1.6293.4251-2.6165.3941-3.6036.3632-.9868-.031-1.9734-.0619-3.601.3627-.9438.2737-1.4884.7542-2.007 1.3672-.055.0649-.0614.1579-.0171.2306l3.1513 5.1664c.0644.1056.209.1294.307.0539.434-.3342 1.5969-1.1486 3.0708-1.5332 1.836-.479 2.935-.4683 4.0921-.4571.8962.0087 1.8273.0177 3.1628-.2001.8958-.1461 1.6271-.5355 2.0347-.7945.2073-.1318.2517-.4031.1185-.6094l-3.1769-4.9176c-.1486-.23-.4609-.2943-.6992-.1595-.5226.2958-1.5044.7809-2.8324 1.1274z" fill="url(#a)"/></svg>