<svg fill="none" xmlns="http://www.w3.org/2000/svg"><g clip-path="url(#a)"><path d="M4.44477 32c-.98133 0-1.77778-.7964-1.77778-1.7778V2.66669c0-.98133.79645-1.777774 1.77778-1.777774.98133 0 1.77778.796444 1.77778 1.777774V30.2222c0 .9814-.79645 1.7778-1.77778 1.7778Z" fill="#8899A6"/><path d="M4.44477.888916c-.98222 0-1.77778.795554-1.77778 1.777774V30.2222c0 .2454.19911.4445.44445.4445.24533 0 .44444-.1991.44444-.4445V3.92358c0-.69422.56267-1.25689 1.25689-1.25689h1.40978c0-.98222-.79556-1.777774-1.77778-1.777774Z" fill="#AAB8C2"/><path d="M4.44477 32c-.98133 0-1.77778-.7964-1.77778-1.7778V2.66669c0-.98133.79645-1.777774 1.77778-1.777774.98133 0 1.77778.796444 1.77778 1.777774V30.2222c0 .9814-.79645 1.7778-1.77778 1.7778Z" fill="#8899A6"/><path d="M4.44477.888916c-.98222 0-1.77778.795554-1.77778 1.777774V30.2222c0 .2454.19911.4445.44445.4445.24533 0 .44444-.1991.44444-.4445V3.92358c0-.69422.56267-1.25689 1.25689-1.25689h1.40978c0-.98222-.79556-1.777774-1.77778-1.777774Z" fill="#AAB8C2"/><path d="M28.7961 2.73953c-1.4791-.63911-3.0551-.95645-4.7964-.98489l-1.2222.33778-4.1112.57422-.8888-.11378c-.2107.04533-.4232.088-.632.13333-1.928.41689-3.76.79467-5.5903.87289l-.8889.88534-5.33329-.88889V20.4444h5.33329l.8889 1.7778h.0685c1.9946-.0853 3.9751-.4942 5.896-.9085l.2578-.0542.5742-.5733 4.8338-.6293.8142.3644c1.4933.0284 2.8382.2978 4.0924.8391.2747.1182.5911.0916.84-.0729.2507-.1653.4009-.4435.4009-.7431V3.55553c0-.35467-.2107-.67556-.5369-.816Z" fill="#31373D"/><path d="M11.5552 3.55916c-.2124.00889-.4249.03112-.6373.03112-1.59734 0-3.01867-.27823-4.344-.85067-.27378-.12-.59111-.09156-.84.07378-.25067.16355-.40089.44355-.40089.74222v5.33333s2.92622.88889 6.22219.88889V3.55916Zm6.2223 5.32978s-3.3334.88889-6.2223.88889v6.22227c2.6667 0 6.2223-.8889 6.2223-.8889V8.88894Zm6.2222-.88889V1.75472c-.0854-.00178-.1654-.01156-.2516-.01156-2.0151 0-4.0186.39289-5.9706.80978v6.336s1.9262-.88889 6.2222-.88889ZM5.8699 21.2605c1.33333.576 2.74666.8827 4.2844.9618h1.4009v-6.2222c-3.70397 0-6.22219-.8889-6.22219-.8889v5.3333c0 .3547.21066.6756.53689.816Zm11.9076-6.1493v6.1475c2.056-.4435 4.0097-.8489 5.9706-.8489.0862 0 .1662.0098.2516.0116v-6.1991c-4 0-6.2222.8889-6.2222.8889Zm6.2222-.8889c2.3786 0 4.2844.4978 5.3333.848V8.80716c-1.0195-.33866-2.872-.80711-5.3333-.80711v6.22225Z" fill="#E1E8ED"/></g><defs><clipPath id="a"><path fill="#fff" d="M0 0h32v32H0z"/></clipPath></defs></svg>