<svg viewBox="0 0 16 16" xmlns="http://www.w3.org/2000/svg"><path d="M14.372 13.241H1.627a1.63 1.63 0 01-1.628-1.628V.551C0 .248.248 0 .551 0H4.69c.193 0 .386.11.469.276l1.655 2.758h7.559a1.63 1.63 0 011.627 1.628v6.951c0 .91-.717 1.628-1.627 1.628zM1.103 1.103v10.51c0 .276.22.524.524.524h12.745c.276 0 .524-.22.524-.524V4.661a.524.524 0 00-.524-.524H6.51a.534.534 0 01-.469-.276L4.386 1.103H1.103z" fill="#383946"/><path d="M9.93 10.484a.545.545 0 01-.385-.166L8 8.774l-1.545 1.545a.533.533 0 01-.772 0 .533.533 0 010-.773l1.93-1.93c.221-.222.58-.222.773 0l1.931 1.93c.22.22.22.552 0 .773a.545.545 0 01-.386.165z" fill="#383946"/><path d="M8 15.448a.553.553 0 01-.552-.552V8.082c0-.303.249-.551.552-.551s.552.248.552.552v6.813a.553.553 0 01-.552.552z" fill="#383946"/></svg>