<svg viewBox="0 0 40 36" xmlns="http://www.w3.org/2000/svg"><path d="M39.522 16.163L31.303 1.869A3.611 3.611 0 0028.222.03h-16.44A3.61 3.61 0 008.7 1.87L.478 16.125a3.588 3.588 0 000 3.575l8.219 14.375a3.678 3.678 0 003.081 1.903h16.44a3.666 3.666 0 003.085-1.894l8.219-14.293a3.665 3.665 0 000-3.628z" fill="#4285F4"/><path opacity=".07" d="M29.038 11.778L19.83 8.594l-8.2 3.562-.069 2.431v3.563l.566 3.166.96 2.206 1.756 3.303 8.925 8.988h4.434a3.594 3.594 0 003.125-1.797l7.313-12.663-9.603-9.575z"/><path d="M20 18.447a2.741 2.741 0 11-.006-5.483A2.741 2.741 0 0120 18.447zm0-4.063a1.32 1.32 0 101.319 1.32A1.322 1.322 0 0020 14.386v-.003z" fill="#fff"/><path d="M20 29.656l-.169-.04c-5.062-1.232-8.893-6.303-8.893-11.807v-6.015L20 7.769l9.044 4.025v6.018c0 5.491-3.816 10.57-8.875 11.804l-.169.04zm-7.625-16.944v5.097c0 4.797 3.266 9.229 7.625 10.385 4.375-1.156 7.625-5.588 7.625-10.385v-5.097L20 9.322l-7.625 3.39z" fill="#fff"/><path d="M20.71 17.569h-1.42v6.916h1.42v-6.916z" fill="#fff"/><path d="M19.694 20.012h-2.575v1.42h2.575v-1.42zM20.203 22.044H18.06v1.418h2.144v-1.418z" fill="#fff"/></svg>