<svg enable-background="new 0 0 14 14" viewBox="0 0 14 14" xmlns="http://www.w3.org/2000/svg"><path d="m4.5 11.1-2.4-4.1 2.4-4.2h4.8l2.4 4.2-2.4 4.2h-4.8" fill="#cac9c2"/><path d="m7 8.9c-1 0-1.9-.9-1.9-1.9s.9-1.9 1.9-1.9 1.9.9 1.9 1.9-.9 1.9-1.9 1.9" fill="#fff"/><g transform="translate(25.207161)"><path d="m-14.4 1.4c-.1-.3-.5-.5-.8-.5h-5.9c-.3 0-.7.2-.8.5l-1.7 3c0 .2 0 .4.1.5l1.2 2 2.1-3.6h6.6c.2 0 .3.1.5.2z" fill="#5072aa"/><path d="m-23.6 4.3-.1.1c0 .2 0 .4.1.5l1.2 2 .6-1.1z" fill="#4d6796"/><g fill="#fff"><path d="m-21 2.5c-.2 0-.4-.2-.4-.4s.2-.4.4-.4.4.2.4.4c-.1.2-.2.4-.4.4"/><path d="m-15.1 2.1c0 .2-.1.3-.3.3s-.3-.1-.3-.3.1-.3.3-.3.3.1.3.3z"/></g></g><g transform="translate(138.475703 44.521739)"><path d="m-124.8-38-1.8-3c-.2-.1-.3-.2-.5-.2h-2.4l2.1 3.6-3.3 5.8c-.1.1-.2.2-.3.3h2.4c.3 0 .7-.2.8-.5l3-5.1c.2-.2.2-.6 0-.9" fill="#cc4232"/><path d="m-126.4-40.9-.1-.1c-.2-.1-.3-.2-.5-.2h-2.4l.6 1.1z" fill="#b23f33"/><g fill="#fff"><path d="m-128.7-32.4c-.2 0-.4-.2-.4-.4s.2-.4.4-.4.4.2.4.4c0 .3-.2.4-.4.4"/><path d="m-125.9-37.2c-.2 0-.4-.2-.4-.4s.2-.4.4-.4.4.2.4.4c0 .3-.2.4-.4.4"/></g></g><g transform="translate(0 64.491049)"><path d="m4.9-53.9-3.3-5.7c-.1-.1-.1-.4-.1-.5l-1.2 2.1c-.1.3-.1.7 0 .9l3 5.1c.1.3.5.5.8.5h3.5c.1-.1.3-.2.3-.3l1.2-2.1z" fill="#ecb02a"/><path d="m7.4-51.4h.2c.1-.1.3-.2.3-.3l1.2-2.1h-1.3z" fill="#c79732"/><g fill="#fff"><path d="m4.2-52.3c-.2 0-.4-.2-.4-.4s.2-.3.4-.3.4.2.4.4c0 .1-.2.3-.4.3"/><path d="m1.4-57.1c-.2 0-.4-.2-.4-.4s.2-.4.4-.4.4.2.4.4c-.1.2-.2.4-.4.4"/></g></g></svg>