<svg viewBox="0 0 1667 1341" xmlns="http://www.w3.org/2000/svg"><g fill-rule="nonzero" fill="none"><path d="M1058.1 369.2h50.8l144.8-144.8 7.1-61.5C991.3-75 580-49.3 342.1 220.2 276 295 228.1 384.1 201.9 480.5c16.1-6.6 34-7.7 50.8-3l289.6-47.8s14.7-24.4 22.4-22.9c128.8-141.5 345.6-158 494.4-37.6h-1z" fill="#EA4335"/><path d="M1460 480.5c-33.3-122.6-101.6-232.8-196.6-317l-203.2 203.2c85.8 70.1 134.7 175.8 132.6 286.6v36.1c99.9 0 180.9 81 180.9 180.9s-81 180.9-180.9 180.9H831l-36.1 36.6v217l36.1 36.1h361.8c259.8 2 472.1-207 474.1-466.8 1.2-157.8-76.5-305.4-206.9-393.6z" fill="#4285F4"/><path d="M468.7 1338.6h361.8V1049H468.7c-25.8 0-51.2-5.6-74.7-16.3l-50.8 15.8-145.8 144.8-12.7 50.8c81.7 61.8 181.5 95 284 94.5z" fill="#34A853"/><path d="M468.7 399.196C208.8 400.7-.5 612.6.992 872.5 1.9 1017.6 69.6 1154.2 184.7 1242.6l209.8-209.8c-91-41.1-131.5-148.3-90.4-239.3 41.1-91 148.3-131.5 239.3-90.4 40.1 18.1 72.2 50.3 90.4 90.4l209.8-209.8c-89.2-116.8-228-185.1-374.9-184.504z" fill="#FBBC05"/></g></svg>