<svg width="32" height="29" viewBox="0 0 32 29" fill="none" xmlns="http://www.w3.org/2000/svg">
<path d="M6.94762 27.0459L0.385142 15.6789C0.132831 15.2419 0 14.7462 0 14.2416C0 13.737 0.132831 13.2412 0.385142 12.8042L6.94762 1.4375C7.19997 1.00042 7.56293 0.637466 8.00002 0.385131C8.4371 0.132797 8.93291 -3.10594e-05 9.43761 5.44768e-09H22.5626C23.0672 1.28257e-05 23.563 0.132861 24 0.385194C24.4371 0.637526 24.8 1.00045 25.0523 1.4375L31.6148 12.8042C31.8671 13.2413 32 13.737 32 14.2417C32 14.7464 31.8671 15.2422 31.6148 15.6792L25.0523 27.0457C24.8 27.4827 24.4371 27.8456 24 28.098C23.563 28.3503 23.0672 28.4831 22.5626 28.4832H9.43761C8.93291 28.4832 8.43709 28.3504 8 28.0981C7.5629 27.8457 7.19995 27.4828 6.94762 27.0457V27.0459Z" fill="#FCFEFF"/>
<path opacity="0.07" d="M12.3284 11.7104L10.5759 13.4579L12.0652 14.9474L10.5907 17.5664L21.7494 28.7253L24.4534 28.7258L29.7341 19.2416L21.3724 10.8792L12.3284 11.7104Z" fill="#0278D5"/>
<path d="M21.1751 10.8092H10.8162C10.6494 10.8092 10.5132 10.9457 10.5132 11.1127V13.2542C10.5132 13.4207 10.6497 13.5572 10.8162 13.5572H21.1751C21.3419 13.5572 21.4784 13.4207 21.4784 13.2542V11.1122C21.4784 10.9457 21.3421 10.809 21.1754 10.809L21.1751 10.8092ZM19.5714 12.803C19.4072 12.8025 19.2498 12.737 19.1338 12.6208C19.0177 12.5046 18.9524 12.3472 18.9522 12.183C18.9521 12.1016 18.9681 12.0211 18.9992 11.9459C19.0303 11.8707 19.0759 11.8024 19.1334 11.7449C19.1909 11.6874 19.2592 11.6418 19.3343 11.6107C19.4095 11.5796 19.4901 11.5636 19.5714 11.5637C19.9139 11.5637 20.1914 11.8395 20.1914 12.183C20.1914 12.2644 20.1754 12.345 20.1442 12.4202C20.113 12.4954 20.0674 12.5638 20.0098 12.6214C19.9522 12.6789 19.8839 12.7246 19.8087 12.7558C19.7334 12.7869 19.6528 12.803 19.5714 12.803V12.803ZM21.1751 14.9257L10.8162 14.9262C10.6494 14.9262 10.5132 15.0627 10.5132 15.2297V17.3709C10.5132 17.5374 10.6497 17.6742 10.8162 17.6742H21.1751C21.3419 17.6742 21.4784 17.5374 21.4784 17.3709V15.2292C21.4784 15.0627 21.3421 14.9257 21.1754 14.9257H21.1751ZM19.5714 16.9197C19.4072 16.9193 19.2498 16.8538 19.1337 16.7376C19.0176 16.6214 18.9524 16.4639 18.9522 16.2997C18.9521 16.2184 18.9681 16.1378 18.9992 16.0626C19.0303 15.9875 19.0759 15.9192 19.1334 15.8617C19.1909 15.8042 19.2592 15.7585 19.3343 15.7274C19.4095 15.6963 19.4901 15.6804 19.5714 15.6804C19.6549 15.6771 19.7381 15.6906 19.8162 15.7203C19.8943 15.7499 19.9656 15.795 20.0258 15.8528C20.086 15.9107 20.134 15.9801 20.1667 16.0569C20.1994 16.1338 20.2163 16.2164 20.2163 16.2999C20.2163 16.3835 20.1994 16.4661 20.1667 16.5429C20.134 16.6198 20.086 16.6892 20.0258 16.7471C19.9656 16.8049 19.8943 16.85 19.8162 16.8796C19.7381 16.9093 19.6549 16.9228 19.5714 16.9194" fill="#0278D5"/>
</svg>
