<svg fill="none" viewBox="0 0 10 18" xmlns="http://www.w3.org/2000/svg"><path d="M1.5 0C.676 0 0 .676 0 1.5S.676 3 1.5 3c.72 0 1.328-.519 1.469-1.2h1.556a1.62 1.62 0 01-.263.562l1.52-.562H5.8v-.006l1.081-.4L4.262.43c.126.175.207.37.257.569H2.912C2.705.42 2.148 0 1.5 0zm0 3h-.4v.2h.8V3h-.4zm7-3C7.676 0 7 .676 7 1.5c0 .685.469 1.267 1.1 1.444V3h.8v-.056A1.508 1.508 0 0010 1.5C10 .676 9.324 0 8.5 0zm-7 .8c.391 0 .7.309.7.7s-.309.7-.7.7-.7-.309-.7-.7.309-.7.7-.7zm7 0c.391 0 .7.309.7.7s-.309.7-.7.7-.7-.309-.7-.7.309-.7.7-.7zm-.4 2.4v.2h.8v-.2h-.8zm-7 .2v.2h.8v-.2h-.8zm7 .2v.2h.8v-.2h-.8zm-7 .2V4h.8v-.2h-.8zm7 .2v.2h.8V4h-.8zm-7 .2v.2h.8v-.2h-.8zm7 .2v.2h.8v-.2h-.8zm-7 .2v.2h.8v-.2h-.8zm7 .2V5h.8v-.2h-.8zm-7 .2v.2h.8V5h-.8zm7 .2v.2h.8v-.2h-.8zm-7 .2v.2h.8v-.2h-.8zm7 .2v.2h.8v-.2h-.8zm-7 .2V6h.8v-.2h-.8zm7 .2v.2h.8V6h-.8zm-7 .2v.2h.8v-.2h-.8zm7 .2v.2h.8v-.2h-.8zm-7 .2v.2h.8v-.2h-.8zm7 .2V7h.8v-.2h-.8zm-7 .2v.2h.8V7h-.8zm7 .2v.2h.8v-.2h-.8zm.4.2c-.824 0-1.5.676-1.5 1.5s.676 1.5 1.5 1.5c.03 0 .058-.004.088-.006l.274.05.013-.069v-.025A1.507 1.507 0 0010 8.9c0-.824-.676-1.5-1.5-1.5zm-7.4 0v.156C.469 7.733 0 8.315 0 9s.469 1.267 1.1 1.444v.156h.8v-.156C2.531 10.267 3 9.685 3 9s-.469-1.267-1.1-1.444V7.4h-.8zm7.4.8c.391 0 .7.309.7.7s-.309.7-.7.7-.7-.309-.7-.7.309-.7.7-.7zm-7 .1c.391 0 .7.309.7.7s-.309.7-.7.7S.8 9.391.8 9s.309-.7.7-.7zm6.544 2.156l-.006.019-.007.013-.025.074-.006.026-.012.018.737.306.025-.043.006-.013v-.018l.044-.132.006-.012.006-.013v-.012l-.524-.131-.244-.082zm-.125.288l-.057.106-.012.019v.006l.031.019.607.456.03-.038.02-.024.012-.026.069-.13-.7-.388zM1.1 10.8v.2h.8v-.2h-.8zm6.656.2l-.031.031-.006.007-.094.1.569.556.131-.138.019-.018.018-.02.007-.006-.375-.28L7.756 11zm-6.656.2v.2h.8v-.2h-.8zm6.406.038l-.118.093-.007.007.444.662.037-.025.02-.013.012-.012.118-.094-.506-.618zm-.294.212l-.03.019-.113.062.387.7.144-.081.012-.006.02-.013.024-.019-.444-.662zM1.1 11.6v.2h.8v-.2h-.8zm5.812.012l-.18.088.343.719.181-.081-.344-.726zm-.343.157l-.119.05-.019.006-.037.013.281.75.05-.02h.006l.013-.006.131-.056-.306-.737zm-.363.137l-.044.019-.018.006-.106.038.243.756.125-.037.013-.007h.006l.063-.025-.282-.75zM1.1 12v.2h.8V12h-.8zm4.744.025l-.188.063.244.762.188-.062-.244-.763zm-.369.119l-.194.056.225.769.194-.057-.225-.768zm-.387.112l-.188.056.219.77.193-.057-.224-.769zm-.382.113l-.194.056.226.769.193-.056-.225-.77zM1.1 12.4v.2h.8v-.2h-.8zm3.225.081l-.087.025h-.013l-.106.038.243.762.094-.031.013-.006.075-.019-.219-.769zm-.394.125l-.193.056.25.763.187-.063-.244-.756zm-.4.125l-.187.075.281.75.187-.068-.28-.757zM1.1 12.8v.2h.8v-.2h-.8zm2.044.081l-.175.075-.007.006H2.95l-.006.007.256.537.075.188.013-.006h.006l.156-.063-.306-.744zm-.382.175l-.087.038-.013.006-.006.006-.094.056.388.694.075-.037.019-.013.062-.031-.344-.719zM1.1 13.2v.2h.8v-.2h-.8zm1.262.075l-.168.113.444.662.168-.112-.444-.663zm-.356.256l-.106.081V13.6h-.8v.2h.8v-.025l.494.475.006-.012.025-.026h.006l.081-.062-.506-.619zm-.325.3l-.006.013-.019.018-.018.02L1.55 14H1.1v.2h.65l.412.312.12-.15-.263-.193-.119-.119V14h-.05l-.169-.169zm-.293.419l-.063.119-.013.019-.006.012H1.1v.2h.5l.419.175.006-.019.013-.025.006-.012.044-.081-.188-.107V14.4h-.244l-.268-.15zm-.188.431v.013l-.006.012-.006.013-.02.081H1.1v.2h.4c-.824 0-1.5.676-1.5 1.5S.676 18 1.5 18 3 17.324 3 16.5c0-.673-.454-1.244-1.069-1.431v-.019l.007-.019v-.012l.018-.075.006-.013.007-.019-.069-.018V14.8h-.344l-.356-.119zm.3 1.119c.391 0 .7.309.7.7s-.309.7-.7.7-.7-.309-.7-.7.309-.7.7-.7z" fill="#383946"/></svg>