<?xml version="1.0" encoding="UTF-8"?>
<svg fill="none" viewBox="0 0 10 18" xmlns="http://www.w3.org/2000/svg">
<path d="m1.5 0c-0.8236 0-1.5 0.67632-1.5 1.5 0 0.8236 0.6764 1.5 1.5 1.5 0.7208 0 1.328-0.5188 1.4688-1.2h1.5562c-0.05 0.1976-0.1368 0.3916-0.2626 0.5624l1.5188-0.5624h0.0188v-0.0062l1.0812-0.4-2.6188-0.96256c0.1252 0.17426 0.2062 0.36976 0.2564 0.56876h-1.6064c-0.2076-0.58016-0.764-1-1.4124-1zm0 3h-0.4v0.2h0.8v-0.2h-0.4zm7-3c-0.8236 0-1.5 0.67632-1.5 1.5 0 0.685 0.4688 1.2668 1.1 1.4438v0.0562h0.8v-0.0562c0.6312-0.177 1.1-0.7588 1.1-1.4438 0-0.82368-0.6764-1.5-1.5-1.5zm-7 0.8c0.3914 0 0.7 0.3086 0.7 0.7s-0.3086 0.7-0.7 0.7-0.7-0.3086-0.7-0.7 0.3086-0.7 0.7-0.7zm7 0c0.3914 0 0.7 0.3086 0.7 0.7s-0.3086 0.7-0.7 0.7-0.7-0.3086-0.7-0.7 0.3086-0.7 0.7-0.7zm-0.4 2.4v0.2h0.8v-0.2h-0.8zm-7 0.2v0.2h0.8v-0.2h-0.8zm7 0.2v0.2h0.8v-0.2h-0.8zm-7 0.2v0.2h0.8v-0.2h-0.8zm7 0.2v0.2h0.8v-0.2h-0.8zm-7 0.2v0.2h0.8v-0.2h-0.8zm7 0.2v0.2h0.8v-0.2h-0.8zm-7 0.2v0.2h0.8v-0.2h-0.8zm7 0.2v0.2h0.8v-0.2h-0.8zm-7 0.2v0.2h0.8v-0.2h-0.8zm7 0.2v0.2h0.8v-0.2h-0.8zm-7 0.2v0.2h0.8v-0.2h-0.8zm7 0.2v0.2h0.8v-0.2h-0.8zm-7 0.2v0.2h0.8v-0.2h-0.8zm7 0.2v0.2h0.8v-0.2h-0.8zm-7 0.2v0.2h0.8v-0.2h-0.8zm7 0.2v0.2h0.8v-0.2h-0.8zm-7 0.2v0.2h0.8v-0.2h-0.8zm7 0.2v0.2h0.8v-0.2h-0.8zm-7 0.2v0.2h0.8v-0.2h-0.8zm7 0.2v0.2h0.8v-0.2h-0.8zm0.4 0.2c-0.8236 0-1.5 0.6764-1.5 1.5s0.6764 1.5 1.5 1.5c0.03 0 0.0578-0.0044 0.0876-0.0062l0.2748 0.05 0.0126-0.0688v-0.025c0.6438-0.1684 1.125-0.756 1.125-1.45 0-0.8236-0.6764-1.5-1.5-1.5zm-7.4 0v0.1562c-0.6312 0.177-1.1 0.7588-1.1 1.4438s0.4688 1.2668 1.1 1.4438v0.1562h0.8v-0.1562c0.6312-0.177 1.1-0.7588 1.1-1.4438s-0.4688-1.2668-1.1-1.4438v-0.1562h-0.8zm7.4 0.8c0.3914 0 0.7 0.3086 0.7 0.7s-0.3086 0.7-0.7 0.7-0.7-0.3086-0.7-0.7 0.3086-0.7 0.7-0.7zm-7 0.1c0.3914 0 0.7 0.3086 0.7 0.7s-0.3086 0.7-0.7 0.7-0.7-0.3086-0.7-0.7 0.3086-0.7 0.7-0.7zm6.5438 2.1562-0.0062 0.0188-0.0064 0.0126-0.025 0.0748-0.0062 0.0252-0.0124 0.0186 0.7374 0.3062 0.025-0.0436 0.0062-0.0126v-0.0186l0.0438-0.1314 0.0062-0.0124 0.0062-0.0126v-0.0124l-0.5248-0.1312-0.2438-0.0814zm-0.125 0.2876-0.0564 0.1062-0.0124 0.0188v0.0062l0.0312 0.0188 0.6064 0.4562 0.0312-0.0376 0.0188-0.0248 0.0124-0.0252 0.0688-0.1312-0.7-0.3874zm-6.8188 0.0562v0.2h0.8v-0.2h-0.8zm6.6562 0.2-0.0312 0.0312-0.0062 0.0064-0.0938 0.1 0.5688 0.5562 0.1312-0.1376 0.0188-0.0186 0.0186-0.0188 0.0064-0.0064-0.375-0.2812-0.2376-0.2312zm-6.6562 0.2v0.2h0.8v-0.2h-0.8zm6.4062 0.0376-0.1186 0.0936-0.0064 0.0064 0.4438 0.6624 0.0374-0.025 0.0188-0.0126 0.0126-0.0124 0.1186-0.0938-0.5062-0.6186zm-0.2938 0.2124-0.0312 0.0188-0.1124 0.0624 0.3874 0.7 0.1438-0.0812 0.0124-0.0062 0.0188-0.0126 0.025-0.0188-0.4438-0.6624zm-6.1124 0.15v0.2h0.8v-0.2h-0.8zm5.8124 0.0124-0.1812 0.0876 0.3438 0.7188 0.1812-0.0812-0.3438-0.7252zm-0.3436 0.1564-0.1188 0.05-0.0188 0.0062-0.0374 0.0126 0.2812 0.75 0.05-0.0188h0.0062l0.0126-0.0064 0.1312-0.0562-0.3062-0.7374zm-0.3626 0.1374-0.0438 0.0188-0.0186 0.0062-0.1062 0.0376 0.2436 0.7562 0.125-0.0374 0.0126-0.0064h0.0062l0.0626-0.025-0.2814-0.75zm-5.1062 0.0938v0.2h0.8v-0.2h-0.8zm4.7438 0.025-0.1876 0.0626 0.2438 0.7624 0.1876-0.0624-0.2438-0.7626zm-0.3688 0.1188-0.1938 0.0562 0.225 0.7688 0.1938-0.0564-0.225-0.7686zm-0.3874 0.1124-0.1876 0.0562 0.2188 0.7688 0.1936-0.0562-0.2248-0.7688zm-0.3814 0.1126-0.1938 0.0562 0.2252 0.7688 0.1936-0.0562-0.225-0.7688zm-3.6062 0.0312v0.2h0.8v-0.2h-0.8zm3.225 0.0812-0.0874 0.025h-0.0126l-0.1062 0.0376 0.2436 0.7624 0.0938-0.0312 0.0126-0.0062 0.075-0.0188-0.2188-0.7688zm-0.3938 0.125-0.1936 0.0562 0.25 0.7626 0.1874-0.0626-0.2438-0.7562zm-0.4 0.125-0.1874 0.075 0.2812 0.75 0.1874-0.0686-0.2812-0.7564zm-2.4312 0.0688v0.2h0.8v-0.2h-0.8zm2.0438 0.0812-0.175 0.075-0.0064 0.0062h-0.0124l-0.0062 0.0064 0.2562 0.5374 0.075 0.1876 0.0126-0.0062h0.0062l0.1562-0.0626-0.3062-0.7438zm-0.3814 0.175-0.0874 0.0376-0.0126 0.0062-0.0062 0.0062-0.0938 0.0562 0.3876 0.6938 0.075-0.0374 0.0188-0.0126 0.0624-0.0312-0.3438-0.7188zm-1.6624 0.1438v0.2h0.8v-0.2h-0.8zm1.2624 0.075-0.1686 0.1126 0.4438 0.6624 0.1686-0.1124-0.4438-0.6626zm-0.3562 0.2562-0.1062 0.0812v-0.0124h-0.8v0.2h0.8v-0.025l0.4938 0.475 0.0062-0.0124 0.025-0.0252h0.0062l0.0812-0.0624-0.5062-0.6188zm-0.325 0.3-0.0062 0.0126-0.0188 0.0186-0.0186 0.0188-0.0876 0.1188h-0.45v0.2h0.65l0.4124 0.3124 0.1188-0.15-0.2624-0.1936-0.1188-0.1188v-0.05h-0.05l-0.1688-0.1688zm-0.2936 0.4188-0.0626 0.1188-0.0126 0.0188-0.0062 0.0124h-0.2062v0.2h0.5l0.4188 0.175 0.0062-0.0188 0.0126-0.025 0.0062-0.0124 0.0438-0.0812-0.1876-0.1064v-0.1312h-0.2438l-0.2686-0.15zm-0.1876 0.4312v0.0126l-0.0062 0.0124-0.0062 0.0126-0.0188 0.0812h-0.0688v0.2h0.4c-0.8236 0-1.5 0.6764-1.5 1.5s0.6764 1.5 1.5 1.5 1.5-0.6764 1.5-1.5c0-0.6734-0.4536-1.244-1.0688-1.4312v-0.0188l0.0064-0.0188v-0.0124l0.0186-0.075 0.0062-0.0126 0.0064-0.0188-0.0688-0.0186v-0.0938h-0.3438l-0.3562-0.1188zm0.3 1.1188c0.3914 0 0.7 0.3086 0.7 0.7s-0.3086 0.7-0.7 0.7-0.7-0.3086-0.7-0.7 0.3086-0.7 0.7-0.7z" fill="#383946"/>
</svg>
