<svg viewBox="0 0 106 60" fill="none" xmlns="http://www.w3.org/2000/svg"><path opacity=".9" d="M105.998 8.85c0-4.859-3.982-8.85-8.833-8.85-4.85 0-8.833 3.991-8.833 8.85 0 4.86 3.984 8.85 8.833 8.85 4.851 0 8.833-3.99 8.833-8.85zm-17.666 0V6.49h-1.177v4.72h1.177V8.85zm17.666 41.3c0-4.859-3.982-8.85-8.833-8.85-3.969 0-7.364 2.672-8.465 6.306-2.96-.527-4.854-2.276-6.588-5.125-2.098-3.45-3.57-8.482-5.042-13.644-1.472-5.162-2.944-10.455-5.557-14.75a18.353 18.353 0 00-2.172-2.876h.148v-4.72H68.31v3.688a15.276 15.276 0 00-1.178-.996l.001-2.692h-1.178V8.41a13.708 13.708 0 00-1.177-.627v-1.29H63.6v.81a13.287 13.287 0 00-1.178-.368V6.49h-.92C60.461 2.766 57.035 0 53.001 0s-7.46 2.765-8.502 6.49h-.92v4.72h.92c1.042 3.724 4.468 6.49 8.502 6.49 3.93 0 7.294-2.618 8.428-6.195 2.647.64 4.412 2.345 6.036 5.015 2.098 3.449 3.57 8.481 5.042 13.643 1.473 5.163 2.945 10.455 5.558 14.75a17.7 17.7 0 003.202 3.91v3.687h1.178v-2.692c.374.277.776.535 1.178.775v1.917H84.8v-1.29c.382.18.774.334 1.178.479v.811h1.178v-.442c.384.099.775.191 1.178.258v.184h.33c1.043 3.724 4.47 6.49 8.503 6.49 4.85 0 8.833-3.99 8.833-8.85h-.002zm-4.71-41.3a4.09 4.09 0 01-4.123 4.13c-2.304 0-4.122-1.82-4.122-4.13 0-2.309 1.818-4.13 4.122-4.13a4.09 4.09 0 014.123 4.13zm0 41.3a4.09 4.09 0 01-4.123 4.13c-2.304 0-4.122-1.82-4.122-4.13 0-2.309 1.818-4.13 4.122-4.13a4.091 4.091 0 014.123 4.13zM85.977 6.49h-1.178v4.72h1.178V6.49zm-2.356 0h-1.177v4.72h1.177V6.49zm-2.355 0h-1.178v4.72h1.178V6.49zm-1.178 41.3h-1.177v4.72h1.177v-4.72zm-1.177-41.3h-1.178v4.72h1.177V6.49zm-1.178 41.3h-1.178v4.72h1.178v-4.72zm-1.178-41.3h-1.178v4.72h1.178V6.49zm-1.178 41.3H74.2v4.72h1.177v-4.72zM74.2 6.49h-1.178v4.72h1.177V6.49zm-1.178 41.3h-1.178v4.72h1.178v-4.72zm-1.178-41.3h-1.178v4.72h1.178V6.49zm-1.178 41.3H69.49v4.72h1.177v-4.72zm-2.355 0h-1.178v4.72h1.178v-4.72zm-2.356 0h-1.177v4.72h1.177v-4.72zm-2.355 0h-1.178v4.72H63.6v-4.72zm-1.178 2.36c0-4.86-3.982-8.85-8.833-8.85-4.85 0-8.833 3.99-8.833 8.85 0 .178.026.342.037.517l-.294 1.622.404.074h.148C46.041 56.16 49.502 59 53.588 59c4.85 0 8.833-3.99 8.833-8.85v.002zm-4.71 0c0 2.31-1.818 4.13-4.123 4.13s-4.122-1.82-4.122-4.13c0-2.309 1.817-4.13 4.122-4.13 2.305 0 4.122 1.821 4.122 4.13zm-.59-41.3c0 2.31-1.817 4.13-4.122 4.13-2.304 0-4.122-1.82-4.122-4.13A4.092 4.092 0 0153 4.72c2.305 0 4.122 1.822 4.122 4.13zM44.425 47.46l-.11-.037-.074-.037-.441-.147-.148-.037-.11-.074-1.803 4.351.257.148.074.037h.11l.774.257.074.037.073.037h.074l.773-3.098.477-1.437zm-1.693-.738l-.626-.331-.11-.074h-.037l-.11.184-2.687 3.577.221.184.147.111.148.074.772.406 2.282-4.13zM42.4 6.492h-1.178v4.72H42.4V6.49zm-1.178 39.271l-.184-.184-.036-.037-.59-.553-3.275 3.355.81.775.11.11.11.111.037.037 1.657-2.212 1.361-1.402zM40.045 6.491h-1.178v4.72h1.178V6.49zm-.222 37.796l-.551-.7-.038-.037-3.9 2.618.147.221.073.111.074.074.552.7 3.643-2.987zm-1.251-1.733l-.11-.184-.369-.664-4.122 2.286.478.847.037.074.074.11.11.148 3.902-2.617zm-.884-36.063h-1.177v4.72h1.177V6.49zm-.073 34.293l-.515-1.07-4.233 2.03.478 1.068 4.27-2.028zm-.92-2.028l-.294-.7-.037-.111-.073-.222-4.417 1.66.11.295v.037l.037.073.331.775 4.343-1.807zm-.81-2.139l-.11-.258-.037-.11-.22-.628-4.454 1.439.221.737.037.074v.037l.147.368 4.417-1.659zm-.553-30.125h-1.178v4.72h1.178v-4.72zm-.147 27.988l-.368-1.106-4.49 1.437.368 1.107 4.49-1.438zm-.7-2.176l-.33-1.143-4.528 1.327.332 1.144 4.526-1.328zm-.662-2.286l-.33-1.106-4.528 1.29.331 1.143 4.527-1.326zm-.662-2.249l-.331-1.143-4.527 1.328.331 1.143 4.527-1.328zm-.184-21.278H31.8v4.72h1.177v-4.72zM32.5 25.52l-.147-.516v-.074l-.221-.627-4.49 1.438.184.553.037.074.11.443L32.5 25.52zm-.736-2.323l-.332-1.143-4.49 1.475.368 1.106 4.454-1.438zm-.736-2.36l-.442-1.106-4.416 1.659.404 1.106 4.454-1.66zm-.405-14.344h-1.178v4.72h1.178v-4.72zm-.479 12.058l-.442-1.032-.036-.037v-.074l-.037-.037-3.165 1.512-1.105.442.037.074v.037l.368.922 4.38-1.807zm-1.03-2.25l-.221-.516-.037-.073-.037-.037-.331-.553-4.085 2.286.22.442.074.111.184.369 4.233-2.028zm-.847-9.809h-1.178v4.72h1.178v-4.72zm-.442 7.45l-.662-.997-3.902 2.619.663.995 3.901-2.618zm-1.509-2.102l-.478-.627h.073v-4.72h-1.177v4.72h.147l-2.797 2.913.073.037.147.147v.037l.368.48 3.644-2.987zM24.55 9.92l-.074-.036-.11-.111-.11-.11-.7-.517V6.492h-1.178v3.835l-1.84 2.434.883.7 1.141-1.548.698-.701h.295v-.295l.995-.996zm-2.467-1.73l-.7-.37-.11-.074-.074-.036V6.492h-1.177v2.95l-1.031 2.47.11.038.148.073.073.037.478.259.627-1.107h.773V9.773l.883-1.584zm-3.24-1.291v-.406h-2.355l1.178 2.36c0-4.86-3.983-8.85-8.833-8.85S0 3.992 0 8.852s3.983 8.85 8.833 8.85c3.966 0 7.325-2.677 8.428-6.306 0-.101.052-.123.053-.184h1.53V6.898zm-5.888 1.954c0 2.31-1.817 4.13-4.122 4.13-2.305 0-4.122-1.82-4.122-4.13 0-2.31 1.817-4.13 4.122-4.13 2.305 0 4.122 1.82 4.122 4.13z" fill="#3E7BFA"/></svg>