<?xml version="1.0" encoding="UTF-8"?>
<svg width="16" height="16" version="1.1" viewBox="0 0 4.2333 4.2333" xmlns="http://www.w3.org/2000/svg">
 <g transform="matrix(.16683 0 0 .16683 -.30238 -.30238)" fill="none">
  <path d="m21.75 12.688c-1.3358 0-2.4922 0.7341-3.1211 1.8125h-3.2227c-3.3676 0-6.1044-2.6462-6.3056-5.9631 1.0585-0.63257 1.7744-1.7799 1.7744-3.0994 0-1.9992-1.6258-3.625-3.625-3.625s-3.625 1.6258-3.625 3.625c0 1.3358 0.73406 2.4922 1.8125 3.1211v11.883c-1.0784 0.6289-1.8125 1.7853-1.8125 3.1211 0 1.9992 1.6258 3.625 3.625 3.625s3.625-1.6258 3.625-3.625c0-1.3358-0.7341-2.4922-1.8125-3.1211v-4.602c1.7255 1.4265 3.9368 2.2856 6.3437 2.2856h3.2227c0.6289 1.0784 1.7853 1.8125 3.1211 1.8125 1.9992 0 3.625-1.6258 3.625-3.625s-1.6258-3.625-3.625-3.625zm-14.5-9.0625c0.99869 0 1.8125 0.81381 1.8125 1.8125s-0.81381 1.8125-1.8125 1.8125-1.8125-0.81381-1.8125-1.8125 0.81381-1.8125 1.8125-1.8125zm0 21.75c-0.99869 0-1.8125-0.812-1.8125-1.8125s0.81381-1.8125 1.8125-1.8125 1.8125 0.812 1.8125 1.8125-0.81381 1.8125-1.8125 1.8125zm14.5-7.25c-1.0005 0-1.8125-0.812-1.8125-1.8125 0-0.9987 0.812-1.8125 1.8125-1.8125s1.8125 0.8138 1.8125 1.8125c0 1.0005-0.812 1.8125-1.8125 1.8125z" fill="#138ffd"/>
 </g>
</svg>
