<svg xmlns="http://www.w3.org/2000/svg" fill="none" viewBox="0 0 28 32"><defs/><path fill="#4F5162" d="M22.8571 13.7143c-1.6845 0-3.1428.9257-3.936 2.2857h-4.064c-4.2468 0-7.69824-3.3371-7.95196-7.52C8.24 7.68229 9.14286 6.23543 9.14286 4.57143 9.14286 2.05029 7.09257 0 4.57143 0 2.05029 0 0 2.05029 0 4.57143c0 1.68457.925714 3.14286 2.28571 3.936V23.4926C.925714 24.2857 0 25.744 0 27.4286 0 29.9497 2.05029 32 4.57143 32c2.52114 0 4.57143-2.0503 4.57143-4.5714 0-1.6846-.92572-3.1429-2.28572-3.936v-5.8035c2.176 1.7989 4.96456 2.8823 7.99996 2.8823h4.064c.7932 1.36 2.2515 2.2857 3.936 2.2857 2.5212 0 4.5715-2.0502 4.5715-4.5714 0-2.5211-2.0503-4.5714-4.5715-4.5714zM4.57143 2.28571c1.25943 0 2.28571 1.02629 2.28571 2.28572S5.83086 6.85714 4.57143 6.85714c-1.25943 0-2.28572-1.02628-2.28572-2.28571 0-1.25943 1.02629-2.28572 2.28572-2.28572zm0 27.42859c-1.25943 0-2.28572-1.024-2.28572-2.2857 0-1.2617 1.02629-2.2857 2.28572-2.2857s2.28571 1.024 2.28571 2.2857c0 1.2617-1.02628 2.2857-2.28571 2.2857zm18.28567-9.1429c-1.2617 0-2.2857-1.024-2.2857-2.2857 0-1.2594 1.024-2.2857 2.2857-2.2857 1.2618 0 2.2858 1.0263 2.2858 2.2857 0 1.2617-1.024 2.2857-2.2858 2.2857z"/></svg>