<svg xmlns="http://www.w3.org/2000/svg" fill="none" viewBox="0 0 28 32"><path fill="#4F5162" d="M22.857 13.714c-1.684 0-3.143.926-3.936 2.286h-4.064c-4.247 0-7.698-3.337-7.952-7.52 1.335-.798 2.238-2.245 2.238-3.909A4.576 4.576 0 004.57 0 4.576 4.576 0 000 4.571c0 1.685.926 3.143 2.286 3.936v14.986C.926 24.286 0 25.744 0 27.429A4.576 4.576 0 004.571 32a4.576 4.576 0 004.572-4.571c0-1.685-.926-3.143-2.286-3.936v-5.804a12.519 12.519 0 008 2.882h4.064c.793 1.36 2.252 2.286 3.936 2.286a4.576 4.576 0 004.572-4.571 4.576 4.576 0 00-4.572-4.572zM4.571 2.286c1.26 0 2.286 1.026 2.286 2.285S5.831 6.857 4.571 6.857a2.29 2.29 0 01-2.285-2.286A2.29 2.29 0 014.57 2.286zm0 27.428a2.288 2.288 0 01-2.285-2.285c0-1.262 1.026-2.286 2.285-2.286s2.286 1.024 2.286 2.286a2.288 2.288 0 01-2.286 2.285zm18.286-9.143a2.287 2.287 0 010-4.571 2.287 2.287 0 010 4.571z"/></svg>