<svg enable-background="new 0 0 14 14" viewBox="0 0 14 14" xmlns="http://www.w3.org/2000/svg"><path d="m8.9 11.5c-.2-.5-.5-1-.7-1.6 0 0 0-.1.1-.2.7-.6 1-1.4 1-2.3 0-1.9-1.5-3.3-3.4-3.2-.2 0-.2 0-.3-.2-.2-.4-.4-.8-.6-1.3 1.7-.5 4.4.1 5.6 2.6 1.1 2.3.3 5-1.7 6.2z" fill="#fff"/><path d="m6.6 10.6c-1.3.3-2.8-.5-3.4-1.8-.5-1.3-.2-3 .9-3.8.9 1.9 1.7 3.7 2.5 5.6z" fill="#fff"/><path d="m13.6 6.4-6-6c-.3-.3-.9-.3-1.2 0l-1.3 1.2 1.6 1.6c.4-.1.8 0 1.1.3s.4.7.2 1.1l1.5 1.5c.4-.1.8 0 1.1.2.4.4.4 1.1 0 1.5s-1.1.4-1.5 0c-.3-.3-.3-.7-.2-1.1l-1.4-1.4v3.7c.1 0 .2.1.3.2.4.4.4 1.1 0 1.5s-1.1.4-1.5 0-.4-1.1 0-1.5c.1-.1.2-.2.3-.2v-3.8c-.1-.1-.2-.1-.3-.2-.3-.4-.4-.8-.2-1.2l-1.6-1.5-4.1 4.1c-.3.3-.3.9 0 1.2l6 6c.3.3.9.3 1.2 0l6-6c.3-.3.3-.9 0-1.2z" fill="#f42534"/></svg>