<svg fill="none" height="23" width="24" xmlns="http://www.w3.org/2000/svg"><g clip-rule="evenodd" fill-rule="evenodd"><path d="M12 22.108l4.42-13.6H7.58z" fill="#e24329"/><path d="M12 22.108l-4.42-13.6H1.389z" fill="#fc6d26"/><path d="M1.388 8.508L.045 12.641a.915.915 0 00.332 1.023L12 22.109z" fill="#fca326"/><path d="M1.388 8.508H7.58L4.919.316a.457.457 0 00-.87 0z" fill="#e24329"/><path d="M12 22.108l4.42-13.6h6.192z" fill="#fc6d26"/><path d="M22.612 8.508l1.343 4.133a.915.915 0 01-.332 1.023L12 22.109z" fill="#fca326"/><path d="M22.612 8.508H16.42L19.081.316a.457.457 0 01.87 0z" fill="#e24329"/></g></svg>