<svg fill="none" height="23" viewBox="0 0 24 23" width="24" xmlns="http://www.w3.org/2000/svg"><g clip-rule="evenodd" fill-rule="evenodd"><path d="m12 22.1085 4.4191-13.60044h-8.83817z" fill="#e24329"/><path d="m12 22.1085-4.41909-13.60044h-6.19321z" fill="#fc6d26"/><path d="m1.38772 8.50806-1.3428733 4.13304c-.1224851.3769.0116652.7899.3323453 1.0229l11.622808 8.4445z" fill="#fca326"/><path d="m1.3877 8.50752h6.19321l-2.66162-8.1914c-.13689-.42155-.73319-.421436-.87009 0z" fill="#e24329"/><path d="m12 22.1085 4.4191-13.60044h6.1932z" fill="#fc6d26"/><path d="m22.6123 8.50806 1.3429 4.13304c.1224.3769-.0117.7899-.3324 1.0229l-11.6228 8.4445z" fill="#fca326"/><path d="m22.6123 8.50752h-6.1932l2.6616-8.1914c.1369-.42155.7332-.421436.8701 0z" fill="#e24329"/></g></svg>