<svg viewBox="0 0 20 19" fill="none" xmlns="http://www.w3.org/2000/svg"><path d="M15.657 0a.436.436 0 00-.42.3l-2.161 6.656H6.925L4.762.301a.438.438 0 00-.657-.226.438.438 0 00-.164.207L1.335 7.235c-.002 0-.002.002-.003.003L.027 10.716a.435.435 0 00.153.505l9.562 6.953.002.003.001.002.018.01c.006.004.011.009.018.012.002 0 .002.002.003.002l.004.001c.002.002.003.004.006.004l.007.005.03.012v.002l.028.01.004.001.021.007.013.002c0 .002 0 .002 0 0 .008.003.017.005.025.006l.034.006.053.001c.017-.001.032-.001.047-.005.007 0 .012 0 .019-.002h.003l.009-.001c.001 0 .003-.002.007-.002.003-.001.008-.001.011-.003a.205.205 0 00.018-.005c.003 0 .005 0 .006-.002h.005a.284.284 0 00.045-.019l.003-.002.005-.001.01-.005a.387.387 0 00.027-.016l.007-.004.005-.002.02-.014.004-.005 9.562-6.951a.436.436 0 00.15-.504l-1.3-3.467a.03.03 0 01-.004-.012L16.06.282A.435.435 0 0015.658 0zM2.637 7.826h3.656l2.545 7.833-6.2-7.833zm11.07 0h3.655l-6.2 7.833 2.545-7.833zm-11.832.438L7.69 15.61.96 10.713l.916-2.449zm16.25 0l.917 2.45-6.732 4.895 5.815-7.345z" fill="#4F5162"/></svg>