<svg xmlns="http://www.w3.org/2000/svg" fill="none" viewBox="0 0 53 51"><path fill-rule="evenodd" clip-rule="evenodd" d="M4.71 7.028c.086.048.182.1.29.152.995.49 2.565.988 4.668 1.426 4.173.87 10.03 1.422 16.563 1.422 6.532 0 12.39-.553 16.562-1.422 2.103-.438 3.672-.935 4.668-1.426a6.3 6.3 0 0 0 .29-.152 6.3 6.3 0 0 0-.29-.152c-.995-.49-2.565-.987-4.668-1.425-4.173-.87-10.03-1.423-16.563-1.423-6.532 0-12.39.553-16.562 1.423-2.103.438-3.673.935-4.668 1.425a6.288 6.288 0 0 0-.29.152zm4.142-5.493C13.365.595 19.509.028 26.23.028c6.722 0 12.866.567 17.379 1.507 2.24.467 4.185 1.047 5.62 1.753.712.351 1.403.783 1.94 1.331.545.555 1.062 1.367 1.062 2.41 0 .522-.13.987-.328 1.39l-3.904 36.17.001.074c0 .985-.488 1.741-.98 2.241-.484.494-1.096.874-1.708 1.175-1.231.607-2.884 1.097-4.762 1.488-3.79.79-8.933 1.263-14.55 1.263-5.617 0-10.76-.473-14.55-1.263-1.878-.39-3.53-.881-4.762-1.488-.612-.301-1.224-.681-1.709-1.175-.365-.371-.728-.884-.89-1.528l-.016.002-.013-.123a2.905 2.905 0 0 1-.06-.592v-.01L.27 7.52a3.093 3.093 0 0 1-.04-.492c0-1.042.517-1.854 1.061-2.409.538-.548 1.229-.98 1.942-1.331 1.433-.706 3.379-1.286 5.619-1.753zm34.757 10.987c1.46-.304 2.793-.656 3.942-1.06l-3.535 32.76c-.1.069-.252.16-.471.269-.793.39-2.07.798-3.81 1.16-3.45.72-8.307 1.179-13.735 1.179-5.428 0-10.285-.46-13.734-1.178-1.741-.363-3.018-.77-3.81-1.161a3.704 3.704 0 0 1-.48-.275L4.677 11.379c1.2.438 2.616.818 4.175 1.143 4.513.94 10.657 1.506 17.378 1.506 6.722 0 12.866-.566 17.379-1.506zm-14.496 9.366a2 2 0 1 0-3.926-.769l-2.764 14.12a2 2 0 1 0 3.926.768l2.764-14.12zm3.673-.34a2 2 0 0 1 2.827-.092l5.528 5.177a2 2 0 0 1 .116 2.8l-5.527 6.119a2 2 0 1 1-2.968-2.682l4.21-4.66-4.093-3.835a2 2 0 0 1-.093-2.827zm-16.648-.063a2 2 0 1 1 2.795 2.86l-4.126 4.034 4.187 4.464a2 2 0 0 1-2.917 2.736l-5.528-5.893a2 2 0 0 1 .061-2.799l5.528-5.402z" fill="#4F5162"/></svg>