<svg viewBox="0 0 8 10" fill="none" xmlns="http://www.w3.org/2000/svg">
<path fill-rule="evenodd" clip-rule="evenodd" d="M3.20901 8.79862C3.21125 8.78206 3.2124 8.76516 3.2124 8.74799C3.2124 8.54088 3.04451 8.37299 2.8374 8.37299C2.63029 8.37299 2.4624 8.54088 2.4624 8.74799C2.4624 8.76407 2.46341 8.77991 2.46538 8.79546C2.44138 9.18803 2.1154 9.49898 1.7168 9.49898C1.30258 9.49898 0.966797 9.16319 0.966797 8.74898V3.49414L0.966826 3.49057C0.966826 1.83892 2.30575 0.5 3.9574 0.5C5.5687 0.5 6.88237 1.77431 6.94558 3.37012L6.94821 3.37009V8.62493C6.94821 8.64632 6.94732 8.66751 6.94556 8.68845C6.94715 8.70842 6.94797 8.72861 6.94797 8.74899C6.94797 9.16321 6.61218 9.49899 6.19797 9.49899C5.81339 9.49899 5.49641 9.20953 5.45303 8.83659C5.45708 8.81451 5.4592 8.79175 5.4592 8.76849C5.4592 8.56139 5.2913 8.39349 5.0842 8.39349C4.87709 8.39349 4.7092 8.56139 4.7092 8.76849C4.7092 8.7835 4.71008 8.7983 4.71179 8.81285C4.67939 9.19718 4.35718 9.49899 3.96447 9.49899L3.96093 9.49899L3.9574 9.49899C3.55986 9.49899 3.23456 9.1897 3.20901 8.79862ZM6.25925 3.54938C6.25925 3.96359 5.92346 4.29938 5.50925 4.29938C5.09504 4.29938 4.75925 3.96359 4.75925 3.54938C4.75925 3.13517 5.09504 2.79938 5.50925 2.79938C5.92346 2.79938 6.25925 3.13517 6.25925 3.54938ZM3.29602 3.58399C3.29602 3.9982 2.96023 4.33399 2.54602 4.33399C2.13181 4.33399 1.79602 3.9982 1.79602 3.58399C1.79602 3.16977 2.13181 2.83399 2.54602 2.83399C2.96023 2.83399 3.29602 3.16977 3.29602 3.58399Z" fill="#FCC026"/>
</svg>
