<svg fill="none" xmlns="http://www.w3.org/2000/svg" viewBox="0 0 24 24"><path fill-rule="evenodd" clip-rule="evenodd" d="M15.26 8.009a1.824 1.824 0 1 0 0 3.648 1.824 1.824 0 0 0 0-3.648Zm-2.823 1.824a2.824 2.824 0 1 1 5.648 0 2.824 2.824 0 0 1-5.649 0Z" fill="#4F5162"/><path fill-rule="evenodd" clip-rule="evenodd" d="M17.759 11.046v5.451a.5.5 0 0 1-.82.384l-1.485-1.238-1.623 1.25a.5.5 0 0 1-.805-.396v-5.239h1v4.223l1.136-.875a.5.5 0 0 1 .625.012l.972.81v-4.382h1Z" fill="#4F5162"/><path fill-rule="evenodd" clip-rule="evenodd" d="M19.997 5.05H3.955v13.931h16.042V5.051Zm-16.042-1h16.042a1 1 0 0 1 1 1v13.931a1 1 0 0 1-1 1H3.955a1 1 0 0 1-1-1V5.051a1 1 0 0 1 1-1Z" fill="#4F5162"/><path fill-rule="evenodd" clip-rule="evenodd" d="M5.54 8.485a.5.5 0 0 1 .5-.5h4.514a.5.5 0 1 1 0 1H6.04a.5.5 0 0 1-.5-.5ZM5.54 11.563a.5.5 0 0 1 .5-.5h4.514a.5.5 0 1 1 0 1H6.04a.5.5 0 0 1-.5-.5Z" fill="#4F5162"/></svg>