<svg xmlns="http://www.w3.org/2000/svg" fill="none" viewBox="0 0 64 64"><path fill-rule="evenodd" clip-rule="evenodd" d="M41.991 10.004c-6.627 0-12 5.373-12 12s5.373 12 12 12 12-5.373 12-12c0-6.628-5.373-12-12-12zm-16 12c0-8.837 7.163-16 16-16s16 7.163 16 16c0 8.836-7.163 16-16 16a15.96 15.96 0 0 1-6.14-1.22v5.23a2 2 0 0 1-2 2h-5.82v3.59a2 2 0 0 1-2 2h-4.04v4.614a2 2 0 0 1-2 2H8.82a2 2 0 0 1-2-2v-6.615a2 2 0 0 1 .586-1.414L26.74 26.856a15.993 15.993 0 0 1-.749-4.852zm2.565 8.693L10.821 48.432v3.786h7.17v-4.615a2 2 0 0 1 2-2h4.04v-3.59a2 2 0 0 1 2-2h5.82v-5.631a16.088 16.088 0 0 1-3.295-3.685zm15.025-13.535a3 3 0 1 0 0 6 3 3 0 0 0 0-6zm-7 3a7 7 0 1 1 14 0 7 7 0 0 1-14 0z" fill="#4F5162"/></svg>