<svg viewBox="0 0 12 12" fill="none" xmlns="http://www.w3.org/2000/svg">
<path fill-rule="evenodd" clip-rule="evenodd" d="M5.20901 9.79862C5.21125 9.78206 5.2124 9.76516 5.2124 9.74799C5.2124 9.54088 5.04451 9.37299 4.8374 9.37299C4.63029 9.37299 4.4624 9.54088 4.4624 9.74799C4.4624 9.76407 4.46341 9.77991 4.46538 9.79546C4.44138 10.188 4.1154 10.499 3.7168 10.499C3.30258 10.499 2.9668 10.1632 2.9668 9.74898V4.49414L2.96683 4.49057C2.96683 2.83892 4.30575 1.5 5.9574 1.5C7.5687 1.5 8.88237 2.77431 8.94558 4.37012L8.94821 4.37009V9.62493C8.94821 9.64632 8.94732 9.66751 8.94556 9.68845C8.94715 9.70842 8.94797 9.72861 8.94797 9.74899C8.94797 10.1632 8.61218 10.499 8.19797 10.499C7.81339 10.499 7.49641 10.2095 7.45303 9.83659C7.45708 9.81451 7.4592 9.79175 7.4592 9.76849C7.4592 9.56139 7.2913 9.39349 7.0842 9.39349C6.87709 9.39349 6.7092 9.56139 6.7092 9.76849C6.7092 9.7835 6.71008 9.7983 6.71179 9.81285C6.67939 10.1972 6.35718 10.499 5.96447 10.499L5.96093 10.499L5.9574 10.499C5.55986 10.499 5.23456 10.1897 5.20901 9.79862ZM8.25925 4.54938C8.25925 4.96359 7.92346 5.29938 7.50925 5.29938C7.09504 5.29938 6.75925 4.96359 6.75925 4.54938C6.75925 4.13517 7.09504 3.79938 7.50925 3.79938C7.92346 3.79938 8.25925 4.13517 8.25925 4.54938ZM5.29602 4.58399C5.29602 4.9982 4.96023 5.33399 4.54602 5.33399C4.13181 5.33399 3.79602 4.9982 3.79602 4.58399C3.79602 4.16977 4.13181 3.83399 4.54602 3.83399C4.96023 3.83399 5.29602 4.16977 5.29602 4.58399Z" fill="#FCC026"/>
</svg>
