<svg viewBox="0 0 12 12" fill="none" xmlns="http://www.w3.org/2000/svg">
<path fill-rule="evenodd" clip-rule="evenodd" d="M2.45703 1.49609C1.90475 1.49609 1.45703 1.94381 1.45703 2.49609V9.49609C1.45703 10.0484 1.90475 10.4961 2.45703 10.4961H9.45703C10.0093 10.4961 10.457 10.0484 10.457 9.49609V2.49609C10.457 1.94381 10.0093 1.49609 9.45703 1.49609H2.45703ZM5.95703 3.36743C5.33571 3.36743 4.83203 3.87111 4.83203 4.49243C4.83203 4.69954 4.66414 4.86743 4.45703 4.86743C4.24992 4.86743 4.08203 4.69954 4.08203 4.49243C4.08203 3.4569 4.9215 2.61743 5.95703 2.61743C6.99257 2.61743 7.83203 3.4569 7.83203 4.49243C7.83203 4.92535 7.71819 5.25748 7.51858 5.51393C7.326 5.76136 7.0778 5.90562 6.87763 6.00788C6.80889 6.04299 6.74951 6.0719 6.69724 6.09734C6.57595 6.1564 6.49298 6.19679 6.42026 6.25281C6.3534 6.30432 6.33203 6.34078 6.33203 6.42138V7.19452C6.33203 7.40162 6.16414 7.56952 5.95703 7.56952C5.74992 7.56952 5.58203 7.40162 5.58203 7.19452V6.42138C5.58203 6.06532 5.74816 5.82384 5.96255 5.65868C6.10151 5.55162 6.28522 5.46257 6.4288 5.39298C6.46831 5.37383 6.50477 5.35615 6.53643 5.33998C6.71127 5.25067 6.83806 5.16719 6.92673 5.05327C7.00838 4.94837 7.08203 4.78553 7.08203 4.49243C7.08203 3.87111 6.57835 3.36743 5.95703 3.36743ZM6.37552 8.63354C6.37552 8.84065 6.20763 9.00854 6.00052 9.00854C5.79341 9.00854 5.62552 8.84065 5.62552 8.63354C5.62552 8.42644 5.79341 8.25854 6.00052 8.25854C6.20763 8.25854 6.37552 8.42644 6.37552 8.63354Z" fill="#9293AB"/>
</svg>
