<svg fill="none" height="25" viewBox="0 0 24 25" width="24" xmlns="http://www.w3.org/2000/svg"><path d="m24 12.5239c0-.8322-.0674-1.6689-.2114-2.4875h-11.5468v4.7141h6.6123c-.2744 1.5203-1.156 2.8653-2.447 3.7199v3.0588h3.9449c2.3166-2.1321 3.648-5.2808 3.648-9.0053z" fill="#4285f4"/><path d="m12.2418 24.4844c3.3017 0 6.086-1.0841 8.1147-2.9553l-3.9449-3.0588c-1.0975.7467-2.5145 1.1695-4.1653 1.1695-3.1937 0-5.9016-2.1546-6.87321-5.0514h-4.07084v3.1532c2.07815 4.1338 6.31093 6.7428 10.93955 6.7428z" fill="#34a853"/><path d="m5.36857 14.5884c-.51279-1.5204-.51279-3.1668 0-4.68713v-3.15322h-4.06635c-1.736294 3.45905-1.736294 7.53445 0 10.99355z" fill="#fbbc04"/><path d="m12.2418 4.84536c1.7453-.02699 3.4321.62974 4.6961 1.83525l3.4951-3.49508c-2.2131-2.07815-5.1504-3.2206904-8.1912-3.18470504-4.62862 0-8.8614 2.60893504-10.93955 6.74725504l4.06634 3.15322c.96711-2.90132 3.67951-5.05594 6.87321-5.05594z" fill="#ea4335"/></svg>