<svg fill="none" viewBox="0 0 12 14" xmlns="http://www.w3.org/2000/svg"><g clip-rule="evenodd" fill="#4f5162" fill-rule="evenodd"><path d="m2 1.5c-.27614 0-.5.22386-.5.5v7.90873c0 .18237.09927.35027.25904.43807l3.9958 2.1977c.15119.0832.33456.0825.48513-.0018l3.91833-2.1927c.158-.0884.2559-.2553.2559-.43633v-3.84716c0-.27614.2238-.5.5-.5.2761 0 .5.22386.5.5v3.84716c0 .54313-.2936 1.04373-.7675 1.30903l-3.91839 2.1927c-.45171.2528-1.00183.2548-1.45539.0053l-3.9958-2.1976c-.479321-.2637-.77712-.7673-.77712-1.31437v-7.90873c0-.82843.67157-1.5 1.5-1.5h5.02818c.27615 0 .5.223858.5.5 0 .27614-.22385.5-.5.5z"/><path d="m11.2705 2.26486c.1953.19526.1953.51185 0 .70711l-5.19667 5.19657-2.78065-2.78058c-.19527-.19526-.19527-.51184-.00001-.70711.19526-.19526.51184-.19527.70711-.00001l2.07355 2.0735 4.48957-4.48949c.1953-.19526.5119-.19526.7071.00001z"/></g></svg>