<svg width="32" height="28" xmlns="http://www.w3.org/2000/svg"><g fill="#999AA9" fill-rule="evenodd" opacity=".545"><path d="M16.015 8.466l4.477 2.526v5.05l-4.477 2.525-4.476-2.525v-5.05zM20.715 16.6l4.477 2.526v5.05l-4.477 2.525-4.476-2.525v-5.05zM10.833 16.493l4.476 2.525v5.05l-4.476 2.525-4.477-2.525v-5.05zM26.003 8.466l4.476 2.526v5.05l-4.476 2.525-4.477-2.525v-5.05zM6.028 8.466l4.476 2.526v5.05l-4.476 2.525-4.477-2.525v-5.05zM21.303.332l4.476 2.525v5.05l-4.476 2.526-4.477-2.526v-5.05zM11.315.332l4.477 2.525v5.05l-4.477 2.526L6.84 7.907v-5.05z"/></g></svg>