<svg width="32" height="28" xmlns="http://www.w3.org/2000/svg"><path d="M16.015 8.466l4.477 2.526v5.05l-4.477 2.525-4.476-2.525v-5.05zm4.7 8.134l4.477 2.526v5.05l-4.477 2.525-4.476-2.525v-5.05zm-9.882-.107l4.476 2.525v5.05l-4.476 2.525-4.477-2.525v-5.05zm15.17-8.027l4.476 2.526v5.05l-4.476 2.525-4.477-2.525v-5.05zm-19.975 0l4.476 2.526v5.05l-4.476 2.525-4.477-2.525v-5.05zM21.303.332l4.476 2.525v5.05l-4.476 2.526-4.477-2.526v-5.05zm-9.988 0l4.477 2.525v5.05l-4.477 2.526L6.84 7.907v-5.05z" fill="#999AA9" fill-rule="evenodd" opacity=".545"/></svg>