<?xml version="1.0" encoding="utf-8"?>
<!-- Generator: Adobe Illustrator 20.1.0, SVG Export Plug-In . SVG Version: 6.00 Build 0)  -->
<svg version="1.1" id="Layer_3" xmlns="http://www.w3.org/2000/svg" xmlns:xlink="http://www.w3.org/1999/xlink" x="0px" y="0px"
	 viewBox="0 0 141 30" style="enable-background:new 0 0 141 30;" xml:space="preserve">
<style type="text/css">
	.st0{fill:#00A3E0;}
	.st1{fill:#FFFFFF;}
</style>
<g>
	<path class="st0" d="M28.4,9.8l-7.5-7.5c-0.1-0.1-1.3-1.3-3.1-1.9c-2.6-0.9-5.1-0.2-7.2,1.9L3,9.8c-0.1,0.1-1.3,1.3-1.9,3.1
		c-0.9,2.6-0.2,5.1,1.9,7.2l7.5,7.5c0.1,0.1,1.3,1.3,3.1,1.9c0.7,0.2,1.5,0.4,2.2,0.4c1.8,0,3.5-0.8,5-2.2l7.5-7.5
		c0.1-0.1,1.3-1.3,1.9-3.1C31.1,14.5,30.4,11.9,28.4,9.8 M16.3,4.5c0.8,0.3,1.5,0.8,1.5,0.9L20,7.6l-4.3,4.3l-4.3-4.3l2.2-2.2
		C14.2,4.8,15,4.1,16.3,4.5 M5.2,14.4c0.3-0.8,0.8-1.5,0.9-1.5l2.2-2.2l4.3,4.3l-4.3,4.3L6,17.1C5.4,16.5,4.8,15.6,5.2,14.4
		 M15.1,25.5c-0.8-0.3-1.5-0.8-1.5-0.9l-2.2-2.2l4.3-4.3l4.3,4.3l-2.2,2.2C17.2,25.2,16.3,25.8,15.1,25.5 M26.2,15.6
		c-0.3,0.8-0.8,1.5-0.9,1.5l-2.2,2.2L18.7,15l4.3-4.3l2.2,2.2C25.9,13.5,26.5,14.3,26.2,15.6"/>
	<path class="st1" d="M44.6,25.6h3.9V14.8c0-3.3-2-5.8-5.5-5.8c-1.7,0-3.5,0.7-4.4,2.1v-8h-3.9v22.4h3.9v-8.5c0-2,1-4.5,3.3-4.5
		c2.1,0,2.7,1.2,2.7,3V25.6z M60.3,19.2c0,2.4-1.7,3.7-4.1,3.7c-1.2,0-2.3-0.8-2.3-2c0-1.3,1.1-2,2.3-2.1l4.1-0.3V19.2z M63.5,25.8
		c0.9,0,1.3-0.2,1.9-0.4v-2.8c0,0-0.2,0.1-0.5,0.1c-0.6,0-0.9-0.3-0.9-1v-6c0-1.1-0.1-2.2-0.5-3.2c-0.9-2.4-3.3-3.3-6-3.3
		c-3.6,0-6.4,1.6-6.7,5.2h3.7c0.1-1.5,1.1-2.3,2.9-2.3c2.2,0,2.7,1,2.7,2.5v1l-4.7,0.3c-3.1,0.2-5.4,2-5.4,5c0,2.6,2,5,5.8,5
		c2.3,0,4.1-1.1,4.9-2.4C60.9,24.8,61.9,25.8,63.5,25.8 M75.6,13c0.2,0,0.4,0,0.6,0V9.4c-0.2,0-0.3,0-0.5,0c-1.9,0-3.8,0.8-4.5,2.6
		l-0.3-2.4h-3.3v16h3.9v-8.1C71.5,14.9,72.9,13,75.6,13 M87.8,25.6h3.9V14.9c0-3.3-2-5.7-5.4-5.7c-1.9,0-3.8,0.8-4.7,2.5l-0.3-2.1
		H78v16h3.9v-6.5c0-1.4,0-3,0.5-4.3c0.5-1.2,1.4-2,2.8-2c2,0,2.7,1.1,2.7,3V25.6z M104.3,16h-6.9c0-1,0.3-1.8,0.8-2.5
		c0.6-0.7,1.5-1.2,2.7-1.2c1.1,0,1.9,0.4,2.4,0.9C103.9,13.8,104.3,14.8,104.3,16 M108.2,17.7c0.1-2-0.2-3.8-1.4-5.6
		c-1.3-2-3.5-3-5.9-3c-2.2,0-3.9,0.8-5.1,2c-1.5,1.6-2.3,3.9-2.3,6.4c0,2.6,0.9,4.9,2.5,6.4c1.3,1.2,2.9,2,5.1,2c2,0,4-0.6,5.4-2.3
		c0.6-0.7,1.3-2,1.4-3h-3.7c-0.2,0.6-0.4,1-0.8,1.4c-0.6,0.6-1.2,0.8-2.3,0.8c-1,0-1.8-0.5-2.4-1c-0.8-0.7-1.2-1.9-1.2-3.1h10.7
		C108.1,18.4,108.2,17.7,108.2,17.7 M113.3,14c0-0.8,0.6-1.4,1.2-1.7c0.6-0.2,1.1-0.2,1.7-0.2c0.8,0,1.6,0.3,2.1,0.7
		c0.4,0.4,0.6,0.9,0.6,1.5h3.7c0-1.2-0.6-2.4-1.4-3.3c-1.2-1.3-3.1-1.9-5-1.9c-2,0-3.7,0.6-4.9,1.6c-1,0.8-1.6,2-1.6,3.6
		c0,2,1.5,3.8,3.7,4.3c1.4,0.3,3,0.4,4.4,0.6c1,0.2,1.6,0.8,1.6,1.7c0,1.8-2,2-3.3,2c-1.1,0-1.8-0.2-2.4-0.7
		c-0.4-0.3-0.7-0.9-0.8-1.5h-3.6c0.1,1.3,0.8,2.5,1.7,3.3c1.3,1.3,3.1,1.9,5.2,1.9c2.2,0,4.2-0.6,5.5-1.9c0.8-0.8,1.4-2,1.4-3.5
		c0-2.5-1.8-4.1-4.4-4.5c-1.6-0.2-2-0.3-3.4-0.5C114.3,15.5,113.3,15.2,113.3,14 M133.8,14.3h3.7c0-1.2-0.6-2.4-1.4-3.3
		c-1.2-1.3-3.1-1.9-5-1.9c-2,0-3.7,0.6-4.9,1.6c-1,0.8-1.6,2-1.6,3.6c0,2,1.5,3.8,3.7,4.3c1.4,0.3,3,0.4,4.4,0.6
		c1,0.2,1.6,0.8,1.6,1.7c0,1.8-2,2-3.3,2c-1.1,0-1.8-0.2-2.4-0.7c-0.4-0.3-0.7-0.9-0.8-1.5h-3.6c0.1,1.3,0.8,2.5,1.7,3.3
		c1.3,1.3,3.1,1.9,5.2,1.9c2.2,0,4.2-0.6,5.5-1.9c0.8-0.8,1.4-2,1.4-3.5c0-2.5-1.8-4.1-4.4-4.5c-1.6-0.2-2-0.3-3.4-0.5
		c-0.9-0.1-1.9-0.5-1.9-1.6c0-0.8,0.6-1.4,1.2-1.7c0.6-0.2,1.1-0.2,1.7-0.2c0.8,0,1.6,0.3,2.1,0.7C133.5,13.2,133.8,13.7,133.8,14.3
		"/>
</g>
</svg>
