<svg viewBox="0 0 25 25" xmlns="http://www.w3.org/2000/svg"><path d="m22.9736 8.18585-6.2654-6.30553c-.1103-.11108-1.0951-1.07656-2.5893-1.572117-2.1394-.717703-4.26188-.153793-5.98529 1.572117l-6.26542 6.30553c-.11036.11107-1.069701 1.10219-1.562105 2.60595-.713136 2.1531-.152815 4.2891 1.562105 6.0236l6.26542 6.3055c.11037.1111 1.09517 1.0766 2.58939 1.5807.6112.205 1.214.3076 1.8083.3076 1.5027 0 2.9459-.6408 4.1769-1.8797l6.2654-6.3056c.1104-.111 1.0698-1.1022 1.5622-2.6059.7131-2.1617.1528-4.2977-1.5622-6.03215zm-10.0688-4.4771c.7047.2136 1.231.70061 1.2735.73479l1.8508 1.86261-3.6082 3.63124-3.60811-3.63124 1.85921-1.87115c.5009-.49556 1.1971-1.03384 2.2328-.72625zm-9.21981 8.30485c.21225-.7092.69616-1.2389.73012-1.2816l1.85076-1.86262 3.60813 3.63122-3.60813 3.6313-1.85925-1.8712c-.4924-.5041-1.02726-1.2133-.72163-2.2471zm8.25201 9.2789c-.7046-.2136-1.231-.7006-1.2735-.7348l-1.85071-1.8626 3.60811-3.6313 3.6082 3.6313-1.8593 1.8711c-.5009.4956-1.2055 1.0339-2.2328.7263zm9.2198-8.3049c-.2122.7092-.6961 1.2389-.7301 1.2816l-1.8507 1.8627-3.6082-3.6313 3.6082-3.63122 1.8592 1.87112c.4924.5041 1.0273 1.2047.7216 2.2471z" fill="currentColor" fill-rule="evenodd"/></svg>