<svg width="12" height="12" fill="none" xmlns="http://www.w3.org/2000/svg"><circle cx="6" cy="6" r="6" fill="#0092E4"/><path d="M9.436 4.46 7.398 2.435a2.269 2.269 0 0 0-.84-.502c-.692-.227-1.376-.04-1.93.522L2.62 4.507a2.288 2.288 0 0 0-.5.845c-.225.698-.039 1.386.52 1.943l2.037 2.023c.036.035.356.345.84.504.198.065.393.097.585.096.485-.004.95-.214 1.345-.617L9.456 7.25c.035-.037.343-.359.498-.846.226-.7.04-1.389-.518-1.945zM6.174 3.035c.228.067.4.223.413.234l.602.598-1.157 1.18-1.174-1.164.596-.609c.161-.16.385-.336.72-.24zM3.215 5.739c.067-.23.222-.401.233-.415l.593-.606 1.174 1.165-1.157 1.181-.605-.6c-.16-.162-.334-.39-.238-.725zm2.686 2.98c-.228-.068-.399-.224-.413-.235l-.602-.598 1.157-1.181L7.217 7.87l-.596.609c-.16.16-.387.336-.72.24zm2.96-2.705c-.068.23-.223.402-.234.416l-.593.606L6.86 5.871 8.017 4.69l.605.6c.16.162.335.387.238.724z" fill="#fff"/></svg>