<svg xmlns="http://www.w3.org/2000/svg" fill="none" viewBox="0 0 33 33">
  <defs/>
  <path fill="#000" d="M16.711 16.53a.939.939 0 00.933-.934c0-.489-.4-.933-.933-.933a.939.939 0 00-.933.933c0 .489.4.933.933.933zm-2.8-2.578a.939.939 0 00.933-.934c0-.533-.4-.933-.933-.933a.939.939 0 00-.933.933c0 .534.4.934.933.934zm2.8 0a.939.939 0 00.933-.934c0-.533-.4-.933-.933-.933a.939.939 0 00-.933.933c0 .534.4.934.933.934zm2.8 0a.939.939 0 00.933-.934c0-.533-.4-.933-.933-.933a.939.939 0 00-.933.933c0 .534.444.934.933.934zm-5.6-2.534a.939.939 0 00.933-.933c0-.533-.4-.933-.933-.933a.939.939 0 00-.933.933c0 .533.4.933.933.933zm2.8 0a.939.939 0 00.933-.933c0-.533-.4-.933-.933-.933a.939.939 0 00-.933.933c0 .533.4.933.933.933zm2.8 0a.939.939 0 00.933-.933c0-.533-.4-.933-.933-.933a.939.939 0 00-.933.933c0 .533.444.933.933.933zm-2.8-2.533a.939.939 0 00.933-.933c0-.534-.4-.934-.933-.934a.939.939 0 00-.933.934c0 .488.4.933.933.933zm2.8 0a.939.939 0 00.933-.933c0-.534-.4-.934-.933-.934a.939.939 0 00-.933.934c0 .488.444.933.933.933zm-5.6 0a.939.939 0 00.933-.933c0-.534-.4-.934-.933-.934a.939.939 0 00-.933.934c0 .488.4.933.933.933zm2.445 23.289L0 .174h32.711l-16.355 32z"/>
</svg>
