<svg width="18" height="16" xmlns="http://www.w3.org/2000/svg"><path d="M1.37 1.414C-.453 3.3-.458 6.33 1.362 8.218l7.292 7.567a.497.497 0 00.688 0c2.432-2.52 4.859-5.04 7.291-7.56 1.823-1.887 1.823-4.917 0-6.804a4.584 4.584 0 00-6.625 0L9.001 2.454l-1.006-1.04A4.52 4.52 0 004.679 0C3.476 0 2.28.47 1.369 1.414zM4.54.692c.978 0 1.96.4 2.719 1.199l1.39 1.468a.506.506 0 00.71 0l1.382-1.46C12.258.3 14.65.3 16.169 1.899c1.518 1.598 1.518 4.18 0 5.778L9 15.231 1.83 7.67C.314 6.069.312 3.49 1.83 1.89c.76-.8 1.734-1.199 2.71-1.199z" fill="#FF6687" fill-rule="nonzero" stroke="#FF5785" stroke-width=".2"/></svg>