<svg fill="currentColor" xmlns="http://www.w3.org/2000/svg" viewBox="0 0 24 24"><path d="M20.875 15.819h-1.1l.275-.275a.665.665 0 0 0 0-.963.665.665 0 0 0-.963 0l-1.443 1.444a.665.665 0 0 0 0 .963l1.444 1.443a.665.665 0 0 0 .962 0 .665.665 0 0 0 0-.962l-.275-.275h1.1a1.38 1.38 0 0 1 1.375 1.375v1.375c0 .756-.619 1.375-1.375 1.375h-2.75a1.38 1.38 0 0 1-1.375-1.375v-.688c0-.412-.275-.687-.688-.687-.412 0-.687.275-.687.687v.688a2.758 2.758 0 0 0 2.75 2.75h2.75a2.758 2.758 0 0 0 2.75-2.75v-1.375a2.758 2.758 0 0 0-2.75-2.75ZM9.883 2.891c.008.321-.024.639-.105.95-.022.083-.002.097.077.106a6.664 6.664 0 0 1 2.85.997c.103.065.123.029.16-.063.253-.621.63-1.156 1.146-1.59.173-.144.359-.273.589-.315.231-.042.377.07.401.305.023.23-.029.447-.11.658a4.016 4.016 0 0 1-1.144 1.626c-.078.067-.092.1-.008.178.413.382.765.816 1.07 1.29.048.075.05.113-.034.161-.243.14-.482.285-.72.435-.078.05-.118.05-.172-.036a5.411 5.411 0 0 0-1.307-1.434c-.846-.647-1.797-1.047-2.861-1.141-2.093-.186-3.795.553-5.11 2.183a2.07 2.07 0 0 0-.072.095c-.185.26-.185.26-.448.09-.177-.114-.352-.23-.531-.34-.078-.047-.103-.081-.042-.17a6.8 6.8 0 0 1 1.06-1.22c.083-.074.092-.107.006-.19-.53-.512-.937-1.103-1.118-1.828a1.006 1.006 0 0 1-.017-.402c.03-.192.173-.294.366-.265.243.035.437.17.618.32.485.406.845.905 1.099 1.48.047.107.081.115.18.057a6.49 6.49 0 0 1 2.807-.89c.132-.01.148-.054.123-.176-.136-.67-.133-1.338.068-1.997.049-.159.116-.31.22-.44.184-.231.402-.231.585.005.183.236.255.517.311.802.05.25.068.504.063.76ZM8.544 18.213c.011-.254.007-.51.067-.759.022-.092.024-.146-.109-.158a6.627 6.627 0 0 1-2.86-.926c-.091-.055-.116-.035-.158.051a4.032 4.032 0 0 1-1.056 1.384c-.174.145-.359.274-.589.317-.232.042-.378-.07-.402-.305-.023-.229.03-.446.11-.658.207-.55.527-1.03.945-1.443.101-.1.085-.143-.009-.227a6.26 6.26 0 0 1-.835-.94c-.057-.077-.063-.117.023-.173.23-.151.457-.307.68-.47.083-.06.125-.056.187.03a5.471 5.471 0 0 0 1.872 1.635c1.128.602 2.328.813 3.593.608 1.532-.25 2.757-1.008 3.681-2.248.058-.078.098-.101.187-.036.221.163.449.319.679.47.08.053.093.087.031.17-.236.318-.489.621-.779.892-.073.068-.058.096.008.158.557.523.981 1.13 1.17 1.881a.997.997 0 0 1 .016.387c-.029.201-.172.304-.374.273-.237-.037-.427-.168-.605-.315a4.039 4.039 0 0 1-1.115-1.504c-.041-.093-.07-.1-.153-.047a6.567 6.567 0 0 1-2.859 1.017c-.098.011-.092.045-.078.123.11.612.109 1.222-.053 1.826-.054.203-.128.4-.267.563-.178.21-.384.21-.557-.004-.22-.275-.287-.61-.347-.945-.037-.207-.032-.418-.044-.627ZM14.453 10.017c.183 1.003.184 1.998.179 2.995 0 .136-.037.167-.167.163a16.21 16.21 0 0 0-.888-.001c-.094.002-.116-.027-.116-.118.003-1.559.003-3.117 0-4.676 0-.097.026-.126.125-.125.376.006.752.008 1.128 0 .113-.003.155.04.19.137.315.883.674 1.75.915 2.659.007.027.021.053.037.091.067-.087.076-.183.1-.271.24-.856.566-1.682.852-2.522.025-.075.066-.094.142-.093.386.003.772.005 1.159 0 .097-.002.114.033.114.12-.002 1.559-.002 3.117 0 4.676 0 .084-.012.124-.112.122a22.86 22.86 0 0 0-.948 0c-.1.002-.114-.037-.114-.123-.004-.934-.015-1.868.138-2.794.01-.059.008-.12.01-.18 0-.011-.007-.024-.02-.068-.05.148-.091.268-.13.388-.254.762-.55 1.509-.823 2.264-.032.091-.08.122-.175.117a5.535 5.535 0 0 0-.466 0c-.072.002-.107-.024-.131-.09-.311-.852-.653-1.694-.908-2.566-.01-.035-.012-.08-.091-.105ZM4.191 10.715c0 .769-.002 1.538.003 2.307 0 .11-.017.156-.144.153-.34-.01-.682-.008-1.023-.001-.103.002-.136-.024-.134-.131.005-.554 0-1.109.004-1.663.002-.113-.021-.156-.146-.153-.391.009-.782.009-1.173 0-.132-.003-.155.043-.154.161.007.55 0 1.099.006 1.648.002.116-.034.14-.143.138a31.223 31.223 0 0 0-1.038 0c-.088 0-.12-.018-.12-.115.003-1.563.003-3.126 0-4.689 0-.096.031-.116.12-.114.346.004.692.006 1.038-.001.11-.002.145.024.143.139-.007.509 0 1.018-.006 1.528-.001.119.023.164.154.16.39-.008.782-.008 1.173 0 .125.004.148-.04.146-.152-.005-.514.001-1.029-.004-1.543-.002-.106.03-.134.134-.132.341.007.682.01 1.023 0 .128-.005.144.044.143.153-.004.769-.002 1.538-.002 2.307ZM5.247 10.721c0-.774.002-1.548-.002-2.322 0-.107.018-.145.137-.144.963.005 1.926.004 2.889 0 .107 0 .149.02.145.138-.01.274-.008.55-.001.824.002.101-.033.124-.128.123-.532-.004-1.063.001-1.595-.004-.114-.002-.154.022-.152.146.006.266.008.214 0 .48-.002.115.026.153.148.15.437-.007.873.002 1.31-.006.122-.002.149.038.146.152-.008.28-.007.56 0 .839.002.099-.029.127-.127.126-.441-.005-.883 0-1.324-.005-.112-.001-.155.02-.153.145.004.202-.003.403 0 .599.003.108.033.132.136.131.557-.005 1.114.001 1.67-.005.116 0 .155.027.15.148-.01.269-.006.539 0 .809.001.092-.018.13-.122.129a359.317 359.317 0 0 0-3.01 0c-.107 0-.119-.04-.118-.13.002-.774.001-1.549.001-2.323ZM9.46 10.71c0-.769.003-1.538-.002-2.307-.001-.117.029-.151.148-.148.336.008.672.009 1.008 0 .125-.004.145.04.145.151-.004 1.174 0 2.348-.005 3.521 0 .126.021.17.16.168.522-.01 1.044 0 1.565-.007.117-.001.143.034.14.143-.008.275-.007.55 0 .824.001.092-.025.119-.118.118-.973-.003-1.946-.003-2.919 0-.1.001-.124-.029-.124-.125.004-.78.002-1.558.002-2.337Z" fill="#27799F"/></svg>