<svg viewBox="0 0 24 24" fill="currentColor" xmlns="http://www.w3.org/2000/svg"><path opacity=".01" fill="#000" d="M4 4h16v16H4z"/><path fill-rule="evenodd" clip-rule="evenodd" d="M12.487 8.343a.2.2 0 0 0 .08.17l6.287 4.692a1 1 0 0 1 .006 1.598l-6.257 4.74a1 1 0 0 1-1.207.002l-6.325-4.773a1 1 0 0 1-.026-1.577l.664-.536a.2.2 0 0 1 .248-.002l.207.161a.3.3 0 0 1-.006.479l-.593.436a.2.2 0 0 0-.002.32l5.618 4.253a.2.2 0 0 0 .321-.159v-2.515L5.066 10.8a1 1 0 0 1 0-1.6l6.344-4.758a1 1 0 0 1 1.187-.01l6.408 4.646a1 1 0 0 1-.036 1.645l-.905.597-.482-.471a.2.2 0 0 1 .037-.315l.747-.449a.2.2 0 0 0 .011-.335l-5.471-3.825a.2.2 0 0 0-.315.155l-.104 2.263zm-.767-2.476a.2.2 0 0 0-.32-.16L5.972 9.775a.2.2 0 0 0 0 .32l5.753 4.346a.5.5 0 0 0 .567.025l2.642-1.65a.2.2 0 0 1 .233.014l.452.37a.2.2 0 0 1-.02.324l-3.217 2.02a.2.2 0 0 0-.093.17v2.468a.2.2 0 0 0 .322.158l5.42-4.18a.2.2 0 0 0-.001-.318l-5.853-4.469a.2.2 0 0 0-.245.002l-2.438 1.92a.2.2 0 0 1-.258-.008l-.382-.346a.2.2 0 0 1 .011-.305l2.78-2.186a.2.2 0 0 0 .075-.158V5.867z" fill="#000"/></svg>