<svg xmlns="http://www.w3.org/2000/svg" fill="none" viewBox="0 0 32 32"><path fill="url(#paint0_linear)" d="M31.85 1.143a.99.99 0 00-1.692-.7l-3.685 3.686A15.738 15.738 0 0016.002.153c-.532 0-1.064.026-1.582.077a.99.99 0 10.195 1.971c.453-.044.92-.067 1.386-.067a13.77 13.77 0 019.07 3.396l-3.827 3.827a.99.99 0 00.7 1.69h8.914a.99.99 0 00.991-.99V1.143zm-1.982 7.924h-5.532l5.532-5.533v5.533z"/><path fill="url(#paint1_linear)" d="M.764 31.773a.99.99 0 001.08-.215l3.686-3.686a15.75 15.75 0 0012.052 3.898.991.991 0 00.888-1.084.992.992 0 00-1.083-.888A13.78 13.78 0 016.93 26.47l3.827-3.826a.99.99 0 00-.7-1.691H1.142a.99.99 0 00-.99.99v8.915c0 .4.241.762.611.915zm1.37-8.84h5.532l-5.532 5.533v-5.532z"/><path fill="url(#paint2_linear)" d="M31.77 17.583c.052-.522.078-1.055.078-1.583a.99.99 0 10-1.98 0c0 .464-.024.93-.069 1.387a.991.991 0 001.971.196z"/><path fill="url(#paint3_linear)" d="M26.719 24.8a14.021 14.021 0 01-1.917 1.916.99.99 0 001.258 1.53 15.969 15.969 0 002.19-2.19.99.99 0 10-1.531-1.257z"/><path fill="url(#paint4_linear)" d="M22.551 28.227c-.795.427-1.636.777-2.5 1.04a.991.991 0 00.578 1.896c.988-.301 1.95-.702 2.86-1.191a.991.991 0 00-.938-1.745z"/><path fill="url(#paint5_linear)" d="M29.973 23.484c.49-.913.89-1.875 1.19-2.86a.991.991 0 00-1.895-.578 13.884 13.884 0 01-1.04 2.502.991.991 0 001.745.936z"/><path fill="url(#paint6_linear)" d="M.231 14.418A16.056 16.056 0 00.153 16a.99.99 0 101.981 0c0-.46.023-.926.069-1.387a.991.991 0 00-.888-1.083.995.995 0 00-1.084.888z"/><path fill="url(#paint7_linear)" d="M5.282 7.202A14.027 14.027 0 017.2 5.285a.99.99 0 00-1.259-1.53 15.962 15.962 0 00-2.189 2.19.99.99 0 101.53 1.257z"/><path fill="url(#paint8_linear)" d="M9.45 3.775a13.8 13.8 0 012.501-1.04.991.991 0 00-.577-1.895 15.8 15.8 0 00-2.86 1.19.99.99 0 10.936 1.745z"/><path fill="url(#paint9_linear)" d="M2.028 8.517a15.85 15.85 0 00-1.19 2.86.991.991 0 001.895.578c.263-.864.614-1.705 1.041-2.502a.99.99 0 00-1.746-.936z"/><defs><linearGradient id="paint0_linear" x1="7.608" x2="12.778" y1="3.671" y2="17.129" gradientUnits="userSpaceOnUse"><stop stop-color="#73DFE7"/><stop offset="1" stop-color="#0063F7"/></linearGradient><linearGradient id="paint1_linear" x1="-5.766" x2="-.596" y1="24.472" y2="37.929" gradientUnits="userSpaceOnUse"><stop stop-color="#73DFE7"/><stop offset="1" stop-color="#0063F7"/></linearGradient><linearGradient id="paint2_linear" x1="29.131" x2="31.578" y1="16.129" y2="18.374" gradientUnits="userSpaceOnUse"><stop stop-color="#73DFE7"/><stop offset="1" stop-color="#0063F7"/></linearGradient><linearGradient id="paint3_linear" x1="23.137" x2="25.744" y1="25.741" y2="29.775" gradientUnits="userSpaceOnUse"><stop stop-color="#73DFE7"/><stop offset="1" stop-color="#0063F7"/></linearGradient><linearGradient id="paint4_linear" x1="17.843" x2="19.436" y1="29.108" y2="32.816" gradientUnits="userSpaceOnUse"><stop stop-color="#73DFE7"/><stop offset="1" stop-color="#0063F7"/></linearGradient><linearGradient id="paint5_linear" x1="27.11" x2="30.413" y1="20.85" y2="24.245" gradientUnits="userSpaceOnUse"><stop stop-color="#73DFE7"/><stop offset="1" stop-color="#0063F7"/></linearGradient><linearGradient id="paint6_linear" x1="-.511" x2="1.936" y1="14.645" y2="16.891" gradientUnits="userSpaceOnUse"><stop stop-color="#73DFE7"/><stop offset="1" stop-color="#0063F7"/></linearGradient><linearGradient id="paint7_linear" x1="2.224" x2="4.831" y1="4.832" y2="8.867" gradientUnits="userSpaceOnUse"><stop stop-color="#73DFE7"/><stop offset="1" stop-color="#0063F7"/></linearGradient><linearGradient id="paint8_linear" x1="6.486" x2="8.076" y1="1.798" y2="5.503" gradientUnits="userSpaceOnUse"><stop stop-color="#73DFE7"/><stop offset="1" stop-color="#0063F7"/></linearGradient><linearGradient id="paint9_linear" x1="-.205" x2="3.098" y1="9.5" y2="12.896" gradientUnits="userSpaceOnUse"><stop stop-color="#73DFE7"/><stop offset="1" stop-color="#0063F7"/></linearGradient></defs></svg>