<svg xmlns="http://www.w3.org/2000/svg" fill="none" viewBox="0 0 32 32"><defs/><path fill="url(#paint0_linear)" d="M31.8492 1.14318c0-.400451-.2413-.762172-.6113-.915003-.371-.1557029-.7966-.06864-1.0795.214735L26.4727 4.12867C23.5748 1.56849 19.8953.152702 16.0016.152702c-.5315 0-1.064.02615-1.582.077356-.5445.05418-.9421.538722-.888 1.083382.0508.51069.4812.89282.9847.89282.0324 0 .0653-.00199.0986-.00485.4531-.04448.9199-.06775 1.3866-.06775 3.3654 0 6.5485 1.20817 9.0697 3.39633l-3.8272 3.8272c-.2833.28338-.3681.70901-.2148 1.07941.1533.3705.5145.6113.9151.6113h8.9142c.547 0 .9906-.443.9906-.9904V1.14318h.0001zm-1.9809 7.92381h-5.5327l5.5327-5.5327v5.5327z"/><path fill="url(#paint1_linear)" d="M.764085 31.7726c.122819.0513.251485.0754.379155.0754.25782 0 .51069-.1005.70026-.2901l3.68625-3.6863c3.4433 3.0431 7.80515 4.3206 12.05255 3.8982.5441-.0543.9416-.5388.888-1.0835-.0543-.5436-.532-.9352-1.0835-.8879-3.8203.3771-7.55541-.8104-10.45562-3.3284l3.82652-3.8264c.2834-.2834.3681-.709.2147-1.0794-.1533-.3704-.5145-.6114-.915-.6114H1.14314c-.546941 0-.990476.4431-.990476.9906v8.9142c.000099.4003.241379.7622.611421.915zm1.369625-8.839h5.53271l-5.53271 5.5328v-5.5328z"/><path fill="url(#paint2_linear)" d="M31.7704 17.5826c.0517-.5213.0779-1.0542.0779-1.5824 0-.5474-.4436-.9905-.9906-.9905-.5469 0-.9904.4431-.9904.9905 0 .4634-.0228.9306-.0682 1.3871-.0536.5445.344 1.0292.888 1.0833.0334.003.0662.005.0986.005.5034 0 .9339-.3822.9847-.893z"/><path fill="url(#paint3_linear)" d="M26.7187 24.7995c-.5736.6974-1.2188 1.3426-1.9171 1.917-.4221.3474-.4831.9722-.1359 1.3939.3478.4241.974.4828 1.3943.1364.7976-.6559 1.5341-1.3929 2.1891-2.1899.3472-.4228.2862-1.0465-.1364-1.3938-.4219-.3482-1.0458-.2872-1.394.1364z"/><path fill="url(#paint4_linear)" d="M22.5512 28.2267c-.7956.4276-1.6365.7777-2.4999 1.0408-.5233.1596-.8184.7138-.6586 1.2372.1592.522.7116.8168 1.2361.6586.988-.3018 1.9504-.7022 2.8607-1.1917.4816-.2592.6621-.8599.4033-1.3416-.2592-.4827-.8585-.6635-1.3416-.4033z"/><path fill="url(#paint5_linear)" d="M29.9733 23.484c.4895-.9131.8895-1.8755 1.1899-2.8601.1595-.5234-.1355-1.0776-.6587-1.2371-.5228-.1587-1.077.1353-1.2361.6587-.2627.8617-.6128 1.7033-1.0408 2.5022-.2583.4827-.0769 1.0824.4053 1.3416.4815.2564 1.0815.0778 1.3404-.4053z"/><path fill="url(#paint6_linear)" d="M.231347 14.4179C.179149 14.9429.153 15.4751.153 16.0003c0 .5473.443536.9904.99048.9904.54694 0 .99047-.4431.99047-.9904 0-.4604.02318-.9267.06864-1.3871.05368-.5447-.34389-1.0292-.88796-1.0835-.547435-.0462-1.029105.3444-1.083283.8882z"/><path fill="url(#paint7_linear)" d="M5.28249 7.20227c.57358-.69738 1.21878-1.34258 1.91706-1.91706.42224-.34726.48316-.97206.1359-1.3938-.34816-.42372-.97205-.48464-1.3942-.13648-.79753.65578-1.53405 1.3929-2.18894 2.18984-.34727.42273-.28635 1.04664.13638 1.39389.42066.34667 1.04634.28744 1.3938-.13639z"/><path fill="url(#paint8_linear)" d="M9.45031 3.77539c.79749-.42749 1.63859-.77772 2.50089-1.0398.5232-.15957.8183-.71384.6586-1.2371-.1596-.523275-.7133-.815367-1.2361-.658673-.9861.300803-1.94855.701253-2.85969 1.190653-.48216.25822-.66302.85884-.4048 1.34051.26058.48453.8629.66213 1.3411.40441z"/><path fill="url(#paint9_linear)" d="M2.02833 8.51662c-.48851.91115-.88896 1.87358-1.189764 2.86018-.159565.5233.135399 1.0776.658674 1.2371.52456.1582 1.07694-.1366 1.2361-.6586.26308-.8638.61322-1.7053 1.0408-2.50237.25822-.48168.07736-1.0824-.40481-1.34061-.48017-.25931-1.0818-.07746-1.341.4043z"/><defs><linearGradient id="paint0_linear" x1="7.60837" x2="12.7785" y1="3.67126" y2="17.1286" gradientUnits="userSpaceOnUse"><stop stop-color="#73DFE7"/><stop offset="1" stop-color="#0063F7"/></linearGradient><linearGradient id="paint1_linear" x1="-5.76564" x2="-.59615" y1="24.4722" y2="37.9288" gradientUnits="userSpaceOnUse"><stop stop-color="#73DFE7"/><stop offset="1" stop-color="#0063F7"/></linearGradient><linearGradient id="paint2_linear" x1="29.1308" x2="31.5779" y1="16.1292" y2="18.374" gradientUnits="userSpaceOnUse"><stop stop-color="#73DFE7"/><stop offset="1" stop-color="#0063F7"/></linearGradient><linearGradient id="paint3_linear" x1="23.1375" x2="25.7444" y1="25.7405" y2="29.7748" gradientUnits="userSpaceOnUse"><stop stop-color="#73DFE7"/><stop offset="1" stop-color="#0063F7"/></linearGradient><linearGradient id="paint4_linear" x1="17.8435" x2="19.4355" y1="29.1085" y2="32.8163" gradientUnits="userSpaceOnUse"><stop stop-color="#73DFE7"/><stop offset="1" stop-color="#0063F7"/></linearGradient><linearGradient id="paint5_linear" x1="27.1099" x2="30.4128" y1="20.8497" y2="24.2452" gradientUnits="userSpaceOnUse"><stop stop-color="#73DFE7"/><stop offset="1" stop-color="#0063F7"/></linearGradient><linearGradient id="paint6_linear" x1="-.510605" x2="1.9357" y1="14.6452" y2="16.8907" gradientUnits="userSpaceOnUse"><stop stop-color="#73DFE7"/><stop offset="1" stop-color="#0063F7"/></linearGradient><linearGradient id="paint7_linear" x1="2.22408" x2="4.83115" y1="4.83235" y2="8.86663" gradientUnits="userSpaceOnUse"><stop stop-color="#73DFE7"/><stop offset="1" stop-color="#0063F7"/></linearGradient><linearGradient id="paint8_linear" x1="6.48579" x2="8.07566" y1="1.79753" y2="5.5033" gradientUnits="userSpaceOnUse"><stop stop-color="#73DFE7"/><stop offset="1" stop-color="#0063F7"/></linearGradient><linearGradient id="paint9_linear" x1="-.204974" x2="3.09794" y1="9.50017" y2="12.8957" gradientUnits="userSpaceOnUse"><stop stop-color="#73DFE7"/><stop offset="1" stop-color="#0063F7"/></linearGradient></defs></svg>