<svg viewBox="0 0 4.233 4.233" xmlns="http://www.w3.org/2000/svg"><path d="M4.233.204v1.463H3.85a.442.442 0 10-.874 0h-.369v-.548a.123.123 0 00-.196-.099.196.196 0 01-.262-.29.202.202 0 01.262-.029.123.123 0 00.196-.098V.04H4.07a.164.164 0 01.163.164zM.673 2.388a.123.123 0 01-.012.129.184.184 0 00-.017.03c-.002.002-.003.006-.004.01a.203.203 0 00-.014.057l-.001.012v.016l.004.027.001.007.01.03.003.008a.198.198 0 00.111.1l.01.005a.187.187 0 00.079.007.189.189 0 00.035-.007l.013-.005a.204.204 0 00.05-.029.203.203 0 00.03-.03l.012-.014a.198.198 0 00.015-.027l.003-.007a.208.208 0 00.01-.03l.002-.007a.195.195 0 00.003-.028v-.016-.013a.202.202 0 00-.014-.056l-.004-.01a.175.175 0 00-.017-.03.125.125 0 01-.012-.129.123.123 0 01.11-.067h.548v-.369a.457.457 0 01-.228-.025.443.443 0 01.228-.85V.695H.164A.164.164 0 000 .858v1.463h.563a.123.123 0 01.11.068zm1.287 1.18a.2.2 0 00.171-.167.195.195 0 00-.308-.188.123.123 0 01-.196-.098v-.548h-.368a.449.449 0 010 .12v.009l-.003.011a.44.44 0 01-.01.047c-.003.006-.004.013-.006.019a.432.432 0 01-.022.052l-.008.014a.43.43 0 01-.193.188l-.008.004a.44.44 0 01-.06.023l-.013.003a.443.443 0 01-.051.01l-.01.003H.866l-.028.002-.017.001H.82a.449.449 0 01-.052-.003l-.015-.003c-.01-.001-.019-.004-.029-.006a.397.397 0 01-.17-.08c-.008-.007-.018-.012-.026-.02a.443.443 0 01-.096-.122l-.006-.013a.453.453 0 01-.023-.054l-.005-.017a.439.439 0 01-.011-.048c0-.004-.002-.007-.003-.011v-.008a.437.437 0 010-.12H0v1.461a.164.164 0 00.164.164h1.463V3.63a.123.123 0 01.196-.099c.04.03.089.043.137.036zm.866-1.07a.123.123 0 01.012-.128.197.197 0 00-.19-.309.202.202 0 00-.167.193.19.19 0 00.037.116.123.123 0 01-.098.197h-.548v.368a.444.444 0 01.274.829.459.459 0 01-.274.045v.384h1.463a.164.164 0 00.164-.164V2.567h-.563a.123.123 0 01-.11-.068z" fill="currentColor"/></svg>