<?xml version="1.0" encoding="UTF-8"?>
<svg version="1.1" viewBox="0 0 4.2333 4.2333" xmlns="http://www.w3.org/2000/svg">
 <g transform="matrix(.1496 0 0 .1496 0 .040332)" fill="none">
  <path d="m28.298 1.0938v9.7776h-2.5632c0.0204-0.1434 0.0306-0.2882 0.0306-0.4331 0.0038-0.78321-0.3037-1.5358-0.8549-2.0923-0.5511-0.55648-1.3008-0.87123-2.084-0.875s-1.5358 0.30374-2.0923 0.85489c-0.5565 0.55116-0.8713 1.3008-0.875 2.084-0.0012 0.1544 0.0091 0.3086 0.0306 0.4615h-2.4609v-3.664c0-0.15235-0.0425-0.30168-0.1226-0.43127-0.08-0.12959-0.1946-0.23432-0.3309-0.30244-0.1363-0.06813-0.2888-0.09697-0.4405-0.08329s-0.2967 0.06934-0.4185 0.16075c-0.2318 0.17229-0.5154 0.26044-0.8039 0.24992-0.2499-0.00692-0.4926-0.08504-0.6996-0.22518s-0.3696-0.33648-0.4688-0.56591c-0.0993-0.22943-0.1309-0.48242-0.0912-0.72922 0.0397-0.24679 0.149-0.47713 0.3151-0.66391 0.2193-0.23649 0.5161-0.38656 0.8366-0.42298 0.3204-0.03642 0.6433 0.04321 0.9101 0.22446 0.1219 0.09141 0.2668 0.14707 0.4185 0.16075 0.1518 0.01368 0.3043-0.01516 0.4406-0.08329 0.1362-0.06813 0.2508-0.17285 0.3309-0.30244s0.1225-0.27892 0.1225-0.43127v-3.762h9.7771c0.29 0 0.5682 0.11523 0.7733 0.32035 0.2052 0.20512 0.3204 0.48332 0.3204 0.7734zm-23.803 14.602c0.05071 0.1016 0.0799 0.2126 0.08573 0.326 0.00584 0.1134-0.01181 0.2267-0.05182 0.333-0.02712 0.0714-0.06393 0.1388-0.10938 0.2002-0.04474 0.0611-0.08373 0.1263-0.11648 0.1946-0.01039 0.0219-0.0186 0.0449-0.02789 0.0673-0.01999 0.0484-0.03715 0.0979-0.05141 0.1482-0.00711 0.0274-0.01367 0.0547-0.01914 0.082-0.01017 0.051-0.01729 0.1025-0.02133 0.1543 0 0.0268-0.00547 0.0546-0.00602 0.0809 0 0.0366 0.00329 0.0744 0.00547 0.1094 0.00223 0.06 0.00863 0.1197 0.01914 0.1788 0.00329 0.0159 0.00711 0.0312 0.01094 0.047 0.01682 0.07 0.0395 0.1384 0.06781 0.2046 0.00657 0.0164 0.01258 0.0322 0.02024 0.0481 0.02968 0.0612 0.06405 0.1201 0.10281 0.1761 0.02363 0.0343 0.049 0.0673 0.07602 0.099 0.03394 0.0413 0.07047 0.0803 0.10937 0.117 0.03295 0.0304 0.06745 0.059 0.10336 0.0859 0.03008 0.0235 0.0607 0.0459 0.09242 0.0661 0.03172 0.0203 0.07164 0.0454 0.10938 0.0651 0.04767 0.0243 0.0968 0.0457 0.14711 0.064 0.02351 0.0087 0.04593 0.0202 0.07054 0.0279 0.07794 0.0234 0.15799 0.0392 0.23899 0.047 0.04645 0.0025 0.093 0.0025 0.13945 0 0.04754 0.0027 0.0952 0.0027 0.14274 0 0.07986-8e-3 0.15878-0.0235 0.2357-0.0465 0.02898-0.0087 0.05469-0.0224 0.08422-0.0333 0.04529-0.0168 0.08965-0.036 0.13289-0.0575 0.03937-0.0207 0.07711-0.0437 0.1143-0.0683 0.03718-0.0246 0.05851-0.0405 0.0875-0.0629 0.03683-0.0275 0.07225-0.0569 0.10609-0.088 0.03526-0.0351 0.06849-0.0722 0.09953-0.1111 0.0268-0.0322 0.05469-0.0645 0.07602-0.0989 0.0392-0.0565 0.07394-0.1159 0.1039-0.1778 0.00711-0.0153 0.01313-0.0306 0.01969-0.0459 0.02843-0.0675 0.05147-0.1372 0.06891-0.2084 0.00328-0.0147 0.00711-0.0284 0.00984-0.0432 0.01097-0.0612 0.01755-0.1232 0.01969-0.1854 0-0.035 0.00601-0.0705 0.00547-0.105-5.5e-4 -0.0344-0.00383-0.0579-0.00657-0.0869-0.00416-0.05-0.0111-0.0996-0.02078-0.1488-0.00547-0.0284-0.01203-0.0547-0.01969-0.0847-0.01391-0.0497-0.0309-0.0985-0.05086-0.1461-0.00929-0.0229-0.0175-0.0464-0.02843-0.0683-0.03223-0.0685-0.07106-0.1337-0.11594-0.1947-0.04545-0.0614-0.08226-0.1288-0.10937-0.2002-0.05316-0.1411-0.06659-0.2941-0.03883-0.4424 0.01359-0.076 0.03809-0.1497 0.07273-0.2187 0.06827-0.136 0.17301-0.2503 0.30252-0.3302s0.27868-0.1221 0.43084-0.1221h3.6614v-2.462c-0.5133 0.0744-1.0371 0.0168-1.522-0.1674-0.61405-0.2289-1.1292-0.6646-1.4569-1.2321-0.28604-0.4816-0.42979-1.0343-0.4146-1.5943 0.01518-0.55993 0.18868-1.1041 0.50041-1.5695 0.31172-0.46538 0.7489-0.83292 1.2609-1.0601 0.51201-0.22714 1.0779-0.30458 1.6321-0.22335v-2.5621h-9.7792c-0.29008 0-0.56828 0.11523-0.7734 0.32035s-0.32035 0.48332-0.32035 0.7734v9.7808h3.7609c0.15199-2e-4 0.30104 0.0419 0.43053 0.1214 0.12949 0.0796 0.23433 0.1936 0.30283 0.3293zm8.6084 7.8805c0.0715-0.0079 0.1421-0.0222 0.2111-0.0427 0.2408-0.0732 0.4562-0.2129 0.6213-0.403s0.2733-0.4228 0.3122-0.6716c0.0271-0.1869 0.0133-0.3775-0.0404-0.5586s-0.1461-0.3484-0.2708-0.4903c-0.2175-0.2404-0.5151-0.3934-0.8371-0.4303-0.3221-0.0369-0.6466 0.0447-0.9129 0.2296-0.1219 0.0914-0.2668 0.1471-0.4185 0.1608-0.1517 0.0136-0.3043-0.0152-0.4405-0.0833-0.1363-0.0682-0.2509-0.1729-0.331-0.3025s-0.1225-0.2789-0.1225-0.4312v-3.6657h-2.4609c0.0205 0.1449 0.03037 0.2911 0.02953 0.4375-8.6e-4 0.1221-0.00944 0.2442-0.0257 0.3653 0 0.0197 0 0.0393-0.00438 0.059-0.00437 0.0197-0.01312 0.0503-0.0175 0.0766-0.01847 0.1061-0.04276 0.211-0.07273 0.3144-0.01258 0.0422-0.02297 0.0843-0.03719 0.1253-0.04112 0.1197-0.09008 0.2367-0.14656 0.35-0.01586 0.0312-0.03117 0.0618-0.04758 0.0924-0.28564 0.5452-0.73856 0.9846-1.2923 1.2534l-0.05468 0.0279c-0.12811 0.0609-0.26043 0.1124-0.39594 0.1542-0.03117 0.0099-0.06344 0.0159-0.09461 0.0241-0.11139 0.0299-0.22442 0.0533-0.33852 0.07-0.02406 0.0033-0.04648 0.0115-0.07054 0.0142-0.01586 0-0.03172 0-0.04758 0.0033-0.06235 0.0066-0.12524 0.0082-0.18813 0.0109-0.03773 0-0.07547 0.0066-0.1132 0.0066h-0.01641c-0.11458 0-0.22906-0.0066-0.34289-0.0197-0.035-0.0038-0.06726-0.0153-0.10226-0.0208-0.06453-0.0103-0.12797-0.0251-0.19196-0.0399-0.10181-0.022-0.20224-0.0499-0.30078-0.0837-0.07054-0.0235-0.1389-0.0514-0.20726-0.0809-0.08039-0.0344-0.15805-0.0722-0.23461-0.1137-0.07656-0.0416-0.1586-0.0886-0.23516-0.1389-0.05469-0.0389-0.11211-0.0804-0.16406-0.1231-0.05195-0.0426-0.11539-0.0771-0.16789-0.1236-0.26078-0.2334-0.47815-0.5111-0.64203-0.8203-0.01586-0.0295-0.03063-0.0591-0.04594-0.0891-0.05776-0.1161-0.10799-0.2357-0.15039-0.3582-0.01258-0.0372-0.02188-0.0755-0.03281-0.1138-0.03103-0.106-0.05604-0.2138-0.07492-0.3226-0.00383-0.0252-0.01313-0.0482-0.01696-0.0733-0.00383-0.0252 0-0.0372-0.00383-0.0547-0.01672-0.1238-0.02549-0.2486-0.02625-0.3735-1.8e-4 -0.1446 0.00987-0.2889 0.03008-0.4321h-2.5687v9.7743c0 0.2901 0.11523 0.5683 0.32035 0.7734s0.48332 0.3204 0.7734 0.3204h9.7792v-3.7669c0-0.1523 0.0424-0.3017 0.1225-0.4313 0.0801-0.1295 0.1947-0.2343 0.3309-0.3024 0.1363-0.0681 0.2888-0.097 0.4405-0.0833 0.1518 0.0137 0.2967 0.0694 0.4186 0.1608 0.2624 0.197 0.5917 0.2834 0.9171 0.2406zm5.7897-7.1428c-0.0682-0.1359-0.0972-0.2882-0.0839-0.4397s0.0685-0.2963 0.1594-0.4183c0.1623-0.221 0.2484-0.4887 0.2456-0.7629 3e-4 -0.1892-0.0403-0.3763-0.119-0.5484-0.0788-0.1721-0.1938-0.3251-0.3372-0.4486s-0.3119-0.2145-0.4937-0.2668c-0.1819-0.0522-0.373-0.0646-0.5601-0.0361-0.3062 0.0525-0.5849 0.2093-0.7888 0.4438-0.2038 0.2346-0.3202 0.5324-0.3295 0.843-6e-3 0.2784 0.0801 0.551 0.245 0.7755 0.0914 0.1218 0.147 0.2667 0.1607 0.4185 0.0137 0.1517-0.0151 0.3042-0.0833 0.4405-0.0681 0.1363-0.1728 0.2509-0.3024 0.3309-0.1296 0.0801-0.2789 0.1226-0.4313 0.1226h-3.6602v2.4609c0.5711-0.083 1.154 0.0024 1.6772 0.2457 0.5233 0.2433 0.9643 0.6339 1.269 1.124 0.3046 0.4901 0.4597 1.0584 0.4463 1.6353s-0.1948 1.1374-0.522 1.6128c-0.2609 0.3938-0.6202 0.7126-1.0423 0.9248-0.5637 0.2867-1.2023 0.3922-1.8282 0.3018v2.5649h9.7787c0.29 0 0.5682-0.1152 0.7734-0.3204 0.2051-0.2051 0.3203-0.4833 0.3203-0.7734v-9.7764h-3.7603c-0.1523-2e-4 -0.3016-0.0427-0.4311-0.1228-0.1296-0.0802-0.2342-0.1949-0.3023-0.3312z" fill="currentColor"/>
 </g>
</svg>
