<svg enable-background="new 0 0 14 14" viewBox="0 0 14 14" xmlns="http://www.w3.org/2000/svg" xmlns:xlink="http://www.w3.org/1999/xlink"><linearGradient id="a"><stop offset=".18" stop-color="#0052cc"/><stop offset="1" stop-color="#2684ff"/></linearGradient><linearGradient id="b" gradientTransform="matrix(1 0 0 -1 0 16)" gradientUnits="userSpaceOnUse" x1="6.6295" x2="3.7393" xlink:href="#a" y1="13.1643" y2="10.2742"/><linearGradient id="c" gradientTransform="matrix(1 0 0 -1 0 16)" gradientUnits="userSpaceOnUse" x1="7.3955" x2="10.2801" xlink:href="#a" y1="4.8606" y2="7.7452"/><path d="m13.6 6.6-6-6-.6-.6-4.5 4.5-2.1 2.1c-.2.2-.2.6 0 .8l4.1 4.1 2.5 2.5 4.5-4.5.1-.1 2-2c.2-.2.2-.6 0-.8zm-6.6 2.5-2.1-2.1 2.1-2.1 2.1 2.1z" fill="#2684ff"/><path d="m7 4.9c-1.4-1.3-1.4-3.5 0-4.9l-4.5 4.5 2.4 2.5z" fill="url(#b)"/><path d="m9.1 7-2.1 2.1c1.4 1.4 1.4 3.6 0 4.9l4.5-4.5z" fill="url(#c)"/></svg>