<svg viewBox="0 0 33 33" fill="none" xmlns="http://www.w3.org/2000/svg"><path fill-rule="evenodd" clip-rule="evenodd" d="M15.734 4.152c-1.1-.253-2.018.036-2.685.597-.65.547-1.042 1.334-1.171 2.077l-1.034 5.244a.5.5 0 0 1-.49.403H4.61a1.5 1.5 0 0 0-1.5 1.5V25.56a1.5 1.5 0 0 0 1.5 1.5h10.415a.5.5 0 1 0 0-1H10.45V13.555a.495.495 0 0 0-.007-.085 1.5 1.5 0 0 0 1.382-1.207l1.035-5.249.003-.012c.093-.544.382-1.11.83-1.488.432-.363 1.03-.569 1.817-.388.823.19 1.175.63 1.333 1.108.172.518.128 1.126.036 1.6l-.741 3.856a1.5 1.5 0 0 0 1.473 1.783h10.175a.5.5 0 0 1 .491.592l-.734 3.91a.5.5 0 1 0 .983.185l.734-3.91a1.5 1.5 0 0 0-1.474-1.777H17.61a.5.5 0 0 1-.491-.594l.741-3.856c.104-.537.183-1.345-.069-2.104-.266-.8-.886-1.498-2.058-1.767Zm-6.277 9.321a.502.502 0 0 0-.007.082V26.06H4.61a.5.5 0 0 1-.5-.5V13.973a.5.5 0 0 1 .5-.5h4.847Z" fill="#0278D5"/><path fill-rule="evenodd" clip-rule="evenodd" d="m26.388 19.928 5.655 5.655c.189.188.189.565 0 .754l-1.885 1.885-.094.094-4.241 4.241-2.356-2.356-3.865-3.864c-.188-.189-.188-.566 0-.754l1.98-1.98 4.24-4.24.566.565Zm-2.545 6.032 1.98 1.98 1.979-1.98-1.98-1.98-1.979 1.98Z" fill="#2684FF"/><path d="M25.823 23.98c-1.32-1.225-1.32-3.298 0-4.618l-4.241 4.242 2.262 2.356 1.98-1.98Z" fill="url(#a)"/><path d="m27.802 25.96-1.979 1.979c1.32 1.32 1.32 3.393 0 4.618l4.241-4.241-2.262-2.356Z" fill="url(#b)"/><defs><linearGradient id="a" x1="24.599" y1="19.916" x2="21.31" y2="21.275" gradientUnits="userSpaceOnUse"><stop offset=".18" stop-color="#0052CC"/><stop offset="1" stop-color="#2684FF"/></linearGradient><linearGradient id="b" x1="27.07" y1="31.976" x2="30.352" y2="30.619" gradientUnits="userSpaceOnUse"><stop offset=".18" stop-color="#0052CC"/><stop offset="1" stop-color="#2684FF"/></linearGradient></defs></svg>