<svg viewBox="0 0 33 33" fill="none" xmlns="http://www.w3.org/2000/svg"><path fill-rule="evenodd" clip-rule="evenodd" d="M14.523 19.358a.5.5 0 0 0 .645.645l5.109-1.933a.499.499 0 0 0 .177-.114l6.719-6.72a11.946 11.946 0 0 1 1.345 5.526.5.5 0 1 0 1 0c0-2.27-.583-4.406-1.606-6.264l2.706-2.707a.5.5 0 0 0 0-.707l-3.176-3.176a.5.5 0 0 0-.707 0l-2.438 2.437a12.945 12.945 0 0 0-7.78-2.583c-7.18 0-13 5.82-13 13 0 3.716 1.56 7.068 4.06 9.437H4.013a.5.5 0 1 0 0 1h5a.5.5 0 0 0 .5-.5v-5.837a.5.5 0 0 0-1 0v4.84a11.97 11.97 0 0 1-3.996-8.94c0-6.628 5.372-12 12-12 2.641 0 5.082.853 7.064 2.298l-7.012 7.013a.5.5 0 0 0-.114.176l-1.933 5.11Zm15.035-11.92-9.735 9.735-3.972 1.503 1.502-3.972 9.735-9.735 2.47 2.469Z" fill="#0278D5"/><path fill-rule="evenodd" clip-rule="evenodd" d="m26.721 19.536 5.655 5.655c.189.189.189.566 0 .754l-1.885 1.885-.094.095-4.241 4.24L23.8 29.81l-3.865-3.865c-.188-.188-.188-.565 0-.754l1.98-1.979 4.24-4.241.566.565Zm-2.544 6.032 1.979 1.98 1.979-1.98-1.98-1.979-1.979 1.98Z" fill="#2684FF"/><path d="M26.156 23.589c-1.32-1.225-1.32-3.299 0-4.618l-4.241 4.241 2.262 2.356 1.98-1.979Z" fill="url(#a)"/><path d="m28.136 25.568-1.98 1.98c1.32 1.319 1.32 3.392 0 4.618l4.242-4.242-2.262-2.356Z" fill="url(#b)"/><defs><linearGradient id="a" x1="24.932" y1="19.525" x2="21.643" y2="20.884" gradientUnits="userSpaceOnUse"><stop offset=".18" stop-color="#0052CC"/><stop offset="1" stop-color="#2684FF"/></linearGradient><linearGradient id="b" x1="27.403" y1="31.584" x2="30.685" y2="30.228" gradientUnits="userSpaceOnUse"><stop offset=".18" stop-color="#0052CC"/><stop offset="1" stop-color="#2684FF"/></linearGradient></defs></svg>