<?xml version="1.0" encoding="UTF-8"?>
<svg version="1.1" viewBox="0 0 4.2333 4.2333" xmlns="http://www.w3.org/2000/svg">
 <g transform="matrix(.20982 0 0 .20982 -4.5112e-8 .40318)" fill="none">
  <rect width="20.176" height="16.333" rx="1" fill="#000" fill-opacity=".05"/>
  <rect x=".5" y=".5" width="19.176" height="15.333" rx=".5" stroke="#66798b" stroke-opacity=".6"/>
  <path d="m9.3027 3c0-0.55229 0.44772-1 0.99997-1h7c0.5523 0 1 0.44772 1 1v9c0 0.5523-0.4477 1-1 1h-7c-0.55225 0-0.99997-0.4477-0.99997-1z" fill="#9ea9b4"/>
  <path d="m14.303 14.5c0-0.2761 0.2239-0.5 0.5-0.5h3c0.2762 0 0.5 0.2239 0.5 0.5s-0.2238 0.5-0.5 0.5h-3c-0.2761 0-0.5-0.2239-0.5-0.5z" fill="#9ea9b4"/>
 </g>
</svg>
