<svg width="11" height="12" fill="none" xmlns="http://www.w3.org/2000/svg"><path fill-rule="evenodd" clip-rule="evenodd" d="M2 11.393c0 .32-.178.57-.396.57H.396c-.216 0-.396-.255-.396-.57V.607c0-.32.178-.57.396-.57h1.208c.216 0 .396.255.396.57v10.786zm2.967.57c.218 0 .396-.25.396-.57V.608c0-.315-.18-.57-.396-.57H3.759c-.218 0-.396.25-.396.57v10.786c0 .315.18.57.396.57h1.208zm4.491.019l.847-.252a.564.564 0 00.391-.696L7.94.614a.56.56 0 00-.682-.403L6.41.462a.564.564 0 00-.391.696l2.755 10.42c.082.303.39.482.683.404z" fill="#fff"/></svg>