<svg width="461" height="273" xmlns="http://www.w3.org/2000/svg"><g fill="none" fill-rule="evenodd"><path stroke="#FFF" stroke-linecap="square" d="M339 29.714v8.572"/><path stroke="#FFF" d="M280 255h183V14H280z"/><path fill="#50ACDF" d="M313 87h38V49h-38z"/><path stroke="#50ACDF" d="M313 87h38V49h-38z"/><path d="M78.889 26.996c6.792 0 12.298 5.491 12.298 12.264 0 6.772-5.506 12.262-12.298 12.262-6.793 0-12.298-5.49-12.298-12.262 0-6.773 5.505-12.264 12.298-12.264zM180.8 26.996c6.793 0 12.299 5.491 12.299 12.264 0 6.772-5.506 12.262-12.299 12.262-6.792 0-12.298-5.49-12.298-12.262 0-6.773 5.506-12.264 12.298-12.264z" stroke="#22272D"/><path d="M26.586 80.956c6.792 0 12.298 5.49 12.298 12.263s-5.506 12.261-12.298 12.261c-6.793 0-12.299-5.488-12.299-12.261 0-6.774 5.506-12.263 12.299-12.263zM26.586 190.734c6.792 0 12.298 5.49 12.298 12.263s-5.506 12.261-12.298 12.261c-6.793 0-12.299-5.488-12.299-12.261 0-6.773 5.506-12.263 12.299-12.263zM130.262 190.734c6.792 0 12.298 5.49 12.298 12.263s-5.506 12.261-12.298 12.261c-6.793 0-12.298-5.488-12.298-12.261 0-6.773 5.505-12.263 12.298-12.263zM180.8 190.734c6.793 0 12.299 5.49 12.299 12.263s-5.506 12.261-12.299 12.261c-6.792 0-12.298-5.488-12.298-12.261 0-6.773 5.506-12.263 12.298-12.263z" stroke="#FFF"/><path d="M26.586 80.956c6.792 0 12.298 5.49 12.298 12.263s-5.506 12.261-12.298 12.261c-6.793 0-12.299-5.488-12.299-12.261 0-6.774 5.506-12.263 12.299-12.263zM26.586 190.734c6.792 0 12.298 5.49 12.298 12.263s-5.506 12.261-12.298 12.261c-6.793 0-12.299-5.488-12.299-12.261 0-6.773 5.506-12.263 12.299-12.263zM130.262 190.734c6.792 0 12.298 5.49 12.298 12.263s-5.506 12.261-12.298 12.261c-6.793 0-12.298-5.488-12.298-12.261 0-6.773 5.505-12.263 12.298-12.263zM180.8 190.734c6.793 0 12.299 5.49 12.299 12.263s-5.506 12.261-12.299 12.261c-6.792 0-12.298-5.488-12.298-12.261 0-6.773 5.506-12.263 12.298-12.263z" stroke="#22272D"/><path stroke="#FFF" d="M321.387 69.653l6.95 8.598 17.375-17.325"/><path stroke="#22272D" d="M313.407 221.213h38.225V183.1h-38.225zM313.407 153.902h38.225V115.79h-38.225z"/><path stroke="#77787B" d="M431.042 118.804H376.6M431.042 151.787H376.6M431.042 136.13H376.6M431.042 185.666H376.6M431.042 218.648H376.6M431.042 202.991H376.6M431.042 49.376H376.6M431.042 82.486H376.6M431.042 66.701H376.6"/><path stroke="#4FACDD" d="M299.722 68.491h-70.215v186.511H70.774h158.733"/><path stroke="#50ACDF" d="M294.145 63.215l5.577 4.706-4.72 5.56"/><path stroke="#22272D" stroke-linejoin="bevel" d="M17.72 33.127l8.865-6.985v26.235M35.452 52.377H17.719M121.467 33.127l8.723-6.985v26.235"/><path stroke="#FFF" stroke-linejoin="bevel" d="M139.056 52.377h-17.589"/><path stroke="#22272D" stroke-linejoin="bevel" d="M172.006 86.944l8.723-6.845v26.239"/><path stroke="#FFF" stroke-linejoin="bevel" d="M189.595 106.337h-17.59"/><path stroke="#22272D" stroke-linejoin="bevel" d="M17.72 140.822l8.865-6.987v26.237"/><path stroke="#FFF" stroke-linejoin="bevel" d="M35.452 160.072H17.719"/><path stroke="#22272D" stroke-linejoin="bevel" d="M172.006 140.822l8.723-6.987v26.237"/><path stroke="#FFF" stroke-linejoin="bevel" d="M189.595 160.072h-17.59"/><path stroke="#22272D" stroke-linejoin="bevel" d="M70.023 196.865l8.866-6.987v26.237"/><path stroke="#FFF" stroke-linejoin="bevel" d="M87.755 216.115H70.023"/><path d="M78.669 87.31l-3.444 8.782h6.927L78.67 87.31zm-2.403-8.226h5.166l12.332 28.268h-7.047l-2.443-5.99h-11.01l-2.363 5.99h-6.887l12.252-28.268z" fill="#50ACDF"/><path d="M78.669 87.31l-3.444 8.782h6.927L78.67 87.31zm-2.403-8.226h5.166l12.332 28.268h-7.047l-2.443-5.99h-11.01l-2.363 5.99h-6.887l12.252-28.268z" stroke="#50ACDF"/><path fill="#50ACDF" d="M62.873 132.82h9.45l6.526 18.447h.08l6.567-18.447h9.41v28.267h-6.247v-21.68h-.08l-7.448 21.68h-4.764l-7.168-21.68h-.08v21.68h-6.246z"/><path stroke="#50ACDF" d="M62.873 132.82h9.45l6.526 18.447h.08l6.567-18.447h9.41v28.267h-6.247v-21.68h-.08l-7.448 21.68h-4.764l-7.168-21.68h-.08v21.68h-6.246z"/><path fill="#50ACDF" d="M121.353 132.82h6.246v22.518h11.572v5.75h-17.818z"/><path stroke="#50ACDF" d="M121.353 132.82h6.246v22.518h11.572v5.75h-17.818z"/><path fill="#50ACDF" d="M138.484 85.836v-7.661h-16.446v7.661h4.027V100.6h-4.027v7.662h16.446V100.6h-4.742V85.836z"/></g></svg>