<?xml version="1.0" encoding="UTF-8"?>
<svg width="461px" height="273px" viewBox="0 0 461 273" version="1.1" xmlns="http://www.w3.org/2000/svg" xmlns:xlink="http://www.w3.org/1999/xlink">
    <title>Artboard</title>
    <g id="Artboard" stroke="none" stroke-width="1" fill="none" fill-rule="evenodd">
        <line x1="339" y1="29.7142857" x2="339" y2="38.2857143" id="Line-Copy-8" stroke="#FFFFFF" stroke-linecap="square"></line>
        <g id="Group-50" transform="translate(14.000000, 14.000000)">
            <polygon id="Stroke-1" stroke="#FFFFFF" points="266 241 449 241 449 0 266 0"></polygon>
            <polygon id="Fill-2" fill="#50ACDF" points="299 73 337 73 337 35 299 35"></polygon>
            <polygon id="Stroke-3" stroke="#50ACDF" points="299 73 337 73 337 35 299 35"></polygon>
            <g id="Group-49" transform="translate(0.000000, 12.000000)">
                <path d="M64.8888225,0.996011111 C71.6814846,0.996011111 77.187116,6.48725185 77.187116,13.2604 C77.187116,20.0321222 71.6814846,25.521937 64.8888225,25.521937 C58.0961604,25.521937 52.590529,20.0321222 52.590529,13.2604 C52.590529,6.48725185 58.0961604,0.996011111 64.8888225,0.996011111 Z" id="Stroke-6" stroke="#22272D"></path>
                <path d="M166.800348,0.996011111 C173.59301,0.996011111 179.098641,6.48725185 179.098641,13.2604 C179.098641,20.0321222 173.59301,25.521937 166.800348,25.521937 C160.007686,25.521937 154.502054,20.0321222 154.502054,13.2604 C154.502054,6.48725185 160.007686,0.996011111 166.800348,0.996011111 Z" id="Stroke-7" stroke="#22272D"></path>
                <path d="M12.5856102,54.9556148 C19.3782724,54.9556148 24.8839038,60.4454296 24.8839038,67.2185778 C24.8839038,73.9917259 19.3782724,79.4801148 12.5856102,79.4801148 C5.79294812,79.4801148 0.287316724,73.9917259 0.287316724,67.2185778 C0.287316724,60.4454296 5.79294812,54.9556148 12.5856102,54.9556148 Z" id="Stroke-8" stroke="#FFFFFF"></path>
                <path d="M12.5856102,164.733802 C19.3782724,164.733802 24.8839038,170.223617 24.8839038,176.996765 C24.8839038,183.769913 19.3782724,189.258302 12.5856102,189.258302 C5.79294812,189.258302 0.287316724,183.769913 0.287316724,176.996765 C0.287316724,170.223617 5.79294812,164.733802 12.5856102,164.733802 Z" id="Stroke-9" stroke="#FFFFFF"></path>
                <path d="M116.261798,164.733802 C123.05446,164.733802 128.560091,170.223617 128.560091,176.996765 C128.560091,183.769913 123.05446,189.258302 116.261798,189.258302 C109.469135,189.258302 103.963504,183.769913 103.963504,176.996765 C103.963504,170.223617 109.469135,164.733802 116.261798,164.733802 Z" id="Stroke-10" stroke="#FFFFFF"></path>
                <path d="M166.800348,164.733802 C173.59301,164.733802 179.098641,170.223617 179.098641,176.996765 C179.098641,183.769913 173.59301,189.258302 166.800348,189.258302 C160.007686,189.258302 154.502054,183.769913 154.502054,176.996765 C154.502054,170.223617 160.007686,164.733802 166.800348,164.733802 Z" id="Stroke-11" stroke="#FFFFFF"></path>
                <path d="M12.5856102,54.9556148 C19.3782724,54.9556148 24.8839038,60.4454296 24.8839038,67.2185778 C24.8839038,73.9917259 19.3782724,79.4801148 12.5856102,79.4801148 C5.79294812,79.4801148 0.287316724,73.9917259 0.287316724,67.2185778 C0.287316724,60.4454296 5.79294812,54.9556148 12.5856102,54.9556148 Z" id="Stroke-12" stroke="#22272D"></path>
                <path d="M12.5856102,164.733802 C19.3782724,164.733802 24.8839038,170.223617 24.8839038,176.996765 C24.8839038,183.769913 19.3782724,189.258302 12.5856102,189.258302 C5.79294812,189.258302 0.287316724,183.769913 0.287316724,176.996765 C0.287316724,170.223617 5.79294812,164.733802 12.5856102,164.733802 Z" id="Stroke-13" stroke="#22272D"></path>
                <path d="M116.261798,164.733802 C123.05446,164.733802 128.560091,170.223617 128.560091,176.996765 C128.560091,183.769913 123.05446,189.258302 116.261798,189.258302 C109.469135,189.258302 103.963504,183.769913 103.963504,176.996765 C103.963504,170.223617 109.469135,164.733802 116.261798,164.733802 Z" id="Stroke-14" stroke="#22272D"></path>
                <path d="M166.800348,164.733802 C173.59301,164.733802 179.098641,170.223617 179.098641,176.996765 C179.098641,183.769913 173.59301,189.258302 166.800348,189.258302 C160.007686,189.258302 154.502054,183.769913 154.502054,176.996765 C154.502054,170.223617 160.007686,164.733802 166.800348,164.733802 Z" id="Stroke-15" stroke="#22272D"></path>
                <polyline id="Stroke-16" stroke="#FFFFFF" points="307.387003 43.6527278 314.336969 52.2510611 331.711884 34.9260611"></polyline>
                <polygon id="Stroke-17" stroke="#22272D" points="299.40727 195.213111 337.632082 195.213111 337.632082 157.099537 299.40727 157.099537"></polygon>
                <polygon id="Stroke-18" stroke="#22272D" points="299.40727 127.902278 337.632082 127.902278 337.632082 89.7887037 299.40727 89.7887037"></polygon>
                <line x1="417.041591" y1="92.8039667" x2="362.600192" y2="92.8039667" id="Stroke-19" stroke="#77787B"></line>
                <line x1="417.041591" y1="125.786917" x2="362.600192" y2="125.786917" id="Stroke-20" stroke="#77787B"></line>
                <line x1="417.041591" y1="110.129537" x2="362.600192" y2="110.129537" id="Stroke-21" stroke="#77787B"></line>
                <line x1="417.041591" y1="159.666489" x2="362.600192" y2="159.666489" id="Stroke-22" stroke="#77787B"></line>
                <line x1="417.041591" y1="192.648013" x2="362.600192" y2="192.648013" id="Stroke-23" stroke="#77787B"></line>
                <line x1="417.041591" y1="176.990633" x2="362.600192" y2="176.990633" id="Stroke-24" stroke="#77787B"></line>
                <line x1="417.041591" y1="23.3764889" x2="362.600192" y2="23.3764889" id="Stroke-25" stroke="#77787B"></line>
                <line x1="417.041591" y1="56.4860611" x2="362.600192" y2="56.4860611" id="Stroke-26" stroke="#77787B"></line>
                <line x1="417.041591" y1="40.7006333" x2="362.600192" y2="40.7006333" id="Stroke-27" stroke="#77787B"></line>
                <polyline id="Stroke-28" stroke="#4FACDD" points="285.722129 42.4913111 215.507453 42.4913111 215.507453 229.002422 56.7736648 229.002422 215.507453 229.002422"></polyline>
                <polyline id="Stroke-29" stroke="#50ACDF" points="280.144567 37.2151 285.7217 41.9206556 281.002587 47.4817667"></polyline>
                <polyline id="Stroke-30" stroke="#22272D" stroke-linejoin="bevel" points="3.71911263 7.12720741 12.5853242 0.141596296 12.5853242 26.3772074"></polyline>
                <line x1="21.4515358" y1="26.3772074" x2="3.71911263" y2="26.3772074" id="Stroke-31" stroke="#22272D" stroke-linejoin="bevel"></line>
                <polyline id="Stroke-32" stroke="#22272D" stroke-linejoin="bevel" points="107.467231 7.12720741 116.190439 0.141596296 116.190439 26.3772074"></polyline>
                <line x1="125.056365" y1="26.3772074" x2="107.466945" y2="26.3772074" id="Stroke-33" stroke="#FFFFFF" stroke-linejoin="bevel"></line>
                <polyline id="Stroke-34" stroke="#22272D" stroke-linejoin="bevel" points="158.005781 60.9435056 166.728989 54.0990611 166.728989 80.3375241"></polyline>
                <line x1="175.594915" y1="80.3368111" x2="158.005495" y2="80.3368111" id="Stroke-35" stroke="#FFFFFF" stroke-linejoin="bevel"></line>
                <polyline id="Stroke-36" stroke="#22272D" stroke-linejoin="bevel" points="3.71911263 114.822259 12.5853242 107.835222 12.5853242 134.072259"></polyline>
                <line x1="21.4515358" y1="134.072259" x2="3.71911263" y2="134.072259" id="Stroke-37" stroke="#FFFFFF" stroke-linejoin="bevel"></line>
                <polyline id="Stroke-38" stroke="#22272D" stroke-linejoin="bevel" points="158.005781 114.822259 166.728989 107.835222 166.728989 134.072259"></polyline>
                <line x1="175.594915" y1="134.072259" x2="158.005495" y2="134.072259" id="Stroke-39" stroke="#FFFFFF" stroke-linejoin="bevel"></line>
                <polyline id="Stroke-40" stroke="#22272D" stroke-linejoin="bevel" points="56.0228969 170.864998 64.8891085 163.877961 64.8891085 190.114998"></polyline>
                <line x1="73.7551771" y1="190.114998" x2="56.0227539" y2="190.114998" id="Stroke-41" stroke="#FFFFFF" stroke-linejoin="bevel"></line>
                <path d="M64.6687403,61.3096833 L61.2252181,70.0919611 L68.1523034,70.0919611 L64.6687403,61.3096833 Z M62.2662829,53.0835167 L67.4315662,53.0835167 L79.7641805,81.3524981 L72.7169724,81.3524981 L70.2744741,75.3621833 L59.2632113,75.3621833 L56.9007949,81.3524981 L50.0137505,81.3524981 L62.2662829,53.0835167 Z" id="Fill-42" fill="#50ACDF"></path>
                <path d="M64.6687403,61.3096833 L61.2252181,70.0919611 L68.1523034,70.0919611 L64.6687403,61.3096833 Z M62.2662829,53.0835167 L67.4315662,53.0835167 L79.7641805,81.3524981 L72.7169724,81.3524981 L70.2744741,75.3621833 L59.2632113,75.3621833 L56.9007949,81.3524981 L50.0137505,81.3524981 L62.2662829,53.0835167 Z" id="Stroke-43" stroke="#50ACDF"></path>
                <polygon id="Fill-44" fill="#50ACDF" points="48.8727263 106.819535 58.3223918 106.819535 64.8490676 125.266739 64.9291495 125.266739 71.4958662 106.819535 80.9054908 106.819535 80.9054908 135.087091 74.6591017 135.087091 74.6591017 113.407313 74.5790198 113.407313 67.131402 135.087091 62.3665283 135.087091 55.1991973 113.407313 55.1191154 113.407313 55.1191154 135.087091 48.8727263 135.087091"></polygon>
                <polygon id="Stroke-45" stroke="#50ACDF" points="48.8727263 106.819535 58.3223918 106.819535 64.8490676 125.266739 64.9291495 125.266739 71.4958662 106.819535 80.9054908 106.819535 80.9054908 135.087091 74.6591017 135.087091 74.6591017 113.407313 74.5790198 113.407313 67.131402 135.087091 62.3665283 135.087091 55.1991973 113.407313 55.1191154 113.407313 55.1191154 135.087091 48.8727263 135.087091"></polygon>
                <polygon id="Fill-46" fill="#50ACDF" points="107.352685 106.819535 113.599074 106.819535 113.599074 129.337757 125.17091 129.337757 125.17091 135.087091 107.352685 135.087091"></polygon>
                <polygon id="Stroke-47" stroke="#50ACDF" points="107.352685 106.819535 113.599074 106.819535 113.599074 129.337757 125.17091 129.337757 125.17091 135.087091 107.352685 135.087091"></polygon>
                <polygon id="Fill-48" fill="#50ACDF" points="124.483779 59.8364167 124.483779 52.1749167 108.038386 52.1749167 108.038386 59.8364167 112.065362 59.8364167 112.065362 74.6004537 108.038386 74.6004537 108.038386 82.2619537 124.483779 82.2619537 124.483779 74.6004537 119.741786 74.6004537 119.741786 59.8364167"></polygon>
            </g>
        </g>
    </g>
</svg>