<?xml version="1.0" encoding="UTF-8"?>
<svg width="11px" height="14px" viewBox="0 0 11 14" version="1.1" xmlns="http://www.w3.org/2000/svg" xmlns:xlink="http://www.w3.org/1999/xlink">
    <!-- Generator: Sketch 59 (86127) - https://sketch.com -->
    <title>HDL/Icon/Standard/popularity</title>
    <desc>Created with Sketch.</desc>
    <g id="Colors" stroke="none" stroke-width="1" fill="none" fill-rule="evenodd">
        <g id="Main-Icons" transform="translate(-120.000000, -1535.000000)" fill="#4D5969">
            <g id="Popularity" transform="translate(101.000000, 1517.000000)">
                <g id="HDL/Icon/Standard/popularity" transform="translate(19.000000, 18.000000)">
                    <path d="M6.61533201,0 C6.61533201,1.1965812 6.95261414,2.15384616 7.62717849,2.87179487 C9.87572616,4.54700855 11,6.46153846 11,8.61538461 C11,11.008547 9.65087138,12.8034188 6.95261414,14 C8.9375,11.9 8.63902497,11.0384616 6.61533201,8.4 C4.46875,9.45 4.8125,10.15 5.15625,11.55 C4.43604264,11.55 3.78125,11.55 3.4375,11.2 C3.4375,11.6786325 4.26024217,12.95 4.77979264,14 C2.08153543,13.2820513 -0.804875314,8.97435896 0.20697114,8.61538461 C0.881535443,8.3760684 1.66852714,8.49572647 2.56794621,8.97435896 C1.44367237,4.66666667 2.79280097,1.67521367 6.61533201,0 Z" id="Path-3"></path>
                </g>
            </g>
        </g>
    </g>
</svg>