<?xml version="1.0" encoding="utf-8"?>
<!-- Generator: Adobe Illustrator 20.1.0, SVG Export Plug-In . SVG Version: 6.00 Build 0)  -->
<svg version="1.1" id="Layer_1" xmlns="http://www.w3.org/2000/svg" xmlns:xlink="http://www.w3.org/1999/xlink" x="0px" y="0px"
	 viewBox="0 0 13 3" style="enable-background:new 0 0 13 3;" xml:space="preserve">
<style type="text/css">
	.st0{fill:#4D5969;}
</style>
<title>HDL/Icon/Standard/more</title>
<desc>Created with Sketch.</desc>
<g id="Colors">
	<g id="Main-Icons" transform="translate(-620.000000, -557.000000)">
		<g id="More_1_" transform="translate(600.000000, 552.000000)">
			<g id="HDL_x2F_Icon_x2F_Standard_x2F_more" transform="translate(20.000000, 5.000000)">
				<g id="More">
					<path id="Fill-1" class="st0" d="M1.5,0C2.3,0,3,0.7,3,1.5S2.3,3,1.5,3S0,2.3,0,1.5S0.7,0,1.5,0"/>
					<path id="Fill-3" class="st0" d="M11.5,0C12.3,0,13,0.7,13,1.5S12.3,3,11.5,3S10,2.3,10,1.5S10.7,0,11.5,0"/>
					<path id="Fill-5" class="st0" d="M6.5,0C7.3,0,8,0.7,8,1.5S7.3,3,6.5,3C5.9,3,5.4,2.5,5,1.5C5.4,0.5,5.9,0,6.5,0"/>
				</g>
			</g>
		</g>
	</g>
</g>
</svg>
