<?xml version="1.0" encoding="UTF-8"?>
<svg width="13px" height="3px" viewBox="0 0 13 3" version="1.1" xmlns="http://www.w3.org/2000/svg" xmlns:xlink="http://www.w3.org/1999/xlink">
    <!-- Generator: Sketch 59 (86127) - https://sketch.com -->
    <title>HDL/Icon/Standard/more</title>
    <desc>Created with Sketch.</desc>
    <g id="Colors" stroke="none" stroke-width="1" fill="none" fill-rule="evenodd">
        <g id="Main-Icons" transform="translate(-620.000000, -557.000000)" fill="#4D5969">
            <g id="More" transform="translate(600.000000, 552.000000)">
                <g id="HDL/Icon/Standard/more" transform="translate(20.000000, 5.000000)">
                    <g id="More">
                        <path d="M1.5,0 C2.3286,0 3,0.6714 3,1.5 C3,2.3286 2.3286,3 1.5,3 C0.6714,3 0,2.3286 0,1.5 C0,0.6714 0.6714,0 1.5,0" id="Fill-1"></path>
                        <path d="M11.5,0 C12.3286,0 13,0.6714 13,1.5 C13,2.3286 12.3286,3 11.5,3 C10.6714,3 10,2.3286 10,1.5 C10,0.6714 10.6714,0 11.5,0" id="Fill-3"></path>
                        <path d="M6.5,0 C7.3286,0 8,0.6714 8,1.5 C8,2.3286 7.3286,3 6.5,3 C5.9476,3 5.4476,2.5 5,1.5 C5.4476,0.5 5.9476,0 6.5,0" id="Fill-5"></path>
                    </g>
                </g>
            </g>
        </g>
    </g>
</svg>