<?xml version="1.0" encoding="utf-8"?>
<!-- Generator: Adobe Illustrator 20.1.0, SVG Export Plug-In . SVG Version: 6.00 Build 0)  -->
<svg version="1.1" id="Layer_1" xmlns="http://www.w3.org/2000/svg" xmlns:xlink="http://www.w3.org/1999/xlink" x="0px" y="0px"
	 viewBox="0 0 14 14" style="enable-background:new 0 0 14 14;" xml:space="preserve">
<style type="text/css">
	.st0{fill:#4D5969;}
</style>
<title>HDL/Icon/Standard/environments</title>
<desc>Created with Sketch.</desc>
<g id="Colors">
	<g id="Main-Icons" transform="translate(-1121.000000, -595.000000)">
		<g id="Environments" transform="translate(1100.000000, 576.000000)">
			<g id="HDL_x2F_Icon_x2F_Standard_x2F_environments" transform="translate(21.000000, 19.000000)">
				<path id="Shape" class="st0" d="M6.9,0L6.9,0C6.7,0,6.6,0.2,6.6,0.3v1.9c0,0.1,0.1,0.2,0.2,0.3s0.2,0.1,0.3,0s0.2-0.2,0.2-0.3
					V0.3c0-0.1,0-0.2-0.1-0.3C7.1,0,7,0,6.9,0z M2.2,1.9C2.1,1.9,2,2,2,2.1c0,0.1,0,0.3,0.1,0.3l1.4,1.3c0.1,0.1,0.2,0.1,0.3,0.1
					C3.9,3.8,4,3.7,4,3.6c0-0.1,0-0.3-0.1-0.3L2.6,1.9C2.5,1.9,2.4,1.9,2.2,1.9L2.2,1.9z M11.5,1.9c-0.1,0-0.1,0-0.2,0.1L9.9,3.3
					C9.8,3.4,9.8,3.5,9.8,3.6c0,0.1,0.1,0.2,0.3,0.3c0.1,0,0.3,0,0.3-0.1l1.4-1.3c0.1-0.1,0.1-0.3,0.1-0.4
					C11.8,1.9,11.6,1.9,11.5,1.9z M6.9,3.5C6.9,3.5,6.8,3.5,6.9,3.5C6.8,3.5,6.8,3.5,6.9,3.5L6.9,3.5C5,3.6,3.6,5,3.6,6.7
					c0,1.8,1.5,3.2,3.3,3.2s3.3-1.4,3.3-3.2c0-1.7-1.4-3.1-3.1-3.2h0C7,3.5,7,3.5,6.9,3.5C6.9,3.5,6.9,3.5,6.9,3.5
					C6.9,3.5,6.9,3.5,6.9,3.5z M6.9,4.1C6.9,4.1,6.9,4.1,6.9,4.1C6.9,4.1,6.9,4.1,6.9,4.1c1.5,0,2.6,1.1,2.6,2.5S8.3,9.2,6.9,9.2
					S4.3,8.1,4.3,6.7S5.4,4.1,6.9,4.1z M0.3,6.4C0.1,6.4,0,6.6,0,6.7C0,6.9,0.2,7,0.4,7h2c0.1,0,0.2-0.1,0.3-0.2
					c0.1-0.1,0.1-0.2,0-0.3C2.6,6.4,2.5,6.4,2.3,6.4H0.3L0.3,6.4C0.4,6.4,0.3,6.4,0.3,6.4C0.3,6.4,0.3,6.4,0.3,6.4z M11.4,6.4
					c-0.2,0-0.3,0.2-0.3,0.3c0,0.2,0.2,0.3,0.4,0.3h2c0.1,0,0.2-0.1,0.3-0.2c0.1-0.1,0.1-0.2,0-0.3c0-0.1-0.1-0.2-0.3-0.2H11.4
					L11.4,6.4C11.4,6.4,11.4,6.4,11.4,6.4C11.4,6.4,11.4,6.4,11.4,6.4z M3.6,9.5c-0.1,0-0.1,0-0.2,0.1L2.1,11C2,11,2,11.1,2,11.3
					c0,0.1,0.1,0.2,0.3,0.3s0.3,0,0.3-0.1l1.4-1.3C4,10,4.1,9.9,4,9.7C3.9,9.6,3.8,9.5,3.6,9.5C3.7,9.5,3.6,9.5,3.6,9.5z M10.1,9.5
					c-0.1,0-0.2,0.1-0.3,0.2c0,0.1,0,0.3,0.1,0.3l1.4,1.3c0.1,0.1,0.2,0.1,0.3,0.1c0.1,0,0.2-0.1,0.3-0.3s0-0.3-0.1-0.3l-1.4-1.3
					C10.3,9.5,10.3,9.5,10.1,9.5C10.1,9.5,10.1,9.5,10.1,9.5C10.1,9.5,10.1,9.5,10.1,9.5z M6.9,10.8L6.9,10.8
					c-0.2,0-0.3,0.2-0.3,0.3v1.9c0,0.1,0.1,0.2,0.2,0.3c0.1,0.1,0.2,0.1,0.3,0c0.1-0.1,0.2-0.2,0.2-0.3v-1.9c0-0.1,0-0.2-0.1-0.3
					C7.1,10.8,7,10.8,6.9,10.8z"/>
			</g>
		</g>
	</g>
</g>
</svg>
