<?xml version="1.0" encoding="UTF-8"?>
<svg width="14px" height="9px" viewBox="0 0 14 9" version="1.1" xmlns="http://www.w3.org/2000/svg" xmlns:xlink="http://www.w3.org/1999/xlink">
    <!-- Generator: Sketch 59 (86127) - https://sketch.com -->
    <title>HDL/Icon/Standard/email</title>
    <desc>Created with Sketch.</desc>
    <g id="Colors" stroke="none" stroke-width="1" fill="none" fill-rule="evenodd">
        <g id="Main-Icons" transform="translate(-621.000000, -317.000000)" fill="#4D5969">
            <g id="Email" transform="translate(600.000000, 305.000000)">
                <g id="HDL/Icon/Standard/email" transform="translate(21.000000, 12.000000)">
                    <path d="M0,0.662142857 L0,8.31857143 L4.389,4.28785714 L0,0.662142857 Z M13.237,0 L0.763,0 L7,5.13642857 L13.237,0 Z M9.611,4.28142857 L14,8.31857143 L14,0.662142857 L9.611,4.28142857 Z M7.35,6.14571429 L7.35,6.14571429 C7.259,6.22285714 7.133,6.26785714 7,6.26785714 C6.867,6.26785714 6.741,6.22285714 6.65,6.14571429 L6.65,6.14571429 L5.173,4.93071429 L0.742,9 L13.258,9 L8.827,4.93071429 L7.35,6.14571429 Z" id="Shape"></path>
                </g>
            </g>
        </g>
    </g>
</svg>