<?xml version="1.0" encoding="UTF-8"?>
<svg width="14px" height="14px" viewBox="0 0 14 14" version="1.1" xmlns="http://www.w3.org/2000/svg" xmlns:xlink="http://www.w3.org/1999/xlink">
    <!-- Generator: Sketch 59 (86127) - https://sketch.com -->
    <title>HDL/Icon/Standard/delete</title>
    <desc>Created with Sketch.</desc>
    <g id="Colors" stroke="none" stroke-width="1" fill="none" fill-rule="evenodd">
        <g id="Main-Icons" transform="translate(-621.000000, -359.000000)" fill="#4D5969">
            <g id="Delete" transform="translate(600.000000, 341.000000)">
                <g id="HDL/Icon/Standard/delete" transform="translate(21.000000, 18.000000)">
                    <path d="M10.5,4.2 C10.5,3.815 10.185,3.5 9.8,3.5 C9.604,3.5 9.429,3.577 9.303,3.703 L7,6.013 L4.697,3.703 C4.571,3.577 4.396,3.5 4.2,3.5 C3.815,3.5 3.5,3.815 3.5,4.2 C3.5,4.396 3.577,4.571 3.703,4.697 L6.013,7 L3.71,9.303 C3.577,9.429 3.5,9.604 3.5,9.8 C3.5,10.185 3.815,10.5 4.2,10.5 C4.396,10.5 4.571,10.423 4.697,10.297 L7,7.987 L9.303,10.29 C9.429,10.423 9.604,10.5 9.8,10.5 C10.185,10.5 10.5,10.185 10.5,9.8 C10.5,9.604 10.423,9.429 10.297,9.303 L7.987,7 L10.29,4.697 C10.423,4.571 10.5,4.396 10.5,4.2 Z M7,0 C3.136,0 0,3.136 0,7 C0,10.864 3.136,14 7,14 C10.864,14 14,10.864 14,7 C14,3.136 10.864,0 7,0 Z M7,12.6 C3.906,12.6 1.4,10.094 1.4,7 C1.4,3.906 3.906,1.4 7,1.4 C10.094,1.4 12.6,3.906 12.6,7 C12.6,10.094 10.094,12.6 7,12.6 Z" id="Shape"></path>
                </g>
            </g>
        </g>
    </g>
</svg>