<?xml version="1.0" encoding="UTF-8"?>
<svg width="13px" height="14px" viewBox="0 0 13 14" version="1.1" xmlns="http://www.w3.org/2000/svg" xmlns:xlink="http://www.w3.org/1999/xlink">
    <!-- Generator: Sketch 59 (86127) - https://sketch.com -->
    <title>HDL/Icon/Standard/fullscreen</title>
    <desc>Created with Sketch.</desc>
    <g id="Colors" stroke="none" stroke-width="1" fill="none" fill-rule="evenodd">
        <g id="Main-Icons" transform="translate(-121.000000, -876.000000)" fill="#4D5969">
            <g id="Fullscreen" transform="translate(100.000000, 858.000000)">
                <g id="HDL/Icon/Standard/fullscreen" transform="translate(21.000000, 18.000000)">
                    <path d="M2.2165,1.4 L3.9,1.4 C4.2575,1.4 4.55,1.085 4.55,0.7 C4.55,0.315 4.2575,0 3.9,0 L0.65,0 C0.2925,0 0,0.315 0,0.7 L0,4.2 C0,4.585 0.2925,4.9 0.65,4.9 C1.0075,4.9 1.3,4.585 1.3,4.2 L1.3,2.387 L4.7385,6.09 C4.8555,6.223 5.018,6.3 5.2,6.3 C5.5575,6.3 5.85,5.985 5.85,5.6 C5.85,5.404 5.7785,5.229 5.6615,5.103 L2.2165,1.4 Z M5.2,7.7 C5.018,7.7 4.8555,7.777 4.7385,7.903 L1.3,11.613 L1.3,9.8 C1.3,9.415 1.0075,9.1 0.65,9.1 C0.2925,9.1 0,9.415 0,9.8 L0,13.3 C0,13.685 0.2925,14 0.65,14 L3.9,14 C4.2575,14 4.55,13.685 4.55,13.3 C4.55,12.915 4.2575,12.6 3.9,12.6 L2.2165,12.6 L5.655,8.897 C5.7785,8.771 5.85,8.596 5.85,8.4 C5.85,8.015 5.5575,7.7 5.2,7.7 Z M12.35,0 L9.1,0 C8.7425,0 8.45,0.315 8.45,0.7 C8.45,1.085 8.7425,1.4 9.1,1.4 L10.7835,1.4 L7.345,5.103 C7.2215,5.229 7.15,5.404 7.15,5.6 C7.15,5.985 7.4425,6.3 7.8,6.3 C7.982,6.3 8.1445,6.223 8.2615,6.097 L11.7,2.387 L11.7,4.2 C11.7,4.585 11.9925,4.9 12.35,4.9 C12.7075,4.9 13,4.585 13,4.2 L13,0.7 C13,0.315 12.7075,0 12.35,0 Z M12.35,9.1 C11.9925,9.1 11.7,9.415 11.7,9.8 L11.7,11.613 L8.2615,7.91 C8.1445,7.777 7.982,7.7 7.8,7.7 C7.4425,7.7 7.15,8.015 7.15,8.4 C7.15,8.596 7.2215,8.771 7.3385,8.897 L10.7835,12.6 L9.1,12.6 C8.7425,12.6 8.45,12.915 8.45,13.3 C8.45,13.685 8.7425,14 9.1,14 L12.35,14 C12.7075,14 13,13.685 13,13.3 L13,9.8 C13,9.415 12.7075,9.1 12.35,9.1 Z" id="Shape"></path>
                </g>
            </g>
        </g>
    </g>
</svg>