<?xml version="1.0" encoding="utf-8"?>
<!-- Generator: Adobe Illustrator 20.1.0, SVG Export Plug-In . SVG Version: 6.00 Build 0)  -->
<svg version="1.1" id="Layer_1" xmlns="http://www.w3.org/2000/svg" xmlns:xlink="http://www.w3.org/1999/xlink" x="0px" y="0px"
	 viewBox="0 0 14 9" style="enable-background:new 0 0 14 9;" xml:space="preserve">
<style type="text/css">
	.st0{fill:#4D5969;}
</style>
<title>HDL/Icon/Standard/cloud-providers</title>
<desc>Created with Sketch.</desc>
<g id="Colors">
	<g id="Main-Icons" transform="translate(-1122.000000, -364.000000)">
		<g id="Cloud-Providers" transform="translate(1100.000000, 352.000000)">
			<g id="HDL_x2F_Icon_x2F_Standard_x2F_cloud-providers" transform="translate(22.000000, 12.000000)">
				<path id="Shape-Copy" class="st0" d="M8.1,0C6.7,0,5.4,0.9,4.8,2.1C4.5,1.9,4.1,1.7,3.7,1.7c-1,0-1.9,0.8-1.9,1.8
					C0.8,3.9,0,4.9,0,6.1c0,1.5,1.2,2.7,2.7,2.7h8.8c1.4,0,2.5-1.1,2.5-2.5C14,5,13,4,11.8,3.9c0-0.1,0-0.1,0-0.2
					C11.8,1.7,10.1,0,8.1,0z M8.1,0.6c1.7,0,3.1,1.4,3.1,3.1c0,0.1,0,0.3,0,0.4l-0.1,0.3h0.3c1.1,0,1.9,0.9,1.9,1.9
					s-0.9,1.9-1.9,1.9H2.7c-1.2,0-2.2-1-2.2-2.2c0-1,0.7-1.8,1.6-2.1L2.4,4V3.8c0,0,0-0.1,0-0.1c0-0.8,0.6-1.4,1.4-1.4
					c0.4,0,0.8,0.2,1,0.4L5.1,3l0.1-0.4C5.6,1.4,6.8,0.6,8.1,0.6z"/>
			</g>
		</g>
	</g>
</g>
</svg>
