<svg viewBox="0 0 13 14" xmlns="http://www.w3.org/2000/svg"><path d="M2.2 1.4h1.7c.4 0 .7-.3.7-.7S4.3 0 3.9 0H.6C.3 0 0 .3 0 .7v3.5c0 .4.3.7.6.7s.6-.3.6-.7V2.4l3.4 3.7c.3.1.4.2.6.2.4 0 .7-.3.7-.7 0-.2-.1-.4-.2-.5zm3 6.3c-.2 0-.3.1-.5.2l-3.4 3.7V9.8c0-.4-.3-.7-.6-.7s-.7.3-.7.7v3.5c0 .4.3.7.6.7h3.2c.4 0 .7-.3.7-.7s-.3-.7-.7-.7H2.2l3.4-3.7c.1-.1.2-.3.2-.5 0-.4-.2-.7-.6-.7zM12.4 0H9.1c-.4 0-.7.3-.7.7s.3.7.7.7h1.7L7.3 5.1c-.1.1-.1.3-.1.5 0 .4.3.7.7.7.2 0 .3-.1.5-.2l3.4-3.7v1.8c0 .4.3.7.7.7s.5-.3.5-.7V.7c0-.4-.3-.7-.6-.7zm0 9.1c-.4 0-.7.3-.7.7v1.8L8.3 7.9c-.2-.1-.3-.2-.5-.2-.4 0-.6.3-.6.7 0 .2.1.4.2.5l3.4 3.7H9.1c-.4 0-.7.3-.7.7s.3.7.7.7h3.2c.4 0 .6-.3.6-.7V9.8c.1-.4-.2-.7-.5-.7z" fill="#4d5969"/></svg>