<?xml version="1.0" encoding="UTF-8"?>
<svg width="14px" height="14px" viewBox="0 0 14 14" version="1.1" xmlns="http://www.w3.org/2000/svg" xmlns:xlink="http://www.w3.org/1999/xlink">
    <!-- Generator: Sketch 59 (86127) - https://sketch.com -->
    <title>HDL/Icon/Standard/dashboard</title>
    <desc>Created with Sketch.</desc>
    <g id="Colors" stroke="none" stroke-width="1" fill="none" fill-rule="evenodd">
        <g id="Main-Icons" transform="translate(-1121.000000, -1299.000000)" fill="#4D5969">
            <g id="dashboard" transform="translate(1100.000000, 1281.000000)">
                <g id="HDL/Icon/Standard/dashboard" transform="translate(21.000000, 18.000000)">
                    <path d="M4.375,3.5 C3.89375,3.5 3.5,3.89375 3.5,4.375 C3.5,4.85625 3.89375,5.25 4.375,5.25 C4.85625,5.25 5.25,4.85625 5.25,4.375 C5.25,3.89375 4.85625,3.5 4.375,3.5 Z M3.5,6.125 C3.01875,6.125 2.625,6.51875 2.625,7 C2.625,7.48125 3.01875,7.875 3.5,7.875 C3.98125,7.875 4.375,7.48125 4.375,7 C4.375,6.51875 3.98125,6.125 3.5,6.125 Z M7,4.375 C7.48125,4.375 7.875,3.98125 7.875,3.5 C7.875,3.01875 7.48125,2.625 7,2.625 C6.51875,2.625 6.125,3.01875 6.125,3.5 C6.125,3.98125 6.51875,4.375 7,4.375 Z M5.25,9.625 C5.25,10.5875 6.0375,11.375 7,11.375 C7.9625,11.375 8.75,10.5875 8.75,9.625 C8.75,9.16125 7,5.25 7,5.25 C7,5.25 5.25,9.16125 5.25,9.625 Z M7,0 C3.1325,0 0,3.1325 0,7 C0,10.8675 3.1325,14 7,14 C10.8675,14 14,10.8675 14,7 C14,3.1325 10.8675,0 7,0 Z M7,12.25 C4.10375,12.25 1.75,9.89625 1.75,7 C1.75,4.10375 4.10375,1.75 7,1.75 C9.89625,1.75 12.25,4.10375 12.25,7 C12.25,9.89625 9.89625,12.25 7,12.25 Z M10.5,4.375 C10.5,3.89375 10.10625,3.5 9.625,3.5 C9.14375,3.5 8.75,3.89375 8.75,4.375 C8.75,4.85625 9.14375,5.25 9.625,5.25 C10.10625,5.25 10.5,4.85625 10.5,4.375 Z M10.5,6.125 C10.01875,6.125 9.625,6.51875 9.625,7 C9.625,7.48125 10.01875,7.875 10.5,7.875 C10.98125,7.875 11.375,7.48125 11.375,7 C11.375,6.51875 10.98125,6.125 10.5,6.125 Z"></path>
                </g>
            </g>
        </g>
    </g>
</svg>