<?xml version="1.0" encoding="utf-8"?>
<!-- Generator: Adobe Illustrator 20.1.0, SVG Export Plug-In . SVG Version: 6.00 Build 0)  -->
<svg version="1.1" id="Layer_1" xmlns="http://www.w3.org/2000/svg" xmlns:xlink="http://www.w3.org/1999/xlink" x="0px" y="0px"
	 viewBox="0 0 14 14" style="enable-background:new 0 0 14 14;" xml:space="preserve">
<style type="text/css">
	.st0{fill:#4D5969;}
</style>
<title>HDL/Icon/Standard/close</title>
<desc>Created with Sketch.</desc>
<g id="Colors">
	<g id="Main-Icons" transform="translate(-123.000000, -453.000000)">
		<g id="Close" transform="translate(101.000000, 435.000000)">
			<g id="HDL_x2F_Icon_x2F_Standard_x2F_close" transform="translate(22.000000, 18.000000)">
				<path id="Path" class="st0" d="M8.6,7l5-5C13.9,1.8,14,1.5,14,1.2C14,0.5,13.5,0,12.8,0c-0.3,0-0.6,0.1-0.8,0.3l-5,5l-5-5
					C1.8,0.1,1.5,0,1.2,0C0.5,0,0,0.5,0,1.2C0,1.5,0.1,1.8,0.3,2l5,5l-5,5C0.1,12.2,0,12.5,0,12.8C0,13.5,0.5,14,1.2,14
					c0.3,0,0.6-0.1,0.8-0.3l5-5l5,5c0.2,0.2,0.5,0.4,0.8,0.4c0.6,0,1.2-0.5,1.2-1.2c0-0.3-0.1-0.6-0.3-0.8L8.6,7z"/>
			</g>
		</g>
	</g>
</g>
</svg>
