<svg viewBox="0 0 14 14" xmlns="http://www.w3.org/2000/svg"><path d="M7 0h-.2c-.2 0-.4.1-.6.3l-6 6c-.3.3-.3.8 0 1.1L2 9.1l4.6 4.6c.3.3.8.3 1.1 0l6-6c.2-.1.3-.3.3-.5v-.7-.3-1.3-2c0-.5-.4-1-1-1h-.9V1c0-.5-.4-1-1-1H7zm0 .6h4.2c.2 0 .4.2.4.4v.9h-1.1c-.3-.3-.5-.4-.8-.4s-.4.1-.6.3h-.5c-.2.1-.4.1-.6.3l-6 6s-.1.1-.1.2L.7 6.9c-.1-.1-.1-.2 0-.3l6-6s.1-.1.2-.1c0 .1.1.1.1.1zm1.9 1.8H13c.2 0 .4.2.4.4v4.3s0 .2-.1.2l-6 6c-.1.1-.2.1-.3 0L2.5 8.8c-.1-.1-.1-.2 0-.3l6-6s.1-.1.2-.1zm2.7.9c-.2 0-.5.1-.6.3-.4.4-.4.9 0 1.3s.9.4 1.3 0 .4-.9 0-1.3c-.3-.2-.5-.3-.7-.3zm0 .7c.1 0 .2 0 .2.1.1.1.1.3 0 .4s-.3.1-.4 0-.1-.3 0-.4c0-.1.1-.1.2-.1z" fill="#4d5969"/></svg>