<?xml version="1.0" encoding="UTF-8"?>
<svg width="14px" height="11px" viewBox="0 0 14 11" version="1.1" xmlns="http://www.w3.org/2000/svg" xmlns:xlink="http://www.w3.org/1999/xlink">
    <!-- Generator: Sketch 59 (86127) - https://sketch.com -->
    <title>HDL/Icon/Standard/user-groups</title>
    <desc>Created with Sketch.</desc>
    <g id="Colors" stroke="none" stroke-width="1" fill="none" fill-rule="evenodd">
        <g id="Main-Icons" transform="translate(-1122.000000, -737.000000)" fill="#4D5969">
            <g id="User-Groups" transform="translate(1100.000000, 723.000000)">
                <g id="HDL/Icon/Standard/user-groups" transform="translate(22.000000, 14.000000)">
                    <path d="M11.2467739,9.89882353 C11.2055974,9.70117647 11.1314798,9.48705882 11.0408915,9.27294118 C10.744421,8.56470588 10.1185386,8.17764706 8.82559743,7.62588235 C8.71030331,7.57647059 8.33971507,7.42 8.33147978,7.42 C8.1585386,7.34588235 8.03500919,7.29647059 7.91971507,7.23882353 C7.93618566,7.15647059 7.93618566,7.07411765 7.94442096,6.98352941 C7.94442096,6.95058824 7.95265625,6.91764706 7.95265625,6.87647059 C7.89500919,6.82705882 7.84559743,6.77764706 7.79618566,6.72 C7.97736213,6.45647059 8.12559743,6.16823529 8.24089154,5.85529412 C8.25736213,5.80588235 8.25736213,5.80588235 8.26559743,5.77294118 C8.50442096,5.58352941 8.66089154,5.30352941 8.75147978,4.98235294 C8.88324449,4.71058824 8.95736213,4.38117647 8.92442096,4.02705882 C8.89971507,3.69764706 8.79265625,3.40117647 8.61971507,3.17882353 C8.60324449,2.74235294 8.56206801,2.24823529 8.49618566,1.91058824 C8.48795037,1.86117647 8.47971507,1.81176471 8.47147978,1.75411765 C8.66089154,1.70470588 8.8667739,1.68 9.06442096,1.68 C9.46795037,1.68 9.92912684,1.81176471 10.2503033,2.05882353 C10.5632445,2.29764706 10.802068,2.63529412 10.9091268,3.02235294 C10.9338327,3.10470588 10.9503033,3.19529412 10.9667739,3.27764706 C11.024421,3.58235294 11.0573621,4.05176471 11.0573621,4.37294118 C11.0573621,4.38941176 11.0573621,4.40588235 11.0573621,4.41411765 C11.1726563,4.46352941 11.2797151,4.58705882 11.2961857,4.83411765 C11.3126563,5.04 11.2385386,5.20470588 11.1891268,5.27882353 C11.1479504,5.45176471 11.0573621,5.64117647 10.8761857,5.67411765 C10.8597151,5.75647059 10.8350092,5.83882353 10.802068,5.92117647 C10.802068,5.92941176 10.7938327,5.94588235 10.7938327,5.94588235 C10.6538327,6.30823529 10.4397151,6.62941176 10.1761857,6.86 C10.1761857,6.90117647 10.1761857,6.94235294 10.1761857,6.97529412 C10.2008915,7.26352941 10.102068,7.46117647 10.8597151,7.79882353 C11.6255974,8.13647059 12.7703033,8.49058824 13.0008915,9.03411765 C13.2397151,9.57764706 13.1408915,9.89058824 13.1408915,9.89058824 L11.2467739,9.89058824 L11.2467739,9.89882353 Z M10.2832445,9.58588235 C10.5879504,10.2941176 10.464421,10.7058824 10.464421,10.7058824 L0.0220680147,10.7058824 C0.0220680147,10.7058824 -0.0932261029,10.2941176 0.203244485,9.58588235 C0.499715074,8.87764706 1.95736213,8.40823529 2.92912684,7.97176471 C3.89265625,7.52705882 3.79383272,7.26352941 3.8267739,6.90117647 C3.8267739,6.86 3.83500919,6.81058824 3.83500919,6.76117647 C3.49736213,6.47294118 3.21736213,6.05294118 3.03618566,5.56705882 L3.03618566,5.55882353 C3.03618566,5.55882353 3.02795037,5.55058824 3.02795037,5.54235294 C2.99500919,5.44352941 2.95383272,5.32823529 2.92912684,5.22117647 C2.6985386,5.18 2.5667739,4.92470588 2.51736213,4.69411765 C2.46795037,4.59529412 2.36089154,4.37294118 2.38559743,4.10941176 C2.4185386,3.77176471 2.5585386,3.61529412 2.7067739,3.54941176 C2.7067739,3.53294118 2.7067739,3.51647059 2.7067739,3.5 C2.7067739,3.08 2.74795037,2.46235294 2.82206801,2.06705882 C2.8385386,1.96 2.86324449,1.84470588 2.89618566,1.73764706 C3.03618566,1.24352941 3.34089154,0.807058824 3.73618566,0.494117647 C4.14795037,0.172941176 4.73265625,2.04281037e-14 5.25147978,2.04281037e-14 C5.77030331,2.04281037e-14 6.35500919,0.172941176 6.7667739,0.494117647 C7.16206801,0.807058824 7.4667739,1.24352941 7.6067739,1.74588235 C7.63971507,1.85294118 7.66442096,1.96823529 7.68089154,2.07529412 C7.75500919,2.47058824 7.79618566,3.08 7.79618566,3.5 C7.79618566,3.51647059 7.79618566,3.54117647 7.79618566,3.55764706 C7.94442096,3.62352941 8.07618566,3.78 8.10089154,4.10941176 C8.12559743,4.37294118 8.0267739,4.59529412 7.96912684,4.69411765 C7.91971507,4.92470588 7.79618566,5.17176471 7.57383272,5.21294118 C7.54912684,5.32 7.51618566,5.42705882 7.47500919,5.53411765 C7.47500919,5.54235294 7.4667739,5.56705882 7.4667739,5.56705882 C7.28559743,6.04470588 7.01383272,6.45647059 6.68442096,6.76117647 C6.68442096,6.81058824 6.68442096,6.86823529 6.68442096,6.90941176 C6.71736213,7.28 6.58559743,7.54352941 7.55736213,7.98 C8.52912684,8.41647059 9.9867739,8.87764706 10.2832445,9.58588235 Z" id="Combined-Shape_18_"></path>
                </g>
            </g>
        </g>
    </g>
</svg>