<?xml version="1.0" encoding="UTF-8"?>
<svg width="12px" height="14px" viewBox="0 0 12 14" version="1.1" xmlns="http://www.w3.org/2000/svg" xmlns:xlink="http://www.w3.org/1999/xlink">
    <!-- Generator: Sketch 59 (86127) - https://sketch.com -->
    <title>HDL/Icon/Standard/Service/ami</title>
    <desc>Created with Sketch.</desc>
    <defs>
        <polygon id="path-1" points="0.0377012012 0.022954955 5.99267267 0.022954955 5.99267267 5.00386907 0.0377012012 5.00386907"></polygon>
        <polygon id="path-3" points="0.0219218836 0.022954955 5.7016997 0.022954955 5.7016997 4.96443792 0.0219218836 4.96443792"></polygon>
        <polygon id="path-5" points="0 0.00316576577 11.5431009 0.00316576577 11.5431009 2.03494575 0 2.03494575"></polygon>
    </defs>
    <g id="Colors" stroke="none" stroke-width="1" fill="none" fill-rule="evenodd">
        <g id="Service-icons" transform="translate(-620.000000, -595.000000)">
            <g id="AMI" transform="translate(600.000000, 577.000000)">
                <g id="HDL/Icon/Standard/Service/ami" transform="translate(20.000000, 18.000000)">
                    <g id="Group-64-Copy-4" transform="translate(-0.000000, 0.000000)">
                        <g id="Group-3" transform="translate(5.633634, 0.019087)">
                            <mask id="mask-2" fill="white">
                                <use xlink:href="#path-1"></use>
                            </mask>
                            <g id="Clip-2"></g>
                            <path d="M0.10375976,0.0229381381 C0.687975976,0.304535736 1.27378979,0.582854054 1.85603003,0.868445646 C3.16101502,1.50849369 4.4623003,2.15606727 5.77035435,2.78972492 C5.94318919,2.87343063 5.99645646,2.96958078 5.992,3.15544865 C5.97900901,3.70098619 5.98884685,4.24707027 5.98565165,4.79286006 C5.98523123,4.86811532 6.02756757,4.96754474 5.90951351,5.00386907 C4.13378378,4.60308228 2.37836036,4.11943063 0.606918919,3.70086006 C0.42248048,3.6573045 0.211513514,3.66886607 0.0678138138,3.50486006 C0.0344744745,3.41745465 0.0383843844,3.32605526 0.0383003003,3.23553874 C0.0374594595,2.27197718 0.0375855856,1.30845766 0.0381741742,0.344896096 C0.0382582583,0.233442643 0.0312792793,0.119929129 0.10375976,0.0229381381" id="Fill-1" fill="#FB862E" mask="url(#mask-2)"></path>
                        </g>
                        <g id="Group-6" transform="translate(0.042042, 0.019087)">
                            <mask id="mask-4" fill="white">
                                <use xlink:href="#path-3"></use>
                            </mask>
                            <g id="Clip-5"></g>
                            <path d="M5.69535135,0.0229381381 C5.69745345,1.19351471 5.6995976,2.36409129 5.7016997,3.53466787 C5.66302102,3.63926847 5.5638018,3.64385105 5.47828829,3.66457778 C3.77381982,4.07818739 2.07073874,4.49776697 0.366396396,4.91183904 C0.256078078,4.93861982 0.142522523,5.0052985 0.0248888889,4.92903423 C0.0247207207,4.30681201 0.0272432432,3.68458979 0.0219218836,3.06245165 C0.020978979,2.95141862 0.0488948949,2.88612733 0.152990991,2.83328048 C1.97572372,1.90764084 3.79648048,0.978133333 5.61790991,0.0499291291 C5.64204204,0.0376528529 5.66945345,0.031809009 5.69535135,0.0229381381" id="Fill-4" fill="#A0501E" mask="url(#mask-4)"></path>
                        </g>
                        <g id="Group-9" transform="translate(0.000000, 3.550619)">
                            <mask id="mask-6" fill="white">
                                <use xlink:href="#path-5"></use>
                            </mask>
                            <g id="Clip-8"></g>
                            <path d="M0.0669267267,1.39749009 C0.926476276,1.1882048 1.7858997,0.978499099 2.64557538,0.769802402 C3.63263844,0.530162763 4.62003784,0.2917003 5.60705886,0.0517663664 C5.65376757,0.040372973 5.69820601,0.0196042042 5.74373754,0.00316576577 C6.36297477,0.116174775 6.96804384,0.289514114 7.57874655,0.438469069 C8.82146727,0.741508108 10.0620859,1.05320781 11.3025363,1.3654961 C11.3857375,1.38643303 11.4904222,1.37583844 11.5431009,1.47236697 C10.3247225,1.59336396 9.10626006,1.71410871 7.88788168,1.83548408 C7.1986024,1.90413874 6.51066847,2.00281141 5.81974955,2.03232492 C5.3905003,2.05065526 4.95641622,1.96833694 4.52510691,1.92515976 C3.34162342,1.80672733 2.15843423,1.68480541 0.975076877,1.56485946 C0.668800601,1.53379039 0.362272072,1.50524384 0.0560378378,1.47388048 C0.0357735736,1.47177838 -0.0074036036,1.48657718 0.00108888889,1.44571231 C0.00520900901,1.42595255 0.0438876877,1.41333994 0.0669267267,1.39749009" id="Fill-7" fill="#6E3915" mask="url(#mask-6)"></path>
                        </g>
                        <path d="M8.72310991,8.64303243 C8.7466955,8.83495435 8.64579459,8.87977117 8.47068949,8.90764505 C7.60731411,9.04491231 6.74675556,9.1997952 5.88501982,9.34736276 C5.83734414,9.35551892 5.78794474,9.35387928 5.73938619,9.35682222 C5.66387868,9.27744685 5.672203,9.17646186 5.67203483,9.07980721 C5.67018498,8.10262402 5.67035315,7.12544084 5.67174054,6.14825766 C5.67186667,6.05072012 5.66896577,5.95112252 5.74043724,5.87065405 C6.38292372,5.88625165 7.01994474,5.97453994 7.66045526,6.0170024 C7.94596276,6.03592132 8.23092372,6.06312252 8.51613694,6.08691832 C8.59668949,6.09364505 8.69548829,6.07527267 8.68918198,6.20732673 C8.74123003,6.27097838 8.74715796,6.34753694 8.74812492,6.42472613 C8.75594474,7.05821562 8.73298979,7.69225165 8.78936817,8.32494234 C8.7989958,8.4332006 8.80778258,8.55024565 8.72310991,8.64303243" id="Fill-10" fill="#FB862E"></path>
                        <path d="M5.74042042,5.87064985 C5.74008408,7.03269189 5.73970571,8.19477598 5.73936937,9.35681802 C5.10138138,9.23867988 4.46221622,9.12638559 3.82590991,8.999797 C3.52076877,8.93908829 3.20482282,8.92323844 2.91422823,8.7963976 C2.79941141,7.98595315 2.87689489,7.17101021 2.85696697,6.35833754 C2.85507508,6.28001321 2.87285886,6.20627147 2.91498498,6.1392985 C2.93281081,6.08943664 2.97682883,6.09061381 3.01786186,6.08712432 C3.87690691,6.01451772 4.73595195,5.94182703 5.59508108,5.87014535 C5.64317718,5.86610931 5.69194595,5.87027147 5.74042042,5.87064985" id="Fill-12" fill="#A0501E"></path>
                        <path d="M5.91340661,13.9095634 C5.89293213,14.0254733 5.81801321,13.9619057 5.77996517,13.9385724 C5.22324444,13.5970649 4.63570691,13.3116414 4.06460781,12.9964102 C3.96000721,12.9386865 3.91325646,12.8771369 3.9196048,12.7554673 C3.92982102,12.5611489 3.92258979,12.3659057 3.92271592,12.1710408 C3.87684805,12.1212631 3.86852372,12.0585363 3.86806126,11.9956835 C3.86394114,11.4040679 3.85885405,10.8124523 3.87066787,10.2208366 C3.87134054,10.1859838 3.88033754,10.1520138 3.89257177,10.1195153 C3.96601922,10.0043201 4.06830751,10.0654072 4.15667988,10.0842841 C4.61464384,10.182242 5.07021141,10.2919718 5.52132252,10.4169628 C5.67633153,10.4599297 5.84307027,10.4260859 5.98912432,10.5060078 C6.10579099,10.6933051 6.06715435,10.9017916 6.04726847,11.0977916 C6.01889009,11.3769087 6.00825345,11.6554372 6.0185958,11.9339658 C6.04028949,12.5209988 5.96642162,13.1049207 5.97276997,13.6911129 C5.97361081,13.769185 5.96074595,13.84423 5.91340661,13.9095634" id="Fill-14" fill="#A0501E"></path>
                        <path d="M5.91340661,13.9095634 C5.92833153,12.9808126 5.94018739,12.0520619 5.98122042,11.1237736 C5.9903015,10.919155 6.04024745,10.7059598 5.94481201,10.5049988 C5.97415736,10.4408847 6.03427748,10.4204102 6.09460781,10.4037616 C6.63686607,10.254218 7.17340661,10.0840739 7.72070991,9.9529027 C7.78015736,9.93865045 7.84212733,9.91371952 7.89867387,9.96425405 C7.95774294,10.0515754 7.95013333,10.1514252 7.95038559,10.2485844 C7.95198318,10.8427646 7.95156276,11.4369868 7.95076396,12.031209 C7.95063784,12.129167 7.95265586,12.2278817 7.89493213,12.3146985 C7.89501622,12.3356775 7.89110631,12.3575814 7.89568889,12.3775514 C8.00306426,12.8453532 7.77818138,13.0734733 7.35591111,13.2349147 C6.86137057,13.4239778 6.39306426,13.6816535 5.91340661,13.9095634" id="Fill-16" fill="#FB862E"></path>
                        <path d="M9.64857297,6.1782 C10.2613357,6.23268649 10.8739303,6.28898078 11.4869874,6.34006186 C11.5982727,6.34931111 11.6231616,6.40232613 11.6225831,6.50331111 C11.6192517,7.08445826 11.6201345,7.66564745 11.6219003,8.24679459 C11.6221526,8.33108889 11.6157622,8.38755135 11.5082607,8.40504084 C10.8736781,8.50812793 10.2404829,8.61995976 9.60632072,8.7256955 C9.56827267,8.73204384 9.52568408,8.71077057 9.4851976,8.70232012 C9.56902943,8.39730511 9.56966006,8.08241021 9.58012853,7.7710048 C9.59484324,7.33267447 9.58218859,6.89346126 9.58508949,6.45466847 C9.58572012,6.35910691 9.57083724,6.25723904 9.64857297,6.1782" id="Fill-18" fill="#FB872E"></path>
                        <path d="M1.70023063,8.64744264 C1.17705946,8.60863784 0.671251652,8.46548468 0.154092492,8.39069189 C0.0664768769,8.37803724 0.0662666667,8.31783303 0.0663087087,8.25220541 C0.0666870871,7.65798318 0.0671075075,7.063803 0.0658012693,6.46958078 C0.065636036,6.39239159 0.0723627628,6.34080601 0.172548949,6.33147267 C0.672807207,6.28497417 1.17235075,6.23073994 1.67214655,6.1791964 C1.77161802,6.24154474 1.76821261,6.34421141 1.76875916,6.44103423 C1.77237477,7.09806727 1.77174414,7.7551003 1.76938979,8.41213333 C1.7690955,8.49672192 1.76291532,8.58067988 1.70023063,8.64744264" id="Fill-20" fill="#A0501E"></path>
                        <path d="M3.93400841,10.0860078 C3.93026667,10.7811309 3.92652492,11.4762961 3.92274114,12.1712511 C3.59716757,12.2108547 3.30190631,12.3569087 2.98793634,12.4374192 C2.89523363,12.461173 2.80950991,12.5128426 2.70940781,12.5070829 C2.65181021,12.4460799 2.64701742,12.3687225 2.64668108,12.2918697 C2.64319159,11.5255694 2.6434018,10.7592691 2.64647087,9.99296877 C2.64672312,9.93015796 2.6521045,9.86755736 2.67859099,9.80916096 C2.70743183,9.75278258 2.7614979,9.73798378 2.81737177,9.72944925 C3.37627868,9.6441039 3.9292997,9.52604985 4.48635676,9.43082462 C4.56547988,9.41728709 4.65183423,9.38634414 4.72902342,9.4460018 C4.73070511,9.55787568 4.73238679,9.66974955 4.73406847,9.78162342 C4.45314354,9.94251832 4.13005045,9.93877658 3.83937177,10.0280318 C3.85892132,10.0436715 3.91794835,10.0329928 3.93400841,10.0860078" id="Fill-22" fill="#FB862E"></path>
                        <path d="M9.99541562,11.5146973 C10.0599922,11.8177363 9.92037057,11.9827934 9.64667688,12.0988294 C9.37197417,12.2152859 9.11564384,12.3750456 8.85124144,12.5158024 C8.73121141,12.4936883 8.75441862,12.3942589 8.75231652,12.3176583 C8.74533754,12.0656583 8.74945766,11.813406 8.74983604,11.5612799 C8.74996216,11.4698805 8.7473976,11.3793219 8.71843063,11.2915381 C8.69564384,10.8127213 8.67546366,10.3337784 8.72856276,9.85546607 C8.74525345,9.81485345 8.77447267,9.78088348 8.81411832,9.76764024 C9.18417237,9.64395255 9.55367988,9.51669129 9.94954775,9.50113574 C10.0474216,9.5530997 10.0492294,9.64882943 10.0502384,9.7387994 C10.0560402,10.2642829 10.0549051,10.7898084 10.0512474,11.3152919 C10.0507429,11.3865952 10.0362384,11.4544511 9.99541562,11.5146973" id="Fill-24" fill="#FB862E"></path>
                        <path d="M1.70023063,8.64744264 C1.69955796,7.90729249 1.69896937,7.16714234 1.69821261,6.42695015 C1.69812853,6.3434967 1.70611652,6.25907628 1.67202042,6.1791964 C2.01184625,6.17499219 2.35154595,6.17141862 2.69124565,6.16612132 C2.76654294,6.16494414 2.84465706,6.18146667 2.91507748,6.13908829 C2.91482523,7.02512432 2.91465706,7.91095015 2.91436276,8.79656577 C2.9096961,8.63567087 2.85798438,8.57357477 2.66955195,8.59106426 C2.34814054,8.62087207 2.02572012,8.67418138 1.70023063,8.64744264" id="Fill-26" fill="#FB862E"></path>
                        <path d="M8.76656877,9.83071592 C8.76938559,10.320758 8.7722024,10.8108 8.77501922,11.300842 C8.78758979,11.7170583 8.80861081,12.1334006 8.76358378,12.5491123 C8.47395616,12.4709982 8.18437057,12.3928841 7.89482703,12.3147279 C7.89154775,11.5992144 7.88931952,10.8837009 7.88292913,10.1682715 C7.8822985,10.0980192 7.92076697,10.0133045 7.8373976,9.95877598 C7.39175195,9.94818138 6.9567009,9.88532853 6.54737958,9.69622342 C6.58513333,9.61932853 6.4674997,9.49505225 6.62133153,9.45351471 C7.29261682,9.47693213 7.93934955,9.66006727 8.59907327,9.75857177 C8.66011832,9.76769489 8.72532553,9.77299219 8.76656877,9.83071592" id="Fill-28" fill="#A0501C"></path>
                        <path d="M11.4998396,9.11080901 C11.5883802,9.09626246 11.6231489,9.12838258 11.6226087,9.2231033 C11.619239,9.82464084 11.6204162,10.4262204 11.6215514,11.027758 C11.6216354,11.0894757 11.6083922,11.1372775 11.5449087,11.1602324 C11.1577435,11.3002324 10.7708727,11.4410312 10.3830769,11.5793075 C10.3684883,11.5845207 10.3456595,11.5665688 10.3266565,11.5593796 C10.354152,10.9242505 10.3332571,10.2887429 10.3403201,9.65348769 C10.3414553,9.54926547 10.3310709,9.44336156 10.3731129,9.34338559 C10.4256234,9.25661081 10.5174432,9.24294715 10.6043021,9.22352372 C10.8991009,9.15747568 11.1956234,9.10290511 11.4998396,9.11080901" id="Fill-30" fill="#FB872E"></path>
                        <path d="M2.7044973,9.7901033 C2.70613694,10.695773 2.70777658,11.6014006 2.70941622,12.5070703 C2.36837117,12.3453766 2.06898979,12.1158691 1.7598967,11.9049021 C1.6077045,11.8010583 1.71865345,11.6055207 1.69338619,11.453833 C1.66126607,11.3911904 1.63902583,11.3260673 1.63864745,11.2545117 C1.63608288,10.7324336 1.63250931,10.2103976 1.64091772,9.68836156 C1.64159039,9.64652973 1.64978859,9.60532853 1.6655964,9.56635556 C1.68409489,9.52469189 1.71953634,9.49223544 1.76178859,9.49913033 C2.08912793,9.55260781 2.42058739,9.59523844 2.7044973,9.7901033" id="Fill-32" fill="#A0501E"></path>
                        <path d="M9.64857297,6.1782 C9.64731171,6.75552132 9.64899339,7.33284264 9.64327568,7.91012192 C9.64108949,8.13172553 9.61712553,8.35307688 9.61275315,8.57476456 C9.6109033,8.66973754 9.55927568,8.69180961 9.48498739,8.70227808 C9.23117958,8.68256036 8.97716156,8.6628006 8.7231015,8.64304084 C8.69653093,7.83133514 8.66899339,7.01962943 8.68908949,6.20729309 C9.00894535,6.19762342 9.32875916,6.18791171 9.64857297,6.1782" id="Fill-34" fill="#A1501E"></path>
                        <path d="M6.54736276,9.69624444 C6.97736877,9.78373393 7.40737477,9.87122342 7.83738078,9.95875495 C7.27342883,10.1232234 6.70947688,10.2879021 6.14535676,10.4519502 C6.07897237,10.4712474 6.01166306,10.4873916 5.94481622,10.5050072 C5.82802342,10.5351934 5.71522462,10.5273315 5.59683423,10.4971033 C5.04364505,10.355842 4.48847988,10.2222745 3.93402943,10.0859742 C3.86226366,10.0661724 3.7904979,10.0463285 3.71873213,10.0264847 C3.71835375,10.0161423 3.71801742,10.005758 3.71763904,9.99541562 C4.05645586,9.92415435 4.39523063,9.85289309 4.73408949,9.78163183 C5.33146486,9.60324745 5.93174114,9.48691712 6.54736276,9.69624444" id="Fill-36" fill="#FDBD8F"></path>
                        <path d="M1.70058378,9.52371652 C1.69818739,10.1672541 1.69579099,10.8107916 1.69339459,11.4540769 C1.46804925,11.4152721 1.25519039,11.521176 1.03228348,11.5108757 C0.873028228,11.5599387 0.853058258,11.4539928 0.848517718,11.3404372 C0.840403604,11.1379207 0.845616817,10.935152 0.845364565,10.7325093 C0.84486006,10.341182 0.844313514,9.94985465 0.845869069,9.55852733 C0.846247447,9.46851532 0.834433634,9.37602282 0.878998198,9.29118198 C0.938445646,9.21596877 1.02673393,9.2187015 1.10892613,9.21054535 C1.65681802,9.15593273 2.20386907,9.08589069 2.75663784,9.11418498 C2.76807327,9.1135964 2.77946667,9.11426907 2.79081802,9.116203 C2.87881201,9.30135616 2.74251171,9.33906787 2.61697417,9.35504384 C2.32692613,9.39204084 2.03956877,9.45544024 1.74653574,9.46204084 C1.67834354,9.46355435 1.69272192,9.48596276 1.70058378,9.52371652" id="Fill-38" fill="#FB862E"></path>
                        <path d="M0.821736937,11.5073778 C0.607700901,11.391636 0.395136336,11.2730775 0.178914114,11.161582 C0.0936108108,11.117606 0.0640132132,11.0604288 0.0642234234,10.9639844 C0.0657369369,10.3512216 0.0634666667,9.73841682 0.0551843844,9.1256961 C0.0538810811,9.02946186 0.112992192,9.08378018 0.144733934,9.06931772 C0.339640841,9.06553393 0.524667868,9.11665706 0.707298498,9.17564204 C0.783478679,9.20023664 0.870842042,9.22096336 0.883034234,9.32531171 C0.882824024,9.98894535 0.884884084,10.6523688 0.879923123,11.3157081 C0.879418619,11.3788553 0.935544745,11.4733237 0.821736937,11.5073778" id="Fill-40" fill="#A0501E"></path>
                        <path d="M10.4020547,9.32733393 C10.4027273,10.0069015 10.4039465,10.686427 10.4031898,11.3659946 C10.4031057,11.4382649 10.4309796,11.5265111 10.3265051,11.5593459 C10.2161868,11.5445051 10.1057423,11.5296643 9.99533994,11.5147393 C9.99323784,10.9213159 9.9929015,10.3279345 9.98638498,9.73463724 C9.98558619,9.66274535 10.0391898,9.55822883 9.91104565,9.52766426 C9.57285946,9.48213273 9.23341201,9.44547207 8.89715976,9.38661321 C8.81694354,9.37257117 8.72466126,9.37492553 8.68766426,9.27612673 C8.66555015,9.08512973 8.80878739,9.17682342 8.88795255,9.15895556 C9.00983243,9.15748408 9.13141802,9.14718378 9.25325586,9.1465952 C9.32657718,9.15824084 9.39846907,9.17972432 9.47364024,9.17980841 C9.54628889,9.18392853 9.61944204,9.18111171 9.69162823,9.19250511 C9.71201862,9.19549009 9.73203063,9.20028288 9.75179039,9.20587447 C9.82086547,9.22992252 9.89258919,9.22399459 9.96389249,9.22365826 C10.0288054,9.22315375 10.093382,9.22592853 10.1570757,9.23946607 C10.2392258,9.26733994 10.3386132,9.24758018 10.4020547,9.32733393" id="Fill-42" fill="#A1501C"></path>
                        <path d="M8.68764324,9.27611832 C9.02145706,9.38088709 9.37233994,9.3818961 9.71313273,9.44458078 C9.78573934,9.45790811 9.87175736,9.43608829 9.91098258,9.5276979 C9.52953514,9.62868288 9.1480036,9.72966787 8.76651411,9.83069489 C8.04578739,9.73727748 7.33292252,9.59879099 6.62127688,9.45349369 C7.05473033,9.38408228 7.48910871,9.32013634 7.92117477,9.24324144 C8.18124685,9.1969952 8.43043003,9.31164384 8.68764324,9.27611832" id="Fill-44" fill="#FDBD8F"></path>
                        <path d="M1.70058378,9.52371652 C1.6592985,9.50416697 1.61801321,9.48457538 1.53817538,9.44673754 C1.88792312,9.40053333 2.20340661,9.37080961 2.51313033,9.31119399 C2.61743664,9.2910979 2.83513033,9.37055736 2.79081802,9.11616096 C2.83479399,9.26486366 2.94258979,9.26129009 3.06552072,9.23703183 C3.62072793,9.12742823 4.14843964,9.33082763 4.68939459,9.38413694 C4.70751471,9.38594474 4.72538258,9.4015003 4.74047568,9.41411291 C4.74346066,9.41659339 4.73316036,9.43496577 4.7289982,9.44602282 C4.16470991,9.55217898 3.60071592,9.66014294 3.03575495,9.76285165 C2.92732853,9.78256937 2.81507628,9.78151832 2.70454775,9.79009489 C2.36985105,9.7013021 2.03523844,9.61250931 1.70058378,9.52371652" id="Fill-46" fill="#FDBD8F"></path>
                        <path d="M0.860318919,9.28006186 C0.621814414,9.20980961 0.383267868,9.1395994 0.144763363,9.06934715 C0.343832432,8.98013393 0.558583183,9.0342 0.76564024,9.00237417 C1.43499159,8.89941321 2.10034895,8.9449027 2.75662523,9.11420601 C2.56663724,9.19374955 2.36193453,9.15347327 2.16475736,9.1808006 C1.74841502,9.23856637 1.32580841,9.25096877 0.905766366,9.2819958 C0.889832432,9.29935916 0.874697297,9.29872853 0.860318919,9.28006186" id="Fill-48" fill="#FDBD90"></path>
                        <path d="M10.4020547,9.32733393 C10.3201568,9.30765826 10.2287994,9.33797057 10.1540066,9.28054114 C10.0837964,9.2303009 10.0039586,9.26767628 9.92946006,9.25598859 C9.86294955,9.2495982 9.79391652,9.27154414 9.72988649,9.23816276 L9.73375435,9.2384991 C9.65202462,9.19574234 9.56810871,9.20936396 9.48398258,9.22882943 C9.40982042,9.24261922 9.33893754,9.23564024 9.27330991,9.19561622 C9.22155616,9.12300961 9.09597658,9.23971832 9.06482342,9.11430691 C9.67809069,8.91885345 10.2992619,8.98242102 10.9207694,9.05771832 C11.1132799,9.08105165 11.3114661,9.04262523 11.4998565,9.11081742 C11.1339225,9.1830036 10.7679886,9.25514775 10.4020547,9.32733393" id="Fill-50" fill="#FDBD90"></path>
                        <path d="M0.860318919,9.28006186 C0.875454054,9.28069249 0.890589189,9.28132312 0.905766366,9.28195375 C0.905345946,9.95647628 0.904673273,10.6309568 0.904883483,11.3053952 C0.904925526,11.3988967 0.876294895,11.5129988 1.03235495,11.5108547 C0.96143003,11.5492811 0.890841441,11.5707646 0.821724324,11.5073652 C0.881466066,11.4597736 0.861958559,11.3924222 0.862000601,11.332176 C0.862421021,10.648152 0.86115976,9.96408589 0.860318919,9.28006186" id="Fill-52" fill="#D58954"></path>
                        <path d="M8.76357538,12.5490955 C8.76789192,12.1329634 8.77220847,11.7168733 8.77657298,11.3007832 C8.86228041,11.6242547 8.79024204,11.9524348 8.81580559,12.2775459 C8.82208856,12.3578462 8.77973844,12.4470595 8.86357538,12.5157982 C8.83873125,12.5464468 8.80602142,12.5590174 8.76357538,12.5490955" id="Fill-54" fill="#F19754"></path>
                        <path d="M9.06480661,9.11486375 C9.11618198,9.20217692 9.22511291,9.11416485 9.27329309,9.21136252 C9.14447628,9.20152793 9.01221201,9.23437646 8.88793574,9.16783074 C8.94158138,9.12509771 8.99938919,9.1021337 9.06480661,9.11486375" id="Fill-56" fill="#F9CEAF"></path>
                        <path d="M9.48398258,9.26868364 C9.56945405,9.16242392 9.65299159,9.15281665 9.73375435,9.28773254 C9.65051111,9.2813553 9.56722583,9.27506088 9.48398258,9.26868364" id="Fill-58" fill="#FAD2B5"></path>
                        <path d="M9.94422523,9.23938628 C10.0153604,9.25876436 10.0966697,9.17413171 10.154015,9.3339333 C10.0843934,9.32690311 10.0147718,9.31996305 9.94519219,9.31293286 C9.93043544,9.29752053 9.92543243,9.28147728 9.93001502,9.26480311 C9.93468168,9.24785856 9.93939039,9.23938628 9.94422523,9.23938628" id="Fill-60" fill="#F9D4BA"></path>
                        <path d="M9.94422523,9.23798443 C9.94414114,9.26518443 9.94443544,9.29248443 9.94519219,9.31958443 C9.87098799,9.33148443 9.79548048,9.36478443 9.72989489,9.24198443 C9.80132432,9.24068443 9.8727958,9.23928443 9.94422523,9.23798443" id="Fill-62" fill="#E1BEA7"></path>
                    </g>
                </g>
            </g>
        </g>
    </g>
</svg>