<?xml version="1.0" encoding="utf-8"?>
<!-- Generator: Adobe Illustrator 20.1.0, SVG Export Plug-In . SVG Version: 6.00 Build 0)  -->
<svg version="1.1" id="Layer_1" xmlns="http://www.w3.org/2000/svg" xmlns:xlink="http://www.w3.org/1999/xlink" x="0px" y="0px"
	 viewBox="0 0 14 14" style="enable-background:new 0 0 14 14;" xml:space="preserve">
<style type="text/css">
	.st0{fill:#4D5969;}
</style>
<title>HDL/Icon/Standard/refresh</title>
<desc>Created with Sketch.</desc>
<g id="Colors">
	<g id="Main-Icons" transform="translate(-623.000000, -1300.000000)">
		<g id="Refresh" transform="translate(602.000000, 1282.000000)">
			<g id="HDL_x2F_Icon_x2F_Standard_x2F_refresh" transform="translate(21.000000, 18.000000)">
				<path id="Shape" class="st0" d="M13.3,0.7c-0.4,0-0.7,0.3-0.7,0.7V3C11.3,1.2,9.3,0,7,0C3.1,0,0,3.3,0,7.3C0,7.7,0.3,8,0.7,8
					s0.7-0.3,0.7-0.7c0-3.2,2.5-5.8,5.6-5.8c1.8,0,3.3,0.9,4.4,2.2h-0.9c-0.4,0-0.7,0.3-0.7,0.7s0.3,0.7,0.7,0.7h2.8
					c0.4,0,0.7-0.3,0.7-0.7V1.5C14,1.1,13.7,0.7,13.3,0.7z M13.3,6c-0.4,0-0.7,0.3-0.7,0.7c0,3.2-2.5,5.8-5.6,5.8
					c-1.8,0-3.3-0.9-4.4-2.2h0.9c0.4,0,0.7-0.3,0.7-0.7c0-0.4-0.3-0.7-0.7-0.7H0.7C0.3,8.9,0,9.2,0,9.6v2.9c0,0.4,0.3,0.7,0.7,0.7
					s0.7-0.3,0.7-0.7V11c1.3,1.8,3.3,3,5.6,3c3.9,0,7-3.3,7-7.3C14,6.3,13.7,6,13.3,6z"/>
			</g>
		</g>
	</g>
</g>
</svg>
