<?xml version="1.0" encoding="UTF-8"?>
<svg width="14px" height="14px" viewBox="0 0 14 14" version="1.1" xmlns="http://www.w3.org/2000/svg" xmlns:xlink="http://www.w3.org/1999/xlink">
    <!-- Generator: Sketch 59 (86127) - https://sketch.com -->
    <title>HDL/Icon/Standard/list</title>
    <desc>Created with Sketch.</desc>
    <g id="Colors" stroke="none" stroke-width="1" fill="none" fill-rule="evenodd">
        <g id="Main-Icons" transform="translate(-122.000000, -1017.000000)" fill="#4D5969">
            <g id="List" transform="translate(101.000000, 1003.000000)">
                <g id="HDL/Icon/Standard/list" transform="translate(21.000000, 14.000000)">
                    <path d="M1.4,10.8888889 C0.63,10.8888889 0,11.5888889 0,12.4444444 C0,13.3 0.63,14 1.4,14 C2.17,14 2.8,13.3 2.8,12.4444444 C2.8,11.5888889 2.17,10.8888889 1.4,10.8888889 Z M1.4,5.44444444 C0.63,5.44444444 0,6.14444444 0,7 C0,7.85555556 0.63,8.55555556 1.4,8.55555556 C2.17,8.55555556 2.8,7.85555556 2.8,7 C2.8,6.14444444 2.17,5.44444444 1.4,5.44444444 Z M4.9,2.33333333 L13.3,2.33333333 C13.685,2.33333333 14,1.98333333 14,1.55555556 C14,1.12777778 13.685,0.777777778 13.3,0.777777778 L4.9,0.777777778 C4.515,0.777777778 4.2,1.12777778 4.2,1.55555556 C4.2,1.98333333 4.515,2.33333333 4.9,2.33333333 Z M1.4,0 C0.63,0 0,0.7 0,1.55555556 C0,2.41111111 0.63,3.11111111 1.4,3.11111111 C2.17,3.11111111 2.8,2.41111111 2.8,1.55555556 C2.8,0.7 2.17,0 1.4,0 Z M13.3,6.22222222 L4.9,6.22222222 C4.515,6.22222222 4.2,6.57222222 4.2,7 C4.2,7.42777778 4.515,7.77777778 4.9,7.77777778 L13.3,7.77777778 C13.685,7.77777778 14,7.42777778 14,7 C14,6.57222222 13.685,6.22222222 13.3,6.22222222 Z M13.3,11.6666667 L4.9,11.6666667 C4.515,11.6666667 4.2,12.0166667 4.2,12.4444444 C4.2,12.8722222 4.515,13.2222222 4.9,13.2222222 L13.3,13.2222222 C13.685,13.2222222 14,12.8722222 14,12.4444444 C14,12.0166667 13.685,11.6666667 13.3,11.6666667 Z" id="Shape"></path>
                </g>
            </g>
        </g>
    </g>
</svg>