<?xml version="1.0" encoding="utf-8"?>
<!-- Generator: Adobe Illustrator 20.1.0, SVG Export Plug-In . SVG Version: 6.00 Build 0)  -->
<svg version="1.1" id="Layer_1" xmlns="http://www.w3.org/2000/svg" xmlns:xlink="http://www.w3.org/1999/xlink" x="0px" y="0px"
	 viewBox="0 0 14 14" style="enable-background:new 0 0 14 14;" xml:space="preserve">
<style type="text/css">
	.st0{fill:#4D5969;}
</style>
<title>HDL/Icon/Standard/link</title>
<desc>Created with Sketch.</desc>
<g id="Colors">
	<g id="Main-Icons" transform="translate(-121.000000, -688.000000)">
		<g id="Link" transform="translate(100.000000, 670.000000)">
			<g id="HDL_x2F_Icon_x2F_Standard_x2F_link" transform="translate(21.000000, 18.000000)">
				<path id="Shape" class="st0" d="M7.6,8.4l-3.1,3.1l-0.7,0.7c-0.3,0.3-0.6,0.4-1,0.4c-0.8,0-1.4-0.6-1.4-1.4c0-0.4,0.2-0.7,0.4-1
					l3.8-3.8C5.4,6.3,5.2,6.3,4.9,6.3c-0.8,0-1.5,0.3-2,0.8l0,0L0.8,9.2l0,0C0.3,9.7,0,10.4,0,11.2C0,12.7,1.3,14,2.8,14
					c0.8,0,1.5-0.3,2-0.8l0,0l2.1-2.1l0,0c0.5-0.5,0.8-1.2,0.8-2C7.7,8.8,7.7,8.6,7.6,8.4z M14,2.8C14,1.3,12.7,0,11.2,0
					c-0.8,0-1.5,0.3-2,0.8l0,0L7.1,2.9l0,0c-0.5,0.5-0.8,1.2-0.8,2c0,0.3,0,0.5,0.1,0.7l3.1-3.1l0.7-0.7c0.3-0.3,0.6-0.4,1-0.4
					c0.8,0,1.4,0.6,1.4,1.4c0,0.4-0.2,0.7-0.4,1L8.4,7.6c0.2,0.1,0.5,0.1,0.7,0.1c0.8,0,1.5-0.3,2-0.8l0,0l2.1-2.1l0,0
					C13.7,4.3,14,3.6,14,2.8z M3.5,9.8c0,0.4,0.3,0.7,0.7,0.7c0.2,0,0.4-0.1,0.5-0.2l5.6-5.6c0.1-0.1,0.2-0.3,0.2-0.5
					c0-0.4-0.3-0.7-0.7-0.7c-0.2,0-0.4,0.1-0.5,0.2L7.9,5.1L6.5,6.5L5.1,7.9L3.7,9.3C3.6,9.4,3.5,9.6,3.5,9.8z"/>
			</g>
		</g>
	</g>
</g>
</svg>
