<?xml version="1.0" encoding="utf-8"?>
<!-- Generator: Adobe Illustrator 20.1.0, SVG Export Plug-In . SVG Version: 6.00 Build 0)  -->
<svg version="1.1" id="Layer_1" xmlns="http://www.w3.org/2000/svg" xmlns:xlink="http://www.w3.org/1999/xlink" x="0px" y="0px"
	 viewBox="0 0 13 14" style="enable-background:new 0 0 13 14;" xml:space="preserve">
<style type="text/css">
	.st0{fill:#4D5969;}
</style>
<title>HDL/Icon/Standard/listener-update</title>
<desc>Created with Sketch.</desc>
<g id="Colors">
	<g id="Main-Icons" transform="translate(-1121.000000, -923.000000)">
		<g id="Listener-Update" transform="translate(1099.000000, 905.000000)">
			<g id="HDL_x2F_Icon_x2F_Standard_x2F_listener-update" transform="translate(22.000000, 18.000000)">
				<path id="Shape" class="st0" d="M6.1,0C5.9,0,5.8,0.1,5.7,0.3c-0.1,0.2-0.1,0.4,0,0.6C5.8,1,5.9,1.1,6.1,1.1c2.8,0,5,2.2,5,5
					c0,0.2,0.1,0.4,0.3,0.5c0.2,0.1,0.4,0.1,0.6,0s0.3-0.3,0.3-0.5C12.3,2.8,9.5,0,6.1,0z M6.1,2.2C4,2.2,2.2,4,2.2,6.1
					c0,0.2,0.1,0.4,0.3,0.5s0.4,0.1,0.6,0c0.2-0.1,0.3-0.3,0.3-0.5c0-1.5,1.2-2.8,2.8-2.8S9,4.5,9,6.1c0,1-0.2,1.6-0.5,2.1
					s-0.6,1-0.6,1.8c0,0.9-0.7,1.7-1.7,1.7c-0.2,0-0.4,0.1-0.5,0.3c-0.1,0.2-0.1,0.4,0,0.6c0.1,0.2,0.3,0.3,0.5,0.3
					c1.5,0,2.8-1.3,2.8-2.8c0-0.4,0.2-0.7,0.5-1.3c0.3-0.6,0.6-1.4,0.6-2.6C10.1,4,8.3,2.2,6.1,2.2z M6.1,4.5
					c-0.9,0-1.7,0.8-1.7,1.7c0,0.2,0.1,0.4,0.3,0.5c0.2,0.1,0.4,0.1,0.6,0c0.2-0.1,0.3-0.3,0.3-0.5c0-0.3,0.2-0.6,0.6-0.6
					c0.3,0,0.6,0.2,0.6,0.6c0,0.2,0.1,0.4,0.3,0.5c0.2,0.1,0.4,0.1,0.6,0C7.9,6.6,8,6.4,8,6.2C7.8,5.2,7.1,4.5,6.1,4.5z M5.6,7.8
					C5.3,7.8,5,8.1,5,8.4C5,8.7,5.3,9,5.6,9c0.3,0,0.6-0.3,0.6-0.6C6.1,8.1,5.9,7.8,5.6,7.8z M3.4,8.9C3.2,8.9,3.1,9,3,9.1
					C2.7,9.3,2.7,9.7,3,9.9L4.1,11c0.2,0.2,0.6,0.2,0.8,0c0.2-0.2,0.2-0.6,0-0.8L3.7,9.1C3.6,9,3.5,8.9,3.4,8.9z M2.2,11.2
					c-0.3,0-0.6,0.3-0.6,0.6s0.3,0.6,0.6,0.6s0.6-0.3,0.6-0.6S2.5,11.2,2.2,11.2z M0.6,12.8c-0.3,0-0.6,0.3-0.6,0.6
					C0,13.7,0.3,14,0.6,14s0.6-0.3,0.6-0.6C1.2,13.1,0.9,12.8,0.6,12.8z"/>
			</g>
		</g>
	</g>
</g>
</svg>
