<?xml version="1.0" encoding="UTF-8"?>
<svg width="14px" height="14px" viewBox="0 0 14 14" version="1.1" xmlns="http://www.w3.org/2000/svg" xmlns:xlink="http://www.w3.org/1999/xlink">
    <!-- Generator: Sketch 59 (86127) - https://sketch.com -->
    <title>HDL/Icon/Standard/minimize</title>
    <desc>Created with Sketch.</desc>
    <g id="Colors" stroke="none" stroke-width="1" fill="none" fill-rule="evenodd">
        <g id="Main-Icons" transform="translate(-119.000000, -500.000000)" fill="#4D5969">
            <g id="Minimize" transform="translate(98.000000, 482.000000)">
                <g id="HDL/Icon/Standard/minimize" transform="translate(21.000000, 18.000000)">
                    <path d="M5.6,7.7 L2.1,7.7 C1.715,7.7 1.4,8.015 1.4,8.4 C1.4,8.785 1.715,9.1 2.1,9.1 L3.913,9.1 L0.21,12.803 C0.077,12.929 0,13.104 0,13.3 C0,13.685 0.315,14 0.7,14 C0.896,14 1.071,13.923 1.197,13.797 L4.9,10.087 L4.9,11.9 C4.9,12.285 5.215,12.6 5.6,12.6 C5.985,12.6 6.3,12.285 6.3,11.9 L6.3,8.4 C6.3,8.015 5.985,7.7 5.6,7.7 Z M14,0.7 C14,0.315 13.685,0 13.3,0 C13.104,0 12.929,0.077 12.803,0.203 L9.1,3.913 L9.1,2.1 C9.1,1.715 8.785,1.4 8.4,1.4 C8.015,1.4 7.7,1.715 7.7,2.1 L7.7,5.6 C7.7,5.985 8.015,6.3 8.4,6.3 L11.9,6.3 C12.285,6.3 12.6,5.985 12.6,5.6 C12.6,5.215 12.285,4.9 11.9,4.9 L10.087,4.9 L13.79,1.197 C13.923,1.071 14,0.896 14,0.7 Z" id="Shape"></path>
                </g>
            </g>
        </g>
    </g>
</svg>