<svg viewBox="0 0 14 12" xmlns="http://www.w3.org/2000/svg"><path d="M12.4 0c-.4 0-.8.2-1.1.4L9.5 2.2l-.6-.6c-.1-.1-.3-.2-.4-.2-.2 0-.4.2-.5.3s0 .4.1.5l.9.9c0 .1.1.1.1.1l.9.9c.1.1.3.2.5.1.2 0 .3-.2.4-.3 0-.2 0-.3-.1-.5l-.6-.6L12 1.1c.1-.1.3-.1.4-.1.4 0 .6.2.6.5 0 .4-.2.7-.5 1.3S12 4.1 12 5.3v2.9c0 .2.1.3.2.4.2.1.3.1.5 0s.3-.3.3-.4V5.3c0-1 .2-1.6.5-2.1s.5-1 .5-1.7S13.5.3 12.8.1c-.1 0-.2-.1-.4-.1zM5.2 1.9C2.4 1.9 0 4.2 0 7s2.4 5 5.2 5 5.2-2.3 5.2-5c0-.4-.1-.8-.1-1.1L6.4 2.1c-.3-.1-.7-.2-1.2-.2zm6.5 7.5c-.2 0-.4.1-.5.3s0 .4.1.5l.4.4-.4.4c-.1.1-.2.3-.1.5 0 .2.2.3.4.3s.4 0 .5-.1l.4-.4.4.4c.1.1.3.2.5.1.2 0 .3-.2.4-.3 0-.2 0-.3-.1-.5l-.4-.4.4-.4c.1-.1.2-.3.1-.5s-.3-.3-.5-.3c-.1 0-.3.1-.3.1l-.4.4-.4-.4c-.2-.1-.3-.1-.5-.1z" fill="#4d5969"/></svg>