<?xml version="1.0" encoding="utf-8"?>
<!-- Generator: Adobe Illustrator 20.1.0, SVG Export Plug-In . SVG Version: 6.00 Build 0)  -->
<svg version="1.1" id="Layer_1" xmlns="http://www.w3.org/2000/svg" xmlns:xlink="http://www.w3.org/1999/xlink" x="0px" y="0px"
	 viewBox="0 0 14 14" style="enable-background:new 0 0 14 14;" xml:space="preserve">
<style type="text/css">
	.st0{fill:#4D5969;}
</style>
<title>HDL/Icon/Standard/account-notifications</title>
<desc>Created with Sketch.</desc>
<g id="Colors">
	<g id="Main-Icons" transform="translate(-1121.000000, -876.000000)">
		<g id="Account-Notifications" transform="translate(1100.000000, 858.000000)">
			<g id="HDL_x2F_Icon_x2F_Standard_x2F_account-notifications" transform="translate(21.000000, 18.000000)">
				<path id="Shape" class="st0" d="M6.1,14c1,0,1.8-0.8,1.8-1.8H4.4C4.4,13.2,5.2,14,6.1,14z M9.1,2L8.7,2.4C8.3,2,7.6,1.7,7,1.7
					c-1.4,0-2.6,1.2-2.6,2.6c0,0.7,0.3,1.4,0.8,1.8L6.9,8C7.4,8.4,8,8.7,8.7,8.7c0.7,0,1.3-0.2,1.8-0.7v0.7c0,0.5,0.4,0.9,0.9,0.9
					s0.9,0.4,0.9,0.9s-0.4,0.9-0.9,0.9H0.9C0.4,11.4,0,11,0,10.5s0.4-0.9,0.9-0.9s0.9-0.4,0.9-0.9V5.2c0-2.1,1.5-3.9,3.5-4.3
					c0,0,0-0.1,0-0.1C5.2,0.4,5.6,0,6.1,0S7,0.4,7,0.9c0,0,0,0.1,0,0.1C7.8,1.1,8.5,1.5,9.1,2z M8.1,6.7L6.4,5
					C6.2,4.8,6.1,4.6,6.1,4.4c0-0.5,0.4-0.9,0.9-0.9c0.2,0,0.5,0.1,0.6,0.3l1.1,1.1L11.6,2c0.2-0.2,0.4-0.3,0.6-0.3
					c0.5,0,0.9,0.4,0.9,0.9c0,0.2-0.1,0.5-0.3,0.6L9.4,6.7C9.2,6.9,9,7,8.7,7S8.3,6.9,8.1,6.7z"/>
			</g>
		</g>
	</g>
</g>
</svg>
