<?xml version="1.0" encoding="UTF-8"?>
<svg width="14px" height="14px" viewBox="0 0 14 14" version="1.1" xmlns="http://www.w3.org/2000/svg" xmlns:xlink="http://www.w3.org/1999/xlink">
    <!-- Generator: Sketch 59 (86127) - https://sketch.com -->
    <title>HDL/Icon/Standard/move</title>
    <desc>Created with Sketch.</desc>
    <g id="Colors" stroke="none" stroke-width="1" fill="none" fill-rule="evenodd">
        <g id="Main-Icons" transform="translate(-623.000000, -1111.000000)" fill="#4D5969">
            <g id="Move" transform="translate(602.000000, 1093.000000)">
                <g id="HDL/Icon/Standard/move" transform="translate(21.000000, 18.000000)">
                    <path d="M13.797,6.503 L11.697,4.403 C11.571,4.277 11.396,4.2 11.2,4.2 C10.815,4.2 10.5,4.515 10.5,4.9 C10.5,5.096 10.577,5.271 10.703,5.397 L11.613,6.3 L7.7,6.3 L7.7,2.387 L8.603,3.29 C8.729,3.423 8.904,3.5 9.1,3.5 C9.485,3.5 9.8,3.185 9.8,2.8 C9.8,2.604 9.723,2.429 9.597,2.303 L7.497,0.203 C7.371,0.077 7.196,0 7,0 C6.804,0 6.629,0.077 6.503,0.203 L4.403,2.303 C4.277,2.429 4.2,2.604 4.2,2.8 C4.2,3.185 4.515,3.5 4.9,3.5 C5.096,3.5 5.271,3.423 5.397,3.297 L6.3,2.387 L6.3,6.3 L2.387,6.3 L3.29,5.397 C3.423,5.271 3.5,5.096 3.5,4.9 C3.5,4.515 3.185,4.2 2.8,4.2 C2.604,4.2 2.429,4.277 2.303,4.403 L0.203,6.503 C0.077,6.629 0,6.804 0,7 C0,7.196 0.077,7.371 0.203,7.497 L2.303,9.597 C2.429,9.723 2.604,9.8 2.8,9.8 C3.185,9.8 3.5,9.485 3.5,9.1 C3.5,8.904 3.423,8.729 3.297,8.603 L2.387,7.7 L6.3,7.7 L6.3,11.613 L5.397,10.71 C5.271,10.577 5.096,10.5 4.9,10.5 C4.515,10.5 4.2,10.815 4.2,11.2 C4.2,11.396 4.277,11.571 4.403,11.697 L6.503,13.797 C6.629,13.923 6.804,14 7,14 C7.196,14 7.371,13.923 7.497,13.797 L9.597,11.697 C9.723,11.571 9.8,11.396 9.8,11.2 C9.8,10.815 9.485,10.5 9.1,10.5 C8.904,10.5 8.729,10.577 8.603,10.703 L7.7,11.613 L7.7,7.7 L11.613,7.7 L10.71,8.603 C10.577,8.729 10.5,8.904 10.5,9.1 C10.5,9.485 10.815,9.8 11.2,9.8 C11.396,9.8 11.571,9.723 11.697,9.597 L13.797,7.497 C13.923,7.371 14,7.196 14,7 C14,6.804 13.923,6.629 13.797,6.503 Z" id="Path"></path>
                </g>
            </g>
        </g>
    </g>
</svg>