<?xml version="1.0" encoding="UTF-8"?>
<svg width="14px" height="13px" viewBox="0 0 14 13" version="1.1" xmlns="http://www.w3.org/2000/svg" xmlns:xlink="http://www.w3.org/1999/xlink">
    <!-- Generator: Sketch 59 (86127) - https://sketch.com -->
    <title>HDL/Icon/Standard/maximize</title>
    <desc>Created with Sketch.</desc>
    <g id="Colors" stroke="none" stroke-width="1" fill="none" fill-rule="evenodd">
        <g id="Main-Icons" transform="translate(-122.000000, -548.000000)" fill="#4D5969">
            <g id="Maximize" transform="translate(101.000000, 529.000000)">
                <g id="HDL/Icon/Standard/maximize" transform="translate(21.000000, 19.000000)">
                    <path d="M13.3,0 L9.8,0 C9.415,0 9.1,0.2925 9.1,0.65 C9.1,1.0075 9.415,1.3 9.8,1.3 L11.613,1.3 L7.91,4.7385 C7.777,4.8555 7.7,5.018 7.7,5.2 C7.7,5.5575 8.015,5.85 8.4,5.85 C8.596,5.85 8.771,5.7785 8.897,5.6615 L12.6,2.2165 L12.6,3.9 C12.6,4.2575 12.915,4.55 13.3,4.55 C13.685,4.55 14,4.2575 14,3.9 L14,0.65 C14,0.2925 13.685,0 13.3,0 Z M5.6,7.15 C5.404,7.15 5.229,7.2215 5.103,7.3385 L1.4,10.7835 L1.4,9.1 C1.4,8.7425 1.085,8.45 0.7,8.45 C0.315,8.45 0,8.7425 0,9.1 L0,12.35 C0,12.7075 0.315,13 0.7,13 L4.2,13 C4.585,13 4.9,12.7075 4.9,12.35 C4.9,11.9925 4.585,11.7 4.2,11.7 L2.387,11.7 L6.09,8.2615 C6.223,8.1445 6.3,7.982 6.3,7.8 C6.3,7.4425 5.985,7.15 5.6,7.15 Z" id="Shape"></path>
                </g>
            </g>
        </g>
    </g>
</svg>