<?xml version="1.0" encoding="utf-8"?>
<!-- Generator: Adobe Illustrator 20.1.0, SVG Export Plug-In . SVG Version: 6.00 Build 0)  -->
<svg version="1.1" id="Layer_1" xmlns="http://www.w3.org/2000/svg" xmlns:xlink="http://www.w3.org/1999/xlink" x="0px" y="0px"
	 viewBox="0 0 14 13" style="enable-background:new 0 0 14 13;" xml:space="preserve">
<style type="text/css">
	.st0{fill:#4D5969;}
</style>
<title>HDL/Icon/Standard/applications</title>
<desc>Created with Sketch.</desc>
<g id="Colors">
	<g id="Main-Icons" transform="translate(-1122.000000, -502.000000)">
		<g id="Applications" transform="translate(1100.000000, 485.000000)">
			<g id="HDL_x2F_Icon_x2F_Standard_x2F_applications" transform="translate(22.000000, 17.000000)">
				<path id="Shape" class="st0" d="M0,0v12.8h14V0H0z M1.2,1.2h11.7v1.2H1.2V1.2z M1.2,3.5h11.7v8.2H1.2V3.5z M7,4.7l-1.2,5.8H7
					l1.2-5.8H7z M4.2,4.9L2.5,7.2L2.2,7.6l0.3,0.3l1.7,2.3l0.9-0.7l-1.5-2l1.5-2L4.2,4.9z M9.8,4.9L8.9,5.6l1.5,2l-1.5,2l0.9,0.7
					l1.8-2.3l0.3-0.3l-0.3-0.4L9.8,4.9z"/>
			</g>
		</g>
	</g>
</g>
</svg>
