<?xml version="1.0" encoding="UTF-8"?>
<svg width="14px" height="11px" viewBox="0 0 14 11" version="1.1" xmlns="http://www.w3.org/2000/svg" xmlns:xlink="http://www.w3.org/1999/xlink">
    <!-- Generator: Sketch 59 (86127) - https://sketch.com -->
    <title>HDL/Icon/Standard/code_yaml</title>
    <desc>Created with Sketch.</desc>
    <g id="Colors" stroke="none" stroke-width="1" fill="none" fill-rule="evenodd">
        <g id="Main-Icons" transform="translate(-621.000000, -596.000000)" fill="#4D5969">
            <g id="YAML" transform="translate(600.000000, 580.000000)">
                <g id="HDL/Icon/Standard/code_yaml" transform="translate(21.000000, 16.000000)">
                    <path d="M4.2,2.75 C4.2,2.371875 3.885,2.0625 3.5,2.0625 C3.304,2.0625 3.129,2.138125 3.003,2.261875 L0.203,5.011875 C0.077,5.135625 0,5.3075 0,5.5 C0,5.6925 0.077,5.864375 0.203,5.988125 L3.003,8.738125 C3.129,8.861875 3.304,8.9375 3.5,8.9375 C3.885,8.9375 4.2,8.628125 4.2,8.25 C4.2,8.0575 4.123,7.885625 3.997,7.761875 L1.687,5.5 L3.99,3.238125 C4.123,3.114375 4.2,2.9425 4.2,2.75 Z M8.4,0 C8.078,0 7.819,0.213125 7.735,0.501875 L4.935,10.126875 C4.921,10.18875 4.9,10.24375 4.9,10.3125 C4.9,10.690625 5.215,11 5.6,11 C5.922,11 6.181,10.786875 6.265,10.498125 L9.065,0.873125 C9.079,0.81125 9.1,0.75625 9.1,0.6875 C9.1,0.309375 8.785,0 8.4,0 Z M13.797,5.011875 L10.997,2.261875 C10.871,2.138125 10.696,2.0625 10.5,2.0625 C10.115,2.0625 9.8,2.371875 9.8,2.75 C9.8,2.9425 9.877,3.114375 10.003,3.238125 L12.313,5.5 L10.01,7.761875 C9.877,7.885625 9.8,8.0575 9.8,8.25 C9.8,8.628125 10.115,8.9375 10.5,8.9375 C10.696,8.9375 10.871,8.861875 10.997,8.738125 L13.797,5.988125 C13.923,5.864375 14,5.6925 14,5.5 C14,5.3075 13.923,5.135625 13.797,5.011875 Z" id="Shape"></path>
                </g>
            </g>
        </g>
    </g>
</svg>