<svg enable-background="new 0 0 14 14" viewBox="0 0 14 14" xmlns="http://www.w3.org/2000/svg"><path d="m13.7 12.5c-.4-.9-2.3-1.5-3.6-2.1s-1.1-.9-1.2-1.3c0-.1 0-.1 0-.2.4-.4.8-.9 1-1.6.1-.2.2-.3.2-.5.3-.1.5-.4.5-.7.1-.1.2-.4.2-.8s-.2-.6-.4-.7v-.1c0-.6-.1-1.4-.1-1.9 0-.1-.1-.3-.1-.4-.2-.6-.6-1.2-1.2-1.6-.5-.4-1.3-.6-2-.6s-1.5.2-2 .6-.9 1-1.1 1.6c0 .1-.1.3-.1.4-.1.6-.2 1.4-.2 2v.1c-.2 0-.4.2-.4.7 0 .3.1.6.2.8.1.3.2.6.6.7-.1.1 0 .2 0 .3.2.6.6 1.2 1.1 1.6v.2c0 .5.1.8-1.2 1.4s-3.2 1.2-3.6 2.1-.3 1.5-.3 1.5h14s.1-.5-.3-1.5z" fill="#4d5969"/></svg>