<svg viewBox="0 0 14 14" xmlns="http://www.w3.org/2000/svg"><path d="M1.4 10.9c-.8 0-1.4.7-1.4 1.6S.6 14 1.4 14s1.4-.7 1.4-1.6-.6-1.5-1.4-1.5zm0-5.5C.6 5.4 0 6.1 0 7s.6 1.6 1.4 1.6S2.8 7.9 2.8 7s-.6-1.6-1.4-1.6zm3.5-3.1h8.4c.4 0 .7-.3.7-.7s-.3-.8-.7-.8H4.9c-.4 0-.7.4-.7.8s.3.7.7.7zM1.4 0C.6 0 0 .7 0 1.6s.6 1.6 1.4 1.6 1.4-.7 1.4-1.6S2.2 0 1.4 0zm11.9 6.2H4.9c-.4 0-.7.4-.7.8s.3.8.7.8h8.4c.4 0 .7-.4.7-.8s-.3-.8-.7-.8zm0 5.5H4.9c-.4 0-.7.3-.7.8 0 .4.3.8.7.8h8.4c.4 0 .7-.4.7-.8 0-.5-.3-.8-.7-.8z" fill="#4d5969"/></svg>