<?xml version="1.0" encoding="utf-8"?>
<!-- Generator: Adobe Illustrator 20.1.0, SVG Export Plug-In . SVG Version: 6.00 Build 0)  -->
<svg version="1.1" id="Layer_1" xmlns="http://www.w3.org/2000/svg" xmlns:xlink="http://www.w3.org/1999/xlink" x="0px" y="0px"
	 viewBox="0 0 14 13" style="enable-background:new 0 0 14 13;" xml:space="preserve">
<style type="text/css">
	.st0{fill:#4D5969;}
</style>
<title>HDL/Icon/Standard/depricate</title>
<desc>Created with Sketch.</desc>
<g id="Colors">
	<g id="Main-Icons" transform="translate(-623.000000, -1206.000000)">
		<g id="Depricate" transform="translate(602.000000, 1189.000000)">
			<g id="HDL_x2F_Icon_x2F_Standard_x2F_reorder" transform="translate(21.000000, 17.000000)">
				<path id="Reorder" class="st0" d="M1.9,12.1h3.7v-1.9H1.9V12.1z M0.7,9.3C0.3,9.3,0,9.6,0,9.9v2.5C0,12.7,0.3,13,0.7,13h6.1
					c0.4,0,0.7-0.3,0.7-0.6V9.9c0-0.3-0.3-0.6-0.7-0.6H0.7z M0.7,4.6C0.3,4.6,0,4.9,0,5.3v2.5c0,0.3,0.3,0.6,0.7,0.6h6.1
					c0.4,0,0.7-0.3,0.7-0.6V5.3c0-0.3-0.3-0.6-0.7-0.6H0.7z M8.6,0l-2,1.7l2,1.7V2.3H12c0.4,0,0.7,0.3,0.7,0.6v7.5
					c0,0.3-0.3,0.6-0.7,0.6H7.9c-0.4,0-0.7,0.2-0.7,0.6c0,0.3,0.3,0.6,0.7,0.6c0,0,0,0,0,0H12c1.1,0,2-0.8,2-1.7V2.9
					c0-0.9-0.9-1.7-2-1.7H8.6V0z M0.7,0C0.3,0,0,0.3,0,0.6v2.5c0,0.3,0.3,0.6,0.7,0.6h6.1c0.4,0,0.7-0.3,0.7-0.6V0.6
					C7.5,0.3,7.2,0,6.8,0H0.7z"/>
			</g>
		</g>
	</g>
</g>
</svg>
