<?xml version="1.0" encoding="UTF-8"?>
<svg width="14px" height="14px" viewBox="0 0 14 14" version="1.1" xmlns="http://www.w3.org/2000/svg" xmlns:xlink="http://www.w3.org/1999/xlink">
    <!-- Generator: Sketch 59 (86127) - https://sketch.com -->
    <title>HDL/Icon/Standard/download</title>
    <desc>Created with Sketch.</desc>
    <g id="Colors" stroke="none" stroke-width="1" fill="none" fill-rule="evenodd">
        <g id="Main-Icons" transform="translate(-621.000000, -500.000000)" fill="#4D5969">
            <g id="Download" transform="translate(600.000000, 482.000000)">
                <g id="HDL/Icon/Standard/download" transform="translate(21.000000, 18.000000)">
                    <path d="M7,0 C3.136,0 0,3.136 0,7 C0,10.864 3.136,14 7,14 C10.864,14 14,10.864 14,7 C14,3.136 10.864,0 7,0 Z M10.297,8.197 L7.497,10.997 C7.371,11.123 7.196,11.2 7,11.2 C6.804,11.2 6.629,11.123 6.503,10.997 L3.703,8.197 C3.577,8.071 3.5,7.896 3.5,7.7 C3.5,7.315 3.815,7 4.2,7 C4.396,7 4.571,7.077 4.697,7.203 L6.3,8.813 L6.3,3.5 C6.3,3.115 6.615,2.8 7,2.8 C7.385,2.8 7.7,3.115 7.7,3.5 L7.7,8.813 L9.303,7.21 C9.429,7.077 9.604,7 9.8,7 C10.185,7 10.5,7.315 10.5,7.7 C10.5,7.896 10.423,8.071 10.297,8.197 Z" id="Shape"></path>
                </g>
            </g>
        </g>
    </g>
</svg>