<?xml version="1.0" encoding="UTF-8"?>
<svg width="13px" height="13px" viewBox="0 0 13 13" version="1.1" xmlns="http://www.w3.org/2000/svg" xmlns:xlink="http://www.w3.org/1999/xlink">
    <!-- Generator: Sketch 59 (86127) - https://sketch.com -->
    <title>HDL/Icon/Standard/scope</title>
    <desc>Created with Sketch.</desc>
    <g id="Colors" stroke="none" stroke-width="1" fill="none" fill-rule="evenodd">
        <g id="Main-Icons" transform="translate(-622.000000, -1394.000000)" fill="#4D5969">
            <g id="Scope" transform="translate(602.000000, 1376.000000)">
                <g id="HDL/Icon/Standard/scope" transform="translate(20.000000, 18.000000)">
                    <path d="M10.1907643,0.000166149009 C9.9819318,0.0025359781 9.76682581,0.0298003879 9.54766023,0.0870408752 C8.46051559,0.372149545 7.61226907,1.35427278 7.46639024,2.52095788 C7.39477623,3.0930091 7.4850273,3.63771964 7.69025589,4.11461099 L0.902385579,11.2397639 C0.518932644,11.6422702 0.518932644,12.2956139 0.902385579,12.6981202 C1.28583851,13.1006266 1.90825487,13.1006266 2.29170781,12.6981202 L6.14219249,8.6563089 L9.84072039,12.5400373 C10.3665789,13.0920252 11.2204153,13.0920252 11.7469684,12.5400373 C12.2728269,11.9873203 12.2728269,11.0910575 11.7469684,10.5390696 L8.04708386,6.65676524 L9.07957812,5.57296729 C9.53387746,5.78828631 10.0529644,5.88289208 10.5977926,5.80795662 C11.7092504,5.6548292 12.6448825,4.7644341 12.916495,3.62327024 C13.0262515,3.16315881 13.0222898,2.72140218 12.9368465,2.31160404 C12.878495,2.03305797 12.536364,1.94441725 12.3439428,2.14639961 L11.6099354,2.91687888 C11.2264825,3.31938524 10.6040661,3.31938524 10.2206132,2.91687888 C9.83716025,2.51437252 9.83716025,1.86102887 10.2206132,1.45852251 L10.9546206,0.688043242 C11.1470417,0.486060885 11.0625966,0.126929255 10.7972361,0.0656782878 C10.6020363,0.0208337567 10.3995968,-0.00220368008 10.1907643,0.000166149009 Z M1.21037011,0.212368375 C1.05493969,0.22859259 0.904111395,0.30027992 0.787060997,0.423146444 L0.203654167,1.03554222 C-0.0304466286,1.28127527 -0.0672636676,1.66607623 0.116821528,1.95555997 L0.77756366,2.99663274 C1.03528293,3.40278499 1.46948955,3.64605706 1.93352317,3.64605706 L2.29170781,3.64605706 L4.17217719,5.61996501 L5.15447121,4.5888617 L3.27400204,2.61495354 L3.27400204,2.23897104 C3.27400204,1.75188001 3.04224573,1.2953689 2.65531949,1.02557297 L1.66352792,0.331999171 C1.52563768,0.235383062 1.36580054,0.196144161 1.21037011,0.212368375 Z" id="Shape"></path>
                </g>
            </g>
        </g>
    </g>
</svg>