<?xml version="1.0" encoding="utf-8"?>
<!-- Generator: Adobe Illustrator 20.1.0, SVG Export Plug-In . SVG Version: 6.00 Build 0)  -->
<svg version="1.1" id="Layer_1" xmlns="http://www.w3.org/2000/svg" xmlns:xlink="http://www.w3.org/1999/xlink" x="0px" y="0px"
	 viewBox="0 0 14 14" style="enable-background:new 0 0 14 14;" xml:space="preserve">
<style type="text/css">
	.st0{fill:#4D5969;}
</style>
<title>HDL/Icon/Standard/delete</title>
<desc>Created with Sketch.</desc>
<g id="Colors">
	<g id="Main-Icons" transform="translate(-621.000000, -359.000000)">
		<g id="Delete" transform="translate(600.000000, 341.000000)">
			<g id="HDL_x2F_Icon_x2F_Standard_x2F_delete" transform="translate(21.000000, 18.000000)">
				<path id="Shape" class="st0" d="M10.5,4.2c0-0.4-0.3-0.7-0.7-0.7c-0.2,0-0.4,0.1-0.5,0.2L7,6L4.7,3.7C4.6,3.6,4.4,3.5,4.2,3.5
					c-0.4,0-0.7,0.3-0.7,0.7c0,0.2,0.1,0.4,0.2,0.5L6,7L3.7,9.3C3.6,9.4,3.5,9.6,3.5,9.8c0,0.4,0.3,0.7,0.7,0.7
					c0.2,0,0.4-0.1,0.5-0.2L7,8l2.3,2.3c0.1,0.1,0.3,0.2,0.5,0.2c0.4,0,0.7-0.3,0.7-0.7c0-0.2-0.1-0.4-0.2-0.5L8,7l2.3-2.3
					C10.4,4.6,10.5,4.4,10.5,4.2z M7,0C3.1,0,0,3.1,0,7s3.1,7,7,7s7-3.1,7-7S10.9,0,7,0z M7,12.6c-3.1,0-5.6-2.5-5.6-5.6
					S3.9,1.4,7,1.4s5.6,2.5,5.6,5.6S10.1,12.6,7,12.6z"/>
			</g>
		</g>
	</g>
</g>
</svg>
