<?xml version="1.0" encoding="UTF-8"?>
<svg width="14px" height="9px" viewBox="0 0 14 9" version="1.1" xmlns="http://www.w3.org/2000/svg" xmlns:xlink="http://www.w3.org/1999/xlink">
    <!-- Generator: Sketch 59 (86127) - https://sketch.com -->
    <title>HDL/Icon/Standard/view</title>
    <desc>Created with Sketch.</desc>
    <g id="Colors" stroke="none" stroke-width="1" fill="none" fill-rule="evenodd">
        <g id="Main-Icons" transform="translate(-1122.000000, -1163.000000)" fill="#4D5969">
            <g id="View" transform="translate(1100.000000, 1153.000000)">
                <g id="HDL/Icon/Standard/view" transform="translate(22.000000, 10.000000)">
                    <path d="M7.00218409,3.50234591 C6.52168486,3.50234591 6.12854914,3.89711775 6.12854914,4.37961667 C6.12854914,4.86211559 6.52168486,5.25688743 7.00218409,5.25688743 C7.48268331,5.25688743 7.87581903,4.86211559 7.87581903,4.37961667 C7.87581903,3.89711775 7.48268331,3.50234591 7.00218409,3.50234591 Z M13.9912636,4.35329855 C13.9912636,4.34452584 13.9912636,4.34452584 13.9912636,4.33575313 C13.9912636,4.33575313 13.9912636,4.32698043 13.9912636,4.32698043 C13.9912636,4.31820772 13.9912636,4.31820772 13.9912636,4.30943501 C13.9912636,4.3006623 13.9912636,4.3006623 13.9912636,4.29188959 C13.9912636,4.29188959 13.9912636,4.29188959 13.9912636,4.29188959 C13.9737909,4.16907169 13.9213728,4.0637992 13.8427457,3.97607213 C13.3971918,3.38830071 12.8642746,2.87071096 12.3226209,2.39698475 C11.1606864,1.37057796 9.83276131,0.510852612 8.3650546,0.168717015 C7.50889235,-0.0418279674 6.66146645,-0.050600675 5.80530422,0.11608077 C5.02776911,0.273989507 4.2851794,0.589806981 3.5775351,0.984578822 C2.48549142,1.60744106 1.48081123,2.4583937 0.607176287,3.41461884 C0.449921997,3.5988457 0.292667707,3.77429985 0.144149766,3.96729941 C-0.0480499221,4.22170794 -0.0480499221,4.5287527 0.144149766,4.78316122 C0.589703588,5.37093263 1.1226209,5.88852239 1.66427457,6.36224856 C2.82620905,7.38865535 4.15413416,8.2483807 5.62184087,8.5905163 C6.46926677,8.79228857 7.32542902,8.80106124 8.18159127,8.62560712 C8.9591264,8.46769839 9.70171606,8.15188091 10.4093604,7.75710907 C11.5014041,7.13424683 12.5060842,6.28329419 13.3797191,5.3270691 C13.5369734,5.15161495 13.7029641,4.96738808 13.851482,4.77438852 C13.9301092,4.68666144 13.9825273,4.57261624 14,4.45857104 C14,4.45857104 14,4.45857104 14,4.45857104 C14,4.44979833 14,4.44979833 14,4.44102563 C14,4.43225292 14,4.43225292 14,4.42348021 C14,4.42348021 14,4.4147075 14,4.4147075 C14,4.40593479 14,4.40593479 14,4.39716209 C14,4.38838938 14,4.37961667 14,4.37084397 C14,4.36207125 13.9912636,4.36207125 13.9912636,4.35329855 Z M7.00218409,7.01142893 C5.55195007,7.01142893 4.38127925,5.83588614 4.38127925,4.37961667 C4.38127925,2.92334721 5.55195007,1.74780439 7.00218409,1.74780439 C8.4524181,1.74780439 9.62308891,2.92334721 9.62308891,4.37961667 C9.62308891,5.83588614 8.4524181,7.01142893 7.00218409,7.01142893 Z" id="Shape"></path>
                </g>
            </g>
        </g>
    </g>
</svg>