<?xml version="1.0" encoding="UTF-8"?>
<svg width="11px" height="14px" viewBox="0 0 11 14" version="1.1" xmlns="http://www.w3.org/2000/svg" xmlns:xlink="http://www.w3.org/1999/xlink">
    <!-- Generator: Sketch 59 (86127) - https://sketch.com -->
    <title>HDL/Icon/Standard/lock</title>
    <desc>Created with Sketch.</desc>
    <g id="Colors" stroke="none" stroke-width="1" fill="none" fill-rule="evenodd">
        <g id="Main-Icons" transform="translate(-119.000000, -923.000000)" fill="#4D5969">
            <g id="Lock" transform="translate(101.000000, 905.000000)">
                <g id="HDL/Icon/Standard/lock" transform="translate(18.000000, 18.000000)">
                    <path d="M10.1592857,6.22654081 L8.64285714,6.22654081 L8.64285714,3.10938368 C8.64285714,1.39144919 7.23642857,0 5.5,0 C3.76357143,0 2.35714286,1.39144919 2.35714286,3.10938368 L2.35714286,6.22654081 L0.730714286,6.22654081 C0.298571429,6.22654081 0,6.56857301 0,6.99611327 L0,13.2148806 C0,13.6424209 0.298571429,14 0.730714286,14 L10.1592857,14 C10.5914286,14 11,13.6424209 11,13.2148806 L11,6.99611327 C11,6.56857301 10.5914286,6.22654081 10.1592857,6.22654081 Z M3.92857143,6.22654081 L3.92857143,3.10938368 C3.92857143,2.25430316 4.63571429,1.55469184 5.5,1.55469184 C6.36428571,1.55469184 7.07142857,2.25430316 7.07142857,3.10938368 L7.07142857,6.22654081 L3.92857143,6.22654081 Z" id="lock_1_"></path>
                </g>
            </g>
        </g>
    </g>
</svg>