<?xml version="1.0" encoding="UTF-8"?>
<svg width="14px" height="14px" viewBox="0 0 14 14" version="1.1" xmlns="http://www.w3.org/2000/svg" xmlns:xlink="http://www.w3.org/1999/xlink">
    <!-- Generator: Sketch 59 (86127) - https://sketch.com -->
    <title>HDL/Icon/Standard/tags</title>
    <desc>Created with Sketch.</desc>
    <g id="Colors" stroke="none" stroke-width="1" fill="none" fill-rule="evenodd">
        <g id="Main-Icons" transform="translate(-1122.000000, -1252.000000)" fill="#4D5969">
            <g id="Tags" transform="translate(1100.000000, 1234.000000)">
                <g id="HDL/Icon/Standard/icons" transform="translate(22.000000, 18.000000)">
                    <path d="M7.03533482,0.000528518627 C6.94376222,0.00171768554 6.85218967,0.00766412898 6.75942763,0.019556407 C6.57271467,0.0433412674 6.36935202,0.103992738 6.20761338,0.266918956 L0.232796595,6.24167589 C-0.077598865,6.55206826 -0.077598865,7.0634429 0.232796595,7.37383522 L1.96435177,9.11488704 C1.97862283,9.12915797 1.99527256,9.14223968 2.01192197,9.15294279 C2.01667899,9.15769977 2.02619303,9.15769977 2.03095005,9.16245674 C2.03451789,9.16602456 2.03689625,9.16840288 2.04046409,9.1719707 C2.04878895,9.18029549 2.0511673,9.19218776 2.05949217,9.20051255 L6.62623107,13.7672058 C6.93662653,14.0775981 7.44800632,14.0775981 7.75840178,13.7672058 L13.7332186,7.79244878 C13.893768,7.63190092 13.9567985,7.42616196 13.9805836,7.24064001 C14.0043687,7.05511811 13.9996117,6.87197487 13.9996117,6.69834519 L13.9996117,6.66028944 C13.9996117,6.63174758 13.9996117,6.59012402 13.9996117,6.53660818 C13.9996117,6.50212018 13.9996117,6.4379009 13.9996117,6.39389901 C13.9996117,6.30351652 13.9996117,6.22145882 13.9996117,6.09896672 C13.9996117,5.7350585 13.9996117,5.24390092 13.9996117,4.7575006 C13.9996117,3.78469997 13.9996117,2.81070985 13.9996117,2.78811416 C13.9996117,2.26009026 13.5655337,1.8272058 13.0386937,1.8272058 L12.1729161,1.8272058 L12.1729161,0.961436879 C12.1729161,0.433412978 11.7400273,0.000528518627 11.2119981,0.000528518627 L7.30172788,0.000528518627 C7.21729074,0.000528518627 7.12690736,-0.000660648284 7.03533482,0.000528518627 Z M7.04484882,0.609420946 C7.12215033,0.609420946 7.2113445,0.609420946 7.30172788,0.609420946 L11.2119981,0.609420946 C11.4106038,0.609420946 11.5640176,0.762833221 11.5640176,0.961436879 L11.5640176,1.8272058 L10.4223328,1.8272058 C10.4104404,1.81412405 10.3973585,1.80223177 10.3842767,1.78915003 C10.2070778,1.61195289 9.97160516,1.52275959 9.73732199,1.52275959 C9.50303882,1.52275959 9.26756621,1.61195289 9.09036732,1.78915003 C9.07728544,1.80223177 9.06420384,1.81412405 9.05231117,1.8272058 C8.90365436,1.82601663 8.74548353,1.82601663 8.58612321,1.84623369 C8.39941025,1.87001855 8.1960476,1.93067002 8.03430896,2.09359624 L2.05949217,8.06835316 C2.01192197,8.11592292 1.96910879,8.16587128 1.93580966,8.22057628 L0.660928368,6.94570778 C0.582437699,6.8672179 0.583626875,6.74710411 0.660928368,6.66980339 L6.63574514,0.695046442 C6.66785509,0.662936803 6.72850718,0.634394975 6.84505398,0.618934887 C6.90332742,0.611799586 6.96754732,0.609420946 7.04484882,0.609420946 Z M8.87154441,2.43609822 L13.0386937,2.43609822 C13.2372993,2.43609822 13.3907132,2.5895105 13.3907132,2.78811416 C13.3907132,2.80714205 13.3907132,3.78469997 13.3907132,4.7575006 C13.3907132,5.24390092 13.3907132,5.7350585 13.3907132,6.09896672 C13.3907132,6.28092086 13.3907132,6.4307656 13.3907132,6.53660818 C13.3907132,6.59012402 13.3907132,6.63174758 13.3907132,6.66028944 C13.3907132,6.67456037 13.3907132,6.68169594 13.3907132,6.6888313 C13.3907132,6.69596687 13.3907132,6.69834519 13.3907132,6.69834519 C13.3907132,6.88267798 13.3966593,7.04917198 13.3811991,7.1645285 C13.3657388,7.27988498 13.3383859,7.3310225 13.3050868,7.36432133 L7.33027002,13.3390783 C7.25177935,13.4175684 7.13166434,13.416379 7.05436289,13.3390783 L2.48762394,8.77238505 C2.40913327,8.69389517 2.41032245,8.57378138 2.48762394,8.49648066 L8.46244072,2.52172372 C8.49455067,2.48961409 8.55520276,2.46107225 8.67174957,2.44561217 C8.730023,2.43847686 8.7942429,2.43609822 8.87154441,2.43609822 Z M11.5640176,3.34943687 C11.3297344,3.34943687 11.0942618,3.43863017 10.9170629,3.6158273 C10.5626651,3.97022188 10.5626651,4.55532944 10.9170629,4.90972371 C11.271461,5.26411828 11.8565745,5.26411828 12.2109722,4.90972371 C12.5653704,4.55532944 12.5653704,3.97022188 12.2109722,3.6158273 C12.0337733,3.43863017 11.7983007,3.34943687 11.5640176,3.34943687 Z M11.5640176,3.9583293 C11.6413191,3.9583293 11.7221884,3.98330332 11.7828405,4.04395479 C11.9041446,4.16525773 11.9041446,4.36029359 11.7828405,4.48159622 C11.6615366,4.60289916 11.4664988,4.60289916 11.3451947,4.48159622 C11.2238908,4.36029359 11.2238908,4.16525773 11.3451947,4.04395479 C11.4058467,3.98330332 11.4867161,3.9583293 11.5640176,3.9583293 Z" id="Shape"></path>
                </g>
            </g>
        </g>
    </g>
</svg>