<?xml version="1.0" encoding="utf-8"?>
<!-- Generator: Adobe Illustrator 20.1.0, SVG Export Plug-In . SVG Version: 6.00 Build 0)  -->
<svg version="1.1" id="Layer_1" xmlns="http://www.w3.org/2000/svg" xmlns:xlink="http://www.w3.org/1999/xlink" x="0px" y="0px"
	 viewBox="0 0 11 14" style="enable-background:new 0 0 11 14;" xml:space="preserve">
<style type="text/css">
	.st0{fill:#4D5969;}
</style>
<title>HDL/Icon/Standard/notifications</title>
<desc>Created with Sketch.</desc>
<g id="Colors">
	<g id="Main-Icons" transform="translate(-120.000000, -265.000000)">
		<g id="Notifications" transform="translate(101.000000, 247.000000)">
			<g id="HDL_x2F_Icon_x2F_Standard_x2F_notifications" transform="translate(19.000000, 18.000000)">
				<path id="Combined-Shape" class="st0" d="M6.9,12.6c0,0.8-0.6,1.4-1.4,1.4s-1.4-0.6-1.4-1.4l0,0H6.9z M5.5,0
					c0.8,0,1.4,0.6,1.4,1.4l0,0v0.3c1.6,0.6,2.8,2.1,2.8,3.9l0,0v4.2c0,0.4,0.3,0.7,0.7,0.7s0.7,0.3,0.7,0.7s-0.3,0.7-0.7,0.7l0,0
					H0.7c-0.4,0-0.7-0.3-0.7-0.7s0.3-0.7,0.7-0.7s0.7-0.3,0.7-0.7l0,0V5.6c0-1.8,1.1-3.4,2.8-3.9l0,0V1.4C4.1,0.6,4.7,0,5.5,0z"/>
			</g>
		</g>
	</g>
</g>
</svg>
