<?xml version="1.0" encoding="UTF-8"?>
<svg width="14px" height="14px" viewBox="0 0 14 14" version="1.1" xmlns="http://www.w3.org/2000/svg" xmlns:xlink="http://www.w3.org/1999/xlink">
    <!-- Generator: Sketch 59 (86127) - https://sketch.com -->
    <title>HDL/Icon/Standard/user</title>
    <desc>Created with Sketch.</desc>
    <g id="Colors" stroke="none" stroke-width="1" fill="none" fill-rule="evenodd">
        <g id="Main-Icons" transform="translate(-1121.000000, -688.000000)" fill="#4D5969">
            <g id="Users" transform="translate(1100.000000, 670.000000)">
                <g id="HDL/Icon/Standard/user" transform="translate(21.000000, 18.000000)">
                    <path d="M13.7280785,12.5470266 C13.3253128,11.6276701 11.3815306,11.0147658 10.0856758,10.4456404 C8.78982097,9.87651498 8.96493648,9.52628395 8.9211576,9.05347207 C8.91240183,8.99218164 8.91240183,8.92213543 8.91240183,8.85208923 C9.35894639,8.45807932 9.71793319,7.91522123 9.95433914,7.29356115 C9.95433914,7.29356115 9.96309491,7.25853805 9.97185069,7.24978227 C10.0243853,7.11844564 10.0681642,6.96959745 10.1031873,6.82950504 C10.4008837,6.76821461 10.5759992,6.44425091 10.6372896,6.14655454 C10.7073358,6.02397368 10.8386725,5.7262773 10.8124052,5.38480205 C10.7686263,4.94701327 10.5935108,4.74563043 10.4008837,4.66682844 C10.4008837,4.64056112 10.4008837,4.61429379 10.4008837,4.58802646 C10.4008837,4.03641259 10.348349,3.23088123 10.2520355,2.70553469 C10.234524,2.5566865 10.1995009,2.41659409 10.155722,2.2677459 C9.96309491,1.62857428 9.56908501,1.04193731 9.03498269,0.639171626 C8.47461304,0.227650168 7.69534901,0 7.00364273,0 C6.31193645,0 5.53267241,0.218894392 4.98105854,0.639171626 C4.44695622,1.05069308 4.05294632,1.62857428 3.86031925,2.2677459 C3.81654037,2.41659409 3.78151727,2.5566865 3.76400572,2.70553469 C3.65893641,3.23088123 3.61515753,4.02765682 3.61515753,4.58802646 C3.61515753,4.61429379 3.61515753,4.63180534 3.61515753,4.65807267 C3.40501892,4.73687465 3.22114763,4.93825749 3.17736875,5.38480205 C3.15110142,5.71752153 3.29119383,6.0152179 3.35248426,6.13779876 C3.42253047,6.44425091 3.59764598,6.76821461 3.90409813,6.82074927 C3.93912123,6.96959745 3.98290011,7.10968986 4.03543477,7.24978227 C4.03543477,7.25853805 4.04419054,7.26729383 4.04419054,7.2760496 L4.05294632,7.28480538 C4.28935226,7.91522123 4.66585062,8.4668351 5.12115095,8.860845 C5.12115095,8.92213543 5.11239518,8.98342586 5.11239518,9.04471629 C5.0686163,9.51752818 5.19995293,9.86775921 3.91285391,10.4368846 C2.6169991,11.00601 0.673216901,11.6189143 0.270451219,12.5382708 C-0.132314463,13.4576272 0.0340452752,14.0005897 0.0340452752,14.0005897 L13.9732402,14.0005897 C13.9644844,14.0092411 14.1308441,13.466383 13.7280785,12.5470266 Z" id="Path"></path>
                </g>
            </g>
        </g>
    </g>
</svg>