<svg enable-background="new 0 0 14 14" viewBox="0 0 14 14" xmlns="http://www.w3.org/2000/svg"><path d="m7.6 8.4-3.1 3.1-.7.7c-.3.3-.6.4-1 .4-.8 0-1.4-.6-1.4-1.4 0-.4.2-.7.4-1l3.8-3.8c-.2-.1-.4-.1-.7-.1-.8 0-1.5.3-2 .8l-2.1 2.1c-.5.5-.8 1.2-.8 2 0 1.5 1.3 2.8 2.8 2.8.8 0 1.5-.3 2-.8l2.1-2.1c.5-.5.8-1.2.8-2 0-.3 0-.5-.1-.7zm6.4-5.6c0-1.5-1.3-2.8-2.8-2.8-.8 0-1.5.3-2 .8l-2.1 2.1c-.5.5-.8 1.2-.8 2 0 .3 0 .5.1.7l3.1-3.1.7-.7c.3-.3.6-.4 1-.4.8 0 1.4.6 1.4 1.4 0 .4-.2.7-.4 1l-3.8 3.8c.2.1.5.1.7.1.8 0 1.5-.3 2-.8l2.1-2.1c.5-.5.8-1.2.8-2zm-10.5 7c0 .4.3.7.7.7.2 0 .4-.1.5-.2l5.6-5.6c.1-.1.2-.3.2-.5 0-.4-.3-.7-.7-.7-.2 0-.4.1-.5.2l-1.4 1.4-1.4 1.4-1.4 1.4-1.4 1.4c-.1.1-.2.3-.2.5z" fill="#4d5969"/></svg>