<?xml version="1.0" encoding="utf-8"?>
<!-- Generator: Adobe Illustrator 20.1.0, SVG Export Plug-In . SVG Version: 6.00 Build 0)  -->
<svg version="1.1" id="Layer_1" xmlns="http://www.w3.org/2000/svg" xmlns:xlink="http://www.w3.org/1999/xlink" x="0px" y="0px"
	 viewBox="0 0 13 14" style="enable-background:new 0 0 13 14;" xml:space="preserve">
<style type="text/css">
	.st0{fill:#4D5969;}
</style>
<title>HDL/Icon/Standard/changelog</title>
<desc>Created with Sketch.</desc>
<g id="Colors">
	<g id="Main-Icons" transform="translate(-122.000000, -1439.000000)">
		<g id="Alert" transform="translate(101.000000, 1422.000000)">
			<g id="HDL_x2F_Icon_x2F_Standard_x2F_changelog" transform="translate(21.000000, 17.000000)">
				<path id="Shape" class="st0" d="M11.5,0c-0.3,0-0.6,0.2-0.8,0.5l-0.5,1L5.9,3.7C5.6,3.8,5.5,4.1,5.5,4.4v5.2
					c0,0.3,0.2,0.6,0.4,0.7l4.4,2.1l0.5,1c0.1,0.3,0.4,0.5,0.8,0.5c0.5,0,0.8-0.4,0.8-1V8.3C12.7,8.1,13,7.6,13,7
					c0-0.6-0.3-1.1-0.7-1.3V1C12.3,0.4,11.9,0,11.5,0z M1.4,3.9C0.6,3.9,0,4.6,0,5.4v3.1c0,0.9,0.6,1.6,1.4,1.6h1.4v3.1
					C2.7,13.7,3,14,3.4,14s0.7-0.3,0.7-0.8V8.6V4.7c0-0.4-0.3-0.8-0.7-0.8H1.4z"/>
			</g>
		</g>
	</g>
</g>
</svg>
