<?xml version="1.0" encoding="utf-8"?>
<!-- Generator: Adobe Illustrator 20.1.0, SVG Export Plug-In . SVG Version: 6.00 Build 0)  -->
<svg version="1.1" id="Layer_1" xmlns="http://www.w3.org/2000/svg" xmlns:xlink="http://www.w3.org/1999/xlink" x="0px" y="0px"
	 viewBox="0 0 14 13" style="enable-background:new 0 0 14 13;" xml:space="preserve">
<style type="text/css">
	.st0{fill:#4D5969;}
</style>
<title>HDL/Icon/Standard/thumbsup</title>
<desc>Created with Sketch.</desc>
<g id="Colors">
	<g id="Main-Icons" transform="translate(-1123.000000, -1018.000000)">
		<g id="Thumbs-Up" transform="translate(1100.000000, 1002.000000)">
			<g id="HDL_x2F_Icon_x2F_Standard_x2F_thumbsdown" transform="translate(23.000000, 16.000000)">
				<path id="Shape" class="st0" d="M14,7.5c-0.1-0.5-0.6-0.8-1.3-0.9c-0.1,0-0.3,0-0.4,0c0.1,0,0.1,0,0.1,0c0.6-0.1,1.1-0.4,1-0.9
					c-0.1-0.5-0.6-0.8-1.3-0.9c-0.3,0-0.6-0.1-1-0.1l0,0c0,0,0,0,0,0c-0.2,0-0.4,0-0.7,0c-0.4,0-1,0-1.4-0.1c-0.3,0-0.4-0.2-0.3-0.5
					c0.3-0.8,0.5-1.7,0.4-2.5C9.2,0.8,8.8,0.1,8,0C7.5-0.1,7,0.3,7.2,0.9c0.5,1.7-1.8,3.7-3.7,4.8v5.2c1.5,0.9,3.8,1.4,6.5,1.3
					c0.2,0,0.3,0,0.5,0c0,0,0.1,0,0.1,0l0,0c0.2,0,0.4,0,0.6,0c0.6-0.1,1.3-0.4,1.3-1c0-0.4-0.4-0.7-0.8-0.8c0.2,0,0.5,0,0.7-0.1
					c0.6-0.1,1.1-0.4,1-0.9c-0.1-0.5-0.6-0.8-1.2-0.9c0,0,0,0-0.1,0c0.3,0,0.5,0,0.7,0C13.6,8.4,14.1,8.1,14,7.5z M1.8,5.3H0v6.1
					h1.8c0.5,0,0.9-0.4,0.9-0.9V6.1C2.6,5.6,2.2,5.3,1.8,5.3z"/>
			</g>
		</g>
	</g>
</g>
</svg>
