<?xml version="1.0" encoding="UTF-8"?>
<svg width="14px" height="14px" viewBox="0 0 14 14" version="1.1" xmlns="http://www.w3.org/2000/svg" xmlns:xlink="http://www.w3.org/1999/xlink">
    <!-- Generator: Sketch 59 (86127) - https://sketch.com -->
    <title>HDL/Icon/Standard/unlock</title>
    <desc>Created with Sketch.</desc>
    <g id="Colors" stroke="none" stroke-width="1" fill="none" fill-rule="evenodd">
        <g id="Main-Icons" transform="translate(-1121.000000, -1064.000000)" fill="#4D5969">
            <g id="Unlock" transform="translate(1099.698824, 1047.863529)">
                <g id="HDL/Icon/Standard/unlock" transform="translate(22.116471, 16.951765)">
                    <path d="M9.88235294,-7.99360578e-14 C8.06235294,-7.99360578e-14 6.58823529,1.47411765 6.58823529,3.29411765 L6.58823529,5.76470588 L0.823529412,5.76470588 C0.370588235,5.76470588 -7.99360578e-14,6.13529412 -7.99360578e-14,6.58823529 L-7.99360578e-14,12.3529412 C-7.99360578e-14,12.8058824 0.370588235,13.1764706 0.823529412,13.1764706 L10.7058824,13.1764706 C11.1588235,13.1764706 11.5294118,12.8058824 11.5294118,12.3529412 L11.5294118,6.58823529 C11.5294118,6.13529412 11.1588235,5.76470588 10.7058824,5.76470588 L8.23529412,5.76470588 L8.23529412,3.29411765 C8.23529412,2.38823529 8.97647059,1.64705882 9.88235294,1.64705882 C10.7882353,1.64705882 11.5294118,2.38823529 11.5294118,3.29411765 L11.5294118,4.11764706 C11.5294118,4.57058824 11.9,4.94117647 12.3529412,4.94117647 C12.8058824,4.94117647 13.1764706,4.57058824 13.1764706,4.11764706 L13.1764706,3.29411765 C13.1764706,1.47411765 11.7023529,-7.99360578e-14 9.88235294,-7.99360578e-14 Z" id="Path"></path>
                </g>
            </g>
        </g>
    </g>
</svg>