<?xml version="1.0" encoding="utf-8"?>
<!-- Generator: Adobe Illustrator 20.1.0, SVG Export Plug-In . SVG Version: 6.00 Build 0)  -->
<svg version="1.1" id="Layer_1" xmlns="http://www.w3.org/2000/svg" xmlns:xlink="http://www.w3.org/1999/xlink" x="0px" y="0px"
	 viewBox="0 0 11 14" style="enable-background:new 0 0 11 14;" xml:space="preserve">
<style type="text/css">
	.st0{fill:#4D5969;}
</style>
<title>HDL/Icon/Standard/popularity</title>
<desc>Created with Sketch.</desc>
<g id="Colors">
	<g id="Main-Icons" transform="translate(-120.000000, -1535.000000)">
		<g id="Popularity" transform="translate(101.000000, 1517.000000)">
			<g id="HDL_x2F_Icon_x2F_Standard_x2F_popularity" transform="translate(19.000000, 18.000000)">
				<path id="Path-3" class="st0" d="M6.6,0c0,1.2,0.3,2.2,1,2.9C9.9,4.5,11,6.5,11,8.6c0,2.4-1.3,4.2-4,5.4c2-2.1,1.7-3-0.3-5.6
					c-2.1,1.1-1.8,1.8-1.5,3.2c-0.7,0-1.4,0-1.7-0.4c0,0.5,0.8,1.8,1.3,2.8c-2.7-0.7-5.6-5-4.6-5.4C0.9,8.4,1.7,8.5,2.6,9
					C1.4,4.7,2.8,1.7,6.6,0z"/>
			</g>
		</g>
	</g>
</g>
</svg>
