<svg viewBox="0 0 14 14" xmlns="http://www.w3.org/2000/svg"><path d="M6.9 0c-.2 0-.3.2-.3.3v1.9c0 .1.1.2.2.3s.2.1.3 0 .2-.2.2-.3V.3c0-.1 0-.2-.1-.3h-.3zM2.2 1.9c-.1 0-.2.1-.2.2s0 .3.1.3l1.4 1.3c.1.1.2.1.3.1s.2-.1.2-.2 0-.3-.1-.3L2.6 1.9h-.4zm9.3 0c-.1 0-.1 0-.2.1L9.9 3.3c-.1.1-.1.2-.1.3s.1.2.3.3c.1 0 .3 0 .3-.1l1.4-1.3c.1-.1.1-.3.1-.4-.1-.2-.3-.2-.4-.2zM6.9 3.5c-.1 0-.1 0 0 0C5 3.6 3.6 5 3.6 6.7c0 1.8 1.5 3.2 3.3 3.2s3.3-1.4 3.3-3.2c0-1.7-1.4-3.1-3.1-3.2h-.2zm0 .6c1.5 0 2.6 1.1 2.6 2.5S8.3 9.2 6.9 9.2 4.3 8.1 4.3 6.7s1.1-2.6 2.6-2.6zM.3 6.4c-.2 0-.3.2-.3.3 0 .2.2.3.4.3h2c.1 0 .2-.1.3-.2s.1-.2 0-.3-.2-.1-.4-.1zm11.1 0c-.2 0-.3.2-.3.3 0 .2.2.3.4.3h2c.1 0 .2-.1.3-.2s.1-.2 0-.3c0-.1-.1-.2-.3-.2h-2.1zM3.6 9.5c-.1 0-.1 0-.2.1L2.1 11c-.1 0-.1.1-.1.3 0 .1.1.2.3.3s.3 0 .3-.1L4 10.2c0-.2.1-.3 0-.5-.1-.1-.2-.2-.4-.2zm6.5 0c-.1 0-.2.1-.3.2 0 .1 0 .3.1.3l1.4 1.3c.1.1.2.1.3.1s.2-.1.3-.3 0-.3-.1-.3l-1.4-1.3h-.3zm-3.2 1.3c-.2 0-.3.2-.3.3V13c0 .1.1.2.2.3s.2.1.3 0 .2-.2.2-.3v-1.9c0-.1 0-.2-.1-.3h-.3z" fill="#4d5969"/></svg>