<?xml version="1.0" encoding="UTF-8"?>
<svg width="11px" height="14px" viewBox="0 0 11 14" version="1.1" xmlns="http://www.w3.org/2000/svg" xmlns:xlink="http://www.w3.org/1999/xlink">
    <!-- Generator: Sketch 59 (86127) - https://sketch.com -->
    <title>HDL/Icon/Standard/notifications</title>
    <desc>Created with Sketch.</desc>
    <g id="Colors" stroke="none" stroke-width="1" fill="none" fill-rule="evenodd">
        <g id="Main-Icons" transform="translate(-120.000000, -265.000000)" fill="#4D5969">
            <g id="Notifications" transform="translate(101.000000, 247.000000)">
                <g id="HDL/Icon/Standard/notifications" transform="translate(19.000000, 18.000000)">
                    <path d="M6.875,12.6 C6.875,13.37 6.25625,14 5.5,14 C4.74375,14 4.125,13.37 4.125,12.6 L4.125,12.6 Z M5.5,0 C6.25625,0 6.875,0.63 6.875,1.4 L6.875,1.4 L6.875,1.659 C8.476875,2.233 9.625,3.773 9.625,5.6 L9.625,5.6 L9.625,9.8 C9.625,10.185 9.934375,10.5 10.3125,10.5 C10.690625,10.5 11,10.815 11,11.2 C11,11.585 10.690625,11.9 10.3125,11.9 L10.3125,11.9 L0.6875,11.9 C0.309375,11.9 0,11.585 0,11.2 C0,10.815 0.309375,10.5 0.6875,10.5 C1.065625,10.5 1.375,10.185 1.375,9.8 L1.375,9.8 L1.375,5.6 C1.375,3.773 2.523125,2.233 4.125,1.659 L4.125,1.659 L4.125,1.4 C4.125,0.63 4.74375,0 5.5,0 Z" id="Combined-Shape"></path>
                </g>
            </g>
        </g>
    </g>
</svg>