<?xml version="1.0" encoding="UTF-8"?>
<svg width="14px" height="12px" viewBox="0 0 14 12" version="1.1" xmlns="http://www.w3.org/2000/svg" xmlns:xlink="http://www.w3.org/1999/xlink">
    <!-- Generator: Sketch 59 (86127) - https://sketch.com -->
    <title>HDL/Icon/Standard/rollback</title>
    <desc>Created with Sketch.</desc>
    <g id="Colors" stroke="none" stroke-width="1" fill="none" fill-rule="evenodd">
        <g id="Main-Icons" transform="translate(-121.000000, -1207.000000)" fill="#4D5969">
            <g id="Rollback" transform="translate(100.000000, 1192.000000)">
                <g id="HDL/Icon/Standard/rollback" transform="translate(21.000000, 15.000000)">
                    <path d="M3.5,9.17647059 C2.73,9.17647059 2.1,9.81176471 2.1,10.5882353 C2.1,11.3647059 2.73,12 3.5,12 C4.27,12 4.9,11.3647059 4.9,10.5882353 C4.9,9.81176471 4.27,9.17647059 3.5,9.17647059 Z M9.8,2.82352941 L2.387,2.82352941 L3.99,1.20705882 C4.123,1.08 4.2,0.903529412 4.2,0.705882353 C4.2,0.317647059 3.885,0 3.5,0 C3.304,0 3.129,0.0776470588 3.003,0.204705882 L0.203,3.02823529 C0.077,3.15529412 0,3.33176471 0,3.52941176 C0,3.72705882 0.077,3.90352941 0.203,4.03058824 L3.003,6.85411765 C3.129,6.98117647 3.304,7.05882353 3.5,7.05882353 C3.885,7.05882353 4.2,6.74117647 4.2,6.35294118 C4.2,6.15529412 4.123,5.97882353 3.997,5.85176471 L2.387,4.23529412 L9.8,4.23529412 C11.347,4.23529412 12.6,5.49882353 12.6,7.05882353 C12.6,8.61882353 11.347,9.88235294 9.8,9.88235294 L6.3,9.88235294 L6.3,11.2941176 L9.8,11.2941176 C12.117,11.2941176 14,9.39529412 14,7.05882353 C14,4.72235294 12.117,2.82352941 9.8,2.82352941 Z" id="Shape"></path>
                </g>
            </g>
        </g>
    </g>
</svg>