<?xml version="1.0" encoding="UTF-8"?>
<svg width="14px" height="8px" viewBox="0 0 14 8" version="1.1" xmlns="http://www.w3.org/2000/svg" xmlns:xlink="http://www.w3.org/1999/xlink">
    <!-- Generator: Sketch 59 (86127) - https://sketch.com -->
    <title>HDL/Icon/Standard/chevron_down</title>
    <desc>Created with Sketch.</desc>
    <g id="Colors" stroke="none" stroke-width="1" fill="none" fill-rule="evenodd">
        <g id="Main-Icons" transform="translate(-622.000000, -882.000000)" fill="#4D5969">
            <g id="Chevron-Down" transform="translate(601.000000, 872.000000)">
                <g id="HDL/Icon/Standard/chevron_down" transform="translate(21.000000, 10.000000)">
                    <path d="M13,0 C12.72,0 12.47,0.11 12.29,0.29 L7,5.59 L1.71,0.29 C1.53,0.11 1.28,0 1,0 C0.45,0 0,0.45 0,1 C0,1.28 0.11,1.53 0.29,1.71 L6.29,7.71 C6.47,7.89 6.72,8 7,8 C7.28,8 7.53,7.89 7.71,7.71 L13.71,1.71 C13.89,1.53 14,1.28 14,1 C14,0.45 13.55,0 13,0 Z" id="Path"></path>
                </g>
            </g>
        </g>
    </g>
</svg>