<?xml version="1.0" encoding="utf-8"?>
<!-- Generator: Adobe Illustrator 20.1.0, SVG Export Plug-In . SVG Version: 6.00 Build 0)  -->
<svg version="1.1" id="Layer_1" xmlns="http://www.w3.org/2000/svg" xmlns:xlink="http://www.w3.org/1999/xlink" x="0px" y="0px"
	 viewBox="0 0 14 14" style="enable-background:new 0 0 14 14;" xml:space="preserve">
<style type="text/css">
	.st0{fill:#4D5969;}
</style>
<title>HDL/Icon/Standard/services</title>
<desc>Created with Sketch.</desc>
<g id="Colors">
	<g id="Main-Icons" transform="translate(-1122.000000, -547.000000)">
		<g id="Services" transform="translate(1100.000000, 529.000000)">
			<g id="HDL_x2F_Icon_x2F_Standard_x2F_services" transform="translate(22.000000, 18.000000)">
				<path id="Shape" class="st0" d="M7.7,0C7.6,0,7.4,0.1,7.4,0.2L7.3,0.7C6.9,0.9,6.5,1.1,6.1,1.4L5.6,1.3c-0.1,0-0.3,0-0.4,0.1
					L4.8,2.2c-0.1,0.1,0,0.3,0.1,0.4l0.4,0.4c0,0.2,0,0.4,0,0.7s0,0.4,0.1,0.7L4.9,4.6C4.8,4.7,4.8,4.9,4.8,5l0.4,0.8
					c0.1,0.1,0.2,0.2,0.4,0.1l0.5-0.1C6.5,6,6.9,6.3,7.3,6.4l0.1,0.5c0,0.1,0.1,0.2,0.3,0.2h0.9c0.1,0,0.3-0.1,0.3-0.2l0.1-0.5
					C9.5,6.3,9.9,6,10.2,5.7l0.5,0.1c0.1,0,0.3,0,0.4-0.1L11.6,5c0.1-0.1,0-0.3-0.1-0.4l-0.4-0.4c0.1-0.2,0.1-0.4,0.1-0.7
					s0-0.4-0.1-0.7l0.4-0.4c0.1-0.1,0.1-0.2,0.1-0.4l-0.4-0.8c-0.1-0.1-0.2-0.2-0.4-0.1l-0.5,0.1C9.9,1.1,9.5,0.9,9.1,0.7L8.9,0.2
					C8.9,0.1,8.8,0,8.6,0H7.7z M8.2,2.7c0.5,0,0.9,0.4,0.9,0.9S8.7,4.5,8.2,4.5S7.3,4.1,7.3,3.6S7.7,2.7,8.2,2.7z M3,5.4
					c-0.1,0-0.3,0.1-0.3,0.2L2.5,6.1C2.1,6.2,1.7,6.5,1.3,6.8L0.8,6.6c-0.1,0-0.3,0-0.4,0.1L0,7.5C0,7.7,0,7.8,0.1,7.9l0.4,0.4
					c0,0.2,0,0.4,0,0.7c0,0.2,0,0.4,0.1,0.7L0.1,10C0,10.1,0,10.2,0.1,10.3l0.4,0.8c0.1,0.1,0.2,0.2,0.4,0.1l0.5-0.1
					c0.3,0.3,0.7,0.5,1.2,0.7l0.1,0.5c0,0.1,0.1,0.2,0.3,0.2h0.9c0.1,0,0.3-0.1,0.3-0.2l0.1-0.5c0.4-0.1,0.8-0.4,1.2-0.7L6,11.2
					c0.1,0,0.3,0,0.4-0.1l0.4-0.8c0.1-0.1,0-0.3-0.1-0.4L6.4,9.6c0.1-0.2,0.1-0.4,0.1-0.7c0-0.2,0-0.4-0.1-0.7l0.4-0.4
					c0.1-0.1,0.1-0.2,0.1-0.4L6.3,6.8C6.3,6.6,6.1,6.6,6,6.6L5.5,6.8C5.2,6.5,4.7,6.3,4.3,6.1L4.2,5.6c0-0.1-0.1-0.2-0.3-0.2H3z
					 M9.8,6.9c-0.1,0-0.3,0.1-0.3,0.2L9.4,7.6C8.9,7.7,8.6,8,8.2,8.3L7.7,8.1c-0.1,0-0.3,0-0.4,0.1L6.9,9c-0.1,0.1,0,0.3,0.1,0.4
					l0.4,0.4c0,0.2,0,0.4,0,0.7c0,0.2,0,0.4,0.1,0.7L7,11.5c-0.1,0.1-0.1,0.2-0.1,0.4l0.4,0.8c0.1,0.1,0.2,0.2,0.4,0.1l0.5-0.1
					c0.3,0.3,0.7,0.5,1.2,0.7l0.1,0.5c0,0.1,0.1,0.2,0.3,0.2h0.9c0.1,0,0.3-0.1,0.3-0.2l0.1-0.5c0.4-0.1,0.8-0.4,1.2-0.7l0.5,0.1
					c0.1,0,0.3,0,0.4-0.1l0.4-0.8c0.1-0.1,0-0.3-0.1-0.4l-0.4-0.4c0.1-0.2,0.1-0.4,0.1-0.7c0-0.2,0-0.4-0.1-0.7l0.4-0.4
					c0.1-0.1,0.1-0.2,0.1-0.4l-0.4-0.8c-0.1-0.1-0.2-0.2-0.4-0.1l-0.5,0.1C12,8,11.6,7.7,11.1,7.6L11,7.1c0-0.1-0.1-0.2-0.3-0.2H9.8
					z M3.4,8c0.5,0,0.9,0.4,0.9,0.9S3.9,9.8,3.4,9.8S2.5,9.4,2.5,8.9S2.9,8,3.4,8z M10.2,9.2c0.7,0,1.2,0.5,1.2,1.2
					s-0.5,1.2-1.2,1.2s-1.2-0.5-1.2-1.2S9.6,9.2,10.2,9.2z"/>
			</g>
		</g>
	</g>
</g>
</svg>
