<?xml version="1.0" encoding="UTF-8"?>
<svg width="11px" height="14px" viewBox="0 0 11 14" version="1.1" xmlns="http://www.w3.org/2000/svg" xmlns:xlink="http://www.w3.org/1999/xlink">
    <!-- Generator: Sketch 59 (86127) - https://sketch.com -->
    <title>HDL/Icon/Standard/start</title>
    <desc>Created with Sketch.</desc>
    <g id="Colors" stroke="none" stroke-width="1" fill="none" fill-rule="evenodd">
        <g id="Main-Icons" transform="translate(-120.000000, -1299.000000)" fill="#4D5969">
            <g id="Start" transform="translate(101.000000, 1281.000000)">
                <g id="HDL/Icon/Standard/start" transform="translate(19.000000, 18.000000)">
                    <path d="M11,7 C11,6.64 10.8166667,6.33 10.5508333,6.16 L10.56,6.15 L1.39333333,0.15 L1.38416667,0.16 C1.24666667,0.07 1.09083333,0 0.916666667,0 C0.4125,0 0,0.45 0,1 L0,13 C0,13.55 0.4125,14 0.916666667,14 C1.09083333,14 1.24666667,13.93 1.38416667,13.84 L1.39333333,13.85 L10.56,7.85 L10.5508333,7.84 C10.8166667,7.67 11,7.36 11,7 Z" id="Path"></path>
                </g>
            </g>
        </g>
    </g>
</svg>