<?xml version="1.0" encoding="utf-8"?>
<!-- Generator: Adobe Illustrator 20.1.0, SVG Export Plug-In . SVG Version: 6.00 Build 0)  -->
<svg version="1.1" id="Layer_1" xmlns="http://www.w3.org/2000/svg" xmlns:xlink="http://www.w3.org/1999/xlink" x="0px" y="0px"
	 viewBox="0 0 14 13" style="enable-background:new 0 0 14 13;" xml:space="preserve">
<style type="text/css">
	.st0{fill:#4D5969;}
</style>
<title>HDL/Icon/Standard/folder_new</title>
<desc>Created with Sketch.</desc>
<g id="Colors">
	<g id="Main-Icons" transform="translate(-1121.000000, -266.000000)">
		<g id="Folder-New" transform="translate(1100.000000, 251.000000)">
			<g id="HDL_x2F_Icon_x2F_Standard_x2F_folder_x5F_new" transform="translate(21.000000, 15.000000)">
				<path id="Combined-Shape" class="st0" d="M9.1,5.1c0,1.2,0.9,2.2,2.1,2.2s2.1-1,2.1-2.2H14v7.2c0,0.4-0.3,0.7-0.7,0.7H0.7
					C0.3,13,0,12.7,0,12.3V5.1H9.1z M7.5,4.3H0V2.2c0-0.4,0.3-0.7,0.7-0.7h2.8c0.2,0,0.4,0.1,0.5,0.2l1.2,1.2H7
					C7,3.4,7.2,3.9,7.5,4.3z M13.3,2.2c0.4,0,0.7,0.3,0.7,0.7s-0.3,0.7-0.7,0.7h-1.4v1.4c0,0.4-0.3,0.7-0.7,0.7s-0.7-0.3-0.7-0.7
					V3.6H9.1c-0.4,0-0.7-0.3-0.7-0.7s0.3-0.7,0.7-0.7h1.4V0.7c0-0.4,0.3-0.7,0.7-0.7s0.7,0.3,0.7,0.7v1.4H13.3z"/>
			</g>
		</g>
	</g>
</g>
</svg>
