<?xml version="1.0" encoding="utf-8"?>
<!-- Generator: Adobe Illustrator 20.1.0, SVG Export Plug-In . SVG Version: 6.00 Build 0)  -->
<svg version="1.1" id="Layer_1" xmlns="http://www.w3.org/2000/svg" xmlns:xlink="http://www.w3.org/1999/xlink" x="0px" y="0px"
	 viewBox="0 0 14 14" style="enable-background:new 0 0 14 14;" xml:space="preserve">
<style type="text/css">
	.st0{fill:#4D5969;}
</style>
<title>HDL/Icon/Standard/user</title>
<desc>Created with Sketch.</desc>
<g id="Colors">
	<g id="Main-Icons" transform="translate(-1121.000000, -688.000000)">
		<g id="Users" transform="translate(1100.000000, 670.000000)">
			<g id="HDL_x2F_Icon_x2F_Standard_x2F_user" transform="translate(21.000000, 18.000000)">
				<path id="Path" class="st0" d="M13.7,12.5c-0.4-0.9-2.3-1.5-3.6-2.1S9,9.5,8.9,9.1c0-0.1,0-0.1,0-0.2c0.4-0.4,0.8-0.9,1-1.6
					c0,0,0,0,0,0C10,7.1,10.1,7,10.1,6.8c0.3-0.1,0.5-0.4,0.5-0.7c0.1-0.1,0.2-0.4,0.2-0.8c0-0.4-0.2-0.6-0.4-0.7c0,0,0-0.1,0-0.1
					c0-0.6-0.1-1.4-0.1-1.9c0-0.1-0.1-0.3-0.1-0.4C10,1.6,9.6,1,9,0.6C8.5,0.2,7.7,0,7,0S5.5,0.2,5,0.6c-0.5,0.4-0.9,1-1.1,1.6
					c0,0.1-0.1,0.3-0.1,0.4C3.7,3.2,3.6,4,3.6,4.6c0,0,0,0,0,0.1C3.4,4.7,3.2,4.9,3.2,5.4c0,0.3,0.1,0.6,0.2,0.8
					c0.1,0.3,0.2,0.6,0.6,0.7C3.9,7,4,7.1,4,7.2c0,0,0,0,0,0l0,0c0.2,0.6,0.6,1.2,1.1,1.6c0,0.1,0,0.1,0,0.2c0,0.5,0.1,0.8-1.2,1.4
					c-1.3,0.6-3.2,1.2-3.6,2.1S0,14,0,14H14C14,14,14.1,13.5,13.7,12.5z"/>
			</g>
		</g>
	</g>
</g>
</svg>
