<?xml version="1.0" encoding="UTF-8"?>
<svg width="14px" height="12px" viewBox="0 0 14 12" version="1.1" xmlns="http://www.w3.org/2000/svg" xmlns:xlink="http://www.w3.org/1999/xlink">
    <!-- Generator: Sketch 59 (86127) - https://sketch.com -->
    <title>HDL/Icon/Standard/destroy</title>
    <desc>Created with Sketch.</desc>
    <g id="Colors" stroke="none" stroke-width="1" fill="none" fill-rule="evenodd">
        <g id="Main-Icons" transform="translate(-624.000000, -1489.000000)" fill="#4D5969">
            <g id="Destroy" transform="translate(603.000000, 1473.000000)">
                <g id="HDL/Icon/Standard/destroy" transform="translate(21.000000, 16.000000)">
                    <path d="M12.439453,0 C12.0259225,0 11.6285075,0.15788256 11.3359375,0.43875 L9.5,2.20125 L8.8535155,1.58062502 C8.75937994,1.48772928 8.63011789,1.43532004 8.495117,1.43531251 C8.29165551,1.43536393 8.10851265,1.55375528 8.03195173,1.7347223 C7.9553908,1.91568931 8.00067887,2.12314526 8.1464845,2.25937498 L9.0751955,3.15093749 C9.11290729,3.20624743 9.16211205,3.25348408 9.2197265,3.28968749 L10.1464845,4.17937488 C10.271893,4.30476975 10.4581178,4.35528191 10.6333384,4.31143053 C10.808559,4.26757915 10.945395,4.1362165 10.9910735,3.96800474 C11.036752,3.79979299 10.9841352,3.62101713 10.8535155,3.50062502 L10.207031,2.88 L12.042969,1.1175 C12.1483985,1.01628744 12.289984,0.96 12.439453,0.96 C12.7542445,0.96 13,1.19635406 13,1.49812502 C13,1.87791298 12.805911,2.20296058 12.542969,2.77312502 C12.2800265,3.34328938 12,4.12171104 12,5.28 L12,8.16 C11.9974499,8.33310524 12.0921876,8.49411905 12.2479364,8.58138611 C12.4036852,8.66865316 12.5963148,8.66865316 12.7520636,8.58138611 C12.9078124,8.49411905 13.0025501,8.33310524 13,8.16 L13,5.28 C13,4.26292896 13.2199735,3.67622304 13.457031,3.16218749 C13.694089,2.64815194 14,2.17001698 14,1.49812502 C14,0.80415552 13.4535365,0.303461712 12.78125,0.136874976 C12.6897644,0.0509365891 12.5674341,0.0019485762 12.439453,0 Z M5.25,1.92 C2.3505,1.92 0,4.17648 0,6.96 C0,9.74352 2.3505,12 5.25,12 C8.1495,12 10.5,9.74352 10.5,6.96 C10.5,6.56928 10.448828,6.19090512 10.361328,5.82562512 L6.4316405,2.05312502 C6.0511405,1.96912502 5.657,1.92 5.25,1.92 Z M11.745117,9.35531232 C11.5416555,9.35536369 11.3585126,9.47375506 11.2819516,9.65472212 C11.2053907,9.83568918 11.2506788,10.0431452 11.3964845,10.1793749 L11.792969,10.56 L11.3964845,10.9406251 C11.2658641,11.0610171 11.2132467,11.2397933 11.2589251,11.4080055 C11.3046035,11.5762177 11.4414399,11.7075806 11.616661,11.7514319 C11.791882,11.7952832 11.9781072,11.7447705 12.1035155,11.6193749 L12.5,11.2387498 L12.8964845,11.6193749 C13.0218928,11.7447705 13.208118,11.7952832 13.383339,11.7514319 C13.5585601,11.7075806 13.6953965,11.5762177 13.7410749,11.4080055 C13.7867533,11.2397933 13.7341359,11.0610171 13.6035155,10.9406251 L13.207031,10.56 L13.6035155,10.1793749 C13.7513958,10.041379 13.79586,9.83038321 13.7154829,9.64805671 C13.6351058,9.46573021 13.4463763,9.34947624 13.2402345,9.35531232 C13.1103351,9.35902814 12.9870453,9.41114625 12.8964845,9.50062512 L12.5,9.88125024 L12.1035155,9.50062512 C12.00938,9.40772927 11.8801179,9.35531992 11.745117,9.35531232 Z" id="Shape"></path>
                </g>
            </g>
        </g>
    </g>
</svg>