<?xml version="1.0" encoding="UTF-8"?>
<svg width="14px" height="13px" viewBox="0 0 14 13" version="1.1" xmlns="http://www.w3.org/2000/svg" xmlns:xlink="http://www.w3.org/1999/xlink">
    <!-- Generator: Sketch 59 (86127) - https://sketch.com -->
    <title>HDL/Icon/Standard/applications</title>
    <desc>Created with Sketch.</desc>
    <g id="Colors" stroke="none" stroke-width="1" fill="none" fill-rule="evenodd">
        <g id="Main-Icons" transform="translate(-1122.000000, -502.000000)" fill="#4D5969">
            <g id="Applications" transform="translate(1100.000000, 485.000000)">
                <g id="HDL/Icon/Standard/applications" transform="translate(22.000000, 17.000000)">
                    <path d="M0,1.86517468e-14 L0,12.8333333 L14,12.8333333 L14,1.86517468e-14 L0,1.86517468e-14 Z M1.16666667,1.16666667 L12.8333333,1.16666667 L12.8333333,2.33333333 L1.16666667,2.33333333 L1.16666667,1.16666667 Z M1.16666667,3.5 L12.8333333,3.5 L12.8333333,11.6666667 L1.16666667,11.6666667 L1.16666667,3.5 Z M7,4.66666667 L5.83333333,10.5 L7,10.5 L8.16666667,4.66666667 L7,4.66666667 Z M4.2,4.9 L2.45,7.23333333 L2.1875,7.58333333 L2.45,7.93333333 L4.2,10.2666667 L5.13333333,9.56666667 L3.64583333,7.58333333 L5.13333333,5.6 L4.2,4.9 Z M9.8,4.9 L8.86666667,5.6 L10.3541667,7.58333333 L8.86666667,9.56666667 L9.8,10.2666667 L11.55,7.93333333 L11.8125,7.58333333 L11.55,7.23333333 L9.8,4.9 Z" id="Shape"></path>
                </g>
            </g>
        </g>
    </g>
</svg>