<?xml version="1.0" encoding="utf-8"?>
<!-- Generator: Adobe Illustrator 20.1.0, SVG Export Plug-In . SVG Version: 6.00 Build 0)  -->
<svg version="1.1" id="Layer_1" xmlns="http://www.w3.org/2000/svg" xmlns:xlink="http://www.w3.org/1999/xlink" x="0px" y="0px"
	 viewBox="0 0 13 14" style="enable-background:new 0 0 13 14;" xml:space="preserve">
<style type="text/css">
	.st0{fill:#4D5969;}
	.st1{fill:#FFFFFF;}
</style>
<title>HDL/Icon/Standard/feedback</title>
<desc>Created with Sketch.</desc>
<g id="Colors">
	<g id="Main-Icons" transform="translate(-1125.000000, -1205.000000)">
		<g id="Feedback" transform="translate(1102.000000, 1187.000000)">
			<g id="HDL_x2F_Icon_x2F_Larger_x2F_feedback" transform="translate(23.000000, 18.000000)">
				<g>
					<path id="Shape" class="st0" d="M11.8,0H1.2C0.5,0,0,0.5,0,1.2v8.2c0,0.6,0.5,1.2,1.2,1.2h5.4l3.2,3.2c0.2,0.2,0.5,0.3,0.8,0.3
						c0.6,0,1.2-0.5,1.2-1.2v-2.3c0.6,0,1.2-0.5,1.2-1.2V1.2C12.9,0.5,12.4,0,11.8,0z"/>
					<path id="Rectangle" class="st1" d="M2.3,1.8h7.6c0.3,0,0.6,0.3,0.6,0.6l0,0c0,0.3-0.3,0.6-0.6,0.6H2.3C2,2.9,1.8,2.7,1.8,2.3
						l0,0C1.8,2,2,1.8,2.3,1.8z"/>
					<path id="Rectangle-Copy" class="st1" d="M2.4,4h8.1c0.3,0,0.6,0.3,0.6,0.6v0c0,0.3-0.3,0.6-0.6,0.6H2.4C2,5.3,1.8,5,1.8,4.7v0
						C1.8,4.3,2,4,2.4,4z"/>
					<path id="Rectangle-Copy-6" class="st1" d="M2.4,6h5.8c0.3,0,0.6,0.3,0.6,0.6v0c0,0.3-0.3,0.6-0.6,0.6H2.4C2,7.2,1.8,7,1.8,6.6
						v0C1.8,6.3,2,6,2.4,6z"/>
				</g>
			</g>
		</g>
	</g>
</g>
</svg>
