<?xml version="1.0" encoding="UTF-8"?>
<svg width="8px" height="14px" viewBox="0 0 8 14" version="1.1" xmlns="http://www.w3.org/2000/svg" xmlns:xlink="http://www.w3.org/1999/xlink">
    <!-- Generator: Sketch 59 (86127) - https://sketch.com -->
    <title>HDL/Icon/Standard/chevron_left</title>
    <desc>Created with Sketch.</desc>
    <g id="Colors" stroke="none" stroke-width="1" fill="none" fill-rule="evenodd">
        <g id="Main-Icons" transform="translate(-616.000000, -782.000000)" fill="#4D5969">
            <g id="Chevron-Left" transform="translate(600.000000, 764.000000)">
                <g id="HDL/Icon/Standard/chevron_left" transform="translate(16.000000, 18.000000)">
                    <path d="M2.41,7 L7.7,1.71 C7.89,1.53 8,1.28 8,1 C8,0.45 7.55,0 7,0 C6.72,0 6.47,0.11 6.29,0.29 L0.29,6.29 C0.11,6.47 0,6.72 0,7 C0,7.28 0.11,7.53 0.29,7.71 L6.29,13.71 C6.47,13.89 6.72,14 7,14 C7.55,14 8,13.55 8,13 C8,12.72 7.89,12.47 7.71,12.29 L2.41,7 Z" id="Path"></path>
                </g>
            </g>
        </g>
    </g>
</svg>