<svg enable-background="new 0 0 13 14" viewBox="0 0 13 14" xmlns="http://www.w3.org/2000/svg"><path d="m11.8 0h-10.6c-.7 0-1.2.5-1.2 1.2v8.2c0 .6.5 1.2 1.2 1.2h5.4l3.2 3.2c.2.2.5.3.8.3.6 0 1.2-.5 1.2-1.2v-2.3c.6 0 1.2-.5 1.2-1.2v-8.2c-.1-.7-.6-1.2-1.2-1.2z" fill="#4d5969"/><g fill="#fff"><path d="m2.3 1.8h7.6c.3 0 .6.3.6.6s-.3.6-.6.6h-7.6c-.3-.1-.5-.3-.5-.7 0-.3.2-.5.5-.5z"/><path d="m2.4 4h8.1c.3 0 .6.3.6.6s-.3.6-.6.6h-8.1c-.4.1-.6-.2-.6-.5 0-.4.2-.7.6-.7z"/><path d="m2.4 6h5.8c.3 0 .6.3.6.6s-.3.6-.6.6h-5.8c-.4 0-.6-.2-.6-.6 0-.3.2-.6.6-.6z"/></g></svg>