<svg enable-background="new 0 0 14 14" viewBox="0 0 14 14" xmlns="http://www.w3.org/2000/svg"><path d="m1.4 10.9c-.8 0-1.4.7-1.4 1.6s.6 1.5 1.4 1.5 1.4-.7 1.4-1.6-.6-1.5-1.4-1.5zm0-5.5c-.8 0-1.4.7-1.4 1.6s.6 1.6 1.4 1.6 1.4-.7 1.4-1.6-.6-1.6-1.4-1.6zm3.5-3.1h8.4c.4 0 .7-.3.7-.7s-.3-.8-.7-.8h-8.4c-.4 0-.7.4-.7.8s.3.7.7.7zm-3.5-2.3c-.8 0-1.4.7-1.4 1.6s.6 1.6 1.4 1.6 1.4-.7 1.4-1.6-.6-1.6-1.4-1.6zm11.9 6.2h-8.4c-.4 0-.7.4-.7.8s.3.8.7.8h8.4c.4 0 .7-.4.7-.8s-.3-.8-.7-.8zm0 5.5h-8.4c-.4 0-.7.3-.7.8 0 .4.3.8.7.8h8.4c.4 0 .7-.4.7-.8 0-.5-.3-.8-.7-.8z" fill="#4d5969"/></svg>