<?xml version="1.0" encoding="UTF-8"?>
<svg width="11px" height="14px" viewBox="0 0 11 14" version="1.1" xmlns="http://www.w3.org/2000/svg" xmlns:xlink="http://www.w3.org/1999/xlink">
    <!-- Generator: Sketch 59 (86127) - https://sketch.com -->
    <title>HDL/Icon/Standard/trash</title>
    <desc>Created with Sketch.</desc>
    <g id="Colors" stroke="none" stroke-width="1" fill="none" fill-rule="evenodd">
        <g id="Main-Icons" transform="translate(-120.000000, -1111.000000)" fill="#4D5969">
            <g id="Delete" transform="translate(101.000000, 1093.000000)">
                <g id="HDL/Icon/Standard/trash" transform="translate(19.000000, 18.000000)">
                    <path d="M10.3125,0.7 L6.875,0.7 C6.875,0.315 6.565625,0 6.1875,0 L4.8125,0 C4.434375,0 4.125,0.315 4.125,0.7 L0.6875,0.7 C0.309375,0.7 0,1.015 0,1.4 L0,2.1 L11,2.1 L11,1.4 C11,1.015 10.690625,0.7 10.3125,0.7 Z M10.65625,2.8 L0.34375,2.8 C0.15125,2.8 0,2.954 0,3.15 C0,3.346 0.15125,3.5 0.34375,3.5 L0.6875,3.5 L0.6875,13.3 C0.6875,13.685 0.996875,14 1.375,14 L9.625,14 C10.003125,14 10.3125,13.685 10.3125,13.3 L10.3125,3.5 L10.65625,3.5 C10.84875,3.5 11,3.346 11,3.15 C11,2.954 10.84875,2.8 10.65625,2.8 Z M3.4375,11.2 C3.4375,11.585 3.128125,11.9 2.75,11.9 C2.371875,11.9 2.0625,11.585 2.0625,11.2 L2.0625,5.6 C2.0625,5.215 2.371875,4.9 2.75,4.9 C3.128125,4.9 3.4375,5.215 3.4375,5.6 L3.4375,11.2 Z M6.1875,11.2 C6.1875,11.585 5.878125,11.9 5.5,11.9 C5.121875,11.9 4.8125,11.585 4.8125,11.2 L4.8125,5.6 C4.8125,5.215 5.121875,4.9 5.5,4.9 C5.878125,4.9 6.1875,5.215 6.1875,5.6 L6.1875,11.2 Z M8.9375,11.2 C8.9375,11.585 8.628125,11.9 8.25,11.9 C7.871875,11.9 7.5625,11.585 7.5625,11.2 L7.5625,5.6 C7.5625,5.215 7.871875,4.9 8.25,4.9 C8.628125,4.9 8.9375,5.215 8.9375,5.6 L8.9375,11.2 Z" id="Shape"></path>
                </g>
            </g>
        </g>
    </g>
</svg>