<?xml version="1.0" encoding="utf-8"?>
<!-- Generator: Adobe Illustrator 20.1.0, SVG Export Plug-In . SVG Version: 6.00 Build 0)  -->
<svg version="1.1" id="Layer_1" xmlns="http://www.w3.org/2000/svg" xmlns:xlink="http://www.w3.org/1999/xlink" x="0px" y="0px"
	 viewBox="0 0 14 12" style="enable-background:new 0 0 14 12;" xml:space="preserve">
<style type="text/css">
	.st0{fill:#4D5969;}
</style>
<title>HDL/Icon/Standard/rollback</title>
<desc>Created with Sketch.</desc>
<g id="Colors">
	<g id="Main-Icons" transform="translate(-121.000000, -1207.000000)">
		<g id="Rollback" transform="translate(100.000000, 1192.000000)">
			<g id="HDL_x2F_Icon_x2F_Standard_x2F_rollback" transform="translate(21.000000, 15.000000)">
				<path id="Shape" class="st0" d="M3.5,9.2c-0.8,0-1.4,0.6-1.4,1.4c0,0.8,0.6,1.4,1.4,1.4s1.4-0.6,1.4-1.4
					C4.9,9.8,4.3,9.2,3.5,9.2z M9.8,2.8H2.4L4,1.2c0.1-0.1,0.2-0.3,0.2-0.5C4.2,0.3,3.9,0,3.5,0C3.3,0,3.1,0.1,3,0.2L0.2,3
					C0.1,3.2,0,3.3,0,3.5S0.1,3.9,0.2,4L3,6.9C3.1,7,3.3,7.1,3.5,7.1c0.4,0,0.7-0.3,0.7-0.7C4.2,6.2,4.1,6,4,5.9L2.4,4.2h7.4
					c1.5,0,2.8,1.3,2.8,2.8s-1.3,2.8-2.8,2.8H6.3v1.4h3.5c2.3,0,4.2-1.9,4.2-4.2S12.1,2.8,9.8,2.8z"/>
			</g>
		</g>
	</g>
</g>
</svg>
