<?xml version="1.0" encoding="utf-8"?>
<!-- Generator: Adobe Illustrator 20.1.0, SVG Export Plug-In . SVG Version: 6.00 Build 0)  -->
<svg version="1.1" id="Layer_1" xmlns="http://www.w3.org/2000/svg" xmlns:xlink="http://www.w3.org/1999/xlink" x="0px" y="0px"
	 viewBox="0 0 12 14" style="enable-background:new 0 0 12 14;" xml:space="preserve">
<style type="text/css">
	.st0{filter:url(#Adobe_OpacityMaskFilter);}
	.st1{fill:#FFFFFF;}
	.st2{mask:url(#mask-2);fill:#FB862E;}
	.st3{filter:url(#Adobe_OpacityMaskFilter_1_);}
	.st4{mask:url(#mask-4);fill:#A0501E;}
	.st5{filter:url(#Adobe_OpacityMaskFilter_2_);}
	.st6{mask:url(#mask-6);fill:#6E3915;}
	.st7{fill:#FB862E;}
	.st8{fill:#A0501E;}
	.st9{fill:#FB872E;}
	.st10{fill:#A0501C;}
	.st11{fill:#A1501E;}
	.st12{fill:#FDBD8F;}
	.st13{fill:#A1501C;}
	.st14{fill:#FDBD90;}
	.st15{fill:#D58954;}
	.st16{fill:#F19754;}
	.st17{fill:#F9CEAF;}
	.st18{fill:#FAD2B5;}
	.st19{fill:#F9D4BA;}
	.st20{fill:#E1BEA7;}
</style>
<title>HDL/Icon/Standard/Service/ami</title>
<desc>Created with Sketch.</desc>
<g id="Colors">
	<g id="Service-icons" transform="translate(-620.000000, -595.000000)">
		<g id="AMI" transform="translate(600.000000, 577.000000)">
			<g id="HDL_x2F_Icon_x2F_Standard_x2F_Service_x2F_ami" transform="translate(20.000000, 18.000000)">
				<g id="Group-64-Copy-4" transform="translate(-0.000000, 0.000000)">
					<g id="Group-3" transform="translate(5.633634, 0.019087)">
						<g id="Clip-2">
						</g>
						<defs>
							<filter id="Adobe_OpacityMaskFilter" filterUnits="userSpaceOnUse" x="0" y="0" width="6" height="5">
								<feColorMatrix  type="matrix" values="1 0 0 0 0  0 1 0 0 0  0 0 1 0 0  0 0 0 1 0"/>
							</filter>
						</defs>
						<mask maskUnits="userSpaceOnUse" x="0" y="0" width="6" height="5" id="mask-2">
							<g class="st0">
								<polygon id="path-1" class="st1" points="0,0 6,0 6,5 0,5 								"/>
							</g>
						</mask>
						<path id="Fill-1" class="st2" d="M0.1,0c0.6,0.3,1.2,0.6,1.8,0.8c1.3,0.6,2.6,1.3,3.9,1.9C5.9,2.9,6,3,6,3.2
							c0,0.5,0,1.1,0,1.6C6,4.9,6,5,5.9,5C4.1,4.6,2.4,4.1,0.6,3.7c-0.2,0-0.4,0-0.5-0.2c0-0.1,0-0.2,0-0.3c0-1,0-1.9,0-2.9
							C0,0.2,0,0.1,0.1,0"/>
					</g>
					<g id="Group-6" transform="translate(0.042042, 0.019087)">
						<g id="Clip-5">
						</g>
						<defs>
							<filter id="Adobe_OpacityMaskFilter_1_" filterUnits="userSpaceOnUse" x="0" y="0" width="5.7" height="4.9">
								<feColorMatrix  type="matrix" values="1 0 0 0 0  0 1 0 0 0  0 0 1 0 0  0 0 0 1 0"/>
							</filter>
						</defs>
						<mask maskUnits="userSpaceOnUse" x="0" y="0" width="5.7" height="4.9" id="mask-4">
							<g class="st3">
								<polygon id="path-3" class="st1" points="0,0 5.7,0 5.7,5 0,5 								"/>
							</g>
						</mask>
						<path id="Fill-4" class="st4" d="M5.7,0c0,1.2,0,2.3,0,3.5c0,0.1-0.1,0.1-0.2,0.1C3.8,4.1,2.1,4.5,0.4,4.9
							C0.3,4.9,0.1,5,0,4.9c0-0.6,0-1.2,0-1.9C0,3,0,2.9,0.2,2.8C2,1.9,3.8,1,5.7,0C5.6,0,5.7,0,5.7,0"/>
					</g>
					<g id="Group-9" transform="translate(0.000000, 3.550619)">
						<g id="Clip-8">
						</g>
						<defs>
							<filter id="Adobe_OpacityMaskFilter_2_" filterUnits="userSpaceOnUse" x="0" y="0" width="11.5" height="2">
								<feColorMatrix  type="matrix" values="1 0 0 0 0  0 1 0 0 0  0 0 1 0 0  0 0 0 1 0"/>
							</filter>
						</defs>
						<mask maskUnits="userSpaceOnUse" x="0" y="0" width="11.5" height="2" id="mask-6">
							<g class="st5">
								<polygon id="path-5" class="st1" points="0,0 11.5,0 11.5,2 0,2 								"/>
							</g>
						</mask>
						<path id="Fill-7" class="st6" d="M0.1,1.4C0.9,1.2,1.8,1,2.6,0.8c1-0.2,2-0.5,3-0.7c0,0,0.1,0,0.1,0C6.4,0.1,7,0.3,7.6,0.4
							c1.2,0.3,2.5,0.6,3.7,0.9c0.1,0,0.2,0,0.2,0.1c-1.2,0.1-2.4,0.2-3.7,0.4C7.2,1.9,6.5,2,5.8,2C5.4,2.1,5,2,4.5,1.9
							C3.3,1.8,2.2,1.7,1,1.6C0.7,1.5,0.4,1.5,0.1,1.4C0,1.5,0,1.5,0.1,1.4C0,1.4,0,1.4,0.1,1.4"/>
					</g>
					<path id="Fill-10" class="st7" d="M8.7,8.6c0,0.2-0.1,0.2-0.3,0.3C7.6,9,6.7,9.2,5.9,9.3c0,0-0.1,0-0.1,0
						C5.7,9.3,5.7,9.2,5.7,9.1c0-1,0-2,0-2.9c0-0.1,0-0.2,0.1-0.3C6.4,5.9,7,6,7.7,6c0.3,0,0.6,0,0.9,0.1c0.1,0,0.2,0,0.2,0.1
						c0.1,0.1,0.1,0.1,0.1,0.2c0,0.6,0,1.3,0,1.9C8.8,8.4,8.8,8.6,8.7,8.6"/>
					<path id="Fill-12" class="st8" d="M5.7,5.9c0,1.2,0,2.3,0,3.5C5.1,9.2,4.5,9.1,3.8,9C3.5,8.9,3.2,8.9,2.9,8.8
						C2.8,8,2.9,7.2,2.9,6.4c0-0.1,0-0.2,0.1-0.2c0,0,0.1,0,0.1-0.1C3.9,6,4.7,5.9,5.6,5.9C5.6,5.9,5.7,5.9,5.7,5.9"/>
					<path id="Fill-14" class="st8" d="M5.9,13.9c0,0.1-0.1,0.1-0.1,0c-0.6-0.3-1.1-0.6-1.7-0.9c-0.1-0.1-0.2-0.1-0.1-0.2
						c0-0.2,0-0.4,0-0.6c0,0-0.1-0.1-0.1-0.2c0-0.6,0-1.2,0-1.8c0,0,0-0.1,0-0.1c0.1-0.1,0.2-0.1,0.3,0c0.5,0.1,0.9,0.2,1.4,0.3
						c0.2,0,0.3,0,0.5,0.1c0.1,0.2,0.1,0.4,0.1,0.6c0,0.3,0,0.6,0,0.8c0,0.6-0.1,1.2,0,1.8C6,13.8,6,13.8,5.9,13.9"/>
					<path id="Fill-16" class="st7" d="M5.9,13.9c0-0.9,0-1.9,0.1-2.8c0-0.2,0.1-0.4,0-0.6c0-0.1,0.1-0.1,0.1-0.1
						c0.5-0.1,1.1-0.3,1.6-0.5c0.1,0,0.1,0,0.2,0C8,10.1,8,10.2,8,10.2c0,0.6,0,1.2,0,1.8c0,0.1,0,0.2-0.1,0.3c0,0,0,0,0,0.1
						c0.1,0.5-0.1,0.7-0.5,0.9C6.9,13.4,6.4,13.7,5.9,13.9"/>
					<path id="Fill-18" class="st9" d="M9.6,6.2c0.6,0.1,1.2,0.1,1.8,0.2c0.1,0,0.1,0.1,0.1,0.2c0,0.6,0,1.2,0,1.7
						c0,0.1,0,0.1-0.1,0.2c-0.6,0.1-1.3,0.2-1.9,0.3c0,0-0.1,0-0.1,0c0.1-0.3,0.1-0.6,0.1-0.9c0-0.4,0-0.9,0-1.3
						C9.6,6.4,9.6,6.3,9.6,6.2"/>
					<path id="Fill-20" class="st8" d="M1.7,8.6c-0.5,0-1-0.2-1.5-0.3c-0.1,0-0.1-0.1-0.1-0.1c0-0.6,0-1.2,0-1.8
						c0-0.1,0-0.1,0.1-0.1c0.5,0,1-0.1,1.5-0.2c0.1,0.1,0.1,0.2,0.1,0.3c0,0.7,0,1.3,0,2C1.8,8.5,1.8,8.6,1.7,8.6"/>
					<path id="Fill-22" class="st7" d="M3.9,10.1c0,0.7,0,1.4,0,2.1c-0.3,0-0.6,0.2-0.9,0.3c-0.1,0-0.2,0.1-0.3,0.1
						c-0.1-0.1-0.1-0.1-0.1-0.2c0-0.8,0-1.5,0-2.3c0-0.1,0-0.1,0-0.2c0-0.1,0.1-0.1,0.1-0.1c0.6-0.1,1.1-0.2,1.7-0.3
						c0.1,0,0.2,0,0.2,0c0,0.1,0,0.2,0,0.3C4.5,9.9,4.1,9.9,3.9,10.1C3.9,10,3.9,10,3.9,10.1"/>
					<path id="Fill-24" class="st7" d="M10,11.5c0.1,0.3-0.1,0.5-0.3,0.6c-0.3,0.1-0.5,0.3-0.8,0.4c-0.1,0-0.1-0.1-0.1-0.2
						c0-0.3,0-0.5,0-0.8c0-0.1,0-0.2,0-0.3c0-0.5,0-1,0-1.4c0,0,0-0.1,0.1-0.1c0.4-0.1,0.7-0.3,1.1-0.3C10,9.6,10,9.6,10.1,9.7
						c0,0.5,0,1.1,0,1.6C10.1,11.4,10,11.5,10,11.5"/>
					<path id="Fill-26" class="st7" d="M1.7,8.6c0-0.7,0-1.5,0-2.2c0-0.1,0-0.2,0-0.2c0.3,0,0.7,0,1,0c0.1,0,0.2,0,0.2,0
						c0,0.9,0,1.8,0,2.7c0-0.2-0.1-0.2-0.2-0.2C2.3,8.6,2,8.7,1.7,8.6"/>
					<path id="Fill-28" class="st10" d="M8.8,9.8c0,0.5,0,1,0,1.5c0,0.4,0,0.8,0,1.2c-0.3-0.1-0.6-0.2-0.9-0.2c0-0.7,0-1.4,0-2.1
						c0-0.1,0-0.2,0-0.2C7.4,9.9,7,9.9,6.5,9.7c0-0.1-0.1-0.2,0.1-0.2c0.7,0,1.3,0.2,2,0.3C8.7,9.8,8.7,9.8,8.8,9.8"/>
					<path id="Fill-30" class="st9" d="M11.5,9.1c0.1,0,0.1,0,0.1,0.1c0,0.6,0,1.2,0,1.8c0,0.1,0,0.1-0.1,0.1
						c-0.4,0.1-0.8,0.3-1.2,0.4c0,0,0,0-0.1,0c0-0.6,0-1.3,0-1.9c0-0.1,0-0.2,0-0.3c0.1-0.1,0.1-0.1,0.2-0.1
						C10.9,9.2,11.2,9.1,11.5,9.1"/>
					<path id="Fill-32" class="st8" d="M2.7,9.8c0,0.9,0,1.8,0,2.7c-0.3-0.2-0.6-0.4-0.9-0.6c-0.2-0.1,0-0.3-0.1-0.5
						c0-0.1-0.1-0.1-0.1-0.2c0-0.5,0-1,0-1.6c0,0,0-0.1,0-0.1c0,0,0.1-0.1,0.1-0.1C2.1,9.6,2.4,9.6,2.7,9.8"/>
					<path id="Fill-34" class="st11" d="M9.6,6.2c0,0.6,0,1.2,0,1.7c0,0.2,0,0.4,0,0.7c0,0.1-0.1,0.1-0.1,0.1c-0.3,0-0.5,0-0.8-0.1
						c0-0.8-0.1-1.6,0-2.4C9,6.2,9.3,6.2,9.6,6.2"/>
					<path id="Fill-36" class="st12" d="M6.5,9.7C7,9.8,7.4,9.9,7.8,10c-0.6,0.2-1.1,0.3-1.7,0.5c-0.1,0-0.1,0-0.2,0.1
						c-0.1,0-0.2,0-0.3,0c-0.6-0.1-1.1-0.3-1.7-0.4c-0.1,0-0.1,0-0.2-0.1c0,0,0,0,0,0c0.3-0.1,0.7-0.1,1-0.2
						C5.3,9.6,5.9,9.5,6.5,9.7"/>
					<path id="Fill-38" class="st7" d="M1.7,9.5c0,0.6,0,1.3,0,1.9c-0.2,0-0.4,0.1-0.7,0.1c-0.2,0-0.2-0.1-0.2-0.2
						c0-0.2,0-0.4,0-0.6c0-0.4,0-0.8,0-1.2c0-0.1,0-0.2,0-0.3C0.9,9.2,1,9.2,1.1,9.2c0.5-0.1,1.1-0.1,1.6-0.1c0,0,0,0,0,0
						c0.1,0.2,0,0.2-0.2,0.2C2.3,9.4,2,9.5,1.7,9.5C1.7,9.5,1.7,9.5,1.7,9.5"/>
					<path id="Fill-40" class="st8" d="M0.8,11.5c-0.2-0.1-0.4-0.2-0.6-0.3c-0.1,0-0.1-0.1-0.1-0.2c0-0.6,0-1.2,0-1.8
						c0-0.1,0.1,0,0.1-0.1c0.2,0,0.4,0,0.6,0.1c0.1,0,0.2,0,0.2,0.1c0,0.7,0,1.3,0,2C0.9,11.4,0.9,11.5,0.8,11.5"/>
					<path id="Fill-42" class="st13" d="M10.4,9.3c0,0.7,0,1.4,0,2c0,0.1,0,0.2-0.1,0.2c-0.1,0-0.2,0-0.3,0c0-0.6,0-1.2,0-1.8
						c0-0.1,0.1-0.2-0.1-0.2c-0.3,0-0.7-0.1-1-0.1c-0.1,0-0.2,0-0.2-0.1c0-0.2,0.1-0.1,0.2-0.1c0.1,0,0.2,0,0.4,0c0.1,0,0.1,0,0.2,0
						c0.1,0,0.1,0,0.2,0c0,0,0,0,0.1,0c0.1,0,0.1,0,0.2,0c0.1,0,0.1,0,0.2,0C10.2,9.3,10.3,9.2,10.4,9.3"/>
					<path id="Fill-44" class="st12" d="M8.7,9.3c0.3,0.1,0.7,0.1,1,0.2c0.1,0,0.2,0,0.2,0.1C9.5,9.6,9.1,9.7,8.8,9.8
						C8,9.7,7.3,9.6,6.6,9.5c0.4-0.1,0.9-0.1,1.3-0.2C8.2,9.2,8.4,9.3,8.7,9.3"/>
					<path id="Fill-46" class="st12" d="M1.7,9.5c0,0-0.1,0-0.2-0.1c0.3,0,0.7-0.1,1-0.1c0.1,0,0.3,0.1,0.3-0.2
						c0,0.1,0.2,0.1,0.3,0.1c0.6-0.1,1.1,0.1,1.6,0.1c0,0,0,0,0.1,0c0,0,0,0,0,0C4.2,9.6,3.6,9.7,3,9.8c-0.1,0-0.2,0-0.3,0
						C2.4,9.7,2,9.6,1.7,9.5"/>
					<path id="Fill-48" class="st14" d="M0.9,9.3C0.6,9.2,0.4,9.1,0.1,9.1C0.3,9,0.6,9,0.8,9c0.7-0.1,1.3-0.1,2,0.1
						c-0.2,0.1-0.4,0-0.6,0.1C1.7,9.2,1.3,9.3,0.9,9.3C0.9,9.3,0.9,9.3,0.9,9.3"/>
					<path id="Fill-50" class="st14" d="M10.4,9.3c-0.1,0-0.2,0-0.2,0c-0.1-0.1-0.2,0-0.2,0c-0.1,0-0.1,0-0.2,0l0,0
						c-0.1,0-0.2,0-0.2,0c-0.1,0-0.1,0-0.2,0c-0.1-0.1-0.2,0-0.2-0.1c0.6-0.2,1.2-0.1,1.9-0.1c0.2,0,0.4,0,0.6,0.1
						C11.1,9.2,10.8,9.3,10.4,9.3"/>
					<path id="Fill-52" class="st15" d="M0.9,9.3C0.9,9.3,0.9,9.3,0.9,9.3c0,0.7,0,1.4,0,2c0,0.1,0,0.2,0.1,0.2
						c-0.1,0-0.1,0.1-0.2,0c0.1,0,0-0.1,0-0.2C0.9,10.6,0.9,10,0.9,9.3"/>
					<path id="Fill-54" class="st16" d="M8.8,12.5c0-0.4,0-0.8,0-1.2c0.1,0.3,0,0.7,0,1C8.8,12.4,8.8,12.4,8.8,12.5
						C8.8,12.5,8.8,12.6,8.8,12.5"/>
					<path id="Fill-56" class="st17" d="M9.1,9.1c0.1,0.1,0.2,0,0.2,0.1c-0.1,0-0.3,0-0.4,0C8.9,9.1,9,9.1,9.1,9.1"/>
					<path id="Fill-58" class="st18" d="M9.5,9.3c0.1-0.1,0.2-0.1,0.2,0C9.7,9.3,9.6,9.3,9.5,9.3"/>
					<path id="Fill-60" class="st19" d="M9.9,9.2c0.1,0,0.2-0.1,0.2,0.1C10.1,9.3,10,9.3,9.9,9.2C9.9,9.3,9.9,9.3,9.9,9.2
						C9.9,9.2,9.9,9.2,9.9,9.2"/>
					<path id="Fill-62" class="st20" d="M9.9,9.2C9.9,9.3,9.9,9.3,9.9,9.2c-0.1,0.1-0.1,0.1-0.2,0C9.8,9.2,9.9,9.2,9.9,9.2"/>
				</g>
			</g>
		</g>
	</g>
</g>
</svg>
