<svg viewBox="0 0 12 14" xmlns="http://www.w3.org/2000/svg"><mask id="a" height="5" maskUnits="userSpaceOnUse" width="6" x="0" y="0"><path d="M0 0h6v5H0z" fill="#fff"/></mask><mask id="b" height="4.9" maskUnits="userSpaceOnUse" width="5.7" x="0" y="0"><path d="M0 0h5.7v5H0z" fill="#fff"/></mask><mask id="c" height="2" maskUnits="userSpaceOnUse" width="11.5" x="0" y="0"><path d="M0 0h11.5v2H0z" fill="#fff"/></mask><path d="M.1 0c.6.3 1.2.6 1.8.8 1.3.6 2.6 1.3 3.9 1.9.1.2.2.3.2.5v1.6c0 .1 0 .2-.1.2-1.8-.4-3.5-.9-5.3-1.3-.2 0-.4 0-.5-.2v-.3V.3C0 .2 0 .1.1 0" fill="#fb862e" mask="url(#a)" transform="translate(5.634 .02)"/><path d="M5.7 0v3.5c0 .1-.1.1-.2.1-1.7.5-3.4.9-5.1 1.3-.1 0-.3.1-.4 0V3s0-.1.2-.2C2 1.9 3.8 1 5.7 0c-.1 0 0 0 0 0" fill="#a0501e" mask="url(#b)" transform="translate(.042 .02)"/><path d="M.1 1.4C.9 1.2 1.8 1 2.6.8c1-.2 2-.5 3-.7h.1c.7 0 1.3.2 1.9.3 1.2.3 2.5.6 3.7.9.1 0 .2 0 .2.1-1.2.1-2.4.2-3.7.4-.6.1-1.3.2-2 .2-.4.1-.8 0-1.3-.1-1.2-.1-2.3-.2-3.5-.3-.3-.1-.6-.1-.9-.2-.1.1-.1.1 0 0-.1 0-.1 0 0 0" fill="#6e3915" mask="url(#c)" transform="translate(0 3.55)"/><path d="M8.7 8.6c0 .2-.1.2-.3.3-.8.1-1.7.3-2.5.4h-.1c-.1 0-.1-.1-.1-.2V6.2c0-.1 0-.2.1-.3.6 0 1.2.1 1.9.1.3 0 .6 0 .9.1.1 0 .2 0 .2.1.1.1.1.1.1.2v1.9c-.1.1-.1.3-.2.3" fill="#fb862e"/><path d="M5.7 5.9v3.5c-.6-.2-1.2-.3-1.9-.4-.3-.1-.6-.1-.9-.2-.1-.8 0-1.6 0-2.4 0-.1 0-.2.1-.2 0 0 .1 0 .1-.1.8-.1 1.6-.2 2.5-.2zM5.9 13.9c0 .1-.1.1-.1 0-.6-.3-1.1-.6-1.7-.9-.1-.1-.2-.1-.1-.2v-.6s-.1-.1-.1-.2V10.1c.1-.1.2-.1.3 0 .5.1.9.2 1.4.3.2 0 .3 0 .5.1.1.2.1.4.1.6v.8c0 .6-.1 1.2 0 1.8-.2.1-.2.1-.3.2" fill="#a0501e"/><path d="M5.9 13.9c0-.9 0-1.9.1-2.8 0-.2.1-.4 0-.6 0-.1.1-.1.1-.1.5-.1 1.1-.3 1.6-.5h.2c.1.2.1.3.1.3V12c0 .1 0 .2-.1.3v.1c.1.5-.1.7-.5.9-.5.1-1 .4-1.5.6" fill="#fb862e"/><path d="M9.6 6.2c.6.1 1.2.1 1.8.2.1 0 .1.1.1.2v1.7c0 .1 0 .1-.1.2-.6.1-1.3.2-1.9.3h-.1c.1-.3.1-.6.1-.9V6.6c.1-.2.1-.3.1-.4" fill="#fb872e"/><path d="M1.7 8.6c-.5 0-1-.2-1.5-.3-.1 0-.1-.1-.1-.1V6.4c0-.1 0-.1.1-.1.5 0 1-.1 1.5-.2.1.1.1.2.1.3v2c0 .1 0 .2-.1.2" fill="#a0501e"/><g fill="#fb862e"><path d="M3.9 10.1v2.1c-.3 0-.6.2-.9.3-.1 0-.2.1-.3.1-.1-.1-.1-.1-.1-.2v-2.3-.2c0-.1.1-.1.1-.1.6-.1 1.1-.2 1.7-.3h.2v.3c-.1.1-.5.1-.7.3 0-.1 0-.1 0 0M10 11.5c.1.3-.1.5-.3.6-.3.1-.5.3-.8.4-.1 0-.1-.1-.1-.2v-.8-.3-1.4s0-.1.1-.1c.4-.1.7-.3 1.1-.3 0 .2 0 .2.1.3v1.6c0 .1-.1.2-.1.2M1.7 8.6V6.4v-.2h1.2v2.7c0-.2-.1-.2-.2-.2-.4-.1-.7 0-1-.1"/></g><path d="M8.8 9.8v2.7c-.3-.1-.6-.2-.9-.2v-2.1-.2c-.5-.1-.9-.1-1.4-.3 0-.1-.1-.2.1-.2.7 0 1.3.2 2 .3z" fill="#a0501c"/><path d="M11.5 9.1c.1 0 .1 0 .1.1V11c0 .1 0 .1-.1.1-.4.1-.8.3-1.2.4h-.1V9.6v-.3c.1-.1.1-.1.2-.1.5 0 .8-.1 1.1-.1" fill="#fb872e"/><path d="M2.7 9.8v2.7l-.9-.6c-.2-.1 0-.3-.1-.5 0-.1-.1-.1-.1-.2V9.5l.1-.1c.4.2.7.2 1 .4" fill="#a0501e"/><path d="M9.6 6.2v2.4c0 .1-.1.1-.1.1-.3 0-.5 0-.8-.1 0-.8-.1-1.6 0-2.4z" fill="#a1501e"/><path d="M6.5 9.7c.5.1.9.2 1.3.3-.6.2-1.1.3-1.7.5-.1 0-.1 0-.2.1h-.3c-.6-.1-1.1-.3-1.7-.4-.1 0-.1 0-.2-.1.3-.1.7-.1 1-.2.6-.3 1.2-.4 1.8-.2" fill="#fdbd8f"/><path d="M1.7 9.5v1.9c-.2 0-.4.1-.7.1-.2 0-.2-.1-.2-.2v-.6-1.2-.3h.3c.5-.1 1.1-.1 1.6-.1.1.2 0 .2-.2.2-.2.1-.5.2-.8.2z" fill="#fb862e"/><path d="M.8 11.5l-.6-.3c-.1 0-.1-.1-.1-.2V9.2c0-.1.1 0 .1-.1.2 0 .4 0 .6.1.1 0 .2 0 .2.1v2c-.1.1-.1.2-.2.2" fill="#a0501e"/><path d="M10.4 9.3v2c0 .1 0 .2-.1.2H10V9.7c0-.1.1-.2-.1-.2-.3 0-.7-.1-1-.1-.1 0-.2 0-.2-.1 0-.2.1-.1.2-.1h1.3c0 .1.1 0 .2.1" fill="#a1501c"/><path d="M8.7 9.3c.3.1.7.1 1 .2.1 0 .2 0 .2.1-.4 0-.8.1-1.1.2-.8-.1-1.5-.2-2.2-.3.4-.1.9-.1 1.3-.2.3-.1.5 0 .8 0M1.7 9.5s-.1 0-.2-.1c.3 0 .7-.1 1-.1.1 0 .3.1.3-.2 0 .1.2.1.3.1.6-.1 1.1.1 1.6.1h.1c-.6.3-1.2.4-1.8.5h-.3c-.3-.1-.7-.2-1-.3" fill="#fdbd8f"/><path d="M.9 9.3c-.3-.1-.5-.2-.8-.2.2-.1.5-.1.7-.1.7-.1 1.3-.1 2 .1-.2.1-.4 0-.6.1-.5 0-.9.1-1.3.1zM10.4 9.3h-.2c-.1-.1-.2 0-.2 0H9.4c-.1-.1-.2 0-.2-.1.6-.2 1.2-.1 1.9-.1.2 0 .4 0 .6.1-.6 0-.9.1-1.3.1" fill="#fdbd90"/><path d="M.9 9.3v2c0 .1 0 .2.1.2-.1 0-.1.1-.2 0 .1 0 0-.1 0-.2.1-.7.1-1.3.1-2" fill="#d58954"/><path d="M8.8 12.5v-1.2c.1.3 0 .7 0 1v.2s0 .1 0 0" fill="#f19754"/><path d="M9.1 9.1c.1.1.2 0 .2.1h-.4c0-.1.1-.1.2-.1" fill="#f9ceaf"/><path d="M9.5 9.3c.1-.1.2-.1.2 0h-.2" fill="#fad2b5"/><path d="M9.9 9.2c.1 0 .2-.1.2.1 0 0-.1 0-.2-.1 0 .1 0 .1 0 0z" fill="#f9d4ba"/><path d="M9.9 9.2c0 .1 0 .1 0 0-.1.1-.1.1-.2 0z" fill="#e1bea7"/></svg>