<svg enable-background="new 0 0 11 14" viewBox="0 0 11 14" xmlns="http://www.w3.org/2000/svg"><path d="m10.3.7h-3.4c0-.4-.3-.7-.7-.7h-1.4c-.4 0-.7.3-.7.7h-3.4c-.4 0-.7.3-.7.7v.7h11v-.7c0-.4-.3-.7-.7-.7zm.4 2.1h-10.4c-.1 0-.3.2-.3.4s.2.3.3.3h.3v9.8c.1.4.4.7.8.7h8.2c.4 0 .7-.3.7-.7v-9.8h.3c.2 0 .3-.2.3-.3.1-.2-.1-.4-.2-.4zm-7.3 8.4c0 .4-.3.7-.7.7s-.7-.3-.7-.7v-5.6c0-.4.3-.7.7-.7s.7.3.7.7zm2.8 0c0 .4-.3.7-.7.7s-.7-.3-.7-.7v-5.6c0-.4.3-.7.7-.7s.7.3.7.7zm2.7 0c0 .4-.3.7-.7.7s-.7-.3-.7-.7v-5.6c0-.4.3-.7.7-.7s.7.3.7.7z" fill="#4d5969"/></svg>