<svg viewBox="0 0 14 9" xmlns="http://www.w3.org/2000/svg"><path d="M7 3.5c-.5 0-.9.4-.9.9s.4.9.9.9.9-.4.9-.9-.4-.9-.9-.9zm7 .9c0-.1 0-.1 0 0 0-.2-.1-.3-.1-.4-.4-.6-1-1.1-1.5-1.6-1.2-1-2.5-1.9-4-2.2C7.5 0 6.7-.1 5.8.1 5 .3 4.3.6 3.6 1c-1.1.6-2.1 1.5-3 2.4-.2.2-.3.4-.5.6-.1.2-.1.5 0 .8.4.6 1 1.1 1.5 1.6 1.2 1 2.5 1.9 4 2.2.8.2 1.7.2 2.6 0 .8-.1 1.5-.4 2.2-.8 1.1-.6 2.1-1.5 3-2.4.2-.2.3-.4.5-.6 0-.1.1-.2.1-.3v-.1zM7 7C5.6 7 4.4 5.8 4.4 4.4S5.6 1.7 7 1.7s2.6 1.2 2.6 2.6S8.5 7 7 7z" fill="#4d5969"/></svg>