<?xml version="1.0" encoding="UTF-8"?>
<svg width="14px" height="13px" viewBox="0 0 14 13" version="1.1" xmlns="http://www.w3.org/2000/svg" xmlns:xlink="http://www.w3.org/1999/xlink">
    <!-- Generator: Sketch 59 (86127) - https://sketch.com -->
    <title>HDL/Icon/Standard/pipelines</title>
    <desc>Created with Sketch.</desc>
    <g id="Colors" stroke="none" stroke-width="1" fill="none" fill-rule="evenodd">
        <g id="Main-Icons" transform="translate(-1122.000000, -644.000000)" fill="#4D5969">
            <g id="Pipelines" transform="translate(1100.000000, 627.000000)">
                <g id="HDL/Icon/Standard/pipelines" transform="translate(22.000000, 17.000000)">
                    <g id="icons8-piping" transform="translate(0.000000, -0.000000)">
                        <path d="M4.31141869,4.58823529 C4.09796722,4.58823529 3.94355527,4.58823529 3.92387543,4.23529412 L3.92387543,0 L0.823529412,0 L0.823529412,4.23529412 C0.823529412,5.46369494 1.76967983,7.41176471 4.31141869,7.41176471 L7.41176471,7.41176471 C7.41176471,6.46323529 7.41176471,5.54641553 7.41176471,4.58823529 L4.31141869,4.58823529 Z" id="Path"></path>
                        <path d="M0,0 L4.94117647,0 L4.94117647,1.37254902 L0,1.37254902 L0,0 Z M6.0247678,4.11764706 L7.41176471,4.11764706 L7.41176471,8.23529412 L6.0247678,8.23529412 L6.0247678,4.11764706 Z" id="Shape"></path>
                        <path d="M9.68858131,4.94117647 L6.58823529,4.94117647 C6.58823529,5.89935671 6.58823529,6.81617647 6.58823529,7.76470588 L9.68858131,7.76470588 C10.0761246,7.76470588 10.0761246,7.95220588 10.0761246,8.11764706 L10.0761246,12.3529412 L13.1764706,12.3529412 L13.1764706,8.11764706 C13.1764706,5.80284918 11.0374136,4.94117647 9.68858131,4.94117647 Z" id="Path"></path>
                        <path d="M9.05882353,10.9803922 L14,10.9803922 L14,12.3529412 L9.05882353,12.3529412 L9.05882353,10.9803922 Z M6.58823529,4.11764706 L7.9752322,4.11764706 L7.9752322,8.23529412 L6.58823529,8.23529412 L6.58823529,4.11764706 Z" id="Shape"></path>
                    </g>
                </g>
            </g>
        </g>
    </g>
</svg>