<?xml version="1.0" encoding="UTF-8"?>
<svg width="14px" height="14px" viewBox="0 0 14 14" version="1.1" xmlns="http://www.w3.org/2000/svg" xmlns:xlink="http://www.w3.org/1999/xlink">
    <!-- Generator: Sketch 59 (86127) - https://sketch.com -->
    <title>HDL/Icon/Standard/infrastructure_provisioners</title>
    <desc>Created with Sketch.</desc>
    <g id="Colors" stroke="none" stroke-width="1" fill="none" fill-rule="evenodd">
        <g id="Main-Icons" transform="translate(-121.000000, -1253.000000)" fill="#4D5969">
            <g id="Infrastructure-Provisioners" transform="translate(100.000000, 1235.000000)">
                <g id="HDL/Icon/Standard/infrastructure_provisioners" transform="translate(21.000000, 18.000000)">
                    <path d="M5.92307692,0 L7,0 C7.29723077,0 7.53846154,0.336 7.53846154,0.75 L7.53846154,2.25 C7.53846154,2.664 7.29723077,3 7,3 L5.92307692,3 C5.62584615,3 5.38461538,2.664 5.38461538,2.25 L5.38461538,0.75 C5.38461538,0.336 5.62584615,0 5.92307692,0 M5.92307692,11 L7,11 C7.29723077,11 7.53846154,11.336 7.53846154,11.75 L7.53846154,13.25 C7.53846154,13.664 7.29723077,14 7,14 L5.92307692,14 C5.62584615,14 5.38461538,13.664 5.38461538,13.25 L5.38461538,11.75 C5.38461538,11.336 5.62584615,11 5.92307692,11 M12.3846154,11 L13.4615385,11 C13.7587692,11 14,11.336 14,11.75 L14,13.25 C14,13.664 13.7587692,14 13.4615385,14 L12.3846154,14 C12.0873846,14 11.8461538,13.664 11.8461538,13.25 L11.8461538,11.75 C11.8461538,11.336 12.0873846,11 12.3846154,11 M0.538461538,11 L1.61538462,11 C1.91261538,11 2.15384615,11.336 2.15384615,11.75 L2.15384615,13.25 C2.15384615,13.664 1.91261538,14 1.61538462,14 L0.538461538,14 C0.241230769,14 0,13.664 0,13.25 L0,11.75 C0,11.336 0.241230769,11 0.538461538,11 M12.9230769,7.5 L12.9230769,11 L11.6068376,11 L11.6068376,8.2 L7.65811966,8.2 L7.65811966,11 L6.34188034,11 L6.34188034,8.2 L2.39316239,8.2 L2.39316239,11 L1.07692308,11 L1.07692308,7.5 C1.07692308,7.1136 1.37176068,6.8 1.73504274,6.8 L6.34188034,6.8 L6.34188034,4 L7.65811966,4 L7.65811966,6.8 L12.2649573,6.8 C12.6282393,6.8 12.9230769,7.1136 12.9230769,7.5" id="Infrastructure-Provisioners"></path>
                </g>
            </g>
        </g>
    </g>
</svg>