<?xml version="1.0" encoding="utf-8"?>
<!-- Generator: Adobe Illustrator 20.1.0, SVG Export Plug-In . SVG Version: 6.00 Build 0)  -->
<svg version="1.1" id="Layer_1" xmlns="http://www.w3.org/2000/svg" xmlns:xlink="http://www.w3.org/1999/xlink" x="0px" y="0px"
	 viewBox="0 0 14 14" style="enable-background:new 0 0 14 14;" xml:space="preserve">
<style type="text/css">
	.st0{fill:#4D5969;}
</style>
<title>HDL/Icon/Standard/info</title>
<desc>Created with Sketch.</desc>
<g id="Colors">
	<g id="Main-Icons" transform="translate(-1121.000000, -312.000000)">
		<g id="Info" transform="translate(1100.000000, 294.000000)">
			<g id="HDL_x2F_Icon_x2F_Standard_x2F_info" transform="translate(21.000000, 18.000000)">
				<path id="Combined-Shape-Copy" class="st0" d="M8.7,10c-0.3,1.1-3.3,1.2-3.1-0.3c0.1-1,0.3-2,0.5-3C6.2,6,5.8,6.3,5.5,6.1
					C5.2,6,5.2,5.7,5.5,5.7c0.4-0.1,1.7,0,2.2,0C7.9,5.6,8,5.8,8,6c0,0.2,0,0.4,0,0.6c-0.2,1-0.4,2-0.5,2.9c0,0.2,0,0.6,0.3,0.6
					c0.3,0,0.4-0.2,0.7-0.3C8.6,9.7,8.7,9.9,8.7,10z M7.2,3.1c0.6,0,1,0.5,1,1c0,0.6-0.5,1.1-1,1c-0.5,0-1-0.5-1-1S6.7,3.1,7.2,3.1z
					 M7,1.1C3.7,1.1,1.1,3.7,1.1,7c0,3.3,2.7,5.9,5.9,5.9c3.3,0,5.9-2.6,5.9-5.9C12.9,3.7,10.3,1.1,7,1.1z M7,0c3.9,0,7,3.1,7,7
					c0,3.9-3.1,7-7,7c-3.8,0-7-3.1-7-7C0,3.1,3.1,0,7,0z"/>
			</g>
		</g>
	</g>
</g>
</svg>
