<svg viewBox="0 0 14 14" xmlns="http://www.w3.org/2000/svg"><path d="M7 0c-.3 0-.6.3-.6.6V4l-.5-.5c-.1-.1-.3-.2-.4-.2-.3 0-.5.2-.6.4s0 .5.1.7l2 1.9 1.9-1.9c.2-.2.3-.4.2-.6 0-.3-.2-.4-.4-.5s-.4 0-.6.2l-.5.5V.6c0-.2-.1-.3-.2-.4S7.2 0 7 0zM.6 6.6c-.2 0-.4.1-.5.3s-.1.4 0 .6.3.3.5.3h12.8c.2 0 .4-.1.5-.3s.1-.4 0-.6-.3-.3-.5-.3zM7 8.2l-.4.3-.1.1L5 10c-.2.2-.2.4-.2.6s.2.4.4.4c.2.1.4 0 .6-.2l.5-.5v2.9c0 .2.1.4.3.5s.4.1.6 0 .3-.3.3-.5v-2.9l.6.7c.2.2.4.2.6.2s.4-.2.4-.4c.1-.2 0-.4-.2-.6L7.5 8.7l-.1-.1z" fill="#4d5969"/></svg>