<?xml version="1.0" encoding="utf-8"?>
<!-- Generator: Adobe Illustrator 20.1.0, SVG Export Plug-In . SVG Version: 6.00 Build 0)  -->
<svg version="1.1" id="Layer_1" xmlns="http://www.w3.org/2000/svg" xmlns:xlink="http://www.w3.org/1999/xlink" x="0px" y="0px"
	 viewBox="0 0 8 14" style="enable-background:new 0 0 8 14;" xml:space="preserve">
<style type="text/css">
	.st0{fill:#4D5969;}
</style>
<title>HDL/Icon/Standard/chevron_left</title>
<desc>Created with Sketch.</desc>
<g id="Colors">
	<g id="Main-Icons" transform="translate(-616.000000, -782.000000)">
		<g id="Chevron-Left" transform="translate(600.000000, 764.000000)">
			<g id="HDL_x2F_Icon_x2F_Standard_x2F_chevron_x5F_left" transform="translate(16.000000, 18.000000)">
				<path id="Path" class="st0" d="M2.4,7l5.3-5.3C7.9,1.5,8,1.3,8,1c0-0.6-0.4-1-1-1C6.7,0,6.5,0.1,6.3,0.3l-6,6C0.1,6.5,0,6.7,0,7
					s0.1,0.5,0.3,0.7l6,6C6.5,13.9,6.7,14,7,14c0.6,0,1-0.4,1-1c0-0.3-0.1-0.5-0.3-0.7L2.4,7z"/>
			</g>
		</g>
	</g>
</g>
</svg>
