<?xml version="1.0" encoding="UTF-8"?>
<svg width="14px" height="14px" viewBox="0 0 14 14" version="1.1" xmlns="http://www.w3.org/2000/svg" xmlns:xlink="http://www.w3.org/1999/xlink">
    <!-- Generator: Sketch 59 (86127) - https://sketch.com -->
    <title>HDL/Icon/Standard/delegates</title>
    <desc>Created with Sketch.</desc>
    <g id="Colors" stroke="none" stroke-width="1" fill="none" fill-rule="evenodd">
        <g id="Main-Icons" transform="translate(-1122.000000, -453.000000)" fill="#4D5969">
            <g id="Delegates" transform="translate(1100.000000, 436.000000)">
                <g id="HDL/Icon/Standard/delegates" transform="translate(22.000000, 17.000000)">
                    <path d="M6.97146739,0.00137483481 C6.95838987,0.00375240003 6.94531235,0.0073190522 6.93342391,0.0108857044 C6.79194965,0.0429849652 6.69208552,0.170192922 6.69565217,0.31523353 L6.69565217,6.5733857 L4.47961957,4.3573531 C4.40591017,4.28126614 4.29772426,4.24916688 4.19429348,4.27175527 C4.08016304,4.29196579 3.988621,4.37518605 3.95652174,4.48574983 C3.92442248,4.5975024 3.95771052,4.71638857 4.04211957,4.7948531 L6.78125,7.53398353 C6.83831522,7.59342631 6.91796883,7.62671466 7,7.62671466 C7.08203117,7.62671466 7.16168478,7.59342631 7.21875,7.53398353 L9.95788043,4.7948531 C10.0791442,4.67358936 10.0791442,4.47861683 9.95788043,4.3573531 C9.8366167,4.23608936 9.64164417,4.23608936 9.52038043,4.3573531 L7.30434783,6.5733857 L7.30434783,0.31523353 C7.30791448,0.227258139 7.27224857,0.142849096 7.20923913,0.0834060087 C7.14504061,0.0227741392 7.058254,-0.00694725215 6.97146739,0.00137483481 Z M2.33967391,1.53262483 C2.05553661,1.53262483 1.83440904,1.72640888 1.77853261,1.99865744 L1.76902174,1.99865744 L1.76902174,2.01767918 L0.0380434783,9.55028788 C0.015455087,9.61329731 0,9.6798734 0,9.75001614 L0,12.7934944 C0,13.1263748 0.275815217,13.4021901 0.608695652,13.4021901 L13.3913043,13.4021901 C13.7241848,13.4021901 14,13.1263748 14,12.7934944 L14,9.75001614 C14,9.6727404 13.9797895,9.59903101 13.9524457,9.53126614 L13.9524457,9.5122444 C13.9512569,9.50867775 13.9441236,9.50630018 13.9429348,9.50273353 L12.2309783,2.01767918 L12.2309783,1.99865744 L12.2214674,1.99865744 C12.165591,1.72640888 11.9444634,1.53262483 11.6603261,1.53262483 L8.2173913,1.53262483 L8.2173913,2.14132049 L11.6317935,2.14132049 L13.2296196,9.14132049 L0.751358696,9.14132049 L2.36820652,2.14132049 L5.7826087,2.14132049 L5.7826087,1.53262483 L2.33967391,1.53262483 Z M0.608695652,9.75001614 L13.3913043,9.75001614 L13.3913043,12.7934944 L0.608695652,12.7934944 L0.608695652,9.75001614 Z M11.5652174,10.6630596 C11.2287703,10.6630596 10.9565217,10.9353082 10.9565217,11.2717553 C10.9565217,11.6082024 11.2287703,11.8804509 11.5652174,11.8804509 C11.9016645,11.8804509 12.173913,11.6082024 12.173913,11.2717553 C12.173913,10.9353082 11.9016645,10.6630596 11.5652174,10.6630596 Z" id="Shape"></path>
                </g>
            </g>
        </g>
    </g>
</svg>