<?xml version="1.0" encoding="utf-8"?>
<!-- Generator: Adobe Illustrator 20.1.0, SVG Export Plug-In . SVG Version: 6.00 Build 0)  -->
<svg version="1.1" id="Layer_1" xmlns="http://www.w3.org/2000/svg" xmlns:xlink="http://www.w3.org/1999/xlink" x="0px" y="0px"
	 viewBox="0 0 14 12" style="enable-background:new 0 0 14 12;" xml:space="preserve">
<style type="text/css">
	.st0{fill:#4D5969;}
</style>
<title>HDL/Icon/Standard/filter</title>
<desc>Created with Sketch.</desc>
<g id="Colors">
	<g id="Main-Icons" transform="translate(-621.000000, -266.000000)">
		<g id="Filter" transform="translate(600.000000, 247.000000)">
			<g id="HDL_x2F_Icon_x2F_Standard_x2F_filter" transform="translate(21.000000, 19.000000)">
				<g id="Icon---Filter">
					<path id="path-1" class="st0" d="M8.2,9.6c0.6,0,1.2,0.5,1.2,1.2S8.8,12,8.2,12H5.8c-0.6,0-1.2-0.5-1.2-1.2s0.5-1.2,1.2-1.2
						H8.2z M10.5,4.8c0.6,0,1.2,0.5,1.2,1.2s-0.5,1.2-1.2,1.2h-7C2.9,7.2,2.3,6.7,2.3,6s0.5-1.2,1.2-1.2H10.5z M12.8,0
						C13.5,0,14,0.5,14,1.2s-0.5,1.2-1.2,1.2H1.2C0.5,2.4,0,1.9,0,1.2S0.5,0,1.2,0H12.8z"/>
				</g>
			</g>
		</g>
	</g>
</g>
</svg>
