<?xml version="1.0" encoding="UTF-8"?>
<svg width="14px" height="14px" viewBox="0 0 14 14" version="1.1" xmlns="http://www.w3.org/2000/svg" xmlns:xlink="http://www.w3.org/1999/xlink">
    <!-- Generator: Sketch 59 (86127) - https://sketch.com -->
    <title>HDL/Icon/Standard/notes</title>
    <desc>Created with Sketch.</desc>
    <g id="Colors" stroke="none" stroke-width="1" fill="none" fill-rule="evenodd">
        <g id="Main-Icons" transform="translate(-624.000000, -1439.000000)" fill="#4D5969">
            <g id="Notes" transform="translate(603.000000, 1422.000000)">
                <g id="HDL/Icon/Standard/notes" transform="translate(21.000000, 17.000000)">
                    <path d="M2.15384615,0 C0.967548077,0 0,0.967548077 0,2.15384615 L0,11.8461538 C0,13.0324519 0.967548077,14 2.15384615,14 L9.15384615,14 C9.72596154,14 10.5210339,13.1733775 11.4423077,12.2331731 C11.5706128,12.1027647 11.6968148,11.978666 11.8293269,11.8461538 C11.9618391,11.7136417 12.1027647,11.5706128 12.2331731,11.4423077 C13.1733775,10.5210339 14,9.72596154 14,9.15384615 L14,2.15384615 C14,0.967548077 13.0324519,0 11.8461538,0 L2.15384615,0 Z M2.15384615,1.07692308 L11.8461538,1.07692308 C12.4414064,1.07692308 12.9230769,1.55859362 12.9230769,2.15384615 L12.9230769,9.15384615 C12.9230769,9.69020446 12.3825122,9.69230769 11.8461538,9.69230769 L10.2307692,9.69230769 C9.93419485,9.69230769 9.69230769,9.93419485 9.69230769,10.2307692 L9.69230769,11.8798077 C9.69230769,12.3572718 9.69441092,12.8242186 9.30528846,12.9230769 L2.15384615,12.9230769 C1.55859362,12.9230769 1.07692308,12.4414064 1.07692308,11.8461538 L1.07692308,2.15384615 C1.07692308,1.55859362 1.55859362,1.07692308 2.15384615,1.07692308 Z M3.66826923,4.30769231 C3.37169485,4.33503592 3.15294485,4.60006023 3.18028846,4.89663462 C3.20763208,5.193209 3.47265638,5.411959 3.76923077,5.38461538 L10.2307692,5.38461538 C10.4242788,5.38671862 10.6051685,5.28575708 10.7040263,5.11748785 C10.8007814,4.94921862 10.8007814,4.74308908 10.7040263,4.57481985 C10.6051685,4.40655062 10.4242788,4.30558908 10.2307692,4.30769231 L3.76923077,4.30769231 C3.75240385,4.30769231 3.73557692,4.30769231 3.71875,4.30769231 C3.70192308,4.30769231 3.68509615,4.30769231 3.66826923,4.30769231 Z M3.66826923,7 C3.37169485,7.02734362 3.15294485,7.29236792 3.18028846,7.58894231 C3.20763208,7.88551669 3.47265638,8.10426669 3.76923077,8.07692308 L9.15384615,8.07692308 C9.34735577,8.07902631 9.52824546,7.97806477 9.62710323,7.80979554 C9.72385831,7.64152631 9.72385831,7.43539677 9.62710323,7.26712754 C9.52824546,7.09885831 9.34735577,6.99789677 9.15384615,7 L3.76923077,7 C3.75240385,7 3.73557692,7 3.71875,7 C3.70192308,7 3.68509615,7 3.66826923,7 Z" id="Shape"></path>
                </g>
            </g>
        </g>
    </g>
</svg>