<?xml version="1.0" encoding="UTF-8"?>
<svg width="14px" height="14px" viewBox="0 0 14 14" version="1.1" xmlns="http://www.w3.org/2000/svg" xmlns:xlink="http://www.w3.org/1999/xlink">
    <!-- Generator: Sketch 59 (86127) - https://sketch.com -->
    <title>HDL/Icon/Standard/baseline</title>
    <desc>Created with Sketch.</desc>
    <g id="Colors" stroke="none" stroke-width="1" fill="none" fill-rule="evenodd">
        <g id="Main-Icons" transform="translate(-623.000000, -1535.000000)" fill="#4D5969">
            <g id="Baseline" transform="translate(602.000000, 1517.000000)">
                <g id="HDL/Icon/Standard/baseline" transform="translate(21.000000, 18.000000)">
                    <path d="M6.99109455,6.45296916e-05 C6.65557114,0.00492689207 6.38746752,0.277665145 6.39205727,0.609457189 L6.39205727,3.96757465 L5.90997753,3.49086302 C5.79537595,3.37437018 5.63796415,3.30871799 5.47361266,3.30886707 C5.22633495,3.30916996 5.00387509,3.45753559 4.91093823,3.68413273 C4.81800137,3.91072987 4.87310315,4.17041399 5.05030882,4.34095959 L7,6.26894187 L8.94969118,4.34095959 C9.10851062,4.19017532 9.17248738,3.96626801 9.11694766,3.75559154 C9.06140794,3.54491507 8.89503051,3.38039019 8.6819818,3.32546889 C8.4689331,3.27054759 8.24250458,3.33381199 8.09002247,3.49086302 L7.60794273,3.96757465 L7.60794273,0.609457189 C7.61018913,0.4470632 7.54590209,0.290678013 7.42971245,0.175892686 C7.3135228,0.0611073596 7.15531487,-0.0023132365 6.99109455,6.45296916e-05 Z M0.616601347,6.62119195 C0.397355363,6.61812579 0.193423742,6.73203349 0.0828958896,6.91929756 C-0.0276319632,7.10656162 -0.0276319632,7.33816923 0.0828958896,7.5254333 C0.193423742,7.71269737 0.397355363,7.82660506 0.616601347,7.8235389 L13.3833987,7.8235389 C13.6026446,7.82660506 13.8065763,7.71269737 13.9171041,7.5254333 C14.027632,7.33816923 14.027632,7.10656162 13.9171041,6.91929756 C13.8065763,6.73203349 13.6026446,6.61812579 13.3833987,6.62119195 L0.616601347,6.62119195 Z M7,8.17578899 L6.63250348,8.53919354 C6.58837186,8.57229703 6.54902188,8.61120887 6.51554564,8.6548491 L5.05030882,10.1037713 C4.89148938,10.2545555 4.82751262,10.4784628 4.88305234,10.6891393 C4.93859206,10.8998158 5.10496949,11.0643407 5.3180182,11.119262 C5.5310669,11.1741833 5.75749542,11.1109189 5.90997753,10.9538678 L6.39205727,10.4771562 L6.39205727,13.3902643 C6.38895659,13.6070691 6.50414689,13.80873 6.69351956,13.9180271 C6.88289224,14.0273243 7.11710776,14.0273243 7.30648044,13.9180271 C7.49585311,13.80873 7.61104341,13.6070691 7.60794273,13.3902643 L7.60794273,10.4771562 L8.09002247,10.9538678 C8.24250458,11.1109189 8.4689331,11.1741833 8.6819818,11.119262 C8.89503051,11.0643407 9.06140794,10.8998158 9.11694766,10.6891393 C9.17248738,10.4784628 9.10851062,10.2545555 8.94969118,10.1037713 L7.48207974,8.65250062 C7.44988289,8.61107042 7.41236189,8.57396731 7.3704651,8.54212907 L7,8.17578899 Z" id="Shape"></path>
                </g>
            </g>
        </g>
    </g>
</svg>