<?xml version="1.0" encoding="utf-8"?>
<!-- Generator: Adobe Illustrator 20.1.0, SVG Export Plug-In . SVG Version: 6.00 Build 0)  -->
<svg version="1.1" id="Layer_1" xmlns="http://www.w3.org/2000/svg" xmlns:xlink="http://www.w3.org/1999/xlink" x="0px" y="0px"
	 viewBox="0 0 8 14" style="enable-background:new 0 0 8 14;" xml:space="preserve">
<style type="text/css">
	.st0{fill:#4D5969;}
</style>
<title>HDL/Icon/Standard/chevron_right</title>
<desc>Created with Sketch.</desc>
<g id="Colors">
	<g id="Main-Icons" transform="translate(-616.000000, -736.000000)">
		<g id="Cevron-Right" transform="translate(600.000000, 718.000000)">
			<g id="HDL_x2F_Icon_x2F_Standard_x2F_chevron_x5F_right" transform="translate(16.000000, 18.000000)">
				<path id="Path" class="st0" d="M7.7,6.3l-6-6C1.5,0.1,1.3,0,1,0C0.4,0,0,0.4,0,1c0,0.3,0.1,0.5,0.3,0.7L5.6,7l-5.3,5.3
					C0.1,12.5,0,12.7,0,13c0,0.6,0.4,1,1,1c0.3,0,0.5-0.1,0.7-0.3l6-6C7.9,7.5,8,7.3,8,7S7.9,6.5,7.7,6.3z"/>
			</g>
		</g>
	</g>
</g>
</svg>
