<?xml version="1.0" encoding="UTF-8"?>
<svg width="14px" height="14px" viewBox="0 0 14 14" version="1.1" xmlns="http://www.w3.org/2000/svg" xmlns:xlink="http://www.w3.org/1999/xlink">
    <!-- Generator: Sketch 59 (86127) - https://sketch.com -->
    <title>HDL/Icon/Standard/upload</title>
    <desc>Created with Sketch.</desc>
    <g id="Colors" stroke="none" stroke-width="1" fill="none" fill-rule="evenodd">
        <g id="Main-Icons" transform="translate(-1123.000000, -1111.000000)" fill="#4D5969">
            <g id="Upload" transform="translate(1100.000000, 1093.000000)">
                <g id="HDL/Icon/Standard/upload" transform="translate(23.000000, 18.000000)">
                    <path d="M7,0 C3.1325,0 0,3.1325 0,7 C0,10.8675 3.1325,14 7,14 C10.8675,14 14,10.8675 14,7 C14,3.1325 10.8675,0 7,0 Z M9.625,7 C9.38,7 9.16125,6.90375 9.00375,6.74625 L7.875,5.60875 L7.875,10.5 C7.875,10.98125 7.48125,11.375 7,11.375 C6.51875,11.375 6.125,10.98125 6.125,10.5 L6.125,5.60875 L4.99625,6.74625 C4.83875,6.90375 4.62,7 4.375,7 C3.89375,7 3.5,6.60625 3.5,6.125 C3.5,5.88 3.59625,5.66125 3.75375,5.50375 L6.37875,2.87875 C6.53625,2.72125 6.755,2.625 7,2.625 C7.245,2.625 7.46375,2.72125 7.62125,2.87875 L10.24625,5.50375 C10.40375,5.66125 10.5,5.88 10.5,6.125 C10.5,6.60625 10.10625,7 9.625,7 Z" id="Shape"></path>
                </g>
            </g>
        </g>
    </g>
</svg>