<svg viewBox="0 0 14 14" xmlns="http://www.w3.org/2000/svg"><path d="M13.3 5.6h-1.6c-.1-.3-.2-.6-.4-.9l1.2-1.2c.3-.3.3-.7 0-1l-1-1c-.3-.3-.7-.3-1 0L9.3 2.7c-.3-.1-.6-.3-.9-.4V.7c0-.4-.3-.7-.7-.7H6.3c-.4 0-.7.3-.7.7v1.6c-.3.1-.7.2-1 .4L3.5 1.6c-.3-.3-.7-.3-1 0l-1 1c-.3.3-.3.7 0 1l1.1 1.1c-.2.3-.3.6-.4 1H.7c-.4-.1-.7.2-.7.6v1.4c0 .4.3.7.7.7h1.6c.1.3.2.6.4.9l-1.2 1.2c-.3.3-.3.7 0 1l1 1c.3.3.7.3 1 0l1.2-1.2c.3.2.6.3.9.4v1.6c0 .4.3.7.7.7h1.4c.4 0 .7-.3.7-.7v-1.6c.3-.1.7-.2 1-.4l1.1 1.1c.3.3.7.3 1 0l1-1c.3-.3.3-.7 0-1l-1.1-1.1c.2-.3.3-.6.4-1h1.6c.4 0 .7-.3.7-.7V6.3c-.1-.4-.4-.7-.8-.7zM7 9.8C5.5 9.8 4.2 8.5 4.2 7S5.5 4.2 7 4.2 9.8 5.5 9.8 7 8.5 9.8 7 9.8z" fill="#4d5969"/></svg>