<?xml version="1.0" encoding="utf-8"?>
<!-- Generator: Adobe Illustrator 20.1.0, SVG Export Plug-In . SVG Version: 6.00 Build 0)  -->
<svg version="1.1" id="Layer_1" xmlns="http://www.w3.org/2000/svg" xmlns:xlink="http://www.w3.org/1999/xlink" x="0px" y="0px"
	 viewBox="0 0 14 12" style="enable-background:new 0 0 14 12;" xml:space="preserve">
<style type="text/css">
	.st0{fill:#4D5969;}
</style>
<title>HDL/Icon/Standard/destroy</title>
<desc>Created with Sketch.</desc>
<g id="Colors">
	<g id="Main-Icons" transform="translate(-624.000000, -1489.000000)">
		<g id="Destroy" transform="translate(603.000000, 1473.000000)">
			<g id="HDL_x2F_Icon_x2F_Standard_x2F_destroy" transform="translate(21.000000, 16.000000)">
				<path id="Shape" class="st0" d="M12.4,0c-0.4,0-0.8,0.2-1.1,0.4L9.5,2.2L8.9,1.6C8.8,1.5,8.6,1.4,8.5,1.4C8.3,1.4,8.1,1.6,8,1.7
					s0,0.4,0.1,0.5l0.9,0.9c0,0.1,0.1,0.1,0.1,0.1l0.9,0.9c0.1,0.1,0.3,0.2,0.5,0.1c0.2,0,0.3-0.2,0.4-0.3c0-0.2,0-0.3-0.1-0.5
					l-0.6-0.6L12,1.1C12.1,1,12.3,1,12.4,1C12.8,1,13,1.2,13,1.5c0,0.4-0.2,0.7-0.5,1.3S12,4.1,12,5.3v2.9c0,0.2,0.1,0.3,0.2,0.4
					c0.2,0.1,0.3,0.1,0.5,0C12.9,8.5,13,8.3,13,8.2V5.3c0-1,0.2-1.6,0.5-2.1s0.5-1,0.5-1.7c0-0.7-0.5-1.2-1.2-1.4
					C12.7,0.1,12.6,0,12.4,0z M5.2,1.9C2.4,1.9,0,4.2,0,7s2.4,5,5.2,5s5.2-2.3,5.2-5c0-0.4-0.1-0.8-0.1-1.1L6.4,2.1
					C6.1,2,5.7,1.9,5.2,1.9z M11.7,9.4c-0.2,0-0.4,0.1-0.5,0.3s0,0.4,0.1,0.5l0.4,0.4l-0.4,0.4c-0.1,0.1-0.2,0.3-0.1,0.5
					c0,0.2,0.2,0.3,0.4,0.3c0.2,0,0.4,0,0.5-0.1l0.4-0.4l0.4,0.4c0.1,0.1,0.3,0.2,0.5,0.1c0.2,0,0.3-0.2,0.4-0.3
					c0-0.2,0-0.3-0.1-0.5l-0.4-0.4l0.4-0.4c0.1-0.1,0.2-0.3,0.1-0.5c-0.1-0.2-0.3-0.3-0.5-0.3c-0.1,0-0.3,0.1-0.3,0.1l-0.4,0.4
					l-0.4-0.4C12,9.4,11.9,9.4,11.7,9.4z"/>
			</g>
		</g>
	</g>
</g>
</svg>
