<svg viewBox="0 0 14 14" xmlns="http://www.w3.org/2000/svg"><path d="M2.2 0C1 0 0 1 0 2.2v9.7C0 13 1 14 2.2 14h7c.6 0 1.4-.8 2.3-1.8l.4-.4.4-.4c.9-.9 1.8-1.7 1.8-2.3v-7C14 1 13 0 11.8 0zm0 1.1h9.7c.6 0 1.1.5 1.1 1.1v7c0 .5-.5.5-1.1.5h-1.6c-.3 0-.5.2-.5.5v1.6c0 .5 0 .9-.4 1H2.2c-.6 0-1.1-.5-1.1-1.1V2.2c0-.6.5-1.1 1.1-1.1zm1.5 3.2c-.3 0-.5.3-.5.6s.3.5.6.5h6.5c.2 0 .4-.1.5-.3s.1-.4 0-.5c-.1-.2-.3-.3-.5-.3H3.8zm0 2.7c-.3 0-.5.3-.5.6s.3.5.6.5h5.4c.2 0 .4-.1.5-.3s.1-.4 0-.5c-.2-.2-.4-.3-.5-.3H3.8z" fill="#4d5969"/></svg>