<?xml version="1.0" encoding="utf-8"?>
<!-- Generator: Adobe Illustrator 20.1.0, SVG Export Plug-In . SVG Version: 6.00 Build 0)  -->
<svg version="1.1" id="Layer_1" xmlns="http://www.w3.org/2000/svg" xmlns:xlink="http://www.w3.org/1999/xlink" x="0px" y="0px"
	 viewBox="0 0 14 14" style="enable-background:new 0 0 14 14;" xml:space="preserve">
<style type="text/css">
	.st0{fill:#4D5969;}
</style>
<title>HDL/Icon/Standard/infrastructure_provisioners</title>
<desc>Created with Sketch.</desc>
<g id="Colors">
	<g id="Main-Icons" transform="translate(-121.000000, -1253.000000)">
		<g id="Infrastructure-Provisioners_1_" transform="translate(100.000000, 1235.000000)">
			<g id="HDL_x2F_Icon_x2F_Standard_x2F_infrastructure_x5F_provisioners" transform="translate(21.000000, 18.000000)">
				<path id="Infrastructure-Provisioners" class="st0" d="M5.9,0H7c0.3,0,0.5,0.3,0.5,0.8v1.5C7.5,2.7,7.3,3,7,3H5.9
					C5.6,3,5.4,2.7,5.4,2.2V0.8C5.4,0.3,5.6,0,5.9,0 M5.9,11H7c0.3,0,0.5,0.3,0.5,0.8v1.5C7.5,13.7,7.3,14,7,14H5.9
					c-0.3,0-0.5-0.3-0.5-0.8v-1.5C5.4,11.3,5.6,11,5.9,11 M12.4,11h1.1c0.3,0,0.5,0.3,0.5,0.8v1.5c0,0.4-0.2,0.8-0.5,0.8h-1.1
					c-0.3,0-0.5-0.3-0.5-0.8v-1.5C11.8,11.3,12.1,11,12.4,11 M0.5,11h1.1c0.3,0,0.5,0.3,0.5,0.8v1.5c0,0.4-0.2,0.8-0.5,0.8H0.5
					C0.2,14,0,13.7,0,13.2v-1.5C0,11.3,0.2,11,0.5,11 M12.9,7.5V11h-1.3V8.2H7.7V11H6.3V8.2H2.4V11H1.1V7.5c0-0.4,0.3-0.7,0.7-0.7
					h4.6V4h1.3v2.8h4.6C12.6,6.8,12.9,7.1,12.9,7.5"/>
			</g>
		</g>
	</g>
</g>
</svg>
