<?xml version="1.0" encoding="utf-8"?>
<!-- Generator: Adobe Illustrator 20.1.0, SVG Export Plug-In . SVG Version: 6.00 Build 0)  -->
<svg version="1.1" id="Layer_1" xmlns="http://www.w3.org/2000/svg" xmlns:xlink="http://www.w3.org/1999/xlink" x="0px" y="0px"
	 viewBox="0 0 14 8" style="enable-background:new 0 0 14 8;" xml:space="preserve">
<style type="text/css">
	.st0{fill:#4D5969;}
</style>
<title>HDL/Icon/Standard/chevron_up</title>
<desc>Created with Sketch.</desc>
<g id="Colors">
	<g id="Main-Icons" transform="translate(-622.000000, -835.000000)">
		<g id="Chevron-Up" transform="translate(601.000000, 825.000000)">
			<g id="HDL_x2F_Icon_x2F_Standard_x2F_chevron_x5F_up" transform="translate(21.000000, 10.000000)">
				<path id="Path" class="st0" d="M13.7,6.3l-6-6C7.5,0.1,7.3,0,7,0S6.5,0.1,6.3,0.3l-6,6C0.1,6.5,0,6.7,0,7c0,0.6,0.4,1,1,1
					c0.3,0,0.5-0.1,0.7-0.3L7,2.4l5.3,5.3C12.5,7.9,12.7,8,13,8c0.6,0,1-0.4,1-1C14,6.7,13.9,6.5,13.7,6.3z"/>
			</g>
		</g>
	</g>
</g>
</svg>
