<?xml version="1.0" encoding="utf-8"?>
<!-- Generator: Adobe Illustrator 20.1.0, SVG Export Plug-In . SVG Version: 6.00 Build 0)  -->
<svg version="1.1" id="Layer_1" xmlns="http://www.w3.org/2000/svg" xmlns:xlink="http://www.w3.org/1999/xlink" x="0px" y="0px"
	 viewBox="0 0 14 14" style="enable-background:new 0 0 14 14;" xml:space="preserve">
<style type="text/css">
	.st0{fill:#4D5969;}
</style>
<title>HDL/Icon/Standard/help</title>
<desc>Created with Sketch.</desc>
<g id="Colors">
	<g id="Main-Icons" transform="translate(-1121.000000, -782.000000)">
		<g id="Triggers" transform="translate(1100.000000, 764.000000)">
			<g id="HDL_x2F_Icon_x2F_Standard_x2F_help" transform="translate(21.000000, 18.000000)">
				<path id="Shape" class="st0" d="M2.9,0C2.6,0,2.3,0.3,2.3,0.6v0.6H0.6C0.3,1.2,0,1.4,0,1.8v11.7C0,13.7,0.3,14,0.6,14h12.2
					c0.3,0,0.6-0.3,0.6-0.6v-2.3c0-0.1-0.1-0.2-0.1-0.3c-0.1-0.1-0.2-0.1-0.3,0c-0.1,0.1-0.1,0.1-0.1,0.3v2.3H0.6V4.7h12.2v2
					c0,0.1,0.1,0.2,0.1,0.3C13.1,7,13.2,7,13.3,7c0.1-0.1,0.1-0.1,0.1-0.3v-5c0-0.3-0.3-0.6-0.6-0.6h-1.8V0.6c0-0.3-0.3-0.6-0.6-0.6
					H9.9C9.6,0,9.3,0.3,9.3,0.6v0.6H4.1V0.6C4.1,0.3,3.8,0,3.5,0H2.9z M2.9,0.6h0.6v1.8H2.9V1.5c0,0,0-0.1,0-0.1V0.6z M9.9,0.6h0.6
					v0.8c0,0,0,0.1,0,0.1v0.8H9.9V0.6z M0.6,1.8h1.8v0.6c0,0.3,0.3,0.6,0.6,0.6h0.6c0.3,0,0.6-0.3,0.6-0.6V1.8h5.2v0.6
					c0,0.3,0.3,0.6,0.6,0.6h0.6c0.3,0,0.6-0.3,0.6-0.6V1.8h1.8v2.3H0.6V1.8z M11.3,6.5c-0.1,0-0.2,0.1-0.3,0.2
					c-0.1,0.1,0,0.2,0.1,0.3l1.3,1.4H7.3C7.2,8.5,7.1,8.5,7,8.6C7,8.7,7,8.8,7,8.9C7.1,9,7.2,9,7.3,9h5.2l-1.4,1.5
					c-0.1,0.1-0.1,0.3,0,0.4c0.1,0.1,0.3,0.1,0.4,0l2-2.1l-2-2.1C11.4,6.6,11.3,6.5,11.3,6.5z"/>
			</g>
		</g>
	</g>
</g>
</svg>
