<?xml version="1.0" encoding="utf-8"?>
<!-- Generator: Adobe Illustrator 20.1.0, SVG Export Plug-In . SVG Version: 6.00 Build 0)  -->
<svg version="1.1" id="Layer_1" xmlns="http://www.w3.org/2000/svg" xmlns:xlink="http://www.w3.org/1999/xlink" x="0px" y="0px"
	 viewBox="0 0 14 14" style="enable-background:new 0 0 14 14;" xml:space="preserve">
<style type="text/css">
	.st0{fill:#4D5969;}
</style>
<title>HDL/Icon/Standard/delegates</title>
<desc>Created with Sketch.</desc>
<g id="Colors">
	<g id="Main-Icons" transform="translate(-1122.000000, -453.000000)">
		<g id="Delegates" transform="translate(1100.000000, 436.000000)">
			<g id="HDL_x2F_Icon_x2F_Standard_x2F_delegates" transform="translate(22.000000, 17.000000)">
				<path id="Shape" class="st0" d="M7,0C7,0,6.9,0,7,0C6.8,0,6.7,0.2,6.7,0.3v6.3L4.5,4.4C4.4,4.3,4.3,4.2,4.2,4.3
					C4.1,4.3,4,4.4,4,4.5c0,0.1,0,0.2,0.1,0.3l2.7,2.7C6.8,7.6,6.9,7.6,7,7.6s0.2,0,0.2-0.1L10,4.8c0.1-0.1,0.1-0.3,0-0.4
					c-0.1-0.1-0.3-0.1-0.4,0L7.3,6.6V0.3c0-0.1,0-0.2-0.1-0.2C7.1,0,7.1,0,7,0z M2.3,1.5C2.1,1.5,1.8,1.7,1.8,2h0v0L0,9.6
					c0,0.1,0,0.1,0,0.2v3c0,0.3,0.3,0.6,0.6,0.6h12.8c0.3,0,0.6-0.3,0.6-0.6v-3c0-0.1,0-0.2,0-0.2v0c0,0,0,0,0,0L12.2,2v0h0
					c-0.1-0.3-0.3-0.5-0.6-0.5H8.2v0.6h3.4l1.6,7H0.8l1.6-7h3.4V1.5H2.3z M0.6,9.8h12.8v3H0.6V9.8z M11.6,10.7
					c-0.3,0-0.6,0.3-0.6,0.6s0.3,0.6,0.6,0.6c0.3,0,0.6-0.3,0.6-0.6S11.9,10.7,11.6,10.7z"/>
			</g>
		</g>
	</g>
</g>
</svg>
