<?xml version="1.0" encoding="utf-8"?>
<!-- Generator: Adobe Illustrator 20.1.0, SVG Export Plug-In . SVG Version: 6.00 Build 0)  -->
<svg version="1.1" id="Layer_1" xmlns="http://www.w3.org/2000/svg" xmlns:xlink="http://www.w3.org/1999/xlink" x="0px" y="0px"
	 viewBox="0 0 14 14" style="enable-background:new 0 0 14 14;" xml:space="preserve">
<style type="text/css">
	.st0{fill:#4D5969;}
</style>
<title>HDL/Icon/Standard/dashboard</title>
<desc>Created with Sketch.</desc>
<g id="Colors">
	<g id="Main-Icons" transform="translate(-1121.000000, -1299.000000)">
		<g id="dashboard" transform="translate(1100.000000, 1281.000000)">
			<g id="HDL_x2F_Icon_x2F_Standard_x2F_dashboard" transform="translate(21.000000, 18.000000)">
				<path class="st0" d="M4.4,3.5c-0.5,0-0.9,0.4-0.9,0.9s0.4,0.9,0.9,0.9s0.9-0.4,0.9-0.9S4.9,3.5,4.4,3.5z M3.5,6.1
					C3,6.1,2.6,6.5,2.6,7S3,7.9,3.5,7.9S4.4,7.5,4.4,7S4,6.1,3.5,6.1z M7,4.4c0.5,0,0.9-0.4,0.9-0.9S7.5,2.6,7,2.6S6.1,3,6.1,3.5
					S6.5,4.4,7,4.4z M5.2,9.6c0,1,0.8,1.8,1.8,1.8s1.8-0.8,1.8-1.8C8.8,9.2,7,5.2,7,5.2S5.2,9.2,5.2,9.6z M7,0C3.1,0,0,3.1,0,7
					s3.1,7,7,7s7-3.1,7-7S10.9,0,7,0z M7,12.2c-2.9,0-5.2-2.4-5.2-5.2S4.1,1.8,7,1.8s5.2,2.4,5.2,5.2S9.9,12.2,7,12.2z M10.5,4.4
					c0-0.5-0.4-0.9-0.9-0.9S8.8,3.9,8.8,4.4s0.4,0.9,0.9,0.9S10.5,4.9,10.5,4.4z M10.5,6.1C10,6.1,9.6,6.5,9.6,7s0.4,0.9,0.9,0.9
					s0.9-0.4,0.9-0.9S11,6.1,10.5,6.1z"/>
			</g>
		</g>
	</g>
</g>
</svg>
