<?xml version="1.0" encoding="UTF-8"?>
<svg width="14px" height="14px" viewBox="0 0 14 14" version="1.1" xmlns="http://www.w3.org/2000/svg" xmlns:xlink="http://www.w3.org/1999/xlink">
    <!-- Generator: Sketch 59 (86127) - https://sketch.com -->
    <title>HDL/Icon/Standard/workflows</title>
    <desc>Created with Sketch.</desc>
    <g id="Colors" stroke="none" stroke-width="1" fill="none" fill-rule="evenodd">
        <g id="Main-Icons" transform="translate(-1123.000000, -828.000000)" fill="#4D5969">
            <g id="Workflows" transform="translate(1100.000000, 811.000000)">
                <g id="HDL/Icon/Standard/workflows" transform="translate(23.000000, 17.000000)">
                    <path d="M10.4518664,0 L7.48133595,2.97637795 L5.4459725,2.97637795 C5.19842829,1.73622047 4.07072692,0.771653543 2.75049116,0.771653543 C1.23772102,0.771653543 0,2.01181102 0,3.52755906 C0,4.8503937 0.962671906,5.98031496 2.20039293,6.22834646 L2.20039293,8.48818898 L0,8.48818898 L0,14 L5.50098232,14 L5.50098232,8.48818898 L3.30058939,8.48818898 L3.30058939,6.22834646 C4.37328094,6.00787402 5.2259332,5.15354331 5.4459725,4.07874016 L7.42632613,4.07874016 L9.90176817,6.55905512 L9.90176817,8.54330709 C8.66404715,8.79133858 7.70137525,9.92125984 7.70137525,11.2440945 C7.70137525,12.7598425 8.93909627,14 10.4518664,14 C11.9646365,14 13.2023576,12.7598425 13.2023576,11.2440945 C13.2023576,9.92125984 12.2396857,8.79133858 11.0019646,8.54330709 L11.0019646,6.55905512 L14,3.55511811 L10.4518664,0 Z M10.4518664,1.57086614 L12.43222,3.55511811 L10.4518664,5.53937008 L8.47151277,3.55511811 L10.4518664,1.57086614 Z M2.75049116,1.87401575 C3.65815324,1.87401575 4.40078585,2.61811024 4.40078585,3.52755906 C4.40078585,4.43700787 3.65815324,5.18110236 2.75049116,5.18110236 C1.84282908,5.18110236 1.10019646,4.43700787 1.10019646,3.52755906 C1.10019646,2.61811024 1.84282908,1.87401575 2.75049116,1.87401575 Z M1.10019646,9.59055118 L4.40078585,9.59055118 L4.40078585,12.8976378 L1.10019646,12.8976378 L1.10019646,9.59055118 Z M10.4518664,9.59055118 C11.3595285,9.59055118 12.1021611,10.3346457 12.1021611,11.2440945 C12.1021611,12.1535433 11.3595285,12.8976378 10.4518664,12.8976378 C9.54420432,12.8976378 8.80157171,12.1535433 8.80157171,11.2440945 C8.80157171,10.3346457 9.54420432,9.59055118 10.4518664,9.59055118 Z" id="Shape"></path>
                </g>
            </g>
        </g>
    </g>
</svg>