<svg viewBox="0 0 13 13" xmlns="http://www.w3.org/2000/svg"><path d="M10.2 0c-.2 0-.4 0-.7.1-1 .3-1.9 1.3-2 2.4-.1.6 0 1.1.2 1.6L.9 11.2c-.4.4-.4 1.1 0 1.5s1 .4 1.4 0l3.9-4 3.7 3.9c.5.6 1.4.6 1.9 0s.5-1.4 0-2L8 6.7l1-1.1c.5.2 1 .3 1.5.2 1.1-.2 2-1 2.3-2.2.1-.5.1-.9 0-1.3-.1-.3-.4-.4-.6-.2l-.7.8c-.4.4-1 .4-1.4 0s-.4-1.1 0-1.5l.9-.7c.2-.2.1-.6-.2-.6-.2-.1-.4-.1-.6-.1zm-9 .2C1 .2.9.3.8.4L.2 1c-.2.3-.3.7-.1 1l.7 1c.2.4.7.6 1.1.6h.4l1.9 2 1-1-1.9-2v-.4c0-.4-.3-.9-.6-1.2l-1-.7C1.5.2 1.4.2 1.2.2z" fill="#4d5969"/></svg>