<svg enable-background="new 0 0 14 14" viewBox="0 0 14 14" xmlns="http://www.w3.org/2000/svg"><path d="m8.7 10c-.3 1.1-3.3 1.2-3.1-.3.1-1 .3-2 .5-3 .1-.7-.3-.4-.6-.6-.3-.1-.3-.4 0-.4.4-.1 1.7 0 2.2 0 .2-.1.3.1.3.3v.6c-.2 1-.4 2-.5 2.9 0 .2 0 .6.3.6s.4-.2.7-.3c.1-.1.2.1.2.2zm-1.5-6.9c.6 0 1 .5 1 1 0 .6-.5 1.1-1 1-.5 0-1-.5-1-1s.5-1 1-1zm-.2-2c-3.3 0-5.9 2.6-5.9 5.9s2.7 5.9 5.9 5.9c3.3 0 5.9-2.6 5.9-5.9s-2.6-5.9-5.9-5.9zm0-1.1c3.9 0 7 3.1 7 7s-3.1 7-7 7c-3.8 0-7-3.1-7-7s3.1-7 7-7z" fill="#4d5969"/></svg>