<?xml version="1.0" encoding="utf-8"?>
<!-- Generator: Adobe Illustrator 20.1.0, SVG Export Plug-In . SVG Version: 6.00 Build 0)  -->
<svg version="1.1" id="Layer_1" xmlns="http://www.w3.org/2000/svg" xmlns:xlink="http://www.w3.org/1999/xlink" x="0px" y="0px"
	 viewBox="0 0 14 14" style="enable-background:new 0 0 14 14;" xml:space="preserve">
<style type="text/css">
	.st0{fill:#4D5969;}
</style>
<title>HDL/Icon/Standard/setup</title>
<desc>Created with Sketch.</desc>
<g id="Colors">
	<g id="Main-Icons" transform="translate(-122.000000, -595.000000)">
		<g id="Setup" transform="translate(101.000000, 577.000000)">
			<g id="HDL_x2F_Icon_x2F_Standard_x2F_setup" transform="translate(21.000000, 18.000000)">
				<path id="Shape" class="st0" d="M13.3,5.6h-1.6c-0.1-0.3-0.2-0.6-0.4-0.9l1.2-1.2c0.3-0.3,0.3-0.7,0-1l-1-1
					c-0.3-0.3-0.7-0.3-1,0L9.3,2.7C9,2.6,8.7,2.4,8.4,2.3V0.7C8.4,0.3,8.1,0,7.7,0H6.3C5.9,0,5.6,0.3,5.6,0.7v1.6
					c-0.3,0.1-0.7,0.2-1,0.4L3.5,1.6c-0.3-0.3-0.7-0.3-1,0l-1,1c-0.3,0.3-0.3,0.7,0,1l1.1,1.1c-0.2,0.3-0.3,0.6-0.4,1H0.7
					C0.3,5.6,0,5.9,0,6.3v1.4c0,0.4,0.3,0.7,0.7,0.7h1.6C2.4,8.7,2.5,9,2.7,9.3l-1.2,1.2c-0.3,0.3-0.3,0.7,0,1l1,1
					c0.3,0.3,0.7,0.3,1,0l1.2-1.2c0.3,0.2,0.6,0.3,0.9,0.4v1.6c0,0.4,0.3,0.7,0.7,0.7h1.4c0.4,0,0.7-0.3,0.7-0.7v-1.6
					c0.3-0.1,0.7-0.2,1-0.4l1.1,1.1c0.3,0.3,0.7,0.3,1,0l1-1c0.3-0.3,0.3-0.7,0-1l-1.1-1.1c0.2-0.3,0.3-0.6,0.4-1h1.6
					c0.4,0,0.7-0.3,0.7-0.7V6.3C14,5.9,13.7,5.6,13.3,5.6z M7,9.8C5.5,9.8,4.2,8.5,4.2,7S5.5,4.2,7,4.2S9.8,5.5,9.8,7S8.5,9.8,7,9.8
					z"/>
			</g>
		</g>
	</g>
</g>
</svg>
