<?xml version="1.0" encoding="UTF-8"?>
<svg width="14px" height="13px" viewBox="0 0 14 13" version="1.1" xmlns="http://www.w3.org/2000/svg" xmlns:xlink="http://www.w3.org/1999/xlink">
    <!-- Generator: Sketch 59 (86127) - https://sketch.com -->
    <title>HDL/Icon/Standard/thumbsup</title>
    <desc>Created with Sketch.</desc>
    <g id="Colors" stroke="none" stroke-width="1" fill="none" fill-rule="evenodd">
        <g id="Main-Icons" transform="translate(-1123.000000, -1018.000000)" fill="#4D5969">
            <g id="Thumbs-Up" transform="translate(1100.000000, 1002.000000)">
                <g id="HDL/Icon/Standard/thumbsdown" transform="translate(23.000000, 16.000000)">
                    <path d="M13.99125,7.54867198 C13.92125,7.04117198 13.3525,6.70867198 12.74,6.62992198 C12.60875,6.61242198 12.46,6.59492198 12.31125,6.58617198 C12.36375,6.57742198 12.4075,6.57742198 12.45125,6.56867198 C13.0725,6.49867198 13.5275,6.15742198 13.4575,5.64992198 C13.3875,5.14242198 12.81875,4.80992198 12.20625,4.73117198 C11.90875,4.69617198 11.57625,4.66992198 11.2175,4.65242198 L11.2175,4.65242198 C11.2175,4.65242198 11.2175,4.65242198 11.20875,4.65242198 C10.99875,4.64367198 10.78,4.63492198 10.5525,4.63492198 C10.1325,4.61742198 9.58125,4.59992198 9.16125,4.56492198 C8.84625,4.53867198 8.8025,4.31992198 8.8375,4.10117198 C9.14375,3.31367198 9.31,2.42992198 9.275,1.55492198 C9.24,0.81117198 8.75,0.0849219805 8.04125,0.00617198048 C7.455,-0.0550780195 7.02625,0.34742198 7.175,0.86367198 C7.665,2.55242198 5.36375,4.55617198 3.5,5.68492198 L3.5,10.934922 C4.9525,11.836172 7.30625,12.299922 10.045,12.247422 C10.21125,12.247422 10.38625,12.238672 10.5875,12.229922 C10.61375,12.229922 10.64,12.229922 10.66625,12.229922 L10.66625,12.229922 C10.85875,12.221172 11.06875,12.203672 11.305,12.186172 C11.92625,12.133672 12.6525,11.739922 12.6175,11.232422 C12.59125,10.786172 12.2675,10.541172 11.85625,10.418672 C12.0925,10.401172 12.32875,10.383672 12.5475,10.366172 C13.16875,10.313672 13.6325,9.97242198 13.57125,9.45617198 C13.51875,8.94867198 12.95875,8.60742198 12.3375,8.51992198 C12.32,8.51992198 12.29375,8.51117198 12.27625,8.51117198 C12.53,8.49367198 12.775,8.48492198 12.985,8.46742198 C13.60625,8.44117198 14.06125,8.05617198 13.99125,7.54867198 Z M1.75,5.25617198 L3.19744231e-14,5.25617198 L3.19744231e-14,11.381172 L1.75,11.381172 C2.23125,11.381172 2.625,10.987422 2.625,10.506172 L2.625,6.13117198 C2.625,5.64117198 2.23125,5.25617198 1.75,5.25617198 Z" id="Shape"></path>
                </g>
            </g>
        </g>
    </g>
</svg>