<?xml version="1.0" encoding="utf-8"?>
<!-- Generator: Adobe Illustrator 20.1.0, SVG Export Plug-In . SVG Version: 6.00 Build 0)  -->
<svg version="1.1" id="Layer_1" xmlns="http://www.w3.org/2000/svg" xmlns:xlink="http://www.w3.org/1999/xlink" x="0px" y="0px"
	 viewBox="0 0 14 8" style="enable-background:new 0 0 14 8;" xml:space="preserve">
<style type="text/css">
	.st0{fill:#4D5969;}
</style>
<title>HDL/Icon/Standard/chevron_down</title>
<desc>Created with Sketch.</desc>
<g id="Colors">
	<g id="Main-Icons" transform="translate(-622.000000, -882.000000)">
		<g id="Chevron-Down" transform="translate(601.000000, 872.000000)">
			<g id="HDL_x2F_Icon_x2F_Standard_x2F_chevron_x5F_down" transform="translate(21.000000, 10.000000)">
				<path id="Path" class="st0" d="M13,0c-0.3,0-0.5,0.1-0.7,0.3L7,5.6L1.7,0.3C1.5,0.1,1.3,0,1,0C0.4,0,0,0.4,0,1
					c0,0.3,0.1,0.5,0.3,0.7l6,6C6.5,7.9,6.7,8,7,8s0.5-0.1,0.7-0.3l6-6C13.9,1.5,14,1.3,14,1C14,0.4,13.6,0,13,0z"/>
			</g>
		</g>
	</g>
</g>
</svg>
