<?xml version="1.0" encoding="UTF-8"?>
<svg version="1.1" viewBox="0 0 14 11" xmlns="http://www.w3.org/2000/svg">
<title>HDL/Icon/Standard/resume</title>
<desc>Created with Sketch.</desc>
<g fill="none" fill-rule="evenodd">
<g transform="translate(-1196 -316)" fill="#4D5969">
<g transform="translate(1172 210)">
<g transform="translate(0 93)">
<g transform="translate(24 13)">
<path d="m6.5702-2.3981e-14c0.12833 0 0.24316 0.051579 0.34447 0.11789l0.0067544-0.0073684 6.7544 4.4211c0.18912 0.13263 0.32421 0.36105 0.32421 0.62632 0 0.26526-0.13509 0.49368-0.33096 0.61895l0.0067544 0.0073684-6.7544 4.4211-0.0067544-0.0073685c-0.10132 0.066316-0.21614 0.11789-0.34447 0.11789-0.37149 0-0.67544-0.33158-0.67544-0.73684v-8.8421c0-0.40526 0.30395-0.73684 0.67544-0.73684zm-3.6228 0c0.40526 0 0.73684 0.33158 0.73684 0.73684v8.8421c0 0.40526-0.33158 0.73684-0.73684 0.73684h-2.2105c-0.40526 0-0.73684-0.33158-0.73684-0.73684v-8.8421c0-0.40526 0.33158-0.73684 0.73684-0.73684z"/>
</g>
</g>
</g>
</g>
</g>
</svg>
