<svg enable-background="new 0 0 14 14" viewBox="0 0 14 14" xmlns="http://www.w3.org/2000/svg"><path d="m2.2 0c-1.2 0-2.2 1-2.2 2.2v9.7c0 1.1 1 2.1 2.2 2.1h7c.6 0 1.4-.8 2.3-1.8l.4-.4s.3-.3.4-.4c.9-.9 1.8-1.7 1.8-2.3v-7c-.1-1.1-1.1-2.1-2.3-2.1zm0 1.1h9.7c.6 0 1.1.5 1.1 1.1v7c0 .5-.5.5-1.1.5h-1.6c-.3 0-.5.2-.5.5v1.6c0 .5 0 .9-.4 1h-7.2c-.6 0-1.1-.5-1.1-1.1v-9.5c0-.6.5-1.1 1.1-1.1zm1.5 3.2c-.3 0-.5.3-.5.6s.3.5.6.5h6.5c.2 0 .4-.1.5-.3s.1-.4 0-.5c-.1-.2-.3-.3-.5-.3h-6.5zm0 2.7c-.3 0-.5.3-.5.6s.3.5.6.5h5.4c.2 0 .4-.1.5-.3s.1-.4 0-.5c-.2-.2-.4-.3-.5-.3h-5.4z" fill="#4d5969"/></svg>