<svg enable-background="new 0 0 14 14" viewBox="0 0 14 14" xmlns="http://www.w3.org/2000/svg"><path d="m7.7 0c-.1 0-.3.1-.3.2l-.1.5c-.4.2-.8.4-1.2.7l-.5-.1c-.1 0-.3 0-.4.1l-.4.8c-.1.1 0 .3.1.4l.4.4v.7s0 .4.1.7l-.5.2c-.1.1-.1.3-.1.4l.4.8c.1.1.2.2.4.1l.5-.1c.4.2.8.5 1.2.6l.1.5c0 .1.1.2.3.2h.9c.1 0 .3-.1.3-.2l.1-.5c.5-.1.9-.4 1.2-.7l.5.1c.1 0 .3 0 .4-.1l.5-.7c.1-.1 0-.3-.1-.4l-.4-.4c.1-.2.1-.4.1-.7s0-.4-.1-.7l.4-.4c.1-.1.1-.2.1-.4l-.4-.8c-.1-.1-.2-.2-.4-.1l-.5.1c-.4-.1-.8-.3-1.2-.5l-.2-.5c0-.1-.1-.2-.3-.2zm.5 2.7c.5 0 .9.4.9.9s-.4.9-.9.9-.9-.4-.9-.9.4-.9.9-.9zm-5.2 2.7c-.1 0-.3.1-.3.2l-.2.5c-.4.1-.8.4-1.2.7l-.5-.2c-.1 0-.3 0-.4.1l-.4.8c0 .2 0 .3.1.4l.4.4v.7c0 .2 0 .4.1.7l-.5.3c-.1.1-.1.2 0 .3l.4.8c.1.1.2.2.4.1l.5-.1c.3.3.7.5 1.2.7l.1.5c0 .1.1.2.3.2h.9c.1 0 .3-.1.3-.2l.1-.5c.4-.1.8-.4 1.2-.7l.5.1c.1 0 .3 0 .4-.1l.4-.8c.1-.1 0-.3-.1-.4l-.3-.3c.1-.2.1-.4.1-.7 0-.2 0-.4-.1-.7l.4-.4c.1-.1.1-.2.1-.4l-.6-.6c0-.2-.2-.2-.3-.2l-.5.2c-.3-.3-.8-.5-1.2-.7l-.1-.5c0-.1-.1-.2-.3-.2zm6.8 1.5c-.1 0-.3.1-.3.2l-.1.5c-.5.1-.8.4-1.2.7l-.5-.2c-.1 0-.3 0-.4.1l-.4.8c-.1.1 0 .3.1.4l.4.4v.7c0 .2 0 .4.1.7l-.5.3c-.1.1-.1.2-.1.4l.4.8c.1.1.2.2.4.1l.5-.1c.3.3.7.5 1.2.7l.1.5c0 .1.1.2.3.2h.9c.1 0 .3-.1.3-.2l.1-.5c.4-.1.8-.4 1.2-.7l.5.1c.1 0 .3 0 .4-.1l.4-.8c.1-.1 0-.3-.1-.4l-.4-.4c.1-.2.1-.4.1-.7 0-.2 0-.4-.1-.7l.4-.4c.1-.1.1-.2.1-.4l-.4-.8c-.1-.1-.2-.2-.4-.1l-.5.1c-.3-.1-.7-.4-1.2-.5l-.1-.5c0-.1-.1-.2-.3-.2zm-6.4 1.1c.5 0 .9.4.9.9s-.4.9-.9.9-.9-.4-.9-.9.4-.9.9-.9zm6.8 1.2c.7 0 1.2.5 1.2 1.2s-.5 1.2-1.2 1.2-1.2-.5-1.2-1.2.6-1.2 1.2-1.2z" fill="#4d5969"/></svg>