<?xml version="1.0" encoding="utf-8"?>
<!-- Generator: Adobe Illustrator 20.1.0, SVG Export Plug-In . SVG Version: 6.00 Build 0)  -->
<svg version="1.1" id="Layer_1" xmlns="http://www.w3.org/2000/svg" xmlns:xlink="http://www.w3.org/1999/xlink" x="0px" y="0px"
	 viewBox="0 0 14 14" style="enable-background:new 0 0 14 14;" xml:space="preserve">
<style type="text/css">
	.st0{fill:#4D5969;}
</style>
<title>HDL/Icon/Standard/share</title>
<desc>Created with Sketch.</desc>
<g id="Colors">
	<g id="Main-Icons" transform="translate(-122.000000, -970.000000)">
		<g id="Share" transform="translate(101.000000, 952.000000)">
			<g id="HDL_x2F_Icon_x2F_Standard_x2F_share" transform="translate(21.000000, 18.000000)">
				<path id="Shape" class="st0" d="M10.5,12.6H1.4V3.5h6.1l1.4-1.4H0.7C0.3,2.1,0,2.4,0,2.8v10.5C0,13.7,0.3,14,0.7,14h10.5
					c0.4,0,0.7-0.3,0.7-0.7V5.1l-1.4,1.4V12.6z M13.3,0H8.4C8,0,7.7,0.3,7.7,0.7S8,1.4,8.4,1.4h3.2L6.5,6.5C6.4,6.6,6.3,6.8,6.3,7
					c0,0.4,0.3,0.7,0.7,0.7c0.2,0,0.4-0.1,0.5-0.2l5.1-5.1v3.2c0,0.4,0.3,0.7,0.7,0.7S14,6,14,5.6V0.7C14,0.3,13.7,0,13.3,0z"/>
			</g>
		</g>
	</g>
</g>
</svg>
