<?xml version="1.0" encoding="UTF-8"?>
<svg width="14px" height="13px" viewBox="0 0 14 13" version="1.1" xmlns="http://www.w3.org/2000/svg" xmlns:xlink="http://www.w3.org/1999/xlink">
    <!-- Generator: Sketch 59 (86127) - https://sketch.com -->
    <title>HDL/Icon/Standard/thumbsdown</title>
    <desc>Created with Sketch.</desc>
    <g id="Colors" stroke="none" stroke-width="1" fill="none" fill-rule="evenodd">
        <g id="Main-Icons" transform="translate(-1122.000000, -973.000000)" fill="#4D5969">
            <g id="Thumbs-Down" transform="translate(1100.000000, 957.000000)">
                <g id="HDL/Icon/Standard/thumbsdown" transform="translate(22.000000, 16.000000)">
                    <path d="M1.75,0.877881991 L3.19744231e-14,0.877881991 L3.19744231e-14,7.00288199 L1.75,7.00288199 C2.23125,7.00288199 2.625,6.60913199 2.625,6.12788199 L2.625,1.75288199 C2.625,1.27163199 2.23125,0.877881991 1.75,0.877881991 Z M13.99125,4.71038199 C14.06125,4.20288199 13.60625,3.81788199 12.985,3.79163199 C12.76625,3.78288199 12.53,3.76538199 12.27625,3.74788199 C12.29375,3.74788199 12.32,3.73913199 12.3375,3.73913199 C12.95,3.65163199 13.51,3.31038199 13.57125,2.80288199 C13.62375,2.29538199 13.16875,1.95413199 12.5475,1.89288199 C12.32875,1.87538199 12.0925,1.85788199 11.85625,1.84038199 C12.2675,1.70913199 12.59125,1.47288199 12.6175,1.02663199 C12.6525,0.519131991 11.92625,0.125381991 11.305,0.0728819914 C11.06875,0.0553819914 10.85875,0.0378819914 10.66625,0.0291319914 L10.66625,0.0291319914 C10.64,0.0291319914 10.61375,0.0291319914 10.5875,0.0291319914 C10.38625,0.0116319914 10.21125,0.0116319914 10.045,0.00288199142 C7.30625,-0.0408680086 4.9525,0.414131991 3.5,1.32413199 L3.5,6.57413199 C5.3725,7.70288199 7.665,9.71538199 7.18375,11.395382 C7.02625,11.911632 7.455,12.314132 8.04125,12.252882 C8.75,12.174132 9.24,11.456632 9.26625,10.695382 C9.30125,9.82038199 9.135,8.93663199 8.82875,8.14913199 C8.79375,7.93038199 8.8375,7.71163199 9.1525,7.68538199 C9.58125,7.65913199 10.12375,7.63288199 10.54375,7.61538199 C10.77125,7.61538199 10.99,7.60663199 11.2,7.59788199 C11.2,7.59788199 11.20875,7.59788199 11.20875,7.59788199 L11.20875,7.59788199 C11.5675,7.58038199 11.90875,7.55413199 12.1975,7.51913199 C12.81,7.44038199 13.37875,7.10788199 13.44875,6.60038199 C13.51875,6.09288199 13.06375,5.75163199 12.4425,5.68163199 C12.39875,5.67288199 12.34625,5.67288199 12.3025,5.66413199 C12.45125,5.65538199 12.59125,5.63788199 12.73125,5.62038199 C13.36125,5.55038199 13.93,5.21788199 13.99125,4.71038199 Z" id="Shape"></path>
                </g>
            </g>
        </g>
    </g>
</svg>