<svg viewBox="0 0 14 14" xmlns="http://www.w3.org/2000/svg"><path d="M2.5 0c-.6 0-1.1.5-1.1 1.1v5.7c0 .6.5 1.1 1.1 1.1h5.7c.6 0 1.1-.5 1.1-1.1V1.1C9.3.5 8.8 0 8.2 0zm0 .6h1.1c0 .2.1.3.3.3s.3-.1.3-.3h1.3c0 .2.1.3.3.3s.3-.1.3-.3h1.3c0 .2.1.3.3.3S8 .8 8 .6h.2c.2 0 .4.2.4.4v.2c-.2 0-.3.1-.3.3s.1.3.3.3v1.3c-.2 0-.3.1-.3.3s.1.3.3.3V5c-.1 0-.3.2-.3.4s.1.3.3.3V6.9c-.1.1-.3.2-.3.3H7.1c0-.2-.1-.3-.3-.3s-.4.2-.4.4H5.2c0-.2-.1-.3-.3-.3s-.3.1-.3.3H3.3c0-.2-.1-.3-.3-.3s-.4.1-.4.3h-.1c-.3 0-.5-.2-.5-.5v-.2c.2 0 .3-.1.3-.3S2.2 6 2 6V4.7c.2 0 .3-.1.3-.3s-.1-.3-.3-.3V2.8c.2 0 .3-.1.3-.3s-.1-.3-.3-.3V1.1.9c.2 0 .3-.1.3-.3zm.5.7c-.2 0-.3.1-.3.3s.1.3.3.3.3-.1.3-.3-.2-.3-.3-.3zm1.8 0c-.2 0-.3.1-.3.3s.1.3.3.3.3-.1.3-.3c.1-.2-.1-.3-.3-.3zm1.9 0c-.2 0-.3.1-.3.3s.1.3.3.3.3-.1.3-.3c.1-.2-.1-.3-.3-.3zm-2.8.9c-.2 0-.3.1-.3.3s.1.3.3.3.3-.1.3-.3c0-.1-.1-.3-.3-.3zm1.9 0c-.2 0-.3.1-.3.3s.1.3.3.3.3-.1.3-.3c0-.1-.1-.3-.3-.3zm1.9 0c-.2 0-.3.1-.3.3s.1.3.3.3.3-.1.3-.3c0-.1-.1-.3-.3-.3zM3 3.2c-.2 0-.3.1-.3.3s.1.3.3.3.3-.1.3-.3-.2-.3-.3-.3zm1.8 0c-.2 0-.3.1-.3.3s.1.3.3.3.3-.1.3-.3c.1-.2-.1-.3-.3-.3zm1.9 0c-.2 0-.3.1-.3.3s.1.3.3.3.3-.1.3-.3c.1-.2-.1-.3-.3-.3zm-2.8.9c-.2 0-.3.1-.3.3s.1.3.3.3.3-.1.3-.3-.1-.3-.3-.3zm1.9 0c-.2 0-.3.1-.3.3s.1.3.3.3.3-.1.3-.3-.1-.3-.3-.3zm1.9 0c-.2 0-.3.1-.3.3s.1.3.3.3.3-.1.3-.3-.1-.3-.3-.3zm2.2.6v.6h3c.2 0 .4.2.4.4v5.7c0 .2-.2.4-.4.4H7.2c-.2 0-.4-.2-.4-.4v-3h-.7v3c0 .6.5 1.1 1.1 1.1h5.7c.6 0 1.1-.5 1.1-1.1V5.8c0-.6-.5-1.1-1.1-1.1zM3 5c-.2 0-.4.2-.4.4s.2.3.4.3.3-.1.3-.3S3.1 5 3 5zm1.8 0c-.1 0-.3.2-.3.4s.1.3.3.3.3-.1.3-.3S5 5 4.8 5zm1.9 0c-.1 0-.3.2-.3.4s.1.3.3.3.3-.1.3-.3-.1-.4-.3-.4zM3.9 6c-.2 0-.3.1-.3.3s.1.3.3.3.3-.1.3-.3-.1-.3-.3-.3zm1.9 0c-.2 0-.3.1-.3.3s.1.3.3.3.3-.1.3-.3S6 6 5.8 6zm1.9 0c-.2 0-.3.1-.3.3s.1.3.3.3.3-.1.3-.3-.1-.3-.3-.3zM.4 8.5c-.2 0-.3.1-.3.3v2.8c0 .5.4.9.9.9h3l-.7.7c-.1.1-.1.2-.1.3s.1.2.2.2.2 0 .3-.1l1.3-1c.1-.1.1-.2.1-.3s0-.2-.1-.3l-1.2-1.2c-.1-.1-.1-.1-.2-.1s-.2.1-.3.2c0 .1 0 .3.1.3l.7.8h-3c-.2 0-.3-.1-.3-.3V8.8c0-.1 0-.2-.1-.2-.1-.1-.2-.1-.3-.1z" fill="#4d5969"/></svg>