<svg viewBox="0 0 14 14" xmlns="http://www.w3.org/2000/svg"><path d="M4.4 3.5c-.5 0-.9.4-.9.9s.4.9.9.9.9-.4.9-.9-.4-.9-.9-.9zm-.9 2.6c-.5 0-.9.4-.9.9s.4.9.9.9.9-.4.9-.9-.4-.9-.9-.9zM7 4.4c.5 0 .9-.4.9-.9s-.4-.9-.9-.9-.9.4-.9.9.4.9.9.9zM5.2 9.6c0 1 .8 1.8 1.8 1.8s1.8-.8 1.8-1.8C8.8 9.2 7 5.2 7 5.2s-1.8 4-1.8 4.4zM7 0C3.1 0 0 3.1 0 7s3.1 7 7 7 7-3.1 7-7-3.1-7-7-7zm0 12.2c-2.9 0-5.2-2.4-5.2-5.2S4.1 1.8 7 1.8s5.2 2.4 5.2 5.2-2.3 5.2-5.2 5.2zm3.5-7.8c0-.5-.4-.9-.9-.9s-.8.4-.8.9.4.9.9.9.8-.4.8-.9zm0 1.7c-.5 0-.9.4-.9.9s.4.9.9.9.9-.4.9-.9-.4-.9-.9-.9z" fill="#4d5969"/></svg>