<svg enable-background="new 0 0 14 14" viewBox="0 0 14 14" xmlns="http://www.w3.org/2000/svg"><path d="m10.5 0-3 3h-2c-.3-1.3-1.4-2.2-2.7-2.2-1.6 0-2.8 1.2-2.8 2.7 0 1.4 1 2.5 2.2 2.7v2.3h-2.2v5.5h5.5v-5.5h-2.2v-2.3c1.1-.2 1.9-1 2.1-2.1h2l2.5 2.5v2c-1.2.2-2.2 1.4-2.2 2.7 0 1.5 1.2 2.8 2.8 2.8s2.8-1.2 2.8-2.8c0-1.3-1-2.5-2.2-2.7v-2l3-3zm0 1.6 2 2-2 2-2-2zm-7.7.3c.9 0 1.7.7 1.7 1.7s-.8 1.6-1.7 1.6-1.7-.8-1.7-1.7.7-1.6 1.7-1.6zm-1.7 7.7h3.3v3.3h-3.3zm9.4 0c.9 0 1.7.7 1.7 1.7 0 .9-.7 1.7-1.7 1.7-.9 0-1.7-.7-1.7-1.7s.7-1.7 1.7-1.7z" fill="#4d5969"/></svg>