<?xml version="1.0" encoding="utf-8"?>
<!-- Generator: Adobe Illustrator 20.1.0, SVG Export Plug-In . SVG Version: 6.00 Build 0)  -->
<svg version="1.1" id="Layer_1" xmlns="http://www.w3.org/2000/svg" xmlns:xlink="http://www.w3.org/1999/xlink" x="0px" y="0px"
	 viewBox="0 0 14 14" style="enable-background:new 0 0 14 14;" xml:space="preserve">
<style type="text/css">
	.st0{fill:#4D5969;}
</style>
<title>HDL/Icon/Standard/baseline</title>
<desc>Created with Sketch.</desc>
<g id="Colors">
	<g id="Main-Icons" transform="translate(-623.000000, -1535.000000)">
		<g id="Baseline" transform="translate(602.000000, 1517.000000)">
			<g id="HDL_x2F_Icon_x2F_Standard_x2F_baseline" transform="translate(21.000000, 18.000000)">
				<path id="Shape" class="st0" d="M7,0C6.7,0,6.4,0.3,6.4,0.6V4L5.9,3.5C5.8,3.4,5.6,3.3,5.5,3.3C5.2,3.3,5,3.5,4.9,3.7
					c-0.1,0.2,0,0.5,0.1,0.7L7,6.3l1.9-1.9C9.1,4.2,9.2,4,9.1,3.8C9.1,3.5,8.9,3.4,8.7,3.3c-0.2-0.1-0.4,0-0.6,0.2L7.6,4V0.6
					c0-0.2-0.1-0.3-0.2-0.4C7.3,0.1,7.2,0,7,0z M0.6,6.6c-0.2,0-0.4,0.1-0.5,0.3C0,7.1,0,7.3,0.1,7.5c0.1,0.2,0.3,0.3,0.5,0.3h12.8
					c0.2,0,0.4-0.1,0.5-0.3c0.1-0.2,0.1-0.4,0-0.6c-0.1-0.2-0.3-0.3-0.5-0.3H0.6z M7,8.2L6.6,8.5c0,0-0.1,0.1-0.1,0.1l-1.5,1.4
					c-0.2,0.2-0.2,0.4-0.2,0.6s0.2,0.4,0.4,0.4c0.2,0.1,0.4,0,0.6-0.2l0.5-0.5v2.9c0,0.2,0.1,0.4,0.3,0.5c0.2,0.1,0.4,0.1,0.6,0
					c0.2-0.1,0.3-0.3,0.3-0.5v-2.9L8.1,11c0.2,0.2,0.4,0.2,0.6,0.2s0.4-0.2,0.4-0.4c0.1-0.2,0-0.4-0.2-0.6L7.5,8.7
					c0,0-0.1-0.1-0.1-0.1L7,8.2z"/>
			</g>
		</g>
	</g>
</g>
</svg>
