<svg viewBox="0 0 14 14" xmlns="http://www.w3.org/2000/svg"><path d="M13.8 6.5l-2.1-2.1c-.1-.1-.3-.2-.5-.2-.4 0-.7.3-.7.7 0 .2.1.4.2.5l.9.9H7.7V2.4l.9.9c.1.1.3.2.5.2.4 0 .7-.3.7-.7 0-.2-.1-.4-.2-.5L7.5.2C7.4.1 7.2 0 7 0s-.4.1-.5.2L4.4 2.3c-.1.1-.2.3-.2.5 0 .4.3.7.7.7.2 0 .4-.1.5-.2l.9-.9v3.9H2.4l.9-.9c.1-.1.2-.3.2-.5 0-.4-.3-.7-.7-.7-.2 0-.4.1-.5.2L.2 6.5c-.1.1-.2.3-.2.5s.1.4.2.5l2.1 2.1c.1.1.3.2.5.2.4 0 .7-.3.7-.7 0-.2-.1-.4-.2-.5l-.9-.9h3.9v3.9l-.9-.9c-.1-.1-.3-.2-.5-.2-.4 0-.7.3-.7.7 0 .2.1.4.2.5l2.1 2.1c.1.1.3.2.5.2s.4-.1.5-.2l2.1-2.1c.1-.1.2-.3.2-.5 0-.4-.3-.7-.7-.7-.2 0-.4.1-.5.2l-.9.9V7.7h3.9l-.9.9c-.1.1-.2.3-.2.5 0 .4.3.7.7.7.2 0 .4-.1.5-.2l2.1-2.1c.1-.1.2-.3.2-.5s-.1-.4-.2-.5z" fill="#4d5969"/></svg>