<?xml version="1.0" encoding="utf-8"?>
<!-- Generator: Adobe Illustrator 20.1.0, SVG Export Plug-In . SVG Version: 6.00 Build 0)  -->
<svg version="1.1" id="Layer_1" xmlns="http://www.w3.org/2000/svg" xmlns:xlink="http://www.w3.org/1999/xlink" x="0px" y="0px"
	 viewBox="0 0 14 14" style="enable-background:new 0 0 14 14;" xml:space="preserve">
<style type="text/css">
	.st0{fill:#4D5969;}
</style>
<title>HDL/Icon/Standard/zoom_in</title>
<desc>Created with Sketch.</desc>
<g id="Colors">
	<g id="Main-Icons" transform="translate(-621.000000, -641.000000)">
		<g id="Zoom-In" transform="translate(600.000000, 623.000000)">
			<g id="HDL_x2F_Icon_x2F_Standard_x2F_zoom_x5F_in" transform="translate(21.000000, 18.000000)">
				<path id="Shape" class="st0" d="M13.7,12.2l-3.5-3.5c0.6-0.9,1-2,1-3.2C11.2,2.5,8.7,0,5.6,0S0,2.5,0,5.6s2.5,5.6,5.6,5.6
					c1.2,0,2.2-0.4,3.2-1l3.5,3.5c0.2,0.2,0.5,0.3,0.7,0.3c0.6,0,1.1-0.5,1.1-1.1C14,12.7,13.9,12.4,13.7,12.2z M5.6,9.8
					c-2.3,0-4.2-1.9-4.2-4.2s1.9-4.2,4.2-4.2s4.2,1.9,4.2,4.2S7.9,9.8,5.6,9.8z M7.7,4.9H6.3V3.5c0-0.4-0.3-0.7-0.7-0.7
					c-0.4,0-0.7,0.3-0.7,0.7v1.4H3.5c-0.4,0-0.7,0.3-0.7,0.7c0,0.4,0.3,0.7,0.7,0.7h1.4v1.4c0,0.4,0.3,0.7,0.7,0.7
					c0.4,0,0.7-0.3,0.7-0.7V6.3h1.4c0.4,0,0.7-0.3,0.7-0.7C8.4,5.2,8.1,4.9,7.7,4.9z"/>
			</g>
		</g>
	</g>
</g>
</svg>
