<svg viewBox="0 0 13 14" xmlns="http://www.w3.org/2000/svg"><path d="M6.1 0c-.2 0-.3.1-.4.3s-.1.4 0 .6c.1.1.2.2.4.2 2.8 0 5 2.2 5 5 0 .2.1.4.3.5s.4.1.6 0 .3-.3.3-.5C12.3 2.8 9.5 0 6.1 0zm0 2.2C4 2.2 2.2 4 2.2 6.1c0 .2.1.4.3.5s.4.1.6 0 .3-.3.3-.5c0-1.5 1.2-2.8 2.8-2.8S9 4.5 9 6.1c0 1-.2 1.6-.5 2.1s-.6 1-.6 1.8c0 .9-.7 1.7-1.7 1.7-.2 0-.4.1-.5.3s-.1.4 0 .6.3.3.5.3c1.5 0 2.8-1.3 2.8-2.8 0-.4.2-.7.5-1.3s.6-1.4.6-2.6c0-2.2-1.8-4-4-4zm0 2.3c-.9 0-1.7.8-1.7 1.7 0 .2.1.4.3.5s.4.1.6 0 .3-.3.3-.5c0-.3.2-.6.6-.6.3 0 .6.2.6.6 0 .2.1.4.3.5s.4.1.6 0 .3-.3.3-.5c-.2-1-.9-1.7-1.9-1.7zm-.5 3.3c-.3 0-.6.3-.6.6s.3.6.6.6.6-.3.6-.6c-.1-.3-.3-.6-.6-.6zM3.4 8.9c-.2 0-.3.1-.4.2-.3.2-.3.6 0 .8L4.1 11c.2.2.6.2.8 0s.2-.6 0-.8L3.7 9.1c-.1-.1-.2-.2-.3-.2zm-1.2 2.3c-.3 0-.6.3-.6.6s.3.6.6.6.6-.3.6-.6-.3-.6-.6-.6zM.6 12.8c-.3 0-.6.3-.6.6s.3.6.6.6.6-.3.6-.6-.3-.6-.6-.6z" fill="#4d5969"/></svg>