<svg enable-background="new 0 0 14 13" viewBox="0 0 14 13" xmlns="http://www.w3.org/2000/svg"><path d="m1.8.9h-1.8v6.1h1.8c.5 0 .9-.4.9-.9v-4.3c-.1-.5-.5-.9-.9-.9zm12.2 3.8c.1-.5-.4-.9-1-.9-.2 0-.5 0-.7 0h.1c.6-.1 1.2-.4 1.2-.9.1-.5-.4-.8-1-.9-.2 0-.5 0-.7-.1.4-.1.7-.4.8-.8 0-.5-.7-.9-1.3-1-.2 0-.4 0-.6 0h-.1c-.2 0-.4 0-.5 0-2.9-.1-5.2.3-6.7 1.2v5.2c1.9 1.1 4.2 3.1 3.7 4.8-.2.6.3 1 .8 1 .7-.1 1.2-.8 1.2-1.6 0-.9-.1-1.8-.4-2.5 0-.2 0-.4.3-.5.4 0 1-.1 1.4-.1h.7c.4 0 .7 0 1-.1.6-.1 1.2-.4 1.3-.9s-.4-.8-1-.9h-.1.4c.6-.1 1.1-.5 1.2-1z" fill="#4d5969"/></svg>