<?xml version="1.0" encoding="UTF-8"?>
<svg width="14px" height="14px" viewBox="0 0 14 14" version="1.1" xmlns="http://www.w3.org/2000/svg" xmlns:xlink="http://www.w3.org/1999/xlink">
    <!-- Generator: Sketch 59 (86127) - https://sketch.com -->
    <title>HDL/Icon/Standard/account-notifications</title>
    <desc>Created with Sketch.</desc>
    <g id="Colors" stroke="none" stroke-width="1" fill="none" fill-rule="evenodd">
        <g id="Main-Icons" transform="translate(-1121.000000, -876.000000)" fill="#4D5969">
            <g id="Account-Notifications" transform="translate(1100.000000, 858.000000)">
                <g id="HDL/Icon/Standard/account-notifications" transform="translate(21.000000, 18.000000)">
                    <path d="M6.125,14 C7.0875,14 7.875,13.2125 7.875,12.25 L4.375,12.25 C4.375,13.2125 5.1625,14 6.125,14 Z M9.09897564,2.04115065 L8.73805205,2.40207424 C8.26390268,1.98067048 7.64698974,1.74125 7,1.74125 C5.55631955,1.74125 4.375,2.91442252 4.375,4.3575 C4.375,5.05667392 4.65459986,5.72072359 5.14131314,6.20743687 L6.89328158,7.95065322 C7.37981603,8.43615313 8.0430182,8.715 8.74125,8.715 C9.39769583,8.715 10.0231793,8.46852987 10.5,8.03558222 L10.5,8.75 C10.5,9.23125 10.89375,9.625 11.375,9.625 C11.85625,9.625 12.25,10.01875 12.25,10.5 C12.25,10.98125 11.85625,11.375 11.375,11.375 L0.875,11.375 C0.39375,11.375 5.41788836e-14,10.98125 5.41788836e-14,10.5 C5.41788836e-14,10.01875 0.39375,9.625 0.875,9.625 C1.35625,9.625 1.75,9.23125 1.75,8.75 L1.75,5.25 C1.75,3.12375 3.26375,1.35625 5.2675,0.9625 C5.2675,0.9275 5.25,0.91 5.25,0.875 C5.25,0.39375 5.64375,0 6.125,0 C6.60625,0 7,0.39375 7,0.875 C7,0.91 6.9825,0.9275 6.9825,0.9625 C7.78986697,1.1211529 8.51768199,1.50283544 9.09897564,2.04115065 Z M8.12875,6.71125 L6.37875,4.97 C6.22125,4.8125 6.125,4.59375 6.125,4.3575 C6.125,3.885 6.51875,3.49125 7,3.49125 C7.23625,3.49125 7.455,3.5875 7.6125,3.745 L8.74125,4.87375 L11.61125,2.00375 C11.76875,1.84625 11.97875,1.75 12.22375,1.75 C12.705,1.75 13.09875,2.135 13.09875,2.61625 C13.09875,2.86125 13.0025,3.07125 12.83625,3.22875 L9.35375,6.71125 C9.19625,6.86875 8.9775,6.965 8.74125,6.965 C8.505,6.965 8.28625,6.86875 8.12875,6.71125 Z" id="Shape"></path>
                </g>
            </g>
        </g>
    </g>
</svg>