<?xml version="1.0" encoding="UTF-8"?>
<svg width="14px" height="8px" viewBox="0 0 14 8" version="1.1" xmlns="http://www.w3.org/2000/svg" xmlns:xlink="http://www.w3.org/1999/xlink">
    <!-- Generator: Sketch 59 (86127) - https://sketch.com -->
    <title>HDL/Icon/Standard/chevron_up</title>
    <desc>Created with Sketch.</desc>
    <g id="Colors" stroke="none" stroke-width="1" fill="none" fill-rule="evenodd">
        <g id="Main-Icons" transform="translate(-622.000000, -835.000000)" fill="#4D5969">
            <g id="Chevron-Up" transform="translate(601.000000, 825.000000)">
                <g id="HDL/Icon/Standard/chevron_up" transform="translate(21.000000, 10.000000)">
                    <path d="M13.71,6.29 L7.71,0.29 C7.53,0.11 7.28,0 7,0 C6.72,0 6.47,0.11 6.29,0.29 L0.29,6.29 C0.11,6.47 0,6.72 0,7 C0,7.55 0.45,8 1,8 C1.28,8 1.53,7.89 1.71,7.71 L7,2.41 L12.29,7.7 C12.47,7.89 12.72,8 13,8 C13.55,8 14,7.55 14,7 C14,6.72 13.89,6.47 13.71,6.29 Z" id="Path"></path>
                </g>
            </g>
        </g>
    </g>
</svg>