<?xml version="1.0" encoding="UTF-8"?>
<svg width="14px" height="14px" viewBox="0 0 14 14" version="1.1" xmlns="http://www.w3.org/2000/svg" xmlns:xlink="http://www.w3.org/1999/xlink">
    <!-- Generator: Sketch 59 (86127) - https://sketch.com -->
    <title>HDL/Icon/Standard/issue</title>
    <desc>Created with Sketch.</desc>
    <g id="Colors" stroke="none" stroke-width="1" fill="none" fill-rule="evenodd">
        <g id="Main-Icons" transform="translate(-119.000000, -312.000000)" fill="#4D5969">
            <g id="Issue" transform="translate(100.000000, 294.000000)">
                <g id="HDL/Icon/Standard/issue" transform="translate(19.000000, 18.000000)">
                    <path d="M7,0 C10.8659932,0 14,3.13400675 14,7 C14,10.8659932 10.8659932,14 7,14 C3.13400675,14 0,10.8659932 0,7 C0,3.13400675 3.13400675,0 7,0 Z M7,1.4 C3.9072054,1.4 1.4,3.9072054 1.4,7 C1.4,10.0927946 3.9072054,12.6 7,12.6 C10.0927946,12.6 12.6,10.0927946 12.6,7 C12.6,3.9072054 10.0927946,1.4 7,1.4 Z M7.7,11.2 L6.3,11.2 L6.3,9.8 L7.7,9.8 L7.7,11.2 Z M7.7,9.1 L6.3,9.1 L6.3,2.8 L7.7,2.8 L7.7,9.1 Z" id="pt-icon-issue-20"></path>
                </g>
            </g>
        </g>
    </g>
</svg>