<svg enable-background="new 0 0 14 14" viewBox="0 0 14 14" xmlns="http://www.w3.org/2000/svg"><path d="m13.8 6.5-2.1-2.1c-.1-.1-.3-.2-.5-.2-.4 0-.7.3-.7.7 0 .2.1.4.2.5l.9.9h-3.9v-3.9l.9.9c.1.1.3.2.5.2.4 0 .7-.3.7-.7 0-.2-.1-.4-.2-.5l-2.1-2.1c-.1-.1-.3-.2-.5-.2s-.4.1-.5.2l-2.1 2.1c-.1.1-.2.3-.2.5 0 .4.3.7.7.7.2 0 .4-.1.5-.2l.9-.9v3.9h-3.9l.9-.9c.1-.1.2-.3.2-.5 0-.4-.3-.7-.7-.7-.2 0-.4.1-.5.2l-2.1 2.1c-.1.1-.2.3-.2.5s.1.4.2.5l2.1 2.1c.1.1.3.2.5.2.4 0 .7-.3.7-.7 0-.2-.1-.4-.2-.5l-.9-.9h3.9v3.9l-.9-.9c-.1-.1-.3-.2-.5-.2-.4 0-.7.3-.7.7 0 .2.1.4.2.5l2.1 2.1c.1.1.3.2.5.2s.4-.1.5-.2l2.1-2.1c.1-.1.2-.3.2-.5 0-.4-.3-.7-.7-.7-.2 0-.4.1-.5.2l-.9.9v-3.9h3.9l-.9.9c-.1.1-.2.3-.2.5 0 .4.3.7.7.7.2 0 .4-.1.5-.2l2.1-2.1c.1-.1.2-.3.2-.5s-.1-.4-.2-.5z" fill="#4d5969"/></svg>