<?xml version="1.0" encoding="utf-8"?>
<!-- Generator: Adobe Illustrator 20.1.0, SVG Export Plug-In . SVG Version: 6.00 Build 0)  -->
<svg version="1.1" id="Layer_1" xmlns="http://www.w3.org/2000/svg" xmlns:xlink="http://www.w3.org/1999/xlink" x="0px" y="0px"
	 viewBox="0 0 14 14" style="enable-background:new 0 0 14 14;" xml:space="preserve">
<style type="text/css">
	.st0{fill:#4D5969;}
</style>
<title>HDL/Icon/Standard/workflows</title>
<desc>Created with Sketch.</desc>
<g id="Colors">
	<g id="Main-Icons" transform="translate(-1123.000000, -828.000000)">
		<g id="Workflows" transform="translate(1100.000000, 811.000000)">
			<g id="HDL_x2F_Icon_x2F_Standard_x2F_workflows" transform="translate(23.000000, 17.000000)">
				<path id="Shape" class="st0" d="M10.5,0l-3,3h-2C5.2,1.7,4.1,0.8,2.8,0.8C1.2,0.8,0,2,0,3.5C0,4.9,1,6,2.2,6.2v2.3H0V14h5.5V8.5
					H3.3V6.2C4.4,6,5.2,5.2,5.4,4.1h2l2.5,2.5v2c-1.2,0.2-2.2,1.4-2.2,2.7c0,1.5,1.2,2.8,2.8,2.8s2.8-1.2,2.8-2.8
					c0-1.3-1-2.5-2.2-2.7v-2l3-3L10.5,0z M10.5,1.6l2,2l-2,2l-2-2L10.5,1.6z M2.8,1.9c0.9,0,1.7,0.7,1.7,1.7S3.7,5.2,2.8,5.2
					S1.1,4.4,1.1,3.5S1.8,1.9,2.8,1.9z M1.1,9.6h3.3v3.3H1.1V9.6z M10.5,9.6c0.9,0,1.7,0.7,1.7,1.7c0,0.9-0.7,1.7-1.7,1.7
					c-0.9,0-1.7-0.7-1.7-1.7C8.8,10.3,9.5,9.6,10.5,9.6z"/>
			</g>
		</g>
	</g>
</g>
</svg>
