<?xml version="1.0" encoding="UTF-8"?>
<svg width="12px" height="14px" viewBox="0 0 12 14" version="1.1" xmlns="http://www.w3.org/2000/svg" xmlns:xlink="http://www.w3.org/1999/xlink">
    <!-- Generator: Sketch 59 (86127) - https://sketch.com -->
    <title>HDL/Icon/Standard/flag</title>
    <desc>Created with Sketch.</desc>
    <g id="Colors" stroke="none" stroke-width="1" fill="none" fill-rule="evenodd">
        <g id="Main-Icons" transform="translate(-119.000000, -829.000000)" fill="#4D5969">
            <g id="Flag" transform="translate(100.000000, 811.000000)">
                <g id="HDL/Icon/Standard/flag" transform="translate(19.000000, 18.000000)">
                    <path d="M0.75,2.1 C0.3375,2.1 0,2.415 0,2.8 L0,13.3 C0,13.685 0.3375,14 0.75,14 C1.1625,14 1.5,13.685 1.5,13.3 L1.5,2.8 C1.5,2.415 1.1625,2.1 0.75,2.1 Z M0.75,0 C0.3375,0 0,0.315 0,0.7 C0,1.085 0.3375,1.4 0.75,1.4 C1.1625,1.4 1.5,1.085 1.5,0.7 C1.5,0.315 1.1625,0 0.75,0 Z M2.25,2.856 L2.25,8.652 C4.5075,6.965 8.7525,10.5 12,8.652 L12,2.856 C8.7075,4.998 4.5075,0.7 2.25,2.856 Z" id="Shape"></path>
                </g>
            </g>
        </g>
    </g>
</svg>