<?xml version="1.0" encoding="utf-8"?>
<!-- Generator: Adobe Illustrator 20.1.0, SVG Export Plug-In . SVG Version: 6.00 Build 0)  -->
<svg version="1.1" id="Layer_1" xmlns="http://www.w3.org/2000/svg" xmlns:xlink="http://www.w3.org/1999/xlink" x="0px" y="0px"
	 viewBox="0 0 11 14" style="enable-background:new 0 0 11 14;" xml:space="preserve">
<style type="text/css">
	.st0{fill:#4D5969;}
</style>
<title>HDL/Icon/Standard/trash</title>
<desc>Created with Sketch.</desc>
<g id="Colors">
	<g id="Main-Icons" transform="translate(-120.000000, -1111.000000)">
		<g id="Delete" transform="translate(101.000000, 1093.000000)">
			<g id="HDL_x2F_Icon_x2F_Standard_x2F_trash" transform="translate(19.000000, 18.000000)">
				<path id="Shape" class="st0" d="M10.3,0.7H6.9C6.9,0.3,6.6,0,6.2,0H4.8C4.4,0,4.1,0.3,4.1,0.7H0.7C0.3,0.7,0,1,0,1.4v0.7h11V1.4
					C11,1,10.7,0.7,10.3,0.7z M10.7,2.8H0.3C0.2,2.8,0,3,0,3.2c0,0.2,0.2,0.3,0.3,0.3h0.3v9.8C0.7,13.7,1,14,1.4,14h8.2
					c0.4,0,0.7-0.3,0.7-0.7V3.5h0.3c0.2,0,0.3-0.2,0.3-0.3C11,3,10.8,2.8,10.7,2.8z M3.4,11.2c0,0.4-0.3,0.7-0.7,0.7
					s-0.7-0.3-0.7-0.7V5.6c0-0.4,0.3-0.7,0.7-0.7s0.7,0.3,0.7,0.7V11.2z M6.2,11.2c0,0.4-0.3,0.7-0.7,0.7s-0.7-0.3-0.7-0.7V5.6
					c0-0.4,0.3-0.7,0.7-0.7s0.7,0.3,0.7,0.7V11.2z M8.9,11.2c0,0.4-0.3,0.7-0.7,0.7s-0.7-0.3-0.7-0.7V5.6c0-0.4,0.3-0.7,0.7-0.7
					s0.7,0.3,0.7,0.7V11.2z"/>
			</g>
		</g>
	</g>
</g>
</svg>
