<?xml version="1.0" encoding="utf-8"?>
<!-- Generator: Adobe Illustrator 20.1.0, SVG Export Plug-In . SVG Version: 6.00 Build 0)  -->
<svg version="1.1" id="Layer_1" xmlns="http://www.w3.org/2000/svg" xmlns:xlink="http://www.w3.org/1999/xlink" x="0px" y="0px"
	 viewBox="0 0 14 13" style="enable-background:new 0 0 14 13;" xml:space="preserve">
<style type="text/css">
	.st0{fill:#4D5969;}
</style>
<title>HDL/Icon/Standard/thumbsdown</title>
<desc>Created with Sketch.</desc>
<g id="Colors">
	<g id="Main-Icons" transform="translate(-1122.000000, -973.000000)">
		<g id="Thumbs-Down" transform="translate(1100.000000, 957.000000)">
			<g id="HDL_x2F_Icon_x2F_Standard_x2F_thumbsdown" transform="translate(22.000000, 16.000000)">
				<path id="Shape" class="st0" d="M1.8,0.9H0V7h1.8c0.5,0,0.9-0.4,0.9-0.9V1.8C2.6,1.3,2.2,0.9,1.8,0.9z M14,4.7
					c0.1-0.5-0.4-0.9-1-0.9c-0.2,0-0.5,0-0.7,0c0,0,0,0,0.1,0c0.6-0.1,1.2-0.4,1.2-0.9c0.1-0.5-0.4-0.8-1-0.9c-0.2,0-0.5,0-0.7-0.1
					c0.4-0.1,0.7-0.4,0.8-0.8c0-0.5-0.7-0.9-1.3-1c-0.2,0-0.4,0-0.6,0l0,0c0,0-0.1,0-0.1,0c-0.2,0-0.4,0-0.5,0C7.3,0,5,0.4,3.5,1.3
					v5.2c1.9,1.1,4.2,3.1,3.7,4.8C7,11.9,7.5,12.3,8,12.3c0.7-0.1,1.2-0.8,1.2-1.6c0-0.9-0.1-1.8-0.4-2.5c0-0.2,0-0.4,0.3-0.5
					c0.4,0,1-0.1,1.4-0.1c0.2,0,0.4,0,0.7,0h0l0,0c0.4,0,0.7,0,1-0.1c0.6-0.1,1.2-0.4,1.3-0.9c0.1-0.5-0.4-0.8-1-0.9
					c0,0-0.1,0-0.1,0c0.1,0,0.3,0,0.4,0C13.4,5.6,13.9,5.2,14,4.7z"/>
			</g>
		</g>
	</g>
</g>
</svg>
