<?xml version="1.0" encoding="utf-8"?>
<!-- Generator: Adobe Illustrator 20.1.0, SVG Export Plug-In . SVG Version: 6.00 Build 0)  -->
<svg version="1.1" id="Layer_1" xmlns="http://www.w3.org/2000/svg" xmlns:xlink="http://www.w3.org/1999/xlink" x="0px" y="0px"
	 viewBox="0 0 14 13" style="enable-background:new 0 0 14 13;" xml:space="preserve">
<style type="text/css">
	.st0{fill:#4D5969;}
</style>
<title>HDL/Icon/Standard/canary</title>
<desc>Created with Sketch.</desc>
<g id="Colors">
	<g id="Main-Icons" transform="translate(-623.000000, -1160.000000)">
		<g id="Canary" transform="translate(602.000000, 1141.000000)">
			<g id="HDL_x2F_Icon_x2F_Standard_x2F_canary" transform="translate(21.000000, 19.000000)">
				<path id="Fill-1" class="st0" d="M10.1,2.3c0.5,0,0.8,0.3,0.8,0.8s-0.3,0.8-0.8,0.8c-0.5,0-0.8-0.3-0.8-0.8S9.6,2.3,10.1,2.3
					 M8.9,0C7,0,5.4,1.5,5.4,3.5c0,4.3-2.1,5.6-5.4,5c0,0,1.9,2.7,5.8,3.1c-0.2,0.3-0.3,0.5-0.3,0.5L7,12.7c0,0,0,0,0.1-0.1
					c0.1-0.1,0.3-0.2,0.8-0.2c0.9,0,1.9,0.6,1.9,0.6l0.9-1.3c0,0-0.6-0.5-1.6-0.7c2-1.1,3.3-3.5,3.4-6.9l1.6-1l-1.8-0.8
					C11.7,0.9,10.4,0,8.9,0"/>
			</g>
		</g>
	</g>
</g>
</svg>
