<?xml version="1.0" encoding="UTF-8"?>
<svg width="14px" height="14px" viewBox="0 0 14 14" version="1.1" xmlns="http://www.w3.org/2000/svg" xmlns:xlink="http://www.w3.org/1999/xlink">
    <!-- Generator: Sketch 59 (86127) - https://sketch.com -->
    <title>HDL/Icon/Standard/environments</title>
    <desc>Created with Sketch.</desc>
    <g id="Colors" stroke="none" stroke-width="1" fill="none" fill-rule="evenodd">
        <g id="Main-Icons" transform="translate(-1121.000000, -595.000000)" fill="#4D5969">
            <g id="Environments" transform="translate(1100.000000, 576.000000)">
                <g id="HDL/Icon/Standard/environments" transform="translate(21.000000, 19.000000)">
                    <path d="M6.86976744,0.0124824269 C6.86976744,0.0124824269 6.8372093,0.0124824269 6.8372093,0.0124824269 C6.6744186,0.0443006087 6.57674419,0.171573336 6.57674419,0.330664245 L6.57674419,2.23975515 C6.57674419,2.36702788 6.64186047,2.46248243 6.73953488,2.52611879 C6.8372093,2.58975515 6.96744186,2.58975515 7.06511628,2.52611879 C7.1627907,2.46248243 7.22790698,2.36702788 7.22790698,2.23975515 L7.22790698,0.330664245 C7.22790698,0.2352097 7.19534884,0.139755154 7.13023256,0.0761187905 C7.06511628,0.0124824269 6.96744186,-0.0193357549 6.86976744,0.0124824269 Z M2.24651163,1.85793697 C2.11627907,1.88975515 2.01860465,1.95339152 1.98604651,2.08066425 C1.95348837,2.20793697 1.98604651,2.3352097 2.08372093,2.39884606 L3.45116279,3.7352097 C3.51627907,3.83066425 3.64651163,3.86248243 3.77674419,3.83066425 C3.90697674,3.79884606 4.00465116,3.70339152 4.0372093,3.57611879 C4.06976744,3.44884606 4.00465116,3.32157334 3.93953488,3.25793697 L2.57209302,1.92157334 C2.4744186,1.88975515 2.37674419,1.85793697 2.24651163,1.85793697 C2.24651163,1.85793697 2.24651163,1.85793697 2.24651163,1.85793697 Z M11.4604651,1.85793697 C11.3953488,1.85793697 11.3302326,1.88975515 11.2651163,1.95339152 L9.89767442,3.28975515 C9.8,3.35339152 9.76744186,3.48066425 9.8,3.60793697 C9.83255814,3.7352097 9.93023256,3.83066425 10.0604651,3.86248243 C10.1906977,3.89430061 10.3209302,3.83066425 10.3860465,3.76702788 L11.7534884,2.43066425 C11.8511628,2.3352097 11.8837209,2.17611879 11.8186047,2.04884606 C11.7534884,1.92157334 11.6232558,1.85793697 11.4604651,1.85793697 Z M6.86976744,3.51248243 C6.86976744,3.51248243 6.8372093,3.51248243 6.86976744,3.51248243 C6.80465116,3.51248243 6.80465116,3.51248243 6.77209302,3.54430061 C6.77209302,3.54430061 6.77209302,3.54430061 6.77209302,3.54430061 C5.04651163,3.60793697 3.64651163,4.97611879 3.64651163,6.69430061 C3.64651163,8.44430061 5.11162791,9.87611879 6.90232558,9.87611879 C8.69302326,9.87611879 10.1581395,8.44430061 10.1581395,6.69430061 C10.1581395,5.00793697 8.75813953,3.63975515 7.06511628,3.54430061 C7.06511628,3.54430061 7.03255814,3.54430061 7.03255814,3.54430061 C7,3.54430061 6.96744186,3.51248243 6.93488372,3.51248243 C6.90232558,3.51248243 6.90232558,3.51248243 6.86976744,3.51248243 C6.90232558,3.51248243 6.86976744,3.51248243 6.86976744,3.51248243 Z M6.86976744,4.14884606 C6.90232558,4.14884606 6.90232558,4.14884606 6.86976744,4.14884606 C6.90232558,4.14884606 6.90232558,4.14884606 6.93488372,4.14884606 C8.36744186,4.18066425 9.50697674,5.29430061 9.50697674,6.69430061 C9.50697674,8.09430061 8.33488372,9.23975515 6.90232558,9.23975515 C5.46976744,9.23975515 4.29767442,8.09430061 4.29767442,6.69430061 C4.29767442,5.29430061 5.4372093,4.14884606 6.86976744,4.14884606 Z M0.293023256,6.37611879 C0.0976744186,6.40793697 1.95399252e-14,6.56702788 1.95399252e-14,6.72611879 C1.95399252e-14,6.8852097 0.195348837,7.04430061 0.390697674,7.01248243 L2.34418605,7.01248243 C2.4744186,7.01248243 2.57209302,6.94884606 2.6372093,6.85339152 C2.70232558,6.75793697 2.70232558,6.63066425 2.6372093,6.5352097 C2.57209302,6.43975515 2.4744186,6.37611879 2.34418605,6.37611879 L0.390697674,6.37611879 C0.390697674,6.37611879 0.358139535,6.37611879 0.358139535,6.37611879 C0.358139535,6.37611879 0.325581395,6.37611879 0.293023256,6.37611879 C0.325581395,6.37611879 0.325581395,6.37611879 0.293023256,6.37611879 Z M11.3627907,6.37611879 C11.1674419,6.40793697 11.0697674,6.56702788 11.0697674,6.72611879 C11.0697674,6.8852097 11.2651163,7.01248243 11.427907,7.01248243 L13.3813953,7.01248243 C13.5116279,7.01248243 13.6093023,6.94884606 13.6744186,6.85339152 C13.7395349,6.75793697 13.7395349,6.63066425 13.6744186,6.5352097 C13.6418605,6.43975515 13.544186,6.37611879 13.4139535,6.37611879 L11.4604651,6.37611879 C11.4604651,6.37611879 11.427907,6.37611879 11.427907,6.37611879 C11.427907,6.37611879 11.3953488,6.37611879 11.3627907,6.37611879 C11.3953488,6.37611879 11.3953488,6.37611879 11.3627907,6.37611879 Z M3.64651163,9.52611879 C3.58139535,9.52611879 3.51627907,9.55793697 3.45116279,9.62157334 L2.08372093,10.957937 C1.98604651,11.0215733 1.95348837,11.1488461 1.98604651,11.2761188 C2.01860465,11.4033915 2.11627907,11.4988461 2.24651163,11.5306642 C2.37674419,11.5624824 2.50697674,11.4988461 2.57209302,11.4352097 L3.93953488,10.0988461 C4.0372093,10.0033915 4.06976744,9.87611879 4.00465116,9.74884606 C3.93953488,9.58975515 3.80930233,9.52611879 3.64651163,9.52611879 C3.67906977,9.52611879 3.64651163,9.52611879 3.64651163,9.52611879 Z M10.0604651,9.52611879 C9.93023256,9.55793697 9.83255814,9.62157334 9.8,9.74884606 C9.76744186,9.87611879 9.8,10.0033915 9.89767442,10.0670279 L11.2651163,11.4033915 C11.3302326,11.4988461 11.4604651,11.5306642 11.5906977,11.4988461 C11.7209302,11.4670279 11.8186047,11.3715733 11.8511628,11.2443006 C11.8837209,11.1170279 11.8186047,10.9897552 11.7534884,10.9261188 L10.3860465,9.58975515 C10.3209302,9.52611879 10.255814,9.49430061 10.1581395,9.49430061 C10.0930233,9.52611879 10.0930233,9.52611879 10.0604651,9.52611879 C10.0930233,9.52611879 10.0604651,9.52611879 10.0604651,9.52611879 Z M6.86976744,10.8306642 C6.86976744,10.8306642 6.8372093,10.8306642 6.8372093,10.8306642 C6.6744186,10.8624824 6.57674419,10.9897552 6.57674419,11.1488461 L6.57674419,13.057937 C6.57674419,13.1852097 6.64186047,13.2806642 6.73953488,13.3443006 C6.8372093,13.407937 6.96744186,13.407937 7.06511628,13.3443006 C7.1627907,13.2806642 7.22790698,13.1852097 7.22790698,13.057937 L7.22790698,11.1488461 C7.22790698,11.0533915 7.19534884,10.957937 7.13023256,10.8943006 C7.06511628,10.8306642 6.96744186,10.7988461 6.86976744,10.8306642 Z" id="Shape"></path>
                </g>
            </g>
        </g>
    </g>
</svg>