<?xml version="1.0" encoding="UTF-8"?>
<svg width="14px" height="11px" viewBox="0 0 14 11" version="1.1" xmlns="http://www.w3.org/2000/svg" xmlns:xlink="http://www.w3.org/1999/xlink">
    <!-- Generator: Sketch 59 (86127) - https://sketch.com -->
    <title>HDL/Icon/Standard/folder</title>
    <desc>Created with Sketch.</desc>
    <g id="Colors" stroke="none" stroke-width="1" fill="none" fill-rule="evenodd">
        <g id="Main-Icons" transform="translate(-121.000000, -785.000000)" fill="#4D5969">
            <g id="Folder" transform="translate(100.000000, 769.000000)">
                <g id="HDL/Icon/Standard/folder" transform="translate(21.000000, 16.000000)">
                    <path d="M0,10.3125 C0,10.690625 0.315,11 0.7,11 L13.3,11 C13.685,11 14,10.690625 14,10.3125 L14,3.4375 L0,3.4375 L0,10.3125 Z M13.3,1.375 L6.587,1.375 L5.397,0.199375 L5.397,0.199375 C5.271,0.075625 5.096,0 4.9,0 L0.7,0 C0.315,0 0,0.309375 0,0.6875 L0,2.75 L14,2.75 L14,2.0625 C14,1.684375 13.685,1.375 13.3,1.375 Z" id="Shape"></path>
                </g>
            </g>
        </g>
    </g>
</svg>