<?xml version="1.0" encoding="UTF-8"?>
<svg width="14px" height="14px" viewBox="0 0 14 14" version="1.1" xmlns="http://www.w3.org/2000/svg" xmlns:xlink="http://www.w3.org/1999/xlink">
    <!-- Generator: Sketch 59 (86127) - https://sketch.com -->
    <title>HDL/Icon/Standard/services</title>
    <desc>Created with Sketch.</desc>
    <g id="Colors" stroke="none" stroke-width="1" fill="none" fill-rule="evenodd">
        <g id="Main-Icons" transform="translate(-1122.000000, -547.000000)" fill="#4D5969">
            <g id="Services" transform="translate(1100.000000, 529.000000)">
                <g id="HDL/Icon/Standard/services" transform="translate(22.000000, 18.000000)">
                    <path d="M7.71610055,0 C7.56716438,0 7.44801544,0.0893617021 7.41822821,0.238297872 L7.29907927,0.744680851 C6.85227076,0.863829787 6.46503672,1.10212766 6.10758991,1.42978723 L5.60120693,1.28085106 C5.48205799,1.25106383 5.33312182,1.28085106 5.24376012,1.4 L4.79695161,2.17446809 C4.73737714,2.29361702 4.76716438,2.44255319 4.85652608,2.53191489 L5.21397289,2.8893617 C5.21397289,3.12765957 5.18418565,3.33617021 5.18418565,3.57446809 C5.18418565,3.81276596 5.21397289,4.0212766 5.24376012,4.25957447 L4.88631331,4.61702128 C4.79695161,4.70638298 4.76716438,4.85531915 4.82673884,4.97446809 L5.27354736,5.74893617 C5.33312182,5.86808511 5.48205799,5.92765957 5.63099416,5.86808511 L6.13737714,5.71914894 C6.46503672,6.04680851 6.88205799,6.25531915 7.3288665,6.40425532 L7.44801544,6.9106383 C7.47780267,7.02978723 7.59695161,7.14893617 7.74588778,7.14893617 L8.6395048,7.14893617 C8.78844097,7.14893617 8.90758991,7.05957447 8.93737714,6.9106383 L9.05652608,6.40425532 C9.50333459,6.28510638 9.89056863,6.04680851 10.2480154,5.71914894 L10.7543984,5.86808511 C10.8735474,5.89787234 11.0224835,5.86808511 11.1118452,5.74893617 L11.5586537,4.97446809 C11.6182282,4.85531915 11.588441,4.70638298 11.4990793,4.61702128 L11.1416325,4.25957447 C11.2012069,4.0212766 11.2012069,3.81276596 11.2012069,3.57446809 C11.2012069,3.33617021 11.1714197,3.12765957 11.1416325,2.8893617 L11.4990793,2.53191489 C11.588441,2.44255319 11.6182282,2.29361702 11.5586537,2.17446809 L11.1118452,1.4 C11.0522708,1.28085106 10.9033346,1.2212766 10.7543984,1.28085106 L10.2480154,1.42978723 C9.92035587,1.10212766 9.50333459,0.893617021 9.05652608,0.744680851 L8.93737714,0.238297872 C8.87780267,0.0893617021 8.75865374,0 8.60971757,0 L7.71610055,0 Z M8.16290906,2.68085106 C8.66929204,2.68085106 9.05652608,3.06808511 9.05652608,3.57446809 C9.05652608,4.08085106 8.66929204,4.46808511 8.16290906,4.46808511 C7.65652608,4.46808511 7.26929204,4.08085106 7.26929204,3.57446809 C7.26929204,3.06808511 7.65652608,2.68085106 8.16290906,2.68085106 Z M2.9501431,5.36170213 C2.80120693,5.36170213 2.68205799,5.45106383 2.65227076,5.6 L2.53312182,6.10638298 C2.08631331,6.22553191 1.69907927,6.46382979 1.34163246,6.79148936 L0.835249483,6.64255319 C0.716100547,6.61276596 0.567164377,6.64255319 0.477802674,6.76170213 L0.0309941638,7.53617021 C-0.0285803043,7.65531915 0.00120692972,7.80425532 0.0905686318,7.89361702 L0.44801544,8.25106383 C0.44801544,8.4893617 0.418228206,8.69787234 0.418228206,8.93617021 C0.418228206,9.17446809 0.44801544,9.38297872 0.477802674,9.6212766 L0.120355866,9.9787234 C0.0309941638,10.0680851 0.00120692972,10.2170213 0.0607813978,10.3361702 L0.507589908,11.1106383 C0.567164377,11.2297872 0.716100547,11.2893617 0.865036717,11.2297872 L1.3714197,11.0808511 C1.69907927,11.4085106 2.11610055,11.6170213 2.56290906,11.7659574 L2.68205799,12.2723404 C2.71184523,12.3914894 2.83099416,12.5106383 2.97993033,12.5106383 L3.87354736,12.5106383 C4.02248353,12.5106383 4.14163246,12.4212766 4.1714197,12.2723404 L4.29056863,11.7659574 C4.73737714,11.6468085 5.12461119,11.4085106 5.48205799,11.0808511 L5.98844097,11.2297872 C6.10758991,11.2595745 6.25652608,11.2297872 6.34588778,11.1106383 L6.79269629,10.3361702 C6.85227076,10.2170213 6.82248353,10.0680851 6.73312182,9.9787234 L6.37567501,9.6212766 C6.43524948,9.38297872 6.43524948,9.17446809 6.43524948,8.93617021 C6.43524948,8.69787234 6.40546225,8.4893617 6.37567501,8.25106383 L6.73312182,7.89361702 C6.82248353,7.80425532 6.85227076,7.65531915 6.79269629,7.53617021 L6.34588778,6.76170213 C6.28631331,6.64255319 6.13737714,6.58297872 5.98844097,6.64255319 L5.48205799,6.79148936 C5.15439842,6.46382979 4.73737714,6.25531915 4.29056863,6.10638298 L4.1714197,5.6 C4.14163246,5.48085106 4.02248353,5.36170213 3.87354736,5.36170213 L2.9501431,5.36170213 Z M9.80120693,6.85106383 C9.65227076,6.85106383 9.53312182,6.94042553 9.50333459,7.0893617 L9.38418565,7.59574468 C8.93737714,7.71489362 8.5501431,7.95319149 8.19269629,8.28085106 L7.68631331,8.13191489 C7.56716438,8.10212766 7.41822821,8.13191489 7.3288665,8.25106383 L6.88205799,9.02553191 C6.82248353,9.14468085 6.85227076,9.29361702 6.94163246,9.38297872 L7.29907927,9.74042553 C7.29907927,9.9787234 7.26929204,10.187234 7.26929204,10.4255319 C7.26929204,10.6638298 7.29907927,10.8723404 7.3288665,11.1106383 L6.9714197,11.4680851 C6.88205799,11.5574468 6.85227076,11.706383 6.91184523,11.8255319 L7.35865374,12.6 C7.41822821,12.7191489 7.56716438,12.7787234 7.71610055,12.7191489 L8.22248353,12.5702128 C8.5501431,12.8978723 8.96716438,13.106383 9.41397289,13.2553191 L9.53312182,13.7617021 C9.56290906,13.8808511 9.68205799,14 9.83099416,14 L10.7246112,14 C10.8735474,14 10.9926963,13.9106383 11.0224835,13.7617021 L11.1416325,13.2553191 C11.588441,13.1361702 11.975675,12.8978723 12.3331218,12.5702128 L12.8395048,12.7191489 C12.9586537,12.7489362 13.1075899,12.7191489 13.1969516,12.6 L13.6437601,11.8255319 C13.7033346,11.706383 13.6735474,11.5574468 13.5841857,11.4680851 L13.2267388,11.1106383 C13.2863133,10.8723404 13.2863133,10.6638298 13.2863133,10.4255319 C13.2863133,10.187234 13.2565261,9.9787234 13.2267388,9.74042553 L13.5841857,9.38297872 C13.6735474,9.29361702 13.7033346,9.14468085 13.6437601,9.02553191 L13.1969516,8.25106383 C13.1373771,8.13191489 12.988441,8.07234043 12.8395048,8.13191489 L12.3331218,8.28085106 C12.0054622,7.95319149 11.588441,7.74468085 11.1416325,7.59574468 L11.0224835,7.0893617 C10.9926963,6.97021277 10.8735474,6.85106383 10.7246112,6.85106383 L9.80120693,6.85106383 Z M3.39695161,8.04255319 C3.90333459,8.04255319 4.29056863,8.42978723 4.29056863,8.93617021 C4.29056863,9.44255319 3.90333459,9.82978723 3.39695161,9.82978723 C2.89056863,9.82978723 2.50333459,9.44255319 2.50333459,8.93617021 C2.50333459,8.42978723 2.89056863,8.04255319 3.39695161,8.04255319 Z M10.2480154,9.23404255 C10.9033346,9.23404255 11.4395048,9.77021277 11.4395048,10.4255319 C11.4395048,11.0808511 10.9033346,11.6170213 10.2480154,11.6170213 C9.59269629,11.6170213 9.05652608,11.0808511 9.05652608,10.4255319 C9.05652608,9.77021277 9.59269629,9.23404255 10.2480154,9.23404255 Z" id="Shape"></path>
                </g>
            </g>
        </g>
    </g>
</svg>