<svg viewBox="0 0 14 14" xmlns="http://www.w3.org/2000/svg"><path d="M7.6 8.4l-3.1 3.1-.7.7c-.3.3-.6.4-1 .4-.8 0-1.4-.6-1.4-1.4 0-.4.2-.7.4-1l3.8-3.8c-.2-.1-.4-.1-.7-.1-.8 0-1.5.3-2 .8L.8 9.2c-.5.5-.8 1.2-.8 2C0 12.7 1.3 14 2.8 14c.8 0 1.5-.3 2-.8l2.1-2.1c.5-.5.8-1.2.8-2 0-.3 0-.5-.1-.7zM14 2.8C14 1.3 12.7 0 11.2 0c-.8 0-1.5.3-2 .8L7.1 2.9c-.5.5-.8 1.2-.8 2 0 .3 0 .5.1.7l3.1-3.1.7-.7c.3-.3.6-.4 1-.4.8 0 1.4.6 1.4 1.4 0 .4-.2.7-.4 1L8.4 7.6c.2.1.5.1.7.1.8 0 1.5-.3 2-.8l2.1-2.1c.5-.5.8-1.2.8-2zm-10.5 7c0 .4.3.7.7.7.2 0 .4-.1.5-.2l5.6-5.6c.1-.1.2-.3.2-.5 0-.4-.3-.7-.7-.7-.2 0-.4.1-.5.2L7.9 5.1 6.5 6.5 5.1 7.9 3.7 9.3c-.1.1-.2.3-.2.5z" fill="#4d5969"/></svg>