<?xml version="1.0" encoding="UTF-8"?>
<svg width="14px" height="14px" viewBox="0 0 14 14" version="1.1" xmlns="http://www.w3.org/2000/svg" xmlns:xlink="http://www.w3.org/1999/xlink">
    <!-- Generator: Sketch 59 (86127) - https://sketch.com -->
    <title>HDL/Icon/Standard/refresh</title>
    <desc>Created with Sketch.</desc>
    <g id="Colors" stroke="none" stroke-width="1" fill="none" fill-rule="evenodd">
        <g id="Main-Icons" transform="translate(-623.000000, -1300.000000)" fill="#4D5969">
            <g id="Refresh" transform="translate(602.000000, 1282.000000)">
                <g id="HDL/Icon/Standard/refresh" transform="translate(21.000000, 18.000000)">
                    <path d="M13.3,0.727272727 C12.915,0.727272727 12.6,1.05454545 12.6,1.45454545 L12.6,2.95272727 C11.326,1.17090909 9.303,0 7,0 C3.136,0 0,3.25818182 0,7.27272727 C0,7.67272727 0.315,8 0.7,8 C1.085,8 1.4,7.67272727 1.4,7.27272727 C1.4,4.05818182 3.906,1.45454545 7,1.45454545 C8.764,1.45454545 10.332,2.31272727 11.354,3.63636364 L10.5,3.63636364 C10.115,3.63636364 9.8,3.96363636 9.8,4.36363636 C9.8,4.76363636 10.115,5.09090909 10.5,5.09090909 L13.3,5.09090909 C13.685,5.09090909 14,4.76363636 14,4.36363636 L14,1.45454545 C14,1.05454545 13.685,0.727272727 13.3,0.727272727 Z M13.3,6 C12.915,6 12.6,6.32727273 12.6,6.72727273 C12.6,9.94181818 10.094,12.5454545 7,12.5454545 C5.236,12.5454545 3.668,11.6872727 2.646,10.3636364 L3.5,10.3636364 C3.885,10.3636364 4.2,10.0363636 4.2,9.63636364 C4.2,9.23636364 3.885,8.90909091 3.5,8.90909091 L0.7,8.90909091 C0.315,8.90909091 0,9.23636364 0,9.63636364 L0,12.5454545 C0,12.9454545 0.315,13.2727273 0.7,13.2727273 C1.085,13.2727273 1.4,12.9454545 1.4,12.5454545 L1.4,11.0472727 C2.674,12.8290909 4.697,14 7,14 C10.864,14 14,10.7418182 14,6.72727273 C14,6.32727273 13.685,6 13.3,6 Z" id="Shape"></path>
                </g>
            </g>
        </g>
    </g>
</svg>