<svg viewBox="0 0 34 31" fill="none" xmlns="http://www.w3.org/2000/svg"><ellipse rx="15.517" ry="2.311" transform="matrix(1 0 0 -1 15.517 27.96)" fill="#EFF2F4"/><rect x="1.321" y="15.084" width="25.09" height="12.197" rx="4" fill="#629D00" stroke="#629D00"/><rect x="1.321" y="15.084" width="25.09" height="12.197" rx="4" fill="#69C800"/><rect x="2.505" y="16.448" width="23" height="9.686" rx="4" fill="#AADE63"/><path fill-rule="evenodd" clip-rule="evenodd" d="M6.226 15.515a4 4 0 00-4 4v.78a4 4 0 013.998-3.874h15.348a4 4 0 014 4v3.73a4.09 4.09 0 00.002-.126v-4.51a4 4 0 00-4-4H6.226z" fill="#D6F4BC"/><ellipse cx="5.92" cy="21.307" rx="1.394" ry="1.435" fill="#7ACE00"/><ellipse cx="22.09" cy="21.273" rx="1.394" ry="1.435" fill="#7ACE00"/><ellipse cx="14.144" cy="21.398" rx="3.485" ry="3.587" fill="#7ACE00"/><path fill-rule="evenodd" clip-rule="evenodd" d="M15.969 21.723a1.084 1.084 0 00-.173-.32 1.29 1.29 0 00-.691-.45c-.062-.015-.165-.042-.308-.076-.134-.035-.28-.07-.43-.107-.15-.038-.284-.073-.407-.103a4.695 4.695 0 00-.207-.05 1.05 1.05 0 01-.404-.198.45.45 0 01-.153-.362c0-.11.027-.202.08-.274a.618.618 0 01.208-.176 1.07 1.07 0 01.276-.091c.1-.02.2-.03.296-.03.284 0 .519.056.703.175.184.114.288.316.311.594h.822c0-.228-.05-.43-.146-.602a1.338 1.338 0 00-.392-.438 1.836 1.836 0 00-.572-.267 3.225 3.225 0 00-.288-.053v-.416a.384.384 0 00-.768 0v.412a1.963 1.963 0 00-.261.05c-.208.049-.392.129-.553.232-.162.107-.292.24-.392.4-.1.164-.15.354-.15.572 0 .114.015.225.05.335.034.11.088.214.169.313.08.099.184.187.319.267.134.08.303.144.503.194.326.08.599.145.822.198.223.05.415.107.584.16a.705.705 0 01.264.168c.081.08.123.202.123.37 0 .08-.019.16-.053.24a.52.52 0 01-.173.21c-.08.06-.18.11-.311.148a1.992 1.992 0 01-.926.004 1.228 1.228 0 01-.38-.164.784.784 0 01-.258-.29.911.911 0 01-.092-.426h-.818c.004.27.058.503.165.7.104.199.246.359.423.485s.38.22.618.282c.104.027.215.046.327.06v.416a.384.384 0 00.768 0v-.4c.115-.011.234-.03.346-.057.222-.05.422-.13.599-.24.177-.11.319-.252.426-.423.108-.172.161-.381.161-.625 0-.118-.019-.233-.057-.347z" fill="#fff"/><g><rect x="6.63" y="7.337" width="25.119" height="11.978" rx="4" transform="rotate(21 6.63 7.337)" fill="#629D00" stroke="#629D00"/><rect x="6.63" y="7.337" width="25.119" height="11.978" rx="4" transform="rotate(21 6.63 7.337)" fill="#69C800"/><rect x="7.258" y="9.012" width="23.026" height="9.512" rx="4" transform="rotate(21 7.258 9.012)" fill="#AADE63"/><path fill-rule="evenodd" clip-rule="evenodd" d="M11.06 9.49a4 4 0 00-5.168 2.3l-.274.713a4 4 0 015.12-2.183l14.354 5.51a4 4 0 012.3 5.168l-1.261 3.288.047-.118 1.536-4A4 4 0 0025.413 15L11.06 9.49z" fill="#D6F4BC"/><ellipse cx="8.739" cy="14.692" rx="1.396" ry="1.409" transform="rotate(21 8.74 14.692)" fill="#7ACE00"/><ellipse cx="23.864" cy="20.462" rx="1.396" ry="1.409" transform="rotate(21 23.864 20.462)" fill="#7ACE00"/><ellipse cx="16.394" cy="17.726" rx="3.489" ry="3.523" transform="rotate(21 16.394 17.726)" fill="#7ACE00"/><path fill-rule="evenodd" clip-rule="evenodd" d="M17.985 18.678a1.059 1.059 0 00-.049-.355 1.278 1.278 0 00-.175-.348 1.518 1.518 0 00-.313-.313l-.26-.18c-.114-.08-.238-.163-.365-.252l-.344-.24c-.1-.071-.16-.11-.177-.12a1.058 1.058 0 01-.307-.326.437.437 0 01-.016-.388.434.434 0 01.172-.222.616.616 0 01.256-.087 1.09 1.09 0 01.29.016c.1.018.198.043.288.078.265.102.464.238.595.413.132.17.158.393.081.657l.768.294c.081-.21.105-.412.076-.604-.03-.192-.1-.375-.212-.542a1.854 1.854 0 00-.691-.603l.146-.38a.38.38 0 00-.225-.488.38.38 0 00-.493.212l-.145.377a2.002 2.002 0 00-.262-.048 1.82 1.82 0 00-.598.015c-.189.04-.358.115-.507.226a1.043 1.043 0 00-.342.47c-.04.105-.064.212-.071.326a.904.904 0 00.048.347c.04.12.107.237.204.359.098.122.233.242.402.359l.698.476c.191.126.35.247.49.357a.709.709 0 01.188.248c.048.103.044.23-.015.384a.583.583 0 01-.135.2.515.515 0 01-.235.13.951.951 0 01-.343.025 2.039 2.039 0 01-.867-.329c-.12-.082-.219-.18-.297-.286a.775.775 0 01-.139-.358.88.88 0 01.064-.424l-.764-.294a1.44 1.44 0 00-.093.702c.027.22.104.417.225.596.12.178.277.339.479.48.087.062.184.12.283.173l-.146.381a.38.38 0 00.225.487.38.38 0 00.493-.211l.14-.367c.112.03.23.056.344.071.226.035.44.033.645-.005.204-.038.386-.116.547-.235.16-.118.285-.291.37-.515.042-.108.064-.22.069-.339z" fill="#fff"/></g><g><rect x="17.576" y="1" width="25.119" height="11.978" rx="4" transform="rotate(52 17.576 1)" fill="#629D00" stroke="#629D00"/><rect x="17.576" y="1" width="25.119" height="11.978" rx="4" transform="rotate(52 17.576 1)" fill="#69C800"/><rect x="17.251" y="2.759" width="23.026" height="9.512" rx="4" transform="rotate(52 17.25 2.759)" fill="#AADE63"/><path fill-rule="evenodd" clip-rule="evenodd" d="M20.264 5.127a4 4 0 00-5.615-.69l-.602.47a4 4 0 015.514.766l9.465 12.116a4 4 0 01-.69 5.614l-2.775 2.169c.034-.025.068-.05.102-.077l3.377-2.638a4 4 0 00.69-5.615L20.263 5.127z" fill="#D6F4BC"/><ellipse cx="15.595" cy="8.391" rx="1.396" ry="1.409" transform="rotate(52 15.595 8.391)" fill="#7ACE00"/><ellipse cx="25.588" cy="21.127" rx="1.396" ry="1.409" transform="rotate(52 25.588 21.127)" fill="#7ACE00"/><ellipse cx="20.593" cy="14.934" rx="3.489" ry="3.523" transform="rotate(52 20.593 14.934)" fill="#7ACE00"/><path fill-rule="evenodd" clip-rule="evenodd" d="M21.467 16.57c.065-.1.112-.21.142-.33.029-.12.037-.25.028-.389a1.523 1.523 0 00-.107-.428c-.026-.058-.069-.156-.13-.289-.056-.127-.12-.263-.183-.404a77.632 77.632 0 00-.26-.577 1.058 1.058 0 01-.096-.438.437.437 0 01.186-.34.434.434 0 01.262-.102.618.618 0 01.264.057c.084.042.164.096.24.163.077.068.147.14.207.215.175.224.275.444.297.66.025.215-.067.42-.268.606l.506.648c.177-.138.303-.3.377-.48.073-.179.108-.371.097-.573a1.851 1.851 0 00-.282-.873l.321-.25a.38.38 0 00.058-.534.38.38 0 00-.531-.073l-.319.25a2.013 2.013 0 00-.2-.177 1.822 1.822 0 00-.52-.296 1.291 1.291 0 00-.551-.067c-.189.02-.367.096-.535.228a1.07 1.07 0 00-.229.242.898.898 0 00-.137.322c-.027.124-.031.258-.01.413.02.154.075.327.16.514.139.306.256.56.353.769.099.205.173.391.236.557a.709.709 0 01.033.31c-.012.113-.08.22-.21.321a.586.586 0 01-.22.103.515.515 0 01-.268-.01.948.948 0 01-.307-.155 2.033 2.033 0 01-.574-.728 1.243 1.243 0 01-.107-.4.775.775 0 01.066-.378.88.88 0 01.273-.33l-.504-.646a1.44 1.44 0 00-.44.554c-.09.202-.127.411-.115.626.012.216.063.434.163.659.043.098.097.197.154.294l-.322.251a.38.38 0 00-.058.534c.13.166.37.2.532.073l.31-.242c.08.084.168.166.257.238.175.145.36.255.555.327.194.073.391.1.59.08.199-.018.395-.102.583-.25.091-.071.168-.156.233-.255z" fill="#fff"/></g></svg>