<svg viewBox="0 0 18 18" fill="none" xmlns="http://www.w3.org/2000/svg">
  <path fill-rule="evenodd" clip-rule="evenodd" d="M16.305 10.942l-1.147-.98a6.286 6.286 0 000-2.025l1.147-.981a.56.56 0 00.163-.617l-.016-.045a7.77 7.77 0 00-1.396-2.415l-.031-.037a.562.562 0 00-.615-.166l-1.424.506a6.172 6.172 0 00-1.745-1.009l-.275-1.488a.561.561 0 00-.452-.45l-.048-.009a7.912 7.912 0 00-2.784 0l-.047.009a.561.561 0 00-.452.45L6.906 3.18a6.16 6.16 0 00-1.734 1.006l-1.434-.51a.56.56 0 00-.614.166l-.032.037a7.809 7.809 0 00-1.396 2.415l-.015.045a.562.562 0 00.162.617l1.161.991a6.16 6.16 0 000 2l-1.16.991a.56.56 0 00-.163.617l.015.045a7.79 7.79 0 001.396 2.415l.032.037c.15.177.395.243.614.166l1.434-.51c.522.43 1.106.77 1.734 1.006l.277 1.495c.042.23.222.409.452.45l.047.01a7.869 7.869 0 002.784 0l.048-.01c.23-.041.41-.22.452-.45l.275-1.488a6.131 6.131 0 001.745-1.009l1.424.506a.56.56 0 00.615-.166l.031-.037a7.809 7.809 0 001.396-2.415l.016-.045a.559.559 0 00-.163-.613zm-2.39-2.8a4.951 4.951 0 010 1.615l-.116.702 1.309 1.12a6.474 6.474 0 01-.746 1.288l-1.626-.576-.55.452a4.896 4.896 0 01-1.388.802l-.667.25-.314 1.699a6.616 6.616 0 01-1.488 0l-.314-1.702-.662-.254c-.499-.19-.963-.46-1.378-.8l-.55-.454-1.636.581a6.614 6.614 0 01-.746-1.289l1.323-1.13-.114-.7a5.04 5.04 0 01-.065-.796c0-.268.021-.536.065-.797l.114-.7-1.323-1.13c.198-.457.449-.888.746-1.29l1.636.582.55-.453c.415-.342.88-.612 1.378-.8l.664-.251.313-1.702a6.612 6.612 0 011.489 0l.313 1.698.668.25c.502.19.97.46 1.388.803l.55.452 1.625-.576c.298.4.547.833.746 1.288l-1.308 1.12.114.698z" fill="#ccc"/>
  <path fill-rule="evenodd" clip-rule="evenodd" d="M9.076 5.693a3.082 3.082 0 100 6.165 3.082 3.082 0 000-6.165zm1.387 4.47c-.371.37-.863.574-1.387.574a1.955 1.955 0 01-1.387-.574 1.954 1.954 0 01-.574-1.387c0-.524.205-1.016.574-1.387a1.947 1.947 0 011.387-.575c.524 0 1.016.203 1.387.575.37.371.575.863.575 1.387 0 .523-.205 1.015-.575 1.387z" fill="#ccc"/>
</svg>
