<svg viewBox="0 0 14 15" xmlns="http://www.w3.org/2000/svg"><filter id="a"><feColorMatrix in="SourceGraphic" values="0 0 0 0 1.000000 0 0 0 0 1.000000 0 0 0 0 1.000000 0 0 0 1.000000 0"/></filter><filter id="b"><feColorMatrix in="SourceGraphic" values="0 0 0 0 0.453512 0 0 0 0 0.490089 0 0 0 0 0.533316 0 0 0 1.000000 0"/></filter><filter id="c"><feColorMatrix in="SourceGraphic" values="0 0 0 0 0.453512 0 0 0 0 0.490089 0 0 0 0 0.533316 0 0 0 1.000000 0"/></filter><g fill="none" fill-rule="evenodd" filter="url(#a)" opacity=".813" transform="translate(-756 -654)"><g filter="url(#b)" transform="translate(756 654)"><g filter="url(#c)"><path d="M12.035 3.178L7.66.617a1.308 1.308 0 00-1.321 0L1.964 3.178a1.321 1.321 0 00-.652 1.141v5.437c0 .475.255.914.667 1.148l4.375 2.487c.4.228.891.228 1.292 0l4.375-2.487a1.32 1.32 0 00.667-1.148V4.319c0-.469-.248-.903-.653-1.14zm-.223 6.578a.44.44 0 01-.222.383l-4.375 2.487a.434.434 0 01-.43 0L2.41 10.139a.44.44 0 01-.223-.383V4.319a.44.44 0 01.218-.38l4.373-2.562a.435.435 0 01.44 0l4.377 2.562a.439.439 0 01.217.38zM7 4.375a2.625 2.625 0 100 5.25 2.625 2.625 0 000-5.25zM7 8.75a1.75 1.75 0 110-3.5 1.75 1.75 0 010 3.5z" fill="#fff" fill-rule="nonzero"/></g></g></g></svg>