<svg viewBox="0 0 24 24" xmlns="http://www.w3.org/2000/svg" xmlns:xlink="http://www.w3.org/1999/xlink"><mask id="a" fill="#fff"><path d="m.00003313.00016h23.89671927v23.9072h-23.89671927z" fill="#fff" fill-rule="evenodd"/></mask><path d="m20.38744 12.46736c-.24.64-.64 1.2-.72 1.2l-1.76 1.76-3.52-3.44 3.44-3.44 1.76 1.76c.56.48 1.04 1.12.8 2.16m-8.88 7.92c-.64-.24-1.2-.64-1.2-.72l-1.76-1.76 3.44-3.44 3.44 3.44-1.76 1.76c-.48.48-1.2.96-2.16.72m-7.92-8.88c.24-.64.64-1.2.72-1.2l1.76-1.76 3.44 3.44-3.44 3.44-1.84-1.76c-.48-.48-.96-1.2-.64-2.16m8.88-7.92c.64.24 1.2.64 1.2.72l1.76 1.76-3.44 3.44-3.44-3.44 1.76-1.76c.48-.48 1.12-1.04 2.16-.72m9.68 4.24-6-6c-.08-.08-1.04-1.04-2.48-1.52-2.08-.72-4.08-.16-5.76 1.52l-6.08 6c-.08.08-1.04 1.04-1.52 2.48-.72 2.08-.16 4.08 1.52 5.76l6 6c.08.08 1.04 1.04 2.48 1.52.56.16 1.2.32 1.76.32 1.44 0 2.8-.64 4-1.76l6-6c.08-.08 1.04-1.04 1.52-2.48.72-2.08.16-4.16-1.44-5.84" fill="#25a6f7" fill-rule="evenodd" mask="url(#a)"/></svg>