<svg viewBox="0 0 20 23" xmlns="http://www.w3.org/2000/svg" xmlns:xlink="http://www.w3.org/1999/xlink"><filter id="a"><feColorMatrix in="SourceGraphic" type="matrix" values="0 0 0 0 0.602710 0 0 0 0 0.652051 0 0 0 0 0.715099 0 0 0 1.000000 0"/></filter><g fill="none" fill-rule="nonzero" filter="url(#a)"><path d="m0 0h17.777778v17.776h-17.777778z" fill="#000" opacity="0"/><path d="m19.0411287 12.8067416-1.0673352-.6225499c-1.1562799-.7114857-1.1562799-2.40126408 0-3.11274972l1.0673352-.62254995c.889446-.53361423 1.1562798-1.6008427.6226122-2.40126405l-.889446-1.51190699c-.5336676-.88935706-1.6010028-1.15616418-2.4015042-.62254995l-1.0673352.62254995c-1.1562799.71148564-2.6683381-.1778714-2.6683381-1.51190699v-1.24509989c0-.97829276-.8005014-1.77871411-1.7788919-1.77871411h-1.77889206c-.9783906 0-1.778892.80042135-1.778892 1.77871411v1.15616418c0 1.33403558-1.5120582 2.22339265-2.668338 1.51190699l-1.06733521-.53361424c-.889446-.53361423-1.95678121-.1778714-2.4015042.62254995l-.88944601 1.51190699c-.44472299.88935706-.17788919 1.95658553.62261221 2.49019977l1.0673352.62254994c1.15627981.62254995 1.15627981 2.40126401 0 3.02381401l-1.0673352.6225499c-.88944601.5336143-1.15627981 1.6008427-.62261221 2.4012641l.88944601 1.511907c.5336676.889357 1.6010028 1.1561641 2.4015042.6225499l1.06733521-.5336142c1.1562798-.7114857 2.668338.1778714 2.668338 1.511907v1.2450999c0 .9782927.8005014 1.7787141 1.778892 1.7787141h1.77889206c.9783905 0 1.7788919-.8004214 1.7788919-1.7787141v-1.1561642c0-1.3340356 1.5120582-2.2233927 2.6683381-1.511907l1.0673352.6225499c.889446.5336142 1.9567812.1778714 2.4015042-.6225499l.889446-1.511907c.444723-.9782928.1778892-2.0455212-.6226122-2.5791355zm-9.07234926 1.4229713c-1.95678121 0-3.55778401-1.6008427-3.55778401-3.5574282 0-1.95658555 1.6010028-3.55742825 3.55778401-3.55742825 1.95678126 0 3.55778406 1.6008427 3.55778406 3.55742825 0 1.9565855-1.6010028 3.5574282-3.55778406 3.5574282z" fill="#747d88"/></g></svg>