<svg viewBox="0 0 16 16" xmlns="http://www.w3.org/2000/svg" xmlns:xlink="http://www.w3.org/1999/xlink"><filter id="a"><feColorMatrix in="SourceGraphic" type="matrix" values="0 0 0 0 1.000000 0 0 0 0 1.000000 0 0 0 0 1.000000 0 0 0 1.000000 0"/></filter><filter id="b"><feColorMatrix in="SourceGraphic" type="matrix" values="0 0 0 0 1.000000 0 0 0 0 1.000000 0 0 0 0 1.000000 0 0 0 1.000000 0"/></filter><filter id="c" height="100%" width="100%" x="0%" y="0%"><feGaussianBlur in="SourceGraphic" stdDeviation="0"/></filter><g fill="none" fill-rule="evenodd" filter="url(#a)" opacity=".6" transform="translate(-418 -814)"><g filter="url(#b)" transform="translate(418 814)"><g fill-rule="nonzero"><path d="m0 0h16v16h-16z" fill="#000" opacity="0"/><path d="m14.5 10.0333333h-2v-1.5333333h1c.2666667 0 .5-.23333333.5-.5s-.2333333-.5-.5-.5h-5v-1.5-.03333333h2c.2666667 0 .5-.23333333.5-.5v-3.96666667c0-.26666667-.2333333-.5-.5-.5h-5c-.26666667 0-.5.23333333-.5.5v3.96666667c0 .26666667.23333333.5.5.5h2v1.53333333h-5c-.26666667 0-.5.23333333-.5.5s.23333333.5.5.5h1v1.5333333h-2c-.26666667 0-.5.2333334-.5.5v3.9666667c0 .2666667.23333333.5.5.5h5c.26666667 0 .5-.2333333.5-.5v-3.9666667c0-.2666666-.23333333-.5-.5-.5h-2v-1.5333333h7v1.5333333h-2c-.26666667 0-.5.2333334-.5.5v3.9666667c0 .2666667.23333333.5.5.5h5c.2666667 0 .5-.2333333.5-.5v-3.9666667c0-.2666666-.2333333-.5-.5-.5zm-8.5-8.0333333h4v2.96666667h-4zm0 12h-4v-2.9666667h4zm8 0h-4v-2.9666667h4z" fill="#dbdbdb" filter="url(#c)"/></g></g></g></svg>