<svg viewBox="0 0 16 16" xmlns="http://www.w3.org/2000/svg"><filter id="a"><feColorMatrix in="SourceGraphic" values="0 0 0 0 1.000000 0 0 0 0 1.000000 0 0 0 0 1.000000 0 0 0 1.000000 0"/></filter><filter id="b"><feColorMatrix in="SourceGraphic" values="0 0 0 0 0.453512 0 0 0 0 0.490089 0 0 0 0 0.533316 0 0 0 1.000000 0"/></filter><g fill="none" fill-rule="evenodd" filter="url(#a)" opacity=".75" transform="translate(-418 -442)"><g filter="url(#b)" opacity=".8" transform="translate(418 442)"><path d="M7.994 0A7.906 7.906 0 004.52.793a.4.4 0 10.349.72 7.19 7.19 0 11-3.133 2.935.4.4 0 10-.697-.394A7.992 7.992 0 107.994 0zM2.067 2.52a.8.8 0 101.599 0 .8.8 0 00-1.599 0zm8.264 1.636a.396.396 0 00-.182-.534 4.875 4.875 0 10-2.151 9.249 4.878 4.878 0 004.814-5.636.4.4 0 00-.79.118 4.07 4.07 0 11-2.237-3.024.396.396 0 00.546-.173zm1.116 1.982a.8.8 0 10.176-1.589.8.8 0 00-.176 1.589zM7.195 7.992a.8.8 0 101.599 0 .8.8 0 00-1.599 0z" fill="#dbdbdb" fill-rule="nonzero"/></g></g></svg>