<svg viewBox="0 0 16 16" xmlns="http://www.w3.org/2000/svg"><filter id="a"><feColorMatrix in="SourceGraphic" values="0 0 0 0 1.000000 0 0 0 0 1.000000 0 0 0 0 1.000000 0 0 0 1.000000 0"/></filter><filter id="b"><feColorMatrix in="SourceGraphic" values="0 0 0 0 1.000000 0 0 0 0 1.000000 0 0 0 0 1.000000 0 0 0 1.000000 0"/></filter><filter id="c" height="100%" width="100%" x="0%" y="0%"><feGaussianBlur in="SourceGraphic"/></filter><g fill="none" fill-rule="evenodd" filter="url(#a)" opacity=".6" transform="translate(-418 -814)"><g filter="url(#b)" transform="translate(418 814)"><path d="M14.5 10.033h-2V8.5h1c.267 0 .5-.233.5-.5s-.233-.5-.5-.5h-5V5.967h2c.267 0 .5-.234.5-.5V1.5c0-.267-.233-.5-.5-.5h-5c-.267 0-.5.233-.5.5v3.967c0 .266.233.5.5.5h2V7.5h-5c-.267 0-.5.233-.5.5s.233.5.5.5h1v1.533h-2c-.267 0-.5.234-.5.5V14.5c0 .267.233.5.5.5h5c.267 0 .5-.233.5-.5v-3.967c0-.266-.233-.5-.5-.5h-2V8.5h7v1.533h-2c-.267 0-.5.234-.5.5V14.5c0 .267.233.5.5.5h5c.267 0 .5-.233.5-.5v-3.967c0-.266-.233-.5-.5-.5zM6 2h4v2.967H6zm0 12H2v-2.967h4zm8 0h-4v-2.967h4z" fill="#dbdbdb" filter="url(#c)" fill-rule="nonzero"/></g></g></svg>