<svg viewBox="0 0 16 16" xmlns="http://www.w3.org/2000/svg"><filter id="a"><feColorMatrix in="SourceGraphic" values="0 0 0 0 1.000000 0 0 0 0 1.000000 0 0 0 0 1.000000 0 0 0 1.000000 0"/></filter><g fill="none" fill-rule="evenodd" filter="url(#a)" opacity=".6" transform="translate(-418 -332)"><path d="M426 340.889c-2.489 0-4.444-1.956-4.444-4.445S423.51 332 426 332s4.444 1.956 4.444 4.444-1.955 4.445-4.444 4.445zm0-.889c1.956 0 3.556-1.6 3.556-3.556s-1.6-3.555-3.556-3.555-3.556 1.6-3.556 3.555c0 1.956 1.6 3.556 3.556 3.556zm4.889 8c-1.245 0-2.222-.978-2.222-2.222s.977-2.222 2.222-2.222 2.222.977 2.222 2.222A2.2 2.2 0 01430.89 348zm0-.889c.711 0 1.333-.622 1.333-1.333s-.622-1.334-1.333-1.334-1.333.623-1.333 1.334c0 .71.622 1.333 1.333 1.333zm-.445-8h.89v4.445h-.89zm.89 0h1.777V340h-1.778zm0 1.778h1.777v.889h-1.778zM426 340l-.8.978c-3.111.355-5.422 2.933-5.422 6.133h-.89v-.889h.09c.444-3.466 3.378-6.222 7.022-6.222zm0 0l-.8.978c-3.111.355-5.422 2.933-5.422 6.133h-.89v-.889h.09c.444-3.466 3.378-6.222 7.022-6.222z" fill="#fff" fill-rule="nonzero"/></g></svg>