<svg viewBox="0 0 16 16" xmlns="http://www.w3.org/2000/svg"><filter id="a"><feColorMatrix in="SourceGraphic" values="0 0 0 0 1.000000 0 0 0 0 1.000000 0 0 0 0 1.000000 0 0 0 1.000000 0"/></filter><filter id="b"><feColorMatrix in="SourceGraphic" values="0 0 0 0 0.453512 0 0 0 0 0.490089 0 0 0 0 0.533316 0 0 0 1.000000 0"/></filter><g fill="none" fill-rule="evenodd" filter="url(#a)" opacity=".6" transform="translate(-755 -387)"><g filter="url(#b)" opacity=".901" transform="translate(755 387)"><g fill="#fff" fill-rule="nonzero"><path d="M13.5 2.5h-2.57A1.995 1.995 0 007 3a1.995 1.995 0 003.93.5h2.57a.5.5 0 01.5.5v4.5a.5.5 0 01-.5.5H8.75a.5.5 0 000 1h4.75A1.5 1.5 0 0015 8.5V4a1.5 1.5 0 00-1.5-1.5zM9 4a1 1 0 110-2 1 1 0 010 2z"/><path d="M13 11c-.896 0-1.647.594-1.9 1.407H6a.498.498 0 01-.496-.479A1.995 1.995 0 005 8a1.99 1.99 0 00-1.722 1H2.5a.5.5 0 01-.5-.5V4a.5.5 0 01.5-.5h3.25a.5.5 0 000-1H2.5A1.5 1.5 0 001 4v4.5A1.5 1.5 0 002.5 10H3c.001.91.62 1.705 1.502 1.93A1.499 1.499 0 006 13.408h5.042A2 2 0 1013 11zm-9-1a1 1 0 112 0 1 1 0 01-2 0zm9 4a1 1 0 110-2 1 1 0 010 2z"/></g></g></g></svg>