<svg viewBox="0 0 16 16" xmlns="http://www.w3.org/2000/svg"><filter id="a"><feColorMatrix in="SourceGraphic" values="0 0 0 0 1.000000 0 0 0 0 1.000000 0 0 0 0 1.000000 0 0 0 1.000000 0"/></filter><filter id="b"><feColorMatrix in="SourceGraphic" values="0 0 0 0 1.000000 0 0 0 0 1.000000 0 0 0 0 1.000000 0 0 0 1.000000 0"/></filter><g fill="none" fill-rule="evenodd" filter="url(#a)" opacity=".75" transform="translate(-755 -282)"><g filter="url(#b)" transform="translate(755 282)"><g fill-rule="nonzero"><g fill="#dbdbdb"><path d="M14.374 11.034l-1.81-3.143a.482.482 0 00-.417-.243H8.525a.469.469 0 00-.416.243l-1.811 3.143a.493.493 0 000 .48l1.81 3.142a.482.482 0 00.417.243h3.622c.173 0 .333-.09.416-.243l1.811-3.142a.462.462 0 000-.48zm-2.502 2.905H8.8l-1.536-2.662L8.8 8.614h3.072l1.536 2.663z"/><path d="M10.374 9.747a1.53 1.53 0 100 3.06 1.53 1.53 0 000-3.06zm0 2.093a.57.57 0 11.57-.57.57.57 0 01-.57.57z"/><path d="M6.458 13.94H2.662a.145.145 0 01-.147-.148V2.208c0-.083.064-.147.147-.147h7.002l2.534 2.534v1.997c0 .262.218.48.48.48s.48-.218.48-.48V4.403a.48.48 0 00-.14-.339l-2.816-2.816a.48.48 0 00-.34-.14h-7.2c-.608 0-1.107.498-1.107 1.106v11.578c0 .608.5 1.107 1.107 1.107h3.796c.262 0 .48-.217.48-.48s-.218-.48-.48-.48z"/></g><path d="M10.438 5.011a.483.483 0 00-.48-.48h-5.76c-.262 0-.48.218-.48.48s.218.48.48.48h5.76a.48.48 0 00.48-.48zm-6.24 2.656c-.262 0-.48.218-.48.48s.218.48.48.48h2.304c.263 0 .48-.217.48-.48s-.217-.48-.48-.48z" fill="#d2d2d2"/></g></g></g></svg>