<svg viewBox="0 0 27 27" xmlns="http://www.w3.org/2000/svg"><filter id="a"><feColorMatrix in="SourceGraphic" values="0 0 0 0 1.000000 0 0 0 0 1.000000 0 0 0 0 1.000000 0 0 0 1.000000 0"/></filter><g fill="none" fill-rule="evenodd" filter="url(#a)"><path d="M22 0a5 5 0 015 5v17a5 5 0 01-5 5H5a5 5 0 01-5-5V5a5 5 0 015-5zm-1 1H6a5 5 0 00-5 5v15a5 5 0 005 5h15a5 5 0 005-5V6a5 5 0 00-5-5z" fill="#cdcaca" opacity=".5"/><path d="M13.656 8H19v4h-5.344zm0 12v-6.656H19V20zM7 20v-4h5.344v4zm0-5.344V8h5.344v6.656z" fill="#fff" fill-rule="nonzero"/></g></svg>