<svg viewBox="0 0 18 20" xmlns="http://www.w3.org/2000/svg" xmlns:xlink="http://www.w3.org/1999/xlink"><filter id="a"><feColorMatrix in="SourceGraphic" type="matrix" values="0 0 0 0 0.602710 0 0 0 0 0.652051 0 0 0 0 0.715099 0 0 0 1.000000 0"/></filter><g fill="none" filter="url(#a)"><path d="m0 0h16v16h-16z" fill="#000" opacity="0"/><path d="m17.1370158 11.5272202-.9606017-.560351c-1.0406518-.6404011-1.0406518-2.16135379 0-2.80175491l.9606017-.56035098c.8005014-.48030084 1.0406518-1.44090253.560351-2.16135379l-.8005014-1.36085237c-.4803009-.80050141-1.4409025-1.04065183-2.1613538-.56035099l-.9606017.56035099c-1.0406518.64040111-2.4015042-.16010028-2.4015042-1.36085238v-1.12070197c0-.88055154-.7204513-1.6010028-1.60100279-1.6010028h-1.60100282c-.88055153 0-1.60100279.72045126-1.60100279 1.6010028v1.04065182c0 1.20075211-1.36085238 2.00125351-2.40150421 1.36085238l-.96060168-.48030084c-.80050141-.48030084-1.76110309-.16010027-2.16135378.56035099l-.80050141 1.36085237c-.4002507.80050141-.16010027 1.76110309.56035099 2.24140393l.96060168.56035099c1.04065183.56035099 1.04065183 2.16135376 0 2.72170476l-.96060168.560351c-.80050141.4803008-1.04065183 1.4409025-.56035099 2.1613538l.80050141 1.3608523c.48030084.8005014 1.44090252 1.0406519 2.16135378.560351l.96060168-.4803008c1.04065183-.6404011 2.40150421.1601003 2.40150421 1.3608524v1.1207019c0 .8805516.72045126 1.6010028 1.60100279 1.6010028h1.60100282c.88055149 0 1.60100279-.7204512 1.60100279-1.6010028v-1.0406518c0-1.2007521 1.3608524-2.0012535 2.4015042-1.3608524l.9606017.560351c.8005014.4803008 1.7611031.1601003 2.1613538-.560351l.8005014-1.3608524c.4002507-.8805515.1601003-1.8411532-.560351-2.321454zm-8.1651143 1.2808022c-1.76110309 0-3.20200561-1.4409025-3.20200561-3.20200558 0-1.76110309 1.44090252-3.20200562 3.20200561-3.20200562 1.7611031 0 3.2020056 1.44090253 3.2020056 3.20200562 0 1.76110308-1.4409025 3.20200558-3.2020056 3.20200558z" fill="#747d88"/></g></svg>