<svg viewBox="0 0 26 19" xmlns="http://www.w3.org/2000/svg"><path d="m15.5 0c3.5898509 0 6.5 2.91014913 6.5 6.5 0 .23515664-.0124875.46739666-.0368357.69609311 2.32746.64150182 4.0368357 2.77308131 4.0368357 5.30390689v1c0 3.0375661-2.4624339 5.5-5.5 5.5h-15c-3.03756612 0-5.5-2.4624339-5.5-5.5v-1c0-2.1375915 1.21944588-3.99036618 3.00062188-4.90060826l-.00062188-.59939174c0-2.76142375 2.23857625-5 5-5h1c.55169153 0 1.0825141.08935079 1.578786.25437074 1.1904569-1.38024415 2.9537538-2.25437074 4.921214-2.25437074zm0 2c-1.2445017 0-2.4029328.50576771-3.2430126 1.38074444l-.1637024.17987767-.8747113 1.01416113-1.27085255-.4225829c-.22637713-.07527475-.46192173-.12325007-.70381544-.14253305l-.24390571-.00966729h-1c-1.59768088 0-2.90366088 1.24891996-2.99490827 2.82186667l-.00509173.17605831.00189215 1.82477308-1.09115658.55761846c-1.10261766.56347547-1.83096342 1.66583568-1.90457706 2.91091648l-.00615851.208767v1c0 1.8685634 1.4642776 3.3951264 3.3079648 3.4948211l.1920352.0051789h15c1.8685634 0 3.3951264-1.4642776 3.4948211-3.3079648l.0051789-.1920352v-1c0-1.5189276-.9766664-2.84600366-2.3825063-3.31900564l-.1857593-.05679797-1.6371085-.45122499.1797777-1.68861137c.0170121-.15979056.0255964-.32135914.0255964-.48436003 0-2.48528137-2.0147186-4.5-4.5-4.5zm2.0337228 5.77945701c.3675827.35324262.406589.91980992.1094271 1.31809047l-.0812983.09584333-5.2802735 5.49462889c-.3740071.3891902-.9819017.4071337-1.3777576.0613927l-.0873844-.0862389-2.56054685-2.8520508c-.36895729-.410961-.33490655-1.0432097.07605447-1.412167.37934863-.340576.94725009-.3377605 1.32256979-.0120801l.08959724.0881345 1.84088925 2.0509899 4.534789-4.71841425c.3826795-.39821457 1.0157193-.41080823 1.4139338-.02812874z" fill="#49b528"/></svg>