<svg viewBox="0 0 23 17" xmlns="http://www.w3.org/2000/svg"><path d="M13.712 0a5.75 5.75 0 015.717 6.366A4.869 4.869 0 0123 11.058v.884a4.865 4.865 0 01-4.865 4.866H4.865A4.865 4.865 0 010 11.942v-.884c0-1.891 1.079-3.53 2.654-4.335v-.53a4.423 4.423 0 014.423-4.424h.885c.488 0 .957.08 1.396.225A5.734 5.734 0 0113.712 0zm0 1.77c-1.101 0-2.126.447-2.87 1.22l-.144.16-.774.897L8.8 3.673a2.633 2.633 0 00-.623-.126l-.215-.009h-.885a2.654 2.654 0 00-2.65 2.497l-.004.155.002 1.615-.966.493a3.096 3.096 0 00-1.684 2.575l-.006.185v.884a3.096 3.096 0 002.927 3.092l.17.004h13.269a3.096 3.096 0 003.091-2.926l.005-.17v-.884a3.1 3.1 0 00-2.108-2.936l-.164-.05-1.448-.4.159-1.494a3.98 3.98 0 00-3.958-4.41zm1.799 5.112c.325.312.36.814.096 1.166l-.072.085-4.67 4.86a.885.885 0 01-1.22.055l-.077-.077-2.265-2.523a.885.885 0 011.238-1.26l.079.078 1.628 1.815 4.012-4.174a.885.885 0 011.25-.025z" fill="#4ba132"/></svg>