<svg viewBox="0 0 16 16" xmlns="http://www.w3.org/2000/svg" xmlns:xlink="http://www.w3.org/1999/xlink"><filter id="a"><feColorMatrix in="SourceGraphic" type="matrix" values="0 0 0 0 1.000000 0 0 0 0 1.000000 0 0 0 0 1.000000 0 0 0 1.000000 0"/></filter><filter id="b"><feColorMatrix in="SourceGraphic" type="matrix" values="0 0 0 0 0.453512 0 0 0 0 0.490089 0 0 0 0 0.533316 0 0 0 1.000000 0"/></filter><g fill="none" fill-rule="evenodd" filter="url(#a)" opacity=".75" transform="translate(-418 -442)"><g filter="url(#b)" opacity=".8" transform="translate(418 442)"><path d="m7.99435124.00003637c-1.20356815-.00365015-2.39209047.26751226-3.47496056.79285239-.19862592.09622322-.2816397.33524567-.18541648.53387158.09622321.19862592.33524567.28163971.53387158.18541649.97443054-.47219737 2.04369637-.71600747 3.12650546-.7128944 3.24818566.00126408 6.09209926 2.18024293 6.93850346 5.31621359.8464041 3.13597065-.5149481 6.44995828-3.32139 8.08537718-2.80644205 1.635419-6.36085399 1.1860314-8.67195803-1.0964037-2.31110403-2.2824351-2.80482213-5.83096102-1.20456003-8.65759737.10858217-.19244644.04059674-.43647834-.1518497-.5450605-.19244644-.10858217-.43647834-.04059674-.5450605.1518497-1.77945864 3.14201078-1.23107801 7.08691027 1.33789451 9.62444557 2.56897253 2.5375352 6.52032481 3.0373039 9.64018845 1.2192952 3.1198636-1.8180088 4.633168-5.50214552 3.6920372-8.98825763s-4.1028908-5.90814165-7.71380536-5.9091081zm-5.92693367 2.51914374c0 .28552987.15232837.54937035.39960448.69213529.24727612.14276493.55193286.14276493.79920898 0 .24727612-.14276494.39960448-.40660542.39960448-.69213529 0-.44139092-.35781804-.79920897-.79920897-.79920897-.44139092 0-.79920897.35781805-.79920897.79920897zm8.26382063 1.63677996c.0473184-.09484817.0546802-.20469612.0204413-.30501012-.0342389-.10031399-.1072263-.18273737-.2026609-.22886146-1.74469168-.85832353-3.8325904-.59784761-5.31292791.66281461s-2.07001882 3.28042575-1.50052024 5.13954913c.56949857 1.85912337 2.18926796 3.20207387 4.12171237 3.41731087.17945899.0190615.35979681.0286653.54026527.0287715 1.4253305-.0013857 2.77876491-.6260565 3.70453441-1.7098092.9257694-1.0837527 1.3312664-2.51817616 1.1099004-3.9262124-.0409899-.20986408-.2399229-.35027107-.451393-.31859335-.2114702.03167771-.3605292.22421306-.3382255.43687627.2922491 1.85164897-.7181527 3.66339428-2.44707928 4.38784318-1.72892661.7244489-3.72905709.1741665-4.84409089-1.3327221-1.1150338-1.5068885-1.05648092-3.58050954.14180848-5.02207672s3.22628481-1.87810732 4.91157661-1.05725108c.09489819.0521357.20699253.06318411.31024308.03057866.1032506-.03260544.1886703-.10602671.2364158-.20320779zm1.1156958 1.98203823c.4387019.0485183.8336764-.26777689.8822146-.70647667s-.2677391-.83368861-.7064366-.8822467c-.4386976-.04855809-.8337008.26770129-.8822788.70639667-.0233307.21069442.0379996.42202671.170497.58749851.1324973.16547181.3253062.27152606.5360038.29482819zm-4.25179172 1.85416479c0 .44139092.35781804.79920896.79920896.79920896s.79920896-.35781804.79920896-.79920896c0-.28552987-.15232835-.54937035-.39960447-.69213529s-.55193286-.14276494-.79920898 0-.39960447.40660542-.39960447.69213529z" fill="#dbdbdb" fill-rule="nonzero"/></g></g></svg>