<svg viewBox="0 0 32 32" xmlns="http://www.w3.org/2000/svg"><g fill="none" fill-rule="evenodd"><path d="m0 0h32v32h-32z" fill="#000" opacity="0"/><path d="m18.5 6c3.5898509 0 6.5 2.91014913 6.5 6.5 0 .2351566-.0124875.4673967-.0368357.6960931 2.32746.6415018 4.0368357 2.7730813 4.0368357 5.3039069v1c0 3.0375661-2.4624339 5.5-5.5 5.5h-15c-3.03756612 0-5.5-2.4624339-5.5-5.5v-1c0-2.1375915 1.21944588-3.9903662 3.00062188-4.9006083l-.00062188-.5993917c0-2.7614237 2.23857625-5 5-5h1c.5516915 0 1.0825141.08935079 1.578786.25437074 1.1904569-1.38024415 2.9537538-2.25437074 4.921214-2.25437074zm0 2c-1.2445017 0-2.4029328.50576771-3.2430126 1.38074444l-.1637024.17987767-.8747113 1.01416109-1.2708525-.4225829c-.2263772-.0752747-.4619218-.12325-.7038155-.142533l-.2439057-.0096673h-1c-1.59768088 0-2.90366088 1.24892-2.99490827 2.8218667l-.00509173.1760583.00189215 1.8247731-1.09115658.5576184c-1.10261766.5634755-1.83096342 1.6658357-1.90457706 2.9109165l-.00615851.208767v1c0 1.8685634 1.4642776 3.3951264 3.3079648 3.4948211l.1920352.0051789h15c1.8685634 0 3.3951264-1.4642776 3.4948211-3.3079648l.0051789-.1920352v-1c0-1.5189276-.9766664-2.8460037-2.3825063-3.3190056l-.1857593-.056798-1.6371085-.451225.1797777-1.6886114c.0170121-.1597905.0255964-.3213591.0255964-.48436 0-2.4852814-2.0147186-4.5-4.5-4.5zm2.0337228 5.779457c.3675827.3532426.406589.9198099.1094271 1.3180905l-.0812983.0958433-5.2802735 5.4946289c-.3740071.3891902-.9819017.4071337-1.3777576.0613927l-.0873844-.0862389-2.5605468-2.8520508c-.3689573-.410961-.3349066-1.0432097.0760544-1.412167.3793486-.340576.9472501-.3377605 1.3225698-.0120801l.0895972.0881345 1.8408893 2.0509899 4.534789-4.7184142c.3826795-.3982146 1.0157193-.4108083 1.4139338-.0281288z" fill="#49b528" fill-rule="nonzero"/></g></svg>