<svg viewBox="0 0 20 23" xmlns="http://www.w3.org/2000/svg" xmlns:xlink="http://www.w3.org/1999/xlink"><filter id="a"><feColorMatrix in="SourceGraphic" type="matrix" values="0 0 0 0 1.000000 0 0 0 0 1.000000 0 0 0 0 1.000000 0 0 0 1.000000 0"/></filter><g fill="none" fill-rule="nonzero" filter="url(#a)"><path d="m0 0h17.777778v17.777778h-17.777778z" fill="#000" opacity="0"/><path d="m19.0411287 12.8080224-1.0673352-.6226122c-1.1562799-.7115568-1.1562799-2.40150419 0-3.11306098l1.0673352-.62261221c.889446-.5336676 1.1562798-1.60100281.6226122-2.40150421l-.889446-1.51205819c-.5336676-.88944601-1.6010028-1.15627981-2.4015042-.62261221l-1.0673352.62261221c-1.1562799.71155679-2.6683381-.1778892-2.6683381-1.5120582v-1.24522441c0-.9783906-.8005014-1.778892-1.7788919-1.778892h-1.77889206c-.9783906 0-1.778892.8005014-1.778892 1.778892v1.1562798c0 1.33416901-1.5120582 2.22361502-2.668338 1.5120582l-1.06733521-.5336676c-.889446-.5336676-1.95678121-.17788919-2.4015042.62261221l-.88944601 1.51205819c-.44472299.88944601-.17788919 1.95678121.62261221 2.49044881l1.0673352.62261221c1.15627981.62261221 1.15627981 2.40150418 0 3.02411638l-1.0673352.6226122c-.88944601.5336676-1.15627981 1.6010028-.62261221 2.4015042l.88944601 1.5120582c.5336676.889446 1.6010028 1.1562798 2.4015042.6226122l1.06733521-.5336676c1.1562798-.7115568 2.668338.1778892 2.668338 1.5120582v1.2452244c0 .9783906.8005014 1.778892 1.778892 1.778892h1.77889206c.9783905 0 1.7788919-.8005014 1.7788919-1.778892v-1.1562798c0-1.334169 1.5120582-2.223615 2.6683381-1.5120582l1.0673352.6226122c.889446.5336676 1.9567812.1778892 2.4015042-.6226122l.889446-1.5120582c.444723-.9783906.1778892-2.0457258-.6226122-2.5793934zm-9.07234926 1.4231136c-1.95678121 0-3.55778401-1.6010028-3.55778401-3.557784 0-1.95678119 1.6010028-3.55778399 3.55778401-3.55778399 1.95678126 0 3.55778406 1.6010028 3.55778406 3.55778399 0 1.9567812-1.6010028 3.557784-3.55778406 3.557784z" fill="#747d88"/></g></svg>