<svg viewBox="0 0 32 32" xmlns="http://www.w3.org/2000/svg"><g fill="none" fill-rule="evenodd"><path d="m0 0h32v32h-32z" fill="#000" opacity="0"/><path d="m18.7115385 8c3.1756373 0 5.75 2.5743627 5.75 5.75 0 .2080232-.0110467.4134663-.0325854.6157747 2.0589069.5674824 3.5710469 2.4531104 3.5710469 4.6919176v.8846154c0 2.6870777-2.1783069 4.8653846-4.8653846 4.8653846h-13.26923078c-2.68707773 0-4.86538462-2.1783069-4.86538462-4.8653846v-.8846154c0-1.8909463 1.07874058-3.5299393 2.65439628-4.3351535l-.00055013-.5302311c0-2.4427979 1.98027899-4.42307693 4.42307695-4.42307693h.8846154c.4880348 0 .9576086.07904109 1.3966183.22502027 1.0530965-1.22098521 2.6129361-1.99425104 4.3533817-1.99425104zm0 1.76923077c-1.1009054 0-2.1256714.44740993-2.8688188 1.22142773l-.1448137.1591226-.7737831.8971425-1.1242157-.3738233c-.2002567-.0665892-.4086231-.1090289-.622606-.1260869l-.2157627-.0085519h-.8846154c-1.4133331 0-2.56862311 1.1048139-2.64934196 2.4962667l-.00450517.1557439.00167478 1.6142223-.9652539.4932779c-.97539254.4984591-1.61969841 1.4736239-1.68481816 2.5750415l-.00544792.1846785v.8846154c0 1.6529599 1.29532249 3.0033811 2.92627655 3.0915725l.1698773.0045813h13.26923078c1.6529599 0 3.0033811-1.2953225 3.0915725-2.9262765l.0045813-.1698773v-.8846154c0-1.3436667-.8639741-2.5176186-2.1076017-2.9360434l-.1643255-.0502444-1.4482114-.3991606.1590342-1.4937716c.0150491-.1413531.0226429-.2842792.0226429-.4284723 0-2.1985181-1.7822511-3.98076923-3.9807692-3.98076923zm1.7990625 5.11259663c.3251693.3124838.3596748.813678.0968009 1.1660031l-.0719178.0847844-4.6710111 4.8606333c-.3308525.3442836-.8686054.3601567-1.2187856.0543089l-.0773016-.0762883-2.2650992-2.522968c-.3263853-.3635424-.2962634-.9228393.067279-1.2492246.3355776-.3012788.837952-.2987881 1.1699656-.0106863l.0792591.0779652 1.6284789 1.8143372 4.0115442-4.1739818c.3385242-.3522668.8985208-.3634073 1.2507876-.0248831z" fill="#4ba132" fill-rule="nonzero"/></g></svg>