<svg viewBox="0 0 26 19" xmlns="http://www.w3.org/2000/svg"><path d="M15.5 0a6.5 6.5 0 016.463 7.196A5.504 5.504 0 0126 12.5v1a5.5 5.5 0 01-5.5 5.5h-15A5.5 5.5 0 010 13.5v-1a5.5 5.5 0 013-4.9V7a5 5 0 015-5h1c.552 0 1.083.09 1.579.254A6.482 6.482 0 0115.5 0zm0 2a4.479 4.479 0 00-3.243 1.38l-.164.18-.874 1.015-1.271-.423a2.977 2.977 0 00-.704-.142L9 4H8a3 3 0 00-2.995 2.822L5 6.998l.002 1.825-1.091.557a3.5 3.5 0 00-1.905 2.911L2 12.5v1a3.5 3.5 0 003.308 3.495L5.5 17h15a3.5 3.5 0 003.495-3.308L24 13.5v-1a3.504 3.504 0 00-2.383-3.319l-.185-.057-1.637-.451.18-1.689A4.5 4.5 0 0015.5 2zm2.034 5.78a1 1 0 01.11 1.318l-.082.095-5.28 5.495a1 1 0 01-1.378.061l-.088-.086-2.56-2.852a1 1 0 011.399-1.424l.09.088 1.84 2.051 4.535-4.718a1 1 0 011.414-.029z" fill="#49b528"/></svg>