<?xml version="1.0" encoding="UTF-8"?>
<svg viewBox="0 0 24 24" xmlns="http://www.w3.org/2000/svg">
<mask id="a" fill="white">
<path d="m16.5 5c0-0.27614-0.2239-0.5-0.5-0.5s-0.5 0.22386-0.5 0.5v1h-10.5c-0.27614 0-0.5 0.22386-0.5 0.5s0.22386 0.5 0.5 0.5h10.5v1c0 0.27614 0.2239 0.5 0.5 0.5s0.5-0.22386 0.5-0.5v-1h2.5c0.2761 0 0.5-0.22386 0.5-0.5s-0.2239-0.5-0.5-0.5h-2.5v-1zm-12 7c0-0.2761 0.22386-0.5 0.5-0.5h3v-1c0-0.2761 0.22386-0.5 0.5-0.5s0.5 0.2239 0.5 0.5v1h10c0.2761 0 0.5 0.2239 0.5 0.5s-0.2239 0.5-0.5 0.5h-10v1c0 0.2761-0.22386 0.5-0.5 0.5s-0.5-0.2239-0.5-0.5v-1h-3c-0.27614 0-0.5-0.2239-0.5-0.5zm0 5.5c0-0.2761 0.22386-0.5 0.5-0.5h7v-1c0-0.2761 0.2239-0.5 0.5-0.5s0.5 0.2239 0.5 0.5v1h6c0.2761 0 0.5 0.2239 0.5 0.5s-0.2239 0.5-0.5 0.5h-6v1c0 0.2761-0.2239 0.5-0.5 0.5s-0.5-0.2239-0.5-0.5v-1h-7c-0.27614 0-0.5-0.2239-0.5-0.5z" clip-rule="evenodd" fill-rule="evenodd"/>
</mask>
<path d="m15.5 6v1c0.5523 0 1-0.44772 1-1h-1zm0 1h1c0-0.55228-0.4477-1-1-1v1zm1 0v-1c-0.5523 0-1 0.44772-1 1h1zm0-1h-1c0 0.55228 0.4477 1 1 1v-1zm-8.5 5.5v1c0.55228 0 1-0.4477 1-1h-1zm1 0h-1c0 0.5523 0.44772 1 1 1v-1zm0 1v-1c-0.55228 0-1 0.4477-1 1h1zm-1 0h1c0-0.5523-0.44772-1-1-1v1zm4 4.5v1c0.5523 0 1-0.4477 1-1h-1zm1 0h-1c0 0.5523 0.4477 1 1 1v-1zm0 1v-1c-0.5523 0-1 0.4477-1 1h1zm-1 0h1c0-0.5523-0.4477-1-1-1v1zm4-12.5c-0.2761 0-0.5-0.22386-0.5-0.5h2c0-0.82843-0.6716-1.5-1.5-1.5v2zm0.5-0.5c0 0.27614-0.2239 0.5-0.5 0.5v-2c-0.8284 0-1.5 0.67157-1.5 1.5h2zm0 1v-1h-2v1h2zm-11.5 1h10.5v-2h-10.5v2zm0.5-0.5c0 0.27614-0.22386 0.5-0.5 0.5v-2c-0.82843 0-1.5 0.67157-1.5 1.5h2zm-0.5-0.5c0.27614 0 0.5 0.22386 0.5 0.5h-2c0 0.82843 0.67157 1.5 1.5 1.5v-2zm10.5 0h-10.5v2h10.5v-2zm1 2v-1h-2v1h2zm-0.5-0.5c0.2761 0 0.5 0.22386 0.5 0.5h-2c0 0.82843 0.6716 1.5 1.5 1.5v-2zm-0.5 0.5c0-0.27614 0.2239-0.5 0.5-0.5v2c0.8284 0 1.5-0.67157 1.5-1.5h-2zm0-1v1h2v-1h-2zm3.5-1h-2.5v2h2.5v-2zm-0.5 0.5c0-0.27614 0.2239-0.5 0.5-0.5v2c0.8284 0 1.5-0.67157 1.5-1.5h-2zm0.5 0.5c-0.2761 0-0.5-0.22386-0.5-0.5h2c0-0.82843-0.6716-1.5-1.5-1.5v2zm-2.5 0h2.5v-2h-2.5v2zm-1-2v1h2v-1h-2zm-10.5 5.5c-0.82843 0-1.5 0.6716-1.5 1.5h2c0 0.2761-0.22386 0.5-0.5 0.5v-2zm3 0h-3v2h3v-2zm-1 0v1h2v-1h-2zm1.5-1.5c-0.82843 0-1.5 0.67157-1.5 1.5h2c0 0.2761-0.22386 0.5-0.5 0.5v-2zm1.5 1.5c0-0.82843-0.67157-1.5-1.5-1.5v2c-0.27614 0-0.5-0.2239-0.5-0.5h2zm0 1v-1h-2v1h2zm9-1h-10v2h10v-2zm1.5 1.5c0-0.8284-0.6716-1.5-1.5-1.5v2c-0.2761 0-0.5-0.2239-0.5-0.5h2zm-1.5 1.5c0.8284 0 1.5-0.6716 1.5-1.5h-2c0-0.2761 0.2239-0.5 0.5-0.5v2zm-10 0h10v-2h-10v2zm1 0v-1h-2v1h2zm-1.5 1.5c0.82843 0 1.5-0.6716 1.5-1.5h-2c0-0.2761 0.22386-0.5 0.5-0.5v2zm-1.5-1.5c0 0.8284 0.67157 1.5 1.5 1.5v-2c0.27614 0 0.5 0.2239 0.5 0.5h-2zm0-1v1h2v-1h-2zm-2 1h3v-2h-3v2zm-1.5-1.5c0 0.8284 0.67157 1.5 1.5 1.5v-2c0.27614 0 0.5 0.2239 0.5 0.5h-2zm1.5 4c-0.82843 0-1.5 0.6716-1.5 1.5h2c0 0.2761-0.22386 0.5-0.5 0.5v-2zm7 0h-7v2h7v-2zm1 1v-1h-2v1h2zm0-1c0 0.2761-0.2239 0.5-0.5 0.5v-2c-0.8284 0-1.5 0.6716-1.5 1.5h2zm-0.5 0.5c-0.2761 0-0.5-0.2239-0.5-0.5h2c0-0.8284-0.6716-1.5-1.5-1.5v2zm-0.5-0.5v1h2v-1h-2zm7 0h-6v2h6v-2zm1.5 1.5c0-0.8284-0.6716-1.5-1.5-1.5v2c-0.2761 0-0.5-0.2239-0.5-0.5h2zm-1.5 1.5c0.8284 0 1.5-0.6716 1.5-1.5h-2c0-0.2761 0.2239-0.5 0.5-0.5v2zm-6 0h6v-2h-6v2zm-1-1v1h2v-1h-2zm0 1c0-0.2761 0.2239-0.5 0.5-0.5v2c0.8284 0 1.5-0.6716 1.5-1.5h-2zm0.5-0.5c0.2761 0 0.5 0.2239 0.5 0.5h-2c0 0.8284 0.6716 1.5 1.5 1.5v-2zm0.5 0.5v-1h-2v1h2zm-8 0h7v-2h-7v2zm-1.5-1.5c0 0.8284 0.67157 1.5 1.5 1.5v-2c0.27614 0 0.5 0.2239 0.5 0.5h-2z" fill="#383946" mask="url(#a)"/>
</svg>
