<svg viewBox="0 0 211 145" fill="none" xmlns="http://www.w3.org/2000/svg"><path d="M100.818 110.399l-11.011 8.107.725 4.877 29.078-.329 8.243-5.075.791-8.502-27.826.922zM163.459 109.478c1.78.857 6.725 2.835 9.231 0 2.506-2.834 4.022-9.029-3.033-10.215-7.055-1.12-10.55 8.04-6.198 10.215zM163.657 117.584l2.77 2.438s-9.561 1.319-7.583 6.262c1.978 4.943 6.923 8.172 9.89 5.8 2.968-2.373 3.363-4.548 3.363-4.548l2.704 3.691 12.989-9.623s7.385.527 10.352-.461c2.572-.857-3.165-11.205-5.868-13.314-2.308-1.845-6.132 8.964-6.132 8.964-.132 3.295-7.715-6.262-7.385-6.987.33-.725-15.1 7.778-15.1 7.778zM176.316 85.024c1.121-1.384 2.901-6.525 7.385-5.141 4.484 1.384 5.935 2.504 6.198 4.68.198 2.174-1.582 7.579-7.385 7.908-5.802.33-7.187-6.195-6.198-7.447zM10.286 108.092c1.385-1.252 5.275-8.766 17.474-4.152 12.198 4.613 2.835 17.663 1.186 18.454-3.692 1.714-13.121 5.998-18.132-2.636-4.286-7.316-.528-11.666-.528-11.666z" fill="#fff"/><path fill-rule="evenodd" clip-rule="evenodd" d="M116.248 61.494l1.978-1.713 7.451-2.175.528 4.218 2.637 1.977 2.044-3.427 3.231-.528 4.748 5.339-1.715 3.823.989 3.361 4.55.593-.462 7.712-2.373 2.24-2.704-.659-1.318 2.11 1.516 3.031-9.363 4.02-.923-4.81-2.901-.791-1.121 2.768s-3.429 1.054-3.495.33c-.066-.726-4.748-4.483-4.748-4.483l3.627-4.35s-3.165-.593-2.242-4.81l-4.681.065-.198-6.195 2.308-1.912 3.494.593.989-2.109-1.846-4.218z" fill="#fff"/><path d="M192.142 115.801c-.264 0-.396-.264-.462-.396-.395-1.054-.527-2.175-.593-3.229-.066-.857-.132-1.648-.396-2.439-.066-.198.066-.329.198-.395.198-.066.33.066.396.197.066.132.066.33.132.462 0-.066 0-.132.066-.132.066-.132.263-.264.395-.264.33.066.989 1.187 1.121 1.582.594 1.318.66 2.9.264 4.152-.066.198-.264.264-.396.198-.198-.066-.263-.263-.198-.395.33-1.055.264-2.505-.263-3.625v-.066c0-.066-.132-.198-.198-.396 0 .066.066.198.066.264 0 .132.066.264.066.33.198 1.054.198 2.24.198 3.361 0 .395 0 .791-.33.857 0-.066 0-.066-.066-.066zm-.396-3.889v.132c0 .33.066.725.132 1.055-.066-.396-.066-.791-.132-1.187zM193.394 119.1c-.198 0-.396-.066-.594-.198-.329-.264-.527-.725-.461-1.252 0-.198.198-.33.395-.264h.066c.132-.066.264-.198.396-.198.132-.066.264-.197.396-.197.263-.066.395.066.461.131 0 .066.066.066.066.132.198.132.33.396.33.725 0 .462-.198.857-.594 1.055-.132.066-.329.066-.461.066zm-.198-.659c.132.066.264.066.33 0 .132-.066.197-.198.197-.462-.065.132-.263.33-.527.462z" fill="#000"/><path d="M194.648 121.799c-.924 0-1.979-.066-2.902-.066-.923-.066-1.78-.066-2.439-.066-1.847.066-2.968-.263-3.495-.988-.659-.923-.198-2.241.33-3.889l.197-.527c.066-.264.198-.593.264-.923 1.055-3.295 2.638-8.238 5.275-8.238 1.846 0 3.627 3.888 5.341 7.645.66 1.45 1.319 2.834 1.846 3.691.528.791.594 1.516.264 2.043-.527 1.121-2.44 1.318-4.681 1.318zm-5.078-.791c.594 0 1.385 0 2.176.066 2.572.132 6.462.264 7.122-.857.197-.329.066-.79-.264-1.384-.528-.922-1.187-2.306-1.912-3.756-1.451-3.032-3.363-7.25-4.748-7.25-2.176 0-3.692 4.877-4.681 7.777-.132.329-.198.659-.33.923l-.198.527c-.461 1.384-.923 2.636-.461 3.295.395.528 1.318.725 2.901.725.198-.066.329-.066.395-.066zM167.481 109.079c-.461 0-.857-.659-3.231-5.075-.065-.131 0-.329.132-.461.132-.066.33 0 .462.132.923 1.714 2.044 3.823 2.506 4.548 0-.198.065-.462.065-.725.066-1.648.198-4.68 2.374-6.459 1.517-1.187 3.693-1.582 6.528-1.12.198 0 .33.197.264.395 0 .197-.198.329-.396.263-2.637-.395-4.681-.066-6 .989-1.912 1.582-2.044 4.284-2.11 5.932-.066.988-.066 1.45-.462 1.581h-.132z" fill="#000"/><path d="M167.811 111.652c-2.638 0-4.945-1.319-6.132-3.428-1.121-2.043-.923-4.482.527-6.722 2.572-3.362 7.517-3.823 11.276-1.055 1.846 1.384 2.505 3.823 1.714 6.195-.791 2.307-3.165 5.01-7.385 5.01zm-5.077-9.755c-1.319 2.043-1.451 4.218-.462 5.998 1.055 1.911 3.165 3.097 5.539 3.097 3.824 0 6-2.438 6.726-4.547.725-2.175.131-4.284-1.451-5.471-3.429-2.57-7.979-2.175-10.352.923zM182.185 89.966c-.462 0-.858-.659-3.231-5.075-.066-.132 0-.33.131-.461.132-.066.33 0 .462.132.923 1.713 2.044 3.822 2.506 4.547 0-.197 0-.461.066-.725.066-1.647.197-4.68 2.373-6.459 1.517-1.186 3.693-1.582 6.528-1.12.198 0 .33.197.264.395 0 .198-.198.33-.396.264-2.637-.396-4.681-.066-6 .989-1.912 1.581-2.044 4.284-2.11 5.931-.066.989-.066 1.45-.462 1.582h-.131z" fill="#000"/><path d="M182.516 92.534c-2.638 0-4.945-1.318-6.132-3.427-1.121-2.043-.923-4.482.527-6.723 2.572-3.361 7.517-3.822 11.276-1.054 1.846 1.384 2.505 3.823 1.714 6.195-.791 2.307-3.165 5.01-7.385 5.01zm-5.077-9.754c-1.319 2.043-1.451 4.218-.462 5.998 1.055 1.91 3.165 3.097 5.539 3.097 3.824 0 6-2.438 6.726-4.547.725-2.175.131-4.285-1.451-5.47-3.429-2.571-7.978-2.176-10.352.922z" fill="#000"/><path d="M127.852 51.015c4.484 1.186 17.672 3.098 18.397 3.032 3.495-4.944 20.77-20.498 10.089-29.33-17.144-14.236-31.848-6.459-35.541-3.032-4.55 4.219-8.901 21.289-7.846 23.134 1.055 1.846 10.418 5.01 14.901 6.196z" fill="url(#paint0_linear)"/><path d="M141.107 75.665c-.132 0-.198-.066-.264-.132-6.396-8.568 1.319-17.597 8.836-26.231 5.934-6.855 11.473-13.314 10.22-19.378-.791-3.756-4.286-6.986-10.616-9.886-8.374-3.823-16.352-4.416-22.616-1.714-5.143 2.241-8.836 6.657-10.814 13.05-4.088 12.787-4.22 26.034-.33 37.437.066.197-.066.33-.198.395-.197.066-.329-.066-.395-.198-3.891-11.534-3.825-24.98.329-37.831 2.11-6.591 5.869-11.073 11.21-13.446 6.396-2.834 14.638-2.24 23.144 1.714 6.528 3.032 10.154 6.393 11.011 10.348 1.385 6.327-4.285 12.918-10.352 19.904-7.319 8.502-14.902 17.268-8.769 25.44.131.133.066.33-.066.462-.198.066-.264.066-.33.066z" fill="#000"/><path d="M122.315 48.97c8.902 3.493 13.253 4.02 22.023 5.339 1.055-.132 2.638-.396 2.044-1.384-.923-1.648-5.473-3.164-7.253-3.889-5.473-2.307-6.594-2.57-12.264-4.218-3.627-1.055-9.166-2.966-12.594-2.439-1.385.198-1.319 1.318-.33 2.307 2.11 1.846 5.671 3.23 8.374 4.284z" fill="url(#paint1_linear)"/><path d="M143.678 54.706c-.131 0-.263-.066-.329-.264l-.594-.066c-7.846-1.186-12.198-1.845-20.572-5.14-2.704-1.055-6.33-2.44-8.44-4.417-.66-.659-.989-1.318-.791-1.91.131-.33.395-.792 1.318-.99 3.033-.46 7.583.923 11.276 1.978.527.132 1.055.33 1.516.461l1.253.33c4.616 1.318 6 1.713 11.077 3.888.264.132.66.264 1.055.396 2.176.856 5.539 2.175 6.33 3.625.264.395.198.725.066.922-.197.462-.857.66-1.582.791 0 .198-.198.33-.396.264l-.659-.132c-.198 0-.33.066-.396.066-.066.198-.132.198-.132.198zm-28.089-12.128c-.462 0-.857 0-1.187.066-.264.066-.659.198-.791.528-.066.33.132.79.659 1.252 1.978 1.845 5.539 3.23 8.177 4.284 8.374 3.296 12.66 3.889 20.506 5.075l1.319.198c.066 0 .198 0 .264-.066.593-.066 1.648-.264 1.78-.593 0-.066 0-.132-.066-.264-.725-1.252-4.022-2.505-6-3.295a8.252 8.252 0 01-1.055-.462c-5.012-2.109-6.396-2.504-10.946-3.823l-1.253-.395c-.461-.132-.989-.264-1.516-.461-3.099-.857-7.056-2.044-9.891-2.044z" fill="#000"/><path d="M136.556 53.19c-.198 0-.329-.132-.329-.33s.131-.33.329-.33c1.781-.197 3.561-.659 5.275-1.12.989-.263 1.978-.527 2.967-.725.198-.066.33.066.396.264s-.066.33-.264.395c-.989.198-1.978.462-2.901.725-1.78.462-3.561.923-5.473 1.12zM130.556 52.068c-.132 0-.264-.066-.329-.264-.066-.197.065-.33.197-.395 3.033-.923 6.198-1.846 9.429-2.439.198-.066.33.066.396.264s-.066.33-.264.395c-3.165.593-6.264 1.516-9.297 2.439h-.132zM124.292 50.023c-.132 0-.264-.132-.33-.263-.065-.198.066-.33.264-.396 1.055-.263 2.11-.527 3.231-.659a43.433 43.433 0 008.045-1.977c.197-.066.329 0 .395.198.066.197 0 .33-.198.395a43.493 43.493 0 01-8.176 1.977c-1.055.132-2.11.396-3.099.66-.066.065-.132.065-.132.065zM119.28 48.048a.36.36 0 01-.329-.197c-.066-.198 0-.33.197-.396.989-.33 2.11-.593 3.495-.725 3.099-.395 5.671-.79 8.044-1.252.198-.066.33.066.396.264.066.197-.066.33-.264.395-2.373.462-4.945.857-8.044 1.252a14.234 14.234 0 00-3.363.725c-.066-.066-.066-.066-.132-.066zM114.468 45.809c-.132 0-.264-.132-.33-.264-.066-.198.066-.33.264-.395a122.154 122.154 0 019.495-1.384c.198 0 .33.131.33.263 0 .198-.132.33-.264.33-3.099.395-6.264.857-9.495 1.45.066 0 0 0 0 0z" fill="#000"/><path fill-rule="evenodd" clip-rule="evenodd" d="M144.123 24.178a4.438 4.438 0 012.252 3.901l-.068 7.818a4.436 4.436 0 01-2.219 3.806l-7.002 4.041a4.439 4.439 0 01-4.406.019l-6.803-3.852a4.438 4.438 0 01-2.252-3.901l.068-7.818a4.436 4.436 0 012.219-3.806l7.002-4.042a4.439 4.439 0 014.406-.018l6.803 3.852zm-2.475 6.07a2.61 2.61 0 01-3.152 1.874l-6.552-1.773a4.11 4.11 0 00-3.168.42 4.177 4.177 0 00-1.944 2.559 4.232 4.232 0 00.419 3.206 4.161 4.161 0 002.542 1.97 4.108 4.108 0 003.167-.42 4.177 4.177 0 001.944-2.559l.229-.916a.219.219 0 00-.155-.264l-1.101-.298a.218.218 0 00-.269.159l-.224.895c-.373 1.403-1.806 2.238-3.195 1.862-1.384-.375-2.208-1.814-1.837-3.211a2.61 2.61 0 013.152-1.874l6.552 1.773a4.11 4.11 0 003.168-.42 4.177 4.177 0 001.944-2.56 4.232 4.232 0 00-.419-3.206 4.161 4.161 0 00-2.542-1.969 4.107 4.107 0 00-3.167.42 4.178 4.178 0 00-1.944 2.559l-.216.724a.218.218 0 00.152.273l1.101.298a.22.22 0 00.267-.148l.216-.724c.373-1.402 1.806-2.237 3.195-1.861 1.384.375 2.208 1.814 1.837 3.211z" fill="#fff"/><path fill-rule="evenodd" clip-rule="evenodd" d="M118.819 66.172c.132.198.066.395-.132.527a4.615 4.615 0 00-1.384 1.384c-.198.264-.33.527-.462.725-.132.264-.132.396-.132.527 0 .198-.132.396-.395.396-.198 0-.396-.132-.396-.396 0-.263.066-.527.198-.79.132-.264.329-.594.527-.857.462-.594.989-1.12 1.583-1.516.264-.198.461-.198.593 0z" fill="#000"/><path fill-rule="evenodd" clip-rule="evenodd" d="M115.787 61.294c.198-.066.396 0 .462.198a81.386 81.386 0 011.846 4.218c0 .066.066.066.066.132.132.264.264.527.264.857.066.198-.066.395-.264.461s-.396-.066-.462-.263c-.066-.198-.131-.396-.263-.66 0-.066-.066-.131-.066-.197-.594-1.384-1.253-2.769-1.847-4.219 0-.263.132-.46.264-.527zM122.711 58.99c.197-.066.395.066.461.263l.989 3.56c.066.197-.066.395-.264.46-.197.067-.395-.065-.461-.263l-.989-3.559c-.066-.198.066-.395.264-.461z" fill="#000"/><path fill-rule="evenodd" clip-rule="evenodd" d="M123.236 63.337c0-.197.198-.33.396-.33 1.582 0 3.231.528 4.418 1.649a.4.4 0 010 .527.402.402 0 01-.528 0c-.989-.923-2.571-1.45-3.956-1.45-.132 0-.33-.198-.33-.396z" fill="#000"/><path fill-rule="evenodd" clip-rule="evenodd" d="M130.753 59.846c.198.132.264.33.132.527-1.055 1.78-2.11 3.625-3.165 5.405-.132.197-.329.197-.527.132-.198-.132-.198-.33-.132-.528 1.055-1.78 2.176-3.559 3.165-5.404.132-.198.33-.264.527-.132zM136.161 66.173c.132.132.198.33.066.528 0 .066-.066.066-.066.132-.923 1.318-1.912 2.636-2.836 3.888-.131.132-.329.198-.527.066-.132-.132-.198-.33-.066-.527.989-1.318 1.912-2.57 2.835-3.889 0-.066.066-.066.066-.132.132-.132.396-.197.528-.066zM139.459 65.118c.197.131.197.33.066.527-.66.988-1.451 1.911-2.176 2.834-.198.264-.396.527-.594.725-.132.132-.33.198-.527.066-.132-.132-.198-.33-.066-.527l.593-.791c.725-.923 1.451-1.846 2.11-2.769a.642.642 0 01.594-.066z" fill="#000"/><path fill-rule="evenodd" clip-rule="evenodd" d="M136.359 69.006a.348.348 0 01.527.066c.725.79 1.121 1.78 1.517 2.636.066.132.131.198.131.33.066.198 0 .395-.197.461-.198.066-.396 0-.462-.198-.066-.131-.132-.197-.132-.33-.395-.922-.791-1.779-1.45-2.504-.132-.132-.066-.33.066-.461zM132.468 69.533c.198-.131.396-.066.528.132.066.066.132.198.198.264.857 1.318 1.978 3.032 2.176 4.745 0 .198-.132.396-.33.396s-.396-.132-.396-.33c-.197-1.582-1.187-3.097-2.11-4.482-.066-.066-.066-.131-.132-.197-.131-.198-.131-.462.066-.528z" fill="#000"/><path fill-rule="evenodd" clip-rule="evenodd" d="M134.381 74.61c0-.197.198-.329.395-.329 1.517.066 3.1.264 4.616.462.198 0 .33.197.33.395s-.198.33-.396.33c-1.516-.198-3.033-.396-4.55-.462-.197 0-.395-.132-.395-.395z" fill="#000"/><path fill-rule="evenodd" clip-rule="evenodd" d="M140.051 73.685c.197 0 .329.197.329.395-.066 1.978-.263 4.02-.461 5.998-.066.923-.198 1.845-.264 2.768 0 .198-.198.33-.396.33-.197 0-.329-.198-.329-.396.066-.922.198-1.845.263-2.834.198-1.977.396-3.954.462-5.932.066-.197.198-.395.396-.33z" fill="#000"/><path fill-rule="evenodd" clip-rule="evenodd" d="M134.974 81.923c.066-.197.198-.33.395-.33 1.583.264 3.231.396 4.88.528h.066c.198 0 .329.198.329.395 0 .198-.197.33-.395.33h-.066c-1.649-.132-3.297-.264-4.879-.527-.264-.066-.396-.198-.33-.396z" fill="#000"/><path fill-rule="evenodd" clip-rule="evenodd" d="M135.501 79.947c.198.066.33.264.264.462-.264.988-.725 1.78-1.253 2.57-.198.264-.33.527-.527.79-.33.528-.66.99-.989 1.517-.132.198-.33.263-.528.132-.198-.066-.264-.33-.132-.528.33-.527.66-1.12 1.055-1.647.198-.264.33-.528.528-.725.527-.791.923-1.516 1.187-2.373 0-.132.197-.264.395-.198z" fill="#000"/><path fill-rule="evenodd" clip-rule="evenodd" d="M132.007 84.299c.198-.132.396-.066.527.132.264.461.594.989.858 1.45.132.263.263.461.395.725.396.725.857 1.384 1.385 1.911a.4.4 0 010 .528.402.402 0 01-.528 0c-.593-.594-1.055-1.385-1.516-2.11l-.396-.79-.791-1.385c-.132-.131-.066-.33.066-.461zM126.533 86.47c.198-.066.396.066.462.264.395 1.45.791 2.834 1.187 4.284.066.198-.066.395-.264.461s-.396-.066-.462-.263c-.395-1.45-.791-2.834-1.186-4.284 0-.198.065-.462.263-.462z" fill="#000"/><path fill-rule="evenodd" clip-rule="evenodd" d="M134.248 88.45a.512.512 0 01-.132.528c-.923.528-1.912.989-2.901 1.516-.066 0-.066.066-.132.066-.923.461-1.846.923-2.703 1.45a.514.514 0 01-.528-.132c-.066-.198 0-.395.132-.461.923-.462 1.846-.989 2.769-1.45.066 0 .066-.066.132-.066.989-.527 1.912-.989 2.901-1.516.132-.198.396-.132.462.066zM137.679 88.053c-.924 0-1.979.396-2.902.791-.198.066-.395 0-.461-.198-.066-.197 0-.395.198-.461.923-.395 2.044-.857 3.165-.857.197 0 .395.132.395.396 0 .263-.198.33-.395.33z" fill="#000"/><path fill-rule="evenodd" clip-rule="evenodd" d="M135.04 83.44c.197-.066.395 0 .461.132.198.461.462.857.66 1.318.263.593.593 1.12.857 1.713 0 0 0 .067.066.067.131.197.197.46.263.724.066.198-.066.396-.263.462-.198.066-.396-.066-.462-.264s-.132-.33-.198-.593c0 0 0-.066-.066-.066-.263-.593-.593-1.12-.857-1.648-.198-.461-.461-.856-.659-1.318-.066-.198.066-.395.198-.527z" fill="#000"/><path fill-rule="evenodd" clip-rule="evenodd" d="M136.953 81.794c.197.066.263.33.197.462a8.355 8.355 0 01-.725 1.318c-.264.395-.527.79-.725 1.252-.066.198-.33.264-.462.198-.198-.066-.264-.33-.198-.462.198-.46.462-.856.726-1.318.263-.395.527-.79.725-1.252.066-.198.264-.264.462-.198zM142.689 80.806c.066.198.066.395-.132.527-.263.132-.527.33-.791.462-.659.33-1.253.724-1.912 1.12-.198.132-.396.066-.528-.132-.131-.198-.066-.395.132-.527.66-.396 1.319-.791 1.978-1.12.264-.132.528-.264.792-.462.132-.132.329-.066.461.132zM142.69 72.83a.403.403 0 010 .527c-.594.593-1.253 1.054-1.913 1.581l-.791.594c-.132.131-.396.066-.527-.066-.132-.132-.066-.396.066-.528.263-.197.593-.395.857-.659.659-.461 1.253-.922 1.78-1.45a.402.402 0 01.528 0zM138.602 71.974c.131.132.065.395-.066.527-.264.198-.594.395-.858.66-.791.592-1.582 1.185-2.439 1.647-.198.132-.396.066-.528-.132s-.066-.395.132-.527c.791-.462 1.583-1.055 2.374-1.582.33-.198.593-.461.923-.66.132-.131.396-.065.462.067z" fill="#000"/><path fill-rule="evenodd" clip-rule="evenodd" d="M137.678 72.632c.066-.197.263-.33.461-.263.923.263 1.912.395 2.902.461h.131c.264 0 .528.066.792.132.198.066.263.263.198.461-.066.198-.264.264-.462.198s-.33-.066-.594-.132h-.197c-.989-.132-1.978-.264-3.033-.527-.132.066-.198-.132-.198-.33z" fill="#000"/><path fill-rule="evenodd" clip-rule="evenodd" d="M142.359 72.566c.198 0 .33.198.33.396-.066.79-.066 1.648-.066 2.57-.066 2.241-.132 4.68-.396 6.591 0 .198-.198.33-.395.33-.198 0-.33-.198-.33-.396.198-1.911.264-4.284.33-6.525 0-.922.066-1.78.066-2.57.066-.264.263-.396.461-.396zM140.052 64.722c.066.198 0 .396-.132.462-1.451.725-3.297 1.45-4.418 1.845-.198.066-.395-.066-.461-.263-.066-.198.066-.396.263-.462 1.055-.33 2.902-1.054 4.352-1.78.066-.065.264 0 .396.198z" fill="#000"/><path fill-rule="evenodd" clip-rule="evenodd" d="M130.226 60.634a.402.402 0 01.528 0l.264.264c1.714 1.713 3.494 3.493 5.011 5.404a.348.348 0 01-.066.527.35.35 0 01-.528-.065c-1.516-1.912-3.23-3.625-5.011-5.34l-.264-.263c-.065-.132-.065-.395.066-.527zM133.26 59.189a.4.4 0 01.527 0c.923.922 2.044 2.109 3.099 3.23l.198.197c.989 1.054 1.912 2.11 2.572 2.768a.4.4 0 010 .527.402.402 0 01-.528 0c-.725-.725-1.648-1.713-2.637-2.768l-.198-.197c-1.055-1.12-2.11-2.307-3.033-3.23-.198-.198-.198-.395 0-.527z" fill="#000"/><path fill-rule="evenodd" clip-rule="evenodd" d="M134.249 59.318c.132.198.066.395-.132.527-1.187.725-2.308 1.187-3.627 1.582-.197.066-.395-.066-.461-.264-.066-.197.066-.395.264-.461 1.252-.33 2.373-.857 3.494-1.516.132-.066.396 0 .462.132zM125.281 57.603c.198-.066.396.066.461.264.33 1.384.528 2.834.726 4.218 0 .198-.132.395-.33.395s-.396-.131-.396-.33c-.197-1.383-.461-2.767-.725-4.151-.066-.132.066-.33.264-.396z" fill="#000"/><path fill-rule="evenodd" clip-rule="evenodd" d="M125.545 62.152c.066-.198.264-.33.461-.264.066 0 .132.066.264.066.396.066.857.198 1.253.33.528.197.989.461 1.385.988.132.198.066.396-.066.528-.132.131-.396.066-.528-.066-.263-.33-.593-.528-.989-.725-.329-.132-.725-.198-1.121-.264-.066 0-.198-.066-.263-.066-.33-.132-.396-.33-.396-.527zM123.632 59.582c.066.197-.066.395-.263.461-2.704.725-5.539 1.45-8.045 2.636-.198.066-.395 0-.461-.197-.066-.198 0-.396.197-.462 2.572-1.186 5.473-1.977 8.177-2.636.132-.066.329 0 .395.198z" fill="#000"/><path fill-rule="evenodd" clip-rule="evenodd" d="M119.874 58.066a.4.4 0 010 .527c-.462.462-.923.99-1.385 1.45-.857.923-1.714 1.78-2.637 2.571a.35.35 0 01-.528-.066.348.348 0 01.066-.527c.857-.791 1.715-1.582 2.572-2.505.461-.461.923-.988 1.45-1.516.066-.066.33-.066.462.066z" fill="#000"/><path fill-rule="evenodd" clip-rule="evenodd" d="M126.205 57.934c0 .198-.132.396-.329.396-.923.132-2.308.395-3.693.66-.198.065-.33.065-.527.13-1.253.265-2.44.528-3.429.66-.198.066-.396-.132-.396-.33-.066-.197.132-.395.33-.395.923-.132 2.176-.395 3.429-.66.198-.065.329-.065.527-.13 1.385-.265 2.77-.594 3.759-.726a.674.674 0 01.329.395z" fill="#000"/><path fill-rule="evenodd" clip-rule="evenodd" d="M125.677 57.603c.131.132.065.396-.066.527a19.306 19.306 0 00-2.77 2.44.4.4 0 01-.527 0 .4.4 0 010-.528c.923-.857 1.846-1.78 2.901-2.505.132-.197.33-.131.462.066zM110.511 68.876c0-.197.198-.33.396-.33.197 0 .395 0 .593.067 1.583.132 3.627.33 5.275.33.198 0 .396.131.396.395 0 .198-.132.395-.396.395-1.648 0-3.758-.198-5.341-.33-.198 0-.396-.065-.593-.065-.198-.066-.396-.264-.33-.462z" fill="#000"/><path fill-rule="evenodd" clip-rule="evenodd" d="M111.566 67.82c-.198 0-.396.132-.396.396v8.04c0 .198.132.396.396.396.197 0 .395-.132.395-.395v-8.041c0-.264-.198-.396-.395-.396z" fill="#000"/><path fill-rule="evenodd" clip-rule="evenodd" d="M113.741 76.057h-2.175c-.198 0-.396-.132-.396-.33 0-.197.132-.395.33-.395h4.417c.198 0 .396.132.396.33 0 .197-.132.395-.33.395h-2.242z" fill="#000"/><path fill-rule="evenodd" clip-rule="evenodd" d="M115.786 74.938c.198 0 .396.131.396.329.065 1.186.263 2.043.527 2.834.264.791.725 1.45 1.385 2.241a.4.4 0 010 .527.402.402 0 01-.528 0 7.464 7.464 0 01-1.516-2.438c-.33-.857-.462-1.846-.594-3.032-.066-.264.066-.462.33-.462z" fill="#000"/><path fill-rule="evenodd" clip-rule="evenodd" d="M118.357 79.553c.132.132.198.33.066.527-.594.725-1.187 1.45-1.847 2.175-.065.066-.131.132-.131.198-.594.659-1.121 1.318-1.649 1.977-.132.132-.33.198-.527.066-.132-.132-.198-.33-.066-.527.527-.66 1.121-1.319 1.648-2.044.066-.066.132-.131.132-.197.593-.725 1.253-1.45 1.846-2.175.198-.066.396-.132.528 0z" fill="#000"/><path fill-rule="evenodd" clip-rule="evenodd" d="M114.599 82.783a.348.348 0 01.527.066c.594.66 1.187 1.384 1.781 2.043l.066.066c.593.66 1.121 1.319 1.714 1.978.396.46.725.79 1.187 1.186.132.132.198.33.066.527-.132.132-.33.198-.528.066a7.962 7.962 0 01-1.318-1.252c-.594-.66-1.121-1.318-1.715-1.977l-.066-.066a46.829 46.829 0 01-1.714-2.044c-.132-.263-.132-.46 0-.593z" fill="#000"/><path fill-rule="evenodd" clip-rule="evenodd" d="M123.436 84.165a.403.403 0 010 .527c-.594.528-1.121 1.121-1.715 1.648-.659.66-1.384 1.319-2.044 1.977a.4.4 0 01-.527 0 .4.4 0 010-.527c.659-.659 1.384-1.318 2.044-1.977.593-.527 1.121-1.12 1.714-1.648a.402.402 0 01.528 0z" fill="#000"/><path fill-rule="evenodd" clip-rule="evenodd" d="M122.447 84.759c.131-.132.329-.198.527-.066.594.461 1.253.989 1.978 1.384.726.395 1.451.66 2.11.527.198-.066.396.132.396.33.066.198-.132.395-.33.395-.923.132-1.78-.197-2.571-.593-.792-.461-1.517-1.054-2.11-1.45a.4.4 0 010-.527zM123.039 87.86c.066.197-.066.395-.198.46-1.121.396-2.176.462-3.297.594-.198 0-.396-.132-.396-.33s.132-.395.33-.395c1.121-.066 2.11-.198 3.099-.528.198-.066.396 0 .462.198z" fill="#000"/><path fill-rule="evenodd" clip-rule="evenodd" d="M124.622 86.208c.066.198-.066.395-.264.461-.132 0-.264.066-.396.198s-.264.33-.395.527c-.198.396-.396.857-.528 1.187 0 0 0 .066-.066.066-.066.197-.264.263-.461.197-.198-.066-.264-.263-.198-.461 0 0 0-.066.066-.066.132-.33.329-.857.527-1.318.132-.264.33-.527.528-.725.198-.198.461-.396.725-.462.264.066.462.198.462.396zM114.731 65.71c.132.13.198.329.066.526-.923 1.055-1.846 2.11-2.967 2.966-.132.132-.396.066-.528-.066s-.066-.395.066-.527c1.055-.79 1.978-1.78 2.836-2.834a.348.348 0 01.527-.066z" fill="#000"/><path fill-rule="evenodd" clip-rule="evenodd" d="M111.962 66.632c.066-.197.264-.33.461-.263.858.197 2.77.461 4.023.659.263.066.527.066.725.066.198 0 .33.197.33.395s-.198.33-.396.33-.396-.066-.659-.066c-1.253-.198-3.231-.462-4.089-.66-.329-.065-.461-.263-.395-.46zM120.995 69.996c.198 0 .396.132.396.396 0 1.647-.066 2.966-.132 4.152v.132c-.066 1.186-.132 2.372-.132 3.757 0 .197-.132.395-.395.395-.264 0-.396-.132-.396-.395 0-1.45.066-2.571.132-3.757v-.132c.066-1.252.132-2.505.132-4.152 0-.198.197-.396.395-.396z" fill="#000"/><path fill-rule="evenodd" clip-rule="evenodd" d="M120.006 76.52a.4.4 0 01.527 0c1.319 1.45 2.638 2.9 4.088 4.153a.4.4 0 010 .527.4.4 0 01-.527 0c-1.451-1.318-2.835-2.768-4.154-4.218a.406.406 0 01.066-.461z" fill="#000"/><path fill-rule="evenodd" clip-rule="evenodd" d="M130.557 79.421c.066.198-.066.396-.264.462-2.571.725-4.418 1.12-6.989 1.45-.198 0-.396-.132-.396-.33s.132-.395.33-.395c2.571-.396 4.352-.725 6.857-1.45.198-.066.396.066.462.263z" fill="#000"/><path fill-rule="evenodd" clip-rule="evenodd" d="M131.019 72.566c.197 0 .329.198.329.396l-.593 3.361c-.066.198-.066.462-.132.66-.264 1.317-.462 2.702-.659 4.02 0 .198-.198.33-.396.33s-.33-.198-.33-.396a87.67 87.67 0 01.66-4.087c.066-.197.066-.46.132-.659l.593-3.361c0-.132.198-.264.396-.264z" fill="#000"/><path fill-rule="evenodd" clip-rule="evenodd" d="M125.017 68.283a.35.35 0 01.528.066c.659.791 1.319 1.516 1.978 2.307 1.253 1.45 2.572 2.966 3.759 4.482a.35.35 0 01-.066.527.35.35 0 01-.528-.066c-1.187-1.516-2.506-2.966-3.758-4.416-.66-.79-1.319-1.516-1.978-2.307-.066-.263-.066-.46.065-.593z" fill="#000"/><path fill-rule="evenodd" clip-rule="evenodd" d="M127.589 69.004c.066.198 0 .396-.198.462-2.308 1.054-4.681 1.845-7.055 2.636-.33.132-.594.198-.923.33-.198.066-.396-.066-.462-.198-.066-.198.066-.396.198-.462.33-.131.593-.197.923-.329 2.374-.791 4.748-1.582 6.989-2.636.264-.066.462.066.528.197z" fill="#000"/><path fill-rule="evenodd" clip-rule="evenodd" d="M124.028 69.996c.198 0 .396.132.396.396v5.865c0 .198-.132.396-.396.396-.197 0-.395-.132-.395-.396v-5.865c0-.198.132-.396.395-.396z" fill="#000"/><path fill-rule="evenodd" clip-rule="evenodd" d="M123.435 75.927a.4.4 0 01.527 0c1.187 1.186 2.11 1.911 3.297 2.834l.989.791c.132.132.198.33.066.527-.132.132-.329.198-.527.066l-.989-.79a41.985 41.985 0 01-3.363-2.9c-.132-.133-.132-.33 0-.528z" fill="#000"/><path fill-rule="evenodd" clip-rule="evenodd" d="M124.753 75.4c.132.132.198.396.066.528-.528.659-1.385.988-2.242 1.252-.527.132-1.121.264-1.582.395-.264.066-.528.132-.792.132-.197.066-.395-.066-.461-.263-.066-.198.066-.396.264-.462.263-.066.527-.132.857-.198a11.48 11.48 0 001.45-.329c.792-.198 1.451-.527 1.847-.989.263-.197.461-.197.593-.066zM126.205 61.824c.066.198.066.395-.132.527-.725.396-1.451.791-2.176 1.252-.198.132-.396.066-.528-.131-.131-.198-.066-.396.132-.528.726-.46 1.451-.856 2.176-1.318.264-.066.462 0 .528.198zM137.348 68.545c.066.198 0 .396-.198.462-1.45.659-2.901 1.318-4.417 1.845-.198.066-.396-.066-.462-.263-.066-.198.066-.396.264-.462 1.45-.461 2.901-1.12 4.352-1.78.197 0 .395.067.461.198z" fill="#000"/><path d="M132.601 63.34a.363.363 0 01-.33-.198c-.066-.198 0-.33.198-.395l1.582-.593c.528-.198 1.055-.33 1.583-.528.197-.066.329 0 .395.198s0 .33-.198.395l-1.582.594c-.528.197-1.055.33-1.583.527h-.065zM134.249 65.58a.363.363 0 01-.33-.198c-.066-.198 0-.33.198-.396 1.319-.527 2.506-.922 3.693-1.45.197-.066.329 0 .461.198.066.198 0 .33-.198.461-1.187.462-2.373.99-3.692 1.45-.066-.065-.066-.065-.132-.065zM121.062 74.082c-.132 0-.264-.131-.33-.263-.066-.198.066-.33.264-.396l.395-.066c.726-.197 1.517-.33 2.176-.527.198-.066.33.066.396.198.066.197-.066.33-.198.395-.725.198-1.516.396-2.242.593l-.395.066h-.066zM122.775 79.287c-.132 0-.264-.066-.33-.264s.066-.33.198-.396c.791-.263 2.044-.659 3.297-.922.198-.066.33.066.396.263.066.198-.066.33-.264.396-1.253.263-2.44.659-3.297.922.066 0 0 0 0 0zM132.468 85.286c-.132 0-.329-.132-.329-.263 0-.198.132-.33.263-.396 1.055-.132 2.11-.263 3.034-.79a.347.347 0 01.461.131.347.347 0 01-.132.462c-1.055.593-2.176.724-3.297.856zM139.985 78.893c-.132 0-.264-.066-.264-.198-.066-.131 0-.33.132-.461l.396-.198c.659-.33 1.252-.593 1.78-1.054a.32.32 0 01.462 0 .32.32 0 010 .461c-.594.527-1.253.857-1.913 1.186l-.395.198c-.066.066-.132.066-.198.066zM119.478 60.966c-.132 0-.198-.066-.264-.132-.131-.132-.065-.33.066-.461.792-.527 1.451-1.055 2.044-1.516.132-.132.33-.066.462.066s.066.33-.066.461c-.593.462-1.253.989-2.044 1.516-.066.066-.132.066-.198.066zM36.727 116.725h-3.692c-.198 0-.33-.132-.33-.33s.132-.33.33-.33h1.978c6.594 0 9.956 0 15.166-1.318-.66-.329-1.253-.791-1.451-1.384a1.745 1.745 0 01.132-1.516c1.055-1.911 5.275-2.966 6.725-3.295l.198-.066c.066 0 7.649-1.846 8.638-.593.132.132.264.395.066.791-.857 1.713-3.363 3.295-7.385 4.679-1.582.527-2.967.989-4.286 1.384.857.132 1.714.132 2.374.198.395 0 .725 0 .989.066 6.198.395 12.264.527 18.067.329 3.363-.131 5.934-.395 8.176-.593 3.758-.395 6.99-.659 12.396-.263.198 0 .33.197.33.329s-.198.33-.33.33c-5.34-.396-8.506-.066-12.264.263-2.242.198-4.814.462-8.176.594-5.869.197-11.935.065-18.2-.33-.263 0-.593 0-.922-.066-1.055-.066-2.572-.066-3.825-.395-5.406 1.384-8.77 1.516-14.704 1.516zm26.112-8.635c-1.649 0-4.748.528-6.924 1.055l-.198.066c-3.56.857-5.67 1.911-6.264 2.966-.198.329-.198.659-.066.988.264.66 1.055 1.055 1.978 1.319 1.583-.462 3.43-.989 5.54-1.714 3.823-1.252 6.197-2.768 6.989-4.35.066-.066.066-.132.066-.132-.132-.132-.528-.198-1.121-.198z" fill="#000"/><path d="M90.4 118.375a.5.5 0 01-.264-.132c-.132-.132-.066-.329.066-.461 1.055-.857 2.242-1.714 3.495-2.703 2.242-1.713 4.616-3.493 6.726-5.206.131-.132.329-.066.461.066.132.131.066.329-.066.461-2.11 1.714-4.483 3.493-6.725 5.207a93.412 93.412 0 00-3.495 2.702c-.066.066-.132.066-.198.066z" fill="#000"/><path d="M130.623 111.124h-33.76c-.198 0-.33-.132-.33-.33 0-.197.132-.329.33-.329h33.76c.198 0 .33.132.33.329 0 .198-.132.33-.33.33zM99.565 118.307c-3.626 0-7.187 0-10.813-.132-.198 0-.33-.132-.33-.33s.132-.329.33-.329c7.187.197 14.44.131 21.561.066 3.561 0 7.187-.066 10.748-.066.198 0 .33.131.33.329s-.132.33-.33.33c-3.561 0-7.187 0-10.748.066-3.56 0-7.187.066-10.748.066z" fill="#000"/><path d="M119.017 118.11c-.132 0-.198-.066-.263-.132-.132-.132-.066-.329.065-.461l2.176-1.582c2.968-2.109 6.067-4.284 8.77-6.723a.319.319 0 01.462 0 .319.319 0 010 .462c-2.77 2.438-5.869 4.613-8.836 6.788l-2.176 1.582c-.066.066-.132.066-.198.066zM90.203 123.777c-.132 0-.264-.132-.33-.264-.33-1.647-.198-3.295-.066-5.009l.066-.659c0-.198.198-.329.33-.329.197 0 .33.197.33.329l-.067.659c-.131 1.648-.263 3.23.066 4.812 0 .263-.066.395-.33.461.067 0 0 0 0 0z" fill="#000"/><path d="M106.687 123.974c-5.341 0-10.748-.066-17.078-.198-.198 0-.33-.132-.33-.329 0-.198.132-.33.33-.33 11.539.198 19.913.33 30.397 0 .198 0 .33.132.33.33 0 .197-.132.329-.33.329-4.681.132-8.967.198-13.319.198z" fill="#000"/><path d="M119.414 124.634c-.198 0-.33-.132-.33-.329v-6.921c0-.197.132-.329.33-.329.197 0 .329.132.329.329v6.921c0 .197-.132.329-.329.329zM128.314 117.581c-.198 0-.33-.132-.33-.33v-7.777c0-.198.132-.329.33-.329s.33.131.33.329v7.777c0 .198-.132.33-.33.33z" fill="#000"/><path d="M119.084 124.108c-.132 0-.198-.066-.264-.132-.132-.132-.066-.33.066-.461l2.176-1.582c3.494-2.439 7.055-5.009 10.088-8.041a.319.319 0 01.462 0 .318.318 0 010 .461c-3.099 3.098-6.66 5.602-10.155 8.107l-2.176 1.582c-.065.066-.131.066-.197.066z" fill="#000"/><path d="M165.966 116.724s-.066 0 0 0c-.594-.066-1.253-.198-1.979-.264-1.714-.197-3.758-.395-5.538-.988-1.385.461-2.968.593-4.286.725h-.198c-3.495.263-7.253.329-12.264.066-.99-.066-2.045-.132-3.1-.132-4.154-.264-8.901-.528-13.846.395-.198 0-.33-.066-.396-.263-.066-.198.066-.33.264-.396 5.077-.989 9.824-.659 13.978-.461 1.055.066 2.11.132 3.1.132 4.945.263 8.703.197 12.132-.066h.198a19.791 19.791 0 003.297-.462c-1.055-.461-1.912-1.054-2.374-1.911a1.16 1.16 0 01-.066-.923c.528-1.054 3.033-1.318 3.033-1.318 1.319-.132 2.967.33 3.429 1.318.198.462.198 1.187-.857 2.109-.33.264-.726.528-1.121.725 1.516.396 3.231.593 4.615.725.792.066 1.451.132 1.979.264.197 0 .329.198.263.395.066.198-.132.33-.263.33zm-7.517-5.141h-.396c-.725.066-2.308.461-2.572.989-.065.066-.065.131 0 .329.528.923 1.583 1.516 2.836 1.912.659-.264 1.187-.528 1.714-.989.396-.33.857-.857.66-1.318-.132-.593-1.253-.923-2.242-.923z" fill="#000"/><path d="M162.865 118.437a.361.361 0 01-.329-.198c-.066-.132 0-.33.132-.462 5.143-2.438 10.154-5.272 15.033-8.04l2.374-1.319a.348.348 0 01.462.132.35.35 0 01-.132.462l-2.374 1.318c-4.879 2.768-9.891 5.602-15.1 8.041 0 .066 0 .066-.066.066z" fill="#000"/><path d="M186.272 118.044h-.132c-3.758-1.45-5.604-4.878-7.319-8.173l-.197-.395c-.066-.132 0-.33.131-.462.132-.066.33 0 .462.132l.198.395c1.714 3.23 3.429 6.525 6.989 7.844.198.066.264.263.198.395-.066.198-.198.264-.33.264zM174.799 131.227a.494.494 0 01-.263-.132c-3.363-3.822-8.77-10.743-10.88-13.511-.132-.132-.066-.33.066-.461.132-.132.329-.066.461.066 2.176 2.768 7.517 9.688 10.88 13.511a.318.318 0 010 .461c-.132.066-.198.066-.264.066z" fill="#000"/><path d="M174.604 131.292a.5.5 0 01-.264-.132c-.132-.132-.132-.33.066-.462 2.308-1.977 4.681-3.625 6.989-5.206 2.11-1.45 4.154-2.834 6.001-4.416.131-.132.329-.066.461.066.132.131.066.329-.066.461-1.912 1.582-3.89 2.966-6.066 4.482-2.308 1.582-4.682 3.229-6.923 5.141-.066.066-.132.066-.198.066zM19.45 119.692c-.197 0-.329-.132-.329-.329v-12.194c0-.197.132-.329.33-.329s.33.132.33.329v12.194c0 .197-.132.329-.33.329z" fill="#000"/><path d="M17.803 119.691c-.132 0-.198-.066-.264-.132-.132-.132-.066-.329.066-.461a90.902 90.902 0 013.692-2.439c1.649-1.054 3.495-2.241 5.21-3.493.263-.198.263-.264.263-.264-.066-.066-.527-.263-.923-.395a17.907 17.907 0 01-1.648-.791 34.614 34.614 0 00-2.11-1.12c-1.649-.857-2.902-1.582-4.55-2.9a.407.407 0 01-.066-.462.406.406 0 01.462-.066c1.582 1.318 2.835 1.978 4.417 2.834.66.33 1.32.725 2.11 1.187.594.329 1.121.527 1.583.725.725.329 1.253.527 1.319.988.066.33-.264.659-.528.857-1.714 1.252-3.56 2.439-5.209 3.493a90.902 90.902 0 00-3.692 2.439h-.132z" fill="#000"/><path d="M21.496 124.83c-1.714 0-3.56-.263-5.34-.922-3.825-1.319-5.276-3.428-6.792-7.448-.132-.791-.33-2.109-.264-3.493-.066-.066-.132-.132-.132-.198-.528-2.702 1.78-5.998 2.77-7.316 2.769-3.625 9.428-3.295 12.198-2.966 4.154.527 8.374 4.086 9.495 8.173 1.253 4.35-.857 8.436-3.165 10.875-2.176 2.175-5.341 3.295-8.77 3.295zm-5.275-21.288c0 .132-.132.197-.198.263-2.571.725-3.494 1.648-5.143 4.284-1.319 2.044-1.319 6.13-.857 8.239 1.45 3.823 2.77 5.734 6.396 6.986 5.143 1.714 10.352.857 13.385-2.241 2.242-2.24 4.154-6.129 3.033-10.215-1.187-3.823-5.143-7.184-9.099-7.646-1.648-.198-4.747-.395-7.517.33zM177.833 128.258c-.132 0-.264-.066-.264-.197-.066-.132 0-.33.132-.462 1.384-.725 2.571-1.318 3.428-2.57.726-.989 1.385-2.043 1.649-3.23.198-.922.132-1.647-.33-2.438-.198-.462-.395-.66-.461-.725h-.132c-.132 0-.33-.198-.33-.33 0-.198.198-.33.396-.33.066 0 .198.066.263.066h.792c.791 0 1.45-.066 2.044-.263h.066c.066 0 .461-.198.593-.264.066-.066.132-.066.264-.066.198 0 .33.132.33.33 0 .395-.792.593-1.121.659-.594.198-1.319.263-2.176.263h-.132c.066.132.132.264.264.462.461.857.593 1.779.329 2.834-.263 1.318-1.055 2.439-1.78 3.493-.989 1.384-2.308 2.109-3.693 2.834 0-.066-.065-.066-.131-.066zM94.62 123.578c-.066 0-.132 0-.198-.066a51.347 51.347 0 00-2.373-1.648c-.792-.527-1.583-1.12-2.374-1.648-.132-.132-.198-.329-.066-.461s.33-.198.462-.066c.79.527 1.582 1.12 2.373 1.648.792.527 1.583 1.12 2.374 1.647.132.132.198.33.066.462-.066.066-.132.132-.264.132zM100.753 123.779c-.066 0-.132 0-.198-.066-1.649-1.318-3.297-2.505-5.077-3.757-.66-.461-1.253-.923-1.912-1.384-.132-.132-.198-.33-.066-.462.132-.131.33-.197.461-.065.66.461 1.253.922 1.912 1.384 1.715 1.186 3.43 2.438 5.078 3.822.131.132.131.33.065.462-.065 0-.197.066-.263.066zM107.874 123.844c-.066 0-.132 0-.132-.066-2.044-1.121-4.022-2.505-5.934-3.823-.725-.527-1.451-.989-2.176-1.516-.132-.132-.198-.33-.066-.461.132-.132.33-.198.462-.066.725.461 1.45.988 2.176 1.516 1.846 1.318 3.824 2.636 5.868 3.756.132.066.198.264.132.462a.363.363 0 01-.33.198zM113.148 123.315c-.066 0-.132 0-.197-.066-2.638-1.582-5.21-3.295-7.715-5.009-.132-.132-.198-.329-.132-.461.132-.132.264-.198.462-.132h.065c2.506 1.648 5.078 3.427 7.715 4.943.132.066.198.264.132.461-.132.198-.198.264-.33.264zM119.61 123.053c-.066 0-.132 0-.198-.066a95.895 95.895 0 01-7.253-5.009c-.132-.132-.198-.33-.066-.461.132-.132.33-.198.462-.066a95.694 95.694 0 007.253 5.009c.132.066.198.329.132.461-.132.066-.198.132-.33.132zM124.358 120.943c-.066 0-.132 0-.132-.066l-.198-.066c-.197-.132-.461-.198-.725-.395-1.055-.659-1.978-1.516-2.901-2.373-.264-.264-.528-.461-.791-.725a.318.318 0 010-.461.318.318 0 01.461 0c.264.263.528.461.791.725.924.856 1.781 1.647 2.836 2.306.198.132.395.264.593.33l.198.132c.132.066.198.264.132.461 0 .066-.132.132-.264.132zM127.588 118.57c-.065 0-.197 0-.263-.066a.911.911 0 00-.264-.198l-.132-.066a116.894 116.894 0 01-4.088-2.504c-.132-.132-.198-.33-.066-.462.132-.131.33-.197.462-.065 1.45.922 2.769 1.779 4.088 2.504l.132.132c.131.066.263.132.395.264a.318.318 0 010 .461h-.264zM128.777 115.405c-.066 0-.132 0-.198-.066l-2.571-2.175a.405.405 0 01-.066-.461.405.405 0 01.461-.066l2.572 2.175c.132.132.132.33.066.461a.5.5 0 01-.264.132z" fill="#000"/><path d="M124.886 117.187c-.593 0-1.648-.198-1.78-.923-.264-.857.791-1.252 1.319-1.45.132-.066.198-.066.264-.132.131-.066.329 0 .461.132.066.066.066.132 0 .264h.066s.725-.132 1.121.131c.066 0 .198-.066.264-.066h.132c.329 0 .593 0 .725.264.066.132 0 .264-.066.396-.132.263-.527.395-.725.461-.132.066-.198.132-.33.132-.264.461-.923.725-1.451.791.066 0 .066 0 0 0zm-.725-1.516c-.264.132-.461.263-.396.461 0 .066.066.132.132.198v-.132c.066-.264.132-.395.264-.527zm.396.527c.198 0 .593-.066.659-.066.132-.066.198-.066.33-.132-.066-.066-.066-.066-.066-.132v-.131h-.066c-.264.066-.659.197-.857.461zM93.235 115.999h-.33c-.461-.066-.791-.396-.923-.923-.132-.593.066-.923.264-1.121.66-.659 1.978-.461 2.44-.395.593.132.593.395.593.593 0 .198-.198.33-.396.462.066 0 .132 0 .198.065.132.132.198.33.066.462-.33.461-1.12.857-1.912.857zm-.462-.791c.066.066.132.132.264.132.462.065 1.055-.132 1.385-.396h-.33a4.494 4.494 0 01-1.319.264zm.99-1.055c-.396 0-.858.066-1.056.264.264-.066.66-.066 1.253-.132.132-.066.264-.066.33-.132h-.528zM183.24 124.635h-.131c-1.319-.594-1.385-.66-1.385-.725a.319.319 0 010-.462c.132-.132.33-.132.396 0 .065 0 .263.132 1.252.659.132.066.264.264.132.462 0 0-.132.066-.264.066zm1.979-1.648h-.132c-.528-.264-.923-.461-1.253-.659-.462-.264-.791-.462-1.319-.659-.198-.066-.264-.264-.198-.396.066-.198.264-.263.396-.198.593.198.989.462 1.451.726.329.197.725.395 1.186.659.132.065.264.263.132.461 0 0-.132.066-.263.066zM185.219 120.019h-.066c-.989-.264-2.044-.659-2.638-.857-.198-.066-.329-.132-.329-.132-.132 0-.264-.132-.264-.329 0-.198.132-.33.33-.33.066 0 .131 0 .527.132.594.198 1.649.593 2.572.857.197.066.263.197.263.395-.131.132-.263.264-.395.264zM165.899 116.263c-2.308 0-2.572-.395-2.638-.593a.494.494 0 010-.593c.264-.461.989-.593 1.451-.659h.197c.264 0 1.451 0 1.979.659.131.264.066.396.066.461-.066.132-.264.198-.396.198l.066.198v.329-.329l-.066.329h-.659zm-2.045-.856c.198.131.792.197 2.176.263-.066-.066-.066-.132-.066-.197 0-.066 0-.066.066-.132-.263-.132-.725-.198-1.055-.198h-.131c-.264 0-.858.066-.99.264zM97.06 97.28c-.067 0-.133 0-.133-.066-.132-.066-.198-.264-.132-.462.594-1.186 1.253-2.307 1.847-3.361 1.318-2.373 2.637-4.614 3.626-7.712 1.121-3.756 2.308-7.777 2.44-12.127 0-.198.132-.33.33-.33.197 0 .329.133.329.33-.132 4.416-1.318 8.502-2.439 12.26-.989 3.163-2.308 5.404-3.627 7.843-.593 1.054-1.253 2.174-1.846 3.36-.132.199-.264.264-.396.264zM101.545 96.756c-.066 0-.132 0-.198-.066-.132-.132-.198-.33-.066-.461 1.055-1.648 2.11-3.23 3.165-4.877 1.055-1.582 2.044-3.23 3.099-4.812.132-.132.33-.198.461-.066.132.132.198.33.066.462a196.766 196.766 0 00-3.099 4.81c-1.055 1.649-2.11 3.23-3.165 4.878-.066.066-.132.132-.263.132z" fill="#000"/><path d="M172.691 126.281c0 3.427-2.836 6.261-6.264 6.261-3.429 0-7.583-2.834-7.583-6.261s4.154-6.261 7.583-6.261c3.428 0 6.264 2.834 6.264 6.261z" fill="#fff"/><path d="M165.371 132.741c-2.637 0-4.945-1.318-6.132-3.427-1.121-2.043-.923-4.482.528-6.723 2.571-3.361 7.517-3.822 11.275-1.054 1.846 1.384 2.506 3.823 1.714 6.195-.791 2.307-3.165 5.009-7.385 5.009zm-5.077-9.754c-1.318 2.043-1.45 4.218-.461 5.998 1.055 1.911 3.165 3.097 5.538 3.097 3.825 0 6.001-2.438 6.726-4.547.725-2.175.132-4.285-1.451-5.471-3.428-2.57-7.978-2.175-10.352.923z" fill="#000"/><path d="M163.723 125.031c-.066 0-.132 0-.132-.066-.132-.066-.197-.264-.132-.461.528-.923 1.913-1.846 2.968-2.571l.329-.263c.132-.132.33-.066.462.065.132.132.066.33-.066.462l-.33.263c-.989.66-2.373 1.582-2.769 2.373-.132.132-.198.198-.33.198z" fill="#000"/><path d="M167.481 126.018c-.066 0-.132 0-.132-.066-.989-.527-2.505-1.055-3.56-1.055-.198 0-.33-.131-.33-.329s.132-.33.33-.33c1.187 0 2.769.593 3.824 1.187.132.066.198.263.132.461 0 .066-.132.132-.264.132z" fill="#000"/><path d="M165.833 130.697c-.857 0-1.781-.395-2.638-1.12a.407.407 0 01-.066-.462.407.407 0 01.462-.066c.989.857 1.912 1.121 2.769.923 1.121-.264 1.978-1.384 2.374-2.307.33-.791.33-1.648 0-2.307a2.222 2.222 0 00-1.451-1.318c-.857-.263-2.637.132-3.297.791a.318.318 0 01-.461 0 .318.318 0 010-.461c.791-.791 2.835-1.318 3.956-.923.857.264 1.451.857 1.846 1.648.396.857.396 1.911 0 2.834-.461 1.12-1.45 2.373-2.835 2.702-.198.066-.396.066-.659.066z" fill="#000"/><defs><linearGradient id="paint0_linear" x1="147.249" y1="12.897" x2="114.962" y2="79.806" gradientUnits="userSpaceOnUse"><stop stop-color="#62F91F" stop-opacity=".38"/><stop offset="1" stop-color="#5EAA53"/></linearGradient><linearGradient id="paint1_linear" x1="131.012" y1="45.521" x2="128.525" y2="51.487" gradientUnits="userSpaceOnUse"><stop stop-color="#62F91F"/><stop offset="1" stop-color="#5EAA53"/></linearGradient></defs></svg>