<svg version="1.1" id="Layer_1" xmlns="http://www.w3.org/2000/svg" viewBox="0 0 90 90" xml:space="preserve">
<g>
	<path d="M27.7,69c0.1,0,0.3,0.1,0.3,0.3v4.2c0,1.6,0.9,3.1,2.3,3.8c0.6,0.3,1.3,0.5,1.9,0.5c0.9,0,1.8-0.3,2.5-0.8l10.8-7.9
		c0,0,0.1-0.1,0.2-0.1H70c5.5,0,10-4.5,10-10V35c0-5.5-4.5-10-10-10H30c-5.5,0-10,4.5-10,10v26.3C20,65.5,23.5,69,27.7,69z M24,35
		c0-3.3,2.7-6,6-6h40c3.3,0,6,2.7,6,6v24c0,3.3-2.7,6-6,6H45.7c-0.9,0-1.8,0.3-2.5,0.8l-10.8,7.9c0,0-0.1,0.1-0.3,0
		c-0.1,0-0.1-0.1-0.1-0.2v-4.2c0-2.4-1.9-4.3-4.3-4.3c-2.1,0-3.7-1.7-3.7-3.7V35z"/>
</g>
</svg>
