<svg viewBox="0 0 18 18" fill="none" xmlns="http://www.w3.org/2000/svg"><path d="M7.14 2.35V.26c-.66.17-1.29.43-1.88.75l1.5 1.5c.13-.05.25-.11.38-.16zm10 5.65c0-2.21-.91-4.2-2.36-5.64L17.14 0h-6v6l2.24-2.24A6.003 6.003 0 0115.14 8c0 .85-.19 1.65-.51 2.38l1.5 1.5A7.921 7.921 0 0017.14 8zM1.41 0L0 1.41l2.36 2.36a7.925 7.925 0 001.14 9.87L1.14 16h6v-6L4.9 12.24A6.003 6.003 0 013.14 8c0-1 .25-1.94.68-2.77l8.08 8.08c-.25.13-.5.24-.76.34v2.09c.8-.21 1.55-.54 2.23-.96l2.58 2.58 1.41-1.41L1.41 0z" fill="#9293AB"/></svg>