<svg viewBox="0 0 16 16" xmlns="http://www.w3.org/2000/svg"><path d="M3 12v-.793l.881-.881.721-.721.002-.002-.007-.006A3.968 3.968 0 014 7.5a4 4 0 118 0c0 .77-.22 1.488-.597 2.097l-.007.007.002.001.721.721.881.881V12H3zm5 2a1 1 0 01-1-1h2a1 1 0 01-1 1zm5.854-3.354l-1.236-1.235A4.954 4.954 0 0013 7.5a5.006 5.006 0 00-4.5-4.974V1.5h-1v1.026A5.006 5.006 0 003 7.5c0 .677.136 1.322.382 1.911l-1.236 1.235A.5.5 0 002 11v2h4c0 1.103.897 2 2 2s2-.897 2-2h4v-2a.5.5 0 00-.146-.354z" fill="#000" fill-rule="nonzero" opacity=".6"/></svg>