<svg viewBox="0 0 17 16" xmlns="http://www.w3.org/2000/svg">
<path fill-rule="evenodd" clip-rule="evenodd" d="M15.9688 8.18558C15.9688 12.0516 12.8347 15.1856 8.96875 15.1856C5.10276 15.1856 1.96875 12.0516 1.96875 8.18558C1.96875 4.31958 5.10276 1.18558 8.96875 1.18558C12.8347 1.18558 15.9688 4.31958 15.9688 8.18558ZM8.96875 14.1856C12.2825 14.1856 14.9688 11.4993 14.9688 8.18558C14.9688 4.87187 12.2825 2.18558 8.96875 2.18558C5.65504 2.18558 2.96875 4.87187 2.96875 8.18558C2.96875 11.4993 5.65504 14.1856 8.96875 14.1856Z" fill="currentColor"/>
<path fill-rule="evenodd" clip-rule="evenodd" d="M9.60221 3.03213C9.80398 3.10161 9.93942 3.29148 9.93942 3.50488V6.96845L12.5118 7.02692C12.7033 7.03127 12.8755 7.14464 12.9552 7.31882C13.0348 7.49301 13.008 7.6974 12.8861 7.84511L8.63216 12.9978C8.49405 13.1651 8.26381 13.2243 8.06216 13.1442C7.86051 13.0642 7.73347 12.8633 7.74765 12.6468L7.98595 9.00788H5.53028C5.33911 9.00788 5.16467 8.89888 5.08088 8.72706C4.99708 8.55524 5.01858 8.35067 5.13629 8.20003L9.04543 3.19703C9.17681 3.02888 9.40044 2.96265 9.60221 3.03213ZM6.55549 8.00788H8.51977C8.65805 8.00788 8.79016 8.06515 8.88469 8.16608C8.97922 8.267 9.02773 8.40257 9.0187 8.54056L8.84669 11.1672L11.4588 8.00324L9.42806 7.95708C9.15641 7.95091 8.93942 7.72893 8.93942 7.45721V4.95688L6.55549 8.00788Z" fill="currentColor"/>
</svg>
