<svg  viewBox="0 0 14 14"  xmlns="http://www.w3.org/2000/svg">
<path d="M6.44307 11.4689L6.44306 11.4688C6.41054 11.5117 6.36453 11.5424 6.31245 11.556L6.28729 11.4592L6.31245 11.556C6.26037 11.5695 6.20524 11.5651 6.15595 11.5435L6.19612 11.4519L6.15595 11.5435C6.10667 11.5219 6.0661 11.4843 6.04078 11.4368C6.01557 11.3895 6.00695 11.3351 6.01629 11.2824C6.01632 11.2822 6.01636 11.2819 6.0164 11.2817L6.57662 7.93721H4.15702C4.157 7.93721 4.15699 7.93721 4.15698 7.93721C4.11186 7.93722 4.06765 7.92449 4.02945 7.90048C3.99123 7.87646 3.96058 7.84213 3.94102 7.80146C3.92147 7.76078 3.9138 7.7154 3.91891 7.67056C3.92398 7.626 3.94146 7.58377 3.96935 7.54866L7.64904 2.80517C7.64905 2.80515 7.64907 2.80513 7.64909 2.80511L7.64918 2.80499L7.7282 2.86628C7.74965 2.83849 7.78079 2.8198 7.81541 2.81395L6.44307 11.4689ZM6.44307 11.4689L6.44394 11.4677M6.44307 11.4689L6.44394 11.4677M6.44394 11.4677L9.93222 6.72361L6.44394 11.4677ZM9.27021 6.82093H7.22674H7.22538L7.22538 6.82092C7.1904 6.82045 7.15594 6.81231 7.12444 6.79709C7.09293 6.78187 7.06514 6.75993 7.04303 6.73282C7.02091 6.70571 7.005 6.67408 6.99642 6.64016C6.98794 6.60666 6.98681 6.57174 6.9931 6.53778L7.44202 3.85189L4.64871 7.45814H6.85991H6.86047V7.55814C6.88078 7.55789 6.9009 7.56208 6.91942 7.57042C6.93795 7.57875 6.95443 7.59103 6.96771 7.60639C6.981 7.62176 6.99078 7.63984 6.99635 7.65937L9.27021 6.82093ZM9.27021 6.82093L6.65386 10.3744L9.27021 6.82093ZM9.97819 6.60104C9.97454 6.64532 9.95866 6.68771 9.93231 6.72348L9.97819 6.60104ZM9.97819 6.60104C9.98183 6.5567 9.97306 6.51223 9.95286 6.4726M9.97819 6.60104L9.95286 6.4726M9.95286 6.4726C9.93266 6.43298 9.90182 6.39976 9.8638 6.37666M9.95286 6.4726L9.8638 6.37666M9.8638 6.37666C9.8259 6.35365 9.78236 6.3416 9.73803 6.34186M9.8638 6.37666L9.73803 6.34186M9.73803 6.34186H9.73837V6.44186C9.76428 6.44166 9.78974 6.44868 9.81189 6.46213C9.83403 6.47559 9.852 6.49494 9.86377 6.51802C9.87554 6.54111 9.88065 6.56702 9.87852 6.59284L9.73803 6.34186ZM9.73803 6.34186H7.51071M9.73803 6.34186H7.51071M7.51071 6.34186L8.07527 2.99237C8.07529 2.99227 8.07531 2.99217 8.07533 2.99207L8.07535 2.99191L7.51071 6.34186ZM7.91161 2.72309C7.87507 2.71152 7.8363 2.70887 7.79853 2.71539L8.06761 2.87909C8.05601 2.84249 8.03578 2.80921 8.00863 2.78206C7.98148 2.75492 7.94821 2.73469 7.91161 2.72309ZM7 0.9C3.63272 0.9 0.9 3.63271 0.9 7C0.9 10.3673 3.63272 13.1 7 13.1C10.3673 13.1 13.1 10.3673 13.1 7C13.1 3.63271 10.3673 0.9 7 0.9ZM7 1.37471C10.1059 1.37471 12.6209 3.89389 12.6209 7C12.6209 10.106 10.106 12.6209 7 12.6209C3.89399 12.6209 1.37907 10.106 1.37907 7C1.37907 3.89389 3.89409 1.37471 7 1.37471Z" fill="currentColor" stroke="currentColor" stroke-width="0.2"/>
</svg>
