<svg viewBox="0 0 32 30" xmlns="http://www.w3.org/2000/svg"><path d="M9.714 13.363l-4.821 1.75c.071.768.196 1.536.375 2.286l4.571-1.66a9.603 9.603 0 01-.125-2.376zM31 8.042a13.99 13.99 0 00-1.179-2L25 7.792a8.669 8.669 0 011.41 1.91L31 8.043z" fill="#AA1017"/><path d="M20.41 6.667a9.26 9.26 0 012.608 1.857l4.821-1.75C23.43.578 14.821-.851 8.625 3.56c-3.946 2.803-6.107 7.482-5.732 12.303l4.803-1.768c.358-4.91 4.643-8.607 9.572-8.25 1.09.09 2.143.375 3.143.822zM5.571 17.292L1 18.952a14.38 14.38 0 002.143 4.661l4.803-1.75a9.044 9.044 0 01-2.375-4.571zM25.554 15.488a8.784 8.784 0 01-.804 3.09c-2.09 4.482-7.41 6.41-11.893 4.339a9.014 9.014 0 01-2.607-1.857l-4.821 1.768a13.679 13.679 0 005.357 4.464c6.893 3.214 15.089.232 18.321-6.66 1-2.144 1.429-4.519 1.232-6.876l-4.785 1.732zM26.732 9.595l-4.571 1.661a9.017 9.017 0 011.125 5.036l4.803-1.75a13.712 13.712 0 00-1.357-4.947z" fill="#CE0E19"/><path d="M9.696 14.345c-.017-.321 0-.643.018-.964l-4.821 1.75c.018.304.071.607.107.91l4.696-1.696zM30.304 6.774c-.161-.25-.304-.482-.483-.732L25 7.792c.214.214.41.446.59.678l4.714-1.696z" fill="#8B070F"/><path d="M5.429 22.81a13.91 13.91 0 001.232 1.482l5.232-1.91a9.154 9.154 0 01-1.66-1.322l-4.804 1.75zm24.91-9.072l-4.803 1.75a8.908 8.908 0 01-.411 2.054l5.232-1.91c.036-.644.036-1.287-.018-1.894z" fill="#AA1017"/></svg>