<svg xmlns="http://www.w3.org/2000/svg" viewBox="0 0 32 32"><mask id="a" fill="#fff"><path clip-rule="evenodd" d="M27 4H5v6.622h22zm0 8.622H5v6.688h22zM5 28v-6.69h22V28zM5 2a2 2 0 0 0-2 2v24a2 2 0 0 0 2 2h22a2 2 0 0 0 2-2V4a2 2 0 0 0-2-2zm20.453 5.793c0 .533-.529.966-1.181.966s-1.182-.433-1.182-.966.529-.965 1.182-.965 1.182.432 1.182.965zm-4.726.966c.652 0 1.182-.433 1.182-.966s-.53-.965-1.182-.965-1.182.432-1.182.965.529.966 1.182.966zm4.726 7.722c0 .533-.529.966-1.181.966s-1.182-.433-1.182-.966c0-.533.529-.965 1.182-.965s1.182.432 1.182.965zm-4.726.966c.652 0 1.182-.433 1.182-.966 0-.533-.53-.965-1.182-.965s-1.182.432-1.182.965c0 .533.529.966 1.182.966zm4.726 7.727c0 .533-.529.965-1.181.965s-1.182-.432-1.182-.966c0-.533.529-.965 1.182-.965s1.182.432 1.182.966zm-4.726.965c.652 0 1.182-.432 1.182-.966 0-.533-.53-.965-1.182-.965s-1.182.432-1.182.966c0 .533.529.965 1.182.965z" fill-rule="evenodd"/></mask><path clip-rule="evenodd" d="M27 4H5v6.622h22zm0 8.622H5v6.688h22zM5 28v-6.69h22V28zM5 2a2 2 0 0 0-2 2v24a2 2 0 0 0 2 2h22a2 2 0 0 0 2-2V4a2 2 0 0 0-2-2zm20.453 5.793c0 .533-.529.966-1.181.966s-1.182-.433-1.182-.966.529-.965 1.182-.965 1.182.432 1.182.965zm-4.726.966c.652 0 1.182-.433 1.182-.966s-.53-.965-1.182-.965-1.182.432-1.182.965.529.966 1.182.966zm4.726 7.722c0 .533-.529.966-1.181.966s-1.182-.433-1.182-.966c0-.533.529-.965 1.182-.965s1.182.432 1.182.965zm-4.726.966c.652 0 1.182-.433 1.182-.966 0-.533-.53-.965-1.182-.965s-1.182.432-1.182.965c0 .533.529.966 1.182.966zm4.726 7.727c0 .533-.529.965-1.181.965s-1.182-.432-1.182-.966c0-.533.529-.965 1.182-.965s1.182.432 1.182.966zm-4.726.965c.652 0 1.182-.432 1.182-.966 0-.533-.53-.965-1.182-.965s-1.182.432-1.182.966c0 .533.529.965 1.182.965z" fill="#6b6d85" fill-rule="evenodd"/><path d="M5 4V3H4v1zm22 0h1V3h-1zM5 10.622H4v1h1zm22 0v1h1v-1zm-22 2v-1H4v1zm22 0h1v-1h-1zM5 19.31H4v1h1zm22 0v1h1v-1zm-22 2v-1H4v1zM5 28H4v1h1zm22-6.69h1v-1h-1zM27 28v1h1v-1zM5 5h22V3H5zm1 5.622V4H4v6.622zm21-1H5v2h22zM26 4v6.622h2V4zM5 13.622h22v-2H5zm1 5.688v-6.688H4v6.688zm21-1H5v2h22zm-1-5.688v6.688h2v-6.688zM4 21.31V28h2v-6.69zm23-1H5v2h22zM28 28v-6.69h-2V28zM5 29h22v-2H5zM4 4a1 1 0 0 1 1-1V1a3 3 0 0 0-3 3zm0 24V4H2v24zm1 1a1 1 0 0 1-1-1H2a3 3 0 0 0 3 3zm22 0H5v2h22zm1-1a1 1 0 0 1-1 1v2a3 3 0 0 0 3-3zm0-24v24h2V4zm-1-1a1 1 0 0 1 1 1h2a3 3 0 0 0-3-3zM5 3h22V1H5zm19.272 6.759c1.006 0 2.182-.7 2.182-1.966h-2c0-.035.009-.065.019-.084.008-.016.013-.017.002-.008a.332.332 0 0 1-.203.058zM22.09 7.793c0 1.265 1.175 1.966 2.182 1.966v-2a.332.332 0 0 1-.203-.058c-.011-.009-.007-.008.002.008.01.019.019.049.019.084zm2.182-1.965c-1.007 0-2.182.7-2.182 1.965h2c0 .036-.01.066-.02.084-.008.017-.012.017-.001.008a.332.332 0 0 1 .203-.057zm2.182 1.965c0-1.265-1.176-1.965-2.182-1.965v2c.11 0 .178.037.203.057.01.009.006.009-.002-.008a.187.187 0 0 1-.02-.084zm-5.545 0c0-.035.01-.065.019-.084.008-.016.013-.017.002-.008a.332.332 0 0 1-.203.058v2c1.006 0 2.182-.7 2.182-1.966zm-.182.035c.11 0 .178.037.203.057.01.009.006.009-.002-.008a.189.189 0 0 1-.02-.084h2c0-1.265-1.175-1.965-2.181-1.965zm-.182-.035c0 .036-.01.066-.02.084-.008.017-.012.017-.001.008a.332.332 0 0 1 .203-.057v-2c-1.007 0-2.182.7-2.182 1.965zm.182-.034a.332.332 0 0 1-.203-.058c-.011-.009-.007-.008.002.008.01.019.019.049.019.084h-2c0 1.265 1.175 1.966 2.182 1.966zm3.545 10.688c1.006 0 2.182-.7 2.182-1.966h-2c0-.035.009-.065.019-.084.008-.016.013-.017.002-.007a.333.333 0 0 1-.203.057zM22.09 16.48c0 1.265 1.175 1.966 2.182 1.966v-2a.333.333 0 0 1-.203-.057c-.011-.01-.007-.01.002.007.01.019.019.049.019.084zm2.182-1.965c-1.007 0-2.182.7-2.182 1.965h2a.19.19 0 0 1-.02.084c-.008.017-.012.017-.001.008a.333.333 0 0 1 .203-.057zm2.182 1.965c0-1.265-1.176-1.965-2.182-1.965v2c.11 0 .178.037.203.057.01.009.006.009-.002-.008a.188.188 0 0 1-.02-.084zm-5.545 0c0-.035.01-.065.019-.084.008-.016.013-.017.002-.007a.333.333 0 0 1-.203.057v2c1.006 0 2.182-.7 2.182-1.966zm-.182.035c.11 0 .178.037.203.057.01.009.006.009-.002-.008a.19.19 0 0 1-.02-.084h2c0-1.265-1.175-1.965-2.181-1.965zm-.182-.035c0 .036-.01.066-.02.084-.008.017-.012.017-.001.008a.333.333 0 0 1 .203-.057v-2c-1.007 0-2.182.7-2.182 1.965zm.182-.034a.333.333 0 0 1-.203-.057c-.011-.01-.007-.01.002.007.01.019.019.049.019.084h-2c0 1.265 1.175 1.966 2.182 1.966zm3.545 10.692c1.006 0 2.182-.7 2.182-1.965h-2c0-.036.009-.066.019-.084.008-.017.013-.017.002-.008a.332.332 0 0 1-.203.057zm-2.182-1.965c0 1.265 1.175 1.965 2.182 1.965v-2a.332.332 0 0 1-.203-.057c-.011-.01-.007-.009.002.008.01.018.019.048.019.084zm2.182-1.966c-1.007 0-2.182.7-2.182 1.966h2a.19.19 0 0 1-.02.084c-.008.016-.012.016-.001.007a.332.332 0 0 1 .203-.057zm2.182 1.966c0-1.265-1.176-1.966-2.182-1.966v2c.11 0 .178.037.203.057.01.01.006.009-.002-.007a.188.188 0 0 1-.02-.084zm-5.545 0c0-.036.01-.066.019-.084.008-.017.013-.017.002-.008a.332.332 0 0 1-.203.057v2c1.006 0 2.182-.7 2.182-1.965zm-.182.034c.11 0 .178.037.203.057.01.01.006.009-.002-.007a.19.19 0 0 1-.02-.084h2c0-1.265-1.175-1.966-2.181-1.966zm-.182-.034c0 .035-.01.065-.02.084-.008.016-.012.016-.001.007a.332.332 0 0 1 .203-.057v-2c-1.007 0-2.182.7-2.182 1.966zm.182-.035a.332.332 0 0 1-.203-.057c-.011-.01-.007-.009.002.008.01.018.019.048.019.084h-2c0 1.265 1.175 1.965 2.182 1.965z" fill="#fff" mask="url(#a)"/></svg>