<svg xmlns="http://www.w3.org/2000/svg"><mask id="a" fill="#fff"><ellipse cx="22.091" cy="5.829" rx="1.227" ry=".972"/></mask><mask id="b" fill="#fff"><ellipse cx="18.41" cy="5.829" rx="1.227" ry=".972"/></mask><mask id="c" fill="#fff"><ellipse cx="22.091" cy="14.572" rx="1.227" ry=".972"/></mask><mask id="d" fill="#fff"><ellipse cx="18.41" cy="14.572" rx="1.227" ry=".972"/></mask><mask id="e" fill="#fff"><ellipse cx="22.091" cy="23.318" rx="1.227" ry=".972"/></mask><mask id="f" fill="#fff"><ellipse cx="18.41" cy="23.318" rx="1.227" ry=".972"/></mask><g stroke="#fff" stroke-width="2"><path d="M1 1h25v26.174H1zM1.227 18.43h24.545M1.227 9.688h24.545"/></g><ellipse cx="22.091" cy="5.829" fill="#6b6d85" rx="1.227" ry=".972"/><path d="M22.319 5.83c0-.041.011-.074.021-.094.01-.017.014-.015-.001-.004a.413.413 0 0 1-.247.069v2c1 0 2.227-.677 2.227-1.972zm-.227-.03a.412.412 0 0 1-.248-.068c-.015-.011-.01-.013-.001.004.01.02.021.053.021.093h-2c0 1.294 1.228 1.972 2.227 1.972zm-.228.03c0 .04-.01.073-.021.093-.01.017-.013.015.001.004a.412.412 0 0 1 .247-.07v-2c-1 0-2.227.678-2.227 1.972zm.227.028c.13 0 .215.043.248.069.015.011.01.013.001-.004a.203.203 0 0 1-.021-.094h2c0-1.294-1.228-1.971-2.227-1.971z" fill="#fff" mask="url(#a)"/><ellipse cx="18.41" cy="5.829" fill="#6b6d85" rx="1.227" ry=".972"/><path d="M18.637 5.83c0-.041.011-.074.022-.094.009-.017.013-.015-.002-.004a.412.412 0 0 1-.247.069v2c1 0 2.227-.677 2.227-1.972zm-.227-.03a.413.413 0 0 1-.247-.068c-.015-.011-.011-.013-.002.004.01.02.022.053.022.093h-2c0 1.294 1.227 1.972 2.227 1.972zm-.227.03c0 .04-.012.073-.022.093-.01.017-.013.015.002.004a.413.413 0 0 1 .247-.07v-2c-1 0-2.227.678-2.227 1.972zm.227.028c.13 0 .214.043.247.069.015.011.01.013.002-.004a.204.204 0 0 1-.022-.094h2c0-1.294-1.228-1.971-2.227-1.971z" fill="#fff" mask="url(#b)"/><ellipse cx="22.091" cy="14.572" fill="#6b6d85" rx="1.227" ry=".972"/><path d="M22.319 14.572c0-.04.011-.074.021-.093.01-.018.014-.016-.001-.004a.412.412 0 0 1-.247.068v2c1 0 2.227-.677 2.227-1.971zm-.227-.029a.412.412 0 0 1-.248-.068c-.015-.012-.01-.014-.001.004.01.019.021.052.021.093h-2c0 1.294 1.228 1.971 2.227 1.971zm-.228.029c0 .04-.01.073-.021.093-.01.017-.013.016.001.004a.412.412 0 0 1 .247-.069v-2c-1 0-2.227.677-2.227 1.972zm.227.028c.13 0 .215.043.248.069.015.011.01.013.001-.004a.203.203 0 0 1-.021-.093h2c0-1.294-1.228-1.972-2.227-1.972z" fill="#fff" mask="url(#c)"/><ellipse cx="18.41" cy="14.572" fill="#6b6d85" rx="1.227" ry=".972"/><path d="M18.637 14.572c0-.04.011-.074.022-.093.009-.018.013-.016-.002-.004a.412.412 0 0 1-.247.068v2c1 0 2.227-.677 2.227-1.971zm-.227-.029a.412.412 0 0 1-.247-.068c-.015-.012-.011-.014-.002.004.01.019.022.052.022.093h-2c0 1.294 1.227 1.971 2.227 1.971zm-.227.029c0 .04-.012.073-.022.093-.01.017-.013.016.002.004a.412.412 0 0 1 .247-.069v-2c-1 0-2.227.677-2.227 1.972zm.227.028c.13 0 .214.043.247.069.015.011.01.013.002-.004a.204.204 0 0 1-.022-.093h2c0-1.294-1.228-1.972-2.227-1.972z" fill="#fff" mask="url(#d)"/><ellipse cx="22.091" cy="23.318" fill="#6b6d85" rx="1.227" ry=".972"/><path d="M22.319 23.318c0-.04.011-.074.021-.093.01-.018.014-.016-.001-.004a.412.412 0 0 1-.247.068v2c1 0 2.227-.677 2.227-1.971zm-.227-.029a.412.412 0 0 1-.248-.068c-.015-.012-.01-.014-.001.004.01.019.021.052.021.093h-2c0 1.294 1.228 1.971 2.227 1.971zm-.228.029c0 .04-.01.073-.021.093-.01.017-.013.016.001.004a.412.412 0 0 1 .247-.069v-2c-1 0-2.227.678-2.227 1.972zm.227.028c.13 0 .215.043.248.069.015.012.01.013.001-.004a.203.203 0 0 1-.021-.093h2c0-1.294-1.228-1.972-2.227-1.972z" fill="#fff" mask="url(#e)"/><ellipse cx="18.41" cy="23.318" fill="#6b6d85" rx="1.227" ry=".972"/><path d="M18.637 23.318c0-.04.011-.074.022-.093.009-.018.013-.016-.002-.004a.412.412 0 0 1-.247.068v2c1 0 2.227-.677 2.227-1.971zm-.227-.029a.412.412 0 0 1-.247-.068c-.015-.012-.011-.014-.002.004.01.019.022.052.022.093h-2c0 1.294 1.227 1.971 2.227 1.971zm-.227.029c0 .04-.012.073-.022.093-.01.017-.013.016.002.004a.412.412 0 0 1 .247-.069v-2c-1 0-2.227.678-2.227 1.972zm.227.028c.13 0 .214.043.247.069.015.012.01.013.002-.004a.204.204 0 0 1-.022-.093h2c0-1.294-1.228-1.972-2.227-1.972z" fill="#fff" mask="url(#f)"/></svg>