<svg viewBox="0 0 24 24" xmlns="http://www.w3.org/2000/svg"><g transform="translate(-8 -8)" fill="none" fill-rule="evenodd"><g fill-rule="nonzero"><path d="M31.86 8.14a.478.478 0 00-.516-.106L8.3 17.28a.478.478 0 00-.093.837l8 5.509v4.455a.478.478 0 00.816.338l1.503-1.502 3.358 4.877a.478.478 0 00.837-.093l9.245-23.044a.478.478 0 00-.106-.516zM16.594 22.73l-7.11-4.896 20.049-8.043L16.594 22.73zm.57 4.195v-1.988l.81 1.178-.81.81zm5.002 3.592l-3.14-4.56a.479.479 0 00-.035-.061l-1.719-2.492L30.21 10.467l-8.043 20.05z" fill="currentColor" /><path d="M25.772 17.006a.477.477 0 00.338-.14l.436-.436a.478.478 0 10-.677-.676l-.435.436a.478.478 0 00.338.816zM18.434 23.866a.477.477 0 00.676 0l5.66-5.66a.478.478 0 00-.676-.677l-5.66 5.661a.478.478 0 000 .676z" fill="currentColor" /></g></g></svg>