<svg xmlns="http://www.w3.org/2000/svg" viewBox="0 0 31 13"><path fill-rule="evenodd" d="M19.533.327a1 1 0 00-1.48 0L15.988 2.6h-1.303v-.633a1 1 0 00-1-1H9.158a1 1 0 00-1 1V2.6H6.526v.815h1.632v.63a1 1 0 001 1h4.526a1 1 0 001-1v-.63h1.131l2.239 2.462a1 1 0 001.48 0l2.238-2.462h2.702v.63a1 1 0 001 1H30a1 1 0 001-1V1.968a1 1 0 00-1-1h-4.526a1 1 0 00-1 1V2.6H21.6L19.533.327zM0 1.967a1 1 0 011-1h4.526a1 1 0 011 1v2.079a1 1 0 01-1 1H1a1 1 0 01-1-1v-2.08zm18.091-.645a1 1 0 011.414 0l1.182 1.182a1 1 0 010 1.414L19.505 5.1a1 1 0 01-1.414 0L16.91 3.918a1 1 0 010-1.414l1.181-1.182zm-16.275.461a1 1 0 00-1 1v.448a1 1 0 001 1H4.71a1 1 0 001-1v-.448a1 1 0 00-1-1H1.816zm7.158 1a1 1 0 011-1h2.894a1 1 0 011 1v.448a1 1 0 01-1 1H9.974a1 1 0 01-1-1v-.448zm17.316-1a1 1 0 00-1 1v.448a1 1 0 001 1h2.894a1 1 0 001-1v-.448a1 1 0 00-1-1H26.29zM9.158 8.31a1 1 0 00-1 1v2.079a1 1 0 001 1h4.527a1 1 0 001-1v-2.08a1 1 0 00-1-1H9.157zm.816.812a1 1 0 00-1 1v.447a1 1 0 001 1h2.894a1 1 0 001-1v-.447a1 1 0 00-1-1H9.974z" clip-rule="evenodd"/></svg>