<svg viewBox="0 0 32 28" fill="none" xmlns="http://www.w3.org/2000/svg"><path fill-rule="evenodd" clip-rule="evenodd" d="M5.327.544h26.057v26.913H5.327V.544zM3.4.544H.617v26.913H3.4V.544zm19.398 10.318c-.943-.872.384-2.307 1.327-1.435l4.17 3.856a.979.979 0 010 1.435l-4.17 3.855c-.943.873-2.27-.562-1.327-1.434L26.193 14l-3.395-3.138zM20.09 7.404c.499-1.186 2.302-.426 1.803.76L16.62 20.597a.978.978 0 01-1.802-.76L20.09 7.404zm-7.505 2.023c.944-.872 2.27.563 1.327 1.435L10.517 14l3.395 3.139c.944.872-.383 2.308-1.327 1.434l-4.17-3.855a.98.98 0 010-1.435l4.17-3.856z" fill="currentColor"/></svg>