<svg viewBox="0 0 38 16" xmlns="http://www.w3.org/2000/svg"><g fill="#25A6F7" fill-rule="evenodd"><path d="M23.71.966a1 1 0 01.068.067L26.475 4H30V3a1 1 0 011-1h6a1 1 0 011 1v3a1 1 0 01-1 1h-6a1 1 0 01-1-1V5h-3.31l-2.912 3.203a1 1 0 01-1.48 0L19.384 5H18v1a1 1 0 01-1 1h-6a1 1 0 01-1-1V5H8v1a1 1 0 01-1 1H1a1 1 0 01-1-1V3a1 1 0 011-1h6a1 1 0 011 1v1h2V3a1 1 0 011-1h6a1 1 0 011 1v1h1.599l2.699-2.967A1 1 0 0123.71.966zm.04 1.31a1 1 0 00-1.414 0l-1.768 1.767a1 1 0 000 1.414l1.768 1.768a1 1 0 001.414 0l1.768-1.768a1 1 0 000-1.414zM6 3H2a1 1 0 00-1 1v1a1 1 0 001 1h4a1 1 0 001-1V4a1 1 0 00-1-1zm10 0h-4a1 1 0 00-1 1v1a1 1 0 001 1h4a1 1 0 001-1V4a1 1 0 00-1-1zm20 0h-4a1 1 0 00-1 1v1a1 1 0 001 1h4a1 1 0 001-1V4a1 1 0 00-1-1zM17 11a1 1 0 011 1v3a1 1 0 01-1 1h-6a1 1 0 01-1-1v-3a1 1 0 011-1h6zm-1 1h-4a1 1 0 00-1 1v1a1 1 0 001 1h4a1 1 0 001-1v-1a1 1 0 00-1-1z"/></g></svg>