<svg xmlns="http://www.w3.org/2000/svg" xmlns:xlink="http://www.w3.org/1999/xlink" viewBox="0 0 15.4 12.2"><defs><path id="a" d="M12.5 6.1l-.2-.4c-.1-.3-.2-.4-.2-.5l-.2-.5c-.2-.4-.3-.6-.5-.6s-.4.2-.6.7c-.1 0-.2-.1-.2-.2 0-.2.1-.4.4-.7.2-.3.5-.4.6-.4.4 0 .8.5 1.2 1.6l.2.3.1-.2c.7-1.1 1.3-1.7 1.8-1.7.1 0 .3 0 .4.1l-.6.6h-.2c-.4 0-.8.4-1.3 1.3l-.1.2.1.3c.4 1.2.8 1.8 1.1 1.8.3 0 .5-.2.6-.6.1.1.1.1.1.2 0 .2-.1.4-.4.6-.3.2-.5.4-.7.4-.4 0-.8-.5-1.2-1.6l-.1-.4-.1.3c-.7 1.2-1.3 1.8-2 1.8-.2 0-.4-.1-.6-.2l.6-.6c.1.1.2.2.4.2.4 0 .8-.4 1.3-1.1l.3-.4v-.3zm-6.1-.5L2.6.9h3.8s1.3-.1 1.8.6.6 1.8.6 1.8h.5L9.1 0H0v.5l4.7 5.7L0 11.7v.5h9.3l.6-3.6-.5-.1s-.2.8-.8 1.5c-.6.7-3.1.6-3.1.6H2.1l4.3-5z"/></defs><clipPath id="b"><use xlink:href="#a" overflow="visible"/></clipPath><path clip-path="url(#b)" fill="#9d7cff" d="M-5-5h25.4v22.2H-5z"/></svg>