<svg viewBox="0 0 32 32" xmlns="http://www.w3.org/2000/svg" xmlns:xlink="http://www.w3.org/1999/xlink"><filter id="a"><feColorMatrix in="SourceGraphic" type="matrix" values="0 0 0 0 0.602710 0 0 0 0 0.652051 0 0 0 0 0.715099 0 0 0 1.000000 0"/></filter><g fill="none" fill-rule="evenodd"><path d="m0 0h32v32h-32z" fill="#000" opacity="0"/><g filter="url(#a)"><path d="m11.5 0c6.3512746 0 11.5 5.14872538 11.5 11.5 0 6.3512746-5.1487254 11.5-11.5 11.5-6.35127462 0-11.5-5.1487254-11.5-11.5 0-6.35127462 5.14872538-11.5 11.5-11.5zm2.74 8.45462582c-.1642071 0-.3192123.07737706-.42.20965988l-2.8 3.6928572c-.0664289.0844897-.1668462.1336501-.273.1336501s-.2065711-.0491604-.273-.1336501l-1.53299999-1.9000001c-.0996433-.1267346-.25026933-.2004752-.4095-.2004752-.15923068 0-.30985671.0737406-.4095.2004752l-2.97500001 3.9214286c-.09482736.1246785-.14651851.2778933-.147.4357143v.65c.00377007.2942586.23662656.5318673.525.5357143h12.95c.2883734-.003847.5212299-.2414557.525-.5357143v-.6571429c0-.1545501-.0491245-.3049313-.14-.4285714l-4.2-5.7142857c-.1007878-.13228282-.2557929-.20965988-.42-.20965988zm-5.04-2.45462582c-.77319865 0-1.4.63959321-1.4 1.42857142 0 .78897822.62680135 1.42857143 1.4 1.42857143.77319864 0 1.4-.63959321 1.4-1.42857143 0-.78897821-.62680136-1.42857142-1.4-1.42857142z" fill="#d8d8d8" transform="translate(5 5)"/></g></g></svg>