<svg viewBox="0 0 24 24" xmlns="http://www.w3.org/2000/svg"><filter id="a"><feColorMatrix in="SourceGraphic" values="0 0 0 0 0.453512 0 0 0 0 0.490089 0 0 0 0 0.533316 0 0 0 1.000000 0"/></filter><g fill="none" fill-rule="evenodd" filter="url(#a)"><path d="M12 0c6.627 0 12 5.373 12 12s-5.373 12-12 12S0 18.627 0 12 5.373 0 12 0zm2.86 8.822a.551.551 0 00-.44.219l-2.92 3.853a.363.363 0 01-.57 0l-1.6-1.982a.544.544 0 00-.855 0l-3.104 4.092a.755.755 0 00-.154.454v.679a.56.56 0 00.548.559h13.513a.56.56 0 00.548-.56v-.685a.755.755 0 00-.146-.447L15.297 9.04a.551.551 0 00-.438-.219zM9.6 6.261c-.807 0-1.46.667-1.46 1.49s.653 1.491 1.46 1.491c.807 0 1.46-.667 1.46-1.49S10.408 6.26 9.6 6.26z" fill="#d8d8d8"/></g></svg>