<svg xmlns="http://www.w3.org/2000/svg" fill="none" viewBox="0 0 32 31"><path fill="#4F5162" d="M6.631 30.289c-1.198 0-2.738-.171-4.62-.428h-.043c-.043 0-.171-.043-.428-.043-.257-.043-.428-.043-.556-.085l-.171-.043h-.77L0 28.877V9.283h6.802c.556 0 1.455 0 1.711-.085.257-.214.257-.214.257-.6v-.085c0-.085-.043-.256-.171-.556-.171-.3-.342-.599-.556-.855a5.786 5.786 0 01-.727-1.37 5.153 5.153 0 01-.343-1.796c0-1.24.47-2.268 1.412-2.952C9.241.342 10.31 0 11.508 0c1.155 0 2.14.342 2.952.984.855.684 1.283 1.668 1.283 2.866 0 .6-.128 1.198-.385 1.754-.256.514-.513.941-.813 1.284-.213.214-.385.513-.556.855-.17.3-.214.6-.214.941 0 .471.257.642.428.642h7.957V16c0 .684.043 1.326.3 1.583.385.385.727.599 1.027.599.085 0 .256-.043.556-.171.3-.171.599-.343.855-.556a5.788 5.788 0 011.37-.728 5.153 5.153 0 011.796-.342c1.24 0 2.268.47 2.952 1.412.642.855.984 1.925.984 3.123 0 1.155-.342 2.182-.984 2.994-.684.856-1.668 1.284-2.866 1.284a4.185 4.185 0 01-1.754-.385c-.514-.257-.942-.513-1.284-.813-.214-.214-.513-.385-.855-.556-.3-.171-.6-.214-.942-.214-.641 0-1.197.128-1.197 1.455v4.92l-2.867.427c-.3.043-.556.086-.77.128-.342.043-.641.086-1.027.129-.641.043-1.283.085-1.882.085-.898 0-1.668-.214-2.31-.599-.513-.342-1.155-.984-1.155-2.224 0-.6.128-1.155.428-1.669.256-.47.513-.898.813-1.198.213-.213.385-.513.556-.898.17-.342.256-.684.256-1.07 0-.727-.214-1.24-.684-1.625-.513-.428-1.155-.642-1.968-.642-.856 0-1.54.214-2.139.685-.513.385-.77.94-.77 1.71 0 .429.085.857.214 1.242.171.427.342.727.513.984.257.342.47.684.685 1.069.256.47.385.898.385 1.284 0 .77-.385 1.497-1.07 2.224-.599.385-1.497.642-2.695.642zm-4.32-2.01c1.753.298 3.208.427 4.32.427.727 0 1.283-.128 1.583-.428.385-.385.599-.727.599-1.027 0-.085-.043-.256-.171-.556-.171-.3-.343-.599-.556-.855a5.789 5.789 0 01-.728-1.37 5.154 5.154 0 01-.342-1.796c0-1.24.47-2.268 1.412-2.952.855-.642 1.925-.984 3.123-.984 1.155 0 2.182.342 2.994.984.856.684 1.284 1.668 1.284 2.866 0 .6-.129 1.198-.385 1.754-.257.514-.514.941-.813 1.284-.214.214-.385.513-.556.855-.171.3-.214.6-.214.941 0 .514.214.728.385.856.385.257.856.342 1.454.342.514 0 1.113-.043 1.712-.085.342-.043.599-.086.94-.129.215-.042.471-.085.814-.128l1.497-.214v-3.55c0-1.969 1.027-3.08 2.78-3.08.557 0 1.156.127 1.67.427.47.257.898.513 1.197.813.214.214.513.385.899.556.342.171.684.257 1.07.257.726 0 1.24-.214 1.625-.685.428-.513.641-1.155.641-1.968 0-.855-.213-1.54-.684-2.139-.385-.513-.941-.77-1.711-.77-.428 0-.856.086-1.24.214a5.154 5.154 0 00-.985.513c-.342.257-.684.471-1.07.685-.47.257-.898.385-1.283.385-.77 0-1.497-.385-2.224-1.07-.685-.727-.728-1.71-.728-2.695v-5.09h-6.417c-.984 0-2.053-.814-2.053-2.225 0-.6.128-1.155.427-1.669.257-.47.514-.898.813-1.198.214-.214.385-.513.556-.898a2.32 2.32 0 00.257-1.07c0-.727-.214-1.24-.684-1.625-.514-.428-1.155-.642-1.925-.642-.856 0-1.583.214-2.14.685-.513.385-.77.94-.77 1.71 0 .429.086.856.214 1.241.172.428.343.728.514.984.256.343.47.685.684 1.07.257.47.385.898.385 1.283V8.6c0 .684-.043 1.24-.855 1.882-.514.428-1.37.428-2.738.428H1.626v17.283h.128c.257.043.428.043.556.086z"/></svg>