<svg xmlns="http://www.w3.org/2000/svg" xmlns:xlink="http://www.w3.org/1999/xlink" version="1.1" x="0px" y="0px" viewBox="0 0 35 35" enable-background="new 0 0 35 35" xml:space="preserve"><g><path d="M29.5,1.5h-24c-2.2,0-4,1.8-4,4v24c0,2.2,1.8,4,4,4h24c2.2,0,4-1.8,4-4v-24C33.5,3.3,31.7,1.5,29.5,1.5z M11.5,3.5   c1.1,0,2,0.9,2,2c0,1.1-0.9,2-2,2s-2-0.9-2-2C9.5,4.4,10.4,3.5,11.5,3.5z M5.5,3.5c1.1,0,2,0.9,2,2c0,1.1-0.9,2-2,2s-2-0.9-2-2   C3.5,4.4,4.4,3.5,5.5,3.5z M31.5,29.5c0,1.1-0.9,2-2,2h-24c-1.1,0-2-0.9-2-2v-18c0-1.1,0.9-2,2-2h24c1.1,0,2,0.9,2,2V29.5z"></path><path d="M26.5,18.5c-0.7,0-1.4,0.4-1.7,1h-0.3v-4c0-1.1-0.9-2-2-2h-4v0.3c1.8,0.9,1.1,3.7-1,3.7c-2,0-2.8-2.7-1-3.7v-0.3h-4   c-1.1,0-2,0.9-2,2v4h-0.3c-0.3-0.6-1-1-1.7-1c-1.1,0-2,0.9-2,2c0,1.1,0.9,2,2,2c0.7,0,1.4-0.4,1.7-1h0.3v4c0,1.1,0.9,2,2,2h4v-0.3   c-0.2-0.1-0.3-0.2-0.4-0.3c-1.2-1.2-0.4-3.4,1.4-3.4c2,0,2.8,2.7,1,3.7v0.3h4c1.1,0,2-0.9,2-2v-4h0.3c0.3,0.6,1,1,1.7,1   c1.1,0,2-0.9,2-2C28.5,19.4,27.6,18.5,26.5,18.5z"></path></g></svg>