<svg width="36" height="36" xmlns="http://www.w3.org/2000/svg" xmlns:xlink="http://www.w3.org/1999/xlink"><defs><circle id="a" cx="18" cy="18" r="18"/></defs><g fill="none" fill-rule="evenodd"><mask id="b" fill="#fff"><use xlink:href="#a"/></mask><use fill="#DCDCDC" xlink:href="#a"/><path d="M25.6 22c-2.434 0-3.605 1.385-7.6 1.385-3.995 0-5.157-1.385-7.6-1.385C4.106 22-1 27.21-1 33.63v2.216C-1 38.14.824 40 3.071 40H32.93C35.176 40 37 38.14 37 35.846v-2.215C37 27.21 31.894 22 25.6 22zM35 37H2v-2.971C2 28.504 5.638 24 10.1 24c1.369 0 3.59 1.857 8.4 1.857 4.847 0 7.022-1.857 8.4-1.857 4.463 0 8.1 4.504 8.1 10.029V37zM18 20c6.625 0 12-5.599 12-12.5S24.625-5 18-5 6 .599 6 7.5 11.375 20 18 20zm.5-22C23.735-2 28 2.49 28 8s-4.265 10-9.5 10S9 13.51 9 8s4.265-10 9.5-10z" stroke="#FFF" fill="#FFF" fill-rule="nonzero" opacity=".622" mask="url(#b)"/></g></svg>