<svg viewBox="0 0 12 14" xmlns="http://www.w3.org/2000/svg">
<path fill-rule="evenodd" fill="currentColor" clip-rule="evenodd" d="M5.71267 4.88096C5.28541 4.26796 5.12139 3.47766 5.32992 2.69941C5.70514 1.29904 7.14455 0.467997 8.54492 0.843226L9.02789 0.972635L8.12387 4.34648C8.14172 4.35778 8.1593 4.36936 8.1766 4.38121L10.6491 1.90869L11.0027 2.26225C12.0278 3.28739 12.0278 4.94947 11.0027 5.97462C10.3758 6.6015 9.51073 6.84504 8.69878 6.70524C8.66348 6.76585 8.62509 6.82357 8.58392 6.87829C8.59849 6.93613 8.61057 6.9936 8.62067 7.04986C8.67819 7.37053 8.68405 7.72726 8.66454 8.07197C8.62545 8.76263 8.47944 9.48446 8.35669 9.94258L7.65244 12.5709C7.45272 13.3163 6.73149 13.9447 5.91291 13.7254C5.09434 13.506 4.78396 12.6012 4.98368 11.8558L6.10256 7.68009L3.0458 10.7368C2.50014 11.2825 1.56132 11.4661 0.962079 10.8669C0.362839 10.2677 0.546479 9.32884 1.09214 8.78318L3.01618 6.85913C3.35155 6.52376 3.90367 6.0364 4.48225 5.65722C4.77102 5.46797 5.0829 5.29468 5.38936 5.18417C5.45153 5.16175 5.51641 5.14083 5.5833 5.12271C5.60906 5.06403 5.6383 5.00617 5.67109 4.94938C5.6845 4.92615 5.69837 4.90335 5.71267 4.88096ZM7.16611 7.57457L5.94961 12.1146C5.84476 12.5059 6.04986 12.7268 6.17173 12.7594C6.2936 12.7921 6.58166 12.7034 6.68651 12.3121L7.39076 9.68376C7.50104 9.27221 7.63192 8.62011 7.66614 8.01546C7.67649 7.83254 7.67754 7.66117 7.66826 7.5068C7.50567 7.55333 7.33644 7.57642 7.16611 7.57457ZM5.48434 6.23023C5.52336 6.39377 5.58578 6.5516 5.67013 6.6983L2.3387 10.0297C2.05224 10.3162 1.7584 10.249 1.66919 10.1598C1.57997 10.0706 1.51279 9.77674 1.79924 9.49028L3.72329 7.56624C4.02457 7.26496 4.52386 6.82557 5.03039 6.49361C5.18899 6.38966 5.34187 6.30054 5.48434 6.23023ZM6.47771 4.22427C6.25475 3.85816 6.17614 3.40498 6.29584 2.95823C6.48298 2.25983 7.09768 1.79018 7.78286 1.75544L7.16152 4.0743C6.92559 4.07791 6.69275 4.12921 6.47771 4.22427ZM8.93427 5.72964C9.4177 5.79296 9.92416 5.63892 10.2956 5.26751C10.8068 4.75625 10.9062 3.98907 10.5937 3.37832L8.80754 5.16449C8.88057 5.34425 8.92356 5.5354 8.93427 5.72964ZM6.53712 5.44938C6.74422 5.09066 7.20292 4.96776 7.56164 5.17486C7.92035 5.38197 8.04326 5.84066 7.83615 6.19938C7.62905 6.5581 7.17035 6.68101 6.81164 6.4739C6.45292 6.2668 6.33001 5.8081 6.53712 5.44938Z"/>
</svg>
