<?xml version="1.0" encoding="UTF-8"?>
<svg version="1.1" viewBox="0 0 4.2333 4.2333" xmlns="http://www.w3.org/2000/svg">
 <g transform="matrix(.052917 0 0 .052917 .38096 -.015916)" fill="none">
  <path d="m54.801 60.201c-3.5 0-6.5 1.8-8.3 4.4l-26.9-19.6-0.3 0.4c0.9-1.5 1.4-3.3 1.4-5.1 0-1.9-0.5-3.6-1.4-5.1l0.3 0.4 26.8-19.7c1.8 2.7 4.8 4.4 8.3 4.4 5.5 0 10-4.5 10-10 0-5.5-4.5-10-10-10s-10 4.5-10 10c0 1.9 0.5 3.6 1.4 5.1l-0.2-0.4-26.8 19.7c-1.8-2.7-4.8-4.4-8.3-4.4-5.5 0-10 4.5-10 10s4.5 10 10 10c3.5 0 6.5-1.8 8.3-4.4l26.8 19.7 0.3-0.4c-0.9 1.5-1.4 3.3-1.4 5.1 0 5.5 4.5 10 10 10s10-4.5 10-10c0-5.6-4.5-10.1-10-10.1z" fill="currentColor"/>
 </g>
</svg>
