<svg xmlns="http://www.w3.org/2000/svg" viewBox="0 0 300 337"><path d="M262.8 226.1c-10.3-40.9-51.8-65.7-92.7-55.5-32 8-55.2 35.7-57.6 68.5-22.7 3.7-38.1 25.2-34.3 47.9 3.3 20.2 20.8 35 41.3 34.9h131.9c26.8-.1 48.5-21.9 48.5-48.7-.1-22.4-15.4-41.8-37.1-47.1zm22.8 52.1c-2.4 17-17 29.7-34.2 29.8H119.5c-15.3 0-27.8-12.4-27.8-27.8 0-15.3 12.4-27.8 27.8-27.8 3.8 0 6.9-3.1 6.9-6.9 0-34.5 27.9-62.5 62.4-62.5 29.9 0 55.6 21.1 61.4 50.4.6 2.9 2.9 5.2 5.9 5.6 19 2.6 32.2 20.2 29.5 39.2z"/><path d="M265.4 74.5c.1.2.2.3.4.3 0 .4.1.8.2 1.3s.2.9.2 1.3v90.9h-13.9v-84h-56.1c-4 0-7-3.3-7-7V13.6H41.4c-15 0-27.5 12.1-27.5 27.5v254.5c0 14.5 11.3 26.7 26 27.5V337c-22-.8-39.9-19.2-39.9-41.4V41.4C0 18.7 18.7 0 41.4 0h154.8c1.1 0 2.2.4 2.9.7.2 0 .3.1.4.2.1.1.2.2.4.2.2.2.5.4.7.6.3.2.6.4.7.6L264.4 73c.2.2.3.4.4.6.1.2.2.4.4.6.1 0 .2.2.2.3zm-21.5-3.7L203.2 25v45.8h40.7z" fill-rule="evenodd" clip-rule="evenodd"/></svg>