<svg width="20" height="20" xmlns="http://www.w3.org/2000/svg"><g fill="none" fill-rule="evenodd"><rect stroke="#B7BFC5" stroke-width="1.625" fill="#B7BFC5" x=".813" y=".813" width="17.875" height="17.875" rx="8.938"/><path d="M6.303 13.197a.7.7 0 00.53.22.752.752 0 00.53-.234l2.387-2.388 2.388 2.388c.15.15.327.228.53.233a.7.7 0 00.53-.219.7.7 0 00.218-.53.752.752 0 00-.233-.53L10.795 9.75l2.388-2.388a.752.752 0 00.233-.53.7.7 0 00-.219-.53.7.7 0 00-.53-.218.752.752 0 00-.53.233L9.75 8.705 7.362 6.317a.752.752 0 00-.53-.233.7.7 0 00-.53.219.71.71 0 00-.211.523c0 .207.075.386.226.536L8.705 9.75l-2.388 2.388a.752.752 0 00-.233.53.7.7 0 00.219.53z" fill="#FFF" fill-rule="nonzero"/></g></svg>