<svg viewBox="0 0 13 14" xmlns="http://www.w3.org/2000/svg"><path d="m12.438 2.452-.006-.017a.367.367 0 0 0-.067-.114l-.004-.007L10.409.125a.374.374 0 0 0-.28-.125H2.327a.376.376 0 0 0-.28.125L.095 2.314l-.005.008a.374.374 0 0 0-.066.113l-.006.017a.37.37 0 0 0-.018.11v11.064c0 .206.168.374.374.374h11.707a.375.375 0 0 0 .375-.374V2.563a.369.369 0 0 0-.018-.111zm-7.91 7.86h3.4v.357a.318.318 0 0 1-.318.318H4.846a.318.318 0 0 1-.318-.318v-.357zM.75 9.563V6.625h3.03v.357c0 .588.479 1.066 1.067 1.066H7.61c.588 0 1.066-.478 1.066-1.066v-.357h3.03v2.938H.75zm3.03-6.626v.357c0 .588.479 1.067 1.067 1.067H7.61c.589 0 1.067-.479 1.067-1.067v-.357h3.03v2.939H.75V2.937h3.03zm4.15 0v.357a.318.318 0 0 1-.318.318H4.846a.318.318 0 0 1-.318-.318v-.357h3.4zm-3.4 3.688h3.4v.357a.318.318 0 0 1-.319.317H4.846a.317.317 0 0 1-.318-.317v-.357zM2.493.749h7.468l1.284 1.44H1.21L2.494.748zm9.213 12.502H.75v-2.939h3.03v.357c0 .589.479 1.067 1.067 1.067H7.61c.588 0 1.066-.478 1.066-1.067v-.357h3.03v2.94z" fill="currentColor"/></svg>