<svg fill="none" viewBox="0 0 86 71" xmlns="http://www.w3.org/2000/svg"><path d="M74.284 15.238H11.428a5.714 5.714 0 00-5.714 5.714v40a5.714 5.714 0 005.714 5.714h62.856a5.714 5.714 0 005.714-5.714v-40a5.714 5.714 0 00-5.714-5.714z" fill="#6b6d85"/><path d="M19.047.15h47.618a5.564 5.564 0 015.564 5.564v56.992H13.483V5.714A5.564 5.564 0 0119.047.15z" fill="#f3f3fa" stroke="#000" stroke-width=".3"/><path d="M19.047 5.715h3.81v3.81h-3.81zM26.666 5.715h3.81v3.81h-3.81zM34.285 5.715h3.81v3.81h-3.81zM19.047 13.332h47.618v3.81H19.047zM19.047 20.953h11.428v3.81H19.047zM19.047 28.574h7.619v3.81h-7.62z" fill="#9293ab"/><g fill="#b0b1c4"><path d="M22.857 45.719h3.81v5.714h-3.81zM30.476 36.191h3.81V51.43h-3.81zM38.095 40.004h3.81v11.428h-3.81zM45.714 30.48h3.81v20.952h-3.81zM53.333 34.285h3.81v17.143h-3.81zM60.952 22.86h3.81v28.57h-3.81z"/><path d="M19.048 49.527h47.618v3.81H19.048z"/></g><path d="M51.427 60.952a6.503 6.503 0 01-4.598 1.904h-7.946c-1.724 0-3.379-.685-4.598-1.904s-2.874-1.905-4.599-1.905H0v5.714a5.714 5.714 0 005.714 5.714h74.284a5.714 5.714 0 005.714-5.714v-5.714H56.026a6.503 6.503 0 00-4.599 1.905z" fill="#d9dae6"/></svg>