<svg width="46" height="46" xmlns="http://www.w3.org/2000/svg"><g fill="none" fill-rule="evenodd"><circle fill="#D4ECFC" cx="23" cy="23" r="23"/><path d="M27.75 17.116h-.346l-.065-.002c-.032-.008-.063-.013-.094-.02-.027-.009-.142-.032-.069-.021l.021.002a.208.208 0 01-.036-.013 1.1 1.1 0 01-.115-.066c-.006-.008-.071-.06-.084-.07l-.05-.046c-.002-.005-.005-.01-.01-.015l-.008-.016c-.01-.013-.018-.028-.029-.041a1.259 1.259 0 01-.042-.07.118.118 0 01-.008-.022c-.002-.013-.008-.024-.013-.036-.002-.006-.002-.008-.005-.013-.01-.031 0-.062-.026-.093v-.033c-.003-.013-.005-.02-.005-.026 0 .003.002.013.005.02 0-.017-.003-.033-.003-.043 0-.044 0-.085.003-.128v-2.561c0-.347.005-.694.008-1.04l1.214 1.191 3.222 3.162H27.75zm1.3 13.383H16.948a.529.529 0 01-.523-.513c-.013-.278.248-.514.523-.514h.817v-4.798c0-.142-.019-.314.05-.445.162-.316.562-.254.86-.254h1.108c.112 0 .227.002.34.005.013 0 .029 0 .042.003l.023.002.024.003.016.002a.221.221 0 01.039.01h.002a.458.458 0 01.317.334c.008.024.021.052.024.08l.002.01v.003c0 .008 0 .015.003.026l-.003.007v5.01h1.073v-.029c0-.044.006-.09.006-.133l.002-.14c.003-.138.008-.277.01-.413l.003-.118c0-.033 0-.064.003-.097V21.6c0-.064-.005-.126-.005-.19a.665.665 0 01.013-.113l.015-.054.008-.018.008-.015.024-.046c.002-.003.002-.008.005-.01.005-.008.01-.019.018-.026a.456.456 0 01.317-.183c.013-.002.029-.002.045-.005.047-.002.096-.005.143-.005h.034c.265-.005.53.003.794.008H23.968c.039 0 .076-.005.115-.003.05.003.097.01.139.026l.01.002c.034.01.063.026.092.044.01.008.02.013.028.02l.03.024.012.013.013.012c.016.018.032.036.045.057.002.005.008.01.01.015a.291.291 0 01.034.067c.01.023.019.046.024.072l.008.026c.002.005.002.013.005.018.003.015.005.03.005.049v8.086h1.11c0-.329.016-.658.016-.986V22.77c0-.064-.006-.126.013-.19.07-.252.298-.326.534-.326h1.761a.54.54 0 01.388.138.382.382 0 01.086.12c.013.03.023.06.034.091.008.02.01.041.013.064V29.472h.555c.293 0 .51.236.523.514.013.277-.248.513-.52.513zm3.947-13.108a.228.228 0 00-.039-.16l-.008-.01-.008-.01-.007-.01-.008-.008s0-.002-.003-.002l-.767-.753c-.591-.583-1.185-1.164-1.777-1.744l-1.997-1.963-1.429-1.402c-.084-.082-.165-.17-.254-.25-.102-.092-.214-.076-.337-.076H15.016c-.44 0-.882-.039-1.282.18a1.433 1.433 0 00-.733 1.24v21.033c0 .044-.002.085 0 .129a1.433 1.433 0 001.26 1.397c.24.03.491.013.735.013h16.072c.304 0 .64.028.93-.067A1.44 1.44 0 0033 33.579V17.391h-.003z" fill="#25A6F7"/></g></svg>