<svg fill="none" viewBox="0 0 112 111" xmlns="http://www.w3.org/2000/svg" xmlns:xlink="http://www.w3.org/1999/xlink"><linearGradient id="a"><stop offset="0" stop-color="#73dfe7"/><stop offset="1" stop-color="#0095f7"/></linearGradient><linearGradient id="c" gradientUnits="userSpaceOnUse" x1="28.88" x2="52.011" xlink:href="#a" y1="31.801" y2="74.977"/><linearGradient id="b"><stop offset="0" stop-color="#f80"/><stop offset="1" stop-color="#e63535"/></linearGradient><linearGradient id="d" gradientUnits="userSpaceOnUse" x1="17.816" x2="20.277" xlink:href="#b" y1="47.027" y2="50.837"/><linearGradient id="e" gradientUnits="userSpaceOnUse" x1="25.436" x2="27.896" xlink:href="#b" y1="47.027" y2="50.837"/><linearGradient id="f" gradientUnits="userSpaceOnUse" x1="33.055" x2="35.516" xlink:href="#b" y1="47.027" y2="50.837"/><linearGradient id="g" gradientUnits="userSpaceOnUse" x1="3.666" x2="3.944" xlink:href="#b" y1="54.648" y2="60.033"/><linearGradient id="h" gradientUnits="userSpaceOnUse" x1="15.355" x2="16.467" xlink:href="#b" y1="62.266" y2="67.426"/><linearGradient id="i" gradientUnits="userSpaceOnUse" x1="16.586" x2="18.165" xlink:href="#b" y1="69.887" y2="74.776"/><linearGradient id="j" gradientUnits="userSpaceOnUse" x1="21.627" x2="25.674" xlink:href="#a" y1="87.65" y2="91.827"/><linearGradient id="k" gradientUnits="userSpaceOnUse" x1="29.246" x2="36.515" xlink:href="#a" y1="81.199" y2="84.012"/><linearGradient id="l" gradientUnits="userSpaceOnUse" x1="36.864" x2="43.465" xlink:href="#a" y1="83.781" y2="87.187"/><linearGradient id="m" gradientUnits="userSpaceOnUse" x1="44.483" x2="52.228" xlink:href="#a" y1="77.334" y2="79.514"/><linearGradient id="n" gradientUnits="userSpaceOnUse" x1="52.102" x2="59.576" xlink:href="#a" y1="79.908" y2="82.479"/><linearGradient id="o" gradientUnits="userSpaceOnUse" x1="59.721" x2="67.737" xlink:href="#a" y1="72.174" y2="73.828"/><linearGradient id="p" gradientUnits="userSpaceOnUse" x1="3.667" x2="3.945" xlink:href="#a" y1="90.844" y2="96.229"/><path d="M110.474 50.08V37.7a1.429 1.429 0 00-1.429-1.428h-7.826a1.43 1.43 0 01-1.38-1.069 34.058 34.058 0 00-3.576-8.623 1.429 1.429 0 01.22-1.733l5.536-5.536a1.429 1.429 0 000-2.02l-8.754-8.755a1.428 1.428 0 00-2.02 0l-5.536 5.537a1.429 1.429 0 01-1.733.22 34.071 34.071 0 00-8.623-3.576 1.428 1.428 0 01-1.069-1.38V1.51A1.429 1.429 0 0072.856.082H60.475a1.428 1.428 0 00-1.428 1.429v7.826a1.43 1.43 0 01-1.069 1.38 34.071 34.071 0 00-8.623 3.576 1.428 1.428 0 01-1.733-.22l-5.537-5.537a1.428 1.428 0 00-2.02 0l-8.754 8.755a1.428 1.428 0 000 2.02l5.536 5.536a1.43 1.43 0 01.22 1.733 34.071 34.071 0 00-3.575 8.623 1.428 1.428 0 01-1.38 1.069h-7.827a1.429 1.429 0 00-1.428 1.428v12.38a1.428 1.428 0 001.428 1.43h7.827a1.43 1.43 0 011.38 1.068 34.071 34.071 0 003.576 8.623 1.428 1.428 0 01-.22 1.733L31.31 68.47a1.428 1.428 0 000 2.02l8.755 8.755a1.428 1.428 0 002.02 0l5.537-5.537a1.428 1.428 0 011.732-.22 34.07 34.07 0 008.624 3.576 1.429 1.429 0 011.068 1.38v7.827a1.429 1.429 0 001.429 1.428h12.38a1.429 1.429 0 001.429-1.428v-7.827a1.429 1.429 0 011.068-1.38 34.065 34.065 0 008.624-3.576 1.428 1.428 0 011.732.22l5.537 5.536a1.429 1.429 0 002.02 0l8.754-8.754a1.429 1.429 0 000-2.02l-5.536-5.537a1.428 1.428 0 01-.22-1.732 34.059 34.059 0 003.575-8.624 1.433 1.433 0 011.381-1.068h7.825a1.429 1.429 0 001.429-1.428zm-43.213 5.224a11.43 11.43 0 11-1.19-22.827 11.43 11.43 0 011.19 22.827z" fill="#d9dae6"/><g fill="#eaeae8"><path d="M32.241 5.686L29.69 2.857A55.953 55.953 0 0133.127 0l2.314 3.025a52.342 52.342 0 00-3.2 2.661zM18.614 25.524l-3.558-1.361A54.941 54.941 0 0127.359 5.082l2.71 2.677a51.148 51.148 0 00-11.455 17.765zM87.207 95.19l-1.418-3.536a51.428 51.428 0 003.45-1.533l1.673 3.422a54.705 54.705 0 01-3.705 1.647zM94.508 91.612l-1.923-3.289a52.014 52.014 0 0016.291-15.042l3.124 2.18a55.845 55.845 0 01-17.492 16.15z"/></g><path d="M86.779 58.343l-3.093-2.224a20.954 20.954 0 00-17.02-33.173A21.02 21.02 0 0047.612 35.17l-3.463-1.59a24.765 24.765 0 0147.277 10.319 24.59 24.59 0 01-4.648 14.445z" fill="url(#c)"/><path d="M74.284 55.324H11.428a5.714 5.714 0 00-5.714 5.714v39.999a5.715 5.715 0 005.714 5.715h62.856a5.715 5.715 0 005.714-5.715V61.038a5.714 5.714 0 00-5.714-5.714z" fill="#6b6d85"/><path d="M19.047 40.232h47.618a5.564 5.564 0 015.564 5.564v56.992H13.483V45.796a5.565 5.565 0 015.564-5.564z" fill="#f3f3fa" stroke="#000" stroke-width=".3"/><path d="M19.047 45.797h3.81v3.81h-3.81z" fill="url(#d)"/><path d="M26.666 45.797h3.81v3.81h-3.81z" fill="url(#e)"/><path d="M34.285 45.797h3.81v3.81h-3.81z" fill="url(#f)"/><path d="M19.047 53.418h47.618v3.81H19.047z" fill="url(#g)"/><path d="M19.047 61.035h11.428v3.81H19.047z" fill="url(#h)"/><path d="M19.047 68.656h7.619v3.81h-7.62z" fill="url(#i)"/><path d="M22.857 85.805h3.81v5.714h-3.81z" fill="url(#j)"/><path d="M30.476 76.277h3.81v15.238h-3.81z" fill="url(#k)"/><path d="M38.095 80.09h3.809v11.428h-3.81z" fill="url(#l)"/><path d="M45.714 70.566h3.81v20.952h-3.81z" fill="url(#m)"/><path d="M53.333 74.371h3.81v17.143h-3.81z" fill="url(#n)"/><path d="M60.951 62.945h3.81v28.571h-3.81z" fill="url(#o)"/><path d="M19.048 89.613h47.618v3.81H19.048z" fill="url(#p)"/><path d="M51.427 101.034a6.505 6.505 0 01-4.598 1.904h-7.946a6.505 6.505 0 01-4.598-1.904 6.502 6.502 0 00-4.599-1.905H0v5.714a5.715 5.715 0 005.714 5.714h74.284a5.716 5.716 0 005.714-5.714v-5.714H56.026a6.502 6.502 0 00-4.599 1.905z" fill="#b0b1c4"/></svg>