<svg fill="currentColor" xmlns="http://www.w3.org/2000/svg" viewBox="0 0 30 30"><circle opacity=".8" cx="15" cy="15" r="15" fill="#0092E4"/><path fill-rule="evenodd" clip-rule="evenodd" d="M16.112 8.35l1.53 1.529c.418.42.555.938.381 1.462-.12.365-.354.605-.381.632l-1.53 1.53a1.604 1.604 0 01-.53.36v8.787a.475.475 0 01-.476.476h-1.701a.475.475 0 010-.95h1.227v-.752h-1.227a.475.475 0 110-.95h1.227v-6.597a1.739 1.739 0 01-.614-.377l-1.53-1.529c-.418-.42-.555-.938-.381-1.46.12-.365.354-.605.381-.632l1.53-1.53c.421-.418.94-.555 1.462-.38.364.12.605.354.632.38zm-.622.617a.89.89 0 00-.307-.174c-.253-.075-.423.056-.545.176l-.454.454.881.88.881-.88-.452-.452-.004-.004zM13.107 10.5c-.022.026-.127.148-.175.307-.075.25.056.422.176.545l.454.454.881-.881-.88-.88-.453.451-.003.004zm1.533 2.382a.889.889 0 00.307.175c.25.075.423-.056.545-.176l.454-.454-.881-.88-.881.88.452.452.004.003zm2.383-1.532a.89.89 0 00.175-.307c.075-.253-.056-.423-.176-.545l-.454-.454-.881.88.88.882.453-.452.003-.004z" fill="#fff"/></svg>