<svg fill="currentColor" xmlns="http://www.w3.org/2000/svg" viewBox="0 0 30 30"><circle opacity=".8" cx="15" cy="15" r="15" fill="#0092E4"/><path fill-rule="evenodd" clip-rule="evenodd" d="M13.212 12.666a1.853 1.853 0 113.705 0 1.853 1.853 0 01-3.705 0zm1.853-2.803a2.803 2.803 0 00-1.711 5.023l-1.551 2.95-.811-2.061a1.954 1.954 0 10-2.2-.03L7.438 19.29a.475.475 0 00.444.645H10.7l-.458.871a.475.475 0 00.42.696h8.808a.475.475 0 00.416-.703l-.473-.865h2.809a.475.475 0 00.441-.65l-1.391-3.509a1.954 1.954 0 10-2.2-.027l-.786 2.124-1.597-2.92a2.803 2.803 0 00-1.623-5.088zm.765 5.5a2.804 2.804 0 01-1.637-.032l-2.745 5.22h7.22l-2.838-5.188zm3.357-1.218a1.004 1.004 0 112.008 0 1.004 1.004 0 01-2.008 0zm-.298 4.83l.004.008h2.628l-1.147-2.892a1.984 1.984 0 01-.415-.006l-1.07 2.89zm-8.794-2.884l1.124 2.855-.02.038H8.573l1.105-2.899a1.98 1.98 0 00.417.006zM8.91 14.145a1.004 1.004 0 112.008 0 1.004 1.004 0 01-2.008 0z" fill="#fff"/></svg>