<svg fill="currentColor" xmlns="http://www.w3.org/2000/svg" viewBox="0 0 30 30"><circle opacity=".8" cx="15" cy="15" r="15" fill="#0092E4"/><path fill-rule="evenodd" clip-rule="evenodd" d="M12.905 8.097a.473.473 0 00-.72.013L9.49 11.383a.473.473 0 00.365.774h1.267c.024 1.581.164 3.492.367 5.245.222 1.919.524 3.698.848 4.65.022.064.056.12.099.167a.473.473 0 00.847-.29c0-.107.002-.21.008-.313l.058-.561c.16-.998.6-1.774 1.245-2.335.747-.648 1.813-1.046 3.152-1.122v1.443a.473.473 0 00.787.354l3.273-2.9a.473.473 0 00-.013-.72L18.52 13.08a.474.474 0 00-.774.365v1.272c-1.49.054-2.827.39-3.804 1.413a4.145 4.145 0 00-.153.17 67.78 67.78 0 00.203-4.144h1.459a.473.473 0 00.354-.787l-2.901-3.273zm-2.046 3.113l1.705-2.07 1.836 2.07h-1.351v.474c0 2.165-.207 4.818-.424 7.108-.07-.475-.135-.978-.195-1.499-.22-1.907-.364-3.992-.364-5.61v-.473h-1.207zm3.116 6.795c-.058.05-.114.101-.169.154.219-.589.497-1.035.821-1.375.806-.843 1.991-1.128 3.593-1.128h.473v-1.207l2.072 1.705-2.072 1.835v-1.35h-.473c-1.719 0-3.193.453-4.245 1.366z" fill="#fff"/></svg>