<svg fill="none" xmlns="http://www.w3.org/2000/svg"><path d="M5 3.588h11l3 4v14H5v-18Z" stroke="#fff" stroke-linecap="round" stroke-linejoin="round"/><g opacity=".5"><mask id="a" fill="#fff"><path fill-rule="evenodd" clip-rule="evenodd" d="M9 9.588a.5.5 0 0 0 0 1h6a.5.5 0 0 0 0-1H9Zm-.5 3.5a.5.5 0 0 1 .5-.5h6a.5.5 0 1 1 0 1H9a.5.5 0 0 1-.5-.5Zm0 3a.5.5 0 0 1 .5-.5h6a.5.5 0 1 1 0 1H9a.5.5 0 0 1-.5-.5Z"/></mask><path d="M9.5 10.088a.5.5 0 0 1-.5.5v-2a1.5 1.5 0 0 0-1.5 1.5h2Zm-.5-.5a.5.5 0 0 1 .5.5h-2a1.5 1.5 0 0 0 1.5 1.5v-2Zm6 0H9v2h6v-2Zm-.5.5a.5.5 0 0 1 .5-.5v2a1.5 1.5 0 0 0 1.5-1.5h-2Zm.5.5a.5.5 0 0 1-.5-.5h2a1.5 1.5 0 0 0-1.5-1.5v2Zm-6 0h6v-2H9v2Zm0 1a1.5 1.5 0 0 0-1.5 1.5h2a.5.5 0 0 1-.5.5v-2Zm6 0H9v2h6v-2Zm1.5 1.5a1.5 1.5 0 0 0-1.5-1.5v2a.5.5 0 0 1-.5-.5h2Zm-1.5 1.5a1.5 1.5 0 0 0 1.5-1.5h-2a.5.5 0 0 1 .5-.5v2Zm-6 0h6v-2H9v2Zm-1.5-1.5a1.5 1.5 0 0 0 1.5 1.5v-2a.5.5 0 0 1 .5.5h-2Zm1.5 1.5a1.5 1.5 0 0 0-1.5 1.5h2a.5.5 0 0 1-.5.5v-2Zm6 0H9v2h6v-2Zm1.5 1.5a1.5 1.5 0 0 0-1.5-1.5v2a.5.5 0 0 1-.5-.5h2Zm-1.5 1.5a1.5 1.5 0 0 0 1.5-1.5h-2a.5.5 0 0 1 .5-.5v2Zm-6 0h6v-2H9v2Zm-1.5-1.5a1.5 1.5 0 0 0 1.5 1.5v-2a.5.5 0 0 1 .5.5h-2Z" fill="#F3F3FA" mask="url(#a)"/></g></svg>