<svg width="32" height="32" viewBox="0 0 32 32" fill="none" xmlns="http://www.w3.org/2000/svg">
<path d="M6.87955 26.7809L0.381369 15.5253C0.13153 15.0926 0 14.6017 0 14.102C0 13.6024 0.13153 13.1115 0.381369 12.6788L6.87955 1.42341C7.12942 0.990613 7.48883 0.63122 7.92163 0.381358C8.35444 0.131496 8.84539 -3.07551e-05 9.34514 5.3943e-09H22.3415C22.8412 1.27e-05 23.3321 0.13156 23.7649 0.38142C24.1976 0.63128 24.557 0.99065 24.8068 1.42341L31.305 12.6788C31.5549 13.1115 31.6865 13.6024 31.6865 14.1022C31.6865 14.6019 31.5549 15.0928 31.305 15.5256L24.8068 26.7807C24.557 27.2134 24.1976 27.5728 23.7649 27.8227C23.3321 28.0725 22.8412 28.2041 22.3415 28.2041H9.34514C8.84539 28.2041 8.35442 28.0726 7.92161 27.8228C7.4888 27.5729 7.12941 27.2135 6.87955 26.7807V26.7809Z" fill="#FCFEFF"/>
<path opacity="0.07" d="M12.2075 11.5957L10.4722 13.3261L11.9468 14.801L10.4868 17.3943L21.5362 28.4439L24.2137 28.4444L29.4426 19.0531L21.1628 10.7726L12.2075 11.5957Z" fill="#0278D5"/>
<path d="M20.9677 10.7033H10.7102C10.5451 10.7033 10.4102 10.8384 10.4102 11.0038V13.1243C10.4102 13.2892 10.5453 13.4243 10.7102 13.4243H20.9677C21.1328 13.4243 21.2679 13.2892 21.2679 13.1243V11.0033C21.2679 10.8384 21.133 10.703 20.9679 10.703L20.9677 10.7033ZM19.3796 12.6775C19.217 12.677 19.0612 12.6121 18.9463 12.4971C18.8314 12.382 18.7667 12.2261 18.7664 12.0635C18.7664 11.983 18.7822 11.9032 18.813 11.8288C18.8438 11.7544 18.8889 11.6868 18.9459 11.6298C19.0028 11.5729 19.0705 11.5277 19.1449 11.4969C19.2193 11.4661 19.2991 11.4503 19.3796 11.4504C19.7188 11.4504 19.9935 11.7234 19.9935 12.0635C19.9935 12.1442 19.9777 12.224 19.9468 12.2985C19.916 12.373 19.8707 12.4406 19.8137 12.4976C19.7567 12.5547 19.689 12.5999 19.6146 12.6307C19.5401 12.6616 19.4602 12.6775 19.3796 12.6775ZM20.9677 14.7794L10.7102 14.7799C10.5451 14.7799 10.4102 14.9151 10.4102 15.0804V17.2007C10.4102 17.3656 10.5453 17.501 10.7102 17.501H20.9677C21.1328 17.501 21.2679 17.3656 21.2679 17.2007V15.0799C21.2679 14.9151 21.133 14.7794 20.9679 14.7794H20.9677ZM19.3796 16.7539C19.217 16.7535 19.0611 16.6886 18.9462 16.5736C18.8313 16.4585 18.7666 16.3026 18.7664 16.1399C18.7664 16.0594 18.7822 15.9796 18.813 15.9052C18.8438 15.8308 18.8889 15.7632 18.9459 15.7062C19.0028 15.6493 19.0705 15.6041 19.1449 15.5733C19.2193 15.5425 19.2991 15.5267 19.3796 15.5268C19.4623 15.5234 19.5447 15.5368 19.622 15.5662C19.6993 15.5955 19.7699 15.6402 19.8296 15.6974C19.8892 15.7547 19.9367 15.8235 19.9691 15.8996C20.0015 15.9756 20.0182 16.0575 20.0182 16.1402C20.0182 16.2229 20.0015 16.3047 19.9691 16.3808C19.9367 16.4569 19.8892 16.5256 19.8296 16.5829C19.7699 16.6402 19.6993 16.6849 19.622 16.7142C19.5447 16.7435 19.4623 16.7569 19.3796 16.7536" fill="#0278D5"/>
<path d="M25.5369 17H19.0269C17.9093 17 17 17.8832 17 18.969V30.031C17 31.1165 17.9091 32 19.0269 32H27.326C28.4436 32 29.3529 31.117 29.3529 30.031V21.1433L25.5369 17Z" fill="#EFFBFF"/>
<path d="M25.1994 17.8823H19.6194C18.6615 17.8823 17.8821 18.6616 17.8821 19.6196V29.3802C17.8821 30.3379 18.6613 31.1175 19.6194 31.1175H26.733C27.6909 31.1175 28.4703 30.3384 28.4703 29.3802V21.5381L25.1994 17.8823ZM25.4282 19.3797L27.1307 21.2823H25.4282V19.3797ZM27.6425 29.3802C27.6425 29.8817 27.2345 30.2897 26.733 30.2897H19.6194C19.1179 30.2897 18.7099 29.8817 18.7099 29.3802V19.6196C18.7099 19.1181 19.1179 18.7101 19.6194 18.7101H24.6004V22.1101H27.6425V29.3802Z" fill="#1B2E49"/>
<path d="M23.1762 22.9364C21.5505 22.9364 20.2329 24.2541 20.2329 25.8797C20.2329 27.5053 21.5507 28.823 23.1762 28.823C24.8016 28.823 26.1194 27.5053 26.1194 25.8797C26.1194 24.2541 24.8016 22.9364 23.1762 22.9364ZM22.8134 26.2936L23.5427 26.9172L23.0047 27.5465L21.0553 25.8798L23.0046 24.2129L23.5425 24.8422L22.8131 25.4659H25.2967V26.2936H22.8134Z" fill="#1B2E49"/>
</svg>
