<svg width="32" height="32" viewBox="0 0 32 32" fill="none" xmlns="http://www.w3.org/2000/svg">
<path d="M4.91604 5.54175L2.78711 6.60642V25.2924L4.91604 26.3508L4.92884 26.3355V5.55641L4.91604 5.54175Z" fill="#8C3123"/>
<path d="M16.3097 23.6387L4.91602 26.3508V5.54175L16.3097 8.19475V23.6387Z" fill="#E05243"/>
<path d="M11.1667 19.3926L15.9996 20.0079L16.0299 19.9379L16.0571 12.0132L15.9996 11.9513L11.1667 12.5576V19.3926" fill="#8C3123"/>
<path d="M15.9995 23.6691L27.083 26.3566L27.1004 26.3288L27.1001 5.56033L27.0825 5.54175L15.9995 8.22521V23.6691" fill="#8C3123"/>
<path d="M20.8337 19.3926L15.9995 20.0079V11.9513L20.8337 12.5576V19.3926Z" fill="#E05243"/>
<path d="M20.8338 9.2522L15.9996 10.1332L11.1667 9.2522L15.9935 7.98706L20.8338 9.2522Z" fill="#5E1F18"/>
<path d="M20.8338 22.6892L15.9996 21.8024L11.1667 22.6892L15.9937 24.0366L20.8338 22.6892Z" fill="#F2B0A9"/>
<path d="M11.1667 9.25223L15.9996 8.05626L16.0387 8.04418V0.0323097L15.9996 0L11.1667 2.41683V9.25223Z" fill="#8C3123"/>
<path d="M20.8337 9.25223L15.9995 8.05626V0L20.8337 2.41683V9.25223Z" fill="#E05243"/>
<path d="M15.9996 31.941L11.1663 29.525V22.6897L15.9996 23.8853L16.0707 23.9661L16.0514 31.8015L15.9996 31.941Z" fill="#8C3123"/>
<path d="M15.9995 31.9409L20.8333 29.5249V22.6896L15.9995 23.8852V31.9409V31.9409ZM27.083 5.54175L29.2128 6.60642V25.2924L27.083 26.3566V5.54175Z" fill="#E05243"/>
<path d="M27.9678 18H21.8917C20.8487 18 20 18.8243 20 19.8377V30.1623C20 31.1754 20.8485 32 21.8917 32H29.6377C30.6807 32 31.5294 31.1759 31.5294 30.1623V21.867L27.9678 18Z" fill="#FBE6E4"/>
<path d="M27.653 18.8235H22.445C21.5509 18.8235 20.8235 19.5508 20.8235 20.445V29.5548C20.8235 30.4488 21.5508 31.1763 22.445 31.1763H29.0843C29.9784 31.1763 30.7058 30.4492 30.7058 29.5548V22.2356L27.653 18.8235ZM27.8665 20.221L29.4556 21.9968H27.8665V20.221ZM29.9332 29.5548C29.9332 30.0229 29.5524 30.4037 29.0843 30.4037H22.445C21.9769 30.4037 21.5961 30.0229 21.5961 29.5548V20.445C21.5961 19.9769 21.9769 19.5961 22.445 19.5961H27.0939V22.7694H29.9332V29.5548V29.5548Z" fill="#4F5162"/>
<path d="M25.7647 23.5406C24.2474 23.5406 23.0176 24.7706 23.0176 26.2877C23.0176 27.8049 24.2475 29.0348 25.7647 29.0348C27.2817 29.0348 28.5116 27.8049 28.5116 26.2877C28.5116 24.7706 27.2817 23.5406 25.7647 23.5406ZM25.426 26.6741L26.1067 27.2561L25.6046 27.8434L23.7852 26.2879L25.6045 24.732L26.1066 25.3194L25.4257 25.9016H27.7438V26.6741H25.426Z" fill="#4F5162"/>
</svg>
