<svg width="32" height="28" fill="none" xmlns="http://www.w3.org/2000/svg"><path d="m4.916 4.849-2.129.932v16.35l2.129.926.013-.013V4.862l-.013-.013Z" fill="#3DC7F6"/><path d="M16.31 20.684 4.916 23.057V4.849L16.31 7.17v13.514Z" fill="#FAFCFF"/><path d="m11.167 16.969 4.833.538.03-.061.027-6.934-.057-.055-4.833.531v5.98" fill="#3DC7F6"/><path d="m16 20.71 11.083 2.352.017-.024V4.865l-.018-.016L16 7.197v13.514" fill="#3DC7F6"/><path d="m20.834 16.969-4.835.538v-7.05l4.835.531v5.98Z" fill="#FAFCFF"/><path d="M20.834 8.096 16 8.866l-4.833-.77 4.826-1.107 4.84 1.107Z" fill="#3DC7F6"/><path d="M20.834 19.853 16 19.077l-4.833.776 4.827 1.179 4.84-1.179Z" fill="#CDF4FE"/><path d="M11.167 8.096 16 7.049l.039-.01V.029L15.999 0l-4.832 2.115v5.98Z" fill="#3DC7F6"/><path d="m20.834 8.096-4.835-1.047V0l4.835 2.115v5.98Z" fill="#FAFCFF"/><path d="m16 27.948-4.834-2.114v-5.98L16 20.9l.07.07-.019 6.856-.051.122Z" fill="#3DC7F6"/><path d="m16 27.948 4.833-2.114v-5.98L16 20.9v7.048ZM27.082 4.85l2.13.932v16.35l-2.13.931V4.849Z" fill="#FAFCFF"/><path d="M27.968 15.75h-6.076c-1.043 0-1.892.721-1.892 1.608v9.034c0 .887.849 1.608 1.892 1.608h7.746c1.043 0 1.891-.721 1.891-1.608v-7.258l-3.561-3.384Z" fill="#EFFBFF"/><path d="M27.653 16.47h-5.208c-.894 0-1.622.637-1.622 1.42v7.97c0 .783.728 1.42 1.622 1.42h6.64c.893 0 1.62-.637 1.62-1.42v-6.404l-3.052-2.985Zm.213 1.223 1.59 1.554h-1.59v-1.554Zm2.067 8.167c0 .41-.38.743-.849.743h-6.639c-.468 0-.849-.333-.849-.743v-7.97c0-.41.38-.743.849-.743h4.649v2.776h2.84v5.938Z" fill="#1B2E49"/><path d="M25.765 20.598c-1.518 0-2.747 1.076-2.747 2.404 0 1.327 1.23 2.404 2.747 2.404s2.747-1.077 2.747-2.404c0-1.328-1.23-2.404-2.747-2.404Zm-.339 2.742.68.51-.501.513-1.82-1.361 1.82-1.361.502.514-.681.509h2.318v.676h-2.318Z" fill="#1B2E49"/></svg>