<svg viewBox="0 0 28 28" fill="none" xmlns="http://www.w3.org/2000/svg"><path d="m4.302 4.849-1.863.932v16.35l1.863.926.01-.013V4.862l-.01-.013Z" fill="#3DC7F6"/><path d="m14.271 20.684-9.97 2.373V4.849l9.97 2.321v13.514Z" fill="#FAFCFF"/><path d="m9.771 16.969 4.229.538.026-.061.024-6.934-.05-.055-4.229.531v5.98" fill="#3DC7F6"/><path d="m14 20.71 9.698 2.352.015-.024V4.865l-.016-.016L14 7.197v13.514" fill="#3DC7F6"/><path d="m18.23 16.969-4.23.538v-7.05l4.23.531v5.98Z" fill="#FAFCFF"/><path d="m18.23 8.096-4.23.77-4.229-.77 4.223-1.107 4.236 1.107Z" fill="#3DC7F6"/><path d="M18.23 19.853 14 19.077l-4.229.776 4.224 1.179 4.235-1.179Z" fill="#CDF4FE"/><path d="M9.771 8.096 14 7.049l.034-.01V.029L14 0 9.77 2.115v5.98Z" fill="#3DC7F6"/><path d="M18.23 8.096 14 7.049V0l4.23 2.115v5.98Z" fill="#FAFCFF"/><path d="m14 27.948-4.23-2.114v-5.98L14 20.9l.062.07-.017 6.856-.045.122Z" fill="#3DC7F6"/><path d="m14 27.948 4.229-2.114v-5.98l-4.23 1.046v7.048ZM23.697 4.85l1.863.932v16.35l-1.863.931V4.849Z" fill="#FAFCFF"/><path d="M24.472 15.75h-5.317c-.912 0-1.655.721-1.655 1.608v9.034c0 .887.742 1.608 1.655 1.608h6.778c.913 0 1.655-.721 1.655-1.608v-7.258l-3.116-3.384Z" fill="#EFFBFF"/><path d="M24.196 16.47H19.64a1.42 1.42 0 0 0-1.418 1.42v7.97a1.42 1.42 0 0 0 1.418 1.42h5.81a1.42 1.42 0 0 0 1.418-1.42v-6.404l-2.67-2.985Zm.187 1.223 1.39 1.554h-1.39v-1.554Zm1.809 8.167c0 .41-.334.743-.743.743h-5.81a.744.744 0 0 1-.742-.743v-7.97c0-.41.333-.743.742-.743h4.068v2.776h2.485v5.938Z" fill="#1B2E49"/><path d="M22.544 20.598a2.404 2.404 0 1 0 0 4.807 2.404 2.404 0 0 0 0-4.807Zm-.296 2.742.595.51-.439.513-1.592-1.361 1.592-1.361.44.514-.597.509h2.029v.676h-2.028Z" fill="#1B2E49"/></svg>