<svg xmlns="http://www.w3.org/2000/svg" fill="none" viewBox="0 0 26 32"><path fill="#4F5162" d="M17.692 0H4.2A4.205 4.205 0 000 4.2v23.6C0 30.114 1.884 32 4.2 32h17.2c2.316 0 4.2-1.884 4.2-4.2V8.839L17.692 0zm.553 3.62l4.116 4.6h-4.116v-4.6zm5.354 24.18a2.201 2.201 0 01-2.2 2.199H4.2a2.201 2.201 0 01-2.198-2.2V4.2c0-1.212.986-2.199 2.198-2.199h12.044v8.221h7.355V27.8z"/><path fill="#4F5162" d="M12.8 12.22a7.116 7.116 0 100 14.232 7.116 7.116 0 000-14.233zm-.877 8.117l1.763 1.507-1.3 1.522-4.714-4.03 4.713-4.03 1.3 1.521-1.763 1.508h6.005v2.002h-6.004z"/></svg>