<svg viewBox="0 0 28 28" fill="none" xmlns="http://www.w3.org/2000/svg"><path d="M6.02 23.433.334 13.585a2.491 2.491 0 0 1 0-2.491L6.02 1.245A2.49 2.49 0 0 1 8.177 0h11.372a2.491 2.491 0 0 1 2.157 1.245l5.686 9.849a2.49 2.49 0 0 1 0 2.49l-5.686 9.85a2.49 2.49 0 0 1-2.157 1.245H8.177a2.49 2.49 0 0 1-2.157-1.246Z" fill="#FCFEFF"/><path opacity=".07" d="M10.681 10.146 9.163 11.66l1.29 1.29-1.277 2.27 9.668 9.668h2.343l4.575-8.216-7.245-7.246-7.835.72Z" fill="#0278D5"/><path d="M18.347 9.365H9.37a.263.263 0 0 0-.262.263v1.856c0 .144.118.262.262.262h8.976a.264.264 0 0 0 .262-.262V9.628a.264.264 0 0 0-.262-.263Zm-1.39 1.728a.538.538 0 0 1 0-1.074.536.536 0 1 1 0 1.074Zm1.39 1.839H9.37a.263.263 0 0 0-.262.263v1.856c0 .144.118.262.262.262h8.976a.264.264 0 0 0 .262-.262v-1.856a.264.264 0 0 0-.262-.263Zm-1.39 1.728a.538.538 0 0 1-.205-1.033.536.536 0 0 1 .205-.041.537.537 0 1 1 0 1.073" fill="#0278D5"/><path d="M22.345 14.875h-5.697c-.977 0-1.773.773-1.773 1.723v9.68c0 .949.796 1.722 1.773 1.722h7.262c.978 0 1.774-.773 1.774-1.723V18.5l-3.34-3.625Z" fill="#EFFBFF"/><path d="M22.05 15.647h-4.883c-.838 0-1.52.682-1.52 1.52v8.54c0 .839.682 1.52 1.52 1.52h6.224c.839 0 1.52-.681 1.52-1.52v-6.861l-2.861-3.199Zm.2 1.31 1.49 1.665h-1.49v-1.665Zm1.937 8.75a.797.797 0 0 1-.796.796h-6.224a.797.797 0 0 1-.796-.795v-8.54c0-.44.357-.797.796-.797h4.358v2.975h2.662v6.362Z" fill="#1B2E49"/><path d="M20.28 20.07a2.575 2.575 0 1 0 0 5.15 2.575 2.575 0 0 0 0-5.15Zm-.318 2.937.638.546-.47.55-1.706-1.458 1.705-1.459.47.55-.637.547h2.173v.724h-2.173Z" fill="#1B2E49"/></svg>