<?xml version="1.0" encoding="UTF-8"?>
<svg version="1.1" viewBox="0 0 4.2333 4.2333" xmlns="http://www.w3.org/2000/svg">
 <g transform="matrix(.16933 0 0 .16933 -4.2333e-8 6.2917e-6)" fill="none">
  <path d="m24.109 13.863-9.9338 4.1828c-0.5214 0.1995-1.0844 0.3136-1.6749 0.3136-0.5893 0-1.1515-0.1149-1.6705-0.3121l-9.9397-4.1851c-0.16553-0.0717-0.3189-0.1751-0.45391-0.3094-0.58169-0.5813-0.58169-1.524 0-2.1057 0.1377-0.1373 0.29712-0.2418 0.46421-0.3136l1.2467-0.5245c0.11558-0.0694 0.24869-0.1114 0.39214-0.1114 0.42491 0 0.76934 0.3441 0.76934 0.7691 0 0.3445-0.22695 0.6317-0.53897 0.7305l-0.38984 0.1621c-0.12241 0.0656-0.20635 0.1926-0.20635 0.3407 0 0.1446 0.07974 0.2697 0.19795 0.3372l8.8625 3.6983c0.0255 0.0096 0.048 0.0149 0.0736 0.0256 0.3677 0.1522 0.7697 0.2353 1.1928 0.2353 0.4188 0 0.8182-0.0824 1.1836-0.2319 0.0305-0.0122 0.0576-0.0202 0.0873-0.0316l8.8577-3.6958c0.1183-0.0675 0.198-0.1926 0.198-0.3372 0-0.1487-0.0843-0.275-0.2067-0.3406l-0.3906-0.1629c-0.3112-0.0981-0.5382-0.3864-0.5382-0.7298 0-0.4249 0.3445-0.769 0.7694-0.769 0.1453 0 0.2803 0.0427 0.3959 0.1129l1.2462 0.5249c0.1667 0.0717 0.3242 0.1751 0.4608 0.3117 0.5816 0.5817 0.5816 1.5243 0 2.1057-0.1358 0.1351-0.2891 0.2384-0.4547 0.3102zm0.0019-5.0797-9.949 4.189c-0.5165 0.196-1.0757 0.3089-1.6616 0.3089-0.584 0-1.1412-0.1117-1.6571-0.3063l-9.955-4.1916c-0.1648-0.07246-0.31699-0.17432-0.452-0.3082-0.58169-0.58174-0.58169-1.5251 0-2.1068 0.13579-0.13467 0.28989-0.23613 0.45732-0.30976l9.9512-4.1897c0.5155-0.19458 1.0716-0.30674 1.6556-0.30674 0.5851 0 1.1432 0.11216 1.66 0.3082l0.9266 0.38985c0.3181 0.09917 0.55 0.39253 0.55 0.74272 0 0.43106-0.3494 0.78164-0.7812 0.78164-0.1323 0-0.254-0.03701-0.3634-0.09463l-0.7351-0.30669c-0.0252-0.00952-0.048-0.01562-0.0732-0.02631-0.3654-0.14991-0.7648-0.23233-1.1836-0.23233-0.4231 0-0.8251 0.08433-1.1928 0.23574-0.021 0.00879-0.0393 0.01333-0.0606 0.021l-8.8714 3.7018c-0.11899 0.06674-0.20215 0.19189-0.20215 0.33911 0 0.14458 0.07974 0.26894 0.19683 0.3372l8.8751 3.7018c0.021 0.0088 0.04 0.013 0.0622 0.0217 0.3677 0.1515 0.7697 0.2357 1.1927 0.2357 0.4188 0 0.8182-0.0824 1.1836-0.2323 0.0259-0.0103 0.0496-0.0172 0.0752-0.0271l8.8707-3.6998c0.1175-0.06827 0.1972-0.19263 0.1972-0.33721 0-0.14727-0.0832-0.27158-0.2026-0.33911l-1.2037-0.50279c-0.2968-0.10683-0.5104-0.3872-0.5104-0.72099 0-0.42456 0.3441-0.76905 0.769-0.76905 0.1453 0 0.2811 0.04312 0.3971 0.1129l2.0338 0.85678c0.1656 0.07095 0.3184 0.17432 0.4535 0.30821 0.5817 0.58173 0.5817 1.5251 0 2.1068-0.1351 0.13404-0.288 0.23589-0.4528 0.3084zm-6.5325-3.7052c-0.4318 0-0.7815-0.34942-0.7815-0.78125 0-0.43184 0.3497-0.78125 0.7815-0.78125 0.4306 0 0.7812 0.34941 0.7812 0.78125 0 0.43183-0.3506 0.78125-0.7812 0.78125zm-16.678 11.133 1.2521-0.5264c0.11367-0.0671 0.24487-0.1083 0.38676-0.1083 0.42491 0 0.76934 0.344 0.76934 0.769 0 0.3475-0.23306 0.6386-0.55039 0.7332l-0.37842 0.1583c-0.12241 0.066-0.20635 0.1919-0.20635 0.3407 0 0.1457 0.07974 0.27 0.19795 0.3376l8.8755 3.7033c0.0213 8e-3 0.0396 0.0122 0.0606 0.021 0.3677 0.1515 0.7697 0.2357 1.1928 0.2357 0.4188 0 0.8182-0.0831 1.1836-0.2323 0.0252-0.0103 0.048-0.0164 0.0732-0.0263l8.8718-3.7014c0.1183-0.0676 0.198-0.1919 0.198-0.3376 0-0.148-0.0843-0.2747-0.2067-0.3407l-0.3811-0.1583c-0.3169-0.0965-0.5477-0.3864-0.5477-0.7332 0-0.425 0.3444-0.769 0.7694-0.769 0.1399 0 0.2689 0.04 0.3818 0.1048l1.2603 0.531c0.1682 0.0725 0.3234 0.1751 0.4608 0.3124 0.5816 0.5818 0.5816 1.5244 0 2.1061-0.1339 0.1339-0.2872 0.2354-0.4486 0.3075l-9.9498 4.1897c-0.5184 0.1976-1.078 0.309-1.665 0.309-0.5859 0-1.1447-0.1129-1.6617-0.3082l-9.9558-4.1916c-0.16284-0.0725-0.31353-0.1732-0.44663-0.3063-0.58169-0.5817-0.58169-1.5244 0-2.1061 0.13765-0.1374 0.29712-0.2407 0.46416-0.3136z" clip-rule="evenodd" fill="#138ffd" fill-rule="evenodd"/>
 </g>
</svg>
