<svg viewBox="0 0 14 13" fill="none" xmlns="http://www.w3.org/2000/svg"><path opacity=".867" fill-rule="evenodd" clip-rule="evenodd" d="M11.543 7.893l1.907-2.034a.582.582 0 000-.787.5.5 0 00-.738 0l-1.016 1.084v-.005c0-3.307-2.522-5.997-5.622-5.997S.452 2.844.452 6.151c0 3.306 2.522 5.995 5.622 5.996 1.503 0 2.915-.624 3.976-1.757a.582.582 0 000-.786.497.497 0 00-.737 0c-.866.922-2.016 1.43-3.239 1.43-2.524 0-4.578-2.19-4.578-4.883S3.55 1.267 6.074 1.267c2.526 0 4.578 2.19 4.578 4.884v.005L9.638 5.072a.5.5 0 00-.738 0 .584.584 0 000 .787l1.905 2.034a.51.51 0 00.37.163.51.51 0 00.368-.163zM4.351 3.435l4.11 2.63-4.11 2.63v-5.26z" fill="#5A5A5A"/></svg>