<svg viewBox="0 0 40 40" fill="none" xmlns="http://www.w3.org/2000/svg"><path fill-rule="evenodd" clip-rule="evenodd" d="M34.283 21.278a2.5 2.5 0 0 0 .01-2.482L27.905 7.518A2.5 2.5 0 0 0 25.73 6.25h-12.71a2.5 2.5 0 0 0-2.176 1.268l-6.39 11.278a2.5 2.5 0 0 0 .01 2.482l6.376 11.044a2.5 2.5 0 0 0 2.165 1.25h12.739a2.5 2.5 0 0 0 2.165-1.25l2.055-3.561-10.382.071c-.057 0-.113-.003-.167-.01-3.713-.058-7.03-2.679-7.872-6.48-.98-4.434 1.772-8.84 6.188-9.817 3.425-.758 6.92.427 9.081 3.162l1.937-1.937V20h-6.25l2.529-2.528c-1.53-2.123-4.137-3.086-6.757-2.506-3.04.673-4.976 3.722-4.287 6.836.599 2.705 2.979 4.534 5.585 4.521.05 0 .1.003.148.008l11.697-.08 2.87-4.973z" fill="#0092E4"/></svg>