<svg viewBox="0 0 29 25" xmlns="http://www.w3.org/2000/svg"><g fill="none" fill-rule="evenodd"><path fill="#25A6F7" d="M22.12 0L29 12.955 22.587 25H6L0 12.955 6.413 0z"/><path d="M18.962 8.037c-1.115-1.195-2.709-1.912-4.462-1.912-3.506 0-6.375 2.869-6.375 6.375s2.869 6.375 6.375 6.375c2.948 0 5.419-2.072 6.136-4.781h-1.674c-.637 1.833-2.39 3.187-4.462 3.187A4.795 4.795 0 019.719 12.5 4.795 4.795 0 0114.5 7.719c1.355 0 2.47.558 3.347 1.434l-2.55 2.55h5.578V6.125l-1.912 1.912z" fill="#FFF" fill-rule="nonzero"/></g></svg>