<svg viewBox="0 0 32 29" fill="none" xmlns="http://www.w3.org/2000/svg"><path d="M5.053 0h21.894A5.046 5.046 0 0132 5.053v18.526a5.046 5.046 0 01-5.053 5.053H5.053A5.046 5.046 0 010 23.579V5.053A5.046 5.046 0 015.053 0zm0 1.684a3.378 3.378 0 00-3.369 3.369h28.632a3.378 3.378 0 00-3.369-3.369H5.053zM1.684 23.58a3.378 3.378 0 003.369 3.368h21.894a3.378 3.378 0 003.369-3.368V6.737H1.684v16.842zm23.58 0h-8.422v-1.684h8.421v1.684zM6.736 10.947l1.196-1.195 7.073 7.09-7.073 7.09-1.196-1.195 5.895-5.895-5.895-5.895z" fill="#4F5162"/></svg>