<?xml version="1.0" encoding="UTF-8"?>
<svg version="1.1" viewBox="0 0 4.2333 4.2333" xmlns="http://www.w3.org/2000/svg">
 <g transform="matrix(.15278 0 0 .17076 -.44581 -.99586)" fill="none">
  <path d="m7.293 5.832h18.958c2.4208 0 4.375 1.9542 4.375 4.375v16.042c0 2.4208-1.9542 4.375-4.375 4.375h-18.958c-2.4208 0-4.375-1.9542-4.375-4.375v-16.042c0-2.4208 1.9542-4.375 4.375-4.375zm0 1.4583c-1.6042 0-2.9167 1.3125-2.9167 2.9166h24.792c0-1.6041-1.3125-2.9166-2.9167-2.9166zm-2.9167 18.958c0 1.6042 1.3125 2.9167 2.9167 2.9167h18.958c1.6042 0 2.9167-1.3125 2.9167-2.9167v-14.583h-24.792zm20.417 0h-7.2917v-1.4583h7.2917zm-16.042-10.938 1.0354-1.0354 6.125 6.1396-6.125 6.1395-1.0354-1.0354 5.1042-5.1041z" fill="#138ffd"/>
 </g>
</svg>