<svg width="32" height="32" viewBox="0 0 32 32" fill="none" xmlns="http://www.w3.org/2000/svg">
<path d="M4.91604 5.54178L2.78711 6.60645V25.2924L4.91604 26.3509L4.92884 26.3355V5.55644L4.91604 5.54178Z" fill="#8C3123"/>
<path d="M16.3097 23.6387L4.91602 26.3509V5.54178L16.3097 8.19478V23.6387Z" fill="#E05243"/>
<path d="M11.1667 19.3926L15.9996 20.0078L16.0299 19.9379L16.0571 12.0132L15.9996 11.9513L11.1667 12.5576V19.3926" fill="#8C3123"/>
<path d="M15.9995 23.6692L27.083 26.3566L27.1004 26.3289L27.1001 5.56036L27.0825 5.54178L15.9995 8.22524V23.6692" fill="#8C3123"/>
<path d="M20.8337 19.3926L15.9995 20.0078V11.9513L20.8337 12.5576V19.3926Z" fill="#E05243"/>
<path d="M20.8338 9.25223L15.9996 10.1333L11.1667 9.25223L15.9935 7.98709L20.8338 9.25223Z" fill="#5E1F18"/>
<path d="M20.8338 22.6891L15.9996 21.8023L11.1667 22.6891L15.9937 24.0365L20.8338 22.6891Z" fill="#F2B0A9"/>
<path d="M11.1667 9.25223L15.9996 8.05626L16.0387 8.04418V0.0323097L15.9996 0L11.1667 2.41683V9.25223Z" fill="#8C3123"/>
<path d="M20.8337 9.25223L15.9995 8.05626V0L20.8337 2.41683V9.25223Z" fill="#E05243"/>
<path d="M15.9996 31.941L11.1663 29.525V22.6897L15.9996 23.8852L16.0707 23.966L16.0514 31.8015L15.9996 31.941Z" fill="#8C3123"/>
<path d="M15.9995 31.941L20.8333 29.525V22.6897L15.9995 23.8852V31.941V31.941ZM27.083 5.54178L29.2128 6.60645V25.2924L27.083 26.3566V5.54178Z" fill="#E05243"/>
</svg>
