<svg width="35" height="32" viewBox="0 0 35 32" fill="none" xmlns="http://www.w3.org/2000/svg">
<path d="M7.28423 28.3563L0.403802 16.4386C0.139267 15.9804 0 15.4606 0 14.9316C0 14.4025 0.139267 13.8827 0.403802 13.4246L7.28423 1.50714C7.5488 1.04888 7.92935 0.668351 8.38761 0.403791C8.84587 0.139231 9.36571 -3.25642e-05 9.89486 5.71161e-09H23.6557C24.1848 1.34471e-05 24.7046 0.139299 25.1628 0.403856C25.621 0.668414 26.0015 1.04892 26.2661 1.50714L33.1465 13.4246C33.4111 13.8828 33.5504 14.4026 33.5504 14.9317C33.5504 15.4608 33.4111 15.9806 33.1465 16.4388L26.2661 28.356C26.0015 28.8142 25.621 29.1947 25.1628 29.4593C24.7046 29.7238 24.1848 29.8631 23.6557 29.8631H9.89486C9.3657 29.8632 8.84586 29.7239 8.38759 29.4594C7.92932 29.1948 7.54878 28.8143 7.28423 28.356V28.3563Z" fill="#FCFEFF"/>
<path opacity="0.07" d="M12.9258 12.2778L11.0884 14.11L12.6498 15.6716L11.1038 18.4175L22.8032 30.1171L25.6382 30.1177L31.1748 20.1739L22.4079 11.4063L12.9258 12.2778Z" fill="#0278D5"/>
<path d="M22.201 11.333H11.3401C11.1653 11.333 11.0225 11.4761 11.0225 11.6512V13.8964C11.0225 14.071 11.1656 14.2141 11.3401 14.2141H22.201C22.3758 14.2141 22.5189 14.071 22.5189 13.8964V11.6506C22.5189 11.4761 22.3761 11.3327 22.2013 11.3327L22.201 11.333ZM20.5195 13.4233C20.3474 13.4228 20.1824 13.3542 20.0607 13.2323C19.939 13.1105 19.8706 12.9454 19.8703 12.7733C19.8702 12.688 19.887 12.6035 19.9196 12.5247C19.9522 12.4459 20 12.3743 20.0603 12.314C20.1206 12.2537 20.1922 12.2059 20.271 12.1733C20.3498 12.1407 20.4343 12.1239 20.5195 12.124C20.8786 12.124 21.1696 12.4131 21.1696 12.7733C21.1696 12.8586 21.1528 12.9432 21.1201 13.022C21.0874 13.1009 21.0396 13.1726 20.9792 13.2329C20.9188 13.2933 20.8472 13.3412 20.7683 13.3738C20.6894 13.4065 20.6049 13.4233 20.5195 13.4233V13.4233ZM22.201 15.6489L11.3401 15.6494C11.1653 15.6494 11.0225 15.7925 11.0225 15.9676V18.2126C11.0225 18.3872 11.1656 18.5305 11.3401 18.5305H22.201C22.3758 18.5305 22.5189 18.3872 22.5189 18.2126V15.9671C22.5189 15.7925 22.3761 15.6489 22.2013 15.6489H22.201ZM20.5195 17.7395C20.3473 17.7391 20.1823 17.6704 20.0606 17.5486C19.9389 17.4268 19.8705 17.2617 19.8703 17.0895C19.8702 17.0042 19.887 16.9197 19.9196 16.8409C19.9522 16.7621 20 16.6905 20.0603 16.6302C20.1206 16.5699 20.1922 16.5221 20.271 16.4895C20.3498 16.4569 20.4343 16.4401 20.5195 16.4402C20.607 16.4367 20.6943 16.4509 20.7762 16.4819C20.8581 16.513 20.9328 16.5603 20.996 16.6209C21.0591 16.6816 21.1094 16.7544 21.1437 16.8349C21.178 16.9155 21.1957 17.0022 21.1957 17.0897C21.1957 17.1773 21.178 17.2639 21.1437 17.3445C21.1094 17.425 21.0591 17.4978 20.996 17.5585C20.9328 17.6192 20.8581 17.6664 20.7762 17.6975C20.6943 17.7286 20.607 17.7427 20.5195 17.7392" fill="#0278D5"/>
<path fill-rule="evenodd" clip-rule="evenodd" d="M22.8707 18.8235H30.5874L34.2447 22.5157L34.3167 22.5197V30.7647C34.3167 31.4443 33.7663 32 33.0929 32H22.8707C22.1973 32 21.647 31.4443 21.647 30.7647V20.0587C21.647 19.3791 22.1973 18.8235 22.8707 18.8235ZM24.8962 29.0661H31.0673V29.9833H24.8962V29.0661ZM24.1118 27.3372H31.8518V28.2544H24.1118V27.3372ZM25.4731 25.6082H30.4906V26.5253H25.4731V25.6082ZM24.2927 24.6879H31.6705C32.3437 24.6879 32.8941 25.2435 32.8941 25.9231V29.4861C32.8941 30.1659 32.3437 30.7216 31.6705 30.7216H24.2927C23.6196 30.7216 23.0691 30.1659 23.0691 29.4861V25.9231C23.0691 25.2435 23.6196 24.6879 24.2927 24.6879Z" fill="#EFFBFF"/>
<path d="M23.1499 23.8805H33.1682V30.9602H23.1499V23.8805Z" fill="#EFFBFF"/>
<path fill-rule="evenodd" clip-rule="evenodd" d="M23.2975 19.3446H30.4201L33.7957 22.7204L33.8622 22.724V30.2623C33.8622 30.8837 33.3542 31.3917 32.7326 31.3917H23.2975C22.6759 31.3917 22.168 30.8837 22.168 30.2623V20.474C22.168 19.8527 22.6759 19.3446 23.2975 19.3446ZM25.167 28.7093H30.8629V29.5479H25.167V28.7093ZM24.443 27.1286H31.5872V27.9672H24.443V27.1286ZM25.6995 25.5478H30.3307V26.3863H25.6995V25.5478ZM24.6101 24.7064H31.4198C32.0411 24.7064 32.5491 25.2144 32.5491 25.8358V29.0934C32.5491 29.7149 32.0411 30.223 31.4198 30.223H24.6101C23.9887 30.223 23.4806 29.7149 23.4806 29.0934V25.8358C23.4806 25.2144 23.9887 24.7064 24.6101 24.7064Z" fill="#4F5162"/>
</svg>
