<svg viewBox="0 0 28 28" fill="none" xmlns="http://www.w3.org/2000/svg"><path d="m4.302 4.849-1.863.932v16.35l1.863.926.01-.013V4.862l-.01-.013Z" fill="#8C3123"/><path d="m14.271 20.684-9.97 2.373V4.849l9.97 2.321v13.514Z" fill="#E05243"/><path d="m9.771 16.969 4.229.538.026-.061.024-6.934-.05-.055-4.229.531v5.98" fill="#8C3123"/><path d="m14 20.71 9.698 2.352.015-.024V4.865l-.016-.016L14 7.197v13.514" fill="#8C3123"/><path d="m18.23 16.969-4.23.538v-7.05l4.23.531v5.98Z" fill="#E05243"/><path d="m18.23 8.096-4.23.77-4.229-.77 4.223-1.107 4.236 1.107Z" fill="#5E1F18"/><path d="M18.23 19.853 14 19.077l-4.229.776 4.224 1.179 4.235-1.179Z" fill="#F2B0A9"/><path d="M9.771 8.096 14 7.049l.034-.01V.029L14 0 9.77 2.115v5.98Z" fill="#8C3123"/><path d="M18.23 8.096 14 7.049V0l4.23 2.115v5.98Z" fill="#E05243"/><path d="m14 27.948-4.23-2.114v-5.98L14 20.9l.062.07-.017 6.856-.045.122Z" fill="#8C3123"/><path d="m14 27.948 4.229-2.114v-5.98l-4.23 1.046v7.048ZM23.697 4.85l1.863.932v16.35l-1.863.931V4.849Z" fill="#E05243"/><path fill-rule="evenodd" clip-rule="evenodd" d="M16.888 15.75h7.174l3.4 3.433.067.003v7.666c0 .631-.512 1.148-1.138 1.148h-9.503a1.146 1.146 0 0 1-1.138-1.148v-9.954c0-.631.512-1.148 1.138-1.148Zm1.883 9.522h5.737v.853H18.77v-.853Zm-.73-1.607h7.196v.853h-7.195v-.853Zm1.266-1.607h4.665v.852h-4.665v-.852Zm-1.097-.856h6.859c.626 0 1.137.517 1.137 1.148v3.313c0 .632-.511 1.148-1.137 1.148h-6.86a1.146 1.146 0 0 1-1.137-1.148V22.35c0-.631.512-1.148 1.138-1.148Z" fill="#FBE6E4"/><path d="M17.147 20.451h9.314v6.582h-9.314v-6.582Z" fill="#FBE6E4"/><path fill-rule="evenodd" clip-rule="evenodd" d="M17.285 16.234h6.621l3.139 3.139.061.003v7.008c0 .578-.472 1.05-1.05 1.05h-8.771c-.578 0-1.05-.472-1.05-1.05v-9.1c0-.577.472-1.05 1.05-1.05Zm1.738 8.707h5.295v.78h-5.296v-.78Zm-.674-1.47h6.642v.78H18.35v-.78Zm1.169-1.47h4.305v.78h-4.305v-.78Zm-1.013-.782h6.33c.578 0 1.05.472 1.05 1.05v3.029c0 .578-.472 1.05-1.05 1.05h-6.33c-.578 0-1.05-.473-1.05-1.05v-3.029c0-.578.472-1.05 1.05-1.05Z" fill="#4F5162"/></svg>