<?xml version="1.0" encoding="UTF-8"?>
<svg version="1.1" viewBox="0 0 4.2333 4.2333" xmlns="http://www.w3.org/2000/svg">
 <g transform="matrix(.047625 0 0 .047625 -.026417 -.026417)" fill="none">
  <path d="m78.332 0.55469h-66.667c-6.1111 0-11.111 5-11.111 11.111v66.667c0 6.1111 5 11.111 11.111 11.111h66.667c6.1111 0 11.111-5 11.111-11.111v-66.667c0-6.1111-5-11.111-11.111-11.111zm5.5555 77.778c0 3.3333-2.2222 5.5555-5.5555 5.5555h-66.667c-3.3333 0-5.5556-2.2222-5.5556-5.5555v-16.667h77.778zm0-22.222h-77.778v-22.222h77.778zm-77.778-27.778v-16.667c0-3.3333 2.2222-5.5556 5.5556-5.5556h66.667c3.3333 0 5.5555 2.2222 5.5555 5.5556v16.667zm72.222-8.3334c0 1.6667-1.1111 2.7778-2.7778 2.7778h-5.5556c-1.6666 0-2.7777-1.1111-2.7777-2.7778v-5.5555c0-1.6667 1.1111-2.7778 2.7777-2.7778h5.5556c1.6667 0 2.7778 1.1111 2.7778 2.7778zm0 27.778c0 1.6667-1.1111 2.7778-2.7778 2.7778h-5.5556c-1.6666 0-2.7777-1.1111-2.7777-2.7778v-5.5555c0-1.6667 1.1111-2.7778 2.7777-2.7778h5.5556c1.6667 0 2.7778 1.1111 2.7778 2.7778zm0 27.778c0 1.6667-1.1111 2.7778-2.7778 2.7778h-5.5556c-1.6666 0-2.7777-1.1111-2.7777-2.7778v-5.5556c0-1.6666 1.1111-2.7777 2.7777-2.7777h5.5556c1.6667 0 2.7778 1.1111 2.7778 2.7777z" fill="#138ffd"/>
 </g>
</svg>