<svg viewBox="0 0 28 28" fill="none" xmlns="http://www.w3.org/2000/svg"><path d="m4.302 4.849-1.863.932v16.35l1.863.926.01-.013V4.862l-.01-.013Z" fill="#3DC7F6"/><path d="m14.271 20.684-9.97 2.373V4.849l9.97 2.321v13.514Z" fill="#FAFCFF"/><path d="m9.771 16.969 4.229.538.026-.061.024-6.934-.05-.055-4.229.531v5.98" fill="#3DC7F6"/><path d="m14 20.71 9.698 2.352.015-.024V4.865l-.016-.016L14 7.197v13.514" fill="#3DC7F6"/><path d="m18.23 16.969-4.23.538v-7.05l4.23.531v5.98Z" fill="#FAFCFF"/><path d="m18.23 8.096-4.23.77-4.229-.77 4.223-1.107 4.236 1.107Z" fill="#3DC7F6"/><path d="M18.23 19.853 14 19.077l-4.229.776 4.224 1.179 4.235-1.179Z" fill="#CDF4FE"/><path d="M9.771 8.096 14 7.049l.034-.01V.029L14 0 9.77 2.115v5.98Z" fill="#3DC7F6"/><path d="M18.23 8.096 14 7.049V0l4.23 2.115v5.98Z" fill="#FAFCFF"/><path d="m14 27.948-4.23-2.114v-5.98L14 20.9l.062.07-.017 6.856-.045.122Z" fill="#3DC7F6"/><path d="m14 27.948 4.229-2.114v-5.98l-4.23 1.046v7.048ZM23.697 4.85l1.863.932v16.35l-1.863.931V4.849Z" fill="#FAFCFF"/><path fill="#CDF4FE" d="M16.625 21h9.625v6.125h-9.625z"/><path d="m23.675 16.875 3.2 3.106v6.953c0 .441-.375.816-.849.816H16.85c-.474 0-.849-.375-.849-.816V17.69c0-.441.375-.816.849-.816h6.826Zm-4.758 8.842h5.04v.292h-5.04v-.292Zm-.704-1.492h6.45v.292h-6.45v-.292Zm1.222-1.493h4.005v.292h-4.005v-.292Zm5.314-1.294h-6.623c-.736 0-1.35.584-1.35 1.316v3.076c0 .732.614 1.316 1.35 1.316h6.623c.736 0 1.349-.584 1.349-1.316v-3.076c0-.732-.613-1.316-1.349-1.316Z" fill="#EFFBFF" stroke="#1B2E49" stroke-width=".5"/></svg>