<svg width="32" height="32" viewBox="0 0 32 32" fill="none" xmlns="http://www.w3.org/2000/svg">
<path d="M4.91604 5.54175L2.78711 6.60642V25.2924L4.91604 26.3508L4.92884 26.3355V5.55641L4.91604 5.54175Z" fill="#8C3123"/>
<path d="M16.3097 23.6387L4.91602 26.3508V5.54175L16.3097 8.19475V23.6387Z" fill="#E05243"/>
<path d="M11.1667 19.3926L15.9996 20.0079L16.0299 19.9379L16.0571 12.0132L15.9996 11.9513L11.1667 12.5576V19.3926" fill="#8C3123"/>
<path d="M15.9995 23.6691L27.083 26.3566L27.1004 26.3288L27.1001 5.56033L27.0825 5.54175L15.9995 8.22521V23.6691" fill="#8C3123"/>
<path d="M20.8337 19.3926L15.9995 20.0079V11.9513L20.8337 12.5576V19.3926Z" fill="#E05243"/>
<path d="M20.8338 9.2522L15.9996 10.1332L11.1667 9.2522L15.9935 7.98706L20.8338 9.2522Z" fill="#5E1F18"/>
<path d="M20.8338 22.6892L15.9996 21.8024L11.1667 22.6892L15.9937 24.0366L20.8338 22.6892Z" fill="#F2B0A9"/>
<path d="M11.1667 9.25223L15.9996 8.05626L16.0387 8.04418V0.0323097L15.9996 0L11.1667 2.41683V9.25223Z" fill="#8C3123"/>
<path d="M20.8337 9.25223L15.9995 8.05626V0L20.8337 2.41683V9.25223Z" fill="#E05243"/>
<path d="M15.9996 31.941L11.1663 29.525V22.6897L15.9996 23.8853L16.0707 23.9661L16.0514 31.8015L15.9996 31.941Z" fill="#8C3123"/>
<path d="M15.9995 31.9409L20.8333 29.5249V22.6896L15.9995 23.8852V31.9409V31.9409ZM27.083 5.54175L29.2128 6.60642V25.2924L27.083 26.3566V5.54175Z" fill="#E05243"/>
<path fill-rule="evenodd" clip-rule="evenodd" d="M19.3002 18H27.4992L31.3851 21.9229L31.4615 21.9272V30.6875C31.4615 31.4096 30.8768 32 30.1613 32H19.3002C18.5847 32 18 31.4096 18 30.6875V19.3124C18 18.5904 18.5847 18 19.3002 18ZM21.4523 28.8827H28.0091V29.8573H21.4523V28.8827ZM20.6189 27.0458H28.8427V28.0203H20.6189V27.0458ZM22.0652 25.2087H27.3963V26.1832H22.0652V25.2087ZM20.8111 24.2309H28.65C29.3653 24.2309 29.9501 24.8213 29.9501 25.5433V29.3291C29.9501 30.0514 29.3653 30.6417 28.65 30.6417H20.8111C20.0959 30.6417 19.5111 30.0514 19.5111 29.3291V25.5433C19.5111 24.8213 20.0959 24.2309 20.8111 24.2309Z" fill="#FBE6E4"/>
<path d="M19.5967 23.373H30.2411V30.8953H19.5967V23.373Z" fill="#FBE6E4"/>
<path fill-rule="evenodd" clip-rule="evenodd" d="M19.7538 18.5536H27.3215L30.9082 22.1403L30.9788 22.1442V30.1536C30.9788 30.8139 30.4391 31.3537 29.7786 31.3537H19.7538C19.0934 31.3537 18.5537 30.8139 18.5537 30.1536V19.7536C18.5537 19.0934 19.0934 18.5536 19.7538 18.5536ZM21.7401 28.5036H27.7921V29.3946H21.7401V28.5036ZM20.9709 26.8241H28.5616V27.7151H20.9709V26.8241ZM22.3059 25.1444H27.2266V26.0354H22.3059V25.1444ZM21.1484 24.2505H28.3837C29.044 24.2505 29.5837 24.7902 29.5837 25.4504V28.9117C29.5837 29.572 29.044 30.1118 28.3837 30.1118H21.1484C20.4882 30.1118 19.9484 29.572 19.9484 28.9117V25.4504C19.9484 24.7902 20.4882 24.2505 21.1484 24.2505Z" fill="#4F5162"/>
</svg>
