<svg width="32" height="32" viewBox="0 0 32 32" fill="none" xmlns="http://www.w3.org/2000/svg">
<path d="M4.91604 5.54175L2.78711 6.60642V25.2924L4.91604 26.3508L4.92884 26.3355V5.55641L4.91604 5.54175Z" fill="#3DC7F6"/>
<path d="M16.3097 23.6387L4.91602 26.3508V5.54175L16.3097 8.19475V23.6387Z" fill="#FAFCFF"/>
<path d="M11.1667 19.3926L15.9996 20.0079L16.0299 19.9379L16.0571 12.0132L15.9996 11.9513L11.1667 12.5576V19.3926" fill="#3DC7F6"/>
<path d="M15.9995 23.6691L27.083 26.3566L27.1004 26.3288L27.1001 5.56033L27.0825 5.54175L15.9995 8.22521V23.6691" fill="#3DC7F6"/>
<path d="M20.8337 19.3926L15.9995 20.0079V11.9513L20.8337 12.5576V19.3926Z" fill="#FAFCFF"/>
<path d="M20.8338 9.2522L15.9996 10.1332L11.1667 9.2522L15.9935 7.98706L20.8338 9.2522Z" fill="#3DC7F6"/>
<path d="M20.8338 22.6892L15.9996 21.8024L11.1667 22.6892L15.9937 24.0366L20.8338 22.6892Z" fill="#CDF4FE"/>
<path d="M11.1667 9.25223L15.9996 8.05626L16.0387 8.04418V0.0323097L15.9996 0L11.1667 2.41683V9.25223Z" fill="#3DC7F6"/>
<path d="M20.8337 9.25223L15.9995 8.05626V0L20.8337 2.41683V9.25223Z" fill="#FAFCFF"/>
<path d="M15.9996 31.941L11.1663 29.525V22.6897L15.9996 23.8853L16.0707 23.9661L16.0514 31.8015L15.9996 31.941Z" fill="#3DC7F6"/>
<path d="M15.9995 31.9409L20.8333 29.5249V22.6896L15.9995 23.8852V31.9409V31.9409ZM27.083 5.54175L29.2128 6.60642V25.2924L27.083 26.3566V5.54175Z" fill="#FAFCFF"/>
<rect x="19" y="24" width="11" height="7" fill="#CDF4FE"/>
<path d="M27.0722 19.25L30.75 22.8202V30.7813C30.75 31.3068 30.3043 31.75 29.7443 31.75H19.2557C18.6958 31.75 18.25 31.3068 18.25 30.7813V20.2187C18.25 19.6932 18.6958 19.25 19.2557 19.25H27.0722ZM21.5839 29.3555H27.4159V29.7603H21.5839V29.3555ZM20.779 27.6498H28.221V28.0546H20.779V27.6498ZM22.1759 25.9438H26.8242V26.3487H22.1759V25.9438ZM28.2849 24.5359H20.7148C19.893 24.5359 19.2093 25.189 19.2093 26.0046V29.5199C19.2093 30.3356 19.893 30.9887 20.7148 30.9887H28.2849C29.1067 30.9887 29.7904 30.3356 29.7904 29.5199V26.0046C29.7904 25.189 29.1067 24.5359 28.2849 24.5359Z" fill="#EFFBFF" stroke="#1B2E49" stroke-width="0.5"/>
</svg>
