<?xml version="1.0" encoding="UTF-8"?>
<svg fill="currentColor" viewBox="0 0 16 16" xmlns="http://www.w3.org/2000/svg">
<path d="m8.0872 3.2964c0 0.21495-0.17425 0.3892-0.3892 0.3892s-0.3892-0.17425-0.3892-0.3892c0-0.21494 0.17425-0.38919 0.3892-0.38919s0.3892 0.17425 0.3892 0.38919zm0.2504 1.1993c-0.0316 0.01689-0.06395 0.03256-0.09698 0.04697v3.0634c0.48044 0.20948 0.81627 0.68864 0.81627 1.2462 0 0.75049-0.60839 1.3589-1.3589 1.3589s-1.3589-0.60844-1.3589-1.3589c0-0.60131 0.39055-1.1114 0.93182-1.2904v-2.975c-0.54127-0.17904-0.93182-0.68912-0.93182-1.2904 0-0.75049 0.6084-1.3589 1.3589-1.3589s1.3589 0.6084 1.3589 1.3589c0 0.16349-0.02887 0.32023-0.08179 0.46541l0.93548 0.93548c0.18835-0.09878 0.40275-0.15467 0.63025-0.15467 0.7505 0 1.3589 0.6084 1.3589 1.3589s-0.6084 1.3589-1.3589 1.3589c-0.75052 0-1.3589-0.60839-1.3589-1.3589 0-0.16743 0.03028-0.32778 0.08566-0.47589l-0.92997-0.92996zm4.4577 4.3677-2.7134-0.9505-0.32056 0.91517 1.4723 0.51574-3.9442 1.5276-3.5375-1.5107 1.491-0.53376-0.32682-0.91296-2.6551 0.95051c-0.1928 0.06902-0.32145 0.25172-0.32144 0.4565l1e-4 2.1485c1e-5 0.3779 0.21956 0.7214 0.56253 0.8801l4.5749 2.1165c0.12361 0.0572 0.26558 0.0597 0.39117 7e-3l5.0573-2.1219c0.3602-0.1511 0.5945-0.5036 0.5945-0.8942l-1e-4 -2.136c0-0.20598-0.1301-0.38947-0.3245-0.45757zm-5.03 2.8635 4.3848-1.6982 1e-4 1.4283-4.3848 1.8398-6e-5 -1.5699zm-0.9697-0.0119 6e-5 1.5525-3.8864-1.798-6e-5 -1.4143 3.8864 1.6598zm0.90238-2.4735c0.21495 0 0.3892-0.17425 0.3892-0.38919 0-0.21495-0.17425-0.3892-0.3892-0.3892s-0.3892 0.17425-0.3892 0.3892c0 0.21494 0.17425 0.38919 0.3892 0.38919zm3.232-3.34c0 0.21495-0.1743 0.3892-0.3892 0.3892-0.215 0-0.3892-0.17425-0.3892-0.3892s0.1742-0.3892 0.3892-0.3892c0.2149 0 0.3892 0.17425 0.3892 0.3892z" clip-rule="evenodd" fill="#4F5162" fill-rule="evenodd"/>
</svg>
