<?xml version="1.0" encoding="utf-8"?>
<!-- Generator: Adobe Illustrator 20.1.0, SVG Export Plug-In . SVG Version: 6.00 Build 0)  -->
<svg version="1.1" id="Layer_1" xmlns="http://www.w3.org/2000/svg" xmlns:xlink="http://www.w3.org/1999/xlink" x="0px" y="0px"
	 viewBox="0 0 38 38" style="enable-background:new 0 0 38 38;" xml:space="preserve">
<style type="text/css">
	.st0{fill:#F7FCFF;stroke:#D4ECFC;}
	.st1{filter:url(#filter-2);}
	.st2{fill:#25A6F7;}
</style>
<filter  filterUnits="objectBoundingBox" height="111.1%" id="filter-2" width="105.6%" x="-2.8%" y="-2.8%">
	<feOffset  dx="0" dy="1" in="SourceAlpha" result="shadowOffsetOuter1"></feOffset>
	
		<feColorMatrix  in="shadowOffsetOuter1" type="matrix" values="0 0 0 0 0.949019608   0 0 0 0 0.956862745   0 0 0 0 0.964705882  0 0 0 1 0">
		</feColorMatrix>
</filter>
<title>HDL/Icon/Standard/Search/infra-prov</title>
<desc>Created with Sketch.</desc>
<g id="Colors">
	<g id="Search-Icons" transform="translate(-100.000000, -477.000000)">
		<g id="HDL_x2F_Icon_x2F_Standard_x2F_Search_x2F_infra-prov" transform="translate(101.000000, 478.000000)">
			<g id="Infra-Prov">
				<circle id="Oval" class="st0" cx="18" cy="18" r="18"/>
				<g id="Organization">
					<g class="st1">
						<path d="M26.1,17v4.5h-1.8v-3.6h-5.4v3.6h-1.8v-3.6h-5.4v3.6H9.9V17c0-0.5,0.4-0.9,0.9-0.9h6.3v-3.6h1.8v3.6h6.3
							C25.7,16.1,26.1,16.5,26.1,17z M9.9,22.4h1.8c0.5,0,0.9,0.4,0.9,0.9v1.8c0,0.5-0.4,0.9-0.9,0.9H9.9C9.4,26,9,25.6,9,25.1v-1.8
							C9,22.8,9.4,22.4,9.9,22.4z M24.3,22.4h1.8c0.5,0,0.9,0.4,0.9,0.9v1.8c0,0.5-0.4,0.9-0.9,0.9h-1.8c-0.5,0-0.9-0.4-0.9-0.9
							v-1.8C23.4,22.8,23.8,22.4,24.3,22.4z M17.1,22.4h1.8c0.5,0,0.9,0.4,0.9,0.9v1.8c0,0.5-0.4,0.9-0.9,0.9h-1.8
							c-0.5,0-0.9-0.4-0.9-0.9v-1.8C16.2,22.8,16.6,22.4,17.1,22.4z M17.1,8h1.8c0.5,0,0.9,0.4,0.9,0.9v1.8c0,0.5-0.4,0.9-0.9,0.9
							h-1.8c-0.5,0-0.9-0.4-0.9-0.9V8.9C16.2,8.4,16.6,8,17.1,8z"/>
					</g>
					<g>
						<path id="path-1_1_" class="st2" d="M26.1,17v4.5h-1.8v-3.6h-5.4v3.6h-1.8v-3.6h-5.4v3.6H9.9V17c0-0.5,0.4-0.9,0.9-0.9h6.3
							v-3.6h1.8v3.6h6.3C25.7,16.1,26.1,16.5,26.1,17z M9.9,22.4h1.8c0.5,0,0.9,0.4,0.9,0.9v1.8c0,0.5-0.4,0.9-0.9,0.9H9.9
							C9.4,26,9,25.6,9,25.1v-1.8C9,22.8,9.4,22.4,9.9,22.4z M24.3,22.4h1.8c0.5,0,0.9,0.4,0.9,0.9v1.8c0,0.5-0.4,0.9-0.9,0.9h-1.8
							c-0.5,0-0.9-0.4-0.9-0.9v-1.8C23.4,22.8,23.8,22.4,24.3,22.4z M17.1,22.4h1.8c0.5,0,0.9,0.4,0.9,0.9v1.8
							c0,0.5-0.4,0.9-0.9,0.9h-1.8c-0.5,0-0.9-0.4-0.9-0.9v-1.8C16.2,22.8,16.6,22.4,17.1,22.4z M17.1,8h1.8c0.5,0,0.9,0.4,0.9,0.9
							v1.8c0,0.5-0.4,0.9-0.9,0.9h-1.8c-0.5,0-0.9-0.4-0.9-0.9V8.9C16.2,8.4,16.6,8,17.1,8z"/>
					</g>
				</g>
			</g>
		</g>
	</g>
</g>
</svg>
