<svg viewBox="0 0 38 38" xmlns="http://www.w3.org/2000/svg"><g transform="translate(1 1)"><circle cx="18" cy="18" fill="#f7fcff" r="18" stroke="#d4ecfc"/><path d="M18 7c-.3.1-.5.3-.5.5v3.1c0 .2.1.4.3.5s.4.1.5 0 .3-.3.3-.5V7.5c0-.2-.1-.3-.2-.4S18.2 7 18 7zm-7.4 3.1c-.2.1-.4.2-.4.4s0 .4.2.5l2.2 2.2c.1.2.3.2.5.2.2-.1.4-.2.4-.4s-.1-.4-.2-.5l-2.2-2.2c-.1-.2-.3-.2-.5-.2zm14.8 0c-.1 0-.2.1-.3.2l-2.2 2.2c-.2.1-.2.3-.2.5s.2.4.4.4c.2.1.4-.1.5-.2l2.2-2.2c.2-.2.2-.4.1-.6s-.3-.3-.5-.3zM18 12.8c-.1 0-.1 0-.2.1-2.8.1-5 2.4-5 5.2 0 2.9 2.3 5.2 5.2 5.2s5.2-2.4 5.2-5.2-2.2-5-5-5.2h-.1c-.1 0-.1-.1-.2-.1h.1zm0 1c.1 0 .1 0 0 0h.1c2.3.1 4.1 1.9 4.1 4.2s-1.9 4.2-4.2 4.2-4.2-1.9-4.2-4.2 1.9-4.2 4.2-4.2zM7.5 17.5c-.3 0-.5.3-.5.5 0 .3.3.5.6.5h3.1c.2 0 .4-.1.5-.3s.1-.4 0-.5c-.1-.2-.3-.3-.5-.3H7.6c0 .1-.1.1-.1.1zm17.7 0c-.3.1-.5.3-.5.6s.3.5.6.5h3.1c.2 0 .4-.1.5-.3s.1-.4 0-.5c-.1-.2-.2-.3-.4-.3h-3.2-.1c.1 0 .1 0 0 0zm-12.4 5.1c-.1 0-.2.1-.3.2L10.3 25c-.2.1-.2.3-.2.5s.2.4.4.4c.2.1.4-.1.5-.2l2.2-2.2c.2-.2.2-.4.1-.6 0-.1-.2-.3-.5-.3zm10.3 0c-.2.1-.4.2-.4.4s0 .4.2.5l2.2 2.2c.1.2.3.2.5.2.2-.1.4-.2.4-.4s-.1-.4-.2-.5l-2.2-2.2c-.1-.1-.2-.2-.4-.2h-.1zM18 24.8c-.3.1-.5.3-.5.5v3.1c0 .2.1.4.3.5s.4.1.5 0 .3-.3.3-.5v-3.1c0-.2-.1-.3-.2-.4s-.2-.2-.4-.1z" fill="#25a6f7"/></g></svg>