<?xml version="1.0" encoding="utf-8"?>
<!-- Generator: Adobe Illustrator 20.1.0, SVG Export Plug-In . SVG Version: 6.00 Build 0)  -->
<svg version="1.1" id="Layer_1" xmlns="http://www.w3.org/2000/svg" xmlns:xlink="http://www.w3.org/1999/xlink" x="0px" y="0px"
	 viewBox="0 0 38 38" style="enable-background:new 0 0 38 38;" xml:space="preserve">
<style type="text/css">
	.st0{fill:#F7FCFF;stroke:#D4ECFC;}
	.st1{fill:#25A6F7;}
</style>
<title>HDL/Icon/Standard/Search/environments</title>
<desc>Created with Sketch.</desc>
<g id="Colors">
	<g id="Search-Icons" transform="translate(-100.000000, -289.000000)">
		<g id="HDL_x2F_Icon_x2F_Standard_x2F_Search_x2F_environments" transform="translate(101.000000, 290.000000)">
			<g id="Environments">
				<circle id="Oval" class="st0" cx="18" cy="18" r="18"/>
				<path id="Shape" class="st1" d="M18,7L18,7c-0.3,0.1-0.5,0.3-0.5,0.5v3.1c0,0.2,0.1,0.4,0.3,0.5s0.4,0.1,0.5,0s0.3-0.3,0.3-0.5
					V7.5c0-0.2-0.1-0.3-0.2-0.4C18.3,7,18.2,7,18,7z M10.6,10.1c-0.2,0.1-0.4,0.2-0.4,0.4s0,0.4,0.2,0.5l2.2,2.2
					c0.1,0.2,0.3,0.2,0.5,0.2c0.2-0.1,0.4-0.2,0.4-0.4s-0.1-0.4-0.2-0.5l-2.2-2.2C11,10.1,10.8,10.1,10.6,10.1L10.6,10.1z
					 M25.4,10.1c-0.1,0-0.2,0.1-0.3,0.2l-2.2,2.2c-0.2,0.1-0.2,0.3-0.2,0.5s0.2,0.4,0.4,0.4c0.2,0.1,0.4-0.1,0.5-0.2l2.2-2.2
					c0.2-0.2,0.2-0.4,0.1-0.6C25.8,10.2,25.6,10.1,25.4,10.1z M18,12.8C18,12.8,18,12.8,18,12.8c-0.1,0-0.1,0-0.2,0.1l0,0
					c-2.8,0.1-5,2.4-5,5.2c0,2.9,2.3,5.2,5.2,5.2s5.2-2.4,5.2-5.2c0-2.8-2.2-5-5-5.2h-0.1c-0.1,0-0.1-0.1-0.2-0.1S18.1,12.8,18,12.8
					C18.1,12.8,18,12.8,18,12.8z M18,13.8C18.1,13.8,18.1,13.8,18,13.8c0.1,0,0.1,0,0.1,0c2.3,0.1,4.1,1.9,4.1,4.2s-1.9,4.2-4.2,4.2
					s-4.2-1.9-4.2-4.2S15.7,13.8,18,13.8z M7.5,17.5C7.2,17.5,7,17.8,7,18c0,0.3,0.3,0.5,0.6,0.5h3.1c0.2,0,0.4-0.1,0.5-0.3
					c0.1-0.2,0.1-0.4,0-0.5c-0.1-0.2-0.3-0.3-0.5-0.3H7.6H7.6C7.6,17.5,7.5,17.5,7.5,17.5C7.5,17.5,7.5,17.5,7.5,17.5z M25.2,17.5
					c-0.3,0.1-0.5,0.3-0.5,0.6c0,0.3,0.3,0.5,0.6,0.5h3.1c0.2,0,0.4-0.1,0.5-0.3c0.1-0.2,0.1-0.4,0-0.5c-0.1-0.2-0.2-0.3-0.4-0.3
					h-3.1h-0.1C25.3,17.5,25.3,17.5,25.2,17.5C25.3,17.5,25.3,17.5,25.2,17.5z M12.8,22.6c-0.1,0-0.2,0.1-0.3,0.2L10.3,25
					c-0.2,0.1-0.2,0.3-0.2,0.5s0.2,0.4,0.4,0.4c0.2,0.1,0.4-0.1,0.5-0.2l2.2-2.2c0.2-0.2,0.2-0.4,0.1-0.6
					C13.3,22.8,13.1,22.6,12.8,22.6C12.9,22.6,12.8,22.6,12.8,22.6z M23.1,22.6c-0.2,0.1-0.4,0.2-0.4,0.4s0,0.4,0.2,0.5l2.2,2.2
					c0.1,0.2,0.3,0.2,0.5,0.2c0.2-0.1,0.4-0.2,0.4-0.4s-0.1-0.4-0.2-0.5l-2.2-2.2c-0.1-0.1-0.2-0.2-0.4-0.2
					C23.2,22.6,23.2,22.6,23.1,22.6C23.2,22.6,23.1,22.6,23.1,22.6z M18,24.8L18,24.8c-0.3,0.1-0.5,0.3-0.5,0.5v3.1
					c0,0.2,0.1,0.4,0.3,0.5s0.4,0.1,0.5,0s0.3-0.3,0.3-0.5v-3.1c0-0.2-0.1-0.3-0.2-0.4S18.2,24.7,18,24.8z"/>
			</g>
		</g>
	</g>
</g>
</svg>
