<?xml version="1.0" encoding="UTF-8"?>
<svg width="38px" height="38px" viewBox="0 0 38 38" version="1.1" xmlns="http://www.w3.org/2000/svg" xmlns:xlink="http://www.w3.org/1999/xlink">
    <!-- Generator: Sketch 59 (86127) - https://sketch.com -->
    <title>HDL/Icon/Standard/Search/environments</title>
    <desc>Created with Sketch.</desc>
    <g id="Colors" stroke="none" stroke-width="1" fill="none" fill-rule="evenodd">
        <g id="Search-Icons" transform="translate(-100.000000, -289.000000)">
            <g id="HDL/Icon/Standard/Search/environments" transform="translate(101.000000, 290.000000)">
                <g id="Environments">
                    <circle id="Oval" stroke="#D4ECFC" fill="#F7FCFF" cx="18" cy="18" r="18"></circle>
                    <path d="M18.0130486,7.02050574 C18.0130486,7.02050574 17.9608541,7.02050574 17.9608541,7.02050574 C17.6998814,7.07277564 17.5432977,7.28185525 17.5432977,7.54320477 L17.5432977,10.679399 C17.5432977,10.8884786 17.6476868,11.0452883 17.8042705,11.1498281 C17.9608541,11.2543679 18.1696323,11.2543679 18.3262159,11.1498281 C18.4827995,11.0452883 18.5871886,10.8884786 18.5871886,10.679399 L18.5871886,7.54320477 C18.5871886,7.38639506 18.5349941,7.22958535 18.430605,7.12504554 C18.3262159,7.02050574 18.1696323,6.96823583 18.0130486,7.02050574 Z M10.6014235,10.0521601 C10.3926453,10.10443 10.2360617,10.2089698 10.1838671,10.4180494 C10.1316726,10.6271291 10.1838671,10.8362087 10.3404508,10.9407485 L12.5326216,13.1360844 C12.6370107,13.2928941 12.8457888,13.345164 13.054567,13.2928941 C13.2633452,13.2406242 13.4199288,13.0838145 13.4721234,12.8747349 C13.5243179,12.6656553 13.4199288,12.4565757 13.3155397,12.3520359 L11.1233689,10.1566999 C10.9667853,10.10443 10.8102017,10.0521601 10.6014235,10.0521601 C10.6014235,10.0521601 10.6014235,10.0521601 10.6014235,10.0521601 Z M25.3724792,10.0521601 C25.2680902,10.0521601 25.1637011,10.10443 25.059312,10.2089698 L22.8671412,12.4043058 C22.7105575,12.5088456 22.658363,12.7179252 22.7105575,12.9270048 C22.7627521,13.1360844 22.9193357,13.2928941 23.1281139,13.345164 C23.3368921,13.3974339 23.5456702,13.2928941 23.6500593,13.1883543 L25.8422301,10.9930184 C25.9988138,10.8362087 26.0510083,10.5748591 25.9466192,10.3657795 C25.8422301,10.1566999 25.633452,10.0521601 25.3724792,10.0521601 Z M18.0130486,12.7701951 C18.0130486,12.7701951 17.9608541,12.7701951 18.0130486,12.7701951 C17.9086595,12.7701951 17.9086595,12.7701951 17.856465,12.822465 C17.856465,12.822465 17.856465,12.822465 17.856465,12.822465 C15.0901542,12.9270048 12.8457888,15.1746106 12.8457888,17.9971854 C12.8457888,20.8720301 15.1945433,23.2241757 18.0652432,23.2241757 C20.9359431,23.2241757 23.2846975,20.8720301 23.2846975,17.9971854 C23.2846975,15.2268805 21.0403321,12.9792747 18.3262159,12.822465 C18.3262159,12.822465 18.2740214,12.822465 18.2740214,12.822465 C18.2218268,12.822465 18.1696323,12.7701951 18.1174377,12.7701951 C18.0652432,12.7701951 18.0652432,12.7701951 18.0130486,12.7701951 C18.0652432,12.7701951 18.0130486,12.7701951 18.0130486,12.7701951 Z M18.0130486,13.8155931 C18.0652432,13.8155931 18.0652432,13.8155931 18.0130486,13.8155931 C18.0652432,13.8155931 18.0652432,13.8155931 18.1174377,13.8155931 C20.4139976,13.867863 22.2408066,15.6973097 22.2408066,17.9971854 C22.2408066,20.2970611 20.3618031,22.1787776 18.0652432,22.1787776 C15.7686833,22.1787776 13.8896797,20.2970611 13.8896797,17.9971854 C13.8896797,15.6973097 15.7164887,13.8155931 18.0130486,13.8155931 Z M7.46975089,17.4744864 C7.15658363,17.5267563 7,17.7881058 7,18.0494553 C7,18.3108048 7.31316726,18.5721543 7.62633452,18.5198844 L10.7580071,18.5198844 C10.9667853,18.5198844 11.1233689,18.4153446 11.227758,18.2585349 C11.3321471,18.1017252 11.3321471,17.8926456 11.227758,17.7358359 C11.1233689,17.5790262 10.9667853,17.4744864 10.7580071,17.4744864 L7.62633452,17.4744864 C7.62633452,17.4744864 7.57413998,17.4744864 7.57413998,17.4744864 C7.57413998,17.4744864 7.52194543,17.4744864 7.46975089,17.4744864 C7.52194543,17.4744864 7.52194543,17.4744864 7.46975089,17.4744864 Z M25.2158956,17.4744864 C24.9027284,17.5267563 24.7461447,17.7881058 24.7461447,18.0494553 C24.7461447,18.3108048 25.059312,18.5198844 25.3202847,18.5198844 L28.4519573,18.5198844 C28.6607355,18.5198844 28.8173191,18.4153446 28.9217082,18.2585349 C29.0260973,18.1017252 29.0260973,17.8926456 28.9217082,17.7358359 C28.8695136,17.5790262 28.71293,17.4744864 28.5041518,17.4744864 L25.3724792,17.4744864 C25.3724792,17.4744864 25.3202847,17.4744864 25.3202847,17.4744864 C25.3202847,17.4744864 25.2680902,17.4744864 25.2158956,17.4744864 C25.2680902,17.4744864 25.2680902,17.4744864 25.2158956,17.4744864 Z M12.8457888,22.6492068 C12.7413998,22.6492068 12.6370107,22.7014767 12.5326216,22.8060165 L10.3404508,25.0013524 C10.1838671,25.1058922 10.1316726,25.3149718 10.1838671,25.5240514 C10.2360617,25.7331311 10.3926453,25.8899408 10.6014235,25.9422107 C10.8102017,25.9944806 11.0189798,25.8899408 11.1233689,25.785401 L13.3155397,23.590065 C13.4721234,23.4332553 13.5243179,23.2241757 13.4199288,23.0150961 C13.3155397,22.7537466 13.1067616,22.6492068 12.8457888,22.6492068 C12.8979834,22.6492068 12.8457888,22.6492068 12.8457888,22.6492068 Z M23.1281139,22.6492068 C22.9193357,22.7014767 22.7627521,22.8060165 22.7105575,23.0150961 C22.658363,23.2241757 22.7105575,23.4332553 22.8671412,23.5377951 L25.059312,25.7331311 C25.1637011,25.8899408 25.3724792,25.9422107 25.5812574,25.8899408 C25.7900356,25.8376709 25.9466192,25.6808612 25.9988138,25.4717815 C26.0510083,25.2627019 25.9466192,25.0536223 25.8422301,24.9490825 L23.6500593,22.7537466 C23.5456702,22.6492068 23.4412811,22.5969369 23.2846975,22.5969369 C23.1803084,22.6492068 23.1803084,22.6492068 23.1281139,22.6492068 C23.1803084,22.6492068 23.1281139,22.6492068 23.1281139,22.6492068 Z M18.0130486,24.7922728 C18.0130486,24.7922728 17.9608541,24.7922728 17.9608541,24.7922728 C17.6998814,24.8445427 17.5432977,25.0536223 17.5432977,25.3149718 L17.5432977,28.451166 C17.5432977,28.6602456 17.6476868,28.8170553 17.8042705,28.9215951 C17.9608541,29.026135 18.1696323,29.026135 18.3262159,28.9215951 C18.4827995,28.8170553 18.5871886,28.6602456 18.5871886,28.451166 L18.5871886,25.3149718 C18.5871886,25.1581621 18.5349941,25.0013524 18.430605,24.8968126 C18.3262159,24.7922728 18.1696323,24.7400029 18.0130486,24.7922728 Z" id="Shape" fill="#25A6F7" fill-rule="nonzero"></path>
                </g>
            </g>
        </g>
    </g>
</svg>