<?xml version="1.0" encoding="UTF-8"?>
<svg width="38px" height="38px" viewBox="0 0 38 38" version="1.1" xmlns="http://www.w3.org/2000/svg" xmlns:xlink="http://www.w3.org/1999/xlink">
    <!-- Generator: Sketch 59 (86127) - https://sketch.com -->
    <title>HDL/Icon/Standard/Search/search-tips</title>
    <desc>Created with Sketch.</desc>
    <g id="Colors" stroke="none" stroke-width="1" fill="none" fill-rule="evenodd">
        <g id="Search-Icons" transform="translate(-102.000000, -664.000000)">
            <g id="HDL/Icon/Standard/Search/search-tips" transform="translate(103.000000, 665.000000)">
                <circle id="Oval" stroke="#D4ECFC" stroke-width="1" fill="#F7FCFF" fill-rule="evenodd" cx="18" cy="18" r="18"></circle>
                <path d="M27.4775,24.96 L24.306875,21.7775 C25.138125,20.483125 25.625,18.95125 25.625,17.3125 C25.625,12.716875 21.908125,9 17.3125,9 C12.716875,9 9,12.716875 9,17.3125 C9,21.908125 12.716875,25.625 17.3125,25.625 C18.963125,25.625 20.495,25.12625 21.7775,24.306875 L24.96,27.4775 C25.280625,27.798125 25.731875,28 26.21875,28 C27.204375,28 28,27.204375 28,26.21875 C28,25.731875 27.798125,25.280625 27.4775,24.96 Z M17.3125,23.25 C14.035,23.25 11.375,20.59 11.375,17.3125 C11.375,14.035 14.035,11.375 17.3125,11.375 C20.59,11.375 23.25,14.035 23.25,17.3125 C23.25,20.59 20.59,23.25 17.3125,23.25 Z" id="Shape" fill="#25A6F7" fill-rule="nonzero"></path>
                <circle id="Oval" fill="#25A6F7" fill-rule="nonzero" cx="14" cy="18" r="1"></circle>
                <circle id="Oval" fill="#25A6F7" fill-rule="nonzero" cx="20" cy="18" r="1"></circle>
                <circle id="Oval" fill="#25A6F7" fill-rule="nonzero" cx="17" cy="18" r="1"></circle>
            </g>
        </g>
    </g>
</svg>