<?xml version="1.0" encoding="utf-8"?>
<!-- Generator: Adobe Illustrator 20.1.0, SVG Export Plug-In . SVG Version: 6.00 Build 0)  -->
<svg version="1.1" id="Layer_1" xmlns="http://www.w3.org/2000/svg" xmlns:xlink="http://www.w3.org/1999/xlink" x="0px" y="0px"
	 viewBox="0 0 38 38" style="enable-background:new 0 0 38 38;" xml:space="preserve">
<style type="text/css">
	.st0{fill:#F7FCFF;stroke:#D4ECFC;}
	.st1{fill:#25A6F7;}
</style>
<title>HDL/Icon/Standard/Search/workflow</title>
<desc>Created with Sketch.</desc>
<g id="Colors">
	<g id="Search-Icons" transform="translate(-100.000000, -383.000000)">
		<g id="HDL_x2F_Icon_x2F_Standard_x2F_Search_x2F_workflow" transform="translate(101.000000, 384.000000)">
			<g id="Workflows">
				<circle id="Oval" class="st0" cx="18" cy="18" r="18"/>
				<path id="Shape" class="st1" d="M22.4,9l-3.8,3.8H16c-0.3-1.6-1.8-2.8-3.5-2.8C10.6,10,9,11.6,9,13.5c0,1.7,1.2,3.2,2.8,3.5v2.9
					H9V27h7.1v-7.1h-2.8V17c1.4-0.3,2.5-1.4,2.8-2.8h2.5l3.2,3.2V20c-1.6,0.3-2.8,1.8-2.8,3.5c0,1.9,1.6,3.5,3.5,3.5
					s3.5-1.6,3.5-3.5c0-1.7-1.2-3.2-2.8-3.5v-2.6l3.9-3.9L22.4,9z M22.4,11l2.5,2.6l-2.5,2.6l-2.5-2.6L22.4,11z M12.5,11.4
					c1.2,0,2.1,1,2.1,2.1s-1,2.1-2.1,2.1s-2.1-1-2.1-2.1S11.4,11.4,12.5,11.4z M10.4,21.3h4.2v4.3h-4.2V21.3z M22.4,21.3
					c1.2,0,2.1,1,2.1,2.1c0,1.2-1,2.1-2.1,2.1s-2.1-1-2.1-2.1C20.3,22.3,21.3,21.3,22.4,21.3z"/>
			</g>
		</g>
	</g>
</g>
</svg>
