<?xml version="1.0" encoding="utf-8"?>
<!-- Generator: Adobe Illustrator 20.1.0, SVG Export Plug-In . SVG Version: 6.00 Build 0)  -->
<svg version="1.1" id="Layer_1" xmlns="http://www.w3.org/2000/svg" xmlns:xlink="http://www.w3.org/1999/xlink" x="0px" y="0px"
	 viewBox="0 0 38 38" style="enable-background:new 0 0 38 38;" xml:space="preserve">
<style type="text/css">
	.st0{fill:#F7FCFF;stroke:#D4ECFC;}
	.st1{fill:#25A6F7;}
</style>
<title>HDL/Icon/Standard/Search/Services</title>
<desc>Created with Sketch.</desc>
<g id="Colors">
	<g id="Search-Icons" transform="translate(-100.000000, -242.000000)">
		<g id="HDL_x2F_Icon_x2F_Standard_x2F_Search_x2F_Services" transform="translate(101.000000, 243.000000)">
			<g id="Services">
				<circle id="Oval" class="st0" cx="18" cy="18" r="18"/>
				<path id="Shape" class="st1" d="M18.9,9c-0.2,0-0.3,0.1-0.4,0.3L18.4,10c-0.6,0.2-1.1,0.5-1.5,0.9l-0.7-0.2
					c-0.2,0-0.3,0-0.5,0.2l-0.6,1c-0.1,0.2,0,0.3,0.1,0.5l0.5,0.5c0,0.3,0,0.6,0,0.9c0,0.3,0,0.6,0.1,0.9l-0.5,0.5
					c-0.1,0.1-0.2,0.3-0.1,0.5l0.6,1c0.1,0.2,0.3,0.2,0.5,0.2l0.7-0.2c0.4,0.4,1,0.7,1.5,0.9l0.2,0.7c0,0.2,0.2,0.3,0.4,0.3h1.1
					c0.2,0,0.3-0.1,0.4-0.3l0.2-0.7c0.6-0.2,1.1-0.5,1.5-0.9l0.7,0.2c0.2,0,0.3,0,0.5-0.2l0.6-1c0.1-0.2,0-0.3-0.1-0.5l-0.5-0.5
					c0.1-0.3,0.1-0.6,0.1-0.9c0-0.3,0-0.6-0.1-0.9l0.5-0.5c0.1-0.1,0.2-0.3,0.1-0.5l-0.6-1c-0.1-0.2-0.3-0.2-0.5-0.2l-0.7,0.2
					c-0.4-0.4-1-0.7-1.5-0.9l-0.2-0.7C20.4,9.1,20.3,9,20.1,9H18.9z M19.5,12.4c0.7,0,1.1,0.5,1.1,1.1c0,0.7-0.5,1.1-1.1,1.1
					s-1.1-0.5-1.1-1.1C18.3,12.9,18.8,12.4,19.5,12.4z M12.8,15.9c-0.2,0-0.3,0.1-0.4,0.3l-0.2,0.7c-0.6,0.2-1.1,0.5-1.5,0.9
					l-0.7-0.2c-0.2,0-0.3,0-0.5,0.2l-0.6,1C9,18.8,9,19,9.1,19.1l0.5,0.5c0,0.3,0,0.6,0,0.9c0,0.3,0,0.6,0.1,0.9l-0.5,0.5
					C9,21.9,9,22.1,9.1,22.3l0.6,1c0.1,0.2,0.3,0.2,0.5,0.2l0.7-0.2c0.4,0.4,1,0.7,1.5,0.9l0.2,0.7c0,0.2,0.2,0.3,0.4,0.3H14
					c0.2,0,0.3-0.1,0.4-0.3l0.2-0.7c0.6-0.2,1.1-0.5,1.5-0.9l0.7,0.2c0.2,0,0.3,0,0.5-0.2l0.6-1c0.1-0.2,0-0.3-0.1-0.5l-0.5-0.5
					c0.1-0.3,0.1-0.6,0.1-0.9c0-0.3,0-0.6-0.1-0.9l0.5-0.5c0.1-0.1,0.2-0.3,0.1-0.5l-0.6-1c-0.1-0.2-0.3-0.2-0.5-0.2L16,17.7
					c-0.4-0.4-1-0.7-1.5-0.9l-0.2-0.7c0-0.2-0.2-0.3-0.4-0.3H12.8z M21.6,17.8c-0.2,0-0.3,0.1-0.4,0.3l-0.2,0.7
					c-0.6,0.2-1.1,0.5-1.5,0.9l-0.7-0.2c-0.2,0-0.3,0-0.5,0.2l-0.6,1c-0.1,0.2,0,0.3,0.1,0.5l0.5,0.5c0,0.3,0,0.6,0,0.9
					s0,0.6,0.1,0.9L18,23.7c-0.1,0.1-0.2,0.3-0.1,0.5l0.6,1c0.1,0.2,0.3,0.2,0.5,0.2l0.7-0.2c0.4,0.4,1,0.7,1.5,0.9l0.2,0.7
					c0,0.2,0.2,0.3,0.4,0.3h1.1c0.2,0,0.3-0.1,0.4-0.3l0.2-0.7c0.6-0.2,1.1-0.5,1.5-0.9l0.7,0.2c0.2,0,0.3,0,0.5-0.2l0.6-1
					c0.1-0.2,0-0.3-0.1-0.5L26,23.3c0.1-0.3,0.1-0.6,0.1-0.9s0-0.6-0.1-0.9l0.5-0.5c0.1-0.1,0.2-0.3,0.1-0.5l-0.6-1
					c-0.1-0.2-0.3-0.2-0.5-0.2l-0.7,0.2c-0.4-0.4-1-0.7-1.5-0.9l-0.2-0.7c0-0.2-0.2-0.3-0.4-0.3H21.6z M13.4,19.3
					c0.7,0,1.1,0.5,1.1,1.1c0,0.7-0.5,1.1-1.1,1.1s-1.1-0.5-1.1-1.1C12.2,19.8,12.7,19.3,13.4,19.3z M22.2,20.9
					c0.8,0,1.5,0.7,1.5,1.5c0,0.8-0.7,1.5-1.5,1.5c-0.8,0-1.5-0.7-1.5-1.5C20.6,21.6,21.3,20.9,22.2,20.9z"/>
			</g>
		</g>
	</g>
</g>
</svg>
