<?xml version="1.0" encoding="utf-8"?>
<!-- Generator: Adobe Illustrator 20.1.0, SVG Export Plug-In . SVG Version: 6.00 Build 0)  -->
<svg version="1.1" id="Layer_1" xmlns="http://www.w3.org/2000/svg" xmlns:xlink="http://www.w3.org/1999/xlink" x="0px" y="0px"
	 viewBox="0 0 38 38" style="enable-background:new 0 0 38 38;" xml:space="preserve">
<style type="text/css">
	.st0{fill:#F7FCFF;stroke:#D4ECFC;}
	.st1{fill:#00ADE4;}
</style>
<title>HDL/Icon/Standard/Search/triggers</title>
<desc>Created with Sketch.</desc>
<g id="Colors">
	<g id="Search-Icons" transform="translate(-100.000000, -430.000000)">
		<g id="HDL_x2F_Icon_x2F_Standard_x2F_Search_x2F_triggers" transform="translate(101.000000, 431.000000)">
			<g id="Triggers">
				<circle id="Oval" class="st0" cx="18" cy="18" r="18"/>
				<path id="Shape" class="st1" d="M13.4,9c-0.4,0-0.7,0.3-0.7,0.7v0.7h-2c-0.4,0-0.7,0.3-0.7,0.7v13.6c0,0.4,0.3,0.7,0.7,0.7H25
					c0.4,0,0.7-0.3,0.7-0.7v-2.7c0-0.1-0.1-0.2-0.2-0.3c-0.1-0.1-0.2-0.1-0.3,0C25,21.7,25,21.8,25,21.9v2.7H10.7V14.4H25v2.4
					c0,0.1,0.1,0.2,0.2,0.3c0.1,0.1,0.2,0.1,0.3,0c0.1-0.1,0.2-0.2,0.2-0.3V11c0-0.4-0.3-0.7-0.7-0.7h-2V9.7c0-0.4-0.3-0.7-0.7-0.7
					h-0.7c-0.4,0-0.7,0.3-0.7,0.7v0.7h-6.1V9.7c0-0.4-0.3-0.7-0.7-0.7H13.4z M13.4,9.7h0.7v2h-0.7v-1c0,0,0-0.1,0-0.1V9.7z
					 M21.6,9.7h0.7v1c0,0,0,0.1,0,0.1v1h-0.7V9.7z M10.7,11h2v0.7c0,0.4,0.3,0.7,0.7,0.7h0.7c0.4,0,0.7-0.3,0.7-0.7V11h6.1v0.7
					c0,0.4,0.3,0.7,0.7,0.7h0.7c0.4,0,0.7-0.3,0.7-0.7V11h2v2.7H10.7V11z M23.1,16.6c-0.1,0-0.3,0.1-0.3,0.2c-0.1,0.1,0,0.3,0.1,0.4
					l1.6,1.7h-6c-0.1,0-0.2,0.1-0.3,0.2c-0.1,0.1-0.1,0.2,0,0.3c0.1,0.1,0.2,0.2,0.3,0.2h6l-1.6,1.7c-0.1,0.1-0.1,0.3,0,0.5
					c0.1,0.1,0.3,0.1,0.5,0l2.4-2.5l-2.4-2.5C23.3,16.7,23.2,16.6,23.1,16.6z"/>
			</g>
		</g>
	</g>
</g>
</svg>
