<svg enable-background="new 0 0 38 38" viewBox="0 0 38 38" xmlns="http://www.w3.org/2000/svg"><filter id="a" height="111.1%" width="105.6%" x="-2.8%" y="-2.8%"><feOffset dy="1" in="SourceAlpha" result="shadowOffsetOuter1"/><feColorMatrix in="shadowOffsetOuter1" values="0 0 0 0 0.949019608 0 0 0 0 0.956862745 0 0 0 0 0.964705882 0 0 0 1 0"/></filter><circle cx="19" cy="19" fill="#f7fcff" r="18" stroke="#d4ecfc"/><g filter="url(#a)" transform="translate(1 1)"><path d="M26.1 17v4.5h-1.8v-3.6h-5.4v3.6h-1.8v-3.6h-5.4v3.6H9.9V17c0-.5.4-.9.9-.9h6.3v-3.6h1.8v3.6h6.3c.5 0 .9.4.9.9zM9.9 22.4h1.8c.5 0 .9.4.9.9v1.8c0 .5-.4.9-.9.9H9.9c-.5 0-.9-.4-.9-.9v-1.8c0-.5.4-.9.9-.9zm14.4 0h1.8c.5 0 .9.4.9.9v1.8c0 .5-.4.9-.9.9h-1.8c-.5 0-.9-.4-.9-.9v-1.8c0-.5.4-.9.9-.9zm-7.2 0h1.8c.5 0 .9.4.9.9v1.8c0 .5-.4.9-.9.9h-1.8c-.5 0-.9-.4-.9-.9v-1.8c0-.5.4-.9.9-.9zm0-14.4h1.8c.5 0 .9.4.9.9v1.8c0 .5-.4.9-.9.9h-1.8c-.5 0-.9-.4-.9-.9V8.9c0-.5.4-.9.9-.9z"/></g><path d="M27.1 18v4.5h-1.8v-3.6h-5.4v3.6h-1.8v-3.6h-5.4v3.6h-1.8V18c0-.5.4-.9.9-.9h6.3v-3.6h1.8v3.6h6.3c.5 0 .9.4.9.9zm-16.2 5.4h1.8c.5 0 .9.4.9.9v1.8c0 .5-.4.9-.9.9h-1.8c-.5 0-.9-.4-.9-.9v-1.8c0-.5.4-.9.9-.9zm14.4 0h1.8c.5 0 .9.4.9.9v1.8c0 .5-.4.9-.9.9h-1.8c-.5 0-.9-.4-.9-.9v-1.8c0-.5.4-.9.9-.9zm-7.2 0h1.8c.5 0 .9.4.9.9v1.8c0 .5-.4.9-.9.9h-1.8c-.5 0-.9-.4-.9-.9v-1.8c0-.5.4-.9.9-.9zm0-14.4h1.8c.5 0 .9.4.9.9v1.8c0 .5-.4.9-.9.9h-1.8c-.5 0-.9-.4-.9-.9V9.9c0-.5.4-.9.9-.9z" fill="#25a6f7"/></svg>