<?xml version="1.0" encoding="UTF-8"?>
<svg width="38px" height="38px" viewBox="0 0 38 38" version="1.1" xmlns="http://www.w3.org/2000/svg" xmlns:xlink="http://www.w3.org/1999/xlink">
    <!-- Generator: Sketch 59 (86127) - https://sketch.com -->
    <title>HDL/Icon/Standard/Search/user-groups</title>
    <desc>Created with Sketch.</desc>
    <g id="Colors" stroke="none" stroke-width="1" fill="none" fill-rule="evenodd">
        <g id="Search-Icons" transform="translate(-100.000000, -618.000000)">
            <g id="HDL/Icon/Standard/Search/user-groups" transform="translate(101.000000, 619.000000)">
                <g id="User-Groups">
                    <circle id="Oval" stroke="#D4ECFC" fill="#F7FCFF" cx="18" cy="18" r="18"></circle>
                    <path d="M25.2204255,24.2763722 C25.1610396,23.9913198 25.054145,23.6825131 24.923496,23.3737064 C24.4959175,22.3522688 23.5932517,21.7940412 21.7285342,20.9982701 C21.5622536,20.927007 21.0277805,20.7013405 21.0159033,20.7013405 C20.7664825,20.5944459 20.5883247,20.5231828 20.4220442,20.4400425 C20.4457986,20.3212707 20.4457986,20.2024989 20.4576757,20.0718499 C20.4576757,20.0243412 20.4695529,19.9768325 20.4695529,19.9174466 C20.3864127,19.8461835 20.3151496,19.7749204 20.2438865,19.6917801 C20.5051845,19.3117103 20.7189737,18.8960089 20.8852543,18.444676 C20.9090086,18.373413 20.9090086,18.373413 20.9208858,18.3259042 C21.2653241,18.0527291 21.4909905,17.6489049 21.6216395,17.1856948 C21.8116744,16.7937478 21.9185691,16.3186606 21.8710603,15.8079418 C21.8354288,15.3328545 21.6810254,14.905276 21.4316046,14.5845921 C21.4078503,13.9551014 21.3484644,13.2424706 21.2534469,12.7555061 C21.2415697,12.684243 21.2296925,12.6129799 21.2178154,12.5298397 C21.4909905,12.4585766 21.7879201,12.422945 22.0729724,12.422945 C22.6549543,12.422945 23.3200765,12.6129799 23.7832866,12.9692954 C24.2346195,13.3137336 24.5790577,13.8006981 24.7334611,14.3589256 C24.7690926,14.4776974 24.792847,14.6083464 24.8166014,14.7271182 C24.8997416,15.166574 24.9472503,15.8435733 24.9472503,16.3067834 C24.9472503,16.3305377 24.9472503,16.3542921 24.9472503,16.3661693 C25.1135309,16.4374324 25.2679342,16.6155901 25.2916886,16.9719055 C25.315443,17.2688351 25.2085483,17.5063787 25.1372853,17.6132733 C25.0778993,17.8626942 24.9472503,18.1358693 24.6859524,18.1833781 C24.662198,18.3021499 24.6265664,18.4209217 24.5790577,18.5396935 C24.5790577,18.5515707 24.5671805,18.575325 24.5671805,18.575325 C24.3652685,19.097921 24.0564617,19.5611311 23.6763919,19.8936922 C23.6763919,19.9530781 23.6763919,20.012464 23.6763919,20.0599727 C23.7120235,20.4756741 23.5694973,20.7607264 24.662198,21.2476909 C25.7667759,21.7346553 27.4177041,22.2453741 27.7502652,23.0292681 C28.0947034,23.8131621 27.9521773,24.264495 27.9521773,24.264495 L25.2204255,24.264495 L25.2204255,24.2763722 Z M23.8307953,23.8250393 C24.270251,24.8464769 24.0920933,25.440336 24.0920933,25.440336 L9.03182713,25.440336 C9.03182713,25.440336 8.86554659,24.8464769 9.29312513,23.8250393 C9.72070366,22.8036017 11.8229648,22.1266023 13.2244722,21.4971117 C14.6141024,20.8557439 14.4715763,20.4756741 14.519085,19.9530781 C14.519085,19.8936922 14.5309622,19.8224291 14.5309622,19.751166 C14.0439977,19.3354647 13.6401736,18.7297284 13.3788756,18.0289747 L13.3788756,18.0170975 C13.3788756,18.0170975 13.3669984,18.0052203 13.3669984,17.9933432 C13.3194897,17.850817 13.2601037,17.6845364 13.2244722,17.5301331 C12.8919111,17.4707472 12.7018762,17.1025545 12.6306131,16.7699935 C12.55935,16.6274673 12.4049467,16.3067834 12.4405782,15.9267136 C12.488087,15.4397491 12.689999,15.2140827 12.9037883,15.1190652 C12.9037883,15.0953109 12.9037883,15.0715565 12.9037883,15.0478021 C12.9037883,14.4420659 12.9631742,13.5512773 13.0700688,12.9811726 C13.0938232,12.8267692 13.1294548,12.6604887 13.1769635,12.5060853 C13.3788756,11.7934544 13.8183313,11.1639638 14.388436,10.7126309 C14.9822951,10.2494208 15.825575,10 16.5738374,10 C17.3220998,10 18.1653797,10.2494208 18.7592388,10.7126309 C19.3293435,11.1639638 19.7687992,11.7934544 19.9707113,12.5179625 C20.01822,12.6723658 20.0538516,12.8386464 20.0776059,12.9930497 C20.1845006,13.5631545 20.2438865,14.4420659 20.2438865,15.0478021 C20.2438865,15.0715565 20.2438865,15.107188 20.2438865,15.1309424 C20.4576757,15.2259599 20.6477106,15.4516263 20.6833422,15.9267136 C20.7189737,16.3067834 20.5764476,16.6274673 20.4933073,16.7699935 C20.4220442,17.1025545 20.2438865,17.45887 19.9232026,17.5182559 C19.887571,17.6726593 19.8400623,17.8270626 19.7806764,17.981466 C19.7806764,17.9933432 19.7687992,18.0289747 19.7687992,18.0289747 C19.5075012,18.7178512 19.1155542,19.3117103 18.640467,19.751166 C18.640467,19.8224291 18.640467,19.9055694 18.640467,19.9649553 C18.6879757,20.4994284 18.4979408,20.8794983 19.8994482,21.5089889 C21.3009556,22.1384795 23.4032168,22.8036017 23.8307953,23.8250393 Z" id="Combined-Shape_18_" fill="#25A6F7" fill-rule="nonzero"></path>
                </g>
            </g>
        </g>
    </g>
</svg>