<svg viewBox="0 0 38 38" xmlns="http://www.w3.org/2000/svg"><g transform="translate(1 1)"><circle cx="18" cy="18" fill="#f7fcff" r="18" stroke="#d4ecfc"/><path d="M26.1 16.2H24c-.1-.4-.3-.8-.5-1.2l1.5-1.5c.4-.4.4-.9 0-1.3L23.8 11c-.4-.4-.9-.4-1.3 0L21 12.5c-.4-.2-.8-.4-1.2-.5V9.9c0-.5-.4-.9-.9-.9h-1.8c-.5 0-.9.4-.9.9V12c-.4.1-.8.3-1.2.5L13.5 11c-.3-.3-.9-.3-1.2 0l-1.2 1.2c-.3.3-.3.9 0 1.2l1.5 1.5c-.2.4-.4.8-.5 1.2H9.9c-.5 0-.9.4-.9.9v1.8c0 .5.4.9.9.9H12c.1.4.3.8.5 1.2L11 22.5c-.4.4-.4.9 0 1.3l1.3 1.3c.4.4.9.4 1.3 0l1.5-1.5c.4.2.8.4 1.2.5v2.1c0 .5.4.9.9.9H19c.5 0 .9-.4.9-.9V24c.4-.1.8-.3 1.2-.5l1.5 1.5c.3.3.9.3 1.2 0l1.2-1.2c.3-.3.3-.9 0-1.2L23.5 21c.2-.4.4-.8.5-1.2h2.1c.5 0 .9-.4.9-.9v-1.8c0-.5-.4-.9-.9-.9zM18 21.6c-2 0-3.6-1.6-3.6-3.6s1.6-3.6 3.6-3.6 3.6 1.6 3.6 3.6-1.6 3.6-3.6 3.6z" fill="#25a6f7"/></g></svg>