<?xml version="1.0" encoding="utf-8"?>
<!-- Generator: Adobe Illustrator 20.1.0, SVG Export Plug-In . SVG Version: 6.00 Build 0)  -->
<svg version="1.1" id="Layer_1" xmlns="http://www.w3.org/2000/svg" xmlns:xlink="http://www.w3.org/1999/xlink" x="0px" y="0px"
	 viewBox="0 0 38 38" style="enable-background:new 0 0 38 38;" xml:space="preserve">
<style type="text/css">
	.st0{fill:#F7FCFF;stroke:#D4ECFC;}
	.st1{fill:#25A6F7;}
</style>
<title>HDL/Icon/Standard/Search/search-tips</title>
<desc>Created with Sketch.</desc>
<g id="Colors">
	<g id="Search-Icons" transform="translate(-102.000000, -664.000000)">
		<g id="HDL_x2F_Icon_x2F_Standard_x2F_Search_x2F_search-tips" transform="translate(103.000000, 665.000000)">
			<circle id="Oval" class="st0" cx="18" cy="18" r="18"/>
			<path id="Shape" class="st1" d="M27.5,25l-3.2-3.2c0.8-1.3,1.3-2.8,1.3-4.5c0-4.6-3.7-8.3-8.3-8.3S9,12.7,9,17.3s3.7,8.3,8.3,8.3
				c1.7,0,3.2-0.5,4.5-1.3l3.2,3.2c0.3,0.3,0.8,0.5,1.3,0.5c1,0,1.8-0.8,1.8-1.8C28,25.7,27.8,25.3,27.5,25z M17.3,23.2
				c-3.3,0-5.9-2.7-5.9-5.9s2.7-5.9,5.9-5.9s5.9,2.7,5.9,5.9S20.6,23.2,17.3,23.2z"/>
			<circle id="Oval_1_" class="st1" cx="14" cy="18" r="1"/>
			<circle id="Oval_2_" class="st1" cx="20" cy="18" r="1"/>
			<circle id="Oval_3_" class="st1" cx="17" cy="18" r="1"/>
		</g>
	</g>
</g>
</svg>
