<?xml version="1.0" encoding="UTF-8"?>
<svg width="38px" height="38px" viewBox="0 0 38 38" version="1.1" xmlns="http://www.w3.org/2000/svg" xmlns:xlink="http://www.w3.org/1999/xlink">
    <!-- Generator: Sketch 59 (86127) - https://sketch.com -->
    <title>HDL/Icon/Standard/Search/Services</title>
    <desc>Created with Sketch.</desc>
    <g id="Colors" stroke="none" stroke-width="1" fill="none" fill-rule="evenodd">
        <g id="Search-Icons" transform="translate(-100.000000, -242.000000)">
            <g id="HDL/Icon/Standard/Search/Services" transform="translate(101.000000, 243.000000)">
                <g id="Services">
                    <circle id="Oval" stroke="#D4ECFC" fill="#F7FCFF" cx="18" cy="18" r="18"></circle>
                    <path d="M18.9207007,9 C18.7292113,9 18.5760199,9.11489362 18.537722,9.30638298 L18.3845305,9.95744681 C17.8100624,10.1106383 17.3121901,10.4170213 16.8526156,10.8382979 L16.2015518,10.6468085 C16.0483603,10.6085106 15.8568709,10.6468085 15.7419773,10.8 L15.1675092,11.7957447 C15.0909135,11.9489362 15.1292113,12.1404255 15.244105,12.2553191 L15.7036794,12.7148936 C15.7036794,13.0212766 15.6653816,13.2893617 15.6653816,13.5957447 C15.6653816,13.9021277 15.7036794,14.1702128 15.7419773,14.4765957 L15.2824028,14.9361702 C15.1675092,15.0510638 15.1292113,15.2425532 15.2058071,15.3957447 L15.7802752,16.3914894 C15.8568709,16.5446809 16.0483603,16.6212766 16.2398496,16.5446809 L16.8909135,16.3531915 C17.3121901,16.7744681 17.8483603,17.0425532 18.4228284,17.2340426 L18.5760199,17.8851064 C18.6143177,18.0382979 18.7675092,18.1914894 18.9589986,18.1914894 L20.1079347,18.1914894 C20.2994241,18.1914894 20.4526156,18.0765957 20.4909135,17.8851064 L20.644105,17.2340426 C21.218573,17.0808511 21.7164454,16.7744681 22.1760199,16.3531915 L22.8270837,16.5446809 C22.9802752,16.5829787 23.1717645,16.5446809 23.2866581,16.3914894 L23.8611262,15.3957447 C23.937722,15.2425532 23.8994241,15.0510638 23.7845305,14.9361702 L23.324956,14.4765957 C23.4015518,14.1702128 23.4015518,13.9021277 23.4015518,13.5957447 C23.4015518,13.2893617 23.3632539,13.0212766 23.324956,12.7148936 L23.7845305,12.2553191 C23.8994241,12.1404255 23.937722,11.9489362 23.8611262,11.7957447 L23.2866581,10.8 C23.2100624,10.6468085 23.018573,10.5702128 22.8270837,10.6468085 L22.1760199,10.8382979 C21.7547433,10.4170213 21.218573,10.1489362 20.644105,9.95744681 L20.4909135,9.30638298 C20.4143177,9.11489362 20.2611262,9 20.0696369,9 L18.9207007,9 Z M19.4951688,12.4468085 C20.1462326,12.4468085 20.644105,12.9446809 20.644105,13.5957447 C20.644105,14.2468085 20.1462326,14.7446809 19.4951688,14.7446809 C18.844105,14.7446809 18.3462326,14.2468085 18.3462326,13.5957447 C18.3462326,12.9446809 18.844105,12.4468085 19.4951688,12.4468085 Z M12.7930411,15.893617 C12.6015518,15.893617 12.4483603,16.0085106 12.4100624,16.2 L12.2568709,16.8510638 C11.6824028,17.0042553 11.1845305,17.3106383 10.724956,17.7319149 L10.0738922,17.5404255 C9.9207007,17.5021277 9.72921134,17.5404255 9.61431772,17.693617 L9.03984964,18.6893617 C8.96325389,18.8425532 9.00155177,19.0340426 9.11644538,19.1489362 L9.57601985,19.6085106 C9.57601985,19.9148936 9.53772198,20.1829787 9.53772198,20.4893617 C9.53772198,20.7957447 9.57601985,21.0638298 9.61431772,21.3702128 L9.15474326,21.8297872 C9.03984964,21.9446809 9.00155177,22.1361702 9.07814751,22.2893617 L9.6526156,23.2851064 C9.72921134,23.4382979 9.9207007,23.5148936 10.1121901,23.4382979 L10.7632539,23.2468085 C11.1845305,23.6680851 11.7207007,23.9361702 12.2951688,24.1276596 L12.4483603,24.7787234 C12.4866581,24.9319149 12.6398496,25.0851064 12.831339,25.0851064 L13.9802752,25.0851064 C14.1717645,25.0851064 14.324956,24.9702128 14.3632539,24.7787234 L14.5164454,24.1276596 C15.0909135,23.9744681 15.5887858,23.6680851 16.0483603,23.2468085 L16.6994241,23.4382979 C16.8526156,23.4765957 17.044105,23.4382979 17.1589986,23.2851064 L17.7334667,22.2893617 C17.8100624,22.1361702 17.7717645,21.9446809 17.6568709,21.8297872 L17.1972964,21.3702128 C17.2738922,21.0638298 17.2738922,20.7957447 17.2738922,20.4893617 C17.2738922,20.1829787 17.2355943,19.9148936 17.1972964,19.6085106 L17.6568709,19.1489362 C17.7717645,19.0340426 17.8100624,18.8425532 17.7334667,18.6893617 L17.1589986,17.693617 C17.0824028,17.5404255 16.8909135,17.4638298 16.6994241,17.5404255 L16.0483603,17.7319149 C15.6270837,17.3106383 15.0909135,17.0425532 14.5164454,16.8510638 L14.3632539,16.2 C14.324956,16.0468085 14.1717645,15.893617 13.9802752,15.893617 L12.7930411,15.893617 Z M21.6015518,17.8085106 C21.4100624,17.8085106 21.2568709,17.9234043 21.218573,18.1148936 L21.0653816,18.7659574 C20.4909135,18.9191489 19.9930411,19.2255319 19.5334667,19.6468085 L18.8824028,19.4553191 C18.7292113,19.4170213 18.537722,19.4553191 18.4228284,19.6085106 L17.8483603,20.6042553 C17.7717645,20.7574468 17.8100624,20.9489362 17.924956,21.0638298 L18.3845305,21.5234043 C18.3845305,21.8297872 18.3462326,22.0978723 18.3462326,22.4042553 C18.3462326,22.7106383 18.3845305,22.9787234 18.4228284,23.2851064 L17.9632539,23.7446809 C17.8483603,23.8595745 17.8100624,24.0510638 17.8866581,24.2042553 L18.4611262,25.2 C18.537722,25.3531915 18.7292113,25.4297872 18.9207007,25.3531915 L19.5717645,25.1617021 C19.9930411,25.5829787 20.5292113,25.8510638 21.1036794,26.0425532 L21.2568709,26.693617 C21.2951688,26.8468085 21.4483603,27 21.6398496,27 L22.7887858,27 C22.9802752,27 23.1334667,26.8851064 23.1717645,26.693617 L23.324956,26.0425532 C23.8994241,25.8893617 24.3972964,25.5829787 24.8568709,25.1617021 L25.5079347,25.3531915 C25.6611262,25.3914894 25.8526156,25.3531915 25.9675092,25.2 L26.5419773,24.2042553 C26.618573,24.0510638 26.5802752,23.8595745 26.4653816,23.7446809 L26.0058071,23.2851064 C26.0824028,22.9787234 26.0824028,22.7106383 26.0824028,22.4042553 C26.0824028,22.0978723 26.044105,21.8297872 26.0058071,21.5234043 L26.4653816,21.0638298 C26.5802752,20.9489362 26.618573,20.7574468 26.5419773,20.6042553 L25.9675092,19.6085106 C25.8909135,19.4553191 25.6994241,19.3787234 25.5079347,19.4553191 L24.8568709,19.6468085 C24.4355943,19.2255319 23.8994241,18.9574468 23.324956,18.7659574 L23.1717645,18.1148936 C23.1334667,17.9617021 22.9802752,17.8085106 22.7887858,17.8085106 L21.6015518,17.8085106 Z M13.3675092,19.3404255 C14.018573,19.3404255 14.5164454,19.8382979 14.5164454,20.4893617 C14.5164454,21.1404255 14.018573,21.6382979 13.3675092,21.6382979 C12.7164454,21.6382979 12.218573,21.1404255 12.218573,20.4893617 C12.218573,19.8382979 12.7164454,19.3404255 13.3675092,19.3404255 Z M22.1760199,20.8723404 C23.018573,20.8723404 23.7079347,21.5617021 23.7079347,22.4042553 C23.7079347,23.2468085 23.018573,23.9361702 22.1760199,23.9361702 C21.3334667,23.9361702 20.644105,23.2468085 20.644105,22.4042553 C20.644105,21.5617021 21.3334667,20.8723404 22.1760199,20.8723404 Z" id="Shape" fill="#25A6F7" fill-rule="nonzero"></path>
                </g>
            </g>
        </g>
    </g>
</svg>