<?xml version="1.0" encoding="UTF-8"?>
<svg width="38px" height="38px" viewBox="0 0 38 38" version="1.1" xmlns="http://www.w3.org/2000/svg" xmlns:xlink="http://www.w3.org/1999/xlink">
    <!-- Generator: Sketch 59 (86127) - https://sketch.com -->
    <title>HDL/Icon/Standard/Search/users</title>
    <desc>Created with Sketch.</desc>
    <g id="Colors" stroke="none" stroke-width="1" fill="none" fill-rule="evenodd">
        <g id="Search-Icons" transform="translate(-100.000000, -571.000000)">
            <g id="HDL/Icon/Standard/Search/users" transform="translate(101.000000, 572.000000)">
                <g id="Users">
                    <circle id="Oval" stroke="#D4ECFC" fill="#F7FCFF" cx="18" cy="18" r="18"></circle>
                    <path d="M25.6788832,24.33 C25.2188832,23.28 22.9988832,22.58 21.5188832,21.93 C20.0388832,21.28 20.2388832,20.88 20.1888832,20.34 C20.1788832,20.27 20.1788832,20.19 20.1788832,20.11 C20.6888832,19.66 21.0988832,19.04 21.3688832,18.33 C21.3688832,18.33 21.3788832,18.29 21.3888832,18.28 C21.4488832,18.13 21.4988832,17.96 21.5388832,17.8 C21.8788832,17.73 22.0788832,17.36 22.1488832,17.02 C22.2288832,16.88 22.3788832,16.54 22.3488832,16.15 C22.2988832,15.65 22.0988832,15.42 21.8788832,15.33 C21.8788832,15.3 21.8788832,15.27 21.8788832,15.24 C21.8788832,14.61 21.8188832,13.69 21.7088832,13.09 C21.6888832,12.92 21.6488832,12.76 21.5988832,12.59 C21.3788832,11.86 20.9288832,11.19 20.3188832,10.73 C19.6788832,10.26 18.7888832,10 17.9988832,10 C17.2088832,10 16.3188832,10.25 15.6888832,10.73 C15.0788832,11.2 14.6288832,11.86 14.4088832,12.59 C14.3588832,12.76 14.3188832,12.92 14.2988832,13.09 C14.1788832,13.69 14.1288832,14.6 14.1288832,15.24 C14.1288832,15.27 14.1288832,15.29 14.1288832,15.32 C13.8888832,15.41 13.6788832,15.64 13.6288832,16.15 C13.5988832,16.53 13.7588832,16.87 13.8288832,17.01 C13.9088832,17.36 14.1088832,17.73 14.4588832,17.79 C14.4988832,17.96 14.5488832,18.12 14.6088832,18.28 C14.6088832,18.29 14.6188832,18.3 14.6188832,18.31 L14.6288832,18.32 C14.8988832,19.04 15.3288832,19.67 15.8488832,20.12 C15.8488832,20.19 15.8388832,20.26 15.8388832,20.33 C15.7888832,20.87 15.9388832,21.27 14.4688832,21.92 C12.9888832,22.57 10.7688832,23.27 10.3088832,24.32 C9.84888322,25.37 10.0388832,25.9901191 10.0388832,25.9901191 L25.9588832,25.9901191 C25.9488832,26 26.1388832,25.38 25.6788832,24.33 Z" id="Path" fill="#25A6F7" fill-rule="nonzero"></path>
                </g>
            </g>
        </g>
    </g>
</svg>