<?xml version="1.0" encoding="UTF-8"?>
<svg width="38px" height="38px" viewBox="0 0 38 38" version="1.1" xmlns="http://www.w3.org/2000/svg" xmlns:xlink="http://www.w3.org/1999/xlink">
    <!-- Generator: Sketch 59 (86127) - https://sketch.com -->
    <title>HDL/Icon/Standard/Search/applications</title>
    <desc>Created with Sketch.</desc>
    <g id="Colors" stroke="none" stroke-width="1" fill="none" fill-rule="evenodd">
        <g id="Search-Icons" transform="translate(-100.000000, -194.000000)">
            <g id="HDL/Icon/Standard/Search/applications" transform="translate(101.000000, 195.000000)">
                <g id="Applications">
                    <circle id="Oval" stroke="#D4ECFC" fill="#F7FCFF" cx="18" cy="18" r="18"></circle>
                    <path d="M9,10 L9,26.5 L27,26.5 L27,10 L9,10 Z M10.5,11.5 L25.5,11.5 L25.5,13 L10.5,13 L10.5,11.5 Z M10.5,14.5 L25.5,14.5 L25.5,25 L10.5,25 L10.5,14.5 Z M18,16 L16.5,23.5 L18,23.5 L19.5,16 L18,16 Z M14.4,16.3 L12.15,19.3 L11.8125,19.75 L12.15,20.2 L14.4,23.2 L15.6,22.3 L13.6875,19.75 L15.6,17.2 L14.4,16.3 Z M21.6,16.3 L20.4,17.2 L22.3125,19.75 L20.4,22.3 L21.6,23.2 L23.85,20.2 L24.1875,19.75 L23.85,19.3 L21.6,16.3 Z" id="Shape" fill="#25A6F7" fill-rule="nonzero"></path>
                </g>
            </g>
        </g>
    </g>
</svg>