<?xml version="1.0" encoding="UTF-8"?>
<svg width="38px" height="38px" viewBox="0 0 38 38" version="1.1" xmlns="http://www.w3.org/2000/svg" xmlns:xlink="http://www.w3.org/1999/xlink">
    <!-- Generator: Sketch 59 (86127) - https://sketch.com -->
    <title>HDL/Icon/Standard/Search/workflow</title>
    <desc>Created with Sketch.</desc>
    <g id="Colors" stroke="none" stroke-width="1" fill="none" fill-rule="evenodd">
        <g id="Search-Icons" transform="translate(-100.000000, -383.000000)">
            <g id="HDL/Icon/Standard/Search/workflow" transform="translate(101.000000, 384.000000)">
                <g id="Workflows">
                    <circle id="Oval" stroke="#D4ECFC" fill="#F7FCFF" cx="18" cy="18" r="18"></circle>
                    <path d="M22.4381139,9 L18.6188605,12.8267717 L16.0019646,12.8267717 C15.6836935,11.2322835 14.2337917,9.99212598 12.5363458,9.99212598 C10.5913556,9.99212598 9,11.5866142 9,13.5354331 C9,15.2362205 10.237721,16.6889764 11.8290766,17.007874 L11.8290766,19.9133858 L9,19.9133858 L9,27 L16.0726916,27 L16.0726916,19.9133858 L13.2436149,19.9133858 L13.2436149,17.007874 C14.6227898,16.7244094 15.719057,15.6259843 16.0019646,14.2440945 L18.5481336,14.2440945 L21.7308448,17.4330709 L21.7308448,19.984252 C20.1394892,20.3031496 18.9017682,21.7559055 18.9017682,23.4566929 C18.9017682,25.4055118 20.4931238,27 22.4381139,27 C24.3831041,27 25.9744597,25.4055118 25.9744597,23.4566929 C25.9744597,21.7559055 24.7367387,20.3031496 23.1453831,19.984252 L23.1453831,17.4330709 L27,13.5708661 L22.4381139,9 Z M22.4381139,11.019685 L24.9842829,13.5708661 L22.4381139,16.1220472 L19.891945,13.5708661 L22.4381139,11.019685 Z M12.5363458,11.4094488 C13.7033399,11.4094488 14.6581532,12.3661417 14.6581532,13.5354331 C14.6581532,14.7047244 13.7033399,15.6614173 12.5363458,15.6614173 C11.3693517,15.6614173 10.4145383,14.7047244 10.4145383,13.5354331 C10.4145383,12.3661417 11.3693517,11.4094488 12.5363458,11.4094488 Z M10.4145383,21.3307087 L14.6581532,21.3307087 L14.6581532,25.5826772 L10.4145383,25.5826772 L10.4145383,21.3307087 Z M22.4381139,21.3307087 C23.6051081,21.3307087 24.5599214,22.2874016 24.5599214,23.4566929 C24.5599214,24.6259843 23.6051081,25.5826772 22.4381139,25.5826772 C21.2711198,25.5826772 20.3163065,24.6259843 20.3163065,23.4566929 C20.3163065,22.2874016 21.2711198,21.3307087 22.4381139,21.3307087 Z" id="Shape" fill="#25A6F7" fill-rule="nonzero"></path>
                </g>
            </g>
        </g>
    </g>
</svg>