<svg enable-background="new 0 0 38 38" viewBox="0 0 38 38" xmlns="http://www.w3.org/2000/svg"><g transform="translate(1 1)"><circle cx="18" cy="18" fill="#f7fcff" r="18" stroke="#d4ecfc"/><path d="m22.4 9-3.8 3.8h-2.6c-.3-1.6-1.8-2.8-3.5-2.8-1.9 0-3.5 1.6-3.5 3.5 0 1.7 1.2 3.2 2.8 3.5v2.9h-2.8v7.1h7.1v-7.1h-2.8v-2.9c1.4-.3 2.5-1.4 2.8-2.8h2.5l3.2 3.2v2.6c-1.6.3-2.8 1.8-2.8 3.5 0 1.9 1.6 3.5 3.5 3.5s3.5-1.6 3.5-3.5c0-1.7-1.2-3.2-2.8-3.5v-2.6l3.9-3.9zm0 2 2.5 2.6-2.5 2.6-2.5-2.6zm-9.9.4c1.2 0 2.1 1 2.1 2.1s-1 2.1-2.1 2.1-2.1-1-2.1-2.1 1-2.1 2.1-2.1zm-2.1 9.9h4.2v4.3h-4.2zm12 0c1.2 0 2.1 1 2.1 2.1 0 1.2-1 2.1-2.1 2.1s-2.1-1-2.1-2.1 1-2.1 2.1-2.1z" fill="#25a6f7"/></g></svg>