<svg enable-background="new 0 0 38 38" viewBox="0 0 38 38" xmlns="http://www.w3.org/2000/svg"><circle cx="19" cy="19" fill="#f7fcff" r="18" stroke="#d4ecfc"/><g fill="#25a6f7" transform="translate(1 1)"><path d="m27.5 25-3.2-3.2c.8-1.3 1.3-2.8 1.3-4.5 0-4.6-3.7-8.3-8.3-8.3s-8.3 3.7-8.3 8.3 3.7 8.3 8.3 8.3c1.7 0 3.2-.5 4.5-1.3l3.2 3.2c.3.3.8.5 1.3.5 1 0 1.8-.8 1.8-1.8-.1-.5-.3-.9-.6-1.2zm-10.2-1.8c-3.3 0-5.9-2.7-5.9-5.9s2.7-5.9 5.9-5.9 5.9 2.7 5.9 5.9-2.6 5.9-5.9 5.9z"/><circle cx="14" cy="18" r="1"/><circle cx="20" cy="18" r="1"/><circle cx="17" cy="18" r="1"/></g></svg>