<?xml version="1.0" encoding="utf-8"?>
<!-- Generator: Adobe Illustrator 20.1.0, SVG Export Plug-In . SVG Version: 6.00 Build 0)  -->
<svg version="1.1" id="Layer_1" xmlns="http://www.w3.org/2000/svg" xmlns:xlink="http://www.w3.org/1999/xlink" x="0px" y="0px"
	 viewBox="0 0 38 38" style="enable-background:new 0 0 38 38;" xml:space="preserve">
<style type="text/css">
	.st0{fill:#F7FCFF;stroke:#D4ECFC;}
	.st1{fill:#25A6F7;}
</style>
<title>HDL/Icon/Standard/Search/connectors</title>
<desc>Created with Sketch.</desc>
<g id="Colors">
	<g id="Search-Icons" transform="translate(-100.000000, -524.000000)">
		<g id="HDL_x2F_Icon_x2F_Standard_x2F_Search_x2F_connectors" transform="translate(101.000000, 525.000000)">
			<g id="Connectors">
				<circle id="Oval" class="st0" cx="18" cy="18" r="18"/>
				<path id="Shape" class="st1" d="M26.1,16.2H24c-0.1-0.4-0.3-0.8-0.5-1.2l1.5-1.5c0.4-0.4,0.4-0.9,0-1.3L23.8,11
					c-0.4-0.4-0.9-0.4-1.3,0L21,12.5c-0.4-0.2-0.8-0.4-1.2-0.5V9.9c0-0.5-0.4-0.9-0.9-0.9h-1.8c-0.5,0-0.9,0.4-0.9,0.9V12
					c-0.4,0.1-0.8,0.3-1.2,0.5l-1.5-1.5c-0.3-0.3-0.9-0.3-1.2,0l-1.2,1.2c-0.3,0.3-0.3,0.9,0,1.2l1.5,1.5c-0.2,0.4-0.4,0.8-0.5,1.2
					H9.9c-0.5,0-0.9,0.4-0.9,0.9v1.8c0,0.5,0.4,0.9,0.9,0.9H12c0.1,0.4,0.3,0.8,0.5,1.2L11,22.5c-0.4,0.4-0.4,0.9,0,1.3l1.3,1.3
					c0.4,0.4,0.9,0.4,1.3,0l1.5-1.5c0.4,0.2,0.8,0.4,1.2,0.5v2.1c0,0.5,0.4,0.9,0.9,0.9h1.8c0.5,0,0.9-0.4,0.9-0.9V24
					c0.4-0.1,0.8-0.3,1.2-0.5l1.5,1.5c0.3,0.3,0.9,0.3,1.2,0l1.2-1.2c0.3-0.3,0.3-0.9,0-1.2L23.5,21c0.2-0.4,0.4-0.8,0.5-1.2h2.1
					c0.5,0,0.9-0.4,0.9-0.9v-1.8C27,16.6,26.6,16.2,26.1,16.2z M18,21.6c-2,0-3.6-1.6-3.6-3.6s1.6-3.6,3.6-3.6s3.6,1.6,3.6,3.6
					S20,21.6,18,21.6z"/>
			</g>
		</g>
	</g>
</g>
</svg>
