<?xml version="1.0" encoding="utf-8"?>
<!-- Generator: Adobe Illustrator 20.1.0, SVG Export Plug-In . SVG Version: 6.00 Build 0)  -->
<svg version="1.1" id="Layer_1" xmlns="http://www.w3.org/2000/svg" xmlns:xlink="http://www.w3.org/1999/xlink" x="0px" y="0px"
	 viewBox="0 0 38 38" style="enable-background:new 0 0 38 38;" xml:space="preserve">
<style type="text/css">
	.st0{fill:#F7FCFF;stroke:#D4ECFC;}
	.st1{fill:#25A6F7;}
</style>
<title>HDL/Icon/Standard/Search/users</title>
<desc>Created with Sketch.</desc>
<g id="Colors">
	<g id="Search-Icons" transform="translate(-100.000000, -571.000000)">
		<g id="HDL_x2F_Icon_x2F_Standard_x2F_Search_x2F_users" transform="translate(101.000000, 572.000000)">
			<g id="Users">
				<circle id="Oval" class="st0" cx="18" cy="18" r="18"/>
				<path id="Path" class="st1" d="M25.7,24.3c-0.5-1-2.7-1.8-4.2-2.4s-1.3-1.1-1.3-1.6c0-0.1,0-0.1,0-0.2c0.5-0.5,0.9-1.1,1.2-1.8
					c0,0,0,0,0,0c0.1-0.2,0.1-0.3,0.1-0.5c0.3-0.1,0.5-0.4,0.6-0.8c0.1-0.1,0.2-0.5,0.2-0.9c0-0.5-0.2-0.7-0.5-0.8c0,0,0-0.1,0-0.1
					c0-0.6-0.1-1.6-0.2-2.1c0-0.2-0.1-0.3-0.1-0.5c-0.2-0.7-0.7-1.4-1.3-1.9C19.7,10.3,18.8,10,18,10c-0.8,0-1.7,0.2-2.3,0.7
					c-0.6,0.5-1.1,1.1-1.3,1.9c-0.1,0.2-0.1,0.3-0.1,0.5c-0.1,0.6-0.2,1.5-0.2,2.1c0,0,0,0.1,0,0.1c-0.2,0.1-0.4,0.3-0.5,0.8
					c0,0.4,0.1,0.7,0.2,0.9c0.1,0.4,0.3,0.7,0.6,0.8c0,0.2,0.1,0.3,0.1,0.5c0,0,0,0,0,0l0,0c0.3,0.7,0.7,1.4,1.2,1.8
					c0,0.1,0,0.1,0,0.2c-0.1,0.5,0.1,0.9-1.4,1.6c-1.5,0.6-3.7,1.4-4.2,2.4C9.8,25.4,10,26,10,26H26C25.9,26,26.1,25.4,25.7,24.3z"
					/>
			</g>
		</g>
	</g>
</g>
</svg>
