<?xml version="1.0" encoding="utf-8"?>
<!-- Generator: Adobe Illustrator 20.1.0, SVG Export Plug-In . SVG Version: 6.00 Build 0)  -->
<svg version="1.1" id="Layer_1" xmlns="http://www.w3.org/2000/svg" xmlns:xlink="http://www.w3.org/1999/xlink" x="0px" y="0px"
	 viewBox="0 0 38 38" style="enable-background:new 0 0 38 38;" xml:space="preserve">
<style type="text/css">
	.st0{fill:#F7FCFF;stroke:#D4ECFC;}
	.st1{fill:#25A6F7;}
</style>
<title>HDL/Icon/Standard/Search/user-groups</title>
<desc>Created with Sketch.</desc>
<g id="Colors">
	<g id="Search-Icons" transform="translate(-100.000000, -618.000000)">
		<g id="HDL_x2F_Icon_x2F_Standard_x2F_Search_x2F_user-groups" transform="translate(101.000000, 619.000000)">
			<g id="User-Groups">
				<circle id="Oval" class="st0" cx="18" cy="18" r="18"/>
				<path id="Combined-Shape_18_" class="st1" d="M25.2,24.3c-0.1-0.3-0.2-0.6-0.3-0.9c-0.4-1-1.3-1.6-3.2-2.4
					c-0.2-0.1-0.7-0.3-0.7-0.3c-0.2-0.1-0.4-0.2-0.6-0.3c0-0.1,0-0.2,0-0.4c0,0,0-0.1,0-0.2c-0.1-0.1-0.2-0.1-0.2-0.2
					c0.3-0.4,0.5-0.8,0.6-1.2c0-0.1,0-0.1,0-0.1c0.3-0.3,0.6-0.7,0.7-1.1c0.2-0.4,0.3-0.9,0.2-1.4c0-0.5-0.2-0.9-0.4-1.2
					c0-0.6-0.1-1.3-0.2-1.8c0-0.1,0-0.1,0-0.2c0.3-0.1,0.6-0.1,0.9-0.1c0.6,0,1.2,0.2,1.7,0.5c0.5,0.3,0.8,0.8,1,1.4
					c0,0.1,0.1,0.2,0.1,0.4c0.1,0.4,0.1,1.1,0.1,1.6c0,0,0,0,0,0.1c0.2,0.1,0.3,0.2,0.3,0.6c0,0.3-0.1,0.5-0.2,0.6
					c-0.1,0.2-0.2,0.5-0.5,0.6c0,0.1-0.1,0.2-0.1,0.4c0,0,0,0,0,0c-0.2,0.5-0.5,1-0.9,1.3c0,0.1,0,0.1,0,0.2c0,0.4-0.1,0.7,1,1.2
					c1.1,0.5,2.8,1,3.1,1.8c0.3,0.8,0.2,1.2,0.2,1.2L25.2,24.3L25.2,24.3z M23.8,23.8c0.4,1,0.3,1.6,0.3,1.6H9c0,0-0.2-0.6,0.3-1.6
					c0.4-1,2.5-1.7,3.9-2.3c1.4-0.6,1.2-1,1.3-1.5c0-0.1,0-0.1,0-0.2c-0.5-0.4-0.9-1-1.2-1.7v0c0,0,0,0,0,0c0-0.1-0.1-0.3-0.1-0.5
					c-0.3-0.1-0.5-0.4-0.6-0.8c-0.1-0.1-0.2-0.5-0.2-0.8c0-0.5,0.2-0.7,0.5-0.8c0,0,0,0,0-0.1c0-0.6,0.1-1.5,0.2-2.1
					c0-0.2,0.1-0.3,0.1-0.5c0.2-0.7,0.6-1.3,1.2-1.8c0.6-0.5,1.4-0.7,2.2-0.7s1.6,0.2,2.2,0.7c0.6,0.5,1,1.1,1.2,1.8
					c0,0.2,0.1,0.3,0.1,0.5c0.1,0.6,0.2,1.4,0.2,2.1c0,0,0,0.1,0,0.1c0.2,0.1,0.4,0.3,0.4,0.8c0,0.4-0.1,0.7-0.2,0.8
					c-0.1,0.3-0.2,0.7-0.6,0.7c0,0.2-0.1,0.3-0.1,0.5c0,0,0,0,0,0c-0.3,0.7-0.7,1.3-1.1,1.7c0,0.1,0,0.2,0,0.2
					c0,0.5-0.1,0.9,1.3,1.5C21.3,22.1,23.4,22.8,23.8,23.8z"/>
			</g>
		</g>
	</g>
</g>
</svg>
