<svg enable-background="new 0 0 38 38" viewBox="0 0 38 38" xmlns="http://www.w3.org/2000/svg"><g transform="translate(1 1)"><circle cx="18" cy="18" fill="#f7fcff" r="18" stroke="#d4ecfc"/><path d="m25.7 24.3c-.5-1-2.7-1.8-4.2-2.4s-1.3-1.1-1.3-1.6c0-.1 0-.1 0-.2.5-.5.9-1.1 1.2-1.8.1-.2.1-.3.1-.5.3-.1.5-.4.6-.8.1-.1.2-.5.2-.9 0-.5-.2-.7-.5-.8v-.1c0-.6-.1-1.6-.2-2.1 0-.2-.1-.3-.1-.5-.2-.7-.7-1.4-1.3-1.9-.5-.4-1.4-.7-2.2-.7s-1.7.2-2.3.7-1.1 1.1-1.3 1.9c-.1.2-.1.3-.1.5-.1.6-.2 1.5-.2 2.1v.1c-.2.1-.4.3-.5.8 0 .4.1.7.2.9.1.4.3.7.6.8 0 .2.1.3.1.5.3.7.7 1.4 1.2 1.8v.2c-.1.5.1.9-1.4 1.6-1.5.6-3.7 1.4-4.2 2.4-.3 1.1-.1 1.7-.1 1.7h16c-.1 0 .1-.6-.3-1.7z" fill="#25a6f7"/></g></svg>