<svg fill="none" xmlns="http://www.w3.org/2000/svg" viewBox="0 0 54 62"><path d="M26.699 42.578H4.278A2.278 2.278 0 012 40.3V15.747a2.278 2.278 0 012.278-2.278h24.553a2.278 2.278 0 012.278 2.278v20.215" stroke="#05AAB6" stroke-width="2.278"/><rect x="11.079" y="23.424" width="10.954" height="10.954" rx="1.139" stroke="#05AAB6" stroke-width="2.278"/><path d="M31.991 47.869h-3.897a2.278 2.278 0 01-2.278-2.278v-7.794a2.278 2.278 0 012.278-2.277h7.794a2.278 2.278 0 012.278 2.277v3.897" stroke="#05AAB6" stroke-width="2.278"/><path d="M40.223 54.045h-5.955a2.278 2.278 0 01-2.278-2.278v-7.794a2.278 2.278 0 012.278-2.278h7.794a2.278 2.278 0 012.278 2.278v4.309" stroke="#05AAB6" stroke-width="2.278"/><rect x="40.186" y="48.127" width="11.836" height="11.836" rx="1.139" stroke="#05AAB6" stroke-width="2.278"/><path d="M6.41 13.467v-8.82C6.41 3.322 6.41 2 9.07 2h15.436c3.334 0 3.075 1.323 3.075 2.646v5.734h-3.97V7.293c0-.883 0-1.765-1.764-1.765h-9.262c-1.323 0-1.764.649-1.764 1.765v6.174" stroke="#05AAB6" stroke-width="2.278"/></svg>