<svg viewBox="0 0 89 73" xmlns="http://www.w3.org/2000/svg">
  <g transform="translate(-1 -1)" fill="none" fill-rule="evenodd">
    <path d="M86 0H5a5 5 0 00-5 5v65a5 5 0 005 5h81a5 5 0 005-5V5a5 5 0 00-5-5z" fill="#1C1C28" fill-rule="nonzero"/>
    <path d="M5 2h81a3 3 0 013 3v65a3 3 0 01-3 3H5a3 3 0 01-3-3V5a3 3 0 013-3z" fill="#FFE981" fill-rule="nonzero"/>
    <path fill="#1C1C28" fill-rule="nonzero" d="M69.5 16.5v2H.5v-2zM86 16.5v2H74v-2zM7 6a1 1 0 011 1v5a1 1 0 01-2 0V7a1 1 0 011-1zM13 6a1 1 0 011 1v5a1 1 0 01-2 0V7a1 1 0 011-1zM19 6a1 1 0 011 1v5a1 1 0 01-2 0V7a1 1 0 011-1zM25 6a1 1 0 011 1v5a1 1 0 01-2 0V7a1 1 0 011-1zM31 6a1 1 0 011 1v5a1 1 0 01-2 0V7a1 1 0 011-1zM37 6a1 1 0 011 1v5a1 1 0 01-2 0V7a1 1 0 011-1zM43 6a1 1 0 011 1v5a1 1 0 01-2 0V7a1 1 0 011-1zM49 6a1 1 0 011 1v5a1 1 0 01-2 0V7a1 1 0 011-1zM55 6a1 1 0 011 1v5a1 1 0 01-2 0V7a1 1 0 011-1zM61 6a1 1 0 011 1v5a1 1 0 01-2 0V7a1 1 0 011-1zM67 6a1 1 0 011 1v5a1 1 0 01-2 0V7a1 1 0 011-1zM73 6a1 1 0 011 1v5a1 1 0 01-2 0V7a1 1 0 011-1zM79 6a1 1 0 011 1v5a1 1 0 01-2 0V7a1 1 0 011-1zM85 6a1 1 0 011 1v5a1 1 0 01-2 0V7a1 1 0 011-1z"/>
    <path d="M16.2 52.8c.633 0 1.167-.217 1.6-.65l8.4-8.4c.067-.067.1-.117.1-.15.167-.167.3-.383.4-.65.1-.267.15-.517.15-.75v-.05c0-.333-.067-.633-.2-.9-.133-.3-.283-.517-.45-.65l-8.4-8.4c-.2-.2-.442-.35-.725-.45a3.922 3.922 0 00-.875-.2c-.567-.033-1.083.183-1.55.65-.233.2-.408.45-.525.75-.117.3-.175.583-.175.85 0 .6.233 1.133.7 1.6l4.75 4.75c.567.567.85 1.242.85 2.025 0 .783-.283 1.458-.85 2.025l-.975.975c-.317.317-.642.625-.975.925-.467.467-.933.942-1.4 1.425-.467.483-.933.958-1.4 1.425-.4.4-.633.933-.7 1.6 0 .3.067.583.2.85s.3.517.5.75c.167.2.4.358.7.475.3.117.583.175.85.175z" fill="#22272D" fill-rule="nonzero"/>
    <rect fill="#1C1C28" x="28" y="50" width="40" height="3" rx="1.5"/>
  </g>
</svg>