<?xml version="1.0" encoding="UTF-8"?>
<svg width="12px" height="14px" viewBox="0 0 12 14" version="1.1" xmlns="http://www.w3.org/2000/svg" xmlns:xlink="http://www.w3.org/1999/xlink">
    <!-- Generator: Sketch 59 (86127) - https://sketch.com -->
    <title>HDL/Icon/Standard/Service/aws-lamda</title>
    <desc>Created with Sketch.</desc>
    <g id="Colors" stroke="none" stroke-width="1" fill="none" fill-rule="evenodd">
        <g id="Service-icons" transform="translate(-119.000000, -312.000000)">
            <g id="AWS-Lamda" transform="translate(100.000000, 294.000000)">
                <g id="HDL/Icon/Standard/Service/aws_lambda" transform="translate(19.000000, 18.000000)">
                    <g id="AWS-Lambda">
                        <polyline id="Path" fill="#9D5025" fill-rule="nonzero" points="0.3 11.1 1 11.5 1.1 11.3 1.1 2.8 1.1 2.6 0.3 3 0.3 11.1"></polyline>
                        <polyline id="Path" fill="#F68536" fill-rule="nonzero" points="2.5 3 1.1 2.6 1.1 11.4 2.5 11.1 2.5 3"></polyline>
                        <polyline id="Path" fill="#6B3A19" fill-rule="nonzero" points="6.8 3.6 7.8 3.1 11.1 4.4 10.2 4.5 6.8 3.6"></polyline>
                        <polyline id="Path" fill="#FBBF93" fill-rule="nonzero" points="6.8 10.4 7.8 10.9 11.1 9.6 10.2 9.5 6.8 10.4"></polyline>
                        <path d="M7,9 L8.7,9.2 L8.8,9 L8.8,5 L8.8,4.8 L7,5.1 L7,9 M1.9,2.2 L3,1.6 L3.1,1.8 L3.1,12.1 L3,12.4 L1.9,11.9 L1.9,2.2" id="Shape" fill="#9D5025" fill-rule="nonzero"></path>
                        <polyline id="Path" fill="#F68536" fill-rule="nonzero" points="5.2 11.7 3 12.4 3 1.6 5.2 2.3 5.2 11.7"></polyline>
                        <path d="M4.3,13.1 L6,13.9 L6.2,13.7 L6.2,0.4 L6,0.1 L4.3,1 L4.3,13.1 M10.1,4.5 L11,4.4 L11.1,4.5 L11.1,9.5 L11,9.7 L10.1,9.6 L10.1,4.5" id="Shape" fill="#9D5025" fill-rule="nonzero"></path>
                        <polyline id="Path" fill="#F68536" fill-rule="nonzero" points="8.8 4.8 8.8 9.2 10.6 7 8.8 4.8"></polyline>
                        <path d="M11,2.6 L6,0.1 L6,13.9 L11.7,11 L11.7,3 L11,2.6 Z M11,9.7 L7.7,10.7 L7.7,3.4 L11,4.4 L11,9.7 Z" id="Shape" fill="#F68536" fill-rule="nonzero"></path>
                    </g>
                </g>
            </g>
        </g>
    </g>
</svg>