<svg viewBox="0 0 14 14" xmlns="http://www.w3.org/2000/svg"><path d="M13.7 7.3c0-1.1-.7-2.1-1.8-2.5 0-.2.1-.5.1-.7C12 2 10.3.3 8.2.3c-1.2 0-2.3.6-3 1.6-.4-.3-.8-.5-1.3-.5-1.1 0-2 .9-2 2 0 .2 0 .5.1.7C1 4.5.3 5.6.3 6.7S1 8.8 2 9.2v.7c0 2.1 1.7 3.8 3.8 3.8 1.2 0 2.4-.6 3.1-1.6.4.3.8.4 1.2.4 1.1 0 2-.9 2-2 0-.2 0-.5-.1-.7 1-.3 1.7-1.4 1.7-2.5" fill="#fff"/><path d="M5.6 6.1l3 1.3 3-2.6c0-.2.1-.4.1-.7 0-1.8-1.5-3.3-3.3-3.3-1.1 0-2.1.5-2.7 1.4L5 4.8z" fill="#ffd106"/><path d="M2.5 9.2c0 .2-.1.4-.1.7 0 1.8 1.5 3.3 3.3 3.3 1.1 0 2.1-.5 2.8-1.5L9 9.2l-.6-1.3-3-1.4z" fill="#21bab0"/><path d="M2.5 4.1l2 .5.5-2.3c-.3-.2-.7-.4-1-.4-.9 0-1.6.7-1.6 1.6 0 .2 0 .4.1.6" fill="#ee4f97"/><path d="M2.3 4.6C1.4 4.9.8 5.7.8 6.7c0 .9.6 1.8 1.4 2.1L5 6.2l-.5-1.1z" fill="#14a7df"/><path d="M9.1 11.7c.3.2.6.3 1 .3.9 0 1.6-.7 1.6-1.6 0-.2 0-.4-.1-.6l-2-.5z" fill="#91c73e"/><path d="M9.5 8.9l2.2.5c.9-.3 1.5-1.2 1.5-2.1s-.6-1.8-1.4-2.1L8.9 7.8z" fill="#0279a0"/></svg>