<?xml version="1.0" encoding="utf-8"?>
<!-- Generator: Adobe Illustrator 20.1.0, SVG Export Plug-In . SVG Version: 6.00 Build 0)  -->
<svg version="1.1" id="Layer_1" xmlns="http://www.w3.org/2000/svg" xmlns:xlink="http://www.w3.org/1999/xlink" x="0px" y="0px"
	 viewBox="0 0 14 12" style="enable-background:new 0 0 14 12;" xml:space="preserve">
<style type="text/css">
	.st0{fill:#8BC53F;}
	.st1{fill:#39B44A;}
	.st2{fill:#006837;}
	.st3{fill:#009145;}
</style>
<title>HDL/Icon/Standard/Service/stackdriver</title>
<desc>Created with Sketch.</desc>
<g id="Colors">
	<g id="Service-icons" transform="translate(-621.000000, -268.000000)">
		<g id="StackDriver_1_" transform="translate(600.000000, 252.000000)">
			<g id="HDL_x2F_Icon_x2F_Standard_x2F_Service_x2F_stackdriver" transform="translate(21.000000, 16.000000)">
				<g id="StackDriver">
					<path id="Path" class="st0" d="M10.3,0.2c0.1-0.1,0.1,0,0.1,0.1c0.7,1.1,1.3,2.3,2,3.4c0.4,0.7,0.9,1.5,1.3,2.2
						c0.1,0.1,0.1,0.2,0,0.3c-1.1,1.9-2.2,3.7-3.3,5.6c0,0,0,0.2-0.1,0.1c-0.2-0.1-0.2-0.3-0.3-0.5C9,9.7,8.1,8,7.1,6.4
						C7.1,6.2,7,6.1,7,6c0-0.2,0.2-0.3,0.3-0.5c1-1.7,1.9-3.3,2.9-5C10.2,0.4,10.2,0.3,10.3,0.2z"/>
					<path id="Path_1_" class="st1" d="M10.3,0.2C10.1,0.6,9.9,1,9.7,1.3C9.1,2.4,8.4,3.5,7.8,4.6C7.5,5.1,7.3,5.5,7,6
						c0,0,0,0-0.1,0S6.7,6,6.6,6c-2,0-4.1,0-6.1,0C0.4,6,0.3,6,0.2,5.9c0.2-0.4,0.4-0.8,0.6-1.1c0.9-1.5,1.8-3,2.7-4.5
						c0-0.1,0.1-0.1,0.2-0.1C5.9,0.2,8.1,0.2,10.3,0.2L10.3,0.2z"/>
					<path id="Path_2_" class="st2" d="M0.2,6C2.5,6,4.7,6,7,6c0.1,0.1,0,0.1,0,0.2C6.4,7.1,5.9,8,5.4,8.9c-0.5,0.9-1.1,1.8-1.6,2.8
						c0,0.1-0.1,0.1-0.1,0.2c-0.1,0-0.1-0.1-0.1-0.1C2.7,10.2,1.7,8.6,0.8,7C0.5,6.6,0.3,6.3,0.2,6z"/>
					<path id="Path_3_" class="st3" d="M3.6,11.8c0.4-0.7,0.8-1.4,1.2-2.2C5.3,8.8,5.7,8,6.2,7.2c0.2-0.4,0.4-0.7,0.6-1.1
						C6.9,6.1,7,6.1,7,6l0,0c1.1,1.9,2.2,3.8,3.3,5.7c0,0,0,0.1,0.1,0.1c-1.4,0-2.8,0-4.1,0C5.4,11.8,4.5,11.8,3.6,11.8z"/>
				</g>
			</g>
		</g>
	</g>
</g>
</svg>
