<svg viewBox="0 0 10 14" xmlns="http://www.w3.org/2000/svg"><path d="M9.9 6.8c0 2.7-2.2 5-4.8 5-2.7 0-4.8-2.2-4.8-5 0-2.7 2.2-5 4.8-5s4.8 2.2 4.8 5" fill="#d33833"/><path d="M.4 8S0 2.8 4.8 2.7l-.3-.6-2.6.9-.8.8-.6 1.3-.4 1.4.1 1" fill="#ef3d3a"/><path d="M1.7 3.4C.9 4.3.3 5.5.3 6.8s.5 2.5 1.4 3.4 2 1.4 3.3 1.4 2.5-.5 3.3-1.4c.9-.9 1.4-2.1 1.4-3.4s-.5-2.5-1.4-3.4C7.5 2.5 6.3 2 5 2s-2.4.5-3.3 1.4zm-.2 7C.6 9.5 0 8.2 0 6.8s.6-2.7 1.5-3.6S3.6 1.7 5 1.7s2.6.6 3.5 1.5c1 .9 1.5 2.2 1.5 3.6s-.6 2.7-1.5 3.6-2.2 1.5-3.5 1.5c-1.4 0-2.6-.6-3.5-1.5z" fill="#231f20"/><path d="M7.1 6.8l-.8.1-1 .1H4.1l-.5-.1-.5-.5-.3-.9-.1-.2-.4-.2-.3-.4-.1-.6.2-.5.5-.2.4.2.1.4h.2l.1-.1-.1-.5v-.5l.1-.7v-.4l.3-.5.6-.4 1-.4 1.1.2 1 .7.6.5.3.5.1 1.3-.2 1.1L7.7 6l-.4.5" fill="#f0d6b7"/><path d="M6.4 10l-2.6.1v.4l.2 1.6-.1.1-1.8-.6-.1-.2-.3-2.1L1.3 8l-.1-.3 1.5-1 .5-.2.4.5.4.3.4.1.2.1.2 1 .2.2.4-.1-.4.5 1.6.8z" fill="#335061"/><path d="M2.1 3.5l.5-.2.4.2.1.5h.2l.1-.2-.1-.5.1-1-.1-.6.3-.4.7-.6-.2-.2-1 .5-.4.3-.2.5-.4.5-.1.6z" fill="#6d6b6d"/><path d="M2.8 1.8s.3-.7 1.4-1 .1-.2.1-.2L3.1 1l-.5.5-.2.3zM2.3 3.4s-.4-1.3 1.1-1.5l-.1-.2-1 .3-.3.9.1.6z" fill="#dcd9d8"/><g fill="#f7e4cd"><path d="M2.9 5.1l.2-.2s.1 0 .1.1.1 1.3.9 1.9c.1.1-.6 0-.6 0l-.6-1M6.3 4.8s0-.6.2-.5c.2 0 .2.2.2.2s-.5.2-.4.3M7.8 2.7s-.3.1-.3.3c0 .3.3.1.4 0M5.5 2.8s-.4.1-.4.3c0 .3.5.2.6.1M3 4s-.7-.4-.8 0c0 .3-.2.6.2 1.1L2.1 5l-.2-.6-.1-.5.4-.4h.5l.3.2zM3.4 2.8S3.7 1.2 5.3.9c1.3-.3 2 .1 2.3.4 0 0-1.2-1.4-2.3-1-1.2.4-2 1.1-1.9 1.6zM7.7 1.4s-.5 0-.6.5V2s.4-.5.7-.2"/><path d="M5.3 2s-.1-.7-.7-.3c-.4.3-.4.7-.3.8s.1.2.1.1c.1-.1 0-.4.2-.5s.6-.2.7-.1"/></g><path d="M3.6 7l-1.8.8s.7 2.9.4 3.8l-.3-.1v-1.1l-.5-2.1-.2-.6L3 6.5zM3.8 8.6l.2.3V10h-.3v-.9c0-.1 0-.4.1-.5M3.8 10.2H3l.2.2.6.1" fill="#49728b"/><path d="M6.6 10h.7l.2 1.7-.7.1zM6.8 10l1-.1.4-1.1.4-1.6-.8-.8-.2-.1-.4.4v1.7z" fill="#335061"/><path d="M7.2 9.9l-.6.1.1.5c.2.1.6-.2.6-.2M7.3 6.6l1.3 1v-.4l-1-.9z" fill="#49728b"/><path d="M4.4 13.7L4 12.1 3.8 11v-.8l1.7-.2h1.1l-.1 2 .2 1.5v.3l-1.4.1z" fill="#fff"/><path d="M6.4 10s-.1 1.9.2 3.3c0 0-.6.4-1.4.4l1.6-.1.2-.1-.2-3-.2-.6" fill="#dcd9d8"/><path d="M7.5 11.5l.7-.2 1.4-.1.2-.6-.4-1.1H9l-.6.2-.6.3-.3-.1-.2.1" fill="#fff"/><path d="M7.5 11.2s.5-.2.6-.2l-.2-1 .2-.1s.2 1 .2 1.1c0 0 1 .1 1.1.1 0 0 .2-.4.2-.9l.2.6v.3l-.3.4-.3.1h-.6l-.2-.2-.6.1-.2.1" fill="#dcd9d8"/><path d="M6.7 9.9l-.4-1-.4-.7S6 8 6.1 8h.4l.5.1v.7z" fill="#fff"/><path d="M6.8 9.5s-.5-1-.5-1.1c0 0 .1-.2.2-.2.1.1.4.2.4.2v-.3l-.6-.2-.4.1.7 1.7h.1" fill="#dcd9d8"/><path d="M4.6 7.1L4.1 7l-.5-.1V7l.2.3.7.3" fill="#fff"/><path d="M3.7 7.1s.6.2.8.2v.2L4 7.4z" fill="#dcd9d8"/><g fill="#d33833"><path d="M7.5 8c-.3 0-.6 0-.9-.1v-.3c.1 0 .2 0 .3-.1-.1 0-.2-.1-.3 0 0-.1 0-.1-.1-.2.2 0 .7-.4.9-.3.1.1.2.4.2.6s-.1.3-.1.4M6 7.5s0 .1 0 0c-.1.1-.3.1-.4.2.2 0 .3 0 .4.1V8c-.2.1-.3.3-.6.4-.1.1-.4.2-.5.2s-.1-.1-.1-.2c-.1-.1-.2-.4-.2-.6 0-.3 0-.8.3-.7.2 0 .5.2.7.3.1 0 .2.1.4.1"/><path d="M6.2 7.9c0-.2-.1-.2 0-.3.3-.4.4.4 0 .3"/></g><path d="M6.8 8s-.1-.2 0-.2c.1-.1.2 0 .2-.1v-.3c0-.1.1-.1.2-.1s.4-.1.4 0l-.1-.4h-.3l-.7.4V7.9M4.8 8.6c0-.3 0-.6-.1-.9 0-.4.1-.4.5-.4.1 0 .4.1.4.1.1.2-.2.2.1.3.3.2.7 0 .6-.3h-.4c-.1-.1-.3-.2-.4-.3-.2-.1-.6-.2-.8-.1-.5.4 0 1.2.1 1.6" fill="#ef3d3a"/><g fill="#231f20"><path d="M5.3 2c-.5-.1-.7.3-.9.6-.1 0-.1-.2 0-.3 0-.3.4-.6.7-.6.1.1.3.2.2.3M7.8 2.6c.1.2.2.5.4.7-.1.2-.7.4-.7 0 .1-.1.4 0 .5-.1-.2-.1-.3-.3-.2-.6M5.6 2.6c.1.2.1.4.3.6 0 0 .2.1.1.3l-.2.2c-.2 0-.8 0-.6-.3.2 0 .5.1.6 0-.1-.2-.3-.6-.2-.8M7.7 4.6c-.4.3-.8.5-1.4.5-.1-.1-.2-.4 0-.6.1.1 0 .3.2.3.3.1.7-.2 1-.3.1-.3 0-.3-.1-.5-.4-.3-.8-.7-.7-1.2.1 0 .1.2.1.2.1.3.5.8.8 1.1.1.1.2.1.2.2s-.1.2-.1.3M2.9 4.4c-.1-.1-.1-.4-.3-.4s-.1.4-.1.6c-.1-.1-.2-.5-.1-.6-.1-.1-.1 0-.2.1.1-.6.8-.3.7.3M7.9 4.9c-.2.3-.4.6-.9.7v-.3c.4-.1.6-.3.9-.4M5.5 5.1c.3.2.9.2 1.3.2v.3c-.5 0-1.1-.1-1.3-.5M5.5 5.4c.2.5 1 .5 1.6.5-.1 0-.1.1-.2.1-.2.1-.8.1-1 0s-.3-.3-.4-.4-.3-.2 0-.2"/></g><path d="M7.6 8.4c-.2.4-.5.9-.8 1.3.2-.4.2-1 .2-1.5.3-.1.5 0 .6.2" fill="#81b0c4"/><path d="M9 10c-.3.1-.5.3-.8.3.2-.2.5-.3.8-.3M9.1 10.4c-.2 0-.5.1-.7 0 .1-.1.5 0 .7 0M9.2 10.8h-.8c.1-.2.7-.1.8 0" fill="#231f20"/><path d="M7.2 11.9c0 .3.2.7.2 1-.1 0-.2.1-.4.1 0-.3-.1-.8 0-1.1-.1 0 .1-.1.2 0" fill="#dcd9d8"/><path d="M6.7 7l-.3.3c-.3 0-.4 0-.6-.2.2.1.6-.1.9-.1" fill="#f0d6b7"/><path d="M5.2 9.1c.1-.4.4-.5.7-.7.3.4.5.9.7 1.4-.5-.3-1-.5-1.4-.7" fill="#81b0c4"/><path d="M6.8 11.9V13c.2 0 .3 0 .4-.1 0-.4-.1-.7-.2-1 .1-.1-.1 0-.2 0zm-3-1.7c.1 1.2.3 2.2.7 3.2.8.2 1.7.2 2.3 0-.1-.6-.1-1.3-.1-1.9-.1-.5 0-.9-.1-1.4-.8-.1-2 0-2.8.1zm3-.1c0 .5 0 1 .1 1.5.2 0 .3 0 .5-.1-.1-.5-.1-1-.2-1.5-.2.1-.3.1-.4.1zm.9 0h-.3c0 .4.1.9.2 1.3.1 0 .2-.1.3-.1.1-.4 0-.9-.2-1.2zm1.5 1.3c.3-.1.5-.4.4-.8-.1-.2-.2-.7-.3-.9-.1-.1-.3-.3-.4-.2-.3.2-.7.2-.9.4.1.3.1.8.2 1.2.3 0 .7-.1 1 0-.2.1-.4.1-.6.2.1.2.4.2.6.1zM6.5 9.7c-.2-.5-.4-1-.7-1.4-.2.2-.6.4-.6.8.4.2.9.4 1.3.6zM7 8.2c0 .5 0 1.1-.2 1.5.3-.4.5-.8.8-1.3-.1-.2-.3-.3-.6-.2zM6.5 8c-.1 0-.2.1-.4.1l-.1.1c.3.4.5 1 .7 1.4.1-.4.1-.9.2-1.4-.2 0-.3-.2-.4-.2zm-.4-.5v.3c.5.2.4-.6 0-.3zm-.5-.1c-.2-.2-.5-.3-.7-.3-.3-.1-.3.4-.3.7 0 .2.1.5.2.6 0 .1 0 .1.1.2.1 0 .5-.1.6-.2.2-.1.3-.3.5-.4v-.2c-.1-.1-.2-.1-.4-.1.1-.1.3-.1.4-.1v-.1c-.2 0-.3-.1-.4-.1zM3.8 7c-.2.2.4.4.6.4 0-.1.1-.2 0-.3-.2 0-.5 0-.6-.1zm1.9.1c.2.2.3.2.6.2.2-.1.3-.2.4-.3-.3 0-.7.2-1 .1zm1.9.5c0-.2-.1-.6-.2-.6-.2-.1-.7.3-.8.4 0 .1.1.1.1.2H7c-.1 0-.2 0-.3.1V8h.8c0-.1.1-.2.1-.4zm-4.1-.4c-.1 0-.4-.5-.4-.5-.6.3-1.2.7-1.7 1.1.5 1.1.7 2.3.7 3.6.6.2 1 .6 1.8.6-.1-.6-.2-1.2-.2-1.8-.2-.1-.5 0-.6 0-.1-.2.2-.1.2-.2s-.2-.1-.1-.3c.1.1.2.2.4.2.1-.3 0-.8 0-1.1 0 0 0-.3.1-.2.1 0 0 .6 0 .8s0 .4.1.6c.7-.1 1.5-.2 2.3-.2-.2-.1-.4-.1-.6-.3-.1 0-.5-.2-.6-.3 0-.2.2-.3.2-.5-.4.2-.4-.1-.5-.4s-.1-.5-.2-.6c-.3-.2-.6-.3-.9-.5zm3.7-.4c.5-.2.6.9.4 1.3 0 .1.1.2.2.3l-.9 1.5c.2-.1.5 0 .8-.1.1 0 .2-.3.2-.4.2-.5.4-1.1.5-1.5 0-.1.1-.3.1-.4 0-.2-.2-.3-.4-.4-.2-.3-.3-.5-.5-.7-.1.2-.3.3-.4.4zM2.3 2.2c-.2.3-.2.8-.1 1.2.4-.3 1 0 1 .5.2 0 .1-.3 0-.4-.1-.5.2-1.1 0-1.6-.3-.1-.6.1-.9.3zM4.1.7c-.6.1-1.3.5-1.5 1 .2 0 .3-.1.5-.1h.2c.2 0 .3-.4.4-.5L4 .8c.1 0 .2 0 .1-.1zM7 .8C6.4.5 5.4.2 4.8.6c-.5.2-1.2.6-1.4 1.1.2.5-.1 1-.1 1.5 0 .3.1.5.1.8 0 .1-.2.1-.4.1 0-.3-.1-.6-.4-.6-.4 0-.6.3-.6.6 0 .4.3 1 .7 1 .2 0 .2-.2.4-.2.1.2-.2.3-.2.4v.3c.1.3.3.8.4 1 .3.3.8.4 1.2.4.1-.2.4-.2.6-.1-.2-.1-.4-.4-.6-.6S4 5.8 4 5.5c.4.6.7 1.1 1.5 1.3.6.2 1.2-.1 1.7-.4.2-.1.3-.3.4-.5.5-.7.7-1.7.7-2.6 0-.4 0-.8-.2-1-.2-.3-.6-.6-.9-.3 0-.3.2-.4.6-.3-.3-.3-.5-.7-.8-.9zm1 8.9c.4-.2 1.3-.6 1.6 0 .1.2.2.6.3.8.1.3-.1 1-.4 1.1s-.6.1-1 0c0 0-.1-.1-.1-.2-.3 0-.5 0-.7.1 0 .2-.1.2-.2.3-.1.3.2.8.1 1.1 0 .2-.3.3-.5.3v.3c0 .2-.3.3-.5.3-.7.2-1.6.2-2.3 0-.2-.4-.3-1-.5-1.4-.6.1-1.1-.3-1.6-.5-.2-.1-.4-.1-.4-.2-.1-.1 0-.4 0-.6 0-.6-.1-1.1-.2-1.7-.1-.4-.2-.6-.3-.9-.1-.2-.2-.5-.2-.7-.1-.4.2-.4.5-.5.3-.3.5-.4.9-.6.1-.1.4-.2.5-.3 0-.2-.2-.4-.2-.5-.1-.2-.2-.3-.2-.5-.3 0-.5-.2-.6-.4-.2-.3-.4-.9-.2-1.4 0 0 .1-.1.1-.2V3c-.1-.5.1-1 .5-1.2.2-.7.7-.9 1.3-1.2.2-.1.4-.2.7-.3.8-.3 2.1-.3 2.8.3.3.2.8.7.9 1 .4.9.4 2.4.1 3.5 0 .1-.1.4-.2.5 0 .2-.2.4-.2.6 0 .1.4.4.5.5.2.1.4.3.5.5 0 .2-.1.5-.1.7-.3.6-.5 1.2-.7 1.8z" fill="#231f20"/><path d="M5 5.2s.2-.1.3 0c0 0-.2 0-.2.4H5c.1 0 0-.3 0-.4" fill="#f7e4cd"/><path d="M6.7 8.4c0 .1 0 .1-.1.1s-.1 0-.1-.1 0-.1.2 0c-.1-.1 0-.1 0 0M6.8 8.9c0 .1 0 .1-.1.1s-.1 0-.1-.1 0-.1.1-.1c0 0 .1 0 .1.1" fill="#1d1919"/></svg>