<?xml version="1.0" encoding="utf-8"?>
<!-- Generator: Adobe Illustrator 20.1.0, SVG Export Plug-In . SVG Version: 6.00 Build 0)  -->
<svg version="1.1" id="Layer_1" xmlns="http://www.w3.org/2000/svg" xmlns:xlink="http://www.w3.org/1999/xlink" x="0px" y="0px"
	 viewBox="0 0 10 14" style="enable-background:new 0 0 10 14;" xml:space="preserve">
<style type="text/css">
	.st0{fill:#D33833;}
	.st1{fill:#EF3D3A;}
	.st2{fill:#231F20;}
	.st3{fill:#F0D6B7;}
	.st4{fill:#335061;}
	.st5{fill:#6D6B6D;}
	.st6{fill:#DCD9D8;}
	.st7{fill:#F7E4CD;}
	.st8{fill:#49728B;}
	.st9{fill:#FFFFFF;}
	.st10{fill:#81B0C4;}
	.st11{fill:#1D1919;}
</style>
<title>HDL/Icon/Standard/Service/jenkins</title>
<desc>Created with Sketch.</desc>
<g id="Colors">
	<g id="Service-icons" transform="translate(-118.000000, -1018.000000)">
		<g id="Jenkins_1_" transform="translate(100.000000, 1000.000000)">
			<g id="HDL_x2F_Icon_x2F_Standard_x2F_Service_x2F_jenkins" transform="translate(18.000000, 18.000000)">
				<g id="Jenkins">
					<path id="Path" class="st0" d="M9.9,6.8c0,2.7-2.2,5-4.8,5c-2.7,0-4.8-2.2-4.8-5c0-2.7,2.2-5,4.8-5S9.9,4,9.9,6.8"/>
					<path id="Path_1_" class="st1" d="M0.4,8c0,0-0.4-5.2,4.4-5.3L4.5,2.1L1.9,3L1.1,3.8L0.5,5.1L0.1,6.5l0.1,1"/>
					<path id="Shape" class="st2" d="M1.7,3.4C0.9,4.3,0.3,5.5,0.3,6.8s0.5,2.5,1.4,3.4c0.9,0.9,2,1.4,3.3,1.4s2.5-0.5,3.3-1.4
						c0.9-0.9,1.4-2.1,1.4-3.4S9.2,4.3,8.3,3.4C7.5,2.5,6.3,2,5,2S2.6,2.5,1.7,3.4z M1.5,10.4C0.6,9.5,0,8.2,0,6.8s0.6-2.7,1.5-3.6
						S3.6,1.7,5,1.7s2.6,0.6,3.5,1.5c1,0.9,1.5,2.2,1.5,3.6s-0.6,2.7-1.5,3.6c-0.9,0.9-2.2,1.5-3.5,1.5C3.6,11.9,2.4,11.3,1.5,10.4z
						"/>
					<polyline id="Path_2_" class="st3" points="7.1,6.8 6.3,6.9 5.3,7 4.7,7 4.1,7 3.6,6.9 3.1,6.4 2.8,5.5 2.7,5.3 2.3,5.1 2,4.7 
						1.9,4.1 2.1,3.6 2.6,3.4 3,3.6 3.1,4 3.3,4 3.4,3.9 3.3,3.4 3.3,2.9 3.4,2.2 3.4,1.8 3.7,1.3 4.3,0.9 5.3,0.5 6.4,0.7 7.4,1.4 
						8,1.9 8.3,2.4 8.4,3.7 8.2,4.8 7.7,6 7.3,6.5 					"/>
					<polygon id="Path_3_" class="st4" points="6.4,10 3.8,10.1 3.8,10.5 4,12.1 3.9,12.2 2.1,11.6 2,11.4 1.7,9.3 1.3,8 1.2,7.7 
						2.7,6.7 3.2,6.5 3.6,7 4,7.3 4.4,7.4 4.6,7.5 4.8,8.5 5,8.7 5.4,8.6 5,9.1 6.6,9.9 					"/>
					<polygon id="Path_4_" class="st5" points="2.1,3.5 2.6,3.3 3,3.5 3.1,4 3.3,4 3.4,3.8 3.3,3.3 3.4,2.3 3.3,1.7 3.6,1.3 
						4.3,0.7 4.1,0.5 3.1,1 2.7,1.3 2.5,1.8 2.1,2.3 2,2.9 					"/>
					<path id="Path_5_" class="st6" d="M2.8,1.8c0,0,0.3-0.7,1.4-1s0.1-0.2,0.1-0.2L3.1,1L2.6,1.5L2.4,1.8H2.8z"/>
					<path id="Path_6_" class="st6" d="M2.3,3.4c0,0-0.4-1.3,1.1-1.5L3.3,1.7L2.3,2L2,2.9l0.1,0.6L2.3,3.4z"/>
					<path id="Path_7_" class="st7" d="M2.9,5.1l0.2-0.2c0,0,0.1,0,0.1,0.1s0.1,1.3,0.9,1.9c0.1,0.1-0.6,0-0.6,0l-0.6-1"/>
					<path id="Path_8_" class="st7" d="M6.3,4.8c0,0,0-0.6,0.2-0.5c0.2,0,0.2,0.2,0.2,0.2S6.2,4.7,6.3,4.8"/>
					<path id="Path_9_" class="st7" d="M7.8,2.7c0,0-0.3,0.1-0.3,0.3c0,0.3,0.3,0.1,0.4,0"/>
					<path id="Path_10_" class="st7" d="M5.5,2.8c0,0-0.4,0.1-0.4,0.3c0,0.3,0.5,0.2,0.6,0.1"/>
					<path id="Path_11_" class="st7" d="M3,4c0,0-0.7-0.4-0.8,0c0,0.3-0.2,0.6,0.2,1.1L2.1,5L1.9,4.4L1.8,3.9l0.4-0.4h0.5L3,3.7V4z"
						/>
					<path id="Path_12_" class="st7" d="M3.4,2.8c0,0,0.3-1.6,1.9-1.9c1.3-0.3,2,0.1,2.3,0.4c0,0-1.2-1.4-2.3-1
						c-1.2,0.4-2,1.1-1.9,1.6V2.8z"/>
					<path id="Path_13_" class="st7" d="M7.7,1.4c0,0-0.5,0-0.6,0.5V2c0,0,0.4-0.5,0.7-0.2"/>
					<path id="Path_14_" class="st7" d="M5.3,2c0,0-0.1-0.7-0.7-0.3C4.2,2,4.2,2.4,4.3,2.5c0.1,0.1,0.1,0.2,0.1,0.1
						c0.1-0.1,0-0.4,0.2-0.5C4.8,2,5.2,1.9,5.3,2"/>
					<path id="Path_15_" class="st8" d="M3.6,7L1.8,7.8c0,0,0.7,2.9,0.4,3.8l-0.3-0.1v-1.1L1.4,8.3L1.2,7.7L3,6.5L3.6,7z"/>
					<path id="Path_16_" class="st8" d="M3.8,8.6L4,8.9V10H3.7c0,0,0-0.8,0-0.9C3.7,9,3.7,8.7,3.8,8.6"/>
					<polyline id="Path_17_" class="st8" points="3.8,10.2 3,10.2 3.2,10.4 3.8,10.5 					"/>
					<polygon id="Path_18_" class="st4" points="6.6,10 7.3,10 7.5,11.7 6.8,11.8 					"/>
					<path id="Path_19_" class="st4" d="M6.8,10l1-0.1l0.4-1.1l0.4-1.6L7.8,6.4L7.6,6.3L7.2,6.7v1.7L6.8,10z"/>
					<path id="Path_20_" class="st8" d="M7.2,9.9L6.6,10l0.1,0.5c0.2,0.1,0.6-0.2,0.6-0.2"/>
					<polygon id="Path_21_" class="st8" points="7.3,6.6 8.6,7.6 8.6,7.2 7.6,6.3 					"/>
					<polygon id="Path_22_" class="st9" points="4.4,13.7 4,12.1 3.8,11 3.8,10.2 5.5,10 6.6,10 6.5,12 6.7,13.5 6.7,13.8 5.3,13.9 
											"/>
					<path id="Path_23_" class="st6" d="M6.4,10c0,0-0.1,1.9,0.2,3.3c0,0-0.6,0.4-1.4,0.4l1.6-0.1L7,13.5l-0.2-3L6.6,9.9"/>
					<polyline id="Path_24_" class="st9" points="7.5,11.5 8.2,11.3 9.6,11.2 9.8,10.6 9.4,9.5 9,9.5 8.4,9.7 7.8,10 7.5,9.9 
						7.3,10 					"/>
					<path id="Path_25_" class="st6" d="M7.5,11.2c0,0,0.5-0.2,0.6-0.2l-0.2-1l0.2-0.1c0,0,0.2,1,0.2,1.1c0,0,1,0.1,1.1,0.1
						c0,0,0.2-0.4,0.2-0.9l0.2,0.6v0.3l-0.3,0.4l-0.3,0.1H8.6l-0.2-0.2l-0.6,0.1l-0.2,0.1"/>
					<path id="Path_26_" class="st9" d="M6.7,9.9l-0.4-1L5.9,8.2C5.9,8.2,6,8,6.1,8s0.4,0,0.4,0L7,8.1v0.7L6.7,9.9z"/>
					<path id="Path_27_" class="st6" d="M6.8,9.5c0,0-0.5-1-0.5-1.1c0,0,0.1-0.2,0.2-0.2c0.1,0.1,0.4,0.2,0.4,0.2V8.1L6.3,7.9L5.9,8
						l0.7,1.7h0.1"/>
					<polyline id="Path_28_" class="st9" points="4.6,7.1 4.1,7 3.6,6.9 3.6,7 3.8,7.3 4.5,7.6 					"/>
					<path id="Path_29_" class="st6" d="M3.7,7.1c0,0,0.6,0.2,0.8,0.2v0.2L4,7.4L3.7,7.1z"/>
					<path id="Path_30_" class="st0" d="M7.5,8C7.2,8,6.9,8,6.6,7.9c0-0.1,0-0.2,0-0.3c0.1,0,0.2,0,0.3-0.1c-0.1,0-0.2-0.1-0.3,0
						c0-0.1,0-0.1-0.1-0.2c0.2,0,0.7-0.4,0.9-0.3c0.1,0.1,0.2,0.4,0.2,0.6C7.6,7.8,7.5,7.9,7.5,8"/>
					<path id="Path_31_" class="st0" d="M6,7.5C6,7.5,6,7.6,6,7.5C5.9,7.6,5.7,7.6,5.6,7.7c0.2,0,0.3,0,0.4,0.1V8
						C5.8,8.1,5.7,8.3,5.4,8.4C5.3,8.5,5,8.6,4.9,8.6S4.8,8.5,4.8,8.4C4.7,8.3,4.6,8,4.6,7.8c0-0.3,0-0.8,0.3-0.7
						c0.2,0,0.5,0.2,0.7,0.3C5.7,7.4,5.8,7.5,6,7.5"/>
					<path id="Path_32_" class="st0" d="M6.2,7.9c0-0.2-0.1-0.2,0-0.3C6.5,7.2,6.6,8,6.2,7.9"/>
					<path id="Path_33_" class="st1" d="M6.8,8c0,0-0.1-0.2,0-0.2C6.9,7.7,7,7.8,7,7.7c0-0.1,0-0.2,0-0.3s0.1-0.1,0.2-0.1
						c0.1,0,0.4-0.1,0.4,0L7.5,6.9H7.2L6.5,7.3v0.2v0.4"/>
					<path id="Path_34_" class="st1" d="M4.8,8.6c0-0.3,0-0.6-0.1-0.9c0-0.4,0.1-0.4,0.5-0.4c0.1,0,0.4,0.1,0.4,0.1
						c0.1,0.2-0.2,0.2,0.1,0.3c0.3,0.2,0.7,0,0.6-0.3c-0.1,0-0.3,0-0.4,0C5.8,7.3,5.6,7.2,5.5,7.1C5.3,7,4.9,6.9,4.7,7
						C4.2,7.4,4.7,8.2,4.8,8.6"/>
					<g id="Group" transform="translate(2.000000, 1.000000)">
						<path id="Path_35_" class="st2" d="M3.3,1C2.8,0.9,2.6,1.3,2.4,1.6c-0.1,0-0.1-0.2,0-0.3c0-0.3,0.4-0.6,0.7-0.6
							C3.2,0.8,3.4,0.9,3.3,1"/>
						<path id="Path_36_" class="st2" d="M5.8,1.6C5.9,1.8,6,2.1,6.2,2.3c-0.1,0.2-0.7,0.4-0.7,0c0.1-0.1,0.4,0,0.5-0.1
							C5.8,2.1,5.7,1.9,5.8,1.6"/>
						<path id="Path_37_" class="st2" d="M3.6,1.6C3.7,1.8,3.7,2,3.9,2.2c0,0,0.2,0.1,0.1,0.3c0,0-0.1,0.1-0.2,0.2
							c-0.2,0-0.8,0-0.6-0.3c0.2,0,0.5,0.1,0.6,0C3.7,2.2,3.5,1.8,3.6,1.6"/>
						<path id="Path_38_" class="st2" d="M5.7,3.6C5.3,3.9,4.9,4.1,4.3,4.1C4.2,4,4.1,3.7,4.3,3.5c0.1,0.1,0,0.3,0.2,0.3
							c0.3,0.1,0.7-0.2,1-0.3c0.1-0.3,0-0.3-0.1-0.5C5,2.7,4.6,2.3,4.7,1.8C4.8,1.8,4.8,2,4.8,2c0.1,0.3,0.5,0.8,0.8,1.1
							c0.1,0.1,0.2,0.1,0.2,0.2C5.8,3.4,5.7,3.5,5.7,3.6"/>
						<path id="Path_39_" class="st2" d="M0.9,3.4C0.8,3.3,0.8,3,0.6,3S0.5,3.4,0.5,3.6C0.4,3.5,0.3,3.1,0.4,3
							C0.3,2.9,0.3,3,0.2,3.1C0.3,2.5,1,2.8,0.9,3.4"/>
						<path id="Path_40_" class="st2" d="M5.9,3.9C5.7,4.2,5.5,4.5,5,4.6c0-0.1,0-0.3,0-0.3C5.4,4.2,5.6,4,5.9,3.9"/>
						<path id="Path_41_" class="st2" d="M3.5,4.1c0.3,0.2,0.9,0.2,1.3,0.2v0.3C4.3,4.6,3.7,4.5,3.5,4.1"/>
						<path id="Path_42_" class="st2" d="M3.5,4.4c0.2,0.5,1,0.5,1.6,0.5C5,4.9,5,5,4.9,5c-0.2,0.1-0.8,0.1-1,0
							C3.7,4.9,3.6,4.7,3.5,4.6S3.2,4.4,3.5,4.4"/>
					</g>
					<path id="Path_43_" class="st10" d="M7.6,8.4C7.4,8.8,7.1,9.3,6.8,9.7C7,9.3,7,8.7,7,8.2C7.3,8.1,7.5,8.2,7.6,8.4"/>
					<path id="Path_44_" class="st2" d="M9,10c-0.3,0.1-0.5,0.3-0.8,0.3C8.4,10.1,8.7,10,9,10"/>
					<path id="Path_45_" class="st2" d="M9.1,10.4c-0.2,0-0.5,0.1-0.7,0C8.5,10.3,8.9,10.4,9.1,10.4"/>
					<path id="Path_46_" class="st2" d="M9.2,10.8c-0.3,0-0.6,0-0.8,0C8.5,10.6,9.1,10.7,9.2,10.8"/>
					<path id="Path_47_" class="st6" d="M7.2,11.9c0,0.3,0.2,0.7,0.2,1C7.3,12.9,7.2,13,7,13c0-0.3-0.1-0.8,0-1.1
						C6.9,11.9,7.1,11.8,7.2,11.9"/>
					<path id="Path_48_" class="st3" d="M6.7,7C6.6,7.1,6.5,7.2,6.4,7.3c-0.3,0-0.4,0-0.6-0.2C6,7.2,6.4,7,6.7,7"/>
					<path id="Path_49_" class="st10" d="M5.2,9.1c0.1-0.4,0.4-0.5,0.7-0.7c0.3,0.4,0.5,0.9,0.7,1.4C6.1,9.5,5.6,9.3,5.2,9.1"/>
					<path id="Shape_1_" class="st2" d="M6.8,11.9V13c0.2,0,0.3,0,0.4-0.1c0-0.4-0.1-0.7-0.2-1C7.1,11.8,6.9,11.9,6.8,11.9L6.8,11.9
						z M3.8,10.2c0.1,1.2,0.3,2.2,0.7,3.2c0.8,0.2,1.7,0.2,2.3,0c-0.1-0.6-0.1-1.3-0.1-1.9c-0.1-0.5,0-0.9-0.1-1.4
						C5.8,10,4.6,10.1,3.8,10.2L3.8,10.2z M6.8,10.1c0,0.5,0,1,0.1,1.5c0.2,0,0.3,0,0.5-0.1c-0.1-0.5-0.1-1-0.2-1.5
						C7,10.1,6.9,10.1,6.8,10.1z M7.7,10.1c-0.1,0-0.2,0-0.3,0c0,0.4,0.1,0.9,0.2,1.3c0.1,0,0.2-0.1,0.3-0.1
						C8,10.9,7.9,10.4,7.7,10.1L7.7,10.1z M9.2,11.4c0.3-0.1,0.5-0.4,0.4-0.8c-0.1-0.2-0.2-0.7-0.3-0.9C9.2,9.6,9,9.4,8.9,9.5
						C8.6,9.7,8.2,9.7,8,9.9c0.1,0.3,0.1,0.8,0.2,1.2c0.3,0,0.7-0.1,1,0c-0.2,0.1-0.4,0.1-0.6,0.2C8.7,11.5,9,11.5,9.2,11.4
						L9.2,11.4z M6.5,9.7c-0.2-0.5-0.4-1-0.7-1.4C5.6,8.5,5.2,8.7,5.2,9.1C5.6,9.3,6.1,9.5,6.5,9.7z M7,8.2c0,0.5,0,1.1-0.2,1.5
						c0.3-0.4,0.5-0.8,0.8-1.3C7.5,8.2,7.3,8.1,7,8.2L7,8.2z M6.5,8C6.4,8,6.3,8.1,6.1,8.1L6,8.2c0.3,0.4,0.5,1,0.7,1.4
						c0.1-0.4,0.1-0.9,0.2-1.4C6.7,8.2,6.6,8,6.5,8L6.5,8z M6.1,7.5v0.3C6.6,8,6.5,7.2,6.1,7.5z M5.6,7.4C5.4,7.2,5.1,7.1,4.9,7.1
						C4.6,7,4.6,7.5,4.6,7.8c0,0.2,0.1,0.5,0.2,0.6c0,0.1,0,0.1,0.1,0.2c0.1,0,0.5-0.1,0.6-0.2C5.7,8.3,5.8,8.1,6,8
						c0-0.1,0-0.1,0-0.2C5.9,7.7,5.8,7.7,5.6,7.7C5.7,7.6,5.9,7.6,6,7.6c0,0,0,0,0-0.1C5.8,7.5,5.7,7.4,5.6,7.4L5.6,7.4z M3.8,7
						C3.6,7.2,4.2,7.4,4.4,7.4c0-0.1,0.1-0.2,0-0.3C4.2,7.1,3.9,7.1,3.8,7L3.8,7z M5.7,7.1C5.9,7.3,6,7.3,6.3,7.3
						C6.5,7.2,6.6,7.1,6.7,7C6.4,7,6,7.2,5.7,7.1z M7.6,7.6C7.6,7.4,7.5,7,7.4,7C7.2,6.9,6.7,7.3,6.6,7.4c0,0.1,0.1,0.1,0.1,0.2H7
						c-0.1,0-0.2,0-0.3,0.1V8h0.8C7.5,7.9,7.6,7.8,7.6,7.6z M3.5,7.2c-0.1,0-0.4-0.5-0.4-0.5C2.5,7,1.9,7.4,1.4,7.8
						c0.5,1.1,0.7,2.3,0.7,3.6c0.6,0.2,1,0.6,1.8,0.6c-0.1-0.6-0.2-1.2-0.2-1.8c-0.2-0.1-0.5,0-0.6,0C3,10,3.3,10.1,3.3,10
						S3.1,9.9,3.2,9.7c0.1,0.1,0.2,0.2,0.4,0.2c0.1-0.3,0-0.8,0-1.1c0,0,0-0.3,0.1-0.2c0.1,0,0,0.6,0,0.8c0,0.2,0,0.4,0.1,0.6
						c0.7-0.1,1.5-0.2,2.3-0.2C5.9,9.7,5.7,9.7,5.5,9.5C5.4,9.5,5,9.3,4.9,9.2c0-0.2,0.2-0.3,0.2-0.5C4.7,8.9,4.7,8.6,4.6,8.3
						S4.5,7.8,4.4,7.7C4.1,7.5,3.8,7.4,3.5,7.2L3.5,7.2z M7.2,6.8c0.5-0.2,0.6,0.9,0.4,1.3c0,0.1,0.1,0.2,0.2,0.3
						c-0.3,0.5-0.6,1-0.9,1.5c0.2-0.1,0.5,0,0.8-0.1c0.1,0,0.2-0.3,0.2-0.4c0.2-0.5,0.4-1.1,0.5-1.5c0-0.1,0.1-0.3,0.1-0.4
						c0-0.2-0.2-0.3-0.4-0.4C7.9,6.8,7.8,6.6,7.6,6.4C7.5,6.6,7.3,6.7,7.2,6.8L7.2,6.8z M2.3,2.2C2.1,2.5,2.1,3,2.2,3.4
						c0.4-0.3,1,0,1,0.5c0.2,0,0.1-0.3,0-0.4C3.1,3,3.4,2.4,3.2,1.9C2.9,1.8,2.6,2,2.3,2.2z M4.1,0.7c-0.6,0.1-1.3,0.5-1.5,1
						c0.2,0,0.3-0.1,0.5-0.1h0.2c0.2,0,0.3-0.4,0.4-0.5C3.8,1,3.9,0.9,4,0.8C4.1,0.8,4.2,0.8,4.1,0.7z M7,0.8
						C6.4,0.5,5.4,0.2,4.8,0.6C4.3,0.8,3.6,1.2,3.4,1.7c0.2,0.5-0.1,1-0.1,1.5c0,0.3,0.1,0.5,0.1,0.8c0,0.1-0.2,0.1-0.4,0.1
						c0-0.3-0.1-0.6-0.4-0.6C2.2,3.5,2,3.8,2,4.1c0,0.4,0.3,1,0.7,1c0.2,0,0.2-0.2,0.4-0.2c0.1,0.2-0.2,0.3-0.2,0.4v0.3
						c0.1,0.3,0.3,0.8,0.4,1C3.6,6.9,4.1,7,4.5,7c0.1-0.2,0.4-0.2,0.6-0.1C4.9,6.8,4.7,6.5,4.5,6.3C4.3,6.1,4,5.8,4,5.5
						c0.4,0.6,0.7,1.1,1.5,1.3C6.1,7,6.7,6.7,7.2,6.4c0.2-0.1,0.3-0.3,0.4-0.5c0.5-0.7,0.7-1.7,0.7-2.6c0-0.4,0-0.8-0.2-1
						C7.9,2,7.5,1.7,7.2,2c0-0.3,0.2-0.4,0.6-0.3C7.5,1.4,7.3,1,7,0.8L7,0.8z M8,9.7c0.4-0.2,1.3-0.6,1.6,0c0.1,0.2,0.2,0.6,0.3,0.8
						c0.1,0.3-0.1,1-0.4,1.1c-0.3,0.1-0.6,0.1-1,0c0,0-0.1-0.1-0.1-0.2c-0.3,0-0.5,0-0.7,0.1c0,0.2-0.1,0.2-0.2,0.3
						c-0.1,0.3,0.2,0.8,0.1,1.1c0,0.2-0.3,0.3-0.5,0.3v0.3c0,0.2-0.3,0.3-0.5,0.3C5.9,14,5,14,4.3,13.8c-0.2-0.4-0.3-1-0.5-1.4
						c-0.6,0.1-1.1-0.3-1.6-0.5c-0.2-0.1-0.4-0.1-0.4-0.2c-0.1-0.1,0-0.4,0-0.6c0-0.6-0.1-1.1-0.2-1.7C1.5,9,1.4,8.8,1.3,8.5
						C1.2,8.3,1.1,8,1.1,7.8C1,7.4,1.3,7.4,1.6,7.3C1.9,7,2.1,6.9,2.5,6.7C2.6,6.6,2.9,6.5,3,6.4C3,6.2,2.8,6,2.8,5.9
						C2.7,5.7,2.6,5.6,2.6,5.4C2.3,5.4,2.1,5.2,2,5C1.8,4.7,1.6,4.1,1.8,3.6c0,0,0.1-0.1,0.1-0.2c0-0.1,0-0.3,0-0.4
						C1.8,2.5,2,2,2.4,1.8c0.2-0.7,0.7-0.9,1.3-1.2c0.2-0.1,0.4-0.2,0.7-0.3C5.2,0,6.5,0,7.2,0.6c0.3,0.2,0.8,0.7,0.9,1
						C8.5,2.5,8.5,4,8.2,5.1c0,0.1-0.1,0.4-0.2,0.5C8,5.8,7.8,6,7.8,6.2c0,0.1,0.4,0.4,0.5,0.5C8.5,6.8,8.7,7,8.8,7.2
						c0,0.2-0.1,0.5-0.1,0.7C8.4,8.5,8.2,9.1,8,9.7L8,9.7z"/>
					<path id="Path_50_" class="st7" d="M5,5.2c0,0,0.2-0.1,0.3,0c0,0-0.2,0-0.2,0.4H5C5.1,5.6,5,5.3,5,5.2"/>
					<path id="Path_51_" class="st11" d="M6.7,8.4c0,0.1,0,0.1-0.1,0.1s-0.1,0-0.1-0.1C6.5,8.3,6.5,8.3,6.7,8.4
						C6.6,8.3,6.7,8.3,6.7,8.4"/>
					<path id="Path_52_" class="st11" d="M6.8,8.9C6.8,9,6.8,9,6.7,9C6.6,9,6.6,9,6.6,8.9c0-0.1,0-0.1,0.1-0.1
						C6.7,8.8,6.8,8.8,6.8,8.9"/>
				</g>
			</g>
		</g>
	</g>
</g>
</svg>
