<svg enable-background="new 0 0 14 14" viewBox="0 0 14 14" xmlns="http://www.w3.org/2000/svg" xmlns:xlink="http://www.w3.org/1999/xlink"><linearGradient id="a"><stop offset="0" stop-color="#1a8aff"/><stop offset=".24" stop-color="#1d8fff"/><stop offset=".52" stop-color="#249eff"/><stop offset=".83" stop-color="#30b6ff"/><stop offset="1" stop-color="#39c7ff"/></linearGradient><linearGradient id="b" gradientTransform="matrix(12.439 0 0 -8.6741 3409.6636 3117.0237)" gradientUnits="userSpaceOnUse" x1="-273.3702" x2="-273.7775" xlink:href="#a" y1="358.1274" y2="359.1392"/><linearGradient id="c" gradientTransform="matrix(10.64 0 0 -7.4085 2874.8667 2610.5256)" gradientUnits="userSpaceOnUse" x1="-269.312" x2="-269.7213" xlink:href="#a" y1="350.6083" y2="351.6264"/><path d="m6.6.1-4.7 2.2c-.3.2-.5.5-.6.8l-1.1 5c-.1.3 0 .7.2 1l3.2 4c.2.3.5.4.9.4h5.1c.4 0 .7-.2.9-.4l3.2-4c.2-.3.3-.6.2-1l-1.1-5c-.1-.3-.3-.6-.6-.8l-4.6-2.2c-.4-.1-.7-.1-1 0z" fill="#fff"/><path d="m2.2 8.4s.1-.1.1-.2c0-1.1.4-2.1 1.2-2.8.7-.6 1.6-.9 2.5-.8 1 .1 1.8.5 2.4 1.2.1.1.1.1.2.1 1.2-.4 2.4.1 3 1.2 0 .1.1.1.1.1.6.1 1.2.5 1.5 1.1 0-.1 0-.2 0-.2l-1-4.5c-.1-.3-.3-.6-.6-.7l-4.2-2c-.3-.1-.6-.1-.9 0l-4.2 2c-.1 0-.3.3-.4.6l-1 4.5c-.1.3 0 .6.2.9l.4.5c.1-.4.3-.7.7-1z" fill="url(#b)"/><path d="m12.7 9.1c-.2-.7-.9-1.1-1.6-1-.2-.8-1-1.4-1.8-1.3-.3-.1-.6 0-.8.1-.1.1-.2.1-.3.1 0 0-.1-.1-.1-.2-.6-1-1.7-1.5-2.8-1.3-1.4.3-2.3 1.5-2.2 2.9v.2c0 .1 0 .3-.2.3-.5.2-.8.7-.8 1.3v.1l1.8 2.2c.2.2.5.4.8.4h4.6c.3 0 .6-.1.8-.4l2.6-3.3z" fill="url(#c)"/></svg>