<?xml version="1.0" encoding="utf-8"?>
<!-- Generator: Adobe Illustrator 20.1.0, SVG Export Plug-In . SVG Version: 6.00 Build 0)  -->
<svg version="1.1" id="Layer_1" xmlns="http://www.w3.org/2000/svg" xmlns:xlink="http://www.w3.org/1999/xlink" x="0px" y="0px"
	 viewBox="0 0 14 14" style="enable-background:new 0 0 14 14;" xml:space="preserve">
<style type="text/css">
	.st0{fill:#7545FE;}
	.st1{fill:#9046FE;}
	.st2{fill:#FCFBFE;}
	.st3{fill:#8445FE;}
	.st4{fill:#7A45FE;}
	.st5{fill:#8845FE;}
	.st6{fill:#6745FE;}
	.st7{fill:#9446FE;}
	.st8{fill:#7A49FE;}
	.st9{fill:#6A45FE;}
	.st10{fill:#7E45FE;}
	.st11{fill:#8145FE;}
	.st12{fill:#6446FE;}
	.st13{fill:#774CFE;}
	.st14{fill:#7047FE;}
	.st15{fill:#704BFE;}
	.st16{fill:#8C46FE;}
	.st17{fill:#834DFE;}
	.st18{fill:#884CFE;}
	.st19{filter:url(#Adobe_OpacityMaskFilter);}
	.st20{fill:#FFFFFF;}
	.st21{mask:url(#mask-2);fill:#7047FE;}
	.st22{fill:#FAF8FE;}
	.st23{fill:#FAF9FE;}
	.st24{fill:#7953FE;}
	.st25{fill:#FDFCFE;}
	.st26{fill:#F8F5FE;}
	.st27{fill:#8654FE;}
	.st28{fill:#EFEAFE;}
</style>
<title>HDL/Icon/Standard/Service/elastigroup</title>
<desc>Created with Sketch.</desc>
<g id="Colors">
	<g id="Service-icons" transform="translate(-622.000000, -406.000000)">
		<g id="Elastigroup" transform="translate(600.000000, 388.000000)">
			<g id="HDL_x2F_Icon_x2F_Small_x2F_Standard_x2F_elastigroup" transform="translate(22.000000, 18.000000)">
				<g id="Group-60">
					<path id="Fill-1" class="st0" d="M13,5.1c0.2,0.4,0.3,0.9,0.4,1.4c-0.5,0.2-0.9,0.5-1.2,0.9c-0.6-0.2-1.1,0-1.5,0.5
						C10,8.7,9.2,9.4,8.5,10.2c-0.3,0.3-0.5,0.6-1,0.7c-0.1,0-0.3-0.1-0.3-0.2c-0.1-0.4-0.4-0.7-0.8-0.8C6.3,9.7,6.2,9.6,6.2,9.5
						c0.1-0.7,0.7-1,1.2-1.5c1.6-1.1,3.2-2,4.9-2.9C12.5,5,12.8,4.9,13,5.1"/>
					<path id="Fill-3" class="st1" d="M0.4,7.3C0.3,6.1,0.8,5,1.1,3.9c1.4-1,3-1.8,4.4-2.6c0.6-0.4,1.2-0.7,1.8-1.1
						c0.4,0.2,0.8,0.5,1.2,0.7C8.4,1.7,7.7,1.8,7.1,2C6.4,1.7,5.9,2,5.5,2.6C4.2,4.3,2.4,5.5,1,7.1C0.8,7.2,0.6,7.3,0.4,7.3"/>
					<path id="Fill-5" class="st2" d="M0.4,7.3C2.1,5.6,4,4.1,5.5,2.2c0.4-0.5,0.9-1,1.6-0.3c0.4,0.3,0.1,0.5,0,0.8
						c-1,1.2-2.2,2.3-3.3,3.4C3.7,6.2,3.6,6.3,3.5,6.4C2.9,7,2.3,7.6,1.7,8.2C1.4,8.4,1,8.5,0.7,8.3C0.3,8.1,0.2,7.8,0.4,7.4
						C0.4,7.3,0.4,7.3,0.4,7.3"/>
					<path id="Fill-7" class="st3" d="M3.4,6.1C3.5,6.1,3.5,6,3.6,6c2-1.4,4.3-2.5,6.4-3.8c0.3-0.2,0.5-0.4,0.8-0.3
						c0.3,0,0.6,0.2,0.8,0.4c0.1,0.6-0.4,0.7-0.7,1C9.7,3.9,8.5,4.5,7.4,5.3c-1.3,0.6-2,2-3.1,2.8C4,8.3,3.8,8.7,3.3,8.7
						C3.2,8.6,3.2,8.6,3.1,8.5c0-0.4,0.3-0.7,0.5-0.9C4,7.1,4,6.8,3.5,6.5C3.4,6.4,3.3,6.3,3.4,6.1"/>
					<path id="Fill-9" class="st4" d="M13,5.1c-0.8,0-1.3,0.6-1.9,0.9C9.9,6.7,8.7,7.5,7.5,8.2C7.3,7.9,7,7.7,6.6,7.5
						C6.5,7.5,6.4,7.3,6.4,7.2c0-0.2,0.1-0.3,0.3-0.3C8.4,6.1,9.8,5,11.5,4.2c0.4-0.2,0.8-0.6,1.3-0.3C12.9,4.3,13,4.7,13,5.1"/>
					<path id="Fill-11" class="st5" d="M10.8,1.9C8.6,3.3,6.2,4.6,3.9,5.9c-0.1,0-0.2,0-0.3,0c1.1-1.1,2.2-2.2,3.2-3.3
						c1-0.3,1.7-1.1,2.7-1.4C9.9,1.6,10.5,1.4,10.8,1.9"/>
					<path id="Fill-13" class="st6" d="M7.5,13.8l-1.2,0c-0.1-0.1-0.1-0.2,0-0.3c0.7-0.8,1.3-1.7,2.3-2.2c0.9-0.1,1.6-0.8,2.4-1.2
						c0.8-0.3,1.4-1.2,2.4-0.8c-0.5,0.7-1.1,1.4-1.6,2.1C10.4,12,9,13.1,7.5,13.8"/>
					<path id="Fill-15" class="st7" d="M7.3,0.2c0,0.2-0.1,0.5-0.3,0.6c-1.8,1-3.7,2.1-5.5,3.1c-0.1,0.1-0.3,0-0.4,0
						c0-0.8,0.4-1.4,1.1-1.7c1.3-0.6,2.6-1.3,3.9-1.9C6.5,0.1,6.9-0.2,7.3,0.2"/>
					<path id="Fill-17" class="st8" d="M3.2,8.4c0,0.1,0,0.2,0,0.3c0.2,0.4-0.6,0.9-0.1,1.1c0.4,0.2,0.7-0.4,1-0.7
						c0.3-0.2,0.5-0.6,0.9-0.6c0.2,0,0.3,0.1,0.3,0.3C5.3,9.6,5.9,9.5,6.3,9.5c0.1,0.1,0.2,0.2,0.3,0.2c-0.1,0.6-0.5,0.9-1.1,1.1
						c-0.3,0-0.4-0.4-0.6-0.5c-1-0.1-1.3,0.7-1.5,1.4c-0.1,0.3-0.3,0.6-0.7,0.6c-0.3-0.4-0.6-0.8-1-1.1C1,10.6,1.2,10.1,1.9,9.7
						c0.1-0.4,0.2-0.8,0.6-1C2.7,8.6,2.9,8.3,3.2,8.4"/>
					<path id="Fill-19" class="st9" d="M13.5,9.3c-1.3,0.3-2.4,1.1-3.6,1.8c-0.5,0.3-0.9,0.5-1.4,0.4c0-0.6,0.5-0.9,0.8-1.2
						c0.7-0.7,1.3-1.6,2.3-2.1C12,8.2,12.3,8,12.7,7.8c0.3-0.2,0.5-0.5,0.9-0.2c0,0.1,0,0.2,0,0.3c0.1,0.4,0.1,0.7,0,1.1
						C13.6,9.1,13.5,9.2,13.5,9.3"/>
					<path id="Fill-21" class="st10" d="M12.8,3.9c-1.7,0.8-3.4,1.7-5,2.7C7.5,6.8,7.1,7,6.7,7c0-0.7,0.7-1,1-1.6
						C9,4.5,10.5,3.8,11.9,3c0.2-0.1,0.4-0.2,0.6-0.1C12.7,3.2,12.7,3.5,12.8,3.9"/>
					<path id="Fill-23" class="st11" d="M12.4,2.9c-1.6,1-3.1,1.9-4.8,2.7c-0.2,0-0.4-0.1-0.4-0.4c1-1,2.3-1.4,3.4-2.2
						c0.3-0.2,0.7-0.4,0.9-0.8C11.8,2.5,12.3,2.4,12.4,2.9"/>
					<path id="Fill-25" class="st12" d="M7.5,13.8c1.3-1,2.6-2.1,4.3-2.4c-0.3,0.3-0.5,0.6-0.7,1C10.4,14,9,13.9,7.5,13.8"/>
					<path id="Fill-27" class="st5" d="M3.4,6.1c0.1,0.1,0.2,0.2,0.2,0.3C3.6,7,2.9,7.3,2.6,7.8C2.4,8.2,2.1,8.5,2,8.9
						C2,9,1.9,9,1.8,9.1c-0.4-0.2-0.7-0.3-1,0.1C0.6,9.5,0.3,9.5,0.2,9.1C0.1,8.7,0.1,8.3,0.2,8c0-0.2,0-0.5,0.2-0.6
						c0.3,1.1,0.5,1.1,1.3,0.4C2.3,7.2,2.9,6.7,3.4,6.1"/>
					<path id="Fill-29" class="st13" d="M5.1,10.1c0.2,0.2,0.1,0.5,0.4,0.6c0,0.5-0.4,0.9-0.4,1.4c-0.1,0.1-0.1,0.2-0.3,0.3
						c-0.4-0.3-0.7-0.2-1,0.2C3.3,13.2,3,13,2.7,12.3C3,12.2,3.2,12,3.3,11.7C4.1,11.4,4.6,10.7,5.1,10.1"/>
					<path id="Fill-31" class="st14" d="M13.6,7.6c-0.7,0.1-1.2,1-2.1,0.8c0-0.4,0.2-0.8,0.6-1c0.1-0.8,0.5-1,1.2-0.9
						C13.4,6.9,13.5,7.3,13.6,7.6"/>
					<path id="Fill-33" class="st15" d="M4.9,12.4l0.2-0.2c0.3-0.3,0.6-0.5,1-0.5c0.2,0,0.3,0.1,0.3,0.3c0,0.6-0.9,1.1-0.1,1.7
						c0,0,0,0.1,0,0.1c-0.7,0-1.3,0-2.1,0C4.3,13.2,5.1,13,4.9,12.4"/>
					<path id="Fill-35" class="st16" d="M9.5,1.3C8.7,1.9,8,2.7,6.8,2.7c0.1-0.3,0.3-0.5,0.2-0.8c0.5-0.3,1.1-0.5,1.5-1
						C8.8,1.1,9.3,0.9,9.5,1.3"/>
					<path id="Fill-37" class="st17" d="M1.8,9.1c0-0.1,0-0.2,0-0.3c0.3-0.2,0.5-0.2,0.8,0.1C2.3,9,2,9.3,1.9,9.7
						C1.9,9.5,1.8,9.3,1.8,9.1"/>
					<path id="Fill-39" class="st18" d="M0.2,8c0,0.4,0,0.7,0,1.1C-0.1,8.7,0,8.3,0.2,8"/>
					<g id="Group-43" transform="translate(13.594203, 7.869194)">
						<g id="Clip-42">
						</g>
						<defs>
							<filter id="Adobe_OpacityMaskFilter" filterUnits="userSpaceOnUse" x="0" y="0.1" width="0.3" height="1.1">
								<feColorMatrix  type="matrix" values="1 0 0 0 0  0 1 0 0 0  0 0 1 0 0  0 0 0 1 0"/>
							</filter>
						</defs>
						<mask maskUnits="userSpaceOnUse" x="0" y="0.1" width="0.3" height="1.1" id="mask-2">
							<g class="st19">
								<polygon id="path-1" class="st20" points="0,0.1 0.3,0.1 0.3,1.2 0,1.2 								"/>
							</g>
						</mask>
						<path id="Fill-41" class="st21" d="M0,1.2c0-0.4,0-0.7,0-1.1C0.3,0.5,0.4,0.8,0,1.2"/>
					</g>
					<path id="Fill-44" class="st2" d="M6.3,13.6c-0.9-0.1-0.9-0.5-0.4-1.1C6,12.3,6.2,12.2,6.3,12c0.2-0.6,0.6-1,1.2-1.3
						c1.1-1.1,2.2-2.2,3.3-3.3c0.5-0.5,0.9-0.6,1.3,0.1c-0.2,0.3-0.4,0.6-0.6,1c-1,1-2,2.1-3,3.1C7.8,12.2,7,12.9,6.3,13.6"/>
					<path id="Fill-46" class="st22" d="M6.3,9.5C6,9.6,5.8,10.1,5.4,9.8C5,9.5,5.2,9.2,5.3,8.9C5.6,8.2,6,7.7,6.8,7.4
						c0.6-0.1,0.8,0.2,0.7,0.8C7.1,8.7,6.7,9.1,6.3,9.5"/>
					<path id="Fill-48" class="st23" d="M6.1,11.7c-0.3,0.2-0.5,0.5-1,0.4c-0.6-0.7,0.2-1,0.4-1.4c0.3-0.3,0.7-0.7,1-1
						c0.6-0.1,0.8,0.2,0.7,0.8C7.1,11.1,6.7,11.5,6.1,11.7"/>
					<path id="Fill-50" class="st24" d="M6.1,11.7c0.4-0.4,0.8-0.8,1.2-1.3c0.1,0.1,0.2,0.2,0.3,0.3c-0.4,0.5-0.8,0.9-1.2,1.3
						C6.2,11.9,6.2,11.8,6.1,11.7"/>
					<path id="Fill-52" class="st25" d="M7.3,5.2c0.1,0.1,0.2,0.3,0.4,0.4c0,0.7-0.7,0.9-1,1.4C6.6,7.1,6.6,7.1,6.5,7.2
						C6.2,7.8,5.7,8.3,5.1,8.6C4.6,9.1,4.2,9.5,3.8,9.9c-0.3,0.2-0.5,0.6-0.9,0.2C2.5,9.8,2.6,9.4,2.9,9.1C3.1,9,3.2,8.8,3.3,8.7
						c1-1,2-1.9,3-2.8C6.5,5.5,6.8,5.1,7.3,5.2"/>
					<path id="Fill-54" class="st26" d="M2.7,8.9c-0.3,0-0.5-0.1-0.8-0.1C2,7.6,3,7.2,3.7,6.4c0.7,0.1,0.8,0.5,0.4,1
						C3.8,7.7,3.5,8,3.2,8.4C3,8.5,2.8,8.7,2.7,8.9"/>
					<path id="Fill-56" class="st27" d="M5.1,8.6c0.4-0.6,0.9-1,1.4-1.5c0.1,0.1,0.2,0.2,0.3,0.3c-0.5,0.5-1,1-1.5,1.5
						C5.2,8.8,5.2,8.7,5.1,8.6"/>
					<path id="Fill-58" class="st28" d="M5.1,10.1c-0.2,1.1-0.9,1.7-1.8,1.6C3.3,10.5,4.2,9.8,5.1,10.1"/>
				</g>
			</g>
		</g>
	</g>
</g>
</svg>
