<?xml version="1.0" encoding="UTF-8"?>
<svg width="12px" height="14px" viewBox="0 0 12 14" version="1.1" xmlns="http://www.w3.org/2000/svg" xmlns:xlink="http://www.w3.org/1999/xlink">
    <!-- Generator: Sketch 59 (86127) - https://sketch.com -->
    <title>HDL/Icon/Standard/Service/s3</title>
    <desc>Created with Sketch.</desc>
    <g id="Colors" stroke="none" stroke-width="1" fill="none" fill-rule="evenodd">
        <g id="Service-icons" transform="translate(-123.000000, -1486.000000)">
            <g id="S3" transform="translate(104.000000, 1468.000000)">
                <g id="HDL/Icon/Standard/Service/s3" transform="translate(19.000000, 18.000000)">
                    <g id="S3">
                        <polyline id="Path" fill="#8C3123" fill-rule="nonzero" points="1.2 2.5 0.3 3 0.3 11 1.2 11.5 1.2 11.5 1.2 2.5 1.2 2.5"></polyline>
                        <polyline id="Path" fill="#E05243" fill-rule="nonzero" points="6.1 10.3 1.2 11.5 1.2 2.5 6.1 3.6 6.1 10.3"></polyline>
                        <polyline id="Path" fill="#8C3123" fill-rule="nonzero" points="3.9 8.5 6 8.7 6 8.7 6 5.3 6 5.3 3.9 5.5 3.9 8.5"></polyline>
                        <polyline id="Path" fill="#8C3123" fill-rule="nonzero" points="6 10.3 10.8 11.5 10.8 11.5 10.8 2.6 10.8 2.6 6 3.7 6 10.3"></polyline>
                        <polyline id="Path" fill="#E05243" fill-rule="nonzero" points="8.1 8.5 6 8.7 6 5.3 8.1 5.6 8.1 8.5"></polyline>
                        <polyline id="Path" fill="#5E1F18" fill-rule="nonzero" points="8.1 4.1 6 4.5 3.9 4.1 6 3.6 8.1 4.1"></polyline>
                        <polyline id="Path" fill="#F2B0A9" fill-rule="nonzero" points="8.1 9.9 6 9.5 3.9 9.9 6 10.5 8.1 9.9"></polyline>
                        <polyline id="Path" fill="#8C3123" fill-rule="nonzero" points="3.9 4.1 6 3.6 6 3.6 6 0.1 6 0.1 3.9 1.1 3.9 4.1"></polyline>
                        <polyline id="Path" fill="#E05243" fill-rule="nonzero" points="8.1 4.1 6 3.6 6 0.1 8.1 1.1 8.1 4.1"></polyline>
                        <polyline id="Path" fill="#8C3123" fill-rule="nonzero" points="6 13.9 3.9 12.9 3.9 9.9 6 10.4 6 10.4 6 13.9 6 13.9"></polyline>
                        <path d="M6,13.9 L8.1,12.9 L8.1,9.9 L6,10.4 L6,13.9 M10.8,2.5 L11.7,3 L11.7,11 L10.8,11.5 L10.8,2.5" id="Shape" fill="#E05243" fill-rule="nonzero"></path>
                    </g>
                </g>
            </g>
        </g>
    </g>
</svg>