<?xml version="1.0" encoding="utf-8"?>
<!-- Generator: Adobe Illustrator 20.1.0, SVG Export Plug-In . SVG Version: 6.00 Build 0)  -->
<svg version="1.1" id="Layer_1" xmlns="http://www.w3.org/2000/svg" xmlns:xlink="http://www.w3.org/1999/xlink" x="0px" y="0px"
	 viewBox="0 0 14 14" style="enable-background:new 0 0 14 14;" xml:space="preserve">
<style type="text/css">
	.st0{fill:#346898;}
	.st1{fill:#040608;}
</style>
<title>HDL/Icon/Standard/Service/nexus</title>
<desc>Created with Sketch.</desc>
<g id="Colors">
	<g id="Service-icons" transform="translate(-121.000000, -1299.000000)">
		<g id="Nexus_1_" transform="translate(100.000000, 1285.000000)">
			<g id="HDL_x2F_Icon_x2F_Standard_x2F_Service_x2F_nexus" transform="translate(21.000000, 14.000000)">
				<g id="Nexus">
					<path id="Path" class="st0" d="M13.5,3.1c0.2,0.2,0.3,0.4,0.3,0.7c-0.1,0.4-0.3,0.5-0.7,0.5c-2.5,0-5.1,0-7.6,0
						c-1.4,0-2.8,0-4.2,0c-0.1,0-0.2,0-0.3,0c-0.2,0-0.3,0-0.5-0.1l0,0C0.2,4,0.1,3.7,0.2,3.4C0.3,3.2,0.5,3,0.7,3
						C1,3,1.3,2.9,1.6,2.9c0.4,0,0.9,0,1.3,0c3.3,0.1,6.7,0,10,0.1C13.2,2.9,13.4,2.9,13.5,3.1z"/>
					<path id="Path_1_" class="st1" d="M13.8,10.3c0,0.1,0,0.2,0,0.2c0,0.4-0.4,0.6-0.8,0.6c-1.5,0-3.1,0-4.6,0c-2,0-4,0-6,0
						c-0.5,0-1,0-1.5,0c-0.3,0-0.5-0.1-0.7-0.4c-0.1-0.2-0.1-0.5,0-0.7C0.4,9.8,0.7,9.6,1,9.7c0.1,0,0.2,0,0.3,0c3.9,0,7.7,0,11.6,0
						c0.1,0,0.2,0,0.3,0C13.5,9.7,13.7,9.9,13.8,10.3z"/>
					<path id="Path_2_" class="st1" d="M13.8,8.1c0,0.3-0.1,0.5-0.3,0.7c-0.1,0.1-0.3,0.1-0.4,0.1c-3.5,0-7.1,0-10.6,0
						c-0.5,0-1,0-1.6,0c-0.3,0-0.7-0.2-0.7-0.4C0.1,8.1,0.1,7.8,0.5,7.6c0.1-0.1,0.2-0.1,0.3-0.1c0.3,0.1,0.5,0,0.8,0
						c3.8,0,7.6,0,11.4,0c0.2,0,0.5,0,0.7,0.2C13.7,7.8,13.8,7.9,13.8,8.1z"/>
					<path id="Path_3_" class="st0" d="M13.4,5.3c0.3,0.2,0.4,0.4,0.4,0.7s-0.3,0.6-0.7,0.6c-0.4,0-0.7,0-1.1,0c-3.6,0-7.3,0-10.9,0
						c-0.2,0-0.5,0.1-0.7-0.1C0,6.3,0,5.5,0.6,5.3c0.6,0,1.1,0,1.7,0c3.6,0,7.1,0,10.7,0C13.1,5.3,13.3,5.2,13.4,5.3z"/>
					<path id="Path_4_" class="st1" d="M13.8,12.5c0,0.1,0,0.2,0,0.2c-0.1,0.4-0.3,0.5-0.8,0.5c-3.9,0-7.8,0-11.7,0
						c-0.2,0-0.3,0-0.5,0c-0.3,0-0.5-0.2-0.6-0.4s0-0.6,0.2-0.8s0.4-0.2,0.7-0.2c0.4,0,0.9,0,1.3,0c3.6,0,7.1,0,10.7,0
						C13.5,12,13.7,12.1,13.8,12.5z"/>
					<path id="Path_5_" class="st0" d="M13.5,1.9C13.2,2,13,2,12.8,2c-2.7,0-5.4,0-8.1,0C4.5,2,4.4,2,4.4,2C4,2,3.6,2,3.2,2
						C2.4,2,1.6,2,0.9,2C0.4,2,0.2,1.7,0.2,1.3c0-0.3,0.3-0.6,0.6-0.6h0.1c4.1,0,8.1,0,12.2,0c0.3,0,0.5,0.1,0.6,0.3
						c0.1,0.2,0.1,0.4,0,0.7C13.7,1.7,13.6,1.8,13.5,1.9z"/>
				</g>
			</g>
		</g>
	</g>
</g>
</svg>
