<?xml version="1.0" encoding="utf-8"?>
<!-- Generator: Adobe Illustrator 20.1.0, SVG Export Plug-In . SVG Version: 6.00 Build 0)  -->
<svg version="1.1" id="Layer_1" xmlns="http://www.w3.org/2000/svg" xmlns:xlink="http://www.w3.org/1999/xlink" x="0px" y="0px"
	 viewBox="0 0 14 14" style="enable-background:new 0 0 14 14;" xml:space="preserve">
<style type="text/css">
	.st0{fill:#277A9E;}
</style>
<title>HDL/Icon/Standard/Service/helm</title>
<desc>Created with Sketch.</desc>
<g id="Colors">
	<g id="Service-icons" transform="translate(-122.000000, -969.000000)">
		<g id="Helm_1_" transform="translate(101.000000, 952.000000)">
			<g id="HDL_x2F_Icon_x2F_Standard_x2F_Service_x2F_helm" transform="translate(21.000000, 17.000000)">
				<g id="Helm">
					<path id="Path" class="st0" d="M7.5,1.3c0,0.2,0,0.4-0.1,0.6c0,0.1,0,0.2,0.1,0.2c0.7,0.1,1.4,0.3,2,0.7c0.1,0.1,0.2,0,0.2-0.1
						c0.2-0.5,0.5-0.9,0.9-1.2c0.2-0.1,0.3-0.3,0.5-0.1c0.2,0.1,0.1,0.4,0.1,0.6c-0.1,0.5-0.4,0.9-0.8,1.2c-0.2,0.1-0.1,0.2,0,0.3
						c0.3,0.2,0.5,0.5,0.7,0.8c0.1,0.1,0.1,0.2-0.1,0.2c-0.2,0.1-0.3,0.3-0.5,0.3s-0.2-0.3-0.3-0.4c-1.7-2.1-5-2.1-6.7,0.2
						c-0.1,0.1-0.2,0.2-0.3,0l0,0C2.7,4.3,2.7,4.3,3,3.9c0.1-0.2,0.3-0.3,0.5-0.5c0.1-0.1,0.1-0.2,0-0.3C3.2,2.8,2.9,2.4,2.8,1.9
						c-0.1-0.1-0.2-0.4,0-0.5s0.4,0,0.5,0.1C3.8,1.8,4,2.2,4.2,2.6c0.1,0.1,0.1,0.2,0.3,0.1c0.6-0.4,1.2-0.6,1.9-0.6
						c0.2,0,0.2-0.1,0.2-0.2c-0.1-0.5-0.1-1,0-1.4C6.7,0.3,6.8,0,7,0c0.3,0,0.3,0.3,0.4,0.5S7.5,1,7.5,1.3z"/>
					<path id="Path_1_" class="st0" d="M9.7,11.2C9,11.6,8.4,11.9,7.6,12c-0.2,0-0.2,0.1-0.1,0.2c0.1,0.5,0.1,0.9-0.1,1.4
						C7.3,13.8,7.2,14,7,14s-0.3-0.2-0.3-0.4c-0.2-0.4-0.2-0.9-0.1-1.4c0-0.2,0-0.2-0.2-0.2c-0.7-0.1-1.4-0.3-1.9-0.6
						c-0.2-0.1-0.2,0-0.2,0.1c-0.2,0.4-0.5,0.8-0.8,1c-0.2,0.1-0.3,0.3-0.5,0.1c-0.2-0.1-0.1-0.4-0.1-0.5c0.1-0.4,0.4-0.8,0.7-1.2
						c0.1-0.1,0.1-0.2,0-0.3c-0.2-0.2-0.4-0.4-0.5-0.6C2.8,9.9,2.9,9.9,3,9.8c0.2-0.1,0.3-0.3,0.5-0.3s0.3,0.2,0.4,0.4
						c1.8,1.9,4.8,1.8,6.4-0.2c0.1-0.2,0.2-0.2,0.4-0.1c0.5,0.3,0.5,0.3,0.1,0.8c-0.1,0.1-0.3,0.2-0.3,0.3c0,0.1,0.2,0.2,0.3,0.3
						c0.3,0.3,0.5,0.6,0.6,1c0,0.1,0,0.2,0,0.3c0,0.2-0.1,0.3-0.4,0.2s-0.5-0.4-0.8-0.6C10,11.8,9.9,11.5,9.7,11.2z"/>
					<path id="Path_2_" class="st0" d="M12,7.4c0.2-0.7,0.5-1.3,0.7-1.9c0.1-0.1,0.1-0.2,0.3-0.2s0.4,0,0.7,0c0.1,0,0.1,0,0.1,0.1
						c0,1.1,0,2.2,0,3.3c0,0.1,0,0.1-0.1,0.1l0,0c-0.2,0-0.5,0.1-0.7,0c-0.2-0.1,0-0.4,0-0.7c0-0.4,0-0.9,0-1.3
						c-0.1,0.2-0.2,0.5-0.3,0.7c-0.1,0.3-0.2,0.5-0.3,0.8c0,0.1-0.1,0.2-0.3,0.2c-0.1,0-0.2,0-0.3-0.2c-0.2-0.5-0.4-1-0.6-1.5
						c0,0.6,0,1.1,0,1.7c0,0.2,0,0.2-0.2,0.2s-0.5,0.1-0.6-0.1c-0.1-0.1,0-0.4,0-0.6c0-0.9,0-1.8,0-2.7c0-0.2,0.1-0.2,0.2-0.2
						c0.3,0,0.6-0.1,0.7,0c0.2,0.1,0.2,0.4,0.3,0.7C11.6,6.5,11.8,6.9,12,7.4z"/>
					<path id="Path_3_" class="st0" d="M3.3,7.1c0,0.5,0,1.1,0,1.6c0,0.2,0,0.2-0.2,0.2c-0.2,0-0.4,0-0.6,0S2.3,8.8,2.3,8.7
						c0-0.4,0-0.7,0-1.1c0-0.1,0-0.2-0.2-0.2c-0.3,0-0.5,0-0.8,0c-0.1,0-0.2,0.1-0.2,0.2c0,0.4,0,0.7,0,1.1c0,0.1,0,0.2-0.2,0.2
						s-0.4,0-0.6,0c-0.1,0-0.2,0-0.2-0.2c0-1.1,0-2.2,0-3.3c0-0.1,0-0.2,0.2-0.2s0.4,0,0.6,0c0.1,0,0.2,0,0.2,0.2c0,0.3,0,0.6,0,1
						c0,0.2,0,0.2,0.2,0.2s0.5,0,0.7,0s0.2,0,0.2-0.2c0-0.3,0-0.6,0-1c0-0.1,0-0.2,0.2-0.2c0.2,0,0.4,0,0.5,0c0.2,0,0.2,0,0.2,0.2
						C3.3,6.1,3.3,6.6,3.3,7.1z"/>
					<path id="Path_4_" class="st0" d="M4.1,7.1c0-0.5,0-1.1,0-1.6c0-0.2,0-0.2,0.2-0.2c0.6,0,1.3,0,1.9,0c0.1,0,0.2,0,0.2,0.2
						c0,0.6,0,0.6-0.6,0.6c-0.2,0-0.4,0-0.6,0C5.1,6.1,5,6.1,5,6.3c0,0.4,0,0.4,0.4,0.4c0.2,0,0.3,0,0.5,0c0.3,0,0.3,0.1,0.3,0.3
						c0,0.5,0,0.5-0.5,0.5c-0.1,0-0.2,0-0.2,0C5,7.5,5,7.5,5,8c0,0.1,0,0.2,0.2,0.2c0.4,0,0.7,0,1.1,0c0.1,0,0.2,0,0.2,0.2
						C6.5,9,6.5,9,5.9,9c-0.5,0-1,0-1.5,0C4.2,9,4.1,9,4.1,8.7C4.1,8.1,4.1,7.6,4.1,7.1z"/>
					<path id="Path_5_" class="st0" d="M7.2,7.1c0-0.5,0-1.1,0-1.6c0-0.2,0-0.3,0.2-0.2c0.2,0,0.5-0.1,0.7,0.1c0.1,0.1,0,0.4,0,0.7
						c0,0.6,0,1.3,0,1.9c0,0.2,0,0.2,0.2,0.2c0.3,0,0.7,0,1,0c0.1,0,0.2,0,0.2,0.2C9.5,9,9.5,9,8.9,9c-0.5,0-1,0-1.5,0
						C7.2,9,7.2,8.9,7.2,8.8C7.2,8.2,7.2,7.7,7.2,7.1z"/>
				</g>
			</g>
		</g>
	</g>
</g>
</svg>
