<?xml version="1.0" encoding="UTF-8"?>
<svg width="14px" height="14px" viewBox="0 0 14 14" version="1.1" xmlns="http://www.w3.org/2000/svg" xmlns:xlink="http://www.w3.org/1999/xlink">
    <!-- Generator: Sketch 59 (86127) - https://sketch.com -->
    <title>HDL/Icon/Standard/Service/prometheus</title>
    <desc>Created with Sketch.</desc>
    <g id="Colors" stroke="none" stroke-width="1" fill="none" fill-rule="evenodd">
        <g id="Service-icons" transform="translate(-123.000000, -1440.000000)" fill="#DA4E31">
            <g id="Prometheus" transform="translate(102.000000, 1422.000000)">
                <g id="HDL/Icon/Standard/Service/prometheus" transform="translate(21.000000, 18.000000)">
                    <g id="Prometheus">
                        <path d="M7,0.1 C3.2,0.1 0.1,3.2 0.1,7 C0.1,10.8 3.2,13.9 7,13.9 C10.8,13.9 13.9,10.8 13.9,7 C13.9,3.2 10.8,0.1 7,0.1 Z M7,13 C5.9,13 5,12.3 5,11.4 L9,11.4 C9,12.3 8.1,13 7,13 Z M10.2,10.8 L3.8,10.8 L3.8,9.7 L10.2,9.7 L10.2,10.8 Z M10.2,9.1 L3.8,9.1 C3.8,9.1 3.8,9.1 3.7,9 C3,8.2 2.9,7.8 2.7,7.4 C2.7,7.4 3.5,7.6 4.1,7.7 C4.1,7.7 4.4,7.8 4.8,7.8 C4.4,7.3 4.2,6.7 4.2,6.1 C4.2,4.7 5.3,3.5 4.9,2.6 C5.3,2.6 5.7,3.4 5.7,4.6 C6.1,4.1 6.3,3.1 6.3,2.5 C6.3,1.9 6.7,1.1 7.1,1.1 C6.7,1.5 7.2,2.1 7.6,3.4 C7.8,3.9 7.7,4.7 7.9,5.2 C7.9,4.1 8,2.5 8.7,2 C8.4,2.7 8.8,3.5 9,4 C9.4,4.7 9.6,5.2 9.6,6.1 C9.6,6.7 9.4,7.3 9,7.8 C9.5,7.7 9.8,7.6 9.8,7.6 L11.3,7.3 C11.2,7.3 11,8.2 10.2,9.1 L10.2,9.1 Z" id="Shape" fill-rule="nonzero"></path>
                    </g>
                </g>
            </g>
        </g>
    </g>
</svg>