<svg enable-background="new 0 0 14 12" viewBox="0 0 14 12" xmlns="http://www.w3.org/2000/svg"><g fill="#2075b7"><path d="m14 11.3c-3.5 0-7 0-10.5 0 2.1-.4 4.2-.7 6.3-1.1 0-.1 0-.1-.1-.1-1.1-1.4-2.2-2.7-3.2-3.9-.1-.1-.1-.2 0-.2.4-1.1.8-2.1 1.1-3.2.2-.5.4-1 .5-1.5 0 0 0-.1.1-.1 1.9 3.4 3.8 6.7 5.8 10.1z"/><path d="m7.7.5c-.2.4-.4.7-.5 1.1-1 2.1-1.9 4.1-2.9 6.2-.3.7-.7 1.4-1 2.2 0 .1-.1.1-.2.1-1 0-1.9 0-2.9 0-.2 0-.2 0-.1-.1 1.1-2 2.3-3.9 3.4-5.9 0-.1.1-.2.2-.3 1.3-1 2.6-2.1 3.9-3.2 0 0 0-.1.1-.1z"/></g></svg>