<?xml version="1.0" encoding="utf-8"?>
<!-- Generator: Adobe Illustrator 20.1.0, SVG Export Plug-In . SVG Version: 6.00 Build 0)  -->
<svg version="1.1" id="Layer_1" xmlns="http://www.w3.org/2000/svg" xmlns:xlink="http://www.w3.org/1999/xlink" x="0px" y="0px"
	 viewBox="0 0 14 14" style="enable-background:new 0 0 14 14;" xml:space="preserve">
<style type="text/css">
	.st0{fill:#80B4A0;}
	.st1{fill:#FEFEFE;}
</style>
<title>HDL/Icon/Standard/Service/servicenow</title>
<desc>Created with Sketch.</desc>
<g id="Colors">
	<g id="Service-icons" transform="translate(-125.000000, -1532.000000)">
		<g id="ServiceNow_1_" transform="translate(104.000000, 1514.000000)">
			<g id="HDL_x2F_Icon_x2F_Standard_x2F_Service_x2F_servicenow" transform="translate(21.000000, 18.000000)">
				<g id="ServiceNow">
					<path id="Path" class="st0" d="M7.5,0.8c0.1,0.1,0.2,0,0.3,0c0.3,0,0.7,0.1,1,0.2C9.2,1.1,9.6,1.3,10,1.5s0.8,0.4,1.1,0.7
						c0.2,0.2,0.5,0.4,0.7,0.6c0.4,0.4,0.8,0.9,1.1,1.4c0.3,0.5,0.6,1.1,0.7,1.7c0.1,0.3,0.1,0.7,0.2,1c0,0.3,0.1,0.6,0,0.9
						c0,0.6-0.1,1.2-0.3,1.7c-0.1,0.5-0.3,0.9-0.5,1.4c-0.2,0.4-0.5,0.8-0.8,1.2c-0.1,0.2-0.3,0.3-0.4,0.5c-0.3,0.3-0.7,0.5-1.2,0.5
						c-0.3,0-0.5-0.2-0.8-0.3c-0.3-0.3-0.7-0.5-1.1-0.6c-0.4-0.1-0.8-0.2-1.2-0.3c-0.3,0-0.6,0-0.9,0c-0.4,0-0.9,0.1-1.3,0.3
						c-0.5,0.2-0.9,0.4-1.2,0.7C3.7,13.2,3,13.3,2.5,13c-0.3-0.2-0.5-0.4-0.7-0.7c-0.2-0.2-0.4-0.5-0.6-0.8c-0.2-0.6-0.4-1-0.6-1.5
						C0.4,9.6,0.3,9.2,0.2,8.8c0-0.4,0-0.8,0-1.3s0.1-1,0.2-1.5S0.7,4.9,1,4.4c0.2-0.5,0.5-0.9,0.9-1.3C2.4,2.5,3.1,2,3.8,1.5
						C4.3,1.3,5,1,5.8,0.9c0.2,0,0.4-0.1,0.6-0.1h0.1H7.5z"/>
					<path id="Path_1_" class="st1" d="M3.6,7.3c0-0.8,0.2-1.4,0.6-2C4.7,4.5,5.5,4,6.4,3.9c0.2,0,0.4-0.1,0.6-0.1
						c0.6,0,1.2,0.2,1.8,0.5c0.3,0.2,0.5,0.3,0.7,0.5c0.4,0.5,0.8,1.1,0.9,1.7c0.1,0.3,0.1,0.7,0.1,1c0,0.7-0.3,1.4-0.7,2
						c-0.5,0.6-1.1,1-1.9,1.2c-0.4,0.1-0.7,0.1-1.1,0.1c-0.6-0.1-1.2-0.3-1.7-0.7c-0.4-0.3-0.7-0.6-0.9-1C3.8,8.6,3.7,8.2,3.7,7.8
						C3.6,7.6,3.6,7.4,3.6,7.3z"/>
				</g>
			</g>
		</g>
	</g>
</g>
</svg>
