<?xml version="1.0" encoding="UTF-8"?>
<svg width="14px" height="14px" viewBox="0 0 14 14" version="1.1" xmlns="http://www.w3.org/2000/svg" xmlns:xlink="http://www.w3.org/1999/xlink">
    <!-- Generator: Sketch 59 (86127) - https://sketch.com -->
    <title>HDL/Icon/Standard/Service/pagerduty</title>
    <desc>Created with Sketch.</desc>
    <g id="Colors" stroke="none" stroke-width="1" fill="none" fill-rule="evenodd">
        <g id="Service-icons" transform="translate(-122.000000, -1347.000000)">
            <g id="Pagerduty" transform="translate(101.000000, 1329.000000)">
                <g id="HDL/Icon/Standard/Service/pagerduty" transform="translate(21.000000, 18.000000)">
                    <g id="Pagerduty">
                        <path d="M14,0.7 C14,4.9 14,9.1 14,13.3 C14,13.4 13.9,13.5 13.9,13.6 C13.7,13.8 13.6,14 13.3,14 C13.3,14 13.3,14 13.3,14 C9.1,14 5,14 0.8,14 C0.8,14 0.8,14 0.8,14 C0.4,14 0.2,13.7 0.1,13.4 C0.1,13.3 0.1,13.2 0.1,13.1 C0.1,9.8 0.1,6.5 0.1,3.1 C0.1,2.3 0.1,1.6 0.1,0.8 C0.1,0.7 0.1,0.5 0.2,0.4 C0.3,0.2 0.4,0.1 0.6,0 C0.5,0 0.6,0 0.7,0 C0.7,0 0.7,0 0.8,0 C5,0 9.1,0 13.3,0 C13.3,0 13.4,0 13.4,0 C13.5,0 13.6,0.1 13.7,0.2 C13.8,0.3 13.9,0.4 14,0.5 C14,0.6 14,0.6 14,0.7 Z" id="Path" fill="#25BF50" fill-rule="nonzero"></path>
                        <path d="M2.4,8.5 C2.4,7.7 2.4,6.9 2.4,6.1 C2.4,5.8 2.5,5.5 2.7,5.2 C2.9,4.9 3.2,4.8 3.6,4.7 C3.7,4.7 3.8,4.7 3.9,4.7 C4.4,4.7 4.9,4.7 5.4,4.7 C5.7,4.7 5.9,4.7 6.2,4.9 C6.5,5 6.7,5.3 6.8,5.7 C6.8,5.8 6.8,5.9 6.8,6.1 C6.8,6.7 6.8,7.3 6.8,8 C6.8,8.3 6.7,8.5 6.6,8.8 C6.4,9.1 6.1,9.3 5.7,9.3 C5.6,9.3 5.5,9.3 5.4,9.3 C4.8,9.3 4.1,9.3 3.5,9.3 C3.5,9.3 3.4,9.3 3.4,9.4 C3.4,9.9 3.4,10.5 3.4,11 C3.4,11 3.4,11.1 3.3,11.1 C3,11.1 2.7,11.1 2.4,11.1 C2.4,11.1 2.3,11.1 2.3,11 C2.4,10.2 2.4,9.3 2.4,8.5 Z" id="Path" fill="#FEFEFE" fill-rule="nonzero"></path>
                        <path d="M11.6,5.6 C11.6,6.4 11.6,7.2 11.6,8 C11.6,8.2 11.6,8.4 11.5,8.6 C11.3,9 11,9.3 10.5,9.4 C10.4,9.4 10.3,9.4 10.2,9.4 C9.7,9.4 9.2,9.4 8.7,9.4 C8.5,9.4 8.3,9.4 8,9.3 C7.6,9.1 7.3,8.8 7.2,8.3 C7.2,8.2 7.2,8.1 7.2,8 C7.2,7.4 7.2,6.8 7.2,6.2 C7.2,6 7.2,5.8 7.3,5.6 C7.5,5.2 7.8,5 8.3,4.9 C8.4,4.9 8.5,4.9 8.6,4.9 C9.2,4.9 9.9,4.9 10.5,4.9 C10.6,4.9 10.6,4.9 10.6,4.8 C10.6,4.3 10.6,3.8 10.6,3.2 C10.6,3.1 10.6,3.1 10.7,3.1 C11,3.1 11.3,3.1 11.6,3.1 C11.7,3.1 11.7,3.1 11.7,3.2 C11.6,3.9 11.6,4.7 11.6,5.6 Z" id="Path" fill="#FEFEFE" fill-rule="nonzero"></path>
                        <path d="M3.4,7.1 C3.4,6.7 3.4,6.4 3.4,6 C3.4,5.9 3.4,5.9 3.4,5.8 C3.4,5.7 3.5,5.6 3.7,5.5 C3.7,5.5 3.8,5.5 3.9,5.5 C4.4,5.5 4.9,5.5 5.4,5.5 C5.5,5.5 5.5,5.5 5.6,5.5 C5.7,5.5 5.8,5.6 5.8,5.7 C5.8,5.8 5.8,5.8 5.8,5.9 C5.8,6.5 5.8,7.2 5.8,7.8 C5.8,7.8 5.8,7.9 5.8,7.9 C5.8,8.1 5.7,8.2 5.5,8.2 C5.5,8.2 5.5,8.2 5.4,8.2 C4.8,8.2 4.1,8.2 3.5,8.2 C3.4,8.2 3.4,8.2 3.4,8.1 C3.4,7.9 3.4,7.5 3.4,7.1 Z" id="Path" fill="#25C051" fill-rule="nonzero"></path>
                        <path d="M10.6,6.9 C10.6,7.3 10.6,7.6 10.6,8 C10.6,8.3 10.5,8.4 10.2,8.4 C9.7,8.4 9.2,8.4 8.7,8.4 C8.6,8.4 8.6,8.4 8.5,8.4 C8.4,8.4 8.3,8.3 8.3,8.2 C8.3,8.1 8.3,8.1 8.3,8 C8.3,7.4 8.3,6.7 8.3,6.1 C8.3,6.1 8.3,6 8.3,6 C8.3,5.8 8.4,5.7 8.6,5.7 C8.6,5.7 8.7,5.7 8.7,5.7 C9.3,5.7 10,5.7 10.6,5.7 C10.7,5.7 10.7,5.7 10.7,5.8 C10.6,6.1 10.6,6.5 10.6,6.9 Z" id="Path" fill="#25C051" fill-rule="nonzero"></path>
                    </g>
                </g>
            </g>
        </g>
    </g>
</svg>