<svg enable-background="new 0 0 12 14" viewBox="0 0 12 14" xmlns="http://www.w3.org/2000/svg" xmlns:xlink="http://www.w3.org/1999/xlink"><linearGradient id="a"><stop offset="0" stop-color="#0052cc"/><stop offset="1" stop-color="#2684ff"/></linearGradient><linearGradient id="b" gradientTransform="matrix(5.9 0 0 -6 1465.2001 2043.8998)" gradientUnits="userSpaceOnUse" x1="-247.822" x2="-247.822" xlink:href="#a" y1="340.3031" y2="338.9458"/><linearGradient id="c" gradientTransform="matrix(6 0 0 -6 1495 2038)" gradientUnits="userSpaceOnUse" x1="-248.6667" x2="-248.6667" xlink:href="#a" y1="339.3198" y2="337.9624"/><path d="m11.6 7.9h-2.9c-.2 0-.3.1-.4.3-.2 1.2-1.2 2-2.3 2l.8 3.6c2.8-.4 5-2.7 5.2-5.5 0-.2-.2-.3-.4-.4z" fill="#2684ff"/><path d="m6.6 7.9 4.1-3.6c.2-.1.2-.4 0-.5l-4.1-3.6c-.1-.2-.4-.1-.5 0s-.1.2-.1.3v7.1c0 .2.2.4.4.4.1-.1.2-.1.2-.1z" fill="#2684ff"/><path d="m.1 8.7c.4 3 2.9 5.2 5.9 5.2v-3.6c-1.3 0-2.4-1.1-2.4-2.4z" fill="url(#b)"/><path d="m0 7.9 3.6.1c0-1.3 1.1-2.4 2.4-2.4l-.8-3.6c-2.9.4-5.1 2.9-5.2 5.9" fill="url(#c)"/></svg>