<?xml version="1.0" encoding="UTF-8"?>
<svg width="14px" height="10px" viewBox="0 0 14 10" version="1.1" xmlns="http://www.w3.org/2000/svg" xmlns:xlink="http://www.w3.org/1999/xlink">
    <!-- Generator: Sketch 59 (86127) - https://sketch.com -->
    <title>HDL/Icon/Standard/Service/dockerhub</title>
    <desc>Created with Sketch.</desc>
    <g id="Colors" stroke="none" stroke-width="1" fill="none" fill-rule="evenodd">
        <g id="Service-icons" transform="translate(-121.000000, -692.000000)" fill="#000000">
            <g id="Dockerhub" transform="translate(101.000000, 682.000000)">
                <g id="HDL/Icon/Standard/Service/dockerhub" transform="translate(20.000000, 10.000000)">
                    <g id="DockerHub">
                        <polygon id="Path" fill-rule="nonzero" points="5.8 3.3 7.1 3.3 7.1 4.6 5.8 4.6"></polygon>
                        <polygon id="Path" fill-rule="nonzero" points="7.2 3.3 8.5 3.3 8.5 4.6 7.2 4.6"></polygon>
                        <polygon id="Path" fill-rule="nonzero" points="4.3 3.3 5.6 3.3 5.6 4.6 4.3 4.6"></polygon>
                        <polygon id="Path" fill-rule="nonzero" points="2.9 3.3 4.2 3.3 4.2 4.6 2.9 4.6"></polygon>
                        <polygon id="Path" fill-rule="nonzero" points="1.4 3.3 2.7 3.3 2.7 4.6 1.4 4.6"></polygon>
                        <polygon id="Path" fill-rule="nonzero" points="5.8 1.9 7.1 1.9 7.1 3.2 5.8 3.2"></polygon>
                        <polygon id="Path" fill-rule="nonzero" points="5.8 0.4 7.1 0.4 7.1 1.7 5.8 1.7"></polygon>
                        <polygon id="Path" fill-rule="nonzero" points="4.3 1.9 5.6 1.9 5.6 3.2 4.3 3.2"></polygon>
                        <polygon id="Path" fill-rule="nonzero" points="2.9 1.9 4.2 1.9 4.2 3.2 2.9 3.2"></polygon>
                        <path d="M0.8,7.7 L0.8,7.7 C0.7,7.5 0.6,7.4 0.5,7.3 L0.4,7.1 C0.4,7 0.3,6.9 0.3,6.7 L0.3,6.7 C0.3,6.7 0.3,6.7 0.3,6.6 C0.3,6.6 0.3,6.5 0.3,6.5 C0.1,6.1 0,5.7 0,5.2 C0,5.1 0,5 0,4.9 L0,4.8 L9.5,4.8 C10.2,4.8 10.9,4.6 11.2,4.3 C11,4.1 10.8,3.7 10.8,3.3 C10.8,2.8 10.9,2.3 11.1,2 L11.2,1.9 L11.3,2 C11.6,2.2 12.2,2.8 12.2,3.6 C12.5,3.5 12.7,3.5 13,3.5 C13.4,3.5 13.7,3.6 13.9,3.7 L14,3.7 L14,3.8 C13.7,4.4 13,4.7 12.2,4.7 C12.1,4.7 12,4.7 11.9,4.7 C10.7,7.7 8.2,9.3 4.6,9.3 C4,9.3 3.4,9.2 2.8,9 C2.1,8.8 1.5,8.4 1,7.9 L0.8,7.7 L0.8,7.7 Z M5.2,9.1 C4.3,8.7 3.9,8.2 3.6,7.6 C3.2,7.7 2.9,7.7 2.4,7.8 C2.2,7.8 2.1,7.8 1.9,7.8 L1.2,7.8 C2,8.6 3,9.1 4.8,9.1 C4.9,9.1 5.1,9.1 5.2,9.1 Z M4.2,6.7 C4,6.7 3.9,6.9 3.9,7 C3.9,7.2 4.1,7.3 4.2,7.3 C4.4,7.3 4.5,7.1 4.5,7 C4.5,6.9 4.4,6.7 4.2,6.7 L4.2,6.7 Z" id="Shape" fill-rule="nonzero"></path>
                        <path d="M4.2,6.8 C4.2,6.8 4.3,6.8 4.2,6.8 C4.3,6.8 4.3,6.9 4.2,6.8 C4.3,7 4.3,7 4.4,7 C4.4,7 4.5,7 4.5,6.9 C4.5,6.9 4.5,7 4.5,7 C4.5,7.1 4.4,7.3 4.2,7.3 C4,7.3 4,7.2 4,7 C4,6.9 4.1,6.8 4.2,6.8" id="Path" fill-rule="nonzero"></path>
                    </g>
                </g>
            </g>
        </g>
    </g>
</svg>