<svg viewBox="0 0 14 14" xmlns="http://www.w3.org/2000/svg"><g fill="#e01e5a"><path d="M3 8.8c0 .8-.7 1.5-1.5 1.5S0 9.6 0 8.8s.7-1.4 1.5-1.4H3zM3.7 8.8c0-.8.7-1.5 1.5-1.5s1.4.7 1.4 1.5v3.7c0 .8-.6 1.5-1.4 1.5s-1.5-.7-1.5-1.5z"/></g><g fill="#36c5f0"><path d="M5.2 3c-.8 0-1.5-.7-1.5-1.5S4.4 0 5.2 0s1.5.7 1.5 1.5V3zM5.2 3.7c.8 0 1.5.7 1.5 1.5S6 6.6 5.2 6.6H1.5C.7 6.6 0 6 0 5.2s.7-1.5 1.5-1.5z"/></g><g fill="#2eb67d"><path d="M11 5.2c0-.8.7-1.5 1.5-1.5s1.5.7 1.5 1.5-.7 1.5-1.5 1.5H11zM10.3 5.2c0 .8-.7 1.5-1.5 1.5C8 6.6 7.4 6 7.4 5.2V1.5C7.4.7 8 0 8.8 0s1.5.7 1.5 1.5z"/></g><g fill="#ecb22e"><path d="M8.8 11c.8 0 1.5.7 1.5 1.5S9.6 14 8.8 14s-1.5-.7-1.5-1.5V11zM8.8 10.3c-.8 0-1.5-.7-1.5-1.5.1-.8.7-1.4 1.5-1.4h3.7c.8 0 1.5.6 1.5 1.4s-.7 1.5-1.5 1.5z"/></g></svg>