<?xml version="1.0" encoding="UTF-8"?>
<svg width="14px" height="14px" viewBox="0 0 14 14" version="1.1" xmlns="http://www.w3.org/2000/svg" xmlns:xlink="http://www.w3.org/1999/xlink">
    <!-- Generator: Sketch 59 (86127) - https://sketch.com -->
    <title>HDL/Icon/Standard/Service/servicenow</title>
    <desc>Created with Sketch.</desc>
    <g id="Colors" stroke="none" stroke-width="1" fill="none" fill-rule="evenodd">
        <g id="Service-icons" transform="translate(-125.000000, -1532.000000)">
            <g id="ServiceNow" transform="translate(104.000000, 1514.000000)">
                <g id="HDL/Icon/Standard/Service/servicenow" transform="translate(21.000000, 18.000000)">
                    <g id="ServiceNow">
                        <path d="M7.5,0.8 C7.6,0.9 7.7,0.8 7.8,0.8 C8.1,0.8 8.5,0.9 8.8,1 C9.2,1.1 9.6,1.3 10,1.5 C10.4,1.7 10.8,1.9 11.1,2.2 C11.3,2.4 11.6,2.6 11.8,2.8 C12.2,3.2 12.6,3.7 12.9,4.2 C13.2,4.7 13.5,5.3 13.6,5.9 C13.7,6.2 13.7,6.6 13.8,6.9 C13.8,7.2 13.9,7.5 13.8,7.8 C13.8,8.4 13.7,9 13.5,9.5 C13.4,10 13.2,10.4 13,10.9 C12.8,11.3 12.5,11.7 12.2,12.1 C12.1,12.3 11.9,12.4 11.8,12.6 C11.5,12.9 11.1,13.1 10.6,13.1 C10.3,13.1 10.1,12.9 9.8,12.8 C9.5,12.5 9.1,12.3 8.7,12.2 C8.3,12.1 7.9,12 7.5,11.9 C7.2,11.9 6.9,11.9 6.6,11.9 C6.2,11.9 5.7,12 5.3,12.2 C4.8,12.4 4.4,12.6 4.1,12.9 C3.7,13.2 3,13.3 2.5,13 C2.2,12.8 2,12.6 1.8,12.3 C1.6,12.1 1.4,11.8 1.2,11.5 C1,10.9 0.8,10.5 0.6,10 C0.4,9.6 0.3,9.2 0.2,8.8 C0.2,8.4 0.2,8 0.2,7.5 C0.2,7 0.3,6.5 0.4,6 C0.5,5.5 0.7,4.9 1,4.4 C1.2,3.9 1.5,3.5 1.9,3.1 C2.4,2.5 3.1,2 3.8,1.5 C4.3,1.3 5,1 5.8,0.9 C6,0.9 6.2,0.8 6.4,0.8 L6.5,0.8 L7.5,0.8 Z" id="Path" fill="#80B4A0" fill-rule="nonzero"></path>
                        <path d="M3.6,7.3 C3.6,6.5 3.8,5.9 4.2,5.3 C4.7,4.5 5.5,4 6.4,3.9 C6.6,3.9 6.8,3.8 7,3.8 C7.6,3.8 8.2,4 8.8,4.3 C9.1,4.5 9.3,4.6 9.5,4.8 C9.9,5.3 10.3,5.9 10.4,6.5 C10.5,6.8 10.5,7.2 10.5,7.5 C10.5,8.2 10.2,8.9 9.8,9.5 C9.3,10.1 8.7,10.5 7.9,10.7 C7.5,10.8 7.2,10.8 6.8,10.8 C6.2,10.7 5.6,10.5 5.1,10.1 C4.7,9.8 4.4,9.5 4.2,9.1 C3.8,8.6 3.7,8.2 3.7,7.8 C3.6,7.6 3.6,7.4 3.6,7.3 Z" id="Path" fill="#FEFEFE" fill-rule="nonzero"></path>
                    </g>
                </g>
            </g>
        </g>
    </g>
</svg>