<?xml version="1.0" encoding="utf-8"?>
<!-- Generator: Adobe Illustrator 20.1.0, SVG Export Plug-In . SVG Version: 6.00 Build 0)  -->
<svg version="1.1" id="Layer_1" xmlns="http://www.w3.org/2000/svg" xmlns:xlink="http://www.w3.org/1999/xlink" x="0px" y="0px"
	 viewBox="0 0 12 14" style="enable-background:new 0 0 12 14;" xml:space="preserve">
<style type="text/css">
	.st0{fill:#8C3123;}
	.st1{fill:#E05243;}
	.st2{fill:#5E1F18;}
	.st3{fill:#F2B0A9;}
</style>
<title>HDL/Icon/Standard/Service/s3</title>
<desc>Created with Sketch.</desc>
<g id="Colors">
	<g id="Service-icons" transform="translate(-123.000000, -1486.000000)">
		<g id="S3_1_" transform="translate(104.000000, 1468.000000)">
			<g id="HDL_x2F_Icon_x2F_Standard_x2F_Service_x2F_s3" transform="translate(19.000000, 18.000000)">
				<g id="S3">
					<polyline id="Path" class="st0" points="1.2,2.5 0.3,3 0.3,11 1.2,11.5 1.2,11.5 1.2,2.5 1.2,2.5 					"/>
					<polyline id="Path_1_" class="st1" points="6.1,10.3 1.2,11.5 1.2,2.5 6.1,3.6 6.1,10.3 					"/>
					<polyline id="Path_2_" class="st0" points="3.9,8.5 6,8.7 6,8.7 6,5.3 6,5.3 3.9,5.5 3.9,8.5 					"/>
					<polyline id="Path_3_" class="st0" points="6,10.3 10.8,11.5 10.8,11.5 10.8,2.6 10.8,2.6 6,3.7 6,10.3 					"/>
					<polyline id="Path_4_" class="st1" points="8.1,8.5 6,8.7 6,5.3 8.1,5.6 8.1,8.5 					"/>
					<polyline id="Path_5_" class="st2" points="8.1,4.1 6,4.5 3.9,4.1 6,3.6 8.1,4.1 					"/>
					<polyline id="Path_6_" class="st3" points="8.1,9.9 6,9.5 3.9,9.9 6,10.5 8.1,9.9 					"/>
					<polyline id="Path_7_" class="st0" points="3.9,4.1 6,3.6 6,3.6 6,0.1 6,0.1 3.9,1.1 3.9,4.1 					"/>
					<polyline id="Path_8_" class="st1" points="8.1,4.1 6,3.6 6,0.1 8.1,1.1 8.1,4.1 					"/>
					<polyline id="Path_9_" class="st0" points="6,13.9 3.9,12.9 3.9,9.9 6,10.4 6,10.4 6,13.9 6,13.9 					"/>
					<path id="Shape" class="st1" d="M6,13.9l2.1-1v-3L6,10.4V13.9 M10.8,2.5L11.7,3v8l-0.9,0.5V2.5"/>
				</g>
			</g>
		</g>
	</g>
</g>
</svg>
