<?xml version="1.0" encoding="UTF-8"?>
<svg width="14px" height="14px" viewBox="0 0 14 14" version="1.1" xmlns="http://www.w3.org/2000/svg" xmlns:xlink="http://www.w3.org/1999/xlink">
    <!-- Generator: Sketch 59 (86127) - https://sketch.com -->
    <title>HDL/Icon/Standard/Service/ecs</title>
    <desc>Created with Sketch.</desc>
    <g id="Colors" stroke="none" stroke-width="1" fill="none" fill-rule="evenodd">
        <g id="Service-icons" transform="translate(-122.000000, -783.000000)">
            <g id="ECS" transform="translate(101.000000, 765.000000)">
                <g id="HDL/Icon/Standard/Service/ecs" transform="translate(21.000000, 18.000000)">
                    <g id="ECS-Copy">
                        <polygon id="Path" fill="#9D5025" fill-rule="nonzero" points="0.760282482 12.9756098 0 12.5743519 0 1.25491642 0.760282482 0.853658537 3.75609756 6.6793286"></polygon>
                        <polygon id="Path" fill="#9D5025" fill-rule="nonzero" points="3.07317073 10.9533507 4.16543383 12.6341463 9.04878049 10.2720815 7.90753699 10.0731707"></polygon>
                        <polygon id="Path" fill="#9D5025" fill-rule="nonzero" points="2.2195122 2.93129509 3.42063978 1.19512195 9.04878049 3.74888355 7.96041182 3.92682927"></polygon>
                        <polygon id="Path" fill="#F58536" fill-rule="nonzero" points="2.56097561 1.29454683 0.853658537 0.853658537 0.853658537 12.9756098 2.56097561 12.5495829 2.56097561 1.29454683"></polygon>
                        <polygon id="Path" fill="#9D5025" fill-rule="nonzero" points="1.70731707 13.5090329 2.59454645 14 4.26829268 6.21395678 2.59454645 0 1.70731707 0.490967056"></polygon>
                        <polygon id="Path" fill="#9D5025" fill-rule="nonzero" points="7.85365854 3.95003552 9.01295732 3.75609756 10.0731707 6.93369642 9.01295732 10.4146341 7.85365854 10.2157234"></polygon>
                        <polygon id="Path" fill="#F58536" fill-rule="nonzero" points="4.26829268 0.540368272 2.56097561 0 2.56097561 14 4.26829268 13.4596317"></polygon>
                        <polygon id="Path" fill="#F58536" fill-rule="nonzero" points="10.2439024 3.92682927 2.56097561 2.38273686 2.56097561 0 10.2439024 2.34820444"></polygon>
                        <polygon id="Path" fill="#F58536" fill-rule="nonzero" points="10.4146341 10.0731707 2.56097561 11.6707781 2.56097561 14 10.4146341 11.6160314"></polygon>
                        <polygon id="Path" fill="#F58536" fill-rule="nonzero" points="9.04878049 11.9512195 10.2439024 11.5831903 10.2439024 2.41190263 9.04878049 2.04878049"></polygon>
                        <polygon id="Path" fill="#6B3A19" fill-rule="nonzero" points="14 8.20129974 10.7191927 8.02439024 9.56097561 8.11537227 12.8805517 11.097561"></polygon>
                        <polygon id="Path" fill="#9D5025" fill-rule="nonzero" points="9.3902439 8.19512195 12.804878 8.39681687 12.804878 11.097561 9.3902439 10.5170732"></polygon>
                        <polygon id="Path" fill="#6B3A19" fill-rule="nonzero" points="6.31707317 8.31174076 9.71048827 11.9512195 11.4390244 8.43321869 7.91829501 8.19512195"></polygon>
                        <polygon id="Path" fill="#9D5025" fill-rule="nonzero" points="6.31707317 8.36585366 9.73170732 8.6817871 9.73170732 12.1219512 6.31707317 11.2493731"></polygon>
                        <polygon id="Path" fill="#9D5025" fill-rule="nonzero" points="9.56097561 5.80487805 14 5.72138996 12.8805517 2.90243902 9.56097561 3.48685568"></polygon>
                        <polygon id="Path" fill="#9D5025" fill-rule="nonzero" points="6.31707317 5.63414634 11.4390244 5.50376111 9.71048827 1.87804878 6.31707317 2.75062685"></polygon>
                        <polygon id="Path" fill="#FBBF93" fill-rule="nonzero" points="6.31707317 5.66947014 9.71048827 5.29268293 11.4390244 5.51640034 7.91829501 5.80487805"></polygon>
                        <polygon id="Path" fill="#FBBF93" fill-rule="nonzero" points="14 5.77883423 10.7191927 5.97560976 9.56097561 5.87722199 12.8805517 5.63414634"></polygon>
                        <polygon id="Path" fill="#F58536" fill-rule="nonzero" points="12.8100294 8.31647829 14 8.19512195 14 10.7233789 12.804878 11.097561 12.804878 8.31647829"></polygon>
                        <polygon id="Path" fill="#F58536" fill-rule="nonzero" points="11.4341878 8.53658537 9.73170732 8.72476755 9.73170732 12.1219512 11.4390244 11.5623568 11.4390244 8.53658537"></polygon>
                        <polygon id="Path" fill="#F58536" fill-rule="nonzero" points="12.804878 5.6784652 14 5.80487805 14 3.27662106 12.804878 2.90243902 12.804878 5.6784652"></polygon>
                        <polygon id="Path" fill="#F58536" fill-rule="nonzero" points="11.4390244 5.46341463 9.73170732 5.27497217 9.73170732 1.87804878 11.4390244 2.43841716"></polygon>
                    </g>
                </g>
            </g>
        </g>
    </g>
</svg>