<?xml version="1.0" encoding="utf-8"?>
<!-- Generator: Adobe Illustrator 20.1.0, SVG Export Plug-In . SVG Version: 6.00 Build 0)  -->
<svg version="1.1" id="Layer_1" xmlns="http://www.w3.org/2000/svg" xmlns:xlink="http://www.w3.org/1999/xlink" x="0px" y="0px"
	 viewBox="0 0 12 14" style="enable-background:new 0 0 12 14;" xml:space="preserve">
<style type="text/css">
	.st0{fill:#B7CA9D;}
	.st1{fill:#4B612C;}
	.st2{fill:#759C3E;}
</style>
<title>HDL/Icon/Standard/Service/cloudwatch</title>
<desc>Created with Sketch.</desc>
<g id="Colors">
	<g id="Service-icons" transform="translate(-119.000000, -594.000000)">
		<g id="Cloudwatch_1_" transform="translate(100.000000, 572.000000)">
			<g id="HDL_x2F_Icon_x2F_Standard_x2F_Service_x2F_cloudwatch" transform="translate(19.000000, 22.000000)">
				<g id="Cloudwatch">
					<polygon id="Path" class="st0" points="12,9.6 6,8.7 0,9.6 6,11.8 					"/>
					<polygon id="Path_1_" class="st1" points="1.2,9.5 2.2,9.8 2.3,9.7 2.3,2.5 2.2,2.4 1.2,2.8 					"/>
					<polygon id="Path_2_" class="st2" points="5.8,9.2 2.2,9.8 2.2,2.4 5.8,3.2 					"/>
					<polygon id="Path_3_" class="st1" points="4.2,10.4 2.8,10 2.8,0.9 4.2,0.2 4.3,0.3 4.3,10.3 					"/>
					<polygon id="Path_4_" class="st2" points="9,9.3 4.2,10.4 4.2,0.2 9,2 					"/>
					<polygon id="Path_5_" class="st1" points="6,11.7 0,9.6 0,10.8 6,13.8 					"/>
					<polygon id="Path_6_" class="st2" points="12,10.8 6,13.8 6,11.7 12,9.6 					"/>
					<polygon id="Path_7_" class="st0" points="10.3,7.5 8.9,7.5 4.7,7.8 6,8 					"/>
					<polygon id="Path_8_" class="st1" points="4.7,10.5 6,10.9 6,8 4.7,7.8 					"/>
					<polygon id="Path_9_" class="st2" points="10.3,7.5 6,7.9 6,10.9 10.3,9.6 					"/>
				</g>
			</g>
		</g>
	</g>
</g>
</svg>
