<?xml version="1.0" encoding="UTF-8"?>
<svg width="14px" height="14px" viewBox="0 0 14 14" version="1.1" xmlns="http://www.w3.org/2000/svg" xmlns:xlink="http://www.w3.org/1999/xlink">
    <!-- Generator: Sketch 59 (86127) - https://sketch.com -->
    <title>HDL/Icon/Standard/Service/slack</title>
    <desc>Created with Sketch.</desc>
    <g id="Colors" stroke="none" stroke-width="1" fill="none" fill-rule="evenodd">
        <g id="Service-icons" transform="translate(-125.000000, -1579.000000)">
            <g id="Slack" transform="translate(104.000000, 1561.000000)">
                <g id="HDL/Icon/Standard/Service/slack" transform="translate(21.000000, 18.000000)">
                    <g id="Slack">
                        <g id="Group" transform="translate(0.000000, 7.000000)" fill="#E01E5A" fill-rule="nonzero">
                            <path d="M3,1.8 C3,2.6 2.3,3.3 1.5,3.3 C0.7,3.3 0,2.6 0,1.8 C0,1 0.7,0.4 1.5,0.4 L3,0.4 L3,1.8 Z" id="Path"></path>
                            <path d="M3.7,1.8 C3.7,1 4.4,0.3 5.2,0.3 C6,0.3 6.6,1 6.6,1.8 L6.6,5.5 C6.6,6.3 6,7 5.2,7 C4.4,7 3.7,6.3 3.7,5.5 C3.7,5.5 3.7,1.8 3.7,1.8 Z" id="Path"></path>
                        </g>
                        <g id="Group" fill="#36C5F0" fill-rule="nonzero">
                            <path d="M5.2,3 C4.4,3 3.7,2.3 3.7,1.5 C3.7,0.7 4.4,0 5.2,0 C6,0 6.7,0.7 6.7,1.5 L6.7,3 L5.2,3 Z" id="Path"></path>
                            <path d="M5.2,3.7 C6,3.7 6.7,4.4 6.7,5.2 C6.7,6 6,6.6 5.2,6.6 L1.5,6.6 C0.7,6.6 0,6 0,5.2 C0,4.4 0.7,3.7 1.5,3.7 C1.5,3.7 5.2,3.7 5.2,3.7 Z" id="Path"></path>
                        </g>
                        <g id="Group" transform="translate(7.000000, 0.000000)" fill="#2EB67D" fill-rule="nonzero">
                            <path d="M4,5.2 C4,4.4 4.7,3.7 5.5,3.7 C6.3,3.7 7,4.4 7,5.2 C7,6 6.3,6.7 5.5,6.7 L4,6.7 L4,5.2 Z" id="Path"></path>
                            <path d="M3.3,5.2 C3.3,6 2.6,6.7 1.8,6.7 C1,6.6 0.4,6 0.4,5.2 L0.4,1.5 C0.4,0.7 1,0 1.8,0 C2.6,0 3.3,0.7 3.3,1.5 L3.3,5.2 Z" id="Path"></path>
                        </g>
                        <g id="Group" transform="translate(7.000000, 7.000000)" fill="#ECB22E" fill-rule="nonzero">
                            <path d="M1.8,4 C2.6,4 3.3,4.7 3.3,5.5 C3.3,6.3 2.6,7 1.8,7 C1,7 0.3,6.3 0.3,5.5 L0.3,4 L1.8,4 Z" id="Path"></path>
                            <path d="M1.8,3.3 C1,3.3 0.3,2.6 0.3,1.8 C0.4,1 1,0.4 1.8,0.4 L5.5,0.4 C6.3,0.4 7,1 7,1.8 C7,2.6 6.3,3.3 5.5,3.3 L1.8,3.3 Z" id="Path"></path>
                        </g>
                    </g>
                </g>
            </g>
        </g>
    </g>
</svg>