<svg viewBox="0 0 12 14" xmlns="http://www.w3.org/2000/svg"><path d="M12 9.6l-6-.9-6 .9 6 2.2z" fill="#b7ca9d"/><path d="M1.2 9.5l1 .3.1-.1V2.5l-.1-.1-1 .4z" fill="#4b612c"/><path d="M5.8 9.2l-3.6.6V2.4l3.6.8z" fill="#759c3e"/><path d="M4.2 10.4L2.8 10V.9L4.2.2l.1.1v10z" fill="#4b612c"/><path d="M9 9.3l-4.8 1.1V.2L9 2z" fill="#759c3e"/><path d="M6 11.7L0 9.6v1.2l6 3z" fill="#4b612c"/><path d="M12 10.8l-6 3v-2.1l6-2.1z" fill="#759c3e"/><path d="M10.3 7.5H8.9l-4.2.3L6 8z" fill="#b7ca9d"/><path d="M4.7 10.5l1.3.4V8l-1.3-.2z" fill="#4b612c"/><path d="M10.3 7.5L6 7.9v3l4.3-1.3z" fill="#759c3e"/></svg>