<svg enable-background="new 0 0 12 14" viewBox="0 0 12 14" xmlns="http://www.w3.org/2000/svg"><path d="m12 9.6-6-.9-6 .9 6 2.2z" fill="#b7ca9d"/><path d="m1.2 9.5 1 .3.1-.1v-7.2l-.1-.1-1 .4z" fill="#4b612c"/><path d="m5.8 9.2-3.6.6v-7.4l3.6.8z" fill="#759c3e"/><path d="m4.2 10.4-1.4-.4v-9.1l1.4-.7.1.1v10z" fill="#4b612c"/><path d="m9 9.3-4.8 1.1v-10.2l4.8 1.8z" fill="#759c3e"/><path d="m6 11.7-6-2.1v1.2l6 3z" fill="#4b612c"/><path d="m12 10.8-6 3v-2.1l6-2.1z" fill="#759c3e"/><path d="m10.3 7.5h-1.4l-4.2.3 1.3.2z" fill="#b7ca9d"/><path d="m4.7 10.5 1.3.4v-2.9l-1.3-.2z" fill="#4b612c"/><path d="m10.3 7.5-4.3.4v3l4.3-1.3z" fill="#759c3e"/></svg>