<?xml version="1.0" encoding="utf-8"?>
<!-- Generator: Adobe Illustrator 20.1.0, SVG Export Plug-In . SVG Version: 6.00 Build 0)  -->
<svg version="1.1" id="Layer_1" xmlns="http://www.w3.org/2000/svg" xmlns:xlink="http://www.w3.org/1999/xlink" x="0px" y="0px"
	 viewBox="0 0 14 14" style="enable-background:new 0 0 14 14;" xml:space="preserve">
<style type="text/css">
	.st0{fill:#2684FF;}
	.st1{fill:url(#Path_2_);}
	.st2{fill:url(#Path_3_);}
</style>
<title>HDL/Icon/Standard/Service/jira</title>
<desc>Created with Sketch.</desc>
<g id="Colors">
	<g id="Service-icons" transform="translate(-122.000000, -1065.000000)">
		<g id="Jira_1_" transform="translate(101.000000, 1047.000000)">
			<g id="HDL_x2F_Icon_x2F_Standard_x2F_Service_x2F_jira" transform="translate(21.000000, 18.000000)">
				<g id="Jira">
					<path id="Shape" class="st0" d="M13.6,6.6l-6-6L7,0L2.5,4.5L0.4,6.6c-0.2,0.2-0.2,0.6,0,0.8l4.1,4.1L7,14l4.5-4.5l0.1-0.1l2-2
						C13.8,7.2,13.8,6.8,13.6,6.6z M7,9.1L4.9,7L7,4.9L9.1,7L7,9.1z"/>
					
						<linearGradient id="Path_2_" gradientUnits="userSpaceOnUse" x1="-231.1062" y1="348.167" x2="-231.3716" y2="347.7541" gradientTransform="matrix(4.5 0 0 -7 1045.5 2440)">
						<stop  offset="0.18" style="stop-color:#0052CC"/>
						<stop  offset="1" style="stop-color:#2684FF"/>
					</linearGradient>
					<path id="Path" class="st1" d="M7,4.9C5.6,3.6,5.6,1.4,7,0L2.5,4.5L4.9,7L7,4.9z"/>
					
						<linearGradient id="Path_3_" gradientUnits="userSpaceOnUse" x1="-231.4471" y1="347.9795" x2="-231.1822" y2="348.3915" gradientTransform="matrix(4.5 0 0 -7 1050 2447)">
						<stop  offset="0.18" style="stop-color:#0052CC"/>
						<stop  offset="1" style="stop-color:#2684FF"/>
					</linearGradient>
					<path id="Path_1_" class="st2" d="M9.1,7L7,9.1c1.4,1.4,1.4,3.6,0,4.9l4.5-4.5L9.1,7z"/>
				</g>
			</g>
		</g>
	</g>
</g>
</svg>
