<svg clip-rule="evenodd" fill-rule="evenodd" stroke-linejoin="round" stroke-miterlimit="1.41421" viewBox="0 0 220 220" xmlns="http://www.w3.org/2000/svg"><circle cx="116.875" cy="41.25" fill="#7b83eb" r="32.085999"/><path d="m114.58599854 48.125h-29.05400085l.14399999.639.014.055.14399999.59200001c4.36199999 16.5340004 21.20299911 26.83399963 37.9090004 23.18199921v-15.3039999c-.015-5.02099991-4.1420002-9.14900017-9.16399956-9.16399956z" fill-opacity=".098039" fill-rule="nonzero"/><path d="m107.71099854 55h-19.82799911c5.30200005 11.18000031 16.61800003 18.33600044 28.99200058 18.33600044v-9.16499996c-.015-5.02199984-4.14300013-9.14900017-9.16399956-9.16399956z" fill-opacity=".2" fill-rule="nonzero"/><circle cx="189.062988" cy="51.563004" fill="#5059c9" r="24.063"/><g fill-rule="nonzero"><path d="m209.68798828 82.5h-54.04499817c-2.41000009 0-4.39300013 1.98300004-4.39300013 4.39300013v55.75600052c-.31 16.56999969 11.11999989 31.22500038 27.26600075 34.95999908 2.32500005.48800001 4.69299984.73300004 7.06799984.73300004 18.87199974 0 34.40399933-15.52099991 34.41600037-34.39300156v-51.13700104c0-5.65700006-4.65500021-10.31200027-10.31200027-10.31200027z" fill="#5059c9"/><path d="m171.875 92.81300354v65.34300232c0 30.15299988-24.81200027 54.96500015-54.9659996 54.96500015-19.61800003 0-37.80400085-10.50300026-47.60900116-27.49600029-1.32299995-2.19899988-2.47200012-4.49800014-3.43799996-6.875-.90000004-2.2420001-1.65700006-4.53800011-2.26799989-6.875-1.13399994-4.49599981-1.71099997-9.11400032-1.71899998-13.75v-65.31300354c0-.004 0-.009 0-.013 0-5.6500001 4.64900017-10.29899979 10.29899979-10.29899979h89.40200043c5.6500001 0 10.29899979 4.64900017 10.29899979 10.29899979z" fill="#7b83eb"/><path d="m107.71099854 55h-19.82799911c5.30200005 11.18000031 16.61800003 18.33600044 28.99200058 18.33600044v-9.16499996c-.015-5.02199984-4.14300013-9.14900017-9.16399956-9.16399956z" fill-opacity=".2"/><path d="m123.75 82.5v87.10600281c0 4.25500011-2.9920001 7.96600008-7.1500001 8.86900043-.64700007.192-1.31900001.285-1.99399996.27500001h-48.74399948c-.90000004-2.2420001-1.65700006-4.53800011-2.26799989-6.875-1.13399994-4.49599981-1.71099997-9.11400032-1.71899998-13.75v-65.31300354c0-.004 0-.009 0-.013 0-5.6500001 4.64900017-10.29899979 10.29899979-10.29899979z" fill-opacity=".098039"/><path d="m116.875 82.5v93.98100281c.01.67500001-.083 1.347-.27500001 1.99399996-.90300006 4.15799999-4.61399984 7.1500001-8.86900043 7.1500001h-38.43099976c-1.32299995-2.19899988-2.47200012-4.49800014-3.43700004-6.875-.90100002-2.2420001-1.65799999-4.53800011-2.26900005-6.875-1.13399994-4.49599981-1.71099997-9.11400032-1.71899998-13.75v-65.31300354c0-.004 0-.009 0-.013 0-5.6500001 4.64900017-10.29899979 10.29899979-10.29899979zm0 0v80.23100281c-.023 5.0079999-4.13600016 9.12100029-9.14400005 9.14400005h-44.13700104c-1.13399994-4.49599981-1.71099997-9.11400032-1.71899998-13.75v-65.31300354c0-.004 0-.009 0-.013 0-5.6500001 4.64900017-10.29899979 10.29899979-10.29899979zm-44.68799973 0c-.004 0-.009 0-.013 0-5.6500001 0-10.29899979 4.64900017-10.29899979 10.29899979v65.3259964c.008 4.63600016.58499998 9.25399971 1.71899998 13.75h37.26200104c5.0079999-.023 9.12100029-4.13600016 9.14400005-9.14400005v-80.23100281z" fill-opacity=".2"/><path d="m9.16400146 55h91.66500092c5.02699995 0 9.16399956 4.13700008 9.16399956 9.16399956v91.66500092c0 5.02699995-4.13700008 9.16399956-9.16399956 9.16399956h-91.66500092c-5.02699995 0-9.16399956-4.13700008-9.16399956-9.16399956v-91.66500092c0-5.02699995 4.13700008-9.16399956 9.16399956-9.16399956z" fill="#4b53bc"/><path d="m82.36300659 89.20300293h-20.54999924v55.13800049h-13.50199986v-55.13800049h-20.66699982v-13.54399967h54.71900177z" fill="#fff"/></g><path d="m0 0h220v220h-220z" fill="none"/></svg>