<svg viewBox="0 0 32 32" fill="none" xmlns="http://www.w3.org/2000/svg"><path d="M31.798 16.195c.293-.292.244-.85 0-1.153l-1.543-1.544-6.9-6.693c-.293-.292-.748-.292-1.1 0-.293.293-.406.85 0 1.154l7.25 7.099c.292.292.292.85 0 1.153L22.1 23.554c-.293.293-.293.85 0 1.154.292.292.85.243 1.1 0l6.9-6.84 1.698-1.673zm-31.597 0c-.292-.292-.243-.85 0-1.153l1.544-1.544 6.9-6.693c.292-.292.747-.292 1.1 0 .292.293.406.85 0 1.154l-7.1 7.1c-.293.292-.293.85 0 1.153l7.25 7.343c.292.293.292.85 0 1.154-.293.292-.85.243-1.1 0l-7.05-6.739L.2 16.195z" fill="#3999C6"/><path d="M17.291 11.207 23.79 1.25h-9.748l-5.247 14.8 6.4.049-5.004 14.653L24 11.209l-6.709-.002z" fill="#FCD116"/><path opacity=".3" d="M24 11.207h-6.71l6.5-9.957h-5.102l-5.393 12.297 6.4.048-9.504 17.15 13.81-19.538z" fill="#FF8C00"/></svg>