<?xml version="1.0" encoding="utf-8"?>
<!-- Generator: Adobe Illustrator 20.1.0, SVG Export Plug-In . SVG Version: 6.00 Build 0)  -->
<svg version="1.1" id="Layer_1" xmlns="http://www.w3.org/2000/svg" xmlns:xlink="http://www.w3.org/1999/xlink" x="0px" y="0px"
	 viewBox="0 0 14 14" style="enable-background:new 0 0 14 14;" xml:space="preserve">
<style type="text/css">
	.st0{fill:#25BF50;}
	.st1{fill:#FEFEFE;}
	.st2{fill:#25C051;}
</style>
<title>HDL/Icon/Standard/Service/pagerduty</title>
<desc>Created with Sketch.</desc>
<g id="Colors">
	<g id="Service-icons" transform="translate(-122.000000, -1347.000000)">
		<g id="Pagerduty_1_" transform="translate(101.000000, 1329.000000)">
			<g id="HDL_x2F_Icon_x2F_Standard_x2F_Service_x2F_pagerduty" transform="translate(21.000000, 18.000000)">
				<g id="Pagerduty">
					<path id="Path" class="st0" d="M14,0.7c0,4.2,0,8.4,0,12.6c0,0.1-0.1,0.2-0.1,0.3c-0.2,0.2-0.3,0.4-0.6,0.4l0,0
						C9.1,14,5,14,0.8,14l0,0c-0.4,0-0.6-0.3-0.7-0.6c0-0.1,0-0.2,0-0.3c0-3.3,0-6.6,0-10c0-0.8,0-1.5,0-2.3c0-0.1,0-0.3,0.1-0.4
						C0.3,0.2,0.4,0.1,0.6,0c-0.1,0,0,0,0.1,0c0,0,0,0,0.1,0C5,0,9.1,0,13.3,0h0.1c0.1,0,0.2,0.1,0.3,0.2c0.1,0.1,0.2,0.2,0.3,0.3
						C14,0.6,14,0.6,14,0.7z"/>
					<path id="Path_1_" class="st1" d="M2.4,8.5c0-0.8,0-1.6,0-2.4c0-0.3,0.1-0.6,0.3-0.9c0.2-0.3,0.5-0.4,0.9-0.5
						c0.1,0,0.2,0,0.3,0c0.5,0,1,0,1.5,0c0.3,0,0.5,0,0.8,0.2C6.5,5,6.7,5.3,6.8,5.7c0,0.1,0,0.2,0,0.4c0,0.6,0,1.2,0,1.9
						c0,0.3-0.1,0.5-0.2,0.8C6.4,9.1,6.1,9.3,5.7,9.3c-0.1,0-0.2,0-0.3,0c-0.6,0-1.3,0-1.9,0c0,0-0.1,0-0.1,0.1c0,0.5,0,1.1,0,1.6
						c0,0,0,0.1-0.1,0.1c-0.3,0-0.6,0-0.9,0c0,0-0.1,0-0.1-0.1C2.4,10.2,2.4,9.3,2.4,8.5z"/>
					<path id="Path_2_" class="st1" d="M11.6,5.6c0,0.8,0,1.6,0,2.4c0,0.2,0,0.4-0.1,0.6c-0.2,0.4-0.5,0.7-1,0.8c-0.1,0-0.2,0-0.3,0
						c-0.5,0-1,0-1.5,0c-0.2,0-0.4,0-0.7-0.1c-0.4-0.2-0.7-0.5-0.8-1c0-0.1,0-0.2,0-0.3c0-0.6,0-1.2,0-1.8c0-0.2,0-0.4,0.1-0.6
						c0.2-0.4,0.5-0.6,1-0.7c0.1,0,0.2,0,0.3,0c0.6,0,1.3,0,1.9,0c0.1,0,0.1,0,0.1-0.1c0-0.5,0-1,0-1.6c0-0.1,0-0.1,0.1-0.1
						c0.3,0,0.6,0,0.9,0c0.1,0,0.1,0,0.1,0.1C11.6,3.9,11.6,4.7,11.6,5.6z"/>
					<path id="Path_3_" class="st2" d="M3.4,7.1c0-0.4,0-0.7,0-1.1c0-0.1,0-0.1,0-0.2c0-0.1,0.1-0.2,0.3-0.3c0,0,0.1,0,0.2,0
						c0.5,0,1,0,1.5,0c0.1,0,0.1,0,0.2,0s0.2,0.1,0.2,0.2c0,0.1,0,0.1,0,0.2c0,0.6,0,1.3,0,1.9v0.1c0,0.2-0.1,0.3-0.3,0.3
						c0,0,0,0-0.1,0c-0.6,0-1.3,0-1.9,0c-0.1,0-0.1,0-0.1-0.1C3.4,7.9,3.4,7.5,3.4,7.1z"/>
					<path id="Path_4_" class="st2" d="M10.6,6.9c0,0.4,0,0.7,0,1.1c0,0.3-0.1,0.4-0.4,0.4c-0.5,0-1,0-1.5,0c-0.1,0-0.1,0-0.2,0
						S8.3,8.3,8.3,8.2c0-0.1,0-0.1,0-0.2c0-0.6,0-1.3,0-1.9V6c0-0.2,0.1-0.3,0.3-0.3h0.1c0.6,0,1.3,0,1.9,0c0.1,0,0.1,0,0.1,0.1
						C10.6,6.1,10.6,6.5,10.6,6.9z"/>
				</g>
			</g>
		</g>
	</g>
</g>
</svg>
