<svg viewBox="0 0 14 14" xmlns="http://www.w3.org/2000/svg"><path d="M13.9 7v6.8c0 .1 0 .1-.1.1H.2c-.1 0-.1 0-.1-.1V.2C.1.1.1.1.2.1h13.6c.1 0 .1 0 .1.1z" fill="#000097"/><g fill="#fff"><path d="M3.9 7.9c.4-.5 1.3-.5 1.6 0 .1-.2.3-.3.6-.4.2-.1.4 0 .7 0 .3.2.5.5.5 1v2c0 .1 0 .1-.1.1h-.5c-.1 0-.1 0-.1-.1V8.9v-.3c0-.2-.1-.3-.3-.4-.2 0-.4 0-.5.2-.2.1-.2.2-.2.4v1.6c0 .1 0 .1-.1.1H5c-.1 0-.1 0-.1-.1V8.8v-.2c0-.2-.1-.4-.4-.4-.2-.1-.4 0-.5.2s-.1.3-.1.4v1.6c0 .1 0 .1-.1.1h-.5c-.1 0-.1 0-.1-.1V7.7c0-.1 0-.1.1-.1h.5c.1 0 .1 0 .1.1zM8.2 9.1v-.4c0-.1 0-.3.1-.4.3-.5.8-.7 1.4-.7.5 0 1 .3 1.2.8v1.4c-.3.6-.9.9-1.5.8-.5-.1-.8-.3-1.1-.7-.1-.1-.1-.2-.1-.4v-.4zM10.2 6.1c-.4.5-1.2.4-1.5.2-.2-.2-.3-.4-.3-.6V4.4v-.8c0-.1 0-.1.1-.1H9c.1 0 .1 0 .1.1V5.3c0 .4.1.5.4.5.4 0 .6-.1.6-.5v-.5-1.2c0-.1 0-.1.1-.1h.5c.1 0 .1 0 .1.1v2.7c0 .1 0 .1-.1.1h-.5c-.1 0-.1 0-.1-.1.1-.1.1-.1.1-.2zM5.6 5.5c0 .5-.2.8-.8.9s-1.2 0-1.7-.4c-.1-.1-.1-.1 0-.2l.3-.3c.1-.1.1-.1.2 0 .2.2.4.3.7.3h.5c.1 0 .2-.1.2-.2s-.1-.2-.2-.3c-.3-.1-.5-.1-.7-.1-.3-.1-.5-.2-.7-.3-.1-.1-.2-.2-.2-.4v-.2c0-.3.1-.5.4-.7.5-.3 1.5-.2 2 .2v.1c-.2.1-.3.2-.3.3s-.1.1-.1 0c-.3-.1-.6-.2-.8-.2H4c-.1 0-.2.1-.2.3l.2.2c.3.1.5.1.8.2.2 0 .3.1.5.2s.3.2.3.6z"/></g><path d="M10.3 9.1v.2c0 .3-.1.5-.4.6s-.6.1-.8-.1c-.1-.2-.2-.3-.2-.5v-.5c0-.3.3-.6.6-.7.3 0 .6.1.8.4.1.1 0 .3 0 .4z" fill="#000097"/></svg>