<?xml version="1.0" encoding="utf-8"?>
<!-- Generator: Adobe Illustrator 20.1.0, SVG Export Plug-In . SVG Version: 6.00 Build 0)  -->
<svg version="1.1" id="Layer_1" xmlns="http://www.w3.org/2000/svg" xmlns:xlink="http://www.w3.org/1999/xlink" x="0px" y="0px"
	 viewBox="0 0 12 14" style="enable-background:new 0 0 12 14;" xml:space="preserve">
<style type="text/css">
	.st0{fill:#9D5025;}
	.st1{fill:#F68536;}
	.st2{fill:#6B3A19;}
	.st3{fill:#FBBF93;}
</style>
<title>HDL/Icon/Standard/Service/aws-lamda</title>
<desc>Created with Sketch.</desc>
<g id="Colors">
	<g id="Service-icons" transform="translate(-119.000000, -312.000000)">
		<g id="AWS-Lamda" transform="translate(100.000000, 294.000000)">
			<g id="HDL_x2F_Icon_x2F_Standard_x2F_Service_x2F_aws_x5F_lambda" transform="translate(19.000000, 18.000000)">
				<g id="AWS-Lambda">
					<polyline id="Path" class="st0" points="0.3,11.1 1,11.5 1.1,11.3 1.1,2.8 1.1,2.6 0.3,3 0.3,11.1 					"/>
					<polyline id="Path_1_" class="st1" points="2.5,3 1.1,2.6 1.1,11.4 2.5,11.1 2.5,3 					"/>
					<polyline id="Path_2_" class="st2" points="6.8,3.6 7.8,3.1 11.1,4.4 10.2,4.5 6.8,3.6 					"/>
					<polyline id="Path_3_" class="st3" points="6.8,10.4 7.8,10.9 11.1,9.6 10.2,9.5 6.8,10.4 					"/>
					<path id="Shape" class="st0" d="M7,9l1.7,0.2L8.8,9V5V4.8L7,5.1V9 M1.9,2.2L3,1.6l0.1,0.2v10.3L3,12.4l-1.1-0.5V2.2"/>
					<polyline id="Path_4_" class="st1" points="5.2,11.7 3,12.4 3,1.6 5.2,2.3 5.2,11.7 					"/>
					<path id="Shape_1_" class="st0" d="M4.3,13.1L6,13.9l0.2-0.2V0.4L6,0.1L4.3,1V13.1 M10.1,4.5L11,4.4l0.1,0.1v5L11,9.7l-0.9-0.1
						V4.5"/>
					<polyline id="Path_5_" class="st1" points="8.8,4.8 8.8,9.2 10.6,7 8.8,4.8 					"/>
					<path id="Shape_2_" class="st1" d="M11,2.6L6,0.1v13.8l5.7-2.9V3L11,2.6z M11,9.7l-3.3,1V3.4l3.3,1V9.7z"/>
				</g>
			</g>
		</g>
	</g>
</g>
</svg>
