<svg enable-background="new 0 0 14 14" viewBox="0 0 14 14" xmlns="http://www.w3.org/2000/svg"><g><path d="m7.5.8c.1.1.2 0 .3 0 .3 0 .7.1 1 .2.4.1.8.3 1.2.5s.8.4 1.1.7c.2.2.5.4.7.6.4.4.8.9 1.1 1.4s.6 1.1.7 1.7c.1.3.1.7.2 1 0 .3.1.6 0 .9 0 .6-.1 1.2-.3 1.7-.1.5-.3.9-.5 1.4-.2.4-.5.8-.8 1.2-.1.2-.3.3-.4.5-.3.3-.7.5-1.2.5-.3 0-.5-.2-.8-.3-.3-.3-.7-.5-1.1-.6s-.8-.2-1.2-.3c-.3 0-.6 0-.9 0-.4 0-.9.1-1.3.3-.5.2-.9.4-1.2.7-.4.3-1.1.4-1.6.1-.3-.2-.5-.4-.7-.7-.2-.2-.4-.5-.6-.8-.2-.6-.4-1-.6-1.5-.2-.4-.3-.8-.4-1.2 0-.4 0-.8 0-1.3s.1-1 .2-1.5.3-1.1.6-1.6c.2-.5.5-.9.9-1.3.5-.6 1.2-1.1 1.9-1.6.5-.2 1.2-.5 2-.6.2 0 .4-.1.6-.1h.1z" fill="#80b4a0"/><path d="m3.6 7.3c0-.8.2-1.4.6-2 .5-.8 1.3-1.3 2.2-1.4.2 0 .4-.1.6-.1.6 0 1.2.2 1.8.5.3.2.5.3.7.5.4.5.8 1.1.9 1.7.1.3.1.7.1 1 0 .7-.3 1.4-.7 2-.5.6-1.1 1-1.9 1.2-.4.1-.7.1-1.1.1-.6-.1-1.2-.3-1.7-.7-.4-.3-.7-.6-.9-1-.4-.5-.5-.9-.5-1.3-.1-.2-.1-.4-.1-.5z" fill="#fefefe"/></g></svg>