<?xml version="1.0" encoding="utf-8"?>
<!-- Generator: Adobe Illustrator 20.1.0, SVG Export Plug-In . SVG Version: 6.00 Build 0)  -->
<svg version="1.1" id="Layer_1" xmlns="http://www.w3.org/2000/svg" xmlns:xlink="http://www.w3.org/1999/xlink" x="0px" y="0px"
	 viewBox="0 0 14 14" style="enable-background:new 0 0 14 14;" xml:space="preserve">
<style type="text/css">
	.st0{fill:#343434;}
</style>
<title>HDL/Icon/Standard/Service/circleci</title>
<desc>Created with Sketch.</desc>
<g id="Colors">
	<g id="Service-icons" transform="translate(-623.000000, -547.000000)">
		<g id="Circle-CI" transform="translate(600.000000, 529.000000)">
			<g id="HDL_x2F_Icon_x2F_Standard_x2F_Service_x2F_circleci" transform="translate(23.000000, 18.000000)">
				<path id="path7" class="st0" d="M5.1,6.9c0-0.9,0.7-1.7,1.7-1.7S8.4,6,8.4,6.9S7.7,8.6,6.7,8.6C5.8,8.6,5.1,7.9,5.1,6.9z M6.7,0
					C3.5,0,0.8,2.2,0,5.2c0,0,0,0,0,0.1c0,0.2,0.1,0.3,0.3,0.3h2.8c0.1,0,0.3-0.1,0.3-0.2l0,0C4,4.2,5.3,3.3,6.7,3.3
					c2,0,3.6,1.6,3.6,3.6s-1.6,3.6-3.6,3.6c-1.5,0-2.7-0.9-3.3-2.1l0,0C3.4,8.3,3.3,8.3,3.1,8.3H0.3C0.1,8.3,0,8.4,0,8.6
					c0,0,0,0,0,0.1c0.8,3,3.5,5.2,6.7,5.2c3.8,0,7-3.1,7-7C13.7,3.1,10.6,0,6.7,0z"/>
			</g>
		</g>
	</g>
</g>
</svg>
