<svg xmlns="http://www.w3.org/2000/svg" clip-rule="evenodd" fill-rule="evenodd" stroke-linejoin="round" stroke-miterlimit="1.41421" viewBox="0 0 220 220"><rect/>
  <g class="currentLayer">
    <title>Layer 1</title>
    <circle cx="116.875" cy="41.25" fill="#7b83eb" r="32.08599853515625"/>
    <path d="m114.58599853515625,48.125 h-29.054000854492188 l0.14399999380111694,0.6389999985694885 l0.014000000432133675,0.055000003427267075 l0.14399999380111694,0.5920000076293945 c4.361999988555908,16.534000396728516 21.202999114990234,26.833999633789062 37.909000396728516,23.18199920654297 v-15.303999900817871 c-0.015000000596046448,-5.020999908447266 -4.142000198364258,-9.14900016784668 -9.163999557495117,-9.163999557495117 z" fill-opacity=".098039" fill-rule="nonzero"/>
    <path d="m107.71099853515625,55 h-19.827999114990234 c5.302000045776367,11.180000305175781 16.618000030517578,18.336000442504883 28.992000579833984,18.336000442504883 v-9.164999961853027 c-0.015000000596046448,-5.021999835968018 -4.14300012588501,-9.14900016784668 -9.163999557495117,-9.163999557495117 z" fill-opacity=".2" fill-rule="nonzero"/>
    <circle cx="189.06298828125" cy="51.56300354003906" fill="#5059c9" r="24.062999725341797"/>
    <g fill-rule="nonzero">
      <path d="m209.68798828125,82.5 h-54.04499816894531 c-2.4100000858306885,0 -4.39300012588501,1.9830000400543213 -4.39300012588501,4.39300012588501 v55.75600051879883 c-0.3100000023841858,16.56999969482422 11.119999885559082,31.225000381469727 27.266000747680664,34.959999084472656 c2.325000047683716,0.4880000054836273 4.692999839782715,0.7330000400543213 7.067999839782715,0.7330000400543213 c18.871999740600586,0 34.40399932861328,-15.520999908447266 34.41600036621094,-34.393001556396484 v-51.137001037597656 c0,-5.6570000648498535 -4.65500020980835,-10.312000274658203 -10.312000274658203,-10.312000274658203 z" fill="#5059c9"/>
      <path d="m171.875,92.81300354003906 v65.34300231933594 c0,30.152999877929688 -24.812000274658203,54.96500015258789 -54.965999603271484,54.96500015258789 c-19.618000030517578,0 -37.80400085449219,-10.503000259399414 -47.60900115966797,-27.496000289916992 c-1.3229999542236328,-2.1989998817443848 -2.4720001220703125,-4.498000144958496 -3.437999963760376,-6.875 c-0.9000000357627869,-2.242000102996826 -1.6570000648498535,-4.538000106811523 -2.2679998874664307,-6.875 c-1.1339999437332153,-4.495999813079834 -1.7109999656677246,-9.11400032043457 -1.718999981880188,-13.75 v-65.31300354003906 c0,-0.004000000189989805 0,-0.009000000543892384 0,-0.013000000268220901 c0,-5.650000095367432 4.64900016784668,-10.298999786376953 10.298999786376953,-10.298999786376953 h89.4020004272461 c5.650000095367432,0 10.298999786376953,4.64900016784668 10.298999786376953,10.298999786376953 z" fill="#7b83eb"/>
      <path d="m107.71099853515625,55 h-19.827999114990234 c5.302000045776367,11.180000305175781 16.618000030517578,18.336000442504883 28.992000579833984,18.336000442504883 v-9.164999961853027 c-0.015000000596046448,-5.021999835968018 -4.14300012588501,-9.14900016784668 -9.163999557495117,-9.163999557495117 z" fill-opacity=".2"/>
      <path d="m123.75,82.5 v87.10600280761719 c0,4.255000114440918 -2.992000102996826,7.966000080108643 -7.150000095367432,8.869000434875488 c-0.6470000743865967,0.19200000166893005 -1.319000005722046,0.2849999964237213 -1.99399995803833,0.2750000059604645 h-48.74399948120117 c-0.9000000357627869,-2.242000102996826 -1.6570000648498535,-4.538000106811523 -2.2679998874664307,-6.875 c-1.1339999437332153,-4.495999813079834 -1.7109999656677246,-9.11400032043457 -1.718999981880188,-13.75 v-65.31300354003906 c0,-0.004000000189989805 0,-0.009000000543892384 0,-0.013000000268220901 c0,-5.650000095367432 4.64900016784668,-10.298999786376953 10.298999786376953,-10.298999786376953 z" fill-opacity=".098039"/>
      <path d="m116.875,82.5 v93.98100280761719 c0.010000000707805157,0.675000011920929 -0.08300000429153442,1.347000002861023 -0.2750000059604645,1.99399995803833 c-0.9030000567436218,4.1579999923706055 -4.613999843597412,7.150000095367432 -8.869000434875488,7.150000095367432 h-38.430999755859375 c-1.3229999542236328,-2.1989998817443848 -2.4720001220703125,-4.498000144958496 -3.437000036239624,-6.875 c-0.9010000228881836,-2.242000102996826 -1.6579999923706055,-4.538000106811523 -2.2690000534057617,-6.875 c-1.1339999437332153,-4.495999813079834 -1.7109999656677246,-9.11400032043457 -1.718999981880188,-13.75 v-65.31300354003906 c0,-0.004000000189989805 0,-0.009000000543892384 0,-0.013000000268220901 c0,-5.650000095367432 4.64900016784668,-10.298999786376953 10.298999786376953,-10.298999786376953 zm0,0 v80.23100280761719 c-0.023000001907348633,5.007999897003174 -4.136000156402588,9.121000289916992 -9.144000053405762,9.144000053405762 h-44.137001037597656 c-1.1339999437332153,-4.495999813079834 -1.7109999656677246,-9.11400032043457 -1.718999981880188,-13.75 v-65.31300354003906 c0,-0.004000000189989805 0,-0.009000000543892384 0,-0.013000000268220901 c0,-5.650000095367432 4.64900016784668,-10.298999786376953 10.298999786376953,-10.298999786376953 zm-44.6879997253418,0 c-0.004000000189989805,0 -0.009000000543892384,0 -0.013000000268220901,0 c-5.650000095367432,0 -10.298999786376953,4.64900016784668 -10.298999786376953,10.298999786376953 v65.32599639892578 c0.00800000037997961,4.636000156402588 0.5849999785423279,9.253999710083008 1.718999981880188,13.75 h37.262001037597656 c5.007999897003174,-0.023000001907348633 9.121000289916992,-4.136000156402588 9.144000053405762,-9.144000053405762 v-80.23100280761719 z" fill-opacity=".2"/>
      <path d="m9.16400146484375,55 h91.66500091552734 c5.0269999504089355,0 9.163999557495117,4.13700008392334 9.163999557495117,9.163999557495117 v91.66500091552734 c0,5.0269999504089355 -4.13700008392334,9.163999557495117 -9.163999557495117,9.163999557495117 h-91.66500091552734 c-5.0269999504089355,0 -9.163999557495117,-4.13700008392334 -9.163999557495117,-9.163999557495117 v-91.66500091552734 c0,-5.0269999504089355 4.13700008392334,-9.163999557495117 9.163999557495117,-9.163999557495117 z" fill="#4b53bc"/>
      <path d="m82.36300659179688,89.2030029296875 h-20.549999237060547 v55.13800048828125 h-13.501999855041504 v-55.13800048828125 h-20.66699981689453 v-13.543999671936035 h54.71900177001953 z" fill="#fff"/>
    </g>
    <path d="m0,0 h220 v220 h-220 z" fill="none"/>
  </g>
</svg>