<?xml version="1.0" encoding="UTF-8"?>
<svg width="14px" height="14px" viewBox="0 0 14 14" version="1.1" xmlns="http://www.w3.org/2000/svg" xmlns:xlink="http://www.w3.org/1999/xlink">
    <!-- Generator: Sketch 59 (86127) - https://sketch.com -->
    <title>HDL/Icon/Standard/Service/circleci</title>
    <desc>Created with Sketch.</desc>
    <g id="Colors" stroke="none" stroke-width="1" fill="none" fill-rule="evenodd">
        <g id="Service-icons" transform="translate(-623.000000, -547.000000)" fill="#343434" fill-rule="nonzero">
            <g id="Circle-CI" transform="translate(600.000000, 529.000000)">
                <g id="HDL/Icon/Standard/Service/circleci" transform="translate(23.000000, 18.000000)">
                    <path d="M5.09811321,6.94716981 C5.09811321,6.03584906 5.83773585,5.29622642 6.7490566,5.29622642 C7.66037736,5.29622642 8.4,6.03584906 8.4,6.94716981 C8.4,7.85849057 7.66037736,8.59811321 6.7490566,8.59811321 C5.83773585,8.61132075 5.09811321,7.85849057 5.09811321,6.94716981 Z M6.7490566,5.06261699e-14 C3.5,5.06261699e-14 0.779245283,2.21886792 0.0132075472,5.23018868 C0.0132075472,5.25660377 1.66089364e-13,5.26981132 1.66089364e-13,5.29622642 C1.66089364e-13,5.48113208 0.145283019,5.62641509 0.330188679,5.62641509 L3.13018868,5.62641509 C3.26226415,5.62641509 3.38113208,5.54716981 3.43396226,5.42830189 L3.43396226,5.42830189 C4.01509434,4.17358491 5.26981132,3.30188679 6.7490566,3.30188679 C8.75660377,3.30188679 10.3943396,4.93962264 10.3943396,6.94716981 C10.3943396,8.95471698 8.75660377,10.5924528 6.7490566,10.5924528 C5.28301887,10.5924528 4.01509434,9.72075472 3.43396226,8.46603774 L3.43396226,8.46603774 C3.38113208,8.34716981 3.26226415,8.26792453 3.13018868,8.26792453 L0.330188679,8.26792453 C0.145283019,8.26792453 1.66089364e-13,8.41320755 1.66089364e-13,8.59811321 C1.66089364e-13,8.6245283 1.66089364e-13,8.63773585 0.0132075472,8.66415094 C0.779245283,11.6754717 3.5,13.8943396 6.7490566,13.8943396 C10.5924528,13.8943396 13.709434,10.7773585 13.709434,6.93396226 C13.709434,3.10377358 10.5924528,5.06261699e-14 6.7490566,5.06261699e-14 Z" id="path7"></path>
                </g>
            </g>
        </g>
    </g>
</svg>