<svg xmlns="http://www.w3.org/2000/svg" viewBox="0 0 16 16"><path fill-rule="evenodd" clip-rule="evenodd" d="M6.74 2.098a.6.6 0 0 1 .6-.6h1.2a.6.6 0 0 1 .6.6v1.4c.384.104.747.255 1.083.448l.996-.993a.6.6 0 0 1 .847 0l.85.847a.6.6 0 0 1 0 .85l-.993.99c.191.333.342.692.445 1.071h1.408a.6.6 0 0 1 .6.6v1.2a.6.6 0 0 1-.6.6h-1.408a4.54 4.54 0 0 1-.447 1.073l.994.99a.6.6 0 0 1 0 .85l-.85.846a.6.6 0 0 1-.848 0l-.996-.992a4.574 4.574 0 0 1-1.08.445v1.401a.6.6 0 0 1-.6.6h-1.2a.6.6 0 0 1-.6-.6v-1.4a4.573 4.573 0 0 1-1.082-.447l-.996.992a.6.6 0 0 1-.847 0l-.85-.846a.6.6 0 0 1 0-.85l.993-.99a4.536 4.536 0 0 1-.447-1.072H2.106a.6.6 0 0 1-.6-.6v-1.2a.6.6 0 0 1 .6-.6h1.406c.103-.379.254-.739.446-1.072l-.993-.989a.6.6 0 0 1 0-.85l.85-.847a.6.6 0 0 1 .847 0l.996.992c.336-.192.7-.343 1.083-.446V2.098Zm.8.2v1.353a.607.607 0 0 1-.47.59c-.402.094-.78.252-1.122.462a.607.607 0 0 1-.747-.084L4.24 3.66l-.567.565.96.956a.607.607 0 0 1 .084.75c-.21.339-.368.713-.463 1.111a.607.607 0 0 1-.588.47h-1.36v.8h1.36c.29 0 .526.204.588.468.095.399.253.773.463 1.112a.607.607 0 0 1-.084.75l-.96.955.567.565.963-.959a.607.607 0 0 1 .747-.084c.341.21.719.369 1.121.463.265.061.47.297.47.589v1.353h.8v-1.353c0-.291.206-.527.47-.59a3.773 3.773 0 0 0 1.121-.462.607.607 0 0 1 .747.085l.963.959.567-.565-.96-.955a.607.607 0 0 1-.084-.75c.21-.34.369-.714.463-1.113a.607.607 0 0 1 .59-.469h1.359v-.8h-1.36a.607.607 0 0 1-.589-.469 3.735 3.735 0 0 0-.462-1.11.607.607 0 0 1 .085-.75l.96-.957-.567-.564-.963.959a.607.607 0 0 1-.747.084A3.773 3.773 0 0 0 8.81 4.24a.607.607 0 0 1-.47-.59V2.298h-.8ZM8.016 6.1a1.9 1.9 0 1 0 0 3.8 1.9 1.9 0 0 0 0-3.8ZM5.315 8a2.7 2.7 0 1 1 5.4 0 2.7 2.7 0 0 1-5.4 0Z" fill="currentColor"/></svg>