<?xml version="1.0" encoding="UTF-8"?>
<svg width="14px" height="14px" viewBox="0 0 14 14" version="1.1" xmlns="http://www.w3.org/2000/svg" xmlns:xlink="http://www.w3.org/1999/xlink">
    <!-- Generator: Sketch 59 (86127) - https://sketch.com -->
    <title>HDL/Icon/Standard/Service/spotinst</title>
    <desc>Created with Sketch.</desc>
    <defs>
        <linearGradient x1="67.2913648%" y1="114.151114%" x2="26.5577159%" y2="12.9739077%" id="linearGradient-1">
            <stop stop-color="#1A8AFF" offset="0%"></stop>
            <stop stop-color="#1D8FFF" offset="24%"></stop>
            <stop stop-color="#249EFF" offset="52%"></stop>
            <stop stop-color="#30B6FF" offset="83%"></stop>
            <stop stop-color="#39C7FF" offset="100%"></stop>
        </linearGradient>
        <linearGradient x1="68.0489102%" y1="101.966065%" x2="27.1132376%" y2="0.150620371%" id="linearGradient-2">
            <stop stop-color="#1A8AFF" offset="0%"></stop>
            <stop stop-color="#1D8FFF" offset="24%"></stop>
            <stop stop-color="#249EFF" offset="52%"></stop>
            <stop stop-color="#30B6FF" offset="83%"></stop>
            <stop stop-color="#39C7FF" offset="100%"></stop>
        </linearGradient>
    </defs>
    <g id="Colors" stroke="none" stroke-width="1" fill="none" fill-rule="evenodd">
        <g id="Service-icons" transform="translate(-622.000000, -454.000000)">
            <g id="Spotnist" transform="translate(600.000000, 436.000000)">
                <g id="HDL/Icon/Standard/Service/spotinst" transform="translate(22.000000, 18.000000)">
                    <g id="Spotinst-icon">
                        <path d="M6.55454545,0.114545455 L1.93313131,2.3389899 C1.61834652,2.49170457 1.38959365,2.77868546 1.31090909,3.11959596 L0.169696969,8.12 C0.092182465,8.46119785 0.173862656,8.81913395 0.391717171,9.0929293 L3.59050505,13.1020202 C3.80838094,13.3763544 4.1395718,13.5361616 4.48989899,13.5361616 L9.6161616,13.5361616 C9.9664888,13.5361616 10.2976796,13.3763544 10.5155555,13.1020202 L13.7171717,9.0929293 C13.9350262,8.81913395 14.0167064,8.46119785 13.9391919,8.12 L12.7965656,3.11959596 C12.7184504,2.77841082 12.4895229,2.49121082 12.1743434,2.3389899 L7.5529293,0.114545455 C7.2376424,-0.0381171584 6.86983235,-0.0381171584 6.55454545,0.114545455 Z" id="Path" fill="#FFFFFF" fill-rule="nonzero"></path>
                        <path d="M2.16787879,8.40848485 C2.21780302,8.36843005 2.2456417,8.30697485 2.24282828,8.2430303 C2.20704778,7.16757495 2.66301266,6.1343669 3.48161616,5.4359596 C4.19047609,4.83427044 5.10954495,4.53923121 6.0361703,4.61589732 C6.96279565,4.69256343 7.82087795,5.13463865 8.4212121,5.84464645 C8.4732584,5.90667555 8.5578313,5.93075925 8.63474745,5.90545455 C9.7976825,5.5248036 11.0669075,6.02548525 11.6567677,7.09757575 C11.685174,7.1478075 11.7334319,7.18374425 11.7896969,7.19656565 C12.4076223,7.33676435 12.9426298,7.72080685 13.2731313,8.26141415 C13.2745441,8.1782027 13.2659985,8.095121 13.2476767,8.0139394 L12.2210101,3.51414142 C12.1508128,3.20420302 11.9423233,2.94359115 11.6553535,2.80707071 L7.50343435,0.81030303 C7.21934535,0.673051015 6.8881294,0.673051015 6.6040404,0.81030303 L2.44646464,2.81272728 C2.15949489,2.94924771 1.95100539,3.20985959 1.88080808,3.51979798 L0.85979798,8.0139394 C0.790533655,8.32086335 0.8638317,8.64264695 1.05919192,8.88929295 L1.45232323,9.38141415 C1.60196437,9.00028005 1.84863683,8.66488345 2.16787879,8.40848485 Z" id="Path" fill="url(#linearGradient-1)" fill-rule="nonzero"></path>
                        <path d="M12.6862626,9.06747475 C12.4837695,8.39207475 11.8327035,7.95349305 11.130707,8.01959595 L11.0840404,8.01959595 L11.0628283,7.97434345 C10.8843465,7.1434763 10.1112938,6.5784363 9.26545455,6.66060605 C8.9898205,6.6851547 8.72572445,6.78278725 8.50040405,6.94343435 L8.47636365,6.95757575 C8.40437775,6.9981932 8.3191878,7.00849575 8.23959465,6.98620965 C8.16000145,6.96392355 8.09254815,6.9108809 8.0521212,6.8387879 C7.49697595,5.82454135 6.3418745,5.2950001 5.2111111,5.53636365 C3.89532837,5.81959915 3.00150338,7.04503385 3.13373738,8.38444445 C3.14080808,8.44949495 3.15070707,8.51454545 3.16060606,8.5781818 C3.18640553,8.71355545 3.11792663,8.8493526 2.99373738,8.9090909 C2.51138361,9.1460502 2.19491025,9.62535855 2.16646465,10.1620202 C2.16488485,10.1930717 2.1581958,10.2236502 2.14666667,10.2525253 L3.9369697,12.4967677 C4.13304589,12.7433207 4.43084386,12.8870707 4.74585859,12.8870707 L9.36161615,12.8870707 C9.6766309,12.8870707 9.97442885,12.7433207 10.170505,12.4967677 L12.7866667,9.21737375 C12.7385325,9.17896515 12.7034608,9.1266046 12.6862626,9.06747475 Z" id="Path" fill="url(#linearGradient-2)" fill-rule="nonzero"></path>
                    </g>
                </g>
            </g>
        </g>
    </g>
</svg>