<?xml version="1.0" encoding="UTF-8"?>
<svg width="13px" height="14px" viewBox="0 0 13 14" version="1.1" xmlns="http://www.w3.org/2000/svg" xmlns:xlink="http://www.w3.org/1999/xlink">
    <!-- Generator: Sketch 61 (89581) - https://sketch.com -->
    <title>HDL/Icon/Standard/Service/instana</title>
    <desc>Created with Sketch.</desc>
    <defs>
        <linearGradient x1="8.62775835%" y1="77.4921875%" x2="71.3704265%" y2="37.9901892%" id="linearGradient-1">
            <stop stop-color="#43565E" offset="0%"></stop>
            <stop stop-color="#172429" offset="100%"></stop>
        </linearGradient>
    </defs>
    <g id="Colors" stroke="none" stroke-width="1" fill="none" fill-rule="evenodd">
        <g id="Service-icons" transform="translate(-622.000000, -735.000000)">
            <g id="Instana" transform="translate(600.000000, 718.000000)">
                <g id="instana-inc-copy-3" transform="translate(22.000000, 17.000000)">
                    <g transform="translate(-0.000000, 0.000000)">
                        <path d="M12.1612127,6.25879461 L12.0982057,6.24615204 C12.1205373,5.9909301 12.1332982,5.72622623 12.1261202,5.47416494 C12.1189422,5.20392994 12.0351987,4.07953112 11.8086925,3.41500588 C11.6954394,3.08550883 11.5742108,2.76786419 11.3492997,2.4834063 C11.3237779,2.45338019 11.2990536,2.42098359 11.2711391,2.388587 C11.2432246,2.35381993 11.185003,2.38147555 11.1953712,2.42572456 C11.485682,3.66232622 11.472921,5.04194698 11.2687465,6.27380767 C11.1347569,7.07582088 10.9457359,8.01058111 10.5222331,8.69723085 C10.0532696,9.45657538 9.19031301,9.63436156 8.41109986,9.75130536 C7.67176455,9.8635082 6.1715599,9.87852125 6.1715599,9.87852125 C6.1715599,9.87852125 4.66816502,9.86113771 3.93201994,9.75130536 C3.15519945,9.6335714 2.28985015,9.45657538 1.82088665,8.69723085 C1.3973839,8.00979095 1.2083629,7.0734504 1.07437333,6.27380767 C0.870198747,5.04431746 0.857437835,3.66548686 1.14774857,2.42572456 C1.15811681,2.38305588 1.10228782,2.35540025 1.07198066,2.388587 C1.04406617,2.42098359 1.0193419,2.45338019 0.993820076,2.4834063 C0.769706569,2.76786419 0.64847791,3.08313835 0.534427264,3.41500588 C0.307123529,4.07716064 0.224177604,5.20392994 0.216999592,5.47416494 C0.209821579,5.72622623 0.221784933,5.99172026 0.244914085,6.24615204 L0.181907085,6.25879461 C0.0630710972,6.28407976 -0.0150894854,6.37889906 0.00245676784,6.4808298 L0.378106099,8.8473614 C0.393259681,8.95008231 0.499334757,9.02514759 0.620563416,9.02198694 L0.893327899,9.01487549 C0.951549557,9.14446187 1.01455656,9.2748384 1.08474157,9.39968381 C1.25382365,9.69915475 1.49548341,9.9219801 1.79057948,10.0942352 C2.07291465,10.2617492 2.38316431,10.3518276 2.70138954,10.4213617 C3.07225353,10.5035384 3.44790286,10.5541087 3.82594486,10.5959873 C3.92404437,10.6086298 4.09312644,10.6283839 4.19680885,10.6410264 C4.22233067,10.6433969 4.22711602,10.678164 4.20159419,10.6860656 C3.90649811,10.771403 3.27882078,11.0582313 3.0060563,11.3158238 C2.7540283,11.5354885 2.52433189,11.7756973 2.33291822,12.0483028 C2.16862149,12.2829806 2.02027589,12.5303009 1.94690065,12.8131785 L1.94690065,12.8179194 C1.88628632,13.0581283 2.02984657,13.302288 2.26751855,13.3828844 C3.46305644,13.7803353 4.78221566,14 6.16916723,14 C7.55611879,14 8.87288534,13.7803353 10.0708159,13.3828844 C10.3076903,13.3030782 10.4512506,13.0581283 10.3914338,12.8179194 L10.3914338,12.8131785 C10.3180586,12.5310911 10.1721056,12.2861412 10.0054162,12.0483028 C9.81400256,11.7756973 9.58430615,11.5339081 9.33227815,11.3158238 C9.057121,11.0582313 8.42944367,10.771403 8.13674026,10.6860656 C8.11440867,10.6789541 8.11919401,10.6433969 8.1415256,10.6410264 C8.24520801,10.6283839 8.41429009,10.6086298 8.51238959,10.5959873 C8.89043159,10.5509481 9.26608092,10.5035384 9.63694491,10.4213617 C9.95437259,10.3510374 10.2646222,10.2617492 10.547755,10.0942352 C10.842851,9.9219801 11.0853084,9.69915475 11.2535929,9.39968381 C11.3245755,9.2748384 11.3875825,9.14446187 11.4450066,9.01487549 L11.717771,9.02198694 C11.8389997,9.02435742 11.9418845,8.94929215 11.9602284,8.8473614 L12.3358777,6.4808298 C12.3558166,6.37889906 12.277656,6.2832896 12.1612127,6.25879461 Z" id="Path" fill="#B7C1C6" fill-rule="nonzero"></path>
                        <ellipse id="Oval" fill="#FFFFFF" fill-rule="nonzero" opacity="0.5" cx="6.16949153" cy="9.49152542" rx="5.45762712" ry="1"></ellipse>
                        <path d="M0.973431041,3.59539714 C0.910934893,4.52392173 0.968684498,5.45478911 1.1514264,6.36613326 C1.32151085,7.20797473 1.45678733,8.09745287 2.04219428,8.79091782 C2.54216347,9.38364294 3.43530462,9.54919989 4.14333061,9.63275929 C4.81338424,9.71163312 6.16931333,9.72881356 6.16931333,9.72881356 C6.16931333,9.72881356 7.52524242,9.71163312 8.19529606,9.63275929 C8.90569531,9.55154267 9.79646319,9.38364294 10.2964324,8.79091782 C10.8818393,8.09667194 11.0171158,7.20797473 11.1872003,6.36613326 C11.3723154,5.45478911 11.4276918,4.52392173 11.3651956,3.59539714 C11.3430451,3.24007445 11.2947886,2.87459967 11.2322924,2.51849605 C11.1951112,2.29593128 11.079612,2.09367067 10.9119008,1.94295137 C10.7070083,1.75787119 10.4388287,1.54077293 10.0788825,1.28619007 C9.7458334,1.04878766 9.40091795,0.831689392 9.02356779,0.663789655 C8.53862933,0.446691392 8.03786905,0.268639578 7.51495824,0.160090446 C7.10991992,0.0741882556 6.53479713,0 6.16456679,0 C5.79433644,0 5.22158693,0.0741882556 4.81338424,0.160871375 C4.29047344,0.271763294 3.79287752,0.447472321 3.30477469,0.664570584 C2.9297978,0.832470321 2.58171799,1.04956858 2.24945999,1.286971 C1.88951382,1.54389665 1.62133415,1.75865212 1.41644171,1.9437323 C1.24873053,2.09445159 1.13639568,2.29671221 1.09842334,2.51927697 C1.04621137,2.87694246 0.998745937,3.24007445 0.973431041,3.59539714 L0.973431041,3.59539714 Z" id="Path" fill="#172429" fill-rule="nonzero"></path>
                        <path d="M7.92306145,3.09085218 C9.04887021,3.09085218 10.1343302,3.26549567 11.1525424,3.59028515 C11.1272255,3.28762245 11.0876679,2.98021829 11.0378254,2.67834583 C11.0006413,2.46339999 10.8930446,2.2682102 10.7324409,2.12122518 C10.534653,1.94105 10.2799021,1.73163585 9.93416887,1.48429009 C9.61375247,1.25432965 9.28384224,1.04412527 8.9230771,0.882125648 C8.45787995,0.671921263 7.98002437,0.499648496 7.47922539,0.392175577 C7.0915611,0.309990404 6.53854611,0.237288136 6.18569249,0.237288136 C5.83283886,0.237288136 5.27982388,0.309990404 4.89215959,0.392175577 C4.39215176,0.499648496 3.91429618,0.671921263 3.44830787,0.882125648 C3.08833389,1.04491551 2.75763251,1.25670038 2.4372161,1.48429009 C2.09227399,1.73163585 1.83435856,1.94184024 1.63894411,2.12122518 C1.47913149,2.26900045 1.37153487,2.46339999 1.33355959,2.67834583 C1.27343206,3.02605233 1.23070988,3.37771004 1.20855763,3.72304582 C1.17137351,4.30308348 1.18086732,4.88233091 1.23862139,5.45762712 C3.06222588,3.97750376 5.3890028,3.09085218 7.92306145,3.09085218 Z" id="Path" fill="url(#linearGradient-1)" fill-rule="nonzero"></path>
                        <g id="Group" transform="translate(2.847458, 6.644068)" fill="#22D8D8" fill-rule="nonzero">
                            <ellipse id="Oval" transform="translate(0.642749, 0.832454) rotate(-3.997639) translate(-0.642749, -0.832454) " cx="0.642748739" cy="0.832454202" rx="1" ry="1"></ellipse>
                            <path d="M6.23406857,1.617 C6.55692671,1.63776271 6.84286433,1.30472881 6.87507159,0.87120339 C6.90727885,0.437677966 6.66925935,0.0672711864 6.34875784,0.0465084746 C6.0258997,0.0257457627 5.73996208,0.358779661 5.70775482,0.792305085 C5.67554756,1.22583051 5.91356706,1.59374576 6.23406857,1.617 Z" id="Path"></path>
                        </g>
                    </g>
                </g>
            </g>
        </g>
    </g>
</svg>