<svg enable-background="new 0 0 14 14" viewBox="0 0 14 14" xmlns="http://www.w3.org/2000/svg"><path d="m13.7 2.3v9.5.1.3c-.1.3-.2.5-.4.7l-.1.1s0 .1-.1.1l-.1.1-.1.1h-.1c-.1 0-.1.1-.2.1-.1.1-.3.1-.4.2-.1 0-.2 0-.3.1-.1 0-.2 0-.2 0h-.1c-3.1 0-6.3 0-9.4 0h-.1-.1c-.3 0-.5-.1-.8-.3 0 0-.1 0-.1-.1 0 0-.1 0-.1-.1-.1-.1-.2-.2-.3-.3 0 0 0-.1-.1-.1 0 0 0-.1-.1-.1 0 0 0-.1-.1-.1-.1-.1-.1-.1-.1-.2v-.1c-.1-.1-.1-.3-.1-.5v-.1-.1c0-3.2 0-6.3 0-9.5v-.1c0-.1 0-.2 0-.3s.1-.1.1-.2v-.1c0-.1.1-.2.1-.2s0-.1.1-.1c.1-.2.3-.3.4-.4 0 0 0 0 .1-.1.1 0 .1-.1.2-.1s.2-.1.4-.2c.1 0 .3-.1.4-.1h.1 9.5.1.3c.2.1.3.1.5.2l.1.1s.1 0 .1.1c.2.1.3.3.4.4 0 0 0 .1.1.1.1.2.2.4.3.6v.1.3c.2.1.2.1.2.2z" fill="#64a537"/><path d="m4 2.9 1.2.6c.9.4 1.8.8 2.7 1.3l2.4 1.2c.1 0 .1.1.1.1v1.4c0 .1 0 .1-.1.1-.8.4-1.6.8-2.3 1.2-.9.5-1.8.9-2.7 1.4-.4.2-.8.4-1.2.6 0 0 0 0-.1 0s0 0 0-.1c0-.5 0-.9 0-1.4 0-.1 0-.1.1-.1 1.5-.8 3-1.5 4.5-2.3 0 0 .1 0 .1-.1 0 0 0 0-.1-.1-1.5-.7-3-1.5-4.5-2.2-.1 0-.1-.1-.1-.2 0-.4 0-.9 0-1.4z" fill="#fefefe"/><path d="m4 2.9v1.5c0 .1 0 .1.1.1.6.3 1.3.6 1.9 1 .9.5 1.8.9 2.7 1.4h.1s0 0-.1 0c-1.5.7-3.1 1.5-4.6 2.3-.1 0-.1 0-.1.1v1.4.1c0-.5 0-.9 0-1.4 0-.1 0-.1.1-.1l3-1.5c.5-.3 1.1-.5 1.6-.8-.2-.3-.4-.4-.6-.5-.9-.5-1.8-.9-2.7-1.3-.4-.3-.9-.5-1.4-.7 0 0-.1 0-.1-.1.1-.5.1-1 .1-1.5z" fill="#c6ddb7"/><path d="m10.4 7.6c0-.5 0-1 0-1.5z" fill="#449a00"/><g fill="#5aa01c" transform="translate(3 2)"><path d="m1 7.2v1.5c0-.5 0-1 0-1.5z"/><path d="m1 .9v1.5c0-.5 0-1 0-1.5z"/></g></svg>