<svg viewBox="0 0 12 14" xmlns="http://www.w3.org/2000/svg" xmlns:xlink="http://www.w3.org/1999/xlink"><linearGradient id="a"><stop offset="0" stop-color="#0052cc"/><stop offset="1" stop-color="#2684ff"/></linearGradient><linearGradient id="b" gradientTransform="matrix(5.9 0 0 -6 1465.2 2043.9)" gradientUnits="userSpaceOnUse" x1="-247.822" x2="-247.822" xlink:href="#a" y1="340.303" y2="338.946"/><linearGradient id="c" gradientTransform="matrix(6 0 0 -6 1495 2038)" gradientUnits="userSpaceOnUse" x1="-248.667" x2="-248.667" xlink:href="#a" y1="339.32" y2="337.962"/><path d="M11.6 7.9H8.7c-.2 0-.3.1-.4.3-.2 1.2-1.2 2-2.3 2l.8 3.6c2.8-.4 5-2.7 5.2-5.5 0-.2-.2-.3-.4-.4zM6.6 7.9l4.1-3.6c.2-.1.2-.4 0-.5L6.6.2c-.1-.2-.4-.1-.5 0S6 .4 6 .5v7.1c0 .2.2.4.4.4.1-.1.2-.1.2-.1z" fill="#2684ff"/><path d="M.1 8.7c.4 3 2.9 5.2 5.9 5.2v-3.6c-1.3 0-2.4-1.1-2.4-2.4z" fill="url(#b)"/><path d="M0 7.9l3.6.1c0-1.3 1.1-2.4 2.4-2.4L5.2 2C2.3 2.4.1 4.9 0 7.9" fill="url(#c)"/></svg>