<?xml version="1.0" encoding="UTF-8"?>
<svg width="14px" height="12px" viewBox="0 0 14 12" version="1.1" xmlns="http://www.w3.org/2000/svg" xmlns:xlink="http://www.w3.org/1999/xlink">
    <!-- Generator: Sketch 59 (86127) - https://sketch.com -->
    <title>HDL/Icon/Standard/Service/azure</title>
    <desc>Created with Sketch.</desc>
    <g id="Colors" stroke="none" stroke-width="1" fill="none" fill-rule="evenodd">
        <g id="Service-icons" transform="translate(-121.000000, -408.000000)" fill="#2075B7">
            <g id="Azure" transform="translate(100.000000, 395.000000)">
                <g id="HDL/Icon/Standard/Service/azure" transform="translate(21.000000, 13.000000)">
                    <g id="Azure">
                        <g id="Group" fill-rule="nonzero">
                            <path d="M14,11.3 C10.5,11.3 7,11.3 3.5,11.3 C3.5,11.3 3.5,11.3 3.5,11.3 C5.6,10.9 7.7,10.6 9.8,10.2 C9.8,10.1 9.8,10.1 9.7,10.1 C8.6,8.7 7.5,7.4 6.5,6.2 C6.4,6.1 6.4,6 6.5,6 C6.9,4.9 7.3,3.9 7.6,2.8 C7.8,2.3 8,1.8 8.1,1.3 C8.1,1.3 8.1,1.2 8.2,1.2 C10.1,4.6 12,7.9 14,11.3 Z" id="Path"></path>
                            <path d="M7.7,0.5 C7.5,0.9 7.3,1.2 7.2,1.6 C6.2,3.7 5.3,5.7 4.3,7.8 C4,8.5 3.6,9.2 3.3,10 C3.3,10.1 3.2,10.1 3.1,10.1 C2.1,10.1 1.2,10.1 0.2,10.1 C-2.70616862e-16,10.1 -2.70616862e-16,10.1 0.1,10 C1.2,8 2.4,6.1 3.5,4.1 C3.5,4 3.6,3.9 3.7,3.8 C5,2.8 6.3,1.7 7.6,0.6 C7.6,0.6 7.6,0.5 7.7,0.5 Z" id="Path"></path>
                        </g>
                    </g>
                </g>
            </g>
        </g>
    </g>
</svg>