<svg enable-background="new 0 0 14 14" viewBox="0 0 14 14" xmlns="http://www.w3.org/2000/svg"><path d="m2.2 12.5.9-.2c.4.5.3.7.7 1 .6.5 1.4.3 1.7-.1.3-.5.3-.9.2-1.3l1-.2.1 1.1 5.9-1.1-.4-4.3h-.2l-.6-6.9-10.6 1.2z" fill="#fff"/><path d="m11.3 9.9-1.1-.8-.9 1.6-1.1-.3-1 1.5v.5l5.3-1-.3-3.3zm-4.9-1.4.8-.1c.1.1.2.1.4.1.3.1.6.1 1-.1.1-.1.3-.3.4-.4l3.5-.6.4 4.3-5.9 1.1zm6.4-1.6-.3.1-.7-6.8-11.2 1.3 1.4 11.2 1.3-.2c-.1-.1-.3-.3-.5-.6-.4-.3-.2-.9 0-1.2.3-.6 1.9-1.3 1.8-2.3 0-.3-.1-.8-.4-1.1v.2s-.2 0-.3-.3c0 0-.1-.1-.1-.2v.3s-.2-.2-.2-.5c-.1.1-.1.3-.1.3s-.1-.4-.1-.6-.2-.5-.2-1.4c.3.2 1.1.2 1.4-.3.1-.1.2-.5 0-1.3-.2-.4-.5-1.2-.6-1.4 0 .2.1.7.2.9.2.7.2.9.1 1.3 0 .2-.2.4-.6.6s-.9-.3-1-.3c-.4-.3-.7-.8-.7-1.1s.2-.4.3-.7c-.2.1-.3.2-.3.2s.2-.2.4-.4l.2-.2c-.1 0-.3 0-.3 0s.2-.1.5-.2c-.2 0-.4 0-.4 0s.6-.2 1-.4c.3-.1.6-.1.8.1.2.3.4.5.9.6.3-.1.4-.2.7-.3.3-.3.6-.4.6-.4s-.2.1-.2.3c.2-.1.4-.2.4-.2s-.1 0-.2.2c.3-.1.5-.2.5-.2s-.1.1-.1.2h.6c.7 0 .9-.8 1.2-.9s.4-.2 1 .4c.5.5.9 1.4.7 1.6s-.5-.1-.9-.5c-.1-.2-.3-.5-.3-.9-.1-.3-.3-.5-.3-.5s.1.3.1.5c0 .1 0 .7.2 1 0 0 0 .2-.1.2-.2-.2-.7-.4-.8-.5.3.3 1 .8 1.3 1.4.3.5.1 1 .2 1.1 0 0 .6.7.7 1 .2.6 0 1.2-.2 1.5l-.7.2c-.1 0-.2 0-.2-.1s.1-.3.1-.3v-.1c-.2.3-.5.5-.8.7-.4.2-.8.2-1.1.1-.7-.3-1.5-.8-1.6-.9v.1c.2.2.6.6 1.1.9l-.9.1.4 3.4c-.2 0-.2 0-.4.1-.2-.7-.5-1.1-.9-1.3-.3-.2-.8-.3-1.3-.2.3 0 .7 0 1.1.3.4.2.7.8.8 1.2.1.5.2 1-.1 1.5-.3.4-1.1.6-1.7.1.2.3.4.5.7.5.5.1.9 0 1.2-.3s.4-.8.4-1.4l.2-.1.1 1 6.7-.8zm-4.1-2.8v.2c.1.2.2.3.3.4h.1.3v-.1c0-.2 0-.6-.4-.7-.2-.1-.4 0-.4 0 .2.1.2.1.1.2zm1.2 1.9c-.1 0-.3 0-.5 0-.3 0-.7.2-.8.2-.1.1-.1.3 0 .4.4.2.6.4.9.3.2 0 .3-.3.4-.5s.1-.3 0-.4zm-2.9-1.7c.1-.1-.5-.2-.9.1-.3.2-.3.7 0 .9 0 0 .1 0 .1.1.1 0 .2-.1.3-.1.2-.1.4-.1.5-.1 0-.1.1-.2.1-.5-.1-.3-.3-.2-.1-.4z" fill="#7749a3"/></svg>