<svg enable-background="new 0 0 14 14" viewBox="0 0 14 14" xmlns="http://www.w3.org/2000/svg"><g fill="#e01e5a" transform="translate(0 7)"><path d="m3 1.8c0 .8-.7 1.5-1.5 1.5s-1.5-.7-1.5-1.5.7-1.4 1.5-1.4h1.5z"/><path d="m3.7 1.8c0-.8.7-1.5 1.5-1.5s1.4.7 1.4 1.5v3.7c0 .8-.6 1.5-1.4 1.5s-1.5-.7-1.5-1.5z"/></g><g fill="#36c5f0"><path d="m5.2 3c-.8 0-1.5-.7-1.5-1.5s.7-1.5 1.5-1.5 1.5.7 1.5 1.5v1.5z"/><path d="m5.2 3.7c.8 0 1.5.7 1.5 1.5s-.7 1.4-1.5 1.4h-3.7c-.8 0-1.5-.6-1.5-1.4s.7-1.5 1.5-1.5z"/></g><g fill="#2eb67d" transform="translate(7)"><path d="m4 5.2c0-.8.7-1.5 1.5-1.5s1.5.7 1.5 1.5-.7 1.5-1.5 1.5h-1.5z"/><path d="m3.3 5.2c0 .8-.7 1.5-1.5 1.5-.8-.1-1.4-.7-1.4-1.5v-3.7c0-.8.6-1.5 1.4-1.5s1.5.7 1.5 1.5z"/></g><g fill="#ecb22e" transform="translate(7 7)"><path d="m1.8 4c.8 0 1.5.7 1.5 1.5s-.7 1.5-1.5 1.5-1.5-.7-1.5-1.5v-1.5z"/><path d="m1.8 3.3c-.8 0-1.5-.7-1.5-1.5.1-.8.7-1.4 1.5-1.4h3.7c.8 0 1.5.6 1.5 1.4s-.7 1.5-1.5 1.5z"/></g></svg>