<?xml version="1.0" encoding="UTF-8"?>
<svg width="14px" height="12px" viewBox="0 0 14 12" version="1.1" xmlns="http://www.w3.org/2000/svg" xmlns:xlink="http://www.w3.org/1999/xlink">
    <!-- Generator: Sketch 59 (86127) - https://sketch.com -->
    <title>HDL/Icon/Standard/Service/stackdriver</title>
    <desc>Created with Sketch.</desc>
    <g id="Colors" stroke="none" stroke-width="1" fill="none" fill-rule="evenodd">
        <g id="Service-icons" transform="translate(-621.000000, -268.000000)">
            <g id="StackDriver" transform="translate(600.000000, 252.000000)">
                <g id="HDL/Icon/Standard/Service/stackdriver" transform="translate(21.000000, 16.000000)">
                    <g id="StackDriver">
                        <path d="M10.3,0.2 C10.4,0.1 10.4,0.2 10.4,0.3 C11.1,1.4 11.7,2.6 12.4,3.7 C12.8,4.4 13.3,5.2 13.7,5.9 C13.8,6 13.8,6.1 13.7,6.2 C12.6,8.1 11.5,9.9 10.4,11.8 C10.4,11.8 10.4,12 10.3,11.9 C10.1,11.8 10.1,11.6 10,11.4 C9,9.7 8.1,8 7.1,6.4 C7.1,6.2 7,6.1 7,6 C7,5.8 7.2,5.7 7.3,5.5 C8.3,3.8 9.2,2.2 10.2,0.5 C10.2,0.4 10.2,0.3 10.3,0.2 Z" id="Path" fill="#8BC53F" fill-rule="nonzero"></path>
                        <path d="M10.3,0.2 C10.1,0.6 9.9,1 9.7,1.3 C9.1,2.4 8.4,3.5 7.8,4.6 C7.5,5.1 7.3,5.5 7,6 C7,6 7,6 6.9,6 C6.8,6 6.7,6 6.6,6 C4.6,6 2.5,6 0.5,6 C0.4,6 0.3,6 0.2,5.9 C0.4,5.5 0.6,5.1 0.8,4.8 C1.7,3.3 2.6,1.8 3.5,0.3 C3.5,0.2 3.6,0.2 3.7,0.2 C5.9,0.2 8.1,0.2 10.3,0.2 C10.3,0.2 10.3,0.2 10.3,0.2 Z" id="Path" fill="#39B44A" fill-rule="nonzero"></path>
                        <path d="M0.2,6 C2.5,6 4.7,6 7,6 C7.1,6.1 7,6.1 7,6.2 C6.4,7.1 5.9,8 5.4,8.9 C4.9,9.8 4.3,10.7 3.8,11.7 C3.8,11.8 3.7,11.8 3.7,11.9 C3.6,11.9 3.6,11.8 3.6,11.8 C2.7,10.2 1.7,8.6 0.8,7 C0.5,6.6 0.3,6.3 0.2,6 Z" id="Path" fill="#006837" fill-rule="nonzero"></path>
                        <path d="M3.6,11.8 C4,11.1 4.4,10.4 4.8,9.6 C5.3,8.8 5.7,8 6.2,7.2 C6.4,6.8 6.6,6.5 6.8,6.1 C6.9,6.1 7,6.1 7,6 C7,6 7,6 7,6 C8.1,7.9 9.2,9.8 10.3,11.7 C10.3,11.7 10.3,11.8 10.4,11.8 C9,11.8 7.6,11.8 6.3,11.8 C5.4,11.8 4.5,11.8 3.6,11.8 Z" id="Path" fill="#009145" fill-rule="nonzero"></path>
                    </g>
                </g>
            </g>
        </g>
    </g>
</svg>