<svg viewBox="0 0 12 14" xmlns="http://www.w3.org/2000/svg"><path d="M.3 11.1l.7.4.1-.2V2.6L.3 3z" fill="#9d5025"/><path d="M2.5 3l-1.4-.4v8.8l1.4-.3z" fill="#f68536"/><path d="M6.8 3.6l1-.5 3.3 1.3-.9.1z" fill="#6b3a19"/><path d="M6.8 10.4l1 .5 3.3-1.3-.9-.1z" fill="#fbbf93"/><path d="M7 9l1.7.2.1-.2V4.8L7 5.1zM1.9 2.2L3 1.6l.1.2v10.3l-.1.3-1.1-.5z" fill="#9d5025"/><path d="M5.2 11.7l-2.2.7V1.6l2.2.7z" fill="#f68536"/><path d="M4.3 13.1l1.7.8.2-.2V.4L6 .1 4.3 1zm5.8-8.6l.9-.1.1.1v5l-.1.2-.9-.1z" fill="#9d5025"/><g fill="#f68536"><path d="M8.8 4.8v4.4L10.6 7z"/><path d="M11 2.6L6 .1v13.8l5.7-2.9V3zm0 7.1l-3.3 1V3.4l3.3 1z"/></g></svg>