<?xml version="1.0" encoding="UTF-8"?>
<svg width="14px" height="12px" viewBox="0 0 14 12" version="1.1" xmlns="http://www.w3.org/2000/svg" xmlns:xlink="http://www.w3.org/1999/xlink">
    <!-- Generator: Sketch 59 (86127) - https://sketch.com -->
    <title>HDL/Icon/Standard/Service/gcp</title>
    <desc>Created with Sketch.</desc>
    <defs>
        <polygon id="path-1" points="1.3671875e-05 0.0114368421 9.14353125 0.0114368421 9.14353125 8.52631579 1.3671875e-05 8.52631579"></polygon>
    </defs>
    <g id="Colors" stroke="none" stroke-width="1" fill="none" fill-rule="evenodd">
        <g id="Service-icons" transform="translate(-122.000000, -878.000000)">
            <g id="GCP" transform="translate(101.000000, 861.000000)">
                <g id="HDL/Icon/Standard/Service/gcp" transform="translate(21.000000, 17.000000)">
                    <g id="GCP">
                        <polygon id="Fill-1" fill="#CAC9C2" points="4.50002782 11 2 6.50002891 4.50002782 2 9.49997218 2 12 6.50002891 9.49997218 11"></polygon>
                        <g id="Group-29">
                            <path d="M6.98662891,7.82254211 C5.93033984,7.82254211 5.07103516,6.99548947 5.07103516,5.97896316 C5.07103516,4.96243684 5.93033984,4.13538421 6.98662891,4.13538421 C8.04286328,4.13538421 8.90216797,4.96243684 8.90216797,5.97896316 C8.90216797,6.99548947 8.04286328,7.82254211 6.98662891,7.82254211" id="Fill-2" fill="#FFFFFF"></path>
                            <path d="M10.8403531,0.482589474 C10.6897437,0.231536842 10.3200562,0.0261684211 10.0188375,0.0261684211 L3.96257969,0.0261684211 C3.66141563,0.0261684211 3.29172813,0.231536842 3.14111875,0.482589474 L1.37148594,3.43248421 C1.35759531,3.62306316 1.3939625,3.82211579 1.48124375,3.96758947 L2.67911875,5.93864211 L4.81750938,2.38327368 L11.5763375,2.38327368 C11.7361891,2.38327368 11.9151266,2.44148421 12.0706578,2.53332632 L10.8403531,0.482589474" id="Fill-4" fill="#5072AA"></path>
                            <path d="M1.44842578,3.30336316 L1.37098828,3.43246842 C1.35709766,3.62304737 1.39346484,3.8221 1.48074609,3.96757368 L2.67862109,5.93862632 L3.31589453,4.87904737 L1.44842578,3.30336316" id="Fill-6" fill="#4D6796"></path>
                            <path d="M4.11868516,1.54158421 C3.91491953,1.54158421 3.74910703,1.38200526 3.74910703,1.1859 C3.74910703,0.989742105 3.91491953,0.830163158 4.11868516,0.830163158 C4.32250547,0.830163158 4.48826328,0.989742105 4.48826328,1.1859 C4.48826328,1.38200526 4.32250547,1.54158421 4.11868516,1.54158421" id="Fill-8" fill="#FFFFFF"></path>
                            <path d="M10.1748664,1.18587368 C10.1748664,1.36776842 10.021632,1.51524211 9.83263203,1.51524211 C9.64363203,1.51524211 9.49039766,1.36776842 9.49039766,1.18587368 C9.49039766,1.00397895 9.64363203,0.856505263 9.83263203,0.856505263 C10.021632,0.856505263 10.1748664,1.00397895 10.1748664,1.18587368" id="Fill-10" fill="#FFFFFF"></path>
                            <path d="M13.8685203,5.53036316 L12.0706688,2.53331053 C11.9151375,2.44152105 11.7362,2.38325789 11.5762938,2.38325789 L9.13898125,2.38325789 L11.2464734,5.95825789 L7.90987969,11.6315737 C7.83643438,11.7539421 7.71087188,11.8652579 7.56671563,11.9473632 L10.0188484,11.9473632 C10.3200672,11.9473632 10.6897547,11.7419947 10.8403641,11.4909947 L13.8685203,6.44325789 C14.0191297,6.19220526 14.0191297,5.78141579 13.8685203,5.53036316" id="Fill-12" fill="#CC4232"></path>
                            <path d="M12.1518031,2.66775789 L12.0711937,2.53333684 C11.9157719,2.44149474 11.7368344,2.38328421 11.5769281,2.38328421 L9.13961563,2.38328421 L9.77404531,3.45944211 L12.1518031,2.66775789" id="Fill-14" fill="#B23F33"></path>
                            <path d="M9.83265391,11.0754895 C9.62883359,11.0754895 9.46307578,10.9159105 9.46307578,10.7198053 C9.46307578,10.5236474 9.62883359,10.3640684 9.83265391,10.3640684 C10.0364195,10.3640684 10.202232,10.5236474 10.202232,10.7198053 C10.202232,10.9159105 10.0364195,11.0754895 9.83265391,11.0754895" id="Fill-16" fill="#FFFFFF"></path>
                            <path d="M12.7089539,6.33464737 C12.5051883,6.33464737 12.3393758,6.17512105 12.3393758,5.97896316 C12.3393758,5.78280526 12.5051883,5.62322632 12.7089539,5.62322632 C12.9127742,5.62322632 13.078532,5.78280526 13.078532,5.97896316 C13.078532,6.17512105 12.9127742,6.33464737 12.7089539,6.33464737" id="Fill-18" fill="#FFFFFF"></path>
                            <g id="Group-22" transform="translate(0.000000, 3.421053)">
                                <mask id="mask-2" fill="white">
                                    <use xlink:href="#path-1"></use>
                                </mask>
                                <g id="Clip-21"></g>
                                <path d="M4.86407031,6.11275263 L1.48121094,0.546542105 C1.39392969,0.401068421 1.35761719,0.202015789 1.37150781,0.0114368421 L0.112929687,2.10933158 C-0.037625,2.36038421 -0.037625,2.77117368 0.112929687,3.02217368 L3.14114062,8.06991053 C3.29169531,8.32091053 3.66138281,8.52633158 3.96260156,8.52633158 L7.56667187,8.52633158 C7.71088281,8.44417368 7.83644531,8.33285789 7.90989062,8.21054211 L9.14353125,6.11275263 L4.86407031,6.11275263" id="Fill-20" fill="#ECB02A" mask="url(#mask-2)"></path>
                            </g>
                            <path d="M7.36181797,11.9473684 L7.57138047,11.9473684 C7.71559141,11.8652105 7.84115391,11.7539474 7.91454453,11.6315789 L9.14829453,9.53378947 L7.83448203,9.53378947 L7.36181797,11.9473684" id="Fill-23" fill="#C79732"></path>
                            <path d="M4.11868516,11.0754895 C3.91491953,11.0754895 3.74910703,10.9159105 3.74910703,10.7198053 C3.74910703,10.5236474 3.91491953,10.3640684 4.11868516,10.3640684 C4.32250547,10.3640684 4.48826328,10.5236474 4.48826328,10.7198053 C4.48826328,10.9159105 4.32250547,11.0754895 4.11868516,11.0754895" id="Fill-25" fill="#FFFFFF"></path>
                            <path d="M1.23722813,6.33464737 C1.0334625,6.33464737 0.86765,6.17512105 0.86765,5.97896316 C0.86765,5.78280526 1.0334625,5.62322632 1.23722813,5.62322632 C1.44104844,5.62322632 1.60680625,5.78280526 1.60680625,5.97896316 C1.60680625,6.17512105 1.44104844,6.33464737 1.23722813,6.33464737" id="Fill-27" fill="#FFFFFF"></path>
                        </g>
                    </g>
                </g>
            </g>
        </g>
    </g>
</svg>