<svg viewBox="0 0 14 14" xmlns="http://www.w3.org/2000/svg"><g fill="#277a9e"><path d="M7.5 1.3c0 .2 0 .4-.1.6 0 .1 0 .2.1.2.7.1 1.4.3 2 .7.1.1.2 0 .2-.1.2-.5.5-.9.9-1.2.2-.1.3-.3.5-.1.2.1.1.4.1.6-.1.5-.4.9-.8 1.2-.2.1-.1.2 0 .3.3.2.5.5.7.8.1.1.1.2-.1.2-.2.1-.3.3-.5.3s-.2-.3-.3-.4c-1.7-2.1-5-2.1-6.7.2-.1.1-.2.2-.3 0-.5-.3-.5-.3-.2-.7.1-.2.3-.3.5-.5.1-.1.1-.2 0-.3-.3-.3-.6-.7-.7-1.2-.1-.1-.2-.4 0-.5s.4 0 .5.1c.5.3.7.7.9 1.1.1.1.1.2.3.1.6-.4 1.2-.6 1.9-.6.2 0 .2-.1.2-.2-.1-.5-.1-1 0-1.4.1-.2.2-.5.4-.5.3 0 .3.3.4.5s.1.5.1.8zM9.7 11.2c-.7.4-1.3.7-2.1.8-.2 0-.2.1-.1.2.1.5.1.9-.1 1.4-.1.2-.2.4-.4.4s-.3-.2-.3-.4c-.2-.4-.2-.9-.1-1.4 0-.2 0-.2-.2-.2-.7-.1-1.4-.3-1.9-.6-.2-.1-.2 0-.2.1-.2.4-.5.8-.8 1-.2.1-.3.3-.5.1-.2-.1-.1-.4-.1-.5.1-.4.4-.8.7-1.2.1-.1.1-.2 0-.3-.2-.2-.4-.4-.5-.6-.3-.1-.2-.1-.1-.2.2-.1.3-.3.5-.3s.3.2.4.4c1.8 1.9 4.8 1.8 6.4-.2.1-.2.2-.2.4-.1.5.3.5.3.1.8-.1.1-.3.2-.3.3s.2.2.3.3c.3.3.5.6.6 1v.3c0 .2-.1.3-.4.2s-.5-.4-.8-.6c-.2-.1-.3-.4-.5-.7zM12 7.4c.2-.7.5-1.3.7-1.9.1-.1.1-.2.3-.2h.7c.1 0 .1 0 .1.1v3.3c0 .1 0 .1-.1.1-.2 0-.5.1-.7 0s0-.4 0-.7V6.8c-.1.2-.2.5-.3.7-.1.3-.2.5-.3.8 0 .1-.1.2-.3.2-.1 0-.2 0-.3-.2l-.6-1.5v1.7c0 .2 0 .2-.2.2s-.5.1-.6-.1c-.1-.1 0-.4 0-.6V5.3c0-.2.1-.2.2-.2.3 0 .6-.1.7 0 .2.1.2.4.3.7 0 .7.2 1.1.4 1.6zM3.3 7.1v1.6c0 .2 0 .2-.2.2h-.6c-.2 0-.2-.1-.2-.2V7.6c0-.1 0-.2-.2-.2h-.8c-.1 0-.2.1-.2.2v1.1c0 .1 0 .2-.2.2H.3c-.1 0-.2 0-.2-.2V5.4c0-.1 0-.2.2-.2h.6c.1 0 .2 0 .2.2v1c0 .2 0 .2.2.2H2c.2 0 .2 0 .2-.2v-1c0-.1 0-.2.2-.2h.5c.2 0 .2 0 .2.2.2.7.2 1.2.2 1.7zM4.1 7.1V5.5c0-.2 0-.2.2-.2h1.9c.1 0 .2 0 .2.2 0 .6 0 .6-.6.6h-.6c-.1 0-.2 0-.2.2 0 .4 0 .4.4.4h.5c.3 0 .3.1.3.3 0 .5 0 .5-.5.5h-.2c-.5 0-.5 0-.5.5 0 .1 0 .2.2.2h1.1c.1 0 .2 0 .2.2 0 .6 0 .6-.6.6H4.4c-.2 0-.3 0-.3-.3V7.1zM7.2 7.1V5.5c0-.2 0-.3.2-.2.2 0 .5-.1.7.1.1.1 0 .4 0 .7V8c0 .2 0 .2.2.2h1c.1 0 .2 0 .2.2 0 .6 0 .6-.6.6H7.4c-.2 0-.2-.1-.2-.2V7.1z"/></g></svg>