<?xml version="1.0" encoding="utf-8"?>
<!-- Generator: Adobe Illustrator 20.1.0, SVG Export Plug-In . SVG Version: 6.00 Build 0)  -->
<svg version="1.1" id="Layer_1" xmlns="http://www.w3.org/2000/svg" xmlns:xlink="http://www.w3.org/1999/xlink" x="0px" y="0px"
	 viewBox="0 0 14 14" style="enable-background:new 0 0 14 14;" xml:space="preserve">
<style type="text/css">
	.st0{fill:#F42534;}
</style>
<title>HDL/Icon/Standard/Service/github</title>
<desc>Created with Sketch.</desc>
<g id="Colors">
	<g id="Service-icons" transform="translate(-122.000000, -923.000000)">
		<g id="GitHub_1_" transform="translate(101.000000, 905.000000)">
			<g id="HDL_x2F_Icon_x2F_Standard_x2F_Service_x2F_github" transform="translate(21.000000, 18.000000)">
				<g id="GitHub">
					<path id="Path" class="st0" d="M13.6,6.4l-6-6c-0.3-0.3-0.9-0.3-1.2,0L5.1,1.6l1.6,1.6c0.4-0.1,0.8,0,1.1,0.3S8.2,4.2,8,4.6
						l1.5,1.5c0.4-0.1,0.8,0,1.1,0.2c0.4,0.4,0.4,1.1,0,1.5c-0.4,0.4-1.1,0.4-1.5,0C8.8,7.5,8.8,7.1,8.9,6.7L7.5,5.3V9
						c0.1,0,0.2,0.1,0.3,0.2c0.4,0.4,0.4,1.1,0,1.5c-0.4,0.4-1.1,0.4-1.5,0c-0.4-0.4-0.4-1.1,0-1.5C6.4,9.1,6.5,9,6.6,9V5.2
						C6.5,5.1,6.4,5.1,6.3,5C6,4.6,5.9,4.2,6.1,3.8L4.5,2.3L0.4,6.4c-0.3,0.3-0.3,0.9,0,1.2l6,6c0.3,0.3,0.9,0.3,1.2,0l6-6
						C13.9,7.3,13.9,6.7,13.6,6.4z"/>
				</g>
			</g>
		</g>
	</g>
</g>
</svg>
