<?xml version="1.0" encoding="utf-8"?>
<!-- Generator: Adobe Illustrator 20.1.0, SVG Export Plug-In . SVG Version: 6.00 Build 0)  -->
<svg version="1.1" id="Layer_1" xmlns="http://www.w3.org/2000/svg" xmlns:xlink="http://www.w3.org/1999/xlink" x="0px" y="0px"
	 viewBox="0 0 14 12" style="enable-background:new 0 0 14 12;" xml:space="preserve">
<style type="text/css">
	.st0{fill:#2075B7;}
</style>
<title>HDL/Icon/Standard/Service/azure</title>
<desc>Created with Sketch.</desc>
<g id="Colors">
	<g id="Service-icons" transform="translate(-121.000000, -408.000000)">
		<g id="Azure_1_" transform="translate(100.000000, 395.000000)">
			<g id="HDL_x2F_Icon_x2F_Standard_x2F_Service_x2F_azure" transform="translate(21.000000, 13.000000)">
				<g id="Azure">
					<g id="Group">
						<path id="Path" class="st0" d="M14,11.3c-3.5,0-7,0-10.5,0l0,0c2.1-0.4,4.2-0.7,6.3-1.1c0-0.1,0-0.1-0.1-0.1
							C8.6,8.7,7.5,7.4,6.5,6.2C6.4,6.1,6.4,6,6.5,6c0.4-1.1,0.8-2.1,1.1-3.2c0.2-0.5,0.4-1,0.5-1.5c0,0,0-0.1,0.1-0.1
							C10.1,4.6,12,7.9,14,11.3z"/>
						<path id="Path_1_" class="st0" d="M7.7,0.5C7.5,0.9,7.3,1.2,7.2,1.6c-1,2.1-1.9,4.1-2.9,6.2C4,8.5,3.6,9.2,3.3,10
							c0,0.1-0.1,0.1-0.2,0.1c-1,0-1.9,0-2.9,0c-0.2,0-0.2,0-0.1-0.1c1.1-2,2.3-3.9,3.4-5.9c0-0.1,0.1-0.2,0.2-0.3
							c1.3-1,2.6-2.1,3.9-3.2C7.6,0.6,7.6,0.5,7.7,0.5z"/>
					</g>
				</g>
			</g>
		</g>
	</g>
</g>
</svg>
