<?xml version="1.0" encoding="UTF-8"?>
<svg width="14px" height="14px" viewBox="0 0 14 14" version="1.1" xmlns="http://www.w3.org/2000/svg" xmlns:xlink="http://www.w3.org/1999/xlink">
    <!-- Generator: Sketch 59 (86127) - https://sketch.com -->
    <title>HDL/Icon/Standard/Service/nexus</title>
    <desc>Created with Sketch.</desc>
    <g id="Colors" stroke="none" stroke-width="1" fill="none" fill-rule="evenodd">
        <g id="Service-icons" transform="translate(-121.000000, -1299.000000)">
            <g id="Nexus" transform="translate(100.000000, 1285.000000)">
                <g id="HDL/Icon/Standard/Service/nexus" transform="translate(21.000000, 14.000000)">
                    <g id="Nexus">
                        <path d="M13.5,3.1 C13.7,3.3 13.8,3.5 13.8,3.8 C13.7,4.2 13.5,4.3 13.1,4.3 C10.6,4.3 8,4.3 5.5,4.3 C4.1,4.3 2.7,4.3 1.3,4.3 C1.2,4.3 1.1,4.3 1,4.3 C0.8,4.3 0.7,4.3 0.5,4.2 L0.5,4.2 C0.2,4 0.1,3.7 0.2,3.4 C0.3,3.2 0.5,3 0.7,3 C1,3 1.3,2.9 1.6,2.9 C2,2.9 2.5,2.9 2.9,2.9 C6.2,3 9.6,2.9 12.9,3 C13.2,2.9 13.4,2.9 13.5,3.1 Z" id="Path" fill="#346898" fill-rule="nonzero"></path>
                        <path d="M13.8,10.3 C13.8,10.4 13.8,10.5 13.8,10.5 C13.8,10.9 13.4,11.1 13,11.1 C11.5,11.1 9.9,11.1 8.4,11.1 C6.4,11.1 4.4,11.1 2.4,11.1 C1.9,11.1 1.4,11.1 0.9,11.1 C0.6,11.1 0.4,11 0.2,10.7 C0.1,10.5 0.1,10.2 0.2,10 C0.4,9.8 0.7,9.6 1,9.7 C1.1,9.7 1.2,9.7 1.3,9.7 C5.2,9.7 9,9.7 12.9,9.7 C13,9.7 13.1,9.7 13.2,9.7 C13.5,9.7 13.7,9.9 13.8,10.3 Z" id="Path" fill="#040608" fill-rule="nonzero"></path>
                        <path d="M13.8,8.1 C13.8,8.4 13.7,8.6 13.5,8.8 C13.4,8.9 13.2,8.9 13.1,8.9 C9.6,8.9 6,8.9 2.5,8.9 C2,8.9 1.5,8.9 0.9,8.9 C0.6,8.9 0.2,8.7 0.2,8.5 C0.1,8.1 0.1,7.8 0.5,7.6 C0.6,7.5 0.7,7.5 0.8,7.5 C1.1,7.6 1.3,7.5 1.6,7.5 C5.4,7.5 9.2,7.5 13,7.5 C13.2,7.5 13.5,7.5 13.7,7.7 C13.7,7.8 13.8,7.9 13.8,8.1 Z" id="Path" fill="#040608" fill-rule="nonzero"></path>
                        <path d="M13.4,5.3 C13.7,5.5 13.8,5.7 13.8,6 C13.8,6.3 13.5,6.6 13.1,6.6 C12.7,6.6 12.4,6.6 12,6.6 C8.4,6.6 4.7,6.6 1.1,6.6 C0.9,6.6 0.6,6.7 0.4,6.5 C-4.16333634e-16,6.3 -4.16333634e-16,5.5 0.6,5.3 C1.2,5.3 1.7,5.3 2.3,5.3 C5.9,5.3 9.4,5.3 13,5.3 C13.1,5.3 13.3,5.2 13.4,5.3 Z" id="Path" fill="#346898" fill-rule="nonzero"></path>
                        <path d="M13.8,12.5 C13.8,12.6 13.8,12.7 13.8,12.7 C13.7,13.1 13.5,13.2 13,13.2 C9.1,13.2 5.2,13.2 1.3,13.2 C1.1,13.2 1,13.2 0.8,13.2 C0.5,13.2 0.3,13 0.2,12.8 C0.1,12.6 0.2,12.2 0.4,12 C0.6,11.8 0.8,11.8 1.1,11.8 C1.5,11.8 2,11.8 2.4,11.8 C6,11.8 9.5,11.8 13.1,11.8 C13.5,12 13.7,12.1 13.8,12.5 Z" id="Path" fill="#040608" fill-rule="nonzero"></path>
                        <path d="M13.5,1.9 C13.2,2 13,2 12.8,2 C10.1,2 7.4,2 4.7,2 C4.5,2 4.4,2 4.4,2 C4,2 3.6,2 3.2,2 C2.4,2 1.6,2 0.9,2 C0.4,2 0.2,1.7 0.2,1.3 C0.2,1 0.5,0.7 0.8,0.7 C0.8,0.7 0.9,0.7 0.9,0.7 C5,0.7 9,0.7 13.1,0.7 C13.4,0.7 13.6,0.8 13.7,1 C13.8,1.2 13.8,1.4 13.7,1.7 C13.7,1.7 13.6,1.8 13.5,1.9 Z" id="Path" fill="#346898" fill-rule="nonzero"></path>
                    </g>
                </g>
            </g>
        </g>
    </g>
</svg>