<?xml version="1.0" encoding="UTF-8"?>
<svg width="14px" height="14px" viewBox="0 0 14 14" version="1.1" xmlns="http://www.w3.org/2000/svg" xmlns:xlink="http://www.w3.org/1999/xlink">
    <!-- Generator: Sketch 59 (86127) - https://sketch.com -->
    <title>HDL/Icon/Standard/Service/elk</title>
    <desc>Created with Sketch.</desc>
    <g id="Colors" stroke="none" stroke-width="1" fill="none" fill-rule="evenodd">
        <g id="Service-icons" transform="translate(-122.000000, -831.000000)">
            <g id="Elk" transform="translate(101.000000, 813.000000)">
                <g id="HDL/Icon/Standard/Service/elk" transform="translate(21.000000, 18.000000)">
                    <g id="ELK">
                        <path d="M13.7,7.3 C13.7,6.2 13,5.2 11.9,4.8 C11.9,4.6 12,4.3 12,4.1 C12,2 10.3,0.3 8.2,0.3 C7,0.3 5.9,0.9 5.2,1.9 C4.8,1.6 4.4,1.4 3.9,1.4 C2.8,1.4 1.9,2.3 1.9,3.4 C1.9,3.6 1.9,3.9 2,4.1 C1,4.5 0.3,5.6 0.3,6.7 C0.3,7.8 1,8.8 2,9.2 L2,9.9 C2,12 3.7,13.7 5.8,13.7 C7,13.7 8.2,13.1 8.9,12.1 C9.3,12.4 9.7,12.5 10.1,12.5 C11.2,12.5 12.1,11.6 12.1,10.5 C12.1,10.3 12.1,10 12,9.8 C13,9.5 13.7,8.4 13.7,7.3" id="Path" fill="#FFFFFF" fill-rule="nonzero"></path>
                        <path d="M5.6,6.1 L8.6,7.4 L11.6,4.8 C11.6,4.6 11.7,4.4 11.7,4.1 C11.7,2.3 10.2,0.8 8.4,0.8 C7.3,0.8 6.3,1.3 5.7,2.2 L5,4.8 L5.6,6.1 Z" id="Path" fill="#FFD106" fill-rule="nonzero"></path>
                        <path d="M2.5,9.2 C2.5,9.4 2.4,9.6 2.4,9.9 C2.4,11.7 3.9,13.2 5.7,13.2 C6.8,13.2 7.8,12.7 8.5,11.7 L9,9.2 L8.4,7.9 L5.4,6.5 L2.5,9.2 Z" id="Path" fill="#21BAB0" fill-rule="nonzero"></path>
                        <path d="M2.5,4.1 L4.5,4.6 L5,2.3 C4.7,2.1 4.3,1.9 4,1.9 C3.1,1.9 2.4,2.6 2.4,3.5 C2.4,3.7 2.4,3.9 2.5,4.1" id="Path" fill="#EE4F97" fill-rule="nonzero"></path>
                        <path d="M2.3,4.6 C1.4,4.9 0.8,5.7 0.8,6.7 C0.8,7.6 1.4,8.5 2.2,8.8 L5,6.2 L4.5,5.1 L2.3,4.6 Z" id="Path" fill="#14A7DF" fill-rule="nonzero"></path>
                        <path d="M9.1,11.7 C9.4,11.9 9.7,12 10.1,12 C11,12 11.7,11.3 11.7,10.4 C11.7,10.2 11.7,10 11.6,9.8 L9.6,9.3 L9.1,11.7 Z" id="Path" fill="#91C73E" fill-rule="nonzero"></path>
                        <path d="M9.5,8.9 L11.7,9.4 C12.6,9.1 13.2,8.2 13.2,7.3 C13.2,6.4 12.6,5.5 11.8,5.2 L8.9,7.8 L9.5,8.9 Z" id="Path" fill="#0279A0" fill-rule="nonzero"></path>
                    </g>
                </g>
            </g>
        </g>
    </g>
</svg>