<svg enable-background="new 0 0 12 14" viewBox="0 0 12 14" xmlns="http://www.w3.org/2000/svg"><path d="m.3 11.1.7.4.1-.2v-8.5-.2l-.8.4z" fill="#9d5025"/><path d="m2.5 3-1.4-.4v8.8l1.4-.3z" fill="#f68536"/><path d="m6.8 3.6 1-.5 3.3 1.3-.9.1z" fill="#6b3a19"/><path d="m6.8 10.4 1 .5 3.3-1.3-.9-.1z" fill="#fbbf93"/><path d="m7 9 1.7.2.1-.2v-4-.2l-1.8.3zm-5.1-6.8 1.1-.6.1.2v10.3l-.1.3-1.1-.5z" fill="#9d5025"/><path d="m5.2 11.7-2.2.7v-10.8l2.2.7z" fill="#f68536"/><path d="m4.3 13.1 1.7.8.2-.2v-13.3l-.2-.3-1.7.9zm5.8-8.6.9-.1.1.1v5l-.1.2-.9-.1z" fill="#9d5025"/><g fill="#f68536"><path d="m8.8 4.8v4.4l1.8-2.2z"/><path d="m11 2.6-5-2.5v13.8l5.7-2.9v-8zm0 7.1-3.3 1v-7.3l3.3 1z"/></g></svg>