<svg viewBox="0 0 14 14" xmlns="http://www.w3.org/2000/svg"><path d="M13.5 3.1c.2.2.3.4.3.7-.1.4-.3.5-.7.5H1c-.2 0-.3 0-.5-.1-.3-.2-.4-.5-.3-.8.1-.2.3-.4.5-.4.3 0 .6-.1.9-.1h1.3c3.3.1 6.7 0 10 .1.3-.1.5-.1.6.1z" fill="#346898"/><path d="M13.8 10.3v.2c0 .4-.4.6-.8.6H.9c-.3 0-.5-.1-.7-.4-.1-.2-.1-.5 0-.7.2-.2.5-.4.8-.3H13.2c.3 0 .5.2.6.6zM13.8 8.1c0 .3-.1.5-.3.7-.1.1-.3.1-.4.1H.9c-.3 0-.7-.2-.7-.4-.1-.4-.1-.7.3-.9.1-.1.2-.1.3-.1.3.1.5 0 .8 0H13c.2 0 .5 0 .7.2 0 .1.1.2.1.4z" fill="#040608"/><path d="M13.4 5.3c.3.2.4.4.4.7s-.3.6-.7.6h-12c-.2 0-.5.1-.7-.1-.4-.2-.4-1 .2-1.2H13c.1 0 .3-.1.4 0z" fill="#346898"/><path d="M13.8 12.5v.2c-.1.4-.3.5-.8.5H.8c-.3 0-.5-.2-.6-.4s0-.6.2-.8.4-.2.7-.2h12c.4.2.6.3.7.7z" fill="#040608"/><path d="M13.5 1.9c-.3.1-.5.1-.7.1H.9c-.5 0-.7-.3-.7-.7C.2 1 .5.7.8.7H13.1c.3 0 .5.1.6.3s.1.4 0 .7l-.2.2z" fill="#346898"/></svg>