<svg viewBox="0 0 14 11" xmlns="http://www.w3.org/2000/svg"><path d="M8.2 8.5c0-2.2-1.8-4-4-4s-4 1.8-4 4c0 .4 0 .7.1 1.1 0 .1.1.3.1.4h1.3c.1 0 .2-.1.2-.2v-.1c0-.1-.1-.2-.1-.2-.6-1.4 0-2.9 1.4-3.5S6 6 6.6 7.4c.3.7.3 1.5 0 2.1 0 .1-.1.2-.1.3s0 .2.1.2H7.8c.1 0 .1 0 .1-.1.1-.1.1-.2.1-.4.1-.3.2-.7.2-1z" fill="#008774"/><path d="M8.7 3.1c-2.8 0-5.1 2.3-5.1 5.1 0 .4.1.9.2 1.3 0 .1.1.3.1.4.1.1.1.1.2.1h1.1c.1 0 .2-.1.2-.2v-.1c0-.1-.1-.2-.1-.3-.7-2 .3-4.1 2.3-4.8s4 .4 4.7 2.4c.3.8.3 1.7 0 2.6 0 .1-.1.2-.1.3s0 .2.1.2H13.5c.1 0 .1 0 .1-.1s.1-.3.1-.4c.7-2.7-.9-5.5-3.6-6.2-.5-.2-.9-.3-1.4-.3z" fill="#00ae9e"/><path d="M11.6 4.5C11.6 2 9.5 0 7.1 0 4.6 0 2.5 2 2.5 4.5v.4h1.3C3.7 3.1 5 1.6 6.7 1.4c1.8-.2 3.3 1.1 3.5 2.9v.4c0 .6-.3 1.2-.6 1.7-.1.1 0 .2 0 .2h1.3c.1 0 .1 0 .2-.1.3-.6.5-1.3.5-2z" fill="#008774"/></svg>