<?xml version="1.0" encoding="utf-8"?>
<!-- Generator: Adobe Illustrator 20.1.0, SVG Export Plug-In . SVG Version: 6.00 Build 0)  -->
<svg version="1.1" id="Layer_1" xmlns="http://www.w3.org/2000/svg" xmlns:xlink="http://www.w3.org/1999/xlink" x="0px" y="0px"
	 viewBox="0 0 12 14" style="enable-background:new 0 0 12 14;" xml:space="preserve">
<style type="text/css">
	.st0{fill:#4B612C;}
	.st1{fill:#759C3E;}
	.st2{fill:#3C4929;}
	.st3{fill:#B7CA9D;}
</style>
<title>HDL/Icon/Standard/Service/aws-code-deploy</title>
<desc>Created with Sketch.</desc>
<g id="Colors">
	<g id="Service-icons" transform="translate(-118.000000, -266.000000)">
		<g id="AWS-Code-Deploy" transform="translate(100.000000, 248.000000)">
			<g id="HDL_x2F_Icon_x2F_Standard_x2F_Service_x2F_aws_x5F_code_x5F_deploy" transform="translate(18.000000, 18.000000)">
				<g id="AWS_Code_deploy">
					<polygon id="Path" class="st0" points="1.9,11.8 0.3,11 0.3,2.9 1.9,2.1 					"/>
					<polygon id="Path_1_" class="st1" points="7.8,10.2 1.9,11.8 1.9,2.1 7.8,3.7 					"/>
					<polygon id="Path_2_" class="st0" points="2.9,5.6 6,5.2 6.1,5.3 6.1,8.6 6,8.7 2.9,8.3 					"/>
					<polygon id="Path_3_" class="st2" points="11.7,5 8.9,5.3 2.9,4.3 6,3.3 					"/>
					<polygon id="Path_4_" class="st3" points="11.7,9 8.9,8.7 2.9,9.7 6.2,10.5 					"/>
					<polygon id="Path_5_" class="st0" points="2.9,12.4 6,13.9 6.1,10.5 2.9,9.7 					"/>
					<polygon id="Path_6_" class="st1" points="11.7,11.1 6,13.9 6,10.5 11.7,9 					"/>
					<polygon id="Path_7_" class="st0" points="2.9,1.6 6,0.1 6,3.5 2.9,4.3 					"/>
					<g id="Group" transform="translate(6.000000, 0.000000)">
						<polygon id="Path_8_" class="st1" points="5.7,8 0,8.7 0,5.2 5.7,6 						"/>
						<polygon id="Path_9_" class="st1" points="5.7,5 0,3.5 0,0.1 5.7,2.9 						"/>
					</g>
				</g>
			</g>
		</g>
	</g>
</g>
</svg>
