<svg viewBox="0 0 14 14" xmlns="http://www.w3.org/2000/svg"><path d="M.8 13l-.8-.4V1.3L.8.9l3 5.8zM3.1 11l1.1 1.6L9 10.3l-1.1-.2zM2.2 2.9l1.2-1.7L9 3.7l-1 .2z" fill="#9d5025"/><path d="M2.6 1.3L.9.9V13l1.7-.5z" fill="#f58536"/><path d="M1.7 13.5l.9.5 1.7-7.8L2.6 0l-.9.5zM7.9 4L9 3.8l1.1 3.1L9 10.4l-1.1-.2z" fill="#9d5025"/><g fill="#f58536"><path d="M4.3.5L2.6 0v14l1.7-.5z"/><path d="M10.2 3.9L2.6 2.4V0l7.6 2.3zM10.4 10.1l-7.8 1.6V14l7.8-2.4z"/><path d="M9 12l1.2-.4V2.4L9 2z"/></g><path d="M14 8.2L10.7 8l-1.1.1 3.3 3z" fill="#6b3a19"/><path d="M9.4 8.2l3.4.2v2.7l-3.4-.6z" fill="#9d5025"/><path d="M6.3 8.3L9.7 12l1.7-3.6-3.5-.2z" fill="#6b3a19"/><path d="M6.3 8.4l3.4.3v3.4l-3.4-.9zM9.6 5.8l4.4-.1-1.1-2.8-3.3.6z" fill="#9d5025"/><path d="M6.3 5.6l5.1-.1-1.7-3.6-3.4.9z" fill="#9d5025"/><path d="M6.3 5.7l3.4-.4 1.7.2-3.5.3zM14 5.8l-3.3.2-1.1-.1 3.3-.3z" fill="#fbbf93"/><g fill="#f58536"><path d="M12.8 8.3l1.2-.1v2.5l-1.2.4zM11.4 8.5l-1.7.2v3.4l1.7-.5zM12.8 5.7l1.2.1V3.3l-1.2-.4zM11.4 5.5l-1.7-.2V1.9l1.7.5z"/></g></svg>