<?xml version="1.0" encoding="UTF-8"?>
<svg width="14px" height="14px" viewBox="0 0 14 14" version="1.1" xmlns="http://www.w3.org/2000/svg" xmlns:xlink="http://www.w3.org/1999/xlink">
    <!-- Generator: Sketch 59 (86127) - https://sketch.com -->
    <title>HDL/Icon/Standard/Service/github</title>
    <desc>Created with Sketch.</desc>
    <g id="Colors" stroke="none" stroke-width="1" fill="none" fill-rule="evenodd">
        <g id="Service-icons" transform="translate(-122.000000, -923.000000)" fill="#F42534">
            <g id="GitHub" transform="translate(101.000000, 905.000000)">
                <g id="HDL/Icon/Standard/Service/github" transform="translate(21.000000, 18.000000)">
                    <g id="GitHub">
                        <path d="M13.6,6.4 L7.6,0.4 C7.3,0.1 6.7,0.1 6.4,0.4 L5.1,1.6 L6.7,3.2 C7.1,3.1 7.5,3.2 7.8,3.5 C8.1,3.8 8.2,4.2 8,4.6 L9.5,6.1 C9.9,6 10.3,6.1 10.6,6.3 C11,6.7 11,7.4 10.6,7.8 C10.2,8.2 9.5,8.2 9.1,7.8 C8.8,7.5 8.8,7.1 8.9,6.7 L7.5,5.3 L7.5,9 C7.6,9 7.7,9.1 7.8,9.2 C8.2,9.6 8.2,10.3 7.8,10.7 C7.4,11.1 6.7,11.1 6.3,10.7 C5.9,10.3 5.9,9.6 6.3,9.2 C6.4,9.1 6.5,9 6.6,9 L6.6,5.2 C6.5,5.1 6.4,5.1 6.3,5 C6,4.6 5.9,4.2 6.1,3.8 L4.5,2.3 L0.4,6.4 C0.1,6.7 0.1,7.3 0.4,7.6 L6.4,13.6 C6.7,13.9 7.3,13.9 7.6,13.6 L13.6,7.6 C13.9,7.3 13.9,6.7 13.6,6.4 Z" id="Path" fill-rule="nonzero"></path>
                    </g>
                </g>
            </g>
        </g>
    </g>
</svg>