<?xml version="1.0" encoding="UTF-8"?>
<svg width="14px" height="14px" viewBox="0 0 14 14" version="1.1" xmlns="http://www.w3.org/2000/svg" xmlns:xlink="http://www.w3.org/1999/xlink">
    <!-- Generator: Sketch 59 (86127) - https://sketch.com -->
    <title>HDL/Icon/Standard/Service/datadog</title>
    <desc>Created with Sketch.</desc>
    <g id="Colors" stroke="none" stroke-width="1" fill="none" fill-rule="evenodd">
        <g id="Service-icons" transform="translate(-121.000000, -641.000000)">
            <g id="Datadog" transform="translate(100.000000, 623.000000)">
                <g id="HDL/Icon/Standard/Service/datadog" transform="translate(21.000000, 18.000000)">
                    <g id="Datadog">
                        <path d="M2.2,12.5 L3.1,12.3 C3.5,12.8 3.4,13 3.8,13.3 C4.4,13.8 5.2,13.6 5.5,13.2 C5.8,12.7 5.8,12.3 5.7,11.9 L6.7,11.7 L6.8,12.8 L12.7,11.7 L12.3,7.4 L12.1,7.4 L11.5,0.5 L0.9,1.7 L2.2,12.5 Z" id="Path" fill="#FFFFFF" fill-rule="nonzero"></path>
                        <path d="M11.3,9.9 L10.2,9.1 L9.3,10.7 L8.2,10.4 L7.2,11.9 L7.2,12.4 L12.5,11.4 L12.2,8.1 L11.3,9.9 Z M6.4,8.5 L7.2,8.4 C7.3,8.5 7.4,8.5 7.6,8.5 C7.9,8.6 8.2,8.6 8.6,8.4 C8.7,8.3 8.9,8.1 9,8 L12.5,7.4 L12.9,11.7 L7,12.8 L6.4,8.5 Z M12.8,6.9 L12.5,7 L11.8,0.2 L0.6,1.5 L2,12.7 L3.3,12.5 C3.2,12.4 3,12.2 2.8,11.9 C2.4,11.6 2.6,11 2.8,10.7 C3.1,10.1 4.7,9.4 4.6,8.4 C4.6,8.1 4.5,7.6 4.2,7.3 L4.2,7.5 C4.2,7.5 4,7.5 3.9,7.2 C3.9,7.2 3.8,7.1 3.8,7 L3.8,7.3 C3.8,7.3 3.6,7.1 3.6,6.8 C3.5,6.9 3.5,7.1 3.5,7.1 C3.5,7.1 3.4,6.7 3.4,6.5 C3.4,6.3 3.2,6 3.2,5.1 C3.5,5.3 4.3,5.3 4.6,4.8 C4.7,4.7 4.8,4.3 4.6,3.5 C4.4,3.1 4.1,2.3 4,2.1 C4,2.3 4.1,2.8 4.2,3 C4.4,3.7 4.4,3.9 4.3,4.3 C4.3,4.5 4.1,4.7 3.7,4.9 C3.3,5.1 2.8,4.6 2.7,4.6 C2.3,4.3 2,3.8 2,3.5 C2,3.2 2.2,3.1 2.3,2.8 C2.1,2.9 2,3 2,3 C2,3 2.2,2.8 2.4,2.6 L2.6,2.4 C2.5,2.4 2.3,2.4 2.3,2.4 C2.3,2.4 2.5,2.3 2.8,2.2 C2.6,2.2 2.4,2.2 2.4,2.2 C2.4,2.2 3,2 3.4,1.8 C3.7,1.7 4,1.7 4.2,1.9 C4.4,2.2 4.6,2.4 5.1,2.5 C5.4,2.4 5.5,2.3 5.8,2.2 C6.1,1.9 6.4,1.8 6.4,1.8 C6.4,1.8 6.2,1.9 6.2,2.1 C6.4,2 6.6,1.9 6.6,1.9 C6.6,1.9 6.5,1.9 6.4,2.1 C6.7,2 6.9,1.9 6.9,1.9 C6.9,1.9 6.8,2 6.8,2.1 L7.4,2.1 C8.1,2.1 8.3,1.3 8.6,1.2 C8.9,1.1 9,1 9.6,1.6 C10.1,2.1 10.5,3 10.3,3.2 C10.1,3.4 9.8,3.1 9.4,2.7 C9.3,2.5 9.1,2.2 9.1,1.8 C9,1.5 8.8,1.3 8.8,1.3 C8.8,1.3 8.9,1.6 8.9,1.8 C8.9,1.9 8.9,2.5 9.1,2.8 C9.1,2.8 9.1,3 9,3 C8.8,2.8 8.3,2.6 8.2,2.5 C8.5,2.8 9.2,3.3 9.5,3.9 C9.8,4.4 9.6,4.9 9.7,5 C9.7,5 10.3,5.7 10.4,6 C10.6,6.6 10.4,7.2 10.2,7.5 L9.5,7.7 C9.4,7.7 9.3,7.7 9.3,7.6 C9.3,7.5 9.4,7.3 9.4,7.3 L9.4,7.2 C9.2,7.5 8.9,7.7 8.6,7.9 C8.2,8.1 7.8,8.1 7.5,8 C6.8,7.7 6,7.2 5.9,7.1 L5.9,7.2 C6.1,7.4 6.5,7.8 7,8.1 L6.1,8.2 L6.5,11.6 C6.3,11.6 6.3,11.6 6.1,11.7 C5.9,11 5.6,10.6 5.2,10.4 C4.9,10.2 4.4,10.1 3.9,10.2 C4.2,10.2 4.6,10.2 5,10.5 C5.4,10.7 5.7,11.3 5.8,11.7 C5.9,12.2 6,12.7 5.7,13.2 C5.4,13.6 4.6,13.8 4,13.3 C4.2,13.6 4.4,13.8 4.7,13.8 C5.2,13.9 5.6,13.8 5.9,13.5 C6.2,13.2 6.3,12.7 6.3,12.1 L6.5,12 L6.6,13 L13.3,12.2 L12.8,6.9 Z M8.7,4.1 L8.7,4.3 C8.8,4.5 8.9,4.6 9,4.7 L9.1,4.7 L9.4,4.7 L9.4,4.6 C9.4,4.4 9.4,4 9,3.9 C8.8,3.8 8.6,3.9 8.6,3.9 C8.8,4 8.8,4 8.7,4.1 L8.7,4.1 Z M9.9,6 C9.8,6 9.6,6 9.4,6 C9.1,6 8.7,6.2 8.6,6.2 C8.5,6.3 8.5,6.5 8.6,6.6 C9,6.8 9.2,7 9.5,6.9 C9.7,6.9 9.8,6.6 9.9,6.4 C10,6.2 10,6.1 9.9,6 L9.9,6 Z M7,4.3 C7.1,4.2 6.5,4.1 6.1,4.4 C5.8,4.6 5.8,5.1 6.1,5.3 C6.1,5.3 6.2,5.3 6.2,5.4 C6.3,5.4 6.4,5.3 6.5,5.3 C6.7,5.2 6.9,5.2 7,5.2 C7,5.1 7.1,5 7.1,4.7 C7,4.4 6.8,4.5 7,4.3 L7,4.3 Z" id="Shape" fill="#7749A3" fill-rule="nonzero"></path>
                    </g>
                </g>
            </g>
        </g>
    </g>
</svg>