<svg clip-rule="evenodd" fill-rule="evenodd" stroke-linejoin="round" stroke-miterlimit="1.414" viewBox="0 0 220 220" xmlns="http://www.w3.org/2000/svg"><circle cx="116.875" cy="41.25" fill="#7b83eb" r="32.086"/><path d="M114.586 48.125H85.532l.144.639.014.055.144.592c4.362 16.534 21.203 26.834 37.909 23.182V57.289c-.015-5.021-4.142-9.149-9.164-9.164z" fill-opacity=".098" fill-rule="nonzero"/><path d="M107.711 55H87.883c5.302 11.18 16.618 18.336 28.992 18.336v-9.165c-.015-5.022-4.143-9.149-9.164-9.164z" fill-opacity=".2" fill-rule="nonzero"/><circle cx="189.063" cy="51.563" fill="#5059c9" r="24.063"/><g fill-rule="nonzero"><path d="M209.688 82.5h-54.045c-2.41 0-4.393 1.983-4.393 4.393v55.756c-.31 16.57 11.12 31.225 27.266 34.96 2.325.488 4.693.733 7.068.733 18.872 0 34.404-15.521 34.416-34.393V92.812c0-5.657-4.655-10.312-10.312-10.312z" fill="#5059c9"/><path d="M171.875 92.813v65.343c0 30.153-24.812 54.965-54.966 54.965-19.618 0-37.804-10.503-47.609-27.496a49.447 49.447 0 01-3.438-6.875 57.483 57.483 0 01-2.268-6.875 56.622 56.622 0 01-1.719-13.75V92.812v-.013c0-5.65 4.649-10.299 10.299-10.299h89.402c5.65 0 10.299 4.649 10.299 10.299z" fill="#7b83eb"/><path d="M107.711 55H87.883c5.302 11.18 16.618 18.336 28.992 18.336v-9.165c-.015-5.022-4.143-9.149-9.164-9.164z" fill-opacity=".2"/><path d="M123.75 82.5v87.106a9.101 9.101 0 01-7.15 8.869 6.66 6.66 0 01-1.994.275H65.862a57.483 57.483 0 01-2.268-6.875 56.622 56.622 0 01-1.719-13.75V92.812v-.013c0-5.65 4.649-10.299 10.299-10.299z" fill-opacity=".098"/><path d="M116.875 82.5v93.981a6.66 6.66 0 01-.275 1.994 9.101 9.101 0 01-8.869 7.15H69.3a49.33 49.33 0 01-3.437-6.875 57.31 57.31 0 01-2.269-6.875 56.622 56.622 0 01-1.719-13.75V92.812v-.013c0-5.65 4.649-10.299 10.299-10.299zm0 0v80.231c-.023 5.008-4.136 9.121-9.144 9.144H63.594a56.622 56.622 0 01-1.719-13.75V92.812v-.013c0-5.65 4.649-10.299 10.299-10.299zm-44.688 0h-.013c-5.65 0-10.299 4.649-10.299 10.299v65.326a56.622 56.622 0 001.719 13.75h37.262c5.008-.023 9.121-4.136 9.144-9.144V82.5z" fill-opacity=".2"/><path d="M9.164 55h91.665c5.027 0 9.164 4.137 9.164 9.164v91.665c0 5.027-4.137 9.164-9.164 9.164H9.164c-5.027 0-9.164-4.137-9.164-9.164V64.164C0 59.137 4.137 55 9.164 55z" fill="#4b53bc"/><path d="M82.363 89.203h-20.55v55.138H48.311V89.203H27.644V75.659h54.719z" fill="#fff"/></g><path d="M0 0h220v220H0z" fill="none"/></svg>