<?xml version="1.0" encoding="utf-8"?>
<!-- Generator: Adobe Illustrator 20.1.0, SVG Export Plug-In . SVG Version: 6.00 Build 0)  -->
<svg version="1.1" id="Layer_1" xmlns="http://www.w3.org/2000/svg" xmlns:xlink="http://www.w3.org/1999/xlink" x="0px" y="0px"
	 viewBox="0 0 14 14" style="enable-background:new 0 0 14 14;" xml:space="preserve">
<style type="text/css">
	.st0{fill:#64A537;}
	.st1{fill:#FEFEFE;}
	.st2{fill:#C6DDB7;}
	.st3{fill:#449A00;}
	.st4{fill:#5AA01C;}
</style>
<title>HDL/Icon/Standard/Service/splunk</title>
<desc>Created with Sketch.</desc>
<g id="Colors">
	<g id="Service-icons" transform="translate(-621.000000, -220.000000)">
		<g id="Splunk_1_" transform="translate(600.000000, 202.000000)">
			<g id="HDL_x2F_Icon_x2F_Standard_x2F_Service_x2F_splunk" transform="translate(21.000000, 18.000000)">
				<g id="Splunk">
					<path id="Path" class="st0" d="M13.7,2.3v9.5v0.1v0.3c-0.1,0.3-0.2,0.5-0.4,0.7L13.2,13c0,0,0,0.1-0.1,0.1L13,13.2l-0.1,0.1
						h-0.1c-0.1,0-0.1,0.1-0.2,0.1c-0.1,0.1-0.3,0.1-0.4,0.2c-0.1,0-0.2,0-0.3,0.1c-0.1,0-0.2,0-0.2,0h-0.1c-3.1,0-6.3,0-9.4,0H2.1
						H2c-0.3,0-0.5-0.1-0.8-0.3c0,0-0.1,0-0.1-0.1c0,0-0.1,0-0.1-0.1c-0.1-0.1-0.2-0.2-0.3-0.3c0,0,0-0.1-0.1-0.1c0,0,0-0.1-0.1-0.1
						c0,0,0-0.1-0.1-0.1c-0.1-0.1-0.1-0.1-0.1-0.2v-0.1c-0.1-0.1-0.1-0.3-0.1-0.5v-0.1v-0.1c0-3.2,0-6.3,0-9.5V2c0-0.1,0-0.2,0-0.3
						c0-0.1,0.1-0.1,0.1-0.2V1.4c0-0.1,0.1-0.2,0.1-0.2s0-0.1,0.1-0.1c0.1-0.2,0.3-0.3,0.4-0.4c0,0,0,0,0.1-0.1
						c0.1,0,0.1-0.1,0.2-0.1c0.1,0,0.2-0.1,0.4-0.2c0.1,0,0.3-0.1,0.4-0.1h0.1h9.5h0.1H12c0.2,0.1,0.3,0.1,0.5,0.2l0.1,0.1
						c0,0,0.1,0,0.1,0.1C12.9,0.7,13,0.9,13.1,1c0,0,0,0.1,0.1,0.1c0.1,0.2,0.2,0.4,0.3,0.6v0.1v0.3C13.7,2.2,13.7,2.2,13.7,2.3z"/>
					<path id="Path_1_" class="st1" d="M4,2.9l1.2,0.6C6.1,3.9,7,4.3,7.9,4.8C8.7,5.2,9.5,5.6,10.3,6c0.1,0,0.1,0.1,0.1,0.1v1.4
						c0,0.1,0,0.1-0.1,0.1C9.5,8,8.7,8.4,8,8.8c-0.9,0.5-1.8,0.9-2.7,1.4c-0.4,0.2-0.8,0.4-1.2,0.6c0,0,0,0-0.1,0s0,0,0-0.1
						c0-0.5,0-0.9,0-1.4c0-0.1,0-0.1,0.1-0.1c1.5-0.8,3-1.5,4.5-2.3c0,0,0.1,0,0.1-0.1c0,0,0,0-0.1-0.1C7.1,6,5.6,5.2,4.1,4.5
						C4,4.5,4,4.4,4,4.3C4,3.9,4,3.4,4,2.9z"/>
					<path id="Path_2_" class="st2" d="M4,2.9v1.5c0,0.1,0,0.1,0.1,0.1c0.6,0.3,1.3,0.6,1.9,1C6.9,6,7.8,6.4,8.7,6.9h0.1
						c0,0,0,0-0.1,0C7.2,7.6,5.6,8.4,4.1,9.2C4,9.2,4,9.2,4,9.3v1.4v0.1c0-0.5,0-0.9,0-1.4c0-0.1,0-0.1,0.1-0.1l3-1.5
						C7.6,7.5,8.2,7.3,8.7,7C8.5,6.7,8.3,6.6,8.1,6.5C7.2,6,6.3,5.6,5.4,5.2C5,4.9,4.5,4.7,4,4.5c0,0-0.1,0-0.1-0.1
						C4,3.9,4,3.4,4,2.9z"/>
					<path id="Path_3_" class="st3" d="M10.4,7.6c0-0.5,0-1,0-1.5V7.6z"/>
					<g id="Group" transform="translate(3.000000, 2.000000)">
						<path id="Path_4_" class="st4" d="M1,7.2v1.5C1,8.2,1,7.7,1,7.2z"/>
						<path id="Path_5_" class="st4" d="M1,0.9v1.5C1,1.9,1,1.4,1,0.9L1,0.9z"/>
					</g>
				</g>
			</g>
		</g>
	</g>
</g>
</svg>
