<?xml version="1.0" encoding="UTF-8"?>
<svg width="14px" height="14px" viewBox="0 0 14 14" version="1.1" xmlns="http://www.w3.org/2000/svg" xmlns:xlink="http://www.w3.org/1999/xlink">
    <!-- Generator: Sketch 59 (86127) - https://sketch.com -->
    <title>HDL/Icon/Standard/Service/elastigroup</title>
    <desc>Created with Sketch.</desc>
    <defs>
        <polygon id="path-1" points="0.016 0.0882205882 0.278 0.0882205882 0.278 1.19792647 0.016 1.19792647"></polygon>
    </defs>
    <g id="Colors" stroke="none" stroke-width="1" fill="none" fill-rule="evenodd">
        <g id="Service-icons" transform="translate(-622.000000, -406.000000)">
            <g id="Elastigroup" transform="translate(600.000000, 388.000000)">
                <g id="HDL/Icon/Small/Standard/elastigroup" transform="translate(22.000000, 18.000000)">
                    <g id="Group-60">
                        <path d="M13.0069942,5.14876765 C13.2527043,5.59553235 13.2796899,6.09809118 13.363487,6.58623824 C12.9059507,6.78862059 12.4904145,7.04947353 12.1848493,7.46329706 C11.5777768,7.26400294 11.1176029,7.45403235 10.6858348,7.92900294 C9.98603768,8.69859118 9.23835652,9.42391471 8.50041449,10.1568559 C8.2194,10.4360324 7.97308116,10.7802676 7.52954493,10.8200029 C7.38366087,10.8018853 7.27511014,10.7248853 7.19618261,10.6019735 C7.07951594,10.2013265 6.83624058,9.92688529 6.4276029,9.81673824 C6.30018261,9.73788529 6.21922609,9.62732647 6.19548696,9.47559118 C6.32635652,8.76159118 6.93890725,8.44865 7.38568986,7.99653235 C8.95409565,6.93788529 10.587429,5.99082647 12.2566754,5.10676765 C12.5092841,4.97294412 12.7679797,4.93073824 13.0069942,5.14876765" id="Fill-1" fill="#7545FE"></path>
                        <path d="M0.41722029,7.25747647 C0.324698551,6.08394706 0.774524638,5.01747647 1.05594493,3.91765294 C2.45777101,2.89524118 4.02678551,2.1623 5.50591594,1.27350588 C6.11582899,0.906829412 6.73893043,0.5628 7.32875652,0.161947059 C7.72785797,0.3948 8.12716232,0.627652941 8.52646667,0.8603 C8.39275652,1.65377059 7.74084348,1.79109412 7.13803188,1.99162353 C6.42890145,1.71512353 5.94316232,1.99018235 5.50246667,2.57653529 C4.20878551,4.29812353 2.44681449,5.54103529 0.9618,7.06888824 C0.8218,7.21300588 0.641423188,7.32212353 0.41722029,7.25747647" id="Fill-3" fill="#9046FE"></path>
                        <path d="M0.41722029,7.25747647 C2.09255362,5.55668235 4.03104638,4.13032941 5.48745217,2.19853529 C5.88188696,1.67559412 6.38264058,1.19897647 7.05829275,1.88374118 C7.41437971,2.14912353 7.14574203,2.41491765 7.06093043,2.68132941 C6.05049565,3.89171176 4.8678,4.93327059 3.79771304,6.08662353 C3.69768406,6.19862353 3.5938,6.30609412 3.48849565,6.41335882 C2.89156812,7.00238824 2.33907536,7.63815294 1.69629275,8.17674118 C1.3955971,8.42874118 1.02936522,8.53271176 0.670843478,8.33897647 C0.286756522,8.13185882 0.217365217,7.78885882 0.422292754,7.39603529 C0.419655072,7.34991765 0.418031884,7.3038 0.41722029,7.25747647" id="Fill-5" fill="#FCFBFE"></path>
                        <path d="M3.43158261,6.11859706 C3.48636522,6.06259706 3.54114783,6.00659706 3.59593043,5.95059706 C5.62126377,4.50942059 7.84645217,3.40753824 9.95253913,2.10327353 C10.2031188,1.94783235 10.4457855,1.74092059 10.7785391,1.85127353 C11.088771,1.89883235 11.3612638,2.02565588 11.5860754,2.25089118 C11.694829,2.83745 11.2159884,2.99083235 10.8678145,3.21256765 C9.73604638,3.93315588 8.5434087,4.54915588 7.4083942,5.26459706 C6.06053913,5.85136176 5.41106087,7.24127353 4.27584348,8.07427353 C3.95972754,8.30609706 3.75561159,8.71168529 3.29056812,8.70097941 C3.21387246,8.63983235 3.1663942,8.56056765 3.14772754,8.46339118 C3.15564058,8.04400882 3.47926377,7.80806765 3.69575652,7.51365588 C4.00051014,7.09900882 3.96114783,6.76465588 3.51537971,6.49515588 C3.40987246,6.38747941 3.33966957,6.27115588 3.43158261,6.11859706" id="Fill-7" fill="#8445FE"></path>
                        <path d="M13.0069942,5.14876765 C12.2451101,5.14773824 11.7177768,5.70362059 11.1109072,6.03117941 C9.87383478,6.69885588 8.70371884,7.49397353 7.5058058,8.23659118 C7.26273333,7.93332647 6.99815362,7.65826765 6.61284928,7.54009118 C6.48725507,7.45259118 6.41522609,7.33585588 6.41482029,7.17794412 C6.44850145,7.01797353 6.54853043,6.91338529 6.68548696,6.83844412 C8.35047246,6.09953235 9.83487826,5.01823824 11.4763275,4.23609118 C11.8788783,4.04420882 12.2335449,3.61309118 12.7592551,3.91800294 C12.8899217,4.31823824 13.0439217,4.71373824 13.0069942,5.14876765" id="Fill-9" fill="#7A45FE"></path>
                        <path d="M10.778458,1.85123235 C8.5624,3.34717353 6.18037101,4.55487941 3.89370435,5.92832059 C3.8170087,5.97443824 3.69628406,5.94499706 3.59605217,5.95076176 C4.67182029,4.85093824 5.7479942,3.75111471 6.82396522,2.65149706 C7.7788058,2.31714412 8.4921971,1.50802647 9.48903768,1.25664412 C9.86886377,1.56649706 10.4552406,1.41496765 10.778458,1.85123235" id="Fill-11" fill="#8845FE"></path>
                        <path d="M7.52463478,13.7653147 L6.3037942,13.7552265 C6.24941739,13.6666971 6.24475072,13.5742559 6.28208406,13.4781088 C6.98431594,12.6788735 7.61046087,11.7941971 8.60892464,11.3216971 C9.53982319,11.1773735 10.2073594,10.48705 11.0276783,10.1261382 C11.812287,9.78107941 12.4510116,8.94313824 13.4685478,9.29128529 C12.9339101,9.97975588 12.3992725,10.6680206 11.8646348,11.3562853 C10.3504029,12.03405 9.04475072,13.0986676 7.52463478,13.7653147" id="Fill-13" fill="#6745FE"></path>
                        <path d="M7.32871594,0.162029412 C7.30883188,0.411147059 7.24086087,0.627941176 7.00326667,0.761147059 C5.15384638,1.79838235 3.30767246,2.84138235 1.4550058,3.87223529 C1.34645507,3.93255882 1.19002029,3.90455882 1.05590435,3.91773529 C1.06158551,3.08123529 1.43349855,2.52926471 2.20431014,2.17782353 C3.52112174,1.57767647 4.80546957,0.905058824 6.11010725,0.277117647 C6.4939913,0.0924411765 6.88862899,-0.176852941 7.32871594,0.162029412" id="Fill-15" fill="#9446FE"></path>
                        <path d="M3.23063188,8.36646176 C3.2424,8.47002059 3.25416812,8.57378529 3.26593623,8.67755 C3.4517913,9.08828529 2.64466087,9.53916765 3.18376232,9.81031471 C3.58996522,10.01455 3.85434203,9.38537353 4.17674783,9.12225588 C4.45654493,8.89413824 4.67242899,8.57007941 5.07802319,8.54578529 C5.23141449,8.57090294 5.33428406,8.65840294 5.38987826,8.80478529 C5.27097971,9.61699118 5.86121159,9.45043235 6.30434203,9.48646176 C6.3924,9.56243235 6.48066087,9.63840294 6.56871884,9.71416765 C6.46909565,10.3297559 6.07587826,10.6566971 5.51547246,10.81955 C5.18982029,10.7971088 5.11292174,10.4691382 4.90048696,10.3083441 C3.87990725,10.2336088 3.63784928,10.9679912 3.43961739,11.7474618 C3.29961739,12.0797559 3.1441971,12.3935206 2.70411014,12.3439029 C2.38637101,11.9564324 2.11753043,11.5084324 1.74034203,11.1944618 C1.0017913,10.5794912 1.1990087,10.1220206 1.87283478,9.67113824 C1.92477681,9.24372647 2.0386029,8.85810882 2.50324058,8.70905 C2.73495072,8.57172647 2.92770435,8.34731471 3.23063188,8.36646176" id="Fill-17" fill="#7A49FE"></path>
                        <path d="M13.4685884,9.29136765 C12.1306754,9.59730882 11.0419217,10.4181618 9.89453043,11.1066324 C9.44267536,11.3777794 9.01658841,11.59725 8.48416394,11.51675 C8.48073333,10.9260735 8.95592174,10.6506029 9.30247246,10.3216029 C10.045487,9.61583824 10.6229362,8.71777941 11.5794,8.25351471 C11.9797188,8.18845588 12.3380377,8.02869118 12.6845884,7.81251471 C12.9503855,7.64677941 13.2169942,7.35483824 13.5820087,7.62372059 C13.5982406,7.73489706 13.6142696,7.84586765 13.6305014,7.95704412 C13.7260667,8.32927941 13.7729362,8.70048529 13.6071681,9.06716176 C13.5609072,9.14189706 13.5148493,9.21663235 13.4685884,9.29136765" id="Fill-19" fill="#6A45FE"></path>
                        <path d="M12.7592551,3.91804412 C11.0508493,4.70533824 9.39134203,5.58610294 7.80873333,6.61036765 C7.46157391,6.83498529 7.12151594,7.04292647 6.68974783,6.99907353 C6.71409565,6.28322059 7.34551594,5.95072059 7.65818261,5.41604412 C9.03241449,4.54845588 10.4776609,3.80460294 11.8606174,2.95163235 C12.0336899,2.84498529 12.2234,2.76139706 12.4336029,2.86495588 C12.675458,3.17357353 12.7428203,3.53777941 12.7592551,3.91804412" id="Fill-21" fill="#7E45FE"></path>
                        <path d="M12.4335826,2.86503824 C10.8751188,3.83474412 9.31685797,4.80486176 7.65329275,5.58412647 C7.41955362,5.57012647 7.29497391,5.45009706 7.29757056,5.20674412 C8.25387246,4.19133235 9.6063942,3.81415588 10.7095536,3.03221471 C11.0354087,2.80142059 11.4138145,2.65174412 11.5862783,2.25089118 C11.848829,2.48395 12.3112348,2.43268529 12.4335826,2.86503824" id="Fill-23" fill="#8145FE"></path>
                        <path d="M7.52463478,13.7653147 C8.85341739,12.7439324 10.1604899,11.6821971 11.8644319,11.3562853 C11.6008667,11.6593441 11.3149826,11.92555 11.1400841,12.3194029 C10.4064029,13.9732559 8.98083768,13.9259029 7.52463478,13.7653147" id="Fill-25" fill="#6446FE"></path>
                        <path d="M3.43158261,6.11859706 C3.51213333,6.20959706 3.59268406,6.30039118 3.67323478,6.39139118 C3.56813333,7.04918529 2.92129275,7.30036176 2.62364058,7.82474412 C2.4252058,8.17412647 2.1308,8.46936176 2.01169855,8.87145 C1.9632058,8.95339118 1.90213333,9.02421471 1.82969855,9.08474412 C1.46630725,8.86774412 1.12401739,8.76274412 0.806481159,9.18027353 C0.567466667,9.49486176 0.338191304,9.52965588 0.20995942,9.07692059 C0.0508869565,8.70695 0.0930898551,8.33306765 0.189466667,7.95815588 C0.184394203,7.73559706 0.151118841,7.50089118 0.422191304,7.39609706 C0.685350725,8.44836176 0.938973913,8.53236176 1.70836522,7.80168529 C2.29048116,7.24889118 2.85778551,6.68024412 3.43158261,6.11859706" id="Fill-27" fill="#8845FE"></path>
                        <path d="M5.1242029,10.0917971 C5.34049275,10.2495029 5.23681159,10.6188559 5.53081331,10.7250912 C5.53182609,11.22065 5.08301449,11.5937088 5.16518841,12.1121206 C5.11223188,12.2525324 5.01646377,12.3439441 4.87118841,12.37915 C4.47310145,12.0515912 4.12289855,12.1578265 3.83944928,12.5319147 C3.33321739,13.1997971 2.99052174,12.97765 2.70402899,12.3439441 C2.96597101,12.1714147 3.18246377,11.9583265 3.29771014,11.6554735 C4.13202899,11.4053265 4.58753623,10.6997676 5.1242029,10.0917971" id="Fill-29" fill="#774CFE"></path>
                        <path d="M13.5820087,7.62374118 C12.8450812,7.76127059 12.3964725,8.6653 11.5167043,8.42359412 C11.5438928,7.97497647 11.759371,7.65565294 12.1582696,7.46274118 C12.2240087,6.6948 12.6730232,6.46935882 13.363487,6.5863 C13.4363275,6.93218235 13.5091681,7.27785882 13.5820087,7.62374118" id="Fill-31" fill="#7047FE"></path>
                        <path d="M4.87126957,12.3792118 L5.09871884,12.1463588 C5.37851594,11.8624471 5.70254493,11.6680941 6.10611014,11.6343294 C6.25990725,11.6676824 6.35892174,11.7607412 6.40071884,11.9153588 C6.4201971,12.4887412 5.45744348,13.0044765 6.30373333,13.6268588 C6.30434203,13.6696824 6.30454493,13.7125059 6.30373333,13.7553294 C5.6359942,13.7553294 4.96805217,13.7553294 4.24289275,13.7553294 C4.31857391,13.2284765 5.09324058,13.0158 4.87126957,12.3792118" id="Fill-33" fill="#704BFE"></path>
                        <path d="M9.48901739,1.25668529 C8.67072754,1.85889118 7.96322029,2.67953824 6.82414783,2.65153824 C6.91626377,2.39995 7.12443768,2.18500882 7.05829275,1.88380294 C7.58826377,1.60256765 8.13629275,1.34789118 8.52646667,0.860361765 C8.81356812,1.07674412 9.25913333,0.896802941 9.48901739,1.25668529" id="Fill-35" fill="#8C46FE"></path>
                        <path d="M1.82965797,9.08480588 C1.84446957,8.98433529 1.85928116,8.88386471 1.87429565,8.78339412 C2.15713623,8.62012941 2.41988986,8.6226 2.6513971,8.88098235 C2.29693333,9.04815882 2.01652754,9.29068824 1.87267246,9.67136471 C1.85846957,9.47577647 1.84406377,9.28018824 1.82965797,9.08480588" id="Fill-37" fill="#834DFE"></path>
                        <path d="M0.189426087,7.95823824 C0.196324638,8.33109118 0.20302029,8.70415 0.209918841,9.07700294 C-0.088342029,8.70950294 -0.044515942,8.33562059 0.189426087,7.95823824" id="Fill-39" fill="#884CFE"></path>
                        <g id="Group-43" transform="translate(13.594203, 7.869194)">
                            <mask id="mask-2" fill="white">
                                <use xlink:href="#path-1"></use>
                            </mask>
                            <g id="Clip-42"></g>
                            <path d="M0.016,1.19792647 C0.0255,0.828161765 0.035,0.458397059 0.04475,0.0882205882 C0.32925,0.462926471 0.39175,0.834338235 0.016,1.19792647" id="Fill-41" fill="#7047FE" mask="url(#mask-2)"></path>
                        </g>
                        <path d="M6.30365217,13.6267765 C5.39994203,13.5641882 5.37255072,13.1476882 5.87310145,12.5228353 C6.01857971,12.3412471 6.1737971,12.1678941 6.32475362,11.9906294 C6.52521739,11.3593941 6.94278261,10.9470118 7.55634783,10.7318647 C8.67147826,9.61701176 9.79513043,8.5106 10.8978841,7.38298235 C11.3716522,6.89833529 11.7776522,6.78654118 12.1584928,7.46265882 C11.9444348,7.78301176 11.7307826,8.10336471 11.5169275,8.42371765 C10.5058841,9.45457059 9.49504348,10.4856294 8.4842029,11.5166882 C7.75742029,12.2201882 7.03043478,12.9234824 6.30365217,13.6267765" id="Fill-44" fill="#FCFBFE"></path>
                        <path d="M6.30442319,9.48646176 C5.99906087,9.60710882 5.78682899,10.0676676 5.36804638,9.77222647 C5.00364058,9.51507941 5.16433623,9.20193235 5.30961159,8.89907941 C5.58129275,8.19763824 6.04694493,7.69569706 6.76033623,7.44884412 C7.37572754,7.35393235 7.58795942,7.65184412 7.50578551,8.23655 C7.10546667,8.65325588 6.70494493,9.06975588 6.30442319,9.48646176" id="Fill-46" fill="#FAF8FE"></path>
                        <path d="M6.08133623,11.7311353 C5.77414783,11.9193118 5.53148116,12.2643706 5.09869855,12.1464 C4.54701739,11.4548412 5.30524928,11.1731941 5.53087246,10.7249882 C5.87681449,10.3881647 6.22255362,10.0511353 6.56849565,9.71410588 C7.12261159,9.65831176 7.36243768,9.91401765 7.29771304,10.4713412 C7.07635072,11.0741647 6.65087246,11.4744 6.08133623,11.7311353" id="Fill-48" fill="#FAF9FE"></path>
                        <path d="M6.08133623,11.7311353 C6.48672754,11.3111353 6.89232174,10.8913412 7.29771304,10.4713412 C7.38394493,10.5582235 7.47017681,10.6451059 7.5564087,10.7319882 C7.2058,11.2121059 6.79290145,11.6290176 6.32461159,11.9905471 C6.24365507,11.9040765 6.16249565,11.8176059 6.08133623,11.7311353" id="Fill-50" fill="#7953FE"></path>
                        <path d="M7.29755072,5.20674412 C7.41624638,5.33253824 7.53473913,5.45833235 7.65323188,5.58412647 C7.61244928,6.25242059 6.979,6.50503824 6.68986957,6.99915588 C6.62413043,7.06297941 6.5583913,7.12680294 6.49285507,7.19042059 C6.1952029,7.84986176 5.70215942,8.31433235 5.07986957,8.64992059 C4.6416087,9.07095 4.20923188,9.49836176 3.76285507,9.91033235 C3.49908696,10.1534794 3.22192754,10.5343618 2.83601449,10.1304206 C2.48743478,9.76559706 2.60633333,9.39377353 2.9467971,9.06621471 C3.06671014,8.95092059 3.16024638,8.80783235 3.26595652,8.67750882 C4.25102899,7.72715588 5.23386957,6.77433235 6.2227971,5.82809706 C6.52937681,5.53471471 6.77853623,5.12686176 7.29755072,5.20674412" id="Fill-52" fill="#FDFCFE"></path>
                        <path d="M2.65131594,8.88094118 C2.39221449,8.84841176 2.13331594,8.81608824 1.87421449,8.78355882 C1.9856058,7.60797059 3.04615652,7.16738235 3.67331594,6.39141176 C4.34572174,6.49414706 4.43296812,6.85279412 4.05983768,7.36585294 C3.8054029,7.71585294 3.50856232,8.03435294 3.2305913,8.36664706 C3.03743188,8.53794118 2.84447536,8.70944118 2.65131594,8.88094118" id="Fill-54" fill="#F8F5FE"></path>
                        <path d="M5.07991014,8.64998235 C5.48185217,8.09471765 5.97327246,7.6286 6.49289565,7.19048235 C6.58196812,7.27654118 6.67104058,7.3626 6.76011304,7.44886471 C6.2766058,7.93227647 5.79309855,8.41568824 5.3095913,8.8991 C5.23289565,8.81612941 5.1564029,8.73295294 5.07991014,8.64998235" id="Fill-56" fill="#8654FE"></path>
                        <path d="M5.1242029,10.0917971 C4.92982609,11.1627971 4.19391304,11.7930029 3.29771014,11.6556794 C3.33321739,10.5367088 4.23956522,9.76094412 5.1242029,10.0917971" id="Fill-58" fill="#EFEAFE"></path>
                    </g>
                </g>
            </g>
        </g>
    </g>
</svg>