<svg viewBox="0 0 14 14" xmlns="http://www.w3.org/2000/svg"><path d="M13.7 2.3v9.9c-.1.3-.2.5-.4.7l-.1.1s0 .1-.1.1l-.1.1-.1.1h-.1c-.1 0-.1.1-.2.1-.1.1-.3.1-.4.2-.1 0-.2 0-.3.1H2c-.3 0-.5-.1-.8-.3 0 0-.1 0-.1-.1 0 0-.1 0-.1-.1l-.3-.3s0-.1-.1-.1c0 0 0-.1-.1-.1 0 0 0-.1-.1-.1-.1-.1-.1-.1-.1-.2v-.1c-.1-.1-.1-.3-.1-.5v-.2V2v-.3c0-.1.1-.1.1-.2v-.1c0-.1.1-.2.1-.2s0-.1.1-.1C.6.9.8.8.9.7L1 .6c.1 0 .1-.1.2-.1s.2-.1.4-.2c.1 0 .3-.1.4-.1h10c.2.1.3.1.5.2l.1.1s.1 0 .1.1c.2.1.3.3.4.4 0 0 0 .1.1.1l.3.6v.4c.2.1.2.1.2.2z" fill="#64a537"/><path d="M4 2.9l1.2.6c.9.4 1.8.8 2.7 1.3L10.3 6c.1 0 .1.1.1.1v1.4c0 .1 0 .1-.1.1-.8.4-1.6.8-2.3 1.2-.9.5-1.8.9-2.7 1.4l-1.2.6H4c-.1 0 0 0 0-.1V9.3c0-.1 0-.1.1-.1 1.5-.8 3-1.5 4.5-2.3 0 0 .1 0 .1-.1l-.1-.1c-1.5-.7-3-1.5-4.5-2.2-.1 0-.1-.1-.1-.2V2.9z" fill="#fefefe"/><path d="M4 2.9v1.5c0 .1 0 .1.1.1.6.3 1.3.6 1.9 1 .9.5 1.8.9 2.7 1.4h0c-1.5.7-3.1 1.5-4.6 2.3-.1 0-.1 0-.1.1V9.4c0-.1 0-.1.1-.1l3-1.5c.5-.3 1.1-.5 1.6-.8-.2-.3-.4-.4-.6-.5-.9-.5-1.8-.9-2.7-1.3-.4-.3-.9-.5-1.4-.7 0 0-.1 0-.1-.1.1-.5.1-1 .1-1.5z" fill="#c6ddb7"/><path d="M10.4 7.6V6.1z" fill="#449a00"/><g fill="#5aa01c"><path d="M4 9.2v0zM4 2.9v0z"/></g></svg>