<svg viewBox="0 0 24 24" fill="currentColor" xmlns="http://www.w3.org/2000/svg"><path fill-rule="evenodd" clip-rule="evenodd" d="m13.369 3.24 5.77 3.445c.534.32.861.903.861 1.534v7.31c0 .638-.335 1.228-.88 1.544l-5.769 3.344a1.693 1.693 0 0 1-1.703 0l-5.77-3.344A1.782 1.782 0 0 1 5 15.529v-7.31c0-.63.326-1.214.86-1.534l5.766-3.444a1.696 1.696 0 0 1 1.743 0zm5.184 12.804a.594.594 0 0 0 .293-.515v-7.31c0-.21-.109-.406-.287-.511l-5.771-3.445a.565.565 0 0 0-.58 0L6.44 7.707a.594.594 0 0 0-.287.512v7.31c0 .213.112.41.293.515l5.77 3.344a.563.563 0 0 0 .567 0l5.77-3.344zM12.5 8.294c-1.912 0-3.462 1.58-3.462 3.53 0 1.949 1.55 3.529 3.462 3.529 1.912 0 3.461-1.58 3.461-3.53 0-1.949-1.55-3.53-3.461-3.53zm-2.308 3.53c0 1.299 1.034 2.353 2.308 2.353 1.274 0 2.308-1.054 2.308-2.354S13.774 9.47 12.5 9.47c-1.274 0-2.308 1.054-2.308 2.353z" fill="#000" opacity=".8"/></svg>