<svg enable-background="new 0 0 14 14" viewBox="0 0 14 14" xmlns="http://www.w3.org/2000/svg" xmlns:xlink="http://www.w3.org/1999/xlink"><mask id="a" height="1.1" maskUnits="userSpaceOnUse" width=".3" x="0" y=".1"><path d="m0 .1h.3v1.1h-.3z" fill="#fff"/></mask><path d="m13 5.1c.2.4.3.9.4 1.4-.5.2-.9.5-1.2.9-.6-.2-1.1 0-1.5.5-.7.8-1.5 1.5-2.2 2.3-.3.3-.5.6-1 .7-.1 0-.3-.1-.3-.2-.1-.4-.4-.7-.8-.8-.1-.2-.2-.3-.2-.4.1-.7.7-1 1.2-1.5 1.6-1.1 3.2-2 4.9-2.9.2-.1.5-.2.7 0" fill="#7545fe"/><path d="m.4 7.3c-.1-1.2.4-2.3.7-3.4 1.4-1 3-1.8 4.4-2.6.6-.4 1.2-.7 1.8-1.1.4.2.8.5 1.2.7-.1.8-.8.9-1.4 1.1-.7-.3-1.2 0-1.6.6-1.3 1.7-3.1 2.9-4.5 4.5-.2.1-.4.2-.6.2" fill="#9046fe"/><path d="m.4 7.3c1.7-1.7 3.6-3.2 5.1-5.1.4-.5.9-1 1.6-.3.4.3.1.5 0 .8-1 1.2-2.2 2.3-3.3 3.4-.1.1-.2.2-.3.3-.6.6-1.2 1.2-1.8 1.8-.3.2-.7.3-1 .1-.4-.2-.5-.5-.3-.9 0-.1 0-.1 0-.1" fill="#fcfbfe"/><path d="m3.4 6.1c.1 0 .1-.1.2-.1 2-1.4 4.3-2.5 6.4-3.8.3-.2.5-.4.8-.3.3 0 .6.2.8.4.1.6-.4.7-.7 1-1.2.6-2.4 1.2-3.5 2-1.3.6-2 2-3.1 2.8-.3.2-.5.6-1 .6-.1-.1-.1-.1-.2-.2 0-.4.3-.7.5-.9.4-.5.4-.8-.1-1.1-.1-.1-.2-.2-.1-.4" fill="#8445fe"/><path d="m13 5.1c-.8 0-1.3.6-1.9.9-1.2.7-2.4 1.5-3.6 2.2-.2-.3-.5-.5-.9-.7-.1 0-.2-.2-.2-.3 0-.2.1-.3.3-.3 1.7-.8 3.1-1.9 4.8-2.7.4-.2.8-.6 1.3-.3.1.4.2.8.2 1.2" fill="#7a45fe"/><path d="m10.8 1.9c-2.2 1.4-4.6 2.7-6.9 4-.1 0-.2 0-.3 0 1.1-1.1 2.2-2.2 3.2-3.3 1-.3 1.7-1.1 2.7-1.4.4.4 1 .2 1.3.7" fill="#8845fe"/><path d="m7.5 13.8h-1.2c-.1-.1-.1-.2 0-.3.7-.8 1.3-1.7 2.3-2.2.9-.1 1.6-.8 2.4-1.2.8-.3 1.4-1.2 2.4-.8-.5.7-1.1 1.4-1.6 2.1-1.4.6-2.8 1.7-4.3 2.4" fill="#6745fe"/><path d="m7.3.2c0 .2-.1.5-.3.6-1.8 1-3.7 2.1-5.5 3.1-.1.1-.3 0-.4 0 0-.8.4-1.4 1.1-1.7 1.3-.6 2.6-1.3 3.9-1.9.4-.2.8-.5 1.2-.1" fill="#9446fe"/><path d="m3.2 8.4v.3c.2.4-.6.9-.1 1.1.4.2.7-.4 1-.7.3-.2.5-.6.9-.6.2 0 .3.1.3.3 0 .8.6.7 1 .7.1.1.2.2.3.2-.1.6-.5.9-1.1 1.1-.3 0-.4-.4-.6-.5-1-.1-1.3.7-1.5 1.4-.1.3-.3.6-.7.6-.3-.4-.6-.8-1-1.1-.7-.6-.5-1.1.2-1.5.1-.4.2-.8.6-1 .2-.1.4-.4.7-.3" fill="#7a49fe"/><path d="m13.5 9.3c-1.3.3-2.4 1.1-3.6 1.8-.5.3-.9.5-1.4.4 0-.6.5-.9.8-1.2.7-.7 1.3-1.6 2.3-2.1.4 0 .7-.2 1.1-.4.3-.2.5-.5.9-.2v.3c.1.4.1.7 0 1.1 0 .1-.1.2-.1.3" fill="#6a45fe"/><path d="m12.8 3.9c-1.7.8-3.4 1.7-5 2.7-.3.2-.7.4-1.1.4 0-.7.7-1 1-1.6 1.3-.9 2.8-1.6 4.2-2.4.2-.1.4-.2.6-.1.2.3.2.6.3 1" fill="#7e45fe"/><path d="m12.4 2.9c-1.6 1-3.1 1.9-4.8 2.7-.2 0-.4-.1-.4-.4 1-1 2.3-1.4 3.4-2.2.3-.2.7-.4.9-.8.3.3.8.2.9.7" fill="#8145fe"/><path d="m7.5 13.8c1.3-1 2.6-2.1 4.3-2.4-.3.3-.5.6-.7 1-.7 1.6-2.1 1.5-3.6 1.4" fill="#6446fe"/><path d="m3.4 6.1c.1.1.2.2.2.3 0 .6-.7.9-1 1.4-.2.4-.5.7-.6 1.1 0 .1-.1.1-.2.2-.4-.2-.7-.3-1 .1-.2.3-.5.3-.6-.1s-.1-.8 0-1.1c0-.2 0-.5.2-.6.3 1.1.5 1.1 1.3.4.6-.6 1.2-1.1 1.7-1.7" fill="#8845fe"/><path d="m5.1 10.1c.2.2.1.5.4.6 0 .5-.4.9-.4 1.4-.1.1-.1.2-.3.3-.4-.3-.7-.2-1 .2-.5.6-.8.4-1.1-.3.3-.1.5-.3.6-.6.8-.3 1.3-1 1.8-1.6" fill="#774cfe"/><path d="m13.6 7.6c-.7.1-1.2 1-2.1.8 0-.4.2-.8.6-1 .1-.8.5-1 1.2-.9.1.4.2.8.3 1.1" fill="#7047fe"/><path d="m4.9 12.4.2-.2c.3-.3.6-.5 1-.5.2 0 .3.1.3.3 0 .6-.9 1.1-.1 1.7v.1c-.7 0-1.3 0-2.1 0 .1-.6.9-.8.7-1.4" fill="#704bfe"/><path d="m9.5 1.3c-.8.6-1.5 1.4-2.7 1.4.1-.3.3-.5.2-.8.5-.3 1.1-.5 1.5-1 .3.2.8 0 1 .4" fill="#8c46fe"/><path d="m1.8 9.1c0-.1 0-.2 0-.3.3-.2.5-.2.8.1-.3.1-.6.4-.7.8 0-.2-.1-.4-.1-.6" fill="#834dfe"/><path d="m.2 8v1.1c-.3-.4-.2-.8 0-1.1" fill="#884cfe"/><path d="m0 1.2c0-.4 0-.7 0-1.1.3.4.4.7 0 1.1" fill="#7047fe" mask="url(#a)" transform="translate(13.594203 7.869194)"/><path d="m6.3 13.6c-.9-.1-.9-.5-.4-1.1.1-.2.3-.3.4-.5.2-.6.6-1 1.2-1.3 1.1-1.1 2.2-2.2 3.3-3.3.5-.5.9-.6 1.3.1-.2.3-.4.6-.6 1-1 1-2 2.1-3 3.1-.7.6-1.5 1.3-2.2 2" fill="#fcfbfe"/><path d="m6.3 9.5c-.3.1-.5.6-.9.3s-.2-.6-.1-.9c.3-.7.7-1.2 1.5-1.5.6-.1.8.2.7.8-.4.5-.8.9-1.2 1.3" fill="#faf8fe"/><path d="m6.1 11.7c-.3.2-.5.5-1 .4-.6-.7.2-1 .4-1.4l1-1c.6-.1.8.2.7.8s-.5 1-1.1 1.2" fill="#faf9fe"/><path d="m6.1 11.7c.4-.4.8-.8 1.2-1.3l.3.3c-.4.5-.8.9-1.2 1.3-.2-.1-.2-.2-.3-.3" fill="#7953fe"/><path d="m7.3 5.2c.1.1.2.3.4.4 0 .7-.7.9-1 1.4-.1.1-.1.1-.2.2-.3.6-.8 1.1-1.4 1.4-.5.5-.9.9-1.3 1.3-.3.2-.5.6-.9.2-.4-.3-.3-.7 0-1 .2-.1.3-.3.4-.4 1-1 2-1.9 3-2.8.2-.4.5-.8 1-.7" fill="#fdfcfe"/><path d="m2.7 8.9c-.3 0-.5-.1-.8-.1.1-1.2 1.1-1.6 1.8-2.4.7.1.8.5.4 1-.3.3-.6.6-.9 1-.2.1-.4.3-.5.5" fill="#f8f5fe"/><path d="m5.1 8.6c.4-.6.9-1 1.4-1.5l.3.3c-.5.5-1 1-1.5 1.5-.1-.1-.1-.2-.2-.3" fill="#8654fe"/><path d="m5.1 10.1c-.2 1.1-.9 1.7-1.8 1.6 0-1.2.9-1.9 1.8-1.6" fill="#efeafe"/></svg>