<?xml version="1.0" encoding="utf-8"?>
<!-- Generator: Adobe Illustrator 20.1.0, SVG Export Plug-In . SVG Version: 6.00 Build 0)  -->
<svg version="1.1" id="Layer_1" xmlns="http://www.w3.org/2000/svg" xmlns:xlink="http://www.w3.org/1999/xlink" x="0px" y="0px"
	 viewBox="0 0 14 12" style="enable-background:new 0 0 14 12;" xml:space="preserve">
<style type="text/css">
	.st0{fill:#CAC9C2;}
	.st1{fill:#FFFFFF;}
	.st2{fill:#5072AA;}
	.st3{fill:#4D6796;}
	.st4{fill:#CC4232;}
	.st5{fill:#B23F33;}
	.st6{filter:url(#Adobe_OpacityMaskFilter);}
	.st7{mask:url(#mask-2);fill:#ECB02A;}
	.st8{fill:#C79732;}
</style>
<title>HDL/Icon/Standard/Service/gcp</title>
<desc>Created with Sketch.</desc>
<g id="Colors">
	<g id="Service-icons" transform="translate(-122.000000, -878.000000)">
		<g id="GCP_1_" transform="translate(101.000000, 861.000000)">
			<g id="HDL_x2F_Icon_x2F_Standard_x2F_Service_x2F_gcp" transform="translate(21.000000, 17.000000)">
				<g id="GCP">
					<polygon id="Fill-1" class="st0" points="4.5,11 2,6.5 4.5,2 9.5,2 12,6.5 9.5,11 					"/>
					<g id="Group-29">
						<path id="Fill-2" class="st1" d="M7,7.8C5.9,7.8,5.1,7,5.1,6S5.9,4.1,7,4.1C8,4.1,8.9,5,8.9,6S8,7.8,7,7.8"/>
						<path id="Fill-4" class="st2" d="M10.8,0.5C10.7,0.2,10.3,0,10,0H4C3.7,0,3.3,0.2,3.1,0.5L1.4,3.4c0,0.2,0,0.4,0.1,0.5l1.2,2
							l2.1-3.6h6.8c0.2,0,0.3,0.1,0.5,0.2L10.8,0.5"/>
						<path id="Fill-6" class="st3" d="M1.4,3.3L1.4,3.4c0,0.2,0,0.4,0.1,0.5l1.2,2l0.6-1.1L1.4,3.3"/>
						<path id="Fill-8" class="st1" d="M4.1,1.5c-0.2,0-0.4-0.2-0.4-0.4c0-0.2,0.2-0.4,0.4-0.4c0.2,0,0.4,0.2,0.4,0.4
							C4.5,1.4,4.3,1.5,4.1,1.5"/>
						<path id="Fill-10" class="st1" d="M10.2,1.2c0,0.2-0.2,0.3-0.3,0.3S9.5,1.4,9.5,1.2s0.2-0.3,0.3-0.3S10.2,1,10.2,1.2"/>
						<path id="Fill-12" class="st4" d="M13.9,5.5l-1.8-3c-0.2-0.1-0.3-0.2-0.5-0.2H9.1L11.2,6l-3.3,5.7c-0.1,0.1-0.2,0.2-0.3,0.3
							H10c0.3,0,0.7-0.2,0.8-0.5l3-5C14,6.2,14,5.8,13.9,5.5"/>
						<path id="Fill-14" class="st5" d="M12.2,2.7l-0.1-0.1c-0.2-0.1-0.3-0.2-0.5-0.2H9.1l0.6,1.1L12.2,2.7"/>
						<path id="Fill-16" class="st1" d="M9.8,11.1c-0.2,0-0.4-0.2-0.4-0.4c0-0.2,0.2-0.4,0.4-0.4c0.2,0,0.4,0.2,0.4,0.4
							C10.2,10.9,10,11.1,9.8,11.1"/>
						<path id="Fill-18" class="st1" d="M12.7,6.3c-0.2,0-0.4-0.2-0.4-0.4c0-0.2,0.2-0.4,0.4-0.4c0.2,0,0.4,0.2,0.4,0.4
							C13.1,6.2,12.9,6.3,12.7,6.3"/>
						<g id="Group-22" transform="translate(0.000000, 3.421053)">
							<g id="Clip-21">
							</g>
							<defs>
								<filter id="Adobe_OpacityMaskFilter" filterUnits="userSpaceOnUse" x="0" y="0" width="9.1" height="8.5">
									<feColorMatrix  type="matrix" values="1 0 0 0 0  0 1 0 0 0  0 0 1 0 0  0 0 0 1 0"/>
								</filter>
							</defs>
							<mask maskUnits="userSpaceOnUse" x="0" y="0" width="9.1" height="8.5" id="mask-2">
								<g class="st6">
									<polygon id="path-1" class="st1" points="0,0 9.1,0 9.1,8.5 0,8.5 									"/>
								</g>
							</mask>
							<path id="Fill-20" class="st7" d="M4.9,6.1L1.5,0.5C1.4,0.4,1.4,0.2,1.4,0L0.1,2.1C0,2.4,0,2.8,0.1,3l3,5
								C3.3,8.3,3.7,8.5,4,8.5h3.6c0.1-0.1,0.3-0.2,0.3-0.3l1.2-2.1H4.9"/>
						</g>
						<path id="Fill-23" class="st8" d="M7.4,11.9h0.2c0.1-0.1,0.3-0.2,0.3-0.3l1.2-2.1H7.8L7.4,11.9"/>
						<path id="Fill-25" class="st1" d="M4.1,11.1c-0.2,0-0.4-0.2-0.4-0.4c0-0.2,0.2-0.4,0.4-0.4c0.2,0,0.4,0.2,0.4,0.4
							C4.5,10.9,4.3,11.1,4.1,11.1"/>
						<path id="Fill-27" class="st1" d="M1.2,6.3C1,6.3,0.9,6.2,0.9,6c0-0.2,0.2-0.4,0.4-0.4c0.2,0,0.4,0.2,0.4,0.4
							C1.6,6.2,1.4,6.3,1.2,6.3"/>
					</g>
				</g>
			</g>
		</g>
	</g>
</g>
</svg>
