<?xml version="1.0" encoding="UTF-8"?>
<svg width="14px" height="10px" viewBox="0 0 14 10" version="1.1" xmlns="http://www.w3.org/2000/svg" xmlns:xlink="http://www.w3.org/1999/xlink">
    <!-- Generator: Sketch 59 (86127) - https://sketch.com -->
    <title>HDL/Icon/Standard/Service/aws</title>
    <desc>Created with Sketch.</desc>
    <g id="Colors" stroke="none" stroke-width="1" fill="none" fill-rule="evenodd">
        <g id="Service-icons" transform="translate(-125.000000, -363.000000)">
            <g id="AWS" transform="translate(100.000000, 353.000000)">
                <g id="HDL/Icon/Standard/Service/aws" transform="translate(25.000000, 10.000000)">
                    <g id="AWS">
                        <path d="M4,3.9 L4,4.3 C4,4.4 4.1,4.5 4.1,4.6 L4.1,4.7 C4.1,4.8 4.1,4.8 4,4.8 L3.9,5 L3.8,5 C3.8,5 3.7,5 3.7,4.9 C3.6,5 3.5,4.9 3.5,4.8 C3.5,4.7 3.4,4.6 3.4,4.5 C3,5 2.5,5.2 2,5.2 C1.6,5.2 1.3,5.1 1.1,4.9 C0.9,4.7 0.7,4.3 0.7,4 C0.7,3.6 0.8,3.3 1.1,3.1 C1.4,2.9 1.7,2.7 2.2,2.7 L2.7,2.7 C2.9,2.7 3,2.8 3.2,2.8 L3.2,2.5 C3.2,2.2 3.1,1.9 3,1.8 C2.9,1.6 2.7,1.6 2.3,1.6 C2.1,1.6 2,1.6 1.8,1.7 C1.6,1.7 1.5,1.8 1.3,1.9 C1.3,1.9 1.2,1.9 1.1,2 C1.1,2 1.1,2 1,2 C1,1.8 1,1.8 1,1.7 L1,1.5 C1,1.4 1,1.4 1,1.3 C1,1.3 1.1,1.2 1.1,1.2 C1.4,1.1 1.5,1.1 1.7,1 C2,1 2.2,0.9 2.5,0.9 C3,0.9 3.4,1 3.7,1.3 C4,1.6 4,1.9 4,2.4 L4,3.9 Z M2.2,4.6 C2.4,4.6 2.5,4.6 2.7,4.5 C2.8,4.4 3,4.3 3.1,4.2 C3.2,4.1 3.2,4 3.2,3.9 C3.2,3.8 3.2,3.6 3.2,3.5 L3.2,3.3 C3.1,3.3 3,3.3 2.9,3.2 C2.8,3.2 2.6,3.2 2.5,3.2 C2.2,3.2 2,3.3 1.8,3.4 C1.6,3.5 1.5,3.7 1.5,3.9 C1.5,4.1 1.6,4.3 1.7,4.4 C1.8,4.5 2,4.6 2.2,4.6 L2.2,4.6 Z M5.8,5.1 C5.7,5.1 5.7,5.1 5.6,5.1 C5.6,5.1 5.5,5 5.5,4.9 L4.5,1.3 C4.5,1.2 4.5,1.2 4.5,1.1 C4.5,1 4.5,1 4.6,1 L5,1 L5.2,1 C5.2,1 5.3,1.1 5.3,1.2 L6.1,4.2 L6.8,1.2 C6.8,1.1 6.8,1.1 6.9,1 L7.1,1 L7.5,1 L7.7,1 C7.7,1 7.8,1.1 7.8,1.2 L8.5,4.2 L9.3,1.2 C9.3,1.1 9.3,1.1 9.4,1 L9.6,1 L10,1 C10.1,1 10.1,1 10.1,1.1 L10.1,1.2 L10.1,1.3 L8.8,4.8 C8.8,4.9 8.8,5 8.7,5 C8.7,5 8.6,5 8.5,5 L8.2,5 C8.1,5.1 8,5.1 8,5 C8,5 7.9,4.9 7.9,4.8 L7.2,1.9 L6.5,4.8 C6.5,4.9 6.5,4.9 6.4,5 C6.3,5 6.3,5 6.2,5 L5.8,5 L5.8,5.1 Z M11.7,5.2 C11.5,5.2 11.2,5.2 11,5.1 C10.8,5 10.6,5 10.5,4.9 C10.4,4.9 10.4,4.8 10.4,4.8 L10.4,4.7 L10.4,4.4 C10.4,4.3 10.4,4.3 10.5,4.3 L10.6,4.3 L10.7,4.3 C10.9,4.4 11,4.4 11.2,4.5 C11.4,4.5 11.6,4.6 11.7,4.6 C12,4.6 12.2,4.6 12.4,4.5 C12.5,4.4 12.6,4.2 12.6,4.1 C12.6,4 12.6,3.9 12.5,3.8 C12.4,3.7 12.3,3.6 12,3.6 L11.3,3.4 C11,3.3 10.7,3.1 10.6,2.9 C10.5,2.7 10.4,2.5 10.4,2.2 C10.4,2 10.4,1.9 10.5,1.7 C10.6,1.6 10.7,1.4 10.8,1.3 C10.9,1.2 11.1,1.1 11.3,1.1 C11.5,1 11.7,1 11.9,1 L12.2,1 L12.5,1 C12.6,1 12.7,1 12.8,1.1 C12.9,1.1 12.9,1.1 13,1.2 C13.1,1.2 13.1,1.3 13.1,1.3 L13.1,1.4 L13.1,1.6 C13.1,1.7 13.1,1.7 13,1.7 C12.9,1.7 12.9,1.7 12.8,1.6 C12.5,1.5 12.2,1.4 11.9,1.4 C11.6,1.4 11.4,1.4 11.3,1.5 C11.2,1.6 11.1,1.7 11.1,1.9 C11.1,2 11.1,2.1 11.2,2.2 C11.3,2.3 11.5,2.4 11.7,2.4 L12.3,2.6 C12.6,2.7 12.9,2.8 13,3 C13.1,3.2 13.2,3.4 13.2,3.6 C13.2,3.8 13.2,4 13.1,4.1 C13,4.3 12.9,4.4 12.8,4.5 C12.7,5 12.5,5 12.3,5.1 C12.1,5.2 11.9,5.2 11.7,5.2 L11.7,5.2 Z" id="Shape" fill="#252F3E" fill-rule="nonzero"></path>
                        <g id="Group" transform="translate(0.000000, 6.000000)" fill="#FF9900" fill-rule="nonzero">
                            <path d="M12.5,1.4 C11,2.5 8.9,3.1 7,3.1 C4.4,3.1 2,2.1 0.3,0.5 C0.2,0.4 0.3,0.2 0.5,0.3 C2.4,1.4 4.8,2.1 7.2,2.1 C9,2.1 10.7,1.7 12.3,1 C12.5,0.9 12.8,1.2 12.5,1.4 L12.5,1.4 Z" id="Path"></path>
                            <path d="M13.1,0.7 C12.9,0.5 11.8,0.6 11.4,0.6 C11.3,0.6 11.2,0.5 11.4,0.4 C12.3,-0.2 13.7,0 13.8,0.2 C14,0.4 13.8,1.8 13,2.5 C12.9,2.6 12.8,2.5 12.8,2.4 C12.9,1.9 13.3,0.9 13.1,0.7 L13.1,0.7 Z" id="Path"></path>
                        </g>
                    </g>
                </g>
            </g>
        </g>
    </g>
</svg>