<?xml version="1.0" encoding="UTF-8"?>
<svg width="10px" height="14px" viewBox="0 0 10 14" version="1.1" xmlns="http://www.w3.org/2000/svg" xmlns:xlink="http://www.w3.org/1999/xlink">
    <!-- Generator: Sketch 59 (86127) - https://sketch.com -->
    <title>HDL/Icon/Standard/Service/jenkins</title>
    <desc>Created with Sketch.</desc>
    <g id="Colors" stroke="none" stroke-width="1" fill="none" fill-rule="evenodd">
        <g id="Service-icons" transform="translate(-118.000000, -1018.000000)">
            <g id="Jenkins" transform="translate(100.000000, 1000.000000)">
                <g id="HDL/Icon/Standard/Service/jenkins" transform="translate(18.000000, 18.000000)">
                    <g id="Jenkins">
                        <path d="M9.9,6.8 C9.9,9.5 7.7,11.8 5.1,11.8 C2.4,11.8 0.3,9.6 0.3,6.8 C0.3,4.1 2.5,1.8 5.1,1.8 C7.7,1.8 9.9,4 9.9,6.8" id="Path" fill="#D33833" fill-rule="nonzero"></path>
                        <path d="M0.4,8 C0.4,8 -2.77555756e-17,2.8 4.8,2.7 L4.5,2.1 L1.9,3 L1.1,3.8 L0.5,5.1 L0.1,6.5 L0.2,7.5" id="Path" fill="#EF3D3A" fill-rule="nonzero"></path>
                        <path d="M1.7,3.4 C0.9,4.3 0.3,5.5 0.3,6.8 C0.3,8.1 0.8,9.3 1.7,10.2 C2.6,11.1 3.7,11.6 5,11.6 C6.3,11.6 7.5,11.1 8.3,10.2 C9.2,9.3 9.7,8.1 9.7,6.8 C9.7,5.5 9.2,4.3 8.3,3.4 C7.5,2.5 6.3,2 5,2 C3.7,2 2.6,2.5 1.7,3.4 Z M1.5,10.4 C0.6,9.5 0,8.2 0,6.8 C0,5.4 0.6,4.1 1.5,3.2 C2.4,2.3 3.6,1.7 5,1.7 C6.4,1.7 7.6,2.3 8.5,3.2 C9.5,4.1 10,5.4 10,6.8 C10,8.2 9.4,9.5 8.5,10.4 C7.6,11.3 6.3,11.9 5,11.9 C3.6,11.9 2.4,11.3 1.5,10.4 Z" id="Shape" fill="#231F20" fill-rule="nonzero"></path>
                        <polyline id="Path" fill="#F0D6B7" fill-rule="nonzero" points="7.1 6.8 6.3 6.9 5.3 7 4.7 7 4.1 7 3.6 6.9 3.1 6.4 2.8 5.5 2.7 5.3 2.3 5.1 2 4.7 1.9 4.1 2.1 3.6 2.6 3.4 3 3.6 3.1 4 3.3 4 3.4 3.9 3.3 3.4 3.3 2.9 3.4 2.2 3.4 1.8 3.7 1.3 4.3 0.9 5.3 0.5 6.4 0.7 7.4 1.4 8 1.9 8.3 2.4 8.4 3.7 8.2 4.8 7.7 6 7.3 6.5"></polyline>
                        <polygon id="Path" fill="#335061" fill-rule="nonzero" points="6.4 10 3.8 10.1 3.8 10.5 4 12.1 3.9 12.2 2.1 11.6 2 11.4 1.7 9.3 1.3 8 1.2 7.7 2.7 6.7 3.2 6.5 3.6 7 4 7.3 4.4 7.4 4.6 7.5 4.8 8.5 5 8.7 5.4 8.6 5 9.1 6.6 9.9"></polygon>
                        <polygon id="Path" fill="#6D6B6D" fill-rule="nonzero" points="2.1 3.5 2.6 3.3 3 3.5 3.1 4 3.3 4 3.4 3.8 3.3 3.3 3.4 2.3 3.3 1.7 3.6 1.3 4.3 0.7 4.1 0.5 3.1 1 2.7 1.3 2.5 1.8 2.1 2.3 2 2.9"></polygon>
                        <path d="M2.8,1.8 C2.8,1.8 3.1,1.1 4.2,0.8 C5.3,0.5 4.3,0.6 4.3,0.6 L3.1,1 L2.6,1.5 L2.4,1.8 L2.8,1.8 Z" id="Path" fill="#DCD9D8" fill-rule="nonzero"></path>
                        <path d="M2.3,3.4 C2.3,3.4 1.9,2.1 3.4,1.9 L3.3,1.7 L2.3,2 L2,2.9 L2.1,3.5 L2.3,3.4 Z" id="Path" fill="#DCD9D8" fill-rule="nonzero"></path>
                        <path d="M2.9,5.1 L3.1,4.9 C3.1,4.9 3.2,4.9 3.2,5 C3.2,5.1 3.3,6.3 4.1,6.9 C4.2,7 3.5,6.9 3.5,6.9 L2.9,5.9" id="Path" fill="#F7E4CD" fill-rule="nonzero"></path>
                        <path d="M6.3,4.8 C6.3,4.8 6.3,4.2 6.5,4.3 C6.7,4.3 6.7,4.5 6.7,4.5 C6.7,4.5 6.2,4.7 6.3,4.8" id="Path" fill="#F7E4CD" fill-rule="nonzero"></path>
                        <path d="M7.8,2.7 C7.8,2.7 7.5,2.8 7.5,3 C7.5,3.3 7.8,3.1 7.9,3" id="Path" fill="#F7E4CD" fill-rule="nonzero"></path>
                        <path d="M5.5,2.8 C5.5,2.8 5.1,2.9 5.1,3.1 C5.1,3.4 5.6,3.3 5.7,3.2" id="Path" fill="#F7E4CD" fill-rule="nonzero"></path>
                        <path d="M3,4 C3,4 2.3,3.6 2.2,4 C2.2,4.3 2,4.6 2.4,5.1 L2.1,5 L1.9,4.4 L1.8,3.9 L2.2,3.5 L2.7,3.5 L3,3.7 L3,4 Z" id="Path" fill="#F7E4CD" fill-rule="nonzero"></path>
                        <path d="M3.4,2.8 C3.4,2.8 3.7,1.2 5.3,0.9 C6.6,0.6 7.3,1 7.6,1.3 C7.6,1.3 6.4,-0.1 5.3,0.3 C4.1,0.7 3.3,1.4 3.4,1.9 L3.4,2.8 Z" id="Path" fill="#F7E4CD" fill-rule="nonzero"></path>
                        <path d="M7.7,1.4 C7.7,1.4 7.2,1.4 7.1,1.9 L7.1,2 C7.1,2 7.5,1.5 7.8,1.8" id="Path" fill="#F7E4CD" fill-rule="nonzero"></path>
                        <path d="M5.3,2 C5.3,2 5.2,1.3 4.6,1.7 C4.2,2 4.2,2.4 4.3,2.5 C4.4,2.6 4.4,2.7 4.4,2.6 C4.5,2.5 4.4,2.2 4.6,2.1 C4.8,2 5.2,1.9 5.3,2" id="Path" fill="#F7E4CD" fill-rule="nonzero"></path>
                        <path d="M3.6,7 L1.8,7.8 C1.8,7.8 2.5,10.7 2.2,11.6 L1.9,11.5 L1.9,10.4 L1.4,8.3 L1.2,7.7 L3,6.5 L3.6,7 Z" id="Path" fill="#49728B" fill-rule="nonzero"></path>
                        <path d="M3.8,8.6 L4,8.9 L4,10 L3.7,10 C3.7,10 3.7,9.2 3.7,9.1 C3.7,9 3.7,8.7 3.7,8.7" id="Path" fill="#49728B" fill-rule="nonzero"></path>
                        <polyline id="Path" fill="#49728B" fill-rule="nonzero" points="3.8 10.2 3 10.2 3.2 10.4 3.8 10.5"></polyline>
                        <polygon id="Path" fill="#335061" fill-rule="nonzero" points="6.6 10 7.3 10 7.5 11.7 6.8 11.8"></polygon>
                        <path d="M6.8,10 L7.8,9.9 C7.8,9.9 8.2,8.8 8.2,8.8 C8.2,8.8 8.6,7.2 8.6,7.2 L7.8,6.4 L7.6,6.3 L7.2,6.7 L7.2,8.4 L6.8,10 Z" id="Path" fill="#335061" fill-rule="nonzero"></path>
                        <path d="M7.2,9.9 L6.6,10 L6.7,10.5 C6.9,10.6 7.3,10.3 7.3,10.3" id="Path" fill="#49728B" fill-rule="nonzero"></path>
                        <polygon id="Path" fill="#49728B" fill-rule="nonzero" points="7.3 6.6 8.6 7.6 8.6 7.2 7.6 6.3"></polygon>
                        <polygon id="Path" fill="#FFFFFF" fill-rule="nonzero" points="4.4 13.7 4 12.1 3.8 11 3.8 10.2 5.5 10 6.6 10 6.5 12 6.7 13.5 6.7 13.8 5.3 13.9"></polygon>
                        <path d="M6.4,10 C6.4,10 6.3,11.9 6.6,13.3 C6.6,13.3 6,13.7 5.2,13.7 L6.8,13.6 L7,13.5 L6.8,10.5 L6.6,9.9" id="Path" fill="#DCD9D8" fill-rule="nonzero"></path>
                        <polyline id="Path" fill="#FFFFFF" fill-rule="nonzero" points="7.5 11.5 8.2 11.3 9.6 11.2 9.8 10.6 9.4 9.5 9 9.5 8.4 9.7 7.8 10 7.5 9.9 7.3 10"></polyline>
                        <path d="M7.5,11.2 C7.5,11.2 8,11 8.1,11 L7.9,10 L8.1,9.9 C8.1,9.9 8.3,10.9 8.3,11 C8.3,11 9.3,11.1 9.4,11.1 C9.4,11.1 9.6,10.7 9.6,10.2 L9.8,10.8 L9.8,11.1 L9.5,11.5 L9.2,11.6 L8.6,11.6 L8.4,11.4 L7.8,11.5 L7.6,11.6" id="Path" fill="#DCD9D8" fill-rule="nonzero"></path>
                        <path d="M6.7,9.9 L6.3,8.9 L5.9,8.2 C5.9,8.2 6,8 6.1,8 C6.2,8 6.5,8 6.5,8 L7,8.1 L7,8.8 L6.7,9.9 Z" id="Path" fill="#FFFFFF" fill-rule="nonzero"></path>
                        <path d="M6.8,9.5 C6.8,9.5 6.3,8.5 6.3,8.4 C6.3,8.4 6.4,8.2 6.5,8.2 C6.6,8.3 6.9,8.4 6.9,8.4 L6.9,8.1 L6.3,7.9 L5.9,8 L6.6,9.7 L6.7,9.7" id="Path" fill="#DCD9D8" fill-rule="nonzero"></path>
                        <polyline id="Path" fill="#FFFFFF" fill-rule="nonzero" points="4.6 7.1 4.1 7 3.6 6.9 3.6 7 3.8 7.3 4.5 7.6"></polyline>
                        <path d="M3.7,7.1 C3.7,7.1 4.3,7.3 4.5,7.3 L4.5,7.5 L4,7.4 L3.7,7.1 Z" id="Path" fill="#DCD9D8" fill-rule="nonzero"></path>
                        <path d="M7.5,8 C7.2,8 6.9,8 6.6,7.9 C6.6,7.8 6.6,7.7 6.6,7.6 C6.7,7.6 6.8,7.6 6.9,7.5 C6.8,7.5 6.7,7.4 6.6,7.5 C6.6,7.4 6.6,7.4 6.5,7.3 C6.7,7.3 7.2,6.9 7.4,7 C7.5,7.1 7.6,7.4 7.6,7.6 C7.6,7.8 7.5,7.9 7.5,8" id="Path" fill="#D33833" fill-rule="nonzero"></path>
                        <path d="M6,7.5 C6,7.5 6,7.6 6,7.5 C5.9,7.6 5.7,7.6 5.6,7.7 C5.8,7.7 5.9,7.7 6,7.8 L6,8 C5.8,8.1 5.7,8.3 5.4,8.4 C5.3,8.5 5,8.6 4.9,8.6 C4.8,8.6 4.8,8.5 4.8,8.4 C4.7,8.3 4.6,8 4.6,7.8 C4.6,7.5 4.6,7 4.9,7.1 C5.1,7.1 5.4,7.3 5.6,7.4 C5.7,7.4 5.8,7.5 6,7.5" id="Path" fill="#D33833" fill-rule="nonzero"></path>
                        <path d="M6.2,7.9 C6.2,7.7 6.1,7.7 6.2,7.6 C6.5,7.2 6.6,8 6.2,7.9" id="Path" fill="#D33833" fill-rule="nonzero"></path>
                        <path d="M6.8,8 C6.8,8 6.7,7.8 6.8,7.8 C6.9,7.7 7,7.8 7,7.7 C7,7.6 7,7.5 7,7.4 C7,7.3 7.1,7.3 7.2,7.3 C7.3,7.3 7.6,7.2 7.6,7.3 L7.5,6.9 L7.2,6.9 L6.5,7.3 L6.5,7.5 L6.5,7.9" id="Path" fill="#EF3D3A" fill-rule="nonzero"></path>
                        <path d="M4.8,8.6 C4.8,8.3 4.8,8 4.7,7.7 C4.7,7.3 4.8,7.3 5.2,7.3 C5.3,7.3 5.6,7.4 5.6,7.4 C5.7,7.6 5.4,7.6 5.7,7.7 C6,7.9 6.4,7.7 6.3,7.4 C6.2,7.4 6,7.4 5.9,7.4 C5.8,7.3 5.6,7.2 5.5,7.1 C5.3,7 4.9,6.9 4.7,7 C4.2,7.4 4.7,8.2 4.8,8.6" id="Path" fill="#EF3D3A" fill-rule="nonzero"></path>
                        <g id="Group" transform="translate(2.000000, 1.000000)" fill="#231F20" fill-rule="nonzero">
                            <path d="M3.3,1 C2.8,0.9 2.6,1.3 2.4,1.6 C2.3,1.6 2.3,1.4 2.4,1.3 C2.4,1 2.8,0.7 3.1,0.7 C3.2,0.8 3.4,0.9 3.3,1" id="Path"></path>
                            <path d="M5.8,1.6 C5.9,1.8 6,2.1 6.2,2.3 C6.1,2.5 5.5,2.7 5.5,2.3 C5.6,2.2 5.9,2.3 6,2.2 C5.8,2.1 5.7,1.9 5.8,1.6" id="Path"></path>
                            <path d="M3.6,1.6 C3.7,1.8 3.7,2 3.9,2.2 C3.9,2.2 4.1,2.3 4,2.5 C4,2.5 3.9,2.6 3.8,2.7 C3.6,2.7 3,2.7 3.2,2.4 C3.4,2.4 3.7,2.5 3.8,2.4 C3.7,2.2 3.5,1.8 3.6,1.6" id="Path"></path>
                            <path d="M5.7,3.6 C5.3,3.9 4.9,4.1 4.3,4.1 C4.2,4 4.1,3.7 4.3,3.5 C4.4,3.6 4.3,3.8 4.5,3.8 C4.8,3.9 5.2,3.6 5.5,3.5 C5.6,3.2 5.5,3.2 5.4,3 C5,2.7 4.6,2.3 4.7,1.8 C4.8,1.8 4.8,2 4.8,2 C4.9,2.3 5.3,2.8 5.6,3.1 C5.7,3.2 5.8,3.2 5.8,3.3 C5.8,3.4 5.7,3.5 5.7,3.6" id="Path"></path>
                            <path d="M0.9,3.4 C0.8,3.3 0.8,3 0.6,3 C0.4,3 0.5,3.4 0.5,3.6 C0.4,3.5 0.3,3.1 0.4,3 C0.3,2.9 0.3,3 0.2,3.1 C0.3,2.5 1,2.8 0.9,3.4" id="Path"></path>
                            <path d="M5.9,3.9 C5.7,4.2 5.5,4.5 5,4.6 C5,4.5 5,4.3 5,4.3 C5.4,4.2 5.6,4 5.9,3.9" id="Path"></path>
                            <path d="M3.5,4.1 C3.8,4.3 4.4,4.3 4.8,4.3 L4.8,4.6 C4.3,4.6 3.7,4.5 3.5,4.1" id="Path"></path>
                            <path d="M3.5,4.4 C3.7,4.9 4.5,4.9 5.1,4.9 C5,4.9 5,5 4.9,5 C4.7,5.1 4.1,5.1 3.9,5 C3.7,4.9 3.6,4.7 3.5,4.6 C3.4,4.5 3.2,4.4 3.5,4.4" id="Path"></path>
                        </g>
                        <path d="M7.6,8.4 C7.4,8.8 7.1,9.3 6.8,9.7 C7,9.3 7,8.7 7,8.2 C7.3,8.1 7.5,8.2 7.6,8.4" id="Path" fill="#81B0C4" fill-rule="nonzero"></path>
                        <path d="M9,10 C8.7,10.1 8.5,10.3 8.2,10.3 C8.4,10.1 8.7,10 9,10" id="Path" fill="#231F20" fill-rule="nonzero"></path>
                        <path d="M9.1,10.4 C8.9,10.4 8.6,10.5 8.4,10.4 C8.5,10.3 8.9,10.4 9.1,10.4" id="Path" fill="#231F20" fill-rule="nonzero"></path>
                        <path d="M9.2,10.8 C8.9,10.8 8.6,10.8 8.4,10.8 C8.5,10.6 9.1,10.7 9.2,10.8" id="Path" fill="#231F20" fill-rule="nonzero"></path>
                        <path d="M7.2,11.9 C7.2,12.2 7.4,12.6 7.4,12.9 C7.3,12.9 7.2,13 7,13 C7,12.7 6.9,12.2 7,11.9 C6.9,11.9 7.1,11.8 7.2,11.9" id="Path" fill="#DCD9D8" fill-rule="nonzero"></path>
                        <path d="M6.7,7 C6.6,7.1 6.5,7.2 6.4,7.3 C6.1,7.3 6,7.3 5.8,7.1 C6,7.2 6.4,7 6.7,7" id="Path" fill="#F0D6B7" fill-rule="nonzero"></path>
                        <path d="M5.2,9.1 C5.3,8.7 5.6,8.6 5.9,8.4 C6.2,8.8 6.4,9.3 6.6,9.8 C6.1,9.5 5.6,9.3 5.2,9.1" id="Path" fill="#81B0C4" fill-rule="nonzero"></path>
                        <path d="M6.8,11.9 L6.8,13 C7,13 7.1,13 7.2,12.9 C7.2,12.5 7.1,12.2 7,11.9 C7.1,11.8 6.9,11.9 6.8,11.9 L6.8,11.9 Z M3.8,10.2 C3.9,11.4 4.1,12.4 4.5,13.4 C5.3,13.6 6.2,13.6 6.8,13.4 C6.7,12.8 6.7,12.1 6.7,11.5 C6.6,11 6.7,10.6 6.6,10.1 C5.8,10 4.6,10.1 3.8,10.2 L3.8,10.2 Z M6.8,10.1 C6.8,10.6 6.8,11.1 6.9,11.6 C7.1,11.6 7.2,11.6 7.4,11.5 C7.3,11 7.3,10.5 7.2,10 C7,10.1 6.9,10.1 6.8,10.1 Z M7.7,10.1 C7.6,10.1 7.5,10.1 7.4,10.1 C7.4,10.5 7.5,11 7.6,11.4 C7.7,11.4 7.8,11.3 7.9,11.3 C8,10.9 7.9,10.4 7.7,10.1 L7.7,10.1 Z M9.2,11.4 C9.5,11.3 9.7,11 9.6,10.6 C9.5,10.4 9.4,9.9 9.3,9.7 C9.2,9.6 9,9.4 8.9,9.5 C8.6,9.7 8.2,9.7 8,9.9 C8.1,10.2 8.1,10.7 8.2,11.1 C8.5,11.1 8.9,11 9.2,11.1 C9,11.2 8.8,11.2 8.6,11.3 C8.7,11.5 9,11.5 9.2,11.4 L9.2,11.4 Z M6.5,9.7 C6.3,9.2 6.1,8.7 5.8,8.3 C5.6,8.5 5.2,8.7 5.2,9.1 C5.6,9.3 6.1,9.5 6.5,9.7 Z M7,8.2 C7,8.7 7,9.3 6.8,9.7 C7.1,9.3 7.3,8.9 7.6,8.4 C7.5,8.2 7.3,8.1 7,8.2 L7,8.2 Z M6.5,8 C6.4,8 6.3,8.1 6.1,8.1 C6.1,8.1 6,8.2 6,8.2 C6.3,8.6 6.5,9.2 6.7,9.6 C6.8,9.2 6.8,8.7 6.9,8.2 C6.7,8.2 6.6,8 6.5,8 L6.5,8 Z M6.1,7.5 L6.1,7.8 C6.6,8 6.5,7.2 6.1,7.5 Z M5.6,7.4 C5.4,7.2 5.1,7.1 4.9,7.1 C4.6,7 4.6,7.5 4.6,7.8 C4.6,8 4.7,8.3 4.8,8.4 C4.8,8.5 4.8,8.5 4.9,8.6 C5,8.6 5.4,8.5 5.5,8.4 C5.7,8.3 5.8,8.1 6,8 C6,7.9 6,7.9 6,7.8 C5.9,7.7 5.8,7.7 5.6,7.7 C5.7,7.6 5.9,7.6 6,7.6 C6,7.6 6,7.6 6,7.5 C5.8,7.5 5.7,7.4 5.6,7.4 L5.6,7.4 Z M3.8,7 C3.6,7.2 4.2,7.4 4.4,7.4 C4.4,7.3 4.5,7.2 4.4,7.1 C4.2,7.1 3.9,7.1 3.8,7 L3.8,7 Z M5.7,7.1 C5.9,7.3 6,7.3 6.3,7.3 C6.5,7.2 6.6,7.1 6.7,7 C6.4,7 6,7.2 5.7,7.1 Z M7.6,7.6 C7.6,7.4 7.5,7 7.4,7 C7.2,6.9 6.7,7.3 6.6,7.4 C6.6,7.5 6.7,7.5 6.7,7.6 L7,7.6 C6.9,7.6 6.8,7.6 6.7,7.7 L6.7,8 L7.5,8 C7.5,7.9 7.6,7.8 7.6,7.6 Z M3.5,7.2 C3.4,7.2 3.1,6.7 3.1,6.7 C2.5,7 1.9,7.4 1.4,7.8 C1.9,8.9 2.1,10.1 2.1,11.4 C2.7,11.6 3.1,12 3.9,12 C3.8,11.4 3.7,10.8 3.7,10.2 C3.5,10.1 3.2,10.2 3.1,10.2 C3,10 3.3,10.1 3.3,10 C3.3,9.9 3.1,9.9 3.2,9.7 C3.3,9.8 3.4,9.9 3.6,9.9 C3.7,9.6 3.6,9.1 3.6,8.8 C3.6,8.8 3.6,8.5 3.7,8.6 C3.8,8.6 3.7,9.2 3.7,9.4 C3.7,9.6 3.7,9.8 3.8,10 C4.5,9.9 5.3,9.8 6.1,9.8 C5.9,9.7 5.7,9.7 5.5,9.5 C5.4,9.5 5,9.3 4.9,9.2 C4.9,9 5.1,8.9 5.1,8.7 C4.7,8.9 4.7,8.6 4.6,8.3 C4.5,8 4.5,7.8 4.4,7.7 C4.1,7.5 3.8,7.4 3.5,7.2 L3.5,7.2 Z M7.2,6.8 C7.7,6.6 7.8,7.7 7.6,8.1 C7.6,8.2 7.7,8.3 7.8,8.4 C7.5,8.9 7.2,9.4 6.9,9.9 C7.1,9.8 7.4,9.9 7.7,9.8 C7.8,9.8 7.9,9.5 7.9,9.4 C8.1,8.9 8.3,8.3 8.4,7.9 C8.4,7.8 8.5,7.6 8.5,7.5 C8.5,7.3 8.3,7.2 8.1,7.1 C7.9,6.8 7.8,6.6 7.6,6.4 C7.5,6.6 7.3,6.7 7.2,6.8 L7.2,6.8 Z M2.3,2.2 C2.1,2.5 2.1,3 2.2,3.4 C2.6,3.1 3.2,3.4 3.2,3.9 C3.4,3.9 3.3,3.6 3.2,3.5 C3.1,3 3.4,2.4 3.2,1.9 C2.9,1.8 2.6,2 2.3,2.2 Z M4.1,0.7 C3.5,0.8 2.8,1.2 2.6,1.7 C2.8,1.7 2.9,1.6 3.1,1.6 L3.3,1.6 C3.5,1.6 3.6,1.2 3.7,1.1 C3.8,1 3.9,0.9 4,0.8 C4.1,0.8 4.2,0.8 4.1,0.7 Z M7,0.8 C6.4,0.5 5.4,0.2 4.8,0.6 C4.3,0.8 3.6,1.2 3.4,1.7 C3.6,2.2 3.3,2.7 3.3,3.2 C3.3,3.5 3.4,3.7 3.4,4 C3.4,4.1 3.2,4.1 3,4.1 C3,3.8 2.9,3.5 2.6,3.5 C2.2,3.5 2,3.8 2,4.1 C2,4.5 2.3,5.1 2.7,5.1 C2.9,5.1 2.9,4.9 3.1,4.9 C3.2,5.1 2.9,5.2 2.9,5.3 L2.9,5.6 C3,5.9 3.2,6.4 3.3,6.6 C3.6,6.9 4.1,7 4.5,7 C4.6,6.8 4.9,6.8 5.1,6.9 C4.9,6.8 4.7,6.5 4.5,6.3 C4.3,6.1 4,5.8 4,5.5 C4.4,6.1 4.7,6.6 5.5,6.8 C6.1,7 6.7,6.7 7.2,6.4 C7.4,6.3 7.5,6.1 7.6,5.9 C8.1,5.2 8.3,4.2 8.3,3.3 C8.3,2.9 8.3,2.5 8.1,2.3 C7.9,2 7.5,1.7 7.2,2 C7.2,1.7 7.4,1.6 7.8,1.7 C7.5,1.4 7.3,1 7,0.8 L7,0.8 Z M8,9.7 C8.4,9.5 9.3,9.1 9.6,9.7 C9.7,9.9 9.8,10.3 9.9,10.5 C10,10.8 9.8,11.5 9.5,11.6 C9.2,11.7 8.9,11.7 8.5,11.6 C8.5,11.6 8.4,11.5 8.4,11.4 C8.1,11.4 7.9,11.4 7.7,11.5 C7.7,11.7 7.6,11.7 7.5,11.8 C7.4,12.1 7.7,12.6 7.6,12.9 C7.6,13.1 7.3,13.2 7.1,13.2 L7.1,13.5 C7.1,13.7 6.8,13.8 6.6,13.8 C5.9,14 5,14 4.3,13.8 C4.1,13.4 4,12.8 3.8,12.4 C3.2,12.5 2.7,12.1 2.2,11.9 C2,11.8 1.8,11.8 1.8,11.7 C1.7,11.6 1.8,11.3 1.8,11.1 C1.8,10.5 1.7,10 1.6,9.4 C1.5,9 1.4,8.8 1.3,8.5 C1.2,8.3 1.1,8 1.1,7.8 C1,7.4 1.3,7.4 1.6,7.3 C1.9,7 2.1,6.9 2.5,6.7 C2.6,6.6 2.9,6.5 3,6.4 C3,6.2 2.8,6 2.8,5.9 C2.7,5.7 2.6,5.6 2.6,5.4 C2.3,5.4 2.1,5.2 2,5 C1.8,4.7 1.6,4.1 1.8,3.6 C1.8,3.6 1.9,3.5 1.9,3.4 C1.9,3.3 1.9,3.1 1.9,3 C1.8,2.5 2,2 2.4,1.8 C2.6,1.1 3.1,0.9 3.7,0.6 C3.9,0.5 4.1,0.4 4.4,0.3 C5.2,7.67441666e-15 6.5,7.67441666e-15 7.2,0.6 C7.5,0.8 8,1.3 8.1,1.6 C8.5,2.5 8.5,4 8.2,5.1 C8.2,5.2 8.1,5.5 8,5.6 C8,5.8 7.8,6 7.8,6.2 C7.8,6.3 8.2,6.6 8.3,6.7 C8.5,6.8 8.7,7 8.8,7.2 C8.8,7.4 8.7,7.7 8.7,7.9 C8.4,8.5 8.2,9.1 8,9.7 L8,9.7 Z" id="Shape" fill="#231F20" fill-rule="nonzero"></path>
                        <path d="M5,5.2 C5,5.2 5.2,5.1 5.3,5.2 C5.3,5.2 5.1,5.2 5.1,5.6 L5,5.6 C5.1,5.6 5,5.3 5,5.2" id="Path" fill="#F7E4CD" fill-rule="nonzero"></path>
                        <path d="M6.7,8.4 C6.7,8.5 6.7,8.5 6.6,8.5 C6.5,8.5 6.5,8.5 6.5,8.4 C6.5,8.3 6.5,8.3 6.6,8.3 C6.6,8.3 6.7,8.3 6.7,8.4" id="Path" fill="#1D1919" fill-rule="nonzero"></path>
                        <path d="M6.8,8.9 C6.8,9 6.8,9 6.7,9 C6.6,9 6.6,9 6.6,8.9 C6.6,8.8 6.6,8.8 6.7,8.8 C6.7,8.8 6.8,8.8 6.8,8.9" id="Path" fill="#1D1919" fill-rule="nonzero"></path>
                    </g>
                </g>
            </g>
        </g>
    </g>
</svg>