<?xml version="1.0" encoding="utf-8"?>
<!-- Generator: Adobe Illustrator 20.1.0, SVG Export Plug-In . SVG Version: 6.00 Build 0)  -->
<svg version="1.1" id="Layer_1" xmlns="http://www.w3.org/2000/svg" xmlns:xlink="http://www.w3.org/1999/xlink" x="0px" y="0px"
	 viewBox="0 0 14 14" style="enable-background:new 0 0 14 14;" xml:space="preserve">
<style type="text/css">
	.st0{fill:#FFFFFF;}
	.st1{fill:#FFD106;}
	.st2{fill:#21BAB0;}
	.st3{fill:#EE4F97;}
	.st4{fill:#14A7DF;}
	.st5{fill:#91C73E;}
	.st6{fill:#0279A0;}
</style>
<title>HDL/Icon/Standard/Service/elk</title>
<desc>Created with Sketch.</desc>
<g id="Colors">
	<g id="Service-icons" transform="translate(-122.000000, -831.000000)">
		<g id="Elk" transform="translate(101.000000, 813.000000)">
			<g id="HDL_x2F_Icon_x2F_Standard_x2F_Service_x2F_elk" transform="translate(21.000000, 18.000000)">
				<g id="ELK">
					<path id="Path" class="st0" d="M13.7,7.3c0-1.1-0.7-2.1-1.8-2.5c0-0.2,0.1-0.5,0.1-0.7c0-2.1-1.7-3.8-3.8-3.8
						c-1.2,0-2.3,0.6-3,1.6C4.8,1.6,4.4,1.4,3.9,1.4c-1.1,0-2,0.9-2,2c0,0.2,0,0.5,0.1,0.7C1,4.5,0.3,5.6,0.3,6.7S1,8.8,2,9.2v0.7
						c0,2.1,1.7,3.8,3.8,3.8c1.2,0,2.4-0.6,3.1-1.6c0.4,0.3,0.8,0.4,1.2,0.4c1.1,0,2-0.9,2-2c0-0.2,0-0.5-0.1-0.7
						C13,9.5,13.7,8.4,13.7,7.3"/>
					<path id="Path_1_" class="st1" d="M5.6,6.1l3,1.3l3-2.6c0-0.2,0.1-0.4,0.1-0.7c0-1.8-1.5-3.3-3.3-3.3c-1.1,0-2.1,0.5-2.7,1.4
						L5,4.8L5.6,6.1z"/>
					<path id="Path_2_" class="st2" d="M2.5,9.2c0,0.2-0.1,0.4-0.1,0.7c0,1.8,1.5,3.3,3.3,3.3c1.1,0,2.1-0.5,2.8-1.5L9,9.2L8.4,7.9
						l-3-1.4L2.5,9.2z"/>
					<path id="Path_3_" class="st3" d="M2.5,4.1l2,0.5L5,2.3C4.7,2.1,4.3,1.9,4,1.9c-0.9,0-1.6,0.7-1.6,1.6C2.4,3.7,2.4,3.9,2.5,4.1
						"/>
					<path id="Path_4_" class="st4" d="M2.3,4.6C1.4,4.9,0.8,5.7,0.8,6.7c0,0.9,0.6,1.8,1.4,2.1L5,6.2L4.5,5.1L2.3,4.6z"/>
					<path id="Path_5_" class="st5" d="M9.1,11.7c0.3,0.2,0.6,0.3,1,0.3c0.9,0,1.6-0.7,1.6-1.6c0-0.2,0-0.4-0.1-0.6l-2-0.5L9.1,11.7
						z"/>
					<path id="Path_6_" class="st6" d="M9.5,8.9l2.2,0.5c0.9-0.3,1.5-1.2,1.5-2.1s-0.6-1.8-1.4-2.1L8.9,7.8L9.5,8.9z"/>
				</g>
			</g>
		</g>
	</g>
</g>
</svg>
