<?xml version="1.0" encoding="utf-8"?>
<!-- Generator: Adobe Illustrator 20.1.0, SVG Export Plug-In . SVG Version: 6.00 Build 0)  -->
<svg version="1.1" id="Layer_1" xmlns="http://www.w3.org/2000/svg" xmlns:xlink="http://www.w3.org/1999/xlink" x="0px" y="0px"
	 viewBox="0 0 14 11" style="enable-background:new 0 0 14 11;" xml:space="preserve">
<style type="text/css">
	.st0{fill:#008774;}
	.st1{fill:#00AE9E;}
</style>
<title>HDL/Icon/Standard/Service/pivotal</title>
<desc>Created with Sketch.</desc>
<g id="Colors">
	<g id="Service-icons" transform="translate(-123.000000, -1396.000000)">
		<g id="Pivotal_1_" transform="translate(102.000000, 1384.000000)">
			<g id="HDL_x2F_Icon_x2F_Standard_x2F_Service_x2F_pivotal" transform="translate(21.000000, 12.000000)">
				<g id="Pivotal">
					<path id="Path" class="st0" d="M8.2,8.5c0-2.2-1.8-4-4-4s-4,1.8-4,4c0,0.4,0,0.7,0.1,1.1l0,0c0,0.1,0.1,0.3,0.1,0.4
						c0,0,0.1,0,0.2,0h1.1c0.1,0,0.2-0.1,0.2-0.2V9.7c0-0.1-0.1-0.2-0.1-0.2l0,0C1.2,8.1,1.8,6.6,3.2,6S6,6,6.6,7.4
						c0.3,0.7,0.3,1.5,0,2.1l0,0c0,0.1-0.1,0.2-0.1,0.3c0,0.1,0,0.2,0.1,0.2c0,0,0,0,0.1,0h1.1c0.1,0,0.1,0,0.1-0.1
						C8,9.8,8,9.7,8,9.5l0,0C8.1,9.2,8.2,8.8,8.2,8.5z"/>
					<path id="Path_1_" class="st1" d="M8.7,3.1c-2.8,0-5.1,2.3-5.1,5.1c0,0.4,0.1,0.9,0.2,1.3l0,0c0,0.1,0.1,0.3,0.1,0.4
						C4,10,4,10,4.1,10h1.1c0.1,0,0.2-0.1,0.2-0.2c0,0,0,0,0-0.1c0-0.1-0.1-0.2-0.1-0.3l0,0c-0.7-2,0.3-4.1,2.3-4.8s4,0.4,4.7,2.4
						c0.3,0.8,0.3,1.7,0,2.6l0,0c0,0.1-0.1,0.2-0.1,0.3c0,0.1,0,0.2,0.1,0.2c0,0,0,0,0.1,0h1.1c0.1,0,0.1,0,0.1-0.1s0.1-0.3,0.1-0.4
						l0,0c0.7-2.7-0.9-5.5-3.6-6.2C9.6,3.2,9.2,3.1,8.7,3.1z"/>
					<path id="Path_2_" class="st0" d="M11.6,4.5C11.6,2,9.5,0,7.1,0C4.6,0,2.5,2,2.5,4.5c0,0.1,0,0.3,0,0.4h1.3
						C3.7,3.1,5,1.6,6.7,1.4c1.8-0.2,3.3,1.1,3.5,2.9c0,0.1,0,0.2,0,0.2c0,0.1,0,0.1,0,0.2l0,0c0,0.6-0.3,1.2-0.6,1.7
						c-0.1,0.1,0,0.2,0,0.2h0.1h1.2c0.1,0,0.1,0,0.2-0.1C11.4,5.9,11.6,5.2,11.6,4.5L11.6,4.5L11.6,4.5z"/>
				</g>
			</g>
		</g>
	</g>
</g>
</svg>
