<?xml version="1.0" encoding="utf-8"?>
<!-- Generator: Adobe Illustrator 20.1.0, SVG Export Plug-In . SVG Version: 6.00 Build 0)  -->
<svg version="1.1" id="Layer_1" xmlns="http://www.w3.org/2000/svg" xmlns:xlink="http://www.w3.org/1999/xlink" x="0px" y="0px"
	 viewBox="0 0 14 14" style="enable-background:new 0 0 14 14;" xml:space="preserve">
<style type="text/css">
	.st0{fill:#1496FF;}
	.st1{fill:#1284EA;}
	.st2{fill:#B4DC00;}
	.st3{fill:#6F2DA8;}
	.st4{fill:#591F91;}
	.st5{fill:#73BE28;}
</style>
<title>HDL/Icon/Standard/Service/dynatrace</title>
<desc>Created with Sketch.</desc>
<g id="Colors">
	<g id="Service-icons" transform="translate(-122.000000, -735.000000)">
		<g id="Dynatrace_1_" transform="translate(101.000000, 717.000000)">
			<g id="HDL_x2F_Icon_x2F_Standard_x2F_Service_x2F_dynatrace" transform="translate(21.000000, 18.000000)">
				<g id="Dynatrace">
					<path id="Path" class="st0" d="M4.8,1.3C4.7,2.2,4.4,3.6,4.3,5C4.1,7.5,4.2,9.2,4.2,9.2l-3.5,3.3c0,0-0.3-1.8-0.4-3.9
						c0-1.3-0.1-2.4-0.1-3.1V5.4c0-0.1,0.1-0.5,0.5-1C1.3,3.9,4.9,1,4.8,1.3z"/>
					<path id="Path_1_" class="st1" d="M4.8,1.3C4.7,2.2,4.4,3.6,4.3,5c0,0-3.9-0.5-4.1,0.5c0-0.1,0.1-0.6,0.5-1.1S4.9,1,4.8,1.3z"
						/>
					<path id="Path_2_" class="st2" d="M0.2,5.3v0.2C0.3,5.3,0.4,5.2,0.5,5c0.3-0.3,0.7-0.4,0.9-0.4c1-0.1,2.3-0.3,3.8-0.3
						c2.4-0.1,4.1,0.1,4.1,0.1L12.8,1c0,0-1.8-0.3-3.9-0.6C7.5,0.3,6.3,0.1,5.6,0.1c-0.1,0-0.5-0.1-1,0.4s-3,2.9-4,3.8
						C0.2,4.8,0.2,5.3,0.2,5.3z"/>
					<path id="Path_3_" class="st3" d="M12.6,9.5c-1,0.1-2.3,0.3-3.8,0.3c-2.4,0.1-4-0.1-4-0.1L1.3,13c0,0,1.8,0.4,3.9,0.6
						c1.3,0.2,2.4,0.2,3.1,0.3c0.1,0,0.1-0.1,0.2-0.1s0.5-0.1,1-0.5C9.9,12.8,12.9,9.5,12.6,9.5z"/>
					<path id="Path_4_" class="st4" d="M12.6,9.5c-1,0.1-2.3,0.3-3.8,0.3c0,0,0.3,3.9-0.6,4c0.1,0,0.7-0.1,1.1-0.5
						C9.9,13,12.9,9.5,12.6,9.5L12.6,9.5z"/>
					<path id="Path_5_" class="st5" d="M8.4,13.9H8.2c0.2-0.1,0.3-0.1,0.5-0.2c0.4-0.3,0.5-0.8,0.5-0.9c0.2-0.9,0.4-2.3,0.5-3.7
						C9.9,6.6,9.8,5,9.8,5l3.5-3.3c0,0,0.3,1.8,0.4,3.9c0.1,1.3,0.1,2.6,0.1,3.2c0,0.1,0.1,0.5-0.4,1s-3,2.9-4,3.8
						C9,14,8.5,13.9,8.4,13.9z"/>
				</g>
			</g>
		</g>
	</g>
</g>
</svg>
