<svg viewBox="0 0 14 10" xmlns="http://www.w3.org/2000/svg"><path d="M5.8 3.3h1.3v1.3H5.8zM7.2 3.3h1.3v1.3H7.2zM4.3 3.3h1.3v1.3H4.3zM2.9 3.3h1.3v1.3H2.9zM1.4 3.3h1.3v1.3H1.4zM5.8 1.9h1.3v1.3H5.8zM5.8.4h1.3v1.3H5.8zM4.3 1.9h1.3v1.3H4.3zM2.9 1.9h1.3v1.3H2.9z"/><path d="M.8 7.7c-.1-.2-.2-.3-.3-.4l-.1-.2c0-.1-.1-.2-.1-.4v-.2C.1 6.1 0 5.7 0 5.2v-.4h9.5c.7 0 1.4-.2 1.7-.5-.2-.2-.4-.6-.4-1 0-.5.1-1 .3-1.3l.1-.1.1.1c.3.2.9.8.9 1.6.3-.1.5-.1.8-.1.4 0 .7.1.9.2h.1v.1c-.3.6-1 .9-1.8.9h-.3c-1.2 3-3.7 4.6-7.3 4.6-.6 0-1.2-.1-1.8-.3-.7-.2-1.3-.6-1.8-1.1zm4.4 1.4c-.9-.4-1.3-.9-1.6-1.5-.4.1-.7.1-1.2.2H1.2C2 8.6 3 9.1 4.8 9.1zm-1-2.4c-.2 0-.3.2-.3.3 0 .2.2.3.3.3.2 0 .3-.2.3-.3s-.1-.3-.3-.3z"/><path d="M4.2 6.8s.1 0 0 0c.1 0 .1.1 0 0 .1.2.1.2.2.2 0 0 .1 0 .1-.1V7c0 .1-.1.3-.3.3S4 7.2 4 7c0-.1.1-.2.2-.2"/></svg>