<?xml version="1.0" encoding="UTF-8"?>
<svg width="12px" height="14px" viewBox="0 0 12 14" version="1.1" xmlns="http://www.w3.org/2000/svg" xmlns:xlink="http://www.w3.org/1999/xlink">
    <!-- Generator: Sketch 59 (86127) - https://sketch.com -->
    <title>HDL/Icon/Standard/Service/aws-code-deploy</title>
    <desc>Created with Sketch.</desc>
    <g id="Colors" stroke="none" stroke-width="1" fill="none" fill-rule="evenodd">
        <g id="Service-icons" transform="translate(-118.000000, -266.000000)">
            <g id="AWS-Code-Deploy" transform="translate(100.000000, 248.000000)">
                <g id="HDL/Icon/Standard/Service/aws_code_deploy" transform="translate(18.000000, 18.000000)">
                    <g id="AWS_Code_deploy">
                        <polygon id="Path" fill="#4B612C" fill-rule="nonzero" points="1.9 11.8 0.3 11 0.3 2.9 1.9 2.1"></polygon>
                        <polygon id="Path" fill="#759C3E" fill-rule="nonzero" points="7.8 10.2 1.9 11.8 1.9 2.1 7.8 3.7"></polygon>
                        <polygon id="Path" fill="#4B612C" fill-rule="nonzero" points="2.9 5.6 6 5.2 6.1 5.3 6.1 8.6 6 8.7 2.9 8.3"></polygon>
                        <polygon id="Path" fill="#3C4929" fill-rule="nonzero" points="11.7 5 8.9 5.3 2.9 4.3 6 3.3"></polygon>
                        <polygon id="Path" fill="#B7CA9D" fill-rule="nonzero" points="11.7 9 8.9 8.7 2.9 9.7 6.2 10.5"></polygon>
                        <polygon id="Path" fill="#4B612C" fill-rule="nonzero" points="2.9 12.4 6 13.9 6.1 10.5 2.9 9.7"></polygon>
                        <polygon id="Path" fill="#759C3E" fill-rule="nonzero" points="11.7 11.1 6 13.9 6 10.5 11.7 9"></polygon>
                        <polygon id="Path" fill="#4B612C" fill-rule="nonzero" points="2.9 1.6 6 0.1 6 3.5 2.9 4.3"></polygon>
                        <g id="Group" transform="translate(6.000000, 0.000000)" fill="#759C3E" fill-rule="nonzero">
                            <polygon id="Path" points="5.7 8 -8.8817842e-16 8.7 -8.8817842e-16 5.2 5.7 6"></polygon>
                            <polygon id="Path" points="5.7 5 -8.8817842e-16 3.5 -8.8817842e-16 0.1 5.7 2.9"></polygon>
                        </g>
                    </g>
                </g>
            </g>
        </g>
    </g>
</svg>