<?xml version="1.0" encoding="utf-8"?>
<!-- Generator: Adobe Illustrator 20.1.0, SVG Export Plug-In . SVG Version: 6.00 Build 0)  -->
<svg version="1.1" id="Layer_1" xmlns="http://www.w3.org/2000/svg" xmlns:xlink="http://www.w3.org/1999/xlink" x="0px" y="0px"
	 viewBox="0 0 12 14" style="enable-background:new 0 0 12 14;" xml:space="preserve">
<style type="text/css">
	.st0{fill:#619D42;}
</style>
<title>HDL/Icon/Standard/Service/artifactory</title>
<desc>Created with Sketch.</desc>
<g id="Colors">
	<g id="Service-icons" transform="translate(-621.000000, -641.000000)">
		<g id="Artifactory_1_" transform="translate(600.000000, 623.000000)">
			<g id="HDL_x2F_Icon_x2F_Standard_x2F_Service_x2F_artifactory" transform="translate(21.000000, 18.000000)">
				<g id="Artifactory">
					<path id="Shape" class="st0" d="M0.6,5.4c0-2.8,2.4-5.3,5.3-5.3c2.8,0,5.3,2.2,5.3,5.4c0,2.9-2.4,5.3-5.4,5.3
						C2.8,10.7,0.5,8.2,0.6,5.4z M10.3,5.5C10.3,3.1,8.4,1,5.9,1S1.5,3,1.5,5.4c0,2.5,2,4.4,4.4,4.4C8.3,9.9,10.3,7.9,10.3,5.5z"/>
					<path id="Path" class="st0" d="M6,13c1.7,0,3.4,0,5,0c0.2,0,0.2,0,0.2,0.2s0,0.3,0,0.5c0,0.1-0.1,0.2-0.2,0.2h-0.1
						c-3.3,0-6.7,0-10,0c-0.3,0-0.3,0-0.3-0.2s0-0.3,0-0.5C0.7,13,0.7,13,0.9,13c1,0,2,0,3.1,0C4.6,13,5.3,13,6,13z"/>
				</g>
			</g>
		</g>
	</g>
</g>
</svg>
