<?xml version="1.0" encoding="utf-8"?>
<!-- Generator: Adobe Illustrator 20.1.0, SVG Export Plug-In . SVG Version: 6.00 Build 0)  -->
<svg version="1.1" id="Layer_1" xmlns="http://www.w3.org/2000/svg" xmlns:xlink="http://www.w3.org/1999/xlink" x="0px" y="0px"
	 viewBox="0 0 14 14" style="enable-background:new 0 0 14 14;" xml:space="preserve">
<style type="text/css">
	.st0{fill:#9D5025;}
	.st1{fill:#F58536;}
	.st2{fill:#6B3A19;}
	.st3{fill:#FBBF93;}
</style>
<title>HDL/Icon/Standard/Service/ecs</title>
<desc>Created with Sketch.</desc>
<g id="Colors">
	<g id="Service-icons" transform="translate(-122.000000, -783.000000)">
		<g id="ECS" transform="translate(101.000000, 765.000000)">
			<g id="HDL_x2F_Icon_x2F_Standard_x2F_Service_x2F_ecs" transform="translate(21.000000, 18.000000)">
				<g id="ECS-Copy">
					<polygon id="Path" class="st0" points="0.8,13 0,12.6 0,1.3 0.8,0.9 3.8,6.7 					"/>
					<polygon id="Path_1_" class="st0" points="3.1,11 4.2,12.6 9,10.3 7.9,10.1 					"/>
					<polygon id="Path_2_" class="st0" points="2.2,2.9 3.4,1.2 9,3.7 8,3.9 					"/>
					<polygon id="Path_3_" class="st1" points="2.6,1.3 0.9,0.9 0.9,13 2.6,12.5 					"/>
					<polygon id="Path_4_" class="st0" points="1.7,13.5 2.6,14 4.3,6.2 2.6,0 1.7,0.5 					"/>
					<polygon id="Path_5_" class="st0" points="7.9,4 9,3.8 10.1,6.9 9,10.4 7.9,10.2 					"/>
					<polygon id="Path_6_" class="st1" points="4.3,0.5 2.6,0 2.6,14 4.3,13.5 					"/>
					<polygon id="Path_7_" class="st1" points="10.2,3.9 2.6,2.4 2.6,0 10.2,2.3 					"/>
					<polygon id="Path_8_" class="st1" points="10.4,10.1 2.6,11.7 2.6,14 10.4,11.6 					"/>
					<polygon id="Path_9_" class="st1" points="9,12 10.2,11.6 10.2,2.4 9,2 					"/>
					<polygon id="Path_10_" class="st2" points="14,8.2 10.7,8 9.6,8.1 12.9,11.1 					"/>
					<polygon id="Path_11_" class="st0" points="9.4,8.2 12.8,8.4 12.8,11.1 9.4,10.5 					"/>
					<polygon id="Path_12_" class="st2" points="6.3,8.3 9.7,12 11.4,8.4 7.9,8.2 					"/>
					<polygon id="Path_13_" class="st0" points="6.3,8.4 9.7,8.7 9.7,12.1 6.3,11.2 					"/>
					<polygon id="Path_14_" class="st0" points="9.6,5.8 14,5.7 12.9,2.9 9.6,3.5 					"/>
					<polygon id="Path_15_" class="st0" points="6.3,5.6 11.4,5.5 9.7,1.9 6.3,2.8 					"/>
					<polygon id="Path_16_" class="st3" points="6.3,5.7 9.7,5.3 11.4,5.5 7.9,5.8 					"/>
					<polygon id="Path_17_" class="st3" points="14,5.8 10.7,6 9.6,5.9 12.9,5.6 					"/>
					<polygon id="Path_18_" class="st1" points="12.8,8.3 14,8.2 14,10.7 12.8,11.1 12.8,8.3 					"/>
					<polygon id="Path_19_" class="st1" points="11.4,8.5 9.7,8.7 9.7,12.1 11.4,11.6 11.4,8.5 					"/>
					<polygon id="Path_20_" class="st1" points="12.8,5.7 14,5.8 14,3.3 12.8,2.9 					"/>
					<polygon id="Path_21_" class="st1" points="11.4,5.5 9.7,5.3 9.7,1.9 11.4,2.4 					"/>
				</g>
			</g>
		</g>
	</g>
</g>
</svg>
