<?xml version="1.0" encoding="UTF-8"?>
<svg width="12px" height="14px" viewBox="0 0 12 14" version="1.1" xmlns="http://www.w3.org/2000/svg" xmlns:xlink="http://www.w3.org/1999/xlink">
    <!-- Generator: Sketch 59 (86127) - https://sketch.com -->
    <title>HDL/Icon/Standard/Service/artifactory</title>
    <desc>Created with Sketch.</desc>
    <g id="Colors" stroke="none" stroke-width="1" fill="none" fill-rule="evenodd">
        <g id="Service-icons" transform="translate(-621.000000, -641.000000)" fill="#619D42">
            <g id="Artifactory" transform="translate(600.000000, 623.000000)">
                <g id="HDL/Icon/Standard/Service/artifactory" transform="translate(21.000000, 18.000000)">
                    <g id="Artifactory">
                        <path d="M0.6,5.4 C0.6,2.6 3,0.1 5.9,0.1 C8.7,0.1 11.2,2.3 11.2,5.5 C11.2,8.4 8.8,10.8 5.8,10.8 C2.8,10.7 0.5,8.2 0.6,5.4 Z M10.3,5.5 C10.3,3.1 8.4,1 5.9,1 C3.4,1 1.5,3 1.5,5.4 C1.5,7.9 3.5,9.8 5.9,9.8 C8.3,9.9 10.3,7.9 10.3,5.5 Z" id="Shape" fill-rule="nonzero"></path>
                        <path d="M6,13 C7.7,13 9.4,13 11,13 C11.2,13 11.2,13 11.2,13.2 C11.2,13.4 11.2,13.5 11.2,13.7 C11.2,13.8 11.1,13.9 11,13.9 C11,13.9 10.9,13.9 10.9,13.9 C7.6,13.9 4.2,13.9 0.9,13.9 C0.6,13.9 0.6,13.9 0.6,13.7 C0.6,13.5 0.6,13.4 0.6,13.2 C0.7,13 0.7,13 0.9,13 C1.9,13 2.9,13 4,13 C4.6,13 5.3,13 6,13 Z" id="Path" fill-rule="nonzero"></path>
                    </g>
                </g>
            </g>
        </g>
    </g>
</svg>