<?xml version="1.0" encoding="utf-8"?>
<!-- Generator: Adobe Illustrator 20.1.0, SVG Export Plug-In . SVG Version: 6.00 Build 0)  -->
<svg version="1.1" id="Layer_1" xmlns="http://www.w3.org/2000/svg" xmlns:xlink="http://www.w3.org/1999/xlink" x="0px" y="0px"
	 viewBox="0 0 14 10" style="enable-background:new 0 0 14 10;" xml:space="preserve">
<style type="text/css">
	.st0{fill:#3676A1;}
</style>
<title>HDL/Icon/Standard/Service/bugsnag</title>
<desc>Created with Sketch.</desc>
<g id="Colors">
	<g id="Service-icons" transform="translate(-120.000000, -504.000000)">
		<g id="Bugsnag_1_" transform="translate(100.000000, 493.000000)">
			<g id="HDL_x2F_Icon_x2F_Standard_x2F_Service_x2F_bugsnag" transform="translate(20.000000, 11.000000)">
				<g id="Bugsnag">
					<path id="Shape" class="st0" d="M3.3,9.1v0.3h3c0-0.1,0-0.2,0-0.3c0-2.1-0.8-4-2.3-5.5C3.2,2.9,2.4,2.3,1.5,1.9L0.2,4.7
						C2,5.6,3.1,7,3.3,9.1z M6.9,9.1v0.4H10c0-0.1,0-0.2,0-0.4c0-1.5-0.3-3-0.9-4.4C8.6,3.3,7.8,2.1,6.7,1.1
						C6.4,0.8,6.2,0.5,5.9,0.3l-2,2.3C5.9,4.4,6.8,6.1,6.9,9.1z M12.7,3.6c-0.5-1.2-1.1-2.4-1.9-3.4L8.3,2c1.5,1.9,2.4,4.2,2.4,6.8
						v0.7h3.1c0-0.2,0-0.5,0-0.7C13.7,6.9,13.3,5.3,12.7,3.6z"/>
				</g>
			</g>
		</g>
	</g>
</g>
</svg>
