<?xml version="1.0" encoding="UTF-8"?>
<svg width="12px" height="14px" viewBox="0 0 12 14" version="1.1" xmlns="http://www.w3.org/2000/svg" xmlns:xlink="http://www.w3.org/1999/xlink">
    <!-- Generator: Sketch 59 (86127) - https://sketch.com -->
    <title>HDL/Icon/Standard/Service/logz</title>
    <desc>Created with Sketch.</desc>
    <g id="Colors" stroke="none" stroke-width="1" fill="none" fill-rule="evenodd">
        <g id="Service-icons" transform="translate(-120.000000, -1158.000000)">
            <g id="Logz" transform="translate(101.000000, 1141.000000)">
                <g id="HDL/Icon/Standard/Service/logz" transform="translate(19.000000, 17.000000)">
                    <g id="Logz">
                        <path d="M6.2,0.3 C6.6,0.5 7,0.7 7.4,1 C8.2,1.4 9,1.9 9.7,2.4 C10.3,2.7 10.9,3.1 11.5,3.4 C11.7,3.5 11.9,3.8 11.9,4 L11.9,10 C11.9,10.3 11.8,10.5 11.5,10.6 C10.8,11 10,11.5 9.3,11.9 C8.6,12.3 7.8,12.8 7.1,13.2 C6.9,13.3 6.6,13.5 6.4,13.6 C6.1,13.7 5.9,13.7 5.6,13.6 C4.9,13.2 4.2,12.8 3.5,12.4 C2.7,11.9 1.9,11.5 1.1,11 C0.8,10.8 0.6,10.7 0.3,10.5 C0.1,10.4 1.77635684e-15,10.2 1.77635684e-15,10 C1.77635684e-15,8.9 1.77635684e-15,7.9 1.77635684e-15,6.8 C1.77635684e-15,6.7 1.77635684e-15,6.7 0.1,6.8 C1.3,7.5 2.5,8.2 3.8,8.9 C4.4,9.2 5,9.6 5.6,9.9 L5.7,9.9 C5.7,9 5.7,8.2 5.7,7.3 C5.7,7.2 5.7,7.2 5.6,7.2 C5.1,6.8 4.5,6.5 4,6.2 C3.4,5.8 2.7,5.4 2.1,5.1 C1.4,4.7 0.8,4.3 0.1,3.9 C0.2,3.7 0.3,3.5 0.5,3.4 C1.2,3 1.8,2.6 2.5,2.2 C3,1.9 3.5,1.6 4,1.3 C4.6,1 5.1,0.7 5.7,0.3 C5.8,0.3 5.8,0.3 5.9,0.2 C6,0.3 6.1,0.3 6.2,0.3 L6.2,0.3 Z" id="Path" fill="#71B9D9" fill-rule="nonzero"></path>
                        <g id="Group" fill="#FEFEFE" fill-rule="nonzero">
                            <path d="M0.6,7.6 C0.9,7.8 1.2,8 1.5,8.1 C2.2,8.5 2.9,8.9 3.6,9.3 C4.3,9.7 5,10.1 5.7,10.5 C5.9,10.6 6.1,10.6 6.3,10.5 C7.2,10 8,9.5 8.8,9.1 C9,9 9.1,9 9.1,8.8 C9.2,8.7 9.2,8.6 9.2,8.5 C9.2,7.5 9.2,6.4 9.2,5.4 C9.2,5.2 9.1,5.1 9,5 C8.2,4.6 7.5,4.1 6.7,3.7 C6.5,3.6 6.4,3.5 6.3,3.4 C6.1,3.3 6,3.3 5.8,3.4 C4.9,3.9 4,4.5 3.1,5 L3,5 C2.3,4.6 1.6,4.2 0.9,3.8 C1,3.7 1.2,3.6 1.3,3.5 C2.3,2.9 3.3,2.3 4.3,1.7 C4.8,1.4 5.4,1.1 5.9,0.8 L6.1,0.8 C7.2,1.4 8.2,2 9.3,2.7 C9.9,3.1 10.6,3.4 11.2,3.8 C11.3,3.9 11.3,3.9 11.3,4 L11.3,7 L11.3,9.9 C11.3,10 11.3,10.1 11.2,10.1 C10,10.8 8.9,11.4 7.7,12.1 C7.2,12.4 6.6,12.7 6.1,13 C6,13 5.9,13 5.9,13 C5.4,12.7 4.8,12.4 4.3,12.1 C3.5,11.6 2.7,11.2 2,10.7 C1.6,10.5 1.2,10.3 0.8,10 C0.7,10 0.7,9.9 0.7,9.8 C0.6,9.2 0.6,8.5 0.6,7.6 C0.6,7.7 0.6,7.7 0.6,7.6 L0.6,7.6 Z" id="Path"></path>
                            <path d="M3.6,5.3 C3.9,5.1 4.1,5 4.4,4.8 C4.9,4.5 5.4,4.2 5.9,3.9 L6,3.9 C6.8,4.3 7.6,4.8 8.3,5.2 C8.2,5.4 8.1,5.5 7.9,5.6 C7.3,6 6.6,6.3 6,6.7 L5.9,6.7 C5.2,6.3 4.5,5.8 3.8,5.4 C3.7,5.4 3.7,5.4 3.6,5.3 L3.6,5.3 Z" id="Path"></path>
                            <path d="M8.7,5.8 L8.7,8.5 C8.7,8.6 8.7,8.6 8.6,8.6 C7.9,9 7.1,9.4 6.3,9.9 C6.2,9.9 6.2,9.9 6.2,9.9 C6.2,9 6.2,8.1 6.2,7.3 C6.2,7.3 6.2,7.2 6.3,7.2 C7.1,6.7 7.9,6.3 8.7,5.8 C8.6,5.8 8.7,5.8 8.7,5.8 Z" id="Path"></path>
                        </g>
                    </g>
                </g>
            </g>
        </g>
    </g>
</svg>