<svg viewBox="0 0 30 31" xmlns="http://www.w3.org/2000/svg"><path opacity=".01" fill="#000" d="M.778.83h28.444v29.281H.778z"/><path fill-rule="evenodd" clip-rule="evenodd" d="m27.987 19.025-2.04-1.795a11.853 11.853 0 0 0 0-3.705l2.04-1.794c.314-.276.43-.725.29-1.129l-.029-.083a14.329 14.329 0 0 0-2.48-4.42l-.057-.067a.982.982 0 0 0-1.093-.304l-2.53.926a10.898 10.898 0 0 0-3.105-1.846l-.489-2.724a1.013 1.013 0 0 0-.803-.824l-.084-.016a13.67 13.67 0 0 0-4.95 0l-.084.016a1.013 1.013 0 0 0-.803.824l-.492 2.737a10.88 10.88 0 0 0-3.082 1.84l-2.55-.933a.978.978 0 0 0-1.093.304l-.056.068a14.397 14.397 0 0 0-2.481 4.42l-.028.082c-.14.401-.025.85.29 1.129l2.063 1.814a11.6 11.6 0 0 0-.143 1.83c0 .615.047 1.23.143 1.83l-2.064 1.814c-.314.275-.43.724-.29 1.128l.029.083a14.363 14.363 0 0 0 2.481 4.42l.056.067a.982.982 0 0 0 1.093.304l2.55-.932a10.81 10.81 0 0 0 3.082 1.84l.492 2.736c.074.42.395.747.803.824l.084.016a13.607 13.607 0 0 0 4.95 0l.084-.016c.408-.077.729-.404.803-.824l.49-2.724a10.828 10.828 0 0 0 3.103-1.846l2.531.926a.978.978 0 0 0 1.093-.304l.056-.067a14.402 14.402 0 0 0 2.481-4.42l.028-.083c.14-.394.025-.843-.29-1.122Zm-4.25-5.123a9.333 9.333 0 0 1 0 2.954l-.205 1.286 2.326 2.048a11.947 11.947 0 0 1-1.326 2.358l-2.89-1.054-.977.827a8.645 8.645 0 0 1-2.469 1.468l-1.186.458-.557 3.109c-.875.102-1.769.102-2.647 0l-.557-3.116-1.177-.464a8.656 8.656 0 0 1-2.45-1.465l-.977-.83-2.908 1.064a12.197 12.197 0 0 1-1.326-2.359l2.35-2.067-.202-1.282a9.486 9.486 0 0 1-.115-1.458c0-.49.037-.98.115-1.458l.202-1.282-2.35-2.067c.351-.837.797-1.625 1.326-2.359l2.908 1.064.977-.83a8.651 8.651 0 0 1 2.45-1.465l1.18-.458.557-3.115a11.42 11.42 0 0 1 2.647 0l.557 3.109 1.186.458c.894.346 1.725.84 2.469 1.468l.978.827 2.889-1.055a12.2 12.2 0 0 1 1.326 2.36l-2.326 2.047.203 1.279Z" fill="#6B6D85"/><path fill-rule="evenodd" clip-rule="evenodd" d="M15.136 9.419c-3.026 0-5.48 2.525-5.48 5.64 0 3.116 2.454 5.641 5.48 5.641 3.026 0 5.479-2.525 5.479-5.64 0-3.116-2.453-5.641-5.48-5.641Zm2.465 8.179a3.424 3.424 0 0 1-2.465 1.051c-.931 0-1.806-.375-2.466-1.051a3.63 3.63 0 0 1-1.021-2.538 3.63 3.63 0 0 1 1.02-2.539 3.412 3.412 0 0 1 2.467-1.05c.93 0 1.806.371 2.465 1.05a3.631 3.631 0 0 1 1.021 2.539 3.63 3.63 0 0 1-1.02 2.538Z" fill="currentColor"/></svg>