<?xml version="1.0" encoding="utf-8"?>
<!-- Generator: Adobe Illustrator 20.1.0, SVG Export Plug-In . SVG Version: 6.00 Build 0)  -->
<svg version="1.1" id="Layer_1" xmlns="http://www.w3.org/2000/svg" xmlns:xlink="http://www.w3.org/1999/xlink" x="0px" y="0px"
	 viewBox="0 0 25 25" style="enable-background:new 0 0 25 25;" xml:space="preserve">
<style type="text/css">
	.st0{fill:#25A6F7;}
</style>
<title>HDL/Icon/Standard/Setup/tags</title>
<desc>Created with Sketch.</desc>
<g id="Colors">
	<g id="Setup-Icons" transform="translate(-118.000000, -244.000000)">
		<g id="HDL_x2F_Icon_x2F_Standard_x2F_Setup_x2F_tags" transform="translate(118.000000, 244.000000)">
			<path id="Shape" class="st0" d="M12.6,0c-0.2,0-0.3,0-0.5,0c-0.3,0-0.7,0.2-1,0.4L0.4,11.1c-0.6,0.6-0.6,1.5,0,2l3.1,3.1
				c0,0,0.1,0,0.1,0.1c0,0,0,0,0,0c0,0,0,0,0,0c0,0,0,0,0,0.1l8.2,8.2c0.6,0.6,1.5,0.6,2,0l10.7-10.7c0.3-0.3,0.4-0.7,0.4-1
				s0-0.7,0-1v-0.1c0-0.1,0-0.1,0-0.2c0-0.1,0-0.2,0-0.3c0-0.2,0-0.3,0-0.5c0-0.6,0-1.5,0-2.4C25,6.8,25,5,25,5
				c0-0.9-0.8-1.7-1.7-1.7h-1.5V1.7C21.7,0.8,21,0,20,0h-7C12.9,0,12.7,0,12.6,0z M12.6,1.1c0.1,0,0.3,0,0.5,0h7
				c0.4,0,0.6,0.3,0.6,0.6v1.5h-2c0,0,0,0-0.1-0.1c-0.3-0.3-0.7-0.5-1.2-0.5s-0.8,0.2-1.2,0.5c0,0,0,0-0.1,0.1c-0.3,0-0.5,0-0.8,0
				c-0.3,0-0.7,0.2-1,0.4L3.7,14.4c-0.1,0.1-0.2,0.2-0.2,0.3l-2.3-2.3C1,12.3,1,12,1.2,11.9L11.8,1.2c0.1-0.1,0.2-0.1,0.4-0.1
				C12.3,1.1,12.4,1.1,12.6,1.1z M15.8,4.4h7.4c0.4,0,0.6,0.3,0.6,0.6c0,0,0,1.8,0,3.5c0,0.9,0,1.7,0,2.4c0,0.3,0,0.6,0,0.8
				c0,0.1,0,0.2,0,0.2c0,0,0,0,0,0.1s0,0,0,0c0,0.3,0,0.6,0,0.8c0,0.2-0.1,0.3-0.1,0.4L13.1,23.8c-0.1,0.1-0.4,0.1-0.5,0l-8.2-8.2
				c-0.1-0.1-0.1-0.4,0-0.5L15.1,4.5c0.1-0.1,0.2-0.1,0.4-0.1C15.6,4.4,15.7,4.4,15.8,4.4z M20.7,6c-0.4,0-0.8,0.2-1.2,0.5
				c-0.6,0.6-0.6,1.7,0,2.3c0.6,0.6,1.7,0.6,2.3,0c0.6-0.6,0.6-1.7,0-2.3C21.5,6.1,21.1,6,20.7,6z M20.7,7.1c0.1,0,0.3,0,0.4,0.2
				c0.2,0.2,0.2,0.6,0,0.8s-0.6,0.2-0.8,0c-0.2-0.2-0.2-0.6,0-0.8C20.4,7.1,20.5,7.1,20.7,7.1z"/>
		</g>
	</g>
</g>
</svg>
