<svg viewBox="0 0 25 25" xmlns="http://www.w3.org/2000/svg"><path d="M12.6 0h-.5c-.3 0-.7.2-1 .4L.4 11.1c-.6.6-.6 1.5 0 2l3.1 3.1s.1 0 .1.1v.1l8.2 8.2c.6.6 1.5.6 2 0l10.7-10.7c.3-.3.4-.7.4-1v-1.1-.2-.3-.5-2.4C25 6.8 25 5 25 5c0-.9-.8-1.7-1.7-1.7h-1.5V1.7C21.7.8 21 0 20 0h-7.4zm0 1.1h7.5c.4 0 .6.3.6.6v1.5h-2l-.1-.1c-.3-.3-.7-.5-1.2-.5s-.8.2-1.2.5l-.1.1h-.8c-.3 0-.7.2-1 .4L3.7 14.4c-.1.1-.2.2-.2.3l-2.3-2.3c-.2-.1-.2-.4 0-.5L11.8 1.2c.1-.1.2-.1.4-.1zm3.2 3.3h7.4c.4 0 .6.3.6.6v7.8c0 .2-.1.3-.1.4L13.1 23.8c-.1.1-.4.1-.5 0l-8.2-8.2c-.1-.1-.1-.4 0-.5L15.1 4.5c.1-.1.2-.1.4-.1zM20.7 6c-.4 0-.8.2-1.2.5-.6.6-.6 1.7 0 2.3s1.7.6 2.3 0 .6-1.7 0-2.3c-.3-.4-.7-.5-1.1-.5zm0 1.1c.1 0 .3 0 .4.2.2.2.2.6 0 .8s-.6.2-.8 0-.2-.6 0-.8c.1-.2.2-.2.4-.2z" fill="#25a6f7"/></svg>