<?xml version="1.0" encoding="UTF-8"?>
<svg width="29px" height="23px" viewBox="0 0 29 23" version="1.1" xmlns="http://www.w3.org/2000/svg" xmlns:xlink="http://www.w3.org/1999/xlink">
    <!-- Generator: Sketch 59 (86127) - https://sketch.com -->
    <title>HDL/Icon/Standard/Setup/api</title>
    <desc>Created with Sketch.</desc>
    <g id="Colors" stroke="none" stroke-width="1" fill="none" fill-rule="evenodd">
        <g id="Setup-Icons" transform="translate(-116.000000, -196.000000)">
            <g id="HDL/Icon/Standard/Setup/api" transform="translate(116.000000, 196.000000)">
                <g id="API">
                    <path d="M24.2,3.4 L14.5,3.4 C14.5,3.4 14.5,3.5 14.5,3.5 L14.5,6.2 C14.5,8 13.5,9.5 12.1,10.4 C11.7,12.7 9.5,14.5 7.2,14.5 L4.6,14.5 L4.6,18.9 C4.6,21.1 6.4,22.9 8.6,22.9 L24.2,22.9 C26.4,22.9 28.2,21.1 28.2,18.9 L28.2,7.4 C28.2,5.2 26.4,3.4 24.2,3.4 Z" id="Path" fill="#25A6F7" fill-rule="nonzero"></path>
                    <path d="M23.8,21.6 L9.1,21.6 C7.5,21.6 6.1,20.2 6.1,18.6 L6.1,7.7 C6.1,6.1 7.4,4.7 9.1,4.7 L23.8,4.7 C25.4,4.7 26.8,6.1 26.8,7.7 L26.8,18.6 C26.8,20.2 25.4,21.6 23.8,21.6 Z" id="Path" fill="#FFFFFF" fill-rule="nonzero"></path>
                    <path d="M9.5,0 L9.4,0.8 C9.1,0.9 8.8,1.1 8.5,1.3 L7.7,1 L7,2.4 L7.7,2.9 C7.7,3.1 7.6,3.2 7.6,3.4 C7.6,3.6 7.6,3.7 7.7,3.9 L7,4.4 L7.8,5.8 L8.6,5.5 C8.9,5.7 9.2,5.9 9.5,6 L9.6,6.8 L11.2,6.8 L11.3,6 C11.6,5.9 11.9,5.7 12.2,5.5 L13,5.8 L13.8,4.4 L13.1,3.9 C13.1,3.7 13.2,3.6 13.2,3.4 C13.2,3.2 13.2,3.1 13.1,2.9 L13.8,2.4 L12.8,1 L12,1.3 C11.7,1.1 11.4,0.9 11.1,0.8 L11.1,0 L9.5,0 Z M10.3,2.2 C11,2.2 11.5,2.7 11.5,3.4 C11.5,4.1 11,4.6 10.3,4.6 C9.6,4.6 9.1,4 9.1,3.4 C9.1,2.7 9.6,2.2 10.3,2.2 Z M3.4,4.7 L3.3,5.9 C2.7,6 2.2,6.3 1.8,6.7 L0.8,6.2 L0,7.6 L0.9,8.3 C0.9,8.6 0.8,8.8 0.8,9.1 C0.8,9.4 0.8,9.7 0.9,9.9 L0,10.6 L0.8,12 L1.9,11.5 C2.3,11.9 2.8,12.2 3.3,12.3 L3.4,13.5 L5,13.5 L5.1,12.3 C5.6,12.1 6.1,11.9 6.5,11.5 L7.6,12 L8.4,10.6 L7.5,9.9 C7.6,9.6 7.6,9.4 7.6,9.1 C7.6,8.8 7.6,8.5 7.5,8.3 L8.4,7.6 L7.6,6.2 L6.5,6.7 C6.1,6.3 5.7,6 5.1,5.9 L5,4.7 L3.4,4.7 Z M4.2,7.8 C4.9,7.8 5.5,8.4 5.5,9.2 C5.5,9.9 4.9,10.5 4.2,10.5 C3.5,10.5 2.8,9.9 2.8,9.1 C2.8,8.4 3.4,7.8 4.2,7.8 Z" id="Shape" fill="#25A6F7" fill-rule="nonzero"></path>
                    <path d="M13.8,16.3 C13.9,16.4 14.1,16.4 14.2,16.3 C14.3,16.2 14.4,16.1 14.4,16 L14.4,15.9 C14.4,15.9 14.4,15.8 14.4,15.8 L12.7,10.3 C12.6,10.1 12.5,10 12.3,10 C12.1,10 12,10.1 12,10.3 L10.3,15.8 C10.3,15.8 10.3,15.9 10.3,15.9 L10.3,16 C10.3,16.1 10.4,16.3 10.5,16.3 C10.6,16.4 10.8,16.4 10.9,16.3 C11,16.2 11.1,16.1 11.1,16 L11.1,15.9 L11.4,14.8 L13.4,14.8 L13.7,15.9 L13.7,16 C13.6,16.1 13.7,16.2 13.8,16.3 Z M11.5,14.1 L12.3,11.6 L13.1,14.1 L11.5,14.1 Z" id="Shape" fill="#25A6F7" fill-rule="nonzero"></path>
                    <path d="M20.1,15.6 C19.9,15.6 19.7,15.8 19.8,16 C19.8,16.2 20,16.4 20.2,16.3 L21.3,16.3 C21.4,16.3 21.6,16.2 21.6,16.1 C21.7,16 21.7,15.8 21.6,15.7 C21.5,15.6 21.4,15.5 21.3,15.5 L21.1,15.5 L21.1,10.6 L21.3,10.6 C21.4,10.6 21.6,10.5 21.6,10.4 C21.7,10.3 21.7,10.1 21.6,10 C21.5,9.9 21.4,9.8 21.3,9.8 L20.8,9.8 C20.8,9.8 20.7,9.8 20.7,9.8 C20.7,9.8 20.7,9.8 20.7,9.8 L20.2,9.8 C20,9.8 19.8,10 19.8,10.2 C19.8,10.4 20,10.6 20.2,10.6 L20.4,10.6 L20.4,15.5 L20.1,15.5 L20.1,15.6 Z" id="Path" fill="#25A6F7" fill-rule="nonzero"></path>
                    <path d="M16,16.3 C16.1,16.2 16.2,16.1 16.2,16 L16.2,14.1 L17.3,14.1 C18.1,14.1 18.8,13.4 18.8,12.6 L18.8,11.5 C18.8,10.7 18.1,10 17.3,10 L15.7,10 C15.5,10 15.4,10.2 15.4,10.4 L15.4,13.7 C15.4,13.7 15.4,13.8 15.4,13.9 L15.4,16 C15.4,16.1 15.5,16.3 15.6,16.3 C15.8,16.4 15.9,16.4 16,16.3 Z M16.2,10.7 L17.3,10.7 C17.7,10.7 18.1,11 18.1,11.5 L18.1,12.6 C18.1,13 17.8,13.4 17.3,13.4 L16.2,13.4 L16.2,10.7 Z" id="Shape" fill="#25A6F7" fill-rule="nonzero"></path>
                </g>
            </g>
        </g>
    </g>
</svg>