<svg viewBox="0 0 29 23" xmlns="http://www.w3.org/2000/svg"><path d="M24.2 3.4h-9.7V6.2c0 1.8-1 3.3-2.4 4.2-.4 2.3-2.6 4.1-4.9 4.1H4.6v4.4c0 2.2 1.8 4 4 4h15.6c2.2 0 4-1.8 4-4V7.4c0-2.2-1.8-4-4-4z" fill="#25a6f7"/><path d="M23.8 21.6H9.1c-1.6 0-3-1.4-3-3V7.7c0-1.6 1.3-3 3-3h14.7c1.6 0 3 1.4 3 3v10.9c0 1.6-1.4 3-3 3z" fill="#fff"/><g fill="#25a6f7"><path d="M9.5 0l-.1.8c-.3.1-.6.3-.9.5L7.7 1 7 2.4l.7.5c0 .2-.1.3-.1.5s0 .3.1.5l-.7.5.8 1.4.8-.3c.3.2.6.4.9.5l.1.8h1.6l.1-.8c.3-.1.6-.3.9-.5l.8.3.8-1.4-.7-.5c0-.2.1-.3.1-.5s0-.3-.1-.5l.7-.5-1-1.4-.8.3c-.3-.2-.6-.4-.9-.5V0zm.8 2.2c.7 0 1.2.5 1.2 1.2s-.5 1.2-1.2 1.2S9.1 4 9.1 3.4c0-.7.5-1.2 1.2-1.2zM3.4 4.7l-.1 1.2c-.6.1-1.1.4-1.5.8l-1-.5L0 7.6l.9.7c0 .3-.1.5-.1.8s0 .6.1.8l-.9.7.8 1.4 1.1-.5c.4.4.9.7 1.4.8l.1 1.2H5l.1-1.2c.5-.2 1-.4 1.4-.8l1.1.5.8-1.4-.9-.7c.1-.3.1-.5.1-.8s0-.6-.1-.8l.9-.7-.8-1.4-1.1.5c-.4-.4-.8-.7-1.4-.8L5 4.7zm.8 3.1c.7 0 1.3.6 1.3 1.4 0 .7-.6 1.3-1.3 1.3s-1.4-.6-1.4-1.4c0-.7.6-1.3 1.4-1.3zM13.8 16.3c.1.1.3.1.4 0s.2-.2.2-.3v-.2l-1.7-5.5c-.1-.2-.2-.3-.4-.3s-.3.1-.3.3l-1.7 5.5v.2c0 .1.1.3.2.3.1.1.3.1.4 0s.2-.2.2-.3v-.1l.3-1.1h2l.3 1.1v.1c-.1.1 0 .2.1.3zm-2.3-2.2l.8-2.5.8 2.5zM20.1 15.6c-.2 0-.4.2-.3.4 0 .2.2.4.4.3h1.1c.1 0 .3-.1.3-.2.1-.1.1-.3 0-.4s-.2-.2-.3-.2h-.2v-4.9h.2c.1 0 .3-.1.3-.2.1-.1.1-.3 0-.4s-.2-.2-.3-.2h-1.1c-.2 0-.4.2-.4.4s.2.4.4.4h.2v4.9h-.3zM16 16.3c.1-.1.2-.2.2-.3v-1.9h1.1c.8 0 1.5-.7 1.5-1.5v-1.1c0-.8-.7-1.5-1.5-1.5h-1.6c-.2 0-.3.2-.3.4V16c0 .1.1.3.2.3.2.1.3.1.4 0zm.2-5.6h1.1c.4 0 .8.3.8.8v1.1c0 .4-.3.8-.8.8h-1.1z"/></g></svg>