<svg enable-background="new 0 0 25 25" viewBox="0 0 25 25" xmlns="http://www.w3.org/2000/svg"><path d="m12.6 0c-.2 0-.3 0-.5 0-.3 0-.7.2-1 .4l-10.7 10.7c-.6.6-.6 1.5 0 2l3.1 3.1s.1 0 .1.1v.1l8.2 8.2c.6.6 1.5.6 2 0l10.7-10.7c.3-.3.4-.7.4-1s0-.7 0-1v-.1c0-.1 0-.1 0-.2s0-.2 0-.3c0-.2 0-.3 0-.5 0-.6 0-1.5 0-2.4.1-1.6.1-3.4.1-3.4 0-.9-.8-1.7-1.7-1.7h-1.5v-1.6c-.1-.9-.8-1.7-1.8-1.7h-7c-.1 0-.3 0-.4 0zm0 1.1h.5 7c.4 0 .6.3.6.6v1.5h-2s0 0-.1-.1c-.3-.3-.7-.5-1.2-.5s-.8.2-1.2.5c0 0 0 0-.1.1-.3 0-.5 0-.8 0s-.7.2-1 .4l-10.6 10.8c-.1.1-.2.2-.2.3l-2.3-2.3c-.2-.1-.2-.4 0-.5l10.6-10.7c.1-.1.2-.1.4-.1zm3.2 3.3h7.4c.4 0 .6.3.6.6v3.5 2.4.8.2.1s0 0 0 0v.8c0 .2-.1.3-.1.4l-10.6 10.6c-.1.1-.4.1-.5 0l-8.2-8.2c-.1-.1-.1-.4 0-.5l10.7-10.6c.1-.1.2-.1.4-.1zm4.9 1.6c-.4 0-.8.2-1.2.5-.6.6-.6 1.7 0 2.3s1.7.6 2.3 0 .6-1.7 0-2.3c-.3-.4-.7-.5-1.1-.5zm0 1.1c.1 0 .3 0 .4.2.2.2.2.6 0 .8s-.6.2-.8 0-.2-.6 0-.8c.1-.2.2-.2.4-.2z" fill="#25a6f7"/></svg>