<svg viewBox="0 0 16 13" xmlns="http://www.w3.org/2000/svg"><path d="M3.25 8.543H.746A.75.75 0 000 9.289v2.521a.75.75 0 00.746.746h2.521a.75.75 0 00.746-.746V9.29a.778.778 0 00-.763-.746zM15.236 8.543h-2.504a.75.75 0 00-.745.746v2.521a.75.75 0 00.745.746h2.522A.75.75 0 0016 11.81V9.29a.778.778 0 00-.764-.746zM9.252 8.543H6.73a.75.75 0 00-.746.746v2.521a.75.75 0 00.746.746h2.522a.75.75 0 00.746-.746V9.29c-.018-.409-.338-.746-.746-.746zm0 3.25H6.73V9.27h2.522v2.522zM14.65 6.713l.888-4.333-1.598.532A7.066 7.066 0 0011.65.923 7.612 7.612 0 007.99 0C4.013 0 .781 3.019.781 6.713c0 .301.249.55.55.55.303 0 .551-.249.551-.55 0-3.09 2.735-5.612 6.11-5.612 1.9 0 3.675.817 4.83 2.166l-1.492.515 3.32 2.93z"/></svg>