<svg width="32" height="32" viewBox="0 0 32 32" fill="none" xmlns="http://www.w3.org/2000/svg">
<g clip-path="url(#clip0_282_30178)">
<path d="M3.00024 9C3.27639 9 3.50024 8.77614 3.50024 8.5C3.50024 8.22386 3.27639 8 3.00024 8C2.7241 8 2.50024 8.22386 2.50024 8.5C2.50024 8.77614 2.7241 9 3.00024 9Z" fill="#4F5162"/>
<path d="M5.00024 9C5.27639 9 5.50024 8.77614 5.50024 8.5C5.50024 8.22386 5.27639 8 5.00024 8C4.7241 8 4.50024 8.22386 4.50024 8.5C4.50024 8.77614 4.7241 9 5.00024 9Z" fill="#4F5162"/>
<path d="M7.00024 9C7.27639 9 7.50024 8.77614 7.50024 8.5C7.50024 8.22386 7.27639 8 7.00024 8C6.7241 8 6.50024 8.22386 6.50024 8.5C6.50024 8.77614 6.7241 9 7.00024 9Z" fill="#4F5162"/>
<path d="M12.5 9H22C22.1326 9 22.2598 8.94732 22.3536 8.85355C22.4473 8.75979 22.5 8.63261 22.5 8.5C22.5 8.36739 22.4473 8.24021 22.3536 8.14645C22.2598 8.05268 22.1326 8 22 8H12.5C12.3674 8 12.2402 8.05268 12.1464 8.14645C12.0527 8.24021 12 8.36739 12 8.5C12 8.63261 12.0527 8.75979 12.1464 8.85355C12.2402 8.94732 12.3674 9 12.5 9Z" fill="#4F5162"/>
<path d="M1.5 11.75H23.5C23.8977 11.7496 24.279 11.5914 24.5602 11.3102C24.8414 11.029 24.9996 10.6477 25 10.25V6.75C24.9996 6.35231 24.8414 5.97103 24.5602 5.68982C24.279 5.40861 23.8977 5.25043 23.5 5.25H1.5C1.10231 5.25043 0.721029 5.40861 0.439819 5.68982C0.158608 5.97103 0.000433437 6.35231 0 6.75L0 10.25C0.000433437 10.6477 0.158608 11.029 0.439819 11.3102C0.721029 11.5914 1.10231 11.7496 1.5 11.75ZM1 6.75C1.00015 6.61744 1.05288 6.49035 1.14662 6.39662C1.24035 6.30288 1.36744 6.25015 1.5 6.25H23.5C23.6326 6.25015 23.7596 6.30288 23.8534 6.39662C23.9471 6.49035 23.9998 6.61744 24 6.75V10.25C23.9998 10.3826 23.9471 10.5096 23.8534 10.6034C23.7596 10.6971 23.6326 10.7498 23.5 10.75H1.5C1.36744 10.7498 1.24035 10.6971 1.14662 10.6034C1.05288 10.5096 1.00015 10.3826 1 10.25V6.75Z" fill="#4F5162"/>
<path d="M3.00024 16.5C3.27639 16.5 3.50024 16.2761 3.50024 16C3.50024 15.7239 3.27639 15.5 3.00024 15.5C2.7241 15.5 2.50024 15.7239 2.50024 16C2.50024 16.2761 2.7241 16.5 3.00024 16.5Z" fill="#4F5162"/>
<path d="M5.00024 16.5C5.27639 16.5 5.50024 16.2761 5.50024 16C5.50024 15.7239 5.27639 15.5 5.00024 15.5C4.7241 15.5 4.50024 15.7239 4.50024 16C4.50024 16.2761 4.7241 16.5 5.00024 16.5Z" fill="#4F5162"/>
<path d="M7.00024 16.5C7.27639 16.5 7.50024 16.2761 7.50024 16C7.50024 15.7239 7.27639 15.5 7.00024 15.5C6.7241 15.5 6.50024 15.7239 6.50024 16C6.50024 16.2761 6.7241 16.5 7.00024 16.5Z" fill="#4F5162"/>
<path d="M12.5 15.5C12.3674 15.5 12.2402 15.5527 12.1464 15.6464C12.0527 15.7402 12 15.8674 12 16C12 16.1326 12.0527 16.2598 12.1464 16.3536C12.2402 16.4473 12.3674 16.5 12.5 16.5H22C22.1326 16.5 22.2598 16.4473 22.3536 16.3536C22.4473 16.2598 22.5 16.1326 22.5 16C22.5 15.8674 22.4473 15.7402 22.3536 15.6464C22.2598 15.5527 22.1326 15.5 22 15.5H12.5Z" fill="#4F5162"/>
<path d="M3.00024 24C3.27639 24 3.50024 23.7761 3.50024 23.5C3.50024 23.2239 3.27639 23 3.00024 23C2.7241 23 2.50024 23.2239 2.50024 23.5C2.50024 23.7761 2.7241 24 3.00024 24Z" fill="#4F5162"/>
<path d="M5.00024 24C5.27639 24 5.50024 23.7761 5.50024 23.5C5.50024 23.2239 5.27639 23 5.00024 23C4.7241 23 4.50024 23.2239 4.50024 23.5C4.50024 23.7761 4.7241 24 5.00024 24Z" fill="#4F5162"/>
<path d="M7.00024 24C7.27639 24 7.50024 23.7761 7.50024 23.5C7.50024 23.2239 7.27639 23 7.00024 23C6.7241 23 6.50024 23.2239 6.50024 23.5C6.50024 23.7761 6.7241 24 7.00024 24Z" fill="#4F5162"/>
<path d="M26.6045 10.2284C27.0482 10.3586 27.4616 10.5757 27.8207 10.8671C28.1798 11.1585 28.4775 11.5183 28.6963 11.9257C28.983 12.4588 29.1089 13.0636 29.0588 13.6668C28.9616 13.632 28.8559 13.6283 28.7564 13.6562C28.657 13.6842 28.5687 13.7423 28.5037 13.8227C28.4388 13.903 28.4005 14.0016 28.394 14.1047C28.3876 14.2078 28.4133 14.3103 28.4678 14.3981L29.1518 15.5118C29.1966 15.5846 29.2592 15.6447 29.3338 15.6864C29.4084 15.7281 29.4924 15.75 29.5779 15.75H29.5793C29.6651 15.7498 29.7493 15.7275 29.824 15.6853C29.8986 15.6431 29.9612 15.5824 30.0056 15.5091L30.6777 14.3992C30.7326 14.3092 30.7575 14.204 30.7488 14.0989C30.7402 13.9938 30.6985 13.8942 30.6297 13.8143C30.5609 13.7344 30.4685 13.6783 30.3658 13.6542C30.2632 13.6301 30.1555 13.6391 30.0583 13.68C30.1103 12.9084 29.9442 12.1379 29.5791 11.4562C29.2989 10.9324 28.9173 10.4695 28.4566 10.0945C27.9959 9.71947 27.4652 9.43976 26.8955 9.27164C26.7687 9.2333 26.6318 9.24685 26.515 9.30931C26.3982 9.37177 26.3109 9.47804 26.2724 9.60478C26.2338 9.73152 26.2471 9.86838 26.3094 9.98531C26.3717 10.1022 26.4778 10.1897 26.6045 10.2284Z" fill="#4F5162"/>
<path d="M1.5 25.75C1.36744 25.7498 1.24035 25.6971 1.14662 25.6034C1.05288 25.5096 1.00015 25.3826 1 25.25V21.75C1.00015 21.6174 1.05288 21.4904 1.14662 21.3966C1.24035 21.3029 1.36744 21.2502 1.5 21.25H15.5V20.25H1.5C1.10231 20.2504 0.721029 20.4086 0.439819 20.6898C0.158608 20.971 0.000433437 21.3523 0 21.75L0 25.25C0.000433437 25.6477 0.158608 26.029 0.439819 26.3102C0.721029 26.5914 1.10231 26.7496 1.5 26.75H15.9868C15.7637 26.4554 15.6118 26.1131 15.543 25.75H1.5Z" fill="#4F5162"/>
<path d="M1.5 19.25H15.5V19.1912C15.4999 18.8675 15.5659 18.5473 15.6938 18.25H1.5C1.36744 18.2498 1.24035 18.1971 1.14662 18.1034C1.05288 18.0096 1.00015 17.8826 1 17.75V14.25C1.00015 14.1174 1.05288 13.9904 1.14662 13.8966C1.24035 13.8029 1.36744 13.7502 1.5 13.75H23.5C23.6326 13.7502 23.7596 13.8029 23.8534 13.8966C23.9471 13.9904 23.9998 14.1174 24 14.25V16.75H25V14.25C24.9996 13.8523 24.8414 13.471 24.5602 13.1898C24.279 12.9086 23.8977 12.7504 23.5 12.75H1.5C1.10231 12.7504 0.721029 12.9086 0.439819 13.1898C0.158608 13.471 0.000433437 13.8523 0 14.25L0 17.75C0.000433437 18.1477 0.158608 18.529 0.439819 18.8102C0.721029 19.0914 1.10231 19.2496 1.5 19.25Z" fill="#4F5162"/>
<path d="M30.5 17.75H18C17.6101 17.7428 17.2333 17.8904 16.9522 18.1606C16.671 18.4307 16.5084 18.8013 16.5 19.1912V25.3089C16.5084 25.6987 16.671 26.0693 16.9522 26.3394C17.2333 26.6096 17.6101 26.7572 18 26.75H30.5C30.8899 26.7572 31.2667 26.6096 31.5478 26.3394C31.829 26.0693 31.9916 25.6987 32 25.3089V19.1912C31.9916 18.8013 31.829 18.4307 31.5478 18.1606C31.2667 17.8904 30.8899 17.7428 30.5 17.75ZM27.8816 22.7936L27.0681 23.4194L29.9075 25.75H18.5759L21.4248 23.4181L20.6099 22.7929L17.5032 25.336C17.5024 25.3268 17.5034 19.1627 17.5049 19.1485L23.5315 23.7733C23.739 23.9178 23.9852 23.9963 24.2381 23.9985C24.4909 24.0007 24.7385 23.9266 24.9485 23.7858C24.9612 23.7776 30.9936 19.1358 30.9936 19.1358C30.9963 19.1542 30.9968 25.3358 30.9953 25.3494L27.8816 22.7936ZM18.6282 18.75H29.8555L24.3972 22.9508C24.3587 22.9811 24.3118 22.999 24.2629 23.0019C24.2139 23.0049 24.1652 22.9929 24.1233 22.9675L18.6282 18.75Z" fill="#4F5162"/>
<path d="M12 23.5C12 23.6326 12.0527 23.7598 12.1465 23.8535C12.2402 23.9473 12.3674 24 12.5 24H15.5V23H12.5C12.3674 23 12.2402 23.0527 12.1465 23.1465C12.0527 23.2402 12 23.3674 12 23.5Z" fill="#4F5162"/>
</g>
<defs>
<clipPath id="clip0_282_30178">
<rect width="32" height="32" fill="white"/>
</clipPath>
</defs>
</svg>
