<svg viewBox="0 0 13 13" fill="none" xmlns="http://www.w3.org/2000/svg">
<g transform="translate(-2.5, -2.5)">
<path fill-rule="evenodd"  clip-rule="evenodd" d="M9 5.26852C8.79289 5.26852 8.625 5.10062 8.625 4.89352V3.375C8.625 3.16789 8.79289 3 9 3C9.20711 3 9.375 3.16789 9.375 3.375V4.89352C9.375 5.10062 9.20711 5.26852 9 5.26852ZM12 3.80385C11.8206 3.70029 11.5913 3.76175 11.4877 3.94111L10.7286 5.2559C10.6252 5.43515 10.6865 5.66435 10.8656 5.768C11.045 5.87177 11.2745 5.81037 11.3782 5.6309L12.1373 4.31611C12.2408 4.13675 12.1794 3.9074 12 3.80385ZM5.2559 7.27136C5.43515 7.37485 5.66435 7.31354 5.768 7.13438C5.87177 6.955 5.81037 6.72545 5.6309 6.62184L4.31611 5.86274C4.13675 5.75919 3.9074 5.82064 3.80385 6C3.70029 6.17936 3.76175 6.40871 3.94111 6.51226L5.2559 7.27136ZM6 14.1962C6.17936 14.2997 6.40871 14.2383 6.51226 14.0589L7.27136 12.7441C7.37485 12.5648 7.31354 12.3356 7.13438 12.232C6.955 12.1282 6.72545 12.1896 6.62184 12.3691L5.86274 13.6839C5.75919 13.8633 5.82064 14.0926 6 14.1962ZM12.232 10.8656C12.3356 10.6865 12.5648 10.6252 12.7441 10.7286L14.0589 11.4877C14.2383 11.5913 14.2997 11.8206 14.1962 12C14.0926 12.1794 13.8633 12.2408 13.6839 12.1373L12.3691 11.3782C12.1896 11.2745 12.1282 11.045 12.232 10.8656ZM5.26852 9C5.26852 9.20711 5.10062 9.375 4.89352 9.375H3.375C3.16789 9.375 3 9.20711 3 9C3 8.79289 3.16789 8.625 3.375 8.625H4.89352C5.10062 8.625 5.26852 8.79289 5.26852 9ZM3.80385 12C3.9074 12.1794 4.13675 12.2408 4.31611 12.1373L5.6309 11.3782C5.81037 11.2745 5.87177 11.045 5.768 10.8656C5.66435 10.6865 5.43515 10.6252 5.2559 10.7286L3.94111 11.4877C3.76175 11.5913 3.70029 11.8206 3.80385 12ZM12.7315 9C12.7315 8.79289 12.8994 8.625 13.1065 8.625H14.625C14.8321 8.625 15 8.79289 15 9C15 9.20711 14.8321 9.375 14.625 9.375H13.1065C12.8994 9.375 12.7315 9.20711 12.7315 9ZM12.3691 6.62184C12.1896 6.72545 12.1282 6.955 12.232 7.13438C12.3356 7.31354 12.5648 7.37485 12.7441 7.27136L14.0589 6.51226C14.2383 6.40871 14.2997 6.17936 14.1962 6C14.0926 5.82064 13.8633 5.75919 13.6839 5.86274L12.3691 6.62184ZM6 3.80385C5.82064 3.9074 5.75919 4.13675 5.86274 4.31611L6.62184 5.6309C6.72545 5.81037 6.955 5.87177 7.13438 5.768C7.31354 5.66435 7.37485 5.43515 7.27136 5.2559L6.51226 3.94111C6.40871 3.76175 6.17936 3.70029 6 3.80385ZM9 12.7315C9.20711 12.7315 9.375 12.8994 9.375 13.1065V14.625C9.375 14.8321 9.20711 15 9 15C8.79289 15 8.625 14.8321 8.625 14.625V13.1065C8.625 12.8994 8.79289 12.7315 9 12.7315ZM12 14.1962C12.1794 14.0926 12.2408 13.8633 12.1373 13.6839L11.3782 12.3691C11.2745 12.1896 11.045 12.1282 10.8656 12.232C10.6865 12.3356 10.6252 12.5648 10.7286 12.7441L11.4877 14.0589C11.5913 14.2383 11.8206 14.2997 12 14.1962Z" fill="currentColor">
<animateTransform attributeName="transform" type="rotate" from="0 9 9" to="360 9 9" dur="2s" repeatCount="indefinite"/>
</path>
</g>
</svg>
