<svg viewBox="0 0 12 14" fill="none" xmlns="http://www.w3.org/2000/svg"><path d="M5.767 3.08L2.41 4.65a.732.732 0 00-.357.43l-.857 3.57c-.072.144 0 .358.071.5l.071.072 2.286 2.857a.648.648 0 00.5.214h3.714a.648.648 0 00.5-.214l2.286-2.857c.143-.143.143-.357.143-.5L9.91 5.151c-.072-.215-.143-.357-.357-.429L6.196 3.151c0-.072-.143-.143-.215-.143-.071 0-.143 0-.214.071z" fill="#fff"/><path fill-rule="evenodd" clip-rule="evenodd" d="M5.981 4.222c-.143 0-.214.071-.214.214v.643c0 .071-.071.071-.071.071v.072c-.143 0-.215 0-.358.071-.5.143-1 .357-1.285.714l-.072-.071h-.143a.986.986 0 00-.285-.214l-.143-.143h-.072c-.035 0-.053-.018-.071-.036-.018-.018-.036-.036-.071-.036-.072 0-.143 0-.143.072-.072.071-.072.214.071.286h.072a.221.221 0 00.142.071c.143.071.215.143.286.214 0 0 .072.072.072.143l.071.072c-.357.5-.5 1.142-.429 1.785h-.071l-.071.072a.509.509 0 00-.12.026.858.858 0 01-.238.045h-.285c-.143 0-.215.143-.143.214 0 .072.143.143.286.143h.071c.036 0 .071-.018.107-.035.036-.018.072-.036.107-.036.143-.072.215-.072.357-.072.03 0 .048 0 .064.006.02.007.038.025.08.066h.07a2.58 2.58 0 001.144 1.428l-.072.072v.143a.363.363 0 00-.067.12.66.66 0 01-.147.237c-.072.071-.072.071-.072.143v.071c-.071.143 0 .214.072.286.071.071.214 0 .286-.143v-.072c0-.035.017-.07.035-.107.018-.035.036-.071.036-.107.031-.062.049-.125.065-.182.02-.072.038-.135.078-.175 0 0 .071 0 .071-.071l.072-.072c.428.143 1 .214 1.5.143a.527.527 0 00.178-.036.527.527 0 01.179-.035l.071.071s.072 0 .072.072c.04.04.057.102.078.175.016.056.033.119.065.182 0 .071 0 .143.071.214v.071c.071.143.143.143.286.143.071-.071.143-.143.071-.286v-.07c0-.037-.018-.055-.036-.072-.017-.018-.035-.036-.035-.072a1.665 1.665 0 00-.078-.136c-.038-.061-.065-.105-.065-.15V10.15c.571-.357.928-.857 1.143-1.428h.071s.072-.072.143-.072c.03 0 .071.013.12.027.07.02.153.045.237.045.036 0 .072.018.107.035a.254.254 0 00.107.036h.072c.143 0 .214-.071.286-.143 0-.071-.072-.214-.143-.214h-.286c-.143 0-.286 0-.357-.071-.072 0-.072-.072-.072-.072h-.071c.071-.286 0-.643-.071-.928a3.092 3.092 0 00-.358-.858l.072-.071c0-.071 0-.071.071-.143a.986.986 0 01.286-.214c.071 0 .143-.072.143-.072h.071c.072-.071.143-.214.072-.285a.217.217 0 00-.286 0h-.071l-.143.143c-.072.071-.215.214-.286.214h-.143l-.071.071c-.429-.428-1-.714-1.643-.785v-.072l-.072-.071V4.579a8.628 8.628 0 01-.053-.08c-.11-.17-.18-.277-.304-.277zm-.214 1.571l-.071 1.072a.154.154 0 01-.143.142H5.48l-.857-.642c.286-.286.572-.429 1-.572h.143zm1.714.572c-.357-.286-.785-.5-1.214-.572l.071 1.072.072.071c0 .071.143.071.214 0l.857-.571zm-3.214.428l.786.714c.071.072.071.143 0 .215l-.072.071-1 .286c-.071-.5 0-.929.286-1.286zm3.786.643c-.072-.214-.143-.429-.286-.643l-.714.714c-.036 0-.054 0-.063.01-.009.008-.009.026-.009.062 0 .071.072.214.143.214l1 .286c0-.214 0-.429-.071-.643zm-2.215.071h.286l.214.215-.071.285-.286.143-.285-.143-.072-.285.214-.215zm2.072 1l-1.072-.142c-.095.047-.127.095-.158.142a.436.436 0 01-.056.072l.429 1c.428-.286.714-.643.857-1.072zm-2.786-.142c.072 0 .143.071.143.142v.143l-.429 1c-.357-.214-.642-.571-.857-1.071l1.143-.214zm.929.428H5.98c-.03 0-.047.012-.067.027a.218.218 0 01-.147.045l-.5.928c.357.143.786.143 1.143.072a.254.254 0 00.107-.036c.036-.018.071-.036.107-.036l-.5-.928-.071-.072z" fill="#3D81BC"/><path d="M5.696 5.15v-.125H5.57v.125h.125zm0 .072v.125h.125v-.125h-.125zm-.358.071l.035.12.01-.003.011-.005-.056-.112zm-1.285.714l-.089.089.1.099.086-.11-.097-.078zm-.072-.071l.089-.088-.037-.037h-.052v.125zm-.143 0l-.088.088.037.037h.051v-.125zm-.285-.214l-.089.088.015.014.018.01.056-.112zm-.143-.143l.088-.089-.036-.036H3.41v.125zm-.357 0l.088.088.037-.036v-.052h-.125zm.071.286l-.056.111.027.014h.03v-.125zm.072 0l.088-.089-.037-.036h-.051v.125zm.142.071l.056-.112-.026-.013h-.03v.125zm.358.357H3.57v.052l.036.037.089-.089zm.071.072l.102.072.061-.086-.075-.075-.088.089zM3.338 8.15v.125h.14l-.015-.139-.125.014zm-.071 0v-.125h-.052l-.036.037.088.088zm-.071.072v.125h.051l.037-.037-.088-.088zm-.12.026l.034.12-.035-.12zm-.666.26h.125v-.052l-.037-.037-.088.088zm.571.07v.126h.03l.026-.013-.056-.112zm.42-.065l.042-.118-.041.118zm.08.066l-.088.088.037.037h.051v-.125zm.072 0l.118-.04-.028-.085h-.09v.125zm1.143 1.428l.088.089.116-.116-.142-.081-.062.108zm-.072.072l-.088-.089-.037.037v.052h.125zm0 .143l.089.088.036-.037v-.051h-.125zm-.067.12l-.116-.048.116.048zm-.147.237l-.089-.089.089.089zm-.072.214l.112.056.013-.026v-.03h-.125zm.358.143l.111.056.014-.027v-.029h-.125zm.071-.286l-.112-.056-.013.027v.03h.125zm.065-.182l-.12-.033.12.033zm.078-.175v-.125h-.052l-.037.037.089.088zm.071-.071l-.088-.089-.037.037v.052h.125zm.072-.072l.04-.118-.074-.025-.055.055.089.088zm1.5.143v-.125h-.01l-.008.001.018.124zm.178-.036l-.04-.118.04.118zm.179-.035l.088-.089-.036-.036H6.91v.125zm.071.071l-.088.089.037.036h.051v-.125zm.072.072h-.125v.051l.036.037.089-.088zm.078.175l-.12.034.12-.034zm.065.182h.125v-.03l-.014-.026-.111.056zm.071.214h.125v-.052l-.037-.036-.088.088zm0 .071h-.125v.03l.013.026.112-.056zm.286.143v.125h.051l.037-.036-.088-.089zm.071-.286H7.5v.03l.013.026.112-.056zm-.036-.142l.089-.089-.089.089zm-.035-.072h.125v-.03l-.013-.026-.112.056zm-.078-.136l.106-.066-.106.066zm-.065-.364l-.066-.106-.06.037v.07h.126zm1.143-1.428v-.125h-.087l-.03.08.117.045zm.071 0v.125h.052l.037-.037-.089-.088zm.263-.045l-.035.12.035-.12zm.344.08l.056-.111-.056.111zm.465-.107l.088.089.037-.037V8.65h-.125zm-.786-.285l.088-.089-.036-.036H8.91v.125zm-.072-.072h.125v-.125h-.125v.125zm-.071 0l-.121-.03-.04.155h.161v-.125zm-.429-1.786L8.25 6.42l-.072.072.056.086.104-.07zm.072-.071l.088.088.037-.036v-.052H8.41zm.357-.357v-.125h-.03l-.026.013.056.112zm.143-.072v-.125h-.052l-.037.037.089.088zm.071 0v.125h.052l.037-.036-.089-.089zm-.214-.285v.125h.052l.036-.037-.088-.088zm-.071 0v-.125h-.052l-.037.036.089.089zm-.143.143l.088.088-.088-.088zm0 0l.088.088-.088-.088zm-.429.214v-.125h-.052l-.036.036.088.089zm-.071.071l-.089.089.089.088.088-.088-.088-.089zM6.41 5.365h-.125v.111l.111.013.014-.124zm0-.072h.125v-.052l-.037-.036-.088.088zm-.072-.071h-.125v.051l.037.037.088-.088zm0-.643h.125V4.54l-.02-.032-.105.07zm-.053-.08l-.104.067.104-.068zm0 0l-.105.067.105-.068zm0 0l.106-.068V4.43l-.106.068zm-.59 2.366l-.124-.009v.009h.125zm.072-1.072l.125.008.009-.133h-.134v.125zm-.286 1.214l-.075.1.034.025h.041v-.125zm-.857-.642l-.088-.089-.102.102.115.087.075-.1zm1-.572v-.125h-.02l-.02.007.04.118zm.643 0l.02-.123-.155-.026.01.157.125-.008zm1.214.572l.07.104.142-.095-.134-.107-.078.098zm-1.143.5l-.124.008.003.047.033.033.088-.088zm.072.071h.125v-.052l-.037-.036-.088.088zm.214 0l-.07-.104-.01.007-.008.009.088.088zm-1.571.571l.088-.088-.004-.004-.084.092zm-.786-.714l.084-.092-.098-.09-.084.104.098.078zm.786.929l-.089-.089.089.089zm-.072.071l.035.12.03-.009.024-.022-.089-.089zm-1 .286l-.123.018.02.141.138-.039-.035-.12zm3.786-1.286l.104-.07-.085-.126-.107.108.088.088zm.286.643l-.119.04.119-.04zm-1 .071v.125h.051l.037-.036-.088-.089zm-.063.01l-.088-.09.088.09zm.134.276l.034-.12-.016-.005h-.018v.125zm1 .286l-.034.12.16.046v-.166h-.126zm-2-.572l.089-.088-.037-.037h-.052v.125zm-.286 0v-.125h-.051l-.037.037.088.088zm.5.215l.122.03.017-.069-.05-.05-.089.089zm-.071.285l.056.112.051-.026.014-.055-.121-.03zm-.286.143l-.056.112.056.028.056-.028-.056-.112zm-.285-.143l-.122.03.014.056.052.026.056-.112zm-.072-.285l-.088-.089-.05.05.017.069.121-.03zm1.214.643l.017-.124-.038-.005-.034.017.055.112zm1.072.142l.118.04.048-.144-.15-.02-.016.124zm-1.23 0l-.104-.069.104.07zm-.056.072l-.088-.089-.06.06.033.078.115-.05zm.429 1l-.115.05.059.137.125-.083-.07-.104zM5.124 8.365V8.24h-.011l-.012.002.023.123zm.143.285l.115.05.01-.024V8.65h-.125zm-.429 1l-.064.107.123.074.056-.132-.115-.049zM3.981 8.58l-.023-.123-.153.029.061.143.115-.05zm2.072.214l.088-.088-.037-.037h-.051v.125zm-.139.027l.072.102-.072-.102zm-.147.045V8.74h-.075l-.035.065.11.06zm-.5.928l-.11-.06-.066.124.13.052.046-.116zm1.143.072V9.74h-.013l-.012.002.025.123zm.107-.036l.056.112-.056-.112zm.107-.036v.125h.21l-.1-.184-.11.06zm-.5-.928l.11-.06-.008-.016-.013-.013-.089.089zm-.232-4.429c0-.052.013-.068.017-.072.004-.004.02-.017.072-.017v-.25a.341.341 0 00-.249.09.341.341 0 00-.09.249h.25zm0 .071v-.071h-.25v.071h.25zm0 .215v-.215h-.25v.215h.25zm0 .357v-.357h-.25v.357h.25zm-.196.071v.125h.002a.098.098 0 00.01 0 .21.21 0 00.08-.022.188.188 0 00.104-.174h-.25c0-.004.001-.016.01-.028a.063.063 0 01.023-.021.037.037 0 01.017-.005h.003v.125zm.125.072V5.15h-.25v.072h.25zm-.427.183a.49.49 0 01.144-.051.973.973 0 01.158-.007v-.25c-.07 0-.134 0-.2.01a.737.737 0 00-.213.074l.111.224zm-1.244.68c.26-.324.727-.53 1.223-.672l-.069-.24c-.504.144-1.037.367-1.349.756l.195.156zm-.257-.06l.071.07.177-.176-.071-.071-.177.176zm-.055.036h.143v-.25h-.143v.25zm-.341-.228a.864.864 0 01.253.191l.177-.176c-.074-.074-.157-.157-.318-.238l-.112.223zm-.176-.166l.143.143.177-.177-.143-.143-.177.177zm.017.037h.072v-.25h-.072v.25zm-.16-.072c.02.019.07.072.16.072v-.25l.01.001a.05.05 0 01.012.005l.003.002a.189.189 0 01-.008-.007l-.176.176zm.018 0l-.01-.001a.05.05 0 01-.012-.005l-.003-.002a.212.212 0 01.008.008l.176-.177c-.019-.02-.069-.073-.16-.073v.25zm-.018-.053c0 .004-.002.019-.014.035a.061.061 0 01-.027.02h.014c.012-.002.026-.002.045-.002v-.25c-.03 0-.088-.001-.138.016a.19.19 0 00-.092.063.19.19 0 00-.038.118h.25zm.002.174c-.04-.02-.047-.042-.049-.052a.04.04 0 01.01-.034l-.177-.177a.29.29 0 00-.08.252c.017.097.08.183.184.234l.112-.223zm.016-.013h-.072v.25h.072v-.25zm.142.196v-.125h.001a.023.023 0 01.003 0h.002c-.001 0-.005 0-.01-.003a.128.128 0 01-.05-.032l-.177.177a.377.377 0 00.201.106.25.25 0 00.026.002h.004v-.125zm.375.126c-.074-.074-.157-.157-.319-.238l-.111.224a.865.865 0 01.253.19l.177-.176zm.108.231a.31.31 0 00-.057-.167.466.466 0 00-.05-.062v-.001h-.001v-.001l-.089.088a24.794 24.794 0 01-.088.088.06.06 0 01.004.006l.016.02c.014.02.015.031.015.03h.25zm.034-.017l-.071-.071-.177.176.072.072.176-.177zm-.392 1.86c-.069-.616.069-1.227.406-1.699l-.204-.145c-.377.528-.525 1.203-.45 1.872l.248-.028zm-.196.14h.071v-.25h-.071v.25zm.017.034l.071-.071-.176-.177-.072.071.177.177zm-.174.058l.062-.017c.017-.004.024-.004.024-.004v-.25c-.03 0-.06.006-.082.011l-.074.02.07.24zm-.272.05c.105 0 .206-.03.272-.05l-.07-.24a.745.745 0 01-.202.04v.25zm-.214 0h.214v-.25h-.214v.25zm-.071 0h.071v-.25h-.071v.25zm-.055.001a.03.03 0 01.009.019c0 .004-.001.004.001 0 .004-.007.017-.02.045-.02v-.25a.298.298 0 00-.26.141c-.047.08-.058.2.028.287l.177-.177zm.198.106a.33.33 0 01-.141-.031.111.111 0 01-.03-.02c-.002-.003.01.008.01.033h-.25c0 .061.03.108.058.138.029.03.065.055.1.072a.58.58 0 00.253.058v-.25zm.071 0h-.071v.25h.071v-.25zm.051-.022a.463.463 0 01-.041.02l-.01.002v.25c.071 0 .135-.034.163-.049l-.112-.223zm.163-.05c-.07 0-.134.036-.163.05l.112.223.042-.019.01-.003v-.25zm.357-.07c-.069 0-.133 0-.199.01a.736.736 0 00-.214.074l.112.224a.49.49 0 01.143-.051.973.973 0 01.158-.008v-.25zm.105.012c-.04-.014-.082-.013-.105-.013v.25a1.425 1.425 0 01.03 0c.003.001-.001.001-.008-.001l.083-.236zm.127.095l-.054-.052a.224.224 0 00-.073-.043l-.083.236c-.01-.004-.014-.008-.008-.003a2.775 2.775 0 01.04.04l.178-.178zm-.017-.036H3.48v.25h.072v-.25zm1.205 1.445a2.455 2.455 0 01-1.087-1.36l-.237.08a2.705 2.705 0 001.2 1.497l.124-.217zm-.045.268l.071-.071-.177-.177-.071.071.177.177zm.036.055v-.143H4.5v.143h.25zm-.077.168a.274.274 0 01.04-.08l-.176-.177c-.05.051-.077.119-.095.161l.231.096zm-.174.277c.103-.102.145-.206.174-.277l-.23-.096a.54.54 0 01-.12.196l.176.177zm-.035.055a.4.4 0 010-.03s0 .006-.004.014c-.003.006-.005.007.002-.001l.037-.038-.177-.177c-.016.017-.033.033-.045.048a.259.259 0 00-.04.056c-.025.05-.023.101-.023.128h.25zm0 .071v-.071h-.25v.071h.25zm.035.197a.265.265 0 01-.061-.074.038.038 0 01-.003-.018c0-.009.004-.024.016-.049l-.223-.112a.322.322 0 00-.022.272c.029.073.085.127.116.158l.177-.177zm.086-.11a.215.215 0 01-.087.096c-.013.006-.018.006-.017.006a.03.03 0 01.018.008l-.177.177c.09.09.209.072.288.033a.463.463 0 00.198-.208l-.223-.112zm-.013-.016v.072h.25v-.072h-.25zm.048-.163c-.014.029-.048.093-.048.163h.25l.003-.01a.45.45 0 01.02-.04l-.225-.113zm.023-.05l-.003.009a.46.46 0 01-.02.041l.224.112c.014-.028.049-.092.049-.163h-.25zm.07-.216a.877.877 0 01-.057.16l.224.111c.037-.075.058-.148.073-.204l-.24-.067zm.11-.23a.343.343 0 00-.075.117c-.015.037-.026.078-.036.113l.241.067a.882.882 0 01.027-.087.103.103 0 01.02-.033l-.178-.177zm.034.017a.062.062 0 01.033-.05.036.036 0 01.015-.004h.005a12.66 12.66 0 01.001.25h.012a.219.219 0 00.08-.022.188.188 0 00.104-.174h-.25zm.108-.16l-.071.071.177.177.071-.071-.177-.177zm1.571.107c-.479.069-1.03 0-1.443-.137l-.079.237a3.603 3.603 0 001.557.148l-.035-.248zm.157-.03a.41.41 0 01-.14.03v.25c.094 0 .165-.025.219-.043l-.08-.237zm.218-.042c-.094 0-.165.024-.218.042l.079.237a.408.408 0 01.139-.03v-.25zm.16.108l-.072-.072-.177.177.072.072.177-.177zm.108.16a.188.188 0 00-.105-.174.214.214 0 00-.08-.022h-.007-.002-.002v.249H6.98h-.002-.004-.003a.036.036 0 01-.01-.004.062.062 0 01-.034-.05h.25zm.073.141c-.01-.035-.02-.075-.036-.113a.345.345 0 00-.074-.117l-.177.177c.004.004.01.012.02.034a.9.9 0 01.026.087l.241-.068zm.056.16a.875.875 0 01-.056-.16l-.24.068c.015.055.035.129.073.204l.223-.112zm.048.182a.1.1 0 01-.03-.05.323.323 0 01-.004-.076h-.25c0 .073-.003.192.108.302l.176-.176zm.037.16v-.072h-.25v.071h.25zm.16.017a.384.384 0 01-.122-.009c-.006-.002-.023-.008-.051-.065l-.224.112a.352.352 0 00.182.185c.071.03.152.027.216.027v-.25zm-.04-.105c.013.025.016.04.017.05 0 .007 0 .012-.003.018a.268.268 0 01-.062.074l.177.177c.032-.032.088-.086.117-.158a.322.322 0 00-.022-.272l-.224.111zm-.013-.127v.072h.25v-.072H7.5zm.001.017a.145.145 0 01.008.008l-.002-.003a.05.05 0 01-.007-.022h.25c0-.09-.053-.14-.072-.16l-.177.177zm-.072-.16c0 .09.053.14.072.16l.177-.177a.213.213 0 01-.008-.008l.002.003a.05.05 0 01.007.022h-.25zm-.06-.07c.024.037.048.077.073.126l.224-.112c-.03-.06-.06-.108-.084-.146l-.212.132zm-.083-.216c0 .049.015.09.03.123.015.031.036.064.054.093l.212-.132a.806.806 0 01-.04-.069c-.007-.016-.006-.018-.006-.014h-.25zm0-.142v.143h.25v-.143h-.25zm0-.072v.072h.25v-.072h-.25zm1.15-1.472c-.206.55-.547 1.026-1.091 1.366l.132.212c.598-.374.971-.897 1.194-1.49l-.234-.088zm.19-.081h-.072v.25h.071v-.25zm.142-.072a.31.31 0 00-.168.057.466.466 0 00-.061.049l-.001.001-.001.001.088.089.088.088a.174.174 0 01.026-.02c.02-.014.03-.015.029-.015v-.25zm.156.032c-.024-.007-.05-.015-.074-.02a.359.359 0 00-.082-.012v.25s.006 0 .024.005l.061.017.07-.24zm.201.04a.745.745 0 01-.201-.04l-.07.24c.066.02.167.05.271.05v-.25zm.163.049c-.028-.015-.092-.05-.163-.05v.25l.01.004.041.02.112-.224zm.051.022l-.01-.003a.465.465 0 01-.04-.02l-.113.224c.029.014.092.05.163.05v-.25zm.072 0h-.072v.25h.072v-.25zm.197-.106c-.07.07-.11.106-.197.106v.25c.198 0 .301-.107.374-.18l-.177-.176zm-.054-.001c-.024 0-.035-.011-.03-.007a.119.119 0 01.02.027c.01.014.017.03.022.045l.006.024h.25a.417.417 0 00-.134-.285.206.206 0 00-.134-.054v.25zm-.072 0h.072v-.25H9.48v.25zm-.214 0h.214v-.25h-.214v.25zm-.446-.108a.384.384 0 00.223.098c.073.01.154.01.223.01v-.25c-.074 0-.136 0-.188-.008-.053-.007-.074-.02-.08-.027l-.178.177zm.017-.16h-.125v.002a.099.099 0 000 .01.21.21 0 00.023.08.188.188 0 00.174.105v-.25c.004 0 .015 0 .028.01a.063.063 0 01.021.023.037.037 0 01.004.017v.003h-.125zm-.071.125h.071v-.25h-.071v.25zm-.193-1.023c.072.288.135.616.072.868l.242.06c.08-.32 0-.706-.071-.989l-.243.06zm-.34-.818c.133.199.271.541.34.818l.243-.06a3.212 3.212 0 00-.375-.897l-.208.139zm.087-.23l-.071.072.177.177.071-.072-.177-.176zm.072-.142l-.046.047a.256.256 0 00-.04.057c-.025.05-.022.1-.022.127h.25a.4.4 0 010-.03s0 .007-.004.014c-.003.006-.005.007.002 0a1.16 1.16 0 01.037-.038l-.177-.177zm.318-.238c-.161.08-.244.164-.318.238l.177.176a.864.864 0 01.253-.19l-.112-.224zm.199.04a24.794 24.794 0 01-.088-.088.06.06 0 01-.006.005.219.219 0 01-.02.015c-.02.014-.03.015-.029.015v.25a.31.31 0 00.168-.057.465.465 0 00.061-.049l.001-.001.001-.001-.088-.089zm.071-.125H8.91v.25h.071v-.25zm-.017-.072c-.015-.015 0-.023-.012.015a.265.265 0 01-.06.094l.178.177a.514.514 0 00.12-.192c.022-.07.038-.184-.049-.27l-.177.176zm-.109 0c.007-.007.026-.017.055-.017s.047.01.054.017l.177-.177a.327.327 0 00-.231-.09.327.327 0 00-.231.09l.176.177zm-.16.037h.072v-.25h-.071v.25zm-.054.106l.143-.143-.177-.177-.143.143.177.177zm0 0l-.177-.177.177.177zm-.374.25a.26.26 0 00.128-.04.745.745 0 00.095-.069c.058-.048.116-.106.151-.141l-.177-.177a2.116 2.116 0 01-.134.126.503.503 0 01-.062.046c-.02.012-.018.006-.001.006v.25zm-.143 0h.143v-.25h-.143v.25zm.017.036l.072-.072-.177-.177-.072.072.177.177zm-1.745-.75c.614.068 1.16.34 1.568.75l.177-.177a2.868 2.868 0 00-1.717-.822l-.028.249zm-.111-.196v.072h.25v-.072h-.25zm-.035.017l.071.072.177-.177-.071-.072-.177.177zm-.037-.445v.357h.25v-.357h-.25zm0-.215v.215h.25V4.65h-.25zm0-.071v.071h.25V4.58h-.25zm-.032-.013l.053.082.208-.139a8.402 8.402 0 01-.052-.079l-.21.136zm0 0l.21-.136-.21.136zm0 0l.21-.135-.21.135zm-.2-.22c.018 0 .037.006.068.038.036.037.074.094.132.182l.21-.136c-.053-.08-.106-.162-.163-.22a.336.336 0 00-.247-.113v.25zm-.16 2.527L5.89 5.8l-.249-.016-.071 1.071.25.017zm-.268.26a.268.268 0 00.186-.082.268.268 0 00.082-.186h-.25c0-.003 0-.004-.001 0a.038.038 0 01-.007.01.038.038 0 01-.01.007c-.003.001-.003 0 0 0v.25zm-.072 0h.072v-.25H5.48v.25zm-.932-.668l.857.642.15-.2-.857-.642-.15.2zm1.036-.79c-.44.146-.745.297-1.05.601l.178.177c.266-.267.532-.402.95-.541l-.078-.237zm.182-.007h-.143v.25h.143v-.25zm.48.248c.403.068.812.27 1.156.546l.156-.195c-.37-.296-.818-.522-1.271-.597l-.042.246zm.216.94l-.071-1.071-.25.016.072 1.072.25-.017zm.035-.008l-.071-.072-.177.177.071.071.177-.176zm.038 0a.076.076 0 01-.046.017c-.008 0-.003-.002.009.005a.08.08 0 01.036.066h-.25a.17.17 0 00.083.147c.04.025.086.032.122.032.073 0 .16-.028.223-.09l-.177-.177zm.876-.587l-.857.571.138.208.858-.571-.14-.208zM5.137 7.415L4.35 6.7l-.168.185.786.714.168-.185zm.004.395c.05-.05.09-.115.09-.195 0-.081-.04-.147-.09-.196l-.177.177c.022.022.017.028.017.019 0-.01.005-.004-.017.018l.177.177zm-.071.072l.071-.072-.177-.177-.071.072.177.176zm-1.054.317l1-.286-.069-.24-1 .286.069.24zm.153-1.484c-.313.392-.386.86-.311 1.382l.247-.036c-.068-.477.002-.868.26-1.19l-.196-.156zm3.494.147c.132.199.2.398.271.613l.237-.079c-.07-.213-.147-.442-.3-.672l-.208.138zm-.522.734l.714-.715-.176-.176-.715.714.177.177zm-.062.009a.103.103 0 01-.038.024l-.016.004h.027v-.25l-.054.001a.157.157 0 00-.096.044l.177.177zm.027-.026v-.021-.007s0 .007-.003.016a.102.102 0 01-.024.038l-.177-.177a.157.157 0 00-.044.096c-.002.018-.002.04-.002.055h.25zm.018.09c.024 0 .035.01.03.006a.118.118 0 01-.02-.027.237.237 0 01-.022-.045l-.006-.024h-.25a.417.417 0 00.134.285.206.206 0 00.134.054v-.25zm1.034.29l-1-.286-.068.24 1 .286.068-.24zm-.224-.484c.064.193.065.387.065.604h.25c0-.212.001-.446-.078-.683l-.237.08zm-1.81-.093h-.286v.25h.286v-.25zm.303.251l-.214-.214-.177.177.214.214.177-.177zm-.039.405l.072-.286-.243-.06-.071.285.242.06zm-.35.224l.285-.143-.112-.223-.286.142.112.224zM5.64 8.12l.285.143.112-.224-.286-.142-.111.223zm-.137-.367l.071.286.243-.06-.072-.287-.242.061zm.247-.333l-.214.214.177.177.214-.214-.177-.177zm1.072 1.07l1.071.142.033-.248-1.071-.142-.033.247zm-.038.088a.319.319 0 01.04-.053.262.262 0 01.07-.048l-.111-.223a.509.509 0 00-.136.095c-.034.033-.056.067-.071.09l.208.139zm-.071.09c.033-.033.055-.067.07-.09l-.207-.139a.319.319 0 01-.04.052l.177.177zm.455.863l-.429-1-.23.098.429 1 .23-.098zm.623-1.062c-.133.398-.399.734-.808 1.007l.14.208c.447-.299.753-.678.905-1.136l-.237-.08zm-2.399.04a.268.268 0 00-.081-.187.268.268 0 00-.187-.081v.25c-.003 0-.003-.001 0 0a.038.038 0 01.01.008.038.038 0 01.007.01c.002.002.001.002.001 0h.25zm0 .142v-.143h-.25v.143h.25zM4.953 9.7l.429-1-.23-.099-.428 1 .23.098zM3.866 8.627c.222.517.522.898.908 1.13l.129-.215c-.329-.197-.6-.53-.807-1.013l-.23.098zm1.235-.386l-1.143.214.046.246 1.143-.215-.046-.245zm.88.676h.072v-.25H5.98v.25zm.005.004a.306.306 0 01.01-.007c.002-.001.002-.001 0 0a.04.04 0 01-.015.003v-.25c-.072 0-.119.035-.14.05l.145.204zm-.219.068c.054 0 .1-.009.139-.023.038-.015.066-.035.08-.045l-.144-.204a.11.11 0 01-.025.015.138.138 0 01-.05.007v.25zm-.39.862l.5-.928-.22-.119-.5.929.22.118zm1.008-.11c-.341.068-.744.066-1.072-.065l-.092.232c.386.155.84.153 1.213.078l-.049-.245zm.076-.025a.465.465 0 01-.041.02l-.01.003v.25c.07 0 .134-.035.163-.05l-.112-.223zm.163-.049c-.07 0-.134.035-.163.049l.112.224c.019-.01.03-.016.041-.02l.01-.003v-.25zm-.61-.744l.5.928.22-.118-.5-.929-.22.119zm-.05-.042l.072.07.177-.176-.072-.071-.177.177z" fill="#326CE5"/></svg>