<svg viewBox="0 0 24 24" fill="none" xmlns="http://www.w3.org/2000/svg"><path fill-rule="evenodd" clip-rule="evenodd" d="m13.029 1.029 10.285 10.285c.343.343.343 1.029 0 1.372l-3.428 3.428-.172.172L12 24l-4.286-4.286-7.028-7.028c-.343-.343-.343-1.029 0-1.372l3.6-3.6L12 0l1.029 1.029zM8.4 12l3.6 3.6 3.6-3.6L12 8.4 8.4 12z" fill="#fff"/><path d="M12 8.4c-2.4-2.229-2.4-6 0-8.4L4.286 7.714 8.4 12 12 8.4z" fill="url(#a)"/><path d="M15.6 12 12 15.6c2.4 2.4 2.4 6.171 0 8.4l7.714-7.714L15.6 12z" fill="url(#b)"/><defs><linearGradient id="a" x1="9.772" y1="1.008" x2="3.792" y2="3.479" gradientUnits="userSpaceOnUse"><stop offset=".18" stop-color="#CFCFCF"/><stop offset="1" stop-color="#F2F2F2"/></linearGradient><linearGradient id="b" x1="14.268" y1="22.942" x2="20.237" y2="20.475" gradientUnits="userSpaceOnUse"><stop offset=".18" stop-color="#D0D0D0"/><stop offset="1" stop-color="#F6F6F6"/></linearGradient></defs></svg>