<svg viewBox="0 0 32 32" fill="none" xmlns="http://www.w3.org/2000/svg"><path fill-rule="evenodd" clip-rule="evenodd" d="M16 28.995c-7.18 0-13-5.82-13-13s5.82-13 13-13 13 5.82 13 13-5.82 13-13 13Zm7.261-16.118a1 1 0 1 0-1.327-1.496l-6.82 6.049-3.242-3.206a1 1 0 1 0-1.406 1.422l3.909 3.864.665.659.701-.622 7.52-6.67Z" fill="#42AB45"/><path fill-rule="evenodd" clip-rule="evenodd" d="m15.004 21.538 8.92-7.913a2 2 0 1 0-2.653-2.992l.663.748a1 1 0 1 1 1.327 1.496l-8.22 7.292-4.575-4.523a1 1 0 1 1 1.406-1.422l3.243 3.206 6.82-6.05-.664-.747-6.12 5.427-2.576-2.548a2 2 0 0 0-2.813 2.845l5.242 5.181ZM16 27.995c-6.627 0-12-5.373-12-12 0-6.628 5.373-12 12-12 6.628 0 12 5.372 12 12 0 6.627-5.372 12-12 12Zm-13-12c0 7.18 5.82 13 13 13s13-5.82 13-13-5.82-13-13-13-13 5.82-13 13Z" fill="#42AB45"/></svg>