<?xml version="1.0" encoding="UTF-8"?>
<svg width="60px" height="60px" viewBox="0 0 60 60" version="1.1" xmlns="http://www.w3.org/2000/svg" xmlns:xlink="http://www.w3.org/1999/xlink">
    <!-- Generator: Sketch 59 (86127) - https://sketch.com -->
    <title>HDL/Icon/Standard/Support/tour</title>
    <desc>Created with Sketch.</desc>
    <g id="Colors" stroke="none" stroke-width="1" fill="none" fill-rule="evenodd">
        <g id="Support-Icons" transform="translate(-100.000000, -289.000000)">
            <g id="HDL/Icon/Standard/Support/tour" transform="translate(100.000000, 289.000000)">
                <g id="ICON">
                    <circle id="Oval" fill="#D4ECFC" cx="30" cy="30" r="30"></circle>
                    <path d="M39.0065084,30.5219362 C38.7896752,31.2831277 38.2903498,31.8520851 38.2487835,31.8988298 L36.3330262,33.9 L32.6,29.9997234 L36.333291,26.1 L38.2588441,28.1116809 C38.7735252,28.6491064 39.3236832,29.4094681 39.0065084,30.5219362 M29.477944,39.006407 C28.7167795,38.7895772 28.1478423,38.2902598 28.1013758,38.2486941 L26.1,36.3332319 L30.0001383,32.6 L33.9,36.3329672 L31.8881139,38.2587546 C31.3504308,38.7734275 30.5906493,39.3238416 29.477944,39.006407 M20.9933582,29.4782206 C21.210187,28.7167795 21.7095021,28.1478423 21.7510676,28.1013758 L23.6667856,26.1 L27.4,29.9998617 L23.6670503,33.9 L21.7412719,31.8881139 C21.2266014,31.3504308 20.6764546,30.5906493 20.9933582,29.4782206 M30.522056,20.9933582 C31.2832205,21.2104517 31.8521577,21.7097668 31.8986242,21.7513323 L33.9,23.6670503 L30.0001383,27.4 L26.1,23.6670503 L28.1116095,21.7412719 C28.6492926,21.2266014 29.4096273,20.6764546 30.522056,20.9933582 M41.0447717,25.5122064 L34.4878734,18.9553223 C34.3750453,18.8424944 33.3392236,17.837227 31.7789252,17.3167713 C29.5403177,16.5706598 27.3148422,17.1527554 25.5120033,18.9553223 L18.9553731,25.5122064 C18.8422769,25.6250344 17.8370073,26.6605857 17.3168185,28.2211488 C16.5707053,30.4594835 17.1525342,32.6852222 18.9553731,34.4877891 L25.5122713,41.0444052 C25.6250995,41.1575011 26.6606531,42.1630365 28.2212196,42.6832242 C28.8571846,42.8952121 29.4920776,43 30.1167866,43 C31.689949,43 33.1971834,42.3350924 34.4876054,41.0444052 L41.0445037,34.4877891 C41.1573319,34.3749611 42.1628695,33.3394098 42.6830583,31.7788467 C43.4294395,29.540512 42.8473426,27.3150414 41.0447717,25.5122064" id="Fill-1-Copy" fill="#00ACE4"></path>
                </g>
            </g>
        </g>
    </g>
</svg>