<svg enable-background="new 0 0 60 60" viewBox="0 0 60 60" xmlns="http://www.w3.org/2000/svg"><circle cx="30" cy="30" fill="#d4ecfc" r="30"/><path d="m39 30.5c-.2.8-.7 1.3-.8 1.4l-1.9 2-3.7-3.9 3.7-3.9 1.9 2c.6.5 1.1 1.3.8 2.4m-9.5 8.5c-.8-.2-1.3-.7-1.4-.8l-2-1.9 3.9-3.7 3.9 3.7-2 1.9c-.5.6-1.3 1.1-2.4.8m-8.5-9.5c.2-.8.7-1.3.8-1.4l1.9-2 3.7 3.9-3.7 3.9-1.9-2c-.6-.5-1.1-1.3-.8-2.4m9.5-8.5c.8.2 1.3.7 1.4.8l2 1.9-3.9 3.7-3.9-3.7 2-1.9c.5-.6 1.3-1.1 2.4-.8m10.5 4.5-6.5-6.5c-.1-.1-1.1-1.1-2.7-1.6-2.2-.7-4.5-.2-6.3 1.6l-6.5 6.5c-.1.1-1.1 1.1-1.6 2.7-.7 2.2-.2 4.5 1.6 6.3l6.6 6.6c.1.1 1.1 1.1 2.7 1.6.6.2 1.3.3 1.9.3 1.6 0 3.1-.7 4.4-2l6.6-6.6c.1-.1 1.1-1.1 1.6-2.7.6-2.2 0-4.4-1.8-6.2" fill="#00ace4"/></svg>