<?xml version="1.0" encoding="utf-8"?>
<!-- Generator: Adobe Illustrator 20.1.0, SVG Export Plug-In . SVG Version: 6.00 Build 0)  -->
<svg version="1.1" id="Layer_1" xmlns="http://www.w3.org/2000/svg" xmlns:xlink="http://www.w3.org/1999/xlink" x="0px" y="0px"
	 viewBox="0 0 60 60" style="enable-background:new 0 0 60 60;" xml:space="preserve">
<style type="text/css">
	.st0{fill:#D4ECFC;}
	.st1{fill:#00ACE4;}
</style>
<title>HDL/Icon/Standard/Support/tour</title>
<desc>Created with Sketch.</desc>
<g id="Colors">
	<g id="Support-Icons" transform="translate(-100.000000, -289.000000)">
		<g id="HDL_x2F_Icon_x2F_Standard_x2F_Support_x2F_tour" transform="translate(100.000000, 289.000000)">
			<g id="ICON">
				<circle id="Oval" class="st0" cx="30" cy="30" r="30"/>
				<path id="Fill-1-Copy" class="st1" d="M39,30.5c-0.2,0.8-0.7,1.3-0.8,1.4l-1.9,2L32.6,30l3.7-3.9l1.9,2
					C38.8,28.6,39.3,29.4,39,30.5 M29.5,39c-0.8-0.2-1.3-0.7-1.4-0.8l-2-1.9l3.9-3.7l3.9,3.7l-2,1.9C31.4,38.8,30.6,39.3,29.5,39
					 M21,29.5c0.2-0.8,0.7-1.3,0.8-1.4l1.9-2l3.7,3.9l-3.7,3.9l-1.9-2C21.2,31.4,20.7,30.6,21,29.5 M30.5,21
					c0.8,0.2,1.3,0.7,1.4,0.8l2,1.9L30,27.4l-3.9-3.7l2-1.9C28.6,21.2,29.4,20.7,30.5,21 M41,25.5L34.5,19c-0.1-0.1-1.1-1.1-2.7-1.6
					c-2.2-0.7-4.5-0.2-6.3,1.6L19,25.5c-0.1,0.1-1.1,1.1-1.6,2.7c-0.7,2.2-0.2,4.5,1.6,6.3l6.6,6.6c0.1,0.1,1.1,1.1,2.7,1.6
					c0.6,0.2,1.3,0.3,1.9,0.3c1.6,0,3.1-0.7,4.4-2l6.6-6.6c0.1-0.1,1.1-1.1,1.6-2.7C43.4,29.5,42.8,27.3,41,25.5"/>
			</g>
		</g>
	</g>
</g>
</svg>
