<?xml version="1.0" encoding="UTF-8"?>
<svg width="60px" height="60px" viewBox="0 0 60 60" version="1.1" xmlns="http://www.w3.org/2000/svg" xmlns:xlink="http://www.w3.org/1999/xlink">
    <!-- Generator: Sketch 59 (86127) - https://sketch.com -->
    <title>HDL/Icon/Standard/Support/gitops</title>
    <desc>Created with Sketch.</desc>
    <g id="Colors" stroke="none" stroke-width="1" fill="none" fill-rule="evenodd">
        <g id="Support-Icons" transform="translate(-100.000000, -765.000000)">
            <g id="HDL/Icon/Standard/Support/gitops" transform="translate(100.000000, 765.000000)">
                <g id="ICON">
                    <circle id="Oval" fill="#D4ECFC" cx="30" cy="30" r="30"></circle>
                    <g id="HDL/Icon/Special/Service/github" transform="translate(16.000000, 16.000000)" fill="#25A6F7" fill-rule="nonzero">
                        <g id="GitHub">
                            <path d="M26.85,12.45 L14.85,0.45 C14.25,-0.15 13.05,-0.15 12.45,0.45 L9.85,2.85 L13.05,6.05 C13.85,5.85 14.65,6.05 15.25,6.65 C15.85,7.25 16.05,8.05 15.65,8.85 L18.65,11.85 C19.45,11.65 20.25,11.85 20.85,12.25 C21.65,13.05 21.65,14.45 20.85,15.25 C20.05,16.05 18.65,16.05 17.85,15.25 C17.25,14.65 17.25,13.85 17.45,13.05 L14.65,10.25 L14.65,17.65 C14.85,17.65 15.05,17.85 15.25,18.05 C16.05,18.85 16.05,20.25 15.25,21.05 C14.45,21.85 13.05,21.85 12.25,21.05 C11.45,20.25 11.45,18.85 12.25,18.05 C12.45,17.85 12.65,17.65 12.85,17.65 L12.85,10.05 C12.65,9.85 12.45,9.85 12.25,9.65 C11.65,8.85 11.45,8.05 11.85,7.25 L8.65,4.25 L0.45,12.45 C-0.15,13.05 -0.15,14.25 0.45,14.85 L12.45,26.85 C13.05,27.45 14.25,27.45 14.85,26.85 L26.85,14.85 C27.45,14.25 27.45,13.05 26.85,12.45 Z" id="Path"></path>
                        </g>
                    </g>
                </g>
            </g>
        </g>
    </g>
</svg>