<svg enable-background="new 0 0 60 60" viewBox="0 0 60 60" xmlns="http://www.w3.org/2000/svg"><circle cx="30" cy="30" fill="#d4ecfc" r="30"/><path d="m22.7 19.6-3.9-3.9c1-1.6 1.6-3.5 1.6-5.5 0-5.6-4.6-10.2-10.2-10.2s-10.2 4.6-10.2 10.2 4.6 10.2 10.2 10.2c2 0 3.9-.6 5.5-1.6l3.9 3.9c.4.4.9.6 1.5.6 1.2 0 2.2-1 2.2-2.2 0-.6-.2-1.1-.6-1.5zm-12.5-2.1c-4 0-7.3-3.3-7.3-7.3s3.3-7.3 7.3-7.3 7.3 3.3 7.3 7.3-3.3 7.3-7.3 7.3zm3.6-8.8h-7.2c-.4 0-.7.3-.7.7s.3.7.7.7h7.3c.4 0 .7-.3.7-.7s-.3-.7-.8-.7zm0-2.9h-7.2c-.4 0-.7.3-.7.7s.3.7.7.7h7.3c.4 0 .7-.3.7-.7s-.3-.7-.8-.7zm0 5.9h-7.2c-.4 0-.7.3-.7.7s.3.7.7.7h7.3c.4 0 .7-.3.7-.7s-.3-.7-.8-.7z" fill="#25a6f7" transform="translate(18 18)"/></svg>