<?xml version="1.0" encoding="utf-8"?>
<!-- Generator: Adobe Illustrator 20.1.0, SVG Export Plug-In . SVG Version: 6.00 Build 0)  -->
<svg version="1.1" id="Layer_1" xmlns="http://www.w3.org/2000/svg" xmlns:xlink="http://www.w3.org/1999/xlink" x="0px" y="0px"
	 viewBox="0 0 60 60" style="enable-background:new 0 0 60 60;" xml:space="preserve">
<style type="text/css">
	.st0{fill:#D4ECFC;}
	.st1{fill:#25A6F7;}
</style>
<title>HDL/Icon/Standard/Support/gitops</title>
<desc>Created with Sketch.</desc>
<g id="Colors">
	<g id="Support-Icons" transform="translate(-100.000000, -765.000000)">
		<g id="HDL_x2F_Icon_x2F_Standard_x2F_Support_x2F_gitops" transform="translate(100.000000, 765.000000)">
			<g id="ICON">
				<circle id="Oval" class="st0" cx="30" cy="30" r="30"/>
				<g id="HDL_x2F_Icon_x2F_Special_x2F_Service_x2F_github" transform="translate(16.000000, 16.000000)">
					<g id="GitHub">
						<path id="Path" class="st1" d="M26.9,12.4l-12-12c-0.6-0.6-1.8-0.6-2.4,0L9.9,2.8l3.2,3.2c0.8-0.2,1.6,0,2.2,0.6
							s0.8,1.4,0.4,2.2l3,3c0.8-0.2,1.6,0,2.2,0.4c0.8,0.8,0.8,2.2,0,3c-0.8,0.8-2.2,0.8-3,0c-0.6-0.6-0.6-1.4-0.4-2.2l-2.8-2.8v7.4
							c0.2,0,0.4,0.2,0.6,0.4c0.8,0.8,0.8,2.2,0,3c-0.8,0.8-2.2,0.8-3,0c-0.8-0.8-0.8-2.2,0-3c0.2-0.2,0.4-0.4,0.6-0.4v-7.6
							c-0.2-0.2-0.4-0.2-0.6-0.4c-0.6-0.8-0.8-1.6-0.4-2.4l-3.2-3l-8.2,8.2c-0.6,0.6-0.6,1.8,0,2.4l12,12c0.6,0.6,1.8,0.6,2.4,0
							l12-12C27.5,14.2,27.5,13.1,26.9,12.4z"/>
					</g>
				</g>
			</g>
		</g>
	</g>
</g>
</svg>
