<?xml version="1.0" encoding="UTF-8"?>
<svg width="60px" height="60px" viewBox="0 0 60 60" version="1.1" xmlns="http://www.w3.org/2000/svg" xmlns:xlink="http://www.w3.org/1999/xlink">
    <!-- Generator: Sketch 59 (86127) - https://sketch.com -->
    <title>HDL/Icon/Standard/Support/verification</title>
    <desc>Created with Sketch.</desc>
    <g id="Colors" stroke="none" stroke-width="1" fill="none" fill-rule="evenodd">
        <g id="Support-Icons" transform="translate(-100.000000, -860.000000)">
            <g id="HDL/Icon/Standard/Support/verification" transform="translate(100.000000, 860.000000)">
                <g id="ICON">
                    <circle id="Oval" fill="#D4ECFC" cx="30" cy="30" r="30"></circle>
                    <g id="HDL/Icon/Special/Command/resource-constraint" transform="translate(18.000000, 18.000000)" fill="#25A6F7">
                        <path d="M22.6756736,19.586186 L18.7846679,15.6951803 C19.8047818,14.1067173 20.402277,12.2267932 20.402277,10.2011385 C20.402277,4.56136622 15.8409108,3.55271368e-15 10.2011385,3.55271368e-15 C4.56136622,3.55271368e-15 -5.32907052e-14,4.56136622 -5.32907052e-14,10.2011385 C-5.32907052e-14,15.8409108 4.56136622,20.402277 10.2011385,20.402277 C12.2267932,20.402277 14.1067173,19.8047818 15.6951803,18.7846679 L19.586186,22.6756736 C19.9796584,23.0691461 20.5334345,23.316888 21.1309298,23.316888 C22.3404934,23.316888 23.316888,22.3404934 23.316888,21.1309298 C23.316888,20.5334345 23.0691461,19.9796584 22.6756736,19.586186 Z M10.2011385,17.487666 C6.17897533,17.487666 2.91461101,14.2233017 2.91461101,10.2011385 C2.91461101,6.17897533 6.17897533,2.91461101 10.2011385,2.91461101 C14.2233017,2.91461101 17.487666,6.17897533 17.487666,10.2011385 C17.487666,14.2233017 14.2233017,17.487666 10.2011385,17.487666 Z M13.8444023,8.74383302 L6.55787476,8.74383302 C6.14982922,8.74383302 5.82922201,9.06444023 5.82922201,9.47248577 C5.82922201,9.88053131 6.14982922,10.2011385 6.55787476,10.2011385 L13.8444023,10.2011385 C14.2524478,10.2011385 14.573055,9.88053131 14.573055,9.47248577 C14.573055,9.06444023 14.2524478,8.74383302 13.8444023,8.74383302 Z M13.8444023,5.82922201 L6.55787476,5.82922201 C6.14982922,5.82922201 5.82922201,6.14982922 5.82922201,6.55787476 C5.82922201,6.9659203 6.14982922,7.28652751 6.55787476,7.28652751 L13.8444023,7.28652751 C14.2524478,7.28652751 14.573055,6.9659203 14.573055,6.55787476 C14.573055,6.14982922 14.2524478,5.82922201 13.8444023,5.82922201 Z M13.8444023,11.658444 L6.55787476,11.658444 C6.14982922,11.658444 5.82922201,11.9790512 5.82922201,12.3870968 C5.82922201,12.7951423 6.14982922,13.1157495 6.55787476,13.1157495 L13.8444023,13.1157495 C14.2524478,13.1157495 14.573055,12.7951423 14.573055,12.3870968 C14.573055,11.9790512 14.2524478,11.658444 13.8444023,11.658444 Z" id="Shape"></path>
                    </g>
                </g>
            </g>
        </g>
    </g>
</svg>