<?xml version="1.0" encoding="utf-8"?>
<!-- Generator: Adobe Illustrator 20.1.0, SVG Export Plug-In . SVG Version: 6.00 Build 0)  -->
<svg version="1.1" id="Layer_1" xmlns="http://www.w3.org/2000/svg" xmlns:xlink="http://www.w3.org/1999/xlink" x="0px" y="0px"
	 viewBox="0 0 60 60" style="enable-background:new 0 0 60 60;" xml:space="preserve">
<style type="text/css">
	.st0{fill:#D4ECFC;}
	.st1{fill:#25A6F7;}
</style>
<title>HDL/Icon/Standard/Support/pipeline</title>
<desc>Created with Sketch.</desc>
<g id="Colors">
	<g id="Support-Icons" transform="translate(-100.000000, -575.000000)">
		<g id="HDL_x2F_Icon_x2F_Standard_x2F_Support_x2F_pipeline" transform="translate(100.000000, 575.000000)">
			<g id="ICON">
				<circle id="Oval" class="st0" cx="30" cy="30" r="30"/>
				<g id="HDL_x2F_Icon_x2F_Larger_x2F_pipelines" transform="translate(18.000000, 19.000000)">
					<g id="icons8-piping" transform="translate(0.000000, 0.000000)">
						<path id="Path" class="st1" d="M7.4,7.9c-0.4,0-0.6,0-0.7-0.6V0H1.4v7.3c0,2.1,1.6,5.4,6,5.4h5.3c0-1.6,0-3.2,0-4.8H7.4z"/>
						<path id="Shape" class="st1" d="M0,0h8.5v2.4H0V0z M10.3,7.1h2.4v7.1h-2.4V7.1z"/>
						<path id="Path_1_" class="st1" d="M16.6,8.5h-5.3c0,1.6,0,3.2,0,4.8h5.3c0.7,0,0.7,0.3,0.7,0.6v7.3h5.3v-7.3
							C22.6,9.9,18.9,8.5,16.6,8.5z"/>
						<path id="Shape_1_" class="st1" d="M15.5,18.8H24v2.4h-8.5V18.8z M11.3,7.1h2.4v7.1h-2.4V7.1z"/>
					</g>
				</g>
			</g>
		</g>
	</g>
</g>
</svg>
