<?xml version="1.0" encoding="UTF-8"?>
<svg width="60px" height="60px" viewBox="0 0 60 60" version="1.1" xmlns="http://www.w3.org/2000/svg" xmlns:xlink="http://www.w3.org/1999/xlink">
    <!-- Generator: Sketch 59 (86127) - https://sketch.com -->
    <title>HDL/Icon/Standard/Support/onprem</title>
    <desc>Created with Sketch.</desc>
    <g id="Colors" stroke="none" stroke-width="1" fill="none" fill-rule="evenodd">
        <g id="Support-Icons" transform="translate(-100.000000, -1050.000000)">
            <g id="HDL/Icon/Standard/Support/onprem" transform="translate(100.000000, 1050.000000)">
                <g id="ICON">
                    <circle id="Oval" fill="#D4ECFC" cx="30" cy="30" r="30"></circle>
                    <g id="home" transform="translate(18.000000, 18.000000)" fill="#25A6F7" fill-rule="nonzero">
                        <path d="M2.4,14.4 L2.4,22.8 C2.4,23.46 2.94,24 3.6,24 L9.6,24 L9.6,15.6 L14.4,15.6 L14.4,24 L20.4,24 C21.06,24 21.6,23.46 21.6,22.8 L21.6,14.4 L12,4.8 L2.4,14.4 Z M23.652,11.148 L20.4,7.908 L20.4,3.6 C20.4,2.94 19.86,2.4 19.2,2.4 C18.54,2.4 18,2.94 18,3.6 L18,5.508 L12.852,0.36 C12.636,0.132 12.336,0 12,0 C11.664,0 11.364,0.132 11.148,0.348 L0.348,11.148 C0.132,11.364 0,11.664 0,12 C0,12.66 0.54,13.2 1.2,13.2 C1.536,13.2 1.836,13.068 2.052,12.852 L12,2.892 L21.948,12.84 C22.164,13.068 22.464,13.2 22.8,13.2 C23.46,13.2 24,12.66 24,12 C24,11.664 23.868,11.364 23.652,11.148 Z" id="Shape"></path>
                    </g>
                </g>
            </g>
        </g>
    </g>
</svg>