<?xml version="1.0" encoding="utf-8"?>
<!-- Generator: Adobe Illustrator 20.1.0, SVG Export Plug-In . SVG Version: 6.00 Build 0)  -->
<svg version="1.1" id="Layer_1" xmlns="http://www.w3.org/2000/svg" xmlns:xlink="http://www.w3.org/1999/xlink" x="0px" y="0px"
	 viewBox="0 0 60 60" style="enable-background:new 0 0 60 60;" xml:space="preserve">
<style type="text/css">
	.st0{fill:#D4ECFC;}
	.st1{fill:#25A6F7;}
</style>
<title>HDL/Icon/Standard/Support/deployment</title>
<desc>Created with Sketch.</desc>
<g id="Colors">
	<g id="Support-Icons" transform="translate(-100.000000, -479.000000)">
		<g id="HDL_x2F_Icon_x2F_Standard_x2F_Support_x2F_deployment" transform="translate(100.000000, 479.000000)">
			<g id="ICON">
				<circle id="Oval" class="st0" cx="30" cy="30" r="30"/>
				<g id="HDL_x2F_Icon_x2F_Larger_x2F_Command_x2F_approval" transform="translate(19.000000, 19.000000)">
					<path id="Shape" class="st1" d="M12.3,6.1c-0.3-0.3-0.6-0.4-1-0.4c-0.8,0-1.4,0.6-1.4,1.4c0,0.4,0.2,0.7,0.4,1l2.8,2.8
						c0.3,0.3,0.6,0.4,1,0.4s0.7-0.2,1-0.4l7.1-7.1c0.3-0.3,0.4-0.6,0.4-1c0-0.8-0.6-1.4-1.4-1.4c-0.4,0-0.7,0.2-1,0.4l-6.1,6.1
						L12.3,6.1z M19.7,10.3c0,0.3,0.1,0.6,0.1,1c0,4.7-3.8,8.5-8.5,8.5S2.8,16,2.8,11.3s3.8-8.5,8.5-8.5c1.1,0,2.2,0.2,3.2,0.6
						l2.1-2.1C15.1,0.5,13.2,0,11.3,0C5.1,0,0,5.1,0,11.3s5.1,11.3,11.3,11.3s11.3-5.1,11.3-11.3c0-1.2-0.2-2.3-0.5-3.4L19.7,10.3z"
						/>
				</g>
			</g>
		</g>
	</g>
</g>
</svg>
