<svg enable-background="new 0 0 60 60" viewBox="0 0 60 60" xmlns="http://www.w3.org/2000/svg"><circle cx="30" cy="30" fill="#d4ecfc" r="30"/><g transform="translate(10 14)"><path d="m30 4.3h-12v.1 3.4c0 2.3-1.2 4.2-3 5.3-.5 2.9-3.2 5.2-6.1 5.2h-3.2v5.5c0 2.8 2.2 5 5 5h19.3c2.7 0 5-2.3 5-5v-14.5c0-2.7-2.2-5-5-5z" fill="#25a6f7"/><path d="m29.5 27.2h-18.2c-2 0-3.7-1.8-3.7-3.8v-13.7c0-2 1.6-3.8 3.7-3.8h18.2c2 0 3.7 1.8 3.7 3.8v13.7c.1 2.1-1.7 3.8-3.7 3.8z" fill="#fff"/><g fill="#25a6f7"><path d="m11.8 0-.1 1c-.4.1-.7.4-1.1.6l-1-.4-.9 1.8.9.6c0 .3-.1.4-.1.6s0 .4.1.6l-.9.7 1 1.8 1-.4c.4.3.7.5 1.1.6l.1 1h2l.1-1c.4-.1.7-.4 1.1-.6l1 .4 1-1.8-.9-.6c0-.3.1-.4.1-.6s0-.4-.1-.6l.9-.7-1.2-1.8-1 .4c-.4-.3-.7-.5-1.1-.6v-1zm1 2.8c.9 0 1.5.6 1.5 1.5s-.6 1.5-1.5 1.5-1.5-.8-1.5-1.5c0-.9.6-1.5 1.5-1.5zm-8.6 3.1-.1 1.5c-.7.1-1.4.5-1.9 1l-1.2-.6-1 1.8 1.1.9c0 .4-.1.6-.1 1s0 .8.1 1l-1.1.9 1 1.8 1.4-.6c.5.5 1.1.9 1.7 1l.1 1.4h2l.1-1.5c.6-.3 1.2-.5 1.7-1l1.4.6 1-1.8-1.1-.9c.1-.4.1-.6.1-1s0-.8-.1-1l1.1-.9-1-1.8-1.3.7c-.5-.5-1-.9-1.7-1l-.2-1.5zm1 3.9c.9 0 1.6.8 1.6 1.8 0 .9-.7 1.6-1.6 1.6s-1.7-.8-1.7-1.8c0-.8.7-1.6 1.7-1.6z"/><path d="m17.1 20.6c.1.1.4.1.5 0s.2-.3.2-.4v-.2-.1l-2-6.9c-.1-.3-.2-.4-.5-.4s-.4.1-.4.4l-2.1 6.9v.1.1c0 .1.1.4.2.4.1.1.4.1.5 0s.2-.3.2-.4v-.1l.4-1.4h2.5l.4 1.4v.1c-.1.2 0 .3.1.5zm-2.8-2.8 1-3.2 1 3.2z"/><path d="m25 19.7c-.2 0-.5.3-.4.5 0 .3.2.5.5.4h1.4c.1 0 .4-.1.4-.3.1-.1.1-.4 0-.5s-.2-.3-.4-.3h-.2v-6.2h.2c.1 0 .4-.1.4-.3.1-.1.1-.4 0-.5s-.2-.3-.4-.3h-.6-.1-.6c-.2 0-.5.3-.5.5 0 .3.2.5.5.5h.2v6.2h-.4z"/><path d="m19.9 20.6c.1-.1.2-.3.2-.4v-2.4h1.4c1 0 1.9-.9 1.9-1.9v-1.4c0-1-.9-1.9-1.9-1.9h-2c-.2 0-.4.3-.4.5v4.2.3 2.6c0 .1.1.4.2.4.3.1.4.1.6 0zm.2-7.1h1.4c.5 0 1 .4 1 1v1.4c0 .5-.4 1-1 1h-1.4z"/></g></g></svg>