<?xml version="1.0" encoding="UTF-8"?>
<svg width="60px" height="60px" viewBox="0 0 60 60" version="1.1" xmlns="http://www.w3.org/2000/svg" xmlns:xlink="http://www.w3.org/1999/xlink">
    <!-- Generator: Sketch 59 (86127) - https://sketch.com -->
    <title>HDL/Icon/Standard/Support/api</title>
    <desc>Created with Sketch.</desc>
    <g id="Colors" stroke="none" stroke-width="1" fill="none" fill-rule="evenodd">
        <g id="Support-Icons" transform="translate(-100.000000, -1431.000000)">
            <g id="HDL/Icon/Standard/Support/api" transform="translate(100.000000, 1431.000000)">
                <g id="ICON">
                    <circle id="Oval" fill="#D4ECFC" cx="30" cy="30" r="30"></circle>
                    <g id="HDL/Icon/Standard/Setup/api" transform="translate(10.000000, 14.000000)">
                        <g id="API">
                            <path d="M30.0413793,4.28695652 L18,4.28695652 C18,4.28695652 18,4.41304348 18,4.41304348 L18,7.8173913 C18,10.0869565 16.7586207,11.9782609 15.0206897,13.1130435 C14.5241379,16.0130435 11.7931034,18.2826087 8.93793103,18.2826087 L5.71034483,18.2826087 L5.71034483,23.8304348 C5.71034483,26.6043478 7.94482759,28.873913 10.6758621,28.873913 L30.0413793,28.873913 C32.7724138,28.873913 35.0068966,26.6043478 35.0068966,23.8304348 L35.0068966,9.33043478 C35.0068966,6.55652174 32.7724138,4.28695652 30.0413793,4.28695652 Z" id="Path" fill="#25A6F7" fill-rule="nonzero"></path>
                            <path d="M29.5448276,27.2347826 L11.2965517,27.2347826 C9.31034483,27.2347826 7.57241379,25.4695652 7.57241379,23.4521739 L7.57241379,9.70869565 C7.57241379,7.69130435 9.1862069,5.92608696 11.2965517,5.92608696 L29.5448276,5.92608696 C31.5310345,5.92608696 33.2689655,7.69130435 33.2689655,9.70869565 L33.2689655,23.4521739 C33.2689655,25.4695652 31.5310345,27.2347826 29.5448276,27.2347826 Z" id="Path" fill="#FFFFFF" fill-rule="nonzero"></path>
                            <path d="M11.7931034,0 L11.6689655,1.00869565 C11.2965517,1.13478261 10.9241379,1.38695652 10.5517241,1.63913043 L9.55862069,1.26086957 L8.68965517,3.02608696 L9.55862069,3.65652174 C9.55862069,3.90869565 9.43448276,4.03478261 9.43448276,4.28695652 C9.43448276,4.53913043 9.43448276,4.66521739 9.55862069,4.9173913 L8.68965517,5.54782609 L9.68275862,7.31304348 L10.6758621,6.93478261 C11.0482759,7.18695652 11.4206897,7.43913043 11.7931034,7.56521739 L11.9172414,8.57391304 L13.9034483,8.57391304 L14.0275862,7.56521739 C14.4,7.43913043 14.7724138,7.18695652 15.1448276,6.93478261 L16.137931,7.31304348 L17.1310345,5.54782609 L16.262069,4.9173913 C16.262069,4.66521739 16.3862069,4.53913043 16.3862069,4.28695652 C16.3862069,4.03478261 16.3862069,3.90869565 16.262069,3.65652174 L17.1310345,3.02608696 L15.8896552,1.26086957 L14.8965517,1.63913043 C14.5241379,1.38695652 14.1517241,1.13478261 13.7793103,1.00869565 L13.7793103,0 L11.7931034,0 Z M12.7862069,2.77391304 C13.6551724,2.77391304 14.2758621,3.40434783 14.2758621,4.28695652 C14.2758621,5.16956522 13.6551724,5.8 12.7862069,5.8 C11.9172414,5.8 11.2965517,5.04347826 11.2965517,4.28695652 C11.2965517,3.40434783 11.9172414,2.77391304 12.7862069,2.77391304 Z M4.22068966,5.92608696 L4.09655172,7.43913043 C3.35172414,7.56521739 2.73103448,7.94347826 2.23448276,8.44782609 L0.993103448,7.8173913 L0,9.5826087 L1.11724138,10.4652174 C1.11724138,10.8434783 0.993103448,11.0956522 0.993103448,11.473913 C0.993103448,11.8521739 0.993103448,12.2304348 1.11724138,12.4826087 L0,13.3652174 L0.993103448,15.1304348 L2.35862069,14.5 C2.85517241,15.0043478 3.47586207,15.3826087 4.09655172,15.5086957 L4.22068966,17.0217391 L6.20689655,17.0217391 L6.33103448,15.5086957 C6.95172414,15.2565217 7.57241379,15.0043478 8.06896552,14.5 L9.43448276,15.1304348 L10.4275862,13.3652174 L9.31034483,12.4826087 C9.43448276,12.1043478 9.43448276,11.8521739 9.43448276,11.473913 C9.43448276,11.0956522 9.43448276,10.7173913 9.31034483,10.4652174 L10.4275862,9.5826087 L9.43448276,7.8173913 L8.06896552,8.44782609 C7.57241379,7.94347826 7.07586207,7.56521739 6.33103448,7.43913043 L6.20689655,5.92608696 L4.22068966,5.92608696 Z M5.2137931,9.83478261 C6.08275862,9.83478261 6.82758621,10.5913043 6.82758621,11.6 C6.82758621,12.4826087 6.08275862,13.2391304 5.2137931,13.2391304 C4.34482759,13.2391304 3.47586207,12.4826087 3.47586207,11.473913 C3.47586207,10.5913043 4.22068966,9.83478261 5.2137931,9.83478261 Z" id="Shape" fill="#25A6F7" fill-rule="nonzero"></path>
                            <path d="M17.1310345,20.5521739 C17.2551724,20.6782609 17.5034483,20.6782609 17.6275862,20.5521739 C17.7517241,20.426087 17.8758621,20.3 17.8758621,20.173913 L17.8758621,20.0478261 C17.8758621,20.0478261 17.8758621,19.9217391 17.8758621,19.9217391 L15.7655172,12.9869565 C15.6413793,12.7347826 15.5172414,12.6086957 15.2689655,12.6086957 C15.0206897,12.6086957 14.8965517,12.7347826 14.8965517,12.9869565 L12.7862069,19.9217391 C12.7862069,19.9217391 12.7862069,20.0478261 12.7862069,20.0478261 L12.7862069,20.173913 C12.7862069,20.3 12.9103448,20.5521739 13.0344828,20.5521739 C13.1586207,20.6782609 13.4068966,20.6782609 13.5310345,20.5521739 C13.6551724,20.426087 13.7793103,20.3 13.7793103,20.173913 L13.7793103,20.0478261 L14.1517241,18.6608696 L16.6344828,18.6608696 L17.0068966,20.0478261 L17.0068966,20.173913 C16.8827586,20.3 17.0068966,20.426087 17.1310345,20.5521739 Z M14.2758621,17.7782609 L15.2689655,14.626087 L16.262069,17.7782609 L14.2758621,17.7782609 Z" id="Shape" fill="#25A6F7" fill-rule="nonzero"></path>
                            <path d="M24.9517241,19.6695652 C24.7034483,19.6695652 24.4551724,19.9217391 24.5793103,20.173913 C24.5793103,20.426087 24.8275862,20.6782609 25.0758621,20.5521739 L26.4413793,20.5521739 C26.5655172,20.5521739 26.8137931,20.426087 26.8137931,20.3 C26.937931,20.173913 26.937931,19.9217391 26.8137931,19.7956522 C26.6896552,19.6695652 26.5655172,19.5434783 26.4413793,19.5434783 L26.1931034,19.5434783 L26.1931034,13.3652174 L26.4413793,13.3652174 C26.5655172,13.3652174 26.8137931,13.2391304 26.8137931,13.1130435 C26.937931,12.9869565 26.937931,12.7347826 26.8137931,12.6086957 C26.6896552,12.4826087 26.5655172,12.3565217 26.4413793,12.3565217 L25.8206897,12.3565217 C25.8206897,12.3565217 25.6965517,12.3565217 25.6965517,12.3565217 C25.6965517,12.3565217 25.6965517,12.3565217 25.6965517,12.3565217 L25.0758621,12.3565217 C24.8275862,12.3565217 24.5793103,12.6086957 24.5793103,12.8608696 C24.5793103,13.1130435 24.8275862,13.3652174 25.0758621,13.3652174 L25.3241379,13.3652174 L25.3241379,19.5434783 L24.9517241,19.5434783 L24.9517241,19.6695652 Z" id="Path" fill="#25A6F7" fill-rule="nonzero"></path>
                            <path d="M19.862069,20.5521739 C19.9862069,20.426087 20.1103448,20.3 20.1103448,20.173913 L20.1103448,17.7782609 L21.4758621,17.7782609 C22.4689655,17.7782609 23.337931,16.8956522 23.337931,15.8869565 L23.337931,14.5 C23.337931,13.4913043 22.4689655,12.6086957 21.4758621,12.6086957 L19.4896552,12.6086957 C19.2413793,12.6086957 19.1172414,12.8608696 19.1172414,13.1130435 L19.1172414,17.273913 C19.1172414,17.273913 19.1172414,17.4 19.1172414,17.526087 L19.1172414,20.173913 C19.1172414,20.3 19.2413793,20.5521739 19.3655172,20.5521739 C19.6137931,20.6782609 19.737931,20.6782609 19.862069,20.5521739 Z M20.1103448,13.4913043 L21.4758621,13.4913043 C21.9724138,13.4913043 22.4689655,13.8695652 22.4689655,14.5 L22.4689655,15.8869565 C22.4689655,16.3913043 22.0965517,16.8956522 21.4758621,16.8956522 L20.1103448,16.8956522 L20.1103448,13.4913043 Z" id="Shape" fill="#25A6F7" fill-rule="nonzero"></path>
                        </g>
                    </g>
                </g>
            </g>
        </g>
    </g>
</svg>