<?xml version="1.0" encoding="utf-8"?>
<!-- Generator: Adobe Illustrator 20.1.0, SVG Export Plug-In . SVG Version: 6.00 Build 0)  -->
<svg version="1.1" id="Layer_1" xmlns="http://www.w3.org/2000/svg" xmlns:xlink="http://www.w3.org/1999/xlink" x="0px" y="0px"
	 viewBox="0 0 60 60" style="enable-background:new 0 0 60 60;" xml:space="preserve">
<style type="text/css">
	.st0{fill:#D4ECFC;}
	.st1{fill:#25A6F7;}
</style>
<title>HDL/Icon/Standard/Support/account</title>
<desc>Created with Sketch.</desc>
<g id="Colors">
	<g id="Support-Icons" transform="translate(-100.000000, -384.000000)">
		<g id="HDL_x2F_Icon_x2F_Standard_x2F_Support_x2F_account" transform="translate(100.000000, 384.000000)">
			<g id="ICON">
				<circle id="Oval" class="st0" cx="30" cy="30" r="30"/>
				<g id="HDL_x2F_Icon_x2F_Larger_x2F_setup" transform="translate(18.000000, 18.000000)">
					<path id="Shape" class="st1" d="M22.8,9.6H20C19.9,9,19.6,8.5,19.4,8l2-2c0.5-0.5,0.5-1.2,0-1.7l-1.7-1.7
						c-0.5-0.5-1.2-0.5-1.7,0l-2,2c-0.5-0.3-1-0.5-1.6-0.7V1.2c0-0.7-0.5-1.2-1.2-1.2h-2.4c-0.7,0-1.2,0.5-1.2,1.2V4
						C9,4.2,8.5,4.4,8,4.7l-2-2c-0.4-0.4-1.2-0.4-1.6,0L2.7,4.4C2.3,4.8,2.3,5.6,2.7,6l1.9,1.9C4.4,8.5,4.2,9,4,9.6H1.2
						C0.5,9.6,0,10.1,0,10.8v2.4c0,0.7,0.5,1.2,1.2,1.2H4C4.1,15,4.4,15.5,4.6,16l-2,2c-0.5,0.5-0.5,1.2,0,1.7l1.7,1.7
						c0.5,0.5,1.2,0.5,1.7,0l2-2c0.5,0.3,1,0.5,1.6,0.7v2.8c0,0.7,0.5,1.2,1.2,1.2h2.4c0.7,0,1.2-0.5,1.2-1.2V20
						c0.6-0.2,1.1-0.4,1.6-0.7l2,2c0.4,0.4,1.2,0.4,1.6,0l1.6-1.6c0.4-0.4,0.4-1.2,0-1.6l-1.9-1.9c0.3-0.5,0.5-1.1,0.7-1.7h2.8
						c0.7,0,1.2-0.5,1.2-1.2v-2.4C24,10.1,23.5,9.6,22.8,9.6z M12,16.8c-2.7,0-4.8-2.1-4.8-4.8S9.3,7.2,12,7.2s4.8,2.1,4.8,4.8
						S14.7,16.8,12,16.8z"/>
				</g>
			</g>
		</g>
	</g>
</g>
</svg>
