<?xml version="1.0" encoding="utf-8"?>
<!-- Generator: Adobe Illustrator 20.1.0, SVG Export Plug-In . SVG Version: 6.00 Build 0)  -->
<svg version="1.1" id="Layer_1" xmlns="http://www.w3.org/2000/svg" xmlns:xlink="http://www.w3.org/1999/xlink" x="0px" y="0px"
	 viewBox="0 0 60 60" style="enable-background:new 0 0 60 60;" xml:space="preserve">
<style type="text/css">
	.st0{fill:#D4ECFC;}
	.st1{fill:#25A6F7;}
</style>
<title>HDL/Icon/Standard/Support/code</title>
<desc>Created with Sketch.</desc>
<g id="Colors">
	<g id="Support-Icons" transform="translate(-100.000000, -670.000000)">
		<g id="HDL_x2F_Icon_x2F_Standard_x2F_Support_x2F_code" transform="translate(100.000000, 670.000000)">
			<g id="ICON">
				<circle id="Oval" class="st0" cx="30" cy="30" r="30"/>
				<g id="HDL_x2F_Icon_x2F_Larger_x2F_Command_x2F_echo" transform="translate(18.000000, 21.000000)">
					<path id="Shape" class="st1" d="M7.2,4.8c0-0.7-0.5-1.2-1.2-1.2c-0.3,0-0.6,0.1-0.9,0.3L0.3,8.7C0.1,8.9,0,9.2,0,9.5
						s0.1,0.6,0.3,0.8l4.8,4.8c0.2,0.2,0.5,0.3,0.9,0.3c0.7,0,1.2-0.5,1.2-1.2c0-0.3-0.1-0.6-0.3-0.8l-4-3.9l3.9-3.9
						C7.1,5.4,7.2,5.1,7.2,4.8z M14.4,0c-0.6,0-1,0.4-1.1,0.9L8.5,17.5c0,0.1-0.1,0.2-0.1,0.3c0,0.7,0.5,1.2,1.2,1.2
						c0.6,0,1-0.4,1.1-0.9l4.8-16.6c0-0.1,0.1-0.2,0.1-0.3C15.6,0.5,15.1,0,14.4,0z M23.7,8.7l-4.8-4.8c-0.2-0.2-0.5-0.3-0.9-0.3
						c-0.7,0-1.2,0.5-1.2,1.2c0,0.3,0.1,0.6,0.3,0.8l4,3.9l-3.9,3.9c-0.2,0.2-0.4,0.5-0.4,0.8c0,0.7,0.5,1.2,1.2,1.2
						c0.3,0,0.6-0.1,0.9-0.3l4.8-4.8c0.2-0.2,0.3-0.5,0.3-0.8S23.9,8.9,23.7,8.7z"/>
				</g>
			</g>
		</g>
	</g>
</g>
</svg>
