<svg enable-background="new 0 0 60 60" viewBox="0 0 60 60" xmlns="http://www.w3.org/2000/svg"><circle cx="30" cy="30" fill="#d4ecfc" r="30"/><path d="m12.3 6.1c-.3-.3-.6-.4-1-.4-.8 0-1.4.6-1.4 1.4 0 .4.2.7.4 1l2.8 2.8c.3.3.6.4 1 .4s.7-.2 1-.4l7.1-7.1c.3-.3.4-.6.4-1 0-.8-.6-1.4-1.4-1.4-.4 0-.7.2-1 .4l-6.1 6.1zm7.4 4.2c0 .3.1.6.1 1 0 4.7-3.8 8.5-8.5 8.5s-8.5-3.8-8.5-8.5 3.8-8.5 8.5-8.5c1.1 0 2.2.2 3.2.6l2.1-2.1c-1.5-.8-3.4-1.3-5.3-1.3-6.2 0-11.3 5.1-11.3 11.3s5.1 11.3 11.3 11.3 11.3-5.1 11.3-11.3c0-1.2-.2-2.3-.5-3.4z" fill="#25a6f7" transform="translate(19 19)"/></svg>