<svg viewBox="0 0 60 60" xmlns="http://www.w3.org/2000/svg"><circle cx="30" cy="30" fill="#d4ecfc" r="30"/><path d="M24.8 23c-1 0-1.8.8-1.8 1.8s.8 1.8 1.8 1.8 1.8-.8 1.8-1.8-.9-1.8-1.8-1.8zM23 28.2c-1 0-1.8.8-1.8 1.8s.8 1.8 1.8 1.8 1.8-.8 1.8-1.8-.8-1.8-1.8-1.8zm7-3.4c1 0 1.8-.8 1.8-1.8s-.8-1.8-1.8-1.8-1.8.8-1.8 1.8.8 1.8 1.8 1.8zm-3.5 10.4c0 1.9 1.6 3.5 3.5 3.5s3.5-1.6 3.5-3.5c0-.9-3.5-8.8-3.5-8.8s-3.5 7.9-3.5 8.8zM30 16c-7.7 0-14 6.3-14 14s6.3 14 14 14 14-6.3 14-14-6.3-14-14-14zm0 24.5c-5.8 0-10.5-4.7-10.5-10.5S24.2 19.5 30 19.5 40.5 24.2 40.5 30 35.8 40.5 30 40.5zm7-15.7c0-1-.8-1.8-1.8-1.8s-1.8.8-1.8 1.8.8 1.8 1.8 1.8 1.8-.9 1.8-1.8zm0 3.4c-1 0-1.8.8-1.8 1.8s.8 1.8 1.8 1.8 1.8-.8 1.8-1.8-.8-1.8-1.8-1.8z" fill="#25a6f7"/></svg>