<?xml version="1.0" encoding="UTF-8"?>
<svg width="60px" height="60px" viewBox="0 0 60 60" version="1.1" xmlns="http://www.w3.org/2000/svg" xmlns:xlink="http://www.w3.org/1999/xlink">
    <!-- Generator: Sketch 59 (86127) - https://sketch.com -->
    <title>HDL/Icon/Standard/Support/troubleshoot</title>
    <desc>Created with Sketch.</desc>
    <g id="Colors" stroke="none" stroke-width="1" fill="none" fill-rule="evenodd">
        <g id="Support-Icons" transform="translate(-100.000000, -1146.000000)">
            <g id="HDL/Icon/Standard/Support/troubleshoot" transform="translate(100.000000, 1146.000000)">
                <g id="ICON">
                    <circle id="Oval" fill="#D4ECFC" cx="30" cy="30" r="30"></circle>
                    <g id="HDL/Icon/Special/info" transform="translate(15.000000, 15.000000)" fill="#25A6F7">
                        <path d="M18.6706949,21.3897734 C18.0362538,23.8369033 11.6012085,24.0181722 12.0543807,20.7553323 C12.326284,18.5801057 12.7794562,16.4955136 13.141994,14.320287 C13.3232629,12.9607704 12.4169184,13.4139426 11.6918429,13.1420393 C11.1480363,12.870136 11.1480363,12.2356949 11.7824774,12.1450604 C12.5981873,11.9637915 15.407855,12.054426 16.4048338,12.054426 C16.9486405,12.054426 17.2205438,12.3263293 17.2205438,12.7795015 C17.3111783,13.2326737 17.2205438,13.6858459 17.1299094,14.0483837 C16.7673716,16.1329758 16.223565,18.3082024 16.0422961,20.3021601 C15.9516616,20.7553323 16.0422961,21.5710423 16.6767372,21.5710423 C17.3111783,21.4804079 17.5830816,21.2085045 18.1268882,21.0272356 C18.489426,20.8459668 18.6706949,21.1178701 18.6706949,21.3897734 Z M15.4984894,6.70694864 C16.7673716,6.70694864 17.673716,7.70392749 17.673716,8.88217524 C17.673716,10.1510574 16.6767372,11.1480363 15.4984894,11.0574018 C14.3202417,11.0574018 13.3232628,10.060423 13.3232628,8.88217524 C13.3232628,7.70392749 14.3202417,6.70694864 15.4984894,6.70694864 Z M14.9546828,2.26586103 C7.97583082,2.26586103 2.26586103,7.97583081 2.26586103,14.9546828 C2.26586103,22.0241692 7.97583082,27.6435046 14.9546828,27.6435046 C22.0241692,27.6435046 27.6435045,22.0241692 27.6435045,14.9546828 C27.6435045,7.97583081 22.0241692,2.26586103 14.9546828,2.26586103 Z M14.9546828,0 C23.2930513,0 30,6.70694864 30,14.9546828 C30,23.2930514 23.2930513,30 14.9546828,30 C6.70694865,30 0,23.2930514 0,14.9546828 C0,6.70694864 6.70694865,0 14.9546828,0 Z" id="Combined-Shape-Copy-4"></path>
                    </g>
                </g>
            </g>
        </g>
    </g>
</svg>