<svg enable-background="new 0 0 60 60" viewBox="0 0 60 60" xmlns="http://www.w3.org/2000/svg"><circle cx="30" cy="30" fill="#d4ecfc" r="30"/><path d="m26.9 12.4-12-12c-.6-.6-1.8-.6-2.4 0l-2.6 2.4 3.2 3.2c.8-.2 1.6 0 2.2.6s.8 1.4.4 2.2l3 3c.8-.2 1.6 0 2.2.4.8.8.8 2.2 0 3s-2.2.8-3 0c-.6-.6-.6-1.4-.4-2.2l-2.8-2.8v7.4c.2 0 .4.2.6.4.8.8.8 2.2 0 3s-2.2.8-3 0-.8-2.2 0-3c.2-.2.4-.4.6-.4v-7.6c-.2-.2-.4-.2-.6-.4-.6-.8-.8-1.6-.4-2.4l-3.2-3-8.2 8.2c-.6.6-.6 1.8 0 2.4l12 12c.6.6 1.8.6 2.4 0l12-12c.6-.6.6-1.7 0-2.4z" fill="#25a6f7" transform="translate(16 16)"/></svg>