<?xml version="1.0" encoding="UTF-8"?>
<svg width="60px" height="60px" viewBox="0 0 60 60" version="1.1" xmlns="http://www.w3.org/2000/svg" xmlns:xlink="http://www.w3.org/1999/xlink">
    <!-- Generator: Sketch 59 (86127) - https://sketch.com -->
    <title>HDL/Icon/Standard/Support/dashboard</title>
    <desc>Created with Sketch.</desc>
    <g id="Colors" stroke="none" stroke-width="1" fill="none" fill-rule="evenodd">
        <g id="Support-Icons" transform="translate(-100.000000, -1336.000000)">
            <g id="HDL/Icon/Standard/Support/dashboard" transform="translate(100.000000, 1336.000000)">
                <g id="ICON">
                    <circle id="Oval" fill="#D4ECFC" cx="30" cy="30" r="30"></circle>
                    <g id="dashboard" transform="translate(16.000000, 16.000000)" fill="#25A6F7" fill-rule="nonzero">
                        <path d="M8.75,7 C7.7875,7 7,7.7875 7,8.75 C7,9.7125 7.7875,10.5 8.75,10.5 C9.7125,10.5 10.5,9.7125 10.5,8.75 C10.5,7.7875 9.7125,7 8.75,7 Z M7,12.25 C6.0375,12.25 5.25,13.0375 5.25,14 C5.25,14.9625 6.0375,15.75 7,15.75 C7.9625,15.75 8.75,14.9625 8.75,14 C8.75,13.0375 7.9625,12.25 7,12.25 Z M14,8.75 C14.9625,8.75 15.75,7.9625 15.75,7 C15.75,6.0375 14.9625,5.25 14,5.25 C13.0375,5.25 12.25,6.0375 12.25,7 C12.25,7.9625 13.0375,8.75 14,8.75 Z M10.5,19.25 C10.5,21.175 12.075,22.75 14,22.75 C15.925,22.75 17.5,21.175 17.5,19.25 C17.5,18.3225 14,10.5 14,10.5 C14,10.5 10.5,18.3225 10.5,19.25 Z M14,0 C6.265,0 0,6.265 0,14 C0,21.735 6.265,28 14,28 C21.735,28 28,21.735 28,14 C28,6.265 21.735,0 14,0 Z M14,24.5 C8.2075,24.5 3.5,19.7925 3.5,14 C3.5,8.2075 8.2075,3.5 14,3.5 C19.7925,3.5 24.5,8.2075 24.5,14 C24.5,19.7925 19.7925,24.5 14,24.5 Z M21,8.75 C21,7.7875 20.2125,7 19.25,7 C18.2875,7 17.5,7.7875 17.5,8.75 C17.5,9.7125 18.2875,10.5 19.25,10.5 C20.2125,10.5 21,9.7125 21,8.75 Z M21,12.25 C20.0375,12.25 19.25,13.0375 19.25,14 C19.25,14.9625 20.0375,15.75 21,15.75 C21.9625,15.75 22.75,14.9625 22.75,14 C22.75,13.0375 21.9625,12.25 21,12.25 Z" id="Shape"></path>
                    </g>
                </g>
            </g>
        </g>
    </g>
</svg>