<?xml version="1.0" encoding="utf-8"?>
<!-- Generator: Adobe Illustrator 20.1.0, SVG Export Plug-In . SVG Version: 6.00 Build 0)  -->
<svg version="1.1" id="Layer_1" xmlns="http://www.w3.org/2000/svg" xmlns:xlink="http://www.w3.org/1999/xlink" x="0px" y="0px"
	 viewBox="0 0 60 60" style="enable-background:new 0 0 60 60;" xml:space="preserve">
<style type="text/css">
	.st0{fill:#D4ECFC;}
	.st1{fill:#25A6F7;}
	.st2{fill:#FFFFFF;}
</style>
<title>HDL/Icon/Standard/Support/api</title>
<desc>Created with Sketch.</desc>
<g id="Colors">
	<g id="Support-Icons" transform="translate(-100.000000, -1431.000000)">
		<g id="HDL_x2F_Icon_x2F_Standard_x2F_Support_x2F_api" transform="translate(100.000000, 1431.000000)">
			<g id="ICON">
				<circle id="Oval" class="st0" cx="30" cy="30" r="30"/>
				<g id="HDL_x2F_Icon_x2F_Standard_x2F_Setup_x2F_api" transform="translate(10.000000, 14.000000)">
					<g id="API">
						<path id="Path" class="st1" d="M30,4.3H18v0.1v3.4c0,2.3-1.2,4.2-3,5.3c-0.5,2.9-3.2,5.2-6.1,5.2H5.7v5.5c0,2.8,2.2,5,5,5H30
							c2.7,0,5-2.3,5-5V9.3C35,6.6,32.8,4.3,30,4.3z"/>
						<path id="Path_1_" class="st2" d="M29.5,27.2H11.3c-2,0-3.7-1.8-3.7-3.8V9.7c0-2,1.6-3.8,3.7-3.8h18.2c2,0,3.7,1.8,3.7,3.8
							v13.7C33.3,25.5,31.5,27.2,29.5,27.2z"/>
						<path id="Shape" class="st1" d="M11.8,0l-0.1,1c-0.4,0.1-0.7,0.4-1.1,0.6l-1-0.4L8.7,3l0.9,0.6c0,0.3-0.1,0.4-0.1,0.6
							s0,0.4,0.1,0.6L8.7,5.5l1,1.8l1-0.4c0.4,0.3,0.7,0.5,1.1,0.6l0.1,1h2l0.1-1c0.4-0.1,0.7-0.4,1.1-0.6l1,0.4l1-1.8l-0.9-0.6
							c0-0.3,0.1-0.4,0.1-0.6s0-0.4-0.1-0.6L17.1,3l-1.2-1.8l-1,0.4c-0.4-0.3-0.7-0.5-1.1-0.6V0H11.8z M12.8,2.8
							c0.9,0,1.5,0.6,1.5,1.5s-0.6,1.5-1.5,1.5c-0.9,0-1.5-0.8-1.5-1.5C11.3,3.4,11.9,2.8,12.8,2.8z M4.2,5.9L4.1,7.4
							c-0.7,0.1-1.4,0.5-1.9,1L1,7.8L0,9.6l1.1,0.9c0,0.4-0.1,0.6-0.1,1s0,0.8,0.1,1L0,13.4l1,1.8l1.4-0.6c0.5,0.5,1.1,0.9,1.7,1
							L4.2,17h2l0.1-1.5c0.6-0.3,1.2-0.5,1.7-1l1.4,0.6l1-1.8l-1.1-0.9c0.1-0.4,0.1-0.6,0.1-1s0-0.8-0.1-1l1.1-0.9l-1-1.8L8.1,8.4
							c-0.5-0.5-1-0.9-1.7-1L6.2,5.9H4.2z M5.2,9.8c0.9,0,1.6,0.8,1.6,1.8c0,0.9-0.7,1.6-1.6,1.6s-1.7-0.8-1.7-1.8
							C3.5,10.6,4.2,9.8,5.2,9.8z"/>
						<path id="Shape_1_" class="st1" d="M17.1,20.6c0.1,0.1,0.4,0.1,0.5,0s0.2-0.3,0.2-0.4V20v-0.1L15.8,13
							c-0.1-0.3-0.2-0.4-0.5-0.4s-0.4,0.1-0.4,0.4l-2.1,6.9V20v0.1c0,0.1,0.1,0.4,0.2,0.4c0.1,0.1,0.4,0.1,0.5,0s0.2-0.3,0.2-0.4V20
							l0.4-1.4h2.5L17,20v0.1C16.9,20.3,17,20.4,17.1,20.6z M14.3,17.8l1-3.2l1,3.2H14.3z"/>
						<path id="Path_2_" class="st1" d="M25,19.7c-0.2,0-0.5,0.3-0.4,0.5c0,0.3,0.2,0.5,0.5,0.4h1.4c0.1,0,0.4-0.1,0.4-0.3
							c0.1-0.1,0.1-0.4,0-0.5s-0.2-0.3-0.4-0.3h-0.2v-6.2h0.2c0.1,0,0.4-0.1,0.4-0.3c0.1-0.1,0.1-0.4,0-0.5
							c-0.1-0.1-0.2-0.3-0.4-0.3h-0.6h-0.1l0,0h-0.6c-0.2,0-0.5,0.3-0.5,0.5c0,0.3,0.2,0.5,0.5,0.5h0.2v6.2H25V19.7z"/>
						<path id="Shape_2_" class="st1" d="M19.9,20.6c0.1-0.1,0.2-0.3,0.2-0.4v-2.4h1.4c1,0,1.9-0.9,1.9-1.9v-1.4
							c0-1-0.9-1.9-1.9-1.9h-2c-0.2,0-0.4,0.3-0.4,0.5v4.2c0,0,0,0.1,0,0.3v2.6c0,0.1,0.1,0.4,0.2,0.4
							C19.6,20.7,19.7,20.7,19.9,20.6z M20.1,13.5h1.4c0.5,0,1,0.4,1,1v1.4c0,0.5-0.4,1-1,1h-1.4V13.5z"/>
					</g>
				</g>
			</g>
		</g>
	</g>
</g>
</svg>
