<?xml version="1.0" encoding="UTF-8"?>
<svg width="60px" height="60px" viewBox="0 0 60 60" version="1.1" xmlns="http://www.w3.org/2000/svg" xmlns:xlink="http://www.w3.org/1999/xlink">
    <!-- Generator: Sketch 59 (86127) - https://sketch.com -->
    <title>HDL/Icon/Standard/Support/pipeline</title>
    <desc>Created with Sketch.</desc>
    <g id="Colors" stroke="none" stroke-width="1" fill="none" fill-rule="evenodd">
        <g id="Support-Icons" transform="translate(-100.000000, -575.000000)">
            <g id="HDL/Icon/Standard/Support/pipeline" transform="translate(100.000000, 575.000000)">
                <g id="ICON">
                    <circle id="Oval" fill="#D4ECFC" cx="30" cy="30" r="30"></circle>
                    <g id="HDL/Icon/Larger/pipelines" transform="translate(18.000000, 19.000000)" fill="#25A6F7">
                        <g id="icons8-piping" transform="translate(0.000000, 0.000000)">
                            <path d="M7.39100346,7.86554622 C7.02508667,7.86554622 6.76038046,7.86554622 6.7266436,7.2605042 L6.7266436,0 L1.41176471,0 L1.41176471,7.2605042 C1.41176471,9.36633418 3.03373686,12.7058824 7.39100346,12.7058824 L12.7058824,12.7058824 C12.7058824,11.0798319 12.7058824,9.50814091 12.7058824,7.86554622 L7.39100346,7.86554622 Z" id="Path"></path>
                            <path d="M0,0 L8.47058824,0 L8.47058824,2.35294118 L0,2.35294118 L0,0 Z M10.3281734,7.05882353 L12.7058824,7.05882353 L12.7058824,14.1176471 L10.3281734,14.1176471 L10.3281734,7.05882353 Z" id="Shape"></path>
                            <path d="M16.6089965,8.47058824 L11.2941176,8.47058824 C11.2941176,10.1131829 11.2941176,11.6848739 11.2941176,13.3109244 L16.6089965,13.3109244 C17.2733564,13.3109244 17.2733564,13.6323529 17.2733564,13.9159664 L17.2733564,21.1764706 L22.5882353,21.1764706 L22.5882353,13.9159664 C22.5882353,9.94774145 18.9212804,8.47058824 16.6089965,8.47058824 Z" id="Path"></path>
                            <path d="M15.5294118,18.8235294 L24,18.8235294 L24,21.1764706 L15.5294118,21.1764706 L15.5294118,18.8235294 Z M11.2941176,7.05882353 L13.6718266,7.05882353 L13.6718266,14.1176471 L11.2941176,14.1176471 L11.2941176,7.05882353 Z" id="Shape"></path>
                        </g>
                    </g>
                </g>
            </g>
        </g>
    </g>
</svg>