<?xml version="1.0" encoding="utf-8"?>
<!-- Generator: Adobe Illustrator 20.1.0, SVG Export Plug-In . SVG Version: 6.00 Build 0)  -->
<svg version="1.1" id="Layer_1" xmlns="http://www.w3.org/2000/svg" xmlns:xlink="http://www.w3.org/1999/xlink" x="0px" y="0px"
	 viewBox="0 0 60 60" style="enable-background:new 0 0 60 60;" xml:space="preserve">
<style type="text/css">
	.st0{fill:#D4ECFC;}
	.st1{fill:#25A6F7;}
</style>
<title>HDL/Icon/Standard/Support/start</title>
<desc>Created with Sketch.</desc>
<g id="Colors">
	<g id="Support-Icons" transform="translate(-100.000000, -194.000000)">
		<g id="HDL_x2F_Icon_x2F_Standard_x2F_Support_x2F_start" transform="translate(100.000000, 194.000000)">
			<g id="ICON">
				<circle id="Oval" class="st0" cx="30" cy="30" r="30"/>
				<g id="HDL_x2F_Icon_x2F_Large_x2F_start" transform="translate(23.000000, 21.000000)">
					<path id="Path" class="st1" d="M15,9c0-0.5-0.2-0.9-0.6-1.1l0,0L1.9,0.2l0,0C1.7,0.1,1.5,0,1.2,0C0.6,0,0,0.6,0,1.3v15.4
						C0,17.4,0.6,18,1.2,18c0.2,0,0.5-0.1,0.6-0.2l0,0l12.5-7.7l0,0C14.8,9.9,15,9.5,15,9z"/>
				</g>
			</g>
		</g>
	</g>
</g>
</svg>
