<svg viewBox="0 0 32 32" xmlns="http://www.w3.org/2000/svg"><path fill-rule="evenodd" clip-rule="evenodd" d="M2.987 7.02a3 3 0 0 1 3-3h20.025a3 3 0 0 1 3 3v17.96a3 3 0 0 1-3 3H5.987a3 3 0 0 1-3-3v-5.638h2v5.639a1 1 0 0 0 1 1h20.025a1 1 0 0 0 1-1V7.02a1 1 0 0 0-1-1H5.987a1 1 0 0 0-1 1v5.673h-2V7.02Z" fill="currentColor"/><path fill-rule="evenodd" clip-rule="evenodd" d="M12.184 12.446a1 1 0 0 1 1.399-.21l4.02 2.968a1 1 0 0 1 .006 1.604l-4.02 3.016a1 1 0 1 1-1.2-1.6l1.62-1.216H2.988v-2h10.984l-1.576-1.164a1 1 0 0 1-.21-1.398Z" fill="currentColor"/></svg>