<svg fill="none" xmlns="http://www.w3.org/2000/svg" viewBox="0 0 53 55"><path d="M30.255 21.773v-4.41m0-9.263V4.901a3.417 3.417 0 00-3.418-3.417H5.444a3.417 3.417 0 00-3.417 3.417v37.271a3.417 3.417 0 003.417 3.417h10.697" stroke="#7D4DD3" stroke-width="2.278" stroke-linecap="round" stroke-linejoin="round"/><path d="M24.08 26.18h-4.523a3.417 3.417 0 00-3.416 3.417v20.51a3.417 3.417 0 003.417 3.418h20.51a3.417 3.417 0 003.418-3.417v-4.455" stroke="#7D4DD3" stroke-width="2.278" stroke-linecap="round" stroke-linejoin="round"/><rect x="24.336" y="22.03" width="26.831" height="23.303" rx="2.278" stroke="#7D4DD3" stroke-width="2.278" stroke-linecap="round" stroke-linejoin="round"/><path d="M24.336 11.073a2.278 2.278 0 012.278-2.278H48.89a2.278 2.278 0 012.278 2.278v3.751a2.278 2.278 0 01-2.278 2.278H26.614a2.278 2.278 0 01-2.278-2.278v-3.75z" stroke="#7D4DD3" stroke-width="2.278" stroke-linecap="round" stroke-linejoin="round"/><path d="M16.14 37.157l6.338-10.977M16.14 47.078l7.938-14.281M17.903 53.04l6.175-10.977m.002 11.859l5.292-8.773m.882 8.772l4.81-8.331m1.363 8.332l4.555-7.89" stroke="#7D4DD3" stroke-width="2.278"/></svg>