<svg fill="currentColor" xmlns="http://www.w3.org/2000/svg" viewBox="0 0 24 24"><path d="M13.454 7.589v6.028l5.106-2.944V4.505l-5.106 3.084Z" fill="#4040B2"/><path d="m7.796 4.505 5.106 3.084v6.028l-5.106-2.944V4.505Z" fill="#5C4EE5"/><path fill-rule="evenodd" clip-rule="evenodd" d="M2 7.028V1l5.244 3.084v6.028L2 7.028Zm10.902 13.318-5.244-3.084v-6.028l5.244 3.084v6.028ZM21 14.8h-5a.2.2 0 0 0-.2.2v6c0 .11.09.2.2.2h5a.2.2 0 0 0 .2-.2v-6a.2.2 0 0 0-.2-.2Zm-5-.8a1 1 0 0 0-1 1v6a1 1 0 0 0 1 1h5a1 1 0 0 0 1-1v-6a1 1 0 0 0-1-1h-5Z" fill="#5C4EE5"/><rect x="17" y="16.5" width="3" height="1" rx=".5" fill="#5C4EE5"/><rect x="17" y="18.5" width="3" height="1" rx=".5" fill="#5C4EE5"/></svg>