<svg fill="currentColor" xmlns="http://www.w3.org/2000/svg" viewBox="0 0 24 24"><path fill-rule="evenodd" clip-rule="evenodd" d="M19.878 18.285c-.25-.352-.223-.722-.05-1.388.344-1.317.208-2.039-.976-2.894l-.578-.417-.14.7c-.149.742-.393 1.201-1.019 2.085l-.05.07c-.902 1.273-1.232 2.04-1.232 3.434 0 1.69 1.71 3.208 3.667 3.208 1.958 0 3.667-1.517 3.667-3.208l.005-.17c.041-1.08-.158-1.926-.966-2.839a4.907 4.907 0 0 0-.584-.555l-.482-.392-.232.576c-.171.426-.372.76-.599 1.006-.192.208-.335.47-.431.784Z" fill="#5C4EE5"/><path d="M14.289 8.152v6.544l5.542-3.196V4.804L14.29 8.152Z" fill="#4040B2"/><path d="m8.147 4.804 5.543 3.348v6.544L8.147 11.5V4.804Z" fill="#5C4EE5"/><path fill-rule="evenodd" clip-rule="evenodd" d="M1.856 7.543V1l5.692 3.348v6.543L1.856 7.543ZM13.69 22l-5.692-3.348V12.11l5.692 3.348V22Z" fill="#5C4EE5"/></svg>