<svg enable-background="new 0 0 14 14" viewBox="0 0 14 14" xmlns="http://www.w3.org/2000/svg"><path d="m8.9 11.5c-.2-.5-.5-1-.7-1.6 0 0 0-.1.1-.2.7-.6 1-1.4 1-2.3 0-1.9-1.5-3.3-3.4-3.2-.2 0-.2 0-.3-.2-.2-.4-.4-.8-.6-1.3 1.7-.5 4.4.1 5.6 2.6 1.1 2.3.3 5-1.7 6.2z" fill="#fff"/><path d="m6.6 10.6c-1.3.3-2.8-.5-3.4-1.8-.5-1.3-.2-3 .9-3.8.9 1.9 1.7 3.7 2.5 5.6z" fill="#fff"/><path d="m9.3 4.8v4.3l3.7-2.1v-4.4z" fill="#4040b2"/><g fill="#5c4ee5"><path d="m5.2 2.6 3.7 2.2v4.3l-3.7-2.1z"/><path d="m1 .1v4.3l3.8 2.2v-4.3zm4.1 11.6 3.8 2.2v-4.3l-3.8-2.2z"/></g></svg>