<svg viewBox="0 0 33 33" fill="none" xmlns="http://www.w3.org/2000/svg"><path fill-rule="evenodd" clip-rule="evenodd" d="M15.205 4.551a.5.5 0 0 1-.005.708l-2.201 2.165H27.24a1.5 1.5 0 0 1 1.5 1.5v5.375a.5.5 0 0 1-1 0V8.924a.5.5 0 0 0-.5-.5H13l2.2 2.165a.5.5 0 1 1-.7.713L11.426 8.28a.5.5 0 0 1 0-.712l3.071-3.022a.5.5 0 0 1 .707.005ZM5.42 13.434a.5.5 0 0 1 .5.5v11.96a.5.5 0 0 0 .5.5h10.056a.5.5 0 1 1 0 1H6.42a1.5 1.5 0 0 1-1.5-1.5v-11.96a.5.5 0 0 1 .5-.5Z" fill="#0278D5"/><path d="M29.463 23.92v3.999l3.386-1.953v-4.09l-3.386 2.045Z" fill="#4040B2"/><path d="m25.71 21.875 3.386 2.046v3.998l-3.386-1.953v-4.09Z" fill="#5C4EE5"/><path fill-rule="evenodd" clip-rule="evenodd" d="M21.866 23.549V19.55l3.478 2.045v3.998l-3.478-2.045Zm7.23 8.832-3.477-2.045v-3.998l3.477 2.045v3.998Z" fill="#5C4EE5"/></svg>