<svg viewBox="0 0 27 25" xmlns="http://www.w3.org/2000/svg"><path d="M13.93 8.014v7.331l6.21-3.58V4.263l-6.21 3.75z" fill="#4040B2"/><path d="M7.05 4.263l6.21 3.75v7.332l-6.21-3.58V4.263z" fill="#5C4EE5"/><path fill-rule="evenodd" clip-rule="evenodd" d="M0 7.332V0l6.378 3.751v7.332L0 7.332zm13.26 16.197L6.88 19.78v-7.332l6.378 3.75v7.332z" fill="#5C4EE5"/><path d="M22.059 16.25h-1.177l.294-.294a.71.71 0 000-1.03.71.71 0 00-1.029 0l-1.544 1.545a.71.71 0 000 1.029l1.544 1.544a.71.71 0 001.03 0 .71.71 0 000-1.03l-.295-.293h1.177c.809 0 1.47.661 1.47 1.47v1.47c0 .81-.661 1.471-1.47 1.471h-2.941c-.81 0-1.471-.661-1.471-1.47v-.735c0-.442-.294-.736-.735-.736s-.735.294-.735.736v.735a2.95 2.95 0 002.94 2.94h2.942A2.95 2.95 0 0025 20.663v-1.47a2.95 2.95 0 00-2.941-2.942z" fill="#5C4EE5"/></svg>