<svg viewBox="0 0 33 33" fill="none" xmlns="http://www.w3.org/2000/svg"><path fill-rule="evenodd" clip-rule="evenodd" d="M21.763 11.104c-.797-2.013-1.69-4.315-2.518-6.96a4.89 4.89 0 0 0-.724.415c-.712.478-1.621 1.259-2.428 2.257-1.62 2.006-2.747 4.768-1.284 7.706a.5.5 0 0 1-.236.676l-.212-.453.211.453-.002.001-.005.002-.012.006a1.853 1.853 0 0 1-.176.069 4.326 4.326 0 0 1-2.077.184c-1.174-.188-2.516-.915-3.597-2.82-.18.273-.4.644-.619 1.117-.55 1.183-1.11 3.006-1.11 5.53 0 3.98 2.517 7.334 5.981 8.491-2.113-1.59-3.196-4.437-2.123-7.553a.5.5 0 0 1 .97.102l.007.013a2.9 2.9 0 0 0 .232.314c.223.27.55.614.925.955.377.34.79.667 1.184.908.352.215.647.336.865.372.247-.132.406-.448.466-.952.037-.3.029-.605.01-.84a4.801 4.801 0 0 0-.041-.352l-.003-.017v-.003a.5.5 0 0 1 .983-.18v.004l.002.008.005.028.014.097a5.307 5.307 0 0 1 .023 1.376c-.076.628-.338 1.513-1.22 1.814a.502.502 0 0 1-.183.026c-.483-.02-.992-.253-1.442-.528a9.23 9.23 0 0 1-1.334-1.02c-.292-.265-.56-.534-.784-.781-.648 3.62 2.036 6.531 5.457 6.531h.005c.456-.074.9-.185 1.33-.33a.5.5 0 0 1 .319.948 9.39 9.39 0 0 1-3.005.491c-5.34 0-9.643-4.456-9.643-9.921 0-2.679.596-4.645 1.203-5.953a9.233 9.233 0 0 1 .842-1.465 5.916 5.916 0 0 1 .398-.498l.008-.009.002-.003h.002v-.001l.356.346-.356-.347a.5.5 0 0 1 .813.14c1.011 2.19 2.276 2.824 3.215 2.974.48.076.906.031 1.216-.035-1.329-3.236-.006-6.21 1.642-8.25.872-1.078 1.856-1.927 2.648-2.459.393-.263.759-.463 1.054-.569.141-.05.31-.097.476-.092a.687.687 0 0 1 .322.086c.13.074.23.195.276.344.848 2.755 1.771 5.142 2.602 7.239l.274.69c.716 1.801 1.35 3.396 1.766 4.805a.5.5 0 0 1-.96.283c-.401-1.361-1.017-2.91-1.736-4.72l-.274-.69Z" fill="#fff"/><path d="M29.156 23.854v3.998l3.387-1.952v-4.091l-3.387 2.045ZM25.403 21.809l3.387 2.045v3.998L25.403 25.9v-4.091Z" fill="#fff"/><path fill-rule="evenodd" clip-rule="evenodd" d="M21.56 23.482v-3.998l3.478 2.046v3.998l-3.478-2.046Zm7.23 8.833-3.478-2.046v-3.998l3.478 2.046v3.998Z" fill="#fff"/></svg>