<svg fill="currentColor" xmlns="http://www.w3.org/2000/svg" viewBox="0 0 24 24"><path d="M12.454 7.589v6.028l5.106-2.944V4.505l-5.106 3.084Z" fill="#4040B2"/><path d="m6.796 4.505 5.106 3.084v6.028l-5.106-2.944V4.505Z" fill="#5C4EE5"/><path fill-rule="evenodd" clip-rule="evenodd" d="M1 7.028V1l5.244 3.084v6.028L1 7.028Zm10.902 13.318-5.244-3.084v-6.028l5.244 3.084v6.028ZM14.7 16.05a.35.35 0 0 1 .35-.35h4.025a.35.35 0 1 0 0-.7H15.05c-.58 0-1.05.47-1.05 1.05v4.9c0 .58.47 1.05 1.05 1.05h4.9c.58 0 1.05-.47 1.05-1.05V18.5a.35.35 0 1 0-.7 0v2.45a.35.35 0 0 1-.35.35h-4.9a.35.35 0 0 1-.35-.35v-4.9Zm6.373.422a.35.35 0 1 0-.495-.495l-3.253 3.253-1.373-1.47a.35.35 0 1 0-.495.495l1.868 1.965 3.748-3.747Z" fill="#5C4EE5"/></svg>