<svg viewBox="0 0 33 33" fill="none" xmlns="http://www.w3.org/2000/svg"><path fill-rule="evenodd" clip-rule="evenodd" d="M14.899 4.485a.5.5 0 0 1-.006.707l-2.201 2.166h14.242a1.5 1.5 0 0 1 1.5 1.5v5.374a.5.5 0 1 1-1 0V8.858a.5.5 0 0 0-.5-.5H12.692l2.2 2.165a.5.5 0 0 1-.7.713L11.12 8.214a.5.5 0 0 1 0-.713l3.072-3.022a.5.5 0 0 1 .707.006Zm-9.786 8.882a.5.5 0 0 1 .5.5v11.96a.5.5 0 0 0 .5.5H16.17a.5.5 0 0 1 0 1H6.113a1.5 1.5 0 0 1-1.5-1.5v-11.96a.5.5 0 0 1 .5-.5Z" fill="#fff"/><path d="M29.156 23.854v3.998l3.387-1.952v-4.091l-3.387 2.045ZM25.403 21.809l3.387 2.045v3.998L25.403 25.9v-4.091Z" fill="#fff"/><path fill-rule="evenodd" clip-rule="evenodd" d="M21.56 23.482v-3.998l3.478 2.046v3.998l-3.478-2.046Zm7.23 8.833-3.478-2.046v-3.998l3.478 2.046v3.998Z" fill="#fff"/></svg>