<svg viewBox="0 0 12 12" fill="none" xmlns="http://www.w3.org/2000/svg"><path d="M6 3.445a.469.469 0 100-.937.469.469 0 000 .937z" fill="#383946"/><path d="M10.243 1.757A5.961 5.961 0 006 0a5.96 5.96 0 00-4.243 1.757A5.96 5.96 0 000 6c0 1.603.624 3.11 1.757 4.243A5.961 5.961 0 006 12a5.99 5.99 0 003.105-.865.469.469 0 10-.486-.801A5.053 5.053 0 016 11.063 5.068 5.068 0 01.937 6 5.068 5.068 0 016 .937 5.068 5.068 0 0111.063 6a5.04 5.04 0 01-.859 2.81.469.469 0 10.78.52A5.976 5.976 0 0012 6c0-1.603-.624-3.11-1.757-4.243z" fill="#383946"/><path d="M6 4.383a.469.469 0 00-.469.469v4.171a.469.469 0 10.938 0V4.852A.469.469 0 006 4.382z" fill="#383946"/></svg>