<svg viewBox="0 0 32 32" xmlns="http://www.w3.org/2000/svg"><circle cx="16" cy="16" fill="#d4ecfc" r="16"/><g fill="#1a57ad"><path d="M26.8 15.6l-3.6-3.4c-.2-.1-.3-.2-.5-.2-.3 0-.6.3-.6.6 0 .2.1.3.2.4l2.6 2.5h-8.3c-.3-.1-.6.2-.6.5s.3.6.6.6h8.3L22.3 19c-.1.1-.2.3-.2.4 0 .3.3.6.6.6.2 0 .3-.1.5-.2l3.7-3.4c0-.1.1-.2.1-.4s-.1-.3-.2-.4z"/><path d="M13 20.9h-2.7v-1h2.1v-3.3h-2.2v-1.2h2.2v-3.2h-2.2V11H13c.3 0 .5.2.5.6v3.8h2.2v1.1h-2.2v3.8c0 .4-.2.6-.5.6zM9.7 11v1.1c0 .3-.2.5-.5.5H8c-.3 0-.5-.2-.5-.5V11c0-.3.2-.5.5-.5h1.1c.3 0 .6.2.6.5zm0 8.9V21c0 .3-.2.6-.5.6H8c-.3 0-.5-.2-.5-.6v-1.1c0-.3.2-.6.5-.6h1.1c.3 0 .6.2.6.6zm0-4.5v1.1c0 .3-.2.5-.5.5H8c-.3 0-.5-.2-.5-.5v-1.1c0-.3.2-.5.5-.5h1.1c.3 0 .6.2.6.5zm9.8-.2v1.6c0 .5-.4.8-.8.8H17c-.5 0-.8-.4-.8-.8v-1.6c0-.5.4-.9.8-.9h1.7c.4 0 .8.4.8.9z"/></g></svg>