<svg viewBox="0 0 32 32" xmlns="http://www.w3.org/2000/svg"><circle cx="16" cy="16" fill="#fcdede" r="16"/><path d="M7.333 15.968l8.485-8.485 8.485 8.485-8.485 8.485z" fill="#fff"/><path d="M7 16.3v-.5c0-.4.3-.6.5-.9l4.8-4.8c.1-.1.1-.1.2-.3.1-.1.3-.1.4 0 .7.7 1.3 1.2 1.8 1.8.1.2.1.3.1.4-.1.6 0 1 .6 1.4.1.1.3.3.3.5v4.2c0 .3-.1.5-.4.6-.6.4-.6 1.3-.3 1.8.5.5 1.3.6 1.8.1s.5-1.4-.1-1.8c-.3-.3-.3-.5-.3-.8v-4c0-.1 0-.4.1-.5.4.1.4.3.5.4l1.3 1.3c.3.3.4.4.3.6-.1.9.6 1.7 1.7 1.4.5-.1.9-.8.8-1.3-.1-.6-.5-1-1-1.2H20c-.5.1-.8-.1-1-.4-.4-.5-.9-.9-1.4-1.4-.1-.1-.1-.3-.1-.5-.1-.8-.7-1.4-1.6-1.3-.3 0-.4 0-.5-.1-.6-.7-1.2-1.2-1.7-1.7-.3-.3-.3-.4 0-.6l1.4-1.4c.1-.3.4-.3.6-.3h.6c.4 0 .6.3.9.5 2.4 2.5 4.8 4.9 7.3 7.3.2.3.5.6.5.9v.5c0 .4-.3.6-.5.9l-7.3 7.3c-.3.3-.6.6-.9.6h-.5c-.4 0-.6-.3-.9-.5L7.4 17c-.1-.1-.4-.4-.4-.7z" fill="#f24f29"/></svg>