<?xml version="1.0" encoding="UTF-8"?>
<svg width="32px" height="32px" viewBox="0 0 32 32" version="1.1" xmlns="http://www.w3.org/2000/svg" xmlns:xlink="http://www.w3.org/1999/xlink">
    <!-- Generator: Sketch 59 (86127) - https://sketch.com -->
    <title>HDL/Icon/Standard/Trigger/triggerartifact</title>
    <desc>Created with Sketch.</desc>
    <g id="Colors" stroke="none" stroke-width="1" fill="none" fill-rule="evenodd">
        <g id="Trigger-Icons" transform="translate(-100.000000, -195.000000)">
            <g id="HDL/Icon/Standard/Trigger/triggerpipeline" transform="translate(100.000000, 195.000000)">
                <g id="TriggerArtifact">
                    <g id="Group-Copy" fill="#D4ECFC" fill-rule="nonzero">
                        <circle id="Oval" cx="16" cy="16" r="16"></circle>
                    </g>
                    <g id="arrow-right" transform="translate(16.000000, 12.000000)" fill="#1A57AD" fill-rule="nonzero">
                        <path d="M10.8227778,3.59428571 L7.15611111,0.165714286 C7.04611111,0.0628571429 6.89333333,0 6.72222222,0 C6.38611111,0 6.11111111,0.257142857 6.11111111,0.571428571 C6.11111111,0.731428571 6.17833333,0.874285714 6.28833333,0.977142857 L8.91611111,3.42857143 L0.611111111,3.42857143 C0.275,3.42857143 0,3.68571429 0,4 C0,4.31428571 0.275,4.57142857 0.611111111,4.57142857 L8.91611111,4.57142857 L6.29444444,7.02285714 C6.17833333,7.12571429 6.11111111,7.26857143 6.11111111,7.42857143 C6.11111111,7.74285714 6.38611111,8 6.72222222,8 C6.89333333,8 7.04611111,7.93714286 7.15611111,7.83428571 L10.8227778,4.40571429 C10.9327778,4.30285714 11,4.16 11,4 C11,3.84 10.9327778,3.69714286 10.8227778,3.59428571 Z" id="Path"></path>
                    </g>
                    <g id="diagram-tree" transform="translate(13.500000, 16.000000) rotate(90.000000) translate(-13.500000, -16.000000) translate(7.500000, 9.500000)" fill="#1A57AD" fill-rule="nonzero">
                        <path d="M10.95,7.04545455 L10.95,9.77272727 L9.85,9.77272727 L9.85,7.59090909 L6.55,7.59090909 L6.55,9.77272727 L5.45,9.77272727 L5.45,7.59090909 L2.15,7.59090909 L2.15,9.77272727 L1.05,9.77272727 L1.05,7.04545455 C1.05,6.74420832 1.29624339,6.5 1.6,6.5 L5.45,6.5 L5.45,4.31818182 L6.55,4.31818182 L6.55,6.5 L10.4,6.5 C10.7037566,6.5 10.95,6.74420832 10.95,7.04545455 Z M1.05,10.3181818 L2.15,10.3181818 C2.45375661,10.3181818 2.7,10.5623902 2.7,10.8636364 L2.7,11.9545455 C2.7,12.2557917 2.45375661,12.5 2.15,12.5 L1.05,12.5 C0.746243387,12.5 0.5,12.2557917 0.5,11.9545455 L0.5,10.8636364 C0.5,10.5623902 0.746243387,10.3181818 1.05,10.3181818 Z M9.85,10.3181818 L10.95,10.3181818 C11.2537566,10.3181818 11.5,10.5623902 11.5,10.8636364 L11.5,11.9545455 C11.5,12.2557917 11.2537566,12.5 10.95,12.5 L9.85,12.5 C9.54624341,12.5 9.3,12.2557917 9.3,11.9545455 L9.3,10.8636364 C9.3,10.5623902 9.54624341,10.3181818 9.85,10.3181818 Z M5.45,10.3181818 L6.55,10.3181818 C6.85375658,10.3181818 7.1,10.5623902 7.1,10.8636364 L7.1,11.9545455 C7.1,12.2557917 6.85375658,12.5 6.55,12.5 L5.45,12.5 C5.14624339,12.5 4.9,12.2557917 4.9,11.9545455 L4.9,10.8636364 C4.9,10.5623902 5.14624339,10.3181818 5.45,10.3181818 Z M5.175,0.5 L6.825,0.5 C7.28063488,0.5 7.65,0.866312477 7.65,1.31818182 L7.65,2.95454545 C7.65,3.4064148 7.28063488,3.77272727 6.825,3.77272727 L5.175,3.77272727 C4.71936508,3.77272727 4.35,3.4064148 4.35,2.95454545 L4.35,1.31818182 C4.35,0.866312477 4.71936508,0.5 5.175,0.5 Z" id="Organization"></path>
                    </g>
                </g>
            </g>
        </g>
    </g>
</svg>