<?xml version="1.0" encoding="utf-8"?>
<!-- Generator: Adobe Illustrator 20.1.0, SVG Export Plug-In . SVG Version: 6.00 Build 0)  -->
<svg version="1.1" id="Layer_1" xmlns="http://www.w3.org/2000/svg" xmlns:xlink="http://www.w3.org/1999/xlink" x="0px" y="0px"
	 viewBox="0 0 32 32" style="enable-background:new 0 0 32 32;" xml:space="preserve">
<style type="text/css">
	.st0{fill:#F0EDFF;}
	.st1{fill:#5CBDF9;}
	.st2{fill:#8C78ED;}
</style>
<title>HDL/Icon/Standard/Trigger/triggerpipeline</title>
<desc>Created with Sketch.</desc>
<g id="Colors">
	<g id="Trigger-Icons" transform="translate(-100.000000, -289.000000)">
		<g id="HDL_x2F_Icon_x2F_Standard_x2F_Trigger_x2F_triggerpipeline" transform="translate(100.000000, 289.000000)">
			<g id="TriggerPipeline">
				<g id="Group-Copy">
					<circle id="Oval" class="st0" cx="16" cy="16" r="16"/>
				</g>
				<g id="icons8-piping" transform="translate(8.000000, 8.000000)">
					<path id="Path" class="st1" d="M5.2,5.6c-0.3,0-0.4,0-0.5-0.4V0H1v5.1C1,6.6,2.1,9,5.2,9H9c0-1.2,0-2.3,0-3.4H5.2z"/>
					<path id="Shape" class="st1" d="M0,0h6v1.7H0V0z M7.3,5H9v5H7.3V5z"/>
					<path id="Path_1_" class="st2" d="M11.8,6H8c0,1.2,0,2.3,0,3.4h3.8c0.5,0,0.5,0.2,0.5,0.4V15H16V9.9C16,7,13.4,6,11.8,6z"/>
					<path id="Shape_1_" class="st2" d="M11,13.3h6V15h-6V13.3z M8,5h1.7v5H8V5z"/>
				</g>
			</g>
		</g>
	</g>
</g>
</svg>
