<svg viewBox="0 0 16 14" fill="none" xmlns="http://www.w3.org/2000/svg"><path d="M7.536 0a3.777 3.777 0 00-3.77 3.77c0 1.127.558 2.084 1.347 2.776L3.985 8.632a1.508 1.508 0 00-.218-.017c-.886 0-1.616.73-1.616 1.616 0 .886.73 1.615 1.616 1.615.886 0 1.615-.73 1.615-1.615 0-.43-.176-.82-.454-1.111l1.531-2.843-.404-.27a2.684 2.684 0 011.48-4.93c1.494 0 2.693 1.2 2.693 2.692 0 .316-.052.612-.15.892l1.009.37c.144-.405.218-.832.218-1.262A3.777 3.777 0 007.536 0zm0 2.154c-.886 0-1.615.73-1.615 1.615 0 .886.73 1.616 1.615 1.616.075 0 .145-.007.219-.017l1.48 2.356.27.437.454-.27c.41-.234.874-.356 1.346-.353 1.494 0 2.693 1.2 2.693 2.693s-1.2 2.692-2.693 2.692a2.664 2.664 0 01-2.002-.892l-.808.707A3.776 3.776 0 0011.305 14a3.777 3.777 0 003.77-3.77 3.777 3.777 0 00-3.77-3.768c-.496 0-.927.195-1.363.37l-1.228-1.97c.269-.287.437-.672.437-1.093 0-.886-.73-1.615-1.615-1.615zm0 1.077c.303 0 .539.236.539.538a.532.532 0 01-.539.539.532.532 0 01-.538-.539c0-.303.235-.538.538-.538zM3.144 6.512a3.785 3.785 0 00-1.262.455 3.78 3.78 0 00-1.38 5.148 3.78 3.78 0 005.15 1.38c1.028-.595 1.583-1.632 1.75-2.726h2.39a1.62 1.62 0 001.513 1.077c.886 0 1.616-.73 1.616-1.615 0-.886-.73-1.616-1.616-1.616-.696 0-1.29.455-1.514 1.077H6.459v.539a2.695 2.695 0 01-5.031 1.346 2.694 2.694 0 011.884-4.005l-.168-1.06zm.623 3.18c.303 0 .538.236.538.539a.532.532 0 01-.538.538.532.532 0 01-.539-.538c0-.303.236-.539.539-.539zm7.538 0c.303 0 .539.236.539.539a.532.532 0 01-.539.538.532.532 0 01-.538-.538c0-.303.236-.539.538-.539z" fill="currentColor"/></svg>