<svg viewBox="0 0 32 32" xmlns="http://www.w3.org/2000/svg"><circle cx="16" cy="16" fill="#c6f2d5" r="16"/><path d="M19 10c.6 0 1-.5 1-1V8c0-.6-.4-1-1-1s-1 .4-1 1v1c0 .5.4 1 1 1zm3-2h-1v1c0 1.1-.9 2-2 2s-2-.9-2-2V8h-3v1c0 1.1-.9 2-2 2s-2-.9-2-2V8H9c-.6 0-1 .5-1 1v12c0 .6.4 1 1 1h13c.6 0 1-.4 1-1V9c0-.6-.5-1-1-1zm-9 12h-3v-3h3zm0-4h-3v-3h3zm4 4h-3v-3h3zm0-4h-3v-3h3zm4 4h-3v-3h3zm0-4h-3v-3h3zm-9-6c.6 0 1-.5 1-1V8c0-.6-.4-1-1-1s-1 .4-1 1v1c0 .5.4 1 1 1z" fill="#32ba66"/><circle cx="20.5" cy="21.5" fill="#c6f2d5" r="5"/><path d="M21.3 21.9v-2.6c0-.2-.2-.5-.4-.5s-.4.2-.4.5V22c0 .1 0 .2.1.3l1.2 1.4c.1.1.2.2.3.2.2 0 .4-.2.4-.5 0-.1 0-.2-.1-.3zm-.8-5.9c-3 0-5.5 2.5-5.5 5.5s2.5 5.5 5.5 5.5 5.5-2.5 5.5-5.5-2.5-5.5-5.5-5.5zm0 9.6c-2.3 0-4.1-1.8-4.1-4.1s1.8-4.1 4.1-4.1 4.1 1.8 4.1 4.1-1.8 4.1-4.1 4.1z" fill="#27915e"/></svg>