<?xml version="1.0" encoding="utf-8"?>
<!-- Generator: Adobe Illustrator 20.1.0, SVG Export Plug-In . SVG Version: 6.00 Build 0)  -->
<svg version="1.1" id="Layer_1" xmlns="http://www.w3.org/2000/svg" xmlns:xlink="http://www.w3.org/1999/xlink" x="0px" y="0px"
	 viewBox="0 0 32 32" style="enable-background:new 0 0 32 32;" xml:space="preserve">
<style type="text/css">
	.st0{fill:#C6F2D5;}
	.st1{fill:#32BA66;}
	.st2{fill:#27915E;}
</style>
<title>HDL/Icon/Standard/Trigger/triggerschedule</title>
<desc>Created with Sketch.</desc>
<g id="Colors">
	<g id="Trigger-Icons" transform="translate(-100.000000, -335.000000)">
		<g id="HDL_x2F_Icon_x2F_Standard_x2F_Trigger_x2F_triggerschedule" transform="translate(100.000000, 335.000000)">
			<g id="TriggerSchedule">
				<circle id="Oval" class="st0" cx="16" cy="16" r="16"/>
				<g id="calendar-_x28_1_x29_" transform="translate(8.000000, 7.000000)">
					<path id="Shape" class="st1" d="M11,3c0.6,0,1-0.5,1-1V1c0-0.6-0.4-1-1-1s-1,0.4-1,1v1C10,2.5,10.4,3,11,3z M14,1h-1v1
						c0,1.1-0.9,2-2,2S9,3.1,9,2V1H6v1c0,1.1-0.9,2-2,2S2,3.1,2,2V1H1C0.4,1,0,1.5,0,2v12c0,0.6,0.4,1,1,1h13c0.6,0,1-0.4,1-1V2
						C15,1.4,14.5,1,14,1z M5,13H2v-3h3V13z M5,9H2V6h3V9z M9,13H6v-3h3V13z M9,9H6V6h3V9z M13,13h-3v-3h3V13z M13,9h-3V6h3V9z M4,3
						c0.6,0,1-0.5,1-1V1c0-0.6-0.4-1-1-1S3,0.4,3,1v1C3,2.5,3.4,3,4,3z"/>
				</g>
				<circle id="Oval_1_" class="st0" cx="20.5" cy="21.5" r="5"/>
				<g id="time" transform="translate(15.000000, 16.000000)">
					<path id="Shape_1_" class="st2" d="M6.3,5.9V3.3c0-0.2-0.2-0.5-0.4-0.5c-0.2,0-0.4,0.2-0.4,0.5v2.7c0,0.1,0,0.2,0.1,0.3
						l1.2,1.4C6.9,7.8,7,7.9,7.1,7.9c0.2,0,0.4-0.2,0.4-0.5c0-0.1,0-0.2-0.1-0.3L6.3,5.9z M5.5,0C2.5,0,0,2.5,0,5.5S2.5,11,5.5,11
						S11,8.5,11,5.5S8.5,0,5.5,0z M5.5,9.6c-2.3,0-4.1-1.8-4.1-4.1s1.8-4.1,4.1-4.1s4.1,1.8,4.1,4.1S7.8,9.6,5.5,9.6z"/>
				</g>
			</g>
		</g>
	</g>
</g>
</svg>
