<?xml version="1.0" encoding="utf-8"?>
<!-- Generator: Adobe Illustrator 20.1.0, SVG Export Plug-In . SVG Version: 6.00 Build 0)  -->
<svg version="1.1" id="Layer_1" xmlns="http://www.w3.org/2000/svg" xmlns:xlink="http://www.w3.org/1999/xlink" x="0px" y="0px"
	 viewBox="0 0 32 32" style="enable-background:new 0 0 32 32;" xml:space="preserve">
<style type="text/css">
	.st0{fill:#FCDEDE;}
	.st1{fill:#FFFFFF;}
	.st2{fill:#F24F29;}
</style>
<title>HDL/Icon/Standard/Trigger/triggergithub</title>
<desc>Created with Sketch.</desc>
<g id="Colors">
	<g id="Trigger-Icons" transform="translate(-100.000000, -243.000000)">
		<g id="HDL_x2F_Icon_x2F_Standard_x2F_Trigger_x2F_triggergithub" transform="translate(100.000000, 243.000000)">
			<g id="TriggerGithub">
				<g id="Group-Copy">
					<circle id="Oval" class="st0" cx="16" cy="16" r="16"/>
					
						<rect id="Rectangle" x="9.8" y="10" transform="matrix(0.7071 -0.7071 0.7071 0.7071 -6.6677 15.8266)" class="st1" width="12" height="12"/>
				</g>
				<g id="git" transform="translate(7.000000, 7.000000)">
					<path id="Path" class="st2" d="M0,9.3c0-0.1,0-0.4,0-0.5c0-0.4,0.3-0.6,0.5-0.9c1.5-1.5,3.2-3.2,4.8-4.8C5.4,3,5.4,3,5.5,2.8
						c0.1-0.1,0.3-0.1,0.4,0C6.6,3.5,7.2,4,7.7,4.6C7.8,4.8,7.8,4.9,7.8,5c-0.1,0.6,0,1,0.6,1.4c0.1,0.1,0.3,0.3,0.3,0.5
						c0,0.8,0,1.7,0,2.4c0,0.6,0,1.2,0,1.8c0,0.3-0.1,0.5-0.4,0.6c-0.6,0.4-0.6,1.3-0.3,1.8c0.5,0.5,1.3,0.6,1.8,0.1
						c0.5-0.5,0.5-1.4-0.1-1.8c-0.3-0.3-0.3-0.5-0.3-0.8c0-1.3,0-2.7,0-4c0-0.1,0-0.4,0.1-0.5C9.9,6.6,9.9,6.8,10,6.9
						c0.4,0.4,0.9,0.9,1.3,1.3c0.3,0.3,0.4,0.4,0.3,0.6c-0.1,0.9,0.6,1.7,1.7,1.4c0.5-0.1,0.9-0.8,0.8-1.3c-0.1-0.6-0.5-1-1-1.2
						h-0.1c-0.5,0.1-0.8-0.1-1-0.4c-0.4-0.5-0.9-0.9-1.4-1.4c-0.1-0.1-0.1-0.3-0.1-0.5C10.4,4.6,9.8,4,8.9,4.1c-0.3,0-0.4,0-0.5-0.1
						C7.8,3.3,7.2,2.8,6.7,2.3c-0.3-0.3-0.3-0.4,0-0.6c0.5-0.5,0.9-0.9,1.4-1.4C8.2,0,8.5,0,8.7,0C8.9,0,9,0,9.3,0
						c0.4,0,0.6,0.3,0.9,0.5C12.6,3,15,5.4,17.5,7.8C17.7,8.1,18,8.4,18,8.7c0,0.1,0,0.4,0,0.5c0,0.4-0.3,0.6-0.5,0.9
						c-2.4,2.4-4.9,4.9-7.3,7.3C9.9,17.7,9.6,18,9.3,18c-0.1,0-0.4,0-0.5,0c-0.4,0-0.6-0.3-0.9-0.5C5.4,15,3,12.6,0.4,10
						C0.3,9.9,0,9.6,0,9.3z"/>
				</g>
			</g>
		</g>
	</g>
</g>
</svg>
