<svg width="11" height="11" fill="none" xmlns="http://www.w3.org/2000/svg"><path d="M6.588 7.467v.878H3.953v-.878H.44v2.196c0 .242.197.44.44.44h8.784a.44.44 0 0 0 .44-.44V7.467H6.587z" fill="#fff"/><path fill-rule="evenodd" clip-rule="evenodd" d="M7.467 1.757h2.635a.44.44 0 0 1 .44.44v4.391a.44.44 0 0 1-.44.44H6.588V5.71H3.953v1.318H.44A.44.44 0 0 1 0 6.588V2.196a.44.44 0 0 1 .44-.44h2.635V.44A.44.44 0 0 1 3.514 0h3.514a.44.44 0 0 1 .439.44v1.317zm-3.514 0h2.635V.878H3.953v.879z" fill="#fff"/></svg>