<svg fill="none" xmlns="http://www.w3.org/2000/svg" viewBox="0 0 34 34"><g clip-path="url(#clip0)" fill="#7D4DD3"><path d="M16.974 10.861a6.12 6.12 0 00-6.113 6.113 6.12 6.12 0 006.113 6.112 6.12 6.12 0 006.112-6.112 6.12 6.12 0 00-6.112-6.113zm0 10.08a3.972 3.972 0 01-3.968-3.967 3.972 3.972 0 013.968-3.968 3.972 3.972 0 013.968 3.968 3.972 3.972 0 01-3.968 3.968z"/><path d="M33.14 14.101c-.705-1.083-2.695-3.863-5.934-6.284-3.283-2.455-6.706-3.7-10.176-3.7-3.465 0-6.892 1.242-10.186 3.69C3.591 10.225 1.586 13 .874 14.082a5.305 5.305 0 000 5.835c.712 1.082 2.717 3.858 5.97 6.276 3.294 2.448 6.721 3.69 10.186 3.69 5.334 0 9.623-2.975 12.282-5.47a1.328 1.328 0 00-1.817-1.937c-2.31 2.167-6 4.75-10.465 4.75-6.449 0-11.794-5.511-13.937-8.768a2.65 2.65 0 010-2.916c2.143-3.256 7.488-8.768 13.937-8.768 6.448 0 11.761 5.517 13.884 8.777.573.88.573 2.018 0 2.899a1.328 1.328 0 002.226 1.449 5.315 5.315 0 000-5.798z"/></g><defs><clipPath id="clip0"><path fill="#fff" d="M0 0h34v34H0z"/></clipPath></defs></svg>