<svg viewBox="0 0 13 13" xmlns="http://www.w3.org/2000/svg"><path d="M12.289.78a.7.7 0 00-.697.697v.984l-.547-.547A6.392 6.392 0 006.478 0a6.467 6.467 0 00-4.58 1.9A6.503 6.503 0 00.011 6.877c.028.37.329.656.684.656h.041a.69.69 0 00.643-.738 5.126 5.126 0 011.49-3.91 5.083 5.083 0 017.205 0l.547.547h-.984c-.383 0-.684.3-.684.683a.7.7 0 00.697.698h2.653A.7.7 0 0013 4.115V1.463a.71.71 0 00-.711-.684z"/><path d="M8.762 6.412l-1.627-.451V3.568a.7.7 0 00-.698-.697.7.7 0 00-.697.697v2.913a.69.69 0 00.506.67l2.133.601c.068.014.123.027.191.027.301 0 .574-.205.67-.505a.685.685 0 00-.478-.862zM4.851 11.377a4.858 4.858 0 01-.943-.424.61.61 0 00-.848.232.61.61 0 00.233.848c.369.219.765.396 1.176.52a.497.497 0 00.19.027c.26 0 .507-.164.589-.424a.63.63 0 00-.397-.78zM1.857 8.79a.617.617 0 00-.834-.274.617.617 0 00-.273.834c.191.383.424.752.683 1.08.123.15.301.232.492.232a.573.573 0 00.383-.136.628.628 0 00.11-.875 4.666 4.666 0 01-.56-.862zM10.348 9.899a5.968 5.968 0 01-.766.71.621.621 0 00.37 1.121.6.6 0 00.368-.122c.233-.178.451-.37.67-.588.096-.096.192-.192.274-.287a.612.612 0 00-.055-.875.584.584 0 00-.861.04zM7.818 11.456c-.328.096-.683.15-1.025.165a.634.634 0 00-.588.656c.014.328.3.588.615.588h.041a6.667 6.667 0 001.272-.205.627.627 0 00.437-.766.624.624 0 00-.752-.438z"/></svg>