<svg viewBox="0 0 19 18" xmlns="http://www.w3.org/2000/svg"><path d="M16.451 10.611V7.446a3.693 3.693 0 001.15-2.674c0-2.048-1.677-3.715-3.738-3.715a3.74 3.74 0 00-2.638 1.085H7.93A3.737 3.737 0 005.239 1C3.177 1 1.5 2.667 1.5 4.715c0 1.049.443 1.997 1.149 2.673v3.225A3.69 3.69 0 001.5 13.285C1.5 15.334 3.177 17 5.24 17a3.74 3.74 0 002.69-1.142h3.244A3.737 3.737 0 0013.863 17c2.061 0 3.738-1.666 3.738-3.715 0-1.05-.443-1.997-1.15-2.674zm-2.607-8.544a2.678 2.678 0 012.684 2.666A2.678 2.678 0 0113.844 7.4a2.678 2.678 0 01-2.683-2.667 2.678 2.678 0 012.683-2.666zm-8.587 0a2.678 2.678 0 012.684 2.666c0 1.47-1.204 2.667-2.684 2.667S2.574 6.204 2.574 4.733a2.678 2.678 0 012.683-2.666zm0 13.867a2.678 2.678 0 01-2.683-2.667c0-1.47 1.204-2.667 2.683-2.667s2.684 1.197 2.684 2.667a2.678 2.678 0 01-2.684 2.667zm3.409-1.067c.19-.452.296-.947.296-1.468 0-2.102-1.721-3.813-3.837-3.813-.524 0-1.023.106-1.478.295v-1.76c.455.189.954.294 1.478.294 2.116 0 3.837-1.71 3.837-3.813a3.78 3.78 0 00-.296-1.468h1.798a3.766 3.766 0 00-.323 1.526c0 2.103 1.721 3.814 3.837 3.814.523 0 1.021-.106 1.476-.295V9.88a3.842 3.842 0 00-1.476-.294c-2.116 0-3.837 1.71-3.837 3.813 0 .52.106 1.016.296 1.468H8.666zm5.178 1.067a2.678 2.678 0 01-2.683-2.667 2.678 2.678 0 012.683-2.667 2.678 2.678 0 012.684 2.667 2.678 2.678 0 01-2.684 2.667z" fill="#22272D" fill-rule="nonzero" stroke="#22272D" stroke-width=".25"/></svg>