<?xml version="1.0" encoding="UTF-8"?>
<svg version="1.1" viewBox="0 0 14 16" xmlns="http://www.w3.org/2000/svg">
<title>路径</title>
<g fill="none" fill-rule="evenodd">
<g transform="translate(-1201 -202)" fill="#22272D" fill-rule="nonzero">
<g transform="translate(50 -1)">
<g transform="translate(1125 67)">
<g transform="translate(1 118)">
<path d="m37.378 24.154-9.1525-5.8252c-0.66216-0.42091-1.4627-0.43841-2.1416-0.046813-0.67884 0.39153-1.0841 1.1047-1.0841 1.9075v11.597c0 1.2139 0.94733 2.2068 2.1117 2.2134h0.0094733c0.36386 0 0.74303-0.11778 1.0972-0.34091 0.28489-0.17947 0.37494-0.56341 0.20112-0.85753-0.17382-0.29419-0.54573-0.38713-0.83053-0.20766-0.16565 0.10431-0.32742 0.15828-0.47073 0.15825-0.43931-0.0024688-0.90968-0.39103-0.90968-0.96556v-11.597c0-0.34441 0.17385-0.65025 0.46501-0.81822 0.29119-0.16797 0.63456-0.16047 0.91824 0.019875l9.1525 5.8252c0.27509 0.17488 0.4325 0.46647 0.43184 0.80003-6.658e-4 0.33353-0.15923 0.62447-0.43583 0.79875l-6.6173 4.1834c-0.28462 0.17994-0.37409 0.56403-0.19982 0.85788 0.17424 0.29388 0.54624 0.38625 0.83086 0.20631l6.6165-4.1829c0.6335-0.39903 1.0126-1.0947 1.0141-1.8609 0.0015087-0.76619-0.37488-1.4634-1.0065-1.8649z"/>
</g>
</g>
</g>
</g>
</g>
</svg>
