<?xml version="1.0" encoding="UTF-8"?>
<svg version="1.1" viewBox="0 0 18 18" xmlns="http://www.w3.org/2000/svg">
<title>shape</title>
<g fill="none" fill-rule="evenodd">
<g transform="translate(-1199 -461)" fill="#22272D" fill-rule="nonzero">
<g transform="translate(50 -1)">
<g transform="translate(1125 67)">
<g transform="translate(1 378)">
<path d="m39.237 18.248c-1.567-1.6788-4.3247-1.6225-7.2366-0.076804-2.9112-1.5457-5.6695-1.602-7.2366 0.076804-1.3024 1.3953-1.484 3.6712-0.68405 6.1872-0.48546 0.77158-0.38314 1.8053 0.24255 2.4507-1.0443 2.7381-0.99829 5.3238 0.44209 6.8669 1.567 1.6788 4.3259 1.6231 7.2396 0.075524 2.8527 1.5137 5.6385 1.6327 7.233-0.075524 1.5951-1.7089 1.4828-4.6946 0.068704-7.752 1.4141-3.0581 1.5264-6.0438-0.068704-7.7527zm-0.84476 14.6c-1.8 1.9284-6.2102 0.58819-9.7708-3.227-0.1509-0.16166-0.37084-0.2248-0.57698-0.16563-0.20613 0.059173-0.36714 0.23167-0.42238 0.4525s0.0037 0.45647 0.1546 0.61813c0.88924 0.95578 1.8746 1.803 2.9381 2.5262-2.189 0.95813-4.0906 0.8826-5.1056-0.20481-1.0413-1.1156-1.0556-3.1675-0.19894-5.4364 0.052573 0.0051202 0.10276 0.017281 0.15652 0.017281 0.98984 0 1.7923-0.85965 1.7923-1.9201 0-0.4205-0.12964-0.8058-0.34352-1.122 0.48709-0.71123 1.0239-1.3818 1.6059-2.0059 0.1509-0.16166 0.20983-0.39729 0.1546-0.61813-0.055234-0.22084-0.21624-0.39333-0.42238-0.4525-0.20613-0.059173-0.42608 0.0039638-0.57698 0.16563-0.63333 0.67983-1.2167 1.411-1.7451 2.187-0.15107-0.047217-0.30744-0.072194-0.46479-0.074244-0.15623 0.0023672-0.31149 0.026682-0.46181 0.072323-0.53589-1.9291-0.36921-3.5714 0.50422-4.5071 1.1644-1.2474 3.4961-1.1636 6.0883 0.28481 0.09576 0.050369 0.20265 0.071411 0.30887 0.060803 0.10315 0.0082333 0.20648-0.0132 0.29931-0.062083 2.5916-1.4471 4.9222-1.531 6.0865-0.28353 1.0455 1.1201 1.0556 3.1842 0.18759 5.4646-0.38262-0.64528-0.8041-1.2632-1.2618-1.8497 0.12187-0.23169 0.19715-0.49538 0.19715-0.7802 0-0.8837-0.66869-1.6001-1.4936-1.6001-0.82487 0-1.4936 0.71638-1.4936 1.6001 0 0.8837 0.66869 1.6001 1.4936 1.6001 0.11889 0 0.23299-0.018561 0.34352-0.046722 0.60243 0.76418 1.1363 1.5875 1.5945 2.459-0.58846 1.1335-1.3812 2.2817-2.3556 3.3672-0.059742-0.0076804-0.11829-0.019201-0.17982-0.019201-0.68721-8.691e-4 -1.2863 0.50074-1.4515 1.2154-0.16523 0.71463 0.14604 1.4578 0.75418 1.8007 0.60814 0.34287 1.3562 0.19692 1.8124-0.35362 0.45626-0.55054 0.50298-1.3636 0.11319-1.9699 0.71839-0.81946 1.3636-1.7091 1.9273-2.6574 0.86746 2.2798 0.8579 4.3445-0.18759 5.4646zm-6.2538-9.26c-1.3198 0-2.3897 1.1462-2.3897 2.5601s1.0699 2.5601 2.3897 2.5601c1.3198 0 2.3897-1.1462 2.3897-2.5601s-1.0699-2.5601-2.3897-2.5601zm0 3.8402c-0.42698-1.143e-4 -0.82148-0.24426-1.0349-0.64047s-0.21329-0.88429 2.987e-4 -1.2804c0.21358-0.39609 0.60819-0.64003 1.0352-0.63991 0.66006 1.768e-4 1.195 0.57357 1.1948 1.2807-1.65e-4 0.70713-0.53538 1.2802-1.1954 1.2801z"/>
</g>
</g>
</g>
</g>
</g>
</svg>
