<svg viewBox="0 0 14 16" xmlns="http://www.w3.org/2000/svg"><path d="M12.378 6.154L3.226.329A2.034 2.034 0 001.084.282 2.171 2.171 0 000 2.189v11.597C0 15 .947 15.993 2.112 16h.009c.364 0 .743-.118 1.097-.341a.636.636 0 00.201-.858.593.593 0 00-.83-.207.907.907 0 01-.471.158c-.44-.002-.91-.391-.91-.966V2.19c0-.344.174-.65.465-.818a.872.872 0 01.919.02l9.152 5.825a.926.926 0 01.432.8c0 .334-.16.625-.436.8l-6.617 4.183a.636.636 0 00-.2.857.593.593 0 00.83.207L12.37 9.88a2.186 2.186 0 001.014-1.861 2.186 2.186 0 00-1.006-1.865z" fill="#22272D" fill-rule="nonzero"/></svg>