<?xml version="1.0" encoding="UTF-8"?>
<svg version="1.1" viewBox="0 0 16 18" xmlns="http://www.w3.org/2000/svg">
<title>形状</title>
<g fill="none" fill-rule="evenodd">
<g transform="translate(-1200 -357)" fill="#22272D" fill-rule="nonzero">
<g transform="translate(50 -1)">
<g transform="translate(1125 67)">
<g transform="translate(1 274)">
<path d="m38.425 20.759-5.6018-3.5131c-0.5223-0.32758-1.1689-0.32758-1.6912 0l-5.5979 3.5131c-0.51751 0.32582-0.83507 0.92112-0.83442 1.5642v7.4564c0 0.65222 0.32593 1.254 0.8529 1.575l5.6001 3.4111c0.51264 0.3126 1.1411 0.3126 1.6537 0l5.6001-3.4111c0.52813-0.32239 0.85401-0.92379 0.85346-1.575v-7.4564c5.29e-4 -0.64324-0.31725-1.2386-0.83498-1.5642zm-0.28505 9.0206c0 0.21721-0.10864 0.41821-0.28449 0.52501l-5.6001 3.4111c-0.17077 0.10437-0.38028 0.10437-0.55105 0l-5.6001-3.4111c-0.17604-0.10746-0.28467-0.30793-0.28449-0.52501v-7.4564c0-0.21481 0.10584-0.41341 0.27833-0.52141l5.5979-3.5131c0.17396-0.10921 0.38941-0.10921 0.56338 0l5.6024 3.5137c0.17248 0.1074 0.27833 0.30601 0.27833 0.52081v7.4564zm-6.1602-7.3796c-1.8557 0-3.3601 1.6118-3.3601 3.6001s1.5044 3.6001 3.3601 3.6001c1.8557 0 3.3601-1.6118 3.3601-3.6001s-1.5044-3.6001-3.3601-3.6001zm0 6.0002c-1.2372 0-2.2401-1.0745-2.2401-2.4001s1.0029-2.4001 2.2401-2.4001 2.2401 1.0745 2.2401 2.4001-1.0029 2.4001-2.2401 2.4001z"/>
</g>
</g>
</g>
</g>
</g>
</svg>
