<?xml version="1.0" encoding="UTF-8"?>
<svg version="1.1" viewBox="0 0 19 18" xmlns="http://www.w3.org/2000/svg">
<title>Group 34</title>
<g fill="none" fill-rule="evenodd">
<g transform="translate(-1199 -148)" fill="#22272D" fill-rule="nonzero" stroke="#22272D" stroke-width=".25">
<g transform="translate(1200.5 149)">
<path d="m14.951 9.6113v-3.1655c0.70678-0.67664 1.1496-1.6242 1.1496-2.674 0-2.0482-1.677-3.7147-3.7381-3.7147-1.0283 0-1.9605 0.4149-2.6373 1.0847h-3.2964c-0.6809-0.70236-1.6338-1.1418-2.6903-1.1418-2.0611 0-3.7381 1.6665-3.7381 3.7147 0 1.0493 0.44224 1.9968 1.1484 2.6729v3.2249c-0.70678 0.67664-1.1484 1.6236-1.1484 2.6729 0 2.0482 1.677 3.7147 3.7381 3.7147 1.0559 0 2.0094-0.44005 2.6903-1.1418h3.2441c0.6809 0.70236 1.6338 1.1418 2.6903 1.1418 2.0611 0 3.7381-1.6665 3.7381-3.7147-5.751e-4 -1.0498-0.44339-1.9974-1.1502-2.674zm-2.6067-8.5446c1.4795 0 2.6834 1.1964 2.6834 2.6667 0 1.4702-1.204 2.6667-2.6834 2.6667-1.4795 0-2.6834-1.1964-2.6834-2.6667 0-1.4702 1.204-2.6667 2.6834-2.6667zm-8.587 0c1.4795 0 2.6834 1.1964 2.6834 2.6667 0 1.4702-1.204 2.6667-2.6834 2.6667s-2.6834-1.1964-2.6834-2.6667c0-1.4702 1.2034-2.6667 2.6834-2.6667zm0 13.867c-1.4795 0-2.6834-1.1964-2.6834-2.6667 0-1.4702 1.204-2.6667 2.6834-2.6667s2.6834 1.1964 2.6834 2.6667c0 1.4702-1.204 2.6667-2.6834 2.6667zm3.4086-1.0667c0.1901-0.45232 0.29636-0.94747 0.29636-1.4678 0-2.1026-1.7215-3.8133-3.8373-3.8133-0.52365 0-1.0225 0.1056-1.4777 0.29509v-1.7606c0.45517 0.18949 0.95402 0.29451 1.4777 0.29451 2.1158 0 3.8373-1.7107 3.8373-3.8133 0-0.51979-0.10626-1.0155-0.29636-1.4678h1.7976c-0.20663 0.46757-0.32293 0.98325-0.32293 1.5265 0 2.1026 1.7215 3.8133 3.8373 3.8133 0.52306 0 1.0213-0.1056 1.4765-0.29451v1.7013c-0.45517-0.18891-0.95343-0.29451-1.4765-0.29451-2.1158 0-3.8373 1.7107-3.8373 3.8133 0 0.52037 0.10626 1.0155 0.29636 1.4678h-1.7711zm5.1785 1.0667c-1.4795 0-2.6834-1.1964-2.6834-2.6667 0-1.4702 1.204-2.6667 2.6834-2.6667 1.4795 0 2.6834 1.1964 2.6834 2.6667 0 1.4702-1.204 2.6667-2.6834 2.6667z"/>
</g>
</g>
</g>
</svg>
