<svg viewBox="0 0 14 16" xmlns="http://www.w3.org/2000/svg"><path d="M1.614 12.444v-.94l1.786-1.9-.007-.008a4.93 4.93 0 01-.665-2.485c0-2.618 1.995-4.741 4.455-4.741s4.456 2.123 4.456 4.74c0 .913-.245 1.764-.665 2.486l-.008.008 1.787 1.9v.94H1.613zm5.57 2.37c-.616 0-1.115-.53-1.115-1.185h2.228c0 .655-.499 1.185-1.114 1.185zm6.52-3.975l-1.377-1.463a6.2 6.2 0 00.425-2.265c0-3.068-2.202-5.598-5.012-5.896V0H6.626v1.215c-2.81.298-5.012 2.828-5.012 5.896 0 .802.152 1.567.425 2.265L.663 10.839a.613.613 0 00-.163.42v2.37h4.455c0 1.308 1 2.37 2.228 2.37s2.228-1.062 2.228-2.37h4.455v-2.37a.613.613 0 00-.163-.42z" fill="#22272D" fill-rule="nonzero"/></svg>