<svg viewBox="0 0 18 16" xmlns="http://www.w3.org/2000/svg"><g fill-rule="nonzero" fill="none"><path d="M12.946 5.347a.49.49 0 00-.492-.486H4.581a.49.49 0 00-.492.486c0 .269.22.486.492.486h7.873a.49.49 0 00.492-.486zM4.581 8.264c-.272 0-.492.218-.492.486s.22.486.492.486H9.01c.271 0 .492-.218.492-.486s-.22-.486-.492-.486H4.58zm7.92 5.833H3.644a.55.55 0 01-.538-.56V2.018a.55.55 0 01.538-.56h9.748a.55.55 0 01.54.56v5.325c0 .269.22.486.491.486a.49.49 0 00.492-.486V2.02c0-.844-.679-1.533-1.523-1.533H3.643c-.844 0-1.523.69-1.523 1.533v11.517c0 .844.68 1.533 1.523 1.533h8.859a.49.49 0 00.492-.486.49.49 0 00-.492-.486z" fill="#22272D"/><path d="M15.676 10.418h-1.005V9.413a.524.524 0 10-1.048 0v1.004H12.28a.524.524 0 000 1.049h1.343v1.343a.524.524 0 101.048 0v-1.343h1.005a.524.524 0 000-1.048z" fill="#22272D"/></g></svg>