<?xml version="1.0" encoding="UTF-8"?>
<svg version="1.1" viewBox="0 0 14 16" xmlns="http://www.w3.org/2000/svg">
<title>形状</title>
<g fill="none" fill-rule="evenodd">
<g transform="translate(-1201 -254)" fill="#22272D" fill-rule="nonzero">
<g transform="translate(50 -1)">
<g transform="translate(1125 67)">
<g transform="translate(1 170)">
<path d="m26.614 30.444v-0.93985l1.7861-1.9004-0.0072401-0.0077037c-0.43538-0.74614-0.66574-1.6071-0.66497-2.4853 1e-7 -2.6182 1.9948-4.7407 4.4554-4.7407s4.4554 2.1225 4.4554 4.7407c0 0.91259-0.24449 1.763-0.66497 2.4853l-0.0072401 0.0077037 1.7861 1.9004v0.93985h-11.139zm5.5693 2.3704c-0.61516 0-1.1139-0.53063-1.1139-1.1852h2.2277c0 0.65456-0.49869 1.1852-1.1139 1.1852zm6.5199-3.9751-1.3762-1.4637c0.28135-0.71754 0.42598-1.4874 0.42549-2.2649 0-3.0679-2.2021-5.5976-5.0123-5.8957v-1.2154h-1.1139v1.2154c-2.8103 0.29807-5.0123 2.8279-5.0123 5.8957 0 0.80237 0.15204 1.5668 0.42549 2.2649l-1.3762 1.4637c-0.10454 0.11129-0.16318 0.26221-0.16318 0.41956v2.3704h4.4554c0 1.3073 0.99913 2.3704 2.2277 2.3704s2.2277-1.0631 2.2277-2.3704h4.4554v-2.3704c0-0.16356-0.062376-0.3117-0.16318-0.41956z"/>
</g>
</g>
</g>
</g>
</g>
</svg>
