<?xml version="1.0" encoding="UTF-8"?>
<svg version="1.1" viewBox="0 0 18 16" xmlns="http://www.w3.org/2000/svg">
<title>group</title>
<g fill="none" fill-rule="evenodd">
<g transform="translate(-1199 -306)" fill-rule="nonzero">
<g transform="translate(50 -1)">
<g transform="translate(1125 67)">
<g transform="translate(1 222)">
<g transform="translate(23.5 18)">
<g transform="translate(.14423)">
<rect width="15.747" height="15.556" fill="#fff" opacity="0"/>
<path d="m12.302 5.3472c0-0.26847-0.22031-0.48611-0.49208-0.48611h-7.8733c-0.27177 0-0.49208 0.21764-0.49208 0.48611 0 0.26847 0.22031 0.48611 0.49208 0.48611h7.8733c0.27177 0 0.49208-0.21764 0.49208-0.48611zm-8.3654 2.9167c-0.27177 0-0.49208 0.21764-0.49208 0.48611s0.22031 0.48611 0.49208 0.48611h4.4287c0.27177 0 0.49208-0.21764 0.49208-0.48611s-0.22031-0.48611-0.49208-0.48611h-4.4287zm7.921 5.8333h-8.8585c-0.29426 0-0.53883-0.24792-0.53883-0.56097v-11.517c0-0.31306 0.24456-0.56097 0.53883-0.56097h9.7481c0.29426 0 0.53883 0.24792 0.53883 0.56097v5.3249c0 0.26847 0.22031 0.48611 0.49208 0.48611 0.27177 0 0.49208-0.21764 0.49208-0.48611v-5.3249c0-0.84389-0.67907-1.5332-1.523-1.5332h-9.7481c-0.84392 0-1.523 0.68931-1.523 1.5332v11.517c0 0.84389 0.67907 1.5332 1.523 1.5332h8.8585c0.27177 0 0.49208-0.21764 0.49208-0.48611 0-0.26847-0.22031-0.48611-0.49208-0.48611z" fill="#22272D"/>
</g>
<path d="m15.176 10.418h-1.0052v-1.0054c0-0.28949-0.23465-0.52417-0.52411-0.52417s-0.52411 0.23468-0.52411 0.52417v1.0048h-1.3428c-0.28946 0-0.52411 0.23468-0.52411 0.52417 0 0.28949 0.23465 0.52417 0.52411 0.52417h1.3428v1.3429c0 0.28949 0.23465 0.52417 0.52411 0.52417s0.52411-0.23468 0.52411-0.52417v-1.3424h1.0052c0.28946 0 0.52411-0.23468 0.52411-0.52417 0-0.28949-0.23465-0.52417-0.52411-0.52417z" fill="#22272D"/>
</g>
</g>
</g>
</g>
</g>
</g>
</svg>
