<svg viewBox="0 0 18 18" xmlns="http://www.w3.org/2000/svg"><path d="M16.237 1.248C14.67-.431 11.912-.374 9 1.171 6.09-.375 3.33-.43 1.764 1.248.46 2.643.28 4.919 1.08 7.435c-.486.772-.383 1.806.242 2.45-1.044 2.739-.998 5.325.442 6.868 1.567 1.679 4.326 1.623 7.24.075 2.853 1.514 5.638 1.633 7.233-.075 1.595-1.71 1.483-4.695.069-7.752 1.414-3.058 1.526-6.044-.069-7.753zm-.845 14.6c-1.8 1.928-6.21.588-9.77-3.227a.57.57 0 00-.578-.166c-.206.06-.367.232-.422.453s.004.456.155.618c.889.956 1.874 1.803 2.938 2.526-2.19.958-4.09.883-5.106-.205-1.041-1.115-1.055-3.167-.199-5.436.053.005.103.017.157.017.99 0 1.792-.86 1.792-1.92 0-.42-.13-.806-.343-1.122A17.145 17.145 0 015.62 5.38a.672.672 0 00.155-.618.62.62 0 00-.422-.452.57.57 0 00-.577.165 18.403 18.403 0 00-1.745 2.187 1.628 1.628 0 00-.465-.074 1.676 1.676 0 00-.462.072c-.536-1.929-.37-3.571.504-4.507C3.774.906 6.105.99 8.698 2.438c.095.05.202.071.308.06a.548.548 0 00.3-.061C11.897.99 14.228.906 15.392 2.153c1.046 1.12 1.056 3.184.188 5.465a17.582 17.582 0 00-1.262-1.85 1.67 1.67 0 00.197-.78c0-.884-.669-1.6-1.493-1.6-.825 0-1.494.716-1.494 1.6 0 .884.669 1.6 1.494 1.6.118 0 .233-.019.343-.047a15.992 15.992 0 011.595 2.46 16.422 16.422 0 01-2.356 3.367c-.06-.008-.118-.02-.18-.02-.687 0-1.286.501-1.451 1.216-.166.714.146 1.458.754 1.8.608.343 1.356.197 1.812-.353a1.69 1.69 0 00.113-1.97 17.92 17.92 0 001.928-2.657c.867 2.28.858 4.344-.188 5.464zm-6.254-9.26c-1.32 0-2.39 1.146-2.39 2.56s1.07 2.56 2.39 2.56 2.39-1.146 2.39-2.56-1.07-2.56-2.39-2.56zm0 3.84c-.427 0-.821-.244-1.034-.64s-.214-.885 0-1.28c.213-.397.608-.64 1.035-.64.66 0 1.195.573 1.195 1.28 0 .707-.536 1.28-1.196 1.28z" fill="#22272D" fill-rule="nonzero"/></svg>