<svg xmlns="http://www.w3.org/2000/svg" viewBox="0 0 18 18"><path fill-rule="evenodd" clip-rule="evenodd" d="M17.362 11.805a.854.854 0 0 0-.287-.654L11.173 5.92a.854.854 0 0 0-1.42.638V9.16c-2.412-.136-4.335-.853-5.681-2.022-1.486-1.29-2.365-3.21-2.365-5.785a.853.853 0 0 0-1.707 0c0 5.114.966 8.433 2.895 10.454 1.762 1.845 4.173 2.45 6.859 2.547v2.293a.853.853 0 0 0 1.396.659l5.901-4.858a.853.853 0 0 0 .311-.643ZM2.65 8.149c.099.095.2.188.304.278 1.896 1.646 4.555 2.463 7.654 2.463h.854V8.455l3.734 3.31-3.734 3.074v-2.177h-.854c-2.888 0-5.025-.513-6.477-2.034-.585-.612-1.087-1.417-1.481-2.479Z" fill="currentColor"/></svg>