<?xml version="1.0" encoding="utf-8"?>
<!-- Generator: Adobe Illustrator 25.2.1, SVG Export Plug-In . SVG Version: 6.00 Build 0)  -->
<svg version="1.1" id="Layer_1" xmlns="http://www.w3.org/2000/svg" xmlns:xlink="http://www.w3.org/1999/xlink" x="0px" y="0px"
	 viewBox="0 0 101 103" style="enable-background:new 0 0 101 103;" xml:space="preserve">
<style type="text/css">
	.st0{fill:#FFFFFF;}
	.st1{fill:none;stroke:#000000;stroke-width:1.75;stroke-linecap:round;stroke-linejoin:round;}
</style>
<g>
	<path class="st0" d="M16,32.2L2.8,60.4v15.9L38,94.8l44.1-6.2l12.3-28.2v-15L62.7,26L16,32.2z"/>
	<path class="st1" d="M1,73.6C12.5,80,30,90.1,41.6,96.5"/>
	<path class="st1" d="M80.3,90.4c4.4-9.7,7.1-15.9,14.1-31.7"/>
	<path class="st1" d="M31,94.8c19.4-2.6,29.1-3.5,53.8-7.9"/>
	<path class="st1" d="M1.9,57.7c11.5,6.4,29,16.5,40.6,22.9"/>
	<path class="st1" d="M59.2,26c11.5,6.4,29,16.5,40.6,22.9"/>
	<path class="st1" d="M2.8,62.1c4.4-9.7,7.1-15.9,14.1-31.7 M81.2,74.5c4.4-9.7,7.1-15.9,14.1-31.7"/>
	<path class="st1" d="M12.5,33.9c19.4-2.6,29.1-3.5,53.8-7.9 M31.9,78.9c19.4-2.6,29.1-3.5,53.8-7.9"/>
	<path class="st1" d="M4.4,57.8c0,4,0.1,14.5,0.1,18.5 M37,77.2c0,4,0.1,14.5,0.1,18.5 M82,71c0,4,0.1,14.5,0.1,18.5 M93.6,43.6
		c0,4,0.1,14.5,0.1,18.5"/>
	<path class="st1" d="M42.4,77.5L38,93.7 M43.3,92.8l4.2-15.3 M48.6,91.9l4.2-15.3 M58.3,75.7l-4.2,15.3 M63.6,74.9l-4.2,15.3
		 M69.8,74l-4.4,16.2 M75.1,73.1l-4.4,16.2 M80.3,72.2l-4.4,16.2"/>
	<path class="st1" d="M86.5,75.3V63.9 M90,68.3L90.2,55"/>
	<path class="st1" d="M16.9,66.6l-3.4,13.1 M21.3,69.2l-3.5,13.5 M26.6,71.8l-3.7,14.1 M31,74.8l-3.7,13.8 M35.4,77.1L31.7,91
		 M12.5,63.9L8.7,78 M8.1,62.1l-3.5,13"/>
</g>
<g>
	<path class="st0" d="M70.1,30.7c0,13.8-12.5,31.1-22.3,31.1S30.2,50.6,30.2,36.8C30.2,22.9,41.3,8,51.1,8
		C64.5,8,70.1,16.9,70.1,30.7z"/>
	<path class="st1" d="M61.7,54.7c-3,4.1-8.3,6-10.5,5.8c-9.1-1.9-11-16.7-8.8-28.2c2.1-11.2,7.7-17.1,10.5-19
		c10.8-8.9,17.6,4.4,17.6,12.6C70.5,39.1,65.9,48.9,61.7,54.7z"/>
	<path class="st1" d="M38,58.6c-14.3-9.6-8.5-38.4,4.4-47.3c5.4-3.7,10.1-3.7,21.6,0"/>
	<path class="st1" d="M48,17.3l-9.2-2.8"/>
	<path class="st1" d="M45.2,22.5l-10-2.9 M43.6,27.3L33,24.2"/>
	<path class="st1" d="M41.3,38.5l-11.4-3.6 M42.3,32.4c-3.3-1-7.8-2.1-11.3-3.1L42.3,32.4z"/>
	<path class="st1" d="M41.6,44.5c-3.9-1.1-7.3-2-11.7-3.1L41.6,44.5z"/>
	<path class="st1" d="M33.6,53.7l11.2,2.4 M42.8,50.7c-5.2-1.4-7.4-1.8-12.3-3.3 M38.1,58.6L50.8,61"/>
	<path class="st1" d="M52.8,13.1l-9-2.8"/>
	<path class="st1" d="M64.7,29c2.2-5.3-3.2-8.4-7.7-6.6c-5.7,2.2-3,8,1.4,12.3c9.2,9.1-3.6,19.6-10,9.1"/>
	<path class="st1" d="M61,16.6c-2.4,13.3-5.1,24.9-7.4,35.7"/>
</g>
</svg>
