<svg viewBox="0 0 36 54" fill="currentColor" xmlns="http://www.w3.org/2000/svg"><path fill-rule="evenodd" clip-rule="evenodd" d="M28.681 9.24c.359-.072.753.106 1.144.505a.397.397 0 0 1 .034.488c-.103.146-.285.165-.406.04-.322-.327-.55-.375-.676-.35-.118.024-.22.125-.275.318-.113.394.013 1.094.655 1.494.834.52 1.292 1.555 1.074 2.377-.115.435-.411.75-.845.85-.419.095-.954-.01-1.6-.346-.146-.076-.213-.28-.15-.456.064-.176.234-.256.38-.18.59.308 1.002.36 1.262.301a.502.502 0 0 0 .404-.38c.104-.391-.111-1.127-.79-1.55-.872-.544-1.15-1.587-.934-2.337.109-.379.356-.7.724-.774Z" fill="#B0B1C4"/><path fill-rule="evenodd" clip-rule="evenodd" d="M29.012 8.586c.16-.003.29.15.293.342.024 1.948-.045 4.252-.163 6.38-.01.19-.148.335-.307.322-.159-.012-.279-.178-.268-.369.117-2.115.185-4.398.162-6.323-.003-.192.124-.349.283-.352ZM16.138 3.904c.453-.091.95.134 1.445.638a.501.501 0 0 1 .042.616c-.13.185-.36.207-.513.051-.406-.413-.693-.474-.853-.442-.149.03-.277.158-.347.401-.143.498.016 1.382.827 1.887 1.053.656 1.632 1.964 1.356 3.001-.145.55-.52.948-1.068 1.073-.528.12-1.204-.012-2.019-.437-.184-.096-.269-.354-.189-.575.08-.222.294-.324.478-.228.746.389 1.266.455 1.595.38a.632.632 0 0 0 .51-.479c.131-.495-.14-1.424-.998-1.958-1.1-.686-1.452-2.003-1.18-2.95.138-.48.45-.885.914-.978Z" fill="#B0B1C4"/><path fill-rule="evenodd" clip-rule="evenodd" d="M16.555 3.078c.201-.003.367.19.37.431.03 2.461-.057 5.37-.206 8.057-.013.241-.187.423-.387.407-.2-.016-.352-.224-.339-.465.148-2.671.234-5.555.204-7.986-.003-.241.158-.44.358-.444ZM23.146.547c.227-.045.477.068.725.32a.251.251 0 0 1 .021.31c-.065.092-.18.104-.257.025-.204-.207-.348-.238-.428-.221-.075.014-.139.079-.174.2-.072.25.008.694.415.947.528.33.819.986.68 1.506-.073.276-.26.476-.535.539-.265.06-.605-.007-1.014-.22-.092-.048-.134-.177-.094-.288.04-.112.147-.163.24-.115.374.195.635.229.8.191a.318.318 0 0 0 .256-.24c.065-.249-.071-.715-.501-.983a1.356 1.356 0 0 1-.592-1.48c.07-.24.226-.444.459-.49Z" fill="#B0B1C4"/><path fill-rule="evenodd" clip-rule="evenodd" d="M23.356.133c.1-.002.184.095.185.216a62.71 62.71 0 0 1-.103 4.042c-.007.12-.094.212-.194.204-.1-.008-.177-.112-.17-.233.074-1.34.117-2.787.102-4.007-.002-.12.079-.22.18-.222Z" fill="#B0B1C4"/><path fill-rule="evenodd" clip-rule="evenodd" d="M1.013 48.8v2.869l3.506 1.594 14.344-7.97c3.825.638 12.43-.268 12.43-2.55 0-.898.07-1.66.125-2.261.08-.893.13-1.436-.124-1.563-.425-1.7-3.506-5.738-14.025-2.55-1.169.212-4.463 2.231-2.869 5.1L1.013 48.8Zm15.618-8.606c1.594-1.275 6.248-3.124 12.113-.319-1.594 1.487-6.248 3.634-12.113.319Z" fill="#01C9CC"/><path d="M20.377 30.72c-.34 0-.662-.149-.88-.418l-3.31-4.046a1.076 1.076 0 0 1-.218-.95l1.182-5.05c.076-.335.303-.605.615-.753l4.787-2.251a1.12 1.12 0 0 1 .491-.112c.17 0 .34.037.492.112l4.787 2.241c.312.15.54.419.615.754l1.182 5.05c.076.335 0 .68-.217.95l-3.311 4.045c-.218.26-.54.419-.88.419l-5.335.01Z" fill="#326DE6"/><path d="M23.035 17.373c.132 0 .265.028.388.083l4.786 2.242a.907.907 0 0 1 .492.605l1.183 5.05c.066.27 0 .55-.18.763l-3.311 4.046a.907.907 0 0 1-.71.335h-5.306a.907.907 0 0 1-.71-.335l-3.31-4.046a.92.92 0 0 1-.18-.763l1.182-5.05a.891.891 0 0 1 .492-.605l4.787-2.25c.122-.047.264-.075.397-.075Zm0-.438c-.199 0-.398.047-.587.13l-4.786 2.252a1.322 1.322 0 0 0-.738.902l-1.183 5.05c-.094.4 0 .81.265 1.135l3.311 4.047c.256.316.643.492 1.05.492h5.307c.407 0 .795-.176 1.05-.492l3.31-4.047c.266-.316.36-.734.266-1.134l-1.183-5.051a1.32 1.32 0 0 0-.738-.902l-4.767-2.251a1.377 1.377 0 0 0-.577-.13Z" fill="#fff"/><path d="M27.83 24.953c-.009 0-.009 0 0 0h-.009c-.01 0-.019 0-.019-.01-.018 0-.037-.009-.056-.009-.067-.009-.123-.018-.18-.018-.028 0-.057 0-.095-.01h-.01a2.537 2.537 0 0 1-.51-.083.184.184 0 0 1-.104-.102c0-.01-.01-.01-.01-.019l-.122-.037a3.618 3.618 0 0 0-.067-1.312 3.798 3.798 0 0 0-.53-1.218l.095-.084v-.018c0-.047.01-.094.047-.14.114-.102.256-.186.426-.288.029-.019.057-.028.085-.047a1.48 1.48 0 0 0 .161-.093c.01-.01.028-.018.047-.037.01-.01.02-.01.02-.019.132-.111.16-.297.066-.418a.27.27 0 0 0-.218-.103.356.356 0 0 0-.208.075l-.02.018c-.018.01-.027.028-.046.038a1.343 1.343 0 0 0-.123.13c-.02.018-.038.046-.066.065a2.39 2.39 0 0 1-.379.335.154.154 0 0 1-.085.028c-.019 0-.038 0-.057-.01h-.019l-.113.075a4.573 4.573 0 0 0-.388-.354 3.814 3.814 0 0 0-1.977-.772l-.01-.12-.019-.02c-.028-.027-.066-.055-.075-.12-.01-.149.01-.316.028-.502v-.01c0-.028.01-.065.019-.093.01-.055.019-.111.028-.176v-.084a.302.302 0 0 0-.293-.307.306.306 0 0 0-.293.307v.074c0 .065.01.121.028.177.01.028.01.056.02.093v.01c.018.185.047.353.028.502-.01.065-.048.093-.076.12l-.019.02-.01.12c-.17.019-.34.037-.51.074a3.663 3.663 0 0 0-1.873 1.042l-.095-.065h-.019c-.019 0-.038.01-.056.01a.154.154 0 0 1-.086-.029 2.49 2.49 0 0 1-.378-.344c-.019-.018-.038-.046-.066-.065a1.519 1.519 0 0 0-.123-.13c-.01-.01-.029-.018-.048-.037-.009-.01-.018-.01-.018-.019a.334.334 0 0 0-.209-.074.27.27 0 0 0-.217.102c-.095.121-.066.307.066.419.01 0 .01.009.019.009.019.01.028.028.047.037.057.037.104.065.161.093.029.01.057.028.085.047.17.102.312.186.426.288.047.047.047.093.047.14v.018l.095.084c-.02.028-.038.046-.047.074a3.573 3.573 0 0 0-.53 2.456l-.123.037c0 .01-.01.01-.01.019a.218.218 0 0 1-.104.102 2.425 2.425 0 0 1-.51.084h-.01c-.028 0-.066 0-.095.009-.056 0-.113.01-.18.019-.018 0-.037.009-.056.009-.01 0-.019 0-.029.01-.17.036-.274.195-.245.343.028.13.15.214.302.214.029 0 .048 0 .076-.009.01 0 .019 0 .019-.01.019 0 .038-.009.057-.009a.922.922 0 0 0 .17-.065c.028-.009.057-.028.085-.037h.01c.18-.065.34-.12.491-.14h.02c.056 0 .094.028.122.047.01 0 .01.01.02.01l.132-.02A3.68 3.68 0 0 0 20.774 27c.132.102.265.186.407.27l-.057.12c0 .01.01.01.01.019a.192.192 0 0 1 .018.149 2.61 2.61 0 0 1-.246.437v.009c-.019.028-.037.046-.056.074-.038.047-.067.093-.105.15a.203.203 0 0 0-.028.046c0 .009-.01.018-.01.018-.075.159-.018.335.124.4a.255.255 0 0 0 .113.028.34.34 0 0 0 .284-.177c0-.009.01-.018.01-.018a.206.206 0 0 1 .028-.047c.028-.065.038-.111.057-.167l.028-.084c.066-.186.113-.335.198-.465.038-.056.086-.065.123-.084.01 0 .01 0 .02-.009l.066-.12a3.752 3.752 0 0 0 2.147.148c.167-.037.331-.083.492-.14l.057.103c.01 0 .01 0 .019.01a.17.17 0 0 1 .123.083c.075.13.132.288.198.465v.01l.029.083c.018.056.028.111.056.167.01.019.02.028.029.047 0 .01.01.018.01.018a.32.32 0 0 0 .283.177.279.279 0 0 0 .255-.195.332.332 0 0 0-.018-.233c0-.009-.01-.009-.01-.018-.01-.019-.019-.037-.028-.047-.029-.056-.067-.102-.104-.149-.02-.027-.038-.046-.057-.074v-.01c-.104-.157-.199-.297-.246-.436-.019-.066 0-.103.01-.15 0-.009.009-.009.009-.018l-.047-.111a3.64 3.64 0 0 0 1.248-1.2c.17-.26.303-.55.397-.838l.114.019c.01 0 .01-.01.019-.01.038-.018.066-.046.123-.046h.019a2.4 2.4 0 0 1 .492.14h.01c.027.01.056.028.084.037a.92.92 0 0 0 .17.065c.02 0 .038.01.057.01.01 0 .02 0 .029.009.028.009.047.009.075.009a.318.318 0 0 0 .303-.214c0-.112-.104-.26-.274-.307Zm-4.38-.456-.415.196-.416-.196-.105-.437.284-.353h.464l.284.353-.095.437Zm2.47-.967c.073.308.096.625.066.94l-1.447-.41a.252.252 0 0 1-.18-.297.22.22 0 0 1 .057-.103l1.145-1.014c.16.26.283.558.359.884Zm-.814-1.442-1.239.865a.255.255 0 0 1-.33-.055c-.03-.028-.039-.066-.048-.103l-.085-1.516a2.89 2.89 0 0 1 1.702.81Zm-2.743-.762c.104-.02.199-.038.303-.056l-.085 1.488a.257.257 0 0 1-.256.242.228.228 0 0 1-.113-.028l-1.258-.884a2.9 2.9 0 0 1 1.41-.762Zm-1.863 1.32 1.125.986a.245.245 0 0 1 .029.344.19.19 0 0 1-.114.075l-1.466.418a2.954 2.954 0 0 1 .425-1.823Zm-.256 2.521 1.504-.251a.255.255 0 0 1 .256.344l-.577 1.367a2.942 2.942 0 0 1-1.183-1.46Zm3.453 1.851a3.14 3.14 0 0 1-.662.074 3.26 3.26 0 0 1-.956-.148l.748-1.33c.075-.084.198-.121.302-.066a.4.4 0 0 1 .114.103l.728 1.293c-.085.027-.18.046-.274.074Zm1.845-1.293c-.237.372-.55.67-.909.902l-.595-1.404a.249.249 0 0 1 .132-.289.306.306 0 0 1 .132-.027l1.514.25a1.86 1.86 0 0 1-.274.568Z" fill="#fff"/><path fill-rule="evenodd" clip-rule="evenodd" d="M23.203 36.209h.015c1.885 0 4.097.327 5.488.95.35.158.662.34.905.549.243.208.435.46.513.756.165.628-.214 1.236-.961 1.8-2.07 1.563-4.898 1.97-7.322 1.887a17.074 17.074 0 0 1-3.253-.418 9.813 9.813 0 0 1-1.18-.348c-.323-.12-.595-.252-.78-.39l.192-.256-.192.255a2.136 2.136 0 0 1-.732-1.074 1.802 1.802 0 0 1 .278-1.593c.379-.532 1.072-1.008 2.185-1.376 1.115-.37 2.68-.64 4.844-.742Zm.022.637c-2.126.1-3.626.366-4.666.71-1.044.346-1.596.761-1.865 1.14-.261.368-.279.73-.187 1.045.096.327.312.6.504.743l-.19.252.19-.252c.112.084.318.19.62.304.298.112.67.223 1.103.324a16.43 16.43 0 0 0 3.129.402c2.362.08 5.015-.324 6.916-1.758.698-.527.789-.9.728-1.13-.035-.131-.13-.279-.312-.435a3.112 3.112 0 0 0-.75-.45c-1.275-.571-3.381-.894-5.22-.895Zm-4.139 5.599a.32.32 0 0 1 .32.32v2.529a.319.319 0 1 1-.638 0v-2.53c0-.176.142-.319.318-.319Zm-18.063 5.96a.32.32 0 0 1 .32.319v2.464a.319.319 0 0 1-.638 0v-2.464c0-.176.142-.319.318-.319ZM4.54 49.46a.319.319 0 0 1 .31.327c-.016.523-.03 1.317-.042 2.041l-.02 1.122a.319.319 0 1 1-.638-.013c.007-.3.014-.693.02-1.111.013-.728.027-1.532.043-2.058a.319.319 0 0 1 .328-.309Z" fill="#000"/><path fill-rule="evenodd" clip-rule="evenodd" d="M.582 48.655a.319.319 0 0 1 .421-.16c1.5.675 2.922 1.412 4.36 2.18a.319.319 0 1 1-.3.562c-1.435-.765-2.841-1.495-4.321-2.16a.319.319 0 0 1-.16-.422Zm-.494 2.704a.319.319 0 0 1 .426-.148c1.516.733 3.027 1.457 4.572 2.1a.319.319 0 1 1-.245.589c-1.563-.651-3.09-1.382-4.605-2.115a.319.319 0 0 1-.148-.426Z" fill="#000"/><path fill-rule="evenodd" clip-rule="evenodd" d="M19.322 42.62a.319.319 0 0 1-.13.431c-2.216 1.196-4.457 2.343-6.695 3.49l-.668.341c-2.46 1.26-4.913 2.525-7.33 3.857a.319.319 0 1 1-.308-.558c2.426-1.338 4.888-2.606 7.348-3.866l.667-.342c2.238-1.146 4.473-2.29 6.684-3.483a.319.319 0 0 1 .432.13Zm.045 2.651a.319.319 0 0 1-.13.432 904.422 904.422 0 0 1-5.936 3.163c-2.985 1.58-5.98 3.167-8.884 4.767a.319.319 0 1 1-.308-.558c2.906-1.602 5.912-3.194 8.902-4.778a903.116 903.116 0 0 0 5.924-3.155.319.319 0 0 1 .432.129Zm-3.645-4.035a.319.319 0 0 1-.13.432c-2.185 1.178-4.455 2.352-6.73 3.529-2.82 1.458-5.648 2.92-8.333 4.401a.319.319 0 0 1-.308-.558c2.68-1.477 5.532-2.953 8.366-4.419a448.486 448.486 0 0 0 6.703-3.514.319.319 0 0 1 .432.129Z" fill="#000"/><path fill-rule="evenodd" clip-rule="evenodd" d="M32.042 39.556a.319.319 0 0 1-.028.45c-3.495 3.079-8.463 3.894-13.065 3.072a.319.319 0 1 1 .112-.628c4.47.798 9.222-.007 12.531-2.922a.319.319 0 0 1 .45.028Z" fill="#000"/><path fill-rule="evenodd" clip-rule="evenodd" d="M32.205 42.215a.319.319 0 0 1-.029.45c-3.495 3.078-8.463 3.893-13.065 3.071a.319.319 0 1 1 .113-.628c4.47.799 9.222-.007 12.53-2.922a.319.319 0 0 1 .45.029Zm-14.641-5.633c-1.17.435-2.034.938-2.462 1.398-.66.709-.716 1.342-.55 1.866.176.555.617 1.039 1.035 1.37l-.396.5c-.464-.368-1.016-.95-1.247-1.677-.24-.76-.114-1.628.691-2.493.531-.57 1.507-1.116 2.707-1.562 1.21-.45 2.685-.812 4.249-.996 3.115-.364 6.656-.025 9.157 1.842l.005.004.004.003c.701.566 1.566 1.854.869 3.364l-.579-.267c.521-1.13-.1-2.122-.686-2.597-2.31-1.721-5.652-2.072-8.696-1.716-1.517.178-2.941.53-4.101.96Z" fill="#000"/><path fill-rule="evenodd" clip-rule="evenodd" d="M31.398 38.8a.32.32 0 0 1 .319.319v3.625a.319.319 0 0 1-.638 0v-3.625a.32.32 0 0 1 .319-.319Zm-17.334.405a.32.32 0 0 1 .319.319v1.944a.319.319 0 1 1-.638 0v-1.944a.32.32 0 0 1 .319-.319Z" fill="#000"/><path fill-rule="evenodd" clip-rule="evenodd" d="M13.887 41.064a.319.319 0 0 1 .38.245.65.65 0 0 0 .16.335.319.319 0 0 1-.451.45 1.29 1.29 0 0 1-.333-.65.319.319 0 0 1 .244-.38Zm9.136-2.156c-2.323.005-4.687.58-6.186 1.848a.319.319 0 1 1-.412-.487c1.66-1.405 4.2-1.994 6.597-1.998 2.392-.005 4.748.571 6.045 1.609a.319.319 0 1 1-.399.498c-1.133-.907-3.316-1.475-5.645-1.47Z" fill="#000"/><path fill-rule="evenodd" clip-rule="evenodd" d="M34.871 16.614c.172.04.28.21.24.382l-5.1 22.312a.319.319 0 1 1-.621-.142l5.1-22.312a.319.319 0 0 1 .381-.24Zm-24.203.406a.319.319 0 0 1 .385.234l5.57 22.864a.319.319 0 0 1-.62.151l-5.57-22.864a.319.319 0 0 1 .235-.385Zm10.426 19.349c.176 0 .319.142.319.318V38.6a.319.319 0 0 1-.638 0v-1.913c0-.176.143-.318.319-.318Zm1.912 0a.32.32 0 0 1 .32.318v1.594a.319.319 0 0 1-.638 0v-1.594c0-.176.142-.318.318-.318Zm1.913 0c.176 0 .319.142.319.318V38.6a.319.319 0 0 1-.638 0v-1.913c0-.176.143-.318.319-.318Zm-5.738.318a.32.32 0 0 1 .32.32v1.912a.319.319 0 0 1-.638 0v-1.913c0-.176.142-.319.318-.319Zm7.65 0a.32.32 0 0 1 .32.32v1.912a.319.319 0 0 1-.638 0v-1.913c0-.176.142-.319.318-.319Zm-9.243.638c.176 0 .318.143.318.319v2.23a.319.319 0 0 1-.637 0v-2.23a.32.32 0 0 1 .319-.32Zm11.156 0a.32.32 0 0 1 .319.319v2.23a.319.319 0 0 1-.638 0v-2.23a.32.32 0 0 1 .319-.32Zm.956 3.825a.32.32 0 0 1 .319.319v2.55a.319.319 0 0 1-.638 0v-2.55a.32.32 0 0 1 .32-.32Zm-1.912.956c.176 0 .318.143.318.319v2.231a.319.319 0 0 1-.637 0v-2.231a.32.32 0 0 1 .319-.319Zm-1.913.319a.32.32 0 0 1 .319.319v2.55a.319.319 0 0 1-.638 0v-2.55a.32.32 0 0 1 .32-.32Zm-1.912.319c.176 0 .318.142.318.318v2.55a.319.319 0 0 1-.637 0v-2.55c0-.176.143-.318.319-.318Zm-3.507.318a.32.32 0 0 1 .32.32v2.23a.319.319 0 0 1-.638 0v-2.23c0-.177.142-.32.318-.32Zm1.913 0a.32.32 0 0 1 .319.32v2.23a.319.319 0 0 1-.638 0v-2.23a.32.32 0 0 1 .319-.32Zm-4.463.32a.32.32 0 0 1 .32.318v2.231a.319.319 0 0 1-.638 0V43.7c0-.176.142-.319.318-.319Zm-1.593.637c.176 0 .318.142.318.318v2.55a.319.319 0 0 1-.637 0v-2.55c0-.176.143-.318.319-.318Zm-1.594.956a.32.32 0 0 1 .319.319v2.23a.319.319 0 0 1-.638 0v-2.23a.32.32 0 0 1 .319-.32Zm-1.594.637a.32.32 0 0 1 .319.32v2.55a.319.319 0 0 1-.638 0v-2.55a.32.32 0 0 1 .32-.32Zm-1.912.957c.176 0 .318.142.318.318v2.55a.319.319 0 0 1-.637 0v-2.55c0-.176.143-.318.319-.318ZM8.98 47.844a.32.32 0 0 1 .32.318v2.55a.319.319 0 0 1-.638 0v-2.55c0-.176.142-.318.318-.318Zm-2.23 1.275c.175 0 .318.142.318.318v2.232a.319.319 0 0 1-.638 0v-2.232c0-.176.143-.318.32-.318Zm-4.145.318a.32.32 0 0 1 .32.32v2.868a.319.319 0 0 1-.638 0v-2.869c0-.176.142-.319.318-.319Z" fill="#000"/></svg>