<svg xmlns="http://www.w3.org/2000/svg" width="40" height="40" fill="none" viewBox="0 0 24 25">
  <path fill="#fff" d="M17.751 6.852H6.578c0-.698 1.01-2.809 3.03-6.332l.839 5.574h3.413L14.698.52c2.035 3.57 3.053 5.68 3.053 6.332Z"/>
  <path fill="#fff" d="M12.147 24.52 4.55 19.204V6.796s2.809-1.035 7.607-1.035 7.587 1.035 7.587 1.035v12.408l-7.597 5.316Z"/>
  <path fill="#DBDBDB" d="m12.147 23.772-7.112-4.955V7.294s2.66-.961 7.112-.961v17.44Z"/>
  <path fill="#C6C6C6" d="M12.157 6.333h-.01v17.425l7.05-4.941V7.294s-2.588-.961-7.04-.961Z"/>
  <path fill="#3B3B63" d="m15.996 21.061-.6-5.204H12.1v7.928l.047.044a99.589 99.589 0 0 0 3.849-2.768Z"/>
  <path fill="#53537A" d="m8.301 21.102 3.846 2.727.002-8.13H8.82l-.52 5.402Z"/>
  <path fill="#BC9375" d="M13.793 19.561c0 .895-.85 1.338-1.629 1.338-.78 0-1.646-.443-1.646-1.338"/>
  <path fill="#fff" d="M12.156 20.024c-.626 0-.93-.45-.93-1.379h.298c0 1.087.427 1.087.632 1.087.205 0 .631 0 .631-1.087h.298c0 .928-.304 1.38-.93 1.38Z"/>
  <path fill="#C49A7E" d="M12.147 18.872c.193.497.565.746 1.117.746.54 0 1.104-.28 1.36-.97.359-.966.355-2.31.355-2.31s1.593-1.96 1.593-2.623h-4.425v5.157Z"/>
  <path fill="#D8B7A0" d="M7.658 13.715c0 .767 1.58 2.623 1.58 2.623s-.004 1.344.355 2.31c.256.69.82.97 1.36.97.552 0 .95-.249 1.194-.746v-5.157H7.658Z"/>
  <path fill="#3B3B63" d="M16.382 9.301c-1.228-1.237-1.535-3.818-1.535-3.818-.23.814-.728 3.21-.728 3.21s-.968-.307-2.01-.308c-.035 0-.035 3.23 0 9.69l.992-.705.185-3.422 1.057 1.185 1.361.391s.51-.357.51-.355c.216-.298.288-.552.34-.683.19-.48-.235-4.14-.235-4.14-.151-.31.063-1.045.063-1.045Z"/>
  <path fill="#53537A" d="M10.202 8.694s-.499-2.397-.728-3.21c0 0-.307 2.58-1.536 3.817 0 0 .215.734.064 1.044 0 0-.425 3.662-.235 4.14.052.132.124.385.34.683l.51.356 1.361-.391 1.057-1.185.185 3.421.928.687v-9.69c-1.046.002-1.946.328-1.946.328Z"/>
  <path fill="#333152" d="M15.523 3.092c.204.373 1.955 3.823 1.955 5.018l-.777 2.08c.132 1.173.393 3.723.196 4.22-.122.309-.586.943-.984 1.456l.543 4.871-.734.52-.408-3.56c-.056.362-.14.747-.27 1.094a1.85 1.85 0 0 1-.854 1.011c-.023 1.1-1.054 1.692-2.026 1.692-.98 0-2.02-.592-2.042-1.69a1.85 1.85 0 0 1-.857-1.013 5.68 5.68 0 0 1-.263-1.051l-.39 3.582-.739-.528.533-4.913c-.4-.516-.873-1.159-.996-1.47-.198-.499.054-3.048.185-4.222l-.823-2.152v-.07c0-1.195 1.798-4.502 2.002-4.875l.582-1.048c.354 2.427.532 3.642.531 3.644l.287 1.968.377.609c.363-.12.978-.287 1.6-.287.624 0 1.244.167 1.608.287l.377-.61.817-5.611.57 1.048Zm-3.359 17.621c.43 0 1.043-.191 1.196-.698l-.049.002c-.084 0-.162-.008-.238-.018-.222.303-.567.395-.917.395-.35 0-.695-.092-.916-.395a1.84 1.84 0 0 1-.24.018l-.048-.002c.155.507.776.698 1.212.698Zm-.503-.833a.815.815 0 0 0 .495.153.81.81 0 0 0 .493-.153 1.6 1.6 0 0 1-.287-.162c-.076.023-.15.022-.206.022-.057 0-.132 0-.209-.022-.084.06-.18.116-.286.162Zm3.056-3.779c.528-.644 1.324-1.682 1.439-1.973.087-.3-.062-2.282-.25-3.945l-.01-.092.155-.413c-.514-.538-.872-1.276-1.117-1.972l-.032.219-.812 1.31-.317-.133c-.008-.003-.835-.343-1.62-.343-.791 0-1.605.34-1.613.343l-.318.134-.812-1.311-.024-.168c-.248.69-.607 1.414-1.119 1.941l.15.393-.011.093c-.189 1.662-.337 3.645-.247 3.952.112.283.907 1.321 1.436 1.965l.088.108v.138c0 .013 0 1.288.33 2.176.24.643.77.712.988.712.546 0 .777-.492.787-.513.128-.248.192-.654.192-1.22h.33c0 .454.069.862.207 1.222.008.018.245.512.794.512.217 0 .748-.07.987-.713.33-.89.33-2.163.33-2.176v-.138l.089-.108Z"/>
  <path fill="#333152" d="M14.627 12.636h-1.591v.016c0 .546.48.988 1.043.988.564 0 1.045-.442 1.045-.988v-.016h-.498Z"/>
  <path fill="#fff" d="M13.433 12.636v.016c0 .325.266.588.597.588.33 0 .597-.263.597-.588v-.016h-1.194Z"/>
  <path fill="#333152" d="m13.934 12.636-.007.002c.035.007.054.084.046.135a.159.159 0 0 1-.157.135.26.26 0 0 0 .221.2.263.263 0 0 0 .299-.219c.015-.104-.036-.253-.122-.253h-.28Zm-3.148 0h-1.59v.016c0 .546.48.988 1.043.988.564 0 1.045-.442 1.045-.988v-.016h-.498Z"/>
  <path fill="#fff" d="M9.593 12.636v.016c0 .325.267.588.597.588.33 0 .596-.263.596-.588v-.016H9.593Z"/>
  <path fill="#333152" d="M10.374 12.636h-.28l-.007.002c.034.007.054.084.046.135a.159.159 0 0 1-.157.135.261.261 0 0 0 .221.2.262.262 0 0 0 .299-.219c.015-.104-.036-.253-.122-.253Z"/>
  <path fill="#C49A7E" d="M14.507 12.17c.066-.072.633-.704-.125-.704-.685 0-1.178.543-1.31.704h1.435Z"/>
  <path fill="#D8B7A0" d="M11.235 12.17c-.13-.16-.623-.704-1.309-.704-.758 0-.191.632-.125.704h1.434ZM7.59 7.903c.044-.62.701-2.104 1.327-3.356l.167 1.145c-.063.427-.354 2.105-1.135 3.163l-.36-.952Z"/>
  <path fill="#C49A7E" d="m15.24 5.603.154-1.055c.626 1.251 1.283 2.736 1.329 3.356l-.352.929c-.843-1.165-1.108-3.057-1.13-3.23Z"/>
  <mask id="a" width="4" height="3" x="10" y="16" maskUnits="userSpaceOnUse" style="mask-type:alpha">
    <path fill="#fff" d="M11.57 18.197c-.293-.219-.595-.495-.595-.707 0-.14.25-.57.25-.57h1.867s.244.382.244.57c0 .197-.304.466-.608.685-.104-.175-.235-.205-.296-.067a.544.544 0 0 0-.022.282 6.842 6.842 0 0 1-.287.172s-.093-.053-.227-.14a.574.574 0 0 0-.017-.314c-.061-.14-.196-.107-.3.074a.446.446 0 0 0-.008.015Z"/>
  </mask>
  <g mask="url(#a)">
    <path fill="#333152" d="M11.57 18.197c-.293-.219-.595-.495-.595-.707 0-.14.25-.57.25-.57h1.867s.244.382.244.57c0 .197-.304.466-.608.685-.104-.175-.235-.205-.296-.067a.544.544 0 0 0-.022.282 6.842 6.842 0 0 1-.287.172s-.093-.053-.227-.14a.574.574 0 0 0-.017-.314c-.061-.14-.196-.107-.3.074a.446.446 0 0 0-.008.015Z"/>
  </g>
</svg>
