<svg fill="none" viewBox="0 0 41 41" xmlns="http://www.w3.org/2000/svg" xmlns:xlink="http://www.w3.org/1999/xlink"><clipPath id="a"><path d="m.661621.967606h40v40h-40z"/></clipPath><g clip-path="url(#a)"><path d="m12.8103 29.925h-5.56663c-3.71713-.9248-6.582049-3.8441-6.582049-7.7244 0-3.2094 2.067089-6.1469 4.877609-7.2529-.03627-.3446-.0544-.6709-.0544-1.0155 0-5.5122 4.47869-9.97276 9.99097-9.97276 3.0281 0 5.8748 1.37806 7.7787 3.73527 1.1243-.5621 2.3754-.87035 3.6446-.85222 4.3699 0 8.1415 3.88031 8.3047 8.19581l-14.9048-6.14685-7.4887 4.47865z" fill="#f3f3fa"/><path d="m40.6616 34.041-20.5439 3.9166.0906-14.4334 20.4533 3.7897zm-20.4714-23.2819 20.4714 7.7062v7.7063l-20.4351-4.3518" fill="#f3f3fa"/><path d="m20.2258 21.8198-5.5666 2.5929v-10.281l5.5303-3.3726m19.5467 14.524-18.5675-4.243v-9.2112l18.5675 6.854zm-10.2085-3.3001 1.8495.5077v-6.0199l-1.8495-.6528zm-1.8676-6.7452-1.8495-.6709v6.4188l1.8495.5259zm5.5848 7.7606 1.8313.4896.0363-5.7298-1.8676-.6165zm-11.1515-2.9556 1.8495.4715v-6.5639l-1.8495-.6165zm16.7181-1.0335-1.8495-.6528v5.6029l1.8495.5077zm-17.6428 6.0381v11.9129l18.5675-3.4089v-5.6391zm.9247 10.5167v-9.1749l1.8495.2357v8.631zm5.5667-.9247-1.8495.3445v-8.1052l1.8495.272c0-.0181 0 7.4887 0 7.4887zm1.8676-.272v-7.0354l1.8495.2358v6.4551zm5.5667-.9791-1.8495.3082v-5.9111l1.8495.2719zm3.7715-.5984-1.922.3264v-4.8595l1.7951.2176z" fill="#d9dee5"/><path d="m16.5458 21.6384-.9247.544v-7.3074l.9247-.5077zm1.8495-8.3227-.9247.6346v7.1079l.9247-.5077z" fill="#f3f3fa"/><path d="m14.6598 34.6575-.0363-8.4497 5.5848-2.7017.0363 14.4696" fill="#d9dee5"/><path d="m16.4186 34.6213-.8522-.4352v-7.126l.8522-.3808zm1.9946-8.8305-.9248.3989-.0362 8.9937.961.4895z" fill="#f3f3fa"/><path d="m38.794 19.6077-16.6818-5.6029.0181-.7253 16.6637 5.7298zm-.0544 8.8848-16.6093-2.0852v.7253l16.6274 1.9583zm-20.3445-14.2339v-.9066l-2.7018 1.4868-.0362.7616zm-2.8106 13.3454 2.8287-1.0335v-.7797l-2.8468 1.2693z" fill="#c4c5d0"/><path clip-rule="evenodd" d="m29.4688 25.2401 11.1925 2.0738v6.7272l-20.3967 3.8884zm.9123-1.2578 5.3301-7.3483 4.9501 1.8676v7.6699z" fill="#f3f3fa" fill-rule="evenodd" opacity=".3"/></g></svg>