<svg xmlns="http://www.w3.org/2000/svg" viewBox="0 0 24 25">
  <path fill="#307FE2" d="M7.768 3.258A7.047 7.047 0 0 1 11.95 2.07c4.207 0 7.218 2.578 7.218 6.326l.026 4.862h.004l-.036 7.939c0 .198-.177.232-.36.108-1.213-.827-1.799-1.445-2.417-2.683a.648.648 0 0 1-.067-.29l.007-5.23a.36.36 0 0 0-.486-.331c-.242.089-.442.148-.766.244l-4.336 1.152c-2.085.495-3.076 1.046-3.076 2.842 0 1.794 1.506 3.139 3.661 3.358l.495.025c.719.086.832.982.832 1.256.042.518-.212 1.376-1.036 1.259l-.201-.006c-3.805-.213-6.61-2.675-6.61-5.892 0-2.881 1.476-4.337 5.264-5.192l5.062-1.312c.594-.13 1.223-.435 1.223-.902v-.999c0-2.33-1.851-4.02-4.401-4.02a4.221 4.221 0 0 0-2.477.734 4.168 4.168 0 0 0-1.574 2.035c-.152.383-.571.963-1.708.617-1.037-.32-1.129-.953-1.091-1.303a6.958 6.958 0 0 1 2.668-3.409Z"/>
</svg>
