<svg xmlns="http://www.w3.org/2000/svg" viewBox="0 0 24 25">
  <path fill="#fff" d="M7.881 3.279a7.047 7.047 0 0 1 4.182-1.19c4.207 0 7.218 2.578 7.218 6.326l.026 4.862h.004l-.036 7.94c0 .198-.177.232-.36.107-1.213-.827-1.798-1.444-2.417-2.683a.649.649 0 0 1-.067-.29l.008-5.23a.36.36 0 0 0-.487-.33c-.242.088-.442.147-.766.243l-4.336 1.152c-2.085.495-3.076 1.046-3.076 2.842 0 1.795 1.506 3.14 3.661 3.358l.495.026c.719.086.832.981.832 1.256.042.518-.212 1.375-1.036 1.259l-.201-.006v-.001c-3.804-.213-6.61-2.675-6.61-5.892 0-2.88 1.477-4.336 5.264-5.192l5.062-1.311c.594-.13 1.223-.436 1.223-.903v-.998c0-2.33-1.851-4.02-4.4-4.02a4.221 4.221 0 0 0-2.478.733 4.168 4.168 0 0 0-1.574 2.035c-.152.384-.571.964-1.708.617-1.037-.318-1.129-.952-1.091-1.302A6.958 6.958 0 0 1 7.881 3.28Z"/>
</svg>
