<svg viewBox="0 0 28 32" xmlns="http://www.w3.org/2000/svg"><g fill-rule="nonzero" fill="none"><path fill="#4B612C" d="M4 26l-4-1.732V6.732L4 5z"/><path fill="#759C3E" d="M18 22.536L3 26V5l15 3.464z"/><path fill="#4B612C" d="M7 12.8l6.781-.8.219.2v6.6l-.219.2L7 18.2z"/><path fill="#3C4929" d="M28 11.25l-6.682.75L7 9.5 14.398 7z"/><path fill="#B7CA9D" d="M27 21.667L20.318 21 6 23.222 13.875 25z"/><path fill="#4B612C" d="M7 28.786L13.781 32 14 24.714 7 23z"/><path fill="#759C3E" d="M26 25.714L14 32v-7.633L26 21z"/><path fill="#4B612C" d="M7 3.214L14 0v7.286L7 9z"/><g fill="#759C3E"><path d="M27.25 18.667L13 20.3v-8.167L27.25 14zM27.25 11.667L13 8.167V.233l14.25 6.534z"/></g></g></svg>