<svg xmlns="http://www.w3.org/2000/svg" viewBox="0 0 24 25">
  <path fill="url(#a)" fill-rule="evenodd" d="M13.635 13.091c0 .07-.028 1.555-1.228 1.84v-4.48l1.228.532v2.108Zm-3.27-.006v-2.102l1.227-.532v4.481c-1.169-.273-1.227-1.671-1.228-1.848Zm3.84-2.744-2.043-.884a.408.408 0 0 0-.325 0l-2.042.884a.408.408 0 0 0-.245.374v2.37c0 .94.512 2.72 2.45 2.72 1.937 0 2.45-1.775 2.45-2.714v-2.376a.408.408 0 0 0-.246-.374Zm5.423 7.978a1.306 1.306 0 0 1 0-2.608 1.305 1.305 0 0 1 0 2.608Zm-7.59-1.711a4.064 4.064 0 0 1-4.06-4.06 4.065 4.065 0 0 1 4.06-4.061 4.065 4.065 0 0 1 4.061 4.06 4.065 4.065 0 0 1-4.06 4.06Zm1.266 4.936c0 .718-.585 1.304-1.304 1.304a1.306 1.306 0 0 1 0-2.609c.719 0 1.304.585 1.304 1.305Zm-2.608-18.09c0-.719.584-1.305 1.304-1.305a1.306 1.306 0 0 1 0 2.609c-.72 0-1.304-.585-1.304-1.304ZM4.319 17.826a1.306 1.306 0 0 1 0-2.61 1.306 1.306 0 0 1 0 2.609Zm.332-8.66a1.306 1.306 0 0 1 0-2.609c.719 0 1.305.585 1.305 1.304 0 .72-.586 1.304-1.305 1.304Zm15.03-2.817a1.305 1.305 0 1 1-.002 2.61 1.305 1.305 0 0 1 .001-2.61Zm-.053 8.547c-.585 0-1.116.24-1.5.625l-1.604-1.064a4.842 4.842 0 0 0-.266-4.344l1.835-1.071c.389.444.954.73 1.587.73 1.169 0 2.12-.951 2.12-2.12a2.121 2.121 0 0 0-2.12-2.118c-1.168 0-2.119.95-2.119 2.118 0 .242.05.469.124.686L15.793 9.44a4.864 4.864 0 0 0-3.386-1.75V5.53a2.121 2.121 0 0 0 1.712-2.077c0-1.168-.951-2.12-2.12-2.12a2.123 2.123 0 0 0-2.118 2.12 2.12 2.12 0 0 0 1.711 2.078v2.162a4.871 4.871 0 0 0-3.47 1.964L6.607 8.67A2.122 2.122 0 0 0 4.65 5.74a2.123 2.123 0 0 0-2.119 2.12c0 1.168.95 2.12 2.12 2.12a2.11 2.11 0 0 0 1.504-.631l1.537 1.001a4.833 4.833 0 0 0-.53 2.197c0 .602.115 1.176.315 1.709l-1.561.888a2.105 2.105 0 0 0-1.598-.743c-1.168 0-2.119.95-2.119 2.12 0 1.168.951 2.118 2.119 2.118 1.168 0 2.119-.95 2.119-2.119a2.11 2.11 0 0 0-.118-.667l1.51-.86a4.875 4.875 0 0 0 3.762 2.405v2.067a2.12 2.12 0 0 0-1.71 2.078c0 1.168.95 2.119 2.118 2.119s2.119-.951 2.119-2.12a2.12 2.12 0 0 0-1.712-2.077v-2.062a4.871 4.871 0 0 0 3.73-2.225l1.537 1.019a2.122 2.122 0 0 0 1.954 2.936c1.169 0 2.12-.95 2.12-2.119 0-1.168-.951-2.12-2.12-2.12Z" clip-rule="evenodd"/>
  <defs>
    <linearGradient id="a" x1="2.2" x2="21.8" y1="23.663" y2="23.663" gradientUnits="userSpaceOnUse">
      <stop stop-color="#F0582B"/>
      <stop offset="1" stop-color="#F7971E"/>
      <stop offset="1" stop-color="#F7981D"/>
    </linearGradient>
  </defs>
</svg>
