<svg xmlns="http://www.w3.org/2000/svg" xmlns:xlink="http://www.w3.org/1999/xlink" viewBox="0 0 74.375 85" fill="#fff" fill-rule="evenodd" stroke="#000" stroke-linecap="round" stroke-linejoin="round"><use xlink:href="#A" x="2.188" y="2.5"/><symbol id="A" overflow="visible"><g stroke="none"><path d="M9.754 68.01L0 63.376V16.527l9.754-4.605 13.442 28.81L9.754 68.01z" fill="#4b612c"/><path d="M41.973 20.127L9.754 11.922V68.01l32.219-8.517V20.127z" fill="#759c3e"/><path d="M56.857 55.307l7.499 2.39 4.728-15.444L64.356 26.8l-7.499 1.024v27.483z" fill="#4b612c"/><path d="M64.356 27.2l-7.498.898-4.409-.878 7.694-15.239L64.356 27.2z" fill="#3c4929"/><path d="M52.449 27.22l7.694-.976V11.942l-7.694 1.961V27.22z" fill="#4b612c"/><path d="M27.924 22.069L35 15.054l18.571 9.639-6.87 1.064-18.777-3.688z" fill="#3c4929"/><path d="M64.356 52.8l-7.498-.8-4.409.78 7.694 15.337L64.356 52.8z" fill="#b7ca9d"/><path d="M52.449 52.781l7.694.976v14.361l-7.694-2.019V52.781z" fill="#4b612c"/><path d="M53.571 24.693L35 20.41V0l18.571 8.849v15.844zM70 16.625l-9.857-4.683v14.303L70 28.479V16.625z" fill="#759c3e"/><path d="M27.924 57.932L35 71.307l18.571-16-6.87-1.063-18.777 3.688z" fill="#b7ca9d"/><path d="M53.571 55.307L35 59.59V80l18.571-8.771V55.307zM70 63.473l-9.857 4.644V53.756L70 51.522v11.951z" fill="#759c3e"/><path d="M16.326 71.132L35 80l8.59-39.854L35 0 16.326 8.82v62.312z" fill="#4b612c"/><path d="M45.465 75.044L35 80V.293l10.465 4.956v69.795zm18.891-8.947L70 63.473V16.624l-5.644-1.229v50.702z" fill="#759c3e"/></g></symbol></svg>