<svg viewBox="0 0 18 18" xmlns="http://www.w3.org/2000/svg" xmlns:xlink="http://www.w3.org/1999/xlink"><radialGradient id="a" cx="9" cy="9" gradientUnits="userSpaceOnUse" r="8.5"><stop offset=".18" stop-color="#5ea0ef"/><stop offset=".56" stop-color="#5c9fee"/><stop offset=".69" stop-color="#559ced"/><stop offset=".78" stop-color="#4a97e9"/><stop offset=".86" stop-color="#3990e4"/><stop offset=".93" stop-color="#2387de"/><stop offset=".99" stop-color="#087bd6"/><stop offset="1" stop-color="#0078d4"/></radialGradient><radialGradient id="b" cx="7.903" cy="7.9058" gradientUnits="userSpaceOnUse" r="9.2872"><stop offset=".27" stop-color="#ffd70f"/><stop offset=".49" stop-color="#ffcb12"/><stop offset=".88" stop-color="#feac19"/><stop offset="1" stop-color="#fea11b"/></radialGradient><path d="m9 .5a8.5 8.5 0 1 0 8.5 8.5 8.51 8.51 0 0 0 -8.5-8.5zm0 15.84a7.34 7.34 0 1 1 7.34-7.34 7.34 7.34 0 0 1 -7.34 7.34z" fill="url(#a)"/><circle cx="9" cy="9" fill="#fff" r="7.34"/><path d="m13.44 7.33a1.84 1.84 0 0 0 0-2.59l-3.15-3.16a1.83 1.83 0 0 0 -2.58 0l-3.15 3.16a1.84 1.84 0 0 0 0 2.59l2.62 2.67a.51.51 0 0 1 .15.36v4.88a.63.63 0 0 0 .18.44l1.2 1.2a.41.41 0 0 0 .58 0l1.16-1.16.68-.68a.25.25 0 0 0 0-.34l-.49-.49a.27.27 0 0 1 0-.37l.49-.49a.25.25 0 0 0 0-.34l-.49-.49a.27.27 0 0 1 0-.37l.49-.49a.25.25 0 0 0 0-.34l-.68-.69v-.25zm-4.44-4.98a1 1 0 0 1 0 2.07 1 1 0 1 1 0-2.07z" fill="url(#b)"/><g fill="#ff9300"><path d="m8.18 15.3a.23.23 0 0 0 .38-.17v-4a.24.24 0 0 0 -.11-.2.22.22 0 0 0 -.34.2v4a.28.28 0 0 0 .07.17z" opacity=".75"/><rect height=".61" opacity=".75" rx=".28" width="5.17" x="6.48" y="5.79"/><rect height=".61" opacity=".75" rx=".28" width="5.17" x="6.48" y="6.78"/></g></svg>