<svg xmlns="http://www.w3.org/2000/svg" fill="currenColor" viewBox="0 0 24 24"><g clip-path="url(#a)"><path fill="#624183" d="M23.515 13.456c-.274-1.886-.692-3.783-.99-5.048a3.468 3.468 0 0 0-3.174-2.673c-1.516-.095-4.022-.203-7.363-.203s-5.847.108-7.363.203a3.468 3.468 0 0 0-3.174 2.673c-.298 1.265-.716 3.162-.99 5.048-.191 1.277-.334 2.768-.454 4.463-.06.943.25 1.85.883 2.554a3.43 3.43 0 0 0 2.447 1.157c2.076.096 5.262.215 8.663.215 3.401 0 6.587-.12 8.663-.215a3.5 3.5 0 0 0 2.447-1.157 3.461 3.461 0 0 0 .883-2.554c-.131-1.695-.287-3.198-.478-4.463Zm-1.646 5.919c-.334.37-.788.584-1.29.608a189.46 189.46 0 0 1-8.59.215c-3.378 0-6.528-.12-8.593-.215a1.834 1.834 0 0 1-1.288-.608 1.801 1.801 0 0 1-.466-1.349c.108-1.646.25-3.102.442-4.331.262-1.826.668-3.676.966-4.905.191-.8.86-1.36 1.683-1.42 1.491-.095 3.962-.203 7.267-.203 3.293 0 5.776.107 7.267.203a1.84 1.84 0 0 1 1.683 1.42c.286 1.23.692 3.079.966 4.905.18 1.229.323 2.684.442 4.331 0 .501-.167.979-.49 1.349Zm-9.881-15.18c.56 0 1.026-.453 1.026-1.013a1.026 1.026 0 1 0-2.052 0c0 .548.465 1.014 1.026 1.014Zm5.966 7.84a1.65 1.65 0 0 0-1.646 1.648H19.6c0-.907-.728-1.647-1.646-1.647Zm-11.932 0a1.65 1.65 0 0 0-1.647 1.648h3.293c0-.907-.728-1.647-1.647-1.647Zm5.966 5.967a2.663 2.663 0 0 0 2.661-2.66H9.315a2.674 2.674 0 0 0 2.673 2.66Z"/></g><defs><clipPath id="a"><path fill="#fff" d="M0 0h24v24H0z"/></clipPath></defs></svg>