<svg xmlns="http://www.w3.org/2000/svg" xmlns:xlink="http://www.w3.org/1999/xlink"><radialGradient id="a" cx="50%" cy="50%" gradientTransform="matrix(0 -1 .91882 0 .04 1)" r="100%"><stop offset="0" stop-color="#28acff"/><stop offset="1" stop-color="#289fea"/></radialGradient><g fill="none" fill-rule="evenodd"><path d="m16.732 9.378 3.987 2.114v4.152l-3.987 2.115-3.986-2.115v-4.152zm4.764 7.754 3.987 2.114v4.152l-3.987 2.115-3.986-2.115v-4.152zm-10.017-.103 3.987 2.115v4.151l-3.987 2.115-3.987-2.115v-4.151zm15.377-7.651 3.987 2.114v4.152l-3.987 2.115-3.987-2.115v-4.152z" stroke="#4b4b4b" stroke-width="1.102"/><path d="m5.609 7.754 4.537 2.407v4.814l-4.536 2.407-4.54-2.407v-4.814z" fill="url(#a)" transform="translate(1 1)"/><path d="m22.092 1.624 3.987 2.114v4.152l-3.987 2.115-3.987-2.115v-4.152zm-10.124 0 3.987 2.114v4.152l-3.987 2.115-3.986-2.115v-4.152z" stroke="#4b4b4b" stroke-width="1.102"/></g></svg>