<svg xmlns="http://www.w3.org/2000/svg" viewBox="0 0 24 25">
  <mask id="a" width="16" height="23" x="4" y="1" maskUnits="userSpaceOnUse" style="mask-type:luminance">
    <path fill="#fff" d="M4.433 1.149h15.134v22.7H4.433V1.15Z"/>
  </mask>
  <g mask="url(#a)">
    <mask id="b" width="5" height="5" x="9" y="13" maskUnits="userSpaceOnUse" style="mask-type:luminance">
      <path fill="#fff" d="M9.847 13.296H13.8v4.314H9.847v-4.314Z" opacity=".48"/>
    </mask>
    <g mask="url(#b)" opacity=".48">
      <path fill="#231F20" d="m10.231 14.993 1.593 2.088 1.592-2.088-.793-1.376h-1.6l-.792 1.376Zm1.593 2.617-1.977-2.592.992-1.722h1.97l.991 1.722-1.976 2.592Z"/>
      <path fill="url(#c)" d="m10.341 14.986.736-1.278h1.494l.735 1.278-1.482 1.944-1.483-1.944Z"/>
      <mask id="d" width="3" height="3" x="10" y="14" maskUnits="userSpaceOnUse" style="mask-type:luminance">
        <path fill="#fff" d="M10.89 14.167h1.867v2.007H10.89v-2.007Z" opacity=".57"/>
      </mask>
      <g mask="url(#d)" opacity=".57">
        <mask id="e" width="3" height="3" x="10" y="14" maskUnits="userSpaceOnUse" style="mask-type:luminance">
          <path fill="#fff" d="m10.89 14.95.45-.783h.966l.452.783-.934 1.224-.934-1.224Z"/>
        </mask>
        <g mask="url(#e)">
          <path fill="url(#f)" d="m10.89 14.95.45-.783h.966l.452.783-.934 1.224-.934-1.224Z"/>
        </g>
      </g>
      <path fill="#231F20" d="m12.372 14.229-.193-.123.348-.55.193.122-.348.55Zm-1.13-.004-.317-.55.198-.116.317.551-.198.115Z"/>
      <path fill="#231F20" d="m11.027 14.942.797 1.044.796-1.044-.38-.66h-.833l-.38.66Zm.797 1.421-1.071-1.404.522-.906h1.098l.522.906-1.071 1.404Z"/>
      <path fill="#231F20" d="m13.409 15.107-.659-.042.015-.23.659.044-.015.229Zm-3.17 0-.015-.228.658-.043.015.229-.658.043Zm1.699 2.136h-.229v-1.068h.229v1.068Z"/>
    </g>
    <mask id="h" width="11" height="15" x="6" y="8" maskUnits="userSpaceOnUse" style="mask-type:luminance">
      <mask id="g" width="11" height="15" x="6" y="8" maskUnits="userSpaceOnUse" style="mask-type:luminance">
        <path fill="#fff" d="M6.836 8.495h9.957V22.71H6.836V8.495Z"/>
      </mask>
      <g mask="url(#g)">
        <path fill="#000" d="M6.836 8.495h9.957V22.71H6.836V8.495Z"/>
      </g>
    </mask>
    <g mask="url(#h)">
      <mask id="i" width="11" height="15" x="6" y="8" maskUnits="userSpaceOnUse" style="mask-type:luminance">
        <path fill="#fff" d="M6.836 8.495h9.957V22.71H6.836V8.495Z"/>
      </mask>
      <g mask="url(#i)">
        <path fill="#95969B" d="M16.278 11.283H15.04l.002-.034v-.964a.516.516 0 0 0-.515-.517h-.893V8.495h-3.64v1.273h-.892a.516.516 0 0 0-.515.517v.963l.002.035H7.35a.516.516 0 0 0-.515.516v.31c0 .285.23.517.515.517h.95a6.244 6.244 0 0 0-.59 2.684c0 1.266.358 2.426.952 3.328v.734H8.56c-.364 0-.66.232-.66.517v2.306c0 .285.296.516.66.516h6.509c.364 0 .66-.23.66-.516V19.89c0-.285-.296-.517-.66-.517h-.365v-.37c.75-.942 1.215-2.248 1.215-3.691 0-.983-.216-1.902-.59-2.685h.949a.516.516 0 0 0 .515-.517v-.31a.516.516 0 0 0-.515-.516Z"/>
      </g>
    </g>
    <mask id="j" width="11" height="15" x="6" y="8" maskUnits="userSpaceOnUse" style="mask-type:luminance">
      <path fill="#fff" d="M6.836 8.495h9.957V22.71H6.836V8.495Z"/>
    </mask>
    <g mask="url(#j)">
      <path fill="#6C6C71" d="M16.278 11.283H15.04l.002-.034v-.964a.516.516 0 0 0-.515-.517h-.893V8.495h-3.64v1.273h-.892a.516.516 0 0 0-.515.517v.963l.002.035H7.35a.516.516 0 0 0-.515.516v.31c0 .285.23.517.515.517h.95a6.244 6.244 0 0 0-.59 2.684c0 1.266.358 2.426.952 3.328v.734H8.56c-.364 0-.66.232-.66.517v2.306c0 .285.296.516.66.516h6.509c.364 0 .66-.23.66-.516V19.89c0-.285-.296-.517-.66-.517h-.365v-.37c.75-.942 1.215-2.248 1.215-3.691 0-.983-.216-1.902-.59-2.685h.949a.516.516 0 0 0 .515-.517v-.31a.516.516 0 0 0-.515-.516Z" opacity=".77"/>
    </g>
    <path fill="#C51F36" d="M9.27 13.039a4.35 4.35 0 0 0-.23 1.411c0 1.93 1.214 3.494 2.712 3.494 1.497 0 2.712-1.564 2.712-3.494 0-.502-.083-.98-.231-1.411H9.27Z"/>
  </g>
  <mask id="k" width="6" height="5" x="9" y="13" maskUnits="userSpaceOnUse" style="mask-type:luminance">
    <path fill="#fff" d="M9.27 13.039a4.35 4.35 0 0 0-.23 1.41c0 1.93 1.214 3.495 2.712 3.495 1.497 0 2.712-1.564 2.712-3.494 0-.502-.083-.98-.231-1.411H9.27Z"/>
  </mask>
  <g mask="url(#k)">
    <path fill="url(#l)" d="M9.27 13.039a4.35 4.35 0 0 0-.23 1.41c0 1.93 1.214 3.495 2.712 3.495 1.497 0 2.712-1.564 2.712-3.494 0-.502-.083-.98-.231-1.411H9.27Z"/>
  </g>
  <mask id="m" width="16" height="23" x="4" y="1" maskUnits="userSpaceOnUse" style="mask-type:luminance">
    <path fill="#fff" d="M4.433 1.149h15.134v22.7H4.433V1.15Z"/>
  </mask>
  <g mask="url(#m)">
    <path fill="#231F20" d="M9.297 22.06c0 .056-.054.1-.12.1-.067 0-.12-.044-.12-.1v-1.984c0-.056.053-.101.12-.101.066 0 .12.045.12.1v1.985Zm1.081 0c0 .056-.054.1-.12.1s-.12-.044-.12-.1v-1.984c0-.056.054-.101.12-.101s.12.045.12.1v1.985Zm1.082 0c0 .056-.054.1-.12.1-.067 0-.12-.044-.12-.1v-1.984c0-.056.053-.101.12-.101.066 0 .12.045.12.1v1.985Zm1.081 0c0 .056-.054.1-.12.1s-.12-.044-.12-.1v-1.984c0-.056.054-.101.12-.101s.12.045.12.1v1.985Zm1.082 0c0 .056-.054.1-.12.1-.067 0-.12-.044-.12-.1v-1.984c0-.056.053-.101.12-.101.066 0 .12.045.12.1v1.985Zm1.081 0c0 .056-.054.1-.12.1s-.12-.044-.12-.1v-1.984c0-.056.054-.101.12-.101s.12.045.12.1v1.985Zm-4.44-7.005 1.56 2.046 1.56-2.046-.777-1.349H11.04l-.777 1.35Zm1.56 2.564-1.937-2.54.972-1.687h1.93l.972 1.688-1.937 2.539Z"/>
  </g>
  <mask id="n" width="4" height="4" x="10" y="13" maskUnits="userSpaceOnUse" style="mask-type:luminance">
    <path fill="#fff" d="m11.092 13.796-.721 1.252 1.453 1.905 1.453-1.905-.721-1.252h-1.464Z"/>
  </mask>
  <g mask="url(#n)">
    <path fill="url(#o)" d="m11.092 13.796-.721 1.252 1.453 1.905 1.453-1.905-.721-1.252h-1.464Z"/>
  </g>
  <mask id="p" width="16" height="23" x="4" y="1" maskUnits="userSpaceOnUse" style="mask-type:luminance">
    <path fill="#fff" d="M4.433 1.149h15.134v22.7H4.433V1.15Z"/>
  </mask>
  <g mask="url(#p)">
    <mask id="q" width="3" height="3" x="10" y="14" maskUnits="userSpaceOnUse" style="mask-type:luminance">
      <path fill="#fff" d="M10.909 14.246h1.83v1.967h-1.83v-1.967Z" opacity=".57"/>
    </mask>
    <g mask="url(#q)" opacity=".57">
      <mask id="r" width="3" height="3" x="10" y="14" maskUnits="userSpaceOnUse" style="mask-type:luminance">
        <path fill="#fff" d="m10.909 15.013.442-.767h.946l.442.767-.915 1.2-.915-1.2Z"/>
      </mask>
      <g mask="url(#r)">
        <path fill="url(#s)" d="m10.909 15.013.442-.767h.946l.442.767-.915 1.2-.915-1.2Z"/>
      </g>
    </g>
    <path fill="#231F20" fill-rule="evenodd" d="m12.513 13.646-.308.487h-.79l-.278-.483-.194.113.278.483-.38.659-.585.038.014.224.586-.038.856 1.122v1.008h.224v-1.008l.855-1.122.586.038.014-.224-.585-.038-.393-.682.29-.456-.19-.12Zm-1.47 1.359.78 1.023.781-1.023-.372-.647h-.817l-.372.647Z" clip-rule="evenodd"/>
    <mask id="t" width="6" height="4" x="9" y="12" maskUnits="userSpaceOnUse" style="mask-type:luminance">
      <path fill="#fff" d="M9.418 12.877h4.811v2.78H9.418v-2.78Z"/>
    </mask>
    <g mask="url(#t)">
      <path fill="#F47D55" d="M11.823 13.614c1.204 0 2.201.886 2.378 2.043a2.409 2.409 0 0 0-2.378-2.78 2.409 2.409 0 0 0-2.377 2.78 2.408 2.408 0 0 1 2.377-2.043Z" opacity=".38"/>
    </g>
    <path fill="#000" fill-rule="evenodd" d="m7.88 13.256.061-.183h1.091a3.929 3.929 0 0 0-.355 1.645c0 .648.153 1.257.42 1.78H7.663a6.656 6.656 0 0 1 .218-3.242Zm1.9 4.172H7.903c.122.355.273.693.453 1.008h6.918a5.77 5.77 0 0 0 .456-1.008h-1.92c-.544.526-1.247.843-2.015.843-.767 0-1.471-.317-2.015-.843Zm2.838 0a2.106 2.106 0 0 1-1.646 0h1.646Zm1.096-.93H9.876a3.198 3.198 0 0 1-.525-1.78c0-.611.163-1.178.44-1.645H13.8a3.22 3.22 0 0 1 .44 1.645c0 .672-.196 1.29-.525 1.78Zm.779 0h1.477a6.78 6.78 0 0 0 .103-1.187c0-.71-.11-1.402-.325-2.055l-.06-.183h-1.13a3.94 3.94 0 0 1 .355 1.645c0 .648-.153 1.257-.42 1.78Zm.703-6.213v.705H8.433v-.705c0-.37.3-.671.67-.671h.737V8.34h3.949v1.274h.738c.369 0 .67.3.67.67Zm-9.217 1.29a6.815 6.815 0 0 1-.044-.08.928.928 0 0 0 .02 1.538 6.2 6.2 0 0 1 .173-.261 1.389 1.389 0 0 1-.167-.663v-.31c0-.076.006-.151.018-.224Zm-1.369.682c0-.691.378-1.296.938-1.616a6.744 6.744 0 0 1-.421-2.353c0-3.73 3.027-6.764 6.746-6.764 3.72 0 6.747 3.035 6.747 6.764 0 .858-.16 1.678-.452 2.433a1.86 1.86 0 0 1-.132 3.154 5.018 5.018 0 0 1-1.489 5.64c.037.12.057.246.057.374v2.306c0 .77-.689 1.394-1.535 1.394H8.56c-.846 0-1.535-.625-1.535-1.394V19.89c0-.116.016-.23.047-.34a5.017 5.017 0 0 1-1.529-5.68 1.86 1.86 0 0 1-.933-1.612Zm13.062-.515c.031-.052.061-.105.09-.158a.926.926 0 0 1-.137 1.454 4.931 4.931 0 0 0-.147-.225c.12-.207.19-.447.19-.704v-.367h.004Zm-.51-1.018a5.812 5.812 0 0 0 .53-2.436c0-3.217-2.61-5.834-5.819-5.834-3.208 0-5.819 2.617-5.819 5.834 0 .843.18 1.645.501 2.369.226-.159.5-.252.796-.252h.36v-.12c0-.769.624-1.394 1.391-1.394h.017V7.617h5.39v1.274h.018c.766 0 1.39.625 1.39 1.394v.12h.36c.336 0 .644.12.884.319Zm-10.23 5.774a7.373 7.373 0 0 1 .133-3.024 1.38 1.38 0 0 1-.242-.075 4.076 4.076 0 0 0-.592 3.1h.7Zm-.386.93h.6c.14.46.325.901.551 1.308a1.517 1.517 0 0 0-.084.056 4.042 4.042 0 0 1-1.067-1.364Zm9.942 0h.543a4.041 4.041 0 0 1-1.043 1.345 1.734 1.734 0 0 0-.055-.036c.23-.41.416-.85.555-1.31Zm.858-.93h-.645a7.532 7.532 0 0 0-.138-3.024 1.37 1.37 0 0 0 .202-.059c.615.933.8 2.047.581 3.083Zm-9.6 3.391a.64.64 0 0 1 .307-.523h7.523c.188.126.307.318.307.523v2.306c0 .37-.365.672-.814.672H8.56c-.449 0-.814-.302-.814-.672V19.89Zm3.399-10.347a.29.29 0 1 1-.579 0 .29.29 0 0 1 .579 0Zm.963 0a.29.29 0 1 1-.579 0 .29.29 0 0 1 .579 0Zm.963 0a.29.29 0 1 1-.579 0 .29.29 0 0 1 .579 0ZM7.3 12.138a.223.223 0 0 0 .051.006h8.927a.23.23 0 0 0 .051-.006v-.212a.212.212 0 0 0-.051-.006H7.35a.214.214 0 0 0-.051.006v.212Z" clip-rule="evenodd"/>
  </g>
  <defs>
    <radialGradient id="c" cx="0" cy="0" r="1" gradientTransform="matrix(1.54575 0 0 1.54981 11.824 15.319)" gradientUnits="userSpaceOnUse">
      <stop stop-color="#EC1E4B"/>
      <stop offset=".41" stop-color="#EC1E4B"/>
      <stop offset=".945" stop-color="#9D1C29"/>
      <stop offset="1" stop-color="#9D1C29"/>
    </radialGradient>
    <radialGradient id="f" cx="0" cy="0" r="1" gradientTransform="matrix(.96806 0 0 .9706 11.824 15.17)" gradientUnits="userSpaceOnUse">
      <stop stop-color="#771117"/>
      <stop offset="1" stop-color="#F18051"/>
    </radialGradient>
    <radialGradient id="l" cx="0" cy="0" r="1" gradientTransform="matrix(2.58271 0 0 2.5895 11.752 15.491)" gradientUnits="userSpaceOnUse">
      <stop stop-color="#F5865C"/>
      <stop offset=".41" stop-color="#F5865C"/>
      <stop offset=".945" stop-color="#C51F36"/>
      <stop offset="1" stop-color="#C51F36"/>
    </radialGradient>
    <radialGradient id="o" cx="0" cy="0" r="1" gradientTransform="matrix(1.51471 0 0 1.5187 11.824 15.374)" gradientUnits="userSpaceOnUse">
      <stop stop-color="#EC1E4B"/>
      <stop offset=".41" stop-color="#EC1E4B"/>
      <stop offset=".945" stop-color="#9D1C29"/>
      <stop offset="1" stop-color="#9D1C29"/>
    </radialGradient>
    <radialGradient id="s" cx="0" cy="0" r="1" gradientTransform="matrix(.94868 0 0 .95118 11.824 15.23)" gradientUnits="userSpaceOnUse">
      <stop stop-color="#771117"/>
      <stop offset="1" stop-color="#F18051"/>
    </radialGradient>
  </defs>
</svg>
