<svg fill="none" xmlns="http://www.w3.org/2000/svg" viewBox="0 0 32 32"><g clip-path="url(#a)"><path d="M31.37 16.63C31.37 25.113 24.486 32 16 32S.63 25.114.63 16.63C.63 8.144 2.301 29.374 16 30.303c11.557-.464 15.37-22.16 15.37-13.675Z" fill="#D9DAE6"/><path fill-rule="evenodd" clip-rule="evenodd" d="M16 30.742c8.485 0 15.37-6.887 15.37-15.371C31.37 6.886 24.486 0 16 0S.63 6.886.63 15.37c0 8.486 6.885 15.372 15.37 15.372Zm0-28.787a2.612 2.612 0 0 0-2.601 2.602A2.612 2.612 0 0 0 16 7.158a2.612 2.612 0 0 0 2.602-2.601A2.601 2.601 0 0 0 16 1.955Zm-1.762 5.149.673 5.853a2.298 2.298 0 0 1 1.09-.273c.387 0 .752.096 1.073.265l.683-5.842c-.5.344-1.105.544-1.757.544a3.096 3.096 0 0 1-1.762-.547Zm3.747 6.707a2.311 2.311 0 0 1-.661 3.082l4.338.416 3.23 3.129.783-.646L22.8 15.49l-4.816-1.68Zm-3.309 3.081a2.311 2.311 0 0 1-.66-3.081L9.199 15.49l-2.874 4.302.782.646 3.214-3.129 4.355-.417Zm2.26-12.352c0 .51-.426.935-.936.935a.943.943 0 0 1-.935-.935c0-.51.425-.935.935-.935.51.017.935.425.935.935ZM16 13.194a1.803 1.803 0 0 0 0 3.605 1.803 1.803 0 0 0 1.802-1.802c0-.986-.816-1.803-1.802-1.803Zm.63 1.803c0 .357-.29.629-.63.629a.628.628 0 0 1-.63-.63c0-.356.29-.628.63-.628a.64.64 0 0 1 .63.629Zm6.001 4.744H9.37v7.328H22.63v-7.328Zm-11.596.595h-1.003v6.138h1.003v-6.138Zm1.82 0H11.85v6.138h1.003v-6.138Zm1.819 0H13.67v6.138h1.003v-6.138Zm1.82 0H15.49v6.138h1.003v-6.138Zm1.835 0h-1.02v6.138h1.02v-6.138Zm1.82 0h-1.02v6.138h1.02v-6.138Zm1.82 0h-1.021v6.138h1.02v-6.138Z" fill="#fff"/></g><defs><clipPath id="a"><path fill="#fff" d="M0 0h32v32H0z"/></clipPath></defs></svg>