<svg viewBox="0 0 25 25" xmlns="http://www.w3.org/2000/svg">
<g clip-path="url(#clip0_1039_632)">
<mask id="mask0_1039_632" style="mask-type:luminance" maskUnits="userSpaceOnUse" x="10" y="8" width="6" height="8">
<path d="M10.5065 8.73094H11.4925V11.6379L14.3295 8.73094H15.6305L12.5175 11.9339L15.8275 15.6289H14.5665L11.4925 12.1799V15.6289H10.5065V8.73094Z" fill="white"/>
</mask>
<g mask="url(#mask0_1039_632)">
<path d="M10.5065 8.73094H11.4925V11.6379L14.3295 8.73094H15.6305L12.5175 11.9339L15.8275 15.6289H14.5665L11.4925 12.1799V15.6289H10.5065V8.73094Z" fill="white"/>
</g>
<mask id="mask1_1039_632" style="mask-type:luminance" maskUnits="userSpaceOnUse" x="13" y="0" width="11" height="18">
<path d="M13.5934 5.99393L18.4464 8.79593C18.4872 8.81945 18.521 8.85326 18.5445 8.89399C18.568 8.93471 18.5804 8.9809 18.5804 9.02793V14.6319C18.5804 14.7269 18.6314 14.8159 18.7144 14.8629L23.0444 17.3629C23.0851 17.3864 23.1312 17.3988 23.1782 17.3988C23.2251 17.3989 23.2713 17.3866 23.312 17.3632C23.3527 17.3398 23.3865 17.3061 23.4101 17.2655C23.4337 17.225 23.4463 17.1789 23.4464 17.1319V6.21793C23.4464 6.1709 23.434 6.12471 23.4105 6.08399C23.387 6.04326 23.3532 6.00945 23.3124 5.98593L13.8624 0.528932C13.8217 0.505414 13.7755 0.493031 13.7285 0.493027C13.6814 0.493023 13.6352 0.505398 13.5945 0.528908C13.5538 0.552419 13.5199 0.586237 13.4964 0.626965C13.4729 0.667693 13.4605 0.713896 13.4604 0.760932V5.76293C13.4604 5.85893 13.5114 5.94693 13.5944 5.99493L13.5934 5.99393Z" fill="white"/>
</mask>
<g mask="url(#mask1_1039_632)">
<path d="M13.5934 5.99393L18.4464 8.79593C18.4872 8.81945 18.521 8.85326 18.5445 8.89399C18.568 8.93471 18.5804 8.9809 18.5804 9.02793V14.6319C18.5804 14.7269 18.6314 14.8159 18.7144 14.8629L23.0444 17.3629C23.0851 17.3864 23.1312 17.3988 23.1782 17.3988C23.2251 17.3989 23.2713 17.3866 23.312 17.3632C23.3527 17.3398 23.3865 17.3061 23.4101 17.2655C23.4337 17.225 23.4463 17.1789 23.4464 17.1319V6.21793C23.4464 6.1709 23.434 6.12471 23.4105 6.08399C23.387 6.04326 23.3532 6.00945 23.3124 5.98593L13.8624 0.528932C13.8217 0.505414 13.7755 0.493031 13.7285 0.493027C13.6814 0.493023 13.6352 0.505398 13.5945 0.528908C13.5538 0.552419 13.5199 0.586237 13.4964 0.626965C13.4729 0.667693 13.4605 0.713896 13.4604 0.760932V5.76293C13.4604 5.85893 13.5114 5.94693 13.5944 5.99493L13.5934 5.99393Z" fill="white"/>
</g>
<mask id="mask2_1039_632" style="mask-type:luminance" maskUnits="userSpaceOnUse" x="2" y="0" width="21" height="25">
<path d="M17.7695 16.0359L12.9165 18.8379C12.8758 18.8616 12.8296 18.874 12.7825 18.874C12.7355 18.874 12.6892 18.8616 12.6485 18.8379L7.11853 15.6449C7.07787 15.6214 7.0441 15.5875 7.02059 15.5468C6.99708 15.5061 6.98465 15.4599 6.98453 15.4129V9.02694C6.98453 8.93194 7.03553 8.84394 7.11853 8.79594L11.9715 5.99294C12.0123 5.96943 12.0461 5.93561 12.0696 5.89489C12.0931 5.85416 12.1055 5.80797 12.1055 5.76094V0.760941C12.1057 0.71382 12.0934 0.667491 12.07 0.626623C12.0465 0.585756 12.0127 0.551796 11.9719 0.528167C11.9312 0.504537 11.8849 0.492075 11.8378 0.492035C11.7906 0.491995 11.7443 0.50438 11.7035 0.527941L2.25253 5.98594C2.2118 6.00945 2.17798 6.04327 2.15446 6.08399C2.13094 6.12472 2.11855 6.17091 2.11853 6.21794V18.2229C2.11853 18.3179 2.16853 18.4069 2.25253 18.4549L12.6485 24.4569C12.6892 24.4806 12.7355 24.493 12.7825 24.493C12.8296 24.493 12.8758 24.4806 12.9165 24.4569L22.3675 18.9999C22.408 18.9763 22.4416 18.9425 22.4649 18.9019C22.4882 18.8613 22.5005 18.8153 22.5005 18.7684C22.5005 18.7216 22.4882 18.6756 22.4649 18.635C22.4416 18.5943 22.408 18.5605 22.3675 18.5369L18.0375 16.0369C17.9968 16.0133 17.9506 16.0009 17.9035 16.0009C17.8565 16.0009 17.8102 16.0123 17.7695 16.0359Z" fill="white"/>
</mask>
<g mask="url(#mask2_1039_632)">
<path d="M17.7695 16.0359L12.9165 18.8379C12.8758 18.8616 12.8296 18.874 12.7825 18.874C12.7355 18.874 12.6892 18.8616 12.6485 18.8379L7.11853 15.6449C7.07787 15.6214 7.0441 15.5875 7.02059 15.5468C6.99708 15.5061 6.98465 15.4599 6.98453 15.4129V9.02694C6.98453 8.93194 7.03553 8.84394 7.11853 8.79594L11.9715 5.99294C12.0123 5.96943 12.0461 5.93561 12.0696 5.89489C12.0931 5.85416 12.1055 5.80797 12.1055 5.76094V0.760941C12.1057 0.71382 12.0934 0.667491 12.07 0.626623C12.0465 0.585756 12.0127 0.551796 11.9719 0.528167C11.9312 0.504537 11.8849 0.492075 11.8378 0.492035C11.7906 0.491995 11.7443 0.50438 11.7035 0.527941L2.25253 5.98594C2.2118 6.00945 2.17798 6.04327 2.15446 6.08399C2.13094 6.12472 2.11855 6.17091 2.11853 6.21794V18.2229C2.11853 18.3179 2.16853 18.4069 2.25253 18.4549L12.6485 24.4569C12.6892 24.4806 12.7355 24.493 12.7825 24.493C12.8296 24.493 12.8758 24.4806 12.9165 24.4569L22.3675 18.9999C22.408 18.9763 22.4416 18.9425 22.4649 18.9019C22.4882 18.8613 22.5005 18.8153 22.5005 18.7684C22.5005 18.7216 22.4882 18.6756 22.4649 18.635C22.4416 18.5943 22.408 18.5605 22.3675 18.5369L18.0375 16.0369C17.9968 16.0133 17.9506 16.0009 17.9035 16.0009C17.8565 16.0009 17.8102 16.0123 17.7695 16.0359Z" fill="url(#paint0_linear_1039_632)"/>
</g>
</g>
<defs>
<linearGradient id="paint0_linear_1039_632" x1="19.0945" y1="20.7489" x2="0.803529" y2="-6.68806" gradientUnits="userSpaceOnUse">
<stop offset="0.056" stop-color="#F3F3FA"/>
<stop offset="1" stop-color="#D9DAE5"/>
</linearGradient>
<clipPath id="clip0_1039_632">
<rect width="24" height="24" fill="white" transform="translate(0.782471 0.492935)"/>
</clipPath>
</defs>
</svg>
