<svg viewBox="0 0 13 14" fill="none" xmlns="http://www.w3.org/2000/svg"><path fill-rule="evenodd" clip-rule="evenodd" d="M6.234.033a.255.255 0 00-.25 0L.129 3.342A.255.255 0 000 3.564v6.872c0 .092.05.177.13.222l5.854 3.31a.255.255 0 00.25 0l5.855-3.31c.08-.045.13-.13.13-.222V3.564a.255.255 0 00-.13-.222L6.234.032zM4.543 6.376L.509 4.008v5.983l3.158-1.857.876-1.758zm1.312 6.933l-5.09-2.877L3.31 8.934a.257.257 0 00.074.155c.734.734 1.591 1.144 2.47 1.21v3.01zm.509 0V10.3c.879-.066 1.737-.476 2.47-1.21a.254.254 0 00.073-.148l2.546 1.491-5.09 2.877zm5.345-3.317L8.558 8.147 7.67 6.378l4.038-2.37v5.984zm-.255-6.424L7.442 5.922 6.353 3.75l.01-3.06 5.09 2.878zM5.854.692l-.01 3.074-1.073 2.153L.765 3.568 5.853.692z" fill="#6B6D85"/></svg>