<svg viewBox="0 0 41 42" xmlns="http://www.w3.org/2000/svg">
<mask id="mask0_1039_652" style="mask-type:luminance" maskUnits="userSpaceOnUse" x="0" y="1" width="41" height="41">
<path d="M0.661621 1.45959H40.6616V41.4596H0.661621V1.45959Z" fill="white"/>
</mask>
<g mask="url(#mask0_1039_652)">
<path fill-rule="evenodd" clip-rule="evenodd" d="M1.146 23.2566L9.34912 37.4675C9.98974 38.5769 11.1772 39.2644 12.4585 39.2644H28.8647C30.146 39.2644 31.3335 38.5769 31.9741 37.4675L40.1772 23.2566C40.8179 22.1472 40.8179 20.7722 40.1772 19.6629L31.9741 5.4519C31.3335 4.34253 30.146 3.65503 28.8647 3.65503H12.4585C11.1772 3.65503 9.98974 4.34253 9.34912 5.4519L1.146 19.6629C0.50537 20.7722 0.50537 22.1472 1.146 23.2566ZM15.0991 13.0923V15.311L12.5366 16.7876V26.1314L15.0991 27.6079V29.8267L10.5834 27.2173V15.7017L15.0991 13.0923ZM26.2241 15.311V13.0923L30.7397 15.7017V27.2173L26.2241 29.8267V27.6079L28.7866 26.1314V16.7876L26.2241 15.311ZM20.6616 20.6001L18.1616 19.1548V16.2642L20.6616 14.8189L23.1616 16.2642V19.1548L20.6616 20.6001ZM21.4428 24.7798L23.9428 26.2251L26.4428 24.7798V21.8892L23.9428 20.4439L21.4428 21.8892V24.7798ZM17.3803 26.2251L14.8803 24.7798V21.8892L17.3803 20.4439L19.8803 21.8892V24.7798L17.3803 26.2251Z" fill="white"/>
<path fill-rule="evenodd" clip-rule="evenodd" d="M39.4741 24.4749L30.7398 15.7331V27.2173L26.2242 29.8267V27.6079L28.7867 26.1314L28.7866 21.9446L23.1616 16.3267L23.1617 19.1548L20.6617 20.6001L18.1617 19.1548V16.2642L18.2358 16.2213L15.1147 13.1002L15.0992 13.1133V15.311L12.5367 16.7876V26.1314L15.0992 27.6079V29.8267L10.6572 27.2599L22.6693 39.2644H28.8648C30.1461 39.2644 31.3336 38.5769 31.9742 37.4675L39.4741 24.4749ZM28.7867 16.7876L26.2586 15.3309L26.2397 15.3502L28.7866 17.8971L28.7867 16.7876ZM23.9429 26.2251L21.4429 24.7798V21.8892L23.9429 20.4439L26.4429 21.8892V24.7798L23.9429 26.2251ZM14.8804 24.7798L17.3804 26.2251L19.8804 24.7798V21.8892L17.3804 20.4439L14.8804 21.8892V24.7798Z" fill="#D8E0ED"/>
</g>
</svg>
