<svg fill="none" viewBox="0 0 41 41" xmlns="http://www.w3.org/2000/svg" xmlns:xlink="http://www.w3.org/1999/xlink"><clipPath id="a"><path d="m.661621.967606h40v40h-40z"/></clipPath><g clip-path="url(#a)" clip-rule="evenodd" fill-rule="evenodd"><path d="m1.146 22.7646 8.20312 14.2109c.64062 1.1094 1.82808 1.7969 3.10938 1.7969h16.4062c1.2813 0 2.4688-.6875 3.1094-1.7969l8.2031-14.2109c.6407-1.1094.6407-2.4844 0-3.5937l-8.2031-14.21099c-.6406-1.10937-1.8281-1.79687-3.1094-1.79687h-16.4062c-1.2813 0-2.46876.6875-3.10938 1.79687l-8.20312 14.21099c-.640629 1.1093-.640629 2.4843 0 3.5937zm13.9531-10.1643v2.2187l-2.5625 1.4766v9.3438l2.5625 1.4765v2.2188l-4.5157-2.6094v-11.5156zm11.125 2.2187v-2.2187l4.5156 2.6094v11.5156l-4.5156 2.6094v-2.2188l2.5625-1.4765v-9.3438zm-5.5625 5.2891-2.5-1.4453v-2.8906l2.5-1.4453 2.5 1.4453v2.8906zm.7812 4.1797 2.5 1.4453 2.5-1.4453v-2.8906l-2.5-1.4453-2.5 1.4453zm-4.0625 1.4453-2.5-1.4453v-2.8906l2.5-1.4453 2.5 1.4453v2.8906z" fill="#fafcff"/><path d="m39.4741 23.9829-8.7343-8.7418v11.4842l-4.5156 2.6094v-2.2188l2.5625-1.4765-.0001-4.1868-5.625-5.6179.0001 2.8281-2.5 1.4453-2.5-1.4453v-2.8906l.0741-.0429-3.1211-3.1211-.0155.0131v2.1977l-2.5625 1.4766v9.3438l2.5625 1.4765v2.2188l-4.442-2.5668 12.0121 12.0045h6.1955c1.2813 0 2.4688-.6875 3.1094-1.7969zm-10.6874-7.6873-2.5281-1.4567-.0189.0193 2.5469 2.5469zm-4.8438 9.4375-2.5-1.4453v-2.8906l2.5-1.4453 2.5 1.4453v2.8906zm-9.0625-1.4453 2.5 1.4453 2.5-1.4453v-2.8906l-2.5-1.4453-2.5 1.4453z" fill="#d8e0ed"/></g></svg>