<svg viewBox="0 0 24 25" xmlns="http://www.w3.org/2000/svg">
<path fill-rule="evenodd" clip-rule="evenodd" d="M18.7805 2.81032L23.7118 11.3866C23.9007 11.7183 24 12.0934 24 12.4751C24 12.8568 23.9007 13.2319 23.7118 13.5635L18.7805 22.1398C18.5967 22.4732 18.3296 22.7531 18.0052 22.9523C17.6808 23.1515 17.3103 23.263 16.9299 23.2761H7.06541C6.68497 23.2612 6.31483 23.1483 5.9909 22.9482C5.66697 22.7481 5.40026 22.4677 5.21665 22.1342L0.285363 13.5091C0.0983738 13.1826 0 12.8129 0 12.4366C0 12.0604 0.0983738 11.6906 0.285363 11.3641L5.21853 2.81032C5.40383 2.48133 5.67193 2.2065 5.99623 2.0131C6.32053 1.81971 6.68976 1.71446 7.06729 1.70781H16.9317C17.3093 1.71428 17.6786 1.81944 18.0029 2.01286C18.3273 2.20627 18.5953 2.4812 18.7805 2.81032ZM15.8795 9.91485H8.10942C8.04888 9.91333 7.99017 9.93568 7.94596 9.97707C7.90176 10.0185 7.87561 10.0756 7.87317 10.1361V11.7486C7.87317 11.8088 7.89707 11.8665 7.93962 11.909C7.98217 11.9516 8.03987 11.9755 8.10005 11.9755H15.8795C15.9395 11.975 15.9969 11.9509 16.0394 11.9085C16.0818 11.8661 16.1059 11.8086 16.1064 11.7486V10.1417C16.1064 10.0816 16.0825 10.0239 16.0399 9.9813C15.9974 9.93876 15.9397 9.91485 15.8795 9.91485ZM14.6776 11.4149C14.5856 11.4149 14.4957 11.3876 14.4193 11.3365C14.3428 11.2854 14.2832 11.2128 14.248 11.1278C14.2128 11.0428 14.2036 10.9493 14.2215 10.8591C14.2395 10.7689 14.2838 10.6861 14.3488 10.6211C14.4138 10.556 14.4967 10.5117 14.5869 10.4938C14.6771 10.4758 14.7706 10.4851 14.8555 10.5203C14.9405 10.5554 15.0131 10.615 15.0642 10.6915C15.1153 10.768 15.1426 10.8579 15.1426 10.9499C15.1426 11.0732 15.0936 11.1915 15.0064 11.2787C14.9192 11.3659 14.8009 11.4149 14.6776 11.4149ZM15.8795 13.0124H8.10942C8.04888 13.0108 7.99017 13.0332 7.94596 13.0746C7.90176 13.116 7.87561 13.1731 7.87317 13.2336V14.8555C7.87602 14.9141 7.90107 14.9693 7.94321 15.0101C7.98535 15.0508 8.04143 15.074 8.10005 15.0749H15.8795C15.9395 15.0744 15.9969 15.0503 16.0394 15.0079C16.0818 14.9654 16.1059 14.908 16.1064 14.848V13.2317C16.1064 13.1716 16.0825 13.1139 16.0399 13.0713C15.9974 13.0288 15.9397 13.0049 15.8795 13.0049V13.0124ZM14.6776 14.5049C14.5856 14.5049 14.4957 14.4776 14.4193 14.4265C14.3428 14.3754 14.2832 14.3028 14.248 14.2178C14.2128 14.1329 14.2036 14.0394 14.2215 13.9492C14.2395 13.859 14.2838 13.7761 14.3488 13.7111C14.4138 13.646 14.4967 13.6017 14.5869 13.5838C14.6771 13.5659 14.7706 13.5751 14.8555 13.6103C14.9405 13.6455 15.0131 13.7051 15.0642 13.7815C15.1153 13.858 15.1426 13.9479 15.1426 14.0399C15.1426 14.1009 15.1306 14.1614 15.1072 14.2178C15.0838 14.2742 15.0496 14.3255 15.0064 14.3687C14.9632 14.4119 14.912 14.4461 14.8555 14.4695C14.7991 14.4929 14.7387 14.5049 14.6776 14.5049Z" fill="white"/>
<path fill-rule="evenodd" clip-rule="evenodd" d="M7.93348 11.9026L7.93188 11.9042L9.04003 13.0124H15.8795V13.0049C15.9397 13.0049 15.9974 13.0288 16.0399 13.0713C16.0825 13.1139 16.1064 13.1716 16.1064 13.2317V14.848C16.1059 14.908 16.0818 14.9654 16.0394 15.0079C15.997 15.0503 15.9395 15.0744 15.8795 15.0749H8.10008C8.06441 15.0743 8.02969 15.0656 7.99847 15.0496L16.2194 23.2706H16.9207C17.3011 23.2575 17.6717 23.1459 17.996 22.9468C18.3204 22.7476 18.5876 22.4676 18.7713 22.1343L22.2082 16.1568L16.0282 9.96733L16.025 9.96763C16.0301 9.97194 16.0351 9.97651 16.0399 9.9813C16.0825 10.0239 16.1064 10.0816 16.1064 10.1417V11.7486C16.1059 11.8086 16.0818 11.8661 16.0394 11.9085C15.997 11.9509 15.9395 11.975 15.8795 11.9755H8.10008C8.0399 11.9755 7.9822 11.9516 7.93965 11.909C7.93755 11.9069 7.93549 11.9048 7.93348 11.9026ZM14.6776 11.4149C14.5857 11.4149 14.4958 11.3876 14.4193 11.3365C14.3428 11.2854 14.2832 11.2128 14.248 11.1278C14.2128 11.0428 14.2036 10.9493 14.2216 10.8591C14.2395 10.7689 14.2838 10.6861 14.3488 10.6211C14.4138 10.556 14.4967 10.5117 14.5869 10.4938C14.6771 10.4758 14.7706 10.4851 14.8556 10.5203C14.9405 10.5554 15.0132 10.615 15.0643 10.6915C15.1154 10.768 15.1426 10.8579 15.1426 10.9499C15.1426 11.0732 15.0936 11.1915 15.0064 11.2787C14.9192 11.3659 14.801 11.4149 14.6776 11.4149ZM14.6776 14.5049C14.5857 14.5049 14.4958 14.4776 14.4193 14.4265C14.3428 14.3754 14.2832 14.3028 14.248 14.2178C14.2128 14.1329 14.2036 14.0394 14.2216 13.9492C14.2395 13.859 14.2838 13.7761 14.3488 13.7111C14.4138 13.646 14.4967 13.6017 14.5869 13.5838C14.6771 13.5659 14.7706 13.5751 14.8556 13.6103C14.9405 13.6455 15.0132 13.7051 15.0643 13.7815C15.1154 13.858 15.1426 13.9479 15.1426 14.0399C15.1426 14.1009 15.1306 14.1614 15.1072 14.2178C15.0839 14.2742 15.0496 14.3255 15.0064 14.3687C14.9633 14.4119 14.912 14.4461 14.8556 14.4695C14.7992 14.4929 14.7387 14.5049 14.6776 14.5049Z" fill="#D9DAE5"/>
</svg>
