<svg xmlns="http://www.w3.org/2000/svg" viewBox="2 0 20 21">
  <path d="M9.230469 1.441406c-.1875.125-.371094.324219-.417969.449219-.0625.222656-.140625.234375-1.925781.234375H5.035156v17.660156h1.730469c2.015625 0 2.210937-.03125 2.210937-.402344 0-.300781-.183593-.355468-.28125-.097656-.054687.132813-.351562.167969-1.699218.167969H5.375V2.460938h1.699219c1.464843 0 1.683593.019531 1.683593.175781 0 .335937.613282.828125 1.019532.828125.449218 0 1.0625-.457032 1.0625-.792969 0-.203125.132812-.210937 3.941406-.210937h3.941406v16.992187h-3.886718c-3.382813 0-3.886719.019531-3.886719.164063 0 .148437.523437.167968 4.050781.167968h4.050781v-1.148437c.011719-1.511719.011719-14.152344 0-15.484375V2.125h-4.09375c-4.050781 0-4.105469 0-4.171875-.234375-.089844-.269531-.667968-.660156-.984375-.660156-.121093 0-.375.101562-.570312.210937Zm1.136719.371094c.527343.5.175781 1.363281-.566407 1.363281-.296875 0-.472656-.066406-.613281-.257812-.648438-.816407.4375-1.824219 1.179688-1.105469Zm0 0" style="stroke:none;fill-rule:nonzero;fill:#000;fill-opacity:1"/>
  <path d="M9.699219 4.101562c-.03125.035157-.0625 2.082032-.0625 4.527344 0 3.878906.019531 4.449219.164062 4.449219.140625 0 .164063-.570313.164063-4.460937 0-2.457032-.046875-4.492188-.101563-4.527344-.042969-.03125-.117187-.03125-.164062.011718ZM10.90625 4.125c-.101562.15625 2.121094 4.730469 2.277344 4.671875.175781-.066406.164062-.101563-.964844-2.46875-.984375-2.082031-1.183594-2.425781-1.3125-2.203125Zm2.867188 5.992188c-.328126.191406-.578126.816406-.46875 1.195312.207031.695312.960937 1.039062 1.5625.714844.417968-.222656.570312-.492188.570312-1.015625 0-.839844-.898438-1.320313-1.664062-.894531Zm1.128906.378906c.371094.390625.394531.660156.085937 1.0625-.164062.210937-.328125.289062-.601562.289062-1.117188 0-1.074219-1.597656.042969-1.664062.089843-.011719.296874.132812.472656.3125ZM13.25 13.75c0 .121094.074219.222656.164062.222656.085938 0 .164063-.101562.164063-.222656s-.078125-.222656-.164063-.222656c-.089843 0-.164062.101562-.164062.222656Zm1.09375 0c0 .121094.074219.222656.164062.222656.085938 0 .164063-.101562.164063-.222656s-.078125-.222656-.164063-.222656c-.089843 0-.164062.101562-.164062.222656Zm-.546875.671875c0 .121094.074219.222656.164063.222656.085937 0 .164062-.101562.164062-.222656 0-.125-.078125-.226563-.164062-.226563-.089844 0-.164063.101563-.164063.226563Zm1.09375 0c0 .121094.078125.222656.164063.222656.085937 0 .164062-.101562.164062-.222656 0-.125-.078125-.226563-.164062-.226563-.085938 0-.164063.101563-.164063.226563Zm-5.792969.175781c-.273437.238282-.339844.371094-.339844.738282 0 .59375.15625.863281.625 1.050781.296876.136719.460938.148437.757813.046875.480469-.167969.699219-.503906.699219-1.074219 0-.960937-1.007813-1.398437-1.742188-.761719Zm1.25.214844c.164063.15625.273438.402344.273438.570312 0 .414063-.394532.828126-.789063.828126-.394531 0-.855469-.449219-.855469-.839844 0-.367188.460938-.839844.824219-.839844.152344 0 .402344.125.546875.28125Zm2.976563.011719c-.121094.121093-.085938.492187.035156.492187.164063 0 .261719-.335937.140625-.460937-.054688-.054688-.132812-.066407-.175781-.03125Zm1.085937.011719c-.132812.132812-.066406.480468.097656.480468.085938 0 .164063-.101562.164063-.214844 0-.234374-.144531-.378906-.261719-.265624Zm-.570312.746093c-.042969.113281-.023438.246094.042968.3125.089844.089844.144532.078125.199219-.066406.042969-.109375.019531-.246094-.046875-.3125-.085937-.089844-.140625-.078125-.195312.066406Zm1.09375 0c-.066406.191407.023437.402344.1875.402344.128906 0 .128906-.414063-.011719-.5-.066406-.035156-.140625.007813-.175781.097656Zm-1.664063.75c.011719.144531.089844.257813.144531.234375.164063-.03125.128907-.390625-.035156-.445312-.097656-.035156-.140625.03125-.109375.210937Zm1.117188-.078125c-.042969.113282-.023438.246094.042969.3125.089843.089844.144531.078125.199218-.066406.042969-.113281.019532-.246094-.046875-.3125-.085937-.089844-.140625-.078125-.195312.066406Zm-.589844.726563c0 .132812.0625.234375.175781.234375.097656 0 .152344-.078125.128906-.1875-.054687-.28125-.304687-.316406-.304687-.046875Zm1.136719-.042969c-.074219.1875.042968.410156.1875.332031.128906-.085937.128906-.5-.011719-.5-.066406 0-.140625.078125-.175781.167969Zm-6.285156 1.171875c0 .125.078124.222656.164062.222656.089844 0 .164062-.097656.164062-.222656 0-.121094-.074218-.222656-.164062-.222656-.085938 0-.164062.101562-.164062.222656Zm1.097656 0c0 .125.074218.222656.164062.222656.085938 0 .164063-.097656.164063-.222656 0-.121094-.078125-.222656-.164063-.222656-.089844 0-.164062.101562-.164062.222656Zm-.503906.492187c-.066407.191407.019531.402344.183593.402344.132813 0 .132813-.414062-.007812-.503906-.066407-.03125-.144531.011719-.175781.101562Zm1.09375.011719c-.03125.089844-.03125.210938.011718.277344.121094.203125.273438.125.273438-.167969 0-.300781-.1875-.378906-.285156-.109375Zm-.546876.671875c-.035156.085938-.035156.210938.011719.277344.117188.203125.273438.125.273438-.167969 0-.300781-.1875-.378906-.285157-.109375Zm-.546874.667969c-.078126.191406.042968.414063.183593.335937.132813-.089843.132813-.503906-.007812-.503906-.066407 0-.144531.078125-.175781.167969Zm1.09375 0c-.03125.089844-.03125.214844.011718.28125.121094.199219.273438.121094.273438-.167969 0-.300781-.1875-.378906-.285156-.113281Zm-1.6875.726563c0 .125.078124.226562.164062.226562.089844 0 .164062-.101562.164062-.226562 0-.121094-.074218-.222657-.164062-.222657-.085938 0-.164062.101563-.164062.222657Zm1.171874-.144532c-.140624.132813-.074218.371094.089844.371094.085938 0 .164063-.101562.164063-.226562 0-.222657-.121094-.289063-.253907-.144532Zm-.625.816406c0 .121094.078126.222657.164063.222657.089844 0 .167969-.101563.167969-.222657 0-.121093-.078125-.222656-.167969-.222656-.085937 0-.164063.101563-.164063.222656Zm1.171876-.144531c-.140626.132813-.074219.367188.089843.367188.085938 0 .164063-.101563.164063-.222657 0-.222656-.121094-.289062-.253906-.144531Zm0 0" style="stroke:none;fill-rule:nonzero;fill:#000;fill-opacity:1"/>
</svg>