<svg viewBox="0 0 32 32" fill="currentColor" xmlns="http://www.w3.org/2000/svg"><path d="M2.4 13.65c-.05 0-.1-.05-.05-.1l.35-.4c.05-.05.1-.1.15-.1H8.4c.05 0 .1.05.05.1l-.25.4c-.05.05-.1.1-.15.1H2.4ZM.05 15.1C0 15.1 0 15.05 0 15l.35-.4c0-.05.1-.1.15-.1h7.1c.05 0 .1.05.1.1l-.1.35c0 .05-.1.1-.15.1l-7.4.05Zm3.8 1.4c-.05 0-.1-.05-.05-.1l.2-.35c.05-.05.1-.1.15-.1h3.1c.05 0 .1.05.1.1l-.05.35c0 .05-.05.1-.1.1H3.85ZM20 13.35l-2.6.7c-.25.05-.25.1-.45-.15-.25-.25-.4-.45-.75-.6-1-.5-1.95-.35-2.8.25-1.05.7-1.6 1.7-1.6 2.95 0 1.25.85 2.25 2.1 2.45 1.05.15 1.95-.25 2.65-1.05.15-.15.25-.35.4-.6h-3c-.35 0-.4-.2-.3-.45.2-.5.6-1.3.8-1.7.05-.1.15-.25.4-.25h5.65c-.05.4-.05.85-.1 1.25a6.38 6.38 0 0 1-1.3 3.05c-1.1 1.5-2.6 2.4-4.45 2.65-1.55.2-2.95-.1-4.2-1.05-1.15-.85-1.8-2.05-2-3.45-.2-1.7.3-3.2 1.3-4.55 1.1-1.45 2.55-2.35 4.35-2.7 1.45-.25 2.85-.1 4.15.75.85.55 1.4 1.3 1.8 2.2.2.2.15.25-.05.3Z" fill="#00ACD7"/><path d="M25.15 22c-1.4-.05-2.7-.45-3.8-1.35-.9-.8-1.5-1.8-1.7-3-.3-1.75.2-3.3 1.25-4.7 1.15-1.5 2.5-2.25 4.35-2.6 1.6-.3 3.1-.1 4.45.8 1.25.85 2 2 2.2 3.45.25 2.1-.35 3.8-1.8 5.3-1.05 1.05-2.3 1.7-3.75 2-.35 0-.8.05-1.2.1Zm3.7-6.3c0-.2 0-.35-.05-.5-.3-1.55-1.7-2.4-3.2-2.05-1.45.35-2.4 1.25-2.75 2.7-.3 1.2.3 2.45 1.45 2.95.85.35 1.7.35 2.55-.1 1.25-.7 1.95-1.7 2-3Z" fill="#00ACD7"/></svg>