<svg viewBox="0 0 25 25" xmlns="http://www.w3.org/2000/svg">
<path opacity="0.545" fill-rule="evenodd" clip-rule="evenodd" d="M12.7434 8.78881L16.4577 10.8845V15.0742L12.7434 17.1691L9.02987 15.0742V10.8845L12.7434 8.78881ZM16.6427 15.5371L20.357 17.6328V21.8225L16.6427 23.9174L12.9292 21.8225V17.6328L16.6427 15.5371ZM8.44414 15.4484L12.1576 17.5432V21.7329L8.44414 23.8278L4.72981 21.7329V17.5432L8.44414 15.4484ZM21.0299 8.78881L24.7434 10.8845V15.0742L21.0299 17.1691L17.3155 15.0742V10.8845L21.0299 8.78881ZM4.45769 8.78881L8.17118 10.8845V15.0742L4.45769 17.1691L0.743362 15.0742V10.8845L4.45769 8.78881ZM17.1305 2.04047L20.844 4.13532V8.32504L17.1305 10.4207L13.4162 8.32504V4.13532L17.1305 2.04047ZM8.84403 2.04047L12.5584 4.13532V8.32504L8.84403 10.4207L5.13136 8.32504V4.13532L8.84403 2.04047Z" fill="#999AA9"/>
</svg>
