<svg viewBox="0 0 24 24" xmlns="http://www.w3.org/2000/svg"><path d="M.577 13a2 2 0 010-2l4.846-8.392a2 2 0 011.732-1h9.69a2 2 0 011.732 1L23.423 11a2 2 0 010 2l-4.846 8.392a2 2 0 01-1.732 1h-9.69a2 2 0 01-1.732-1L.577 13z" fill="#4387FB"/><path d="M18.142 17H9.12c1.804-.407 3.608-.713 5.413-1.12 0-.102 0-.102-.086-.102-.945-1.426-1.89-2.75-2.75-3.972-.086-.102-.086-.204 0-.204.344-1.12.688-2.139.945-3.26.172-.509.344-1.018.43-1.527 0 0 0-.102.086-.102A563.108 563.108 0 0018.142 17zM12.728 6c-.172.407-.344.713-.43 1.12-.859 2.14-1.632 4.176-2.491 6.315-.258.713-.602 1.426-.86 2.24 0 .103-.085.103-.171.103H6.284c-.172 0-.172 0-.086-.102.945-2.037 1.976-3.972 2.921-6.01 0-.101.086-.203.172-.305 1.117-1.018 2.234-2.139 3.351-3.26 0 0 0-.101.086-.101z" fill="#fff"/></svg>
