<svg xmlns="http://www.w3.org/2000/svg" viewBox="0 0 24 25">
  <path fill="#fff" fill-rule="evenodd" stroke="#fff" stroke-width=".139" d="M11.857 7.112c3.539-.202 6.959 1.906 9.516 3.805.911.677 2.844 1.971 2.25 3.03-.767.885-2.22.442-4.62 1.59-3.186 1.524-3.395 2.43-7.059 2.456-3.79.027-3.876-1.014-7.233-2.51-2.65-1.18-4.118-.65-4.432-1.576-.428-1.214 1.277-2.334 2.209-2.99C6.716 7.94 8.56 7.109 11.856 7.112Z" clip-rule="evenodd"/>
  <path fill="url(#a)" d="M11.944 16.413c2.38 0 4.31-1.888 4.31-4.216 0-2.329-1.93-4.217-4.31-4.217s-4.31 1.888-4.31 4.217c0 2.328 1.93 4.216 4.31 4.216Z"/>
  <path stroke="#004C78" stroke-width="1.672" d="M11.944 16.137c2.21 0 4-1.746 4-3.9s-1.79-3.9-4-3.9-4 1.746-4 3.9 1.79 3.9 4 3.9Z" opacity=".3"/>
  <path stroke="#002040" stroke-width=".139" d="M11.944 16.413c2.38 0 4.31-1.888 4.31-4.216 0-2.329-1.93-4.217-4.31-4.217s-4.31 1.888-4.31 4.217c0 2.328 1.93 4.216 4.31 4.216Z"/>
  <path stroke="#002040" stroke-width=".139" d="M11.95 16.331c2.31 0 4.183-1.827 4.183-4.08 0-2.255-1.872-4.082-4.183-4.082-2.31 0-4.183 1.827-4.183 4.081 0 2.254 1.873 4.081 4.183 4.081Z"/>
  <path stroke="#002040" stroke-width=".139" d="M11.955 16.23c2.235 0 4.046-1.762 4.046-3.934 0-2.173-1.811-3.934-4.046-3.934-2.234 0-4.046 1.761-4.046 3.934 0 2.172 1.812 3.934 4.046 3.934Z"/>
  <path stroke="#002040" stroke-width=".139" d="M11.964 14.235c1.07 0 1.938-.868 1.938-1.94a1.939 1.939 0 1 0-1.938 1.94Z"/>
  <path stroke="#002040" stroke-width=".139" d="M11.946 14.649a2.356 2.356 0 0 0 2.36-2.353c0-1.3-1.057-2.353-2.36-2.353a2.356 2.356 0 0 0-2.36 2.353c0 1.3 1.057 2.353 2.36 2.353Z"/>
  <path stroke="#002040" stroke-width=".139" d="M11.937 15.026a2.76 2.76 0 0 0 2.764-2.757 2.76 2.76 0 0 0-2.764-2.757 2.76 2.76 0 0 0-2.763 2.757 2.76 2.76 0 0 0 2.763 2.757Z"/>
  <path stroke="#002040" stroke-width=".139" d="M11.964 15.344c1.735 0 3.141-1.378 3.141-3.078s-1.406-3.078-3.14-3.078c-1.735 0-3.142 1.378-3.142 3.078s1.407 3.078 3.141 3.078Z"/>
  <path stroke="#002040" stroke-width=".139" d="M11.944 15.645c1.92 0 3.475-1.52 3.475-3.394 0-1.875-1.556-3.395-3.475-3.395-1.92 0-3.475 1.52-3.475 3.395 0 1.874 1.556 3.394 3.475 3.394Z"/>
  <path stroke="#002040" stroke-width=".139" d="M11.937 15.874c2.05 0 3.711-1.613 3.711-3.603 0-1.99-1.661-3.604-3.71-3.604-2.05 0-3.712 1.614-3.712 3.604s1.662 3.603 3.711 3.603Z"/>
  <path stroke="#002040" stroke-width=".139" d="M11.944 16.076c2.157 0 3.906-1.706 3.906-3.812 0-2.105-1.748-3.812-3.906-3.812-2.157 0-3.906 1.707-3.906 3.812 0 2.106 1.749 3.812 3.906 3.812Zm-1.163-5.011L9.13 8.991m1.516 2.182L8.725 9.34m2.209 1.572L9.389 8.784m1.742 2.038-1.49-2.209m1.759 2.075L9.947 8.434m.654 2.901L8.464 9.673m2.048 1.805-2.308-1.41m2.236 1.59L7.98 10.49m2.397 1.33-2.56-.917m2.497 1.069-2.604-.61m2.586.798-2.649-.386m2.667.548-2.685-.09m2.694.27-2.676.17m2.694-.035-2.604.476m2.649-.306-2.523.755m2.613-.593-2.46.988m2.523-.827-2.3 1.24m2.381-1.123-2.11 1.509m2.235-1.347L8.77 15.07m2.101-1.562-1.76 1.85m1.868-1.743-1.527 2.039m1.679-1.931L9.847 15.87m1.437-2.075-1.042 2.263m1.204-2.191-.809 2.361m.997-2.28-.566 2.362m.746-2.335-.323 2.415m.457-2.388-.004 2.41m.157-2.402.297 2.371m-.144-2.406.584 2.343m-.423-2.451.836 2.317m-.683-2.407 1.096 2.28m-.925-2.352 1.329 2.155m-1.176-2.254 1.553 2.039m-1.392-2.128 1.751 1.85M13.17 13.39l1.94 1.67m-1.85-1.795 2.137 1.464m-1.994-1.589 2.2 1.221m-2.155-1.383 2.38.997m-2.317-1.168 2.488.8m-2.443-.952 2.577.467m-2.55-.602 2.64.134m-2.623-.368 2.65-.035m-2.658-.108 2.64-.333m-2.676.18 2.613-.629m-2.622.467 2.505-.907m-2.595.737 2.425-1.168m-2.479.988 2.29-1.374m-2.397 1.248 2.146-1.625M13.17 11.2l1.976-1.814m-2.111 1.652 1.823-1.94m-1.985 1.842 1.68-2.102m-1.778 1.976 1.428-2.218m-1.707 2.11L13.8 8.38m-1.483 2.209L13.358 8.2m-1.238 2.353.763-2.46m-.953 2.433-.008-2.541m-.054 2.55-.485-2.541m-.97.251 1.14 2.353m-.628-2.505.781 2.487m.314-.036.369-2.532"/>
  <path fill="#fff" d="M8.2 9.84c.129-.196.154-.44.309-.624.165-.195.377-.445.582-.6.265-.2.655-.357.965-.47.225-.083.448-.119.685-.178.554-.139 1.09-.2 1.67-.176.495.02 1.01.108 1.455.324.255.124.478.303.704.453.206.137.348.251.508.426.167.181.469.523.455.783-.933-.309-1.84-.58-2.83-.612-.974-.03-2.294.034-3.002.172-.425.083-1.027.3-1.515.501m1.989 6.233a8.378 8.378 0 0 0 1.877.18c.703-.02 1.08-.077 1.888-.266-.376.433-.62.503-1.106.59-.4.072-.817-.007-1.225-.005-.336.002-.753.039-1.061-.1-.153-.07-.169-.173-.268-.274"/>
  <path fill="url(#b)" fill-rule="evenodd" d="M11.854 7.141c3.54-.202 6.962 1.877 9.52 3.776.91.677 2.843 1.972 2.249 3.031-.767.884-2.22.441-4.62 1.59-3.186 1.523-3.395 2.43-7.059 2.456-3.79.026-3.876-1.014-7.233-2.51-2.65-1.181-4.118-.651-4.432-1.576-.428-1.215 1.277-2.335 2.209-2.99 4.228-2.978 6.07-3.78 9.366-3.777Z" clip-rule="evenodd" opacity=".6"/>
  <path fill="url(#c)" fill-rule="evenodd" d="M11.89 9.097c2.33-.108 4.086.35 8.796 3.733.328.236 1.481.708 1.253.822-.566.283-1.07-.006-2.357.35-2.454.679-5.062 2.256-7.642 2.248-2.607-.007-3.732-.982-7.741-2.235-.862-.269-2.02-.12-2.236-.323-.287-.268.927-.593 1.329-.872 5.432-3.774 6.275-3.725 8.597-3.723Z" clip-rule="evenodd" opacity=".4"/>
  <g opacity=".5">
    <path fill="#fff" fill-rule="evenodd" d="M13.246 10.447c-.077-.403-.402-.57-.691-.526Z" clip-rule="evenodd"/>
    <path fill="#fff" d="M13.766 10.307c-.103-.475-.536-.643-.984-.587-.231.03-.515.085-.697.245-.177.156.156.167.242.156.103-.013-.095-.004.009-.001-.075-.002.018.007.031.01.043.01.09.04.135.07.13.089.191.237.223.386.033.151.486.031.561.011.088-.023.514-.134.48-.29Z"/>
  </g>
  <g opacity=".58">
    <path fill="url(#d)" d="M13.6 12.266c0 .948-.735 1.716-1.643 1.716-.907 0-1.643-.768-1.643-1.716s.736-1.716 1.643-1.716c.908 0 1.644.768 1.644 1.716Z"/>
    <path stroke="#fff" stroke-width=".139" d="m11.946 9.943-.002 4.645"/>
    <path stroke="#fff" stroke-width=".223" d="m9.73 12.296 4.495-.01" opacity=".75"/>
    <path stroke="#fff" stroke-width=".223" d="M11.955 13.054c.408 0 .739-.345.739-.772 0-.427-.33-.772-.739-.772-.408 0-.738.345-.738.772 0 .427.33.772.738.772Z" opacity=".76"/>
    <path stroke="#fff" stroke-width=".223" d="M11.95 13.948c.905 0 1.637-.75 1.637-1.675s-.732-1.675-1.636-1.675c-.904 0-1.637.75-1.637 1.675s.733 1.675 1.637 1.675Z" opacity=".79"/>
    <path fill="#fff" stroke="#fff" stroke-width=".139" d="M11.94 12.525c.143 0 .26-.113.26-.252a.256.256 0 0 0-.26-.251.256.256 0 0 0-.26.251c0 .14.116.252.26.252Z"/>
  </g>
  <path stroke="#004C78" stroke-width=".139" d="M11.857 7.112c3.539-.202 6.959 1.906 9.516 3.805.911.677 2.844 1.971 2.25 3.03-.767.885-2.22.442-4.62 1.59-3.186 1.524-3.395 2.43-7.059 2.456-3.79.027-3.876-1.014-7.233-2.51-2.65-1.18-4.118-.65-4.432-1.576-.428-1.214 1.277-2.334 2.209-2.99C6.716 7.94 8.56 7.109 11.856 7.112Z" clip-rule="evenodd" opacity=".8"/>
  <path stroke="#004C78" stroke-width=".139" d="M11.81 7.347c3.376-.191 6.651 1.79 9.091 3.589.87.64 2.898 1.887 2.331 2.89-.731.838-2.277.462-4.566 1.55-3.04 1.443-3.267 2.292-6.762 2.316-3.616.026-3.748-.966-6.951-2.384C2.425 14.19.975 14.615.656 13.746c-.39-1.065 1.338-2.188 2.227-2.81 4.034-2.82 5.781-3.592 8.926-3.589Z" clip-rule="evenodd" opacity=".8"/>
  <path stroke="#004C78" stroke-width=".139" d="M11.85 7.469c3.28-.189 6.451 1.698 8.821 3.47.845.632 3.097 2.053 2.319 2.874-.728.768-2.266.428-4.49 1.5-2.952 1.422-3.173 2.204-6.568 2.228-3.512.026-3.64-.898-6.752-2.294-2.456-1.103-3.972-.685-4.282-1.542-.379-1.048 1.408-2.153 2.272-2.766 3.918-2.779 5.625-3.473 8.68-3.47Z" clip-rule="evenodd" opacity=".8"/>
  <path stroke="#004C78" stroke-width=".139" d="M11.842 7.232c3.477-.197 6.806 1.848 9.318 3.704.895.661 2.828 1.912 2.244 2.947-.753.864-2.166.482-4.54 1.553-3.158 1.425-3.335 2.375-6.934 2.4-3.723.027-3.852-1.019-7.107-2.452-2.578-1.135-4.043-.72-4.354-1.54-.426-1.124 1.225-2.204 2.192-2.894 3.976-2.84 5.942-3.721 9.18-3.718Z" clip-rule="evenodd" opacity=".8"/>
  <path stroke="#004C78" stroke-width=".084" d="M11.877 8.89c2.54-.001 4.31.357 9.524 4.131.355.257 1.252.617 1.05.805-.6.56-.832.011-2.227.397-2.66.737-5.488 2.485-8.286 2.477-2.826-.008-3.907-1.077-8.251-2.442-.591-.186-1.93-.005-2.21-.418-.237-.353.65-.557 1.085-.86 5.89-4.091 6.797-4.09 9.315-4.09Z" clip-rule="evenodd" opacity=".7"/>
  <path stroke="#004C78" stroke-width=".084" d="M11.87 8.957c2.477-.004 4.337.35 9.342 4.033.346.254 1.255.613 1.131.796-.31.458-.992.044-2.25.404-2.586.741-5.415 2.385-8.154 2.405-2.756.021-3.9-1.04-8.158-2.378-.579-.182-1.913-.027-2.196-.364-.268-.319.739-.606 1.165-.902 5.772-4.01 6.68-3.99 9.12-3.994Z" clip-rule="evenodd" opacity=".7"/>
  <path stroke="#004C78" stroke-width=".084" d="M11.883 9.021c2.409 0 4.284.32 9.144 3.938.338.251 1.29.652 1.168.814-.27.36-1.073.049-2.277.377-2.518.687-5.292 2.35-7.979 2.342-2.715-.007-3.865-1.004-8.037-2.315-.567-.179-1.912-.068-2.195-.337-.296-.282.81-.63 1.227-.92 5.657-3.93 6.532-3.9 8.95-3.899Z" clip-rule="evenodd" opacity=".7"/>
  <path stroke="#004C78" stroke-width=".084" d="M11.887 9.088c2.393-.006 4.118.273 8.96 3.854.33.245 1.438.686 1.213.817-.552.324-.984 0-2.303.35-2.514.67-5.184 2.303-7.818 2.295-2.66-.007-3.867-.996-7.956-2.281-.556-.175-1.818-.067-2.142-.323-.313-.249.864-.612 1.274-.896 5.543-3.851 6.402-3.81 8.772-3.816Z" clip-rule="evenodd" opacity=".7"/>
  <path stroke="#004C78" stroke-width=".084" d="M11.892 9.15c2.331-.011 4.113.319 8.794 3.76.326.24 1.481.708 1.253.822-.566.283-1.07-.006-2.357.35-2.454.68-5.062 2.256-7.642 2.25-2.607-.008-3.732-.983-7.741-2.236-.862-.27-2.033-.109-2.236-.323-.243-.256.927-.593 1.329-.872 5.432-3.775 6.278-3.738 8.6-3.75Z" clip-rule="evenodd" opacity=".7"/>
  <path stroke="#004C78" stroke-width=".139" d="M15.527 15.578c.534.313.93.606.687 1.454m.633-.323c.243-.7-.301-1.388-.673-1.388m1.266 1.038c.256-.606-.337-1.226-.647-1.307m1.28.957c.148-.647-.364-1.091-.633-1.186m1.212.876a.952.952 0 0 0-.646-1.105m1.172.836c.107-.674-.189-1.038-.472-1.105m.916.915c.31-.66-.067-1.05-.215-1.13m.687.97c.417-.769.134-1.065-.027-1.105m.673-.095c.404.512-.036 1.064-.08 1.064m.646-1.077c.404.458-.006.902-.014.902m.498-.969c.297.484-.041.875-.093.875m.242-.943c.445.203.593.58.58.782m-.553-.849c0 .03.795.161 1.751.053m-.175-.821c-.175.242-.777.606-1.738.606m1.132-1.333c0 .655-.741.875-1.388 1.185m.755-1.765c0 .901-.714 1.24-1.213 1.536m.54-2.007c0 .938-.58 1.374-1.065 1.697m.485-2.142c0 .953-.525 1.415-1.078 1.725m.485-2.142c0 .953-.525 1.36-1.064 1.724m.364-2.196c0 1.043-.364 1.576-.849 1.886m.148-2.343a2.065 2.065 0 0 1-.646 1.993m-.135-2.451c.431.875-.188 1.67-.471 2.087M17.71 8.6c.282 1.105-.243 1.805-.566 1.994m-.149-2.358c.337 1.051-.202 1.67-.498 2.007m-.094-2.263c.215.822-.202 1.738-.54 1.954M7.458 7.922c-.17 1.167.36 1.886.548 2.02M6.902 8.173c-.315 1.159.341 1.958.476 2.093M6.255 8.488c-.368 1.14.323 1.94.512 2.12M5.555 8.883c-.26 1.086.377 1.913.583 2.128M4.845 9.323c-.072 1.086.458 1.912.71 2.065M4.127 9.78c-.189.944.557 1.779.889 1.931m-1.563-1.472c-.125.96.674 1.571 1.096 1.787m-1.706-1.374a1.9 1.9 0 0 0 1.14 1.76m-1.724-1.32c-.063.952.673 1.59 1.131 1.733m-1.679-1.374c-.072.997.7 1.428 1.069 1.706M.93 12.143c0 .665.772.933 1.4 1.203m-2.002-.422c0 .318.746.494 1.706.575m-1.822.206s.772.135 1.706 0m-.584.835c0-.424.323-.7.629-.767m.134.058c-.251.467.065.898.144.898m.314-.835c-.332.476.02.898.045.898m.539-.88c-.377.547.052 1.032.117 1.032m.484-.961c-.358.575.02 1.114.046 1.114m.511.216c-.314-.683.065-1.15.144-1.15M4.8 15.52c-.296-.647.145-1.141.324-1.141m.107 1.347c0-.61.297-1.051.602-1.105m-.009 1.401c-.126-.673.332-1.095.62-1.158m-.045 1.455c-.126-.755.35-1.123.655-1.23m-.071 1.561c-.054-.754.386-1.23.736-1.301m-.162 1.625c-.134-.853.422-1.302.79-1.383" opacity=".8"/>
  <path fill="url(#e)" fill-rule="evenodd" stroke="#004C78" stroke-width=".139" d="M20.904 13.191c.097.068.192.106.298.164.085.046.173.09.26.136.066.036.19.112.115.2-.049.057-.167.048-.237.058-.11.015-.246.01-.355 0-.135-.011-.276.02-.413.02-.099 0-.198.005-.296.004-.035 0-.08.008-.104-.023-.025-.032-.007-.068.012-.095.024-.031.046-.074.074-.1.025-.021.059-.037.084-.056.062-.048.083-.098.028-.16-.054-.061-.094-.104-.097-.191-.003-.11.067-.133.161-.158.141-.036.13-.012.247.056.057.032.196.127.223.146Z" clip-rule="evenodd" opacity=".5"/>
  <path fill="#262261" d="M20.634 13.467c-.016.108.114.113.191.113a.188.188 0 0 0 .103-.028c.022-.014.02-.034-.01-.034-.05 0-.152.003-.14-.075.006-.039-.138-.012-.143.024Z" opacity=".5"/>
  <path stroke="#1B75BC" stroke-width=".056" d="M20.877 13.264c.071.05.14.077.217.12.063.033.127.065.19.099.049.026.14.081.084.145-.035.042-.122.036-.173.043a1.24 1.24 0 0 1-.259 0c-.098-.009-.2.015-.3.015-.073 0-.145.003-.216.002-.026 0-.059.006-.076-.016-.018-.024-.006-.05.009-.07.017-.023.033-.054.053-.072.019-.016.043-.028.062-.042.045-.035.06-.071.02-.116-.04-.045-.068-.076-.07-.14-.003-.08.048-.097.117-.114.103-.027.094-.009.18.04.041.024.143.093.162.106Z" clip-rule="evenodd" opacity=".5"/>
  <path stroke="#1B75BC" stroke-width=".056" d="M20.844 13.344c.047.032.092.05.143.078l.124.065c.032.018.092.054.055.096-.023.027-.08.023-.113.028a.82.82 0 0 1-.17 0c-.064-.006-.132.01-.197.01l-.142.001c-.017 0-.038.004-.05-.01-.012-.016-.003-.033.006-.046.011-.015.022-.036.035-.048.013-.01.029-.018.04-.027.03-.023.04-.047.014-.076-.026-.03-.045-.05-.046-.092-.002-.053.032-.064.077-.075.067-.018.061-.006.118.026.027.016.094.061.106.07Z" clip-rule="evenodd" opacity=".5"/>
  <path fill="url(#f)" fill-rule="evenodd" stroke="#004C78" stroke-width=".139" d="M2.901 13.236c-.1.065-.194.1-.302.155l-.263.13c-.068.034-.194.106-.121.196.047.059.166.053.236.065.11.018.245.015.355.009.135-.008.275.027.412.03.098.004.198.01.296.013.035 0 .08.01.104-.02.026-.032.01-.068-.01-.096-.022-.032-.043-.075-.07-.101-.025-.023-.058-.04-.083-.06-.06-.049-.08-.1-.024-.16s.097-.102.102-.188c.006-.11-.06-.154-.157-.162-.125-.01-.12.015-.244.061-.06.023-.203.11-.23.128Z" clip-rule="evenodd" opacity=".5"/>
  <path fill="#262261" d="M3.018 13.524a.064.064 0 0 1-.004.038s-.006.008-.003.006c.006-.005.015-.006.022-.008a.243.243 0 0 1-.063.003.184.184 0 0 0-.103.027c-.023.015-.02.034.01.035.09.002.304-.006.287-.14-.004-.032-.15-.002-.146.039Z" opacity=".5"/>
  <path stroke="#1B75BC" stroke-width=".056" d="M2.926 13.31c-.072.047-.142.073-.22.113l-.192.094c-.05.025-.142.078-.088.144.034.042.12.038.171.046.08.014.18.012.26.007.098-.006.2.02.3.023.072.002.144.007.215.008.026.001.058.008.076-.014.02-.023.007-.05-.007-.07-.016-.023-.031-.055-.051-.074-.018-.017-.042-.028-.06-.043-.045-.036-.06-.073-.018-.117.04-.043.07-.074.074-.137.005-.08-.046-.099-.114-.118-.102-.03-.094-.011-.181.036a3.543 3.543 0 0 0-.165.101Z" clip-rule="evenodd" opacity=".5"/>
  <path stroke="#1B75BC" stroke-width=".056" d="M2.957 13.39c-.048.03-.093.048-.145.074l-.126.062c-.032.016-.093.05-.058.094.023.028.08.025.113.03a.812.812 0 0 0 .17.005c.065-.004.132.013.197.015l.142.006c.016 0 .038.005.05-.01.012-.015.004-.033-.005-.046-.01-.015-.021-.036-.034-.048-.012-.011-.028-.019-.04-.029-.028-.023-.038-.047-.011-.076.027-.029.046-.049.049-.09.003-.053-.03-.065-.075-.078-.067-.019-.062-.007-.12.024a2.084 2.084 0 0 0-.107.067Z" clip-rule="evenodd" opacity=".5"/>
  <defs>
    <linearGradient id="b" x1="11.973" x2="11.973" y1="7.127" y2="17.994" gradientUnits="userSpaceOnUse">
      <stop offset=".472" stop-color="#C7E9F2"/>
      <stop offset=".57" stop-color="#B2DFF1"/>
      <stop offset="1" stop-color="#45BEEE"/>
    </linearGradient>
    <linearGradient id="c" x1="11.944" x2="11.944" y1="16.25" y2="9.084" gradientUnits="userSpaceOnUse">
      <stop offset=".418" stop-color="#fff"/>
      <stop offset=".492" stop-color="#DEF1F8"/>
      <stop offset=".669" stop-color="#9CD7EC"/>
      <stop offset=".819" stop-color="#65C7E5"/>
      <stop offset=".934" stop-color="#34BEE0"/>
      <stop offset="1" stop-color="#04BBDF"/>
    </linearGradient>
    <linearGradient id="e" x1="21.601" x2="20.16" y1="13.374" y2="13.374" gradientUnits="userSpaceOnUse">
      <stop stop-color="#fff"/>
      <stop offset=".114" stop-color="#E0EDF4"/>
      <stop offset=".337" stop-color="#AACEE1"/>
      <stop offset=".544" stop-color="#80B5D3"/>
      <stop offset=".731" stop-color="#61A3C8"/>
      <stop offset=".889" stop-color="#4F98C1"/>
      <stop offset="1" stop-color="#4894BF"/>
    </linearGradient>
    <linearGradient id="f" x1="2.2" x2="3.64" y1="13.408" y2="13.445" gradientUnits="userSpaceOnUse">
      <stop stop-color="#fff"/>
      <stop offset=".114" stop-color="#E0EDF4"/>
      <stop offset=".337" stop-color="#AACEE1"/>
      <stop offset=".544" stop-color="#80B5D3"/>
      <stop offset=".731" stop-color="#61A3C8"/>
      <stop offset=".889" stop-color="#4F98C1"/>
      <stop offset="1" stop-color="#4894BF"/>
    </linearGradient>
    <radialGradient id="a" cx="0" cy="0" r="1" gradientTransform="translate(11.944 12.197) scale(4.26358)" gradientUnits="userSpaceOnUse">
      <stop offset=".533" stop-color="#1B617E"/>
      <stop offset=".563" stop-color="#457E96"/>
      <stop offset=".598" stop-color="#709CAE"/>
      <stop offset=".637" stop-color="#97B7C4"/>
      <stop offset=".678" stop-color="#B7CDD6"/>
      <stop offset=".722" stop-color="#D1DFE5"/>
      <stop offset=".77" stop-color="#E6EEF1"/>
      <stop offset=".824" stop-color="#F4F7F9"/>
      <stop offset=".89" stop-color="#FCFDFE"/>
      <stop offset="1" stop-color="#fff"/>
    </radialGradient>
    <radialGradient id="d" cx="0" cy="0" r="1" gradientTransform="matrix(1.65155 0 0 1.70736 11.957 12.266)" gradientUnits="userSpaceOnUse">
      <stop offset=".802" stop-color="#091520"/>
      <stop offset=".824" stop-color="#0D1925"/>
      <stop offset=".854" stop-color="#162431"/>
      <stop offset=".888" stop-color="#233445"/>
      <stop offset=".927" stop-color="#324B65"/>
      <stop offset=".968" stop-color="#436A93"/>
      <stop offset="1" stop-color="#4D88C7"/>
    </radialGradient>
  </defs>
</svg>
