<svg viewBox="0 0 24 24" xmlns="http://www.w3.org/2000/svg">
<path fill-rule="evenodd" clip-rule="evenodd" d="M11.857 6.82752C15.396 6.6336 18.816 8.65728 21.373 10.4803C22.284 11.1302 24.217 12.3725 23.623 13.3891C22.856 14.2387 21.403 13.8134 19.003 14.9155C15.817 16.3786 15.608 17.2483 11.944 17.2733C8.154 17.2992 8.068 16.2998 4.711 14.8637C2.061 13.7309 0.592999 14.2397 0.278999 13.3507C-0.149001 12.1853 1.556 11.1101 2.488 10.4803C6.716 7.6224 8.56 6.82464 11.856 6.82752H11.857Z" fill="white" stroke="white" stroke-width="0.139"/>
<path d="M11.944 15.7565C14.324 15.7565 16.254 13.944 16.254 11.7091C16.254 9.47328 14.324 7.6608 11.944 7.6608C9.56403 7.6608 7.63403 9.47328 7.63403 11.7091C7.63403 13.944 9.56403 15.7565 11.944 15.7565Z" fill="url(#paint0_radial_1039_872)"/>
<path opacity="0.3" d="M11.944 15.4915C14.154 15.4915 15.944 13.8154 15.944 11.7475C15.944 9.67969 14.154 8.00352 11.944 8.00352C9.73397 8.00352 7.94397 9.67969 7.94397 11.7475C7.94397 13.8154 9.73397 15.4915 11.944 15.4915Z" fill="white" stroke="#004C78" stroke-width="1.672"/>
<path d="M11.944 15.7565C14.324 15.7565 16.254 13.944 16.254 11.7091C16.254 9.47328 14.324 7.6608 11.944 7.6608C9.56403 7.6608 7.63403 9.47328 7.63403 11.7091C7.63403 13.944 9.56403 15.7565 11.944 15.7565Z" fill="white" stroke="#002040" stroke-width="0.139"/>
<path d="M11.95 15.6778C14.26 15.6778 16.133 13.9238 16.133 11.761C16.133 9.59616 14.261 7.84224 11.95 7.84224C9.63997 7.84224 7.76697 9.59616 7.76697 11.76C7.76697 13.9238 9.63997 15.6778 11.95 15.6778Z" fill="white" stroke="#002040" stroke-width="0.139"/>
<path d="M11.9551 15.5808C14.1901 15.5808 16.0011 13.8893 16.0011 11.8042C16.0011 9.71809 14.1901 8.02753 11.9551 8.02753C9.72106 8.02753 7.90906 9.71809 7.90906 11.8042C7.90906 13.8893 9.72106 15.5808 11.9551 15.5808Z" fill="white" stroke="#002040" stroke-width="0.139"/>
<path d="M11.964 13.6656C13.034 13.6656 13.902 12.8323 13.902 11.8032C13.9019 11.435 13.7879 11.0752 13.5747 10.7692C13.3615 10.4632 13.0585 10.2248 12.7041 10.084C12.3498 9.94333 11.9599 9.90666 11.5838 9.97867C11.2077 10.0507 10.8623 10.2281 10.5913 10.4886C10.3202 10.7491 10.1357 11.0808 10.0611 11.442C9.98649 11.8031 10.0251 12.1773 10.172 12.5174C10.319 12.8574 10.5677 13.148 10.8866 13.3524C11.2056 13.5568 11.5806 13.6658 11.964 13.6656Z" fill="white" stroke="#002040" stroke-width="0.139"/>
<path d="M11.9461 14.063C12.2555 14.0635 12.5621 14.0055 12.8482 13.8922C13.1343 13.779 13.3944 13.6127 13.6135 13.403C13.8327 13.1932 14.0066 12.944 14.1255 12.6697C14.2443 12.3954 14.3057 12.1013 14.3061 11.8042C14.3061 10.5562 13.2491 9.54528 11.9461 9.54528C11.6366 9.54477 11.33 9.60281 11.0439 9.71606C10.7578 9.82932 10.4977 9.99558 10.2786 10.2054C10.0594 10.4151 9.88547 10.6643 9.76664 10.9386C9.64782 11.2129 9.58645 11.5071 9.58606 11.8042C9.58606 13.0522 10.6431 14.063 11.9461 14.063Z" fill="white" stroke="#002040" stroke-width="0.139"/>
<path d="M11.937 14.425C12.2995 14.4255 12.6586 14.3574 12.9937 14.2246C13.3288 14.0919 13.6334 13.8971 13.8901 13.6513C14.1468 13.4055 14.3505 13.1136 14.4896 12.7922C14.6287 12.4708 14.7006 12.1263 14.701 11.7782C14.7006 11.4302 14.6287 11.0857 14.4896 10.7643C14.3505 10.4429 14.1468 10.151 13.8901 9.90519C13.6334 9.65941 13.3288 9.46458 12.9937 9.33183C12.6586 9.19908 12.2995 9.13101 11.937 9.13152C11.5745 9.13114 11.2155 9.1993 10.8805 9.3321C10.5455 9.46491 10.241 9.65976 9.98446 9.90553C9.72789 10.1513 9.52426 10.4432 9.38519 10.7645C9.24612 11.0858 9.17434 11.4303 9.17395 11.7782C9.17434 12.1262 9.24612 12.4707 9.38519 12.792C9.52426 13.1133 9.72789 13.4052 9.98446 13.6509C10.241 13.8967 10.5455 14.0916 10.8805 14.2244C11.2155 14.3572 11.5745 14.4253 11.937 14.425Z" fill="white" stroke="#002040" stroke-width="0.139"/>
<path d="M11.964 14.7302C13.699 14.7302 15.105 13.4074 15.105 11.7754C15.105 10.1434 13.699 8.82048 11.965 8.82048C10.23 8.82048 8.823 10.1434 8.823 11.7754C8.823 13.4074 10.23 14.7302 11.964 14.7302Z" fill="white" stroke="#002040" stroke-width="0.139"/>
<path d="M11.944 15.0192C13.864 15.0192 15.419 13.56 15.419 11.761C15.419 9.96096 13.863 8.50175 11.944 8.50175C10.024 8.50175 8.46899 9.96096 8.46899 11.761C8.46899 13.56 10.025 15.0192 11.944 15.0192Z" fill="white" stroke="#002040" stroke-width="0.139"/>
<path d="M11.937 15.239C13.987 15.239 15.648 13.6906 15.648 11.7802C15.648 9.86975 13.987 8.32031 11.938 8.32031C9.88795 8.32031 8.22595 9.86975 8.22595 11.7802C8.22595 13.6906 9.88795 15.239 11.937 15.239Z" fill="white" stroke="#002040" stroke-width="0.139"/>
<path d="M11.944 15.433C14.101 15.433 15.85 13.7952 15.85 11.7734C15.85 9.75264 14.102 8.11392 11.944 8.11392C9.78703 8.11392 8.03803 9.75264 8.03803 11.7734C8.03803 13.7952 9.78703 15.433 11.944 15.433ZM10.781 10.6224L9.13003 8.63136ZM10.646 10.7261L8.72503 8.9664ZM10.934 10.4755L9.38903 8.43264ZM11.131 10.3891L9.64103 8.26848ZM11.4 10.2605L9.94703 8.09664ZM10.601 10.8816L8.46403 9.28608ZM10.512 11.0189L8.20403 9.66528ZM10.44 11.1917L7.98003 10.0704ZM10.377 11.3472L7.81703 10.4669ZM10.314 11.4931L7.71003 10.9075ZM10.296 11.6736L7.64703 11.303ZM10.314 11.8291L7.62903 11.7427ZM10.323 12.0019L7.64703 12.1651ZM10.341 12.1315L7.73703 12.5885ZM10.386 12.2947L7.86303 13.0195ZM10.476 12.4502L8.01603 13.3987ZM10.539 12.6048L8.23903 13.7952ZM10.62 12.7171L8.51003 14.1658ZM10.745 12.8726L8.77003 14.4672ZM10.871 12.9677L9.11103 14.7437ZM10.979 13.0704L9.45203 15.0278ZM11.131 13.1741L9.84703 15.2352ZM11.284 13.2432L10.242 15.4157ZM11.446 13.3123L10.637 15.5789ZM11.634 13.3901L11.068 15.6576ZM11.814 13.416L11.491 15.7344ZM11.948 13.4419L11.944 15.7555ZM12.101 13.4496L12.398 15.7258ZM12.254 13.416L12.838 15.6653ZM12.415 13.3123L13.251 15.5366ZM12.568 13.2259L13.664 15.4147ZM12.739 13.1568L14.068 15.2256ZM12.892 13.0618L14.445 15.0192ZM13.053 12.9763L14.804 14.7523ZM13.17 12.8544L15.11 14.4576ZM13.26 12.7344L15.397 14.1398ZM13.403 12.6144L15.603 13.7866ZM13.448 12.4589L15.828 13.416ZM13.511 12.2947L15.999 13.0627ZM13.556 12.1488L16.133 12.5971ZM13.583 12.0192L16.223 12.1478ZM13.6 11.7946L16.25 11.761ZM13.592 11.6573L16.232 11.3376ZM13.556 11.5104L16.169 10.9066ZM13.547 11.3549L16.052 10.4842ZM13.457 11.1917L15.882 10.0704ZM13.403 11.0189L15.693 9.69984ZM13.296 10.8979L15.442 9.33792ZM13.17 10.752L15.146 9.01056ZM13.035 10.5965L14.858 8.73408ZM12.873 10.5024L14.553 8.48448ZM12.775 10.3814L14.203 8.25216ZM12.496 10.2778L13.8 8.0448ZM12.317 10.1654L13.358 7.872ZM12.12 10.1309L12.883 7.76928ZM11.93 10.105L11.922 7.6656ZM11.868 10.1136L11.383 7.67424ZM10.413 7.9152L11.553 10.1741ZM10.925 7.76928L11.706 10.1568ZM12.02 10.1222L12.389 7.69152Z" fill="white"/>
<path d="M10.781 10.6224L9.13003 8.63136M10.646 10.7261L8.72503 8.9664M10.934 10.4755L9.38903 8.43264M11.131 10.3891L9.64103 8.26848M11.4 10.2605L9.94703 8.09664M10.601 10.8816L8.46403 9.28608M10.512 11.0189L8.20403 9.66528M10.44 11.1917L7.98003 10.0704M10.377 11.3472L7.81703 10.4669M10.314 11.4931L7.71003 10.9075M10.296 11.6736L7.64703 11.303M10.314 11.8291L7.62903 11.7427M10.323 12.0019L7.64703 12.1651M10.341 12.1315L7.73703 12.5885M10.386 12.2947L7.86303 13.0195M10.476 12.4502L8.01603 13.3987M10.539 12.6048L8.23903 13.7952M10.62 12.7171L8.51003 14.1658M10.745 12.8726L8.77003 14.4672M10.871 12.9677L9.11103 14.7437M10.979 13.0704L9.45203 15.0278M11.131 13.1741L9.84703 15.2352M11.284 13.2432L10.242 15.4157M11.446 13.3123L10.637 15.5789M11.634 13.3901L11.068 15.6576M11.814 13.416L11.491 15.7344M11.948 13.4419L11.944 15.7555M12.101 13.4496L12.398 15.7258M12.254 13.416L12.838 15.6653M12.415 13.3123L13.251 15.5366M12.568 13.2259L13.664 15.4147M12.739 13.1568L14.068 15.2256M12.892 13.0618L14.445 15.0192M13.053 12.9763L14.804 14.7523M13.17 12.8544L15.11 14.4576M13.26 12.7344L15.397 14.1398M13.403 12.6144L15.603 13.7866M13.448 12.4589L15.828 13.416M13.511 12.2947L15.999 13.0627M13.556 12.1488L16.133 12.5971M13.583 12.0192L16.223 12.1478M13.6 11.7946L16.25 11.761M13.592 11.6573L16.232 11.3376M13.556 11.5104L16.169 10.9066M13.547 11.3549L16.052 10.4842M13.457 11.1917L15.882 10.0704M13.403 11.0189L15.693 9.69984M13.296 10.8979L15.442 9.33792M13.17 10.752L15.146 9.01056M13.035 10.5965L14.858 8.73408M12.873 10.5024L14.553 8.48448M12.775 10.3814L14.203 8.25216M12.496 10.2778L13.8 8.0448M12.317 10.1654L13.358 7.872M12.12 10.1309L12.883 7.76928M11.93 10.105L11.922 7.6656M11.868 10.1136L11.383 7.67424M10.413 7.9152L11.553 10.1741M10.925 7.76928L11.706 10.1568M12.02 10.1222L12.389 7.69152M11.944 15.433C14.101 15.433 15.85 13.7952 15.85 11.7734C15.85 9.75264 14.102 8.11392 11.944 8.11392C9.78703 8.11392 8.03803 9.75264 8.03803 11.7734C8.03803 13.7952 9.78703 15.433 11.944 15.433Z" stroke="#002040" stroke-width="0.139"/>
<path d="M8.20004 9.4464C8.32904 9.25824 8.35404 9.024 8.50904 8.84736C8.67404 8.66016 8.88603 8.42016 9.09103 8.27136C9.35603 8.07936 9.74604 7.92864 10.056 7.82016C10.281 7.74048 10.504 7.70592 10.741 7.64928C11.295 7.51584 11.831 7.45728 12.411 7.48032C12.906 7.49952 13.421 7.584 13.866 7.79136C14.121 7.9104 14.344 8.08224 14.57 8.22624C14.776 8.35776 14.918 8.4672 15.078 8.6352C15.245 8.80896 15.547 9.13728 15.533 9.38688C14.6 9.09024 13.693 8.83008 12.703 8.79936C11.729 8.77056 10.409 8.832 9.70104 8.96448C9.27604 9.04416 8.67404 9.25248 8.18604 9.44544M10.175 15.4291C10.7919 15.5543 11.4216 15.6123 12.052 15.6019C12.755 15.5827 13.132 15.528 13.94 15.3466C13.564 15.7622 13.32 15.8294 12.834 15.913C12.434 15.9821 12.017 15.9062 11.609 15.9082C11.273 15.9101 10.856 15.9456 10.548 15.8122C10.395 15.745 10.379 15.6461 10.28 15.5491" fill="white"/>
<path opacity="0.6" fill-rule="evenodd" clip-rule="evenodd" d="M11.854 6.85536C15.394 6.66144 18.816 8.65728 21.374 10.4803C22.284 11.1302 24.217 12.3734 23.623 13.3901C22.856 14.2387 21.403 13.8134 19.003 14.9165C15.817 16.3786 15.608 17.2493 11.944 17.2742C8.154 17.2992 8.068 16.3008 4.711 14.8646C2.061 13.7309 0.592999 14.2397 0.278999 13.3517C-0.149001 12.1853 1.556 11.1101 2.488 10.4813C6.716 7.6224 8.558 6.85248 11.854 6.85536Z" fill="url(#paint1_linear_1039_872)"/>
<path opacity="0.4" fill-rule="evenodd" clip-rule="evenodd" d="M11.89 8.73311C14.22 8.62943 15.976 9.06911 20.686 12.3168C21.014 12.5434 22.167 12.9965 21.939 13.1059C21.373 13.3776 20.869 13.1002 19.582 13.4419C17.128 14.0938 14.52 15.6077 11.94 15.6C9.333 15.5933 8.208 14.6573 4.199 13.4544C3.337 13.1962 2.179 13.3392 1.963 13.1443C1.676 12.887 2.89 12.575 3.292 12.3072C8.724 8.68415 9.567 8.73119 11.889 8.73311H11.89Z" fill="url(#paint2_linear_1039_872)"/>
<g opacity="0.5">
<path fill-rule="evenodd" clip-rule="evenodd" d="M13.2461 10.0291C13.1691 9.64224 12.8441 9.48192 12.5551 9.52416L13.2461 10.0291Z" fill="white"/>
<path d="M13.766 9.89472C13.663 9.43872 13.23 9.27744 12.782 9.3312C12.551 9.36 12.267 9.4128 12.085 9.5664C11.908 9.71616 12.241 9.72672 12.327 9.71616C12.43 9.70368 12.232 9.71232 12.336 9.7152C12.261 9.71328 12.354 9.72192 12.367 9.7248C12.41 9.7344 12.457 9.7632 12.502 9.792C12.632 9.87744 12.693 10.0195 12.725 10.1626C12.758 10.3075 13.211 10.1923 13.286 10.1731C13.374 10.151 13.8 10.0445 13.766 9.89472Z" fill="white"/>
</g>
<g opacity="0.58">
<path d="M13.6 11.7754C13.6 12.6854 12.865 13.4227 11.957 13.4227C11.05 13.4227 10.314 12.6854 10.314 11.7754C10.314 10.8653 11.05 10.128 11.957 10.128C12.865 10.128 13.6 10.8653 13.6 11.7754Z" fill="url(#paint3_radial_1039_872)"/>
<path d="M11.946 9.54527L11.944 14.0045Z" fill="white"/>
<path d="M11.946 9.54527L11.944 14.0045" stroke="white" stroke-width="0.139"/>
<g opacity="0.75">
<path d="M9.72998 11.8046L14.225 11.7946Z" fill="white"/>
<path d="M9.72998 11.8046L14.225 11.7946" stroke="white" stroke-width="0.223"/>
</g>
<path opacity="0.76" d="M11.955 12.5318C12.363 12.5318 12.694 12.2006 12.694 11.7907C12.694 11.3808 12.364 11.0496 11.955 11.0496C11.547 11.0496 11.217 11.3808 11.217 11.7907C11.217 12.2006 11.547 12.5318 11.955 12.5318Z" fill="white" stroke="white" stroke-width="0.223"/>
<path opacity="0.79" d="M11.95 13.3901C12.855 13.3901 13.587 12.6701 13.587 11.7821C13.587 10.8941 12.855 10.1741 11.951 10.1741C11.047 10.1741 10.314 10.8941 10.314 11.7821C10.314 12.6701 11.047 13.3901 11.951 13.3901H11.95Z" fill="white" stroke="white" stroke-width="0.223"/>
<path d="M11.9399 12.024C12.0829 12.024 12.1999 11.9155 12.1999 11.7821C12.1986 11.7171 12.1705 11.6552 12.1218 11.61C12.0731 11.5649 12.0077 11.5401 11.9399 11.5411C11.8722 11.5401 11.8068 11.5649 11.7581 11.61C11.7093 11.6552 11.6812 11.7171 11.6799 11.7821C11.6799 11.9165 11.7959 12.024 11.9399 12.024Z" fill="white" stroke="white" stroke-width="0.139"/>
</g>
<path opacity="0.8" d="M11.857 6.82752C15.396 6.6336 18.816 8.65728 21.373 10.4803C22.284 11.1302 24.217 12.3725 23.623 13.3891C22.856 14.2387 21.403 13.8134 19.003 14.9155C15.817 16.3786 15.608 17.2483 11.944 17.2733C8.154 17.2992 8.068 16.2998 4.711 14.8637C2.061 13.7309 0.592999 14.2397 0.278999 13.3507C-0.149001 12.1853 1.556 11.1101 2.488 10.4803C6.716 7.6224 8.56 6.82464 11.856 6.82752H11.857Z" fill="white" stroke="#004C78" stroke-width="0.139"/>
<path opacity="0.8" d="M11.81 7.05312C15.186 6.86976 18.461 8.77152 20.901 10.4986C21.771 11.113 23.799 12.3101 23.232 13.273C22.501 14.0774 20.955 13.7165 18.666 14.761C15.626 16.1462 15.399 16.9613 11.904 16.9843C8.28803 17.0093 8.15603 16.057 4.95303 14.6957C2.42503 13.6224 0.975033 14.0304 0.656033 13.1962C0.266033 12.1738 1.99403 11.0957 2.88303 10.4986C6.91703 7.79136 8.66403 7.05024 11.809 7.05312H11.81Z" fill="white" stroke="#004C78" stroke-width="0.139"/>
<path opacity="0.8" d="M11.85 7.17023C15.13 6.98879 18.301 8.80031 20.671 10.5014C21.516 11.1082 23.768 12.4723 22.99 13.2605C22.262 13.9978 20.724 13.6714 18.5 14.7005C15.548 16.0656 15.327 16.8163 11.932 16.8394C8.41998 16.8643 8.29197 15.9773 5.17997 14.6371C2.72397 13.5782 1.20797 13.9795 0.897975 13.1568C0.518975 12.1507 2.30598 11.0899 3.16998 10.5014C7.08798 7.83359 8.79498 7.16735 11.85 7.17023Z" fill="white" stroke="#004C78" stroke-width="0.139"/>
<path opacity="0.8" d="M11.842 6.94272C15.319 6.7536 18.648 8.7168 21.16 10.4986C22.055 11.1331 23.988 12.3341 23.404 13.3277C22.651 14.1571 21.238 13.7904 18.864 14.8186C15.706 16.1866 15.529 17.0986 11.93 17.1226C8.20701 17.1485 8.07801 16.1443 4.82301 14.7686C2.24501 13.679 0.780009 14.0774 0.469009 13.2902C0.0430089 12.2112 1.69401 11.1744 2.66101 10.512C6.63701 7.7856 8.60301 6.93984 11.841 6.94272H11.842Z" fill="white" stroke="#004C78" stroke-width="0.139"/>
<path opacity="0.7" d="M11.8769 8.5344C14.4169 8.53344 16.1869 8.87711 21.4009 12.5002C21.7559 12.7469 22.6529 13.0925 22.4509 13.273C21.8509 13.8106 21.6189 13.2835 20.2239 13.6541C17.5639 14.3616 14.7359 16.0397 11.9379 16.032C9.11195 16.0243 8.03095 14.9981 3.68695 13.6877C3.09595 13.5091 1.75695 13.6829 1.47695 13.2864C1.23995 12.9475 2.12695 12.7517 2.56195 12.4608C8.45195 8.53343 9.35895 8.5344 11.8769 8.5344Z" fill="white" stroke="#004C78" stroke-width="0.084"/>
<path opacity="0.7" d="M11.87 8.59873C14.347 8.59489 16.207 8.93473 21.212 12.4704C21.558 12.7142 22.467 13.0589 22.343 13.2346C22.033 13.6742 21.351 13.2768 20.093 13.6224C17.507 14.3338 14.678 15.912 11.939 15.9312C9.18298 15.9514 8.03898 14.9328 3.78098 13.6483C3.20198 13.4736 1.86798 13.6224 1.58498 13.2989C1.31698 12.9926 2.32398 12.7171 2.74998 12.433C8.52198 8.58337 9.42998 8.60257 11.87 8.59873Z" fill="white" stroke="#004C78" stroke-width="0.084"/>
<path opacity="0.7" d="M11.883 8.66016C14.292 8.66016 16.167 8.96736 21.027 12.4406C21.365 12.6816 22.317 13.0666 22.195 13.2221C21.925 13.5677 21.122 13.2691 19.918 13.584C17.4 14.2435 14.626 15.84 11.939 15.8323C9.22403 15.8256 8.07403 14.8685 3.90203 13.6099C3.33503 13.4381 1.99003 13.5446 1.70703 13.2864C1.41103 13.0157 2.51703 12.6816 2.93403 12.4032C8.59103 8.6304 9.46503 8.6592 11.883 8.66016Z" fill="white" stroke="#004C78" stroke-width="0.084"/>
<path opacity="0.7" d="M11.887 8.72448C14.28 8.71872 16.005 8.98656 20.847 12.4243C21.177 12.6595 22.285 13.0829 22.06 13.2086C21.508 13.5197 21.076 13.2086 19.757 13.5446C17.243 14.1878 14.573 15.7555 11.939 15.7478C9.279 15.7411 8.072 14.7917 3.983 13.5581C3.427 13.3901 2.165 13.4938 1.841 13.248C1.528 13.009 2.705 12.6605 3.115 12.3878C8.658 8.69088 9.517 8.73024 11.887 8.72448Z" fill="white" stroke="#004C78" stroke-width="0.084"/>
<path opacity="0.7" d="M11.8919 8.784C14.2229 8.77344 16.0049 9.09024 20.6859 12.3936C21.0119 12.624 22.1669 13.0733 21.9389 13.1827C21.3729 13.4544 20.8689 13.177 19.5819 13.5187C17.1279 14.1715 14.5199 15.6845 11.9399 15.6787C9.33294 15.671 8.20794 14.735 4.19894 13.5322C3.33694 13.273 2.16594 13.4275 1.96294 13.2221C1.71994 12.9763 2.88994 12.6528 3.29194 12.385C8.72394 8.76096 9.56994 8.79648 11.8919 8.78496V8.784Z" fill="white" stroke="#004C78" stroke-width="0.084"/>
<g opacity="0.8">
<path d="M15.527 14.9549C16.061 15.2554 16.457 15.5366 16.214 16.3507ZM16.847 16.0406C17.09 15.3686 16.546 14.7082 16.174 14.7082ZM17.44 15.7046C17.696 15.1229 17.103 14.5277 16.793 14.4499ZM18.073 15.3686C18.221 14.7475 17.709 14.3213 17.44 14.2301ZM18.652 15.071C18.701 14.8488 18.6619 14.617 18.5425 14.4209C18.423 14.2247 18.2318 14.0784 18.006 14.0102M19.178 14.8128C19.285 14.1658 18.989 13.8163 18.706 13.752ZM19.622 14.6304C19.932 13.9968 19.555 13.6224 19.407 13.5456ZM20.094 14.4768C20.511 13.7386 20.228 13.4544 20.067 13.416ZM20.74 13.3248C21.144 13.8163 20.704 14.3462 20.66 14.3462ZM21.306 13.3123C21.71 13.752 21.3 14.1782 21.292 14.1782ZM21.79 13.248C22.087 13.7126 21.749 14.088 21.697 14.088ZM21.939 13.1827C22.384 13.3776 22.532 13.7395 22.519 13.9334ZM21.966 13.1184C21.966 13.1472 22.761 13.273 23.717 13.1693ZM23.542 12.3811C23.367 12.6134 22.765 12.9629 21.804 12.9629ZM22.936 11.6832C22.936 12.312 22.195 12.5232 21.548 12.8208ZM22.303 11.1264C22.303 11.9914 21.589 12.3168 21.09 12.601ZM21.63 10.6742C21.63 11.5747 21.05 11.9933 20.565 12.3034ZM21.05 10.247C21.05 11.1619 20.525 11.6054 19.972 11.903ZM20.457 9.84672C20.457 10.7616 19.932 11.1523 19.393 11.5018ZM19.757 9.3936C19.757 10.3949 19.393 10.9066 18.908 11.2042ZM19.056 8.95488C19.1359 9.30012 19.1181 9.65958 19.0046 9.99601C18.891 10.3324 18.6857 10.6336 18.41 10.8682M18.275 8.5152C18.706 9.3552 18.087 10.1184 17.804 10.5187ZM17.71 8.256C17.992 9.3168 17.467 9.9888 17.144 10.1702ZM16.995 7.90656C17.332 8.91552 16.793 9.50976 16.497 9.83328ZM16.403 7.6608C16.618 8.44992 16.201 9.32928 15.863 9.53664ZM7.45804 7.60512C7.28804 8.72544 7.81804 9.41568 8.00604 9.54432ZM6.90204 7.84608C6.58704 8.95872 7.24304 9.72576 7.37804 9.85536ZM6.25504 8.14848C5.88704 9.24288 6.57804 10.0109 6.76704 10.1837ZM5.55504 8.52768C5.29504 9.57024 5.93204 10.3642 6.13804 10.5706ZM4.84504 8.95008C4.77304 9.99264 5.30304 10.7856 5.55504 10.9325ZM4.12704 9.3888C3.93804 10.295 4.68404 11.0966 5.01604 11.2426ZM3.45304 9.82944C3.32804 10.751 4.12704 11.3376 4.54904 11.545ZM2.84304 10.2259C2.83939 10.5839 2.94554 10.9349 3.14825 11.2354C3.35096 11.5358 3.64128 11.7724 3.98304 11.9155M2.25904 10.6483C2.19604 11.5622 2.93204 12.1747 3.39004 12.312ZM1.71104 10.993C1.63904 11.9501 2.41104 12.3638 2.78004 12.6307ZM0.930036 11.6573C0.930036 12.2957 1.70204 12.553 2.33004 12.8122ZM0.328036 12.407C0.328036 12.7123 1.07404 12.8813 2.03404 12.959ZM0.212036 13.1568C0.212036 13.1568 0.984036 13.2864 1.91804 13.1568ZM1.33404 13.9584C1.33404 13.5514 1.65704 13.2864 1.96304 13.2221ZM2.09704 13.2778C1.84604 13.7261 2.16204 14.1398 2.24104 14.1398ZM2.55504 13.3382C2.22304 13.7952 2.57504 14.2003 2.60004 14.2003ZM3.13904 13.3555C2.76204 13.8806 3.19104 14.3462 3.25604 14.3462ZM3.74004 13.4237C3.38204 13.9757 3.76004 14.4931 3.78604 14.4931ZM4.29704 14.7005C3.98304 14.0448 4.36204 13.5965 4.44104 13.5965ZM4.80004 14.8992C4.50404 14.2781 4.94504 13.8038 5.12404 13.8038ZM5.23104 15.097C5.23104 14.5114 5.52804 14.088 5.83304 14.0362ZM5.82404 15.3811C5.69804 14.735 6.15604 14.3299 6.44404 14.2694ZM6.39904 15.6662C6.27304 14.9414 6.74904 14.5882 7.05404 14.4854ZM6.98304 15.984C6.92904 15.2602 7.36904 14.8032 7.71904 14.735ZM7.55704 16.295C7.42304 15.4762 7.97904 15.0451 8.34704 14.9674Z" fill="white"/>
<path d="M15.527 14.9549C16.061 15.2554 16.457 15.5366 16.214 16.3507M16.847 16.0406C17.09 15.3686 16.546 14.7082 16.174 14.7082M17.44 15.7046C17.696 15.1229 17.103 14.5277 16.793 14.4499M18.073 15.3686C18.221 14.7475 17.709 14.3213 17.44 14.2301M18.652 15.071C18.701 14.8488 18.6619 14.617 18.5425 14.4209C18.423 14.2247 18.2318 14.0784 18.006 14.0102M19.178 14.8128C19.285 14.1658 18.989 13.8163 18.706 13.752M19.622 14.6304C19.932 13.9968 19.555 13.6224 19.407 13.5456M20.094 14.4768C20.511 13.7386 20.228 13.4544 20.067 13.416M20.74 13.3248C21.144 13.8163 20.704 14.3462 20.66 14.3462M21.306 13.3123C21.71 13.752 21.3 14.1782 21.292 14.1782M21.79 13.248C22.087 13.7126 21.749 14.088 21.697 14.088M21.939 13.1827C22.384 13.3776 22.532 13.7395 22.519 13.9334M21.966 13.1184C21.966 13.1472 22.761 13.273 23.717 13.1693M23.542 12.3811C23.367 12.6134 22.765 12.9629 21.804 12.9629M22.936 11.6832C22.936 12.312 22.195 12.5232 21.548 12.8208M22.303 11.1264C22.303 11.9914 21.589 12.3168 21.09 12.601M21.63 10.6742C21.63 11.5747 21.05 11.9933 20.565 12.3034M21.05 10.247C21.05 11.1619 20.525 11.6054 19.972 11.903M20.457 9.84672C20.457 10.7616 19.932 11.1523 19.393 11.5018M19.757 9.3936C19.757 10.3949 19.393 10.9066 18.908 11.2042M19.056 8.95488C19.1359 9.30012 19.1181 9.65958 19.0046 9.99601C18.891 10.3324 18.6857 10.6336 18.41 10.8682M18.275 8.5152C18.706 9.3552 18.087 10.1184 17.804 10.5187M17.71 8.256C17.992 9.3168 17.467 9.9888 17.144 10.1702M16.995 7.90656C17.332 8.91552 16.793 9.50976 16.497 9.83328M16.403 7.6608C16.618 8.44992 16.201 9.32928 15.863 9.53664M7.45804 7.60512C7.28804 8.72544 7.81804 9.41568 8.00604 9.54432M6.90204 7.84608C6.58704 8.95872 7.24304 9.72576 7.37804 9.85536M6.25504 8.14848C5.88704 9.24288 6.57804 10.0109 6.76704 10.1837M5.55504 8.52768C5.29504 9.57024 5.93204 10.3642 6.13804 10.5706M4.84504 8.95008C4.77304 9.99264 5.30304 10.7856 5.55504 10.9325M4.12704 9.3888C3.93804 10.295 4.68404 11.0966 5.01604 11.2426M3.45304 9.82944C3.32804 10.751 4.12704 11.3376 4.54904 11.545M2.84304 10.2259C2.83939 10.5839 2.94554 10.9349 3.14825 11.2354C3.35096 11.5358 3.64128 11.7724 3.98304 11.9155M2.25904 10.6483C2.19604 11.5622 2.93204 12.1747 3.39004 12.312M1.71104 10.993C1.63904 11.9501 2.41104 12.3638 2.78004 12.6307M0.930036 11.6573C0.930036 12.2957 1.70204 12.553 2.33004 12.8122M0.328036 12.407C0.328036 12.7123 1.07404 12.8813 2.03404 12.959M0.212036 13.1568C0.212036 13.1568 0.984036 13.2864 1.91804 13.1568M1.33404 13.9584C1.33404 13.5514 1.65704 13.2864 1.96304 13.2221M2.09704 13.2778C1.84604 13.7261 2.16204 14.1398 2.24104 14.1398M2.55504 13.3382C2.22304 13.7952 2.57504 14.2003 2.60004 14.2003M3.13904 13.3555C2.76204 13.8806 3.19104 14.3462 3.25604 14.3462M3.74004 13.4237C3.38204 13.9757 3.76004 14.4931 3.78604 14.4931M4.29704 14.7005C3.98304 14.0448 4.36204 13.5965 4.44104 13.5965M4.80004 14.8992C4.50404 14.2781 4.94504 13.8038 5.12404 13.8038M5.23104 15.097C5.23104 14.5114 5.52804 14.088 5.83304 14.0362M5.82404 15.3811C5.69804 14.735 6.15604 14.3299 6.44404 14.2694M6.39904 15.6662C6.27304 14.9414 6.74904 14.5882 7.05404 14.4854M6.98304 15.984C6.92904 15.2602 7.36904 14.8032 7.71904 14.735M7.55704 16.295C7.42304 15.4762 7.97904 15.0451 8.34704 14.9674" stroke="#004C78" stroke-width="0.139"/>
</g>
<path opacity="0.5" fill-rule="evenodd" clip-rule="evenodd" d="M20.904 12.6634C21.001 12.7286 21.096 12.7651 21.202 12.8208C21.287 12.865 21.375 12.9072 21.462 12.9514C21.528 12.9859 21.652 13.0589 21.577 13.1434C21.528 13.1981 21.41 13.1894 21.34 13.199C21.23 13.2134 21.094 13.2086 20.985 13.199C20.85 13.1885 20.709 13.2182 20.572 13.2182C20.473 13.2182 20.374 13.223 20.276 13.2221C20.241 13.2221 20.196 13.2298 20.172 13.2C20.147 13.1693 20.165 13.1347 20.184 13.1088C20.208 13.079 20.23 13.0378 20.258 13.0128C20.283 12.9926 20.317 12.9773 20.342 12.959C20.404 12.913 20.425 12.865 20.37 12.8054C20.316 12.7469 20.276 12.7056 20.273 12.6221C20.27 12.5165 20.34 12.4944 20.434 12.4704C20.575 12.4358 20.564 12.4589 20.681 12.5242C20.738 12.5549 20.877 12.6461 20.904 12.6643V12.6634Z" fill="url(#paint4_linear_1039_872)" stroke="#004C78" stroke-width="0.139"/>
<path opacity="0.5" d="M20.634 12.9283C20.618 13.032 20.748 13.0368 20.825 13.0368C20.8614 13.0376 20.8971 13.0282 20.928 13.0099C20.95 12.9965 20.948 12.9773 20.918 12.9773C20.868 12.9773 20.766 12.9802 20.778 12.9053C20.784 12.8678 20.639 12.8938 20.634 12.9283Z" fill="#262261"/>
<path opacity="0.5" d="M20.877 12.7334C20.948 12.7814 21.017 12.8074 21.094 12.8486C21.157 12.8803 21.221 12.911 21.284 12.9437C21.333 12.9686 21.424 13.0214 21.368 13.0829C21.333 13.1232 21.246 13.1174 21.195 13.1242C21.1089 13.1328 21.0221 13.1328 20.936 13.1242C20.838 13.1155 20.736 13.1386 20.636 13.1386C20.563 13.1386 20.491 13.1414 20.42 13.1405C20.394 13.1405 20.361 13.1462 20.344 13.1251C20.326 13.1021 20.338 13.0771 20.353 13.0579C20.37 13.0358 20.386 13.0061 20.406 12.9888C20.425 12.9734 20.449 12.9619 20.468 12.9485C20.513 12.9149 20.528 12.8803 20.488 12.8371C20.448 12.7939 20.42 12.7642 20.418 12.7027C20.415 12.6259 20.466 12.6096 20.535 12.5933C20.638 12.5674 20.629 12.5846 20.715 12.6317C20.756 12.6547 20.858 12.721 20.877 12.7334Z" fill="white" stroke="#1B75BC" stroke-width="0.056"/>
<path opacity="0.5" d="M20.8439 12.8102C20.8909 12.841 20.9359 12.8582 20.9869 12.8851L21.1109 12.9475C21.1429 12.9648 21.2029 12.9994 21.1659 13.0397C21.1429 13.0656 21.0859 13.0618 21.0529 13.0666C20.9964 13.0722 20.9395 13.0722 20.8829 13.0666C20.8189 13.0608 20.7509 13.0762 20.6859 13.0762L20.5439 13.0771C20.5269 13.0771 20.5059 13.081 20.4939 13.0675C20.4819 13.0522 20.4909 13.0358 20.4999 13.0234C20.5109 13.009 20.5219 12.9888 20.5349 12.9773C20.5479 12.9677 20.5639 12.96 20.5749 12.9514C20.6049 12.9293 20.6149 12.9062 20.5889 12.8784C20.5629 12.8496 20.5439 12.8304 20.5429 12.7901C20.5409 12.7392 20.5749 12.7286 20.6199 12.7181C20.6869 12.7008 20.6809 12.7123 20.7379 12.743C20.7649 12.7584 20.8319 12.8016 20.8439 12.8102Z" fill="white" stroke="#1B75BC" stroke-width="0.056"/>
<path opacity="0.5" fill-rule="evenodd" clip-rule="evenodd" d="M2.90104 12.7066C2.80104 12.769 2.70704 12.8026 2.59904 12.8554L2.33604 12.9802C2.26804 13.0128 2.14204 13.0819 2.21504 13.1683C2.26204 13.225 2.38104 13.2192 2.45104 13.2307C2.56104 13.248 2.69604 13.2451 2.80604 13.2394C2.94104 13.2317 3.08104 13.2653 3.21804 13.2682C3.31604 13.272 3.41604 13.2778 3.51404 13.2806C3.54904 13.2806 3.59404 13.2902 3.61804 13.2614C3.64404 13.2307 3.62804 13.1962 3.60804 13.1693C3.58604 13.1386 3.56504 13.0973 3.53804 13.0723C3.51304 13.0502 3.48004 13.0339 3.45504 13.0147C3.39504 12.9677 3.37504 12.9187 3.43104 12.8611C3.48704 12.8035 3.52804 12.7632 3.53304 12.6806C3.53904 12.575 3.47304 12.5328 3.37604 12.5251C3.25104 12.5155 3.25604 12.5395 3.13204 12.5837C3.07204 12.6058 2.92804 12.6893 2.90104 12.7066Z" fill="url(#paint5_linear_1039_872)" stroke="#004C78" stroke-width="0.139"/>
<path opacity="0.5" d="M3.01798 12.983C3.02055 12.9953 3.01915 13.008 3.01398 13.0195C3.01398 13.0195 3.00798 13.0272 3.01098 13.0253C3.01698 13.0205 3.02598 13.0195 3.03298 13.0176C3.0122 13.0212 2.99102 13.0222 2.96998 13.0205C2.93374 13.0192 2.8979 13.0282 2.86698 13.0464C2.84398 13.0608 2.84698 13.079 2.87698 13.08C2.96698 13.0819 3.18098 13.0742 3.16398 12.9456C3.15998 12.9149 3.01398 12.9437 3.01798 12.983Z" fill="#262261"/>
<path opacity="0.5" d="M2.926 12.7776C2.854 12.8227 2.784 12.8477 2.706 12.8861L2.514 12.9763C2.464 13.0003 2.372 13.0512 2.426 13.1146C2.46 13.1549 2.546 13.151 2.597 13.1587C2.677 13.1722 2.777 13.1702 2.857 13.1654C2.955 13.1597 3.057 13.1846 3.157 13.1875C3.229 13.1894 3.301 13.1942 3.372 13.1952C3.398 13.1962 3.43 13.2029 3.448 13.1818C3.468 13.1597 3.455 13.1338 3.441 13.1146C3.425 13.0925 3.41 13.0618 3.39 13.0435C3.372 13.0272 3.348 13.0166 3.33 13.0022C3.285 12.9677 3.27 12.9322 3.312 12.8899C3.352 12.8486 3.382 12.8189 3.386 12.7584C3.391 12.6816 3.34 12.6634 3.272 12.6451C3.17 12.6163 3.178 12.6346 3.091 12.6797C3.03509 12.7106 2.98007 12.7429 2.926 12.7766V12.7776Z" fill="white" stroke="#1B75BC" stroke-width="0.056"/>
<path opacity="0.5" d="M2.95706 12.8544C2.90906 12.8832 2.86406 12.9005 2.81206 12.9254L2.68606 12.985C2.65406 13.0003 2.59306 13.033 2.62806 13.0752C2.65106 13.1021 2.70806 13.0992 2.74106 13.104C2.7974 13.1113 2.85438 13.1129 2.91106 13.1088C2.97606 13.105 3.04306 13.1213 3.10806 13.1232L3.25006 13.129C3.26606 13.129 3.28806 13.1338 3.30006 13.1194C3.31206 13.105 3.30406 13.0877 3.29506 13.0752C3.28506 13.0608 3.27406 13.0406 3.26106 13.0291C3.24906 13.0186 3.23306 13.0109 3.22106 13.0013C3.19306 12.9792 3.18306 12.9562 3.21006 12.9283C3.23706 12.9005 3.25606 12.8813 3.25906 12.8419C3.26206 12.791 3.22906 12.7795 3.18406 12.767C3.11706 12.7488 3.12206 12.7603 3.06406 12.7901C3.02773 12.8105 2.99204 12.8319 2.95706 12.8544Z" fill="white" stroke="#1B75BC" stroke-width="0.056"/>
<defs>
<radialGradient id="paint0_radial_1039_872" cx="0" cy="0" r="1" gradientUnits="userSpaceOnUse" gradientTransform="translate(11.944 11.7091) scale(4.26358 4.09304)">
<stop offset="0.533" stop-color="#1B617E"/>
<stop offset="0.563" stop-color="#457E96"/>
<stop offset="0.598" stop-color="#709CAE"/>
<stop offset="0.637" stop-color="#97B7C4"/>
<stop offset="0.678" stop-color="#B7CDD6"/>
<stop offset="0.722" stop-color="#D1DFE5"/>
<stop offset="0.77" stop-color="#E6EEF1"/>
<stop offset="0.824" stop-color="#F4F7F9"/>
<stop offset="0.89" stop-color="#FCFDFE"/>
<stop offset="1" stop-color="white"/>
</radialGradient>
<linearGradient id="paint1_linear_1039_872" x1="11.973" y1="6.84192" x2="11.973" y2="17.2742" gradientUnits="userSpaceOnUse">
<stop offset="0.472" stop-color="#C7E9F2"/>
<stop offset="0.57" stop-color="#B2DFF1"/>
<stop offset="1" stop-color="#45BEEE"/>
</linearGradient>
<linearGradient id="paint2_linear_1039_872" x1="11.944" y1="15.6" x2="11.944" y2="8.72063" gradientUnits="userSpaceOnUse">
<stop offset="0.418" stop-color="white"/>
<stop offset="0.492" stop-color="#DEF1F8"/>
<stop offset="0.669" stop-color="#9CD7EC"/>
<stop offset="0.819" stop-color="#65C7E5"/>
<stop offset="0.934" stop-color="#34BEE0"/>
<stop offset="1" stop-color="#04BBDF"/>
</linearGradient>
<radialGradient id="paint3_radial_1039_872" cx="0" cy="0" r="1" gradientUnits="userSpaceOnUse" gradientTransform="translate(11.957 11.7754) scale(1.65155 1.63907)">
<stop offset="0.802" stop-color="#091520"/>
<stop offset="0.824" stop-color="#0D1925"/>
<stop offset="0.854" stop-color="#162431"/>
<stop offset="0.888" stop-color="#233445"/>
<stop offset="0.927" stop-color="#324B65"/>
<stop offset="0.968" stop-color="#436A93"/>
<stop offset="1" stop-color="#4D88C7"/>
</radialGradient>
<linearGradient id="paint4_linear_1039_872" x1="21.601" y1="12.839" x2="20.16" y2="12.839" gradientUnits="userSpaceOnUse">
<stop stop-color="white"/>
<stop offset="0.114" stop-color="#E0EDF4"/>
<stop offset="0.337" stop-color="#AACEE1"/>
<stop offset="0.544" stop-color="#80B5D3"/>
<stop offset="0.731" stop-color="#61A3C8"/>
<stop offset="0.889" stop-color="#4F98C1"/>
<stop offset="1" stop-color="#4894BF"/>
</linearGradient>
<linearGradient id="paint5_linear_1039_872" x1="2.20004" y1="12.8717" x2="3.63996" y2="12.9102" gradientUnits="userSpaceOnUse">
<stop stop-color="white"/>
<stop offset="0.114" stop-color="#E0EDF4"/>
<stop offset="0.337" stop-color="#AACEE1"/>
<stop offset="0.544" stop-color="#80B5D3"/>
<stop offset="0.731" stop-color="#61A3C8"/>
<stop offset="0.889" stop-color="#4F98C1"/>
<stop offset="1" stop-color="#4894BF"/>
</linearGradient>
</defs>
</svg>
