<svg xmlns="http://www.w3.org/2000/svg" viewBox="0 0 24 25">
  <path fill="#fff" fill-rule="evenodd" d="M12.203.908c6.452 0 9.695 3.452 9.695 3.452s.371 2.555.135 7.7c-.358 7.771-9.828 12.438-9.828 12.439-.001 0-9.47-4.668-9.828-12.44-.237-5.144.134-7.699.134-7.699S5.75.908 12.203.908Z" clip-rule="evenodd"/>
  <path fill="#ED2E26" fill-rule="evenodd" d="M21.898 4.36S18.655.908 12.203.908C5.752.908 2.511 4.36 2.511 4.36s-.371 2.555-.134 7.7c.357 7.771 9.827 12.44 9.828 12.439.063-.031 9.471-4.694 9.828-12.44.236-5.144-.135-7.699-.135-7.699Zm-9.693 1.78c-2.67 0-4.843 2.236-4.843 4.984 0 2.292 1.214 4.091 3.61 5.348 1.566.822 3.904 1.424 6.374 1.742-.411.612-1.507 1.657-2.148 2.01-2.957-.484-5.554-1.508-7.33-3.043-1.9-1.641-2.903-3.783-2.903-6.194 0-3.992 3.247-7.24 7.24-7.24 3.992 0 7.24 3.248 7.24 7.24a6.994 6.994 0 0 1-2.724 5.538c-1.159-.106-2.369-.435-2.917-.747 1.413-.902 3.247-2.658 3.247-4.791a4.852 4.852 0 0 0-4.846-4.847Z" clip-rule="evenodd"/>
</svg>
