<svg fill="none" viewBox="0 0 28 28" xmlns="http://www.w3.org/2000/svg"><path d="m4.302 4.849-1.863.932v16.35l1.863.926.01-.013v-18.182z" fill="#3dc7f6"/><path d="m14.271 20.684-9.97 2.373v-18.208l9.97 2.321z" fill="#fafcff"/><path d="m9.771 16.969 4.229.538.026-.061.024-6.934-.05-.055-4.229.531v5.98" fill="#3dc7f6"/><path d="m14 20.71 9.698 2.352.015-.024v-18.173l-.016-.016-9.697 2.348v13.514" fill="#3dc7f6"/><path d="m18.23 16.969-4.23.538v-7.05l4.23.531v5.98z" fill="#fafcff"/><path d="m18.23 8.096-4.23.77-4.229-.77 4.223-1.107z" fill="#3dc7f6"/><path d="m18.23 19.853-4.23-.776-4.229.776 4.224 1.179z" fill="#cdf4fe"/><path d="m9.771 8.096 4.229-1.047.034-.01v-7.01l-.034-.029-4.23 2.115v5.98z" fill="#3dc7f6"/><path d="m18.23 8.096-4.23-1.047v-7.049l4.23 2.115v5.98z" fill="#fafcff"/><path d="m14 27.948-4.23-2.114v-5.98l4.23 1.046.062.07-.017 6.856z" fill="#3dc7f6"/><path d="m14 27.948 4.229-2.114v-5.98l-4.23 1.046v7.048zm9.697-23.098 1.863.932v16.35l-1.863.931v-18.214z" fill="#fafcff"/><path d="m16.625 21h9.625v6.125h-9.625z" fill="#cdf4fe"/><path d="m23.675 16.875 3.2 3.106v6.953c0 .441-.375.816-.849.816h-9.176c-.474 0-.849-.375-.849-.816v-9.244c0-.441.375-.816.849-.816h6.826zm-4.758 8.842h5.04v.292h-5.04zm-.704-1.492h6.45v.292h-6.45zm1.222-1.493h4.005v.292h-4.005zm5.314-1.294h-6.623c-.736 0-1.35.584-1.35 1.316v3.076c0 .732.614 1.316 1.35 1.316h6.623c.736 0 1.349-.584 1.349-1.316v-3.076c0-.732-.613-1.316-1.349-1.316z" fill="#effbff" stroke="#1b2e49" stroke-width=".5"/></svg>