<svg xmlns="http://www.w3.org/2000/svg" fill="none" viewBox="0 0 32 32"><defs/><path fill="#4F5162" fill-rule="evenodd" d="M3.00033 0H21.9196l8.9667 8.9667.1764.0098v20.0236c0 1.6505-1.3494 2.9999-3.0003 2.9999H3.00033C1.34937 32 0 30.6506 0 29.0001V2.99989C0 1.34937 1.34937 0 3.00033 0zm4.96581 24.8749H23.0961v2.2274H7.96614v-2.2274zm-1.92315-4.1987H25.0197v2.2275H6.04299v-2.2275zm3.33756-4.1991H21.6821v2.2274H9.38055v-2.2274zm-2.89386-2.235H24.5751c1.6505 0 2.9999 1.3494 2.9999 2.9999v8.6531c0 1.651-1.3494 3.0003-2.9999 3.0003H6.48669c-1.65052 0-2.99989-1.3493-2.99989-3.0003V17.242c0-1.6505 1.34937-2.9999 2.99989-2.9999z" clip-rule="evenodd"/></svg>