<svg viewBox="0 0 29 29" xmlns="http://www.w3.org/2000/svg">
<g clip-path="url(#clip0_1039_921)">
<path d="M5.13859 5.34999L3.27234 6.2833V22.6637L5.13859 23.5915L5.14981 23.5781V5.36284L5.13859 5.34999Z" fill="#D9DAE5"/>
<path d="M15.1264 21.214L5.13855 23.5915V5.34999L15.1264 7.67565V21.214Z" fill="white"/>
<path d="M10.618 17.4919L14.8546 18.0313L14.8812 17.9699L14.905 11.023L14.8546 10.9688L10.618 11.5003V17.4919" fill="#D9DAE5"/>
<path d="M14.8545 21.2407L24.5704 23.5966L24.5857 23.5723L24.5854 5.36628L24.5701 5.34999L14.8545 7.70235V21.2407Z" fill="#D9DAE5"/>
<path d="M19.0922 17.4919L14.8545 18.0313V10.9688L19.0922 11.5003V17.4919Z" fill="white"/>
<path d="M19.0923 8.60263L14.8546 9.37495L10.618 8.60263L14.8492 7.49359L19.0923 8.60263Z" fill="#B0B1C3"/>
<path d="M19.0923 20.3817L14.8546 19.6043L10.618 20.3817L14.8494 21.5629L19.0923 20.3817Z" fill="#F3F3FA"/>
<path d="M10.618 8.60263L14.8546 7.55422L14.8889 7.54363V0.520312L14.8546 0.491989L10.618 2.61061V8.60263Z" fill="#D9DAE5"/>
<path d="M19.0922 8.60263L14.8545 7.55422V0.491989L19.0922 2.61061V8.60263Z" fill="white"/>
<path d="M14.8545 28.492L10.6176 26.3741V20.3822L14.8545 21.4302L14.9169 21.5011L14.9 28.3697L14.8545 28.492Z" fill="#D9DAE5"/>
<path d="M14.8545 28.4919L19.0918 26.374V20.3821L14.8545 21.4301V28.4919M24.5704 5.34999L26.4375 6.2833V22.6637L24.5704 23.5966V5.34999Z" fill="white"/>
<path fill-rule="evenodd" clip-rule="evenodd" d="M20.085 18.5915H25.9971L28.8 21.3934L28.8549 21.3965V27.6535C28.8544 27.9021 28.7554 28.1404 28.5796 28.3162C28.4038 28.492 28.1655 28.591 27.9169 28.5915H20.086C19.8375 28.591 19.5994 28.4921 19.4236 28.3166C19.2479 28.141 19.1488 27.903 19.1479 27.6545V19.5286C19.1479 19.0127 19.5692 18.5915 20.085 18.5915ZM21.6365 26.3645H26.3654V27.0614H21.6365V26.3645ZM21.0362 25.053H26.9666V25.7489H21.0352L21.0362 25.053ZM22.0791 23.7406H25.9238V24.4365H22.0781L22.0791 23.7406ZM21.1746 23.0427H26.8273C27.3431 23.0427 27.7653 23.4639 27.7653 23.9797V26.6839C27.7648 26.9325 27.6658 27.1708 27.49 27.3466C27.3142 27.5224 27.0759 27.6214 26.8273 27.622H21.1746C20.926 27.6214 20.6877 27.5224 20.5119 27.3466C20.3361 27.1708 20.2371 26.9325 20.2366 26.6839V23.9797C20.2366 23.4639 20.6588 23.0427 21.1746 23.0427Z" fill="#4F5162"/>
</g>
<defs>
<clipPath id="clip0_1039_921">
<rect width="28" height="28" fill="white" transform="translate(0.85498 0.491989)"/>
</clipPath>
</defs>
</svg>
