<svg fill="none" viewBox="0 0 24 24" xmlns="http://www.w3.org/2000/svg" xmlns:xlink="http://www.w3.org/1999/xlink"><clipPath id="a"><path d="m0 0h24v24h-24z"/></clipPath><g clip-path="url(#a)"><path clip-rule="evenodd" d="m20.4714 11.565c0 4.755-3.7687 8.61-8.4172 8.61s-8.4165-3.855-8.4165-8.61c0-4.75498 3.768-8.60998 8.4165-8.60998s8.4172 3.855 8.4172 8.60998z" fill="#d9dae6" fill-rule="evenodd"/><path d="m3.97935 13.6972s-.609-8.97821 7.66345-9.23471l-.5775-.96225-4.48945 1.5-1.275 1.47525-1.122 2.14875-.64125 2.50126.19275 1.6672" fill="#f3f3fa"/><path d="m6.28898 5.69252c-1.4775 1.51125-2.391 3.59775-2.391 5.90548 0 2.3078.915 4.395 2.391 5.9048 1.476 1.5097 3.51375 2.4427 5.76522 2.4427 2.2515 0 4.2878-.9322 5.7653-2.4427s2.391-3.5978 2.391-5.9048c0-2.30698-.915-4.39498-2.391-5.90548s-3.5138-2.44275-5.7653-2.44275c-2.25147 0-4.28772.93225-5.76522 2.44275zm-.3735 12.17628c-1.56975-1.605-2.5395-3.8235-2.5395-6.27 0-2.44653.9705-4.66503 2.5395-6.27003s3.741-2.601 6.13872-2.60025c2.3978.00075 4.5698.99525 6.1388 2.60025s2.5402 3.8235 2.5402 6.27003c0 2.4465-.9705 4.665-2.5402 6.27-1.5698 1.605-3.741 2.6002-6.1388 2.6002-2.39772 0-4.56972-.9952-6.13872-2.6002" fill="#0a3364"/><path clip-rule="evenodd" d="m15.5972 11.613-1.275.1928-1.7325.1927-1.122.0323-1.0905-.0323-.83402-.2565-.73725-.8025-.5775-1.63496-.1275-.3525-.7695-.2565-.45-.73725-.32625-1.05825.3525-.93.834-.28875.6735.321.321.705.38475-.0645.1275-.1605-.1275-.73725-.03225-.93.19275-1.275-.0075-.73275.585-.9345 1.02597-.73725 1.794-.777752 1.9875.28875 1.7325 1.250252.8025 1.275.513.93.1275 2.3085-.3847 1.9875-.705 1.76251-.6735.93" fill="#fff" fill-rule="evenodd"/><path clip-rule="evenodd" d="m14.5066 17.16-4.58548.1928v.7695l.38478 2.6925-.1928.225-3.20548-1.0898-.225-.3847-.321-3.6225-.73725-2.1803-.1605-.513 2.565-1.7625.8025-.321.705.8655.60903.5453.705.225.3202.096.3848 1.6672.2887.3525.7373-.2565-.513.9938 2.79 1.3147-.3525.1928" fill="#fff" fill-rule="evenodd"/><path clip-rule="evenodd" d="m6.90755 5.97003.834-.28875.6735.321.321.705.38475-.0645.096-.38475-.19275-.73725.19275-1.764-.1605-.96225.5775-.6735 1.2502-.99375-.3525-.480002-1.76395.865502-.73725.5775-.417.89775-.64125.8655-.19275 1.026.1275 1.0905" fill="#d9dae6" fill-rule="evenodd"/><path clip-rule="evenodd" d="m8.22151 2.95505s.48-1.1865 2.40529-1.7625c1.9252-.576.096-.417.096-.417l-2.08504.8025-.8025.8025-.3525.64125.73725-.0645zm-.9615 2.79s-.6735-2.24475 1.89225-2.565l-.096-.38475-1.7625.417-.513 1.66725.1275 1.0905.3525-.225" fill="#dcd9d8" fill-rule="evenodd"/><path clip-rule="evenodd" d="m8.28613 8.72706.42-.4065c.00421.05987.02825.11663.06831.16132.04007.04468.09388.07475.15294.08543.03225.225.1275 2.24479 1.50002 3.33529.126.0997-1.02602-.1605-1.02602-.1605l-1.026-1.6035zm5.89277-.60975s.075-.972.3375-.897.2625.3375.2625.3375-.636.411-.5985.561" fill="#fff" fill-rule="evenodd"/><path d="m16.848 4.55774s-.5287.1125-.5775.5775c-.0487.465.5775.096.6735.0645zm-3.873.03225s-.705.096-.705.54525.8025.417 1.026.225" fill="#fff"/><path clip-rule="evenodd" d="m8.60619 6.67505s-1.21875-.738-1.34625-.03225-.417 1.21875.19275 1.956l-.417-.1275-.38475-.99375-.1275-.96225.73725-.7695.834.0645.48.38475.03225.48zm.57825-2.0205s.54525-2.8215 3.30296-3.375c2.2703-.448502 3.4628.096 3.912.609 0 0-2.0205-2.404502-3.945-1.667252s-3.33446 2.100002-3.30446 2.957252l.03225 1.47525zm7.43776-2.43825s-.93-.03225-.9623.8025c.0034.08898.0251.17632.0638.2565 0 0 .738-.834 1.1865-.38475zm-4.0718 1.14525s-.1597-1.2795-1.251-.5355c-.705.48-.6412 1.155-.513 1.275.1283.12.0938.38625.1913.21s.0652-.7545.4185-.915c.3532-.1605.93-.33975 1.155-.04125" fill="#f3f3fa" fill-rule="evenodd"/><path clip-rule="evenodd" d="m9.53611 12.0301-3.015 1.347s1.25025 4.9702.609 6.51l-.45-.1605-.03225-1.8923-.831-3.5842-.3525-.9938 3.15-2.1165.93.8978zm.31125 2.7487.42754.522v1.9238h-.51304l-.06375-1.5c0-.1605.06375-.7373.06375-.7373zm.00975 2.7338-1.443.0637.417.2888 1.026.1605" fill="#d9dae6" fill-rule="evenodd"/><path clip-rule="evenodd" d="m14.7949 17.1923 1.1865-.0323.2888 2.9505-1.2188.1605-.2565-3.078" fill="#fff" fill-rule="evenodd"/><path clip-rule="evenodd" d="m15.116 17.1923 1.7955-.096.7372-1.956c0-.096.6413-2.6925.6413-2.6925l-1.443-1.5075-.2888-.2565-.7695.7695v2.982l-.6735 2.7577" fill="#fff" fill-rule="evenodd"/><path clip-rule="evenodd" d="m15.9179 16.968-1.122.225.1605.8978c.417.1927 1.122-.321 1.122-.321zm.0315-5.6107 2.2447 1.6672.0645-.7695-1.6995-1.5712-.609.6735" fill="#d9dae6" fill-rule="evenodd"/><path clip-rule="evenodd" d="m10.9699 23.5095-.6638-2.694-.32996-1.9875-.05475-1.4753 3.00451-.1597h1.8697l-.1702 3.375.2887 2.5972-.0322.48-2.4375.1928-1.4753-.321" fill="#fff" fill-rule="evenodd"/><path clip-rule="evenodd" d="m14.3772 17.16s-.1605 3.3353.321 5.7c0 0-.9623.609-2.373.7695l2.6925-.096.321-.1927-.3848-5.259-.096-1.1228" fill="#dcd9d8" fill-rule="evenodd"/><path clip-rule="evenodd" d="m16.3249 19.854 1.2503-.3525 2.373-.1275.3525-1.0905-.6413-1.8922-.7372-.096-1.026.321-.9848.48-.5227-.096-.4073.1597" fill="#fff" fill-rule="evenodd"/><path clip-rule="evenodd" d="m16.3027 19.2121s.834-.3848.9623-.3525l-.3525-1.764.417-.1605.2887 1.86 1.956.096s.3848-.7373.2888-1.5l.3525 1.026.0322.5775-.513.7695-.5775.1275-.9622-.0323-.321-.417-1.122.1605-.3525.1275" fill="#dcd9d8" fill-rule="evenodd"/><path d="m15.0419 16.935-.705-1.7955-.7373-1.0575s.1605-.45.3848-.45h.7372l.705.2565-.0637 1.1865z" fill="#fff"/><path clip-rule="evenodd" d="m15.1802 16.3275s-.8978-1.7325-.8978-1.9875c0 0 .1605-.3848.3848-.2888.2242.096.705.3525.705.3525v-.609l-1.0905-.225-.7373.096 1.2503 2.9505.2565.0323" fill="#dcd9d8" fill-rule="evenodd"/><path d="m11.2576 12.0937-.888-.0975-.83396-.2565v.2888l.40725.45 1.27501.5775" fill="#fff"/><path clip-rule="evenodd" d="m9.825 12.1906s.9938.417 1.3148.321l.0322.3847-.8977-.192-.5453-.3847.096-.1275" fill="#dcd9d8" fill-rule="evenodd"/><path clip-rule="evenodd" d="m16.3213 13.7423c-.5437-.015-1.035-.0803-1.4662-.2025.03-.1763-.0255-.3495.0187-.477.12-.0863.321-.0848.5025-.105-.1575-.0773-.3772-.1073-.558-.063-.0045-.1223-.06-.198-.0922-.294.306-.1095 1.0275-.825 1.434-.588.1935.1125.276.7575.291 1.0695.0127.2595-.0225.522-.1298.66" fill="#fafbfc" fill-rule="evenodd"/><path d="m16.3213 13.7423c-.5437-.015-1.035-.0803-1.4662-.2025.03-.1763-.0255-.3495.0187-.477.12-.0863.321-.0848.5025-.105-.1575-.0773-.3772-.1073-.558-.063-.0045-.1223-.06-.198-.0922-.294.306-.1095 1.0275-.825 1.434-.588.1935.1125.276.7575.291 1.0695.0127.2595-.0225.522-.1298.66z" stroke="#d9dae6" stroke-width=".514"/><path clip-rule="evenodd" d="m13.7197 12.8528-.0045.1245c-.1702.1125-.444.1102-.63.204.2745.012.4913.078.6788.1725l-.012.3112c-.3113.213-.5955.531-.9623.7305-.1725.0945-.7815.3375-.966.2948-.105-.024-.114-.1538-.1552-.276-.0885-.2625-.2925-.6773-.3113-1.071-.0225-.4973-.0727-1.3298.4628-1.2278.4428.0939.8701.2503 1.269.4643.2047.1125.3225.2497.633.2737" fill="#d9dae6" fill-rule="evenodd"/><path d="m13.7197 12.8528-.0045.1245c-.1702.1125-.444.1102-.63.204.2745.012.4913.078.6788.1725l-.012.3112c-.3113.213-.5955.531-.9623.7305-.1725.0945-.7815.3375-.966.2948-.105-.024-.114-.1538-.1552-.276-.0885-.2625-.2925-.6773-.3113-1.071-.0225-.4973-.0727-1.3298.4628-1.2278.4428.0939.8701.2503 1.269.4643.2047.1125.3225.2497.633.2737z" stroke="#fafbfc" stroke-width=".514"/><path clip-rule="evenodd" d="m14.0287 13.446c-.0472-.27-.1027-.348-.081-.585.7223-.4815.8573.8265.081.585z" fill="#fafbfc" fill-rule="evenodd"/><path d="m14.0287 13.446c-.0472-.27-.1027-.348-.081-.585.7223-.4815.8573.8265.081.585z" stroke="#fafbfc" stroke-width=".514"/><g clip-rule="evenodd" fill-rule="evenodd"><path d="m15.075 13.665s-.225-.321-.0645-.417.321 0 .417-.1605 0-.2565.0323-.45c.0322-.1935.1927-.225.3525-.2565.1597-.0315.609-.096.6735.0645l-.1928-.5775-.3847-.1275-1.2188.705-.0645.3525v.705zm-3.375 1.0575-.1245-1.5c-.075-.7462.18-.6165.8265-.6165.099 0 .6.1178.645.1928.1748.357-.3.2775.2025.5475.417.2272 1.1535-.138.9848-.6435-.0945-.1125-.4913-.0353-.6338-.1088l-.7515-.39c-.3187-.165-1.0552-.4065-1.395-.1755-.861.585.054 2.049.3615 2.6595" fill="#f3f3fa"/><path d="m12.5513 3.36221c-.8737-.2025-1.308.366-1.5735.95625-.2362-.057-.15-.37875-.075-.543.15-.4305.7875-1.00275 1.302-.9255.222.03375.522.23625.354.51225zm4.2585.98775.0413.0015c.1972.41025.375.84525.6172 1.2-.1672.3885-1.2637.73275-1.2472.0345.237-.1035.6465-.021.8572-.15375-.1215-.33375-.297-.618-.27-1.08975zm-3.8115.018c.1875.3435.2475.705.5145.96375.12.117.3525.2595.2378.585-.0819.12534-.1995.22329-.3375.28125-.4163.123-1.3875.0255-1.05-.4935.345.015.807.2235 1.065-.02625-.198-.315-.5498-.94125-.42-1.3095zm3.6623 3.492c-.627.40275-1.326.84-2.3535.7395-.2198-.1905-.303-.615-.09-.89625.111.1905.0412.54225.351.59475.5827.09975 1.2615-.35625 1.68-.516.2602-.43875-.0225-.6-.2565-.882-.48-.5775-1.1228-1.2945-1.0995-2.16.1935-.14025.21.2145.2385.279.2505.585.8805 1.335 1.3402 1.8375.1125.12375.3.24225.3195.324.06.23775-.1552.522-.1305.68025zm-8.27329-.4245c-.1965-.1125-.243-.606-.474-.62025-.33-.02025-.27.64125-.2685 1.0275-.22725-.20625-.267-.84-.1005-1.16625-.18975-.093-.27525.10275-.38025.1725.135-.984 1.44-.45 1.2225.58725zm8.66549.82575c-.3.555-.705 1.167-1.5615 1.185-.0172-.18-.03-.45225.0008-.56025.6547-.063 1.0597-.396 1.5607-.62475zm-4.1032.36c.546.28725 1.5502.318 2.2927.29625.0398.16275.039.36375.0405.5625-.9547.04725-2.0827-.1875-2.325-.85875zm-.0968.5355c.378.94879 1.6763.84 2.7713.813-.048.12299-.153.26849-.2828.32099-.351.15-1.3185.2513-1.8052-.0075-.309-.165-.507-.53549-.6765-.75299-.075-.105-.489-.3735-.006-.375" fill="#0a3364"/><path d="m16.6079 14.397-1.3935 2.2088c.2205-.648.315-1.7325.348-2.5605.4612-.216.8565.0487 1.0455.3525" fill="#fff"/><path d="m18.9931 17.1255c-.4965.099-.8453.582-1.329.5505.2662-.375.732-.525 1.329-.5505zm.219.777c-.405.0427-.8798.108-1.29.075.195-.297.9427-.195 1.29-.075zm.1402.669c-.4545.0097-1.02.0007-1.452-.0353.255-.2745 1.1573-.102 1.452.0353z" fill="#231f20"/><path d="m15.7522 20.4045c.0653.57.2925 1.1497.2625 1.7745-.2512.0847-.396.159-.7327.1575l-.0735-1.8503c.165.0113.4102-.1185.543-.075" fill="#dcd9d8"/><path d="m15.0195 11.9895c-.228.15-.423.3353-.642.495-.486.024-.7515-.0337-1.1085-.3127.006-.0225.042-.0128.0428-.0398.5205.2325 1.182-.0945 1.7077-.1425" fill="#f0d6b7"/><path d="m12.2871 15.537c.1425-.6195.7035-.9405 1.212-1.2825.525.6675.8445 1.5225 1.1963 2.3505-.831-.2505-1.68-.657-2.4075-1.0687" fill="#fff"/><path d="m15.2099 20.487c-.021.5062.0495 1.32.0735 1.8502.3375.0008.4815-.0735.7328-.1575.0285-.6255-.198-1.2037-.2625-1.7745-.1328-.0352-.3773.0938-.543.075zm-5.24398-2.88c.22198 2.0415.54378 3.75 1.13398 5.565 1.3095.3975 2.8875.432 4.0455.0735-.2122-1.02-.12-2.2628-.2437-3.3525l-.174-2.4773c-1.4025-.2925-3.3848-.0675-4.76103.189zm5.09998-.1763c-.012.8775.039 1.7415.1065 2.6198l.8775-.153c-.1012-.8453-.09-1.7963-.2962-2.544-.24.0022-.4493-.003-.6878.0772zm1.7078-.141c-.1598-.0375-.345-.0015-.4988.0015l.3 2.2538c.24.0075.3675-.105.5663-.144.0105-.6585-.0578-1.566-.375-2.1113zm2.586 2.3625c.501-.1215.8152-.735.675-1.365-.0938-.423-.261-1.2202-.4403-1.491-.132-.2002-.4912-.4627-.7777-.279-.4665.2985-1.2878.3855-1.6275.7463.1702.5677.2235 1.347.294 2.0662.5827.036 1.299-.1605 1.7835.048-.3375.1095-.777.1103-1.0688.27.2385.1155.798.0923 1.1625.0038zm-4.656-3.045c-.3525-.8272-.6713-1.6845-1.1963-2.3505-.5085.3413-1.0687.6623-1.212 1.2825.7275.4125 1.5773.8175 2.4075 1.0688zm.867-2.5612c-.033.8272-.1275 1.9125-.348 2.5605.525-.6698.9502-1.4498 1.3935-2.2088-.189-.303-.585-.567-1.0455-.3517zm-.975-.3495c-.1995-.0225-.3675.2287-.6278.12l-.174.201c.5723.69.825 1.668 1.275 2.478.237-.7785.21-1.6313.2625-2.481-.3255.021-.5062-.2948-.735-.3188zm-.6323-.834c-.021.2362.0338.3135.081.585.7763.243.6405-1.065-.081-.585zm-.861-.2828c-.3989-.214-.8262-.3703-1.269-.4642-.5355-.1028-.4852.7305-.4627 1.2277.018.3938.2227.81.3112 1.071.042.1223.051.2513.1553.276.1845.0428.7927-.2002.966-.2947.3675-.2003.651-.525.9622-.7305l.012-.3113c-.1875-.093-.4035-.1597-.6787-.1725.1875-.0937.4605-.0922.63-.204l.0045-.1245c-.3105-.024-.4275-.162-.633-.2737zm-3.19498-.5805c-.2775.282.77848.666 1.11528.687-.0023-.1785.102-.3465.081-.4747-.3998-.0705-.9255-.024-1.19628-.2123zm3.41998.132c-.0015.0278-.0375.0173-.0427.0398.357.279.6225.3375 1.1085.3127l.642-.495c-.525.0473-1.1873.3735-1.7078.1425zm3.1395.9525c-.015-.3135-.0975-.957-.291-1.0695-.4065-.237-1.1287.4785-1.434.588.033.096.0885.1725.0923.294.18-.045.4012-.015.558.063-.1815.0203-.375.0188-.5025.105-.045.1275.0105.3-.0188.477.4305.1215.9225.186 1.4663.2025.105-.1372.1425-.3997.1297-.66zm-7.02748-.8115c-.087-.0622-.67725-.8295-.75-.798-1.06725.42-2.06475 1.1475-2.9565 1.8375.8505 1.824 1.1925 4.0598 1.254 6.2138.975.4552 1.83 1.1122 3.14998 1.1805l-.37948-3.066c-.33225-.1403-.8085.006-1.119-.0435-.003-.375.47475-.165.5145-.4155.03-.1905-.2625-.2048-.16725-.5048.243.0885.3705.2835.63.3563.237-.5175-.003-1.434.03-1.875.0075-.081.0405-.45.22275-.3855.16128.057-.009.9825.0075 1.3912.015.3773-.045.75.10725.9795 1.27723-.174 2.57473-.2865 3.95623-.324-.3037-.1305-.6652-.255-1.0612-.477-.2145-.12-.891-.3727-.9525-.5775-.099-.3247.2595-.498.3202-.7762-.645.3525-.7702-.3375-.9225-.825-.138-.4425-.2175-.7725-.2505-1.0275-.555-.2648-1.14898-.525-1.62748-.8723zm6.46278-.705c.8895-.4312 1.05 1.6125.7012 2.2695.054.1965.24.2715.315.4478l-1.5525 2.5972c.3765-.2347.915-.042 1.35-.225.162-.0637.279-.435.402-.7312.3375-.816.6915-1.845.849-2.625.0353-.1778.1328-.564.111-.7223-.039-.2827-.4222-.4927-.618-.675l-.96-.909c-.1522.225-.4785.375-.603.558zm-8.51103-7.88621c-.42375.4665-.33525 1.3395-.2835 1.96125.765-.4815 1.782.0375 1.773.85725.366-.00975.1365-.4575.0705-.74475-.216-.9405.3645-1.962.02625-2.82225-.65625.0495-1.1955.318-1.58625.7485zm3.03153-2.706001c-.96003.271501-2.18853.969001-2.58228 1.830001.30525-.045.5175-.198.8175-.225.114-.0075.2625.048.39375.015.26025-.0645.48-.64875.67725-.86625.192-.21225.42228-.303.57978-.4965.1012-.04875.2512-.045.2565-.19725-.045-.047251-.09-.075001-.15-.075001zm4.9927.255001c-.9952-.560251-2.6805-.982501-3.7395-.455251-.855.426001-2.00998 1.131001-2.40373 2.025001.3675.8625-.10875 1.65225-.1395 2.5275-.0165.465.219.87225.237 1.38-.126.20775-.51.2325-.777.219-.09-.4485-.2475-.9525-.708-1.0035-.6525-.07125-1.131.4695-1.161 1.035-.03525.6645.51 1.76625 1.284 1.68975.2985-.03.372-.33.6975-.32625.17625.3525-.27225.46275-.318.714-.012.06525.0375.3195.066.43875.14025.58051.45375 1.33121.762 1.77301.3915.5602 1.15953.645 1.98753.6997.1477-.318.6915-.2925 1.0462-.2085-.4245-.168-.8197-.576-1.1475-.9375-.375-.414-.7575-.85871-.7762-1.40021.7102.98551 1.2975 1.84651 2.589 2.28001.9772.3277 2.1195-.15 2.8702-.678.312-.219.498-.567.72-.885.8288-1.20001 1.215-2.89501 1.131-4.54501-.0352-.68025-.0337-1.3575-.2625-1.815-.2385-.4785-1.0455-.9075-1.518-.474-.0877-.465.393-.753.957-.585-.402-.519-.825-1.143-1.3965-1.4655zm1.8548 15.35021c.7777-.387 2.2312-1.041 2.7195.0015.18.384.3915 1.0335.4845 1.4303.132.5595-.15 1.7355-.7178 1.9237-.5077.165-1.101.156-1.713.033-.072-.06-.1522-.165-.2085-.273-.4372-.0172-.846.0225-1.191.2025.033.3225-.186.375-.39.4425-.1522.6023.3038 1.389.195 1.938-.078.3915-.5595.4515-.9127.525-.0113.225.015.399.0397.5828-.081.2977-.444.468-.7875.51-1.131.135-2.8485.1972-3.9375-.195-.3037-.7448-.543-1.65-.795-2.5013-1.06123.1125-1.91998-.4575-2.72848-.8325-.2805-.1297-.675-.2025-.7725-.4245-.10125-.216-.06-.63-.08475-1.02-.06375-.9975-.12-1.9612-.375-2.9835-.1185-.459-.32475-.8625-.46875-1.305-.13275-.4095-.36525-.915-.426-1.3245-.09-.6052.48-.639.8445-.9015.5625-.405 1.005-.63 1.61625-.996.18-.1087.726-.375.7875-.51.123-.2505-.2115-.6037-.3-.8002-.1425-.31051-.21525-.57451-.2355-.88126-.51225-.081-.9-.3855-1.13475-.729-.38775-.5685-.657-1.62-.321-2.42025.02625-.063.15-.1875.177-.2835.0375-.1905-.072-.444-.07875-.6465-.03525-1.04025.17625-1.935.876-2.25.285-1.125 1.30125-1.5075 2.25975-2.071501.35848-.21.75298-.345 1.16098-.495 1.4625-.5385 3.708-.43725 4.9223.4815.5145.390001 1.338 1.211251 1.632 1.807501.7777 1.57125.7222 4.19775.1785 6.1095-.0728.2565-.18.63375-.327.942-.1035.21525-.4238.64501-.3848.83621.0398.1965.7313.7215.8798.8648.267.2572.774.6.8152.924.045.345-.1522.819-.252 1.1527l-1.035 3.135" fill="#0a3364"/><path d="m12.0802 8.87247c.042-.05625.2745-.14249.6.01501 0 0-.3847.06449-.3525.70499l-.1605-.03225s-.165-.58199-.0855-.68849" fill="#fff"/><path d="m14.8921 14.3865c0 .0975-.0788.1762-.1763.1762s-.1762-.0787-.1762-.1762.0787-.1763.1762-.1763.1763.0788.1763.1763zm.1755.825c0 .0975-.0788.1762-.1763.1762s-.1762-.0787-.1762-.1762.0787-.1763.1762-.1763.1763.0788.1763.1763z" fill="#1d1919"/></g></g></svg>