<svg enable-background="new 0 0 14 14" viewBox="0 0 14 14" xmlns="http://www.w3.org/2000/svg"><path d="m7 .4c-.1 0-.2 0-.3.1l-4.7 2.2c-.2.1-.4.3-.5.6l-1.2 5c-.1.2 0 .5.1.7 0 0 0 0 .1.1l3.2 4c.2.2.4.3.7.3h5.2c.3 0 .5-.1.7-.3l3.2-4c.2-.2.2-.5.2-.7l-1.2-5c-.1-.3-.2-.5-.5-.6l-4.7-2.2c0-.1-.2-.2-.3-.2z" fill="#326ce5"/><path d="m7 2.1c-.2 0-.3.1-.3.3v.1.3.5c0 .1-.1.1-.1.1v.1c-.2 0-.3 0-.5.1-.7.2-1.4.5-1.8 1l-.1-.1s-.1 0-.2 0c-.1-.1-.2-.2-.4-.3-.1-.1-.1-.1-.2-.2 0 0 0 0-.1 0s-.1-.1-.2-.1-.2 0-.2.1c-.1.1-.1.3.1.4h.1c.1.1.2.1.2.1.2.1.3.2.4.3 0 0 .1.1.1.2l.1.1c-.5.7-.7 1.6-.6 2.5h-.1l-.1.1c-.1 0-.3.1-.5.1-.1 0-.2 0-.3 0h-.1c-.2 0-.3.2-.2.3 0 .1.2.2.4.2h.1c.1 0 .2-.1.3-.1.2-.1.3-.1.5-.1.1 0 .1 0 .2.1h.1c.3.9.9 1.6 1.6 2l-.1.1v.2c-.1.1-.1.3-.3.5-.1.1-.1.1-.1.2v.1c-.1.2 0 .3.1.4s.3 0 .4-.2v-.1c0-.1.1-.2.1-.3.1-.2.1-.4.2-.5 0 0 .1 0 .1-.1l.1-.1c.6.2 1.4.3 2.1.2.2 0 .3-.1.5-.1l.1.1s.1 0 .1.1c.1.1.1.3.2.5 0 .1 0 .2.1.3v.1c.1.2.2.2.4.2.1-.1.2-.2.1-.4v-.1c0-.1-.1-.1-.1-.2-.1-.2-.2-.3-.2-.4s0-.1 0-.2v-.1c.8-.5 1.3-1.2 1.6-2h.1s.1-.1.2-.1.3.1.5.1c.1 0 .2.1.3.1h.1c.2 0 .3-.1.4-.2 0-.1-.1-.3-.2-.3h-.1c-.1 0-.2 0-.3 0-.2 0-.4 0-.5-.1-.1 0-.1-.1-.1-.1h-.1c.1-.4 0-.9-.1-1.3s-.3-.9-.5-1.2l.1-.1c0-.1 0-.1.1-.2s.2-.2.4-.3c.1 0 .2-.1.2-.1h.1c.1-.1.2-.3.1-.4s-.3-.1-.4 0c0 0 0 0-.1 0-.1.1-.1.1-.2.2s-.3.3-.4.3-.1 0-.2 0l-.1.1c-.6-.6-1.4-1-2.3-1.1v-.1l-.1-.1c0-.2 0-.3 0-.5 0-.1 0-.2 0-.3v-.1c-.2-.3-.3-.5-.5-.5zm-.3 2.2-.1 1.5c0 .1-.1.2-.2.2s-.1 0-.1 0l-1.2-.9c.4-.4.8-.6 1.4-.8zm.7 0c.6.1 1.2.4 1.7.8l-1.2.8c-.1.1-.3.1-.3 0l-.1-.1zm-2.8 1.4 1.1 1c.1.1.1.2 0 .3l-.1.1-1.4.4c-.1-.7 0-1.3.4-1.8zm4.9 0c.2.3.3.6.4.9s.1.6.1.9l-1.4-.4c-.1 0-.2-.2-.2-.3s0-.1.1-.1zm-2.7 1h.4l.3.3-.1.4-.4.2-.4-.2-.1-.4zm1.4 1.2c.1 0 .1 0 0 0l1.5.2c-.2.6-.6 1.1-1.2 1.5l-.6-1.4c.1-.1.1-.2.3-.3zm-2.4 0c.1 0 .2.1.2.2v.2l-.6 1.4c-.5-.3-.9-.8-1.2-1.5zm1.2.6.2.1.7 1.3c-.1 0-.2.1-.3.1-.5.1-1.1.1-1.6-.1l.7-1.3c.2 0 .2-.1.3-.1z" fill="#fff" stroke="#fff" stroke-width=".25"/></svg>