<svg viewBox="0 0 26 27" fill="none" xmlns="http://www.w3.org/2000/svg"><path d="M11.895 26.927a.499.499 0 0 1-.264-.07L.264 20.305a.53.53 0 0 1-.265-.46V6.573a.53.53 0 0 1 .265-.46L10.717.09a.5.5 0 0 1 .784.45v5.747a.525.525 0 0 1-.25.445L6.022 9.728v6.961l5.888 3.401 5.149-2.996a.499.499 0 0 1 .499 0l4.954 2.846a.53.53 0 0 1 .264.46.5.5 0 0 1-.264.454L12.15 26.847a.5.5 0 0 1-.255.08zM1.014 19.486l11.15 6.437 9.574-5.533-3.995-2.302-5.309 3.066a.554.554 0 0 1-.544 0l-6.632-3.825a.525.525 0 0 1-.264-.455V9.458a.5.5 0 0 1 .264-.454l5.229-2.996V1.424L.999 6.917l.015 12.569z" fill="url(#a)"/><path d="M23.456 19.216a.564.564 0 0 1-.265-.07l-4.949-2.861a.5.5 0 0 1-.265-.454V9.783L12.75 6.767a.524.524 0 0 1-.265-.455V.565a.51.51 0 0 1 .76-.45l10.491 6.028a.524.524 0 0 1 .265.454v12.07a.528.528 0 0 1-.265.46.549.549 0 0 1-.28.09zm-4.465-3.72 3.995 2.297V6.932l-9.488-5.494v4.56l5.244 3.036a.5.5 0 0 1 .264.454l-.015 6.008z" fill="url(#b)"/><defs><linearGradient id="a" x1="2.423" y1="5.429" x2="17.375" y2="26.766" gradientUnits="userSpaceOnUse"><stop stop-color="#C8511B"/><stop offset="1" stop-color="#F90"/></linearGradient><linearGradient id="b" x1="12.154" y1="-1.39" x2="27.106" y2="19.947" gradientUnits="userSpaceOnUse"><stop stop-color="#C8511B"/><stop offset="1" stop-color="#F90"/></linearGradient></defs></svg>