<svg fill="none" viewBox="0 0 32 33" xmlns="http://www.w3.org/2000/svg" xmlns:xlink="http://www.w3.org/1999/xlink"><clipPath id="a"><path d="m0 0h32v33h-32z"/></clipPath><mask id="b" height="30" maskUnits="userSpaceOnUse" width="32" x="0" y="1"><path d="m31.616 14.861-6.576-11.435a2.89 2.89 0 0 0 -2.465-1.47h-13.151a2.887 2.887 0 0 0 -2.465 1.47l-6.577 11.405a2.87 2.87 0 0 0 0 2.86l6.574 11.5a2.942 2.942 0 0 0 2.465 1.522h13.152a2.932 2.932 0 0 0 2.468-1.515l6.575-11.434c.512-.9.512-2.003 0-2.903z" fill="#fff"/></mask><g clip-path="url(#a)"><g mask="url(#b)"><path d="m31.616 14.861-6.576-11.435a2.89 2.89 0 0 0 -2.465-1.47h-13.151a2.887 2.887 0 0 0 -2.465 1.47l-6.577 11.405a2.87 2.87 0 0 0 0 2.86l6.574 11.5a2.942 2.942 0 0 0 2.465 1.522h13.152a2.932 2.932 0 0 0 2.468-1.515l6.575-11.434c.512-.9.512-2.003 0-2.903z" fill="#4285f4"/><path d="m23.396 12.548-.907.989.205 5.874-.86 1.245-.498-.497h.459v-2.039l-2.2-2.199-1.661.831-5.513-5.525-2.655 1.422-.328 2.754.931 5.04 1.35 1.323-.615.874 8.03 8.22h3.355c1.028-.035 2.142-.709 2.638-1.61l5.472-9.5-7.203-7.203z" fill="#000" opacity=".07"/><g fill="#fff"><path d="m11.104 22.641 1.317-1.317-1.975-1.975v-6.146l1.975-1.975-1.317-1.317-2.638 2.637v7.456z"/><path d="m13.143 17.21a.934.934 0 1 0 0-1.868.934.934 0 0 0 0 1.868zm2.794 0a.934.934 0 1 0 0-1.868.934.934 0 0 0 0 1.868zm2.795 0a.934.934 0 1 0 0-1.868.934.934 0 0 0 0 1.868z"/><path d="m20.759 9.91-1.318 1.318 1.975 1.975v6.146l-1.975 1.975 1.318 1.317 2.637-2.637v-7.456l-2.637-2.637z"/></g></g></g></svg>