<svg viewBox="0 0 24 24" xmlns="http://www.w3.org/2000/svg"><path fill-rule="evenodd" clip-rule="evenodd" d="M15.955 18.908a8.14 8.14 0 0 1-4.125 1.118H6.68C2.99 20.026 0 17.027 0 13.329c0-3.06 2.047-5.64 4.843-6.44C6.326 4.548 8.901 3 11.83 3c4.176 0 7.633 3.147 8.23 7.25a4.931 4.931 0 0 0-5.909 4.839c0 1.539.703 2.913 1.804 3.819Zm0 0a4.896 4.896 0 0 0 3.12 1.118A4.93 4.93 0 0 0 24 15.088a4.936 4.936 0 0 0-3.94-4.839c.06.413.09.835.09 1.264 0 3.166-1.688 5.928-4.195 7.395Z" fill="#fff"/></svg>