<svg fill="none" height="30" viewBox="0 0 41 30" width="41" xmlns="http://www.w3.org/2000/svg"><path d="m31.2169 12.9004-3.7716-.4666c-.2451-.8354-.6022-1.6272-1.0557-2.3618l2.3122-2.80543c.1444-.17537.1268-.423-.0413-.57898l-2.6865-2.49262c-.1686-.15642-.435-.1736-.624-.03833l-3.0237 2.1454c-.7916-.42079-1.645-.75215-2.5454-.97951l-.5029-3.49944c-.0318-.21943-.2332-.3829-.4711-.3829h-3.7992c-.2379 0-.4392.16347-.4706.38246l-.5029 3.49944c-.9004.22736-1.7538.55871-2.5454.97951l-3.02371-2.1454c-.18901-.13483-.4559-.11809-.62401.03833l-2.68649 2.49262c-.16811.15598-.18615.40361-.04131.57898l2.31227 2.80547c-.45353.7345-.81065 1.5263-1.0557 2.3617l-3.77162.4667c-.2365.0295-.41268.2163-.41268.4371v3.525c0 .2207.17618.4075.41221.4366l3.77162.4666c.24504.8355.60217 1.6273 1.05569 2.3618l-2.31227 2.8055c-.14436.1753-.12679.423.04132.5789l2.68649 2.4926c.09212.0855.2137.1292.33622.1292.10115 0 .20278-.0296.28826-.0908l3.02371-2.1454c.7916.4208 1.645.7521 2.5454.9795l.5029 3.4994c.0314.2195.2327.3829.4706.3829h3.7992c.2379 0 .4393-.1634.4706-.3824l.5029-3.4995c.9004-.2273 1.7538-.5587 2.5455-.9795l3.0236 2.1454c.0855.0613.1871.0908.2883.0908.1225 0 .2441-.0436.3362-.1291l2.6865-2.4926c.1681-.156.1862-.4036.0413-.579l-2.3122-2.8055c.4535-.7345.8106-1.5263 1.0557-2.3617l3.7716-.4666c.236-.0296.4122-.2164.4122-.4371v-3.525c0-.2208-.1762-.4076-.4122-.4367zm-14.3096 6.1648c-2.3607 0-4.274-1.7753-4.274-3.9656 0-2.1904 1.9133-3.9657 4.274-3.9657s4.2741 1.7753 4.2741 3.9657c0 2.1903-1.9134 3.9656-4.2741 3.9656z" fill="#0278d5" opacity=".3"/><path d="m1.71094 20.1357 5.42738 5.0357 8.68378-8.0571 4.3419 4.0286 19.5386-20.1429" stroke="#0278d5" stroke-linecap="round" stroke-width="2"/></svg>