<svg viewBox="0 0 20 20" xmlns="http://www.w3.org/2000/svg"><g fill="#0278d5"><path d="m17.499 10.183c0-4.575-3.55-7.6833-7.5-7.6833-3.9083 0-7.5 3.0417-7.5 7.7333-.5.2834-.83333.8167-.83333 1.4334v1.6666c0 .9167.75 1.6667 1.6667 1.6667h.83334v-5.0833c0-3.225 2.6083-5.8333 5.8333-5.8333s5.8334 2.6083 5.8334 5.8333v5.9166h-6.6667v1.6667h6.6667c.9166 0 1.6666-.75 1.6666-1.6667v-1.0166c.4917-.2584.8334-.7667.8334-1.3667v-1.9167c0-.5833-.3417-1.0916-.8334-1.35z"/><path d="m7.4994 11.667c.46024 0 .83333-.3731.83333-.8334 0-.4602-.37309-.8333-.83333-.8333s-.83333.3731-.83333.8333c0 .4603.37309.8334.83333.8334z"/><path d="m12.499 11.667c.4603 0 .8334-.3731.8334-.8334 0-.4602-.3731-.8333-.8334-.8333-.4602 0-.8333.3731-.8333.8333 0 .4603.3731.8334.8333.8334z"/><path d="m14.999 9.1917c-.4-2.375-2.4667-4.1917-4.9583-4.1917-2.525 0-5.2417 2.0917-5.025 5.375 2.0583-.84167 3.6083-2.675 4.05-4.9083 1.0916 2.1917 3.3333 3.7 5.9333 3.725z"/></g></svg>