<svg xmlns="http://www.w3.org/2000/svg" fill="currentColor" viewBox="0 0 24 24">
  <path stroke="#fff" stroke-linecap="round" stroke-linejoin="round" d="M5 3h11l3 4v14H5V3z"/>
  <g opacity=".5">
    <mask id="a" fill="#fff">
      <path fill-rule="evenodd" d="M9 9a.5.5 0 000 1h6a.5.5 0 000-1H9zm-.5 3.5A.5.5 0 019 12h6a.5.5 0 010 1H9a.5.5 0 01-.5-.5zm0 3A.5.5 0 019 15h6a.5.5 0 010 1H9a.5.5 0 01-.5-.5z" clip-rule="evenodd"/>
    </mask>
    <path fill="#F3F3FA" d="M9.5 9.5a.5.5 0 01-.5.5V8a1.5 1.5 0 00-1.5 1.5h2zM9 9a.5.5 0 01.5.5h-2A1.5 1.5 0 009 11V9zm6 0H9v2h6V9zm-.5.5A.5.5 0 0115 9v2a1.5 1.5 0 001.5-1.5h-2zm.5.5a.5.5 0 01-.5-.5h2A1.5 1.5 0 0015 8v2zm-6 0h6V8H9v2zm0 1a1.5 1.5 0 00-1.5 1.5h2a.5.5 0 01-.5.5v-2zm6 0H9v2h6v-2zm1.5 1.5A1.5 1.5 0 0015 11v2a.5.5 0 01-.5-.5h2zM15 14a1.5 1.5 0 001.5-1.5h-2a.5.5 0 01.5-.5v2zm-6 0h6v-2H9v2zm-1.5-1.5A1.5 1.5 0 009 14v-2a.5.5 0 01.5.5h-2zM9 14a1.5 1.5 0 00-1.5 1.5h2a.5.5 0 01-.5.5v-2zm6 0H9v2h6v-2zm1.5 1.5A1.5 1.5 0 0015 14v2a.5.5 0 01-.5-.5h2zM15 17a1.5 1.5 0 001.5-1.5h-2a.5.5 0 01.5-.5v2zm-6 0h6v-2H9v2zm-1.5-1.5A1.5 1.5 0 009 17v-2a.5.5 0 01.5.5h-2z" mask="url(#a)"/>
  </g>
</svg>
