<svg viewBox="0 0 16 16" fill="currentColor" xmlns="http://www.w3.org/2000/svg"><path d="m9.066 13.175-.49.896-.897.49.896.491.491.896.49-.896.897-.49-.896-.49-.491-.897ZM3.721.896l-.896.49.896.491.491.897.49-.897.897-.49-.896-.49L4.212 0l-.49.896ZM2.479 7.627l.613-1.12 1.12-.613-1.12-.614-.613-1.12-.614 1.12-1.12.614 1.12.614.614 1.12ZM14.267 10.401l-.614 1.12-1.12.614 1.12.613.614 1.12.613-1.12 1.12-.613-1.12-.614-.614-1.12ZM15.185 5.86a4.172 4.172 0 0 0-.028-2.107.399.399 0 0 0-.664-.174l-1.529 1.53a1.472 1.472 0 1 1-2.08-2.08l1.527-1.521a.398.398 0 0 0-.173-.666 4.16 4.16 0 0 0-4.892 5.72l-3.902 3.913a2.8 2.8 0 1 0 2.08 2.08l3.91-3.909a4.2 4.2 0 0 0 2.619.273 4.141 4.141 0 0 0 3.132-3.058Zm-12.36 8.008a.694.694 0 1 1 0-1.388.694.694 0 0 1 0 1.388Z"/></svg>