<svg enable-background="new 0 0 14 13" viewBox="0 0 14 13" xmlns="http://www.w3.org/2000/svg"><path d="m14 7.5c-.1-.5-.6-.8-1.3-.9-.1 0-.3 0-.4 0h.1c.6-.1 1.1-.4 1-.9s-.6-.8-1.3-.9c-.3 0-.6-.1-1-.1-.2 0-.4 0-.7 0-.4 0-1 0-1.4-.1-.3 0-.4-.2-.3-.5.3-.8.5-1.7.4-2.5.1-.8-.3-1.5-1.1-1.6-.5-.1-1 .3-.8.9.5 1.7-1.8 3.7-3.7 4.8v5.2c1.5.9 3.8 1.4 6.5 1.3h.5.1.6c.6-.1 1.3-.4 1.3-1 0-.4-.4-.7-.8-.8.2 0 .5 0 .7-.1.6-.1 1.1-.4 1-.9s-.6-.8-1.2-.9c0 0 0 0-.1 0h.7c.8-.1 1.3-.4 1.2-1zm-12.2-2.2h-1.8v6.1h1.8c.5 0 .9-.4.9-.9v-4.4c-.1-.5-.5-.8-.9-.8z" fill="#4d5969"/></svg>