<svg enable-background="new 0 0 14 14" viewBox="0 0 14 14" xmlns="http://www.w3.org/2000/svg"><path d="m13.7 12.2-3.5-3.5c.6-.9 1-2 1-3.2 0-3-2.5-5.5-5.6-5.5s-5.6 2.5-5.6 5.6 2.5 5.6 5.6 5.6c1.2 0 2.2-.4 3.2-1l3.5 3.5c.2.2.5.3.7.3.6 0 1.1-.5 1.1-1.1-.1-.2-.2-.5-.4-.7zm-8.1-2.4c-2.3 0-4.2-1.9-4.2-4.2s1.9-4.2 4.2-4.2 4.2 1.9 4.2 4.2-1.9 4.2-4.2 4.2zm2.1-4.9h-1.4v-1.4c0-.4-.3-.7-.7-.7s-.7.3-.7.7v1.4h-1.4c-.4 0-.7.3-.7.7s.3.7.7.7h1.4v1.4c0 .4.3.7.7.7s.7-.3.7-.7v-1.4h1.4c.4 0 .7-.3.7-.7s-.3-.7-.7-.7z" fill="#4d5969"/></svg>