<svg viewBox="0 0 16 16" xmlns="http://www.w3.org/2000/svg" xmlns:xlink="http://www.w3.org/1999/xlink"><filter id="a"><feColorMatrix in="SourceGraphic" type="matrix" values="0 0 0 0 1.000000 0 0 0 0 1.000000 0 0 0 0 1.000000 0 0 0 1.000000 0"/></filter><g fill="none" fill-rule="evenodd" filter="url(#a)" opacity=".75" transform="translate(-418 -282)"><g fill-rule="nonzero" opacity=".6" transform="translate(418 282)"><path d="m0 0h16v16h-16z" fill="#000" opacity="0"/><path d="m8 8.88890625c-2.48889062 0-4.4444375-1.95557813-4.4444375-4.44446875s1.95553125-4.4444375 4.4444375-4.4444375c2.4889062 0 4.4444375 1.9555625 4.4444375 4.4444375s-1.9555313 4.44446875-4.4444375 4.44446875zm0-.88890625c1.9555625 0 3.5555625-1.6 3.5555625-3.5555625s-1.6-3.55553125-3.5555625-3.55553125-3.5555625 1.6-3.5555625 3.55554687c0 1.95554688 1.6 3.55554688 3.5555625 3.55554688zm4.8888906 8c-1.2444531 0-2.2222187-.9777812-2.2222187-2.2222187s.9777656-2.2222188 2.2222187-2.2222188 2.2222032.9777656 2.2222032 2.2222188c0 1.2444531-.9777657 2.2222187-2.2221876 2.2222187zm0-.8888906c.7111094 0 1.3333281-.6222188 1.3333281-1.3333281 0-.7111094-.6222187-1.3333438-1.3333281-1.3333438-.7111093 0-1.3333281.6222344-1.3333281 1.3333438 0 .7111093.6222188 1.3333281 1.3333281 1.3333281zm-.4444531-8.00000003h.8889063v4.44445313h-.8889063zm.8888906 0h1.7777657v.88889063h-1.7777657zm0 1.77778125h1.7777657v.88889063h-1.7777657zm-5.3333281-.88889062-.8.97778125c-3.11110937.35554687-5.42221875 2.93331245-5.42221875 6.13331255h-.88890625v-.8888907h.08890625c.4444375-3.4666406 3.37778125-6.2222031 7.02221875-6.2222031zm0 0-.8.97778125c-3.11110937.35554687-5.42221875 2.93331245-5.42221875 6.13331255h-.88890625v-.8888907h.08890625c.4444375-3.4666406 3.37778125-6.2222031 7.02221875-6.2222031z" fill="#fff"/></g></g></svg>