<svg xmlns="http://www.w3.org/2000/svg" viewBox="0 0 26 24">
  <g fill="none">
    <path d="M21.547 15.212l-.73-.428a.28.28 0 01-.132-.28 4.056 4.056 0 000-1.33.268.268 0 01.132-.28l.701-.414c-.014-.03-.044-.044-.088-.06a2.209 2.209 0 01-.716-.427c-.058-.045-.131-.06-.19-.015l-.453.266c-.088.044-.19.014-.234-.06l-.526-.915c-.044-.089-.015-.192.058-.236l.088-.045c-.015-.014-.03-.014-.044-.03a3.412 3.412 0 00-1.14-.664.288.288 0 01-.176-.25V9.2a.279.279 0 00-.277-.28h-1.652a.279.279 0 00-.278.28v.813a.257.257 0 01-.175.25c-.41.148-.804.385-1.14.665a.262.262 0 01-.308.03l-.73-.429a.284.284 0 00-.38.104l-.834 1.447a.29.29 0 00.103.384l.73.429a.28.28 0 01.132.28 4.056 4.056 0 000 1.33.27.27 0 01-.132.28l-.73.428a.287.287 0 00-.103.384l.833 1.448a.281.281 0 00.38.103l.731-.428a.262.262 0 01.307.03c.337.295.717.516 1.14.664a.288.288 0 01.176.251v.842c0 .148.117.28.278.28h1.652a.279.279 0 00.277-.28v-.842c0-.118.074-.222.176-.251.41-.148.804-.384 1.14-.665a.262.262 0 01.307-.03l.731.43c.132.073.292.029.38-.104l.833-1.448a.312.312 0 00-.117-.384zm-4.56.576a1.938 1.938 0 01-1.93-1.95c0-1.077.862-1.949 1.93-1.949 1.067 0 1.93.872 1.93 1.95 0 1.078-.863 1.95-1.93 1.95z" fill="#FF8080"/>
    <path d="M25.144 11.033l-.454-.266a.169.169 0 01-.087-.177 2.71 2.71 0 000-.842c-.015-.074.014-.148.087-.178l.454-.265c.087-.045.116-.163.058-.237l-.526-.915c-.044-.089-.161-.119-.234-.06l-.453.266c-.059.03-.147.03-.19-.014a2.72 2.72 0 00-.717-.429c-.073-.03-.117-.088-.117-.162v-.532a.17.17 0 00-.175-.177h-1.053a.17.17 0 00-.175.177v.532c0 .074-.044.133-.117.162a2.209 2.209 0 00-.716.429c-.059.044-.132.059-.19.014l-.453-.265c-.088-.045-.19-.015-.234.059l-.527.915c-.043.089-.014.192.059.237l.453.265a.17.17 0 01.088.178 2.71 2.71 0 000 .842c.014.073-.015.147-.088.177l-.453.266c-.088.044-.117.162-.059.236l.527.916c.044.088.16.118.234.059l.453-.266c.058-.03.146-.03.19.015.22.177.453.325.716.428.073.03.117.089.117.162v.532a.17.17 0 00.175.177h1.053a.17.17 0 00.175-.177v-.532c0-.073.044-.133.117-.162a2.21 2.21 0 00.717-.428c.058-.045.131-.06.19-.015l.453.266c.088.044.19.014.234-.06l.526-.915c.058-.089.03-.192-.058-.236zm-2.895.221c-.6 0-1.082-.487-1.082-1.093 0-.605.483-1.093 1.082-1.093.6 0 1.082.488 1.082 1.093a1.067 1.067 0 01-1.082 1.093z" fill="#FDED72"/>
    <path d="M16.153 18.801a.279.279 0 01-.277-.28v-.842a.257.257 0 00-.176-.251 3.857 3.857 0 01-1.14-.665.262.262 0 00-.307-.03l-.731.429c-.132.074-.292.03-.38-.104l-.833-1.447a.29.29 0 01.102-.384l.73-.428a.28.28 0 00.132-.28 4.056 4.056 0 010-1.33c.015-.118-.029-.222-.131-.28l-.731-.429a.287.287 0 01-.102-.384l.833-1.447a.281.281 0 01.38-.104l.73.429c.103.059.22.044.308-.03a3.412 3.412 0 011.14-.665.288.288 0 00.176-.25v-.783a1.783 1.783 0 00-.775-.163H2.266A1.9 1.9 0 00.38 10.988v10.693a1.9 1.9 0 001.886 1.905h12.85A1.9 1.9 0 0017 21.681v-2.895h-.848v.015z" fill="#FDDD48"/>
    <path d="M4.824 9.068V6.513c0-2.156 1.74-3.899 3.874-3.899 2.12 0 3.845 1.743 3.86 3.9v2.554h2.221V6.513C14.78 3.116 12.075.37 8.713.37 5.35.37 2.63 3.102 2.63 6.5v2.569h2.193z" fill="#FAFAFC"/>
    <path d="M16.153 18.801a.279.279 0 01-.277-.28v-.842a.257.257 0 00-.176-.251 3.857 3.857 0 01-1.14-.665.262.262 0 00-.307-.03l-.731.429c-.132.074-.292.03-.38-.104l-.833-1.447a.29.29 0 01.102-.384l.73-.428a.28.28 0 00.132-.28 4.056 4.056 0 010-1.33c.015-.118-.029-.222-.131-.28l-.731-.429a.287.287 0 01-.102-.384l.497-.871H.38v10.22h16.621V18.8h-.848z" fill="#FDED72"/>
    <path d="M10.306 18.58l-.79-1.876a.446.446 0 01.147-.546c.701-.532.833-1.551.307-2.26a1.591 1.591 0 00-2.237-.31c-.702.531-.833 1.55-.307 2.26.088.118.19.22.307.31a.46.46 0 01.132.546l-.79 1.876a.524.524 0 00.263.664c.059.03.132.045.19.045h2.31a.495.495 0 00.497-.503.88.88 0 00-.03-.206z" fill="#FFF"/>
    <path d="M10.642 18.432l-.79-1.876c-.014-.044 0-.088.03-.103a1.98 1.98 0 00.76-1.831 1.966 1.966 0 00-2.207-1.699 1.982 1.982 0 00-1.696 1.964c0 .62.292 1.211.775 1.58.03.03.044.075.03.104l-.79 1.876a.882.882 0 00.79 1.226h2.309a.86.86 0 00.862-.872 1.267 1.267 0 00-.073-.369zm-.687.414a.133.133 0 01-.117.059h-2.31a.132.132 0 01-.131-.133c0-.015 0-.03.014-.06l.79-1.875a.85.85 0 00-.249-.99 1.252 1.252 0 01-.248-1.728 1.233 1.233 0 011.125-.487c.673.074 1.155.694 1.082 1.374-.044.34-.204.635-.482.841a.834.834 0 00-.263.99l.79 1.876c.028.059.028.103 0 .133zM22.25 8.684c-.805 0-1.448.665-1.448 1.462 0 .798.658 1.463 1.447 1.463.804 0 1.447-.665 1.447-1.463a1.449 1.449 0 00-1.447-1.462zm0 2.2a.721.721 0 01-.717-.723.72.72 0 01.716-.723.72.72 0 01.716.723.703.703 0 01-.716.724z" fill="#000"/>
    <path d="M25.524 8.862l-.527-.916a.515.515 0 00-.73-.192l-.351.192a2.471 2.471 0 00-.6-.355v-.398a.552.552 0 00-.54-.547h-1.053a.552.552 0 00-.541.547v.398c-.22.089-.41.207-.6.355l-.35-.207a.536.536 0 00-.731.192l-.526.916a.548.548 0 00.19.738l.35.207a2.778 2.778 0 000 .694l-.043.03a3.94 3.94 0 00-1.024-.591v-.783a.652.652 0 00-.643-.65h-1.652c-.19 0-.38.089-.497.251a2.153 2.153 0 00-.526-.073V6.513C15.13 2.924 12.25 0 8.683 0 5.131 0 2.237 2.91 2.237 6.513V8.7A2.27 2.27 0 000 10.974V21.68c0 1.256 1.009 2.275 2.251 2.275h12.85c1.242 0 2.251-1.02 2.251-2.275v-2.51h.453a.652.652 0 00.643-.65v-.783c.41-.163.79-.384 1.14-.665l.673.384a.64.64 0 00.877-.236l.833-1.447a.653.653 0 00-.234-.887l-.672-.384a4.056 4.056 0 000-1.329l.132-.074v.015c0 .295.248.547.54.547h1.053c.292 0 .54-.252.54-.547v-.399c.22-.088.41-.206.6-.354l.351.207a.537.537 0 00.731-.192l.526-.916a.548.548 0 00-.19-.739l-.35-.206a2.778 2.778 0 000-.694l.35-.207a.58.58 0 00.176-.753zM2.982 6.513c0-3.19 2.558-5.775 5.716-5.775 3.157 0 5.716 2.585 5.716 5.775V8.7h-1.491V6.513c0-2.363-1.886-4.268-4.225-4.268-2.339 0-4.24 1.905-4.24 4.268V8.7H2.983V6.513zm9.195 0V8.7H5.19V6.513c0-1.95 1.564-3.53 3.493-3.53 1.93 0 3.494 1.58 3.494 3.53zM2.266 9.438h12.499a2.5 2.5 0 01.745.059v.457c-.41.163-.79.384-1.14.665l-.673-.384a.64.64 0 00-.877.236l-.219.384H.746c.073-.797.73-1.417 1.52-1.417zm12.85 13.78H2.265c-.79 0-1.447-.621-1.52-1.419H16.62a1.51 1.51 0 01-1.506 1.418zm1.52-2.157H.746v-9.467h11.446l-.19.325a.653.653 0 00.234.886l.672.384a4.056 4.056 0 000 1.33l-.672.383a.64.64 0 00-.234.872l.833 1.447a.64.64 0 00.877.236l.672-.384c.337.28.731.502 1.14.665v.783c0 .354.293.65.644.65h.482l-.014 1.89zm4.648-5.568l-.73 1.285-.644-.384a.66.66 0 00-.73.059 3.295 3.295 0 01-1.024.605.654.654 0 00-.424.606v.753h-1.476v-.753a.634.634 0 00-.424-.606 3 3 0 01-1.024-.605.634.634 0 00-.73-.06l-.644.385-.73-1.285.643-.37a.649.649 0 00.307-.679 3.29 3.29 0 010-1.196.67.67 0 00-.307-.68l-.644-.369.731-1.285.643.384a.66.66 0 00.731-.059 3.295 3.295 0 011.024-.605.654.654 0 00.424-.606v-.753h1.476v.739c0 .265.16.516.424.605.278.103.555.251.79.414a.593.593 0 00.058.413l.526.916a.515.515 0 00.731.192l.35-.207h.015c.044.044.103.074.161.118l.015.015-.146.089a.649.649 0 00-.307.679 3.29 3.29 0 010 1.196.67.67 0 00.307.68l.628.369zm2.953-5.686a1.92 1.92 0 010 .709.517.517 0 00.263.56l.293.178-.337.576-.292-.177a.527.527 0 00-.614.059c-.175.162-.395.28-.614.354a.528.528 0 00-.35.517v.34h-.673v-.34a.579.579 0 00-.351-.517 2.56 2.56 0 01-.614-.354.552.552 0 00-.614-.06l-.292.178-.336-.576.292-.177a.549.549 0 00.263-.561 1.926 1.926 0 010-.71.517.517 0 00-.263-.56l-.292-.178.336-.576.292.178c.19.118.439.088.614-.06.175-.162.395-.28.614-.354.22-.074.35-.28.35-.517V7.4h.673v.34a.58.58 0 00.351.517c.22.089.424.207.614.354a.552.552 0 00.614.06l.292-.178.337.576-.293.178a.55.55 0 00-.263.56z" fill="#000"/>
    <path d="M16.987 11.535a2.302 2.302 0 00-2.296 2.319 2.302 2.302 0 002.296 2.318 2.302 2.302 0 002.295-2.318c0-1.285-1.038-2.32-2.295-2.32zm0 3.884a1.574 1.574 0 01-1.565-1.58c0-.872.702-1.58 1.565-1.58.862 0 1.564.708 1.564 1.58 0 .871-.702 1.58-1.564 1.58z" fill="#000"/>
  </g>
</svg>