<svg enable-background="new 0 0 32 32" viewBox="0 0 32 32" xmlns="http://www.w3.org/2000/svg"><circle cx="16" cy="16" fill="#d4ecfc" r="16"/><g fill="#1a57ad"><path d="m10.8 3.6-3.6-3.4c-.2-.1-.3-.2-.5-.2-.3 0-.6.3-.6.6 0 .2.1.3.2.4l2.6 2.5h-8.3c-.3-.1-.6.2-.6.5s.3.6.6.6h8.3l-2.6 2.4c-.1.1-.2.3-.2.4 0 .3.3.6.6.6.2 0 .3-.1.5-.2l3.7-3.4c0-.1.1-.2.1-.4s-.1-.3-.2-.4z" transform="translate(16 12)"/><path d="m10.9 7v2.7h-1v-2.1h-3.3v2.2h-1.2v-2.2h-3.2v2.2h-1.2v-2.8c0-.3.2-.5.6-.5h3.8v-2.2h1.1v2.2h3.8c.4 0 .6.2.6.5zm-9.9 3.3h1.1c.3 0 .5.2.5.5v1.2c0 .3-.2.5-.5.5h-1.1c-.3 0-.5-.2-.5-.5v-1.1c0-.3.2-.6.5-.6zm8.9 0h1.1c.3 0 .6.2.6.5v1.2c0 .3-.2.5-.6.5h-1.1c-.3 0-.6-.2-.6-.5v-1.1c0-.3.2-.6.6-.6zm-4.5 0h1.1c.3 0 .5.2.5.5v1.2c0 .3-.2.5-.5.5h-1.1c-.3 0-.5-.2-.5-.5v-1.1c0-.3.2-.6.5-.6zm-.2-9.8h1.6c.5 0 .8.4.8.8v1.7c0 .5-.4.8-.8.8h-1.6c-.5 0-.9-.4-.9-.8v-1.7c0-.4.4-.8.9-.8z" transform="matrix(0 1 -1 0 20 10)"/></g></svg>