<svg fill="none" viewBox="0 0 24 20" xmlns="http://www.w3.org/2000/svg"><path d="m18.9314 0-5.068 2.92614v2.0572l-1.778-1.02655-5.06771 2.92613v2.15623l-1.94998-1.12587-5.06771 2.92642v5.852l5.068 2.9261 5.0683-2.9261v-2.1559l1.9494 1.1258 5.068-2.9261v-2.0569l1.7777 1.0265 5.0686-2.92611v-5.85285zm3.7503 3.17984-3.7497 2.16502-3.7503-2.16502 3.7497-2.16501zm-8.8183 2.81833v2.27692l-1.7774 1.02626-3.74968-2.16472 3.74938-2.16501zm2.4114 3.15758-1.0895-.629 1.0895-.62899zm-1.5325-1.38807v-1.2621l1.0928.63105zm-7.72432 2.28632v2.0789l-1.94968 1.1255-3.74996-2.165 3.74966-2.16529zm2.23913 2.9592-1.00311-.5795 1.00311-.5795zm-1.36023-1.388v-1.0638l.92108.5317zm-7.017984.229 3.749954 2.1654-.00059 4.3291-3.749658-2.165v-4.3295zm8.378214 4.3298-3.74995 2.165.00029-4.3292 1.86766-1.0784 1.882 1.0869zm-1.36023-6.63744v-1.6491l3.74962 2.16504-.0003 4.3297-1.5099-.8721v-2.6807zm8.37792 2.68094-3.7497 2.165.0003-4.33 1.7807-1.02804 1.9687 1.13644zm-1.5325-6.73675v-1.54978l3.7502 2.1653-.0005 4.32973-1.3383-.77284v-2.78024zm4.6286 4.94525.0005-4.33002 3.7497-2.16501v4.33002z" fill="#6b6d85"/></svg>