<?xml version="1.0" encoding="UTF-8"?>
<svg fill="currentColor" viewBox="0 0 44 49" xmlns="http://www.w3.org/2000/svg">
<path d="m3.3262 36.007v-19.758l18.596-10.46 18.332 10.881 0.4461 20.072-18.288 10.492-19.086-11.227z" fill="#A4CDF8"/>
<path d="m21.922 26.48v21.146" stroke="#000" stroke-linecap="round" stroke-linejoin="round"/>
<path d="m40.516 16.246v20.92" stroke="#000" stroke-linecap="round" stroke-linejoin="round"/>
<path d="m3.3262 16.246v20.92" stroke="#000" stroke-linecap="round" stroke-linejoin="round"/>
<path d="m2.3379 15.777 20.518 11.597" stroke="#000" stroke-linecap="round" stroke-linejoin="round"/>
<path d="m19.596 4.625 22.606 13.058" stroke="#000" stroke-linecap="round" stroke-linejoin="round"/>
<path d="m1 34.844 22.606 13.058" stroke="#000" stroke-linecap="round" stroke-linejoin="round"/>
<path d="m3.3248 16.364 20.424-11.293" stroke="#000" stroke-linecap="round" stroke-linejoin="round"/>
<path d="m21.922 26.707 19.224-11.377" stroke="#000" stroke-linecap="round" stroke-linejoin="round"/>
<path d="m21.074 47.891 20.606-11.887" stroke="#000" stroke-linecap="round" stroke-linejoin="round"/>
<path d="m26.425 24.251-4.3668 16.058m9.2734-18.288-6.6908 24.087m15.866-27.655-6.0654 21.37m1.7968-21.37-6.6908 24.087m8.9084-4.9474 2.051-7.5421" stroke="#000" stroke-linecap="round" stroke-linejoin="round"/>
<circle cx="20.87" cy="10.081" r="7.8696" fill="#FAFBFC"/>
<path d="m16.633 10.102c1.4443 1.4436 2.6467 3.034 3.4266 5.2642 0.1515 1.5094-1.6937-7.8314 8.6805-14.366" stroke="#000" stroke-linecap="round" stroke-linejoin="round"/>
<path d="m22.948 2.8051c-7.2786 0-9.2144 4.8929-8.6427 8.2762 0.4413 2.6118 1.8533 4.6783 4.0936 5.8742 4.4566 2.379 8.9631 0.3028 10.918-4.2295 2.1278-4.9336-1.5922-8.9862-3.93-9.9209-1.9232-0.76906-4.5357-0.81511-6.533 4e-5 -1.759 0.71784-3.5998 1.8017-4.5485 3.3418" stroke="#000" stroke-linecap="round" stroke-linejoin="round"/>
</svg>