<?xml version="1.0" encoding="utf-8"?>
<!-- Generator: Adobe Illustrator 25.2.1, SVG Export Plug-In . SVG Version: 6.00 Build 0)  -->
<svg version="1.1" id="Layer_1" xmlns="http://www.w3.org/2000/svg" xmlns:xlink="http://www.w3.org/1999/xlink" x="0px" y="0px"
	 viewBox="0 0 101 103" style="enable-background:new 0 0 101 103;" xml:space="preserve">
<style type="text/css">
	.st0{fill:#FFFFFF;}
	.st1{fill:none;stroke:#000000;stroke-width:1.75;stroke-linecap:round;stroke-linejoin:round;}
</style>
<g>
	<path class="st0" d="M16,32.2L2.8,60.4v15.9L38,94.8l44.1-6.2l12.3-28.2v-15L62.7,26L16,32.2z"/>
	<path class="st1" d="M1,73.6C12.5,80,30,90.1,41.6,96.5"/>
	<path class="st1" d="M80.3,90.4c4.4-9.7,7.1-15.9,14.1-31.7"/>
	<path class="st1" d="M31,94.8c19.4-2.6,29.1-3.5,53.8-7.9"/>
	<path class="st1" d="M1.9,57.7c11.5,6.4,29,16.5,40.6,22.9"/>
	<path class="st1" d="M59.2,26c11.5,6.4,29,16.5,40.6,22.9"/>
	<path class="st1" d="M2.8,62.1c4.4-9.7,7.1-15.9,14.1-31.7 M81.2,74.5c4.4-9.7,7.1-15.9,14.1-31.7"/>
	<path class="st1" d="M12.5,33.9c19.4-2.6,29.1-3.5,53.8-7.9 M31.9,78.9c19.4-2.6,29.1-3.5,53.8-7.9"/>
	<path class="st1" d="M4.4,57.8c0,4,0.1,14.5,0.1,18.5 M37,77.2c0,4,0.1,14.5,0.1,18.5 M82,71c0,4,0.1,14.5,0.1,18.5 M93.6,43.6
		c0,4,0.1,14.5,0.1,18.5"/>
	<path class="st1" d="M42.4,77.5L38,93.7 M43.3,92.8l4.2-15.3 M48.6,91.9l4.2-15.3 M58.3,75.7l-4.2,15.3 M63.6,74.9l-4.2,15.3
		 M69.8,74l-4.4,16.2 M75.1,73.1l-4.4,16.2 M80.3,72.2l-4.4,16.2"/>
	<path class="st1" d="M86.5,75.3V63.9 M90,68.3L90.2,55"/>
	<path class="st1" d="M16.9,66.6l-3.4,13.1 M21.3,69.2l-3.5,13.5 M26.6,71.8l-3.7,14.1 M31,74.8l-3.7,13.8 M35.4,77.1L31.7,91
		 M12.5,63.9L8.7,78 M8.1,62.1l-3.5,13"/>
</g>
<g>
	<path class="st0" d="M23,49.6V24l24-13.5l23.7,14.1l0.6,26L47.7,64.1L23,49.6z"/>
	<path class="st1" d="M47.1,37.3v27.3"/>
	<path class="st1" d="M71.1,24v27"/>
	<path class="st1" d="M23,24v27"/>
	<path class="st1" d="M21.7,23.4l26.5,15"/>
	<path class="st1" d="M44,9l29.2,16.9"/>
	<path class="st1" d="M20,48.1l29.2,16.9"/>
	<path class="st1" d="M23,24.2L49.4,9.6"/>
	<path class="st1" d="M47.1,37.6l24.9-14.7"/>
	<path class="st1" d="M46,64.9l26.6-15.4"/>
	<path class="st1" d="M52.9,34.4l-5.6,20.8 M58.6,30.8L49.9,62 M70.1,25.8l-8.4,29.4 M64.2,27.6l-8.7,31.1 M67.2,52.7L71.3,39"/>
	<path class="st1" d="M41.6,40.3v15.4"/>
	<path class="st1" d="M28.1,32.8v15.2"/>
	<path class="st1" d="M27.4,32.5l14.9,8.4"/>
	<path class="st1" d="M26.4,46.4l16.5,9.5"/>
	<path class="st1" d="M33.7,36.4l-5.8,3 M41.3,41L28.9,47 M37.8,38.4l-9.9,5.1"/>
</g>
</svg>
