<svg fill="none" viewBox="0 0 81 80" xmlns="http://www.w3.org/2000/svg" xmlns:xlink="http://www.w3.org/1999/xlink"><mask id="a" fill="#fff"><path d="m47.736 13.22-4.786-4.792a5.454 5.454 0 0 0 -1.98-1.197c-1.635-.544-3.263-.12-4.58 1.197l-4.8 4.792a5.454 5.454 0 0 0 -1.197 1.98c-.546 1.636-.121 3.264 1.197 4.58l4.792 4.792c.566.536 1.24.944 1.978 1.197.447.15.915.229 1.387.231 1.15 0 2.25-.486 3.194-1.428l4.79-4.792a5.455 5.455 0 0 0 1.2-1.98c.543-1.636.118-3.261-1.2-4.58h.004zm-7.704-3.402c.362.116.696.307.98.56l1.415 1.418-2.761 2.76-2.762-2.761 1.424-1.426c.382-.38.92-.784 1.708-.553zm-7.047 6.31c.117-.361.308-.695.563-.978l1.415-1.417 2.762 2.762-2.764 2.762-1.423-1.426c-.382-.38-.784-.919-.554-1.706l.001.004zm6.31 7.048a2.678 2.678 0 0 1 -.979-.56l-1.412-1.4 2.762-2.764 2.761 2.761-1.424 1.426c-.382.38-.918.784-1.708.552zm7.05-6.297a2.728 2.728 0 0 1 -.56.98l-1.415 1.398-2.762-2.762 2.762-2.762 1.424 1.424c.382.38.783.919.554 1.706" fill="#fff"/></mask><mask id="b" fill="#fff"><path d="m23.736 53.22-4.786-4.792a5.454 5.454 0 0 0 -1.98-1.197c-1.635-.544-3.263-.12-4.58 1.197l-4.8 4.792a5.455 5.455 0 0 0 -1.197 1.98c-.546 1.636-.121 3.264 1.197 4.58l4.792 4.792c.566.536 1.24.944 1.978 1.197.447.15.915.229 1.387.231 1.15 0 2.25-.486 3.194-1.428l4.79-4.792a5.455 5.455 0 0 0 1.2-1.98c.544-1.636.119-3.261-1.2-4.58h.004zm-7.704-3.402c.362.116.695.307.98.56l1.415 1.419-2.761 2.76-2.762-2.762 1.424-1.426c.382-.38.92-.784 1.708-.553zm-7.047 6.31c.117-.361.308-.695.562-.978l1.416-1.416 2.762 2.761-2.764 2.762-1.423-1.426c-.382-.38-.784-.919-.555-1.706l.002.004zm6.31 7.048a2.678 2.678 0 0 1 -.979-.56l-1.412-1.4 2.762-2.764 2.761 2.761-1.424 1.426c-.382.38-.918.783-1.707.552v-.015zm7.05-6.297a2.728 2.728 0 0 1 -.56.98l-1.415 1.398-2.762-2.762 2.762-2.761 1.424 1.423c.381.38.783.919.554 1.706" fill="#fff"/></mask><mask id="c" fill="#fff"><path d="m47.736 53.22-4.786-4.792a5.454 5.454 0 0 0 -1.98-1.197c-1.635-.544-3.263-.12-4.58 1.197l-4.8 4.792a5.454 5.454 0 0 0 -1.197 1.98c-.546 1.636-.121 3.264 1.197 4.58l4.792 4.792c.566.536 1.24.944 1.978 1.197.447.15.915.229 1.387.231 1.15 0 2.25-.486 3.194-1.428l4.79-4.792a5.455 5.455 0 0 0 1.2-1.98c.543-1.636.118-3.261-1.2-4.58h.004zm-7.704-3.402c.362.116.696.307.98.56l1.415 1.419-2.761 2.76-2.762-2.762 1.424-1.426c.382-.38.92-.784 1.708-.553zm-7.047 6.31c.117-.361.308-.695.563-.978l1.415-1.416 2.762 2.761-2.764 2.762-1.423-1.426c-.382-.38-.784-.919-.554-1.706l.001.004zm6.31 7.048a2.678 2.678 0 0 1 -.979-.56l-1.412-1.4 2.762-2.764 2.761 2.761-1.424 1.426c-.382.38-.918.783-1.708.552zm7.05-6.297a2.728 2.728 0 0 1 -.56.98l-1.415 1.398-2.762-2.762 2.762-2.761 1.424 1.423c.382.38.783.919.554 1.706" fill="#fff"/></mask><mask id="d" fill="#fff"><path d="m70.736 53.22-4.786-4.792a5.454 5.454 0 0 0 -1.98-1.197c-1.635-.544-3.263-.12-4.58 1.197l-4.8 4.792a5.454 5.454 0 0 0 -1.197 1.98c-.546 1.636-.121 3.264 1.197 4.58l4.792 4.792c.566.536 1.24.944 1.978 1.197.447.15.915.229 1.387.231 1.15 0 2.25-.486 3.194-1.428l4.79-4.792a5.455 5.455 0 0 0 1.2-1.98c.543-1.636.118-3.261-1.2-4.58h.004zm-7.704-3.402c.362.116.696.307.98.56l1.415 1.419-2.761 2.76-2.762-2.762 1.424-1.426c.382-.38.92-.784 1.708-.553zm-7.047 6.31c.117-.361.308-.695.563-.978l1.415-1.416 2.762 2.761-2.764 2.762-1.423-1.426c-.382-.38-.784-.919-.554-1.706l.001.004zm6.31 7.048a2.678 2.678 0 0 1 -.979-.56l-1.412-1.4 2.762-2.764 2.761 2.761-1.424 1.426c-.382.38-.918.783-1.708.552zm7.05-6.297a2.728 2.728 0 0 1 -.56.98l-1.415 1.398-2.762-2.762 2.762-2.761 1.424 1.423c.382.38.783.919.554 1.706" fill="#fff"/></mask><path d="m47.736 13.22-4.786-4.792a5.454 5.454 0 0 0 -1.98-1.197c-1.635-.544-3.263-.12-4.58 1.197l-4.8 4.792a5.454 5.454 0 0 0 -1.197 1.98c-.546 1.636-.121 3.264 1.197 4.58l4.792 4.792c.566.536 1.24.944 1.978 1.197.447.15.915.229 1.387.231 1.15 0 2.25-.486 3.194-1.428l4.79-4.792a5.455 5.455 0 0 0 1.2-1.98c.543-1.636.118-3.261-1.2-4.58h.004zm-7.704-3.402c.362.116.696.307.98.56l1.415 1.418-2.761 2.76-2.762-2.761 1.424-1.426c.382-.38.92-.784 1.708-.553zm-7.047 6.31c.117-.361.308-.695.563-.978l1.415-1.417 2.762 2.762-2.764 2.762-1.423-1.426c-.382-.38-.784-.919-.554-1.706l.001.004zm6.31 7.048a2.678 2.678 0 0 1 -.979-.56l-1.412-1.4 2.762-2.764 2.761 2.761-1.424 1.426c-.382.38-.918.784-1.708.552zm7.05-6.297a2.728 2.728 0 0 1 -.56.98l-1.415 1.398-2.762-2.762 2.762-2.762 1.424 1.424c.382.38.783.919.554 1.706" fill="#fff"/><path d="m47.736 13.22v1.5h3.618l-2.556-2.56zm-4.786-4.792 1.061-1.06-.015-.015-.016-.015zm-1.98-1.198.486-1.419-.012-.004zm-4.58 1.197-1.06-1.062zm-4.8 4.793-1.06-1.06-.015.014-.015.016zm-1.197 1.98-1.419-.485-.003.01 1.422.476zm1.197 4.58 1.06-1.061-1.06 1.06zm4.792 4.792-1.06 1.06.014.015.015.014zm1.978 1.197-.485 1.419.005.002zm1.387.231-.007 1.5h.007zm3.194-1.428 1.06 1.062.001-.001-1.06-1.06zm4.79-4.792 1.061 1.06.015-.014.014-.015zm1.2-1.98 1.418.486.004-.013-1.423-.474zm-1.2-4.58v-1.5h-3.62l2.56 2.561 1.06-1.06zm-7.7-3.402-.67-1.341-3.293 1.646 3.505 1.124zm.98.56 1.06-1.06-.03-.03-.032-.028-.999 1.119zm1.415 1.418 1.06 1.062 1.061-1.06-1.06-1.061-1.06 1.06zm-2.761 2.76-1.061 1.06 1.06 1.061 1.061-1.06-1.06-1.06zm-2.762-2.761-1.061-1.06-1.06 1.06 1.06 1.06zm1.424-1.426-1.057-1.064-.003.004 1.061 1.06zm1.708-.553.67 1.342 3.413-1.706-3.66-1.075-.423 1.44zm-7.05 6.313-1.342.67 1.644 3.29 1.126-3.501-1.429-.46zm.562-.98-1.061-1.06-.029.029-.027.03 1.117 1.002zm1.415-1.415 1.061-1.061-1.06-1.06-1.061 1.06 1.06 1.06zm2.762 2.761 1.06 1.061 1.062-1.06-1.062-1.061zm-2.764 2.762-1.06 1.06 1.06 1.061 1.06-1.06zm-1.423-1.426 1.061-1.06-.003-.004zm-.554-1.706 1.341-.67-1.712-3.425-1.07 3.676 1.44.419zm6.311 7.05h1.5v-1.097l-1.046-.332-.454 1.43zm-.979-.56-1.056 1.066.026.026.028.024 1.002-1.115zm-1.412-1.4-1.06-1.06-1.065 1.065 1.069 1.06zm2.762-2.763 1.06-1.06-1.06-1.062-1.061 1.062 1.06 1.06zm2.761 2.761 1.062 1.06 1.059-1.06-1.06-1.06-1.06 1.06zm-1.424 1.426 1.058 1.064.004-.004zm-1.708.552h-1.5v1.124l1.079.316zm6.49-5.333 1.055 1.067.034-.033.032-.036-1.12-.998zm-1.415 1.399-1.06 1.06 1.053 1.054 1.06-1.047zm-2.762-2.762-1.06-1.06-1.06 1.06 1.06 1.06zm2.762-2.762 1.06-1.06-1.06-1.06-1.06 1.06zm1.424 1.424-1.061 1.061.003.003zm3.004-2.997-4.787-4.792-2.122 2.12 4.786 4.792zm-4.817-4.822a6.955 6.955 0 0 0 -2.524-1.526l-.972 2.838c.535.183 1.024.48 1.435.868l2.062-2.18zm-2.536-1.53c-2.226-.741-4.436-.118-6.115 1.558l2.12 2.123c.957-.955 2.003-1.183 3.047-.835zm-6.115 1.559-4.798 4.792 2.12 2.123 4.798-4.793zm-4.828 4.823a6.953 6.953 0 0 0 -1.526 2.525l2.838.971c.184-.535.48-1.024.868-1.435zm-1.53 2.535c-.743 2.227-.12 4.438 1.56 6.116l2.12-2.123c-.956-.954-1.183-1.998-.834-3.042l-2.845-.95zm1.56 6.115 4.792 4.793 2.121-2.121-4.792-4.793-2.122 2.121zm4.82 4.821a6.936 6.936 0 0 0 2.525 1.527l.971-2.838a3.936 3.936 0 0 1 -1.432-.867l-2.063 2.178zm2.53 1.529c.6.203 1.228.307 1.86.31l.013-3a2.888 2.888 0 0 1 -.912-.152zm1.867.31c1.603 0 3.071-.686 4.254-1.866l-2.12-2.123c-.705.703-1.438.989-2.134.989zm4.255-1.867 4.79-4.793-2.121-2.12-4.79 4.792 2.121 2.12zm4.819-4.822a6.956 6.956 0 0 0 1.528-2.525l-2.838-.973a3.955 3.955 0 0 1 -.869 1.435zm1.532-2.538c.742-2.226.118-4.434-1.56-6.113l-2.122 2.121c.957.957 1.184 2 .836 3.045zm-2.621-3.553h.003v-3h-.003zm-8.159-3.473c.162.052.311.137.438.25l1.998-2.237a4.213 4.213 0 0 0 -1.52-.87zm.376.191 1.416 1.418 2.123-2.12-1.416-1.417-2.123 2.12zm1.417-.703-2.762 2.76 2.121 2.122 2.761-2.76-2.12-2.121zm-.64 2.76-2.762-2.761-2.121 2.121 2.761 2.762 2.121-2.122zm-2.761-.64 1.423-1.426-2.122-2.12-1.424 1.426zm1.42-1.423c.066-.066.118-.111.161-.144a.373.373 0 0 1 .07-.044c.002-.001-.009.003-.026.004-.017.002-.013-.003.022.008l.845-2.879c-1.609-.472-2.703.446-3.188.928zm-.021-2.957-.004.002 1.342 2.683.004-.002zm-4.952 8.113c.052-.162.138-.31.251-.437l-2.233-2.003c-.395.44-.693.959-.874 1.522l2.857.918zm.195-.378 1.416-1.416-2.121-2.121-1.416 1.416zm-.705-1.416 2.761 2.762 2.121-2.122-2.76-2.761zm2.761.64-2.763 2.762 2.12 2.122 2.764-2.762-2.12-2.122zm-.641 2.763-1.424-1.426-2.123 2.12 1.424 1.426zm-1.427-1.43a1.518 1.518 0 0 1 -.141-.156.369.369 0 0 1 -.044-.068c0-.002.004.009.005.025.001.017-.003.012.008-.024l-2.88-.838c-.468 1.606.443 2.698.936 3.188zm-2.954.029.002.004 2.683-1.342-.002-.004zm8.107 4.95a1.177 1.177 0 0 1 -.43-.246l-2.005 2.232c.441.396.962.694 1.528.873zm-.376-.195-1.412-1.4-2.113 2.13 1.412 1.4zm-1.408.725 2.762-2.764-2.122-2.12-2.762 2.763 2.122 2.12zm.64-2.764 2.761 2.762 2.122-2.121-2.762-2.762zm2.76.641-1.423 1.426 2.123 2.12 1.424-1.426-2.123-2.12zm-1.42 1.423a1.626 1.626 0 0 1 -.161.144.372.372 0 0 1 -.07.044c-.001.001.01-.003.027-.005.017 0 .013.004-.024-.007l-.843 2.879c1.61.472 2.702-.446 3.187-.928zm.85 1.615v-.015h-3v.015zm4.123-6.771a1.226 1.226 0 0 1 -.252.44l2.24 1.996c.392-.44.688-.957.868-1.518zm-.186.371-1.416 1.398 2.108 2.135 1.416-1.399zm.699 1.405-2.762-2.762-2.121 2.122 2.761 2.761zm-2.762-.64 2.762-2.762-2.122-2.121-2.761 2.761zm.64-2.762 1.424 1.424 2.121-2.121-1.423-1.424zm1.427 1.427c.064.064.109.115.14.156s.042.064.044.068c0 .002-.004-.009-.005-.025-.001-.017.003-.012-.007.024l2.88.838c.468-1.605-.443-2.697-.936-3.188z" fill="#ff7020" mask="url(#a)"/><path d="m23.736 53.22-4.786-4.792a5.454 5.454 0 0 0 -1.98-1.197c-1.635-.544-3.263-.12-4.58 1.197l-4.8 4.792a5.455 5.455 0 0 0 -1.197 1.98c-.546 1.636-.121 3.264 1.197 4.58l4.792 4.792c.566.536 1.24.944 1.978 1.197.447.15.915.229 1.387.231 1.15 0 2.25-.486 3.194-1.428l4.79-4.792a5.455 5.455 0 0 0 1.2-1.98c.544-1.636.119-3.261-1.2-4.58h.004zm-7.704-3.402c.362.116.695.307.98.56l1.415 1.419-2.761 2.76-2.762-2.762 1.424-1.426c.382-.38.92-.784 1.708-.553zm-7.047 6.31c.117-.361.308-.695.562-.978l1.416-1.416 2.762 2.761-2.764 2.762-1.423-1.426c-.382-.38-.784-.919-.555-1.706l.002.004zm6.31 7.048a2.678 2.678 0 0 1 -.979-.56l-1.412-1.4 2.762-2.764 2.761 2.761-1.424 1.426c-.382.38-.918.783-1.707.552v-.015zm7.05-6.297a2.728 2.728 0 0 1 -.56.98l-1.415 1.398-2.762-2.762 2.762-2.761 1.424 1.423c.381.38.783.919.554 1.706" fill="#fff"/><path d="m23.736 53.22v1.5h3.618l-2.556-2.56zm-4.786-4.792 1.061-1.06-.015-.015-.015-.015zm-1.98-1.197.486-1.419-.012-.004zm-4.58 1.197-1.06-1.062zm-4.8 4.792-1.06-1.06-.015.014-.015.016zm-1.196 1.98-1.419-.485-.003.01zm1.197 4.58 1.06-1.061-1.06 1.06zm4.792 4.792-1.06 1.06.014.015.015.014zm1.978 1.197-.486 1.419.006.002zm1.387.231-.007 1.5h.007zm3.194-1.428 1.06 1.062.001-.001-1.06-1.06zm4.79-4.792 1.061 1.06.015-.014.014-.015zm1.2-1.98 1.418.486.004-.013-1.423-.474zm-1.2-4.58v-1.5h-3.62l2.56 2.561 1.06-1.06zm-7.7-3.402-.67-1.341-3.293 1.646 3.505 1.124zm.98.56 1.06-1.06-.03-.03-.032-.028-.999 1.119zm1.415 1.419 1.06 1.06 1.061-1.06-1.06-1.06-1.06 1.06zm-2.761 2.76-1.061 1.06 1.06 1.06 1.061-1.06zm-2.762-2.762-1.061-1.06-1.06 1.06 1.06 1.06zm1.424-1.426-1.058-1.064-.003.004zm1.708-.553.67 1.342 3.413-1.706-3.66-1.075-.423 1.44zm-7.05 6.313-1.342.67 1.644 3.29 1.126-3.501-1.429-.46zm.561-.98-1.06-1.06-.029.029-.027.03 1.116 1.002zm1.416-1.416 1.061-1.06-1.06-1.06-1.061 1.06zm2.762 2.762 1.06 1.061 1.062-1.06-1.061-1.062zm-2.764 2.762-1.06 1.06 1.06 1.061 1.06-1.06zm-1.423-1.427 1.061-1.06-.003-.004zm-.555-1.706 1.342-.67-1.712-3.425-1.07 3.676zm6.313 7.05h1.5v-1.097l-1.047-.332-.454 1.43zm-.98-.56-1.056 1.066.026.026.028.024 1.002-1.115zm-1.412-1.4-1.06-1.06-1.065 1.065 1.069 1.06zm2.762-2.763 1.06-1.06-1.06-1.062-1.061 1.062 1.06 1.06zm2.761 2.761 1.061 1.06 1.06-1.06-1.06-1.06-1.06 1.06zm-1.424 1.426 1.058 1.063.004-.003zm-1.707.552h-1.5v1.124l1.078.316.421-1.44zm6.49-5.333 1.054 1.068.034-.034.032-.036zm-1.416 1.399-1.06 1.06 1.053 1.054 1.06-1.047zm-2.762-2.762-1.06-1.06-1.06 1.06 1.06 1.06zm2.762-2.761 1.06-1.061-1.06-1.06-1.06 1.06 1.06 1.06zm1.424 1.423-1.061 1.061.003.003zm3.004-2.997-4.787-4.792-2.122 2.12 4.786 4.792zm-4.817-4.822a6.954 6.954 0 0 0 -2.525-1.526l-.972 2.838c.535.183 1.024.48 1.435.868l2.061-2.18zm-2.537-1.53c-2.226-.741-4.435-.118-6.115 1.558l2.12 2.123c.957-.955 2.002-1.182 3.047-.835zm-6.115 1.559-4.798 4.792 2.12 2.123 4.798-4.793zm-4.828 4.824a6.954 6.954 0 0 0 -1.526 2.525l2.839.971c.183-.535.479-1.024.867-1.435zm-1.53 2.535c-.743 2.227-.12 4.438 1.56 6.116l2.12-2.123c-.956-.954-1.183-1.998-.834-3.042l-2.845-.95zm1.56 6.115 4.792 4.793 2.121-2.121-4.792-4.793-2.122 2.121zm4.82 4.821a6.936 6.936 0 0 0 2.524 1.527l.972-2.838a3.936 3.936 0 0 1 -1.432-.867l-2.063 2.178zm2.53 1.529c.6.203 1.228.307 1.86.31l.013-3a2.888 2.888 0 0 1 -.912-.152zm1.867.31c1.603 0 3.071-.686 4.254-1.866l-2.12-2.123c-.705.703-1.438.989-2.134.989zm4.255-1.867 4.79-4.793-2.121-2.12-4.79 4.792 2.121 2.12zm4.819-4.822a6.956 6.956 0 0 0 1.528-2.525l-2.838-.973a3.955 3.955 0 0 1 -.869 1.435zm1.532-2.538c.742-2.226.118-4.434-1.56-6.113l-2.122 2.121c.957.957 1.183 2 .836 3.045zm-2.621-3.553h.003v-3h-.003zm-8.159-3.473c.162.052.311.137.438.25l1.998-2.237a4.212 4.212 0 0 0 -1.52-.87zm.376.191 1.416 1.418 2.122-2.12-1.415-1.417-2.123 2.12zm1.417-.703-2.762 2.76 2.121 2.122 2.761-2.76-2.12-2.121zm-.64 2.76-2.762-2.761-2.121 2.121 2.761 2.762 2.121-2.121zm-2.761-.64 1.424-1.426-2.123-2.12-1.424 1.426zm1.42-1.423c.066-.066.118-.111.161-.144a.373.373 0 0 1 .07-.044c.002-.001-.009.003-.026.004-.018.002-.013-.003.022.008l.845-2.879c-1.609-.472-2.703.446-3.188.928zm-.021-2.957-.004.002 1.342 2.683.004-.002zm-4.951 8.113c.051-.162.137-.31.25-.437l-2.233-2.003c-.395.44-.693.959-.874 1.522zm.194-.378 1.416-1.416-2.121-2.121-1.416 1.416zm-.705-1.416 2.761 2.762 2.122-2.121-2.762-2.762zm2.761.64-2.763 2.762 2.12 2.122 2.764-2.762-2.12-2.122zm-.641 2.763-1.424-1.426-2.123 2.12 1.424 1.426zm-1.427-1.43a1.518 1.518 0 0 1 -.141-.156.369.369 0 0 1 -.043-.068c-.001-.002.003.009.004.025.001.017-.003.012.008-.024l-2.88-.838c-.468 1.606.443 2.698.936 3.188zm-2.954.029.002.004 2.683-1.342-.002-.004zm8.107 4.95a1.177 1.177 0 0 1 -.43-.246l-2.005 2.231c.441.397.962.695 1.528.875zm-.376-.195-1.412-1.4-2.113 2.13 1.412 1.4zm-1.408.724 2.762-2.763-2.122-2.12-2.762 2.763zm.64-2.763 2.761 2.762 2.122-2.121-2.762-2.762zm2.76.641-1.423 1.426 2.123 2.12 1.423-1.426-2.122-2.12zm-1.42 1.423a1.626 1.626 0 0 1 -.161.144.372.372 0 0 1 -.07.044c-.001.001.01-.003.027-.005.018 0 .013.004-.024-.007l-.843 2.879c1.61.472 2.702-.446 3.187-.928zm.85 1.615v-.015h-3v.015zm4.123-6.771a1.226 1.226 0 0 1 -.252.44l2.24 1.996c.392-.44.688-.957.868-1.518zm-.186.371-1.416 1.398 2.108 2.135 1.416-1.398zm.698 1.405-2.76-2.761-2.122 2.12 2.761 2.762zm-2.76-.64 2.76-2.762-2.12-2.121-2.762 2.761 2.121 2.122zm.64-2.762 1.423 1.424 2.121-2.121-1.424-1.424zm1.426 1.427c.064.064.109.115.14.156s.042.063.044.068c0 .002-.004-.009-.005-.025-.001-.017.003-.012-.007.024l2.88.838c.468-1.605-.443-2.697-.936-3.188z" fill="#ff7020" mask="url(#b)"/><path d="m47.736 53.22-4.786-4.792a5.454 5.454 0 0 0 -1.98-1.197c-1.635-.544-3.263-.12-4.58 1.197l-4.8 4.792a5.454 5.454 0 0 0 -1.197 1.98c-.546 1.636-.121 3.264 1.197 4.58l4.792 4.792c.566.536 1.24.944 1.978 1.197.447.15.915.229 1.387.231 1.15 0 2.25-.486 3.194-1.428l4.79-4.792a5.455 5.455 0 0 0 1.2-1.98c.543-1.636.118-3.261-1.2-4.58h.004zm-7.704-3.402c.362.116.696.307.98.56l1.415 1.419-2.761 2.76-2.762-2.762 1.424-1.426c.382-.38.92-.784 1.708-.553zm-7.047 6.31c.117-.361.308-.695.563-.978l1.415-1.416 2.762 2.761-2.764 2.762-1.423-1.426c-.382-.38-.784-.919-.554-1.706l.001.004zm6.31 7.048a2.678 2.678 0 0 1 -.979-.56l-1.412-1.4 2.762-2.764 2.761 2.761-1.424 1.426c-.382.38-.918.783-1.708.552zm7.05-6.297a2.728 2.728 0 0 1 -.56.98l-1.415 1.398-2.762-2.762 2.762-2.761 1.424 1.423c.382.38.783.919.554 1.706" fill="#fff"/><path d="m47.736 53.22v1.5h3.618l-2.556-2.56zm-4.786-4.792 1.061-1.06-.015-.015-.016-.015zm-1.98-1.197.486-1.419-.012-.004zm-4.58 1.197-1.06-1.062zm-4.8 4.792-1.06-1.06-.015.014-.015.016zm-1.197 1.98-1.419-.485-.003.01zm1.197 4.58 1.06-1.061-1.06 1.06zm4.792 4.792-1.06 1.06.014.015.015.014zm1.978 1.197-.485 1.419.005.002zm1.387.231-.007 1.5h.007zm3.194-1.428 1.06 1.062.001-.001-1.06-1.06zm4.79-4.792 1.061 1.06.015-.014.014-.015zm1.2-1.98 1.418.486.004-.013-1.423-.474zm-1.2-4.58v-1.5h-3.62l2.56 2.561 1.06-1.06zm-7.7-3.402-.67-1.341-3.293 1.646 3.505 1.124zm.98.56 1.06-1.06-.03-.03-.032-.028-.999 1.119zm1.415 1.419 1.06 1.06 1.061-1.06-1.06-1.06-1.06 1.06zm-2.761 2.76-1.061 1.06 1.06 1.06 1.061-1.06zm-2.762-2.762-1.061-1.06-1.06 1.06 1.06 1.06zm1.424-1.426-1.058-1.064-.003.004zm1.708-.553.67 1.342 3.413-1.706-3.66-1.075-.423 1.44zm-7.05 6.313-1.342.67 1.644 3.29 1.126-3.501-1.429-.46zm.562-.98-1.061-1.06-.029.029-.027.03 1.117 1.002zm1.415-1.416 1.061-1.06-1.06-1.06-1.061 1.06zm2.762 2.762 1.06 1.061 1.062-1.06-1.062-1.062zm-2.764 2.762-1.06 1.06 1.06 1.061 1.06-1.06zm-1.423-1.426 1.061-1.06-.003-.004zm-.554-1.706 1.341-.67-1.712-3.425-1.07 3.676 1.44.419zm6.311 7.05h1.5v-1.097l-1.046-.332-.454 1.43zm-.979-.56-1.056 1.066.026.026.028.024 1.002-1.115zm-1.412-1.4-1.06-1.06-1.065 1.065 1.069 1.06zm2.762-2.763 1.06-1.06-1.06-1.062-1.061 1.062 1.06 1.06zm2.761 2.761 1.062 1.06 1.059-1.06-1.06-1.06-1.06 1.06zm-1.424 1.426 1.058 1.063.004-.003zm-1.708.552h-1.5v1.124l1.079.316zm6.49-5.333 1.055 1.068.034-.034.032-.036-1.12-.998zm-1.415 1.399-1.06 1.06 1.053 1.054 1.06-1.047zm-2.762-2.762-1.06-1.06-1.06 1.06 1.06 1.06zm2.762-2.761 1.06-1.061-1.06-1.06-1.06 1.06 1.06 1.06zm1.424 1.423-1.061 1.061.003.003zm3.004-2.997-4.787-4.792-2.122 2.12 4.786 4.792zm-4.818-4.822a6.954 6.954 0 0 0 -2.524-1.526l-.972 2.838c.535.183 1.024.48 1.435.868l2.062-2.18zm-2.536-1.53c-2.226-.741-4.436-.118-6.115 1.558l2.12 2.123c.957-.955 2.003-1.182 3.047-.835zm-6.115 1.559-4.798 4.792 2.12 2.123 4.798-4.793zm-4.828 4.823a6.953 6.953 0 0 0 -1.526 2.525l2.838.971c.184-.535.48-1.024.868-1.435zm-1.53 2.535c-.743 2.227-.12 4.438 1.56 6.116l2.12-2.123c-.956-.954-1.183-1.998-.834-3.042l-2.845-.95zm1.56 6.115 4.792 4.793 2.121-2.121-4.792-4.793-2.122 2.121zm4.82 4.821a6.936 6.936 0 0 0 2.525 1.527l.971-2.838a3.936 3.936 0 0 1 -1.432-.867l-2.063 2.178zm2.53 1.529c.6.203 1.228.307 1.86.31l.013-3a2.888 2.888 0 0 1 -.912-.152zm1.867.31c1.603 0 3.071-.686 4.254-1.866l-2.12-2.123c-.705.703-1.438.989-2.134.989zm4.255-1.867 4.79-4.793-2.121-2.12-4.79 4.792 2.121 2.12zm4.819-4.822a6.956 6.956 0 0 0 1.528-2.525l-2.838-.973a3.955 3.955 0 0 1 -.869 1.435zm1.532-2.538c.742-2.226.118-4.434-1.56-6.113l-2.122 2.121c.957.957 1.184 2 .836 3.045zm-2.621-3.553h.003v-3h-.003zm-8.159-3.473c.162.052.311.137.438.25l1.998-2.237a4.212 4.212 0 0 0 -1.52-.87zm.376.191 1.416 1.418 2.123-2.12-1.416-1.417-2.123 2.12zm1.417-.703-2.762 2.76 2.121 2.122 2.761-2.76-2.12-2.121zm-.64 2.76-2.762-2.761-2.121 2.121 2.761 2.762 2.121-2.121zm-2.761-.64 1.423-1.426-2.122-2.12-1.424 1.426zm1.42-1.423c.066-.066.118-.111.161-.144a.373.373 0 0 1 .07-.044c.002-.001-.009.003-.026.004-.017.002-.013-.003.022.008l.845-2.879c-1.609-.472-2.703.446-3.188.928zm-.021-2.957-.004.002 1.342 2.683.004-.002zm-4.952 8.113c.052-.162.138-.31.251-.437l-2.233-2.003c-.395.44-.693.959-.874 1.522l2.857.918zm.195-.378 1.416-1.416-2.121-2.121-1.416 1.416zm-.705-1.416 2.761 2.762 2.121-2.121-2.76-2.762zm2.761.64-2.763 2.762 2.12 2.122 2.764-2.762-2.12-2.122zm-.641 2.763-1.424-1.426-2.123 2.12 1.424 1.426zm-1.427-1.43a1.518 1.518 0 0 1 -.141-.156.369.369 0 0 1 -.044-.068c0-.002.004.009.005.025.001.017-.003.012.008-.024l-2.88-.838c-.468 1.606.443 2.698.936 3.188zm-2.954.029.002.004 2.683-1.342-.002-.004zm8.107 4.95a1.177 1.177 0 0 1 -.43-.246l-2.005 2.231c.441.397.962.695 1.528.875zm-.376-.195-1.412-1.4-2.113 2.13 1.412 1.4zm-1.408.724 2.762-2.763-2.122-2.12-2.762 2.763zm.64-2.763 2.761 2.762 2.122-2.121-2.762-2.762zm2.76.641-1.423 1.426 2.123 2.12 1.424-1.426-2.123-2.12zm-1.42 1.423a1.626 1.626 0 0 1 -.161.144.372.372 0 0 1 -.07.044c-.001.001.01-.003.027-.005.017 0 .013.004-.024-.007l-.843 2.879c1.61.472 2.702-.446 3.187-.928zm.85 1.615v-.015h-3v.015zm4.123-6.771a1.226 1.226 0 0 1 -.252.44l2.24 1.996c.392-.44.688-.957.868-1.518zm-.186.371-1.416 1.398 2.108 2.135 1.416-1.398zm.699 1.405-2.762-2.761-2.121 2.12 2.761 2.762zm-2.762-.64 2.762-2.762-2.122-2.121-2.761 2.761zm.64-2.762 1.424 1.424 2.121-2.121-1.423-1.424zm1.427 1.427c.064.064.109.115.14.156s.042.063.044.068c0 .002-.004-.009-.005-.025-.001-.017.003-.012-.007.024l2.88.838c.468-1.605-.443-2.697-.936-3.188z" fill="#ff7020" mask="url(#c)"/><path d="m70.736 53.22-4.786-4.792a5.454 5.454 0 0 0 -1.98-1.197c-1.635-.544-3.263-.12-4.58 1.197l-4.8 4.792a5.454 5.454 0 0 0 -1.197 1.98c-.546 1.636-.121 3.264 1.197 4.58l4.792 4.792c.566.536 1.24.944 1.978 1.197.447.15.915.229 1.387.231 1.15 0 2.25-.486 3.194-1.428l4.79-4.792a5.455 5.455 0 0 0 1.2-1.98c.543-1.636.118-3.261-1.2-4.58h.004zm-7.704-3.402c.362.116.696.307.98.56l1.415 1.419-2.761 2.76-2.762-2.762 1.424-1.426c.382-.38.92-.784 1.708-.553zm-7.047 6.31c.117-.361.308-.695.563-.978l1.415-1.416 2.762 2.761-2.764 2.762-1.423-1.426c-.382-.38-.784-.919-.554-1.706l.001.004zm6.31 7.048a2.678 2.678 0 0 1 -.979-.56l-1.412-1.4 2.762-2.764 2.761 2.761-1.424 1.426c-.382.38-.918.783-1.708.552zm7.05-6.297a2.728 2.728 0 0 1 -.56.98l-1.415 1.398-2.762-2.762 2.762-2.761 1.424 1.423c.382.38.783.919.554 1.706" fill="#fff"/><g fill="#ff7020"><path d="m70.736 53.22v1.5h3.618l-2.556-2.56zm-4.786-4.792 1.061-1.06-.015-.015-.015-.015zm-1.98-1.197.486-1.419-.012-.004zm-4.58 1.197-1.06-1.062zm-4.8 4.792-1.06-1.06-.015.014-.015.016zm-1.197 1.98-1.419-.485-.003.01zm1.197 4.58 1.06-1.061-1.06 1.06zm4.792 4.792-1.06 1.06.014.015.015.014zm1.978 1.197-.485 1.419.005.002zm1.387.231-.007 1.5h.007zm3.194-1.428 1.06 1.062.001-.001-1.06-1.06zm4.79-4.792 1.061 1.06.015-.014.014-.015zm1.2-1.98 1.418.486.004-.013-1.423-.474zm-1.2-4.58v-1.5h-3.62l2.56 2.561 1.06-1.06zm-7.7-3.402-.67-1.341-3.293 1.646 3.505 1.124zm.98.56 1.06-1.06-.03-.03-.032-.028-.999 1.119zm1.415 1.419 1.06 1.06 1.061-1.06-1.06-1.06-1.06 1.06zm-2.761 2.76-1.061 1.06 1.06 1.06 1.061-1.06zm-2.762-2.762-1.061-1.06-1.06 1.06 1.06 1.06zm1.424-1.426-1.058-1.064-.003.004zm1.708-.553.67 1.342 3.413-1.706-3.66-1.075-.423 1.44zm-7.05 6.313-1.342.67 1.644 3.29 1.126-3.501-1.429-.46zm.562-.98-1.061-1.06-.029.029-.027.03 1.117 1.002zm1.415-1.416 1.061-1.06-1.06-1.06-1.061 1.06zm2.762 2.762 1.06 1.061 1.062-1.06-1.062-1.062zm-2.764 2.762-1.06 1.06 1.06 1.061 1.06-1.06zm-1.423-1.426 1.061-1.06-.003-.004zm-.554-1.706 1.341-.67-1.712-3.425-1.07 3.676 1.44.419zm6.311 7.05h1.5v-1.097l-1.046-.332-.454 1.43zm-.979-.56-1.056 1.066.026.026.028.024 1.002-1.115zm-1.412-1.4-1.06-1.06-1.065 1.065 1.069 1.06zm2.762-2.763 1.06-1.06-1.06-1.062-1.061 1.062 1.06 1.06zm2.761 2.761 1.061 1.06 1.06-1.06-1.06-1.06-1.06 1.06zm-1.424 1.426 1.058 1.063.004-.003zm-1.708.552h-1.5v1.124l1.079.316zm6.49-5.333 1.055 1.068.034-.034.032-.036-1.12-.998zm-1.415 1.399-1.06 1.06 1.053 1.054 1.06-1.047zm-2.762-2.762-1.06-1.06-1.06 1.06 1.06 1.06zm2.762-2.761 1.06-1.061-1.06-1.06-1.06 1.06 1.06 1.06zm1.424 1.423-1.061 1.061.003.003zm3.004-2.997-4.787-4.792-2.122 2.12 4.786 4.792zm-4.817-4.822a6.954 6.954 0 0 0 -2.525-1.526l-.972 2.838c.535.183 1.024.48 1.435.868zm-2.537-1.53c-2.226-.741-4.436-.118-6.115 1.558l2.12 2.123c.957-.955 2.003-1.182 3.047-.835zm-6.115 1.559-4.798 4.792 2.12 2.123 4.798-4.793zm-4.828 4.823a6.953 6.953 0 0 0 -1.526 2.525l2.838.971c.184-.535.48-1.024.868-1.435zm-1.53 2.535c-.743 2.227-.12 4.438 1.56 6.116l2.12-2.123c-.956-.954-1.183-1.998-.834-3.042l-2.845-.95zm1.56 6.115 4.792 4.793 2.121-2.121-4.792-4.793-2.122 2.121zm4.82 4.821a6.936 6.936 0 0 0 2.525 1.527l.971-2.838a3.936 3.936 0 0 1 -1.432-.867l-2.063 2.178zm2.53 1.529c.6.203 1.228.307 1.86.31l.013-3a2.888 2.888 0 0 1 -.912-.152zm1.867.31c1.603 0 3.071-.686 4.254-1.866l-2.12-2.123c-.705.703-1.438.989-2.134.989zm4.255-1.867 4.79-4.793-2.121-2.12-4.79 4.792 2.121 2.12zm4.819-4.822a6.956 6.956 0 0 0 1.528-2.525l-2.838-.973a3.955 3.955 0 0 1 -.869 1.435zm1.532-2.538c.742-2.226.118-4.434-1.56-6.113l-2.122 2.121c.957.957 1.184 2 .836 3.045zm-2.621-3.553h.003v-3h-.004v3zm-8.159-3.473c.162.052.311.137.438.25l1.998-2.237a4.212 4.212 0 0 0 -1.52-.87zm.376.191 1.416 1.418 2.123-2.12-1.416-1.417-2.123 2.12zm1.417-.703-2.762 2.76 2.121 2.122 2.761-2.76-2.12-2.121zm-.64 2.76-2.762-2.761-2.121 2.121 2.761 2.762 2.121-2.121zm-2.761-.64 1.423-1.426-2.122-2.12-1.424 1.426zm1.42-1.423c.066-.066.118-.111.161-.144a.373.373 0 0 1 .07-.044c.002-.001-.009.003-.026.004-.017.002-.013-.003.022.008l.845-2.879c-1.609-.472-2.703.446-3.188.928zm-.021-2.957-.004.002 1.342 2.683.004-.002zm-4.952 8.113c.052-.162.138-.31.251-.437l-2.233-2.003c-.395.44-.693.959-.874 1.522zm.195-.378 1.416-1.416-2.121-2.121-1.416 1.416zm-.705-1.416 2.761 2.762 2.121-2.121-2.76-2.762zm2.761.64-2.763 2.762 2.12 2.122 2.764-2.762-2.12-2.122zm-.641 2.763-1.424-1.426-2.123 2.12 1.424 1.426zm-1.427-1.43a1.518 1.518 0 0 1 -.141-.156.369.369 0 0 1 -.044-.068c0-.002.004.009.005.025.001.017-.003.012.008-.024l-2.88-.838c-.468 1.606.443 2.698.936 3.188zm-2.954.029.002.004 2.683-1.342-.002-.004zm8.107 4.95a1.177 1.177 0 0 1 -.43-.246l-2.005 2.231c.441.397.962.695 1.528.875zm-.376-.195-1.412-1.4-2.113 2.13 1.412 1.4zm-1.408.724 2.762-2.763-2.122-2.12-2.762 2.763zm.64-2.763 2.761 2.762 2.122-2.121-2.762-2.762zm2.76.641-1.423 1.426 2.123 2.12 1.424-1.426-2.123-2.12zm-1.42 1.423a1.626 1.626 0 0 1 -.161.144.372.372 0 0 1 -.07.044c-.001.001.01-.003.027-.005.017 0 .013.004-.024-.007l-.843 2.879c1.61.472 2.702-.446 3.187-.928zm.85 1.615v-.015h-3v.015zm4.123-6.771a1.226 1.226 0 0 1 -.252.44l2.24 1.996c.392-.44.688-.957.868-1.518zm-.186.371-1.416 1.398 2.108 2.135 1.416-1.398zm.698 1.405-2.76-2.761-2.122 2.12 2.761 2.762zm-2.76-.64 2.76-2.762-2.12-2.121-2.762 2.761 2.121 2.122zm.64-2.762 1.423 1.424 2.121-2.121-1.424-1.424zm1.426 1.427c.064.064.109.115.14.156s.042.063.044.068c0 .002-.004-.009-.005-.025-.001-.017.003-.012-.007.024l2.88.838c.468-1.605-.443-2.697-.936-3.188z" mask="url(#d)"/><path d="m40.662 28.5a1 1 0 1 0 -2 0zm-2 16a1 1 0 1 0 2 0zm-24 0a1 1 0 1 0 2 0zm2-6.5-.8-.6zm45-.5-.747.664zm0 7a1 1 0 1 0 2 0zm-3.5-8v1c.045 0 .09-.003.133-.009zm4.5 4-1-.02v.02zm-41-4v-1c-.02 0-.04 0-.061.002zm-6 5-.993-.115a.983.983 0 0 0 -.007.115zm23-13v8h2v-8zm0 8v8h2v-8zm19.5 0 .133.991h-.002c-.001 0-.001 0 0 0h.009a4.288 4.288 0 0 1 .28-.02c.2-.008.474-.006.775.03.638.075 1.216.279 1.558.663l1.495-1.328c-.826-.929-1.998-1.225-2.819-1.322a7.11 7.11 0 0 0 -1.556-.006h-.003-.002zm2.753 1.664c.351.396.552.948.656 1.47a4.954 4.954 0 0 1 .091.843v.003l1 .02 1 .02v-.002-.003-.009a1.639 1.639 0 0 0 0-.106 6.946 6.946 0 0 0 -.13-1.157c-.137-.687-.436-1.635-1.122-2.407zm.747 2.336v4h2v-4zm-44.2-1.9c.061-.081.271-.248.739-.43a9.019 9.019 0 0 1 1.502-.407 17.737 17.737 0 0 1 1.985-.262l.029-.002h.007l-.062-.999-.062-.998h-.015l-.04.004-.141.01a19.731 19.731 0 0 0 -2.08.283c-.596.116-1.256.278-1.847.507-.558.217-1.207.55-1.615 1.094zm4.2-1.1h36.5v-2h-36.5zm-5 7v-3h-2v3zm-1-3 .993.115v-.004l.003-.017a9.929 9.929 0 0 1 .05-.358c.037-.242.093-.57.168-.925.077-.357.17-.724.28-1.046.115-.338.225-.557.306-.665l-1.6-1.2c-.27.36-.461.814-.6 1.22-.143.422-.256.871-.341 1.272a18.059 18.059 0 0 0 -.252 1.491v.001z"/></g></svg>