<svg enable-background="new 0 0 101 103" viewBox="0 0 101 103" xmlns="http://www.w3.org/2000/svg"><path d="m16 32.2-13.2 28.2v15.9l35.2 18.5 44.1-6.2 12.3-28.2v-15l-31.7-19.4z" fill="#fff"/><g fill="none" stroke="#000" stroke-linecap="round" stroke-linejoin="round" stroke-width="1.75"><path d="m1 73.6c11.5 6.4 29 16.5 40.6 22.9"/><path d="m80.3 90.4c4.4-9.7 7.1-15.9 14.1-31.7"/><path d="m31 94.8c19.4-2.6 29.1-3.5 53.8-7.9"/><path d="m1.9 57.7c11.5 6.4 29 16.5 40.6 22.9"/><path d="m59.2 26c11.5 6.4 29 16.5 40.6 22.9"/><path d="m2.8 62.1c4.4-9.7 7.1-15.9 14.1-31.7m64.3 44.1c4.4-9.7 7.1-15.9 14.1-31.7"/><path d="m12.5 33.9c19.4-2.6 29.1-3.5 53.8-7.9m-34.4 52.9c19.4-2.6 29.1-3.5 53.8-7.9"/><path d="m4.4 57.8c0 4 .1 14.5.1 18.5m32.5.9c0 4 .1 14.5.1 18.5m44.9-24.7c0 4 .1 14.5.1 18.5m11.5-45.9c0 4 .1 14.5.1 18.5"/><path d="m42.4 77.5-4.4 16.2m5.3-.9 4.2-15.3m1.1 14.4 4.2-15.3m5.5-.9-4.2 15.3m9.5-16.1-4.2 15.3m10.4-16.2-4.4 16.2m9.7-17.1-4.4 16.2m9.6-17.1-4.4 16.2"/><path d="m86.5 75.3v-11.4m3.5 4.4.2-13.3"/><path d="m16.9 66.6-3.4 13.1m7.8-10.5-3.5 13.5m8.8-10.9-3.7 14.1m8.1-11.1-3.7 13.8m8.1-11.5-3.7 13.9m-19.2-27.1-3.8 14.1m-.6-15.9-3.5 13"/></g><path d="m71 53.2-19.8-49.2c-11.6 25.4-23.3 49.2-23.3 49.2 18.8 7.1 35.2 3.4 43.1 0z" fill="#fff"/><path d="m27.8 50.2c5.2 9 31.9 10.1 44.2 1.8" fill="none" stroke="#000" stroke-linecap="round" stroke-linejoin="round" stroke-width="1.75"/><path d="m27 53.9c4.6-9.8 20.5-43.5 25.9-52.9" fill="none" stroke="#000" stroke-linecap="round" stroke-linejoin="round" stroke-width="1.75"/><path d="m50.3 1c3.3 6.4 17.6 46 20.6 52.5" fill="none" stroke="#000" stroke-linecap="round" stroke-linejoin="round" stroke-width="1.75"/><path d="m53.1 28.4c-6.5 2.2-10.8 3.7-16.9 5.8" fill="none" stroke="#000" stroke-linecap="round" stroke-linejoin="round" stroke-width="1.75"/><path d="m55.9 33.9-23.1 7.8m16.9 0c-6.7 2.3-13.6 4.6-20 6.9" fill="none" stroke="#000" stroke-linecap="round" stroke-linejoin="round" stroke-width="1.75"/></svg>