<svg fill="none" height="55" viewBox="0 0 55 55" width="55" xmlns="http://www.w3.org/2000/svg" xmlns:xlink="http://www.w3.org/1999/xlink"><linearGradient id="a" gradientUnits="userSpaceOnUse" x1="52.709" x2="-10.0796" y1="-67.3639" y2="191.353"><stop offset=".262754" stop-color="#b2eec0"/><stop offset=".949452" stop-color="#62f91f" stop-opacity=".69"/></linearGradient><g clip-rule="evenodd" fill-rule="evenodd"><path d="m9.19254 10.6048 9.03986-7.34484 5.6499 2.25997 2.26 2.82496h4.5199l3.9549-7.34489 9.0399 5.64991 2.825 5.08489-2.825 3.955 2.825 3.3899h5.0849l1.695 3.39-1.695 11.8648h-6.2149l-4.52 6.7799 2.26 5.0849-9.6048 6.2149-2.825-5.0849h-6.7799l-4.5199 6.2149-9.0399-5.0849-3.95491-2.26 3.95491-6.7799v-2.26h-3.95491l-4.51993-3.9549v-11.2998l6.2149-.565 3.95494-5.6499zm11.29986 15.8198 9.0398-7.3449 2.825 2.825-.565 9.0398-7.9099 6.2149-3.3899-2.8249z" fill="#fff"/><path d="m9.19254 10.6048 9.03986-7.34484 5.6499 2.25997 2.26 2.82496h4.5199l3.9549-7.34489 9.0399 5.64991 2.825 5.08489-2.825 3.955 2.825 3.3899h5.0849l1.695 3.39-1.695 11.8648h-6.2149l-4.52 6.7799 2.26 5.0849-9.6048 6.2149-2.825-5.0849h-6.7799l-4.5199 6.2149-9.0399-5.0849-3.95491-2.26 3.95491-6.7799v-2.26h-3.95491l-4.51993-3.9549v-11.2998l6.2149-.565 3.95494-5.6499zm11.29986 15.8198 9.0398-7.3449 2.825 2.825-.565 9.0398-7.9099 6.2149-3.3899-2.8249z" fill="url(#a)"/><g fill="#000"><path d="m17.4892 16.2449c.2402.1362.3245.4413.1882.6815l-5.3674 9.4636c-.1362.2402-.4414.3245-.6816.1883s-.3245-.4414-.1882-.6816l5.3674-9.4636c.1362-.2402.4414-.3245.6816-.1882z"/><path d="m13.3493 12.2743c.2476-.1221.5474-.0203.6696.2273.1348.2735.268.5462.4006.8175.8616 1.7634 1.6978 3.4748 2.8081 5.0477.1593.2256.1055.5376-.1201.6969-.2256.1592-.5376.1054-.6969-.1202-1.1603-1.6438-2.0346-3.4343-2.8934-5.1928-.1317-.2699-.2632-.539-.3952-.8068-.1221-.2476-.0204-.5474.2273-.6696z"/><path d="m24.5613 5.61489c.2603-.09239.5461.04366.6385.30388.5693 1.60325 1.0384 3.23096 1.5039 4.84663.0876.3037.1749.607.2629.9096.2168.7465.3589 1.2186.7205 1.7611.1532.2298.0911.5402-.1386.6934-.2298.1532-.5402.0911-.6934-.1387-.4557-.6835-.6327-1.2928-.8468-2.0298l-.002-.0071c-.0892-.3069-.1774-.613-.2655-.9184-.4657-1.61595-.9251-3.21001-1.4833-4.78212-.0924-.26023.0436-.54609.3038-.63849z"/><path d="m25.3005 4.27696c.1405.23774.0617.54435-.1761.68483-4.2123 2.48913-8.3684 5.31741-11.6049 8.94241-.184.206-.5.2239-.706.04-.206-.184-.2239-.5-.04-.706 3.3406-3.74143 7.603-6.63238 11.8422-9.13733.2377-.14049.5443-.06164.6848.17609z"/><path d="m29.5044 12.7156c-1.1015-.0644-2.234.012-3.1836.0835-.2754.0208-.5154-.1856-.5362-.461-.0207-.2754.1857-.5154.4611-.5362.9478-.0714 2.1411-.1533 3.317-.0846 1.168.0683 2.3786.2875 3.3339.8607.2368.1421.3136.4492.1715.686s-.4492.3136-.686.1715c-.7495-.4497-1.7681-.655-2.8777-.7199z"/><path d="m38.467 4.56903c.2121.17678.2408.49206.064.7042-1.7915 2.14984-3.12 4.82957-4.4072 7.42627-.1581.319-.3157.6367-.4734.9521-.1234.247-.4238.3471-.6708.2236s-.3471-.4238-.2236-.6708c.1562-.3124.3133-.6295.472-.9499 1.279-2.582 2.6623-5.37444 4.5348-7.62145.1768-.21214.4921-.24081.7042-.06402z"/><path d="m46.8345 11.2402c.1953.1953.1953.5118 0 .7071-1.5599 1.5599-2.7423 3.6038-3.9015 5.6076-.1803.3118-.3601.6226-.5407.9305-.1397.2382-.4461.318-.6842.1783-.2382-.1397-.3181-.4461-.1784-.6843.1747-.2978.3507-.6024.5292-.9113 1.1525-1.9946 2.4078-4.1672 4.0685-5.8279.1953-.1953.5118-.1953.7071 0z"/><path d="m42.2634 15.9688c.2352-.1448.5432-.0714.6879.1638 1.1922 1.9372 2.0421 3.8967 2.7337 6.0409.0848.2628-.0595.5446-.3223.6294-.2628.0847-.5446-.0596-.6294-.3224-.6717-2.0824-1.4906-3.9664-2.6337-5.8238-.1447-.2352-.0714-.5432.1638-.6879z"/><path d="m52.9137 22.5942c.0084.2761-.2086.5066-.4846.515-.5588.0169-1.1209.0376-1.6854.0584-1.7885.0659-3.6009.1327-5.4059.0828-.2761-.0076-.4937-.2375-.486-.5136.0076-.276.2375-.4936.5136-.486 1.7697.0489 3.537-.0162 5.3183-.0818.5701-.021 1.1416-.042 1.7151-.0594.276-.0084.5066.2086.5149.4846z"/><path d="m53.4482 22.2522c.2749.0258.4769.2696.4511.5446-.1264 1.3462-.2871 2.6869-.4474 4.0236-.3413 2.8468-.6804 5.6754-.6804 8.5007 0 .2761-.2239.5-.5.5-.2762 0-.5-.2239-.5-.5 0-2.8853.351-5.8158.6957-8.6946.1583-1.3218.3153-2.6326.4365-3.9232.0258-.2749.2696-.4769.5445-.4511z"/><path d="m53.9017 34.3027c.0163.2757-.1941.5123-.4697.5285-2.8258.1662-5.6535.3153-8.485.4242-.276.0106-.5083-.2045-.5189-.4804s.2045-.5082.4804-.5188c2.8223-.1086 5.6427-.2573 8.4647-.4233.2757-.0162.5123.1941.5285.4698z"/><path d="m46.4061 31.479c.2511.1148.3616.4115.2468.6626-1.3128 2.8719-2.9917 5.5112-4.66 8.1339-.2945.4629-.5886.9253-.8803 1.3883-.1472.2337-.456.3038-.6896.1566s-.3037-.456-.1565-.6896c.2963-.4704.5934-.9376.8895-1.4032 1.6691-2.6245 3.3058-5.1981 4.5874-8.0018.1149-.2511.4115-.3616.6627-.2468z"/><path d="m40.1398 40.1251c.233-.1482.542-.0796.6903.1534.6385 1.0034 1.2176 2.0374 1.7871 3.0589.0209.0374.0418.0749.0626.1123.5502.9871 1.0931 1.9611 1.6837 2.9059.1463.2342.0751.5426-.159.689-.2342.1463-.5427.0752-.689-.159-.6042-.9666-1.158-1.9603-1.705-2.9415-.0222-.0399-.0445-.0799-.0667-.1198-.5709-1.0239-1.1367-2.0335-1.7574-3.0089-.1482-.233-.0795-.542.1534-.6903z"/><path d="m31.9977 46.6571c.0579.27-.1141.5358-.3841.5936-3.0364.6507-5.7301.8184-8.8278.1408-.2697-.059-.4406-.3255-.3816-.5953.059-.2697.3256-.4406.5953-.3816 2.9223.6393 5.4666.4879 8.4045-.1417.27-.0578.5358.1141.5937.3842z"/><path d="m30.7379 46.4506c.2517-.1136.5478-.0016.6613.2502.8657 1.9186 1.8233 3.7481 2.8115 5.6223.1288.2442.0352.5467-.2091.6755-.2442.1288-.5467.0352-.6754-.2091-.9873-1.8725-1.9586-3.7272-2.8385-5.6775-.1135-.2517-.0016-.5478.2502-.6614z"/><path d="m43.7898 46.629c.1532.2297.0911.5402-.1387.6933-.1063.0709-.2127.1419-.3192.2129-3.0789 2.0534-6.2374 4.1599-9.6327 5.756-.2499.1175-.5478.0101-.6653-.2398-.1174-.2499-.0101-.5477.2398-.6652 3.3265-1.5637 6.4298-3.6333 9.5263-5.6983.0988-.0659.1976-.1318.2964-.1976.2298-.1532.5402-.0911.6934.1387z"/><path d="m24.0403 45.2992c.262.0874.4035.3705.3162.6325-.4929 1.4788-1.1667 2.8876-1.8543 4.2619-.1232.2462-.2466.4911-.3697.735-.5683 1.1269-1.127 2.2347-1.6028 3.3716-.1066.2547-.3995.3748-.6542.2682-.2548-.1066-.3749-.3995-.2683-.6542.4908-1.1728 1.0689-2.3188 1.6378-3.4467.1217-.2413.243-.4817.3629-.7213.6852-1.3696 1.3311-2.7243 1.7999-4.1307.0874-.262.3705-.4036.6325-.3163z"/><path d="m16.6012 41.0341c.1991.1914.2053.5079.0139.707-1.5012 1.5612-2.8362 3.2262-4.1921 4.9173-.5637.7031-1.131 1.4107-1.7154 2.1172-.176.2128-.4912.2426-.704.0666-.21279-.176-.2426-.4912-.0666-.704.5631-.6808 1.1185-1.3734 1.6759-2.0685 1.3678-1.7058 2.7473-3.4263 4.2814-5.0217.1914-.1991.5079-.2053.7069-.0139z"/><path d="m9.46977 47.9186c.14207-.2368.4492-.3136.68603-.1715 2.5675 1.5406 4.993 3.278 7.4042 5.0052.3106.2226.621.4449.9314.6666.0254.0181.074.0561.1231.0944.0289.0226.058.0454.0826.0642.0257.0198.0517.0394.0774.0584.0019-.0007.0038-.0013.0058-.002.2619-.0873.5451.0543.6324.3162.0246.0737.0708.229.0297.3996-.0247.1026-.0838.2202-.1994.3088-.111.0852-.2293.1092-.3126.1131-.1463.007-.269-.043-.3238-.067-.0703-.0308-.1376-.0694-.1947-.1049-.115-.0717-.2332-.1595-.3234-.2287-.0407-.0312-.0783-.0606-.1087-.0845l-.0117-.0091-.0408-.0317-.0127-.0098c-.0022-.0016-.0036-.0026-.0041-.003-.0003-.0002-.0005-.0003-.0004-.0003-.3115-.2225-.6223-.4451-.9327-.6674-2.415-1.7299-4.8058-3.4424-7.33613-4.9606-.23679-.1421-.31358-.4492-.1715-.686zm8.99753 6.3595c-.0002-.0001-.0014-.0037-.0028-.0102.0024.0071.003.0104.0028.0102zm.5387-.4903c.0089.0031.01.0044.0017.0008-.0005-.0003-.0011-.0005-.0017-.0008z"/><path d="m12.6427 36.1003c.2726-.0442.5294.1409.5736.4135.3178 1.9596 1.2929 4.1256 2.6849 5.5176.1953.1953.1953.5119 0 .7071-.1952.1953-.5118.1953-.7071 0-1.5675-1.5675-2.6202-3.9391-2.9649-6.0646-.0442-.2726.1409-.5294.4135-.5736z"/><path d="m4.46724 36.0628c.06028-.2694.32761-.439.59709-.3788 2.08268.4659 4.29061.4437 6.51237.4213.4763-.0048.9532-.0096 1.4296-.0096.2762 0 .5.2239.5.5 0 .2762-.2238.5-.5.5-.4529 0-.9137.0049-1.38.0098-2.22454.0233-4.57353.048-6.78026-.4456-.26948-.0603-.43908-.3276-.3788-.5971z"/><path d="m4.89873 25.0135c.07675-.2652.354-.4181.61926-.3413 2.7384.7922 5.39061.627 8.27391.2666.274-.0342.5239.1601.5581.4342.0343.274-.1601.5239-.4341.5581-2.9088.3636-5.73171.5534-8.67582-.2983-.26526-.0768-.41809-.354-.34135-.6193z"/><path d="m5.81038 24.6524c.27611.004.4967.2311.4927.5072-.02111 1.4567-.07661 2.9117-.13184 4.3599-.00179.0468-.00357.0937-.00536.1405-.05705 1.4966-.11263 2.986-.12958 4.4751-.01366 1.1998.00554 2.0005.37624 2.989.09696.2586-.03404.5468-.2926.6437-.25856.097-.54676-.034-.64372-.2926-.44107-1.1762-.45365-2.1396-.43986-3.3515.01713-1.5044.07326-3.0066.13024-4.5018.00174-.0454.00347-.0908.0052-.1362.05535-1.4514.11045-2.8959.13139-4.3406.004-.2761.23107-.4967.50719-.4927z"/><path d="m1.61128 21.2927c.18139-.2082.49723-.23.70544-.0486 1.55458 1.3543 2.88134 2.7781 4.25597 4.2534l.01884.0202c.18825.202.17708.5184-.02495.7066-.20202.1883-.51841.1771-.70666-.0249l-.00257-.0028c-1.3855-1.4868-2.68223-2.8784-4.19749-4.1985-.20822-.1814-.22996-.4972-.04858-.7054z"/><path d="m9.2663 21.166c.01837.2755-.1901.5138-.46563.5321-.77296.0516-1.52259.1297-2.27982.2087-.47546.0496-.95391.0995-1.44302.1433-1.24907.1119-2.52284.1785-3.83723.0712-.275231-.0224-.480133-.2638-.457665-.539.022467-.2752.263795-.4801.539025-.4577 1.23102.1005 2.43945.0394 3.66666-.0705.45712-.041.92364-.0895 1.39544-.1386.77521-.0807 1.56467-.1628 2.35009-.2152.27553-.0183.51378.1901.53215.4657z"/><path d="m12.9876 15.9633c.1605.2247.1085.537-.1162.6975-1.8698 1.3356-2.8413 3.624-3.48111 5.9411-.07349.2662-.34886.4224-.61504.3489s-.42238-.3489-.34889-.615c.65113-2.3582 1.69764-4.9415 3.86384-6.4887.2247-.1605.5369-.1085.6974.1162z"/><path d="m8.49544 9.90096c.23163-.15033.54128-.08442.69161.14724 1.22175 1.8825 2.23795 3.8195 3.14495 5.8603.1121.2523-.0015.5478-.2538.6599-.2524.1122-.5479-.0015-.66-.2538-.8895-2.0013-1.88148-3.8908-3.06998-5.722-.15033-.2317-.08442-.5413.14722-.69164z"/><path d="m8.16672 9.9847c.10777-.25425.40123-.373.65548-.26524 1.2322.52224 2.3679 1.18644 3.4693 1.84174.0726.0432.145.0863.2173.1293 1.0331.6154 2.0393 1.2146 3.1077 1.7078.2507.1157.3602.4128.2445.6635-.1158.2507-.4128.3602-.6636.2444-1.1181-.516-2.1672-1.141-3.1908-1.7508-.0756-.0451-.151-.09-.2264-.1348-1.1039-.6568-2.18625-1.2879-3.34824-1.7804-.25424-.1078-.373-.4013-.26524-.6555z"/><path d="m12.1523 15.8579c.1411-.2374.4479-.3154.6853-.1744 1.1308.6721 2.297 1.2146 3.5175 1.7822l.034.0158c.3545.1649.7235.3365 1.0665.6795.1953.1953.1953.5119 0 .7071-.1953.1953-.5119.1953-.7071 0-.2036-.2036-.4201-.3119-.7833-.4809l-.0521-.0242c-1.2064-.5611-2.4119-1.1217-3.5864-1.8198-.2374-.1411-.3155-.4479-.1744-.6853z"/><path d="m8.33925 20.931c.22583-.1589.53773-.1047.69665.1211 1.2612 1.7923 2.5192 3.4976 4.0408 5.0192.1953.1952.1953.5118 0 .7071-.1952.1952-.5118.1952-.7071 0-1.5868-1.5868-2.88631-3.3529-4.15151-5.1508-.15892-.2258-.10467-.5377.12116-.6966z"/><path d="m20.3719 2.04208c.1256.24589.0282.5471-.2177.67277-4.5808 2.34129-8.9476 5.14983-11.97029 9.31215-.16226.2235-.47494.2731-.69838.1108-.22344-.1622-.27303-.4749-.11077-.6984 3.16284-4.35541 7.70004-7.25147 12.32434-9.61498.2459-.12568.5471-.02822.6728.21766z"/><path d="m17.509 2.31785c.1309-.24317.4341-.33422.6773-.20336 2.2056 1.18692 4.4265 2.28297 6.7322 3.22622.2556.10456.378.39651.2735.65209-.1046.25558-.3965.37801-.6521.27346-2.3482-.96061-4.6021-2.07361-6.8275-3.27118-.2432-.13086-.3342-.43407-.2034-.67723z"/><path d="m30.9436 8.84375c-1.9468 0-3.819.06267-5.699.41518-.2714.05089-.5327-.12788-.5836-.39929s.1279-.53269.3993-.58358c1.9736-.37005 3.9206-.43231 5.8833-.43231.2761 0 .5.22386.5.5s-.2239.5-.5.5z"/><path d="m30.2913 7.7584c.2457-.12609.5471-.02915.6732.21653.9302 1.81254 1.8086 3.65077 2.6826 5.47997.0966.2022.1932.4043.2898.6063.1192.2491.0138.5476-.2353.6668-.2491.1191-.5477.0137-.6668-.2354-.0966-.202-.1931-.4039-.2896-.6058-.8749-1.831-1.747-3.6562-2.6704-5.45527-.1261-.24567-.0291-.54705.2165-.67313z"/><path d="m34.9814.693521c.247.123495.3471.423829.2236.670819-.4416.88333-.9193 1.76093-1.3924 2.63026-.2348.43145-.4685.86087-.6962 1.28794-.6919 1.29803-1.3397 2.5952-1.8454 3.94363-.0969.25856-.3851.38957-.6437.29261s-.3896-.38517-.2926-.64373c.5289-1.41033 1.2011-2.75316 1.8993-4.06291.2365-.44376.4748-.88147.7117-1.31673.4679-.85969.9307-1.70984 1.3649-2.578282.1235-.24699.4238-.347102.6708-.223607z"/><path d="m35.2581.8253c.2519-.11318.5478-.00074.661.25114.81 1.80261 1.6638 3.57287 2.5354 5.35242.1215.24799.0189.5475-.2291.66896-.248.12147-.5475.0189-.669-.2291-.8729-1.78218-1.7325-3.56435-2.5495-5.38241-.1131-.25189-.0007-.547829.2512-.66101z"/><path d="m37.5695 5.27563c.1348-.24103.4394-.32719.6804-.19244 2.1162 1.18304 4.0781 2.60937 6.0123 4.0155.508.36931 1.014.73723 1.5205 1.09901.2247.1605.2768.4728.1162.6975-.1605.2247-.4727.2767-.6974.1162-.522-.3728-1.0383-.7481-1.5526-1.12194-1.9282-1.40147-3.828-2.78233-5.8869-3.93341-.2411-.13475-.3272-.43938-.1925-.68042z"/><path d="m35.2134.97098c.1714-.216535.4858-.25315.7024-.081782 1.271 1.005882 2.6333 1.820522 4.0388 2.610302.337.18935.6775.37778 1.0198.56723 1.0757.59539 2.1698 1.20096 3.2331 1.87763.233.14825.3017.4573.1534.69027-.1482.23297-.4573.30165-.6902.15339-1.0351-.65867-2.0917-1.24355-3.1612-1.83551-.347-.19207-.6953-.38489-1.0447-.58122-1.4167-.79605-2.8349-1.64168-4.1696-2.69795-.2165-.17137-.2532-.48582-.0818-.70236z"/><path d="m43.3538 5.46849c.2613-.08943.5456.04987.635.31113.3359.98133.765 1.91772 1.2156 2.86667.0653.13759.1312.27561.1972.41409.3863.80947.7802 1.63492 1.1209 2.48662.1025.2564-.0222.5474-.2786.6499-.2564.1026-.5474-.0221-.6499-.2785-.3277-.8191-.7058-1.6117-1.0925-2.42238-.0667-.13967-.1335-.27987-.2005-.42084-.452-.95208-.9026-1.93247-1.2583-2.97172-.0894-.26126.0499-.54555.3111-.63497z"/><path d="m43.5437 15.401c.2381-.1399.5445-.0602.6844.1779.6632 1.1291 1.3217 2.2605 1.9787 3.3921.1387.2388.0575.5448-.1813.6835-.2388.1386-.5448.0574-.6835-.1814-.6568-1.1311-1.3142-2.2608-1.9762-3.3877-.1398-.2381-.0602-.5445.1779-.6844z"/><path d="m46.2009 17.6111c.2645.0793.4145.3581.3352.6225-.4765 1.5884-.5078 3.3476-.539 5.0982-.0017.0921-.0033.1841-.005.2761-.0051.2761-.2331.4958-.5092.4907-.2761-.0052-.4957-.2331-.4906-.5092.0019-.104.0037-.2087.0056-.3141.0299-1.7153.0628-3.6037.5804-5.329.0793-.2645.3581-.4146.6226-.3352z"/><path d="m45.286 18.5544c.0563-.2704.3211-.4439.5915-.3875 1.0669.2222 2.1458.3182 3.2515.3977.1718.0124.3445.0244.518.0364.9334.0647 1.8877.1309 2.8378.2666.2734.0391.4634.2923.4243.5657-.039.2734-.2923.4633-.5657.4243-.9109-.1302-1.8235-.1935-2.7573-.2584-.1755-.0122-.3518-.0244-.5289-.0371-1.1104-.0799-2.2465-.1793-3.3837-.4163-.2703-.0563-.4438-.3211-.3875-.5914z"/><path d="m50.7358 18.2331c.2337-.147.5424-.0768.6894.157.9426 1.4984 1.822 3.011 2.6946 4.5381.1371.2397.0538.5452-.186.6822s-.5452.0537-.6822-.1861c-.8708-1.5239-1.7418-3.0217-2.6728-4.5018-.147-.2337-.0768-.5424.157-.6894z"/><path d="m9.61863 36.3944c.26552-.0759.54227.0779.61817.3434.2998 1.0495.6017 2.0709.9761 3.0692.0969.2586-.0341.5468-.2926.6437-.2586.097-.5468-.034-.6437-.2926-.38976-1.0392-.70101-2.0943-1.00137-3.1456-.07587-.2655.07788-.5423.3434-.6181z"/><path d="m9.04594 38.7389c.14207-.2368.4492-.3136.68599-.1715.48557.2913.97847.6155 1.47017.9389.0449.0296.0898.0591.1347.0886.5401.3549 1.0808.7073 1.6311 1.0285 1.1045.6447 2.2086 1.1399 3.3419 1.2658.2744.0305.4722.2777.4417.5521-.0305.2745-.2777.4723-.5521.4418-1.3395-.1489-2.5873-.7258-3.7356-1.396-.576-.3362-1.1368-.702-1.6762-1.0565-.0442-.0291-.0882-.058-.1321-.0869-.4955-.3258-.97122-.6387-1.43806-.9188-.23679-.1421-.31358-.4492-.1715-.686z"/><path d="m10.4642 39.9952c.227.1572.2836.4687.1265.6957-.4815.6954-.99338 1.3826-1.4994 2.0619-.26657.3579-.53151.7135-.78948 1.067-.75544 1.0352-1.4684 2.0741-2.0602 3.1788-.1304.2434-.43344.335-.67685.2046-.24342-.1304-.33503-.4335-.20463-.6769.62466-1.166 1.36976-2.2489 2.13391-3.296.2706-.3708.54157-.7345.81074-1.0957.49868-.6694.99118-1.3304 1.46367-2.0129.15719-.2271.46864-.2837.69574-.1265z"/><path d="m6.55868 45.7256c.18391-.206.49999-.2239.70597-.04.47908.4278 1.02001.9096 1.59629 1.3172.5802.4105 1.15736.717 1.69996.8255.2708.0541.4464.3175.3922.5883-.0541.2708-.3175.4464-.5883.3923-.74341-.1487-1.45556-.547-2.08135-.9897-.62871-.4447-1.20956-.9633-1.68255-1.3856l-.00226-.002c-.20599-.1839-.22388-.5-.03996-.706z"/><path d="m.827089 32.5324c.215101-.1731.529851-.1392.703021.0759.19956.2479.40109.513.60886.7862.39829.5239.81951 1.0779 1.29367 1.5987.71733.7879 1.44955 1.3711 2.19515 1.5368.26957.0599.43953.327.37963.5965-.05991.2696-.32699.4396-.59656.3797-1.0626-.2362-1.97172-1.0204-2.71767-1.8398-.50143-.5508-.97752-1.1761-1.39214-1.7206-.19874-.261-.383358-.5035-.549874-.7104-.173171-.2151-.139184-.5298.075913-.703z"/><path d="m1.13682 20.2735c.27613-.0022.50169.22.50379.4961.02784 3.6565.07175 7.2925.35942 10.9188.06243.787.149 1.5094.33191 2.2411.06697.2679-.09591.5393-.36381.6063s-.53936-.0959-.60634-.3638c-.20245-.8098-.29443-1.5952-.35863-2.4045-.290845-3.6663-.334691-7.3354-.36252-10.9903-.002103-.2761.220044-.5016.49618-.5037z"/><path d="m20.0288 24.0875c.2753-.0218.5162.1836.538.4589.2401 3.0248.2932 6.0772.3459 9.1067.022 1.2626.0439 2.5213.0792 3.7723.0078.276-.2096.5061-.4857.5139-.276.0078-.5061-.2096-.5139-.4857-.036-1.2748-.0581-2.547-.0802-3.8168-.0524-3.016-.1046-6.0188-.3421-9.0113-.0219-.2753.1836-.5161.4588-.538z"/><path d="m18.5384 33.0426c.1664-.2204.4799-.2643.7003-.0979 1.1645.8788 2.2986 1.7772 3.4271 2.6711 2.3734 1.8801 4.7217 3.7402 7.2741 5.3567.2333.1477.3026.4566.1549.6899-.1478.2333-.4567.3027-.69.1549-2.5967-1.6446-5.0163-3.5608-7.4128-5.4587-1.1183-.8857-2.2317-1.7674-3.3557-2.6157-.2204-.1664-.2642-.4799-.0979-.7003z"/><path d="m38.2496 32.7424c.1768.2122.1482.5274-.064.7042-1.6181 1.3485-3.3029 2.6202-4.9764 3.8833-.2944.2222-.5884.4442-.8817.6663-1.9653 1.488-3.9001 2.984-5.7091 4.6184-.2049.1851-.5211.1691-.7062-.0358s-.1691-.5211.0358-.7062c1.8438-1.6659 3.8088-3.1843 5.7758-4.6737.2957-.2239.5913-.447.8866-.6699 1.6741-1.2636 3.337-2.5189 4.935-3.8506.2122-.1768.5275-.1481.7042.064z"/><path d="m38.324 20.2747c.2755.0194.4831.2584.4637.5339-.152 2.1599-.2347 4.3283-.3178 6.5063-.016.4175-.0319.8355-.0484 1.2538-.1021 2.5956-.2234 5.2008-.4825 7.7918-.0275.2747-.2725.4752-.5473.4477-.2748-.0274-.4753-.2725-.4478-.5472.2559-2.5586.3764-5.138.4784-7.7316.0164-.4158.0322-.8321.0481-1.2487.0831-2.1778.1665-4.3649.3198-6.5423.0193-.2755.2584-.4831.5338-.4637z"/><path d="m30.6604 18.3888c.1477.2333.0784.5422-.1549.6899-1.9872 1.2586-3.8683 2.672-5.7421 4.1242-.4211.3263-.8422.6549-1.264.9841-1.4502 1.1316-2.9098 2.2706-4.4105 3.3501-.2242.1612-.5366.1102-.6979-.114-.1612-.2241-.1102-.5366.1139-.6978 1.4833-1.067 2.9222-2.1897 4.3696-3.3192.4243-.331.8492-.6626 1.2763-.9936 1.8787-1.456 3.7905-2.8935 5.8197-4.1786.2332-.1477.5421-.0784.6899.1549z"/><path d="m29.5361 19.2311c.1507-.2314.4605-.2968.6919-.1461.6322.4117 1.2732.8154 1.9159 1.2203 2.3985 1.5109 4.8223 3.0378 6.9154 5.0534.1989.1916.2049.5081.0134.707-.1916.1989-.5081.2049-.707.0133-2.0119-1.9374-4.3226-3.3937-6.7083-4.8974-.6543-.4124-1.3142-.8283-1.9751-1.2586-.2314-.1507-.2968-.4605-.1462-.6919z"/><path d="m32.3782 20.1333c.2759.0115.4902.2444.4787.5203l-.0034.0821c-.1597 3.8335-.3193 7.6622-.4201 11.4926-.0072.276-.2369.4939-.513.4867-.276-.0073-.4939-.237-.4866-.513.101-3.8381.2608-7.6733.4204-11.5043.0012-.0286.0024-.0571.0036-.0857.0115-.2759.2445-.4902.5204-.4787z"/><path d="m32.0801 31.5391c.1403.2378.0612.5444-.1767.6846-1.4438.8515-2.7825 1.8518-4.1454 2.8701-.0372.0279-.0745.0557-.1119.0836-1.3939 1.0413-2.8157 2.097-4.3647 2.9822-.2398.137-.5452.0537-.6822-.1861-.137-.2397-.0537-.5452.186-.6822 1.488-.8502 2.8631-1.8696 4.2624-2.915.0428-.032.0855-.0639.1283-.0959 1.3506-1.0092 2.7279-2.0384 4.2195-2.918.2379-.1403.5444-.0612.6847.1767z"/><path d="m30.9021 31.3247c.1012-.2569.3916-.3832.6485-.282 1.0806.4257 2.1977.7814 3.3332 1.143.1568.0499.3139.0999.4713.1503 1.2899.4124 2.5954.8444 3.8427 1.3987.2523.1122.366.4077.2538.66-.1121.2524-.4076.366-.66.2539-1.1925-.5301-2.4517-.9479-3.741-1.3602-.1558-.0498-.3121-.0995-.4688-.1494-1.1322-.3604-2.2836-.727-3.3977-1.1658-.257-.1013-.3832-.3916-.282-.6485z"/><path d="m1.06862 29.4645c.19434-.1962.51092-.1976.7071-.0033.06415.0636.12816.127.19205.1904 1.03184 1.0231 2.03396 2.0168 3.15086 2.8759.21888.1684.25982.4823.09146.7012-.16837.2189-.48229.2598-.70117.0915-1.16866-.899-2.21275-1.9345-3.23429-2.9476-.06765-.0671-.13521-.1341-.20269-.201-.196178-.1943-.197664-.5109-.00332-.7071z"/><path d="m.666773 24.3577c.205874-.184.521957-.1663.705997.0395.93545 1.0465 1.93508 2.0094 2.95009 2.987.51504.4961 1.03404.9961 1.55063 1.5126.19526.1953.19526.5119 0 .7072-.19526.1952-.51185.1952-.70711 0-.48802-.4881-.99238-.974-1.50062-1.4638-1.03164-.994-2.07925-2.0034-3.038523-3.0765-.18404-.2059-.166339-.522.039536-.706z"/><path d="m9.78449 18.6338c.16774-.2194.48151-.2612.70091-.0935 1.0796.8256 2.1019 1.7251 3.1062 2.6087.1979.1741.395.3475.5918.5197.2078.1818.2288.4977.047.7055s-.4977.2289-.7055.0471c-.2012-.176-.4013-.3521-.6009-.5277-1.0042-.8834-1.9963-1.7561-3.04606-2.5589-.21935-.1677-.2612-.4815-.09345-.7009z"/><path d="m11.1509 7.54935c.1282-.24462.4303-.33905.675-.21091.6166.32299 1.2678.59895 1.941.88424.1011.04285.2027.0859.3048.12936.7718.32869 1.5644.67835 2.2993 1.11928.2368.14208.3136.44921.1715.68598-.142.2368-.4492.3136-.686.1715-.6698-.40191-1.4056-.72836-2.1766-1.0567-.0993-.04227-.1993-.08462-.2997-.12718-.6702-.28385-1.3626-.57717-2.0184-.92065-.2446-.12813-.339-.43031-.2109-.67492z"/><path d="m14.6337 4.45608c.1969-.19366.5134-.19109.7071.00575.5283.53693 1.1849 1.18155 1.8918 1.72804.7152.55298 1.4351.96811 2.0873 1.09854.2707.05416.4464.31757.3922.58835s-.3176.44639-.5883.39223c-.8801-.17602-1.748-.70431-2.5029-1.28799-.7633-.59016-1.4593-1.27541-1.9929-1.81783-.1937-.19685-.1911-.51342.0057-.70709z"/><path d="m33.0291 3.21576c.2585-.09725.5468.03344.6441.2919.2589.68818.4635 1.41727.6615 2.12307.0463.16499.0922.3287.1384.49031.2478.86706.5061 1.68762.8743 2.424.1235.24699.0234.54733-.2236.67082-.247.1235-.5473.02339-.6708-.2236-.4129-.82572-.692-1.72358-.9414-2.59645-.0493-.17237-.0973-.34334-.1449-.51282-.1972-.70258-.3873-1.37946-.6295-2.02319-.0972-.25846.0335-.5468.2919-.64404z"/><path d="m47.6436 18.4495c.2696-.0599.5367.1101.5966.3796.1846.831.3388 1.6762.4911 2.5109.0721.3952.1438.7881.2181 1.176.0519.2712-.1259.5332-.3971.5851-.2712.052-.5331-.1258-.5851-.397-.0778-.4067-.1513-.8092-.2242-1.2091-.1503-.824-.2985-1.6364-.479-2.4489-.0599-.2696.11-.5367.3796-.5966z"/><path d="m25.8281 35.9651c.1143-.2514.4107-.3626.6621-.2483 1.3581.6173 2.6802 1.2807 3.9875 1.9937.2424.1323.3317.436.1995.6784s-.4359.3317-.6784.1995c-1.2871-.7021-2.5876-1.3545-3.9224-1.9612-.2514-.1143-.3625-.4107-.2483-.6621z"/><path d="m29.1525 33.4432c.1802-.2092.4959-.2327.7051-.0525 1.1231.9676 2.4951 1.7546 3.9072 2.158.2655.0759.4193.3526.3434.6182-.0759.2655-.3526.4192-.6181.3434-1.5693-.4484-3.0675-1.3128-4.2852-2.362-.2092-.1802-.2327-.4959-.0524-.7051z"/><path d="m31.5848 27.7341c.0563-.2704.3212-.4439.5915-.3876.8135.1695 1.6092.4047 2.3814.633.0203.006.0406.012.0608.018.7983.2359 1.5723.4627 2.3563.6195.2708.0541.4464.3175.3922.5883-.0541.2708-.3175.4464-.5883.3923-.8349-.167-1.6509-.4069-2.4436-.6411-.0149-.0044-.0298-.0088-.0447-.0132-.7839-.2317-1.5453-.4568-2.3181-.6178-.2703-.0563-.4438-.3211-.3875-.5914z"/><path d="m32 23.8389c.0243-.2751.267-.4784.542-.4541.8533.0753 1.6828.2571 2.4836.4509.1822.0441.3622.0886.5408.1328.6167.1525 1.2157.3006 1.8235.4111.2717.0494.4519.3097.4025.5814s-.3097.4519-.5813.4025c-.6418-.1167-1.2814-.2749-1.9031-.4287-.1741-.0431-.3467-.0858-.5176-.1272-.7921-.1917-1.5612-.3583-2.3363-.4267-.275-.0243-.4784-.2669-.4541-.542z"/><path d="m8.0477 42.0064c.13246-.2423.43626-.3314.67856-.1989 1.35974.7433 2.54594 1.7712 3.67374 2.7483.2179.1889.4337.3758.6481.5585.2102.179.2354.4946.0564.7048-.1791.2102-.4947.2355-.7049.0564-.2279-.1941-.4528-.3888-.6763-.5822-1.1283-.9766-2.21972-1.9212-3.47671-2.6084-.2423-.1324-.33135-.4362-.19889-.6785z"/></g></g></svg>