<svg xmlns="http://www.w3.org/2000/svg" viewBox="0 0 16 16"><path fill="currentColor" fill-rule="evenodd" d="m11.078 10.332-3.326 1.955c-.202.098-.302.098-.504 0l-3.326-1.955-1.511.88 5.039 2.933 5.14-2.933-1.512-.88Zm-8.524-4.79 2.78-1.662s.604-.782-.505-.88L1.202 5.15C1 5.249 1 5.445 1 5.543c0 .195.1.293.202.39l1.713.978-1.713.978C1 7.986 1 8.181 1 8.279c0 .196.1.293.202.391l1.713.978-1.713.977C1 10.723 1 10.918 1 11.016c0 .196.1.294.202.391l6.046 3.52c.202.097.302.097.504 0l6.046-3.52c.101-.097.202-.293.202-.39 0-.196-.1-.294-.202-.392l-1.713-.977 1.713-.978c.303-.293 0-1.13-.705-.782-1.128.556-3.023 1.466-3.023 1.466S5.727 7.257 2.554 5.542Z" clip-rule="evenodd"/><path fill="currentColor" fill-rule="evenodd" d="m13.908 5.39-.54-.438a2.672 2.672 0 0 0 0-.903l.54-.438a.242.242 0 0 0 .076-.275l-.007-.02a3.428 3.428 0 0 0-.658-1.077l-.015-.017a.275.275 0 0 0-.29-.074l-.67.226a2.952 2.952 0 0 0-.823-.45l-.13-.664a.258.258 0 0 0-.213-.201l-.022-.004a3.935 3.935 0 0 0-1.312 0l-.022.004a.258.258 0 0 0-.213.2l-.13.668a2.946 2.946 0 0 0-.818.448l-.676-.227a.274.274 0 0 0-.29.074l-.014.017a3.444 3.444 0 0 0-.658 1.077l-.007.02a.242.242 0 0 0 .076.275l.548.443a2.606 2.606 0 0 0 0 .892l-.548.442a.242.242 0 0 0-.076.275l.007.02c.15.394.37.758.658 1.078l.015.016c.07.08.186.109.29.074l.675-.227c.246.192.521.343.817.449l.13.667c.02.102.105.182.214.2l.022.004a3.912 3.912 0 0 0 1.312 0l.022-.003a.258.258 0 0 0 .213-.201l.13-.664c.299-.107.575-.257.823-.45l.67.225a.274.274 0 0 0 .29-.074l.015-.016c.287-.321.509-.684.658-1.078l.007-.02a.24.24 0 0 0-.076-.273ZM12.78 4.14a2.092 2.092 0 0 1 0 .721l-.054.313.616.5a2.85 2.85 0 0 1-.351.575l-.766-.257-.26.201a2.342 2.342 0 0 1-.654.358l-.314.112-.148.758a3.291 3.291 0 0 1-.701 0L10 6.66l-.312-.113a2.343 2.343 0 0 1-.65-.357l-.259-.203-.77.26a2.918 2.918 0 0 1-.352-.575l.623-.504-.054-.313a2.132 2.132 0 0 1 0-.71l.054-.313-.623-.504c.093-.204.211-.396.351-.575l.771.26.26-.203c.195-.152.414-.273.649-.357l.313-.112.147-.76a3.29 3.29 0 0 1 .702 0l.148.759.314.111c.237.085.457.205.654.358l.26.202.765-.257c.14.179.258.372.352.575l-.616.499.053.312Z" clip-rule="evenodd"/><path fill="currentColor" fill-rule="evenodd" d="M10.533 3.053a1.348 1.348 0 1 0 0 2.697 1.348 1.348 0 0 0 0-2.697Zm.607 1.956a.855.855 0 0 1-1.213 0 .855.855 0 0 1 0-1.213.852.852 0 0 1 .606-.252.855.855 0 0 1 .607 1.465Z" clip-rule="evenodd"/></svg>