<svg fill="none" viewBox="0 0 88 88" xmlns="http://www.w3.org/2000/svg"><g opacity=".38"><path d="m0 0h88v88h-88z" fill="#f0f9ff"/><path d="m7 7h74v74h-74z" fill="#d5ebff"/><path d="m14 14h60v60h-60z" fill="#aed3f3"/></g><path d="m21 19h48v48h-48z" fill="#fff"/><g stroke="#4f5162" stroke-linecap="round"><path d="m20.5 18c0 10.455-.541 35.25-.541 53.25m-.959-51.5c10.455 0 35.25.541 53.25.541m-53.25 46.459c10.455 0 35.25.541 53.25.541m-2.709-48.541c0 10.455-.541 35.25-.541 53.25m-28.792-15.875c-3.784 1.923-5.5 2.89-9.208 4.958m8.985-10.039c-3.745-1.999-3.749-2.274-7.568-4.127m12.439-1.364c-1.607-3.93-1.474-4.688-3.231-8.553"/><path d="m52.25 57.223c1.628.409 2.233 2.152 2.45 3.61.386-4.912 5.564-3.947 5.564 2.126 1.457-8.665 4.736-4.166 4.736 1.343 0 3.769-1.869 10.449-8.426 11.562-13.423 2.28-12.8-24.863-9.789-24.863 1.579-.065 2.734 3.724 2.734 13.544.41-1.376-.184-8.054 2.73-7.322z" fill="#fff" stroke-linejoin="round"/></g></svg>