<svg xmlns="http://www.w3.org/2000/svg" fill="currentColor" viewBox="0 0 24 24"><rect rx="2"/><path fill-rule="evenodd" d="M12 14.125A5.563 5.563 0 1 0 12 3a5.563 5.563 0 0 0 0 11.125Zm.756-2.662a.5.5 0 0 1-.5.5h-.512a.5.5 0 0 1-.5-.5V9.318H9.1a.5.5 0 0 1-.5-.5v-.511a.5.5 0 0 1 .5-.5h2.144V5.662a.5.5 0 0 1 .5-.5h.512a.5.5 0 0 1 .5.5v2.145H14.9a.5.5 0 0 1 .5.5v.511a.5.5 0 0 1-.5.5h-2.145v2.145Z" clip-rule="evenodd"/><path d="M17.35 16.029V21h2.147v-4.971H17.35Zm-8.567.737V21h2.147v-4.234H8.783Zm4.287.737V21h2.14v-3.497h-2.14Zm-8.567.734V21h2.14v-2.763h-2.14Z"/></svg>