<svg viewBox="0 0 20 20" fill="none" xmlns="http://www.w3.org/2000/svg">
<rect x="0.5" y="0.5" width="19" height="19" rx="3.5" fill="#F8F5FF"/>
<rect x="0.5" y="0.5" width="19" height="19" rx="3.5" stroke="#592CD7"/>
<path d="M10.4112 5.50386C10.1834 5.27606 9.81402 5.27606 9.58622 5.50386L5.50289 9.5872C5.27508 9.815 5.27508 10.1843 5.50289 10.4122C5.73069 10.64 6.10004 10.64 6.32784 10.4122L9.41536 7.32463L9.41537 14.083C9.41537 14.4052 9.67653 14.6663 9.9987 14.6663C10.3209 14.6663 10.582 14.4052 10.582 14.083L10.582 7.32463L13.6696 10.4122C13.8974 10.64 14.2667 10.64 14.4945 10.4122C14.7223 10.1843 14.7223 9.815 14.4945 9.5872L10.4112 5.50386Z" fill="url(#paint0_linear_3739_9711)"/>
<defs>
<linearGradient id="paint0_linear_3739_9711" x1="13.0635" y1="13.6316" x2="7.25004" y2="5.3302" gradientUnits="userSpaceOnUse">
<stop stop-color="#5E2CE0"/>
<stop offset="1" stop-color="#A652F9"/>
</linearGradient>
</defs>
</svg>
