<svg viewBox="0 0 12 12" fill="currentColor" xmlns="http://www.w3.org/2000/svg"><path d="M11 6.672H1a1 1 0 0 0-1 1v3a1 1 0 0 0 1 1h10a1 1 0 0 0 1-1v-3a1 1 0 0 0-1-1Zm0 4H1v-3h10v3Zm-1-1.5a.75.75 0 1 1-1.5 0 .75.75 0 0 1 1.5 0ZM6.636 3.635 6.247 4.82a.26.26 0 0 1-.494 0l-.39-1.186a.78.78 0 0 0-.498-.499L3.68 2.747a.26.26 0 0 1 0-.494l1.186-.39a.78.78 0 0 0 .499-.498L5.753.18a.26.26 0 0 1 .494 0l.39 1.186a.78.78 0 0 0 .498.499l1.186.389a.26.26 0 0 1 0 .494l-1.186.39a.78.78 0 0 0-.499.498Z" fill="evennode"/></svg>