<svg xmlns="http://www.w3.org/2000/svg" viewBox="0 0 16 16" ><mask id="a" width="16" height="14" x="0" y="1" maskUnits="userSpaceOnUse" style="mask-type:alpha"><path stroke="#000" stroke-linecap="round" d="M8.49 1.531a5.59 5.59 0 0 1 5.59 5.589m-6.57 7.35a5.59 5.59 0 0 1-5.588-5.587M14.58 7.119a.5.5 0 1 1-1 0 .5.5 0 0 1 1 0ZM1.42 8.882a.5.5 0 1 1 1 0 .5.5 0 0 1-1 0Zm13.16 1.238a.5.5 0 1 1-1 0 .5.5 0 0 1 1 0ZM1.42 5.88a.5.5 0 1 1 1 0 .5.5 0 0 1-1 0Zm6.791-.091-.159-.581a.058.058 0 0 0-.113 0l-.16.581a2.85 2.85 0 0 1-1.997 1.998l-.58.159a.058.058 0 0 0 0 .113l.58.16a2.85 2.85 0 0 1 1.998 1.997l.159.581c.016.057.097.057.113 0l.16-.581a2.85 2.85 0 0 1 1.997-1.998l.581-.159a.058.058 0 0 0 0-.113l-.58-.16A2.85 2.85 0 0 1 8.211 5.79Z"/></mask><g mask="url(#a)"><path fill="url(#b)" d="M0 0h16v16H0z"/></g><defs><linearGradient id="b" x1="0" x2="16" y1="7.981" y2="7.981" gradientUnits="userSpaceOnUse"><stop offset="0" stop-color="#e93d82"/><stop offset=".5" stop-color="#8e4ec6"/><stop offset="1" stop-color="#2574dd"/></linearGradient></defs></svg>