<svg xmlns="http://www.w3.org/2000/svg" fill="none" viewBox="0 0 64 69"><path fill="url(#a)" d="M3.5 13.5 29.778.83a4 4 0 0 1 3.45-.012L60 13.5l-28.5 14-28-14Z"/><path fill="url(#b)" d="M.02 51.453.268 19.5 32 35l31.768-15.5-.248 31.98a4 4 0 0 1-2.303 3.59L33.211 68.198a4 4 0 0 1-3.417-.01L2.3 55.094a4 4 0 0 1-2.28-3.642Z"/><defs><linearGradient id="a" x1="5.5" x2="58.5" y1="13.5" y2="13.5" gradientUnits="userSpaceOnUse"><stop stop-color="#ECAC6A"/><stop offset="1" stop-color="#FABD7B"/></linearGradient><linearGradient id="b" x1="2" x2="62.5" y1="38" y2="38" gradientUnits="userSpaceOnUse"><stop stop-color="#5124AF"/><stop offset="1" stop-color="#5E2FCA"/></linearGradient></defs></svg>