<svg viewBox="0 0 32 32" xmlns="http://www.w3.org/2000/svg">
<path d="M13.1761 4.20671C14.8527 2.53034 17.5787 2.55734 19.222 4.26628L27.849 13.238C29.4471 14.9004 29.421 17.5361 27.7904 19.1667L21.7122 25.2438L16.7699 20.3024C17.0381 20.1308 17.3339 19.9973 17.6497 19.9108L18.4544 19.6901C19.219 19.4806 19.267 18.4513 18.598 18.1393L18.4544 18.0866L17.6488 17.8659C16.557 17.5667 15.7036 16.7136 15.4046 15.6217L15.1839 14.8161L15.1322 14.6735C14.8204 14.0043 13.7911 14.0518 13.5814 14.8161L13.3607 15.6217C13.0617 16.7136 12.2083 17.5667 11.1165 17.8659L10.3109 18.0866C9.49519 18.31 9.49526 19.4667 10.3109 19.6901L11.1156 19.9108C12.2075 20.2098 13.0606 21.0631 13.3597 22.155L13.5814 22.9606C13.805 23.7757 14.9603 23.7757 15.1839 22.9606L15.4056 22.155C15.4806 21.8812 15.5901 21.6223 15.7298 21.3835L20.6507 26.3053L19.1654 27.7917C17.5346 29.4222 14.898 29.4486 13.2357 27.8503L4.26497 19.2233C2.55612 17.58 2.52918 14.854 4.2054 13.1774L11.3265 6.05534L17.0179 11.779C16.7978 12.1978 16.6722 12.6744 16.6722 13.1803C16.6723 14.8468 18.0233 16.1978 19.6898 16.1979C21.3563 16.1979 22.7073 14.8468 22.7074 13.1803C22.7073 11.5138 21.3563 10.1628 19.6898 10.1628C19.0742 10.1628 18.502 10.3473 18.0247 10.6637L12.387 4.9948L13.1761 4.20671ZM14.3822 17.0544C14.8093 17.8254 15.4453 18.46 16.2161 18.8874C15.9128 19.0554 15.6303 19.2559 15.3734 19.4841C15.2635 19.5193 15.1598 19.5785 15.0726 19.6657C14.9787 19.7596 14.9178 19.8726 14.8841 19.9919C14.6957 20.218 14.5261 20.4608 14.3822 20.7204C13.9549 19.95 13.3197 19.3144 12.5492 18.8874C13.3199 18.4601 13.955 17.8252 14.3822 17.0544ZM19.6898 11.6628C20.5279 11.6628 21.2073 12.3422 21.2074 13.1803C21.2073 14.0184 20.5278 14.6979 19.6898 14.6979C18.8518 14.6978 18.1723 14.0184 18.1722 13.1803C18.1722 12.8238 18.2955 12.496 18.5013 12.237C18.5066 12.232 18.5137 12.2285 18.5189 12.2233C18.5506 12.1917 18.578 12.1572 18.6029 12.1217C18.8785 11.8387 19.2635 11.6628 19.6898 11.6628Z" fill="url(#paint0_linear_653_20806)"/>
<defs>
<linearGradient id="paint0_linear_653_20806" x1="3.403" y1="1.26535" x2="29.993" y2="29.9939" gradientUnits="userSpaceOnUse">
<stop stop-color="#FF99C9"/>
<stop offset="0.5" stop-color="#926EF7"/>
<stop offset="1" stop-color="#6EEEF7"/>
</linearGradient>
</defs>
</svg>
