<svg xmlns="http://www.w3.org/2000/svg" fill="none" viewBox="0 0 25 25"><path fill="url(#a)" d="M9.4656 1.17158c1.5838-1.583776 4.1595-1.558809 5.7119.05566l7.9766 8.2959c1.51 1.57036 1.4858 4.06006-.0547 5.60056l-7.9756 7.9756c-1.5405 1.5404-4.0302 1.5647-5.60058.0547l-3.51661-3.3818 1.76661-1.7891c.97597.733 2.15086 1.2296 3.44728 1.3916 3.968.4953 7.5865-2.32 8.082-6.2881.4952-3.96779-2.3194-7.58527-6.2871-8.08104-3.84424-.48-7.36095 2.14652-8.02734 5.91894l-.05566.3682c-.05117.4108.24053.7855.65136.8369.3853.0481.73921-.2047.82422-.5752l.0127-.0762.04492-.292c.52851-2.99055 3.3157-5.07267 6.3633-4.69236 3.1458.393 5.3779 3.26134 4.9853 6.40726-.3929 3.1458-3.2613 5.3778-6.4072 4.9853-.9569-.1195-1.82838-.4676-2.56738-.9824l2.04878-2.0732c.2681.1247.5592.2113.8682.25 1.5966.1991 3.0526-.9337 3.252-2.5303.199-1.5963-.9331-3.05225-2.5293-3.25197-1.5966-.19936-3.05337.93377-3.25296 2.53027-.09322.7473.10832 1.4619.50977 2.0332l-4.81153 4.8701-3.69726-3.5547c-1.614471-1.5524-1.63944-4.1281-.05567-5.71188L9.4656 1.17158Zm2.8271 9.61622c.7744.0969 1.324.8028 1.2276 1.5771-.0969.7743-.8029 1.3238-1.5772 1.2276-.7746-.0968-1.3252-.8035-1.2285-1.5781.097-.7744.8037-1.3232 1.5781-1.2266Z"/><defs><linearGradient id="a" x1=".160231" x2="25.4427" y1="-1.87445" y2="25.4419" gradientUnits="userSpaceOnUse"><stop stop-color="#FF99C9"/><stop offset=".5" stop-color="#926EF7"/><stop offset="1" stop-color="#6EEEF7"/></linearGradient></defs></svg>