<svg xmlns="http://www.w3.org/2000/svg" fill="none" viewBox="0 0 24 24"><mask id="b" width="18" height="20" x="3" y="2" maskUnits="userSpaceOnUse" style="mask-type:alpha"><path fill="#4F5162" d="m4.696 6.292 5.49-3.222a3.6 3.6 0 0 1 3.645 0l5.265 3.09c1.169.686 1.87 1.97 1.715 3.315-.535 4.629-2.192 10.545-7.982 12.31a2.712 2.712 0 0 1-1.636-.02c-5.965-1.969-7.85-8.282-8.149-12.544-.084-1.212.604-2.314 1.652-2.929Z"/><path fill="url(#a)" d="m4.696 6.292 5.49-3.222a3.6 3.6 0 0 1 3.645 0l5.265 3.09c1.169.686 1.87 1.97 1.715 3.315-.535 4.629-2.192 10.545-7.982 12.31a2.712 2.712 0 0 1-1.636-.02c-5.965-1.969-7.85-8.282-8.149-12.544-.084-1.212.604-2.314 1.652-2.929Z"/></mask><g mask="url(#b)"><path fill="#4F5162" d="m4.696 6.292 5.49-3.222a3.6 3.6 0 0 1 3.645 0l5.265 3.09c1.169.686 1.87 1.97 1.715 3.315-.535 4.629-2.192 10.545-7.982 12.31a2.712 2.712 0 0 1-1.636-.02c-5.965-1.969-7.85-8.282-8.149-12.544-.084-1.212.604-2.314 1.652-2.929Z"/><path fill="url(#c)" d="m4.696 6.292 5.49-3.222a3.6 3.6 0 0 1 3.645 0l5.265 3.09c1.169.686 1.87 1.97 1.715 3.315-.535 4.629-2.192 10.545-7.982 12.31a2.712 2.712 0 0 1-1.636-.02c-5.965-1.969-7.85-8.282-8.149-12.544-.084-1.212.604-2.314 1.652-2.929Z"/><path stroke="#fff" stroke-linecap="round" stroke-linejoin="round" d="m9 11.5 3.143 3.667L20 6"/><g fill="#fff" filter="url(#d)"><path d="M13.82 8.59c-1.291 0-2.41-1.119-2.41-2.41 0 1.291-1.062 2.41-2.41 2.41A2.388 2.388 0 0 1 11.41 11c0-1.348 1.119-2.41 2.41-2.41ZM16 5.434c-.907 0-1.434-.51-1.434-1.434 0 .924-.523 1.434-1.435 1.434.912 0 1.435.523 1.435 1.435 0-.912.527-1.435 1.434-1.435Z"/></g></g><defs><linearGradient id="a" x1="4.312" x2="22.485" y1="2" y2="19.671" gradientUnits="userSpaceOnUse"><stop stop-color="#FF99C9"/><stop offset=".5" stop-color="#926EF7"/><stop offset="1" stop-color="#6EEEF7"/></linearGradient><linearGradient id="c" x1="4.312" x2="22.485" y1="2" y2="19.671" gradientUnits="userSpaceOnUse"><stop stop-color="#FF99C9"/><stop offset=".5" stop-color="#926EF7"/><stop offset="1" stop-color="#6EEEF7"/></linearGradient><filter id="d" width="11" height="11" x="7" y="2.5" color-interpolation-filters="sRGB" filterUnits="userSpaceOnUse"><feFlood flood-opacity="0" result="BackgroundImageFix"/><feColorMatrix in="SourceAlpha" result="hardAlpha" values="0 0 0 0 0 0 0 0 0 0 0 0 0 0 0 0 0 0 127 0"/><feOffset dy=".5"/><feGaussianBlur stdDeviation="1"/><feColorMatrix values="0 0 0 0 0.376471 0 0 0 0 0.380392 0 0 0 0 0.439216 0 0 0 0.16 0"/><feBlend in2="BackgroundImageFix" result="effect1_dropShadow_4737_11688"/><feColorMatrix in="SourceAlpha" result="hardAlpha" values="0 0 0 0 0 0 0 0 0 0 0 0 0 0 0 0 0 0 127 0"/><feOffset/><feGaussianBlur stdDeviation=".5"/><feColorMatrix values="0 0 0 0 0.156863 0 0 0 0 0.160784 0 0 0 0 0.239216 0 0 0 0.08 0"/><feBlend in2="effect1_dropShadow_4737_11688" result="effect2_dropShadow_4737_11688"/><feBlend in="SourceGraphic" in2="effect2_dropShadow_4737_11688" result="shape"/></filter></defs></svg>