<svg xmlns="http://www.w3.org/2000/svg" width="25" height="25" fill="none" viewBox="0 0 25 25">
  <path fill="#fff" d="M8.738 3.161a7.047 7.047 0 0 1 4.182-1.19c4.207 0 7.218 2.578 7.218 6.327l.026 4.861h.004l-.036 7.94c0 .198-.177.232-.36.108-1.213-.827-1.798-1.445-2.417-2.683a.649.649 0 0 1-.067-.29l.008-5.23a.36.36 0 0 0-.487-.331 12.41 12.41 0 0 1-.766.244l-4.336 1.152c-2.085.494-3.076 1.046-3.076 2.841 0 1.795 1.506 3.14 3.661 3.359l.495.025c.719.086.832.982.832 1.256.042.518-.211 1.376-1.036 1.259l-.201-.006c-3.804-.214-6.61-2.675-6.61-5.893 0-2.88 1.477-4.336 5.264-5.191l5.062-1.312c.594-.13 1.223-.435 1.223-.902v-.999c0-2.33-1.851-4.02-4.4-4.02a4.221 4.221 0 0 0-2.478.734A4.167 4.167 0 0 0 8.87 7.255c-.153.383-.572.963-1.709.616C6.124 7.554 6.032 6.92 6.07 6.57a6.958 6.958 0 0 1 2.668-3.41Z"/>
</svg>
