<svg fill="none" height="26" viewBox="0 0 26 26" width="26" xmlns="http://www.w3.org/2000/svg"><rect height="18.6" rx="1.5" stroke="#383946" width="18.6" x=".5" y="6.90039"/><path clip-rule="evenodd" d="m10.3327 12.0865c0 .1881-.1623.3405-.36247.3405-.20022 0-.36252-.1524-.36252-.3405s.1623-.3406.36252-.3406c.20017 0 .36247.1525.36247.3406zm.2333 1.0493c-.0294.0148-.0596.0285-.0903.0411v2.6805c.4475.1833.7603.6026.7603 1.0905 0 .6567-.5667 1.189-1.26577 1.189-.69905 0-1.26575-.5323-1.26575-1.189 0-.5262.36378-.9725.86795-1.1291v-2.6032c-.50417-.1566-.86795-.603-.86795-1.1291 0-.6567.5667-1.189 1.26575-1.189.69907 0 1.26577.5323 1.26577 1.189 0 .143-.0269.2802-.0762.4072l.8713.8186c.1755-.0865.3752-.1354.5871-.1354.699 0 1.2657.5324 1.2657 1.1891s-.5667 1.189-1.2657 1.189c-.6991 0-1.2658-.5323-1.2658-1.189 0-.1465.0282-.2868.0798-.4164zm4.1521 3.8218-2.5273-.8317-.2986.8008 1.3713.4513-3.67388 1.3366-3.295-1.3218 1.38878-.4671-.30443-.7988-2.47312.8317c-.17958.0604-.29941.2202-.2994.3994l.00009 1.88c.00001.3306.20451.6312.52397.77l4.26127 1.852c.11514.05.24737.0523.36435.0061l4.71057-1.8566c.3355-.1323.5538-.4407.5538-.7825l-.0001-1.869c0-.1803-.1212-.3408-.3023-.4004zm-4.6852 2.5056 4.0843-1.486.0001 1.2499-4.0843 1.6098zm-.90319-.0105.00005 1.3585-3.62-1.5733-.00006-1.2374zm.84052-2.1643c.20017 0 .36247-.1524.36247-.3405s-.1623-.3406-.36247-.3406c-.20022 0-.36252.1525-.36252.3406s.1623.3405.36252.3405zm3.01047-2.9224c0 .188-.1623.3405-.3625.3405-.2003 0-.3626-.1525-.3626-.3405 0-.1881.1623-.3406.3626-.3406.2002 0 .3625.1525.3625.3406z" fill="#383946" fill-rule="evenodd"/><g stroke="#383946"><path d="m5.8 3.40039v3.2"/><path d="m22.6 20.2002h-2.4" stroke-linecap="square"/><path d="m5.8 7.4v-5.4c0-.55228.44771-1 1-1h17.2c.5523 0 1 .44772 1 1v17.2c0 .5523-.4477 1-1 1h-5.4"/></g></svg>