<svg viewBox="0 0 26 27" xmlns="http://www.w3.org/2000/svg"><path d="M12.706 14.587a34419.9 34419.9 0 00-3.838 5.664c-1.19 1.757-2.382 3.512-3.574 5.266a.241.241 0 01-.17.099c-1.683-.015-3.367-.033-5.05-.055-.018 0-.037-.006-.074-.011a.902.902 0 01.047-.103l3.523-5.473 3.126-4.848c1.156-1.795 2.31-3.592 3.465-5.39.17-.265.348-.525.51-.795a.329.329 0 00.034-.238c-.31-.995-.628-1.986-.945-2.978-.135-.424-.277-.847-.404-1.274-.041-.137-.109-.179-.249-.178-1.058.004-2.109.003-3.164.003-.2 0-.2 0-.2-.198 0-1.3 0-2.6-.004-3.9 0-.144.047-.176.183-.176 2.123.003 4.247.003 6.37 0a.205.205 0 01.225.151 36080.34 36080.34 0 007.279 18.34c.405 1.02.814 2.042 1.216 3.066.047.124.097.148.223.11 1.113-.346 2.228-.681 3.34-1.027.14-.043.192-.014.235.125.38 1.196.767 2.389 1.151 3.583.013.041.023.083.039.14-.08.03-.154.063-.23.084-2.53.803-5.06 1.608-7.587 2.412-.12.038-.157-.003-.197-.105-.772-1.96-1.546-3.92-2.321-5.88l-2.277-5.754-.34-.866c-.018-.049-.043-.092-.08-.168l-.262.374z" fill="#FA7E14" fill-rule="nonzero"/></svg>