<svg viewBox="0 0 31 37" fill="none" xmlns="http://www.w3.org/2000/svg">
<path fill-rule="evenodd" clip-rule="evenodd" d="M6.74347 2.01355C6.92584 2.1973 6.92471 2.4941 6.74096 2.67646L6.11613 3.29658H11.7187C12.4954 3.29658 13.125 3.92618 13.125 4.70283V11.7187C13.125 12.4954 12.4954 13.125 11.7188 13.125H3.28125C2.5046 13.125 1.875 12.4954 1.875 11.7188V6.55974C1.875 6.30086 2.08487 6.09099 2.34375 6.09099C2.60263 6.09099 2.8125 6.30086 2.8125 6.55974V11.7188C2.8125 11.9776 3.02237 12.1875 3.28125 12.1875H11.7188C11.9776 12.1875 12.1875 11.9776 12.1875 11.7187V4.70283C12.1875 4.44395 11.9776 4.23408 11.7187 4.23408H6.11613L6.74096 4.8542C6.92471 5.03656 6.92584 5.33335 6.74347 5.5171C6.56111 5.70085 6.26432 5.70198 6.08056 5.51962L4.64818 4.09804C4.5595 4.01003 4.50963 3.89027 4.50962 3.76533C4.50962 3.64039 4.5595 3.52063 4.64818 3.43262L6.08056 2.01104C6.26432 1.82868 6.56111 1.8298 6.74347 2.01355Z" fill="#0278D5" stroke="#0278D5" stroke-width="0.5" stroke-linecap="round" stroke-linejoin="round"/>
<path fill-rule="evenodd" clip-rule="evenodd" d="M15.5789 17.4211C15.5789 16.7427 16.1453 15.9586 17.4496 15.3064C18.7162 14.6731 20.5102 14.2632 22.5263 14.2632C24.5424 14.2632 26.3364 14.6731 27.603 15.3064C28.9074 15.9586 29.4737 16.7427 29.4737 17.4211C29.4737 18.0994 28.9074 18.8835 27.603 19.5357C26.3364 20.169 24.5424 20.5789 22.5263 20.5789C20.5102 20.5789 18.7162 20.169 17.4496 19.5357C16.1453 18.8835 15.5789 18.0994 15.5789 17.4211ZM28.1679 20.6655C28.6476 20.4257 29.093 20.1423 29.4737 19.8187V22.4737C29.4737 23.152 28.9074 23.9362 27.603 24.5883C26.3364 25.2216 24.5424 25.6316 22.5263 25.6316C20.5102 25.6316 18.7162 25.2216 17.4496 24.5883C16.1453 23.9362 15.5789 23.152 15.5789 22.4737V19.8187C15.9596 20.1423 16.405 20.4257 16.8847 20.6655C18.3612 21.4037 20.3567 21.8421 22.5263 21.8421C24.696 21.8421 26.6915 21.4037 28.1679 20.6655ZM28.1679 25.7181C28.6476 25.4783 29.093 25.1949 29.4737 24.8713V27.5263C29.4737 28.2046 28.9074 28.9888 27.603 29.641C26.3364 30.2743 24.5424 30.6842 22.5263 30.6842C20.5102 30.6842 18.7162 30.2743 17.4496 29.641C16.1453 28.9888 15.5789 28.2046 15.5789 27.5263V24.8713C15.9596 25.1949 16.405 25.4783 16.8847 25.7181C18.3612 26.4564 20.3567 26.8947 22.5263 26.8947C24.696 26.8947 26.6915 26.4564 28.1679 25.7181ZM28.1679 30.7708C28.6476 30.5309 29.093 30.2476 29.4737 29.924V32.5789C29.4737 33.2573 28.9074 34.0414 27.603 34.6936C26.3364 35.3269 24.5424 35.7368 22.5263 35.7368C20.5102 35.7368 18.7162 35.3269 17.4496 34.6936C16.1453 34.0414 15.5789 33.2573 15.5789 32.5789V29.924C15.9596 30.2476 16.405 30.5309 16.8847 30.7708C18.3612 31.509 20.3567 31.9474 22.5263 31.9474C24.696 31.9474 26.6915 31.509 28.1679 30.7708ZM28.1679 35.8234C29.6066 35.1041 30.7368 33.9935 30.7368 32.5789V17.4211C30.7368 16.0065 29.6066 14.8959 28.1679 14.1766C26.6915 13.4384 24.696 13 22.5263 13C20.3567 13 18.3612 13.4384 16.8847 14.1766C16.1215 14.5582 15.4451 15.0499 14.9782 15.6387L14.9835 15.5453C14.7641 15.5328 14.5413 15.5263 14.3158 15.5263C12.6661 15.5263 11.1412 15.8717 10.0057 16.4605C8.90174 17.0329 8 17.9353 8 19.1053V30.8947C8 32.0647 8.90174 32.9671 10.0057 33.5395C11.1412 34.1283 12.6661 34.4737 14.3158 34.4737C14.5413 34.4737 14.7641 34.4672 14.9835 34.4547L14.9782 34.3613C15.4451 34.9501 16.1215 35.4418 16.8847 35.8234C18.3612 36.5616 20.3567 37 22.5263 37C24.696 37 26.6915 36.5616 28.1679 35.8234ZM14.3931 33.2102C14.3426 33.0072 14.3158 32.7967 14.3158 32.5789V30.5439C12.6661 30.5439 11.1412 30.1985 10.0057 29.6097C9.74369 29.4738 9.49305 29.3194 9.26316 29.1472V30.8947C9.26316 31.3526 9.63387 31.9239 10.5872 32.4182C11.5089 32.8961 12.8262 33.2105 14.3158 33.2105C14.3416 33.2105 14.3674 33.2104 14.3931 33.2102ZM14.3158 29.2807V26.614C12.6661 26.614 11.1412 26.2687 10.0057 25.6799C9.74369 25.544 9.49305 25.3896 9.26316 25.2173V26.9649C9.26316 27.4227 9.63387 27.994 10.5872 28.4883C11.5089 28.9663 12.8262 29.2807 14.3158 29.2807ZM14.3158 25.3509V22.6842C12.6661 22.6842 11.1412 22.3388 10.0057 21.7501C9.74369 21.6142 9.49305 21.4597 9.26316 21.2875V23.0351C9.26316 23.4929 9.63387 24.0642 10.5872 24.5585C11.5089 25.0364 12.8262 25.3509 14.3158 25.3509ZM14.3158 21.4211V17.4211C14.3158 17.2033 14.3426 16.9928 14.3931 16.7898C14.3674 16.7896 14.3416 16.7895 14.3158 16.7895C12.8262 16.7895 11.5089 17.1039 10.5872 17.5818C9.63387 18.0761 9.26316 18.6474 9.26316 19.1053C9.26316 19.5631 9.63387 20.1344 10.5872 20.6287C11.5089 21.1066 12.8262 21.4211 14.3158 21.4211Z" fill="#0278D5"/>
</svg>
