<svg xmlns="http://www.w3.org/2000/svg" viewbox="0 0 32 33" fill="none"><path fill="currentColor" fill-rule="evenodd" stroke="#0278D5" stroke-width=".7" d="M1.714 11a9.286 9.286 0 1 1 18.572 0 9.286 9.286 0 0 1-18.572 0ZM11 1C5.477 1 1 5.477 1 11s4.477 10 10 10 10-4.477 10-10S16.523 1 11 1Zm.249 4.122a.357.357 0 0 0-.505 0L8.47 7.395a.357.357 0 1 0 .505.505l1.663-1.663v10.388a.357.357 0 0 0 .715 0V6.237L13.017 7.9a.357.357 0 0 0 .505-.505l-2.273-2.273Z" clip-rule="evenodd"/><path fill="#0278D5" fill-rule="evenodd" d="M22.356 21.579c0-.396.325-.853 1.075-1.234.727-.369 1.758-.608 2.917-.608 1.159 0 2.19.239 2.918.608.75.38 1.075.838 1.075 1.234s-.326.853-1.075 1.233c-.728.37-1.76.61-2.918.61-1.159 0-2.19-.24-2.917-.61-.75-.38-1.075-.837-1.075-1.233Zm7.234 1.893c.276-.14.532-.306.75-.494v1.548c0 .396-.325.853-1.074 1.234-.728.37-1.76.608-2.918.608-1.159 0-2.19-.239-2.917-.608-.75-.38-1.075-.838-1.075-1.234v-1.548c.218.188.474.354.75.494.848.43 1.995.686 3.242.686 1.247 0 2.394-.256 3.242-.686Zm0 2.947a3.74 3.74 0 0 0 .75-.494v1.549c0 .395-.325.853-1.074 1.233-.728.37-1.76.609-2.918.609-1.159 0-2.19-.24-2.917-.609-.75-.38-1.075-.838-1.075-1.233v-1.55c.218.19.474.355.75.495.848.43 1.995.686 3.242.686 1.247 0 2.394-.256 3.242-.686Zm0 2.947a3.74 3.74 0 0 0 .75-.494v1.55c0 .395-.325.852-1.074 1.233-.728.369-1.76.608-2.918.608-1.159 0-2.19-.239-2.917-.608-.75-.38-1.075-.838-1.075-1.234v-1.549c.218.19.474.354.75.494.848.43 1.995.687 3.242.687 1.247 0 2.394-.256 3.242-.687Zm0 2.948c.827-.42 1.477-1.068 1.477-1.893V21.58c0-.825-.65-1.473-1.477-1.893-.848-.43-1.995-.686-3.242-.686-1.247 0-2.393.256-3.242.686-.439.223-.827.51-1.096.853l.003-.054a6.555 6.555 0 0 0-.383-.011c-.948 0-1.825.201-2.477.545-.635.334-1.153.86-1.153 1.542v6.878c0 .682.518 1.209 1.153 1.542.652.344 1.529.545 2.477.545.13 0 .257-.003.383-.01l-.003-.055c.269.343.657.63 1.096.853.848.43 1.995.686 3.242.686 1.247 0 2.394-.256 3.242-.686Zm-7.916-1.525a1.538 1.538 0 0 1-.044-.368v-1.187c-.948 0-1.825-.202-2.477-.545a3.07 3.07 0 0 1-.427-.27v1.02c0 .267.213.6.76.888.53.28 1.288.462 2.144.462h.044Zm-.044-2.292v-1.555c-.948 0-1.825-.202-2.477-.545a3.07 3.07 0 0 1-.427-.27v1.02c0 .266.213.6.76.888.53.279 1.288.462 2.144.462Zm0-2.292v-1.556c-.948 0-1.825-.201-2.477-.545a3.07 3.07 0 0 1-.427-.27v1.02c0 .267.213.6.76.889.53.278 1.288.462 2.144.462Zm0-2.293V21.58c0-.127.015-.25.044-.368h-.044c-.856 0-1.613.183-2.143.462-.548.288-.761.621-.761.888s.213.6.76.89c.53.278 1.288.461 2.144.461Z" clip-rule="evenodd"/></svg>