<svg xmlns="http://www.w3.org/2000/svg" viewbox="0 0 30 38" fill="none"><path fill="currentColor" fill-rule="evenodd" stroke="#0278D5" stroke-width=".7" d="M1.5 8a6.5 6.5 0 1 1 13 0 6.5 6.5 0 0 1-13 0ZM8 1a7 7 0 1 0 0 14A7 7 0 0 0 8 1Zm.174 2.886a.25.25 0 0 0-.353 0L6.23 5.476a.25.25 0 0 0 .353.354l1.164-1.164v7.271a.25.25 0 1 0 .5 0v-7.27L9.412 5.83a.25.25 0 1 0 .353-.353l-1.59-1.591Z" clip-rule="evenodd"/><path fill="#0278D5" fill-rule="evenodd" d="M14.579 18.421c0-.678.566-1.462 1.87-2.115 1.267-.633 3.061-1.043 5.077-1.043s3.81.41 5.077 1.043c1.304.653 1.87 1.437 1.87 2.115 0 .678-.566 1.463-1.87 2.115-1.267.633-3.06 1.043-5.077 1.043-2.016 0-3.81-.41-5.076-1.043-1.305-.652-1.871-1.437-1.871-2.115Zm12.589 3.245c.48-.24.925-.524 1.306-.847v2.655c0 .678-.567 1.462-1.871 2.114-1.267.634-3.06 1.044-5.077 1.044-2.016 0-3.81-.41-5.076-1.044-1.305-.652-1.871-1.436-1.871-2.114v-2.655c.38.323.826.607 1.306.847 1.476.738 3.472 1.176 5.641 1.176 2.17 0 4.166-.438 5.642-1.176Zm0 5.052c.48-.24.925-.523 1.306-.847v2.655c0 .679-.567 1.463-1.871 2.115-1.267.633-3.06 1.043-5.077 1.043-2.016 0-3.81-.41-5.076-1.043-1.305-.652-1.871-1.436-1.871-2.115v-2.655c.38.324.826.607 1.306.847 1.476.738 3.472 1.177 5.641 1.177 2.17 0 4.166-.439 5.642-1.177Zm0 5.053c.48-.24.925-.523 1.306-.847v2.655c0 .678-.567 1.462-1.871 2.115-1.267.633-3.06 1.043-5.077 1.043-2.016 0-3.81-.41-5.076-1.043-1.305-.653-1.871-1.437-1.871-2.115v-2.655c.38.324.826.607 1.306.847 1.476.738 3.472 1.176 5.641 1.176 2.17 0 4.166-.438 5.642-1.176Zm0 5.052c1.439-.719 2.569-1.83 2.569-3.244V18.42c0-1.415-1.13-2.525-2.57-3.244-1.476-.739-3.471-1.177-5.64-1.177-2.17 0-4.166.438-5.642 1.177-.764.381-1.44.873-1.907 1.462l.005-.094c-.219-.012-.442-.019-.667-.019-1.65 0-3.175.346-4.31.934C7.902 18.034 7 18.936 7 20.105v11.79c0 1.17.902 2.072 2.006 2.644 1.135.59 2.66.935 4.31.935.225 0 .448-.007.667-.02l-.005-.093c.467.59 1.143 1.08 1.907 1.462C17.36 37.562 19.357 38 21.526 38c2.17 0 4.166-.438 5.642-1.177ZM13.393 34.21a2.606 2.606 0 0 1-.077-.631v-2.035c-1.65 0-3.175-.346-4.31-.934a5.345 5.345 0 0 1-.743-.463v1.748c0 .458.37 1.029 1.324 1.523.922.478 2.24.793 3.729.793h.077Zm-.077-3.93v-2.666c-1.65 0-3.175-.345-4.31-.934a5.336 5.336 0 0 1-.743-.463v1.748c0 .458.37 1.029 1.324 1.523.922.478 2.24.793 3.729.793Zm0-3.93v-2.666c-1.65 0-3.175-.345-4.31-.934a5.346 5.346 0 0 1-.743-.462v1.747c0 .458.37 1.03 1.324 1.523.922.478 2.24.793 3.729.793Zm0-3.929v-4c0-.218.027-.428.077-.631h-.077c-1.49 0-2.807.314-3.729.792-.953.494-1.324 1.065-1.324 1.523 0 .458.37 1.03 1.324 1.524.922.478 2.24.792 3.729.792Z" clip-rule="evenodd"/></svg>