<svg viewBox="0 0 16 16" fill="currentColor" xmlns="http://www.w3.org/2000/svg"><path d="M14.493 9.726l-1.02-.871a5.591 5.591 0 0 0 0-1.8l1.02-.872a.498.498 0 0 0 .145-.547l-.014-.04a6.91 6.91 0 0 0-1.24-2.148l-.028-.032a.5.5 0 0 0-.547-.148l-1.265.45a5.485 5.485 0 0 0-1.552-.897l-.245-1.323a.499.499 0 0 0-.401-.4l-.042-.008a7.033 7.033 0 0 0-2.475 0l-.042.008a.499.499 0 0 0-.402.4l-.246 1.33a5.475 5.475 0 0 0-1.541.893l-1.275-.453a.498.498 0 0 0-.546.148l-.028.032a6.94 6.94 0 0 0-1.241 2.147l-.014.04a.5.5 0 0 0 .145.548l1.032.882a5.476 5.476 0 0 0 0 1.777l-1.032.881a.498.498 0 0 0-.145.548l.014.04a6.923 6.923 0 0 0 1.24 2.147l.029.033a.5.5 0 0 0 .546.148l1.275-.453a5.44 5.44 0 0 0 1.54.893l.247 1.33a.499.499 0 0 0 .402.4l.042.008a6.997 6.997 0 0 0 2.475 0l.042-.008a.499.499 0 0 0 .401-.4l.245-1.323a5.45 5.45 0 0 0 1.552-.897l1.265.45c.195.068.413.01.547-.148l.028-.033a6.942 6.942 0 0 0 1.24-2.146l.014-.04a.496.496 0 0 0-.145-.546zM12.37 7.238a4.412 4.412 0 0 1 0 1.435l-.103.624 1.163.995c-.176.406-.399.79-.663 1.146l-1.445-.512-.488.401a4.354 4.354 0 0 1-1.235.713l-.593.223-.279 1.51c-.437.05-.884.05-1.323 0l-.278-1.513-.589-.226a4.358 4.358 0 0 1-1.225-.711l-.489-.404-1.454.517a5.882 5.882 0 0 1-.663-1.146l1.176-1.003-.102-.623a4.48 4.48 0 0 1 0-1.417l.102-.622L2.705 5.62c.176-.407.399-.79.663-1.146l1.454.517.49-.403a4.353 4.353 0 0 1 1.224-.712l.59-.222.279-1.514c.437-.05.884-.05 1.323 0l.279 1.51.593.223a4.37 4.37 0 0 1 1.234.713l.489.402 1.444-.513c.265.357.486.741.664 1.146l-1.163.995.101.621z"/><path d="M8.068 5.06a2.74 2.74 0 1 0 0 5.48 2.74 2.74 0 0 0 0-5.48zM9.3 9.034c-.33.329-.768.51-1.233.51-.466 0-.903-.181-1.233-.51a1.737 1.737 0 0 1-.51-1.233c0-.465.182-.902.51-1.232.33-.33.767-.511 1.233-.511.465 0 .903.18 1.233.51.328.33.51.768.51 1.233 0 .466-.182.903-.51 1.233z"/></svg>
