<svg viewBox="0 0 16 16" fill="currentColor" xmlns="http://www.w3.org/2000/svg"><path d="M10.93 8.358c.279 0 .537.179.727.503l2.56 4.44c.18.323.213.659.056.905-.134.246-.425.414-.794.414H8.37c-.369 0-.649-.168-.794-.414-.145-.246-.123-.582.067-.906l2.56-4.44c.18-.323.448-.502.727-.502zm-.022.928l-2.562 4.45s-.01.023-.01.034c.01 0 .011.033.022.033h5.121c.011 0 .012-.033.023-.033 0-.011 0-.034-.012-.045l-2.56-4.45c-.002 0-.011-.002-.011-.012 0 0-.01.012-.011.023zm.01 3.254a.403.403 0 1 1 0 .806.403.403 0 0 1 0-.806zM7.364 1.38a5.753 5.753 0 0 1 5.747 5.748c0 .805-.168 1.577-.47 2.27l-.47-.805a1.885 1.885 0 0 0-.279-.369c.079-.335.134-.693.134-1.017h-1.822c0 .245-.022.559-.056.85-.19.133-.346.301-.48.525l-.303.525c.179-.637.291-1.33.291-1.912h-2.09V8.96c.57.034 1.117.146 1.643.359l-.269.48a5.107 5.107 0 0 0-1.375-.29v2.247c.09-.01.179-.011.257-.022l-.626 1.107a5.744 5.744 0 0 1-5.568-5.736c0-3.164 2.572-5.748 5.736-5.726zm3.925 9.159v1.822h-.76v-1.812c-.001-.022-.045-.022-.034-.022l.794.012zm-4.204-1.04a4.81 4.81 0 0 0-1.678.369c.28.648.637 1.252 1.118 1.811.168.034.302.056.548.068l.012-2.248zm-2.193.615a4.112 4.112 0 0 0-.648.435c.402.37.862.66 1.376.872a7.491 7.491 0 0 1-.728-1.307zm-2.18-2.92c.012 1.063.448 2.193 1.141 2.998a5.84 5.84 0 0 1 .838-.57 7.8 7.8 0 0 1-.425-2.427H2.712zm2.102 0c0 .739.146 1.478.392 2.193a5.292 5.292 0 0 1 1.867-.426l.012-1.766h-2.27zM3.92 3.987a4.697 4.697 0 0 0-1.185 2.628h1.543c.045-.738.19-1.42.436-2.103a5.735 5.735 0 0 1-.794-.525zm1.308.749a7.132 7.132 0 0 0-.402 1.879h2.247V5.126a5.333 5.333 0 0 1-1.845-.391zm4.026.022a5.507 5.507 0 0 1-1.689.37v1.487h2.08a6.864 6.864 0 0 0-.391-1.857zm1.475-.882c-.313.257-.626.48-.972.659.234.67.38 1.342.424 2.08h1.824a4.645 4.645 0 0 0-1.276-2.74zm-3.656-1.41a3.638 3.638 0 0 0-.57.068 6.805 6.805 0 0 0-1.074 1.699 4.81 4.81 0 0 0 1.644.358V2.465zm.492 2.114a4.944 4.944 0 0 0 1.488-.335 7.236 7.236 0 0 0-1.119-1.767c-.123-.011-.201-.022-.369-.022v2.124zm1.208-1.912c.313.436.57.883.782 1.364.269-.157.526-.324.772-.526a4.376 4.376 0 0 0-1.554-.838zM5.596 2.8c-.47.19-.906.458-1.286.805.202.145.403.29.616.402.19-.424.402-.827.67-1.207z"/></svg>