<svg viewBox="0 0 16 16" fill="currentColor" xmlns="http://www.w3.org/2000/svg"><path fill-rule="evenodd" d="M2.278 1.982a.8.8 0 0 0-.8.8v1.7a.8.8 0 0 0 .8.8h.084v1.84c0 .444.05.912.45 1.197.182.13.402.195.634.231.232.036.51.047.834.047h.91V7.79h-.91a4.91 4.91 0 0 1-.711-.038c-.172-.027-.251-.064-.288-.09-.04-.028-.111-.096-.111-.54v-1.84h3.308a.8.8 0 0 0 .8-.8v-1.7a.8.8 0 0 0-.8-.8h-4.2zm0 .8h4.2v1.7h-4.2v-1.7zM14.442 12a.8.8 0 0 0-.772-.8V9.264c0-.443-.05-.911-.45-1.197a1.445 1.445 0 0 0-.634-.23 5.663 5.663 0 0 0-.834-.047h-.91v.807h.91c.312 0 .54.012.711.038.172.027.251.063.288.09.04.028.111.095.111.54V11.2h-3.42a.8.8 0 0 0-.8.8v1.7a.8.8 0 0 0 .8.8h4.2a.8.8 0 0 0 .8-.8V12zM9.379 8.269a1.287 1.287 0 1 1-2.574 0 1.287 1.287 0 0 1 2.574 0zm.808 0a2.095 2.095 0 1 1-4.19 0 2.095 2.095 0 0 1 4.19 0zm-1.792-.303h.613v.606h-.613v.614h-.606v-.614h-.571v-.606h.571v-.571h.606v.571zM13.642 12h-4.2v1.7h4.2V12z"/></svg>