<svg viewBox="0 0 16 16" fill="currentColor" xmlns="http://www.w3.org/2000/svg"><path d="M6.393 2.105v5.162a.595.595 0 0 1-.594.595H2.106a.596.596 0 0 1-.595-.595V2.105c0-.328.267-.595.595-.595h3.693c.328 0 .594.267.594.595zm-3.682.605v3.952h2.482V2.71H2.711zm11.78 6.664v4.615a.502.502 0 0 1-.502.502h-3.12a.503.503 0 0 1-.503-.502V9.374c0-.277.225-.502.503-.502h3.12c.277 0 .502.225.502.502zm-2.925.698v3.219h1.725v-3.219h-1.725zm2.925-7.927v5.082c0 .35-.284.635-.635.635H8.027a.636.636 0 0 1-.636-.635V2.145c0-.35.285-.635.636-.635h5.829c.351 0 .635.285.635.635zm-5.9.565v3.952h4.7V2.71h-4.7zm.751 6.724v4.495c0 .31-.252.562-.562.562H2.073a.562.562 0 0 1-.562-.562V9.434c0-.31.252-.562.562-.562H8.78c.31 0 .562.252.562.562zm-6.631.638v3.219h5.431v-3.219H2.711z"/></svg>