<svg viewBox="0 0 42 43" fill="none" xmlns="http://www.w3.org/2000/svg">
<path fill-rule="evenodd" clip-rule="evenodd" d="M33.8745 30.3748C33.8745 29.8916 34.2662 29.4999 34.7493 29.4999C35.2325 29.4999 35.6242 29.8916 35.6242 30.3748C35.6242 30.858 35.2325 31.2497 34.7493 31.2497C34.2662 31.2497 33.8745 30.858 33.8745 30.3748ZM34.7493 29C33.9901 29 33.3745 29.6155 33.3745 30.3748C33.3745 31.0467 33.8564 31.606 34.4935 31.7259V35.0404H34.5111C33.8654 35.1532 33.3745 35.7166 33.3745 36.3946C33.3745 37.1539 33.9901 37.7695 34.7493 37.7695C35.5086 37.7695 36.1242 37.1539 36.1242 36.3946C36.1242 35.7166 35.6333 35.1532 34.9876 35.0404H34.9934V31.7281C35.2051 31.6901 35.4 31.6037 35.5662 31.4808L36.6364 32.551C36.4608 32.7819 36.3565 33.0701 36.3565 33.3826C36.3565 34.1419 36.972 34.7574 37.7313 34.7574C38.4906 34.7574 39.1062 34.1419 39.1062 33.3826C39.1062 32.6233 38.4906 32.0078 37.7313 32.0078C37.4653 32.0078 37.217 32.0833 37.0065 32.2141L35.9078 31.1154C36.0448 30.9017 36.1242 30.6475 36.1242 30.3748C36.1242 29.6155 35.5086 29 34.7493 29ZM32.1666 35.6856L29.659 36.6657C29.5631 36.7032 29.5 36.7956 29.5 36.8985L29.5001 39.1205C29.5001 39.4077 29.6641 39.6696 29.9223 39.795L34.4099 41.9749C34.4759 42.0069 34.5527 42.0084 34.6198 41.9788L39.551 39.8073C39.8231 39.6875 39.9987 39.4183 39.9987 39.121L39.9986 36.9122C39.9986 36.8092 39.9355 36.7168 39.8396 36.6794L37.332 35.6993L37.15 36.1649L39.0734 36.9167L34.5238 38.7651L30.3962 36.9143L32.3486 36.1513L32.1666 35.6856ZM34.769 39.2051L39.4987 37.2835L39.4987 39.121C39.4987 39.2201 39.4402 39.3098 39.3495 39.3498L34.7691 41.3668L34.769 39.2051ZM34.269 39.1988L34.2691 41.3507L30.1408 39.3453C30.0547 39.3035 30 39.2162 30 39.1205L30 37.2846L34.269 39.1988ZM34.7493 35.5198C34.2662 35.5198 33.8745 35.9115 33.8745 36.3946C33.8745 36.8778 34.2662 37.2695 34.7493 37.2695C35.2325 37.2695 35.6242 36.8778 35.6242 36.3946C35.6242 35.9115 35.2325 35.5198 34.7493 35.5198ZM36.8564 33.3826C36.8564 32.8994 37.2481 32.5077 37.7313 32.5077C38.2145 32.5077 38.6062 32.8994 38.6062 33.3826C38.6062 33.8658 38.2145 34.2575 37.7313 34.2575C37.2481 34.2575 36.8564 33.8658 36.8564 33.3826Z" fill="#383946" stroke="#383946" stroke-width="0.3"/>
<path fill-rule="evenodd" clip-rule="evenodd" d="M22.3333 2.33333C22.3333 1.59695 21.7364 1 21 1C20.2636 1 19.6667 1.59695 19.6667 2.33333V5.77029C12.2311 6.29003 6.29003 12.2311 5.77029 19.6667H2.33333C1.59695 19.6667 1 20.2636 1 21C1 21.7364 1.59695 22.3333 2.33333 22.3333H5.81832C6.58267 29.5125 12.4137 35.1779 19.6667 35.6848V39.6667C19.6667 40.4029 20.2636 41 21 41C21.7364 41 22.3333 40.4029 22.3333 39.6667V35.6368C23.7407 35.487 25.0899 35.1424 26.3535 34.6306C26.5549 33.3116 27.0425 32.0869 27.7511 31.0217C26.1689 32.1033 24.3247 32.8296 22.3333 33.0859V26.3333C22.3333 25.597 21.7364 25 21 25C20.2636 25 19.6667 25.597 19.6667 26.3333V33.144C13.8138 32.6504 9.11259 28.1115 8.36917 22.3333H15.6667C16.403 22.3333 17 21.7364 17 21C17 20.2636 16.403 19.6667 15.6667 19.6667H8.3112C8.82005 13.631 13.631 8.82005 19.6667 8.3112V15.6667C19.6667 16.403 20.2636 17 21 17C21.7364 17 22.3333 16.403 22.3333 15.6667V8.36917C28.1115 9.11259 32.6504 13.8138 33.144 19.6667H26.3333C25.597 19.6667 25 20.2636 25 21C25 21.7364 25.597 22.3333 26.3333 22.3333H33.0859C32.8016 24.5422 31.939 26.57 30.6548 28.2599C31.7508 27.6078 32.997 27.1819 34.3292 27.0465C35.0081 25.5877 35.4592 24.0013 35.6368 22.3333H39.6667C40.4029 22.3333 41 21.7364 41 21C41 20.2636 40.4029 19.6667 39.6667 19.6667H35.6848C35.1779 12.4137 29.5125 6.58267 22.3333 5.81832V2.33333Z" fill="#0278D5"/>
<path d="M19.6667 5.77029L19.7102 6.39377L20.2917 6.35313V5.77029H19.6667ZM5.77029 19.6667V20.2917H6.35313L6.39377 19.7102L5.77029 19.6667ZM5.81832 22.3333L6.43981 22.2672L6.38031 21.7083H5.81832V22.3333ZM19.6667 35.6848H20.2917V35.102L19.7102 35.0613L19.6667 35.6848ZM22.3333 35.6368L22.2672 35.0153L21.7083 35.0748V35.6368H22.3333ZM26.3535 34.6306L26.5882 35.2099L26.9177 35.0764L26.9714 34.7249L26.3535 34.6306ZM27.7511 31.0217L28.2715 31.3679L27.3984 30.5057L27.7511 31.0217ZM22.3333 33.0859H21.7083V33.7964L22.4131 33.7058L22.3333 33.0859ZM19.6667 33.144L19.6141 33.7668L20.2917 33.8239V33.144H19.6667ZM8.36917 22.3333V21.7083H7.65861L7.74928 22.4131L8.36917 22.3333ZM8.3112 19.6667L7.68841 19.6142L7.63129 20.2917H8.3112V19.6667ZM19.6667 8.3112H20.2917V7.63129L19.6142 7.68841L19.6667 8.3112ZM22.3333 8.36917L22.4131 7.74928L21.7083 7.65861V8.36917H22.3333ZM33.144 19.6667V20.2917H33.8239L33.7668 19.6141L33.144 19.6667ZM33.0859 22.3333L33.7058 22.4131L33.7964 21.7083H33.0859V22.3333ZM30.6548 28.2599L30.1572 27.8817L30.9744 28.797L30.6548 28.2599ZM34.3292 27.0465L34.3924 27.6683L34.7459 27.6324L34.8959 27.3102L34.3292 27.0465ZM35.6368 22.3333V21.7083H35.0748L35.0153 22.2672L35.6368 22.3333ZM35.6848 19.6667L35.0613 19.7102L35.102 20.2917H35.6848V19.6667ZM22.3333 5.81832H21.7083V6.38031L22.2672 6.43981L22.3333 5.81832ZM21 1.625C21.3912 1.625 21.7083 1.94213 21.7083 2.33333H22.9583C22.9583 1.25177 22.0816 0.375 21 0.375V1.625ZM20.2917 2.33333C20.2917 1.94213 20.6088 1.625 21 1.625V0.375C19.9184 0.375 19.0417 1.25178 19.0417 2.33333H20.2917ZM20.2917 5.77029V2.33333H19.0417V5.77029H20.2917ZM6.39377 19.7102C6.89178 12.5855 12.5855 6.89178 19.7102 6.39377L19.6231 5.14681C11.8767 5.68827 5.68827 11.8767 5.14681 19.6231L6.39377 19.7102ZM2.33333 20.2917H5.77029V19.0417H2.33333V20.2917ZM1.625 21C1.625 20.6088 1.94213 20.2917 2.33333 20.2917V19.0417C1.25178 19.0417 0.375 19.9184 0.375 21H1.625ZM2.33333 21.7083C1.94213 21.7083 1.625 21.3912 1.625 21H0.375C0.375 22.0816 1.25177 22.9583 2.33333 22.9583V21.7083ZM5.81832 21.7083H2.33333V22.9583H5.81832V21.7083ZM19.7102 35.0613C12.7606 34.5756 7.17219 29.1462 6.43981 22.2672L5.19683 22.3995C5.99314 29.8789 12.0667 35.7801 19.6231 36.3083L19.7102 35.0613ZM20.2917 39.6667V35.6848H19.0417V39.6667H20.2917ZM21 40.375C20.6088 40.375 20.2917 40.0578 20.2917 39.6667H19.0417C19.0417 40.7481 19.9184 41.625 21 41.625V40.375ZM21.7083 39.6667C21.7083 40.0578 21.3912 40.375 21 40.375V41.625C22.0816 41.625 22.9583 40.7481 22.9583 39.6667H21.7083ZM21.7083 35.6368V39.6667H22.9583V35.6368H21.7083ZM26.1189 34.0513C24.9084 34.5416 23.6159 34.8717 22.2672 35.0153L22.3995 36.2583C23.8656 36.1022 25.2714 35.7432 26.5882 35.2099L26.1189 34.0513ZM26.9714 34.7249C27.1586 33.4982 27.6121 32.3591 28.2715 31.3679L27.2307 30.6755C26.4729 31.8147 25.9511 33.1251 25.7357 34.5363L26.9714 34.7249ZM27.3984 30.5057C25.8955 31.5331 24.1445 32.2227 22.2536 32.466L22.4131 33.7058C24.505 33.4366 26.4423 32.6735 28.1038 31.5377L27.3984 30.5057ZM22.9583 33.0859V26.3333H21.7083V33.0859H22.9583ZM22.9583 26.3333C22.9583 25.2518 22.0816 24.375 21 24.375V25.625C21.3912 25.625 21.7083 25.9421 21.7083 26.3333H22.9583ZM21 24.375C19.9184 24.375 19.0417 25.2518 19.0417 26.3333H20.2917C20.2917 25.9421 20.6088 25.625 21 25.625V24.375ZM19.0417 26.3333V33.144H20.2917V26.3333H19.0417ZM19.7192 32.5212C14.161 32.0525 9.69506 27.7409 8.98906 22.2536L7.74928 22.4131C8.53011 28.482 13.4665 33.2483 19.6141 33.7668L19.7192 32.5212ZM8.36917 22.9583H15.6667V21.7083H8.36917V22.9583ZM15.6667 22.9583C16.7482 22.9583 17.625 22.0816 17.625 21H16.375C16.375 21.3912 16.0579 21.7083 15.6667 21.7083V22.9583ZM17.625 21C17.625 19.9184 16.7482 19.0417 15.6667 19.0417V20.2917C16.0579 20.2917 16.375 20.6088 16.375 21H17.625ZM15.6667 19.0417H8.3112V20.2917H15.6667V19.0417ZM8.93399 19.7192C9.41724 13.9872 13.9872 9.41724 19.7192 8.93399L19.6142 7.68841C13.2748 8.22287 8.22287 13.2748 7.68841 19.6142L8.93399 19.7192ZM19.0417 8.3112V15.6667H20.2917V8.3112H19.0417ZM19.0417 15.6667C19.0417 16.7482 19.9184 17.625 21 17.625V16.375C20.6088 16.375 20.2917 16.0579 20.2917 15.6667H19.0417ZM21 17.625C22.0816 17.625 22.9583 16.7482 22.9583 15.6667H21.7083C21.7083 16.0579 21.3912 16.375 21 16.375V17.625ZM22.9583 15.6667V8.36917H21.7083V15.6667H22.9583ZM22.2536 8.98906C27.7409 9.69506 32.0525 14.161 32.5212 19.7192L33.7668 19.6141C33.2483 13.4665 28.482 8.53011 22.4131 7.74928L22.2536 8.98906ZM33.144 19.0417H26.3333V20.2917H33.144V19.0417ZM26.3333 19.0417C25.2518 19.0417 24.375 19.9184 24.375 21H25.625C25.625 20.6088 25.9421 20.2917 26.3333 20.2917V19.0417ZM24.375 21C24.375 22.0816 25.2518 22.9583 26.3333 22.9583V21.7083C25.9421 21.7083 25.625 21.3912 25.625 21H24.375ZM26.3333 22.9583H33.0859V21.7083H26.3333V22.9583ZM32.466 22.2536C32.1961 24.3509 31.3772 26.2763 30.1572 27.8817L31.1524 28.6381C32.5009 26.8636 33.4072 24.7335 33.7058 22.4131L32.466 22.2536ZM30.9744 28.797C31.994 28.1904 33.153 27.7943 34.3924 27.6683L34.266 26.4247C32.8411 26.5695 31.5076 27.0253 30.3352 27.7228L30.9744 28.797ZM35.0153 22.2672C34.8451 23.8656 34.413 25.3852 33.7626 26.7828L34.8959 27.3102C35.6033 25.7901 36.0733 24.1371 36.2583 22.3995L35.0153 22.2672ZM39.6667 21.7083H35.6368V22.9583H39.6667V21.7083ZM40.375 21C40.375 21.3912 40.0578 21.7083 39.6667 21.7083V22.9583C40.7481 22.9583 41.625 22.0816 41.625 21H40.375ZM39.6667 20.2917C40.0578 20.2917 40.375 20.6088 40.375 21H41.625C41.625 19.9184 40.7481 19.0417 39.6667 19.0417V20.2917ZM35.6848 20.2917H39.6667V19.0417H35.6848V20.2917ZM22.2672 6.43981C29.1462 7.17219 34.5756 12.7606 35.0613 19.7102L36.3083 19.6231C35.7801 12.0667 29.8789 5.99314 22.3995 5.19683L22.2672 6.43981ZM21.7083 2.33333V5.81832H22.9583V2.33333H21.7083Z" fill="#FCFEFF"/>
</svg>
