<svg viewBox="0 0 16 16" fill="currentColor" xmlns="http://www.w3.org/2000/svg"><path d="M8.542 1.819a.75.75 0 0 0-1.061 0L5.643 3.657a.75.75 0 0 0 0 1.061L7.48 6.557c.08.08.173.137.272.174v5.796H6.424a.25.25 0 0 0 0 .5h1.33v.971h-1.33a.25.25 0 0 0 0 .5h1.58a.25.25 0 0 0 .25-.25V6.736a.747.747 0 0 0 .288-.18l1.838-1.838a.75.75 0 0 0 0-1.06l-1.838-1.84zm-.707.354a.25.25 0 0 1 .353 0l1.838 1.838a.25.25 0 0 1 0 .354L8.189 6.203a.25.25 0 0 1-.353 0l-1.84-1.838a.25.25 0 0 1 0-.354l1.839-1.838z"/></svg>