<svg viewBox="0 0 16 16" fill="currentColor" xmlns="http://www.w3.org/2000/svg"><path fill-rule="evenodd" d="M6.814 7.597L8.49 4.691 6.814 1.786H3.46L1.785 4.69l1.676 2.906h3.353zm2.36-3.293L9.17 4.3 7.493 1.393A.785.785 0 0 0 6.813 1H3.462c-.28 0-.54.15-.68.393L1.105 4.299a.786.786 0 0 0 0 .785L2.781 7.99l.006.01-.006.01-1.676 2.906a.786.786 0 0 0 0 .785l1.676 2.906c.14.243.4.393.68.393h3.353c.28 0 .54-.15.68-.393l1.676-2.906.008-.014h3.361c.28 0 .54-.15.68-.393l1.676-2.905a.786.786 0 0 0 0-.786l-1.676-2.906a.785.785 0 0 0-.68-.393H9.173zm-2.36 9.91L8.49 11.31 6.814 8.403H3.46l-1.676 2.906 1.676 2.905h3.353zm7.401-6.218L12.539 10.9H9.186L7.51 7.996 9.186 5.09h3.353l1.676 2.906z"/></svg>