<svg viewBox="0 0 16 16" fill="currentColor" xmlns="http://www.w3.org/2000/svg"><path d="M4.192 1.833C5.642.105 8.97.671 11.722 3.124a.527.527 0 0 1 .15.32.544.544 0 0 1-.107.341c-.155.177-8.776 10.833-9.099 11.22a.464.464 0 0 1-.31.161.484.484 0 0 1-.33-.117.478.478 0 0 1-.042-.65l4.16-5.366c-1.11-1.077-1.941-2.347-2.347-3.595-.47-1.46-.33-2.741.395-3.605zm7.094 4.224c1.862.487 1.866 2.58 1.866 2.613.48-.032.63-.533.63-.533.106.096.234.576.277.885.053.331.234 1.43-.395 2.261-.512.672-1.13.908-1.707.95-1.184.086-2.325-.864-2.41-2.048-.086-1.227.33-1.248 1.14-2.198.736-.874.63-1.737.61-1.866a.82.82 0 0 0-.011-.064zm-5.44 1.258c.266.352.565.694.896 1.014l.938-1.11a40.87 40.87 0 0 1-.96-.938l-.875 1.034zM4.821 5.6c.181.426.415.853.692 1.258l.822-.981c-.33-.352-.63-.694-.896-1.024l-.618.747zm2.239.266c.299.31.619.63.96.939L9.408 5.15a29.154 29.154 0 0 0-1.035-.853L7.061 5.865zm-1.27-1.44c.267.33.566.683.897 1.035l1.259-1.493a15.32 15.32 0 0 0-1.131-.769L5.79 4.425zM4.448 3.412c-.064.47-.01 1.003.16 1.589l.491-.587c-.235-.32-.47-.66-.651-1.002zm4.277.469c.352.277.704.565 1.035.853l1.013-1.205a8.27 8.27 0 0 0-1.099-.779l-.949 1.13zm-3.85-1.44a1.46 1.46 0 0 0-.16.224c.127.427.49.97.746 1.322l.896-1.077c-.597-.341-1.078-.533-1.387-.576-.032.032-.064.075-.096.107zm2.303.32c.363.234.736.502 1.12.79l.897-1.068A7.314 7.314 0 0 0 7.86 1.94l-.683.822zm.086-.95c-.555-.085-1.152-.085-1.675.128.342.118.715.31 1.12.544l.555-.671z"/></svg>