<svg viewBox="0 0 16 16" fill="currentColor" xmlns="http://www.w3.org/2000/svg"><path d="M10.93 8.955a3.382 3.382 0 1 1 .467-1.213l2.506 1.057a.65.65 0 1 1-.505 1.198L10.93 8.955zm-2.865-3.88a2.083 2.083 0 0 0 0 4.165 2.083 2.083 0 0 0 0-4.165zm4.199-2.076a.498.498 0 0 0-.5-.496H3.849c-.276 0-.5.222-.5.496v7.846c0 .181.1.347.26.435l3.995 2.18a.528.528 0 0 0 .203.06.529.529 0 0 0 .202-.06l3.658-1.944.001-.001c.032-.017.556-.291.794.134.236.425-.256.711-.29.73l-.001.001-3.593 1.944a1.514 1.514 0 0 1-.771.189 1.515 1.515 0 0 1-.772-.189l-3.918-2.176a1.485 1.485 0 0 1-.768-1.298V2.999c0-.822.672-1.488 1.5-1.488h7.915c.828 0 1.5.666 1.5 1.488v2.302s0 .459-.5.464c-.5.005-.5-.464-.5-.464V2.999z"/></svg>