<svg viewBox="0 0 16 16" fill="currentColor" xmlns="http://www.w3.org/2000/svg"><path d="M8.055 3.252A2.36 2.36 0 0 1 9.42 7.534l1.345 2.46.663-1.788a1.644 1.644 0 0 1 .943-2.994 1.647 1.647 0 0 1 .908 3.017l1.173 2.956a.4.4 0 0 1-.372.546h-2.365l.398.729a.4.4 0 0 1-.35.592H4.346a.401.401 0 0 1-.354-.586l.386-.735H2.007a.4.4 0 0 1-.374-.541L2.77 8.204a1.646 1.646 0 1 1 1.853.025l.683 1.736 1.306-2.486a2.36 2.36 0 0 1 1.441-4.227zm-3.047 9h6.08l-2.39-4.371c-.205.058-.42.092-.643.092-.257 0-.504-.043-.735-.119l-2.312 4.398zm-2.421-1.32h2.212l.016-.033-.946-2.404a1.67 1.67 0 0 1-.153.009c-.067 0-.133-.006-.198-.014l-.931 2.442zm8.687-.006l.003.006h2.214l-.967-2.437c-.05.005-.101.009-.153.009-.066 0-.131-.006-.195-.014l-.902 2.436zM3.716 6.013a.846.846 0 1 0 0 1.692.846.846 0 0 0 0-1.692zm8.655 0a.846.846 0 1 0 0 1.691.846.846 0 0 0 0-1.691zM8.055 4.052a1.56 1.56 0 1 0 0 3.121 1.56 1.56 0 0 0 0-3.121z"/></svg>