<svg viewBox="0 0 16 16" fill="currentColor" xmlns="http://www.w3.org/2000/svg"><path d="M7.014 2.414c.448 0 .771.353.832.734.043.266.134.597.318.852.17.237.421.417.848.417.428 0 .682-.181.853-.418.184-.256.277-.588.32-.853.062-.38.385-.732.831-.732h2.668c.445 0 .805.363.8.807l-.086 9.581a.8.8 0 0 1-.8.793H4.492a.8.8 0 0 1-.8-.8v-2.449l-.001-.004a.058.058 0 0 0-.01-.013.098.098 0 0 0-.057-.028c-.32-.034-.787-.13-1.184-.402-.42-.288-.736-.76-.736-1.464 0-.716.325-1.203.742-1.512.398-.294.868-.42 1.184-.474a.095.095 0 0 0 .052-.028.047.047 0 0 0 .009-.012V3.213a.8.8 0 0 1 .8-.8h2.523zM4.492 6.406c0 .444-.349.766-.725.83-.263.046-.591.142-.846.33-.235.174-.418.434-.418.87 0 .424.174.656.39.804.238.163.553.238.817.266.398.044.782.372.782.84v2.45h9.106l.087-9.582h-2.669-.003a.05.05 0 0 0-.011.01.093.093 0 0 0-.028.05c-.052.318-.171.79-.46 1.192-.304.42-.787.751-1.502.751-.714 0-1.196-.33-1.498-.75-.288-.402-.407-.874-.458-1.193a.093.093 0 0 0-.026-.05.047.047 0 0 0-.013-.01H4.492v3.192zm2.129.302a.4.4 0 1 1 .54.59L5.857 8.492 7.184 9.93a.4.4 0 1 1-.588.542l-1.6-1.732a.4.4 0 0 1 .024-.567l1.6-1.466zm3.56.024a.4.4 0 0 1 .566-.024l1.6 1.466a.401.401 0 0 1 .023.567l-1.6 1.732a.4.4 0 0 1-.588-.542l1.328-1.438-1.304-1.196a.4.4 0 0 1-.025-.565zm-.98-.062a.4.4 0 0 1 .283.49l-.828 3.091a.4.4 0 0 1-.773-.207l.828-3.09a.4.4 0 0 1 .49-.284z"/></svg>