<svg viewBox="0 0 16 16" fill="currentColor" xmlns="http://www.w3.org/2000/svg"><path d="M3 2.276c0-.184.15-.333.333-.333h7.334c.105 0 .203.05.266.133l2 2.667a.333.333 0 0 1 .067.2v9.333c0 .184-.15.334-.333.334h-1.42a.333.333 0 0 1 0-.667h1.086V5.054L10.5 2.61H3.667V9.63a.333.333 0 1 1-.667 0V2.276z"/><path d="M5.667 6.61c0-.184.149-.333.333-.333h4a.333.333 0 1 1 0 .666H6a.333.333 0 0 1-.333-.333zm0 2c0-.184.149-.333.333-.333h4a.333.333 0 1 1 0 .666H6a.333.333 0 0 1-.333-.333zm-2.33 5.781h-.766l.995-2.95h.949l.995 2.95h-.766l-.693-2.206h-.023l-.691 2.206zm-.102-1.16h1.601v.54H3.235v-.54zm2.812 1.16v-2.95h1.218c.22 0 .411.044.571.13a.908.908 0 0 1 .373.36c.088.152.131.33.131.532 0 .203-.044.382-.133.534a.898.898 0 0 1-.38.353 1.275 1.275 0 0 1-.584.125h-.752v-.561h.62a.579.579 0 0 0 .269-.057.385.385 0 0 0 .166-.156.486.486 0 0 0 .056-.238.472.472 0 0 0-.056-.236.377.377 0 0 0-.166-.156.598.598 0 0 0-.27-.054h-.35v2.374h-.713zm3.577-2.95v2.95H8.91v-2.95h.713z"/></svg>