<svg viewBox="0 0 16 16" fill="currentColor" xmlns="http://www.w3.org/2000/svg"><path d="M2.696 9.228l-.001-.065V3.482c0-.41.223-.786.581-.983l3.697-.841-.005-.007.47-.108c.175-.097.369-.143.562-.14.193-.003.387.043.562.14l.47.108-.005.007 3.697.84c.358.198.581.574.581.984v5.746c-.028 1.426-.962 2.734-1.988 3.657-.53.477-1.242.874-1.79 1.154-.216.11-.435.207-.65.283-.298.11-.59.177-.856.177H7.98c-.267 0-.559-.067-.858-.178a5.293 5.293 0 0 1-.65-.282c-.547-.28-1.258-.677-1.789-1.154-1.026-.923-1.96-2.23-1.987-3.657zm3.971 3.968c.452.251.928.433 1.333.434.405-.001.88-.183 1.333-.434.466-.258 1.035-.62 1.486-1.04.661-.618 1.331-1.481 1.585-2.41.059-.25.09-.504.09-.76V4.134c.042-.71-.108-.869-.44-.937l-3.492-.843-.102-.023a.958.958 0 0 0-.92 0l-.102.023-3.491.843c-.333.068-.483.227-.442.937v4.852c0 .256.032.51.09.76.255.929.925 1.792 1.587 2.41.45.42 1.02.781 1.485 1.04zm4.243-6.86a.5.5 0 1 0-.707-.708L7.2 8.631 6.043 7.474a.5.5 0 0 0-.707.707L7.2 10.045l3.71-3.71z"/></svg>