<svg viewBox="0 0 16 16" fill="currentColor" xmlns="http://www.w3.org/2000/svg"><path d="M4.318 3.44v5.27h.878V3.44a.44.44 0 0 0-.878 0zm.878 9.662v-.878h.879a.44.44 0 0 0 .439-.44v-1.756a.44.44 0 0 0-.44-.44H3.44a.44.44 0 0 0-.439.44v1.757c0 .242.197.439.44.439h.878v.878a.44.44 0 0 0 .878 0zM7.832 3.44v.879h.878v-.879a.44.44 0 0 0-.878 0zm.878 9.663v-5.27h.878a.44.44 0 0 0 .44-.44V5.635a.44.44 0 0 0-.44-.439H6.953a.44.44 0 0 0-.44.44v1.756c0 .243.198.44.44.44h.878v5.27a.44.44 0 0 0 .879 0zm2.635-9.663V8.71h.879V3.44a.44.44 0 0 0-.879 0zm-1.317 6.589v1.757c0 .242.197.439.439.439h.878v.878a.44.44 0 0 0 .879 0v-.878h.878a.44.44 0 0 0 .44-.44v-1.756a.44.44 0 0 0-.44-.44h-2.635a.44.44 0 0 0-.44.44z"/></svg>