<svg viewBox="0 0 16 16" fill="currentColor" xmlns="http://www.w3.org/2000/svg"><path d="M11.31 8.83c.262 0 .502.163.677.469l2.38 4.128c.174.294.196.61.065.84-.13.229-.393.382-.742.382H8.93c-.35 0-.612-.153-.743-.382-.13-.219-.109-.535.065-.84l2.38-4.128c.175-.306.416-.469.678-.469zm.36-7.48c.623 0 1.147.525 1.147 1.147v7.097l-.339-.578a1.525 1.525 0 0 0-.808-.689v-5.83H2.63v10.416h5.262l-.142.251c-.163.295-.24.6-.218.896H2.597c-.622 0-1.114-.546-1.114-1.168V2.497c0-.622.492-1.146 1.114-1.146h9.073zm-.372 8.353l-2.38 4.127s-.01.022-.01.033c.01 0 .01.032.021.033h4.76c.012 0 .012-.032.022-.033 0-.01-.01-.033-.01-.033l-2.38-4.138-.01-.01c-.001.01-.013.01-.013.021zm0 3.024a.372.372 0 1 1 0 .745.372.372 0 0 1 0-.745zm.35-.174h-.709v-1.68c0-.023-.044-.023-.033-.023l.742-.011v1.714zM9.213 10.63l-.327.535H4.387c-.141 0-.228-.098-.228-.24v-.066c0-.141.087-.24.228-.24l4.826.01zm.71-2.14c.077 0 .142.066.142.143v.24a.144.144 0 0 1-.142.142H4.311a.144.144 0 0 1-.142-.142v-.24c0-.077.066-.143.142-.143h5.612zm0-2.162c.077 0 .142.066.142.143v.24c0 .087-.065.152-.142.152H4.311a.144.144 0 0 1-.142-.141v-.251c0-.077.066-.143.142-.143h5.612zm0-2.128c.077 0 .142.065.142.142v.24a.144.144 0 0 1-.142.142H4.311a.144.144 0 0 1-.142-.142v-.24c0-.077.066-.142.142-.142h5.612z"/></svg>