<svg viewBox="0 0 16 16" fill="currentColor" xmlns="http://www.w3.org/2000/svg"><path d="M13.371 2.501c.768 0 1.441.601 1.441 1.392v8.214c0 .792-.673 1.393-1.441 1.393H2.63c-.769 0-1.441-.601-1.442-1.393V3.893c0-.791.673-1.392 1.442-1.392h10.741zm-10.741 1c-.267 0-.442.202-.442.392v8.214c.001.191.175.393.442.393h10.741c.266 0 .441-.203.441-.393V3.893c0-.19-.175-.392-.441-.392H2.63zm5.579 2.075H2.886a.357.357 0 1 1 0-.715h5.489a.358.358 0 0 1 .268.594 3.193 3.193 0 0 1 1.088-.037.359.359 0 0 1 .298-.557h1.679a.358.358 0 0 1 0 .715h-1.324c.67.241 1.238.697 1.62 1.285h1.037a.358.358 0 0 1 0 .715h-.69c.11.326.17.675.17 1.038 0 .088-.005.179-.015.272a.358.358 0 0 1-.131.69h-.016c-.096.304-.23.601-.391.861l1.127 1.127-.848.849-1.123-1.123a3.467 3.467 0 0 1-1.828.549c-.453 0-.884-.094-1.275-.263H4.219a.358.358 0 0 1 0-.715h2.764a3.224 3.224 0 0 1-.766-1.285H2.886a.357.357 0 1 1 0-.715H6.08a3.24 3.24 0 0 1 .161-1.285H4.219a.358.358 0 0 1 0-.715h2.369a3.244 3.244 0 0 1 1.621-1.285zm2.467 4.418l.003-.003c.313-.308.53-.889.53-1.342a1.878 1.878 0 1 0-1.878 1.878c.497 0 1.021-.21 1.345-.533z"/></svg>