<svg viewBox="0 0 16 16" fill="currentColor" xmlns="http://www.w3.org/2000/svg"><path d="M13.982 3.452l-.005-.017a.368.368 0 0 0-.064-.114l-.005-.007-1.88-2.189a.354.354 0 0 0-.27-.125H4.242c-.103 0-.2.046-.269.125l-1.88 2.189-.005.008a.378.378 0 0 0-.064.113l-.005.017a.382.382 0 0 0-.018.11v11.064c0 .206.161.374.36.374h11.28c.198 0 .36-.168.36-.374V3.563a.378.378 0 0 0-.018-.111zm-7.62 7.86h3.276v.357a.312.312 0 0 1-.306.318H6.668a.312.312 0 0 1-.305-.318v-.357zm-3.64-.749V7.625h2.92v.357c0 .588.46 1.066 1.026 1.066h2.664c.567 0 1.028-.478 1.028-1.066v-.357h2.919v2.938H2.722zm2.92-6.626v.357c0 .588.46 1.067 1.026 1.067h2.664c.567 0 1.028-.479 1.028-1.067v-.357h2.919v2.939H2.722V3.937h2.92zm3.996 0v.357a.312.312 0 0 1-.306.318H6.668a.312.312 0 0 1-.305-.318v-.357h3.275zM6.363 7.625h3.275v.357a.312.312 0 0 1-.306.317H6.668a.312.312 0 0 1-.305-.317v-.357zm-1.96-5.876h7.194l1.238 1.44H3.166l1.237-1.44zm8.876 12.502H2.722v-2.939h2.92v.357c0 .589.46 1.067 1.026 1.067h2.664c.567 0 1.028-.478 1.028-1.067v-.357h2.919v2.94z"/></svg>