<svg viewBox="0 0 16 16" fill="currentColor" xmlns="http://www.w3.org/2000/svg" fill-rule="evenodd" clip-rule="evenodd" stroke-linejoin="round" stroke-miterlimit="2"><path d="M3.333 1.5h7.334c.157 0 .305.074.4.2l2 2.667c.065.086.1.191.1.3V14a.5.5 0 0 1-.5.5H3.333a.5.5 0 0 1-.5-.5V2a.5.5 0 0 1 .5-.5zm.5 1v11h8.334V4.833L10.417 2.5H3.833zm6.674 6.043a.49.49 0 0 1-.489.49H5.982a.49.49 0 0 1 0-.979h4.036a.49.49 0 0 1 .489.489zm0-2a.49.49 0 0 1-.489.49H5.982a.49.49 0 0 1 0-.979h4.036a.49.49 0 0 1 .489.489zm0 4a.49.49 0 0 1-.489.49H5.982a.49.49 0 0 1 0-.98h4.036c.27 0 .489.22.489.49z"/></svg>