<svg viewBox="0 0 16 16" fill="currentColor" xmlns="http://www.w3.org/2000/svg"><path d="M8.074 1.846c2.253-1.117 4.387-1.157 5.6.055 1.234 1.234 1.147 3.391.053 5.599 1.094 2.208 1.181 4.365-.053 5.599s-3.39 1.148-5.597.054c-2.255 1.118-4.39 1.158-5.602-.054-1.115-1.115-1.15-2.982-.342-4.96a1.382 1.382 0 0 1-.188-1.769c-.619-1.818-.478-3.461.529-4.469C3.687.689 5.821.729 8.074 1.846zm-2.615 8.269c2.756 2.755 6.168 3.723 7.561 2.33.809-.809.817-2.3.145-3.946a12.995 12.995 0 0 1-1.491 1.919 1.154 1.154 0 0 1-1.49 1.678 1.155 1.155 0 0 1 .54-2.178c.035 0 .07.004.104.009l.014.002.021.003A11.886 11.886 0 0 0 12.685 7.5a11.442 11.442 0 0 0-1.233-1.776c-.086.02-.174.034-.266.034a1.157 1.157 0 1 1 1.156-1.156c0 .206-.059.396-.153.563.354.424.68.87.976 1.336.672-1.647.664-3.137-.145-3.946-.901-.901-2.704-.841-4.71.204a.438.438 0 0 1-.231.045.44.44 0 0 1-.239-.044c-2.006-1.046-3.81-1.106-4.711-.205-.676.675-.805 1.862-.391 3.255.117-.033.237-.051.358-.052.121.001.242.019.359.053.409-.56.861-1.088 1.351-1.579a.46.46 0 1 1 .653.653c-.45.451-.865.935-1.242 1.449.165.228.266.507.266.81 0 .766-.621 1.387-1.387 1.387a.48.48 0 0 1-.077-.007l-.044-.005c-.663 1.638-.652 3.12.154 3.926.785.785 2.256.84 3.95.148a13.182 13.182 0 0 1-2.273-1.825.46.46 0 0 1 .207-.773.46.46 0 0 1 .446.12zm2.722-4.357a1.848 1.848 0 1 0-.001 3.697 1.848 1.848 0 0 0 .001-3.697zM7.38 8.069a.924.924 0 1 0 1.6-.924.924.924 0 0 0-1.6.924z"/></svg>