<svg viewBox="0 0 16 16" fill="currentColor" xmlns="http://www.w3.org/2000/svg"><path d="M8 9.167a3.167 3.167 0 1 1 0-6.334 3.167 3.167 0 0 1 0 6.334zm0-1a2.167 2.167 0 1 0 0-4.333 2.167 2.167 0 0 0 0 4.333zm-5.409 4.979a5.834 5.834 0 0 1 10.818 0 .498.498 0 0 1-.463.687H3.054a.499.499 0 0 1-.463-.687zm1.272-.313l8.275.001A4.83 4.83 0 0 0 8 10.5a4.83 4.83 0 0 0-4.137 2.333z"/><path opacity=".3" d="M6.682 7.219a.5.5 0 0 1 .636-.771s.277.219.682.219.682-.219.682-.219a.5.5 0 1 1 .636.771s-.531.448-1.318.448a2.205 2.205 0 0 1-1.318-.448z"/></svg>