<svg viewBox="0 0 16 16" fill="currentColor" xmlns="http://www.w3.org/2000/svg"><path d="M8.697 4.809a.8.8 0 0 1 .8-.8h4.2a.8.8 0 0 1 .8.8v1.7a.8.8 0 0 1-.8.8h-4.2a.8.8 0 0 1-.8-.8v-1.7zm5 0h-4.2v1.7h4.2v-1.7zm-5 4.694a.8.8 0 0 1 .8-.8h4.2a.8.8 0 0 1 .8.8v1.7a.8.8 0 0 1-.8.8h-4.2a.8.8 0 0 1-.8-.8v-1.7zm5 0h-4.2v1.7h4.2v-1.7zM1.511 4.8a.8.8 0 0 1 .8-.8h4.2a.8.8 0 0 1 .8.8v1.7a.8.8 0 0 1-.8.8h-4.2a.8.8 0 0 1-.8-.8V4.8zm5 0h-4.2v1.7h4.2V4.8z"/><path d="M9 6.275H7v-.8h2v.8zm-4.1.85v1.5c0 .332.056.564.138.727.079.159.193.274.348.363.336.192.863.26 1.614.26h2v.8H7c-.749 0-1.472-.057-2.01-.365a1.636 1.636 0 0 1-.668-.7C4.17 9.405 4.1 9.043 4.1 8.625v-1.5h.8z"/></svg>