<svg viewBox="0 0 16 16" fill="currentColor" xmlns="http://www.w3.org/2000/svg"><path d="M3 2a.5.5 0 0 1 .5-.5h10a.5.5 0 0 1 .5.5v8.984a3 3 0 0 1-2.575 2.97.499.499 0 0 1-.175.031c-.058 0-.115 0-.171-.002h-.099l-.363-.002L7.003 14H4a2.5 2.5 0 0 1-2.5-2.5v-1A.5.5 0 0 1 2 10h1V2zm1 8h5a.5.5 0 0 1 .5.5c0 .788.011 1.4.228 1.83a.99.99 0 0 0 .45.455c.198.102.485.18.903.197A2 2 0 0 0 13 10.984V2.5H4V10zm4.955 2.99a2.149 2.149 0 0 1-.12-.21c-.269-.533-.322-1.183-.333-1.78H2.5v.5A1.5 1.5 0 0 0 4 13h3l1.955-.01z"/><path d="M11.69 4.29a.5.5 0 0 1 0 .707l-3.71 3.71-1.865-1.864a.5.5 0 0 1 .707-.707L7.98 7.293l3.004-3.003a.5.5 0 0 1 .707 0z"/></svg>