<svg xmlns="http://www.w3.org/2000/svg" width="40" height="40" fill="none" viewBox="0 0 1200 1200">
<style type="text/css">
	.st0{fill:#FF0036;}
	.st1{fill:#FFC900;}
	.st2{fill:#1904DA;}
	.st3{fill:#08B1D5;}
</style>
<g>
	<path class="st0" d="M1178.6,688.1l0-621.7c0-24.9-20.1-45-45-45H919.4l0,856.9c0,34.4,41.6,51.6,65.9,27.3L1161.7,729
		C1172.5,718.2,1178.6,703.5,1178.6,688.1z"/>
	<path class="st1" d="M919.4,21.4l-407.5,0c-15.3,0-30.1,6.1-40.9,16.9L294.5,214.8c-24.3,24.3-7.1,65.9,27.3,65.9l597.6,0V21.4z"/>
	<path class="st2" d="M688.1,1178.6l-621.7,0c-24.9,0-45-20.1-45-45l0-214.3l856.9,0c34.4,0,51.6,41.6,27.3,65.9L729,1161.7
		C718.2,1172.5,703.5,1178.6,688.1,1178.6z"/>
	<path class="st3" d="M21.4,919.4l0-407.5c0-15.3,6.1-30.1,16.9-40.9l176.5-176.5c24.3-24.3,65.9-7.1,65.9,27.3l0,597.6L21.4,919.4z
		"/>
</g>
</svg>