<svg xmlns="http://www.w3.org/2000/svg" width="25" height="24" fill="none" viewBox="0 0 25 24">
  <path fill="#fff" d="M12.03.321 1.965 6.196V18.04l10.062 5.921 10.064-5.918V6.196L12.029.32Z"/>
  <path fill="#1904DA" d="M11.754 16.398v-2.456c-1.1-.524-1.79-1.615-1.776-2.805L7.713 9.815a6.206 6.206 0 0 0 .843 3.817 6.482 6.482 0 0 0 3.198 2.766Z"/>
  <path fill="#1904DA" d="M11.754 19.763v-2.85c-1.534-.581-2.743-1.604-3.594-3.041a6.652 6.652 0 0 1-.88-4.31L5.176 8.335c-1.208 4.703 1.598 9.578 6.577 11.428Z"/>
  <path fill="#08B1D5" d="M12.272 16.886v2.875c4.887-1.894 7.766-6.862 6.613-11.41l-2.088 1.23c.269 1.587.014 3.101-.74 4.385-.754 1.285-2.062 2.294-3.785 2.92Z"/>
  <path fill="#08B1D5" d="M12.272 13.938V16.4c1.537-.591 2.707-1.513 3.388-2.672.668-1.139.912-2.483.708-3.895l-2.263 1.318c-.01 1.13-.675 2.14-1.833 2.787Z"/>
  <path fill="#FFC900" d="M14.404 6.937a5.18 5.18 0 0 1 2.25 2.159l2.033-1.187a1.08 1.08 0 0 1-.038-.058c-.8-1.307-1.857-2.291-3.14-2.923-3.571-1.76-8.005-.449-10.14 2.981l2.04 1.19c1.53-2.4 4.584-3.35 6.995-2.162Z"/>
  <path fill="#FFC900" d="M12.084 9.546c.32 0 .642.071.942.22.396.195.72.505.938.899l2.29-1.336A4.721 4.721 0 0 0 14.2 7.357c-2.196-1.082-4.983-.213-6.39 1.977l2.277 1.328c.474-.713 1.233-1.116 1.996-1.116Z"/>
  <path fill="#08B1D5" d="m12.272 23.362 9.423-5.55V6.699L19.3 8.108c1.316 4.884-1.756 10.198-7.028 12.151v3.103Z"/>
  <path fill="#1904DA" d="m4.762 8.094-2.4-1.4V17.81l9.392 5.552V20.26c-5.283-1.879-8.34-7.2-6.992-12.166Z"/>
  <path fill="#FFC900" d="M15.712 4.508c1.363.671 2.483 1.713 3.33 3.097.013.022.03.045.048.069l2.374-1.385L12.029.784 2.593 6.29l2.375 1.385c2.256-3.64 6.957-5.033 10.744-3.167Z"/>
  <path fill="#FF0036" d="M13.628 11.23c0-.004.004-.094-.002-.24-.02-.06-.242-.499-.798-.805-.38-.21-.867-.233-1.337-.067a2 2 0 0 0-1.077.896 1.894 1.894 0 0 0-.004.215c.03.759.495 1.79 1.442 2.262l.146.07.127-.068c.92-.52 1.468-1.346 1.503-2.264Z"/>
</svg>
