<svg viewBox="0 0 360 360" xmlns="http://www.w3.org/2000/svg" xmlns:xlink="http://www.w3.org/1999/xlink"><clipPath id="a"><path d="m241.019 115.687-7.173 163.792h-107.601l-5.978-163.792"/></clipPath><path d="m123.854 251.982s-2.391 7.173-5.978 10.76a10.854 10.854 0 0 1 -8.369 3.586 138.606 138.606 0 0 1 -17.933 3.587s8.369 1.196 17.933 2.391c3.587 0 3.587 0 5.978 1.196 5.978 0 8.37-3.587 8.37-3.587zm109.992 0s2.391 7.173 5.978 10.76a10.854 10.854 0 0 0 8.369 3.586 138.606 138.606 0 0 0 17.933 3.587s-8.369 1.196-19.129 2.391c-3.587 0-3.587 0-5.978 1.196-7.173 0-8.369-3.587-8.369-3.587z" fill="#e9654b"/><circle cx="180.046" cy="133.621" fill="#b6cfea" r="129.121"/><circle cx="180.046" cy="133.621" fill="#e6f5f8" r="124.339"/><circle cx="180.046" cy="136.012" fill="#d0e8f0" r="101.623"/><g fill="#ee794b"><path d="m120.267 183.834s8.37 135.1 8.37 137.49c0 1.196 1.195 3.587-4.783 5.978s-25.107 7.173-25.107 7.173h28.694c13.151 0 13.151-10.76 13.151-13.15s3.587-53.801 3.587-53.801 1.195 60.974 1.195 63.365-1.195 5.978-9.564 8.369l-23.912 4.782h27.498c16.738 0 16.738-10.76 16.738-10.76l3.587-53.8s1.196 53.8 1.196 59.778c0 4.782-3.587 8.369-16.738 10.76-8.37 2.39-19.13 4.782-19.13 4.782h31.085c15.543-1.195 17.934-11.956 17.934-11.956l26.302-133.903z"/><path d="m239.824 183.834s-8.37 135.1-8.37 137.49c0 1.196-1.195 3.587 4.783 5.978s25.107 7.173 25.107 7.173h-28.694c-13.15 0-13.15-10.76-13.15-13.15s-3.588-53.801-3.588-53.801-1.195 60.974-1.195 63.365 1.195 5.978 9.564 8.369l23.912 4.782h-27.498c-16.738 0-16.738-10.76-16.738-10.76l-3.587-53.8s-1.195 53.8-1.195 59.778c0 4.782 3.586 8.369 16.737 10.76 8.37 2.39 19.13 4.782 19.13 4.782h-31.085c-15.543-1.195-17.934-11.956-17.934-11.956l-26.302-133.903zm1.196-65.755c0 33.475-27.499 59.778-59.779 59.778s-59.778-27.498-59.778-59.778 27.498-59.779 59.778-59.779 59.778 26.303 59.778 59.779z"/><circle clip-path="url(#a)" cx="181.241" cy="150.359" r="106.405"/></g><path d="m237.433 183.834s7.173-63.364-2.392-87.276c-17.933-41.844-59.778-38.258-59.778-38.258s23.912 9.565 25.107 45.432c1.196 25.107 0 62.169 0 62.169z" fill="#e34e3b" opacity=".22"/><circle cx="156.134" cy="85.798" fill="#fbdfc3" opacity=".5" r="8.369"/><path d="m201.566 207.746c0 20.324-9.565 33.475-21.52 33.475s-21.52-15.542-21.52-35.866c0 0 9.564 19.129 22.715 19.129s20.325-16.738 20.325-16.738z" fill="#010101"/><path d="m201.566 207.746c0 13.15-9.565 20.324-21.52 20.324s-20.325-9.564-20.325-21.52c0 0 9.565 11.956 22.716 11.956s19.129-10.76 19.129-10.76z" fill="#fff"/><circle cx="221.89" cy="151.554" fill="#e9654b" r="37.062"/><circle cx="138.201" cy="151.554" fill="#e9654b" r="37.062"/><circle cx="221.89" cy="151.554" fill="#fff" r="28.694"/><circle cx="135.81" cy="151.554" fill="#fff" r="28.694"/><circle cx="135.81" cy="147.968" fill="#010101" r="8.369"/><circle cx="221.89" cy="147.968" fill="#010101" r="8.369"/><path d="m48.534 165.901a5.648 5.648 0 0 1 -5.978-5.978v-47.822a5.648 5.648 0 0 1 5.978-5.978 5.648 5.648 0 0 1 5.977 5.978v47.822a5.648 5.648 0 0 1 -5.977 5.978zm260.632 0a5.648 5.648 0 0 1 -5.977-5.978v-47.822a5.648 5.648 0 0 1 5.977-5.978 5.648 5.648 0 0 1 5.978 5.978v47.822a5.648 5.648 0 0 1 -5.978 5.978z" fill="#b6cfea"/><circle cx="139.396" cy="37.976" fill="#fff" r="5.978"/><path d="m96.356 199.377a4.392 4.392 0 0 1 -3.587-1.196c-14.346-17.933-21.52-40.649-21.52-63.365a106.683 106.683 0 0 1 14.347-53.8 117.01 117.01 0 0 1 38.258-38.258 5.257 5.257 0 0 1 5.978 1.196 5.257 5.257 0 0 1 -1.196 5.977 96.496 96.496 0 0 0 -49.018 83.69 94.222 94.222 0 0 0 20.325 58.582c1.195 1.196 1.195 4.783-1.196 5.978-1.195 1.196-1.195 1.196-2.39 1.196z" fill="#fff"/><path d="m233.846 255.568v-9.564c-16.738 9.564-34.671 19.129-56.192 19.129-23.91 0-39.453-10.76-54.995-19.13l1.195 9.565s17.934 19.13 54.996 19.13c34.671-1.196 54.996-19.13 54.996-19.13z" fill="#e9654b" opacity=".25"/></svg>