<svg viewBox="0 0 16 16" fill="none" xmlns="http://www.w3.org/2000/svg"><path fill-rule="evenodd" clip-rule="evenodd" d="M.833 14a.5.5 0 0 1 .5-.5h13.334a.5.5 0 0 1 0 1H1.333a.5.5 0 0 1-.5-.5Z" fill="currentColor"/><path d="M5 11.333c-.623 0-.935 0-1.167-.134a1 1 0 0 1-.366-.366c-.134-.232-.134-.543-.134-1.166v-6c0-.624 0-.935.134-1.167a1 1 0 0 1 .366-.366C4.065 2 4.377 2 5 2s.935 0 1.167.134a1 1 0 0 1 .366.366c.134.232.134.543.134 1.167v6c0 .623 0 .934-.134 1.166a1 1 0 0 1-.366.366c-.232.134-.544.134-1.167.134Zm6 0c-.623 0-.935 0-1.167-.134a1 1 0 0 1-.366-.366c-.134-.232-.134-.543-.134-1.166v-4c0-.624 0-.935.134-1.167a1 1 0 0 1 .366-.366C10.065 4 10.377 4 11 4s.935 0 1.167.134a1 1 0 0 1 .366.366c.134.232.134.543.134 1.167v4c0 .623 0 .934-.134 1.166a1 1 0 0 1-.366.366c-.232.134-.544.134-1.167.134Z" fill="currentColor"/></svg>