<svg viewBox="0 0 12 12" fill="none" xmlns="http://www.w3.org/2000/svg">
<path fill-rule="evenodd" clip-rule="evenodd" d="M6.08261 0.801753C5.96493 0.732901 5.81972 0.732739 5.70189 0.801328L1.50257 3.24566C1.38496 3.31412 1.3125 3.44066 1.3125 3.57761L1.31251 8.28666C1.31251 8.42312 1.38446 8.5493 1.50143 8.61793L5.89809 11.198C6.01598 11.2672 6.1616 11.2673 6.27965 11.1984L10.4978 8.73603C10.6152 8.6675 10.6875 8.54109 10.6875 8.40431V3.71664C10.6875 3.57999 10.6154 3.45368 10.4982 3.38511L6.08261 0.801753ZM2.07265 8.06624L2.07264 4.24196L5.73995 6.38029L5.71372 10.2029L2.07265 8.06624ZM6.4739 10.1993L6.50009 6.38194L9.92736 4.38135V8.18331L6.4739 10.1993ZM8.33583 4.42465L9.5494 3.71626L5.8914 1.57611L4.68872 2.27616L6.2594 3.19067L8.23721 4.34222C8.27555 4.36454 8.30857 4.39258 8.33583 4.42465ZM7.59812 4.85527L5.87933 3.85453L3.92848 2.71868L2.45236 3.5779L6.12143 5.71726L7.59812 4.85527Z" fill="#9293AB"/>
</svg>
