<svg xmlns="http://www.w3.org/2000/svg" viewBox="0 0 16 16" fill="none" xmlns:v="https://vecta.io/nano"><path fill-rule="evenodd" d="M5.03 6.406l2.607-1.398c.062-.033.137-.033.199 0l2.607 1.398-2.707 1.421L5.03 6.406zm-.364.649v2.721c0 .061.03.119.079.156.008.006.017.012.026.017l2.591 1.389V8.471L4.667 7.056zm3.444 4.283l2.591-1.389c.009-.005.018-.011.026-.017.049-.037.079-.094.079-.156V7.056L8.111 8.471v2.868zm3.008-5.294a.82.82 0 0 1 .36.665v3.067c0 .296-.166.575-.445.725l-.027.015-2.838 1.521-.055.027a.92.92 0 0 1-.752 0l-.055-.027-2.838-1.521-.028-.015c-.279-.15-.445-.429-.445-.725v-3.06c.001-.088.014-.167.038-.243.01-.032.023-.063.037-.094.025-.054.057-.106.094-.155a.85.85 0 0 1 .191-.181c.027-.019.056-.036.086-.052l.294-.158 2.571-1.379.028-.014a.92.92 0 0 1 .806 0l.028.014 2.865 1.536a.89.89 0 0 1 .085.052zm-8.191.107a.37.37 0 0 0 .508-.135.37.37 0 0 0 .043-.118c.028-.15-.039-.308-.178-.391l-1.084-.63c-.034-.078.044-.178.165-.283.106-.092.245-.188.375-.271l.197-.12 3.685-2.14c.717-.416 1.599-.42 2.319-.01l3.581 2.04c.092.052.195.124.296.202.155.121.305.259.403.374.066.077.108.144.112.188l-1.101.646c-.179.106-.239.333-.138.51a.37.37 0 0 0 .508.135l1.03-.598c.06.038.086.096.096.165.012.082.001.179-.009.274l-.013.17-.035 4.14c-.007.833-.452 1.599-1.168 2.015l-3.685 2.14-.127.079c-.144.092-.279.178-.476.193a.86.86 0 0 1-.119 0l-.002-1.116c0-.205-.168-.371-.374-.371s-.374.166-.374.371v1.139c-.312 0-.524-.103-.75-.23l-.079-.045-.018-.01-3.581-2.04c-.739-.421-1.192-1.212-1.185-2.066l.035-4.14-.002-.126c-.004-.17-.008-.336.078-.499l.024-.041 1.042.599zM1.454 4.834l-.198.311c-.258.405-.231.886-.222 1.031l.002.037L1 10.353c-.01 1.124.588 2.168 1.564 2.724l3.581 2.04.038.022c.255.146.631.362 1.18.362h.75v-.022c.526.017.915-.25 1.055-.346l.043-.029 3.685-2.14c.947-.55 1.532-1.562 1.542-2.658l.035-4.14.002-.026.007-.071.001-.009.017-.231c.002-.12.006-.591-.4-.878v-.089c-.001-.2-.075-.351-.108-.414a1.35 1.35 0 0 0-.131-.199c-.082-.106-.182-.209-.279-.299-.191-.179-.441-.375-.672-.507l-3.581-2.04C8.377.861 7.21.866 6.262 1.416l-3.685 2.14c-.158.092-.404.243-.607.406a1.78 1.78 0 0 0-.325.328c-.038.053-.187.266-.191.545z" fill="currentColor"/></svg>