<svg xmlns="http://www.w3.org/2000/svg" viewBox="0 0 32 32" fill="none" xmlns:v="https://vecta.io/nano"><path fill-rule="evenodd" d="M28.001 8.309a5.02 5.02 0 0 0-1.735-1.659l-7.655-4.393c-1.54-.884-3.426-.876-4.958.021L5.774 6.887c-.632.37-1.165.868-1.574 1.451L6.511 9.69a.81.81 0 0 1 .294 1.099.79.79 0 0 1-1.086.291l-2.221-1.3a5.12 5.12 0 0 0-.221 1.447L3.2 20.144c-.016 1.839.954 3.543 2.534 4.449l7.655 4.393c.568.326 1.183.531 1.811.614v-2.453a.8.8 0 0 1 1.6 0v2.404a4.95 4.95 0 0 0 1.547-.586l7.879-4.609c1.532-.896 2.482-2.548 2.498-4.341l.076-8.916c.004-.448-.051-.888-.159-1.311l-2.202 1.288a.79.79 0 0 1-1.087-.291.81.81 0 0 1 .295-1.099l2.354-1.377zm-4.953 12.14l-6.126 3.309a1.95 1.95 0 0 1-1.842 0l-6.127-3.309C8.356 20.127 8 19.526 8 18.889v-6.59a1.78 1.78 0 0 1 .952-1.561l6.126-3.309a1.95 1.95 0 0 1 1.842 0l6.127 3.309c.597.323.952.924.952 1.561v6.59c0 .637-.355 1.238-.952 1.561zm-7.26-11.832l-5.556 3.001-.018.01.136.072L16 14.689l5.787-3.06-5.574-3.011a.45.45 0 0 0-.425 0zM9.436 18.889v-5.861l5.764 3.048v6.176l-5.539-2.992c-.139-.075-.225-.217-.225-.372zm7.364-2.744v6.107l5.539-2.992c.139-.075.225-.217.225-.372v-5.861L16.8 16.076v.069z" fill="url(#A)"/><defs><linearGradient id="A" x1="9.029" y1="3.859" x2="24.791" y2="26.049" gradientUnits="userSpaceOnUse"><stop stop-color="#73dfe7"/><stop offset="1" stop-color="#0095f7"/></linearGradient></defs></svg>