<svg viewBox="0 0 33 33" fill="none" xmlns="http://www.w3.org/2000/svg"><path fill-rule="evenodd" clip-rule="evenodd" d="M16.895 12.934a.5.5 0 0 1 .7-.095l4.41 3.35a.5.5 0 0 1 0 .795l-4.41 3.36a.5.5 0 1 1-.605-.796l3.231-2.461H3.747a.5.5 0 0 1 0-1h16.47l-3.226-2.452a.5.5 0 0 1-.096-.7Z" fill="#fff"/><path fill-rule="evenodd" clip-rule="evenodd" d="M15.473 4.438a1.5 1.5 0 0 1 1.302 0l8.858 4.266a1.5 1.5 0 0 1 .812 1.017l2.295 10.055a.5.5 0 1 1-.975.223L25.47 9.944a.5.5 0 0 0-.27-.34L16.34 5.34a.5.5 0 0 0-.433 0L7.048 9.605a.5.5 0 0 0-.27.339l-.569 2.49a.5.5 0 0 1-.975-.222l.569-2.49a1.5 1.5 0 0 1 .811-1.018l8.859-4.266ZM4.104 20.024a.5.5 0 0 1 .703.08l6.01 7.536a.5.5 0 0 0 .39.188h5.53a.5.5 0 1 1 0 1h-5.53a1.5 1.5 0 0 1-1.172-.565l-6.01-7.536a.5.5 0 0 1 .08-.703Z" fill="#fff"/><path fill-rule="evenodd" clip-rule="evenodd" d="M22.858 22.76h.968v.526h-.968v-.526Zm2.61 9.744-2.61-2.666v-.526l2.61 2.605 2.611-2.605v.526l-2.61 2.666Zm2.611-9.744h-.973v.526h.973v-.526Zm-.973 1.792v.606l-1.11 1.141-.278-.286.57-.599.818-.862Zm-3.28 0v.606l1.113 1.141.28-.286-1.393-1.461Zm5.879 4.062-2.724-2.602v.537l2.724 2.639v-.574Zm1.147-1.287h-1.147v.519H32v-.519h-1.148Zm-6.833-1.315-2.724 2.602v.574l2.724-2.639v-.537Zm-2.724 1.315H19v.519h2.295v-.519Z" fill="#D9DAE5"/><path fill-rule="evenodd" clip-rule="evenodd" d="M23.826 29.312h-.968l2.61 2.605 2.611-2.605h-.973V27.44l-1.11-1.141-.278-.286.57-.6.818-.861V22.759h.973l-2.61-2.665-2.611 2.665h.968V24.552l1.392 1.46-.279.287-1.113 1.14v1.873Zm5.879-.698-2.724-2.602 2.724-2.602v1.278H32v2.639h-2.295v1.287Zm-5.686-2.602-2.724 2.602v-1.288H19v-2.638h2.295V23.41l2.724 2.602Z" fill="#fff"/></svg>