<svg fill="none" viewBox="0 0 32 33" xmlns="http://www.w3.org/2000/svg"><g clip-rule="evenodd" fill-rule="evenodd"><path d="m22.96 4.561a.5.5 0 0 1 .699-.103l4.668 3.465a.5.5 0 0 1 0 .803l-4.667 3.474a.5.5 0 0 1 -.597-.802l3.458-2.574h-17.431a.505.505 0 0 1 -.067.004c-2.494 0-4.496 1.973-4.496 4.383v2.208a.5.5 0 0 1 -1 0v-2.208c0-2.96 2.433-5.345 5.426-5.382a.505.505 0 0 1 .07-.005h17.493l-3.453-2.564a.5.5 0 0 1 -.104-.7zm-13.865 21.68a.5.5 0 0 1 -.7.104l-4.667-3.466a.5.5 0 0 1 0-.803l4.667-3.474a.5.5 0 0 1 .597.802l-3.457 2.573h14.02a.5.5 0 0 1 0 1h-14.018l3.454 2.565a.5.5 0 0 1 .103.7zm18.349-6.305a.5.5 0 0 1 -.262-.657c.222-.519.345-1.09.345-1.688v-2.208a.5.5 0 1 1 1 0v2.208c0 .737-.152 1.441-.426 2.082a.5.5 0 0 1 -.657.263z" fill="#fff"/><path d="m22.858 22.76h.968v.526h-.968zm2.61 9.744-2.61-2.666v-.526l2.61 2.605 2.611-2.605v.526l-2.61 2.666zm2.611-9.744h-.973v.526h.973zm-.973 1.792v.606l-1.11 1.141-.278-.286.57-.599zm-3.28 0v.606l1.113 1.141.28-.286zm5.879 4.062-2.724-2.602v.537l2.724 2.639zm1.147-1.287h-1.147v.519h2.295v-.519zm-6.833-1.315-2.724 2.602v.574l2.724-2.639zm-2.724 1.315h-2.295v.519h2.295z" fill="#d9dae5"/><path d="m23.826 29.312h-.968l2.61 2.605 2.611-2.605h-.973v-1.872l-1.11-1.141-.278-.286.57-.6.818-.861v-1.793h.973l-2.61-2.665-2.611 2.665h.968v1.793l1.392 1.46-.279.287-1.113 1.14zm5.879-.698-2.724-2.602 2.724-2.602v1.278h2.295v2.639h-2.295zm-5.686-2.602-2.724 2.602v-1.288h-2.295v-2.638h2.295v-1.278z" fill="#fff"/></g></svg>