<svg  fill="currentColor" xmlns="http://www.w3.org/2000/svg"><path fill-rule="evenodd" clip-rule="evenodd" d="M23.242 4.561a.5.5 0 0 1 .7-.103l4.667 3.465a.5.5 0 0 1 0 .803L23.942 12.2a.5.5 0 0 1-.598-.802l3.458-2.574H9.372a.505.505 0 0 1-.067.004c-2.494 0-4.495 1.973-4.495 4.383v2.208a.5.5 0 0 1-1 0v-2.208c0-2.96 2.433-5.345 5.425-5.382a.506.506 0 0 1 .07-.005h17.494L23.345 5.26a.5.5 0 0 1-.103-.7ZM9.377 26.241a.5.5 0 0 1-.699.104L4.01 22.878a.5.5 0 0 1 0-.803l4.667-3.474a.5.5 0 0 1 .598.802l-3.458 2.573h14.02a.5.5 0 1 1 0 1H5.82l3.453 2.565a.5.5 0 0 1 .103.7Zm18.35-6.305a.5.5 0 0 1-.263-.657c.222-.519.346-1.09.346-1.688v-2.208a.5.5 0 1 1 1 0v2.208c0 .737-.152 1.441-.427 2.082a.5.5 0 0 1-.657.263Z" fill="currentColor"/><path fill-rule="evenodd" clip-rule="evenodd" d="M23.14 22.76h.968v.526h-.968v-.526Zm2.61 9.744-2.61-2.666v-.526l2.61 2.605 2.612-2.605v.526l-2.611 2.666Zm2.612-9.744h-.974v.526h.974v-.526Zm-.974 1.792v.606l-1.11 1.141-.277-.286.569-.599.818-.862Zm-3.28 0v.606l1.113 1.141.28-.286-1.393-1.461Zm5.879 4.062-2.724-2.602v.537l2.724 2.639v-.574Zm1.148-1.287h-1.148v.519h2.295v-.519h-1.147Zm-6.833-1.315-2.724 2.602v.574l2.724-2.639v-.537Zm-2.724 1.315h-2.296v.519h2.296v-.519Z" fill="currentColor"/><path fill-rule="evenodd" clip-rule="evenodd" d="M24.108 29.312h-.968l2.61 2.605 2.612-2.605h-.974V27.44l-1.11-1.141-.277-.286.569-.6.818-.861V22.759h.974l-2.611-2.665-2.61 2.665h.967V24.552l1.392 1.46-.279.287-1.113 1.14v1.873Zm5.879-.698-2.724-2.602 2.724-2.602v1.278h2.295v2.639h-2.295v1.287Zm-5.685-2.602-2.724 2.602v-1.288h-2.296v-2.638h2.296V23.41l2.724 2.602Z" fill="currentColor"/></svg>