<svg viewBox="0 0 32 32" xmlns="http://www.w3.org/2000/svg">
<g clip-path="url(#clip0_178_73)">
<path d="M15.5 8.2C15.5 8.47614 15.7239 8.7 16 8.7C16.2761 8.7 16.5 8.47614 16.5 8.2H16H15.5ZM16 3L16.3453 2.63839C16.1521 2.45387 15.8479 2.45387 15.6547 2.63839L16 3ZM18.2261 5.81716C18.4258 6.00787 18.7423 6.00058 18.933 5.80087C19.1237 5.60116 19.1165 5.28466 18.9167 5.09395L18.5714 5.45556L18.2261 5.81716ZM13.0833 5.09395C12.8835 5.28466 12.8763 5.60116 13.067 5.80087C13.2577 6.00058 13.5742 6.00787 13.7739 5.81716L13.4286 5.45556L13.0833 5.09395ZM16.5 23.8C16.5 23.5239 16.2761 23.3 16 23.3C15.7239 23.3 15.5 23.5239 15.5 23.8H16H16.5ZM16 29L15.6547 29.3616C15.8479 29.5461 16.1521 29.5461 16.3453 29.3616L16 29ZM13.7739 26.1828C13.5742 25.9921 13.2577 25.9994 13.067 26.1991C12.8763 26.3988 12.8835 26.7153 13.0833 26.9061L13.4286 26.5444L13.7739 26.1828ZM18.9167 26.9061C19.1165 26.7153 19.1237 26.3988 18.933 26.1991C18.7423 25.9994 18.4258 25.9921 18.2261 26.1828L18.5714 26.5444L18.9167 26.9061ZM28 16.5C28.2761 16.5 28.5 16.2761 28.5 16C28.5 15.7239 28.2761 15.5 28 15.5V16V16.5ZM22.8571 16L22.4917 15.6587C22.3123 15.8508 22.3123 16.1492 22.4917 16.3413L22.8571 16ZM25.6511 13.7413C25.8396 13.5395 25.8288 13.2231 25.627 13.0346C25.4252 12.8461 25.1088 12.8569 24.9203 13.0587L25.2857 13.4L25.6511 13.7413ZM24.9203 18.9413C25.1088 19.1431 25.4252 19.1539 25.627 18.9654C25.8288 18.7769 25.8396 18.4605 25.6511 18.2587L25.2857 18.6L24.9203 18.9413ZM4 15.5C3.72386 15.5 3.5 15.7239 3.5 16C3.5 16.2761 3.72386 16.5 4 16.5V16V15.5ZM9.14286 16L9.50825 16.3413C9.68773 16.1492 9.68773 15.8508 9.50825 15.6587L9.14286 16ZM6.34889 18.2587C6.1604 18.4605 6.17118 18.7769 6.37298 18.9654C6.57479 19.1539 6.89118 19.1431 7.07968 18.9413L6.71429 18.6L6.34889 18.2587ZM7.07968 13.0587C6.89118 12.8569 6.57479 12.8461 6.37298 13.0346C6.17118 13.2231 6.1604 13.5395 6.34889 13.7413L6.71429 13.4L7.07968 13.0587ZM11.2857 16.0619H10.7857V20.1476H11.2857H11.7857V16.0619H11.2857ZM11.2857 20.1476C10.7857 20.1476 10.7857 20.1482 10.7857 20.1488C10.7857 20.149 10.7857 20.1495 10.7857 20.15C10.7857 20.1508 10.7857 20.1516 10.7857 20.1525C10.7858 20.1543 10.7858 20.1562 10.7858 20.1582C10.7859 20.1623 10.786 20.1669 10.7862 20.1721C10.7866 20.1823 10.7872 20.1946 10.7883 20.2089C10.7905 20.2374 10.7945 20.2737 10.8016 20.3167C10.8158 20.4027 10.8425 20.5157 10.8927 20.6463C10.9942 20.9102 11.1876 21.235 11.5475 21.5469C12.2643 22.1681 13.5819 22.6905 16 22.6905V22.1905V21.6905C13.7038 21.6905 12.6643 21.1914 12.2025 20.7912C11.9731 20.5924 11.8719 20.4065 11.826 20.2873C11.8026 20.2264 11.7925 20.1798 11.7883 20.1541C11.7861 20.1412 11.7855 20.1336 11.7854 20.1322C11.7853 20.1315 11.7854 20.1323 11.7855 20.1349C11.7856 20.1361 11.7856 20.1378 11.7856 20.1399C11.7857 20.141 11.7857 20.1422 11.7857 20.1434C11.7857 20.1441 11.7857 20.1447 11.7857 20.1454C11.7857 20.1458 11.7857 20.1463 11.7857 20.1465C11.7857 20.147 11.7857 20.1476 11.2857 20.1476ZM16 22.1905V22.6905C18.4181 22.6905 19.7357 22.1681 20.4525 21.5469C20.8124 21.235 21.0058 20.9102 21.1073 20.6463C21.1575 20.5157 21.1842 20.4027 21.1984 20.3167C21.2055 20.2737 21.2095 20.2374 21.2117 20.2089C21.2128 20.1946 21.2134 20.1823 21.2138 20.1721C21.214 20.1669 21.2141 20.1623 21.2142 20.1582C21.2142 20.1562 21.2142 20.1543 21.2143 20.1525C21.2143 20.1516 21.2143 20.1508 21.2143 20.15C21.2143 20.1495 21.2143 20.149 21.2143 20.1488C21.2143 20.1482 21.2143 20.1476 20.7143 20.1476C20.2143 20.1476 20.2143 20.147 20.2143 20.1465C20.2143 20.1463 20.2143 20.1458 20.2143 20.1454C20.2143 20.1447 20.2143 20.1441 20.2143 20.1434C20.2143 20.1422 20.2143 20.141 20.2144 20.1399C20.2144 20.1378 20.2144 20.1361 20.2145 20.1349C20.2146 20.1323 20.2147 20.1315 20.2146 20.1322C20.2145 20.1336 20.2139 20.1412 20.2117 20.1541C20.2075 20.1798 20.1974 20.2264 20.174 20.2873C20.1281 20.4065 20.0269 20.5924 19.7975 20.7912C19.3357 21.1914 18.2962 21.6905 16 21.6905V22.1905ZM20.7143 20.1476H21.2143V16.0619H20.7143H20.2143V20.1476H20.7143ZM11.2857 11.9762H10.7857V16.0619H11.2857H11.7857V11.9762H11.2857ZM11.2857 16.0619C10.7857 16.0619 10.7857 16.0625 10.7857 16.063C10.7857 16.0632 10.7857 16.0638 10.7857 16.0642C10.7857 16.0651 10.7857 16.0659 10.7857 16.0668C10.7858 16.0686 10.7858 16.0705 10.7858 16.0725C10.7859 16.0766 10.786 16.0812 10.7862 16.0863C10.7866 16.0966 10.7872 16.1089 10.7883 16.1232C10.7905 16.1517 10.7945 16.188 10.8016 16.231C10.8158 16.317 10.8425 16.43 10.8927 16.5606C10.9942 16.8245 11.1876 17.1493 11.5475 17.4612C12.2643 18.0824 13.5819 18.6047 16 18.6047V18.1047V17.6047C13.7038 17.6047 12.6643 17.1057 12.2025 16.7055C11.9731 16.5067 11.8719 16.3207 11.826 16.2016C11.8026 16.1406 11.7925 16.0941 11.7883 16.0683C11.7861 16.0555 11.7855 16.0479 11.7854 16.0465C11.7853 16.0458 11.7854 16.0466 11.7855 16.0492C11.7856 16.0504 11.7856 16.0521 11.7856 16.0542C11.7857 16.0553 11.7857 16.0564 11.7857 16.0577C11.7857 16.0584 11.7857 16.059 11.7857 16.0597C11.7857 16.0601 11.7857 16.0606 11.7857 16.0608C11.7857 16.0613 11.7857 16.0619 11.2857 16.0619ZM16 18.1047V18.6047C18.4181 18.6047 19.7357 18.0824 20.4525 17.4612C20.8124 17.1493 21.0058 16.8245 21.1073 16.5606C21.1575 16.43 21.1842 16.317 21.1984 16.231C21.2055 16.188 21.2095 16.1517 21.2117 16.1232C21.2128 16.1089 21.2134 16.0966 21.2138 16.0863C21.214 16.0812 21.2141 16.0766 21.2142 16.0725C21.2142 16.0705 21.2142 16.0686 21.2143 16.0668C21.2143 16.0659 21.2143 16.0651 21.2143 16.0642C21.2143 16.0638 21.2143 16.0632 21.2143 16.063C21.2143 16.0625 21.2143 16.0619 20.7143 16.0619C20.2143 16.0619 20.2143 16.0613 20.2143 16.0608C20.2143 16.0606 20.2143 16.0601 20.2143 16.0597C20.2143 16.059 20.2143 16.0584 20.2143 16.0577C20.2143 16.0564 20.2143 16.0553 20.2144 16.0542C20.2144 16.0521 20.2144 16.0504 20.2145 16.0492C20.2146 16.0466 20.2147 16.0458 20.2146 16.0465C20.2145 16.0479 20.2139 16.0555 20.2117 16.0683C20.2075 16.0941 20.1974 16.1406 20.174 16.2016C20.1281 16.3207 20.0269 16.5067 19.7975 16.7055C19.3357 17.1057 18.2962 17.6047 16 17.6047V18.1047ZM20.7143 16.0619H21.2143V11.9762H20.7143H20.2143V16.0619H20.7143ZM16 9.93333V10.4333C18.2962 10.4333 19.3357 10.9324 19.7975 11.3326C20.0269 11.5314 20.1281 11.7173 20.174 11.8365C20.1974 11.8974 20.2075 11.944 20.2117 11.9697C20.2139 11.9826 20.2145 11.9901 20.2146 11.9916C20.2147 11.9923 20.2146 11.9914 20.2145 11.9889C20.2144 11.9876 20.2144 11.986 20.2144 11.9838C20.2143 11.9828 20.2143 11.9816 20.2143 11.9803C20.2143 11.9797 20.2143 11.979 20.2143 11.9783C20.2143 11.978 20.2143 11.9774 20.2143 11.9773C20.2143 11.9767 20.2143 11.9762 20.7143 11.9762C21.2143 11.9762 21.2143 11.9756 21.2143 11.975C21.2143 11.9748 21.2143 11.9742 21.2143 11.9738C21.2143 11.973 21.2143 11.9721 21.2143 11.9713C21.2142 11.9695 21.2142 11.9676 21.2142 11.9655C21.2141 11.9615 21.214 11.9568 21.2138 11.9517C21.2134 11.9415 21.2128 11.9291 21.2117 11.9149C21.2095 11.8864 21.2055 11.8501 21.1984 11.8071C21.1842 11.7211 21.1575 11.608 21.1073 11.4775C21.0058 11.2136 20.8123 10.8888 20.4525 10.5769C19.7357 9.9557 18.4181 9.43333 16 9.43333V9.93333ZM20.7143 11.9762C20.2143 11.9762 20.2143 11.9756 20.2143 11.9751C20.2143 11.9749 20.2143 11.9743 20.2143 11.974C20.2143 11.9733 20.2143 11.9726 20.2143 11.972C20.2143 11.9707 20.2143 11.9696 20.2144 11.9685C20.2144 11.9664 20.2144 11.9647 20.2145 11.9634C20.2146 11.9609 20.2147 11.9601 20.2146 11.9608C20.2145 11.9622 20.2139 11.9698 20.2117 11.9826C20.2075 12.0084 20.1974 12.0549 20.174 12.1159C20.1281 12.235 20.0269 12.4209 19.7975 12.6198C19.3357 13.02 18.2962 13.519 16 13.519V14.019V14.519C18.4181 14.519 19.7357 13.9967 20.4525 13.3755C20.8124 13.0635 21.0058 12.7388 21.1073 12.4749C21.1575 12.3443 21.1842 12.2313 21.1984 12.1453C21.2055 12.1023 21.2095 12.066 21.2117 12.0375C21.2128 12.0232 21.2134 12.0109 21.2138 12.0006C21.214 11.9955 21.2141 11.9909 21.2142 11.9868C21.2142 11.9848 21.2142 11.9829 21.2143 11.9811C21.2143 11.9802 21.2143 11.9793 21.2143 11.9785C21.2143 11.9781 21.2143 11.9775 21.2143 11.9773C21.2143 11.9767 21.2143 11.9762 20.7143 11.9762ZM16 14.019V13.519C13.7038 13.519 12.6643 13.02 12.2025 12.6198C11.9731 12.4209 11.8719 12.235 11.826 12.1159C11.8026 12.0549 11.7925 12.0084 11.7883 11.9826C11.7861 11.9698 11.7855 11.9622 11.7854 11.9608C11.7853 11.9601 11.7854 11.9609 11.7855 11.9634C11.7856 11.9647 11.7856 11.9664 11.7856 11.9685C11.7857 11.9696 11.7857 11.9707 11.7857 11.972C11.7857 11.9726 11.7857 11.9733 11.7857 11.974C11.7857 11.9743 11.7857 11.9749 11.7857 11.9751C11.7857 11.9756 11.7857 11.9762 11.2857 11.9762C10.7857 11.9762 10.7857 11.9767 10.7857 11.9773C10.7857 11.9775 10.7857 11.9781 10.7857 11.9785C10.7857 11.9793 10.7857 11.9802 10.7857 11.9811C10.7858 11.9829 10.7858 11.9848 10.7858 11.9868C10.7859 11.9909 10.786 11.9955 10.7862 12.0006C10.7866 12.0109 10.7872 12.0232 10.7883 12.0375C10.7905 12.066 10.7945 12.1023 10.8016 12.1453C10.8158 12.2313 10.8425 12.3443 10.8927 12.4749C10.9942 12.7388 11.1876 13.0635 11.5475 13.3755C12.2643 13.9967 13.5819 14.519 16 14.519V14.019ZM11.2857 11.9762C11.7857 11.9762 11.7857 11.9767 11.7857 11.9773C11.7857 11.9774 11.7857 11.978 11.7857 11.9783C11.7857 11.979 11.7857 11.9797 11.7857 11.9803C11.7857 11.9816 11.7857 11.9828 11.7856 11.9838C11.7856 11.986 11.7856 11.9876 11.7855 11.9889C11.7854 11.9914 11.7853 11.9923 11.7854 11.9916C11.7855 11.9901 11.7861 11.9826 11.7883 11.9697C11.7925 11.944 11.8026 11.8974 11.826 11.8365C11.8719 11.7173 11.9731 11.5314 12.2025 11.3326C12.6643 10.9324 13.7038 10.4333 16 10.4333V9.93333V9.43333C13.5819 9.43333 12.2643 9.9557 11.5475 10.5769C11.1877 10.8888 10.9942 11.2136 10.8927 11.4775C10.8425 11.608 10.8158 11.7211 10.8016 11.8071C10.7945 11.8501 10.7905 11.8864 10.7883 11.9149C10.7872 11.9291 10.7866 11.9415 10.7862 11.9517C10.786 11.9568 10.7859 11.9615 10.7858 11.9655C10.7858 11.9676 10.7858 11.9695 10.7857 11.9713C10.7857 11.9721 10.7857 11.973 10.7857 11.9738C10.7857 11.9742 10.7857 11.9748 10.7857 11.975C10.7857 11.9756 10.7857 11.9762 11.2857 11.9762ZM16 8.2H16.5V3H16H15.5V8.2H16ZM16 3L15.6547 3.36161L18.2261 5.81716L18.5714 5.45556L18.9167 5.09395L16.3453 2.63839L16 3ZM16 3L15.6547 2.63839L13.0833 5.09395L13.4286 5.45556L13.7739 5.81716L16.3453 3.36161L16 3ZM16 23.8H15.5V29H16H16.5V23.8H16ZM16 29L16.3453 28.6384L13.7739 26.1828L13.4286 26.5444L13.0833 26.9061L15.6547 29.3616L16 29ZM16 29L16.3453 29.3616L18.9167 26.9061L18.5714 26.5444L18.2261 26.1828L15.6547 28.6384L16 29ZM28 16V15.5H22.8571V16V16.5H28V16ZM22.8571 16L23.2225 16.3413L25.6511 13.7413L25.2857 13.4L24.9203 13.0587L22.4917 15.6587L22.8571 16ZM22.8571 16L22.4917 16.3413L24.9203 18.9413L25.2857 18.6L25.6511 18.2587L23.2225 15.6587L22.8571 16ZM4 16V16.5H9.14286V16V15.5H4V16ZM9.14286 16L8.77746 15.6587L6.34889 18.2587L6.71429 18.6L7.07968 18.9413L9.50825 16.3413L9.14286 16ZM9.14286 16L9.50825 15.6587L7.07968 13.0587L6.71429 13.4L6.34889 13.7413L8.77746 16.3413L9.14286 16Z" fill="#4F5162"/>
<path d="M24.5215 29.701L23.4568 29.944V23.0486L24.5215 23.292V29.701Z" fill="#F68536"/>
<path d="M25.85 30.1079L24.5216 30.4855V22.5164L25.85 22.8935V30.1079Z" fill="#F68536"/>
<path d="M27.554 30.5262L25.8499 31.1498V21.8522L27.554 22.4756V30.5262Z" fill="#F68536"/>
<path d="M32.1104 29.7218L27.554 32V21L32.1104 23.2782V29.7218Z" fill="#F68536"/>
<path d="M26.6457 21.4542L27.554 21V32L26.6457 31.5459V21.4542Z" fill="#9D5025"/>
<path d="M25.1469 22.2035L25.85 21.852V31.1479L25.1469 30.7964V22.2035Z" fill="#9D5025"/>
<path d="M23.9614 22.7964L24.5215 22.5164V30.4837L23.9614 30.2035V22.7964Z" fill="#9D5025"/>
<path d="M23.4568 23.0486L23 23.277V29.7232L23.4568 29.9514V23.0486Z" fill="#9D5025"/>
</g>
<defs>
<clipPath id="clip0_178_73">
<rect width="32" height="32" fill="white"/>
</clipPath>
</defs>
</svg>
