<svg fill="none" viewBox="0 0 33 33" xmlns="http://www.w3.org/2000/svg"><g clip-rule="evenodd" fill-rule="evenodd"><path d="m22.104 12.766c-.747-2.89-2.949-4.309-5.042-3.795-2.085.511-3.659 2.841-3.412 6.639l-10.375 10.393a.5.5 0 0 0 .708.707l10.7-10.72-.019-.23c-.307-3.686 1.188-5.463 2.637-5.818 1.441-.354 3.258.596 3.872 3.227l.04.174 1.503 1.154-1.333 1.056-.008.23c-.039 1.138-.18 3.33-.662 4.777-.429 1.289-1.437 3.14-3.09 4.576-1.639 1.425-3.91 2.443-6.913 2.11a.5.5 0 1 0 -.11.994c3.317.368 5.859-.766 7.68-2.35 1.808-1.571 2.906-3.584 3.382-5.014.5-1.498.655-3.633.704-4.826l1.473-1.168a.5.5 0 0 0 -.006-.788l-1.73-1.328z" fill="#fcb519"/><path d="m15.925 28.642a12.93 12.93 0 0 0 2.356-.146.5.5 0 0 1 .154.988 13.94 13.94 0 0 1 -2.539.158 13.085 13.085 0 0 1 -5.65-1.456.5.5 0 1 1 .459-.888c1.567.81 3.337 1.29 5.22 1.344zm12.541-8.428a.5.5 0 0 1 -.37-.602c.183-.774.29-1.583.315-2.42.191-6.722-5.108-12.637-11.793-12.828-6.701-.191-12.29 5.088-12.48 11.792-.025.832.036 1.647.173 2.436a.5.5 0 1 1 -.986.17 13.207 13.207 0 0 1 -.187-2.634c.207-7.256 6.255-12.97 13.508-12.764 7.27.208 12.97 6.616 12.764 13.856a12.963 12.963 0 0 1 -.342 2.623.5.5 0 0 1 -.602.371z" fill="#fcb519"/><path d="m23.14 22.76h.968v.526h-.968zm2.61 9.744-2.61-2.666v-.526l2.61 2.605 2.612-2.605v.526l-2.611 2.666zm2.612-9.744h-.974v.526h.974zm-.974 1.792v.606l-1.11 1.141-.277-.286.569-.599zm-3.28 0v.606l1.113 1.141.28-.286zm5.879 4.062-2.724-2.602v.537l2.724 2.639zm1.148-1.287h-1.148v.519h2.295v-.519zm-6.833-1.315-2.724 2.602v.574l2.724-2.639zm-2.724 1.315h-2.296v.519h2.296z" fill="#a15320"/><path d="m24.108 29.312h-.968l2.61 2.605 2.612-2.605h-.974v-1.872l-1.11-1.141-.277-.286.569-.6.818-.861v-1.793h.974l-2.611-2.665-2.61 2.665h.967v1.793l1.392 1.46-.279.287-1.113 1.14zm5.879-.698-2.724-2.602 2.724-2.602v1.278h2.295v2.639h-2.295zm-5.685-2.602-2.724 2.602v-1.288h-2.296v-2.638h2.296v-1.278z" fill="#f48433"/></g></svg>