<svg xmlns="http://www.w3.org/2000/svg" viewBox="0 0 32 32" fill="none" fill-rule="evenodd" xmlns:v="https://vecta.io/nano"><path d="M22.197 27.135h-1.042L23.966 30l2.812-2.865H25.73v-2.059l-1.195-1.255-.3-.314.613-.659.882-.948v-1.392-.579h1.048L23.966 17l-2.812 2.93h1.042v.579 1.392l1.499 1.607-.3.314-1.199 1.255v2.059zm6.331-.768l-2.933-2.861 2.933-2.861v1.406H31v2.901h-1.236-1.236v.57.845zm-6.122-2.861l-2.933 2.861v-.845-.57h-1.236H17v-2.901h2.472v-1.406l2.933 2.861z" fill="#f48433"/><path d="M16.354 9.811l.018.019 3.516 3.516a.5.5 0 0 1-.707.707L16.5 11.372v9.123a.5.5 0 1 1-1 0v-9.122l-2.681 2.681a.5.5 0 0 1-.707-.707l3.517-3.517A.5.5 0 0 1 16 9.665m.354.146a.5.5 0 0 0-.353-.146l.353.146zm-.35-5.307c-6.351 0-11.5 5.149-11.5 11.5s5.149 11.5 11.5 11.5a.5.5 0 1 1 0 1c-6.904 0-12.5-5.596-12.5-12.5s5.596-12.5 12.5-12.5 12.5 5.596 12.5 12.5a.5.5 0 1 1-1 0c0-6.351-5.149-11.5-11.5-11.5z" fill="#0278d5"/></svg>