<svg viewBox="0 0 32 32" fill="none" xmlns="http://www.w3.org/2000/svg"><path fill-rule="evenodd" clip-rule="evenodd" d="M25 20.499a1 1 0 0 1-1 1h-3.001a1 1 0 0 1-1-1v-3.007a1 1 0 0 1 1-1H24a1 1 0 0 1 1 1V20.5Zm-4.001 0H24v-3.007h-3.001V20.5ZM18.006 20.499a1 1 0 0 1-1 1h-3.001a1 1 0 0 1-1-1v-3.007a1 1 0 0 1 1-1h3a1 1 0 0 1 1 1V20.5Zm-4.001 0h3v-3.007h-3V20.5ZM25 13.51a1 1 0 0 1-1 1h-3.001a1 1 0 0 1-1-1v-3.007a1 1 0 0 1 1-1H24a1 1 0 0 1 1 1v3.006Zm-4.001 0H24v-3.007h-3.001v3.006ZM7 5.499a1 1 0 0 1 1-1h3.001a1 1 0 0 1 1 1v3.007a1 1 0 0 1-1 1H8a1 1 0 0 1-1-1V5.499Zm4.001 0H8v3.007h3.001V5.499ZM13.994 5.499a1 1 0 0 1 1-1h3.001a1 1 0 0 1 1 1v3.007a1 1 0 0 1-1 1h-3a1 1 0 0 1-1-1V5.499Zm4.001 0h-3v3.007h3V5.499ZM7 12.489a1 1 0 0 1 1-1h3.001a1 1 0 0 1 1 1v3.006a1 1 0 0 1-1 1H8a1 1 0 0 1-1-1V12.49Zm4.001 0H8v3.006h3.001V12.49Z" fill="#fff"/><path fill-rule="evenodd" clip-rule="evenodd" d="M22.858 22.76h.968v.526h-.968v-.526Zm2.61 9.744-2.61-2.666v-.526l2.61 2.605 2.611-2.605v.526l-2.61 2.666Zm2.611-9.744h-.973v.526h.973v-.526Zm-.973 1.792v.606l-1.11 1.141-.278-.286.57-.599.818-.862Zm-3.28 0v.606l1.113 1.141.28-.286-1.393-1.461Zm5.879 4.062-2.724-2.602v.537l2.724 2.639v-.574Zm1.147-1.287h-1.147v.519H32v-.519h-1.148Zm-6.833-1.315-2.724 2.602v.574l2.724-2.639v-.537Zm-2.724 1.315H19v.519h2.295v-.519Z" fill="#D9DAE5"/><path fill-rule="evenodd" clip-rule="evenodd" d="M23.826 29.312h-.968l2.61 2.605 2.611-2.605h-.973V27.44l-1.11-1.141-.278-.286.57-.6.818-.861V22.759h.973l-2.61-2.665-2.611 2.665h.968V24.552l1.392 1.46-.279.287-1.113 1.14v1.873Zm5.879-.698-2.724-2.602 2.724-2.602v1.278H32v2.639h-2.295v1.287Zm-5.686-2.602-2.724 2.602v-1.288H19v-2.638h2.295V23.41l2.724 2.602Z" fill="#fff"/></svg>