<svg viewBox="0 0 32 32" fill="none" xmlns="http://www.w3.org/2000/svg"><path fill-rule="evenodd" clip-rule="evenodd" d="M25.282 20.499a1 1 0 0 1-1 1h-3a1 1 0 0 1-1-1v-3.007a1 1 0 0 1 1-1h3a1 1 0 0 1 1 1V20.5Zm-4 0h3v-3.007h-3V20.5ZM18.288 20.499a1 1 0 0 1-1 1h-3a1 1 0 0 1-1-1v-3.007a1 1 0 0 1 1-1h3a1 1 0 0 1 1 1V20.5Zm-4 0h3v-3.007h-3V20.5ZM25.282 13.51a1 1 0 0 1-1 1h-3a1 1 0 0 1-1-1v-3.007a1 1 0 0 1 1-1h3a1 1 0 0 1 1 1v3.006Zm-4 0h3v-3.007h-3v3.006Z" fill="#0278D5"/><path fill-rule="evenodd" clip-rule="evenodd" d="M7.282 5.499a1 1 0 0 1 1-1h3.001a1 1 0 0 1 1 1v3.007a1 1 0 0 1-1 1h-3a1 1 0 0 1-1-1V5.499Zm4.001 0h-3v3.007h3V5.499ZM14.276 5.499a1 1 0 0 1 1-1h3.001a1 1 0 0 1 1 1v3.007a1 1 0 0 1-1 1h-3a1 1 0 0 1-1-1V5.499Zm4.001 0h-3v3.007h3V5.499ZM7.282 12.489a1 1 0 0 1 1-1h3.001a1 1 0 0 1 1 1v3.006a1 1 0 0 1-1 1h-3a1 1 0 0 1-1-1V12.49Zm4.001 0h-3v3.006h3V12.49Z" fill="#299B2C"/><path fill-rule="evenodd" clip-rule="evenodd" d="M23.14 22.76h.968v.526h-.968v-.526Zm2.61 9.744-2.61-2.666v-.526l2.61 2.605 2.612-2.605v.526l-2.611 2.666Zm2.612-9.744h-.974v.526h.974v-.526Zm-.974 1.792v.606l-1.11 1.141-.277-.286.569-.599.818-.862Zm-3.28 0v.606l1.113 1.141.28-.286-1.393-1.461Zm5.879 4.062-2.724-2.602v.537l2.724 2.639v-.574Zm1.148-1.287h-1.148v.519h2.295v-.519h-1.147Zm-6.833-1.315-2.724 2.602v.574l2.724-2.639v-.537Zm-2.724 1.315h-2.296v.519h2.296v-.519Z" fill="#A15320"/><path fill-rule="evenodd" clip-rule="evenodd" d="M24.108 29.312h-.968l2.61 2.605 2.612-2.605h-.974V27.44l-1.11-1.141-.277-.286.569-.6.818-.861V22.759h.974l-2.611-2.665-2.61 2.665h.967V24.552l1.392 1.46-.279.287-1.113 1.14v1.873Zm5.879-.698-2.724-2.602 2.724-2.602v1.278h2.295v2.639h-2.295v1.287Zm-5.685-2.602-2.724 2.602v-1.288h-2.296v-2.638h2.296V23.41l2.724 2.602Z" fill="#F48433"/></svg>