<svg fill="currentColor" xmlns="http://www.w3.org/2000/svg"><path fill-rule="evenodd" clip-rule="evenodd" d="M22.96 4.561a.5.5 0 0 1 .699-.103l4.668 3.465a.5.5 0 0 1 0 .803L23.66 12.2a.5.5 0 0 1-.597-.802l3.458-2.574H9.09a.505.505 0 0 1-.067.004c-2.494 0-4.496 1.973-4.496 4.383v2.208a.5.5 0 0 1-1 0v-2.208c0-2.96 2.433-5.345 5.426-5.382a.505.505 0 0 1 .07-.005h17.493L23.063 5.26a.5.5 0 0 1-.104-.7ZM9.095 26.241a.5.5 0 0 1-.7.104l-4.667-3.466a.5.5 0 0 1 0-.803l4.667-3.474a.5.5 0 0 1 .597.802l-3.457 2.573h14.02a.5.5 0 0 1 0 1H5.537l3.454 2.565a.5.5 0 0 1 .103.7Zm18.349-6.305a.5.5 0 0 1-.262-.657c.222-.519.345-1.09.345-1.688v-2.208a.5.5 0 1 1 1 0v2.208c0 .737-.152 1.441-.426 2.082a.5.5 0 0 1-.657.263Z" fill="currentColor"/><path fill-rule="evenodd" clip-rule="evenodd" d="M22.858 22.76h.968v.526h-.968v-.526Zm2.61 9.744-2.61-2.666v-.526l2.61 2.605 2.611-2.605v.526l-2.61 2.666Zm2.611-9.744h-.973v.526h.973v-.526Zm-.973 1.792v.606l-1.11 1.141-.278-.286.57-.599.818-.862Zm-3.28 0v.606l1.113 1.141.28-.286-1.393-1.461Zm5.879 4.062-2.724-2.602v.537l2.724 2.639v-.574Zm1.147-1.287h-1.147v.519H32v-.519h-1.148Zm-6.833-1.315-2.724 2.602v.574l2.724-2.639v-.537Zm-2.724 1.315H19v.519h2.295v-.519Z" fill="currentColor"/><path fill-rule="evenodd" clip-rule="evenodd" d="M23.826 29.312h-.968l2.61 2.605 2.611-2.605h-.973V27.44l-1.11-1.141-.278-.286.57-.6.818-.861V22.759h.973l-2.61-2.665-2.611 2.665h.968V24.552l1.392 1.46-.279.287-1.113 1.14v1.873Zm5.879-.698-2.724-2.602 2.724-2.602v1.278H32v2.639h-2.295v1.287Zm-5.686-2.602-2.724 2.602v-1.288H19v-2.638h2.295V23.41l2.724 2.602Z" fill="currentColor"/></svg>