<svg xmlns="http://www.w3.org/2000/svg" viewBox="0 0 32 32" fill="none" fill-rule="evenodd" xmlns:v="https://vecta.io/nano"><path d="M3.622.25a.5.5 0 0 1 .683-.183l4.812 2.778a.5.5 0 1 1-.5.866L3.805.933A.5.5 0 0 1 3.622.25zM.75 2.846a.5.5 0 0 0-.683.183.5.5 0 0 0 .183.683L5.062 6.49a.5.5 0 0 0 .5-.866L.75 2.846zm13.595.51a.5.5 0 0 0-.501-.001l-7 4.04a.5.5 0 0 0-.25.433v7.784a.5.5 0 0 0 .249.432l7.329 4.265a.5.5 0 0 0 .502.001l7.032-4.07a.5.5 0 0 0 .25-.433V8.058a.5.5 0 0 0-.249-.432l-7.361-4.27zM7.594 15.325v-6.63l6.381 3.689-.046 6.627-6.335-3.686zm7.335 3.682l.046-6.62 5.98-3.461v6.593l-6.026 3.488zm-.452-7.487l5.981-3.462-6.364-3.692-6 3.463 6.383 3.691zM.75 8.89a.5.5 0 0 0-.683.183.5.5 0 0 0 .183.683l4.812 2.778a.5.5 0 1 0 .5-.866L.75 8.89z" fill="#0278d5"/><path d="M19.826 22.218h-.968l2.611 2.605 2.611-2.605h-.973v-1.872l-1.11-1.141-.278-.286.569-.599.819-.862v-1.266-.526h.973L21.469 13l-2.611 2.665h.968v.526 1.266l1.392 1.461-.279.286-1.113 1.141v1.872zm5.879-.698l-2.724-2.602 2.724-2.602v1.279H28v2.639h-1.148-1.148v.518.768zm-5.685-2.602l-2.724 2.602v-.768-.518h-1.148H15v-2.639h2.295v-1.279l2.724 2.602z" fill="#f48433"/></svg>