<svg xmlns="http://www.w3.org/2000/svg" viewBox="0 0 32 32" fill="none" fill-rule="evenodd" xmlns:v="https://vecta.io/nano"><path d="M22.826 25.218h-.968l2.611 2.605 2.611-2.605h-.973v-1.872l-1.11-1.141-.278-.286.569-.599.819-.862v-1.266-.526h.973L24.469 16l-2.611 2.665h.968v.526 1.266l1.392 1.461-.279.286-1.113 1.141v1.872zm5.879-.698l-2.724-2.602 2.724-2.602v1.279H31v2.639h-1.148-1.148v.518.768zm-5.685-2.602l-2.724 2.602v-.768-.518h-1.148H18v-2.639h2.295v-1.279l2.724 2.602z" fill="#f48433"/><path d="M4.748 16.204c0-4.971 4.025-9 8.989-9 4.668 0 8.506 3.563 8.947 8.122l-4.425-2.555a.5.5 0 1 0-.5.866l5.196 3a.5.5 0 0 0 .259.067c.246 0 .442-.16.497-.376l2.927-5.07a.5.5 0 1 0-.866-.5l-2.183 3.782c-.792-4.73-4.9-8.336-9.851-8.336-5.517 0-9.989 4.478-9.989 10s4.472 10 9.989 10h3.378 2.18a.5.5 0 1 0 0-1h-2.18-3.378c-4.964 0-8.989-4.029-8.989-9z" fill="#3978f2"/></svg>