<svg fill="none" viewBox="0 0 32 32" xmlns="http://www.w3.org/2000/svg"><g clip-rule="evenodd" fill-rule="evenodd"><path d="m25 20.499a1 1 0 0 1 -1 1h-3.001a1 1 0 0 1 -1-1v-3.007a1 1 0 0 1 1-1h3.001a1 1 0 0 1 1 1v3.008zm-4.001 0h3.001v-3.007h-3.001v3.008zm-2.993 0a1 1 0 0 1 -1 1h-3.001a1 1 0 0 1 -1-1v-3.007a1 1 0 0 1 1-1h3a1 1 0 0 1 1 1v3.008zm-4.001 0h3v-3.007h-3v3.008zm10.995-6.989a1 1 0 0 1 -1 1h-3.001a1 1 0 0 1 -1-1v-3.007a1 1 0 0 1 1-1h3.001a1 1 0 0 1 1 1v3.006zm-4.001 0h3.001v-3.007h-3.001v3.006zm-13.999-8.011a1 1 0 0 1 1-1h3.001a1 1 0 0 1 1 1v3.007a1 1 0 0 1 -1 1h-3.001a1 1 0 0 1 -1-1zm4.001 0h-3.001v3.007h3.001zm2.993 0a1 1 0 0 1 1-1h3.001a1 1 0 0 1 1 1v3.007a1 1 0 0 1 -1 1h-3a1 1 0 0 1 -1-1v-3.007zm4.001 0h-3v3.007h3zm-10.995 6.99a1 1 0 0 1 1-1h3.001a1 1 0 0 1 1 1v3.006a1 1 0 0 1 -1 1h-3.001a1 1 0 0 1 -1-1v-3.005zm4.001 0h-3.001v3.006h3.001v-3.005z" fill="#fff"/><path d="m22.858 22.76h.968v.526h-.968zm2.61 9.744-2.61-2.666v-.526l2.61 2.605 2.611-2.605v.526l-2.61 2.666zm2.611-9.744h-.973v.526h.973zm-.973 1.792v.606l-1.11 1.141-.278-.286.57-.599zm-3.28 0v.606l1.113 1.141.28-.286zm5.879 4.062-2.724-2.602v.537l2.724 2.639zm1.147-1.287h-1.147v.519h2.295v-.519zm-6.833-1.315-2.724 2.602v.574l2.724-2.639zm-2.724 1.315h-2.295v.519h2.295z" fill="#d9dae5"/><path d="m23.826 29.312h-.968l2.61 2.605 2.611-2.605h-.973v-1.872l-1.11-1.141-.278-.286.57-.6.818-.861v-1.793h.973l-2.61-2.665-2.611 2.665h.968v1.793l1.392 1.46-.279.287-1.113 1.14zm5.879-.698-2.724-2.602 2.724-2.602v1.278h2.295v2.639h-2.295zm-5.686-2.602-2.724 2.602v-1.288h-2.295v-2.638h2.295v-1.278z" fill="#fff"/></g></svg>