<svg xmlns="http://www.w3.org/2000/svg" viewBox="0 0 32 32"><g clip-path="url(#a)"><path fill="#4F5162" d="M15.5 8.2a.5.5 0 0 0 1 0h-1M16 3l.345-.362a.5.5 0 0 0-.69 0zm2.226 2.817a.5.5 0 1 0 .69-.723l-.345.362zm-5.143-.723a.5.5 0 1 0 .69.723l-.344-.361zM16.5 23.8a.5.5 0 0 0-1 0h1M16 29l-.345.362a.5.5 0 0 0 .69 0zm-2.226-2.817a.5.5 0 1 0-.69.723l.345-.362zm5.143.723a.5.5 0 0 0-.69-.723l.344.361zM28 16.5a.5.5 0 0 0 0-1v1m-5.143-.5-.365-.341a.5.5 0 0 0 0 .682zm2.794-2.259a.5.5 0 1 0-.73-.682l.365.341zm-.73 5.2a.5.5 0 1 0 .73-.682l-.365.341zM4 15.5a.5.5 0 0 0 0 1v-1m5.143.5.365.341a.5.5 0 0 0 0-.682zm-2.794 2.259a.5.5 0 0 0 .73.682l-.365-.341zm.73-5.2a.5.5 0 1 0-.73.682l.365-.341zm4.207 3.003h-.5v4.086h1v-4.086zm0 4.086h-.5v.024a1 1 0 0 0 .016.145c.014.086.04.199.09.33.102.263.296.588.656.9.716.621 2.034 1.143 4.452 1.143v-1c-2.296 0-3.336-.499-3.797-.899a1.3 1.3 0 0 1-.377-.504.7.7 0 0 1-.04-.155v.015zM16 22.19v.5c2.418 0 3.736-.523 4.453-1.144.36-.312.553-.637.654-.9a1.7 1.7 0 0 0 .105-.438l.002-.037v-.023l-.5-.001c-.5 0-.5-.001-.5-.002v-.014l-.002.022a.7.7 0 0 1-.038.133 1.3 1.3 0 0 1-.377.504c-.461.4-1.5.9-3.797.9zm4.714-2.043h.5v-4.086h-1v4.086zm-9.428-8.172h-.5v4.086h1v-4.086zm0 4.086-.5.001v.023a1 1 0 0 0 .016.145c.014.086.04.199.09.33.102.264.296.588.656.9.716.621 2.034 1.144 4.452 1.144v-1c-2.296 0-3.336-.5-3.797-.9a1.3 1.3 0 0 1-.377-.503.7.7 0 0 1-.04-.155v.013c0 .001 0 .002-.5.002M16 18.105v.5c2.418 0 3.736-.523 4.453-1.144.36-.312.553-.636.654-.9a1.7 1.7 0 0 0 .105-.438l.002-.037v-.023l-.5-.001-.5-.001v-.014l-.002.021a.7.7 0 0 1-.038.134c-.046.119-.147.305-.377.503-.461.4-1.5.9-3.797.9zm4.714-2.043h.5v-4.086h-1v4.086zM16 9.933v.5c2.296 0 3.336.5 3.797.9.23.198.331.384.377.503a.7.7 0 0 1 .04.156v-.014c0-.001 0-.002.5-.002l.5-.001v-.023a1 1 0 0 0-.016-.145c-.014-.086-.04-.199-.09-.33a2.3 2.3 0 0 0-.655-.9c-.717-.621-2.035-1.144-4.453-1.144zm4.714 2.043h-.5v-.015l-.002.022a.7.7 0 0 1-.038.133c-.046.119-.147.305-.377.504-.461.4-1.5.899-3.797.899v1c2.418 0 3.736-.522 4.453-1.143.36-.312.553-.637.654-.901a1.7 1.7 0 0 0 .105-.437l.002-.037v-.024zM16 14.02v-.5c-2.296 0-3.336-.499-3.797-.9a1.3 1.3 0 0 1-.377-.503.7.7 0 0 1-.04-.155v.014l-.5.001-.5.001v.024a1 1 0 0 0 .016.144c.014.086.04.2.09.33.102.264.296.588.656.9.716.622 2.034 1.144 4.452 1.144zm-4.714-2.043.5.001v.015l.002-.022a.7.7 0 0 1 .038-.134 1.3 1.3 0 0 1 .377-.503c.461-.4 1.5-.9 3.797-.9v-1c-2.418 0-3.736.523-4.453 1.144-.36.312-.553.637-.654.9a1.7 1.7 0 0 0-.105.438l-.002.037v.023zM16 8.2h.5V3h-1v5.2zM16 3l-.345.362 2.571 2.455.345-.361.346-.362-2.572-2.456zm0 0-.345-.362-2.572 2.456.346.362.345.361 2.571-2.455zm0 20.8h-.5V29h1v-5.2zm0 5.2.345-.362-2.571-2.455-.345.361-.346.362 2.572 2.456zm0 0 .345.362 2.572-2.456-.346-.362-.345-.361-2.571 2.455zm12-13v-.5h-5.143v1H28zm-5.143 0 .366.341 2.428-2.6-.365-.341-.366-.341-2.428 2.6zm0 0-.365.341 2.428 2.6.366-.341.365-.341-2.428-2.6zM4 16v.5h5.143v-1H4zm5.143 0-.366-.341-2.428 2.6.365.341.366.341 2.428-2.6zm0 0 .365-.341-2.428-2.6-.366.341-.365.341 2.428 2.6z"/><path fill="#F68536" d="m24.522 29.701-1.065.243v-6.895l1.064.243zM25.85 30.108l-1.328.377v-7.969l1.328.378z"/><path fill="#F68536" d="m27.554 30.526-1.704.624v-9.298l1.704.624zM32.11 29.722 27.554 32V21l4.556 2.278z"/><path fill="#9D5025" d="m26.646 21.454.908-.454v11l-.908-.454zM25.147 22.204l.703-.352v9.296l-.703-.352zM23.961 22.796l.56-.28v7.968l-.56-.28zM23.457 23.049l-.457.228v6.446l.457.228z"/></g><defs><clipPath id="a"><path fill="#fff" d="M0 0h32v32H0z"/></clipPath></defs></svg>