<svg viewBox="0 0 32 32" fill="none" xmlns="http://www.w3.org/2000/svg">
<path d="M16 3C15.6561 3 15.3155 3.01334 14.9785 3.03952C14.7032 3.06091 14.4626 2.85506 14.4413 2.57975C14.4199 2.30444 14.6257 2.06391 14.901 2.04252C15.2637 2.01435 15.6302 2 16 2H16.0016C23.5017 2.00085 29.624 7.89941 29.9833 15.3107C29.9944 15.5391 30 15.7689 30 16C30 17.0116 29.8926 17.9986 29.6885 18.9502C29.6306 19.2202 29.3647 19.3921 29.0947 19.3342C28.8247 19.2762 28.6528 19.0104 28.7107 18.7404C28.9002 17.8574 29 16.9406 29 16C29 15.7418 28.9925 15.4855 28.9777 15.2312C28.765 11.5855 27.05 8.34317 24.4427 6.11432C24.3753 6.05668 24.3073 5.99972 24.2387 5.94345C22.0885 4.17983 19.3625 3.09229 16.3855 3.0056C16.2575 3.00188 16.129 3 16 3Z" fill="#1A1A1A"/>
<path d="M3.71591 10.3705C3.97099 10.4763 4.09203 10.7688 3.98625 11.0239C3.72768 11.6474 3.51626 12.2954 3.35643 12.9635C3.29218 13.232 3.02238 13.3977 2.75381 13.3334C2.48525 13.2691 2.31963 12.9993 2.38388 12.7308C2.55611 12.0109 2.78392 11.3127 3.06252 10.6408C3.1683 10.3858 3.46083 10.2647 3.71591 10.3705Z" fill="#1A1A1A"/>
<path d="M2.57975 14.4413C2.85506 14.4626 3.06091 14.7032 3.03952 14.9785C3.01334 15.3155 3 15.6561 3 16C3 16.1712 3.00331 16.3416 3.00986 16.5112C3.12324 19.4432 4.20765 22.1261 5.9506 24.2474C6.00454 24.3131 6.05912 24.3782 6.11432 24.4427C8.34332 27.0502 11.5859 28.7653 15.2319 28.9777C15.486 28.9925 15.7421 29 16 29C16.6239 29 17.2372 28.9561 17.8371 28.8713C18.1105 28.8326 18.3635 29.0229 18.4021 29.2963C18.4408 29.5698 18.2505 29.8228 17.9771 29.8614C17.3309 29.9528 16.6708 30 16 30C15.7336 30 15.4689 29.9926 15.206 29.9778C7.84344 29.5662 2 23.4655 2 16C2 15.6302 2.01435 15.2637 2.04252 14.901C2.06391 14.6257 2.30444 14.4199 2.57975 14.4413Z" fill="#1A1A1A"/>
<path d="M4 6.5H6.28571L7.28564 1L9.28564 9L10.7856 5H13.2856" stroke="black" stroke-width="0.7"/>
<g clip-path="url(#clip0_7388_11784)">
<path d="M21.75 24.0001L25.3994 22.1754C25.4627 22.1437 25.5373 22.1437 25.6006 22.1754L29.25 24.0001" stroke="black" stroke-width="0.8" stroke-linecap="round" stroke-linejoin="round"/>
<path d="M28.5 25.125V28.125C28.5 28.5392 28.1642 28.875 27.75 28.875H23.25C22.8358 28.875 22.5 28.5392 22.5 28.125V25.125" stroke="black" stroke-width="0.8" stroke-linecap="round" stroke-linejoin="round"/>
</g>
<path d="M20.9142 11.488C20.9142 11.2141 20.6903 10.992 20.4142 10.992H12.5001C12.224 10.992 12.0001 11.2141 12.0001 11.488V19.3337C12.0001 19.5146 12.0994 19.6812 12.2592 19.7683L16.255 21.9485C16.3183 21.9831 16.3873 22.003 16.4571 22.0084C16.527 22.003 16.596 21.9831 16.6593 21.9485L20.3174 20.0047L20.3189 20.0039C20.3506 19.9868 20.8746 19.7122 21.1123 20.1381C21.3492 20.5625 20.8563 20.8487 20.8229 20.8674L20.8212 20.8684L17.2284 22.8124C16.9893 22.9452 16.7225 23.0082 16.4571 23.0014C16.1918 23.0082 15.925 22.9452 15.6859 22.8124L11.7675 20.6372C11.2936 20.3741 11 19.8774 11 19.3386V15.5221L11.0001 15.5116V11.488C11.0001 10.6662 11.6717 10 12.5001 10H20.4142C21.2426 10 21.9142 10.6662 21.9142 11.488V13.7902C21.9142 13.7902 21.9142 14.2485 21.4142 14.2537C20.9142 14.259 20.9142 13.7902 20.9142 13.7902V11.488Z" fill="#0B0B0D"/>
<path d="M12.0004 11.488C12.0004 11.2141 12.2242 10.992 12.5004 10.992H20.4144C20.6906 10.992 20.9144 11.2141 20.9144 11.488V19.3337C20.9144 19.5146 20.8152 19.6812 20.6554 19.7683L16.6596 21.9485C16.5963 21.9831 16.5273 22.003 16.4574 22.0084C16.3875 22.003 16.3186 21.9831 16.2552 21.9485L12.5971 20.0047L12.5956 20.0039C12.5639 19.9868 12.04 19.7122 11.8023 20.1381C11.5654 20.5625 12.0583 20.8487 12.0916 20.8674L12.0934 20.8684L15.6861 22.8124C15.9253 22.9452 16.192 23.0082 16.4574 23.0014C16.7228 23.0082 16.9895 22.9452 17.2287 22.8124L21.1471 20.6372C21.621 20.3741 21.9146 19.8774 21.9146 19.3386V15.5221L21.9144 15.5116V11.488C21.9144 10.6662 21.2429 10 20.4144 10H12.5004C11.6719 10 11.0004 10.6662 11.0004 11.488V13.7902C11.0004 13.7902 11.0004 14.2485 11.5004 14.2537C12.0004 14.259 12.0004 13.7902 12.0004 13.7902V11.488Z" fill="#0B0B0D"/>
<defs>
<clipPath id="clip0_7388_11784">
<rect width="9" height="9" fill="white" transform="translate(21 21)"/>
</clipPath>
</defs>
</svg>
