<svg xmlns="http://www.w3.org/2000/svg" viewBox="0 0 16 16" fill="none" xmlns:v="https://vecta.io/nano"><g clip-path="url(#A)" stroke="currentColor" stroke-width="1.13" stroke-linejoin="round"><path d="M8 10a2 2 0 1 0 0-4 2 2 0 1 0 0 4z"/><path d="M12.485 9.818a1 1 0 0 0 .2 1.103l.036.036a1.21 1.21 0 0 1 .356.857 1.21 1.21 0 0 1-.356.858 1.21 1.21 0 0 1-.858.355 1.21 1.21 0 0 1-.857-.355l-.036-.036a1 1 0 0 0-1.103-.2 1 1 0 0 0-.606.915v.103a1.21 1.21 0 0 1-1.212 1.212 1.21 1.21 0 0 1-1.212-1.212V13.4a1 1 0 0 0-.655-.915 1 1 0 0 0-1.103.2l-.036.036a1.21 1.21 0 0 1-.858.356 1.21 1.21 0 0 1-.858-.356c-.113-.113-.202-.246-.263-.393a1.21 1.21 0 0 1 0-.928c.061-.147.15-.281.263-.393l.036-.036a1 1 0 0 0 .2-1.103 1 1 0 0 0-.915-.606h-.103a1.21 1.21 0 0 1-1.212-1.212 1.21 1.21 0 0 1 1.212-1.212H2.6a1 1 0 0 0 .915-.655 1 1 0 0 0-.2-1.103l-.036-.036a1.21 1.21 0 0 1-.356-.858 1.21 1.21 0 0 1 .356-.858 1.21 1.21 0 0 1 .858-.355 1.21 1.21 0 0 1 .858.355l.036.036a1 1 0 0 0 1.103.2h.048a1 1 0 0 0 .606-.915v-.103A1.21 1.21 0 0 1 8 1.333a1.21 1.21 0 0 1 1.212 1.212V2.6a1 1 0 0 0 .606.915 1 1 0 0 0 1.103-.2l.036-.036a1.21 1.21 0 0 1 .858-.356 1.21 1.21 0 0 1 .857.356 1.21 1.21 0 0 1 .355.858 1.21 1.21 0 0 1-.355.858l-.036.036a1 1 0 0 0-.2 1.103v.048a1 1 0 0 0 .915.606h.103A1.21 1.21 0 0 1 14.667 8a1.21 1.21 0 0 1-1.212 1.212H13.4a1 1 0 0 0-.915.606z"/></g><defs><clipPath id="A"><path fill="currentColor" d="M0 0h16v16H0z"/></clipPath></defs></svg>