<svg xmlns="http://www.w3.org/2000/svg" viewBox="-37.5 -15 384 128"><path fill="url(#a)" fill-rule="evenodd" d="m51.533 1.691 32.198 18.116h.04c3.96 2.217 6.431 6.382 6.431 10.854v30.703L67.42 49.275l4.77-7.92a2.833 2.833 0 0 0 2.725-4.967l-2.37-1.312-.004-.002L48.851 22l-2.341-1.33a2.833 2.833 0 0 0-2.966 4.823l-8.51 14.124a2.833 2.833 0 0 0 4.852 2.924l8.6-14.271 18.742 10.343-4.82 8.003-3.978-2.11a3.43 3.43 0 0 0-2.144-.99c-1.197-.225-2.47.317-3.102 1.419a3 3 0 0 0-.09.171 3.443 3.443 0 0 0 3.991 5.11l2.39 1.269-1.919 3.187v.002l-2.741 4.544-11.424-6.043a3.43 3.43 0 0 0-2.135-.984c-1.2-.227-2.475.317-3.107 1.422q-.046.081-.087.164a3.443 3.443 0 0 0 3.994 5.112l9.824 5.197-3.157 5.242c-1.426 2.36-3.787 4.112-6.592 4.833a11.35 11.35 0 0 1-8.296-1.048l-.005-.003a10.6 10.6 0 0 1-3.166-2.656 10.1 10.1 0 0 1-1.844-3.579 9.8 9.8 0 0 1-.271-3.96 9.9 9.9 0 0 1 1.334-3.769l3.664-6.088a2.833 2.833 0 1 0-4.854-2.922l-3.664 6.089a15.6 15.6 0 0 0-2.093 5.922 15.4 15.4 0 0 0 .428 6.254 15.7 15.7 0 0 0 2.877 5.595 16.3 16.3 0 0 0 4.85 4.074 17 17 0 0 0 12.45 1.578c4.2-1.078 7.816-3.722 10.032-7.391l.002-.003 3.321-5.515 12.421 6.57a2.955 2.955 0 0 0 3.92-1.137 2.73 2.73 0 0 0-1.1-3.793L59.83 61.871l2.577-4.273v-.002l2.08-3.452 25.685 13.629c-.284 4.143-2.655 7.899-6.403 10.011L51.534 95.9c-3.961 2.255-8.863 2.255-12.864 0L6.432 77.784C2.47 75.569 0 71.402 0 66.93V30.66c0-4.47 2.432-8.598 6.432-10.853L38.669 1.69c3.961-2.255 8.864-2.255 12.864 0" clip-rule="evenodd"/><path d="M117.706 40.796h-4.895l8.913-25.316h5.661l8.925 25.316h-4.895l-6.762-20.124h-.198zm.161-9.926h13.35v3.683h-13.35zm26.364-15.39v25.316h-4.587V15.48zm12.488 3.844V15.48h20.198v3.844h-7.825v21.472h-4.549V19.324zm29.546 21.842q-2.856 0-4.932-1.186-2.064-1.2-3.177-3.387-1.112-2.2-1.112-5.18 0-2.93 1.112-5.142 1.125-2.225 3.14-3.461 2.014-1.248 4.734-1.248 1.755 0 3.313.568a7.5 7.5 0 0 1 2.769 1.73q1.212 1.175 1.904 2.992.692 1.804.692 4.302v1.372h-15.563V29.51h11.274q-.013-1.286-.557-2.287a4.04 4.04 0 0 0-1.52-1.595q-.965-.58-2.25-.58-1.372 0-2.41.667a4.6 4.6 0 0 0-1.62 1.73 5 5 0 0 0-.581 2.337v2.633q0 1.656.606 2.843.606 1.174 1.694 1.805 1.088.618 2.546.618.976 0 1.768-.272.79-.285 1.372-.828.581-.544.877-1.348l4.178.47a6.5 6.5 0 0 1-1.508 2.892q-1.1 1.224-2.818 1.904-1.718.667-3.931.667M213.5 26.828l-4.079.445a3.3 3.3 0 0 0-.606-1.162q-.42-.544-1.137-.877-.717-.334-1.755-.334-1.397 0-2.349.606-.939.606-.927 1.57-.012.827.606 1.347.63.519 2.076.853l3.239.692q2.696.581 4.005 1.842 1.323 1.26 1.335 3.3-.012 1.793-1.051 3.165-1.025 1.36-2.855 2.126-1.83.767-4.203.767-3.486 0-5.612-1.46-2.126-1.47-2.534-4.09l4.364-.421q.296 1.286 1.26 1.94.965.657 2.51.656 1.594 0 2.559-.655.976-.655.976-1.62 0-.816-.63-1.347-.618-.531-1.929-.816l-3.238-.68q-2.732-.568-4.043-1.916-1.31-1.36-1.297-3.436-.013-1.755.951-3.041.977-1.298 2.707-2.003 1.744-.716 4.018-.716 3.337 0 5.253 1.421 1.929 1.423 2.386 3.844m13.579-5.018v3.46h-10.915v-3.46zm-8.22-4.55h4.475v17.826q0 .902.272 1.384.284.47.741.643.458.173 1.014.173.42 0 .766-.062.359-.06.544-.111l.754 3.498a10 10 0 0 1-1.026.272q-.655.15-1.607.173-1.681.05-3.028-.507a4.7 4.7 0 0 1-2.139-1.755q-.778-1.186-.766-2.967zM117.706 82.797h-4.895l8.913-25.316h5.661l8.925 25.316h-4.895l-6.762-20.125h-.198zm.161-9.926h13.35v3.683h-13.35zm33.681 1.94V63.81h4.475v18.987h-4.339V79.42h-.197q-.644 1.594-2.114 2.608-1.46 1.014-3.597 1.014-1.867 0-3.301-.828-1.422-.84-2.225-2.436-.803-1.606-.803-3.88v-12.09h4.474v11.397q0 1.805.989 2.868.99 1.063 2.596 1.063.99 0 1.916-.482.927-.483 1.521-1.434.605-.965.605-2.41m18.558-11.001v3.46h-10.915v-3.46zm-8.22-4.55h4.474v17.826q0 .902.272 1.384.285.47.742.643.458.173 1.014.173.42 0 .766-.062.358-.06.544-.111l.754 3.498a10 10 0 0 1-1.026.272q-.655.15-1.607.173-1.681.05-3.029-.507a4.7 4.7 0 0 1-2.138-1.755q-.779-1.187-.766-2.967zm20.04 23.908q-2.781 0-4.821-1.224t-3.164-3.424q-1.113-2.2-1.113-5.143t1.113-5.154q1.125-2.212 3.164-3.437t4.821-1.223 4.821 1.223 3.152 3.437q1.125 2.213 1.125 5.154 0 2.943-1.125 5.143-1.112 2.2-3.152 3.424t-4.821 1.224m.025-3.585q1.508 0 2.522-.828 1.013-.84 1.508-2.25.507-1.41.507-3.14 0-1.743-.507-3.152-.495-1.422-1.508-2.262-1.014-.84-2.522-.84-1.545 0-2.571.84-1.014.84-1.521 2.262-.494 1.41-.494 3.152 0 1.73.494 3.14.507 1.41 1.521 2.25 1.026.828 2.571.828m12.871 3.214V63.809h4.277v3.226h.223q.593-1.632 1.965-2.546 1.373-.928 3.276-.928 1.929 0 3.251.94 1.335.927 1.879 2.534h.198q.63-1.582 2.126-2.522 1.508-.952 3.572-.952 2.62 0 4.277 1.657 1.657 1.656 1.657 4.833v12.745h-4.487V70.743q0-1.768-.94-2.583-.94-.828-2.299-.828-1.62 0-2.534 1.013-.903 1.002-.903 2.609v11.842h-4.388V70.558q0-1.47-.89-2.349-.877-.877-2.299-.877-.965 0-1.755.494-.792.483-1.261 1.372-.47.878-.47 2.052v11.546zm36.704.383q-1.805 0-3.251-.643a5.3 5.3 0 0 1-2.274-1.928q-.83-1.274-.829-3.14 0-1.606.594-2.658.593-1.05 1.619-1.68a8.2 8.2 0 0 1 2.312-.953 19 19 0 0 1 2.682-.482q1.67-.172 2.707-.309 1.038-.148 1.508-.445.483-.309.482-.952v-.074q0-1.397-.828-2.163t-2.386-.766q-1.644 0-2.608.716-.951.717-1.285 1.694l-4.179-.593q.495-1.73 1.632-2.893 1.137-1.174 2.781-1.755 1.644-.594 3.635-.593 1.371 0 2.731.32a7.7 7.7 0 0 1 2.485 1.064q1.125.73 1.805 1.99.692 1.26.692 3.152v12.708h-4.302v-2.609h-.148a5.5 5.5 0 0 1-1.15 1.484q-.73.68-1.841 1.1-1.1.408-2.584.408m1.162-3.288q1.347 0 2.336-.532.99-.543 1.521-1.434.544-.89.544-1.94v-2.238q-.21.174-.717.322-.495.148-1.113.26-.618.11-1.224.197-.605.087-1.05.148a7.8 7.8 0 0 0-1.793.445q-.79.31-1.248.866-.458.543-.458 1.409 0 1.236.903 1.866.902.63 2.299.63m22.844-16.082v3.46h-10.915v-3.46zm-8.221-4.55h4.475v17.826q0 .902.272 1.384.285.47.742.643.458.173 1.014.173.42 0 .766-.062.358-.06.544-.111l.754 3.498a10 10 0 0 1-1.026.272q-.656.15-1.607.173-1.681.05-3.029-.507a4.7 4.7 0 0 1-2.138-1.755q-.779-1.187-.767-2.967zm11.963 23.537V63.809h4.475v18.987zm2.25-21.682a2.6 2.6 0 0 1-1.83-.705q-.766-.716-.766-1.718 0-1.014.766-1.718a2.6 2.6 0 0 1 1.83-.717q1.076 0 1.829.717.767.704.767 1.718 0 1.001-.767 1.718-.753.705-1.829.705m15.109 22.053q-2.783 0-4.821-1.224-2.04-1.224-3.165-3.424-1.113-2.2-1.112-5.143t1.112-5.154q1.125-2.212 3.165-3.437 2.038-1.224 4.821-1.223 2.781 0 4.82 1.223t3.153 3.437q1.124 2.213 1.124 5.154 0 2.943-1.124 5.143-1.113 2.2-3.153 3.424t-4.82 1.224m.024-3.585q1.508 0 2.522-.828 1.014-.84 1.508-2.25.507-1.41.507-3.14 0-1.743-.507-3.152-.495-1.422-1.508-2.262-1.014-.84-2.522-.84-1.545 0-2.571.84-1.014.84-1.52 2.262-.495 1.41-.495 3.152 0 1.73.495 3.14.507 1.41 1.52 2.25 1.026.828 2.571.828m17.346-7.911v11.125h-4.475V63.809h4.277v3.226h.223a5.43 5.43 0 0 1 2.089-2.534q1.446-.94 3.572-.94 1.966 0 3.425.841 1.47.84 2.274 2.435.816 1.594.803 3.87v12.089h-4.474V71.399q0-1.905-.989-2.98-.977-1.075-2.707-1.075-1.175 0-2.089.52a3.6 3.6 0 0 0-1.422 1.47q-.507.965-.507 2.337"/><defs><linearGradient id="a" x1="6.576" x2="95.284" y1="0" y2="88.588" gradientUnits="userSpaceOnUse"><stop stop-color="#FF99C9"/><stop offset=".5" stop-color="#926EF7"/><stop offset="1" stop-color="#6EEEF7"/></linearGradient></defs></svg>