<svg xmlns="http://www.w3.org/2000/svg" viewBox="0 0 16 16" fill="none" stroke="currentColor" xmlns:v="https://vecta.io/nano"><path d="M3.447 9.842c0 .538-.436.974-.974.974S1.5 10.38 1.5 9.842s.436-.974.974-.974h.974v.974zm1.737 0c0-.538.436-.974.974-.974s.974.436.974.974v3.684c0 .538-.436.974-.974.974s-.974-.436-.974-.974V9.842zm.974-6.395c-.538 0-.974-.436-.974-.974s.436-.974.974-.974.974.436.974.974v.974h-.974zm0 1.737c.538 0 .974.436.974.974s-.436.974-.974.974H2.474c-.538 0-.974-.436-.974-.974s.436-.974.974-.974h3.684zm6.395.974c0-.538.436-.974.974-.974s.974.436.974.974-.436.974-.974.974h-.974v-.974zm-1.737 0c0 .538-.436.974-.974.974s-.974-.436-.974-.974V2.474c0-.538.436-.974.974-.974s.974.436.974.974v3.684zm-.974 6.395c.538 0 .974.436.974.974s-.436.974-.974.974-.974-.436-.974-.974v-.974h.974zm0-1.737c-.538 0-.974-.436-.974-.974s.436-.974.974-.974h3.684c.538 0 .974.436.974.974s-.436.974-.974.974H9.842z"/></svg>