<svg xmlns="http://www.w3.org/2000/svg" viewBox="0 0 16 16" fill="none" xmlns:v="https://vecta.io/nano"><path d="M14.333 12L9.905 8m-3.81 0l-4.429 4m-.333-7.333l5.443 3.81c.441.309.661.463.901.523.212.053.433.053.645 0 .24-.06.46-.214.901-.523l5.443-3.81M4.533 13.333h6.933c1.12 0 1.68 0 2.108-.218a2 2 0 0 0 .874-.874c.218-.428.218-.988.218-2.108V5.867c0-1.12 0-1.68-.218-2.108a2 2 0 0 0-.874-.874c-.428-.218-.988-.218-2.108-.218H4.533c-1.12 0-1.68 0-2.108.218a2 2 0 0 0-.874.874c-.218.428-.218.988-.218 2.108v4.267c0 1.12 0 1.68.218 2.108a2 2 0 0 0 .874.874c.428.218.988.218 2.108.218z" stroke="currentColor" stroke-width="1.13" stroke-linecap="round" stroke-linejoin="round"/></svg>