<svg viewBox="0 0 16 16" xmlns="http://www.w3.org/2000/svg" fill="currentColor"><path d="M1.975 4.581a.5.5 0 0 1 .183-.183l5.51-3.18a.497.497 0 0 1 .5 0l5.795 3.362a.503.503 0 0 1 .248.432v6.1a.5.5 0 0 1-.249.432L8.427 14.75a.492.492 0 0 1-.501-.001l-5.77-3.358a.498.498 0 0 1-.248-.431V4.854a.492.492 0 0 1 .067-.273zm3.366-.868L3.404 4.831l4.814 2.785 1.94-1.123-4.817-2.78zm5.784 2.22l1.594-.922-4.802-2.785-1.578.91 4.657 2.689c.05.029.093.066.13.108zm-3.441 7.52l.034-4.975-4.812-2.783v4.976l4.778 2.782zm5.53-7.576L8.715 8.48l-.034 4.968 4.533-2.624V5.877z"/></svg>