<svg xmlns="http://www.w3.org/2000/svg" viewBox="0 0 16 16" fill="none" xmlns:v="https://vecta.io/nano"><g clip-path="url(#A)"><path d="M9.893 8.456l.007.002c1.001.252 2.02-.354 2.285-1.356.267-1.009-.325-2.051-1.332-2.324S8.81 5.11 8.538 6.119l-.045.151-.098-.027.043-.143.003-.012c.138-.521.466-.952.926-1.219a1.95 1.95 0 0 1 1.504-.199 1.98 1.98 0 0 1 1.21.938c.268.468.338 1.01.2 1.531s-.466.952-.926 1.219a1.95 1.95 0 0 1-1.504.199L6.107 7.544 6.1 7.542c-1.001-.252-2.02.354-2.285 1.356-.267 1.009.325 2.051 1.332 2.324s2.048-.335 2.317-1.347l.002-.006.06-.24.098.027-.065.259c-.139.52-.466.949-.925 1.217a1.95 1.95 0 0 1-1.504.2 1.98 1.98 0 0 1-1.21-.938c-.268-.468-.338-1.01-.2-1.531s.466-.952.926-1.219a1.95 1.95 0 0 1 1.504-.199l3.744 1.013zM8.417 6.527zm-.824 2.831zM14.9 5.763c.009-1.067-.561-2.055-1.49-2.581L9.523.981C8.618.469 7.509.473 6.608.993L2.607 3.303c-.901.52-1.459 1.478-1.468 2.518L1.1 10.288c-.009 1.067.561 2.055 1.49 2.581l3.888 2.201c.905.513 2.014.508 2.915-.012l4.001-2.309c.901-.52 1.459-1.478 1.468-2.518l.039-4.467z" stroke="currentColor"/></g><defs><clipPath id="A"><path fill="transparent" d="M0 0h16v16H0z"/></clipPath></defs></svg>