<svg xmlns="http://www.w3.org/2000/svg" viewBox="0 0 16 16" fill="none" xmlns:v="https://vecta.io/nano"><path fill-rule="evenodd" d="M2.395 7.895c0-3.372 2.733-6.105 6.105-6.105s6.105 2.733 6.105 6.105v6c0 .129-.079.245-.199.293s-.257.018-.346-.076l-3.591-3.796H8.763v1.368h-.632v-1.368H6.428l-3.485 3.793c-.088.096-.226.128-.347.081s-.201-.164-.201-.294v-6zm4.211 1.789h3.684V7.789c0-.319-.096-.804-.374-1.2-.266-.379-.711-.695-1.468-.695s-1.201.316-1.468.695c-.278.396-.374.881-.374 1.2v1.895zm4.316.19l3.053 3.227V7.895c0-3.023-2.451-5.474-5.474-5.474S3.026 4.872 3.026 7.895v5.19l2.947-3.207V7.789c0-.417.12-1.038.489-1.563.381-.542 1.015-.963 1.985-.963s1.604.421 1.985.963c.369.525.489 1.146.489 1.563v2.085zm-2.79 4.02v-1.158h.632v1.158h-.632z" fill="currentColor" stroke="currentColor" stroke-width=".4" stroke-linejoin="round"/></svg>