<svg xmlns="http://www.w3.org/2000/svg" width="32" height="32" fill="none"><path fill="url(#a)" d="M11.573 12.119c-.389-.418-1.008-.389-1.267.144L3.871 25.118a.763.763 0 0 0 .691 1.108h8.954a.75.75 0 0 0 .691-.432c1.93-3.987.763-10.062-2.634-13.675"/><path fill="#2681FF" d="M16.294.416c-3.598 5.7-3.354 12.02-.993 16.756s4.19 8.378 4.319 8.637c.13.259.403.432.69.432h8.955c.575 0 .95-.605.69-1.109L17.606.416c-.274-.547-.965-.562-1.31 0"/><g fill="#0052CC"><path d="M17.835 30.933c0-.619-.331-.907-1.238-1.094-.504-.115-.634-.23-.634-.388 0-.202.188-.288.519-.288.403 0 .806.13 1.18.288v-.806a2.7 2.7 0 0 0-1.152-.245c-.907 0-1.382.389-1.382 1.036 0 .518.245.922 1.18 1.109.562.115.677.201.677.388 0 .188-.115.303-.518.303-.46 0-1.007-.159-1.353-.375v.85c.288.144.662.288 1.353.288.98.028 1.368-.418 1.368-1.066M27.739 28.472v3.498h.748v-2.678l.317.72 1.05 1.958h.936v-3.498h-.748v2.26l-.274-.662-.849-1.598zM22.988 28.472h-.82v3.498h.82zM21.232 30.933c0-.619-.331-.907-1.238-1.094-.504-.115-.633-.23-.633-.388 0-.202.187-.288.518-.288.403 0 .806.13 1.18.288v-.806a2.7 2.7 0 0 0-1.151-.245c-.907 0-1.382.389-1.382 1.036 0 .518.244.922 1.18 1.109.561.115.677.201.677.388 0 .188-.116.303-.519.303-.46 0-1.007-.159-1.353-.375v.85c.288.144.663.288 1.353.288.98.028 1.368-.418 1.368-1.066M8.795 28.472v3.498h1.684l.259-.763H9.615v-2.735zM5.484 28.472v.748h.907v2.75h.82v-2.75h.979v-.748z"/></g><path fill="#0052CC" d="M4.303 28.472h-1.08L2 31.97h.936l.172-.59c.202.057.432.1.648.1.23 0 .446-.029.648-.1l.173.59h.935zm-.547 2.274c-.158 0-.302-.029-.446-.058l.446-1.525.446 1.525c-.143.03-.287.058-.446.058M13.372 28.472h-1.08L11.07 31.97h.936l.172-.59c.202.057.432.1.648.1.23 0 .446-.028.648-.1l.173.59h.935zm-.547 2.274c-.158 0-.302-.028-.446-.057l.446-1.526.446 1.526a2.2 2.2 0 0 1-.446.057M25.925 28.472h-1.08l-1.223 3.498h.935l.173-.59c.201.057.432.1.648.1.23 0 .446-.028.648-.1l.172.59h.936zm-.533 2.274c-.158 0-.302-.028-.446-.057l.446-1.526.446 1.526c-.144.029-.288.057-.446.057"/><defs><linearGradient id="a" x1="15.102" x2="8.311" y1="14.098" y2="25.86" gradientUnits="userSpaceOnUse"><stop stop-color="#0052CC"/><stop offset=".923" stop-color="#2684FF"/></linearGradient></defs></svg>