<svg xmlns="http://www.w3.org/2000/svg" viewBox="0 0 16 16" fill="none"><path fill="currentColor" d="M13.74 4.5c-.516-.944-1.695-1.335-3.173-1.195C9.942 1.883 9.03 1 8 1c-1.031 0-1.942.883-2.566 2.305-1.479-.14-2.658.252-3.173 1.195-.474.868-.297 2.046.498 3.32.038.06.078.12.118.18-.04.06-.08.12-.118.18-.795 1.273-.973 2.452-.499 3.32.448.82 1.397 1.223 2.608 1.223.183 0 .372-.01.566-.028C6.058 14.118 6.969 15 8 15s1.942-.882 2.566-2.305c.194.019.383.028.566.028 1.21 0 2.16-.404 2.607-1.224.474-.867.297-2.046-.498-3.32a7.04 7.04 0 0 0-.118-.18c.04-.06.08-.12.118-.18.796-1.272.973-2.451.499-3.319ZM8 1.506c.787 0 1.513.72 2.05 1.867A9.54 9.54 0 0 0 8 3.982a9.58 9.58 0 0 0-2.05-.609C6.488 2.225 7.214 1.506 8 1.506ZM10.954 8c0 .582-.037 1.162-.113 1.739A12.226 12.226 0 0 1 8 11.466a12.231 12.231 0 0 1-2.84-1.728 13.353 13.353 0 0 1 0-3.477A12.246 12.246 0 0 1 8 4.534c.508.218 1.002.473 1.477.764.475.289.93.61 1.364.963.076.577.113 1.157.113 1.739Zm.424-1.272c.42.385.805.81 1.15 1.272-.345.461-.73.887-1.15 1.272a14.775 14.775 0 0 0 0-2.544Zm-.653 3.73a10.044 10.044 0 0 1-.466 1.674 8.748 8.748 0 0 1-1.605-.409 13.037 13.037 0 0 0 2.071-1.266Zm-3.379 1.264a8.692 8.692 0 0 1-1.605.41 10.038 10.038 0 0 1-.466-1.674 12.878 12.878 0 0 0 2.071 1.264Zm-2.724-2.45A9.237 9.237 0 0 1 3.472 8c.345-.461.73-.887 1.15-1.272a14.533 14.533 0 0 0 0 2.544Zm1.66-4.413a13.06 13.06 0 0 0-1.008.683c.107-.572.263-1.132.466-1.673a8.718 8.718 0 0 1 1.607.408c-.353.173-.709.367-1.064.583Zm3.434 0c-.355-.217-.71-.41-1.064-.582a8.697 8.697 0 0 1 1.606-.408c.204.541.36 1.101.467 1.673-.32-.24-.657-.468-1.008-.682h-.001ZM3.159 7.541c-.691-1.105-.862-2.096-.484-2.788.351-.642 1.148-.955 2.175-.955.124 0 .251.006.38.015a11.031 11.031 0 0 0-.525 2.18c-.56.468-1.071.998-1.524 1.581a.431.431 0 0 1-.022-.033Zm-.484 3.706c-.378-.693-.208-1.684.484-2.788l.021-.033.001-.001c.453.584.964 1.114 1.524 1.582.101.745.278 1.476.526 2.181-1.209.084-2.162-.221-2.556-.941ZM8 14.494c-.787 0-1.513-.72-2.05-1.867a9.578 9.578 0 0 0 2.05-.61c.66.28 1.347.484 2.05.61-.537 1.148-1.263 1.867-2.05 1.867Zm4.84-6.035c.691 1.105.863 2.096.484 2.788-.393.72-1.346 1.024-2.555.94.249-.704.425-1.435.526-2.18.56-.468 1.07-.998 1.524-1.582l.022.034Zm-1.545-2.466a11.03 11.03 0 0 0-.526-2.18c.13-.01.257-.016.38-.016 1.028 0 1.825.313 2.176.955.378.693.207 1.684-.484 2.788l-.022.034a10.226 10.226 0 0 0-1.524-1.58ZM8 7.026a.922.922 0 0 0-.852.602c-.142.363-.063.782.2 1.06a.886.886 0 0 0 1.004.211.975.975 0 0 0 .57-.899c0-.538-.413-.973-.922-.974Zm0 1.442a.444.444 0 0 1-.41-.289.488.488 0 0 1 .097-.51.427.427 0 0 1 .483-.101.47.47 0 0 1 .273.432.457.457 0 0 1-.443.468Z"/></svg>