<svg xmlns="http://www.w3.org/2000/svg" width="25" height="25" fill="none" viewBox="0 0 25 25">
  <path fill="#fff" d="M12.695 17.385v-2.463c-1.114-.526-1.814-1.62-1.8-2.814L8.6 10.783a6.172 6.172 0 0 0 .854 3.828 6.55 6.55 0 0 0 3.241 2.774Z"/>
  <path fill="#fff" d="M12.695 20.76v-2.858c-1.555-.583-2.78-1.61-3.643-3.05a6.616 6.616 0 0 1-.892-4.324l-2.131-1.23c-1.224 4.717 1.62 9.607 6.666 11.462Zm.525-2.885v2.884c4.953-1.9 7.872-6.883 6.703-11.445l-2.117 1.234c.273 1.591.014 3.11-.75 4.398-.764 1.289-2.09 2.3-3.836 2.929Z"/>
  <path fill="#fff" d="M13.22 14.918v2.47c1.558-.594 2.744-1.519 3.434-2.681.677-1.142.924-2.49.718-3.907l-2.294 1.322c-.011 1.133-.685 2.147-1.858 2.796Zm2.16-7.023a5.227 5.227 0 0 1 2.28 2.165l2.062-1.19a1.094 1.094 0 0 1-.039-.058c-.81-1.312-1.881-2.298-3.182-2.933-3.62-1.765-8.113-.45-10.278 2.991l2.069 1.194c1.55-2.407 4.645-3.36 7.089-2.17Z"/>
  <path fill="#fff" d="M13.03 10.513a2.187 2.187 0 0 1 1.906 1.122l2.319-1.34a4.764 4.764 0 0 0-2.08-1.979c-2.225-1.085-5.05-.213-6.477 1.983l2.309 1.333c.48-.716 1.249-1.12 2.023-1.12Zm.332 13.775 9.362-5.456a.095.095 0 0 0 .047-.082V7.82a.095.095 0 0 0-.142-.082l-2.286 1.331c1.334 4.9-1.78 10.23-7.123 12.19v2.947c0 .073.08.119.142.082ZM5.608 9.055l-2.29-1.322a.095.095 0 0 0-.142.081V18.74c0 .038.02.073.053.092l9.324 5.455a.095.095 0 0 0 .142-.081v-2.947c-5.354-1.884-8.453-7.222-7.087-12.204Z"/>
  <path fill="#fff" d="M16.706 5.458c1.382.674 2.518 1.72 3.376 3.107.013.022.03.045.048.07l2.265-1.308a.095.095 0 0 0 0-.164l-9.26-5.347a.322.322 0 0 0-.322 0L3.55 7.164a.095.095 0 0 0 0 .164l2.266 1.308c2.287-3.652 7.051-5.05 10.89-3.178ZM14.595 12.2c0-.002.004-.093-.003-.24-.02-.06-.245-.5-.808-.807-.385-.21-.88-.234-1.356-.067a2.02 2.02 0 0 0-1.091.898 1.85 1.85 0 0 0-.004.216c.03.761.501 1.796 1.461 2.27l.148.07.128-.069c.933-.522 1.489-1.35 1.525-2.27Z"/>
</svg>
