<svg viewBox="0 0 60 55" fill="currentColor" xmlns="http://www.w3.org/2000/svg"><path d="m17.567 19.868-11.685 8.18c-.66.241-1.747 1.261-.822 3.408 1.156 2.683 7.741 15.622 10.17 18.011 2.43 2.39 3.313.451 6.427 0 3.114-.45 8.866-4.504 11.686-6.228l.062-.037c2.8-1.712 5.65-3.453 5.357-4.717-.294-1.273-6.878-13.254-7.172-14.527-.294-1.273-3.708-4.727-5.843-5.843-1.707-.893-6.247 1.217-8.18 1.753Z" fill="#01C9CC"/><path fill-rule="evenodd" clip-rule="evenodd" d="M25.561 17.912c2.208.473 3.776 1.892 4.71 3.447l.002.004.04.066.123.206c.108.18.266.443.465.778.4.67.966 1.628 1.636 2.779 1.34 2.3 3.096 5.373 4.757 8.458 1.625 3.017 1.526 5.088.902 6.44a4.12 4.12 0 0 1-1.07 1.416 3.67 3.67 0 0 1-.58.404 1.718 1.718 0 0 1-.039.02l-.016.01-.098.058-.365.216c-.312.183-.752.44-1.265.733a76.7 76.7 0 0 1-3.53 1.913.506.506 0 0 1-.453-.905 75.671 75.671 0 0 0 3.48-1.886 115.734 115.734 0 0 0 1.616-.94l.096-.057.032-.02a.502.502 0 0 1 .045-.024m0 0 .017-.009c.018-.01.048-.026.087-.05a2.66 2.66 0 0 0 .318-.234 3.11 3.11 0 0 0 .806-1.068c.454-.984.648-2.711-.873-5.537a298.091 298.091 0 0 0-4.74-8.429 344.752 344.752 0 0 0-2.095-3.546l-.122-.204-.042-.068v-.001l-.001-.002c-.82-1.366-2.173-2.576-4.055-2.979-1.879-.403-4.373-.02-7.51 1.977a.506.506 0 0 1-.543-.853c3.29-2.094 6.055-2.587 8.265-2.113M36.05 41.028a.02.02 0 0 1-.003.001h.003Z" fill="#0B0B0D"/><path fill-rule="evenodd" clip-rule="evenodd" d="M12.189 37.77a.506.506 0 0 1 .191-.69l4.354-2.46a.506.506 0 0 1 .498.88l-4.354 2.46a.506.506 0 0 1-.69-.19Zm7.116-3.985a.506.506 0 0 1 .198-.688c1.97-1.088 3.831-2.11 5.417-2.978a.506.506 0 1 1 .486.887c-1.586.869-3.446 1.889-5.414 2.977a.506.506 0 0 1-.688-.198Zm9.505-5.218a.506.506 0 0 1 .2-.687l3.504-1.927h.001a.506.506 0 0 1 .489.885c-1.136.627-2.308 1.271-3.507 1.928a.506.506 0 0 1-.687-.2Z" fill="#0B0B0D"/><path d="M20.334 45.803 23 44.34l-3.555-6.338-4.444 2.926c.296.325 1.155 1.462 2.222 3.412 1.066 1.95 2.518 1.788 3.11 1.463Zm8.264-4.664-2.73 1.948-3.87-6.578 4.992-3.013c.138.45.716 1.85 1.922 3.848 1.205 1.996.293 3.361-.314 3.794ZM10.947 30.434l2.568-1.637 3.234 6.151-4.672 2.495c-.107-.415-.571-1.713-1.58-3.582-1.01-1.869-.121-3.063.45-3.427Z" fill="#2069AB"/><path fill-rule="evenodd" clip-rule="evenodd" d="M14.205 40.79a.506.506 0 0 1 .192-.688 630.49 630.49 0 0 1 4.093-2.293.506.506 0 0 1 .493.883l-.001.001-4.087 2.29h-.002a.506.506 0 0 1-.688-.192Zm7.01-3.911a.506.506 0 0 1 .198-.687c1.963-1.082 3.687-2.028 5.26-2.889a.506.506 0 0 1 .486.887c-1.572.861-3.295 1.806-5.257 2.888a.506.506 0 0 1-.688-.2Zm2.921-15.013a.506.506 0 0 1 .198-.687l.735-.406c1.023-.566 1.98-1.095 2.772-1.531a.506.506 0 1 1 .487.886c-.79.435-1.745.963-2.768 1.529l-.736.407a.506.506 0 0 1-.688-.198Zm2.337 3.506a.506.506 0 0 1 .198-.688l.734-.405c1.024-.567 1.98-1.096 2.773-1.531a.506.506 0 0 1 .488.886c-.791.435-1.746.963-2.77 1.529l-.735.407a.506.506 0 0 1-.688-.198Zm4.09 6.366a.506.506 0 0 1 .198-.687l.001-.001.734-.406a1563.966 1563.966 0 0 1 2.772-1.53.506.506 0 0 1 .488.886l-3.504 1.935h-.001v.001a.506.506 0 0 1-.688-.198Zm1.753 3.166a.506.506 0 0 1 .198-.688l.735-.406c1.023-.566 1.98-1.095 2.772-1.53a.506.506 0 0 1 .487.886c-.79.435-1.746.963-2.77 1.53l-.734.406a.506.506 0 0 1-.688-.198Zm1.753 3.912a.506.506 0 0 1 .198-.688l.735-.406c1.023-.566 1.98-1.095 2.772-1.53a.506.506 0 0 1 .487.886l-2.77 1.529-.734.407a.506.506 0 0 1-.688-.198Z" fill="#0B0B0D"/><path fill-rule="evenodd" clip-rule="evenodd" d="M13.204 28.791a.506.506 0 0 1 .699.152 76.503 76.503 0 0 1 1.748 2.886l.183.313c.497.853 1.002 1.719 1.58 2.651a.506.506 0 0 1-.861.533 111.77 111.77 0 0 1-1.593-2.675l-.183-.312a75.817 75.817 0 0 0-1.725-2.849.506.506 0 0 1 .152-.699Zm5.467 9.08a.506.506 0 0 1 .692.178l3.596 6.102a.506.506 0 0 1-.871.514l-3.596-6.102a.506.506 0 0 1 .179-.693Zm-3.13-10.833a.506.506 0 0 1 .7.152 421.398 421.398 0 0 1 3.685 5.85.506.506 0 1 1-.86.533 420.89 420.89 0 0 0-3.677-5.836.506.506 0 0 1 .152-.699Zm5.853 9.35a.506.506 0 0 1 .695.167c.569.93 1.263 1.998 1.964 3.078l.006.01c.702 1.08 1.41 2.17 1.996 3.129a.506.506 0 1 1-.863.528 143.534 143.534 0 0 0-1.981-3.106l-.011-.018a144.037 144.037 0 0 1-1.974-3.093.506.506 0 0 1 .168-.696Z" fill="#0B0B0D"/><path fill-rule="evenodd" clip-rule="evenodd" d="M21.709 19.25c1.721.395 3.174 1.7 4.472 3.864a281.59 281.59 0 0 1 5.918 10.294l1.102 1.99c1.145 2.06 1.767 3.838 1.481 5.444-.291 1.64-1.495 2.947-3.593 4.146a426.984 426.984 0 0 0-2.864 1.654c-2.226 1.294-3.777 2.195-6.341 3.477-2.597 1.298-4.499 1.152-5.94.274-1.338-.815-2.19-2.218-2.835-3.28l-.064-.105-.143-.236-.415-.682a1071.225 1071.225 0 0 0-7.033-11.346c-.978-1.555-1.343-3.29-1.031-4.894.313-1.61 1.304-3.047 2.96-3.994a211.288 211.288 0 0 0 6.52-3.889 230.89 230.89 0 0 1 2.236-1.364c2.008-1.205 3.853-1.748 5.57-1.354Zm-.227.985c-1.345-.309-2.91.087-4.823 1.235-.716.43-1.435.873-2.208 1.349a215.69 215.69 0 0 1-6.565 3.915c-1.41.806-2.215 1.998-2.47 3.31-.257 1.318.035 2.796.894 4.162a1069.56 1069.56 0 0 1 7.456 12.04l.143.236.018.029c.678 1.115 1.419 2.333 2.543 3.018 1.072.653 2.592.87 4.961-.315 2.535-1.267 4.052-2.149 6.266-3.436.834-.484 1.767-1.027 2.89-1.669 1.992-1.138 2.885-2.239 3.1-3.444.22-1.24-.243-2.746-1.37-4.776-.394-.708-.756-1.364-1.104-1.994a280.586 280.586 0 0 0-5.9-10.26c-1.23-2.052-2.491-3.092-3.83-3.4Z" fill="#0B0B0D"/><path d="m19 25.206-3 1.5 4 6.5 5-3c-.333-.334-1.3-1.5-2.5-3.5s-2.833-1.834-3.5-1.5Z" fill="#2069AB"/><path fill-rule="evenodd" clip-rule="evenodd" d="M20.488 24.631c.968.083 1.797.67 2.506 1.773a375.8 375.8 0 0 1 2.502 3.957.506.506 0 0 1-.858.536c-.886-1.42-1.766-2.81-2.495-3.945-.604-.939-1.187-1.266-1.741-1.313-.594-.05-1.295.204-2.152.737-.549.341-1.308.803-2.174 1.324a.506.506 0 0 1-.522-.866c.865-.521 1.62-.98 2.162-1.317.906-.564 1.842-.965 2.772-.886Zm-6.786 3.9a.506.506 0 0 1-.175.694l-1.988 1.18c-.785.466-1.036 1.03-1.06 1.577-.025.586.21 1.217.53 1.751.678 1.118 1.407 2.326 2.12 3.508a.506.506 0 1 1-.866.522c-.713-1.182-1.442-2.39-2.12-3.507l-.001-.002c-.373-.621-.71-1.453-.673-2.316.04-.902.488-1.77 1.555-2.403.648-.384 1.32-.783 1.985-1.18a.506.506 0 0 1 .693.177Zm12.951 4.665a.506.506 0 0 1 .695.17c.972 1.596 1.814 3.022 2.283 3.897.562 1.049.914 1.974.586 2.881-.161.446-.469.837-.889 1.21-.418.37-.973.746-1.665 1.156-.672.398-1.234.734-1.732 1.032l-.067.04a.506.506 0 0 1-.518-.87l.065-.038c.5-.298 1.063-.635 1.736-1.034.672-.398 1.163-.735 1.51-1.043.346-.308.525-.565.609-.797.162-.448.04-1.001-.527-2.06-.454-.847-1.283-2.252-2.255-3.849a.506.506 0 0 1 .17-.695ZM14.3 40.164a.506.506 0 0 1 .694.173c.642 1.068 1.2 1.995 1.596 2.656l.633 1.053v.002a.551.551 0 0 1 .019.033c.275.55.729 1.089 1.317 1.37.562.268 1.307.33 2.264-.167.56-.29 1.095-.58 1.625-.878a.506.506 0 0 1 .495.883c-.539.302-1.084.597-1.654.893-1.214.63-2.293.598-3.166.181-.84-.4-1.431-1.129-1.777-1.811l-.623-1.038-1.596-2.656a.506.506 0 0 1 .173-.694Z" fill="#0B0B0D"/><path fill-rule="evenodd" clip-rule="evenodd" d="M42.586.176C46.86.02 51.373.544 55.456 2.72c1.161.62 2.46 1.627 3.323 3 .873 1.39 1.293 3.144.683 5.192-1.272 4.27-5.552 7.048-9.964 8.32-2.22.642-4.517.915-6.558.8-1.881-.104-3.596-.542-4.831-1.374-4.168 2.532-7.382 5.604-8.988 7.139-.352.336-.626.599-.817.765a2.92 2.92 0 0 1-.196.16.809.809 0 0 1-.108.07.621.621 0 0 1-.203.073.524.524 0 0 1-.52-.224.535.535 0 0 1-.083-.388.992.992 0 0 1 .094-.271c.13-.268.463-.797.983-1.605l.676-1.047c1.08-1.67 2.709-4.187 4.968-7.797-1.767-.76-3.528-2.195-4.46-3.984-.523-1.002-.792-2.129-.636-3.31.155-1.184.73-2.379 1.823-3.525C34.072 1.112 38.529.325 42.586.176ZM54.98 3.612c-3.868-2.06-8.182-2.578-12.357-2.425-3.973.146-8.096.913-11.249 4.223-.968 1.017-1.43 2.021-1.553 2.96-.123.94.086 1.858.53 2.71.897 1.721 2.73 3.119 4.482 3.724a.506.506 0 0 1 .264.746 567.713 567.713 0 0 1-5.123 8.055c1.856-1.699 4.607-4.027 7.9-5.988a.506.506 0 0 1 .57.035c1.02.789 2.623 1.262 4.552 1.37 1.917.107 4.1-.15 6.222-.762 4.275-1.233 8.147-3.853 9.274-7.638.518-1.738.166-3.194-.57-4.364-.745-1.186-1.89-2.085-2.942-2.646Z" fill="#FAFCFF"/><path d="M39.378 10.004a2.337 2.337 0 1 1-4.674 0 2.337 2.337 0 0 1 4.674 0Z" fill="#01C9CC"/><path fill-rule="evenodd" clip-rule="evenodd" d="M37.041 11.33a1.326 1.326 0 1 0 0-2.651 1.326 1.326 0 0 0 0 2.65Zm0 1.011a2.337 2.337 0 1 0 0-4.674 2.337 2.337 0 0 0 0 4.674Z" fill="#FAFCFF"/><path d="M52.233 10.004a2.337 2.337 0 1 1-4.675 0 2.337 2.337 0 0 1 4.675 0Z" fill="#01C9CC"/><path fill-rule="evenodd" clip-rule="evenodd" d="M49.895 11.33a1.326 1.326 0 1 0 0-2.652 1.326 1.326 0 0 0 0 2.652Zm0 1.011a2.337 2.337 0 1 0 0-4.674 2.337 2.337 0 0 0 0 4.674ZM48.59 3.34a.506.506 0 0 1-.21.684l-9.934 5.259-.473-.894 9.933-5.259a.506.506 0 0 1 .684.21Z" fill="#FAFCFF"/></svg>