<svg xmlns="http://www.w3.org/2000/svg" fill="none" viewBox="0 0 24 24"><g clip-path="url(#a)"><path fill="#c925d1" d="M24 0H0v24h24z"/><path fill="#fff" fill-rule="evenodd" d="M15.3 18.467V16.71c-.76.491-2.129.723-3.433.723-1.422 0-2.53-.248-3.167-.674v1.707c0 .508 1.185 1.033 3.167 1.033 2.023 0 3.433-.545 3.433-1.033m-3.433-3.7c-1.422 0-2.53-.249-3.167-.674v1.713c.01.506 1.192 1.028 3.167 1.028 2.017 0 3.424-.541 3.433-1.03v-1.761c-.76.492-2.129.723-3.433.723m3.433-1.63V11.11c-.76.49-2.129.723-3.433.723-1.422 0-2.53-.248-3.167-.673v1.98c.01.506 1.192 1.027 3.167 1.027 2.017 0 3.424-.541 3.433-1.029m-6.6-2.94v.007c.01.506 1.192 1.028 3.167 1.028 2.202 0 3.424-.607 3.433-1.029v-.002l.001-.003c0-.423-1.223-1.034-3.434-1.034-1.983 0-3.168.526-3.168 1.034m7.2.008v2.927h.001v5.335c0 1.122-2.092 1.633-4.034 1.633-2.288 0-3.767-.641-3.767-1.633v-8.27c0-.992 1.478-1.633 3.767-1.633 1.943 0 4.034.511 4.034 1.634zm4.2-3.869a.3.3 0 0 0 .3-.3V4.5a.3.3 0 0 0-.3-.3H3.9a.3.3 0 0 0-.3.3v1.536a.3.3 0 0 0 .3.3c.366 0 .664.296.664.66s-.298.66-.664.66a.3.3 0 0 0-.3.3v6.145a.3.3 0 0 0 .3.3h3v-.6H5.4v-.9h1.5v-.6H5.1a.3.3 0 0 0-.3.3v1.2h-.6V8.22c.553-.135.964-.633.964-1.225s-.411-1.09-.964-1.224V4.8h15.6v.972a1.26 1.26 0 0 0-.964 1.224c0 .592.411 1.09.964 1.224v5.58h-.6v-1.2a.3.3 0 0 0-.3-.3h-1.8v.6h1.5v.9h-1.5v.601h3a.3.3 0 0 0 .3-.3V7.956a.3.3 0 0 0-.3-.3.663.663 0 0 1-.664-.66c0-.364.298-.66.664-.66M8.4 8.4V6a.3.3 0 0 0-.3-.3H6.3A.3.3 0 0 0 6 6v5.1a.3.3 0 0 0 .3.3h.9v-.6h-.6V6.3h1.2v2.1zm9 2.4h-.3v.6h.6a.3.3 0 0 0 .3-.3V6a.3.3 0 0 0-.3-.3h-1.8a.3.3 0 0 0-.3.3v2.4h.6V6.3h1.2zM15 8.1V6a.3.3 0 0 0-.3-.3h-2.1a.3.3 0 0 0-.3.3v1.8h.6V6.3h1.5v1.8zm-3.9-.3V6.3H9.6v1.8H9V6a.3.3 0 0 1 .3-.3h2.1a.3.3 0 0 1 .3.3v1.8z" clip-rule="evenodd"/></g><defs><clipPath id="a"><rect width="24" height="24" fill="#fff" rx="2"/></clipPath></defs></svg>