<svg viewBox="0 0 32 33" xmlns="http://www.w3.org/2000/svg"><path fill-rule="evenodd" clip-rule="evenodd" d="M6.176 2.723a.498.498 0 0 1 .682-.182l4.758 2.758a.502.502 0 0 1 .184.684.498.498 0 0 1-.682.183L6.359 3.408a.502.502 0 0 1-.183-.685zM3.296 5.3a.498.498 0 0 0-.681.183.502.502 0 0 0 .183.684l4.758 2.759a.498.498 0 0 0 .682-.183.502.502 0 0 0-.183-.684L3.297 5.299zm13.626.552a.5.5 0 0 0-.502 0L9.404 9.915a.5.5 0 0 0-.249.433v7.833a.5.5 0 0 0 .248.432l7.345 4.292a.5.5 0 0 0 .503 0l7.047-4.096a.5.5 0 0 0 .25-.432V10.58a.5.5 0 0 0-.25-.432l-7.376-4.297zm-6.767 12.044v-6.678l6.397 3.714-.046 6.675-6.35-3.71zm7.351 3.707.046-6.668 5.995-3.485v6.641l-6.04 3.512zm-.452-7.535 5.999-3.487L16.67 6.86 10.65 10.35l6.403 3.718zM3.297 11.42a.498.498 0 0 0-.682.182.502.502 0 0 0 .183.685l4.758 2.758a.498.498 0 0 0 .682-.182.502.502 0 0 0-.183-.685L3.297 11.42z" fill="#0278D5"/><path fill-rule="evenodd" clip-rule="evenodd" d="M22.817 20.79a.495.495 0 0 1 .35-.145h3.379c.192 0 .366.11.448.285l3.752 7.972h.758c.274 0 .496.223.496.498v2.246a.5.5 0 0 1-.496.499h-2.679a.496.496 0 0 1-.447-.284l-3.735-7.86h-1.475a.497.497 0 0 1-.496-.499v-2.359a.5.5 0 0 1 .145-.352zm.846.851v1.363h1.293c.19 0 .365.11.447.283l3.735 7.861h1.87v-1.25h-.576a.496.496 0 0 1-.448-.285l-3.752-7.972h-2.569zm.203 3.966a.496.496 0 0 1 .457.282l1.427 2.981a.5.5 0 0 1 .017.394l-.971 2.56a.496.496 0 0 1-.464.32h-2.836a.5.5 0 0 1-.455-.696l2.38-5.54a.496.496 0 0 1 .445-.301zm.035 1.699-1.651 3.842h1.74l.774-2.04-.863-1.802z" fill="url(#a)"/><defs><linearGradient id="a" x1="22.428" y1="21.222" x2="31.634" y2="32.391" gradientUnits="userSpaceOnUse"><stop stop-color="#CA541A"/><stop offset="1" stop-color="#FC9502"/></linearGradient></defs></svg>