<svg xmlns="http://www.w3.org/2000/svg" width="24" height="25" fill="none" viewBox="0 0 24 25">
  <path fill="#fff" fill-rule="evenodd" d="M13.588 13.504c0 .068-.027 1.51-1.193 1.787V10.94l1.193.516v2.048Zm-3.177-.006v-2.042l1.193-.516v4.352c-1.136-.265-1.192-1.624-1.193-1.794Zm3.73-2.665-1.984-.859a.396.396 0 0 0-.315 0l-1.984.859a.396.396 0 0 0-.238.363v2.302c0 .914.498 2.642 2.38 2.642s2.38-1.725 2.38-2.636v-2.308c0-.157-.094-.3-.239-.363Zm5.269 7.75a1.268 1.268 0 0 1 0-2.535 1.268 1.268 0 0 1 0 2.534Zm-7.372-1.663a3.948 3.948 0 0 1-3.944-3.944 3.948 3.948 0 0 1 3.944-3.944 3.949 3.949 0 0 1 3.944 3.944 3.948 3.948 0 0 1-3.944 3.943Zm1.229 4.794A1.27 1.27 0 0 1 12 22.981a1.268 1.268 0 0 1 0-2.534c.698 0 1.267.568 1.267 1.267ZM10.733 4.143c0-.698.568-1.267 1.267-1.267a1.27 1.27 0 0 1 1.267 1.267 1.268 1.268 0 0 1-2.533 0ZM4.54 18.103a1.268 1.268 0 0 1 0-2.534 1.268 1.268 0 0 1 0 2.534Zm.323-8.412a1.268 1.268 0 0 1 0-2.534c.698 0 1.267.568 1.267 1.267S5.559 9.69 4.862 9.69ZM19.46 6.955a1.268 1.268 0 1 1 0 2.535 1.268 1.268 0 0 1 0-2.535Zm-.05 8.302c-.569 0-1.085.232-1.457.607l-1.559-1.033a4.704 4.704 0 0 0-.258-4.22l1.783-1.04c.377.43.926.709 1.541.709a2.061 2.061 0 0 0 2.06-2.06 2.06 2.06 0 0 0-2.059-2.058 2.06 2.06 0 0 0-2.058 2.058c0 .234.048.455.12.666l-1.838 1.071a4.724 4.724 0 0 0-3.289-1.7V6.161a2.06 2.06 0 0 0 1.663-2.018A2.061 2.061 0 0 0 12 2.084a2.06 2.06 0 0 0-2.058 2.059c0 1 .716 1.833 1.662 2.018v2.1a4.731 4.731 0 0 0-3.372 1.908l-1.47-.959c.101-.243.158-.508.158-.786a2.061 2.061 0 0 0-2.058-2.059 2.061 2.061 0 0 0-2.059 2.059 2.06 2.06 0 0 0 2.059 2.058 2.05 2.05 0 0 0 1.462-.612l1.492.972a4.695 4.695 0 0 0-.513 2.134c0 .585.11 1.143.305 1.66l-1.517.863a2.045 2.045 0 0 0-1.552-.722 2.06 2.06 0 0 0-2.058 2.059 2.06 2.06 0 0 0 2.058 2.058 2.06 2.06 0 0 0 2.058-2.058c0-.228-.046-.444-.114-.648l1.466-.835a4.735 4.735 0 0 0 3.655 2.336v2.007a2.06 2.06 0 0 0-1.662 2.018A2.06 2.06 0 0 0 12 23.772a2.061 2.061 0 0 0 2.058-2.058c0-1-.717-1.833-1.663-2.018v-2.003a4.732 4.732 0 0 0 3.623-2.16l1.494.989a2.06 2.06 0 0 0 1.898 2.852 2.061 2.061 0 0 0 2.058-2.059 2.061 2.061 0 0 0-2.058-2.058Z" clip-rule="evenodd"/>
</svg>
