<svg viewBox="0 0 32 32" xmlns="http://www.w3.org/2000/svg"><path fill-rule="evenodd" clip-rule="evenodd" d="M16 27a.5.5 0 0 1-.5-.5v-6.378c0-1.466-.945-2.38-2.104-3.472l-.03-.03c-1.102-1.038-2.387-2.25-2.387-4.23l-.001-5.594-1.608 1.77a.5.5 0 1 1-.74-.672l2.457-2.707a.5.5 0 0 1 .782 0l2.456 2.707a.5.5 0 1 1-.74.672l-1.606-1.77v5.593c0 1.51.95 2.446 2.104 3.533l.068.065c.659.62 1.382 1.302 1.849 2.17.467-.868 1.19-1.55 1.849-2.17l.069-.065c1.152-1.087 2.103-2.023 2.103-3.533V6.796l-1.606 1.77a.5.5 0 1 1-.74-.672l2.456-2.707a.5.5 0 0 1 .782 0l2.457 2.707a.5.5 0 1 1-.74.672l-1.608-1.77v5.593c0 1.98-1.286 3.193-2.387 4.232l-.031.029c-1.159 1.093-2.104 2.006-2.104 3.472V26.5a.5.5 0 0 1-.5.5z" fill="#0278D5"/><path fill-rule="evenodd" clip-rule="evenodd" d="M22.817 20.646a.494.494 0 0 1 .35-.146h3.379c.192 0 .366.111.448.285l3.752 7.972h.758c.274 0 .496.223.496.499v2.246a.5.5 0 0 1-.496.498h-2.679a.495.495 0 0 1-.447-.284l-3.735-7.86h-1.475a.497.497 0 0 1-.496-.499v-2.359a.5.5 0 0 1 .145-.352zm.846.85v1.363h1.293c.19 0 .365.11.447.284l3.735 7.86h1.87v-1.249h-.576a.496.496 0 0 1-.448-.285l-3.752-7.972h-2.569zm.203 3.966a.496.496 0 0 1 .457.282l1.427 2.981a.501.501 0 0 1 .017.394l-.971 2.56a.496.496 0 0 1-.464.321h-2.836a.5.5 0 0 1-.455-.696l2.38-5.541a.496.496 0 0 1 .445-.3zm.035 1.699-1.651 3.842h1.74l.774-2.039-.863-1.803z" fill="url(#a)"/><defs><linearGradient id="a" x1="22.428" y1="21.077" x2="31.634" y2="32.246" gradientUnits="userSpaceOnUse"><stop stop-color="#CA541A"/><stop offset="1" stop-color="#FC9502"/></linearGradient></defs></svg>