<svg xmlns="http://www.w3.org/2000/svg" fill="none" viewBox="0 0 24 24"><g clip-path="url(#a)"><path fill="#7aa116" d="M24 0H0v24h24z"/><path fill="#fff" fill-rule="evenodd" d="M19.8 17.4h.6v3h-3v-.6h1.976l-2.488-2.488.424-.424 2.488 2.488zm-12.688-.088L4.624 19.8H6.6v.6h-3v-3h.6v1.976l2.488-2.488zM20.4 3.6v3h-.6V4.624l-2.488 2.488-.424-.424L19.376 4.2H17.4v-.6zm-15.776.6 2.488 2.488-.424.424L4.2 4.624V6.6h-.6v-3h3v.6zm10.58 11.898c-.348.356-1.513.716-3.335.716-2.219 0-3.46-.545-3.469-.914V8.957c.781.461 2.196.643 3.469.643 1.258 0 2.656-.18 3.431-.64v6.948c0 .022.002.089-.097.19M11.869 7.2c1.83 0 2.995.354 3.337.706.097.099.095.165.094.186V8.1c0 .368-1.222.9-3.431.9-2.142 0-3.46-.52-3.468-.896.017-.38 1.227-.904 3.468-.904m4.03.9a.85.85 0 0 0-.263-.613c-.542-.556-1.95-.887-3.767-.887-1.86 0-4.04.39-4.069 1.5v7.808c.029 1.111 2.21 1.506 4.069 1.506 1.397 0 3.12-.236 3.764-.897.228-.234.271-.468.267-.617V8.1" clip-rule="evenodd"/></g><defs><clipPath id="a"><rect width="24" height="24" fill="#fff" rx="2"/></clipPath></defs></svg>