<svg viewBox="0 0 32 33" xmlns="http://www.w3.org/2000/svg"><path d="M29.991 28.772c.643-.097 1.457-.488 1.495-1.457.021-.017.043-.027.064.026.214 1.34-.096 1.758-.096 1.758l-.06-.049a.572.572 0 0 1-.09.199c-.022-.022-.054-.06-.054-.06s-.557.563-.825.713c-.359-.027-1.119-1.027-.434-1.13z" fill="#D9DAE5"/><path d="M28.229 20.532c-1.265 0-3.516.599-3.861 2.718-.021.126.09.157.179.072a.913.913 0 0 1 .625-.271c.257 0 .785.218.785.81 0 1.307-2.104 1.707-2.104 4.597 0 1.173.889 2.1 1.96 2.605.272.128 1.151-.888 1.151-.888s-.854-.06-.854-1.09c0-.52.38-.937.854-1.222.463-.278-.377-2.724 0-2.724.58 0 3.124 1.744 3.228 1.676.99-.646 1.808-1.736 1.808-2.961 0-2.807-2.507-3.322-3.771-3.322z" fill="#fff"/><path d="M31.662 22.29c-.726-1.448-2.453-1.758-3.433-1.758-.275 0-.532.157-.871.223l.088.206s2.175 4.634 2.175 5.293c1.69-1.107 2.3-2.707 2.042-3.965z" fill="#F3F3FA"/><path d="M28.229 20.532c-1.265 0-3.516.599-3.862 2.718-.01.06.01.098.044.113.117-.351.588-1.255 1.628-1.255.93 0 1.2.614 1.2 1.345 0 1.414-3.387 2.946-3.387 5.005 0 1.172 1.037 1.999 2.246 2.173.297.043.866-.456.866-.456s-.854-.06-.854-1.09c0-.466.304-.849.708-1.128.488-.338-.272-2.314.146-2.314.92 0 3.04.936 3.48-.128a6.153 6.153 0 0 0 .463-2.261c0-1.993-1.414-2.722-2.678-2.722z" fill="#F3F3FA"/><path d="M28.229 20.532c-1.265 0-3.516.599-3.861 2.718-.01.06.01.098.043.113.118-.352.46-1.437 1.64-1.437.932 0 1.385.657 1.385 1.399 0 1.564-3.583 3.364-3.583 5.133 0 1.172 1.036 1.999 2.245 2.173.297.043.866-.456.866-.456s-.854-.06-.854-1.09c0-.42.248-.773.593-1.043.5-.391.01-2.431.462-2.431.891 0 2.796 1.019 3.238 0a6.157 6.157 0 0 0 .504-2.357c0-1.993-1.414-2.722-2.678-2.722z" fill="#F3F3FA"/><path d="M28.132 27.364c-.765 0-2.247.725-2.247 1.754 0 .626.505 1.003.899 1.201.107-.08.18-.144.18-.144s-.854-.06-.854-1.09c0-1.028 1.482-1.652 2.247-1.652.322 0 .101-.07-.225-.07z" fill="#B0B1C4"/><path d="M28.143 24.025a2.346 2.346 0 0 0-2.346 2.347c0 .247.036.434.018.574-.022.177-.08.288-.074.414h-.29a.83.83 0 0 0 .042.257.396.396 0 0 0-.125.048c.01.113.188.298.188.298a.406.406 0 0 0-.09.056c.027.129.286.265.286.265a.158.158 0 0 0-.071.032c0 .023.18.135.567.242.385-.71.486-3.278 1.11-3.278.675 0 2.897 1.332 3.12 1.332a2.346 2.346 0 0 0-2.335-2.587z" fill="#B0B1C4"/><path d="M31.54 27.347c-.003-.012-.004-.022-.005-.033-.016-.02-.033-.012-.05 0-.037.97-.851 1.361-1.494 1.458-.467.07-.262.557.029.869.867-.396 1.815-.666 1.52-2.294z" fill="#F3F3FA"/><path d="M30.476 30.123c0-.55-.313-1.175-.662-1.708-.355-.542-2.62-.668-2.948-.046-.183.35-.596.78-.66 1.635-.088 1.166-.056 2.342 2.13 2.342 2.599 0 2.14-1.827 2.14-2.223z" fill="#F3F3FA"/><path d="M28.336 31.812a1.398 1.398 0 1 0 0-2.796 1.398 1.398 0 0 0 0 2.796z" fill="#fff"/><path d="M27.932 30.004c-.464-.146-.969-.703-1.303-1.248a2.718 2.718 0 0 0-.374.898c.092.107.195.202.308.286l-.018.091h.156l-.01.101c.405.02.81.008 1.213-.036.083-.019.092-.037.028-.092z" fill="#D9DAE5"/><path d="M26.656 30.366c-.112-.25-.321-.386-.514-.386s-.643.072-.643.82c0 .747.964 1.486.964 1.486s.724.048.724-.145-.418-1.526-.53-1.775zM30.481 29.98c-.193 0-.401.136-.514.386-.112.249-.53 1.582-.53 1.775 0 .193.723.145.723.145s.964-.74.964-1.487c0-.747-.45-.82-.643-.82z" fill="#D9DAE6"/><path d="M30.058 32.05h-.518a.263.263 0 0 0-.262.262v.092a.129.129 0 0 0 .13.128h.781a.129.129 0 0 0 .129-.128v-.093a.26.26 0 0 0-.26-.26zM27.1 32.05h-.517a.263.263 0 0 0-.262.262v.092a.128.128 0 0 0 .13.128h.781a.129.129 0 0 0 .129-.128v-.093a.26.26 0 0 0-.26-.26z" fill="#fff"/><path fill-rule="evenodd" clip-rule="evenodd" d="M30.662 26.547c-.01.094-.018.175-.013.248.005.079.023.147.04.212.019.068.036.133.035.2-.017.682-1.623 1.35-2.388 1.35-.735 0-2.365-.675-2.402-1.356a.696.696 0 0 1 .033-.215c.015-.059.032-.123.041-.2.01-.078.003-.17-.005-.279a3.825 3.825 0 0 1-.014-.296 2.346 2.346 0 1 1 4.693 0c0 .129-.01.24-.02.336zm-3.277-.09a.255.255 0 0 0-.07.011.14.14 0 0 1-.1.176.14.14 0 0 1-.075-.002.257.257 0 1 0 .245-.184zm1.897 0a.253.253 0 0 0-.07.011.14.14 0 0 1-.101.176.14.14 0 0 1-.075-.002.252.252 0 0 0 .147.31.258.258 0 0 0 .336-.336.257.257 0 0 0-.237-.159z" fill="#fff"/><path d="M31.086 27.505a.393.393 0 0 0-.125-.048.836.836 0 0 0 .042-.258h-.595s-.511.547-2.055.547h-.032c-1.544 0-2.082-.547-2.082-.547h-.594c0 .088.014.174.04.258a.394.394 0 0 0-.124.048c.009.112.188.297.188.297a.405.405 0 0 0-.09.056c.027.129.286.266.286.266a.16.16 0 0 0-.072.032c.003.046.737.458 2.444.458h.029c1.707 0 2.425-.412 2.428-.458a.157.157 0 0 0-.072-.032s.26-.137.286-.266a.407.407 0 0 0-.09-.056s.18-.185.188-.297z" fill="#D9DAE6"/><path d="M29.246 25.622a1.09 1.09 0 0 0-.401.076l.06.135a.942.942 0 0 1 1.017.22l.09-.118a1.09 1.09 0 0 0-.766-.313zM27.404 25.622a1.09 1.09 0 0 0-.766.313l.09.119a.942.942 0 0 1 1.017-.22l.06-.136a1.088 1.088 0 0 0-.401-.076z" fill="#fff"/><path d="M30.81 27.505a.333.333 0 0 0-.112-.048.915.915 0 0 0 .037-.258H30.2s-.169.2-.61.359c-.288.103-.692-.7-1.24-.7h-.029c-.568 0-.985.797-1.279.689-.426-.157-.595-.348-.595-.348h-.535c0 .087.012.174.037.258a.333.333 0 0 0-.113.048c.009.112.17.297.17.297a.362.362 0 0 0-.081.056c.024.129.257.266.257.266a.135.135 0 0 0-.064.032c.002.046.663.49 2.2.49h.026c1.537 0 2.183-.444 2.185-.49a.135.135 0 0 0-.064-.032s.233-.137.257-.266a.36.36 0 0 0-.08-.056s.16-.185.169-.297z" fill="#F3F3FA"/><path d="M29.15 23.179h-1.629a1.65 1.65 0 0 0-1.65 1.65c0 .252.014.394.014.514s.16.089.233.048c.254-.127.535-.19.82-.184.45 0 2.37.008 2.82.008.45 0 .715.12.82.2a.126.126 0 0 0 .209-.072c0-.064.013-.318.013-.514a1.65 1.65 0 0 0-1.65-1.65z" fill="#B0B1C3"/><path d="M29.316 23.07c-.112-.113-1.84-.137-1.969.007-.128.145-.522 1.077-.514 1.969.41 0 2.194-.064 2.997-.016-.008-.973-.401-1.849-.514-1.96z" fill="#D9DAE6"/><path d="M28.336 25.126a.771.771 0 1 0 0-1.543.771.771 0 0 0 0 1.543z" fill="#B0B1C3"/><path d="M28.713 22.796h-.779a.193.193 0 0 0-.193.193v1.253a.192.192 0 0 0 .193.193h.78a.193.193 0 0 0 .192-.193V22.99a.193.193 0 0 0-.192-.193zM27.01 24.451h-.297a.173.173 0 0 0-.162.1l-.128.383a.122.122 0 0 0 .062.158c.019.009.04.012.06.01h.414a.176.176 0 0 0 .18-.168v-.384a.116.116 0 0 0-.13-.099zM30.236 24.934l-.128-.384a.172.172 0 0 0-.161-.099h-.297a.116.116 0 0 0-.129.1v.383a.176.176 0 0 0 .179.168h.413a.121.121 0 0 0 .123-.168z" fill="#B0B1C3"/><path d="M30.59 25.25c-.063-.07-.342-.427-1.081-.427l-2.29-.005c-.663 0-.88.191-1.13.433-.086.084-.003.173.069.132.072-.04.33-.176.78-.176s2.37.008 2.82.008c.45 0 .616.06.718.144.068.056.175-.04.113-.109z" fill="#D9DAE5"/><path d="M29.262 23.645c.236.08.828.613.866.624.037.01.227.008.254-.024.027-.032-.97-.712-1.12-.6z" fill="#B0B1C4" opacity=".071"/><path d="M30.436 24.154c-.161-.477-.349-.771-.76-1.002-.097.038-.392.295-.435.354-.043.059-.052.132.038.152.403.091.78.365.99.584.056.058.202.015.167-.088z" fill="#D9DAE6"/><path d="M29.678 23.554a.86.86 0 0 0-.2.165c.203.078.394.186.565.321a.82.82 0 0 0-.365-.486z" fill="#fff"/><path d="M26.29 24.245c.026.032.216.035.254.024.037-.01.63-.544.865-.624-.15-.113-1.146.568-1.12.6z" fill="#B0B1C4" opacity=".071"/><path d="M27.43 23.506c-.042-.06-.337-.316-.433-.354-.413.23-.6.525-.761 1.002-.035.103.11.146.166.088.21-.22.588-.493.991-.584.09-.02.08-.093.037-.152z" fill="#D9DAE6"/><path d="M26.994 23.554a.82.82 0 0 0-.366.486c.172-.135.362-.243.565-.321a.85.85 0 0 0-.2-.165z" fill="#fff"/><path d="M28.325 27.936c-.15.096-.509.145-.734.064 0 .284.525.434.75.434.23 0 .729-.134.729-.444-.311.128-.6-.011-.745-.054z" fill="#D9DAE5"/><path d="M28.314 28.316c-.117 0-.233.014-.346.043.12.045.245.07.373.075.12-.003.238-.025.351-.066a1.337 1.337 0 0 0-.378-.052z" fill="#B0B1C3"/><path d="M28.325 27.936a.726.726 0 0 1-.252.086v.075a.096.096 0 0 0 .097.096h.326a.097.097 0 0 0 .09-.06.097.097 0 0 0 .007-.036v-.079c-.11-.025-.204-.063-.268-.082z" fill="#fff"/><path d="M28.325 27.936a.726.726 0 0 1-.252.086v.075a.096.096 0 0 0 .097.096h.166v-.254c-.004 0-.008-.002-.011-.003z" fill="#F6F6F6"/><path d="M28.679 27.218h-.686c-.108 0-.145.145-.082.207l.344.345a.11.11 0 0 0 .156.005c.037-.042.277-.288.34-.35.073-.074.017-.207-.072-.207z" fill="#fff"/><path d="M28.679 27.218h-.686c-.108 0-.145.105-.082.15l.344.25a.142.142 0 0 0 .156.003c.037-.03.277-.208.34-.253.073-.053.017-.15-.072-.15zM28.421 30.116l-.442-.095.292-.076-.08-.14-.257.21-.038.08-.016.412.15-.005-.073-.392.218.37.118-.101-.302-.312.388.2.042-.15zM31.923 27.086l-.332.178.274-.312-.129-.088-.193.38.062-.433-.156-.003.032.452-.159-.263-.113.114.268.194.087.015.403-.09-.044-.144z" fill="#D9DAE5"/><path d="m28.657 24.451-.273-.57h-.261v.193h.132l.274.57h.209v-.193h-.08z" fill="#fff"/><path d="m28.227 24.17-.237.466h.21l.136-.265-.109-.201z" fill="#fff"/><path fill-rule="evenodd" clip-rule="evenodd" d="M15.504 4.619a.5.5 0 0 1 .5 0l10.065 5.84a.5.5 0 0 1 .25.432v8.124a.5.5 0 0 1-1 0v-7.257l-8.544 4.945-.066 9.478 5.583-3.231a.5.5 0 0 1 .5.865l-6.338 3.67a.5.5 0 0 1-.502 0L5.93 21.652a.5.5 0 0 1-.248-.433V10.577a.5.5 0 0 1 .25-.433l9.572-5.525zm.205 21.567.066-9.485-9.093-5.258v9.49l9.027 5.253zM7.181 10.577l9.096 5.259 3.773-2.184-9.074-5.265-3.795 2.19zm4.794-2.767 9.073 5.264 3.773-2.184-9.068-5.26-3.778 2.18z" fill="#fff"/></svg>