<svg fill="none" viewBox="0 0 28 28" xmlns="http://www.w3.org/2000/svg" xmlns:xlink="http://www.w3.org/1999/xlink"><linearGradient id="a" gradientUnits="userSpaceOnUse" x1="-5.79758" x2="33.8004" y1="33.801" y2="-5.79702"><stop offset="0" stop-color="#bd0816"/><stop offset="1" stop-color="#ff5252"/></linearGradient><path d="m28 0h-28v28h28z" fill="url(#a)"/><g fill="#fff"><path d="m9.14671 23.1476c-.05301-.0001-.10539-.0114-.15367-.0333s-.09134-.0538-.12633-.0936l-1.30666-1.4934c-.06003-.068-.09321-.1556-.09334-.2464v-.9632l-1.01173-1.0117c-.03499-.0347-.06277-.076-.08172-.1215s-.02871-.0943-.02871-.1436.00976-.0981.02871-.1435c.01895-.0455.04673-.0868.08172-.1215l1.01173-1.008v-.4368l-1.01173-1.0118c-.03499-.0347-.06277-.076-.08172-.1215s-.02871-.0943-.02871-.1435c0-.0493.00976-.0981.02871-.1436s.04673-.0868.08172-.1215l1.01173-1.008v-.9035c-.89022-.3405-1.65421-.9466-2.18846-1.7359-.53424-.7893-.8129-1.7238-.79821-2.67688.00743-1.23767.50622-2.42171 1.38664-3.29163s2.07036-1.35446 3.30803-1.34703c1.23769.00742 2.42169.50621 3.29159 1.38663.87.88042 1.3545 2.07036 1.3471 3.30803.0035.94308-.2805 1.86498-.814 2.64258-.5336.7777-1.2915 1.3744-2.1727 1.7105v7.7803c0 .0539-.0117.1072-.0342.1561-.0226.049-.0555.0925-.0965.1276l-1.30662 1.12c-.06763.0578-.15369.0896-.24267.0896zm-.93333-2.0085.97067 1.12.89595-.7766v-7.8736c-.0037-.0823.0199-.1636.0671-.2311.0473-.0676.1156-.1176.1943-.1422.8884-.2861 1.6455-.88 2.1348-1.6749s.6786-1.73832.5338-2.6604c-.1448-.92207-.6142-1.76212-1.3235-2.36877s-1.612-.94001-2.54539-.94001c-.93337 0-1.83605.33336-2.54539.94001s-1.17869 1.4467-1.32347 2.36877c-.14479.92208.04452 1.8655.53379 2.6604.48928.7949 1.24635 1.3888 2.13481 1.6749.08075.0226.15155.0717.20099.1394s.07464.1501.07154.2339v1.3254c.00028.0491-.00913.0978-.02771.1433s-.04596.0868-.08056.1217l-.85493.855.85493.8549c.0346.0349.06198.0762.08056.1217s.02799.0942.02771.1434v.7466c-.00041.098-.0393.1918-.10827.2614l-.85493.8586.85493.855c.0346.0348.06198.0762.08056.1217s.02799.0942.02771.1433zm.93333-11.24484c-.33227 0-.65708-.09853-.93336-.28313-.27627-.18461-.4916-.44699-.61876-.75397-.12715-.30698-.16042-.64477-.0956-.97066.06483-.32588.22483-.62523.45978-.86018.23496-.23496.5343-.39496.86019-.45978.32589-.06483.66368-.03156.97066.0956.30698.12715.56938.34248.75398.61876.1846.27627.2831.60108.2831.93336-.001.44526-.1783.872-.4931 1.18685-.3149.31484-.74163.49216-1.18689.49315zm0-2.61334c-.18459 0-.36504.05474-.51853.1573-.15349.10255-.27311.24832-.34375.41886-.07065.17055-.08913.35821-.05312.53926.03602.18105.12491.34735.25544.47788s.29683.21942.47788.25544c.18105.03601.36871.01753.53925-.05312.17055-.07064.31632-.19027.41887-.34375.10255-.15349.15725-.33394.15725-.51853 0-.24754-.09829-.48494-.27332-.65997s-.41243-.27337-.65997-.27337z"/><path d="m22.8071 20.5348h-11.2336v-.7467h11.2v-8.2133h-8.2133v-.7467h8.2469c.1868-.001.3665.0718.5001.2025.1335.1307.21.3088.213.4957v8.3104c-.003.1868-.0795.3649-.213.4956-.1336.1307-.3133.2035-.5001.2025z"/><path d="m12.8801 16.9867c-.2954 0-.5841-.0876-.8297-.2517s-.437-.3973-.55-.6702-.1426-.5731-.085-.8628.1999-.5558.4087-.7646c.2089-.2089.4749-.3511.7646-.4087s.59-.0281.8628.085c.2729.113.5061.3044.6702.55s.2517.5343.2517.8296c0 .3961-.1573.7759-.4374 1.056-.2801.28-.6599.4374-1.0559.4374zm0-2.24c-.1477 0-.2921.0438-.4149.1258s-.2185.1987-.275.3351-.0713.2866-.0425.4314.1.2779.2044.3823.2374.1755.3823.2044c.1448.0288.295.014.4314-.0425s.253-.1522.3351-.275c.082-.1228.1258-.2672.1258-.4149 0-.198-.0786-.3879-.2187-.5279-.14-.1401-.3299-.2187-.5279-.2187z"/><path d="m16.6135 16.9867c-.2954 0-.5841-.0876-.8297-.2517s-.437-.3973-.55-.6702-.1426-.5731-.085-.8628.1999-.5558.4087-.7646c.2089-.2089.4749-.3511.7646-.4087s.59-.0281.8628.085c.2729.113.5061.3044.6702.55s.2517.5343.2517.8296c0 .3961-.1574.7759-.4374 1.056-.2801.28-.6599.4374-1.0559.4374zm0-2.24c-.1477 0-.2921.0438-.4149.1258s-.2185.1987-.275.3351-.0713.2866-.0425.4314.1.2779.2044.3823.2374.1755.3823.2044c.1448.0288.295.014.4314-.0425s.253-.1522.3351-.275c.082-.1228.1258-.2672.1258-.4149 0-.198-.0786-.3879-.2187-.5279-.14-.1401-.3299-.2187-.5279-.2187z"/><path d="m14.1868 17.9199h-2.6133v.7467h2.6133z"/><path d="m17.92 17.9199h-2.6134v.7467h2.6134z"/><path d="m21.6534 17.9199h-2.6134v.7467h2.6134z"/></g></svg>