<svg xmlns="http://www.w3.org/2000/svg" fill="none" viewBox="0 0 24 24"><g clip-path="url(#a)"><path fill="#c925d1" d="M24 0H0v24h24z"/><path fill="#fff" fill-rule="evenodd" d="M7.113 17.312 4.624 19.8H6.3v.6H3.9a.3.3 0 0 1-.3-.3v-2.4h.6v1.676l2.488-2.488zM19.8 17.7h.6v2.4a.3.3 0 0 1-.3.3h-2.4v-.6h1.676l-2.488-2.488.424-.424 2.488 2.488zm.6-13.8v2.4h-.6V4.625l-2.488 2.487-.424-.424L19.376 4.2H17.7v-.6h2.4a.3.3 0 0 1 .3.3M4.2 6.3h-.6V3.9a.3.3 0 0 1 .3-.3h2.4v.6H4.516l2.592 2.484-.415.433L4.2 4.728zm15.436 5.34c0-.935-1.084-1.86-2.898-2.474l.192-.568c2.1.711 3.306 1.82 3.306 3.042s-1.205 2.332-3.306 3.043l-.192-.57c1.814-.613 2.898-1.538 2.898-2.473m-14.994 0c0 .895 1.014 1.796 2.713 2.408l-.204.564c-1.976-.712-3.109-1.795-3.109-2.972s1.133-2.26 3.109-2.973l.204.565c-1.699.612-2.713 1.513-2.713 2.408m7.372-2.209c-1.882 0-2.935-.479-2.95-.675.015-.195 1.068-.675 2.95-.675 1.88 0 2.934.48 2.95.675-.016.196-1.07.675-2.95.675m0 2.133c-1.91 0-2.95-.555-2.95-.84V9.504c.68.357 1.841.526 2.95.526s2.27-.169 2.95-.526v1.218c0 .286-1.04.841-2.95.841m0 2.243c-1.91 0-2.95-.557-2.95-.842v-1.406c.671.399 1.813.605 2.95.605 1.136 0 2.279-.206 2.95-.605v1.406c0 .285-1.04.842-2.95.842m0 1.967c-1.91 0-2.95-.549-2.95-.831v-1.142c.671.4 1.813.606 2.95.606 1.136 0 2.279-.207 2.95-.606v1.142c0 .282-1.04.831-2.95.831m0-8.293c-1.71 0-3.55.4-3.55 1.275v6.187c0 .94 1.786 1.431 3.55 1.431s3.55-.491 3.55-1.431V8.756c0-.876-1.84-1.275-3.55-1.275" clip-rule="evenodd"/></g><defs><clipPath id="a"><rect width="24" height="24" fill="#fff" rx="2"/></clipPath></defs></svg>