<svg viewBox="0 0 32 33" xmlns="http://www.w3.org/2000/svg"><path fill-rule="evenodd" clip-rule="evenodd" d="M6 5.005a.5.5 0 0 1 .5-.5h7.125a.5.5 0 0 1 .416.223l2.227 3.34H25.5a.5.5 0 0 1 .5.5v10.938a.5.5 0 0 1-1 0V9.068h-6.43v1.444h1a.5.5 0 0 1 0 1h-1v1.058h1a.5.5 0 0 1 0 1h-1v.9h1a.5.5 0 1 1 0 1h-1v1.106a.5.5 0 0 1-1 0v-1.107h-1a.5.5 0 1 1 0-1h1v-.9h-1a.5.5 0 1 1 0-1h1v-1.057h-1a.5.5 0 1 1 0-1h1V9.068H16a.5.5 0 0 1-.416-.223l-2.227-3.34H7v18h15.306a.5.5 0 1 1 0 1H6.5a.5.5 0 0 1-.5-.5v-19z" fill="#fff"/><path d="M29.991 28.754c.643-.096 1.457-.487 1.495-1.457.021-.016.043-.027.064.027.214 1.34-.096 1.757-.096 1.757l-.06-.048a.572.572 0 0 1-.09.198 1.48 1.48 0 0 1-.054-.059s-.557.563-.825.713c-.359-.027-1.119-1.028-.434-1.13z" fill="#D9DAE5"/><path d="M28.229 20.515c-1.265 0-3.516.598-3.861 2.718-.021.125.09.156.179.072a.913.913 0 0 1 .625-.271c.257 0 .785.217.785.81 0 1.306-2.104 1.707-2.104 4.597 0 1.172.889 2.1 1.96 2.605.272.128 1.151-.888 1.151-.888s-.854-.061-.854-1.09c0-.52.38-.938.854-1.223.463-.278-.377-2.723 0-2.723.58 0 3.124 1.744 3.228 1.676.99-.646 1.808-1.736 1.808-2.961 0-2.808-2.507-3.322-3.771-3.322z" fill="#fff"/><path d="M31.662 22.272c-.726-1.447-2.453-1.757-3.433-1.757-.275 0-.532.157-.871.223l.088.206s2.175 4.634 2.175 5.293c1.69-1.107 2.3-2.708 2.042-3.965z" fill="#F3F3FA"/><path d="M28.229 20.515c-1.265 0-3.516.598-3.862 2.718-.01.06.01.098.044.112.117-.35.588-1.254 1.628-1.254.93 0 1.2.613 1.2 1.345 0 1.414-3.387 2.946-3.387 5.005 0 1.172 1.037 1.998 2.246 2.173.297.043.866-.456.866-.456s-.854-.061-.854-1.09c0-.466.304-.849.708-1.129.488-.337-.272-2.314.146-2.314.92 0 3.04.936 3.48-.128a6.153 6.153 0 0 0 .463-2.26c0-1.993-1.414-2.722-2.678-2.722z" fill="#F3F3FA"/><path d="M28.229 20.515c-1.265 0-3.516.598-3.861 2.718-.01.06.01.098.043.112.118-.351.46-1.436 1.64-1.436.932 0 1.385.657 1.385 1.399 0 1.564-3.583 3.363-3.583 5.133 0 1.172 1.036 1.998 2.245 2.173.297.043.866-.456.866-.456s-.854-.061-.854-1.09c0-.42.248-.773.593-1.044.5-.39.01-2.43.462-2.43.891 0 2.796 1.018 3.238 0a6.157 6.157 0 0 0 .504-2.357c0-1.993-1.414-2.722-2.678-2.722z" fill="#F3F3FA"/><path d="M28.132 27.346c-.765 0-2.247.726-2.247 1.754 0 .627.505 1.003.899 1.202.107-.08.18-.144.18-.144s-.854-.061-.854-1.09c0-1.029 1.482-1.653 2.247-1.653.322 0 .101-.069-.225-.069z" fill="#B0B1C4"/><path d="M28.143 24.008a2.346 2.346 0 0 0-2.346 2.346c0 .247.036.435.018.575-.022.177-.08.287-.074.414h-.29a.83.83 0 0 0 .042.257.396.396 0 0 0-.125.048c.01.113.188.297.188.297a.406.406 0 0 0-.09.057c.027.128.286.265.286.265a.158.158 0 0 0-.071.032c0 .023.18.135.567.242.385-.71.486-3.278 1.11-3.278.675 0 2.897 1.332 3.12 1.332a2.346 2.346 0 0 0-2.335-2.587z" fill="#B0B1C4"/><path d="M31.54 27.33c-.003-.012-.004-.023-.005-.034-.016-.02-.033-.011-.05.001-.037.97-.851 1.36-1.494 1.457-.467.07-.262.557.029.87.867-.396 1.815-.666 1.52-2.295z" fill="#F3F3FA"/><path d="M30.476 30.106c0-.551-.313-1.176-.662-1.708-.355-.543-2.62-.669-2.948-.046-.183.349-.596.78-.66 1.634-.088 1.167-.056 2.342 2.13 2.342 2.599 0 2.14-1.827 2.14-2.222z" fill="#F3F3FA"/><path d="M28.336 31.794a1.398 1.398 0 1 0 0-2.796 1.398 1.398 0 0 0 0 2.796z" fill="#fff"/><path d="M27.932 29.986c-.464-.146-.969-.702-1.303-1.248a2.718 2.718 0 0 0-.374.898c.092.107.195.203.308.286l-.018.092h.156l-.01.101c.405.02.81.008 1.213-.037.083-.018.092-.037.028-.091z" fill="#D9DAE5"/><path d="M26.656 30.348c-.112-.25-.321-.386-.514-.386s-.643.073-.643.82.964 1.487.964 1.487.724.048.724-.145-.418-1.527-.53-1.776zM30.481 29.962c-.193 0-.401.137-.514.386-.112.25-.53 1.583-.53 1.776 0 .193.723.145.723.145s.964-.74.964-1.487c0-.747-.45-.82-.643-.82z" fill="#D9DAE6"/><path d="M30.058 32.033h-.518a.263.263 0 0 0-.262.262v.091a.129.129 0 0 0 .13.13h.781a.129.129 0 0 0 .129-.13v-.092a.26.26 0 0 0-.26-.26zM27.1 32.033h-.517a.263.263 0 0 0-.262.262v.092a.129.129 0 0 0 .13.128h.781a.129.129 0 0 0 .129-.129v-.092a.26.26 0 0 0-.26-.26z" fill="#fff"/><path fill-rule="evenodd" clip-rule="evenodd" d="M30.662 26.53c-.01.094-.018.175-.013.248.005.078.023.147.04.211.019.069.036.133.035.2-.017.682-1.623 1.351-2.388 1.351-.735 0-2.365-.676-2.402-1.356a.696.696 0 0 1 .033-.216c.015-.058.032-.123.041-.2.01-.078.003-.17-.005-.278a3.823 3.823 0 0 1-.014-.296 2.346 2.346 0 1 1 4.693 0c0 .129-.01.239-.02.336zm-3.277-.09a.255.255 0 0 0-.07.01.14.14 0 0 1-.1.176.14.14 0 0 1-.075-.002.257.257 0 1 0 .245-.184zm1.897 0a.257.257 0 0 0-.07.01.14.14 0 0 1-.101.176.14.14 0 0 1-.075-.002.252.252 0 0 0 .147.31.258.258 0 0 0 .336-.335.256.256 0 0 0-.237-.159z" fill="#fff"/><path d="M31.086 27.487a.393.393 0 0 0-.125-.048.836.836 0 0 0 .042-.257h-.595s-.511.546-2.055.546h-.032c-1.544 0-2.082-.546-2.082-.546h-.594c0 .087.014.174.04.257a.394.394 0 0 0-.124.048c.009.113.188.298.188.298a.4.4 0 0 0-.09.056c.027.129.286.265.286.265a.16.16 0 0 0-.072.032c.003.046.737.458 2.444.458h.029c1.707 0 2.425-.412 2.428-.458a.157.157 0 0 0-.072-.032s.26-.136.286-.265a.406.406 0 0 0-.09-.056s.18-.185.188-.298z" fill="#D9DAE6"/><path d="M29.246 25.604c-.137 0-.273.026-.401.077l.06.135a.942.942 0 0 1 1.017.22l.09-.119a1.09 1.09 0 0 0-.766-.313zM27.404 25.604a1.09 1.09 0 0 0-.766.313l.09.12a.942.942 0 0 1 1.017-.221l.06-.135a1.088 1.088 0 0 0-.401-.077z" fill="#fff"/><path d="M30.81 27.487a.333.333 0 0 0-.112-.048.914.914 0 0 0 .037-.257H30.2s-.169.2-.61.358c-.288.103-.692-.699-1.24-.699h-.029c-.568 0-.985.796-1.279.688-.426-.156-.595-.347-.595-.347h-.535c0 .087.012.174.037.257a.333.333 0 0 0-.113.048c.009.113.17.298.17.298a.359.359 0 0 0-.081.056c.024.129.257.265.257.265a.135.135 0 0 0-.064.032c.002.046.663.49 2.2.49h.026c1.537 0 2.183-.444 2.185-.49a.135.135 0 0 0-.064-.032s.233-.136.257-.265a.36.36 0 0 0-.08-.056s.16-.185.169-.298z" fill="#F3F3FA"/><path d="M29.15 23.162h-1.629a1.65 1.65 0 0 0-1.65 1.65c0 .252.014.393.014.514 0 .12.16.088.233.048.254-.127.535-.19.82-.185.45 0 2.37.008 2.82.008.45 0 .715.12.82.201a.126.126 0 0 0 .209-.072c0-.064.013-.318.013-.515a1.65 1.65 0 0 0-1.65-1.65z" fill="#B0B1C3"/><path d="M29.316 23.052c-.112-.113-1.84-.137-1.969.008-.128.145-.522 1.077-.514 1.969.41 0 2.194-.065 2.997-.017-.008-.972-.401-1.848-.514-1.96z" fill="#D9DAE6"/><path d="M28.336 25.109a.771.771 0 1 0 0-1.543.771.771 0 0 0 0 1.543z" fill="#B0B1C3"/><path d="M28.713 22.779h-.779a.193.193 0 0 0-.193.192v1.254a.192.192 0 0 0 .193.193h.78a.193.193 0 0 0 .192-.193v-1.254a.193.193 0 0 0-.192-.192zM27.01 24.434h-.297a.173.173 0 0 0-.162.099l-.128.384a.122.122 0 0 0 .062.157c.019.01.04.013.06.01h.414a.176.176 0 0 0 .18-.167v-.384a.116.116 0 0 0-.13-.1zM30.236 24.917l-.128-.384a.172.172 0 0 0-.161-.1h-.297a.116.116 0 0 0-.129.1v.384a.176.176 0 0 0 .179.168h.413a.121.121 0 0 0 .123-.168z" fill="#B0B1C3"/><path d="M30.59 25.233c-.063-.07-.342-.428-1.081-.428l-2.29-.004c-.663 0-.88.19-1.13.432-.086.084-.003.173.069.133.072-.04.33-.177.78-.177s2.37.008 2.82.008c.45 0 .616.06.718.144.068.056.175-.04.113-.108z" fill="#D9DAE5"/><path d="M29.262 23.628c.236.08.828.613.866.624.037.01.227.008.254-.024.027-.033-.97-.713-1.12-.6z" fill="#B0B1C4" opacity=".071"/><path d="M30.436 24.137c-.161-.477-.349-.772-.76-1.002-.097.037-.392.294-.435.353-.043.06-.052.133.038.153.403.091.78.364.99.584.056.058.202.015.167-.088z" fill="#D9DAE6"/><path d="M29.678 23.537a.86.86 0 0 0-.2.164c.203.079.394.187.565.322a.82.82 0 0 0-.365-.486z" fill="#fff"/><path d="M26.29 24.228c.026.032.216.034.254.024.037-.011.63-.544.865-.624-.15-.113-1.146.567-1.12.6z" fill="#B0B1C4" opacity=".071"/><path d="M27.43 23.488c-.042-.059-.337-.316-.433-.353-.413.23-.6.525-.761 1.002-.035.103.11.146.166.088.21-.22.588-.493.991-.584.09-.02.08-.094.037-.153z" fill="#D9DAE6"/><path d="M26.994 23.537a.82.82 0 0 0-.366.486c.172-.135.362-.243.565-.322a.85.85 0 0 0-.2-.165z" fill="#fff"/><path d="M28.325 27.919c-.15.096-.509.144-.734.064 0 .284.525.434.75.434.23 0 .729-.134.729-.445-.311.129-.6-.01-.745-.053z" fill="#D9DAE5"/><path d="M28.314 28.299c-.117 0-.233.014-.346.043.12.044.245.07.373.075.12-.004.238-.026.351-.066a1.333 1.333 0 0 0-.378-.052z" fill="#B0B1C3"/><path d="M28.325 27.919a.726.726 0 0 1-.252.086v.074a.096.096 0 0 0 .097.097h.326a.097.097 0 0 0 .09-.06.097.097 0 0 0 .007-.037v-.078c-.11-.025-.204-.063-.268-.082z" fill="#fff"/><path d="M28.325 27.919a.726.726 0 0 1-.252.086v.074a.096.096 0 0 0 .097.097h.166v-.254c-.004 0-.008-.003-.011-.003z" fill="#F6F6F6"/><path d="M28.679 27.2h-.686c-.108 0-.145.145-.082.208l.344.345a.11.11 0 0 0 .156.005c.037-.043.277-.288.34-.35.073-.074.017-.207-.072-.207z" fill="#fff"/><path d="M28.679 27.201h-.686c-.108 0-.145.105-.082.15l.344.249a.142.142 0 0 0 .156.004c.037-.031.277-.209.34-.253.073-.054.017-.15-.072-.15zM28.421 30.099l-.442-.095.292-.077-.08-.139-.257.21-.038.08-.016.412.15-.005-.073-.393.218.371.118-.102-.302-.312.388.2.042-.15zM31.923 27.068l-.332.179.274-.313-.129-.087-.193.379.062-.433-.156-.002.032.451-.159-.262-.113.113.268.195.087.015.403-.091-.044-.144z" fill="#D9DAE5"/><path d="m28.657 24.434-.273-.57h-.261v.192h.132l.274.57h.209v-.192h-.08z" fill="#fff"/><path d="m28.227 24.153-.237.466h.21l.136-.265-.109-.201z" fill="#fff"/></svg>