<svg viewBox="0 0 75 75" xmlns="http://www.w3.org/2000/svg" xmlns:xlink="http://www.w3.org/1999/xlink"><linearGradient id="a" gradientTransform="matrix(0 -1 1 0 -2001 -1952)" gradientUnits="userSpaceOnUse" x1="-2042.54" x2="-1936.47" y1="1985.47" y2="2091.54"><stop offset="0" stop-color="#bd0816"/><stop offset="1" stop-color="#ff5252"/></linearGradient><path d="m0 0h75v75h-75z" fill="url(#a)"/><g fill="#fff"><path d="m54.52 47.08h2v16.91h-2z" transform="matrix(.70710678 -.70710678 .70710678 .70710678 -23.01 55.53)"/><path d="m19.13 10.77h2v18.74h-2z" transform="matrix(.70710678 -.70710678 .70710678 .70710678 -8.35 20.13)"/><path d="m15.05 54.05h9.9v2h-9.9z" transform="matrix(.70710678 -.70710678 .70710678 .70710678 -33.07 30.27)"/><path d="m50.05 19.05h9.9v2h-9.9z" transform="matrix(.70710678 -.70710678 .70710678 .70710678 1.93 44.76)"/><path d="m60.46 36.52a22.87 22.87 0 0 0 -4.31-12.44l-1.62 1.18a20.86 20.86 0 0 1 3.93 11.26h-2v2h2a20.7 20.7 0 0 1 -3.93 11.32l1.62 1.16a22.72 22.72 0 0 0 4.31-12.5h2v-2z"/><path d="m25.21 20.52a20.77 20.77 0 0 1 11.29-3.93v1.93h2v-1.93a20.77 20.77 0 0 1 11.29 3.93l1.21-1.62a22.81 22.81 0 0 0 -12.5-4.31v-2.07h-2v2.07a22.81 22.81 0 0 0 -12.5 4.31z"/><path d="m49.79 54.58a20.77 20.77 0 0 1 -11.29 3.93v-2h-2v2a20.77 20.77 0 0 1 -11.29-3.93l-1.21 1.62a22.81 22.81 0 0 0 12.5 4.31v2h2v-2a22.81 22.81 0 0 0 12.5-4.31z"/><path d="m18.85 51 1.62-1.18a20.7 20.7 0 0 1 -3.93-11.32h2v-2h-2a20.86 20.86 0 0 1 3.93-11.26l-1.62-1.18a22.87 22.87 0 0 0 -4.31 12.44h-2v2h2a22.72 22.72 0 0 0 4.31 12.5z"/><path d="m42.39 24.25a7.5 7.5 0 0 0 -4.89-1.73c-3.86 0-7 2.73-7 6.09v4.91h-2a1 1 0 0 0 -1 1v14a1 1 0 0 0 .29.71 1 1 0 0 0 .71.29h18a1 1 0 0 0 1-1v-14a1 1 0 0 0 -.29-.7 1 1 0 0 0 -.71-.3h-2v-4.9a5.71 5.71 0 0 0 -2.11-4.37zm-9.89 4.36c0-2.26 2.25-4.09 5-4.09a5.55 5.55 0 0 1 3.6 1.25 3.76 3.76 0 0 1 1.41 2.85v4.9h-10zm13 9.91h-3v2h3v2h-3v2h3v3h-16v-12h16z"/><path d="m36.5 42.76v2.76h2v-2.76a2.93 2.93 0 1 0 -2 0zm1-3.82a1.08 1.08 0 1 1 -1.07 1.06 1.07 1.07 0 0 1 1.07-1.06z"/></g></svg>