<svg xmlns="http://www.w3.org/2000/svg" width="40" height="40" fill="none" viewBox="0 0 24 25">
  <path fill="#fff" fill-rule="evenodd" d="M13.635 13.521c0 .07-.028 1.554-1.228 1.84v-4.48l1.228.532v2.108Zm-3.27-.007v-2.1l1.227-.533v4.481c-1.169-.273-1.227-1.672-1.228-1.848Zm3.84-2.743-2.043-.884a.408.408 0 0 0-.325 0l-2.042.884a.408.408 0 0 0-.245.374v2.37c0 .94.512 2.72 2.45 2.72 1.937 0 2.45-1.775 2.45-2.714v-2.376a.408.408 0 0 0-.246-.374Zm5.423 7.978a1.306 1.306 0 0 1 0-2.608 1.305 1.305 0 0 1 0 2.608Zm-7.59-1.711a4.064 4.064 0 0 1-4.06-4.06 4.065 4.065 0 0 1 4.06-4.061 4.065 4.065 0 0 1 4.061 4.06 4.065 4.065 0 0 1-4.06 4.06Zm1.266 4.935c0 .719-.585 1.305-1.304 1.305a1.306 1.306 0 0 1 0-2.61c.719 0 1.304.586 1.304 1.305Zm-2.608-18.09c0-.718.584-1.304 1.304-1.304a1.306 1.306 0 0 1 0 2.609c-.72 0-1.304-.585-1.304-1.304ZM4.319 18.257a1.306 1.306 0 0 1 0-2.61 1.306 1.306 0 0 1 0 2.609Zm.332-8.66a1.306 1.306 0 0 1 0-2.609c.719 0 1.305.585 1.305 1.304 0 .72-.586 1.304-1.305 1.304Zm15.03-2.817a1.305 1.305 0 1 1-.002 2.61 1.305 1.305 0 0 1 .001-2.61Zm-.053 8.547c-.585 0-1.116.24-1.5.625l-1.604-1.064a4.842 4.842 0 0 0-.266-4.344l1.835-1.071c.389.444.954.73 1.587.73 1.169 0 2.12-.951 2.12-2.12a2.121 2.121 0 0 0-2.12-2.118c-1.168 0-2.119.95-2.119 2.118 0 .242.05.469.124.686L15.793 9.87a4.864 4.864 0 0 0-3.386-1.75V5.96a2.121 2.121 0 0 0 1.712-2.077c0-1.169-.951-2.12-2.12-2.12a2.122 2.122 0 0 0-2.118 2.12 2.12 2.12 0 0 0 1.711 2.078v2.162a4.871 4.871 0 0 0-3.47 1.963L6.608 9.1a2.122 2.122 0 0 0-1.957-2.93 2.123 2.123 0 0 0-2.119 2.12c0 1.168.95 2.12 2.12 2.12a2.11 2.11 0 0 0 1.504-.631l1.537 1a4.834 4.834 0 0 0-.53 2.197c0 .603.115 1.177.315 1.71l-1.561.888a2.105 2.105 0 0 0-1.598-.743c-1.168 0-2.119.95-2.119 2.12 0 1.168.951 2.118 2.119 2.118 1.168 0 2.119-.95 2.119-2.119 0-.235-.048-.456-.118-.667l1.51-.86a4.876 4.876 0 0 0 3.762 2.405v2.067a2.12 2.12 0 0 0-1.71 2.077c0 1.169.95 2.12 2.118 2.12s2.119-.951 2.119-2.12a2.12 2.12 0 0 0-1.712-2.077v-2.063a4.87 4.87 0 0 0 3.73-2.224l1.537 1.019a2.122 2.122 0 0 0 1.954 2.936c1.169 0 2.12-.95 2.12-2.12a2.121 2.121 0 0 0-2.12-2.118Z" clip-rule="evenodd"/>
</svg>
