<svg viewBox="0 0 32 33" xmlns="http://www.w3.org/2000/svg"><path d="M29.686 28.624c.643-.096 1.457-.487 1.495-1.457.021-.016.043-.027.064.027.214 1.34-.096 1.757-.096 1.757l-.06-.048a.571.571 0 0 1-.09.198c-.022-.021-.054-.059-.054-.059s-.557.563-.825.713c-.359-.027-1.119-1.028-.434-1.13z" fill="#B2B2B2"/><path d="M27.924 20.385c-1.264 0-3.516.598-3.861 2.717-.02.126.09.157.18.073a.913.913 0 0 1 .624-.271c.257 0 .785.217.785.81 0 1.306-2.104 1.707-2.104 4.597 0 1.172.889 2.1 1.96 2.605.272.128 1.151-.888 1.151-.888s-.854-.061-.854-1.09c0-1.028 1.482-1.653 2.247-1.653 1.544 0 3.643-1.616 3.643-3.578 0-2.808-2.507-3.322-3.771-3.322z" fill="#56493E"/><path d="M31.358 22.142c-.727-1.447-2.454-1.757-3.434-1.757-.275 0-.532.157-.87.223l.088.206s2.175 4.634 2.175 5.293c1.69-1.107 2.3-2.708 2.04-3.965z" fill="url(#a)"/><path d="M27.924 20.385c-1.265 0-3.516.598-3.861 2.717-.01.06.01.099.043.113.118-.35.588-1.254 1.629-1.254.929 0 1.198.613 1.198 1.345 0 1.414-3.385 2.946-3.385 5.005 0 1.172 1.036 1.998 2.245 2.173.297.043.866-.456.866-.456s-.854-.061-.854-1.09c0-1.028 1.482-1.653 2.247-1.653 1.544 0 2.55-2.41 2.55-4.178 0-1.993-1.414-2.722-2.678-2.722z" fill="url(#b)"/><path d="M27.924 20.385c-1.264 0-3.516.598-3.861 2.717-.01.06.01.099.043.113.118-.351.46-1.436 1.64-1.436.932 0 1.385.657 1.385 1.398 0 1.565-3.583 3.364-3.583 5.134 0 1.172 1.036 1.998 2.245 2.173.297.043.867-.456.867-.456s-.855-.061-.855-1.09c0-1.028 1.482-1.653 2.247-1.653 1.544 0 2.55-2.41 2.55-4.178 0-1.993-1.414-2.722-2.678-2.722z" fill="#7E6B5A"/><path d="M27.827 27.216c-.765 0-2.247.726-2.247 1.754 0 .627.505 1.003.9 1.202.106-.08.18-.144.18-.144s-.855-.061-.855-1.09c0-1.028 1.482-1.653 2.247-1.653.322 0 .101-.069-.225-.069z" fill="#776555"/><path opacity=".102" d="M27.838 23.878a2.346 2.346 0 0 0-2.346 2.346c0 .247.036.435.018.575-.022.177-.08.287-.074.414h-.29c.001.087.015.174.042.257a.395.395 0 0 0-.124.048c.008.113.187.297.187.297a.405.405 0 0 0-.09.057c.027.128.286.265.286.265a.158.158 0 0 0-.071.032c0 .023.18.135.567.242.385-.71 1.485-1.126 2.11-1.126.674 0 1.455-.309 2.12-.82a2.347 2.347 0 0 0-2.335-2.587z"/><path d="m31.234 27.2-.004-.034c-.016-.02-.033-.011-.05.001-.037.97-.851 1.36-1.494 1.457-.467.07-.262.557.029.87.867-.396 1.815-.666 1.52-2.295z" fill="#C4C4C4"/><path d="M30.17 29.976c0-.551-.312-1.176-.66-1.708-.356-.543-2.621-.669-2.949-.046-.183.349-.596.78-.66 1.634-.088 1.167-.056 2.342 2.13 2.342 2.599 0 2.14-1.827 2.14-2.222z" fill="#B2B2B2"/><path d="M28.03 31.664a1.398 1.398 0 1 0 0-2.796 1.398 1.398 0 0 0 0 2.796z" fill="#FED8A4"/><path d="M27.627 29.857c-.464-.147-.969-.703-1.303-1.248a2.718 2.718 0 0 0-.374.897c.092.107.195.203.308.286l-.018.092h.156l-.009.101c.404.02.81.008 1.212-.037.083-.018.092-.037.028-.091z" fill="#C4C4C4"/><path d="m28.116 29.969-.442-.095.293-.076-.08-.14-.258.21-.038.08-.016.412.15-.005-.073-.393.218.371.118-.102-.301-.312.387.2.042-.15zM31.618 26.938l-.332.179.274-.313-.129-.087-.193.379.062-.433-.156-.003.032.452-.159-.262-.113.113.268.195.087.015.403-.091-.044-.144z"/><path d="M26.351 30.218c-.112-.25-.321-.386-.514-.386s-.643.073-.643.82.965 1.486.965 1.486.723.049.723-.144-.418-1.527-.53-1.776zM30.176 29.832c-.193 0-.401.137-.514.386-.113.25-.53 1.583-.53 1.776 0 .193.723.145.723.145s.964-.74.964-1.487c0-.747-.45-.82-.643-.82z" fill="#C4C4C4"/><path d="M29.753 31.903h-.518a.263.263 0 0 0-.262.262v.092a.129.129 0 0 0 .13.128h.781a.129.129 0 0 0 .129-.128v-.093a.26.26 0 0 0-.26-.26zM26.796 31.903h-.518a.263.263 0 0 0-.262.262v.092a.128.128 0 0 0 .13.128h.781a.129.129 0 0 0 .129-.128v-.093a.261.261 0 0 0-.26-.26z" fill="#CFB18D"/><path d="M30.344 26.648c-.009-.148.033-.33.033-.584a2.346 2.346 0 0 0-4.693 0c0 .247.037.434.02.574-.023.178-.082.288-.075.415.037.681 1.667 1.357 2.402 1.357.765 0 2.37-.669 2.388-1.351.003-.13-.065-.25-.075-.41z" fill="#B2B2B2"/><path d="M30.781 27.357a.393.393 0 0 0-.125-.048.83.83 0 0 0 .042-.257h-.595s-.511.546-2.055.546h-.032c-1.544 0-2.081-.546-2.081-.546h-.595c0 .087.014.174.041.257a.393.393 0 0 0-.125.048c.009.113.188.298.188.298a.4.4 0 0 0-.09.056c.027.129.286.265.286.265a.158.158 0 0 0-.072.032c.003.047.737.458 2.444.458h.029c1.707 0 2.425-.412 2.428-.458a.157.157 0 0 0-.072-.032s.26-.136.286-.265a.405.405 0 0 0-.09-.056s.18-.185.188-.298z" fill="#FFEDD0"/><path d="M28.942 25.474a1.09 1.09 0 0 0-.402.077l.06.135a.943.943 0 0 1 1.017.22l.09-.119a1.09 1.09 0 0 0-.766-.313z" fill="#957E6A"/><path d="M28.957 25.619a.949.949 0 0 0-.942.848.948.948 0 1 0 0 .2.95.95 0 1 0 .942-1.048z" fill="#FED8A4"/><path d="M27.099 25.474a1.09 1.09 0 0 0-.765.313l.089.12a.942.942 0 0 1 1.017-.221l.06-.135a1.088 1.088 0 0 0-.401-.077z" fill="#957E6A"/><path d="M28.977 26.312a.254.254 0 0 0-.07.01.14.14 0 0 1-.101.176.14.14 0 0 1-.075-.002.255.255 0 0 0-.011.073.258.258 0 1 0 .257-.257zM27.08 26.312a.251.251 0 0 0-.07.01.14.14 0 0 1-.1.176.14.14 0 0 1-.075-.002.257.257 0 1 0 .245-.184z"/><path d="M30.506 27.357a.333.333 0 0 0-.113-.048.919.919 0 0 0 .037-.257h-.535s-.169.2-.61.358c-.288.103-.692-.699-1.24-.699h-.029c-.568 0-.984.796-1.279.688-.425-.156-.595-.347-.595-.347h-.535c0 .087.012.174.037.257a.333.333 0 0 0-.112.048c.008.113.168.298.168.298a.362.362 0 0 0-.08.056c.024.129.257.265.257.265a.136.136 0 0 0-.064.032c.002.047.663.49 2.2.49h.026c1.537 0 2.183-.444 2.185-.49a.135.135 0 0 0-.064-.032s.233-.136.257-.265a.362.362 0 0 0-.08-.056s.16-.185.169-.298z" fill="#FED8A4"/><path d="M28.845 23.032h-1.628a1.65 1.65 0 0 0-1.65 1.65c0 .252.013.393.013.514 0 .12.16.088.233.048.254-.127.536-.19.82-.185.45 0 2.37.008 2.82.008.45 0 .715.12.82.201a.126.126 0 0 0 .209-.072c0-.065.013-.318.013-.515a1.65 1.65 0 0 0-1.65-1.65z" fill="#FD9109"/><path d="M29.011 22.922c-.112-.113-1.84-.137-1.969.008-.128.145-.522 1.076-.514 1.968.41 0 2.194-.064 2.997-.016-.008-.972-.401-1.848-.514-1.96z" fill="#FDA90A"/><path d="M28.03 24.979a.771.771 0 1 0 0-1.543.771.771 0 0 0 0 1.543z" fill="#FEBE0A"/><path d="M28.409 22.648h-.78a.193.193 0 0 0-.193.193v1.254a.195.195 0 0 0 .12.178c.023.01.048.015.073.015h.78a.193.193 0 0 0 .192-.193v-1.254a.193.193 0 0 0-.192-.193zM26.705 24.304h-.297a.173.173 0 0 0-.162.099l-.128.384a.12.12 0 0 0 .062.157.12.12 0 0 0 .06.01h.415a.176.176 0 0 0 .178-.167v-.384a.116.116 0 0 0-.128-.1zM29.931 24.787l-.128-.384a.174.174 0 0 0-.161-.1h-.297a.116.116 0 0 0-.129.1v.384a.176.176 0 0 0 .179.168h.414a.122.122 0 0 0 .122-.168z" fill="#FEBE0A"/><path d="M30.284 25.103c-.062-.07-.34-.428-1.08-.428l-2.29-.004c-.663 0-.88.19-1.13.432-.086.084-.003.173.07.133.071-.04.329-.177.779-.177s2.37.008 2.82.008c.45 0 .616.06.718.144.068.056.175-.04.113-.108z" fill="#FC7909"/><path d="m28.352 24.304-.273-.57h-.261v.192h.133l.273.57h.209v-.192h-.08z"/><path d="m27.922 24.023-.237.466h.21l.136-.265-.109-.201z"/><path d="M28.957 23.498c.236.08.828.613.866.624.037.01.227.008.254-.024.027-.033-.97-.713-1.12-.6z" fill="#040404" opacity=".071"/><path d="M30.13 24.006c-.16-.476-.347-.77-.76-1.001-.096.037-.39.294-.434.353-.043.06-.052.133.038.153.403.091.78.364.99.584.056.058.202.015.167-.088z" fill="#B2B2B2"/><path d="M29.373 23.407a.858.858 0 0 0-.2.164c.203.079.394.187.565.322a.82.82 0 0 0-.365-.486z" fill="#FED8A4"/><path d="M25.984 24.098c.027.032.217.034.255.024.037-.011.63-.544.865-.624-.15-.113-1.146.567-1.12.6z" fill="#040404" opacity=".071"/><path d="M27.125 23.358c-.042-.059-.337-.316-.433-.353-.413.23-.6.525-.761 1.002-.035.103.11.146.166.088.211-.22.588-.493.991-.584.09-.02.08-.094.037-.153z" fill="#B2B2B2"/><path d="M26.689 23.407a.82.82 0 0 0-.365.486c.17-.135.361-.243.564-.322a.855.855 0 0 0-.2-.165z" fill="#FED8A4"/><path d="M28.02 27.789c-.15.096-.509.144-.734.064 0 .284.525.434.75.434.23 0 .729-.134.729-.445-.31.129-.6-.01-.745-.053z" fill="#CFB18D"/><path d="M28.009 28.169c-.117 0-.233.014-.346.043.12.044.245.07.373.075.12-.003.238-.026.351-.066a1.336 1.336 0 0 0-.378-.052z" fill="#A38B72"/><path d="M28.02 27.789a.726.726 0 0 1-.252.086v.074a.097.097 0 0 0 .097.097h.326a.097.097 0 0 0 .09-.06.096.096 0 0 0 .007-.037v-.078c-.11-.025-.204-.063-.268-.082z" fill="#fff"/><path d="M28.02 27.789a.726.726 0 0 1-.252.086v.074a.097.097 0 0 0 .097.097h.166v-.254c-.004 0-.008-.003-.01-.003z" fill="#F6F6F6"/><path d="M28.374 27.07h-.686c-.108 0-.145.145-.082.208l.344.345a.11.11 0 0 0 .156.005c.037-.043.277-.288.34-.35.073-.074.017-.207-.072-.207z" fill="#957E6A"/><path d="M28.374 27.071h-.686c-.108 0-.145.105-.082.15l.344.249a.142.142 0 0 0 .156.004c.037-.031.277-.209.34-.253.073-.054.017-.15-.072-.15z" fill="#CFB18D"/><path fill-rule="evenodd" clip-rule="evenodd" d="M15.504 4.619a.5.5 0 0 1 .5 0l10.065 5.84a.5.5 0 0 1 .25.432v8.124a.5.5 0 0 1-1 0v-7.257l-8.544 4.945-.066 9.478 5.583-3.231a.5.5 0 0 1 .5.865l-6.338 3.67a.5.5 0 0 1-.502 0L5.93 21.652a.5.5 0 0 1-.248-.433V10.577a.5.5 0 0 1 .25-.433l9.572-5.525zm.205 21.567.066-9.485-9.093-5.258v9.49l9.027 5.253zM7.181 10.577l9.096 5.259 3.773-2.184-9.074-5.265-3.795 2.19zm4.794-2.767 9.073 5.264 3.773-2.184-9.068-5.26-3.778 2.18z" fill="#0278D5"/><defs><linearGradient id="a" x1="27.053" y1="23.246" x2="31.415" y2="23.246" gradientUnits="userSpaceOnUse"><stop offset=".765" stop-color="#897564"/><stop offset="1" stop-color="#7E6B5A"/></linearGradient><linearGradient id="b" x1="23.548" y1="25.436" x2="30.602" y2="25.436" gradientUnits="userSpaceOnUse"><stop offset=".01" stop-color="#897564"/><stop offset=".459" stop-color="#7E6B5A"/></linearGradient></defs></svg>