<svg xmlns="http://www.w3.org/2000/svg" width="24" height="25" fill="none" viewBox="0 0 24 25">
  <path fill="url(#a)" fill-rule="evenodd" d="M13.588 13.074c0 .068-.027 1.51-1.193 1.787V10.51l1.193.517v2.047Zm-3.177-.006v-2.041l1.193-.517v4.353c-1.136-.265-1.192-1.624-1.193-1.795Zm3.73-2.665-1.984-.859a.396.396 0 0 0-.315 0l-1.984.86a.397.397 0 0 0-.238.362v2.302c0 .914.498 2.642 2.38 2.642s2.38-1.724 2.38-2.636v-2.308c0-.157-.094-.3-.239-.363Zm5.269 7.75a1.268 1.268 0 0 1 0-2.534c.698 0 1.267.568 1.267 1.267a1.27 1.27 0 0 1-1.267 1.267Zm-7.372-1.663a3.948 3.948 0 0 1-3.944-3.944 3.948 3.948 0 0 1 3.944-3.944 3.949 3.949 0 0 1 3.944 3.944 3.948 3.948 0 0 1-3.944 3.944Zm1.229 4.794A1.27 1.27 0 0 1 12 22.551a1.268 1.268 0 0 1 0-2.534c.698 0 1.267.568 1.267 1.267Zm-2.534-17.57c0-.699.568-1.268 1.267-1.268.698 0 1.267.57 1.267 1.267a1.268 1.268 0 0 1-2.533 0ZM4.54 17.672a1.268 1.268 0 0 1 0-2.534 1.268 1.268 0 0 1 0 2.534Zm.323-8.412a1.268 1.268 0 0 1 0-2.534c.698 0 1.267.568 1.267 1.267S5.56 9.26 4.863 9.26ZM19.46 6.525a1.268 1.268 0 1 1 0 2.535 1.268 1.268 0 0 1 0-2.535Zm-.05 8.302a2.05 2.05 0 0 0-1.457.607l-1.559-1.033a4.704 4.704 0 0 0-.258-4.22l1.783-1.04c.377.431.926.709 1.541.709a2.06 2.06 0 0 0 2.06-2.06 2.06 2.06 0 0 0-2.059-2.057 2.06 2.06 0 0 0-2.058 2.057c0 .235.048.455.12.666l-1.838 1.072a4.724 4.724 0 0 0-3.289-1.7V5.73a2.06 2.06 0 0 0 1.663-2.018A2.061 2.061 0 0 0 12 1.655a2.06 2.06 0 0 0-2.058 2.058c0 1 .716 1.833 1.662 2.018v2.1A4.731 4.731 0 0 0 8.232 9.74l-1.47-.958c.101-.243.158-.508.158-.787a2.061 2.061 0 0 0-2.058-2.058 2.061 2.061 0 0 0-2.059 2.058c0 1.135.924 2.059 2.059 2.059a2.05 2.05 0 0 0 1.462-.613l1.492.973a4.695 4.695 0 0 0-.513 2.133c0 .585.11 1.143.305 1.66l-1.517.863a2.045 2.045 0 0 0-1.552-.722 2.06 2.06 0 0 0-2.058 2.059 2.06 2.06 0 0 0 2.058 2.058 2.06 2.06 0 0 0 2.058-2.058c0-.228-.046-.443-.114-.648l1.466-.835a4.735 4.735 0 0 0 3.655 2.336v2.007a2.06 2.06 0 0 0-1.662 2.018A2.06 2.06 0 0 0 12 23.343a2.061 2.061 0 0 0 2.058-2.059c0-1-.717-1.833-1.663-2.018v-2.003a4.732 4.732 0 0 0 3.623-2.16l1.494.989a2.06 2.06 0 0 0 1.898 2.852 2.061 2.061 0 0 0 2.058-2.058 2.061 2.061 0 0 0-2.058-2.059Z" clip-rule="evenodd"/>
  <defs>
    <linearGradient id="a" x1="2.481" x2="21.519" y1="23.343" y2="23.343" gradientUnits="userSpaceOnUse">
      <stop stop-color="#F0582B"/>
      <stop offset="1" stop-color="#F7971E"/>
      <stop offset="1" stop-color="#F7981D"/>
    </linearGradient>
  </defs>
</svg>
