<svg viewBox="0 0 33 32" xmlns="http://www.w3.org/2000/svg"><path fill-rule="evenodd" clip-rule="evenodd" d="M14.957 4.5a.5.5 0 1 0-1 0l-.003 14.258-4.392-4.505a.5.5 0 1 0-.716.698l5.22 5.355a.499.499 0 0 0 .579.147.498.498 0 0 0 .199-.147l5.218-5.355a.5.5 0 0 0-.716-.698l-4.39 4.504V4.5zM5.954 19.503a.5.5 0 1 0-1 0V24.5a.5.5 0 0 0 .5.5h18a.5.5 0 0 0 .5-.5v-4.997a.5.5 0 1 0-1 0V24h-17v-4.497z" fill="#fff"/><path d="M29.994 28.24c.643-.097 1.457-.488 1.494-1.458.022-.016.043-.027.064.027.215 1.339-.096 1.757-.096 1.757l-.059-.048a.57.57 0 0 1-.091.198c-.021-.021-.053-.059-.053-.059s-.558.563-.826.712c-.358-.026-1.119-1.027-.433-1.13z" fill="#D9DAE5"/><path d="M28.231 20c-1.264 0-3.516.598-3.861 2.717-.02.126.09.157.18.073a.913.913 0 0 1 .624-.271c.257 0 .786.217.786.81 0 1.306-2.105 1.707-2.105 4.596 0 1.173.89 2.1 1.96 2.605.272.128 1.152-.887 1.152-.887s-.854-.061-.854-1.09c0-.52.38-.938.854-1.223.462-.278-.378-2.723 0-2.723.58 0 3.123 1.744 3.228 1.676.99-.646 1.808-1.737 1.808-2.962 0-2.807-2.508-3.321-3.772-3.321z" fill="#fff"/><path d="M31.665 21.757C30.938 20.309 29.21 20 28.23 20c-.275 0-.532.157-.87.223l.088.206s2.175 4.634 2.175 5.292c1.69-1.107 2.3-2.707 2.041-3.964z" fill="#F3F3FA"/><path d="M28.231 20c-1.264 0-3.516.598-3.861 2.717-.01.06.01.098.043.113.118-.351.588-1.254 1.629-1.254.93 0 1.199.613 1.199 1.345 0 1.414-3.386 2.946-3.386 5.004 0 1.173 1.036 2 2.245 2.174.297.043.867-.456.867-.456s-.854-.061-.854-1.09c0-.466.304-.85.708-1.129.487-.337-.273-2.314.146-2.314.92 0 3.04.936 3.48-.128a6.153 6.153 0 0 0 .463-2.26c0-1.994-1.415-2.722-2.679-2.722z" fill="#F3F3FA"/><path d="M28.231 20c-1.264 0-3.516.598-3.861 2.717-.01.06.01.098.043.113.118-.351.46-1.436 1.64-1.436.932 0 1.385.656 1.385 1.398 0 1.565-3.583 3.364-3.583 5.133 0 1.173 1.036 2 2.246 2.174.297.043.866-.456.866-.456s-.854-.061-.854-1.09c0-.42.247-.774.593-1.044.499-.39.009-2.43.461-2.43.891 0 2.796 1.018 3.239 0a6.157 6.157 0 0 0 .504-2.358C30.91 20.73 29.495 20 28.23 20z" fill="#F3F3FA"/><path d="M28.135 26.831c-.766 0-2.247.726-2.247 1.754 0 .627.504 1.003.898 1.202.108-.08.18-.144.18-.144s-.853-.062-.853-1.09c0-1.029 1.481-1.653 2.247-1.653.322 0 .1-.069-.225-.069z" fill="#B0B1C3"/><path d="M28.145 23.493a2.346 2.346 0 0 0-2.346 2.346c0 .247.037.434.019.574-.023.178-.081.288-.075.415h-.289c0 .087.015.174.042.257a.393.393 0 0 0-.125.048c.009.112.187.297.187.297a.408.408 0 0 0-.089.056c.027.129.286.266.286.266a.157.157 0 0 0-.072.032c.001.023.181.134.568.242.385-.71.485-3.278 1.11-3.278.674 0 2.897 1.332 3.12 1.332a2.347 2.347 0 0 0-2.335-2.587z" fill="#B0B1C3"/><path d="m31.542 26.814-.005-.033c-.016-.02-.032-.011-.049.001-.037.97-.852 1.36-1.494 1.457-.468.07-.263.557.028.869.867-.395 1.815-.665 1.52-2.294z" fill="#F3F3FA"/><path d="M30.478 29.59c0-.55-.312-1.175-.661-1.707-.355-.543-2.62-.669-2.948-.046-.184.349-.597.78-.661 1.634-.088 1.167-.055 2.342 2.13 2.342 2.6 0 2.14-1.827 2.14-2.222z" fill="#F3F3FA"/><path d="M28.338 31.28a1.398 1.398 0 1 0 0-2.797 1.398 1.398 0 0 0 0 2.796z" fill="#fff"/><path d="M27.934 29.471c-.464-.146-.969-.703-1.302-1.248a2.718 2.718 0 0 0-.374.898c.091.107.195.203.308.286l-.019.092h.156l-.009.1c.405.02.81.009 1.213-.036.082-.018.091-.037.027-.092zM26.659 29.833c-.113-.25-.322-.386-.515-.386-.192 0-.642.073-.642.82s.964 1.486.964 1.486.723.049.723-.144-.418-1.527-.53-1.776zM30.484 29.447c-.193 0-.402.137-.515.386-.112.25-.53 1.583-.53 1.776 0 .193.723.144.723.144s.965-.739.965-1.486-.45-.82-.643-.82z" fill="#D9DAE5"/><path d="M30.06 31.518h-.517a.263.263 0 0 0-.262.262v.091a.129.129 0 0 0 .129.129h.782a.129.129 0 0 0 .128-.129v-.092a.26.26 0 0 0-.26-.26zM27.103 31.518h-.518a.263.263 0 0 0-.241.162.261.261 0 0 0-.02.1v.091a.128.128 0 0 0 .129.129h.782a.129.129 0 0 0 .128-.129v-.092a.26.26 0 0 0-.26-.26z" fill="#fff"/><path fill-rule="evenodd" clip-rule="evenodd" d="M30.664 26.015c-.01.094-.017.175-.013.248.005.078.023.147.04.211a.702.702 0 0 1 .035.2c-.017.682-1.622 1.351-2.388 1.351-.735 0-2.364-.676-2.402-1.357a.696.696 0 0 1 .033-.215c.015-.058.032-.123.042-.2.01-.078.003-.17-.005-.278a3.828 3.828 0 0 1-.014-.297 2.346 2.346 0 0 1 4.693 0c0 .13-.011.24-.02.337zm-3.276-.09a.254.254 0 0 0-.07.01.14.14 0 0 1-.101.176.14.14 0 0 1-.075-.002.252.252 0 0 0 .147.31.257.257 0 1 0 .099-.494zm1.896 0a.254.254 0 0 0-.07.01.14.14 0 0 1-.1.176.14.14 0 0 1-.075-.002.255.255 0 0 0-.012.073.258.258 0 1 0 .257-.257z" fill="#fff"/><path d="M31.089 26.972a.393.393 0 0 0-.125-.048.83.83 0 0 0 .041-.257h-.595s-.51.546-2.055.546h-.031c-1.544 0-2.082-.546-2.082-.546h-.595c0 .087.014.174.042.257a.393.393 0 0 0-.125.048c.009.113.187.298.187.298a.405.405 0 0 0-.09.056c.027.128.286.265.286.265a.157.157 0 0 0-.071.032c.002.046.736.458 2.443.458h.03c1.706 0 2.425-.412 2.427-.458a.157.157 0 0 0-.071-.032s.259-.137.285-.265a.405.405 0 0 0-.089-.056s.179-.185.188-.298z" fill="#D9DAE5"/><path d="M29.249 25.09a1.09 1.09 0 0 0-.402.076l.06.135a.942.942 0 0 1 1.018.22l.09-.119a1.09 1.09 0 0 0-.766-.313zM27.406 25.09a1.09 1.09 0 0 0-.765.312l.09.12a.942.942 0 0 1 1.016-.221l.06-.135a1.088 1.088 0 0 0-.4-.077z" fill="#fff"/><path d="M30.813 26.972a.333.333 0 0 0-.112-.048.915.915 0 0 0 .037-.257h-.535s-.17.2-.61.358c-.288.103-.692-.699-1.24-.699h-.029c-.568 0-.985.796-1.28.688-.425-.156-.594-.347-.594-.347h-.536c0 .087.013.173.037.257a.333.333 0 0 0-.112.048c.008.113.169.298.169.298a.362.362 0 0 0-.08.056c.023.128.257.265.257.265a.136.136 0 0 0-.065.032c.002.046.663.49 2.2.49h.026c1.537 0 2.184-.444 2.186-.49a.135.135 0 0 0-.064-.032s.233-.137.257-.265a.36.36 0 0 0-.08-.056s.16-.185.168-.298zM29.153 22.646h-1.63a1.65 1.65 0 0 0-1.649 1.65c0 .253.013.394.013.515 0 .12.161.088.233.048.255-.127.536-.19.82-.185.45 0 2.37.008 2.82.008.45 0 .716.12.82.201a.126.126 0 0 0 .21-.072c0-.065.012-.319.012-.515a1.65 1.65 0 0 0-1.65-1.65z" fill="#F3F3FA"/><path d="M29.319 22.537c-.113-.113-1.84-.137-1.97.008-.128.144-.521 1.076-.513 1.968.41 0 2.193-.064 2.997-.016-.008-.972-.402-1.848-.514-1.96z" fill="#D9DAE5"/><path d="M28.338 24.594a.771.771 0 1 0 0-1.543.771.771 0 0 0 0 1.543z" fill="#B0B1C3"/><path d="M28.716 22.263h-.78a.193.193 0 0 0-.192.193v1.254a.193.193 0 0 0 .192.193h.78a.193.193 0 0 0 .193-.193v-1.254a.193.193 0 0 0-.193-.193zM27.012 23.919h-.297a.173.173 0 0 0-.162.099l-.128.384a.123.123 0 0 0 .014.118.122.122 0 0 0 .11.05h.413a.176.176 0 0 0 .179-.168v-.384a.116.116 0 0 0-.129-.1zM30.239 24.402l-.128-.384a.172.172 0 0 0-.162-.1h-.297a.115.115 0 0 0-.129.1v.384a.176.176 0 0 0 .18.168h.413a.121.121 0 0 0 .123-.168z" fill="#B0B1C3"/><path d="M30.592 24.718c-.062-.07-.341-.428-1.08-.428l-2.291-.004c-.662 0-.88.19-1.129.432-.086.084-.004.173.069.133.072-.04.329-.177.779-.177s2.37.008 2.82.008c.45 0 .617.06.718.144.069.056.175-.04.114-.108z" fill="#fff"/><path d="M29.265 23.112c.236.08.828.614.865.625.038.01.228.008.255-.025.026-.032-.97-.712-1.12-.6z" fill="#B0B1C3" opacity=".071"/><path d="M30.438 23.621c-.16-.476-.348-.771-.76-1.001-.097.037-.392.294-.434.353-.043.06-.053.132.037.153.403.09.78.364.991.584.056.058.201.015.166-.089z" fill="#D9DAE5"/><path d="M29.68 23.021a.855.855 0 0 0-.2.165c.204.079.394.187.565.322a.82.82 0 0 0-.365-.487z" fill="#fff"/><path d="M26.292 23.712c.027.033.217.035.254.025.038-.011.63-.544.865-.624-.15-.113-1.146.567-1.12.6z" fill="#B0B1C3" opacity=".071"/><path d="M27.433 22.973c-.043-.059-.338-.316-.434-.353-.412.23-.6.525-.76 1.001-.036.104.11.147.165.089.211-.22.588-.493.991-.584.09-.02.08-.094.038-.153z" fill="#D9DAE5"/><path d="M26.996 23.021a.82.82 0 0 0-.365.486c.171-.134.362-.242.565-.32a.857.857 0 0 0-.2-.166z" fill="#fff"/><path d="M28.328 27.404c-.15.096-.51.144-.735.064 0 .284.526.434.75.434.23 0 .73-.134.73-.445-.311.129-.6-.01-.745-.053z" fill="#D9DAE5"/><path d="M28.316 27.784c-.116 0-.233.013-.346.042.12.045.246.07.374.076.12-.004.238-.026.351-.066a1.337 1.337 0 0 0-.379-.052z" fill="#B0B1C3"/><path d="M28.328 27.404a.724.724 0 0 1-.252.085v.075a.096.096 0 0 0 .096.097h.327a.096.096 0 0 0 .089-.06.097.097 0 0 0 .007-.037v-.078c-.11-.025-.203-.064-.267-.082z" fill="#fff"/><path d="M28.328 27.404a.724.724 0 0 1-.252.085v.075a.096.096 0 0 0 .096.097h.166v-.254l-.01-.004z" fill="#F6F6F6"/><path d="M28.681 26.686h-.686c-.107 0-.144.144-.082.206l.345.346a.11.11 0 0 0 .155.005c.038-.043.278-.288.34-.35.073-.074.018-.207-.072-.207z" fill="#fff"/><path d="M28.681 26.686h-.686c-.107 0-.144.105-.082.15l.345.249a.142.142 0 0 0 .155.003c.038-.03.278-.208.34-.253.073-.053.018-.15-.072-.15zM28.424 29.584l-.442-.095.292-.077-.08-.139-.258.21-.037.08-.016.412.15-.005-.074-.393.219.371.117-.102-.3-.312.386.2.043-.15zM31.925 26.553l-.331.179.273-.313-.129-.087-.192.379.062-.433-.156-.003.032.452-.159-.262-.114.113.269.195.087.015.402-.091-.044-.144z" fill="#D9DAE5"/><path d="m28.66 23.919-.273-.57h-.262v.192h.133l.273.57h.209v-.192h-.08z" fill="#fff"/><path d="m28.23 23.637-.237.466h.209l.136-.265-.108-.2z" fill="#fff"/><path fill-rule="evenodd" clip-rule="evenodd" d="M28.63 25.477a.948.948 0 1 1-.308.805.948.948 0 1 1 0-.2.948.948 0 0 1 .309-.605zm-1.242.45a.254.254 0 0 0-.07.01.14.14 0 0 1-.036.14.14.14 0 0 1-.14.034.251.251 0 0 0 .147.31.257.257 0 1 0 .099-.495zm1.896 0a.254.254 0 0 0-.07.01.14.14 0 0 1-.1.176.14.14 0 0 1-.075-.002.255.255 0 0 0-.012.073.258.258 0 1 0 .257-.258z" fill="#D9DAE5"/></svg>