<svg viewBox="0 0 32 32" xmlns="http://www.w3.org/2000/svg"><path fill-rule="evenodd" clip-rule="evenodd" d="M14.957 4.5a.5.5 0 1 0-1 0l-.003 14.258-4.392-4.505a.5.5 0 1 0-.716.698l5.22 5.355a.499.499 0 0 0 .579.147.498.498 0 0 0 .199-.147l5.218-5.355a.5.5 0 0 0-.716-.698l-4.39 4.504V4.5zM5.954 19.503a.5.5 0 1 0-1 0V24.5a.5.5 0 0 0 .5.5h18a.5.5 0 0 0 .5-.5v-4.997a.5.5 0 1 0-1 0V24h-17v-4.497z" fill="#0278D5"/><path d="M29.991 28.24c.643-.097 1.457-.488 1.495-1.458.021-.016.042-.027.064.027.214 1.34-.097 1.757-.097 1.757l-.058-.048a.57.57 0 0 1-.092.198 1.48 1.48 0 0 1-.053-.059s-.557.563-.825.713c-.359-.027-1.12-1.028-.434-1.13z" fill="#B2B2B2"/><path d="M28.229 20c-1.265 0-3.516.598-3.862 2.717-.02.126.09.157.18.073a.913.913 0 0 1 .625-.271c.257 0 .785.217.785.81 0 1.306-2.104 1.707-2.104 4.596 0 1.173.889 2.1 1.96 2.606.272.128 1.151-.888 1.151-.888s-.854-.061-.854-1.09c0-1.029 1.482-1.653 2.247-1.653 1.544 0 3.643-1.616 3.643-3.578C32 20.514 29.493 20 28.23 20z" fill="#56493E"/><path d="M31.662 21.757C30.936 20.309 29.21 20 28.23 20c-.275 0-.532.157-.871.223l.088.206s2.175 4.634 2.175 5.293c1.69-1.108 2.3-2.708 2.042-3.965z" fill="url(#a)"/><path d="M28.229 20c-1.265 0-3.516.598-3.862 2.717-.01.06.01.098.044.113.117-.351.588-1.254 1.628-1.254.93 0 1.2.613 1.2 1.345 0 1.414-3.387 2.946-3.387 5.004 0 1.173 1.037 2 2.246 2.174.297.043.866-.456.866-.456s-.854-.061-.854-1.09c0-1.029 1.482-1.653 2.247-1.653 1.544 0 2.55-2.41 2.55-4.178 0-1.993-1.414-2.722-2.678-2.722z" fill="url(#b)"/><path d="M28.229 20c-1.265 0-3.516.598-3.862 2.717-.01.06.01.098.044.113.118-.351.46-1.436 1.64-1.436.932 0 1.385.657 1.385 1.398 0 1.565-3.583 3.364-3.583 5.133 0 1.173 1.036 2 2.245 2.174.297.043.866-.456.866-.456s-.854-.061-.854-1.09c0-1.029 1.482-1.653 2.247-1.653 1.544 0 2.55-2.41 2.55-4.178 0-1.993-1.414-2.722-2.678-2.722z" fill="#7E6B5A"/><path d="M28.132 26.831c-.765 0-2.247.726-2.247 1.754 0 .627.505 1.003.899 1.202.107-.08.18-.144.18-.144s-.854-.061-.854-1.09c0-1.029 1.482-1.653 2.247-1.653.322 0 .101-.069-.225-.069z" fill="#776555"/><path opacity=".102" d="M28.143 23.493a2.347 2.347 0 0 0-2.346 2.346c0 .247.036.435.018.574-.022.178-.08.288-.074.415h-.29c.001.087.015.174.042.257a.396.396 0 0 0-.125.048c.01.113.188.297.188.297a.407.407 0 0 0-.09.056c.027.13.286.266.286.266a.158.158 0 0 0-.071.032c0 .023.18.135.567.242.385-.71 1.485-1.126 2.11-1.126.674 0 1.455-.309 2.12-.82a2.346 2.346 0 0 0-2.335-2.587z"/><path d="M31.54 26.814c-.003-.011-.004-.022-.005-.033-.017-.02-.033-.011-.05.001-.037.97-.851 1.36-1.494 1.457-.467.07-.263.557.029.869.867-.395 1.814-.665 1.52-2.294z" fill="#C4C4C4"/><path d="M30.476 29.59c0-.55-.313-1.175-.662-1.707-.355-.543-2.62-.669-2.948-.046-.183.349-.597.78-.66 1.634-.089 1.167-.056 2.342 2.13 2.342 2.599 0 2.14-1.827 2.14-2.222z" fill="#B2B2B2"/><path d="M28.336 31.28a1.398 1.398 0 1 0 0-2.797 1.398 1.398 0 0 0 0 2.796z" fill="#FED8A4"/><path d="M27.932 29.471c-.464-.146-.97-.702-1.303-1.248a2.718 2.718 0 0 0-.374.898c.092.107.195.203.308.286l-.018.092h.156l-.01.1c.405.02.81.009 1.213-.036.083-.018.092-.037.028-.092z" fill="#C4C4C4"/><path d="m28.421 29.584-.442-.095.292-.077-.08-.139-.257.21-.038.08-.016.412.15-.005-.073-.393.218.371.118-.102-.302-.312.388.2.042-.15zM31.923 26.553l-.332.179.274-.313-.129-.087-.193.379.062-.433-.156-.003.032.452-.159-.262-.113.113.268.195.087.015.403-.091-.044-.144z"/><path d="M26.656 29.833c-.112-.25-.321-.386-.514-.386s-.643.073-.643.82.964 1.486.964 1.486.723.049.723-.144-.417-1.527-.53-1.776zM30.481 29.447c-.193 0-.402.137-.514.386-.113.25-.53 1.583-.53 1.776 0 .193.723.144.723.144s.964-.739.964-1.486-.45-.82-.643-.82z" fill="#C4C4C4"/><path d="M30.058 31.518h-.518a.263.263 0 0 0-.242.162.261.261 0 0 0-.02.1v.091a.129.129 0 0 0 .13.129h.781a.129.129 0 0 0 .129-.129v-.092a.26.26 0 0 0-.26-.26zM27.1 31.518h-.517a.263.263 0 0 0-.262.262v.091a.128.128 0 0 0 .13.129h.781a.129.129 0 0 0 .129-.129v-.092a.261.261 0 0 0-.26-.26z" fill="#CFB18D"/><path d="M30.649 26.263c-.01-.149.033-.33.033-.584a2.347 2.347 0 0 0-4.693 0c0 .246.037.434.02.574-.023.178-.082.288-.075.416.037.68 1.667 1.356 2.402 1.356.765 0 2.37-.669 2.387-1.351.004-.13-.064-.25-.074-.411z" fill="#B2B2B2"/><path d="M31.086 26.972a.396.396 0 0 0-.125-.048.836.836 0 0 0 .042-.257h-.595s-.511.546-2.055.546h-.032c-1.544 0-2.082-.546-2.082-.546h-.594c0 .087.014.174.041.257a.394.394 0 0 0-.125.048c.009.113.188.298.188.298a.405.405 0 0 0-.09.056c.027.129.286.265.286.265a.159.159 0 0 0-.072.032c.003.046.737.458 2.444.458h.029c1.707 0 2.425-.412 2.428-.458a.156.156 0 0 0-.072-.032s.26-.136.286-.265a.402.402 0 0 0-.09-.056s.18-.185.188-.298z" fill="#FFEDD0"/><path d="M29.246 25.09c-.137 0-.273.025-.401.076l.06.135a.941.941 0 0 1 1.017.22l.09-.119a1.09 1.09 0 0 0-.766-.313z" fill="#957E6A"/><path d="M29.262 25.234a.948.948 0 0 0-.942.848.948.948 0 1 0 0 .2.948.948 0 1 0 .942-1.048z" fill="#FED8A4"/><path d="M27.404 25.09c-.287-.001-.562.111-.766.312l.09.12a.941.941 0 0 1 1.017-.221l.06-.135a1.088 1.088 0 0 0-.401-.077z" fill="#957E6A"/><path d="M29.282 25.927a.257.257 0 0 0-.07.01.14.14 0 0 1-.101.176.138.138 0 0 1-.075-.002.256.256 0 0 0-.012.073.258.258 0 0 0 .44.181.257.257 0 0 0-.182-.438zM27.385 25.927a.255.255 0 0 0-.07.01.14.14 0 0 1-.1.176.14.14 0 0 1-.075-.002.257.257 0 1 0 .245-.184z"/><path d="M30.81 26.972a.335.335 0 0 0-.112-.048.918.918 0 0 0 .037-.257H30.2s-.169.2-.61.358c-.288.103-.692-.699-1.24-.699h-.029c-.568 0-.985.796-1.279.688-.426-.156-.595-.347-.595-.347h-.535c0 .087.012.174.037.257a.332.332 0 0 0-.113.048c.009.113.17.298.17.298a.357.357 0 0 0-.081.056c.024.129.257.265.257.265a.136.136 0 0 0-.064.032c.002.046.663.49 2.2.49h.026c1.537 0 2.183-.444 2.185-.49a.135.135 0 0 0-.064-.032s.233-.136.257-.265a.359.359 0 0 0-.08-.056s.16-.185.169-.298z" fill="#FED8A4"/><path d="M29.15 22.646h-1.629a1.65 1.65 0 0 0-1.65 1.65c0 .253.014.394.014.515 0 .12.16.088.233.048.254-.127.535-.19.82-.185.45 0 2.37.008 2.82.008.45 0 .715.12.82.201a.127.127 0 0 0 .125.026.126.126 0 0 0 .084-.098c0-.064.013-.318.013-.514a1.65 1.65 0 0 0-1.65-1.65z" fill="#FD9109"/><path d="M29.316 22.537c-.112-.113-1.84-.137-1.969.008-.128.144-.522 1.076-.514 1.968.41 0 2.194-.064 2.997-.016-.008-.972-.401-1.848-.514-1.96z" fill="#FDA90A"/><path d="M28.336 24.594a.771.771 0 1 0 0-1.543.771.771 0 0 0 0 1.543z" fill="#FEBE0A"/><path d="M28.713 22.264h-.78a.192.192 0 0 0-.192.192v1.254a.193.193 0 0 0 .193.193h.78a.193.193 0 0 0 .192-.193v-1.254a.193.193 0 0 0-.193-.193zM27.01 23.919h-.297a.173.173 0 0 0-.162.099l-.128.384a.122.122 0 0 0 .062.157c.019.009.04.013.06.01h.414a.176.176 0 0 0 .18-.167v-.384a.116.116 0 0 0-.13-.1zM30.236 24.402l-.128-.384a.172.172 0 0 0-.161-.1h-.297a.116.116 0 0 0-.129.1v.384a.175.175 0 0 0 .179.168h.413a.122.122 0 0 0 .123-.168z" fill="#FEBE0A"/><path d="M30.59 24.718c-.063-.07-.342-.428-1.081-.428l-2.29-.004c-.663 0-.88.19-1.13.432-.086.084-.003.173.069.133.072-.04.33-.177.78-.177s2.37.008 2.82.008c.45 0 .616.06.718.144.068.056.175-.04.113-.108z" fill="#FC7909"/><path d="m28.657 23.919-.273-.57h-.261v.192h.132l.274.57h.209v-.192h-.08z"/><path d="m28.227 23.637-.237.467h.21l.136-.266-.109-.2z"/><path d="M29.262 23.113c.236.08.828.613.866.624.037.01.227.008.254-.024.027-.033-.97-.713-1.12-.6z" fill="#040404" opacity=".071"/><path d="M30.436 23.622c-.161-.477-.349-.772-.761-1.002-.096.037-.391.294-.434.353-.043.06-.053.133.038.153.403.091.78.364.99.584.056.058.202.015.167-.088z" fill="#B2B2B2"/><path d="M29.678 23.021a.86.86 0 0 0-.2.165c.203.079.394.187.565.322a.82.82 0 0 0-.365-.487z" fill="#FED8A4"/><path d="M26.29 23.713c.026.032.216.034.254.024.037-.011.63-.544.865-.624-.15-.113-1.146.567-1.12.6z" fill="#040404" opacity=".071"/><path d="M27.43 22.973c-.042-.059-.337-.316-.434-.353-.412.23-.6.525-.76 1.002-.035.103.11.146.166.088.21-.22.588-.493.99-.584.091-.02.081-.094.038-.153z" fill="#B2B2B2"/><path d="M26.994 23.021a.82.82 0 0 0-.366.487c.172-.135.362-.243.565-.322a.85.85 0 0 0-.2-.165z" fill="#FED8A4"/><path d="M28.325 27.404c-.15.096-.509.144-.734.064 0 .284.525.434.75.434.23 0 .729-.134.729-.445-.311.129-.6-.01-.745-.053z" fill="#CFB18D"/><path d="M28.314 27.784a1.37 1.37 0 0 0-.346.042c.12.045.245.07.373.076.12-.004.238-.026.351-.066a1.34 1.34 0 0 0-.378-.052z" fill="#A38B72"/><path d="M28.325 27.404a.726.726 0 0 1-.252.086v.074a.097.097 0 0 0 .096.097h.327a.097.097 0 0 0 .09-.06.096.096 0 0 0 .007-.037v-.078c-.11-.025-.204-.063-.268-.082z" fill="#fff"/><path d="M28.325 27.404a.726.726 0 0 1-.252.086v.074a.097.097 0 0 0 .096.097h.167v-.254l-.011-.003z" fill="#F6F6F6"/><path d="M28.679 26.686h-.686c-.108 0-.145.144-.082.207l.344.345a.11.11 0 0 0 .156.005c.037-.043.277-.288.34-.35.073-.074.017-.207-.072-.207z" fill="#957E6A"/><path d="M28.679 26.686h-.686c-.108 0-.145.105-.082.15l.344.249a.142.142 0 0 0 .156.004c.037-.031.277-.209.34-.253.073-.054.017-.15-.072-.15z" fill="#CFB18D"/><defs><linearGradient id="a" x1="27.358" y1="22.861" x2="31.72" y2="22.861" gradientUnits="userSpaceOnUse"><stop offset=".765" stop-color="#897564"/><stop offset="1" stop-color="#7E6B5A"/></linearGradient><linearGradient id="b" x1="23.852" y1="25.051" x2="30.907" y2="25.051" gradientUnits="userSpaceOnUse"><stop offset=".01" stop-color="#897564"/><stop offset=".459" stop-color="#7E6B5A"/></linearGradient></defs></svg>