<svg xmlns="http://www.w3.org/2000/svg" fill="none" viewBox="0 0 24 24"><g clip-path="url(#a)"><path fill="url(#b)" d="M24 0H0v24h24z"/><path fill="#fff" fill-rule="evenodd" d="M20.4 11.701h-3.41l1.673-1.678-.421-.422-2.31 2.317 2.31 2.317.421-.422-1.51-1.514H20.4zM5.417 10.023l1.673 1.678H3.9v.598h3.027l-1.51 1.514.421.422 2.31-2.317-2.31-2.317zm4.648 4.665h4.467v-4.48h-4.467zm5.018-4.779h.64v.598h-.595v.896h.596V12h-.596v.896h.596v.597h-.596v.896h.596v.597h-.641a.5.5 0 0 1-.253.254v.642h-.595v-.597h-.894v.597h-.595v-.597h-.894v.597h-.595v-.597h-.894v.597h-.596v-.642a.5.5 0 0 1-.252-.254h-.641v-.597h.596v-.896h-.596v-.597h.596V12h-.596v-.597h.596v-.896h-.596v-.598h.64a.5.5 0 0 1 .253-.253v-.642h.596v.597h.894v-.597h.595v.597h.893v-.597h.596v.597h.894v-.597h.595v.642c.113.05.202.141.253.253m-2.635 9.348V16.18h-.596v3.076L10.26 17.66l-.42.423 2.31 2.317 2.31-2.317-.42-.422zM10.26 6.339l-.42-.422L12.15 3.6l2.31 2.317-.42.422-1.592-1.596v3.338h-.596V4.743z" clip-rule="evenodd"/></g><defs><linearGradient id="b" x1="0" x2="2400" y1="2400" y2="0" gradientUnits="userSpaceOnUse"><stop stop-color="#c8511b"/><stop offset="1" stop-color="#f90"/></linearGradient><clipPath id="a"><rect width="24" height="24" fill="#fff" rx="2"/></clipPath></defs></svg>