<svg fill="currentColor" xmlns="http://www.w3.org/2000/svg"><path fill-rule="evenodd" clip-rule="evenodd" d="M10.038 8.518h2.184v1.187h-2.184V8.518Zm5.89 21.986-5.89-6.014v-1.188l5.89 5.879 5.892-5.879v1.188l-5.891 6.014ZM21.82 8.518h-2.196v1.187h2.196V8.518Zm-2.196 4.044v1.367l-2.504 2.575-.628-.645 1.284-1.352 1.848-1.945Zm-7.402 0v1.367l2.512 2.575.63-.646-3.142-3.296Zm13.265 9.165-6.146-5.87v1.212l6.146 5.953v-1.295Zm2.59-2.903h-2.59v1.17h5.18v-1.17h-2.59Zm-15.418-2.968-6.147 5.871v1.295l6.147-5.953v-1.213Zm-6.147 2.968H1.333v1.17h5.18v-1.17Z" fill="currentColor"/><path fill-rule="evenodd" clip-rule="evenodd" d="M12.222 23.302h-2.184l5.89 5.878 5.892-5.878h-2.196v-4.224l-2.504-2.575-.628-.645 1.284-1.352 1.848-1.945V8.517h2.196l-5.891-6.014-5.891 6.014h2.184V12.561l3.142 3.297-.63.645-2.512 2.575v4.224Zm13.265-1.575-6.146-5.871 6.146-5.871v2.885h5.18v5.953h-5.18v2.904Zm-12.828-5.871-6.147 5.87v-2.903H1.333V12.87h5.18V9.985l6.146 5.87Z" fill="currentColor"/></svg>