<svg viewBox="0 0 24 24" xmlns="http://www.w3.org/2000/svg"><g clip-path="url(#a)"><path d="M12.047 1.028c.351.166.705.324 1.051.498.685.346 1.362.705 2.048 1.048.724.363 1.455.71 2.18 1.07.855.424 1.706.854 2.56 1.28.38.19.761.384 1.145.568.121.059.171.134.17.272-.003 4.23-.002 8.458-.003 12.687 0 .015-.003.03-.007.074-.286.132-.59.266-.885.412-.3.148-.59.314-.887.464-.88.441-1.762.877-2.642 1.317-.862.43-1.722.862-2.583 1.292-.704.352-1.41.703-2.131 1.032-.019-6.36-.02-12.699-.02-19.038 0-.992.003-1.984.005-2.976Z" fill="#F68536"/><path d="M12.03 1.025c.016.995.013 1.987.013 2.98l.003 19.036a.283.283 0 0 1-.164-.02c-.529-.265-1.053-.54-1.585-.799-.138-.067-.169-.155-.166-.295.008-.346.003-.693.011-1.075.032-.132.075-.229.075-.325.005-1.474.003-2.948.003-4.422 0-4.17 0-8.34-.003-12.511 0-.117-.055-.234-.084-.35 0-.384-.002-.768.004-1.151.002-.063.028-.16.073-.182a74.728 74.728 0 0 1 1.82-.886Z" fill="#9D5025"/><path d="M10.116 3.244c.046.116.1.233.1.35.005 4.17.004 8.34.004 12.51 0 1.475.002 2.949-.003 4.423 0 .096-.043.193-.075.304-.324.128-.638.246-.956.352-.208.07-.422.121-.624.161.029-.101.063-.184.063-.266.002-6.12.001-12.24.001-18.36l1.369.5c.033.012.069.018.12.026Z" fill="#F58436"/><path d="M8.61 2.716c.016 6.122.017 12.242.015 18.362 0 .082-.034.165-.07.252-.255-.11-.494-.22-.731-.336-.086-.042-.161-.12-.25-.138-.39-.077-.469-.329-.421-.678.02-.145.002-.295.015-.473.023-.246.04-.463.042-.68.01-2.596.02-5.192.025-7.788.004-2.198.002-4.395-.003-6.592 0-.097-.05-.193-.078-.29 0-.264-.007-.53.008-.793a.276.276 0 0 1 .123-.196c.432-.225.871-.437 1.325-.65Z" fill="#9E5025"/><path d="M7.136 4.355c.045.097.096.193.096.29.005 2.197.007 4.394.003 6.592-.005 2.596-.015 5.192-.025 7.788-.001.217-.02.434-.044.66-.386.125-.758.241-1.15.336a.723.723 0 0 1-.023-.2V5.671c0-.54.006-1.081.01-1.622.371.102.743.205 1.133.306Z" fill="#F58536"/><path d="M5.986 4.047c.013.543.007 1.083.007 1.624v14.15c0 .06.003.119.007.198-.246-.101-.483-.26-.745-.336-.417-.122-.521-.385-.456-.771.007-.036.001-.074.01-.148.018-.117.037-.197.037-.277.001-4.302.001-8.603-.001-12.905 0-.084-.032-.168-.05-.253.002-.132.021-.267.001-.397-.038-.247.073-.366.292-.457.302-.124.589-.285.898-.428Z" fill="#9F5125"/><path d="M4.78 5.323c.033.09.065.175.065.26.002 4.3.002 8.602 0 12.904 0 .08-.018.16-.037.256a7.855 7.855 0 0 1-.925.172.425.425 0 0 1-.023-.153V5.315c0-.066.006-.133.01-.2l.91.208Z" fill="#F68536"/><path d="M3.853 5.114c.013.068.007.135.007.2v13.448c0 .044.002.089.005.154a9.775 9.775 0 0 1-.917-.403c-.045-.023-.056-.144-.057-.22-.004-.732-.002-1.465-.002-2.198 0-3.428.002-6.855-.004-10.282 0-.182.053-.278.218-.348.25-.105.49-.234.75-.351Z" fill="#9F5125"/></g><defs><clipPath id="a"><path fill="#fff" d="M0 0h24v24H0z"/></clipPath></defs></svg>