<svg viewBox="0 0 32 33" xmlns="http://www.w3.org/2000/svg"><path fill-rule="evenodd" clip-rule="evenodd" d="M6 5.005a.5.5 0 0 1 .5-.5h7.125a.5.5 0 0 1 .416.223l2.227 3.34H25.5a.5.5 0 0 1 .5.5v10.938a.5.5 0 0 1-1 0V9.068h-6.43v1.444h1a.5.5 0 0 1 0 1h-1v1.058h1a.5.5 0 0 1 0 1h-1v.9h1a.5.5 0 1 1 0 1h-1v1.106a.5.5 0 0 1-1 0v-1.107h-1a.5.5 0 1 1 0-1h1v-.9h-1a.5.5 0 1 1 0-1h1v-1.057h-1a.5.5 0 1 1 0-1h1V9.068H16a.5.5 0 0 1-.416-.223l-2.227-3.34H7v18h15.306a.5.5 0 1 1 0 1H6.5a.5.5 0 0 1-.5-.5v-19z" fill="#0278D5"/><path d="M29.686 28.607c.643-.096 1.457-.488 1.495-1.457.021-.016.043-.027.064.027.214 1.339-.096 1.757-.096 1.757l-.06-.049a.57.57 0 0 1-.09.199c-.022-.022-.054-.06-.054-.06s-.557.563-.825.713c-.359-.026-1.119-1.027-.434-1.13z" fill="#B2B2B2"/><path d="M27.924 20.368c-1.264 0-3.516.598-3.861 2.717-.02.126.09.157.18.072a.913.913 0 0 1 .624-.27c.257 0 .785.217.785.809 0 1.307-2.104 1.707-2.104 4.597 0 1.173.889 2.1 1.96 2.605.272.128 1.151-.887 1.151-.887s-.854-.062-.854-1.09c0-1.029 1.482-1.653 2.247-1.653 1.544 0 3.643-1.617 3.643-3.579 0-2.807-2.507-3.321-3.771-3.321z" fill="#56493E"/><path d="M31.358 22.124c-.727-1.447-2.454-1.756-3.434-1.756-.275 0-.532.157-.87.223l.088.205s2.175 4.635 2.175 5.293c1.69-1.107 2.3-2.707 2.04-3.965z" fill="url(#a)"/><path d="M27.924 20.368c-1.265 0-3.516.598-3.861 2.717-.01.06.01.098.043.113.118-.351.588-1.255 1.629-1.255.929 0 1.198.614 1.198 1.345 0 1.414-3.385 2.947-3.385 5.005 0 1.173 1.036 2 2.245 2.174.297.042.866-.456.866-.456s-.854-.062-.854-1.09c0-1.029 1.482-1.653 2.247-1.653 1.544 0 2.55-2.41 2.55-4.179 0-1.993-1.414-2.721-2.678-2.721z" fill="url(#b)"/><path d="M27.924 20.368c-1.264 0-3.516.598-3.861 2.717-.01.06.01.098.043.113.118-.352.46-1.437 1.64-1.437.932 0 1.385.657 1.385 1.399 0 1.564-3.583 3.364-3.583 5.133 0 1.173 1.036 2 2.245 2.174.297.042.867-.456.867-.456s-.855-.062-.855-1.09c0-1.029 1.482-1.653 2.247-1.653 1.544 0 2.55-2.41 2.55-4.179 0-1.993-1.414-2.721-2.678-2.721z" fill="#7E6B5A"/><path d="M27.827 27.199c-.765 0-2.247.725-2.247 1.754 0 .627.505 1.003.9 1.202.106-.08.18-.145.18-.145s-.855-.06-.855-1.09c0-1.028 1.482-1.652 2.247-1.652.322 0 .101-.07-.225-.07z" fill="#776555"/><path opacity=".102" d="M27.838 23.86a2.346 2.346 0 0 0-2.346 2.347c0 .247.036.434.018.574-.022.178-.08.288-.074.414h-.29c.001.088.015.174.042.258a.395.395 0 0 0-.124.048c.008.112.187.297.187.297a.405.405 0 0 0-.09.056c.027.129.286.265.286.265a.158.158 0 0 0-.071.032c0 .023.18.135.567.243.385-.711 1.485-1.126 2.11-1.126.674 0 1.455-.309 2.12-.82a2.347 2.347 0 0 0-2.335-2.587z"/><path d="m31.234 27.182-.004-.033c-.016-.02-.033-.012-.05 0-.037.97-.851 1.361-1.494 1.458-.467.07-.262.557.029.869.867-.395 1.815-.665 1.52-2.294z" fill="#C4C4C4"/><path d="M30.17 29.959c0-.552-.312-1.176-.66-1.709-.356-.542-2.621-.668-2.949-.046-.183.35-.596.781-.66 1.635-.088 1.166-.056 2.342 2.13 2.342 2.599 0 2.14-1.827 2.14-2.222z" fill="#B2B2B2"/><path d="M28.03 31.647a1.398 1.398 0 1 0 0-2.796 1.398 1.398 0 0 0 0 2.796z" fill="#FED8A4"/><path d="M27.627 29.84c-.464-.147-.969-.704-1.303-1.249a2.718 2.718 0 0 0-.374.898c.092.107.195.203.308.286l-.018.092h.156l-.009.1c.404.02.81.008 1.212-.036.083-.018.092-.037.028-.092z" fill="#C4C4C4"/><path d="m28.116 29.951-.442-.095.293-.076-.08-.14-.258.21-.038.08-.016.413.15-.006-.073-.392.218.37.118-.101-.301-.312.387.2.042-.15zM31.618 26.921l-.332.178.274-.312-.129-.088-.193.38.062-.433-.156-.003.032.452-.159-.263-.113.114.268.194.087.016.403-.091-.044-.144z"/><path d="M26.351 30.2c-.112-.248-.321-.385-.514-.385s-.643.072-.643.82c0 .747.965 1.486.965 1.486s.723.048.723-.145c0-.192-.418-1.526-.53-1.775zM30.176 29.815c-.193 0-.401.137-.514.386-.113.249-.53 1.583-.53 1.776 0 .192.723.144.723.144s.964-.74.964-1.486c0-.748-.45-.82-.643-.82z" fill="#C4C4C4"/><path d="M29.753 31.886h-.518a.263.263 0 0 0-.262.262v.091a.129.129 0 0 0 .13.129h.781a.129.129 0 0 0 .129-.129v-.093a.26.26 0 0 0-.26-.26zM26.796 31.886h-.518a.263.263 0 0 0-.262.262v.091a.128.128 0 0 0 .13.129h.781a.129.129 0 0 0 .129-.129v-.093a.261.261 0 0 0-.26-.26z" fill="#CFB18D"/><path d="M30.344 26.63c-.009-.148.033-.33.033-.584a2.346 2.346 0 0 0-4.693 0c0 .247.037.435.02.575-.023.178-.082.288-.075.415.037.68 1.667 1.357 2.402 1.357.765 0 2.37-.669 2.388-1.352.003-.13-.065-.249-.075-.41z" fill="#B2B2B2"/><path d="M30.781 27.34a.393.393 0 0 0-.125-.048.83.83 0 0 0 .042-.258h-.595s-.511.547-2.055.547h-.032c-1.544 0-2.081-.546-2.081-.546h-.595c0 .087.014.174.041.257a.393.393 0 0 0-.125.048c.009.113.188.297.188.297a.4.4 0 0 0-.09.057c.027.128.286.265.286.265a.159.159 0 0 0-.072.032c.003.046.737.458 2.444.458h.029c1.707 0 2.425-.412 2.428-.458a.158.158 0 0 0-.072-.032s.26-.137.286-.265a.405.405 0 0 0-.09-.057s.18-.184.188-.297z" fill="#FFEDD0"/><path d="M28.942 25.457c-.138 0-.274.026-.402.077l.06.134a.943.943 0 0 1 1.017.22l.09-.118a1.09 1.09 0 0 0-.766-.313z" fill="#957E6A"/><path d="M28.957 25.602a.949.949 0 0 0-.942.848.948.948 0 1 0 0 .2.95.95 0 1 0 .942-1.048z" fill="#FED8A4"/><path d="M27.099 25.457a1.09 1.09 0 0 0-.765.313l.089.119a.942.942 0 0 1 1.017-.22l.06-.135a1.088 1.088 0 0 0-.401-.077z" fill="#957E6A"/><path d="M28.977 26.294a.254.254 0 0 0-.07.011.14.14 0 0 1-.101.175.14.14 0 0 1-.075-.002.255.255 0 0 0-.011.073.258.258 0 1 0 .257-.257zM27.08 26.294a.251.251 0 0 0-.07.011.14.14 0 0 1-.1.175.14.14 0 0 1-.075-.002.257.257 0 1 0 .245-.184z"/><path d="M30.506 27.34a.333.333 0 0 0-.113-.048.919.919 0 0 0 .037-.258h-.535s-.169.2-.61.359c-.288.103-.692-.7-1.24-.7h-.029c-.568 0-.984.797-1.279.689-.425-.156-.595-.347-.595-.347h-.535c0 .087.012.173.037.257a.333.333 0 0 0-.112.048c.008.113.168.297.168.297a.362.362 0 0 0-.08.057c.024.128.257.265.257.265a.136.136 0 0 0-.064.032c.002.046.663.49 2.2.49h.026c1.537 0 2.183-.444 2.185-.49a.136.136 0 0 0-.064-.032s.233-.137.257-.265a.366.366 0 0 0-.08-.057s.16-.184.169-.297z" fill="#FED8A4"/><path d="M28.845 23.014h-1.628a1.65 1.65 0 0 0-1.65 1.65c0 .252.013.394.013.514 0 .121.16.089.233.049.254-.128.536-.19.82-.185.45 0 2.37.008 2.82.008.45 0 .715.12.82.2a.126.126 0 0 0 .209-.072c0-.064.013-.318.013-.514a1.65 1.65 0 0 0-1.65-1.65z" fill="#FD9109"/><path d="M29.011 22.904c-.112-.112-1.84-.136-1.969.008-.128.145-.522 1.077-.514 1.97.41 0 2.194-.065 2.997-.017-.008-.972-.401-1.848-.514-1.96z" fill="#FDA90A"/><path d="M28.03 24.962a.771.771 0 1 0 0-1.543.771.771 0 0 0 0 1.543z" fill="#FEBE0A"/><path d="M28.409 22.631h-.78a.193.193 0 0 0-.193.193v1.253a.194.194 0 0 0 .12.179c.023.01.048.014.073.014h.78a.193.193 0 0 0 .192-.192v-1.254a.193.193 0 0 0-.192-.193zM26.705 24.287h-.297a.173.173 0 0 0-.162.099l-.128.383a.12.12 0 0 0 .062.158.12.12 0 0 0 .06.01h.415a.176.176 0 0 0 .178-.168v-.383a.115.115 0 0 0-.128-.1zM29.931 24.77l-.128-.384a.172.172 0 0 0-.161-.1h-.297a.116.116 0 0 0-.129.1v.383a.176.176 0 0 0 .179.168h.414a.122.122 0 0 0 .122-.168z" fill="#FEBE0A"/><path d="M30.284 25.085c-.062-.069-.34-.427-1.08-.427l-2.29-.005c-.663 0-.88.192-1.13.433-.086.084-.003.173.07.133.071-.04.329-.177.779-.177s2.37.008 2.82.008c.45 0 .616.06.718.144.068.056.175-.04.113-.109z" fill="#FC7909"/><path d="m28.352 24.287-.273-.571h-.261v.193h.133l.273.57h.209v-.192h-.08z"/><path d="m27.922 24.005-.237.466h.21l.136-.265-.109-.2z"/><path d="M28.957 23.48c.236.08.828.614.866.624.037.011.227.008.254-.024.027-.032-.97-.712-1.12-.6z" fill="#040404" opacity=".071"/><path d="M30.13 23.99c-.16-.478-.347-.772-.76-1.003-.096.038-.39.295-.434.354-.043.059-.052.132.038.152.403.092.78.365.99.585.056.058.202.015.167-.089z" fill="#B2B2B2"/><path d="M29.373 23.39a.858.858 0 0 0-.2.164c.203.078.394.187.565.321a.82.82 0 0 0-.365-.486z" fill="#FED8A4"/><path d="M25.984 24.08c.027.032.217.035.255.024.037-.01.63-.543.865-.624-.15-.112-1.146.568-1.12.6z" fill="#040404" opacity=".071"/><path d="M27.125 23.34c-.042-.058-.337-.315-.433-.353-.413.23-.6.525-.761 1.002-.035.104.11.146.166.088.211-.22.588-.492.991-.584.09-.02.08-.093.037-.152z" fill="#B2B2B2"/><path d="M26.689 23.39a.82.82 0 0 0-.365.485c.17-.134.361-.243.564-.321a.855.855 0 0 0-.2-.165z" fill="#FED8A4"/><path d="M28.02 27.771c-.15.097-.509.145-.734.065 0 .284.525.434.75.434.23 0 .729-.134.729-.445-.31.128-.6-.01-.745-.054z" fill="#CFB18D"/><path d="M28.009 28.152c-.117-.001-.233.013-.346.042.12.045.245.07.373.076.12-.004.238-.026.351-.066a1.336 1.336 0 0 0-.378-.052z" fill="#A38B72"/><path d="M28.02 27.771a.726.726 0 0 1-.252.086v.075a.097.097 0 0 0 .097.096h.326a.097.097 0 0 0 .09-.06.096.096 0 0 0 .007-.036v-.078c-.11-.026-.204-.064-.268-.083z" fill="#fff"/><path d="M28.02 27.771a.726.726 0 0 1-.252.086v.075a.097.097 0 0 0 .097.096h.166v-.253l-.01-.004z" fill="#F6F6F6"/><path d="M28.374 27.053h-.686c-.108 0-.145.145-.082.207l.344.345a.11.11 0 0 0 .156.006c.037-.043.277-.289.34-.35.073-.074.017-.208-.072-.208z" fill="#957E6A"/><path d="M28.374 27.054h-.686c-.108 0-.145.104-.082.15l.344.248a.142.142 0 0 0 .156.004c.037-.03.277-.208.34-.253.073-.053.017-.15-.072-.15z" fill="#CFB18D"/><defs><linearGradient id="a" x1="27.053" y1="23.228" x2="31.415" y2="23.228" gradientUnits="userSpaceOnUse"><stop offset=".765" stop-color="#897564"/><stop offset="1" stop-color="#7E6B5A"/></linearGradient><linearGradient id="b" x1="23.548" y1="25.418" x2="30.602" y2="25.418" gradientUnits="userSpaceOnUse"><stop offset=".01" stop-color="#897564"/><stop offset=".459" stop-color="#7E6B5A"/></linearGradient></defs></svg>