<svg fill="none" height="32" viewBox="0 0 32 32" width="32" xmlns="http://www.w3.org/2000/svg" xmlns:xlink="http://www.w3.org/1999/xlink"><clipPath id="a"><path d="m21 21h11v11h-11z"/></clipPath><path d="m17.2929 12.7332 4.4097 3.35m0 0-4.4097 3.359m4.4097-3.359h-17.95553" stroke="#0278d5" stroke-linecap="round" stroke-linejoin="round"/><path d="m28.2525 19.3843-2.295-10.05512c-.0677-.29669-.2669-.54641-.5411-.67845l-8.8584-4.266c-.2742-.13204-.5936-.13204-.8678 0l-8.85843 4.266c-.27419.13204-.47332.38176-.54104.67845l-.34325 1.50382-.2252.9867m12.66332 16.0047h-7.1776c-.3043 0-.5921-.1386-.7818-.3765l-3.06511-3.8435-1.68269-2.1101-.84135-1.055-.42067-.5275" stroke="#0278d5" stroke-linecap="round"/><g clip-path="url(#a)"><path d="m31.9307 26.5671c.1006-.1005.0837-.2921 0-.3965l-.5306-.5306-2.3718-2.3007c-.1006-.1005-.257-.1005-.3782 0-.1005.1006-.1395.2922 0 .3965l2.4922 2.4403c.1006.1006.1006.2922 0 .3965l-2.5455 2.5242c-.1005.1005-.1005.2922 0 .3965.1006.1006.2922.0837.3782 0l2.3718-2.3512zm-10.8615 0c-.1005-.1005-.0837-.2921 0-.3965l.5306-.5306 2.3719-2.3007c.1005-.1005.2569-.1005.3781 0 .1006.1006.1396.2922 0 .3965l-2.4406 2.4407c-.1006.1005-.1006.2922 0 .3965l2.4922 2.5241c.1005.1006.1005.2922 0 .3966-.1006.1005-.2922.0837-.3781 0l-2.4235-2.3164z" fill="#3999c6"/><path d="m26.944 24.8526 2.2338-3.4229h-3.3507l-1.8038 5.0875 2.2.0167-1.7199 5.0371 4.7466-6.7179z" fill="#fcd116"/><path d="m29.2503 24.8526h-2.3066l2.2341-3.4229h-1.7537l-1.854 4.2271 2.2.0167-3.2668 5.8953z" fill="#ff8c00" opacity=".3"/></g></svg>