<svg width="32" height="32" viewBox="0 0 32 32" fill="none" xmlns="http://www.w3.org/2000/svg">
<path d="M17.2929 12.7332L21.7026 16.0832M21.7026 16.0832L17.2929 19.4422M21.7026 16.0832H3.74707" stroke="white" stroke-linecap="round" stroke-linejoin="round"/>
<path d="M28.2525 19.3843L25.9575 9.32918C25.8898 9.03249 25.6906 8.78277 25.4164 8.65073L16.558 4.38473C16.2838 4.25269 15.9644 4.25269 15.6902 4.38473L6.83177 8.65073C6.55758 8.78277 6.35845 9.03249 6.29073 9.32918L5.94748 10.833L5.72228 11.8197M18.3856 27.8244H11.208C10.9037 27.8244 10.6159 27.6858 10.4262 27.4479L7.36109 23.6044L5.6784 21.4943L4.83705 20.4393L4.41638 19.9118" stroke="white" stroke-linecap="round"/>
<g clip-path="url(#clip0_3871_2131)">
<path d="M31.9307 26.5671C32.0313 26.4666 32.0144 26.275 31.9307 26.1706L31.4001 25.64L29.0283 23.3393C28.9277 23.2388 28.7713 23.2388 28.6501 23.3393C28.5496 23.4399 28.5106 23.6315 28.6501 23.7358L31.1423 26.1761C31.2429 26.2767 31.2429 26.4683 31.1423 26.5726L28.5968 29.0968C28.4963 29.1973 28.4963 29.389 28.5968 29.4933C28.6974 29.5939 28.889 29.577 28.975 29.4933L31.3468 27.1421L31.9307 26.5671ZM21.0692 26.5671C20.9687 26.4666 20.9855 26.275 21.0692 26.1706L21.5998 25.64L23.9717 23.3393C24.0722 23.2388 24.2286 23.2388 24.3498 23.3393C24.4504 23.4399 24.4894 23.6315 24.3498 23.7358L21.9092 26.1765C21.8086 26.277 21.8086 26.4687 21.9092 26.573L24.4014 29.0971C24.5019 29.1977 24.5019 29.3893 24.4014 29.4937C24.3008 29.5942 24.1092 29.5774 24.0233 29.4937L21.5998 27.1773L21.0692 26.5671Z" fill="white"/>
<path d="M26.944 24.8526L29.1778 21.4297H25.8271L24.0233 26.5172L26.2233 26.5339L24.5034 31.571L29.25 24.8531L26.944 24.8526Z" fill="white"/>
<path opacity="0.3" d="M29.2503 24.8526H26.9437L29.1778 21.4297H27.4241L25.5701 25.6568L27.7701 25.6735L24.5033 31.5688L29.2503 24.8526Z" fill="white"/>
</g>
<defs>
<clipPath id="clip0_3871_2131">
<rect width="11" height="11" fill="white" transform="translate(21 21)"/>
</clipPath>
</defs>
</svg>
