<svg fill="none" height="32" viewBox="0 0 32 32" width="32" xmlns="http://www.w3.org/2000/svg"><g fill="#fff"><path clip-rule="evenodd" d="m14.0246 4.61807c.1936.19684.1911.51341-.0058.70709l-2.2009 2.16551h14.2417c.8284 0 1.5.67157 1.5 1.5v9.49863c0 .2762-.2239.5-.5.5-.2762 0-.5-.2238-.5-.5v-9.49863c0-.27614-.2239-.5-.5-.5h-14.2417l2.2009 2.16553c.1969.1937.1994.5102.0058.7071-.1937.1968-.5103.1994-.7071.0057l-3.0713-3.02192c-.0955-.09399-.1493-.2224-.1493-.35641s.0538-.26241.1493-.3564l3.0713-3.02193c.1968-.19367.5134-.1911.7071.00573zm-9.07685 8.81283c.27615 0 .5.2238.5.5v11.9596c0 .2762.22386.5.5.5h12.31055c.2761 0 .5.2239.5.5 0 .2762-.2239.5-.5.5h-12.31055c-.82842 0-1.5-.6715-1.5-1.5v-11.9596c0-.2762.22386-.5.5-.5z" fill-rule="evenodd"/><path d="m31.4307 26.0671c.1006-.1005.0837-.2921 0-.3965l-.5306-.5306-2.3718-2.3007c-.1006-.1005-.257-.1005-.3782 0-.1005.1006-.1395.2922 0 .3965l2.4922 2.4403c.1006.1006.1006.2922 0 .3965l-2.5455 2.5242c-.1005.1005-.1005.2922 0 .3965.1006.1006.2922.0837.3782 0l2.3718-2.3512zm-10.8615 0c-.1005-.1005-.0837-.2921 0-.3965l.5306-.5306 2.3719-2.3007c.1005-.1005.2569-.1005.3781 0 .1006.1006.1396.2922 0 .3965l-2.4406 2.4407c-.1006.1005-.1006.2922 0 .3965l2.4922 2.5241c.1005.1006.1005.2922 0 .3966-.1006.1005-.2922.0837-.3781 0l-2.4235-2.3164z"/><path d="m26.444 24.3526 2.2338-3.4229h-3.3507l-1.8038 5.0875 2.2.0167-1.7199 5.0371 4.7466-6.7179z"/><path d="m28.7503 24.3526h-2.3066l2.2341-3.4229h-1.7537l-1.854 4.2271 2.2.0167-3.2668 5.8953z" opacity=".3"/></g></svg>