<svg viewBox="0 0 32 32" fill="none" xmlns="http://www.w3.org/2000/svg"><path fill-rule="evenodd" clip-rule="evenodd" d="M14.106 4.618a.5.5 0 0 1-.006.707l-2.201 2.166h14.242a1.5 1.5 0 0 1 1.5 1.5v9.498a.5.5 0 1 1-1 0V8.991a.5.5 0 0 0-.5-.5H11.899l2.2 2.165a.5.5 0 0 1-.7.713l-3.072-3.022a.5.5 0 0 1 0-.713L13.4 4.612a.5.5 0 0 1 .707.006Zm-9.077 8.813a.5.5 0 0 1 .5.5v11.96a.5.5 0 0 0 .5.5h12.31a.5.5 0 0 1 0 1H6.03a1.5 1.5 0 0 1-1.5-1.5V13.93a.5.5 0 0 1 .5-.5Z" fill="#0278D5"/><path d="M31.68 26.067c.101-.1.084-.292 0-.396l-.53-.531-2.372-2.3c-.1-.101-.257-.101-.378 0-.1.1-.14.291 0 .396l2.492 2.44c.1.1.1.292 0 .397l-2.545 2.524c-.1.1-.1.292 0 .396.1.1.292.084.378 0l2.372-2.35.584-.576Zm-10.86 0c-.101-.1-.085-.292 0-.396l.53-.531 2.372-2.3c.1-.101.257-.101.378 0 .1.1.14.291 0 .396l-2.44 2.44c-.101.101-.101.293 0 .397l2.491 2.524c.1.1.1.292 0 .397-.1.1-.292.083-.378 0l-2.423-2.317-.53-.61Z" fill="#3999C6"/><path d="m26.694 24.353 2.234-3.423h-3.35l-1.805 5.087 2.2.017-1.72 5.037L29 24.353h-2.306Z" fill="#FCD116"/><path opacity=".3" d="M29 24.353h-2.306l2.234-3.423h-1.754l-1.854 4.227 2.2.017-3.267 5.895L29 24.353Z" fill="#FF8C00"/></svg>