<svg fill="none" viewBox="0 0 32 32" xmlns="http://www.w3.org/2000/svg"><clipPath id="a"><path d="M21 21h11v11H21z"/></clipPath><path d="m17.293 12.733 4.41 3.35m0 0-4.41 3.36m4.41-3.36H3.747" stroke="#0278d5" stroke-linecap="round" stroke-linejoin="round"/><path d="M28.253 19.384 25.958 9.33a1 1 0 0 0-.542-.678l-8.858-4.266a1 1 0 0 0-.868 0L6.832 8.65a1 1 0 0 0-.541.678l-.344 1.504-.225.987m12.664 16.004h-7.178a1 1 0 0 1-.782-.376l-3.065-3.844-1.683-2.11-.84-1.055-.422-.527" stroke="#0278d5" stroke-linecap="round"/><g clip-path="url(#a)"><path d="M31.93 26.567c.101-.1.084-.292 0-.396l-.53-.531-2.372-2.3c-.1-.101-.257-.101-.378 0-.1.1-.14.292 0 .396l2.492 2.44c.1.1.1.292 0 .397l-2.545 2.524c-.1.1-.1.292 0 .396.1.1.292.084.378 0l2.372-2.35zm-10.86 0c-.101-.1-.084-.292 0-.396l.53-.531 2.372-2.3c.1-.101.257-.101.378 0 .1.1.14.292 0 .396l-2.44 2.44c-.101.101-.101.293 0 .397l2.491 2.524c.1.1.1.292 0 .397-.1.1-.292.083-.378 0L21.6 27.177z" fill="#3999c6"/><path d="m26.944 24.853 2.234-3.423h-3.35l-1.805 5.087 2.2.017-1.72 5.037 4.747-6.718z" fill="#fcd116"/><path d="M29.25 24.853h-2.306l2.234-3.423h-1.754l-1.854 4.227 2.2.017-3.267 5.895z" fill="#ff8c00" opacity=".3"/></g></svg>