<svg viewBox="0 0 32 32" xmlns="http://www.w3.org/2000/svg"><path fill-rule="evenodd" clip-rule="evenodd" d="M15.664 2.062a.208.208 0 0 1-.001.294l-.278.276h2.49c.345 0 .625.28.625.625v3.118c0 .345-.28.625-.625.625h-3.75a.625.625 0 0 1-.625-.625V4.082a.208.208 0 0 1 .417 0v2.293c0 .115.093.208.208.208h3.75a.208.208 0 0 0 .208-.208V3.257a.208.208 0 0 0-.208-.209h-2.49l.278.276a.208.208 0 1 1-.294.296l-.636-.632a.208.208 0 0 1 0-.296l.636-.632a.208.208 0 0 1 .295.002Z" fill="#0278D5" stroke="#0278D5" stroke-width=".4" stroke-linecap="round" stroke-linejoin="round"/><path d="M30.966 27.789a4.224 4.224 0 0 1-5.14 2.63c.058-.13.088-.272.09-.415.005 0 .015.005.02.005.343.1.698.151 1.055.15a3.823 3.823 0 0 0 3.425-2.14l.005-.005.545-.225ZM24.291 29.034c-.125.07-.234.165-.32.28a4.3 4.3 0 0 1-.835-1.22l.52.115v.13a.3.3 0 0 0 .235.295l.07.015c.094.13.197.252.31.365l.02.02ZM28.676 22.479a1.14 1.14 0 0 0-.135.405l-.035-.015a3.739 3.739 0 0 0-1.515-.315 3.82 3.82 0 0 0-2.95 1.4l-.145.03a.3.3 0 0 0-.24.29v.23l-.51.095a4.227 4.227 0 0 1 3.845-2.465 4.3 4.3 0 0 1 1.685.345ZM30.936 24.85l-.545-.19a3.3 3.3 0 0 0-.36-.58c-.01-.015-.02-.025-.025-.035.134-.05.257-.126.36-.225.241.313.433.66.57 1.03Z" fill="#32BEDD"/><path d="m27.536 27.954 1.27.28-1.97.816c-.01 0-.015.005-.025.005a.077.077 0 0 1-.075-.075v-5.256a.077.077 0 0 1 .075-.075c.009 0 .017.001.025.005l2.23.78-1.525.285a.283.283 0 0 0-.22.27v2.7a.269.269 0 0 0 .215.265Z" fill="#fff"/><path d="m23.05 24.834.605-.115v3.275l-.615-.135-.495-.11a.056.056 0 0 1-.045-.06v-2.7a.06.06 0 0 1 .045-.06l.505-.095Z" fill="#A67AF4"/><path d="m27.536 27.954 1.27.28-1.97.816c-.01 0-.015.005-.025.005a.077.077 0 0 1-.075-.075v-5.256a.077.077 0 0 1 .075-.075c.009 0 .017.001.025.005l2.23.78-1.525.285a.283.283 0 0 0-.22.27v2.7a.269.269 0 0 0 .215.265Z" fill="url(#a)"/><path d="m26.793 23.65-2.854.539a.088.088 0 0 0-.07.087v4.064a.088.088 0 0 0 .069.087l2.853.623a.089.089 0 0 0 .073-.019.087.087 0 0 0 .031-.068v-5.224a.088.088 0 0 0-.085-.089h-.017Z" fill="url(#b)"/><path d="M25.474 24.46v3.781l.993.166v-4.125l-.993.178ZM24.255 24.665v3.312l.864.181v-3.643l-.864.15Z" fill="#B796F9"/><path d="M30.5 23.024a.878.878 0 1 1-1.756-.005.878.878 0 0 1 1.756.005ZM24.825 30.866a.88.88 0 1 0 0-1.76.88.88 0 0 0 0 1.76Z" fill="#32BEDD"/><path d="M31.5 25.345v1.922a.111.111 0 0 1-.067.1l-1.918.791h-.005a.06.06 0 0 1-.019 0 .05.05 0 0 1-.035-.014.05.05 0 0 1-.015-.035v-3.492a.05.05 0 0 1 .027-.044h.01a.015.015 0 0 1 .009 0c.006 0 .012 0 .017.004h.011l1.51.523.4.141a.107.107 0 0 1 .075.104Z" fill="#773ADC"/><path d="m29.48 24.57-1.9.357a.06.06 0 0 0-.047.059v2.704a.06.06 0 0 0 .045.058l1.9.416a.058.058 0 0 0 .069-.045v-3.491a.058.058 0 0 0-.067-.058Z" fill="#A67AF4"/><path fill-rule="evenodd" clip-rule="evenodd" d="M12.241 6.758a.87.87 0 0 1 .976.753.874.874 0 0 1-.747.981c-1.911.256-3.493.707-4.57 1.251-.539.273-.913.55-1.141.802-.224.247-.273.43-.273.55 0 .151.085.416.505.771.417.352 1.072.708 1.957 1.024 1.764.629 4.257 1.035 7.052 1.035s5.288-.406 7.052-1.035c.885-.316 1.54-.672 1.957-1.024.42-.355.505-.62.505-.771 0-.12-.056-.306-.265-.541-.208-.235-.558-.507-1.11-.79-1.049-.54-2.593-.99-4.465-1.252a.874.874 0 0 1-.74-.987.869.869 0 0 1 .98-.746c1.984.278 3.734.768 5.015 1.426 1.202.618 2.321 1.565 2.321 2.89v9.957c0 .409-.495.448-.75.448-.337 0-1 0-.986-.411v-.759a9.514 9.514 0 0 1-1.883.89c-1.994.711-4.692 1.135-7.631 1.135s-5.637-.424-7.63-1.135a9.512 9.512 0 0 1-1.884-.89v4.34c0 .153.085.418.505.772.417.352 1.072.708 1.957 1.024 1.764.629 4.257 1.035 7.052 1.035 1.848 0 3.564-.18 5.024-.482.925-.19.909.464.976.731.076.301-.05.861-.535.964-1.619.342-3.487.536-5.465.536-2.939 0-5.637-.423-7.63-1.135-.994-.354-1.86-.797-2.493-1.332-.629-.53-1.127-1.24-1.127-2.112V11.095c0-.675.301-1.258.726-1.728.42-.464.992-.857 1.645-1.187 1.308-.662 3.095-1.151 5.12-1.422Zm13.273 6.89a9.51 9.51 0 0 1-1.883.891c-1.994.712-4.692 1.135-7.631 1.135s-5.637-.423-7.63-1.135a9.507 9.507 0 0 1-1.884-.89v4.127c0 .152.085.416.505.77.417.352 1.072.71 1.957 1.025 1.764.63 4.257 1.034 7.052 1.034s5.288-.404 7.052-1.034c.885-.316 1.54-.673 1.957-1.024.42-.355.505-.619.505-.77v-4.129Z" fill="#0278D5"/><defs><linearGradient id="a" x1="26.899" y1="26.352" x2="29.841" y2="26.352" gradientUnits="userSpaceOnUse"><stop offset=".001" stop-color="#773ADC"/><stop offset="1" stop-color="#552F99"/></linearGradient><linearGradient id="b" x1="25.382" y1="23.889" x2="25.382" y2="28.89" gradientUnits="userSpaceOnUse"><stop stop-color="#A67AF4"/><stop offset=".999" stop-color="#773ADC"/></linearGradient></defs></svg>