<svg viewBox="0 0 32 32" xmlns="http://www.w3.org/2000/svg"><path fill-rule="evenodd" clip-rule="evenodd" d="M14.07 4.37a.5.5 0 0 1-.003.707l-2.194 2.178h13.641a1.5 1.5 0 0 1 1.5 1.5v5.807a.5.5 0 0 1-1 0V8.755a.5.5 0 0 0-.5-.5H11.873l2.194 2.177a.5.5 0 0 1-.704.71L10.306 8.11a.5.5 0 0 1 0-.71l3.056-3.033a.5.5 0 0 1 .707.003Zm-9.556 8.846a.5.5 0 0 1 .5.5v12.006a.5.5 0 0 0 .5.5h8.383a.5.5 0 1 1 0 1H5.514a1.5 1.5 0 0 1-1.5-1.5V13.716a.5.5 0 0 1 .5-.5Z" fill="#0278D5" stroke="#0278D5" stroke-linecap="round" stroke-linejoin="round"/><path d="M31.11 26.648a7.04 7.04 0 0 1-8.567 4.384c.096-.218.147-.454.15-.692.009 0 .025.008.034.008a6.184 6.184 0 0 0 1.758.25 6.372 6.372 0 0 0 5.708-3.566l.009-.009.908-.375ZM19.985 28.723c-.209.116-.39.275-.533.467a7.167 7.167 0 0 1-1.392-2.033l.867.191v.217a.5.5 0 0 0 .391.492l.117.025c.156.216.329.419.517.608l.033.033ZM27.293 17.798a1.903 1.903 0 0 0-.225.675c-.016-.008-.041-.016-.058-.025a6.234 6.234 0 0 0-2.525-.525 6.37 6.37 0 0 0-4.917 2.334l-.241.05a.5.5 0 0 0-.4.483v.383l-.85.159a7.045 7.045 0 0 1 6.408-4.109c.965 0 1.92.197 2.808.575ZM31.06 21.75l-.908-.317a5.5 5.5 0 0 0-.6-.966c-.017-.025-.034-.042-.042-.059.224-.082.428-.21.6-.375.402.521.722 1.1.95 1.717Z" fill="#32BEDD"/><path d="m25.393 26.923 2.117.467-3.283 1.36c-.017 0-.025.008-.042.008a.128.128 0 0 1-.125-.125v-8.76a.128.128 0 0 1 .125-.125.075.075 0 0 1 .042.009l3.716 1.3-2.541.475a.471.471 0 0 0-.367.45v4.5a.447.447 0 0 0 .358.441Z" fill="#fff"/><path d="m17.917 21.723 1.008-.191v5.458l-1.025-.225-.825-.183a.092.092 0 0 1-.075-.1v-4.5a.1.1 0 0 1 .075-.1l.842-.159Z" fill="#A67AF4"/><path d="m25.393 26.923 2.117.467-3.283 1.36c-.017 0-.025.008-.042.008a.128.128 0 0 1-.125-.125v-8.76a.128.128 0 0 1 .125-.125.075.075 0 0 1 .042.009l3.716 1.3-2.541.475a.471.471 0 0 0-.367.45v4.5a.447.447 0 0 0 .358.441Z" fill="url(#a)"/><path d="m24.155 19.75-4.757.898a.147.147 0 0 0-.116.146v6.773a.147.147 0 0 0 .114.145l4.755 1.038a.148.148 0 0 0 .122-.03.146.146 0 0 0 .053-.115v-8.707a.145.145 0 0 0-.088-.136.147.147 0 0 0-.055-.012h-.028Z" fill="url(#b)"/><path d="M21.957 21.1v6.302l1.655.276v-6.875l-1.655.298ZM19.924 21.44v5.522l1.441.302v-6.072l-1.44.249Z" fill="#B796F9"/><path d="M30.333 18.707a1.462 1.462 0 1 1-2.924-.009 1.462 1.462 0 0 1 2.924.009ZM20.875 31.777a1.466 1.466 0 1 0 0-2.932 1.466 1.466 0 0 0 0 2.932Z" fill="#32BEDD"/><path d="M32 22.574v3.203a.185.185 0 0 1-.11.167l-3.198 1.32h-.009a.105.105 0 0 1-.031 0 .084.084 0 0 1-.084-.083v-5.82a.085.085 0 0 1 .045-.073h.016a.027.027 0 0 1 .016 0c.01 0 .02.002.028.007h.02l2.515.872.667.235a.178.178 0 0 1 .125.172Z" fill="#773ADC"/><path d="m28.633 21.283-3.167.596a.098.098 0 0 0-.078.098v4.507a.098.098 0 0 0 .076.097l3.167.692a.094.094 0 0 0 .073-.013.094.094 0 0 0 .041-.062V21.38a.097.097 0 0 0-.113-.097Z" fill="#A67AF4"/><defs><linearGradient id="a" x1="24.332" y1="24.253" x2="29.236" y2="24.253" gradientUnits="userSpaceOnUse"><stop offset=".001" stop-color="#773ADC"/><stop offset="1" stop-color="#552F99"/></linearGradient><linearGradient id="b" x1="21.803" y1="20.148" x2="21.803" y2="28.483" gradientUnits="userSpaceOnUse"><stop stop-color="#A67AF4"/><stop offset=".999" stop-color="#773ADC"/></linearGradient></defs></svg>