<svg width="33" height="33" viewBox="0 0 33 33" fill="none" xmlns="http://www.w3.org/2000/svg">
<path fill-rule="evenodd" clip-rule="evenodd" d="M3.35791 7.39343C3.35791 6.01272 4.4772 4.89343 5.85791 4.89343C7.23862 4.89343 8.35791 6.01272 8.35791 7.39343V21.8979C7.72265 21.2496 6.83725 20.8474 5.85791 20.8474C4.87857 20.8474 3.99317 21.2496 3.35791 21.8979V7.40812C3.35791 7.40321 3.35784 7.39831 3.3577 7.39343H3.35791ZM2.35812 7.39343H2.35791C2.35791 5.46044 3.92491 3.89343 5.85791 3.89343C7.23592 3.89343 8.42793 4.6898 8.99882 5.84741H16.3579H25.8579C28.3432 5.84741 30.3579 7.86213 30.3579 10.3474V16.8474L30.3579 26.7866V27.3892C30.3579 29.3215 28.7936 30.8892 26.8623 30.8892C26.5862 30.8892 26.3623 30.6654 26.3623 30.3892V27.8474H5.85791C3.92491 27.8474 2.35791 26.2804 2.35791 24.3474V7.40812C2.35791 7.40321 2.35798 7.39831 2.35812 7.39343ZM27.3623 27.8474V29.839C28.3533 29.6371 29.1314 28.8468 29.3161 27.8474H27.3623ZM9.31557 6.84741C9.3411 7.01041 9.35539 7.17714 9.35761 7.34678H9.35791V7.39343V24.3474C9.35791 24.6236 9.13405 24.8474 8.85791 24.8474C8.58177 24.8474 8.35791 24.6236 8.35791 24.3474C8.35791 22.9667 7.23862 21.8474 5.85791 21.8474C4.4772 21.8474 3.35791 22.9667 3.35791 24.3474C3.35791 25.7281 4.4772 26.8474 5.85791 26.8474H29.3579V16.8474V10.3474C29.3579 8.41442 27.7909 6.84741 25.8579 6.84741H16.3579H9.31557Z" fill="#4F5162"/>
<path fill-rule="evenodd" clip-rule="evenodd" d="M18.8558 8.87845C19.1319 8.87845 19.3558 9.10231 19.3558 9.37845C19.3558 9.65459 19.1319 9.87845 18.8558 9.87845H18.3661L18.3661 10.9539C19.381 11.1716 20.1419 12.0739 20.1419 13.1538C20.1419 13.2251 20.1386 13.2956 20.1321 13.3652C20.1474 13.3955 20.1598 13.4277 20.1689 13.4617L22.3118 21.4592L22.3392 21.5613L22.3229 21.6657L22.0394 23.4818C22.0088 23.6773 21.8659 23.8364 21.6747 23.8876C21.4836 23.9388 21.2803 23.8725 21.1561 23.7185L20.0025 22.2875L19.9362 22.2052L19.9088 22.1031L19.0724 18.9814C19.069 18.9815 19.0657 18.9815 19.0624 18.9815L15.5967 18.9815L14.3819 23.5151C14.3105 23.7818 14.0363 23.9401 13.7696 23.8686C13.5028 23.7972 13.3445 23.523 13.416 23.2563L14.5614 18.9815H13.3921C13.1159 18.9815 12.8921 18.7577 12.8921 18.4815C12.8921 18.2054 13.1159 17.9815 13.3921 17.9815L14.8294 17.9815L15.8624 14.1263C15.7211 13.832 15.6419 13.5022 15.6419 13.1538C15.6419 12.0923 16.3771 11.2024 17.3661 10.9656L17.3661 9.87845H16.8376C16.5615 9.87845 16.3376 9.65459 16.3376 9.37845C16.3376 9.10231 16.5615 8.87845 16.8376 8.87845H17.8661H18.3661H18.8558ZM18.8044 17.9815L18.1109 15.3933C18.0389 15.4003 17.9658 15.4038 17.8919 15.4038C17.4348 15.4038 17.0096 15.2675 16.6546 15.0334L15.8646 17.9815L18.8044 17.9815ZM19.0613 15.0765L20.8474 21.7422L21.2256 22.2113L21.3186 21.6159L19.4786 14.7491C19.3532 14.8739 19.2132 14.9839 19.0613 15.0765ZM17.8919 11.9038C18.5823 11.9038 19.1419 12.4635 19.1419 13.1538C19.1419 13.8442 18.5823 14.4038 17.8919 14.4038C17.2016 14.4038 16.6419 13.8442 16.6419 13.1538C16.6419 12.4635 17.2016 11.9038 17.8919 11.9038Z" fill="#4F5162"/>
</svg>
