<svg fill="none" viewBox="0 0 22 22" xmlns="http://www.w3.org/2000/svg"><g clip-rule="evenodd" fill="#0278d5" fill-rule="evenodd"><path d="m2.23242 4.77344c0-.86295.69956-1.5625 1.5625-1.5625.86295 0 1.5625.69955 1.5625 1.5625v9.62466c-.43247-.3331-.97435-.5313-1.5625-.5313s-1.13002.1982-1.5625.5313v-9.61456c0-.00338-.00003-.00674-.0001-.0101zm-.9999 0h-.0001c0-1.41523 1.14727-2.5625 2.5625-2.5625.97391 0 1.82091.5433 2.25447 1.34336h4.96431 5.2812c2.4853 0 4.5 2.01472 4.5 4.5v3.2188 6.7187c0 .0387-.0022.0769-.0065.1145h.0065v.4143c0 1.4145-1.1452 2.5625-2.5595 2.5625-.2761 0-.5-.2239-.5-.5v-1.5913h-13.00298c-.32473 0-.63912-.0442-.9375-.127v.127c-1.41523 0-2.5625-1.1473-2.5625-2.5625 0-.1472.01241-.2915.03625-.4319-.02389-.1651-.03625-.3339-.03625-.5056v-10.70826c0-.00338.00004-.00674.0001-.0101zm1.05504 11.24296c.24105 1.1289 1.24409 1.9754 2.44486 1.9754h15.06248v-6.7187-3.2188c0-1.933-1.567-3.5-3.5-3.5h-5.2812-4.66552c.00523.06176.00827.12414.00905.18706h.00019v.03208 11.65586c0 .2762-.22386.5-.5.5s-.5-.2238-.5-.5c0-.8629-.69955-1.5625-1.5625-1.5625-.72002 0-1.32629.487-1.50736 1.1496zm16.44784 2.9754v1.0092c.4688-.1589.8379-.535.9874-1.0092z"/><path d="m12.7309 5.63818c.2761 0 .5.22386.5.5 0 .27615-.2239.5-.5.5h-.1804v.4617c.7057.20797 1.2209.86077 1.2209 1.63389 0 .03981-.0014.07931-.0041.11845.0067.01707.0125.03468.0173.05279l1.4733 5.49829.0273.1021-.0163.1044-.1949 1.2485c-.0305.1955-.1735.3547-.3646.4059-.1912.0512-.3945-.0151-.5187-.1692l-.7931-.9838-.0663-.0823-.0274-.1021-.544-2.0302h-2.1497l-.80415 3.001c-.07147.2667-.34564.425-.61238.3535-.26673-.0714-.42502-.3456-.35355-.6124l.73477-2.7421h-.60028c-.27614 0-.5-.2239-.5-.5 0-.2762.22386-.5.5-.5h.86823l.66456-2.48026c-.0915-.20897-.1423-.43984-.1423-.68257 0-.76009.4979-1.40388 1.1854-1.623v-.47259h-.2071c-.2761 0-.5-.22385-.5-.5 0-.27614.2239-.5.5-.5h.7071.5zm-.2389 6.25842-.3912-1.46c-.0108.0002-.0217.0003-.0326.0003-.27 0-.5253-.0628-.7522-.1747l-.4379 1.6344zm.5603-1.7726 1.1902 4.4419.0177.022.0044-.0279-1.1925-4.4503c-.0065.0048-.0132.0096-.0198.0143zm-.9841-2.09336c.3884 0 .7032.3148.7032.70313 0 .38832-.3148.70312-.7032.70312-.3883 0-.7031-.3148-.7031-.70312 0-.38833.3148-.70313.7031-.70313z"/></g></svg>