<svg width="24" height="25" viewBox="0 0 24 25" fill="none" xmlns="http://www.w3.org/2000/svg">
<path d="M7.28921 17.7886H3.94923C1.71895 17.2337 0 15.4821 0 13.1539C0 11.2283 1.24026 9.4658 2.92656 8.80216C2.9048 8.59545 2.89392 8.39962 2.89392 8.19291C2.89392 4.88557 5.58114 2.20923 8.88848 2.20923C10.7053 2.20923 12.4134 3.03607 13.5558 4.45039C14.2303 4.11313 14.981 3.92818 15.7425 3.93906C18.3645 3.93906 20.6274 6.26725 20.7253 8.85655L11.7824 5.16843L7.28921 7.85565V17.7886Z" fill="#59B4D9"/>
<path d="M24.0002 20.2582L11.6738 22.6082L11.7282 13.9482L24.0002 16.222L24.0002 20.2582ZM11.7173 6.28906L24.0002 10.9128V15.5366L11.7391 12.9255" fill="#959595"/>
<path d="M11.7384 12.9255L8.39844 14.4813V8.31263L11.7167 6.28906M23.4447 15.0035L12.3041 12.4577V6.93095L23.4447 11.0434V15.0035ZM17.3196 13.0234L18.4293 13.328V9.71608L17.3196 9.32442V13.0234ZM16.199 8.97628L15.0893 8.57374V12.4251L16.199 12.7406V8.97628ZM19.5498 13.6327L20.6487 13.9264L20.6704 10.4885L19.5498 10.1186L19.5498 13.6327ZM12.859 11.8593L13.9687 12.1422V8.20384L12.859 7.83394V11.8593ZM22.8898 11.2392L21.7801 10.8475V14.2093L22.8898 14.5139V11.2392ZM12.3041 14.862V22.0098L23.4447 19.9645V16.581L12.3041 14.862ZM12.859 21.1721V15.6671L13.9687 15.8086V20.9872L12.859 21.1721ZM16.199 20.6173L15.0893 20.824V15.9609L16.199 16.1241C16.199 16.1132 16.199 20.6173 16.199 20.6173ZM17.3196 20.4541V16.2329L18.4293 16.3743V20.2474L17.3196 20.4541ZM20.6595 19.8666L19.5498 20.0515V16.5048L20.6595 16.668V19.8666ZM22.9225 19.5076L21.7692 19.7034V16.7877L22.8463 16.9183L22.9225 19.5076Z" fill="#B3B4B5"/>
<path d="M9.53044 12.8166L8.97559 13.143V8.75863L9.53044 8.454V12.8166ZM10.6401 7.823L10.0853 8.20378V12.4685L10.6401 12.1639V7.823Z" fill="#959595"/>
<path d="M8.39872 20.6281L8.37695 15.5583L11.7278 13.9373L11.7496 22.619" fill="#B3B4B5"/>
<path d="M9.45372 20.6064L8.94238 20.3453V16.0697L9.45372 15.8412V20.6064ZM10.6505 15.3081L10.0956 15.5475L10.0738 20.9436L10.6504 21.2374L10.6505 15.3081Z" fill="#959595"/>
<path d="M22.8789 11.5982L12.8699 8.23645L12.8807 7.80127L22.8789 11.2392V11.5982ZM22.8463 16.9291L12.8807 15.678V16.1131L22.8572 17.2881L22.8463 16.9291ZM10.6396 8.38876V7.84479L9.01854 8.7369L8.99678 9.19383L10.6396 8.38876ZM8.95326 16.396L10.6505 15.7759V15.3081L8.94238 16.0696L8.95326 16.396Z" fill="#7A7A7A"/>
<path opacity="0.2" d="M24.0002 10.9345V20.2582L11.75 22.6082L21.0301 9.81396L24.0002 10.9345Z" fill="white"/>
</svg>
