<svg viewBox="0 0 157 116" xmlns="http://www.w3.org/2000/svg"><g fill="none" fill-rule="evenodd"><path fill="#996DAE" d="M47.905 0L72 7.358v22.076L47.905 39z"/><path d="M44.254 0v39L26 32.377V5.887L44.254 0zm-2.19 5.15l-4.381.958v26.784l4.38.957V5.151zm-6.572 1.473l-2.92.834v23.35l2.92.835V6.622zm-5.111 1.471l-2.19.736v20.604l2.19.736V8.094z" fill="#864E9E"/><path fill="#996DAE" d="M104.905 0L129 7.358v22.076L104.905 39z"/><path d="M101.254 0v39L83 32.377V5.887L101.254 0zm-2.19 5.15l-4.381.958v26.784l4.38.957V5.151zm-6.572 1.473l-2.92.834v23.35l2.92.835V6.622zm-5.111 1.471l-2.19.736v20.604l2.19.736V8.094z" fill="#864E9E"/><path fill="#996DAE" d="M47.905 77L72 84.358v22.076L47.905 116z"/><path d="M44.254 77v39L26 109.377v-26.49L44.254 77zm-2.19 5.15l-4.381.958v26.784l4.38.957V82.151zm-6.572 1.473l-2.92.834v23.35l2.92.835v-25.02zm-5.111 1.471l-2.19.736v20.604l2.19.736V85.094z" fill="#864E9E"/><path fill="#996DAE" d="M104.905 77L129 84.358v22.076L104.905 116z"/><path d="M101.254 77v39L83 109.377v-26.49L101.254 77zm-2.19 5.15l-4.381.958v26.784l4.38.957V82.151zm-6.572 1.473l-2.92.834v23.35l2.92.835v-25.02zm-5.111 1.471l-2.19.736v20.604l2.19.736V85.094z" fill="#864E9E"/><g><path fill="#996DAE" d="M21.905 39L46 46.358v22.076L21.905 78z"/><path d="M18.254 39v39L0 71.377v-26.49L18.254 39zm-2.19 5.15l-4.381.958v26.784l4.38.957V44.151zm-6.572 1.473l-2.92.834v23.35l2.92.835v-25.02zm-5.111 1.471l-2.19.736v20.604l2.19.736V47.094z" fill="#864E9E"/></g><g><path fill="#996DAE" d="M77.905 39L102 46.358v22.076L77.905 78z"/><path d="M74.254 39v39L56 71.377v-26.49L74.254 39zm-2.19 5.15l-4.381.958v26.784l4.38.957V44.151zm-6.572 1.473l-2.92.834v23.35l2.92.835v-25.02zm-5.111 1.471l-2.19.736v20.604l2.19.736V47.094z" fill="#864E9E"/></g><g><path fill="#996DAE" d="M132.905 39L157 46.358v22.076L132.905 78z"/><path d="M129.254 39v39L111 71.377v-26.49L129.254 39zm-2.19 5.15l-4.381.958v26.784l4.38.957V44.151zm-6.572 1.473l-2.92.834v23.35l2.92.835v-25.02zm-5.111 1.471l-2.19.736v20.604l2.19.736V47.094z" fill="#864E9E"/></g></g></svg>