<svg fill="none" height="33" viewBox="0 0 33 33" width="33" xmlns="http://www.w3.org/2000/svg"><g clip-rule="evenodd" fill="#4f5162" fill-rule="evenodd"><path d="m8.13777 6.38169c.23818-.13973.31799-.44609.17826-.68427s-.44609-.31799-.68427-.17826l-5.00301 2.93508c-.306.17952-.49398.50774-.49398.86252v7.13654 7.1362c0 .3551.18828.6835.49468.8629l5.00266 2.9295c.23829.1395.54458.0595.68412-.1788s.05949-.5446-.1788-.6841l-5.00266-2.9295v-7.1362-7.13654zm15.99403 0c-.2382-.13973-.318-.44609-.1783-.68427s.4461-.31799.6843-.17826l5.003 2.93508c.306.17952.494.50774.494.86252v7.13654 7.1362c0 .3551-.1883.6835-.4947.8629l-5.0027 2.9295c-.2383.1395-.5446.0595-.6841-.1788s-.0595-.5446.1788-.6841l5.0027-2.9295v-7.1362-7.13654z"/><path d="m15.9774 6.4162c.1572-.09246.3523-.09197.5091.0013l7.4633 4.4403c.1519.0903.2448.2542.2443.431-.0004.1767-.0942.3401-.2466.4297l-7.5402 4.4323c-.157.0923-.3517.0919-.5084-.001l-7.47377-4.4323c-.15213-.0902-.24528-.2541-.24495-.431.00032-.1768.09407-.3404.24654-.43zm-6.31394 4.8731 6.49164 3.8498 6.5568-3.8542-6.4826-3.85678zm-3.00571 1.6281c.15306-.0898.34223-.0917.49707-.005l7.92028 4.4323c.158.0884.2558.2553.2558.4363v8.6437c0 .1771-.0936.3409-.2461.4308-.1526.0899-.3412.0924-.4961.0066l-7.92032-4.387c-.15904-.0881-.25774-.2555-.25774-.4374v-4.3445-4.3445c0-.1774.09404-.3416.24711-.4313zm.75289 1.2841v3.4917 4.0499l6.92026 3.8331v-7.502zm18.19986-.8528c0-.1793-.096-.3449-.2517-.434s-.3471-.0879-.5017.0029l-7.5402 4.4323c-.1528.0899-.2466.2539-.2466.4311v8.6437c0 .179.0956.3443.2507.4335s.3461.0887.5008-.0013l7.5401-4.387c.1539-.0895.2486-.2541.2486-.4322zm-7.5402 12.2067v-7.4883l6.5402-3.8445v7.5276z"/></g></svg>