<svg viewBox="0 0 24 24" fill="none" xmlns="http://www.w3.org/2000/svg">
<path d="M7.28921 17.3744H3.94923C1.71895 16.8196 0 15.068 0 12.7398C0 10.8141 1.24026 9.05168 2.92656 8.38803C2.9048 8.18132 2.89392 7.98549 2.89392 7.77879C2.89392 4.47144 5.58114 1.7951 8.88848 1.7951C10.7053 1.7951 12.4134 2.62194 13.5558 4.03627C14.2303 3.699 14.981 3.51405 15.7425 3.52493C18.3645 3.52493 20.6274 5.85313 20.7253 8.44243L11.7824 4.75431L7.28921 7.44152V17.3744Z" fill="#F3F3FA"/>
<path d="M24 19.844L11.6736 22.194L11.728 13.534L24 15.8078L24 19.844ZM11.7172 5.87488L24 10.4986V15.1224L11.7389 12.5113" fill="#F3F3FA"/>
<path d="M11.7386 12.5113L8.39862 14.0671V7.89845L11.7168 5.87488M23.4449 14.5893L12.3043 12.0435V6.51676L23.4449 10.6292V14.5893ZM17.3197 12.6092L18.4294 12.9139V9.30189L17.3197 8.91024V12.6092ZM16.1992 8.56209L15.0895 8.15955V12.0109L16.1992 12.3264V8.56209ZM19.55 13.2185L20.6488 13.5122L20.6706 10.0743L19.55 9.70443L19.55 13.2185ZM12.8592 11.4451L13.9689 11.728V7.78966L12.8592 7.41975V11.4451ZM22.89 10.825L21.7803 10.4334V13.7951L22.89 14.0997V10.825ZM12.3043 14.4479V21.5956L23.4449 19.5503V16.1668L12.3043 14.4479ZM12.8592 20.7579V15.2529L13.9689 15.3944V20.573L12.8592 20.7579ZM16.1992 20.2031L15.0895 20.4098V15.5467L16.1992 15.7099C16.1992 15.699 16.1992 20.2031 16.1992 20.2031ZM17.3197 20.0399V15.8187L18.4294 15.9601V19.8332L17.3197 20.0399ZM20.6597 19.4524L19.55 19.6373V16.0907L20.6597 16.2538V19.4524ZM22.9226 19.0934L21.7694 19.2892V16.3735L22.8465 16.5041L22.9226 19.0934Z" fill="#D9DEE5"/>
<path d="M9.53062 12.4025L8.97577 12.7288V8.34444L9.53062 8.03982V12.4025ZM10.6403 7.40881L10.0855 7.78959V12.0543L10.6403 11.7497V7.40881Z" fill="#F3F3FA"/>
<path d="M8.39884 20.2139L8.37708 15.1441L11.7279 13.5231L11.7497 22.2049" fill="#D9DEE5"/>
<path d="M9.45408 20.1922L8.94275 19.9311V15.6555L9.45408 15.427V20.1922ZM10.6508 14.8939L10.096 15.1333L10.0742 20.5295L10.6508 20.8232L10.6508 14.8939Z" fill="#F3F3FA"/>
<path d="M22.8793 11.184L12.8702 7.82229L12.8811 7.38712L22.8793 10.825V11.184ZM22.8466 16.5149L12.8811 15.2638V15.699L22.8575 16.874L22.8466 16.5149ZM10.6399 7.97461V7.43063L9.01891 8.32274L8.99714 8.77968L10.6399 7.97461ZM8.95363 15.9819L10.6508 15.3617V14.8939L8.94275 15.6555L8.95363 15.9819Z" fill="#C4C5D0"/>
<path opacity="0.3" fill-rule="evenodd" clip-rule="evenodd" d="M17.2845 14.5635L24 15.8078V19.8441L11.762 22.1772L17.2845 14.5635ZM17.8318 13.8088L21.0299 9.39984L24 10.5204V15.1224L17.8318 13.8088Z" fill="#F3F3FA"/>
</svg>
