<svg width="24" height="24" viewBox="0 0 24 24" fill="none" xmlns="http://www.w3.org/2000/svg">
<path d="M2.19916 1.8218C2.16398 1.8314 2.12241 1.85058 2.10642 1.86657C2.08724 1.88256 2.04887 1.89535 2.01689 1.89535C1.98491 1.89535 1.95933 1.90814 1.95933 1.92733C1.95933 1.94331 1.93055 1.9593 1.89538 1.9593C1.82823 1.9593 1.79625 1.97849 1.65555 2.10959C1.61398 2.15116 1.56921 2.18314 1.55962 2.18314C1.53404 2.18314 1.4477 2.26948 1.4477 2.29506C1.4477 2.30785 1.42852 2.33663 1.40933 2.35901C1.30701 2.47093 1.28782 2.50291 1.28782 2.55087C1.28782 2.57645 1.27503 2.59884 1.25584 2.59884C1.23985 2.59884 1.22387 2.65 1.22387 2.71076C1.22387 2.77151 1.21107 2.82267 1.19189 2.82267C1.16951 2.82267 1.15991 5.19535 1.15991 9.87355C1.15991 14.5517 1.16951 16.9244 1.19189 16.9244C1.21107 16.9244 1.22387 16.9756 1.22387 17.0363C1.22387 17.0971 1.23985 17.1483 1.25584 17.1483C1.27503 17.1483 1.28782 17.177 1.28782 17.2122C1.28782 17.2474 1.3102 17.2762 1.33578 17.2762C1.36137 17.2762 1.38375 17.2922 1.38375 17.3081C1.38375 17.3625 1.75788 17.7238 1.81224 17.7238C1.84102 17.7238 1.8634 17.7366 1.8634 17.7558C1.8634 17.7718 1.89857 17.7878 1.94334 17.7878C1.98811 17.7878 2.02328 17.8006 2.02328 17.8198C2.02328 17.8358 2.05206 17.8517 2.08404 17.8517C2.11921 17.8517 2.15759 17.8645 2.16718 17.8837C2.17997 17.9061 3.39189 17.9157 5.69421 17.9157C7.62241 17.9157 9.21805 17.9285 9.23724 17.9413C9.29799 17.9797 9.37794 18.1651 9.37794 18.2642C9.37794 18.3154 9.39392 18.3698 9.40991 18.3794C9.4291 18.389 9.44189 18.4625 9.44189 18.5424C9.44189 18.6192 9.45788 18.6831 9.47387 18.6831C9.49305 18.6831 9.50584 18.7727 9.50584 18.8878C9.50584 19.0253 9.51863 19.0988 9.54741 19.1052C9.57299 19.1148 9.58578 19.2108 9.58578 19.4346C9.58578 19.6584 9.57299 19.7544 9.54741 19.764C9.52503 19.7704 9.50584 19.8247 9.50584 19.8855C9.50584 19.9462 9.49305 19.9942 9.47387 19.9942C9.45788 19.9942 9.44189 20.023 9.44189 20.0581C9.44189 20.1253 9.1541 20.4419 9.09014 20.4419C9.07416 20.4419 9.05817 20.4547 9.05817 20.4738C9.05817 20.4898 9.02939 20.5058 8.99102 20.5058C8.95584 20.5058 8.90468 20.5282 8.8791 20.5538C8.85032 20.5794 8.80235 20.6017 8.76718 20.6017C8.7352 20.6017 8.70642 20.6145 8.70642 20.6337C8.70642 20.6497 8.65526 20.6657 8.59451 20.6657C8.53375 20.6657 8.48259 20.6785 8.48259 20.6977C8.48259 20.7169 8.39625 20.7297 8.29073 20.7297C8.1852 20.7297 8.09887 20.7424 8.09887 20.7552C8.09887 20.8096 7.27067 20.8704 6.36573 20.8799L5.41282 20.8927V21.5483V22.2006H12.4797H19.5465V21.5451V20.8927L18.5968 20.8799C17.6631 20.8704 16.7646 20.8096 16.7646 20.7552C16.7646 20.7424 16.6654 20.7297 16.5407 20.7297C16.4128 20.7297 16.3169 20.7169 16.3169 20.6977C16.3169 20.6785 16.2657 20.6657 16.205 20.6657C16.1442 20.6657 16.0931 20.6497 16.0931 20.6337C16.0931 20.6145 16.0515 20.6017 16.0003 20.6017C15.9492 20.6017 15.8852 20.5794 15.8564 20.5538C15.8308 20.5282 15.7797 20.5058 15.7445 20.5058C15.7061 20.5058 15.6774 20.493 15.6774 20.4802C15.6774 20.4674 15.6294 20.4387 15.575 20.4163C15.5175 20.3971 15.4311 20.3427 15.3832 20.298C15.3352 20.2532 15.2808 20.218 15.2617 20.218C15.2457 20.218 15.2297 20.202 15.2297 20.1829C15.2297 20.1637 15.2105 20.1285 15.1881 20.1061C15.089 19.9942 15.0698 19.9622 15.0698 19.9142C15.0698 19.8887 15.057 19.8663 15.0378 19.8663C15.0218 19.8663 15.0058 19.8247 15.0058 19.7735C15.0058 19.7224 14.9867 19.6744 14.9675 19.6648C14.9099 19.6456 14.9099 18.6128 14.9675 18.5936C14.9899 18.5872 15.0058 18.5201 15.0058 18.4081C15.0058 18.3122 15.0218 18.2355 15.0378 18.2355C15.057 18.2355 15.0698 18.1875 15.0698 18.1299C15.0698 17.9157 14.7852 17.9349 18.5297 17.9125C20.4003 17.9029 21.9768 17.8837 22.0343 17.8709C22.0887 17.8549 22.1367 17.8326 22.1367 17.8166C22.1367 17.8006 22.1654 17.7878 22.2006 17.7878C22.2358 17.7878 22.2646 17.7718 22.2646 17.7558C22.2646 17.7366 22.2837 17.7238 22.3061 17.7238C22.3605 17.7238 22.5524 17.548 22.5524 17.5C22.5524 17.4776 22.5875 17.4265 22.6323 17.3849C22.6771 17.3433 22.7122 17.289 22.7122 17.2602C22.7122 17.2346 22.7282 17.2122 22.7442 17.2122C22.7634 17.2122 22.7762 17.161 22.7762 17.1003C22.7762 17.0395 22.7922 16.9884 22.8082 16.9884C22.8306 16.9884 22.8401 14.5965 22.8401 9.87355C22.8401 5.15058 22.8306 2.75872 22.8082 2.75872C22.7922 2.75872 22.7762 2.70756 22.7762 2.6468C22.7762 2.58605 22.7634 2.53488 22.7442 2.53488C22.7282 2.53488 22.7122 2.5061 22.7122 2.47093C22.7122 2.43576 22.6994 2.40698 22.6835 2.40698C22.6675 2.40698 22.6419 2.375 22.6323 2.33983C22.6035 2.25029 22.3093 1.9593 22.2486 1.9593C22.223 1.9593 22.2006 1.94331 22.2006 1.92733C22.2006 1.90814 22.1654 1.89535 22.1239 1.89535C22.0823 1.89535 22.0407 1.87616 22.0343 1.85378C22.0215 1.825 20.0134 1.81541 12.1407 1.81221C6.70788 1.80901 2.23433 1.81221 2.19916 1.8218ZM21.2413 9.82558V16.2529H12H2.75875V9.84477C2.75875 4.74767 2.76834 3.43343 2.80032 3.42064C2.81951 3.41105 6.97968 3.40145 12.0416 3.40145L21.2413 3.39826V9.82558Z" fill="currentColor"/>
<path d="M12.1727 5.58867C12.1599 5.61425 12.1216 5.63663 12.0832 5.63663C12.0448 5.63663 11.9937 5.66541 11.9681 5.70059C11.9425 5.73576 11.8881 5.76454 11.8498 5.76454C11.805 5.76454 11.7762 5.78373 11.7762 5.8125C11.7762 5.83809 11.7474 5.86047 11.7123 5.86047C11.6771 5.86047 11.6483 5.87326 11.6483 5.89245C11.6483 5.90843 11.6259 5.92442 11.6004 5.92442C11.5748 5.92442 11.5524 5.93721 11.5524 5.9564C11.5524 5.97239 11.5236 5.98838 11.4884 5.98838C11.4533 5.98838 11.4245 6.00117 11.4245 6.01716C11.4245 6.03314 11.3893 6.05553 11.3445 6.06512C11.2998 6.07791 11.2646 6.10029 11.2646 6.11628C11.2646 6.13547 11.2358 6.14826 11.2006 6.14826C11.1655 6.14826 11.1367 6.16105 11.1367 6.18024C11.1367 6.19623 11.1143 6.21221 11.0887 6.21221C11.0631 6.21221 11.0408 6.225 11.0408 6.24419C11.0408 6.26018 11.012 6.27617 10.98 6.27617C10.948 6.27617 10.9129 6.29855 10.9001 6.32413C10.8905 6.34971 10.8521 6.3721 10.8169 6.3721C10.7818 6.3721 10.753 6.38489 10.753 6.40407C10.753 6.42006 10.7306 6.43605 10.705 6.43605C10.6794 6.43605 10.657 6.44884 10.657 6.46803C10.657 6.48402 10.6347 6.5 10.6059 6.5C10.5803 6.5 10.5355 6.51919 10.5131 6.53838C10.398 6.6407 10.3661 6.65989 10.3053 6.65989C10.2701 6.65989 10.2413 6.67268 10.2413 6.69186C10.2413 6.70785 10.219 6.72384 10.1934 6.72384C10.1678 6.72384 10.1454 6.73663 10.1454 6.75582C10.1454 6.77181 10.123 6.78779 10.0974 6.78779C10.0687 6.78779 10.0399 6.81018 10.0303 6.83576C10.0175 6.86134 9.98233 6.88373 9.95036 6.88373C9.91838 6.88373 9.8896 6.89652 9.8896 6.9157C9.8896 6.93169 9.86722 6.94768 9.84164 6.94768C9.81605 6.94768 9.79367 6.96047 9.79367 6.97966C9.79367 6.99564 9.76489 7.01163 9.72972 7.01163C9.69454 7.01163 9.66576 7.02442 9.66576 7.04361C9.66576 7.0596 9.63059 7.08198 9.58582 7.09477C9.54105 7.10436 9.50588 7.12675 9.50588 7.14274C9.50588 7.15873 9.4771 7.17152 9.44193 7.17152C9.40675 7.17152 9.37797 7.18431 9.37797 7.20349C9.37797 7.21948 9.35559 7.23547 9.33001 7.23547C9.30443 7.23547 9.28204 7.24506 9.28204 7.25785C9.28204 7.28663 9.09977 7.39535 9.05181 7.39535C9.01983 7.39535 8.9303 7.47529 8.9303 7.50407C8.9303 7.51367 8.95908 7.52326 8.99425 7.52326C9.02943 7.52326 9.0582 7.53605 9.0582 7.54884C9.0582 7.56163 9.10937 7.59361 9.17332 7.61599C9.23408 7.63838 9.29483 7.67675 9.30443 7.70233C9.31402 7.72791 9.34919 7.7471 9.38117 7.7471C9.41315 7.7471 9.44193 7.75989 9.44193 7.77907C9.44193 7.79506 9.4707 7.81105 9.50588 7.81105C9.54105 7.81105 9.56983 7.82384 9.56983 7.84303C9.56983 7.85902 9.58582 7.875 9.60501 7.875C9.62419 7.875 9.65937 7.89419 9.68175 7.91338C9.79687 8.0157 9.82884 8.03489 9.8896 8.03489C9.92477 8.03489 9.95355 8.04768 9.95355 8.06047C9.95355 8.07646 10.0047 8.11483 10.0655 8.15C10.1262 8.18198 10.1774 8.22035 10.1774 8.23314C10.1774 8.24913 10.2062 8.25873 10.2413 8.25873C10.2765 8.25873 10.3053 8.27152 10.3053 8.2907C10.3053 8.30669 10.3277 8.32268 10.3533 8.32268C10.3788 8.32268 10.4012 8.33547 10.4012 8.35466C10.4012 8.37064 10.43 8.38663 10.462 8.38663C10.494 8.38663 10.5291 8.40902 10.5419 8.4346C10.5515 8.46018 10.5867 8.48256 10.6155 8.48256C10.6474 8.48256 10.6954 8.51134 10.721 8.54652C10.7466 8.58169 10.7849 8.61047 10.8041 8.61047C10.8585 8.61047 11.0408 8.71599 11.0408 8.74477C11.0408 8.76076 11.0631 8.77035 11.0887 8.77035C11.1143 8.77035 11.1367 8.78314 11.1367 8.80233C11.1367 8.81832 11.1655 8.83431 11.2006 8.83431C11.2358 8.83431 11.2646 8.8471 11.2646 8.86628C11.2646 8.88227 11.287 8.89826 11.3126 8.89826C11.3381 8.89826 11.3925 8.93343 11.4373 8.9782C11.482 9.02297 11.546 9.05814 11.5844 9.05814C11.6195 9.05814 11.6483 9.07093 11.6483 9.09012C11.6483 9.10611 11.6771 9.1221 11.7123 9.1221C11.7474 9.1221 11.7762 9.14448 11.7762 9.17006C11.7762 9.19564 11.7986 9.21803 11.8242 9.21803C11.8498 9.21803 11.8722 9.23082 11.8722 9.25C11.8722 9.26599 11.9009 9.28198 11.9361 9.28198C11.9713 9.28198 12.0001 9.29477 12.0001 9.31396C12.0001 9.32995 12.0224 9.34593 12.048 9.34593C12.0768 9.34593 12.1344 9.36832 12.1759 9.3971C12.2495 9.44506 12.2623 9.44506 12.3358 9.3971C12.3774 9.36832 12.4349 9.34593 12.4637 9.34593C12.4893 9.34593 12.5117 9.32995 12.5117 9.31396C12.5117 9.29477 12.5341 9.28198 12.5597 9.28198C12.5852 9.28198 12.6076 9.26599 12.6076 9.25C12.6076 9.23082 12.6364 9.21803 12.6716 9.21803C12.7068 9.21803 12.7355 9.19564 12.7355 9.17006C12.7355 9.14448 12.7643 9.1221 12.7995 9.1221C12.8347 9.1221 12.8634 9.10611 12.8634 9.09012C12.8634 9.07093 12.8922 9.05814 12.9274 9.05814C12.9658 9.05814 13.0297 9.02297 13.0745 8.9782C13.1193 8.93343 13.1736 8.89826 13.1992 8.89826C13.2248 8.89826 13.2472 8.88227 13.2472 8.86628C13.2472 8.8471 13.2759 8.83431 13.3111 8.83431C13.3463 8.83431 13.3751 8.81832 13.3751 8.80233C13.3751 8.78314 13.3974 8.77035 13.423 8.77035C13.4486 8.77035 13.471 8.76076 13.471 8.74477C13.471 8.71279 13.6565 8.61047 13.714 8.61047C13.7396 8.61047 13.7588 8.59448 13.7588 8.57849C13.7588 8.55931 13.7876 8.54652 13.8227 8.54652C13.8579 8.54652 13.8867 8.53053 13.8867 8.51454C13.8867 8.49535 13.9091 8.48256 13.9347 8.48256C13.9602 8.48256 13.9826 8.47297 13.9826 8.45698C13.9826 8.425 14.1681 8.32268 14.2256 8.32268C14.2512 8.32268 14.2704 8.30669 14.2704 8.2907C14.2704 8.27152 14.2864 8.25873 14.3056 8.25873C14.3248 8.25873 14.3599 8.23954 14.3823 8.21716C14.4943 8.11803 14.5262 8.09884 14.5742 8.09884C14.5998 8.09884 14.6222 8.08285 14.6222 8.06686C14.6222 8.04768 14.6509 8.03489 14.6861 8.03489C14.7245 8.03489 14.7916 7.99971 14.8396 7.95495C14.8876 7.91018 14.9419 7.875 14.9643 7.875C14.9867 7.875 15.0059 7.85902 15.0059 7.84303C15.0059 7.82384 15.0347 7.81105 15.0698 7.81105C15.105 7.81105 15.1338 7.79506 15.1338 7.77907C15.1338 7.75989 15.1562 7.7471 15.1818 7.7471C15.2073 7.7471 15.2297 7.7375 15.2297 7.72152C15.2297 7.69593 15.412 7.58721 15.4599 7.58721C15.4887 7.58721 15.5815 7.50727 15.5815 7.48169C15.5815 7.4721 15.5335 7.44652 15.4791 7.42413C15.4216 7.40175 15.3576 7.36657 15.3352 7.34739C15.2201 7.24826 15.1977 7.23547 15.1498 7.23547C15.1242 7.23547 15.1018 7.21948 15.1018 7.20349C15.1018 7.18431 15.0794 7.17152 15.0538 7.17152C15.0283 7.17152 15.0059 7.15553 15.0059 7.13954C15.0059 7.12035 14.9771 7.10756 14.9419 7.10756C14.9068 7.10756 14.8684 7.08518 14.8588 7.0596C14.846 7.03402 14.8108 7.01163 14.7788 7.01163C14.7469 7.01163 14.7181 7.00204 14.7181 6.98605C14.7181 6.97326 14.6701 6.94128 14.6158 6.9189C14.5582 6.89332 14.4911 6.85175 14.4687 6.82936C14.4463 6.80698 14.4047 6.78779 14.3791 6.78779C14.3536 6.78779 14.3344 6.77181 14.3344 6.75582C14.3344 6.73663 14.3056 6.72384 14.2704 6.72384C14.2352 6.72384 14.2065 6.70785 14.2065 6.69186C14.2065 6.67268 14.1905 6.65989 14.1745 6.65989C14.1425 6.65989 14.1041 6.63431 13.9986 6.53838C13.9762 6.51919 13.9251 6.5 13.8899 6.5C13.8515 6.5 13.8227 6.49041 13.8227 6.47442C13.8227 6.46163 13.7428 6.41047 13.6469 6.35611C13.5509 6.30495 13.471 6.25059 13.471 6.23779C13.471 6.225 13.439 6.21221 13.4038 6.21221C13.3655 6.21221 13.3111 6.18663 13.2823 6.15146C13.2536 6.11948 13.1992 6.08431 13.1608 6.07152C13.1193 6.05873 13.0873 6.03314 13.0873 6.01716C13.0873 6.00117 13.0585 5.98838 13.0233 5.98838C12.9881 5.98838 12.9594 5.97559 12.9594 5.96279C12.9594 5.95 12.9082 5.91803 12.8443 5.89564C12.7835 5.87326 12.7227 5.83489 12.7131 5.80931C12.7036 5.78373 12.6684 5.76454 12.6364 5.76454C12.6044 5.76454 12.5756 5.74855 12.5756 5.73256C12.5756 5.71338 12.5469 5.70059 12.5117 5.70059C12.4765 5.70059 12.4477 5.6846 12.4477 5.66861C12.4477 5.64942 12.4318 5.63663 12.4126 5.63663C12.3934 5.63663 12.3582 5.61425 12.3326 5.58867C12.3038 5.56309 12.2623 5.5407 12.2367 5.5407C12.2111 5.5407 12.1823 5.56309 12.1727 5.58867Z" fill="currentColor"/>
<path d="M8.54651 10.0782C8.54651 11.1142 8.5561 11.984 8.56569 12.0128C8.57529 12.0416 8.61366 12.064 8.64564 12.064C8.67761 12.064 8.70639 12.0767 8.70639 12.0959C8.70639 12.1119 8.72558 12.1279 8.75116 12.1279C8.77354 12.1279 8.81192 12.1503 8.8343 12.1759C8.85668 12.2015 8.90145 12.2238 8.93343 12.2238C8.9686 12.2238 8.99418 12.2366 8.99418 12.2558C8.99418 12.2718 9.01657 12.2878 9.04215 12.2878C9.06773 12.2878 9.09011 12.3006 9.09011 12.3198C9.09011 12.3358 9.11889 12.3517 9.15407 12.3517C9.18924 12.3517 9.21802 12.3645 9.21802 12.3837C9.21802 12.3997 9.25319 12.4221 9.29796 12.4349C9.34273 12.4445 9.3779 12.4669 9.3779 12.4829C9.3779 12.4988 9.40668 12.5116 9.44186 12.5116C9.47703 12.5116 9.50581 12.5244 9.50581 12.5436C9.50581 12.5596 9.52819 12.5756 9.55378 12.5756C9.57936 12.5756 9.60174 12.5884 9.60174 12.6076C9.60174 12.6235 9.62413 12.6395 9.64971 12.6395C9.67849 12.6395 9.70726 12.6619 9.71686 12.6875C9.72965 12.7131 9.76482 12.7355 9.7968 12.7355C9.82878 12.7355 9.85756 12.7483 9.85756 12.7674C9.85756 12.7834 9.87994 12.7994 9.90552 12.7994C9.9311 12.7994 9.95349 12.8122 9.95349 12.8314C9.95349 12.8474 9.97267 12.8634 9.99825 12.8634C10.0558 12.8634 10.2413 12.9657 10.2413 12.9977C10.2413 13.0137 10.2701 13.0233 10.3052 13.0233C10.3404 13.0233 10.3692 13.036 10.3692 13.0552C10.3692 13.0712 10.3916 13.0872 10.4171 13.0872C10.4427 13.0872 10.4651 13.1 10.4651 13.116C10.4651 13.132 10.5003 13.1544 10.5451 13.164C10.5898 13.1767 10.625 13.1991 10.625 13.2151C10.625 13.2343 10.6538 13.2471 10.689 13.2471C10.7241 13.2471 10.7529 13.2599 10.7529 13.2791C10.7529 13.2951 10.7817 13.311 10.8169 13.311C10.852 13.311 10.8808 13.3238 10.8808 13.343C10.8808 13.359 10.9032 13.375 10.9288 13.375C10.9544 13.375 10.9767 13.3878 10.9767 13.407C10.9767 13.423 11.0119 13.4454 11.0567 13.4581C11.1015 13.4677 11.1366 13.4901 11.1366 13.5061C11.1366 13.5221 11.1654 13.5349 11.2006 13.5349C11.2358 13.5349 11.2645 13.5477 11.2645 13.5669C11.2645 13.5829 11.2837 13.5988 11.3061 13.5988C11.3285 13.5988 11.3828 13.634 11.4308 13.6788C11.4788 13.7235 11.5459 13.7587 11.5843 13.7587C11.6195 13.7587 11.6483 13.7715 11.6483 13.7907C11.6483 13.8067 11.677 13.8227 11.7122 13.8227C11.7474 13.8227 11.7762 13.8355 11.7762 13.8547C11.7762 13.8706 11.7921 13.8866 11.8081 13.8866C11.8305 13.8866 11.8401 13.2215 11.8401 11.952C11.8401 10.0398 11.8401 10.0174 11.7762 10.0174C11.741 10.0174 11.7122 10.0047 11.7122 9.99186C11.7122 9.97587 11.661 9.9471 11.6003 9.92151C11.5395 9.89593 11.4884 9.86715 11.4884 9.85436C11.4884 9.84157 11.4532 9.82239 11.4084 9.81279C11.3637 9.8 11.3285 9.77762 11.3285 9.76163C11.3285 9.74244 11.2997 9.72965 11.2645 9.72965C11.2294 9.72965 11.2006 9.71367 11.2006 9.69768C11.2006 9.67849 11.1782 9.6657 11.1526 9.6657C11.127 9.6657 11.1046 9.64971 11.1046 9.63372C11.1046 9.61454 11.0759 9.60175 11.0407 9.60175C11.0055 9.60175 10.9767 9.57936 10.9767 9.55378C10.9767 9.525 10.948 9.50582 10.8968 9.50582C10.852 9.50582 10.8169 9.48983 10.8169 9.47384C10.8169 9.45465 10.7881 9.44186 10.7529 9.44186C10.7177 9.44186 10.689 9.42587 10.689 9.40989C10.689 9.3907 10.673 9.37791 10.6538 9.37791C10.6346 9.37791 10.5994 9.35872 10.577 9.33634C10.4651 9.23721 10.4331 9.21803 10.382 9.21803C10.3532 9.21803 10.3052 9.19244 10.2765 9.15727C10.2477 9.12529 10.1933 9.09012 10.1549 9.07733C10.1134 9.06454 10.0814 9.03896 10.0814 9.02297C10.0814 9.00698 10.0526 8.99419 10.0206 8.99419C9.98546 8.99419 9.95349 8.9846 9.94709 8.96861C9.94389 8.95582 9.87994 8.91744 9.81279 8.88227C9.59535 8.77035 9.56976 8.75436 9.56976 8.73198C9.56976 8.71599 9.54099 8.7064 9.50581 8.7064C9.47064 8.7064 9.44186 8.69041 9.44186 8.67442C9.44186 8.65524 9.42267 8.64244 9.40029 8.64244C9.3779 8.64244 9.32354 8.60727 9.27558 8.5625C9.22761 8.51774 9.16046 8.48256 9.12209 8.48256C9.08692 8.48256 9.05814 8.46977 9.05814 8.45378C9.05814 8.43779 9.00697 8.40582 8.94622 8.38343C8.88546 8.36105 8.8343 8.32268 8.8343 8.30029C8.8343 8.27791 8.79913 8.25872 8.75436 8.25872C8.70959 8.25872 8.67442 8.24274 8.67442 8.22675C8.67442 8.20756 8.64564 8.19477 8.61046 8.19477C8.54651 8.19477 8.54651 8.21715 8.54651 10.0782Z" fill="currentColor"/>
<path d="M15.7413 8.22675C15.7413 8.24274 15.7221 8.25872 15.6965 8.25872C15.6709 8.25872 15.6453 8.28111 15.6325 8.30669C15.623 8.33227 15.5942 8.35465 15.5654 8.35465C15.5398 8.35465 15.5174 8.36744 15.5174 8.38663C15.5174 8.40262 15.4886 8.41861 15.4535 8.41861C15.4183 8.41861 15.3895 8.4314 15.3895 8.45058C15.3895 8.46657 15.3607 8.48256 15.3224 8.48256C15.284 8.48256 15.2264 8.51774 15.1913 8.5625C15.1561 8.60727 15.1017 8.64244 15.0666 8.64244C15.0346 8.64244 15.0058 8.65524 15.0058 8.67442C15.0058 8.69041 14.977 8.7064 14.9418 8.7064C14.9067 8.7064 14.8779 8.71919 14.8779 8.73837C14.8779 8.75436 14.8555 8.77035 14.8299 8.77035C14.8043 8.77035 14.782 8.77994 14.782 8.79274C14.782 8.82791 14.5965 8.93024 14.5389 8.93024C14.5134 8.93024 14.4942 8.94303 14.4942 8.96221C14.4942 8.9782 14.4654 8.99419 14.4302 8.99419C14.395 8.99419 14.3663 9.01018 14.3663 9.02617C14.3663 9.04535 14.3151 9.08372 14.2543 9.1125C14.1936 9.14128 14.1424 9.17646 14.1424 9.19244C14.1424 9.20524 14.1073 9.21803 14.0625 9.21803C14.0177 9.21803 13.9825 9.23082 13.9825 9.24361C13.9825 9.2596 13.9314 9.29797 13.8706 9.33314C13.8099 9.36512 13.7587 9.40349 13.7587 9.41628C13.7587 9.43227 13.7299 9.44186 13.6948 9.44186C13.6596 9.44186 13.6308 9.45465 13.6308 9.47384C13.6308 9.48983 13.5956 9.50582 13.5509 9.50582C13.5061 9.50582 13.4709 9.52181 13.4709 9.54099C13.4709 9.59215 13.3718 9.6625 13.3046 9.6657C13.2727 9.6657 13.2471 9.67849 13.2471 9.69768C13.2471 9.71367 13.2183 9.72965 13.1863 9.72965C13.1511 9.72965 13.1192 9.74244 13.1128 9.75843C13.0968 9.8 12.8378 9.95349 12.7834 9.95349C12.7578 9.95349 12.7355 9.96628 12.7355 9.98227C12.7355 9.99826 12.7067 10.0174 12.6715 10.027C12.6075 10.043 12.6075 10.0718 12.6075 11.9648C12.6075 13.0233 12.6139 13.8866 12.6235 13.8866C12.6619 13.8866 12.7994 13.8099 12.7994 13.7843C12.7994 13.7715 12.8282 13.7587 12.8666 13.7587C12.9017 13.7587 12.9529 13.7395 12.9753 13.7172C13.0808 13.6244 13.1192 13.5988 13.1511 13.5988C13.1671 13.5988 13.1831 13.5829 13.1831 13.5669C13.1831 13.5477 13.2119 13.5349 13.2471 13.5349C13.2823 13.5349 13.311 13.5189 13.311 13.5029C13.311 13.4837 13.3398 13.4709 13.375 13.4709C13.4102 13.4709 13.4485 13.4485 13.4581 13.423C13.4709 13.3974 13.5061 13.375 13.5381 13.375C13.57 13.375 13.5988 13.359 13.5988 13.343C13.5988 13.3238 13.6212 13.311 13.6468 13.311C13.6724 13.311 13.6948 13.2951 13.6948 13.2791C13.6948 13.2599 13.7235 13.2471 13.7587 13.2471C13.7939 13.2471 13.8227 13.2343 13.8227 13.2183C13.8227 13.2023 13.8578 13.1799 13.9026 13.1704C13.9474 13.1576 13.9825 13.1352 13.9825 13.1192C13.9825 13.1 14.0113 13.0872 14.0465 13.0872C14.0817 13.0872 14.1105 13.0712 14.1105 13.0552C14.1105 13.036 14.1328 13.0233 14.1584 13.0233C14.184 13.0233 14.2064 13.0137 14.2064 12.9977C14.2064 12.9657 14.3918 12.8634 14.4494 12.8634C14.475 12.8634 14.4942 12.8474 14.4942 12.8314C14.4942 12.8122 14.5166 12.7994 14.5421 12.7994C14.5677 12.7994 14.5901 12.7834 14.5901 12.7674C14.5901 12.7483 14.6189 12.7355 14.6541 12.7355C14.6892 12.7355 14.718 12.7259 14.718 12.7099C14.718 12.6779 14.9035 12.5756 14.961 12.5756C14.9866 12.5756 15.0058 12.5596 15.0058 12.5436C15.0058 12.5244 15.0218 12.5116 15.041 12.5116C15.0602 12.5116 15.0953 12.4924 15.1177 12.4701C15.2296 12.3709 15.2616 12.3517 15.3096 12.3517C15.3352 12.3517 15.3575 12.3358 15.3575 12.3198C15.3575 12.3006 15.3927 12.2878 15.4375 12.2878C15.4823 12.2878 15.5174 12.275 15.5174 12.2622C15.5174 12.2462 15.5686 12.2079 15.6293 12.1727C15.6901 12.1407 15.7413 12.1023 15.7413 12.0895C15.7413 12.0735 15.7636 12.064 15.7924 12.064C15.9331 12.064 15.9331 12.0799 15.9331 10.0846V8.19477H15.8372C15.786 8.19477 15.7413 8.20756 15.7413 8.22675Z" fill="currentColor"/>
</svg>
