<svg viewBox="0 0 157 116" xmlns="http://www.w3.org/2000/svg"><g fill="none" fill-rule="evenodd"><path d="m47.905 0 24.095 7.358v22.076l-24.095 9.566z" fill="#996dae"/><path d="m44.254 0v39l-18.254-6.623v-26.49zm-2.19 5.15-4.381.958v26.784l4.38.957v-28.698zm-6.572 1.473-2.92.834v23.35l2.92.835v-25.02zm-5.111 1.471-2.19.736v20.604l2.19.736z" fill="#864e9e"/><path d="m104.905 0 24.095 7.358v22.076l-24.095 9.566z" fill="#996dae"/><path d="m101.254 0v39l-18.254-6.623v-26.49zm-2.19 5.15-4.381.958v26.784l4.38.957v-28.698zm-6.572 1.473-2.92.834v23.35l2.92.835v-25.02zm-5.111 1.471-2.19.736v20.604l2.19.736z" fill="#864e9e"/><path d="m47.905 77 24.095 7.358v22.076l-24.095 9.566z" fill="#996dae"/><path d="m44.254 77v39l-18.254-6.623v-26.49zm-2.19 5.15-4.381.958v26.784l4.38.957v-28.698zm-6.572 1.473-2.92.834v23.35l2.92.835v-25.02zm-5.111 1.471-2.19.736v20.604l2.19.736z" fill="#864e9e"/><path d="m104.905 77 24.095 7.358v22.076l-24.095 9.566z" fill="#996dae"/><path d="m101.254 77v39l-18.254-6.623v-26.49zm-2.19 5.15-4.381.958v26.784l4.38.957v-28.698zm-6.572 1.473-2.92.834v23.35l2.92.835v-25.02zm-5.111 1.471-2.19.736v20.604l2.19.736z" fill="#864e9e"/><path d="m21.905 39 24.095 7.358v22.076l-24.095 9.566z" fill="#996dae"/><path d="m18.254 39v39l-18.254-6.623v-26.49zm-2.19 5.15-4.381.958v26.784l4.38.957v-28.698zm-6.572 1.473-2.92.834v23.35l2.92.835v-25.02zm-5.111 1.471-2.19.736v20.604l2.19.736z" fill="#864e9e"/><path d="m77.905 39 24.095 7.358v22.076l-24.095 9.566z" fill="#996dae"/><path d="m74.254 39v39l-18.254-6.623v-26.49zm-2.19 5.15-4.381.958v26.784l4.38.957v-28.698zm-6.572 1.473-2.92.834v23.35l2.92.835v-25.02zm-5.111 1.471-2.19.736v20.604l2.19.736z" fill="#864e9e"/><path d="m132.905 39 24.095 7.358v22.076l-24.095 9.566z" fill="#996dae"/><path d="m129.254 39v39l-18.254-6.623v-26.49zm-2.19 5.15-4.381.958v26.784l4.38.957v-28.698zm-6.572 1.473-2.92.834v23.35l2.92.835v-25.02zm-5.111 1.471-2.19.736v20.604l2.19.736z" fill="#864e9e"/></g></svg>