<svg viewBox="0 0 24 24" xmlns="http://www.w3.org/2000/svg"><g fill="#0278d5"><path d="m2.2 1.822a.25.25 0 0 0 -.094.045.157.157 0 0 1 -.09.028c-.031 0-.057.013-.057.032 0 .016-.028.032-.064.032-.067 0-.099.02-.24.15a.327.327 0 0 1 -.095.074c-.026 0-.112.086-.112.112 0 .013-.02.042-.039.064-.102.112-.121.144-.121.192 0 .025-.013.048-.032.048-.016 0-.032.051-.032.112 0 .06-.013.112-.032.112-.022 0-.032 2.372-.032 7.05 0 4.679.01 7.051.032 7.051.02 0 .032.052.032.112 0 .061.016.112.032.112.019 0 .032.029.032.064s.022.064.048.064c.025 0 .048.016.048.032 0 .055.374.416.428.416.029 0 .051.013.051.032 0 .016.036.032.08.032.045 0 .08.013.08.032 0 .016.03.032.061.032.035 0 .074.012.083.032.013.022 1.225.032 3.527.032 1.928 0 3.524.012 3.543.025.061.039.14.224.14.323 0 .051.017.106.033.115.02.01.032.083.032.163 0 .077.016.141.032.141.02 0 .032.09.032.205 0 .137.013.21.041.217.026.01.039.106.039.33 0 .223-.013.32-.039.329-.022.006-.041.06-.041.122 0 .06-.013.108-.032.108-.016 0-.032.029-.032.064 0 .067-.288.384-.352.384a.032.032 0 0 0 -.032.032c0 .016-.029.032-.067.032a.186.186 0 0 0 -.112.048.194.194 0 0 1 -.112.048c-.032 0-.06.012-.06.032 0 .016-.052.032-.112.032-.061 0-.112.012-.112.032 0 .019-.087.032-.192.032-.106 0-.192.012-.192.025 0 .055-.828.115-1.733.125l-.953.013v1.307h14.134v-1.308l-.95-.013c-.934-.01-1.832-.07-1.832-.125 0-.013-.1-.025-.224-.025-.128 0-.224-.013-.224-.032 0-.02-.051-.032-.112-.032-.06 0-.112-.016-.112-.032 0-.02-.041-.032-.093-.032a.25.25 0 0 1 -.144-.048.186.186 0 0 0 -.111-.048c-.039 0-.068-.013-.068-.026s-.048-.041-.102-.064a.638.638 0 0 1 -.192-.118c-.048-.045-.102-.08-.121-.08-.016 0-.032-.016-.032-.035 0-.02-.02-.055-.042-.077-.099-.112-.118-.144-.118-.192 0-.025-.013-.048-.032-.048-.016 0-.032-.041-.032-.093 0-.05-.02-.099-.039-.108-.057-.02-.057-1.052 0-1.071.023-.007.039-.074.039-.186 0-.096.016-.173.032-.173.019 0 .032-.047.032-.105 0-.214-.285-.195 3.46-.217 1.87-.01 3.447-.03 3.504-.042.055-.016.103-.038.103-.054s.028-.03.064-.03c.035 0 .064-.015.064-.031 0-.02.019-.032.041-.032.054 0 .246-.176.246-.224 0-.022.035-.073.08-.115s.08-.096.08-.125c0-.025.016-.048.032-.048.02 0 .032-.051.032-.112 0-.06.016-.112.032-.112.023 0 .032-2.391.032-7.114s-.01-7.115-.032-7.115c-.016 0-.032-.051-.032-.112 0-.06-.013-.112-.032-.112-.016 0-.032-.029-.032-.064s-.013-.064-.029-.064c-.015 0-.041-.032-.05-.067-.03-.09-.324-.38-.384-.38-.026 0-.048-.017-.048-.033 0-.019-.036-.032-.077-.032-.042 0-.083-.019-.09-.041-.012-.029-2.02-.039-9.893-.042-5.433-.003-9.907 0-9.942.01zm19.04 8.004v6.427h-18.48v-6.408c0-5.097.01-6.412.041-6.424.02-.01 4.18-.02 9.242-.02l9.2-.003v6.428z"/><path d="m12.173 5.589c-.013.025-.051.048-.09.048a.163.163 0 0 0 -.115.064.17.17 0 0 1 -.118.064c-.045 0-.074.019-.074.048 0 .025-.029.047-.064.047s-.064.013-.064.032c0 .016-.022.032-.048.032-.025 0-.048.013-.048.032 0 .016-.028.032-.064.032-.035 0-.063.013-.063.03 0 .015-.036.038-.08.047-.045.013-.08.035-.08.051 0 .02-.03.032-.064.032-.036 0-.064.013-.064.032 0 .016-.023.032-.048.032-.026 0-.048.013-.048.032 0 .016-.029.032-.061.032a.097.097 0 0 0 -.08.048c-.01.026-.048.048-.083.048s-.064.013-.064.032c0 .016-.022.032-.048.032s-.048.013-.048.032c0 .016-.022.032-.051.032a.18.18 0 0 0 -.093.038c-.115.103-.147.122-.208.122-.035 0-.064.013-.064.032 0 .016-.022.032-.048.032-.025 0-.048.013-.048.032 0 .016-.022.032-.048.032a.077.077 0 0 0 -.067.048.097.097 0 0 1 -.08.048c-.032 0-.06.013-.06.032 0 .016-.023.032-.048.032-.026 0-.048.012-.048.032 0 .016-.03.032-.064.032-.035 0-.064.012-.064.032 0 .016-.035.038-.08.05-.045.01-.08.033-.08.049s-.029.029-.064.029-.064.012-.064.031c0 .016-.022.032-.048.032s-.048.01-.048.023c0 .029-.182.137-.23.137-.032 0-.122.08-.122.11 0 .009.03.018.064.018.035 0 .064.013.064.026s.051.045.115.067c.061.022.122.06.131.086.01.026.045.045.077.045s.06.013.06.032c0 .016.03.032.065.032s.064.013.064.032c0 .016.016.032.035.032.02 0 .054.02.077.038.115.103.147.122.208.122.035 0 .064.013.064.025 0 .016.05.055.111.09.061.032.112.07.112.083 0 .016.03.026.064.026.036 0 .064.013.064.032 0 .016.023.032.048.032.026 0 .048.012.048.032 0 .016.029.032.061.032s.067.022.08.048c.01.025.045.048.074.048.031 0 .08.028.105.064.026.035.064.063.083.063.054 0 .237.106.237.135 0 .016.022.025.048.025.025 0 .048.013.048.032 0 .016.028.032.064.032.035 0 .064.013.064.032 0 .016.022.032.048.032.025 0 .08.035.124.08.045.045.109.08.147.08.036 0 .064.013.064.032 0 .016.03.032.064.032.035 0 .064.022.064.048a.05.05 0 0 0 .048.048c.026 0 .048.013.048.032 0 .016.029.032.064.032s.064.013.064.032c0 .016.022.032.048.032.029 0 .086.022.128.051.073.048.086.048.16 0a.288.288 0 0 1 .128-.051c.025 0 .048-.016.048-.032 0-.02.022-.032.048-.032.025 0 .048-.016.048-.032 0-.02.028-.032.064-.032.035 0 .063-.022.063-.048s.03-.048.065-.048.063-.016.063-.032c0-.02.03-.032.064-.032.039 0 .103-.035.148-.08.044-.045.099-.08.124-.08.026 0 .048-.016.048-.032 0-.019.029-.032.064-.032s.064-.016.064-.032c0-.019.022-.032.048-.032s.048-.01.048-.025c0-.032.185-.135.243-.135.026 0 .045-.016.045-.032 0-.019.029-.031.064-.031s.064-.016.064-.032c0-.02.022-.032.048-.032.025 0 .048-.01.048-.026 0-.032.185-.134.243-.134.025 0 .044-.016.044-.032 0-.02.016-.032.036-.032.019 0 .054-.02.076-.042.112-.099.144-.118.192-.118.026 0 .048-.016.048-.032 0-.02.029-.032.064-.032.039 0 .106-.035.154-.08s.102-.08.124-.08c.023 0 .042-.016.042-.032 0-.02.029-.032.064-.032s.064-.016.064-.032c0-.02.022-.032.048-.032.025 0 .048-.01.048-.025 0-.026.182-.135.23-.135.029 0 .121-.08.121-.105 0-.01-.047-.035-.102-.058a.636.636 0 0 1 -.144-.077c-.115-.099-.137-.112-.185-.112-.026 0-.048-.016-.048-.032 0-.019-.023-.031-.048-.031-.026 0-.048-.016-.048-.032 0-.02-.029-.032-.064-.032s-.074-.023-.083-.048a.097.097 0 0 0 -.08-.048c-.032 0-.06-.01-.06-.026 0-.013-.049-.045-.103-.067a.626.626 0 0 1 -.147-.09.154.154 0 0 0 -.09-.041c-.025 0-.045-.016-.045-.032 0-.02-.028-.032-.064-.032-.035 0-.063-.016-.063-.032a.032.032 0 0 0 -.033-.032c-.031 0-.07-.026-.175-.122a.202.202 0 0 0 -.11-.038c-.037 0-.066-.01-.066-.026 0-.012-.08-.064-.176-.118-.096-.051-.176-.105-.176-.118s-.032-.026-.067-.026a.179.179 0 0 1 -.122-.06.334.334 0 0 0 -.121-.08c-.042-.013-.074-.039-.074-.055s-.028-.029-.064-.029c-.035 0-.064-.012-.064-.025s-.05-.045-.115-.067c-.06-.023-.121-.061-.13-.087-.01-.025-.046-.044-.078-.044s-.06-.016-.06-.032c0-.02-.03-.032-.064-.032-.036 0-.064-.016-.064-.032 0-.02-.016-.032-.035-.032-.02 0-.055-.023-.08-.048-.03-.026-.07-.048-.096-.048s-.055.022-.064.048zm-3.626 4.489c0 1.036.01 1.906.019 1.935.01.029.048.051.08.051s.06.013.06.032c0 .016.02.032.045.032.023 0 .06.022.083.048a.153.153 0 0 0 .1.048c.035 0 .06.013.06.032 0 .016.023.032.048.032.026 0 .048.013.048.032 0 .016.029.032.064.032s.064.012.064.032c0 .016.035.038.08.05.045.01.08.033.08.049s.029.029.064.029.064.012.064.032c0 .016.022.032.048.032.025 0 .048.012.048.032 0 .015.022.031.048.031.028 0 .057.023.067.049a.097.097 0 0 0 .08.047c.032 0 .06.013.06.032 0 .016.023.032.049.032.025 0 .047.013.047.032 0 .016.02.032.045.032.058 0 .243.103.243.135 0 .016.03.025.064.025.035 0 .064.013.064.032 0 .016.023.032.048.032.026 0 .048.013.048.029s.035.038.08.048c.045.013.08.035.08.051 0 .02.029.032.064.032s.064.013.064.032c0 .016.029.032.064.032s.064.013.064.032c0 .016.022.032.048.032.025 0 .048.013.048.032 0 .016.035.038.08.051.044.01.08.032.08.048s.028.029.064.029c.035 0 .063.013.063.032 0 .016.02.032.042.032.023 0 .077.035.125.08.048.044.115.08.153.08.036 0 .064.012.064.032 0 .016.029.032.064.032s.064.012.064.032c0 .016.016.032.032.032.023 0 .032-.665.032-1.935 0-1.912 0-1.935-.064-1.935-.035 0-.064-.012-.064-.025 0-.016-.051-.045-.112-.07-.06-.026-.112-.055-.112-.068 0-.012-.035-.032-.08-.041-.044-.013-.08-.035-.08-.051 0-.02-.028-.032-.063-.032-.036 0-.064-.016-.064-.032 0-.02-.023-.032-.048-.032-.026 0-.048-.016-.048-.032 0-.02-.03-.032-.064-.032-.036 0-.064-.023-.064-.048 0-.029-.029-.048-.08-.048-.045 0-.08-.016-.08-.032 0-.02-.029-.032-.064-.032s-.064-.016-.064-.032c0-.02-.016-.032-.035-.032-.02 0-.055-.02-.077-.042-.112-.099-.144-.118-.195-.118-.029 0-.077-.026-.105-.06a.335.335 0 0 0 -.122-.08c-.042-.013-.074-.039-.074-.055s-.028-.029-.06-.029c-.036 0-.068-.01-.074-.025a.491.491 0 0 0 -.134-.087c-.218-.112-.243-.128-.243-.15 0-.016-.029-.026-.064-.026s-.064-.016-.064-.032c0-.019-.02-.032-.042-.032s-.076-.035-.124-.08c-.048-.044-.116-.08-.154-.08-.035 0-.064-.012-.064-.028s-.051-.048-.112-.07c-.06-.023-.112-.061-.112-.084 0-.022-.035-.041-.08-.041-.044 0-.08-.016-.08-.032 0-.02-.028-.032-.064-.032-.063 0-.063.022-.063 1.883zm7.194-1.851c0 .016-.019.032-.044.032-.026 0-.052.022-.064.048a.077.077 0 0 1 -.068.048c-.025 0-.048.012-.048.032 0 .016-.028.032-.063.032-.036 0-.065.012-.065.032 0 .016-.028.032-.067.032-.038 0-.096.035-.13.08-.036.044-.09.08-.125.08-.032 0-.061.012-.061.031 0 .016-.029.032-.064.032s-.064.013-.064.032c0 .016-.023.032-.048.032-.026 0-.048.01-.048.023 0 .035-.185.137-.243.137-.026 0-.045.013-.045.032 0 .016-.029.032-.064.032s-.064.016-.064.032c0 .02-.05.058-.112.087-.06.028-.112.063-.112.08 0 .012-.035.025-.08.025-.044 0-.08.013-.08.026 0 .016-.05.054-.111.09-.061.031-.112.07-.112.082 0 .016-.03.026-.064.026-.035 0-.064.013-.064.032 0 .016-.035.032-.08.032s-.08.016-.08.035c0 .051-.1.121-.166.125-.032 0-.058.012-.058.032 0 .016-.029.032-.06.032-.036 0-.068.012-.074.028-.016.042-.275.195-.33.195-.025 0-.047.013-.047.03 0 .015-.03.034-.065.044-.063.016-.063.045-.063 1.938 0 1.058.006 1.922.015 1.922.039 0 .176-.077.176-.103 0-.013.03-.025.068-.025.035 0 .086-.02.108-.042.106-.093.144-.118.176-.118.016 0 .032-.016.032-.032 0-.02.029-.032.064-.032s.064-.016.064-.032c0-.02.029-.032.064-.032s.073-.023.083-.048a.097.097 0 0 1 .08-.048c.032 0 .06-.016.06-.032 0-.02.023-.032.049-.032.025 0 .048-.016.048-.032 0-.02.028-.032.064-.032.035 0 .064-.013.064-.029s.035-.038.08-.048c.044-.012.08-.035.08-.05 0-.02.028-.033.063-.033.036 0 .065-.016.065-.032 0-.019.022-.032.047-.032.026 0 .048-.01.048-.025 0-.032.186-.135.243-.135.026 0 .045-.016.045-.032 0-.019.023-.032.048-.032.026 0 .048-.016.048-.032 0-.019.029-.031.064-.031s.064-.01.064-.026c0-.032.185-.134.243-.134.026 0 .045-.016.045-.032 0-.02.016-.032.035-.032.02 0 .054-.02.077-.042.112-.1.144-.118.192-.118.025 0 .047-.016.047-.032 0-.02.036-.032.08-.032.045 0 .08-.013.08-.026 0-.016.052-.054.112-.09.061-.031.112-.07.112-.083 0-.016.023-.025.051-.025.141 0 .141.016.141-1.98v-1.89h-.096c-.051 0-.096.014-.096.033z"/></g></svg>