<svg viewBox="0 0 32 32" xmlns="http://www.w3.org/2000/svg"><g clip-path="url(#a)"><path d="M13.333 27.333a.967.967 0 0 1-.712-.287.967.967 0 0 1-.288-.713V8.51l-1.764 1.744a.957.957 0 0 1-.702.29.958.958 0 0 1-.703-.29.93.93 0 0 1-.293-.72.993.993 0 0 1 .293-.685l3.326-3.326c.24-.24.522-.361.843-.361.322 0 .603.12.844.361l3.326 3.326c.206.207.306.44.3.702a1.045 1.045 0 0 1-.3.703.992.992 0 0 1-.71.314.941.941 0 0 1-.696-.294L14.333 8.51v9.905c.735-.885 1.598-1.535 2.589-1.951a8.02 8.02 0 0 1 3.132-.623c.381 0 .747.016 1.097.046.35.031.69.077 1.018.139l-1.743-1.765a.957.957 0 0 1-.29-.702c0-.275.097-.51.29-.703a.93.93 0 0 1 .719-.293.992.992 0 0 1 .686.293l3.325 3.326c.241.241.362.522.362.844 0 .321-.12.602-.362.843l-3.325 3.326a.956.956 0 0 1-.703.29.956.956 0 0 1-.702-.29.963.963 0 0 1-.304-.72.956.956 0 0 1 .283-.685l1.764-1.764c-.355-.062-.72-.114-1.092-.156a9.935 9.935 0 0 0-1.105-.062c-1.243 0-2.39.369-3.439 1.106-1.05.738-1.783 1.869-2.2 3.394v4.025a.967.967 0 0 1-.287.713.967.967 0 0 1-.713.287Z" fill="#0278D5"/><path d="M31.407 28.432a4.694 4.694 0 0 1-5.712 2.922c.064-.145.099-.302.1-.46.006 0 .017.005.023.005.38.111.775.168 1.172.166a4.248 4.248 0 0 0 3.806-2.377l.005-.006.606-.25ZM23.99 29.816c-.14.077-.26.183-.356.31a4.776 4.776 0 0 1-.927-1.355l.577.128v.144a.334.334 0 0 0 .262.328l.077.017c.104.144.22.28.345.405l.022.023ZM28.862 22.532c-.078.14-.129.292-.15.45-.01-.005-.028-.01-.039-.017a4.157 4.157 0 0 0-1.683-.35 4.246 4.246 0 0 0-3.278 1.556l-.16.033a.334.334 0 0 0-.268.323v.255l-.566.106a4.697 4.697 0 0 1 4.272-2.74c.644.001 1.28.132 1.872.384ZM31.373 25.167l-.605-.212a3.672 3.672 0 0 0-.4-.644c-.011-.017-.022-.028-.028-.039.15-.055.285-.14.4-.25.268.348.481.733.633 1.145Z" fill="#32BEDD"/><path d="m27.596 28.616 1.41.31-2.188.907c-.011 0-.017.006-.028.006a.086.086 0 0 1-.083-.083v-5.84a.085.085 0 0 1 .083-.084c.01 0 .02.001.028.006l2.477.866-1.694.317a.314.314 0 0 0-.244.3v3a.298.298 0 0 0 .239.294Z" fill="#fff"/><path d="m22.611 25.149.672-.128v3.639l-.683-.15-.55-.122a.062.062 0 0 1-.05-.067v-3a.066.066 0 0 1 .05-.067l.561-.105Z" fill="#A67AF4"/><path d="m27.596 28.616 1.41.31-2.188.907c-.011 0-.017.006-.028.006a.086.086 0 0 1-.083-.083v-5.84a.085.085 0 0 1 .083-.084c.01 0 .02.001.028.006l2.477.866-1.694.317a.314.314 0 0 0-.244.3v3a.298.298 0 0 0 .239.294Z" fill="url(#b)"/><path d="m26.77 23.833-3.171.6a.098.098 0 0 0-.078.096v4.515a.098.098 0 0 0 .076.097l3.17.692a.098.098 0 0 0 .117-.096v-5.805a.097.097 0 0 0-.059-.09.097.097 0 0 0-.037-.009h-.018Z" fill="url(#c)"/><path d="M25.304 24.734v4.201l1.104.184v-4.584l-1.104.199ZM23.95 24.96v3.681l.96.202v-4.048l-.96.165Z" fill="#B796F9"/><path d="M30.889 23.138a.975.975 0 1 1-1.95-.006.975.975 0 0 1 1.95.006ZM24.583 31.851a.977.977 0 1 0 0-1.954.977.977 0 0 0 0 1.954Z" fill="#32BEDD"/><path d="M32 25.716v2.136a.124.124 0 0 1-.074.11l-2.131.88h-.006a.075.075 0 0 1-.021 0 .056.056 0 0 1-.056-.055v-3.88a.056.056 0 0 1 .03-.048h.01a.017.017 0 0 1 .011 0 .03.03 0 0 1 .02.004h.012l1.677.581.445.157a.119.119 0 0 1 .083.115Z" fill="#773ADC"/><path d="m29.755 24.855-2.111.398a.066.066 0 0 0-.052.065v3.005a.066.066 0 0 0 .05.064l2.112.462a.065.065 0 0 0 .048-.01.063.063 0 0 0 .028-.04V24.92a.065.065 0 0 0-.064-.066c-.004 0-.007 0-.011.002Z" fill="#A67AF4"/></g><defs><linearGradient id="b" x1="26.888" y1="26.835" x2="30.157" y2="26.835" gradientUnits="userSpaceOnUse"><stop offset=".001" stop-color="#773ADC"/><stop offset="1" stop-color="#552F99"/></linearGradient><linearGradient id="c" x1="25.202" y1="24.098" x2="25.202" y2="29.655" gradientUnits="userSpaceOnUse"><stop stop-color="#A67AF4"/><stop offset=".999" stop-color="#773ADC"/></linearGradient><clipPath id="a"><path fill="#fff" d="M0 0h32v32H0z"/></clipPath></defs></svg>