<svg viewBox="0 0 33 32" fill="none" xmlns="http://www.w3.org/2000/svg">
<g clip-path="url(#clip0_2920_319152)">
<path d="M9.71763 22.9815H5.26437C2.29069 22.2417 -0.0012207 19.9062 -0.0012207 16.802C-0.0012207 14.2345 1.65244 11.8846 3.90082 10.9997C3.87181 10.7241 3.8573 10.463 3.8573 10.1874C3.8573 5.77765 7.44023 2.20923 11.85 2.20923C14.2724 2.20923 16.5498 3.31167 18.073 5.19741C18.9723 4.74774 19.9733 4.50114 20.9886 4.51565C24.4845 4.51565 27.5017 7.61987 27.6322 11.0722L15.7085 6.15479L9.71763 9.73772V22.9815Z" fill="#59B4D9"/>
<path d="M31.9988 26.2743L15.5637 29.4076L15.6363 17.861L31.9988 20.8927V26.2743ZM15.6217 7.64896L31.9988 13.8139V19.9789L15.6508 16.4975" fill="#959595"/>
<path d="M15.6498 16.4975L11.1965 18.5718V10.347L15.6208 7.64896M31.258 19.2681L16.404 15.8737V8.5048L31.258 13.988V19.2681ZM23.0913 16.628L24.5709 17.0341V12.2183L23.0913 11.6961V16.628ZM21.5972 11.2319L20.1176 10.6952V15.8303L21.5972 16.2509V11.2319ZM26.0649 17.4404L27.5301 17.832L27.559 13.2482L26.0649 12.755V17.4404ZM17.1439 15.0759L18.6235 15.4531V10.202L17.1439 9.70878V15.0759ZM30.5182 14.2491L29.0386 13.7268V18.2092L30.5182 18.6153V14.2491ZM16.404 19.0794V28.6097L31.258 25.8827V21.3714L16.404 19.0794ZM17.1439 27.4928V20.1529L18.6235 20.3416V27.2463L17.1439 27.4928ZM21.5972 26.7531L20.1176 27.0287V20.5446L21.5972 20.7622C21.5972 20.7477 21.5972 26.7531 21.5972 26.7531ZM23.0913 26.5355V20.9073L24.5709 21.0958V26.2599L23.0913 26.5355ZM27.5445 25.7522L26.0649 25.9987V21.2698L27.5445 21.4874V25.7522ZM30.5618 25.2735L29.024 25.5346V21.647L30.4602 21.8211L30.5618 25.2735Z" fill="#B3B4B5"/>
<path d="M12.7059 16.3523L11.9661 16.7874V10.9417L12.7059 10.5355V16.3523ZM14.1854 9.69418L13.4457 10.2019V15.8881L14.1854 15.482V9.69418Z" fill="#959595"/>
<path d="M11.197 26.7675L11.168 20.0078L15.6357 17.8465L15.6648 29.422" fill="#B3B4B5"/>
<path d="M12.6037 26.7386L11.9219 26.3904V20.6897L12.6037 20.385V26.7386ZM14.1993 19.6742L13.4595 19.9934L13.4304 27.1882L14.1992 27.5799L14.1993 19.6742Z" fill="#959595"/>
<path d="M30.5037 14.7277L17.1585 10.2455L17.1729 9.66522L30.5037 14.2491V14.7277ZM30.4603 21.8355L17.1729 20.1674V20.7476L30.4748 22.3142L30.4603 21.8355ZM14.1848 10.4485V9.72325L12.0234 10.9127L11.9944 11.522L14.1848 10.4485ZM11.9364 21.1248L14.1993 20.298V19.6742L11.9219 20.6896L11.9364 21.1248Z" fill="#7A7A7A"/>
<path opacity="0.2" d="M31.9987 13.8428V26.2743L15.6653 29.4076L28.0386 12.3488L31.9987 13.8428Z" fill="white"/>
</g>
<defs>
<clipPath id="clip0_2920_319152">
<rect width="32" height="32" fill="white" transform="translate(0.0280762)"/>
</clipPath>
</defs>
</svg>
