<svg viewBox="0 0 32 32" xmlns="http://www.w3.org/2000/svg"><g clip-path="url(#a)"><path d="M30.101 20.583a15.018 15.018 0 0 1-14.133 9.938 14.484 14.484 0 0 1-4.142-.587c.204-.465.313-.967.32-1.475.018 0 .053.018.07.018 1.22.357 2.482.536 3.752.533a13.593 13.593 0 0 0 12.178-7.61l.018-.017 1.937-.8ZM6.368 25.01a3.6 3.6 0 0 0-1.138.995 15.289 15.289 0 0 1-2.969-4.337l1.85.408v.463a1.067 1.067 0 0 0 .835 1.048l.249.054c.333.46.701.894 1.102 1.298l.071.07ZM21.96 1.703c-.25.446-.413.934-.48 1.44-.037-.018-.09-.035-.125-.053a13.296 13.296 0 0 0-5.387-1.12A13.588 13.588 0 0 0 5.479 6.948l-.515.106a1.067 1.067 0 0 0-.854 1.031v.818l-1.813.338A15.03 15.03 0 0 1 15.968.476c2.06.002 4.097.419 5.991 1.227ZM29.995 10.133l-1.938-.675c-.354-.73-.783-1.421-1.28-2.062-.036-.054-.071-.09-.089-.125a3.703 3.703 0 0 0 1.28-.8 13.887 13.887 0 0 1 2.027 3.662Z" fill="#32BEDD"/><path d="m17.906 21.17 4.515.995-7.004 2.902c-.036 0-.053.017-.089.017a.274.274 0 0 1-.267-.266V6.13a.274.274 0 0 1 .267-.267.16.16 0 0 1 .089.018l7.929 2.773-5.422 1.014a1.004 1.004 0 0 0-.783.96v9.6a.955.955 0 0 0 .765.942Z" fill="#fff"/><path d="m1.956 10.076 2.15-.408v11.644l-2.186-.48-1.76-.391a.197.197 0 0 1-.16-.213v-9.6a.213.213 0 0 1 .16-.214l1.796-.338Z" fill="#A67AF4"/><path d="m17.906 21.17 4.515.995-7.004 2.902c-.036 0-.053.017-.089.017a.274.274 0 0 1-.267-.266V6.13a.274.274 0 0 1 .267-.267.16.16 0 0 1 .089.018l7.929 2.773-5.422 1.014a1.004 1.004 0 0 0-.783.96v9.6a.955.955 0 0 0 .765.942Z" fill="url(#b)"/><path d="M15.264 5.867 5.116 7.783a.315.315 0 0 0-.248.311v14.448a.315.315 0 0 0 .243.31l10.144 2.215a.313.313 0 0 0 .373-.31V6.183a.311.311 0 0 0-.305-.316h-.059Z" fill="url(#c)"/><path opacity=".5" d="M10.574 8.748v13.444l3.53.588V8.114l-3.53.634ZM6.238 9.474v11.778l3.074.645V8.944l-3.074.53Z" fill="#B796F9"/><path d="M28.444 3.64a3.12 3.12 0 1 1-6.239-.017 3.12 3.12 0 0 1 6.24.018ZM8.267 31.524a3.127 3.127 0 1 0 0-6.255 3.127 3.127 0 0 0 0 6.255Z" fill="#32BEDD"/><path d="M32 11.892v6.833a.395.395 0 0 1-.236.356l-1.362.562-5.458 2.254h-.02a.225.225 0 0 1-.067 0 .177.177 0 0 1-.178-.178V9.305a.177.177 0 0 1 .096-.157h.034a.055.055 0 0 1 .034 0 .098.098 0 0 1 .06.015h.041l5.367 1.86 1.422.5a.379.379 0 0 1 .267.369Z" fill="#773ADC"/><path d="m24.816 9.138-6.756 1.27a.21.21 0 0 0-.165.209v9.616a.21.21 0 0 0 .162.206l6.755 1.477a.204.204 0 0 0 .244-.16.198.198 0 0 0 0-.046V9.344a.208.208 0 0 0-.204-.21c-.012 0-.024.001-.036.004Z" fill="#A67AF4"/></g><defs><linearGradient id="b" x1="15.641" y1="15.472" x2="26.103" y2="15.472" gradientUnits="userSpaceOnUse"><stop offset=".001" stop-color="#773ADC"/><stop offset="1" stop-color="#552F99"/></linearGradient><linearGradient id="c" x1="10.247" y1="6.715" x2="10.247" y2="24.498" gradientUnits="userSpaceOnUse"><stop stop-color="#A67AF4"/><stop offset=".999" stop-color="#773ADC"/></linearGradient><clipPath id="a"><path fill="#fff" d="M0 0h32v32H0z"/></clipPath></defs></svg>