<svg viewBox="0 0 32 32" xmlns="http://www.w3.org/2000/svg"><g clip-path="url(#a)"><path d="M9.736 15.8c.362-.725.749-1.423 1.159-2.095.41-.672.862-1.335 1.356-1.99l-1.956-.392a.35.35 0 0 0-.199.006.445.445 0 0 0-.173.11l-3.018 3.017a.09.09 0 0 0-.026.09c.009.034.03.06.065.077L9.736 15.8Zm15.669-9.564c-1.803.096-3.537.55-5.201 1.36-1.664.811-3.201 1.922-4.612 3.332a21.605 21.605 0 0 0-2.538 3.039c-.734 1.066-1.308 2.096-1.723 3.09l3.787 3.766c.993-.415 2.025-.99 3.096-1.723a21.443 21.443 0 0 0 3.045-2.538c1.41-1.41 2.52-2.942 3.332-4.595a13.251 13.251 0 0 0 1.36-5.185.71.71 0 0 0-.03-.209.451.451 0 0 0-.118-.188.453.453 0 0 0-.189-.118.718.718 0 0 0-.209-.031Zm-7.23 7.756a2.24 2.24 0 0 1-.678-1.646c0-.646.226-1.195.677-1.646a2.253 2.253 0 0 1 1.657-.677c.653 0 1.205.226 1.656.677.451.451.677 1 .677 1.646a2.24 2.24 0 0 1-.677 1.646 2.252 2.252 0 0 1-1.656.677 2.253 2.253 0 0 1-1.657-.677Zm-1.8 8.439 1.176 2.813c.017.034.043.053.077.057a.104.104 0 0 0 .09-.032l3.018-3.005a.446.446 0 0 0 .109-.173.35.35 0 0 0 .006-.199l-.392-1.956c-.655.494-1.318.943-1.99 1.346a31.1 31.1 0 0 1-2.095 1.149ZM27.855 5.605a15.212 15.212 0 0 1-1.232 6.65c-.905 2.1-2.298 4.09-4.178 5.97a2.856 2.856 0 0 1-.122.116 2.851 2.851 0 0 0-.121.115l.615 3.031c.08.402.06.792-.06 1.172-.12.38-.324.712-.61.997l-3.956 3.957c-.299.299-.66.412-1.084.338a1.09 1.09 0 0 1-.877-.713l-1.816-4.266-5.212-5.226-4.267-1.815a1.099 1.099 0 0 1-.717-.877 1.16 1.16 0 0 1 .335-1.085l3.956-3.956a2.406 2.406 0 0 1 2.19-.657l3.03.616c.044-.043.08-.081.11-.116.03-.034.066-.072.109-.115 1.88-1.88 3.87-3.275 5.97-4.185 2.1-.909 4.317-1.322 6.65-1.238.161.014.32.053.476.118.156.065.297.16.422.285.124.124.217.263.278.415.06.152.098.308.111.47ZM6.028 21.428c.65-.65 1.442-.975 2.376-.978.934-.002 1.726.321 2.375.97.65.65.971 1.442.965 2.376-.007.934-.335 1.726-.985 2.376-.904.904-1.97 1.454-3.2 1.65-1.23.195-2.466.368-3.71.516.149-1.253.323-2.492.523-3.716.2-1.225.752-2.29 1.656-3.194Zm1.426 1.418a3.092 3.092 0 0 0-.803 1.38 12.918 12.918 0 0 0-.343 1.646c.564-.08 1.113-.194 1.646-.34a3.062 3.062 0 0 0 1.38-.799c.266-.266.406-.587.42-.96a1.242 1.242 0 0 0-.38-.96 1.254 1.254 0 0 0-.96-.384 1.37 1.37 0 0 0-.96.417Z" fill="#0278D5"/><path d="M31.407 28.432a4.693 4.693 0 0 1-5.711 2.922c.063-.145.098-.302.1-.46.005 0 .016.005.022.005.38.111.775.168 1.172.166a4.247 4.247 0 0 0 3.806-2.377l.005-.006.606-.25ZM23.99 29.816c-.14.077-.26.183-.356.31a4.776 4.776 0 0 1-.927-1.355l.577.128v.144a.333.333 0 0 0 .262.328l.077.017c.104.144.22.28.345.405l.022.023ZM28.862 22.532c-.078.14-.129.292-.15.45-.01-.005-.028-.01-.039-.017a4.157 4.157 0 0 0-1.683-.35 4.247 4.247 0 0 0-3.278 1.556l-.16.033a.333.333 0 0 0-.268.323v.255l-.566.106a4.697 4.697 0 0 1 4.272-2.74c.644.001 1.28.132 1.872.384ZM31.373 25.167l-.605-.212a3.672 3.672 0 0 0-.4-.644c-.011-.017-.022-.028-.028-.039.15-.055.285-.14.4-.25.268.348.481.733.633 1.145Z" fill="#32BEDD"/><path d="m27.596 28.616 1.41.31-2.188.907c-.011 0-.017.006-.028.006a.086.086 0 0 1-.083-.083v-5.84a.085.085 0 0 1 .083-.084c.01 0 .02.001.028.006l2.478.866-1.695.317a.314.314 0 0 0-.244.3v3a.298.298 0 0 0 .239.294Z" fill="#fff"/><path d="m22.611 25.149.672-.128v3.639l-.683-.15-.55-.122a.062.062 0 0 1-.05-.067v-3a.066.066 0 0 1 .05-.067l.561-.105Z" fill="#A67AF4"/><path d="m27.596 28.616 1.41.31-2.188.907c-.011 0-.017.006-.028.006a.086.086 0 0 1-.083-.083v-5.84a.085.085 0 0 1 .083-.084c.01 0 .02.001.028.006l2.478.866-1.695.317a.314.314 0 0 0-.244.3v3a.298.298 0 0 0 .239.294Z" fill="url(#b)"/><path d="m26.77 23.833-3.171.6a.098.098 0 0 0-.078.096v4.515a.098.098 0 0 0 .076.097l3.17.692a.098.098 0 0 0 .117-.096v-5.805a.097.097 0 0 0-.059-.09.097.097 0 0 0-.037-.009h-.018Z" fill="url(#c)"/><path d="M25.304 24.734v4.201l1.104.184v-4.584l-1.104.199ZM23.95 24.96v3.681l.96.202v-4.048l-.96.165Z" fill="#B796F9"/><path d="M30.889 23.138a.975.975 0 1 1-1.95-.006.975.975 0 0 1 1.95.006ZM24.583 31.851a.977.977 0 1 0 0-1.954.977.977 0 0 0 0 1.954Z" fill="#32BEDD"/><path d="M32 25.716v2.136a.124.124 0 0 1-.074.11l-2.131.88h-.006a.075.075 0 0 1-.021 0 .056.056 0 0 1-.056-.055v-3.88a.056.056 0 0 1 .03-.048h.01a.017.017 0 0 1 .011 0 .03.03 0 0 1 .02.004h.012l1.677.581.445.157a.119.119 0 0 1 .083.115Z" fill="#773ADC"/><path d="m29.755 24.855-2.111.398a.065.065 0 0 0-.052.065v3.005a.066.066 0 0 0 .05.064l2.112.462a.065.065 0 0 0 .048-.01.063.063 0 0 0 .028-.04V24.92a.065.065 0 0 0-.064-.066c-.004 0-.007 0-.011.002Z" fill="#A67AF4"/></g><defs><linearGradient id="b" x1="26.888" y1="26.835" x2="30.157" y2="26.835" gradientUnits="userSpaceOnUse"><stop offset=".001" stop-color="#773ADC"/><stop offset="1" stop-color="#552F99"/></linearGradient><linearGradient id="c" x1="25.202" y1="24.098" x2="25.202" y2="29.655" gradientUnits="userSpaceOnUse"><stop stop-color="#A67AF4"/><stop offset=".999" stop-color="#773ADC"/></linearGradient><clipPath id="a"><path fill="#fff" d="M0 0h32v32H0z"/></clipPath></defs></svg>