<svg width="33" height="32" viewBox="0 0 33 32" fill="none" xmlns="http://www.w3.org/2000/svg">
<g clip-path="url(#clip0_2920_319581)">
<path d="M9.74702 23.1659H5.29372C2.32001 22.4261 0.0280762 20.0907 0.0280762 16.9864C0.0280762 14.4189 1.68175 12.0689 3.93016 11.1841C3.90115 10.9085 3.88664 10.6473 3.88664 10.3717C3.88664 5.96194 7.46959 2.39349 11.8794 2.39349C14.3019 2.39349 16.5793 3.49594 18.1024 5.38171C19.0018 4.93203 20.0027 4.68542 21.0181 4.69993C24.514 4.69993 27.5312 7.80419 27.6618 11.2566L15.738 6.3391L9.74702 9.92205V23.1659Z" fill="#F3F3FA"/>
<path d="M32.0282 26.4588L15.593 29.592L15.6655 18.0453L32.0282 21.0771L32.0282 26.4588ZM15.651 7.83319L32.0282 13.9982V20.1632L15.6801 16.6818" fill="#F3F3FA"/>
<path d="M15.6796 16.6818L11.2263 18.7561V10.5313L15.6506 7.83319M31.288 19.4524L16.4339 16.058V8.68904L31.288 14.1723V19.4524ZM23.1211 16.8123L24.6007 17.2185V12.4025L23.1211 11.8803V16.8123ZM21.627 11.4161L20.1474 10.8794V16.0145L21.627 16.4352V11.4161ZM26.0949 17.6247L27.56 18.0163L27.589 13.4325L26.0949 12.9393L26.0949 17.6247ZM17.1737 15.2602L18.6533 15.6374V10.3862L17.1737 9.89303V15.2602ZM30.5482 14.4334L29.0686 13.9112V18.3935L30.5482 18.7996V14.4334ZM16.4339 19.2638V28.7942L31.288 26.0671V21.5558L16.4339 19.2638ZM17.1737 27.6772V20.3373L18.6533 20.5258V27.4306L17.1737 27.6772ZM21.627 26.9374L20.1474 27.2131V20.7289L21.627 20.9465C21.627 20.932 21.627 26.9374 21.627 26.9374ZM23.1211 26.7199V21.0916L24.6007 21.2802V26.4442L23.1211 26.7199ZM27.5745 25.9365L26.0949 26.1831V21.4542L27.5745 21.6718V25.9365ZM30.5917 25.4578L29.0541 25.719V21.8314L30.4901 22.0054L30.5917 25.4578Z" fill="#D9DEE5"/>
<path d="M12.7356 16.5366L11.9958 16.9718V11.1259L12.7356 10.7198V16.5366ZM14.2152 9.87842L13.4754 10.3861V16.0724L14.2152 15.6663V9.87842Z" fill="#F3F3FA"/>
<path d="M11.2265 26.9519L11.1975 20.1922L15.6653 18.0308L15.6943 29.6065" fill="#D9DEE5"/>
<path d="M12.6334 26.923L11.9517 26.5748V20.874L12.6334 20.5694V26.923ZM14.2291 19.8586L13.4893 20.1777L13.4603 27.3726L14.2291 27.7643L14.2291 19.8586Z" fill="#F3F3FA"/>
<path d="M30.5337 14.912L17.1883 10.4297L17.2028 9.84949L30.5337 14.4333V14.912ZM30.4902 22.0199L17.2028 20.3518V20.932L30.5047 22.4986L30.4902 22.0199ZM14.2146 10.6328V9.90751L12.0532 11.097L12.0242 11.7062L14.2146 10.6328ZM11.9662 21.3091L14.2291 20.4823V19.8586L11.9517 20.874L11.9662 21.3091Z" fill="#C4C5D0"/>
<path opacity="0.3" fill-rule="evenodd" clip-rule="evenodd" d="M23.074 19.418L32.028 21.0771V26.4588L15.7107 29.5696L23.074 19.418ZM23.8039 18.4118L28.0679 12.5331L32.028 14.0272V20.1632L23.8039 18.4118Z" fill="#F3F3FA"/>
</g>
<defs>
<clipPath id="clip0_2920_319581">
<rect width="32" height="32" fill="white" transform="translate(0.0280762)"/>
</clipPath>
</defs>
</svg>
