<svg viewBox="0 0 24 24" fill="none" xmlns="http://www.w3.org/2000/svg"><path d="M12.024 10.372c-.046 0-.046 0-.092-.048L5.483 6.34c-.046-.048-.091-.097-.091-.146 0-.048.045-.145.091-.145l6.404-3.983a.132.132 0 0 1 .182 0l6.45 3.983c.046.048.091.097.091.145 0 .05-.045.146-.091.146l-6.404 3.984c-.046 0-.046.048-.091.048Z" fill="#0F74C4"/><path d="M11.109 20.039c-.046 0-.046 0-.091-.049l-6.45-3.934c-.045-.05-.091-.098-.091-.146V7.895c0-.048.045-.146.091-.146.046-.048.137-.048.183 0l6.45 3.935c.045.048.091.097.091.145v7.967c0 .048-.046.146-.092.146-.045.097-.091.097-.091.097Z" fill="#0F5E9A"/><path d="M12.938 20.038c-.046 0-.046 0-.091-.048-.046-.049-.092-.097-.092-.146v-7.87c0-.047.046-.145.092-.145l6.449-3.983a.132.132 0 0 1 .183 0c.046.048.091.097.091.145v7.87c0 .048-.045.145-.091.145l-6.45 3.984c-.045.048-.045.048-.09.048Z" fill="#59B4D9"/><path opacity=".5" d="M12.938 20.038c-.046 0-.046 0-.091-.048-.046-.049-.092-.097-.092-.146v-7.87c0-.047.046-.145.092-.145l6.449-3.983a.132.132 0 0 1 .183 0c.046.048.091.097.091.145v7.87c0 .048-.045.145-.091.145l-6.45 3.984c-.045.048-.045.048-.09.048Z" fill="#2E89CB"/><path d="M5.208 20.962c-.091 0-.183-.05-.32-.098L1.87 18.97C1.366 18.63 1 17.998 1 17.367V5.563c0-.632.366-1.311.87-1.603l3.018-1.894a.65.65 0 0 1 .869.291.784.784 0 0 1-.183.972L2.555 5.175c-.091.048-.274.34-.274.437v11.803c0 .098.137.389.274.438l3.019 1.894c.32.195.411.583.275.923-.184.146-.366.292-.64.292ZM18.792 2.017c.091 0 .183.048.32.097l3.019 1.895c.503.34.869.97.869 1.602v11.804c0 .632-.366 1.312-.87 1.603l-3.018 1.895c-.32.194-.686.048-.869-.292-.183-.34-.046-.729.274-.923l3.02-1.895c.091-.048.274-.34.274-.436V5.563c0-.098-.137-.389-.275-.437L18.517 3.23c-.32-.194-.411-.631-.274-.972a.822.822 0 0 1 .549-.242Z" fill="#3F9AC5"/></svg>