<svg width="24" height="24" viewBox="0 0 24 24" fill="none" xmlns="http://www.w3.org/2000/svg">
<path d="M21.3747 12.0028C21.3747 6.82514 16.7967 2.40645 11.6565 2.64843M11.6565 2.64843L13.2334 1.41724M11.6565 2.64843L13.2334 3.82061M2.62201 12.0522C2.62201 17.2298 7.19997 21.6485 12.3402 21.4065M12.3402 21.4065L10.7632 22.6377M12.3402 21.4065L10.7632 20.2344" stroke="#4F5162" stroke-linecap="round" stroke-linejoin="round"/>
<path d="M8.85927 7.44531L9.21287 7.09181L9.21287 7.09181L8.85927 7.44531ZM7.44526 8.85974L7.09166 9.21324L7.09166 9.21324L7.44526 8.85974ZM7.44416 15.1404L7.79771 15.4939L7.79771 15.4939L7.44416 15.1404ZM8.85837 16.5546L9.21192 16.9081L9.21192 16.9081L8.85837 16.5546ZM15.1391 16.5559L15.4927 16.2024L15.4927 16.2024L15.1391 16.5559ZM16.5531 15.1414L16.1995 15.4949L16.1995 15.4949L16.5531 15.1414ZM17.4412 13.0001V13.5001L17.4412 13.5001L17.4412 13.0001ZM17.4412 11.0001V11.5001L17.4412 11.5001L17.4412 11.0001ZM16.5533 8.85963L16.1998 8.50608L16.1998 8.50608L16.5533 8.85963ZM15.1391 7.44542L15.4927 7.79897L15.4927 7.79897L15.1391 7.44542ZM16.1998 7.09186L15.8462 7.44542L16.1998 7.09186ZM15.4927 7.09186L15.1391 6.73831L15.4927 7.09186ZM16.9069 8.50608L17.2604 8.85963L16.9069 8.50608ZM16.9069 7.79897L16.5533 8.15252L16.9069 7.79897ZM16.4581 9.51895L16.0214 9.76248L16.4581 9.51895ZM16.5342 8.87877L16.1806 8.52522L16.5342 8.87877ZM16.9068 10.6012L17.3878 10.4644L16.9068 10.6012ZM17.9412 11.0001L17.9412 11.5001L17.9412 11.0001ZM17.9412 13.0001L17.9412 12.5001L17.9412 13.0001ZM16.9067 16.2021L16.5531 15.8486L16.9067 16.2021ZM16.9067 15.4951L16.5531 15.8486L16.9067 15.4951ZM14.4787 16.4592L14.7221 16.896L14.4787 16.4592ZM15.1187 16.5355L15.4723 16.182L15.1187 16.5355ZM8.87879 16.5342L8.52523 16.1806L8.87879 16.5342ZM9.51897 16.4581L9.27544 16.8948L9.51897 16.4581ZM7.79771 16.9081L8.15126 16.5546L7.79771 16.9081ZM8.50482 16.9081L8.15126 16.5546L8.50482 16.9081ZM7.0906 15.4939L7.44416 15.8475L7.0906 15.4939ZM7.46485 15.1197L7.1113 14.7661L7.46485 15.1197ZM15.4925 16.9094L15.8461 16.5559L15.4925 16.9094ZM16.1997 16.9094L15.8461 16.5559L16.1997 16.9094ZM7.09166 7.79902L6.73805 7.44552L7.09166 7.79902ZM10.601 7.09297L10.4642 6.61206L10.601 7.09297ZM8.50587 7.09181L8.85948 6.73831L8.50587 7.09181ZM7.79866 7.09181L7.44505 6.73831L7.79866 7.09181ZM13.3987 16.9068L13.2619 16.4259L13.3987 16.9068ZM9.51938 7.54142L9.27589 7.10471L9.51938 7.54142ZM16.5336 15.1219L16.18 15.4754L16.5336 15.1219ZM16.4576 14.4817L16.8942 14.7253L16.4576 14.4817ZM10.601 16.9068L10.7378 16.4258L10.601 16.9068ZM12.4999 6.05884V6.55884H13.4999V6.05884H12.4999ZM11.4999 6.05884H12.4999V5.05884H11.4999V6.05884ZM11.4999 6.55884V6.05884H10.4999V6.55884H11.4999ZM11.4999 6.58636V6.55884H10.4999V6.58636H11.4999ZM9.76287 7.97813C10.0683 7.80786 10.3949 7.67145 10.7378 7.57388L10.4642 6.61206C10.046 6.73104 9.64783 6.89734 9.27589 7.10471L9.76287 7.97813ZM8.50566 7.79881L8.52558 7.81874L9.23279 7.11174L9.21287 7.09181L8.50566 7.79881ZM8.15226 7.44531L8.50566 7.79881L9.21287 7.09181L8.85948 6.73831L8.15226 7.44531ZM7.44526 8.15252L8.15226 7.44531L7.44505 6.73831L6.73805 7.44552L7.44526 8.15252ZM7.79887 8.50623L7.44526 8.15252L6.73805 8.85952L7.09166 9.21324L7.79887 8.50623ZM7.81877 8.52614L7.79887 8.50623L7.09166 9.21324L7.11156 9.23314L7.81877 8.52614ZM7.57383 10.738C7.67137 10.3952 7.80775 10.0685 7.97799 9.76314L7.10454 9.27622C6.89721 9.64814 6.73095 10.0463 6.61199 10.4644L7.57383 10.738ZM6.55884 11.5001H6.58629V10.5001H6.55884V11.5001ZM6.05884 11.5001H6.55884V10.5001H6.05884V11.5001ZM6.05884 12.5001V11.5001H5.05884V12.5001H6.05884ZM6.55884 12.5001H6.05884V13.5001H6.55884V12.5001ZM6.58644 12.5001H6.55884V13.5001H6.58644V12.5001ZM7.97778 14.2362C7.80771 13.9311 7.67144 13.6047 7.57395 13.2621L6.61214 13.5358C6.73103 13.9536 6.89716 14.3514 7.10428 14.723L7.97778 14.2362ZM7.79771 15.4939L7.81841 15.4732L7.1113 14.7661L7.0906 14.7868L7.79771 15.4939ZM7.44416 15.8475L7.79771 15.4939L7.0906 14.7868L6.73705 15.1404L7.44416 15.8475ZM8.15126 16.5546L7.44416 15.8475L6.73705 16.5546L7.44416 17.2617L8.15126 16.5546ZM8.50482 16.201L8.15126 16.5546L8.85837 17.2617L9.21192 16.9081L8.50482 16.201ZM8.52523 16.1806L8.50482 16.201L9.21192 16.9081L9.23234 16.8877L8.52523 16.1806ZM10.7378 16.4258C10.3948 16.3282 10.068 16.1918 9.76249 16.0214L9.27544 16.8948C9.6475 17.1022 10.0458 17.2686 10.4642 17.3877L10.7378 16.4258ZM11.4999 17.4412V17.4134H10.4999V17.4412H11.4999ZM11.4999 17.9412V17.4412H10.4999V17.9412H11.4999ZM12.4999 17.9412H11.4999V18.9412H12.4999V17.9412ZM12.4999 17.4412V17.9412H13.4999V17.4412H12.4999ZM12.4999 17.4134V17.4412H13.4999V17.4134H12.4999ZM14.2354 16.0224C13.9304 16.1923 13.6043 16.3284 13.2619 16.4259L13.5356 17.3877C13.9531 17.2689 14.3506 17.1029 14.7221 16.896L14.2354 16.0224ZM15.4927 16.2024L15.4723 16.182L14.7651 16.889L14.7855 16.9094L15.4927 16.2024ZM15.8461 16.5559L15.4927 16.2024L14.7855 16.9094L15.1389 17.2629L15.8461 16.5559ZM16.5531 15.8486L15.8461 16.5559L16.5533 17.2629L17.2603 16.5556L16.5531 15.8486ZM16.1995 15.4949L16.5531 15.8486L17.2603 15.1416L16.9067 14.7879L16.1995 15.4949ZM16.18 15.4754L16.1995 15.4949L16.9067 14.7879L16.8872 14.7684L16.18 15.4754ZM16.4258 13.2621C16.3281 13.6054 16.1915 13.9324 16.0209 14.2381L16.8942 14.7253C17.1019 14.353 17.2685 13.9545 17.3876 13.5358L16.4258 13.2621ZM17.4412 12.5001H17.4133V13.5001H17.4412V12.5001ZM17.9412 12.5001L17.4412 12.5001L17.4412 13.5001L17.9412 13.5001L17.9412 12.5001ZM17.9412 11.5001V12.5001H18.9412V11.5001H17.9412ZM17.4412 11.5001L17.9412 11.5001L17.9412 10.5001L17.4412 10.5001L17.4412 11.5001ZM17.4135 11.5001H17.4412V10.5001H17.4135V11.5001ZM16.0214 9.76248C16.1918 10.068 16.3283 10.3949 16.4259 10.738L17.3878 10.4644C17.2687 10.046 17.1023 9.64757 16.8948 9.27543L16.0214 9.76248ZM16.1998 8.50608L16.1806 8.52522L16.8877 9.23233L16.9069 9.21318L16.1998 8.50608ZM16.5533 8.15252L16.1998 8.50608L16.9069 9.21318L17.2604 8.85963L16.5533 8.15252ZM15.8462 7.44542L16.5533 8.15252L17.2604 7.44542L16.5533 6.73831L15.8462 7.44542ZM15.4927 7.79897L15.8462 7.44542L15.1391 6.73831L14.7856 7.09186L15.4927 7.79897ZM15.4733 7.81839L15.4927 7.79897L14.7856 7.09186L14.7661 7.11129L15.4733 7.81839ZM13.2619 7.57387C13.6046 7.67137 13.931 7.80766 14.2362 7.97776L14.7231 7.10427C14.3513 6.8971 13.9535 6.73095 13.5356 6.61204L13.2619 7.57387ZM12.4999 6.55884V6.58635H13.4999V6.55884H12.4999ZM14.9869 12.0839C14.9869 13.7181 13.6621 15.043 12.0278 15.043V16.043C14.2143 16.043 15.9869 14.2704 15.9869 12.0839H14.9869ZM12.0278 9.12481C13.6621 9.12481 14.9869 10.4496 14.9869 12.0839H15.9869C15.9869 9.89735 14.2143 8.12481 12.0278 8.12481V9.12481ZM9.06873 12.0839C9.06873 10.4496 10.3936 9.12481 12.0278 9.12481V8.12481C9.84127 8.12481 8.06873 9.89735 8.06873 12.0839H9.06873ZM12.0278 15.043C10.3936 15.043 9.06873 13.7181 9.06873 12.0839H8.06873C8.06873 14.2704 9.84127 16.043 12.0278 16.043V15.043ZM14.7661 7.11129C14.766 7.1114 14.7661 7.11133 14.7663 7.11121C14.7664 7.11109 14.7665 7.1111 14.7662 7.1112C14.7658 7.11141 14.7637 7.11229 14.7596 7.11274C14.7506 7.11373 14.737 7.11204 14.7231 7.10427L14.2362 7.97776C14.6187 8.19092 15.1301 8.16153 15.4733 7.81839L14.7661 7.11129ZM16.5533 6.73831C16.1628 6.34779 15.5296 6.34779 15.1391 6.73831L15.8462 7.44542L15.8462 7.44542L16.5533 6.73831ZM17.2604 8.85963C17.651 8.46911 17.651 7.83594 17.2604 7.44542L16.5533 8.15252L16.5533 8.15252L17.2604 8.85963ZM16.8948 9.27543C16.887 9.26149 16.8853 9.24784 16.8863 9.23885C16.8867 9.23476 16.8876 9.23268 16.8878 9.23224C16.8879 9.23202 16.8879 9.23204 16.8878 9.23221C16.8877 9.23239 16.8876 9.23245 16.8877 9.23233L16.1806 8.52522C15.8374 8.86844 15.8081 9.38001 16.0214 9.76248L16.8948 9.27543ZM17.4135 10.5001C17.4133 10.5001 17.4134 10.5001 17.4136 10.5001C17.4138 10.5002 17.4138 10.5002 17.4136 10.5001C17.4131 10.5 17.411 10.4991 17.4078 10.4965C17.4007 10.4908 17.3922 10.4799 17.3878 10.4644L16.4259 10.738C16.5457 11.159 16.928 11.5001 17.4135 11.5001V10.5001ZM18.9412 11.5001C18.9412 10.9478 18.4934 10.5001 17.9412 10.5001L17.9412 11.5001V11.5001H18.9412ZM17.9412 13.5001C18.4934 13.5001 18.9412 13.0524 18.9412 12.5001H17.9412V12.5001L17.9412 13.5001ZM17.3876 13.5358C17.392 13.5204 17.4005 13.5094 17.4076 13.5037C17.4109 13.5011 17.413 13.5003 17.4134 13.5001C17.4137 13.5 17.4137 13.5 17.4135 13.5001C17.4133 13.5001 17.4132 13.5001 17.4133 13.5001V12.5001C16.9279 12.5001 16.5456 12.8412 16.4258 13.2621L17.3876 13.5358ZM17.2603 16.5556C17.6507 16.1651 17.6507 15.5321 17.2603 15.1416L16.5531 15.8486L16.5531 15.8486L17.2603 16.5556ZM14.7221 16.896C14.736 16.8883 14.7496 16.8866 14.7586 16.8876C14.7627 16.888 14.7648 16.8889 14.7652 16.8891C14.7655 16.8892 14.7654 16.8892 14.7653 16.8891C14.7651 16.889 14.765 16.8889 14.7651 16.889L15.4723 16.182C15.1293 15.8388 14.6179 15.8094 14.2354 16.0224L14.7221 16.896ZM12.4999 18.9412C13.0521 18.9412 13.4999 18.4934 13.4999 17.9412H12.4999V18.9412ZM9.23234 16.8877C9.23246 16.8876 9.2324 16.8877 9.23222 16.8878C9.23206 16.8879 9.23203 16.8879 9.23225 16.8878C9.23269 16.8876 9.23477 16.8867 9.23886 16.8863C9.24785 16.8853 9.2615 16.887 9.27544 16.8948L9.76249 16.0214C9.38002 15.8081 8.86845 15.8374 8.52523 16.1806L9.23234 16.8877ZM7.44416 17.2617C7.83468 17.6522 8.46785 17.6522 8.85837 17.2617L8.15126 16.5546L8.15126 16.5546L7.44416 17.2617ZM6.73705 15.1404C6.34653 15.5309 6.34653 16.1641 6.73705 16.5546L7.44416 15.8475L7.44416 15.8475L6.73705 15.1404ZM7.10428 14.723C7.11205 14.737 7.11375 14.7506 7.11275 14.7596C7.1123 14.7637 7.11142 14.7658 7.11122 14.7662C7.11111 14.7664 7.11111 14.7664 7.11122 14.7663C7.11135 14.7661 7.11142 14.766 7.1113 14.7661L7.81841 15.4732C8.16155 15.1301 8.19093 14.6187 7.97778 14.2362L7.10428 14.723ZM5.05884 12.5001C5.05884 13.0524 5.50655 13.5001 6.05884 13.5001V12.5001H5.05884ZM7.11156 9.23314C7.11168 9.23326 7.1116 9.2332 7.11148 9.23302C7.11136 9.23286 7.11137 9.23283 7.11147 9.23305C7.11168 9.23349 7.11256 9.23557 7.11301 9.23966C7.114 9.24865 7.1123 9.26229 7.10454 9.27622L7.97799 9.76314C8.19116 9.38073 8.16184 8.86931 7.81877 8.52614L7.11156 9.23314ZM15.1389 17.2629C15.5294 17.6535 16.1627 17.6535 16.5533 17.2629L15.8461 16.5559L15.8461 16.5559L15.1389 17.2629ZM6.73805 7.44552C6.34767 7.83602 6.34767 8.46902 6.73805 8.85952L7.44526 8.15252L7.44526 8.15252L6.73805 7.44552ZM10.4999 6.58636C10.4999 6.58652 10.4998 6.58642 10.4999 6.5862C10.4999 6.586 10.4999 6.58599 10.4999 6.58623C10.4997 6.58668 10.4988 6.58879 10.4962 6.59203C10.4905 6.59914 10.4796 6.60766 10.4642 6.61206L10.7378 7.57388C11.1588 7.4541 11.4999 7.07181 11.4999 6.58636H10.4999ZM8.85948 6.73831C8.46893 6.34764 7.8356 6.34764 7.44505 6.73831L8.15226 7.44531L8.15226 7.44531L8.85948 6.73831ZM6.05884 10.5001C5.50655 10.5001 5.05884 10.9478 5.05884 11.5001H6.05884V11.5001V10.5001ZM10.4999 17.9412C10.4999 18.4934 10.9476 18.9412 11.4999 18.9412V17.9412V17.9412H10.4999ZM11.4999 5.05884C10.9476 5.05884 10.4999 5.50655 10.4999 6.05884H11.4999V6.05884V5.05884ZM6.58644 13.5001C6.5866 13.5001 6.5865 13.5001 6.58629 13.5001C6.58608 13.5 6.58607 13.5 6.58631 13.5001C6.58676 13.5003 6.58887 13.5011 6.59211 13.5037C6.59922 13.5094 6.60774 13.5204 6.61214 13.5358L7.57395 13.2621C7.45416 12.8412 7.07187 12.5001 6.58644 12.5001V13.5001ZM13.4999 17.4134C13.4999 17.4132 13.4999 17.4133 13.4998 17.4135C13.4998 17.4137 13.4998 17.4137 13.4999 17.4135C13.5 17.4131 13.5009 17.4109 13.5035 17.4077C13.5092 17.4006 13.5201 17.3921 13.5356 17.3877L13.2619 16.4259C12.8409 16.5456 12.4999 16.9279 12.4999 17.4134H13.4999ZM9.27589 7.10471C9.26195 7.11249 9.24831 7.11418 9.23932 7.11319C9.23522 7.11274 9.23314 7.11186 9.2327 7.11165C9.23248 7.11155 9.23251 7.11154 9.23267 7.11166C9.23285 7.11178 9.23291 7.11185 9.23279 7.11174L8.52558 7.81874C8.86876 8.16202 9.38036 8.1914 9.76287 7.97813L9.27589 7.10471ZM16.8872 14.7684C16.8871 14.7683 16.8871 14.7683 16.8873 14.7685C16.8874 14.7687 16.8874 14.7687 16.8873 14.7685C16.8871 14.7681 16.8862 14.766 16.8857 14.7619C16.8847 14.7529 16.8864 14.7392 16.8942 14.7253L16.0209 14.2381C15.8076 14.6205 15.8368 15.1321 16.18 15.4754L16.8872 14.7684ZM6.61199 10.4644C6.6076 10.4799 6.59908 10.4908 6.59197 10.4965C6.58873 10.4991 6.58662 10.5 6.58616 10.5001C6.58593 10.5002 6.58594 10.5002 6.58614 10.5001C6.58636 10.5001 6.58646 10.5001 6.58629 10.5001V11.5001C7.07177 11.5001 7.45407 11.159 7.57383 10.738L6.61199 10.4644ZM10.4642 17.3877C10.4796 17.3921 10.4905 17.4006 10.4962 17.4077C10.4988 17.4109 10.4997 17.413 10.4999 17.4135C10.4999 17.4137 10.4999 17.4137 10.4999 17.4135C10.4998 17.4133 10.4999 17.4132 10.4999 17.4134H11.4999C11.4999 16.9279 11.1588 16.5456 10.7378 16.4258L10.4642 17.3877ZM13.5356 6.61204C13.5201 6.60765 13.5092 6.59913 13.5035 6.59202C13.5009 6.58878 13.5 6.58667 13.4999 6.58621C13.4998 6.58598 13.4998 6.58599 13.4998 6.58619C13.4999 6.58641 13.4999 6.58651 13.4999 6.58635H12.4999C12.4999 7.0718 12.8409 7.4541 13.2619 7.57387L13.5356 6.61204ZM13.4999 6.05884C13.4999 5.50655 13.0521 5.05884 12.4999 5.05884V6.05884V6.05884H13.4999Z" fill="#4F5162"/>
</svg>
