<svg xmlns="http://www.w3.org/2000/svg" viewBox="0 0 24 24" fill="currentColor"><path d="M21.75 11.25h-.782a8.914 8.914 0 0 0-.827-3.084l.678-.391a.75.75 0 0 0-.75-1.3l-.68.393a9.095 9.095 0 0 0-2.257-2.257l.393-.68a.75.75 0 0 0-1.3-.75l-.39.678a8.913 8.913 0 0 0-3.085-.827V2.25a.75.75 0 1 0-1.5 0v.782a8.913 8.913 0 0 0-3.084.827l-.391-.678a.75.75 0 0 0-1.3.75l.393.68a9.094 9.094 0 0 0-2.257 2.257l-.68-.393a.75.75 0 0 0-.75 1.3l.678.39c-.46.97-.74 2.016-.827 3.085H2.25a.75.75 0 1 0 0 1.5h.782a8.913 8.913 0 0 0 .827 3.084l-.678.391a.75.75 0 1 0 .75 1.3l.68-.393a9.095 9.095 0 0 0 2.257 2.257l-.393.68a.75.75 0 1 0 1.3.75l.39-.678c.97.46 2.016.74 3.085.827v.782a.75.75 0 1 0 1.5 0v-.782a8.915 8.915 0 0 0 3.084-.827l.391.678a.75.75 0 0 0 1.3-.75l-.393-.68a9.095 9.095 0 0 0 2.257-2.257l.68.393a.75.75 0 0 0 .751-1.3l-.678-.39c.46-.97.74-2.016.827-3.085h.781a.75.75 0 1 0 0-1.5Zm-15 .75a5.242 5.242 0 0 1 2.004-4.125L11.134 12l-2.38 4.125A5.242 5.242 0 0 1 6.75 12ZM12 17.25a5.219 5.219 0 0 1-1.948-.375l2.381-4.125h4.763A5.258 5.258 0 0 1 12 17.25Zm.433-6-2.381-4.125a5.25 5.25 0 0 1 7.144 4.125h-4.763Z"/></svg>