<svg fill="none" xmlns="http://www.w3.org/2000/svg"><path d="M26.025 12.4a6.028 6.028 0 0 0 1.176-.947c.215-.218.412-.452.592-.7.184-.252.342-.52.472-.804.18-.385.29-.8.325-1.224.111-1.448-.746-2.888-2.66-4.049L18.225 0l-8.98 8.605-5.848 5.603 8.11 4.921a8.333 8.333 0 0 0 4.314 1.227c1.862 0 3.644-.657 4.96-1.92 1.43-1.37 1.907-3.144 1.023-4.62a3.677 3.677 0 0 0-.507-.661c.473.105.957.159 1.442.16h.011a6.356 6.356 0 0 0 2.315-.432c.334-.132.655-.294.96-.483Zm-7.51 4.467c-1.442 1.382-3.763 1.586-5.652.44l-5.61-3.404 5.036-4.827 5.707 3.463c2.056 1.246 1.943 2.966.521 4.329l-.001-.001Zm.668-6.14-5.277-3.203 4.811-4.612 5.18 3.144c1.938 1.173 2.19 2.764.788 4.107a4.534 4.534 0 0 1-5.502.564Zm2.23 14.189c-1.461 1.4-3.448 2.173-5.592 2.173a9.24 9.24 0 0 1-4.787-1.36L3.397 21.1v1.842l8.11 4.922a8.334 8.334 0 0 0 4.314 1.226c1.862 0 3.644-.658 4.96-1.92.962-.92 1.494-2.025 1.47-3.097v-.133a6.517 6.517 0 0 1-.838.98v-.003Zm0-2.912c-1.461 1.4-3.448 2.17-5.592 2.17a9.248 9.248 0 0 1-4.787-1.358l-7.637-4.63v1.843l8.11 4.923a8.334 8.334 0 0 0 4.314 1.227c1.862 0 3.644-.659 4.96-1.92.962-.92 1.494-2.026 1.47-3.099v-.133a6.51 6.51 0 0 1-.838.981v-.004Zm0-2.913c-1.461 1.401-3.448 2.173-5.592 2.173a9.247 9.247 0 0 1-4.787-1.36l-7.637-4.628v1.843l8.11 4.922a8.333 8.333 0 0 0 4.314 1.226c1.862 0 3.644-.658 4.96-1.919.962-.921 1.494-2.027 1.47-3.099v-.136a6.42 6.42 0 0 1-.838.983v-.005Zm6.25 1.922a7.03 7.03 0 0 1-4.495 1.931v2a6.094 6.094 0 0 0 3.864-1.672c1.045-1 1.578-2.099 1.568-3.184v-.164a7.084 7.084 0 0 1-.936 1.093v-.004Zm-6.25 6.811c-1.461 1.401-3.448 2.173-5.592 2.173a9.24 9.24 0 0 1-4.787-1.36L3.397 24.01v1.843l8.11 4.921A8.333 8.333 0 0 0 15.822 32c1.862 0 3.644-.657 4.96-1.919.962-.921 1.494-2.026 1.47-3.098v-.134a6.432 6.432 0 0 1-.838.98v-.005Zm6.404-15.693c-.05.053-.101.104-.153.154a7.05 7.05 0 0 1-.795.647c-.275.195-.565.37-.866.523a7.06 7.06 0 0 1-1.96.649 7.299 7.299 0 0 1-1.056.117 4.102 4.102 0 0 1 .178 1.263v.721h.004a6.302 6.302 0 0 0 1.893-.413 6.05 6.05 0 0 0 1.971-1.257c.06-.058.112-.116.168-.174.215-.218.413-.453.592-.701.183-.252.341-.52.472-.803.18-.387.288-.802.323-1.228.006-.093.016-.185.014-.277v-.15a7.209 7.209 0 0 1-.785.93v-.001Zm0 5.82c-.052.053-.097.105-.15.157a7.035 7.035 0 0 1-4.495 1.93v1.993a6.093 6.093 0 0 0 3.864-1.671 5.49 5.49 0 0 0 1.23-1.68c.178-.387.287-.803.322-1.228.006-.093.014-.185.013-.277v-.164c-.053.08-.108.16-.168.24-.19.246-.395.48-.616.7Zm0-2.912c-.052.052-.097.105-.15.156a6.96 6.96 0 0 1-.793.646 7.13 7.13 0 0 1-3.703 1.283v1.993a6.098 6.098 0 0 0 3.865-1.67c.06-.058.112-.116.17-.174.214-.218.412-.453.591-.701.182-.252.339-.521.468-.804.179-.387.288-.802.323-1.227.006-.093.014-.186.013-.277V14.1c-.053.082-.11.162-.17.24a7.13 7.13 0 0 1-.614.699Z" fill="#07CAAA"/></svg>