<svg xmlns="http://www.w3.org/2000/svg" width="24" height="24" fill="currentColor"><path d="M10.5 10.5h3v3h-3v-3Zm12 3.75a.75.75 0 0 1-.75.75h-1.5v3.75a1.5 1.5 0 0 1-1.5 1.5H15v1.5a.75.75 0 1 1-1.5 0v-1.5h-3v1.5a.75.75 0 1 1-1.5 0v-1.5H5.25a1.5 1.5 0 0 1-1.5-1.5V15h-1.5a.75.75 0 1 1 0-1.5h1.5v-3h-1.5a.75.75 0 1 1 0-1.5h1.5V5.25a1.5 1.5 0 0 1 1.5-1.5H9v-1.5a.75.75 0 0 1 1.5 0v1.5h3v-1.5a.75.75 0 1 1 1.5 0v1.5h3.75a1.5 1.5 0 0 1 1.5 1.5V9h1.5a.75.75 0 1 1 0 1.5h-1.5v3h1.5a.75.75 0 0 1 .75.75ZM15 9.75a.75.75 0 0 0-.75-.75h-4.5a.75.75 0 0 0-.75.75v4.5a.75.75 0 0 0 .75.75h4.5a.75.75 0 0 0 .75-.75v-4.5Z"/></svg>