<svg xmlns="http://www.w3.org/2000/svg" fill="currenColor" viewBox="0 0 20 20"><path fill="#0B0B0D" fill-rule="evenodd" d="M5.37 2.467c-.69 0-1.25.56-1.25 1.25v3.366a.417.417 0 0 0 .833 0V3.717c0-.23.187-.417.417-.417h10c.23 0 .417.187.417.417V15.8c0 .23-.187.417-.417.417h-3.786a.417.417 0 0 0 0 .833h3.786c.69 0 1.25-.56 1.25-1.25V3.717c0-.69-.56-1.25-1.25-1.25h-10Zm1.19 5.69a.833.833 0 0 0-.833.834v.317a3.965 3.965 0 0 0-.513.21l-.226-.226a.833.833 0 0 0-1.176 0l-.59.588a.833.833 0 0 0 0 1.181l.21.21a3.97 3.97 0 0 0-.221.516h-.294a.833.833 0 0 0-.834.833v.834c0 .46.373.833.834.833h.255c.06.192.134.378.221.556l-.17.17a.833.833 0 0 0 0 1.181l.59.588a.833.833 0 0 0 1.176 0l.149-.148c.188.098.385.181.59.249v.2c0 .46.372.834.833.834h.833c.46 0 .833-.373.833-.834v-.2c.205-.067.402-.15.59-.248l.148.148a.833.833 0 0 0 1.177 0l.59-.588a.833.833 0 0 0 0-1.181l-.17-.168c.088-.18.163-.366.223-.559h.254c.46 0 .834-.373.834-.833v-.834a.833.833 0 0 0-.834-.833h-.292a3.966 3.966 0 0 0-.222-.518l.209-.208a.833.833 0 0 0 0-1.18l-.59-.589a.833.833 0 0 0-1.177 0l-.226.225a3.965 3.965 0 0 0-.514-.21v-.316a.833.833 0 0 0-.833-.833H6.56Zm0 .834h.834v.417c0 .323.22.583.502.668.189.057.37.132.542.222a.702.702 0 0 0 .82-.12l.297-.295.59.588-.293.293a.677.677 0 0 0-.11.807c.1.183.184.377.247.58.083.265.33.47.634.47h.416v.833h-.416a.62.62 0 0 0-.598.461 3.133 3.133 0 0 1-.276.69.595.595 0 0 0 .1.707l.295.293-.59.588-.297-.296a.557.557 0 0 0-.677-.083 3.135 3.135 0 0 1-.782.328.543.543 0 0 0-.404.525v.416H6.56v-.416a.544.544 0 0 0-.404-.525 3.135 3.135 0 0 1-.781-.33.558.558 0 0 0-.679.084l-.296.296-.59-.588.293-.293a.599.599 0 0 0 .102-.71 3.131 3.131 0 0 1-.274-.685.622.622 0 0 0-.599-.462h-.416v-.834h.416a.668.668 0 0 0 .635-.47c.063-.202.146-.394.246-.576a.68.68 0 0 0-.11-.81l-.295-.293.59-.588.297.295a.704.704 0 0 0 .823.12c.171-.09.352-.164.54-.22a.703.703 0 0 0 .502-.67V8.99Zm-1.376 4.046a1.794 1.794 0 1 1 3.588 0 1.794 1.794 0 0 1-3.588 0Zm1.794-2.627a2.627 2.627 0 1 0 0 5.254 2.627 2.627 0 0 0 0-5.254Z" clip-rule="evenodd"/></svg>