<svg xmlns="http://www.w3.org/2000/svg" width="24" height="24" fill="currentColor"><path d="M22.475 19.5H21V9a1.5 1.5 0 0 0-1.5-1.5h-4.125a.375.375 0 0 0-.375.375V19.5h-1.5V3.038a1.54 1.54 0 0 0-.578-1.218 1.5 1.5 0 0 0-1.755-.065l-7.5 4.995A1.5 1.5 0 0 0 3 8v11.5H1.525a.767.767 0 0 0-.775.7.75.75 0 0 0 .75.8h21a.752.752 0 0 0 .75-.8.767.767 0 0 0-.775-.7Zm-15.35-2.25a.75.75 0 0 1-.8.75.767.767 0 0 1-.7-.776v-1.449a.768.768 0 0 1 .7-.775.749.749 0 0 1 .8.75v1.5Zm0-5.25a.75.75 0 0 1-.8.75.768.768 0 0 1-.7-.776v-1.449a.768.768 0 0 1 .7-.775.75.75 0 0 1 .8.75V12Zm3.75 5.25a.75.75 0 0 1-.8.75.767.767 0 0 1-.7-.774v-1.45a.768.768 0 0 1 .7-.775.75.75 0 0 1 .8.75v1.499Zm0-5.25a.75.75 0 0 1-.8.75.768.768 0 0 1-.7-.774v-1.45a.768.768 0 0 1 .7-.775.75.75 0 0 1 .8.75V12Z"/></svg>