<svg xmlns="http://www.w3.org/2000/svg" fill="currentColor" viewBox="0 0 24 24"><rect width="24" height="24" fill="#0f1013" rx="4"/><g clip-path="url(#a)"><path fill="#00bea1" d="M18.429 9.693a3.9 3.9 0 0 0 .754-.607q.206-.21.38-.449.175-.243.3-.515c.114-.248.185-.513.208-.785.071-.929-.477-1.852-1.705-2.596l-4.938-2.997L7.67 7.26 3.923 10.85l5.198 3.155c.833.51 1.79.781 2.766.786 1.193 0 2.336-.421 3.18-1.23.916-.879 1.22-2.016.655-2.962a2.4 2.4 0 0 0-.326-.424q.456.101.924.102h.007c.507.001 1.01-.093 1.482-.277q.324-.126.62-.308m-4.815 2.863c-.925.886-2.413 1.016-3.624.282l-3.597-2.183L9.622 7.56l3.658 2.22c1.318.8 1.246 1.902.334 2.776m.427-3.936L10.66 6.567l3.083-2.957 3.32 2.016c1.242.753 1.404 1.773.506 2.633a2.906 2.906 0 0 1-3.527.36m1.43 9.097c-.937.898-2.21 1.393-3.584 1.393a5.93 5.93 0 0 1-3.07-.871l-4.894-2.971v1.181l5.198 3.155c.833.51 1.79.782 2.766.786 1.193 0 2.336-.421 3.18-1.23.616-.59.956-1.298.941-1.986v-.085a4 4 0 0 1-.537.628m0-1.866c-.937.898-2.21 1.393-3.584 1.393a5.93 5.93 0 0 1-3.07-.871l-4.894-2.971v1.181l5.198 3.155c.833.51 1.79.782 2.766.786 1.193 0 2.336-.421 3.18-1.23.616-.59.956-1.298.941-1.986v-.085a4 4 0 0 1-.537.628m0-1.866c-.937.898-2.21 1.392-3.584 1.392a5.93 5.93 0 0 1-3.07-.87l-4.894-2.971v1.181l5.198 3.155c.833.51 1.79.782 2.766.786 1.193 0 2.336-.421 3.18-1.23.616-.59.956-1.298.941-1.986v-.087a4 4 0 0 1-.537.63m4.007 1.232a4.5 4.5 0 0 1-2.882 1.238v1.276a3.9 3.9 0 0 0 2.477-1.07c.668-.641 1.012-1.346 1.004-2.042v-.105q-.263.382-.6.703m-4.007 4.366c-.937.898-2.21 1.393-3.584 1.393a5.93 5.93 0 0 1-3.07-.871l-4.894-2.97v1.18l5.198 3.156c.833.51 1.79.78 2.766.785 1.193 0 2.336-.421 3.18-1.23.616-.59.956-1.298.941-1.986v-.085a4 4 0 0 1-.537.628M19.576 9.52l-.098.099c-.319.298-.677.55-1.065.75-.396.2-.82.34-1.256.418q-.336.062-.678.075.035.116.06.234.06.285.054.575v.462h.003a4 4 0 0 0 1.213-.266c.47-.183.899-.457 1.264-.805q.055-.055.108-.112.206-.21.38-.449.175-.242.3-.516c.115-.248.185-.514.207-.787q.008-.088.01-.177v-.098a4.658 4.658 0 0 1-.501.598m-.002 3.73c-.033.034-.062.068-.096.1a4.5 4.5 0 0 1-2.882 1.239h-.001v1.276h.001a3.9 3.9 0 0 0 2.477-1.07c.329-.306.596-.671.788-1.077a2.3 2.3 0 0 0 .207-.787q.008-.09.01-.178v-.105c-.036.052-.07.103-.11.154a5 5 0 0 1-.394.449m0-1.865c-.033.033-.062.067-.096.1a4.7 4.7 0 0 1-1.066.75 4.6 4.6 0 0 1-1.816.488h-.002v1.276h.002a3.9 3.9 0 0 0 2.477-1.07q.055-.056.108-.113.206-.21.38-.449.175-.242.3-.516c.115-.248.185-.514.207-.787q.008-.088.01-.177v-.105c-.036.051-.07.103-.11.154a5 5 0 0 1-.394.449"/></g><rect width="7.665" height="7.665" x="14" y="15" fill="#006dea" rx="3.833"/><path fill="#fff" d="m20.24 17.855-1.428-1.43a1.6 1.6 0 0 0-.59-.356c-.488-.162-.973-.036-1.366.357l-1.43 1.429c-.16.169-.282.37-.358.59-.162.488-.036.973.357 1.366l1.43 1.428c.168.16.369.282.589.357q.201.068.413.07c.343 0 .671-.146.953-.427l1.428-1.428c.16-.17.282-.37.357-.59.163-.489.036-.973-.357-1.366zm-2.298-1.015a.8.8 0 0 1 .292.167l.422.423-.823.823-.824-.823.425-.426c.114-.113.274-.233.51-.164zm-2.101 1.882a.8.8 0 0 1 .168-.292l.422-.422.823.823-.824.823-.424-.425c-.114-.113-.234-.273-.166-.508zm1.881 2.101a.8.8 0 0 1-.292-.167l-.42-.418.823-.823.823.823-.424.425c-.114.113-.274.234-.51.165zm2.103-1.877a.8.8 0 0 1-.167.292l-.423.416-.823-.823.823-.823.425.424c.114.114.233.274.165.509"/><defs><clipPath id="a"><path fill="#fff" d="M3.923 1.744h16.155v20.513H3.923z"/></clipPath></defs></svg>