<svg width="32" height="32" xmlns="http://www.w3.org/2000/svg"><path fill-rule="evenodd" clip-rule="evenodd" d="M18.107 2.481a.75.75 0 0 0-.924-1.182L15.081 2.94a.75.75 0 0 0 .014 1.193l2.103 1.563a.75.75 0 0 0 .895-1.204l-.06-.044c5.36.985 9.717 5.915 9.717 11.556a.75.75 0 0 0 1.5 0c0-6.609-5.255-12.335-11.635-13.139l.492-.384ZM4.247 16.07a.75.75 0 0 0-1.5 0c0 6.608 5.254 12.335 11.635 13.139l-.492.384a.75.75 0 0 0 .923 1.182l2.103-1.642a.75.75 0 0 0-.015-1.193L14.8 26.377a.75.75 0 1 0-.895 1.204l.06.045c-5.36-.985-9.718-5.915-9.718-11.556Zm10.775-9.78c-.69 0-1.25.559-1.25 1.25v1.048c-.498.15-.975.35-1.425.592l-.743-.743a1.25 1.25 0 0 0-1.768 0L8.422 9.852a1.25 1.25 0 0 0 0 1.767l.743.743c-.242.45-.44.927-.59 1.425h-1.05c-.69 0-1.25.56-1.25 1.25v2c0 .69.56 1.25 1.25 1.25h1.05c.15.498.349.975.59 1.425l-.034.035-.707.707a1.25 1.25 0 0 0 0 1.768l1.414 1.414a1.25 1.25 0 0 0 1.768 0l.742-.742c.45.242.927.44 1.424.59v1.05c0 .69.56 1.25 1.25 1.25h2c.69 0 1.25-.56 1.25-1.25v-1.049c.498-.15.974-.348 1.423-.59l.743.743a1.25 1.25 0 0 0 1.768 0l1.414-1.414a1.25 1.25 0 0 0 0-1.768l-.741-.741c.242-.451.441-.93.592-1.428h1.05c.69 0 1.25-.56 1.25-1.25v-2c0-.69-.56-1.25-1.25-1.25h-1.05a7.74 7.74 0 0 0-.59-1.425l.742-.743a1.25 1.25 0 0 0 0-1.768l-1.414-1.414a1.25 1.25 0 0 0-1.768 0l-.742.742a7.737 7.737 0 0 0-1.427-.59v-1.05c0-.69-.56-1.25-1.25-1.25h-2Zm.25 2.475V7.79h1.5v.976c0 .597.414 1.076.94 1.222.491.137.958.332 1.393.578a1.275 1.275 0 0 0 1.53-.2l.69-.69 1.06 1.06-.69.691a1.275 1.275 0 0 0-.2 1.53c.245.434.44.9.577 1.391.146.526.625.94 1.222.94h.976v1.5h-.976c-.597 0-1.076.414-1.222.94a6.235 6.235 0 0 1-.579 1.394 1.275 1.275 0 0 0 .2 1.53l.69.689-1.061 1.06-.691-.69a1.275 1.275 0 0 0-1.529-.2c-.434.245-.9.44-1.39.576-.526.146-.94.625-.94 1.222v.976h-1.5v-.976c0-.597-.414-1.076-.94-1.222a6.238 6.238 0 0 1-1.39-.577 1.275 1.275 0 0 0-1.53.2l-.69.69-1.06-1.06.69-.691a1.275 1.275 0 0 0 .199-1.53 6.234 6.234 0 0 1-.577-1.391 1.275 1.275 0 0 0-1.223-.94h-.976v-1.5h.976c.597 0 1.076-.414 1.223-.94.136-.49.331-.957.576-1.392a1.275 1.275 0 0 0-.2-1.528l-.69-.692 1.06-1.06.69.69a1.275 1.275 0 0 0 1.53.2c.435-.246.902-.44 1.393-.577.525-.147.94-.626.94-1.223Zm-3.227 7.288c0-2.16 1.76-3.917 3.937-3.917 2.177 0 3.937 1.757 3.937 3.917s-1.76 3.918-3.937 3.918c-2.177 0-3.937-1.757-3.937-3.918Zm3.937-5.417c-3 0-5.437 2.423-5.437 5.417 0 2.995 2.437 5.418 5.437 5.418 3 0 5.437-2.423 5.437-5.418 0-2.994-2.437-5.417-5.437-5.417Z" fill="#4F5162"/></svg>