<svg viewBox="0 0 33 33" fill="none" xmlns="http://www.w3.org/2000/svg">
<path d="M28.5883 16.5797C28.5883 9.67618 22.4843 3.78458 15.6307 4.10723M15.6307 4.10723L17.7333 2.46564M15.6307 4.10723L17.7333 5.67013M3.58472 16.6455C3.58472 23.5491 9.68866 29.4407 16.5423 29.118M16.5423 29.118L14.4397 30.7596M16.5423 29.118L14.4397 27.5551" stroke="#4F5162" stroke-linecap="round" stroke-linejoin="round"/>
<path d="M11.6653 10.7388L12.0189 10.3853L11.6653 10.7388ZM10.2513 12.1532L10.6049 11.7997L10.6049 11.7997L10.2513 12.1532ZM10.2495 20.9989L10.6031 21.3524L10.6031 21.3524L10.2495 20.9989ZM11.6638 22.4131L11.3102 22.0595L11.3102 22.0595L11.6638 22.4131ZM20.5097 22.4147L20.8633 22.0612L20.8633 22.0612L20.5097 22.4147ZM21.9237 21.0003L21.5701 21.3538L21.5701 21.3538L21.9237 21.0003ZM21.9237 12.1531L22.2773 12.5067L22.2773 12.5067L21.9237 12.1531ZM20.5095 10.7389L20.863 11.0925L20.5095 10.7389ZM20.4429 10.8055L20.0893 10.452L20.4429 10.8055ZM19.7835 10.8646L20.0554 10.4451L19.7835 10.8646ZM20.863 10.3854L20.5095 10.0318L20.863 10.3854ZM22.2773 11.7996L22.6308 12.1531L22.2773 11.7996ZM22.2773 11.0925L22.6308 10.7389L22.2773 11.0925ZM21.7985 12.879L21.379 13.1511L21.7985 12.879ZM21.8574 12.2194L21.5039 11.8658L21.8574 12.2194ZM22.7405 15.1513L23.2295 15.0471L22.7405 15.1513ZM24.3435 16.0761L24.8435 16.0761L24.3435 16.0761ZM24.3435 17.0761L23.8435 17.0761L24.3435 17.0761ZM22.7404 18.0009L22.2514 17.8967L22.7404 18.0009ZM22.2773 22.061L21.9237 21.7075L22.2773 22.061ZM22.2773 21.354L21.9237 21.7075L22.2773 21.354ZM19.7825 22.2876L20.0544 22.7072L19.7825 22.2876ZM20.4419 22.3468L20.0883 22.7003L20.4419 22.3468ZM11.732 22.3448L11.3785 21.9912L11.732 22.3448ZM12.3916 22.2858L12.6638 21.8663L12.3916 22.2858ZM10.6031 22.7666L10.9566 22.4131L10.6031 22.7666ZM11.3102 22.7666L10.9566 22.4131L11.3102 22.7666ZM9.89599 21.3524L9.54243 20.9989L9.89599 21.3524ZM9.89599 22.0595L9.54243 22.4131L9.89599 22.0595ZM10.3187 12.2207L9.96513 12.5742L10.3187 12.2207ZM20.8631 22.7682L20.5095 23.1217L20.8631 22.7682ZM21.5703 22.7682L21.9239 23.1217L21.5703 22.7682ZM14.6636 9.92384L14.5594 9.43483L14.6636 9.92384ZM10.6047 10.3853L10.2511 10.0318L10.6047 10.3853ZM17.5133 23.2278L17.6175 23.7168L17.5133 23.2278ZM12.3923 10.8653L12.6644 11.2848L12.3923 10.8653ZM11.7328 10.8063L11.3791 11.1598L11.7328 10.8063ZM21.8567 20.9332L22.2103 20.5797L21.8567 20.9332ZM21.7978 20.2736L22.2172 20.5458L21.7978 20.2736ZM14.6636 23.2278L14.5594 23.7168L14.6636 23.2278ZM17.5133 9.92383L17.409 10.4128L17.5133 9.92383ZM16.5884 8.82111V9.32111H17.5884V8.82111H16.5884ZM15.5884 8.82111H16.5884V7.82111H15.5884V8.82111ZM15.5884 9.32111V8.82111H14.5884V9.32111H15.5884ZM15.5884 9.41563V9.32111H14.5884V9.41563H15.5884ZM12.6644 11.2848C13.2968 10.8747 14.007 10.575 14.7678 10.4129L14.5594 9.43483C13.6766 9.62301 12.8529 9.97064 12.1203 10.4459L12.6644 11.2848ZM11.3117 11.0923L11.3791 11.1598L12.0864 10.4528L12.0189 10.3853L11.3117 11.0923ZM10.9583 10.7388L11.3117 11.0923L12.0189 10.3853L11.6655 10.0318L10.9583 10.7388ZM10.2513 11.446L10.9583 10.7388L10.2511 10.0318L9.5441 10.739L10.2513 11.446ZM10.6049 11.7997L10.2513 11.446L9.5441 12.153L9.8977 12.5067L10.6049 11.7997ZM10.6723 11.8672L10.6049 11.7997L9.8977 12.5067L9.96513 12.5742L10.6723 11.8672ZM9.92544 15.2555C10.0876 14.4947 10.3872 13.7845 10.7972 13.1521L9.95821 12.6081C9.48308 13.3407 9.13553 14.1643 8.9474 15.0471L9.92544 15.2555ZM8.83374 16.0761H8.92821V15.0761H8.83374V16.0761ZM8.33374 16.0761H8.83374V15.0761H8.33374V16.0761ZM8.33374 17.0761V16.0761H7.33374V17.0761H8.33374ZM8.83374 17.0761H8.33374V18.0761H8.83374V17.0761ZM8.92835 17.0761H8.83374V18.0761H8.92835V17.0761ZM10.7968 19.9988C10.3871 19.3668 10.0877 18.6571 9.92556 17.8967L8.94755 18.1052C9.13564 18.9874 9.48296 19.8105 9.95771 20.5428L10.7968 19.9988ZM10.6031 21.3524L10.6717 21.2838L9.96463 20.5767L9.89599 20.6453L10.6031 21.3524ZM10.2495 21.706L10.6031 21.3524L9.89599 20.6453L9.54243 20.9989L10.2495 21.706ZM10.9566 22.4131L10.2495 21.706L9.54243 22.4131L10.2495 23.1202L10.9566 22.4131ZM11.3102 22.0595L10.9566 22.4131L11.6638 23.1202L12.0173 22.7666L11.3102 22.0595ZM11.3785 21.9912L11.3102 22.0595L12.0173 22.7666L12.0856 22.6983L11.3785 21.9912ZM14.7678 22.7388C14.0067 22.5765 13.2963 22.2767 12.6638 21.8663L12.1195 22.7053C12.8524 23.1807 13.6762 23.5285 14.5594 23.7168L14.7678 22.7388ZM15.5884 23.8309V23.736H14.5884V23.8309H15.5884ZM15.5884 24.3309V23.8309H14.5884V24.3309H15.5884ZM16.5884 24.3309H15.5884V25.3309H16.5884V24.3309ZM16.5884 23.8309V24.3309H17.5884V23.8309H16.5884ZM16.5884 23.736V23.8309H17.5884V23.736H16.5884ZM19.5105 21.8681C18.8786 22.2776 18.1691 22.5767 17.409 22.7388L17.6175 23.7168C18.4994 23.5288 19.3222 23.1817 20.0544 22.7072L19.5105 21.8681ZM20.8633 22.0612L20.7955 21.9933L20.0883 22.7003L20.1561 22.7682L20.8633 22.0612ZM21.2167 22.4147L20.8633 22.0612L20.1561 22.7682L20.5095 23.1217L21.2167 22.4147ZM21.9237 21.7075L21.2167 22.4147L21.9239 23.1217L22.6309 22.4145L21.9237 21.7075ZM21.5701 21.3538L21.9237 21.7075L22.6309 21.0005L22.2773 20.6468L21.5701 21.3538ZM21.5031 21.2867L21.5701 21.3538L22.2773 20.6468L22.2103 20.5797L21.5031 21.2867ZM22.2514 17.8967C22.089 18.6581 21.789 19.3687 21.3784 20.0014L22.2172 20.5458C22.693 19.8128 23.041 18.9886 23.2294 18.1052L22.2514 17.8967ZM23.3435 17.0761H23.2486V18.0761H23.3435V17.0761ZM23.8435 17.0761H23.3435V18.0761H23.8435V17.0761ZM23.8435 16.0761L23.8435 17.0761L24.8435 17.0761L24.8435 16.0761L23.8435 16.0761ZM23.3435 16.0761H23.8435V15.0761H23.3435V16.0761ZM23.2487 16.0761H23.3435V15.0761H23.2487V16.0761ZM21.379 13.1511C21.7894 13.7837 22.0892 14.4942 22.2515 15.2555L23.2295 15.0471C23.0413 14.1638 22.6934 13.3398 22.2179 12.6068L21.379 13.1511ZM21.5702 11.7996L21.5039 11.8658L22.211 12.5729L22.2773 12.5067L21.5702 11.7996ZM21.9237 11.446L21.5702 11.7996L22.2773 12.5067L22.6308 12.1531L21.9237 11.446ZM21.2166 10.7389L21.9237 11.446L22.6308 10.7389L21.9237 10.0318L21.2166 10.7389ZM20.863 11.0925L21.2166 10.7389L20.5095 10.0318L20.1559 10.3854L20.863 11.0925ZM20.7964 11.1591L20.863 11.0925L20.1559 10.3854L20.0893 10.452L20.7964 11.1591ZM17.409 10.4128C18.1695 10.5749 18.8793 10.8743 19.5115 11.2842L20.0554 10.4451C19.323 9.97025 18.4998 9.62289 17.6175 9.43482L17.409 10.4128ZM16.5884 9.32111V9.41562H17.5884V9.32111H16.5884ZM20.2378 16.6878C20.2378 18.9589 18.3968 20.7999 16.1257 20.7999V21.7999C18.949 21.7999 21.2378 19.5112 21.2378 16.6878H20.2378ZM16.1257 12.5757C18.3968 12.5757 20.2378 14.4168 20.2378 16.6878H21.2378C21.2378 13.8645 18.949 11.5757 16.1257 11.5757V12.5757ZM12.0136 16.6878C12.0136 14.4168 13.8546 12.5757 16.1257 12.5757V11.5757C13.3024 11.5757 11.0136 13.8645 11.0136 16.6878H12.0136ZM16.1257 20.7999C13.8546 20.7999 12.0136 18.9589 12.0136 16.6878H11.0136C11.0136 19.5112 13.3024 21.7999 16.1257 21.7999V20.7999ZM20.0893 10.452C20.0892 10.4521 20.0894 10.452 20.0894 10.452C20.0891 10.4521 20.0874 10.4528 20.084 10.4531C20.0766 10.4537 20.0659 10.4519 20.0554 10.4451L19.5115 11.2842C19.9012 11.5368 20.441 11.5145 20.7964 11.1591L20.0893 10.452ZM21.9237 10.0318C21.5332 9.64128 20.9 9.64128 20.5095 10.0318L21.2166 10.7389L21.2166 10.7389L21.9237 10.0318ZM22.6308 12.1531C23.0213 11.7626 23.0213 11.1294 22.6308 10.7389L21.9237 11.446L21.9237 11.446L22.6308 12.1531ZM22.2179 12.6068C22.2111 12.5964 22.2093 12.5857 22.2099 12.5782C22.2102 12.5749 22.2109 12.5732 22.211 12.5729C22.211 12.5729 22.2108 12.5731 22.211 12.5729L21.5039 11.8658C21.1484 12.2213 21.1261 12.7613 21.379 13.1511L22.2179 12.6068ZM23.2487 15.0761C23.2485 15.0761 23.2488 15.0762 23.2488 15.0762C23.2485 15.0761 23.2468 15.0754 23.2442 15.0732C23.2385 15.0683 23.2321 15.0594 23.2295 15.0471L22.2515 15.2555C22.3483 15.7098 22.7458 16.0761 23.2487 16.0761V15.0761ZM24.8435 16.0761C24.8435 15.5239 24.3958 15.0761 23.8435 15.0761V16.0761L23.8435 16.0761L24.8435 16.0761ZM23.8435 18.0761C24.3958 18.0761 24.8435 17.6284 24.8435 17.0761L23.8435 17.0761L23.8435 17.0761V18.0761ZM23.2294 18.1052C23.232 18.0929 23.2383 18.084 23.244 18.0791C23.2466 18.0769 23.2483 18.0762 23.2486 18.0761C23.2486 18.0761 23.2483 18.0761 23.2486 18.0761V17.0761C22.7457 17.0761 22.3482 17.4424 22.2514 17.8967L23.2294 18.1052ZM22.6309 22.4145C23.0213 22.024 23.0213 21.391 22.6309 21.0005L21.9237 21.7075L21.9237 21.7075L22.6309 22.4145ZM20.0544 22.7072C20.0649 22.7004 20.0756 22.6986 20.083 22.6992C20.0863 22.6995 20.088 22.7002 20.0883 22.7003C20.0883 22.7003 20.0881 22.7002 20.0883 22.7003L20.7955 21.9933C20.4401 21.6379 19.9003 21.6155 19.5105 21.8681L20.0544 22.7072ZM16.5884 25.3309C17.1407 25.3309 17.5884 24.8832 17.5884 24.3309H16.5884V25.3309ZM12.0856 22.6983C12.0858 22.6982 12.0855 22.6984 12.0855 22.6983C12.0858 22.6982 12.0875 22.6975 12.0909 22.6972C12.0983 22.6966 12.109 22.6985 12.1195 22.7053L12.6638 21.8663C12.274 21.6135 11.734 21.6358 11.3785 21.9912L12.0856 22.6983ZM10.2495 23.1202C10.6401 23.5107 11.2732 23.5107 11.6638 23.1202L10.9566 22.4131L10.9566 22.4131L10.2495 23.1202ZM9.54243 20.9989C9.15191 21.3894 9.15191 22.0226 9.54243 22.4131L10.2495 21.706L10.2495 21.706L9.54243 20.9989ZM9.95771 20.5428C9.96451 20.5533 9.96634 20.564 9.96573 20.5714C9.96545 20.5748 9.96475 20.5765 9.96462 20.5767C9.96461 20.5767 9.9648 20.5765 9.96463 20.5767L10.6717 21.2838C11.0271 20.9284 11.0495 20.3885 10.7968 19.9988L9.95771 20.5428ZM7.33374 17.0761C7.33374 17.6284 7.78146 18.0761 8.33374 18.0761V17.0761H7.33374ZM9.96513 12.5742C9.9653 12.5743 9.96511 12.5741 9.96512 12.5741C9.96524 12.5744 9.96595 12.5761 9.96623 12.5795C9.96684 12.5869 9.96501 12.5976 9.95821 12.6081L10.7972 13.1521C11.05 12.7624 11.0277 12.2226 10.6723 11.8672L9.96513 12.5742ZM20.5095 23.1217C20.9001 23.5124 21.5334 23.5124 21.9239 23.1217L21.2167 22.4147L21.2167 22.4147L20.5095 23.1217ZM9.5441 10.739C9.15371 11.1295 9.15371 11.7625 9.5441 12.153L10.2513 11.446L10.2513 11.446L9.5441 10.739ZM14.5884 9.41563C14.5884 9.41586 14.5885 9.41556 14.5885 9.41558C14.5884 9.41586 14.5877 9.41757 14.5854 9.42017C14.5806 9.42589 14.5717 9.4322 14.5594 9.43483L14.7678 10.4129C15.2221 10.316 15.5884 9.91853 15.5884 9.41563H14.5884ZM11.6655 10.0318C11.275 9.64114 10.6416 9.64114 10.2511 10.0318L10.9583 10.7388L10.9583 10.7388L11.6655 10.0318ZM8.33374 15.0761C7.78146 15.0761 7.33374 15.5239 7.33374 16.0761H8.33374V16.0761V15.0761ZM14.5884 24.3309C14.5884 24.8832 15.0361 25.3309 15.5884 25.3309V24.3309H15.5884H14.5884ZM15.5884 7.82111C15.0361 7.82111 14.5884 8.26882 14.5884 8.82111H15.5884V7.82111ZM8.92835 18.0761C8.92858 18.0761 8.92828 18.0761 8.9283 18.0761C8.92858 18.0762 8.93028 18.0769 8.93289 18.0791C8.93861 18.084 8.94492 18.0929 8.94755 18.1052L9.92556 17.8967C9.82871 17.4424 9.43123 17.0761 8.92835 17.0761V18.0761ZM17.5884 23.736C17.5884 23.7358 17.5884 23.7361 17.5884 23.736C17.5885 23.7358 17.5892 23.7341 17.5914 23.7315C17.5963 23.7257 17.6052 23.7194 17.6175 23.7168L17.409 22.7388C16.9547 22.8356 16.5884 23.2331 16.5884 23.736H17.5884ZM12.1203 10.4459C12.1098 10.4527 12.0991 10.4545 12.0917 10.4539C12.0883 10.4536 12.0866 10.4529 12.0863 10.4528C12.0863 10.4528 12.0865 10.4529 12.0864 10.4528L11.3791 11.1598C11.7346 11.5153 12.2746 11.5377 12.6644 11.2848L12.1203 10.4459ZM22.2103 20.5797C22.2101 20.5796 22.2103 20.5798 22.2103 20.5798C22.2102 20.5795 22.2095 20.5778 22.2092 20.5744C22.2086 20.567 22.2104 20.5563 22.2172 20.5458L21.3784 20.0014C21.1255 20.3912 21.1476 20.9312 21.5031 21.2867L22.2103 20.5797ZM8.9474 15.0471C8.94478 15.0594 8.93847 15.0683 8.93275 15.0732C8.93014 15.0754 8.92844 15.0761 8.92816 15.0762C8.92814 15.0762 8.92844 15.0761 8.92821 15.0761V16.0761C9.43113 16.0761 9.82862 15.7098 9.92544 15.2555L8.9474 15.0471ZM14.5594 23.7168C14.5717 23.7194 14.5806 23.7257 14.5854 23.7314C14.5877 23.734 14.5884 23.7357 14.5885 23.736C14.5885 23.736 14.5884 23.7357 14.5884 23.736H15.5884C15.5884 23.2331 15.2221 22.8356 14.7678 22.7388L14.5594 23.7168ZM17.6175 9.43482C17.6052 9.43219 17.5963 9.42588 17.5914 9.42016C17.5892 9.41755 17.5885 9.41585 17.5884 9.41557C17.5884 9.41555 17.5884 9.41585 17.5884 9.41562H16.5884C16.5884 9.91852 16.9547 10.316 17.409 10.4128L17.6175 9.43482ZM17.5884 8.82111C17.5884 8.26882 17.1407 7.82111 16.5884 7.82111V8.82111V8.82111H17.5884Z" fill="#4F5162"/>
</svg>
