<svg viewBox="0 0 34 34" xmlns="http://www.w3.org/2000/svg"><path d="m7.403 19.548-5.661.054 1.729-2.275c.67-.883.917-1.944.778-2.961l.04-.005zm7.369-.092-.001.02-3.674.037-3.693-6.353 3.68-.053zm7.317-.183.003.139-3.663.03.002-.077-3.669-6.32 3.68-.053zm7.316-.183.006.248-3.662.039-.002-.195-3.625-6.244 3.68-.053z" fill="#0b0b0d"/><path d="m29.582 12.827a1 1 0 0 1 1.016.989l.05 4.51a1 1 0 0 1 -.99 1.01l-.249.003-.005-.248-3.604-6.206zm-3.84 6.353.002.196-3.657.034-.003-.138-3.647-6.28 3.68-.054 3.625 6.243zm-7.314.186-.001.078-3.658.034v-.02l-3.688-6.35 3.679-.061zm-14.143-5.008-.04.006a3.851 3.851 0 0 0 -.337-1.153l3.493-.053 3.693 6.352-3.695.035z" fill="#f2c94c"/></svg>