<svg viewBox="0 0 35 27" xmlns="http://www.w3.org/2000/svg"><path clip-rule="evenodd" d="m31.53 22.033c-.519-8.119-4.522-15.29-10.53-20.033v2.612c4.854 4.35 8.05 10.511 8.525 17.42h2.004z" fill="#fafbfc" fill-rule="evenodd"/><path d="m31.53 22.033v.5h.532l-.034-.533-.499.032zm-10.53-20.033.31-.392-.81-.64v1.032zm0 2.612h-.5v.224l.166.149zm8.525 17.42-.499.035.032.466h.467v-.5zm2.503-.03c-.02-.331-.047-.66-.08-.987l-.995.099c.031.315.057.632.077.95l.998-.063zm-.342-2.946c-.111-.653-.245-1.3-.4-1.937l-.972.237c.15.614.279 1.237.386 1.867zm-.934-3.84a28.054 28.054 0 0 0 -.668-1.862l-.928.37c.234.59.449 1.188.643 1.796zm-1.464-3.671a28.184 28.184 0 0 0 -.921-1.75l-.868.497c.315.55.611 1.113.888 1.687zm-1.963-3.43a28.331 28.331 0 0 0 -1.155-1.605l-.79.612c.388.502.76 1.019 1.114 1.548l.831-.556zm-2.42-3.124c-.44-.492-.895-.968-1.367-1.428l-.698.716c.455.444.895.904 1.319 1.378zm-2.83-2.757a28.493 28.493 0 0 0 -.765-.626l-.62.784c.25.198.496.399.739.604zm-1.575-.234v.653h1v-.653zm0 1.96v.652h1v-.652zm.166 1.025c.242.217.48.438.714.664l.695-.718c-.242-.235-.49-.465-.741-.69zm2.062 2.073c.431.486.843.989 1.236 1.507l.797-.604a26.44 26.44 0 0 0 -1.284-1.566zm2.353 3.105c.351.546.682 1.106.991 1.68l.88-.475a26.23 26.23 0 0 0 -1.03-1.746l-.84.541zm1.849 3.43c.262.592.503 1.196.72 1.811l.943-.333a26.112 26.112 0 0 0 -.749-1.883zm1.297 3.673c.167.624.311 1.258.43 1.9l.984-.182a26.124 26.124 0 0 0 -.448-1.977zm.713 3.83c.035.322.064.646.086.971l.998-.068a26.628 26.628 0 0 0 -.09-1.01zm.585 1.437h.501v-1h-.501zm1.503 0h.501v-1h-.5v1z" fill="#25a6f7"/><path d="m9.056 21.594-3.99 4.016-.369-2.834a3.977 3.977 0 0 0 -1.525-2.654l.024-.032zm5.181-5.241.013.015-2.59 2.607-7.09-1.927 2.582-2.623zm5.08-5.27.099.097-2.586 2.594-.053-.056-7.05-1.921 2.582-2.623zm5.078-5.27.178.173-2.579 2.6-.139-.138-6.965-1.898 2.581-2.623 6.924 1.885z" fill="#0b0b0d"/><path d="m20.122 1.231a1 1 0 0 1 1.417-.01l3.204 3.175a1 1 0 0 1 .005 1.415l-.175.177-.178-.173-6.925-1.885 2.651-2.699zm1.73 7.22.139.138-2.58 2.593-.099-.096-7.007-1.91 2.581-2.622zm-5.076 5.269.053.057-2.579 2.594-.014-.016-7.084-1.928 2.575-2.627 7.05 1.92zm-13.584 6.371-.025.032a3.85 3.85 0 0 0 -1.05-.584l2.45-2.49 7.09 1.927-2.605 2.62z" fill="#f2c94c"/><path d="m7.5 22.896c0 1.863-1.554 3.395-3.5 3.395s-3.5-1.531-3.5-3.395 1.554-3.396 3.5-3.396 3.5 1.533 3.5 3.396zm27 0c0 1.863-1.554 3.395-3.5 3.395-1.945 0-3.5-1.532-3.5-3.395s1.555-3.396 3.5-3.396c1.946 0 3.5 1.533 3.5 3.396z" fill="#fff" stroke="#25a6f7"/></svg>