<svg viewBox="0 0 32 32" xmlns="http://www.w3.org/2000/svg"><path fill-rule="evenodd" clip-rule="evenodd" d="M2.002 2.557c0-.28.227-.507.508-.507h6.024c.562 0 1.017.454 1.017 1.015v6.048c0 .28-.228.508-.508.508H3.018a1.016 1.016 0 0 1-1.016-1.016V2.557Zm1.731.508 4.801 4.819V3.065H3.733Zm4.087 5.54L3.018 3.787v4.818H7.82Zm4.633-6.048c0-.28.228-.507.508-.507h6.025c.561 0 1.016.454 1.016 1.015v6.048c0 .28-.227.508-.508.508H13.47a1.016 1.016 0 0 1-1.017-1.016V2.557Zm1.731.508 4.802 4.819V3.065h-4.802Zm4.087 5.54-4.802-4.818v4.818h4.802ZM2.51 12.511a.508.508 0 0 0-.508.507v6.048c0 .561.455 1.016 1.016 1.016h6.025c.28 0 .508-.227.508-.508v-6.048c0-.56-.455-1.015-1.017-1.015H2.51Zm6.024 5.834-4.801-4.819h4.801v4.819Zm-5.516-4.097 4.802 4.818H3.018v-4.818Z" fill="#299B2C"/><path fill-rule="evenodd" clip-rule="evenodd" d="M18.532 30.05c.562 0 1.017-.455 1.017-1.016v-5.54c0-.56-.455-1.015-1.017-1.015h-5.516c-.561 0-1.016.454-1.016 1.015v5.54c0 .561.455 1.016 1.016 1.016h5.516Zm10.452 0c.561 0 1.016-.455 1.016-1.016v-5.54c0-.56-.455-1.015-1.016-1.015h-5.517c-.56 0-1.016.454-1.016 1.015v5.54c0 .561.455 1.016 1.017 1.016h5.516Zm0-10.461c.561 0 1.016-.455 1.016-1.016v-5.54c0-.56-.455-1.015-1.016-1.015h-5.517c-.56 0-1.016.454-1.016 1.015v5.54c0 .561.455 1.016 1.017 1.016h5.516Z" fill="#0278D5"/></svg>