<svg xmlns="http://www.w3.org/2000/svg" fill-rule="evenodd" stroke-linejoin="round" stroke-miterlimit="2" clip-rule="evenodd" viewBox="0 0 512 512"><path fill="#94c748" fill-rule="nonzero" d="M0 128C0 57.312 57.312 0 128 0h255.999c70.688 0 128 57.312 128 128v255.999c0 70.688-57.312 128-128 128h-256C57.313 511.999 0 454.687 0 383.999z"/><path fill="#101214" fill-rule="nonzero" d="m380.639 250.954-21.035 128.512c-1.376 7.776-6.858 12.341-14.634 12.341H166.613c-7.776 0-13.27-4.565-14.635-12.341l-37.045-229.13c-1.376-7.776 2.741-12.8 10.059-12.8H386.59c7.317 0 11.435 5.024 10.059 12.8l-10.059 60.373c-1.376 8.682-6.41 12.341-14.635 12.341H214.634c-2.293 0-3.659 1.376-3.21 4.117l12.351 75.926c.46 1.824 1.835 3.2 3.66 3.2h56.714c1.824 0 3.2-1.376 3.658-3.2l8.683-54.891c.917-6.859 5.493-9.6 11.893-9.6h61.739c9.152 0 11.893 4.576 10.517 12.352"/></svg>