<svg width="42" height="48" fill="none" xmlns="http://www.w3.org/2000/svg"><g clip-path="url(#clip0)" fill="#fff"><path d="M20.835 0C9.397 0 0 3.062 0 6.94c0 1.02 2.451 15.513 3.472 21.229.41 2.654 7.15 6.328 17.362 6.328 10.212 0 16.748-3.674 17.36-6.328 1.022-5.716 3.473-20.208 3.473-21.229C41.464 3.062 32.272 0 20.835 0zm0 29.802c-3.677 0-6.536-2.858-6.536-6.532s2.86-6.532 6.536-6.532c3.676 0 6.535 2.858 6.535 6.532 0 3.47-2.859 6.532-6.535 6.532zm0-20.82c-7.353 0-13.277-1.225-13.277-2.858s5.924-2.858 13.277-2.858c7.352 0 13.276 1.225 13.276 2.858S28.187 8.98 20.835 8.98z"/><path d="M35.91 33.68c-.41 0-.613.204-.613.204S30.19 37.967 21 37.967c-9.192 0-14.298-4.083-14.298-4.083s-.408-.204-.613-.204c-.408 0-.817.204-.817.817v.204c.817 4.286 1.43 7.348 1.43 7.757.613 3.061 6.74 5.511 14.093 5.511s13.48-2.45 14.093-5.511c0-.409.613-3.47 1.43-7.757v-.204c.204-.409 0-.817-.408-.817zm-15.075-7.348a3.267 3.267 0 10-3.268-3.266 3.267 3.267 0 003.268 3.266z"/></g><defs><clipPath id="clip0"><path fill="#fff" d="M0 0h41.67v48H0z"/></clipPath></defs></svg>