<svg xmlns="http://www.w3.org/2000/svg" fill="currenColor" viewBox="0 0 20 20"><g clip-path="url(#a)"><path fill="#0B0B0D" d="M19.596 11.213c-.229-1.571-.576-3.152-.825-4.206a2.89 2.89 0 0 0-2.645-2.228A99.865 99.865 0 0 0 9.99 4.61c-2.784 0-4.873.09-6.135.17a2.89 2.89 0 0 0-2.646 2.227C.961 8.06.613 9.642.384 11.213c-.16 1.064-.278 2.307-.378 3.72-.05.785.209 1.54.736 2.127a2.858 2.858 0 0 0 2.039.965c1.73.08 4.385.179 7.219.179 2.834 0 5.49-.1 7.22-.18a2.916 2.916 0 0 0 2.038-.964 2.884 2.884 0 0 0 .736-2.128 52.937 52.937 0 0 0-.398-3.719Zm-1.372 4.932a1.529 1.529 0 0 1-1.074.508c-1.72.08-4.346.179-7.16.179s-5.44-.1-7.16-.18a1.529 1.529 0 0 1-1.074-.507 1.501 1.501 0 0 1-.388-1.123c.09-1.373.21-2.586.368-3.61.22-1.522.557-3.063.806-4.087a1.536 1.536 0 0 1 1.402-1.183c1.243-.08 3.301-.17 6.056-.17 2.745 0 4.813.09 6.056.17.676.04 1.243.517 1.402 1.183.239 1.024.577 2.565.806 4.087.149 1.024.268 2.237.368 3.61 0 .417-.14.815-.408 1.123ZM9.99 3.496a.853.853 0 0 0 .855-.845.855.855 0 1 0-1.71 0 .86.86 0 0 0 .855.845Zm4.972 6.534c-.756 0-1.372.616-1.372 1.372h2.744c0-.756-.606-1.372-1.372-1.372Zm-9.944 0c-.756 0-1.372.616-1.372 1.372H6.39c0-.756-.606-1.372-1.372-1.372Zm4.972 4.972a2.22 2.22 0 0 0 2.217-2.218H7.763c0 1.213.994 2.218 2.227 2.218Z"/></g><defs><clipPath id="a"><path fill="#fff" d="M0 0h20v20H0z"/></clipPath></defs></svg>