<svg fill="none" height="24" viewBox="0 0 25 24" width="25" xmlns="http://www.w3.org/2000/svg"><path d="m12.855 20.858c-2.145-.095-4.616 0-7.068-.36-.438-.067-.802-.218-1.1-.541a5.381 5.381 0 0 1 -1.138-1.879c-.55-1.555-.914-3.15-.858-4.81.019-.446-.018-.968.439-1.224.466-.256.895.029 1.296.285.093.057.186.114.27.18 1.138 1.006 2.434 1.12 3.842.73a4.353 4.353 0 0 1 2.126-.066c.252.057.466.02.615-.208.15-.238.037-.465-.102-.655a.953.953 0 0 0 -.308-.275c-2.303-1.509-2.519-5.323-1.296-7.192 1.287-1.973 3.85-2.296 5.51-.635.299.294.588.607.868.93.298.331.634.36 1.016.17.336-.17.644-.38.923-.636a7.98 7.98 0 0 1 .523-.464c.13-.105.28-.276.447-.171.14.085.13.303.15.474.046.778-.28 1.48-.486 2.201-.13.446-.037.645.41.712.29.038.579.114.858.2.168.047.383.075.43.312.046.237-.122.38-.28.503-.41.332-.83.664-1.24.996-.672.56-.998 1.319-1.157 2.154-.084.446.084.806.466 1.053.355.228.71.446 1.073.664 2.163 1.29 2.555 3.492 2.145 5.484-.234 1.167-1.138 1.84-2.304 1.907-1.93.095-3.841.18-6.07.161z" fill="#010101"/></svg>