<svg xmlns="http://www.w3.org/2000/svg" width="40" height="40" fill="none" viewBox="0 0 24 25">
  <path fill="#fff" d="M13.095 21.378c-2.145-.095-4.616 0-7.068-.36-.439-.067-.802-.219-1.1-.541a5.38 5.38 0 0 1-1.138-1.879c-.55-1.556-.914-3.15-.858-4.81.018-.446-.019-.968.438-1.224.466-.256.895.028 1.296.284.093.057.187.114.27.18 1.138 1.006 2.434 1.12 3.842.731a4.354 4.354 0 0 1 2.126-.066c.252.057.466.019.616-.209.149-.237.037-.465-.103-.655a.955.955 0 0 0-.308-.275c-2.303-1.508-2.517-5.322-1.296-7.191 1.287-1.974 3.851-2.296 5.511-.636.298.294.588.607.867.93.299.332.634.36 1.017.17a4.12 4.12 0 0 0 .923-.635c.168-.161.345-.323.522-.465.13-.104.28-.275.448-.17.14.085.13.303.149.474.046.778-.28 1.48-.485 2.2-.13.447-.037.646.41.712.29.038.578.114.858.2.168.047.382.076.429.313.047.237-.121.38-.28.503-.41.332-.83.664-1.24.996-.671.56-.998 1.319-1.156 2.153-.084.446.084.807.466 1.054.354.227.709.445 1.072.664 2.164 1.29 2.555 3.491 2.145 5.484-.233 1.167-1.138 1.84-2.303 1.907-1.93.094-3.842.18-6.07.16Z"/>
</svg>
