<svg xmlns="http://www.w3.org/2000/svg" width="40" height="40" fill="none" viewBox="0 0 24 25">
  <path fill="#010101" d="M12.826 21.357c-2.145-.095-4.616 0-7.068-.36-.438-.067-.802-.218-1.1-.541a5.38 5.38 0 0 1-1.138-1.878c-.55-1.556-.914-3.15-.858-4.81.019-.447-.018-.969.438-1.225.467-.256.896.029 1.297.285.093.057.186.114.27.18 1.138 1.006 2.434 1.12 3.842.73a4.352 4.352 0 0 1 2.126-.066c.251.057.466.02.615-.208.15-.238.037-.465-.102-.655a.955.955 0 0 0-.308-.275C8.537 11.025 8.322 7.21 9.544 5.342c1.287-1.973 3.85-2.296 5.51-.635.299.294.588.607.868.93.298.331.634.36 1.016.17.336-.17.643-.38.923-.636a8.01 8.01 0 0 1 .522-.464c.13-.105.28-.276.448-.171.14.085.13.303.15.474.046.778-.28 1.48-.486 2.201-.13.446-.037.645.41.712.29.038.579.114.858.2.168.047.383.075.43.312.046.237-.122.38-.28.503-.41.332-.83.664-1.24.996-.672.56-.998 1.319-1.157 2.154-.084.446.084.806.466 1.053.355.228.71.446 1.073.664 2.163 1.29 2.555 3.492 2.144 5.484-.233 1.167-1.137 1.84-2.303 1.907-1.93.095-3.841.18-6.07.161Z"/>
</svg>
