<svg fill="none" height="25" viewBox="0 0 26 25" width="26" xmlns="http://www.w3.org/2000/svg"><path d="m13.967 21.85c-2.145-.095-4.616 0-7.068-.36-.438-.067-.802-.219-1.1-.541a5.382 5.382 0 0 1 -1.139-1.879c-.55-1.556-.914-3.15-.858-4.81.019-.446-.018-.968.438-1.224.467-.256.896.029 1.297.285.093.057.186.114.27.18 1.138 1.006 2.434 1.12 3.842.73a4.352 4.352 0 0 1 2.126-.066c.251.057.466.019.615-.209.15-.237.037-.465-.102-.654a.953.953 0 0 0 -.308-.275c-2.303-1.509-2.518-5.323-1.296-7.192 1.287-1.973 3.85-2.296 5.51-.636.299.294.588.607.868.93.298.332.634.36 1.016.17.336-.17.643-.379.923-.635.168-.161.345-.322.522-.465.13-.104.28-.275.448-.17.14.085.13.303.15.474.046.778-.28 1.48-.486 2.201-.13.446-.037.645.41.712.29.038.579.113.858.199.168.047.383.076.43.313.046.237-.122.38-.28.503-.41.332-.83.664-1.24.996-.672.56-.998 1.319-1.157 2.154-.084.446.084.806.466 1.053.355.227.709.446 1.073.664 2.163 1.29 2.555 3.491 2.144 5.484-.233 1.167-1.137 1.84-2.303 1.907-1.93.095-3.841.18-6.07.161z" fill="#fff"/></svg>