<svg fill="none" viewBox="0 0 50 50" xmlns="http://www.w3.org/2000/svg"><path d="M46.407 19.492c-.825-.862-1.678-1.75-2-2.531-.297-.715-.314-1.901-.332-3.05-.033-2.134-.068-4.554-1.75-6.236s-4.102-1.717-6.237-1.75c-1.148-.018-2.334-.035-3.049-.332-.779-.322-1.669-1.175-2.53-2C28.998 2.143 27.283.5 25 .5s-3.997 1.643-5.508 3.093c-.862.825-1.75 1.678-2.531 2-.711.297-1.901.314-3.05.332-2.134.033-4.554.068-6.236 1.75s-1.706 4.102-1.75 6.237c-.018 1.148-.035 2.334-.332 3.049-.322.779-1.175 1.669-2 2.53C2.143 21.002.5 22.717.5 25s1.643 3.997 3.093 5.508c.825.862 1.678 1.75 2 2.531.297.715.314 1.901.332 3.05.033 2.134.068 4.554 1.75 6.236s4.102 1.717 6.237 1.75c1.148.017 2.334.035 3.049.332.779.322 1.669 1.175 2.53 2 1.51 1.45 3.225 3.093 5.509 3.093s3.997-1.643 5.508-3.093c.862-.825 1.75-1.678 2.531-2 .715-.297 1.901-.314 3.05-.332 2.134-.033 4.554-.068 6.236-1.75s1.717-4.102 1.75-6.237c.017-1.148.035-2.334.332-3.049.322-.779 1.175-1.669 2-2.53 1.45-1.51 3.093-3.225 3.093-5.509s-1.643-3.997-3.093-5.508m-11.419 1.496-12.25 12.25a1.75 1.75 0 0 1-2.476 0l-5.25-5.25a1.75 1.75 0 1 1 2.476-2.476l4.012 4.014 11.012-11.014a1.751 1.751 0 1 1 2.476 2.476" fill="url(#a)"/><defs><linearGradient id="a" x1="25" y1=".5" x2="25" y2="49.5" gradientUnits="userSpaceOnUse"><stop stop-color="#0278D5"/><stop offset="1" stop-color="#00E9DB"/></linearGradient></defs></svg>