<svg xmlns="http://www.w3.org/2000/svg" fill="none" viewBox="0 0 16 16"><path stroke="#383946" stroke-linecap="round" stroke-linejoin="round" d="m5.6 2 1.128 1.128m2.544 0L10.4 2M6.2 5.078v-.6a1.802 1.802 0 1 1 3.6 0v.6"/><path stroke="#383946" stroke-linecap="round" stroke-linejoin="round" d="M8 12.8a3.61 3.61 0 0 1-3.6-3.6V7.4A2.4 2.4 0 0 1 6.8 5h2.4a2.4 2.4 0 0 1 2.4 2.4v1.8c0 1.98-1.62 3.6-3.6 3.6m0 0V7.4"/><path stroke="#383946" stroke-linecap="round" stroke-linejoin="round" d="M4.718 6.2C3.56 6.08 2.6 5.06 2.6 3.8m1.8 4.8H2m.6 4.8c0-1.26 1.02-2.34 2.28-2.4m8.502-7.2c0 1.26-.96 2.28-2.1 2.4M14 8.6h-2.4m-.48 2.4c1.26.06 2.28 1.14 2.28 2.4"/></svg>