<svg xmlns="http://www.w3.org/2000/svg" width="24" height="24" viewBox="0 0 40 40">
    <g>
        <path style=" stroke:none;fill-rule:nonzero;fill:rgb(100%,67.45098%,46.27451%);fill-opacity:1;" d="M 20.425781 0.0234375 L 20.425781 6.585938 C 20.433594 6.664062 20.429688 6.738281 20.414062 6.8125 C 20.410156 6.839844 20.40625 6.863281 20.402344 6.886719 C 20.398438 6.890625 20.398438 6.894531 20.398438 6.894531 C 20.347656 7.09375 20.21875 7.269531 20.046875 7.378906 L 11.421875 15.132812 L 19.871094 15.132812 C 19.914062 15.125 19.957031 15.121094 20.003906 15.121094 C 20.242188 15.117188 20.46875 15.21875 20.628906 15.398438 C 20.632812 15.40625 20.640625 15.410156 20.644531 15.414062 C 20.648438 15.417969 20.648438 15.417969 20.652344 15.421875 C 20.808594 15.605469 20.875 15.847656 20.835938 16.089844 L 20.835938 23.25 L 30.648438 23.25 C 30.664062 23.246094 30.675781 23.246094 30.691406 23.242188 C 31.101562 23.210938 31.472656 23.488281 31.554688 23.890625 L 31.554688 23.894531 C 31.558594 23.910156 31.5625 23.925781 31.5625 23.9375 C 31.566406 23.960938 31.570312 23.984375 31.570312 24.007812 C 31.570312 24.011719 31.570312 24.019531 31.574219 24.019531 C 31.574219 24.046875 31.574219 24.070312 31.574219 24.097656 C 31.574219 24.101562 31.574219 24.101562 31.574219 24.105469 C 31.5625 24.363281 31.429688 24.601562 31.214844 24.746094 L 21.253906 33.707031 L 21.253906 39.957031 C 31.789062 39.296875 39.996094 30.558594 40 20 C 39.992188 9.128906 31.296875 0.253906 20.425781 0.0234375 Z M 20.425781 0.0234375 "/>
        <path style=" stroke:none;fill-rule:nonzero;fill:rgb(60%,60%,60%);fill-opacity:1;" d="M 18.785156 0.046875 C 8.234375 0.6875 0.00390625 9.429688 0 20 C 0.0117188 30.890625 8.726562 39.769531 19.613281 39.980469 L 19.613281 33.421875 C 19.601562 33.296875 19.617188 33.167969 19.664062 33.050781 C 19.714844 32.90625 19.8125 32.777344 19.933594 32.683594 L 28.605469 24.890625 L 20.152344 24.890625 C 20.039062 24.910156 19.925781 24.902344 19.820312 24.878906 C 19.808594 24.875 19.796875 24.871094 19.785156 24.867188 C 19.316406 24.757812 19.042969 24.269531 19.195312 23.8125 L 19.195312 16.773438 L 9.472656 16.773438 C 9 16.902344 8.519531 16.59375 8.441406 16.109375 C 8.371094 15.75 8.546875 15.390625 8.871094 15.222656 L 18.785156 6.304688 Z M 18.785156 0.046875 "/>
        <path style=" stroke:none;fill-rule:nonzero;fill:rgb(100%,100%,100%);fill-opacity:1;" d="M 20 0 C 19.597656 0.00390625 19.191406 0.015625 18.785156 0.0429688 L 18.785156 6.304688 L 8.871094 15.222656 C 8.546875 15.390625 8.375 15.75 8.445312 16.109375 C 8.480469 16.339844 8.613281 16.546875 8.808594 16.671875 C 9.007812 16.796875 9.25 16.835938 9.472656 16.773438 L 19.195312 16.773438 L 19.195312 23.8125 C 19.125 24.027344 19.148438 24.269531 19.257812 24.46875 C 19.371094 24.671875 19.5625 24.816406 19.785156 24.867188 C 19.796875 24.871094 19.808594 24.875 19.820312 24.878906 C 19.929688 24.90625 20.042969 24.910156 20.152344 24.890625 L 28.609375 24.890625 L 19.9375 32.683594 C 19.8125 32.777344 19.71875 32.90625 19.664062 33.050781 C 19.621094 33.167969 19.601562 33.296875 19.613281 33.421875 L 19.613281 39.980469 C 19.742188 39.988281 19.871094 39.996094 20 40 C 20.421875 40 20.839844 39.984375 21.257812 39.957031 L 21.257812 33.707031 L 31.21875 24.746094 C 31.433594 24.601562 31.5625 24.363281 31.574219 24.105469 C 31.574219 24.101562 31.574219 24.101562 31.574219 24.097656 C 31.578125 24.070312 31.578125 24.046875 31.574219 24.019531 C 31.574219 24.015625 31.574219 24.011719 31.574219 24.007812 C 31.574219 23.984375 31.570312 23.960938 31.566406 23.9375 C 31.566406 23.921875 31.5625 23.90625 31.558594 23.894531 C 31.558594 23.890625 31.558594 23.890625 31.558594 23.890625 C 31.472656 23.488281 31.105469 23.210938 30.691406 23.242188 C 30.679688 23.242188 30.664062 23.246094 30.652344 23.246094 L 20.839844 23.246094 L 20.839844 16.089844 C 20.878906 15.847656 20.8125 15.605469 20.652344 15.421875 C 20.652344 15.417969 20.652344 15.417969 20.648438 15.414062 C 20.644531 15.410156 20.636719 15.402344 20.628906 15.398438 C 20.472656 15.21875 20.246094 15.117188 20.003906 15.121094 C 19.960938 15.121094 19.917969 15.125 19.871094 15.132812 L 11.421875 15.132812 L 20.046875 7.378906 C 20.222656 7.269531 20.347656 7.09375 20.402344 6.894531 C 20.402344 6.890625 20.402344 6.890625 20.402344 6.886719 C 20.410156 6.863281 20.414062 6.835938 20.417969 6.8125 C 20.429688 6.738281 20.433594 6.664062 20.425781 6.585938 L 20.425781 0.0234375 C 20.285156 0.015625 20.144531 0.0078125 20 0 Z M 20 0 "/>
        <path style=" stroke:none;fill-rule:nonzero;fill:rgb(100%,57.254902%,29.411765%);fill-opacity:1;" d="M 20.425781 0.0195312 L 20.425781 6.585938 C 20.433594 6.664062 20.429688 6.738281 20.414062 6.8125 C 20.410156 6.839844 20.40625 6.863281 20.402344 6.886719 C 20.398438 6.890625 20.398438 6.894531 20.398438 6.894531 C 20.347656 7.09375 20.21875 7.269531 20.046875 7.378906 L 11.421875 15.132812 L 13.0625 15.132812 L 20.988281 8.007812 C 21.164062 7.898438 21.289062 7.722656 21.34375 7.523438 C 21.34375 7.519531 21.34375 7.519531 21.34375 7.515625 C 21.351562 7.488281 21.355469 7.464844 21.359375 7.441406 C 21.371094 7.367188 21.375 7.292969 21.367188 7.214844 L 21.367188 0.0664062 C 21.054688 0.0429688 20.742188 0.0273438 20.425781 0.0195312 Z M 20.945312 15.75 C 20.90625 15.75 20.863281 15.753906 20.820312 15.761719 C 20.847656 15.867188 20.855469 15.980469 20.835938 16.089844 L 20.835938 23.25 L 21.78125 23.25 L 21.78125 16.71875 C 21.820312 16.476562 21.753906 16.234375 21.59375 16.050781 C 21.59375 16.046875 21.59375 16.046875 21.589844 16.042969 C 21.585938 16.035156 21.578125 16.035156 21.570312 16.027344 C 21.414062 15.847656 21.1875 15.746094 20.945312 15.75 Z M 31.632812 23.871094 C 31.621094 23.871094 31.605469 23.875 31.59375 23.875 L 31.550781 23.875 C 31.550781 23.882812 31.554688 23.886719 31.554688 23.894531 C 31.558594 23.910156 31.5625 23.925781 31.5625 23.941406 C 31.566406 23.960938 31.570312 23.988281 31.570312 24.011719 C 31.570312 24.011719 31.570312 24.019531 31.574219 24.023438 C 31.574219 24.046875 31.574219 24.074219 31.574219 24.097656 C 31.574219 24.101562 31.574219 24.101562 31.574219 24.105469 C 31.5625 24.363281 31.429688 24.601562 31.214844 24.75 L 21.253906 33.707031 L 21.253906 39.957031 C 21.570312 39.9375 21.886719 39.910156 22.199219 39.875 L 22.199219 34.339844 L 32.160156 25.378906 C 32.375 25.230469 32.507812 24.992188 32.519531 24.734375 C 32.519531 24.734375 32.519531 24.730469 32.519531 24.730469 C 32.519531 24.703125 32.519531 24.679688 32.519531 24.652344 C 32.515625 24.648438 32.515625 24.644531 32.515625 24.640625 C 32.515625 24.617188 32.511719 24.59375 32.507812 24.570312 C 32.507812 24.554688 32.503906 24.539062 32.5 24.523438 C 32.414062 24.121094 32.042969 23.84375 31.632812 23.875 Z M 31.632812 23.871094 "/>
    </g>
</svg>
