<svg xmlns="http://www.w3.org/2000/svg" fill="none" viewBox="0 0 16 16">
  <path fill="#fff" fill-opacity=".01" d="M0 0h16v16H0z"/>
  <path fill="currentColor" fill-rule="evenodd" d="M4.8 1.06668c.29455 0 .53333.23878.53333.53333v.53334h5.33337v-.53334c0-.29455.2388-.53333.5333-.53333s.5333.23878.5333.53333v.53334h1.6c.8837 0 1.6.71634 1.6 1.6v9.59995c0 .8837-.7163 1.6-1.6 1.6H2.66667c-.88366 0-1.6-.7163-1.6-1.6V3.73335c0-.88366.71634-1.6 1.6-1.6h1.6v-.53334c0-.29455.23878-.53333.53333-.53333Zm5.8667 2.13333v.53334c0 .29455.2388.53333.5333.53333s.5333-.23878.5333-.53333v-.53334h1.6c.2945 0 .5334.23879.5334.53334v1.6H2.13333v-1.6c0-.29455.23879-.53334.53334-.53334h1.6v.53334c0 .29455.23878.53333.53333.53333s.53333-.23878.53333-.53333v-.53334h5.33337Zm-8.53337 3.2v6.93329c0 .2946.23879.5334.53334.5334H13.3333c.2945 0 .5334-.2388.5334-.5334V6.40001H2.13333Zm5.33334 1.6c0-.29454.23878-.53333.53333-.53333s.53333.23879.53333.53333c0 .29455-.23878.53334-.53333.53334s-.53333-.23879-.53333-.53334Zm2.66663-.53333c-.29452 0-.5333.23879-.5333.53333 0 .29455.23878.53334.5333.53334.2946 0 .5334-.23879.5334-.53334 0-.29454-.2388-.53333-.5334-.53333Zm1.6.53333c0-.29454.2389-.53333.5334-.53333s.5333.23879.5333.53333c0 .29455-.2388.53334-.5333.53334s-.5334-.23879-.5334-.53334Zm.5334 1.6c-.2945 0-.5334.23879-.5334.53329 0 .2946.2389.5334.5334.5334s.5333-.2388.5333-.5334c0-.2945-.2388-.53329-.5333-.53329ZM9.6 10.1333c0-.2945.23878-.53329.5333-.53329.2946 0 .5334.23879.5334.53329 0 .2946-.2388.5334-.5334.5334-.29452 0-.5333-.2388-.5333-.5334ZM8 9.60001c-.29455 0-.53333.23879-.53333.53329 0 .2946.23878.5334.53333.5334s.53333-.2388.53333-.5334c0-.2945-.23878-.53329-.53333-.53329Zm-2.66667.53329c0-.2945.23879-.53329.53334-.53329.29455 0 .53333.23879.53333.53329 0 .2946-.23878.5334-.53333.5334s-.53334-.2388-.53334-.5334Zm-1.6-.53329c-.29455 0-.53333.23879-.53333.53329 0 .2946.23878.5334.53333.5334s.53334-.2388.53334-.5334c0-.2945-.23879-.53329-.53334-.53329ZM3.2 12.2667c0-.2945.23878-.5334.53333-.5334s.53334.2389.53334.5334-.23879.5333-.53334.5333c-.29455 0-.53333-.2388-.53333-.5333Zm2.66667-.5334c-.29455 0-.53334.2389-.53334.5334s.23879.5333.53334.5333c.29455 0 .53333-.2388.53333-.5333s-.23878-.5334-.53333-.5334Zm1.6.5334c0-.2945.23878-.5334.53333-.5334s.53333.2389.53333.5334S8.29455 12.8 8 12.8s-.53333-.2388-.53333-.5333Zm2.66663-.5334c-.29452 0-.5333.2389-.5333.5334s.23878.5333.5333.5333c.2946 0 .5334-.2388.5334-.5333s-.2388-.5334-.5334-.5334Z" clip-rule="evenodd"/>
</svg>
