<svg xmlns="http://www.w3.org/2000/svg" viewBox="0 0 33 32" fill="none"><path d="M18.551 23.815c-.553 1.083-6.686 2.708-9.684 3.385l-2.64-2.584c2.725-2.749 8.174-8.653 8.174-10.277 0-2.031 2.767-4.739 4.15-4.739 1.384 0 2.767 3.385 3.459 4.062.691.676-2.767 8.8-3.459 10.153Z" fill="url(#a)"/><path fill-rule="evenodd" clip-rule="evenodd" d="M17.377 8.404c2.854-.125 5.123 2.576 5.123 6.607h-1.2 1.2v.046a16.881 16.881 0 0 1-.01.542c-.011.357-.032.854-.075 1.417-.084 1.099-.256 2.552-.634 3.697-.986 2.988-4.535 7.543-11.801 6.809a1.2 1.2 0 0 1 .241-2.388c5.91.597 8.567-3.01 9.281-5.173.281-.853.439-2.063.52-3.127a28.83 28.83 0 0 0 .078-1.793v-.029c0-3.291-1.683-4.252-2.617-4.21-.517.022-1.105.303-1.566 1.02-.469.73-.817 1.945-.668 3.756a1.2 1.2 0 0 1-2.392.197c-.18-2.182.213-3.963 1.041-5.25.836-1.301 2.102-2.06 3.48-2.121Z" fill="#FCB519"/><path fill-rule="evenodd" clip-rule="evenodd" d="m21.361 13.294-1.158-1.573.595-1.042 3.94 2.251-2.247 1.926-.781-.912-.349-.65Z" fill="#FCB519"/><path fill-rule="evenodd" clip-rule="evenodd" d="M15.899 27.094c6.016.171 10.955-4.252 11.125-10.178.171-6.011-4.576-11.276-10.508-11.445-5.97-.17-10.95 4.532-11.12 10.502-.02.743.033 1.468.155 2.17a1.2 1.2 0 0 1-2.365.41 13.272 13.272 0 0 1-.189-2.648C3.206 8.609 9.29 2.864 16.585 3.072c7.335.21 13.045 6.656 12.838 13.912-.21 7.34-6.342 12.716-13.592 12.509a13.162 13.162 0 0 1-6.382-1.851 1.2 1.2 0 1 1 1.23-2.062c1.53.913 3.308 1.459 5.22 1.514Z" fill="#FCB519"/><path fill-rule="evenodd" clip-rule="evenodd" d="M25.37 24.826a1.2 1.2 0 0 1-1.696.044l-16-15.2a1.2 1.2 0 0 1 1.653-1.74l16 15.2a1.2 1.2 0 0 1 .043 1.697Z" fill="#FCB519"/><path fill-rule="evenodd" clip-rule="evenodd" d="M14.938 15.162a1.2 1.2 0 0 1 0 1.697l-8 8a1.2 1.2 0 0 1-1.697-1.697l8-8a1.2 1.2 0 0 1 1.697 0Z" fill="#FCB519"/><defs><linearGradient id="a" x1="14.101" y1="9.6" x2="14.101" y2="27.2" gradientUnits="userSpaceOnUse"><stop offset=".214" stop-color="#FFD608" stop-opacity=".49"/><stop offset="1" stop-color="#FFD608" stop-opacity="0"/></linearGradient></defs></svg>