<svg viewBox="0 0 28 28" fill="currentColor" xmlns="http://www.w3.org/2000/svg"><path fill-rule="evenodd" clip-rule="evenodd" d="M14.936 5.622c2.865-.124 5.169 2.566 5.169 6.616h-1.2 1.2v.046a16.976 16.976 0 0 1-.012.542c-.01.358-.032.856-.075 1.42-.085 1.101-.26 2.558-.642 3.705-.98 2.943-4.54 7.839-11.924 7.1a1.2 1.2 0 1 1 .239-2.388c5.948.595 8.67-3.255 9.408-5.471.285-.853.444-2.063.526-3.13a28.487 28.487 0 0 0 .078-1.693l.001-.1V12.238c0-3.284-1.696-4.26-2.664-4.219-.533.023-1.132.31-1.598 1.028-.474.73-.826 1.945-.675 3.757a1.2 1.2 0 1 1-2.392.2c-.182-2.189.216-3.974 1.054-5.264.847-1.303 2.123-2.058 3.507-2.119Z" fill="#6B6D83"/><path d="M20.9 10.905 18.71 9.57l.19 2.667 2-1.333Z" fill="#6B6D83"/><path fill-rule="evenodd" clip-rule="evenodd" d="m17.352 7.337 5.783 3.522-5.282 3.522-.501-7.044Z" fill="#6B6D83"/><path fill-rule="evenodd" clip-rule="evenodd" d="M13.262 24.367c6.008.171 10.94-4.245 11.109-10.163.171-6.002-4.57-11.26-10.492-11.428C7.917 2.606 2.945 7.3 2.775 13.263c-.021.741.033 1.466.154 2.167a1.2 1.2 0 0 1-2.364.41 13.255 13.255 0 0 1-.189-2.645C.584 5.907 6.66.169 13.947.377c7.327.209 13.03 6.648 12.823 13.895-.21 7.332-6.334 12.7-13.576 12.494a13.146 13.146 0 0 1-6.374-1.849 1.2 1.2 0 1 1 1.23-2.061 10.746 10.746 0 0 0 5.212 1.511Z" fill="#6B6D83"/><path fill-rule="evenodd" clip-rule="evenodd" d="M12.42 12.056a1.2 1.2 0 0 1 0 1.698l-10 10a1.2 1.2 0 0 1-1.697-1.698l10-10a1.2 1.2 0 0 1 1.697 0Z" fill="#6B6D83"/></svg>