<svg xmlns="http://www.w3.org/2000/svg" viewBox="0 0 32 32" fill="none"><path d="M19.714 22c-.533 1.067-4 3.429-9.714 4.857L5.143 24C7.769 21.293 14 16.743 14 15.143c0-2 .857-6.286 4.667-5.81 1.323.166 2.095 3.429 2.761 4.095.667.667-1.047 7.239-1.714 8.572Z" fill="url(#a)"/><path fill-rule="evenodd" clip-rule="evenodd" d="M17.364 8.051c2.866-.125 5.17 2.566 5.17 6.616h-1.2 1.2v.014l-.001.032-.001.117c-.002.101-.004.246-.01.425-.01.358-.032.856-.076 1.42-.084 1.101-.259 2.557-.641 3.704-.981 2.944-4.54 7.84-11.925 7.1a1.2 1.2 0 1 1 .24-2.387c5.948.595 8.67-3.255 9.408-5.472.285-.853.443-2.063.525-3.129a28.508 28.508 0 0 0 .079-1.694l.001-.1v-.03c0-3.283-1.696-4.26-2.664-4.218-.534.023-1.132.31-1.598 1.027-.474.73-.826 1.946-.675 3.757a1.2 1.2 0 1 1-2.392.2c-.182-2.188.216-3.973 1.054-5.264.846-1.303 2.123-2.058 3.506-2.118Z" fill="#fff"/><path d="M23.332 13.333 21.142 12l.19 2.667 2-1.334Z" fill="#fff"/><path fill-rule="evenodd" clip-rule="evenodd" d="m19.78 9.766 5.784 3.521-5.283 3.522-.5-7.043Z" fill="#fff"/><path fill-rule="evenodd" clip-rule="evenodd" d="M15.694 26.796c6.007.171 10.939-4.245 11.108-10.163.171-6.003-4.569-11.26-10.492-11.429-5.962-.17-10.934 4.526-11.104 10.488-.021.74.033 1.465.154 2.166a1.2 1.2 0 1 1-2.364.41 13.255 13.255 0 0 1-.189-2.645C3.015 8.336 9.091 2.597 16.38 2.805c7.326.21 13.029 6.649 12.822 13.896-.21 7.332-6.334 12.7-13.576 12.494a13.146 13.146 0 0 1-6.374-1.849 1.2 1.2 0 0 1 1.23-2.062 10.745 10.745 0 0 0 5.213 1.512Z" fill="#fff"/><path fill-rule="evenodd" clip-rule="evenodd" d="M14.85 14.485a1.2 1.2 0 0 1 0 1.697l-10 10a1.2 1.2 0 0 1-1.698-1.697l10-10a1.2 1.2 0 0 1 1.697 0Z" fill="#fff"/><path fill-rule="evenodd" clip-rule="evenodd" d="M24.87 24.827a1.2 1.2 0 0 1-1.696.043l-16-15.2a1.2 1.2 0 0 1 1.653-1.74l16 15.2a1.2 1.2 0 0 1 .043 1.697Z" fill="#fff"/><defs><linearGradient id="a" x1="14.378" y1="9.333" x2="14.378" y2="26.666" gradientUnits="userSpaceOnUse"><stop offset=".214" stop-color="#fff" stop-opacity=".49"/><stop offset="1" stop-color="#fff" stop-opacity="0"/></linearGradient></defs></svg>