<svg viewBox="0 0 32 32" fill="none" xmlns="http://www.w3.org/2000/svg"><path fill-rule="evenodd" clip-rule="evenodd" d="M14.936 5.622c2.865-.124 5.169 2.566 5.169 6.616h-1.2 1.2v.046a16.976 16.976 0 01-.012.542c-.01.358-.032.856-.075 1.42-.085 1.101-.26 2.558-.642 3.705-.98 2.943-4.54 7.838-11.924 7.1a1.2 1.2 0 11.239-2.388c5.948.595 8.67-3.255 9.408-5.471.285-.853.444-2.063.526-3.13a28.487 28.487 0 00.078-1.693l.001-.1V12.238c0-3.284-1.696-4.261-2.664-4.219-.533.023-1.132.31-1.598 1.028-.474.73-.826 1.945-.675 3.757a1.2 1.2 0 11-2.392.2c-.182-2.189.216-3.974 1.054-5.265.847-1.302 2.123-2.058 3.507-2.118z" fill="#6B6D83"/><path d="M20.9 10.905L18.71 9.57l.19 2.667 2-1.333z" fill="#6B6D83"/><path fill-rule="evenodd" clip-rule="evenodd" d="M17.352 7.337l5.783 3.522-5.282 3.522-.501-7.044z" fill="#6B6D83"/><path fill-rule="evenodd" clip-rule="evenodd" d="M13.262 24.367c6.008.172 10.94-4.245 11.109-10.163.171-6.002-4.57-11.259-10.492-11.428C7.917 2.606 2.945 7.3 2.775 13.263c-.021.741.033 1.466.154 2.167a1.2 1.2 0 11-2.364.41 13.255 13.255 0 01-.189-2.645C.584 5.908 6.66.169 13.947.377c7.327.21 13.03 6.648 12.823 13.896-.21 7.331-6.334 12.7-13.576 12.493a13.145 13.145 0 01-6.374-1.849 1.2 1.2 0 111.23-2.061 10.746 10.746 0 005.212 1.511z" fill="#6B6D83"/><path fill-rule="evenodd" clip-rule="evenodd" d="M12.42 12.056a1.2 1.2 0 010 1.698l-10 10a1.2 1.2 0 01-1.697-1.698l10-10a1.2 1.2 0 011.697 0z" fill="#6B6D83"/></svg>