<svg xmlns="http://www.w3.org/2000/svg" viewBox="0 0 24 24" fill="none"><g clip-path="url(#a)"><path fill="#FF832B" d="M3.886 13.553c-.286-.286-.238-.476-.179-.536l6.89-8.833c-.05.001-.001-.042.07-.09l-.07.09c.074-.001.37-.104 1.141-.447 1.606-.714 2.32.357 2.498.714.179.357 4.997 13.028 5.176 13.385.178.357.357 1.07 0 1.427-.286.286-2.023.952-2.855 1.25-4.105-2.202-12.386-6.675-12.671-6.96Z"/><path fill="#000" fill-rule="evenodd" d="m19.478 18.18-2.677 1.07-.132-.33 2.677-1.072.132.332ZM18.943 16.574l-2.677 1.07-.133-.331 2.677-1.07.133.33ZM18.229 15.146l-2.677 1.07-.133-.33 2.677-1.071.133.33ZM14.124 4.081l-2.677 1.071-.132-.331 2.677-1.071.132.331Zm.536 1.25L11.983 6.4l-.133-.331L14.527 5l.133.33Zm.535 1.427-2.677 1.07-.133-.33 2.677-1.071.133.331Zm.535 1.428-2.677 1.07-.132-.33 2.677-1.072.132.332Zm.357 1.25-2.677 1.07-.132-.332 2.677-1.07.132.331Zm.536 1.248-2.677 1.071-.133-.331 2.677-1.071.133.331Zm.535 1.428-2.677 1.07-.132-.33 2.677-1.071.132.331Zm.714 1.428-2.677 1.07-.133-.33 2.677-1.072.133.332Z" clip-rule="evenodd"/><path fill="#000" fill-rule="evenodd" d="M13.142 3.61c-.166-.01-.367.029-.634.118h-.002l-1.787.537-.103-.342 1.782-.535c.28-.092.532-.15.766-.134.244.015.456.107.65.287.19.174.362.43.538.768.178.34.366.777.586 1.325.14.351.49 1.298.957 2.559.29.786.627 1.694.986 2.656.935 2.51 2.025 5.39 2.874 7.454a.903.903 0 0 1-.074.876c-.159.245-.426.447-.73.619-.481.273-1.114.503-1.705.717-.154.056-.304.11-.448.165a.178.178 0 0 1-.126-.335l.47-.172c.587-.213 1.18-.43 1.633-.686.287-.162.494-.329.606-.502a.548.548 0 0 0 .044-.546c-.852-2.07-1.944-4.956-2.879-7.465-.361-.97-.699-1.881-.99-2.669-.464-1.254-.81-2.191-.95-2.539-.218-.545-.402-.969-.57-1.292-.17-.325-.319-.538-.463-.67a.668.668 0 0 0-.431-.194Z" clip-rule="evenodd"/><path fill="#000" fill-rule="evenodd" d="M16.807 19.909 11.124 4.523a.357.357 0 0 0-.616-.097l-6.715 8.547a.357.357 0 0 0 .108.533L16.3 20.345c.29.16.622-.126.508-.436Zm-5.348-15.51a.714.714 0 0 0-1.231-.194l-6.716 8.547a.714.714 0 0 0 .217 1.066l12.398 6.84c.58.319 1.244-.253 1.015-.873L11.459 4.399Z" clip-rule="evenodd"/><path fill="#fff" d="M11.56 14.623a1.07 1.07 0 1 1-2.142 0 1.07 1.07 0 0 1 2.142 0Z"/><path fill="#000" fill-rule="evenodd" d="M10.489 15.337a.714.714 0 1 0 0-1.428.714.714 0 0 0 0 1.428Zm0 .357a1.07 1.07 0 1 0 0-2.141 1.07 1.07 0 0 0 0 2.141Z" clip-rule="evenodd"/><path fill="#fff" d="M11.56 8.734c0 1.189-.094 3.12-.46 3.675-.18.273-.388.43-.611.43-.223 0-.432-.157-.612-.43-.366-.556-.459-2.664-.459-3.853 0-1.775.395-2.142 1.07-2.142.677 0 1.072.546 1.072 2.32Z"/><path fill="#000" fill-rule="evenodd" d="M10.008 7c-.131.224-.233.675-.233 1.556 0 .587.023 1.4.09 2.13.035.367.079.706.136.982.059.29.123.467.174.545.156.236.27.269.314.269.043 0 .158-.033.313-.27.054-.08.117-.25.176-.52.056-.26.1-.575.134-.918.068-.685.09-1.453.09-2.04 0-.876-.1-1.384-.242-1.663a.555.555 0 0 0-.202-.238.51.51 0 0 0-.27-.062c-.139 0-.232.02-.3.051a.406.406 0 0 0-.18.178Zm1.093 5.409c.365-.556.458-2.486.458-3.675 0-1.774-.394-2.32-1.07-2.32s-1.071.367-1.071 2.142c0 1.189.093 3.298.459 3.853.18.273.389.43.612.43.223 0 .432-.157.612-.43Z" clip-rule="evenodd"/></g><defs><clipPath id="a"><path fill="#fff" d="M0 0h24v24H0z"/></clipPath></defs></svg>