<svg xmlns="http://www.w3.org/2000/svg" viewBox="0 0 24 24" fill="none"><path fill="currentColor" fill-rule="evenodd" d="M12.004 9.667a2.667 2.667 0 1 0 0-5.334 2.667 2.667 0 0 0 0 5.334Zm0 1.333a4 4 0 1 0 0-8 4 4 0 0 0 0 8Z" clip-rule="evenodd"/><path fill="currentColor" fill-rule="evenodd" d="M12 10.333c.368 0 .667.299.667.667v1.619h8.666a.667.667 0 1 1 0 1.333h-2v2.381a.667.667 0 0 1-1.333 0v-2.38H6v2.38a.667.667 0 0 1-1.333 0v-2.38h-2a.667.667 0 0 1 0-1.334h8.666v-1.62c0-.367.299-.666.667-.666Z" clip-rule="evenodd"/><path fill="currentColor" fill-rule="evenodd" d="M5.336 20.333a1.333 1.333 0 1 0 0-2.667 1.333 1.333 0 0 0 0 2.667Zm0 1.334a2.667 2.667 0 1 0 0-5.334 2.667 2.667 0 0 0 0 5.334ZM18.666 20.333a1.333 1.333 0 1 0 0-2.666 1.333 1.333 0 0 0 0 2.666Zm0 1.334a2.667 2.667 0 1 0 0-5.334 2.667 2.667 0 0 0 0 5.334ZM12.004 20.333a1.333 1.333 0 1 0 0-2.666 1.333 1.333 0 0 0 0 2.666Zm0 1.334a2.667 2.667 0 1 0 0-5.334 2.667 2.667 0 0 0 0 5.334Z" clip-rule="evenodd"/><path stroke="currentColor" stroke-linecap="round" stroke-width=".91" d="M12.005 13.666V17"/></svg>