<svg xmlns="http://www.w3.org/2000/svg" fill="none" viewBox="0 0 16 16"><mask id="a" width="12" height="14" x="2" y="1" maskUnits="userSpaceOnUse" style="mask-type:alpha"><path fill="#000" d="M12.75 7.254a.5.5 0 1 1-1 0 .5.5 0 0 1 1 0M4.25 8.756a.5.5 0 1 1-1 0 .5.5 0 0 1 1 0M4.25 11.856a.5.5 0 1 1-1 0 .5.5 0 0 1 1 0M12.75 4.248a.5.5 0 1 1-1 0 .5.5 0 0 1 1 0"/><path fill="#000" d="M3.25 8.75a.5.5 0 0 0 1 0h-1m2.625-6.5v-.5zm6.875 5a.5.5 0 0 0-1 0h1m-9 1.5h.5V4.267h-1V8.75zm0-4.483h.5c0-.394.164-.777.467-1.064l-.345-.362-.344-.363a2.47 2.47 0 0 0-.778 1.789zm.622-1.426.345.362c.303-.287.719-.453 1.158-.453v-1c-.688 0-1.353.26-1.847.728zm1.503-.591v.5c.44 0 .855.166 1.158.453l.345-.362.344-.363a2.68 2.68 0 0 0-1.847-.728zm1.503.59-.345.363c.303.287.467.67.467 1.064h1c0-.676-.283-1.32-.778-1.789zM8 4.268h-.5v7.466h1V4.267zm0 7.466h-.5c0 .44.063.786.215 1.09.148.296.363.509.563.699l.344-.363.345-.362c-.198-.188-.295-.296-.358-.422-.06-.119-.109-.296-.109-.642zm.622 1.426-.344.363a2.68 2.68 0 0 0 1.847.728v-1c-.44 0-.855-.166-1.158-.453zm1.503.591v.5c.688 0 1.353-.26 1.847-.728l-.344-.363-.345-.362c-.303.287-.719.453-1.158.453zm1.503-.59.344.362c.495-.47.778-1.113.778-1.789h-1c0 .394-.165.777-.467 1.064zm.622-1.427h.5V7.25h-1v4.483zm.5-4.479h-.5v1a1 1 0 0 0 1-1zm-.5.5v-.5h-1a1 1 0 0 0 1 1zm-.5-.5h.5v-1a1 1 0 0 0-1 1zm.5-.5v.5h1a1 1 0 0 0-1-1zm-8 2.002h-.5v1a1 1 0 0 0 1-1zm-.5.5v-.5h-1a1 1 0 0 0 1 1zm-.5-.5h.5v-1a1 1 0 0 0-1 1zm.5-.5v.5h1a1 1 0 0 0-1-1zm.5 3.6h-.5v1a1 1 0 0 0 1-1zm-.5.5v-.5h-1a1 1 0 0 0 1 1zm-.5-.5h.5v-1a1 1 0 0 0-1 1zm.5-.5v.5h1a1 1 0 0 0-1-1zm9-7.108h-.5v1a1 1 0 0 0 1-1zm-.5.5v-.5h-1a1 1 0 0 0 1 1zm-.5-.5h.5v-1a1 1 0 0 0-1 1zm.5-.5v.5h1a1 1 0 0 0-1-1z"/></mask><g mask="url(#a)"><path fill="currentColor" d="M0 0h16v16H0z"/></g></svg>