<svg xmlns="http://www.w3.org/2000/svg" viewBox="0 0 33 33"><path fill="currentColor" fill-rule="evenodd" d="M21.863 28.473a.5.5 0 0 1 0-1h.886c-1.042-.686-2.092-1.581-3.029-2.532-1.264-1.283-2.358-2.705-2.961-3.911l-.224-.448.894-.447.224.447c.54 1.08 1.559 2.418 2.78 3.657 1.082 1.1 2.295 2.092 3.43 2.748v-1.514a.5.5 0 0 1 1 0v2.5a.5.5 0 0 1-.5.5h-2.5Zm-7.897-12.494-3.413-3.413a1 1 0 0 0-1.414 0L5.726 15.98a1 1 0 0 0 0 1.414l3.413 3.413a1 1 0 0 0 1.414 0l3.413-3.413a1 1 0 0 0 0-1.414Zm-4.12-2.705 3.413 3.412L9.846 20.1l-3.412-3.413 3.412-3.412Zm16.466 1.506a.5.5 0 0 0-.605.796l.8.608h-9.801v1h9.805l-.804.613a.5.5 0 1 0 .606.795l1.982-1.51a.5.5 0 0 0 0-.796l-1.983-1.506Zm-2.48-8.332v1.514a.5.5 0 1 0 1 0v-2.5a.5.5 0 0 0-.5-.5h-2.5a.5.5 0 1 0 0 1h.886c-1.043.686-2.092 1.58-3.029 2.531-1.264 1.283-2.359 2.705-2.962 3.912l-.223.447.894.447.224-.447c.54-1.08 1.558-2.418 2.78-3.657 1.082-1.099 2.295-2.092 3.43-2.747Z" clip-rule="evenodd"/></svg>