<svg viewBox="0 0 14 14" fill="none" xmlns="http://www.w3.org/2000/svg"><path fill-rule="evenodd" clip-rule="evenodd" d="M.488 2.254c.05.03.104.058.16.085.365.179.879.334 1.497.461 1.24.257 2.942.414 4.816.414 1.874 0 3.576-.157 4.816-.414.618-.127 1.132-.282 1.497-.46l.098-.051-1.072 9.87a.252.252 0 0 1-.044.055c-.052.052-.139.113-.27.177-.262.128-.654.25-1.155.353-1 .207-2.392.337-3.935.337-1.543 0-2.934-.13-3.934-.337-.502-.104-.894-.225-1.156-.353a1.012 1.012 0 0 1-.27-.177.23.23 0 0 1-.047-.063l-1-9.897Zm12.935-.512a.35.35 0 0 0 .009-.01l.002-.017.013.001c.045-.053.053-.089.053-.109 0-.023-.01-.068-.077-.135a1.255 1.255 0 0 0-.336-.22c-.318-.157-.793-.303-1.396-.428C10.487.575 8.815.42 6.96.42c-1.854 0-3.526.156-4.73.405-.604.125-1.078.271-1.396.427-.16.078-.27.154-.336.221-.06.06-.075.103-.077.128l.003.032a.263.263 0 0 0 .074.11c.066.068.176.143.336.221.318.156.792.302 1.396.427 1.204.25 2.876.405 4.73.405 1.854 0 3.526-.156 4.73-.405.603-.125 1.078-.271 1.396-.427.16-.078.27-.153.336-.221Zm.499-.135a.542.542 0 0 1-.083.283l-1.111 10.236h.004a.545.545 0 0 1-.175.381 1.42 1.42 0 0 1-.385.26c-.308.15-.74.28-1.255.388-1.036.214-2.458.345-4.02.345-1.564 0-2.986-.131-4.021-.345-.517-.107-.948-.237-1.256-.388a1.42 1.42 0 0 1-.385-.26.627.627 0 0 1-.145-.217H1.08l-.006-.055a.458.458 0 0 1-.013-.11h.002L.008 1.698A.508.508 0 0 1 0 1.607c0-.17.084-.313.198-.428a1.66 1.66 0 0 1 .45-.304c.365-.178.879-.333 1.497-.461C3.385.157 5.087 0 6.96 0c1.874 0 3.576.157 4.816.414.618.128 1.132.283 1.497.461.182.09.337.19.45.304a.613.613 0 0 1 .198.428Zm-6.43 4.086a.21.21 0 0 0-.414-.08L6.3 9.559a.21.21 0 0 0 .414.08l.778-3.946Zm1.504.211a.212.212 0 0 1 .298-.01l1.555 1.448c.084.078.09.208.012.293l-1.555 1.71a.212.212 0 0 1-.298.015.209.209 0 0 1-.015-.296l1.416-1.557L9.006 6.2a.209.209 0 0 1-.01-.297Zm-4.501-.006a.212.212 0 0 1 .298.003.209.209 0 0 1-.003.296L3.383 7.564 4.796 9.06a.209.209 0 0 1-.01.296.212.212 0 0 1-.298-.009L2.934 7.701a.209.209 0 0 1 .006-.293l1.555-1.51Z" fill="currentColor"/></svg>