<svg xmlns="http://www.w3.org/2000/svg" fill="none" viewBox="0 0 19 19"><path stroke="currentColor" stroke-linecap="round" stroke-linejoin="round" d="M6.5 18.5H2.1c-.56 0-.84 0-1.054-.109a1 1 0 0 1-.437-.437C.5 17.74.5 17.46.5 16.9V2.1c0-.56 0-.84.109-1.054a1 1 0 0 1 .437-.437C1.26.5 1.54.5 2.1.5h2.8c.56 0 .84 0 1.054.109a1 1 0 0 1 .437.437C6.5 1.26 6.5 1.54 6.5 2.1v2.4m0 14h6m-6 0v-14m0 0h4.4c.56 0 .84 0 1.054.109a1 1 0 0 1 .437.437c.109.214.109.494.109 1.054v12.4m0-10h4.4c.56 0 .84 0 1.054.109a1 1 0 0 1 .437.437c.109.214.109.494.109 1.054v6.8c0 .56 0 .84-.109 1.054a1 1 0 0 1-.437.437c-.214.109-.494.109-1.054.109h-4.4"/></svg>