<svg viewBox="0 0 12 14" fill="currentColor" xmlns="http://www.w3.org/2000/svg"><path fill-rule="evenodd" clip-rule="evenodd" d="M.696 8.229V2.483c0-.41.223-.786.581-.984L4.974.66 4.968.65l.47-.108c.175-.096.37-.142.563-.139.193-.003.387.043.561.14l.47.107-.005.008 3.697.84c.359.198.582.574.582.984v5.68l-.001.066c-.028 1.426-.962 2.734-1.988 3.657-.53.477-1.242.873-1.789 1.153-.216.111-.435.208-.65.283-.298.11-.59.177-.857.177H5.98c-.267 0-.559-.066-.857-.177a5.307 5.307 0 0 1-.65-.283c-.547-.28-1.259-.676-1.789-1.153C1.658 10.963.724 9.655.696 8.229Zm3.972 3.968c.452.25.927.433 1.333.433.405 0 .88-.182 1.332-.433.466-.259 1.036-.62 1.486-1.04.662-.619 1.332-1.481 1.586-2.41.058-.25.09-.505.09-.76V3.134c.041-.71-.109-.868-.441-.936l-3.492-.843-.102-.023a.959.959 0 0 0-.92 0l-.101.023-3.492.843c-.332.068-.482.227-.441.936v4.853c0 .255.032.51.09.76.254.928.925 1.791 1.586 2.41.45.42 1.02.781 1.486 1.04ZM8.91 5.336a.5.5 0 1 0-.707-.707L5.2 7.632 4.043 6.475a.5.5 0 0 0-.707.707L5.2 9.046l3.71-3.71Z"/></svg>