<svg viewBox="0 0 16 16" fill="none" xmlns="http://www.w3.org/2000/svg"><path fill-rule="evenodd" clip-rule="evenodd" d="M6.814 7.597 8.49 4.691 6.814 1.786H3.46L1.785 4.69l1.676 2.906h3.353Zm2.36-3.293L9.17 4.3 7.493 1.393A.785.785 0 0 0 6.813 1H3.462c-.28 0-.54.15-.68.393L1.105 4.299a.786.786 0 0 0 0 .785L2.781 7.99l.006.01-.006.01-1.676 2.906a.786.786 0 0 0 0 .785l1.676 2.906c.14.243.4.393.68.393h3.353c.28 0 .54-.15.68-.393l1.676-2.906.008-.014h3.361c.28 0 .54-.15.68-.393l1.676-2.905a.786.786 0 0 0 0-.786l-1.676-2.906a.785.785 0 0 0-.68-.393H9.173Zm-2.36 9.91L8.49 11.31 6.814 8.403H3.46l-1.676 2.906 1.676 2.905h3.353Zm7.401-6.218L12.539 10.9H9.186L7.51 7.996 9.186 5.09h3.353l1.676 2.906Z" fill="currentColor"/><circle cx="12.5" cy="10.5" r="2.5" fill="#fff"/><circle cx="12.5" cy="10.5" r="2.5" fill-opacity=".05"/><path d="M12.604 10.112a.792.792 0 1 1 .257 1.563.792.792 0 0 1-.257-1.563Z" stroke="currentColor" stroke-width=".8" stroke-linecap="round" stroke-linejoin="round"/><path d="m14.787 10.986-.172.737.458.392-.435.607-.516-.313-.657.406-.061.644-.51.083-.267-.598-.736-.178-.38.468-.606-.436.302-.528-.395-.646-.642-.043-.085-.521.598-.273.177-.737-.467-.378.435-.607.53.304.633-.39.055-.648.52-.086.26.596.737.173c.102-.1.392-.461.392-.461l.606.436-.312.52.4.643.648.06.084.515-.594.26Z" stroke="currentColor" stroke-width=".8" stroke-linecap="round" stroke-linejoin="round"/></svg>