<svg viewBox="0 0 16 16" fill="currentColor" xmlns="http://www.w3.org/2000/svg"><path fill-rule="evenodd" clip-rule="evenodd" d="M5.556 2.723c-1.303.395-2.412.755-2.463.802-.086.078-.093.287-.093 2.94 0 3.202-.002 3.18.38 3.89.61 1.13 1.866 2.21 3.824 3.282.473.259.718.363.855.363s.382-.104.855-.363c1.957-1.073 3.214-2.151 3.823-3.282.383-.71.38-.688.38-3.89 0-2.653-.006-2.862-.093-2.94C12.926 3.435 8.182 1.99 8.021 2c-.053.003-1.162.328-2.465.723Zm4.34.544 2.143.64.386.115v2.57c0 2.144-.013 2.621-.082 2.886-.283 1.091-1.728 2.45-3.763 3.537l-.513.274-.364-.184a17.018 17.018 0 0 1-1.921-1.187c-.605-.448-1.445-1.31-1.705-1.75-.38-.644-.385-.68-.385-3.575V4.026l.28-.083c.154-.046 1.106-.333 2.117-.64 1.01-.305 1.885-.557 1.943-.559.059-.002.897.233 1.864.523ZM7.633 4.356v.448l-.247.062c-.818.206-1.308.795-1.313 1.578-.005.788.462 1.265 1.654 1.694.525.188.668.267.831.462a.53.53 0 0 1 .082.591c-.205.383-1.335.408-2.085.046a1.633 1.633 0 0 0-.252-.107c-.018 0-.091.23-.163.51-.128.507-.128.512-.025.588.147.108.568.228 1.052.3l.413.061v.884h.905v-.951l.28-.082c1.097-.32 1.627-1.344 1.203-2.322-.195-.448-.564-.727-1.377-1.04-.674-.261-.873-.367-1.006-.536-.16-.203-.143-.398.051-.584.16-.153.175-.156.733-.154.485.002.616.022.896.138l.327.136.137-.509c.105-.389.122-.518.072-.55-.136-.09-.61-.212-.928-.24l-.33-.03-.016-.405-.016-.406-.439-.015-.44-.016v.449Z"/></svg>