<svg xmlns="http://www.w3.org/2000/svg" fill="none" viewBox="0 0 24 24"><path fill="currentColor" fill-rule="evenodd" d="M5.51 6.494c0-.435.353-.787.787-.787h9.046a.787.787 0 0 0 0-1.573H6.297a2.36 2.36 0 0 0-2.36 2.36v11.012a2.36 2.36 0 0 0 2.36 2.36H17.31a2.36 2.36 0 0 0 2.36-2.36V12a.787.787 0 0 0-1.574 0v5.506a.786.786 0 0 1-.787.786H6.297a.787.787 0 0 1-.786-.786zm14.322.949a.787.787 0 1 0-1.112-1.112l-7.31 7.31-3.085-3.305a.787.787 0 1 0-1.112 1.112l4.197 4.417z" clip-rule="evenodd"/></svg>