<svg xmlns="http://www.w3.org/2000/svg" fill="none" viewBox="0 0 19 18"><path fill="currentColor" fill-rule="evenodd" d="M10.01.33a1.125 1.125 0 0 0-1.59 0L5.661 3.087c-.44.44-.44 1.152 0 1.591l2.757 2.758c.44.44 1.152.44 1.591 0l2.758-2.758c.44-.44.44-1.151 0-1.59zM8.95.86a.375.375 0 0 1 .53 0l2.758 2.758a.375.375 0 0 1 0 .53L9.48 6.906a.375.375 0 0 1-.53 0L6.192 4.148a.375.375 0 0 1 0-.53zM2.155 9.75v2.989h-.75V9.562c0-.31.252-.562.563-.562h14.798c.31 0 .562.252.562.562v3.177h-.75v-2.99H9.742v2.99h-.75v-2.99H2.155Zm7.313 5.542a.915.915 0 1 0 0 1.83.915.915 0 0 0 0-1.83m-1.665.915a1.665 1.665 0 1 1 3.33 0 1.665 1.665 0 0 1-3.33 0m8.235 0a.915.915 0 1 1 1.83 0 .915.915 0 0 1-1.83 0m.915-1.665a1.665 1.665 0 1 0 0 3.33 1.665 1.665 0 0 0 0-3.33m-15.288.75a.915.915 0 1 0 0 1.83.915.915 0 0 0 0-1.83M0 16.207a1.665 1.665 0 1 1 3.33 0 1.665 1.665 0 0 1-3.33 0" clip-rule="evenodd"/></svg>