<svg viewBox="0 0 24 24" xmlns="http://www.w3.org/2000/svg"><path fill-rule="evenodd" clip-rule="evenodd" d="M12.297 3.734a.5.5 0 0 0-.509-.002L5.373 7.505l6.595 3.91 6.66-3.915-6.33-3.766zm6.814 4.643l-6.644 3.906v7.607l6.395-3.721a.5.5 0 0 0 .249-.432v-7.36zm-7.644 11.51V12.28L4.89 8.38v7.358a.5.5 0 0 0 .247.432l6.33 3.715zM11.28 2.87a1.5 1.5 0 0 1 1.527.004l7.058 4.2a.5.5 0 0 1 .245.429v8.234a1.5 1.5 0 0 1-.746 1.296l-7.147 4.159a.5.5 0 0 1-.505-.001L4.63 17.033a1.5 1.5 0 0 1-.74-1.294V7.503a.5.5 0 0 1 .246-.431l7.145-4.202z" fill="currentColor"/></svg>