<svg xmlns="http://www.w3.org/2000/svg"  version="1.2" viewBox="0 0 1565 1559"><defs><clipPath id="a" clipPathUnits="userSpaceOnUse"><path d="M.24 0h6893.02v1558.22H.24z"/></clipPath></defs><g clip-path="url(#a)"><path fill-rule="evenodd" d="M522.63 807.57c-7 22.5-22.19 42.49-44.56 55.27l-331.35 189.85c-46.8 26.7-106.42 10.87-133.28-35.31-27.03-46.44-11.12-105.52 35.64-132.3l185.18-105.91L49.08 672.98c-46.76-26.74-62.75-85.83-35.64-132.1 26.86-46.3 86.48-62.18 133.28-35.48l331.35 189.73c23.3 13.33 38.87 34.47 45.41 58.11 2.2 7.6 3.18 15.2 3.56 22.84.26 10.52-1.1 21.18-4.41 31.49m89.91 177.81c50.46 3.6 90.3 45.46 90.3 96.39v379.59c0 53.53-43.79 96.86-97.55 96.86-54.02 0-97.64-43.33-97.64-96.86v-212.31l-185.81 106.24c-46.59 26.91-106.17 10.99-133.24-35.23-26.9-46.31-10.99-105.69 35.69-132.43L555.9 998.02c17.82-10.31 37.59-14.26 56.64-12.64m339.63-412.53c-50.58-3.7-90.34-45.63-90.34-96.52V96.69c0-53.35 43.54-96.69 97.6-96.69 54.01 0 97.64 43.34 97.64 96.69v212.44l185.68-106.41c46.68-26.74 106.29-10.87 133.2 35.36 26.85 46.48 11.03 105.6-35.69 132.34L1008.69 560.2c-17.82 10.18-37.55 14.17-56.52 12.65M224.29 370.42c-46.68-26.74-62.59-85.86-35.69-132.34 27.07-46.23 86.65-62.1 133.24-35.36l185.81 106.41V96.69C507.65 43.34 551.27 0 605.29 0c53.76 0 97.55 43.34 97.55 96.69v379.64c0 50.89-39.84 92.82-90.3 96.52-19.05 1.52-38.82-2.47-56.64-12.65zm595.54 582.32c-3.95 4.03-11.55 7.3-17.32 7.3h-40.52c-5.56 0-13.28-3.27-17.31-7.3L606.94 816.27c-3.94-3.86-7.13-11.59-7.13-17.02v-40.28c0-5.56 3.19-13.28 7.13-17.19l137.74-136.51c4.03-3.98 11.75-7.17 17.31-7.17h40.52c5.65 0 13.37 3.19 17.32 7.17l137.82 136.51c3.94 3.91 7.12 11.63 7.12 17.19v40.28c0 5.43-3.18 13.16-7.12 17.02zm27.66-174.37c0-5.52-3.35-13.2-7.3-17.28l-39.93-39.39c-3.9-3.9-11.66-7.13-17.22-7.13h-1.57c-5.56 0-13.28 3.23-17.15 7.13l-39.92 39.39c-3.99 4.08-7.05 11.76-7.05 17.28v1.57c0 5.43 3.06 13.03 7.05 17.02l39.92 39.47c3.91 3.91 11.59 7.13 17.15 7.13h1.57c5.56 0 13.32-3.22 17.22-7.13l39.93-39.47c3.95-3.99 7.3-11.59 7.3-17.02zm492.77 409.26c46.72 26.74 62.54 86.12 35.69 132.43-26.91 46.22-86.57 62.14-133.2 35.23l-185.68-106.24v212.31c0 53.53-43.63 96.86-97.64 96.86-54.06 0-97.6-43.33-97.6-96.86v-379.59c0-50.93 39.76-92.79 90.34-96.39 18.97-1.62 38.7 2.33 56.52 12.64zm-9.89-408.46 185.18 105.91c46.76 26.78 62.76 85.86 35.73 132.3-26.99 46.18-86.69 62.01-133.28 35.31l-331.61-189.85c-22.15-12.78-37.47-32.77-44.3-55.27-3.23-10.31-4.76-20.97-4.37-31.49.17-7.64 1.31-15.24 3.43-22.84 6.62-23.64 22.2-44.78 45.24-58.11L1418 505.4c46.59-26.7 106.29-10.82 133.28 35.48 27.03 46.27 11.03 105.36-35.73 132.1z" style="fill:#29b5e8"/></g></svg>