<svg xmlns="http://www.w3.org/2000/svg" fill="none" viewBox="0 0 24 24"><g fill="currentColor" opacity=".12"><path d="M21.06 6.44a1.5 1.5 0 1 1-2.121 2.12 1.5 1.5 0 0 1 2.122-2.12M5.06 9.44a1.5 1.5 0 1 1-2.12 2.12 1.5 1.5 0 0 1 2.12-2.12M13.06 3.44a1.5 1.5 0 1 1-2.121 2.12 1.5 1.5 0 0 1 2.122-2.12"/></g><path stroke="currentColor" stroke-linecap="round" stroke-linejoin="round" stroke-width="2" d="M20 20v-7m-8 7V10M4 20v-4m9.407-10.972 5.168 1.938M10.8 5.4 5.2 9.6m15.86-3.16a1.5 1.5 0 1 1-2.121 2.12 1.5 1.5 0 0 1 2.122-2.12m-16 3a1.5 1.5 0 1 1-2.12 2.12 1.5 1.5 0 0 1 2.12-2.12m8-6a1.5 1.5 0 1 1-2.121 2.12 1.5 1.5 0 0 1 2.122-2.12"/></svg>