<svg viewBox="0 0 168 56" fill="none" xmlns="http://www.w3.org/2000/svg"><path d="M35.8 41.19c0 .346.28.625.624.625h10.43v-.006a8.224 8.224 0 00.355-16.413.685.685 0 01-.615-.536c-1.14-5.348-5.892-9.36-11.581-9.36-6.54 0-11.842 5.302-11.842 11.842 0 .069-.05.128-.117.142a7.237 7.237 0 001.433 14.332h8.325c.346 0 .625-.28.625-.626v-1.96a.659.659 0 00-.544-.637c-1.302-.25-2.416-.787-3.178-1.556-.683-.687-1.09-1.54-1.216-2.54-.044-.346.243-.631.592-.63l1.392.007c.334.002.6.269.676.594.32 1.366 1.557 2.266 3.389 2.275.713.003 3.375-.33 3.383-2.17.007-1.471-1.927-2.03-3.757-2.48-.312-.078-.63-.156-.947-.242-2.07-.55-4.26-1.178-4.248-3.827.012-2.572 2.178-3.899 4.458-4.17v-2.466c0-.345.28-.625.625-.625h1.11c.345 0 .625.28.625.625v2.534c1.645.265 3.86 1.098 4.236 3.634.051.348-.238.64-.59.638l-1.398-.006c-.322-.002-.58-.25-.676-.557-.363-1.158-1.5-1.86-3.166-1.868-1.107-.005-2.713.583-2.72 1.925-.005 1.217.926 1.632 4.402 2.53l.46.117.185.045c1.324.32 4.04.975 4.027 3.887-.01 2.299-1.581 3.871-4.206 4.339a.658.658 0 00-.552.638v1.946z" fill="url(#paint0_linear)"/><path d="M69.72 19.253c-.314-2.262-2.054-3.574-4.311-3.574-2.66 0-4.663 1.939-4.663 5.23 0 3.286 1.978 5.23 4.663 5.23 2.421 0 4.027-1.566 4.31-3.51l-1.859-.01c-.234 1.194-1.208 1.865-2.426 1.865-1.65 0-2.834-1.238-2.834-3.575 0-2.297 1.173-3.575 2.839-3.575 1.238 0 2.207.701 2.421 1.92h1.86zM73.129 15.818h-1.8V26h1.8V15.818zM78.31 26.15c2.237 0 3.66-1.577 3.66-3.938 0-2.367-1.422-3.948-3.66-3.948-2.237 0-3.659 1.581-3.659 3.948 0 2.361 1.422 3.937 3.66 3.937zm.01-1.443c-1.238 0-1.844-1.103-1.844-2.5s.606-2.516 1.844-2.516c1.218 0 1.825 1.119 1.825 2.516s-.607 2.5-1.825 2.5zM88.364 22.788c0 1.164-.83 1.74-1.626 1.74-.865 0-1.441-.611-1.441-1.58v-4.584h-1.8v4.862c0 1.834 1.044 2.873 2.545 2.873 1.144 0 1.95-.601 2.297-1.456h.08V26h1.745v-7.636h-1.8v4.424zM94.848 26.134c1.313 0 1.904-.78 2.188-1.337h.11V26h1.769V15.818H97.11v3.808h-.074c-.274-.551-.835-1.362-2.183-1.362-1.765 0-3.152 1.382-3.152 3.928 0 2.515 1.348 3.942 3.147 3.942zm.502-1.476c-1.188 0-1.814-1.044-1.814-2.476 0-1.422.616-2.441 1.814-2.441 1.159 0 1.795.96 1.795 2.44 0 1.482-.646 2.477-1.795 2.477zM113.1 19.253c-.313-2.262-2.053-3.574-4.31-3.574-2.66 0-4.664 1.939-4.664 5.23 0 3.286 1.979 5.23 4.664 5.23 2.421 0 4.027-1.566 4.31-3.51l-1.859-.01c-.234 1.194-1.208 1.865-2.426 1.865-1.651 0-2.834-1.238-2.834-3.575 0-2.297 1.173-3.575 2.839-3.575 1.238 0 2.207.701 2.421 1.92h1.859zM118.041 26.15c2.237 0 3.659-1.577 3.659-3.938 0-2.367-1.422-3.948-3.659-3.948-2.238 0-3.659 1.581-3.659 3.948 0 2.361 1.421 3.937 3.659 3.937zm.01-1.443c-1.238 0-1.845-1.103-1.845-2.5s.607-2.516 1.845-2.516c1.218 0 1.824 1.119 1.824 2.516s-.606 2.5-1.824 2.5zM129.263 20.382c-.249-1.293-1.283-2.118-3.073-2.118-1.839 0-3.092.905-3.087 2.317-.005 1.114.681 1.85 2.148 2.153l1.302.273c.701.154 1.029.438 1.029.87 0 .522-.566.915-1.421.915-.826 0-1.363-.358-1.517-1.044l-1.755.169c.224 1.402 1.402 2.232 3.277 2.232 1.909 0 3.256-.99 3.261-2.436-.005-1.089-.706-1.755-2.148-2.068l-1.302-.279c-.776-.174-1.084-.442-1.079-.884-.005-.517.567-.875 1.317-.875.831 0 1.268.452 1.407.954l1.641-.179zM134.724 18.364h-1.506v-1.83h-1.8v1.83h-1.084v1.392h1.084V24c-.01 1.437 1.034 2.143 2.386 2.103a3.62 3.62 0 001.059-.179l-.303-1.407c-.099.025-.303.07-.527.07-.452 0-.815-.159-.815-.885v-3.947h1.506v-1.392zM61.004 30.818V41h1.77v-7.01h.094l2.814 6.98h1.323l2.814-6.965h.094V41h1.77V30.818h-2.257l-3.023 7.378h-.119l-3.023-7.378h-2.257zM75.81 41.154c1.198 0 1.914-.562 2.242-1.203h.06V41h1.73v-5.11c0-2.02-1.646-2.626-3.103-2.626-1.606 0-2.839.716-3.236 2.108l1.68.239c.18-.522.686-.97 1.566-.97.835 0 1.293.428 1.293 1.179v.03c0 .517-.542.541-1.89.685-1.481.16-2.898.602-2.898 2.322 0 1.502 1.099 2.297 2.555 2.297zm.467-1.322c-.75 0-1.288-.343-1.288-1.005 0-.69.602-.979 1.407-1.093.472-.065 1.417-.184 1.65-.373v.9c0 .85-.685 1.57-1.77 1.57zM83.45 36.526c0-1.104.667-1.74 1.617-1.74.93 0 1.486.611 1.486 1.63V41h1.8v-4.862c.005-1.83-1.04-2.874-2.615-2.874-1.144 0-1.93.547-2.277 1.397h-.09v-1.297h-1.72V41h1.8v-4.474zM92.38 41.154c1.198 0 1.914-.562 2.242-1.203h.06V41h1.73v-5.11c0-2.02-1.646-2.626-3.103-2.626-1.605 0-2.838.716-3.236 2.108l1.68.239c.18-.522.686-.97 1.567-.97.835 0 1.292.428 1.292 1.179v.03c0 .517-.542.541-1.89.685-1.48.16-2.898.602-2.898 2.322 0 1.502 1.1 2.297 2.556 2.297zm.467-1.322c-.75 0-1.287-.343-1.287-1.005 0-.69.601-.979 1.406-1.093.473-.065 1.417-.184 1.651-.373v.9c0 .85-.686 1.57-1.77 1.57zM101.542 44.023c2.064 0 3.585-.945 3.585-2.899v-7.76h-1.775v1.262h-.099c-.274-.551-.845-1.362-2.193-1.362-1.765 0-3.152 1.382-3.152 3.893 0 2.49 1.387 3.734 3.147 3.734 1.308 0 1.919-.701 2.198-1.263h.089v1.447c0 1.123-.746 1.585-1.77 1.585-1.083 0-1.561-.512-1.78-.959l-1.62.393c.328 1.069 1.427 1.929 3.37 1.929zm.015-4.544c-1.188 0-1.814-.925-1.814-2.332 0-1.387.616-2.406 1.814-2.406 1.159 0 1.795.96 1.795 2.406 0 1.457-.646 2.332-1.795 2.332zM110.352 41.15c1.78 0 3.003-.87 3.321-2.198l-1.68-.19c-.244.647-.84.985-1.616.985-1.163 0-1.934-.766-1.949-2.073h5.32v-.552c0-2.68-1.611-3.858-3.49-3.858-2.188 0-3.615 1.606-3.615 3.962 0 2.397 1.407 3.923 3.709 3.923zm-1.919-4.69c.055-.974.776-1.794 1.85-1.794 1.034 0 1.73.756 1.74 1.795h-3.59zM115.27 41h1.8v-4.644c0-.94.626-1.575 1.402-1.575.761 0 1.283.512 1.283 1.297V41h1.765v-4.763c0-.86.512-1.456 1.382-1.456.726 0 1.302.427 1.302 1.372V41h1.805v-5.126c0-1.705-.984-2.61-2.386-2.61-1.109 0-1.954.547-2.292 1.397h-.08c-.293-.865-1.034-1.397-2.063-1.397-1.024 0-1.79.527-2.108 1.397h-.09v-1.297h-1.72V41zM131.215 41.15c1.78 0 3.003-.87 3.321-2.198l-1.68-.19c-.244.647-.84.985-1.616.985-1.163 0-1.934-.766-1.949-2.073h5.32v-.552c0-2.68-1.611-3.858-3.49-3.858-2.188 0-3.614 1.606-3.614 3.962 0 2.397 1.407 3.923 3.708 3.923zm-1.919-4.69c.055-.974.776-1.794 1.85-1.794 1.034 0 1.73.756 1.74 1.795h-3.59zM137.933 36.526c0-1.104.666-1.74 1.616-1.74.93 0 1.487.611 1.487 1.63V41h1.799v-4.862c.005-1.83-1.039-2.874-2.615-2.874-1.143 0-1.929.547-2.277 1.397h-.089v-1.297h-1.72V41h1.799v-4.474zM148.478 33.364h-1.506v-1.83h-1.8v1.83h-1.084v1.392h1.084V39c-.01 1.437 1.034 2.143 2.386 2.103a3.62 3.62 0 001.059-.179l-.303-1.407c-.099.025-.303.07-.527.07-.452 0-.815-.159-.815-.885v-3.947h1.506v-1.392z" fill="#fff"/><defs><linearGradient id="paint0_linear" x1="23.277" y1="13.491" x2="40.089" y2="49.837" gradientUnits="userSpaceOnUse"><stop stop-color="#00CFDE"/><stop offset="1" stop-color="#05A660"/></linearGradient></defs></svg>