<svg viewBox="0 0 12 12" fill="currentColor" xmlns="http://www.w3.org/2000/svg"><circle cx="6" cy="4.42" r=".4"/><circle cx="10.8" cy="4.42" r=".4"/><circle cx="6" cy="2.82" r=".4"/><circle cx="10.8" cy="2.82" r=".4"/><circle cx="6" cy="6.02" r=".4"/><circle cx="6" cy="10.82" r=".4"/><circle cx="6" cy="1.22" r=".4"/><circle cx="10.8" cy="6.02" r=".4"/><circle cx="10.8" cy="10.82" r=".4"/><circle cx="10.8" cy="1.22" r=".4"/><circle cx="4.4" cy="6.02" r=".4"/><circle cx="4.4" cy="10.82" r=".4"/><circle cx="4.4" cy="1.22" r=".4"/><circle cx="2.8" cy="6.02" r=".4"/><circle cx="2.8" cy="10.82" r=".4"/><circle cx="2.8" cy="1.22" r=".4"/><circle cx="7.6" cy="6.02" r=".4"/><circle cx="7.6" cy="10.82" r=".4"/><circle cx="7.6" cy="1.22" r=".4"/><circle cx="9.2" cy="6.02" r=".4"/><circle cx="9.2" cy="10.82" r=".4"/><circle cx="9.2" cy="1.22" r=".4"/><circle cx="6" cy="7.62" r=".4"/><circle cx="10.8" cy="7.62" r=".4"/><circle cx="6" cy="9.22" r=".4"/><circle cx="10.8" cy="9.22" r=".4"/><circle cx="1.2" cy="4.42" r=".4"/><circle cx="1.2" cy="2.82" r=".4"/><circle cx="1.2" cy="6.02" r=".4"/><circle cx="1.2" cy="10.82" r=".4"/><circle cx="1.2" cy="1.22" r=".4"/><circle cx="1.2" cy="7.62" r=".4"/><circle cx="1.2" cy="9.22" r=".4"/></svg>