<svg xmlns="http://www.w3.org/2000/svg" fill="none" viewBox="0 0 24 24"><g clip-path="url(#a)"><path fill="#252F3E" d="M3.199 4.797q.001.206.04.33c.03.08.067.17.12.265a.16.16 0 0 1 .025.085q.001.055-.07.111l-.233.155a.2.2 0 0 1-.097.033q-.056 0-.11-.051a1 1 0 0 1-.134-.174 3 3 0 0 1-.115-.218q-.431.51-1.088.51-.466 0-.74-.266t-.274-.71a.95.95 0 0 1 .337-.76q.337-.29.907-.289.188 0 .392.03c.137.018.278.048.426.081v-.27q-.002-.42-.174-.59-.177-.171-.603-.17-.195-.001-.4.047-.205.05-.4.126-.089.038-.13.048a.2.2 0 0 1-.059.011q-.077 0-.077-.114v-.181q-.001-.09.026-.13A.3.3 0 0 1 .87 2.63q.195-.1.467-.167.27-.071.577-.07.659 0 .97.3.306.299.307.908v1.197h.007Zm-1.502.562a1.2 1.2 0 0 0 .38-.067.8.8 0 0 0 .352-.236.6.6 0 0 0 .126-.237c.022-.088.037-.195.037-.32v-.156a3 3 0 0 0-.688-.085q-.37-.001-.552.148t-.181.425q-.001.26.137.391.133.138.389.137m2.971.399q-.097.001-.14-.037c-.03-.022-.056-.074-.078-.144L3.58 2.72a.7.7 0 0 1-.033-.148q0-.09.089-.092h.362q.105-.002.145.037c.03.022.051.074.074.144l.621 2.446.578-2.446q.026-.111.07-.144a.26.26 0 0 1 .148-.037h.296q.105-.002.148.037c.03.022.056.074.07.144l.585 2.475.64-2.475a.3.3 0 0 1 .074-.144.24.24 0 0 1 .145-.037h.344q.091 0 .092.092a.5.5 0 0 1-.033.151L7.103 5.58q-.033.11-.078.144a.24.24 0 0 1-.14.037h-.318q-.105.001-.148-.037-.047-.038-.07-.148l-.574-2.383-.57 2.38q-.027.109-.07.147-.047.038-.149.037zm4.756.1q-.291 0-.57-.067a1.7 1.7 0 0 1-.426-.148.26.26 0 0 1-.115-.103.3.3 0 0 1-.022-.104v-.188q.001-.115.085-.114a.2.2 0 0 1 .067.01q.035.014.092.038.19.084.407.129.22.044.44.044.351 0 .541-.122a.4.4 0 0 0 .193-.35.36.36 0 0 0-.1-.26q-.101-.104-.374-.191l-.537-.167c-.27-.085-.47-.21-.592-.377a.88.88 0 0 1-.085-.945.95.95 0 0 1 .266-.303c.112-.085.237-.148.385-.192s.304-.063.467-.063q.123-.002.248.015c.085.01.162.025.24.04q.11.027.211.06a1 1 0 0 1 .155.066.3.3 0 0 1 .111.092q.034.044.034.122v.174q-.001.117-.085.118a.4.4 0 0 1-.14-.044 1.7 1.7 0 0 0-.711-.144q-.318-.001-.493.103a.36.36 0 0 0-.174.329q0 .156.111.262.112.107.408.203l.525.167q.4.128.574.354a.84.84 0 0 1 .17.517.95.95 0 0 1-.096.43 1 1 0 0 1-.27.324 1.2 1.2 0 0 1-.411.207c-.167.052-.34.078-.53.078Z"/><path fill="#F90" fill-rule="evenodd" d="M10.122 7.653c-1.217.898-2.986 1.375-4.507 1.375A8.16 8.16 0 0 1 .112 6.933C-.003 6.829.1 6.689.238 6.77c1.569.91 3.504 1.46 5.506 1.46 1.35 0 2.835-.281 4.2-.857.204-.093.378.133.178.28" clip-rule="evenodd"/><path fill="#F90" fill-rule="evenodd" d="M10.63 7.076c-.155-.2-1.028-.096-1.424-.048-.119.015-.137-.089-.03-.166.696-.488 1.84-.347 1.973-.185.133.166-.037 1.308-.689 1.855-.1.085-.196.04-.151-.07.148-.366.477-1.19.322-1.386Z" clip-rule="evenodd"/></g><g clip-path="url(#b)"><path fill="#EA4335" d="M19.887 8.09h.343l.978-.977.048-.415a4.396 4.396 0 0 0-7.15 2.144.53.53 0 0 1 .343-.021l1.955-.323s.1-.164.151-.154a2.44 2.44 0 0 1 3.339-.253z"/><path fill="#4285F4" d="M22.6 8.842a4.4 4.4 0 0 0-1.327-2.14l-1.372 1.371c.58.474.91 1.187.895 1.936v.243a1.221 1.221 0 1 1 0 2.443h-2.443l-.244.247v1.465l.244.244h2.443a3.178 3.178 0 0 0 1.805-5.809Z"/><path fill="#34A853" d="M15.907 14.638h2.443v-1.956h-2.443c-.174 0-.347-.037-.505-.11l-.343.106-.985.978-.086.344c.553.416 1.226.64 1.919.638"/><path fill="#FBBC05" d="M15.908 8.293a3.177 3.177 0 0 0-1.918 5.696l1.418-1.418a1.221 1.221 0 1 1 1.615-1.616l1.418-1.417a3.18 3.18 0 0 0-2.533-1.245"/></g><g clip-path="url(#c)"><path fill="#0072C6" d="M6.147 13.887 2.83 16.763 0 21.843h2.552zm.44.673-1.415 3.989 2.714 3.41-5.265.904h8.629L6.588 14.56Z"/></g><defs><clipPath id="a"><path fill="#fff" d="M0 2.344h11.25v6.724H0z"/></clipPath><clipPath id="b"><path fill="#fff" d="M12.75 5.598H24v9.053H12.75z"/></clipPath><clipPath id="c"><path fill="#fff" d="M0 13.887h11.25v8.977H0z"/></clipPath></defs></svg>