<svg viewBox="0 0 16 16" fill="currentColor" xmlns="http://www.w3.org/2000/svg"><path d="M4.842 7.5 7.737 3l2.895 4.5h-5.79Zm5.79 5.5c-.658 0-1.218-.219-1.678-.656a2.114 2.114 0 0 1-.69-1.594c0-.625.23-1.156.69-1.594.46-.438 1.02-.656 1.678-.656.658 0 1.217.219 1.678.656.46.438.69.97.69 1.594 0 .625-.23 1.156-.691 1.594-.46.438-1.02.656-1.677.656ZM3 12.75v-4h4.21v4H3Zm7.632-.75c.368 0 .68-.12.934-.363.254-.241.381-.537.381-.887s-.127-.646-.381-.887a1.306 1.306 0 0 0-.934-.363c-.369 0-.68.12-.935.363a1.177 1.177 0 0 0-.381.887c0 .35.127.646.381.887.255.242.566.363.935.363Zm-6.58-.25h2.106v-2H4.053v2ZM6.712 6.5h2.052L7.737 4.925 6.71 6.5Z"/></svg>