<svg viewBox="0 0 14 12" fill="none" xmlns="http://www.w3.org/2000/svg"><path d="M12.023 7.46c-.336.66-.894 1.234-1.606 1.668l.324 1.066a.401.401 0 0 1-.383.516H9.182a.4.4 0 0 1-.24-.08l-.93-.698H6.387l-.93.698a.4.4 0 0 1-.24.08H4.041a.4.4 0 0 1-.382-.516l.323-1.066C2.79 8.4 2.023 7.276 2.023 6.016c0-2.194 2.318-3.972 5.177-3.972.58 0 1.303.198 1.823.333l3-1-.056 2.419 1.39.581V6.71l-1.284.667M.69 3.377s0 1.6 1.333 2" stroke="currentColor" stroke-width=".8" stroke-linecap="round" stroke-linejoin="round"/><path fill-rule="evenodd" clip-rule="evenodd" d="M7.081 3.615v.326l-.177.046c-.59.15-.942.579-.946 1.149-.003.574.332.922 1.191 1.234.378.137.481.195.599.336a.39.39 0 0 1 .059.431c-.148.28-.962.297-1.502.033a1.167 1.167 0 0 0-.182-.077c-.012 0-.065.167-.116.372-.093.368-.093.372-.019.427.106.079.41.166.758.219l.297.045v.643h.652v-.692l.201-.06c.79-.234 1.172-.98.867-1.691-.14-.327-.406-.53-.992-.759-.485-.19-.629-.267-.724-.39-.115-.148-.103-.29.037-.425.115-.112.125-.114.527-.112.35.001.444.016.645.1l.236.1.099-.371c.076-.284.088-.378.052-.401-.099-.065-.44-.154-.669-.175L7.736 3.9l-.01-.295-.012-.295-.316-.012-.317-.01v.326Z" fill="currentColor"/></svg>