<svg xmlns="http://www.w3.org/2000/svg" fill="none" viewBox="0 0 150 40"><path fill="url(#a)" d="M19.8 33.19c0 .346.28.625.624.625h10.43v-.006a8.224 8.224 0 0 0 .355-16.413.685.685 0 0 1-.615-.536C29.454 11.513 24.7 7.5 19.012 7.5c-6.54 0-11.841 5.302-11.841 11.842 0 .069-.05.128-.117.142a7.237 7.237 0 0 0 1.433 14.332h8.325c.346 0 .625-.28.625-.626v-1.96a.66.66 0 0 0-.544-.637c-1.302-.25-2.416-.787-3.178-1.556-.683-.687-1.09-1.54-1.216-2.54-.044-.346.243-.631.592-.63l1.392.007c.334.002.6.269.676.594.32 1.366 1.557 2.266 3.388 2.275.714.003 3.376-.33 3.384-2.17.007-1.471-1.927-2.03-3.757-2.48q-.47-.115-.947-.241c-2.07-.55-4.26-1.18-4.248-3.828.012-2.572 2.178-3.899 4.458-4.17v-2.466c0-.345.28-.625.625-.625h1.11c.345 0 .625.28.625.625v2.534c1.645.265 3.86 1.098 4.236 3.634.051.348-.238.64-.59.638l-1.399-.006c-.32-.002-.58-.25-.675-.557-.363-1.158-1.5-1.86-3.166-1.868-1.107-.005-2.713.583-2.72 1.925-.005 1.217.926 1.632 4.401 2.53l.46.117.186.045c1.324.32 4.04.975 4.027 3.887-.01 2.299-1.581 3.871-4.206 4.339a.66.66 0 0 0-.552.638z"/><path fill="#000" d="M52.72 11.254h-1.86a2.3 2.3 0 0 0-.293-.81 2.18 2.18 0 0 0-1.258-.98 2.8 2.8 0 0 0-.87-.13q-.83 0-1.472.418-.64.413-1.004 1.213-.363.795-.363 1.944 0 1.168.363 1.969.368.795 1.004 1.203a2.7 2.7 0 0 0 1.467.403q.458 0 .855-.12a2.3 2.3 0 0 0 .72-.363 2.215 2.215 0 0 0 .85-1.382l1.86.01q-.105.726-.452 1.363a4 4 0 0 1-.9 1.123 4.2 4.2 0 0 1-1.302.756 4.9 4.9 0 0 1-1.656.268q-1.343 0-2.396-.621-1.054-.622-1.66-1.795-.607-1.173-.607-2.814 0-1.646.611-2.814.612-1.173 1.666-1.795t2.386-.621q.85 0 1.581.239.73.238 1.303.7.57.458.94 1.124.372.662.486 1.512m3.409-3.436V18h-1.8V7.818zM61.31 18.15q-1.118 0-1.939-.492A3.34 3.34 0 0 1 58.1 16.28q-.448-.886-.448-2.068 0-1.184.448-2.073a3.34 3.34 0 0 1 1.272-1.383q.82-.492 1.94-.492 1.117 0 1.938.492.82.494 1.268 1.383.453.89.453 2.073t-.453 2.068a3.3 3.3 0 0 1-1.268 1.377q-.82.492-1.939.492m.01-1.442q.608 0 1.014-.333.408-.338.607-.904.204-.568.204-1.263 0-.701-.204-1.268a2 2 0 0 0-.607-.91q-.407-.338-1.014-.338-.621 0-1.034.338a2.04 2.04 0 0 0-.611.91 3.8 3.8 0 0 0-.2 1.268q0 .696.2 1.262.204.567.611.905.413.333 1.034.333m10.044-1.919v-4.424h1.8V18h-1.745v-1.357h-.08a2.3 2.3 0 0 1-.85 1.049q-.585.407-1.447.407-.75 0-1.327-.333a2.3 2.3 0 0 1-.895-.98q-.323-.645-.323-1.56v-4.862h1.8v4.583q0 .726.397 1.154.399.427 1.044.427.398 0 .771-.194t.612-.576q.243-.388.243-.97m6.484 3.346a2.9 2.9 0 0 1-1.61-.462q-.711-.462-1.124-1.343-.413-.88-.413-2.137 0-1.273.418-2.148.423-.881 1.138-1.327a2.93 2.93 0 0 1 1.596-.453q.672 0 1.104.229.432.224.686.542.254.314.393.591h.074V7.818h1.805V18h-1.77v-1.203h-.11a3 3 0 0 1-.402.591 2.2 2.2 0 0 1-.696.527q-.432.22-1.089.22m.502-1.476q.573 0 .975-.309.402-.312.611-.87.21-.556.21-1.297t-.21-1.288q-.204-.546-.606-.85-.398-.303-.98-.303-.6 0-1.004.313-.402.313-.606.865a3.6 3.6 0 0 0-.204 1.263q0 .716.204 1.277.209.558.611.88.408.32 1 .319m11.998 1.491q-1.044 0-1.795-.378t-1.158-1.019a2.7 2.7 0 0 1-.403-1.456q0-.613.249-1.084.254-.473.696-.875a10 10 0 0 1 1.034-.8l1.805-1.229q.397-.258.601-.547.21-.288.21-.676 0-.328-.28-.621-.273-.294-.755-.294-.323 0-.572.155-.243.149-.383.392-.134.244-.134.517 0 .333.184.677.189.342.487.71l.647.781L95.558 18H93.61l-3.968-4.544q-.442-.517-.855-1.02a5.4 5.4 0 0 1-.671-1.043 2.7 2.7 0 0 1-.259-1.184q0-.72.334-1.287.332-.572.93-.9.601-.328 1.406-.328.806 0 1.382.318.577.318.89.845t.313 1.149q0 .72-.358 1.292a3.8 3.8 0 0 1-.994 1.03l-2.058 1.506q-.507.368-.726.745-.219.374-.219.637 0 .403.204.73.204.33.572.528.372.194.87.194.546 0 1.079-.244a3.2 3.2 0 0 0 .97-.706q.436-.458.695-1.094.258-.64.259-1.422h1.546q0 .965-.214 1.68a4.3 4.3 0 0 1-.552 1.204 3.5 3.5 0 0 1-.716.78q-.12.085-.228.17-.11.084-.229.168a3.36 3.36 0 0 1-1.258.716 4.6 4.6 0 0 1-1.407.23M101.45 18h-1.97l3.585-10.182h2.277L108.931 18h-1.969l-2.719-8.094h-.08zm.064-3.992h5.369v1.481h-5.369zm10.603-6.19V18h-1.844V7.818zm14.185 3.436h-1.859a2.3 2.3 0 0 0-.293-.81 2.2 2.2 0 0 0-.532-.607 2.2 2.2 0 0 0-.726-.373 2.8 2.8 0 0 0-.87-.13q-.83 0-1.472.418-.64.413-1.004 1.213-.363.795-.363 1.944 0 1.168.363 1.969.368.795 1.004 1.203.642.402 1.467.403.457 0 .855-.12.403-.124.721-.363.323-.238.542-.586.224-.348.308-.796l1.859.01a4 4 0 0 1-.452 1.363 4 4 0 0 1-.9 1.123 4.2 4.2 0 0 1-1.302.756 4.9 4.9 0 0 1-1.656.268q-1.343 0-2.396-.621-1.054-.622-1.661-1.795-.606-1.173-.606-2.814 0-1.646.611-2.814.612-1.173 1.666-1.795t2.386-.621q.85 0 1.581.239.73.238 1.303.7.572.458.939 1.124.373.662.487 1.512m4.941 6.895q-1.119 0-1.939-.492a3.35 3.35 0 0 1-1.273-1.377q-.447-.886-.447-2.068 0-1.184.447-2.073a3.34 3.34 0 0 1 1.273-1.383q.82-.492 1.939-.492t1.939.492q.82.494 1.268 1.383.452.89.452 2.073t-.452 2.068a3.3 3.3 0 0 1-1.268 1.377q-.82.492-1.939.492m.01-1.442q.606 0 1.014-.333a2 2 0 0 0 .607-.904q.204-.568.204-1.263 0-.701-.204-1.268a2 2 0 0 0-.607-.91q-.408-.338-1.014-.338-.621 0-1.034.338a2.04 2.04 0 0 0-.612.91q-.199.566-.199 1.268 0 .696.199 1.262.204.567.612.905.413.333 1.034.333m11.212-4.325-1.64.18a1.3 1.3 0 0 0-.244-.468 1.2 1.2 0 0 0-.457-.353 1.7 1.7 0 0 0-.706-.134q-.562 0-.945.243-.378.243-.373.632a.66.66 0 0 0 .244.541q.253.21.835.344l1.302.278q1.084.234 1.611.74.532.508.537 1.328-.005.72-.422 1.273-.412.547-1.149.855-.736.308-1.69.308-1.402 0-2.257-.587-.855-.59-1.019-1.645l1.755-.17q.118.519.507.781.388.264 1.009.264.64 0 1.029-.264.393-.263.393-.65 0-.33-.254-.543-.249-.213-.775-.328l-1.303-.273q-1.098-.23-1.626-.77-.527-.548-.522-1.383-.004-.705.383-1.223.393-.523 1.089-.805.7-.29 1.616-.289 1.342 0 2.113.572.776.571.959 1.546m5.461-2.018v1.392h-4.389v-1.392zm-3.306-1.83h1.8v7.17q0 .362.109.556a.6.6 0 0 0 .299.258q.183.07.407.07.17 0 .309-.025.144-.024.218-.044l.304 1.406a4 4 0 0 1-.413.11q-.264.06-.646.07a2.9 2.9 0 0 1-1.218-.204 1.9 1.9 0 0 1-.86-.706q-.314-.478-.309-1.194zM44.004 22.818h2.257l3.023 7.378h.12l3.022-7.378h2.257V33h-1.77v-6.995h-.094l-2.814 6.965h-1.323l-2.813-6.98h-.095V33h-1.77zM58.81 33.154q-.726 0-1.308-.258a2.13 2.13 0 0 1-.915-.776q-.333-.512-.333-1.263 0-.645.239-1.069.238-.422.651-.676.413-.253.93-.383.522-.134 1.079-.194.67-.069 1.089-.124.417-.06.606-.179.195-.124.194-.383v-.03q0-.561-.333-.87t-.96-.308q-.66 0-1.049.289-.382.288-.517.68l-1.68-.238q.198-.696.656-1.163.458-.472 1.119-.706.66-.24 1.461-.239.552 0 1.1.13.546.129.998.427.453.294.726.8.279.507.279 1.268V33h-1.73v-1.049h-.06q-.165.318-.462.597-.294.273-.741.442-.443.165-1.04.164m.467-1.322q.542 0 .94-.214a1.6 1.6 0 0 0 .611-.577q.219-.358.219-.78v-.9a.9.9 0 0 1-.288.13q-.2.059-.448.104-.249.045-.492.079l-.423.06a3.1 3.1 0 0 0-.72.179q-.319.123-.503.348-.184.218-.184.566 0 .498.363.751.363.255.925.254m7.174-3.306V33h-1.8v-7.636h1.72v1.297h.09q.264-.64.84-1.019.582-.378 1.437-.378.79 0 1.377.338.592.338.915.98.328.64.323 1.556V33h-1.8v-4.584q0-.766-.397-1.198-.393-.433-1.09-.433-.471 0-.84.21a1.45 1.45 0 0 0-.571.59q-.204.39-.204.94m8.929 4.628q-.726 0-1.308-.258a2.13 2.13 0 0 1-.914-.776q-.333-.512-.333-1.263 0-.645.238-1.069.24-.422.651-.676.413-.253.93-.383.522-.134 1.079-.194.671-.069 1.089-.124.417-.06.606-.179.195-.124.194-.383v-.03q0-.561-.333-.87t-.96-.308q-.66 0-1.048.289a1.43 1.43 0 0 0-.517.68l-1.68-.238q.198-.696.655-1.163.458-.472 1.119-.706.66-.24 1.462-.239.552 0 1.098.13a3.1 3.1 0 0 1 1 .427q.452.294.725.8.279.507.279 1.268V33h-1.73v-1.049h-.06q-.164.318-.462.597-.294.273-.741.442-.442.165-1.039.164m.467-1.322q.543 0 .94-.214a1.6 1.6 0 0 0 .611-.577q.22-.358.22-.78v-.9a.9.9 0 0 1-.29.13 4 4 0 0 1-.447.104q-.248.045-.492.079l-.422.06a3.2 3.2 0 0 0-.721.179q-.319.123-.502.348-.184.218-.184.566 0 .498.363.751.363.255.924.254m8.696 4.19q-.97 0-1.666-.263-.696-.258-1.118-.696a2.4 2.4 0 0 1-.587-.97l1.62-.392q.11.224.319.443.208.223.562.367.357.15.9.15.765 0 1.267-.373.502-.369.502-1.213v-1.447h-.09a2.6 2.6 0 0 1-.407.572q-.264.293-.7.492-.434.198-1.09.199a3.14 3.14 0 0 1-1.596-.413q-.71-.417-1.133-1.243-.418-.83-.418-2.078 0-1.258.418-2.123.422-.87 1.139-1.317a2.93 2.93 0 0 1 1.595-.453q.672 0 1.104.229.438.224.696.542.258.314.393.591h.1v-1.262h1.774v7.76q0 .98-.467 1.621-.468.641-1.278.96t-1.84.318m.014-4.543q.572 0 .975-.279.402-.278.612-.8.208-.522.208-1.253 0-.72-.209-1.263-.203-.541-.606-.84-.398-.303-.98-.303-.6 0-1.004.313-.402.313-.606.86a3.5 3.5 0 0 0-.204 1.233q0 .701.204 1.228.209.522.611.815.408.29 1 .289m8.795 1.67q-1.148 0-1.983-.477a3.23 3.23 0 0 1-1.278-1.362q-.447-.886-.447-2.083 0-1.179.447-2.069a3.4 3.4 0 0 1 1.263-1.392q.81-.502 1.904-.502.706 0 1.332.229.631.224 1.114.696.487.473.766 1.203.278.725.278 1.73v.552h-6.26v-1.213h4.535a1.94 1.94 0 0 0-.224-.92 1.63 1.63 0 0 0-.612-.641 1.7 1.7 0 0 0-.904-.234q-.552 0-.97.269a1.85 1.85 0 0 0-.651.696q-.229.427-.234.94v1.058q0 .666.244 1.144.244.472.681.726.438.248 1.024.248.393 0 .711-.11.318-.113.552-.332t.353-.542l1.68.189a2.6 2.6 0 0 1-.606 1.163 2.96 2.96 0 0 1-1.134.766q-.691.268-1.58.268M98.27 33v-7.636h1.72v1.297h.09q.239-.656.791-1.024.551-.373 1.317-.373.776 0 1.308.378.537.373.755 1.02h.08q.253-.637.855-1.015.606-.383 1.437-.383 1.053 0 1.72.666.666.668.666 1.944V33h-1.805v-4.847q0-.71-.377-1.04a1.35 1.35 0 0 0-.925-.332q-.651 0-1.019.407-.363.403-.363 1.05V33h-1.765v-4.922q0-.592-.358-.944-.353-.354-.925-.354-.388 0-.706.2-.318.194-.507.551-.189.353-.189.826V33zm15.946.15q-1.149 0-1.984-.478a3.23 3.23 0 0 1-1.278-1.362q-.447-.886-.447-2.083 0-1.179.447-2.069a3.4 3.4 0 0 1 1.263-1.392q.81-.502 1.904-.502.707 0 1.332.229.632.224 1.114.696.487.473.766 1.203.278.725.278 1.73v.552h-6.259v-1.213h4.534a1.9 1.9 0 0 0-.224-.92 1.6 1.6 0 0 0-.611-.641 1.7 1.7 0 0 0-.905-.234q-.552 0-.97.269a1.85 1.85 0 0 0-.651.696q-.228.427-.233.94v1.058q0 .666.243 1.144.244.472.681.726.438.248 1.024.248.393 0 .711-.11.318-.113.552-.332t.353-.542l1.681.189a2.6 2.6 0 0 1-.607 1.163 2.96 2.96 0 0 1-1.133.766q-.691.268-1.581.268m6.717-4.624V33h-1.799v-7.636h1.72v1.297h.089q.264-.64.841-1.019.58-.378 1.436-.378.79 0 1.377.338.593.338.915.98.329.64.323 1.556V33h-1.799v-4.584q0-.766-.398-1.198-.393-.433-1.089-.433-.472 0-.84.21a1.45 1.45 0 0 0-.572.59q-.204.39-.204.94m10.545-3.162v1.392h-4.39v-1.392zm-3.306-1.83h1.8v7.17q0 .362.109.556a.6.6 0 0 0 .298.258q.184.07.408.07.17 0 .308-.025.144-.024.219-.044l.303 1.406q-.144.05-.412.11-.263.06-.647.07a2.9 2.9 0 0 1-1.218-.204 1.9 1.9 0 0 1-.86-.706q-.313-.478-.308-1.194z"/><defs><linearGradient id="a" x1="7.277" x2="24.089" y1="5.491" y2="41.837" gradientUnits="userSpaceOnUse"><stop stop-color="#00cfde"/><stop offset="1" stop-color="#05a660"/></linearGradient></defs></svg>