<svg viewBox="0 0 12 14" fill="currentColor" xmlns="http://www.w3.org/2000/svg"><path fill-rule="evenodd" clip-rule="evenodd" d="m.695 8.164.001.065c.028 1.426.962 2.734 1.988 3.657.53.477 1.242.873 1.789 1.153.216.111.435.208.65.283.298.11.59.177.857.177h.041c.267 0 .559-.066.857-.177.215-.075.434-.172.65-.283.547-.28 1.259-.676 1.79-1.153 1.025-.923 1.96-2.231 1.987-3.657V2.483c0-.41-.222-.786-.58-.984L7.026.66A2.36 2.36 0 0 1 7.033.65l-.47-.108A1.122 1.122 0 0 0 6 .404a1.122 1.122 0 0 0-.562.14l-.47.107.005.008-3.697.84a1.122 1.122 0 0 0-.582.984v5.68Zm5.306 4.466c-.406 0-.881-.182-1.333-.433-.466-.259-1.036-.62-1.486-1.04-.661-.619-1.332-1.482-1.586-2.41a3.35 3.35 0 0 1-.09-.76V3.134c-.041-.71.109-.868.441-.936l3.492-.843.102-.023a.958.958 0 0 1 .92 0l.101.023 3.492.843c.332.068.482.227.441.936v4.853c0 .255-.032.51-.09.76-.254.929-.924 1.791-1.586 2.41-.45.42-1.02.781-1.486 1.04-.452.25-.927.433-1.332.433Z" fill="currentColor"/></svg>