<svg xmlns="http://www.w3.org/2000/svg" fill="none" viewBox="0 0 24 25"><g clip-path="url(#a)"><path fill="#252F3E" d="M3.197 5.007q.001.206.041.329.043.121.118.266a.16.16 0 0 1 .026.085q.001.056-.07.11l-.233.156a.2.2 0 0 1-.096.033q-.055-.001-.111-.052a1 1 0 0 1-.134-.173 3 3 0 0 1-.114-.218q-.434.51-1.088.51-.468 0-.74-.267-.273-.265-.274-.709a.95.95 0 0 1 .336-.761q.337-.288.907-.288.189 0 .392.03.205.029.426.08v-.27q-.002-.42-.174-.59-.176-.171-.603-.17-.195 0-.4.048-.205.049-.4.125-.09.038-.129.048a.2.2 0 0 1-.06.012Q.74 3.342.74 3.226v-.181q-.001-.09.026-.13a.3.3 0 0 1 .104-.077q.195-.1.466-.166.272-.071.577-.07.66 0 .97.299.306.3.307.909v1.197zm-1.502.561a1.2 1.2 0 0 0 .381-.066.8.8 0 0 0 .352-.237.6.6 0 0 0 .125-.236q.036-.134.037-.321v-.156a3 3 0 0 0-.688-.085q-.37-.001-.551.148t-.182.425q0 .26.137.392.135.137.389.136m2.971.4q-.097 0-.14-.038c-.03-.022-.056-.073-.078-.144l-.87-2.856a.7.7 0 0 1-.033-.147q0-.091.089-.093h.363q.105-.001.144.037c.03.022.052.074.074.144l.622 2.446.577-2.446q.027-.111.07-.144a.26.26 0 0 1 .148-.037h.296q.105-.001.148.037c.03.022.056.074.07.144l.585 2.476.64-2.476a.3.3 0 0 1 .075-.144.24.24 0 0 1 .144-.037h.344q.092 0 .093.093-.001.026-.008.059a.5.5 0 0 1-.026.092L7.101 5.79q-.033.111-.077.144a.24.24 0 0 1-.14.037h-.32q-.104.001-.147-.037-.047-.038-.07-.148l-.574-2.383-.57 2.38q-.026.11-.07.147-.047.038-.148.037zm4.756.1q-.291 0-.57-.067a1.7 1.7 0 0 1-.426-.148c-.059-.033-.1-.07-.114-.104a.3.3 0 0 1-.023-.103v-.188q.001-.116.086-.115a.2.2 0 0 1 .066.011l.093.037q.188.084.407.13.22.044.44.044.351 0 .54-.122a.4.4 0 0 0 .193-.351.36.36 0 0 0-.1-.259q-.101-.104-.374-.192l-.536-.166q-.407-.127-.593-.377a.88.88 0 0 1-.085-.946.95.95 0 0 1 .267-.303q.164-.127.385-.192.222-.065.466-.063.123 0 .248.015.126.018.24.04.111.029.211.06a1 1 0 0 1 .156.066.3.3 0 0 1 .11.093q.034.044.034.122v.173q-.001.117-.085.118a.4.4 0 0 1-.14-.044 1.7 1.7 0 0 0-.711-.144c-.211 0-.378.033-.492.103q-.173.103-.174.33 0 .155.11.262.113.107.408.203l.525.166q.402.127.574.355t.17.517a.95.95 0 0 1-.096.429 1 1 0 0 1-.27.325 1.2 1.2 0 0 1-.411.207c-.167.051-.34.077-.53.077"/><path fill="#F90" fill-rule="evenodd" d="M10.121 7.863c-1.217.897-2.986 1.374-4.507 1.374A8.16 8.16 0 0 1 .11 7.142C-.004 7.04.1 6.898.237 6.98a11.1 11.1 0 0 0 5.506 1.46c1.351 0 2.835-.282 4.2-.858.204-.092.378.133.178.28" clip-rule="evenodd"/><path fill="#F90" fill-rule="evenodd" d="M10.628 7.286c-.155-.2-1.029-.096-1.424-.048-.119.015-.137-.088-.03-.166.696-.488 1.84-.347 1.972-.185.134.167-.037 1.308-.688 1.855-.1.085-.196.04-.152-.07.148-.366.478-1.19.322-1.386" clip-rule="evenodd"/></g><g clip-path="url(#b)"><path fill="#EA4335" d="M19.889 8.301h.343l.978-.978.048-.415a4.396 4.396 0 0 0-7.15 2.144.53.53 0 0 1 .342-.02l1.956-.323s.1-.164.15-.154a2.44 2.44 0 0 1 3.34-.254z"/><path fill="#4285F4" d="M22.603 9.052a4.4 4.4 0 0 0-1.328-2.14l-1.372 1.372c.58.473.91 1.187.895 1.935v.244a1.221 1.221 0 1 1 0 2.443h-2.443l-.244.247v1.465l.244.244h2.443a3.178 3.178 0 0 0 1.805-5.81"/><path fill="#34A853" d="M15.909 14.848h2.443v-1.956h-2.443a1.2 1.2 0 0 1-.505-.11l-.343.107-.985.978-.086.343c.552.417 1.226.64 1.918.638"/><path fill="#FBBC05" d="M15.909 8.504a3.177 3.177 0 0 0-1.918 5.695l1.417-1.417a1.221 1.221 0 1 1 1.616-1.616l1.417-1.417a3.18 3.18 0 0 0-2.532-1.245"/></g><g clip-path="url(#c)"><path fill="#0072C6" d="M6.147 14.097 2.83 16.973 0 22.053h2.552zm.44.673-1.415 3.989 2.714 3.41-5.265.904h8.629z"/></g><defs><clipPath id="a"><path fill="#fff" d="M0 2.554h11.25v6.724H0z"/></clipPath><clipPath id="b"><path fill="#fff" d="M12.75 5.808H24v9.053H12.75z"/></clipPath><clipPath id="c"><path fill="#fff" d="M0 14.096h11.25v8.977H0z"/></clipPath></defs></svg>