<svg viewBox="0 0 24 24" fill="none" xmlns="http://www.w3.org/2000/svg"><path d="M8 5h8a4 4 0 0 1 4 4v4a4 4 0 0 1-4 4h-4l-4 3v-3a4 4 0 0 1-4-4V9a4 4 0 0 1 4-4Z" stroke="currentColor" stroke-linecap="round" stroke-linejoin="round"/><g opacity=".3"><mask id="a" fill="#fff"><path d="M15 11.875a.5.5 0 0 1 0 1H8a.5.5 0 0 1 0-1h7Zm1-2.75a.5.5 0 0 1 0 1H8a.5.5 0 0 1 0-1h8Z"/></mask><path d="M15 11.875v1a.5.5 0 0 1-.5-.5h2a1.5 1.5 0 0 0-1.5-1.5v1Zm.5.5h-1a.5.5 0 0 1 .5-.5v2a1.5 1.5 0 0 0 1.5-1.5h-1Zm-.5.5v-1H8v2h7v-1Zm-7 0v-1a.5.5 0 0 1 .5.5h-2a1.5 1.5 0 0 0 1.5 1.5v-1Zm-.5-.5h1a.5.5 0 0 1-.5.5v-2a1.5 1.5 0 0 0-1.5 1.5h1Zm.5-.5v1h7v-2H8v1Zm8-2.75v1a.5.5 0 0 1-.5-.5h2a1.5 1.5 0 0 0-1.5-1.5v1Zm.5.5h-1a.5.5 0 0 1 .5-.5v2a1.5 1.5 0 0 0 1.5-1.5h-1Zm-.5.5v-1H8v2h8v-1Zm-8 0v-1a.5.5 0 0 1 .5.5h-2a1.5 1.5 0 0 0 1.5 1.5v-1Zm-.5-.5h1a.5.5 0 0 1-.5.5v-2a1.5 1.5 0 0 0-1.5 1.5h1Zm.5-.5v1h8v-2H8v1Z" fill="currentColor" mask="url(#a)"/></g></svg>