<svg xmlns="http://www.w3.org/2000/svg" viewBox="0 0 20 20" fill="none"><path fill="currentColor" fill-rule="evenodd" d="M15.418 3.9a.787.787 0 0 1 0 1.148l-9.91 9.396a.892.892 0 0 1-1.21 0 .786.786 0 0 1 0-1.148l9.91-9.396a.892.892 0 0 1 1.21 0ZM14.26 16.408l3.284-3.114a.7.7 0 0 0 0-1.02.792.792 0 0 0-1.077 0l-3.284 3.113a.697.697 0 0 0 0 1.021.792.792 0 0 0 1.077 0Z" clip-rule="evenodd"/><path fill="currentColor" d="m14.43 12.257 3.125 3.126a.726.726 0 0 1-1.025 1.025l-3.124-3.126a.726.726 0 0 1 0-1.025.729.729 0 0 1 1.024 0Z"/><path fill="currentColor" d="M10.107 16.704h-.057c-.954 0-1.879-.186-2.75-.555a7.017 7.017 0 0 1-2.246-1.516 7.066 7.066 0 0 1-1.516-2.248 7.015 7.015 0 0 1-.555-2.75 7.045 7.045 0 0 1 2.07-4.998 7.078 7.078 0 0 1 2.247-1.515 7.016 7.016 0 0 1 2.75-.555 7.045 7.045 0 0 1 4.998 2.07 7.065 7.065 0 0 1 1.516 2.248c.368.871.555 1.797.555 2.75v.013h1.314v-.015A8.385 8.385 0 0 0 10.05 1.25a8.385 8.385 0 0 0-8.383 8.383 8.385 8.385 0 0 0 8.383 8.384h.056v-1.313Z"/></svg>