<svg viewBox="0 0 32 32" xmlns="http://www.w3.org/2000/svg"><path fill-rule="evenodd" clip-rule="evenodd" d="M26.4266 7.06093c1.604.9082 2.5891 2.61496 2.5732 4.45817l-.077 8.9346c-.0155 1.7969-.9805 3.4516-2.5368 4.3499l-8.002 4.6187c-1.5563.8983-3.4717.9062-5.0355.0208l-7.77508-4.4024c-1.60398-.9082-2.58912-2.6149-2.57323-4.4581l.07702-8.9347c.01549-1.79688.98045-3.45151 2.53678-4.34982L13.616 2.67935c1.5563-.89831 3.4717-.90623 5.0355-.02083l7.7751 4.40241Zm-2.829 6.93717c-.4206 1.5856-2.0293 2.5375-3.6019 2.1409l-7.4887-2.0259c-1.2333-.3339-2.51707-.1628-3.6202.48-1.10295.6428-1.89161 1.6795-2.22178 2.9246-.33051 1.2454-.16137 2.5454.47878 3.6646.64015 1.1192 1.67111 1.9171 2.9048 2.2508 1.2334.334 2.5171.1629 3.6201-.4798 1.1031-.6429 1.8918-1.6796 2.2219-2.9247l.2612-1.0464c.0329-.1321-.0459-.2662-.1773-.3018l-1.258-.3405c-.1352-.0366-.274.045-.3079.1809l-.2553 1.0238c-.4259 1.6026-2.0645 2.5569-3.6515 2.1278-1.58229-.4285-2.52298-2.0732-2.09943-3.6705.42065-1.5857 2.02953-2.5383 3.60213-2.1417l7.4885 2.0266c1.2333.3339 2.5171.1629 3.6202-.48 1.103-.6427 1.8916-1.6795 2.2218-2.9246.3305-1.2453.1613-2.5454-.4788-3.6645-.6402-1.11922-1.6711-1.91714-2.9048-2.25088-1.2334-.33394-2.5171-.16289-3.6201.47987-1.1031.64287-1.8918 1.67961-2.2219 2.92471l-.2471.8272c-.0402.1347.0385.2761.1742.3128l1.2581.3405c.1309.0354.2661-.0398.3049-.1697l.2472-.8269c.4259-1.6026 2.0645-2.55683 3.6515-2.1277 1.5823.4284 2.523 2.0731 2.0994 3.6705Z" fill="url(#a)"/><defs><linearGradient id="a" x1="6.7737" y1="2" x2="21.5" y2="30" gradientUnits="userSpaceOnUse"><stop stop-color="#62F91F"/><stop offset="1" stop-color="#45BD35"/></linearGradient></defs></svg>