<?xml version="1.0" encoding="utf-8"?>
<!-- Generator: Adobe Illustrator 25.2.1, SVG Export Plug-In . SVG Version: 6.00 Build 0)  -->
<svg version="1.1" id="Layer_1" xmlns="http://www.w3.org/2000/svg" xmlns:xlink="http://www.w3.org/1999/xlink" x="0px" y="0px"
	 viewBox="0 0 101 103" style="enable-background:new 0 0 101 103;" xml:space="preserve">
<style type="text/css">
	.st0{fill:#FFFFFF;}
	.st1{fill:none;stroke:#000000;stroke-width:1.75;stroke-linecap:round;stroke-linejoin:round;}
	.st2{fill:none;stroke:#000000;stroke-width:1.5;stroke-linecap:round;stroke-linejoin:round;}
</style>
<g>
	<path class="st0" d="M16,32.2L2.8,60.4v15.9L38,94.8l44.1-6.2l12.3-28.2v-15L62.7,26L16,32.2z"/>
	<path class="st1" d="M1,73.6C12.5,80,30,90.1,41.6,96.5"/>
	<path class="st1" d="M80.3,90.4c4.4-9.7,7.1-15.9,14.1-31.7"/>
	<path class="st1" d="M31,94.8c19.4-2.6,29.1-3.5,53.8-7.9"/>
	<path class="st1" d="M1.9,57.7c11.5,6.4,29,16.5,40.6,22.9"/>
	<path class="st1" d="M59.2,26c11.5,6.4,29,16.5,40.6,22.9"/>
	<path class="st1" d="M2.8,62.1c4.4-9.7,7.1-15.9,14.1-31.7 M81.2,74.5c4.4-9.7,7.1-15.9,14.1-31.7"/>
	<path class="st1" d="M12.5,33.9c19.4-2.6,29.1-3.5,53.8-7.9 M31.9,78.9c19.4-2.6,29.1-3.5,53.8-7.9"/>
	<path class="st1" d="M4.4,57.8c0,4,0.1,14.5,0.1,18.5 M37,77.2c0,4,0.1,14.5,0.1,18.5 M82,71c0,4,0.1,14.5,0.1,18.5 M93.6,43.6
		c0,4,0.1,14.5,0.1,18.5"/>
	<path class="st1" d="M42.4,77.5L38,93.7 M43.3,92.8l4.2-15.3 M48.6,91.9l4.2-15.3 M58.3,75.7l-4.2,15.3 M63.6,74.9l-4.2,15.3
		 M69.8,74l-4.4,16.2 M75.1,73.1l-4.4,16.2 M80.3,72.2l-4.4,16.2"/>
	<path class="st1" d="M86.5,75.3V63.9 M90,68.3L90.2,55"/>
	<path class="st1" d="M16.9,66.6l-3.4,13.1 M21.3,69.2l-3.5,13.5 M26.6,71.8l-3.7,14.1 M31,74.8l-3.7,13.8 M35.4,77.1L31.7,91
		 M12.5,63.9L8.7,78 M8.1,62.1l-3.5,13"/>
</g>
<g>
	<path class="st0" d="M32.1,21.3l-2.9,14l4.7,1.7v7L28,50.4l5.8,8.1l8.7,1.7l7,1.7l7.6-5.8v-6.4l4.1-5.8H67l2.3-11.1l-4.1-1.2
		l-1.2-6.4l4.1-4.7L67,10.8l-9.9-2.9l-7.6-2.3l-9.9,5.2V19l-2.9,2.3H32.1z"/>
	<path class="st1" d="M28.5,34.5c0.7,0.2,1.4,0.4,2.1,0.5c3.1,0.6,6.3,1.1,9.5,1.6"/>
	<path class="st1" d="M30.6,21c0.8,0.1,1.4,0.3,2.2,0.5c3.5,1.1,6.9,2.3,10.4,3.5"/>
	<path class="st1" d="M40.1,10.4c3.6,1.2,7.3,2,10.9,2.9"/>
	<path class="st1" d="M48.1,5c3.1,1.2,6.2,2.2,9.3,3.3"/>
	<path class="st1" d="M59.4,9.7c2.7,0.7,4.1,1.2,6.7,2.1"/>
	<path class="st1" d="M64.4,32.4c1.7,0.4,3.4,0.8,5.2,1.3"/>
	<path class="st1" d="M61,43.9c1.9,0.4,3.8,1,5.7,1.5"/>
	<path class="st1" d="M56.9,49.1C57,49.6,57,50,57,50.5c0.1,2.8,0,5.6,0,8.3"/>
	<path class="st1" d="M48.6,53.9c0.2,2.7,0.2,5.5,0.3,8.2"/>
	<path class="st1" d="M39.6,59.3c2.1-1.5,3.8-3.8,5.5-5.7"/>
	<path class="st1" d="M35.3,51c1.8-2.2,4.2-4.1,6.3-6"/>
	<path class="st1" d="M40.6,46.4c-0.4-2.3-1.1-6.6-0.4-10.9"/>
	<path class="st1" d="M43.4,25.3c1-1.7,2.3-3.5,5.8-5.5"/>
	<path class="st1" d="M48.6,12c-0.1,3.5-0.2,7-0.2,10.5"/>
	<path class="st1" d="M55.9,8.4c0,2.9,0,5.8,0,8.7"/>
	<path class="st1" d="M55.4,17.2c1.7,0,3.6-0.4,4.8,1.1"/>
	<path class="st1" d="M59.2,17.8c0.5-0.4,1-0.8,1.4-1.2c2.4-2.3,4.8-4.7,7.1-7"/>
	<path class="st1" d="M64,25.4c0.1-0.3,0.3-0.6,0.5-0.8c1.7-1.9,3.6-3.7,5.4-5.5"/>
	<path class="st1" d="M65.4,11.1c0.5,0.9,0.7,1.7,0.9,2.7c0.5,2.1,0.9,4.2,1.5,6.3c0.1,0.3,0.2,0.5,0.5,0.6"/>
	<path class="st1" d="M64,24.6c0.8,3.5,1,6,0,8.8"/>
	<path class="st1" d="M68,33c0.7,4.4-1.7,10.2-2.8,13.3"/>
	<path class="st1" d="M55.7,50.1c2.9-2.4,4-4,5.4-7.5"/>
	<path class="st1" d="M47.6,61.5c0.6-0.1,1-0.2,1.6-0.5c2.9-1.4,5.7-3.1,8.5-4.7"/>
	<path class="st1" d="M41.6,59.8c2.9,0.4,5.7,1.4,8.7,1.7"/>
	<path class="st1" d="M41.8,60.2c-0.2-1.1-0.3-2.3-0.5-3.4"/>
	<path class="st1" d="M36,36.6c-0.4-3.9,1.2-10.9,3.5-13.6"/>
	<path class="st1" d="M29.4,35.2c-0.1-4.8,1.6-9.8,3.9-14.1"/>
	<path class="st1" d="M36.5,22.9c1.4-1.2,2.7-2.6,4.1-3.9"/>
	<path class="st1" d="M40.8,10.6c0,2.2-0.1,4.3-0.2,6.5c0,0.4,0,0.7,0.1,1"/>
	<path class="st1" d="M39.5,18.6c2.9,0.5,5.9,1,8.8,1.9"/>
	<path class="st1" d="M55.8,14.7c1.4-2.2,2.7-3.4,4.2-5.7"/>
	<path class="st1" d="M39.2,10.8c3.6-2.1,7.4-3.8,11-5.6"/>
	<path class="st1" d="M48.4,12.6c0,0,4.7-2.3,8.7-4.7"/>
	<path class="st1" d="M33.8,36.3c0,2.6,0.4,5.3,0.4,7.9"/>
	<path class="st1" d="M33.8,43.4l6.4,1.7"/>
	<path class="st1" d="M28.4,50c0.7-0.5,1.3-1.2,2-1.9c1.4-1.4,2.8-2.9,4.2-4.4"/>
	<path class="st1" d="M28,49.8c3.1,0.5,6.3,0.7,9.4,1"/>
	<path class="st1" d="M44.4,53.1c2.1,0.5,4.2,0.7,6.3,0.8"/>
	<path class="st1" d="M35.4,50.8c1.6,2.2,3,4.5,4.5,6.8c0.5,0.7,1,1.7,1.7,2.2"/>
	<path class="st1" d="M28.2,49.9c2.3,2.7,4.7,5.7,6.6,8.1"/>
	<path class="st1" d="M33.3,57.4c2.6,0.1,5.2,1.3,7.8,1.6"/>
	<path class="st1" d="M44.6,39.3c3.5,2.4,5.8,4,8.2,5.9"/>
	<path class="st1" d="M45.3,41.7c0.4-2.7,0.8-7.8,1.2-11.3"/>
	<path class="st1" d="M44.9,32.7c1.5-1.3,7-5,8.6-6.2"/>
	<path class="st1" d="M53.6,26.5c2.1,1.3,3.8,2.7,5.8,4.1"/>
	<path class="st1" d="M50,44.8c1.6-0.8,7.2-4.3,8.6-5.1"/>
	<path class="st1" d="M57.4,40.5c0.8-3.5,1.2-7,1.9-10.5"/>
	<path class="st1" d="M53.6,31.2c-0.5,2.4-1.2,5.8-1.3,7.1"/>
	<path class="st1" d="M46.9,41.2c1-0.4,2-0.9,3-1.3c1-0.4,2-0.9,2.9-1.4"/>
	<path class="st1" d="M50.8,28.9c0,0,1.7,1.2,2.8,2.3"/>
	<path class="st1" d="M53.5,30.7c2.3,0,5.4-0.2,7.4-0.3"/>
	<path class="st1" d="M51.5,38.1c1.5,0.4,3,0.7,4.4,1c1.1,0.3,2.3,0.5,3.5,0.7"/>
	<path class="st2" d="M48.5,57.4l-5.3-1.1 M37.9,54.9l-5.8-0.7"/>
	<path class="st2" d="M62.9,14.3l-5.3-1.2"/>
	<path class="st2" d="M37.9,48.1c-2.1-0.4-4.2-0.9-6.2-1.3 M39.5,39.6l-5.1-1.1"/>
	<path class="st2" d="M37.5,27.1l-5.8-1.3 M29.4,30.6l7.1,1.5"/>
	<path class="st2" d="M48.4,16.8l-8.2-1.7"/>
	<path class="st2" d="M52.5,10c-4.7-1.3-5-1.4-7.7-2.1L52.5,10z"/>
</g>
</svg>
