<svg fill="none" xmlns="http://www.w3.org/2000/svg" viewBox="0 0 31 32"><g filter="url(#a)"><path d="M21.681 12.627c.388-1.46-.47-2.97-1.927-3.364a2.737 2.737 0 0 0-3.35 1.942l-.096.322-.34-.092.093-.313.002-.008.002-.007a3.08 3.08 0 0 1 1.435-1.89 3.022 3.022 0 0 1 2.333-.31c.796.216 1.46.73 1.875 1.454.415.725.524 1.565.31 2.372a3.08 3.08 0 0 1-1.435 1.89 3.022 3.022 0 0 1-2.333.31l-5.616-1.52-.008-.003a2.737 2.737 0 0 0-3.307 1.963c-.388 1.46.47 2.97 1.927 3.364a2.737 2.737 0 0 0 3.352-1.95l.002-.008.114-.458.34.092-.12.484a3.08 3.08 0 0 1-1.434 1.886 3.022 3.022 0 0 1-2.333.31 3.068 3.068 0 0 1-1.875-1.454 3.126 3.126 0 0 1-.31-2.372 3.08 3.08 0 0 1 1.435-1.89 3.022 3.022 0 0 1 2.333-.31l5.616 1.52.009.002a2.737 2.737 0 0 0 3.306-1.962Zm-6.89 3.385-.303-.076.304.076Zm10.959-5.368a4.305 4.305 0 0 0-2.184-3.783l-5.831-3.302a4.305 4.305 0 0 0-4.273.017L7.461 7.041a4.305 4.305 0 0 0-2.153 3.69l-.058 6.702a4.305 4.305 0 0 0 2.184 3.783l5.831 3.301a4.305 4.305 0 0 0 4.273-.017l6.002-3.464a4.305 4.305 0 0 0 2.152-3.691l.058-6.701Z" fill="url(#b)" stroke="#fff"/></g><defs><linearGradient id="b" x1="10.625" y1="4.912" x2="21.555" y2="22.428" gradientUnits="userSpaceOnUse"><stop stop-color="#62F91F"/><stop offset="1" stop-color="#45BD35"/></linearGradient><filter id="a" x="-.5" y="0" width="32" height="32" filterUnits="userSpaceOnUse" color-interpolation-filters="sRGB"><feFlood flood-opacity="0" result="BackgroundImageFix"/><feColorMatrix in="SourceAlpha" values="0 0 0 0 0 0 0 0 0 0 0 0 0 0 0 0 0 0 127 0" result="hardAlpha"/><feOffset dy="2"/><feGaussianBlur stdDeviation="2"/><feColorMatrix values="0 0 0 0 0.376471 0 0 0 0 0.380392 0 0 0 0 0.439216 0 0 0 0.16 0"/><feBlend in2="BackgroundImageFix" result="effect1_dropShadow_625_9902"/><feColorMatrix in="SourceAlpha" values="0 0 0 0 0 0 0 0 0 0 0 0 0 0 0 0 0 0 127 0" result="hardAlpha"/><feOffset/><feGaussianBlur stdDeviation=".5"/><feColorMatrix values="0 0 0 0 0.156863 0 0 0 0 0.160784 0 0 0 0 0.239216 0 0 0 0.04 0"/><feBlend in2="effect1_dropShadow_625_9902" result="effect2_dropShadow_625_9902"/><feBlend in="SourceGraphic" in2="effect2_dropShadow_625_9902" result="shape"/></filter></defs></svg>