<svg xmlns="http://www.w3.org/2000/svg" viewBox="0 0 32 32"><path fill="#fff" fill-rule="evenodd" d="M23.193 11.353 20.284 3.57a4.99 4.99 0 0 0-.782.433c-.741.486-1.687 1.279-2.526 2.293-1.685 2.037-2.854 4.837-1.335 7.816a.5.5 0 0 1-.283.7l-.162-.473.161.473h-.002l-.004.002-.014.005-.047.015-.165.047-.579.123c-.479.079-1.142.135-1.855.03s-1.495-.374-2.182-.954c-.507-.427-.946-1.008-1.275-1.779a8.67 8.67 0 0 0-.579 1.038c-.571 1.2-1.154 3.049-1.154 5.61a9.066 9.066 0 0 0 3.769 7.372c-.531-.908-.857-2.07-.847-3.523.005-.775.231-1.429.461-1.927l.322-.624.002-.004.163-.316a.496.496 0 0 1 .633-.309.505.505 0 0 1 .334.417l.008.014a2.96 2.96 0 0 0 .233.32c.223.274.55.624.927.97s.791.677 1.186.922c.353.219.647.341.866.377.251-.135.411-.461.473-.975a4.46 4.46 0 0 0 .009-.856l-.03-.283-.011-.076-.003-.018v-.003c-.049-.273.13-.533.401-.58s.531.135.58.407v.005l.001.008.005.028.015.098.037.34c.022.278.034.66-.013 1.054-.076.637-.337 1.531-1.218 1.835a.518.518 0 0 1-.183.027c-.485-.021-.995-.257-1.447-.537a9.24 9.24 0 0 1-1.337-1.037 11.005 11.005 0 0 1-.949-.982l-.098.203c-.195.423-.365.931-.369 1.513-.014 2.027.701 3.305 1.603 4.083a4.618 4.618 0 0 0 1.972.986 8.99 8.99 0 0 0 1.505.126 8.96 8.96 0 0 0 2.368-.317.5.5 0 0 1 .264.964 9.945 9.945 0 0 1-2.632.352 10.09 10.09 0 0 1-.434-.009.421.421 0 0 1-.062.004 5.48 5.48 0 0 1-1.215-.141c-4.709-.817-8.289-4.946-8.289-9.911 0-2.718.62-4.714 1.251-6.04a9.31 9.31 0 0 1 .874-1.486c.121-.166.223-.291.297-.377a3.44 3.44 0 0 1 .089-.099l.008-.009.018-.019.008-.008.003-.003.001-.001.001-.001.354.353-.354-.353a.5.5 0 0 1 .837.224c.286 1.076.754 1.755 1.265 2.186s1.106.644 1.683.729a5.1 5.1 0 0 0 1.547-.027l.105-.018c-1.361-3.273.012-6.279 1.718-8.34.906-1.094 1.927-1.954 2.748-2.492.407-.267.786-.468 1.09-.575.145-.051.316-.096.483-.092s.492.076.603.428c.979 3.106 2.054 5.747 2.986 8.038v.001l.569 1.405c1.031 2.571 1.815 4.737 1.815 6.576a.5.5 0 1 1-1 0c0-1.612-.697-3.595-1.743-6.204l-.564-1.392z"/><path fill="#f3f3fa" d="M21.004 29.77 21 22.917c0-.184.134-.28.269-.315.173-.044.342-.106.512-.159l.683-.21.813-.255.946-.288.826-.263.92-.28a.75.75 0 0 0 .127-.055c.38-.201.73-.023 1.085.087l.917.285.829.258.918.285.601.197.701.204.691.232c.112.04.162.125.161.25l-.002 6.996a.286.286 0 0 1-.213.289l-.709.219-1.037.323-.878.278-.839.264-1.104.344c-.21.066-.415.155-.63.189-.127.02-.272-.035-.403-.076l-1.6-.509-1.816-.551-1.254-.415-.211-.064c-.3-.098-.3-.098-.3-.408zm1.142-.061c-.04-.013.072.026 0 0l1.676.533c.92.289 1.845.394 2.765.681-.24-.344-.05-.142 0-.157.572-.175.946-.19 1.517-.369.662-.207 1.175-.25 1.836-.458.306-.097.608-.131.914-.229-.127-.068.098-.009-.027-.05-.297-.098-.827-.064-1.119-.179-1.378.458-.031-2.507 0-2.521.435.137 1.155 2.609 1.591 2.746.186.058.195.052.195-.141l.003-6.338c0-.12-.035-.172-.151-.209l-4.221-1.317-.587-.18c0 .586.439 2.123.421 2.689-.023.001-1.802-.204-1.833-.229 0-.553 1.316-1.87 1.316-2.44l-.204.051-1.47.46-3.09.961c-.119.037-.163.088-.163.217.004 2.103 3.381 3.002 3.381 5.104 0 .219-.057.752.154.688 1.525-.465-1.376.197-2.904.688z"/><g fill="#fff"><path d="M22.833 22.833h7.333v7.333h-7.333z"/><path d="M26.537 23.237v-1.718l.587.18 4.221 1.317c.117.036.152.088.151.209l-.003 6.338c0 .193-.008.2-.195.141l-1.316-.429-.007-2.327a.19.19 0 0 0-.17-.226l-.613-.186-.907-.286v-.171l.002-2.139c.001-.109-.033-.16-.139-.19l-.953-.293-.659-.221z"/></g><path fill="#b0b1c3" d="m23.004 29.309-1.268.382c-.21.064-.218.061-.218-.158l-.003-6.309c0-.13.044-.181.163-.217l3.091-.961 1.47-.46c.054-.017.109-.028.204-.051l-.005 1.695-1.569.512c-.11.034-.147.085-.146.201l.005 2.155c.001.103-.032.15-.132.181l-1.418.436c-.135.04-.173.104-.172.242v2.355z"/><path fill="#d9dae5" d="m29.935 29.359.892.294c.125.041.251.08.378.148l-.918.294-1.984.623-1.714.533a.305.305 0 0 1-.164.002l-2.759-.868-1.74-.544-.151-.055 1.293-.417c.083.005.15.012.213.031l1.375.425a.496.496 0 0 0 .262.003l1.471-.451a.4.4 0 0 1 .219 0l1.443.445a.57.57 0 0 0 .303-.002l1.198-.37c.126-.038.257-.061.386-.091z"/><g fill-rule="evenodd"><path fill="#b0b1c3" d="M26.404 24.748v1.943l-.054-.013-.091-.023-.679-.212-.586-.184-.008-.002c-.057-.018-.105-.032-.104-.116l.004-1.532.001-.593c0-.006.002-.011.005-.02l.008-.023.045.011.098.026.364.115.833.256c.127.037.189.088.165.224-.005.028-.004.056-.003.089l.001.053zm1.687 3.021v1.898l-.058-.014-.093-.024-.433-.135-.818-.253c-.075-.023-.12-.049-.12-.143l.003-1.509v-.571c0-.012.002-.024.004-.04l.005-.032.102.031.211.065.305.097.729.223c.129.036.185.092.164.226a.61.61 0 0 0-.003.119l.002.066zm-3.886-.507-.141-.043-.877-.274-.009.02a.049.049 0 0 0-.006.02v.261l.002 1.879c0 .037.058.093.1.106l1.175.371.13.04a.34.34 0 0 0 .065.011l.03.004c.009-.022.012-.027.012-.033v-.267l-.002-1.859c0-.038-.052-.096-.093-.111l-.386-.125z"/><path fill="#d9dae5" d="m25.853 24.095-.785-.245.34-.104.711-.231a1.01 1.01 0 0 1 .754-.001l.705.229.331.101-.056.023-.069.027-.263.083-.894.276a.532.532 0 0 1-.26 0 4.497 4.497 0 0 1-.356-.107l-.159-.051zm2.003 3.075-1.089-.34.071-.027.087-.032.201-.063.943-.291a.355.355 0 0 1 .193-.012l.98.303.259.082c.013.004.025.01.045.018l.044.02-.09.031-.146.049-.28.085-.617.2a.769.769 0 0 1-.602-.024zm-3.396.012c.222.082.43.096.656-.008l1.047-.328-1.334-.443c-.045-.014-.104.001-.152.016l-1.158.359a.98.98 0 0 0-.08.031l-.059.025.065.024.091.032.288.088.636.205z"/><path fill="#f3f3fa" d="m28.116 23.965.006-.002.003-.001.004.061.005.096v.563l.004 1.393c.001.118-.039.164-.148.196l-.865.267-.375.118-.085.022-.051.012-.003-.052-.005-.094v-.569l-.003-1.401c-.001-.111.032-.16.14-.184.092-.021.183-.051.276-.083l.129-.043.968-.3zm1.705 3.18v.48l.002 1.445c.001.097-.027.141-.123.17l-.856.264-.383.12-.102.027-.06.015-.004-.058-.004-.095v-.567l-.003-1.387c-.001-.107.028-.159.135-.191l1.012-.312.385-.12v.21zm-4.932 1.472v1.04l.042-.004c.023-.002.041-.003.058-.008l.43-.134.891-.276c.093-.028.098-.083.098-.159l-.001-1.26v-.752c0-.024-.003-.048-.006-.076l-.005-.047-.291.091-1.145.364c-.036.012-.067.095-.067.145l-.003 1.076z"/></g></svg>