<svg xmlns="http://www.w3.org/2000/svg" xmlns:xlink="http://www.w3.org/1999/xlink" viewBox="0 0 32 32"><path fill="#0278d5" fill-rule="evenodd" d="M27.846 9.217a.92.92 0 0 0-.668-.762.979.979 0 0 0-.956.256l-3.028 3.028-3.26-3.26 3.028-3.028a.975.975 0 0 0 .256-.955.92.92 0 0 0-.762-.668 6.394 6.394 0 0 0-5.472 1.806 6.4 6.4 0 0 0-1.688 6.069l-8.329 8.329-.551.539-.74.734c-.379.397-.724.814-.926 1.275a2.098 2.098 0 0 0-.069 1.565c.182.541.572 1.09 1.165 1.683s1.142.983 1.683 1.165c.563.19 1.081.142 1.565-.069.461-.202.878-.547 1.275-.926l.734-.74.539-.551 8.329-8.329a6.4 6.4 0 0 0 6.068-1.688 6.396 6.396 0 0 0 1.806-5.472zm-8.928 6.8c-.701-.31-1.358-.753-1.933-1.328s-1.017-1.231-1.328-1.932l-7.982 7.982-.589.576-.686.68c-.361.378-.604.691-.733.985a1.1 1.1 0 0 0-.038.845c.112.334.383.754.924 1.295s.962.812 1.295.924a1.1 1.1 0 0 0 .845-.038c.294-.129.607-.372.985-.733l.68-.686.576-.589 7.982-7.982zm4.984-3.57 2.97-2.97a5.403 5.403 0 1 1-4.675-4.675l-2.97 2.97a1 1 0 0 0 0 1.414l3.26 3.26a1 1 0 0 0 1.414 0z"/><use xlink:href="#a" fill="#fff"/><use xlink:href="#a" fill="#b4e8fe"/><path fill="#247ea0" d="M26.537 23.237v-1.718l.587.18 4.221 1.317c.117.036.152.088.151.209l-.003 6.339c0 .193-.008.2-.195.141l-1.316-.429-.007-2.327a.19.19 0 0 0-.17-.226l-.613-.186-.907-.286v-.171l.002-2.139c.001-.109-.033-.16-.139-.19l-.953-.293-.659-.221z"/><path fill="#69afca" d="m23.004 29.309-1.268.382c-.21.064-.218.061-.218-.158l-.003-6.309c0-.129.044-.181.163-.217l3.091-.961 1.47-.46c.054-.017.109-.028.204-.051l-.005 1.695-1.569.512c-.11.034-.147.085-.146.201l.005 2.155c.001.103-.032.15-.132.18l-1.418.436c-.135.04-.173.103-.172.242v2.355z"/><path fill="#80c6e1" d="m29.935 29.359.892.294c.125.041.251.08.378.148l-.918.294-1.984.623-1.714.533a.305.305 0 0 1-.164.002l-2.759-.868-1.74-.544-.151-.055 1.293-.417c.083.005.15.012.213.031l1.375.425a.496.496 0 0 0 .262.003l1.471-.451a.4.4 0 0 1 .219 0l1.443.445a.57.57 0 0 0 .303-.002l1.198-.37c.126-.038.257-.061.386-.091z"/><path fill="#fdfbf6" d="m29.938 29.35-.389.099-1.198.37a.57.57 0 0 1-.303.002l-1.443-.445a.4.4 0 0 0-.219 0l-1.471.451a.476.476 0 0 1-.262-.003L23.28 29.4c-.063-.019-.129-.026-.206-.04-.025-.017-.039-.033-.061-.05l-.009-2.356c-.001-.138.037-.202.172-.242l1.418-.436c.1-.03.132-.077.132-.181l-.005-2.155c-.001-.116.036-.168.146-.201l1.573-.499a.383.383 0 0 1 .088-.01l.668.221.953.293c.107.03.14.082.139.19l-.002 2.139v.171l.907.286.613.186a.19.19 0 0 1 .17.226l-.003 2.323a.589.589 0 0 1-.035.084zm-.117-2.218v-.197l-1.397.433c-.107.032-.136.084-.135.191l.003 1.954c0 .046.005.091.008.153l.162-.042 1.239-.384c.096-.028.123-.072.123-.17l-.002-1.938zm-2.684-2.869-.395.123c-.108.024-.142.073-.14.184l.003 1.97c0 .045.005.09.008.146l.136-.035 1.239-.385c.109-.032.149-.078.148-.196l-.003-1.956c0-.045-.005-.091-.009-.157l-.987.306zm-2.248 4.691v.703c.046-.005.074-.004.1-.012l1.321-.41c.093-.028.098-.083.098-.159l-.001-2.012c0-.036-.006-.072-.011-.122l-1.436.454c-.036.012-.067.095-.068.145l-.003 1.412zm3.201-1.199c0-.057-.007-.115.002-.171.021-.134-.035-.189-.164-.226l-1.034-.32-.313-.095-.009.072-.003 2.081c-.001.094.044.12.12.143l1.251.389.15.038v-1.912zm-1.687-3.027c0-.043-.006-.087.001-.128.025-.136-.038-.187-.165-.224l-1.197-.371c-.047-.015-.096-.025-.143-.037-.008.025-.013.034-.013.043l-.004 2.125c-.001.087.052.099.112.118l1.265.396c.043.013.087.022.145.036v-1.958zm-2.351 2.488-.866-.27c-.009.022-.015.031-.015.039l.002 2.14c0 .037.058.093.1.106l1.305.411c.03.009.064.01.094.015.006-.015.012-.024.012-.033l-.001-2.126c0-.038-.052-.096-.093-.111l-.538-.171zm3.813-.042a.75.75 0 0 0 .591.021c.293-.111.598-.191.897-.285l.236-.08-.089-.038-1.239-.385a.365.365 0 0 0-.193.012l-1.145.353c-.041.013-.081.03-.159.059l1.1.343zm-2.003-3.081.504.155a.52.52 0 0 0 .26 0l1.157-.36c.033-.01.063-.026.124-.051l-1.036-.329a1.01 1.01 0 0 0-.754.001c-.331.124-.673.216-1.051.335l.796.248zm-.737 3.073 1.036-.325-1.334-.443c-.045-.014-.104.001-.152.016l-1.158.359c-.038.012-.075.03-.139.056l.156.056.924.293a.82.82 0 0 0 .667-.011z"/><path fill="#ffc433" d="m29.821 27.145.002 1.925c.001.097-.027.141-.123.17l-1.239.384-.162.042-.008-.153-.003-1.954c-.001-.107.028-.159.135-.191l1.397-.433v.21zm-2.672-2.88.976-.303.009.157.003 1.956c.001.118-.039.164-.148.196l-1.239.385-.136.034-.008-.146-.003-1.97c-.001-.111.032-.16.14-.184.134-.03.264-.081.406-.126z"/><path fill="#ffc331" d="m24.89 28.939.003-1.398c.001-.05.032-.133.067-.145l1.436-.454.011.122.001 2.012c0 .076-.005.132-.098.159l-1.321.41c-.026.008-.055.007-.1.012v-.718z"/><path fill="#fa9b35" d="M28.091 27.769v1.898l-.15-.038-1.251-.389c-.075-.023-.12-.049-.12-.143l.003-2.081c0-.019.005-.037.009-.072l.313.095 1.034.32c.129.036.185.092.164.226-.009.056-.001.114-.001.185z"/><path fill="#fa9a35" d="M26.404 24.748v1.944l-.145-.036-1.265-.396c-.06-.019-.112-.031-.112-.118l.004-2.125c0-.009.005-.018.013-.043l.143.037 1.197.371c.127.037.189.088.165.224-.008.041-.001.085-.001.142zm-2.339 2.471.527.168c.04.015.093.073.093.111l.001 2.126c0 .009-.006.017-.012.033-.031-.005-.064-.005-.094-.015l-1.305-.411c-.042-.014-.1-.07-.1-.106l-.002-2.14c0-.009.006-.018.015-.039l.877.274z"/><path fill="#ffd323" d="m27.856 27.171-1.089-.34.159-.059 1.145-.354a.355.355 0 0 1 .193-.012l1.239.385c.021.006.04.017.089.038l-.236.08-.897.285a.769.769 0 0 1-.602-.024zm-2.003-3.076-.785-.245 1.051-.335a1.01 1.01 0 0 1 .754-.001c.328.124.669.214 1.036.329l-.124.05-1.157.36a.532.532 0 0 1-.26 0c-.171-.041-.336-.102-.515-.158zm-.737 3.08c-.225.104-.434.09-.656.008l-.924-.293-.156-.056.139-.056 1.158-.359c.048-.015.107-.029.152-.016l1.334.443-1.047.328z"/><defs><path id="a" d="M21.004 29.77 21 22.917c0-.184.134-.28.269-.315.173-.044.342-.106.512-.159l.683-.21.813-.255.946-.288.826-.263.92-.28a.75.75 0 0 0 .127-.055c.38-.201.73-.023 1.085.087l.917.285.829.258.918.285.601.197.701.204.691.232c.112.04.162.125.161.25l-.002 6.996a.286.286 0 0 1-.213.289l-.709.219-1.037.323-.878.278-.839.264-1.104.344c-.21.066-.415.155-.63.189-.127.02-.272-.035-.403-.076l-1.6-.509-1.816-.551-1.254-.415-.211-.064c-.3-.098-.3-.098-.3-.408zm2.045-.388-1.274.409.151.055 1.74.544 2.759.868c.05.016.113.014.163-.002l1.714-.533 1.984-.623.918-.294c-.127-.068-.253-.107-.378-.148l-.887-.311c.011-.021.022-.042.052-.055l1.306.412c.186.058.195.052.195-.141l.003-6.338c0-.12-.035-.172-.151-.209l-4.221-1.317-.587-.18-.018 1.718c-.023.001-.047.003-.078-.023v-1.675l-.204.051-1.47.46-3.09.961c-.119.037-.163.088-.163.217l.003 6.309c0 .219.008.223.218.158l1.285-.379a.092.092 0 0 1 .028.065z"/></defs></svg>