<svg xmlns="http://www.w3.org/2000/svg" viewBox="0 0 24 24"><path fill="#f3f3fa" d="M.008 19.134 0 4.182c-.001-.401.292-.612.588-.686.378-.095.745-.232 1.118-.347l1.49-.458 1.775-.556 2.064-.629L8.836.932 10.842.32a1.62 1.62 0 0 0 .276-.121c.83-.439 1.593-.05 2.368.189l2.001.622 1.809.563 2.003.621 1.312.43 1.53.444s1.008.328 1.507.507c.245.088.352.273.352.545l-.003 15.264a.625.625 0 0 1-.465.631l-1.547.479-2.263.704-1.917.607-1.831.576-2.408.751c-.457.143-.906.339-1.374.413-.278.044-.593-.077-.879-.166l-3.49-1.111-3.963-1.201-2.736-.905-.46-.139c-.655-.214-.654-.215-.654-.89zM2.5 19c-.088-.027.157.058 0 0l3.658 1.162c2.006.631 4.025.86 6.033 1.486-.524-.75-.11-.309 0-.343 1.248-.382 2.064-.415 3.309-.805 1.444-.452 2.564-.545 4.006-1 .669-.211 1.326-.286 1.994-.5-.277-.148.214-.02-.059-.11-.649-.213-1.804-.14-2.441-.39-3.007 1-.067-5.47 0-5.5.95.3 2.52 5.692 3.47 5.99.406.127.424.113.424-.308L22.9 4.853c0-.262-.075-.376-.33-.455l-9.21-2.873-1.279-.392c0 1.279.959 4.633.919 5.868-.051.003-3.932-.445-4-.5 0-1.206 2.871-4.081 2.871-5.324l-.444.112L8.22 2.291 1.477 4.389c-.259.08-.356.191-.355.474C1.132 9.451 8.5 11.412 8.5 16c0 .478-.123 1.64.336 1.5 3.327-1.015-3.002.429-6.336 1.5z"/><path fill="#fff" fill-rule="evenodd" d="M20 18.192V20H4V4h8.081V1.132l.429.131.85.261 2.24.7 6.97 2.172c.255.079.331.193.33.455l-.006 11.042v2.787c0 .422-.018.436-.424.308L20 18.192z"/><path fill="#d9dae5" d="m19.495 18.237 1.946.642c.273.089.547.175.824.323l-2.003.641-4.33 1.36-3.739 1.163a.64.64 0 0 1-.357.004l-6.019-1.893-3.797-1.186-.33-.12 2.82-.91a1.96 1.96 0 0 1 .464.068l2.999.927a1.06 1.06 0 0 0 .571.006l3.209-.983a.869.869 0 0 1 .477.001l3.148.97c.204.06.456.056.661-.004l2.613-.808c.275-.084.561-.134.842-.199z"/><g fill-rule="evenodd"><path fill="#b0b1c3" d="m3.564 18.371.809-.243.003-1.304-.004-3.833c-.002-.302.081-.441.376-.527l1.704-.522 1.389-.429c.219-.066.289-.168.287-.394l-.004-2.204-.006-2.497c-.002-.253.078-.365.319-.439l3.424-1.118.012-3.698-.19.046-.254.066-1.708.535-1.498.469-1.212.379L1.48 4.377c-.259.08-.356.191-.355.474l.007 11.102v2.662c0 .478.017.485.476.345l1.959-.59zm8.227-5.954v-4.24l-.003-.115c-.003-.072-.006-.135.005-.195.054-.296-.083-.408-.359-.488L9.617 6.82l-.795-.251-.214-.056-.098-.024-.016.049c-.007.02-.012.032-.012.045l-.001 1.293-.008 3.343c-.001.181.104.213.227.252l.016.005 1.278.4 1.481.464c.062.019.125.034.198.05l.118.028zm3.68 6.492v-4.14l-.003-.144c-.003-.094-.006-.178.006-.259.046-.292-.077-.413-.358-.493a47.78 47.78 0 0 1-1.591-.487l-.665-.21-.461-.141-.221-.067-.01.071-.01.087V14.373l-.006 3.293c-.001.206.097.262.261.312l1.785.553.945.294.202.053.126.031zm-8.784-5.341.307.094.842.273c.088.032.202.159.202.242l.004 4.056-.001.581c0 .012-.006.025-.013.041l-.013.031-.064-.008c-.047-.005-.096-.01-.142-.024l-.284-.088-2.564-.808c-.091-.03-.217-.152-.218-.232l-.004-4.1.001-.568a.11.11 0 0 1 .014-.043l.019-.043 1.914.597z"/><path fill="#d9dae5" d="M10.589 6.753 8.877 6.22l.742-.227 1.551-.504a2.2 2.2 0 0 1 1.646-.002l1.537.499.722.219-.121.051-.15.059-.574.182-1.951.603a1.146 1.146 0 0 1-.567-.001 9.8 9.8 0 0 1-.777-.234l-.346-.112zm4.37 6.71-2.376-.743.155-.059.191-.069.44-.137 2.058-.634c.132-.04.293-.065.421-.027l2.139.662.566.178a.87.87 0 0 1 .097.04l.097.043-.197.068-.319.107-.611.186-1.345.437c-.455.173-.866.134-1.314-.053zm-7.409.027c.484.179.939.21 1.431-.018l2.284-.715-2.911-.967c-.099-.03-.226.002-.331.034l-2.526.783a1.905 1.905 0 0 0-.174.068l-.129.054.141.052.198.07.628.191 1.388.448z"/><path fill="#f3f3fa" d="m15.526 6.469.013-.004.006-.002.009.133.01.209v1.228l.008 3.039c.003.258-.085.358-.323.429l-1.887.584-.817.257-.185.048-.112.027-.008-.114-.01-.204v-1.242l-.007-3.056c-.002-.243.071-.349.306-.402.202-.046.398-.112.603-.181l.282-.093 2.111-.654zm3.72 6.939v1.047l.006 3.152c.002.212-.059.308-.268.371l-1.868.577-.835.262-.223.059-.131.032-.008-.126-.009-.208v-1.237l-.006-3.026c-.002-.234.062-.347.295-.417l2.207-.681.84-.263v.459zm-10.76 3.211v2.268l.093-.008c.05-.004.089-.007.126-.018l.937-.293 1.944-.601c.203-.061.213-.181.213-.348l-.002-2.748-.001-1.641c0-.052-.006-.104-.013-.165l-.01-.102-.636.198-2.497.793c-.078.026-.146.207-.147.316l-.007 2.348z"/></g></svg>