<svg xmlns="http://www.w3.org/2000/svg" viewBox="0 0 32 32"><path fill="#fff" fill-rule="evenodd" d="M14.025 4.618a.5.5 0 0 1-.006.707l-2.201 2.166H26.06a1.5 1.5 0 0 1 1.5 1.5v9.033a.5.5 0 1 1-1 0V8.99a.5.5 0 0 0-.5-.5H11.818l2.2 2.165a.5.5 0 1 1-.7.713l-3.072-3.022a.5.5 0 0 1 0-.713l3.072-3.022a.5.5 0 0 1 .707.006Zm-9.077 8.813a.5.5 0 0 1 .5.5v11.96a.5.5 0 0 0 .5.5H17.5a.5.5 0 1 1 0 1H5.948a1.5 1.5 0 0 1-1.5-1.5V13.93a.5.5 0 0 1 .5-.5Z" clip-rule="evenodd"/><path fill="#F3F3FA" d="M21.004 29.77c0-2.294.002-4.573-.004-6.853 0-.184.134-.28.27-.315.173-.043.341-.106.512-.159.227-.07.456-.139.683-.21l.813-.255c.315-.097.631-.19.946-.288.276-.086.55-.177.826-.263.306-.095.613-.186.92-.28a.745.745 0 0 0 .126-.056c.38-.2.73-.023 1.085.087l.917.285c.277.086.553.173.83.258.305.095.612.188.917.285.202.064.4.135.602.197.232.07.469.131.7.203.233.072.463.15.692.232.112.04.161.126.161.25-.002 2.332-.001 4.664-.002 6.996a.287.287 0 0 1-.213.29c-.238.069-.473.145-.71.219l-1.036.322c-.294.092-.586.186-.879.279l-.839.264-1.104.344c-.21.066-.415.155-.63.19-.127.02-.271-.036-.402-.077-.535-.166-1.066-.343-1.6-.509-.604-.187-1.213-.362-1.816-.55-.42-.132-.836-.277-1.255-.415-.07-.023-.14-.04-.21-.064-.3-.098-.3-.098-.3-.407Zm1.142-.062c-.04-.012.072.027 0 0 .58.182 1.096.35 1.676.533.92.29 1.845.394 2.765.681-.24-.343-.05-.142 0-.157.573-.175.946-.19 1.517-.37.662-.206 1.175-.249 1.837-.457.306-.097.607-.132.913-.23-.127-.067.098-.009-.027-.05-.297-.097-.827-.064-1.119-.179-1.378.459-.03-2.507 0-2.52.436.137 1.155 2.608 1.59 2.745.187.058.195.052.195-.141 0-2.113 0-4.226.003-6.339 0-.12-.034-.172-.151-.209-1.408-.435-2.815-.877-4.222-1.316-.188-.06-.378-.116-.586-.18 0 .586.44 2.123.421 2.69-.023 0-1.802-.204-1.833-.23 0-.552 1.316-1.87 1.316-2.44-.095.023-.15.034-.204.051l-1.47.46c-1.03.322-2.059.645-3.09.962-.119.036-.163.087-.162.217.004 2.103 3.38 3.001 3.38 5.104 0 .22-.056.752.155.688 1.525-.465-1.376.197-2.904.687Z"/><path fill="#fff" d="M22.833 22.833h7.333v7.333h-7.333z"/><path fill="#fff" d="M26.537 23.236V21.52c.209.064.398.12.586.18 1.407.44 2.814.88 4.222 1.316.117.037.151.089.151.21-.003 2.112-.002 4.225-.003 6.337 0 .194-.008.2-.194.142-.436-.137-.87-.275-1.316-.429-.01-.787-.015-1.557-.007-2.326.002-.138-.044-.194-.17-.226-.207-.054-.41-.122-.613-.186l-.907-.286v-.171c0-.713-.002-1.426.002-2.139.001-.109-.032-.16-.139-.19-.32-.092-.636-.192-.953-.293-.22-.07-.44-.147-.66-.221Z"/><path fill="#B0B1C3" d="M23.004 29.309c-.423.127-.846.252-1.268.381-.21.065-.218.061-.218-.158 0-2.103 0-4.206-.003-6.309 0-.13.043-.18.162-.217 1.031-.317 2.06-.64 3.09-.961.49-.153.98-.308 1.47-.46.054-.017.11-.028.204-.052 0 .57 0 1.123-.005 1.695-.527.185-1.047.353-1.57.512-.11.034-.147.086-.146.202.006.718 0 1.436.005 2.154 0 .104-.032.15-.132.18-.473.143-.943.297-1.417.436-.135.04-.174.104-.172.242.006.785.001 1.57 0 2.355Z"/><path fill="#D9DAE5" d="m29.935 29.358.892.294c.125.041.25.08.378.148-.306.098-.612.198-.918.294-.662.209-1.323.416-1.985.623-.57.18-1.142.358-1.714.534a.294.294 0 0 1-.163.001c-.92-.287-1.84-.578-2.76-.867-.579-.183-1.16-.363-1.74-.544-.04-.013-.079-.029-.15-.055.444-.143.859-.276 1.292-.417.083.005.15.011.213.03.458.142.915.29 1.374.426a.487.487 0 0 0 .262.002c.492-.145.98-.303 1.471-.45a.4.4 0 0 1 .219 0c.481.145.96.303 1.442.445a.571.571 0 0 0 .304-.002c.401-.116.797-.249 1.197-.37.126-.039.257-.062.386-.091Z"/><path fill="#B0B1C3" fill-rule="evenodd" d="M26.404 24.748v1.943a3.582 3.582 0 0 0-.054-.013c-.033-.007-.062-.014-.09-.023l-.679-.212-.586-.184-.007-.002c-.057-.018-.105-.032-.104-.115a326.021 326.021 0 0 0 .004-2.125c0-.006.002-.011.005-.02a.45.45 0 0 0 .007-.023l.046.01c.032.009.065.016.098.026l.364.115c.277.088.554.176.833.257.127.036.19.087.165.223a.407.407 0 0 0-.003.09l.001.053Zm1.687 3.02v1.898l-.058-.014a1.513 1.513 0 0 1-.092-.024l-.434-.135c-.272-.085-.545-.17-.818-.253-.075-.023-.12-.05-.12-.143.004-.504.004-1.007.003-1.51v-.571a1.193 1.193 0 0 0 .009-.072l.102.03a29.333 29.333 0 0 1 .516.161c.242.077.485.154.73.223.128.036.185.092.163.226a.61.61 0 0 0-.003.119l.002.066Zm-3.886-.506-.14-.044-.878-.273-.008.02a.05.05 0 0 0-.007.02v.26c-.002.626-.003 1.253.002 1.88 0 .036.058.092.1.106.39.127.782.249 1.175.37l.13.04c.02.007.043.01.065.012l.03.004a.215.215 0 0 1 .005-.015c.004-.007.006-.013.006-.018v-.267c.002-.62.003-1.24-.001-1.86 0-.038-.052-.095-.093-.11a7.155 7.155 0 0 0-.386-.125Z" clip-rule="evenodd"/><path fill="#D9DAE5" fill-rule="evenodd" d="m25.853 24.095-.784-.244c.117-.037.23-.071.34-.104.248-.075.482-.146.711-.231a1.01 1.01 0 0 1 .754-.001c.227.086.46.156.705.229.108.032.218.065.33.1l-.055.023a.765.765 0 0 1-.069.028l-.262.083c-.298.094-.596.189-.895.276a.526.526 0 0 1-.26 0c-.119-.03-.236-.068-.356-.107a11.025 11.025 0 0 0-.159-.052Zm2.003 3.076-1.089-.34.071-.028c.036-.013.061-.023.088-.031l.201-.063c.314-.098.628-.196.943-.29a.358.358 0 0 1 .193-.013c.328.098.654.2.98.303l.26.082a2.613 2.613 0 0 0 .089.038l-.09.031c-.055.02-.1.035-.147.05l-.28.085c-.208.061-.415.123-.617.2a.765.765 0 0 1-.602-.024Zm-3.396.012c.222.082.43.096.656-.008l1.047-.328c-.447-.17-.89-.31-1.334-.443-.045-.014-.104 0-.152.015-.387.118-.772.238-1.158.36a.866.866 0 0 0-.08.03 2.992 2.992 0 0 1-.059.025l.065.024a1.9 1.9 0 0 0 .091.032l.288.088c.214.064.427.128.636.205Z" clip-rule="evenodd"/><path fill="#F3F3FA" fill-rule="evenodd" d="m28.116 23.965.006-.002h.003l.004.06c.002.036.005.066.005.096v.563c-.001.464-.002.929.003 1.393.001.118-.04.164-.148.196-.29.086-.577.177-.865.268l-.374.118-.085.022a2.745 2.745 0 0 0-.052.012c0-.018-.002-.035-.003-.052-.002-.033-.005-.063-.005-.094v-.569c0-.467.001-.934-.003-1.4 0-.112.033-.16.14-.185.093-.021.183-.051.277-.083l.13-.043.967-.3Zm1.705 3.18v.48c0 .486 0 .965.002 1.445.001.098-.026.142-.122.17-.287.085-.571.175-.856.264l-.383.12c-.032.01-.065.018-.102.027l-.06.015a3.868 3.868 0 0 0-.004-.058c-.002-.035-.004-.065-.004-.095v-.567c0-.463 0-.925-.003-1.387 0-.108.028-.16.135-.191a73.21 73.21 0 0 0 1.397-.433v.21Zm-4.932 1.472v1.04l.043-.004c.023-.002.041-.003.058-.008l.43-.135c.296-.093.593-.186.89-.275.093-.028.098-.083.098-.16a587.814 587.814 0 0 1-.001-2.011.686.686 0 0 0-.006-.076 1.964 1.964 0 0 1-.005-.047l-.291.091c-.386.12-.767.239-1.145.364-.036.012-.067.095-.067.145-.004.356-.004.713-.004 1.076Z" clip-rule="evenodd"/></svg>