<svg xmlns="http://www.w3.org/2000/svg" viewBox="0 0 32 32"><path fill="#0278D5" fill-rule="evenodd" d="M23.193 11.353c-.899-2.208-1.946-4.78-2.909-7.783a4.99 4.99 0 0 0-.782.433c-.741.486-1.687 1.28-2.526 2.294-1.685 2.036-2.854 4.837-1.335 7.816a.5.5 0 0 1-.283.7l-.162-.473c.162.473.16.473.16.473h-.001l-.004.002-.014.005a6.29 6.29 0 0 1-.791.185c-.48.079-1.142.134-1.855.03-.716-.106-1.495-.375-2.183-.955-.507-.427-.946-1.008-1.275-1.779a8.786 8.786 0 0 0-.58 1.038c-.57 1.2-1.153 3.05-1.153 5.61 0 3.04 1.488 5.729 3.77 7.371-.532-.908-.858-2.07-.848-3.522.006-.775.231-1.43.461-1.927.114-.246.231-.459.322-.624l.002-.004c.103-.185.148-.271.163-.316a.495.495 0 0 1 .633-.308.505.505 0 0 1 .334.417l.009.014c.043.073.12.181.233.32.223.274.55.624.927.97s.791.677 1.186.922c.353.219.648.342.866.378.25-.135.411-.461.472-.976.037-.306.029-.616.01-.855a5.16 5.16 0 0 0-.042-.359l-.003-.018v-.003a.498.498 0 1 1 .981-.173v.005l.002.008.005.028.014.098a5.464 5.464 0 0 1 .023 1.395c-.075.637-.336 1.53-1.217 1.835a.495.495 0 0 1-.184.027c-.484-.021-.995-.258-1.446-.537a9.274 9.274 0 0 1-1.337-1.037 11.033 11.033 0 0 1-.95-.982 6.024 6.024 0 0 0-.098.203c-.195.422-.364.93-.368 1.512-.014 2.027.701 3.305 1.603 4.083.601.52 1.305.833 1.972.987a9.007 9.007 0 0 0 3.873-.19.5.5 0 1 1 .264.964 9.957 9.957 0 0 1-3.066.342.495.495 0 0 1-.063.004c-.377 0-.79-.044-1.214-.14-4.71-.817-8.289-4.947-8.289-9.912 0-2.718.62-4.714 1.25-6.04a9.31 9.31 0 0 1 .875-1.486 5.996 5.996 0 0 1 .386-.477l.008-.008.018-.02.009-.008.002-.003h.001l.001-.002.354.353-.354-.353a.5.5 0 0 1 .838.225c.286 1.076.753 1.755 1.265 2.186.514.433 1.106.644 1.683.73a5.099 5.099 0 0 0 1.652-.047c-1.361-3.273.012-6.279 1.718-8.34.905-1.094 1.927-1.954 2.748-2.492.407-.267.785-.468 1.09-.575.145-.051.316-.096.483-.092.164.005.492.077.603.429.979 3.106 2.053 5.747 2.986 8.037v.002c.197.483.387.951.57 1.405 1.03 2.57 1.814 4.737 1.814 6.576a.5.5 0 0 1-1 0c0-1.613-.697-3.596-1.743-6.204-.179-.447-.368-.91-.564-1.392Z" clip-rule="evenodd"/><path fill="#fff" d="M21.004 29.77c0-2.294.002-4.573-.004-6.853 0-.184.134-.28.27-.315.173-.043.341-.106.512-.159.227-.07.456-.139.683-.21l.813-.255c.315-.097.631-.19.946-.288.276-.086.55-.177.826-.263.306-.095.613-.186.92-.28a.745.745 0 0 0 .126-.056c.38-.2.73-.023 1.085.087l.917.285c.277.086.553.173.83.258.305.095.612.188.917.285.202.064.4.135.602.197.232.07.469.131.7.203.233.072.463.15.692.232.112.04.161.126.161.25-.002 2.332-.001 4.664-.002 6.996a.287.287 0 0 1-.213.29c-.238.069-.473.145-.71.219l-1.036.322c-.294.092-.586.186-.879.279l-.839.264-1.104.344c-.21.066-.415.155-.63.19-.127.02-.271-.036-.402-.077-.535-.166-1.066-.343-1.6-.509-.604-.187-1.213-.362-1.816-.55-.42-.132-.836-.277-1.255-.415-.07-.023-.14-.04-.21-.064-.3-.098-.3-.098-.3-.407Zm2.045-.388c-.415.133-.83.266-1.274.41.071.026.11.042.15.054l1.74.544c.92.29 1.84.58 2.76.868.05.016.113.014.163-.002a1060.124 1060.124 0 0 0 3.698-1.156c.307-.097.613-.196.919-.294-.127-.068-.253-.107-.378-.148a16.331 16.331 0 0 1-.887-.31c.011-.021.022-.042.053-.056l1.306.412c.186.058.194.052.194-.141 0-2.113 0-4.226.003-6.339 0-.12-.034-.172-.151-.209-1.408-.435-2.815-.877-4.222-1.316-.188-.06-.378-.116-.586-.18 0 .586 0 1.152-.018 1.718a.097.097 0 0 1-.078-.023v-1.675c-.095.023-.15.034-.204.051l-1.47.46c-1.03.322-2.059.645-3.09.962-.119.036-.163.087-.162.217.004 2.103.003 4.206.003 6.309 0 .219.007.222.218.158.422-.129.845-.255 1.285-.38.013.017.027.033.028.066Z"/><path fill="#B4E8FE" d="M21.004 29.77c0-2.294.002-4.573-.004-6.853 0-.184.134-.28.27-.315.173-.043.341-.106.512-.159.227-.07.456-.139.683-.21l.813-.255c.315-.097.631-.19.946-.288.276-.086.55-.177.826-.263.306-.095.613-.186.92-.28a.745.745 0 0 0 .126-.056c.38-.2.73-.023 1.085.087l.917.285c.277.086.553.173.83.258.305.095.612.188.917.285.202.064.4.135.602.197.232.07.469.131.7.203.233.072.463.15.692.232.112.04.161.126.161.25-.002 2.332-.001 4.664-.002 6.996a.287.287 0 0 1-.213.29c-.238.069-.473.145-.71.219l-1.036.322c-.294.092-.586.186-.879.279l-.839.264-1.104.344c-.21.066-.415.155-.63.19-.127.02-.271-.036-.402-.077-.535-.166-1.066-.343-1.6-.509-.604-.187-1.213-.362-1.816-.55-.42-.132-.836-.277-1.255-.415-.07-.023-.14-.04-.21-.064-.3-.098-.3-.098-.3-.407Zm2.045-.388c-.415.133-.83.266-1.274.41.071.026.11.042.15.054l1.74.544c.92.29 1.84.58 2.76.868.05.016.113.014.163-.002a1060.124 1060.124 0 0 0 3.698-1.156c.307-.097.613-.196.919-.294-.127-.068-.253-.107-.378-.148a16.331 16.331 0 0 1-.887-.31c.011-.021.022-.042.053-.056l1.306.412c.186.058.194.052.194-.141 0-2.113 0-4.226.003-6.339 0-.12-.034-.172-.151-.209-1.408-.435-2.815-.877-4.222-1.316-.188-.06-.378-.116-.586-.18 0 .586 0 1.152-.018 1.718a.097.097 0 0 1-.078-.023v-1.675c-.095.023-.15.034-.204.051l-1.47.46c-1.03.322-2.059.645-3.09.962-.119.036-.163.087-.162.217.004 2.103.003 4.206.003 6.309 0 .219.007.222.218.158.422-.129.845-.255 1.285-.38.013.017.027.033.028.066Z"/><path fill="#247EA0" d="M26.537 23.236V21.52c.209.064.398.12.586.18 1.407.44 2.814.88 4.222 1.316.117.037.151.089.151.21-.003 2.112-.002 4.225-.003 6.337 0 .194-.008.2-.194.142-.436-.137-.87-.275-1.316-.429-.01-.787-.015-1.557-.007-2.326.002-.138-.044-.194-.17-.226-.207-.054-.41-.122-.613-.186l-.907-.286v-.171c0-.713-.002-1.426.002-2.139.001-.109-.032-.16-.139-.19-.32-.092-.636-.192-.953-.293-.22-.07-.44-.147-.66-.221Z"/><path fill="#69AFCA" d="M23.004 29.309c-.423.127-.846.252-1.268.381-.21.065-.218.061-.218-.158 0-2.103 0-4.206-.003-6.309 0-.13.043-.18.162-.217 1.031-.317 2.06-.64 3.09-.961.49-.153.98-.308 1.47-.46.054-.017.11-.028.204-.052 0 .57 0 1.123-.005 1.695-.527.185-1.047.353-1.57.512-.11.034-.147.086-.146.202.006.718 0 1.436.005 2.154 0 .104-.032.15-.132.18-.473.143-.943.297-1.417.436-.135.04-.174.104-.172.242.006.785.001 1.57 0 2.355Z"/><path fill="#80C6E1" d="m29.935 29.358.892.294c.125.041.25.08.378.148-.306.098-.612.198-.918.294-.662.209-1.323.416-1.985.623-.57.18-1.142.358-1.714.534a.294.294 0 0 1-.163.001c-.92-.287-1.84-.578-2.76-.867-.579-.183-1.16-.363-1.74-.544-.04-.013-.079-.029-.15-.055.444-.143.859-.276 1.292-.417.083.005.15.011.213.03.458.142.915.29 1.374.426a.487.487 0 0 0 .262.002c.492-.145.98-.303 1.471-.45a.4.4 0 0 1 .219 0c.481.145.96.303 1.442.445a.571.571 0 0 0 .304-.002c.401-.116.797-.249 1.197-.37.126-.039.257-.062.386-.091Z"/><path fill="#FDFBF6" d="M29.938 29.35c-.132.038-.262.061-.389.1-.4.121-.796.254-1.197.37a.57.57 0 0 1-.303.002c-.483-.142-.962-.3-1.443-.445a.4.4 0 0 0-.219 0c-.491.147-.98.305-1.47.45a.486.486 0 0 1-.263-.002c-.46-.137-.916-.284-1.374-.425-.063-.02-.13-.026-.207-.04-.025-.017-.039-.033-.06-.05-.008-.786-.003-1.571-.01-2.356 0-.138.038-.202.173-.242.474-.139.944-.293 1.417-.435.1-.03.133-.077.132-.18-.004-.719 0-1.437-.005-2.155 0-.116.036-.168.146-.202.523-.16 1.043-.327 1.573-.499a.426.426 0 0 1 .089-.01c.229.074.447.15.668.221.317.101.634.202.953.293.107.03.14.082.14.19-.005.713-.003 1.426-.003 2.14v.17c.304.096.605.192.907.286.204.064.406.133.613.186.126.033.172.089.17.226-.008.77-.003 1.54-.003 2.323-.01.034-.022.055-.035.084Zm-.117-2.218v-.197c-.482.15-.938.296-1.397.433-.106.032-.136.083-.135.19.005.652.002 1.303.003 1.955 0 .045.005.091.008.153.064-.017.114-.027.162-.042.413-.128.824-.26 1.239-.384.096-.028.123-.072.122-.17-.004-.637-.002-1.274-.002-1.938Zm-2.683-2.87c-.132.043-.261.093-.395.123-.108.025-.142.073-.14.185.005.656.002 1.313.002 1.97 0 .045.005.09.008.146.055-.014.097-.023.137-.035.413-.129.824-.262 1.239-.385.109-.033.15-.078.148-.197-.006-.652-.003-1.304-.003-1.956 0-.045-.005-.09-.01-.156l-.986.306Zm-2.248 4.691v.704c.045-.006.074-.004.1-.012.44-.137.879-.278 1.32-.41.093-.028.098-.083.098-.16-.002-.67 0-1.34-.001-2.011 0-.036-.006-.072-.01-.123-.488.153-.964.299-1.437.455-.035.012-.067.095-.067.145-.006.461-.003.922-.003 1.412Zm3.2-1.198c0-.057-.006-.115.002-.171.022-.134-.035-.19-.164-.226-.347-.097-.69-.212-1.034-.32l-.313-.095c-.004.035-.009.054-.009.072 0 .694.002 1.388-.002 2.082-.001.094.044.12.12.143.417.127.833.259 1.25.388.044.014.09.023.15.038v-1.911Zm-1.686-3.027c0-.043-.006-.087.002-.128.024-.136-.038-.187-.165-.224-.401-.116-.799-.247-1.197-.371-.048-.015-.096-.025-.143-.037-.008.025-.013.034-.013.043-.001.709 0 1.417-.005 2.125 0 .087.052.1.112.118l1.265.396c.042.013.087.021.144.036v-1.958Zm-2.35 2.487-.867-.27c-.008.022-.015.03-.015.04-.001.713-.003 1.426.002 2.14 0 .036.058.092.1.106.433.14.87.275 1.305.41.03.01.064.011.094.016.006-.016.012-.025.012-.033.002-.709.004-1.418-.001-2.126 0-.039-.052-.096-.093-.111-.169-.062-.343-.111-.537-.172Zm3.813-.041a.75.75 0 0 0 .591.021c.293-.111.598-.191.897-.285.07-.022.139-.047.237-.08-.05-.022-.069-.032-.09-.039-.412-.13-.824-.261-1.239-.385a.358.358 0 0 0-.193.012c-.382.115-.763.235-1.144.354-.041.013-.08.03-.159.058l1.1.344Zm-2.003-3.081c.168.053.334.114.504.155.083.02.18.024.26 0 .388-.113.772-.238 1.157-.359.033-.01.064-.026.125-.05-.367-.115-.708-.206-1.036-.33a1.01 1.01 0 0 0-.754.001c-.33.124-.673.216-1.051.335.285.09.53.165.795.248Zm-.737 3.073 1.036-.325c-.447-.17-.89-.31-1.334-.443-.045-.013-.104.001-.152.016-.386.117-.772.238-1.158.358-.038.012-.074.03-.139.056.07.026.113.043.156.056.308.097.621.181.924.293a.82.82 0 0 0 .667-.01Z"/><path fill="#FFC433" d="M29.821 27.145c0 .651-.002 1.288.002 1.925.001.098-.026.142-.122.17-.415.123-.826.256-1.239.384-.048.015-.098.026-.162.042-.003-.062-.008-.108-.008-.153 0-.652.002-1.303-.003-1.954 0-.108.029-.16.135-.191.46-.137.915-.283 1.397-.433v.21ZM27.148 24.265l.977-.303c.004.066.009.112.009.157 0 .652-.003 1.304.003 1.956.001.118-.04.164-.148.196-.415.123-.826.257-1.24.386-.04.012-.08.02-.136.034-.003-.055-.008-.1-.008-.146 0-.656.003-1.313-.003-1.97 0-.11.033-.16.14-.184.135-.03.264-.08.406-.126Z"/><path fill="#FFC331" d="M24.89 28.94c0-.477-.003-.938.003-1.4 0-.05.031-.132.067-.144.473-.156.95-.302 1.436-.455.005.05.01.087.01.123.001.67 0 1.34.002 2.011 0 .077-.005.132-.098.16-.441.132-.88.273-1.32.41-.026.008-.055.006-.1.012v-.718Z"/><path fill="#FA9B35" d="M28.09 27.769v1.898c-.06-.016-.106-.025-.15-.039-.417-.13-.833-.26-1.25-.388-.076-.023-.121-.05-.12-.143.004-.694.002-1.388.002-2.082 0-.018.005-.037.01-.072l.312.096c.345.107.687.222 1.034.32.13.035.186.091.164.225-.008.056-.001.114-.001.185Z"/><path fill="#FA9A35" d="M26.404 24.748v1.943c-.057-.014-.102-.022-.144-.036-.422-.131-.843-.264-1.265-.396-.06-.018-.112-.03-.112-.117.004-.709.004-1.417.005-2.125 0-.01.005-.018.012-.043.048.012.096.022.144.037.398.124.796.255 1.197.37.127.037.19.088.165.224-.008.042-.002.086-.002.143ZM24.065 27.218c.183.058.357.107.526.169.04.015.093.072.093.11.005.71.003 1.418.001 2.127 0 .008-.006.017-.012.033-.03-.005-.064-.006-.094-.015-.436-.136-.872-.27-1.306-.411-.041-.014-.1-.07-.1-.107-.004-.713-.002-1.426 0-2.14 0-.008.006-.017.014-.04l.878.274Z"/><path fill="#FFD323" d="M27.856 27.17c-.356-.11-.7-.218-1.089-.34.078-.029.118-.045.159-.058.38-.12.762-.24 1.144-.354a.358.358 0 0 1 .193-.012c.415.124.827.255 1.24.385.02.006.04.017.089.038-.098.034-.167.059-.237.08-.3.095-.604.175-.897.286a.766.766 0 0 1-.602-.024ZM25.853 24.095l-.784-.244c.378-.12.72-.211 1.051-.335a1.01 1.01 0 0 1 .754-.001c.328.124.669.214 1.036.329-.061.025-.092.04-.125.05-.385.122-.77.247-1.157.36a.526.526 0 0 1-.26 0c-.17-.042-.336-.103-.515-.159ZM25.116 27.175c-.225.104-.434.09-.656.008-.303-.112-.616-.196-.924-.293-.043-.014-.085-.03-.156-.056.065-.026.1-.044.139-.056l1.158-.359c.048-.014.107-.029.152-.015.444.133.887.273 1.334.443l-1.047.328Z"/></svg>