<svg xmlns="http://www.w3.org/2000/svg" viewBox="0 0 24 24"><path fill="#F3F3FA" d="M.008 19.134C.008 14.13.013 9.156 0 4.182c-.001-.4.292-.611.588-.686.378-.095.745-.232 1.118-.347.496-.154.994-.304 1.49-.458.592-.184 1.182-.374 1.775-.556.687-.212 1.377-.416 2.064-.63.601-.187 1.2-.386 1.8-.573.668-.207 1.339-.405 2.007-.612.096-.029.188-.074.276-.12.83-.44 1.593-.051 2.368.188l2.001.623 1.81.563c.667.207 1.336.41 2.002.62.439.14.872.296 1.312.43.508.155 1.023.287 1.53.444.506.158 1.008.328 1.507.507.245.087.352.273.352.545-.004 5.088-.003 10.176-.003 15.264 0 .321-.185.549-.466.63-.518.152-1.032.32-1.547.48-.755.234-1.51.467-2.263.703-.64.2-1.278.405-1.917.607l-1.83.576c-.803.252-1.606.5-2.409.752-.457.143-.906.338-1.374.412-.278.045-.594-.077-.879-.165-1.166-.363-2.324-.75-3.49-1.111-1.319-.409-2.646-.79-3.963-1.201-.917-.287-1.825-.603-2.737-.905-.152-.05-.307-.089-.46-.139-.654-.214-.654-.215-.654-.89ZM2.5 19c-.088-.027.157.058 0 0 1.266.396 2.393.764 3.658 1.162 2.006.631 4.025.86 6.033 1.486-.524-.75-.11-.309 0-.343 1.248-.382 2.063-.415 3.309-.805 1.444-.452 2.564-.545 4.006-1 .67-.21 1.326-.286 1.994-.5-.277-.148.214-.02-.059-.11-.649-.212-1.804-.14-2.441-.39-3.007 1-.067-5.47 0-5.5.95.3 2.52 5.692 3.47 5.99.407.128.425.114.425-.308 0-4.61-.002-9.22.006-13.83 0-.261-.075-.376-.33-.455-3.073-.95-6.141-1.913-9.21-2.872-.413-.129-.825-.253-1.28-.393 0 1.28.958 4.633.919 5.868-.051.003-3.932-.445-4-.5 0-1.206 2.871-4.08 2.871-5.324-.207.051-.327.075-.444.112-1.07.333-2.138.67-3.207 1.003-2.247.702-4.493 1.406-6.743 2.098-.259.08-.355.191-.354.474C1.133 9.451 8.5 11.412 8.5 16c0 .478-.123 1.64.336 1.5 3.327-1.015-3.002.43-6.336 1.5Z"/><path fill="#fff" d="M4 4h16v16H4z"/><path fill="#fff" d="M12.08 4.88V1.132c.456.14.868.264 1.28.393 3.07.959 6.138 1.922 9.21 2.872.256.08.331.194.33.456-.007 4.61-.005 9.22-.005 13.829 0 .422-.018.436-.425.308-.95-.298-1.9-.599-2.871-.935a220.286 220.286 0 0 1-.015-5.076c.003-.3-.096-.421-.37-.493-.452-.116-.894-.267-1.338-.406-.66-.206-1.317-.415-1.979-.624v-.373c0-1.555-.004-3.11.005-4.666.002-.237-.071-.349-.304-.415a72.33 72.33 0 0 1-2.08-.64c-.48-.153-.958-.32-1.437-.482Z"/><path fill="#B0B1C3" d="M4.373 18.128c-.923.277-1.846.552-2.768.833-.459.14-.476.132-.476-.346 0-4.588.003-9.176-.006-13.764-.001-.283.095-.395.354-.474 2.25-.692 4.496-1.396 6.743-2.098 1.07-.334 2.137-.67 3.207-1.003.117-.037.237-.06.444-.112 0 1.243 0 2.449-.012 3.697-1.148.403-2.283.77-3.423 1.118-.241.074-.321.186-.32.439.012 1.567.002 3.134.011 4.701.002.226-.068.328-.287.394-1.033.31-2.058.647-3.093.95-.294.087-.378.226-.376.528.014 1.712.004 3.425.002 5.137Z"/><path fill="#D9DAE5" d="m19.495 18.237 1.946.641c.273.09.547.175.824.323-.668.214-1.335.43-2.003.641-1.443.455-2.887.908-4.33 1.36-1.246.39-2.491.78-3.74 1.163a.641.641 0 0 1-.356.004c-2.008-.627-4.013-1.262-6.02-1.893-1.264-.398-2.53-.791-3.796-1.187-.088-.027-.173-.063-.33-.12.97-.312 1.875-.603 2.82-.91.181.01.327.026.464.068 1 .308 1.996.63 2.999.927.177.052.395.057.571.005 1.073-.317 2.138-.662 3.21-.983a.874.874 0 0 1 .476 0c1.052.318 2.095.662 3.149.971.204.06.456.056.66-.003.877-.253 1.742-.543 2.614-.808.275-.084.561-.134.842-.2Z"/><path fill="#B0B1C3" fill-rule="evenodd" d="M11.791 8.177v4.24l-.118-.028a2.635 2.635 0 0 1-.197-.05l-1.481-.464-1.278-.4-.017-.005c-.123-.038-.228-.07-.227-.252.006-1.114.007-2.228.008-3.343l.001-1.293c0-.012.004-.024.012-.044l.016-.05.098.025c.072.016.144.034.214.055l.795.251c.604.192 1.209.383 1.818.56.276.079.413.191.359.487a.886.886 0 0 0-.005.195l.002.116Zm3.68 6.591v4.14a9.342 9.342 0 0 0-.126-.03 3.145 3.145 0 0 1-.202-.053l-.945-.294c-.595-.186-1.19-.371-1.785-.554-.164-.05-.263-.106-.261-.312.006-1.097.006-2.195.006-3.293V13.125c0-.026.004-.052.01-.088l.01-.07.22.067c.157.047.31.093.462.141l.665.21a47.78 47.78 0 0 0 1.591.487c.282.08.405.2.358.493-.013.082-.01.166-.006.26.001.045.003.093.003.143Zm-8.478-1.106-.306-.094-1.915-.597c-.007.018-.013.032-.019.043a.11.11 0 0 0-.014.043l-.001.568c-.003 1.367-.005 2.734.004 4.1 0 .08.127.203.218.233.852.277 1.708.543 2.564.809l.284.088c.046.014.094.02.142.024l.064.008a.49.49 0 0 1 .014-.031c.007-.016.013-.029.013-.04v-.582c.003-1.352.006-2.705-.003-4.057 0-.083-.114-.21-.203-.242-.273-.1-.553-.186-.842-.273Z" clip-rule="evenodd"/><path fill="#D9DAE5" fill-rule="evenodd" d="M10.589 6.753 8.877 6.22c.255-.08.502-.155.743-.227a24.805 24.805 0 0 0 1.55-.504 2.202 2.202 0 0 1 1.646-.002c.496.188 1.005.34 1.538.499.236.07.476.142.722.22l-.122.05c-.06.026-.104.045-.15.06l-.573.181c-.649.206-1.298.412-1.951.603a1.146 1.146 0 0 1-.567 0c-.26-.064-.515-.148-.778-.235l-.346-.112Zm4.37 6.71-2.376-.742.155-.06c.077-.029.133-.05.19-.068l.44-.137c.685-.214 1.37-.428 2.058-.634.133-.04.294-.065.42-.027.716.213 1.428.438 2.14.662l.565.178a.87.87 0 0 1 .098.04l.096.043-.197.068c-.118.041-.218.076-.319.108-.203.063-.407.124-.611.185-.453.135-.905.27-1.346.438-.454.172-.865.133-1.313-.054Zm-7.41.027c.485.18.94.21 1.432-.018l2.284-.715c-.975-.371-1.941-.675-2.911-.967-.099-.03-.226.002-.331.034-.844.257-1.685.52-2.527.783-.054.017-.106.039-.174.068a7.167 7.167 0 0 1-.129.054l.142.052c.077.028.137.05.198.07.209.065.419.128.629.191.466.14.932.28 1.388.448Z" clip-rule="evenodd"/><path fill="#F3F3FA" fill-rule="evenodd" d="m15.526 6.47.013-.005.006-.002.009.134c.006.078.01.143.01.208v1.228c-.001 1.013-.002 2.027.008 3.04.002.258-.086.357-.323.428-.631.187-1.26.386-1.887.584l-.818.257a2.72 2.72 0 0 1-.184.048 8.718 8.718 0 0 0-.112.027 7.552 7.552 0 0 0-.008-.114 2.862 2.862 0 0 1-.01-.204v-1.242c0-1.019.002-2.037-.007-3.056-.002-.243.07-.35.307-.403.201-.045.398-.112.603-.18.092-.032.186-.064.282-.094l2.111-.655Zm3.72 6.938v1.047c-.001 1.06-.002 2.106.005 3.153.002.212-.059.308-.268.37-.624.186-1.246.381-1.867.577l-.835.261c-.07.022-.142.04-.223.06l-.131.031-.008-.126c-.005-.076-.01-.142-.01-.208l.001-1.237c0-1.009.001-2.017-.006-3.026-.002-.235.062-.347.295-.417.73-.218 1.458-.446 2.207-.68l.84-.264v.46ZM8.486 16.62v2.268l.093-.008c.05-.004.09-.006.126-.018l.937-.293a157.91 157.91 0 0 1 1.944-.601c.203-.061.213-.181.213-.348-.002-.916-.002-1.832-.002-2.748V13.23c0-.052-.007-.104-.013-.165a4.38 4.38 0 0 1-.01-.102l-.636.198c-.843.263-1.673.521-2.498.794-.077.025-.146.206-.147.316-.009.778-.008 1.556-.007 2.348Z" clip-rule="evenodd"/></svg>