<svg xmlns="http://www.w3.org/2000/svg" viewBox="0 0 32 32"><path fill="#fff" fill-rule="evenodd" d="M27.846 9.217a.92.92 0 0 0-.668-.762.979.979 0 0 0-.956.256l-3.028 3.028-3.26-3.26 3.028-3.028a.975.975 0 0 0 .256-.955.92.92 0 0 0-.762-.668 6.394 6.394 0 0 0-5.472 1.806 6.4 6.4 0 0 0-1.688 6.069l-8.329 8.329-.551.539-.74.734c-.379.397-.724.814-.926 1.275a2.098 2.098 0 0 0-.069 1.565c.182.541.572 1.09 1.165 1.683s1.142.983 1.683 1.165c.563.19 1.081.142 1.565-.069.461-.202.878-.547 1.275-.926l.734-.74.539-.551 8.329-8.329a6.4 6.4 0 0 0 6.068-1.688 6.396 6.396 0 0 0 1.806-5.472zm-8.928 6.8c-.701-.31-1.358-.753-1.933-1.328s-1.017-1.231-1.328-1.932l-7.982 7.982-.589.576-.686.68c-.361.378-.604.691-.733.985a1.1 1.1 0 0 0-.038.845c.112.334.383.754.924 1.295s.962.812 1.295.924a1.1 1.1 0 0 0 .845-.038c.294-.129.607-.372.985-.733l.68-.686.576-.589 7.982-7.982zm4.984-3.57 2.97-2.97a5.403 5.403 0 1 1-4.675-4.675l-2.97 2.97a1 1 0 0 0 0 1.414l3.26 3.26a1 1 0 0 0 1.414 0z"/><path fill="#f3f3fa" d="M21.004 29.77 21 22.917c0-.184.134-.28.269-.315.173-.044.342-.106.512-.159l.683-.21.813-.255.946-.288.826-.263.92-.28a.75.75 0 0 0 .127-.055c.38-.201.73-.023 1.085.087l.917.285.829.258.918.285.601.197.701.204.691.232c.112.04.162.125.161.25l-.002 6.996a.286.286 0 0 1-.213.289l-.709.219-1.037.323-.878.278-.839.264-1.104.344c-.21.066-.415.155-.63.189-.127.02-.272-.035-.403-.076l-1.6-.509-1.816-.551-1.254-.415-.211-.064c-.3-.098-.3-.098-.3-.408zm1.142-.061c-.04-.013.072.026 0 0l1.676.533c.92.289 1.845.394 2.765.681-.24-.344-.05-.142 0-.157.572-.175.946-.19 1.517-.369.662-.207 1.175-.25 1.836-.458.306-.097.608-.131.914-.229-.127-.068.098-.009-.027-.05-.297-.098-.827-.064-1.119-.179-1.378.458-.031-2.507 0-2.521.435.137 1.155 2.609 1.591 2.746.186.058.195.052.195-.141l.003-6.338c0-.12-.035-.172-.151-.209l-4.221-1.317-.587-.18c0 .586.439 2.123.421 2.689-.023.001-1.802-.204-1.833-.229 0-.553 1.316-1.87 1.316-2.44l-.204.051-1.47.46-3.09.961c-.119.037-.163.088-.163.217.004 2.103 3.381 3.002 3.381 5.104 0 .219-.057.752.154.688 1.525-.465-1.376.197-2.904.688z"/><g fill="#fff"><path d="M22.833 22.833h7.333v7.333h-7.333z"/><path d="M26.537 23.237v-1.718l.587.18 4.221 1.317c.117.036.152.088.151.209l-.003 6.339c0 .193-.008.2-.195.141l-1.316-.429-.007-2.327a.19.19 0 0 0-.17-.226l-.613-.186-.907-.286v-.171l.002-2.139c.001-.109-.033-.16-.139-.19l-.953-.293-.659-.221z"/></g><path fill="#b0b1c3" d="m23.004 29.309-1.268.382c-.21.064-.218.061-.218-.158l-.003-6.309c0-.129.044-.181.163-.217l3.091-.961 1.47-.46c.054-.017.109-.028.204-.051l-.005 1.695-1.569.512c-.11.034-.147.085-.146.201l.005 2.155c.001.103-.032.15-.132.18l-1.418.436c-.135.04-.173.103-.172.242v2.355z"/><path fill="#d9dae5" d="m29.935 29.359.892.294c.125.041.251.08.378.148l-.918.294-1.984.623-1.714.533a.305.305 0 0 1-.164.002l-2.759-.868-1.74-.544-.151-.055 1.293-.417c.083.005.15.012.213.031l1.375.425a.496.496 0 0 0 .262.003l1.471-.451a.4.4 0 0 1 .219 0l1.443.445a.57.57 0 0 0 .303-.002l1.198-.37c.126-.038.257-.061.386-.091z"/><g fill-rule="evenodd"><path fill="#b0b1c3" d="M26.404 24.748v1.944l-.054-.013-.091-.023-.679-.212-.586-.184-.008-.002c-.057-.018-.105-.032-.104-.115l.004-1.532.001-.593c0-.006.002-.011.005-.02l.008-.023.045.011.098.026.364.115.833.256c.127.037.189.088.165.224-.005.028-.004.056-.003.089l.001.053zm1.687 3.021v1.898l-.058-.014-.093-.024-.433-.135-.818-.254c-.075-.023-.12-.049-.12-.143l.003-1.509v-.571c0-.012.002-.024.004-.04l.005-.032.102.031.211.065.305.096.729.223c.129.036.185.092.164.226a.61.61 0 0 0-.003.119l.002.066zm-3.886-.507-.141-.043-.877-.274-.009.02a.049.049 0 0 0-.006.02v.261l.002 1.879c0 .037.058.093.1.106l1.175.371.13.04a.34.34 0 0 0 .065.011l.03.004c.009-.022.012-.027.012-.033v-.267l-.002-1.859c0-.038-.052-.096-.093-.111l-.386-.125z"/><path fill="#d9dae5" d="m25.853 24.095-.785-.245.34-.104.711-.231a1.01 1.01 0 0 1 .754-.001l.705.229.331.101-.056.023-.069.027-.263.083-.894.276a.532.532 0 0 1-.26 0 4.497 4.497 0 0 1-.356-.107l-.159-.051zm2.003 3.075-1.089-.34.071-.027.087-.032.201-.063.943-.291a.355.355 0 0 1 .193-.012l.98.303.259.082c.013.004.025.01.045.018l.044.02-.09.031-.146.049-.28.085-.617.2a.769.769 0 0 1-.602-.024zm-3.396.012c.222.082.43.096.656-.008l1.047-.328-1.334-.443c-.045-.014-.104.001-.152.016l-1.158.359a.84.84 0 0 0-.08.031l-.059.025.065.024.091.032.288.088.636.205z"/><path fill="#f3f3fa" d="m28.116 23.965.006-.002.003-.001.004.061.005.096v.563l.004 1.393c.001.118-.039.164-.148.196l-.865.267-.375.118-.085.022-.051.012-.003-.052-.005-.094v-.569l-.003-1.401c-.001-.111.032-.16.14-.184.092-.021.183-.051.276-.083l.129-.043.968-.3zm1.705 3.18v.48l.002 1.445c.001.097-.027.141-.123.17l-.856.264-.383.12-.102.027-.06.015-.004-.058-.004-.095v-.567l-.003-1.387c-.001-.107.028-.159.135-.191l1.012-.312.385-.12v.21zm-4.932 1.472v1.04l.042-.004c.023-.002.041-.003.058-.008l.43-.134.891-.276c.093-.028.098-.083.098-.159l-.001-1.26v-.752c0-.024-.003-.048-.006-.076l-.005-.047-.291.091-1.145.364c-.036.012-.067.095-.067.145l-.003 1.076z"/></g></svg>