<svg xmlns="http://www.w3.org/2000/svg" viewBox="0 0 24 24"><path fill="#fff" d="M.008 19.134C.008 14.13.013 9.156 0 4.182c-.001-.4.292-.611.588-.686.378-.095.745-.232 1.118-.347.496-.154.994-.304 1.49-.458.592-.184 1.182-.374 1.775-.556.687-.212 1.377-.416 2.064-.63.601-.187 1.2-.386 1.8-.573.668-.207 1.339-.405 2.007-.612.096-.029.188-.074.276-.12.83-.44 1.593-.051 2.368.188l2.001.623 1.81.563c.667.207 1.336.41 2.002.62.439.14.872.296 1.312.43.508.155 1.023.287 1.53.444.506.158 1.008.328 1.507.507.245.087.352.273.352.545-.004 5.088-.003 10.176-.003 15.264 0 .321-.185.549-.466.63-.518.152-1.032.32-1.547.48-.755.234-1.51.467-2.263.703-.64.2-1.278.405-1.917.607l-1.83.576c-.803.252-1.606.5-2.409.752-.457.143-.906.338-1.374.412-.278.045-.594-.077-.879-.165-1.166-.363-2.324-.75-3.49-1.111-1.319-.409-2.646-.79-3.963-1.201-.917-.287-1.825-.603-2.737-.905-.152-.05-.307-.089-.46-.139-.654-.214-.654-.215-.654-.89Zm4.462-.846-2.78.893c.157.057.242.093.33.12 1.265.396 2.532.789 3.797 1.187 2.006.63 4.011 1.267 6.019 1.893.109.034.247.03.357-.004 1.248-.382 2.493-.773 3.739-1.163 1.443-.452 2.887-.905 4.33-1.36.668-.21 1.335-.427 2.003-.641-.277-.148-.551-.233-.824-.323a35.708 35.708 0 0 1-1.934-.677c.023-.046.047-.092.114-.121.95.3 1.9.6 2.85.898.406.128.424.114.424-.308 0-4.61-.002-9.22.006-13.83 0-.261-.075-.376-.33-.455-3.073-.95-6.141-1.913-9.21-2.872-.413-.129-.825-.253-1.28-.393 0 1.28 0 2.514-.04 3.748-.05.003-.102.006-.17-.05V1.176c-.207.051-.327.075-.444.112-1.07.333-2.138.67-3.207 1.003-2.247.702-4.493 1.406-6.743 2.098-.259.08-.355.191-.354.474.01 4.588.006 9.176.006 13.765 0 .478.017.485.476.345.922-.281 1.845-.556 2.804-.828.03.035.06.07.061.143Z"/><path fill="#B4E8FE" d="M.008 19.134C.008 14.13.013 9.156 0 4.182c-.001-.4.292-.611.588-.686.378-.095.745-.232 1.118-.347.496-.154.994-.304 1.49-.458.592-.184 1.182-.374 1.775-.556.687-.212 1.377-.416 2.064-.63.601-.187 1.2-.386 1.8-.573.668-.207 1.339-.405 2.007-.612.096-.029.188-.074.276-.12.83-.44 1.593-.051 2.368.188l2.001.623 1.81.563c.667.207 1.336.41 2.002.62.439.14.872.296 1.312.43.508.155 1.023.287 1.53.444.506.158 1.008.328 1.507.507.245.087.352.273.352.545-.004 5.088-.003 10.176-.003 15.264 0 .321-.185.549-.466.63-.518.152-1.032.32-1.547.48-.755.234-1.51.467-2.263.703-.64.2-1.278.405-1.917.607l-1.83.576c-.803.252-1.606.5-2.409.752-.457.143-.906.338-1.374.412-.278.045-.594-.077-.879-.165-1.166-.363-2.324-.75-3.49-1.111-1.319-.409-2.646-.79-3.963-1.201-.917-.287-1.825-.603-2.737-.905-.152-.05-.307-.089-.46-.139-.654-.214-.654-.215-.654-.89Zm4.462-.846-2.78.893c.157.057.242.093.33.12 1.265.396 2.532.789 3.797 1.187 2.006.63 4.011 1.267 6.019 1.893.109.034.247.03.357-.004 1.248-.382 2.493-.773 3.739-1.163 1.443-.452 2.887-.905 4.33-1.36.668-.21 1.335-.427 2.003-.641-.277-.148-.551-.233-.824-.323a35.708 35.708 0 0 1-1.934-.677c.023-.046.047-.092.114-.121.95.3 1.9.6 2.85.898.406.128.424.114.424-.308 0-4.61-.002-9.22.006-13.83 0-.261-.075-.376-.33-.455-3.073-.95-6.141-1.913-9.21-2.872-.413-.129-.825-.253-1.28-.393 0 1.28 0 2.514-.04 3.748-.05.003-.102.006-.17-.05V1.176c-.207.051-.327.075-.444.112-1.07.333-2.138.67-3.207 1.003-2.247.702-4.493 1.406-6.743 2.098-.259.08-.355.191-.354.474.01 4.588.006 9.176.006 13.765 0 .478.017.485.476.345.922-.281 1.845-.556 2.804-.828.03.035.06.07.061.143Z"/><path fill="#247EA0" d="M12.08 4.88V1.132c.456.14.868.264 1.28.393 3.07.959 6.138 1.922 9.21 2.872.256.08.331.194.33.456-.007 4.61-.005 9.22-.005 13.829 0 .422-.018.436-.425.308-.95-.298-1.9-.599-2.871-.935a220.286 220.286 0 0 1-.015-5.076c.003-.3-.096-.421-.37-.493-.452-.116-.894-.267-1.338-.406-.66-.206-1.317-.415-1.979-.624v-.373c0-1.555-.004-3.11.005-4.666.002-.237-.071-.349-.304-.415a72.33 72.33 0 0 1-2.08-.64c-.48-.153-.958-.32-1.437-.482Z"/><path fill="#69AFCA" d="M4.373 18.128c-.923.277-1.846.552-2.768.833-.459.14-.476.132-.476-.346 0-4.588.003-9.176-.006-13.764-.001-.283.095-.395.355-.474 2.25-.692 4.495-1.396 6.742-2.098 1.07-.334 2.137-.67 3.207-1.003.117-.037.238-.06.444-.112 0 1.243 0 2.449-.012 3.697-1.148.403-2.283.77-3.423 1.118-.241.074-.321.186-.32.439.012 1.567.002 3.134.011 4.701.002.226-.068.328-.287.394-1.033.31-2.058.647-3.093.95-.294.087-.378.226-.376.528.014 1.712.004 3.425.002 5.137Z"/><path fill="#80C6E1" d="m19.495 18.237 1.946.641c.273.09.547.175.824.323-.668.214-1.335.43-2.003.641-1.443.455-2.887.908-4.33 1.36-1.246.39-2.491.78-3.74 1.163a.641.641 0 0 1-.356.004c-2.008-.627-4.013-1.262-6.02-1.893-1.264-.398-2.53-.791-3.796-1.187-.088-.027-.173-.063-.33-.12.97-.312 1.875-.603 2.82-.91.181.01.327.026.464.068 1 .308 1.996.63 2.999.927.177.052.395.057.571.005 1.073-.317 2.138-.662 3.21-.983a.875.875 0 0 1 .476 0c1.052.318 2.095.662 3.149.971.204.06.456.056.66-.003.877-.253 1.742-.543 2.614-.808.275-.084.561-.134.842-.2Z"/><path fill="#FDFBF6" d="M19.5 18.218c-.286.084-.572.134-.847.218-.872.265-1.737.555-2.613.808-.205.059-.457.063-.661.003-1.054-.31-2.097-.653-3.149-.97a.875.875 0 0 0-.476 0c-1.072.32-2.137.665-3.21.982a1.062 1.062 0 0 1-.571-.005c-1.003-.298-2-.619-3-.927-.136-.042-.282-.057-.45-.087-.055-.037-.084-.072-.132-.11-.016-1.714-.006-3.427-.02-5.14-.002-.3.082-.44.376-.527 1.035-.303 2.06-.64 3.093-.95.219-.066.289-.168.287-.394-.009-1.567.001-3.134-.01-4.701-.002-.253.078-.365.319-.439 1.14-.348 2.275-.715 3.432-1.089a.94.94 0 0 1 .193-.022c.499.16.976.329 1.458.482.69.22 1.382.44 2.08.64.232.066.305.178.303.415-.01 1.555-.005 3.11-.005 4.666v.373c.662.209 1.32.418 1.978.624.445.14.887.29 1.338.406.276.071.374.194.371.492-.016 1.68-.008 3.36-.007 5.069-.023.074-.047.12-.076.183Zm-.254-4.84v-.429c-1.052.328-2.046.646-3.047.944-.233.07-.297.182-.295.417.01 1.42.005 2.842.006 4.263 0 .1.01.2.017.334.14-.035.248-.058.354-.09.9-.28 1.798-.57 2.702-.839.21-.062.27-.158.268-.37-.01-1.39-.005-2.78-.005-4.23Zm-5.855-6.26c-.287.092-.569.202-.861.268-.236.054-.309.16-.307.403.012 1.432.006 2.865.007 4.298 0 .098.01.197.018.318.12-.03.21-.048.296-.075.902-.282 1.8-.572 2.705-.841.237-.07.325-.17.323-.429-.014-1.422-.007-2.844-.008-4.267 0-.1-.01-.199-.019-.342l-2.154.668ZM8.486 17.354v1.534c.1-.011.163-.008.219-.026.96-.298 1.918-.605 2.881-.894.203-.061.213-.181.213-.348-.003-1.463-.002-2.926-.003-4.39 0-.078-.013-.156-.023-.266-1.062.332-2.1.65-3.133.992-.077.025-.146.206-.147.316-.011 1.006-.007 2.013-.007 3.082Zm6.985-2.616c0-.124-.016-.25.003-.372.046-.292-.076-.414-.358-.493-.757-.212-1.504-.463-2.256-.697-.223-.07-.447-.136-.682-.208-.01.077-.02.117-.02.158-.001 1.513.003 3.027-.006 4.54-.002.206.097.262.26.312.912.28 1.82.566 2.731.848.095.03.194.05.328.084v-4.171Zm-3.68-6.603c0-.094-.014-.19.003-.28.054-.296-.083-.408-.36-.488-.875-.253-1.741-.538-2.612-.81-.103-.032-.209-.053-.312-.08-.017.055-.028.075-.028.094-.002 1.546 0 3.09-.009 4.636-.001.19.113.216.244.257.92.287 1.839.577 2.759.864.093.029.19.047.315.078V8.134ZM6.663 13.56l-1.89-.59c-.02.048-.034.067-.034.086-.003 1.556-.008 3.112.003 4.669 0 .08.127.202.218.232.947.308 1.898.602 2.848.897.067.02.14.022.206.032.013-.034.027-.053.027-.072.002-1.546.007-3.092-.003-4.638 0-.083-.114-.21-.203-.242-.369-.136-.749-.243-1.172-.374Zm8.32-.09c.424.18.835.218 1.29.046.638-.243 1.303-.418 1.956-.623.153-.048.303-.103.516-.175-.107-.047-.149-.07-.194-.084-.9-.283-1.8-.57-2.704-.84-.127-.038-.288-.013-.42.027-.835.25-1.666.512-2.498.77-.09.029-.176.065-.346.129l2.4.75Zm-4.37-6.723c.366.116.728.248 1.1.339.18.044.391.052.567 0 .845-.246 1.684-.519 2.525-.784.07-.022.138-.055.27-.11-.8-.25-1.543-.447-2.258-.718a2.202 2.202 0 0 0-1.646.002c-.721.27-1.468.471-2.294.73l1.736.541Zm-1.608 6.705 2.26-.708a42.283 42.283 0 0 0-2.911-.967c-.099-.03-.226.002-.331.034-.844.257-1.685.52-2.527.783-.083.026-.162.065-.303.122.154.055.246.092.34.121.673.212 1.356.396 2.017.64.484.18.94.21 1.455-.025Z"/><path fill="#FFC433" d="M19.246 13.408c0 1.42-.005 2.81.005 4.2.002.212-.059.308-.268.37-.904.27-1.802.558-2.702.838-.106.033-.215.056-.354.091-.007-.135-.017-.234-.017-.334-.001-1.421.004-2.842-.006-4.263-.002-.235.062-.347.295-.417 1-.298 1.995-.616 3.047-.944v.46ZM13.415 7.124l2.13-.66c.008.143.02.242.02.341 0 1.423-.007 2.845.007 4.267.002.259-.086.359-.323.429-.905.269-1.803.56-2.705.84-.087.028-.177.046-.297.076-.007-.121-.017-.22-.017-.318-.001-1.433.005-2.866-.007-4.298-.002-.243.07-.35.307-.403.292-.066.574-.176.885-.274Z"/><path fill="#FFC331" d="M8.486 17.322c0-1.038-.004-2.045.007-3.051.001-.11.07-.29.147-.316 1.032-.341 2.071-.66 3.133-.992.01.11.023.188.023.267.002 1.463 0 2.926.003 4.389 0 .167-.01.287-.213.348-.963.289-1.92.596-2.881.894-.056.018-.119.015-.219.026v-1.566Z"/><path fill="#FA9B35" d="M15.471 14.768v4.14c-.134-.033-.233-.053-.328-.083-.91-.282-1.819-.569-2.73-.848-.164-.05-.263-.106-.261-.312.009-1.513.005-3.027.006-4.54 0-.04.01-.081.02-.158.235.072.46.138.682.208.752.234 1.499.485 2.256.697.282.08.405.2.358.493-.019.121-.003.248-.003.403Z"/><path fill="#FA9A35" d="M11.791 8.177v4.24c-.126-.03-.222-.049-.315-.078l-2.76-.864c-.13-.04-.244-.068-.243-.257.009-1.545.007-3.09.01-4.636 0-.02.01-.039.027-.093.103.026.21.047.312.08.87.27 1.737.556 2.613.81.276.079.413.191.36.487-.017.09-.004.186-.004.31ZM6.687 13.568c.4.124.78.231 1.148.367.089.032.202.159.203.242.01 1.546.005 3.092.003 4.638 0 .02-.014.038-.027.072-.066-.01-.14-.011-.206-.032-.95-.295-1.901-.589-2.848-.897-.091-.03-.217-.152-.218-.232-.01-1.556-.006-3.113-.003-4.67 0-.018.014-.037.033-.085l1.915.597Z"/><path fill="#FFD323" d="m14.959 13.463-2.376-.742c.17-.064.256-.1.346-.128.832-.26 1.663-.521 2.498-.771.132-.04.293-.065.42-.027.905.27 1.804.557 2.704.84.045.014.087.037.194.084-.213.072-.363.127-.516.175-.653.205-1.318.38-1.956.623-.455.172-.866.133-1.314-.054ZM10.589 6.753 8.877 6.22c.826-.26 1.573-.461 2.294-.731a2.202 2.202 0 0 1 1.646-.002c.715.27 1.458.468 2.259.718-.133.055-.2.088-.271.11-.841.265-1.68.538-2.525.785a1.146 1.146 0 0 1-.567 0c-.372-.091-.734-.224-1.124-.347ZM8.98 13.472c-.49.228-.946.197-1.43.018-.66-.244-1.344-.428-2.017-.64-.094-.029-.186-.066-.34-.121.14-.057.22-.096.303-.122.842-.263 1.683-.526 2.527-.783.105-.032.232-.064.33-.034.971.292 1.938.596 2.912.967l-2.284.715Z"/></svg>