<svg xmlns="http://www.w3.org/2000/svg" viewBox="0 0 24 24"><path fill="#b4e8fe" d="M.008 19.134 0 4.182c-.001-.401.292-.612.588-.686.378-.095.745-.232 1.118-.347l1.49-.458 1.775-.556 2.064-.629L8.836.932 10.842.32a1.62 1.62 0 0 0 .276-.121c.83-.439 1.593-.05 2.368.189l2.001.622 1.809.563 2.003.621 1.312.43 1.53.444 1.507.507c.245.088.352.273.352.545l-.003 15.264a.625.625 0 0 1-.465.631l-1.547.479-2.263.704-1.917.607-1.831.576-2.408.751c-.457.143-.906.339-1.374.413-.278.044-.593-.077-.879-.166l-3.49-1.111-3.963-1.201-2.736-.905-.46-.139c-.655-.214-.654-.215-.654-.89zm4.462-.846-2.78.893.33.12 3.797 1.186 6.019 1.893a.64.64 0 0 0 .357-.004l3.739-1.163 4.33-1.36 2.003-.641c-.277-.148-.551-.233-.824-.323l-1.934-.678c.024-.046.047-.091.114-.121l2.849.898c.406.127.424.113.424-.308L22.9 4.851c0-.262-.075-.376-.33-.455l-9.21-2.873-1.279-.392-.039 3.748a.212.212 0 0 1-.17-.05V1.176l-.444.112L8.22 2.291 1.477 4.389c-.259.08-.356.191-.355.474l.007 13.765c0 .478.017.485.476.345l2.804-.828c.029.035.059.07.061.142z"/><path fill="#247ea0" d="M12.081 4.88V1.132l1.279.392 9.21 2.873c.255.079.331.193.33.455l-.006 13.829c0 .422-.018.436-.424.308l-2.872-.935-.014-5.076c.003-.299-.096-.421-.371-.492l-1.338-.406-1.978-.624v-.373l.005-4.666c.002-.237-.071-.349-.304-.415a72.24 72.24 0 0 1-2.079-.639l-1.438-.483z"/><path fill="#69afca" d="m4.373 18.128-2.768.833c-.459.14-.476.133-.476-.345L1.123 4.851c-.001-.283.096-.394.355-.474L8.22 2.279l3.206-1.004c.117-.036.238-.06.444-.112l-.012 3.698a87.59 87.59 0 0 1-3.424 1.118c-.241.074-.321.186-.319.439l.011 4.701c.001.225-.069.328-.287.394l-3.093.951c-.295.086-.378.226-.376.527l.002 5.137z"/><path fill="#80c6e1" d="m19.495 18.237 1.946.642c.273.089.547.175.824.323l-2.003.641-4.33 1.36-3.739 1.163a.64.64 0 0 1-.357.004l-6.019-1.893-3.797-1.186-.33-.12 2.82-.91a1.96 1.96 0 0 1 .464.068l2.999.927a1.06 1.06 0 0 0 .571.006l3.209-.983a.87.87 0 0 1 .477.001l3.148.97c.204.06.456.056.661-.004l2.613-.808c.275-.084.561-.134.842-.199z"/><path fill="#fdfbf6" d="m19.501 18.219-.848.217-2.613.808a1.246 1.246 0 0 1-.661.004l-3.148-.97a.88.88 0 0 0-.477-.001l-3.209.983a1.06 1.06 0 0 1-.571-.005l-2.999-.927c-.137-.042-.283-.057-.45-.087-.055-.037-.085-.072-.132-.109l-.02-5.14c-.002-.302.081-.441.376-.527l3.093-.95c.219-.066.289-.168.287-.394L8.118 6.42c-.002-.253.078-.365.319-.439l3.432-1.089a.94.94 0 0 1 .193-.023l1.458.482 2.079.639c.233.067.305.178.304.415l-.005 4.666v.373l1.978.624 1.338.406c.275.071.374.193.371.492l-.008 5.069c-.023.074-.047.12-.076.184zm-.255-4.84v-.429l-3.047.944c-.233.069-.297.182-.295.417l.006 4.263c0 .1.01.199.017.334l.354-.091 2.703-.838c.209-.062.269-.158.268-.371l-.005-4.229zm-5.855-6.26-.861.267c-.236.053-.309.16-.306.402l.007 4.298c0 .098.011.197.018.318l.297-.075 2.704-.841c.238-.07.325-.17.323-.429l-.007-4.267c0-.099-.011-.199-.019-.342l-2.154.668zM8.486 17.353v1.534c.1-.011.162-.008.218-.026l2.881-.894c.203-.061.213-.181.213-.348l-.003-4.389c0-.079-.013-.157-.023-.267l-3.133.992c-.078.026-.146.207-.147.316l-.007 3.082zm6.985-2.615c0-.124-.016-.251.003-.373.046-.292-.077-.413-.358-.493l-2.256-.697-.683-.208-.02.158-.006 4.541c-.001.206.097.262.261.312l2.73.848c.095.03.194.05.328.084v-4.171zm-3.68-6.604c0-.093-.014-.189.003-.28.054-.296-.083-.408-.359-.488l-2.612-.81c-.103-.032-.209-.054-.312-.08-.017.054-.028.074-.028.094l-.009 4.636c-.001.189.113.216.244.257l2.759.864c.093.029.189.047.315.078V8.134zm-5.129 5.428-1.891-.59c-.019.048-.033.067-.033.086l.003 4.669c.001.08.127.203.218.232l2.848.897c.067.021.139.022.206.032.013-.034.026-.053.026-.072l-.003-4.638c-.001-.084-.114-.21-.202-.242l-1.173-.374zm8.32-.091c.424.18.835.219 1.29.046.639-.243 1.304-.417 1.957-.623l.516-.175-.194-.083-2.704-.84c-.127-.038-.288-.013-.421.027l-2.498.771c-.089.028-.176.065-.346.128l2.4.749zm-4.37-6.722 1.1.339c.18.044.392.052.567.001l2.525-.784c.071-.022.138-.056.271-.11l-2.259-.718a2.2 2.2 0 0 0-1.646.002c-.721.27-1.468.472-2.294.731l1.736.541zm-1.608 6.705 2.26-.709-2.911-.967c-.099-.03-.226.002-.331.034l-2.526.783c-.083.026-.162.065-.303.122l.34.122 2.017.64c.484.179.939.21 1.455-.025z"/><g fill-rule="evenodd"><path fill="#ffc331" d="m15.526 6.469.013-.004.006-.002.009.133.01.209v1.228l.008 3.039c.003.258-.085.358-.323.429l-1.887.584-.817.257-.185.048-.112.027-.008-.114-.01-.204v-1.242l-.007-3.056c-.002-.243.071-.349.306-.402.202-.046.398-.112.603-.181l.282-.093 2.111-.654zm3.72 6.939v1.047l.006 3.152c.002.212-.059.308-.268.371l-1.868.577-.835.262-.223.059-.131.032-.008-.126-.009-.208v-1.237l-.006-3.026c-.002-.234.062-.347.295-.417l2.207-.681.84-.263v.459zm-10.76 3.211v2.268l.093-.008c.05-.004.089-.007.126-.018l.937-.293 1.944-.601c.203-.061.213-.181.213-.348l-.002-2.749-.001-1.64c0-.052-.006-.104-.013-.165l-.01-.102-.636.198-2.497.793c-.078.026-.146.207-.147.316l-.007 2.348z"/><path fill="#fa9a35" d="M11.792 8.177v4.24l-.118-.027-.197-.05-1.481-.464-1.278-.4-.016-.005c-.124-.038-.228-.071-.227-.252l.008-3.343.001-1.293a.13.13 0 0 1 .012-.045l.016-.049.098.024.214.056.795.251 1.817.559c.277.08.413.192.359.488-.011.06-.008.123-.005.195l.003.115zm3.68 6.592v4.14l-.125-.031-.202-.053-.945-.294-1.785-.553c-.164-.05-.263-.107-.261-.312l.006-3.293V13.126c0-.026.004-.052.01-.087l.01-.071.221.067.461.141.665.21 1.591.487c.282.079.405.2.358.493a1.3 1.3 0 0 0-.006.259l.003.144zm-8.478-1.107-.307-.094-1.914-.597-.019.043a.105.105 0 0 0-.014.043l-.001.568.004 4.101c.001.08.127.203.218.232l2.564.809.284.088c.046.014.094.019.142.024l.064.008.013-.031c.007-.016.013-.029.013-.041l.001-.581-.004-4.056c-.001-.084-.114-.21-.202-.242l-.842-.273z"/><path fill="#ffd323" d="M10.589 6.753 8.878 6.22l.743-.227 1.551-.504a2.2 2.2 0 0 1 1.646-.002l1.537.499.722.219-.121.051-.15.059-.574.182-1.952.603a1.146 1.146 0 0 1-.567-.001 9.8 9.8 0 0 1-.777-.234l-.346-.112zm4.37 6.71-2.376-.743.155-.059.191-.069.44-.137 2.058-.634c.132-.04.293-.065.421-.027l2.139.662.566.178a.87.87 0 0 1 .097.04l.097.043-.197.068-.319.107-.611.186-1.345.437c-.455.173-.866.134-1.314-.053zm-7.409.027c.484.179.939.21 1.431-.018l2.284-.715-2.911-.967c-.099-.03-.226.002-.331.034l-2.526.783a1.905 1.905 0 0 0-.174.068l-.129.054.141.052.198.07.628.191 1.388.448z"/></g></svg>