<svg height="56" viewBox="0 0 44 56" width="44" xmlns="http://www.w3.org/2000/svg"><path d="m32.8777778 14c6.6611111 4.4935806 11.1222222 12.9415121 11.1222222 22.7069615 0 14.4399715-9.8388889 19.2930385-22 19.2930385-12.16111111 0-22-4.853067-22-19.2930385 0-9.7654494 4.46111111-18.2133809 11.1222222-22.7069615 3.5444445.5386305 7.2111111.8382026 10.8777778.8382026s7.3333333-.2995721 10.8777778-.8382026zm-9.228046 7.56h-2.4576175c-.4795351 0-.8391865.362427-.8391865.8456629v2.1745618c-3.1769202.604045-5.3947701 3.5028566-5.0950607 6.8251038.2997095 3.2020423 3.1769202 5.6786266 6.5336661 5.6786266h1.6184311c.5994189 0 1.1388959.2410139 1.5584891.6638453.4195933.4234356.5994189 1.0274805.5394771 1.6315254-.1198838 1.0268764-1.0789541 1.8719353-2.21785 1.8719353h-2.1579081c-.6593608 0-1.1988378-.4832359-1.3187216-1.0872809-.1198838-.3618229-.4195932-.6638454-.8391864-.6638454h-2.5175595c-.2397675 0-.4795351.120809-.6593608.3020225-.1798256.1812135-.2397675.4228315-.2397675.6638454.2397675 2.5973933 2.2777918 4.6517501 4.7953512 4.9537726v2.1739577c0 .48384.3596514.846267.8391865.846267h2.4576175c.4795352 0 .8391865-.362427.8391865-.846267v-2.2343622c2.757327-.604045 4.8552932-2.8390112 5.0950607-5.4364045.1798257-1.8121348-.4195932-3.5638652-1.618431-4.8933681-1.1988378-1.2678903-2.9371527-2.0531488-4.6754675-2.0531488h-1.8581986c-.5994189 0-1.138896-.3020224-1.5584892-.7248539s-.5994189-1.0268764-.539477-1.6309213c.1198838-1.0274805 1.078954-1.8725394 2.21785-1.8725394h2.157908c.6593608 0 1.1988378.483236 1.3187216 1.0872809.0599419.361823.4195933.6638454.8391865.6638454h2.5175594c.2397676 0 .4795351-.1202049.6593608-.3020224.1798257-.1806095.2397676-.4222275.2397676-.6638454-.2397676-2.5973933-2.21785-4.6511461-4.7953513-4.9531686v-2.1745618c0-.4832359-.3596513-.8456629-.8391865-.8456629zm7.3758653-21.48100026c1.7542287-.41772633 3.3837374.88766844 2.8823501 2.34971059l-2.3815896 6.99691597c-2.9456502.36551054-6.1413674.5743737-9.5263576.5743737-3.3843647 0-6.5807086-.20886316-9.5263589-.5743737l-2.3815895-6.94470018c-.50138731-1.46204215 1.1281213-2.81965271 2.8829768-2.34971059 5.8913005 1.51425793 12.1586415 1.51425793 18.0505687-.05221579z" fill="#eff2f4" fill-rule="evenodd"/></svg>