<svg viewBox="0 0 21 21" xmlns="http://www.w3.org/2000/svg"><path fill-rule="evenodd" clip-rule="evenodd" d="M11.3 1.446c0-.613-.51-1.11-1.14-1.11-.63 0-1.14.497-1.14 1.11 0 .116.019.228.053.334-2.96.367-4.482 2.534-5.215 6.111-.067.33-.128.669-.19 1.043l-.25 1.702c-.182 1.246-.363 1.89-.407 2.048a.314.314 0 0 0-.01.039c-1.836.375-2.77 1.888-2.817 4.262l-.017.85h20l-.04-1.121c-.112-2.221-1.05-3.632-2.807-3.991l-.088-.335c-.072-.293-.18-.786-.291-1.504l-.228-1.562c-.081-.535-.16-.992-.25-1.43-.732-3.571-2.244-5.732-5.216-6.109.035-.106.054-.22.054-.337Zm3.486 6.771C14.126 5 12.904 3.43 10.373 3.391l-.474.001c-2.5.055-3.71 1.632-4.364 4.825-.05.246-.097.499-.143.772l-.092.577-.23 1.577c-.334 2.216-.63 2.99-1.718 3.211l-.144.035c-.653.188-1.066.713-1.232 1.684l-.015.095h16.396l-.01-.08c-.165-.984-.575-1.51-1.233-1.699l-.271-.064c-1.026-.268-1.294-1.122-1.633-3.455l-.11-.772-.171-1.109c-.015-.091-.031-.18-.047-.267l-.096-.505ZM10.16 20.335c1.889 0 3.42-.995 3.42-2.222H6.74l.007.146c.116 1.16 1.6 2.076 3.414 2.076Zm-.945-1.167h1.893l-.145.034c-.247.05-.517.077-.803.077l-.216-.005a4.013 4.013 0 0 1-.601-.076l-.128-.03Z" fill="currentColor"/><mask id="a" style="mask-type:luminance" maskUnits="userSpaceOnUse" x="0" y="0" width="21" height="21"><path fill-rule="evenodd" clip-rule="evenodd" d="M11.3 1.446c0-.613-.51-1.11-1.14-1.11-.63 0-1.14.497-1.14 1.11 0 .116.019.228.053.334-2.96.367-4.482 2.534-5.215 6.111-.067.33-.128.669-.19 1.043l-.25 1.702c-.182 1.246-.363 1.89-.407 2.048a.314.314 0 0 0-.01.039c-1.836.375-2.77 1.888-2.817 4.262l-.017.85h20l-.04-1.121c-.112-2.221-1.05-3.632-2.807-3.991l-.088-.335c-.072-.293-.18-.786-.291-1.504l-.228-1.562c-.081-.535-.16-.992-.25-1.43-.732-3.571-2.244-5.732-5.216-6.109.035-.106.054-.22.054-.337Zm3.486 6.771C14.126 5 12.904 3.43 10.373 3.391l-.474.001c-2.5.055-3.71 1.632-4.364 4.825-.05.246-.097.499-.143.772l-.092.577-.23 1.577c-.334 2.216-.63 2.99-1.718 3.211l-.144.035c-.653.188-1.066.713-1.232 1.684l-.015.095h16.396l-.01-.08c-.165-.984-.575-1.51-1.233-1.699l-.271-.064c-1.026-.268-1.294-1.122-1.633-3.455l-.11-.772-.171-1.109c-.015-.091-.031-.18-.047-.267l-.096-.505ZM10.16 20.335c1.889 0 3.42-.995 3.42-2.222H6.74l.007.146c.116 1.16 1.6 2.076 3.414 2.076Zm-.945-1.167h1.893l-.145.034c-.247.05-.517.077-.803.077l-.216-.005a4.013 4.013 0 0 1-.601-.076l-.128-.03Z" fill="currentColor"/></mask><g mask="url(#a)"><path fill="currentColor" d="M-1.083.335h21.7v21.7h-21.7z"/></g></svg>