<svg fill="none" viewBox="0 0 32 32" xmlns="http://www.w3.org/2000/svg"><g fill="#0278d5"><path d="m13.5365 11.7491c0-.4228-.3428-.7657-.7657-.7657-.4228 0-.7657.3429-.7657.7657v4.6958c0 .4228.3429.7656.7657.7656.4229 0 .7657-.3428.7657-.7656z"/><path d="m13.5365 19.0795c0-.4228-.3428-.7657-.7657-.7657-.4228 0-.7657.3429-.7657.7657v.1793c0 .4228.3429.7657.7657.7657.4229 0 .7657-.3429.7657-.7657z"/><path d="m14.8824 7.89068c-.884-1.53132-3.0943-1.53132-3.9784 0l-6.56891 11.37772c-.88411 1.5313.22103 3.4455 1.98925 3.4455h7.89836v-1.5313h-7.89836c-.58942 0-.9578-.6381-.66309-1.1485l6.56895-11.37776c.2946-.51043 1.0315-.51043 1.3261 0l3.0155 5.22296 1.3243-.7687z"/><path d="m18.4153 24.7679-.2074-.2074zm6.8392.0012-.2074.2074zm.9216-.9219-.2074.2074zm-.9193-7.7644-.2074-.2074zm-.4406.0305-.1711.2383zm1.1319-.2609-.2074.2074zm-.4608 0 .2074.2074zm.9217.9218.2074.2074zm0-.4609-.2074.2074zm-.2899 1.1452-.2437.1634zm.0362-.4306.2074.2074zm.7734 2.4573-.2891.0493zm-.5221 5.0534.2074.2074zm0-.4608.2074-.2074zm-1.2141.6293-.2074.2074zm-6.7739.0574-.2073-.2074zm.4307-.0362-.1633.2436zm-1.1253.2701-.2074.2073zm-.4609-.4609.2074-.2074zm.2569-1.0902-.2374.1723zm-.0265.3989.2074.2073zm.0201-6.5392-.2377-.1717zm7.9712 7.6925-.2074.2074zm.461 0-.2075-.2073zm-8.6839-8.2254.2074-.2073zm3.6939-1.5794-.0448-.2898zm-3.2331.6577.2074.2073zm5.0437 9.6645.0558.288zm-4.3524-9.4341-.2075.2073zm7.6638 7.2649-.2413-.1667zm-9.492-3.7848.2899.0449zm4.3076 5.978.0484-.2893zm1.8359-10.3193-.0537.2884zm-.5364-.6115v.3259h.5866v-.3259zm-.6844-.0326h.6518v-.5866h-.6518zm-.0326.3585v-.3259h-.5866v.3259zm-2.5833 1.408c.6135-.438 1.3309-.7392 2.1081-.8594l-.0897-.5797c-.8701.1346-1.6731.4719-2.3592.9617zm-.9164-.2843.2303.2304.4149-.4147-.2304-.2304zm-.5069.461.4608-.461-.4149-.4147-.4608.461zm.2305.2766-.2305-.2305-.4149.4147.2305.2305zm-.8241 2.8105c.1219-.786.4291-1.511.8756-2.129l-.4754-.3435c-.4994.6911-.8433 1.5025-.9799 2.3826zm-.8562.4587h.3259v-.5866h-.3259zm-.0326.6843v-.6517h-.5866v.6517zm.3585.0326h-.3259v.5866h.3259zm1.4119 2.4917c-.4289-.591-.73-1.2802-.8633-2.0274l-.5775.103c.1493.8366.4865 1.6081.9661 2.2689zm-.2868 1.0089.2304-.2305-.4148-.4147-.2304.2304zm.4608.507-.4608-.4609-.4148.4148.4609.4608zm.2766-.2305-.2305.2305.4148.4147.2305-.2304zm.0034-.0034-.0034.0034.4148.4148.0033-.0034zm2.7305.6945c-.7046-.1178-1.3587-.3845-1.9291-.7669l-.3267.4872c.638.4278 1.3703.7264 2.1591.8583zm.5341.6633v-.042h-.5866v.042zm0 .3259v-.3259h-.5866v.3259zm.6844.0326h-.6518v.5866h.6518zm.0326-.3585v.3259h.5866v-.3259zm0-.0675v.0675h.5866v-.0675zm2.3959-1.4135c-.5542.3863-1.1909.6619-1.8782.7951l.1116.5759c.7696-.1492 1.4823-.4578 2.1021-.8898zm.8731.1279-.062-.062-.4148.4147.062.062zm.2304.2304-.2304-.2304-.4148.4147.2303.2304zm.5069-.461-.4609.461.4149.4147.4608-.4609zm-.2305-.2766.2305.2306.4148-.4148-.2305-.2305zm-.0649-.0649.0649.0649.4148-.4147-.0648-.0649zm.7191-2.6864c-.1306.6866-.4032 1.323-.7864 1.8777l.4826.3334c.4286-.6203.7338-1.3327.8801-2.1015zm.7015-.5199h-.0827v.5866h.0827zm.3259 0h-.3259v.5866h.3259zm.0325-.6843v.6517h.5867v-.6517zm-.3584-.0326h.3259v-.5866h-.3259zm-.0639 0h.0639v-.5866h-.0639zm-1.3851-2.4446c.3795.566.645 1.2144.7642 1.9126l.5782-.0986c-.1334-.7818-.4307-1.5076-.8551-2.1407zm.0958-.8247-.0233.0233.4148.4148.0233-.0233zm.2304-.2304-.2304.2304.4148.4148.2304-.2304zm-.4609-.507.4609.4609.4148-.4148-.4609-.4609zm-.2765.2304.2305-.2304-.4148-.4148-.2305.2304zm-2.7886-.7802c.7242.1349 1.393.4277 1.9695.8416l.3421-.4765c-.6447-.4629-1.3933-.7907-2.2042-.9418zm1.9849 4.9155c0 1.552-1.2638 2.8122-2.8254 2.8122v.5866c1.8832 0 3.412-1.5205 3.412-3.3988zm-2.8254-2.8122c1.5616 0 2.8254 1.2602 2.8254 2.8122h.5866c0-1.8783-1.5288-3.3988-3.412-3.3988zm-2.8253 2.8122c0-1.552 1.2638-2.8122 2.8253-2.8122v-.5866c-1.8832 0-3.4119 1.5205-3.4119 3.3988zm2.8253 2.8122c-1.5615 0-2.8253-1.2602-2.8253-2.8122h-.5866c0 1.8783 1.5287 3.3988 3.4119 3.3988zm3.2143-7.3623c-.0055.0056-.0135.0098-.0251.0105-.0123.0008-.0256-.0026-.0371-.0108l-.3421.4765c.2447.1756.5936.1641.8191-.0614zm1.1061-.2304c-.2418-.2418-.6338-.2418-.8756 0l.4148.4148c.0127-.0127.0333-.0127.046 0zm.4609 1.3366c.2418-.2419.2418-.6339 0-.8757l-.4148.4148c.0128.0127.0128.0333 0 .0461zm-.2537.3136c-.008-.0119-.0109-.0251-.01-.0365.0008-.0108.0047-.0182.01-.0234l-.4148-.4148c-.2205.2205-.2355.5582-.0725.8014zm.8978 2.1847c-.0076 0-.0157-.0025-.0241-.0099-.0089-.0078-.0161-.0196-.0186-.0341l-.5782.0986c.0502.2943.3024.532.6209.532zm1.009.6192c0-.342-.2773-.6192-.6192-.6192v.5866c.018 0 .0325.0146.0325.0326zm-.6192 1.2709c.3419 0 .6192-.2772.6192-.6192h-.5867c0 .018-.0145.0326-.0325.0326zm-.4511.0429c.0027-.0142.01-.0257.0188-.0333.0082-.0071.0163-.0096.0237-.0096v-.5866c-.3136 0-.5638.2309-.6188.5199zm-.5852 3.3331c.2417-.2418.2417-.6338 0-.8756l-.4148.4148c.0127.0127.0127.0333 0 .046zm-1.6897.1691c.0119-.0083.0253-.0115.0369-.0107.011.0008.0185.0047.0239.0101l.4148-.4147c-.2237-.2239-.5675-.2357-.8111-.0659zm-2.764 1.9449c.3419 0 .6192-.2772.6192-.6192h-.5866c0 .018-.0146.0326-.0326.0326zm-3.5343-1.8881c.0053-.0052.0127-.0092.0235-.01.0114-.0009.0246.002.0365.01l.3267-.4872c-.2432-.163-.5809-.1481-.8014.0724zm-1.1094.2338c.2418.2419.6338.2419.8756 0l-.4148-.4147c-.0127.0127-.0333.0127-.0461 0zm-.4609-1.3365c-.2418.2418-.2418.6339 0 .8757l.4148-.4148c-.0128-.0128-.0128-.0334 0-.0461zm.2269-.2496c.0038.0052.005.0108.0047.015-.0001.002-.0005.0031-.0007.0034 0 .0002-.0001.0004-.0005.0008l.4148.4147c.2152-.2151.2245-.5469.0564-.7784zm-1.8823-2.8688c0 .342.2772.6192.6192.6192v-.5866c-.018 0-.0326-.0146-.0326-.0326zm1.8846-3.5388c-.0256-.0256-.0222-.0585-.009-.0767l.4754.3435c.1474-.2039.1361-.4938-.0515-.6815zm7.9925 7.9949c.2418.2419.634.2419.8758 0l-.4149-.4147c-.0127.0127-.0333.0127-.046 0zm-8.223-9.1009c-.2417.2417-.2417.6337 0 .8755l.4149-.4147c-.0127-.0128-.0127-.0334 0-.0461zm3.8349-1.17c0-.0103.0042-.0188.0084-.0236.0039-.0044.0087-.0068.0133-.0075l.0897.5797c.2637-.0408.4752-.2659.4752-.5486zm-2.4983.709c-.2418-.2419-.6339-.2419-.8758 0l.4149.4147c.0127-.0127.0334-.0127.0461 0zm-2.3715 3.8349c-.342 0-.6192.2772-.6192.6192h.5866c0-.018.0146-.0326.0326-.0326zm4.8698 6.7609c0 .342.2772.6192.6192.6192v-.5866c-.018 0-.0326-.0146-.0326-.0326zm.6192-12.2499c-.342 0-.6192.2772-.6192.6192h.5866c0-.018.0146-.0326.0326-.0326zm-5.1631 7.3791c-.0096 0-.0175-.0038-.0219-.0077-.0041-.0035-.0063-.0077-.007-.0116l.5775-.103c-.0462-.2591-.2699-.4643-.5486-.4643zm6.4341 4.4774c0-.0075.0024-.0155.0095-.0237.0075-.0088.019-.0161.0332-.0188l-.1116-.5759c-.2881.0558-.5177.3056-.5177.6184zm-4.2277-9.9808c.0159-.0114.0459-.0149.0696.0088l-.4149.4147c.1888.1889.4801.201.6861.0539zm7.7669 7.7084c-.0054-.0053-.0093-.0128-.0101-.0237-.0008-.0116.0023-.025.0105-.0369l-.4826-.3334c-.1682.2434-.1556.5857.0673.8087zm-10.0227-4.0571c.0025-.0161.0184-.038.0494-.038v.5866c.2728 0 .4907-.2036.5303-.4587zm4.5491 6.3123c.0145.0024.0265.0096.0343.0185.0074.0084.0099.0165.0099.0242h.5866c0-.3194-.2389-.572-.5341-.6213zm1.9379-10.8969c-.0027-.0005-.0043-.0018-.0049-.0024-.0001-.0002.0002.0001.0006.0012.0005.0013.0008.0027.0008.0039h-.5866c0 .2907.2134.5238.4827.574zm-.0035-.3232c0-.342-.2773-.6192-.6192-.6192v.5866c.018 0 .0326.0146.0326.0326z"/></g></svg>