<svg fill="none" viewBox="0 0 32 33" xmlns="http://www.w3.org/2000/svg" xmlns:xlink="http://www.w3.org/1999/xlink"><linearGradient id="a" gradientUnits="userSpaceOnUse" x1="9.03151" x2="16.8829" y1="5.69651" y2="23.393"><stop offset="0" stop-color="#fd7a64"/><stop offset="1" stop-color="#d51000"/></linearGradient><path d="m9.06502 16.1335c-.59839 0-1.08504.487-1.08504 1.0851s.48665 1.0853 1.08504 1.0853 1.08508-.4869 1.08508-1.0853-.48669-1.0851-1.08508-1.0851zm0 1.5914c-.27908 0-.50604-.2269-.50604-.5063s.22696-.5061.50604-.5061c.27907 0 .50604.227.50604.5061s-.22697.5063-.50604.5063z" fill="#4f5162"/><path d="m29.0693 7.07403-1.6298-2.67178c-.04-.06572-.1043-.11261-.1789-.13056-.0747-.01766-.1529-.00608-.2189.03416l-15.1352 9.23235c-.5672-1.0181-1.6537-1.7092-2.89937-1.7092-1.82904 0-3.31735 1.4883-3.31735 3.3174v2.184l-2.43931 1.488c-.06572.0399-.11262.1042-.13057.1789-.01794.0747-.00579.1531.03416.2189l1.62988 2.6717c.03995.0658.10422.1127.17891.1306.02258.0058.04545.0081.06803.0081.05269 0 .10509-.0145.15083-.0423l.50807-.31v3.1393h-1.03756c-.15981 0-.2895.1294-.2895.2895v3.8532c0 .1601.12969.2895.2895.2895h8.71008c.1598 0 .2895-.1294.2895-.2895v-3.8532c0-.1601-.1297-.2895-.2895-.2895h-1.0375v-7.1949c.0159-.0061.0324-.0113.0475-.0205l1.7621-1.075.0009-.0002 3.2137-1.9602.0006-.0006 3.2123-1.9593.0008-.0003 3.2137-1.9602.0006-.0003 5.1959-3.16972c.1367-.08309.1798-.26113.0964-.39777zm-8.1239 4.61667 1.2906-3.7751 2.4405-1.4886-1.2906 3.7751zm-.7732.4715-2.4405 1.4886 1.2909-3.7753 2.4405-1.4886zm-5.6542 3.4491 1.2906-3.7753 2.4405-1.4886-1.2903 3.7748zm-9.39043 5.728-1.32821-2.1773 1.89071-1.153v2.9873zm1.14149-.1806v-6.0126c0-1.51 1.22834-2.7384 2.73836-2.7384 1.50998 0 2.73838 1.2284 2.73838 2.7384v5.1018 1.0234 3.5423h-5.47674zm6.80404 7.5084h-8.13139v-3.2742h8.13109v3.2742zm-1.3273-3.8535v-3.5423c0-.2452 0-.164 0-.4441zm.579-7.8645v-1.8027c0-.3764-.066-.7368-.1821-1.0743l2.8927-1.7645-1.2909 3.7753zm11.8341-7.21864 1.2908-3.77563 1.6464-1.00427 1.3285 2.17761z" fill="#4f5162"/><path d="m20.9455 11.6907 1.2905-3.7751 2.4405-1.4886-1.2906 3.7751zm-.7733.4716-2.4405 1.4885 1.2909-3.7753 2.4405-1.4886zm-5.6542 3.449 1.2906-3.7753 2.4405-1.4886-1.2903 3.7748zm-9.39043 5.728-1.32821-2.1773 1.89071-1.153v2.9873zm7.19723-4.3902v-1.8027c0-.3764-.066-.7368-.1821-1.0743l2.8927-1.7645-1.2909 3.7753zm11.8341-7.21864 1.2908-3.77563 1.6464-1.00427 1.3285 2.17761z" fill="url(#a)"/></svg>