<svg viewBox="0 0 173 56" xmlns="http://www.w3.org/2000/svg" xmlns:xlink="http://www.w3.org/1999/xlink"><linearGradient id="a" gradientUnits="userSpaceOnUse" x1="19.752" x2="36.8403" y1="14.4099" y2="40.7236"><stop offset="0" stop-color="#fd7a64"/><stop offset="1" stop-color="#d51000"/></linearGradient><g fill="#000"><path d="m60.7193 19.1036h-1.8593c-.0531-.3049-.1509-.5751-.2934-.8104-.1425-.2386-.3198-.4408-.5319-.6065-.2122-.1657-.4541-.29-.7259-.3729-.2685-.0862-.5585-.1293-.87-.1293-.5535 0-1.044.1393-1.4716.4177-.4276.2751-.7623.6794-1.0043 1.213-.2419.5303-.3629 1.1783-.3629 1.9439 0 .7789.121 1.4352.3629 1.9688.2453.5303.5801.9313 1.0043 1.2031.4276.2685.9164.4027 1.4666.4027.3049 0 .59-.0398.8551-.1193.2685-.0829.5088-.2039.7209-.3629.2154-.1591.3961-.3547.5419-.5867.1492-.232.2519-.4972.3083-.7955l1.8593.01c-.0696.4839-.2204.938-.4524 1.3622-.2287.4243-.5286.7988-.8998 1.1236-.3713.3215-.8054.5734-1.3026.7557-.4972.1789-1.049.2684-1.6555.2684-.8949 0-1.6937-.2071-2.3963-.6214-.7027-.4143-1.2562-1.0126-1.6606-1.7948-.4043-.7822-.6065-1.7201-.6065-2.8139 0-1.097.2038-2.035.6115-2.8139.4077-.7822.9628-1.3804 1.6655-1.7947.7026-.4143 1.4981-.6215 2.3864-.6215.5667 0 1.0937.0796 1.5809.2386.4872.1591.9214.3928 1.3026.701.3811.305.6943.6795.9396 1.1236.2486.4408.411.9446.4872 1.5114z"/><path d="m65.6598 25.9992c-.7457 0-1.392-.1641-1.9389-.4922s-.9711-.7872-1.2727-1.3771c-.2983-.59-.4474-1.2794-.4474-2.0682s.1491-1.4799.4474-2.0732c.3016-.5933.7258-1.054 1.2727-1.3821s1.1932-.4922 1.9389-.4922c.7458 0 1.3921.1641 1.939.4922.5468.3281.9694.7888 1.2677 1.3821.3016.5933.4524 1.2844.4524 2.0732s-.1508 1.4782-.4524 2.0682c-.2983.5899-.7209 1.049-1.2677 1.3771-.5469.3281-1.1932.4922-1.939.4922zm.01-1.4418c.4043 0 .7424-.111 1.0142-.3331.2718-.2254.474-.527.6065-.9048.1359-.3778.2039-.7988.2039-1.2628 0-.4673-.068-.8899-.2039-1.2677-.1325-.3812-.3347-.6845-.6065-.9098-.2718-.2254-.6099-.3381-1.0142-.3381-.4143 0-.759.1127-1.0341.3381-.2718.2253-.4756.5286-.6115.9098-.1326.3778-.1989.8004-.1989 1.2677 0 .464.0663.885.1989 1.2628.1359.3778.3397.6794.6115.9048.2751.2221.6198.3331 1.0341.3331z"/><path d="m72.6462 21.3756v4.4744h-1.7997v-7.6363h1.7201v1.2976h.0895c.1757-.4276.4557-.7673.8402-1.0192.3878-.2519.8667-.3779 1.4368-.3779.527 0 .986.1127 1.3771.3381.3944.2254.6994.5519.9148.9794.2188.4276.3265.9463.3232 1.5561v4.8622h-1.7998v-4.5838c0-.5104-.1325-.9098-.3977-1.1981-.2618-.2884-.6247-.4326-1.0888-.4326-.3148 0-.5949.0696-.8402.2088-.2419.1359-.4325.3331-.5717.5917-.1359.2585-.2038.5717-.2038.9396z"/><path d="m83.1909 18.2137v1.392h-4.3899v-1.392zm-3.3061-1.8296h1.7997v7.1691c0 .2419.0365.4275.1094.5568.0762.1259.1757.2121.2983.2585s.2585.0696.4077.0696c.1127 0 .2154-.0083.3082-.0249.0961-.0165.169-.0314.2188-.0447l.3032 1.407c-.0961.0331-.2336.0696-.4126.1093-.1757.0398-.3911.063-.6463.0696-.4508.0133-.8568-.0547-1.2181-.2038-.3612-.1525-.6479-.3878-.8601-.706-.2088-.3181-.3115-.7159-.3082-1.1931z"/><path d="m84.6961 25.85v-7.6363h1.7997v7.6363zm.9048-8.7201c-.285 0-.5303-.0945-.7358-.2834-.2055-.1923-.3082-.4226-.3082-.6911 0-.2718.1027-.5021.3082-.691.2055-.1923.4508-.2884.7358-.2884.2883 0 .5336.0961.7358.2884.2055.1889.3082.4192.3082.691 0 .2685-.1027.4988-.3082.6911-.2022.1889-.4475.2834-.7358.2834z"/><path d="m90.1462 21.3756v4.4744h-1.7997v-7.6363h1.7201v1.2976h.0895c.1757-.4276.4557-.7673.8402-1.0192.3878-.2519.8667-.3779 1.4368-.3779.527 0 .986.1127 1.3771.3381.3944.2254.6994.5519.9148.9794.2188.4276.3265.9463.3232 1.5561v4.8622h-1.7998v-4.5838c0-.5104-.1325-.9098-.3977-1.1981-.2618-.2884-.6247-.4326-1.0888-.4326-.3148 0-.5949.0696-.8402.2088-.2419.1359-.4325.3331-.5717.5917-.1359.2585-.2038.5717-.2038.9396z"/><path d="m101.745 22.6384v-4.4247h1.8v7.6363h-1.745v-1.3572h-.08c-.172.4275-.456.7772-.85 1.049-.391.2718-.8734.4077-1.4468.4077-.5005 0-.943-.1111-1.3275-.3331-.3811-.2254-.6794-.5519-.8948-.9794-.2155-.4309-.3232-.9513-.3232-1.5611v-4.8622h1.7997v4.5838c0 .4839.1326.8683.3977 1.1534.2652.285.6132.4275 1.0439.4275.265 0 .522-.0646.771-.1939.248-.1292.452-.3214.611-.5767.163-.2585.244-.5816.244-.9694z"/><path d="m108.726 25.9992c-.745 0-1.392-.1641-1.939-.4922s-.971-.7872-1.272-1.3771c-.299-.59-.448-1.2794-.448-2.0682s.149-1.4799.448-2.0732c.301-.5933.725-1.054 1.272-1.3821s1.194-.4922 1.939-.4922c.746 0 1.392.1641 1.939.4922s.97.7888 1.268 1.3821c.302.5933.452 1.2844.452 2.0732s-.15 1.4782-.452 2.0682c-.298.5899-.721 1.049-1.268 1.3771s-1.193.4922-1.939.4922zm.01-1.4418c.405 0 .743-.111 1.014-.3331.272-.2254.474-.527.607-.9048.136-.3778.204-.7988.204-1.2628 0-.4673-.068-.8899-.204-1.2677-.133-.3812-.335-.6845-.607-.9098-.271-.2254-.609-.3381-1.014-.3381-.414 0-.759.1127-1.034.3381-.272.2253-.476.5286-.611.9098-.133.3778-.199.8004-.199 1.2677 0 .464.066.885.199 1.2628.135.3778.339.6794.611.9048.275.2221.62.3331 1.034.3331z"/><path d="m118.78 22.6384v-4.4247h1.8v7.6363h-1.745v-1.3572h-.08c-.172.4275-.456.7772-.85 1.049-.391.2718-.873.4077-1.447.4077-.5 0-.943-.1111-1.327-.3331-.381-.2254-.68-.5519-.895-.9794-.215-.4309-.323-.9513-.323-1.5611v-4.8622h1.8v4.5838c0 .4839.132.8683.397 1.1534.265.285.613.4275 1.044.4275.265 0 .522-.0646.771-.1939.249-.1292.452-.3214.611-.5767.163-.2585.244-.5816.244-.9694z"/><path d="m128.466 20.2321-1.641.179c-.046-.1657-.127-.3215-.243-.4673-.113-.1459-.265-.2635-.458-.353-.192-.0895-.427-.1342-.706-.1342-.374 0-.689.0812-.944.2436-.252.1624-.376.3728-.373.6314-.003.222.078.4027.244.5419.169.1392.447.2535.835.343l1.302.2784c.723.1558 1.26.4027 1.611.7408.355.3381.534.7805.537 1.3274-.003.4806-.144.9048-.423 1.2727-.275.3646-.657.6496-1.148.8551s-1.054.3083-1.69.3083c-.935 0-1.687-.1956-2.257-.5867-.571-.3944-.91-.9429-1.02-1.6456l1.755-.169c.08.3447.249.6049.507.7805.259.1757.595.2635 1.01.2635.427 0 .77-.0878 1.029-.2635.262-.1756.393-.3927.393-.6512 0-.2188-.085-.3994-.254-.5419-.166-.1426-.424-.2519-.776-.3282l-1.302-.2734c-.733-.1525-1.275-.4093-1.626-.7706-.351-.3646-.525-.8253-.522-1.3821-.003-.4706.124-.8783.383-1.223.262-.348.625-.6165 1.089-.8054.467-.1922 1.006-.2884 1.616-.2884.894 0 1.599.1906 2.112.5718.517.3811.837.8965.96 1.5461z"/><path d="m52.0041 40.85v-10.1818h6.6222v1.5462h-4.7777v2.7642h4.4346v1.5461h-4.4346v2.7792h4.8175v1.5461z"/><path d="m60.4285 40.85v-7.6363h1.745v1.2727h.0796c.1392-.4408.3778-.7805.7159-1.0192.3414-.2419.7308-.3629 1.1683-.3629.0994 0 .2105.005.3331.0149.1259.0066.2303.0182.3132.0348v1.6555c-.0762-.0265-.1972-.0497-.3629-.0696-.1624-.0232-.3199-.0348-.4723-.0348-.3282 0-.6231.0713-.885.2138-.2585.1392-.4623.3331-.6115.5817-.1491.2486-.2237.5353-.2237.8601v4.4893z"/><path d="m65.9793 40.85v-7.6363h1.745v1.2727h.0795c.1392-.4408.3779-.7805.716-1.0192.3413-.2419.7308-.3629 1.1683-.3629.0994 0 .2104.005.3331.0149.1259.0066.2303.0182.3132.0348v1.6555c-.0762-.0265-.1972-.0497-.3629-.0696-.1624-.0232-.3199-.0348-.4723-.0348-.3282 0-.6231.0713-.885.2138-.2585.1392-.4623.3331-.6115.5817-.1491.2486-.2237.5353-.2237.8601v4.4893z"/><path d="m74.5466 40.9992c-.7458 0-1.3921-.1641-1.939-.4922-.5468-.3281-.9711-.7872-1.2727-1.3771-.2983-.59-.4474-1.2794-.4474-2.0682s.1491-1.4799.4474-2.0732c.3016-.5933.7259-1.054 1.2727-1.3821.5469-.3281 1.1932-.4922 1.939-.4922.7457 0 1.392.1641 1.9389.4922s.9694.7888 1.2677 1.3821c.3017.5933.4525 1.2844.4525 2.0732s-.1508 1.4782-.4525 2.0682c-.2983.5899-.7208 1.049-1.2677 1.3771s-1.1932.4922-1.9389.4922zm.0099-1.4418c.4044 0 .7424-.111 1.0142-.3331.2718-.2254.474-.527.6065-.9048.1359-.3778.2039-.7988.2039-1.2628 0-.4673-.068-.8899-.2039-1.2677-.1325-.3812-.3347-.6845-.6065-.9098-.2718-.2254-.6098-.3381-1.0142-.3381-.4143 0-.759.1127-1.0341.3381-.2718.2253-.4756.5286-.6115.9098-.1326.3778-.1989.8004-.1989 1.2677 0 .464.0663.885.1989 1.2628.1359.3778.3397.6794.6115.9048.2751.2221.6198.3331 1.0341.3331z"/><path d="m79.7332 40.85v-7.6363h1.745v1.2727h.0796c.1392-.4408.3778-.7805.7159-1.0192.3413-.2419.7308-.3629 1.1683-.3629.0994 0 .2104.005.3331.0149.1259.0066.2303.0182.3132.0348v1.6555c-.0762-.0265-.1972-.0497-.3629-.0696-.1624-.0232-.3199-.0348-.4723-.0348-.3282 0-.6231.0713-.885.2138-.2585.1392-.4623.3331-.6115.5817-.1491.2486-.2237.5353-.2237.8601v4.4893z"/><path d="m88.3887 32.2144v-1.5462h8.1236v1.5462h-3.147v8.6356h-1.8296v-8.6356z"/><path d="m97.2058 40.85v-7.6363h1.7451v1.2727h.0795c.1392-.4408.3778-.7805.7159-1.0192.3417-.2419.7307-.3629 1.1687-.3629.099 0 .21.005.333.0149.126.0066.23.0182.313.0348v1.6555c-.076-.0265-.197-.0497-.363-.0696-.162-.0232-.32-.0348-.472-.0348-.328 0-.623.0713-.8852.2138-.2585.1392-.4624.3331-.6115.5817-.1492.2486-.2238.5353-.2238.8601v4.4893z"/><path d="m104.817 41.0042c-.484 0-.919-.0862-1.307-.2586-.385-.1756-.69-.4342-.915-.7755-.222-.3414-.333-.7624-.333-1.2628 0-.4309.079-.7872.239-1.0689.159-.2817.376-.5071.651-.6762.275-.169.585-.2966.93-.3828.348-.0895.707-.1541 1.078-.1939.448-.0464.811-.0878 1.089-.1242.279-.0398.481-.0995.607-.179.129-.0829.194-.2105.194-.3828v-.0299c0-.3745-.111-.6645-.334-.87-.222-.2055-.541-.3082-.959-.3082-.441 0-.791.0961-1.049.2883-.255.1923-.428.4193-.517.6811l-1.68-.2386c.132-.464.351-.8518.656-1.1634.305-.3148.678-.5502 1.118-.7059.441-.1591.928-.2387 1.462-.2387.368 0 .734.0431 1.099.1293.364.0862.697.2287.999.4276.302.1955.544.4623.726.8004.185.338.278.7606.278 1.2677v5.1108h-1.73v-1.049h-.059c-.11.2121-.264.411-.463.5966-.195.1823-.442.3298-.741.4425-.295.1094-.641.1641-1.039.1641zm.468-1.3225c.361 0 .674-.0713.939-.2138.265-.1458.469-.338.612-.5767.146-.2386.219-.4988.219-.7805v-.8999c-.057.0464-.153.0895-.289.1293-.132.0398-.282.0746-.447.1044-.166.0298-.33.0563-.492.0795-.163.0232-.304.0431-.423.0597-.268.0365-.509.0961-.721.179-.212.0828-.379.1988-.502.348-.123.1458-.184.3347-.184.5667 0 .3315.121.5817.363.7508.242.169.55.2535.925.2535z"/><path d="m113.99 40.9992c-.762 0-1.417-.1674-1.964-.5022-.543-.3347-.963-.7971-1.258-1.387-.291-.5933-.437-1.2761-.437-2.0483 0-.7756.149-1.46.447-2.0533.299-.5966.72-1.0606 1.263-1.392.547-.3348 1.193-.5022 1.939-.5022.62 0 1.168.1144 1.646.3431.48.2254.863.5452 1.148.9595.285.411.447.8916.487 1.4418h-1.72c-.07-.3679-.235-.6745-.497-.9198-.259-.2486-.605-.3729-1.039-.3729-.368 0-.691.0995-.97.2983-.278.1956-.495.4773-.651.8452-.152.3679-.229.8087-.229 1.3224 0 .5204.077.9679.229 1.3424.153.3712.366.6579.641.8601.279.1988.605.2983.98.2983.265 0 .502-.0498.711-.1492.212-.1027.389-.2502.532-.4425.142-.1922.24-.4259.293-.701h1.72c-.043.5403-.202 1.0192-.477 1.4368-.275.4143-.65.7391-1.124.9745-.474.232-1.03.348-1.67.348z"/><path d="m120.38 38.4537-.005-2.1726h.288l2.744-3.0674h2.103l-3.375 3.7585h-.373zm-1.641 2.3963v-10.1818h1.8v10.1818zm4.793 0-2.486-3.4751 1.213-1.2678 3.425 4.7429z"/><path d="m126.71 40.85v-7.6363h1.799v7.6363zm.905-8.7201c-.285 0-.531-.0945-.736-.2834-.206-.1923-.308-.4226-.308-.6911 0-.2718.102-.5021.308-.691.205-.1923.451-.2884.736-.2884.288 0 .533.0961.735.2884.206.1889.309.4192.309.691 0 .2685-.103.4988-.309.6911-.202.1889-.447.2834-.735.2834z"/><path d="m132.16 36.3756v4.4744h-1.8v-7.6363h1.72v1.2976h.09c.175-.4276.456-.7673.84-1.0192.388-.2519.867-.3779 1.437-.3779.527 0 .986.1127 1.377.3381.394.2254.699.5519.915.9794.218.4276.326.9463.323 1.5561v4.8622h-1.8v-4.5838c0-.5104-.132-.9098-.398-1.1981-.261-.2884-.624-.4326-1.088-.4326-.315 0-.595.0696-.841.2088-.242.1359-.432.3331-.571.5917-.136.2585-.204.5717-.204.9396z"/><path d="m142.212 43.8728c-.646 0-1.201-.0879-1.665-.2635-.464-.1724-.837-.4044-1.119-.6961-.281-.2916-.477-.6148-.586-.9694l1.62-.3928c.073.1492.179.2967.319.4425.139.1491.326.2718.561.3679.239.0994.539.1491.9.1491.511 0 .933-.1242 1.268-.3728.335-.2453.502-.6496.502-1.2131v-1.4467h-.089c-.093.1856-.229.3762-.408.5717-.176.1956-.409.3596-.701.4922-.288.1326-.651.1989-1.089.1989-.586 0-1.118-.1376-1.596-.4127-.474-.2784-.851-.6927-1.133-1.2429-.279-.5535-.418-1.2462-.418-2.0781 0-.8386.139-1.5462.418-2.1229.282-.58.661-1.0192 1.138-1.3174.478-.3017 1.01-.4525 1.596-.4525.448 0 .816.0763 1.104.2287.292.1492.524.3298.696.5419.172.2088.303.406.393.5917h.099v-1.2628h1.775v7.7606c0 .653-.156 1.1932-.467 1.6208-.312.4275-.738.7474-1.278.9595s-1.154.3182-1.84.3182zm.015-4.5441c.381 0 .706-.0928.975-.2784.268-.1856.472-.4524.611-.8004s.209-.7656.209-1.2529c0-.4805-.07-.9015-.209-1.2627-.136-.3613-.338-.6414-.606-.8402-.265-.2022-.592-.3033-.98-.3033-.401 0-.735.1044-1.004.3132-.268.2088-.471.4955-.606.8601-.136.3613-.204.7722-.204 1.2329 0 .4674.068.8767.204 1.228.139.348.343.6198.611.8154.272.1922.605.2883.999.2883z"/></g><path clip-rule="evenodd" d="m27.0459 43.2545v-4.4786c-5.2296-.5768-9.3822-4.7294-9.9588-9.959h-4.4787v7.4376c0 3.866 3.134 7 7 7zm-14.4375-16.9376h4.4786c.5767-5.2298 4.7292-9.3824 9.9589-9.9592v-4.4787h-7.4375c-3.866 0-7 3.134-7 7zm16.9375 16.9376h7.438c3.866 0 7-3.134 7-7v-17.3755c0-3.866-3.134-7-7-7h-7.438v4.4786c5.23.5765 9.3828 4.7293 9.9595 9.9593h1.535c.6904 0 1.25.5596 1.25 1.25 0 .6903-.5596 1.25-1.25 1.25h-1.535c-.5767 5.2298-4.7296 9.3826-9.9595 9.9591zm-2.5-7.345v.3466c-3.8472-.5487-6.8905-3.592-7.439-7.4392h4.0534c.55 2.0448 2.417 3.55 4.6356 3.55 2.651 0 4.8-2.1491 4.8-4.8 0-2.651-2.149-4.8-4.8-4.8-2.2186 0-4.0856 1.5051-4.6356 3.55h-4.0534c.5485-3.8474 3.5917-6.8907 7.439-7.4394v.4175c0 .6904.5596 1.25 1.25 1.25s1.25-.5596 1.25-1.25v-.4176c3.8476.5484 6.8911 3.5919 7.4396 7.4395h-.4598c-.6903 0-1.25.5596-1.25 1.25 0 .6903.5597 1.25 1.25 1.25h.4598c-.5485 3.8474-3.5921 6.8909-7.4396 7.4393v-.3467c0-.6904-.5596-1.25-1.25-1.25s-1.25.5596-1.25 1.25zm1.25-10.5426c-1.215 0-2.2.9849-2.2 2.2 0 1.215.985 2.2 2.2 2.2s2.2-.985 2.2-2.2c0-1.2151-.985-2.2-2.2-2.2z" fill="#fff" fill-rule="evenodd"/><path clip-rule="evenodd" d="m27.0459 43.2545v-4.4786c-5.2296-.5768-9.3822-4.7294-9.9588-9.959h-4.4787v7.4376c0 3.866 3.134 7 7 7zm-14.4375-16.9376h4.4786c.5767-5.2298 4.7292-9.3824 9.9589-9.9592v-4.4787h-7.4375c-3.866 0-7 3.134-7 7zm16.9375 16.9376h7.438c3.866 0 7-3.134 7-7v-17.3755c0-3.866-3.134-7-7-7h-7.438v4.4786c5.23.5765 9.3828 4.7293 9.9595 9.9593h1.535c.6904 0 1.25.5596 1.25 1.25 0 .6903-.5596 1.25-1.25 1.25h-1.535c-.5767 5.2298-4.7296 9.3826-9.9595 9.9591zm-2.5-7.345v.3466c-3.8472-.5487-6.8905-3.592-7.439-7.4392h4.0534c.55 2.0448 2.417 3.55 4.6356 3.55 2.651 0 4.8-2.1491 4.8-4.8 0-2.651-2.149-4.8-4.8-4.8-2.2186 0-4.0856 1.5051-4.6356 3.55h-4.0534c.5485-3.8474 3.5917-6.8907 7.439-7.4394v.4175c0 .6904.5596 1.25 1.25 1.25s1.25-.5596 1.25-1.25v-.4176c3.8476.5484 6.8911 3.5919 7.4396 7.4395h-.4598c-.6903 0-1.25.5596-1.25 1.25 0 .6903.5597 1.25 1.25 1.25h.4598c-.5485 3.8474-3.5921 6.8909-7.4396 7.4393v-.3467c0-.6904-.5596-1.25-1.25-1.25s-1.25.5596-1.25 1.25zm1.25-10.5426c-1.215 0-2.2.9849-2.2 2.2 0 1.215.985 2.2 2.2 2.2s2.2-.985 2.2-2.2c0-1.2151-.985-2.2-2.2-2.2z" fill="url(#a)" fill-rule="evenodd"/></svg>