<svg width="16" height="16" viewBox="0 0 16 16" fill="none" xmlns="http://www.w3.org/2000/svg">
<path d="M4.66699 12V11.3333C4.66699 10.4493 5.01818 9.60143 5.6433 8.97631C6.26842 8.35119 7.11627 8 8.00033 8M8.00033 8C8.88438 8 9.73223 8.35119 10.3573 8.97631C10.9825 9.60143 11.3337 10.4493 11.3337 11.3333V12M8.00033 8C8.53076 8 9.03947 7.78929 9.41454 7.41421C9.78961 7.03914 10.0003 6.53043 10.0003 6C10.0003 5.46957 9.78961 4.96086 9.41454 4.58579C9.03947 4.21071 8.53076 4 8.00033 4C7.46989 4 6.96118 4.21071 6.58611 4.58579C6.21104 4.96086 6.00033 5.46957 6.00033 6C6.00033 6.53043 6.21104 7.03914 6.58611 7.41421C6.96118 7.78929 7.46989 8 8.00033 8ZM0.666992 12V11.3333C0.666992 10.8029 0.877706 10.2942 1.25278 9.91912C1.62785 9.54405 2.13656 9.33333 2.66699 9.33333M2.66699 9.33333C3.02061 9.33333 3.35975 9.19286 3.6098 8.94281C3.85985 8.69276 4.00033 8.35362 4.00033 8C4.00033 7.64638 3.85985 7.30724 3.6098 7.05719C3.35975 6.80714 3.02061 6.66667 2.66699 6.66667C2.31337 6.66667 1.97423 6.80714 1.72418 7.05719C1.47413 7.30724 1.33366 7.64638 1.33366 8C1.33366 8.35362 1.47413 8.69276 1.72418 8.94281C1.97423 9.19286 2.31337 9.33333 2.66699 9.33333ZM15.3337 12V11.3333C15.3337 10.8029 15.1229 10.2942 14.7479 9.91912C14.3728 9.54405 13.8641 9.33333 13.3337 9.33333M13.3337 9.33333C13.6873 9.33333 14.0264 9.19286 14.2765 8.94281C14.5265 8.69276 14.667 8.35362 14.667 8C14.667 7.64638 14.5265 7.30724 14.2765 7.05719C14.0264 6.80714 13.6873 6.66667 13.3337 6.66667C12.98 6.66667 12.6409 6.80714 12.3909 7.05719C12.1408 7.30724 12.0003 7.64638 12.0003 8C12.0003 8.35362 12.1408 8.69276 12.3909 8.94281C12.6409 9.19286 12.98 9.33333 13.3337 9.33333Z" stroke="#6B6D85" stroke-linecap="round" stroke-linejoin="round"/>
</svg>
