<svg width="16" height="16" viewBox="0 0 16 16" fill="none" xmlns="http://www.w3.org/2000/svg">
<g clip-path="url(#clip0_4847_85380)">
<path d="M5.99967 14.3333V10.3333M5.99967 10.3333V4.66465C5.99975 4.59576 6.01761 4.52806 6.05154 4.46811C6.08546 4.40815 6.13429 4.35797 6.1933 4.32243C6.25231 4.28689 6.3195 4.26719 6.38836 4.26525C6.45722 4.2633 6.52542 4.27917 6.58634 4.31131L11.033 6.66465C11.096 6.69789 11.149 6.74737 11.1865 6.80795C11.224 6.86854 11.2446 6.93805 11.2463 7.00928C11.2479 7.08051 11.2305 7.15089 11.1958 7.21313C11.1611 7.27537 11.1104 7.32722 11.049 7.36331L5.99967 10.3333ZM14.6663 7.99998C14.6663 11.682 11.6817 14.6666 7.99967 14.6666C4.31767 14.6666 1.33301 11.682 1.33301 7.99998C1.33301 4.31798 4.31767 1.33331 7.99967 1.33331C11.6817 1.33331 14.6663 4.31798 14.6663 7.99998Z" stroke="#004BA4" stroke-linecap="round" stroke-linejoin="round"/>
</g>
<defs>
<clipPath id="clip0_4847_85380">
<rect width="16" height="16" fill="white"/>
</clipPath>
</defs>
</svg>
