<svg viewBox="0 0 32 32" fill="none" xmlns="http://www.w3.org/2000/svg">
<path fill-rule="evenodd" clip-rule="evenodd" d="M23.1361 17.51C23.37 17.5613 23.5187 17.7954 23.4681 18.0328L21.5793 26.8954C21.5287 27.1328 21.298 27.2836 21.064 27.2323C20.83 27.1809 20.6813 26.9469 20.7319 26.7095L22.6208 17.8469C22.6714 17.6095 22.9021 17.4587 23.1361 17.51ZM24.6137 19.0798C24.7755 18.9008 25.0497 18.8887 25.2262 19.0528L28.0594 21.6876C28.1444 21.7666 28.1948 21.8767 28.1996 21.9935C28.2044 22.1103 28.1632 22.2242 28.085 22.3101L25.2518 25.424C25.0894 25.6024 24.8152 25.6136 24.6393 25.4488C24.4633 25.2841 24.4524 25.0059 24.6148 24.8274L27.153 22.0378L24.6404 19.7011C24.4639 19.537 24.452 19.2589 24.6137 19.0798ZM18.9671 19.0592C19.1401 18.8913 19.4145 18.8975 19.58 19.073C19.7454 19.2485 19.7394 19.5269 19.5664 19.6947L17.0466 22.1399L19.5797 24.8214C19.7453 24.9968 19.7395 25.2751 19.5667 25.4432C19.3938 25.6112 19.1194 25.6053 18.9538 25.43L16.1205 22.4306C16.0409 22.3464 15.9976 22.2335 16.0001 22.1168C16.0026 22.0001 16.0507 21.8892 16.1338 21.8086L18.9671 19.0592Z" fill="currentColor"/>
<path d="M8 19H15" stroke="currentColor" stroke-linecap="round"/>
<circle cx="5" cy="19" r="1" fill="currentColor"/>
<path d="M8 12H25" stroke="currentColor" stroke-linecap="round"/>
<circle cx="5" cy="12" r="1" fill="currentColor"/>
<path d="M8 26H14" stroke="currentColor" stroke-linecap="round"/>
<circle cx="5" cy="26" r="1" fill="currentColor"/>
<path d="M8 5H25" stroke="currentColor" stroke-linecap="round"/>
<circle cx="5" cy="5" r="1" fill="currentColor"/>
</svg>
