<svg viewBox="0 0 24 24" xmlns="http://www.w3.org/2000/svg"><g clip-rule="evenodd" fill="#fff" fill-rule="evenodd"><path d="m5.685 14.148v4.964h4.965v-4.964zm-.388-.8a.411.411 0 0 0 -.412.412v5.74c0 .228.184.412.412.412h5.742a.411.411 0 0 0 .411-.412v-5.74a.411.411 0 0 0 -.411-.412zm10.521.037h-2.857a.412.412 0 0 0 -.412.412v5.74c0 .228.185.412.412.412h5.742a.411.411 0 0 0 .412-.411v-3.072l-.8-.748v3.431h-4.966v-4.964h3.325zm-10.133-8.535v4.965h4.965v-4.965zm-.388-.8a.412.412 0 0 0 -.412.412v5.741c0 .227.184.412.412.412h5.742a.412.412 0 0 0 .411-.412v-5.74a.411.411 0 0 0 -.411-.412h-5.742zm8.053.838v4.964h4.964v-4.964zm-.39-.8a.412.412 0 0 0 -.41.412v5.74c0 .228.184.412.41.412h5.743a.411.411 0 0 0 .412-.412v-5.74a.411.411 0 0 0 -.412-.412h-5.742z"/><path d="m11.05 17.094h2.303v.9h-2.303zm7.538 0h1.38v.9h-1.38zm-7.538-10.741h2.303v.9h-2.303zm-7.018-.093h1.635v.9h-1.635zm10.166 5.24c.774 0 1.402-.627 1.402-1.402h1a2.402 2.402 0 0 1 -2.402 2.402h-4.174a1.5 1.5 0 0 0 -1.5 1.5v.12h-1v-.12a2.5 2.5 0 0 1 2.5-2.5z" opacity=".3"/><path d="m18.172 13.487-1.065-.995-.677.633 1.064.995-1.064.995.677.633 1.065-.995 1.064.995.678-.633-1.065-.995 1.065-.995-.678-.633z"/></g></svg>