<svg xmlns="http://www.w3.org/2000/svg" fill="none" viewBox="0 0 33 33"><path fill="currentColor" fill-rule="evenodd" d="M16.3 5.7A11 11 0 0 0 8 24L23.7 8.6a11 11 0 0 0-7.4-3Zm0 22a11 11 0 0 1-7.4-2.9L24.4 9.3a11 11 0 0 1 2.5 10 .5.5 0 0 0 1 .3 12 12 0 1 0-8.8 8.7.5.5 0 1 0-.2-1c-.9.3-1.7.4-2.6.4Zm-1.4-17.2 3.4 2-.7.7-3.2-1.9h-.6l-3 1.9 4.3 2.5-.7.7-4.1-2.4v3.6c0 .1 0 .3.2.4l1.5.9-.7.7-1.3-.7c-.4-.3-.7-.8-.7-1.3v-4.4c0-.2 0-.4.2-.5l3.8-2.2c.5-.3 1-.3 1.6 0Zm5.4 4.3.7-.7 2 1.1c.2.1.3.3.3.5V20c0 .5-.3 1-.8 1.3l-3.8 2.2h-.5L13.9 21l.8-.7 3.2 1.9v-3.8l-.8-.5.7-.7.6.3 3.4-2-1.5-.8Zm2 1.7-3.4 2v3.8l3.1-1.8c.2 0 .3-.3.3-.4v-3.6Z" clip-rule="evenodd"/><path fill="#326CE5" d="M27.3 27.7a.2.2 0 0 0-.1 0 .2.2 0 0 0-.1.2l.5 1.2c.4-.3.7-.7 1-1.2l-1.3-.2Zm-1.8.1a.2.2 0 0 0-.3-.1l-1.2.2c.2.5.6.9 1 1.2l.4-1.2Zm1 .5a.2.2 0 0 0-.4 0l-.6 1a2.4 2.4 0 0 0 1.5 0l-.5-1Zm1.8-2.5-1 .8a.2.2 0 0 0 .2.4l1.1.3c0-.5 0-1-.3-1.5Zm-1.7.1a.2.2 0 0 0 .3.2l1-.7c-.3-.4-.8-.6-1.3-.7v1.2Zm-1 .2a.2.2 0 0 0 .3-.2v-1.2a2.4 2.4 0 0 0-1.3.7l1 .7Zm-.5.9a.2.2 0 0 0 0-.4l-.9-.8-.3 1.5 1.2-.3Zm.8.3.4.2.3-.2V27l-.1-.3H26l-.2.3v.3Z"/><path fill="#326CE5" d="m31.8 28-1-4a.7.7 0 0 0-.4-.6l-3.8-1.8a.7.7 0 0 0-.6 0L22 23.4a.7.7 0 0 0-.4.5l-1 4.1a.7.7 0 0 0 .2.6l2.7 3.3a.7.7 0 0 0 .5.3h4.3a.7.7 0 0 0 .3 0 .7.7 0 0 0 .3-.3l2.6-3.3a.7.7 0 0 0 .2-.3V28Zm-4 1.6v.2l.2.4.1.2a.2.2 0 0 1 0 .4.2.2 0 0 1-.4-.1V30.4l-.2-.4h-.1v-.2a3 3 0 0 1-2.2 0v.1H25l-.2.5v.2h-.1a.2.2 0 0 1-.2.2.2.2 0 0 1-.2-.3v-.1l.1-.2.2-.4v-.2a3 3 0 0 1-1.3-1.6H22.7l-.2.1a.2.2 0 0 1-.4-.2.2.2 0 0 1 .2-.2H22.7l.4-.1.1-.1h.1a3 3 0 0 1 .5-2v-.2h-.1c-.1-.2-.2-.3-.4-.3l-.2-.1a.2.2 0 0 1 0-.4.2.2 0 0 1 .1-.1h.2v.1l.2.2.3.2h.1l.1.1a3 3 0 0 1 2-1v-.8a.2.2 0 0 1 0-.2.2.2 0 0 1 .3 0 .2.2 0 0 1 .1.2V24.1a3 3 0 0 1 2 1V25h.1l.4-.3.1-.2a.2.2 0 1 1 .3.3l-.2.2-.3.2v.1l-.2.1c.4.6.6 1.3.5 2h.1l.1.2H30.1a.2.2 0 0 1 .2.5.2.2 0 0 1-.3 0h-.3l-.4-.2h-.2a3 3 0 0 1-1.3 1.7Z"/><path fill="#fff" d="m32.2 28.1-1-4.4a.8.8 0 0 0-.4-.6l-4.2-2a.8.8 0 0 0-.7 0l-4.2 2a.8.8 0 0 0-.4.6l-1 4.4a.8.8 0 0 0 .1.7l3 3.6a.8.8 0 0 0 .6.3h4.6a.8.8 0 0 0 .6-.3l2.9-3.6a.8.8 0 0 0 .1-.7Zm-.4.2a.8.8 0 0 1-.2.3L29 31.8v.1a.7.7 0 0 1-.4.3.7.7 0 0 1-.2 0h-4.2a.7.7 0 0 1-.4-.1l-.2-.1-2.7-3.4a.7.7 0 0 1-.1-.6l1-4a.7.7 0 0 1 .3-.6l3.9-1.8a.7.7 0 0 1 .6 0l3.8 1.8a.7.7 0 0 1 .4.5l1 4.1v.3Z"/><path fill="#fff" d="M30.1 27.7h-.3l-.4-.1v-.1h-.2a3 3 0 0 0-.5-2l.1-.2v-.1l.4-.2.2-.1a.2.2 0 0 0 0-.5.2.2 0 0 0-.2 0v.1l-.2.2-.4.2-.2.1a3 3 0 0 0-1.9-1v-.8a.2.2 0 0 0-.4-.2.2.2 0 0 0 0 .2V24a3 3 0 0 0-2 1h-.2l-.3-.3-.2-.2-.2-.1a.2.2 0 0 0-.2 0 .2.2 0 0 0 0 .4h.1l.2.2.4.2v.2a3 3 0 0 0-.4 2v.1l-.2.1H22.5v.1a.2.2 0 1 0 0 .4H22.8l.4-.2h.2a3 3 0 0 0 1.4 1.7v.2l-.3.4v.2h-.1a.2.2 0 0 0 0 .3.2.2 0 0 0 .4 0V30.4l.3-.4.1-.2a3 3 0 0 0 2.1 0v.1l.2.1.2.4v.2a.2.2 0 0 0 .4.2.2.2 0 0 0 0-.3V30.2c-.2-.1-.2-.2-.3-.4v-.2A3 3 0 0 0 29 28H29.7l.2.1h.1a.2.2 0 0 0 .3 0 .2.2 0 0 0 0-.3.2.2 0 0 0-.2-.1Zm-2.2-2.3-1 .7a.2.2 0 0 1-.3-.2v-1.2c.5 0 1 .3 1.3.7Zm-1.8 1.3h.4l.2.3-.1.3-.3.2-.4-.2V27l.2-.3Zm-.4-2h.3v1.2a.2.2 0 0 1-.4.2l-1-.7c.3-.3.7-.6 1.1-.7Zm-1.5 1.1 1 .8a.2.2 0 0 1-.1.4l-1.2.3c0-.5 0-1 .3-1.5Zm1.2 2.1-.4 1.2c-.4-.3-.8-.7-1-1.2l1.2-.2a.2.2 0 0 1 .2 0 .2.2 0 0 1 0 .2Zm1.4 1.5-1.3-.1.6-1a.2.2 0 0 1 .3 0l.6 1h-.2Zm.8-.3-.5-1.2a.2.2 0 0 1 .2-.2l1.2.2c-.2.5-.5.9-1 1.2Zm1-1.8-1.1-.3a.2.2 0 0 1-.1-.4l.9-.8c.3.5.4 1 .3 1.5Z"/></svg>