<svg xmlns="http://www.w3.org/2000/svg" fill="none" viewBox="0 0 33 32"><path fill="currentColor" fill-rule="evenodd" d="M11 6v2H9a1 1 0 0 0-1 1v2.5H6v1h2v2H6v1h2v2H6v1h2v2H6v1h2V23a1 1 0 0 0 1 1h2v2h1v-2h2v2h1v-2h2v2h1v-2h2v2h1v-2h2a1 1 0 0 0 1-1v-1.5h2v-1h-2v-2h2v-1h-2v-2h2v-1h-2v-2h2v-1h-2V9a1 1 0 0 0-1-1h-2V6h-1v2h-2V6h-1v2h-2V6h-1v2h-2V6h-1ZM9 9h14v14H9V9Zm1.629 10v2.91h.79v-1.137h1.045v1.136h.79V19h-.79v1.136H11.42V19h-.79Zm2.92 0v.636h.875v2.273h.779v-2.273h.875V19h-2.529Zm2.747 0v.636h.875v2.273h.778v-2.273h.875V19h-2.529Zm2.825 0v2.91h.79v-.864h.437c.222 0 .416-.042.581-.124a.914.914 0 0 0 .388-.352 1.02 1.02 0 0 0 .14-.542c0-.206-.046-.386-.136-.54a.929.929 0 0 0-.378-.36 1.2 1.2 0 0 0-.566-.128H19.12Zm.79 1.432h.278a.532.532 0 0 0 .238-.048.353.353 0 0 0 .151-.141.412.412 0 0 0 .055-.215.4.4 0 0 0-.055-.213.339.339 0 0 0-.151-.136.532.532 0 0 0-.238-.048h-.278v.8Zm-4.57-9.774c.38-.431.952-.715 1.786-.648.636.05 1.135.268 1.508.609.37.337.59.771.716 1.216.248.879.144 1.87-.008 2.505a.388.388 0 0 1-.378.297h-5.917a.389.389 0 0 1-.368-.26c-.32-.923-.214-1.72.323-2.24.445-.432 1.109-.592 1.823-.542.102-.297.256-.644.515-.937Zm.586.509c-.233.264-.355.622-.449.953a.389.389 0 0 1-.435.277c-.716-.112-1.228.032-1.497.293-.217.21-.355.577-.208 1.174h5.31c.092-.54.12-1.23-.046-1.82-.098-.347-.257-.64-.493-.856-.231-.211-.56-.37-1.044-.408-.597-.047-.927.146-1.139.387Zm-1.948 4.321a.39.39 0 0 1 .531-.141L16 16.2l1.49-.854a.39.39 0 0 1 .53.141.385.385 0 0 1-.142.528l-1.1.631 1.1.632c.186.107.25.343.143.528a.39.39 0 0 1-.532.141L16 17.094l-1.489.854a.39.39 0 0 1-.531-.141.385.385 0 0 1 .142-.528l1.1-.632-1.1-.631a.385.385 0 0 1-.142-.528Z" clip-rule="evenodd"/><path fill="#F68536" d="m24.521 29.701-1.064.243v-6.895l1.064.243v6.409ZM25.85 30.108l-1.328.377v-7.969l1.328.377v7.215Z"/><path fill="#F68536" d="m27.554 30.526-1.704.624v-9.298l1.704.624v8.05ZM32.11 29.722 27.554 32V21l4.556 2.278v6.444Z"/><path fill="#9D5025" d="m26.646 21.454.908-.454v11l-.908-.454V21.454ZM25.147 22.204l.703-.352v9.296l-.703-.352v-8.592ZM23.961 22.796l.56-.28v7.968l-.56-.28v-7.408ZM23.457 23.049l-.457.228v6.446l.457.228V23.05Z"/></svg>