<svg xmlns="http://www.w3.org/2000/svg" fill="none" viewBox="0 0 33 32"><path fill="currentColor" fill-rule="evenodd" d="M4.4238 10.9794C6.8646 7.0794 11.1393 4.5 15.9999 4.5c4.8607 0 9.1354 2.5795 11.5762 6.4794a.5.5 0 1 0 .8477-.5305C25.8112 6.2745 21.2254 3.5 15.9999 3.5c-5.2255 0-9.8112 2.7745-12.4238 6.9489a.5.5 0 1 0 .8477.5305Zm2.9955 2.6422C9.2245 10.844 12.3915 9 16 9s6.7755 1.844 8.5807 4.6216a.5.5 0 0 0 .8385-.545C23.4345 10.0228 19.9561 8 16.0001 8c-3.9561 0-7.4345 2.0228-9.4193 5.0766a.5.5 0 1 0 .8385.545ZM16 14c-2.1362 0-4.0109 1.0989-5.0799 2.7552a.5.5 0 1 1-.8402-.5423C11.3271 14.2806 13.5133 13 16.0001 13c2.4867 0 4.6729 1.2806 5.9201 3.2129a.5.5 0 1 1-.8402.5423C20.011 15.0989 18.1362 14 16.0001 14Zm-2.1802 10.4281a.5001.5001 0 0 0-.5.866L14.5426 26l-1.2227.706a.5.5 0 0 0 .5.866l1.7227-.9946 1.482.8556a.5.5 0 1 0 .5-.866l-.982-.567.982-.5669a.5.5 0 0 0-.5-.866l-1.482.8556-1.7227-.9946Zm2.8482-5.917c-.9391-.0752-1.5917.2467-2.0249.7421-.2774.3171-.4481.6876-.5618 1.0094-.7787-.0443-1.508.1374-2.006.6231-.6179.6025-.73 1.5181-.373 2.5549a.5.5 0 0 0 .4728.3372h6.5084a.5.5 0 0 0 .4865-.3846c.1681-.7085.2854-1.8199.0081-2.809-.1407-.5017-.3897-.9952-.8083-1.3798-.424-.3894-.9886-.6362-1.7018-.6933Zm-1.7499 2.427c.1023-.3654.2332-.7469.4778-1.0267.2172-.2484.5569-.4543 1.1923-.4035.517.0414.8637.2113 1.1051.433.2467.2266.4169.5386.5219.9133.1733.618.1506 1.3414.0576 1.9236h-5.7214c-.1358-.6102.0133-.9726.222-1.1761.2729-.2661.8095-.4269 1.5853-.3045a.4998.4998 0 0 0 .5594-.3591Z" clip-rule="evenodd"/><path fill="#F68536" d="m24.5215 29.7012-1.0647.2429v-6.8953l1.0647.2434v6.409ZM25.85 30.1081l-1.3284.3775v-7.969l1.3284.3771v7.2144Z"/><path fill="#F68536" d="m27.554 30.5265-1.7041.6236v-9.2976l1.7041.6234v8.0506ZM32.1104 29.722l-4.5564 2.2782v-11l4.5564 2.2783v6.4435Z"/><path fill="#9D5025" d="m26.6458 21.4544.9082-.4542v11l-.9082-.454V21.4544ZM25.1469 22.2038l.7031-.3515v9.2959l-.7031-.3515v-8.5929ZM23.9614 22.7966l.5601-.28v7.9674l-.5601-.2803v-7.4071ZM23.4568 23.0488 23 23.2772v6.4462l.4568.2282v-6.9028Z"/></svg>