<svg xmlns="http://www.w3.org/2000/svg" fill="none" viewBox="0 0 16 16"><path stroke="#ff006a" stroke-linecap="round" stroke-width=".8" d="M6.34 3.022v2.592a.5.5 0 0 1-.056.231L2.63 12.861a1 1 0 0 0 .887 1.462h8.953a1 1 0 0 0 .888-1.46L9.732 5.846a.5.5 0 0 1-.056-.23V3.03c0-.004.004-.008.008-.008h.606c.381 0 .69-.31.69-.691v0a.691.691 0 0 0-.69-.691H5.71a.691.691 0 0 0-.69.69v0c0 .383.31.692.69.692h.63Zm0 0H8"/><path stroke="#ff006a" d="M8.014 8v.958m0 3.042v-.865M6.602 8.592l.588.588m2.236 2.24-.588-.588M5.99 9.998l.87.002m3.13.006-.79-.002M6.602 11.42l.588-.588m2.236-2.24-.624.625"/><circle cx="7.99" cy="10.003" r="1.167" stroke="#ff006a" stroke-width=".8"/></svg>