<svg viewBox="0 0 16 16" fill="none" xmlns="http://www.w3.org/2000/svg">
<path d="M14.166 5.83301H1.83301V10.7998C1.83301 11.3681 1.8332 11.7648 1.8584 12.0732C1.8831 12.3753 1.92914 12.5491 1.99609 12.6807C2.1399 12.9629 2.3701 13.1931 2.65234 13.3369C2.78392 13.4039 2.95771 13.4499 3.25977 13.4746C3.56819 13.4998 3.9649 13.5 4.5332 13.5H11.4668C12.0349 13.5 12.4309 13.4998 12.7393 13.4746C13.0418 13.4499 13.216 13.404 13.3477 13.3369C13.6299 13.1931 13.8591 12.9629 14.0029 12.6807C14.0699 12.5491 14.1159 12.3754 14.1406 12.0732C14.1658 11.7648 14.166 11.3681 14.166 10.7998V5.83301ZM10.6094 4.83301H14.165C14.1639 4.45352 14.16 4.164 14.1406 3.92676C14.1159 3.62462 14.0699 3.45093 14.0029 3.31934C13.8591 3.03713 13.6299 2.8069 13.3477 2.66309C13.216 2.59599 13.0418 2.55011 12.7393 2.52539C12.4309 2.5002 12.0349 2.5 11.4668 2.5H11.0762L10.6094 4.83301ZM5.94336 4.83301H9.58984L10.0566 2.5H6.41016L5.94336 4.83301ZM4.5332 2.5C3.9649 2.5 3.56819 2.50019 3.25977 2.52539C2.95771 2.55009 2.78392 2.59613 2.65234 2.66309C2.3701 2.8069 2.1399 3.03709 1.99609 3.31934C1.92914 3.45091 1.8831 3.62471 1.8584 3.92676C1.83901 4.164 1.83512 4.45352 1.83398 4.83301H4.92285L5.39062 2.5H4.5332ZM15.166 10.7998C15.166 11.3516 15.167 11.7957 15.1377 12.1543C15.1079 12.5187 15.0444 12.8386 14.8936 13.1348C14.6539 13.6051 14.272 13.9878 13.8018 14.2275C13.5056 14.3784 13.1847 14.4409 12.8203 14.4707C12.4619 14.5 12.0182 14.5 11.4668 14.5H4.5332C3.9814 14.5 3.5373 14.5 3.17871 14.4707C2.81437 14.4409 2.49433 14.3784 2.19824 14.2275C1.72784 13.9879 1.34515 13.6052 1.10547 13.1348C0.954642 12.8387 0.892074 12.5186 0.862305 12.1543C0.833007 11.7957 0.833008 11.3516 0.833008 10.7998V5.2002C0.833008 4.64839 0.833007 4.20429 0.862305 3.8457C0.892074 3.48136 0.954642 3.16133 1.10547 2.86523C1.34515 2.39483 1.72784 2.01214 2.19824 1.77246C2.49433 1.62163 2.81437 1.55907 3.17871 1.5293C3.5373 1.5 3.9814 1.5 4.5332 1.5H11.4668C12.0182 1.5 12.4619 1.50003 12.8203 1.5293C13.1847 1.55907 13.5056 1.62157 13.8018 1.77246C14.272 2.01216 14.6539 2.39494 14.8936 2.86523C15.0444 3.16137 15.1079 3.4813 15.1377 3.8457C15.167 4.20428 15.166 4.64841 15.166 5.2002V10.7998Z" fill="currentColor"/>
</svg>
