<svg xmlns="http://www.w3.org/2000/svg" fill="none" viewBox="0 0 33 32"><path fill="currentColor" fill-rule="evenodd" d="M25.742 2.494Zm-.315.168-.004.003c-.29.189-.665.504-1 .908-.675.816-1.09 1.869-.527 2.974a.5.5 0 0 1-.283.7l-.162-.472.161.473h-.001l-.003.001-.008.003-.025.008c-.02.006-.046.014-.08.022a2.942 2.942 0 0 1-1.141.072 2.104 2.104 0 0 1-1.063-.467 2.088 2.088 0 0 1-.349-.377c-.218.47-.442 1.196-.442 2.205 0 .803.266 1.542.714 2.133-.118-.719.028-1.483.541-2.007a.51.51 0 0 1 .487-.138c.175.044.311.177.357.35.135.503.601.709 1.03.604a.83.83 0 0 0 .517-.375c.121-.198.205-.512.124-.98a.506.506 0 0 1 .78-.502c.842.565 1.376 1.181 1.633 1.822.157.389.206.772.17 1.136.407-.576.647-1.28.647-2.043 0-.613-.268-1.395-.713-2.504m-1.36-3.55c.378 1.135.78 2.12 1.124 2.968l-1.124-2.967Zm-4.415 2.816a43.335 43.335 0 0 0-.354-.352h-.001l-.003.003-.005.005-.014.016a2.809 2.809 0 0 0-.184.227 4.215 4.215 0 0 0-.396.672A5.842 5.842 0 0 0 19.535 8H18V6h-1v2h-2V6h-1v2h-2V6h-1v2H9a1 1 0 0 0-1 1v2.5H6v1h2v2H6v1h2v2H6v1h2v2H6v1h2V23a1 1 0 0 0 1 1h2v2h1v-2h2v2h1v-2h2v2h1v-2h2v2h1v-2h2a1 1 0 0 0 1-1v-1.5h2v-1h-2v-2h2v-1h-2v-2h2v-1h-2v-1.26c2.488 0 4.5-2.029 4.5-4.525 0-.84-.355-1.805-.785-2.876a133.96 133.96 0 0 0-.241-.596c-.393-.965-.84-2.064-1.249-3.36-.101-.323-.401-.38-.522-.383a.868.868 0 0 0-.307.055c-.159.056-.34.155-.521.273a5.71 5.71 0 0 0-1.222 1.107c-.69.835-1.295 2.072-.895 3.446a1.647 1.647 0 0 1-.259-.017 1.106 1.106 0 0 1-.564-.242c-.163-.138-.332-.369-.44-.773a.5.5 0 0 0-.837-.225l.354.353ZM23 13.127A4.52 4.52 0 0 1 19.509 9H9v14h14v-9.872ZM21.367 5.83l.002-.001v-.001l-.002.002Zm3.866 3.414c-.05.2-.128.383-.23.55-.273.443-.694.72-1.143.83-.573.14-1.214.01-1.675-.392-.025.278.02.594.154.91.261.61.82 1.096 1.668 1.096.663 0 1.453-.485 1.74-1.16.136-.317.162-.68.003-1.077a2.392 2.392 0 0 0-.517-.757ZM10.025 18h1.547c.443 0 .824-.087 1.142-.262.32-.175.564-.425.735-.752.172-.327.258-.718.258-1.172 0-.453-.086-.842-.258-1.168a1.769 1.769 0 0 0-.731-.748c-.317-.174-.695-.262-1.134-.262h-1.56V18Zm1.508-.79h-.586v-2.783h.588c.273 0 .503.048.689.145a.925.925 0 0 1 .42.451c.095.205.142.469.142.79 0 .326-.047.592-.143.798a.933.933 0 0 1-.421.454 1.481 1.481 0 0 1-.689.144Zm6.507.79v-4.364h-.918v2.745h-.039L15.2 13.636h-.81V18h.923v-2.746h.031L17.244 18h.797Zm2.91-3.51c.13.096.202.23.22.401h.883a1.222 1.222 0 0 0-.208-.686 1.34 1.34 0 0 0-.567-.462 2.016 2.016 0 0 0-.848-.166c-.318 0-.602.055-.852.166-.25.11-.447.265-.59.462a1.143 1.143 0 0 0-.212.693c0 .322.105.579.318.769.213.19.504.33.871.42l.476.119c.159.038.293.08.402.128.111.047.195.104.252.17.058.067.087.15.087.247a.438.438 0 0 1-.096.28.624.624 0 0 1-.27.19c-.115.045-.251.067-.407.067-.16 0-.302-.024-.429-.072a.698.698 0 0 1-.3-.22.67.67 0 0 1-.126-.366h-.892c.007.314.083.577.228.79.146.212.349.372.609.48.261.108.568.162.92.162.355 0 .659-.053.91-.16.253-.108.446-.26.58-.454.135-.196.203-.427.204-.694a1.158 1.158 0 0 0-.1-.484 1.092 1.092 0 0 0-.27-.367 1.595 1.595 0 0 0-.414-.262 2.767 2.767 0 0 0-.524-.17l-.392-.094a2.28 2.28 0 0 1-.269-.077 1.145 1.145 0 0 1-.221-.108.512.512 0 0 1-.151-.152.359.359 0 0 1-.05-.204c0-.094.028-.178.081-.252a.538.538 0 0 1 .24-.172c.103-.043.23-.064.38-.064.222 0 .398.048.527.143Z" clip-rule="evenodd"/><path fill="#000" d="M21.179 31.567 20.259 29a.403.403 0 0 1-.028-.124c0-.111.093-.217.23-.217.117 0 .194.078.228.186l.762 2.21.768-2.216c.034-.105.106-.18.223-.18h.025c.124 0 .199.078.236.18l.762 2.213.774-2.222c.03-.093.093-.177.217-.177.13 0 .223.1.223.211 0 .04-.019.087-.028.124l-.926 2.57c-.047.133-.14.204-.248.204h-.019c-.117 0-.204-.071-.247-.205l-.756-2.178-.762 2.178c-.04.134-.13.205-.245.205h-.012c-.118.01-.21-.062-.257-.195Zm6.702-2.688c0-.124.1-.23.223-.23.13 0 .23.1.23.23v.522c.223-.506.715-.745 1.043-.745.137 0 .223.1.223.23a.226.226 0 0 1-.2.23c-.586.07-1.07.511-1.07 1.386v1.03c0 .125-.092.23-.222.23s-.23-.1-.23-.23l.003-2.652Zm3.169 2.911c-.818 0-1.484-.633-1.484-1.564v-.012c0-.866.604-1.564 1.425-1.564.88 0 1.382.726 1.382 1.523a.21.21 0 0 1-.208.211h-2.15c.062.652.518 1.018 1.047 1.018.369 0 .638-.146.858-.35a.198.198 0 0 1 .127-.053.19.19 0 0 1 .127.338 1.53 1.53 0 0 1-1.124.453Zm.88-1.74c-.047-.547-.357-1.025-.948-1.025-.517 0-.908.435-.966 1.024h1.914Zm-7.254.8v-.013c0-.639.526-.977 1.291-.977.387 0 .66.053.933.13v-.105c0-.546-.335-.826-.902-.826-.303 0-.48.04-.703.14a.214.214 0 0 1-.08.019.199.199 0 0 1-.199-.193c0-.093.04-.152.124-.189.298-.13.524-.174.908-.174.427 0 .756.112.975.335.205.205.31.5.31.885v1.672a.215.215 0 0 1-.217.224.206.206 0 0 1-.213-.211v-.289c-.211.276-.564.521-1.094.521-.563-.006-1.133-.329-1.133-.95Zm2.23-.236v-.292a3.122 3.122 0 0 0-.89-.13c-.566 0-.882.245-.882.627v.012c0 .382.35.605.762.605.554 0 1.01-.341 1.01-.822Zm-13.923-1.76a.426.426 0 0 0-.573-.213.421.421 0 0 0-.21.574l.96 2.09c.152.33.31.5.61.5.319 0 .458-.186.61-.5 0 0 .836-1.827.846-1.845.009-.019.034-.078.12-.078.072 0 .134.06.134.137v1.787c0 .276.151.503.446.503.294 0 .452-.227.452-.503v-1.462c0-.282.201-.465.477-.465.276 0 .458.19.458.465v1.462c0 .276.152.503.446.503.294 0 .453-.227.453-.503v-1.462c0-.282.2-.465.477-.465.275 0 .458.19.458.465v1.462c0 .276.152.503.446.503.294 0 .452-.227.452-.503v-1.663c0-.611-.49-1.04-1.08-1.04-.59 0-.961.41-.961.41-.195-.258-.468-.413-.926-.413-.483 0-.908.41-.908.41a1.083 1.083 0 0 0-.808-.41c-.428.003-.768.193-.976.667l-.613 1.45-.79-1.862Z"/></svg>