<svg xmlns="http://www.w3.org/2000/svg" fill="none" viewBox="0 0 32 33"><path fill="currentColor" fill-rule="evenodd" d="M23.04 6.5h5.92a3 3 0 0 0-5.92 0Zm5.92 1h-5.92a3 3 0 0 0 5.92 0Zm-6.08-3a4 4 0 1 1 1.62 6.2V16a.5.5 0 0 1-.5.5h-2.5V20a.5.5 0 0 1-.5.5h-2.5V23a.5.5 0 0 1-.5.5H7a.5.5 0 0 1-.5-.5V12c0-.28.22-.5.5-.5h2.5V9c0-.28.22-.5.5-.5h2.5V5c0-.28.22-.5.5-.5h9.88Zm-.59 1H13.5v10h10v-5.38a4 4 0 0 1-1.2-4.62ZM13 16.5h7.5v3h-10v-10h2V16c0 .28.22.5.5.5Zm-3.5-4h-2v10h10v-2H10a.5.5 0 0 1-.5-.5v-7.5Z" clip-rule="evenodd"/><g clip-path="url(#a)"><path fill="#EA4335" d="M27.61 24.83h.37l1.04-1.04.06-.45a4.69 4.69 0 0 0-7.63 2.3.57.57 0 0 1 .36-.03l2.09-.34s.1-.18.16-.17a2.6 2.6 0 0 1 3.56-.27Z"/><path fill="#4285F4" d="M30.51 25.63a4.7 4.7 0 0 0-1.42-2.28l-1.46 1.46c.62.5.97 1.27.95 2.07v.26a1.3 1.3 0 1 1 0 2.6h-2.6l-.26.27v1.56l.26.26h2.6a3.39 3.39 0 0 0 1.93-6.2Z"/><path fill="#34A853" d="M23.37 31.81h2.6v-2.08h-2.6a1.3 1.3 0 0 1-.54-.12l-.37.11-1.05 1.05-.09.36c.6.45 1.31.69 2.05.68Z"/><path fill="#FBBC05" d="M23.37 25.05a3.39 3.39 0 0 0-2.05 6.07l1.51-1.51a1.3 1.3 0 1 1 1.73-1.72l1.51-1.52a3.39 3.39 0 0 0-2.7-1.32Z"/></g><defs><clipPath id="a"><path fill="#fff" d="M20 22.17h12v9.66H20z"/></clipPath></defs></svg>