<svg xmlns="http://www.w3.org/2000/svg" fill="none" viewBox="0 0 33 32"><path fill="currentColor" fill-rule="evenodd" d="M11 6v2H9a1 1 0 0 0-1 1v2.5H6v1h2v2H6v1h2v2H6v1h2v2H6v1h2V23a1 1 0 0 0 1 1h2v2h1v-2h2v2h1v-2h2v2h1v-2h2v2h1v-2h2a1 1 0 0 0 1-1v-1.5h2v-1h-2v-2h2v-1h-2v-2h2v-1h-2v-2h2v-1h-2V9a1 1 0 0 0-1-1h-2V6h-1v2h-2V6h-1v2h-2V6h-1v2h-2V6h-1ZM9 9h14v14H9V9Zm1.629 10v2.91h.79v-1.137h1.045v1.136h.79V19h-.79v1.136H11.42V19h-.79Zm2.92 0v.636h.875v2.273h.779v-2.273h.875V19h-2.529Zm2.747 0v.636h.875v2.273h.778v-2.273h.875V19h-2.529Zm2.825 0v2.91h.79v-.864h.437c.222 0 .416-.042.581-.124a.914.914 0 0 0 .388-.352 1.02 1.02 0 0 0 .14-.542c0-.206-.046-.386-.136-.54a.929.929 0 0 0-.378-.36 1.2 1.2 0 0 0-.566-.128H19.12Zm.79 1.432h.278a.532.532 0 0 0 .238-.048.353.353 0 0 0 .151-.141.412.412 0 0 0 .055-.215.4.4 0 0 0-.055-.213.339.339 0 0 0-.151-.136.532.532 0 0 0-.238-.048h-.278v.8Zm-4.57-9.774c.38-.431.952-.715 1.786-.648.636.05 1.135.268 1.508.609.37.337.59.771.716 1.216.248.879.144 1.87-.008 2.505a.388.388 0 0 1-.378.297h-5.917a.389.389 0 0 1-.368-.26c-.32-.923-.214-1.72.323-2.24.445-.432 1.109-.592 1.823-.542.102-.297.256-.644.515-.937Zm.586.509c-.233.264-.355.622-.449.953a.389.389 0 0 1-.435.277c-.716-.112-1.228.032-1.497.293-.217.21-.355.577-.208 1.174h5.31c.092-.54.12-1.23-.046-1.82-.098-.347-.257-.64-.493-.856-.231-.211-.56-.37-1.044-.408-.597-.047-.927.146-1.139.387Zm-1.948 4.321a.39.39 0 0 1 .531-.141L16 16.2l1.49-.854a.39.39 0 0 1 .53.141.385.385 0 0 1-.142.528l-1.1.631 1.1.632c.186.107.25.343.143.528a.39.39 0 0 1-.532.141L16 17.094l-1.489.854a.39.39 0 0 1-.531-.141.385.385 0 0 1 .142-.528l1.1-.632-1.1-.631a.385.385 0 0 1-.142-.528Z" clip-rule="evenodd"/><path fill="#000" d="M21.179 31.567 20.259 29a.403.403 0 0 1-.028-.124c0-.111.093-.217.23-.217.117 0 .194.078.228.186l.762 2.21.768-2.216c.034-.105.106-.18.223-.18h.025c.124 0 .199.078.236.18l.762 2.213.774-2.222c.03-.093.093-.177.217-.177.13 0 .223.1.223.211 0 .04-.019.087-.028.124l-.926 2.57c-.047.133-.14.204-.248.204h-.019c-.117 0-.204-.071-.247-.205l-.756-2.178-.762 2.178c-.04.134-.13.205-.245.205h-.012c-.118.01-.21-.062-.257-.195Zm6.702-2.688c0-.124.1-.23.223-.23.13 0 .23.1.23.23v.522c.223-.506.715-.745 1.043-.745.137 0 .223.1.223.23a.226.226 0 0 1-.2.23c-.586.07-1.07.511-1.07 1.386v1.03c0 .125-.092.23-.222.23s-.23-.1-.23-.23l.003-2.652Zm3.169 2.911c-.818 0-1.484-.633-1.484-1.564v-.012c0-.866.604-1.564 1.425-1.564.88 0 1.382.726 1.382 1.523a.21.21 0 0 1-.208.211h-2.15c.062.652.518 1.018 1.047 1.018.369 0 .638-.146.858-.35a.198.198 0 0 1 .127-.053.19.19 0 0 1 .127.338 1.53 1.53 0 0 1-1.124.453Zm.88-1.74c-.047-.547-.357-1.025-.948-1.025-.517 0-.908.435-.966 1.024h1.914Zm-7.254.8v-.013c0-.639.526-.977 1.291-.977.387 0 .66.053.933.13v-.105c0-.546-.335-.826-.902-.826-.303 0-.48.04-.703.14a.214.214 0 0 1-.08.019.199.199 0 0 1-.199-.193c0-.093.04-.152.124-.189.298-.13.524-.174.908-.174.427 0 .756.112.975.335.205.205.31.5.31.885v1.672a.215.215 0 0 1-.217.224.206.206 0 0 1-.213-.211v-.289c-.211.276-.564.521-1.094.521-.563-.006-1.133-.329-1.133-.95Zm2.23-.236v-.292a3.122 3.122 0 0 0-.89-.13c-.566 0-.882.245-.882.627v.012c0 .382.35.605.762.605.554 0 1.01-.341 1.01-.822Zm-13.923-1.76a.426.426 0 0 0-.573-.213.421.421 0 0 0-.21.574l.96 2.09c.152.33.31.5.61.5.319 0 .458-.186.61-.5 0 0 .836-1.827.846-1.845.009-.019.034-.078.12-.078.072 0 .134.06.134.137v1.787c0 .276.151.503.446.503.294 0 .452-.227.452-.503v-1.462c0-.282.201-.465.477-.465.276 0 .458.19.458.465v1.462c0 .276.152.503.446.503.294 0 .453-.227.453-.503v-1.462c0-.282.2-.465.477-.465.275 0 .458.19.458.465v1.462c0 .276.152.503.446.503.294 0 .452-.227.452-.503v-1.663c0-.611-.49-1.04-1.08-1.04-.59 0-.961.41-.961.41-.195-.258-.468-.413-.926-.413-.483 0-.908.41-.908.41a1.083 1.083 0 0 0-.808-.41c-.428.003-.768.193-.976.667l-.613 1.45-.79-1.862Z"/></svg>