<svg xmlns="http://www.w3.org/2000/svg" fill="none" viewBox="0 0 33 33"><path fill="currentColor" fill-rule="evenodd" d="M24.17 12.1a1.61 1.61 0 1 1-1.62-1.6h.72V9.01h-.72a1.61 1.61 0 1 1 1.62-1.6v.7h1.44v-.7a1.61 1.61 0 1 1 1.62 1.6h-.72v1.47h.72a1.61 1.61 0 1 1-1.62 1.61v-.7h-1.44v.7Zm-.9-.7h-.72c-.4 0-.71.31-.71.7 0 .39.32.7.71.7.4 0 .72-.31.72-.7v-.7Zm.9-.9h1.44V9.01h-1.44v1.47Zm2.34.9v.7c0 .39.32.7.72.7.4 0 .71-.31.71-.7 0-.39-.32-.7-.71-.7h-.72Zm0-3.28h.72c.4 0 .71-.32.71-.7 0-.4-.32-.71-.71-.71-.4 0-.72.32-.72.7v.71Zm-3.24 0v-.7c0-.4-.32-.71-.72-.71-.4 0-.71.32-.71.7 0 .4.32.71.71.71h.72Zm-9.53-1.61a.5.5 0 0 1 .5 0l4.38 2.59a.5.5 0 1 1-.51.86l-4.12-2.44-7.28 4.32 7.73 4.59 3.9-2.3a.5.5 0 1 1 .5.86l-3.9 2.3-.05 8.27 7.34-4.34V19.2a.5.5 0 1 1 1 0v2.32a.5.5 0 0 1-.24.43l-8.36 4.93a.5.5 0 0 1-.5 0L5.47 21.7a.5.5 0 0 1-.25-.43v-9.43c0-.18.1-.34.25-.43l8.26-4.9Zm.15 19.05.05-8.27-7.7-4.58V21l7.65 4.57Zm8.97-9.73h.71a1.25 1.25 0 0 0-.13-.46 1.09 1.09 0 0 0-.28-.34c-.1-.1-.24-.17-.39-.22a1.55 1.55 0 0 0-1.19.1c-.2.12-.37.29-.5.5-.12.23-.18.5-.18.82 0 .32.06.6.18.82.12.22.29.39.5.5.2.12.44.18.7.18.2 0 .38-.03.53-.1a1.2 1.2 0 0 0 .65-.58c.06-.12.1-.25.11-.38h-.7a.57.57 0 0 1-.07.18.48.48 0 0 1-.3.23.7.7 0 0 1-.2.03.65.65 0 0 1-.36-.1.65.65 0 0 1-.24-.3c-.05-.12-.08-.28-.08-.48 0-.18.03-.34.08-.47a.66.66 0 0 1 .23-.3c.1-.07.23-.1.37-.1.08 0 .15 0 .22.03a.48.48 0 0 1 .29.25l.05.2Zm2.22-1.05h-1.2v2.9h.7v-.9h.48c.22 0 .41-.04.57-.12.17-.08.29-.2.38-.35.08-.15.13-.32.13-.52s-.04-.38-.13-.53a.9.9 0 0 0-.37-.35 1.17 1.17 0 0 0-.56-.13Zm-.5 1.45h.35c.1 0 .2-.02.26-.05a.38.38 0 0 0 .16-.16.48.48 0 0 0 .06-.23.47.47 0 0 0-.06-.24.37.37 0 0 0-.16-.15.59.59 0 0 0-.26-.05h-.35v.88Zm4.27-1.45h-.7v1.81c0 .1-.03.2-.07.27a.48.48 0 0 1-.19.19.55.55 0 0 1-.27.06c-.1 0-.2-.02-.28-.06a.48.48 0 0 1-.19-.19.55.55 0 0 1-.06-.27v-1.81h-.7v1.88c0 .21.05.4.15.56.1.16.24.29.43.37.18.1.4.13.65.13.24 0 .46-.04.64-.13.19-.08.33-.2.43-.37.1-.16.16-.35.16-.56v-1.88Z" clip-rule="evenodd"/><path fill="#326CE5" d="M27.32 27.7a.2.2 0 0 0-.12.02.2.2 0 0 0-.1.26l.46 1.12c.44-.28.78-.7.95-1.2l-1.19-.2Zm-1.85.16a.2.2 0 0 0-.24-.15l-1.18.2c.18.49.51.9.95 1.19l.46-1.1v-.01a.2.2 0 0 0 0-.13Zm.99.44a.2.2 0 0 0-.36 0l-.58 1.05a2.37 2.37 0 0 0 1.52 0l-.58-1.05Zm1.83-2.44-.89.8a.2.2 0 0 0 .08.35l1.16.33a2.4 2.4 0 0 0-.35-1.48Zm-1.66.09a.2.2 0 0 0 .22.19.2.2 0 0 0 .1-.04l.99-.7c-.38-.36-.86-.59-1.38-.65l.07 1.2Zm-1.03.15a.2.2 0 0 0 .32-.15l.07-1.2c-.08 0-.16.02-.24.04-.43.1-.83.3-1.14.62l.99.7Zm-.53.91a.2.2 0 0 0 .08-.35l-.9-.8c-.27.44-.39.97-.33 1.49l1.15-.34Zm.88.35.33.16.33-.16.08-.35-.23-.29h-.37l-.23.29.09.35Z"/><path fill="#326CE5" d="m31.76 28.07-.95-4.1a.74.74 0 0 0-.4-.5l-3.82-1.83a.74.74 0 0 0-.63 0l-3.82 1.83a.74.74 0 0 0-.4.5l-.94 4.1a.72.72 0 0 0 .14.61l2.64 3.3c.02 0 .03.02.04.03a.72.72 0 0 0 .54.24h4.24a.75.75 0 0 0 .57-.28l.08-.1 2.57-3.19a.71.71 0 0 0 .14-.3.72.72 0 0 0 0-.31Zm-3.97 1.6a.8.8 0 0 0 .04.09.18.18 0 0 0-.02.13c.06.13.13.25.2.36.05.06.1.12.13.19l.03.06a.23.23 0 0 1-.1.32.23.23 0 0 1-.32-.13l-.02-.05a1.9 1.9 0 0 1-.07-.21c-.04-.14-.1-.27-.16-.39a.18.18 0 0 0-.11-.07l-.05-.09c-.68.26-1.44.26-2.12 0l-.05.1a.19.19 0 0 0-.1.04 1.6 1.6 0 0 0-.17.41l-.07.21-.03.06a.23.23 0 0 1-.22.15.23.23 0 0 1-.2-.35l.04-.06.12-.18c.08-.12.15-.24.2-.37.01-.05 0-.1-.01-.13l.04-.1A2.98 2.98 0 0 1 23.45 28l-.1.02a.25.25 0 0 0-.13-.05c-.14.02-.27.06-.4.12l-.2.07-.07.02a.23.23 0 0 1-.3-.26.23.23 0 0 1 .2-.19l.06-.01.22-.02c.14 0 .28-.03.41-.07a.32.32 0 0 0 .1-.1l.1-.02c-.1-.73.06-1.46.46-2.07l-.07-.06c0-.05-.02-.1-.05-.14-.1-.09-.22-.17-.34-.24a1.9 1.9 0 0 1-.19-.1l-.04-.04a.24.24 0 0 1-.06-.34.22.22 0 0 1 .18-.09c.06 0 .11.03.16.06l.05.05.15.16c.1.1.2.2.3.27.05.03.1.03.14.02l.09.06a2.95 2.95 0 0 1 1.9-.92l.01-.1a.25.25 0 0 0 .08-.12c0-.14 0-.28-.03-.41a1.95 1.95 0 0 1-.03-.22v-.06a.23.23 0 0 1 .06-.18.23.23 0 0 1 .34 0 .23.23 0 0 1 .06.17v.07l-.03.22c-.03.13-.04.27-.03.41 0 .05.04.09.07.12l.01.1a3 3 0 0 1 1.9.92l.09-.06c.04 0 .1 0 .14-.02.1-.08.21-.18.3-.28l.16-.16.05-.04a.23.23 0 1 1 .28.36l-.05.04a1.9 1.9 0 0 1-.19.11c-.12.07-.23.15-.34.24a.18.18 0 0 0-.04.13l-.08.07c.4.6.57 1.34.47 2.06l.1.03c.02.04.05.07.1.1.13.03.27.06.4.07l.22.01.07.02a.23.23 0 0 1 .16.36.23.23 0 0 1-.26.08l-.07-.01a1.88 1.88 0 0 1-.2-.08c-.13-.05-.27-.09-.4-.12-.05 0-.1.02-.13.05l-.1-.02c-.22.7-.69 1.3-1.32 1.66Z"/><path fill="#fff" d="m32.26 28.17-1.03-4.48a.8.8 0 0 0-.43-.53l-4.18-2a.8.8 0 0 0-.69 0l-4.17 2a.8.8 0 0 0-.43.54l-1.03 4.47a.8.8 0 0 0 .15.67l2.89 3.6a.81.81 0 0 0 .62.3h4.63a.81.81 0 0 0 .63-.3l2.88-3.6a.8.8 0 0 0 .16-.67Zm-.5.21a.76.76 0 0 1-.14.3l-2.57 3.2-.08.1a.72.72 0 0 1-.39.24.73.73 0 0 1-.18.03h-4.24a.72.72 0 0 1-.4-.12.73.73 0 0 1-.14-.12l-.04-.04-2.64-3.29a.72.72 0 0 1-.14-.3.72.72 0 0 1 0-.31l.94-4.1a.74.74 0 0 1 .4-.5l3.82-1.83a.74.74 0 0 1 .63 0l3.83 1.83a.74.74 0 0 1 .4.5l.94 4.1c.02.1.02.2 0 .31Z"/><path fill="#fff" d="m30.11 27.74-.07-.02a1.92 1.92 0 0 0-.22-.01c-.13-.01-.27-.04-.4-.07a.26.26 0 0 1-.1-.1l-.1-.03c.1-.72-.07-1.45-.47-2.06l.08-.07c0-.05 0-.1.04-.13.1-.1.22-.17.34-.24l.2-.11.04-.04a.23.23 0 1 0-.28-.36l-.05.04-.16.16c-.09.1-.2.2-.3.28a.25.25 0 0 1-.14.02l-.09.06a3 3 0 0 0-1.9-.92v-.1a.18.18 0 0 1-.08-.12c0-.14 0-.28.03-.41l.03-.22v-.07a.23.23 0 0 0-.23-.25.23.23 0 0 0-.23.25V23.3c0 .07.01.15.03.22.02.13.03.27.02.41a.25.25 0 0 1-.07.12v.1a2.98 2.98 0 0 0-1.91.92 4.28 4.28 0 0 1-.09-.06c-.04.01-.1 0-.13-.02a2.14 2.14 0 0 1-.31-.27l-.15-.16-.05-.05a.27.27 0 0 0-.16-.06.22.22 0 0 0-.19.09.24.24 0 0 0 .06.33l.05.04.2.11c.11.07.23.15.33.24.03.04.05.09.05.14l.07.06c-.4.6-.57 1.34-.47 2.07l-.1.02a.32.32 0 0 1-.09.1c-.13.04-.27.06-.41.07-.07 0-.15 0-.22.02l-.06.01a.23.23 0 0 0-.2.19.23.23 0 0 0 .3.26l.06-.02.2-.07c.14-.06.27-.1.4-.12.05 0 .1.02.14.05l.1-.02c.22.69.7 1.28 1.32 1.65l-.04.1c.02.04.02.08.02.13-.06.13-.13.25-.21.37a1.9 1.9 0 0 0-.12.18l-.03.06a.23.23 0 0 0 .1.33.23.23 0 0 0 .31-.13l.03-.06.07-.21c.04-.14.1-.28.17-.41a.19.19 0 0 1 .1-.05l.05-.1c.68.27 1.44.27 2.12.01l.05.09c.04 0 .08.03.11.07.07.12.12.25.16.39l.07.2.02.06a.23.23 0 0 0 .32.13.23.23 0 0 0 .1-.32l-.03-.06a1.9 1.9 0 0 0-.12-.19 2.14 2.14 0 0 1-.2-.36c-.02-.04-.01-.1.01-.13a.78.78 0 0 1-.04-.1c.63-.37 1.1-.96 1.32-1.66l.1.02a.18.18 0 0 1 .13-.05c.13.03.27.07.4.12l.2.08.06.01a.23.23 0 1 0 .11-.44Zm-2.17-2.33-.98.7v-.01a.2.2 0 0 1-.33-.15l-.07-1.2c.52.06 1 .3 1.38.66Zm-1.85 1.31h.37l.23.29-.08.35-.33.16-.33-.16-.09-.35.23-.29Zm-.34-1.93.24-.04-.07 1.2a.2.2 0 0 1-.32.15l-.99-.7c.31-.3.7-.52 1.14-.61Zm-1.5 1.07.9.8a.2.2 0 0 1-.08.35l-1.15.34c-.06-.52.06-1.05.33-1.5Zm1.2 2.13L25 29.1c-.44-.27-.77-.7-.95-1.18l1.18-.2a.2.2 0 0 1 .14.02.2.2 0 0 1 .08.26Zm1.36 1.42c-.43.1-.88.08-1.3-.06l.59-1.05a.2.2 0 0 1 .35 0l.6 1.05-.24.06Zm.75-.3-.46-1.13a.2.2 0 0 1 .22-.28l1.2.2c-.18.5-.52.92-.96 1.2Zm1.08-1.77-1.16-.33a.2.2 0 0 1-.08-.35l.9-.8c.27.44.39.96.34 1.48Z"/></svg>