<svg xmlns="http://www.w3.org/2000/svg" fill="none" viewBox="0 0 32 32"><path fill="currentColor" fill-rule="evenodd" d="M13.8236 5.5665a.5.5 0 0 1 .4983 0l12.9273 7.4304a.5001.5001 0 0 1 .2508.4335v8.8964a.5.5 0 0 1-.2503.4332l-8.109 4.6732a.5.5 0 0 1-.4992.0001l-12.891-7.4242a.4999.4999 0 0 1-.2505-.4332v-8.937a.5.5 0 0 1 .2509-.4335l8.0727-4.639ZM6.5 11.502v7.7847l11.897 6.8517.0541-7.7825L6.5 11.5021Zm12.9511 6.8556-.054 7.7736L26.5 22.0378v-7.7422l-7.0489 4.0621Zm6.5465-4.9268L14.0727 6.5767l-7.0684 4.0618 11.9482 6.8523 7.0451-4.0599ZM23.4246 5.6368h.7777c-.0249-.2107-.0817-.3978-.1705-.5611a1.332 1.332 0 0 0-.3409-.4137c-.1396-.1137-.3-.2-.4811-.2593-.18-.0591-.3753-.0887-.586-.0887-.3196 0-.6072.0734-.8629.2201-.2557.1456-.4581.3575-.6072.6357-.1492.2782-.2238.6155-.2238 1.012 0 .3954.0734.7322.2202 1.0104.148.2781.3492.4906.6037.6374.2557.1468.5457.2202.87.2202.2332 0 .4421-.035.6268-.1048.1858-.071.3456-.1669.4794-.2876.1349-.122.2421-.2599.3214-.4138.0805-.155.1308-.316.1509-.4829l-.7777-.0035c-.0178.097-.0497.1834-.0959.2592a.6865.6865 0 0 1-.1704.1935.752.752 0 0 1-.2362.119c-.0876.0272-.1829.0408-.2858.0408-.1835 0-.3451-.045-.4848-.135-.1397-.0899-.2486-.223-.3267-.3994-.0769-.1764-.1154-.3942-.1154-.6534 0-.2522.0385-.4664.1154-.6428.077-.1776.1853-.3125.3249-.4048.1397-.0935.3037-.1403.4919-.1403.1041 0 .2006.0148.2894.0444a.741.741 0 0 1 .2379.1278.6814.6814 0 0 1 .1687.2024c.0438.0782.0728.1676.087.2682ZM24.7536 8V4.3637h1.4347c.2758 0 .5107.0527.7049.158.1941.1042.3421.2492.4439.435.103.1847.1544.3978.1544.6392 0 .2415-.052.4546-.1562.6392-.1042.1847-.2551.3285-.4528.4315-.1965.103-.4344.1545-.7138.1545h-.6463V8h-.7688Zm1.2909-1.795h-.5221V4.9921h.5185c.1492 0 .2723.0255.3693.0764.0971.0497.1693.1201.2166.2113.0486.09.0728.1953.0728.316 0 .1196-.0242.2255-.0728.3178-.0473.0912-.1195.1628-.2166.2149-.0959.0509-.2178.0763-.3657.0763Zm4.1925-1.8413h.7688v2.3615c0 .2651-.0633.4971-.1899.696-.1255.1989-.3013.354-.5274.4652-.2261.11-.4895.1651-.7901.1651-.3019 0-.5658-.055-.7919-.165-.2261-.1114-.4019-.2664-.5274-.4653-.1254-.1989-.1882-.4309-.1882-.696V4.3637h.7688v2.2958c0 .1385.0302.2616.0906.3693a.6603.6603 0 0 0 .2592.254c.1113.0615.2409.0922.3889.0922.1491 0 .2787-.0307.3888-.0923a.6481.6481 0 0 0 .2575-.2539c.0615-.1077.0923-.2308.0923-.3693V4.3637Z" clip-rule="evenodd"/><g clip-path="url(#a)"><path fill="#9D5125" d="m21.5889 30.9478 2.3212-4.2765-2.3212-4.6195-.5889.2915v8.3129l.5889.2916Zm5.6372-6.7521-3.8477-.646.869-1.2235 3.8877 1.7266-.909.1429Zm.0457 4.591-4.5623.7489.9547 1.315 4.4709-1.9324-.8633-.1315Z"/><path fill="#F58534" d="M22.961 22.3662v8.2614l-1.3721.3202v-8.896l1.3721.3144Z"/><path fill="#9D5125" d="m22.961 31.6339-.7204-.3602v-9.5478l.7204-.3602 1.355 5.7116-1.355 4.5566Zm5.1741-7.5811-.9147.143v4.5795l.9147.1429.8347-2.3269-.8347-2.5385Z"/><path fill="#F58534" d="M24.3617 21.7659v9.4735l-1.4007.3945V21.3657l1.4007.4002Z"/><path fill="#F58534" d="M29.0899 29.9016V28.741l-6.1289 1.1377v1.7552l6.1289-1.7323Zm.0114-6.7921v1.1263l-6.1403-1.1663v-1.7038l6.1403 1.7438Z"/><path fill="#F58534" d="M28.1351 30.1707v-7.3353l.9834.2688v6.7978l-.9834.2687Z"/><path fill="#6B3B19" d="M31.0967 23.5156 32 25.6024l-2.6357.1258-.9319-.0629 2.6643-2.1497Z"/><path fill="#9D5125" d="M28.4324 23.9501v1.7152l2.6643-.1544v-1.9953l-2.6643.4345Z"/><path fill="#6B3B19" d="m27.1975 25.5796-1.2749-.0857 2.7042-2.7214 1.3722 2.6299-2.8015.1772Z"/><path fill="#9D5125" d="M25.9226 23.4014v2.0925l2.7042-.2287v-2.4927l-2.7042.6289Zm2.5098 5.6886v-1.7152L32 27.432l-.9033 2.0868-2.6643-.4288Z"/><path fill="#9D5125" d="M25.9226 29.633v-2.0925l4.0764.0915-1.3722 2.6299-2.7042-.6289Z"/><path fill="#FCBF92" d="m27.1975 27.4549-1.2749.0858 2.7042.2287 1.3722-.1372-2.8015-.1773Zm3.8992.0687L32 27.4321l-2.6357-.1201-.9319.0629 2.6643.1487Z"/><path fill="#F58534" d="M31.0967 23.5157v1.9953l.9033.0915v-1.8181l-.9033-.2687Zm-1.0977-.3316v2.2183l-1.3722-.1372v-2.4927l1.3722.4116Zm1.0977 6.3347v-1.9953L32 27.432v1.8181l-.9033.2687Zm-1.0977.3316v-2.2183l-1.3722.1372v2.4928l1.3722-.4117Z"/></g><defs><clipPath id="a"><path fill="#fff" d="M21 21h11v11H21z"/></clipPath></defs></svg>