<svg xmlns="http://www.w3.org/2000/svg" fill="none" viewBox="0 0 32 32"><path fill="currentColor" fill-rule="evenodd" d="M4 16.25c0-3.7279 2.99395-6.75 6.6872-6.75h10.6256C25.006 9.5 28 12.5221 28 16.25c0 1.1457-.2828 2.2247-.7817 3.1699l-.9424-.3567c.4635-.8315.7279-1.7912.7279-2.8132 0-3.1726-2.5479-5.7445-5.691-5.7445H10.6872c-3.14309 0-5.69104 2.5719-5.69104 5.7445 0 3.1726 2.54795 5.7445 5.69104 5.7445h10.2475V23H10.6872C6.99395 23 4 19.9779 4 16.25Zm3.48655.0279c0-2.0773 1.66835-3.7613 3.72635-3.7613s3.7264 1.684 3.7264 3.7613c0 2.0774-1.6684 3.7614-3.7264 3.7614s-3.72635-1.684-3.72635-3.7614Zm3.72635-4.7669c-2.60816 0-4.7225 2.1342-4.7225 4.7669s2.11434 4.7669 4.7225 4.7669c2.6082 0 4.7225-2.1342 4.7225-4.7669s-2.1143-4.7669-4.7225-4.7669Z" clip-rule="evenodd"/><path fill="url(#a)" fill-rule="evenodd" d="M22.2508 20.4615c0-.2549.2067-.4615.4616-.4615h3.4451c.1769 0 .3383.1011.4154.2604l4.0491 8.4508h.8626c.2549 0 .4616.2066.4616.4615v2.3451c0 .1224-.0487.2398-.1352.3263a.46156.46156 0 0 1-.3264.1352h-2.8782c-.1763 0-.3372-.1004-.4146-.2588l-4.031-8.3343h-1.4484c-.2549 0-.4616-.2066-.4616-.4615v-2.4632Zm.9231.4616v1.5401h1.275c.1763 0 .3372.1004.4147.2588l4.0309 8.3342h2.1286v-1.422h-.6904c-.1769 0-.3383-.1011-.4154-.2603l-4.0491-8.4508h-2.6943Zm.566 3.8193c.1783-.0026.3421.0976.4209.2576l1.533 3.1124c.0596.121.0633.262.0101.3859l-1.2708 3.2222c-.0728.1696-.2396.2795-.4241.2795h-3.0475c-.157 0-.3032-.0798-.3881-.2119-.085-.132-.0969-.2982-.0318-.4411l2.7852-6.3345c.074-.1623.2348-.2674.4131-.2701Zm.023 1.5388-2.0837 4.7957h2.0256l1.067-2.7473-1.0089-2.0484Z" clip-rule="evenodd"/><defs><linearGradient id="a" x1="21.9413" x2="31.6563" y1="20.5446" y2="32.2948" gradientUnits="userSpaceOnUse"><stop stop-color="#CA541A"/><stop offset="1" stop-color="#FC9502"/></linearGradient></defs></svg>