<svg xmlns="http://www.w3.org/2000/svg" fill="none" viewBox="0 0 32 32"><path fill="currentColor" fill-rule="evenodd" d="M11 6v2H9c-.5523 0-1 .4477-1 1v2.5H6v1h2v2H6v1h2v2H6v1h2v2H6v1h2V23c0 .5523.4477 1 1 1h2v2h1v-2h2v2h1v-2h2v2h1v-2h2v2h1v-2h2c.5523 0 1-.4477 1-1v-1.5h2v-1h-2v-2h2v-1h-2v-2h2v-1h-2v-2h2v-1h-2V9c0-.5523-.4477-1-1-1h-2V6h-1v2h-2V6h-1v2h-2V6h-1v2h-2V6h-1ZM9 9h14v14H9V9Zm1.9832 5.3636h-.9481V18h.7457v-2.3757h.0302l.9411 2.3579h.5078l.941-2.349h.0302V18h.7458v-3.6364h-.9482l-1.0014 2.4432h-.0426l-1.0015-2.4432Zm3.8021 0V18h2.4574v-.6339h-1.6886v-.8682h1.5554v-.6339h-1.5554v-.8665h1.6815v-.6339h-2.4503Zm4.1847 0h-.9482V18h.7458v-2.3757h.0301l.9411 2.3579h.5078l.9411-2.349h.0301V18h.7458v-3.6364h-.9482l-1.0014 2.4432h-.0426L18.97 14.3636Z" clip-rule="evenodd"/><path fill="#0078D6" d="m32 21-6.1226.8808v4.3743h6.1224L32 21Zm-11 1.582v3.6731h4.4459v-4.3125L21 22.582Zm0 7.818 4.4459.6467v-4.3665H21V30.4ZM32 32v-5.3198h-6.1226v4.4294L32 32Z"/></svg>