<svg xmlns="http://www.w3.org/2000/svg" fill="none" viewBox="0 0 32 32"><path fill="currentColor" fill-rule="evenodd" d="M4.124 10.5163C6.5646 6.5971 10.8393 4.0049 15.7 4.0049c4.8606 0 9.1354 2.5922 11.5761 6.5114a.4985.4985 0 0 0 .6891.1593c.2341-.1472.3051-.4572.1586-.6924C25.5113 5.7881 20.9256 3 15.7001 3S5.8888 5.7882 3.2762 9.9832c-.1465.2352-.0755.5452.1586.6924a.4985.4985 0 0 0 .6891-.1593Zm2.9953 2.6552c1.8053-2.7913 4.9722-4.6444 8.5808-4.6444s6.7755 1.8531 8.5807 4.6444a.4986.4986 0 0 0 .6918.1475c.2315-.1512.2972-.4625.1467-.6951-1.9848-3.069-5.4632-5.1017-9.4192-5.1017-3.956 0-7.4345 2.0328-9.4193 5.1017a.504.504 0 0 0 .1468.6951.4985.4985 0 0 0 .6917-.1475Zm8.5808.3803c-2.1361 0-4.0109 1.1043-5.0799 2.7688a.4986.4986 0 0 1-.6913.1497.504.504 0 0 1-.149-.6947c1.2472-1.9418 3.4335-3.2287 5.9202-3.2287 2.4867 0 4.6729 1.2869 5.9201 3.2287.1497.2332.083.5442-.149.6947a.4985.4985 0 0 1-.6912-.1497c-1.069-1.6645-2.9438-2.7688-5.0799-2.7688Zm-2.4282 4.5347a.9976.9976 0 0 1 .7053-.2987l2.9687-.0183a.9977.9977 0 0 1 .7089.29l2.112 2.0966c.1887.1873.2956.4423.2972.7088l.0182 2.9833a1.008 1.008 0 0 1-.2885.7124l-2.0863 2.1224a.9976.9976 0 0 1-.7053.2987L14.0334 27a.9977.9977 0 0 1-.7089-.29l-2.112-2.0966a1.0076 1.0076 0 0 1-.2973-.7088l-.0181-2.9833a1.0073 1.0073 0 0 1 .2885-.7124l2.0863-2.1224Zm.7114.7062-2.0863 2.1225.0182 2.9833 2.1121 2.0966 2.9686-.0183 2.0863-2.1225-.0182-2.9833-2.112-2.0966-2.9687.0183Zm-.7833 3.301c0-.2775.2239-.5025.5-.5025h3.5c.2762 0 .5.225.5.5025 0 .2775-.2238.5024-.5.5024h-3.5c-.2761 0-.5-.2249-.5-.5024Z" clip-rule="evenodd"/><g clip-path="url(#a)"><path fill="#9D5125" d="m21.5889 30.9478 2.3212-4.2765-2.3212-4.6195-.5889.2915v8.3129l.5889.2916Zm5.6372-6.7521-3.8477-.646.869-1.2235 3.8877 1.7266-.909.1429Zm.0457 4.591-4.5623.7489.9547 1.315 4.4709-1.9324-.8633-.1315Z"/><path fill="#F58534" d="M22.961 22.3662v8.2614l-1.3721.3202v-8.896l1.3721.3144Z"/><path fill="#9D5125" d="m22.961 31.6339-.7203-.3602v-9.5478l.7203-.3602 1.355 5.7116-1.355 4.5566Zm5.1741-7.5811-.9147.143v4.5795l.9147.1429.8348-2.3269-.8348-2.5385Z"/><path fill="#F58534" d="M24.3617 21.7659v9.4735l-1.4007.3945V21.3657l1.4007.4002Z"/><path fill="#F58534" d="M29.0899 29.9016V28.741l-6.1289 1.1377v1.7552l6.1289-1.7323Zm.0114-6.7921v1.1263l-6.1403-1.1663v-1.7038l6.1403 1.7438Z"/><path fill="#F58534" d="M28.1351 30.1707v-7.3353l.9834.2688v6.7978l-.9834.2687Z"/><path fill="#6B3B19" d="M31.0967 23.5156 32 25.6024l-2.6357.1258-.9319-.0629 2.6643-2.1497Z"/><path fill="#9D5125" d="M28.4324 23.9501v1.7152l2.6643-.1544v-1.9953l-2.6643.4345Z"/><path fill="#6B3B19" d="m27.1975 25.5796-1.275-.0857 2.7043-2.7214 1.3721 2.6299-2.8014.1772Z"/><path fill="#9D5125" d="M25.9225 23.4014v2.0925l2.7043-.2287v-2.4927l-2.7043.6289Zm2.5099 5.6886v-1.7152L32 27.432l-.9033 2.0868-2.6643-.4288Z"/><path fill="#9D5125" d="M25.9225 29.633v-2.0925l4.0764.0915-1.3721 2.6299-2.7043-.6289Z"/><path fill="#FCBF92" d="m27.1975 27.4549-1.275.0858 2.7043.2287 1.3721-.1372-2.8014-.1773Zm3.8992.0687L32 27.4321l-2.6357-.1201-.9319.0629 2.6643.1487Z"/><path fill="#F58534" d="M31.0967 23.5157v1.9953l.9033.0915v-1.8181l-.9033-.2687Zm-1.0977-.3316v2.2183l-1.3722-.1372v-2.4927l1.3722.4116Zm1.0977 6.3347v-1.9953L32 27.432v1.8181l-.9033.2687Zm-1.0977.3316v-2.2183l-1.3722.1372v2.4928l1.3722-.4117Z"/></g><defs><clipPath id="a"><path fill="#fff" d="M21 21h11v11H21z"/></clipPath></defs></svg>