<svg xmlns="http://www.w3.org/2000/svg" fill="none" viewBox="0 0 16 16">
  <path stroke="currentColor" stroke-linecap="round" stroke-width=".8" d="M.666992 13.3333v-.6666c0-1.2377.491668-2.4247 1.366838-3.29986C2.909 8.49167 4.09598 8 5.33366 8c1.23768 0 2.42466.49167 3.29983 1.36684.87517.87516 1.36681 2.06216 1.36681 3.29986v.6666M8.66699 9.33333c0-.88405.35119-1.7319.97631-2.35702C10.2684 6.35119 11.1163 6 12.0003 6c.4378 0 .8712.08622 1.2756.25373.4045.16752.7719.41305 1.0814.72258.3096.30953.5551.67699.7226 1.08141.1675.40442.2538.83787.2538 1.27561v.33334"/>
  <path stroke="currentColor" stroke-linecap="round" stroke-linejoin="round" stroke-width=".8" d="M5.33366 8c.70724 0 1.38552-.28095 1.88562-.78105.50009-.5001.78105-1.17837.78105-1.88562 0-.70724-.28096-1.38552-.78105-1.88561-.5001-.5001-1.17838-.78105-1.88562-.78105-.70725 0-1.38552.28095-1.88562.78105-.5001.50009-.78105 1.17837-.78105 1.88561 0 .70725.28095 1.38552.78105 1.88562S4.62641 8 5.33366 8Zm6.66664-2c.5305 0 1.0392-.21071 1.4142-.58579.3751-.37507.5858-.88378.5858-1.41421s-.2107-1.03914-.5858-1.41421C13.0395 2.21071 12.5308 2 12.0003 2c-.5304 0-1.0391.21071-1.4142.58579-.3751.37507-.5858.88378-.5858 1.41421s.2107 1.03914.5858 1.41421c.3751.37508.8838.58579 1.4142.58579Z"/>
</svg>
