<svg xmlns="http://www.w3.org/2000/svg" fill="none" viewBox="0 0 32 33"><path fill="currentColor" fill-rule="evenodd" d="M5.5 5.5a1 1 0 0 1 1-1h19a1 1 0 0 1 1 1v15a.5.5 0 0 1-1 0v-15h-19v19H19a.5.5 0 0 1 0 1H6.5a1 1 0 0 1-1-1v-19ZM18.2 21v-3.64h1.5c.28 0 .51.06.71.16.2.1.35.26.46.45.1.18.16.4.16.65s-.05.47-.16.66c-.11.19-.27.33-.47.44-.2.1-.44.15-.72.15h-.6V21h-.88Zm1.32-1.82h-.44v-1.1h.44c.13 0 .24.01.33.06.09.04.16.1.2.2.05.07.07.17.07.28a.6.6 0 0 1-.07.3.48.48 0 0 1-.2.19.71.71 0 0 1-.33.07Zm-4.58-1.82V21h.88v-1.13h.6c.28 0 .52-.05.72-.15.2-.1.36-.25.47-.44.1-.19.16-.4.16-.66 0-.25-.05-.47-.16-.65-.1-.2-.26-.34-.46-.45-.2-.1-.43-.16-.7-.16h-1.5Zm1.31 1.82h-.43v-1.1h.43c.14 0 .25.01.34.06.09.04.15.1.2.2.05.07.07.17.07.28a.6.6 0 0 1-.07.3.48.48 0 0 1-.2.19.71.71 0 0 1-.34.07ZM11.87 21h-.94l1.22-3.64h1.17L14.55 21h-.94l-.24-.76H12.1l-.24.76Zm.88-2.72.4 1.29h-.83l.4-1.29h.03ZM16 6.5c-.96 0-1.61.41-2 .96-.38.52-.5 1.13-.5 1.54v.5h-.2a.8.8 0 0 0-.8.8v3.4c0 .44.36.8.8.8h5.4a.8.8 0 0 0 .8-.8v-3.4a.8.8 0 0 0-.8-.8h-.2V9c0-.41-.12-1.02-.5-1.54a2.35 2.35 0 0 0-2-.96Zm1.5 3h-3V9c0-.25.08-.64.3-.96.21-.29.56-.54 1.2-.54.64 0 .99.25 1.2.54.22.32.3.7.3.96v.5Zm-4 4v-3h5v3h-5Z" clip-rule="evenodd"/><g clip-path="url(#a)"><path fill="#0072C6" d="m26.56 22.21-3.54 3.07L20 30.7h2.72l3.84-8.49Zm.47.72-1.51 4.26 2.9 3.63-5.62.97H32l-4.97-8.86Z"/></g><defs><clipPath id="a"><path fill="#fff" d="M20 22.21h12v9.58H20z"/></clipPath></defs></svg>