<svg xmlns="http://www.w3.org/2000/svg" fill="none" viewBox="0 0 32 32"><path fill="currentColor" fill-rule="evenodd" d="M27.7189 9.4503a2.9807 2.9807 0 0 1-1.7369.5551 2.9808 2.9808 0 0 1-1.7368-.555l1.7369-1.7397 1.7368 1.7396Zm.7065-.7077-1.7367-1.7395 1.7367-1.7396a2.9914 2.9914 0 0 1 .5542 1.7396 2.9914 2.9914 0 0 1-.5542 1.7395Zm-.7065-4.1868-1.7368 1.7396-1.7369-1.7396a2.9808 2.9808 0 0 1 1.7368-.555c.6474 0 1.2469.2055 1.7369.555Zm-4.1802.7076a2.9916 2.9916 0 0 0-.5542 1.7397c0 .6484.2052 1.2488.5542 1.7396l1.7369-1.7396-1.7369-1.7397Zm6.4401 1.7397c0 1.9158-1.3438 3.5173-3.1388 3.9106.5405 1.1613.9032 2.4297 1.0495 3.7742a12.0526 12.0526 0 0 1-.0402 2.9518.4998.4998 0 0 1-.5632.4273.5003.5003 0 0 1-.4267-.5641 11.0468 11.0468 0 0 0 .0368-2.7065c-.1484-1.3635-.5395-2.6415-1.1254-3.7957a4.1043 4.1043 0 0 0 .2112.0054c-2.2073 0-3.9967-1.7922-3.9967-4.003C21.9853 4.7922 23.7747 3 25.982 3c2.2074 0 3.9968 1.7922 3.9968 4.003Zm-7.7853-1.2789c-2.1779-1.3266-4.7935-1.971-7.5233-1.6729-6.583.719-11.3376 6.6469-10.6197 13.2403.7178 6.5934 6.6363 11.3556 13.2193 10.6366a12.004 12.004 0 0 0 2.787-.6455.5007.5007 0 0 0 .3-.6407.4995.4995 0 0 0-.6397-.3005 11.005 11.005 0 0 1-2.5556.5918c-6.0344.6591-11.4597-3.7062-12.1178-9.7502-.658-6.0439 3.7004-11.4778 9.7348-12.137 2.636-.2878 5.1558.383 7.2128 1.7338a3.99 3.99 0 0 1 .2022-1.0557Zm-6.2033 4.7816c-2.1942 0-3.9967 1.8364-3.9967 4.1317 0 .5115.2315 1.1751.6411 1.9247.4027.7367.9458 1.5006 1.4986 2.1975.5513.6951 1.1039 1.3133 1.5194 1.7583.1269.136.2407.2555.3376.3558.0968-.1003.2107-.2198.3376-.3558.4154-.445.9681-1.0632 1.5194-1.7583.5527-.6969 1.0959-1.4608 1.4985-2.1975.4097-.7496.6412-1.4132.6412-1.9247 0-2.2953-1.8025-4.1317-3.9967-4.1317Zm0 11.0799c-.3487.3583-.3488.3582-.3489.3582l-.0002-.0003-.0009-.0008-.0028-.0028-.0105-.0103-.0394-.039a19.9048 19.9048 0 0 1-.1465-.1475 29.2419 29.2419 0 0 1-.5183-.5417c-.4276-.458-.9991-1.0971-1.5719-1.8193-.5713-.7203-1.1522-1.5337-1.5926-2.3395-.4334-.793-.7639-1.6376-.7639-2.4052 0-2.8212 2.2235-5.1325 4.9959-5.1325 2.7723 0 4.9959 2.3113 4.9959 5.1325 0 .7676-.3305 1.6122-.7639 2.4052-.4404.8058-1.0214 1.6192-1.5927 2.3395-.5727.7222-1.1442 1.3613-1.5718 1.8193a28.857 28.857 0 0 1-.5184.5417 18.0922 18.0922 0 0 1-.1465.1475l-.0393.039-.0105.0103-.0029.0028-.0008.0008-.0002.0003c-.0001 0-.0002.0001-.3489-.3582Zm0 0 .3487.3583a.499.499 0 0 1-.6974 0l.3487-.3583Zm-1.4632-8.6852c0-.8093.6551-1.4654 1.4631-1.4654.8081 0 1.4631.6561 1.4631 1.4654s-.655 1.4654-1.4631 1.4654c-.808 0-1.4631-.6561-1.4631-1.4654Zm1.4631-.4647a.4643.4643 0 0 0-.4639.4647c0 .2566.2077.4646.4639.4646a.4642.4642 0 0 0 .4639-.4646.4643.4643 0 0 0-.4639-.4647Z" clip-rule="evenodd"/><path fill="url(#a)" fill-rule="evenodd" d="M22.2508 20.4615A.4616.4616 0 0 1 22.7124 20h3.4451a.4615.4615 0 0 1 .4154.2604l4.0491 8.4508h.8626a.4616.4616 0 0 1 .4616.4615v2.3451a.4616.4616 0 0 1-.4616.4615h-2.8782a.4614.4614 0 0 1-.4146-.2588l-4.031-8.3343h-1.4484a.4616.4616 0 0 1-.4616-.4615v-2.4632Zm.9231.4616v1.5401h1.275a.4617.4617 0 0 1 .4147.2588l4.0309 8.3342h2.1286v-1.422h-.6904a.4616.4616 0 0 1-.4154-.2603l-4.0491-8.4508h-2.6943Zm.566 3.8193a.4616.4616 0 0 1 .4209.2576l1.533 3.1124a.4614.4614 0 0 1 .0101.3859l-1.2708 3.2222A.4615.4615 0 0 1 24.009 32h-3.0475a.4614.4614 0 0 1-.4199-.653l2.7852-6.3345a.4617.4617 0 0 1 .4131-.2701Zm.023 1.5388-2.0837 4.7957h2.0256l1.067-2.7473-1.0089-2.0484Z" clip-rule="evenodd"/><defs><linearGradient id="a" x1="21.9413" x2="31.6563" y1="20.5446" y2="32.2948" gradientUnits="userSpaceOnUse"><stop stop-color="#CA541A"/><stop offset="1" stop-color="#FC9502"/></linearGradient></defs></svg>