<svg xmlns="http://www.w3.org/2000/svg" fill="none" viewBox="0 0 12 15"><path stroke="currentColor" stroke-linecap="round" stroke-linejoin="round" d="M7.167.68v2.753c0 .374 0 .56.072.703a.67.67 0 0 0 .292.291c.142.073.329.073.702.073h2.754M8.5 7.833H3.167M8.5 10.5H3.167M4.5 5.167H3.167m4-4.667H3.7C2.58.5 2.02.5 1.592.718a2 2 0 0 0-.874.874C.5 2.02.5 2.58.5 3.7v6.933c0 1.12 0 1.68.218 2.108a2 2 0 0 0 .874.874c.428.218.988.218 2.108.218h4.267c1.12 0 1.68 0 2.108-.218a2 2 0 0 0 .874-.874c.218-.428.218-.988.218-2.108V4.5z"/></svg>