<svg xmlns="http://www.w3.org/2000/svg" fill="none" viewBox="0 0 32 33"><path fill="currentColor" fill-rule="evenodd" d="M12.52 5c0-.28.22-.5.5-.5h11.03v1H13.52v10h10.02V11h1.01v5a.5.5 0 0 1-.5.5h-2.5V20a.5.5 0 0 1-.51.5h-2.5V23a.5.5 0 0 1-.5.5H7a.5.5 0 0 1-.5-.5V12c0-.28.22-.5.5-.5h2.5V9c0-.28.23-.5.51-.5h2.5V5Zm.5 11.5h7.52v3H10.5v-10h2V16c0 .28.23.5.5.5Zm4.51 4h-7.52a.5.5 0 0 1-.5-.5v-7.5h-2v10h10.02v-2Zm2.11-14.14h.95l1 2.45h.05l1-2.45h.95V10h-.75V7.63h-.03l-.94 2.35h-.5l-.95-2.36h-.03V10h-.75V6.36Zm4.46 0V10h2.47v-.63h-1.7V8.5h1.56v-.64h-1.56V7h1.69v-.64H24.1Zm3.9 0h-.95V10h.75V7.62h.03l.94 2.36h.5l.95-2.35h.03V10H31V6.36h-.95l-1 2.45H29l-1-2.45Z" clip-rule="evenodd"/><g clip-path="url(#a)"><path fill="#0072C6" d="m26.56 22.21-3.54 3.07L20 30.7h2.72l3.84-8.49Zm.47.72-1.51 4.26 2.9 3.63-5.62.97H32l-4.97-8.86Z"/></g><defs><clipPath id="a"><path fill="#fff" d="M20 22.21h12v9.58H20z"/></clipPath></defs></svg>