<svg width="20" height="20" viewBox="0 0 20 20" fill="none" xmlns="http://www.w3.org/2000/svg">
<path d="M11.0623 7.4681C11.4112 7.36861 11.6667 7.04745 11.6667 6.66662C11.6667 6.20638 11.2936 5.83329 10.8333 5.83329C10.3731 5.83329 9.99999 6.20638 9.99999 6.66662C9.99999 6.89674 10.0932 7.10507 10.2441 7.25588M11.0623 7.4681C10.9896 7.48885 10.9127 7.49996 10.8333 7.49996C10.6032 7.49996 10.3949 7.40668 10.2441 7.25588M11.0623 7.4681L12.271 11.6985M10.2441 7.25588L7.25592 10.2441M12.271 11.6985C12.3437 11.6777 12.4206 11.6666 12.5 11.6666C12.9602 11.6666 13.3333 12.0397 13.3333 12.5C13.3333 12.9602 12.9602 13.3333 12.5 13.3333C12.0397 13.3333 11.6667 12.9602 11.6667 12.5C11.6667 12.4206 11.6777 12.3437 11.6985 12.271M12.271 11.6985C11.9948 11.7772 11.7772 11.9948 11.6985 12.271M7.25592 10.2441C7.40672 10.3948 7.49999 10.6031 7.49999 10.8333C7.49999 10.9127 7.48889 10.9896 7.46814 11.0623M7.25592 10.2441C7.10511 10.0932 6.89678 9.99998 6.66666 9.99998C6.20643 9.99998 5.83333 10.3731 5.83333 10.8333C5.83333 11.2936 6.20643 11.6666 6.66666 11.6666C7.04749 11.6666 7.36865 11.4111 7.46814 11.0623M11.6985 12.271L7.46814 11.0623M7.37307 17.2168H12.6272C13.1881 17.2168 13.4685 17.2168 13.7196 17.1352C13.9417 17.0631 14.1462 16.9451 14.3197 16.7887C14.5159 16.6121 14.6562 16.3692 14.9366 15.8835L17.5637 11.3333C17.8441 10.8476 17.9843 10.6046 18.0392 10.3465C18.0877 10.118 18.0877 9.8819 18.0392 9.65348C17.9843 9.39523 17.8441 9.1524 17.5637 8.66665L14.9366 4.11641C14.6562 3.63068 14.5159 3.38781 14.3197 3.21117C14.1462 3.05489 13.9417 2.93683 13.7196 2.86466C13.4685 2.78308 13.1881 2.78308 12.6272 2.78308H7.37307C6.81219 2.78308 6.53174 2.78308 6.28069 2.86466C6.05856 2.93683 5.85408 3.05489 5.6805 3.21117C5.48433 3.38781 5.34411 3.63068 5.06367 4.11641L2.4366 8.66665C2.15616 9.1524 2.01595 9.39523 1.96106 9.65348C1.9125 9.8819 1.9125 10.118 1.96106 10.3465C2.01595 10.6046 2.15616 10.8476 2.4366 11.3333L5.06367 15.8835C5.34411 16.3692 5.48433 16.6121 5.6805 16.7887C5.85408 16.9451 6.05856 17.0631 6.28069 17.1352C6.53174 17.2168 6.81219 17.2168 7.37307 17.2168Z" stroke="currentColor" stroke-width="0.8" stroke-linecap="round" stroke-linejoin="round"/>
</svg>
