<svg xmlns="http://www.w3.org/2000/svg" viewBox="0 0 103 104"><path fill="#fff" d="M16.3294 33.2524 2.80273 61.163v15.6997L38.8739 95.179l45.0889-6.1054L96.5877 61.163V46.3355L64.1237 27.147l-47.7943 6.1054Z"/><path stroke="#000" stroke-linecap="round" stroke-linejoin="round" stroke-width="2" d="M1 74.2476c11.7991 6.3143 29.6903 16.3599 41.4818 22.6773m39.6793-6.1056c4.5089-9.5942 7.2143-15.6997 14.4285-31.3994"/><path stroke="#000" stroke-linecap="round" stroke-linejoin="round" stroke-width="2" d="M31.6602 95.1819c19.8391-2.6166 29.7587-3.4888 55.0085-7.8499M1.90234 58.5459c11.79916 6.3143 29.69026 16.36 41.48186 22.6773m17.1334-54.0767c11.7991 6.3143 29.6903 16.3599 41.4814 22.6773"/><path stroke="#000" stroke-linecap="round" stroke-linejoin="round" stroke-width="2" d="M2.80469 62.9082c4.50889-9.5943 7.21421-15.6997 14.42841-31.3994M83.063 75.1191c4.5089-9.5943 7.2142-15.6997 14.4285-31.3994"/><path stroke="#000" stroke-linecap="round" stroke-linejoin="round" stroke-width="2" d="M12.7236 34.9963c19.8392-2.6166 29.7587-3.4888 55.0085-7.8498M32.5628 79.4788c19.8391-2.6166 29.7587-3.4888 55.0085-7.8498"/><path stroke="#000" stroke-linecap="round" stroke-linejoin="round" stroke-width="2" d="M4.49805 58.5941c.01928 3.9362.10851 14.3316.10851 18.2683m33.25734.9202c.0193 3.9363.1085 14.3316.1085 18.2683m45.8822-24.3737c.0193 3.9362.1085 14.3316.1085 18.2683m11.7232-45.3547c.0192 3.9363.1085 14.3316.1085 18.2684M43.3845 78.1041l-4.509 16.037m5.4102-.8703L48.55 78.1041m1.1464 14.2944 4.2638-15.1647m5.6558-.8723-4.2642 15.1666m9.675-16.0369L60.763 90.6559m10.5761-16.037-4.5089 16.037m9.9196-16.9073-4.509 16.037m9.9198-16.9092-4.509 16.0369m10.8201-12.9446v-11.315m3.6071 4.361.1268-13.1534M17.2325 67.2709l-3.4849 12.9747m7.9934-10.358-3.6066 13.3515m9.0172-10.7349-3.8051 13.9552m8.3141-11.0187-3.8337 13.6354m8.343-11.3387-3.7888 13.7403M12.7237 64.6543 8.87579 78.6096M8.2148 62.9099l-3.60757 12.822"/><path fill="#fff" d="m25.329 50.476 19.432-19.3586 2.8732-15.7334c-1.6065.4164-4.8679.3289-5.061-3.3516-.2414-4.60073 10.3848-6.02222 19.9211-5.16282 7.629.68752 4.9007 6.50192 2.5829 9.32312l-4.3707 17.7869c1.8536 2.9615 5.8535 9.9411 7.0243 14.1676 1.4637 5.2831 11.5733 1.9969 2.669 9.6339-8.9044 7.637-38.7815 1.7236-43.3489-1.0897-3.6539-2.2507-2.6704-5.0814-1.7219-6.2154Z"/><path fill="#fff" d="M41.4658 36.6342c-7.0057.8163-13.9128 11.9329-18.2791 16.0621 13.0552 8.3411 38.263 10.0689 50.4434.5836-3.8183-9.225-12.4091-17.4352-15.2984-16.6864-7.0198 1.8193-9.8601-.7756-16.8659.0407Z"/><path fill-rule="evenodd" d="M47.791 6.80422c.4685.45315.4685 1.18785 0 1.64099-.8155.78875-1.9067 1.91919-2.3822 2.99919-.2296.5215-.2525.8935-.1713 1.1542.0717.2301.2902.5852 1.0455.9504.5926.2866.8328.9836.5365 1.5568-.2963.5732-1.017.8055-1.6096.5189-1.1643-.563-1.9559-1.349-2.2698-2.3566-.3043-.977-.0882-1.9394.2612-2.733.6825-1.55016 2.1089-2.97248 2.893-3.73088.4686-.45315 1.2282-.45315 1.6967 0Zm16.3057 9.76268c-.4685-.4532-.4685-1.1879 0-1.641.8155-.7888 1.9067-1.9192 2.3821-2.9992.2297-.5216.2526-.8935.1714-1.1542-.0717-.2301-.2902-.5852-1.0455-.95044-.5926-.28659-.8328-.98359-.5365-1.55678.2963-.5732 1.0169-.80553 1.6096-.51893 1.1643.56305 1.9559 1.34902 2.2698 2.35665.3043.9769.0882 1.9394-.2612 2.7329-.6825 1.5503-2.1089 2.9726-2.893 3.731-.4686.4531-1.2282.4531-1.6967 0Z" clip-rule="evenodd"/><path fill-rule="evenodd" d="M52.8831 4.83589c2.9212-.35156 6.0037-.42127 6.9087-.37305 1.062.05658 2.6615.18459 4.1558.60378 1.4423.40463 3.1106 1.17027 3.8642 2.72915.316.65368.4315 1.31956.3307 1.96571-.1002.64212-.4016 1.18642-.7908 1.62212-.7558.8459-1.886 1.3404-2.9077 1.5358-1.8652.3568-3.5721.5261-5.1855.5465-.0039.0469-.0107.0941-.0207.1414-.1329.6278-.7668 1.0326-1.4159.9042-.1506-.0298-.3447-.0661-.5747-.109-1.3349-.2491-3.8785-.7237-6.1398-1.4792-1.1759-.3929-2.3691-.8906-3.3053-1.5271-.7716-.2416-1.5603-.4961-2.374-.7586-.1754-.0566-.3519-.1135-.5297-.1708-.6286-.2025-.9684-.85962-.759-1.46762.2094-.608.8887-.93668 1.5174-.73413.089.02868.1776.05725.2658.08569.0073-.18475.0334-.3756.0806-.5724.1655-.6893.6793-1.14609 1.1274-1.43331.4662-.29886 1.0371-.52825 1.6239-.71134 1.1805-.36832 2.6678-.622 4.1286-.7978Zm-3.9638 4.46895c5.1638 1.59686 9.2232 2.45416 15.0592 1.33796.663-.1268 1.2485-.4305 1.5577-.77663.1433-.1603.2118-.3104.2337-.45095.0213-.13648.011-.3414-.1316-.63644-.297-.61436-1.0858-1.12609-2.3591-1.4833-1.2214-.34264-2.5962-.46092-3.6194-.51543-.7278-.03878-3.6626.01969-6.4804.3588-1.4087.16953-2.7213.40182-3.6882.7035-.487.15191-.8267.30353-1.0351.43712-.065.04171-.1052.07368-.1286.09454-.0259.21161.0563.50472.5918.93083Zm-2.7657 4.48166c.6608.0464 1.1576.6022 1.1097 1.2413l-1.1524 15.3594c-.048.6392-.6226 1.1197-1.2834 1.0734-.6609-.0464-1.1577-.6022-1.1097-1.2414l1.1524-15.3593c.0479-.6392.6225-1.1198 1.2834-1.0734Z" clip-rule="evenodd"/><path fill-rule="evenodd" d="M46.3732 29.6372c.4404.4788.396 1.2122-.099 1.6382l-.7974-.867-.7973-.867c.495-.426 1.2533-.3831 1.6937.0958Zm-1.6937-.0958c.0001-.0001 0 0 .7973.867l.7974.867-.0354.0305-.107.0925c-.0945.0818-.2344.2034-.4154.3613-.3619.316-.8881.7778-1.543 1.3594-1.31 1.1635-3.1342 2.8056-5.1894 4.7194-4.1188 3.8352-9.134 8.7319-12.8044 13.0441-.4211.4948-1.1772.5657-1.6887.1584-.5116-.4073-.5849-1.1386-.1637-1.6334 3.7611-4.4189 8.8576-9.3906 12.9927-13.241 2.0716-1.929 3.9099-3.5839 5.2306-4.7569.6605-.5865 1.1918-1.0528 1.5584-1.3728.1833-.16.3254-.2835.422-.3671l.1101-.0953.0385-.0331Z" clip-rule="evenodd"/><path fill-rule="evenodd" d="M28.5833 48.0707c.2641.5877-.0144 1.2712-.6221 1.5267-1.9106.8031-2.2638 1.5355-2.2884 1.902-.0297.4425.3194 1.2265 1.6894 2.2719 2.6379 2.0128 7.8316 4.0348 13.965 5.277 6.1012 1.2356 12.9343 1.6588 18.7702.6198 5.8523-1.042 10.4702-3.5027 12.581-7.834.2825-.5797.9973-.8282 1.5967-.5549.5993.2732.8562.9646.5737 1.5443-2.5816 5.2974-8.1025 8.0204-14.317 9.1269-6.231 1.1095-13.3928.646-19.6963-.6307-6.2712-1.27-11.8918-3.3857-14.9594-5.7264-1.4829-1.1315-2.7094-2.5781-2.5977-4.2441.1168-1.7419 1.622-2.9957 3.7265-3.8802.6076-.2555 1.3143.0139 1.5784.6017Zm35.9639-32.4476c.6209.2237.9367.8919.7054 1.4924-1.6005 4.1549-2.6634 8.3809-3.3264 11.5777-.331 1.5959-.5611 2.9296-.7082 3.8622-.0736.4662-.1263.8318-.1605 1.0795-.0171.1238-.0296.2181-.0377.2808l-.0089.0699-.002.0166-.0005.0036s0-.0001 0 0c-.077.6364-.6729 1.0926-1.3309 1.0182-.6581-.0744-1.1293-.6507-1.0523-1.2872l1.1916.1347c-1.1916-.1347-1.1916-.1345-1.1916-.1347l.001-.0086.0027-.0211.01-.0792c.0089-.0689.0222-.1697.0403-.3002.036-.261.0909-.641.1668-1.1224.1519-.9626.3883-2.3322.7277-3.9685.6777-3.2678 1.7706-7.6223 3.4304-11.9315.2314-.6005.9222-.906 1.5431-.6822Z" clip-rule="evenodd"/><path fill-rule="evenodd" d="M58.2494 31.4429c.5741-.3201 1.3077-.1295 1.6386.4257 4.614 7.7416 9.307 13.8907 13.2085 19.0028.781 1.0232 1.5302 2.0049 2.2408 2.9495.3898.5182.2714 1.244-.2644 1.621-.5357.377-1.2861.2625-1.6759-.2557-.6981-.928-1.4385-1.898-2.2137-2.9135-3.9029-5.1131-8.6862-11.3795-13.3741-19.2451-.3309-.5552-.1338-1.2647.4402-1.5847Z" clip-rule="evenodd"/><path fill-rule="evenodd" d="M59.8929 30.2002c.6567.0849 1.1179.6687 1.03 1.3039-.3744 2.7071-1.1984 4.5832-3.0106 5.5973-.8612.4819-1.8498.7107-2.9115.8165-1.0592.1055-2.268.095-3.606.0475-.9296-.033-1.9793-.1416-2.9988-.247-.6159-.0637-1.2207-.1263-1.7814-.1703-1.5908-.1251-3.0353-.1302-4.2763.1914-4.22 1.0937-7.6084 4.3516-10.8948 7.5428-.4675.454-1.2271.4555-1.6966.0033-.4694-.4523-.4709-1.187-.0034-1.641.0417-.0405.0834-.081.1253-.1216 3.1552-3.0645 6.9575-6.7576 11.8485-8.0251 1.6546-.4289 3.4392-.3928 5.0917-.2629.7068.0555 1.3655.1246 1.9956.1908.934.098 1.8054.1894 2.6782.2204 1.3215.0469 2.3895.0511 3.2721-.0369.88-.0876 1.4979-.2605 1.9558-.5167.8259-.4622 1.4899-1.4082 1.834-3.8962.0879-.6352.6915-1.0812 1.3482-.9962Zm-7.9374-24.301c.5413-.36964 1.2898-.2449 1.672.27861 1.1359 1.55595 2.1855 3.12171 3.2189 4.71489.3521.5428.1826 1.259-.3787 1.5996-.5613.3405-1.3017.1766-1.6538-.3663-1.0217-1.575-2.0456-3.10167-3.1465-4.60963-.3821-.52351-.2532-1.24754.2881-1.61717Zm6.8877-.93369c.6098-.25058 1.3142.02444 1.5733.61427.2302.52428.4784 1.02628.74 1.5556.143.2893.29.58676.4403.90047.4088.85298.8134 1.77147 1.0825 2.74275.1715.619-.2083 1.2553-.8483 1.4211-.64.1659-1.2979-.2014-1.4693-.8205-.2148-.7752-.5497-1.54933-.9418-2.36738-.1244-.25959-.2584-.53111-.3957-.80905-.2769-.56076-.5667-1.14767-.8161-1.71557-.2591-.58983.0253-1.27111.6351-1.52169Z" clip-rule="evenodd"/><path fill-rule="evenodd" d="M38.4567 43.541c.7204-.9877 1.8657-1.5642 3.4502-1.6935 1.1356-.0927 2.3288.0837 3.2052.8204.9295.7812 1.2226 1.9483 1.041 3.2251-.1732 1.2179-.7204 2.5733-1.6806 3.5295-1.0208 1.0165-2.5172 1.5643-4.2669.9569-1.5247-.5293-2.5504-1.3351-2.8578-2.6366-.1363-.5775-.105-1.1612-.0233-1.7011.0814-.5384.2275-1.1167.3732-1.6871.1-.3912.3944-.6866.759-.8136Zm1.4186 4.0335c.1692.1822.4941.3961 1.1409.6206.7434.2581 1.2762.0675 1.7351-.3895.5196-.5175.9028-1.371 1.0248-2.2289.1089-.7658-.103-1.0437-.2379-1.1571-.1879-.158-.6184-.3258-1.4295-.2596-1.1625.0949-1.5756.4817-1.8045.8974-.2956.5371-.4029 1.3415-.4289 2.5171Zm18.9954.5654c.267.3808.3868.823.4241 1.2621.0626.7367-.1716 1.5315-.531 2.1662-.3504.6186-.9597 1.3259-1.8549 1.5846-.7082.2047-1.4911.1642-2.1036-.3691-.3135-.2729-.5009-.6098-.6159-.9282-.1746.0304-.359.0235-.5411-.0269-.637-.1762-1.0057-.8186-.8235-1.4347.1816-.6139.654-1.1768 1.0902-1.5887.0696-.0657.1419-.1309.2165-.1953.1667-.3896.5456-.6696.9921-.7113.1489-.0872.3008-.1678.4541-.24.557-.2623 1.3709-.5267 2.1733-.3044.4436.1229.8389.3851 1.1197.7857Zm-2.4818 1.7307c-.0031.0546-.0059.1096-.0083.1649-.0126.2926-.0103.5555.0152.77.0763-.0736.1693-.1858.2636-.3523.1788-.3156.2485-.632.2461-.8184-.0719.0224-.1638.0568-.2773.1103-.0786.037-.1587.0791-.2393.1255Zm-.5718-10.8789c.3918-.111.8739-.0957 1.3147.1814 1.0142.6373 1.4176 1.9339.8304 2.9212-.328.5516-.9242.9042-1.6363.9151-.6512.0099-1.2812-.2628-1.8508-.6648-.3503-.2472-.5216-.6436-.4887-1.0331-.0067-.0845-.003-.1534.001-.1978.0108-.1208.0384-.2169.0527-.2633.0549-.1777.1488-.3533.2191-.4738.1416-.2432.3817-.5916.6942-.8796.1262-.1519.2867-.2666.4642-.3395.1178-.0651.2512-.1238.3995-.1658Z" clip-rule="evenodd"/></svg>