<svg xmlns="http://www.w3.org/2000/svg" fill="none" viewBox="0 0 32 32"><path fill="currentColor" fill-rule="evenodd" d="M15.292 4.747a.5.5 0 0 1 .523 0l3.02 1.865.525-.851-3.02-1.864a1.5 1.5 0 0 0-1.57-.004l-9.03 5.51a.5.5 0 0 0-.24.427v10.848a1.5 1.5 0 0 0 .72 1.28l8.978 5.47a.5.5 0 0 0 .518 0l9.06-5.469a1.5 1.5 0 0 0 .724-1.284V9.83a.5.5 0 0 0-.237-.425L22.9 7.947l-.525.851 1.668 1.03-8.585 5.236-8.502-5.232 8.335-5.085Zm.666 11.184 8.542-5.21v9.954a.5.5 0 0 1-.242.428l-8.3 5.011V15.931Zm-1-.001v10.18L6.74 21.105a.5.5 0 0 1-.24-.427v-9.953l8.458 5.205Zm-5.462-.993a.5.5 0 0 0-.992.126l.766 6a.5.5 0 0 0 .94.168l2.233-4.29a.5.5 0 0 0-.886-.463l-1.497 2.875-.564-4.416Zm12.566-1.433A.5.5 0 0 1 22.5 14v5.945a.5.5 0 0 1-1 0v-1.918l-.368 1.458a.5.5 0 0 1-.93.105l-.702-1.382V22a.5.5 0 1 1-1 0v-5.881a.5.5 0 0 1 .946-.227l1.043 2.055 1.026-4.07a.5.5 0 0 1 .547-.373Zm5.186-9.14V8h.879V6.539h1.445v-.716h-1.445v-.746h1.603v-.713h-2.482ZM24.323 8V4.364h2.482v.713h-1.603v.746h1.445v.716h-1.445V8h-.879Zm-.744-.8c.154-.279.231-.618.231-1.018s-.077-.74-.23-1.018a1.573 1.573 0 0 0-.626-.633 1.792 1.792 0 0 0-.88-.217c-.327 0-.621.072-.883.217-.262.144-.47.355-.623.633-.153.279-.23.618-.23 1.018 0 .399.077.737.23 1.015.154.277.361.489.623.634.262.146.556.219.883.219.325 0 .619-.073.88-.217.263-.144.471-.356.625-.634Zm-.769-1.618c.068.163.102.363.102.6s-.034.437-.102.6a.787.787 0 0 1-.287.371.783.783 0 0 1-.45.126.788.788 0 0 1-.449-.126.798.798 0 0 1-.29-.371 1.601 1.601 0 0 1-.099-.6c0-.237.034-.437.1-.6a.798.798 0 0 1 .29-.371.788.788 0 0 1 .448-.127c.176 0 .325.043.45.127a.787.787 0 0 1 .287.37Z" clip-rule="evenodd"/><path fill="#000" d="M20.772 31.567 19.852 29a.403.403 0 0 1-.027-.124c0-.111.092-.217.229-.217.117 0 .195.078.229.186l.762 2.21.768-2.216c.034-.105.105-.18.223-.18h.025c.124 0 .198.078.235.18l.762 2.213.774-2.222c.031-.093.093-.177.217-.177.13 0 .223.1.223.211 0 .04-.018.087-.028.124l-.926 2.57c-.046.133-.14.204-.248.204h-.018c-.118 0-.204-.071-.248-.205l-.756-2.178-.762 2.178c-.04.134-.13.205-.244.205h-.013c-.117.01-.21-.062-.257-.195Zm6.703-2.688c0-.124.099-.23.223-.23.13 0 .23.1.23.23v.522c.222-.506.715-.745 1.043-.745.136 0 .223.1.223.23a.226.226 0 0 1-.201.23c-.586.07-1.069.511-1.069 1.386v1.03c0 .125-.093.23-.223.23s-.23-.1-.23-.23l.004-2.652Zm3.168 2.911c-.817 0-1.483-.633-1.483-1.564v-.012c0-.866.604-1.564 1.425-1.564.88 0 1.381.726 1.381 1.523a.21.21 0 0 1-.207.211h-2.15c.062.652.517 1.018 1.047 1.018.369 0 .638-.146.858-.35a.198.198 0 0 1 .127-.053.19.19 0 0 1 .127.338 1.53 1.53 0 0 1-1.124.453Zm.88-1.74c-.046-.547-.356-1.025-.948-1.025-.517 0-.907.435-.966 1.024h1.914Zm-7.254.8v-.013c0-.639.527-.977 1.292-.977.387 0 .66.053.932.13v-.105c0-.546-.334-.826-.901-.826-.304 0-.48.04-.703.14a.214.214 0 0 1-.08.019.199.199 0 0 1-.2-.193c0-.093.041-.152.125-.189.297-.13.523-.174.907-.174.428 0 .756.112.976.335.204.205.31.5.31.885v1.672a.215.215 0 0 1-.217.224.206.206 0 0 1-.214-.211v-.289c-.21.276-.564.521-1.093.521-.564-.006-1.134-.329-1.134-.95Zm2.23-.236v-.292a3.122 3.122 0 0 0-.889-.13c-.566 0-.882.245-.882.627v.012c0 .382.35.605.761.605.555 0 1.01-.341 1.01-.822Zm-13.922-1.76a.426.426 0 0 0-.573-.213.421.421 0 0 0-.211.574l.96 2.09c.152.33.31.5.61.5.32 0 .459-.186.61-.5l.846-1.845c.01-.019.034-.078.12-.078.072 0 .134.06.134.137v1.787c0 .276.152.503.446.503.294 0 .452-.227.452-.503v-1.462c0-.282.202-.465.477-.465.276 0 .459.19.459.465v1.462c0 .276.151.503.446.503.294 0 .452-.227.452-.503v-1.462c0-.282.201-.465.477-.465.276 0 .458.19.458.465v1.462c0 .276.152.503.446.503.295 0 .453-.227.453-.503v-1.663c0-.611-.49-1.04-1.081-1.04-.589 0-.96.41-.96.41-.196-.258-.468-.413-.927-.413-.483 0-.907.41-.907.41a1.083 1.083 0 0 0-.809-.41c-.427.003-.768.193-.975.667l-.614 1.45-.79-1.862Z"/></svg>