<svg xmlns="http://www.w3.org/2000/svg" fill="none" viewBox="0 0 32 32"><path fill="currentColor" fill-rule="evenodd" d="M6.9149 4.0127c-.4728 0-.8813.33-.9796.7916l-1.4102 6.6191-1.4946 7.0148a.4991.4991 0 0 0-.011.104v4.9711c0 .5519.4484.9994 1.0015.9994h24.4978a.5002.5002 0 0 0 .5007-.4997l-.0001-.012.0001-.0121v-5.4467a.4988.4988 0 0 0-.0147-.1205L25.6072 4.7712a1.001 1.001 0 0 0-.9719-.7585H6.9149ZM28.018 19.0419v4.4714H4.021v-4.4714h23.997Zm-11.9985-.9995H4.1387l1.366-6.4112 1.4102-6.619h17.7204l3.2432 13.0302h-11.859Zm8.0116-2.5487v-4.4974a.5002.5002 0 0 0-.5008-.4997.5002.5002 0 0 0-.5007.4997v3.291l-5.3007-5.2899c-.3911-.3903-1.0252-.3903-1.4163 0l-2.7971 2.7913-4.6533-4.6438a.5015.5015 0 0 0-.7082 0 .499.499 0 0 0 0 .7067l4.6534 4.6438c.3911.3903 1.0252.3903 1.4163 0l2.797-2.7913 5.3007 5.2899h-3.2977a.5003.5003 0 0 0-.5008.4997c0 .276.2242.4998.5008.4998h4.5066a.5003.5003 0 0 0 .5008-.4998Z" clip-rule="evenodd"/><path fill="#000" d="m20.7722 31.5666-.9199-2.5661c-.0124-.0341-.0278-.0838-.0278-.1241 0-.1117.0929-.2172.2292-.2172.1177 0 .1951.0776.2292.1862l.7619 2.2092.7682-2.2154c.034-.1055.1053-.18.223-.18h.0247c.1239 0 .1983.0776.2354.18l.762 2.2123.7743-2.2216c.031-.0931.0929-.1769.2168-.1769.1301 0 .223.0993.223.211 0 .0403-.0185.0869-.0278.1241l-.9261 2.5691c-.0465.1335-.1394.2048-.2478.2048h-.0186c-.1177 0-.2044-.0713-.2478-.2048l-.7557-2.1781-.762 2.1781c-.0403.1335-.1301.2048-.2447.2048h-.0124c-.1177.0093-.2106-.062-.2571-.1954Zm6.7027-2.6871c0-.1241.0991-.2296.223-.2296.1301 0 .2292.0993.2292.2296v.5213c.223-.5058.7155-.7447 1.0438-.7447.1363 0 .223.0993.223.2296 0 .1241-.0836.211-.2013.2296-.5854.0714-1.0686.512-1.0686 1.387v1.0301c0 .1241-.0929.2296-.223.2296s-.2292-.0993-.2292-.2296l.0031-2.6529Zm3.1686 2.9105c-.8177 0-1.4836-.633-1.4836-1.5639v-.0124c0-.8657.6039-1.5638 1.4247-1.5638.8797 0 1.3814.7261 1.3814 1.5235 0 .121-.0991.211-.2075.211H29.609c.0619.6516.5172 1.0177 1.0469 1.0177.3686 0 .638-.1458.8579-.3506.0341-.0279.0744-.0528.127-.0528.1084 0 .1952.0869.1952.1924a.1908.1908 0 0 1-.0682.1458c-.2849.27-.6195.4531-1.1243.4531Zm.8796-1.7407c-.0464-.5461-.3562-1.024-.9478-1.024-.5172 0-.9075.4344-.9663 1.024h1.9141Zm-7.254.8005v-.0124c0-.6392.5266-.9774 1.2916-.9774.3872 0 .6598.0527.9323.1303v-.1055c0-.5461-.3345-.8253-.9013-.8253-.3035 0-.4801.0403-.7031.1396a.2136.2136 0 0 1-.0805.0186c-.1053 0-.1982-.0869-.1982-.1924 0-.0931.0402-.152.1238-.1892.2974-.1304.5235-.1738.9076-.1738.4274 0 .7557.1117.9756.3351.2045.2048.3098.4996.3098.8843v1.6724c0 .1273-.093.2234-.2168.2234-.127 0-.2138-.093-.2138-.2109v-.2886c-.2106.2761-.5637.5213-1.0933.5213-.5637-.0062-1.1337-.3289-1.1337-.9495Zm2.2301-.2358v-.2917c-.223-.0651-.5203-.1303-.8889-.1303-.5668 0-.8827.2451-.8827.6268v.0124c0 .3816.35.605.7619.605.5544 0 1.0097-.3413 1.0097-.8222Zm-13.9225-1.7593c-.0991-.2172-.3438-.3165-.573-.2141-.2292.1024-.3129.3568-.2107.574l.9602 2.0913c.1518.3289.3098.4996.6102.4996.319 0 .4584-.1862.6102-.4996 0 0 .8363-1.8276.8455-1.8462.0093-.0186.0341-.0775.1208-.0775a.135.135 0 0 1 .1332.1365v1.7872c0 .2762.1518.5027.446.5027.2943 0 .4523-.2265.4523-.5027v-1.4614c0-.2824.2013-.4654.4769-.4654.2757 0 .4585.1892.4585.4654v1.4614c0 .2762.1517.5027.446.5027.2942 0 .4522-.2265.4522-.5027v-1.4614c0-.2824.2013-.4654.477-.4654.2756 0 .4584.1892.4584.4654v1.4614c0 .2762.1518.5027.446.5027.2943 0 .4522-.2265.4522-.5027v-1.6631c0-.6113-.4894-1.0395-1.081-1.0395-.5885 0-.9601.4096-.9601.4096-.1952-.2575-.4677-.4127-.9261-.4127-.4832 0-.9076.4096-.9076.4096-.1951-.2544-.5296-.4096-.8084-.4096-.4274.0031-.7681.1924-.9756.6672l-.6133 1.449-.7898-1.8617Z"/></svg>