<svg viewBox="0 0 22 22" fill="currentColor" xmlns="http://www.w3.org/2000/svg"><path fill-rule="evenodd" clip-rule="evenodd" d="M2.209 6.786a1.1 1.1 0 0 1 1.1-1.1h3.16a1.1 1.1 0 0 1 1.1 1.1v.083h1.316v-.083a1.1 1.1 0 0 1 1.1-1.1h3.14a1.1 1.1 0 0 1 1.1 1.1v1.19a1.1 1.1 0 0 1-1.1 1.1h-3.14a1.1 1.1 0 0 1-1.1-1.1V7.97H7.57v.084a1.1 1.1 0 0 1-1.1 1.1H5.209v1.167c0 .223.068.428.206.574.13.138.385.287.89.287h2.58v-.26a1.1 1.1 0 0 1 1.1-1.1h3.161a1.1 1.1 0 0 1 1.1 1.1v1.268a1.1 1.1 0 0 1-1.1 1.1H9.985a1.1 1.1 0 0 1-1.096-1.008H6.305c-.737 0-1.306-.227-1.688-.63a1.92 1.92 0 0 1-.508-1.33v-1.17h-.8a1.1 1.1 0 0 1-1.1-1.1V6.786Zm4.26 0H3.31v1.267h3.16V6.786Zm6.657 0H9.985v1.19h3.14v-1.19Zm-3.141 4.136h3.161v1.267H9.985v-1.267Z" /><path fill-rule="evenodd" clip-rule="evenodd" d="M15.849 2.21c.911 0 1.65.74 1.65 1.65v8.302a.55.55 0 0 1-1.1 0V3.861a.55.55 0 0 0-.55-.55H4.955a.55.55 0 0 0-.55.55v.15a.55.55 0 0 1-1.1 0v-.15c0-.911.739-1.65 1.65-1.65h10.894Zm-2.393 14.711a.55.55 0 0 1-.55.55H4.955a1.65 1.65 0 0 1-1.65-1.65v-2.564a.55.55 0 1 1 1.1 0v2.564c0 .304.246.55.55.55h7.951a.55.55 0 0 1 .55.55Z" /><path fill-rule="evenodd" clip-rule="evenodd" d="M16.949 11.613a.55.55 0 0 1 .55.55v1.46a3.85 3.85 0 0 1-3.85 3.85h-3.247a.55.55 0 0 1 0-1.1h3.247a2.75 2.75 0 0 0 2.75-2.75v-1.46a.55.55 0 0 1 .55-.55Z" /><path fill-rule="evenodd" clip-rule="evenodd" d="M18.215 5.613c.911 0 1.65.739 1.65 1.65v7.633a.55.55 0 0 1-1.1 0V7.263a.55.55 0 0 0-.55-.55h-1.266a.55.55 0 1 1 0-1.1h1.266Zm-2.248 13.703a.55.55 0 0 1-.55.55H7.79a1.65 1.65 0 0 1-1.65-1.65v-1.171a.55.55 0 0 1 1.1 0v1.17c0 .305.246.55.55.55h7.627a.55.55 0 0 1 .55.55Z" /><path fill-rule="evenodd" clip-rule="evenodd" d="M19.315 14.346a.55.55 0 0 1 .55.55v1.12a3.85 3.85 0 0 1-3.85 3.85h-3.012a.55.55 0 0 1 0-1.1h3.012a2.75 2.75 0 0 0 2.75-2.75v-1.12a.55.55 0 0 1 .55-.55Z" /></svg>
