<svg xmlns="http://www.w3.org/2000/svg" fill="none" viewBox="0 0 32 32"><path fill="currentColor" fill-rule="evenodd" d="M27.7712 1.5107c-.9578-.074-1.6235.2429-2.0653.7308-.2829.3123-.457.6772-.573.994-.7942-.0436-1.538.1355-2.046.6138-.6301.5933-.7445 1.495-.3803 2.516.0708.1987.2645.3321.4821.3321h6.6381c.2363 0 .4416-.1567.4962-.3787.1714-.6978.2911-1.7923.0082-2.7664-.1435-.4941-.3974-.9801-.8244-1.3588-.4324-.3835-1.0082-.6266-1.7356-.6828ZM25.9864 3.901c.1044-.3599.2378-.7357.4873-1.0111.2215-.2447.568-.4475 1.2161-.3974.5272.0407.8809.208 1.1271.4264.2515.223.4251.5304.5323.8994.1767.6086.1535 1.321.0587 1.8944h-5.8354c-.1384-.601.0136-.9578.2265-1.1583.2783-.262.8256-.4204 1.6169-.2998.2555.039.5008-.113.5705-.3536ZM24.1696 7.518c.1408-.2355.4527-.3162.6966-.1803l1.7569.9795 1.5115-.8426c.2439-.136.5558-.0553.6966.1802.1409.2355.0573.5367-.1866.6727l-1.0015.5583 1.0015.5583c.2439.136.3275.4371.1866.6727-.1408.2355-.4527.3162-.6966.1802l-1.5115-.8426-1.7569.9794c-.2439.136-.5558.0553-.6966-.1802-.1409-.2355-.0573-.5366.1866-.6726l1.247-.6952-1.247-.6952c-.2439-.136-.3275-.4371-.1866-.6726ZM13.8236 5.5665a.5.5 0 0 1 .4983 0l12.9273 7.4304a.5001.5001 0 0 1 .2508.4335v8.8964a.5.5 0 0 1-.2503.4332l-8.109 4.6732a.5.5 0 0 1-.4992.0001l-12.891-7.4242a.4999.4999 0 0 1-.2505-.4332v-8.937a.5.5 0 0 1 .2509-.4335l8.0727-4.639ZM6.5 11.502v7.7847l11.897 6.8517.0541-7.7825L6.5 11.5021Zm12.9511 6.8556-.054 7.7736L26.5 22.0378v-7.7422l-7.0489 4.0621Zm6.5465-4.9268L14.0727 6.5767l-7.0684 4.0618 11.9482 6.8523 7.0451-4.0599Z" clip-rule="evenodd"/><g clip-path="url(#a)"><path fill="#9D5125" d="m21.5889 30.9478 2.3212-4.2765-2.3212-4.6195-.5889.2915v8.3129l.5889.2916Zm5.6372-6.7521-3.8477-.646.869-1.2235 3.8877 1.7266-.909.1429Zm.0457 4.591-4.5623.7489.9547 1.315 4.4709-1.9324-.8633-.1315Z"/><path fill="#F58534" d="M22.961 22.3662v8.2614l-1.3721.3202v-8.896l1.3721.3144Z"/><path fill="#9D5125" d="m22.961 31.6339-.7204-.3602v-9.5478l.7204-.3602 1.355 5.7116-1.355 4.5566Zm5.1741-7.5811-.9147.143v4.5795l.9147.1429.8347-2.3269-.8347-2.5385Z"/><path fill="#F58534" d="M24.3617 21.7659v9.4735l-1.4007.3945V21.3657l1.4007.4002Z"/><path fill="#F58534" d="M29.0899 29.9016V28.741l-6.1289 1.1377v1.7552l6.1289-1.7323Zm.0114-6.7921v1.1263l-6.1403-1.1663v-1.7038l6.1403 1.7438Z"/><path fill="#F58534" d="M28.1351 30.1707v-7.3353l.9834.2688v6.7978l-.9834.2687Z"/><path fill="#6B3B19" d="M31.0967 23.5156 32 25.6024l-2.6357.1258-.9319-.0629 2.6643-2.1497Z"/><path fill="#9D5125" d="M28.4324 23.9501v1.7152l2.6643-.1544v-1.9953l-2.6643.4345Z"/><path fill="#6B3B19" d="m27.1975 25.5796-1.2749-.0857 2.7042-2.7214 1.3722 2.6299-2.8015.1772Z"/><path fill="#9D5125" d="M25.9226 23.4014v2.0925l2.7042-.2287v-2.4927l-2.7042.6289Zm2.5098 5.6886v-1.7152L32 27.432l-.9033 2.0868-2.6643-.4288Z"/><path fill="#9D5125" d="M25.9226 29.633v-2.0925l4.0764.0915-1.3722 2.6299-2.7042-.6289Z"/><path fill="#FCBF92" d="m27.1975 27.4549-1.2749.0858 2.7042.2287 1.3722-.1372-2.8015-.1773Zm3.8992.0687L32 27.4321l-2.6357-.1201-.9319.0629 2.6643.1487Z"/><path fill="#F58534" d="M31.0967 23.5157v1.9953l.9033.0915v-1.8181l-.9033-.2687Zm-1.0977-.3316v2.2183l-1.3722-.1372v-2.4927l1.3722.4116Zm1.0977 6.3347v-1.9953L32 27.432v1.8181l-.9033.2687Zm-1.0977.3316v-2.2183l-1.3722.1372v2.4928l1.3722-.4117Z"/></g><defs><clipPath id="a"><path fill="#fff" d="M21 21h11v11H21z"/></clipPath></defs></svg>