<svg viewBox="0 0 24 24" fill="none" xmlns="http://www.w3.org/2000/svg"><path fill-rule="evenodd" clip-rule="evenodd" d="M11.25 9.75v-.563A.187.187 0 0 0 11.062 9H9.938a.188.188 0 0 0-.188.188v1.262a.194.194 0 0 1-.14.184 2.98 2.98 0 0 0-.507.21.196.196 0 0 1-.23-.031l-.494-.495-.398-.398a.188.188 0 0 0-.265 0l-.796.796a.187.187 0 0 0 0 .265l.398.398.495.494c.06.06.071.154.031.23-.084.161-.155.33-.21.507a.196.196 0 0 1-.185.14H6.187a.187.187 0 0 0-.187.188v1.124c0 .104.084.188.188.188H7.45c.085 0 .159.058.184.14.055.176.126.346.21.507.04.076.03.17-.031.23l-.495.494-.398.398a.187.187 0 0 0 0 .265l.796.796a.187.187 0 0 0 .265 0l.398-.398.494-.494a.196.196 0 0 1 .23-.032c.161.084.33.155.507.21.082.025.14.1.14.185v1.262c0 .103.084.187.188.187h1.124a.187.187 0 0 0 .188-.188V16.55c0-.085.058-.159.14-.184a2.98 2.98 0 0 0 .507-.21.196.196 0 0 1 .23.032l.494.494.398.398a.187.187 0 0 0 .265 0l.796-.796a.187.187 0 0 0 0-.265l-.398-.398-.495-.494a.196.196 0 0 1-.031-.23c.084-.16.155-.33.21-.507.025-.082.1-.14.185-.14h1.262a.187.187 0 0 0 .187-.188v-1.124a.187.187 0 0 0-.188-.188H13.55a.196.196 0 0 1-.184-.14 2.98 2.98 0 0 0-.21-.507.196.196 0 0 1 .031-.23l.495-.494.398-.398a.187.187 0 0 0 0-.265l-.796-.796a.187.187 0 0 0-.265 0l-.398.398-.494.495a.196.196 0 0 1-.23.031 2.979 2.979 0 0 0-.507-.21.196.196 0 0 1-.14-.185V9.75ZM10.5 15a1.5 1.5 0 1 0 0-3 1.5 1.5 0 0 0 0 3Z" fill="currentColor"/><path fill-rule="evenodd" clip-rule="evenodd" d="M10.5 10.815c-.058.148-.15.278-.264.382a2.354 2.354 0 0 1 .528 0 1.011 1.011 0 0 1-.264-.382Zm1.442.87c.138.11.264.235.373.373-.007-.154.02-.31.084-.457a1.012 1.012 0 0 1-.457.084Zm.861 1.55a2.354 2.354 0 0 1 0 .53c.104-.115.234-.207.382-.265a1.011 1.011 0 0 1-.382-.264Zm-.488 1.707a2.33 2.33 0 0 1-.373.373c.154-.007.31.02.457.084a1.012 1.012 0 0 1-.084-.457Zm-1.55.861a2.354 2.354 0 0 1-.53 0c.115.104.207.234.265.383.058-.149.15-.28.264-.383Zm-1.707-.488a2.333 2.333 0 0 1-.373-.373c.007.154-.02.31-.084.457.146-.064.303-.091.457-.083Zm-.861-1.55a2.34 2.34 0 0 1 0-.53 1.012 1.012 0 0 1-.382.265c.148.058.278.15.382.264Zm.488-1.707a2.33 2.33 0 0 1 .373-.373 1.012 1.012 0 0 1-.457-.084c.064.146.091.303.083.457Zm-.64-1.405.201-.202-.202.201Zm-.393.391-.201.202.201-.202Zm5.696 0 .201.202-.201-.202ZM11.25 9.187v1.262c0 .086.058.16.14.185.176.055.346.126.507.21.076.04.17.03.23-.031l.892-.893a.187.187 0 0 1 .265 0l.796.796a.187.187 0 0 1 0 .265l-.893.892a.196.196 0 0 0-.031.23c.084.161.155.33.21.507.025.082.1.14.185.14h1.261c.104 0 .188.084.188.188v1.124a.187.187 0 0 1-.188.188h-1.261a.196.196 0 0 0-.185.14 2.979 2.979 0 0 1-.21.507.196.196 0 0 0 .031.23l.893.892a.187.187 0 0 1 0 .265l-.796.796a.187.187 0 0 1-.265 0l-.892-.892a.196.196 0 0 0-.23-.032 2.98 2.98 0 0 1-.507.21.196.196 0 0 0-.14.185v1.262a.187.187 0 0 1-.188.187H9.938a.187.187 0 0 1-.188-.188v-1.261a.196.196 0 0 0-.14-.185 2.98 2.98 0 0 1-.507-.21.196.196 0 0 0-.23.032l-.892.892a.187.187 0 0 1-.265 0l-.796-.796a.187.187 0 0 1 0-.265l.893-.892a.196.196 0 0 0 .032-.23 2.979 2.979 0 0 1-.21-.507.196.196 0 0 0-.186-.14H6.188A.187.187 0 0 1 6 14.062v-1.124c0-.104.084-.188.188-.188h1.261c.086 0 .16-.058.185-.14.055-.176.126-.346.21-.507a.196.196 0 0 0-.031-.23l-.893-.892a.187.187 0 0 1 0-.265l.796-.796a.188.188 0 0 1 .265 0l.892.893c.06.06.154.071.23.031a2.98 2.98 0 0 1 .507-.21c.082-.025.14-.1.14-.185V9.188c0-.104.084-.188.188-.188h1.124c.104 0 .188.084.188.188ZM12 13.5a1.5 1.5 0 1 1-3 0 1.5 1.5 0 0 1 3 0Zm4.667-9.917v-.437c0-.08-.075-.146-.167-.146h-1c-.092 0-.167.065-.167.146v.981c0 .067-.051.124-.124.144a2.872 2.872 0 0 0-.45.164.193.193 0 0 1-.205-.025l-.44-.385-.353-.31a.184.184 0 0 0-.236 0l-.707.62a.133.133 0 0 0 0 .206l.354.31.44.384c.053.047.063.12.027.178a2.17 2.17 0 0 0-.186.395.172.172 0 0 1-.165.109h-1.121c-.092 0-.167.065-.167.146v.875c0 .08.075.145.167.145h1.121c.076 0 .142.046.165.11.048.136.111.268.187.394a.138.138 0 0 1-.029.178l-.44.385-.353.31a.133.133 0 0 0 0 .206l.707.618c.065.057.17.057.236 0l.354-.31.439-.384a.193.193 0 0 1 .204-.025c.143.066.294.121.451.164.073.02.124.077.124.144v.981c0 .08.075.146.167.146h1c.092 0 .167-.065.167-.146v-.981c0-.067.051-.124.124-.144.157-.043.308-.098.45-.164a.193.193 0 0 1 .205.025l.44.385.353.31c.065.056.17.056.236 0l.707-.62a.133.133 0 0 0 0-.206l-.354-.31-.44-.384a.138.138 0 0 1-.028-.178c.076-.126.139-.258.187-.395a.172.172 0 0 1 .165-.109h1.121c.092 0 .167-.065.167-.146v-.875c0-.08-.075-.145-.167-.145h-1.121a.172.172 0 0 1-.165-.11 2.17 2.17 0 0 0-.187-.394.138.138 0 0 1 .029-.178l.44-.385.353-.31a.133.133 0 0 0 0-.206l-.707-.618a.184.184 0 0 0-.236 0l-.353.31-.44.384a.193.193 0 0 1-.204.025 2.872 2.872 0 0 0-.451-.164c-.073-.02-.124-.077-.124-.144v-.544ZM16 7.667c.736 0 1.333-.523 1.333-1.167S16.736 5.333 16 5.333s-1.333.523-1.333 1.167.597 1.167 1.333 1.167Z" fill="currentColor"/><path fill-rule="evenodd" clip-rule="evenodd" d="M16 4.411a.794.794 0 0 1-.235.298 2.38 2.38 0 0 1 .47 0A.794.794 0 0 1 16 4.41Zm1.282.677c.122.086.234.183.332.29a.7.7 0 0 1 .074-.355c-.13.05-.27.071-.406.065Zm.765 1.206a1.59 1.59 0 0 1 0 .412.912.912 0 0 1 .34-.206.912.912 0 0 1-.34-.206Zm-.433 1.327c-.098.108-.21.206-.332.291a1.01 1.01 0 0 1 .406.065.702.702 0 0 1-.074-.356Zm-1.379.67a2.38 2.38 0 0 1-.47 0 .8.8 0 0 1 .235.298.794.794 0 0 1 .235-.298Zm-1.516-.379a1.964 1.964 0 0 1-.333-.29.702.702 0 0 1-.074.355c.13-.05.27-.07.407-.065Zm-.766-1.206a1.59 1.59 0 0 1 0-.412.912.912 0 0 1-.34.206.912.912 0 0 1 .34.206Zm.433-1.327a1.98 1.98 0 0 1 .333-.291 1.013 1.013 0 0 1-.407-.065.7.7 0 0 1 .074.356Zm-.569-1.094.18-.157-.18.157Zm-.348.305-.18.157.18-.157Zm5.062 0 .18.157-.18-.157Zm-1.864-1.444v.981c0 .067.051.124.124.144.157.043.308.098.45.164.068.03.151.022.205-.025l.793-.694a.184.184 0 0 1 .236 0l.707.618a.133.133 0 0 1 0 .207l-.793.694a.138.138 0 0 0-.029.178c.076.126.139.258.187.395a.172.172 0 0 0 .165.109h1.121c.092 0 .167.065.167.146v.875c0 .08-.075.145-.167.145h-1.121a.172.172 0 0 0-.165.11 2.149 2.149 0 0 1-.187.394.138.138 0 0 0 .029.178l.793.694a.133.133 0 0 1 0 .207l-.707.618a.184.184 0 0 1-.236 0l-.793-.694a.193.193 0 0 0-.204-.025 2.913 2.913 0 0 1-.451.164c-.073.02-.124.077-.124.144v.981c0 .08-.075.146-.167.146h-1c-.092 0-.167-.065-.167-.146v-.981c0-.067-.051-.124-.124-.144a2.876 2.876 0 0 1-.45-.164.193.193 0 0 0-.205.025l-.793.694a.184.184 0 0 1-.236 0l-.707-.618a.133.133 0 0 1 0-.207l.793-.694a.138.138 0 0 0 .029-.178 2.165 2.165 0 0 1-.187-.395.172.172 0 0 0-.165-.109h-1.121c-.092 0-.167-.065-.167-.146v-.875c0-.08.075-.145.167-.145h1.121a.172.172 0 0 0 .165-.11 2.17 2.17 0 0 1 .187-.394.138.138 0 0 0-.029-.178l-.793-.694a.133.133 0 0 1 0-.207l.707-.618a.184.184 0 0 1 .236 0l.793.694a.193.193 0 0 0 .204.025c.143-.066.294-.121.451-.164.073-.02.124-.077.124-.144v-.981c0-.08.075-.146.167-.146h1c.092 0 .167.065.167.146Zm.666 3.354c0 .644-.597 1.167-1.333 1.167s-1.333-.523-1.333-1.167.597-1.167 1.333-1.167 1.333.523 1.333 1.167Z" fill="currentColor"/><path fill-rule="evenodd" clip-rule="evenodd" d="M21.877 11.532a.954.954 0 0 1 0 .936l-4.527 8.045a.955.955 0 0 1-.833.487H7.483a.955.955 0 0 1-.833-.487l-4.527-8.045a.954.954 0 0 1 0-.936L6.65 3.487c.17-.3.488-.487.833-.487h6.149v.955H7.483L2.955 12l4.528 8.045h9.034L21.045 12l-1.068-1.897.833-.468 1.067 1.897Z" fill="currentColor"/></svg>