<svg viewBox="0 0 33 32" fill="none" xmlns="http://www.w3.org/2000/svg"><path fill-rule="evenodd" clip-rule="evenodd" d="M21.829 14.094c.403.39 1.056.39 1.459 0a.974.974 0 0 0 0-1.41l-5.315-5.14 6.435-3.591c1.505-.84 3.386.21 3.386 1.89V16.82l-7.779 1.8c-.554.128-.895.666-.763 1.202.133.536.69.866 1.244.738l7.298-1.688v8.2c0 1.68-1.881 2.73-3.386 1.89l-8.953-4.998 1.253-8.747c.078-.546-.316-1.05-.88-1.125-.565-.076-1.085.305-1.164.851l-1.137 7.944-8.134-4.54a2.147 2.147 0 0 1 0-3.78l10.73-5.99 5.706 5.517Z" fill="currentColor"/></svg>