<svg xmlns="http://www.w3.org/2000/svg" fill="none" viewBox="0 0 32 33"><path fill="currentColor" fill-rule="evenodd" d="M23.953 12.029c0 .89-.726 1.607-1.615 1.607s-1.614-.717-1.614-1.607.725-1.608 1.614-1.608h.715v-1.47h-.715c-.889 0-1.614-.717-1.614-1.607s.725-1.608 1.614-1.608c.89 0 1.615.717 1.615 1.608v.707h1.442v-.707c0-.89.726-1.608 1.615-1.608.89 0 1.615.717 1.615 1.608 0 .89-.726 1.607-1.615 1.607h-.715v1.47h.715c.89 0 1.615.717 1.615 1.608 0 .89-.726 1.607-1.615 1.607-.89 0-1.615-.717-1.615-1.607v-.708h-1.442v.708Zm-.9-.708h-.715a.711.711 0 0 0-.714.708c0 .388.317.707.714.707.398 0 .715-.32.715-.707v-.708Zm.9-.9h1.442v-1.47h-1.442v1.47Zm2.342.9v.708c0 .388.317.707.715.707.397 0 .715-.32.715-.707a.711.711 0 0 0-.715-.708h-.715Zm0-3.27h.715c.397 0 .715-.32.715-.707a.711.711 0 0 0-.715-.708.711.711 0 0 0-.715.708v.707Zm-3.242 0v-.707a.711.711 0 0 0-.715-.708.711.711 0 0 0-.714.708c0 .388.317.707.714.707h.715Zm-9.532-1.614a.5.5 0 0 1 .51 0l4.37 2.587a.5.5 0 0 1-.51.861l-4.115-2.437-7.28 4.316 7.732 4.593 3.89-2.297a.5.5 0 0 1 .508.86l-3.9 2.304-.056 8.264 7.346-4.34v-2.032a.5.5 0 0 1 1 0v2.318a.5.5 0 0 1-.245.43l-8.353 4.933a.5.5 0 0 1-.51 0l-8.648-5.17a.5.5 0 0 1-.244-.429v-9.434a.5.5 0 0 1 .245-.43l8.26-4.897Zm.149 19.052.055-8.268-7.709-4.579v8.272l7.654 4.575Zm7.27-10.783h-.872v2.91h.685v-1.797h.024l.7 1.778h.437l.698-1.768h.025v1.787h.684v-2.91h-.87l-.739 1.802h-.034l-.739-1.801Zm2.72 0v2.91h2.028v-.571h-1.325v-.598h1.222v-.573h-1.222v-.597h1.325v-.57H23.66Zm3.24 0h-.871v2.91h.684v-1.797h.024l.7 1.778h.437l.699-1.768h.024v1.787h.684v-2.91h-.87l-.739 1.802h-.034l-.739-1.801Z" clip-rule="evenodd"/><path fill="#326CE5" d="M27.045 27.66a.196.196 0 0 0-.123.016.202.202 0 0 0-.098.262l-.002.002.463 1.118c.442-.283.778-.705.954-1.2l-1.192-.2-.002.002Zm-1.854.158a.201.201 0 0 0-.234-.153l-.002-.003-1.181.2c.177.492.512.91.951 1.191l.458-1.106-.004-.005a.2.2 0 0 0 .012-.124Zm.99.434a.202.202 0 0 0-.356 0h-.001l-.582 1.051a2.367 2.367 0 0 0 1.525.002l-.582-1.053h-.005Zm1.839-2.44-.894.8v.002a.203.203 0 0 0-.013.292.202.202 0 0 0 .092.055l.001.005 1.158.333a2.402 2.402 0 0 0-.344-1.488Zm-1.661.089a.203.203 0 0 0 .32.154l.004.002.978-.694a2.38 2.38 0 0 0-1.371-.661l.068 1.199Zm-1.036.158a.202.202 0 0 0 .32-.154l.005-.003.068-1.2a2.358 2.358 0 0 0-1.38.66l.985.699.002-.002Zm-.525.908a.201.201 0 0 0 .08-.347v-.005l-.899-.804a2.357 2.357 0 0 0-.334 1.492l1.152-.332v-.004Zm.873.353.332.16.33-.16.082-.357-.229-.286h-.368l-.23.286.083.357Z"/><path fill="#326CE5" d="m31.485 28.023-.945-4.104a.738.738 0 0 0-.396-.492L26.32 21.6a.737.737 0 0 0-.635 0l-3.824 1.828a.739.739 0 0 0-.396.492l-.943 4.104a.722.722 0 0 0 .1.556c.012.02.026.04.04.058l2.648 3.291c.011.015.024.027.037.04a.724.724 0 0 0 .349.207c.06.017.123.026.186.026h4.245a.696.696 0 0 0 .259-.05.742.742 0 0 0 .137-.068.723.723 0 0 0 .175-.155l.081-.1 2.566-3.192a.715.715 0 0 0 .14-.299.72.72 0 0 0 0-.315Zm-3.968 1.597c.011.031.024.062.038.092a.18.18 0 0 0-.017.135c.055.128.123.25.203.363.044.059.085.12.122.183.01.017.022.043.03.062a.23.23 0 0 1-.099.326.23.23 0 0 1-.314-.13l-.029-.06a1.906 1.906 0 0 1-.066-.21 2.13 2.13 0 0 0-.157-.384.18.18 0 0 0-.117-.071l-.05-.088a2.962 2.962 0 0 1-2.112-.006l-.051.094a.186.186 0 0 0-.099.048 1.6 1.6 0 0 0-.177.412c-.018.07-.04.14-.066.21l-.029.058a.233.233 0 0 1-.129.136.23.23 0 0 1-.284-.331l.029-.062c.037-.063.078-.124.123-.183.08-.117.15-.242.207-.372a.227.227 0 0 0-.02-.13l.041-.1a2.979 2.979 0 0 1-1.32-1.648l-.1.017a.254.254 0 0 0-.131-.046c-.137.026-.27.065-.4.117-.066.03-.135.056-.205.079l-.059.013-.004.002a.23.23 0 0 1-.3-.262.23.23 0 0 1 .194-.184l.004-.001h.002l.06-.015c.074-.01.147-.016.22-.017.14-.01.277-.032.41-.068a.316.316 0 0 0 .1-.099l.095-.028a2.962 2.962 0 0 1 .467-2.065l-.073-.066a.253.253 0 0 0-.046-.132c-.106-.09-.22-.17-.34-.239a1.904 1.904 0 0 1-.19-.11l-.048-.039-.003-.002a.243.243 0 0 1-.057-.338.22.22 0 0 1 .183-.08.273.273 0 0 1 .16.06l.05.04c.053.05.104.104.15.16.095.103.198.196.31.279a.18.18 0 0 0 .136.013l.082.059a2.945 2.945 0 0 1 1.91-.918l.005-.097a.249.249 0 0 0 .074-.119 2.138 2.138 0 0 0-.025-.415 1.947 1.947 0 0 1-.031-.217v-.065a.228.228 0 0 1 .058-.178.23.23 0 0 1 .341 0 .23.23 0 0 1 .059.177v.065a1.88 1.88 0 0 1-.031.218c-.023.137-.031.276-.026.415a.181.181 0 0 0 .075.115l.005.102a3 3 0 0 1 1.9.918l.087-.062a.255.255 0 0 0 .14-.015 2.14 2.14 0 0 0 .308-.28c.047-.056.097-.109.15-.16l.052-.04a.23.23 0 1 1 .285.358l-.05.04a1.89 1.89 0 0 1-.19.112 2.144 2.144 0 0 0-.341.239.181.181 0 0 0-.043.13c-.013.011-.058.05-.081.072.406.605.575 1.338.476 2.06l.093.027a.258.258 0 0 0 .099.1c.134.035.271.058.41.067.073.002.147.008.22.018.019.003.047.011.066.016a.23.23 0 0 1 .155.365.23.23 0 0 1-.257.08h-.003l-.004-.002-.06-.012a1.925 1.925 0 0 1-.205-.08 2.138 2.138 0 0 0-.4-.117.181.181 0 0 0-.127.048 3.223 3.223 0 0 0-.098-.017 2.98 2.98 0 0 1-1.32 1.66Z"/><path fill="#fff" d="m31.983 28.129-1.03-4.478a.803.803 0 0 0-.432-.537l-4.173-1.993a.804.804 0 0 0-.693 0l-4.172 1.994a.805.805 0 0 0-.432.537l-1.03 4.478a.796.796 0 0 0 .154.67l2.888 3.59a.813.813 0 0 0 .624.298l4.631-.001a.813.813 0 0 0 .624-.297l2.887-3.592a.799.799 0 0 0 .154-.67Zm-.498.21a.752.752 0 0 1-.142.298l-2.566 3.191-.08.1a.718.718 0 0 1-.312.224.762.762 0 0 1-.26.05H23.88a.756.756 0 0 1-.535-.232l-.037-.04-2.647-3.292a.734.734 0 0 1-.14-.614l.943-4.105a.738.738 0 0 1 .396-.491l3.824-1.828a.737.737 0 0 1 .635 0l3.825 1.827a.737.737 0 0 1 .395.492l.945 4.104a.722.722 0 0 1 0 .315Z"/><path fill="#fff" d="M29.836 27.695c-.02-.005-.048-.013-.067-.016a1.918 1.918 0 0 0-.22-.018 2.136 2.136 0 0 1-.41-.067.258.258 0 0 1-.099-.1l-.092-.026a2.974 2.974 0 0 0-.477-2.06l.081-.074a.18.18 0 0 1 .043-.13c.106-.09.22-.17.34-.238a1.89 1.89 0 0 0 .19-.111c.016-.011.036-.029.051-.041a.23.23 0 0 0-.017-.398.23.23 0 0 0-.268.04l-.05.04c-.054.05-.105.104-.152.16a2.146 2.146 0 0 1-.308.28.254.254 0 0 1-.14.015l-.086.062a3 3 0 0 0-1.9-.918c-.003-.03-.005-.085-.006-.102a.181.181 0 0 1-.075-.115 2.138 2.138 0 0 1 .026-.415 1.9 1.9 0 0 0 .031-.218v-.065a.23.23 0 0 0-.4-.177.23.23 0 0 0-.058.178v.065c.006.073.017.145.031.217.022.137.03.277.026.415a.25.25 0 0 1-.074.119l-.006.097a2.945 2.945 0 0 0-1.91.918 4.28 4.28 0 0 1-.082-.059.18.18 0 0 1-.136-.013 2.137 2.137 0 0 1-.309-.279 1.914 1.914 0 0 0-.15-.16l-.051-.04a.273.273 0 0 0-.16-.06.221.221 0 0 0-.182.08.242.242 0 0 0 .056.337l.004.003c.015.012.033.028.047.038.061.04.125.078.19.111.12.069.235.149.34.24a.254.254 0 0 1 .046.131l.074.066a2.962 2.962 0 0 0-.468 2.065l-.095.028a.317.317 0 0 1-.099.099 2.144 2.144 0 0 1-.41.068 1.9 1.9 0 0 0-.22.017l-.06.014-.003.001-.003.001a.23.23 0 1 0 .102.446h.003l.004-.002.06-.013c.07-.023.138-.049.205-.079a2.15 2.15 0 0 1 .4-.117.254.254 0 0 1 .13.046l.1-.017a2.979 2.979 0 0 0 1.32 1.648l-.041.1c.02.04.026.085.02.13-.057.13-.126.255-.207.372-.044.058-.085.12-.123.183l-.029.061a.23.23 0 1 0 .413.197v-.001l.03-.059c.025-.068.047-.138.065-.21.04-.144.1-.283.177-.41a.187.187 0 0 1 .1-.049l.051-.094c.68.262 1.431.264 2.112.006l.05.088a.18.18 0 0 1 .116.07c.065.124.117.253.157.386.018.07.04.14.067.21l.028.058a.231.231 0 0 0 .315.13.229.229 0 0 0 .099-.325c-.009-.018-.02-.045-.03-.062a1.893 1.893 0 0 0-.123-.183 2.145 2.145 0 0 1-.203-.363.18.18 0 0 1 .018-.135.784.784 0 0 1-.038-.092 2.978 2.978 0 0 0 1.32-1.66c.029.004.08.013.097.017a.181.181 0 0 1 .128-.048c.137.026.27.066.4.118.066.03.135.056.205.079l.06.013.004.001h.003a.228.228 0 0 0 .256-.08.23.23 0 0 0-.154-.365Zm-2.175-2.332-.979.694-.003-.002a.201.201 0 0 1-.32-.154h-.002l-.068-1.2c.517.065 1 .297 1.372.662Zm-1.843 1.314h.368l.229.286-.082.357-.33.16-.332-.16-.083-.357.23-.286Zm-.347-1.933c.081-.019.163-.033.245-.042l-.069 1.2-.005.003a.201.201 0 0 1-.32.154l-.002.001-.984-.698a2.358 2.358 0 0 1 1.135-.618ZM23.98 25.81l.899.804-.001.005a.202.202 0 0 1-.08.347v.004l-1.153.332c-.057-.52.06-1.046.335-1.492Zm1.203 2.136-.457 1.106a2.37 2.37 0 0 1-.952-1.19l1.182-.2.002.002a.202.202 0 0 1 .134.021.201.201 0 0 1 .088.256l.003.005Zm1.352 1.423a2.368 2.368 0 0 1-1.292-.067l.581-1.05h.001a.202.202 0 0 1 .356 0h.004l.583 1.052a2.462 2.462 0 0 1-.233.065Zm.75-.312-.462-1.118.001-.002a.202.202 0 0 1 .222-.278l.002-.003 1.192.202a2.361 2.361 0 0 1-.954 1.199Zm1.08-1.759-1.158-.333-.001-.005a.202.202 0 0 1-.08-.347v-.002l.894-.8c.274.445.395.967.345 1.487Z"/></svg>