<svg xmlns="http://www.w3.org/2000/svg" fill="none" viewBox="0 0 32 32"><path fill="currentColor" fill-rule="evenodd" d="M16 4.5c-4.86 0-9.14 2.58-11.58 6.48a.5.5 0 1 1-.84-.53A14.65 14.65 0 0 1 16 3.5c5.23 0 9.81 2.77 12.42 6.95a.5.5 0 0 1-.84.53A13.65 13.65 0 0 0 16 4.5ZM16 9a10.2 10.2 0 0 0-8.58 4.62.5.5 0 0 1-.84-.54A11.2 11.2 0 0 1 16 8a11.2 11.2 0 0 1 9.42 5.08.5.5 0 1 1-.84.54A10.2 10.2 0 0 0 16 9Zm-5.08 7.76A6.03 6.03 0 0 1 16 14c2.14 0 4.01 1.1 5.08 2.76a.5.5 0 1 0 .84-.55A7.03 7.03 0 0 0 16 13a7.03 7.03 0 0 0-5.92 3.21.5.5 0 0 0 .84.55ZM16 18.9c.28 0 .5.22.5.5v1.08a.5.5 0 0 1-1 0V19.4c0-.28.22-.5.5-.5Zm0 2.52c.28 0 .5.22.5.5v.03a.5.5 0 0 1-1 0v-.03c0-.28.22-.5.5-.5Zm-3-.93a3 3 0 1 1 6 0 3 3 0 0 1-6 0Zm3-4a4 4 0 1 0 0 8 4 4 0 0 0 0-8Z" clip-rule="evenodd"/><path fill="#fff" d="m24.63 23.96-.13-2.25 1.32-.2 1.3-.15.24 2.03-.06.13 2.18 3.04.38.62v1.18l.33.28.3.81.32.45.04.28-.15.29-.9.46-.5.42-.66.46-.57.14-.48-.27-.23-.4-.92-.22-1.57.14-.37.44-.47.15-.55-.1-1-.36-.74-.07-.5-.2-.18-.26.17-.62-.09-.77.2-.33.55-.24.6-.58.42-.5.48-2.12 1.24-1.68Z"/><path fill="#fff" d="m24.72 30.56.28.37 2.32-.06.33-1.1.13-1.13.18-.38.33-.22.69.31.24.09.64-.09.33.29.3.81.32.45.04.28-.15.29-.9.46-.5.42-.66.46-.57.14-.48-.27-.23-.4-.92-.22-1.57.14-.37.44-.47.15-.55-.1-1-.36-.74-.07-.5-.2-.18-.26.17-.62-.09-.77.2-.33.55-.24.6-.58.42-.5 1.01 1.74.8 1.06Z"/><path fill="#FB0" d="m24.72 30.56.28.37 2.32-.06.33-1.1.13-1.13.18-.38.33-.22.69.31.24.09.64-.09.33.29.3.81.32.45.04.28-.15.29-.9.46-.5.42-.66.46-.57.14-.48-.27-.23-.4-.92-.22-1.57.14-.37.44-.47.15-.55-.1-1-.36-.74-.07-.5-.2-.18-.26.17-.62-.09-.77.2-.33.55-.24.6-.58.42-.5 1.01 1.74.8 1.06Z"/><path fill="#FF9C00" d="M24.45 23.52v-.29l.36-.17.61-.45.22-.06.53.15.7.29.3.2-.05.37-.35.29-.38.2-.42.22-.55.02-.3-.24-.34-.24-.33-.3Z"/><path fill="#000" d="M27.83 21.1c.06.16.1.33.13.5.08.45.07.9.06 1.36a1.85 1.85 0 0 0 .26 1.07c.18.32.42.6.65.88.34.43.66.88.88 1.38.09.21.16.42.22.64a2.64 2.64 0 0 1-.04 1.41c.03.04.07.05.1.07.17.1.24.25.3.43.04.17.07.34.14.5.04.12.14.2.2.3.1.12.18.24.21.39.05.2-.04.35-.2.47-.14.11-.3.19-.46.27-.24.12-.49.23-.7.41-.12.1-.2.23-.32.34-.23.2-.48.37-.78.45a.97.97 0 0 1-1.17-.59c-.03-.06-.06-.08-.13-.08-.2.01-.42-.02-.63-.05-.29-.05-.58-.06-.87-.01l-.58.1-.2.02a.1.1 0 0 0-.07.05.85.85 0 0 1-.54.4 1.6 1.6 0 0 1-.72.01 3.01 3.01 0 0 1-.72-.27c-.13-.06-.28-.1-.42-.13l-.53-.07-.32-.05c-.19-.03-.37-.08-.49-.25a.5.5 0 0 1-.09-.35c.02-.16.06-.3.11-.44a.47.47 0 0 0 .02-.2c-.01-.17-.04-.33-.06-.48a.64.64 0 0 1 .34-.65c.08-.05.18-.09.27-.11.2-.06.33-.18.43-.34.06-.09.12-.17.2-.24.03-.04.04-.08.03-.13a2.46 2.46 0 0 1 .07-.88c.04-.17.1-.33.16-.5a9.37 9.37 0 0 1 1.22-1.97c.19-.22.33-.48.44-.77.15-.42.17-.86.14-1.3a6.5 6.5 0 0 1 .05-1.41c.12-.51.39-.91.9-1.12a2.39 2.39 0 0 1 1.1-.15c.53.04.97.26 1.25.73.06.11.12.23.16.36Zm-3.8 4.94-.05.12a5.32 5.32 0 0 0-.37 1.04c-.03.14-.06.3-.07.44 0 .09-.02.17-.03.26-.02 0-.03 0-.03-.02a1.2 1.2 0 0 1-.23-.61c-.02-.19-.01-.37.03-.56.04-.15.08-.3.14-.43.07-.2.18-.37.27-.56l.05-.1c0-.03.04-.06.03-.1-.18.28-.34.57-.47.87-.11.28-.2.58-.2.9 0 .13 0 .27.05.4.1.3.28.52.54.68.26.17.52.34.74.57.16.16.3.34.37.56.07.24-.07.44-.31.45-.02 0-.04 0-.06.02l.02.04c.1.12.2.25.28.38l.04.03c.28.19.6.3.93.33.29.02.58 0 .86-.09.22-.07.43-.16.64-.28.11-.07.23-.12.26-.28.04-.19.1-.38.12-.57l.04-.55c.02-.17.05-.34.1-.5.07-.2.18-.36.37-.45.08-.04.1-.09.12-.16.02-.13.1-.22.22-.27.15-.06.3-.03.44 0 .17.06.34.14.5.23l.19.15c.06.08.1.17.09.27 0 .02 0 .04.02.05.03 0 .04-.01.06-.03v-.06a.41.41 0 0 0-.12-.32 1.7 1.7 0 0 0-.54-.35c-.06-.03-.08-.06-.07-.11a1.7 1.7 0 0 0-.03-.82 2.92 2.92 0 0 0-.75-1.26c-.02-.02-.03-.04-.06-.04 0 .04.02.07.05.1a2.62 2.62 0 0 1 .56.89 1.66 1.66 0 0 1 .08.9l-.06.2c0 .01-.01.03-.04.03a1.08 1.08 0 0 0-.2-.03c-.03 0-.05-.02-.05-.05a4.92 4.92 0 0 0-.41-1.2 13.5 13.5 0 0 1-.66-1.44c-.1-.28-.2-.55-.28-.84l-.07-.2-.02.03a1 1 0 0 1-.41.27c-.11.04-.22.09-.31.15-.19.12-.37.22-.6.23a1 1 0 0 1-.26-.02.88.88 0 0 1-.4-.24 1.4 1.4 0 0 0-.3-.22c-.02.02-.02.05-.03.07 0 .18-.05.35-.1.52-.06.25-.14.49-.24.73-.11.28-.24.57-.38.85ZM21.27 31c.03.03.06.05.1.06.14.06.3.08.44.1.17.04.33.06.5.08.23.04.45.1.66.19.25.1.5.21.78.25.19.03.38.02.56-.04a.67.67 0 0 0 .4-.9c-.08-.2-.2-.37-.34-.54-.14-.18-.28-.35-.4-.54-.16-.22-.26-.46-.39-.7a2.02 2.02 0 0 0-.46-.6c-.22-.19-.46-.2-.68 0l-.13.16c-.1.12-.19.26-.33.35-.11.07-.24.11-.36.16-.14.06-.28.13-.34.28-.05.12-.04.25-.02.38 0 .13.03.26.03.4 0 .07 0 .14-.02.22-.05.15-.1.31-.08.48 0 .08.02.15.08.21Zm8.96-2.06-.05-.14a.5.5 0 0 0-.2-.25.5.5 0 0 0-.2-.07.44.44 0 0 0-.34.08c-.23.18-.47.32-.78.3a.27.27 0 0 1-.12-.05.77.77 0 0 1-.33-.54c-.02-.07-.03-.08-.1-.04a.44.44 0 0 0-.16.16c-.1.18-.12.38-.15.58l-.07.61c-.04.3-.12.6-.2.9-.06.23-.1.45-.1.68.02.2.11.35.24.48.21.2.48.22.75.17.22-.04.4-.15.57-.29.17-.14.32-.28.47-.43.23-.2.5-.34.78-.47.16-.08.32-.17.45-.3.09-.07.1-.16.08-.27a.77.77 0 0 0-.1-.2c-.07-.12-.16-.22-.23-.33-.11-.18-.14-.38-.2-.58Zm-5.66-5.54c0 .15.13.35.27.4h.04l.2-.07-.06-.05-.24-.21c-.02-.02-.05-.04-.03-.07.02 0 .03 0 .05.02l.21.18c.24.2.52.28.83.2.18-.03.34-.12.5-.21l.39-.21c.03-.02.07-.06.1-.01.01.04-.05.04-.08.06a.63.63 0 0 0-.17.1l.03.01c.13.02.27-.02.4.04.02.01.03 0 .04-.02.06-.1.08-.2.03-.3a.39.39 0 0 0-.27-.21c-.04 0-.08-.01-.11-.04a.74.74 0 0 0-.13-.06c-.1-.04-.19-.07-.27-.13-.1-.06-.22-.11-.34-.15-.16-.04-.33-.09-.5.01h-.03c-.06 0-.11.03-.16.07l-.62.49a.23.23 0 0 0-.08.16Zm2.33-.42.03-.03a.9.9 0 0 0 .14-.59.88.88 0 0 0-.17-.46.5.5 0 0 0-.33-.2c-.23-.04-.4.06-.52.25a.9.9 0 0 0-.14.57c0 .02 0 .04.02.05l.21.08c.03-.04.02-.07.02-.1 0-.1.03-.21.1-.3.1-.17.28-.16.38 0 .11.19.1.37.02.56-.01.02-.03.04-.02.07l.26.1Zm-1.45-.6-.02-.08a.7.7 0 0 0-.2-.4c-.15-.14-.36-.12-.49.06a.9.9 0 0 0 0 .93c.06.12.08.12.19.03v-.02l-.01-.03c-.13-.17-.13-.35-.06-.53.02-.06.06-.11.14-.12.07 0 .11.05.15.1.07.1.09.22.08.34.04 0 .06-.03.09-.04.15-.07.15-.07.13-.24Zm.68 1.38c-.1.06-.22.09-.34.13.23.05.44-.02.51-.2l-.17.07Z"/><path fill="#FF9C00" d="M24.92 23.83c-.1-.05-.16-.09-.11-.07-.1-.1.12-.18.22-.09.09.1.38.23.57.22.3 0 .79-.26.97-.37.27-.16.27-.01.42-.08.06 0 .15.04 0 .19-.19.19-.29.25-.49.33-.28.11-.4.3-.83.3-.45 0-.51-.3-.75-.43ZM25.16 22.84l.22.08c.22 0 .57-.24.55-.24-.02 0-.13-.11-.42-.07a.95.95 0 0 0-.35.23Z"/></svg>