<svg xmlns="http://www.w3.org/2000/svg" fill="none" viewBox="0 0 32 32"><path fill="currentColor" fill-rule="evenodd" d="M11 6v2H9c-.5523 0-1 .4477-1 1v2.5H6v1h2v2H6v1h2v2H6v1h2v2H6v1h2V23c0 .5523.4477 1 1 1h2v2h1v-2h2v2h1v-2h2v2h1v-2h2v2h1v-2h2c.5523 0 1-.4477 1-1v-1.5h2v-1h-2v-2h2v-1h-2v-2h2v-1h-2v-2h2v-1h-2V9c0-.5523-.4477-1-1-1h-2V6h-1v2h-2V6h-1v2h-2V6h-1v2h-2V6h-1ZM9 9h14v14H9V9Zm3.9094 6.1641h.9333c-.0298-.2529-.098-.4773-.2046-.6733-.1051-.1961-.2414-.3615-.4091-.4965-.1676-.1363-.36-.24-.5774-.3111-.2159-.071-.4503-.1065-.7031-.1065-.3835 0-.7287.0881-1.0355.2642-.3068.1747-.5497.429-.7287.7628-.179.3338-.2685.7386-.2685 1.2145 0 .4744.0881.8785.2642 1.2123.1776.3338.4191.5888.7245.765.3068.1761.6548.2642 1.044.2642.2798 0 .5305-.0419.7521-.1258.2231-.0852.4148-.2002.5753-.3451.162-.1463.2905-.3118.3857-.4965a1.689 1.689 0 0 0 .1811-.5795l-.9333-.0043c-.0213.1165-.0596.2202-.115.3111a.8226.8226 0 0 1-.2046.2322.9013.9013 0 0 1-.2833.1428c-.1052.0327-.2195.049-.3431.049-.2201 0-.414-.054-.5817-.1619-.1676-.108-.2982-.2678-.392-.4794-.0923-.2117-.1385-.473-.1385-.7841 0-.3026.0462-.5597.1385-.7713.0923-.2131.2223-.375.3899-.4858.1676-.1122.3644-.1683.5902-.1683.125 0 .2408.0177.3473.0532a.8913.8913 0 0 1 .2855.1534.8187.8187 0 0 1 .2024.2429c.0526.0938.0874.201.1044.3218Zm3.3165-1.5277h-1.7216V18h.9225v-1.4148h.7756c.3352 0 .6208-.0618.8565-.1853.2373-.1236.4184-.2962.5434-.5178.125-.2216.1875-.4773.1875-.767 0-.2898-.0618-.5455-.1854-.7671-.1222-.223-.2997-.397-.5327-.522-.2329-.1264-.5149-.1896-.8458-.1896Zm-.7991 2.2095h.6265c.1775 0 .3238-.0306.4389-.0916.1165-.0625.2031-.1485.2599-.2579.0583-.1107.0874-.2379.0874-.3813 0-.1449-.0291-.2713-.0874-.3793-.0568-.1094-.1434-.1939-.2599-.2536-.1165-.061-.2642-.0916-.4432-.0916h-.6222v1.4553Zm6.5801-2.2095h-.9226v2.7549c0 .1662-.0369.314-.1108.4432-.0724.1293-.1754.2308-.3089.3047-.1321.0739-.2876.1108-.4666.1108-.1776 0-.3331-.0369-.4666-.1108-.1336-.0739-.2373-.1754-.3111-.3047-.0725-.1292-.1087-.277-.1087-.4432v-2.7549h-.9226v2.8338c0 .3182.0753.5966.2259.8352.1505.2386.3615.4247.6328.5582.2713.1321.5881.1982.9503.1982.3608 0 .6768-.0661.9481-.1982.2713-.1335.4823-.3196.6328-.5582.152-.2386.228-.517.228-.8352v-2.8338Z" clip-rule="evenodd"/><path fill="#000" d="m20.7722 31.5666-.9199-2.5661c-.0124-.0341-.0278-.0838-.0278-.1241 0-.1117.0929-.2172.2292-.2172.1177 0 .1951.0776.2292.1862l.7619 2.2092.7682-2.2154c.034-.1055.1053-.18.223-.18h.0247c.1239 0 .1983.0776.2354.18l.762 2.2123.7743-2.2216c.031-.0931.0929-.1769.2168-.1769.1301 0 .223.0993.223.211 0 .0403-.0185.0869-.0278.1241l-.9261 2.5691c-.0465.1335-.1394.2048-.2478.2048h-.0186c-.1177 0-.2044-.0713-.2478-.2048l-.7557-2.1781-.762 2.1781c-.0403.1335-.1301.2048-.2447.2048h-.0124c-.1177.0093-.2106-.062-.2571-.1954Zm6.7027-2.6871c0-.1241.0991-.2296.223-.2296.1301 0 .2292.0993.2292.2296v.5213c.223-.5058.7155-.7447 1.0438-.7447.1363 0 .223.0993.223.2296 0 .1241-.0836.211-.2013.2296-.5854.0714-1.0686.512-1.0686 1.387v1.0301c0 .1241-.0929.2296-.223.2296s-.2292-.0993-.2292-.2296l.0031-2.6529Zm3.1686 2.9105c-.8177 0-1.4836-.633-1.4836-1.5639v-.0124c0-.8657.6039-1.5638 1.4247-1.5638.8797 0 1.3814.7261 1.3814 1.5235 0 .121-.0991.211-.2075.211H29.609c.0619.6516.5172 1.0177 1.0469 1.0177.3686 0 .638-.1458.8579-.3506.0341-.0279.0744-.0528.127-.0528.1084 0 .1952.0869.1952.1924a.1908.1908 0 0 1-.0682.1458c-.2849.27-.6195.4531-1.1243.4531Zm.8796-1.7407c-.0464-.5461-.3562-1.024-.9478-1.024-.5172 0-.9075.4344-.9663 1.024h1.9141Zm-7.254.8005v-.0124c0-.6392.5266-.9774 1.2916-.9774.3872 0 .6598.0527.9323.1303v-.1055c0-.5461-.3345-.8253-.9013-.8253-.3035 0-.4801.0403-.7031.1396a.2136.2136 0 0 1-.0805.0186c-.1053 0-.1982-.0869-.1982-.1924 0-.0931.0402-.152.1238-.1892.2974-.1304.5235-.1738.9076-.1738.4274 0 .7557.1117.9756.3351.2045.2048.3098.4996.3098.8843v1.6724c0 .1273-.093.2234-.2168.2234-.127 0-.2138-.093-.2138-.2109v-.2886c-.2106.2761-.5637.5213-1.0933.5213-.5637-.0062-1.1337-.3289-1.1337-.9495Zm2.2301-.2358v-.2917c-.223-.0651-.5203-.1303-.8889-.1303-.5668 0-.8827.2451-.8827.6268v.0124c0 .3816.35.605.7619.605.5544 0 1.0097-.3413 1.0097-.8222Zm-13.9225-1.7593c-.0991-.2172-.3438-.3165-.573-.2141-.2292.1024-.3129.3568-.2107.574l.9602 2.0913c.1518.3289.3098.4996.6102.4996.319 0 .4584-.1862.6102-.4996 0 0 .8363-1.8276.8455-1.8462.0093-.0186.0341-.0775.1208-.0775a.135.135 0 0 1 .1332.1365v1.7872c0 .2762.1518.5027.446.5027.2943 0 .4523-.2265.4523-.5027v-1.4614c0-.2824.2013-.4654.4769-.4654.2757 0 .4585.1892.4585.4654v1.4614c0 .2762.1517.5027.446.5027.2942 0 .4522-.2265.4522-.5027v-1.4614c0-.2824.2013-.4654.477-.4654.2756 0 .4584.1892.4584.4654v1.4614c0 .2762.1518.5027.446.5027.2943 0 .4522-.2265.4522-.5027v-1.6631c0-.6113-.4894-1.0395-1.081-1.0395-.5885 0-.9601.4096-.9601.4096-.1952-.2575-.4677-.4127-.9261-.4127-.4832 0-.9076.4096-.9076.4096-.1951-.2544-.5296-.4096-.8084-.4096-.4274.0031-.7681.1924-.9756.6672l-.6133 1.449-.7898-1.8617Z"/></svg>