<svg xmlns="http://www.w3.org/2000/svg" fill="none" viewBox="0 0 32 34"><g clip-path="url(#a)"><path fill="#252F3E" d="M24.13 27.7c0 .12.01.23.04.31.02.08.06.17.11.26l.03.09c0 .03-.02.07-.07.1l-.23.16a.17.17 0 0 1-.1.03c-.03 0-.07-.02-.1-.05-.05-.06-.1-.11-.13-.17a2.78 2.78 0 0 1-.11-.22c-.29.34-.64.5-1.07.5a1 1 0 0 1-.72-.26.93.93 0 0 1-.27-.7c0-.3.1-.55.33-.73.22-.2.51-.29.89-.29a2.86 2.86 0 0 1 .8.11v-.26c0-.28-.06-.47-.17-.58-.12-.11-.32-.17-.6-.17-.12 0-.25.02-.39.05a2.9 2.9 0 0 0-.51.17.22.22 0 0 1-.06.01c-.05 0-.08-.03-.08-.11v-.18c0-.06.01-.1.03-.12a.27.27 0 0 1 .1-.08c.13-.07.28-.12.46-.16.17-.05.36-.07.56-.07.43 0 .75.1.95.3.2.19.3.48.3.88v1.17Zm-1.47.54c.12 0 .24-.02.37-.07a.8.8 0 0 0 .34-.23c.06-.07.1-.14.13-.23.02-.08.03-.19.03-.31v-.15a3.04 3.04 0 0 0-.67-.09c-.24 0-.42.05-.54.15-.12.1-.18.23-.18.41 0 .17.05.3.14.39.08.09.21.13.38.13Zm2.9.39c-.06 0-.1-.01-.13-.04-.03-.02-.06-.07-.08-.14l-.85-2.79a.63.63 0 0 1-.03-.14c0-.06.03-.1.08-.1h.36c.07 0 .11.02.14.04.03.02.05.07.07.14l.6 2.4.57-2.4c.02-.07.04-.12.07-.14a.25.25 0 0 1 .15-.03h.29c.07 0 .11 0 .14.03.03.02.06.07.07.14l.57 2.42.63-2.42a.31.31 0 0 1 .07-.14.24.24 0 0 1 .14-.03h.34c.06 0 .09.02.09.09v.05l-.03.1-.88 2.79c-.02.07-.04.12-.07.14a.23.23 0 0 1-.14.03h-.31c-.07 0-.12 0-.15-.03-.02-.03-.05-.08-.06-.15l-.57-2.33-.55 2.33c-.02.07-.04.12-.07.14-.03.03-.08.04-.15.04h-.3Zm4.65.1a2.4 2.4 0 0 1-.97-.21c-.06-.03-.1-.07-.11-.1a.25.25 0 0 1-.02-.1v-.19c0-.07.02-.11.08-.11a.2.2 0 0 1 .06.01c.03 0 .06.02.1.04a1.97 1.97 0 0 0 .82.17c.23 0 .4-.04.53-.12.12-.08.19-.2.19-.35 0-.1-.03-.18-.1-.25a.9.9 0 0 0-.36-.19l-.53-.16a1.1 1.1 0 0 1-.58-.37.86.86 0 0 1 .18-1.22c.1-.08.23-.14.38-.19a1.58 1.58 0 0 1 .7-.04c.08 0 .15.02.23.04a2.88 2.88 0 0 1 .36.12c.05.03.08.06.1.09a.2.2 0 0 1 .04.12v.17c0 .07-.03.11-.08.11a.38.38 0 0 1-.14-.04c-.2-.1-.44-.14-.7-.14-.2 0-.37.03-.48.1-.11.07-.17.17-.17.32 0 .1.04.19.11.26s.2.14.4.2l.51.16c.26.08.45.2.56.35.12.14.17.31.17.5 0 .16-.03.3-.1.42a.97.97 0 0 1-.26.32c-.11.09-.24.15-.4.2-.16.05-.33.08-.52.08Z"/><path fill="#F90" fill-rule="evenodd" d="M30.9 30.48a7.81 7.81 0 0 1-4.41 1.35 7.98 7.98 0 0 1-5.38-2.05c-.11-.1-.01-.24.12-.16a10.76 10.76 0 0 0 9.5.59c.2-.1.36.13.17.27Z" clip-rule="evenodd"/><path fill="#F90" fill-rule="evenodd" d="M31.4 29.92c-.16-.2-1.01-.1-1.4-.05-.12.02-.13-.08-.03-.16.68-.48 1.8-.34 1.93-.18.13.16-.04 1.28-.67 1.81-.1.09-.2.04-.15-.07.14-.35.46-1.16.31-1.35Z" clip-rule="evenodd"/></g><path fill="currentColor" fill-rule="evenodd" d="M12.25 4a1 1 0 0 0-.8.4l-2.25 3A1 1 0 0 0 10 9h14a1 1 0 0 0 .8-1.6l-2.25-3a1 1 0 0 0-.8-.4h-9.5Zm0 1h9.5L24 8H10l2.25-3ZM8.5 11a1 1 0 0 1 1-1h15a1 1 0 0 1 1 1v13a1 1 0 0 1-1 1h-15a1 1 0 0 1-1-1V11Zm16 0h-15v13h15V11ZM13 16.52c0 .13.05.26.15.35l4 3.98c.2.2.5.2.7 0l3-3c.2-.2.2-.5.01-.7l-3.85-4a.5.5 0 0 0-.36-.15H13.5a.5.5 0 0 0-.5.5v3.02Zm4.5 3.27L14 16.31V14h2.43l3.37 3.5-2.3 2.3Zm-2-4.79a.5.5 0 0 0 0 1 .5.5 0 0 0 .5-.5.5.5 0 0 0-.5-.5Z" clip-rule="evenodd"/><defs><clipPath id="a"><path fill="#fff" d="M21 25.3h11v6.56H21z"/></clipPath></defs></svg>