<svg xmlns="http://www.w3.org/2000/svg" fill="none" viewBox="0 0 32 33"><g clip-path="url(#a)"><path fill="#EA4335" d="M27.61 24.83h.37l1.04-1.04.06-.45a4.69 4.69 0 0 0-7.63 2.3.57.57 0 0 1 .36-.03l2.09-.34s.1-.18.16-.17a2.6 2.6 0 0 1 3.56-.27Z"/><path fill="#4285F4" d="M30.51 25.63a4.7 4.7 0 0 0-1.42-2.28l-1.46 1.46c.62.5.97 1.27.95 2.07v.26a1.3 1.3 0 1 1 0 2.6h-2.6l-.26.27v1.56l.26.26h2.6a3.39 3.39 0 0 0 1.93-6.2Z"/><path fill="#34A853" d="M23.37 31.81h2.6v-2.08h-2.6a1.3 1.3 0 0 1-.54-.12l-.37.11-1.05 1.05-.09.36c.6.45 1.31.69 2.05.68Z"/><path fill="#FBBC05" d="M23.37 25.05a3.39 3.39 0 0 0-2.05 6.07l1.51-1.51a1.3 1.3 0 1 1 1.73-1.72l1.51-1.52a3.39 3.39 0 0 0-2.7-1.32Z"/></g><path fill="currentColor" fill-rule="evenodd" d="M26 6.5h-2.96a3 3 0 0 1 5.92 0H26Zm0 1h2.96a3 3 0 0 1-5.92 0H26ZM26 3a4 4 0 0 0-3.12 1.5H13a.5.5 0 0 0-.5.5v3.5H10a.5.5 0 0 0-.5.5v2.5H7a.5.5 0 0 0-.5.5v11c0 .28.22.5.5.5h11a.5.5 0 0 0 .5-.5v-2.5H21a.5.5 0 0 0 .5-.5v-3.5H24a.5.5 0 0 0 .5-.5v-5.3A3.99 3.99 0 0 0 30 7a4 4 0 0 0-4-4ZM13.5 5.5h8.8a3.99 3.99 0 0 0 1.2 4.62v5.38h-10v-10Zm7 11H13a.5.5 0 0 1-.5-.5V9.5h-2v10h10v-3Zm-13-4h2V20c0 .28.22.5.5.5h7.5v2h-10v-10Zm7.15-2.13a.5.5 0 0 1-.15-.35V7c0-.28.22-.5.5-.5h3.15a.5.5 0 0 1 .36.15l3.85 4c.19.2.19.5 0 .7l-3 3a.5.5 0 0 1-.71 0l-4-3.98Zm.85-.56L19 13.3l2.3-2.3-3.37-3.49H15.5v2.31Zm1-.81a.5.5 0 1 1 1 0 .5.5 0 1 1-1 0Z" clip-rule="evenodd"/><defs><clipPath id="a"><path fill="#fff" d="M20 22.17h12v9.66H20z"/></clipPath></defs></svg>