<svg xmlns="http://www.w3.org/2000/svg" fill="none" viewBox="0 0 33 32"><path fill="currentColor" fill-rule="evenodd" d="M11 6v2H9a1 1 0 0 0-1 1v2.5H6v1h2v2H6v1h2v2H6v1h2v2H6v1h2V23a1 1 0 0 0 1 1h2v2h1v-2h2v2h1v-2h2v2h1v-2h2v2h1v-2h2a1 1 0 0 0 1-1v-1.5h2v-1h-2v-2h2v-1h-2v-2h2v-1h-2v-2h2v-1h-2V9a1 1 0 0 0-1-1h-2V6h-1v2h-2V6h-1v2h-2V6h-1v2h-2V6h-1ZM9 9h14v14H9V9Zm1.288 4.864v.727h2.094v.767h.882v-.767h.541v-.74h-.54v-2.857H12.108l-1.821 2.87ZM12.399 12h-.034l-1.148 1.818v.034h1.182V12Zm2.636 3.183c.264.18.58.27.946.27.367 0 .681-.089.944-.268.263-.179.464-.438.605-.777.142-.34.213-.749.213-1.228.002-.476-.069-.88-.21-1.214a1.678 1.678 0 0 0-.61-.767 1.651 1.651 0 0 0-.942-.264c-.365 0-.68.088-.944.264a1.67 1.67 0 0 0-.607.765c-.14.335-.211.74-.211 1.216-.002.478.068.886.209 1.226.142.339.344.598.607.777Zm1.545-.871c-.15.251-.349.377-.599.377a.63.63 0 0 1-.435-.166c-.123-.112-.22-.28-.287-.503a2.993 2.993 0 0 1-.1-.84c.001-.495.076-.867.225-1.116.15-.249.348-.373.597-.373.166 0 .31.055.433.166.123.111.218.277.285.497.068.22.102.495.102.826.002.503-.072.88-.221 1.132Zm1.605-.448v.727h2.094v.767h.883v-.767h.54v-.74h-.54v-2.857H20.006l-1.821 2.87ZM20.296 12h-.034l-1.148 1.818v.034h1.182V12Z" clip-rule="evenodd"/><path fill="currentColor" fill-rule="evenodd" d="M10.629 20v-2.91h.79v1.137h1.045v-1.136h.79V20h-.79v-1.137H11.42V20h-.79Zm2.92-2.273v-.636h2.529v.636h-.875V20h-.779v-2.273h-.875Zm2.747 0v-.636h2.528v.636h-.875V20h-.779v-2.273h-.875ZM19.12 20v-2.91h1.256c.216 0 .405.043.567.129a.928.928 0 0 1 .377.359c.09.154.135.335.135.541 0 .209-.046.389-.139.541a.914.914 0 0 1-.388.353 1.29 1.29 0 0 1-.58.123h-.438V20h-.79Zm1.068-1.477h-.278v-.802h.278c.093 0 .172.017.238.049a.338.338 0 0 1 .151.136.4.4 0 0 1 .055.213.412.412 0 0 1-.055.215.353.353 0 0 1-.151.14.532.532 0 0 1-.238.049Z" clip-rule="evenodd"/><path fill="#F68536" d="m24.521 29.701-1.064.243v-6.895l1.064.243v6.409ZM25.85 30.108l-1.328.377v-7.969l1.328.377v7.215Z"/><path fill="#F68536" d="m27.554 30.526-1.704.624v-9.298l1.704.624v8.05ZM32.11 29.722 27.554 32V21l4.556 2.278v6.444Z"/><path fill="#9D5025" d="m26.646 21.454.908-.454v11l-.908-.454V21.454ZM25.147 22.204l.703-.352v9.296l-.703-.352v-8.592ZM23.961 22.796l.56-.28v7.968l-.56-.28v-7.408ZM23.457 23.049l-.457.228v6.446l.457.228V23.05Z"/></svg>