<svg xmlns="http://www.w3.org/2000/svg" fill="none" viewBox="0 0 16 16">
  <path stroke="currentColor" stroke-linecap="round" stroke-width=".8" d="M6.34039 3.02201v2.59215c0 .08042-.0194.15965-.05655.23098L2.62963 12.8609c-.34675.6658.13628 1.462.88691 1.462h8.95336c.7491 0 1.2323-.7934.8884-1.459L9.73203 5.84454c-.03665-.07095-.05578-.14964-.05578-.22949V3.03011c0-.00447.00363-.0081.0081-.0081h.60535c.3817 0 .6911-.30941.6911-.69109v0c0-.38168-.3094-.69109-.6911-.69109H5.7109c-.38168 0-.69109.30941-.69109.69109v0c0 .38168.30941.69109.69109.69109h.62949Zm0 0H8.0003"/>
  <path stroke="currentColor" d="M8.01376 8v.95843m0 3.04157v-.8654M6.60212 8.59186l.58744.58843m2.23609 2.23991-.58744-.5885m-2.84798-.83337L6.86074 10m3.12949.006-.79014-.0015m-2.59797 1.4157.58744-.5885m2.23609-2.23984-.62397.62503"/>
  <circle cx="7.98991" cy="10.0029" r="1.16667" stroke="currentColor" stroke-width=".8"/>
</svg>
