<svg xmlns="http://www.w3.org/2000/svg" fill="none" viewBox="0 0 33 32"><path fill="currentColor" fill-rule="evenodd" d="M27.4994 8.08c-.3054-.0012-.5682-.0764-.7884-.2256-.219-.1491-.3876-.3651-.506-.648-.1172-.283-.1752-.6233-.174-1.021 0-.3965.0586-.7345.1758-1.0138.1183-.2794.287-.4919.506-.6375.2202-.1467.4824-.2201.7866-.2201.3042 0 .5658.0734.7848.2201.2202.1468.3894.3599.5078.6392.1184.2782.177.6156.1758 1.0121 0 .399-.0592.7398-.1776 1.0227-.1172.283-.2853.499-.5042.6481-.219.1492-.4812.2237-.7866.2237Zm0-.6375c.2083 0 .3746-.1047.4989-.3143.1243-.2095.1859-.5237.1847-.9428 0-.2758-.0284-.5054-.0853-.689-.0556-.1834-.1349-.3213-.2379-.4136-.1018-.0923-.2219-.1385-.3604-.1385-.2072 0-.3729.1036-.4972.3107-.1243.2072-.187.5173-.1882.9304 0 .2794.0278.5126.0835.6996.0568.1858.1367.3255.2397.419.1029.0923.2237.1385.3622.1385Zm1.9615-.0817v-.6054l1.5181-2.3917h.9624v2.381h.451v.6161h-.451V8h-.7351v-.6392h-1.7454Zm1.7312-2.159h.0284v1.543h-.9854v-.0285l.957-1.5146Zm-8.5622 1.5536v.6054h1.7454V8h.7351v-.6392h.4509v-.616h-.4509V4.3636H24.148l-1.5181 2.3917Zm1.7596-1.5537h-.0284l-.9571 1.5146v.0284h.9855v-1.543ZM13.8236 5.5665a.5.5 0 0 1 .4983 0l12.9273 7.4304a.5001.5001 0 0 1 .2508.4335v8.8964a.5.5 0 0 1-.2503.4332l-8.109 4.6732a.5.5 0 0 1-.4992.0001l-12.891-7.4242a.4999.4999 0 0 1-.2505-.4332v-8.937a.5.5 0 0 1 .2509-.4335l8.0727-4.639ZM6.5 11.502v7.7847l11.897 6.8517.0541-7.7825L6.5 11.5021Zm12.9511 6.8556-.054 7.7736L26.5 22.0378v-7.7422l-7.0489 4.0621Zm6.5465-4.9268L14.0727 6.5767l-7.0684 4.0618 11.9482 6.8523 7.0451-4.0599Z" clip-rule="evenodd"/><g clip-path="url(#a)"><path fill="#9D5125" d="m21.5889 30.9478 2.3212-4.2765-2.3212-4.6195-.5889.2915v8.3129l.5889.2916Zm5.6372-6.7521-3.8477-.646.869-1.2235 3.8877 1.7266-.909.1429Zm.0457 4.591-4.5623.7489.9547 1.315 4.4709-1.9324-.8633-.1315Z"/><path fill="#F58534" d="M22.961 22.3662v8.2614l-1.3721.3202v-8.896l1.3721.3144Z"/><path fill="#9D5125" d="m22.961 31.6339-.7204-.3602v-9.5478l.7204-.3602 1.355 5.7116-1.355 4.5566Zm5.1741-7.5811-.9147.143v4.5795l.9147.1429.8347-2.3269-.8347-2.5385Z"/><path fill="#F58534" d="M24.3617 21.7659v9.4735l-1.4007.3945V21.3657l1.4007.4002Z"/><path fill="#F58534" d="M29.0899 29.9016V28.741l-6.1289 1.1377v1.7552l6.1289-1.7323Zm.0114-6.7921v1.1263l-6.1403-1.1663v-1.7038l6.1403 1.7438Z"/><path fill="#F58534" d="M28.1351 30.1707v-7.3353l.9834.2688v6.7978l-.9834.2687Z"/><path fill="#6B3B19" d="M31.0967 23.5156 32 25.6024l-2.6357.1258-.9319-.0629 2.6643-2.1497Z"/><path fill="#9D5125" d="M28.4324 23.9501v1.7152l2.6643-.1544v-1.9953l-2.6643.4345Z"/><path fill="#6B3B19" d="m27.1975 25.5796-1.2749-.0857 2.7042-2.7214 1.3722 2.6299-2.8015.1772Z"/><path fill="#9D5125" d="M25.9226 23.4014v2.0925l2.7042-.2287v-2.4927l-2.7042.6289Zm2.5098 5.6886v-1.7152L32 27.432l-.9033 2.0868-2.6643-.4288Z"/><path fill="#9D5125" d="M25.9226 29.633v-2.0925l4.0764.0915-1.3722 2.6299-2.7042-.6289Z"/><path fill="#FCBF92" d="m27.1975 27.4549-1.2749.0858 2.7042.2287 1.3722-.1372-2.8015-.1773Zm3.8992.0687L32 27.4321l-2.6357-.1201-.9319.0629 2.6643.1487Z"/><path fill="#F58534" d="M31.0967 23.5157v1.9953l.9033.0915v-1.8181l-.9033-.2687Zm-1.0977-.3316v2.2183l-1.3722-.1372v-2.4927l1.3722.4116Zm1.0977 6.3347v-1.9953L32 27.432v1.8181l-.9033.2687Zm-1.0977.3316v-2.2183l-1.3722.1372v2.4928l1.3722-.4117Z"/></g><defs><clipPath id="a"><path fill="#fff" d="M21 21h11v11H21z"/></clipPath></defs></svg>