<svg xmlns="http://www.w3.org/2000/svg" fill="none" viewBox="0 0 16 16">
  <g clip-path="url(#a)">
    <path fill="#7D4DD3" d="M7.94748.423211c-.13399.006956-.26527.041193-.38614.100703L2.29209 3.11858c-.13638.06712-.25621.16478-.35059.28574-.09439.12096-.1609.26209-.19459.41293L.446946 9.64551c-.030018.13429-.033377.27336-.009879.40899.023498.1356.073376.2651.146682.3807.017775.0282.036891.0556.05728.0819l3.647161 4.6733c.09441.121.21425.2186.35063.2857.13639.0671.28581.1019.43716.1019l5.84882-.0014c.1513.0001.3007-.0346.4371-.1016.1363-.067.2562-.1645.3507-.2853l3.6458-4.674c.0944-.121.161-.2621.1947-.413.0337-.15094.0338-.30767.0001-.45857l-1.302-5.82827c-.0337-.15084-.1002-.29197-.1946-.41293-.0944-.12095-.2142-.21862-.3506-.28574L8.43606.523914C8.28403.449056 8.11603.414428 7.94748.423211Z"/>
    <path fill="#7D4DD3" d="M7.94454.00143547C7.80325.00906249 7.66487.0454232 7.5375.108389L1.97444 2.84681c-.14397.07087-.27047.17397-.3701.30166-.09964.12769-.16985.27668-.20542.43591L.0268582 9.73698c-.03178488.14182-.03539854.28872-.0106266.43202.0247719.1432.077425.28.1548404.4021.018833.0297.039073.0584.060648.0861l3.85001 4.9337c.09966.1277.22617.2307.37013.3016.14397.0708.30169.1075.46146.1075l6.17428-.0014c.1597.0001.3174-.0365.4614-.1072.144-.0707.2705-.1736.3702-.3012l3.8487-4.9344c.0996-.1277.1698-.2766.2054-.4358.0356-.1592.0356-.32452.0001-.48372l-1.3741-6.15329c-.0356-.15911-.1059-.30796-.2055-.43552s-.2261-.23056-.37-.30135L8.46075.107695c-.16064-.0790814-.33814-.11562077-.51621-.10625953ZM7.94723.423693c.16854-.008782.33654.025845.48858.100703L13.7057 3.11767c.1364.06712.2562.16479.3506.28574.0944.12096.1609.26209.1946.41293l1.302 5.82827c.0337.1509.0337.30763 0 .45849-.0337.1509-.1003.2921-.1948.4131l-3.6458 4.674c-.0944.1208-.2143.2183-.3507.2853-.1364.0669-.2858.1017-.4371.1016l-5.84876.0013c-.15136.0001-.30078-.0347-.43716-.1018-.13639-.0671-.25623-.1648-.35064-.2857L.640783 10.5176c-.02039-.0263-.039506-.0537-.057281-.0819-.073306-.1156-.123184-.2451-.146681-.3807-.023498-.13564-.020139-.27471.009879-.409l1.29996-5.82827c.03369-.15083.1002-.29197.19459-.41292.09438-.12096.21422-.21862.3506-.28574L7.56109.524402c.12087-.059509.25216-.093746.38615-.100702L7.94723.423693Z"/>
    <path fill="#EADEFF" d="M6.51316 12.613v1.0639h-.30308v-1.7686h.2928v.2763h.02569c.04623-.0898.11643-.1619.21061-.2164.09417-.0553.21574-.0829.36471-.0829.13356 0 .25042.0245.35059.0736.10017.0484.17808.1221.23373.2211.05565.0983.08347.2226.08347.3731v1.1238h-.30307v-1.1054c0-.1389-.04024-.2472-.12072-.3247-.08048-.0783-.19092-.1174-.33132-.1174-.09675 0-.18322.0188-.25941.0564-.07534.0376-.13485.0925-.17851.1646-.04366.0722-.06549.1597-.06549.2626Zm3.20955-.3086-.27225.0691c-.01712-.0407-.04238-.0802-.07577-.1186-.03253-.0392-.07705-.0714-.13355-.0967-.05651-.0254-.12885-.038-.21703-.038-.12072 0-.22132.0249-.30179.0748-.07962.0491-.11944.1117-.11944.1877 0 .0675.0274.1209.08219.16.0548.0392.14041.0718.25685.0979l.2928.0645c.17636.0384.30778.0971.39425.1762.08647.0783.1297.1792.1297.3028 0 .1013-.03253.1919-.0976.2718-.06421.0798-.1541.1427-.26968.1888-.11558.0461-.24999.0691-.40324.0691-.2012 0-.36771-.0392-.49956-.1175-.13185-.0783-.21532-.1926-.25042-.3431l.28766-.0645c.0274.0952.0792.1666.15539.2142.07705.0476.17765.0714.30179.0714.14126 0 .25342-.0269.33646-.0806.0839-.0545.12586-.1198.12586-.1958 0-.0614-.02398-.1128-.07192-.1543-.04794-.0422-.12157-.0737-.22088-.0944l-.32876-.0691c-.18065-.0384-.31335-.0979-.39811-.1785-.0839-.0813-.12585-.183-.12585-.3051 0-.0998.03125-.1881.09375-.2648.06335-.0768.14939-.1371.25812-.1808.10959-.0438.23373-.0656.37243-.0656.19519 0 .34844.0383.45974.1151.11216.0768.19178.1781.23886.304Z"/>
    <path fill="#fff" stroke="#7D4DD3" stroke-dasharray=".8 .4" stroke-linejoin="round" stroke-miterlimit="10" stroke-width=".4" d="M11.4038 4.74939H4.59619v6.11651h6.80761V4.74939Z"/>
  </g>
  <defs>
    <clipPath id="a">
      <path fill="#fff" d="M0 0h16v16H0z"/>
    </clipPath>
  </defs>
</svg>
