<svg xmlns="http://www.w3.org/2000/svg" fill="none" viewBox="0 0 33 33"><path fill="currentColor" fill-rule="evenodd" d="M7.1643 4.5791c-.4729 0-.8813.33-.9796.7916l-1.4103 6.6191L3.28 19.0046a.4991.4991 0 0 0-.011.104v4.9711c0 .5519.4484.9994 1.0015.9994H20.427a.5001.5001 0 0 0 .5007-.4997.5001.5001 0 0 0-.5007-.4997H4.2704v-4.4714h23.997v1.4377c0 .276.2242.4998.5008.4998a.5003.5003 0 0 0 .5007-.4998v-1.9374a.4994.4994 0 0 0-.0147-.1205L25.8566 5.3376a1.001 1.001 0 0 0-.9719-.7585H7.1643Zm9.1046 14.0297H4.3881l1.366-6.4112 1.4102-6.619h17.7204l3.2431 13.0302H16.2689Zm-.5262-10.8994c-2.3004.2488-4.091 2.1933-4.091 4.5552 0 2.5307 2.0557 4.5822 4.5915 4.5822 1.2064 0 2.3031-.4636 3.1229-1.223a.5014.5014 0 0 1 .7076.0263.499.499 0 0 1-.0263.7062c-.9977.9242-2.3353 1.4899-3.8042 1.4899-3.0889 0-5.593-2.4989-5.593-5.5816 0-3.0826 2.5041-5.5816 5.593-5.5816 3.089 0 5.5931 2.499 5.5931 5.5816a.5002.5002 0 0 1-.5008.4997H19.6651c-.2426 1.6689-1.6821 2.9509-3.4216 2.9509-1.9096 0-3.4576-1.5449-3.4576-3.4506 0-1.736 1.2845-3.1725 2.9568-3.4146V7.7094Zm-1.9554 4.5552c0-1.3537 1.0997-2.4511 2.4562-2.4511s2.4561 1.0974 2.4561 2.4511-1.0996 2.4511-2.4561 2.4511c-1.3565 0-2.4562-1.0974-2.4562-2.4511Zm7.5479 1.4323a.5002.5002 0 0 1 .5007.4997v1.7282a.5002.5002 0 0 1-.5007.4997.5001.5001 0 0 1-.5007-.4997v-1.7282c0-.276.2241-.4997.5007-.4997Zm.5007 3.5572a.5002.5002 0 0 0-.5007-.4997.5001.5001 0 0 0-.5007.4997v.0931c0 .276.2241.4998.5007.4998a.5003.5003 0 0 0 .5007-.4998v-.0931Z" clip-rule="evenodd"/><path fill="#326CE5" d="M27.3202 27.704a.1955.1955 0 0 0-.0464-.0035.202.202 0 0 0-.1751.2818l-.0014.002.4625 1.1174a2.3606 2.3606 0 0 0 .9544-1.1987l-1.192-.2015-.002.0025Zm-1.8547.1584a.2015.2015 0 0 0-.2333-.1535l-.002-.0024-1.1816.2006c.1775.4907.5119.9091.9514 1.1903l.4579-1.1065-.0036-.0043a.1999.1999 0 0 0 .0112-.1242Zm.9896.4339a.2013.2013 0 0 0-.1779-.1063.2013.2013 0 0 0-.1777.1067h-.001l-.5811 1.0508a2.3674 2.3674 0 0 0 1.2917.0664 2.4492 2.4492 0 0 0 .2328-.0651l-.5824-1.0526-.0044.0001Zm1.8395-2.4408-.8941.8002.0005.0026a.2018.2018 0 0 0-.064.1971.2017.2017 0 0 0 .1432.1497l.0011.0049 1.158.3335a2.4019 2.4019 0 0 0-.3447-1.4879v-.0001Zm-1.661.0897a.203.203 0 0 0 .0333.1022.2028.2028 0 0 0 .1868.0897.2016.2016 0 0 0 .1006-.0379l.0035.0015.9783-.6936a2.3779 2.3779 0 0 0-1.3715-.6612l.0679 1.199.0011.0003Zm-1.036.1584a.2018.2018 0 0 0 .3203-.1546l.005-.0023.0679-1.2009a2.4602 2.4602 0 0 0-.2441.0421 2.3576 2.3576 0 0 0-1.1356.6189l.9846.698.0019-.0012Zm-.5249.9074a.2011.2011 0 0 0 .1436-.1497.2014.2014 0 0 0-.0643-.1972l.001-.0048-.899-.804a2.357 2.357 0 0 0-.3345 1.4921l1.1523-.3325.0009-.0039Zm.8732.3532.3316.1595.3306-.1592.0821-.3569-.2288-.2862h-.3683l-.2295.2857.0823.3571Z"/><path fill="#326CE5" d="m31.7597 28.0675-.945-4.1045a.7376.7376 0 0 0-.3956-.4921l-3.825-1.8263a.737.737 0 0 0-.6348 0l-3.8243 1.8272a.7376.7376 0 0 0-.3957.4921l-.9434 4.1044a.7224.7224 0 0 0-.0002.3152.7385.7385 0 0 0 .0266.0932.7102.7102 0 0 0 .1144.2055l2.647 3.2911c.0116.0144.0243.0274.037.0407a.7239.7239 0 0 0 .1396.1157.755.755 0 0 0 .2092.091.7218.7218 0 0 0 .186.0256h.0412l4.2038-.0009a.7493.7493 0 0 0 .0764-.0045.744.744 0 0 0 .1079-.0205.7502.7502 0 0 0 .0749-.024.7425.7425 0 0 0 .0567-.0235.7475.7475 0 0 0 .0802-.0446.7234.7234 0 0 0 .1756-.1554l.0807-.1003 2.5655-3.1915a.7124.7124 0 0 0 .1143-.2053.7194.7194 0 0 0 .0271-.0935.7191.7191 0 0 0-.0001-.3148Zm-3.9675 1.5964a.7913.7913 0 0 0 .0382.0924.1798.1798 0 0 0-.0178.135c.0557.1275.1237.2492.203.3634.0444.0584.0854.1193.1227.1825.0093.0171.0213.0435.03.0616a.2291.2291 0 0 1 .0227.1849.231.231 0 0 1-.0459.0835.2313.2313 0 0 1-.1685.0796.2307.2307 0 0 1-.1721-.0713.2278.2278 0 0 1-.05-.0811c-.0088-.0179-.0209-.0417-.0283-.0586a1.9063 1.9063 0 0 1-.0665-.2098 2.1294 2.1294 0 0 0-.1571-.385.1809.1809 0 0 0-.1168-.0709c-.0073-.0126-.0344-.0623-.049-.088a2.9624 2.9624 0 0 1-2.1125-.0054l-.0518.0938a.186.186 0 0 0-.0986.0481 1.5993 1.5993 0 0 0-.1773.4113 1.883 1.883 0 0 1-.0661.2098c-.0073.0168-.0195.0403-.0283.0582l-.0003.0009a.2313.2313 0 0 1-.2224.1525.2291.2291 0 0 1-.1685-.08.2294.2294 0 0 1-.0537-.1786.2293.2293 0 0 1 .0313-.09c.0086-.0182.0202-.0445.0293-.0616a1.902 1.902 0 0 1 .1227-.183 2.2398 2.2398 0 0 0 .2072-.3724.2273.2273 0 0 0-.0204-.1294l.0416-.0998a2.9792 2.9792 0 0 1-1.32-1.6482l-.0998.017a.253.253 0 0 0-.1317-.0464 2.1413 2.1413 0 0 0-.399.1174 1.9314 1.9314 0 0 1-.2054.0787c-.0165.0045-.0404.0091-.0592.0132-.0016.0005-.0029.0012-.0044.0016a.0207.0207 0 0 1-.0035.0003.2305.2305 0 0 1-.1849-.0182.23.23 0 0 1 .0832-.4279l.0034-.0008.002-.0005c.0191-.0045.0436-.0109.0611-.0142a1.9228 1.9228 0 0 1 .2197-.0177 2.1338 2.1338 0 0 0 .4102-.0674.3159.3159 0 0 0 .0984-.0992l.0959-.028a2.9623 2.9623 0 0 1 .4671-2.0651l-.0734-.0654a.2534.2534 0 0 0-.046-.1321 2.138 2.138 0 0 0-.3404-.2392 1.9037 1.9037 0 0 1-.1898-.111c-.0139-.0103-.0323-.0259-.0474-.0382l-.0034-.0024a.2425.2425 0 0 1-.0563-.3374.2193.2193 0 0 1 .1824-.0807.2726.2726 0 0 1 .1595.0602c.0156.0122.0369.0285.0508.0404.0533.0504.1036.1038.1507.16a2.138 2.138 0 0 0 .3087.2789.1809.1809 0 0 0 .1359.0132c.0273.0198.0548.0394.0826.0586a2.9453 2.9453 0 0 1 1.4958-.8545 2.9776 2.9776 0 0 1 .4138-.0636l.0054-.0968a.2487.2487 0 0 0 .0743-.1184 2.1372 2.1372 0 0 0-.0255-.4152 1.947 1.947 0 0 1-.0312-.2177c-.0006-.0167.0003-.0396.0005-.0586 0-.0022-.0005-.0044-.0005-.0064a.2294.2294 0 0 1 .1354-.2335.231.231 0 0 1 .1868-.0001.2302.2302 0 0 1 .1356.2333c0 .0201.0012.0467.0005.0651a1.8802 1.8802 0 0 1-.0314.2177 2.1463 2.1463 0 0 0-.0259.4153.1811.1811 0 0 0 .0748.1144c.0008.0165.0035.0718.0055.1022a2.9994 2.9994 0 0 1 1.9001.9181l.0871-.0622a.2547.2547 0 0 0 .1389-.0151 2.1452 2.1452 0 0 0 .3086-.2792 1.889 1.889 0 0 1 .1512-.16c.014-.0121.0352-.0282.0507-.0405a.2305.2305 0 0 1 .3415.0205.23.23 0 0 1-.0563.3374c-.0153.0124-.0356.0297-.0504.0407a1.9088 1.9088 0 0 1-.1902.1109 2.138 2.138 0 0 0-.3404.2392.1815.1815 0 0 0-.043.1297c-.0127.0117-.0575.0513-.0812.0728a2.974 2.974 0 0 1 .4769 2.0602l.0924.0269a.257.257 0 0 0 .0987.0992c.1343.0358.2718.0585.4105.0676a1.944 1.944 0 0 1 .2195.0176c.0192.0035.047.0112.0667.0157a.229.229 0 0 1 .1586.0966.23.23 0 0 1-.0044.2686.2301.2301 0 0 1-.2561.0808l-.0033-.0004c-.0015-.0004-.0029-.0012-.0045-.0016-.0189-.0041-.0426-.0082-.0591-.0126a1.8835 1.8835 0 0 1-.2053-.0793 2.1452 2.1452 0 0 0-.3994-.1174.181.181 0 0 0-.1281.0476 3.5689 3.5689 0 0 0-.0978-.0172 2.979 2.979 0 0 1-1.3196 1.6601Z"/><path fill="#fff" d="m32.2582 28.1727-1.0309-4.478a.8047.8047 0 0 0-.4317-.5369l-4.1729-1.9922a.8024.8024 0 0 0-.3463-.0784.8027.8027 0 0 0-.3463.0784l-4.1726 1.9934a.8048.8048 0 0 0-.4318.5367l-1.0291 4.4782a.7958.7958 0 0 0 .1537.6697l2.888 3.5909a.8135.8135 0 0 0 .6237.2977l4.6313-.0011a.8127.8127 0 0 0 .6238-.2973l2.887-3.5912a.7994.7994 0 0 0 .1541-.6697v-.0002Zm-.4988.2097a.7568.7568 0 0 1-.027.0935.7154.7154 0 0 1-.1145.2053l-2.5654 3.1914-.0806.1004a.7223.7223 0 0 1-.1758.1554.7432.7432 0 0 1-.0799.0446.7337.7337 0 0 1-.0567.0233.7616.7616 0 0 1-.1829.0447.698.698 0 0 1-.0765.0045l-4.2037.0009h-.0413a.7224.7224 0 0 1-.186-.0256.7555.7555 0 0 1-.209-.091.7251.7251 0 0 1-.1398-.1157c-.0126-.0133-.0254-.0264-.0369-.0406l-2.6471-3.2912a.7172.7172 0 0 1-.1143-.2057.7226.7226 0 0 1-.0267-.0932.722.722 0 0 1 .0003-.3151l.9434-4.1046a.7365.7365 0 0 1 .3957-.4919l3.8243-1.8271a.737.737 0 0 1 .6348 0l3.8249 1.8263a.7367.7367 0 0 1 .3956.4921l.945 4.1045a.721.721 0 0 1 .0001.3149v-.0001Z"/><path fill="#fff" d="M30.1106 27.7387c-.0195-.0045-.0474-.0122-.0666-.0157a1.9176 1.9176 0 0 0-.2194-.0177 2.1365 2.1365 0 0 1-.4106-.0674.2567.2567 0 0 1-.0987-.0993l-.0925-.0269a2.9743 2.9743 0 0 0-.4767-2.0602c.0236-.0215.0684-.0611.0811-.0728a.1807.1807 0 0 1 .0429-.1296 2.1433 2.1433 0 0 1 .3405-.2392 1.9097 1.9097 0 0 0 .1902-.111c.0148-.0109.0349-.0283.0504-.0407a.2296.2296 0 0 0 .1033-.1561.23.23 0 0 0-.3884-.2018c-.0156.0123-.0369.0284-.0508.0405a1.9052 1.9052 0 0 0-.1512.16 2.146 2.146 0 0 1-.3087.2792.2542.2542 0 0 1-.1388.0151l-.0871.0622a2.9998 2.9998 0 0 0-1.9001-.9181c-.0021-.0304-.0047-.0856-.0056-.1022a.1815.1815 0 0 1-.0746-.1144 2.138 2.138 0 0 1 .0259-.4153 1.9 1.9 0 0 0 .0312-.2176c.0007-.0185-.0004-.0452-.0004-.0652a.2308.2308 0 0 0-.0583-.1774.2306.2306 0 0 0-.3414.0002.2308.2308 0 0 0-.0581.1775c0 .0021.0004.0042.0005.0064-.0002.0189-.0011.0419-.0005.0585.0062.0732.0166.1459.0312.2178a2.145 2.145 0 0 1 .0255.4152.25.25 0 0 1-.0743.1183l-.0054.0969a2.9813 2.9813 0 0 0-.4139.0636 2.945 2.945 0 0 0-1.4956.8545 4.2797 4.2797 0 0 1-.0828-.0587.181.181 0 0 1-.1359-.0132 2.1424 2.1424 0 0 1-.3086-.2788 1.9136 1.9136 0 0 0-.1506-.16c-.014-.012-.0353-.0282-.0509-.0407a.2729.2729 0 0 0-.1596-.0602.2197.2197 0 0 0-.1824.0808.2425.2425 0 0 0 .0563.3375l.0036.0025c.0149.0122.0334.0279.0472.0381a1.915 1.915 0 0 0 .1898.111c.121.0685.235.1487.3404.2393a.2544.2544 0 0 1 .0461.1321l.0733.0655a2.962 2.962 0 0 0-.4671 2.065l-.0958.0279a.3166.3166 0 0 1-.0984.0991 2.1364 2.1364 0 0 1-.4103.0676 1.9228 1.9228 0 0 0-.2197.0177c-.0175.0033-.0419.0095-.0611.0142l-.002.0005-.0032.0009a.2312.2312 0 0 0-.1587.0966.2294.2294 0 0 0-.0354.1823.23.23 0 0 0 .2958.1672l.0034-.0005c.0015-.0004.0028-.0011.0043-.0014.0189-.0043.0426-.0088.0592-.0133a1.9314 1.9314 0 0 0 .2054-.0787 2.1426 2.1426 0 0 1 .3991-.1175.254.254 0 0 1 .1316.0465l.0998-.0171a2.9787 2.9787 0 0 0 1.3201 1.6482l-.0417.0998a.2275.2275 0 0 1 .0205.1295 2.2397 2.2397 0 0 1-.2072.3723 1.9077 1.9077 0 0 0-.1228.1829c-.0091.0172-.0206.0436-.0293.0617a.2303.2303 0 0 0 .0228.2683.23.23 0 0 0 .3405.0088.2297.2297 0 0 0 .05-.081l.0004-.0004v-.0006c.0087-.0179.021-.0413.0283-.0581a1.8975 1.8975 0 0 0 .0661-.2098 1.6018 1.6018 0 0 1 .1772-.4112.1858.1858 0 0 1 .0987-.0482l.0519-.0938a2.9622 2.9622 0 0 0 2.1124.0053c.0145.026.0416.0755.0488.0881a.1804.1804 0 0 1 .1169.071 2.139 2.139 0 0 1 .1572.3849c.0181.0711.0403.1412.0664.2098.0075.0169.0195.0407.0283.0587a.2312.2312 0 0 0 .1285.1349.2298.2298 0 0 0 .2621-.0622.2307.2307 0 0 0 .0542-.1783.2302.2302 0 0 0-.0309-.0901c-.0088-.018-.0208-.0444-.0299-.0616a1.8935 1.8935 0 0 0-.1227-.1824 2.1448 2.1448 0 0 1-.203-.3634.1805.1805 0 0 1 .0176-.1351.7836.7836 0 0 1-.0381-.0924 2.9782 2.9782 0 0 0 1.3195-1.66c.0296.0048.0812.0138.098.0172a.1806.1806 0 0 1 .128-.0476c.1365.0261.2702.0654.3992.1174a1.893 1.893 0 0 0 .2054.0793c.0166.0044.0402.0085.0592.0127.0015.0004.0029.0011.0045.0015l.0032.0005a.2301.2301 0 0 0 .2957-.1672.2294.2294 0 0 0-.0354-.1822.2293.2293 0 0 0-.1584-.0967Zm-2.175-2.3316-.9783.6936-.0034-.0016a.202.202 0 0 1-.3208-.154l-.0011-.0005-.0679-1.1989a2.3788 2.3788 0 0 1 1.3715.6614Zm-1.843 1.3141h.3682l.2289.2862-.0821.3569-.3306.1591-.3316-.1594-.0822-.3571.2294-.2857Zm-.3463-1.9335a2.4568 2.4568 0 0 1 .2442-.042l-.0681 1.2007-.005.0024a.2016.2016 0 0 1-.3202.1547l-.0019.0011-.9846-.6982a2.358 2.358 0 0 1 1.1356-.6187Zm-1.4927 1.0675.899.804-.001.0049a.2024.2024 0 0 1 .0642.1972.2022.2022 0 0 1-.051.0947.2023.2023 0 0 1-.0925.0549l-.0009.0039-1.1523.3325a2.3565 2.3565 0 0 1 .3345-1.4921Zm1.2036 2.1359-.4578 1.1063a2.3697 2.3697 0 0 1-.9511-1.1904l1.1814-.2007.0021.0026a.2023.2023 0 0 1 .2058.0884.2011.2011 0 0 1 .0162.1893l.0034.0045Zm1.3515 1.4227a2.3677 2.3677 0 0 1-1.2918-.0663l.5811-1.0508h.001a.202.202 0 0 1 .3556-.0003h.0044l.5825 1.0525a2.4617 2.4617 0 0 1-.2328.0649Zm.7507-.3119-.4626-1.1176.0014-.002a.202.202 0 0 1 .0978-.2616.195.195 0 0 1 .1237-.0167l.002-.0025 1.192.2015a2.3613 2.3613 0 0 1-.9543 1.1989Zm1.0795-1.7585-1.1581-.3335-.0011-.0049a.2022.2022 0 0 1-.0792-.3469l-.0004-.0023.8939-.8001c.2738.4452.3949.9675.3449 1.4877Z"/></svg>