<svg xmlns="http://www.w3.org/2000/svg" fill="none" viewBox="0 0 12 15"><path stroke="currentColor" stroke-linecap="round" stroke-linejoin="round" d="M5.833 8.788v-4m-2 2h4m3.334.333c0 3.273-3.57 5.653-4.868 6.41-.148.086-.222.13-.326.152a.8.8 0 0 1-.28 0c-.104-.023-.177-.066-.325-.152C4.069 12.774.5 10.394.5 7.121V3.933c0-.533 0-.8.087-1.029.077-.202.202-.382.365-.526.184-.162.433-.255.932-.442L5.46.596c.138-.053.208-.079.279-.09a.7.7 0 0 1 .19 0c.072.011.141.037.28.09l3.574 1.34c.5.187.749.28.933.442.162.144.287.324.364.526.088.23.088.496.088 1.03z"/></svg>