<svg xmlns="http://www.w3.org/2000/svg" fill="none" viewBox="0 0 32 33"><path fill="currentColor" fill-rule="evenodd" d="M5.94 4.8a1 1 0 0 1 .97-.79h17.73a1 1 0 0 1 .97.76L29 18.42a.5.5 0 0 1 0 .12v1.94a.5.5 0 0 1-1 0v-1.44H4.03v4.47h16.16a.5.5 0 1 1 0 1H4.02a1 1 0 0 1-1-1v-4.97l.01-.1L5.93 4.8Zm-1.8 13.24h23.74L24.64 5.01H6.9L4.14 18.04Zm7.52-7.13 4.7 4.4 4.68-4.4a5.79 5.79 0 0 0-9.38 0Zm-1.07-.2a6.8 6.8 0 0 1 5.76-3.21 6.8 6.8 0 0 1 5.77 3.22c.13.2.1.46-.08.62l-5.34 5.02a.5.5 0 0 1-.69 0l-5.34-5.02a.5.5 0 0 1-.08-.62Zm6.26-.84a.5.5 0 0 0-1 0v1.45a.5.5 0 0 0 1 0V9.87Zm0 3.36a.5.5 0 0 0-1 0v.04a.5.5 0 0 0 1 0v-.04Z" clip-rule="evenodd"/><g clip-path="url(#a)"><path fill="#EA4335" d="M27.61 24.83h.37l1.04-1.04.06-.45a4.69 4.69 0 0 0-7.63 2.3.57.57 0 0 1 .36-.03l2.09-.34s.1-.18.16-.17a2.6 2.6 0 0 1 3.56-.27Z"/><path fill="#4285F4" d="M30.51 25.63a4.7 4.7 0 0 0-1.42-2.28l-1.46 1.46c.62.5.97 1.27.95 2.07v.26a1.3 1.3 0 1 1 0 2.6h-2.6l-.26.27v1.56l.26.26h2.6a3.39 3.39 0 0 0 1.93-6.2Z"/><path fill="#34A853" d="M23.37 31.81h2.6v-2.08h-2.6a1.3 1.3 0 0 1-.54-.12l-.37.11-1.05 1.05-.09.36c.6.45 1.31.69 2.05.68Z"/><path fill="#FBBC05" d="M23.37 25.05a3.39 3.39 0 0 0-2.05 6.07l1.51-1.51a1.3 1.3 0 1 1 1.73-1.72l1.51-1.52a3.39 3.39 0 0 0-2.7-1.32Z"/></g><defs><clipPath id="a"><path fill="#fff" d="M20 22.17h12v9.66H20z"/></clipPath></defs></svg>