<svg viewBox="0 0 16 16" fill="none" xmlns="http://www.w3.org/2000/svg">
<path d="M10.0742 7.02385L6.89703 7.02303L6.54261 7.62128L7.42639 8.13153C7.66554 8.2696 7.74748 8.5754 7.60941 8.81454C7.47132 9.05364 7.16552 9.13562 6.92639 8.99756L6.03838 8.48486L5.78545 8.92295L6.67346 9.43564C6.91261 9.57372 6.99455 9.87951 6.85648 10.1187C6.71839 10.3578 6.41259 10.4397 6.17346 10.3017L5.28545 9.78897L5.03252 10.2271L5.92054 10.7398C6.15968 10.8778 6.24162 11.1836 6.10355 11.4228C5.96547 11.6619 5.65967 11.7438 5.42054 11.6058L4.53252 11.0931L4.03594 11.9532C3.65444 12.6143 3.88068 13.4591 4.54173 13.8408C5.2028 14.2225 6.04839 13.9965 6.43019 13.3355L10.0742 7.02385ZM12.4904 5.09679C12.5602 4.97581 12.5188 4.82113 12.3978 4.75128L8.48546 2.49249C8.36448 2.42265 8.2098 2.4641 8.13995 2.58507C8.07011 2.70605 8.11156 2.86073 8.23253 2.93058L10.1887 4.05997C10.4278 4.19804 10.5098 4.50384 10.3717 4.74298C10.2336 4.98213 9.92784 5.06407 9.6887 4.926L8.49199 4.23508L7.70684 5.59501L7.70599 5.59452L7.46546 6.02285L10.6654 6.02329L11.1294 5.19623C11.2675 4.94967 11.5804 4.86348 11.8252 5.0048L12.1449 5.18937C12.2658 5.25921 12.4205 5.21777 12.4904 5.09679ZM13.3564 5.59679C13.0323 6.15807 12.3402 6.37274 11.7613 6.11357L11.396 6.76761L11.3873 6.78283L10.9663 7.47685L7.29622 13.8355C6.63827 14.9748 5.1811 15.3647 4.04173 14.7068C2.90239 14.049 2.51228 12.5926 3.16991 11.4532L5.42528 7.54677L6.17648 6.27887L6.83739 5.10093L6.83997 5.09452L6.84081 5.09501L7.62939 3.72916C7.1111 3.35849 6.94871 2.64836 7.27393 2.08507C7.61992 1.48581 8.38619 1.28048 8.98546 1.62646L12.8978 3.88525C13.4971 4.23124 13.7024 4.99752 13.3564 5.59679Z" fill="currentColor"/>
</svg>
