<svg xmlns="http://www.w3.org/2000/svg" fill="none" viewBox="0 0 34 33"><path fill="currentColor" fill-rule="evenodd" d="M11 6v2H9a1 1 0 0 0-1 1v2.5H6v1h2v2H6v1h2v2H6v1h2v2H6v1h2V23a1 1 0 0 0 1 1h2v2h1v-2h2v2h1v-2h2v2h1v-2h2v2h1v-2h2a1 1 0 0 0 1-1v-1.5h2v-1h-2v-2h2v-1h-2v-2h2v-1h-2v-2h2v-1h-2V9a1 1 0 0 0-1-1h-2V6h-1v2h-2V6h-1v2h-2V6h-1v2h-2V6h-1ZM9 9h14v14H9V9Zm3.91 6.164h.933a1.848 1.848 0 0 0-.205-.673 1.599 1.599 0 0 0-.409-.497 1.785 1.785 0 0 0-.577-.31 2.239 2.239 0 0 0-.704-.107c-.383 0-.728.088-1.035.264a1.87 1.87 0 0 0-.729.763c-.179.334-.268.738-.268 1.214 0 .475.088.879.264 1.213.178.333.42.588.725.765a2.06 2.06 0 0 0 1.043.264c.28 0 .531-.042.753-.126.223-.085.414-.2.575-.345a1.74 1.74 0 0 0 .567-1.076l-.934-.005a.904.904 0 0 1-.115.312.823.823 0 0 1-.488.375 1.15 1.15 0 0 1-.343.049c-.22 0-.414-.054-.581-.162a1.063 1.063 0 0 1-.392-.48 1.962 1.962 0 0 1-.139-.784c0-.302.046-.56.139-.771.092-.213.222-.375.39-.486.167-.112.364-.168.59-.168.125 0 .24.018.347.053a.891.891 0 0 1 .286.153c.082.067.15.148.202.243a.911.911 0 0 1 .104.322Zm3.316-1.528h-1.722V18h.923v-1.415h.775c.336 0 .621-.062.857-.185.237-.124.418-.296.543-.518.125-.221.188-.477.188-.767 0-.29-.062-.545-.186-.767a1.284 1.284 0 0 0-.532-.522c-.233-.126-.515-.19-.846-.19Zm-.8 2.21h.627c.178 0 .324-.03.44-.092a.607.607 0 0 0 .26-.258.806.806 0 0 0 .087-.38.787.787 0 0 0-.088-.38.583.583 0 0 0-.26-.254.95.95 0 0 0-.443-.091h-.622v1.455Zm6.58-2.21h-.922v2.755a.877.877 0 0 1-.11.444.777.777 0 0 1-.31.304.94.94 0 0 1-.466.111.948.948 0 0 1-.467-.11.792.792 0 0 1-.31-.306.89.89 0 0 1-.11-.443v-2.755h-.922v2.834c0 .318.075.597.226.835.15.239.361.425.633.559.271.132.588.198.95.198.36 0 .677-.066.948-.198.271-.134.482-.32.633-.559a1.52 1.52 0 0 0 .228-.835v-2.834Z" clip-rule="evenodd"/><path fill="#000" d="m22.022 31.966-.92-2.566a.403.403 0 0 1-.027-.124c0-.111.092-.217.229-.217.117 0 .195.078.229.186l.762 2.21.768-2.216c.034-.105.105-.18.223-.18h.025c.124 0 .198.078.235.18l.762 2.212.774-2.221c.031-.093.093-.177.217-.177.13 0 .223.1.223.21 0 .041-.018.088-.028.125l-.926 2.57c-.046.133-.14.204-.248.204h-.018c-.118 0-.204-.071-.248-.205l-.756-2.178-.762 2.178c-.04.134-.13.205-.244.205h-.013c-.117.01-.21-.062-.257-.195Zm6.703-2.687c0-.124.099-.23.223-.23.13 0 .23.1.23.23v.522c.222-.506.715-.745 1.043-.745.136 0 .223.1.223.23a.226.226 0 0 1-.201.23c-.586.07-1.069.511-1.069 1.386v1.03c0 .124-.093.23-.223.23s-.23-.1-.23-.23l.004-2.653Zm3.168 2.91c-.817 0-1.483-.632-1.483-1.563v-.012c0-.866.604-1.564 1.425-1.564.88 0 1.381.726 1.381 1.523a.21.21 0 0 1-.208.211H30.86c.062.652.517 1.018 1.047 1.018.369 0 .638-.146.858-.35a.198.198 0 0 1 .127-.053.19.19 0 0 1 .127.338 1.53 1.53 0 0 1-1.125.453Zm.88-1.74c-.046-.546-.356-1.024-.948-1.024-.517 0-.907.435-.966 1.024h1.914Zm-7.254.8v-.012c0-.639.527-.977 1.292-.977.387 0 .66.053.932.13v-.105c0-.546-.334-.826-.901-.826-.304 0-.48.04-.703.14a.214.214 0 0 1-.08.019.199.199 0 0 1-.2-.193c0-.093.041-.152.125-.189.297-.13.523-.174.907-.174.428 0 .756.112.976.335.204.205.31.5.31.885v1.672a.215.215 0 0 1-.217.223.206.206 0 0 1-.214-.21v-.29c-.21.277-.564.522-1.093.522-.564-.006-1.134-.329-1.134-.95Zm2.23-.235v-.292a3.122 3.122 0 0 0-.889-.13c-.566 0-.882.245-.882.627v.012c0 .382.35.605.761.605.555 0 1.01-.341 1.01-.822Zm-13.922-1.76a.426.426 0 0 0-.573-.213.421.421 0 0 0-.211.573l.96 2.092c.152.329.31.5.61.5.32 0 .459-.187.61-.5l.846-1.846c.01-.019.034-.078.12-.078.072 0 .134.059.134.137v1.787c0 .276.152.503.446.503.294 0 .452-.227.452-.503v-1.462c0-.282.202-.465.477-.465.276 0 .459.19.459.465v1.462c0 .276.151.503.446.503.294 0 .452-.227.452-.503v-1.462c0-.282.201-.465.477-.465.276 0 .458.19.458.465v1.462c0 .276.152.503.446.503.295 0 .453-.227.453-.503v-1.663c0-.612-.49-1.04-1.081-1.04-.589 0-.96.41-.96.41-.196-.258-.468-.413-.927-.413-.483 0-.907.41-.907.41a1.083 1.083 0 0 0-.809-.41c-.427.003-.768.192-.975.667l-.614 1.45-.79-1.862Z"/><path fill="#0078D6" d="m32 0-6.123.88v4.375H32V0ZM21 1.582v3.673h4.446V.943L21 1.582ZM21 9.4l4.446.647V5.68H21V9.4ZM32 11V5.68h-6.123v4.43L32 11Z"/></svg>