<svg xmlns="http://www.w3.org/2000/svg" fill="none" viewBox="0 0 33 33"><path fill="currentColor" fill-rule="evenodd" d="m19.98 7.16 3.35 3.14 3.34-3.14a4.2 4.2 0 0 0-6.69 0Zm-1.08-.2a5.22 5.22 0 0 1 8.85 0c.13.2.1.47-.08.63l-4 3.76a.5.5 0 0 1-.68 0l-4-3.76a.5.5 0 0 1-.09-.63Zm-4.57-.47a.5.5 0 0 1 .51 0l4.37 2.59a.5.5 0 1 1-.5.86L14.58 7.5 7.3 11.82l7.74 4.6 4.16-2.34 1.1-.62a.5.5 0 1 1 .5.87l-1.1.62-4.17 2.33-.06 8.26 7.35-4.34v-6.66a.5.5 0 0 1 1 0v6.95a.5.5 0 0 1-.25.43l-8.35 4.93a.5.5 0 0 1-.51 0l-8.65-5.17a.5.5 0 0 1-.24-.43v-9.43c0-.18.1-.34.24-.43l8.26-4.9Zm.15 19.05.06-8.27-7.71-4.58v8.28l7.65 4.57ZM23.83 6.4a.5.5 0 1 0-1 0v1.08a.5.5 0 0 0 1 0V6.4Zm0 2.51a.5.5 0 1 0-1 0v.03a.5.5 0 0 0 1 0v-.03Z" clip-rule="evenodd"/><path fill="#326CE5" d="M27.87 27.66a.2.2 0 0 0-.12.02.2.2 0 0 0-.1.26l.46 1.12c.44-.28.78-.7.96-1.2l-1.2-.2Zm-1.85.16a.2.2 0 0 0-.24-.16l-1.18.2c.18.5.51.91.95 1.2l.46-1.11a.2.2 0 0 0 0-.13Zm.99.43a.2.2 0 0 0-.36 0l-.58 1.05a2.37 2.37 0 0 0 1.52 0l-.58-1.05Zm1.84-2.44-.9.8a.2.2 0 0 0 .08.35l1.16.34a2.4 2.4 0 0 0-.34-1.49Zm-1.67.1a.2.2 0 0 0 .33.14l.98-.69c-.38-.36-.86-.6-1.37-.66l.06 1.2Zm-1.03.15a.2.2 0 0 0 .32-.16l.07-1.2a2.43 2.43 0 0 0-1.38.66l.99.7Zm-.53.9a.2.2 0 0 0 .08-.34l-.9-.8c-.27.44-.39.96-.33 1.48l1.15-.33Zm.88.36.33.16.33-.16.08-.36-.23-.28h-.37l-.23.28.09.36Z"/><path fill="#326CE5" d="m32.31 28.02-.94-4.1a.74.74 0 0 0-.4-.5l-3.82-1.82a.74.74 0 0 0-.64 0l-3.82 1.83a.74.74 0 0 0-.4.49l-.94 4.1a.72.72 0 0 0 .14.62l2.64 3.29.04.04a.72.72 0 0 0 .54.23h4.24a.7.7 0 0 0 .26-.05.74.74 0 0 0 .31-.22l.08-.1 2.57-3.2a.71.71 0 0 0 .14-.3.72.72 0 0 0 0-.3Zm-3.97 1.6a.8.8 0 0 0 .04.1.18.18 0 0 0-.02.13l.2.36c.05.06.1.12.13.18l.03.06a.23.23 0 0 1-.1.33.23.23 0 0 1-.31-.13l-.03-.06a1.9 1.9 0 0 1-.07-.2c-.04-.14-.1-.27-.16-.4a.18.18 0 0 0-.11-.06l-.05-.1c-.68.27-1.44.26-2.11 0l-.06.1a.19.19 0 0 0-.1.04 1.6 1.6 0 0 0-.17.42l-.07.2-.03.06a.23.23 0 0 1-.22.16.23.23 0 0 1-.2-.35l.04-.06.12-.19c.08-.11.15-.24.2-.37.01-.04 0-.09-.01-.13l.04-.1A2.98 2.98 0 0 1 24 27.96l-.1.02a.25.25 0 0 0-.13-.05c-.14.03-.27.07-.4.12l-.2.08-.07.01a.23.23 0 0 1-.3-.26.23.23 0 0 1 .2-.18l.06-.02.22-.01c.14-.01.28-.04.41-.07a.32.32 0 0 0 .1-.1l.1-.03c-.1-.72.06-1.46.46-2.06l-.07-.07c0-.05-.02-.1-.05-.13-.1-.1-.22-.17-.34-.24a1.9 1.9 0 0 1-.19-.11l-.04-.04a.24.24 0 0 1-.06-.34.22.22 0 0 1 .18-.08c.06 0 .11.02.16.06l.05.04.15.16.3.28c.05.02.1.03.14.01l.09.06a2.94 2.94 0 0 1 1.9-.92l.01-.1a.25.25 0 0 0 .08-.11c0-.14 0-.28-.03-.42a1.92 1.92 0 0 1-.03-.21v-.06a.23.23 0 0 1 .06-.19.23.23 0 0 1 .4.18v.07l-.03.21c-.03.14-.03.28-.03.42 0 .04.04.09.08.11v.1a3 3 0 0 1 1.9.92l.09-.06.14-.01c.1-.09.21-.18.3-.28l.16-.16.05-.04a.23.23 0 1 1 .28.35l-.05.04c-.06.05-.12.08-.19.12-.12.06-.23.14-.34.23a.18.18 0 0 0-.04.13l-.08.08c.4.6.57 1.34.47 2.06l.1.02c.02.05.05.08.1.1.13.04.27.06.4.07.08 0 .15 0 .23.02l.06.01a.23.23 0 0 1 .16.37.23.23 0 0 1-.26.08l-.07-.01a1.93 1.93 0 0 1-.2-.08c-.13-.06-.26-.1-.4-.12-.05 0-.1.01-.13.05l-.1-.02c-.22.7-.69 1.29-1.32 1.66Z"/><path fill="#fff" d="m32.8 28.13-1.02-4.48a.8.8 0 0 0-.43-.54l-4.18-1.99a.8.8 0 0 0-.69 0l-4.17 2a.8.8 0 0 0-.43.53l-1.03 4.48a.8.8 0 0 0 .15.67l2.89 3.59a.81.81 0 0 0 .62.3h4.63a.81.81 0 0 0 .63-.3l2.89-3.6a.8.8 0 0 0 .15-.66Zm-.49.2a.75.75 0 0 1-.14.3l-2.57 3.2-.08.1a.72.72 0 0 1-.38.25.73.73 0 0 1-.19.02h-4.24a.72.72 0 0 1-.4-.11.73.73 0 0 1-.14-.12l-.04-.04-2.64-3.3a.76.76 0 0 1-.14-.3.72.72 0 0 1 0-.3l.94-4.11a.74.74 0 0 1 .4-.5l3.82-1.82a.74.74 0 0 1 .63 0l3.83 1.83a.74.74 0 0 1 .4.49l.94 4.1c.02.1.02.21 0 .32Z"/><path fill="#fff" d="m30.66 27.7-.07-.02a1.92 1.92 0 0 0-.21-.02c-.14 0-.28-.03-.42-.07a.26.26 0 0 1-.1-.1l-.09-.02c.1-.72-.07-1.46-.47-2.06l.08-.08c0-.04.01-.09.04-.13.1-.09.22-.17.34-.23l.2-.12.04-.04a.23.23 0 0 0-.02-.4.23.23 0 0 0-.26.05 1.89 1.89 0 0 0-.2.2c-.1.1-.2.2-.31.28a.25.25 0 0 1-.14.01l-.09.06a3 3 0 0 0-1.9-.92V24a.18.18 0 0 1-.08-.11c0-.14 0-.28.03-.42l.03-.21v-.07a.23.23 0 0 0-.4-.18.23.23 0 0 0-.06.18v.07l.03.21.03.42a.25.25 0 0 1-.08.12v.1a2.98 2.98 0 0 0-1.91.91 4.28 4.28 0 0 1-.09-.06c-.04.02-.09.01-.13-.01a2.13 2.13 0 0 1-.31-.28l-.15-.16-.05-.04a.27.27 0 0 0-.16-.06.22.22 0 0 0-.18.08.24.24 0 0 0 .05.34l.05.04.2.11c.11.07.23.15.33.24.03.04.05.08.05.13l.07.07c-.4.6-.57 1.34-.46 2.06l-.1.03a.32.32 0 0 1-.1.1c-.13.03-.27.06-.4.07l-.23.01-.06.02a.23.23 0 0 0-.16.37.23.23 0 0 0 .26.08l.06-.02.2-.08.4-.12c.06 0 .1.02.14.05l.1-.02c.22.7.7 1.28 1.32 1.65l-.04.1c.02.04.02.09.02.13l-.2.37a1.9 1.9 0 0 0-.13.19l-.03.06a.23.23 0 1 0 .41.2l.03-.06.07-.21c.04-.15.1-.29.17-.42a.19.19 0 0 1 .1-.04l.05-.1c.68.26 1.44.27 2.12 0l.05.1c.04 0 .08.03.11.07.07.12.12.25.16.38l.07.21.02.06a.23.23 0 1 0 .42-.2l-.03-.06a1.9 1.9 0 0 0-.12-.18 2.14 2.14 0 0 1-.2-.36c-.02-.05-.01-.1.01-.14a.77.77 0 0 1-.04-.09c.63-.37 1.1-.96 1.32-1.66l.1.02a.18.18 0 0 1 .13-.05c.13.03.27.06.4.12l.2.08h.06v.01h.01a.23.23 0 0 0 .26-.08.23.23 0 0 0-.16-.37Zm-2.17-2.34-.98.7a.2.2 0 0 1-.33-.16l-.07-1.2c.52.07 1 .3 1.38.66Zm-1.85 1.32h.37l.23.28-.08.36-.33.16-.33-.16-.09-.36.23-.28Zm-.34-1.94.24-.04-.07 1.2a.2.2 0 0 1-.12.18.2.2 0 0 1-.2-.02l-.99-.7c.32-.3.7-.52 1.14-.62Zm-1.5 1.07.9.8v.01a.2.2 0 0 1-.08.35l-1.15.33c-.06-.52.06-1.04.33-1.49Zm1.2 2.14-.45 1.1c-.44-.28-.77-.7-.95-1.19l1.18-.2a.2.2 0 0 1 .14.03.2.2 0 0 1 .08.25Zm1.36 1.42c-.43.1-.88.07-1.3-.07l.59-1.05a.2.2 0 0 1 .28-.08.2.2 0 0 1 .08.08l.58 1.05-.23.07Zm.75-.31-.46-1.12a.2.2 0 0 1 .22-.28l1.2.2c-.18.5-.52.92-.96 1.2Zm1.08-1.76-1.16-.33a.2.2 0 0 1-.08-.36l.9-.8c.27.45.39.97.34 1.49Z"/></svg>