<svg xmlns="http://www.w3.org/2000/svg" fill="none" viewBox="0 0 33 32"><path fill="currentColor" fill-rule="evenodd" d="M17.953 2.284a.5.5 0 1 0-.616-.788l-2.102 1.641a.5.5 0 0 0 .01.796l2.102 1.562a.5.5 0 1 0 .596-.802l-.843-.627C23.017 4.618 28 9.902 28 16.004a.5.5 0 0 0 1 0C29 9.31 23.498 3.537 16.97 3.052l.983-.768ZM3.996 16.07a.5.5 0 1 0-1 0c0 6.693 5.502 12.466 12.031 12.952l-.983.768a.5.5 0 0 0 .615.788l2.103-1.642a.5.5 0 0 0-.01-.795l-2.102-1.563a.5.5 0 0 0-.597.802l.843.627c-5.917-.552-10.9-5.836-10.9-11.937Zm11.026-9.53a1 1 0 0 0-1 1v1.227l-.002.002a.044.044 0 0 1-.023.014c-.59.165-1.15.399-1.672.693a.044.044 0 0 1-.026.006h-.004l-.868-.868a1 1 0 0 0-1.414 0l-1.414 1.414a1 1 0 0 0 0 1.414l.868.868v.005c.002.006 0 .016-.005.026a7.486 7.486 0 0 0-.693 1.67.044.044 0 0 1-.014.023l-.004.003H7.525a1 1 0 0 0-1 1v2a1 1 0 0 0 1 1h1.228l.002.002a.044.044 0 0 1 .014.023c.165.59.399 1.15.694 1.671.005.01.006.02.006.026 0 .003-.001.005-.002.005l-.867.867a1 1 0 0 0 0 1.414l1.415 1.414a1 1 0 0 0 1.414 0l.867-.867h.005c.006-.002.016 0 .026.005a7.489 7.489 0 0 0 1.67.693c.011.003.019.009.023.014v.001l.002.002v1.227a1 1 0 0 0 1 1h2a1 1 0 0 0 1-1v-1.226l.003-.004a.044.044 0 0 1 .023-.014 7.486 7.486 0 0 0 1.668-.692.045.045 0 0 1 .026-.006h.003l.002.002.867.867a1 1 0 0 0 1.415 0l1.414-1.414a1 1 0 0 0 0-1.414l-.867-.867v-.004c-.001-.007 0-.017.005-.026.296-.523.53-1.084.695-1.674a.044.044 0 0 1 .014-.023.016.016 0 0 1 .004-.002h1.226a1 1 0 0 0 1-1v-2a1 1 0 0 0-1-1h-1.226l-.004-.003a.044.044 0 0 1-.014-.023 7.483 7.483 0 0 0-.693-1.67.045.045 0 0 1-.006-.026l.001-.005.868-.868a1 1 0 0 0 0-1.414l-1.414-1.414a1 1 0 0 0-1.414 0l-.868.867-.004.001c-.007.001-.016 0-.026-.006a7.487 7.487 0 0 0-1.672-.693.044.044 0 0 1-.023-.014l-.003-.004V7.539a1 1 0 0 0-1-1h-2Zm0 1h2v1.225c0 .476.331.863.757.981.511.143.997.346 1.449.601.385.218.892.178 1.23-.159l.867-.867 1.414 1.414-.868.868a1.025 1.025 0 0 0-.159 1.23c.256.451.458.936.6 1.447.12.426.506.757.982.757h1.226v2h-1.226c-.477 0-.863.33-.982.757a6.487 6.487 0 0 1-.601 1.45c-.218.385-.179.892.158 1.23l.867.866-1.414 1.414-.868-.867a1.025 1.025 0 0 0-1.229-.16 6.486 6.486 0 0 1-1.446.6 1.025 1.025 0 0 0-.757.981v1.226h-2v-1.226c0-.477-.33-.863-.757-.982a6.485 6.485 0 0 1-1.447-.6 1.025 1.025 0 0 0-1.229.16l-.867.866-1.414-1.414.867-.867c.336-.337.376-.844.158-1.23a6.481 6.481 0 0 1-.6-1.447 1.025 1.025 0 0 0-.982-.757H7.525v-2h1.226c.477 0 .863-.331.982-.757.142-.51.345-.996.6-1.448a1.025 1.025 0 0 0-.16-1.229l-.867-.868 1.414-1.414.868.867c.337.337.844.377 1.23.16a6.484 6.484 0 0 1 1.447-.601c.427-.12.757-.505.757-.982V7.539Zm-3.227 8.513c0-.992.349-1.904.931-2.62L15.293 16l-2.614 2.614a4.138 4.138 0 0 1-.884-2.56Zm1.59 3.27a4.181 4.181 0 0 0 2.597.897c.99 0 1.9-.342 2.617-.914L16 16.707l-2.615 2.615ZM16.707 16l2.594 2.594a4.137 4.137 0 0 0 .868-2.54c0-.984-.342-1.888-.915-2.601L16.707 16Zm1.832-3.247a4.18 4.18 0 0 0-2.557-.867 4.18 4.18 0 0 0-2.537.852L16 15.293l2.54-2.54Zm-2.557-1.867c-2.863 0-5.187 2.312-5.187 5.167 0 2.856 2.324 5.167 5.187 5.167 2.863 0 5.187-2.311 5.187-5.167s-2.324-5.167-5.187-5.167Z" clip-rule="evenodd"/><path fill="#F68536" d="m24.521 29.701-1.064.243V23.05l1.064.243v6.41ZM25.85 30.108l-1.328.378v-7.97l1.328.378v7.214Z"/><path fill="#F68536" d="m27.554 30.526-1.704.624v-9.297l1.704.623v8.05ZM32.11 29.722 27.554 32V21l4.556 2.279v6.443Z"/><path fill="#9D5025" d="m26.646 21.454.908-.454v11l-.908-.454V21.454ZM25.147 22.204l.703-.352v9.296l-.703-.351v-8.593ZM23.961 22.797l.56-.28v7.967l-.56-.28v-7.407ZM23.457 23.049l-.457.228v6.446l.457.229v-6.903Z"/></svg>