<svg xmlns="http://www.w3.org/2000/svg" fill="none" viewBox="0 0 33 32"><path fill="currentColor" fill-rule="evenodd" d="M23.5 12a3.5 3.5 0 1 0 0-7 3.5 3.5 0 0 0 0 7Zm2.5.242A4.5 4.5 0 1 0 19.027 8H18V6h-1v2h-2V6h-1v2h-2V6h-1v2H9a1 1 0 0 0-1 1v2.5H6v1h2v2H6v1h2v2H6v1h2v2H6v1h2V23a1 1 0 0 0 1 1h2v2h1v-2h2v2h1v-2h2v2h1v-2h2v2h1v-2h2a1 1 0 0 0 1-1v-1.5h2v-1h-2v-2h2v-1h-2v-2h2v-1h-2v-1.527a4.469 4.469 0 0 0 1.564-.473H26v-.258Zm-3 .73A4.502 4.502 0 0 1 19.027 9H9v14h14V12.973ZM23.5 6a.5.5 0 0 1 .5.5v2.581a.5.5 0 0 1-1 0V6.5a.5.5 0 0 1 .5-.5Zm0 4.018a.5.5 0 0 1 .5.5v.03a.5.5 0 1 1-1 0v-.03a.5.5 0 0 1 .5-.5ZM12.735 18v-4.364h-.922V18h.922Zm1.447.656 1.406-5.224h-.782L13.4 18.656h.782Zm5.81-1.623c.18-.334.27-.74.27-1.215 0-.476-.09-.88-.27-1.214a1.862 1.862 0 0 0-.733-.763 2.057 2.057 0 0 0-1.04-.264c-.388 0-.736.088-1.044.264a1.867 1.867 0 0 0-.73.763c-.18.333-.27.738-.27 1.214 0 .475.09.879.27 1.212.178.334.422.59.73.765.308.176.656.264 1.044.264.385 0 .732-.087 1.04-.262.31-.176.554-.43.733-.765Zm-.804-1.995c.093.212.139.472.139.78 0 .308-.046.568-.139.78-.09.212-.219.372-.385.481-.166.11-.361.165-.584.165-.223 0-.418-.055-.584-.165a1.068 1.068 0 0 1-.388-.481 1.977 1.977 0 0 1-.136-.78c0-.308.046-.568.136-.78.093-.211.222-.372.388-.481.166-.11.361-.164.584-.164.223 0 .418.054.584.164.166.11.294.27.385.481Z" clip-rule="evenodd"/><path fill="#000" d="M21.179 31.567 20.259 29a.403.403 0 0 1-.028-.124c0-.111.093-.217.23-.217.117 0 .194.078.228.186l.762 2.21.768-2.216c.034-.105.106-.18.223-.18h.025c.124 0 .199.078.236.18l.762 2.213.774-2.222c.03-.093.093-.177.217-.177.13 0 .223.1.223.211 0 .04-.019.087-.028.124l-.926 2.57c-.047.133-.14.204-.248.204h-.019c-.117 0-.204-.071-.247-.205l-.756-2.178-.762 2.178c-.04.134-.13.205-.245.205h-.012c-.118.01-.21-.062-.257-.195Zm6.702-2.688c0-.124.1-.23.223-.23.13 0 .23.1.23.23v.522c.223-.506.715-.745 1.043-.745.137 0 .223.1.223.23a.226.226 0 0 1-.2.23c-.586.07-1.07.511-1.07 1.386v1.03c0 .125-.092.23-.222.23s-.23-.1-.23-.23l.003-2.652Zm3.169 2.911c-.818 0-1.484-.633-1.484-1.564v-.012c0-.866.604-1.564 1.425-1.564.88 0 1.382.726 1.382 1.523a.21.21 0 0 1-.208.211h-2.15c.062.652.518 1.018 1.047 1.018.369 0 .638-.146.858-.35a.198.198 0 0 1 .127-.053.19.19 0 0 1 .127.338 1.53 1.53 0 0 1-1.124.453Zm.88-1.74c-.047-.547-.357-1.025-.948-1.025-.517 0-.908.435-.966 1.024h1.914Zm-7.254.8v-.013c0-.639.526-.977 1.291-.977.387 0 .66.053.933.13v-.105c0-.546-.335-.826-.902-.826-.303 0-.48.04-.703.14a.214.214 0 0 1-.08.019.199.199 0 0 1-.199-.193c0-.093.04-.152.124-.189.298-.13.524-.174.908-.174.427 0 .756.112.975.335.205.205.31.5.31.885v1.672a.215.215 0 0 1-.217.224.206.206 0 0 1-.213-.211v-.289c-.211.276-.564.521-1.094.521-.563-.006-1.133-.329-1.133-.95Zm2.23-.236v-.292a3.122 3.122 0 0 0-.89-.13c-.566 0-.882.245-.882.627v.012c0 .382.35.605.762.605.554 0 1.01-.341 1.01-.822Zm-13.923-1.76a.426.426 0 0 0-.573-.213.421.421 0 0 0-.21.574l.96 2.09c.152.33.31.5.61.5.319 0 .458-.186.61-.5 0 0 .836-1.827.846-1.845.009-.019.034-.078.12-.078.072 0 .134.06.134.137v1.787c0 .276.151.503.446.503.294 0 .452-.227.452-.503v-1.462c0-.282.201-.465.477-.465.276 0 .458.19.458.465v1.462c0 .276.152.503.446.503.294 0 .453-.227.453-.503v-1.462c0-.282.2-.465.477-.465.275 0 .458.19.458.465v1.462c0 .276.152.503.446.503.294 0 .452-.227.452-.503v-1.663c0-.611-.49-1.04-1.08-1.04-.59 0-.961.41-.961.41-.195-.258-.468-.413-.926-.413-.483 0-.908.41-.908.41a1.083 1.083 0 0 0-.808-.41c-.428.003-.768.193-.976.667l-.613 1.45-.79-1.862Z"/></svg>