<svg xmlns="http://www.w3.org/2000/svg" fill="none" viewBox="0 0 32 32"><path fill="currentColor" fill-rule="evenodd" d="M4.424 10.934c2.44-3.876 6.715-6.44 11.576-6.44 4.86 0 9.135 2.564 11.576 6.44a.502.502 0 0 0 .69.158.495.495 0 0 0 .158-.685C25.81 6.257 21.226 3.5 16 3.5c-5.226 0-9.811 2.758-12.424 6.907a.495.495 0 0 0 .159.685.502.502 0 0 0 .689-.158Zm2.995 2.627C9.224 10.8 12.391 8.967 16 8.967c3.609 0 6.776 1.833 8.58 4.594.151.23.46.295.693.146a.495.495 0 0 0 .146-.688C23.434 9.984 19.956 7.973 16 7.973c-3.956 0-7.434 2.01-9.42 5.046a.495.495 0 0 0 .148.688c.231.15.54.084.691-.146Zm8.581.376a6.042 6.042 0 0 0-5.08 2.739.502.502 0 0 1-.691.148.495.495 0 0 1-.15-.687A7.043 7.043 0 0 1 16 12.943a7.043 7.043 0 0 1 5.92 3.194c.15.23.083.538-.149.687a.502.502 0 0 1-.691-.148 6.042 6.042 0 0 0-5.08-2.74Zm-1.587 9.371a.502.502 0 0 0-.683.182.495.495 0 0 0 .183.68l1.223.7-1.223.703a.495.495 0 0 0-.183.678c.138.238.444.32.683.182l1.723-.988 1.482.85c.24.137.545.056.683-.182a.495.495 0 0 0-.183-.679l-.982-.563.982-.564a.495.495 0 0 0 .183-.679.502.502 0 0 0-.683-.181l-1.482.85-1.723-.989Zm2.849-5.881c-.94-.075-1.592.245-2.025.738a3.059 3.059 0 0 0-.562 1.003c-.779-.044-1.508.137-2.006.62-.618.598-.73 1.508-.373 2.539a.5.5 0 0 0 .473.335h6.508a.5.5 0 0 0 .487-.382c.168-.705.285-1.81.008-2.793-.141-.498-.39-.989-.809-1.371-.424-.387-.988-.632-1.701-.69Zm-1.75 2.412c.102-.363.233-.742.477-1.02.218-.247.557-.452 1.193-.401.517.04.864.21 1.105.43.247.225.417.536.522.908.173.614.15 1.333.057 1.912h-5.721c-.136-.607.013-.967.222-1.17.273-.264.81-.423 1.585-.302a.5.5 0 0 0 .56-.357Z" clip-rule="evenodd"/><path fill="#000" d="M20.772 31.567 19.852 29a.403.403 0 0 1-.027-.124c0-.111.092-.217.229-.217.117 0 .195.078.229.186l.762 2.21.768-2.216c.034-.105.105-.18.223-.18h.025c.124 0 .198.078.235.18l.762 2.213.774-2.222c.031-.093.093-.177.217-.177.13 0 .223.1.223.211 0 .04-.018.087-.028.124l-.926 2.57c-.046.133-.14.204-.248.204h-.018c-.118 0-.204-.071-.248-.205l-.756-2.178-.762 2.178c-.04.134-.13.205-.244.205h-.013c-.117.01-.21-.062-.257-.195Zm6.703-2.688c0-.124.099-.23.223-.23.13 0 .23.1.23.23v.522c.222-.506.715-.745 1.043-.745.136 0 .223.1.223.23a.226.226 0 0 1-.201.23c-.586.07-1.069.511-1.069 1.386v1.03c0 .125-.093.23-.223.23s-.23-.1-.23-.23l.004-2.652Zm3.168 2.911c-.817 0-1.483-.633-1.483-1.564v-.012c0-.866.604-1.564 1.425-1.564.88 0 1.381.726 1.381 1.523a.21.21 0 0 1-.207.211h-2.15c.062.652.517 1.018 1.047 1.018.369 0 .638-.146.858-.35a.198.198 0 0 1 .127-.053.19.19 0 0 1 .127.338 1.53 1.53 0 0 1-1.124.453Zm.88-1.74c-.046-.547-.356-1.025-.948-1.025-.517 0-.907.435-.966 1.024h1.914Zm-7.254.8v-.013c0-.639.527-.977 1.292-.977.387 0 .66.053.932.13v-.105c0-.546-.334-.826-.901-.826-.304 0-.48.04-.703.14a.214.214 0 0 1-.08.019.199.199 0 0 1-.2-.193c0-.093.041-.152.125-.189.297-.13.523-.174.907-.174.428 0 .756.112.976.335.204.205.31.5.31.885v1.672a.215.215 0 0 1-.217.224.206.206 0 0 1-.214-.211v-.289c-.21.276-.564.521-1.093.521-.564-.006-1.134-.329-1.134-.95Zm2.23-.236v-.292a3.122 3.122 0 0 0-.889-.13c-.566 0-.882.245-.882.627v.012c0 .382.35.605.761.605.555 0 1.01-.341 1.01-.822Zm-13.922-1.76a.426.426 0 0 0-.573-.213.421.421 0 0 0-.211.574l.96 2.09c.152.33.31.5.61.5.32 0 .459-.186.61-.5l.846-1.845c.01-.019.034-.078.12-.078.072 0 .134.06.134.137v1.787c0 .276.152.503.446.503.294 0 .452-.227.452-.503v-1.462c0-.282.202-.465.477-.465.276 0 .459.19.459.465v1.462c0 .276.151.503.446.503.294 0 .452-.227.452-.503v-1.462c0-.282.201-.465.477-.465.276 0 .458.19.458.465v1.462c0 .276.152.503.446.503.295 0 .453-.227.453-.503v-1.663c0-.611-.49-1.04-1.081-1.04-.589 0-.96.41-.96.41-.196-.258-.468-.413-.927-.413-.483 0-.907.41-.907.41a1.083 1.083 0 0 0-.809-.41c-.427.003-.768.193-.975.667l-.614 1.45-.79-1.862Z"/></svg>