<svg xmlns="http://www.w3.org/2000/svg" fill="none" viewBox="0 0 32 32"><path fill="currentColor" fill-rule="evenodd" d="M30.9793 7.50343c0 1.93447-1.5658 3.50267-3.4973 3.50267s-3.4974-1.5682-3.4974-3.50267c0-1.93447 1.5659-3.50267 3.4974-3.50267 1.9315 0 3.4973 1.5682 3.4973 3.50267Zm.9992 0c0 2.48717-2.0132 4.50347-4.4965 4.50347-2.4834 0-4.4966-2.0163-4.4966-4.50347C22.9854 5.01625 24.9986 3 27.482 3c2.4833 0 4.4965 2.01625 4.4965 4.50343ZM14.5092 4.07001c3.1874-.39197 6.236.50698 8.623 2.28768-.0959.36584-.1469.74984-.1469 1.14578v.01108c-2.2477-1.86547-5.2282-2.83567-8.3543-2.45124-6.02522.74093-10.3099 6.23349-9.57009 12.26789.27886 2.2746 1.23179 4.3015 2.63368 5.9046.68259-3.0355 3.07031-5.4546 6.14931-6.3507-1.1123-.7107-1.85-1.9576-1.85-3.3771 0-2.2108 1.7895-4.00305 3.9969-4.00305 2.2075 0 3.9969 1.79225 3.9969 4.00305 0 1.3047-.6232 2.4637-1.5878 3.1945 1.5202.3109 2.899.9856 4.0278 1.9248.2123.1766.2414.492.0651.7046s-.4913.2418-.7036.0652c-1.4084-1.1718-3.2625-1.8861-5.2988-1.8861-4.1135 0-7.46449 2.9064-7.93667 6.6034 2.28757 2.0927 5.44007 3.2094 8.75637 2.8016.8913-.1097 1.7439-.3231 2.5475-.6265.2582-.0975.5464.0331.6437.2917.0973.2586-.033.5473-.2912.6448-.8774.3312-1.8074.5639-2.7782.6833-3.6867.4533-7.1876-.8203-9.6938-3.1877-.03795-.0273-.07179-.0598-.10062-.0962-1.90773-1.8443-3.22005-4.3311-3.56836-7.1722C3.26206 10.8701 7.93626 4.8783 14.5092 4.07001ZM26.8802 14.648c-.1228-1.0014-.3763-1.9549-.7412-2.8453.3639.1138.7477.1827 1.1449.1999.2808.8017.4805 1.6457.5881 2.5235.1229 1.0025.1186 1.992-.0004 2.952-.034.2743-.2835.469-.5573.4349-.2739-.034-.4683-.2839-.4343-.5582.109-.8792.113-1.7863.0002-2.7068Zm.6019-9.64648c.2759.00009.4995.2241.4995.50038v2.79502l.1463-.14655c.1951-.19542.5115-.19542.7066 0 .1951.19541.1951.51223 0 .70764l-.9993 1.00076c-.0959.09609-.2243.14693-.3548.14653-.1306.0003-.259-.05075-.3548-.14699l-.9966-1.00076c-.1949-.19567-.1945-.51249.0009-.70765.1954-.19515.5117-.19474.7066.00093l.144.14464.0018-2.79357c.0002-.27628.224-.50047.4998-.50038ZM15.9908 10.5057c-1.6556 0-2.9977 1.3442-2.9977 3.0023s1.3421 3.0023 2.9977 3.0023 2.9977-1.3442 2.9977-3.0023-1.3421-3.0023-2.9977-3.0023Z" clip-rule="evenodd"/><path fill="url(#a)" fill-rule="evenodd" d="M22.2508 20.4615c0-.2549.2067-.4615.4616-.4615h3.4451c.1769 0 .3383.1011.4154.2604l4.0491 8.4508h.8626c.2549 0 .4616.2066.4616.4615v2.3451c0 .1224-.0487.2398-.1352.3263-.0866.0866-.204.1352-.3264.1352h-2.8782c-.1763 0-.3372-.1004-.4146-.2588l-4.031-8.3343h-1.4484c-.2549 0-.4616-.2066-.4616-.4615v-2.4632Zm.9231.4616v1.5401h1.275c.1763 0 .3372.1004.4147.2588l4.0309 8.3342h2.1286v-1.422h-.6904c-.1769 0-.3383-.1011-.4154-.2603l-4.0491-8.4508h-2.6943Zm.566 3.8193c.1783-.0026.3421.0976.4209.2576l1.533 3.1124c.0596.121.0633.262.0101.3859l-1.2708 3.2222c-.0728.1696-.2396.2795-.4241.2795h-3.0475c-.157 0-.3032-.0798-.3881-.2119-.085-.132-.0969-.2982-.0318-.4411l2.7852-6.3345c.074-.1623.2348-.2674.4131-.2701Zm.023 1.5388-2.0837 4.7957h2.0256l1.067-2.7473-1.0089-2.0484Z" clip-rule="evenodd"/><defs><linearGradient id="a" x1="21.9413" x2="31.6563" y1="20.5446" y2="32.2948" gradientUnits="userSpaceOnUse"><stop stop-color="#CA541A"/><stop offset="1" stop-color="#FC9502"/></linearGradient></defs></svg>