<svg xmlns="http://www.w3.org/2000/svg" fill="none" viewBox="0 0 32 33"><path fill="currentColor" fill-rule="evenodd" d="M23.04 6.5h5.92a3 3 0 0 0-5.92 0Zm5.92 1h-5.92a3 3 0 0 0 5.92 0Zm-6.08-3a4 4 0 1 1 1.62 6.2V16a.5.5 0 0 1-.5.5h-2.5V20a.5.5 0 0 1-.5.5h-2.5V23a.5.5 0 0 1-.5.5H7a.5.5 0 0 1-.5-.5V12c0-.28.22-.5.5-.5h2.5V9c0-.28.22-.5.5-.5h2.5V5c0-.28.22-.5.5-.5h9.88Zm-.59 1H13.5v10h10v-5.38a4 4 0 0 1-1.2-4.62ZM13 16.5h7.5v3h-10v-10h2V16c0 .28.22.5.5.5Zm-3.5-4h-2v10h10v-2H10a.5.5 0 0 1-.5-.5v-7.5Z" clip-rule="evenodd"/><g clip-path="url(#a)"><path fill="#0072C6" d="m26.56 22.21-3.54 3.07L20 30.7h2.72l3.84-8.49Zm.47.72-1.51 4.26 2.9 3.63-5.62.97H32l-4.97-8.86Z"/></g><defs><clipPath id="a"><path fill="#fff" d="M20 22.21h12v9.58H20z"/></clipPath></defs></svg>