<svg xmlns="http://www.w3.org/2000/svg" fill="none" viewBox="0 0 32 33"><path fill="currentColor" fill-rule="evenodd" d="M12.46 5c0-.28.23-.5.5-.5h10.93v1H13.46v10h9.93V11h1v5a.5.5 0 0 1-.5.5h-2.48V20a.5.5 0 0 1-.5.5h-2.48V23a.5.5 0 0 1-.5.5H7a.5.5 0 0 1-.5-.5V12c0-.28.22-.5.5-.5h2.48V9c0-.28.22-.5.5-.5h2.48V5Zm.5 11.5h7.45v3h-9.93v-10h1.98V16c0 .28.23.5.5.5Zm4.47 4H9.98a.5.5 0 0 1-.5-.5v-7.5H7.5v10h9.94v-2ZM24 7.64h-.78a.76.76 0 0 0-.08-.27.68.68 0 0 0-.4-.33.9.9 0 0 0-.3-.05.85.85 0 0 0-.48.14.9.9 0 0 0-.33.4c-.07.19-.11.4-.11.65 0 .26.04.48.11.66.08.17.19.3.33.4.14.08.3.13.48.13.1 0 .2-.01.28-.04a.68.68 0 0 0 .4-.31.76.76 0 0 0 .1-.26H24a1.41 1.41 0 0 1-.47.9c-.14.12-.3.21-.48.28-.18.07-.39.11-.62.11a1.56 1.56 0 0 1-1.46-.86 2.15 2.15 0 0 1-.23-1c0-.4.08-.74.23-1.02.15-.28.35-.49.6-.64A1.84 1.84 0 0 1 23 6.4c.18.06.34.15.48.26.14.11.25.25.34.42.09.16.14.35.17.56Zm1.85-1.28H24.4V10h.76V8.82h.65c.27 0 .51-.05.7-.15.2-.1.35-.25.46-.43.1-.19.15-.4.15-.64 0-.25-.05-.46-.15-.64-.1-.19-.25-.33-.44-.44-.2-.1-.43-.16-.7-.16Zm-.67 1.84h.52c.15 0 .27-.02.37-.07a.5.5 0 0 0 .21-.22c.05-.09.07-.2.07-.31a.66.66 0 0 0-.07-.32.49.49 0 0 0-.21-.21.78.78 0 0 0-.37-.08h-.52V8.2Zm5.33-1.84h-.76v2.3c0 .14-.03.26-.1.37-.06.1-.14.2-.25.25-.11.06-.24.1-.39.1a.78.78 0 0 1-.38-.1.66.66 0 0 1-.26-.25.75.75 0 0 1-.1-.37v-2.3h-.76v2.37a1.27 1.27 0 0 0 .71 1.16c.23.1.5.16.8.16.3 0 .55-.05.78-.16a1.27 1.27 0 0 0 .71-1.16V6.36Z" clip-rule="evenodd"/><g clip-path="url(#a)"><path fill="#0072C6" d="m26.56 22.21-3.54 3.07L20 30.7h2.72l3.84-8.49Zm.47.72-1.51 4.26 2.9 3.63-5.62.97H32l-4.97-8.86Z"/></g><defs><clipPath id="a"><path fill="#fff" d="M20 22.21h12v9.58H20z"/></clipPath></defs></svg>