<svg width="32" height="32" viewBox="0 0 32 32" fill="none" xmlns="http://www.w3.org/2000/svg">
<path fill-rule="evenodd" clip-rule="evenodd" d="M14.8511 7.77896C15.9929 5.04981 19.0991 3.77651 21.789 4.93496C24.4788 6.09342 25.7338 9.24495 24.5921 11.9741C24.2599 12.7681 23.7619 13.4384 23.1564 13.9616V12.1951C23.1564 11.9172 22.9344 11.6918 22.6604 11.6918C22.3864 11.6918 22.1644 11.9172 22.1644 12.1951V14.7786C22.1644 15.2512 22.5419 15.6342 23.0076 15.6342H25.554C25.8279 15.6342 26.05 15.4089 26.05 15.1309C26.05 14.853 25.8279 14.6276 25.554 14.6276H23.9129C24.5814 14.0213 25.132 13.2596 25.5053 12.3674C26.8611 9.12652 25.3708 5.38409 22.1766 4.00842C18.9824 2.63275 15.2938 4.1448 13.9379 7.38566C13.6365 8.10614 13.4757 8.85136 13.4431 9.58983H12.6462C12.1257 9.58983 11.7038 10.0179 11.7038 10.5461V11.2816C11.1749 11.4222 10.6732 11.6305 10.2081 11.8967L9.70476 11.3859C9.33668 11.0123 8.73978 11.0123 8.3717 11.3859L7.31961 12.4537C6.95168 12.8271 6.95168 13.4324 7.31961 13.8058L7.81705 14.3107C7.55086 14.7838 7.34224 15.2948 7.201 15.8338H6.49246C5.97195 15.8338 5.54999 16.2619 5.54999 16.79V18.2998C5.54999 18.8279 5.97195 19.2561 6.49246 19.2561H7.23091C7.23258 19.2579 7.23468 19.2611 7.23598 19.2658C7.38073 19.775 7.58594 20.2582 7.84314 20.7067C7.84998 20.7186 7.85172 20.7306 7.8508 20.7394C7.85 20.747 7.84777 20.7492 7.84702 20.75L7.84699 20.75L7.32086 21.2838C6.9528 21.6573 6.9528 22.2627 7.32086 22.6361L8.37311 23.7038C8.74117 24.0772 9.33791 24.0772 9.70597 23.7038L10.2488 23.153C10.2559 23.1458 10.2665 23.1395 10.283 23.1374C10.3005 23.1352 10.322 23.1383 10.3427 23.1495C10.7495 23.3694 11.1829 23.5454 11.6367 23.6715C11.66 23.678 11.6783 23.6913 11.6898 23.7058C11.7005 23.7194 11.7038 23.7316 11.7038 23.7422V24.5438C11.7038 25.0719 12.1257 25.5 12.6462 25.5H14.1343C14.6549 25.5 15.0768 25.0719 15.0768 24.5438V23.6954C15.0768 23.6851 15.0799 23.6731 15.0902 23.6597C15.1011 23.6455 15.1187 23.6323 15.1413 23.6254C15.5752 23.4923 15.9893 23.3132 16.3782 23.0938C16.399 23.082 16.4209 23.0785 16.4388 23.0806C16.4556 23.0826 16.4663 23.0889 16.4736 23.0963L17.0736 23.7051C17.4416 24.0787 18.0385 24.0787 18.4066 23.7052L19.4587 22.6374C19.8266 22.264 19.8266 21.6587 19.4587 21.2853L18.8533 20.6708C18.846 20.6635 18.8398 20.6526 18.8379 20.6356C18.8358 20.6176 18.8391 20.5955 18.8506 20.5743C19.0644 20.1803 19.2386 19.761 19.3677 19.3218C19.3745 19.2988 19.3876 19.2809 19.4016 19.2697C19.4148 19.2592 19.4267 19.2561 19.4369 19.2561H20.2887C20.8092 19.2561 21.2312 18.8279 21.2312 18.2998V16.79C21.2312 16.2619 20.8092 15.8338 20.2887 15.8338H19.4703C19.46 15.8338 19.4479 15.8305 19.4346 15.8196C19.4203 15.8081 19.4072 15.7897 19.4008 15.7661C19.277 15.3136 19.1055 14.8813 18.8923 14.4751C18.8812 14.4541 18.8782 14.4323 18.8803 14.4145C18.8824 14.3978 18.8886 14.3871 18.8957 14.3798L19.4614 13.8059C19.8294 13.4325 19.8294 12.827 19.4614 12.4536L18.4091 11.386C18.0411 11.0125 17.4443 11.0125 17.0763 11.386L16.5501 11.9198C16.5429 11.9271 16.5322 11.9334 16.5152 11.9353C16.4972 11.9372 16.4752 11.9335 16.4545 11.9214C16.0361 11.6775 15.5876 11.4808 15.1158 11.3383C15.1008 11.3338 15.0898 11.3252 15.0833 11.3168C15.0775 11.3092 15.0768 11.304 15.0768 11.301V10.5461C15.0768 10.1243 14.8077 9.7664 14.4343 9.63928C14.4614 9.01598 14.5968 8.38696 14.8511 7.77896ZM12.5966 10.5461C12.5966 10.5183 12.6188 10.4957 12.6462 10.4957H14.1343C14.1617 10.4957 14.1839 10.5183 14.1839 10.5461V11.301C14.1839 11.738 14.4803 12.0916 14.8611 12.2066C15.2657 12.3287 15.6505 12.4975 16.0097 12.7069C16.3736 12.919 16.8588 12.8878 17.1815 12.5603L17.7076 12.0265C17.727 12.0069 17.7584 12.0069 17.7778 12.0265L18.83 13.0942C18.8494 13.1138 18.8494 13.1457 18.83 13.1653L18.2644 13.7392C17.9502 14.058 17.9119 14.5346 18.1042 14.901C18.2872 15.2496 18.4343 15.6205 18.5405 16.0085C18.6522 16.4168 19.0161 16.7397 19.4703 16.7397H20.2887C20.3161 16.7397 20.3383 16.7622 20.3383 16.79V18.2998C20.3383 18.3276 20.3161 18.3502 20.2887 18.3502H19.4369C18.99 18.3502 18.6297 18.6631 18.5121 19.0628C18.4014 19.4395 18.2519 19.7992 18.0684 20.1375C17.8689 20.5052 17.904 20.9887 18.2219 21.3113L18.8273 21.9257C18.8466 21.9454 18.8466 21.9772 18.8273 21.9969L17.7752 23.0647C17.7558 23.0843 17.7244 23.0843 17.705 23.0647L17.1051 22.4558C16.7859 22.1319 16.3072 22.0972 15.9442 22.3021C15.6104 22.4905 15.255 22.6441 14.8829 22.7582C14.4905 22.8785 14.1839 23.2435 14.1839 23.6954V24.5438C14.1839 24.5716 14.1617 24.5941 14.1343 24.5941H12.6462C12.6188 24.5941 12.5966 24.5716 12.5966 24.5438V23.7422C12.5966 23.2798 12.2765 22.91 11.8726 22.7978C11.4834 22.6897 11.1116 22.5386 10.7624 22.35C10.4013 22.1548 9.93158 22.1937 9.61742 22.5125L9.07461 23.0632C9.05524 23.0829 9.02384 23.0829 9.00446 23.0632L7.95221 21.9956C7.93284 21.9759 7.93284 21.9441 7.95221 21.9244L8.47834 21.3906C8.78744 21.077 8.81772 20.6048 8.61487 20.2511C8.39405 19.866 8.21802 19.4515 8.09389 19.0147C7.98755 18.6406 7.65134 18.3502 7.23651 18.3502H6.49246C6.46506 18.3502 6.44285 18.3276 6.44285 18.2998V16.79C6.44285 16.7622 6.46506 16.7397 6.49246 16.7397H7.23651C7.63894 16.7397 7.96397 16.4537 8.05853 16.0871C8.18194 15.6087 8.36725 15.1555 8.60537 14.737C8.78971 14.4129 8.7577 13.984 8.47721 13.6993L7.95105 13.1653C7.93169 13.1457 7.93169 13.1138 7.95105 13.0942L9.00315 12.0264C9.02252 12.0067 9.05394 12.0067 9.07331 12.0264L9.59925 12.5602C9.88221 12.8473 10.3081 12.8811 10.6312 12.6947C11.0365 12.4609 11.4741 12.2786 11.9357 12.1565C12.3062 12.0584 12.5966 11.7205 12.5966 11.301V10.5461ZM10.3409 17.5449C10.3409 15.846 11.7045 14.4655 13.3906 14.4655C15.0767 14.4655 16.4404 15.846 16.4404 17.5449C16.4404 19.2438 15.0767 20.6243 13.3906 20.6243C11.7045 20.6243 10.3409 19.2438 10.3409 17.5449ZM13.3906 13.5596C11.215 13.5596 9.44803 15.3421 9.44803 17.5449C9.44803 19.7477 11.215 21.5302 13.3906 21.5302C15.5663 21.5302 17.3333 19.7477 17.3333 17.5449C17.3333 15.3421 15.5663 13.5596 13.3906 13.5596Z" fill="currentColor"/>
<path d="M24.6291 23.9603L24.4967 21.7099L25.8205 21.5114L27.1222 21.3569L27.3649 23.3867L27.2987 23.5191L29.4829 26.5637L29.858 27.1815V27.7551V28.3508L30.1889 28.6376L30.4978 29.4539L30.8067 29.8952L30.8508 30.182L30.6964 30.4688L29.7918 30.9321L29.3064 31.3513L28.6445 31.8146L28.0709 31.947L27.5855 31.6823L27.3649 31.2851L26.4383 31.0645L24.8718 31.1969L24.4967 31.6381L24.0334 31.7926L23.4819 31.6823L22.489 31.3293L21.7389 31.2631L21.2315 31.0645L21.055 30.7998L21.2315 30.182L21.1432 29.4098L21.3418 29.0789L21.8933 28.8362L22.489 28.2626L22.9082 27.7551L23.3936 25.6371L24.6291 23.9603Z" fill="white"/>
<path d="M24.7174 30.5573L25.0042 30.9324L27.3208 30.8662L27.6517 29.7631L27.7841 28.6379L27.9606 28.2628L28.2915 28.0422L28.9755 28.3511L29.2182 28.4393L29.858 28.3511L30.1889 28.6379L30.4978 29.4542L30.8067 29.8955L30.8508 30.1823L30.6964 30.4691L29.7918 30.9324L29.3064 31.3516L28.6445 31.8149L28.0709 31.9473L27.5855 31.6825L27.3649 31.2854L26.4383 31.0648L24.8718 31.1971L24.4967 31.6384L24.0334 31.7928L23.4819 31.6825L22.489 31.3295L21.7389 31.2633L21.2315 31.0648L21.055 30.8L21.2315 30.1823L21.1432 29.4101L21.3418 29.0791L21.8933 28.8364L22.489 28.2628L22.9082 27.7554L23.9231 29.4983L24.7174 30.5573Z" fill="white"/>
<path d="M24.7174 30.5573L25.0042 30.9324L27.3208 30.8662L27.6517 29.7631L27.7841 28.6379L27.9606 28.2628L28.2915 28.0422L28.9755 28.3511L29.2182 28.4393L29.858 28.3511L30.1889 28.6379L30.4978 29.4542L30.8067 29.8955L30.8508 30.1823L30.6964 30.4691L29.7918 30.9324L29.3064 31.3516L28.6445 31.8149L28.0709 31.9473L27.5855 31.6825L27.3649 31.2854L26.4383 31.0648L24.8718 31.1971L24.4967 31.6384L24.0334 31.7928L23.4819 31.6825L22.489 31.3295L21.7389 31.2633L21.2315 31.0648L21.055 30.8L21.2315 30.1823L21.1432 29.4101L21.3418 29.0791L21.8933 28.8364L22.489 28.2628L22.9082 27.7554L23.9231 29.4983L24.7174 30.5573Z" fill="#FFBB00"/>
<path d="M24.4526 23.5191V23.2323L24.8056 23.0558L25.4234 22.6145L25.644 22.5483L26.1735 22.7028L26.8795 22.9896L27.1663 23.1882L27.1222 23.5632L26.7692 23.85L26.3941 24.0486L25.9749 24.2692L25.4234 24.2913L25.1145 24.0486L24.7835 23.8059L24.4526 23.5191Z" fill="#FF9C00"/>
<path d="M27.8331 21.1021C27.8906 21.2649 27.9273 21.4275 27.9567 21.5928C28.0371 22.0454 28.0303 22.5018 28.0211 22.9578C28.0177 23.1234 28.0279 23.2873 28.0576 23.4479C28.0955 23.6534 28.1758 23.8464 28.2801 24.0289C28.4615 24.3463 28.696 24.6249 28.9255 24.9074C29.2737 25.3358 29.5882 25.7855 29.8103 26.294C29.9002 26.4999 29.974 26.7099 30.0306 26.9276C30.1029 27.2057 30.1248 27.4875 30.1059 27.7712C30.093 27.9645 30.0573 28.1564 29.9901 28.3414C30.017 28.3784 30.0599 28.3918 30.0952 28.4132C30.2564 28.5108 30.332 28.6636 30.3819 28.8351C30.4316 29.0054 30.4575 29.182 30.5254 29.3476C30.5724 29.4622 30.6695 29.538 30.7393 29.6349C30.8265 29.7558 30.9103 29.8776 30.9429 30.0253C30.9877 30.2285 30.901 30.3808 30.7453 30.5018C30.6029 30.6125 30.4393 30.687 30.2785 30.766C30.0353 30.8855 29.7921 31.0044 29.583 31.1807C29.4623 31.2824 29.3741 31.414 29.2589 31.5208C29.0347 31.7286 28.7841 31.8891 28.4837 31.9655C27.9853 32.0922 27.4979 31.8638 27.3085 31.3837C27.2844 31.3227 27.2541 31.2982 27.1845 31.3017C26.972 31.3127 26.7628 31.2788 26.5533 31.2463C26.2622 31.201 25.971 31.1887 25.6771 31.237C25.4847 31.2687 25.2933 31.3053 25.1009 31.3358C25.0369 31.346 24.9717 31.3512 24.9072 31.3603C24.87 31.3655 24.8483 31.3802 24.8308 31.4103C24.7073 31.6234 24.5242 31.7564 24.2851 31.8186C24.0468 31.8807 23.8104 31.867 23.5715 31.8213C23.3165 31.7725 23.0858 31.6638 22.8542 31.5543C22.7181 31.49 22.5732 31.4524 22.4251 31.4223C22.2512 31.3869 22.075 31.371 21.9 31.3462C21.7935 31.3312 21.6852 31.3222 21.5794 31.3025C21.3937 31.2679 21.2123 31.2181 21.0929 31.0537C21.0154 30.9469 20.9906 30.8243 21.0031 30.696C21.0179 30.5447 21.0574 30.3985 21.1106 30.2555C21.1348 30.1906 21.1358 30.1205 21.13 30.0509C21.1167 29.8914 21.0857 29.7344 21.0671 29.5755C21.0357 29.3072 21.1649 29.0544 21.4055 28.9279C21.4943 28.8812 21.5866 28.8409 21.6817 28.8154C21.8764 28.7632 22.0064 28.6382 22.114 28.4786C22.1707 28.3944 22.2301 28.3108 22.3045 28.241C22.3445 28.2036 22.3498 28.1634 22.3437 28.1148C22.3238 27.955 22.3306 27.7954 22.342 27.6352C22.3518 27.4974 22.3786 27.3625 22.4107 27.2297C22.4515 27.0612 22.5066 26.8959 22.5715 26.7346C22.6905 26.439 22.8339 26.1553 22.9978 25.8816C23.2322 25.4901 23.5002 25.1224 23.7888 24.7692C23.9794 24.5359 24.1239 24.2776 24.2267 23.9945C24.3813 23.5687 24.4041 23.1301 24.3699 22.6841C24.3462 22.3765 24.3327 22.0689 24.3528 21.7598C24.3633 21.5975 24.3836 21.4367 24.4205 21.2802C24.5416 20.7673 24.8105 20.3663 25.3209 20.1612C25.5005 20.089 25.6874 20.0507 25.8798 20.0232C26.0618 19.9972 26.2437 19.9942 26.4226 20.0085C26.953 20.0506 27.3885 20.2658 27.6672 20.7392C27.7342 20.8532 27.7901 20.9721 27.8331 21.1021ZM24.0346 26.0437C24.0172 26.0825 24.0003 26.1215 23.9824 26.1601C23.8801 26.3805 23.7782 26.601 23.7067 26.834C23.67 26.9537 23.6372 27.0741 23.6102 27.1967C23.5776 27.3448 23.5492 27.4928 23.5374 27.6441C23.5306 27.7295 23.5187 27.8144 23.5093 27.8978C23.4904 27.8998 23.4834 27.8919 23.4775 27.8839C23.3419 27.6997 23.2649 27.4903 23.2454 27.2661C23.2293 27.0814 23.2384 26.8957 23.2842 26.7112C23.3207 26.5636 23.3618 26.4186 23.418 26.2778C23.4949 26.0853 23.5989 25.9059 23.6917 25.7211C23.7081 25.6884 23.7279 25.6567 23.7385 25.6223C23.7482 25.5906 23.775 25.5635 23.7698 25.5204C23.5901 25.8022 23.4288 26.086 23.3039 26.3886C23.1859 26.6744 23.0944 26.9667 23.0967 27.2811C23.0977 27.4211 23.102 27.5602 23.1461 27.6942C23.2422 27.986 23.4303 28.2055 23.6881 28.3694C23.9532 28.538 24.2132 28.7133 24.434 28.939C24.5944 29.1029 24.7367 29.2788 24.8026 29.504C24.8718 29.7408 24.733 29.9379 24.4874 29.9513C24.468 29.9524 24.4457 29.9472 24.4321 29.973C24.4384 29.984 24.444 29.997 24.4525 30.0078C24.5493 30.1308 24.6439 30.2556 24.7302 30.3863C24.7406 30.402 24.7554 30.4115 24.7709 30.4218C25.0523 30.6086 25.3619 30.7205 25.6977 30.7487C25.9874 30.773 26.2752 30.749 26.5553 30.6632C26.7799 30.5944 26.9947 30.5028 27.1968 30.3831C27.3121 30.3149 27.4324 30.26 27.4648 30.1017C27.5041 29.9103 27.5673 29.7236 27.5819 29.527C27.5956 29.3433 27.6038 29.1595 27.6235 28.9759C27.6417 28.8055 27.6733 28.6397 27.7285 28.4792C27.7944 28.2879 27.9041 28.1232 28.0918 28.0316C28.1692 27.9938 28.1897 27.9399 28.2065 27.8666C28.235 27.7426 28.3006 27.6453 28.4281 27.5963C28.5765 27.5393 28.722 27.5674 28.8651 27.6079C29.0418 27.6579 29.2068 27.7379 29.3641 27.8323C29.4341 27.8742 29.5008 27.9216 29.5559 27.9824C29.6248 28.0582 29.6595 28.1462 29.6467 28.2501C29.6443 28.27 29.644 28.2925 29.6725 28.2974C29.6991 28.3019 29.7143 28.2884 29.7253 28.2659C29.7336 28.2489 29.7355 28.2313 29.7366 28.2129C29.7445 28.0853 29.6973 27.9791 29.6101 27.8886C29.4573 27.7301 29.2651 27.6307 29.0681 27.5414C29.009 27.5146 28.9901 27.4826 29.0041 27.4253C29.0714 27.1496 29.0327 26.8784 28.9667 26.6092C28.931 26.4635 28.876 26.3241 28.8123 26.1884C28.6643 25.8729 28.4675 25.5911 28.219 25.3454C28.2027 25.3293 28.1873 25.3101 28.1592 25.3087C28.1569 25.3541 28.1847 25.3792 28.2107 25.4045C28.2924 25.4843 28.367 25.5699 28.4339 25.6624C28.5752 25.8576 28.6845 26.0694 28.7679 26.2947C28.8221 26.4412 28.8591 26.5936 28.8703 26.7479C28.881 26.8964 28.8876 27.0478 28.8494 27.1956C28.8322 27.2622 28.8194 27.33 28.7935 27.3942C28.7854 27.4142 28.7767 27.433 28.7501 27.4265C28.6827 27.41 28.6142 27.402 28.545 27.3986C28.5158 27.3971 28.5043 27.3816 28.4985 27.3529C28.4594 27.1573 28.4062 26.9659 28.3436 26.7761C28.273 26.5623 28.1931 26.3526 28.0903 26.1529C27.847 25.6808 27.6166 25.2031 27.4304 24.7055C27.3278 24.4313 27.2232 24.1578 27.1474 23.8744C27.1299 23.8091 27.1051 23.7457 27.0821 23.6767C27.0699 23.6871 27.0616 23.6927 27.0551 23.6998C26.941 23.8233 26.8034 23.912 26.6452 23.968C26.535 24.0069 26.4321 24.0592 26.3351 24.1231C26.1549 24.2416 25.9673 24.3393 25.7446 24.3483C25.6566 24.3519 25.5699 24.347 25.484 24.3276C25.3247 24.2914 25.2014 24.1959 25.0852 24.0888C24.9924 24.0033 24.8927 23.9275 24.7798 23.8693C24.7588 23.8909 24.7563 23.9156 24.7549 23.9393C24.7446 24.1157 24.7028 24.2863 24.659 24.4564C24.5949 24.7054 24.5087 24.947 24.4142 25.1861C24.3002 25.4742 24.1721 25.7559 24.0346 26.0437ZM21.2688 30.9909C21.2985 31.0194 21.3322 31.0406 21.3716 31.0546C21.5137 31.1053 21.6611 31.1298 21.8093 31.1565C21.9752 31.1865 22.1425 31.2053 22.3088 31.2305C22.5378 31.2652 22.7567 31.3243 22.9679 31.4181C23.2184 31.5293 23.4706 31.6337 23.7466 31.6724C23.939 31.6993 24.1259 31.6884 24.3067 31.6266C24.6844 31.4974 24.8579 31.104 24.7132 30.7341C24.6336 30.5308 24.505 30.3584 24.3723 30.1881C24.2336 30.0101 24.0875 29.8375 23.9616 29.6498C23.814 29.4299 23.707 29.1879 23.5815 28.956C23.4588 28.7295 23.3225 28.5128 23.1223 28.3451C22.9027 28.1611 22.6564 28.1423 22.4391 28.3584C22.3931 28.4041 22.3548 28.4575 22.3132 28.5075C22.2106 28.6306 22.1225 28.767 21.9837 28.8566C21.8697 28.93 21.7412 28.9713 21.6174 29.0229C21.4756 29.0819 21.3413 29.1525 21.2789 29.3031C21.2294 29.4227 21.2438 29.55 21.2553 29.6752C21.2675 29.8082 21.2867 29.9407 21.294 30.0739C21.2981 30.1477 21.2933 30.2229 21.2715 30.2962C21.2248 30.4534 21.1736 30.6096 21.1856 30.7783C21.1912 30.8567 21.2114 30.9253 21.2688 30.9909ZM30.2318 28.9269C30.2145 28.8814 30.1987 28.8354 30.1797 28.7907C30.1371 28.6904 30.0841 28.5979 29.9864 28.5388C29.9239 28.501 29.8547 28.4834 29.7841 28.4746C29.6619 28.4595 29.5463 28.4759 29.4443 28.5546C29.2144 28.7321 28.9704 28.8724 28.6622 28.842C28.6158 28.8375 28.5746 28.8275 28.5362 28.8022C28.3413 28.6737 28.2451 28.4846 28.2055 28.2628C28.1922 28.1878 28.179 28.1796 28.1124 28.2182C28.0429 28.2583 27.9938 28.3164 27.9543 28.384C27.8501 28.5621 27.827 28.7632 27.7974 28.9606C27.7671 29.1626 27.756 29.3675 27.7304 29.5703C27.6914 29.8781 27.6129 30.1777 27.5312 30.4766C27.4708 30.6977 27.4214 30.9197 27.4367 31.1529C27.4493 31.3461 27.5398 31.4968 27.671 31.6268C27.884 31.838 28.1494 31.8526 28.4239 31.803C28.6416 31.7636 28.8257 31.6511 28.9932 31.5106C29.1556 31.3745 29.3084 31.2279 29.4636 31.084C29.6895 30.8748 29.9615 30.7404 30.2354 30.6082C30.3989 30.5292 30.558 30.4423 30.6931 30.3181C30.7768 30.2411 30.7981 30.1478 30.7705 30.0406C30.7511 29.9651 30.7136 29.8981 30.6731 29.832C30.6027 29.7173 30.5083 29.6196 30.4376 29.5058C30.329 29.331 30.295 29.1286 30.2318 28.9269ZM24.5713 23.3947C24.5713 23.5449 24.703 23.7359 24.8447 23.7904C24.8558 23.7946 24.87 23.7998 24.8799 23.7964C24.9444 23.774 25.008 23.7495 25.0745 23.7246C25.0601 23.6964 25.0415 23.6841 25.0246 23.6698C24.9423 23.5999 24.86 23.5301 24.779 23.4588C24.7594 23.4416 24.7317 23.4245 24.7455 23.3893C24.7693 23.3814 24.7823 23.3957 24.7959 23.4071C24.8676 23.4674 24.9388 23.5282 25.0106 23.5882C25.2517 23.79 25.5256 23.8675 25.8358 23.7983C26.0187 23.7576 26.1819 23.6696 26.3429 23.5782C26.4704 23.5058 26.5952 23.4282 26.7287 23.367C26.7572 23.3539 26.8034 23.3106 26.8236 23.3552C26.8435 23.3993 26.7816 23.403 26.7522 23.4165C26.6915 23.4445 26.6339 23.4757 26.5785 23.527C26.596 23.5294 26.6054 23.531 26.6148 23.532C26.7445 23.5451 26.8792 23.5058 27.0042 23.5703C27.0264 23.5818 27.0448 23.5658 27.055 23.5474C27.1087 23.4506 27.1336 23.3454 27.0813 23.2451C27.0248 23.137 26.9276 23.0648 26.8062 23.0403C26.7674 23.0325 26.7301 23.0257 26.6986 23.0047C26.6574 22.9773 26.6134 22.9574 26.5682 22.9388C26.476 22.9009 26.3821 22.8666 26.2965 22.8145C26.1918 22.7508 26.0828 22.6972 25.9641 22.6637C25.796 22.6164 25.6288 22.575 25.4637 22.6732C25.4554 22.6781 25.4438 22.6799 25.4341 22.6792C25.3704 22.6744 25.3183 22.7037 25.2716 22.7398C25.0642 22.9005 24.8578 23.0625 24.6525 23.2258C24.603 23.2652 24.5777 23.3208 24.5713 23.3947ZM26.9049 22.9683C26.9128 22.959 26.922 22.9505 26.9284 22.9403C27.0422 22.7605 27.0926 22.5691 27.0708 22.3529C27.0533 22.1793 27.001 22.025 26.8958 21.8889C26.8125 21.7811 26.7018 21.7042 26.5664 21.6848C26.3403 21.6523 26.1707 21.7544 26.0487 21.9372C25.9331 22.1104 25.8951 22.305 25.9076 22.5107C25.9087 22.5296 25.9101 22.5502 25.9295 22.5576C26.0009 22.5847 26.0732 22.6096 26.1447 22.6352C26.1653 22.6034 26.156 22.5743 26.1569 22.5469C26.1607 22.4333 26.1861 22.3264 26.253 22.2322C26.3666 22.0727 26.5446 22.0769 26.6442 22.2458C26.7499 22.4251 26.7447 22.6111 26.6598 22.7976C26.6493 22.8207 26.6286 22.841 26.6386 22.8747C26.7238 22.9066 26.8109 22.9393 26.9049 22.9683ZM25.4527 22.366C25.4466 22.3404 25.4399 22.315 25.4346 22.2893C25.4041 22.1399 25.3515 22.0003 25.2367 21.8938C25.078 21.7467 24.8657 21.7742 24.7406 21.9516C24.6621 22.063 24.6263 22.1906 24.6118 22.3205C24.5897 22.5181 24.6341 22.7072 24.7341 22.8807C24.8038 23.0016 24.8238 23.0032 24.9272 22.9098C24.9315 22.906 24.9339 22.9 24.9387 22.8926C24.9314 22.8813 24.9244 22.8693 24.9162 22.8582C24.7945 22.6926 24.7909 22.5132 24.8576 22.3278C24.8801 22.2655 24.9247 22.2173 24.9954 22.2137C25.0686 22.21 25.1133 22.2588 25.1503 22.3157C25.2155 22.4162 25.2355 22.528 25.2322 22.6466C25.2691 22.6444 25.2933 22.6247 25.3202 22.6113C25.4666 22.5382 25.4666 22.5382 25.4527 22.366ZM26.131 23.7527C26.0255 23.812 25.9079 23.8401 25.7858 23.8798C26.0194 23.9331 26.2257 23.8613 26.2997 23.6716C26.2451 23.6976 26.1921 23.7229 26.131 23.7527Z" fill="black"/>
<path d="M24.9159 23.8279C24.8247 23.7753 24.7615 23.7396 24.8056 23.7617C24.7127 23.6685 24.9333 23.5802 25.0262 23.6734C25.1191 23.7666 25.4141 23.8956 25.5999 23.8941C25.9087 23.8914 26.3861 23.6293 26.5706 23.519C26.8437 23.3557 26.835 23.5051 26.9898 23.4429C27.0517 23.4429 27.1384 23.4802 26.9898 23.6293C26.804 23.8157 26.7021 23.8842 26.5044 23.9602C26.2176 24.0706 26.1073 24.2691 25.666 24.2691C25.2248 24.2691 25.1586 23.9678 24.9159 23.8279Z" fill="#FF9C00"/>
<path d="M25.1586 22.835L25.3792 22.9233C25.5999 22.9233 25.9529 22.6806 25.9308 22.6806C25.9087 22.6806 25.7984 22.5703 25.5116 22.6144C25.4069 22.6305 25.2395 22.7615 25.1586 22.835Z" fill="#FF9C00"/>
</svg>
