<svg viewBox="0 0 19 19" fill="currentColor" xmlns="http://www.w3.org/2000/svg"><path fill-rule="evenodd" clip-rule="evenodd" d="M3.563 4.75c0-.656.531-1.188 1.187-1.188h1.781c.656 0 1.188.532 1.188 1.188v4.156h3.562V4.75c0-.656.532-1.188 1.188-1.188h1.781c.656 0 1.188.532 1.188 1.188v.594h1.187a1.188 1.188 0 0 1 1.188 1.187v2.375h.593a.594.594 0 1 1 0 1.188h-.593v2.375a1.187 1.187 0 0 1-1.188 1.187h-1.188v.594c0 .656-.531 1.188-1.187 1.188h-1.781a1.188 1.188 0 0 1-1.188-1.188v-4.156H7.72v4.156c0 .656-.532 1.188-1.188 1.188H4.75a1.188 1.188 0 0 1-1.188-1.188v-.594H2.375a1.187 1.187 0 0 1-1.188-1.187v-2.375H.595a.594.594 0 0 1 0-1.188h.594V6.531a1.188 1.188 0 0 1 1.187-1.187h1.188V4.75Zm0 1.781H2.375v5.938h1.188V6.53ZM4.75 4.75h1.781v9.5H4.75v-9.5Zm7.719 9.5h1.781v-9.5h-1.781v9.5Zm2.969-7.719v5.938h1.187V6.53h-1.188Z" fill="#383946"/></svg>
