<svg xmlns="http://www.w3.org/2000/svg" fill="none" viewBox="0 0 32 32"><path fill="currentColor" fill-rule="evenodd" d="M27.7189 9.4503a2.9808 2.9808 0 0 1-1.7369.5551 2.9809 2.9809 0 0 1-1.7368-.555l1.7369-1.7396 1.7368 1.7395Zm.7065-.7076L26.6887 7.003l1.7367-1.7396a2.9913 2.9913 0 0 1 .5542 1.7396 2.9922 2.9922 0 0 1-.5542 1.7396Zm-.7065-4.1868-1.7368 1.7396-1.7369-1.7397a2.9805 2.9805 0 0 1 1.7368-.555c.6474 0 1.2469.2055 1.7369.555Zm-4.1803.7076a2.992 2.992 0 0 0-.5541 1.7396c0 .6484.2052 1.2488.5542 1.7396l1.7369-1.7396-1.737-1.7396Zm6.4402 1.7396c0 2.2108-1.7894 4.003-3.9968 4.003-2.2073 0-3.9967-1.7922-3.9967-4.003C21.9853 4.7922 23.7747 3 25.982 3c2.2074 0 3.9968 1.7922 3.9968 4.003Zm-3.1387 3.9106a4.0047 4.0047 0 0 1-1.0693.087c.5859 1.1542.977 2.4322 1.1254 3.7957a11.0468 11.0468 0 0 1-.0368 2.7065.5003.5003 0 0 0 .4267.5641.4999.4999 0 0 0 .5632-.4273 12.0526 12.0526 0 0 0 .0402-2.9518c-.1464-1.3445-.509-2.6129-1.0494-3.7742Zm-4.6466-5.1895c-2.1779-1.3266-4.7934-1.971-7.5233-1.6729-6.583.719-11.3376 6.6469-10.6197 13.2403.7178 6.5934 6.6363 11.3556 13.2193 10.6366a12.004 12.004 0 0 0 2.787-.6455.5007.5007 0 0 0 .3-.6407.4995.4995 0 0 0-.6397-.3005 11.005 11.005 0 0 1-2.5556.5918c-6.0344.6591-11.4597-3.7062-12.1178-9.7502-.658-6.0439 3.7004-11.4778 9.7348-12.137 2.636-.2878 5.1558.383 7.2128 1.7338a3.99 3.99 0 0 1 .2022-1.0557Zm-6.7029 7.2835c0-.8291.671-1.5012 1.4988-1.5012h.9992a.5.5 0 0 0 .4995-.5004.4999.4999 0 0 0-.4995-.5003h-.9992c-1.3796 0-2.498 1.1201-2.498 2.5019v2.0015h-.9992a.5.5 0 0 0-.4996.5004.5.5 0 0 0 .4996.5004h.9992v2.0015c0 .8291-.671 1.5012-1.4988 1.5012a.5.5 0 0 0-.4996.5004.5.5 0 0 0 .4996.5003c1.3796 0 2.498-1.1201 2.498-2.5019V16.01h1.9984a.5.5 0 0 0 .4996-.5004.5.5 0 0 0-.4996-.5004h-1.9984v-2.0015Z" clip-rule="evenodd"/><path fill="url(#a)" fill-rule="evenodd" d="M22.2508 20.4615A.4616.4616 0 0 1 22.7124 20h3.4451a.4615.4615 0 0 1 .4154.2604l4.0491 8.4508h.8626a.4616.4616 0 0 1 .4616.4615v2.3451a.4616.4616 0 0 1-.4616.4615h-2.8782a.4614.4614 0 0 1-.4146-.2588l-4.031-8.3343h-1.4484a.4616.4616 0 0 1-.4616-.4615v-2.4632Zm.9231.4616v1.5401h1.275a.4617.4617 0 0 1 .4147.2588l4.0309 8.3342h2.1286v-1.422h-.6904a.4616.4616 0 0 1-.4154-.2603l-4.0491-8.4508h-2.6943Zm.566 3.8193a.4616.4616 0 0 1 .4209.2576l1.533 3.1124a.4614.4614 0 0 1 .0101.3859l-1.2708 3.2222A.4615.4615 0 0 1 24.009 32h-3.0475a.4614.4614 0 0 1-.4199-.653l2.7852-6.3345a.4617.4617 0 0 1 .4131-.2701Zm.023 1.5388-2.0837 4.7957h2.0256l1.067-2.7473-1.0089-2.0484Z" clip-rule="evenodd"/><defs><linearGradient id="a" x1="21.9413" x2="31.6563" y1="20.5446" y2="32.2948" gradientUnits="userSpaceOnUse"><stop stop-color="#CA541A"/><stop offset="1" stop-color="#FC9502"/></linearGradient></defs></svg>