<svg xmlns="http://www.w3.org/2000/svg" fill="none" viewBox="0 0 32 33"><path fill="currentColor" fill-rule="evenodd" d="M5.5 5.5a1 1 0 0 1 1-1h19a1 1 0 0 1 1 1v15a.5.5 0 0 1-1 0v-15h-19v19H19a.5.5 0 0 1 0 1H6.5a1 1 0 0 1-1-1v-19ZM11.87 21h-.94l1.22-3.64h1.17L14.55 21h-.94l-.24-.76H12.1l-.24.76Zm.88-2.72.4 1.29h-.83l.4-1.29h.03Zm2.2 2.72v-3.64h1.5c.27 0 .5.06.7.16.2.1.35.26.46.45.1.18.16.4.16.65s-.05.47-.16.66c-.11.19-.27.33-.47.44-.2.1-.44.15-.72.15h-.6V21h-.88Zm1.3-1.82h-.43v-1.1h.43c.14 0 .25.01.34.06.09.04.15.1.2.2.05.07.07.17.07.28a.6.6 0 0 1-.07.3.48.48 0 0 1-.2.19.71.71 0 0 1-.34.07ZM18.2 21v-3.64h1.5c.28 0 .51.06.71.16.2.1.35.26.46.45.1.18.16.4.16.65s-.05.47-.16.66c-.11.19-.27.33-.47.44-.2.1-.44.15-.72.15h-.6V21h-.88Zm1.32-1.82h-.44v-1.1h.44c.13 0 .24.01.33.06.09.04.16.1.2.2.05.07.07.17.07.28a.6.6 0 0 1-.07.3.48.48 0 0 1-.2.19.71.71 0 0 1-.33.07ZM16 10h-2.96a3 3 0 0 1 5.92 0H16Zm0 1h2.96a3 3 0 0 1-5.92 0H16Zm0-4.5a4 4 0 1 0 0 8 4 4 0 0 0 0-8Z" clip-rule="evenodd"/><g clip-path="url(#a)"><path fill="#0072C6" d="m26.56 22.21-3.54 3.07L20 30.7h2.72l3.84-8.49Zm.47.72-1.51 4.26 2.9 3.63-5.62.97H32l-4.97-8.86Z"/></g><defs><clipPath id="a"><path fill="#fff" d="M20 22.21h12v9.58H20z"/></clipPath></defs></svg>