<svg viewBox="0 0 24 24" fill="none" xmlns="http://www.w3.org/2000/svg"><path d="M13.511 10.8c.606 0 1.12.024 1.54.057 1.144.091 1.71 1.261 1.32 2.25l-.603 1.534h.963c1.073 0 1.68 1.276.949 2.117-1.21 1.393-3.394 3.795-5.685 5.785-.752.653-1.83-.035-1.665-.977l.504-2.814.103-.56-1.266-.003a1.27 1.27 0 0 1-1.231-1.586c.24-.959.69-2.586 1.352-4.313.284-.74.93-1.303 1.748-1.392.484-.053 1.14-.098 1.971-.098Zm0 1.152c-.79 0-1.406.043-1.849.092-.357.038-.668.285-.813.663a37.492 37.492 0 0 0-1.31 4.181c-.016.066.029.149.128.149.523-.002 1.224-.002 1.959.005a.565.565 0 0 1 .434.21c.106.133.15.306.119.473v.002h-.002v.004l-.003.017-.012.065-.047.25-.166.9c-.123.672-.283 1.555-.446 2.484 2.14-1.893 4.172-4.124 5.326-5.452a.123.123 0 0 0 .033-.066.126.126 0 0 0-.054-.115.133.133 0 0 0-.077-.02h-1.802a.565.565 0 0 1-.47-.254.584.584 0 0 1-.056-.537l.915-2.324a.54.54 0 0 0-.018-.463.407.407 0 0 0-.338-.21 18.372 18.372 0 0 0-1.45-.054Z" fill="#ff006a"/><path d="M1.2 11.121c0-2.441 1.372-4.335 3.44-5.21.661-2.857 3.06-4.703 6.263-4.711h.333c1.735.004 3.25.548 4.378 1.526 1.014.879 1.69 2.087 1.948 3.507 1.5.044 2.794.565 3.726 1.48.974.958 1.512 2.304 1.512 3.864 0 2.201-1.072 3.962-2.878 4.81a.563.563 0 0 1-.744-.26.544.544 0 0 1 .262-.73c1.374-.645 2.243-1.99 2.243-3.82 0-1.307-.446-2.361-1.185-3.087-.74-.725-1.813-1.164-3.145-1.164-.084 0-.167.002-.25.005a.555.555 0 0 1-.579-.489c-.152-1.384-.747-2.511-1.65-3.293-.903-.783-2.146-1.248-3.642-1.252h-.326c-2.804.007-4.77 1.632-5.227 4.108a.552.552 0 0 1-.356.416c-1.806.66-3.006 2.216-3.006 4.3 0 2.486 1.717 4.246 4.175 4.586a.55.55 0 0 1 .475.62.558.558 0 0 1-.631.467C3.374 16.386 1.2 14.2 1.2 11.121Z" fill="#ff006a"/></svg>