<svg xmlns="http://www.w3.org/2000/svg" fill="none" viewBox="0 0 32 32"><path fill="currentColor" fill-rule="evenodd" d="M16.5 2.5a.5.5 0 0 0-1 0v7.005c-1.9919.0397-3.8788.3162-5.5655.7827L8.483 4.8706a.5.5 0 0 0-.966.2588L8.9775 10.58c-.8719.2925-1.6793.6383-2.407 1.0301C4.1523 12.9122 2.5 14.7949 2.5 17s1.6522 4.0878 4.0706 5.39C9.0093 23.7031 12.344 24.5 16 24.5c3.656 0 6.9907-.7969 9.4294-2.11C27.8478 21.0878 29.5 19.2051 29.5 17s-1.6522-4.0878-4.0706-5.39c-.7184-.3868-1.5147-.7289-2.374-1.019l.9276-3.4616a.5001.5001 0 0 0-.966-.2588l-.9181 3.4264c-1.6951-.4722-3.5939-.752-5.5989-.792V2.5Zm5.3401 8.763c-1.6019-.4472-3.4124-.7178-5.3401-.7578v3.0302c1.6961.2427 3 1.7014 3 3.4646 0 .428-.077.8385-.2179 1.218.2512-.0451.4963-.0953.7346-.15l.4121-1.5382 1.4113-5.2668Zm-3.7618 7.127A2.486 2.486 0 0 0 18.5 17c0-1.3807-1.1193-2.5-2.5-2.5s-2.5 1.1193-2.5 2.5c0 .5151.1553.9927.4217 1.39A19.383 19.383 0 0 0 16 18.5001a19.383 19.383 0 0 0 2.0783-.1101Zm-5.3604-.172A3.493 3.493 0 0 1 12.5 17c0-1.7632 1.3039-3.2219 3-3.4646v-3.0302c-1.9143.0398-3.713.3069-5.3067.7485l.8779 3.2761.9503 3.5469c.2263.0514.4586.0986.6964.1413Zm-1.1473.7799a.4946.4946 0 0 1-.1441-.0357c-.4897-.1241-.9531-.2677-1.385-.4289-1.6005-.5972-2.879-1.4782-3.3503-2.6033a.5.5 0 0 1 .9223-.3864c.3067.7321 1.25 1.4828 2.7776 2.0528.1659.0619.3373.1212.5141.1776l-.8-2.9853-.8683-3.2408c-.798.2708-1.5331.5877-2.1922.9426C4.7579 13.7218 3.5 15.3391 3.5 17c0 1.6609 1.258 3.2782 3.5447 4.5095C9.311 22.7299 12.4763 23.5 16 23.5c3.5237 0 6.689-.7701 8.9553-1.9905C27.2421 20.2782 28.5 18.6609 28.5 17c0-1.6609-1.2579-3.2782-3.5447-4.5095-.65-.35-1.374-.663-2.1593-.9314l-1.4012 5.2296-.2607.9727c.1629-.0526.3212-.1077.4747-.165 1.5277-.57 2.471-1.3207 2.7777-2.0528a.4999.4999 0 0 1 .6543-.2679.4999.4999 0 0 1 .268.6543c-.4713 1.1251-1.7498 2.0061-3.3503 2.6033-.4086.1525-.8454.2893-1.3061.4087a.4985.4985 0 0 1-.2319.0581c-1.3218.3204-2.8278.5-4.4205.5-1.5963 0-3.1055-.1804-4.4294-.5022Z" clip-rule="evenodd"/><path fill="#0078D6" d="m32 21-6.1226.8808v4.3743h6.1224L32 21Zm-11 1.582v3.6731h4.4459v-4.3125L21 22.582Zm0 7.818 4.4459.6467v-4.3665H21V30.4ZM32 32v-5.3198h-6.1226v4.4294L32 32Z"/></svg>