<svg xmlns="http://www.w3.org/2000/svg" fill="none" viewBox="0 0 32 33"><path fill="currentColor" fill-rule="evenodd" d="M21.66 6.37a.5.5 0 0 1-.15-.35V5H6.91l-1.4 6.62-1.37 6.4h23.72l-1.6-6.39a.5.5 0 1 1 .98-.24l1.74 7.01a.5.5 0 0 1 .02.12v1.94a.5.5 0 0 1-1 0v-1.44H4.02v4.47h16.14a.5.5 0 1 1 0 1H4.02a1 1 0 0 1-1-1v-4.97l.01-.1 1.5-7.01 1.4-6.62a1 1 0 0 1 .98-.79h14.6V3c0-.28.23-.5.5-.5h3.15a.5.5 0 0 1 .36.15l3.86 4c.19.2.19.5 0 .7l-3.01 3a.5.5 0 0 1-.7 0l-4-3.98Zm.85-.56 3.5 3.48 2.3-2.3-3.36-3.5H22.5v2.32Zm1.5-1.31a.5.5 0 0 0 0 1 .5.5 0 0 0 0-1Zm-12.35 6.4 4.68 4.4 4.69-4.4a5.78 5.78 0 0 0-9.37 0Zm-1.08-.19a6.8 6.8 0 0 1 5.76-3.22 6.8 6.8 0 0 1 5.76 3.22c.13.2.1.47-.08.63l-5.33 5a.5.5 0 0 1-.69 0l-5.34-5a.5.5 0 0 1-.08-.63Zm6.26-.84a.5.5 0 0 0-1 0v1.44a.5.5 0 0 0 1 0V9.87Zm0 3.35a.5.5 0 0 0-1 0v.04a.5.5 0 0 0 1 0v-.04Z" clip-rule="evenodd"/><g clip-path="url(#a)"><path fill="#EA4335" d="M27.61 24.83h.37l1.04-1.04.06-.45a4.69 4.69 0 0 0-7.63 2.3.57.57 0 0 1 .36-.03l2.09-.34s.1-.18.16-.17a2.6 2.6 0 0 1 3.56-.27Z"/><path fill="#4285F4" d="M30.51 25.63a4.7 4.7 0 0 0-1.42-2.28l-1.46 1.46c.62.5.97 1.27.95 2.07v.26a1.3 1.3 0 1 1 0 2.6h-2.6l-.26.27v1.56l.26.26h2.6a3.39 3.39 0 0 0 1.93-6.2Z"/><path fill="#34A853" d="M23.37 31.81h2.6v-2.08h-2.6a1.3 1.3 0 0 1-.54-.12l-.37.11-1.05 1.05-.09.36c.6.45 1.31.69 2.05.68Z"/><path fill="#FBBC05" d="M23.37 25.05a3.39 3.39 0 0 0-2.05 6.07l1.51-1.51a1.3 1.3 0 1 1 1.73-1.72l1.51-1.52a3.39 3.39 0 0 0-2.7-1.32Z"/></g><defs><clipPath id="a"><path fill="#fff" d="M20 22.17h12v9.66H20z"/></clipPath></defs></svg>