<svg xmlns="http://www.w3.org/2000/svg" fill="none" viewBox="0 0 32 32"><path fill="currentColor" fill-rule="evenodd" d="M14.5 7.5c-.5523 0-1 .4477-1 1v2H13c-1.933 0-3.5 1.567-3.5 3.5v3.5h-1c-.5523 0-1 .4477-1 1v3c0 .5523.4477 1 1 1h15c.5523 0 1-.4477 1-1v-3c0-.5523-.4477-1-1-1h-1V14c0-1.933-1.567-3.5-3.5-3.5h-.5v-2c0-.5523-.4477-1-1-1h-3Zm4 4v2c0 .5523-.4477 1-1 1h-3c-.5523 0-1-.4477-1-1v-2H13c-1.3807 0-2.5 1.1193-2.5 2.5v3.5h11V14c0-1.3807-1.1193-2.5-2.5-2.5h-.5Zm-4-3h3v5h-3v-5Zm9 10h-15v3h15v-3Z" clip-rule="evenodd"/><g clip-path="url(#a)"><path fill="#9D5125" d="m21.5889 30.9478 2.3212-4.2765-2.3212-4.6195-.5889.2915v8.3129l.5889.2916Zm5.6372-6.7521-3.8477-.646.869-1.2235 3.8877 1.7266-.909.1429Zm.0457 4.591-4.5623.7489.9547 1.315 4.4709-1.9324-.8633-.1315Z"/><path fill="#F58534" d="M22.961 22.3662v8.2614l-1.3721.3202v-8.896l1.3721.3144Z"/><path fill="#9D5125" d="m22.961 31.6339-.7203-.3602v-9.5478l.7203-.3602 1.355 5.7116-1.355 4.5566Zm5.1741-7.5811-.9147.143v4.5795l.9147.1429.8348-2.3269-.8348-2.5385Z"/><path fill="#F58534" d="M24.3617 21.7659v9.4735l-1.4007.3945V21.3657l1.4007.4002Z"/><path fill="#F58534" d="M29.0899 29.9016V28.741l-6.1289 1.1377v1.7552l6.1289-1.7323Zm.0114-6.7921v1.1263l-6.1403-1.1663v-1.7038l6.1403 1.7438Z"/><path fill="#F58534" d="M28.1351 30.1707v-7.3353l.9834.2688v6.7978l-.9834.2687Z"/><path fill="#6B3B19" d="M31.0967 23.5156 32 25.6024l-2.6357.1258-.9319-.0629 2.6643-2.1497Z"/><path fill="#9D5125" d="M28.4324 23.9501v1.7152l2.6643-.1544v-1.9953l-2.6643.4345Z"/><path fill="#6B3B19" d="m27.1975 25.5796-1.275-.0857 2.7043-2.7214 1.3721 2.6299-2.8014.1772Z"/><path fill="#9D5125" d="M25.9225 23.4014v2.0925l2.7043-.2287v-2.4927l-2.7043.6289Zm2.5099 5.6886v-1.7152L32 27.432l-.9033 2.0868-2.6643-.4288Z"/><path fill="#9D5125" d="M25.9225 29.633v-2.0925l4.0764.0915-1.3721 2.6299-2.7043-.6289Z"/><path fill="#FCBF92" d="m27.1975 27.4549-1.275.0858 2.7043.2287 1.3721-.1372-2.8014-.1773Zm3.8992.0687L32 27.4321l-2.6357-.1201-.9319.0629 2.6643.1487Z"/><path fill="#F58534" d="M31.0967 23.5157v1.9953l.9033.0915v-1.8181l-.9033-.2687Zm-1.0977-.3316v2.2183l-1.3722-.1372v-2.4927l1.3722.4116Zm1.0977 6.3347v-1.9953L32 27.432v1.8181l-.9033.2687Zm-1.0977.3316v-2.2183l-1.3722.1372v2.4928l1.3722-.4117Z"/></g><path fill="currentColor" fill-rule="evenodd" d="M27 6.5h-2.9585C24.2795 5.0811 25.5135 4 27 4s2.7205 1.0811 2.9585 2.5H27Zm0 1h2.9585C29.7205 8.9189 28.4865 10 27 10s-2.7205-1.0811-2.9585-2.5H27ZM27 3c-2.2091 0-4 1.7909-4 4 0 2.2091 1.7909 4 4 4 2.2091 0 4-1.7909 4-4 0-2.2091-1.7909-4-4-4Z" clip-rule="evenodd"/><defs><clipPath id="a"><path fill="#fff" d="M21 21h11v11H21z"/></clipPath></defs></svg>