<svg xmlns="http://www.w3.org/2000/svg" fill="none" viewBox="0 0 33 32"><path fill="currentColor" fill-rule="evenodd" d="M11 6v2H9a1 1 0 0 0-1 1v2.5H6v1h2v2H6v1h2v2H6v1h2v2H6v1h2V23a1 1 0 0 0 1 1h2v2h1v-2h2v2h1v-2h2v2h1v-2h2v2h1v-2h2a1 1 0 0 0 1-1v-1.5h2v-1h-2v-2h2v-1h-2v-2h2v-1h-2v-2h2v-1h-2V9a1 1 0 0 0-1-1h-2V6h-1v2h-2V6h-1v2h-2V6h-1v2h-2V6h-1ZM9 9h14v14H9V9Zm1.983 5.364h-.948V18h.746v-2.376h.03l.941 2.358h.508l.94-2.349h.031V18h.746v-3.636h-.948l-1.002 2.443h-.042l-1.002-2.443Zm3.802 0V18h2.458v-.634h-1.689v-.868h1.556v-.634h-1.556v-.867h1.682v-.633h-2.45Zm4.185 0h-.948V18h.746v-2.376h.03l.94 2.358h.509l.94-2.349h.03V18h.747v-3.636h-.949l-1.001 2.443h-.043l-1.001-2.443Z" clip-rule="evenodd"/><path fill="#F68536" d="m24.521 29.701-1.064.243v-6.895l1.064.243v6.409ZM25.85 30.108l-1.328.377v-7.969l1.328.377v7.215Z"/><path fill="#F68536" d="m27.554 30.526-1.704.624v-9.298l1.704.624v8.05ZM32.11 29.722 27.554 32V21l4.556 2.278v6.444Z"/><path fill="#9D5025" d="m26.646 21.454.908-.454v11l-.908-.454V21.454ZM25.147 22.204l.703-.352v9.296l-.703-.352v-8.592ZM23.961 22.796l.56-.28v7.968l-.56-.28v-7.408ZM23.457 23.049l-.457.228v6.446l.457.228V23.05Z"/></svg>