<svg width="24" height="24" viewBox="0 0 24 24" fill="none" xmlns="http://www.w3.org/2000/svg">
<path opacity="0.2" d="M19.9771 16.17C19.2499 17.561 18.1717 18.7376 16.8493 19.583C15.5269 20.4285 14.0064 20.9134 12.4387 20.9897L12.7359 19.4484C12.758 19.3327 12.7525 19.2135 12.72 19.1003C12.6874 18.9871 12.6286 18.8831 12.5484 18.7969L10.6977 16.8909C10.598 16.7833 10.532 16.6487 10.508 16.5039C10.484 16.359 10.5031 16.2104 10.5627 16.0763L11.8471 13.1944C11.9131 13.0463 12.0254 12.9236 12.167 12.8447C12.3087 12.7657 12.4721 12.7348 12.6327 12.7566L14.7721 13.0453C14.8757 13.0595 14.9753 13.0949 15.0646 13.1494L19.9771 16.17ZM10.9415 8.90626L12.0937 8.27251C12.1445 8.24501 12.1918 8.21132 12.2343 8.1722L14.7571 5.89126C14.8827 5.77705 14.9658 5.62363 14.9929 5.45606C15.02 5.2885 14.9894 5.1167 14.9062 4.96876L13.9218 3.20532C13.2903 3.06854 12.646 2.99971 11.9999 3.00001C9.94558 2.99688 7.9525 3.69952 6.35431 4.99032L5.24993 7.60126C5.17534 7.77801 5.17131 7.97663 5.23869 8.15626L6.31681 11.0316C6.36111 11.1491 6.43419 11.2535 6.52936 11.3354C6.62452 11.4173 6.73873 11.474 6.8615 11.5003L7.11368 11.5547L8.36243 9.37501C8.42835 9.26083 8.52321 9.16605 8.63743 9.10021C8.75166 9.03438 8.88122 8.99982 9.01306 9.00001H10.5796C10.7063 9.00022 10.8309 8.96794 10.9415 8.90626Z" fill="currentColor"/>
<path d="M12 2.25C10.0716 2.25 8.18657 2.82183 6.58319 3.89317C4.97982 4.96451 3.73013 6.48726 2.99218 8.26884C2.25422 10.0504 2.06114 12.0108 2.43735 13.9021C2.81355 15.7934 3.74215 17.5307 5.10571 18.8943C6.46928 20.2579 8.20656 21.1865 10.0979 21.5627C11.9892 21.9389 13.9496 21.7458 15.7312 21.0078C17.5127 20.2699 19.0355 19.0202 20.1068 17.4168C21.1782 15.8134 21.75 13.9284 21.75 12C21.7473 9.41498 20.7192 6.93661 18.8913 5.10872C17.0634 3.28084 14.585 2.25273 12 2.25ZM20.25 12C20.2508 13.0584 20.0471 14.107 19.65 15.0881L15.4594 12.5109C15.2812 12.401 15.0819 12.3298 14.8744 12.3019L12.735 12.0131C12.4402 11.9747 12.1406 12.0241 11.8738 12.1552C11.607 12.2863 11.3848 12.4932 11.235 12.75H10.4175L10.0613 12.0131C9.96277 11.8079 9.81863 11.628 9.63988 11.4871C9.46114 11.3462 9.25252 11.2481 9.03 11.2003L8.28 11.0381L9.01313 9.75H10.5797C10.8332 9.7495 11.0825 9.68501 11.3044 9.5625L12.4528 8.92875C12.5537 8.87251 12.648 8.80522 12.7341 8.72812L15.2569 6.44625C15.5098 6.21957 15.6779 5.91345 15.7335 5.57838C15.7891 5.24331 15.7287 4.89931 15.5625 4.60312L15.5288 4.54219C16.9404 5.21156 18.1333 6.26756 18.969 7.58761C19.8047 8.90767 20.2489 10.4377 20.25 12ZM13.4353 3.87563L14.25 5.33438L11.7272 7.61625L10.5797 8.25H9.01313C8.74945 8.24961 8.49033 8.31874 8.26188 8.45041C8.03342 8.58208 7.84372 8.77165 7.71188 9L6.89344 10.4278L5.94188 7.89281L6.9675 5.4675C7.87532 4.76606 8.91965 4.26197 10.0336 3.98752C11.1475 3.71307 12.3065 3.67432 13.4363 3.87375L13.4353 3.87563ZM3.75 12C3.74875 10.7738 4.02233 9.56284 4.55063 8.45625L5.61375 11.2941C5.70235 11.529 5.84852 11.738 6.03885 11.9018C6.22918 12.0656 6.45759 12.179 6.70313 12.2316L8.71219 12.6637L9.06938 13.4062C9.19334 13.6588 9.38545 13.8716 9.62401 14.0207C9.86256 14.1698 10.1381 14.2492 10.4194 14.25H10.5581L9.88032 15.7716C9.76089 16.0395 9.72264 16.3365 9.77029 16.626C9.81795 16.9154 9.94942 17.1845 10.1484 17.4L10.1616 17.4131L12 19.3069L11.8181 20.2444C9.66359 20.1942 7.61396 19.3041 6.10662 17.7638C4.59927 16.2235 3.75358 14.1551 3.75 12ZM13.3669 20.1356L13.4728 19.5909C13.5164 19.3595 13.5051 19.1211 13.44 18.8949C13.3749 18.6686 13.2577 18.4607 13.0978 18.2878C13.0932 18.2837 13.0888 18.2793 13.0847 18.2747L11.25 16.3819L12.5344 13.5L14.6738 13.7887L18.96 16.425C18.339 17.4002 17.5204 18.2343 16.557 18.8735C15.5936 19.5127 14.5068 19.9426 13.3669 20.1356Z" fill="currentColor"/>
</svg>
