<svg xmlns="http://www.w3.org/2000/svg" fill="none" viewBox="0 0 16 16">
  <path stroke="currentColor" stroke-linecap="round" stroke-linejoin="round" stroke-width=".8" d="M8 12.6667c.61284 0 1.21967-.1207 1.78586-.3553.56614-.2345 1.08064-.5782 1.51394-1.0116.4334-.4333.7771-.9478 1.0116-1.51394.2346-.56619.3553-1.17302.3553-1.78586M8 12.6667c-1.23768 0-2.42466-.4917-3.29983-1.3669C3.825 10.4247 3.33333 9.23768 3.33333 8M8 12.6667V14m4.6667-6c0-.61284-.1207-1.21967-.3553-1.78586-.2345-.56618-.5782-1.08063-1.0116-1.51397-.4333-.43334-.9478-.77709-1.51394-1.01161C9.21967 3.45404 8.61284 3.33333 8 3.33333M12.6667 8H14M8 3.33333c-1.23768 0-2.42466.49167-3.29983 1.36684C3.825 5.57534 3.33333 6.76232 3.33333 8M8 3.33333V2M3.33333 8H2"/>
</svg>
