<svg xmlns="http://www.w3.org/2000/svg" fill="none" viewBox="0 0 33 32"><path fill="currentColor" fill-rule="evenodd" d="M11 6v2H9a1 1 0 0 0-1 1v2.5H6v1h2v2H6v1h2v2H6v1h2v2H6v1h2V23a1 1 0 0 0 1 1h2v2h1v-2h2v2h1v-2h2v2h1v-2h2v2h1v-2h2a1 1 0 0 0 1-1v-1.5h2v-1h-2v-2h2v-1h-2v-2h2v-1h-2v-2h2v-1h-2V9a1 1 0 0 0-1-1h-2V6h-1v2h-2V6h-1v2h-2V6h-1v2h-2V6h-1ZM9 9h14v14H9V9Zm3.9 6.16h.94c-.03-.25-.1-.47-.2-.67a1.6 1.6 0 0 0-.41-.5 1.78 1.78 0 0 0-.58-.3 2.24 2.24 0 0 0-1.74.15c-.3.18-.55.43-.73.76-.17.34-.26.74-.26 1.22 0 .47.08.88.26 1.21.18.33.42.59.72.77.31.17.66.26 1.05.26.28 0 .53-.04.75-.13a1.81 1.81 0 0 0 .96-.84c.1-.18.16-.38.18-.58h-.93a.9.9 0 0 1-.32.54.9.9 0 0 1-.28.14 1.15 1.15 0 0 1-.93-.1c-.17-.12-.3-.28-.39-.49-.1-.2-.14-.47-.14-.78 0-.3.05-.56.14-.77.1-.22.22-.38.39-.49.17-.11.36-.17.59-.17.12 0 .24.02.35.06a.82.82 0 0 1 .49.4c.05.09.08.2.1.31Zm3.33-1.52H14.5V18h.93v-1.41h.77c.34 0 .62-.07.86-.19s.42-.3.54-.52c.13-.22.19-.48.19-.76 0-.3-.06-.55-.19-.77-.12-.22-.3-.4-.53-.52a1.75 1.75 0 0 0-.84-.2Zm-.8 2.2h.62c.18 0 .33-.02.44-.09a.6.6 0 0 0 .26-.25.8.8 0 0 0 .09-.38.79.79 0 0 0-.09-.38.58.58 0 0 0-.26-.26.95.95 0 0 0-.44-.09h-.62v1.46Zm6.58-2.2h-.93v2.75a.78.78 0 0 1-.42.75.94.94 0 0 1-.46.11.95.95 0 0 1-.47-.11.8.8 0 0 1-.31-.3.89.89 0 0 1-.1-.45v-2.75h-.93v2.83c0 .32.07.6.22.84.16.23.37.42.64.55.27.14.59.2.95.2s.67-.06.95-.2c.27-.13.48-.32.63-.55.15-.24.23-.52.23-.84v-2.83Z" clip-rule="evenodd"/><path fill="#F68536" d="m24.52 29.7-1.06.24v-6.9l1.06.25v6.41ZM25.85 30.1l-1.33.39v-7.97l1.33.37v7.22ZM27.55 30.53l-1.7.62v-9.3l1.7.63v8.05ZM32.11 29.72 27.55 32V21l4.56 2.28v6.44Z"/><path fill="#9D5025" d="m26.65 21.45.9-.45v11l-.9-.45v-10.1ZM25.15 22.2l.7-.35v9.3l-.7-.35v-8.6ZM23.96 22.8l.56-.28v7.96l-.56-.28v-7.4ZM23.46 23.05l-.46.23v6.44l.46.23v-6.9Z"/></svg>