<svg xmlns="http://www.w3.org/2000/svg" fill="none" viewBox="0 0 32 32"><path fill="currentColor" fill-rule="evenodd" d="M9.5 9.556c0-3.893 3.134-7.049 7-7.049s7 3.156 7 7.049c0 3.893-3.134 7.049-7 7.049s-7-3.156-7-7.049Zm7-8.056c-4.418 0-8 3.607-8 8.056 0 4.45 3.582 8.056 8 8.056s8-3.607 8-8.056c0-4.45-3.582-8.056-8-8.056Zm-3 4.531v.704a4.521 4.521 0 0 1 1.475-.924c.758-.283 1.459-.283 2.004-.283H17c2.485 0 4.5 2.029 4.5 4.532 0 2.502-2.015 4.53-4.5 4.53s-4.5-2.028-4.5-4.53h1c0 1.946 1.567 3.524 3.5 3.524s3.5-1.578 3.5-3.524c0-1.947-1.567-3.525-3.5-3.525-.556 0-1.097.004-1.678.22-.373.14-.781.375-1.216.787H15c.276 0 .5.225.5.503a.502.502 0 0 1-.5.504h-2a.502.502 0 0 1-.5-.504V6.031c0-.278.224-.503.5-.503s.5.225.5.503ZM4 15.598c-.276 0-.5.225-.5.503v5.203a.505.505 0 0 0 .5.504h11.5v2.685H4c-.276 0-.5.225-.5.504 0 .278.224.503.5.503h24c.276 0 .5-.225.5-.503a.502.502 0 0 0-.5-.504H16.5v-2.685H28c.276 0 .5-.226.5-.504v-5.203a.502.502 0 0 0-.5-.503h-4.5c-.276 0-.5.225-.5.503 0 .279.224.504.5.504h4V20.8h-23v-4.196h5c.276 0 .5-.226.5-.504a.502.502 0 0 0-.5-.503H4Zm3.904 3.525a.759.759 0 0 0-.056-1.067.746.746 0 0 0-1.059.056l-.013.015a.759.759 0 0 0 .056 1.067.746.746 0 0 0 1.059-.056l.013-.015Zm3.944-1.067a.759.759 0 0 1 .056 1.067l-.013.015a.746.746 0 0 1-1.06.056.759.759 0 0 1-.055-1.067l.013-.015a.746.746 0 0 1 1.06-.056Z" clip-rule="evenodd"/><path fill="#000" d="M20.772 31.567 19.852 29a.403.403 0 0 1-.027-.124c0-.111.092-.217.229-.217.117 0 .195.078.229.186l.762 2.21.768-2.216c.034-.105.105-.18.223-.18h.025c.124 0 .198.078.235.18l.762 2.213.774-2.222c.031-.093.093-.177.217-.177.13 0 .223.1.223.211 0 .04-.018.087-.028.124l-.926 2.57c-.046.133-.14.204-.248.204h-.018c-.118 0-.204-.071-.248-.205l-.756-2.178-.762 2.178c-.04.134-.13.205-.244.205h-.013c-.117.01-.21-.062-.257-.195Zm6.703-2.688c0-.124.099-.23.223-.23.13 0 .23.1.23.23v.522c.222-.506.715-.745 1.043-.745.136 0 .223.1.223.23a.226.226 0 0 1-.201.23c-.586.07-1.069.511-1.069 1.386v1.03c0 .125-.093.23-.223.23s-.23-.1-.23-.23l.004-2.652Zm3.168 2.911c-.817 0-1.483-.633-1.483-1.564v-.012c0-.866.604-1.564 1.425-1.564.88 0 1.381.726 1.381 1.523a.21.21 0 0 1-.207.211h-2.15c.062.652.517 1.018 1.047 1.018.369 0 .638-.146.858-.35a.198.198 0 0 1 .127-.053.19.19 0 0 1 .127.338 1.53 1.53 0 0 1-1.124.453Zm.88-1.74c-.046-.547-.356-1.025-.948-1.025-.517 0-.907.435-.966 1.024h1.914Zm-7.254.8v-.013c0-.639.527-.977 1.292-.977.387 0 .66.053.932.13v-.105c0-.546-.334-.826-.901-.826-.304 0-.48.04-.703.14a.214.214 0 0 1-.08.019.199.199 0 0 1-.2-.193c0-.093.041-.152.125-.189.297-.13.523-.174.907-.174.428 0 .756.112.976.335.204.205.31.5.31.885v1.672a.215.215 0 0 1-.217.224.206.206 0 0 1-.214-.211v-.289c-.21.276-.564.521-1.093.521-.564-.006-1.134-.329-1.134-.95Zm2.23-.236v-.292a3.122 3.122 0 0 0-.889-.13c-.566 0-.882.245-.882.627v.012c0 .382.35.605.761.605.555 0 1.01-.341 1.01-.822Zm-13.922-1.76a.426.426 0 0 0-.573-.213.421.421 0 0 0-.211.574l.96 2.09c.152.33.31.5.61.5.32 0 .459-.186.61-.5l.846-1.845c.01-.019.034-.078.12-.078.072 0 .134.06.134.137v1.787c0 .276.152.503.446.503.294 0 .452-.227.452-.503v-1.462c0-.282.202-.465.477-.465.276 0 .459.19.459.465v1.462c0 .276.151.503.446.503.294 0 .452-.227.452-.503v-1.462c0-.282.201-.465.477-.465.276 0 .458.19.458.465v1.462c0 .276.152.503.446.503.295 0 .453-.227.453-.503v-1.663c0-.611-.49-1.04-1.081-1.04-.589 0-.96.41-.96.41-.196-.258-.468-.413-.927-.413-.483 0-.907.41-.907.41a1.083 1.083 0 0 0-.809-.41c-.427.003-.768.193-.975.667l-.614 1.45-.79-1.862Z"/></svg>