<svg xmlns="http://www.w3.org/2000/svg" fill="none" viewBox="0 0 33 32"><path fill="currentColor" fill-rule="evenodd" d="M11 6v2H9a1 1 0 0 0-1 1v2.5H6v1h2v2H6v1h2v2H6v1h2v2H6v1h2V23a1 1 0 0 0 1 1h2v2h1v-2h2v2h1v-2h2v2h1v-2h2v2h1v-2h2a1 1 0 0 0 1-1v-1.5h2v-1h-2v-2h2v-1h-2v-2h2v-1h-2v-2h2v-1h-2V9a1 1 0 0 0-1-1h-2V6h-1v2h-2V6h-1v2h-2V6h-1v2h-2V6h-1ZM9 9h14v14H9V9Zm1.629 10v2.91h.79v-1.137h1.045v1.136h.79V19h-.79v1.136H11.42V19h-.79Zm2.92 0v.636h.875v2.273h.779v-2.273h.875V19h-2.529Zm2.747 0v.636h.875v2.273h.778v-2.273h.875V19h-2.529Zm2.825 0v2.91h.79v-.864h.437c.222 0 .416-.042.581-.124a.914.914 0 0 0 .388-.352 1.02 1.02 0 0 0 .14-.542c0-.206-.046-.386-.136-.54a.929.929 0 0 0-.378-.36 1.2 1.2 0 0 0-.566-.128H19.12Zm.79 1.432h.278a.532.532 0 0 0 .238-.048.353.353 0 0 0 .151-.141.412.412 0 0 0 .055-.215.4.4 0 0 0-.055-.213.339.339 0 0 0-.151-.136.532.532 0 0 0-.238-.048h-.278v.8ZM15.897 10c1.37 0 2.573.725 3.268 1.82v-.383c0-.237.187-.428.417-.428.231 0 .418.191.418.428v1.322a.435.435 0 0 1-.122.303.412.412 0 0 1-.296.125h-1.29a.423.423 0 0 1-.417-.428c0-.237.187-.429.417-.429h.199a3.043 3.043 0 0 0-2.594-1.473c-1.333 0-2.467.874-2.888 2.095-.112.327-.174.68-.174 1.048H12c0-.467.078-.916.222-1.334C12.757 11.113 14.2 10 15.897 10ZM12 16.629c0 .237.187.428.418.428.23 0 .417-.191.417-.428v-.154c.095.124.198.242.306.353A3.836 3.836 0 0 0 15.897 18c1.676 0 3.103-1.086 3.654-2.608.157-.434.242-.903.242-1.392h-.835c0 .385-.067.754-.19 1.094-.433 1.197-1.556 2.049-2.871 2.049-.846 0-1.61-.352-2.165-.92a3.144 3.144 0 0 1-.388-.487h.364c.23 0 .417-.192.417-.429a.423.423 0 0 0-.417-.428h-1.29a.412.412 0 0 0-.296.125.435.435 0 0 0-.122.303v1.322Z" clip-rule="evenodd"/><path fill="#000" d="M21.179 31.567 20.259 29a.403.403 0 0 1-.028-.124c0-.111.093-.217.23-.217.117 0 .194.078.228.186l.762 2.21.768-2.216c.034-.105.106-.18.223-.18h.025c.124 0 .199.078.236.18l.762 2.213.774-2.222c.03-.093.093-.177.217-.177.13 0 .223.1.223.211 0 .04-.019.087-.028.124l-.926 2.57c-.047.133-.14.204-.248.204h-.019c-.117 0-.204-.071-.247-.205l-.756-2.178-.762 2.178c-.04.134-.13.205-.245.205h-.012c-.118.01-.21-.062-.257-.195Zm6.702-2.688c0-.124.1-.23.223-.23.13 0 .23.1.23.23v.522c.223-.506.715-.745 1.043-.745.137 0 .223.1.223.23a.226.226 0 0 1-.2.23c-.586.07-1.07.511-1.07 1.386v1.03c0 .125-.092.23-.222.23s-.23-.1-.23-.23l.003-2.652Zm3.169 2.911c-.818 0-1.484-.633-1.484-1.564v-.012c0-.866.604-1.564 1.425-1.564.88 0 1.382.726 1.382 1.523a.21.21 0 0 1-.208.211h-2.15c.062.652.518 1.018 1.047 1.018.369 0 .638-.146.858-.35a.198.198 0 0 1 .127-.053.19.19 0 0 1 .127.338 1.53 1.53 0 0 1-1.124.453Zm.88-1.74c-.047-.547-.357-1.025-.948-1.025-.517 0-.908.435-.966 1.024h1.914Zm-7.254.8v-.013c0-.639.526-.977 1.291-.977.387 0 .66.053.933.13v-.105c0-.546-.335-.826-.902-.826-.303 0-.48.04-.703.14a.214.214 0 0 1-.08.019.199.199 0 0 1-.199-.193c0-.093.04-.152.124-.189.298-.13.524-.174.908-.174.427 0 .756.112.975.335.205.205.31.5.31.885v1.672a.215.215 0 0 1-.217.224.206.206 0 0 1-.213-.211v-.289c-.211.276-.564.521-1.094.521-.563-.006-1.133-.329-1.133-.95Zm2.23-.236v-.292a3.122 3.122 0 0 0-.89-.13c-.566 0-.882.245-.882.627v.012c0 .382.35.605.762.605.554 0 1.01-.341 1.01-.822Zm-13.923-1.76a.426.426 0 0 0-.573-.213.421.421 0 0 0-.21.574l.96 2.09c.152.33.31.5.61.5.319 0 .458-.186.61-.5 0 0 .836-1.827.846-1.845.009-.019.034-.078.12-.078.072 0 .134.06.134.137v1.787c0 .276.151.503.446.503.294 0 .452-.227.452-.503v-1.462c0-.282.201-.465.477-.465.276 0 .458.19.458.465v1.462c0 .276.152.503.446.503.294 0 .453-.227.453-.503v-1.462c0-.282.2-.465.477-.465.275 0 .458.19.458.465v1.462c0 .276.152.503.446.503.294 0 .452-.227.452-.503v-1.663c0-.611-.49-1.04-1.08-1.04-.59 0-.961.41-.961.41-.195-.258-.468-.413-.926-.413-.483 0-.908.41-.908.41a1.083 1.083 0 0 0-.808-.41c-.428.003-.768.193-.976.667l-.613 1.45-.79-1.862Z"/></svg>