<svg xmlns="http://www.w3.org/2000/svg" fill="none" viewBox="0 0 34 34">
  <circle cx="17" cy="17" r="17" fill="#00ADE4"/>
  <path fill="#FCFEFF" fill-rule="evenodd" d="M17.1465 14.7352v-.5514c0-.1015-.0823-.1838-.1838-.1838h-1.1029c-.1015 0-.1838.0823-.1838.1838v1.2368c0 .0838-.0569.1565-.137.1813-.1732.0537-.3395.123-.4973.2062-.0742.0391-.1659.0281-.2252-.0313l-.4848-.4848-.3899-.3899c-.0718-.0717-.1882-.0717-.26 0l-.7798.7798c-.0717.0718-.0717.1882 0 .26l.3899.3899.4849.4848c.0593.0593.0704.151.0313.2252-.0832.1578-.1525.3241-.2062.4972-.0248.0801-.0975.137-.1813.137h-1.2368c-.1015 0-.1838.0823-.1838.1838v1.1029c0 .1015.0823.1838.1838.1838h1.2368c.0838 0 .1565.0569.1813.137.0537.1732.123.3395.2062.4973.0391.0742.0281.1659-.0313.2252l-.4847.4847-.3899.3899c-.0718.0718-.0718.1882 0 .26l.7798.7798c.0718.0718.1882.0718.2599 0l.3899-.3899.4848-.4848c.0593-.0593.151-.0704.2252-.0313.1578.0832.3241.1525.4972.2062.0801.0248.137.0975.137.1813v1.2368c0 .1015.0823.1838.1838.1838h1.1029c.1015 0 .1838-.0823.1838-.1838v-1.2368c0-.0838.0569-.1565.137-.1813.1731-.0537.3394-.123.4972-.2062.0742-.0391.1659-.028.2252.0313l.4848.4848.3899.3899c.0717.0718.1881.0718.2599 0l.7798-.7798c.0718-.0718.0718-.1882 0-.26l-.3899-.3899-.4847-.4847c-.0594-.0593-.0704-.151-.0313-.2252.0832-.1578.1525-.3241.2062-.4973.0248-.0801.0975-.137.1813-.137h1.2368c.1015 0 .1838-.0823.1838-.1838v-1.1029c0-.1015-.0823-.1838-.1838-.1838h-1.2368c-.0838 0-.1565-.0569-.1813-.137-.0537-.1731-.123-.3394-.2062-.4972-.0391-.0742-.028-.1659.0313-.2252l.4849-.4848.3899-.3899c.0717-.0718.0717-.1882 0-.26l-.7798-.7798c-.0718-.0717-.1882-.0717-.26 0l-.3899.3899-.4848.4848c-.0593.0594-.151.0704-.2252.0313-.1578-.0832-.3241-.1525-.4973-.2062-.0801-.0248-.137-.0975-.137-.1813v-.6854Zm-.7352 5.1465c.812 0 1.4704-.6584 1.4704-1.4704 0-.8121-.6584-1.4705-1.4704-1.4705-.8121 0-1.4705.6584-1.4705 1.4705 0 .812.6584 1.4704 1.4705 1.4704Z" clip-rule="evenodd"/>
  <path fill="#FCFEFF" fill-rule="evenodd" d="M27.6386 16.2236c.4298.7444.4298 1.6617 0 2.4061l-.6946-.401.6946.401-4.2872 7.4256c-.4298.7445-1.2241 1.2031-2.0838 1.2031h-8.5743c-.8597 0-1.654-.4586-2.0838-1.2031l-4.28718-7.4256c-.42982-.7444-.42982-1.6617 0-2.4061l4.28718-7.42562c.4298-.74446 1.2241-1.20307 2.0838-1.20307h5.4902c.443 0 .8021.35909.8021.80205 0 .44295-.3591.80204-.8021.80204h-5.4902c-.2866 0-.5513.15287-.6946.40102L7.7115 17.0256c-.14327.2482-.14327.5539 0 .8021l4.2872 7.4256c.1432.2481.408.401.6946.401h8.5743c.2866 0 .5513-.1529.6946-.401l4.2872-7.4256c.1433-.2482.1433-.5539 0-.8021l-.74-1.2817c-.2215-.3836-.0901-.8741.2936-1.0956.3836-.2215.8741-.0901 1.0956.2936l.74 1.2817Z" clip-rule="evenodd"/>
  <path stroke="#FCFEFF" stroke-linecap="round" stroke-linejoin="round" stroke-width="1.2" d="M23.5625 12.625c.8084 0 1.6596-.3477 2.1875-.875l1.75 1.75-1.75-1.75c.5107-.5023.875-1.447.875-2.1875 0-1.69137-1.3711-3.0625-3.0625-3.0625S20.5 7.87113 20.5 9.5625c0 1.6914 1.3711 3.0625 3.0625 3.0625Z"/>
</svg>
