<svg xmlns="http://www.w3.org/2000/svg" fill="none" viewBox="0 0 32 34"><g clip-path="url(#a)"><path fill="#252F3E" d="M24.126 27.69c0 .134.015.242.04.322.03.08.065.166.116.26a.157.157 0 0 1 .025.083c0 .036-.021.072-.069.109l-.227.151a.173.173 0 0 1-.095.033c-.036 0-.072-.018-.108-.05a1.117 1.117 0 0 1-.13-.17 2.818 2.818 0 0 1-.113-.214 1.338 1.338 0 0 1-1.063.499c-.304 0-.547-.087-.724-.26-.177-.174-.268-.405-.268-.694 0-.307.109-.556.33-.744.22-.188.513-.282.886-.282.123 0 .25.011.384.03.133.017.27.046.416.079v-.264c0-.275-.058-.466-.17-.578-.116-.112-.312-.166-.59-.166a1.65 1.65 0 0 0-.391.047 2.893 2.893 0 0 0-.39.122c-.059.026-.102.04-.127.047a.22.22 0 0 1-.058.011c-.051 0-.076-.036-.076-.112v-.177c0-.057.007-.1.025-.126a.271.271 0 0 1 .101-.076c.127-.065.279-.12.456-.163.177-.047.366-.068.565-.068.43 0 .745.097.948.292.199.195.3.492.3.889v1.17h.007Zm-1.469.55c.12 0 .243-.022.373-.065a.807.807 0 0 0 .344-.232.573.573 0 0 0 .123-.23c.021-.088.036-.192.036-.315v-.152a2.74 2.74 0 0 0-.673-.083c-.243 0-.42.047-.54.145-.119.097-.177.234-.177.415 0 .17.044.296.134.383.087.09.214.134.38.134Zm2.906.39c-.065 0-.109-.011-.138-.036-.029-.022-.054-.073-.076-.141l-.85-2.793a.634.634 0 0 1-.033-.144c0-.058.03-.09.087-.09h.355c.069 0 .116.01.141.036.029.021.05.072.072.14l.608 2.392.565-2.392c.018-.072.04-.119.069-.14a.249.249 0 0 1 .144-.037h.29c.068 0 .116.011.144.037.03.021.055.072.07.14l.57 2.42.627-2.42a.309.309 0 0 1 .072-.14.236.236 0 0 1 .141-.037h.337c.058 0 .09.03.09.09a.507.507 0 0 1-.032.148l-.872 2.793c-.022.073-.047.12-.076.141a.232.232 0 0 1-.138.036h-.31c-.07 0-.117-.01-.146-.036-.029-.025-.054-.072-.068-.144l-.561-2.33-.558 2.326c-.018.072-.04.12-.068.145-.03.025-.08.036-.145.036h-.311Zm4.65.097c-.189 0-.377-.021-.558-.065a1.645 1.645 0 0 1-.416-.144c-.058-.033-.098-.069-.112-.101a.254.254 0 0 1-.022-.102v-.184c0-.076.03-.112.084-.112.021 0 .043.004.065.011.021.007.054.022.09.036.123.054.257.098.398.127.145.028.286.043.43.043.229 0 .406-.04.529-.12a.389.389 0 0 0 .188-.342.351.351 0 0 0-.098-.253c-.065-.069-.188-.13-.365-.188l-.525-.163c-.264-.083-.46-.206-.579-.368a.859.859 0 0 1-.083-.925.93.93 0 0 1 .26-.296c.11-.083.232-.145.377-.188a1.825 1.825 0 0 1 .698-.047c.084.01.16.025.235.04.073.018.142.036.207.058a.792.792 0 0 1 .152.065c.05.029.087.057.108.09a.194.194 0 0 1 .033.12v.169c0 .076-.03.115-.083.115a.378.378 0 0 1-.138-.043 1.658 1.658 0 0 0-.695-.14c-.206 0-.369.032-.48.1-.113.069-.17.174-.17.322 0 .101.035.188.108.256.072.069.206.138.398.2l.514.162c.26.083.448.198.56.346a.816.816 0 0 1 .167.506.927.927 0 0 1-.094.42.973.973 0 0 1-.264.317c-.113.09-.247.155-.402.202-.163.051-.333.076-.518.076Z"/><path fill="#F90" fill-rule="evenodd" d="M30.896 30.483c-1.19.878-2.92 1.344-4.407 1.344a7.98 7.98 0 0 1-5.38-2.049c-.113-.1-.011-.238.123-.159a10.864 10.864 0 0 0 5.384 1.427c1.32 0 2.771-.274 4.107-.838.199-.09.369.13.173.275Z" clip-rule="evenodd"/><path fill="#F90" fill-rule="evenodd" d="M31.392 29.92c-.152-.196-1.006-.095-1.393-.048-.116.015-.134-.086-.029-.162.68-.477 1.798-.34 1.929-.18.13.162-.037 1.278-.673 1.813-.098.083-.192.04-.149-.069.145-.358.467-1.163.315-1.355Z" clip-rule="evenodd"/></g><path fill="currentColor" fill-rule="evenodd" d="M20 6a1 1 0 0 1 1-1h5a1 1 0 0 1 1 1v3a1 1 0 0 1-1 1h-5a1 1 0 0 1-1-1V8h-2v6.5h2v-1a1 1 0 0 1 1-1h5a1 1 0 0 1 1 1v3a1 1 0 0 1-1 1h-5a1 1 0 0 1-1-1v-1h-2V22h2v-1.5a1 1 0 0 1 1-1h5a1 1 0 0 1 1 1v3a1 1 0 0 1-1 1h-5a1 1 0 0 1-1-1V23h-2a1 1 0 0 1-1-1v-6.5h-2v2a2.5 2.5 0 0 1-2.5 2.5h-5A2.5 2.5 0 0 1 5 17.5v-5A2.5 2.5 0 0 1 7.5 10h5a2.5 2.5 0 0 1 2.5 2.5v2h2V8a1 1 0 0 1 1-1h2V6Zm6 0h-5v3h5V6ZM7.5 11A1.5 1.5 0 0 0 6 12.5v5A1.5 1.5 0 0 0 7.5 19h5a1.5 1.5 0 0 0 1.5-1.5v-5a1.5 1.5 0 0 0-1.5-1.5h-5ZM21 20.5h5v3h-5v-3Zm0-7h5v3h-5v-3Z" clip-rule="evenodd"/><defs><clipPath id="a"><path fill="#fff" d="M21 25.292h11v6.575H21z"/></clipPath></defs></svg>