<svg xmlns="http://www.w3.org/2000/svg" fill="none" viewBox="0 0 33 33"><path fill="#326CE5" d="M27.8711 27.6598a.1955.1955 0 0 0-.0464-.0035.1982.1982 0 0 0-.0773.0201.2024.2024 0 0 0-.0978.2617l-.0014.002.4626 1.1175a2.3616 2.3616 0 0 0 .9543-1.1988l-1.192-.2015-.002.0025Zm-1.8547.1584a.2015.2015 0 0 0-.1935-.157.1965.1965 0 0 0-.0398.0036l-.002-.0025-1.1816.2006c.1775.4907.5119.9091.9514 1.1903l.4579-1.1065-.0036-.0043a.1998.1998 0 0 0 .0112-.1242Zm.9896.4339a.202.202 0 0 0-.2816-.0775.2008.2008 0 0 0-.074.0779h-.001l-.5811 1.0508a2.3674 2.3674 0 0 0 1.2917.0664 2.4492 2.4492 0 0 0 .2328-.0651l-.5824-1.0525h-.0044Zm1.8395-2.4408-.894.8002.0004.0026a.2018.2018 0 0 0-.064.1971.2017.2017 0 0 0 .1432.1497l.0011.0049 1.158.3335a2.4019 2.4019 0 0 0-.3447-1.4879v-.0001Zm-1.661.0897a.2026.2026 0 0 0 .0333.1022.2028.2028 0 0 0 .1868.0897.2016.2016 0 0 0 .1006-.0379l.0036.0015.9782-.6936a2.3791 2.3791 0 0 0-1.3715-.6612l.0679 1.199.0011.0003Zm-1.036.1584a.2018.2018 0 0 0 .3203-.1546l.005-.0023.0679-1.2008a2.431 2.431 0 0 0-.2441.042 2.3576 2.3576 0 0 0-1.1356.6189l.9846.698.0019-.0012Zm-.5249.9074a.2011.2011 0 0 0 .1436-.1497.2015.2015 0 0 0-.0643-.1972l.001-.0048-.899-.804a2.3572 2.3572 0 0 0-.3345 1.4921l1.1523-.3325.0009-.0039Zm.8732.3532.3316.1595.3306-.1592.0821-.3569-.2288-.2862h-.3683l-.2295.2857.0823.3571Z"/><path fill="#326CE5" d="m32.3106 28.0233-.945-4.1045a.7376.7376 0 0 0-.3955-.4921l-3.8251-1.8263a.737.737 0 0 0-.6348 0l-3.8243 1.8272a.7388.7388 0 0 0-.3957.4921l-.9434 4.1044a.7224.7224 0 0 0-.0002.3152.7385.7385 0 0 0 .0266.0932.7102.7102 0 0 0 .1144.2055l2.6471 3.2912c.0115.0143.0243.0273.0369.0406a.7239.7239 0 0 0 .1396.1157.755.755 0 0 0 .2092.091.7218.7218 0 0 0 .186.0256h.0412l4.2038-.0009a.6994.6994 0 0 0 .0765-.0045.7452.7452 0 0 0 .1078-.0205.7502.7502 0 0 0 .0749-.024.7425.7425 0 0 0 .0567-.0235.7475.7475 0 0 0 .0802-.0446.7234.7234 0 0 0 .1756-.1554l.0807-.1003 2.5655-3.1915a.7124.7124 0 0 0 .1143-.2053.7194.7194 0 0 0 .0271-.0935.7191.7191 0 0 0-.0001-.3148Zm-3.9675 1.5964a.7913.7913 0 0 0 .0382.0924.1798.1798 0 0 0-.0178.135c.0557.1275.1237.2492.203.3634.0444.0584.0854.1194.1227.1825.0093.0171.0213.0435.03.0616a.2291.2291 0 0 1 .0227.185.2305.2305 0 0 1-.1217.141.2306.2306 0 0 1-.1863.0046.23.23 0 0 1-.1285-.1349c-.0087-.0179-.0209-.0418-.0283-.0587a1.9063 1.9063 0 0 1-.0665-.2098 2.1294 2.1294 0 0 0-.1571-.385.1809.1809 0 0 0-.1168-.0709c-.0073-.0126-.0344-.0623-.049-.088a2.9624 2.9624 0 0 1-2.1125-.0054l-.0518.0938a.1864.1864 0 0 0-.0986.0481 1.5993 1.5993 0 0 0-.1773.4113 1.9037 1.9037 0 0 1-.066.2098c-.0074.0168-.0196.0403-.0284.0582l-.0003.0009a.2313.2313 0 0 1-.2224.1525.2307.2307 0 0 1-.1685-.08.2294.2294 0 0 1-.0537-.1786.2293.2293 0 0 1 .0313-.09c.0086-.0182.0202-.0445.0293-.0616a1.902 1.902 0 0 1 .1227-.183 2.2327 2.2327 0 0 0 .2072-.3724.2265.2265 0 0 0-.0204-.1294l.0416-.0998a2.9788 2.9788 0 0 1-1.32-1.6482l-.0998.017a.254.254 0 0 0-.1317-.0464 2.1489 2.1489 0 0 0-.399.1174 1.9314 1.9314 0 0 1-.2054.0787c-.0165.0045-.0404.0091-.0592.0132-.0016.0006-.0029.0012-.0044.0016a.0207.0207 0 0 1-.0035.0003.2305.2305 0 0 1-.1849-.0182.2304.2304 0 0 1-.1109-.149.23.23 0 0 1 .1941-.2788l.0034-.0009.002-.0005c.0191-.0045.0436-.0109.0611-.0142a1.9228 1.9228 0 0 1 .2197-.0177 2.1338 2.1338 0 0 0 .4102-.0674.3159.3159 0 0 0 .0984-.0992l.0959-.028a2.9623 2.9623 0 0 1 .4671-2.0651l-.0734-.0654a.2534.2534 0 0 0-.046-.1321 2.138 2.138 0 0 0-.3404-.2392 1.9037 1.9037 0 0 1-.1898-.111c-.0139-.0103-.0323-.0259-.0474-.0382l-.0034-.0023a.2427.2427 0 0 1-.0563-.3375.2193.2193 0 0 1 .1824-.0807.2731.2731 0 0 1 .1596.0602c.0155.0122.0368.0285.0507.0404a1.916 1.916 0 0 1 .1508.16 2.132 2.132 0 0 0 .3086.2789.1811.1811 0 0 0 .136.0132c.0272.0199.0547.0394.0825.0587a2.9447 2.9447 0 0 1 1.4958-.8546 2.9926 2.9926 0 0 1 .4138-.0636l.0054-.0968a.2487.2487 0 0 0 .0743-.1184 2.1376 2.1376 0 0 0-.0255-.4152 1.947 1.947 0 0 1-.0312-.2177c-.0006-.0166.0003-.0396.0005-.0586 0-.0022-.0005-.0044-.0005-.0064a.2294.2294 0 0 1 .0582-.1775.2291.2291 0 0 1 .1706-.0758.2292.2292 0 0 1 .1707.0757.2298.2298 0 0 1 .0583.1774c0 .02.0012.0466.0005.065a1.8802 1.8802 0 0 1-.0314.2177 2.1463 2.1463 0 0 0-.0259.4153.1811.1811 0 0 0 .0748.1144c.0008.0166.0035.0718.0055.1022a2.9994 2.9994 0 0 1 1.9001.9181l.0871-.0622a.2547.2547 0 0 0 .1389-.0151 2.1394 2.1394 0 0 0 .3086-.2792 1.9043 1.9043 0 0 1 .1512-.16c.014-.0121.0352-.0282.0507-.0405a.2305.2305 0 0 1 .3415.0205.23.23 0 0 1-.0563.3374c-.0153.0124-.0356.0297-.0503.0407a1.9022 1.9022 0 0 1-.1903.1109 2.149 2.149 0 0 0-.3404.2392.1815.1815 0 0 0-.043.1297c-.0127.0117-.0575.0513-.0812.0728a2.974 2.974 0 0 1 .4769 2.0602l.0924.0269a.258.258 0 0 0 .0987.0993 2.137 2.137 0 0 0 .4105.0675 1.944 1.944 0 0 1 .2195.0176c.0192.0035.047.0112.0667.0157a.229.229 0 0 1 .1587.0966.2314.2314 0 0 1 .0369.0875.2286.2286 0 0 1-.1126.2438.2301.2301 0 0 1-.1849.0181l-.0033-.0004c-.0015-.0004-.0029-.0012-.0045-.0016-.0189-.0041-.0426-.0082-.0591-.0125a1.9253 1.9253 0 0 1-.2053-.0793 2.138 2.138 0 0 0-.3994-.1175.181.181 0 0 0-.1281.0476 3.223 3.223 0 0 0-.0978-.0171 2.9792 2.9792 0 0 1-1.3196 1.66Z"/><path fill="#fff" d="m32.8091 28.1286-1.0309-4.478a.8041.8041 0 0 0-.4316-.537l-4.1729-1.9922a.8046.8046 0 0 0-.6927 0l-4.1726 1.9934a.8048.8048 0 0 0-.4318.5367l-1.0291 4.4782a.7958.7958 0 0 0 .1537.6697l2.888 3.591a.8132.8132 0 0 0 .6237.2976l4.6313-.0011a.8135.8135 0 0 0 .6238-.2973l2.887-3.5912a.799.799 0 0 0 .1541-.6697v-.0001Zm-.4988.2096a.7518.7518 0 0 1-.027.0935.7154.7154 0 0 1-.1145.2053l-2.5654 3.1914-.0806.1004a.7202.7202 0 0 1-.1758.1554.7432.7432 0 0 1-.0799.0446.696.696 0 0 1-.0567.0233.7616.7616 0 0 1-.1829.0447.698.698 0 0 1-.0765.0045l-4.2037.001h-.0413a.7224.7224 0 0 1-.186-.0256.7558.7558 0 0 1-.209-.0911.7251.7251 0 0 1-.1398-.1157c-.0126-.0133-.0253-.0264-.0368-.0406l-2.6472-3.2912a.7106.7106 0 0 1-.1143-.2057.7226.7226 0 0 1-.0267-.0932.722.722 0 0 1 .0003-.3151l.9434-4.1046a.7378.7378 0 0 1 .3957-.4919l3.8243-1.8271a.737.737 0 0 1 .6348 0l3.8249 1.8263a.7367.7367 0 0 1 .3956.4921l.945 4.1045a.7215.7215 0 0 1 .0001.315v-.0002Z"/><path fill="#fff" d="M30.6615 27.6945c-.0196-.0045-.0474-.0122-.0666-.0157a1.9176 1.9176 0 0 0-.2194-.0177 2.1364 2.1364 0 0 1-.4106-.0673.2569.2569 0 0 1-.0987-.0994l-.0925-.0269a2.9744 2.9744 0 0 0-.4767-2.0602c.0236-.0215.0684-.0611.0811-.0728a.1807.1807 0 0 1 .0429-.1296 2.1433 2.1433 0 0 1 .3405-.2392 1.8904 1.8904 0 0 0 .1902-.111c.0148-.0109.0349-.0283.0504-.0407a.2293.2293 0 0 0 .1033-.1561.23.23 0 0 0-.3884-.2018c-.0156.0123-.0369.0284-.0508.0405a1.889 1.889 0 0 0-.1512.16 2.146 2.146 0 0 1-.3087.2792.2542.2542 0 0 1-.1388.0151l-.0871.0622a2.9998 2.9998 0 0 0-1.9001-.9181c-.0021-.0304-.0047-.0855-.0056-.1022a.1813.1813 0 0 1-.0746-.1144 2.1384 2.1384 0 0 1 .0259-.4153 1.9 1.9 0 0 0 .0312-.2176c.0007-.0184-.0004-.0452-.0004-.0651a.2295.2295 0 0 0-.0583-.1774.2295.2295 0 0 0-.1708-.0758.231.231 0 0 0-.1706.0759.2294.2294 0 0 0-.0581.1775c0 .0021.0004.0042.0005.0064-.0002.019-.0011.042-.0005.0586.0062.0731.0166.1458.0312.2177a2.145 2.145 0 0 1 .0255.4152.2495.2495 0 0 1-.0743.1183l-.0054.0969a2.9813 2.9813 0 0 0-.4139.0636 2.9447 2.9447 0 0 0-1.4956.8545 4.2797 4.2797 0 0 1-.0828-.0587.1805.1805 0 0 1-.1359-.0132 2.1366 2.1366 0 0 1-.3086-.2788 1.9136 1.9136 0 0 0-.1506-.16c-.014-.012-.0353-.0282-.0509-.0407a.2729.2729 0 0 0-.1596-.0602.221.221 0 0 0-.1824.0808.2425.2425 0 0 0 .0563.3375l.0035.0025c.015.0122.0335.0279.0473.0381a1.915 1.915 0 0 0 .1898.111c.121.0685.235.1487.3404.2393a.2544.2544 0 0 1 .0461.1321l.0733.0655a2.9621 2.9621 0 0 0-.4671 2.065l-.0958.0279a.3166.3166 0 0 1-.0984.0991 2.1443 2.1443 0 0 1-.4103.0677 1.9002 1.9002 0 0 0-.2197.0176c-.0175.0033-.0419.0095-.0611.0142l-.002.0005-.0033.001a.2295.2295 0 0 0-.194.2788.2292.2292 0 0 0 .2014.1776.23.23 0 0 0 .0943-.0104l.0035-.0005c.0015-.0004.0028-.0011.0043-.0014.0189-.0043.0426-.0088.0592-.0133a1.9314 1.9314 0 0 0 .2054-.0787 2.1502 2.1502 0 0 1 .3991-.1175.254.254 0 0 1 .1316.0465l.0998-.0171a2.9787 2.9787 0 0 0 1.3201 1.6482l-.0417.0998a.2277.2277 0 0 1 .0205.1295 2.243 2.243 0 0 1-.2072.3723 1.9077 1.9077 0 0 0-.1228.1829c-.0091.0172-.0206.0436-.0294.0617a.2294.2294 0 0 0-.023.1849.2305.2305 0 0 0 .2142.1633.2306.2306 0 0 0 .2222-.1521l.0004-.0004v-.0005c.0087-.0179.021-.0414.0283-.0582a1.8975 1.8975 0 0 0 .0661-.2098 1.6018 1.6018 0 0 1 .1772-.4112.1865.1865 0 0 1 .0987-.0482l.0519-.0938a2.9622 2.9622 0 0 0 2.1124.0053c.0145.026.0416.0755.0488.0881a.1808.1808 0 0 1 .1169.071 2.139 2.139 0 0 1 .1572.3849c.0181.0712.0403.1412.0664.2098.0074.0169.0195.0407.0283.0587a.2312.2312 0 0 0 .1285.1349.2298.2298 0 0 0 .2621-.0622.2307.2307 0 0 0 .0542-.1783.2292.2292 0 0 0-.0309-.09c-.0088-.0181-.0208-.0445-.0299-.0617a1.8935 1.8935 0 0 0-.1227-.1824 2.1448 2.1448 0 0 1-.203-.3634.1805.1805 0 0 1 .0176-.1351.7836.7836 0 0 1-.0381-.0924 2.9784 2.9784 0 0 0 1.3195-1.6599 3.554 3.554 0 0 1 .098.0171.181.181 0 0 1 .128-.0476c.1365.0261.2702.0654.3992.1175.0669.0303.1355.0568.2054.0792.0166.0044.0402.0085.0592.0127.0015.0004.0029.0011.0045.0015l.0032.0005a.2292.2292 0 0 0 .2956-.1672.2287.2287 0 0 0-.0353-.1822.2293.2293 0 0 0-.1584-.0967Zm-2.175-2.3316-.9783.6936-.0035-.0016a.2012.2012 0 0 1-.2063.0189.2023.2023 0 0 1-.1144-.1729l-.0011-.0005-.0679-1.1988a2.3787 2.3787 0 0 1 1.3715.6613Zm-1.843 1.3142h.3682l.2289.2861-.0821.3569-.3306.1592-.3316-.1595-.0823-.3571.2295-.2856Zm-.3463-1.9336a2.4278 2.4278 0 0 1 .2442-.0419l-.0681 1.2006-.005.0024a.2013.2013 0 0 1-.1138.1732.2018.2018 0 0 1-.2064-.0185l-.0019.0011-.9846-.6982a2.358 2.358 0 0 1 1.1356-.6187Zm-1.4927 1.0675.899.804-.001.0049a.2024.2024 0 0 1 .0642.1972.2022.2022 0 0 1-.051.0947.2023.2023 0 0 1-.0925.0549l-.0009.004-1.1524.3324a2.3566 2.3566 0 0 1 .3346-1.4921Zm1.2036 2.1359-.4578 1.1063a2.3699 2.3699 0 0 1-.9512-1.1904l1.1815-.2007.002.0027a.2033.2033 0 0 1 .0396-.0036.2023.2023 0 0 1 .1663.092.2008.2008 0 0 1 .0162.1893l.0034.0044Zm1.3514 1.4227a2.3674 2.3674 0 0 1-1.2917-.0663l.5811-1.0508h.001a.202.202 0 0 1 .3556-.0003h.0044l.5825 1.0525a2.4554 2.4554 0 0 1-.2329.0649Zm.7508-.3119-.4626-1.1176.0014-.002a.202.202 0 0 1 .0978-.2616.195.195 0 0 1 .1237-.0167l.002-.0025 1.192.2015a2.3613 2.3613 0 0 1-.9543 1.1989Zm1.0795-1.7585-1.1581-.3335-.0011-.0049a.2022.2022 0 0 1-.0792-.3469l-.0004-.0023.8939-.8001c.2738.4452.3949.9675.3449 1.4877Z"/><path fill="currentColor" fill-rule="evenodd" d="M14.9195 4.9096a.9999.9999 0 0 0-.8677 0l-8.1444 3.922a1 1 0 0 0-.541.6785L3.3549 18.323a1 1 0 0 0 .193.846l5.6361 7.0674a.9999.9999 0 0 0 .7819.3766h9.0395a.9998.9998 0 0 0 .7818-.3766l5.6361-7.0674a.9998.9998 0 0 0 .1931-.846l-2.0115-8.8129a.9998.9998 0 0 0-.541-.6784l-8.1444-3.9221Zm-.4339.901 8.1444 3.922 2.0115 8.813-5.6361 7.0674H9.9659l-5.636-7.0674 2.0114-8.813 8.1443-3.922Zm-4.9995 5.4386a.5.5 0 0 0-.5.5v3.4898c0 .5523.4477 1 1 1h3.4898a.5.5 0 0 0 .5-.5v-3.4898c0-.5523-.4477-1-1-1H9.4861Zm3.4898 3.2827-2.2827-2.2827h2.2827v2.2827Zm-2.9898-1.5756 2.2827 2.2827H9.9861v-2.2827Zm-.5 4.1201a.5.5 0 0 0-.5.5v3.4898c0 .5523.4477 1 1 1h3.4898a.5.5 0 0 0 .5-.5v-3.4898c0-.5523-.4477-1-1-1H9.4861Zm3.4898 3.2827-2.2827-2.2827h2.2827v2.2827Zm-2.9898-1.5756 2.2827 2.2827H9.9861v-2.2827Zm5.0093-1.2071a.5.5 0 0 1 .5-.5h3.4898c.5523 0 1 .4477 1 1v3.4898a.5.5 0 0 1-.5.5h-3.4898c-.5523 0-1-.4477-1-1v-3.4898Zm1.7071.5 2.2827 2.2827v-2.2827h-2.2827Zm1.5756 2.9898-2.2827-2.2827v2.2827h2.2827Z" clip-rule="evenodd"/></svg>