<svg xmlns="http://www.w3.org/2000/svg" fill="none" viewBox="0 0 32 32"><path fill="currentColor" fill-rule="evenodd" d="M26.4823 11.0061c1.9315 0 3.4972-1.5682 3.4972-3.50267 0-1.93447-1.5657-3.50267-3.4972-3.50267-1.9315 0-3.4973 1.5682-3.4973 3.50267 0 1.93447 1.5658 3.50267 3.4973 3.50267Zm.4285.9806c2.2823-.2161 4.068-2.14084 4.068-4.48327C30.9788 5.01625 28.9656 3 26.4823 3c-1.8818 0-3.4936 1.15776-4.164 2.80088-2.2477-1.40659-4.9735-2.07958-7.809-1.73087C7.93643 4.8783 3.26232 10.8701 4.06937 17.4532c.80704 6.583 6.78963 11.2643 13.36243 10.4561.9708-.1194 1.9008-.3521 2.7782-.6833.2582-.0975.3886-.3862.2912-.6448-.0973-.2586-.3855-.3892-.6437-.2917-.8036.3034-1.6561.5168-2.5474.6265-6.0251.7409-11.50918-3.5503-12.24897-9.5848C4.32134 11.2968 8.60594 5.80424 14.631 5.06331c2.7051-.33266 5.3011.34903 7.4077 1.74741-.0348.2258-.0529.45714-.0529.69271 0 2.39973 1.8741 4.36107 4.2364 4.49597-.0017-.0001-.0034-.0001-.005-.0002.3229.8337.549 1.7206.6628 2.6488.1128.9205.1088 1.8276-.0002 2.7068-.034.2743.1604.5242.4343.5582.2738.0341.5233-.1606.5573-.4349.119-.96.1233-1.9495.0003-2.952-.1104-.9009-.3178-1.7661-.6103-2.5866-.1154.0202-.2324.036-.3506.0472Zm-.3704.0198c-.0193.0002-.0387.0004-.0581.0004h.0001c.0193 0 .0387-.0002.058-.0004Zm-.0581-7.00498c.2759 0 .4996.22403.4996.50038v1.50115h.9992c.2759 0 .4996.22402.4996.50038 0 .27635-.2237.50038-.4996.50038h-1.4988c-.2759 0-.4996-.22403-.4996-.50038V5.5019c0-.27635.2237-.50038.4996-.50038Zm-9.4925 6.50498c-.8278 0-1.4989.6721-1.4989 1.5011v2.0015h1.9985c.2759 0 .4996.2241.4996.5004 0 .2764-.2237.5004-.4996.5004h-1.9985v2.0015c0 1.3818-1.1184 2.5019-2.498 2.5019-.2759 0-.4996-.224-.4996-.5004 0-.2763.2237-.5003.4996-.5003.8278 0 1.4988-.6721 1.4988-1.5012v-2.0015h-.9992c-.2759 0-.4996-.224-.4996-.5004 0-.2763.2237-.5004.4996-.5004h.9992v-2.0015c0-1.3817 1.1184-2.5019 2.4981-2.5019h.9992c.2759 0 .4996.224.4996.5004 0 .2763-.2237.5004-.4996.5004h-.9992Z" clip-rule="evenodd"/><path fill="url(#a)" fill-rule="evenodd" d="M22.2508 20.4615c0-.2549.2067-.4615.4616-.4615h3.4451c.1769 0 .3383.1011.4154.2604l4.0491 8.4508h.8626c.2549 0 .4616.2066.4616.4615v2.3451c0 .1224-.0487.2398-.1352.3263a.46156.46156 0 0 1-.3264.1352h-2.8782c-.1763 0-.3372-.1004-.4146-.2588l-4.031-8.3343h-1.4484c-.2549 0-.4616-.2066-.4616-.4615v-2.4632Zm.9231.4616v1.5401h1.275c.1763 0 .3372.1004.4147.2588l4.0309 8.3342h2.1286v-1.422h-.6904c-.1769 0-.3383-.1011-.4154-.2603l-4.0491-8.4508h-2.6943Zm.566 3.8193c.1783-.0026.3421.0976.4209.2576l1.533 3.1124c.0596.121.0633.262.0101.3859l-1.2708 3.2222c-.0728.1696-.2396.2795-.4241.2795h-3.0475c-.157 0-.3032-.0798-.3881-.2119-.085-.132-.0969-.2982-.0318-.4411l2.7852-6.3345c.074-.1623.2348-.2674.4131-.2701Zm.023 1.5388-2.0837 4.7957h2.0256l1.067-2.7473-1.0089-2.0484Z" clip-rule="evenodd"/><defs><linearGradient id="a" x1="21.9413" x2="31.6563" y1="20.5446" y2="32.2948" gradientUnits="userSpaceOnUse"><stop stop-color="#CA541A"/><stop offset="1" stop-color="#FC9502"/></linearGradient></defs></svg>