<svg xmlns="http://www.w3.org/2000/svg" viewBox="0 0 168 56"><path d="M72.0779 18.4319h-1.905c-.0544-.3124-.1545-.5892-.3005-.8303-.1461-.2445-.3277-.4516-.5451-.6214-.2173-.1698-.4652-.2971-.7437-.382-.275-.0883-.5721-.1325-.8914-.1325-.5671 0-1.0696.1427-1.5077.4279-.438.2819-.781.6961-1.0289 1.2429-.2479.5433-.3719 1.2072-.3719 1.9916 0 .798.124 1.4704.3719 2.0171.2513.5433.5942.9542 1.0289 1.2327.4381.275.9389.4126 1.5027.4126.3124 0 .6044-.0408.8761-.1223.275-.0849.5212-.2088.7386-.3718.2207-.163.4058-.3634.5552-.6011.1528-.2377.258-.5093.3158-.815l1.905.0102c-.0713.4958-.2258.961-.4635 1.3957-.2343.4347-.5416.8184-.922 1.1512-.3803.3294-.8251.5875-1.3345.7742-.5094.1834-1.0748.2751-1.6962.2751-.9169 0-1.7353-.2123-2.4552-.6367-.7199-.4245-1.287-1.0374-1.7013-1.8389-.4143-.8014-.6214-1.7624-.6214-2.883 0-1.124.2088-2.085.6265-2.883.4177-.8014.9865-1.4144 1.7064-1.8389.7199-.4244 1.5349-.6367 2.445-.6367.5807 0 1.1206.0815 1.6198.2445.4992.163.944.4024 1.3345.7182.3905.3125.7115.6962.9627 1.1512.2547.4517.4211.9678.4992 1.5485Zm3.493 2.3278v4.5844H73.727V14.9122h1.8032v3.9374h.0917c.1833-.4415.4669-.7895.8506-1.0442.3871-.2581.8795-.3871 1.4772-.3871.5433 0 1.017.1137 1.4211.3412.4041.2276.7165.5603.9373.9984.2241.4381.3362.9729.3362 1.6045v4.9817h-1.844v-4.6964c0-.5264-.1358-.9356-.4075-1.2276-.2682-.2955-.6452-.4432-1.1308-.4432-.326 0-.618.0713-.8761.214-.2547.1392-.455.3412-.601.6061-.1427.2649-.214.5858-.214.9627Zm9.2044 4.7423c-.4958 0-.9424-.0883-1.3397-.2649-.3939-.18-.7063-.4449-.9372-.7946-.2276-.3498-.3413-.7811-.3413-1.2938 0-.4415.0815-.8065.2445-1.0952.163-.2886.3854-.5195.6673-.6927.2818-.1732.5993-.3039.9525-.3922.3565-.0917.725-.1579 1.1053-.1987.4584-.0475.8303-.09 1.1155-.1273.2853-.0408.4924-.1019.6215-.1834.1324-.0849.1986-.2156.1986-.3922v-.0306c0-.3837-.1137-.6808-.3413-.8914-.2275-.2105-.5552-.3158-.983-.3158-.4517 0-.8099.0985-1.0748.2954-.2615.197-.4381.4296-.5298.6979l-1.7216-.2445c.1358-.4754.3599-.8727.6723-1.1919.3125-.3226.6945-.5637 1.1461-.7233.4517-.163.9508-.2445 1.4976-.2445.3769 0 .7521.0441 1.1257.1324.3735.0883.7148.2343 1.0238.4381.309.2003.5569.4737.7437.82.1902.3464.2852.7794.2852 1.2989v5.2364h-1.7726v-1.0748h-.0611c-.1121.2173-.27.4211-.4737.6112-.2004.1868-.4533.3379-.759.4534-.3022.112-.6571.1681-1.0645.1681Zm.4788-1.355c.3701 0 .691-.073.9627-.219.2716-.1494.4805-.3464.6265-.5909.1494-.2445.2241-.511.2241-.7997v-.9219c-.0577.0475-.1562.0917-.2954.1324-.1358.0408-.2887.0764-.4585.107-.1697.0305-.3378.0577-.5042.0815-.1664.0237-.3107.0441-.433.0611-.2751.0374-.5212.0985-.7386.1834-.2173.0849-.3888.2037-.5144.3565-.1257.1494-.1885.343-.1885.5807 0 .3396.1239.596.3718.7692.2479.1731.5637.2597.9475.2597Zm8.919 1.3499c-.764 0-1.4262-.1681-1.9865-.5043-.5603-.3362-.995-.8065-1.304-1.411-.3056-.6044-.4584-1.3107-.4584-2.1189s.1528-1.5163.4584-2.1241c.309-.6079.7437-1.0799 1.304-1.4161.5603-.3362 1.2225-.5042 1.9865-.5042.7641 0 1.4263.168 1.9866.5042.5603.3362.9933.8082 1.2989 1.4161.309.6078.4635 1.3159.4635 2.1241 0 .8082-.1545 1.5145-.4635 2.1189-.3056.6045-.7386 1.0748-1.2989 1.411-.5603.3362-1.2225.5043-1.9866.5043Zm.0102-1.4772c.4143 0 .7607-.1138 1.0391-.3413.2785-.2309.4856-.5399.6215-.927.1392-.3872.2088-.8184.2088-1.2938 0-.4788-.0696-.9118-.2088-1.2989-.1359-.3905-.343-.7013-.6215-.9322-.2784-.2309-.6248-.3464-1.0391-.3464-.4245 0-.7776.1155-1.0595.3464-.2784.2309-.4873.5417-.6265.9322-.1358.3871-.2037.8201-.2037 1.2989 0 .4754.0679.9066.2037 1.2938.1392.3871.3481.6961.6265.927.2819.2275.635.3413 1.0595.3413Zm11.4877-4.4315-1.681.1833c-.048-.1697-.131-.3293-.25-.4788-.115-.1494-.271-.2699-.468-.3616s-.438-.1375-.724-.1375c-.383 0-.706.0832-.967.2495-.258.1664-.386.3821-.382.6469-.004.2276.079.4126.249.5553.173.1426.459.2597.856.3514l1.335.2853c.74.1596 1.29.4126 1.65.7589.363.3464.547.7997.55 1.3601-.003.4923-.148.927-.433 1.3039-.282.3736-.674.6656-1.177.8762-.502.2105-1.079.3158-1.731.3158-.958 0-1.729-.2004-2.313-.6011-.5841-.4041-.9322-.9661-1.0442-1.686l1.7982-.1732c.081.3532.255.6197.519.7997.265.18.61.27 1.034.27.438 0 .79-.09 1.055-.27.268-.18.402-.4024.402-.6673 0-.2241-.086-.4091-.26-.5552-.169-.146-.434-.258-.794-.3362l-1.335-.2801c-.75-.1562-1.305-.4194-1.6654-.7895-.3599-.3736-.5382-.8456-.5348-1.4161-.0034-.4822.1273-.8999.3922-1.253.268-.3566.64-.6316 1.116-.8252.478-.197 1.03-.2954 1.655-.2954.917 0 1.638.1952 2.165.5857.53.3906.857.9186.983 1.5842ZM63.1487 40.4703V30.0384h6.7848v1.5842h-4.8951v2.8321h4.5436v1.5841h-4.5436v2.8474h4.9358v1.5841h-6.8255Zm10.4752-4.5843v4.5843h-1.844v-7.8239h1.7625v1.3294h.0916c.18-.438.467-.7861.8609-1.0442.3973-.258.888-.3871 1.4721-.3871.5399 0 1.0102.1155 1.4109.3464.4041.2309.7165.5654.9373 1.0034.2241.4381.3344.9695.3311 1.5944v4.9816h-1.844v-4.6964c0-.5229-.1358-.9321-.4075-1.2276-.2682-.2954-.6401-.4431-1.1155-.4431-.3226 0-.6095.0713-.8608.2139-.2479.1393-.4432.3413-.5858.6062-.1392.2648-.2088.5858-.2088.9627Zm10.2994 7.6813c-.6622 0-1.2309-.09-1.7064-.27-.4754-.1766-.8574-.4143-1.146-.7131-.2887-.2988-.489-.6299-.6011-.9933l1.6605-.4024c.0748.1528.1834.304.326.4534.1427.1528.3345.2784.5756.3769.2445.1019.5518.1528.922.1528.5229 0 .9559-.1273 1.2989-.382.343-.2513.5145-.6656.5145-1.2429v-1.4822h-.0917c-.0951.1901-.2343.3854-.4177.5857-.18.2004-.4194.3685-.7182.5043-.2955.1358-.6673.2038-1.1156.2038-.601 0-1.146-.141-1.635-.4228-.4856-.2853-.8728-.7097-1.1614-1.2734-.2852-.5671-.4279-1.2769-.4279-2.1292 0-.8592.1427-1.5842.4279-2.175.2886-.5943.6775-1.0442 1.1665-1.3499.489-.309 1.034-.4635 1.635-.4635.4585 0 .8354.0781 1.1308.2343.2989.1528.5366.3379.7132.5552.1765.214.3107.416.4024.6062h.1018v-1.2938h1.8185v7.9513c0 .6689-.1596 1.2225-.4788 1.6605-.3192.4381-.7556.7658-1.3091.9831-.5535.2173-1.1817.326-1.8847.326Zm.0153-4.6557c.3905 0 .7233-.095.9984-.2852.275-.1902.4839-.4635.6265-.8201.1426-.3565.2139-.7844.2139-1.2836 0-.4924-.0713-.9237-.2139-1.2938-.1392-.3701-.3464-.6571-.6214-.8608-.2717-.2072-.6062-.3108-1.0035-.3108-.4109 0-.7539.107-1.0289.321-.2751.2139-.4822.5076-.6215.8812-.1392.3701-.2088.7912-.2088 1.2632 0 .4788.0696.8982.2088 1.2581.1427.3566.3515.6351.6266.8354.2784.197.6197.2954 1.0238.2954Zm5.5471 1.5587v-7.8239h1.8439v7.8239h-1.8439Zm.927-8.9343c-.292 0-.5433-.0968-.7539-.2904-.2105-.1969-.3158-.4329-.3158-.708 0-.2785.1053-.5145.3158-.708.2106-.197.4619-.2955.7539-.2955.2954 0 .5467.0985.7539.2955.2105.1935.3158.4295.3158.708 0 .2751-.1053.5111-.3158.708-.2072.1936-.4585.2904-.7539.2904Zm4.6569 4.35v4.5843h-1.8439v-7.8239h1.7624v1.3294h.0917c.18-.438.4669-.7861.8608-1.0442.3974-.258.8881-.3871 1.4721-.3871.54 0 1.0103.1155 1.411.3464.4041.2309.7165.5654.9372 1.0034.2241.4381.3341.9695.3311 1.5944v4.9816h-1.8439v-4.6964c0-.5229-.1358-.9321-.4075-1.2276-.2683-.2954-.6401-.4431-1.1155-.4431-.3226 0-.6096.0713-.8609.2139-.2479.1393-.4431.3413-.5857.6062-.1393.2648-.2089.5858-.2089.9627Zm10.3604 4.7371c-.784 0-1.462-.163-2.032-.489-.567-.3294-1.004-.7946-1.309-1.3956-.306-.6045-.459-1.3159-.459-2.1343 0-.8048.153-1.5111.459-2.119.309-.6112.74-1.0866 1.294-1.4262.553-.343 1.203-.5145 1.95-.5145.483 0 .938.0781 1.366.2343.431.1528.811.3905 1.141.7131.332.3226.594.7335.784 1.2327.19.4958.285 1.0867.285 1.7726v.5654h-6.413v-1.2428h4.646c-.004-.3532-.08-.6673-.23-.9424-.149-.2784-.358-.4975-.626-.6571-.265-.1596-.574-.2394-.927-.2394-.377 0-.708.0917-.993.2751-.286.18-.508.4177-.668.7131-.156.2921-.236.613-.239.9627v1.085c0 .455.083.8455.25 1.1715.166.3226.399.5705.697.7437.299.1698.649.2547 1.05.2547.268 0 .511-.0373.728-.1121.217-.0781.406-.1918.565-.3412.16-.1494.281-.3345.362-.5552l1.722.1935c-.109.455-.316.8524-.622 1.1919-.302.3362-.689.5977-1.161.7845-.472.1833-1.012.275-1.62.275Zm8.503 0c-.785 0-1.462-.163-2.033-.489-.567-.3294-1.003-.7946-1.309-1.3956-.305-.6045-.458-1.3159-.458-2.1343 0-.8048.153-1.5111.458-2.119.309-.6112.741-1.0866 1.294-1.4262.554-.343 1.204-.5145 1.951-.5145.482 0 .937.0781 1.365.2343.431.1528.812.3905 1.141.7131.333.3226.594.7335.785 1.2327.19.4958.285 1.0867.285 1.7726v.5654h-6.413v-1.2428h4.645c-.003-.3532-.079-.6673-.229-.9424-.149-.2784-.358-.4975-.626-.6571-.265-.1596-.574-.2394-.927-.2394-.377 0-.708.0917-.994.2751-.285.18-.507.4177-.667.7131-.156.2921-.236.613-.239.9627v1.085c0 .455.083.8455.249 1.1715.167.3226.399.5705.698.7437.299.1698.649.2547 1.049.2547.269 0 .511-.0373.729-.1121.217-.0781.406-.1918.565-.3412.16-.1494.28-.3345.362-.5552l1.721.1935c-.108.455-.315.8524-.621 1.1919-.302.3362-.689.5977-1.161.7845-.472.1833-1.012.275-1.62.275Zm5.039-.1528v-7.8239h1.788v1.304h.081c.143-.4517.387-.7997.734-1.0442.349-.2479.748-.3719 1.197-.3719.102 0 .215.0051.341.0153.129.0068.236.0187.321.0357v1.6962c-.078-.0272-.202-.051-.372-.0713-.166-.0238-.328-.0357-.484-.0357-.336 0-.638.073-.907.219-.264.1427-.473.3413-.626.596-.153.2547-.229.5484-.229.8812v4.5996h-1.844Zm5.687 0v-7.8239h1.844v7.8239h-1.844Zm.927-8.9343c-.292 0-.543-.0968-.754-.2904-.21-.1969-.316-.4329-.316-.708 0-.2785.106-.5145.316-.708.211-.197.462-.2955.754-.2955.295 0 .547.0985.754.2955.21.1935.316.4295.316.708 0 .2751-.106.5111-.316.708-.207.1936-.459.2904-.754.2904Zm4.657 4.35v4.5843h-1.844v-7.8239h1.762v1.3294h.092c.18-.438.467-.7861.861-1.0442.397-.258.888-.3871 1.472-.3871.54 0 1.01.1155 1.411.3464.404.2309.716.5654.937 1.0034.224.4381.335.9695.331 1.5944v4.9816h-1.844v-4.6964c0-.5229-.135-.9321-.407-1.2276-.268-.2954-.64-.4431-1.116-.4431-.322 0-.609.0713-.86.2139-.248.1393-.444.3413-.586.6062-.139.2648-.209.5858-.209.9627Zm10.299 7.6813c-.662 0-1.231-.09-1.706-.27-.475-.1766-.857-.4143-1.146-.7131-.289-.2988-.489-.6299-.601-.9933l1.66-.4024c.075.1528.184.304.326.4534.143.1528.335.2784.576.3769.244.1019.552.1528.922.1528.523 0 .956-.1273 1.299-.382.343-.2513.514-.6656.514-1.2429v-1.4822h-.091c-.095.1901-.235.3854-.418.5857-.18.2004-.419.3685-.718.5043-.296.1358-.668.2038-1.116.2038-.601 0-1.146-.141-1.635-.4228-.485-.2853-.873-.7097-1.161-1.2734-.285-.5671-.428-1.2769-.428-2.1292 0-.8592.143-1.5842.428-2.175.288-.5943.677-1.0442 1.166-1.3499.489-.309 1.034-.4635 1.635-.4635.459 0 .836.0781 1.131.2343.299.1528.537.3379.713.5552.177.214.311.416.403.6062h.101v-1.2938h1.819v7.9513c0 .6689-.16 1.2225-.479 1.6605-.319.4381-.755.7658-1.309.9831-.553.2173-1.182.326-1.885.326Zm.016-4.6557c.39 0 .723-.095.998-.2852s.484-.4635.627-.8201c.142-.3565.213-.7844.213-1.2836 0-.4924-.071-.9237-.213-1.2938-.14-.3701-.347-.6571-.622-.8608-.272-.2072-.606-.3108-1.003-.3108-.411 0-.754.107-1.029.321-.275.2139-.482.5076-.622.8812-.139.3701-.209.7912-.209 1.2632 0 .4788.07.8982.209 1.2581.143.3566.352.6351.627.8354.278.197.62.2954 1.024.2954Z"/><path fill="url(#a)" fill-rule="evenodd" d="M45.2026 24.645c.5092.5092 1.3348.5092 1.8441 0 .5092-.5093.5092-1.3349 0-1.8441l-6.718-6.7181 8.1342-4.6963c1.9023-1.0982 4.2801.2746 4.2801 2.4712V28.21l-9.8328 2.3523c-.7004.1676-1.1323.8712-.9648 1.5716.1676.7004.8712 1.1324 1.5716.9648l9.226-2.2072v10.7208c0 2.1965-2.3778 3.5694-4.2801 2.4711L37.146 37.5496l1.5835-11.4366c.0988-.7134-.3995-1.3718-1.1128-1.4705-.7134-.0988-1.3718.3994-1.4705 1.1128L34.708 36.142l-10.2813-5.9359c-1.9023-1.0983-1.9023-3.844 0-4.9423l13.5637-7.831 7.2122 7.2122Z" clip-rule="evenodd"/><defs><linearGradient id="a" x1="34.6055" x2="52.7309" y1="16.216" y2="44.3821" gradientUnits="userSpaceOnUse"><stop stop-color="#FF61A2"/><stop offset="1" stop-color="#D8005A"/></linearGradient></defs></svg>