<svg xmlns="http://www.w3.org/2000/svg" fill="none" viewBox="0 0 24 24"><path stroke="currentColor" stroke-linecap="round" stroke-linejoin="round" stroke-width="1.5" d="M9 3 8 8m8-5-1 5m7 0H2m4.8 13h10.4c1.6802 0 2.5202 0 3.162-.327a2.9994 2.9994 0 0 0 1.311-1.311C22 18.7202 22 17.8802 22 16.2V7.8c0-1.6802 0-2.5202-.327-3.162a2.9997 2.9997 0 0 0-1.311-1.311C19.7202 3 18.8802 3 17.2 3H6.8c-1.6802 0-2.5202 0-3.162.327a3 3 0 0 0-1.311 1.311C2 5.2798 2 6.1198 2 7.8v8.4c0 1.6802 0 2.5202.327 3.162a2.9997 2.9997 0 0 0 1.311 1.311C4.2798 21 5.1198 21 6.8 21Z"/></svg>