<svg xmlns="http://www.w3.org/2000/svg" fill="none" viewBox="0 0 33 32"><path fill="#F68536" d="m24.521 29.701-1.064.243v-6.895l1.064.243v6.409ZM25.85 30.108l-1.328.377v-7.969l1.328.377v7.215Z"/><path fill="#F68536" d="m27.554 30.526-1.704.624v-9.298l1.704.624v8.05ZM32.11 29.722 27.554 32V21l4.556 2.278v6.444Z"/><path fill="#9D5025" d="m26.646 21.454.908-.454v11l-.908-.454V21.454ZM25.147 22.204l.703-.352v9.296l-.703-.352v-8.592ZM23.961 22.796l.56-.28v7.968l-.56-.28v-7.408ZM23.457 23.049l-.457.228v6.446l.457.228V23.05Z"/><path fill="currentColor" fill-rule="evenodd" d="M23.5 12a3.5 3.5 0 1 0 0-7 3.5 3.5 0 0 0 0 7Zm2.5.242A4.5 4.5 0 1 0 19.027 8H18V6h-1v2h-2V6h-1v2h-2V6h-1v2H9a1 1 0 0 0-1 1v2.5H6v1h2v2H6v1h2v2H6v1h2v2H6v1h2V23a1 1 0 0 0 1 1h2v2h1v-2h2v2h1v-2h2v2h1v-2h2v2h1v-2h2a1 1 0 0 0 1-1v-1.5h2v-1h-2v-2h2v-1h-2v-2h2v-1h-2v-1.527a4.469 4.469 0 0 0 1.564-.473H26v-.258Zm-3 .73A4.502 4.502 0 0 1 19.027 9H9v14h14V12.973ZM23.5 6a.5.5 0 0 1 .5.5v2.581a.5.5 0 0 1-1 0V6.5a.5.5 0 0 1 .5-.5Zm0 4.018a.5.5 0 0 1 .5.5v.03a.5.5 0 1 1-1 0v-.03a.5.5 0 0 1 .5-.5ZM12.735 18v-4.364h-.922V18h.922Zm1.447.656 1.406-5.224h-.782L13.4 18.656h.782Zm5.81-1.623c.18-.334.27-.74.27-1.215 0-.476-.09-.88-.27-1.214a1.862 1.862 0 0 0-.733-.763 2.057 2.057 0 0 0-1.04-.264c-.388 0-.736.088-1.044.264a1.867 1.867 0 0 0-.73.763c-.18.333-.27.738-.27 1.214 0 .475.09.879.27 1.212.178.334.422.59.73.765.308.176.656.264 1.044.264.385 0 .732-.087 1.04-.262.31-.176.554-.43.733-.765Zm-.804-1.995c.093.212.139.472.139.78 0 .308-.046.568-.139.78-.09.212-.219.372-.385.481-.166.11-.361.165-.584.165-.223 0-.418-.055-.584-.165a1.068 1.068 0 0 1-.388-.481 1.977 1.977 0 0 1-.136-.78c0-.308.046-.568.136-.78.093-.211.222-.372.388-.481.166-.11.361-.164.584-.164.223 0 .418.054.584.164.166.11.294.27.385.481Z" clip-rule="evenodd"/></svg>