<svg xmlns="http://www.w3.org/2000/svg" fill="none" viewBox="0 0 32 33"><g clip-path="url(#a)"><path fill="#0072C6" d="m26.56 22.21-3.54 3.07L20 30.7h2.72l3.84-8.49Zm.47.72-1.51 4.26 2.9 3.63-5.62.97H32l-4.97-8.86Z"/></g><path fill="currentColor" fill-rule="evenodd" d="M5.94 4.8a1 1 0 0 1 .97-.79h17.73a1 1 0 0 1 .97.76L29 18.42a.5.5 0 0 1 0 .12v1.94a.5.5 0 0 1-1 0v-1.44H4.03v4.47h16.16a.5.5 0 1 1 0 1H4.02a1 1 0 0 1-1-1v-4.97l.01-.1L5.93 4.8Zm-1.8 13.24h23.74L24.64 5.01H6.9L4.14 18.04Zm7.52-7.13 4.7 4.4 4.68-4.4a5.79 5.79 0 0 0-9.38 0Zm-1.07-.2a6.8 6.8 0 0 1 5.76-3.21 6.8 6.8 0 0 1 5.77 3.22c.13.2.1.46-.08.62l-5.34 5.02a.5.5 0 0 1-.69 0l-5.34-5.02a.5.5 0 0 1-.08-.62Zm6.26-.84a.5.5 0 0 0-1 0v1.45a.5.5 0 0 0 1 0V9.87Zm0 3.36a.5.5 0 0 0-1 0v.04a.5.5 0 0 0 1 0v-.04Z" clip-rule="evenodd"/><defs><clipPath id="a"><path fill="#fff" d="M20 22.21h12v9.58H20z"/></clipPath></defs></svg>