<svg viewBox="0 0 32 32" fill="none" xmlns="http://www.w3.org/2000/svg"><path fill-rule="evenodd" clip-rule="evenodd" d="M21.662 13.415a1.1 1.1 0 0 0 1.55 0 1.087 1.087 0 0 0 0-1.543l-5.647-5.62 6.837-3.929c1.6-.918 3.598.23 3.598 2.068v12.006l-8.265 1.968a1.09 1.09 0 1 0 .51 2.122L28 18.641v8.968c0 1.838-1.999 2.986-3.598 2.068L14.89 24.21l1.331-9.568a1.092 1.092 0 0 0-.935-1.23 1.095 1.095 0 0 0-1.236.93l-1.209 8.69-8.642-4.966c-1.599-.919-1.599-3.216 0-4.134l11.4-6.551 6.063 6.033Z" fill="url(#a)"/><defs><linearGradient id="a" x1="12.755" y1="6.364" x2="27.888" y2="29.992" gradientUnits="userSpaceOnUse"><stop stop-color="#FF61A2"/><stop offset="1" stop-color="#D8005A"/></linearGradient></defs></svg>
