<svg xmlns="http://www.w3.org/2000/svg" fill="none" viewBox="0 0 32 32"><path fill="currentColor" fill-rule="evenodd" d="M17.953 1.385a.492.492 0 0 0 .086-.695.504.504 0 0 0-.702-.085L15.235 2.23a.493.493 0 0 0 .01.787l2.102 1.548a.503.503 0 0 0 .7-.102.492.492 0 0 0-.104-.693l-.843-.62C23.017 3.696 28 8.927 28 14.967c0 .274.224.495.5.495s.5-.221.5-.495c0-6.626-5.502-12.341-12.03-12.822l.983-.76ZM3.996 15.033a.498.498 0 0 0-.5-.495c-.276 0-.5.221-.5.495 0 5.66 4.01 10.64 9.226 12.282.903.284 1.843.469 2.805.54l-.983.76a.492.492 0 0 0-.087.695c.17.215.484.253.702.085l2.103-1.625a.493.493 0 0 0-.01-.787l-2.102-1.548a.503.503 0 0 0-.7.102.492.492 0 0 0 .103.693l.843.62a11.373 11.373 0 0 1-2.37-.479c-4.83-1.52-8.53-6.137-8.53-11.338Zm11.026-9.435c-.552 0-1 .443-1 .99v1.215l-.002.002a.045.045 0 0 1-.023.014c-.59.163-1.15.395-1.671.687a.045.045 0 0 1-.027.006l-.004-.001-.868-.86a1.007 1.007 0 0 0-1.414 0l-1.414 1.4a.983.983 0 0 0 0 1.4l.868.86v.005c.002.006 0 .015-.005.025a7.371 7.371 0 0 0-.693 1.654.044.044 0 0 1-.014.023l-.004.002H7.525c-.552 0-1 .443-1 .99v1.98c0 .547.448.99 1 .99h1.226l.004.002a.044.044 0 0 1 .015.023c.164.584.398 1.138.693 1.655.005.01.006.019.006.025v.003l-.001.002-.868.858a.983.983 0 0 0 0 1.4l1.415 1.4c.39.387 1.023.387 1.414 0l.867-.858.005-.001c.006-.001.016 0 .026.006a7.527 7.527 0 0 0 1.67.685.045.045 0 0 1 .023.014.016.016 0 0 1 .002.004v1.214c0 .547.448.99 1 .99h2c.553 0 1-.443 1-.99v-1.214l.003-.004a.045.045 0 0 1 .023-.014 7.532 7.532 0 0 0 1.668-.684.044.044 0 0 1 .026-.006h.003l.002.001.867.859c.391.387 1.024.387 1.415 0l1.414-1.4a.983.983 0 0 0 0-1.4l-.866-.858-.002-.004c0-.007 0-.016.007-.026a7.37 7.37 0 0 0 .694-1.657.044.044 0 0 1 .014-.023l.004-.002h1.226c.553 0 1-.443 1-.99v-1.98a.995.995 0 0 0-1-.99h-1.226l-.004-.002a.044.044 0 0 1-.014-.023 7.373 7.373 0 0 0-.693-1.654.044.044 0 0 1-.006-.026v-.003l.001-.001.868-.86a.983.983 0 0 0 0-1.4l-1.414-1.4a1.007 1.007 0 0 0-1.414 0l-.868.86h-.004c-.007.001-.016 0-.026-.005a7.528 7.528 0 0 0-1.672-.687.045.045 0 0 1-.023-.014l-.003-.004V6.588a.995.995 0 0 0-1-.99h-2Zm0 .99h2V7.8c0 .472.331.854.757.972.511.14.997.342 1.449.595.385.215.892.176 1.23-.158l.867-.858 1.414 1.4-.868.859a1.007 1.007 0 0 0-.158 1.217c.255.447.457.928.6 1.433.118.422.505.749.981.749h1.226v1.98h-1.226c-.476 0-.863.327-.982.75a6.387 6.387 0 0 1-.601 1.435c-.218.381-.179.883.158 1.217l.867.858-1.414 1.4-.868-.859a1.033 1.033 0 0 0-1.229-.157 6.522 6.522 0 0 1-1.446.593c-.426.117-.757.5-.757.971v1.214h-2v-1.214c0-.471-.33-.854-.756-.971a6.52 6.52 0 0 1-1.448-.594 1.033 1.033 0 0 0-1.229.157l-.867.858-1.414-1.4.867-.858c.337-.334.376-.836.158-1.217a6.386 6.386 0 0 1-.6-1.434 1.023 1.023 0 0 0-.982-.749H7.525v-1.98h1.226c.477 0 .863-.327.982-.75.142-.505.345-.985.6-1.432a1.007 1.007 0 0 0-.159-1.217l-.868-.86 1.414-1.4.868.86c.337.333.844.372 1.23.157a6.522 6.522 0 0 1 1.448-.595c.426-.118.756-.5.756-.972V6.588Zm-3.227 8.428c0-.982.349-1.884.931-2.593l2.567 2.54-2.614 2.588a4.07 4.07 0 0 1-.884-2.535Zm1.59 3.236c.713.557 1.616.89 2.597.89.99 0 1.9-.34 2.617-.905L16 15.664l-2.615 2.588Zm3.322-3.288 2.594 2.568a4.07 4.07 0 0 0 .868-2.516 4.07 4.07 0 0 0-.915-2.574l-2.547 2.522Zm1.832-3.214a4.208 4.208 0 0 0-2.557-.859c-.954 0-1.833.314-2.537.843L16 14.264l2.54-2.514ZM15.982 9.9c-2.862 0-5.187 2.288-5.187 5.115 0 2.827 2.325 5.116 5.187 5.116 2.863 0 5.187-2.289 5.187-5.116 0-2.827-2.324-5.115-5.187-5.115Z" clip-rule="evenodd"/><path fill="#000" d="M20.772 31.567 19.852 29a.403.403 0 0 1-.027-.124c0-.111.092-.217.229-.217.117 0 .195.078.229.186l.762 2.21.768-2.216c.034-.105.105-.18.223-.18h.025c.124 0 .198.078.235.18l.762 2.213.774-2.222c.031-.093.093-.177.217-.177.13 0 .223.1.223.211 0 .04-.018.087-.028.124l-.926 2.57c-.046.133-.14.204-.248.204h-.018c-.118 0-.204-.071-.248-.205l-.756-2.178-.762 2.178c-.04.134-.13.205-.244.205h-.013c-.117.01-.21-.062-.257-.195Zm6.703-2.688c0-.124.099-.23.223-.23.13 0 .23.1.23.23v.522c.222-.506.715-.745 1.043-.745.136 0 .223.1.223.23a.226.226 0 0 1-.201.23c-.586.07-1.069.511-1.069 1.386v1.03c0 .125-.093.23-.223.23s-.23-.1-.23-.23l.004-2.652Zm3.168 2.911c-.817 0-1.483-.633-1.483-1.564v-.012c0-.866.604-1.564 1.425-1.564.88 0 1.381.726 1.381 1.523a.21.21 0 0 1-.207.211h-2.15c.062.652.517 1.018 1.047 1.018.369 0 .638-.146.858-.35a.198.198 0 0 1 .127-.053.19.19 0 0 1 .127.338 1.53 1.53 0 0 1-1.124.453Zm.88-1.74c-.046-.547-.356-1.025-.948-1.025-.517 0-.907.435-.966 1.024h1.914Zm-7.254.8v-.013c0-.639.527-.977 1.292-.977.387 0 .66.053.932.13v-.105c0-.546-.334-.826-.901-.826-.304 0-.48.04-.703.14a.214.214 0 0 1-.08.019.199.199 0 0 1-.2-.193c0-.093.041-.152.125-.189.297-.13.523-.174.907-.174.428 0 .756.112.976.335.204.205.31.5.31.885v1.672a.215.215 0 0 1-.217.224.206.206 0 0 1-.214-.211v-.289c-.21.276-.564.521-1.093.521-.564-.006-1.134-.329-1.134-.95Zm2.23-.236v-.292a3.122 3.122 0 0 0-.889-.13c-.566 0-.882.245-.882.627v.012c0 .382.35.605.761.605.555 0 1.01-.341 1.01-.822Zm-13.922-1.76a.426.426 0 0 0-.573-.213.421.421 0 0 0-.211.574l.96 2.09c.152.33.31.5.61.5.32 0 .459-.186.61-.5l.846-1.845c.01-.019.034-.078.12-.078.072 0 .134.06.134.137v1.787c0 .276.152.503.446.503.294 0 .452-.227.452-.503v-1.462c0-.282.202-.465.477-.465.276 0 .459.19.459.465v1.462c0 .276.151.503.446.503.294 0 .452-.227.452-.503v-1.462c0-.282.201-.465.477-.465.276 0 .458.19.458.465v1.462c0 .276.152.503.446.503.295 0 .453-.227.453-.503v-1.663c0-.611-.49-1.04-1.081-1.04-.589 0-.96.41-.96.41-.196-.258-.468-.413-.927-.413-.483 0-.907.41-.907.41a1.083 1.083 0 0 0-.809-.41c-.427.003-.768.193-.975.667l-.614 1.45-.79-1.862Z"/></svg>