<svg xmlns="http://www.w3.org/2000/svg" fill="none" viewBox="0 0 33 32"><path fill="#F68536" d="m24.521 29.701-1.064.243v-6.895l1.064.243v6.409ZM25.85 30.108l-1.328.377v-7.969l1.328.377v7.215Z"/><path fill="#F68536" d="m27.554 30.526-1.704.624v-9.298l1.704.624v8.05ZM32.11 29.722 27.554 32V21l4.556 2.278v6.444Z"/><path fill="#9D5025" d="m26.646 21.454.908-.454v11l-.908-.454V21.454ZM25.147 22.204l.703-.352v9.296l-.703-.352v-8.592ZM23.961 22.796l.56-.28v7.968l-.56-.28v-7.408ZM23.457 23.049l-.457.228v6.446l.457.228V23.05Z"/><path fill="currentColor" fill-rule="evenodd" d="M25.983 6.503h-2.957A3 3 0 0 1 25.983 4a3 3 0 0 1 2.956 2.502h-2.956Zm0 1h2.956a3 3 0 0 1-2.956 2.503 3 3 0 0 1-2.957-2.502h2.957Zm0-4.503a4 4 0 0 0-3.788 2.723 11.923 11.923 0 0 0-5.713-1.732C9.864 3.71 4.273 8.851 3.99 15.478c-.283 6.627 4.852 12.228 11.468 12.51a12 12 0 0 0 2.853-.217.5.5 0 0 0-.195-.981c-.842.167-1.718.237-2.615.199-6.065-.26-10.772-5.394-10.513-11.468.259-6.075 5.385-10.789 11.45-10.53 2.053.088 3.951.735 5.553 1.787a4 4 0 0 0 3.778 4.223 10.973 10.973 0 0 1 1.182 5.458c-.04.927-.192 1.821-.444 2.67a.5.5 0 0 0 .958.285c.275-.927.441-1.903.484-2.912a11.974 11.974 0 0 0-1.11-5.588 4.003 4.003 0 0 0 3.14-3.91A4 4 0 0 0 25.983 3ZM14.046 13.008v5.823h-1.053v-5.823h1.053Zm2.91 5.823h-1.97v-5.823h2.01c.578 0 1.074.117 1.488.35.416.231.736.564.96.998.223.434.334.953.334 1.558 0 .606-.112 1.128-.337 1.564-.224.435-.546.77-.968 1.003-.42.233-.926.35-1.516.35Zm-.916-.913h.866c.405 0 .742-.074 1.013-.221.27-.15.474-.373.61-.669.137-.297.205-.669.205-1.114 0-.446-.068-.815-.205-1.11a1.395 1.395 0 0 0-.604-.662c-.265-.147-.595-.221-.988-.221h-.897v3.997Z" clip-rule="evenodd"/></svg>