<svg xmlns="http://www.w3.org/2000/svg" fill="none" viewBox="0 0 32 32"><path fill="currentColor" fill-rule="evenodd" d="M11 6v2H9c-.5523 0-1 .4477-1 1v2.5H6v1h2v2H6v1h2v2H6v1h2v2H6v1h2V23c0 .5523.4477 1 1 1h2v2h1v-2h2v2h1v-2h2v2h1v-2h2v2h1v-2h2c.5523 0 1-.4477 1-1v-1.5h2v-1h-2v-2h2v-1h-2v-2h2v-1h-2v-2h2v-1h-2V9c0-.5523-.4477-1-1-1h-2V6h-1v2h-2V6h-1v2h-2V6h-1v2h-2V6h-1ZM9 9h14v14H9V9Zm3.9094 6.1641h.9333c-.0298-.2529-.098-.4773-.2046-.6733-.1051-.1961-.2414-.3615-.4091-.4965-.1676-.1363-.36-.24-.5774-.3111-.2159-.071-.4503-.1065-.7031-.1065-.3835 0-.7287.0881-1.0355.2642-.3068.1747-.5497.429-.7287.7628-.179.3338-.2685.7386-.2685 1.2145 0 .4744.0881.8785.2642 1.2123.1776.3338.4191.5888.7245.765.3068.1761.6548.2642 1.044.2642.2798 0 .5305-.0419.7521-.1258.2231-.0852.4148-.2002.5753-.3451.162-.1463.2905-.3118.3857-.4965a1.689 1.689 0 0 0 .1811-.5795l-.9333-.0043c-.0213.1165-.0596.2202-.115.3111a.8226.8226 0 0 1-.2046.2322.9013.9013 0 0 1-.2833.1428c-.1052.0327-.2195.049-.3431.049-.2201 0-.414-.054-.5817-.1619-.1676-.108-.2982-.2678-.392-.4794-.0923-.2117-.1385-.473-.1385-.7841 0-.3026.0462-.5597.1385-.7713.0923-.2131.2223-.375.3899-.4858.1676-.1122.3644-.1683.5902-.1683.125 0 .2408.0177.3473.0532a.8913.8913 0 0 1 .2855.1534.8187.8187 0 0 1 .2024.2429c.0526.0938.0874.201.1044.3218Zm3.3165-1.5277h-1.7216V18h.9225v-1.4148h.7756c.3352 0 .6208-.0618.8565-.1853.2373-.1236.4184-.2962.5434-.5178.125-.2216.1875-.4773.1875-.767 0-.2898-.0618-.5455-.1854-.7671-.1222-.223-.2997-.397-.5327-.522-.2329-.1264-.5149-.1896-.8458-.1896Zm-.7991 2.2095h.6265c.1775 0 .3238-.0306.4389-.0916.1165-.0625.2031-.1485.2599-.2579.0583-.1107.0874-.2379.0874-.3813 0-.1449-.0291-.2713-.0874-.3793-.0568-.1094-.1434-.1939-.2599-.2536-.1165-.061-.2642-.0916-.4432-.0916h-.6222v1.4553Zm6.5801-2.2095h-.9226v2.7549c0 .1662-.0369.314-.1108.4432-.0724.1293-.1754.2308-.3089.3047-.1321.0739-.2876.1108-.4666.1108-.1776 0-.3331-.0369-.4666-.1108-.1336-.0739-.2373-.1754-.3111-.3047-.0725-.1292-.1087-.277-.1087-.4432v-2.7549h-.9226v2.8338c0 .3182.0753.5966.2259.8352.1505.2386.3615.4247.6328.5582.2713.1321.5881.1982.9503.1982.3608 0 .6768-.0661.9481-.1982.2713-.1335.4823-.3196.6328-.5582.152-.2386.228-.517.228-.8352v-2.8338Z" clip-rule="evenodd"/><path fill="#0078D6" d="m32 21-6.1226.8808v4.3743h6.1224L32 21Zm-11 1.582v3.6731h4.4459v-4.3125L21 22.582Zm0 7.818 4.4459.6467v-4.3665H21V30.4ZM32 32v-5.3198h-6.1226v4.4294L32 32Z"/></svg>