<svg xmlns="http://www.w3.org/2000/svg" fill="none" viewBox="0 0 33 32"><path fill="currentColor" fill-rule="evenodd" d="M15.9999 4.5c-4.8606 0-9.1353 2.5795-11.5761 6.4794a.5.5 0 1 1-.8477-.5305C6.1887 6.2745 10.7744 3.5 16 3.5s9.8113 2.7745 12.4239 6.9489a.5.5 0 1 1-.8477.5305C25.1353 7.0794 20.8606 4.5 15.9999 4.5Zm.0002 4.5c-3.6086 0-6.7756 1.844-8.5808 4.6216a.5.5 0 0 1-.8385-.545C8.5656 10.0228 12.044 8 16.0001 8c3.956 0 7.4344 2.0228 9.4192 5.0766a.5.5 0 0 1-.8385.545C22.7756 10.844 19.6087 9 16.0001 9Zm-5.0799 7.7552C11.9892 15.0989 13.8639 14 16.0001 14c2.1361 0 4.0109 1.0989 5.0799 2.7552a.5.5 0 1 0 .8402-.5423C20.673 14.2806 18.4868 13 16.0001 13c-2.4868 0-4.673 1.2806-5.9201 3.2129a.5.5 0 1 0 .8402.5423Zm5.0803 2.153a.5.5 0 0 1 .5.5v1.0812a.5.5 0 0 1-1 0v-1.0812a.5.5 0 0 1 .5-.5Zm0 2.5183a.5.5 0 0 1 .5.5v.029a.5.5 0 0 1-1 0v-.029a.5.5 0 0 1 .5-.5ZM13 20.5c0-1.6569 1.3431-3 3-3s3 1.3431 3 3-1.3431 3-3 3-3-1.3431-3-3Zm3-4c-2.2091 0-4 1.7909-4 4 0 2.2091 1.7909 4 4 4 2.2091 0 4-1.7909 4-4 0-2.2091-1.7909-4-4-4Z" clip-rule="evenodd"/><path fill="#F68536" d="m24.5215 29.7012-1.0647.2429v-6.8953l1.0647.2434v6.409ZM25.85 30.1081l-1.3284.3775v-7.969l1.3284.3771v7.2144Z"/><path fill="#F68536" d="m27.554 30.5265-1.7041.6236v-9.2976l1.7041.6234v8.0506ZM32.1104 29.722l-4.5564 2.2782v-11l4.5564 2.2783v6.4435Z"/><path fill="#9D5025" d="m26.6458 21.4544.9082-.4542v11l-.9082-.454V21.4544ZM25.1469 22.2038l.7031-.3515v9.2959l-.7031-.3515v-8.5929ZM23.9614 22.7966l.5601-.28v7.9674l-.5601-.2803v-7.4071ZM23.4568 23.0488 23 23.2772v6.4462l.4568.2282v-6.9028Z"/></svg>