<svg xmlns="http://www.w3.org/2000/svg" fill="none" viewBox="0 0 32 33"><path fill="currentColor" fill-rule="evenodd" d="M12.5 5c0-.28.22-.5.5-.5h10.98v1H13.5v3.97a4.5 4.5 0 0 1 6.03 6.03H23.49v-4h1V16a.5.5 0 0 1-.5.5h-2.5V20a.5.5 0 0 1-.5.5h-2.5V23a.5.5 0 0 1-.5.5H7a.5.5 0 0 1-.5-.5V12c0-.28.22-.5.5-.5h2.5V9c0-.28.22-.5.5-.5h2.5V5Zm6.34 11.5a4.48 4.48 0 0 1-7.84-3 4.5 4.5 0 0 1 1.5-3.35V9.5h-2v10h9.99v-3h-1.65Zm-1.35 4h-7.5a.5.5 0 0 1-.5-.5v-7.5h-2v10h10v-2Zm7.42-14.3-1.17 4.35h-.65l1.17-4.36h.65Zm3.59 1.98c0 .4-.08.74-.23 1.01-.14.28-.35.5-.6.64-.26.15-.55.22-.87.22-.32 0-.61-.07-.87-.22a1.57 1.57 0 0 1-.6-.64 2.11 2.11 0 0 1-.23-1c0-.4.07-.74.22-1.02s.35-.49.61-.64c.26-.14.55-.22.87-.22.32 0 .6.08.86.22.26.15.47.36.61.64.15.28.23.62.23 1.01Zm-.78 0c0-.26-.04-.47-.11-.65a.88.88 0 0 0-.33-.4.86.86 0 0 0-.48-.14.86.86 0 0 0-.49.14.89.89 0 0 0-.32.4c-.08.18-.11.4-.11.65 0 .26.03.48.11.65.08.18.18.31.32.4.14.1.3.14.49.14.18 0 .35-.05.48-.14.14-.09.25-.22.33-.4.07-.17.11-.4.11-.65ZM22.83 10V6.36h-.77V10h.77Zm-7.34 7a3.5 3.5 0 1 0 0-7 3.5 3.5 0 0 0 0 7Zm0-6c.28 0 .5.22.5.5v2.58a.5.5 0 1 1-1 0V11.5c0-.28.23-.5.5-.5Zm0 4.02c.28 0 .5.22.5.5v.03a.5.5 0 1 1-1 0v-.03c0-.28.23-.5.5-.5Z" clip-rule="evenodd"/><g clip-path="url(#a)"><path fill="#0072C6" d="m26.56 22.21-3.54 3.07L20 30.7h2.72l3.84-8.49Zm.47.72-1.51 4.26 2.9 3.63-5.62.97H32l-4.97-8.86Z"/></g><defs><clipPath id="a"><path fill="#fff" d="M20 22.21h12v9.58H20z"/></clipPath></defs></svg>