<svg viewBox="0 0 16 16" fill="currentColor" xmlns="http://www.w3.org/2000/svg"><path d="M8.588 2.484c.419-.218.706-.66.706-1.17C9.294.587 8.714 0 8 0c-.715 0-1.294.588-1.294 1.313 0 .51.286.953.705 1.17v2.293c0 .132.106.239.236.239h.706c.13 0 .235-.107.235-.239V2.484ZM10 8c0 1.121-.895 2.03-2 2.03S6 9.12 6 8c0-1.121.895-2.03 2-2.03s2 .91 2 2.03Zm-1.412 5.516v-2.292a.237.237 0 0 0-.235-.24h-.706a.237.237 0 0 0-.236.24v2.292c-.419.217-.705.66-.705 1.17C6.706 15.412 7.285 16 8 16c.714 0 1.294-.588 1.294-1.314 0-.51-.287-.953-.706-1.17Zm4.847-6.113h-2.259a.237.237 0 0 0-.235.239v.716c0 .132.105.239.235.239h2.259c.214.425.65.716 1.153.716.715 0 1.294-.588 1.294-1.313s-.58-1.313-1.294-1.313c-.503 0-.939.29-1.153.716Zm-10.87 0a1.292 1.292 0 0 0-1.153-.716C.697 6.687.118 7.275.118 8s.58 1.313 1.294 1.313c.503 0 .939-.29 1.153-.716h2.259c.13 0 .235-.107.235-.239v-.716a.237.237 0 0 0-.235-.24h-2.26ZM4.59 3.749c.145-.455.04-.974-.316-1.335a1.28 1.28 0 0 0-1.83 0 1.327 1.327 0 0 0 0 1.858c.356.36.867.468 1.314.32l1.598 1.622c.091.093.24.093.332 0l.5-.507a.241.241 0 0 0 0-.337L4.59 3.749Zm7.652 7.658-1.598-1.621a.233.233 0 0 0-.332 0l-.5.506a.241.241 0 0 0 0 .338l1.598 1.621c-.145.455-.04.973.316 1.334a1.28 1.28 0 0 0 1.83 0 1.327 1.327 0 0 0 0-1.857 1.28 1.28 0 0 0-1.314-.321Zm-.053-6.867c.448.147.959.04 1.314-.32a1.327 1.327 0 0 0 0-1.858 1.28 1.28 0 0 0-1.83 0c-.355.36-.46.88-.316 1.334L9.76 5.316a.241.241 0 0 0 0 .339l.499.506c.092.093.24.093.333 0l1.597-1.62Zm-8.378 6.92a1.28 1.28 0 0 0-1.314.32 1.327 1.327 0 0 0 0 1.858 1.28 1.28 0 0 0 1.83 0c.355-.36.46-.88.316-1.334l1.597-1.62a.241.241 0 0 0 0-.338l-.499-.507a.233.233 0 0 0-.333 0L3.811 11.46Z" fill="#000"/></svg>
