<svg xmlns="http://www.w3.org/2000/svg" fill="none" viewBox="0 0 33 32"><path fill="#F68536" d="m24.521 29.701-1.064.243v-6.895l1.064.243v6.409ZM25.85 30.108l-1.328.377v-7.969l1.328.377v7.215Z"/><path fill="#F68536" d="m27.554 30.526-1.704.624v-9.298l1.704.624v8.05ZM32.11 29.722 27.554 32V21l4.556 2.278v6.444Z"/><path fill="#9D5025" d="m26.646 21.454.908-.454v11l-.908-.454V21.454ZM25.147 22.204l.703-.352v9.296l-.703-.352v-8.592ZM23.961 22.796l.56-.28v7.968l-.56-.28v-7.408ZM23.457 23.049l-.457.228v6.446l.457.228V23.05Z"/><path fill="currentColor" fill-rule="evenodd" d="M11 8V6h1v2h2V6h1v2h2V6h1v2h2V6h1v2h2a1 1 0 0 1 1 1v2.5h2v1h-2v2h2v1h-2v2h2v1h-2v2h2v1h-2V23a1 1 0 0 1-1 1h-2v2h-1v-2h-2v2h-1v-2h-2v2h-1v-2h-2v2h-1v-2H9a1 1 0 0 1-1-1v-1.5H6v-1h2v-2H6v-1h2v-2H6v-1h2v-2H6v-1h2V9a1 1 0 0 1 1-1h2Zm12 1H9v14h14V9ZM10.629 21.91V19h.79v1.136h1.045V19h.79v2.91h-.79v-1.137H11.42v1.136h-.79Zm2.92-2.274V19h2.529v.636h-.875v2.273h-.779v-2.273h-.875Zm2.747 0V19h2.528v.636h-.875v2.273h-.779v-2.273h-.875Zm2.825 2.273V19h1.256a1.2 1.2 0 0 1 .567.128.929.929 0 0 1 .377.36c.09.154.135.334.135.54 0 .209-.046.39-.139.542a.914.914 0 0 1-.388.352 1.29 1.29 0 0 1-.58.123h-.438v.864h-.79Zm1.068-1.477h-.278v-.801h.278c.093 0 .172.016.238.048a.339.339 0 0 1 .151.136.4.4 0 0 1 .055.213.412.412 0 0 1-.055.215.353.353 0 0 1-.151.14.532.532 0 0 1-.238.049Z" clip-rule="evenodd"/><path fill="currentColor" fill-rule="evenodd" d="M19.165 11.82C18.47 10.726 17.266 10 15.897 10c-1.697 0-3.14 1.114-3.675 2.666A4.089 4.089 0 0 0 12 14h.835c0-.368.062-.72.174-1.048.42-1.22 1.555-2.095 2.888-2.095 1.092 0 2.052.588 2.594 1.473h-.199a.423.423 0 0 0-.417.429c0 .236.187.428.417.428h1.29c.111 0 .217-.045.296-.125a.435.435 0 0 0 .122-.303v-1.322a.423.423 0 0 0-.418-.428.423.423 0 0 0-.417.428v.384Zm-6.747 5.238a.423.423 0 0 1-.418-.43v-1.32c0-.114.044-.223.122-.304a.412.412 0 0 1 .296-.125h1.29c.23 0 .417.192.417.428a.423.423 0 0 1-.417.429h-.364c.114.175.243.338.388.486.554.57 1.32.92 2.165.92 1.315 0 2.438-.851 2.87-2.048.124-.34.191-.709.191-1.094h.835c0 .489-.085.958-.242 1.392C19 16.914 17.573 18 15.897 18a3.836 3.836 0 0 1-2.756-1.172 3.987 3.987 0 0 1-.306-.353v.154a.423.423 0 0 1-.417.428Z" clip-rule="evenodd"/></svg>