
<svg xmlns="http://www.w3.org/2000/svg" fill="none" viewBox="0 0 33 33"><path fill="currentColor" fill-rule="evenodd" d="M25.233 5.648a.4.4 0 0 0 0 .8h.516l-2.145 1.717-2.07-1.592h.45a.4.4 0 0 0 0-.8h-1.626a.4.4 0 0 0-.4.4V7.798a.4.4 0 0 0 .8 0V6.985l2.45 1.885v3.462a.4.4 0 0 0 .8 0V8.865l2.45-1.96v.893a.4.4 0 0 0 .8 0v-1.75a.4.4 0 0 0-.4-.4h-1.625Zm-10.62.841a.5.5 0 0 1 .509 0l4.37 2.588a.5.5 0 1 1-.51.86L14.868 7.5l-7.28 4.316 7.732 4.592 4.1-2.435 1.089-.647a.5.5 0 1 1 .51.86l-1.088.647-4.113 2.442-.056 8.265 7.347-4.34v-6.658a.5.5 0 0 1 1 0v6.944a.5.5 0 0 1-.246.43L15.51 26.85a.5.5 0 0 1-.511-.002L6.35 21.68a.5.5 0 0 1-.243-.429v-9.434a.5.5 0 0 1 .245-.43l8.26-4.897Zm.148 19.052.056-8.268-7.71-4.579v8.272l7.654 4.575Z" clip-rule="evenodd"/><path fill="#326CE5" d="M27.902 27.66a.195.195 0 0 0-.124.016.202.202 0 0 0-.098.262l-.001.002.462 1.118c.443-.283.779-.705.955-1.2l-1.192-.2-.002.002Zm-1.855.158a.201.201 0 0 0-.233-.153l-.002-.003-1.182.2c.178.492.512.91.951 1.191l.458-1.106-.003-.005a.2.2 0 0 0 .01-.124Zm.99.434a.202.202 0 0 0-.356 0h-.001l-.581 1.051a2.367 2.367 0 0 0 1.524.002l-.582-1.053h-.005Zm1.839-2.44-.894.8v.002a.201.201 0 0 0-.013.292.202.202 0 0 0 .093.055v.005l1.159.333c.05-.52-.071-1.042-.345-1.488Zm-1.661.089a.202.202 0 0 0 .32.154l.004.002.978-.694a2.379 2.379 0 0 0-1.371-.661l.068 1.199h.001Zm-1.036.158a.201.201 0 0 0 .32-.154l.005-.003.068-1.2a2.358 2.358 0 0 0-1.38.66l.985.699.002-.002Zm-.525.908a.201.201 0 0 0 .08-.347v-.005l-.899-.804a2.357 2.357 0 0 0-.334 1.492l1.152-.332.001-.004Zm.873.353.332.16.33-.16.083-.357-.23-.286h-.368l-.229.286.082.357Z"/><path fill="#326CE5" d="m32.341 28.023-.945-4.104a.737.737 0 0 0-.395-.492L27.176 21.6a.737.737 0 0 0-.635 0l-3.825 1.828a.739.739 0 0 0-.395.492l-.944 4.104a.724.724 0 0 0 .1.556c.012.02.026.04.041.058l2.647 3.291c.012.015.024.027.037.04a.724.724 0 0 0 .349.207c.06.017.123.026.186.026h4.245a.7.7 0 0 0 .26-.05.757.757 0 0 0 .136-.068.721.721 0 0 0 .176-.155l.08-.1 2.566-3.192a.712.712 0 0 0 .141-.299.72.72 0 0 0 0-.315Zm-3.967 1.597c.01.031.023.062.038.092a.18.18 0 0 0-.018.135c.056.128.124.25.203.363.044.059.085.12.123.183l.03.062a.23.23 0 0 1-.286.33.23.23 0 0 1-.128-.135c-.009-.018-.021-.041-.028-.058a1.906 1.906 0 0 1-.067-.21 2.129 2.129 0 0 0-.157-.385.181.181 0 0 0-.117-.071l-.049-.088a2.963 2.963 0 0 1-2.112-.006l-.052.094a.186.186 0 0 0-.099.048 1.603 1.603 0 0 0-.177.412c-.018.07-.04.14-.066.21l-.028.058a.231.231 0 0 1-.223.153.231.231 0 0 1-.214-.163.23.23 0 0 1 .023-.185c.009-.019.02-.045.03-.062a1.92 1.92 0 0 1 .122-.183c.08-.117.15-.242.207-.372a.226.226 0 0 0-.02-.13l.041-.1a2.979 2.979 0 0 1-1.32-1.648l-.1.017a.254.254 0 0 0-.131-.046c-.136.026-.27.065-.399.117a1.94 1.94 0 0 1-.205.079l-.06.013-.004.002a.23.23 0 1 1-.105-.446l.003-.001h.002l.061-.015c.073-.01.146-.016.22-.017.139-.01.276-.032.41-.068a.316.316 0 0 0 .098-.099l.096-.028a2.962 2.962 0 0 1 .468-2.065l-.074-.066a.255.255 0 0 0-.046-.132c-.105-.09-.22-.17-.34-.239a1.915 1.915 0 0 1-.19-.11l-.048-.039-.003-.002a.243.243 0 0 1-.056-.338.22.22 0 0 1 .182-.08.273.273 0 0 1 .16.06c.015.012.037.028.05.04.054.05.104.104.151.16.094.103.197.196.309.279.042.022.09.027.136.013l.082.059a2.945 2.945 0 0 1 1.91-.918l.005-.097a.25.25 0 0 0 .075-.119 2.153 2.153 0 0 0-.026-.415 1.924 1.924 0 0 1-.031-.217v-.065a.231.231 0 0 1 .229-.254.23.23 0 0 1 .229.253v.065a1.88 1.88 0 0 1-.031.218c-.022.137-.03.276-.026.415.01.047.036.088.075.115l.005.102a3 3 0 0 1 1.9.918l.088-.062a.254.254 0 0 0 .138-.015c.112-.083.216-.177.309-.28a1.92 1.92 0 0 1 .151-.16l.051-.04a.23.23 0 0 1 .341.02.23.23 0 0 1-.056.338l-.05.04a1.9 1.9 0 0 1-.19.112 2.145 2.145 0 0 0-.34.239.181.181 0 0 0-.044.13l-.081.072c.406.605.576 1.338.477 2.06l.092.027a.258.258 0 0 0 .099.1c.134.035.272.058.41.067.074.002.147.008.22.018.02.003.047.011.067.016a.23.23 0 0 1 .154.365.229.229 0 0 1-.256.08h-.004l-.004-.002-.06-.012a1.934 1.934 0 0 1-.204-.08 2.136 2.136 0 0 0-.4-.117.181.181 0 0 0-.128.048 3.223 3.223 0 0 0-.098-.017 2.979 2.979 0 0 1-1.32 1.66Z"/><path fill="#fff" d="m32.84 28.129-1.031-4.478a.804.804 0 0 0-.432-.537l-4.173-1.993a.805.805 0 0 0-.692 0l-4.173 1.994a.805.805 0 0 0-.432.537l-1.029 4.478a.796.796 0 0 0 .154.67l2.888 3.59a.813.813 0 0 0 .623.298l4.632-.001a.813.813 0 0 0 .623-.297l2.887-3.592a.799.799 0 0 0 .155-.67Zm-.5.21a.752.752 0 0 1-.14.298l-2.566 3.191-.08.1a.718.718 0 0 1-.313.224.762.762 0 0 1-.26.05H24.738a.758.758 0 0 1-.535-.232c-.013-.013-.026-.026-.037-.04l-2.647-3.292a.76.76 0 0 1-.115-.206.739.739 0 0 1-.026-.408l.943-4.105a.738.738 0 0 1 .396-.491L26.54 21.6a.737.737 0 0 1 .635 0L31 23.428a.737.737 0 0 1 .396.492l.945 4.104a.72.72 0 0 1 0 .315Z"/><path fill="#fff" d="M30.692 27.695c-.02-.005-.047-.013-.067-.016a1.918 1.918 0 0 0-.219-.018 2.138 2.138 0 0 1-.41-.067.258.258 0 0 1-.1-.1l-.092-.026a2.974 2.974 0 0 0-.476-2.06l.08-.074a.18.18 0 0 1 .043-.13c.106-.09.22-.17.341-.238a1.89 1.89 0 0 0 .19-.111c.015-.011.035-.029.05-.041a.228.228 0 0 0 .1-.252.23.23 0 0 0-.385-.106l-.05.04a1.89 1.89 0 0 0-.151.16 2.15 2.15 0 0 1-.31.28.255.255 0 0 1-.138.015l-.087.062a3 3 0 0 0-1.9-.918l-.006-.102a.181.181 0 0 1-.074-.115 2.138 2.138 0 0 1 .026-.415 1.9 1.9 0 0 0 .03-.218v-.065a.23.23 0 0 0-.4-.177.23.23 0 0 0-.058.178l.001.006v.059c.006.073.016.145.03.217.023.137.031.277.026.415a.25.25 0 0 1-.074.119l-.005.097a2.945 2.945 0 0 0-1.91.918 3.986 3.986 0 0 1-.083-.059.18.18 0 0 1-.136-.013 2.137 2.137 0 0 1-.308-.279 1.914 1.914 0 0 0-.15-.16l-.052-.04a.273.273 0 0 0-.16-.06.221.221 0 0 0-.182.08.242.242 0 0 0 .056.337l.004.003.047.038c.061.04.125.078.19.111.121.069.235.149.34.24a.254.254 0 0 1 .047.131l.073.066a2.962 2.962 0 0 0-.467 2.065l-.096.028a.316.316 0 0 1-.098.099 2.144 2.144 0 0 1-.41.068 1.898 1.898 0 0 0-.22.017l-.061.014-.002.001-.004.001a.229.229 0 0 0-.154.365.231.231 0 0 0 .256.081h.003l.005-.002.059-.013c.07-.023.138-.049.205-.079a2.15 2.15 0 0 1 .4-.117.254.254 0 0 1 .131.046l.1-.017a2.978 2.978 0 0 0 1.32 1.648l-.042.1c.02.04.027.085.02.13-.056.13-.126.255-.206.372-.045.058-.086.12-.123.183-.01.017-.02.043-.03.061a.23.23 0 1 0 .414.197v-.001l.028-.059c.026-.068.048-.138.066-.21.04-.144.1-.283.178-.41a.187.187 0 0 1 .098-.049l.052-.094c.68.262 1.432.264 2.113.006l.049.088a.18.18 0 0 1 .116.07c.065.124.118.253.158.386.018.07.04.14.066.21l.028.058a.231.231 0 0 0 .315.13.228.228 0 0 0 .13-.235.23.23 0 0 0-.03-.09c-.01-.018-.022-.045-.03-.062a1.913 1.913 0 0 0-.123-.183 2.137 2.137 0 0 1-.203-.363.18.18 0 0 1 .017-.135.784.784 0 0 1-.038-.092 2.978 2.978 0 0 0 1.32-1.66c.03.004.08.013.098.017a.181.181 0 0 1 .128-.048c.136.026.27.066.399.118.067.03.135.056.205.079l.06.013.004.001h.003a.228.228 0 0 0 .256-.08.232.232 0 0 0 .005-.269.23.23 0 0 0-.159-.096Zm-2.175-2.332-.978.694-.004-.002a.202.202 0 0 1-.32-.154h-.002l-.068-1.2c.518.065 1 .297 1.372.662Zm-1.843 1.314h.368l.23.286-.083.357-.33.16-.332-.16-.082-.357.23-.286Zm-.346-1.933c.08-.019.162-.033.244-.042l-.068 1.2-.005.003a.202.202 0 0 1-.32.154l-.002.001-.985-.698a2.358 2.358 0 0 1 1.136-.618Zm-1.493 1.067.899.804-.001.005a.202.202 0 0 1-.08.347v.004l-1.152.332c-.058-.52.06-1.046.334-1.492Zm1.204 2.136-.458 1.106a2.37 2.37 0 0 1-.951-1.19l1.181-.2.002.002a.202.202 0 0 1 .134.021.201.201 0 0 1 .088.256l.004.005Zm1.351 1.423a2.367 2.367 0 0 1-1.292-.067l.581-1.05h.001a.202.202 0 0 1 .356 0h.004l.583 1.052a2.462 2.462 0 0 1-.233.065Zm.75-.312-.462-1.118.002-.002a.202.202 0 0 1 .221-.278l.002-.003 1.192.202a2.36 2.36 0 0 1-.954 1.199Zm1.08-1.759-1.158-.333v-.005a.201.201 0 0 1-.14-.257.203.203 0 0 1 .06-.09v-.002l.893-.8c.274.445.395.967.345 1.487Z"/></svg>