<svg viewBox="0 0 16 16" fill="none" xmlns="http://www.w3.org/2000/svg"><path d="M14.166 5.833H1.833V10.8c0 .568 0 .965.025 1.273.025.302.071.476.138.608.144.282.374.512.656.656.132.067.306.113.608.138.308.025.705.025 1.273.025h6.934c.568 0 .964 0 1.272-.025.303-.025.477-.071.609-.138.282-.144.511-.374.655-.656.067-.132.113-.306.138-.608.025-.308.025-.705.025-1.273V5.833Zm-3.557-1h3.556a12.4 12.4 0 0 0-.024-.906c-.025-.302-.071-.476-.138-.608a1.501 1.501 0 0 0-.655-.656c-.132-.067-.306-.113-.609-.138-.308-.025-.704-.025-1.272-.025h-.39l-.468 2.333Zm-4.666 0H9.59l.467-2.333H6.41l-.467 2.333ZM4.533 2.5c-.568 0-.965 0-1.273.025-.302.025-.476.071-.608.138a1.503 1.503 0 0 0-.656.656c-.067.132-.113.306-.138.608-.019.237-.023.527-.024.906h3.089L5.39 2.5h-.858Zm10.633 8.3c0 .552.001.996-.028 1.354-.03.365-.094.685-.244.98a2.5 2.5 0 0 1-1.092 1.093c-.296.151-.617.214-.982.244-.358.029-.802.029-1.353.029H4.533c-.552 0-.996 0-1.354-.03-.365-.03-.685-.092-.98-.243a2.5 2.5 0 0 1-1.094-1.092c-.15-.296-.213-.616-.243-.98-.029-.36-.029-.803-.029-1.355V5.2c0-.552 0-.996.03-1.354.03-.365.092-.685.242-.98.24-.471.623-.854 1.093-1.094.296-.15.616-.213.98-.243.36-.029.803-.029 1.355-.029h6.934c.551 0 .995 0 1.353.03.365.03.686.092.982.242a2.5 2.5 0 0 1 1.092 1.093c.15.296.214.616.244.98.029.36.028.803.028 1.355v5.6Z" fill="#ff006a"/></svg>