<svg xmlns="http://www.w3.org/2000/svg" fill="none" viewBox="0 0 32 32"><path fill="currentColor" fill-rule="evenodd" d="M21.48 7a2.56 2.56 0 1 1 5.12 0v4.14l-.19-.2a.45.45 0 0 0-.66 0l-.69.72-.7-.73a.45.45 0 0 0-.65 0l-.68.72-.64-.71a.45.45 0 0 0-.66-.01l-.25.26V7Zm2.56-3.45a3.46 3.46 0 0 0-3.46 3.46v1h-2.55v-2h-1v2h-2.01v-2h-1v2h-2v-2h-1v2H9a1 1 0 0 0-1 1v2.5L6 11.5v1l2 .02v2H6v1h2v2.01H6v1h2v2H6v1.01h2v1.5a1 1 0 0 0 1 1h2.01v2.01h1v-2h2v2h1.01v-2h2v2h1v-2h2.01v2h1v-2h2a1 1 0 0 0 1.01-1v-1.51h2v-1h-2v-2h2v-1h-2v-2.01h2v-1h-2V11.9l.7.73a.45.45 0 0 0 .65 0l.68-.72.64.7a.45.45 0 0 0 .79-.3v-5.3a3.46 3.46 0 0 0-3.46-3.46Zm-1 9.21h-.02a.45.45 0 0 1-.33-.14l-.64-.72-.69.72a.45.45 0 0 1-.78-.3v-3.3H9.01v14.02h14.03V12.76Zm-.02-6.02a.5.5 0 0 0-.5.5c0 .27.23.5.5.5a.5.5 0 0 0 .5-.5.5.5 0 0 0-.5-.5Zm1.53.5a.5.5 0 1 1 1 0 .5.5 0 1 1-1 0Zm-14.52 10.8h1.55c.45 0 .83-.1 1.15-.27.32-.18.56-.43.74-.75.17-.33.25-.72.25-1.18 0-.45-.08-.84-.25-1.17a1.77 1.77 0 0 0-.74-.75c-.31-.17-.7-.26-1.13-.26h-1.57v4.37Zm1.52-.8h-.6v-2.79h.6c.27 0 .5.05.69.15.18.1.32.24.42.45.1.2.14.47.14.8 0 .32-.05.58-.14.79-.1.2-.24.36-.42.45-.2.1-.42.15-.7.15Zm6.52.8v-4.38h-.92v2.75h-.04l-1.89-2.75h-.81v4.37h.92v-2.75h.04l1.9 2.75h.8Zm2.91-3.53c.13.1.2.23.22.4h.89c0-.25-.07-.48-.21-.68-.14-.2-.32-.35-.57-.46a2.02 2.02 0 0 0-.85-.17c-.32 0-.6.05-.85.17-.25.1-.45.26-.6.46-.14.2-.2.43-.2.7 0 .32.1.57.31.76.22.2.5.33.88.42l.47.12c.16.04.3.09.4.13.12.05.2.1.26.17s.09.15.09.25-.04.2-.1.28a.63.63 0 0 1-.27.19 1.1 1.1 0 0 1-.4.07c-.17 0-.31-.03-.44-.07a.7.7 0 0 1-.3-.22.67.67 0 0 1-.13-.37h-.89c0 .31.08.58.23.8.14.2.35.36.6.47.27.11.58.16.93.16.36 0 .66-.05.91-.16.26-.1.45-.26.58-.45.14-.2.2-.43.2-.7a1.09 1.09 0 0 0-.37-.85 1.6 1.6 0 0 0-.4-.26 2.77 2.77 0 0 0-.53-.17l-.4-.1-.26-.07a1.15 1.15 0 0 1-.23-.11.51.51 0 0 1-.15-.15.36.36 0 0 1-.05-.2c0-.1.03-.19.08-.26a.54.54 0 0 1 .24-.17 1 1 0 0 1 .39-.07c.22 0 .4.05.52.14Z" clip-rule="evenodd"/><path fill="#fff" d="m24.63 23.96-.13-2.25 1.32-.2 1.3-.15.24 2.03-.06.13 2.18 3.04.38.62v1.18l.33.28.3.81.32.45.04.28-.15.29-.9.46-.5.42-.66.46-.57.14-.48-.27-.23-.4-.92-.22-1.57.14-.37.44-.47.15-.55-.1-1-.36-.74-.07-.5-.2-.19-.26.18-.62-.09-.77.2-.33.55-.24.6-.58.42-.5.48-2.12 1.24-1.68Z"/><path fill="#fff" d="m24.72 30.56.28.37 2.32-.06.33-1.1.13-1.13.18-.38.33-.22.69.31.24.09.64-.09.33.29.3.81.32.45.04.28-.15.29-.9.46-.5.42-.66.46-.57.14-.48-.27-.23-.4-.92-.22-1.57.14-.37.44-.47.15-.55-.1-1-.36-.74-.07-.5-.2-.19-.26.18-.62-.09-.77.2-.33.55-.24.6-.58.42-.5 1.01 1.74.8 1.06Z"/><path fill="#FB0" d="m24.72 30.56.28.37 2.32-.06.33-1.1.13-1.13.18-.38.33-.22.69.31.24.09.64-.09.33.29.3.81.32.45.04.28-.15.29-.9.46-.5.42-.66.46-.57.14-.48-.27-.23-.4-.92-.22-1.57.14-.37.44-.47.15-.55-.1-1-.36-.74-.07-.5-.2-.19-.26.18-.62-.09-.77.2-.33.55-.24.6-.58.42-.5 1.01 1.74.8 1.06Z"/><path fill="#FF9C00" d="M24.45 23.52v-.29l.36-.17.61-.45.22-.06.53.15.7.29.3.2-.05.37-.35.29-.38.2-.42.22-.55.02-.3-.24-.34-.24-.33-.3Z"/><path fill="#000" d="M27.83 21.1c.06.16.1.33.13.5.08.45.07.9.06 1.36a1.85 1.85 0 0 0 .26 1.07c.18.32.42.6.65.88.34.43.66.88.88 1.38.09.21.16.42.22.64a2.64 2.64 0 0 1-.04 1.41c.03.04.07.05.1.07.17.1.24.25.3.43.04.17.07.34.14.5.04.12.14.2.2.3.1.12.18.24.21.39.05.2-.04.35-.2.47-.14.11-.3.19-.46.27-.24.12-.49.23-.7.41-.12.1-.2.23-.32.34-.23.2-.48.37-.78.45a.97.97 0 0 1-1.17-.59c-.03-.06-.06-.08-.13-.08-.2.01-.42-.02-.63-.05-.29-.05-.58-.06-.87-.01l-.58.1-.2.02a.1.1 0 0 0-.07.05.85.85 0 0 1-.54.4 1.6 1.6 0 0 1-.72.01 3.01 3.01 0 0 1-.72-.27c-.13-.06-.28-.1-.42-.13l-.53-.07-.32-.05c-.19-.03-.37-.08-.49-.25a.5.5 0 0 1-.09-.35c.02-.16.06-.3.11-.44a.47.47 0 0 0 .02-.2c-.01-.17-.04-.33-.06-.48a.64.64 0 0 1 .34-.65c.08-.05.18-.09.27-.11.2-.06.33-.18.43-.34.06-.09.12-.17.2-.24.03-.04.04-.08.03-.13a2.46 2.46 0 0 1 .07-.88c.04-.17.1-.33.16-.5a9.37 9.37 0 0 1 1.22-1.97c.19-.22.33-.48.44-.77.15-.42.17-.86.14-1.3a6.5 6.5 0 0 1 .05-1.41c.12-.51.39-.91.9-1.12a2.39 2.39 0 0 1 1.1-.15c.53.04.97.26 1.25.73.06.11.12.23.16.36Zm-3.8 4.94-.05.12a5.32 5.32 0 0 0-.37 1.04c-.03.14-.06.3-.07.44 0 .09-.02.17-.03.26-.02 0-.03 0-.03-.02a1.2 1.2 0 0 1-.23-.61c-.02-.19-.01-.37.03-.56.04-.15.08-.3.14-.43.07-.2.18-.37.27-.56l.05-.1c0-.03.04-.06.03-.1-.18.28-.34.57-.47.87-.11.28-.2.58-.2.9 0 .13 0 .27.05.4.1.3.28.52.54.68.26.17.52.34.74.57.16.16.3.34.37.56.07.24-.07.44-.31.45-.02 0-.04 0-.06.02l.02.04c.1.12.2.25.28.38l.04.03c.28.19.6.3.93.33.29.02.58 0 .86-.09.22-.07.43-.16.64-.28.11-.07.23-.12.26-.28.04-.19.1-.38.12-.57l.04-.55c.02-.17.05-.34.1-.5.07-.2.18-.36.37-.45.08-.04.1-.09.12-.16.02-.13.1-.22.22-.27.15-.06.3-.03.44 0 .17.06.34.14.5.23l.19.15c.06.08.1.17.09.27 0 .02 0 .04.02.05.03 0 .04-.01.06-.03v-.06a.41.41 0 0 0-.12-.32 1.7 1.7 0 0 0-.54-.35c-.06-.03-.08-.06-.07-.11a1.7 1.7 0 0 0-.03-.82 2.92 2.92 0 0 0-.75-1.26c-.02-.02-.03-.04-.06-.04 0 .04.02.07.05.1a2.62 2.62 0 0 1 .56.89 1.66 1.66 0 0 1 .08.9l-.06.2c0 .01-.01.03-.04.03a1.08 1.08 0 0 0-.2-.03c-.03 0-.05-.02-.05-.05a4.92 4.92 0 0 0-.41-1.2 13.5 13.5 0 0 1-.66-1.44c-.1-.28-.2-.55-.28-.84l-.07-.2-.02.03a1 1 0 0 1-.41.27c-.11.04-.22.09-.31.15-.19.12-.37.22-.6.23a1 1 0 0 1-.26-.02.88.88 0 0 1-.4-.24 1.4 1.4 0 0 0-.3-.22c-.02.02-.02.05-.03.07 0 .18-.05.35-.1.52-.06.25-.14.49-.24.73-.11.28-.24.57-.38.85ZM21.27 31c.03.03.06.05.1.06.14.06.3.08.44.1.17.04.33.06.5.08.23.04.45.1.66.19.25.1.5.21.78.25.19.03.38.02.56-.04a.67.67 0 0 0 .4-.9c-.08-.2-.2-.37-.34-.54-.14-.18-.28-.35-.4-.54-.16-.22-.26-.46-.39-.7a2.02 2.02 0 0 0-.46-.6c-.22-.19-.46-.2-.68 0l-.13.16c-.1.12-.19.26-.33.35-.11.07-.24.11-.36.16-.14.06-.28.13-.34.28-.05.12-.04.25-.02.38 0 .13.03.26.03.4 0 .07 0 .14-.02.22-.05.15-.1.31-.08.48 0 .08.02.15.08.21Zm8.96-2.06-.05-.14a.5.5 0 0 0-.2-.25.5.5 0 0 0-.2-.07.44.44 0 0 0-.34.08c-.23.18-.47.32-.78.3a.27.27 0 0 1-.12-.05.77.77 0 0 1-.33-.54c-.02-.07-.03-.08-.1-.04a.44.44 0 0 0-.16.16c-.1.18-.12.38-.15.58l-.07.61c-.04.3-.12.6-.2.9-.06.23-.1.45-.1.68.02.2.11.35.24.48.21.2.48.22.75.17.22-.04.4-.15.57-.29.17-.14.32-.28.47-.43.23-.2.5-.34.78-.47.16-.08.32-.17.45-.3.09-.07.1-.16.08-.27a.77.77 0 0 0-.1-.2c-.07-.12-.16-.22-.23-.33-.11-.18-.14-.38-.2-.58Zm-5.66-5.54c0 .15.13.35.27.4h.04l.2-.07-.06-.05-.24-.21c-.02-.02-.05-.04-.03-.07.02 0 .03 0 .05.02l.21.18c.24.2.52.28.83.2.18-.03.34-.12.5-.21l.39-.21c.03-.02.07-.06.1-.01.01.04-.05.04-.08.06a.63.63 0 0 0-.17.1l.03.01c.13.02.27-.02.4.04.02.01.03 0 .04-.02.06-.1.08-.2.03-.3a.39.39 0 0 0-.27-.21c-.04 0-.08-.01-.11-.04a.74.74 0 0 0-.13-.06c-.1-.04-.19-.07-.27-.13-.1-.06-.22-.11-.34-.15-.16-.04-.33-.09-.5.01h-.03c-.06 0-.11.03-.16.07l-.62.49a.23.23 0 0 0-.08.16Zm2.33-.42.03-.03a.9.9 0 0 0 .14-.59.88.88 0 0 0-.17-.46.5.5 0 0 0-.33-.2c-.23-.04-.4.06-.52.25a.9.9 0 0 0-.14.57c0 .02 0 .04.02.05l.21.08c.03-.04.02-.07.02-.1 0-.1.03-.21.1-.3.1-.17.28-.16.38 0 .11.19.1.37.02.56-.01.02-.03.04-.02.07l.26.1Zm-1.45-.6-.02-.08a.7.7 0 0 0-.2-.4c-.15-.14-.36-.12-.49.06a.9.9 0 0 0 0 .93c.06.12.08.12.19.03v-.02l-.01-.03c-.13-.17-.13-.35-.06-.53.02-.06.06-.11.14-.12.07 0 .11.05.15.1.07.1.09.22.08.34.04 0 .06-.03.09-.04.15-.07.15-.07.13-.24Zm.68 1.38c-.1.06-.22.09-.34.13.23.05.44-.02.51-.2l-.17.07Z"/><path fill="#FF9C00" d="M24.92 23.83c-.1-.05-.16-.09-.11-.07-.1-.1.12-.18.22-.09.09.1.38.23.57.22.3 0 .79-.26.97-.37.27-.16.27-.01.42-.08.06 0 .15.04 0 .19-.19.19-.29.25-.49.33-.28.11-.4.3-.83.3-.45 0-.51-.3-.75-.43ZM25.16 22.84l.22.08c.22 0 .57-.24.55-.24-.02 0-.13-.11-.42-.07a.95.95 0 0 0-.35.23Z"/></svg>