<svg xmlns="http://www.w3.org/2000/svg" fill="none" viewBox="0 0 32 33"><path fill="currentColor" fill-rule="evenodd" d="M16.0023 5.688c-6.0751 0-11 4.9249-11 11 0 2.8577 1.0897 5.4609 2.8763 7.4166L23.419 8.5643C21.4632 6.7777 18.86 5.688 16.0023 5.688Zm0 22c-2.8577 0-5.4608-1.0897-7.4166-2.8763L24.1261 9.2714c1.7865 1.9558 2.8762 4.5589 2.8762 7.4166 0 .9266-.1144 1.8258-.3298 2.6845a.5001.5001 0 0 0 .97.2432 12.0236 12.0236 0 0 0 .3598-2.9277c0-6.6274-5.3726-12-12-12s-12 5.3726-12 12 5.3726 12 12 12c.9789 0 1.931-.1173 2.8428-.3389a.5.5 0 1 0-.2361-.9717 11.0288 11.0288 0 0 1-2.6067.3106Zm1.1732-15.3829v1.0884l-.5717.5717H15.421v-1.6601h1.7545Zm-1.7545 1.9921h.8508l-.8508.8508v-.8508Zm-.319 0v1.1698l-.4903.4903h-1.2643v-1.6601h1.7546Zm-7.1458 1.9921h6.3235L9.45 21.119a4.777 4.777 0 0 1-.3294-.364c-1.308-1.5937-1.308-3.6688-1.1963-4.3329l.0319-.1328Zm5.5507 6.2917c-.4184 0-.8151-.0288-1.1899-.0864l6.2053-6.2053h.966c.6061 0 1.0687-.166 1.292-.2988-.2393-.3652-.319-.7802-.335-1.0127a3.3412 3.3412 0 0 1 .0146-.626l1.2064-1.2065c.5345.4787.8439 1.0134.9164 1.6167.6858-.1328 1.5631-.0332 1.9459.2324l.3509.2159-.0638.1328c-.1116.249-.1435.3154-.1595.3486-.6221 1.245-1.8502 1.2616-2.4244 1.245-1.4515 3.6356-4.5459 5.6443-8.7249 5.6443Zm5.7421-6.6237h-.3947l.3947-.3947v.3947Zm-2.0735-5.6443H15.421v1.6601h1.7545V10.313Zm-2.0735 1.9921h-1.7546v1.6601h1.7546v-1.6601Zm-2.0736 0h-1.7545v1.6601h1.7545v-1.6601Zm-2.0735 1.9921H9.2003v1.6601h1.7546v-1.6601Zm2.0735 0h-1.7545v1.6601h1.7545v-1.6601Z" clip-rule="evenodd"/><path fill="#326CE5" d="M27.0453 27.6598a.1955.1955 0 0 0-.0464-.0035.1982.1982 0 0 0-.0773.0201.2024.2024 0 0 0-.0978.2617l-.0014.002.4625 1.1175a2.3613 2.3613 0 0 0 .9544-1.1988l-1.192-.2015-.002.0025Zm-1.8547.1584a.2015.2015 0 0 0-.1935-.157.1965.1965 0 0 0-.0398.0036l-.002-.0025-1.1816.2006c.1775.4907.5119.9091.9514 1.1903l.4579-1.1065-.0036-.0043a.1998.1998 0 0 0 .0112-.1242Zm.9896.4339a.202.202 0 0 0-.2816-.0775.2008.2008 0 0 0-.074.0779h-.001l-.5811 1.0508a2.3674 2.3674 0 0 0 1.2917.0664 2.4492 2.4492 0 0 0 .2328-.0651l-.5824-1.0525h-.0044Zm1.8395-2.4408-.8941.8002.0005.0026a.2028.2028 0 0 0-.064.1971.2017.2017 0 0 0 .1432.1497l.0011.0049 1.158.3335a2.4019 2.4019 0 0 0-.3447-1.4879v-.0001Zm-1.661.0897a.2026.2026 0 0 0 .0333.1022.2028.2028 0 0 0 .1868.0897.2016.2016 0 0 0 .1006-.0379l.0035.0015.9783-.6936a2.3791 2.3791 0 0 0-1.3715-.6612l.0679 1.199.0011.0003Zm-1.036.1584a.2018.2018 0 0 0 .3203-.1546l.005-.0023.0679-1.2008a2.431 2.431 0 0 0-.2441.042 2.3576 2.3576 0 0 0-1.1356.6189l.9846.698.0019-.0012Zm-.5249.9074a.2011.2011 0 0 0 .1436-.1497.2014.2014 0 0 0-.0643-.1972l.001-.0048-.899-.804a2.3572 2.3572 0 0 0-.3345 1.4921l1.1523-.3325.0009-.0039Zm.8731.3532.3317.1595.3306-.1592.0821-.3569-.2288-.2862h-.3683l-.2295.2857.0822.3571Z"/><path fill="#326CE5" d="m31.4848 28.0233-.945-4.1045a.7376.7376 0 0 0-.3956-.4921l-3.825-1.8263a.737.737 0 0 0-.6348 0l-3.8243 1.8272a.7388.7388 0 0 0-.3957.4921l-.9434 4.1044a.7224.7224 0 0 0-.0002.3152.7385.7385 0 0 0 .0266.0932.7102.7102 0 0 0 .1144.2055l2.647 3.2912c.0116.0143.0243.0273.037.0406a.7239.7239 0 0 0 .1396.1157.755.755 0 0 0 .2092.091.7218.7218 0 0 0 .186.0256h.0412l4.2038-.0009a.6961.6961 0 0 0 .0764-.0045.744.744 0 0 0 .1079-.0205.7502.7502 0 0 0 .0749-.024.7425.7425 0 0 0 .0567-.0235.7475.7475 0 0 0 .0802-.0446.7234.7234 0 0 0 .1756-.1554l.0807-.1003 2.5655-3.1915a.7148.7148 0 0 0 .1143-.2053.7194.7194 0 0 0 .0271-.0935.7191.7191 0 0 0-.0001-.3148Zm-3.9675 1.5964a.7913.7913 0 0 0 .0382.0924.1798.1798 0 0 0-.0178.135c.0557.1275.1237.2492.203.3634.0444.0584.0854.1194.1227.1825.0093.0171.0213.0435.03.0616a.2291.2291 0 0 1 .0227.185.2305.2305 0 0 1-.1217.141.2306.2306 0 0 1-.1863.0046.23.23 0 0 1-.1285-.1349c-.0088-.0179-.0209-.0418-.0283-.0587a1.9063 1.9063 0 0 1-.0665-.2098 2.1294 2.1294 0 0 0-.1571-.385.1809.1809 0 0 0-.1168-.0709c-.0073-.0126-.0344-.0623-.049-.088a2.9624 2.9624 0 0 1-2.1125-.0054l-.0518.0938a.186.186 0 0 0-.0986.0481 1.5993 1.5993 0 0 0-.1773.4113 1.883 1.883 0 0 1-.0661.2098c-.0073.0168-.0195.0403-.0283.0582l-.0003.0009a.2329.2329 0 0 1-.05.0812.23.23 0 0 1-.3633-.2773c.0086-.0182.0202-.0445.0293-.0616a1.902 1.902 0 0 1 .1227-.183 2.2398 2.2398 0 0 0 .2072-.3724.2273.2273 0 0 0-.0204-.1294l.0416-.0998a2.9788 2.9788 0 0 1-1.32-1.6482l-.0998.017a.254.254 0 0 0-.1317-.0464 2.1489 2.1489 0 0 0-.399.1174 1.9314 1.9314 0 0 1-.2054.0787c-.0165.0045-.0404.0091-.0592.0132-.0016.0006-.0029.0012-.0044.0016a.0207.0207 0 0 1-.0035.0003.2305.2305 0 0 1-.1849-.0182.2304.2304 0 0 1-.1109-.149.23.23 0 0 1 .1941-.2788l.0034-.0009.002-.0005c.0191-.0045.0436-.0109.0611-.0142a1.9228 1.9228 0 0 1 .2197-.0177 2.1338 2.1338 0 0 0 .4102-.0674.3159.3159 0 0 0 .0984-.0992l.0959-.028a2.9623 2.9623 0 0 1 .4671-2.0651l-.0734-.0654a.2534.2534 0 0 0-.046-.1321 2.138 2.138 0 0 0-.3404-.2392 1.9037 1.9037 0 0 1-.1898-.111c-.0139-.0103-.0323-.0259-.0474-.0382l-.0034-.0023a.2427.2427 0 0 1-.0563-.3375.2193.2193 0 0 1 .1824-.0807.2726.2726 0 0 1 .1595.0602c.0156.0122.0369.0285.0508.0404.0532.0504.1036.1038.1507.16a2.138 2.138 0 0 0 .3087.2789.1809.1809 0 0 0 .1359.0132c.0273.0199.0548.0394.0826.0587a2.9447 2.9447 0 0 1 1.4958-.8546 2.9926 2.9926 0 0 1 .4138-.0636l.0054-.0968a.2487.2487 0 0 0 .0743-.1184 2.1376 2.1376 0 0 0-.0255-.4152 1.947 1.947 0 0 1-.0312-.2177c-.0006-.0166.0003-.0396.0005-.0586 0-.0022-.0005-.0044-.0005-.0064a.2294.2294 0 0 1 .1354-.2335.2293.2293 0 0 1 .1868-.0001.2298.2298 0 0 1 .1356.2334c0 .02.0012.0466.0005.065a1.8802 1.8802 0 0 1-.0314.2177 2.1384 2.1384 0 0 0-.0259.4153.1811.1811 0 0 0 .0748.1144c.0008.0166.0035.0718.0055.1022a2.9994 2.9994 0 0 1 1.9001.9181l.0871-.0622a.2547.2547 0 0 0 .1389-.0151 2.1394 2.1394 0 0 0 .3086-.2792 1.9043 1.9043 0 0 1 .1512-.16c.014-.0121.0352-.0282.0507-.0405a.2305.2305 0 0 1 .3415.0205.23.23 0 0 1-.0563.3374c-.0153.0124-.0356.0297-.0504.0407a1.8896 1.8896 0 0 1-.1902.1109 2.1444 2.1444 0 0 0-.3404.2392.1815.1815 0 0 0-.043.1297c-.0127.0117-.0575.0513-.0812.0728a2.974 2.974 0 0 1 .4769 2.0602l.0924.0269a.258.258 0 0 0 .0987.0993 2.137 2.137 0 0 0 .4105.0675 1.944 1.944 0 0 1 .2195.0176c.0192.0035.047.0112.0667.0157a.229.229 0 0 1 .1586.0966.23.23 0 0 1-.0044.2686.2301.2301 0 0 1-.2561.0808l-.0033-.0004c-.0015-.0004-.0029-.0012-.0045-.0016-.0189-.0041-.0426-.0082-.0591-.0125a1.9253 1.9253 0 0 1-.2053-.0793 2.138 2.138 0 0 0-.3994-.1175.181.181 0 0 0-.1281.0476 3.223 3.223 0 0 0-.0978-.0171 2.9792 2.9792 0 0 1-1.3196 1.66Z"/><path fill="#fff" d="m31.9833 28.1286-1.0309-4.478a.8033.8033 0 0 0-.1555-.317.8035.8035 0 0 0-.2762-.22l-4.1729-1.9922a.8038.8038 0 0 0-.6926 0l-4.1726 1.9934a.8048.8048 0 0 0-.4318.5367l-1.0291 4.4782a.7958.7958 0 0 0 .1537.6697l2.888 3.591a.8132.8132 0 0 0 .6237.2976l4.6313-.0011a.8127.8127 0 0 0 .6238-.2973l2.887-3.5912a.799.799 0 0 0 .1541-.6697v-.0001Zm-.4988.2096a.7518.7518 0 0 1-.027.0935.7154.7154 0 0 1-.1145.2053l-2.5655 3.1914-.0806.1004a.7179.7179 0 0 1-.1757.1554.7432.7432 0 0 1-.0799.0446.696.696 0 0 1-.0567.0233.7616.7616 0 0 1-.1829.0447.698.698 0 0 1-.0765.0045l-4.2037.001h-.0413a.7224.7224 0 0 1-.186-.0256.7558.7558 0 0 1-.209-.0911.7251.7251 0 0 1-.1398-.1157c-.0126-.0133-.0254-.0264-.0369-.0406l-2.6471-3.2912a.7106.7106 0 0 1-.1143-.2057.7226.7226 0 0 1-.0267-.0932.7235.7235 0 0 1 .0002-.3151l.9435-4.1046a.7378.7378 0 0 1 .3957-.4919l3.8243-1.8271a.737.737 0 0 1 .6348 0l3.8249 1.8263a.7367.7367 0 0 1 .3956.4921l.945 4.1045a.7215.7215 0 0 1 .0001.315v-.0002Z"/><path fill="#fff" d="M29.8357 27.6945c-.0196-.0045-.0474-.0122-.0666-.0157a1.9176 1.9176 0 0 0-.2194-.0177 2.1364 2.1364 0 0 1-.4106-.0673.2576.2576 0 0 1-.0987-.0994l-.0925-.0269a2.9744 2.9744 0 0 0-.4767-2.0602c.0236-.0215.0684-.0611.0811-.0728a.1807.1807 0 0 1 .0429-.1296 2.1433 2.1433 0 0 1 .3405-.2392 1.8904 1.8904 0 0 0 .1902-.111c.0148-.0109.0349-.0283.0504-.0407a.2293.2293 0 0 0 .1033-.1561.23.23 0 0 0-.3884-.2018c-.0156.0123-.0369.0284-.0508.0405a1.9052 1.9052 0 0 0-.1512.16 2.146 2.146 0 0 1-.3087.2792.2542.2542 0 0 1-.1388.0151l-.0871.0622a2.9998 2.9998 0 0 0-1.9001-.9181c-.0021-.0304-.0047-.0855-.0056-.1022a.1813.1813 0 0 1-.0746-.1144 2.1384 2.1384 0 0 1 .0259-.4153 1.9 1.9 0 0 0 .0312-.2176c.0007-.0184-.0004-.0452-.0004-.0651a.2295.2295 0 0 0-.0583-.1774.2295.2295 0 0 0-.1708-.0758.231.231 0 0 0-.1706.0759.2294.2294 0 0 0-.0581.1775c0 .0021.0004.0042.0005.0064-.0002.019-.0011.042-.0005.0586.0062.0731.0166.1458.0312.2177a2.145 2.145 0 0 1 .0255.4152.2495.2495 0 0 1-.0743.1183l-.0054.0969a2.9813 2.9813 0 0 0-.4139.0636 2.945 2.945 0 0 0-1.4956.8545 4.2797 4.2797 0 0 1-.0828-.0587.1805.1805 0 0 1-.1359-.0132 2.1366 2.1366 0 0 1-.3086-.2788 1.9136 1.9136 0 0 0-.1506-.16c-.014-.012-.0353-.0282-.0509-.0407a.2729.2729 0 0 0-.1596-.0602.221.221 0 0 0-.1824.0808.2425.2425 0 0 0 .0563.3375l.0035.0025c.015.0122.0335.0279.0473.0381a1.915 1.915 0 0 0 .1898.111c.121.0685.235.1487.3404.2393a.2544.2544 0 0 1 .0461.1321l.0733.0655a2.9621 2.9621 0 0 0-.4671 2.065l-.0958.0279a.3166.3166 0 0 1-.0984.0991 2.1443 2.1443 0 0 1-.4103.0677 1.9002 1.9002 0 0 0-.2197.0176c-.0175.0033-.0419.0095-.0611.0142l-.002.0005-.0032.001a.2294.2294 0 0 0-.1941.2788.2292.2292 0 0 0 .2014.1776.23.23 0 0 0 .0943-.0104l.0035-.0005c.0015-.0004.0028-.0011.0043-.0014.0189-.0043.0426-.0088.0592-.0133a1.9314 1.9314 0 0 0 .2054-.0787 2.1502 2.1502 0 0 1 .3991-.1175.254.254 0 0 1 .1316.0465l.0998-.0171a2.9787 2.9787 0 0 0 1.3201 1.6482l-.0417.0998a.2277.2277 0 0 1 .0205.1295 2.243 2.243 0 0 1-.2072.3723 1.9077 1.9077 0 0 0-.1228.1829c-.0091.0172-.0206.0436-.0294.0617a.2294.2294 0 0 0-.023.1849.2305.2305 0 0 0 .2142.1633.2312.2312 0 0 0 .0936-.0173.2297.2297 0 0 0 .1286-.1348l.0004-.0004v-.0005c.0087-.0179.021-.0414.0283-.0582a1.8975 1.8975 0 0 0 .0661-.2098 1.6018 1.6018 0 0 1 .1772-.4112.1865.1865 0 0 1 .0987-.0482l.0519-.0938a2.9622 2.9622 0 0 0 2.1124.0053c.0145.026.0416.0755.0488.0881a.1808.1808 0 0 1 .1169.071 2.139 2.139 0 0 1 .1572.3849c.0181.0712.0403.1412.0664.2098.0075.0169.0195.0407.0283.0587a.2312.2312 0 0 0 .1285.1349.2298.2298 0 0 0 .2621-.0622.2307.2307 0 0 0 .0542-.1783.2292.2292 0 0 0-.0309-.09c-.0088-.0181-.0208-.0445-.0299-.0617a1.8935 1.8935 0 0 0-.1227-.1824 2.1448 2.1448 0 0 1-.203-.3634.1805.1805 0 0 1 .0176-.1351.7836.7836 0 0 1-.0381-.0924 2.9784 2.9784 0 0 0 1.3195-1.6599 3.554 3.554 0 0 1 .098.0171.181.181 0 0 1 .128-.0476c.1365.0261.2702.0654.3992.1175.0669.0303.1355.0568.2054.0792.0166.0044.0402.0085.0592.0127.0015.0004.0029.0011.0045.0015l.0032.0005a.2292.2292 0 0 0 .2956-.1672.2287.2287 0 0 0-.0353-.1822.2293.2293 0 0 0-.1584-.0967Zm-2.175-2.3316-.9783.6936-.0035-.0016a.2012.2012 0 0 1-.2063.0189.2023.2023 0 0 1-.1144-.1729l-.0011-.0005-.0679-1.1988a2.3787 2.3787 0 0 1 1.3715.6613Zm-1.843 1.3142h.3682l.2289.2861-.0821.3569-.3306.1592-.3316-.1595-.0822-.3571.2294-.2856Zm-.3463-1.9336a2.4278 2.4278 0 0 1 .2442-.0419l-.0681 1.2006-.005.0024a.2013.2013 0 0 1-.1138.1732.2018.2018 0 0 1-.2064-.0185l-.0019.0011-.9846-.6982a2.358 2.358 0 0 1 1.1356-.6187Zm-1.4927 1.0675.899.804-.001.0049a.2024.2024 0 0 1 .0642.1972.2022.2022 0 0 1-.051.0947.2023.2023 0 0 1-.0925.0549l-.0009.004-1.1523.3324a2.3559 2.3559 0 0 1 .3345-1.4921Zm1.2036 2.1359-.4578 1.1063a2.3699 2.3699 0 0 1-.9512-1.1904l1.1815-.2007.0021.0027a.2016.2016 0 0 1 .0395-.0036.2023.2023 0 0 1 .1663.092.2008.2008 0 0 1 .0162.1893l.0034.0044Zm1.3515 1.4227a2.3677 2.3677 0 0 1-1.2918-.0663l.5811-1.0508h.001a.202.202 0 0 1 .3556-.0003h.0044l.5825 1.0525a2.4617 2.4617 0 0 1-.2328.0649Zm.7507-.3119-.4626-1.1176.0014-.002a.202.202 0 0 1 .0978-.2616.195.195 0 0 1 .1237-.0167l.002-.0025 1.192.2015a2.3613 2.3613 0 0 1-.9543 1.1989Zm1.0795-1.7585-1.1581-.3335-.0011-.0049a.2022.2022 0 0 1-.0792-.3469l-.0004-.0023.8939-.8001c.2738.4452.3949.9675.3449 1.4877Z"/></svg>