<svg viewBox="0 0 16 16" fill="none" xmlns="http://www.w3.org/2000/svg"><path d="m10.074 7.024-3.177-.001-.354.598.883.51a.5.5 0 1 1-.5.867l-.888-.513-.253.438.888.513a.5.5 0 0 1-.5.866l-.888-.513-.252.438.888.513a.5.5 0 1 1-.5.866l-.888-.513-.497.86a1.382 1.382 0 1 0 2.394 1.383l3.644-6.312Zm2.416-1.927a.253.253 0 0 0-.092-.346L8.485 2.492a.253.253 0 0 0-.252.439l1.956 1.129a.5.5 0 0 1-.5.866l-1.197-.69-.785 1.359h-.001l-.24.428h3.2l.463-.827a.507.507 0 0 1 .696-.191l.32.184c.12.07.276.029.345-.092Zm.866.5a1.252 1.252 0 0 1-1.595.517l-.365.654-.009.015-.42.694-3.67 6.358a2.382 2.382 0 0 1-4.127-2.382l2.255-3.906.751-1.268.661-1.178.003-.006.79-1.366a1.252 1.252 0 0 1 1.355-2.103l3.913 2.26c.6.345.804 1.112.458 1.71Z" fill="#ff006a"/></svg>