<svg xmlns="http://www.w3.org/2000/svg" fill="none" viewBox="0 0 33 33"><path fill="currentColor" fill-rule="evenodd" d="M16.328 5.688c-6.075 0-11 4.925-11 11 0 2.858 1.09 5.46 2.876 7.417l15.54-15.54a10.96 10.96 0 0 0-7.416-2.877Zm0 22a10.96 10.96 0 0 1-7.417-2.876l15.54-15.54a10.96 10.96 0 0 1 2.877 7.416c0 .927-.114 1.826-.33 2.684a.5.5 0 0 0 .97.244c.235-.938.36-1.919.36-2.928 0-6.627-5.372-12-12-12-6.627 0-12 5.373-12 12s5.373 12 12 12c.979 0 1.931-.117 2.843-.339a.5.5 0 1 0-.236-.972c-.835.203-1.708.311-2.607.311Zm3.088-16.587.017.008-.664.663a5.425 5.425 0 0 0-.958-.388.945.945 0 0 1-.683-.9v-.75a.05.05 0 0 0-.05-.05h-1.5a.05.05 0 0 0-.05.05v.75a.884.884 0 0 1-.666.85 5.43 5.43 0 0 0-1.315.535.866.866 0 0 1-1.04-.133l-.53-.53a.05.05 0 0 0-.071 0l-1.06 1.06a.05.05 0 0 0 0 .071l.53.53a.854.854 0 0 1 .129 1.031c-.24.416-.427.866-.552 1.342a.861.861 0 0 1-.828.648h-.75a.05.05 0 0 0-.05.05v1.5c0 .028.022.05.05.05h.75c.418 0 .757.288.864.66.101.35.236.686.401 1.003l-.663.663a6.336 6.336 0 0 1-.608-1.426h-.744a.95.95 0 0 1-.95-.95v-1.5a.95.95 0 0 1 .95-.95h.714a6.338 6.338 0 0 1 .621-1.513l-.501-.502a.95.95 0 0 1 0-1.343l1.06-1.06a.95.95 0 0 1 1.344 0l.507.507a6.334 6.334 0 0 1 1.508-.611v-.731a.95.95 0 0 1 .95-.95h1.5a.95.95 0 0 1 .95.95v.75c0 .003 0 .008.006.016a.065.065 0 0 0 .033.02c.476.142.928.338 1.35.58Zm-3.088 1.628c.446 0 .875.073 1.276.208l-.738.738a3.067 3.067 0 0 0-3.562 3.562l-.736.736a3.967 3.967 0 0 1 3.76-5.244Zm3.76 2.674-.735.735a3.067 3.067 0 0 1-3.562 3.563l-.739.738c.4.135.83.208 1.276.208a3.967 3.967 0 0 0 3.76-5.244Zm-5.29 6.504a5.423 5.423 0 0 1-.886-.328l-.67.67a.12.12 0 0 1 .014.007c.41.218.847.393 1.304.519.024.006.042.02.054.034.01.013.014.025.014.036v.796c0 .525.425.95.95.95h1.5a.95.95 0 0 0 .95-.95v-.843c0-.01.003-.022.013-.035a.104.104 0 0 1 .052-.034c.437-.132.855-.31 1.247-.528a.103.103 0 0 1 .06-.013.056.056 0 0 1 .036.015l.605.605a.95.95 0 0 0 1.343 0l1.06-1.06a.95.95 0 0 0 0-1.344l-.61-.61a.056.056 0 0 1-.015-.035.104.104 0 0 1 .013-.061 6.34 6.34 0 0 0 .521-1.245.103.103 0 0 1 .034-.051.056.056 0 0 1 .036-.014h.858a.95.95 0 0 0 .95-.95v-1.5a.95.95 0 0 0-.95-.95h-.825a.057.057 0 0 1-.036-.014.104.104 0 0 1-.034-.053 6.332 6.332 0 0 0-.519-1.297l-.67.67c.13.278.239.567.322.868a.98.98 0 0 0 .938.726h.824a.05.05 0 0 1 .05.05v1.5a.05.05 0 0 1-.05.05h-.858a.98.98 0 0 0-.932.708 5.431 5.431 0 0 1-.448 1.068.98.98 0 0 0 .155 1.166l.61.61a.05.05 0 0 1 0 .071l-1.06 1.06a.05.05 0 0 1-.07 0l-.606-.604a.98.98 0 0 0-1.17-.153c-.336.187-.695.34-1.07.453a.98.98 0 0 0-.704.931v.843a.05.05 0 0 1-.05.05h-1.5a.05.05 0 0 1-.05-.05v-.796a.98.98 0 0 0-.73-.938Z" clip-rule="evenodd"/><path fill="#326CE5" d="M27.371 27.66a.196.196 0 0 0-.124.016.202.202 0 0 0-.097.262l-.002.002.463 1.118c.442-.283.778-.705.954-1.2l-1.192-.2-.002.002Zm-1.855.158a.201.201 0 0 0-.233-.153l-.002-.003-1.181.2c.177.492.511.91.95 1.191l.459-1.106-.004-.005a.2.2 0 0 0 .011-.124Zm.99.434a.202.202 0 0 0-.356 0l-.582 1.051a2.367 2.367 0 0 0 1.525.002l-.583-1.053h-.004Zm1.84-2.44-.895.8v.002a.202.202 0 0 0 .08.347l.001.005 1.158.333a2.402 2.402 0 0 0-.345-1.488Zm-1.662.089a.203.203 0 0 0 .321.154l.004.002.978-.694a2.38 2.38 0 0 0-1.371-.661l.067 1.199h.002Zm-1.036.158a.202.202 0 0 0 .32-.154l.006-.003.068-1.2a2.358 2.358 0 0 0-1.38.66l.985.699.002-.002Zm-.524.908a.201.201 0 0 0 .079-.347v-.005l-.898-.804a2.357 2.357 0 0 0-.335 1.492l1.153-.332v-.004Zm.873.353.331.16.331-.16.082-.357-.229-.286h-.368l-.23.286.083.357Z"/><path fill="#326CE5" d="m31.81 28.023-.944-4.104a.738.738 0 0 0-.396-.492L26.645 21.6a.737.737 0 0 0-.635 0l-3.824 1.828a.739.739 0 0 0-.396.492l-.943 4.104a.722.722 0 0 0 .1.556c.012.02.026.04.04.058l2.648 3.291c.011.015.024.027.037.04a.724.724 0 0 0 .348.207c.061.017.124.026.186.026h4.245a.7.7 0 0 0 .26-.05.742.742 0 0 0 .137-.068.723.723 0 0 0 .175-.155l.08-.1 2.566-3.192a.712.712 0 0 0 .142-.299.72.72 0 0 0 0-.315Zm-3.967 1.597c.01.031.024.062.038.092a.18.18 0 0 0-.018.135c.056.128.124.25.204.363.044.059.085.12.122.183.01.017.021.043.03.062a.23.23 0 0 1-.099.326.23.23 0 0 1-.315-.13l-.028-.06a1.906 1.906 0 0 1-.066-.21 2.13 2.13 0 0 0-.157-.384.18.18 0 0 0-.117-.071l-.05-.088a2.962 2.962 0 0 1-2.112-.006l-.052.094a.186.186 0 0 0-.098.048 1.6 1.6 0 0 0-.177.412c-.018.07-.04.14-.067.21l-.028.058a.231.231 0 0 1-.223.153.23.23 0 0 1-.19-.348l.029-.062c.037-.063.078-.124.122-.183.081-.117.15-.242.208-.372a.226.226 0 0 0-.02-.13l.04-.1a2.979 2.979 0 0 1-1.32-1.648l-.099.017a.254.254 0 0 0-.132-.046c-.136.026-.27.065-.399.117-.067.03-.135.056-.205.079l-.06.013-.004.002a.23.23 0 0 1-.3-.262.23.23 0 0 1 .195-.184l.004-.001h.002l.06-.015c.073-.01.147-.016.22-.017.139-.01.276-.032.41-.068a.316.316 0 0 0 .099-.099l.096-.028a2.962 2.962 0 0 1 .467-2.065l-.073-.066a.253.253 0 0 0-.046-.132c-.106-.09-.22-.17-.34-.239a1.904 1.904 0 0 1-.19-.11l-.048-.039-.003-.002a.243.243 0 0 1-.057-.338.22.22 0 0 1 .183-.08.273.273 0 0 1 .16.06l.05.04c.053.05.104.104.15.16.094.103.198.196.31.279.041.022.09.027.135.013l.083.059a2.945 2.945 0 0 1 1.91-.918l.005-.097a.249.249 0 0 0 .074-.119 2.138 2.138 0 0 0-.025-.415 1.947 1.947 0 0 1-.032-.217l.001-.059v-.006a.23.23 0 0 1 .399-.178.23.23 0 0 1 .058.177c0 .02.002.047 0 .065a1.88 1.88 0 0 1-.03.218c-.023.137-.031.276-.027.415a.181.181 0 0 0 .075.115l.006.102a3 3 0 0 1 1.9.918l.087-.062a.255.255 0 0 0 .139-.015 2.14 2.14 0 0 0 .308-.28c.048-.056.098-.109.152-.16l.05-.04a.23.23 0 1 1 .286.358l-.05.04c-.062.041-.125.078-.191.112-.12.068-.235.148-.34.239a.181.181 0 0 0-.043.13l-.082.072c.406.605.576 1.338.477 2.06l.093.027a.258.258 0 0 0 .098.1c.135.035.272.058.41.067.074.002.148.008.22.018.02.003.047.011.067.016a.23.23 0 0 1 .154.365.23.23 0 0 1-.256.08h-.003l-.005-.002-.059-.012a1.925 1.925 0 0 1-.205-.08 2.138 2.138 0 0 0-.4-.117.181.181 0 0 0-.128.048 3.223 3.223 0 0 0-.097-.017 2.98 2.98 0 0 1-1.32 1.66Z"/><path fill="#fff" d="m32.31 28.129-1.032-4.478a.803.803 0 0 0-.431-.537l-4.173-1.993a.805.805 0 0 0-.693 0l-4.173 1.994a.805.805 0 0 0-.431.537l-1.03 4.478a.796.796 0 0 0 .154.67l2.888 3.59a.813.813 0 0 0 .624.298l4.631-.001a.813.813 0 0 0 .624-.297l2.887-3.592a.799.799 0 0 0 .154-.67Zm-.5.21a.752.752 0 0 1-.141.298l-2.566 3.191-.08.1a.72.72 0 0 1-.313.224.762.762 0 0 1-.259.05h-4.245a.756.756 0 0 1-.535-.232l-.037-.04-2.647-3.292a.76.76 0 0 1-.114-.206.723.723 0 0 1-.027-.408l.944-4.105a.738.738 0 0 1 .396-.491L26.01 21.6a.737.737 0 0 1 .635 0l3.825 1.827a.737.737 0 0 1 .395.492l.945 4.104a.722.722 0 0 1 0 .315Z"/><path fill="#fff" d="M30.162 27.695c-.02-.005-.048-.013-.067-.016a1.918 1.918 0 0 0-.22-.018 2.138 2.138 0 0 1-.41-.067.258.258 0 0 1-.099-.1l-.092-.026a2.974 2.974 0 0 0-.477-2.06l.081-.074a.18.18 0 0 1 .043-.13c.105-.09.22-.17.34-.238a1.89 1.89 0 0 0 .19-.111l.051-.041a.23.23 0 0 0-.017-.398.23.23 0 0 0-.268.04l-.05.04c-.054.05-.105.104-.152.16a2.146 2.146 0 0 1-.309.28.254.254 0 0 1-.139.015l-.087.062a3 3 0 0 0-1.9-.918l-.005-.102a.181.181 0 0 1-.075-.115 2.138 2.138 0 0 1 .026-.415 1.9 1.9 0 0 0 .031-.218v-.065a.23.23 0 0 0-.4-.177.23.23 0 0 0-.058.178v.065c.006.073.017.145.031.217.022.137.03.277.026.415a.25.25 0 0 1-.075.119l-.005.097a2.945 2.945 0 0 0-1.91.918 3.986 3.986 0 0 1-.082-.059.18.18 0 0 1-.136-.013 2.137 2.137 0 0 1-.309-.279 1.914 1.914 0 0 0-.15-.16l-.051-.04a.273.273 0 0 0-.16-.06.221.221 0 0 0-.182.08.242.242 0 0 0 .056.337l.004.003c.015.012.033.028.047.038.06.04.124.078.19.111.12.069.235.149.34.24a.254.254 0 0 1 .046.131l.073.066a2.962 2.962 0 0 0-.467 2.065l-.096.028a.317.317 0 0 1-.098.099 2.144 2.144 0 0 1-.41.068 1.9 1.9 0 0 0-.22.017l-.061.014-.002.001-.003.001a.23.23 0 1 0 .101.446h.004l.004-.002.06-.013c.07-.023.138-.049.205-.079a2.15 2.15 0 0 1 .399-.117.254.254 0 0 1 .131.046l.1-.017a2.978 2.978 0 0 0 1.32 1.648l-.041.1c.02.04.026.085.02.13-.057.13-.126.255-.207.372-.044.058-.085.12-.123.183-.009.017-.02.043-.03.061a.23.23 0 1 0 .414.197v-.001c.01-.018.022-.042.029-.059.026-.068.048-.138.066-.21.04-.144.1-.283.177-.41a.187.187 0 0 1 .099-.049l.052-.094c.68.262 1.431.264 2.112.006l.049.088a.18.18 0 0 1 .117.07c.065.124.117.253.157.386.018.07.04.14.066.21l.029.058a.231.231 0 0 0 .315.13.229.229 0 0 0 .099-.325l-.03-.062a1.913 1.913 0 0 0-.123-.183 2.145 2.145 0 0 1-.203-.363.18.18 0 0 1 .018-.135.784.784 0 0 1-.038-.092 2.978 2.978 0 0 0 1.32-1.66c.029.004.08.013.097.017a.181.181 0 0 1 .128-.048c.137.026.27.066.4.118.066.03.135.056.205.079l.059.013.004.001h.004a.228.228 0 0 0 .256-.08.232.232 0 0 0 .004-.269.23.23 0 0 0-.159-.096Zm-2.175-2.332-.979.694-.003-.002a.202.202 0 0 1-.321-.154h-.001l-.068-1.2c.517.065 1 .297 1.372.662Zm-1.843 1.314h.368l.229.286-.082.357-.331.16-.332-.16-.082-.357.23-.286Zm-.347-1.933c.08-.019.162-.033.244-.042l-.068 1.2-.005.003a.201.201 0 0 1-.32.154l-.002.001-.984-.698a2.358 2.358 0 0 1 1.135-.618Zm-1.492 1.067.898.804v.005a.202.202 0 0 1-.08.347v.004l-1.153.332c-.057-.52.06-1.046.335-1.492Zm1.203 2.136-.458 1.106a2.37 2.37 0 0 1-.95-1.19l1.18-.2.003.002a.202.202 0 0 1 .134.021.201.201 0 0 1 .088.256l.003.005Zm1.352 1.423a2.368 2.368 0 0 1-1.292-.067l.58-1.05h.002a.202.202 0 0 1 .356 0h.004l.582 1.052a2.462 2.462 0 0 1-.232.065Zm.75-.312-.462-1.118.001-.002a.202.202 0 0 1 .222-.278l.002-.003 1.192.202a2.36 2.36 0 0 1-.955 1.199Zm1.08-1.759-1.158-.333-.001-.005a.202.202 0 0 1-.08-.347v-.002l.894-.8c.274.445.395.967.345 1.487Z"/></svg>