<svg width="33" height="33" viewBox="0 0 33 33" fill="none" xmlns="http://www.w3.org/2000/svg">
<path d="M27.3119 27.6598C27.2966 27.6568 27.281 27.6556 27.2655 27.6563C27.2386 27.6577 27.2124 27.6645 27.1882 27.6764C27.1413 27.699 27.105 27.7388 27.0868 27.7876C27.0686 27.8363 27.0699 27.8902 27.0904 27.9381L27.089 27.9401L27.5515 29.0576C27.9941 28.7752 28.3299 28.3533 28.5059 27.8588L27.3139 27.6573L27.3119 27.6598ZM25.4572 27.8182C25.4472 27.7741 25.4227 27.7347 25.3876 27.7063C25.3525 27.6778 25.3089 27.6619 25.2637 27.6612C25.2503 27.6611 25.237 27.6622 25.2239 27.6648L25.2219 27.6623L24.0403 27.8629C24.2178 28.3536 24.5522 28.772 24.9917 29.0532L25.4496 27.9467L25.446 27.9424C25.4629 27.9033 25.4668 27.8597 25.4572 27.8182ZM26.4468 28.2521C26.4295 28.2199 26.4039 28.1931 26.3725 28.1743C26.3412 28.1556 26.3054 28.1457 26.2689 28.1458C26.2323 28.1458 26.1965 28.1558 26.1652 28.1746C26.1339 28.1934 26.1083 28.2203 26.0912 28.2525H26.0902L25.5091 29.3033C25.9252 29.4449 26.3724 29.4679 26.8008 29.3697C26.8803 29.3516 26.9579 29.3299 27.0336 29.3046L26.4512 28.2521L26.4468 28.2521ZM28.2863 25.8113L27.3922 26.6115L27.3927 26.6141C27.3653 26.6381 27.3448 26.6691 27.3336 26.7038C27.3223 26.7385 27.3206 26.7756 27.3287 26.8112C27.3369 26.8467 27.3545 26.8794 27.3797 26.9058C27.4049 26.9322 27.4368 26.9512 27.4719 26.9609L27.473 26.9658L28.631 27.2993C28.6811 26.7791 28.56 26.2567 28.2863 25.8114V25.8113ZM26.6253 25.901C26.627 25.9374 26.6385 25.9728 26.6586 26.0032C26.6788 26.0336 26.7068 26.058 26.7397 26.0738C26.7725 26.0896 26.8091 26.0962 26.8454 26.0929C26.8818 26.0896 26.9165 26.0765 26.946 26.055L26.9495 26.0565L27.9278 25.3629C27.5554 24.9982 27.0735 24.7659 26.5563 24.7017L26.6242 25.9007L26.6253 25.901ZM25.5893 26.0594C25.6188 26.0809 25.6536 26.0939 25.69 26.0972C25.7263 26.1005 25.7628 26.0938 25.7957 26.0779C25.8285 26.0621 25.8565 26.0376 25.8765 26.0071C25.8966 25.9766 25.908 25.9413 25.9096 25.9048L25.9146 25.9025L25.9825 24.7017C25.9005 24.7115 25.819 24.7256 25.7384 24.7437C25.3096 24.8401 24.9162 25.0545 24.6028 25.3626L25.5874 26.0606L25.5893 26.0594ZM25.0644 26.9668C25.0997 26.9572 25.1316 26.9382 25.1569 26.9118C25.1822 26.8855 25.1999 26.8527 25.208 26.8171C25.2161 26.7815 25.2145 26.7443 25.2031 26.7096C25.1918 26.6749 25.1713 26.6439 25.1437 26.6199L25.1447 26.6151L24.2457 25.8111C23.9715 26.2574 23.8538 26.7825 23.9112 27.3032L25.0635 26.9707L25.0644 26.9668ZM25.9376 27.32L26.2692 27.4795L26.5998 27.3203L26.6819 26.9634L26.4531 26.6772H26.0848L25.8553 26.9629L25.9376 27.32Z" fill="#326CE5"/>
<path d="M31.7514 28.0233L30.8064 23.9188C30.781 23.8126 30.7323 23.7134 30.6639 23.6283C30.5955 23.5432 30.5091 23.4743 30.4108 23.4267L26.5858 21.6004C26.4867 21.5531 26.3782 21.5286 26.2684 21.5286C26.1585 21.5286 26.0501 21.5531 25.951 21.6004L22.1267 23.4276C22.0284 23.4753 21.942 23.5441 21.8735 23.6292C21.8051 23.7143 21.7564 23.8135 21.731 23.9197L20.7876 28.0241C20.7643 28.1279 20.7642 28.2355 20.7874 28.3393C20.7942 28.3709 20.8031 28.402 20.814 28.4325C20.8325 28.4844 20.8569 28.534 20.8868 28.5803C20.8998 28.6001 20.9135 28.6194 20.9283 28.638L23.5754 31.9292C23.587 31.9435 23.5997 31.9565 23.6124 31.9698C23.6539 32.0141 23.7008 32.0529 23.752 32.0855C23.8167 32.1263 23.8872 32.1569 23.9612 32.1765C24.0218 32.1931 24.0844 32.2017 24.1472 32.2021H24.1884L28.3922 32.2012C28.4177 32.2011 28.4432 32.1996 28.4686 32.1967C28.5051 32.1925 28.5411 32.1857 28.5765 32.1762C28.6019 32.1695 28.6269 32.1615 28.6514 32.1522C28.6706 32.1449 28.6897 32.1375 28.7081 32.1287C28.7357 32.1155 28.7625 32.1006 28.7883 32.0841C28.8549 32.0422 28.9142 31.9897 28.9639 31.9287L29.0446 31.8284L31.6101 28.6369C31.6592 28.5753 31.6979 28.5059 31.7244 28.4316C31.7355 28.4011 31.7445 28.3699 31.7515 28.3381C31.7747 28.2344 31.7747 28.1271 31.7514 28.0233ZM27.7839 29.6197C27.7947 29.6513 27.8074 29.6821 27.822 29.7121C27.7986 29.753 27.7923 29.8015 27.8043 29.8471C27.86 29.9746 27.9279 30.0963 28.0073 30.2105C28.0517 30.2689 28.0927 30.3299 28.13 30.393C28.1392 30.4101 28.1513 30.4365 28.16 30.4546C28.1765 30.4821 28.187 30.5128 28.1909 30.5447C28.1948 30.5765 28.192 30.6088 28.1827 30.6396C28.1734 30.6703 28.1577 30.6987 28.1368 30.723C28.1158 30.7473 28.09 30.7669 28.061 30.7806C28.0319 30.7943 28.0004 30.8018 27.9683 30.8026C27.9362 30.8034 27.9043 30.7974 27.8747 30.7852C27.845 30.7729 27.8183 30.7545 27.7961 30.7313C27.774 30.7081 27.757 30.6805 27.7462 30.6503C27.7374 30.6324 27.7253 30.6085 27.7179 30.5916C27.6917 30.523 27.6695 30.4529 27.6514 30.3818C27.6117 30.2486 27.5591 30.1197 27.4943 29.9968C27.4662 29.9588 27.4242 29.9334 27.3775 29.9259C27.3702 29.9133 27.3431 29.8636 27.3285 29.8379C26.6476 30.0958 25.8956 30.0938 25.216 29.8325L25.1642 29.9263C25.1272 29.9321 25.0928 29.9488 25.0655 29.9744C24.9875 30.1025 24.9278 30.241 24.8883 30.3857C24.8704 30.4568 24.8483 30.5269 24.8222 30.5955C24.8149 30.6123 24.8027 30.6358 24.7939 30.6537L24.7935 30.6546C24.7827 30.6848 24.7657 30.7125 24.7436 30.7358C24.7214 30.759 24.6946 30.7774 24.665 30.7897C24.6353 30.802 24.6033 30.8079 24.5712 30.8071C24.5391 30.8063 24.5075 30.7987 24.4785 30.785C24.4495 30.7712 24.4237 30.7515 24.4027 30.7271C24.3818 30.7027 24.3662 30.6743 24.3569 30.6435C24.3477 30.6127 24.345 30.5804 24.349 30.5485C24.353 30.5166 24.3637 30.486 24.3803 30.4585C24.3889 30.4403 24.4005 30.414 24.4096 30.3969C24.4469 30.3336 24.4879 30.2725 24.5323 30.2139C24.613 30.0967 24.6824 29.972 24.7395 29.8415C24.7455 29.7973 24.7384 29.7523 24.7191 29.7121L24.7607 29.6123C24.1342 29.2425 23.6647 28.6563 23.4406 27.9641L23.3409 27.9811C23.3022 27.9536 23.2566 27.9376 23.2092 27.9347C23.0727 27.9608 22.9391 28.0002 22.8102 28.0521C22.7433 28.0822 22.6747 28.1085 22.6048 28.1308C22.5883 28.1353 22.5644 28.1399 22.5455 28.144C22.544 28.1446 22.5427 28.1452 22.5412 28.1456C22.54 28.1458 22.5389 28.1459 22.5377 28.1459C22.5073 28.1559 22.4752 28.1594 22.4433 28.1563C22.4115 28.1532 22.3807 28.1434 22.3528 28.1277C22.325 28.1119 22.3007 28.0906 22.2816 28.0649C22.2625 28.0393 22.249 28.0099 22.2419 27.9787C22.2348 27.9475 22.2342 27.9152 22.2404 27.8838C22.2465 27.8524 22.2591 27.8226 22.2773 27.7964C22.2956 27.7701 22.3192 27.748 22.3465 27.7314C22.3738 27.7147 22.4043 27.704 22.436 27.6999L22.4393 27.699L22.4413 27.6985C22.4605 27.694 22.485 27.6876 22.5025 27.6843C22.5753 27.6742 22.6486 27.6683 22.7221 27.6666C22.8608 27.6575 22.9982 27.635 23.1324 27.5992C23.1722 27.5739 23.2058 27.54 23.2308 27.5L23.3266 27.472C23.2226 26.7496 23.389 26.0142 23.7938 25.4069L23.7204 25.3415C23.7177 25.294 23.7018 25.2483 23.6744 25.2094C23.569 25.1188 23.455 25.0387 23.334 24.9702C23.2686 24.9369 23.2053 24.8998 23.1442 24.8592C23.1303 24.8489 23.1118 24.8333 23.0968 24.821L23.0934 24.8187C23.0413 24.7813 23.0061 24.7248 22.9956 24.6615C22.985 24.5983 22.9999 24.5335 23.0371 24.4812C23.059 24.4543 23.0869 24.433 23.1186 24.419C23.1503 24.405 23.1849 24.3986 23.2195 24.4005C23.2777 24.403 23.3336 24.4241 23.379 24.4607C23.3946 24.4729 23.4159 24.4892 23.4297 24.5011C23.483 24.5515 23.5334 24.6049 23.5805 24.6611C23.6741 24.7639 23.7775 24.8573 23.8892 24.94C23.931 24.962 23.9798 24.9667 24.0251 24.9532C24.0524 24.9731 24.0799 24.9926 24.1077 25.0119C24.5099 24.5843 25.0308 24.2867 25.6034 24.1573C25.7397 24.1265 25.878 24.1052 26.0173 24.0937L26.0227 23.9969C26.0583 23.9653 26.084 23.9242 26.097 23.8785C26.102 23.7396 26.0935 23.6006 26.0715 23.4633C26.057 23.3914 26.0465 23.3187 26.0403 23.2456C26.0397 23.229 26.0406 23.206 26.0408 23.187C26.0408 23.1848 26.0403 23.1826 26.0403 23.1806C26.037 23.1486 26.0405 23.1162 26.0505 23.0857C26.0606 23.0551 26.0769 23.027 26.0984 23.0031C26.12 22.9792 26.1463 22.9602 26.1757 22.9471C26.2051 22.934 26.2369 22.9273 26.2691 22.9273C26.3012 22.9272 26.3331 22.934 26.3625 22.947C26.3919 22.96 26.4182 22.9791 26.4398 23.003C26.4614 23.0268 26.4777 23.0549 26.4878 23.0855C26.4978 23.116 26.5013 23.1484 26.4981 23.1804C26.4981 23.2004 26.4993 23.227 26.4986 23.2454C26.4923 23.3185 26.4819 23.3912 26.4672 23.4631C26.4451 23.6004 26.4364 23.7394 26.4413 23.8784C26.4503 23.9248 26.4772 23.9659 26.5161 23.9928C26.5169 24.0094 26.5196 24.0646 26.5216 24.095C27.2453 24.1608 27.9204 24.487 28.4217 25.0131L28.5088 24.9509C28.5556 24.9589 28.6037 24.9537 28.6477 24.9358C28.7594 24.853 28.8627 24.7595 28.9563 24.6566C29.0035 24.6004 29.054 24.547 29.1075 24.4966C29.1215 24.4845 29.1427 24.4684 29.1582 24.4561C29.1812 24.4335 29.2087 24.4159 29.2389 24.4046C29.2691 24.3932 29.3013 24.3884 29.3335 24.3903C29.3657 24.3922 29.3972 24.4009 29.4258 24.4158C29.4544 24.4306 29.4796 24.4513 29.4997 24.4766C29.5198 24.5018 29.5344 24.531 29.5425 24.5622C29.5506 24.5934 29.552 24.626 29.5467 24.6578C29.5414 24.6896 29.5295 24.72 29.5117 24.7469C29.4939 24.7738 29.4706 24.7967 29.4434 24.814C29.4281 24.8264 29.4078 24.8437 29.393 24.8547C29.3318 24.8953 29.2683 24.9324 29.2028 24.9656C29.0818 25.0341 28.9678 25.1143 28.8624 25.2048C28.8317 25.2408 28.8162 25.2873 28.8194 25.3345C28.8067 25.3462 28.7619 25.3858 28.7382 25.4073C29.1442 26.0124 29.3138 26.7455 29.2151 27.4675L29.3075 27.4944C29.3306 27.536 29.3648 27.5703 29.4062 27.5937C29.5405 27.6295 29.678 27.6521 29.8167 27.6612C29.8901 27.6629 29.9634 27.6688 30.0361 27.6788C30.0554 27.6823 30.0832 27.69 30.1029 27.6945C30.1346 27.6987 30.1651 27.7094 30.1924 27.7261C30.2197 27.7427 30.2433 27.7649 30.2615 27.7911C30.2798 27.8174 30.2924 27.8472 30.2985 27.8786C30.3046 27.91 30.304 27.9423 30.2969 27.9735C30.2898 28.0047 30.2762 28.034 30.2571 28.0597C30.238 28.0853 30.2137 28.1067 30.1859 28.1224C30.158 28.1381 30.1272 28.1479 30.0953 28.151C30.0635 28.1541 30.0314 28.1506 30.001 28.1405L29.9977 28.1401C29.9962 28.1397 29.9948 28.1389 29.9932 28.1385C29.9743 28.1344 29.9506 28.1303 29.9341 28.126C29.8642 28.1035 29.7956 28.077 29.7288 28.0467C29.5998 27.9946 29.466 27.9553 29.3294 27.9292C29.2821 27.9277 29.2361 27.9448 29.2013 27.9768C29.1688 27.9706 29.1361 27.9649 29.1034 27.9597C28.8821 28.6561 28.4125 29.247 27.7839 29.6197Z" fill="#326CE5"/>
<path d="M32.2499 28.1286L31.219 23.6506C31.1913 23.5347 31.1382 23.4264 31.0635 23.3336C30.9889 23.2407 30.8946 23.1656 30.7873 23.1136L26.6144 21.1214C26.5063 21.0698 26.388 21.043 26.2681 21.043C26.1483 21.043 26.0299 21.0698 25.9218 21.1214L21.7492 23.1148C21.642 23.1667 21.5477 23.2418 21.473 23.3346C21.3983 23.4274 21.3452 23.5356 21.3174 23.6515L20.2883 28.1297C20.2651 28.233 20.2627 28.3398 20.2813 28.444C20.2999 28.5482 20.339 28.6476 20.3965 28.7364C20.4107 28.7581 20.4257 28.7792 20.442 28.7994L23.33 32.3904C23.4057 32.4828 23.5008 32.5573 23.6086 32.6088C23.7164 32.6602 23.8342 32.6873 23.9537 32.688L28.585 32.6869C28.7044 32.6862 28.8222 32.6592 28.93 32.6078C29.0379 32.5565 29.133 32.482 29.2088 32.3896L32.0958 28.7984C32.1697 28.7053 32.2219 28.5969 32.2486 28.481C32.2752 28.3651 32.2757 28.2448 32.2499 28.1287V28.1286ZM31.7511 28.3382C31.7441 28.37 31.7351 28.4012 31.7241 28.4317C31.6975 28.506 31.6588 28.5754 31.6096 28.637L29.0442 31.8284L28.9636 31.9288C28.9138 31.9899 28.8545 32.0424 28.7878 32.0842C28.7621 32.1007 28.7354 32.1156 28.7079 32.1288C28.6893 32.1374 28.6704 32.1452 28.6512 32.1521C28.6266 32.1615 28.6016 32.1695 28.5762 32.1763C28.5408 32.1858 28.5047 32.1927 28.4683 32.1968C28.4429 32.1997 28.4174 32.2012 28.3918 32.2013L24.1881 32.2023H24.1468C24.084 32.2019 24.0215 32.1933 23.9608 32.1767C23.8869 32.1571 23.8164 32.1263 23.7518 32.0856C23.7005 32.053 23.6536 32.0142 23.612 31.9699C23.5994 31.9566 23.5866 31.9435 23.5751 31.9293L20.928 28.6381C20.9132 28.6195 20.8994 28.6002 20.8865 28.5803C20.8566 28.534 20.8321 28.4843 20.8137 28.4324C20.8027 28.4019 20.7938 28.3708 20.787 28.3392C20.7639 28.2354 20.764 28.1278 20.7872 28.0241L21.7307 23.9195C21.7561 23.8134 21.8048 23.7142 21.8732 23.6291C21.9417 23.544 22.0281 23.4752 22.1264 23.4276L25.9507 21.6005C26.0498 21.5532 26.1583 21.5287 26.2681 21.5287C26.3779 21.5287 26.4864 21.5532 26.5855 21.6005L30.4104 23.4268C30.5087 23.4744 30.5951 23.5433 30.6635 23.6284C30.7319 23.7135 30.7806 23.8127 30.806 23.9189L31.751 28.0234C31.7742 28.1271 31.7743 28.2346 31.7511 28.3384V28.3382Z" fill="white"/>
<path d="M30.1023 27.6945C30.0827 27.69 30.0548 27.6823 30.0357 27.6788C29.9629 27.6687 29.8897 27.6628 29.8163 27.6611C29.6775 27.6521 29.54 27.6295 29.4057 27.5938C29.3642 27.5704 29.33 27.536 29.3069 27.4944L29.2145 27.4675C29.3133 26.7455 29.1437 26.0125 28.7378 25.4073C28.7614 25.3858 28.8062 25.3462 28.8188 25.3345C28.8157 25.2874 28.8311 25.2408 28.8618 25.2049C28.9673 25.1143 29.0813 25.0342 29.2023 24.9657C29.2678 24.9324 29.3313 24.8954 29.3925 24.8547C29.4072 24.8438 29.4274 24.8264 29.4429 24.814C29.4701 24.7967 29.4933 24.7739 29.5111 24.747C29.5289 24.7201 29.5408 24.6897 29.5462 24.6579C29.5515 24.6261 29.55 24.5935 29.5419 24.5623C29.5339 24.5311 29.5193 24.5019 29.4992 24.4767C29.4791 24.4515 29.4539 24.4307 29.4253 24.4159C29.3967 24.401 29.3653 24.3923 29.3331 24.3903C29.3009 24.3884 29.2686 24.3932 29.2384 24.4046C29.2082 24.4159 29.1808 24.4334 29.1578 24.4561C29.1422 24.4684 29.1209 24.4845 29.107 24.4966C29.0535 24.5469 29.003 24.6004 28.9557 24.6566C28.8622 24.7594 28.7588 24.853 28.6471 24.9358C28.6032 24.9537 28.5551 24.9589 28.5083 24.9509L28.4212 25.0131C27.9199 24.487 27.2447 24.1608 26.5211 24.095C26.5189 24.0646 26.5163 24.0095 26.5155 23.9928C26.4767 23.9659 26.4499 23.9248 26.4408 23.8784C26.436 23.7394 26.4447 23.6004 26.4668 23.4631C26.4813 23.3912 26.4917 23.3186 26.4979 23.2455C26.4987 23.2271 26.4976 23.2003 26.4976 23.1804C26.5008 23.1484 26.4973 23.116 26.4872 23.0855C26.4772 23.0549 26.4608 23.0268 26.4392 23.003C26.4177 22.9791 26.3913 22.96 26.3619 22.947C26.3325 22.934 26.3007 22.9272 26.2685 22.9272C26.2364 22.9273 26.2046 22.934 26.1752 22.9471C26.1458 22.9602 26.1194 22.9792 26.0979 23.0031C26.0763 23.027 26.06 23.0551 26.05 23.0857C26.04 23.1162 26.0365 23.1486 26.0397 23.1806C26.0397 23.1827 26.0402 23.1848 26.0403 23.187C26.0401 23.206 26.0391 23.229 26.0397 23.2456C26.046 23.3187 26.0564 23.3914 26.071 23.4633C26.0929 23.6005 26.1015 23.7396 26.0965 23.8785C26.0835 23.9242 26.0577 23.9653 26.0222 23.9968L26.0167 24.0937C25.8775 24.1052 25.7392 24.1264 25.6029 24.1573C25.0303 24.2867 24.5095 24.5843 24.1073 25.0118C24.0795 24.9926 24.0519 24.973 24.0245 24.9531C23.9792 24.9667 23.9304 24.9619 23.8886 24.9399C23.7769 24.8572 23.6735 24.7639 23.58 24.6611C23.5329 24.6049 23.4826 24.5515 23.4294 24.5011C23.4154 24.4891 23.3941 24.4729 23.3785 24.4604C23.3331 24.4238 23.2772 24.4027 23.2189 24.4002C23.1843 24.3984 23.1497 24.4048 23.118 24.4188C23.0864 24.4328 23.0584 24.4542 23.0365 24.481C22.9994 24.5333 22.9845 24.5981 22.995 24.6614C23.0056 24.7246 23.0407 24.7811 23.0928 24.8185L23.0963 24.821C23.1113 24.8332 23.1297 24.8489 23.1436 24.8591C23.2047 24.8997 23.2681 24.9368 23.3334 24.9701C23.4544 25.0386 23.5684 25.1188 23.6738 25.2094C23.7012 25.2483 23.7171 25.294 23.7199 25.3415L23.7931 25.407C23.3884 26.0143 23.2221 26.7497 23.3261 27.472L23.2302 27.4999C23.2052 27.5399 23.1716 27.5737 23.1319 27.599C22.9976 27.6348 22.8602 27.6575 22.7215 27.6667C22.648 27.6683 22.5747 27.6742 22.5019 27.6843C22.4843 27.6876 22.4599 27.6938 22.4408 27.6985L22.4388 27.699L22.4355 27.7C22.4038 27.7041 22.3733 27.7149 22.346 27.7315C22.3187 27.7481 22.2952 27.7703 22.2769 27.7965C22.2586 27.8228 22.246 27.8525 22.2399 27.8839C22.2338 27.9153 22.2344 27.9476 22.2415 27.9788C22.2486 28.01 22.2621 28.0394 22.2812 28.065C22.3003 28.0906 22.3246 28.112 22.3524 28.1278C22.3802 28.1435 22.4111 28.1533 22.4429 28.1564C22.4747 28.1595 22.5068 28.156 22.5372 28.146L22.5406 28.1455C22.5422 28.1451 22.5435 28.1444 22.545 28.1441C22.5639 28.1398 22.5876 28.1353 22.6042 28.1308C22.6741 28.1085 22.7427 28.0822 22.8096 28.0521C22.9385 28.0001 23.0721 27.9608 23.2087 27.9346C23.256 27.9375 23.3016 27.9536 23.3402 27.9811L23.44 27.964C23.6641 28.6562 24.1337 29.2425 24.7602 29.6122L24.7185 29.712C24.7379 29.7522 24.745 29.7973 24.739 29.8415C24.6819 29.9719 24.6125 30.0966 24.5318 30.2138C24.4874 30.2723 24.4464 30.3334 24.409 30.3967C24.3999 30.4139 24.3884 30.4403 24.3796 30.4584C24.3631 30.4859 24.3525 30.5166 24.3486 30.5484C24.3446 30.5802 24.3473 30.6125 24.3566 30.6433C24.3659 30.674 24.3815 30.7024 24.4024 30.7267C24.4234 30.751 24.4491 30.7707 24.4781 30.7845C24.5071 30.7982 24.5387 30.8057 24.5707 30.8066C24.6028 30.8074 24.6347 30.8015 24.6644 30.7893C24.694 30.777 24.7208 30.7587 24.7429 30.7355C24.7651 30.7123 24.7821 30.6847 24.793 30.6545L24.7934 30.6541V30.6536C24.802 30.6357 24.8144 30.6122 24.8217 30.5954C24.8477 30.5268 24.8698 30.4568 24.8877 30.3856C24.9273 30.2409 24.9869 30.1025 25.065 29.9744C25.0923 29.9488 25.1267 29.932 25.1637 29.9262L25.2156 29.8324C25.8951 30.0937 26.6471 30.0956 27.328 29.8377C27.3425 29.8637 27.3696 29.9132 27.3768 29.9258C27.4235 29.9332 27.4655 29.9588 27.4937 29.9968C27.5585 30.1197 27.6111 30.2486 27.6509 30.3817C27.669 30.4529 27.6911 30.5229 27.7173 30.5915C27.7247 30.6084 27.7368 30.6322 27.7456 30.6502C27.7564 30.6804 27.7735 30.708 27.7956 30.7312C27.8177 30.7545 27.8445 30.7728 27.8741 30.7851C27.9038 30.7974 27.9357 30.8033 27.9677 30.8025C27.9998 30.8018 28.0314 30.7943 28.0604 30.7805C28.0894 30.7668 28.1152 30.7472 28.1362 30.7229C28.1572 30.6986 28.1728 30.6702 28.1822 30.6395C28.1915 30.6088 28.1943 30.5765 28.1904 30.5446C28.1865 30.5128 28.1759 30.4821 28.1595 30.4546C28.1507 30.4365 28.1387 30.4101 28.1296 30.3929C28.0923 30.3298 28.0513 30.2689 28.0069 30.2105C27.9276 30.0962 27.8596 29.9745 27.8039 29.8471C27.7918 29.8015 27.7981 29.753 27.8215 29.712C27.8068 29.6821 27.7941 29.6512 27.7834 29.6196C28.4119 29.2469 28.8816 28.6561 29.1029 27.9597C29.1325 27.9644 29.1841 27.9734 29.2009 27.9768C29.2357 27.9448 29.2816 27.9278 29.3289 27.9292C29.4654 27.9553 29.5991 27.9946 29.7281 28.0467C29.795 28.077 29.8636 28.1035 29.9335 28.1259C29.9501 28.1303 29.9737 28.1344 29.9926 28.1386C29.9942 28.139 29.9956 28.1397 29.9971 28.1401L30.0004 28.1406C30.0308 28.1506 30.0629 28.1541 30.0947 28.1509C30.1265 28.1478 30.1573 28.138 30.1851 28.1223C30.2129 28.1066 30.2372 28.0852 30.2563 28.0596C30.2754 28.0339 30.2889 28.0046 30.296 27.9734C30.3031 27.9423 30.3037 27.91 30.2976 27.8786C30.2915 27.8472 30.279 27.8174 30.2607 27.7912C30.2425 27.7649 30.219 27.7428 30.1917 27.7261C30.1644 27.7095 30.1339 27.6987 30.1023 27.6945ZM27.9273 25.3629L26.9489 26.0565L26.9455 26.0549C26.916 26.0764 26.8813 26.0895 26.845 26.0928C26.8086 26.0961 26.7721 26.0896 26.7392 26.0738C26.7063 26.058 26.6783 26.0336 26.6581 26.0031C26.638 25.9727 26.6265 25.9374 26.6248 25.9009L26.6237 25.9004L26.5558 24.7016C27.073 24.7658 27.5549 24.9982 27.9273 25.3629ZM26.0843 26.6771H26.4525L26.6814 26.9632L26.5993 27.3201L26.2687 27.4793L25.9371 27.3198L25.8548 26.9627L26.0843 26.6771ZM25.7379 24.7435C25.8186 24.7254 25.9001 24.7114 25.9822 24.7016L25.9141 25.9022L25.9091 25.9046C25.9076 25.9411 25.8962 25.9765 25.8761 26.0069C25.8561 26.0374 25.8282 26.0619 25.7953 26.0778C25.7624 26.0937 25.7259 26.1003 25.6895 26.0971C25.6532 26.0938 25.6184 26.0808 25.5889 26.0593L25.587 26.0604L24.6023 25.3622C24.9158 25.0542 25.3091 24.8399 25.7379 24.7435ZM24.2453 25.811L25.1442 26.615L25.1433 26.6199C25.1708 26.6439 25.1913 26.6749 25.2027 26.7096C25.214 26.7443 25.2157 26.7815 25.2075 26.8171C25.1994 26.8527 25.1817 26.8854 25.1564 26.9118C25.1312 26.9381 25.0992 26.9571 25.064 26.9667L25.063 26.9707L23.9107 27.3031C23.8533 26.7824 23.971 26.2573 24.2453 25.811ZM25.4489 27.9469L24.9911 29.0532C24.5516 28.7719 24.2173 28.3535 24.0399 27.8628L25.2214 27.6621L25.2234 27.6648C25.2365 27.6623 25.2497 27.6611 25.263 27.6612C25.2962 27.6617 25.3287 27.6704 25.3577 27.6864C25.3867 27.7024 25.4113 27.7254 25.4293 27.7532C25.4473 27.781 25.4582 27.8128 25.4611 27.8458C25.4639 27.8788 25.4585 27.912 25.4455 27.9425L25.4489 27.9469ZM26.8003 29.3696C26.372 29.4678 25.9247 29.4449 25.5086 29.3033L26.0897 28.2525H26.0907C26.1079 28.2204 26.1336 28.1936 26.1649 28.1749C26.1962 28.1562 26.2319 28.1463 26.2684 28.1463C26.3048 28.1462 26.3406 28.1561 26.372 28.1747C26.4033 28.1934 26.429 28.2201 26.4463 28.2522H26.4506L27.0332 29.3047C26.9576 29.3299 26.88 29.3515 26.8003 29.3696ZM27.5511 29.0577L27.0885 27.9401L27.0899 27.9381C27.0694 27.8903 27.0681 27.8364 27.0863 27.7876C27.1046 27.7389 27.1409 27.6991 27.1877 27.6765C27.2119 27.6646 27.2381 27.6578 27.265 27.6564C27.2805 27.6557 27.2961 27.6568 27.3114 27.6598L27.3134 27.6573L28.5054 27.8588C28.3294 28.3534 27.9936 28.7752 27.5511 29.0577ZM28.6306 27.2992L27.4725 26.9657L27.4714 26.9608C27.4362 26.9511 27.4043 26.932 27.3791 26.9056C27.3539 26.8793 27.3363 26.8466 27.3282 26.811C27.3201 26.7754 27.3217 26.7383 27.333 26.7036C27.3443 26.6689 27.3647 26.6379 27.3922 26.6139L27.3918 26.6116L28.2857 25.8115C28.5595 26.2567 28.6806 26.779 28.6306 27.2992Z" fill="white"/>
<path fill-rule="evenodd" clip-rule="evenodd" d="M14.2466 6.50775C14.0894 6.41468 13.8939 6.41474 13.7368 6.5079L5.47766 11.4049C5.32579 11.4949 5.23267 11.6584 5.23267 11.835L5.23269 21.2691C5.23269 21.445 5.32515 21.608 5.47615 21.6983L14.1234 26.8672C14.2806 26.9611 14.4766 26.9616 14.6342 26.8685L22.9869 21.9353C23.1392 21.8454 23.2327 21.6817 23.2327 21.5048V16.1256C23.2327 15.8495 23.0088 15.6256 22.7327 15.6256C22.4565 15.6256 22.2327 15.8495 22.2327 16.1256V21.2194L14.8859 25.5585L14.9416 17.2952L18.8423 14.9916C19.0801 14.8512 19.159 14.5446 19.0186 14.3068C18.8782 14.069 18.5716 13.9901 18.3338 14.1305L14.4442 16.4275L6.71242 11.8353L13.992 7.51917L18.1075 9.95598C18.3451 10.0967 18.6518 10.0181 18.7925 9.78049C18.9332 9.54287 18.8546 9.23619 18.617 9.0955L14.2466 6.50775ZM13.9416 17.2921L13.8859 25.5601L6.23269 20.9854L6.23267 12.7135L13.9416 17.2921ZM19.3295 12.1944V12.9209H21.424V13.688H22.3061V12.9209H22.8473V12.1816H22.3061V9.32435H21.7777H21.441H21.1512L19.3295 12.1944ZM21.441 10.33H21.4069L20.2585 12.1475V12.1816H21.441V10.33ZM24.0769 13.5133C24.3411 13.6922 24.6564 13.7824 25.0229 13.7839C25.3894 13.7839 25.704 13.6944 25.9668 13.5154C26.2296 13.3364 26.4313 13.0772 26.5719 12.7377C26.714 12.3982 26.785 11.9891 26.785 11.5104C26.7864 11.0346 26.7161 10.6297 26.574 10.2959C26.432 9.96072 26.2289 9.70503 25.9647 9.5289C25.7019 9.35276 25.388 9.26469 25.0229 9.26469C24.6579 9.26469 24.3432 9.35276 24.079 9.5289C23.8162 9.70361 23.6138 9.95858 23.4718 10.2938C23.3311 10.629 23.2608 11.0346 23.2608 11.5104C23.2594 11.9877 23.329 12.3961 23.4696 12.7356C23.6117 13.0751 23.8141 13.3343 24.0769 13.5133ZM25.6216 12.6418C25.4725 12.8932 25.2729 13.019 25.0229 13.019C24.8567 13.019 24.7118 12.9636 24.5882 12.8528C24.4647 12.7405 24.3688 12.5729 24.3006 12.3499C24.2338 12.1255 24.2005 11.8457 24.2005 11.5104C24.2019 11.0147 24.2772 10.6425 24.4263 10.394C24.5755 10.1454 24.7743 10.0211 25.0229 10.0211C25.1891 10.0211 25.3333 10.0765 25.4554 10.1873C25.579 10.2981 25.6742 10.4636 25.7409 10.6837C25.8091 10.9039 25.8432 11.1795 25.8432 11.5104C25.8446 12.0133 25.7708 12.3904 25.6216 12.6418ZM27.2268 12.1944V12.9209H29.3212V13.688H30.2033V12.9209H30.7445V12.1816H30.2033V9.32435H29.6749H29.3383H29.0485L27.2268 12.1944ZM29.3383 10.33H29.3042L28.1558 12.1475V12.1816H29.3383V10.33Z" fill="currentColor"/>
</svg>
