<svg xmlns="http://www.w3.org/2000/svg" fill="none" viewBox="0 0 33 32"><path fill="currentColor" fill-rule="evenodd" d="M11 8V6h1v2h2V6h1v2h2V6h1v2h2V6h1v2h2a1 1 0 0 1 1 1v2.5h2v1h-2v2h2v1h-2v2h2v1h-2v2h2v1h-2V23a1 1 0 0 1-1 1h-2v2h-1v-2h-2v2h-1v-2h-2v2h-1v-2h-2v2h-1v-2H9a1 1 0 0 1-1-1v-1.5H6v-1h2v-2H6v-1h2v-2H6v-1h2v-2H6v-1h2V9a1 1 0 0 1 1-1h2Zm12 1H9v14h14V9ZM10.629 20v-2.91h.79v1.137h1.045v-1.136h.79V20h-.79v-1.136H11.42V20h-.79Zm2.92-2.273v-.636h2.529v.636h-.875V20h-.779v-2.273h-.875Zm2.747 0v-.636h2.528v.636h-.875V20h-.779v-2.273h-.875ZM19.12 20v-2.91h1.256c.216 0 .405.044.567.129a.928.928 0 0 1 .377.36c.09.154.135.334.135.54 0 .209-.046.389-.139.541a.914.914 0 0 1-.388.353 1.29 1.29 0 0 1-.58.123h-.438V20h-.79Zm1.068-1.477h-.278v-.801h.278c.093 0 .172.016.238.048a.339.339 0 0 1 .151.136.4.4 0 0 1 .055.213.412.412 0 0 1-.055.215.353.353 0 0 1-.151.14.532.532 0 0 1-.238.049ZM21 15H11v1h10v-1Zm-10-2h10v1H11v-1Zm10-2H11v1h10v-1Z" clip-rule="evenodd"/><path fill="#F68536" d="m24.521 29.701-1.064.243v-6.895l1.064.243v6.409ZM25.85 30.108l-1.328.377v-7.969l1.328.377v7.215Z"/><path fill="#F68536" d="m27.554 30.526-1.704.624v-9.298l1.704.624v8.05ZM32.11 29.722 27.554 32V21l4.556 2.278v6.444Z"/><path fill="#9D5025" d="m26.646 21.454.908-.454v11l-.908-.454V21.454ZM25.147 22.204l.703-.352v9.296l-.703-.352v-8.592ZM23.961 22.796l.56-.28v7.968l-.56-.28v-7.408ZM23.457 23.049l-.457.228v6.446l.457.228V23.05Z"/></svg>