<svg xmlns="http://www.w3.org/2000/svg" fill="none" viewBox="0 0 33 33"><path fill="#326CE5" d="M27.312 27.66a.196.196 0 0 0-.124.016.202.202 0 0 0-.098.262l-.001.002.463 1.118c.442-.283.778-.705.954-1.2l-1.192-.2-.002.002Zm-1.855.158a.201.201 0 0 0-.233-.153l-.002-.003-1.182.2c.178.492.512.91.952 1.191l.458-1.106-.004-.005a.2.2 0 0 0 .011-.124Zm.99.434a.202.202 0 0 0-.356 0l-.582 1.051a2.367 2.367 0 0 0 1.525.002l-.583-1.053h-.004Zm1.84-2.44-.895.8v.002a.202.202 0 0 0 .08.347l.001.005 1.158.333a2.402 2.402 0 0 0-.345-1.488Zm-1.662.089a.203.203 0 0 0 .321.154l.003.002.979-.694a2.38 2.38 0 0 0-1.372-.661l.068 1.199h.001Zm-1.036.158a.202.202 0 0 0 .32-.154l.006-.003.068-1.2a2.358 2.358 0 0 0-1.38.66l.984.699.002-.002Zm-.525.908a.201.201 0 0 0 .08-.347v-.005l-.898-.804a2.357 2.357 0 0 0-.335 1.492l1.152-.332.001-.004Zm.874.353.331.16.33-.16.083-.357-.229-.286h-.368l-.23.286.083.357Z"/><path fill="#326CE5" d="m31.751 28.023-.945-4.104a.738.738 0 0 0-.395-.492L26.586 21.6a.737.737 0 0 0-.635 0l-3.824 1.828a.74.74 0 0 0-.396.492l-.943 4.104a.72.72 0 0 0 .026.409.715.715 0 0 0 .114.205l2.647 3.291c.012.015.025.027.037.04a.724.724 0 0 0 .35.207c.06.017.122.026.185.026h4.245a.698.698 0 0 0 .26-.05.742.742 0 0 0 .136-.068.723.723 0 0 0 .176-.155l.08-.1 2.566-3.192a.715.715 0 0 0 .142-.299.72.72 0 0 0 0-.315Zm-3.967 1.597c.01.031.023.062.038.092a.18.18 0 0 0-.018.135c.056.128.124.25.203.363.045.059.086.12.123.183.01.017.021.043.03.062a.23.23 0 0 1-.099.326.23.23 0 0 1-.315-.13l-.028-.06a1.906 1.906 0 0 1-.067-.21 2.13 2.13 0 0 0-.157-.384.18.18 0 0 0-.116-.071l-.05-.088a2.962 2.962 0 0 1-2.112-.006l-.052.094a.186.186 0 0 0-.099.048 1.602 1.602 0 0 0-.177.412c-.018.07-.04.14-.066.21l-.028.058a.231.231 0 0 1-.223.153.23.23 0 0 1-.19-.348l.029-.062c.037-.063.078-.124.122-.183.081-.117.15-.242.207-.372a.228.228 0 0 0-.02-.13l.042-.1a2.98 2.98 0 0 1-1.32-1.648l-.1.017a.254.254 0 0 0-.132-.046c-.136.026-.27.065-.399.117-.067.03-.135.056-.205.079l-.06.013-.004.002a.23.23 0 0 1-.3-.262.23.23 0 0 1 .195-.184l.003-.001h.002l.062-.015c.072-.01.146-.016.22-.017.138-.01.275-.032.41-.068a.316.316 0 0 0 .098-.099l.096-.028a2.962 2.962 0 0 1 .467-2.065l-.074-.066a.254.254 0 0 0-.046-.132c-.105-.09-.219-.17-.34-.239a1.904 1.904 0 0 1-.19-.11l-.047-.039-.004-.002a.242.242 0 0 1-.056-.338.22.22 0 0 1 .183-.08.273.273 0 0 1 .159.06c.016.012.037.028.05.04a1.9 1.9 0 0 1 .152.16c.093.103.197.196.308.279a.18.18 0 0 0 .136.013l.083.059a2.944 2.944 0 0 1 1.91-.918l.005-.097a.25.25 0 0 0 .074-.119 2.138 2.138 0 0 0-.026-.415 1.924 1.924 0 0 1-.03-.217v-.065a.23.23 0 0 1 .399-.178.23.23 0 0 1 .058.177v.065a1.902 1.902 0 0 1-.03.218c-.023.137-.032.276-.027.415a.181.181 0 0 0 .075.115l.006.102a3 3 0 0 1 1.9.918l.087-.062a.255.255 0 0 0 .139-.015 2.14 2.14 0 0 0 .308-.28c.047-.056.098-.109.152-.16l.05-.04a.23.23 0 1 1 .285.358c-.015.012-.035.03-.05.04a1.89 1.89 0 0 1-.19.112 2.144 2.144 0 0 0-.34.239.181.181 0 0 0-.044.13l-.08.072c.405.605.575 1.338.476 2.06l.093.027a.258.258 0 0 0 .098.1c.135.035.272.058.41.067.074.002.147.008.22.018.02.003.047.011.067.016a.23.23 0 0 1 .154.365.23.23 0 0 1-.256.08h-.003l-.005-.002-.059-.012a1.925 1.925 0 0 1-.205-.08 2.138 2.138 0 0 0-.4-.117.18.18 0 0 0-.128.048 3.23 3.23 0 0 0-.098-.017 2.979 2.979 0 0 1-1.32 1.66Z"/><path fill="#fff" d="m32.25 28.129-1.031-4.478a.803.803 0 0 0-.432-.537l-4.173-1.993a.804.804 0 0 0-.692 0l-4.173 1.994a.805.805 0 0 0-.432.537l-1.029 4.478a.796.796 0 0 0 .154.67l2.888 3.59a.813.813 0 0 0 .624.298l4.631-.001a.813.813 0 0 0 .624-.297l2.887-3.592a.799.799 0 0 0 .154-.67Zm-.499.21a.752.752 0 0 1-.141.298l-2.566 3.191-.08.1a.72.72 0 0 1-.313.224.762.762 0 0 1-.26.05H24.148a.756.756 0 0 1-.535-.232l-.037-.04-2.647-3.292a.734.734 0 0 1-.14-.614l.943-4.105a.738.738 0 0 1 .395-.491l3.825-1.828a.737.737 0 0 1 .634 0l3.825 1.827a.737.737 0 0 1 .396.492l.945 4.104a.722.722 0 0 1 0 .315Z"/><path fill="#fff" d="M30.102 27.695c-.02-.005-.047-.013-.066-.016a1.92 1.92 0 0 0-.22-.018 2.136 2.136 0 0 1-.41-.067.258.258 0 0 1-.1-.1l-.091-.026a2.974 2.974 0 0 0-.477-2.06l.08-.074a.181.181 0 0 1 .044-.13c.105-.09.22-.17.34-.238a1.89 1.89 0 0 0 .19-.111c.015-.011.035-.029.05-.041a.23.23 0 0 0-.017-.398.23.23 0 0 0-.267.04l-.051.04a1.89 1.89 0 0 0-.151.16 2.14 2.14 0 0 1-.309.28.254.254 0 0 1-.139.015l-.087.062a3 3 0 0 0-1.9-.918l-.006-.102a.182.182 0 0 1-.074-.115 2.146 2.146 0 0 1 .026-.415c.014-.072.025-.144.03-.218.002-.018 0-.045 0-.065a.23.23 0 0 0-.4-.177.23.23 0 0 0-.057.178v.065c.006.073.016.145.031.217.022.137.03.277.025.415a.25.25 0 0 1-.074.119l-.005.097a2.945 2.945 0 0 0-1.91.918 4.28 4.28 0 0 1-.083-.059.18.18 0 0 1-.135-.013 2.131 2.131 0 0 1-.309-.279 1.914 1.914 0 0 0-.15-.16l-.052-.04a.273.273 0 0 0-.16-.06.221.221 0 0 0-.181.08.243.243 0 0 0 .056.337l.003.003.048.038c.06.04.124.078.19.111.12.069.234.149.34.24a.255.255 0 0 1 .046.131l.073.066a2.963 2.963 0 0 0-.467 2.065l-.096.028a.316.316 0 0 1-.098.099 2.144 2.144 0 0 1-.41.068 1.898 1.898 0 0 0-.22.017l-.061.014-.002.001-.003.001a.229.229 0 0 0-.155.365.232.232 0 0 0 .256.081h.004l.004-.002.06-.013c.07-.023.138-.049.205-.079.129-.052.262-.091.399-.117a.253.253 0 0 1 .131.046l.1-.017a2.98 2.98 0 0 0 1.32 1.648l-.042.1c.02.04.027.085.021.13-.057.13-.127.255-.207.372-.045.058-.086.12-.123.183-.01.017-.02.043-.03.061a.23.23 0 1 0 .414.197v-.001l.029-.059c.026-.068.048-.138.066-.21.04-.144.099-.283.177-.41a.187.187 0 0 1 .099-.049l.052-.094c.68.262 1.431.264 2.112.006l.049.088a.181.181 0 0 1 .117.07c.064.124.117.253.157.386a1.9 1.9 0 0 0 .066.21l.029.058a.23.23 0 1 0 .414-.195c-.01-.018-.021-.045-.03-.062a1.893 1.893 0 0 0-.123-.183 2.145 2.145 0 0 1-.203-.363.18.18 0 0 1 .018-.135.767.767 0 0 1-.039-.092 2.979 2.979 0 0 0 1.32-1.66c.03.004.081.013.098.017a.181.181 0 0 1 .128-.048c.136.026.27.066.4.118.066.03.135.056.204.079l.06.013.004.001H30a.228.228 0 0 0 .256-.08.23.23 0 0 0-.154-.365Zm-2.175-2.332-.978.694-.004-.002a.202.202 0 0 1-.32-.154h-.001l-.068-1.2c.517.065.999.297 1.371.662Zm-1.843 1.314h.369l.228.286-.082.357-.33.16-.332-.16-.082-.357.23-.286Zm-.346-1.933c.08-.019.162-.033.244-.042l-.068 1.2-.005.003a.2.2 0 0 1-.114.173.202.202 0 0 1-.206-.019l-.002.001-.985-.698a2.359 2.359 0 0 1 1.136-.618Zm-1.493 1.067.9.804-.002.005a.203.203 0 0 1 .064.197.202.202 0 0 1-.143.15l-.001.004-1.152.332c-.058-.52.06-1.046.334-1.492Zm1.204 2.136-.458 1.106a2.37 2.37 0 0 1-.951-1.19l1.181-.2.002.002a.203.203 0 0 1 .135.021.201.201 0 0 1 .087.256l.004.005ZM26.8 29.37a2.367 2.367 0 0 1-1.291-.067l.58-1.05h.002a.201.201 0 0 1 .281-.078.202.202 0 0 1 .074.077h.005l.582 1.053a2.455 2.455 0 0 1-.233.065Zm.751-.312-.462-1.118v-.002a.202.202 0 0 1 .222-.278l.002-.003 1.192.202a2.362 2.362 0 0 1-.954 1.199Zm1.08-1.759-1.159-.333v-.005a.202.202 0 0 1-.08-.347v-.002l.894-.8c.273.445.395.967.345 1.487Z"/><path fill="currentColor" fill-rule="evenodd" d="M13.737 6.508a.5.5 0 0 1 .51 0l4.37 2.587a.5.5 0 0 1-.51.861l-4.115-2.437-7.28 4.316 7.732 4.592 3.89-2.296a.5.5 0 1 1 .508.86l-3.9 2.304-.056 8.263 7.347-4.339v-3.387a.5.5 0 1 1 1 0v3.673a.5.5 0 0 1-.246.43l-8.353 4.934a.5.5 0 0 1-.51-.002l-8.648-5.169a.5.5 0 0 1-.243-.429v-9.434a.5.5 0 0 1 .245-.43l8.259-4.897Zm.149 19.052.056-8.268-7.71-4.579v8.272l7.654 4.575Z" clip-rule="evenodd"/><path fill="currentColor" d="M25.144 9.938a.375.375 0 0 0-.75 0v2.25c0 .142.08.272.207.335l1.5.75a.375.375 0 0 0 .336-.67l-1.293-.647V9.938Z"/><path fill="currentColor" fill-rule="evenodd" d="M20.644 12.188a4.125 4.125 0 1 1 8.25 0 4.125 4.125 0 0 1-8.25 0Zm4.125-3.375a3.375 3.375 0 1 0 0 6.75 3.375 3.375 0 0 0 0-6.75Z" clip-rule="evenodd"/><path stroke="currentColor" stroke-linecap="round" stroke-linejoin="round" stroke-width=".2" d="M13.737 6.508a.5.5 0 0 1 .51 0l4.37 2.587a.5.5 0 0 1-.51.861l-4.115-2.437-7.28 4.316 7.732 4.592 3.89-2.296a.5.5 0 1 1 .508.86l-3.9 2.304-.056 8.263 7.347-4.339v-3.387a.5.5 0 1 1 1 0v3.673a.5.5 0 0 1-.246.43l-8.353 4.934a.5.5 0 0 1-.51-.002l-8.648-5.169a.5.5 0 0 1-.243-.429v-9.434a.5.5 0 0 1 .245-.43l8.259-4.897Zm.149 19.052.056-8.268-7.71-4.579v8.272l7.654 4.575Z" clip-rule="evenodd"/><path stroke="currentColor" stroke-linecap="round" stroke-linejoin="round" stroke-width=".2" d="M25.144 9.938a.375.375 0 0 0-.75 0v2.25c0 .142.08.272.207.335l1.5.75a.375.375 0 0 0 .336-.67l-1.293-.647V9.938Z"/><path stroke="currentColor" stroke-linecap="round" stroke-linejoin="round" stroke-width=".2" d="M20.644 12.188a4.125 4.125 0 1 1 8.25 0 4.125 4.125 0 0 1-8.25 0Zm4.125-3.375a3.375 3.375 0 1 0 0 6.75 3.375 3.375 0 0 0 0-6.75Z" clip-rule="evenodd"/></svg>