<svg width="20" height="20" viewBox="0 0 20 20" fill="none" xmlns="http://www.w3.org/2000/svg">
<path d="M14.5833 14.5834C16.6667 17.5 19.9572 15.346 19.1667 12.5C17.9794 8.22598 17.3334 5.84634 16.9974 4.58998C16.7997 3.85117 16.1302 3.33337 15.3653 3.33337H4.63462C3.86985 3.33337 3.20333 3.85405 3.01737 4.59587C2.31792 7.38628 1.69383 9.83471 0.953457 12.5C0.162916 15.346 3.45346 17.5 5.53679 14.5834" stroke="currentColor" stroke-linecap="round" stroke-linejoin="round"/>
<path d="M13.3333 3.33337V5.00004C13.3333 5.92052 12.5872 6.66671 11.6667 6.66671H8.33334C7.41286 6.66671 6.66667 5.92052 6.66667 5.00004V3.33337" stroke="currentColor" stroke-linecap="round" stroke-linejoin="round"/>
<path d="M6.66667 13.3333C7.58714 13.3333 8.33333 12.5872 8.33333 11.6667C8.33333 10.7462 7.58714 10 6.66667 10C5.74619 10 5 10.7462 5 11.6667C5 12.5872 5.74619 13.3333 6.66667 13.3333Z" stroke="currentColor" stroke-linecap="round" stroke-linejoin="round"/>
<path d="M13.3333 13.3333C14.2538 13.3333 15 12.5872 15 11.6667C15 10.7462 14.2538 10 13.3333 10C12.4128 10 11.6667 10.7462 11.6667 11.6667C11.6667 12.5872 12.4128 13.3333 13.3333 13.3333Z" stroke="currentColor" stroke-linecap="round" stroke-linejoin="round"/>
</svg>
