<svg xmlns="http://www.w3.org/2000/svg" fill="none" viewBox="0 0 33 33"><path fill="#326CE5" d="M27.8711 27.6598a.1955.1955 0 0 0-.0464-.0035.1982.1982 0 0 0-.0773.0201.2024.2024 0 0 0-.0978.2617l-.0014.002.4626 1.1175a2.3616 2.3616 0 0 0 .9543-1.1988l-1.192-.2015-.002.0025Zm-1.8547.1584a.2015.2015 0 0 0-.1935-.157.1965.1965 0 0 0-.0398.0036l-.002-.0025-1.1816.2006c.1775.4907.5119.9091.9514 1.1903l.4579-1.1065-.0036-.0043a.1998.1998 0 0 0 .0112-.1242Zm.9896.4339a.202.202 0 0 0-.2816-.0775.2008.2008 0 0 0-.074.0779h-.001l-.5811 1.0508a2.3674 2.3674 0 0 0 1.2917.0664 2.4492 2.4492 0 0 0 .2328-.0651l-.5824-1.0525h-.0044Zm1.8395-2.4408-.894.8002.0004.0026a.2018.2018 0 0 0-.064.1971.2017.2017 0 0 0 .1432.1497l.0011.0049 1.158.3335a2.4019 2.4019 0 0 0-.3447-1.4879v-.0001Zm-1.661.0897a.2026.2026 0 0 0 .0333.1022.2028.2028 0 0 0 .1868.0897.2016.2016 0 0 0 .1006-.0379l.0036.0015.9782-.6936a2.3791 2.3791 0 0 0-1.3715-.6612l.0679 1.199.0011.0003Zm-1.036.1584a.2018.2018 0 0 0 .3203-.1546l.005-.0023.0679-1.2008a2.431 2.431 0 0 0-.2441.042 2.3576 2.3576 0 0 0-1.1356.6189l.9846.698.0019-.0012Zm-.5249.9074a.2011.2011 0 0 0 .1436-.1497.2015.2015 0 0 0-.0643-.1972l.001-.0048-.899-.804a2.3572 2.3572 0 0 0-.3345 1.4921l1.1523-.3325.0009-.0039Zm.8732.3532.3316.1595.3306-.1592.0821-.3569-.2288-.2862h-.3683l-.2295.2857.0823.3571Z"/><path fill="#326CE5" d="m32.3106 28.0233-.945-4.1045a.7374.7374 0 0 0-.3955-.4921l-3.825-1.8263a.7374.7374 0 0 0-.6349 0l-3.8243 1.8272a.7388.7388 0 0 0-.3956.4921l-.9435 4.1044a.724.724 0 0 0-.0002.3152.7385.7385 0 0 0 .0266.0932.7102.7102 0 0 0 .1144.2055l2.6471 3.2912c.0115.0143.0243.0273.0369.0406a.7239.7239 0 0 0 .1396.1157.755.755 0 0 0 .2092.091.722.722 0 0 0 .1861.0256h.0411l4.2038-.0009a.6994.6994 0 0 0 .0765-.0045.7604.7604 0 0 0 .1828-.0445.7573.7573 0 0 0 .0566-.0235.749.749 0 0 0 .0803-.0446.7211.7211 0 0 0 .1755-.1554l.0807-.1003 2.5655-3.1915a.7124.7124 0 0 0 .1143-.2053.7359.7359 0 0 0 .0272-.0935.7206.7206 0 0 0-.0002-.3148Zm-3.9675 1.5964a.7913.7913 0 0 0 .0382.0924.1798.1798 0 0 0-.0178.135c.0557.1275.1237.2492.203.3634.0444.0584.0854.1194.1227.1825.0093.0171.0213.0435.03.0616a.2293.2293 0 0 1-.0232.2684.23.23 0 0 1-.3906-.0727c-.0087-.0179-.0209-.0418-.0283-.0587a1.9063 1.9063 0 0 1-.0665-.2098 2.1363 2.1363 0 0 0-.157-.385.1814.1814 0 0 0-.1169-.0709c-.0073-.0126-.0344-.0623-.0489-.088a2.9627 2.9627 0 0 1-2.1126-.0054l-.0518.0938a.1864.1864 0 0 0-.0986.0481 1.6027 1.6027 0 0 0-.1773.4113 1.9037 1.9037 0 0 1-.066.2098c-.0074.0168-.0196.0403-.0283.0582l-.0004.0009a.2313.2313 0 0 1-.2223.1525.2295.2295 0 0 1-.2143-.1636.2295.2295 0 0 1 .0233-.185c.0086-.0182.0202-.0445.0293-.0616a1.9207 1.9207 0 0 1 .1227-.183 2.2327 2.2327 0 0 0 .2072-.3724.2265.2265 0 0 0-.0204-.1294l.0417-.0998a2.9786 2.9786 0 0 1-1.3201-1.6482l-.0998.017a.254.254 0 0 0-.1317-.0464 2.148 2.148 0 0 0-.3989.1174 1.9397 1.9397 0 0 1-.2054.0787c-.0166.0045-.0405.0091-.0593.0132-.0015.0006-.0028.0012-.0044.0016a.0198.0198 0 0 1-.0035.0003.2302.2302 0 0 1-.1848-.0182.2293.2293 0 0 1-.111-.149.23.23 0 0 1 .1942-.2788l.0033-.0009.002-.0005c.0191-.0045.0436-.0109.0611-.0142a1.9228 1.9228 0 0 1 .2197-.0177 2.1338 2.1338 0 0 0 .4102-.0674.3159.3159 0 0 0 .0984-.0992l.0959-.028a2.9623 2.9623 0 0 1 .4671-2.0651l-.0734-.0654a.2542.2542 0 0 0-.0459-.1321 2.1433 2.1433 0 0 0-.3405-.2392 1.915 1.915 0 0 1-.1898-.111c-.0139-.0103-.0323-.0259-.0474-.0382l-.0034-.0023a.2427.2427 0 0 1-.0563-.3375.2201.2201 0 0 1 .1824-.0807.2729.2729 0 0 1 .1596.0602c.0155.0122.0368.0285.0507.0404a1.916 1.916 0 0 1 .1508.16 2.132 2.132 0 0 0 .3086.2789.1812.1812 0 0 0 .136.0132c.0272.0199.0547.0394.0825.0587a2.9451 2.9451 0 0 1 1.4958-.8546 2.9973 2.9973 0 0 1 .4138-.0636l.0054-.0968a.2497.2497 0 0 0 .0744-.1184 2.1535 2.1535 0 0 0-.0255-.4152 1.9243 1.9243 0 0 1-.0313-.2177c-.0006-.0166.0003-.0396.0006-.0586 0-.0022-.0006-.0044-.0006-.0064a.2311.2311 0 0 1 .0582-.1775.2295.2295 0 0 1 .1706-.0758.2292.2292 0 0 1 .1707.0757.2312.2312 0 0 1 .0584.1774c0 .02.0011.0466.0004.065a1.8802 1.8802 0 0 1-.0314.2177 2.1543 2.1543 0 0 0-.0259.4153.1815.1815 0 0 0 .0748.1144c.0008.0166.0035.0718.0055.1022a2.9994 2.9994 0 0 1 1.9001.9181l.0872-.0622a.2544.2544 0 0 0 .1388-.0151 2.134 2.134 0 0 0 .3086-.2792 1.9207 1.9207 0 0 1 .1512-.16c.014-.0121.0353-.0282.0508-.0405a.2292.2292 0 0 1 .1753-.0658.2287.2287 0 0 1 .0922.0255.23.23 0 0 1 .0177.3982c-.0154.0124-.0357.0297-.0504.0407a1.891 1.891 0 0 1-.1903.1109 2.149 2.149 0 0 0-.3404.2392.1815.1815 0 0 0-.043.1297c-.0127.0117-.0575.0513-.0812.0728a2.974 2.974 0 0 1 .4769 2.0602l.0924.0269a.258.258 0 0 0 .0987.0993c.1344.0358.2718.0584.4105.0675a1.942 1.942 0 0 1 .2195.0176c.0192.0035.0471.0112.0667.0157a.229.229 0 0 1 .1587.0966.2314.2314 0 0 1 .0369.0875.2286.2286 0 0 1-.1126.2438.2296.2296 0 0 1-.1849.0181l-.0033-.0004c-.0015-.0004-.0029-.0012-.0045-.0016-.0189-.0041-.0426-.0082-.0591-.0125a1.9335 1.9335 0 0 1-.2053-.0793 2.1358 2.1358 0 0 0-.3994-.1175.1811.1811 0 0 0-.1281.0476 3.223 3.223 0 0 0-.0978-.0171 2.9792 2.9792 0 0 1-1.3196 1.66Z"/><path fill="#fff" d="m32.8091 28.1286-1.0309-4.478a.8041.8041 0 0 0-.4316-.537l-4.1729-1.9922a.8046.8046 0 0 0-.6927 0l-4.1726 1.9934a.8048.8048 0 0 0-.4318.5367l-1.0291 4.4782a.7958.7958 0 0 0 .1537.6697l2.888 3.591a.8132.8132 0 0 0 .6237.2976l4.6313-.0011a.8135.8135 0 0 0 .6238-.2973l2.887-3.5912a.799.799 0 0 0 .1541-.6697v-.0001Zm-.4988.2096a.7518.7518 0 0 1-.027.0935.7154.7154 0 0 1-.1145.2053l-2.5654 3.1914-.0806.1004a.7202.7202 0 0 1-.1758.1554.7432.7432 0 0 1-.0799.0446.696.696 0 0 1-.0567.0233.7616.7616 0 0 1-.1829.0447.698.698 0 0 1-.0765.0045l-4.2037.001h-.0413a.7224.7224 0 0 1-.186-.0256.7558.7558 0 0 1-.209-.0911.7251.7251 0 0 1-.1398-.1157c-.0126-.0133-.0253-.0264-.0368-.0406l-2.6472-3.2912a.7106.7106 0 0 1-.1143-.2057.7226.7226 0 0 1-.0267-.0932.722.722 0 0 1 .0003-.3151l.9434-4.1046a.7378.7378 0 0 1 .3957-.4919l3.8243-1.8271a.737.737 0 0 1 .6348 0l3.8249 1.8263a.7367.7367 0 0 1 .3956.4921l.945 4.1045a.7215.7215 0 0 1 .0001.315v-.0002Z"/><path fill="#fff" d="M30.6615 27.6945c-.0195-.0045-.0474-.0122-.0666-.0157a1.9176 1.9176 0 0 0-.2194-.0177 2.1376 2.1376 0 0 1-.4106-.0673.2576.2576 0 0 1-.0987-.0994l-.0924-.0269a2.9745 2.9745 0 0 0-.4768-2.0602c.0236-.0215.0684-.0611.0811-.0728a.1807.1807 0 0 1 .0429-.1296 2.1433 2.1433 0 0 1 .3405-.2392 1.8904 1.8904 0 0 0 .1902-.111c.0148-.0109.0349-.0283.0504-.0407a.2302.2302 0 0 0-.1098-.4237.2294.2294 0 0 0-.1753.0658c-.0156.0123-.0369.0284-.0507.0405a1.8902 1.8902 0 0 0-.1513.16 2.1505 2.1505 0 0 1-.3086.2792.2547.2547 0 0 1-.1389.0151l-.0871.0622a2.9998 2.9998 0 0 0-1.9001-.9181c-.0021-.0304-.0047-.0855-.0055-.1022a.181.181 0 0 1-.0747-.1144 2.1384 2.1384 0 0 1 .0259-.4153 1.9 1.9 0 0 0 .0312-.2176c.0007-.0184-.0004-.0452-.0004-.0651a.2295.2295 0 0 0-.0583-.1774.2295.2295 0 0 0-.1707-.0758.231.231 0 0 0-.1707.0759.2308.2308 0 0 0-.0581.1775c0 .0021.0005.0042.0005.0064-.0002.019-.0011.042-.0005.0586.0062.0731.0166.1458.0312.2177.022.1372.0305.2763.0255.4152a.2495.2495 0 0 1-.0743.1183l-.0054.0969a2.9813 2.9813 0 0 0-.4139.0636 2.945 2.945 0 0 0-1.4956.8545 3.9855 3.9855 0 0 1-.0827-.0587.1807.1807 0 0 1-.136-.0132 2.1366 2.1366 0 0 1-.3086-.2788 1.9136 1.9136 0 0 0-.1506-.16c-.0139-.012-.0353-.0282-.0509-.0407a.2729.2729 0 0 0-.1596-.0602.221.221 0 0 0-.1824.0808.2425.2425 0 0 0 .0563.3375l.0036.0025c.0149.0122.0334.0279.0473.0381.061.0406.1244.0777.1897.111.121.0685.235.1487.3404.2393a.2544.2544 0 0 1 .0461.1321l.0733.0655a2.9621 2.9621 0 0 0-.4671 2.065l-.0958.0279a.3156.3156 0 0 1-.0984.0991 2.1443 2.1443 0 0 1-.4103.0677 1.8985 1.8985 0 0 0-.2196.0176c-.0176.0033-.042.0095-.0612.0142l-.002.0005-.0032.001a.229.229 0 0 0-.1587.0965.231.231 0 0 0-.0354.1823.2314.2314 0 0 0 .1109.149.2301.2301 0 0 0 .1849.0182l.0034-.0005c.0015-.0004.0028-.0011.0043-.0014.0189-.0043.0427-.0088.0592-.0133a1.9314 1.9314 0 0 0 .2054-.0787 2.1502 2.1502 0 0 1 .3991-.1175.254.254 0 0 1 .1316.0465l.0998-.0171a2.9784 2.9784 0 0 0 1.3202 1.6482l-.0417.0998a.2276.2276 0 0 1 .0204.1295 2.2357 2.2357 0 0 1-.2072.3723 1.8883 1.8883 0 0 0-.1227.1829c-.0092.0172-.0207.0436-.0294.0617a.2295.2295 0 0 0 .0228.2683.2305.2305 0 0 0 .1683.0799.2312.2312 0 0 0 .0936-.0173.2297.2297 0 0 0 .1286-.1348l.0004-.0004v-.0005c.0087-.0179.021-.0414.0283-.0582a1.8975 1.8975 0 0 0 .0661-.2098 1.6018 1.6018 0 0 1 .1772-.4112.1865.1865 0 0 1 .0987-.0482l.0519-.0938a2.9622 2.9622 0 0 0 2.1124.0053c.0145.026.0417.0755.0488.0881a.1808.1808 0 0 1 .1169.071c.0648.1229.1175.2518.1572.3849.0181.0712.0403.1412.0664.2098.0075.0169.0196.0407.0283.0587a.2312.2312 0 0 0 .1286.1349.229.229 0 0 0 .1862-.0046.229.229 0 0 0 .1218-.141.2307.2307 0 0 0-.0227-.1849c-.0087-.0181-.0208-.0445-.0298-.0617a1.913 1.913 0 0 0-.1228-.1824 2.1374 2.1374 0 0 1-.2029-.3634.18.18 0 0 1 .0175-.1351.7836.7836 0 0 1-.0381-.0924 2.9784 2.9784 0 0 0 1.3195-1.6599 3.554 3.554 0 0 1 .098.0171.181.181 0 0 1 .128-.0476c.1366.0261.2703.0654.3992.1175.0669.0303.1355.0568.2055.0792.0165.0044.0401.0085.0591.0127l.0045.0015.0032.0005a.2301.2301 0 0 0 .2559-.081.2294.2294 0 0 0 .0045-.2684.2308.2308 0 0 0-.1585-.0967Zm-2.175-2.3316-.9783.6936-.0034-.0016a.202.202 0 0 1-.3208-.154l-.001-.0005-.068-1.1988a2.3787 2.3787 0 0 1 1.3715.6613Zm-1.8429 1.3142h.3681l.2289.2861-.082.3569-.3307.1592-.3316-.1595-.0822-.3571.2295-.2856Zm-.3464-1.9336a2.4278 2.4278 0 0 1 .2442-.0419l-.0681 1.2006-.0049.0024a.2023.2023 0 0 1-.1139.1732.2018.2018 0 0 1-.2064-.0185l-.0019.0011-.9846-.6982a2.358 2.358 0 0 1 1.1356-.6187Zm-1.4927 1.0675.899.804-.001.0049a.2015.2015 0 0 1 .0132.2919.2023.2023 0 0 1-.0925.0549l-.0009.004-1.1523.3324a2.3565 2.3565 0 0 1 .3345-1.4921Zm1.2036 2.1359-.4578 1.1063a2.3697 2.3697 0 0 1-.9511-1.1904l1.1815-.2007.002.0027a.202.202 0 0 1 .0396-.0036.2023.2023 0 0 1 .1662.092.2008.2008 0 0 1 .0162.1893l.0034.0044Zm1.3515 1.4227a2.3673 2.3673 0 0 1-1.2917-.0663l.581-1.0508h.001a.202.202 0 0 1 .3556-.0003h.0044l.5825 1.0525a2.4617 2.4617 0 0 1-.2328.0649Zm.7507-.3119-.4626-1.1176.0014-.002a.2024.2024 0 0 1 .1751-.2817.195.195 0 0 1 .0464.0034l.002-.0025 1.192.2015a2.3608 2.3608 0 0 1-.9543 1.1989Zm1.0795-1.7585-1.1581-.3335-.0011-.0049a.2014.2014 0 0 1-.0922-.0552.2006.2006 0 0 1-.051-.0946.2028.2028 0 0 1 .064-.1971l-.0004-.0023.894-.8001c.2737.4452.3948.9675.3448 1.4877Z"/><path fill="currentColor" fill-rule="evenodd" d="M14.8058 6.5077a.5001.5001 0 0 0-.5098.0002l-8.2591 4.897a.5.5 0 0 0-.245.4301v9.4341c0 .1759.0925.3389.2435.4292l8.6472 5.1689a.5002.5002 0 0 0 .5108.0013l8.3527-4.9332a.5.5 0 0 0 .2458-.4305v-4.4962a.5.5 0 0 0-1 0v4.2108l-7.3468 4.3391.0557-8.2633 3.9007-2.3036a.5.5 0 1 0-.5085-.8611l-3.8896 2.297-7.7318-4.5922 7.2796-4.3161 4.1155 2.4368a.5.5 0 1 0 .5095-.8605l-4.3704-2.5877Zm-.305 10.7844-.0557 8.268-7.6532-4.5747v-8.2719l7.7089 4.5786Zm7.3332-3.6041V9.3244h-1.0546v4.3636h1.0546Zm1.4858.6562 1.4062-5.2244h-.8885l-1.4062 5.2244h.8885Zm5.8462-1.6171c.1846-.3339.277-.7408.277-1.2209 0-.4801-.0924-.8871-.277-1.2209-.1847-.3338-.4347-.5874-.75-.7607-.3139-.1733-.6662-.26-1.0568-.26-.3921 0-.7451.0867-1.059.26-.3139.1733-.5632.4269-.7479.7607-.1832.3338-.2748.7408-.2748 1.2209 0 .4787.0916.8849.2748 1.2187.1847.3324.434.586.7479.7607.3139.1747.6669.262 1.059.262.3906 0 .7429-.0866 1.0568-.2599.3153-.1733.5653-.4268.75-.7606Zm-.9226-1.9411c.081.196.1214.4361.1214.7202 0 .2841-.0404.5241-.1214.7201-.0796.1961-.1946.3445-.3452.4454-.1491.1008-.3288.1512-.539.1512-.2089 0-.3885-.0504-.5391-.1512-.1506-.1009-.2663-.2493-.3473-.4454-.0796-.196-.1193-.436-.1193-.7201 0-.2841.0397-.5242.1193-.7202.081-.196.1967-.3445.3473-.4453.1506-.1009.3302-.1513.5391-.1513.2102 0 .3899.0504.539.1513.1506.1008.2656.2493.3452.4453Z" clip-rule="evenodd"/></svg>