<svg xmlns="http://www.w3.org/2000/svg" fill="none" viewBox="0 0 32 32"><g clip-path="url(#a)"><g clip-path="url(#b)"><path fill="#9D5125" d="m21.5889 30.9478 2.3212-4.2765-2.3212-4.6195-.5889.2915v8.3129l.5889.2916Zm5.6372-6.7521-3.8477-.646.869-1.2235 3.8877 1.7266-.909.1429Zm.0457 4.591-4.5623.7489.9547 1.315 4.4709-1.9324-.8633-.1315Z"/><path fill="#F58534" d="M22.961 22.3662v8.2614l-1.3721.3202v-8.896l1.3721.3144Z"/><path fill="#9D5125" d="m22.961 31.6339-.7203-.3602v-9.5478l.7203-.3602 1.355 5.7116-1.355 4.5566Zm5.1741-7.5811-.9147.143v4.5795l.9147.1429.8348-2.3269-.8348-2.5385Z"/><path fill="#F58534" d="M24.3617 21.7659v9.4735l-1.4007.3945V21.3657l1.4007.4002Z"/><path fill="#F58534" d="M29.0899 29.9016V28.741l-6.1289 1.1377v1.7552l6.1289-1.7323Zm.0114-6.7921v1.1263l-6.1403-1.1663v-1.7038l6.1403 1.7438Z"/><path fill="#F58534" d="M28.1351 30.1707v-7.3353l.9834.2688v6.7978l-.9834.2687Z"/><path fill="#6B3B19" d="M31.0967 23.5156 32 25.6024l-2.6357.1258-.9319-.0629 2.6643-2.1497Z"/><path fill="#9D5125" d="M28.4324 23.9501v1.7152l2.6643-.1544v-1.9953l-2.6643.4345Z"/><path fill="#6B3B19" d="m27.1975 25.5796-1.275-.0857 2.7043-2.7214 1.3721 2.6299-2.8014.1772Z"/><path fill="#9D5125" d="M25.9225 23.4014v2.0925l2.7043-.2287v-2.4927l-2.7043.6289Zm2.5099 5.6886v-1.7152L32 27.432l-.9033 2.0868-2.6643-.4288Z"/><path fill="#9D5125" d="M25.9225 29.633v-2.0925l4.0764.0915-1.3721 2.6299-2.7043-.6289Z"/><path fill="#FCBF92" d="m27.1975 27.4549-1.275.0858 2.7043.2287 1.3721-.1372-2.8014-.1773Zm3.8992.0687L32 27.4321l-2.6357-.1201-.9319.0629 2.6643.1487Z"/><path fill="#F58534" d="M31.0967 23.5157v1.9953l.9033.0915v-1.8181l-.9033-.2687Zm-1.0977-.3316v2.2183l-1.3722-.1372v-2.4927l1.3722.4116Zm1.0977 6.3347v-1.9953L32 27.432v1.8181l-.9033.2687Zm-1.0977.3316v-2.2183l-1.3722.1372v2.4928l1.3722-.4117Z"/></g><path fill="currentColor" fill-rule="evenodd" d="M27.4828 11.0063c1.9316 0 3.4974-1.5682 3.4974-3.5027 0-1.9346-1.5658-3.5028-3.4974-3.5028-1.9316 0-3.4975 1.5682-3.4975 3.5028 0 1.9345 1.5659 3.5027 3.4975 3.5027Zm0 1.0008c2.4834 0 4.4967-2.0163 4.4967-4.5035C31.9795 5.0163 29.9662 3 27.4828 3c-2.4835 0-4.4967 2.0163-4.4967 4.5036 0 2.4872 2.0132 4.5035 4.4967 4.5035Zm.0001-7.0055a.5.5 0 0 1 .4995.5004v2.795l.1464-.1465a.499.499 0 0 1 .7065 0 .5008.5008 0 0 1 0 .7077l-.9992 1.0008a.4998.4998 0 0 1-.3549.1466.4995.4995 0 0 1-.3548-.147l-.9966-1.0009a.5009.5009 0 0 1 .0009-.7076.4991.4991 0 0 1 .7066.0009l.144.1446.0019-2.7936a.5002.5002 0 0 1 .4997-.5004Zm-10.736-.9959c2.4012.156 4.5914 1.0095 6.3863 2.3506a4.5202 4.5202 0 0 0-.1472 1.1473v.01c-1.7231-1.4328-3.8979-2.353-6.3038-2.5092-6.0579-.3933-11.2873 4.2063-11.68 10.2735-.1957 3.0243.8472 5.8424 2.6929 7.9571.683-3.0348 3.0706-5.4535 6.1492-6.3494-1.1124-.7108-1.8502-1.9577-1.8502-3.3773 0-2.2109 1.7896-4.0031 3.9971-4.0031s3.9971 1.7922 3.9971 4.0031c0 1.3048-.6233 2.4638-1.588 3.1947 1.5203.3109 2.8992.9856 4.0281 1.9249a.501.501 0 0 1 .0651.7046.4991.4991 0 0 1-.7036.0652c-1.4085-1.1718-3.2627-1.8861-5.299-1.8861-4.1138 0-7.4649 2.9065-7.937 6.6036 1.7811 1.6329 4.109 2.6919 6.7061 2.8605a11.0025 11.0025 0 0 0 2.6195-.1414.4997.4997 0 0 1 .5784.4065.5003.5003 0 0 1-.4058.5793 12.0017 12.0017 0 0 1-2.8567.1543c-2.9021-.1884-5.4959-1.3958-7.4562-3.2514a.5025.5025 0 0 1-.103-.0987c-2.4411-2.366-3.8681-5.75-3.6312-9.4111.4285-6.6188 6.1332-11.6365 12.7419-11.2075Zm10.1932 12.6966c.1121-1.7319-.182-3.3962-.8005-4.8995a4.4761 4.4761 0 0 0 1.1459.2001c.522 1.4837.7598 3.0951.6517 4.7641a12.0495 12.0495 0 0 1-.548 2.9006.4996.4996 0 0 1-.6284.3237.5006.5006 0 0 1-.3231-.6294 11.0485 11.0485 0 0 0 .5024-2.6596Zm-13.9467-3.194c0-1.6581 1.3422-3.0023 2.9978-3.0023 1.6556 0 2.9978 1.3442 2.9978 3.0023 0 1.6582-1.3422 3.0024-2.9978 3.0024-1.6556 0-2.9978-1.3442-2.9978-3.0024Z" clip-rule="evenodd"/></g><defs><clipPath id="a"><path fill="#fff" d="M0 0h32v32H0z"/></clipPath><clipPath id="b"><path fill="#fff" d="M21 21h11v11H21z"/></clipPath></defs></svg>