<svg fill="none" xmlns="http://www.w3.org/2000/svg" viewBox="0 0 28 28"><path d="M9.335 5.833h9.333a4.667 4.667 0 0 1 4.667 4.667v4.667a4.667 4.667 0 0 1-4.667 4.667h-4.667l-4.666 3.5v-3.5a4.667 4.667 0 0 1-4.667-4.667V10.5a4.667 4.667 0 0 1 4.667-4.667Z" stroke="#6AD5F8" stroke-linecap="round" stroke-linejoin="round"/><mask id="a" fill="#fff"><path fill-rule="evenodd" clip-rule="evenodd" d="M9.332 10.729a.5.5 0 0 0 0 1h9.333a.5.5 0 0 0 0-1H9.332Zm0 3.208a.5.5 0 0 0 0 1h8.167a.5.5 0 1 0 0-1H9.332Z"/></mask><path d="M9.832 11.229a.5.5 0 0 1-.5.5v-2a1.5 1.5 0 0 0-1.5 1.5h2Zm-.5-.5a.5.5 0 0 1 .5.5h-2a1.5 1.5 0 0 0 1.5 1.5v-2Zm9.333 0H9.332v2h9.333v-2Zm-.5.5a.5.5 0 0 1 .5-.5v2a1.5 1.5 0 0 0 1.5-1.5h-2Zm.5.5a.5.5 0 0 1-.5-.5h2a1.5 1.5 0 0 0-1.5-1.5v2Zm-9.333 0h9.333v-2H9.332v2Zm.5 2.708a.5.5 0 0 1-.5.5v-2a1.5 1.5 0 0 0-1.5 1.5h2Zm-.5-.5a.5.5 0 0 1 .5.5h-2a1.5 1.5 0 0 0 1.5 1.5v-2Zm8.167 0H9.332v2h8.167v-2Zm-.5.5a.5.5 0 0 1 .5-.5v2a1.5 1.5 0 0 0 1.5-1.5h-2Zm.5.5a.5.5 0 0 1-.5-.5h2a1.5 1.5 0 0 0-1.5-1.5v2Zm-8.167 0h8.167v-2H9.332v2Z" fill="#6AD5F8" mask="url(#a)"/></svg>