<svg viewBox="0 0 600 600">
  <defs>
    <style>
      .cls-1{fill:#2b347b;stroke-width:0}
    </style>
  </defs>
  <path d="M501.03 19.25 248.51 292.47c-5.19 5.19-14.7 5.26-19.57.58L99.18 142.6l-.65-.71a56.17 56.17 0 0 0-42.4-16.45 56.65 56.65 0 0 0-41.01 20.51 54.94 54.94 0 0 0-12.31 39.64 59.5 59.5 0 0 0 17.57 37.58L169.5 351.64c2.6 2.66 4.03 6.19 4.03 9.91s-1.43 7.23-3.57 9.5L20.83 499.49l-.68.64a59.7 59.7 0 0 0-17.26 41.04c-.21 16.1 5.96 30.82 17.35 41.43a56.3 56.3 0 0 0 18.11 11.34 57.03 57.03 0 0 0 41.53-.36 56.5 56.5 0 0 0 18.99-12.75l129.67-150.35c5.29-5.12 14.56-5.14 19.41-.44l129.8 150.49.64.68a56.3 56.3 0 0 0 39.87 16.51 56.15 56.15 0 0 0 38.4-15.11c11.42-10.63 17.58-25.35 17.36-41.45a59.88 59.88 0 0 0-17.63-41.38L307.41 371.46c-2.59-2.68-4.02-6.19-4.02-9.91s1.42-7.33 3.7-9.63L580.01 99.73a59.37 59.37 0 0 0 17.2-37.22 55.13 55.13 0 0 0-12.3-39.66 56.56 56.56 0 0 0-43.58-20.56c-14.81 0-29.33 6.04-40.27 16.96" class="cls-1"/>
  <path d="M597.19 62.51a55.1 55.1 0 0 0-12.3-39.65A56.52 56.52 0 0 0 541.31 2.3c-14.81 0-29.33 6.03-40.27 16.96L248.52 292.48c-5.19 5.18-14.7 5.26-19.57.58L99.18 142.6l-.66-.71a56.16 56.16 0 0 0-42.4-16.45 56.65 56.65 0 0 0-41.01 20.51A54.94 54.94 0 0 0 2.8 185.59a59.43 59.43 0 0 0 17.57 37.57l113.93 98.15 43.27 37.27a93.6 93.6 0 0 0 124.62-2.17l33.46-30.92L579.98 99.73a59.37 59.37 0 0 0 17.2-37.23" class="cls-1"/>
</svg>