<svg fill="none" viewBox="-1 0 40 46">
  <g fill="#2B347B" clip-path="url(#clip0_7438_64750)">
    <path d="M29.527 1.199 17.564 14.143c-.246.246-.697.25-.927.027l-6.148-7.127-.031-.034a2.661 2.661 0 0 0-2.009-.78 2.684 2.684 0 0 0-1.943.972 2.603 2.603 0 0 0-.583 1.878 2.82 2.82 0 0 0 .832 1.78l7.065 6.087a.67.67 0 0 1 .191.47.669.669 0 0 1-.169.45L6.777 23.95l-.032.03a2.828 2.828 0 0 0-.818 1.945c-.01.763.282 1.46.822 1.963a2.668 2.668 0 0 0 3.725-.084l6.143-7.123c.251-.243.69-.244.92-.021l6.15 7.13.03.032a2.668 2.668 0 0 0 3.708.066 2.596 2.596 0 0 0 .823-1.964 2.838 2.838 0 0 0-.835-1.96l-7.059-6.08a.672.672 0 0 1-.19-.47.66.66 0 0 1 .175-.455L33.269 5.01a2.81 2.81 0 0 0 .815-1.763 2.612 2.612 0 0 0-.583-1.879 2.68 2.68 0 0 0-2.064-.974 2.71 2.71 0 0 0-1.908.804"/>
    <path d="M34.077 3.255a2.61 2.61 0 0 0-.583-1.879A2.678 2.678 0 0 0 31.43.402c-.702 0-1.39.286-1.908.804L17.558 14.15c-.246.246-.697.25-.927.028l-6.149-7.129-.031-.033a2.66 2.66 0 0 0-2.009-.78 2.684 2.684 0 0 0-1.943.972 2.603 2.603 0 0 0-.583 1.878c.052.664.342 1.29.832 1.78l5.398 4.65 2.05 1.766a4.434 4.434 0 0 0 5.905-.103l1.585-1.465L33.262 5.018c.473-.473.762-1.1.815-1.764M15.938 39.605c0 .862-.162 1.6-.485 2.215a3.43 3.43 0 0 1-1.312 1.406c-.553.326-1.179.488-1.88.488-.7 0-1.327-.162-1.882-.488a3.493 3.493 0 0 1-1.313-1.41c-.32-.615-.48-1.352-.48-2.211 0-.862.16-1.599.48-2.21.323-.616.76-1.086 1.313-1.411.555-.326 1.182-.488 1.883-.488.7 0 1.326.162 1.879.488.554.325.992.795 1.312 1.41.323.612.485 1.349.485 2.211Zm-1.458 0c0-.607-.095-1.118-.285-1.535-.187-.42-.448-.736-.78-.95a2.071 2.071 0 0 0-1.153-.324 2.07 2.07 0 0 0-1.153.325c-.333.213-.595.53-.785.949-.187.416-.281.928-.281 1.535 0 .607.094 1.12.281 1.54.19.416.452.732.785.948.334.214.718.32 1.153.32a2.09 2.09 0 0 0 1.152-.32c.333-.216.594-.532.781-.949.19-.42.285-.932.285-1.539Zm9.402-4v8h-1.29l-3.769-5.45h-.066v5.45h-1.45v-8h1.298l3.765 5.453h.07v-5.453h1.442Zm1.579 8v-8h5.203v1.215H26.91v2.172h3.485v1.215H26.91v2.183h3.785v1.215h-5.234Z"/>
  </g>
</svg>