<svg fill="none" viewBox="0 0 2615 520" xmlns="http://www.w3.org/2000/svg"><path clip-rule="evenodd" d="m2474.51 513.119h-93.95l-139.84-367.083h106.61l80.2 228.955 79.81-228.955h106.95zm-294.1-48.82c-21.68 22.053-48.51 38.357-78.08 47.433-29.56 9.075-60.92 10.638-91.24 4.547-30.32-6.092-58.64-19.644-82.4-39.433-23.77-19.789-42.22-45.192-53.7-73.907-9.97-24.305-14.98-50.353-14.76-76.621-.25-26.544 4.76-52.875 14.76-77.468 9.28-22.938 22.96-43.841 40.27-61.531 17.07-17.263 37.32-31.052 59.64-40.607 23.01-9.868 47.81-14.882 72.85-14.729 25.07-.192 49.93 4.524 73.19 13.882 22.29 8.953 42.52 22.355 59.47 39.388 17.26 17.623 30.89 38.473 40.1 61.359 10.09 25.342 15.09 52.421 14.73 79.694.22 26.265-4.79 52.309-14.73 76.621-9.31 22.839-22.93 43.673-40.1 61.372zm-46.8-178.978c-4.58-11.71-11.39-22.419-20.05-31.537-8.37-8.735-18.47-15.621-29.65-20.218-23.19-9.393-49.13-9.393-72.32 0-11.15 4.566-21.2 11.458-29.48 20.218-8.57 9.126-15.26 19.839-19.71 31.537-4.98 13.066-7.44 26.955-7.26 40.935-.12 13.484 2.34 26.866 7.26 39.424 4.5 11.673 11.19 22.38 19.71 31.54 8.33 8.918 18.35 16.086 29.48 21.089 11.36 5.145 23.69 7.776 36.16 7.715 12.42.047 24.72-2.42 36.16-7.254 11.14-4.671 21.23-11.551 29.65-20.221 8.7-9.086 15.51-19.804 20.05-31.538 9.84-26.361 9.84-55.387 0-81.749zm-386.49 227.748-74.38-133.336-65.13 86.393v46.931h-94.25v-513.05846484h94.25v323.60946484l139.51-176.872h107.62l-121.7 152.881 121.7 213.526h-107.62zm-361.97-251.063c-5.69-7.405-12.45-13.923-20.05-19.347-7.39-5.232-15.55-9.279-24.19-11.996-8.64-2.728-17.66-4.116-26.72-4.112-12.5-.07-24.86 2.621-36.2 7.883-11.25 5.23-21.28 12.762-29.45 22.107-8.6 9.934-15.29 21.383-19.71 33.764-4.97 13.853-7.42 28.481-7.25 43.196-.08 12.368 2.39 24.62 7.25 35.99 4.64 10.99 11.33 20.996 19.71 29.483 8.41 8.512 18.42 15.268 29.45 19.878 19.86 8.246 41.93 9.464 62.57 3.449 8.4-2.51 16.41-6.152 23.82-10.824 7.44-4.694 14.14-10.465 19.88-17.124 5.83-6.748 10.63-14.323 14.23-22.479l68.54 68.929c-8.61 12.266-18.68 23.434-29.99 33.256-11.2 9.75-23.5 18.143-36.67 25.007-13.14 6.869-27.07 12.109-41.48 15.6-14.65 3.558-29.67 5.343-44.74 5.321-25.02.176-49.81-4.761-72.85-14.511-44.9-18.894-80.71-54.469-99.91-99.236-9.9-22.942-14.93-47.693-14.75-72.68-.22-26.987 4.79-53.761 14.75-78.846 9.31-23.638 22.97-45.319 40.27-63.923 16.9-18.069 37.16-32.67 59.64-42.99 22.84-10.516 47.71-15.884 72.85-15.721 15.2-.024 30.35 1.935 45.05 5.828 29.7 7.804 56.95 23.016 79.18 44.212 11.45 10.91 21.31 23.366 29.31 37.006l-68.56 68.929c-3.22-9.367-7.94-18.147-13.98-25.999zm-446.986 163.498c3.653.363 7.314.546 10.982.546 8.931.019 17.819-1.252 26.387-3.773 8.399-2.494 16.415-6.132 23.823-10.812 15.044-9.516 26.924-23.299 34.104-39.591l68.57 68.929c-8.63 12.25-18.7 23.415-29.99 33.256-11.22 9.742-23.53 18.134-36.7 25.007-13.14 6.868-27.06 12.107-41.474 15.6-14.648 3.561-29.671 5.347-44.745 5.321-24.599.169-48.985-4.565-71.733-13.927-22.749-9.362-43.403-23.166-60.758-40.601-17.31-17.541-30.993-38.321-40.269-61.153-10.05-24.766-15.067-51.286-14.754-78.011-.34-27.219 4.674-54.241 14.754-79.526 8.947-22.693 22.418-43.328 39.595-60.648 17.177-17.321 37.699-30.961 60.317-40.097 23.118-9.445 47.876-14.223 72.848-14.053 15.126-.027 30.198 1.804 44.878 5.453 43.971 10.968 82.531 37.372 108.671 74.397l-175.485 211.472c3.57 1.137 7.25 1.891 10.979 2.249zm37.029-195.204c-4.145-1.55-8.467-2.584-12.866-3.073-4.378-.477-8.778-.71-13.181-.7-12.4-.076-24.692 2.317-36.158 7.039-11.125 4.541-21.17 11.372-29.483 20.049-8.582 9.049-15.283 19.711-19.711 31.37-4.999 13.177-7.462 27.179-7.257 41.271 0 3.435.17 7.354.509 11.659s.943 8.768 1.717 13.206 1.789 8.732 2.926 12.843c1.029 3.828 2.524 7.515 4.45 10.98zm-354.785 73.016h.703c.038-9.364-1.831-18.637-5.492-27.256-7.146-16.854-20.536-30.289-37.367-37.49-8.559-3.657-17.78-5.512-27.088-5.453-13.945-.151-27.619 3.857-39.274 11.514-11.656 7.658-20.764 18.617-26.161 31.476-3.679 8.613-5.548 17.893-5.49 27.259v209.753h-93.577v-513.12046484h93.577v162.14546484c10.363-8.027 22.087-14.123 34.611-17.995 11.771-3.522 23.992-5.314 36.279-5.32 21.923-.153 43.64 4.227 63.789 12.867 19.44 8.267 37.08 20.25 51.928 35.275 14.839 15.143 26.695 32.942 34.95 52.47 8.63 20.199 13.009 41.96 12.866 63.925v209.753h-94.326zm-361.967-41.31c-5.69-7.405-12.448-13.924-20.051-19.347-7.389-5.232-15.549-9.279-24.186-11.996-8.654-2.729-17.676-4.116-26.75-4.112-12.486-.062-24.832 2.629-36.158 7.883-11.259 5.237-21.3 12.768-29.483 22.107-8.584 9.951-15.266 21.396-19.712 33.764-4.9219 13.862-7.35 28.487-7.1709 43.196-.0905 12.36 2.3502 24.609 7.1709 35.99 4.665 10.976 11.352 20.978 19.712 29.483 8.422 8.505 18.441 15.259 29.483 19.878 19.854 8.246 41.93 9.464 62.57 3.449 8.395-2.51 16.41-6.152 23.823-10.824 7.436-4.694 14.137-10.465 19.881-17.124 5.828-6.748 10.62-14.323 14.221-22.479l68.544 68.929c-8.605 12.266-18.677 23.434-29.991 33.256-11.195 9.749-23.504 18.142-36.667 25.007-13.14 6.869-27.068 12.109-41.478 15.6-14.648 3.56-29.671 5.345-44.745 5.321-25.01.173-49.791-4.764-72.824-14.511-44.8995-18.903-80.725-54.473-99.949-99.236-9.87351-22.95-14.883604-47.697-14.7162619-72.68-.2039921-26.984 4.7972719-53.755 14.7295619-78.846 9.3182-23.639 22.9845-45.32 40.2928-63.923 16.8979-18.073 37.1566-32.679 59.6429-43.001 22.825-10.513 47.682-15.881 72.812-15.722 15.217-.027 30.373 1.932 45.083 5.828 29.709 7.805 56.953 23.017 79.185 44.212 11.446 10.911 21.313 23.366 29.314 37.006l-68.579 68.929c-3.238-9.358-7.962-18.132-13.992-25.987z" fill="#052882" fill-rule="evenodd"/></svg>