<svg xmlns="http://www.w3.org/2000/svg" fill="none" viewBox="0 0 40 46"><g fill="#fff" clip-path="url(#a)"><path d="M29.53 1.2 17.56 14.14c-.24.25-.7.25-.92.03l-6.15-7.13-.03-.03a2.66 2.66 0 0 0-4.54 2.07c.05.66.34 1.29.84 1.78l7.06 6.09a.67.67 0 0 1 .02.92l-7.06 6.08-.04.03c-.5.51-.8 1.22-.81 1.95a2.6 2.6 0 0 0 1.68 2.5 2.7 2.7 0 0 0 2.86-.63l6.15-7.12c.25-.24.69-.24.92-.02l6.15 7.13.03.03a2.67 2.67 0 0 0 3.7.07c.55-.5.84-1.2.83-1.96a2.84 2.84 0 0 0-.84-1.97l-7.06-6.07a.67.67 0 0 1-.19-.47c0-.18.07-.35.18-.46L33.27 5.01c.47-.47.76-1.1.81-1.76a2.61 2.61 0 0 0-.58-1.88 2.68 2.68 0 0 0-3.97-.17"/><path d="M34.08 3.25a2.61 2.61 0 0 0-.59-1.87 2.68 2.68 0 0 0-3.97-.17L17.56 14.15c-.25.25-.7.25-.93.03l-6.15-7.13-.03-.03a2.66 2.66 0 0 0-4.53 2.07c.05.66.34 1.29.83 1.78l5.4 4.65 2.05 1.76a4.43 4.43 0 0 0 5.9-.1l1.59-1.47 11.57-10.7c.47-.47.76-1.1.82-1.76M10.14 37.8c-.04-.34-.2-.6-.46-.8a1.77 1.77 0 0 0-1.05-.28 2 2 0 0 0-.78.14c-.21.09-.38.21-.5.37a.9.9 0 0 0-.06.97c.08.12.19.23.32.31.13.08.28.15.44.21.16.06.32.1.49.15l.75.18c.3.07.6.17.87.29.28.12.53.27.75.45.23.18.4.4.54.66.13.26.2.56.2.9a2.17 2.17 0 0 1-1.4 2.08c-.46.2-1 .3-1.64.3-.63 0-1.17-.1-1.63-.3-.45-.19-.8-.47-1.07-.84a2.5 2.5 0 0 1-.41-1.35h1.43c.02.28.1.51.25.7.15.18.35.32.6.41.24.1.51.14.81.14.32 0 .6-.05.83-.14.24-.1.43-.23.56-.4.14-.17.2-.37.21-.6 0-.21-.06-.38-.18-.52a1.34 1.34 0 0 0-.5-.34c-.22-.1-.47-.18-.76-.25l-.9-.24a3.66 3.66 0 0 1-1.57-.77c-.38-.34-.57-.8-.57-1.38 0-.47.13-.88.38-1.23.26-.36.61-.63 1.05-.83.45-.2.95-.3 1.5-.3.58 0 1.07.1 1.5.3.43.2.77.47 1.01.82.25.35.37.74.38 1.2h-1.4Zm3.7 5.8h-1.56l2.82-8h1.79l2.82 8h-1.55l-2.13-6.35h-.07l-2.13 6.35Zm.04-3.13h4.22v1.16h-4.22v-1.16Zm11.1-2.67c-.03-.34-.19-.6-.46-.8a1.77 1.77 0 0 0-1.05-.28 2 2 0 0 0-.77.14c-.22.09-.38.21-.5.37a.9.9 0 0 0-.06.97c.08.12.18.23.32.31.13.08.27.15.44.21l.48.15.75.18c.3.07.6.17.88.29.28.12.53.27.75.45.22.18.4.4.53.66s.2.56.2.9a2.17 2.17 0 0 1-1.4 2.08c-.45.2-1 .3-1.64.3-.62 0-1.16-.1-1.62-.3-.46-.19-.81-.47-1.07-.84a2.5 2.5 0 0 1-.41-1.35h1.42c.02.28.1.51.26.7.15.18.35.32.59.41.24.1.52.14.82.14.31 0 .6-.05.83-.14.24-.1.42-.23.56-.4.14-.17.2-.37.2-.6 0-.21-.06-.38-.18-.52a1.34 1.34 0 0 0-.5-.34c-.21-.1-.46-.18-.75-.25l-.91-.24a3.66 3.66 0 0 1-1.56-.77c-.38-.34-.57-.8-.57-1.38 0-.47.12-.88.38-1.23.26-.36.6-.63 1.05-.83.44-.2.94-.3 1.5-.3.57 0 1.07.1 1.5.3.43.2.76.47 1 .82.25.35.38.74.39 1.2h-1.4Zm2.45-.98V35.6h6.38v1.22h-2.47v6.78H29.9v-6.78h-2.47Z"/></g><defs><clipPath id="a"><path fill="#fff" d="M0 0h40v45.21H0z" transform="translate(0 .4)"/></clipPath></defs></svg>