<svg xmlns="http://www.w3.org/2000/svg" width="24" height="24" viewBox="0 0 40 40" fill="none">
    <path d="M20.6357 6.17928C20.5666 6.18656 20.3445 6.21204 20.1443 6.23025C15.2915 6.73628 10.9702 10.0273 9.05893 14.6762C7.91218 17.4721 7.69011 20.6102 8.42549 23.5772C8.5529 24.0796 8.84779 24.9679 9.05893 25.4885C10.1729 28.1934 12.1534 30.5269 14.618 32.0341C16.2526 33.0389 18.051 33.6687 19.9877 33.9199C20.5993 33.9963 21.9827 34.0255 22.6198 33.9745C25.9472 33.6978 28.8705 32.3217 31.2114 29.9263C31.7429 29.3838 32.4091 28.6011 32.3873 28.5429C32.38 28.5283 31.0767 27.5053 29.4894 26.2712L26.5989 24.025L26.5406 24.1087C26.3586 24.3709 25.9108 24.8623 25.6341 25.1062C24.7823 25.8489 23.8066 26.3367 22.7363 26.5515C22.1465 26.6717 21.0544 26.6717 20.4646 26.5515C17.7524 26.0054 15.721 23.7119 15.3898 20.8287C15.3352 20.3481 15.3643 19.3652 15.448 18.8992C15.9577 16.0414 18.1529 13.8862 20.9051 13.5477C21.3857 13.4858 22.2885 13.5222 22.7654 13.6168C23.8212 13.8316 24.7859 14.3194 25.6341 15.0621C26.1256 15.4917 26.7408 16.2635 27.003 16.7804C27.0466 16.8678 27.1049 16.9333 27.1267 16.926C27.1522 16.9188 28.4701 15.8921 30.0537 14.6398L32.9333 12.3645L32.8205 12.2007C32.3035 11.4325 31.8375 10.8719 31.0876 10.1219C29.9663 9.00067 28.9106 8.23252 27.5891 7.57359C26.1584 6.86005 24.8514 6.46688 23.2023 6.24481C22.82 6.19384 20.9306 6.14651 20.6357 6.17928Z" fill="#052882"/>
</svg>
