<svg xmlns="http://www.w3.org/2000/svg" width="24" height="25" fill="none" viewBox="0 0 24 25">
  <path fill="url(#a)" d="M21.4 6.071a1.776 1.776 0 0 0 .013-2.597 1.77 1.77 0 0 0-2.512.084L10.786 12.3a.394.394 0 0 1-.587-.01L6.101 7.572a1.783 1.783 0 0 0-2.575-.122 1.788 1.788 0 0 0 .067 2.65l4.735 4.072a.396.396 0 0 1 0 .6l-4.717 4.04a1.809 1.809 0 0 0-.107 2.646c.74.747 1.96.704 2.647-.093l4.073-4.73a.394.394 0 0 1 .597 0l4.07 4.697a1.79 1.79 0 0 0 2.741-.042 1.795 1.795 0 0 0-.218-2.492l-4.734-4.09a.396.396 0 0 1-.01-.59L21.4 6.07Z"/>
  <defs>
    <linearGradient id="a" x1="12.471" x2="12.471" y1="2.992" y2="21.992" gradientUnits="userSpaceOnUse">
      <stop offset=".594" stop-color="#fff"/>
      <stop offset=".594" stop-color="#C9C9C9"/>
      <stop offset=".964" stop-color="#CACACA"/>
    </linearGradient>
  </defs>
</svg>
