<svg viewBox="0 0 42 42" xmlns="http://www.w3.org/2000/svg"><g clip-rule="evenodd" fill="#0278d5" fill-rule="evenodd"><path d="m22.83 12.623c0-1.1598.9402-2.1 2.1-2.1h11.025c1.1598 0 2.1.9402 2.1 2.1v4.4625c0 1.1598-.9402 2.1-2.1 2.1h-11.025c-1.1598 0-2.1-.9402-2.1-2.1zm13.125 0h-11.025v4.4625h11.025z"/><path d="m22.83 24.944c0-1.1597.9402-2.0999 2.1-2.0999h11.025c1.1598 0 2.1.9402 2.1 2.0999v4.4625c0 1.1598-.9402 2.1-2.1 2.1h-11.025c-1.1598 0-2.1-.9402-2.1-2.1zm13.125 0h-11.025v4.4625h11.025z"/><path d="m3.9648 12.6c0-1.1598.94021-2.1 2.1-2.1h11.025c1.1598 0 2.1.9402 2.1 2.1v4.4625c0 1.1598-.9402 2.1-2.1 2.1h-11.025c-1.1598 0-2.1-.9402-2.1-2.1zm13.125 0h-11.025v4.4625h11.025z"/><path d="m23.625 16.471h-5.25v-2.1h5.25z"/><path d="m12.862 18.703v3.9375c.0001.8724.146 1.4796.3609 1.9094.208.4159.5066.7192.9148.9524.8825.5044 2.2648.682 4.2363.682h5.25v2.1h-5.25c-1.9655 0-3.8641-.1505-5.2783-.9587-.7402-.423-1.3438-1.0221-1.7511-1.8366-.4003-.8007-.5825-1.7521-.5826-2.8484v-3.9376z"/></g></svg>