<?xml version="1.0" encoding="UTF-8"?>
<svg fill="none" viewBox="0 0 44 49" xmlns="http://www.w3.org/2000/svg">
<path d="m22.588 47.607-15.056-8.8562v-8.2164l-3.593-2.4631 3.593-4.9063 14.669-8.2512h6.3682l13.371 8.2512-5.2779 0.3322 0.3519 15.834-14.426 8.2761z" fill="#A4CDF8"/>
<path d="m22.201 15.402v32.514" stroke="#000" stroke-linecap="round" stroke-linejoin="round"/>
<path d="m36.871 23.164v16.502" stroke="#000" stroke-linecap="round" stroke-linejoin="round"/>
<path d="m7.5332 39.668v-9.1332" stroke="#000" stroke-linecap="round" stroke-linejoin="round"/>
<path d="m6.7546 22.792 16.186 9.1484m-19.352-3.8705 14.778 8.4446" stroke="#000" stroke-linecap="round" stroke-linejoin="round"/>
<path d="m20.369 13.996 17.832 10.301" stroke="#000" stroke-linecap="round" stroke-linejoin="round"/>
<path d="m28.218 14.702 13.722 8.4446" stroke="#000" stroke-linecap="round" stroke-linejoin="round"/>
<path d="m5.6992 37.832 17.832 10.301" stroke="#000" stroke-linecap="round" stroke-linejoin="round"/>
<path d="m7.5326 23.255 16.111-8.9079" stroke="#000" stroke-linecap="round" stroke-linejoin="round"/>
<path d="m22.201 31.414 14.292-8.2513" stroke="#000" stroke-linecap="round" stroke-linejoin="round"/>
<path d="m21.534 48.127 16.255-9.3766" stroke="#000" stroke-linecap="round" stroke-linejoin="round"/>
<path d="m25.755 29.478-3.4447 12.667m7.3151-14.426-5.2778 19m12.667-22.167-4.936 17.209m1.4174-16.857-5.2779 19m7.0272-3.9027 1.6179-5.9494" stroke="#000" stroke-linecap="round" stroke-linejoin="round"/>
<path d="m11.329 21.42-0.8518 3.1322m4.7222-5.2779-2.1111 7.0372m9.0258-9.8176-3.7479 12.632m0.4743-11.998-2.9374 10.59m4.9261 2.8149 1.4074-4.926" stroke="#000" stroke-linecap="round" stroke-linejoin="round"/>
<path d="m18.366 36.515s1.7593-2.463 3.8704-4.926m-18.649-3.5186s1.7593-2.1112 3.8705-4.9261" stroke="#000" stroke-linecap="round" stroke-linejoin="round"/>
<path d="m36.662 23.144h4.926" stroke="#000" stroke-linecap="round" stroke-linejoin="round"/>
<path d="m21.978 14.941h6.943" stroke="#000" stroke-linecap="round" stroke-linejoin="round"/>
<path d="m3.5877 15.754-2.1112-4.2223c1.642 0.2345 4.9964 0.7037 5.2779 0.7037 0.28148 0 7.8582 5.1606 11.611 7.7409l-3.1667 3.5186-11.611-7.7409z" fill="#fff"/>
<path d="m19.773 9.7728c-0.2815-0.84446-2.1112-1.7593-2.8149-1.7593l15.13-6.6853-8.0332 11.526c8e-4 0.0615-0.0254 0.0853-0.0595 0.0853l0.0595-0.0853c-0.0021-0.15-0.1645-0.5238-0.7632-1.3221-1.0556-1.4075-3.1668-0.7038-3.5186-1.7594z" fill="#fff"/>
<path d="m27.162 28.422c0.7037-4.5742 1.2712-9.3574 3.8705-13.019 1.2053-1.6979 4.2453-5.0467 6.6853-4.2223 2.8149 0.9509 0.6456 6.3924-1.4074 4.926-2.4631-1.7593 1.0555-8.4446 6.7464-8.9857" stroke="#000" stroke-linecap="round" stroke-linejoin="round"/>
<path d="m3.5879 16.109c3.8705 2.463 9.1372 5.5573 11.963 7.389" stroke="#000" stroke-linecap="round" stroke-linejoin="round"/>
<path d="M3.58848 16.107C2.88476 14.6996 2.18104 13.644 1 11.5781" stroke="#000" stroke-linecap="round" stroke-linejoin="round"/>
<path d="m1.125 11.535c2.1112 0.3518 3.1667 0.3518 5.6298 0.7037" stroke="#000" stroke-linecap="round" stroke-linejoin="round"/>
<path d="m6.7539 12.238c4.926 3.5186 7.0372 4.926 11.259 7.7409" stroke="#000" stroke-linecap="round" stroke-linejoin="round"/>
<path d="m15.551 23.495s1.5475-2.0384 2.8149-3.5186" stroke="#000" stroke-linecap="round" stroke-linejoin="round"/>
<path d="m1.9258 12.873c0.31641-0.2397 0.62088-0.4866 0.92518-0.7402" stroke="#000" stroke-linecap="round" stroke-linejoin="round"/>
<path d="m3.5879 16.107 2.463-1.4074 0.49956-2.5664" stroke="#000" stroke-linecap="round" stroke-linejoin="round"/>
<path d="m5.3477 14.348c7.389 4.5741 11.583 7.2405 11.583 7.2405" stroke="#000" stroke-linecap="round" stroke-linejoin="round"/>
<path d="m19.6 10.338c3.379-2.4575 9.1922-6.7819 12.401-9.3393" stroke="#000" stroke-linecap="round" stroke-linejoin="round"/>
<path d="m24.024 13.068c2.4184-3.162 5.0926-7.0681 8.1456-12.056" stroke="#000" stroke-linecap="round" stroke-linejoin="round"/>
<path d="m19.769 10.439c0.6914-0.2497 3.2784 0.628 4.2548 2.6277" stroke="#000" stroke-linecap="round" stroke-linejoin="round"/>
<path d="m19.769 10.438c-0.3253-2.4415-3.5108-2.3719-3.5108-2.3719 4.0458-1.6041 12.394-5.5562 15.742-7.0673" stroke="#000" stroke-linecap="round" stroke-linejoin="round"/>
<path d="m19.775 10.125c-6.1023 6.1023 3.5644 12.777 4.2222 12.667 2.1111-0.3518-1.0556-5.6297-2.4631-3.1667-1.4074 2.1112 0.2112 8.0224 2.4631 10.556" stroke="#000" stroke-linecap="round" stroke-linejoin="round"/>
<path d="m17.663 25.594c2.5313 0.5998 4.6956 0.6963 6.9774 0.4866-0.2592 5.8537-0.3192 8.0239-0.3268 8.0191-0.908-0.5694-6.2518-7.959-6.6506-8.5057z" fill="#fff" stroke="#000" stroke-linecap="round" stroke-linejoin="round"/>
</svg>
