<svg viewBox="0 0 24 25" fill="none" xmlns="http://www.w3.org/2000/svg"><g filter="url(#a)"><circle cx="12" cy="12" r="10" fill="#fff"/><circle cx="12" cy="12" r="9.375" fill="#FF7020"/><g clip-path="url(#b)" fill="#FCFEFF"><path d="m6.205 9.203 4.09-2.658v5.315l-4.09-2.657Z"/><path d="M5.863 16.021c.211.046.43.07.652.07h8.923c1.867 0 3.38-1.679 3.38-3.75 0-2.071-1.513-3.75-3.38-3.75H9.243c-.223 0-.441.024-.652.07v1.286c.206-.069.425-.106.652-.106h6.195c1.245 0 2.253 1.12 2.253 2.5s-1.008 2.5-2.253 2.5H6.515c-.226 0-.445-.037-.652-.106v1.286Z"/></g></g><defs><clipPath id="b"><path fill="#fff" transform="translate(3.875 3.875)" d="M0 0h16.25v16.25H0z"/></clipPath><filter id="a" x="0" y=".5" width="24" height="24" filterUnits="userSpaceOnUse" color-interpolation-filters="sRGB"><feFlood flood-opacity="0" result="BackgroundImageFix"/><feColorMatrix in="SourceAlpha" values="0 0 0 0 0 0 0 0 0 0 0 0 0 0 0 0 0 0 127 0" result="hardAlpha"/><feOffset dy=".5"/><feGaussianBlur stdDeviation="1"/><feColorMatrix values="0 0 0 0 0.376471 0 0 0 0 0.380392 0 0 0 0 0.439216 0 0 0 0.16 0"/><feBlend in2="BackgroundImageFix" result="effect1_dropShadow_3124_338366"/><feColorMatrix in="SourceAlpha" values="0 0 0 0 0 0 0 0 0 0 0 0 0 0 0 0 0 0 127 0" result="hardAlpha"/><feOffset/><feGaussianBlur stdDeviation=".5"/><feColorMatrix values="0 0 0 0 0.156863 0 0 0 0 0.160784 0 0 0 0 0.239216 0 0 0 0.08 0"/><feBlend in2="effect1_dropShadow_3124_338366" result="effect2_dropShadow_3124_338366"/><feBlend in="SourceGraphic" in2="effect2_dropShadow_3124_338366" result="shape"/></filter></defs></svg>