<svg viewBox="0 0 10 10" fill="none" xmlns="http://www.w3.org/2000/svg">
<path d="M6.2376 3.64697H3.76173C3.70245 3.64697 3.65379 3.69346 3.65379 3.75367V6.25637C3.65379 6.31534 3.70214 6.3637 3.76173 6.3637H6.2376C6.29688 6.3637 6.34493 6.31565 6.34493 6.25637V3.75367C6.34461 3.69377 6.29688 3.64697 6.2376 3.64697Z" fill="currentColor"/>
<path d="M5 0.3125C2.4115 0.3125 0.3125 2.41088 0.3125 5C0.3125 7.58912 2.4115 9.6875 5 9.6875C7.58881 9.6875 9.68688 7.58912 9.68688 5C9.68688 2.41088 7.58881 0.3125 5 0.3125ZM5 8.90443C2.84359 8.90443 1.09526 7.15609 1.09526 5C1.09526 2.84297 2.84359 1.09495 5 1.09495C7.15672 1.09495 8.90412 2.84297 8.90412 5C8.90412 7.15609 7.15672 8.90443 5 8.90443Z" fill="currentColor"/>
</svg>
