<svg  viewBox="0 0 31 33" fill="none" xmlns="http://www.w3.org/2000/svg">
<g clip-path="url(#clip0_7674_137127)">
<path d="M34.5354 12.7818C34.2928 12.6797 34.0375 12.6414 33.7694 12.6414C33.0544 12.6414 32.5437 13.0244 32.5437 13.7904C32.5437 14.5182 33.0289 14.9778 33.8205 14.9778C34.0886 14.9778 34.3184 14.9395 34.5737 14.8373L34.6375 15.6289C34.3694 15.7055 34.0375 15.7438 33.7311 15.7438C32.3905 15.7438 31.5096 15.1182 31.5096 13.816C31.5096 12.5776 32.4033 11.9009 33.7055 11.9009C34.063 11.9009 34.3439 11.9392 34.5865 12.0158L34.5354 12.7818ZM35.8759 14.5565C35.9015 14.8629 36.1824 15.0927 36.693 15.0927C36.9739 15.0927 37.2548 15.0289 37.5357 14.8884L37.5612 15.5523C37.3186 15.6672 36.9739 15.7438 36.5909 15.7438C35.6206 15.7438 34.9567 15.2076 34.9567 14.2884C34.9567 13.433 35.5695 12.8457 36.476 12.8457C37.3059 12.8457 37.8165 13.3308 37.8165 14.3394C37.8165 14.3777 37.8165 14.5309 37.8038 14.5565H35.8759ZM36.9356 13.9947C36.9356 13.6245 36.7441 13.4585 36.4377 13.4585C36.1568 13.4585 35.9143 13.65 35.8759 13.9947H36.9356ZM39.1954 13.3819C39.3997 13.0755 39.7699 12.8329 40.1657 12.8329C40.8423 12.8329 41.2381 13.2415 41.2381 14.0075V15.6672H40.2806V14.3522C40.2806 13.8415 40.1784 13.5989 39.8465 13.5989C39.5912 13.5989 39.4507 13.7138 39.3741 13.8798C39.2848 14.0458 39.272 14.2628 39.272 14.4799V15.6672H38.3145V13.8032C38.3145 13.5734 38.3145 13.2798 38.2889 12.9095H39.1826C39.1698 13.0244 39.1826 13.2415 39.1954 13.3819ZM41.5701 12.9095H42.119V12.2839L43.0255 11.9903V12.9095H43.6894V13.5606H43.0255V14.6458C43.0255 14.8629 43.0766 15.0672 43.3957 15.0672C43.4979 15.0672 43.6 15.0544 43.6894 15.0288L43.7277 15.6544C43.5362 15.6927 43.3064 15.7183 43.1404 15.7183C42.3999 15.7183 42.068 15.3991 42.068 14.7224V13.5734H41.5573V12.9095H41.5701ZM44.9278 14.5565C44.9533 14.8629 45.2342 15.0927 45.7449 15.0927C46.0258 15.0927 46.3066 15.0289 46.5875 14.8884L46.613 15.5523C46.3705 15.6672 46.0258 15.7438 45.6427 15.7438C44.6725 15.7438 44.0086 15.2076 44.0086 14.2884C44.0086 13.433 44.6214 12.8457 45.5278 12.8457C46.3577 12.8457 46.8684 13.3308 46.8684 14.3394C46.8684 14.3777 46.8684 14.5309 46.8556 14.5565H44.9278ZM46.0002 13.9947C46.0002 13.6245 45.8087 13.4585 45.5023 13.4585C45.2214 13.4585 44.9789 13.65 44.9406 13.9947H46.0002ZM48.2217 13.5096C48.3494 13.0755 48.6047 12.8329 49.0388 12.8329C49.1409 12.8329 49.2558 12.8457 49.3452 12.8712L49.3197 13.6755C49.2175 13.6372 49.1154 13.6245 49.0005 13.6245C48.5026 13.6245 48.3111 13.9437 48.3111 14.6841V15.6672H47.3408V13.7266C47.3408 13.433 47.3408 13.1266 47.3152 12.9095H48.1834C48.1962 13.0117 48.2089 13.3564 48.2217 13.5096ZM53.0093 12.335C52.9327 12.3095 52.8561 12.2967 52.754 12.2967C52.4986 12.2967 52.371 12.4627 52.371 12.7563V12.9095H53.0476V13.5606H52.371V15.6672H51.4007V13.5606H50.8645V12.9095H51.4262V12.7052C51.4262 11.9775 51.7837 11.6328 52.5625 11.6328C52.754 11.6328 52.9583 11.6583 53.0732 11.6839L53.0093 12.335ZM56.482 14.2884C56.482 15.1693 55.8564 15.731 54.8861 15.731C53.9286 15.731 53.2902 15.1693 53.2902 14.3011C53.2902 13.3947 53.903 12.8329 54.8989 12.8329C55.8692 12.8329 56.482 13.4074 56.482 14.2884ZM54.2733 14.2756C54.2733 14.7607 54.5286 15.0799 54.8861 15.0799C55.2436 15.0799 55.4989 14.7607 55.4989 14.3011C55.4989 13.816 55.2436 13.4968 54.8861 13.4968C54.5414 13.484 54.2733 13.8287 54.2733 14.2756ZM57.8353 13.5096C57.963 13.0755 58.2183 12.8329 58.6524 12.8329C58.7545 12.8329 58.8694 12.8457 58.9588 12.8712L58.9332 13.6755C58.8311 13.6372 58.729 13.6245 58.6141 13.6245C58.1162 13.6245 57.9246 13.9437 57.9246 14.6841V15.6672H56.9544V13.7266C56.9544 13.433 56.9543 13.1266 56.9288 12.9095H57.797C57.8097 13.0117 57.8353 13.3564 57.8353 13.5096ZM32.9906 20.774H31.982V17.0716H32.9906V20.774ZM34.5609 18.4887C34.7652 18.1823 35.1355 17.9397 35.5312 17.9397C36.2079 17.9397 36.6037 18.3483 36.6037 19.1143V20.774H35.6461V19.459C35.6461 18.9483 35.544 18.7058 35.2121 18.7058C34.9567 18.7058 34.8163 18.8207 34.7397 18.9866C34.6503 19.1526 34.6375 19.3696 34.6375 19.5867V20.774H33.68V18.91C33.68 18.6802 33.68 18.3866 33.6545 18.0163H34.5482C34.5482 18.1312 34.5482 18.3483 34.5609 18.4887ZM36.9356 18.0163H37.4846V17.3908L38.3911 17.0971V18.0163H39.0549V18.6675H38.3911V19.7527C38.3911 19.9697 38.4421 20.174 38.7613 20.174C38.8634 20.174 38.9656 20.1612 39.0549 20.1484L39.0805 20.774C38.889 20.8123 38.6592 20.8379 38.4932 20.8379C37.7527 20.8379 37.4208 20.5187 37.4208 19.842V18.693H36.9101V18.0163H36.9356ZM40.3061 19.6633C40.3316 19.9697 40.6125 20.1995 41.1232 20.1995C41.4041 20.1995 41.685 20.1357 41.9658 19.9952L41.9914 20.6591C41.7488 20.774 41.4041 20.8506 41.0211 20.8506C40.0508 20.8506 39.3869 20.3144 39.3869 19.3952C39.3869 18.5398 39.9997 17.9525 40.9062 17.9525C41.736 17.9525 42.2467 18.4377 42.2467 19.4462C42.2467 19.4846 42.2467 19.6378 42.2339 19.6633H40.3061ZM41.3658 19.1015C41.3658 18.7313 41.1743 18.5653 40.8679 18.5653C40.587 18.5653 40.3444 18.7568 40.3061 19.1015H41.3658ZM43.5872 18.6164C43.7149 18.1823 43.9703 17.9397 44.4043 17.9397C44.5065 17.9397 44.6214 17.9525 44.7108 17.978L44.6852 18.7824C44.5831 18.7441 44.4809 18.7313 44.366 18.7313C43.8681 18.7313 43.6766 19.0505 43.6766 19.791V20.774H42.7063V18.8334C42.7063 18.5398 42.7063 18.2334 42.6808 18.0163H43.5489C43.5617 18.1185 43.5745 18.4632 43.5872 18.6164ZM45.9747 18.4887C46.179 18.1823 46.5492 17.9397 46.945 17.9397C47.6216 17.9397 48.0174 18.3483 48.0174 19.1143V20.774H47.0599V19.459C47.0599 18.9483 46.9578 18.7058 46.6258 18.7058C46.3705 18.7058 46.23 18.8207 46.1534 18.9866C46.0641 19.1526 46.0513 19.3696 46.0513 19.5867V20.774H45.0938V18.91C45.0938 18.6802 45.0938 18.3866 45.0682 18.0163H45.9619C45.9619 18.1312 45.9747 18.3483 45.9747 18.4887ZM49.4218 19.6633C49.4473 19.9697 49.7282 20.1995 50.2389 20.1995C50.5198 20.1995 50.8006 20.1357 51.0815 19.9952L51.107 20.6591C50.8645 20.774 50.5198 20.8506 50.1367 20.8506C49.1665 20.8506 48.5026 20.3144 48.5026 19.3952C48.5026 18.5398 49.1154 17.9525 50.0218 17.9525C50.8517 17.9525 51.3624 18.4377 51.3624 19.4462C51.3624 19.4846 51.3624 19.6378 51.3496 19.6633H49.4218ZM50.4942 19.1015C50.4942 18.7313 50.3027 18.5653 49.9963 18.5653C49.7154 18.5653 49.4729 18.7568 49.4346 19.1015H50.4942ZM51.5922 18.0163H52.1412V17.3908L53.0476 17.0971V18.0163H53.7115V18.6675H53.0476V19.7527C53.0476 19.9697 53.0987 20.174 53.4179 20.174C53.52 20.174 53.6222 20.1612 53.7115 20.1484L53.7371 20.774C53.5455 20.8123 53.3157 20.8379 53.1498 20.8379C52.4093 20.8379 52.0773 20.5187 52.0773 19.842V18.693H51.5667V18.0163H51.5922ZM57.8991 17.9014C57.5799 17.7738 57.2991 17.7355 57.0565 17.7355C56.7245 17.7355 56.4692 17.8376 56.4692 18.0674C56.4692 18.2589 56.5969 18.3355 57.0948 18.527C57.7587 18.7824 58.1161 19.0888 58.1161 19.6633C58.1161 20.4165 57.5289 20.8634 56.5713 20.8634C56.1756 20.8634 55.8053 20.8123 55.4478 20.7102L55.5244 19.8931C55.8692 20.0463 56.2522 20.1229 56.5203 20.1229C56.865 20.1229 57.0948 19.9952 57.0948 19.7527C57.0948 19.5484 56.916 19.4335 56.4181 19.2547C55.8308 19.0377 55.4351 18.7313 55.4351 18.1695C55.4351 17.4163 56.099 17.0205 56.9416 17.0205C57.3118 17.0205 57.6438 17.046 57.9374 17.1482L57.8991 17.9014ZM59.4184 19.6633C59.4439 19.9697 59.7248 20.1995 60.2355 20.1995C60.5164 20.1995 60.7972 20.1357 61.0781 19.9952L61.1036 20.6591C60.8611 20.774 60.5164 20.8506 60.1334 20.8506C59.1631 20.8506 58.4992 20.3144 58.4992 19.3952C58.4992 18.5398 59.112 17.9525 60.0184 17.9525C60.8483 17.9525 61.359 18.4377 61.359 19.4462C61.359 19.4846 61.359 19.6378 61.3462 19.6633H59.4184ZM60.4908 19.1015C60.4908 18.7313 60.2993 18.5653 59.9929 18.5653C59.712 18.5653 59.4695 18.7568 59.4312 19.1015H60.4908ZM63.8613 18.7696C63.6954 18.7058 63.5166 18.6802 63.3634 18.6802C62.9549 18.6802 62.674 18.9228 62.674 19.4079C62.674 19.8803 62.9421 20.1229 63.3762 20.1229C63.5294 20.1229 63.6954 20.0974 63.8741 20.0208L63.8996 20.7357C63.6443 20.8123 63.4655 20.8379 63.2102 20.8379C62.2782 20.8379 61.6782 20.2889 61.6782 19.3952C61.6782 18.5398 62.3037 17.9908 63.1847 17.9908C63.4655 17.9908 63.6954 18.0163 63.9124 18.0929L63.8613 18.7696ZM66.4275 20.2889C66.2232 20.6464 65.8274 20.8379 65.3934 20.8379C64.7933 20.8379 64.3975 20.4293 64.3975 19.8037V18.0163H65.3551V19.5229C65.3551 19.8931 65.4827 20.0591 65.7892 20.0591C66.1083 20.0591 66.3509 19.7527 66.3509 19.3313V18.0163H67.3212V19.9697C67.3212 20.2506 67.3212 20.557 67.3467 20.7868H66.4658C66.453 20.6591 66.4403 20.4804 66.4275 20.2889ZM68.8405 18.6164C68.9681 18.1823 69.2235 17.9397 69.6576 17.9397C69.7597 17.9397 69.8746 17.9525 69.964 17.978L69.9257 18.7824C69.8235 18.7441 69.7214 18.7313 69.6193 18.7313C69.1214 18.7313 68.9298 19.0505 68.9298 19.791V20.774H67.9596V18.8334C67.9596 18.5398 67.9596 18.2334 67.934 18.0163H68.8022C68.8149 18.1185 68.8277 18.4632 68.8405 18.6164ZM71.279 17.6206H70.3215V16.9056H71.279V17.6206ZM71.279 20.774H70.3215V18.0163H71.279V20.774ZM71.6748 18.0163H72.2237V17.3908L73.1302 17.0971V18.0163H73.7941V18.6675H73.1302V19.7527C73.1302 19.9697 73.1813 20.174 73.5005 20.174C73.6026 20.174 73.7047 20.1612 73.7941 20.1484L73.8196 20.774C73.6281 20.8123 73.3983 20.8379 73.2323 20.8379C72.4919 20.8379 72.1599 20.5187 72.1599 19.842V18.693H71.6492V18.0163H71.6748ZM77.2284 18.0163L76.1305 20.9145C75.8496 21.6677 75.4155 21.9486 74.7772 21.9486C74.5856 21.9486 74.4197 21.9231 74.2537 21.8848L74.3175 21.157C74.4707 21.1953 74.5601 21.2081 74.675 21.2081C74.8921 21.2081 75.0708 21.0932 75.1219 20.8379L74.0622 18.0036H75.0963L75.4921 19.3313C75.5432 19.4973 75.6198 19.8293 75.6581 20.0208H75.6708C75.7092 19.8293 75.7985 19.4846 75.8496 19.3313L76.2326 18.0036H77.2284V18.0163ZM78.2881 17.0077C77.8923 17.0077 77.5731 17.3142 77.5731 17.6972C77.5731 18.0929 77.8796 18.3994 78.2753 18.3994C78.6583 18.3994 78.9648 18.0929 78.9648 17.6972C78.9648 17.3142 78.6583 17.0077 78.2881 17.0077ZM78.2626 18.2844C77.9434 18.2844 77.688 18.0291 77.688 17.6972C77.688 17.3908 77.9434 17.1226 78.2626 17.1226C78.5817 17.1226 78.8498 17.378 78.8498 17.6972C78.8498 18.0163 78.5817 18.2844 78.2626 18.2844ZM78.4413 17.7099C78.5434 17.6844 78.5945 17.6078 78.5945 17.5184C78.5945 17.3269 78.4413 17.2758 78.2498 17.2758H77.9817V18.1057H78.186V17.7865H78.2115C78.2881 17.7865 78.3136 17.8121 78.3392 17.8504L78.4413 18.1057H78.6839L78.5434 17.7993C78.5051 17.7482 78.4796 17.7227 78.4413 17.7099ZM78.1987 17.6206H78.1732V17.4418H78.1987C78.3264 17.4418 78.3775 17.4546 78.3775 17.5184C78.3775 17.595 78.3264 17.6206 78.1987 17.6206ZM14.4784 14.4543C14.4784 14.1352 14.3507 13.9053 14.1464 13.7521C13.7762 13.4202 13.1378 13.3691 12.7548 13.3691C11.6952 13.3691 10.061 13.5989 10.061 16.8801C10.061 18.8973 10.7504 20.3016 12.7931 20.3016C13.2272 20.3016 13.8145 20.2378 14.1464 19.8548C14.2996 19.6888 14.4018 19.4462 14.4018 19.1143H14.6443C14.6188 19.459 14.5933 19.842 14.5933 20.4038V20.6081C14.0443 20.7868 13.1761 20.8762 12.5505 20.8762C11.0313 20.8762 9.75456 20.4421 9.01407 19.5101C8.52892 18.91 8.24805 18.0674 8.24805 17.0205C8.24805 14.9267 9.43538 13.6117 10.9802 13.0627C11.593 12.8457 12.359 12.7946 12.8187 12.7946C13.7506 12.7946 14.606 12.9223 14.7209 12.9223C14.6954 13.1521 14.6954 13.433 14.6954 13.6755C14.6954 13.9947 14.7082 14.2884 14.7209 14.4543H14.4784ZM18.5894 13.3436C18.3851 13.5734 18.3596 13.9054 18.3596 14.9522V19.1015C18.3596 19.8676 18.3979 20.1229 18.5128 20.3144C18.5383 20.3527 18.6915 20.5825 19.1256 20.6208V20.8379C18.6532 20.8123 17.9127 20.7996 17.4914 20.7996C17.0701 20.7996 16.3424 20.8123 15.87 20.8379V20.6208C16.0232 20.6208 16.2785 20.557 16.4573 20.3527C16.6615 20.1229 16.6743 19.791 16.6743 18.7441V14.582C16.6743 13.816 16.6488 13.5606 16.5339 13.3691C16.5083 13.3308 16.3551 13.101 15.9083 13.0627V12.8457C16.3807 12.8712 17.1211 12.884 17.5425 12.884C17.9638 12.884 18.6915 12.8712 19.1639 12.8457V13.0627C19.0234 13.0755 18.7681 13.1266 18.5894 13.3436ZM22.3173 20.9017C21.679 20.9017 20.8874 20.8379 20.3384 20.6591V20.4548C20.3384 19.8931 20.3129 19.459 20.2874 19.1143H20.53C20.581 19.4718 20.7342 19.7782 20.9896 19.9697C21.3215 20.2378 21.7684 20.3527 22.1897 20.3527C23.7472 20.3527 23.76 19.3186 23.76 19.076C23.76 18.2717 23.2493 18.0036 22.5982 17.5823L21.9216 17.1482C21.0917 16.5992 20.4789 16.0247 20.4789 14.9267C20.4789 14.365 20.7725 12.8074 23.2876 12.8074C24.3856 12.8074 24.858 12.9223 25.1389 12.9351C25.1006 13.0883 25.1133 13.5606 25.1133 13.5862C25.1133 14.0713 25.1389 14.3139 25.1389 14.4416H24.8835C24.858 14.1352 24.7431 13.8926 24.5516 13.7138C24.2324 13.3947 23.7089 13.3308 23.3132 13.3308C22.0748 13.3308 21.9216 14.0586 21.9216 14.4671C21.9216 15.0927 22.279 15.3991 22.9302 15.7949L23.7089 16.2673C24.6792 16.8545 25.2793 17.3652 25.2793 18.5909C25.2921 20.1357 24.0792 20.9017 22.3173 20.9017Z" fill="white"/>
<path d="M27.5903 20.0843C27.5903 20.4801 27.2839 20.7865 26.9009 20.7865C26.5051 20.7865 26.1987 20.4801 26.1987 20.0843C26.1987 19.7013 26.5051 19.3949 26.9137 19.3949C27.2839 19.3821 27.5903 19.7013 27.5903 20.0843ZM26.3136 20.0843C26.3136 20.4035 26.569 20.6716 26.8882 20.6716C27.2073 20.6716 27.4627 20.4163 27.4627 20.0843C27.4627 19.7651 27.1946 19.5098 26.8754 19.5098C26.5817 19.497 26.3136 19.7651 26.3136 20.0843ZM26.5945 19.6502H26.8626C27.0541 19.6502 27.2073 19.7013 27.2073 19.8928C27.2073 19.9822 27.1563 20.0716 27.0541 20.0843V20.0971C27.1052 20.1099 27.1307 20.1482 27.1435 20.1737L27.2839 20.4801H27.0414L26.9392 20.2248C26.9137 20.1737 26.9009 20.1609 26.8115 20.1609H26.786V20.4801H26.5817V19.6502H26.5945ZM26.7988 20.0077H26.8243C26.952 20.0077 27.0031 19.9822 27.0031 19.9056C27.0031 19.8417 26.952 19.829 26.8243 19.829H26.7988V20.0077Z" fill="white"/>
<mask id="mask0_7674_137127" style="mask-type:luminance" maskUnits="userSpaceOnUse" x="2" y="2" width="17" height="30">
<path d="M2.36328 16.842C2.36328 25.0129 9.01492 31.6518 17.1731 31.6518C17.6965 31.6518 18.2072 31.6263 18.7179 31.5752L18.654 30.8858C18.1689 30.9368 17.671 30.9624 17.1731 30.9624C9.37239 30.9624 3.0527 24.6427 3.0527 16.842C3.0527 9.04134 9.37239 2.72165 17.1731 2.72165C17.671 2.72165 18.1689 2.74718 18.654 2.79825L18.7306 2.10883C18.22 2.05776 17.7093 2.03223 17.1858 2.03223C9.00215 2.03223 2.36328 8.67109 2.36328 16.842Z" fill="white"/>
</mask>
<g mask="url(#mask0_7674_137127)">
<path d="M18.7306 2.03223H2.36328V31.6646H18.7306V2.03223Z" fill="url(#paint0_linear_7674_137127)"/>
</g>
<mask id="mask1_7674_137127" style="mask-type:luminance" maskUnits="userSpaceOnUse" x="5" y="4" width="22" height="17">
<path d="M5.13281 16.8421C5.13281 18.2847 5.38815 19.6763 5.86053 20.9658L6.51165 20.7232C6.06481 19.5104 5.835 18.2081 5.835 16.8421C5.835 10.5734 10.9163 5.50492 17.1721 5.50492C20.6575 5.50492 23.7855 7.07527 25.8665 9.55208L26.4027 9.10523C24.1813 6.47522 20.8746 4.80273 17.1721 4.80273C10.5205 4.80273 5.13281 10.1904 5.13281 16.8421Z" fill="white"/>
</mask>
<g mask="url(#mask1_7674_137127)">
<path d="M21.0791 -4.40234L33.3865 16.9186L10.4569 30.1581L-1.86328 8.84985L21.0791 -4.40234Z" fill="url(#paint1_linear_7674_137127)"/>
</g>
</g>
<defs>
<linearGradient id="paint0_linear_7674_137127" x1="2.36068" y1="16.8455" x2="18.724" y2="16.8455" gradientUnits="userSpaceOnUse">
<stop stop-color="white"/>
<stop offset="0.4" stop-color="white"/>
<stop offset="0.99" stop-color="white"/>
<stop offset="1" stop-color="white"/>
</linearGradient>
<linearGradient id="paint1_linear_7674_137127" x1="11.8127" y1="6.03228" x2="16.8471" y2="14.7521" gradientUnits="userSpaceOnUse">
<stop stop-color="white"/>
<stop offset="0.4" stop-color="white"/>
<stop offset="0.99" stop-color="white"/>
<stop offset="1" stop-color="white"/>
</linearGradient>
<clipPath id="clip0_7674_137127">
<rect width="30.1714" height="32" fill="white" transform="translate(0.414062 0.5)"/>
</clipPath>
</defs>
</svg>
