<svg viewBox="0 0 33 33" xmlns="http://www.w3.org/2000/svg" fill="none"><path fill-rule="evenodd" clip-rule="evenodd" d="M5.943 14.551a.5.5 0 0 1 .5-.5h6.378c1.466 0 2.38-.945 3.472-2.103l.03-.031c1.038-1.101 2.25-2.387 4.23-2.387h5.594l-1.77-1.609a.5.5 0 0 1 .672-.74l2.707 2.458a.5.5 0 0 1 0 .781l-2.707 2.457a.5.5 0 0 1-.672-.74l1.77-1.607h-5.593c-1.51 0-2.446.951-3.534 2.104l-.064.068c-.621.66-1.302 1.382-2.17 1.85.868.467 1.549 1.19 2.17 1.848l.064.069c1.088 1.152 2.024 2.103 3.534 2.103h5.593l-1.77-1.606a.5.5 0 1 1 .672-.74l2.706 2.456a.499.499 0 0 1 0 .782L25.05 21.92a.5.5 0 0 1-.672-.74l1.77-1.608h-5.593c-1.981 0-3.193-1.286-4.232-2.387l-.03-.031c-1.092-1.159-2.005-2.104-3.47-2.104h-6.38a.5.5 0 0 1-.5-.5z" fill="#0278D5"/><mask id="a" style="mask-type:alpha" maskUnits="userSpaceOnUse" x="21" y="22" width="12" height="11"><path d="m32.81 27.128-2.26-3.931a.993.993 0 0 0-.847-.505h-4.52a.993.993 0 0 0-.848.505l-2.261 3.92a.987.987 0 0 0 0 .983l2.26 3.953c.171.312.493.51.847.524h4.521c.355-.012.677-.21.849-.521l2.26-3.93c.176-.31.176-.69 0-.998z" fill="#fff"/></mask><g mask="url(#a)"><path d="m32.81 27.128-2.26-3.931a.993.993 0 0 0-.847-.505h-4.52a.993.993 0 0 0-.848.505l-2.261 3.92a.987.987 0 0 0 0 .983l2.26 3.953c.171.312.493.51.847.524h4.521c.355-.012.677-.21.849-.521l2.26-3.93c.176-.31.176-.69 0-.998z" fill="#4285F4"/><path opacity=".07" d="m29.985 26.332-.311.34.07 2.02-.296.428-.17-.171h.157v-.7l-.756-.757-.571.286-1.896-1.9-.912.49-.113.946.32 1.733.464.455-.211.3 2.76 2.826h1.154c.353-.013.736-.244.906-.554l1.881-3.265-2.476-2.477z" fill="#000"/><path d="m25.76 29.802.452-.453-.678-.679v-2.112l.678-.68-.452-.452-.907.907v2.563l.907.906z" fill="#fff"/><path d="M26.46 27.935a.321.321 0 1 0 0-.642.321.321 0 0 0 0 .642zM27.421 27.935a.321.321 0 1 0 0-.642.321.321 0 0 0 0 .642zM28.382 27.935a.321.321 0 1 0 0-.642.321.321 0 0 0 0 .642z" fill="#fff"/><path d="m29.079 25.426-.453.453.679.679v2.112l-.68.68.454.452.906-.907v-2.563l-.906-.906z" fill="#fff"/></g></svg>