<svg fill="none" viewBox="0 0 33 33" xmlns="http://www.w3.org/2000/svg"><path clip-rule="evenodd" d="m14.4899 5.12521c.1931.19692.1905.51361-.0058.70736l-2.1947 2.16636h14.2021c.8261 0 1.4958.67184 1.4958 1.50059v5.37648c0 .2763-.2232.5002-.4986.5002s-.4986-.2239-.4986-.5002v-5.37648c0-.27625-.2233-.5002-.4986-.5002h-14.2021l2.1947 2.16638c.1963.1937.1989.5104.0058.7073-.1932.1969-.5089.1995-.7052.0058l-3.0627-3.02313c-.0953-.09403-.1489-.22248-.1489-.35654 0-.13407.0536-.26252.1489-.35655l3.0627-3.0231c.1963-.19375.512-.19118.7052.00573zm-10.00398 8.88549c.27537 0 .49861.224.49861.5002v11.9643c0 .2763.22324.5002.49861.5002h10.27376c.2754 0 .4986.224.4986.5002 0 .2763-.2232.5002-.4986.5002h-10.27376c-.82613 0-1.49584-.6718-1.49584-1.5006v-11.9643c0-.2762.22324-.5002.49862-.5002z" fill="#0278d5" fill-rule="evenodd"/><path d="m21.1904 28.3888.0942.1069 4.7552 1.3479.0216-.8356-3.3304-.8357-.163-.0588z" fill="#b7ca9d"/><path d="m30.8388 28.3886-4.8566 1.6211-.0144-1.0018 3.3304-.8357.1451-.1634z" fill="#b7ca9d"/><path d="m25.9678 22.6621 3.3304.7762 1.4646-.0695.076-.1468-4.6403-1.6702z" fill="#3c4929"/><path d="m22.7309 28.1721-1.5406.2165-.0428-.16v-4.8383l.0428-.1684 1.3921.1036.1485.1129z" fill="#759c3e"/><path d="m26.0614 22.662-3.3304.7762-1.5406-.2163.0581-.0912 4.7913-1.3636z" fill="#3c4929"/><path d="m26.0076 19.0642-5.531 2.7918.0026 7.9005 5.5284 2.7903.0824-.1251v-13.1953zm-1.6174 10.285-3.2002-.9605v-5.1666l3.2002-.9601zm4.9075-1.1769 1.5406.2164.0863-.1527v-4.8671l-.0863-.1468-1.5406.2165z" fill="#4b612c"/><path d="m26.0078 32.5468 5.5417-2.7902.0027-7.9004-5.5444-2.792zm1.6305-10.2848 3.2002.9601v5.1666l-3.2002.9605z" fill="#759c3e"/></svg>