<svg xmlns="http://www.w3.org/2000/svg"><path fill-rule="evenodd" clip-rule="evenodd" d="M4.291 16.672c0-6.606 5.355-11.96 11.96-11.96s11.96 5.354 11.96 11.96a.52.52 0 1 0 1.04 0c0-7.18-5.82-13-13-13s-13 5.82-13 13 5.82 13 13 13a.52.52 0 1 0 0-1.04c-6.605 0-11.96-5.355-11.96-11.96Zm6.504-.486a.52.52 0 0 1 .52-.52h3.93v-3.93a.52.52 0 1 1 1.04 0v3.93h3.93a.52.52 0 1 1 0 1.04h-3.93v3.93a.52.52 0 1 1-1.04 0v-3.93h-3.93a.52.52 0 0 1-.52-.52Z" fill="#0278D5"/><path d="m22.003 28.564.095.107 4.755 1.348.021-.836-3.33-.836-.163-.058-1.378.275Z" fill="#B7CA9D"/><path d="m31.652 28.564-4.857 1.62-.014-1.001 3.33-.836.145-.163 1.396.38Z" fill="#B7CA9D"/><path d="m26.78 22.837 3.331.776 1.465-.07.076-.146-4.64-1.67-.231 1.11Z" fill="#3C4929"/><path d="m23.544 28.347-1.54.217-.044-.16v-4.838l.043-.169 1.392.104.149.112v4.734Z" fill="#759C3E"/><path d="m26.874 22.837-3.33.776-1.54-.216.057-.091 4.792-1.364.021.895Z" fill="#3C4929"/><path d="M26.821 19.24 21.29 22.03l.003 7.9 5.528 2.79.082-.124V19.4l-.082-.162Zm-1.617 10.284-3.2-.96v-5.167l3.2-.96v7.087Zm4.907-1.177 1.54.217.087-.153v-4.867l-.086-.147-1.54.217v4.733Z" fill="#4B612C"/><path d="m26.821 32.722 5.542-2.79.003-7.9-5.545-2.793v13.483Zm1.63-10.285 3.201.96v5.167l-3.2.96v-7.087Z" fill="#759C3E"/></svg>