<svg xmlns="http://www.w3.org/2000/svg" fill="none" viewBox="0 0 40 40"><mask id="a" width="40" height="40" x="0" y="0" maskUnits="userSpaceOnUse" style="mask-type:alpha"><path fill="#000" d="M12.97 30.486a1.251 1.251 0 1 1-2.501-.002 1.251 1.251 0 0 1 2.502.002"/><path fill="#000" d="m29.218 15.473.995-.102a1 1 0 0 0-.016-.104zM7.893 16.542a1 1 0 0 0 1.99.19l-.995-.095zm20.383-.453a1 1 0 0 0 1.99-.202l-.995.101zm-12.107 1.956-.588.809zm5.963 5.57a1 1 0 1 0 1.175-1.618l-.587.81zm-10.424 7.866a1 1 0 1 0-.066-2l.033 1zM23.37 18.045l.574.819zm0 10.9.574-.819-.01-.008zm-8.245-6.824A1 1 0 0 0 14 23.774l.563-.826zm12.905 8.36-.031 1zm-6.492-12.373a1 1 0 1 0 1.147 1.638l-.574-.819zM12.97 30.486h-1c0 .136-.112.25-.252.25v2a2.25 2.25 0 0 0 2.252-2.25zm-1.252 1.25v-1a.25.25 0 0 1-.252-.25h-2c0 1.244 1.01 2.25 2.252 2.25zm-1.252-1.25h1a.25.25 0 0 1 .252-.25v-2a2.25 2.25 0 0 0-2.252 2.25zm1.252-1.25v1c.14 0 .252.113.252.25h2c0-1.244-1.01-2.25-2.252-2.25zm7.424-22.054v1c4.455 0 8.197 3.2 9.096 7.495l.98-.204.978-.206c-1.084-5.179-5.61-9.085-11.054-9.085zM8.888 16.637l.995.096c.462-4.814 4.446-8.551 9.26-8.551v-2c-5.883 0-10.694 4.559-11.25 10.36zm20.33-1.165-.994.102.052.515.995-.1.995-.102-.053-.516zm-13.05 2.573.588-.81c-2.832-2.058-6.334-2.161-9.115-.947-2.783 1.215-4.954 3.81-4.954 7.207h2c0-2.455 1.554-4.414 3.754-5.374 2.203-.962 4.942-.865 7.14.733zm6.552 4.761.588-.809-6.552-4.761-.587.809-.588.809 6.55 4.761zm-19.033.689h-1c0 4.964 4.557 8.133 9.02 7.986l-.032-1-.033-1c-3.645.12-6.955-2.441-6.955-5.986zm19.683-5.45.574.819c2.295-1.609 5.163-1.708 7.467-.738s3.904 2.935 3.904 5.369h2c0-3.419-2.264-6.007-5.128-7.212s-6.47-1.105-9.39.943zm0 10.9.563-.827-8.808-5.997-.562.827-.563.826 8.808 5.998zm4.66 1.536.032-1a7.56 7.56 0 0 1-4.118-1.355l-.574.819-.574.819A9.56 9.56 0 0 0 28 31.48zm8.285-6.986h-1c0 3.513-3.419 6.108-7.253 5.987l-.032 1-.031.999c4.575.145 9.316-2.99 9.316-7.986zM22.11 18.927l.574.82 1.26-.883-.575-.82-.574-.818-1.258.882z"/></mask><g mask="url(#a)"><path fill="#3dc7f6" d="M0 0h40v40H0z"/></g></svg>