<svg fill="none" viewBox="0 0 33 33" xmlns="http://www.w3.org/2000/svg"><path clip-rule="evenodd" d="m21.6436 11.7548c-.8066-2.00151-1.709-4.29129-2.5477-6.92143-.1846.07942-.4347.2153-.7328.412-.7202.47521-1.6398 1.25197-2.4562 2.24528-1.6394 1.99453-2.7788 4.74165-1.2992 7.66335.0608.12.0697.259.0247.3856-.0449.1265-.14.2299-.2635.2866l-.0014.0006-.0017.0008-.0044.0019-.0126.0056c-.0101.0043-.0235.01-.0402.0168-.0334.0136-.0798.0315-.1381.0518-.1162.0405-.2807.0908-.4836.1345-.4047.087-.9716.1495-1.6178.0482-1.1878-.1862-2.5455-.9095-3.6384-2.8046-.18336.2722-.40434.6416-.62657 1.1116-.556 1.176-1.12346 2.9896-1.12346 5.5007 0 3.9564 2.5465 7.2931 6.05163 8.4438-2.1377-1.5814-3.2335-4.4126-2.1479-7.5115.0909-.2596.3788-.3976.643-.3082.1887.0639.3143.2266.3374.4091l.0077.0127c.0436.0709.1216.1773.2354.313.225.2685.5555.6107.9356.9493.3807.339.7989.6631 1.198.903.3563.2142.6543.3347.8752.3698.2494-.1305.41-.445.4716-.946.0367-.2986.0284-.6016.0094-.8353-.0095-.1155-.0213-.2109-.0305-.2764-.0046-.0327-.0086-.0577-.0113-.0738l-.0029-.0173-.0005-.0029c-.0503-.2701.1316-.5293.4063-.5788.2748-.0495.5384.1293.5888.3994l.0003.0017.0005.0026.0015.0082.0046.0275c.0039.0231.009.0557.0148.0965.0115.0814.0256.1962.0368.3337.0223.2723.0342.6468-.0134 1.0342-.0769.6252-.342 1.5053-1.2353 1.8045-.0594.0199-.1221.0288-.1848.0262-.4886-.0206-1.0034-.2515-1.4589-.5253-.4693-.2821-.9385-.6486-1.3494-1.0145-.2953-.2629-.5669-.5313-.7929-.7766-.6558 3.6 2.0597 6.4957 5.5205 6.4957h.0051c.4615-.0738.9108-.1841 1.3451-.3281.2647-.0877.5517.0521.6409.3124.0893.2602-.053.5423-.3177.63-.9573.3173-1.9795.4888-3.0404.4888-5.4023 0-9.75595-4.432-9.75595-9.8674 0-2.6639.60312-4.6199 1.2177-5.9198.30686-.6491.61568-1.1327.85166-1.458.11798-.1626.21778-.2856.29005-.37.03614-.0422.06541-.0748.08665-.0978.01062-.0115.01923-.0206.02569-.0274l.00805-.0083.00279-.0029.00107-.0011s-.00386.004.00086-.0008c.11618-.1174.28366-.171.44784-.1433.16417.0276.30399.1329.37386.2815 1.02371 2.1777 2.30343 2.8091 3.25323 2.958.4859.0762.917.0311 1.2298-.0349-1.344-3.2181-.0055-6.17519 1.6617-8.20368.8823-1.07343 1.8778-1.91713 2.6793-2.44599.3972-.26207.7673-.46056 1.0662-.5663.1425-.05041.3132-.09615.4811-.09153.0866.00238.2067.0189.3258.08553.1322.07392.233.19357.2796.34244.8574 2.73917 1.7921 5.11385 2.6323 7.19873.0937.2325.1864.4616.2777.6876.724 1.7907 1.3652 3.3769 1.7862 4.7778.0791.2634-.0739.54-.3418.6178-.268.0778-.5493-.0726-.6285-.336-.4069-1.3542-1.0294-2.8944-1.7573-4.6953-.0907-.2244-.1831-.4529-.2769-.6856z" fill="#0278d5" fill-rule="evenodd"/><path d="m21.2236 29.2116.0942.1068 4.7552 1.3479.0216-.8355-3.3304-.8357-.163-.0588z" fill="#b7ca9d"/><path d="m30.872 29.2114-4.8566 1.6211-.0144-1.0018 3.3304-.8358.1451-.1634z" fill="#b7ca9d"/><path d="m26.001 23.4849 3.3304.7761 1.4647-.0694.0759-.1468-4.6403-1.6703z" fill="#3c4929"/><path d="m22.7641 28.9948-1.5406.2165-.0428-.1599v-4.8383l.0428-.1684 1.3921.1035.1485.1129z" fill="#759c3e"/><path d="m26.0946 23.4847-3.3304.7762-1.5406-.2163.0581-.0911 4.7913-1.3637z" fill="#3c4929"/><path d="m26.0408 19.887-5.531 2.7918.0026 7.9004 5.5284 2.7904.0824-.1251v-13.1953zm-1.6174 10.2849-3.2002-.9604v-5.1666l3.2002-.9601zm4.9075-1.1769 1.5406.2165.0863-.1527v-4.8671l-.0863-.1468-1.5406.2164z" fill="#4b612c"/><path d="m26.041 33.3696 5.5417-2.7902.0027-7.9004-5.5444-2.792zm1.6305-10.2848 3.2002.9601v5.1666l-3.2002.9604z" fill="#759c3e"/></svg>