<svg xmlns="http://www.w3.org/2000/svg"><path fill-rule="evenodd" clip-rule="evenodd" d="M14.706 4.858a.501.501 0 0 1-.006.707l-2.195 2.166h14.202c.826 0 1.496.672 1.496 1.5v5.377a.5.5 0 1 1-.997 0V9.232a.5.5 0 0 0-.499-.5H12.505l2.195 2.166c.196.194.199.51.006.707a.498.498 0 0 1-.705.006l-3.063-3.023a.5.5 0 0 1 0-.713L14 4.852a.498.498 0 0 1 .705.006ZM4.702 13.743a.5.5 0 0 1 .498.5v11.965a.5.5 0 0 0 .499.5h10.274a.5.5 0 0 1 0 1H5.699a1.498 1.498 0 0 1-1.496-1.5V14.243a.5.5 0 0 1 .499-.5Z" fill="#0278D5"/><path d="m21.406 28.121.094.107 4.755 1.348.022-.835-3.33-.836-.164-.06-1.377.276Z" fill="#B7CA9D"/><path d="m31.054 28.121-4.856 1.621-.015-1.002 3.33-.835.146-.164 1.395.38Z" fill="#B7CA9D"/><path d="m26.183 22.395 3.33.776 1.465-.07.076-.146-4.64-1.67-.23 1.11Z" fill="#3C4929"/><path d="m22.946 27.904-1.54.217-.043-.16v-4.838l.043-.169 1.392.104.148.113v4.733Z" fill="#759C3E"/><path d="m26.277 22.395-3.33.776-1.541-.217.058-.09 4.791-1.364.022.895Z" fill="#3C4929"/><path d="m26.223 18.797-5.53 2.791.002 7.9 5.528 2.791.083-.125V18.96l-.083-.162Zm-1.617 10.285-3.2-.96v-5.168l3.2-.96v7.088Zm4.907-1.177 1.541.216.087-.153v-4.867l-.087-.146-1.54.216v4.734Z" fill="#4B612C"/><path d="m26.224 32.28 5.541-2.79.003-7.901-5.544-2.792v13.482Zm1.63-10.286 3.2.96v5.167l-3.2.96v-7.087Z" fill="#759C3E"/></svg>