<svg viewBox="0 0 33 33" xmlns="http://www.w3.org/2000/svg" fill="none"><path fill-rule="evenodd" clip-rule="evenodd" d="M9.297 23.506a.515.515 0 0 0 0 .72.494.494 0 0 0 .707 0L27.682 6.242a.515.515 0 0 0 0-.72.494.494 0 0 0-.707 0L9.297 23.506zm-2.969-9.515c-.276 0-.5.227-.5.508s.224.509.5.509h6.379c1.031 0 1.798.48 2.545 1.183.203.191.52.179.707-.028a.515.515 0 0 0-.027-.718 6.232 6.232 0 0 0-1.26-.946c.867-.476 1.549-1.21 2.17-1.88l.064-.07c1.087-1.173 2.024-2.14 3.533-2.14h.512c.276 0 .5-.228.5-.509a.504.504 0 0 0-.5-.509h-.512c-1.98 0-3.193 1.308-4.231 2.428l-.03.032c-1.092 1.178-2.006 2.14-3.471 2.14H6.328zm11.66 3.552a.494.494 0 0 0-.706.05.515.515 0 0 0 .05.718c.053.047.108.094.163.14.78.652 1.712 1.156 2.944 1.156l5.594.001-1.77 1.636a.515.515 0 0 0-.035.718.494.494 0 0 0 .707.035l2.706-2.5a.507.507 0 0 0 .187-.398.515.515 0 0 0-.187-.398l-2.706-2.498a.494.494 0 0 0-.707.035.515.515 0 0 0 .034.718l1.77 1.634H20.44c-.93 0-1.644-.37-2.309-.925a6.658 6.658 0 0 1-.142-.122zm6.274-5.5a.515.515 0 0 0-.034.718.494.494 0 0 0 .707.035l2.706-2.499a.507.507 0 0 0 .187-.403.512.512 0 0 0-.188-.393l-.992-.917a.494.494 0 0 0-.707.035.515.515 0 0 0 .034.718l.059.054h-.603c-.277 0-.5.228-.5.51 0 .28.223.508.5.508h.601l-1.77 1.633z" fill="#0278D5"/><mask id="a" style="mask-type:alpha" maskUnits="userSpaceOnUse" x="21" y="22" width="12" height="11"><path d="m32.696 27.128-2.26-3.931a.993.993 0 0 0-.847-.505h-4.521a.993.993 0 0 0-.848.505l-2.26 3.92a.987.987 0 0 0 0 .983l2.26 3.953c.17.312.492.51.847.524h4.521c.355-.012.677-.21.848-.521l2.26-3.93c.176-.31.176-.69 0-.998z" fill="#fff"/></mask><g mask="url(#a)"><path d="m32.696 27.128-2.26-3.931a.993.993 0 0 0-.847-.505h-4.521a.993.993 0 0 0-.848.505l-2.26 3.92a.987.987 0 0 0 0 .983l2.26 3.953c.17.312.492.51.847.524h4.521c.355-.012.677-.21.848-.521l2.26-3.93c.176-.31.176-.69 0-.998z" fill="#4285F4"/><path opacity=".07" d="m29.87 26.332-.31.34.07 2.02-.296.428-.171-.171h.157v-.7l-.756-.757-.57.286-1.896-1.9-.912.49-.113.946.32 1.733.464.455-.212.3 2.76 2.826h1.154c.354-.013.736-.244.907-.554l1.881-3.265-2.476-2.477z" fill="#000"/><path d="m25.645 29.802.453-.453-.679-.679v-2.112l.68-.68-.454-.452-.906.907v2.563l.906.906z" fill="#fff"/><path d="M26.346 27.935a.321.321 0 1 0 0-.642.321.321 0 0 0 0 .642zM27.307 27.935a.321.321 0 1 0 0-.642.321.321 0 0 0 0 .642zM28.267 27.935a.321.321 0 1 0 0-.642.321.321 0 0 0 0 .642z" fill="#fff"/><path d="m28.964 25.426-.453.453.68.679v2.112l-.68.68.453.452.907-.907v-2.563l-.907-.906z" fill="#fff"/></g></svg>