<svg viewBox="0 0 33 33" xmlns="http://www.w3.org/2000/svg" fill="none"><path fill-rule="evenodd" clip-rule="evenodd" d="M14.974 5.73a.5.5 0 0 1-.003.706l-2.194 2.178h14.166a1.5 1.5 0 0 1 1.5 1.5v9.536a.5.5 0 1 1-1 0v-9.536a.5.5 0 0 0-.5-.5H12.777l2.194 2.178a.5.5 0 0 1-.704.71L11.21 9.469a.5.5 0 0 1 0-.71l3.056-3.033a.5.5 0 0 1 .707.003zm-9.031 8.845a.5.5 0 0 1 .5.5v12.006a.5.5 0 0 0 .5.5h12.243a.5.5 0 0 1 0 1H6.943a1.5 1.5 0 0 1-1.5-1.5V15.075a.5.5 0 0 1 .5-.5z" fill="#0278D5"/><mask id="a" style="mask-type:alpha" maskUnits="userSpaceOnUse" x="21" y="22" width="12" height="11"><path d="m32.81 27.128-2.26-3.931a.993.993 0 0 0-.847-.505h-4.52a.993.993 0 0 0-.848.505l-2.261 3.92a.987.987 0 0 0 0 .983l2.26 3.953c.171.312.493.51.847.524h4.521c.355-.012.677-.21.849-.521l2.26-3.93c.176-.31.176-.69 0-.998z" fill="#fff"/></mask><g mask="url(#a)"><path d="m32.81 27.128-2.26-3.931a.993.993 0 0 0-.847-.505h-4.52a.993.993 0 0 0-.848.505l-2.261 3.92a.987.987 0 0 0 0 .983l2.26 3.953c.171.312.493.51.847.524h4.521c.355-.012.677-.21.849-.521l2.26-3.93c.176-.31.176-.69 0-.998z" fill="#4285F4"/><path opacity=".07" d="m29.985 26.332-.311.34.07 2.02-.296.428-.17-.171h.157v-.7l-.756-.756-.571.285-1.896-1.9-.912.49-.113.946.32 1.733.464.455-.211.3 2.76 2.826h1.154c.353-.013.736-.244.906-.554l1.881-3.265-2.476-2.477z" fill="#000"/><path d="m25.76 29.802.452-.453-.678-.679v-2.112l.678-.68-.452-.452-.907.907v2.563l.907.906z" fill="#fff"/><path d="M26.46 27.935a.321.321 0 1 0 0-.642.321.321 0 0 0 0 .642zM27.421 27.935a.321.321 0 1 0 0-.642.321.321 0 0 0 0 .642zM28.382 27.935a.321.321 0 1 0 0-.642.321.321 0 0 0 0 .642z" fill="#fff"/><path d="m29.079 25.426-.453.453.679.679v2.112l-.68.68.454.452.906-.907v-2.563l-.906-.906z" fill="#fff"/></g></svg>