<svg viewBox="0 0 16 16" xmlns="http://www.w3.org/2000/svg" xmlns:xlink="http://www.w3.org/1999/xlink"><mask id="a" fill="#fff"><path clip-rule="evenodd" d="m11.833 12h-8.0296-.00332c-1.5464 0-2.8-1.2399-2.8-2.7692 0-1.5294 1.2536-2.7692 2.8-2.7692l.01573.00004c.17682-1.9407 1.826-3.4616 3.8343-3.4616 1.7757 0 3.2707 1.189 3.7154 2.8059.1579-.02412.3198-.03664.4846-.03664 1.7396 0 3.15 1.3948 3.15 3.1154 0 1.6036-1.225 2.9242-2.8 3.0964v.019h-.333-.017-.0171z" fill="#fff" fill-rule="evenodd"/></mask><path d="m11.833 12 .0052-1h-.0052zm-8.0329-5.5385.00273-1h-.00273zm.01573.00004-.00273.99999.91554.0025.08307-.91176zm7.5497-.65567-.9642.26517.2359.85763.8792-.13426zm.8346 6.1751-.1087-.9941-.8913.0975v.8966zm0 .019v1h1v-1zm-.333 0v-1h-.0052zm-.0341-1h-8.0296v2h8.0296zm-8.0296 0h-.00252-.00062-.00018v2h.00252.00062.00018zm-.00332 0c-1.0046 0-1.8-.8025-1.8-1.7692h-2c0 2.092 1.7118 3.7692 3.8 3.7692zm-1.8-1.7692c0-.96673.79544-1.7692 1.8-1.7692v-2c-2.0882 0-3.8 1.6772-3.8 3.7692zm1.7973-1.7692.01573.00004.00546-2-.01573-.00004zm1.0143-.90922c.1295-1.4214 1.3429-2.5523 2.8384-2.5523v-2c-2.5211 0-4.606 1.9108-4.8302 4.3708l1.9918.18147zm2.8384-2.5523c1.3207 0 2.4246.88348 2.7512 2.0711l1.9284-.53035c-.5628-2.0462-2.4488-3.5407-4.6796-3.5407v2zm3.8663 2.7944c.1082-.01652.2196-.02518.3337-.02518v-2c-.2155 0-.4278.01637-.6355.04809l.3018 1.9771zm.3337-.02518c1.1978 0 2.15.95748 2.15 2.1154h2c0-2.2832-1.8685-4.1154-4.15-4.1154zm2.15 2.1154c0 1.079-.8265 1.984-1.9087 2.1023l.2175 1.9882c2.0677-.2262 3.6912-1.9624 3.6912-4.0905zm-2.8 3.0964v.019h2v-.019zm1-.981h-.333v2h.333zm-.3382 0h-.0118v2h.0222zm-.0118 0h-.0119l-.0104 2h.0223z" fill="#4f5162" mask="url(#a)"/></svg>