<svg fill="none" viewBox="0 0 33 33" xmlns="http://www.w3.org/2000/svg"><path clip-rule="evenodd" d="m4.29977 16.894c0-6.6053 5.35467-11.95996 11.96003-11.95996 6.6053 0 11.96 5.35466 11.96 11.95996 0 .2872.2328.52.52.52s.52-.2328.52-.52c0-7.17966-5.8203-12.99996-13-12.99996-7.17974 0-13.00003 5.8203-13.00003 12.99996-.00001 7.1797 5.8203 13 13.00003 13 .2872 0 .52-.2328.52-.52 0-.2871-.2328-.52-.52-.52-6.60536 0-11.96003-5.3546-11.96003-11.96zm6.50423-.4856c0-.2872.2328-.52.52-.52h3.9295v-3.93c0-.2872.2328-.52.52-.52s.52.2328.52.52v3.93h3.9307c.2872 0 .52.2328.52.52s-.2328.52-.52.52h-3.9307v3.9302c0 .2872-.2328.52-.52.52s-.52-.2328-.52-.52v-3.9302h-3.9295c-.2872 0-.52-.2328-.52-.52z" fill="#0278d5" fill-rule="evenodd"/><path d="m22.0127 28.786.0941.1069 4.7553 1.3479.0215-.8355-3.3304-.8358-.1629-.0588z" fill="#b7ca9d"/><path d="m31.661 28.7859-4.8565 1.621-.0145-1.0018 3.3304-.8357.1452-.1634z" fill="#b7ca9d"/><path d="m26.79 23.0593 3.3304.7762 1.4647-.0695.0759-.1468-4.6402-1.6702z" fill="#3c4929"/><path d="m23.5532 28.5693-1.5406.2165-.0429-.16v-4.8382l.0429-.1685 1.392.1036.1486.1129z" fill="#759c3e"/><path d="m26.8836 23.0592-3.3304.7762-1.5405-.2163.0581-.0911 4.7913-1.3637z" fill="#3c4929"/><path d="m26.8299 19.4614-5.5311 2.7918.0027 7.9005 5.5284 2.7903.0823-.125v-13.1953zm-1.6174 10.285-3.2002-.9604v-5.1667l3.2002-.9601zm4.9075-1.1769 1.5406.2165.0863-.1528v-4.8671l-.0863-.1468-1.5406.2165z" fill="#4b612c"/><path d="m26.8301 32.944 5.5417-2.7901.0026-7.9004-5.5443-2.7921zm1.6304-10.2848 3.2003.9601v5.1667l-3.2003.9604z" fill="#759c3e"/></svg>