<svg xmlns="http://www.w3.org/2000/svg"  viewBox="0 0 24 22">
  <path fill="currentColor" fill-rule="evenodd" d="M2.57143 1.76625c-.47339 0-.85714.39538-.85714.88312V18.5456c0 .4877.38375.8831.85714.8831H21.4286c.4734 0 .8571-.3954.8571-.8831V7.06498c0-.48774.3838-.88312.8572-.88312.4733 0 .8571.39538.8571.88312V18.5456c0 1.4632-1.1513 2.6493-2.5714 2.6493H2.57143C1.15127 21.1949 0 20.0088 0 18.5456V2.64937C0 1.18616 1.15127 0 2.57143 0H17.5714c.4734 0 .8572.395387.8572.883123 0 .487737-.3838.883127-.8572.883127H2.57143Zm3.58352 4.79193c.27147-.39957.80592-.49674 1.19374-.21705l4.03491 2.91006c.6094.43947.6094 1.36921 0 1.80871L7.34869 13.97c-.38782.2797-.92227.1825-1.19374-.2171-.27147-.3996-.17716-.9502.21066-1.2299l3.28257-2.3675-3.28257-2.3674c-.38782-.2797-.48213-.83035-.21066-1.22992ZM13.714 12.364c-.4734 0-.8572.3954-.8572.8832 0 .4877.3838.8831.8572.8831h4.2857c.4734 0 .8571-.3954.8571-.8831 0-.4878-.3837-.8832-.8571-.8832H13.714Z" clip-rule="evenodd"/>
</svg>
