<svg fill="none" viewBox="0 0 20 20" xmlns="http://www.w3.org/2000/svg"><g clip-rule="evenodd" fill="#383946" fill-rule="evenodd"><path d="m4.28575 7.90036c-.08147-.60023.38518-1.13449.99091-1.13449h8.87414c.5923 0 1.0548.51195.9948 1.10122l-.8654 8.50621c-.0519.5105-.4818.8988-.9949.8988h-6.85414c-.50031 0-.92362-.3698-.99091-.8655zm9.86505-.13449h-8.87414l1.1545 8.50623h6.85414z"/><path d="m8.26333 2.16134c.0615-.26921.32958-.4376.59879-.37611l3.52068.80417c.2692.06149.4376.32958.3761.59879l-.2577 1.12804 3.2162.73462c.2692.06149.4376.32958.3761.59879s-.3296.4376-.5988.3761l-10.88214-2.48564c-.26921-.0615-.4376-.32958-.3761-.59879.06149-.26921.32957-.4376.59878-.37611l3.17043.72418zm.71723 1.35072 2.54574.58149.1463-.6406-2.54571-.58149z"/><path d="m9.99998 9.84033c.23012 0 .41662.18657.41662.41667v4.1667c0 .2301-.1865.4166-.41662.4166s-.41667-.1865-.41666-.4166v-4.1667c-.00001-.2301.18654-.41667.41666-.41667z" opacity=".3"/><path d="m7.6988 9.84982c.22925-.02005.43134.14953.4514.37878l.36315 4.1508c.02005.2292-.14953.4313-.37877.4514s-.43134-.1495-.45139-.3788l-.36315-4.1508c-.02006-.2292.14952-.43132.37876-.45138z" opacity=".3"/><path d="m12.3017 9.84962c.2292.02006.3988.22218.3788.45138l-.3632 4.1508c-.02.2293-.2221.3989-.4514.3788-.2292-.0201-.3988-.2222-.3787-.4514l.3631-4.1508c.0201-.22925.2222-.39883.4514-.37878z" opacity=".3"/></g></svg>