<svg viewBox="0 0 24 22" xmlns="http://www.w3.org/2000/svg"><path d="M23.768 9.589l-5.577-5.9a.81.81 0 10-1.186 1.104l5.066 5.362-5.066 5.362a.808.808 0 00.31 1.311.81.81 0 00.876-.206l5.604-5.928a.808.808 0 00-.027-1.105zM6.954 3.634a.808.808 0 00-1.158.054L.218 9.59a.808.808 0 000 1.105l5.578 5.928a.81.81 0 001.185-1.105l-5.065-5.362L6.98 4.793a.808.808 0 00-.027-1.159zM14.436.02a.74.74 0 00-.569.094.777.777 0 00-.34.477L9.032 19.467c-.046.199-.013.409.09.584.105.174.272.3.465.349h.177a.745.745 0 00.46-.158.78.78 0 00.273-.412L14.992.954A.795.795 0 0014.9.37a.76.76 0 00-.465-.35z" fill="#6B6D85"/><rect x="12.2" y="10.2" width="11.6" height="11.6" rx="5.8" fill="#fff" stroke="#FF832B" stroke-width=".4"/><path fill-rule="evenodd" clip-rule="evenodd" d="M18.384 12.223l3.558 6.231a.442.442 0 01-.384.661h-7.116a.442.442 0 01-.384-.66l3.558-6.232a.442.442 0 01.768 0zm-.602 4.866h.437l.224-2.833-.885-.006.224 2.839zm-.184 1.22v-.794h.805v.793h-.805z" fill="#FF832B"/></svg>