<svg fill="none" viewBox="0 0 14 14" xmlns="http://www.w3.org/2000/svg"><path d="m8.50981 3.2073h1.00642c.26692 0 .52287.1096.71167.30468.1887.19508.2948.45966.2948.73554v4.24931c.3358.12269.619.36418.7992.68176.1803.31759.2462.69082.186 1.05371-.0603.3629-.2427.6922-.5151.9295-.2723.2373-.6171.3675-.9734.3675-.3562 0-.70098-.1302-.97335-.3675s-.45479-.5666-.51501-.9295c-.06022-.36289.00563-.73612.18591-1.05371.18029-.31758.46339-.55907.79928-.68176v-4.24931h-1.00642v1.56034l-2.26445-2.08045 2.26445-2.08044zm-5.03212 1.99203c-.33589-.1227-.61899-.36418-.79928-.68177-.18028-.31758-.24613-.69082-.18591-1.05373.06022-.36292.24264-.69214.51501-.92948.27236-.23734.61715-.36752.9734-.36752s.70103.13018.97339.36752c.27237.23734.45479.56656.51501.92948.06022.36291-.00563.73615-.18591 1.05373-.18029.31759-.46339.55907-.79928.68177v3.2975c.33589.12269.61899.36418.79928.68176.18028.31759.24613.69082.18591 1.05371-.06022.3629-.24264.6922-.51501.9295-.27236.2373-.61714.3675-.97339.3675s-.70104-.1302-.9734-.3675c-.27237-.2373-.45479-.5666-.51501-.9295-.06022-.36289.00563-.73612.18591-1.05371.18029-.31758.46339-.55907.79928-.68176zm.50322-.95181c.13346 0 .26145-.05479.35582-.15233s.14739-.22983.14739-.36778c0-.13794-.05302-.27023-.14739-.36777s-.22236-.15234-.35582-.15234-.26146.0548-.35583.15234-.14739.22983-.14739.36777c0 .13795.05302.27024.14739.36778s.22237.15233.35583.15233zm0 6.24138c.13346 0 .26145-.0548.35582-.1524.09437-.0975.14739-.2298.14739-.36776 0-.13794-.05302-.27023-.14739-.36777s-.22236-.15234-.35582-.15234-.26146.0548-.35583.15234-.14739.22983-.14739.36777c0 .13796.05302.27026.14739.36776.09437.0976.22237.1524.35583.1524zm6.03849 0c.1335 0 .2615-.0548.3559-.1524.0943-.0975.1474-.2298.1474-.36776 0-.13794-.0531-.27023-.1474-.36777-.0944-.09754-.2224-.15234-.3559-.15234-.13341 0-.26141.0548-.35578.15234s-.14739.22983-.14739.36777c0 .13796.05302.27026.14739.36776.09437.0976.22237.1524.35578.1524z" fill="#299b2c"/></svg>