<svg xmlns="http://www.w3.org/2000/svg" fill="none" viewBox="0 0 16 16"><path fill="#4F5162" fill-rule="evenodd" d="M3.313 2.203c0-.223.18-.403.403-.403h10.082c.222 0 .403.18.403.403v8.688a3.29 3.29 0 0 1-2.371 3.16.4.4 0 0 1-.3.134q-.194 0-.37-.013a3 3 0 0 1-.269.009l-3.644.019H5.228a3.43 3.43 0 0 1-3.427-3.428v-.403h1.512zm.806 8.166h5.142c.223 0 .403.18.403.403 0 .787.01 1.43.24 1.89.107.212.26.381.498.503.182.094.427.166.756.197a2.484 2.484 0 0 0 2.236-2.471V2.606H4.12zm5.294 3.013q-.134-.166-.229-.357c-.275-.546-.318-1.224-.325-1.85h-6.22a2.62 2.62 0 0 0 2.59 2.218h2.016zm2.489-8.8a.403.403 0 0 1 0 .57L8.517 8.538a.403.403 0 0 1-.57 0L6.424 7.014a.403.403 0 0 1 .57-.57l1.238 1.238 3.1-3.1a.403.403 0 0 1 .57 0" clip-rule="evenodd"/></svg>