<svg fill="none" viewBox="0 0 16 16" xmlns="http://www.w3.org/2000/svg" xmlns:xlink="http://www.w3.org/1999/xlink"><mask id="a" fill="#fff"><path clip-rule="evenodd" d="m6 7.83333c-.27614 0-.5.22386-.5.5s.22386.5.5.5h4c.2761 0 .5-.22386.5-.5s-.2239-.5-.5-.5zm0 2c-.27614 0-.5.22387-.5.49997 0 .2762.22386.5.5.5h4c.2761 0 .5-.2238.5-.5 0-.2761-.2239-.49997-.5-.49997z" fill="#fff" fill-rule="evenodd"/></mask><path d="m3.33337 2h7.33333l2 2.66667v9.33333h-9.33333z" stroke="#383946" stroke-linecap="round" stroke-linejoin="round"/><path d="m6.5 8.33333c0 .27614-.22386.5-.5.5v-2c-.82843 0-1.5.67157-1.5 1.5zm-.5-.5c.27614 0 .5.22386.5.5h-2c0 .82843.67157 1.5 1.5 1.5zm4 0h-4v2h4zm-.5.5c0-.27614.22386-.5.5-.5v2c.8284 0 1.5-.67157 1.5-1.5zm.5.5c-.27614 0-.5-.22386-.5-.5h2c0-.82843-.6716-1.5-1.5-1.5zm-4 0h4v-2h-4zm.5 1.49997c0 .2762-.22386.5-.5.5v-1.99997c-.82843 0-1.5.67157-1.5 1.49997zm-.5-.49997c.27614 0 .5.22387.5.49997h-2c0 .8285.67157 1.5 1.5 1.5zm4 0h-4v1.99997h4zm-.5.49997c0-.2761.22386-.49997.5-.49997v1.99997c.8284 0 1.5-.6715 1.5-1.5zm.5.5c-.27614 0-.5-.2238-.5-.5h2c0-.8284-.6716-1.49997-1.5-1.49997zm-4 0h4v-1.99997h-4z" fill="#383946" mask="url(#a)" opacity=".3"/></svg>