<svg fill="none" viewBox="0 0 24 24" xmlns="http://www.w3.org/2000/svg"><path d="m9.77698 17.3287v-.5c-.27614 0-.5.2239-.5.5zm0 4.383h-.5c0 .1828.09981.3511.26027.4388.16046.0876.35598.0807.50985-.0181zm1.51412-.9721.2658-.4235-.2689-.1687-.267.1715zm1.5491.9721-.2658.4235c.1541.0967.3486.1021.5078.014.1592-.088.258-.2556.258-.4375zm0-4.383h.5c0-.2761-.2239-.5-.5-.5zm-3.56322 0v4.383h1.00002v-4.383zm.77012 4.8037 1.5141-.972-.5402-.8415-1.51414.972zm.9782-.9693 1.5491.9721.5315-.8471-1.549-.972zm2.3149.5486v-4.383h-1v4.383zm-.5-4.883h-3.06322v1h3.06322z" fill="#383946"/><g stroke="#383946"><path d="m5.11646 16.2832v-13.8518c0-.27615.22385-.5.5-.5h12.76704c.2762 0 .5.22385.5.5v15.8836c0 .2762-.2238.5-.5.5h-3.3715"/><path d="m18.3415 14.4012h-11.01812c-1.21885 0-2.20692.988-2.20692 2.2069 0 1.2188.98807 2.2069 2.20692 2.2069h.63684"/></g></svg>