<svg fill="none" viewBox="0 0 13 13" xmlns="http://www.w3.org/2000/svg"><path clip-rule="evenodd" d="m5.47664 1.70479c0-.26924.21826-.4875.4875-.4875h.97498c.26923 0 .48749.21826.48749.4875v1.13803c.3112.08381.60623.20674.87941.36309l.80975-.80637c.19021-.18942.49776-.18942.68797 0l.69086.68797c.1913.19055.1913.50033 0 .69088l-.80757.8042c.15574.27046.27836.56244.36227.87039h1.1435c.2692 0 .4875.21826.4875.4875v.975c0 .26924-.2183.4875-.4875.4875h-1.1436c-.08403.30848-.20696.60094-.3631.8718l.8069.80375c.1913.19053.1913.50024 0 .69077l-.69078.6881c-.19022.1895-.49785.1895-.68807 0l-.80976-.80663c-.27272.1559-.56719.27851-.87778.36213v1.1381c0 .2693-.21826.4875-.48749.4875h-.97498c-.26924 0-.4875-.2182-.4875-.4875v-1.138c-.31094-.08369-.60574-.20645-.87873-.36257l-.80939.80597c-.19021.1894-.49775.1894-.68796 0l-.69087-.68794c-.19134-.19055-.19134-.50034 0-.69088l.80677-.8034c-.15598-.27069-.27879-.56294-.3628-.8712h-1.14267c-.26924 0-.48749-.21826-.48749-.4875v-.975c0-.26924.21825-.4875.48749-.4875h1.14262c.08394-.30809.20664-.60019.36248-.87076l-.80702-.80388c-.19127-.19053-.19127-.50024 0-.69078l.69076-.68808c.19022-.18948.49785-.18948.68807 0l.80935.80621c.27318-.1563.5682-.27919.87939-.36297zm.64999.1625v1.09961c0 .23653-.16694.42827-.38222.47863-.32698.07648-.63391.20491-.91158.37618-.18748.11563-.43988.09793-.60673-.06828l-.78223-.7792-.46051.45872.77961.77658c.16789.16724.18565.4214.06876.60954-.17101.27524-.29933.57924-.37599.90296-.05082.2146-.24225.38095-.47835.38095h-1.10391v.65h1.10396c.23609 0 .42751.16633.47835.38092.07671.32386.20514.628.37629.90334.11696.18817.09921.44242-.06876.60968l-.77935.7761.46057.45865.78227-.779c.16683-.16613.41914-.18385.60658-.06829.27753.1711.58426.29941.91102.37584.21528.05035.38222.2421.38222.47862v1.09966h.64999v-1.09974c0-.23651.16692-.42824.38217-.47861.32646-.07639.63292-.20458.91023-.37547.18746-.11552.43976-.09776.60656.06839l.78261.77956.4605-.45871-.77951-.77649c-.16795-.16729-.18566-.42156-.06866-.6097.1713-.27548.29983-.57978.3766-.90383.05083-.21459.24225-.38092.47834-.38092h1.10484v-.65h-1.10479c-.2361 0-.42753-.16635-.47835-.38095-.07663-.3236-.20489-.6275-.37581-.90267-.11687-.18815-.09907-.44233.06885-.60954l.78013-.77687-.46058-.45865-.78266.77939c-.16687.16618-.41927.18385-.60672.0682-.27766-.1713-.58459-.29978-.91158-.37629-.21526-.05037-.38217-.24211-.38217-.47862v-1.09969zm.38564 3.08892c-.85257 0-1.54372.69116-1.54372 1.54375s.69115 1.54375 1.54372 1.54375c.85258 0 1.54372-.69116 1.54372-1.54375s-.69114-1.54375-1.54372-1.54375zm-2.19371 1.54375c0-1.21157.98216-2.19375 2.19371-2.19375s2.19371.98218 2.19371 2.19375c0 1.21158-.98216 2.19375-2.19371 2.19375s-2.19371-.98217-2.19371-2.19375z" fill="#fff" fill-rule="evenodd"/></svg>