<svg width="16" height="16" fill="none" xmlns="http://www.w3.org/2000/svg"><path fill-rule="evenodd" clip-rule="evenodd" d="m13.416 10.277-2.474 2.285a.412.412 0 0 1-.55 0l-2.475-2.285a.34.34 0 0 1 0-.508.412.412 0 0 1 .55 0l1.81 1.672V3.692c0-.198.175-.359.39-.359.214 0 .389.161.389.36v7.748l1.81-1.672a.412.412 0 0 1 .55 0 .34.34 0 0 1 0 .508Z" fill="#6B6D85"/><path fill-rule="evenodd" clip-rule="evenodd" d="M2.584 5.723 5.058 3.44a.412.412 0 0 1 .55 0l2.475 2.284a.34.34 0 0 1 0 .508.412.412 0 0 1-.55 0l-1.81-1.672v7.749c0 .198-.175.359-.39.359-.214 0-.389-.161-.389-.36V4.56l-1.81 1.672a.412.412 0 0 1-.55 0 .34.34 0 0 1 0-.508Z" fill="#B0B1C3"/></svg>