<svg fill="none" viewBox="0 0 36 36" xmlns="http://www.w3.org/2000/svg" xmlns:xlink="http://www.w3.org/1999/xlink"><path fill="url(#a)" fill-rule="evenodd" d="M1.6 13.637a5.463 5.463 0 0 0 0 7.726L13.637 33.4a5.463 5.463 0 0 0 7.726 0L33.4 21.363a5.463 5.463 0 0 0 0-7.726L21.363 1.6a5.463 5.463 0 0 0-7.726 0L1.6 13.637Zm18.812-3.364a1.046 1.046 0 0 0-2.033-.5L14.891 23.96a1.046 1.046 0 1 0 2.032.5l3.489-14.186Zm-9.71 12.49a1.047 1.047 0 1 0 1.48-1.48l-3.865-3.865 3.865-3.864a1.046 1.046 0 1 0-1.48-1.48l-4.605 4.604a1.047 1.047 0 0 0 0 1.48l4.605 4.605Zm12.232.116a1.047 1.047 0 0 0 1.48 0l4.604-4.604a1.047 1.047 0 0 0 0-1.48l-4.604-4.605a1.047 1.047 0 1 0-1.48 1.48l3.864 3.865-3.864 3.864a1.047 1.047 0 0 0 0 1.48Z" clip-rule="evenodd"/><defs><linearGradient id="a" x1="5.674" x2="27.767" y1="2.93" y2="31.419" gradientUnits="userSpaceOnUse"><stop stop-color="#73DFE7"/><stop offset="1" stop-color="#0095F7"/></linearGradient></defs></svg>