<svg fill="none" viewBox="0 0 20 20" xmlns="http://www.w3.org/2000/svg"><g clip-rule="evenodd" fill="#383946" fill-rule="evenodd"><path d="m4.28575 7.90033c-.08147-.60023.38518-1.13449.99091-1.13449h8.87414c.5923 0 1.0548.51195.9948 1.10122l-.8654 8.50624c-.0519.5104-.4818.8988-.9949.8988h-6.85414c-.50031 0-.92362-.3698-.99091-.8656zm9.86505-.13449h-8.87414l1.1545 8.50626h6.85414z"/><path d="m8.26333 2.16132c.0615-.26921.32958-.43759.59879-.3761l3.52068.80417c.2692.06149.4376.32957.3761.59878l-.2577 1.12804 3.2162.73463c.2692.06149.4376.32957.3761.59878s-.3296.4376-.5988.37611l-10.88214-2.48565c-.26921-.06149-.4376-.32958-.3761-.59879.06149-.2692.32957-.43759.59878-.3761l3.17043.72417zm.71723 1.35072 2.54574.58149.1463-.64059-2.54571-.58149z"/><path d="m9.99998 9.84021c.23012 0 .41662.18659.41662.41669v4.1666c0 .2302-.1865.4167-.41662.4167s-.41667-.1865-.41666-.4167v-4.1666c-.00001-.2301.18654-.41669.41666-.41669z" opacity=".3"/><path d="m7.6988 9.84972c.22925-.02006.43134.14952.4514.37878l.36315 4.1508c.02005.2292-.14953.4313-.37877.4514-.22924.02-.43134-.1495-.4514-.3788l-.36314-4.1508c-.02006-.2292.14952-.43133.37876-.45138z" opacity=".3"/><path d="m12.3017 9.8497c.2292.02006.3988.2222.3788.4514l-.3632 4.1508c-.02.2292-.2221.3988-.4514.3788-.2292-.0201-.3988-.2222-.3787-.4514l.3631-4.1508c.0201-.22928.2222-.39886.4514-.3788z" opacity=".3"/></g></svg>