<svg fill="none" viewBox="0 0 16 16" xmlns="http://www.w3.org/2000/svg"><path clip-rule="evenodd" d="m3 7.94141c0-2.76143 2.23858-5 5-5 2.7614 0 5 2.23857 5 5 0 2.76139-2.2386 4.99999-5 4.99999-.27614 0-.5.2239-.5.5s.22386.5.5.5c3.3137 0 6-2.6863 6-5.99999 0-3.31371-2.6863-6-6-6-3.31371 0-6 2.68629-6 6 0 1.61598.63951 3.08369 1.6782 4.16199.16203.1682.33382.327.51445.4755h-1.27792c-.27614 0-.5.2238-.5.5 0 .2761.22386.5.5.5h2.49034.00966c.27615 0 .5-.2238.5-.5v-2.4996c0-.2761-.22385-.5-.5-.5-.27614 0-.5.2239-.5.5v1.297c-.18274-.1435-.35528-.2995-.5163-.4667-.86642-.8994-1.39843-2.12117-1.39843-3.46819z" fill="#fff" fill-rule="evenodd"/></svg>