<svg xmlns="http://www.w3.org/2000/svg" viewBox="0 0 16 16" fill="none"><path stroke="currentColor" stroke-linecap="round" stroke-linejoin="round" stroke-width=".875" d="M5.335 6.667h5.333M5.335 12h5.333M5.335 9.333H8m-5.333 4.934V1.733a.4.4 0 0 1 .4-.4h7.768a.4.4 0 0 1 .283.118l2.098 2.098a.4.4 0 0 1 .118.284v10.434a.4.4 0 0 1-.4.4H3.068a.4.4 0 0 1-.4-.4Z"/><path stroke="currentColor" stroke-linecap="round" stroke-linejoin="round" stroke-width=".875" d="M10.668 1.333V3.6a.4.4 0 0 0 .4.4h2.267"/></svg>
