<svg xmlns="http://www.w3.org/2000/svg" viewBox="0 0 16 16" fill="none"><g stroke="currentColor" stroke-linecap="round" stroke-linejoin="round" clip-path="url(#a)"><path d="M8 10a2 2 0 1 0 0-4 2 2 0 0 0 0 4Z"/><path d="m13.081 6.93-.731-1.767L13.333 4 12 2.667l-1.157.988-1.805-.742-.415-1.58H7.32L6.9 2.934l-1.764.743L4 2.667 2.666 4l.97 1.193-.721 1.771-1.582.37v1.333l1.6.437.744 1.763L2.667 12 4 13.333l1.194-.973 1.737.715.402 1.592h1.333l.403-1.591 1.767-.732c.295.21 1.164.99 1.164.99L13.333 12l-.99-1.167.733-1.768 1.59-.413V7.333l-1.585-.403Z"/></g><defs><clipPath id="a"><path fill="currentColor" d="M0 0h16v16H0z"/></clipPath></defs></svg>