<svg fill="none" viewBox="0 0 33 33" xmlns="http://www.w3.org/2000/svg" xmlns:xlink="http://www.w3.org/1999/xlink"><linearGradient id="a" gradientUnits="userSpaceOnUse" x1="7" x2="33" y1="0" y2="33"><stop offset="0" stop-color="#ff679e"/><stop offset="1" stop-color="#f11d0d"/></linearGradient><path clip-rule="evenodd" d="m16.5 33c9.1127 0 16.5-7.3873 16.5-16.5s-7.3873-16.5-16.5-16.5c-2.615 0-5.0879.60833-7.28499 1.69119l4.47579 4.22808c.5024-.34658 1.1077-.5489 1.7592-.5489 1.7397 0 3.15 1.44264 3.15 3.22222 0 .57477-.1471 1.1144-.405 1.58161l4.3275 4.088c.4034-.192.8532-.2992 1.3275-.2992 1.7397 0 3.15 1.4426 3.15 3.2222s-1.4103 3.2222-3.15 3.2222-3.15-1.4426-3.15-3.2222c0-.5088.1153-.99.3205-1.4179l-4.4191-4.1745c-.2476.0995-.5105.1678-.7841.2003l-2.3412 11.2723c.8716.5731 1.4489 1.5738 1.4489 2.7124 0 1.7796-1.4103 3.2222-3.15 3.2222s-3.15005-1.4426-3.15005-3.2222c0-1.6608 1.22825-3.0281 2.80625-3.2033l2.3379-11.2563c-.8829-.5709-1.4691-1.57822-1.4691-2.72561 0-.32544.0471-.63961.1348-.93575l-5.13809-4.85375c-4.40139 2.96324-7.29671 7.99191-7.29671 13.69691 0 9.1127 7.3873 16.5 16.5 16.5z" fill="url(#a)" fill-rule="evenodd"/></svg>