<svg fill="none" viewBox="0 0 13 13" xmlns="http://www.w3.org/2000/svg"><path clip-rule="evenodd" d="m5.47666 1.70466c0-.26924.21826-.4875.48749-.4875h.97498c.26924 0 .4875.21826.4875.4875v1.13803c.3112.08382.60623.20674.8794.36309l.80976-.80637c.19021-.18941.49775-.18941.68796 0l.69085.68798c.1914.19055.1914.50033 0 .69088l-.80756.80419c.15574.27047.27837.56245.36226.8704h1.1435c.2692 0 .4875.21826.4875.4875v.97499c0 .26924-.2183.4875-.4875.4875h-1.1435c-.08411.30849-.20704.60095-.36319.8718l.80689.80376c.1913.19053.1913.50024 0 .69077l-.69076.68812c-.19023.1894-.49785.1894-.68807 0l-.80976-.80665c-.27272.1559-.5672.2785-.87778.36215v1.1381c0 .2692-.21826.4875-.4875.4875h-.97498c-.26923 0-.48749-.2183-.48749-.4875v-1.138c-.31094-.08372-.60574-.20647-.87873-.3626l-.80939.806c-.19021.1894-.49776.1894-.68797 0l-.69086-.68797c-.19135-.19054-.19135-.50033 0-.69087l.80677-.8034c-.15598-.27069-.2788-.56294-.3628-.8712h-1.14268c-.26923 0-.48749-.21827-.48749-.4875v-.975c0-.26924.21826-.4875.48749-.4875h1.14262c.08394-.30809.20664-.60019.36248-.87076l-.80701-.80388c-.19128-.19054-.19128-.50024 0-.69078l.69076-.68808c.19022-.18948.49784-.18948.68807 0l.80935.80621c.27317-.15631.5682-.27919.87939-.36297zm.64999.1625v1.09962c0 .23653-.16694.42827-.38222.47862-.32699.07648-.63392.20492-.91159.37619-.18747.11563-.43987.09792-.60672-.06828l-.78224-.7792-.4605.45872.77961.77658c.16788.16723.18564.4214.06876.60953-.17101.27525-.29933.57925-.37599.90296-.05082.21461-.24225.38096-.47835.38096h-1.10391v.65h1.10396c.23608 0 .42751.16632.47834.38092.07672.32386.20514.62799.3763.90334.11696.18816.0992.44242-.06876.60968l-.77936.7761.46058.45864.78226-.779c.16683-.16613.41914-.18384.60659-.06828.27752.17109.58425.29941.91102.37584.21528.05035.38222.24209.38222.47862v1.09968h.64999v-1.09976c0-.23651.16691-.42825.38217-.47862.32646-.07639.63292-.20457.91023-.37546.18746-.11552.43976-.09777.60656.06838l.7826.77957.46051-.45872-.77952-.77648c-.16794-.16729-.18566-.42156-.06866-.60971.17131-.27547.29984-.57977.3766-.90382.05083-.2146.24226-.38093.47835-.38093h1.10482v-.64999h-1.10478c-.23609 0-.42752-.16635-.47835-.38096-.07663-.32359-.20488-.62749-.3758-.90266-.11687-.18816-.09907-.44233.06884-.60954l.78013-.77687-.46057-.45865-.78266.77939c-.16688.16618-.41927.18385-.60672.0682-.27767-.17131-.58459-.29978-.91158-.37629-.21526-.05037-.38217-.24211-.38217-.47862v-1.0997zm.38564 3.08893c-.85258 0-1.54373.69116-1.54373 1.54375s.69115 1.54375 1.54373 1.54375c.85257 0 1.54372-.69116 1.54372-1.54375s-.69115-1.54375-1.54372-1.54375zm-2.19372 1.54375c0-1.21157.98216-2.19375 2.19372-2.19375 1.21155 0 2.19371.98218 2.19371 2.19375 0 1.21158-.98216 2.19375-2.19371 2.19375-1.21156 0-2.19372-.98217-2.19372-2.19375z" fill="#fff" fill-rule="evenodd"/></svg>