<svg fill="none" viewBox="0 0 13 13" xmlns="http://www.w3.org/2000/svg" xmlns:xlink="http://www.w3.org/1999/xlink"><mask id="a" fill="#fff"><path clip-rule="evenodd" d="m4.875 4.64584c-.27614 0-.5.22386-.5.5 0 .27615.22386.5.5.5h3.25c.27614 0 .5-.22385.5-.5 0-.27614-.22386-.5-.5-.5zm-.5 2.125c0-.27614.22386-.5.5-.5h3.25c.27614 0 .5.22386.5.5 0 .27615-.22386.5-.5.5h-3.25c-.27614 0-.5-.22385-.5-.5zm0 1.625c0-.27614.22386-.5.5-.5h3.25c.27614 0 .5.22386.5.5 0 .27615-.22386.5-.5.5h-3.25c-.27614 0-.5-.22385-.5-.5z" fill="#fff" fill-rule="evenodd"/></mask><path d="m2.70837 1.625h5.95834l1.62499 2.16667v7.58333h-7.58333z" stroke="#fff" stroke-linecap="round" stroke-linejoin="round"/><path d="m5.375 5.14584c0 .27615-.22386.5-.5.5v-2c-.82843 0-1.5.67158-1.5 1.5zm-.5-.5c.27614 0 .5.22386.5.5h-2c0 .82843.67157 1.5 1.5 1.5zm3.25 0h-3.25v2h3.25zm-.5.5c0-.27614.22386-.5.5-.5v2c.82843 0 1.5-.67157 1.5-1.5zm.5.5c-.27614 0-.5-.22385-.5-.5h2c0-.82842-.67157-1.5-1.5-1.5zm-3.25 0h3.25v-2h-3.25zm0-.375c-.82843 0-1.5.67158-1.5 1.5h2c0 .27615-.22386.5-.5.5zm3.25 0h-3.25v2h3.25zm1.5 1.5c0-.82842-.67157-1.5-1.5-1.5v2c-.27614 0-.5-.22385-.5-.5zm-1.5 1.5c.82843 0 1.5-.67157 1.5-1.5h-2c0-.27614.22386-.5.5-.5zm-3.25 0h3.25v-2h-3.25zm-1.5-1.5c0 .82843.67157 1.5 1.5 1.5v-2c.27614 0 .5.22386.5.5zm1.5.125c-.82843 0-1.5.67158-1.5 1.5h2c0 .27615-.22386.5-.5.5zm3.25 0h-3.25v2h3.25zm1.5 1.5c0-.82842-.67157-1.5-1.5-1.5v2c-.27614 0-.5-.22385-.5-.5zm-1.5 1.5c.82843 0 1.5-.67157 1.5-1.5h-2c0-.27614.22386-.5.5-.5zm-3.25 0h3.25v-2h-3.25zm-1.5-1.5c0 .82843.67157 1.5 1.5 1.5v-2c.27614 0 .5.22386.5.5z" fill="#fff" mask="url(#a)" opacity=".3"/></svg>