<svg viewBox="0 0 16 16" fill="none" xmlns="http://www.w3.org/2000/svg"><g opacity=".8" stroke="#383946"><path d="M9.77767 8.00002h.48863c.1061 0 .2079.04214.2829.11716.075.07501.1171.17675.1171.28284v2.53338c0 .0525-.0103.1045-.0304.153-.0201.0486-.0496.0927-.0867.1298-.0372.0371-.0813.0666-.1298.0867-.0485.0201-.1005.0305-.1531.0305H5.73301c-.05253 0-.10455-.0104-.15308-.0305-.04853-.0201-.09262-.0496-.12977-.0867-.03714-.0371-.0666-.0812-.0867-.1298-.02011-.0485-.03045-.1005-.03045-.153V8.40002c0-.10609.04214-.20783.11715-.28284.07502-.07502.17676-.11716.28285-.11716h.48866m3.556 0V6.33335c0-.55533-.356-1.66666-1.778-1.66666-1.422 0-1.778 1.11133-1.778 1.66666v1.66667m3.556 0h-3.556" stroke-linecap="round" stroke-linejoin="round"/><path d="M2 12.6667V3.33333c0-.35362.14048-.69276.39052-.94281C2.64057 2.14048 2.97971 2 3.33333 2h9.33337c.3536 0 .6927.14048.9428.39052.25.25005.3905.58919.3905.94281v9.33337c0 .3536-.1405.6927-.3905.9428-.2501.25-.5892.3905-.9428.3905H3.33333c-.35362 0-.69276-.1405-.94281-.3905C2.14048 13.3594 2 13.0203 2 12.6667Z"/></g></svg>