<svg fill="none" viewBox="0 0 20 20" xmlns="http://www.w3.org/2000/svg"><path clip-rule="evenodd" d="m7.66665 2.99992c-.64434 0-1.16658.52225-1.16658 1.16659v2.33336h-2.33337c-.64434 0-1.16658.52225-1.16658 1.16659v8.16684c0 .6444.52224 1.1666 1.16658 1.1666h8.1669c.6443 0 1.1666-.5222 1.1666-1.1666v-2.3333h2.3333c.6444 0 1.1666-.5223 1.1666-1.1666v-8.16689c0-.64434-.5222-1.16659-1.1666-1.16659zm4.66675 10.49988h-4.66675c-.64434 0-1.16658-.5223-1.16658-1.1666v-4.66674h-2.33337v8.16684h8.1669zm-4.66675-9.33339h8.16685v8.16689h-8.16685z" fill="#383946" fill-rule="evenodd"/></svg>