<svg fill="none" viewBox="0 0 16 20" xmlns="http://www.w3.org/2000/svg"><path d="m5.96222 15.0483v-.75c-.41421 0-.75.3358-.75.75zm0 4.0177h-.75c0 .2743.14971.5267.39041.6582.24069.1315.53397.1211.76477-.027zm1.38795-.891.39865-.6353-.40324-.2531-.40059.2572zm1.41997.891-.39864.6353c.23114.145.52283.1531.76163.021.2388-.132.38701-.3834.38701-.6563zm0-4.0177h.75c0-.4142-.33578-.75-.75-.75zm-3.55792 0v4.0177h1.5v-4.0177zm1.15518 4.6489 1.38795-.8911-.81036-1.2623-1.38795.8911zm.58412-.887 1.41998.8911.79729-1.2706-1.41997-.891zm2.56862.2558v-4.0177h-1.5v4.0177zm-.75-4.7677h-2.80792v1.5h2.80792z" fill="#383946"/><g stroke="#383946" stroke-width="1.5"><path d="m1.6901 14.0899v-12.65582c0-.27614.22386-.499998.5-.499998h11.6198c.2762 0 .5.223858.5.499998v14.47662c0 .2762-.2238.5-.5.5h-3.0489"/><path d="m13.8131 12.3647h-10.09999c-1.11728 0-2.02301.9058-2.02301 2.0231 0 1.1172.90573 2.023 2.02301 2.023h.58378"/></g></svg>