<svg fill="none" viewBox="0 0 14 14" xmlns="http://www.w3.org/2000/svg"><path d="m9.19084 2.6265c-.63796.00204-1.18217.46185-1.29011 1.09005-.10794.62819.25161 1.24301.85236 1.45751v.51389c0 .24154-.19599.43735-.43775.43735h-2.62648c-.1492.00059-.29722.02647-.43775.07654v-1.02778c.60302-.213.96474-.82907.85658-1.45888-.10815-.62981-.65473-1.09018-1.29432-1.09018-.6396 0-1.18618.46037-1.29433 1.09018-.10816.62981.25356 1.24588.85658 1.45888v3.65188c-.60302.213-.96474.82907-.85658 1.45886.10815.6298.65473 1.0902 1.29433 1.0902.63959 0 1.18617-.4604 1.29432-1.0902.10816-.62979-.25356-1.24586-.85658-1.45886v-1.38859c0-.24154.19599-.43735.43775-.43735h2.62648c.72529 0 1.31324-.58742 1.31324-1.31205v-.51389c.60072-.2145.96032-.82932.85232-1.45751-.1079-.6282-.6521-1.08801-1.29006-1.09005z" fill="#4f5162"/></svg>