<svg fill="none" viewBox="0 0 16 16" xmlns="http://www.w3.org/2000/svg"><path d="m5.48474 12.7553v-.5c-.27614 0-.5.2239-.5.5zm0 2.5635h-.5c0 .1829.09981.3512.26027.4388.16047.0877.35598.0808.50985-.018zm.88559-.5685.26577-.4235-.26883-.1687-.26706.1714zm.90602.5685-.26576.4236c.1541.0967.34855.102.50775.014.1592-.0881.25801-.2556.25801-.4376zm0-2.5635h.5c0-.2761-.22385-.5-.5-.5zm-2.29161 0v2.5635h1v-2.5635zm.77012 2.9843.88559-.5685-.54024-.8416-.88559.5686zm.3497-.5658.90603.5686.53153-.8471-.90602-.5685zm1.67179.145v-2.5635h-1v2.5635zm-.5-3.0635h-1.79161v1h1.79161z" fill="#4f5162"/><g stroke="#4f5162"><path d="m2.51294 12.0738v-7.89414c0-.27615.22386-.5.5-.5h7.05216c.2761 0 .5.22385.5.5v8.87494c0 .2762-.2239.5-.5.5h-1.76441"/><path d="m10.2481 10.973h-6.44437c-.71288 0-1.29079.5779-1.29079 1.2908s.57791 1.2908 1.29079 1.2908h.37248"/><path d="m5.48474 3.41206v-1.08989c0-.27614.22386-.5.5-.5h7.04416c.2762 0 .5.22386.5.5v8.98923c0 .2761-.2238.5-.5.5h-1.4173"/></g></svg>