<svg fill="none" viewBox="0 0 20 20" xmlns="http://www.w3.org/2000/svg"><path clip-rule="evenodd" d="m15.8334 3.33325h-8.33336c-.45833 0-.83333.375-.83333.83334v1.66666h1.30469v-1.25h7.4167v6.58855h-1.2214v1.3281h1.6667c.4583 0 .8333-.375.8333-.8333v-7.50001c0-.45834-.375-.83334-.8333-.83334zm-3.3334 3.33334h-8.33329c-.45834 0-.83334.375-.83334.83333v8.33338c0 .4583.375.8333.83334.8333h8.33329c.4584 0 .8334-.375.8334-.8333v-8.33338c0-.45833-.375-.83333-.8334-.83333zm-.4166 8.75001h-7.50003v-7.48335h7.50003z" fill="#383946" fill-rule="evenodd"/></svg>