<svg fill="none" viewBox="0 0 16 16" xmlns="http://www.w3.org/2000/svg" xmlns:xlink="http://www.w3.org/1999/xlink"><mask id="a" fill="#fff"><path clip-rule="evenodd" d="m5.33333 5.91675c-.27614 0-.5.22386-.5.5s.22386.5.5.5h5.33337c.2761 0 .5-.22386.5-.5s-.2239-.5-.5-.5zm0 1.83333c-.27614 0-.5.22386-.5.5s.22386.5.5.5h4.66667c.2761 0 .5-.22386.5-.5s-.2239-.5-.5-.5z" fill="#fff" fill-rule="evenodd"/></mask><path d="m5.33333 3.33325h5.33337c1.4727 0 2.6666 1.19391 2.6666 2.66667v2.66667c0 1.47271-1.1939 2.66671-2.6666 2.66671h-2.6667l-2.66667 2v-2c-1.47276 0-2.66666-1.194-2.66666-2.66671v-2.66667c0-1.47276 1.1939-2.66667 2.66666-2.66667z" stroke="#383946" stroke-linecap="round" stroke-linejoin="round"/><path d="m5.83333 6.41675c0 .27614-.22385.5-.5.5v-2c-.82842 0-1.5.67157-1.5 1.5zm-.5-.5c.27615 0 .5.22386.5.5h-2c0 .82843.67158 1.5 1.5 1.5zm5.33337 0h-5.33337v2h5.33337zm-.5.5c0-.27614.2238-.5.5-.5v2c.8284 0 1.5-.67158 1.5-1.5zm.5.5c-.2762 0-.5-.22386-.5-.5h2c0-.82843-.6716-1.5-1.5-1.5zm-5.33337 0h5.33337v-2h-5.33337zm.5 1.33333c0 .27614-.22385.5-.5.5v-2c-.82842 0-1.5.67157-1.5 1.5zm-.5-.5c.27615 0 .5.22386.5.5h-2c0 .82843.67158 1.5 1.5 1.5zm4.66667 0h-4.66667v2h4.66667zm-.5.5c0-.27614.22386-.5.5-.5v2c.8284 0 1.5-.67157 1.5-1.5zm.5.5c-.27614 0-.5-.22386-.5-.5h2c0-.82843-.6716-1.5-1.5-1.5zm-4.66667 0h4.66667v-2h-4.66667z" fill="#383946" mask="url(#a)" opacity=".3"/></svg>