<svg fill="none" viewBox="0 0 16 20" xmlns="http://www.w3.org/2000/svg"><path d="m5.96216 15.0483v-.75c-.41422 0-.75.3358-.75.75zm0 4.0177h-.75c0 .2742.14971.5266.39041.6581.24069.1315.53397.1212.76477-.027zm1.38795-.8911.39865-.6353-.40324-.253-.4006.2572zm1.41997.8911-.39864.6352c.23114.1451.52283.1531.76163.0211.23879-.1321.38701-.3835.38701-.6563zm0-4.0177h.75c0-.4142-.33578-.75-.75-.75zm-3.55792 0v4.0177h1.5v-4.0177zm1.15518 4.6488 1.38795-.8911-.81037-1.2622-1.38795.891zm.58412-.8869 1.41998.891.79729-1.2705-1.41997-.8911zm2.56862.2558v-4.0177h-1.5v4.0177zm-.75-4.7677h-2.80792v1.5h2.80792z" fill="#383946"/><g stroke="#383946" stroke-width="1.5"><path d="m1.69006 14.0899v-12.65585c0-.27614.22386-.499998.5-.499998h11.61984c.2761 0 .5.223858.5.499998v14.47665c0 .2762-.2239.5-.5.5h-3.0489"/><path d="m13.8131 12.3647h-10.10002c-1.11728 0-2.02302.9057-2.02302 2.023 0 1.1172.90574 2.023 2.02302 2.023h.58377"/></g></svg>