<svg fill="none" viewBox="0 0 24 24" xmlns="http://www.w3.org/2000/svg" xmlns:xlink="http://www.w3.org/1999/xlink"><clipPath id="a"><path d="m4 3h16v16h-16z"/></clipPath><g clip-path="url(#a)"><path d="m11.9488 3.8255c-2.16513 0-3.9315 1.76637-3.9315 3.93151 0 1.17608.5813 2.17412 1.40411 2.89579l-1.17609 2.1764c-.07548-.0113-.15169-.0171-.22802-.0174-.92391 0-1.68494.761-1.68494 1.6849s.76103 1.685 1.68494 1.685c.9239 0 1.68493-.7611 1.68493-1.685 0-.4476-.18422-.8554-.47403-1.1586l1.5973-2.9655-.4212-.2808c-.75711-.50327-1.26372-1.35416-1.26372-2.33479 0-1.55744 1.25082-2.80822 2.80822-2.80822s2.8082 1.25078 2.8082 2.80822c0 .32912-.055.63859-.1578.93008l1.0531.38641c.1509-.42252.228-.86784.228-1.31649 0-2.16514-1.7664-3.93151-3.9315-3.93151zm0 2.24658c-.9239 0-1.6849.76102-1.6849 1.68493 0 .9239.761 1.68493 1.6849 1.68493.0786 0 .1516-.00674.228-.01741l1.5446 2.45717.2808.4561.474-.2808c.4272-.245.9117-.3721 1.4041-.3685 1.5574 0 2.8082 1.2508 2.8082 2.8082 0 1.5575-1.2508 2.8083-2.8082 2.8083-.3942.0021-.7844-.0798-1.1445-.2402-.3602-.1603-.682-.3955-.9442-.6899l-.8425.7368c.3686.4132.8202.744 1.3252.9708.5051.2268 1.0523.3446 1.606.3457 2.1651 0 3.9315-1.7663 3.9315-3.9315 0-2.1651-1.7664-3.9315-3.9315-3.9315-.5178 0-.9677.2039-1.4215.3864l-1.2817-2.05389c.2808-.30048.4566-.70206.4566-1.1407 0-.92391-.761-1.68493-1.6849-1.68493zm0 1.12328c.3162 0 .5616.246.5616.56165 0 .3162-.246.56164-.5616.56164-.3162 0-.5616-.246-.5616-.56164 0-.31621.246-.56165.5616-.56165zm-4.58076 3.42264c-.44988.0764-.89976.2325-1.3165.474-1.87364 1.0812-2.52066 3.4968-1.43949 5.3705 1.08173 1.8736 3.49511 2.5206 5.371 1.4395 1.07275-.6212 1.65175-1.7029 1.82535-2.8436h2.4926c.2342.6492.8531 1.1233 1.5793 1.1233.9239 0 1.6849-.7611 1.6849-1.685s-.761-1.6849-1.6849-1.6849c-.7262 0-1.3451.474-1.5799 1.1233h-3.4749v.5616c0 .97-.4998 1.9175-1.40409 2.4398-.32025.185-.67386.305-1.04055.353-.3667.0481-.73928.0233-1.09638-.0729s-.6917-.262-.98462-.4878c-.29291-.2257-.53839-.5071-.72234-.828-.22699-.3927-.35552-.8346-.37461-1.2879s.07182-.9044.26498-1.3149.48281-.7681.84422-1.0423c.3614-.2742.78382-.4569 1.23116-.5324zm.64926 3.3171c.3162 0 .56164.246.56164.5616 0 .3162-.246.5617-.56164.5617-.31621 0-.56165-.246-.56165-.5617 0-.3162.246-.5616.56165-.5616zm7.863 0c.3162 0 .5617.246.5617.5616 0 .3162-.246.5617-.5617.5617-.3162 0-.5616-.246-.5616-.5617 0-.3162.246-.5616.5616-.5616z" fill="#383946"/></g></svg>