<svg width="32" height="32" viewBox="0 0 32 32" fill="none" xmlns="http://www.w3.org/2000/svg">
<path fill-rule="evenodd" clip-rule="evenodd" d="M25.1531 4.51637C25.1531 3.96408 24.7054 3.51636 24.1531 3.51636H6.1071C5.55481 3.51636 5.1071 3.96408 5.1071 4.51637L5.1071 6.50314L6.1071 6.50314L6.1071 4.51637L24.1531 4.51637V8.96361L24.1531 8.96558L24.1531 8.96756V17.6912L24.1532 17.6931V21.6136C24.1532 22.9943 23.0339 24.1136 21.6532 24.1136H18.7902L18.7801 24.1134L18.7725 24.1133H6.10709L6.1071 18.783H5.1071L5.10709 24.1133C5.10709 24.6656 5.55481 25.1133 6.10709 25.1133H9.23124L9.23124 27.5966C9.23124 28.1489 9.67895 28.5966 10.2312 28.5966H18.9024L18.9129 28.5967H25.0945C27.0275 28.5967 28.5945 27.0297 28.5945 25.0967V21.6672L28.5945 21.6652V9.46559C28.5945 8.9133 28.1468 8.46558 27.5945 8.46558H25.1531V4.51637ZM25.0945 27.5967H22.4351L22.4247 27.5966H10.2312L10.2312 25.1133H15.1124C15.1183 25.1135 15.1242 25.1136 15.1301 25.1136H21.6532C23.5861 25.1136 25.1532 23.5466 25.1532 21.6136V17.6915L25.1531 17.6895V9.46559H27.5945V21.6671L27.5945 21.6691V25.0967C27.5945 26.4774 26.4752 27.5967 25.0945 27.5967ZM12.8578 9.12222C12.8578 8.56993 13.3055 8.12221 13.8578 8.12221H19.0259C19.5782 8.12221 20.0259 8.56993 20.0259 9.12222V11.4539C20.0259 12.0062 19.5782 12.4539 19.0259 12.4539H13.8578C13.3055 12.4539 12.8578 12.0062 12.8578 11.4539V10.8444H10.345V11.5658C10.345 12.1181 9.89726 12.5659 9.34497 12.5659H7.12984V15.8606L12.8577 15.8606V15.1389C12.8577 14.5866 13.3054 14.1389 13.8577 14.1389H19.0557C19.608 14.1389 20.0557 14.5866 20.0557 15.1389V17.5823C20.0557 18.1345 19.608 18.5823 19.0557 18.5823H13.8577C13.3054 18.5823 12.8577 18.1345 12.8577 17.5823V16.8606L6.87984 16.8606C6.46562 16.8606 6.12984 16.5248 6.12984 16.1106V12.5659H4.14697C3.59469 12.5659 3.14697 12.1181 3.14697 11.5658V9.1225C3.14697 8.57021 3.59469 8.12249 4.14697 8.12249H9.34497C9.89726 8.12249 10.345 8.57021 10.345 9.1225V9.84436H12.8578V9.12222ZM19.0259 9.12222H13.8578V11.4539H19.0259L19.0259 9.12222ZM9.34497 9.1225H4.14697V11.5658H9.34497V9.1225ZM13.8577 15.1389L19.0557 15.1389V17.5823L13.8577 17.5823V15.1389Z" fill="#0278D5" stroke="#0278D5" stroke-width="0.5"/>
</svg>
