<svg viewBox="0 0 16 11" xmlns="http://www.w3.org/2000/svg"><path d="m17.3333333 16.3333333h1.3333334v-1.3333333h-1.3333334zm-6 0h1.3333334v-1.3333333h-1.3333334zm-5.99999997 0h1.33333334v-1.3333333h-1.33333334zm10.66666667-2.6666666v.6666666 3.3333334h4v-4zm-6 0v.6666666 3.3333334h4v-4zm-6 0v.6666666 3.3333334h4v-4zm8-6.6666667c-2.89466667 0-5.46733333 1.42466667-7.04066667 3.6106667l1.08333334.7786666c1.33266666-1.8513333 3.49866666-3.05599997 5.95733333-3.05599997 1.948 0 3.7053333.76466667 5.0166667 1.99999997h-2.35v1.3333334h4.6666666v-4.6666667h-1.3333333v2.432c-1.5593333-1.49933333-3.67-2.432-6-2.432z" fill="#e59c0b" fill-rule="evenodd" transform="translate(-4 -7)"/></svg>