<svg fill="none" viewBox="0 0 24 24" xmlns="http://www.w3.org/2000/svg"><path d="m18.4616 2.76904h-12.92306c-1.01961 0-1.84616.82655-1.84616 1.84616v11.0769c0 1.0196.82655 1.8462 1.84616 1.8462h12.92306c1.0196 0 1.8462-.8266 1.8462-1.8462v-11.0769c0-1.01961-.8266-1.84616-1.8462-1.84616z" fill="#f79400"/><g fill="#fff"><path d="m18.9035 7.43457c-.2243-.11815-.5123-.05907-.6397.17631l-.7366 1.092c-.7671-2.18307-3.0065-3.68677-5.5338-3.68677-2.59111 0-4.8628 1.59231-5.5985 3.83354-.06461.23631.06462.47262.31939.56031.25661.05908.51231-.05815.60831-.29446.60738-1.88769 2.49507-3.21508 4.6708-3.21508 2.111 0 3.9664 1.23877 4.6061 3.03785l-1.2157-.64893c-.2234-.11815-.5114-.05907-.6397.1477-.0313.04851-.052.10307-.0608.16012-.0089.05706-.0056.11533.0095.17104.0152.05572.0419.10762.0784.15234.0365.04473.082.08127.1335.10727l2.2062 1.17879c.0646.0295.1606.0591.2566.0591.0323 0 .096 0 .1283-.0296.1178-.0319.2201-.1053.288-.2068l1.2794-2.03442c.1283-.17723.0646-.44307-.1597-.56031z"/><path clip-rule="evenodd" d="m9.11523 11.1924v4.5h-4.5v-4.5zm-.75046.7504h-3v3h3zm6.00003-.7504v4.5h-4.4991v-4.5zm-.7496.7504h-3v3h3zm6-.7504v4.5h-4.5v-4.5zm-.7504.7504h-3v3h3z" fill-rule="evenodd"/><path d="m6.8657 12.6924h-.75047v.7504h.75047zm.74953.7504h-.75046v.7496h.75046v-.7505z"/><path clip-rule="evenodd" d="m16.6152 12.6924h.7505v.7504h-.7505z" fill-rule="evenodd"/><path d="m18.1152 13.4428h-.7505v.7496h.7505v-.7505z"/></g></svg>