<svg xmlns="http://www.w3.org/2000/svg" viewBox="0 0 24 24"><g clip-path="url(#a)"><circle cx="12" cy="12" r="12" fill="currentColor"/><path fill="#fff" d="M19.2908 8.24331c-.224-.11799-.5119-.059-.6399.17697l-.7358 1.09131c-.7678-2.18263-3.0072-3.68688-5.5346-3.68688-2.59133 0-4.86276 1.59273-5.59857 3.83436-.06398.23596.06398.47193.31992.56043.25593.059.51187-.059.60784-.29497.60785-1.88769 2.49541-3.21497 4.67081-3.21497 2.1115 0 3.967 1.23879 4.6068 3.03799l-1.2157-.64889c-.2239-.11798-.5118-.05899-.6398.14748-.128.20646-.064.47192.16.5899l2.2074 1.17976c.064.0295.16.059.2559.059.032 0 .096 0 .128-.0295.128-.0295.224-.1179.2879-.2064l1.2797-2.03519c.128-.17697.064-.44242-.1599-.5604Z"/><path fill="#fff" fill-rule="evenodd" d="M9.50011 12v4.5001H5V12h4.50011Zm-.75002.75H5.75002v3.0001h3.00007V12.75ZM14.7501 12v4.5001H10.25V12h4.5001Zm-.75.75H11v3.0001h3.0001V12.75Zm6-.75v4.5001H15.5V12h4.5001Zm-.75.75H16.25v3.0001h3.0001V12.75Z" clip-rule="evenodd"/><path fill="#fff" d="M7.25002 13.5005H6.5v.75h.75002v-.75Z"/><path fill="#fff" d="M8.00002 14.2495H7.25v.75h.75002v-.75Z"/><path fill="#fff" fill-rule="evenodd" d="M17.002 13.5005h.75v.75h-.75v-.75Z" clip-rule="evenodd"/><path fill="#fff" d="M18.5 14.2495h-.75v.75h.75v-.75Z"/></g><defs><clipPath id="a"><path fill="#fff" d="M0 0h24v24H0z"/></clipPath></defs></svg>