<svg xmlns="http://www.w3.org/2000/svg"><path fill-rule="evenodd" clip-rule="evenodd" d="M5.594.945a2 2 0 0 0-2 2v5.386a.667.667 0 0 0 1.334 0V2.945c0-.368.298-.666.666-.666h16c.369 0 .667.298.667.666V22.28a.667.667 0 0 1-.667.666h-6.057a.667.667 0 0 0 0 1.334h6.057a2 2 0 0 0 2-2V2.945a2 2 0 0 0-2-2h-16ZM7.5 10.051c-.737 0-1.334.597-1.334 1.333v.507a6.338 6.338 0 0 0-.82.336l-.363-.36a1.333 1.333 0 0 0-1.882 0l-.944.94a1.333 1.333 0 0 0 0 1.89l.336.335a6.34 6.34 0 0 0-.354.826h-.47c-.736 0-1.333.597-1.333 1.333v1.333c0 .737.597 1.334 1.333 1.334h.41c.095.307.214.604.353.889l-.274.272a1.333 1.333 0 0 0 0 1.89l.945.94c.52.519 1.362.519 1.882 0l.238-.237c.301.157.616.29.943.398v.322c0 .736.597 1.333 1.334 1.333h1.333c.736 0 1.333-.597 1.333-1.333v-.32c.327-.108.642-.241.943-.398l.238.237c.52.518 1.362.518 1.882 0l.945-.941a1.333 1.333 0 0 0 0-1.89l-.271-.269c.14-.286.26-.585.356-.893h.407c.736 0 1.333-.597 1.333-1.334v-1.333c0-.736-.597-1.333-1.333-1.333h-.469a6.33 6.33 0 0 0-.355-.829l.335-.333a1.333 1.333 0 0 0 0-1.89l-.945-.94a1.333 1.333 0 0 0-1.882 0l-.361.36a6.349 6.349 0 0 0-.823-.337v-.505c0-.736-.597-1.333-1.333-1.333H7.5Zm0 1.333h1.333v.667c0 .517.353.933.803 1.07.302.09.592.21.867.354.413.216.95.17 1.314-.192l.474-.472.945.94-.47.469c-.358.356-.4.889-.177 1.293.161.292.295.602.396.926.133.424.528.752 1.014.752h.667v1.333h-.667a.993.993 0 0 0-.956.739 5.01 5.01 0 0 1-.441 1.102.953.953 0 0 0 .16 1.132l.47.468-.944.941-.474-.472a.892.892 0 0 0-1.083-.134 5.014 5.014 0 0 1-1.252.526.87.87 0 0 0-.646.839v.667H7.5v-.667a.871.871 0 0 0-.647-.84 5.01 5.01 0 0 1-1.25-.526.894.894 0 0 0-1.085.133l-.474.473-.945-.941.47-.468a.958.958 0 0 0 .163-1.137 5.012 5.012 0 0 1-.438-1.095.995.995 0 0 0-.958-.74h-.667v-1.333h.667a1.07 1.07 0 0 0 1.016-.754c.101-.322.233-.63.394-.92a1.088 1.088 0 0 0-.178-1.297l-.47-.468.944-.941.474.472c.364.363.903.409 1.317.192a5.01 5.01 0 0 1 .863-.353c.45-.137.804-.553.804-1.071v-.667Zm-2.203 6.474a2.87 2.87 0 1 1 5.741 0 2.87 2.87 0 0 1-5.74 0Zm2.87-4.204a4.204 4.204 0 1 0 0 8.407 4.204 4.204 0 0 0 0-8.407Z"/></svg>