<svg fill="none" viewBox="0 0 64 64" xmlns="http://www.w3.org/2000/svg"><path clip-rule="evenodd" d="m24.9446 7.06017c-.3094-.34896-.756-.545-1.2223-.53647-.4663.00854-.9055.22078-1.2018.58082l-9.0751 11.02438c-.392.4763-.4741 1.1359-.2108 1.6937.2634.5579.8249.9137 1.4418.9137h4.2677c.0814 5.3265.5525 11.763 1.2351 17.6674.7471 6.4634 1.766 12.4581 2.8572 15.6632.0727.2135.1872.4032.3321.5616.2917.3747.7471.6156 1.2587.6156.8806 0 1.5944-.7137 1.5944-1.5942 0-.357.0091-.7072.027-1.0508.0633-.6055.1293-1.2367.1973-1.8907.5373-3.3602 2.0178-5.9755 4.1943-7.8652 2.5155-2.184 6.1072-3.5241 10.6145-3.7778v4.8605c0 .6274.368 1.1965.9402 1.4539s1.2422.1553 1.7118-.2609l11.0254-9.7722c.349-.3094.5451-.756.5366-1.2222-.0086-.4663-.2208-.9054-.5809-1.2017l-11.0255-9.0742c-.4763-.392-1.136-.4741-1.6939-.2108-.5579.2634-.9137.8249-.9137 1.4417v4.2827c-5.0172.1832-9.5222 1.3121-12.8131 4.7588-.1763.1847-.3483.3751-.5159.5714.3589-4.7533.6288-9.5877.6837-13.9561h4.9153c.6275 0 1.1966-.368 1.454-.9401.2574-.5722.1553-1.2422-.2609-1.7117zm-6.8908 10.48763 5.7426-6.9761 6.1844 6.9761h-4.5499v1.5943c0 7.2948-.6957 16.231-1.4275 23.9431-.2332-1.5978-.4538-3.294-.6565-5.0476-.7425-6.4233-1.2266-13.4493-1.2266-18.8955v-1.5943zm10.4957 22.8879c-.1941.1684-.3833.3411-.5677.5179.7355-1.9828 1.6748-3.4877 2.7663-4.6308 2.7126-2.8411 6.7055-3.8002 12.101-3.8002h1.5944v-4.066l6.9767 5.742-6.9767 6.1837v-4.5494h-1.5944c-5.7893 0-10.7563 1.5264-14.2996 4.6028z" fill="#0278d5" fill-rule="evenodd"/></svg>