<svg xmlns="http://www.w3.org/2000/svg" viewBox="0 0 25 25" fill="none"><path fill-rule="evenodd" d="M10.327 3.624a.6.6 0 0 0-.909.017L6.015 7.775a.6.6 0 0 0 .462.978h1.6c.031 1.997.207 4.411.463 6.625.28 2.424.662 4.672 1.071 5.874a.6.6 0 0 0 .125.211c.109.14.28.231.472.231a.6.6 0 0 0 .598-.598l.01-.394.074-.709c.202-1.26.757-2.241 1.573-2.949.943-.819 2.29-1.322 3.98-1.417v1.823a.6.6 0 0 0 .994.447l4.135-3.665a.6.6 0 0 0-.017-.909L17.422 9.92a.6.6 0 0 0-.978.462v1.606c-1.881.069-3.571.492-4.805 1.785l-.193.214.256-5.234h1.843a.6.6 0 0 0 .447-.994l-3.665-4.134zM7.743 7.557l2.153-2.616 2.319 2.616H10.51v.598c0 2.736-.261 6.087-.535 8.979l-.246-1.893c-.278-2.409-.46-5.043-.46-7.086v-.598H7.743zm3.936 8.583l-.213.194c.276-.744.628-1.308 1.037-1.737 1.017-1.065 2.515-1.425 4.538-1.425h.598v-1.525l2.616 2.153-2.616 2.319v-1.706h-.598c-2.171 0-4.034.572-5.362 1.726z" fill="currentColor"/></svg>