<?xml version="1.0" encoding="UTF-8"?>
<svg viewBox="0 0 20 20" xmlns="http://www.w3.org/2000/svg">
<path d="m17.499 10.183c0-4.575-3.55-7.6833-7.5-7.6833-3.9083 0-7.5 3.0417-7.5 7.7333-0.5 0.2834-0.83333 0.8167-0.83333 1.4334v1.6666c0 0.9167 0.75 1.6667 1.6667 1.6667h0.83334v-5.0833c0-3.225 2.6083-5.8333 5.8333-5.8333 3.225 0 5.8334 2.6083 5.8334 5.8333v5.9166h-6.6667v1.6667h6.6667c0.9166 0 1.6666-0.75 1.6666-1.6667v-1.0166c0.4917-0.2584 0.8334-0.7667 0.8334-1.3667v-1.9167c0-0.5833-0.3417-1.0916-0.8334-1.35z" fill="#0278D5"/>
<path d="m7.4994 11.667c0.46024 0 0.83333-0.3731 0.83333-0.8334 0-0.4602-0.37309-0.8333-0.83333-0.8333s-0.83333 0.3731-0.83333 0.8333c0 0.4603 0.37309 0.8334 0.83333 0.8334z" fill="#0278D5"/>
<path d="m12.499 11.667c0.4603 0 0.8334-0.3731 0.8334-0.8334 0-0.4602-0.3731-0.8333-0.8334-0.8333-0.4602 0-0.8333 0.3731-0.8333 0.8333 0 0.4603 0.3731 0.8334 0.8333 0.8334z" fill="#0278D5"/>
<path d="m14.999 9.1917c-0.4-2.375-2.4667-4.1917-4.9583-4.1917-2.525 0-5.2417 2.0917-5.025 5.375 2.0583-0.84167 3.6083-2.675 4.05-4.9083 1.0916 2.1917 3.3333 3.7 5.9333 3.725z" fill="#0278D5"/>
</svg>
