<svg xmlns="http://www.w3.org/2000/svg" viewBox="0 0 21 20"><path fill="currentColor" fill-rule="evenodd" d="M9.18 1.73a.957.957 0 0 0-.917.017L2.209 5.206a.479.479 0 0 0-.24.415v6.613c0 .331.17.639.453.813l8.5 5.26a.478.478 0 0 0 .488.01l6.636-3.75c.3-.17.486-.488.486-.833v-6.6c0-.178-.1-.342-.257-.424L9.18 1.73Zm-.442.848 8.281 4.556-5.834 3.044L3.411 5.62l5.327-3.043Zm2.915 8.435 5.922-3.09v5.81l-5.922 3.348v-6.068Zm-.957-.012v6.04l-7.77-4.807V6.446l7.77 4.555Z" clip-rule="evenodd"/><path stroke="currentColor" stroke-linecap="round" stroke-width="1.4" d="M16.273 9.87v3.417M14.738 10.722v3.418M13.203 11.579v3.417"/></svg>
