<svg xmlns="http://www.w3.org/2000/svg" viewBox="0 0 24 24" fill="none"><path fill="currentColor" fill-rule="evenodd" d="M2.765 3.726c0-.218.177-.394.394-.394h5.779c.217 0 .394.176.394.394v5.779a.394.394 0 0 1-.394.394H7.613V9.11h.93V4.12h-4.99v.907h-.788V3.726Zm-2.1 2.1c0-.217.177-.394.395-.394h5.778c.218 0 .394.177.394.394v5.779a.394.394 0 0 1-.394.394H1.06a.394.394 0 0 1-.394-.394V5.826Zm.789.394v4.991h4.99v-4.99h-4.99Z" clip-rule="evenodd"/><path stroke="currentColor" stroke-linecap="round" stroke-linejoin="round" d="M14.85 9.833 12.885 12V3.332L12.88 12l-1.97-2.167"/></svg>