<svg fill="none" viewBox="0 0 16 16" xmlns="http://www.w3.org/2000/svg"><g stroke="#0278d5" stroke-linecap="round" stroke-linejoin="round" stroke-width=".866667"><path d="m7.33333 9.66671c0 .91999 1.49267 1.66669 3.33337 1.66669 1.8406 0 3.3333-.7467 3.3333-1.66669m-12-3.33334c0 .92 1.49267 1.66667 3.33333 1.66667.75067 0 1.44334-.124 2-.33333m-5.33333 1c0 .92 1.49267 1.66669 3.33333 1.66669.75067 0 1.44267-.124 2-.3334m3.33337-1.33329c-1.8407 0-3.33337-.74667-3.33337-1.66667s1.49267-1.66667 3.33337-1.66667c1.8406 0 3.3333.74667 3.3333 1.66667s-1.4927 1.66667-3.3333 1.66667z"/><path d="m2 3.66663v7.33337c0 .92 1.49267 1.6666 3.33333 1.6666.75067 0 1.44267-.124 2-.3333m0 0v-5.33334m0 5.33334c0 .92 1.49267 1.6667 3.33337 1.6667 1.8406 0 3.3333-.7467 3.3333-1.6667v-5.33334m-5.33333-1.33333v-2"/><path d="m5.33333 5.33333c-1.84066 0-3.33333-.74666-3.33333-1.66666s1.49267-1.66667 3.33333-1.66667c1.84067 0 3.33334.74667 3.33334 1.66667s-1.49267 1.66666-3.33334 1.66666z"/></g></svg>