<svg xmlns="http://www.w3.org/2000/svg" viewBox="0 0 16 16" fill="none"><path fill="#000" fill-rule="evenodd" d="M15.198 11.68a7.2 7.2 0 0 0-14.4 0h14.4Zm-.162-.16H.96a7.04 7.04 0 0 1 7.039-6.88 7.04 7.04 0 0 1 7.038 6.88Z" clip-rule="evenodd"/><path fill="currentColor" fill-rule="evenodd" d="M8.156 4.482a7.193 7.193 0 0 1 2.304.432L7.998 11.68h7.2a7.2 7.2 0 0 0-7.042-7.198Zm-.205-.002a7.2 7.2 0 0 1 .046 0h-.046Zm.186.001h.018-.034.016Zm-.046 0h.017-.025.008Zm-.047 0h.015-.018.003Z" clip-rule="evenodd"/><path fill="#000" fill-rule="evenodd" d="M4.16 4.722a.08.08 0 0 0-.109-.029.08.08 0 0 0-.03.11l2.964 5.771.957 1.018c.022.038.16-.042.138-.08l-.403-1.338L4.16 4.722Z" clip-rule="evenodd"/><path fill="#000" fill-rule="evenodd" d="M4.16 4.722a.08.08 0 0 0-.109-.029.08.08 0 0 0-.03.11l2.964 5.771.957 1.018c.022.038.16-.042.138-.08l-.403-1.338L4.16 4.722Zm2.957 5.759.715.76-.302-.999L4.903 6.17l2.214 4.312Z" clip-rule="evenodd"/></svg>