<svg viewBox="0 0 6 6" xmlns="http://www.w3.org/2000/svg"><path color="currentColor" d="M.969 1.92c.012-.195.039-.326.095-.436a.963.963 0 0 1 .42-.42c.11-.056.241-.083.436-.095V.48a.24.24 0 0 1 .24-.24.24.24 0 0 1 .24.24v.48h.96V.48A.24.24 0 0 1 3.6.24a.24.24 0 0 1 .24.24v.489c.195.012.326.039.436.095a.963.963 0 0 1 .42.42c.056.11.083.241.095.436h.489a.24.24 0 0 1 .24.24.24.24 0 0 1-.24.24H4.8v.72h.48a.24.24 0 0 1 .24.24.24.24 0 0 1-.24.24h-.481c-.005.337-.027.526-.103.676a.963.963 0 0 1-.42.42c-.11.056-.241.083-.436.095v.489a.24.24 0 0 1-.24.24.24.24 0 0 1-.24-.24V4.8H2.4v.48a.24.24 0 0 1-.24.24.24.24 0 0 1-.24-.24v-.489c-.195-.012-.326-.039-.436-.095a.963.963 0 0 1-.42-.42C.988 4.126.965 3.937.961 3.6H.48a.24.24 0 0 1-.24-.24.24.24 0 0 1 .24-.24h.48V2.4H.48a.24.24 0 0 1-.24-.24.24.24 0 0 1 .24-.24h.489zm.471 1.488c0 .345-.015.518.052.65.046.09.119.164.21.21.101.051.226.055.434.054l.024-.001.021.001.171-.001h1.056l.171.001.021-.001.024.001c.208.001.333-.002.434-.054a.479.479 0 0 0 .21-.21c.067-.132.052-.305.052-.65V2.352l.001-.171-.001-.021.001-.024c.001-.208-.002-.333-.054-.434a.479.479 0 0 0-.21-.21c-.101-.051-.226-.055-.434-.054l-.024.001-.021-.001-.171.001H2.351l-.171-.001-.021.001-.024-.001c-.208-.001-.333.002-.434.054a.479.479 0 0 0-.21.21c-.051.101-.055.226-.054.434l.001.024-.001.021.001.171v1.056z"/></svg>