<svg xmlns="http://www.w3.org/2000/svg" width="32" height="32" fill="none">
  <g clip-path="url(#a)">
    <path fill="#0278D5" d="M19.237 30.023a4.426 4.426 0 0 1-1.69 1.516 3.979 3.979 0 0 1-3.737 0 3.86 3.86 0 0 1-1.073-.896l6.51-.61-.01-.01Zm-.052-18.26a.46.46 0 0 0-.336-.14.461.461 0 0 0-.339.14l-.52.52a3.349 3.349 0 0 0-.435-.239 5.385 5.385 0 0 0-.466-.182v-.781a.471.471 0 0 0-.477-.474h-.99a.454.454 0 0 0-.333.138.441.441 0 0 0-.143.336v.724a3.866 3.866 0 0 0-.925.352l-.567-.56a.433.433 0 0 0-.331-.144.462.462 0 0 0-.339.143l-.687.683a.45.45 0 0 0-.143.335.456.456 0 0 0 .143.34l.52.52c-.088.14-.167.285-.236.435-.07.152-.13.307-.183.466h-.78a.472.472 0 0 0-.493.469v.99a.468.468 0 0 0 .138.333.454.454 0 0 0 .338.143h.724c.037.163.086.324.149.479.058.155.126.306.203.453l-.563.563a.441.441 0 0 0-.143.33.472.472 0 0 0 .143.339l.696.703a.497.497 0 0 0 .677 0l.52-.52c.14.088.287.168.438.236.152.07.308.13.466.183v.78a.46.46 0 0 0 .138.34.466.466 0 0 0 .339.137h.99a.469.469 0 0 0 .46-.471v-.724c.165-.036.326-.085.482-.149.155-.058.307-.125.453-.203l.566.563a.458.458 0 0 0 .666 0l.703-.695a.497.497 0 0 0 0-.677l-.52-.521c.09-.14.17-.286.239-.438.068-.154.13-.307.182-.466h.782a.472.472 0 0 0 .474-.469v-.979a.458.458 0 0 0-.138-.333.45.45 0 0 0-.336-.14h-.72a4.007 4.007 0 0 0-.35-.925l.56-.57a.429.429 0 0 0 .142-.331.454.454 0 0 0-.143-.336l-.695-.696v-.01Zm-3.188 1.07c.353-.002.702.068 1.026.206a2.604 2.604 0 0 1 1.401 1.401 2.661 2.661 0 0 1 0 2.052 2.665 2.665 0 0 1-.562.839c-.242.238-.526.43-.839.562-.657.271-1.394.271-2.052 0a2.604 2.604 0 0 1-1.398-1.4 2.692 2.692 0 0 1 0-2.053c.133-.312.324-.597.562-.838.242-.24.526-.43.839-.563A2.589 2.589 0 0 1 16 12.833h-.003ZM9.51 22.396a20.822 20.822 0 0 1-1.06-1.438 10.66 10.66 0 0 1-1.596-3.974 9.172 9.172 0 0 1-.127-2.19c.05-.76.193-1.511.427-2.237.253-.784.594-1.537 1.015-2.245l.044-.065a9.01 9.01 0 0 1 1.959-2.127 8.57 8.57 0 0 1 2.505-1.362l.068-.021a9.064 9.064 0 0 1 2.107-.44 9.875 9.875 0 0 1 2.268.07c.732.11 1.451.298 2.143.563.691.264 1.35.605 1.966 1.015a9.264 9.264 0 0 1 2.115 1.946 8.357 8.357 0 0 1 1.349 2.453c.175.509.307 1.031.395 1.562a8.921 8.921 0 0 1-.143 3.612 9.934 9.934 0 0 1-.664 1.86c-.599 1.283-1.622 2.552-2.635 3.799a34.905 34.905 0 0 0-1.456 1.878.815.815 0 0 1-.833.33l-7.552.703a.818.818 0 0 1-.836-.601 11.246 11.246 0 0 0-.646-1.753 7.108 7.108 0 0 0-.813-1.338Zm.302-2.344c.308.466.646.904.982 1.33.392.514.726 1.07.995 1.657.205.44.385.893.54 1.354l6.783-.63c.393-.52.828-1.07 1.268-1.617.948-1.172 1.917-2.367 2.433-3.472.237-.5.422-1.024.554-1.562a7.42 7.42 0 0 0 .214-1.563 7.81 7.81 0 0 0-.1-1.408 8.276 8.276 0 0 0-.333-1.303 6.707 6.707 0 0 0-1.085-1.97 7.58 7.58 0 0 0-1.745-1.602 8.168 8.168 0 0 0-1.638-.842 8.488 8.488 0 0 0-1.8-.474 8.2 8.2 0 0 0-1.89-.057 7.435 7.435 0 0 0-1.72.352l-.064.026a6.939 6.939 0 0 0-2.034 1.101 7.51 7.51 0 0 0-1.591 1.722v.015a9.3 9.3 0 0 0-.867 1.907 7.685 7.685 0 0 0-.24 3.693 8.993 8.993 0 0 0 1.346 3.354l-.008-.011ZM16.557.961A1.041 1.041 0 0 1 17.667 0a.328.328 0 0 1 .072 0c.254.033.486.16.652.354.18.205.274.472.26.745a.302.302 0 0 1 0 .052l-.198 2.234a.634.634 0 0 1 0 .07 1.057 1.057 0 0 1-.354.652 1.042 1.042 0 0 1-.745.245h-.073a1.057 1.057 0 0 1-.65-.355 1.042 1.042 0 0 1-.246-.744.312.312 0 0 1 0-.055L16.56.974 16.557.96ZM4.904 4.219A1.042 1.042 0 0 1 6.398 2.77L7.98 4.41A1.042 1.042 0 0 1 6.482 5.86L4.904 4.22Zm-3.35 11.286A1.042 1.042 0 0 1 .553 14.44a1.042 1.042 0 0 1 1.065-1.013l2.276.047a1.042 1.042 0 0 1 1.016 1.065v.055a1.042 1.042 0 0 1-1.063.96h-.041l-2.248-.049h-.002Zm28.81-1.648h.034a1.018 1.018 0 0 1 .95.59 1.041 1.041 0 0 1 .097.43c.004.26-.088.512-.26.706a1.043 1.043 0 0 1-.721.341l-2.274.115a1.042 1.042 0 0 1-.819-1.738c.186-.204.445-.327.72-.34.76-.042 1.523-.086 2.281-.117l-.008.013Zm-3.979-9.292a1.041 1.041 0 0 1 1.725.098c.07.118.114.248.132.384a1.04 1.04 0 0 1-.198.781l-1.367 1.823a1.042 1.042 0 0 1-1.864-.482 1.042 1.042 0 0 1 .2-.781l1.37-1.823h.002ZM20.047 26.44l-.016.422v.148c.008.278-.005.555-.036.831l-.16.6-7.874.733-.12-.32-.234-1.25.015-.362 8.425-.781v-.02Z"/>
  </g>
  <defs>
    <clipPath id="a">
      <path fill="#fff" d="M.552 0h30.896v32H.552z"/>
    </clipPath>
  </defs>
</svg>
