<svg fill="currentColor" xmlns="http://www.w3.org/2000/svg"><path fill-rule="evenodd" clip-rule="evenodd" d="M6.177 3.073L8.573.677A.25.25 0 019 .854v4.792a.25.25 0 01-.427.177L6.177 3.427a.25.25 0 010-.354zM2.25 2.5a.75.75 0 100 1.5.75.75 0 000-1.5zM0 3.25a2.25 2.25 0 113 2.122v5.256a2.251 2.251 0 11-1.5 0V5.372A2.25 2.25 0 010 3.25zm10-.75H9V4h1a1 1 0 011 1v5.628a2.251 2.251 0 101.5 0V5A2.5 2.5 0 0010 2.5zM1.5 12.75a.75.75 0 111.5 0 .75.75 0 01-1.5 0zm9.5 0a.75.75 0 111.5 0 .75.75 0 01-1.5 0z" fill="currentColor"/></svg>