<svg viewBox="0 0 40 40" fill="currentColor" xmlns="http://www.w3.org/2000/svg"><path d="m30.425 25.003-16.73 9.343V16.24l16.332-9.162.398 17.925Z" fill="#00ADE4"/><path fill-rule="evenodd" clip-rule="evenodd" d="M13.657 14.838c.114 0 .206.093.206.207v19.68a.206.206 0 0 1-.412 0v-19.68c0-.114.092-.207.206-.207ZM30.269 5.676c.114 0 .206.092.206.206v19.501a.206.206 0 1 1-.413 0V5.882c0-.114.093-.206.207-.206Z" fill="#000"/><path fill-rule="evenodd" clip-rule="evenodd" d="M12.725 16.74a.206.206 0 0 1 .075-.282L30.725 6.1a.206.206 0 0 1 .207.357L13.007 16.815a.206.206 0 0 1-.282-.076ZM12.721 35.06a.206.206 0 0 1 .076-.281l18.4-10.615a.206.206 0 1 1 .207.357L13.003 35.136a.206.206 0 0 1-.282-.075Z" fill="#000"/><path d="M26.3 23.765 9.57 33.107V15.001L25.902 5.84l.398 17.925Z" fill="#fff"/><path fill-rule="evenodd" clip-rule="evenodd" d="M9.532 13.6c.114 0 .206.092.206.206v19.68a.206.206 0 1 1-.412 0v-19.68c0-.114.092-.206.206-.206ZM26.144 4.438c.114 0 .206.092.206.206v19.5a.206.206 0 1 1-.413 0v-19.5c0-.114.093-.207.207-.207Z" fill="#000"/><path fill-rule="evenodd" clip-rule="evenodd" d="M8.6 15.501a.206.206 0 0 1 .075-.282L26.6 4.863a.206.206 0 0 1 .207.357L8.882 15.577A.206.206 0 0 1 8.6 15.5ZM8.596 33.826a.206.206 0 0 1 .076-.282l18.4-10.614a.206.206 0 0 1 .207.357L8.878 33.902a.206.206 0 0 1-.282-.076ZM21.197 11.455c.11.028.178.14.15.25L17.841 25.73a.206.206 0 0 1-.4-.1l3.506-14.024a.206.206 0 0 1 .25-.15Zm-4.127 2.063c.111.026.18.138.152.249l-3.3 13.612a.206.206 0 0 1-.4-.097l3.3-13.613a.206.206 0 0 1 .248-.151Z" fill="#000"/><path d="M22.743 23.031s1.178-2.927 2.828-3.3c-1.65-.13-2.471-2.406-2.828-3.536-.263 1.25-1.179 3.398-2.829 3.398 1.886 0 2.829 3.438 2.829 3.438Z" fill="#fff"/><path fill-rule="evenodd" clip-rule="evenodd" d="M22.728 15.989a.206.206 0 0 1 .207.143c.177.563.466 1.393.907 2.096.445.708 1.014 1.24 1.74 1.297a.206.206 0 0 1 .03.406c-.362.082-.713.309-1.041.622a5.976 5.976 0 0 0-.864 1.079 10.038 10.038 0 0 0-.765 1.445l-.01.023-.002.006v.001a.207.207 0 0 1-.39-.022l-.001-.002-.002-.006a8.755 8.755 0 0 0-.687-1.666c-.23-.42-.512-.828-.842-1.129-.33-.3-.694-.483-1.099-.483a.206.206 0 0 1 0-.413c.726 0 1.313-.47 1.764-1.139.45-.666.736-1.488.863-2.095a.206.206 0 0 1 .192-.164Zm-1.955 3.62c.185.099.356.225.513.368.377.344.684.795.926 1.235.242.442.423.882.543 1.21l.015.04c.138-.283.338-.662.59-1.053.256-.397.568-.813.926-1.155a3.37 3.37 0 0 1 .62-.476c-.6-.254-1.062-.772-1.413-1.33a8.337 8.337 0 0 1-.732-1.544 6.35 6.35 0 0 1-.746 1.574c-.32.474-.733.898-1.242 1.131Z" fill="#000"/><path d="M27.128 26.095s.945-2.472 2.269-2.788c-1.324-.109-1.982-2.032-2.269-2.987-.21 1.057-.945 2.871-2.269 2.871 1.513 0 2.27 2.904 2.27 2.904Z" fill="#fff"/><path fill-rule="evenodd" clip-rule="evenodd" d="M27.122 20.113a.206.206 0 0 1 .207.147c.142.475.373 1.174.725 1.764.356.598.804 1.03 1.363 1.077a.206.206 0 0 1 .03.406c-.278.067-.553.252-.814.514-.259.26-.492.584-.688.905a8.6 8.6 0 0 0-.611 1.217l-.008.02-.002.004v.001a.206.206 0 0 1-.392-.021v-.002l-.002-.005-.006-.023a7.592 7.592 0 0 0-.543-1.38c-.184-.352-.408-.694-.669-.944-.26-.25-.542-.396-.85-.396a.206.206 0 1 1 0-.413c.557 0 1.017-.381 1.378-.944.358-.559.587-1.25.689-1.76a.206.206 0 0 1 .193-.167Zm-1.496 3.093c.134.081.258.18.372.29.306.293.555.678.749 1.051.18.347.32.693.415.963.108-.227.254-.509.431-.799.206-.336.458-.69.748-.981a2.84 2.84 0 0 1 .458-.38c-.468-.227-.828-.658-1.1-1.114-.23-.387-.41-.81-.547-1.192-.133.404-.32.837-.564 1.218-.247.386-.566.738-.962.944Z" fill="#000"/></svg>