<svg xmlns="http://www.w3.org/2000/svg" version="1.0" width="1176.000000pt" height="1176.000000pt" viewBox="0 0 1176.000000 1176.000000" preserveAspectRatio="xMidYMid meet">

<g transform="translate(0.000000,1176.000000) scale(0.100000,-0.100000)" fill="#0278d5" stroke="none">
<path d="M4820 10086 c-121 -35 -224 -102 -289 -189 -21 -28 -138 -223 -258 -432 -121 -209 -307 -531 -413 -715 -106 -184 -282 -488 -390 -675 -108 -187 -282 -488 -387 -670 -104 -181 -282 -490 -395 -685 -113 -195 -232 -402 -265 -460 -33 -58 -141 -244 -239 -415 -99 -170 -250 -431 -336 -580 -86 -148 -239 -414 -341 -590 -398 -689 -404 -700 -422 -775 -60 -245 62 -512 285 -625 114 -58 -10 -55 2151 -55 l1984 -1 3 181 2 180 -1973 2 -1973 3 -42 28 c-58 38 -85 95 -80 166 4 51 23 87 212 416 238 412 342 592 436 755 130 222 399 689 595 1030 110 190 245 424 300 520 56 96 164 283 240 415 213 370 228 396 548 950 165 286 340 588 387 670 48 83 165 285 260 450 95 165 224 388 286 495 132 230 155 253 251 253 34 0 71 -7 90 -16 52 -28 7 47 568 -927 163 -283 323 -560 355 -615 106 -182 236 -407 387 -670 83 -143 310 -537 505 -875 195 -338 383 -664 418 -725 35 -60 64 -112 66 -114 4 -4 303 169 310 180 3 5 -30 71 -74 147 -43 75 -119 207 -169 292 -49 85 -143 247 -208 360 -594 1029 -888 1539 -995 1725 -70 121 -221 382 -335 580 -115 198 -261 451 -325 562 -174 303 -224 358 -380 425 -67 28 -87 32 -190 34 -74 2 -131 -1 -160 -10z" fill="#0278d5"/>
<path d="M4929 8200 c-52 -9 -102 -44 -127 -89 l-22 -39 0 -1062 c0 -1158 -3 -1101 58 -1152 91 -76 222 -54 279 47 l23 40 0 1058 c0 876 -2 1063 -14 1090 -30 71 -121 121 -197 107z" fill="#0278d5"/>
<path d="M8344 5690 c-63 -9 -146 -53 -181 -95 -57 -67 -75 -127 -80 -269 -3 -72 -8 -134 -12 -137 -3 -3 -42 -16 -86 -28 -88 -25 -228 -82 -348 -143 l-79 -39 -86 87 c-109 109 -166 138 -267 138 -118 -1 -141 -17 -383 -257 -246 -245 -265 -273 -266 -390 0 -104 28 -160 137 -268 l87 -86 -65 -129 c-36 -71 -84 -188 -107 -260 l-43 -131 -134 -6 c-128 -5 -138 -7 -200 -39 -70 -35 -127 -98 -151 -166 -18 -51 -26 -550 -10 -641 19 -109 79 -189 175 -233 43 -19 70 -23 191 -26 l140 -4 33 -101 c18 -56 66 -171 107 -255 l76 -154 -96 -97 c-115 -118 -139 -164 -139 -266 0 -118 15 -141 256 -383 249 -251 272 -266 392 -266 113 0 152 20 280 145 l105 102 128 -61 c70 -33 179 -77 243 -97 l117 -37 5 -152 c3 -107 10 -165 22 -198 23 -66 93 -140 157 -169 52 -24 57 -24 373 -24 315 0 321 0 372 24 62 27 126 94 156 159 18 40 22 73 27 211 l5 164 95 32 c115 38 223 84 309 131 l63 35 109 -106 c135 -132 188 -160 299 -159 61 0 85 5 125 26 66 35 463 434 496 498 18 35 23 62 23 120 0 113 -26 162 -158 290 -58 58 -106 108 -106 112 0 5 27 63 59 130 33 68 76 173 98 235 l38 111 165 4 c194 4 239 18 313 97 79 84 82 101 82 461 0 305 -1 316 -22 360 -36 73 -79 117 -148 151 -63 31 -69 32 -217 35 -84 2 -156 3 -159 4 -4 0 -14 28 -24 62 -26 93 -79 227 -130 329 l-46 91 104 107 c126 129 152 177 152 276 0 127 -10 142 -258 392 -250 252 -270 266 -392 266 -104 1 -149 -23 -271 -144 l-101 -100 -94 50 c-90 48 -277 125 -365 151 l-42 13 -4 141 c-3 126 -6 147 -29 196 -37 79 -72 115 -147 152 l-67 33 -275 2 c-151 1 -298 -2 -326 -7z m476 -485 c0 -100 4 -135 20 -179 38 -100 132 -179 240 -201 61 -12 282 -103 365 -150 159 -90 181 -98 270 -93 105 6 144 27 259 139 l92 88 129 -129 130 -130 -97 -97 c-126 -127 -153 -180 -146 -292 5 -70 11 -87 76 -216 62 -124 96 -214 157 -415 30 -99 100 -171 197 -206 28 -10 86 -14 184 -14 l144 0 0 -184 0 -184 -162 -4 c-153 -3 -166 -5 -213 -30 -60 -31 -124 -98 -147 -153 -9 -22 -32 -92 -52 -155 -22 -69 -69 -181 -118 -279 -82 -163 -83 -165 -83 -240 1 -106 25 -151 152 -282 l102 -105 -128 -128 -128 -128 -100 99 c-129 128 -167 148 -288 148 -75 0 -97 -4 -135 -24 -210 -111 -323 -159 -465 -200 -125 -36 -196 -96 -236 -201 -16 -41 -19 -76 -19 -195 l0 -145 -185 0 -185 0 0 133 c0 154 -12 206 -62 272 -47 62 -112 100 -209 125 -124 32 -258 85 -398 156 -120 62 -125 64 -200 64 -109 0 -162 -27 -279 -143 l-92 -92 -130 130 -130 130 79 80 c98 101 116 127 137 204 25 89 11 155 -62 283 -71 123 -123 244 -164 379 -18 57 -39 117 -47 132 -24 48 -85 108 -137 135 -46 23 -64 26 -188 30 l-138 4 0 184 0 184 120 0 c143 0 203 18 268 80 53 51 78 101 109 215 31 115 88 259 142 355 75 134 85 160 89 242 5 104 -19 155 -128 267 l-81 84 127 128 128 129 34 -33 c108 -105 142 -133 191 -155 46 -21 63 -24 135 -20 78 5 87 8 229 81 99 52 190 90 280 117 238 74 275 94 328 178 41 66 49 101 49 235 l0 117 185 0 185 0 0 -125z" fill="#0278d5"/>
<path d="M8495 4444 c-189 -29 -304 -63 -450 -135 -381 -186 -654 -552 -721 -966 -17 -110 -19 -322 -4 -420 43 -270 157 -503 343 -699 211 -224 452 -354 745 -405 430 -73 857 60 1164 363 140 139 255 320 322 506 92 258 94 575 6 852 -34 105 -124 278 -194 371 -81 107 -229 250 -327 314 -216 142 -448 214 -714 220 -77 2 -153 1 -170 -1z m390 -394 c318 -87 576 -336 673 -651 29 -93 46 -247 39 -348 -27 -373 -289 -712 -644 -832 -119 -40 -189 -51 -328 -51 -172 1 -326 40 -467 122 -482 278 -633 903 -327 1359 130 195 339 346 557 401 110 27 122 29 277 25 106 -2 160 -8 220 -25z" fill="#0278d5"/>
<path d="M4885 5025 c-84 -45 -105 -87 -105 -207 0 -106 12 -136 76 -184 33 -25 46 -29 105 -29 60 0 71 3 105 30 58 47 74 87 74 180 0 97 -21 150 -75 191 -46 35 -133 44 -180 19z" fill="#0278d5"/>
</g>
</svg>