<svg viewBox="0 0 32 32" fill="none" xmlns="http://www.w3.org/2000/svg"><path fill-rule="evenodd" clip-rule="evenodd" d="M13.067 5.75a.5.5 0 0 1 .866 0l6.062 10.5.866-.5-6.062-10.5a1.5 1.5 0 0 0-2.598 0L3.107 21a1.5 1.5 0 0 0 1.3 2.25H15v-1H4.407a.5.5 0 0 1-.433-.75l9.093-15.75Zm.426 3.922a.5.5 0 0 1 .5.5v5.513a.5.5 0 1 1-1 0v-5.513a.5.5 0 0 1 .5-.5Zm0 8.606a.5.5 0 0 1 .5.5v.21a.5.5 0 1 1-1 0v-.21a.5.5 0 0 1 .5-.5Zm8.506-.95c0-.457.37-.826.826-.826h1.348c.457 0 .826.37.826.826v.588c.487.138.948.339 1.372.592l.434-.433a.826.826 0 0 1 1.168 0l.953.953a.826.826 0 0 1 0 1.168l-.467.467c.23.417.412.865.534 1.337h.68c.456 0 .825.37.825.825v1.349c0 .456-.37.826-.826.826h-.707c-.129.46-.313.896-.545 1.3l.504.505a.826.826 0 0 1 0 1.168l-.953.953a.826.826 0 0 1-1.169 0l-.5-.5a5.715 5.715 0 0 1-1.303.552v.694c0 .457-.37.826-.826.826h-1.348a.826.826 0 0 1-.826-.826v-.655a5.716 5.716 0 0 1-1.354-.54l-.448.448a.826.826 0 0 1-1.168 0l-.953-.953a.826.826 0 0 1 0-1.168l.413-.414a5.718 5.718 0 0 1-.597-1.39h-.565a.826.826 0 0 1-.826-.826v-1.349c0-.456.37-.825.826-.825h.537c.131-.507.33-.986.586-1.428l-.375-.376a.826.826 0 0 1 0-1.168l.953-.953a.826.826 0 0 1 1.168 0l.38.38c.441-.252.919-.448 1.423-.577v-.55Zm1 .174v.506a.84.84 0 0 1-.653.815 4.718 4.718 0 0 0-1.365.554.83.83 0 0 1-1.016-.119l-.353-.353-.707.707.353.354a.821.821 0 0 1 .116 1.009 4.716 4.716 0 0 0-.568 1.38A.83.83 0 0 1 18 23h-.5v1h.518a.84.84 0 0 1 .81.634c.123.477.318.924.572 1.33a.84.84 0 0 1-.112 1.041l-.383.383.707.707.414-.414a.84.84 0 0 1 1.017-.127c.4.234.838.41 1.302.518a.84.84 0 0 1 .653.815v.611h1v-.646a.84.84 0 0 1 .632-.81 4.72 4.72 0 0 0 1.258-.532.84.84 0 0 1 1.03.118l.468.468.707-.707-.472-.472a.84.84 0 0 1-.12-1.027c.232-.386.41-.808.525-1.256a.84.84 0 0 1 .81-.634h.661v-1h-.635a.84.84 0 0 1-.814-.651 4.717 4.717 0 0 0-.513-1.287.84.84 0 0 1 .126-1.016l.434-.434-.707-.707-.403.403a.84.84 0 0 1-1.04.112 4.718 4.718 0 0 0-1.315-.568.84.84 0 0 1-.632-.81v-.54h-1Zm.501 3.388a2.617 2.617 0 0 0-2.624 2.61c0 1.44 1.173 2.61 2.624 2.61a2.617 2.617 0 0 0 2.624-2.61c0-1.44-1.173-2.61-2.624-2.61Zm-3.624 2.61a3.617 3.617 0 0 1 3.624-3.61c2 0 3.624 1.614 3.624 3.61a3.617 3.617 0 0 1-3.624 3.61c-2 0-3.624-1.614-3.624-3.61Z" fill="currentColor"/></svg>