<svg fill="none" viewBox="0 0 16 17" xmlns="http://www.w3.org/2000/svg"><path d="m13.8922 5.15357v-.00005l-.0029-.00141-5.74017-2.71722c-.00018-.00009-.00037-.00017-.00055-.00026-.09516-.04617-.202-.04617-.29716 0-.00018.00009-.00037.00017-.00055.00026l-5.73943 2.71689c-.12243.05581-.21144.18166-.21144.32576v7.05136c0 .1412.08979.2666.21145.3221l5.73685 2.7173h-.00001l.00124.0006c.04713.0216.10094.0311.14868.0311.04979 0 .09838-.0103.14516-.0296l.00005.0002.00469-.0023 5.73959-2.7169c.0003-.0002.0006-.0003.0009-.0004.1224-.0558.2114-.1817.2114-.3258v-7.04766h.0001l-.0002-.0036c-.005-.13863-.0929-.26133-.2077-.32037zm-6.24391 3.27394v6.26089l-5.04844-2.3881v-6.26085zm.34991-5.27423 4.9043 2.32426-4.9043 2.32426-4.90768-2.32426zm5.3984 2.88607v6.26095l-5.04846 2.3881v-6.26453z" fill="currentColor" stroke="currentColor" stroke-width=".2"/></svg>