<svg xmlns="http://www.w3.org/2000/svg" viewBox="0 0 24 24" fill="none"><g clip-path="url(#a)"><path fill="#8483FF" d="M20.058 6.101c4.672 9.041-.828 13.503-1.775 14.038l-2.956 1.725c-4.447.951-7.925-3.173-9.108-5.354-3.312-7.47.237-11.876 2.425-13.145 5.11-3.521 9.738.357 11.414 2.736Z" opacity=".5"/><path stroke="#000" d="M18.644 6.101c4.7 9.041-.833 13.503-1.785 14.038l-2.973 1.725c-4.473.951-7.971-3.173-9.16-5.354-3.332-7.47.237-11.876 2.438-13.145 5.14-3.521 9.795.357 11.48 2.736Z"/><ellipse cx="10.931" cy="12.382" stroke="#000" rx="7.3" ry="9.802" transform="rotate(-18.595 10.931 12.382)"/><path stroke="#000" stroke-linecap="round" d="M13.577 21.82c13.993-4.277 4.38-25.598-6.775-18.332M9.939 5.722l-.441 8.71"/><path stroke="#000" stroke-linecap="round" d="M9.61 13.798c1.884.362 3.918.83 5.654 1.085"/><path stroke="#000" stroke-linecap="round" d="M9.739 13.591c-.243.003-.441.03-.518.388-.091.432.287.601.542.605.356.004.697-.416.707-.902.013-.614-.57-.876-.946-.8-.36.073-.65.507-.648 1 .003.558.56.692.884.515.31-.17.4-.762.126-1.023-.291-.278-.472.302-.601.567M8.648 7.733c.42-.435.72-1.02.99-1.624.098-.217.197-.444.26-.685.004-.018.035-.248.069-.239.051.015.11.364.124.409.104.32.23.639.372.93.198.406.466.702.732 1.019M13.328 15.53c2.705-.182 3.307-.311.498-1.998M12.418 3.518c.852-.032 1.678-.634 2.443-.967M14.811 5.146c.65-.243 1.273-.56 1.934-.763M16.643 7.182c.498-.156.985-.345 1.476-.509M17.814 9.829c.638-.193 1.232-.478 1.832-.764M18.424 11.915c.309 0 .575.004.865-.113.224-.09.427-.19.662-.243M18.73 14.714c.455-.035.884-.083 1.323-.203M18.12 17.157c.406-.038.814-.064 1.22-.101"/></g><defs><clipPath id="a"><path fill="#fff" d="M0 0h24v24H0z"/></clipPath></defs></svg>