<svg viewBox="0 0 51 50" fill="currentColor" xmlns="http://www.w3.org/2000/svg">
<path d="M22.1577 31.4508H23.8002L27.8587 18.5447H26.1918L22.1577 31.4508Z" fill="#0278D5"/>
<path d="M28.3662 22.4829L33.6808 25.0121L28.3662 27.5129V29.4966L35.7101 26.0182V24.0061L28.3662 20.4993V22.4829Z" fill="#0278D5"/>
<path d="M14.2827 26.0181L21.6504 29.4966V27.5129L16.3358 25.0121L21.6504 22.4828V20.4992L14.2827 24.006V26.0181Z" fill="#0278D5"/>
<path d="M48.7412 14.1545C48.1201 12.7271 46.4659 12.063 44.9895 12.6409C43.013 13.3519 40.8825 12.8869 39.4391 11.4436C37.9472 9.91655 37.4982 7.66306 38.2929 5.71211C38.9236 4.19846 38.3436 2.50526 36.9103 1.75953C36.016 1.33184 35.0904 0.890346 34.1253 0.540919C32.6607 -0.00770717 31.0809 0.663948 30.3661 2.15795C29.5225 3.9917 27.6515 5.17517 25.601 5.17517C23.4312 5.17517 21.5037 3.85907 20.6914 1.82981C20.1428 0.423718 18.5333 -0.326195 17.0159 0.136609L17.002 0.140375C15.9931 0.462602 14.9988 0.872708 14.12 1.24939C12.6947 1.93485 12.0753 3.53052 12.6419 5.0341C13.3412 6.94991 12.8667 9.11384 11.435 10.5471C9.92136 12.0608 7.72058 12.5082 5.71103 11.7269C4.19567 11.1021 2.50633 11.6741 1.75641 13.1095C1.35426 13.951 0.898952 14.9044 0.541553 15.8844C-0.0246527 17.3352 0.691782 18.9756 2.14305 19.6067C3.98269 20.4893 5.17195 22.3603 5.17195 24.3758C5.17195 26.5493 3.83239 28.5216 1.82873 29.2853C0.418888 29.8398 -0.323525 31.4552 0.135529 32.9646C0.402937 33.8434 0.735213 34.6541 1.07878 35.4859L1.25664 35.9136C1.93039 37.2649 3.51013 37.8859 5.05099 37.3746C6.93166 36.6481 9.08766 37.1264 10.5524 38.5953C12.05 40.06 12.5092 42.2922 11.7262 44.2686C11.0955 45.7823 11.6755 47.4755 13.0737 48.2035C13.9546 48.6664 14.8802 49.0727 15.8837 49.436C17.3133 49.9904 18.9536 49.3033 19.6061 47.8716C20.4966 45.9813 22.34 44.8055 24.416 44.8055C26.5683 44.8055 28.523 46.1609 29.2904 48.2073C29.7437 49.3146 30.8685 50 32.0244 50C32.3387 50 32.6551 49.9494 32.9597 49.8418C34.0649 49.5079 35.0241 49.1446 35.8795 48.7383C37.26 48.1093 37.9066 46.5023 37.3793 44.9946C36.6725 43.0164 37.1332 40.8856 38.5766 39.4405C40.1056 37.9486 42.3554 37.5034 44.3298 38.304C45.8531 38.8995 47.4838 38.3274 48.2045 36.9447C48.6673 36.0579 49.0461 35.1871 49.4955 34.0895C49.9914 32.5955 49.3256 31.0685 47.8551 30.3633C46.0017 29.5276 44.8048 27.6604 44.8048 25.604C44.8048 23.4283 46.1347 21.5008 48.2066 20.6885C49.634 20.1005 50.3471 18.4719 49.8375 17.0034C49.4755 15.8689 49.124 14.955 48.7411 14.1544L48.7412 14.1545ZM47.4602 18.8314C44.6325 19.9408 42.8046 22.5986 42.8046 25.6041C42.8046 28.4455 44.4647 31.0293 47.0133 32.1775C47.5426 32.4315 47.7711 32.9333 47.6205 33.3924C47.2183 34.3766 46.8609 35.1989 46.4311 36.0192C46.1595 36.5406 45.5368 36.6285 45.0698 36.4469C42.3786 35.3455 39.2755 35.9606 37.1702 38.0191C35.1665 40.025 34.5258 42.9542 35.4946 45.661C35.6724 46.1728 35.4791 46.7252 35.0355 46.9244C34.2584 47.2956 33.3892 47.6236 32.3405 47.9417C31.8622 48.1036 31.3174 47.8793 31.1512 47.4768C30.1046 44.6822 27.3979 42.8053 24.4158 42.8053C21.5567 42.8053 19.0199 44.4202 17.7917 47.0315C17.6004 47.4513 17.1041 47.7676 16.5886 47.5647C15.6491 47.2228 14.8038 46.8537 14.0012 46.4319C13.5128 46.1779 13.3354 45.6037 13.5794 45.022C14.6653 42.2764 14.0267 39.1926 11.9586 37.1735C9.9411 35.1543 6.94562 34.5018 4.37738 35.492C3.81286 35.6774 3.28176 35.4899 3.07671 35.0878L2.92815 34.7266C2.60969 33.9512 2.29751 33.1976 2.04935 32.3832C1.91083 31.9283 2.06316 31.3424 2.55111 31.1507C5.31432 30.0962 7.17154 27.374 7.17154 24.376C7.17154 21.5969 5.53694 19.0174 2.97299 17.7871C2.4729 17.5703 2.22685 17.0644 2.41264 16.5919C2.7445 15.6801 3.17804 14.772 3.54544 14.0024C3.80113 13.5119 4.37904 13.3382 4.96278 13.5822C7.70093 14.6485 10.7922 14.012 12.8485 11.9614C14.8287 9.97908 15.4833 6.99325 14.5166 4.33931C14.3115 3.79445 14.4948 3.28851 14.948 3.07174C15.741 2.73193 16.6763 2.34316 17.5999 2.04856C18.0531 1.91172 18.6348 2.06613 18.8324 2.56621C19.9513 5.36671 22.6091 7.17496 25.6013 7.17496C28.431 7.17496 31.0127 5.53458 32.1768 3.00737C32.3899 2.55626 32.8565 2.20682 33.4306 2.41565C34.3173 2.73788 35.1589 3.13836 36.018 3.54845C36.5064 3.80246 36.6838 4.37662 36.4436 4.95079C35.3442 7.64576 35.9594 10.745 38.0175 12.8504C39.9919 14.8248 42.9953 15.4788 45.6903 14.5142C46.1297 14.3481 46.6841 14.4401 46.9227 14.985C47.278 15.7311 47.5985 16.5647 47.9383 17.6352C48.1045 18.1093 47.8777 18.66 47.46 18.8316L47.4602 18.8314Z" fill="#0278D5"/>
<path d="M24.9893 9.67435C16.5469 9.67435 9.67822 16.5487 9.67822 24.9983C9.67822 33.4486 16.5467 40.3222 24.9893 40.3222C33.4397 40.3222 40.3133 33.4479 40.3133 24.9983C40.3133 16.5487 33.4393 9.67435 24.9893 9.67435ZM24.9893 38.3232C17.6504 38.3232 11.6783 32.3452 11.6783 24.9983C11.6783 17.6514 17.6504 11.6734 24.9893 11.6734C32.3361 11.6734 38.3142 17.6514 38.3142 24.9983C38.3142 32.3455 32.3362 38.3232 24.9893 38.3232Z" fill="#0278D5"/>
</svg>
