<svg viewBox="3 0 33 32" width="40" height= "40" xmlns="http://www.w3.org/2000/svg">
<path fill-rule="evenodd" clip-rule="evenodd" d="M27.5598 21.1034C28.2819 19.8882 28.7049 18.6688 28.7049 17.5408V8.8036C28.7049 8.62132 28.6065 8.4541 28.4449 8.36528L18.8051 3.06644C18.656 2.98452 18.4758 2.98452 18.3268 3.06644L9.00368 8.36528C8.84248 8.45389 8.74375 8.62166 8.74375 8.80439V8.81094V8.81753V8.82416V8.83082V8.83752V8.84425V8.85102V8.85783V8.86467V8.87154V8.87845V8.8854V8.89238V8.8994V8.90646V8.91355V8.92068V8.92784V8.93504V8.94227V8.94954V8.95684V8.96418V8.97156V8.97897V8.98642V8.9939V9.00142V9.00897V9.01656V9.02419V9.03185V9.03954V9.04728V9.05504V9.06285V9.07069V9.07856V9.08647V9.09442V9.1024V9.11041V9.11847V9.12656V9.13468V9.14284V9.15103V9.15927V9.16753V9.17583V9.18417V9.19254V9.20095V9.2094V9.21787V9.22639V9.23494V9.24353V9.25215V9.2608V9.2695V9.27822V9.28699V9.29579V9.30462V9.31349V9.3224V9.33134V9.34032V9.34933V9.35838V9.36746V9.37658V9.38574V9.39493V9.40415V9.41341V9.42271V9.43204V9.44141V9.45081V9.46025V9.46972V9.47923V9.48877V9.49835V9.50797V9.51762V9.52731V9.53703V9.54679V9.55658V9.56641V9.57627V9.58617V9.5961V9.60607V9.61608V9.62612V9.63619V9.64631V9.65645V9.66663V9.67685V9.6871V9.69739V9.70772V9.71808V9.72847V9.7389V9.74936V9.75987V9.7704V9.78097V9.79158V9.80222V9.8129V9.82361V9.83436V9.84514V9.85596V9.86681V9.8777V9.88863V9.89959V9.91058V9.92161V9.93268V9.94378V9.95491V9.96609V9.97729V9.98853V9.99981V10.0111V10.0225V10.0339V10.0453V10.0567V10.0682V10.0797V10.0913V10.1029V10.1145V10.1262V10.1379V10.1496V10.1614V10.1732V10.185V10.1969V10.2088V10.2208V10.2328V10.2448V10.2568V10.2689V10.281V10.2932V10.3054V10.3176V10.3299V10.3422V10.3545V10.3669V10.3793V10.3917V10.4042V10.4167V10.4293V10.4419V10.4545V10.4671V10.4798V10.4925V10.5053V10.5181V10.5309V10.5438V10.5567V10.5696V10.5826V10.5956V10.6086V10.6217V10.6348V10.6479V10.6611V10.6743V10.6876V10.7008V10.7142V10.7275V10.7409V10.7543V10.7678V10.7813V10.7948V10.8084V10.822V10.8356V10.8493V10.863V10.8767V10.8905V10.9043V10.9181V10.932V10.9459V10.9599V10.9739V10.9879V11.0019V11.016V11.0301V11.0443V11.0585V11.0727V11.087V11.1013V11.1156V11.13V11.1444V11.1588V11.1733V11.1878V11.2024V11.2169V11.2316V11.2462V11.2609V11.2756V11.2904V11.3052V11.32V11.3348V11.3497V11.3647V11.3796V11.3946V11.4096V11.4247V11.4398V11.455V11.4701V11.4853V11.5006V11.5159V11.5312V11.5465V11.5619V11.5773V11.5928V11.6083V11.6238V11.6393V11.6549V11.6705V11.6862V11.7019V11.7176V11.7334V11.7492V11.765V11.7809V11.7968V11.8128V11.8287V11.8447V11.8608V11.8769V11.893V11.9091V11.9253V11.9415V11.9578V11.9741V11.9904V12.0067V12.0231V12.0396V12.056V12.0725V12.0891V12.1056V12.1222V12.1389V12.1555V12.1722V12.189V12.2057V12.2226V12.2394V12.2563V12.2732V12.2901V12.3071V12.3241V12.3412V12.3583V12.3754V12.3926V12.4097V12.427V12.4442V12.4615V12.4789V12.4962V12.5136V12.5311V12.5485V12.566V12.5836V12.6011V12.6188V12.6364V12.6541V12.6718V12.6895V12.7073V12.7251V12.743V12.7609V12.7788V12.7967V12.8147V12.8327V12.8508V12.8689V12.887V12.9052V12.9234V12.9416V12.9599V12.9782V12.9965V13.0149V13.0333V13.0517V13.0702V13.0887V13.1072V13.1258V13.1444V13.1631V13.1818V13.2005V13.2192V13.238V13.2568V13.2757V13.2946V13.3135V13.3324V13.3514V13.3705V13.3895V13.4086V13.4277V13.4469V13.4661V13.4853V13.5046V13.5239V13.5432V13.5626V13.582V13.6015V13.6209V13.6404V13.66V13.6796V13.6992V13.7188V13.7385V13.7582V13.778V13.7978V13.8176V13.8374V13.8573V13.8772V13.8972V13.9172V13.9372V13.9573V13.9774V13.9975V14.0177V14.0379V14.0581V14.0784V14.0987V14.119V14.1394V14.1598V14.1802V14.2007V14.2212V14.2417V14.2623V14.2829V14.3036V14.3242V14.345V14.3657V14.3865V14.4073V14.4281V14.449V14.47V14.4909V14.5119V14.5329V14.554V14.5751V14.5962V14.6174V14.6385V14.6598V14.681V14.7023V14.7237V14.745V14.7664V14.7879V14.8093V14.8308V14.8524V14.8739V14.8955V14.9172V14.9389V14.9606V14.9823V15.0041V15.0259V15.0477V15.0696V15.0915V15.1135V15.1355V15.1575V15.1795V15.2016V15.2237V15.2459V15.2681V15.2903V15.3126V15.3349V15.3572V15.3795V15.4019V15.4244V15.4468V15.4693V15.4918V15.5144V15.537V15.5596V15.5823V15.605V15.6277V15.6505V15.6733V15.6961V15.719V15.7419V15.7649V15.7878V15.8108V15.8339V15.857V15.8801V15.9032V15.9264V15.9496V15.9728V15.9961V16.0194V16.0428V16.0662V16.0896V16.113V16.1365V16.16V16.1836V16.2072V16.2308V16.2545V16.2782V16.3019V16.3256V16.3494V16.3733V16.3971V16.421V16.4449V16.4689V16.4929V16.5169V16.541V16.5651V16.5892V16.6134V16.6376V16.6618V16.6861V16.7104V16.7347V16.7591C8.74375 17.0366 8.52031 17.2616 8.24469 17.2616C7.96906 17.2616 7.74562 17.0366 7.74562 16.7591V16.7347V16.7104V16.6861V16.6618V16.6376V16.6134V16.5892V16.5651V16.541V16.5169V16.4929V16.4689V16.4449V16.421V16.3971V16.3733V16.3494V16.3256V16.3019V16.2782V16.2545V16.2308V16.2072V16.1836V16.16V16.1365V16.113V16.0896V16.0662V16.0428V16.0194V15.9961V15.9728V15.9496V15.9264V15.9032V15.8801V15.857V15.8339V15.8108V15.7878V15.7649V15.7419V15.719V15.6961V15.6733V15.6505V15.6277V15.605V15.5823V15.5596V15.537V15.5144V15.4918V15.4693V15.4468V15.4244V15.4019V15.3795V15.3572V15.3349V15.3126V15.2903V15.2681V15.2459V15.2237V15.2016V15.1795V15.1575V15.1355V15.1135V15.0915V15.0696V15.0477V15.0259V15.0041V14.9823V14.9606V14.9389V14.9172V14.8955V14.8739V14.8524V14.8308V14.8093V14.7879V14.7664V14.745V14.7237V14.7023V14.681V14.6598V14.6385V14.6174V14.5962V14.5751V14.554V14.5329V14.5119V14.4909V14.47V14.449V14.4281V14.4073V14.3865V14.3657V14.345V14.3242V14.3036V14.2829V14.2623V14.2417V14.2212V14.2007V14.1802V14.1598V14.1394V14.119V14.0987V14.0784V14.0581V14.0379V14.0177V13.9975V13.9774V13.9573V13.9372V13.9172V13.8972V13.8772V13.8573V13.8374V13.8176V13.7978V13.778V13.7582V13.7385V13.7188V13.6992V13.6796V13.66V13.6404V13.6209V13.6015V13.582V13.5626V13.5432V13.5239V13.5046V13.4853V13.4661V13.4469V13.4277V13.4086V13.3895V13.3705V13.3514V13.3324V13.3135V13.2946V13.2757V13.2568V13.238V13.2192V13.2005V13.1818V13.1631V13.1444V13.1258V13.1072V13.0887V13.0702V13.0517V13.0333V13.0149V12.9965V12.9782V12.9599V12.9416V12.9234V12.9052V12.887V12.8689V12.8508V12.8327V12.8147V12.7967V12.7788V12.7609V12.743V12.7251V12.7073V12.6895V12.6718V12.6541V12.6364V12.6188V12.6011V12.5836V12.566V12.5485V12.5311V12.5136V12.4962V12.4789V12.4615V12.4442V12.427V12.4097V12.3926V12.3754V12.3583V12.3412V12.3241V12.3071V12.2901V12.2732V12.2563V12.2394V12.2226V12.2057V12.189V12.1722V12.1555V12.1389V12.1222V12.1056V12.0891V12.0725V12.056V12.0396V12.0231V12.0067V11.9904V11.9741V11.9578V11.9415V11.9253V11.9091V11.893V11.8769V11.8608V11.8447V11.8287V11.8128V11.7968V11.7809V11.765V11.7492V11.7334V11.7176V11.7019V11.6862V11.6705V11.6549V11.6393V11.6238V11.6083V11.5928V11.5773V11.5619V11.5465V11.5312V11.5159V11.5006V11.4853V11.4701V11.455V11.4398V11.4247V11.4096V11.3946V11.3796V11.3647V11.3497V11.3348V11.32V11.3052V11.2904V11.2756V11.2609V11.2462V11.2316V11.2169V11.2024V11.1878V11.1733V11.1588V11.1444V11.13V11.1156V11.1013V11.087V11.0727V11.0585V11.0443V11.0301V11.016V11.0019V10.9879V10.9739V10.9599V10.9459V10.932V10.9181V10.9043V10.8905V10.8767V10.863V10.8493V10.8356V10.822V10.8084V10.7948V10.7813V10.7678V10.7543V10.7409V10.7275V10.7142V10.7008V10.6876V10.6743V10.6611V10.6479V10.6348V10.6217V10.6086V10.5956V10.5826V10.5696V10.5567V10.5438V10.5309V10.5181V10.5053V10.4925V10.4798V10.4671V10.4545V10.4419V10.4293V10.4167V10.4042V10.3917V10.3793V10.3669V10.3545V10.3422V10.3299V10.3176V10.3054V10.2932V10.281V10.2689V10.2568V10.2448V10.2328V10.2208V10.2088V10.1969V10.185V10.1732V10.1614V10.1496V10.1379V10.1262V10.1145V10.1029V10.0913V10.0797V10.0682V10.0567V10.0453V10.0339V10.0225V10.0111V9.99981V9.98853V9.97729V9.96609V9.95491V9.94378V9.93268V9.92161V9.91058V9.89959V9.88863V9.8777V9.86681V9.85596V9.84514V9.83436V9.82361V9.8129V9.80222V9.79158V9.78097V9.7704V9.75987V9.74936V9.7389V9.72847V9.71808V9.70772V9.69739V9.6871V9.67685V9.66663V9.65645V9.64631V9.63619V9.62612V9.61608V9.60607V9.5961V9.58617V9.57627V9.56641V9.55658V9.54679V9.53703V9.52731V9.51762V9.50797V9.49835V9.48877V9.47923V9.46972V9.46025V9.45081V9.44141V9.43204V9.42271V9.41341V9.40415V9.39493V9.38574V9.37658V9.36746V9.35838V9.34933V9.34032V9.33134V9.3224V9.31349V9.30462V9.29579V9.28699V9.27822V9.2695V9.2608V9.25215V9.24353V9.23494V9.22639V9.21787V9.2094V9.20095V9.19254V9.18417V9.17583V9.16753V9.15927V9.15103V9.14284V9.13468V9.12656V9.11847V9.11041V9.1024V9.09442V9.08647V9.07856V9.07069V9.06285V9.05504V9.04728V9.03954V9.03185V9.02419V9.01656V9.00897V9.00142V8.9939V8.98642V8.97897V8.97156V8.96418V8.95684V8.94954V8.94227V8.93504V8.92784V8.92068V8.91355V8.90646V8.8994V8.89238V8.8854V8.87845V8.87154V8.86467V8.85783V8.85102V8.84425V8.83752V8.83082V8.82416V8.81753V8.81094V8.80439C7.74562 8.25182 8.04564 7.74689 8.52541 7.48317L17.8485 2.18433C18.2956 1.93856 18.8362 1.93856 19.2833 2.18433L28.9232 7.48317C29.4026 7.74668 29.703 8.2506 29.703 8.8036V17.5408C29.703 18.9129 29.193 20.3124 28.4163 21.6194C27.6374 22.9302 26.5721 24.1791 25.4144 25.2601C24.2563 26.3415 22.9931 27.2667 21.8079 27.9245C20.6385 28.5735 19.4868 28.995 18.5659 28.995C17.931 28.995 17.1884 28.8135 16.4128 28.5091C16.156 28.4084 16.029 28.117 16.129 27.8585C16.2291 27.5999 16.5185 27.472 16.7753 27.5727C17.49 27.8532 18.1026 27.99 18.5659 27.99C19.2318 27.99 20.2032 27.6675 21.326 27.0444C22.433 26.43 23.6309 25.5548 24.7357 24.5232C25.8408 23.4913 26.8399 22.3148 27.5598 21.1034ZM13.0762 15.4275C13.0762 15.705 13.2996 15.93 13.5753 15.93H18.5659H22.3517L20.0276 18.2701C19.8327 18.4663 19.8327 18.7845 20.0276 18.9807C20.2225 19.1769 20.5385 19.1769 20.7334 18.9807L23.9095 15.7828C24.1044 15.5866 24.1044 15.2684 23.9095 15.0722L20.7334 11.8743C20.5385 11.678 20.2225 11.678 20.0276 11.8743C19.8327 12.0705 19.8327 12.3887 20.0276 12.5849L22.3517 14.925H18.5659H13.5753C13.2996 14.925 13.0762 15.15 13.0762 15.4275ZM8.82371 19.8783V18.945H9.82184V19.8855C9.82184 20.2337 10.0543 20.5172 10.357 20.6127C10.832 20.7626 11.2637 21.0121 11.6281 21.3374C11.8659 21.5497 12.2275 21.6036 12.5237 21.4236L13.3301 20.9333L13.8122 21.8125L13.0429 22.2801C12.746 22.4606 12.6253 22.8089 12.702 23.1199C12.7689 23.3916 12.8045 23.6763 12.8045 23.97C12.8045 24.2601 12.7698 24.5413 12.7045 24.8099C12.629 25.1203 12.7498 25.4674 13.046 25.6475L13.8359 26.1277L13.3537 27.0068L12.5332 26.5079C12.2362 26.3274 11.8736 26.382 11.6358 26.5956C11.2699 26.9244 10.8353 27.1764 10.357 27.3273C10.0543 27.4228 9.82184 27.7063 9.82184 28.0545V28.995H8.82371V28.0617C8.82371 27.7118 8.58903 27.4274 8.28427 27.3332C7.79835 27.183 7.35704 26.9287 6.98621 26.5955C6.74845 26.3819 6.38586 26.3272 6.08887 26.5078L5.26822 27.0067L4.78618 26.1275L5.57615 25.6473C5.87229 25.4672 5.99317 25.1202 5.91769 24.8097C5.85239 24.5411 5.81764 24.26 5.81764 23.97C5.81764 23.6763 5.85329 23.3916 5.92023 23.1199C5.99686 22.8089 5.87621 22.4606 5.57928 22.28L4.80989 21.8122L5.29217 20.9332L6.09856 21.4235C6.39477 21.6036 6.75638 21.5497 6.99419 21.3373C7.36337 21.0077 7.80183 20.7559 8.28427 20.6068C8.58903 20.5126 8.82371 20.2282 8.82371 19.8783ZM8.57417 17.94C8.16074 17.94 7.82558 18.2775 7.82558 18.6937V19.7008C7.32513 19.8774 6.86547 20.1404 6.46422 20.4718L5.5861 19.9379C5.22249 19.7168 4.74926 19.8443 4.54388 20.2187L3.82011 21.5379C3.62563 21.8924 3.74411 22.3383 4.08842 22.5476L4.91285 23.0489C4.85161 23.3466 4.81951 23.6548 4.81951 23.97C4.81951 24.2806 4.85069 24.5844 4.9102 24.8782L4.06478 25.3921C3.72051 25.6014 3.60199 26.0472 3.79635 26.4017L4.51978 27.7211C4.7251 28.0955 5.1984 28.2231 5.56207 28.002L6.45404 27.4598C6.8577 27.7951 7.32089 28.0611 7.82558 28.2392V29.2463C7.82558 29.6625 8.16074 30 8.57417 30H10.0714C10.4848 30 10.82 29.6625 10.82 29.2463V28.2308C11.3155 28.0529 11.7706 27.79 12.168 27.4599L13.0597 28.0021C13.4233 28.2232 13.8966 28.0957 14.1019 27.7213L14.8257 26.4021C15.0202 26.0476 14.9017 25.6017 14.5574 25.3924L13.7119 24.8784C13.7715 24.5845 13.8027 24.2807 13.8027 23.97C13.8027 23.6548 13.7706 23.3467 13.7094 23.0489L14.5336 22.5479C14.8778 22.3386 14.9963 21.8928 14.802 21.5383L14.0786 20.2189C13.8732 19.8444 13.3999 19.7169 13.0363 19.938L12.158 20.4719C11.763 20.1456 11.3114 19.8856 10.82 19.7092V18.6937C10.82 18.2775 10.4848 17.94 10.0714 17.94H8.57417ZM7.8139 23.97C7.8139 23.1374 8.48421 22.4625 9.31109 22.4625C10.138 22.4625 10.8083 23.1374 10.8083 23.97C10.8083 24.8026 10.138 25.4775 9.31109 25.4775C8.48421 25.4775 7.8139 24.8026 7.8139 23.97ZM9.31109 21.4575C7.93296 21.4575 6.81577 22.5824 6.81577 23.97C6.81577 25.3576 7.93296 26.4825 9.31109 26.4825C10.6892 26.4825 11.8064 25.3576 11.8064 23.97C11.8064 22.5824 10.6892 21.4575 9.31109 21.4575Z" fill="CurrentColor"/>
</svg>
