<svg xmlns="http://www.w3.org/2000/svg" viewBox="0 0 33 33"><path fill-rule="evenodd" clip-rule="evenodd" d="M8.984 6.428h5.044l.006.002a.09.09 0 0 1 .026.017.184.184 0 0 1 .053.102c.102.638.338 1.582.915 2.385.605.842 1.57 1.502 2.998 1.502 1.43 0 2.396-.66 3.002-1.502.579-.803.819-1.748.922-2.385a.184.184 0 0 1 .053-.102.089.089 0 0 1 .026-.017.014.014 0 0 1 .005-.002h5.337l-.173 19.165H8.984v-4.899c0-.937-.769-1.592-1.563-1.679-.53-.058-1.158-.206-1.636-.534-.431-.296-.778-.758-.778-1.61 0-.87.365-1.388.837-1.737.508-.377 1.165-.568 1.69-.658.753-.13 1.45-.775 1.45-1.663V6.428Zm5.044-1.6H8.985a1.6 1.6 0 0 0-1.6 1.6v6.385l-.002.006a.09.09 0 0 1-.018.025.187.187 0 0 1-.102.055c-.634.11-1.572.359-2.37.948-.833.617-1.485 1.591-1.485 3.024 0 1.41.633 2.353 1.473 2.93.794.545 1.729.735 2.367.805a.196.196 0 0 1 .115.054.097.097 0 0 1 .02.028l.002.006v4.9a1.6 1.6 0 0 0 1.6 1.6h18.214a1.6 1.6 0 0 0 1.6-1.586l.173-19.165a1.6 1.6 0 0 0-1.6-1.614h-5.337c-.893 0-1.54.704-1.663 1.463-.086.531-.272 1.194-.64 1.706-.343.475-.85.838-1.705.838-.855 0-1.359-.362-1.698-.835-.367-.511-.55-1.173-.635-1.704-.122-.762-.77-1.469-1.665-1.469Zm4.94 9.495a.8.8 0 0 0-1.545-.415l-1.656 6.182a.8.8 0 1 0 1.545.415l1.657-6.182Zm1.396-.857a.8.8 0 0 1 1.13-.05l3.2 2.934a.8.8 0 0 1 .048 1.132l-3.2 3.467a.8.8 0 1 1-1.176-1.085l2.655-2.877-2.608-2.39a.8.8 0 0 1-.049-1.131Zm-7.123-.05a.8.8 0 1 1 1.082 1.18l-2.609 2.391 2.656 2.877a.8.8 0 0 1-1.176 1.085l-3.2-3.467a.8.8 0 0 1 .047-1.132l3.2-2.933Z" fill="currentColor"/></svg>