<svg xmlns="http://www.w3.org/2000/svg" viewBox="0 0 33 28" width="40" height= "40">
<path fill-rule="evenodd" clip-rule="evenodd" d="M24.9247 16.4015C24.9755 16.1099 25.0019 15.8225 25.0019 15.5408V6.8036C25.0019 6.62132 24.9035 6.4541 24.7419 6.36528L15.1021 1.06644C14.953 0.984518 14.7728 0.984518 14.6238 1.06644L5.30068 6.36528C5.13948 6.45389 5.04075 6.62166 5.04075 6.80439V14.7591C5.04075 15.0366 4.81731 15.2616 4.54168 15.2616C4.26606 15.2616 4.04262 15.0366 4.04262 14.7591V6.80439C4.04262 6.25182 4.34264 5.74689 4.82241 5.48317L14.1455 0.184332C14.5926 -0.0614439 15.1332 -0.0614439 15.5803 0.184332L25.2202 5.48317C25.6996 5.74668 26 6.2506 26 6.8036V15.5408C26 16.9129 25.49 18.3124 24.7133 19.6194C23.9344 20.9302 22.8691 22.1791 21.7114 23.2601C20.5533 24.3415 19.2901 25.2667 18.1049 25.9245C16.9355 26.5735 15.7838 26.995 14.8629 26.995C14.228 26.995 13.4854 26.8135 12.7098 26.5091C12.453 26.4084 12.326 26.117 12.426 25.8585C12.5261 25.5999 12.8155 25.472 13.0723 25.5727C13.787 25.8532 14.3996 25.99 14.8629 25.99C15.5288 25.99 16.5002 25.6675 17.623 25.0444C18.73 24.43 19.9279 23.5548 21.0327 22.5232C22.1377 21.4913 23.1369 20.3148 23.8568 19.1034C24.1973 18.5303 24.4714 17.9562 24.6659 17.3913L18.695 14.3698C17.7254 15.6697 16.1038 16.4258 14.3795 16.2108C11.8253 15.8923 10.013 13.5636 10.3314 11.0094C10.6499 8.45528 12.9787 6.64291 15.5328 6.9614C18.087 7.27989 19.8994 9.60863 19.5809 12.1628C19.5214 12.6396 19.3919 13.0905 19.204 13.5066L24.9247 16.4015ZM15.4091 7.95371C13.403 7.70356 11.5739 9.12705 11.3238 11.1332C11.0736 13.1393 12.4971 14.9684 14.5032 15.2185C16.5093 15.4687 18.3384 14.0452 18.5885 12.039C18.8387 10.0329 17.4152 8.20387 15.4091 7.95371Z" fill="currentColor"/>
<path fill-rule="evenodd" clip-rule="evenodd" d="M5.60809 19.4575C4.22996 19.4575 3.11277 20.5824 3.11277 21.97C3.11277 23.3576 4.22996 24.4825 5.60809 24.4825C6.98622 24.4825 8.10341 23.3576 8.10341 21.97C8.10341 20.5824 6.98622 19.4575 5.60809 19.4575ZM4.1109 21.97C4.1109 21.1374 4.78121 20.4625 5.60809 20.4625C6.43497 20.4625 7.10528 21.1374 7.10528 21.97C7.10528 22.8026 6.43497 23.4775 5.60809 23.4775C4.78121 23.4775 4.1109 22.8026 4.1109 21.97Z" fill="currentColor"/>
<path fill-rule="evenodd" clip-rule="evenodd" d="M4.87117 15.94C4.45773 15.94 4.12257 16.2775 4.12257 16.6937V17.7008C3.62212 17.8774 3.16247 18.1404 2.76122 18.4718L1.8831 17.9379C1.51949 17.7168 1.04626 17.8443 0.840876 18.2187L0.11711 19.5379C-0.0773752 19.8924 0.0411071 20.3383 0.385419 20.5476L1.20985 21.0489C1.14861 21.3466 1.11651 21.6548 1.11651 21.97C1.11651 22.2806 1.14768 22.5844 1.20719 22.8782L0.361775 23.3921C0.0175109 23.6014 -0.101013 24.0472 0.0933491 24.4017L0.816775 25.7211C1.02209 26.0955 1.4954 26.2231 1.85907 26.002L2.75104 25.4598C3.15469 25.7951 3.61789 26.0611 4.12257 26.2392V27.2463C4.12257 27.6625 4.45773 28 4.87117 28H6.36836C6.7818 28 7.11696 27.6625 7.11696 27.2463V26.2308C7.61252 26.0529 8.06759 25.79 8.46496 25.4599L9.35671 26.0021C9.72032 26.2232 10.1936 26.0957 10.3989 25.7213L11.1227 24.4021C11.3172 24.0476 11.1987 23.6017 10.8544 23.3924L10.0089 22.8784C10.0685 22.5845 10.0997 22.2807 10.0997 21.97C10.0997 21.6548 10.0676 21.3467 10.0064 21.0489L10.8305 20.5479C11.1748 20.3386 11.2933 19.8928 11.099 19.5383L10.3755 18.2189C10.1702 17.8444 9.69693 17.7169 9.33326 17.938L8.45504 18.4719C8.06002 18.1456 7.6084 17.8856 7.11696 17.7092V16.6937C7.11696 16.2775 6.7818 15.94 6.36836 15.94H4.87117ZM5.1207 17.8783V16.945H6.11883V17.8855C6.11883 18.2337 6.35126 18.5172 6.65403 18.6127C7.12896 18.7626 7.56075 19.0121 7.92506 19.3374C8.16286 19.5497 8.52446 19.6036 8.82067 19.4236L9.62711 18.9333L10.1091 19.8125L9.33994 20.2801C9.043 20.4606 8.92235 20.8089 8.99897 21.1199C9.0659 21.3916 9.10154 21.6763 9.10154 21.97C9.10154 22.2601 9.06678 22.5413 9.00146 22.8099C8.92595 23.1203 9.04682 23.4674 9.34297 23.6475L10.1329 24.1277L9.65065 25.0068L8.83017 24.5079C8.53319 24.3274 8.1706 24.382 7.93284 24.5956C7.5669 24.9244 7.13235 25.1764 6.65403 25.3273C6.35126 25.4228 6.11883 25.7063 6.11883 26.0545V26.995H5.1207V26.0617C5.1207 25.7118 4.88603 25.4274 4.58127 25.3332C4.09535 25.183 3.65404 24.9287 3.28321 24.5955C3.04545 24.3819 2.68285 24.3272 2.38587 24.5078L1.56522 25.0067L1.08318 24.1275L1.87314 23.6473C2.16929 23.4672 2.29017 23.1202 2.21468 22.8097C2.14939 22.5411 2.11464 22.26 2.11464 21.97C2.11464 21.6763 2.15029 21.3916 2.21723 21.1199C2.29385 20.8089 2.17321 20.4606 1.87628 20.28L1.10689 19.8122L1.58916 18.9332L2.39556 19.4235C2.69176 19.6036 3.05338 19.5497 3.29118 19.3373C3.66036 19.0077 4.09883 18.7559 4.58127 18.6068C4.88603 18.5126 5.1207 18.2282 5.1207 17.8783Z" fill="currentColor"/>
</svg>