<svg viewBox="0 0 32 32" xmlns="http://www.w3.org/2000/svg"><path d="M7.793 26.365h18.648a1 1 0 0 0 1-.99l.168-18.798a1 1 0 0 0-1-1.01h-5.342c-.55 0-1.002.447-1.107.988-.23 1.189-.936 3.026-3.097 3.026-2.16 0-2.86-1.834-3.086-3.022-.104-.543-.557-.992-1.109-.992H7.793a1 1 0 0 0-1 1v6c0 .547-.442.998-.98 1.109-1.175.242-2.993.97-2.993 3.152 0 2.132 1.734 2.746 2.911 2.917.571.083 1.062.547 1.062 1.124v4.496a1 1 0 0 0 1 1Z" stroke="#4F5162" stroke-linejoin="round"/><path d="M12.664 15.268a.5.5 0 0 0-.707.707l.707-.707Zm3.143 3.85-.354.353.354.353.353-.353-.354-.354Zm8.122-7.416a.5.5 0 0 0-.707-.707l.707.707Zm-11.972 4.273 3.496 3.496.707-.707-3.496-3.496-.707.707Zm4.203 3.496 7.769-7.77-.707-.706-7.77 7.769.708.707Z" fill="currentColor"/></svg>