<svg viewBox="0 0 42 42" xmlns="http://www.w3.org/2000/svg"><path fill-rule="evenodd" clip-rule="evenodd" d="M9.578 6.098c-.572 0-1.035.477-1.035 1.066v21.564c0 .397.214.761.555.945l11.38 6.12c.3.161.659.161.96 0l11.38-6.12a1.07 1.07 0 0 0 .555-.945v-10.37c0-.588.464-1.065 1.035-1.065.572 0 1.035.477 1.035 1.066v10.37c0 1.19-.642 2.282-1.667 2.833l-11.38 6.12c-.901.484-1.975.484-2.876 0l-11.38-6.12c-1.025-.551-1.668-1.643-1.668-2.834V7.164c0-1.766 1.39-3.197 3.106-3.197h14.146c.571 0 1.035.477 1.035 1.066 0 .588-.464 1.065-1.035 1.065H9.578Z" fill="currentColor"/><path fill-rule="evenodd" clip-rule="evenodd" d="M24.447 14.01a2.552 2.552 0 1 0-5.104.001 2.552 2.552 0 0 0 5.104 0Zm-2.552-4.593a4.594 4.594 0 1 1 0 9.187 4.594 4.594 0 0 1 0-9.187Z" fill="currentColor"/><path fill-rule="evenodd" clip-rule="evenodd" d="M22.562 31.041a1.02 1.02 0 0 1-.732.313h-3.512c-.572 0-1.035-.478-1.035-1.066 0-.589.463-1.066 1.035-1.066h2.477v-2.035h-2.261c-.572 0-1.036-.477-1.036-1.065 0-.589.464-1.066 1.036-1.066h2.26v-7.104c0-.589.464-1.066 1.036-1.066.572 0 1.036.477 1.036 1.066v12.336c0 .282-.11.554-.304.753Z" fill="currentColor"/></svg>