<svg fill="currentColor" xmlns="http://www.w3.org/2000/svg" viewBox="0 0 24 24"><path d="M3 5H1v16c0 1.1.9 2 2 2h16v-2H3V5Zm18-4H7c-1.1 0-2 .9-2 2v14c0 1.1.9 2 2 2h14c1.1 0 2-.9 2-2V3c0-1.1-.9-2-2-2Zm0 16H7V3h14v14Z" fill="gray"/><path d="m13.62 4.864-2.813 10.448H9.669L12.48 4.864h1.138Zm.64 9.217a.827.827 0 0 1-.6-.247.825.825 0 0 1-.252-.605c0-.233.084-.432.252-.597a.82.82 0 0 1 .6-.251.82.82 0 0 1 .601.251.806.806 0 0 1 .252.597c0 .156-.04.3-.12.43a.881.881 0 0 1-.306.307.812.812 0 0 1-.426.115Zm2.599 0a.827.827 0 0 1-.6-.247.825.825 0 0 1-.252-.605c0-.233.083-.432.251-.597a.82.82 0 0 1 .6-.251.82.82 0 0 1 .602.251.806.806 0 0 1 .251.597c0 .156-.04.3-.12.43a.882.882 0 0 1-.306.307.813.813 0 0 1-.426.115Z" fill="#0092E4"/></svg>