<svg xmlns="http://www.w3.org/2000/svg" fill="none" viewBox="0 0 48 48"><rect width="48" height="48" rx="2.008"/><circle cx="24.094" cy="24.094" r="15.953" stroke="#4D0B8F" stroke-opacity=".4" stroke-width="6.243"/><path fill="#4D0B8F" d="m22.54 5.02-.03.35s1.499-.134 2.412-.078c.336.021.733.066 1.104.116l-.022.379a18.478 18.478 0 0 0-1.222-.076l-.039-.208s-1.527-.022-2.489.045c-.958.065-2.423.292-2.423.292l.11.371c-1.418.341-2.771.847-4.039 1.497l-.18-.32c1.14-.564 2.324-1.073 2.324-1.073L17.974 6c1.45-.505 2.98-.84 4.566-.98ZM12.237 9.537c-.46.33-.776.566-.776.566l-.067-.18a19.24 19.24 0 0 0-1.875 1.969l1.016-.022c.288-.325.588-.64.899-.943l-.177-.233s.697-.542 1.188-.869l-.208-.288ZM27.532 5.469c-.073-.01-.152-.018-.233-.027l.051-.245c1.2.197 2.362.506 3.476.917l-.21.73a18.166 18.166 0 0 0-1.692-.536l.1-.58s-.905-.185-1.492-.26ZM42.583 24.092c0-.298-.007-.595-.021-.89l.738-.352a19.145 19.145 0 0 1-8.949 17.49l-.474-.598a18.459 18.459 0 0 0 6.34-6.61l.571.127s1.08-2.21 1.471-3.633c.39-1.419.756-3.729.756-3.729l-.516-.034a18.64 18.64 0 0 0 .084-1.77ZM41.994 17.02l-.658.394a18.313 18.313 0 0 0-.876-1.917l.352-.93c.45.784.845 1.604 1.182 2.453ZM10.9 37.795a19.164 19.164 0 0 0 4.313 3.175l.355-.669a18.434 18.434 0 0 1-5.524-4.561 73.19 73.19 0 0 1 1.076 1.803l-.22.252ZM5.5 27.814a19.153 19.153 0 0 1-.223-1.42l.728-.292c.054.497.128.988.22 1.473l-.724.24ZM5.963 29.67l.706-.282c.228.76.503 1.5.823 2.217l-.658.383a19.035 19.035 0 0 1-.87-2.318ZM5.19 22.69a19.091 19.091 0 0 1 1.195-5.413l.842-.073c-.149.37-.286.745-.411 1.125l-.474-.057s-.414 1.054-.618 1.736c-.203.68-.423 1.746-.423 1.746l.74.017a18.53 18.53 0 0 0-.073.687l-.777.233Z"/><path fill="#00C8FF" d="M25.911 7.44a16.538 16.538 0 0 0-4.185.107l-.267-.725a17.29 17.29 0 0 1 4.528-.136c2.39.242 4.617.96 6.596 2.051l-.356.67a16.456 16.456 0 0 0-6.316-1.967ZM13.455 10.39a17.359 17.359 0 0 1 2.29-1.552l.34.678c-.694.396-1.359.841-1.987 1.332l-.643-.457ZM27.961 39.957c-1.714.395-3.522.521-5.37.334a16.508 16.508 0 0 1-4.79-1.223l-.136.764c1.512.623 3.14 1.04 4.85 1.213a17.24 17.24 0 0 0 5.808-.395 69.163 69.163 0 0 1-.362-.693ZM14.566 38.165l.32-.7c-.461-.318-.905-.659-1.33-1.02l-.767.336c.56.498 1.154.96 1.777 1.384ZM30.238 39.255c.119.217.246.441.376.666a17.324 17.324 0 0 0 4.756-2.845l-.512-.559a16.563 16.563 0 0 1-4.62 2.738ZM39.896 29.148l.73.21c.399-1.194.672-2.45.805-3.756a17.198 17.198 0 0 0-2.91-11.458l-.606.456a16.442 16.442 0 0 1 2.762 10.926 16.568 16.568 0 0 1-.78 3.622ZM7.084 25.755l.742-.195c.083.81.225 1.605.422 2.38l-.728.212c-.2-.781-.347-1.582-.436-2.398ZM7.3 20.575l.769.017c.091-.456.202-.905.33-1.345l-.679-.38a17.254 17.254 0 0 0-.42 1.708ZM35.441 10.714c1.02.869 1.935 1.853 2.726 2.93l-.617.44a16.599 16.599 0 0 0-2.563-2.762l.454-.608Z"/><path fill="#4D0B8F" d="M25.911 7.44a16.538 16.538 0 0 0-4.185.107l-.267-.725a17.29 17.29 0 0 1 4.528-.136c2.39.242 4.617.96 6.596 2.051l-.356.67a16.456 16.456 0 0 0-6.316-1.967ZM13.455 10.39a17.359 17.359 0 0 1 2.29-1.552l.34.678c-.694.396-1.359.841-1.987 1.332l-.643-.457ZM27.961 39.957c-1.714.395-3.522.521-5.37.334a16.508 16.508 0 0 1-4.79-1.223l-.136.764c1.512.623 3.14 1.04 4.85 1.213a17.24 17.24 0 0 0 5.808-.395 69.163 69.163 0 0 1-.362-.693ZM14.566 38.165l.32-.7c-.461-.318-.905-.659-1.33-1.02l-.767.336c.56.498 1.154.96 1.777 1.384ZM30.238 39.255c.119.217.246.441.376.666a17.324 17.324 0 0 0 4.756-2.845l-.512-.559a16.563 16.563 0 0 1-4.62 2.738ZM39.896 29.148l.73.21c.399-1.194.672-2.45.805-3.756a17.198 17.198 0 0 0-2.91-11.458l-.606.456a16.442 16.442 0 0 1 2.762 10.926 16.568 16.568 0 0 1-.78 3.622ZM7.084 25.755l.742-.195c.083.81.225 1.605.422 2.38l-.728.212c-.2-.781-.347-1.582-.436-2.398ZM7.3 20.575l.769.017c.091-.456.202-.905.33-1.345l-.679-.38a17.254 17.254 0 0 0-.42 1.708ZM35.441 10.714c1.02.869 1.935 1.853 2.726 2.93l-.617.44a16.599 16.599 0 0 0-2.563-2.762l.454-.608ZM38.587 23.937c0 7.91-6.412 14.321-14.322 14.321-5.018 0-9.433-2.58-11.99-6.486l-.272.237c2.626 3.98 7.137 6.607 12.262 6.607 8.107 0 14.679-6.572 14.679-14.679 0-1.9-.361-3.716-1.019-5.383l-.177.125s-.145-.405-.268-.645c-.12-.236-.188-.348-.188-.348l.185-.152c-2.378-4.899-7.4-8.276-13.212-8.276-8.107 0-14.679 6.572-14.679 14.679 0 2.15.463 4.191 1.293 6.031l.308-.185a14.27 14.27 0 0 1-1.243-5.846c0-7.91 6.412-14.321 14.321-14.321 7.91 0 14.322 6.412 14.322 14.321Z"/><path fill="#4D0B8F" d="M11.68 31.495a14.634 14.634 0 0 1-.436-.776l.287-.223c.133.258.273.51.42.758l-.272.241Z"/></svg>