<svg fill="none" viewBox="0 0 33 33" xmlns="http://www.w3.org/2000/svg"><path clip-rule="evenodd" d="m8.98358 6.42822 5.04492-.00011s.0022 0 .0059.00153c.0046.0019.0138.00678.0254.01758.0254.02372.0468.06141.0533.10223.1017.63723.3384 1.58187.9153 2.38501.6044.84147 1.5691 1.50134 2.9976 1.50134 1.4294 0 2.3956-.66059 3.0019-1.50168.5791-.80321.8186-1.74795.9222-2.38485.0067-.04093.0281-.07845.0534-.10194.0115-.01069.0205-.01549.025-.01735.0036-.00148.0058-.00147.0058-.00147l5.3365.00028-.1724 19.16451h-18.21488v-4.8991c0-.9367-.76803-1.5926-1.56292-1.6791-.52909-.0576-1.15803-.2061-1.63535-.5336-.4313-.2959-.77804-.7587-.77804-1.6104 0-.8708.36477-1.3883.83671-1.7374.50853-.3762 1.16537-.5672 1.6906-.6581.75244-.1301 1.449-.7747 1.449-1.6628zm5.04492-1.6001-5.04494.00011c-.88356.00001-1.60003.71627-1.60003 1.59999v6.38468s.00001.0021-.00154.0059c-.00191.0046-.00678.0139-.01755.0256-.02363.0256-.06137.0475-.10257.0546-.63355.1096-1.5722.3586-2.36945.9484-.83386.6168-1.48519 1.591-1.48519 3.0237 0 1.4099.63266 2.3532 1.47275 2.9297.79408.5449 1.72853.7353 2.3674.8049.04427.0048.08685.0266.11421.0543.01243.0125.01805.0227.02022.0277.00172.0039.00172.0065.00172.0065v4.8991c0 .8836.71634 1.5999 1.59999 1.5999h18.21488c.878 0 1.592-.7075 1.5999-1.5855l.1724-19.16451c.0081-.88939-.7109-1.61438-1.6-1.6144l-5.3363-.00027c-.8935-.00005-1.54.70453-1.6635 1.46378-.0864.53106-.2715 1.19384-.6408 1.70614-.3421.47444-.8482.83737-1.7041.83737-.8551 0-1.3586-.36211-1.6981-.83476-.367-.51097-.55-1.17257-.6348-1.70387-.1217-.76174-.7693-1.46906-1.6646-1.46906zm4.9403 9.49458c.1143-.4268-.1389-.8654-.5657-.9798-.4268-.1143-.8654.1389-.9798.5657l-1.6564 6.1819c-.1144.4267.1389.8654.5657.9798.4267.1143.8654-.1389.9798-.5657zm1.3953-.8567c.2985-.3257.8046-.3477 1.1303-.0492l3.2 2.9333c.1567.1437.2498.3439.2587.5564.0088.2125-.0672.4197-.2115.576l-3.2 3.4666c-.2996.3247-.8058.3449-1.1304.0452-.3247-.2997-.3449-.8058-.0452-1.1304l2.6554-2.8768-2.6082-2.3908c-.3257-.2986-.3477-.8046-.0491-1.1303zm-7.1226-.0492c.3257-.2985.8317-.2765 1.1303.0492.2985.3257.2765.8317-.0492 1.1303l-2.6082 2.3908 2.6555 2.8768c.2997.3246.2794.8307-.0452 1.1304-.3247.2997-.8308.2795-1.1305-.0452l-3.19998-3.4666c-.14424-.1563-.22033-.3635-.21146-.576s.10197-.4127.25874-.5564z" fill="#0278d5" fill-rule="evenodd"/></svg>