<svg fill="none" viewBox="0 0 32 32" xmlns="http://www.w3.org/2000/svg" xmlns:xlink="http://www.w3.org/1999/xlink"><linearGradient id="a" gradientUnits="userSpaceOnUse" x1="7.5" x2="20.9259" y1="3" y2="28.9868"><stop offset="0" stop-color="#bea1ff"/><stop offset="1" stop-color="#8a36ff"/></linearGradient><g clip-rule="evenodd" fill-rule="evenodd"><path d="m25.9325 24.357c-2.3846 2.821-5.9494 4.6124-9.9325 4.6124-3.9832 0-7.54801-1.7915-9.93267-4.6126l6.02517-3.8342c1.0498.9018 2.415 1.4468 3.9075 1.4468 1.4924 0 2.8576-.5449 3.9074-1.4466zm1.0666-1.4548-5.9065-3.7587c.5751-.9207.9074-2.0086.9074-3.1741 0-3.008-2.2134-5.499-5.1004-5.933v-7.0364c6.7601.46205 12.1004 6.09205 12.1004 12.9694 0 2.5487-.7335 4.9262-2.0009 6.9328zm-11.8995-19.90215c-6.75966.46243-12.0996 6.09226-12.0996 12.96935 0 2.5487.73344 4.926 2.00078 6.9326l5.90652-3.7587c-.575-.9207-.9073-2.0085-.9073-3.1739 0-3.0077 2.213-5.4985 5.0996-5.9329z" fill="url(#a)"/><path d="m19.558 13.2859c.3391.3634.3195.9329-.0439 1.2721l-4.2857 4c-.3458.3227-.8824.3227-1.2282 0l-1.7143-1.6c-.3634-.3392-.383-.9087-.0438-1.2721.3391-.3634.9086-.383 1.272-.0438l1.1002 1.0268 3.6716-3.4268c.3634-.3392.9329-.3196 1.2721.0438z" fill="#ae82fc"/></g></svg>