<svg fill="none" viewBox="0 0 32 32" xmlns="http://www.w3.org/2000/svg"><g clip-rule="evenodd" fill="#da291d" fill-rule="evenodd"><path d="m16.878 4.506a1 1 0 0 0 -1.737 0l-11.988 20.999a1 1 0 0 0 .869 1.495h23.974a1 1 0 0 0 .869-1.495zm.603 17.973c0-.823-.684-1.49-1.527-1.49s-1.527.667-1.527 1.49c0 .822.684 1.49 1.527 1.49s1.527-.668 1.527-1.49zm-1.527-3.486a1 1 0 0 0 1-1v-6.997a1 1 0 0 0 -2 0v6.997a1 1 0 0 0 1 1z"/><path d="m4.022 26 11.987-20.998 11.987 20.998zm11.832-6.01a2 2 0 0 1 -1.9-1.997v-6.997a2 2 0 1 1 4 0v6.997a2 2 0 0 1 -1.9 1.998c1.328.052 2.427 1.124 2.427 2.488 0 1.398-1.155 2.49-2.527 2.49s-2.527-1.092-2.527-2.49c0-1.364 1.099-2.436 2.427-2.488zm-.714-15.483a1 1 0 0 1 1.737 0l11.987 20.999a1 1 0 0 1 -.868 1.494h-23.974a1 1 0 0 1 -.869-1.495l11.988-20.999zm.813 16.483c.843 0 1.527.667 1.527 1.49 0 .822-.684 1.49-1.527 1.49s-1.527-.668-1.527-1.49c0-.823.684-1.49 1.527-1.49zm1-2.996a1 1 0 0 1 -2 0v-6.997a1 1 0 1 1 2 0z"/></g></svg>