<svg viewBox="0 0 32 32" fill="none" xmlns="http://www.w3.org/2000/svg"><path fill-rule="evenodd" clip-rule="evenodd" d="M16.878 4.506a1 1 0 0 0-1.737 0L3.153 25.505A1 1 0 0 0 4.022 27h23.974a1 1 0 0 0 .869-1.495L16.878 4.506Zm.603 17.973c0-.823-.684-1.49-1.527-1.49-.843 0-1.527.667-1.527 1.49 0 .822.684 1.49 1.527 1.49.843 0 1.527-.668 1.527-1.49Zm-1.527-3.486a1 1 0 0 0 1-1v-6.997a1 1 0 0 0-2 0v6.997a1 1 0 0 0 1 1Z" fill="#DA291D"/><path fill-rule="evenodd" clip-rule="evenodd" d="M4.022 26 16.009 5.002 27.996 26H4.022Zm11.832-6.01a2 2 0 0 1-1.9-1.997v-6.997a2 2 0 1 1 4 0v6.997a2 2 0 0 1-1.9 1.998c1.328.052 2.427 1.124 2.427 2.488 0 1.398-1.155 2.49-2.527 2.49s-2.527-1.092-2.527-2.49c0-1.364 1.099-2.436 2.427-2.488ZM15.14 4.507a1 1 0 0 1 1.737 0l11.987 20.999A1 1 0 0 1 27.996 27H4.022a1 1 0 0 1-.869-1.495L15.141 4.506Zm.813 16.483c.843 0 1.527.667 1.527 1.49 0 .822-.684 1.49-1.527 1.49-.843 0-1.527-.668-1.527-1.49 0-.823.684-1.49 1.527-1.49Zm1-2.996a1 1 0 0 1-2 0v-6.997a1 1 0 1 1 2 0v6.997Z" fill="#DA291D"/></svg>