<svg xmlns="http://www.w3.org/2000/svg" viewBox="0 0 40 40" fill="none" xmlns:v="https://vecta.io/nano"><g clip-path="url(#B)"><path d="M10.625 29.375l-5.417-5.417c-.642-.66-1.042-1.59-1.042-2.5 0-.421.237-1.079.417-1.458l5-10.417 1.042 19.792z" fill="#01579b"/><g fill="#40c4ff"><path d="M29.167 10.625L23.75 5.208c-.473-.475-1.458-1.042-2.292-1.042-.717 0-1.419.144-1.875.417l-10 5 19.583 1.042zM17.083 35.833h13.125v-5.625l-9.792-3.125-8.958 3.125 5.625 5.625z"/></g><path d="M9.583 26.458c0 1.671.21 2.081 1.042 2.917l.833.833h18.75l-9.167-10.417L9.583 9.583v16.875z" fill="#29b6f6"/><path d="M26.25 9.583H9.583l20.625 20.625h5.625V17.292l-6.667-6.667c-.935-.94-1.769-1.042-2.917-1.042z" fill="#01579b"/><path opacity=".2" d="M10.833 29.583c-.833-.838-1.042-1.66-1.042-3.125V9.792l-.208-.208v16.875c0 1.465 0 1.871 1.25 3.125z" fill="#fff"/><path opacity=".2" d="M35.625 17.083V30H30l.208.208h5.625V17.292l-.208-.208z" fill="#263238"/><path opacity=".2" d="M29.167 10.625c-1.033-1.033-1.879-1.042-3.125-1.042H9.583l.208.208h16.25c.623 0 2.192-.104 3.125.833z" fill="#fff"/><path opacity=".2" d="M35.625 17.083l-6.458-6.458-5.417-5.417c-.473-.475-1.458-1.042-2.292-1.042-.717 0-1.419.144-1.875.417l-10 5-5 10.417c-.179.379-.417 1.038-.417 1.458 0 .91.4 1.839 1.042 2.5l4.992 4.956c.119.146.26.296.425.46l.208.208.625.625 5.417 5.417.208.208H30h.208v-5.625h5.625v-.015-12.902l-.208-.208z" fill="url(#A)"/></g><defs><radialGradient id="A" cx="0" cy="0" r="1" gradientUnits="userSpaceOnUse" gradientTransform="translate(20 20) scale(15.8333)"><stop stop-color="#fff" stop-opacity=".1"/><stop offset="1" stop-color="#fff" stop-opacity="0"/></radialGradient><clipPath id="B"><path fill="#fff" d="M0 0h40v40H0z"/></clipPath></defs></svg>