<svg viewBox="0 0 33 33" fill="currentColor" xmlns="http://www.w3.org/2000/svg"><mask id="a" maskUnits="userSpaceOnUse" x="4.642" y="4.708" width="24" height="24" fill="#000"><path fill="#fff" d="M4.642 4.708h24v24h-24z"/><path fill-rule="evenodd" clip-rule="evenodd" d="M6.142 5.708a.5.5 0 0 0-.5.5v9.333a.5.5 0 0 0 .5.5h6.666a.5.5 0 0 0 .5-.5V6.208a.5.5 0 0 0-.5-.5H6.142Zm.5 9.333V6.708h5.666v8.333H6.642Zm-.5 4a.5.5 0 0 0-.5.5v8a.5.5 0 0 0 .5.5h12a.5.5 0 0 0 .5-.5v-8a.5.5 0 0 0-.5-.5h-12Zm.5 8v-7h11v7h-11Zm9.666-20.833a.5.5 0 0 1 .5-.5h10.667a.5.5 0 0 1 .5.5v9.333a.5.5 0 0 1-.5.5H16.808a.5.5 0 0 1-.5-.5V6.208Zm1 .5v8.333h9.667V6.708h-9.667Zm4.834 12.333a.5.5 0 0 0-.5.5v8a.5.5 0 0 0 .5.5h5.333a.5.5 0 0 0 .5-.5v-8a.5.5 0 0 0-.5-.5h-5.333Zm.5 8v-7h4.333v7h-4.333Z"/></mask><path fill-rule="evenodd" clip-rule="evenodd" d="M6.142 5.708a.5.5 0 0 0-.5.5v9.333a.5.5 0 0 0 .5.5h6.666a.5.5 0 0 0 .5-.5V6.208a.5.5 0 0 0-.5-.5H6.142Zm.5 9.333V6.708h5.666v8.333H6.642Zm-.5 4a.5.5 0 0 0-.5.5v8a.5.5 0 0 0 .5.5h12a.5.5 0 0 0 .5-.5v-8a.5.5 0 0 0-.5-.5h-12Zm.5 8v-7h11v7h-11Zm9.666-20.833a.5.5 0 0 1 .5-.5h10.667a.5.5 0 0 1 .5.5v9.333a.5.5 0 0 1-.5.5H16.808a.5.5 0 0 1-.5-.5V6.208Zm1 .5v8.333h9.667V6.708h-9.667Zm4.834 12.333a.5.5 0 0 0-.5.5v8a.5.5 0 0 0 .5.5h5.333a.5.5 0 0 0 .5-.5v-8a.5.5 0 0 0-.5-.5h-5.333Zm.5 8v-7h4.333v7h-4.333Z" fill="currentColor"/><path d="M6.642 6.708v-.5a.5.5 0 0 0-.5.5h.5Zm0 8.333h-.5a.5.5 0 0 0 .5.5v-.5Zm5.666-8.333h.5a.5.5 0 0 0-.5-.5v.5Zm0 8.333v.5a.5.5 0 0 0 .5-.5h-.5Zm-5.666 5v-.5a.5.5 0 0 0-.5.5h.5Zm0 7h-.5a.5.5 0 0 0 .5.5v-.5Zm11-7h.5a.5.5 0 0 0-.5-.5v.5Zm0 7v.5a.5.5 0 0 0 .5-.5h-.5Zm-.334-12h-.5a.5.5 0 0 0 .5.5v-.5Zm0-8.333v-.5a.5.5 0 0 0-.5.5h.5Zm9.667 8.333v.5a.5.5 0 0 0 .5-.5h-.5Zm0-8.333h.5a.5.5 0 0 0-.5-.5v.5Zm-5.187 12.48-.354-.354.354.354Zm.854.853v-.5a.5.5 0 0 0-.5.5h.5Zm0 7h-.5a.5.5 0 0 0 .5.5v-.5Zm4.333-7h.5a.5.5 0 0 0-.5-.5v.5Zm0 7v.5a.5.5 0 0 0 .5-.5h-.5ZM6.142 6.208v-1a1 1 0 0 0-1 1h1Zm0 9.333V6.208h-1v9.333h1Zm0 0h-1a1 1 0 0 0 1 1v-1Zm6.666 0H6.142v1h6.666v-1Zm0 0v1a1 1 0 0 0 1-1h-1Zm0-9.333v9.333h1V6.208h-1Zm0 0h1a1 1 0 0 0-1-1v1Zm-6.666 0h6.666v-1H6.142v1Zm0 .5v8.333h1V6.708h-1Zm6.166-.5H6.642v1h5.666v-1Zm.5 8.833V6.708h-1v8.333h1Zm-6.166.5h5.666v-1H6.642v1Zm-.5 4v-1a1 1 0 0 0-1 1h1Zm0 8v-8h-1v8h1Zm0 0h-1a1 1 0 0 0 1 1v-1Zm12 0h-12v1h12v-1Zm0 0v1a1 1 0 0 0 1-1h-1Zm0-8v8h1v-8h-1Zm0 0h1a1 1 0 0 0-1-1v1Zm-12 0h12v-1h-12v1Zm0 .5v7h1v-7h-1Zm11.5-.5h-11v1h11v-1Zm.5 7.5v-7h-1v7h1Zm-11.5.5h11v-1h-11v1ZM16.808 5.208a1 1 0 0 0-1 1h1v-1Zm10.667 0H16.808v1h10.667v-1Zm1 1a1 1 0 0 0-1-1v1h1Zm0 9.333V6.208h-1v9.333h1Zm-1 1a1 1 0 0 0 1-1h-1v1Zm-10.667 0h10.667v-1H16.808v1Zm-1-1a1 1 0 0 0 1 1v-1h-1Zm0-9.333v9.333h1V6.208h-1Zm2 8.833V6.708h-1v8.333h1Zm9.167-.5h-9.667v1h9.667v-1Zm-.5-7.833v8.333h1V6.708h-1Zm-9.167.5h9.667v-1h-9.667v1Zm4.834 12.333v-1a1 1 0 0 0-.707.293l.707.707Zm0 0-.707-.707a1 1 0 0 0-.293.707h1Zm0 8v-8h-1v8h1Zm0 0h-1a1 1 0 0 0 1 1v-1Zm5.333 0h-5.333v1h5.333v-1Zm0 0v1a1 1 0 0 0 1-1h-1Zm0-8v8h1v-8h-1Zm0 0h1a1 1 0 0 0-1-1v1Zm-5.333 0h5.333v-1h-5.333v1Zm0 .5v7h1v-7h-1Zm4.833-.5h-4.333v1h4.333v-1Zm.5 7.5v-7h-1v7h1Zm-4.833.5h4.333v-1h-4.333v1Z" fill="CurrentColor" mask="url(#a)"/></svg>