<svg xmlns="http://www.w3.org/2000/svg" viewBox="0 0 32 32" fill="none">
  <path fill="currentColor" d="M25.846 5.757a3.053 3.053 0 0 0-3.041 3.041c0 .257.042.471.085.685l-2.87 1.885c-.899-1.028-2.184-1.713-3.683-1.713a4.758 4.758 0 0 0-2.955 1.028L8.671 7.427c.3-1.242-.343-2.612-1.542-3.169-1.414-.642-3.084-.043-3.726 1.328C2.76 6.956 3.36 8.67 4.73 9.312A2.795 2.795 0 0 0 7 9.355l4.84 3.383a4.527 4.527 0 0 0-.342 1.714c0 .342.042.642.085.985l-2.955 1.07a3.143 3.143 0 0 0-1.542-.942c-1.67-.47-3.426.514-3.898 2.227-.47 1.67.514 3.427 2.228 3.898 1.67.471 3.426-.514 3.897-2.227.043-.172.086-.343.086-.514l3.383-1.2c.9.943 2.142 1.542 3.512 1.542h.386l.471 2.399a3.504 3.504 0 0 0-1.285 3.084c.171 1.97 1.928 3.383 3.898 3.212 1.97-.171 3.383-1.927 3.212-3.898a3.572 3.572 0 0 0-3.298-3.212l-.514-2.527a4.844 4.844 0 0 0 2.013-3.897c0-.257-.043-.514-.043-.729l3.384-2.227c.428.214.9.343 1.37.343 1.67 0 3.041-1.37 3.041-3.041-.042-1.67-1.413-3.04-3.083-3.04Zm-9.509 11.821a3.07 3.07 0 0 1-3.083-3.084 3.07 3.07 0 0 1 3.083-3.083 3.07 3.07 0 0 1 3.084 3.083c0 1.67-1.37 3.084-3.084 3.084Z"/>
  <path fill="currentColor" d="M16.38 15.865a1.37 1.37 0 1 0 0-2.741 1.37 1.37 0 0 0 0 2.741Z"/>
</svg>
