<svg viewBox="0 0 32 33" fill="currentcolor" xmlns="http://www.w3.org/2000/svg">
<path fill-rule="evenodd" clip-rule="evenodd" d="M1.01034 4.53288C1.00772 4.52028 1.00568 4.50929 1.00411 4.5C1.00568 4.49071 1.00772 4.47972 1.01034 4.46712C1.02604 4.39152 1.0632 4.25553 1.14981 4.0769C1.31972 3.72648 1.70064 3.16934 2.56653 2.57404C4.32329 1.36627 8.08354 0 16 0C23.9165 0 27.6767 1.36627 29.4335 2.57404C30.2994 3.16934 30.6803 3.72648 30.8502 4.0769C30.9368 4.25553 30.974 4.39152 30.9897 4.46712C30.9923 4.47972 30.9943 4.49071 30.9959 4.5C30.9943 4.50929 30.9923 4.52028 30.9897 4.53288C30.974 4.60848 30.9368 4.74447 30.8502 4.9231C30.6803 5.27352 30.2994 5.83066 29.4335 6.42596C27.6767 7.63373 23.9165 9 16 9C8.08354 9 4.32329 7.63373 2.56653 6.42596C1.70064 5.83066 1.31972 5.27352 1.14981 4.9231C1.0632 4.74447 1.02604 4.60848 1.01034 4.53288ZM0.0773768 6.88288C0.0263703 7.24794 0 7.62089 0 8V15.8677C0.0145929 15.9101 0.0385247 15.9724 0.0757999 16.0512C0.172857 16.2563 0.363897 16.5811 0.726669 16.9649C1.39273 17.6694 2.67676 18.6129 5.11654 19.3518C5.34964 18.4508 5.81871 17.6247 6.49192 16.9483C7.48161 15.9534 8.79036 15.4049 10.181 15.3993C11.5719 15.3936 12.8762 15.9315 13.8579 16.9183L19.8195 22.9086C21.0872 24.1394 23.1233 24.1176 24.3838 22.8508C25.6535 21.5744 25.6619 19.5104 24.4024 18.2443C23.1389 16.9751 21.0733 16.9828 19.7985 18.2628L19.1149 18.9082C19.0075 19.0096 18.839 19.007 18.7349 18.9023L17.7334 17.8958C17.6253 17.7872 17.6281 17.6109 17.7394 17.5057L18.4231 16.8599C19.4128 15.8651 20.7215 15.3166 22.1124 15.3109C23.503 15.3053 24.8073 15.8432 25.789 16.83C26.5317 17.5763 27.0205 18.5098 27.2122 19.528C29.1916 18.798 30.3825 17.8661 31.0823 17.1183C31.4902 16.6824 31.7395 16.3003 31.8825 16.0415C31.9351 15.9463 31.9734 15.8677 32 15.809V8C32 7.62089 31.9736 7.24794 31.9226 6.88288C31.5831 7.27456 31.1409 7.67919 30.5665 8.07404C28.3233 9.61627 24.0835 11 16 11C7.91646 11 3.67672 9.61627 1.43347 8.07404C0.859145 7.67919 0.416899 7.27455 0.0773768 6.88288ZM0 19.1265V24.1147V26.6147V28.1147C0.339522 28.5064 0.85916 28.9111 1.43349 29.3059C3.67673 30.8481 7.91647 32.2319 16 32.2319C24.0836 32.2319 28.3233 30.8481 30.5665 29.3059C30.6468 29.2507 30.726 29.1969 30.8038 29.144C31.2826 28.8183 31.7079 28.529 32 28.1921V27.1147V24.1147V19.1327C30.9641 20.0706 29.4286 21.0506 27.1817 21.7673C26.9686 22.7451 26.4813 23.643 25.7592 24.3686C24.7695 25.3634 23.4607 25.9119 22.0701 25.9176C20.6792 25.9232 19.3749 25.3853 18.3932 24.3985L12.4322 18.4076C11.1646 17.1768 9.12782 17.1993 7.8673 18.4661C6.59762 19.7424 6.58925 21.8064 7.84868 23.0725C9.11221 24.3418 11.1778 24.334 12.4526 23.054L13.2511 22.2271C13.3571 22.1174 13.5325 22.1161 13.6401 22.2242L14.6415 23.2307C14.7461 23.3358 14.7474 23.5053 14.6443 23.612L13.828 24.4569C12.8383 25.4517 11.5296 26.0003 10.1387 26.0059C8.74806 26.0115 7.44376 25.4737 6.46207 24.4868C5.65293 23.6738 5.14523 22.6385 4.99464 21.5136C2.6306 20.8556 1.05176 19.9855 0 19.1265Z" fill="url(#paint0_linear_1005_78650)"/>
<defs>
<linearGradient id="paint0_linear_1005_78650" x1="8" y1="2.15913" x2="24.1739" y2="29.9716" gradientUnits="userSpaceOnUse">
<stop stop-color="#62F91F"/>
<stop offset="1" stop-color="#45BD35"/>
</linearGradient>
</defs>
</svg>
