<svg viewBox="0 0 32 32" fill="none" xmlns="http://www.w3.org/2000/svg">
<path fill-rule="evenodd" clip-rule="evenodd" d="M26.4266 7.06093C28.0306 7.96913 29.0157 9.67589 28.9998 11.5191L28.9228 20.4537C28.9073 22.2506 27.9423 23.9053 26.386 24.8036L18.384 29.4223C16.8277 30.3206 14.9123 30.3285 13.3485 29.4431L5.57342 25.0407C3.96944 24.1325 2.9843 22.4258 3.00019 20.5826L3.07721 11.6479C3.0927 9.85102 4.05766 8.19639 5.61399 7.29808L13.616 2.67935C15.1723 1.78104 17.0877 1.77312 18.6515 2.65852L26.4266 7.06093ZM23.5976 13.9981C23.177 15.5837 21.5683 16.5356 19.9957 16.139L12.507 14.1131C11.2737 13.7792 9.98993 13.9503 8.8868 14.5931C7.78385 15.2359 6.99519 16.2726 6.66502 17.5177C6.33451 18.7631 6.50365 20.0631 7.1438 21.1823C7.78395 22.3015 8.81491 23.0994 10.0486 23.4331C11.282 23.7671 12.5657 23.596 13.6687 22.9533C14.7718 22.3104 15.5605 21.2737 15.8906 20.0286L16.1518 18.9822C16.1847 18.8501 16.1059 18.716 15.9745 18.6804L14.7165 18.3399C14.5813 18.3033 14.4425 18.3849 14.4086 18.5208L14.1533 19.5446C13.7274 21.1472 12.0888 22.1015 10.5018 21.6724C8.91951 21.2439 7.97882 19.5992 8.40237 18.0019C8.82302 16.4162 10.4319 15.4636 12.0045 15.8602L19.493 17.8868C20.7263 18.2207 22.0101 18.0497 23.1132 17.4068C24.2162 16.7641 25.0048 15.7273 25.335 14.4822C25.6655 13.2369 25.4963 11.9368 24.8562 10.8177C24.216 9.69848 23.1851 8.90056 21.9514 8.56682C20.718 8.23288 19.4343 8.40393 18.3313 9.04669C17.2282 9.68956 16.4395 10.7263 16.1094 11.9714L15.8623 12.7986C15.8221 12.9333 15.9008 13.0747 16.0365 13.1114L17.2946 13.4519C17.4255 13.4873 17.5607 13.4121 17.5995 13.2822L17.8467 12.4553C18.2726 10.8527 19.9112 9.89847 21.4982 10.3276C23.0805 10.756 24.0212 12.4007 23.5976 13.9981Z" fill="url(#paint0_linear_1232_305)"/>
<defs>
<linearGradient id="paint0_linear_1232_305" x1="9.5" y1="3.88245" x2="24.0738" y2="27.2371" gradientUnits="userSpaceOnUse">
<stop stop-color="#949959"/>
<stop offset="1" stop-color="#D6E70C"/>
</linearGradient>
</defs>
</svg>
