<svg viewBox="0 0 48 48" xmlns="http://www.w3.org/2000/svg"><g clip-path="url(#prefix__clip0_8845_659)"><path d="M6.04 42.11l2.24-.46c2.108-.438 4.228-.83 6.322-1.32a9.911 9.911 0 007.392-7.83c.13-.762.187-1.534.17-2.306l.732-.18a9.873 9.873 0 007.5-7.434 7.59 7.59 0 00.256-2.12c-.004-.192 0-.386 0-.61.188-.046.36-.094.534-.134a9.104 9.104 0 005.36-3.51 11.535 11.535 0 002.01-9.708c-.042-.176-.07-.358-.122-.528a1.258 1.258 0 00-1.456-.864L30.61 6.41l-6.97 1.432-8.004 1.644c-2.915.599-5.83 1.194-8.746 1.786a2.25 2.25 0 01-.844.12c-.014-.148-.034-.28-.034-.408-.002-2.24.004-4.486-.01-6.728a.648.648 0 01.348-.614 16.991 16.991 0 013.8-1.72A34.43 34.43 0 0115.654.63c1.092-.17 2.19-.268 3.286-.39 2.343-.223 4.7-.29 7.052-.204.992.02 1.984.102 2.974.194 1.084.102 2.17.22 3.246.384a28.98 28.98 0 018.014 2.248c.524.246 1.018.56 1.528.844a.43.43 0 01.244.446c-.008.108 0 .22 0 .326v39.038c0 .694.09.56-.524.944a16.879 16.879 0 01-3.922 1.714 33.573 33.573 0 01-5.702 1.26c-1.2.16-2.4.292-3.608.414-.554.06-1.112.07-1.67.086-1.128.03-2.256.082-3.382.06-1.272-.028-2.544-.118-3.814-.198a40.122 40.122 0 01-5.038-.664A26.854 26.854 0 017.89 45.18c-.546-.26-1.06-.58-1.594-.87a.492.492 0 01-.288-.496c.016-.46 0-.92.006-1.38 0-.098.02-.192.032-.326l-.006.002zm19.97-21.304c.024.376-.038.752-.18 1.1a5.243 5.243 0 01-4.09 3.68c-2.6.56-5.214 1.074-7.824 1.61l-1.14.228a2.296 2.296 0 00-1.875 1.762 2.289 2.289 0 001.776 2.746c.298.061.606.063.905.004 1.19-.22 2.372-.484 3.558-.726.128-.028.256-.044.418-.07a5.162 5.162 0 01-1.1 2.82A5.602 5.602 0 0113.032 36c-2.206.446-4.412.9-6.616 1.352-.104.02-.212.026-.312.04-.096-.292-.122-20.76-.028-21.26l28.096-5.766c-.004.12-.014.24-.032.36a6.87 6.87 0 01-1.476 3.004 4.799 4.799 0 01-2.852 1.608c-2.22.432-4.436.9-6.652 1.354l-1.92.392a2.336 2.336 0 00-1.906 2.114 2.294 2.294 0 001.75 2.372c.539.09 1.092.054 1.614-.108.984-.2 1.966-.406 2.95-.608.106-.02.216-.028.36-.046l.002-.002z" fill="currentColor"/></g><defs><clipPath id="prefix__clip0_8845_659"><path fill="#fff" d="M0 0h48v48H0z"/></clipPath></defs></svg>