<svg viewBox="0 0 16 16" fill="none" xmlns="http://www.w3.org/2000/svg">
<path fill-rule="evenodd" clip-rule="evenodd" d="M5.19532 3.06511C5.19532 2.61759 5.56893 2.10028 6.42946 1.67002C7.26506 1.25221 8.4486 0.981771 9.77865 0.981771C11.1087 0.981771 12.2922 1.25221 13.1278 1.67002C13.9884 2.10028 14.362 2.61759 14.362 3.06511C14.362 3.51262 13.9884 4.02993 13.1278 4.4602C12.2922 4.878 11.1087 5.14844 9.77865 5.14844C8.4486 5.14844 7.26506 4.878 6.42946 4.4602C5.56893 4.02993 5.19532 3.51262 5.19532 3.06511ZM13.5005 5.20555C13.817 5.04732 14.1109 4.86038 14.362 4.64688V6.39844C14.362 6.84595 13.9884 7.36327 13.1278 7.79353C12.2922 8.21133 11.1087 8.48178 9.77865 8.48178C8.4486 8.48178 7.26506 8.21133 6.42946 7.79353C5.56893 7.36327 5.19532 6.84595 5.19532 6.39844V4.64688C5.44645 4.86038 5.7403 5.04732 6.05678 5.20555C7.03082 5.69257 8.34728 5.98177 9.77865 5.98177C11.21 5.98177 12.5265 5.69257 13.5005 5.20555ZM13.5005 8.53889C13.817 8.38065 14.1109 8.19372 14.362 7.98022V9.73178C14.362 10.1793 13.9884 10.6966 13.1278 11.1269C12.2922 11.5447 11.1087 11.8151 9.77865 11.8151C8.4486 11.8151 7.26506 11.5447 6.42946 11.1269C5.56893 10.6966 5.19532 10.1793 5.19532 9.73178V7.98022C5.44645 8.19372 5.7403 8.38065 6.05678 8.53889C7.03082 9.02591 8.34728 9.31511 9.77865 9.31511C11.21 9.31511 12.5265 9.02591 13.5005 8.53889ZM13.5005 11.8722C13.817 11.714 14.1109 11.5271 14.362 11.3136V13.0651C14.362 13.5126 13.9884 14.0299 13.1278 14.4602C12.2922 14.878 11.1087 15.1484 9.77865 15.1484C8.4486 15.1484 7.26506 14.878 6.42946 14.4602C5.56893 14.0299 5.19532 13.5126 5.19532 13.0651V11.3136C5.44645 11.5271 5.7403 11.714 6.05678 11.8722C7.03082 12.3592 8.34728 12.6484 9.77865 12.6484C11.21 12.6484 12.5265 12.3592 13.5005 11.8722ZM13.5005 15.2056C14.4496 14.731 15.1953 13.9983 15.1953 13.0651V3.06511C15.1953 2.1319 14.4496 1.39922 13.5005 0.92466C12.5265 0.43764 11.21 0.148438 9.77865 0.148438C8.34728 0.148438 7.03082 0.43764 6.05678 0.92466C5.55326 1.17642 5.107 1.50082 4.79896 1.88927L4.80249 1.82766C4.65773 1.81936 4.51075 1.81511 4.36198 1.81511C3.27364 1.81511 2.26766 2.04295 1.51853 2.43139C0.790209 2.80904 0.195312 3.40437 0.195312 4.17622V11.954C0.195312 12.7258 0.790209 13.3212 1.51853 13.6988C2.26766 14.0873 3.27364 14.3151 4.36198 14.3151C4.51075 14.3151 4.65773 14.3109 4.80249 14.3026L4.79896 14.2409C5.107 14.6294 5.55326 14.9538 6.05678 15.2056C7.03082 15.6926 8.34728 15.9818 9.77865 15.9818C11.21 15.9818 12.5265 15.6926 13.5005 15.2056ZM4.41301 13.4816C4.37965 13.3477 4.36198 13.2088 4.36198 13.0651V11.7225C3.27364 11.7225 2.26766 11.4947 1.51853 11.1062C1.34566 11.0166 1.18031 10.9147 1.02865 10.8011V11.954C1.02865 12.256 1.27322 12.6329 1.90213 12.959C2.51023 13.2743 3.37926 13.4818 4.36198 13.4818C4.37902 13.4818 4.39603 13.4817 4.41301 13.4816ZM4.36198 10.8892V9.12992C3.27364 9.12992 2.26766 8.90208 1.51853 8.51364C1.34566 8.42401 1.18031 8.32211 1.02865 8.20849V9.36141C1.02865 9.66345 1.27322 10.0403 1.90213 10.3664C2.51023 10.6818 3.37926 10.8892 4.36198 10.8892ZM4.36198 8.29659V6.53733C3.27364 6.53733 2.26766 6.30949 1.51853 5.92105C1.34566 5.83141 1.18031 5.72951 1.02865 5.6159V6.76881C1.02865 7.07085 1.27322 7.44774 1.90213 7.77384C2.51023 8.08916 3.37926 8.29659 4.36198 8.29659ZM4.36198 5.704V3.06511C4.36198 2.92146 4.37965 2.78256 4.41301 2.64863C4.39603 2.6485 4.37902 2.64844 4.36198 2.64844C3.37926 2.64844 2.51023 2.85587 1.90213 3.17119C1.27322 3.49729 1.02865 3.87418 1.02865 4.17622C1.02865 4.47826 1.27322 4.85515 1.90213 5.18125C2.51023 5.49656 3.37926 5.704 4.36198 5.704Z" fill="currentColor"/>
</svg>
