<svg viewBox="0 0 28 28" xmlns="http://www.w3.org/2000/svg">
<path d="M14.023 0C7.75934 0 3.46092 2.24289 3.45994 4.25314C3.45994 6.26339 7.80822 8.50628 14.0249 8.50628C20.2407 8.50628 24.588 6.26339 24.588 4.25314C24.588 2.24289 20.2397 0 14.023 0ZM24.588 7.52567C22.7187 9.0221 20.5213 9.53527 16.0339 10.6109C9.81724 12.0593 3.41406 13.5553 3.41406 19.3981V20.0519C5.75086 18.0419 9.95693 17.1079 14.0708 16.1734H14.0727C19.2142 15.005 24.588 13.7888 24.588 10.7982L24.588 7.52567ZM24.588 14.3498C22.3448 16.1731 18.372 17.0615 14.4455 17.9492C9.02347 19.1648 3.41406 20.426 3.41406 23.7908C3.41406 24.5395 4.0224 25.3342 5.144 26.0349C7.38815 24.5395 10.8934 23.6986 14.2581 22.9039C19.3532 21.6893 24.588 20.4273 24.588 17.2955L24.588 14.3498ZM24.588 20.9407C22.3908 22.8101 18.4643 23.7461 14.6787 24.6338C11.9207 25.2895 9.11627 25.9432 7.15301 26.9238C8.92934 27.5795 11.313 28 14.0249 28C20.1947 28 24.588 25.8012 24.588 23.7449L24.588 20.9407Z" fill="currentColor"/>
</svg>
