<svg viewBox="0 0 54 54" fill="none" xmlns="http://www.w3.org/2000/svg"><path d="M20.25 20.25l4.125 4.125" stroke="currentColor" stroke-width="2" stroke-linecap="square"/><path d="M26.72 22.255L12.628 35.303a4.295 4.295 0 106.07 6.07l13.055-14.101" stroke="currentColor" stroke-width="2" stroke-miterlimit="10"/><path d="M29.535 35.142l5.767 6.229a4.296 4.296 0 106.07-6.07l-4.414-4.088M37.447 21.268l-4.715-4.715 4.743-4.742a8.23 8.23 0 00-2.975-.561 8.25 8.25 0 108.25 8.25 8.23 8.23 0 00-.561-2.975l-4.742 4.743z" stroke="currentColor" stroke-width="2" stroke-miterlimit="10" stroke-linecap="square"/><path d="M31.5 21l1.5 1.5M36.75 36.75l1.875 1.875" stroke="currentColor" stroke-width="2" stroke-linecap="square"/><path d="M11.25 13.5l2.25-2.25 6.75 3.375v5.625h-5.625L11.25 13.5z" stroke="currentColor" stroke-width="2" stroke-miterlimit="10" stroke-linecap="square"/></svg>