<svg xmlns="http://www.w3.org/2000/svg" fill="none" fill-opacity="0" viewBox="0 0 15 21"><path stroke="currentColor" stroke-linecap="square" stroke-miterlimit="10" d="M14.125 13.098c0 1.119-2.84 2.026-6.344 2.026-3.503 0-6.343-.907-6.343-2.026"/><path stroke="currentColor" stroke-linecap="square" stroke-miterlimit="10" d="M14.125 8.372v-.338V18.27c0 1.055-2.855 1.919-6.344 1.919s-6.343-.864-6.343-1.92V8.035v.338"/><path stroke="currentColor" stroke-linecap="round" stroke-miterlimit="10" d="M12.375 6.636c1.084.364 1.75.856 1.75 1.397 0 1.12-2.84 2.026-6.344 2.026-3.503 0-6.343-.907-6.343-2.026 0-.541.665-1.033 1.75-1.397"/><path stroke="currentColor" stroke-linecap="round" stroke-linejoin="round" d="M5.516 1.39 5.26 3.01l1.616-.283"/><path stroke="currentColor" stroke-linecap="round" stroke-linejoin="round" d="M5.79 2.281a3.02 3.02 0 1 1-.832 2.545"/></svg>