<svg viewBox="0 0 15 21" fill="none" xmlns="http://www.w3.org/2000/svg">
<path d="M14.125 13.0981C14.125 14.2168 11.2848 15.1238 7.78125 15.1238C4.27771 15.1238 1.4375 14.2168 1.4375 13.0981" stroke="currentColor" stroke-miterlimit="10" stroke-linecap="square" fill-opacity="0"/>
<path d="M14.125 8.37196V8.03434V18.2696C14.125 19.3251 11.2703 20.1888 7.78125 20.1888C4.29219 20.1888 1.4375 19.3251 1.4375 18.2696V8.03434V8.37196" stroke="currentColor" stroke-miterlimit="10" stroke-linecap="square" fill-opacity="0"/>
<path d="M12.375 6.63623C13.4593 6.99969 14.125 7.49167 14.125 8.03329C14.125 9.15207 11.2848 10.059 7.78125 10.059C4.27771 10.059 1.4375 9.15207 1.4375 8.03329C1.4375 7.49167 2.10317 6.99969 3.1875 6.63623" stroke="currentColor" stroke-miterlimit="10" stroke-linecap="round" fill-opacity="0"/>
<path d="M5.51638 1.38963L5.25925 3.00922L6.87495 2.72749" stroke="currentColor" stroke-linecap="round" stroke-linejoin="round" fill-opacity="0"/>
<path d="M5.78912 2.28119C6.33747 1.72163 7.10109 1.37476 7.94626 1.37476C9.61416 1.37476 10.9663 2.72686 10.9663 4.39476C10.9663 6.06267 9.61416 7.41476 7.94626 7.41476C6.42505 7.41476 5.16614 6.2896 4.95689 4.82619" stroke="currentColor" stroke-linecap="round" stroke-linejoin="round" fill-opacity="0"/>
</svg>
