<svg xmlns="http://www.w3.org/2000/svg" viewBox="0 0 17 18" fill="none"><path stroke="currentColor" stroke-linecap="round" stroke-linejoin="round" d="M1 3.5v5S1 11 6.833 11c5.834 0 5.834-2.5 5.834-2.5v-5"/><path stroke="currentColor" stroke-linecap="round" stroke-linejoin="round" d="M6.833 1c5.834 0 5.834 2.5 5.834 2.5s0 2.5-5.834 2.5C1 6 1 3.5 1 3.5S1 1 6.833 1ZM6.833 16C1 16 1 13.5 1 13.5v-5M13.499 16a1.667 1.667 0 1 0 0-3.333 1.667 1.667 0 0 0 0 3.333Z"/><path stroke="currentColor" stroke-dasharray="0.3 2" stroke-linecap="round" stroke-linejoin="round" d="M13.5 16.833a2.5 2.5 0 1 0 0-5 2.5 2.5 0 0 0 0 5Z"/></svg>