<svg xmlns="http://www.w3.org/2000/svg" fill="none" viewBox="0 0 31 28"><path fill="#5FB34E" d="M14.227 2.141c.254-.78 1.359-.78 1.612 0l2.06 6.337c.113.349.438.585.805.585h6.663c.82 0 1.162 1.051.498 1.534l-5.39 3.916a.85.85 0 0 0-.308.947l2.059 6.337c.254.78-.64 1.43-1.304.947l-5.39-3.916a.85.85 0 0 0-.997 0l-5.39 3.916c-.664.483-1.558-.166-1.304-.947l2.058-6.337a.85.85 0 0 0-.307-.947l-5.39-3.916c-.665-.483-.323-1.534.498-1.534h6.662a.85.85 0 0 0 .806-.585z"/><path fill="#000" fill-rule="evenodd" d="m17.36 7.874-2.058-6.336a.283.283 0 0 0-.537 0l-2.06 6.336c-.188.582-.73.976-1.343.976H4.7a.283.283 0 0 0-.166.511l5.39 3.916c.495.36.702.998.513 1.58l-2.059 6.336a.283.283 0 0 0 .435.316l5.39-3.916a1.41 1.41 0 0 1 1.66 0l5.39 3.916c.222.16.52-.056.435-.316l-2.058-6.336c-.19-.582.018-1.22.513-1.58l5.39-3.916a.283.283 0 0 0-.166-.511h-6.663a1.41 1.41 0 0 1-1.343-.976m-1.52-6.511c-.254-.781-1.36-.781-1.613 0l-2.059 6.336a.85.85 0 0 1-.806.586H4.7c-.821 0-1.163 1.05-.498 1.533l5.39 3.916a.85.85 0 0 1 .307.948l-2.058 6.336c-.254.781.64 1.43 1.304.948l5.39-3.916a.85.85 0 0 1 .996 0l5.39 3.916c.665.483 1.559-.167 1.305-.948l-2.059-6.336a.85.85 0 0 1 .308-.948l5.39-3.916c.664-.482.323-1.533-.498-1.533h-6.663a.85.85 0 0 1-.806-.586zM5.857-.004c.156 0 .282.127.282.283v2.013a.283.283 0 0 1-.565 0V.279c0-.156.127-.283.283-.283M2.947 3.14c0-.156.126-.283.282-.283H5.1a.283.283 0 1 1 0 .565H3.23a.283.283 0 0 1-.282-.282m3.33 0c0-.156.126-.283.282-.283h1.733a.283.283 0 0 1 0 .565H6.559a.283.283 0 0 1-.283-.282m-.42.558c.156 0 .282.126.282.282v1.967a.283.283 0 0 1-.565 0V3.98c0-.156.127-.282.283-.282M28.05 12.97c.156 0 .283.127.283.283v2.013a.283.283 0 0 1-.566 0v-2.013c0-.156.127-.283.283-.283m-2.91 3.143c0-.156.126-.283.282-.283h1.87a.283.283 0 1 1 0 .565h-1.87a.283.283 0 0 1-.282-.282m3.33 0c0-.156.126-.283.282-.283h1.733a.283.283 0 1 1 0 .565h-1.733a.283.283 0 0 1-.282-.282m-.42.558c.156 0 .283.127.283.283v1.967a.283.283 0 0 1-.566 0v-1.967c0-.156.127-.283.283-.283M3.043 14.28c.156 0 .282.126.282.282v2.013a.283.283 0 0 1-.565 0v-2.013c0-.156.127-.282.283-.282m-2.91 3.142c0-.156.126-.282.282-.282h1.87a.283.283 0 0 1 0 .565H.416a.283.283 0 0 1-.282-.283m3.33 0c0-.156.126-.282.282-.282h1.733a.283.283 0 0 1 0 .565H3.745a.283.283 0 0 1-.283-.283m-.42.558c.156 0 .282.127.282.283v1.967a.283.283 0 0 1-.565 0v-1.967c0-.156.127-.283.283-.283M25.236-.004c.156 0 .283.127.283.283v2.013a.283.283 0 1 1-.566 0V.279c0-.156.127-.283.283-.283m-2.91 3.143c0-.157.126-.283.282-.283h1.87a.283.283 0 0 1 0 .565h-1.87a.283.283 0 0 1-.282-.282m3.33 0c0-.157.126-.283.282-.283h1.733a.283.283 0 0 1 0 .565h-1.733a.283.283 0 0 1-.282-.282m-.42.558c.156 0 .283.126.283.282v1.967a.283.283 0 1 1-.566 0V3.98c0-.156.127-.282.283-.282" clip-rule="evenodd"/><path fill="#000" fill-rule="evenodd" d="M15.096 20.828c.156 0 .283.126.283.282v2.013a.283.283 0 1 1-.565 0V21.11c0-.156.126-.282.282-.282m-2.91 3.142c0-.156.127-.283.283-.283h1.87a.283.283 0 1 1 0 .566h-1.87a.283.283 0 0 1-.283-.283m3.33 0c0-.156.126-.283.282-.283h1.734a.283.283 0 1 1 0 .566h-1.734a.283.283 0 0 1-.282-.283m-.42.558c.156 0 .283.127.283.283v1.967a.283.283 0 1 1-.565 0V24.81c0-.156.126-.283.282-.283" clip-rule="evenodd"/></svg>