<svg viewBox="0 0 160 46" fill="none" xmlns="http://www.w3.org/2000/svg"><path d="M17.9 24.75c.946-.943 2.474-.96 3.424-.044l4.47 4.461a3.852 3.852 0 002.759 1.13 3.914 3.914 0 002.766-1.152 3.914 3.914 0 001.068-1.937c1.685-.534 2.836-1.264 3.613-1.962v6.746c-.255.292-.645.535-1.075.83C33.242 33.97 30.063 35 24 35c-6.063 0-9.242-1.03-10.925-2.179-.43-.294-.82-.595-1.075-.886V25.24c.789.64 1.973 1.289 3.746 1.779a3.837 3.837 0 001.1 2.213 3.852 3.852 0 002.759 1.131 3.915 3.915 0 002.766-1.153l.612-.629a.202.202 0 00-.002-.284l-.75-.75a.206.206 0 00-.293.003l-.598.615c-.956.953-2.506.959-3.453.014a2.423 2.423 0 01.013-3.43zm18.042-8.625c.039.272.058.55.058.832v5.814a2.42 2.42 0 01-.088.173 4.08 4.08 0 01-.6.802c-.525.557-1.418 1.251-2.903 1.795a3.84 3.84 0 00-1.067-2.01 3.852 3.852 0 00-2.758-1.13 3.914 3.914 0 00-2.767 1.153l-.512.481a.202.202 0 00-.005.29l.75.75c.079.078.205.08.286.004l.513-.48c.956-.953 2.505-.96 3.453-.014.944.943.938 2.48-.014 3.43a2.45 2.45 0 01-3.424.043l-4.47-4.46a3.851 3.851 0 00-2.758-1.131 3.914 3.914 0 00-2.767 1.153 3.918 3.918 0 00-1.031 1.79c-1.83-.551-2.793-1.253-3.293-1.778a2.679 2.679 0 01-.488-.68 1.36 1.36 0 01-.057-.137v-5.858c0-.282.02-.56.058-.832.254.292.587.593 1.017.887C14.758 18.16 17.937 19.19 24 19.19c6.063 0 9.242-1.03 10.925-2.178.43-.294.763-.595 1.017-.887zM24 11c5.937 0 8.758 1.018 10.075 1.917.65.443.935.858 1.063 1.12.065.132.092.233.104.29l.005.024-.005.024c-.012.056-.04.158-.104.291-.128.261-.413.676-1.063 1.12C32.758 16.684 29.937 17.7 24 17.7c-5.937 0-8.758-1.017-10.075-1.916-.65-.443-.935-.858-1.063-1.119a1.262 1.262 0 01-.104-.291l-.005-.024.005-.025c.012-.056.04-.157.104-.29.128-.26.413-.676 1.063-1.119C15.242 12.017 18.063 11 24 11z" fill="url(#prefix__paint0_linear_8461_1470)"/><path d="M43.5 19h-2.71v-8h2.765c.794 0 1.476.16 2.047.48a3.212 3.212 0 011.32 1.372c.307.596.46 1.31.46 2.14 0 .833-.154 1.55-.464 2.149a3.212 3.212 0 01-1.332 1.379c-.578.32-1.273.48-2.086.48zm-1.262-1.254h1.192c.557 0 1.022-.101 1.394-.305a1.95 1.95 0 00.84-.918c.188-.408.281-.919.281-1.53 0-.613-.093-1.12-.28-1.524a1.918 1.918 0 00-.833-.91c-.365-.204-.818-.305-1.36-.305h-1.234v5.492zm8.186 1.375c-.38 0-.723-.068-1.027-.203a1.678 1.678 0 01-.72-.61c-.174-.268-.261-.598-.261-.992 0-.338.063-.618.188-.84.124-.22.295-.398.511-.53.216-.133.46-.234.73-.301.274-.07.557-.122.848-.153.352-.036.637-.069.856-.098.219-.03.377-.078.476-.14.102-.065.153-.165.153-.3v-.024c0-.295-.087-.522-.262-.684-.174-.161-.426-.242-.754-.242-.346 0-.621.075-.824.226-.2.152-.336.33-.406.536l-1.32-.188c.103-.364.275-.67.515-.914.24-.247.532-.432.879-.555.346-.125.729-.187 1.148-.187.29 0 .577.034.864.101.286.068.548.18.785.336.237.154.427.364.57.63.146.265.219.597.219.995V19h-1.36v-.824h-.047a1.727 1.727 0 01-.363.469c-.153.143-.347.259-.582.347a2.347 2.347 0 01-.816.13zm.367-1.039c.284 0 .53-.056.738-.168.209-.115.369-.266.48-.453.115-.188.173-.392.173-.613v-.707a.665.665 0 01-.227.101 3.213 3.213 0 01-.352.082c-.13.024-.259.044-.386.063l-.332.047c-.211.028-.4.075-.567.14a.941.941 0 00-.394.274.668.668 0 00-.145.445c0 .26.095.457.285.59.19.133.433.199.727.199zM58.01 13v1.094h-3.45V13h3.45zm-2.598-1.438h1.414v5.633c0 .19.029.336.086.438.06.099.138.166.235.203a.897.897 0 00.32.055c.088 0 .17-.007.242-.02.075-.013.133-.025.172-.035l.238 1.105a3.155 3.155 0 01-.324.086 2.65 2.65 0 01-.508.055 2.306 2.306 0 01-.957-.16 1.489 1.489 0 01-.676-.555c-.164-.25-.245-.562-.242-.937v-5.867zm5.507 7.56c-.38 0-.723-.069-1.027-.204a1.677 1.677 0 01-.72-.61c-.174-.268-.26-.598-.26-.992 0-.338.062-.618.187-.84a1.45 1.45 0 01.511-.53 2.58 2.58 0 01.73-.301c.274-.07.557-.122.848-.153.352-.036.637-.069.856-.098.219-.03.378-.078.477-.14.101-.065.152-.165.152-.3v-.024c0-.295-.087-.522-.262-.684-.174-.161-.426-.242-.754-.242-.346 0-.62.075-.824.226-.2.152-.336.33-.406.536l-1.32-.188c.104-.364.276-.67.515-.914.24-.247.533-.432.879-.555.346-.125.73-.187 1.148-.187.29 0 .577.034.864.101.286.068.548.18.785.336.237.154.427.364.57.63.146.265.219.597.219.995V19h-1.36v-.824h-.046a1.729 1.729 0 01-.364.469c-.153.143-.347.259-.582.347a2.348 2.348 0 01-.816.13zm.367-1.04c.284 0 .53-.056.738-.168.209-.115.369-.266.48-.453.116-.188.173-.392.173-.613v-.707a.665.665 0 01-.227.101 3.213 3.213 0 01-.351.082c-.13.024-.26.044-.387.063l-.332.047c-.211.028-.4.075-.567.14a.941.941 0 00-.394.274.668.668 0 00-.145.445c0 .26.096.457.286.59.19.133.432.199.726.199zm4.285.918v-8h1.414v2.992h.059c.073-.146.176-.3.309-.465.132-.166.312-.308.539-.425.226-.12.515-.18.867-.18.463 0 .881.118 1.254.355.375.235.672.582.89 1.043.222.459.332 1.021.332 1.688 0 .659-.108 1.219-.324 1.68-.216.46-.51.812-.883 1.054a2.27 2.27 0 01-1.265.363c-.344 0-.63-.057-.856-.171a1.74 1.74 0 01-.547-.415 2.68 2.68 0 01-.316-.464h-.082V19h-1.39zm1.387-3c0 .388.055.728.164 1.02.112.291.272.52.48.683.212.162.467.242.766.242.313 0 .574-.083.785-.25.211-.169.37-.4.477-.691.11-.294.164-.629.164-1.004 0-.372-.053-.703-.16-.992a1.49 1.49 0 00-.477-.68c-.21-.164-.474-.246-.789-.246-.302 0-.558.08-.77.238-.21.16-.37.382-.48.668-.107.287-.16.624-.16 1.012zm7.206 3.121c-.38 0-.723-.068-1.027-.203a1.677 1.677 0 01-.719-.61c-.175-.268-.262-.598-.262-.992 0-.338.063-.618.188-.84a1.45 1.45 0 01.512-.53 2.58 2.58 0 01.73-.301c.273-.07.556-.122.848-.153.351-.036.636-.069.855-.098.219-.03.378-.078.477-.14.101-.065.152-.165.152-.3v-.024c0-.295-.087-.522-.262-.684-.174-.161-.425-.242-.754-.242-.346 0-.62.075-.824.226-.2.152-.336.33-.406.536l-1.32-.188c.104-.364.276-.67.515-.914.24-.247.533-.432.88-.555.345-.125.728-.187 1.147-.187.29 0 .577.034.864.101.286.068.548.18.785.336.237.154.427.364.57.63.146.265.219.597.219.995V19h-1.36v-.824h-.046a1.727 1.727 0 01-.364.469c-.153.143-.347.259-.581.347a2.347 2.347 0 01-.817.13zm.367-1.039c.284 0 .53-.056.738-.168.209-.115.369-.266.481-.453.115-.188.172-.392.172-.613v-.707a.665.665 0 01-.227.101 3.21 3.21 0 01-.351.082c-.13.024-.26.044-.387.063a88.48 88.48 0 01-.332.047c-.21.028-.4.075-.566.14a.94.94 0 00-.395.274.668.668 0 00-.145.445c0 .26.096.457.286.59.19.133.432.199.726.199zm8.965-3.496l-1.289.14c-.036-.13-.1-.252-.191-.367a.95.95 0 00-.36-.277 1.31 1.31 0 00-.554-.105c-.295 0-.542.063-.743.191-.197.128-.295.293-.293.496a.519.519 0 00.192.426c.133.11.351.2.656.27l1.023.218c.568.123.99.317 1.266.582.279.266.42.613.422 1.043a1.632 1.632 0 01-.332 1c-.216.287-.517.51-.902.672a3.412 3.412 0 01-1.329.242c-.734 0-1.325-.154-1.773-.46a1.852 1.852 0 01-.8-1.294l1.378-.133c.063.271.195.476.399.614.203.138.467.207.793.207.335 0 .605-.07.808-.207.206-.138.309-.309.309-.512a.533.533 0 00-.2-.426c-.13-.112-.333-.198-.609-.258l-1.023-.214c-.576-.12-1.002-.322-1.278-.606-.276-.286-.412-.648-.41-1.086-.002-.37.098-.69.301-.96.206-.274.49-.485.856-.634.367-.15.79-.226 1.269-.226.703 0 1.257.15 1.66.45.406.299.658.704.754 1.214zm3.951 4.531c-.601 0-1.12-.125-1.558-.375a2.54 2.54 0 01-1.004-1.07c-.235-.464-.352-1.01-.352-1.637 0-.617.117-1.159.352-1.625.237-.469.567-.833.992-1.094.424-.263.923-.394 1.496-.394.37 0 .719.06 1.047.18.33.117.622.299.875.546.255.248.456.563.602.946.145.38.218.833.218 1.36v.433h-4.918v-.953h3.563a1.521 1.521 0 00-.176-.723 1.279 1.279 0 00-.48-.504 1.35 1.35 0 00-.711-.184c-.29 0-.543.07-.762.211-.219.138-.39.32-.512.547-.12.224-.18.47-.183.739v.832c0 .349.063.648.191.898.128.247.306.438.535.57.23.13.497.196.805.196.206 0 .392-.029.558-.086a1.24 1.24 0 00.434-.262 1.09 1.09 0 00.277-.426l1.32.149a2.057 2.057 0 01-.476.914 2.324 2.324 0 01-.89.601c-.362.14-.777.211-1.243.211zM43.5 36h-2.71v-8h2.765c.794 0 1.476.16 2.047.48a3.212 3.212 0 011.32 1.372c.307.596.46 1.31.46 2.14 0 .833-.154 1.55-.464 2.149a3.212 3.212 0 01-1.332 1.379c-.578.32-1.273.48-2.086.48zm-1.262-1.254h1.192c.557 0 1.022-.102 1.394-.305a1.95 1.95 0 00.84-.918c.188-.408.281-.919.281-1.53 0-.613-.093-1.12-.28-1.524a1.918 1.918 0 00-.833-.91c-.365-.204-.818-.305-1.36-.305h-1.234v5.492zm9.115 1.371c-.601 0-1.12-.125-1.558-.375a2.54 2.54 0 01-1.004-1.07c-.234-.464-.351-1.01-.351-1.637 0-.617.117-1.159.351-1.625.237-.469.568-.833.992-1.094.425-.263.923-.394 1.496-.394.37 0 .719.06 1.047.18.33.117.623.299.875.546.255.248.456.563.602.946.146.38.219.833.219 1.36v.433h-4.919v-.953h3.563a1.521 1.521 0 00-.176-.723 1.278 1.278 0 00-.48-.504 1.35 1.35 0 00-.711-.184c-.29 0-.543.07-.762.211-.219.138-.39.32-.512.547-.12.224-.18.47-.183.739v.832c0 .349.064.648.191.898.128.247.306.438.535.57.23.13.498.196.805.196.206 0 .392-.029.559-.086a1.24 1.24 0 00.433-.262 1.09 1.09 0 00.278-.426l1.32.149a2.058 2.058 0 01-.477.914 2.322 2.322 0 01-.89.601 3.41 3.41 0 01-1.242.211zM60.405 30l-2.136 6h-1.563l-2.137-6h1.508l1.38 4.457h.062L58.9 30h1.504zm8.19 2c0 .862-.162 1.6-.485 2.215a3.431 3.431 0 01-1.312 1.406c-.552.326-1.178.488-1.88.488-.7 0-1.327-.162-1.882-.488-.552-.328-.99-.798-1.312-1.41-.32-.615-.48-1.352-.48-2.211 0-.862.16-1.599.48-2.21.323-.616.76-1.086 1.312-1.411.555-.326 1.182-.488 1.883-.488.7 0 1.327.162 1.879.488.555.325.992.795 1.312 1.41.323.612.485 1.349.485 2.211zm-1.457 0c0-.607-.095-1.119-.285-1.535-.188-.42-.448-.736-.782-.95a2.071 2.071 0 00-1.152-.324 2.07 2.07 0 00-1.152.325c-.334.213-.596.53-.786.949-.187.416-.28.928-.28 1.535 0 .607.093 1.12.28 1.54.19.416.452.732.786.948.333.214.717.32 1.152.32.435 0 .819-.106 1.152-.32.334-.216.594-.532.782-.949.19-.42.285-.932.285-1.539zm2.764 6.25V30h1.391v.992h.082c.073-.146.176-.3.309-.465.132-.166.312-.308.539-.425.226-.12.515-.18.867-.18.463 0 .881.118 1.254.355.375.235.672.582.89 1.043.222.459.332 1.021.332 1.688 0 .659-.108 1.219-.324 1.68-.216.46-.51.812-.883 1.054a2.27 2.27 0 01-1.265.364c-.344 0-.63-.058-.856-.172a1.74 1.74 0 01-.547-.414 2.68 2.68 0 01-.316-.465h-.059v3.195h-1.414zM71.29 33c0 .388.055.728.164 1.02.112.291.272.52.48.683.211.162.467.242.766.242.313 0 .574-.083.785-.25.211-.169.37-.4.477-.691.11-.294.164-.629.164-1.004 0-.372-.053-.703-.16-.992a1.49 1.49 0 00-.477-.68c-.21-.164-.474-.246-.789-.246-.302 0-.558.08-.77.238-.21.16-.37.382-.48.668-.107.287-.16.624-.16 1.012zm10.23-1.414l-1.288.14c-.037-.13-.1-.252-.192-.367a.951.951 0 00-.36-.277 1.31 1.31 0 00-.554-.105c-.294 0-.542.063-.742.191-.198.128-.296.293-.293.496a.519.519 0 00.191.426c.133.11.352.2.656.27l1.024.218c.568.122.99.316 1.266.582.278.266.419.613.421 1.043a1.631 1.631 0 01-.332 1c-.216.287-.517.51-.902.672a3.413 3.413 0 01-1.328.242c-.734 0-1.326-.153-1.773-.46a1.853 1.853 0 01-.801-1.294l1.379-.133c.062.271.195.476.398.614s.468.207.793.207c.336 0 .606-.07.809-.207.205-.138.308-.309.308-.512a.533.533 0 00-.199-.426c-.13-.112-.333-.198-.61-.258l-1.023-.214c-.575-.12-1.001-.322-1.277-.606-.276-.286-.413-.648-.41-1.086-.003-.37.097-.69.3-.96a1.97 1.97 0 01.856-.634c.367-.15.79-.226 1.27-.226.703 0 1.256.15 1.66.45.406.299.657.704.753 1.214z" fill="#000"/><defs><linearGradient id="prefix__paint0_linear_8461_1470" x1="18" y1="12.608" x2="30" y2="33.392" gradientUnits="userSpaceOnUse"><stop stop-color="#62F91F"/><stop offset="1" stop-color="#45BD35"/></linearGradient></defs></svg>