<svg viewBox="0 0 320 158" fill="none" xmlns="http://www.w3.org/2000/svg">
<g clip-path="url(#clip0_8792_3947)">
<path fill-rule="evenodd" clip-rule="evenodd" d="M94.8323 14.3578C95.0006 14.3333 95.1568 14.4498 95.1812 14.618C96.6415 24.6474 96.2856 34.7085 95.9305 44.7451C95.8631 46.6525 95.7956 48.5589 95.7407 50.4641C95.6568 53.3749 95.6759 56.2877 95.695 59.2053C95.7033 60.4639 95.7115 61.7235 95.7115 62.9841C95.7115 63.1817 95.7346 63.4324 95.7616 63.7265C95.7647 63.7602 95.7679 63.7945 95.7711 63.8293C95.8012 64.1593 95.8321 64.5287 95.8298 64.8858C95.8274 65.2403 95.7925 65.6058 95.678 65.9225C95.5611 66.2456 95.3537 66.5357 95.0031 66.6936C94.8481 66.7634 94.6659 66.6944 94.5961 66.5394C94.5263 66.3844 94.5953 66.2022 94.7503 66.1324C94.9087 66.0611 95.0217 65.927 95.0991 65.7131C95.1789 65.4926 95.2121 65.2081 95.2142 64.8818C95.2164 64.558 95.1882 64.2157 95.1581 63.8852C95.1549 63.8501 95.1516 63.8149 95.1484 63.7799C95.122 63.4936 95.096 63.2122 95.096 62.9841C95.096 61.7323 95.0878 60.4777 95.0795 59.2217C95.0604 56.2991 95.0411 53.3685 95.1254 50.4464C95.1806 48.5327 95.2482 46.6206 95.3157 44.7099C95.6704 34.6729 96.0236 24.6761 94.5721 14.7067C94.5476 14.5385 94.6641 14.3823 94.8323 14.3578Z" fill="#B0B1C4"/>
<path fill-rule="evenodd" clip-rule="evenodd" d="M90.727 41.7237C90.8588 41.6164 91.0527 41.6362 91.16 41.768C92.0078 42.8094 92.652 43.6263 93.2171 44.343C94.592 46.0864 95.4993 47.2369 97.7327 49.584C97.8499 49.7071 97.845 49.9019 97.7219 50.0191C97.5988 50.1363 97.404 50.1315 97.2868 50.0083C95.0328 47.6396 94.1058 46.4641 92.7231 44.7108C92.159 43.9956 91.5192 43.1843 90.6826 42.1567C90.5753 42.0248 90.5952 41.831 90.727 41.7237Z" fill="#B0B1C4"/>
<path fill-rule="evenodd" clip-rule="evenodd" d="M92.5484 39.8467C92.668 39.7259 92.8629 39.725 92.9836 39.8447C93.9698 40.8219 94.8036 41.6938 95.6101 42.5371C96.9779 43.9675 98.2673 45.3158 100.089 46.9563C100.215 47.07 100.225 47.2646 100.111 47.3909C99.9974 47.5172 99.8028 47.5274 99.6765 47.4136C97.8421 45.7612 96.5233 44.3826 95.1419 42.9386C94.3374 42.0976 93.5116 41.2344 92.5504 40.2819C92.4296 40.1623 92.4287 39.9674 92.5484 39.8467Z" fill="#B0B1C4"/>
<path fill-rule="evenodd" clip-rule="evenodd" d="M94.4723 6.28247C94.641 6.26166 94.7946 6.38155 94.8154 6.55024C94.8697 6.99017 94.9327 7.43008 94.9959 7.87146C95.1695 9.0841 95.3448 10.3078 95.3448 11.5731C95.3448 11.743 95.207 11.8808 95.037 11.8808C94.867 11.8808 94.7293 11.743 94.7293 11.5731C94.7293 10.3551 94.5632 9.1956 94.3917 7.99745C94.3272 7.54734 94.262 7.09177 94.2045 6.6256C94.1837 6.4569 94.3036 6.30328 94.4723 6.28247Z" fill="#B0B1C4"/>
<path fill-rule="evenodd" clip-rule="evenodd" d="M64.6914 24.2149C64.8608 24.2006 65.0097 24.3263 65.024 24.4957C65.159 26.0946 65.5602 28.3089 66.0174 30.8326L66.029 30.8962C66.4896 33.4386 67.0026 36.2791 67.3437 39.0726C67.6847 41.8642 67.8561 44.6246 67.628 47.0068C67.4007 49.3808 66.7719 51.4323 65.4628 52.7503C65.242 52.9726 64.9687 53.0569 64.6866 53.0275C64.6593 53.0247 64.6322 53.0208 64.6051 53.016C64.6468 53.7582 64.6678 54.5624 64.6748 55.4046C64.6893 57.1358 64.645 59.042 64.5972 60.9226C64.5932 61.0776 64.5893 61.2323 64.5853 61.3868C64.5412 63.1096 64.498 64.7968 64.498 66.3019V76.2195C64.498 76.4216 64.4938 76.6098 64.4898 76.787C64.4704 77.6491 64.4569 78.2516 64.9647 78.9378C65.0658 79.0744 65.037 79.2671 64.9004 79.3683C64.7638 79.4694 64.571 79.4406 64.4699 79.304C63.827 78.4353 63.8496 77.6002 63.8734 76.725C63.8779 76.5581 63.8825 76.3898 63.8825 76.2195V66.3019C63.8825 64.7885 63.9259 63.0933 63.9699 61.3726C63.9739 61.2175 63.9779 61.0623 63.9818 60.907C64.0297 59.0253 64.0737 57.1291 64.0593 55.4098C64.0513 54.4486 64.0249 53.5471 63.9714 52.7374C63.9566 52.7273 63.9419 52.7171 63.9273 52.7067C63.4607 52.3742 63.0106 51.822 62.6777 51.2473C62.3474 50.6772 62.102 50.0328 62.0975 49.5033C62.0952 49.2355 62.1546 48.959 62.3393 48.7466C62.5306 48.5267 62.8101 48.4274 63.1361 48.4274C63.1844 48.4274 63.232 48.4388 63.2751 48.4606C63.608 48.629 63.8375 48.9727 64.0046 49.3747C64.175 49.7848 64.3015 50.3074 64.3967 50.9071C64.4665 51.3468 64.5205 51.8358 64.5617 52.3639C64.6317 52.3929 64.6949 52.4095 64.7504 52.4153C64.8568 52.4264 64.9431 52.4 65.0261 52.3165C66.1846 51.1501 66.7927 49.2732 67.0153 46.9481C67.2372 44.6313 67.0717 41.9221 66.7328 39.1472C66.3941 36.3741 65.8843 33.5508 65.4233 31.006L65.4063 30.9123C64.9535 28.4129 64.5482 26.1758 64.4106 24.5475C64.3963 24.3781 64.522 24.2292 64.6914 24.2149ZM63.8992 51.8668C63.8679 51.5602 63.8313 51.2717 63.7888 51.0035C63.6971 50.4259 63.58 49.9571 63.4361 49.6109C63.31 49.3072 63.1778 49.1332 63.0568 49.0463C62.9109 49.0592 62.841 49.1077 62.8038 49.1505C62.7539 49.2079 62.7114 49.3142 62.713 49.498C62.7162 49.8719 62.9019 50.4064 63.2103 50.9388C63.4116 51.2862 63.6522 51.6103 63.8992 51.8668Z" fill="#B0B1C4"/>
<path fill-rule="evenodd" clip-rule="evenodd" d="M62.4816 76.2936C63.6723 76.1508 65.0079 76.3548 65.8995 76.7564C68.2449 77.8127 68.8258 80.5677 68.0529 82.6565C67.736 83.5129 66.8865 84.0232 65.9909 84.2197C65.0902 84.4174 64.059 84.3198 63.2775 83.8717C62.8521 83.6279 62.5684 83.2744 62.3902 82.8635C62.3903 82.9022 62.3904 82.941 62.3905 82.9799C62.3909 83.1162 62.3913 83.254 62.3913 83.3937C62.3913 83.5637 62.2535 83.7015 62.0835 83.7015C61.9136 83.7015 61.7758 83.5637 61.7758 83.3937C61.7758 83.2514 61.7753 83.1099 61.7748 82.969C61.774 82.7145 61.7731 82.4621 61.7751 82.2109C60.3847 81.5904 59.2202 80.0475 59.7971 78.0844C60.1348 76.9353 61.3089 76.4343 62.4816 76.2936ZM62.9311 77.7648C62.6675 77.9245 62.4592 78.1946 62.322 78.5655C61.9468 79.5795 61.8265 80.5522 61.7895 81.5328C60.7285 80.9534 59.9511 79.7435 60.3876 78.258C60.6162 77.4802 61.4467 77.0377 62.5549 76.9048C62.7931 76.8762 63.0376 76.8631 63.2823 76.8636C63.1803 77.1107 63.0576 77.4179 62.9311 77.7648ZM62.7704 81.8696C62.7204 81.3955 62.7606 80.8557 62.8591 80.2949C62.9851 79.5771 63.2018 78.8505 63.4205 78.2247C63.5872 78.1905 63.7939 78.2269 64.0182 78.3458C64.2614 78.4746 64.4959 78.6863 64.6684 78.9369C64.8416 79.1887 64.9382 79.4588 64.9382 79.701C64.9382 80.7419 64.5758 81.3331 64.1143 81.6301C63.7458 81.8672 63.2712 81.945 62.7704 81.8696ZM62.9093 82.5041C63.452 82.5452 63.9918 82.4409 64.4474 82.1477C65.1298 81.7086 65.5538 80.8917 65.5538 79.701C65.5538 79.3024 65.3989 78.9128 65.1755 78.588C64.9513 78.2623 64.644 77.9807 64.3063 77.8018C64.104 77.6946 63.8796 77.619 63.6503 77.6009C63.757 77.325 63.856 77.0854 63.9355 76.8968C64.5807 76.9605 65.1896 77.1117 65.6467 77.3176C67.6104 78.2021 68.1726 80.5594 67.4756 82.4429C67.2599 83.0256 66.6455 83.4459 65.8589 83.6185C65.0774 83.7901 64.208 83.6957 63.5836 83.3377C63.2589 83.1516 63.0411 82.8688 62.9093 82.5041Z" fill="#B0B1C4"/>
<path fill-rule="evenodd" clip-rule="evenodd" d="M49.3371 63.7836C49.5071 63.7856 49.6432 63.9251 49.6412 64.095C49.6107 66.6474 49.5348 69.2 49.4589 71.7494C49.4311 72.6817 49.4034 73.6136 49.3779 74.5449C49.3732 74.7148 49.2317 74.8487 49.0618 74.8441C48.8919 74.8394 48.7579 74.6979 48.7626 74.528C48.7882 73.5935 48.816 72.6596 48.8437 71.7262C48.9196 69.1785 48.9953 66.6341 49.0257 64.0877C49.0277 63.9177 49.1671 63.7816 49.3371 63.7836Z" fill="#B0B1C4"/>
<path fill-rule="evenodd" clip-rule="evenodd" d="M52.5324 55.3463C52.5414 57.2521 51.8506 59.5126 51.4403 60.5394C51.1169 61.3486 50.2421 61.4729 49.5329 61.3405C49.4437 61.3239 49.3545 61.303 49.2661 61.2782C49.2618 61.2791 49.2574 61.2799 49.253 61.2808C48.8355 61.3644 48.4599 61.2666 48.1466 61.0338C47.843 60.8084 47.6101 60.4666 47.4338 60.0739C47.0814 59.289 46.9152 58.2122 46.9158 57.1264C46.9163 56.0377 47.0846 54.9042 47.4295 53.9987C47.767 53.1125 48.3137 52.3479 49.1322 52.184C50.368 51.9367 51.2526 52.1946 51.8131 52.8481C52.3509 53.475 52.528 54.3988 52.5324 55.3463ZM50.2914 60.7483C50.5748 60.6926 50.776 60.543 50.8687 60.3109C51.266 59.3168 51.9253 57.1412 51.9169 55.3492C51.9127 54.4478 51.7393 53.7074 51.3459 53.2489C50.9754 52.8169 50.3482 52.5684 49.253 52.7876C48.761 52.8861 48.3238 53.3801 48.0047 54.2178C47.6929 55.0362 47.5319 56.0919 47.5313 57.1267C47.5313 57.2054 47.5322 57.2837 47.534 57.3615C47.5716 57.189 47.6141 57.0178 47.6596 56.8492C47.815 56.2732 48.0128 55.7026 48.1928 55.1841L48.1954 55.1768C48.3766 54.6548 48.5368 54.1935 48.6301 53.8109C48.6703 53.6458 48.8368 53.5445 49.002 53.5848C49.1671 53.625 49.2683 53.7915 49.2281 53.9566C49.1279 54.368 48.9596 54.8525 48.7843 55.3571L48.7743 55.386C48.5933 55.9074 48.4027 56.4579 48.2539 57.0096C47.9507 58.1331 47.8495 59.165 48.2612 59.9065C48.3565 60.0782 48.5422 60.2579 48.7975 60.4123C48.9467 60.5025 49.1124 60.5797 49.2843 60.6391C49.93 60.443 50.2961 59.8713 50.5018 59.1188C50.7227 58.3107 50.7296 57.3867 50.7296 56.7588C50.7296 56.0429 50.6909 55.5724 50.6203 55.2893C50.5884 55.1616 50.5557 55.0963 50.5351 55.067C50.5311 55.0682 50.5265 55.0698 50.5211 55.0719C50.4974 55.0811 50.4651 55.0975 50.4233 55.1247C50.3386 55.1798 50.2339 55.2673 50.1065 55.3918C49.8516 55.6411 49.542 56.0025 49.1656 56.4546C49.0568 56.5852 48.8628 56.6029 48.7322 56.4942C48.6015 56.3854 48.5838 56.1913 48.6926 56.0607C49.0662 55.612 49.3952 55.2264 49.6762 54.9517C49.8168 54.8142 49.9544 54.6955 50.0874 54.6089C50.2162 54.525 50.3701 54.4516 50.5379 54.4473C50.7274 54.4424 50.8877 54.5264 51.0033 54.6665C51.1077 54.7931 51.1727 54.9605 51.2175 55.1403C51.3078 55.5021 51.3452 56.0378 51.3452 56.7588C51.3452 57.3786 51.3413 58.3822 51.0955 59.2811C50.9475 59.8225 50.7012 60.3598 50.2914 60.7483Z" fill="#B0B1C4"/>
<path fill-rule="evenodd" clip-rule="evenodd" d="M47.7544 32.7104C47.9109 32.6442 48.0915 32.7174 48.1577 32.874C48.8672 34.5515 49.2797 37.1501 49.5079 39.9613C49.7369 42.7828 49.7826 45.8545 49.7421 48.5003C49.7016 51.1449 49.5749 53.3732 49.4572 54.5084C49.4279 54.7908 49.3983 55.0147 49.3691 55.1625C49.356 55.2286 49.3378 55.3084 49.3089 55.3711C49.3007 55.3888 49.287 55.4157 49.2656 55.4437C49.2473 55.4679 49.2028 55.5205 49.1249 55.5511C49.028 55.5893 48.9244 55.576 48.8434 55.5265C48.7783 55.4867 48.7442 55.434 48.7301 55.4096C48.7007 55.3592 48.6877 55.3073 48.6815 55.2806C48.6737 55.247 48.6678 55.2103 48.663 55.173C48.6532 55.098 48.6456 55.0017 48.6395 54.8858C48.6273 54.6529 48.6206 54.3218 48.6206 53.884C48.6206 53.7167 48.7541 53.5806 48.9203 53.5763C49.0107 52.3584 49.0951 50.5556 49.1267 48.4909C49.167 45.857 49.1213 42.8064 48.8944 40.0111C48.6667 37.2056 48.2588 34.6932 47.5908 33.1137C47.5246 32.9572 47.5978 32.7766 47.7544 32.7104Z" fill="#B0B1C4"/>
<path fill-rule="evenodd" clip-rule="evenodd" d="M47.912 29.6217C47.7543 29.6487 47.496 29.7387 47.102 29.9428C46.951 30.021 46.7653 29.962 46.6871 29.8111C46.609 29.6601 46.6679 29.4744 46.8189 29.3962C47.2326 29.182 47.5574 29.0579 47.8083 29.015C48.0432 28.9748 48.3282 28.9907 48.4897 29.2258C48.6326 29.4337 48.58 29.6836 48.5293 29.8337C48.4711 30.0062 48.3704 30.1809 48.262 30.3274C48.1608 30.464 47.9681 30.4928 47.8315 30.3917C47.6949 30.2905 47.6661 30.0978 47.7672 29.9612C47.8492 29.8504 47.9139 29.7325 47.9461 29.6369C47.9487 29.6294 47.9509 29.6223 47.9528 29.6158C47.9409 29.6172 47.9273 29.6191 47.912 29.6217ZM48.0322 29.6157C48.032 29.6159 48.0299 29.6155 48.0264 29.6141C48.0306 29.6148 48.0323 29.6155 48.0322 29.6157Z" fill="#B0B1C4"/>
<path fill-rule="evenodd" clip-rule="evenodd" d="M64.5714 20.5207C64.5642 20.5161 64.557 20.5114 64.5497 20.5067C64.407 20.4144 64.3663 20.2238 64.4586 20.0811C64.5435 19.95 64.7113 19.9049 64.8487 19.9702C64.8887 19.9512 64.9334 19.9406 64.9805 19.9406C64.9949 19.9406 65.009 19.9407 65.0229 19.9408C65.2626 19.806 65.5119 19.8092 65.7158 19.9065C65.9185 20.0032 66.0866 20.2026 66.1099 20.429C66.1227 20.5538 66.0896 20.7068 65.9619 20.8184C65.8421 20.923 65.6905 20.9458 65.5606 20.9377C65.4542 20.9312 65.3337 20.9026 65.1981 20.8512C65.1678 20.8563 65.1375 20.8604 65.1079 20.8634C65.0618 20.8679 65.0117 20.8701 64.9619 20.8667C64.9367 20.865 64.909 20.8618 64.8803 20.8557C64.852 20.8498 64.8183 20.8402 64.7832 20.8239C64.7483 20.8077 64.7061 20.7821 64.6675 20.7414C64.6272 20.6989 64.5952 20.6441 64.5801 20.5795C64.5753 20.5593 64.5726 20.5397 64.5714 20.5207Z" fill="#B0B1C4"/>
<path fill-rule="evenodd" clip-rule="evenodd" d="M47.6691 18.2161C47.8329 18.1706 48.0026 18.2665 48.048 18.4303C48.6426 20.5728 48.6189 22.7275 48.5954 24.864C48.5909 25.2798 48.5863 25.6949 48.5863 26.109C48.5863 26.279 48.4485 26.4168 48.2785 26.4168C48.1085 26.4168 47.9708 26.279 47.9708 26.109C47.9708 25.6807 47.9753 25.2561 47.9797 24.8347C48.0023 22.699 48.0241 20.6458 47.4549 18.5949C47.4094 18.4311 47.5054 18.2615 47.6691 18.2161Z" fill="#B0B1C4"/>
<path fill-rule="evenodd" clip-rule="evenodd" d="M48.0813 13.4648C48.2472 13.5016 48.3519 13.6659 48.3151 13.8319L48.0519 15.0188C48.0151 15.1848 47.8508 15.2895 47.6848 15.2527C47.5189 15.2159 47.4142 15.0515 47.451 14.8856L47.7142 13.6986C47.751 13.5327 47.9153 13.428 48.0813 13.4648Z" fill="#B0B1C4"/>
<path fill-rule="evenodd" clip-rule="evenodd" d="M65.4726 11.3964C65.6414 11.3767 65.7943 11.4976 65.814 11.6664C66.014 13.38 66.1724 14.9911 65.8097 16.7494C65.7753 16.9159 65.6126 17.023 65.4461 16.9886C65.2796 16.9543 65.1725 16.7915 65.2068 16.625C65.5474 14.9742 65.4027 13.4526 65.2026 11.7377C65.1829 11.5689 65.3038 11.4161 65.4726 11.3964Z" fill="#B0B1C4"/>
<path fill-rule="evenodd" clip-rule="evenodd" d="M66.5598 -3.05176e-05C66.7298 -3.05176e-05 66.8676 0.137762 66.8676 0.307737C66.8676 1.67415 66.8218 3.01953 66.6004 4.39234C66.5734 4.56014 66.4154 4.67424 66.2476 4.64718C66.0798 4.62012 65.9657 4.46214 65.9927 4.29433C66.2064 2.9696 66.252 1.66235 66.252 0.307737C66.252 0.137762 66.3898 -3.05176e-05 66.5598 -3.05176e-05Z" fill="#B0B1C4"/>
<path fill-rule="evenodd" clip-rule="evenodd" d="M110.222 7.18342C110.389 7.14979 110.551 7.2576 110.585 7.42421C111.485 11.8852 111.347 16.5943 111.213 21.1778C111.165 22.8071 111.118 24.4206 111.118 26.0014V57.7586C111.118 58.4642 111.115 59.1674 111.112 59.8686C111.094 63.7895 111.077 67.6481 111.613 71.5112C111.628 71.6167 111.647 71.7393 111.668 71.874L111.669 71.8789C111.69 72.0144 111.713 72.1609 111.734 72.3074C111.775 72.5954 111.811 72.904 111.806 73.1462C111.803 73.2632 111.791 73.3958 111.748 73.5093C111.703 73.6262 111.586 73.8045 111.35 73.8064C111.173 73.8079 111.028 73.6997 110.932 73.6133C110.821 73.5139 110.699 73.3714 110.563 73.1873C110.462 73.0507 110.491 72.858 110.627 72.7569C110.764 72.6557 110.957 72.6845 111.058 72.8212C111.106 72.8859 111.149 72.9412 111.188 72.9882C111.18 72.8196 111.156 72.6136 111.124 72.394C111.104 72.2526 111.082 72.1105 111.061 71.9745L111.059 71.9659C111.039 71.834 111.019 71.7068 111.003 71.5958C110.461 67.6855 110.478 63.7769 110.496 59.8572C110.499 59.1581 110.502 58.4586 110.502 57.7586V26.0014C110.502 24.3799 110.55 22.7411 110.599 21.0969C110.732 16.5349 110.867 11.9318 109.981 7.546C109.948 7.37938 110.056 7.21705 110.222 7.18342Z" fill="#B0B1C4"/>
<path fill-rule="evenodd" clip-rule="evenodd" d="M112.215 38.8988C113.04 39.374 113.716 40.1717 113.753 41.0757C113.756 41.1418 113.76 41.2217 113.765 41.3131C113.793 41.8579 113.843 42.8113 113.732 43.675C113.667 44.1782 113.543 44.6865 113.305 45.0771C113.058 45.4827 112.675 45.7747 112.128 45.7747C111.429 45.7747 110.909 45.5474 110.545 45.1545C110.535 45.1697 110.524 45.1843 110.512 45.1981C110.398 45.3244 110.203 45.3345 110.077 45.2208C109.511 44.7105 108.581 43.416 108.147 42.0956C107.929 41.4337 107.823 40.7279 107.983 40.0952C108.149 39.4421 108.589 38.9031 109.378 38.587C110.31 38.2139 111.383 38.4199 112.215 38.8988ZM110.056 44.2917C109.59 43.7116 109.03 42.8127 108.731 41.9034C108.531 41.2946 108.461 40.7184 108.58 40.2462C108.695 39.7943 108.99 39.4053 109.607 39.1585C110.316 38.8746 111.188 39.0182 111.907 39.4322C112.633 39.8499 113.113 40.4886 113.138 41.101C113.141 41.1747 113.145 41.2608 113.15 41.3571C113.179 41.9083 113.225 42.7944 113.121 43.5962C113.06 44.0683 112.951 44.4756 112.779 44.7568C112.617 45.0231 112.414 45.1591 112.128 45.1591C111.529 45.1591 111.167 44.9565 110.933 44.6625C110.685 44.3525 110.55 43.9036 110.492 43.3654C110.434 42.8315 110.457 42.2465 110.496 41.6928C110.507 41.5305 110.521 41.3686 110.533 41.2112C110.563 40.8469 110.591 40.507 110.591 40.2443C110.591 40.0744 110.453 39.9366 110.283 39.9366C110.113 39.9366 109.975 40.0744 109.975 40.2443C109.975 40.4811 109.951 40.7794 109.922 41.128C109.909 41.2911 109.895 41.4653 109.882 41.6493C109.842 42.2105 109.816 42.8406 109.88 43.4314C109.911 43.7243 109.966 44.017 110.056 44.2917Z" fill="#B0B1C4"/>
<path fill-rule="evenodd" clip-rule="evenodd" d="M114.236 15.9605C114.406 15.9605 114.544 16.0983 114.544 16.2683C114.544 16.5933 114.41 16.8957 114.232 17.1609C114.053 17.4276 113.814 17.6811 113.566 17.9135C113.321 18.1433 113.056 18.3624 112.818 18.5595L112.808 18.5679C112.562 18.7713 112.351 18.9464 112.199 19.0979C110.309 20.9759 108.11 22.7208 106.004 24.3915C105.825 24.5342 105.646 24.6763 105.468 24.8178C105.334 24.9236 105.141 24.9015 105.035 24.7684C104.929 24.6353 104.951 24.4417 105.085 24.336C105.262 24.1953 105.439 24.0543 105.617 23.913C107.728 22.2377 109.901 20.5138 111.765 18.6613C111.941 18.4864 112.175 18.2924 112.413 18.0956L112.419 18.0906C112.661 17.8899 112.914 17.6811 113.145 17.4643C113.379 17.2456 113.58 17.0289 113.721 16.8182C113.863 16.6058 113.929 16.4235 113.929 16.2683C113.929 16.0983 114.066 15.9605 114.236 15.9605Z" fill="#B0B1C4"/>
<path fill-rule="evenodd" clip-rule="evenodd" d="M106.887 16.778C106.999 16.65 107.194 16.6371 107.321 16.749L116.545 24.8202C116.673 24.9321 116.686 25.1266 116.574 25.2545C116.462 25.3824 116.268 25.3954 116.14 25.2834L106.916 17.2122C106.788 17.1003 106.775 16.9059 106.887 16.778Z" fill="#B0B1C4"/>
<path d="M319.223 80.1617C319.652 96.755 287.877 111.038 248.251 112.063C208.625 113.089 176.154 100.468 175.724 83.8749C175.295 67.2815 207.07 52.9987 246.696 51.9733C286.322 50.948 318.793 63.5683 319.223 80.1617Z" fill="url(#paint0_radial_8792_3947)" fill-opacity="0.2"/>
<path d="M210.001 72.0593L223.889 61.0196H257.497L273.607 72.0593V84.6286L257.497 95.7387H225.833L209.446 84.6286L210.001 72.0593Z" fill="white"/>
<path fill-rule="evenodd" clip-rule="evenodd" d="M225.344 60.4546C225.502 60.6451 225.476 60.9279 225.286 61.0863C222.672 63.2595 217.98 66.6467 213.994 69.5234C212.133 70.8671 210.426 72.0994 209.157 73.0445C208.958 73.1925 208.677 73.1514 208.529 72.9527C208.381 72.7541 208.422 72.473 208.621 72.325C209.915 71.3614 211.641 70.1156 213.514 68.7632C217.486 65.8963 222.122 62.5502 224.712 60.3965C224.902 60.2381 225.185 60.2641 225.344 60.4546Z" fill="black"/>
<path fill-rule="evenodd" clip-rule="evenodd" d="M207.689 70.2062C207.83 70.003 208.11 69.9533 208.313 70.0951C210.514 71.6308 212.516 73.0839 214.44 74.4801C218.805 77.6484 222.767 80.5238 227.725 83.4073C227.939 83.5319 228.012 83.8064 227.887 84.0206C227.762 84.2348 227.488 84.3074 227.274 84.1828C222.276 81.2757 218.258 78.3605 213.874 75.1789C211.957 73.7877 209.97 72.3455 207.8 70.8308C207.597 70.689 207.547 70.4093 207.689 70.2062Z" fill="black"/>
<path fill-rule="evenodd" clip-rule="evenodd" d="M255.177 59.6631C255.313 59.4556 255.591 59.397 255.798 59.5324C262.19 63.7012 269.144 68.4298 274.99 72.8835C275.187 73.0336 275.225 73.3151 275.075 73.5121C274.925 73.7092 274.643 73.7472 274.446 73.5971C268.626 69.1627 261.693 64.4477 255.308 60.2839C255.101 60.1485 255.042 59.8706 255.177 59.6631Z" fill="black"/>
<path fill-rule="evenodd" clip-rule="evenodd" d="M254.932 84.0632C255.092 84.2528 255.374 84.2773 255.564 84.1179C257.343 82.623 260.715 80.4242 264.373 78.0583C264.555 77.94 264.739 77.8213 264.923 77.7023C268.402 75.4527 272.057 73.0888 274.71 71.0993C274.908 70.9506 274.948 70.6694 274.799 70.4713C274.651 70.2731 274.37 70.2329 274.171 70.3815C271.545 72.3516 267.913 74.6999 264.423 76.957C264.244 77.0733 264.064 77.1893 263.885 77.3051C260.251 79.656 256.819 81.891 254.987 83.4311C254.797 83.5905 254.773 83.8735 254.932 84.0632Z" fill="black"/>
<path fill-rule="evenodd" clip-rule="evenodd" d="M254.911 97.9443C255.056 98.1455 255.336 98.1915 255.537 98.0469C257.675 96.5108 259.62 95.0576 261.489 93.6613C265.73 90.4932 269.578 87.6184 274.393 84.7353C274.605 84.608 274.675 84.3326 274.547 84.12C274.42 83.9075 274.145 83.8383 273.932 83.9656C269.076 86.8731 265.173 89.789 260.914 92.9707C259.052 94.3619 257.121 95.8039 255.014 97.3183C254.812 97.4629 254.766 97.7431 254.911 97.9443Z" fill="black"/>
<path fill-rule="evenodd" clip-rule="evenodd" d="M208.246 83.536C208.389 83.3337 208.669 83.2856 208.871 83.4286C211.134 85.028 213.193 86.5415 215.172 87.9958C219.662 91.2964 223.738 94.2921 228.838 97.2961C229.052 97.4218 229.123 97.6968 228.997 97.9102C228.871 98.1237 228.596 98.1948 228.383 98.0691C223.242 95.0412 219.111 92.005 214.602 88.6911C212.63 87.2418 210.586 85.7393 208.353 84.1612C208.151 84.0182 208.103 83.7383 208.246 83.536Z" fill="black"/>
<path fill-rule="evenodd" clip-rule="evenodd" d="M222.608 82.1281C222.608 81.8804 222.809 81.6796 223.056 81.6796L261.386 81.6796C261.634 81.6796 261.835 81.8804 261.835 82.1282C261.835 82.3759 261.634 82.5768 261.386 82.5768L223.056 82.5767C222.809 82.5767 222.608 82.3759 222.608 82.1281Z" fill="black"/>
<path fill-rule="evenodd" clip-rule="evenodd" d="M260.275 61.4676C245.555 61.4676 234.761 61.5246 221.416 62.3001C221.168 62.3145 220.956 62.1256 220.942 61.8783C220.927 61.631 221.116 61.4188 221.363 61.4044C234.737 60.6273 245.553 60.5704 260.275 60.5704C260.523 60.5704 260.724 60.7713 260.724 61.019C260.724 61.2668 260.523 61.4676 260.275 61.4676Z" fill="black"/>
<path fill-rule="evenodd" clip-rule="evenodd" d="M258.609 96.237L222.501 96.237C222.253 96.237 222.052 96.0362 222.052 95.7885C222.052 95.5407 222.253 95.3399 222.501 95.3399L258.609 95.3399C258.856 95.3399 259.057 95.5407 259.057 95.7884C259.057 96.0362 258.856 96.237 258.609 96.237Z" fill="black"/>
<path fill-rule="evenodd" clip-rule="evenodd" d="M256.942 61.9406L220.834 61.9406C220.587 61.9406 220.386 61.7398 220.386 61.492C220.386 61.2443 220.587 61.0435 220.834 61.0435L256.942 61.0434C257.19 61.0434 257.391 61.2443 257.391 61.492C257.391 61.7398 257.19 61.9406 256.942 61.9406Z" fill="black"/>
<path fill-rule="evenodd" clip-rule="evenodd" d="M210.279 68.9032C210.527 68.9032 210.727 69.1041 210.727 69.3518V85.4615C210.727 85.7092 210.527 85.9101 210.279 85.9101C210.031 85.9101 209.83 85.7092 209.83 85.4615V69.3518C209.83 69.1041 210.031 68.9032 210.279 68.9032Z" fill="black"/>
<path fill-rule="evenodd" clip-rule="evenodd" d="M273.051 70.0143C273.299 70.0143 273.5 70.2152 273.5 70.4629V86.7665C273.5 87.0142 273.299 87.215 273.051 87.215C272.804 87.215 272.603 87.0142 272.603 86.7665V70.4629C272.603 70.2152 272.804 70.0143 273.051 70.0143Z" fill="black"/>
<path fill-rule="evenodd" clip-rule="evenodd" d="M224.721 80.2911C224.968 80.2911 225.169 80.4919 225.169 80.7396V95.4938C225.169 95.7416 224.968 95.9424 224.721 95.9424C224.473 95.9424 224.272 95.7416 224.272 95.4938V80.7396C224.272 80.4919 224.473 80.2911 224.721 80.2911Z" fill="black"/>
<path fill-rule="evenodd" clip-rule="evenodd" d="M257.496 78.0484C257.744 78.0484 257.945 78.2493 257.945 78.497C257.945 79.1908 257.959 80.5322 257.976 82.1942C258.026 87.1003 258.104 94.8001 257.943 96.8835C257.924 97.1305 257.709 97.3153 257.462 97.2963C257.215 97.2772 257.03 97.0615 257.049 96.8145C257.206 94.7748 257.129 87.1959 257.079 82.2878C257.062 80.5932 257.048 79.2169 257.048 78.497C257.048 78.2493 257.249 78.0484 257.496 78.0484Z" fill="black"/>
<path fill-rule="evenodd" clip-rule="evenodd" d="M212.075 72.5323C212.307 72.6007 212.443 72.8405 212.382 73.0745C212.245 73.6072 211.888 74.6183 211.544 75.5958L211.536 75.6161C211.535 75.6208 211.533 75.6255 211.531 75.6302L210.707 78.104C210.63 78.3333 210.386 78.4608 210.154 78.3924C209.922 78.3239 209.787 78.0842 209.847 77.8502C209.982 77.3265 210.334 76.3267 210.677 75.3546L210.683 75.3391L211.522 72.8207C211.599 72.5914 211.843 72.4639 212.075 72.5323Z" fill="black"/>
<path fill-rule="evenodd" clip-rule="evenodd" d="M213.732 74.4726C213.972 74.5344 214.116 74.779 214.054 75.0189L211.334 85.5736C211.273 85.8135 211.028 85.9578 210.788 85.896C210.548 85.8342 210.404 85.5896 210.466 85.3497L213.186 74.795C213.247 74.5551 213.492 74.4108 213.732 74.4726ZM215.933 75.5836C216.173 75.6454 216.318 75.89 216.256 76.1299L213.393 87.2401C213.331 87.48 213.086 87.6243 212.846 87.5625C212.606 87.5007 212.462 87.2561 212.524 87.0162L215.387 75.9061C215.449 75.6662 215.693 75.5218 215.933 75.5836ZM218.275 77.5279C218.515 77.5897 218.66 77.8343 218.598 78.0742L215.806 88.9066C215.745 89.1465 215.5 89.2909 215.26 89.229C215.02 89.1672 214.876 88.9226 214.938 88.6827L217.729 77.8503C217.791 77.6104 218.036 77.4661 218.275 77.5279Z" fill="black"/>
<path fill-rule="evenodd" clip-rule="evenodd" d="M220.731 79.1942C220.971 79.256 221.115 79.5006 221.053 79.7406L218.405 90.0174C218.343 90.2573 218.098 90.4017 217.859 90.3399C217.619 90.278 217.474 90.0334 217.536 89.7935L220.184 79.5167C220.246 79.2768 220.491 79.1324 220.731 79.1942ZM222.892 80.4623C223.132 80.5241 223.276 80.7687 223.214 81.0086L220.32 92.2394C220.258 92.4794 220.013 92.6237 219.774 92.5619C219.534 92.5001 219.389 92.2555 219.451 92.0156L222.345 80.7847C222.407 80.5448 222.652 80.4005 222.892 80.4623ZM225.346 81.9718C225.586 82.0336 225.73 82.2782 225.668 82.5181L222.734 93.906C222.672 94.1459 222.427 94.2902 222.187 94.2284C221.947 94.1666 221.803 93.922 221.865 93.6821L224.799 82.2942C224.861 82.0543 225.106 81.9099 225.346 81.9718Z" fill="black"/>
<path fill-rule="evenodd" clip-rule="evenodd" d="M233.589 81.9718C233.829 82.0336 233.973 82.2782 233.911 82.5181L230.534 95.6247C230.482 95.8228 230.304 95.9613 230.099 95.9613L227.256 95.9613C227.117 95.9613 226.986 95.8971 226.902 95.7875C226.817 95.6779 226.787 95.5351 226.822 95.4008L230.199 82.2942C230.261 82.0543 230.506 81.91 230.746 81.9718C230.986 82.0336 231.13 82.2782 231.068 82.5181L227.835 95.0641L229.752 95.0641L233.042 82.2942C233.104 82.0543 233.349 81.91 233.589 81.9718ZM228.258 81.9718C228.498 82.0336 228.642 82.2782 228.58 82.5181L225.203 95.6247C225.141 95.8646 224.896 96.0089 224.656 95.9471C224.417 95.8853 224.272 95.6407 224.334 95.4008L227.712 82.2942C227.773 82.0543 228.018 81.91 228.258 81.9718Z" fill="black"/>
<path fill-rule="evenodd" clip-rule="evenodd" d="M241.968 81.6939C242.208 81.7557 242.352 82.0003 242.29 82.2402C241.714 84.4745 241.106 86.8909 240.505 89.277L240.478 89.3823C239.887 91.7318 239.303 94.0489 238.768 96.1279C238.706 96.3678 238.461 96.5121 238.221 96.4503C237.981 96.3885 237.837 96.1439 237.899 95.904C238.434 93.8275 239.017 91.5124 239.609 89.1618L239.635 89.0579C240.236 86.6723 240.845 84.2534 241.421 82.0163C241.483 81.7764 241.728 81.632 241.968 81.6939ZM239.125 81.6939C239.365 81.7557 239.509 82.0003 239.447 82.2402C238.878 84.4479 238.29 86.8486 237.706 89.234L237.69 89.2962C237.112 91.6595 236.537 94.0062 235.99 96.1279C235.928 96.3678 235.684 96.5121 235.444 96.4503C235.204 96.3885 235.059 96.1439 235.121 95.904C235.667 93.7875 236.24 91.4452 236.82 89.0797L236.834 89.0206C237.418 86.6362 238.008 84.2302 238.578 82.0163C238.64 81.7764 238.885 81.632 239.125 81.6939ZM236.642 81.6952C236.881 81.7597 237.023 82.0059 236.958 82.2451L233.211 96.1328C233.146 96.372 232.9 96.5136 232.661 96.449C232.422 96.3845 232.28 96.1383 232.345 95.8991L236.092 82.0114C236.156 81.7722 236.403 81.6306 236.642 81.6952Z" fill="black"/>
<path fill-rule="evenodd" clip-rule="evenodd" d="M250.277 81.9718C250.517 82.0336 250.661 82.2782 250.599 82.5181L247.235 95.5725C247.173 95.8124 246.929 95.9568 246.689 95.895C246.449 95.8331 246.305 95.5885 246.366 95.3486L249.731 82.2942C249.792 82.0543 250.037 81.91 250.277 81.9718ZM247.434 81.9718C247.674 82.0336 247.818 82.2782 247.756 82.5181L244.392 95.5725C244.33 95.8124 244.086 95.9568 243.846 95.895C243.606 95.8331 243.462 95.5885 243.523 95.3486L246.888 82.2942C246.949 82.0543 247.194 81.91 247.434 81.9718ZM244.946 81.9718C245.186 82.0336 245.33 82.2782 245.269 82.5181L241.904 95.5725C241.843 95.8124 241.598 95.9568 241.358 95.895C241.118 95.8331 240.974 95.5885 241.036 95.3486L244.4 82.2942C244.462 82.0543 244.706 81.91 244.946 81.9718Z" fill="black"/>
<path fill-rule="evenodd" clip-rule="evenodd" d="M258.981 80.8605C259.221 80.9223 259.365 81.1669 259.303 81.4068L255.653 95.5722C255.591 95.8121 255.347 95.9565 255.107 95.8946C254.867 95.8328 254.722 95.5882 254.784 95.3483L258.435 81.1829C258.497 80.943 258.741 80.7986 258.981 80.8605ZM255.852 81.9715C256.092 82.0333 256.236 82.2779 256.174 82.5178L252.81 95.5722C252.748 95.8121 252.504 95.9565 252.264 95.8946C252.024 95.8328 251.879 95.5882 251.941 95.3483L255.305 82.2939C255.367 82.054 255.612 81.9096 255.852 81.9715ZM253.364 81.9715C253.604 82.0333 253.748 82.2779 253.686 82.5178L250.322 95.5722C250.26 95.8121 250.016 95.9565 249.776 95.8946C249.536 95.8328 249.392 95.5882 249.453 95.3483L252.818 82.2939C252.879 82.054 253.124 81.9096 253.364 81.9715Z" fill="black"/>
<path fill-rule="evenodd" clip-rule="evenodd" d="M268.998 73.9767C269.238 74.0385 269.383 74.2831 269.321 74.523L265.113 90.8509C265.051 91.0908 264.807 91.2352 264.567 91.1734C264.327 91.1115 264.182 90.8669 264.244 90.627L268.452 74.2992C268.514 74.0593 268.758 73.9149 268.998 73.9767ZM265.455 76.6947C265.695 76.7565 265.839 77.0011 265.777 77.241L261.554 93.6284C261.492 93.8683 261.248 94.0127 261.008 93.9509C260.768 93.8891 260.624 93.6445 260.685 93.4046L264.909 77.0171C264.97 76.7772 265.215 76.6328 265.455 76.6947ZM262.466 78.6389C262.706 78.7008 262.85 78.9454 262.789 79.1853L258.637 95.295C258.575 95.5349 258.331 95.6792 258.091 95.6174C257.851 95.5556 257.706 95.311 257.768 95.0711L261.92 78.9614C261.982 78.7215 262.226 78.5771 262.466 78.6389Z" fill="black"/>
<path fill-rule="evenodd" clip-rule="evenodd" d="M271.825 72.5278C272.065 72.5896 272.209 72.8342 272.147 73.0741L268.21 88.3505C268.149 88.5904 267.904 88.7348 267.664 88.673C267.424 88.6112 267.28 88.3666 267.342 88.1266L271.278 72.8502C271.34 72.6103 271.585 72.466 271.825 72.5278ZM272.952 77.8051C273.192 77.8669 273.337 78.1115 273.275 78.3514L271.128 86.684C271.066 86.9239 270.821 87.0683 270.581 87.0065C270.341 86.9446 270.197 86.7 270.259 86.4601L272.406 78.1275C272.468 77.8876 272.713 77.7433 272.952 77.8051Z" fill="black"/>
<path d="M243.05 120.068C243.531 138.643 207.782 154.636 163.203 155.79C118.624 156.943 82.0956 142.82 81.6149 124.246C81.1343 105.671 116.883 89.6783 161.462 88.5248C206.042 87.3712 242.57 101.494 243.05 120.068Z" fill="url(#paint1_radial_8792_3947)" fill-opacity="0.2"/>
<path d="M120.218 107.965L138.498 93.4343H182.735L203.939 107.965V124.51L182.735 139.134H141.057L119.487 124.51L120.218 107.965Z" fill="white"/>
<path fill-rule="evenodd" clip-rule="evenodd" d="M140.304 92.7822C140.463 92.9727 140.437 93.2555 140.246 93.4139C136.81 96.2712 130.642 100.723 125.399 104.508C122.947 106.278 120.697 107.902 119.023 109.149C118.824 109.297 118.543 109.256 118.395 109.057C118.247 108.859 118.288 108.578 118.487 108.43C120.186 107.164 122.455 105.527 124.919 103.748C130.149 99.9728 136.26 95.562 139.673 92.724C139.863 92.5656 140.146 92.5917 140.304 92.7822Z" fill="black"/>
<path fill-rule="evenodd" clip-rule="evenodd" d="M117.291 105.608C117.433 105.405 117.712 105.355 117.915 105.497C120.807 107.515 123.44 109.426 125.971 111.263C131.72 115.435 136.944 119.226 143.476 123.025C143.69 123.15 143.763 123.425 143.638 123.639C143.513 123.853 143.239 123.925 143.025 123.801C136.452 119.978 131.173 116.147 125.406 111.962C122.881 110.13 120.263 108.23 117.402 106.232C117.199 106.091 117.149 105.811 117.291 105.608Z" fill="black"/>
<path fill-rule="evenodd" clip-rule="evenodd" d="M179.801 91.7268C179.936 91.5193 180.214 91.4608 180.421 91.5962C188.834 97.0825 197.984 103.304 205.674 109.164C205.871 109.314 205.909 109.595 205.759 109.792C205.609 109.989 205.328 110.027 205.131 109.877C197.466 104.037 188.336 97.8291 179.931 92.3476C179.724 92.2123 179.665 91.9344 179.801 91.7268Z" fill="black"/>
<path fill-rule="evenodd" clip-rule="evenodd" d="M179.466 123.675C179.626 123.865 179.909 123.889 180.098 123.73C182.448 121.755 186.897 118.855 191.707 115.743C191.947 115.588 192.188 115.432 192.429 115.276C197.01 112.314 201.817 109.205 205.305 106.589C205.503 106.44 205.543 106.159 205.395 105.961C205.246 105.763 204.965 105.722 204.767 105.871C201.305 108.467 196.522 111.561 191.93 114.531C191.692 114.684 191.455 114.837 191.219 114.99C186.432 118.087 181.924 121.023 179.521 123.043C179.331 123.202 179.307 123.485 179.466 123.675Z" fill="black"/>
<path fill-rule="evenodd" clip-rule="evenodd" d="M179.445 141.955C179.59 142.156 179.87 142.202 180.071 142.057C182.881 140.039 185.439 138.128 187.898 136.291C193.482 132.118 198.556 128.328 204.901 124.529C205.113 124.402 205.182 124.127 205.055 123.914C204.928 123.701 204.652 123.632 204.44 123.76C198.054 127.583 192.925 131.414 187.322 135.6C184.87 137.432 182.327 139.332 179.548 141.329C179.347 141.473 179.301 141.754 179.445 141.955Z" fill="black"/>
<path fill-rule="evenodd" clip-rule="evenodd" d="M118.023 123.154C118.166 122.952 118.446 122.903 118.649 123.046C121.622 125.148 124.33 127.139 126.934 129.052C132.848 133.399 138.221 137.348 144.94 141.306C145.154 141.432 145.225 141.707 145.099 141.92C144.973 142.134 144.698 142.205 144.485 142.079C137.725 138.097 132.296 134.107 126.364 129.747C123.767 127.839 121.074 125.86 118.131 123.779C117.929 123.636 117.88 123.356 118.023 123.154Z" fill="black"/>
<path fill-rule="evenodd" clip-rule="evenodd" d="M136.953 121.219C136.953 120.971 137.153 120.77 137.401 120.77L187.853 120.771C188.101 120.771 188.302 120.971 188.302 121.219C188.302 121.467 188.101 121.668 187.853 121.668L137.401 121.668C137.153 121.668 136.953 121.467 136.953 121.219Z" fill="black"/>
<path fill-rule="evenodd" clip-rule="evenodd" d="M186.391 93.8829C167.015 93.8829 152.804 93.9578 135.234 94.9789C134.987 94.9933 134.774 94.8044 134.76 94.5571C134.746 94.3098 134.935 94.0976 135.182 94.0832C152.78 93.0605 167.014 92.9857 186.391 92.9857C186.639 92.9857 186.84 93.1865 186.84 93.4343C186.84 93.682 186.639 93.8829 186.391 93.8829Z" fill="black"/>
<path fill-rule="evenodd" clip-rule="evenodd" d="M184.198 139.648L136.671 139.648C136.423 139.648 136.222 139.447 136.222 139.199C136.222 138.952 136.423 138.751 136.671 138.751L184.198 138.751C184.446 138.751 184.646 138.952 184.646 139.199C184.646 139.447 184.446 139.648 184.198 139.648Z" fill="black"/>
<path fill-rule="evenodd" clip-rule="evenodd" d="M182.004 94.5052L134.477 94.5052C134.229 94.5052 134.028 94.3044 134.028 94.0566C134.028 93.8089 134.229 93.6081 134.477 93.6081L182.004 93.608C182.252 93.608 182.453 93.8089 182.453 94.0566C182.453 94.3044 182.252 94.5052 182.004 94.5052Z" fill="black"/>
<path fill-rule="evenodd" clip-rule="evenodd" d="M120.583 103.954C120.831 103.954 121.032 104.155 121.032 104.402V125.607C121.032 125.855 120.831 126.055 120.583 126.055C120.336 126.055 120.135 125.855 120.135 125.607V104.402C120.135 104.155 120.336 103.954 120.583 103.954Z" fill="black"/>
<path fill-rule="evenodd" clip-rule="evenodd" d="M203.208 105.416C203.456 105.416 203.657 105.617 203.657 105.865V127.324C203.657 127.572 203.456 127.773 203.208 127.773C202.961 127.773 202.76 127.572 202.76 127.324V105.865C202.76 105.617 202.961 105.416 203.208 105.416Z" fill="black"/>
<path fill-rule="evenodd" clip-rule="evenodd" d="M139.593 118.943C139.84 118.943 140.041 119.144 140.041 119.391V138.812C140.041 139.059 139.84 139.26 139.593 139.26C139.345 139.26 139.144 139.059 139.144 138.812V119.391C139.144 119.144 139.345 118.943 139.593 118.943Z" fill="black"/>
<path fill-rule="evenodd" clip-rule="evenodd" d="M182.735 115.991C182.983 115.991 183.183 116.192 183.183 116.44C183.183 117.357 183.201 119.128 183.224 121.321C183.29 127.779 183.393 137.895 183.182 140.63C183.163 140.877 182.947 141.062 182.7 141.043C182.453 141.024 182.268 140.808 182.287 140.561C182.495 137.87 182.393 127.875 182.327 121.415C182.305 119.189 182.286 117.383 182.286 116.44C182.286 116.192 182.487 115.991 182.735 115.991Z" fill="black"/>
<path fill-rule="evenodd" clip-rule="evenodd" d="M122.905 108.725C123.137 108.793 123.273 109.033 123.212 109.267C123.033 109.962 122.565 111.289 122.109 112.582L122.103 112.6C122.1 112.607 122.098 112.614 122.096 112.62L121.01 115.877C120.933 116.107 120.689 116.234 120.457 116.166C120.225 116.097 120.089 115.858 120.15 115.624C120.326 114.94 120.789 113.628 121.242 112.342L121.247 112.329L122.352 109.013C122.429 108.784 122.673 108.656 122.905 108.725Z" fill="black"/>
<path fill-rule="evenodd" clip-rule="evenodd" d="M125.091 111.28C125.331 111.342 125.475 111.586 125.413 111.826L121.833 125.719C121.771 125.959 121.527 126.103 121.287 126.041C121.047 125.98 120.903 125.735 120.964 125.495L124.545 111.602C124.606 111.363 124.851 111.218 125.091 111.28ZM127.988 112.742C128.228 112.804 128.373 113.049 128.311 113.289L124.542 127.912C124.481 128.152 124.236 128.297 123.996 128.235C123.756 128.173 123.612 127.928 123.674 127.689L127.442 113.065C127.504 112.825 127.749 112.681 127.988 112.742ZM131.071 115.302C131.311 115.363 131.455 115.608 131.394 115.848L127.719 130.106C127.657 130.346 127.413 130.49 127.173 130.428C126.933 130.367 126.789 130.122 126.85 129.882L130.525 115.624C130.587 115.384 130.831 115.24 131.071 115.302Z" fill="black"/>
<path fill-rule="evenodd" clip-rule="evenodd" d="M134.303 117.495C134.543 117.557 134.687 117.801 134.625 118.041L131.14 131.568C131.078 131.808 130.833 131.952 130.593 131.89C130.353 131.829 130.209 131.584 130.271 131.344L133.757 117.817C133.819 117.577 134.063 117.433 134.303 117.495ZM137.147 119.164C137.387 119.226 137.532 119.47 137.47 119.71L133.66 134.493C133.598 134.733 133.354 134.877 133.114 134.815C132.874 134.753 132.73 134.509 132.791 134.269L136.601 119.486C136.663 119.246 136.907 119.102 137.147 119.164ZM140.378 121.151C140.617 121.212 140.762 121.457 140.7 121.697L136.837 136.686C136.775 136.926 136.531 137.071 136.291 137.009C136.051 136.947 135.907 136.702 135.968 136.462L139.831 121.473C139.893 121.233 140.138 121.089 140.378 121.151Z" fill="black"/>
<path fill-rule="evenodd" clip-rule="evenodd" d="M151.228 121.151C151.468 121.213 151.612 121.457 151.551 121.697L147.105 138.949C147.054 139.147 146.875 139.285 146.67 139.285L142.928 139.285C142.79 139.285 142.659 139.221 142.574 139.111C142.489 139.002 142.459 138.859 142.494 138.725L146.94 121.473C147.001 121.233 147.246 121.089 147.486 121.151C147.726 121.213 147.87 121.457 147.808 121.697L143.507 138.388L146.323 138.388L150.682 121.473C150.744 121.233 150.988 121.089 151.228 121.151ZM144.212 121.151C144.451 121.213 144.596 121.457 144.534 121.697L140.088 138.949C140.026 139.189 139.782 139.333 139.542 139.271C139.302 139.209 139.158 138.965 139.219 138.725L143.665 121.473C143.727 121.233 143.972 121.089 144.212 121.151Z" fill="black"/>
<path fill-rule="evenodd" clip-rule="evenodd" d="M162.257 120.785C162.496 120.847 162.641 121.092 162.579 121.332C161.821 124.273 161.02 127.454 160.229 130.595L160.194 130.733C159.415 133.826 158.647 136.875 157.942 139.611C157.88 139.851 157.636 139.996 157.396 139.934C157.156 139.872 157.012 139.627 157.073 139.387C157.778 136.654 158.545 133.607 159.324 130.513L159.359 130.375C160.15 127.235 160.951 124.052 161.71 121.108C161.772 120.868 162.017 120.723 162.257 120.785ZM158.514 120.785C158.754 120.847 158.899 121.092 158.837 121.332C158.088 124.238 157.313 127.399 156.544 130.539L156.524 130.62C155.762 133.731 155.006 136.819 154.286 139.611C154.224 139.851 153.98 139.996 153.74 139.934C153.5 139.872 153.356 139.627 153.417 139.387C154.136 136.601 154.891 133.517 155.654 130.404L155.673 130.325C156.441 127.187 157.217 124.021 157.968 121.108C158.03 120.868 158.274 120.723 158.514 120.785ZM155.245 120.786C155.484 120.851 155.626 121.097 155.561 121.336L150.629 139.616C150.564 139.855 150.318 139.997 150.079 139.932C149.84 139.868 149.698 139.622 149.763 139.382L154.695 121.103C154.759 120.864 155.006 120.722 155.245 120.786Z" fill="black"/>
<path fill-rule="evenodd" clip-rule="evenodd" d="M173.193 121.151C173.433 121.213 173.577 121.457 173.515 121.697L169.087 138.88C169.025 139.12 168.781 139.264 168.541 139.202C168.301 139.141 168.157 138.896 168.218 138.656L172.646 121.473C172.708 121.233 172.953 121.089 173.193 121.151ZM169.451 121.151C169.69 121.213 169.835 121.457 169.773 121.697L165.345 138.88C165.283 139.12 165.039 139.264 164.799 139.202C164.559 139.141 164.414 138.896 164.476 138.656L168.904 121.473C168.966 121.233 169.211 121.089 169.451 121.151ZM166.176 121.151C166.416 121.213 166.56 121.457 166.499 121.697L162.071 138.88C162.009 139.12 161.764 139.264 161.524 139.202C161.284 139.141 161.14 138.896 161.202 138.656L165.63 121.473C165.692 121.233 165.936 121.089 166.176 121.151Z" fill="black"/>
<path fill-rule="evenodd" clip-rule="evenodd" d="M184.65 119.688C184.89 119.75 185.034 119.995 184.972 120.234L180.167 138.88C180.106 139.12 179.861 139.264 179.621 139.202C179.381 139.14 179.237 138.896 179.299 138.656L184.103 120.011C184.165 119.771 184.41 119.626 184.65 119.688ZM180.531 121.15C180.771 121.212 180.915 121.457 180.853 121.697L176.425 138.88C176.363 139.12 176.119 139.264 175.879 139.202C175.639 139.14 175.495 138.896 175.556 138.656L179.984 121.473C180.046 121.233 180.291 121.089 180.531 121.15ZM177.256 121.15C177.496 121.212 177.641 121.457 177.579 121.697L173.151 138.88C173.089 139.12 172.844 139.264 172.604 139.202C172.364 139.14 172.22 138.896 172.282 138.656L176.71 121.473C176.772 121.233 177.016 121.089 177.256 121.15Z" fill="black"/>
<path fill-rule="evenodd" clip-rule="evenodd" d="M197.836 110.627C198.076 110.689 198.22 110.933 198.158 111.173L192.62 132.665C192.558 132.905 192.313 133.049 192.073 132.987C191.833 132.926 191.689 132.681 191.751 132.441L197.289 110.95C197.351 110.71 197.596 110.565 197.836 110.627ZM193.171 114.205C193.411 114.266 193.556 114.511 193.494 114.751L187.935 136.321C187.873 136.561 187.629 136.705 187.389 136.643C187.149 136.582 187.005 136.337 187.066 136.097L192.625 114.527C192.687 114.287 192.932 114.143 193.171 114.205ZM189.238 116.764C189.477 116.826 189.622 117.07 189.56 117.31L184.096 138.515C184.034 138.754 183.789 138.899 183.549 138.837C183.309 138.775 183.165 138.531 183.227 138.291L188.691 117.086C188.753 116.846 188.998 116.702 189.238 116.764Z" fill="black"/>
<path fill-rule="evenodd" clip-rule="evenodd" d="M201.555 108.72C201.795 108.782 201.94 109.027 201.878 109.267L196.696 129.374C196.634 129.614 196.39 129.759 196.15 129.697C195.91 129.635 195.766 129.39 195.827 129.15L201.009 109.043C201.071 108.803 201.316 108.658 201.555 108.72ZM203.04 115.667C203.28 115.728 203.424 115.973 203.362 116.213L200.536 127.181C200.474 127.421 200.229 127.565 199.99 127.503C199.75 127.441 199.605 127.197 199.667 126.957L202.494 115.989C202.555 115.749 202.8 115.605 203.04 115.667Z" fill="black"/>
<path d="M162.306 83.2852C162.786 101.86 127.037 117.853 82.4583 119.006C37.8791 120.16 1.35092 106.037 0.870281 87.4626C0.389638 68.8879 36.1386 52.895 80.7177 51.7415C125.297 50.588 161.825 64.7106 162.306 83.2852Z" fill="url(#paint2_radial_8792_3947)" fill-opacity="0.2"/>
<path d="M48.37 72.0588L62.2576 61.019H95.8657L111.975 72.0588V84.628L95.8657 95.7382H64.2019L47.8145 84.628L48.37 72.0588Z" fill="white"/>
<path fill-rule="evenodd" clip-rule="evenodd" d="M63.7121 60.4544C63.8704 60.6449 63.8444 60.9277 63.6539 61.0861C61.0404 63.2593 56.3479 66.6465 52.3628 69.5232C50.5014 70.8669 48.7943 72.0992 47.5254 73.0443C47.3267 73.1923 47.0457 73.1512 46.8977 72.9525C46.7497 72.7539 46.7908 72.4728 46.9895 72.3248C48.2832 71.3612 50.0091 70.1154 51.8827 68.763C55.8545 65.8961 60.4901 62.55 63.0803 60.3963C63.2708 60.2379 63.5537 60.2639 63.7121 60.4544Z" fill="black"/>
<path fill-rule="evenodd" clip-rule="evenodd" d="M46.0573 70.206C46.1991 70.0028 46.4788 69.9531 46.6819 70.0949C48.8823 71.6306 50.8845 73.0837 52.8083 74.4799C57.1739 77.6482 61.1358 80.5236 66.0934 83.4071C66.3076 83.5317 66.3802 83.8062 66.2557 84.0204C66.1311 84.2345 65.8565 84.3072 65.6424 84.1826C60.6442 81.2755 56.6271 78.3602 52.2431 75.1787C50.3259 73.7874 48.3386 72.3452 46.1684 70.8305C45.9653 70.6888 45.9155 70.4091 46.0573 70.206Z" fill="black"/>
<path fill-rule="evenodd" clip-rule="evenodd" d="M93.546 59.6629C93.6814 59.4554 93.9593 59.3969 94.1668 59.5322C100.559 63.701 107.513 68.4296 113.359 72.8833C113.556 73.0334 113.594 73.3149 113.444 73.5119C113.293 73.709 113.012 73.747 112.815 73.5969C106.995 69.1625 100.061 64.4475 93.6767 60.2837C93.4692 60.1483 93.4107 59.8704 93.546 59.6629Z" fill="black"/>
<path fill-rule="evenodd" clip-rule="evenodd" d="M93.3008 84.063C93.4602 84.2526 93.7431 84.2771 93.9328 84.1177C95.7113 82.6228 99.0841 80.424 102.741 78.0581C102.924 77.9398 103.108 77.8211 103.292 77.7021C106.77 75.4525 110.426 73.0886 113.078 71.0991C113.276 70.9504 113.317 70.6692 113.168 70.4711C113.019 70.2729 112.738 70.2327 112.54 70.3813C109.913 72.3514 106.282 74.6997 102.792 76.9568C102.612 77.0731 102.433 77.1891 102.254 77.3049C98.6199 79.6558 95.1878 81.8908 93.3555 83.4309C93.1659 83.5903 93.1414 83.8733 93.3008 84.063Z" fill="black"/>
<path fill-rule="evenodd" clip-rule="evenodd" d="M93.2796 97.9441C93.4242 98.1453 93.7045 98.1913 93.9057 98.0467C96.0436 96.5106 97.9888 95.0574 99.8578 93.6611C104.098 90.493 107.946 87.6182 112.762 84.7351C112.974 84.6078 113.043 84.3324 112.916 84.1198C112.789 83.9073 112.513 83.8381 112.301 83.9654C107.445 86.8729 103.541 89.7888 99.2825 92.9705C97.4202 94.3617 95.4899 95.8037 93.3822 97.3181C93.181 97.4627 93.1351 97.7429 93.2796 97.9441Z" fill="black"/>
<path fill-rule="evenodd" clip-rule="evenodd" d="M46.6145 83.5358C46.7575 83.3335 47.0375 83.2854 47.2398 83.4284C49.5026 85.0279 51.5618 86.5413 53.5405 87.9956C58.031 91.2962 62.1069 94.2919 67.2067 97.2959C67.4202 97.4216 67.4913 97.6966 67.3656 97.91C67.2398 98.1235 66.9649 98.1946 66.7514 98.0689C61.611 95.041 57.4798 92.0048 52.9708 88.6909C50.9988 87.2416 48.9545 85.7391 46.7219 84.161C46.5196 84.018 46.4715 83.7381 46.6145 83.5358Z" fill="black"/>
<path fill-rule="evenodd" clip-rule="evenodd" d="M60.9766 82.1279C60.9766 81.8802 61.1774 81.6794 61.4251 81.6794L99.7551 81.6794C100.003 81.6794 100.204 81.8802 100.204 82.128C100.204 82.3757 100.003 82.5765 99.7551 82.5765L61.4251 82.5765C61.1774 82.5765 60.9766 82.3757 60.9766 82.1279Z" fill="black"/>
<path fill-rule="evenodd" clip-rule="evenodd" d="M98.6434 61.4674C83.9232 61.4674 73.129 61.5243 59.7839 62.2999C59.5366 62.3143 59.3245 62.1254 59.3101 61.8781C59.2957 61.6308 59.4846 61.4186 59.7319 61.4042C73.1051 60.6271 83.9217 60.5702 98.6434 60.5702C98.8911 60.5702 99.0919 60.7711 99.0919 61.0188C99.0919 61.2665 98.8911 61.4674 98.6434 61.4674Z" fill="black"/>
<path fill-rule="evenodd" clip-rule="evenodd" d="M96.9774 96.2366L60.8695 96.2366C60.6217 96.2366 60.4209 96.0358 60.4209 95.788C60.4209 95.5403 60.6217 95.3394 60.8695 95.3394L96.9774 95.3394C97.2251 95.3394 97.426 95.5403 97.426 95.788C97.426 96.0357 97.2251 96.2366 96.9774 96.2366Z" fill="black"/>
<path fill-rule="evenodd" clip-rule="evenodd" d="M95.3104 61.9404L59.2025 61.9404C58.9547 61.9404 58.7539 61.7396 58.7539 61.4918C58.7539 61.2441 58.9547 61.0432 59.2025 61.0432L95.3104 61.0432C95.5581 61.0432 95.759 61.2441 95.759 61.4918C95.759 61.7396 95.5581 61.9404 95.3104 61.9404Z" fill="black"/>
<path fill-rule="evenodd" clip-rule="evenodd" d="M48.6476 68.903C48.8953 68.903 49.0961 69.1039 49.0961 69.3516V85.4613C49.0961 85.709 48.8953 85.9099 48.6476 85.9099C48.3998 85.9099 48.199 85.709 48.199 85.4613V69.3516C48.199 69.1039 48.3998 68.903 48.6476 68.903Z" fill="black"/>
<path fill-rule="evenodd" clip-rule="evenodd" d="M111.42 70.0141C111.668 70.0141 111.869 70.215 111.869 70.4627V86.7662C111.869 87.014 111.668 87.2148 111.42 87.2148C111.172 87.2148 110.971 87.014 110.971 86.7662V70.4627C110.971 70.215 111.172 70.0141 111.42 70.0141Z" fill="black"/>
<path fill-rule="evenodd" clip-rule="evenodd" d="M63.089 80.2909C63.3367 80.2909 63.5375 80.4917 63.5375 80.7394V95.4936C63.5375 95.7414 63.3367 95.9422 63.089 95.9422C62.8412 95.9422 62.6404 95.7414 62.6404 95.4936V80.7394C62.6404 80.4917 62.8412 80.2909 63.089 80.2909Z" fill="black"/>
<path fill-rule="evenodd" clip-rule="evenodd" d="M95.8651 78.0482C96.1128 78.0482 96.3137 78.2491 96.3137 78.4968C96.3137 79.1906 96.3273 80.532 96.3443 82.194C96.3943 87.1001 96.4727 94.7999 96.3121 96.8833C96.2931 97.1303 96.0774 97.3151 95.8304 97.2961C95.5834 97.277 95.3986 97.0613 95.4176 96.8143C95.5749 94.7746 95.4977 87.1957 95.4478 82.2876C95.4305 80.593 95.4165 79.2167 95.4165 78.4968C95.4165 78.2491 95.6174 78.0482 95.8651 78.0482Z" fill="black"/>
<path fill-rule="evenodd" clip-rule="evenodd" d="M50.4429 72.532C50.6747 72.6004 50.8106 72.8401 50.7503 73.0742C50.613 73.6069 50.2564 74.6179 49.9115 75.5955L49.9044 75.6158C49.9027 75.6205 49.9011 75.6252 49.8994 75.6299L49.0747 78.1037C48.9983 78.3329 48.754 78.4604 48.5222 78.392C48.2904 78.3236 48.1545 78.0839 48.2148 77.8498C48.3497 77.3261 48.7024 76.3264 49.0453 75.3543L49.0508 75.3388L49.8903 72.8204C49.9668 72.5911 50.2111 72.4636 50.4429 72.532Z" fill="black"/>
<path fill-rule="evenodd" clip-rule="evenodd" d="M52.0999 74.4723C52.3398 74.5341 52.4842 74.7787 52.4224 75.0186L49.7024 85.5732C49.6406 85.8131 49.396 85.9575 49.1561 85.8957C48.9162 85.8338 48.7718 85.5892 48.8336 85.3493L51.5536 74.7947C51.6154 74.5548 51.86 74.4104 52.0999 74.4723ZM54.3013 75.5833C54.5412 75.6451 54.6856 75.8897 54.6237 76.1296L51.7606 87.2397C51.6988 87.4796 51.4542 87.624 51.2143 87.5622C50.9744 87.5004 50.83 87.2558 50.8919 87.0159L53.755 75.9057C53.8168 75.6658 54.0614 75.5215 54.3013 75.5833ZM56.6433 77.5276C56.8832 77.5894 57.0276 77.834 56.9658 78.0739L54.1742 88.9063C54.1124 89.1462 53.8678 89.2905 53.6279 89.2287C53.388 89.1669 53.2436 88.9223 53.3055 88.6824L56.097 77.85C56.1588 77.6101 56.4034 77.4657 56.6433 77.5276Z" fill="black"/>
<path fill-rule="evenodd" clip-rule="evenodd" d="M59.0992 79.1939C59.3391 79.2557 59.4835 79.5003 59.4216 79.7402L56.7733 90.0171C56.7114 90.257 56.4668 90.4014 56.2269 90.3395C55.987 90.2777 55.8427 90.0331 55.9045 89.7932L58.5529 79.5163C58.6147 79.2764 58.8593 79.1321 59.0992 79.1939ZM61.2601 80.462C61.5 80.5238 61.6444 80.7684 61.5825 81.0083L58.6883 92.2391C58.6265 92.479 58.3819 92.6234 58.142 92.5616C57.9021 92.4997 57.7577 92.2551 57.8196 92.0152L60.7138 80.7844C60.7756 80.5445 61.0202 80.4001 61.2601 80.462ZM63.7142 81.9714C63.9541 82.0332 64.0984 82.2778 64.0366 82.5177L61.1019 93.9056C61.0401 94.1455 60.7955 94.2899 60.5556 94.2281C60.3157 94.1663 60.1713 93.9217 60.2332 93.6817L63.1678 82.2939C63.2297 82.054 63.4743 81.9096 63.7142 81.9714Z" fill="black"/>
<path fill-rule="evenodd" clip-rule="evenodd" d="M71.9576 81.9717C72.1975 82.0335 72.3419 82.2781 72.28 82.518L68.9025 95.6246C68.8514 95.8227 68.6727 95.9612 68.4681 95.9612L65.625 95.9612C65.4863 95.9612 65.3554 95.897 65.2704 95.7874C65.1855 95.6778 65.156 95.535 65.1906 95.4007L68.5682 82.2941C68.63 82.0542 68.8746 81.9099 69.1145 81.9717C69.3544 82.0335 69.4988 82.2781 69.437 82.518L66.2038 95.064L68.1204 95.064L71.4113 82.2941C71.4731 82.0542 71.7177 81.9099 71.9576 81.9717ZM66.6268 81.9717C66.8667 82.0335 67.0111 82.2781 66.9493 82.518L63.5717 95.6246C63.5099 95.8645 63.2653 96.0088 63.0254 95.947C62.7855 95.8852 62.6411 95.6406 62.7029 95.4007L66.0805 82.2941C66.1423 82.0542 66.3869 81.9099 66.6268 81.9717Z" fill="black"/>
<path fill-rule="evenodd" clip-rule="evenodd" d="M80.3362 81.6937C80.5761 81.7555 80.7204 82.0001 80.6586 82.2401C80.0828 84.4743 79.4741 86.8908 78.8733 89.2769L78.8468 89.3821C78.2551 91.7317 77.6717 94.0488 77.1359 96.1277C77.0741 96.3676 76.8295 96.512 76.5896 96.4502C76.3497 96.3883 76.2053 96.1437 76.2671 95.9038C76.8022 93.8274 77.3852 91.5122 77.9771 89.1617L78.0033 89.0578C78.604 86.6722 79.2133 84.2533 79.7898 82.0162C79.8516 81.7763 80.0962 81.6319 80.3362 81.6937ZM77.4931 81.6937C77.733 81.7555 77.8774 82.0001 77.8155 82.2401C77.2466 84.4478 76.6583 86.8484 76.074 89.2339L76.0588 89.2961C75.48 91.6593 74.9051 94.006 74.3584 96.1277C74.2966 96.3676 74.052 96.512 73.8121 96.4502C73.5721 96.3883 73.4278 96.1437 73.4896 95.9038C74.035 93.7874 74.6087 91.4451 75.1882 89.0795L75.2026 89.0205C75.7867 86.6361 76.3762 84.2301 76.9467 82.0162C77.0086 81.7763 77.2532 81.6319 77.4931 81.6937ZM75.0103 81.695C75.2495 81.7596 75.3911 82.0058 75.3265 82.245L71.5793 96.1326C71.5148 96.3718 71.2686 96.5134 71.0294 96.4489C70.7902 96.3843 70.6486 96.1381 70.7131 95.8989L74.4604 82.0113C74.5249 81.7721 74.7711 81.6305 75.0103 81.695Z" fill="black"/>
<path fill-rule="evenodd" clip-rule="evenodd" d="M88.6453 81.9717C88.8852 82.0335 89.0296 82.2781 88.9678 82.518L85.6036 95.5724C85.5418 95.8123 85.2972 95.9567 85.0573 95.8949C84.8174 95.833 84.673 95.5884 84.7349 95.3485L88.099 82.2941C88.1608 82.0542 88.4054 81.9099 88.6453 81.9717ZM85.8023 81.9717C86.0422 82.0335 86.1865 82.2781 86.1247 82.518L82.7606 95.5724C82.6987 95.8123 82.4541 95.9567 82.2142 95.8949C81.9743 95.833 81.83 95.5884 81.8918 95.3485L85.2559 82.2941C85.3178 82.0542 85.5624 81.9099 85.8023 81.9717ZM83.3146 81.9717C83.5545 82.0335 83.6988 82.2781 83.637 82.518L80.2729 95.5724C80.2111 95.8123 79.9665 95.9567 79.7265 95.8948C79.4866 95.833 79.3423 95.5884 79.4041 95.3485L82.7682 82.2941C82.8301 82.0542 83.0747 81.9099 83.3146 81.9717Z" fill="black"/>
<path fill-rule="evenodd" clip-rule="evenodd" d="M97.3492 80.8603C97.5891 80.9222 97.7335 81.1668 97.6716 81.4067L94.0212 95.5721C93.9594 95.812 93.7148 95.9563 93.4749 95.8945C93.2349 95.8327 93.0906 95.5881 93.1524 95.3482L96.8029 81.1828C96.8647 80.9429 97.1093 80.7985 97.3492 80.8603ZM94.2198 81.9714C94.4597 82.0332 94.6041 82.2778 94.5423 82.5177L91.1781 95.5721C91.1163 95.812 90.8717 95.9563 90.6318 95.8945C90.3919 95.8327 90.2475 95.5881 90.3093 95.3482L93.6735 82.2938C93.7353 82.0539 93.9799 81.9095 94.2198 81.9714ZM91.7321 81.9714C91.972 82.0332 92.1164 82.2778 92.0546 82.5177L88.6904 95.5721C88.6286 95.812 88.384 95.9563 88.1441 95.8945C87.9042 95.8327 87.7598 95.5881 87.8216 95.3482L91.1858 82.2938C91.2476 82.0539 91.4922 81.9095 91.7321 81.9714Z" fill="black"/>
<path fill-rule="evenodd" clip-rule="evenodd" d="M107.366 73.9764C107.606 74.0382 107.751 74.2828 107.689 74.5227L103.481 90.8506C103.419 91.0905 103.175 91.2348 102.935 91.173C102.695 91.1112 102.55 90.8666 102.612 90.6267L106.82 74.2988C106.882 74.0589 107.126 73.9146 107.366 73.9764ZM103.823 76.6943C104.063 76.7562 104.207 77.0008 104.145 77.2407L99.9222 93.6281C99.8603 93.868 99.6157 94.0124 99.3758 93.9506C99.1359 93.8887 98.9916 93.6441 99.0534 93.4042L103.276 77.0168C103.338 76.7769 103.583 76.6325 103.823 76.6943ZM100.834 78.6386C101.074 78.7004 101.218 78.945 101.157 79.1849L97.005 95.2946C96.9432 95.5345 96.6986 95.6789 96.4587 95.6171C96.2188 95.5552 96.0744 95.3106 96.1362 95.0707L100.288 78.9611C100.35 78.7211 100.594 78.5768 100.834 78.6386Z" fill="black"/>
<path fill-rule="evenodd" clip-rule="evenodd" d="M110.193 72.5276C110.433 72.5895 110.577 72.8341 110.515 73.074L106.579 88.3504C106.517 88.5903 106.272 88.7347 106.032 88.6728C105.792 88.611 105.648 88.3664 105.71 88.1265L109.647 72.8501C109.708 72.6102 109.953 72.4658 110.193 72.5276ZM111.321 77.8049C111.561 77.8668 111.705 78.1114 111.643 78.3513L109.496 86.6839C109.434 86.9238 109.189 87.0681 108.949 87.0063C108.71 86.9445 108.565 86.6999 108.627 86.46L110.774 78.1274C110.836 77.8875 111.081 77.7431 111.321 77.8049Z" fill="black"/>
<path fill-rule="evenodd" clip-rule="evenodd" d="M76.4263 69.9021C71.6082 69.9465 66.8406 69.9905 62.68 69.9905C57.0521 69.9905 53.7173 70.5451 51.6734 71.4228C50.6598 71.858 49.9716 72.3695 49.477 72.9271C48.9816 73.4857 48.6626 74.1103 48.4132 74.7981C48.2264 75.3131 48.0845 75.8438 47.9335 76.4088C47.8791 76.6122 47.8235 76.8201 47.7642 77.0333C47.5441 77.8249 47.2795 78.66 46.8468 79.4951C45.9709 81.1858 44.4389 82.8137 41.3334 84.194C40.904 84.3848 40.2748 84.5248 39.4777 84.634C38.6708 84.7445 37.6555 84.828 36.4316 84.8906C33.9836 85.0159 30.6714 85.0589 26.4666 85.0606C26.2188 85.0607 26.0179 84.8599 26.0178 84.6122C26.0177 84.3644 26.2185 84.1635 26.4662 84.1634C30.6697 84.1617 33.9623 84.1186 36.3858 83.9946C37.5977 83.9326 38.5848 83.8508 39.3559 83.7451C40.1366 83.6381 40.6609 83.5111 40.969 83.3741C43.9169 82.064 45.2813 80.5664 46.0502 79.0823C46.4401 78.33 46.6851 77.5653 46.8998 76.793C46.9534 76.6004 47.0056 76.4052 47.058 76.209C47.2121 75.6324 47.3685 75.047 47.5698 74.4922C47.844 73.7361 48.2123 73.0009 48.8058 72.3318C49.4002 71.6618 50.2026 71.078 51.3195 70.5984C53.5366 69.6464 57.0224 69.0933 62.68 69.0933C66.8142 69.0933 71.5642 69.0496 76.3726 69.0053C86.1752 68.915 96.2203 68.8224 101.785 69.0939C104.087 69.2061 105.568 70.707 106.557 72.8018C107.541 74.8844 108.086 77.6427 108.5 80.4757C108.665 81.6058 108.809 82.7436 108.951 83.8631C109.169 85.5843 109.381 87.2622 109.657 88.8025C109.883 90.0646 110.147 91.2069 110.483 92.1701C110.82 93.1372 111.218 93.8935 111.697 94.4088C113.519 96.3707 115.969 98.4956 118.654 100.127C121.344 101.762 124.231 102.877 126.935 102.877C138.855 102.877 153.507 102.711 166.212 102.339C178.938 101.966 189.658 101.386 193.752 100.567C193.781 100.561 193.811 100.558 193.84 100.558C197.652 100.558 202.098 98.2623 205.607 94.6409C209.11 91.0266 211.608 86.1648 211.608 81.1343C211.608 79.4629 211.612 77.9457 211.765 76.6054C211.919 75.2615 212.227 74.06 212.858 73.0262C214.136 70.9323 216.634 69.6857 221.274 69.0969C221.293 69.0945 221.312 69.0933 221.331 69.0933C226.12 69.0933 231.221 69.1194 236.161 69.1446C245.587 69.1927 254.428 69.2378 259.407 69.0935C263.033 68.9884 265.522 70.4179 267.693 72.5337C268.771 73.5835 269.774 74.8063 270.799 76.089C270.955 76.2841 271.112 76.4807 271.269 76.6784C272.15 77.7861 273.061 78.93 274.071 80.0639C276.446 82.7282 279.356 85.3138 283.623 87.0966C287.89 88.8791 293.547 89.8727 301.433 89.2998L291.434 87.8715C291.189 87.8364 291.019 87.6092 291.054 87.3639C291.089 87.1187 291.316 86.9483 291.561 86.9833L307.791 89.3018C307.997 89.3313 308.156 89.4992 308.174 89.707C308.192 89.9147 308.065 90.1076 307.866 90.1723L291.637 95.4717C291.402 95.5486 291.148 95.42 291.071 95.1845C290.995 94.949 291.123 94.6957 291.359 94.6188L304.908 90.1945H301.5C293.507 90.7754 287.703 89.7731 283.278 87.9244C278.847 86.0734 275.832 83.3876 273.402 80.6608C272.373 79.5066 271.445 78.3406 270.564 77.2331C270.407 77.0365 270.252 76.8416 270.098 76.649C269.073 75.366 268.1 74.1829 267.067 73.1763C265.018 71.1793 262.752 69.8941 259.433 69.9903C254.439 70.1351 245.568 70.0898 236.13 70.0416C231.203 70.0165 226.123 69.9906 221.359 69.9905C216.812 70.5712 214.679 71.7643 213.624 73.4935C213.087 74.3731 212.803 75.4312 212.657 76.7075C212.51 77.9873 212.505 79.4507 212.505 81.1343C212.505 86.4568 209.87 91.5313 206.252 95.2652C202.653 98.9786 198.01 101.438 193.885 101.456C189.668 102.288 178.89 102.865 166.238 103.236C153.523 103.609 138.862 103.774 126.935 103.774C124 103.774 120.948 102.571 118.188 100.894C115.422 99.2128 112.908 97.032 111.04 95.0193C110.442 94.3753 109.992 93.4882 109.635 92.4653C109.277 91.4384 109.003 90.244 108.774 88.9605C108.496 87.4055 108.277 85.679 108.056 83.9343C107.914 82.8187 107.772 81.6957 107.612 80.6055C107.198 77.7755 106.667 75.1355 105.746 73.1849C104.831 71.2466 103.579 70.0796 101.741 69.99C96.2024 69.7198 86.2104 69.8119 76.4263 69.9021Z" fill="black"/>
<path d="M252.103 40.3724C252.103 44.8318 248.488 48.4468 244.029 48.4468C239.569 48.4468 235.954 44.8318 235.954 40.3724C235.954 35.9129 239.569 32.2979 244.029 32.2979C248.488 32.2979 252.103 35.9129 252.103 40.3724Z" fill="white"/>
<path fill-rule="evenodd" clip-rule="evenodd" d="M252.009 31.1653C252.139 31.3762 252.074 31.6525 251.863 31.7825C246.695 34.9691 244.593 38.8208 243.754 41.6696C243.333 43.0986 243.228 44.2808 243.218 45.0071C243.215 45.226 243.221 45.401 243.228 45.5269C243.229 45.5296 243.23 45.5323 243.231 45.535C243.243 45.569 243.251 45.6043 243.255 45.6401C243.26 45.6918 243.264 45.7366 243.266 45.7734C243.267 45.7915 243.267 45.8114 243.267 45.8311L243.267 45.8323C243.267 45.8437 243.267 45.8874 243.256 45.9366C243.253 45.9517 243.246 45.9804 243.233 46.0145C243.223 46.0391 243.189 46.1193 243.106 46.1893C242.994 46.2846 242.823 46.3306 242.655 46.2664C242.534 46.2202 242.471 46.1363 242.453 46.112C242.412 46.0558 242.393 46.0021 242.389 45.9908L242.389 45.9898C242.382 45.9699 242.378 45.9528 242.375 45.9423C242.366 45.904 242.359 45.8615 242.355 45.8272C242.351 45.7963 242.347 45.7595 242.343 45.7172C241.579 43.6444 240.422 42.1493 239.014 40.7721C238.837 40.5989 238.834 40.3148 239.007 40.1377C239.18 39.9607 239.464 39.9575 239.641 40.1308C240.709 41.1749 241.659 42.3049 242.414 43.6987C242.496 43.0434 242.642 42.2698 242.893 41.4161C243.79 38.3716 246.021 34.3303 251.392 31.0189C251.603 30.8888 251.879 30.9544 252.009 31.1653Z" fill="black"/>
<path fill-rule="evenodd" clip-rule="evenodd" d="M245.877 32.4498C246.764 32.5332 247.621 32.7255 248.38 33.0195C249.676 33.5211 251.299 34.8261 252.322 36.6351C253.356 38.4638 253.79 40.8327 252.638 43.4189C251.599 45.7504 249.87 47.4749 247.781 48.3018C245.686 49.1308 243.264 49.0429 240.883 47.8122C238.466 46.5631 236.943 44.3988 236.47 41.689C236.158 39.9031 236.554 37.5936 238.01 35.7248C238.761 34.7618 239.783 33.9274 241.115 33.3415C241.146 33.2008 241.244 33.0776 241.388 33.0206C242.738 32.4872 244.339 32.3085 245.854 32.4477C245.862 32.4482 245.869 32.4489 245.877 32.4498ZM245.802 33.3438C242.22 33.3489 239.991 34.6421 238.718 36.2762C237.429 37.9303 237.082 39.9792 237.354 41.5348C237.781 43.984 239.14 45.9019 241.295 47.0151C243.46 48.134 245.611 48.1956 247.45 47.4676C249.295 46.7375 250.863 45.1985 251.818 43.0538C252.837 40.7672 252.458 38.6984 251.541 37.0768C250.613 35.4356 249.146 34.2777 248.056 33.8561L248.056 33.8561C247.376 33.5926 246.603 33.4198 245.802 33.3438Z" fill="black"/>
<path d="M175.972 108.151C175.421 113.053 150.826 113.424 145.207 109.772L143.081 80.0231L141.348 69.2587C154.482 75.6493 176.644 72.3878 177.429 67.5283C177.429 82.0608 177.429 95.1811 175.972 108.151Z" fill="url(#paint3_linear_8792_3947)"/>
<path d="M177.746 67.6616C174.988 72.0647 169.06 73.4294 160.299 73.4294C148.545 73.4294 143.328 71.4677 141.664 69.3919C150.188 62.1642 169.221 65.6137 177.746 67.6616Z" fill="white"/>
<path fill-rule="evenodd" clip-rule="evenodd" d="M157.474 64.1079C162.28 63.9596 169.289 64.1075 173.407 65.351C173.52 65.385 173.6 65.476 173.626 65.5833C174.47 65.7878 175.48 66.0891 176.304 66.4804C176.668 66.6529 177.005 66.8479 177.28 67.0669C177.552 67.2839 177.783 67.541 177.901 67.844C178.023 68.1612 178.01 68.5007 177.841 68.8381C177.677 69.1624 177.377 69.4717 176.947 69.7733C174.835 71.2556 172.101 72.0645 169.309 72.5349C166.534 73.0025 163.669 73.1403 161.253 73.2564L161.203 73.2589C158.52 73.3879 155.252 73.4994 152.032 73.2648C148.816 73.0306 145.62 72.4497 143.093 71.1761C142.17 70.7109 141.463 70.0419 141.27 69.2494C141.266 69.2299 141.261 69.2105 141.257 69.1911C139.723 70.0127 138.234 70.955 136.663 71.9544C136.513 72.0494 136.316 72.0045 136.221 71.8541C136.127 71.7037 136.172 71.5047 136.321 71.4097C137.989 70.3484 139.585 69.3375 141.256 68.4636C141.374 67.9053 141.767 67.3687 142.429 66.8968C143.16 66.3755 144.22 65.9563 145.436 65.6153C146.658 65.2726 148.064 65.0019 149.505 64.7896C152.387 64.3651 155.432 64.1709 157.474 64.1079ZM141.86 68.8757C141.864 68.9513 141.874 69.0249 141.892 69.0962C142.019 69.6217 142.529 70.1715 143.379 70.6C145.795 71.8178 148.894 72.3903 152.078 72.6222C155.257 72.8538 158.493 72.7441 161.172 72.6153L161.208 72.6136C163.632 72.497 166.466 72.3607 169.204 71.8994C171.958 71.4353 174.584 70.647 176.581 69.2447C176.966 68.9744 177.173 68.7389 177.27 68.5468C177.36 68.3677 177.359 68.2192 177.304 68.0782C177.244 67.9231 177.108 67.752 176.883 67.572C176.66 67.3941 176.369 67.2234 176.031 67.0631C174.672 66.4174 172.729 66.0197 172.063 65.9269C164.332 64.8495 155.063 65.0759 147.494 66.794C145.418 67.2653 143.6 67.9892 141.86 68.8757ZM142.173 68.0024C142.32 67.8125 142.524 67.6182 142.798 67.4226C143.439 66.9659 144.414 66.5706 145.608 66.236C146.795 65.9031 148.172 65.6371 149.598 65.4272C152.448 65.0072 155.467 64.8144 157.493 64.7519C157.706 64.7453 157.923 64.7393 158.144 64.734C154.404 64.9308 150.715 65.4024 147.353 66.1655C145.456 66.5961 143.77 67.2322 142.173 68.0024Z" fill="black" stroke="black" stroke-width="0.16742" stroke-linecap="round" stroke-linejoin="round"/>
<path fill-rule="evenodd" clip-rule="evenodd" d="M142.903 65.6907C143.028 65.8165 143.028 66.0205 142.903 66.1463C141.977 67.0797 141.713 67.5214 141.673 67.9643C141.652 68.1953 141.689 68.4522 141.775 68.8173C141.811 68.968 141.853 69.1307 141.9 69.3142C141.91 69.3519 141.92 69.3904 141.93 69.4299C141.99 69.6601 142.055 69.9182 142.122 70.21C142.126 70.2278 142.129 70.2459 142.13 70.2641L142.139 70.4336C143.004 85.661 143.951 102.337 144.898 109.809C144.92 109.986 144.796 110.147 144.621 110.17C144.446 110.192 144.286 110.067 144.263 109.891C143.313 102.396 142.366 85.7104 141.503 70.5078L141.493 70.3283C141.43 70.056 141.368 69.8132 141.311 69.5919C141.301 69.5537 141.291 69.516 141.282 69.4789C141.234 69.2953 141.19 69.1243 141.153 68.9661C141.064 68.5876 141.005 68.2458 141.036 67.9055C141.099 67.2059 141.533 66.6155 142.451 65.6907C142.576 65.5649 142.778 65.5649 142.903 65.6907Z" fill="black" stroke="black" stroke-width="0.16742" stroke-linecap="round" stroke-linejoin="round"/>
<path fill-rule="evenodd" clip-rule="evenodd" d="M177.635 67.9238C177.812 67.9257 177.954 68.0714 177.952 68.2494L177.632 68.246L177.312 68.2426C177.314 68.0647 177.459 67.922 177.635 67.9238ZM177.632 68.246C177.312 68.2426 177.312 68.2424 177.312 68.2426L177.308 68.5872C177.306 68.8129 177.302 69.1453 177.296 69.5718C177.285 70.4248 177.269 71.6545 177.245 73.1608C177.197 76.1735 177.122 80.2925 177.011 84.7181C176.789 93.5763 176.424 103.641 175.856 108.534C175.835 108.71 175.961 108.87 176.136 108.891C176.312 108.912 176.471 108.785 176.491 108.608C177.064 103.681 177.429 93.5838 177.65 84.7344C177.761 80.3062 177.837 76.185 177.884 73.171C177.908 71.664 177.925 70.4337 177.936 69.5801C177.941 69.1533 177.945 68.8207 177.948 68.5947L177.952 68.2494C177.952 68.2491 177.952 68.2494 177.632 68.246Z" fill="black"/>
<path d="M177.952 68.2494C177.954 68.0714 177.812 67.9257 177.635 67.9238C177.459 67.922 177.314 68.0647 177.312 68.2426M177.952 68.2494L177.632 68.246M177.952 68.2494C177.952 68.2491 177.952 68.2494 177.632 68.246M177.952 68.2494L177.948 68.5947C177.945 68.8207 177.941 69.1533 177.936 69.5801C177.925 70.4337 177.908 71.664 177.884 73.171C177.837 76.185 177.761 80.3062 177.65 84.7344C177.429 93.5838 177.064 103.681 176.491 108.608C176.471 108.785 176.312 108.912 176.136 108.891C175.961 108.87 175.835 108.71 175.856 108.534C176.424 103.641 176.789 93.5763 177.011 84.7181C177.122 80.2925 177.197 76.1735 177.245 73.1608C177.269 71.6545 177.285 70.4248 177.296 69.5718C177.302 69.1453 177.306 68.8129 177.308 68.5872L177.312 68.2426M177.632 68.246L177.312 68.2426M177.632 68.246C177.312 68.2426 177.312 68.2424 177.312 68.2426" stroke="black" stroke-width="0.16742" stroke-linecap="round" stroke-linejoin="round"/>
<path fill-rule="evenodd" clip-rule="evenodd" d="M177.364 97.0403C177.502 97.1522 177.523 97.3551 177.412 97.4933C176.16 99.0505 173.834 100.273 171.001 101.13C168.155 101.99 164.747 102.496 161.275 102.584C157.803 102.673 154.254 102.345 151.125 101.53C148.002 100.715 145.268 99.4074 143.46 97.514C143.338 97.3857 143.342 97.1818 143.469 97.0584C143.596 96.9351 143.799 96.9391 143.921 97.0674C145.615 98.841 148.221 100.107 151.286 100.906C154.345 101.703 157.834 102.028 161.259 101.94C164.684 101.853 168.034 101.354 170.817 100.513C173.611 99.6678 175.785 98.4926 176.914 97.0879C177.025 96.9497 177.227 96.9283 177.364 97.0403Z" fill="black" stroke="black" stroke-width="0.16742" stroke-linecap="round" stroke-linejoin="round"/>
<path fill-rule="evenodd" clip-rule="evenodd" d="M177.364 102.46C177.502 102.572 177.523 102.775 177.412 102.913C176.16 104.47 173.834 105.693 171.001 106.55C168.155 107.41 164.747 107.916 161.275 108.004C157.803 108.093 154.254 107.765 151.125 106.95C148.002 106.135 145.268 104.827 143.46 102.934C143.338 102.806 143.342 102.602 143.469 102.478C143.596 102.355 143.799 102.359 143.921 102.487C145.615 104.261 148.221 105.527 151.286 106.326C154.345 107.123 157.834 107.448 161.259 107.36C164.684 107.273 168.034 106.774 170.817 105.932C173.611 105.088 175.785 103.913 176.914 102.508C177.025 102.37 177.227 102.348 177.364 102.46Z" fill="black" stroke="black" stroke-width="0.16742" stroke-linecap="round" stroke-linejoin="round"/>
<path fill-rule="evenodd" clip-rule="evenodd" d="M145.799 66.6007C145.971 66.6425 146.069 66.8148 146.019 66.9857L144.737 71.3775C144.687 71.5483 144.507 71.6529 144.336 71.6111C144.164 71.5694 144.065 71.397 144.115 71.2262L145.398 66.8344C145.448 66.6635 145.627 66.5589 145.799 66.6007Z" fill="black" stroke="black" stroke-width="0.16742" stroke-linecap="round" stroke-linejoin="round"/>
<path fill-rule="evenodd" clip-rule="evenodd" d="M171.435 65.0722C171.607 65.1107 171.709 65.2811 171.663 65.4527L169.767 72.4233C169.72 72.5949 169.542 72.7028 169.37 72.6642C169.197 72.6256 169.095 72.4552 169.142 72.2836L171.038 65.313C171.085 65.1414 171.263 65.0336 171.435 65.0722ZM174.419 65.8356C174.592 65.8733 174.695 66.0431 174.649 66.2149C174.195 67.9158 174.008 68.6354 173.87 69.1617C173.7 69.8154 173.607 70.1709 173.18 71.7375C173.133 71.9091 172.955 72.0167 172.783 71.978C172.61 71.9393 172.508 71.7688 172.555 71.5972C172.982 70.032 173.074 69.6812 173.243 69.0321C173.38 68.5078 173.567 67.7889 174.023 66.0784C174.069 65.9066 174.246 65.7979 174.419 65.8356Z" fill="black" stroke="black" stroke-width="0.16742" stroke-linecap="round" stroke-linejoin="round"/>
<path fill-rule="evenodd" clip-rule="evenodd" d="M167.602 64.7134C167.774 64.7525 167.875 64.9227 167.829 65.0939C167.428 66.5626 167.109 67.6859 166.795 68.7951L166.787 68.8245C166.784 68.8344 166.781 68.8442 166.778 68.854L165.785 72.4127L165.784 72.4145C165.736 72.5855 165.559 72.6921 165.387 72.653C165.215 72.6138 165.113 72.4436 165.16 72.2724C165.54 70.881 165.847 69.7978 166.155 68.7091L167.204 64.9536L167.205 64.9518C167.252 64.7809 167.43 64.6742 167.602 64.7134ZM163.796 64.2549C163.969 64.2911 164.073 64.4601 164.029 64.6322L161.847 73.093C161.803 73.2651 161.626 73.3752 161.453 73.3389C161.28 73.3026 161.176 73.1337 161.22 72.9616L163.402 64.5007C163.446 64.3287 163.623 64.2186 163.796 64.2549Z" fill="black" stroke="black" stroke-width="0.16742" stroke-linecap="round" stroke-linejoin="round"/>
<path fill-rule="evenodd" clip-rule="evenodd" d="M160.07 64.4873C160.24 64.5323 160.336 64.7066 160.282 64.8766C159.473 67.469 159.013 69.2176 158.535 71.0373C158.343 71.7694 158.148 72.513 157.925 73.3277C157.878 73.4992 157.701 73.6069 157.528 73.5681C157.356 73.5294 157.254 73.3589 157.301 73.1874C157.521 72.3825 157.715 71.6438 157.906 70.9142C158.386 69.0895 158.85 67.3211 159.665 64.7137C159.718 64.5437 159.899 64.4423 160.07 64.4873ZM156.265 65.0716C156.438 65.1096 156.54 65.2796 156.494 65.4513L154.442 73.0964C154.396 73.2681 154.219 73.3765 154.046 73.3385C153.873 73.3005 153.771 73.1305 153.817 72.9588L155.869 65.3137C155.915 65.142 156.092 65.0336 156.265 65.0716Z" fill="black" stroke="black" stroke-width="0.16742" stroke-linecap="round" stroke-linejoin="round"/>
<path fill-rule="evenodd" clip-rule="evenodd" d="M152.855 65.4536C153.028 65.4928 153.129 65.6636 153.082 65.835L151.186 72.709C151.138 72.8804 150.96 72.9876 150.788 72.9484C150.616 72.9092 150.514 72.7385 150.562 72.567L152.458 65.6931C152.505 65.5216 152.683 65.4144 152.855 65.4536ZM149.637 65.4547C149.808 65.4964 149.907 65.6688 149.857 65.8397L147.961 72.3319C147.911 72.5027 147.732 72.6073 147.56 72.5655C147.388 72.5237 147.29 72.3514 147.34 72.1805L149.236 65.6883C149.286 65.5175 149.465 65.4129 149.637 65.4547Z" fill="black" stroke="black" stroke-width="0.16742" stroke-linecap="round" stroke-linejoin="round"/>
<path fill-rule="evenodd" clip-rule="evenodd" d="M176.972 69.2001C177.073 69.3461 177.037 69.5469 176.892 69.6486C174.781 71.1309 172.047 71.9398 169.255 72.4102C166.479 72.8778 163.614 73.0156 161.198 73.1318L161.148 73.1342C158.465 73.2632 155.197 73.3747 151.977 73.1402C148.762 72.9059 145.565 72.325 143.038 71.0515C142.88 70.9718 142.816 70.7783 142.895 70.6192C142.974 70.4601 143.166 70.3956 143.324 70.4753C145.741 71.6931 148.839 72.2656 152.023 72.4975C155.203 72.7291 158.439 72.6194 161.117 72.4906L161.153 72.4889C163.577 72.3723 166.411 72.236 169.149 71.7747C171.904 71.3106 174.529 70.5223 176.526 69.12C176.671 69.0183 176.871 69.0541 176.972 69.2001Z" fill="black" stroke="black" stroke-width="0.16742" stroke-linecap="round" stroke-linejoin="round"/>
<path fill-rule="evenodd" clip-rule="evenodd" d="M176.766 108.411C176.854 108.565 176.801 108.762 176.648 108.851C172.208 111.423 166.157 112.79 160.128 112.836C154.1 112.881 148.049 111.605 143.616 108.845C143.466 108.752 143.419 108.553 143.512 108.402C143.605 108.251 143.802 108.204 143.952 108.297C148.251 110.974 154.172 112.236 160.123 112.191C166.073 112.147 172.008 110.796 176.329 108.292C176.482 108.203 176.678 108.257 176.766 108.411Z" fill="black" stroke="black" stroke-width="0.16742" stroke-linecap="round" stroke-linejoin="round"/>
<path fill-rule="evenodd" clip-rule="evenodd" d="M163.118 84.618C163.194 84.6917 163.196 84.8138 163.123 84.8907C160.74 87.384 159.21 89.0685 157.33 91.2263C157.26 91.3065 157.139 91.3147 157.059 91.2446C156.979 91.1746 156.972 91.0527 157.041 90.9725C158.925 88.8101 160.46 87.1213 162.846 84.6238C162.92 84.5469 163.041 84.5443 163.118 84.618Z" fill="black" stroke="black" stroke-width="0.16742" stroke-linecap="round" stroke-linejoin="round"/>
<path fill-rule="evenodd" clip-rule="evenodd" d="M162.683 84.4679C162.843 84.3012 163.106 84.2956 163.271 84.4554C163.437 84.6152 163.441 84.8799 163.282 85.0466L163.121 84.8908L163.282 85.0466C160.902 87.5376 159.374 89.2196 157.496 91.3748C157.344 91.5487 157.082 91.5666 156.909 91.4146C156.737 91.2627 156.72 90.9985 156.871 90.8246C158.758 88.6594 160.294 86.968 162.683 84.4679Z" fill="black" stroke="black" stroke-width="0.16742" stroke-linecap="round" stroke-linejoin="round"/>
<path fill-rule="evenodd" clip-rule="evenodd" d="M164.807 85.2053C164.85 85.1077 164.963 85.0632 165.06 85.1059C166.813 85.8778 168.366 86.642 170.262 87.5746C170.902 87.8896 171.582 88.2238 172.321 88.584C172.391 88.6184 172.434 88.6925 172.428 88.7712C172.422 88.8499 172.37 88.9173 172.295 88.9413C170.672 89.4628 169.343 89.9549 167.942 90.4737C167.204 90.7468 166.446 91.0274 165.615 91.3236C165.515 91.3592 165.405 91.3067 165.37 91.2063C165.335 91.1059 165.387 90.9956 165.487 90.96C166.309 90.6672 167.063 90.3881 167.8 90.1155C169.073 89.644 170.294 89.192 171.724 88.7218C171.145 88.4389 170.603 88.1723 170.087 87.9185C168.194 86.9871 166.65 86.2277 164.905 85.4593C164.809 85.4166 164.765 85.3029 164.807 85.2053Z" fill="black" stroke="black" stroke-width="0.16742" stroke-linecap="round" stroke-linejoin="round"/>
<path fill-rule="evenodd" clip-rule="evenodd" d="M164.603 85.115C164.696 84.9034 164.941 84.8069 165.151 84.8995C166.908 85.6733 168.465 86.4393 170.359 87.3711L170.362 87.3722L170.362 87.3723C171.002 87.6873 171.681 88.0213 172.42 88.3812C172.573 88.4557 172.665 88.6165 172.652 88.7871C172.64 88.9577 172.525 89.1038 172.363 89.1559C170.746 89.6757 169.421 90.1662 168.019 90.6851L168.019 90.6852C167.281 90.9583 166.522 91.2393 165.69 91.536C165.473 91.6132 165.236 91.4993 165.159 91.2817C165.083 91.064 165.197 90.825 165.414 90.7478C166.234 90.4554 166.987 90.1768 167.723 89.9041L167.725 89.9037C168.84 89.4908 169.918 89.0918 171.131 88.6823C170.735 88.4879 170.356 88.3013 169.99 88.1212L169.989 88.1209C168.095 87.1892 166.555 86.4318 164.816 85.6657C164.606 85.5731 164.51 85.3265 164.603 85.115ZM171.923 88.8254C171.999 88.8008 172.075 88.7762 172.151 88.7515C172.079 88.7163 172.007 88.6813 171.936 88.6465C171.946 88.675 171.95 88.7058 171.948 88.7371C171.946 88.7686 171.937 88.7985 171.923 88.8254Z" fill="black" stroke="black" stroke-width="0.16742" stroke-linecap="round" stroke-linejoin="round"/>
<path fill-rule="evenodd" clip-rule="evenodd" d="M154.9 84.9022C154.855 84.8062 154.74 84.7659 154.645 84.8121C153.03 85.5926 149.458 87.2259 147.263 88.2172C147.191 88.2495 147.146 88.3225 147.149 88.4013C147.152 88.4802 147.203 88.549 147.277 88.5751C147.359 88.604 147.443 88.6335 147.528 88.6635C149.42 89.3303 152.006 90.2419 154.875 90.9314C154.978 90.9561 155.082 90.8922 155.106 90.7886C155.131 90.685 155.068 90.581 154.965 90.5562C152.218 89.8959 149.729 89.0299 147.858 88.3707C150.065 87.3716 153.295 85.8924 154.81 85.1596C154.906 85.1134 154.946 84.9982 154.9 84.9022Z" fill="black" stroke="black" stroke-width="0.16742" stroke-linecap="round" stroke-linejoin="round"/>
<path fill-rule="evenodd" clip-rule="evenodd" d="M155.105 84.8045C155.006 84.5964 154.758 84.509 154.551 84.6092C152.94 85.3882 149.37 87.0204 147.174 88.0118C147.019 88.0819 146.921 88.2401 146.928 88.4111C146.935 88.582 147.045 88.7313 147.205 88.7878L147.459 88.8771C149.35 89.5437 151.945 90.4585 154.825 91.1506C155.048 91.2042 155.273 91.0657 155.327 90.8411C155.381 90.6165 155.244 90.3909 155.021 90.3373C152.536 89.7401 150.263 88.9736 148.464 88.344C150.634 87.3595 153.505 86.0418 154.91 85.3626C155.117 85.2624 155.205 85.0125 155.105 84.8045ZM147.659 88.4699C147.641 88.4636 147.623 88.4573 147.605 88.451L147.43 88.3894C147.503 88.3567 147.577 88.3233 147.652 88.2894C147.641 88.3178 147.635 88.3488 147.637 88.3805C147.638 88.4122 147.646 88.4425 147.659 88.4699Z" fill="black" stroke="black" stroke-width="0.16742" stroke-linecap="round" stroke-linejoin="round"/>
<path fill-rule="evenodd" clip-rule="evenodd" d="M153.612 51.758C153.905 51.3673 154.101 50.804 154.101 50.1597C154.101 49.5155 153.905 48.9522 153.612 48.5615C153.32 48.1711 152.955 47.9771 152.594 47.9771C152.234 47.9771 151.868 48.1711 151.576 48.5615C151.283 48.9522 151.087 49.5155 151.087 50.1597C151.087 50.804 151.283 51.3673 151.576 51.758C151.868 52.1484 152.234 52.3424 152.594 52.3424C152.955 52.3424 153.32 52.1484 153.612 51.758ZM152.594 52.8651C153.713 52.8651 154.62 51.6539 154.62 50.1597C154.62 48.6656 153.713 47.4544 152.594 47.4544C151.475 47.4544 150.568 48.6656 150.568 50.1597C150.568 51.6539 151.475 52.8651 152.594 52.8651Z" fill="#B0B1C3" stroke="#B0B1C3" stroke-width="0.334841"/>
<path fill-rule="evenodd" clip-rule="evenodd" d="M167.831 56.0278C168.124 55.6371 168.32 55.0738 168.32 54.4295C168.32 53.7853 168.124 53.222 167.831 52.8313C167.539 52.4408 167.174 52.2468 166.813 52.2468C166.452 52.2468 166.087 52.4408 165.795 52.8313C165.502 53.222 165.306 53.7853 165.306 54.4295C165.306 55.0738 165.502 55.6371 165.795 56.0278C166.087 56.4182 166.452 56.6122 166.813 56.6122C167.174 56.6122 167.539 56.4182 167.831 56.0278ZM166.813 57.1348C167.932 57.1348 168.839 55.9236 168.839 54.4295C168.839 52.9354 167.932 51.7242 166.813 51.7242C165.694 51.7242 164.787 52.9354 164.787 54.4295C164.787 55.9236 165.694 57.1348 166.813 57.1348Z" fill="#B0B1C3" stroke="#B0B1C3" stroke-width="0.334841"/>
<path fill-rule="evenodd" clip-rule="evenodd" d="M168.7 46.3475C168.993 45.9568 169.189 45.3935 169.189 44.7493C169.189 44.105 168.993 43.5417 168.7 43.151C168.408 42.7606 168.043 42.5666 167.682 42.5666C167.321 42.5666 166.956 42.7606 166.664 43.151C166.371 43.5417 166.175 44.105 166.175 44.7493C166.175 45.3935 166.371 45.9568 166.664 46.3475C166.956 46.738 167.321 46.9319 167.682 46.9319C168.043 46.9319 168.408 46.738 168.7 46.3475ZM167.682 47.4546C168.801 47.4546 169.708 46.2434 169.708 44.7493C169.708 43.2552 168.801 42.0439 167.682 42.0439C166.563 42.0439 165.656 43.2552 165.656 44.7493C165.656 46.2434 166.563 47.4546 167.682 47.4546Z" fill="#B0B1C3" stroke="#B0B1C3" stroke-width="0.334841"/>
<path fill-rule="evenodd" clip-rule="evenodd" d="M156.474 29.5167C156.766 29.126 156.962 28.5626 156.962 27.9184C156.962 27.2742 156.766 26.7108 156.474 26.3202C156.181 25.9297 155.816 25.7357 155.456 25.7357C155.095 25.7357 154.73 25.9297 154.437 26.3202C154.145 26.7108 153.949 27.2742 153.949 27.9184C153.949 28.5626 154.145 29.126 154.437 29.5167C154.73 29.9071 155.095 30.1011 155.456 30.1011C155.816 30.1011 156.181 29.9071 156.474 29.5167ZM155.456 30.6237C156.574 30.6237 157.481 29.4125 157.481 27.9184C157.481 26.4243 156.574 25.2131 155.456 25.2131C154.337 25.2131 153.43 26.4243 153.43 27.9184C153.43 29.4125 154.337 30.6237 155.456 30.6237Z" fill="#B0B1C3" stroke="#B0B1C3" stroke-width="0.334841"/>
<path fill-rule="evenodd" clip-rule="evenodd" d="M150.544 18.7609C150.837 18.3702 151.033 17.8068 151.033 17.1626C151.033 16.5184 150.837 15.955 150.544 15.5643C150.252 15.1739 149.887 14.9799 149.526 14.9799C149.165 14.9799 148.8 15.1739 148.508 15.5643C148.215 15.955 148.019 16.5184 148.019 17.1626C148.019 17.8068 148.215 18.3702 148.508 18.7609C148.8 19.1513 149.165 19.3453 149.526 19.3453C149.887 19.3453 150.252 19.1513 150.544 18.7609ZM149.526 19.8679C150.645 19.8679 151.552 18.6567 151.552 17.1626C151.552 15.6685 150.645 14.4573 149.526 14.4573C148.407 14.4573 147.5 15.6685 147.5 17.1626C147.5 18.6567 148.407 19.8679 149.526 19.8679Z" fill="#B0B1C3" stroke="#B0B1C3" stroke-width="0.334841"/>
<path fill-rule="evenodd" clip-rule="evenodd" d="M155.73 12.6955C155.873 12.6955 155.99 12.8125 155.99 12.9568V17.7658C155.99 17.9102 155.873 18.0272 155.73 18.0272C155.587 18.0272 155.471 17.9102 155.471 17.7658V12.9568C155.471 12.8125 155.587 12.6955 155.73 12.6955ZM165.112 12.6955C165.256 12.6955 165.372 12.8125 165.372 12.9568V17.7658C165.372 17.9102 165.256 18.0272 165.112 18.0272C164.969 18.0272 164.853 17.9102 164.853 17.7658V12.9568C164.853 12.8125 164.969 12.6955 165.112 12.6955ZM160.563 25.1502C160.707 25.1502 160.823 25.2672 160.823 25.4115V30.2205C160.823 30.3648 160.707 30.4818 160.563 30.4818C160.42 30.4818 160.304 30.3648 160.304 30.2205V25.4115C160.304 25.2672 160.42 25.1502 160.563 25.1502ZM167.813 25.1502C167.956 25.1502 168.073 25.2672 168.073 25.4115V30.2205C168.073 30.3648 167.956 30.4818 167.813 30.4818C167.67 30.4818 167.554 30.3648 167.554 30.2205V25.4115C167.554 25.2672 167.67 25.1502 167.813 25.1502ZM151.039 32.1649C151.182 32.1649 151.299 32.2819 151.299 32.4262V37.2352C151.299 37.3795 151.182 37.4965 151.039 37.4965C150.896 37.4965 150.78 37.3795 150.78 37.2352V32.4262C150.78 32.2819 150.896 32.1649 151.039 32.1649ZM172.211 33.0239C172.355 33.0239 172.471 33.1409 172.471 33.2852V38.0942C172.471 38.2385 172.355 38.3555 172.211 38.3555C172.068 38.3555 171.952 38.2385 171.952 38.0942V33.2852C171.952 33.1409 172.068 33.0239 172.211 33.0239ZM156.866 36.9739C157.009 36.9739 157.126 37.0909 157.126 37.2352V42.0442C157.126 42.1885 157.009 42.3055 156.866 42.3055C156.723 42.3055 156.607 42.1885 156.607 42.0442V37.2352C156.607 37.0909 156.723 36.9739 156.866 36.9739ZM162.965 39.5651C163.108 39.5651 163.224 39.6821 163.224 39.8264V44.6354C163.224 44.7798 163.108 44.8967 162.965 44.8967C162.821 44.8967 162.705 44.7798 162.705 44.6354V39.8264C162.705 39.6821 162.821 39.5651 162.965 39.5651ZM148.439 41.8148C148.582 41.8148 148.699 41.9318 148.699 42.0761V46.8851C148.699 47.0295 148.582 47.1464 148.439 47.1464C148.296 47.1464 148.18 47.0295 148.18 46.8851V42.0761C148.18 41.9318 148.296 41.8148 148.439 41.8148ZM158.715 46.6238C158.859 46.6238 158.975 46.7408 158.975 46.8851V51.6942C158.975 51.8385 158.859 51.9555 158.715 51.9555C158.572 51.9555 158.456 51.8385 158.456 51.6942V46.8851C158.456 46.7408 158.572 46.6238 158.715 46.6238ZM172.211 47.17C172.355 47.17 172.471 47.287 172.471 47.4314V52.2404C172.471 52.3847 172.355 52.5017 172.211 52.5017C172.068 52.5017 171.952 52.3847 171.952 52.2404V47.4314C171.952 47.287 172.068 47.17 172.211 47.17ZM162.965 53.5325C163.108 53.5325 163.224 53.6495 163.224 53.7938V58.6028C163.224 58.7471 163.108 58.8641 162.965 58.8641C162.821 58.8641 162.705 58.7471 162.705 58.6028V53.7938C162.705 53.6495 162.821 53.5325 162.965 53.5325Z" fill="#B0B1C3" stroke="#B0B1C3" stroke-width="0.334841" stroke-linecap="round" stroke-linejoin="round"/>
</g>
<defs>
<radialGradient id="paint0_radial_8792_3947" cx="0" cy="0" r="1" gradientTransform="matrix(7.2619 23.7656 -58.6336 13.5673 247.474 82.0183)" gradientUnits="userSpaceOnUse">
<stop stop-color="#6FD43F" stop-opacity="0.43"/>
<stop offset="1" stop-color="#6FD43F" stop-opacity="0"/>
</radialGradient>
<radialGradient id="paint1_radial_8792_3947" cx="0" cy="0" r="1" gradientTransform="matrix(8.16617 26.6023 -65.9645 15.1958 162.333 122.157)" gradientUnits="userSpaceOnUse">
<stop stop-color="#6FD43F" stop-opacity="0.43"/>
<stop offset="1" stop-color="#6FD43F" stop-opacity="0"/>
</radialGradient>
<radialGradient id="paint2_radial_8792_3947" cx="0" cy="0" r="1" gradientTransform="matrix(8.16617 26.6023 -65.9645 15.1958 81.588 85.3739)" gradientUnits="userSpaceOnUse">
<stop stop-color="#6FD43F" stop-opacity="0.43"/>
<stop offset="1" stop-color="#6FD43F" stop-opacity="0"/>
</radialGradient>
<linearGradient id="paint3_linear_8792_3947" x1="150.368" y1="70.5216" x2="174.78" y2="104.664" gradientUnits="userSpaceOnUse">
<stop stop-color="#CAFFB2"/>
<stop offset="1" stop-color="#9AF48E"/>
</linearGradient>
<clipPath id="clip0_8792_3947">
<rect width="320" height="157.878" fill="white"/>
</clipPath>
</defs>
</svg>
