<svg viewBox="0 0 24 24" fill="none" xmlns="http://www.w3.org/2000/svg"><path d="M20.057 4c1.027 0 1.91.803 1.91 1.84v12.32c0 1.037-.883 1.84-1.91 1.84H3.942c-1.027 0-1.91-.803-1.91-1.84V5.84c0-1.037.883-1.84 1.91-1.84zM3.942 5c-.525 0-.91.404-.91.84v12.32c0 .436.385.84.91.84h16.114c.525 0 .91-.404.91-.84V5.84c0-.436-.386-.84-.91-.84z" fill="currentColor"/><rect x="3.792" y="7.292" width="9.306" height="1.073" rx=".536" fill="currentColor"/><rect x="14.507" y="7.292" width="3.592" height="1.073" rx=".536" fill="currentColor"/><rect x="5.792" y="10.292" width="9.306" height="1.073" rx=".536" fill="currentColor"/><rect x="16.506" y="10.292" width="3.592" height="1.073" rx=".536" fill="currentColor"/><rect x="3.792" y="13.292" width="9.306" height="1.073" rx=".536" fill="currentColor"/><rect x="15.507" y="13.292" width="3.592" height="1.073" rx=".536" fill="currentColor"/><rect x="5.792" y="16.292" width="9.306" height="1.073" rx=".536" fill="currentColor"/><path d="M13.944 16.858c1.04 0 2.134-.447 2.812-1.125l2.25 2.25-2.25-2.25c.657-.646 1.125-1.86 1.125-2.813a3.938 3.938 0 1 0-3.937 3.938" fill="#fff" stroke="#fff" stroke-width="1.2" stroke-linecap="round" stroke-linejoin="round"/><path d="M13.997 16.54c.941 0 1.933-.405 2.547-1.02l2.038 2.039-2.038-2.038c.595-.585 1.02-1.685 1.02-2.548a3.566 3.566 0 1 0-3.567 3.567Z" fill="current" stroke="currentColor" stroke-linecap="round" stroke-linejoin="currentColor"/></svg>