<svg width="24" height="24" fill="none" xmlns="http://www.w3.org/2000/svg"><mask id="a" fill="#fff"><path fill-rule="evenodd" clip-rule="evenodd" d="M4 3.5a.5.5 0 0 0-.5.5v7a.5.5 0 0 0 .5.5h5a.5.5 0 0 0 .5-.5V4a.5.5 0 0 0-.5-.5H4Zm.5 7v-6h4v6h-4Zm-.5 3a.5.5 0 0 0-.5.5v6a.5.5 0 0 0 .5.5h9a.5.5 0 0 0 .5-.5v-6a.5.5 0 0 0-.5-.5H4Zm.5 6v-5h8v5h-8Zm7-15.5a.5.5 0 0 1 .5-.5h8a.5.5 0 0 1 .5.5v7a.5.5 0 0 1-.5.5h-8a.5.5 0 0 1-.5-.5V4Zm1 .5v6h7v-6h-7Zm3.5 9a.5.5 0 0 0-.5.5v6a.5.5 0 0 0 .5.5h4a.5.5 0 0 0 .5-.5v-6a.5.5 0 0 0-.5-.5h-4Zm.5 6v-5h3v5h-3Z"/></mask><path d="M4.5 4.5v-1a1 1 0 0 0-1 1h1Zm0 6h-1a1 1 0 0 0 1 1v-1Zm4-6h1a1 1 0 0 0-1-1v1Zm0 6v1a1 1 0 0 0 1-1h-1Zm-4 4v-1a1 1 0 0 0-1 1h1Zm0 5h-1a1 1 0 0 0 1 1v-1Zm8-5h1a1 1 0 0 0-1-1v1Zm0 5v1a1 1 0 0 0 1-1h-1Zm0-9h-1a1 1 0 0 0 1 1v-1Zm0-6v-1a1 1 0 0 0-1 1h1Zm7 6v1a1 1 0 0 0 1-1h-1Zm0-6h1a1 1 0 0 0-1-1v1Zm-3 10v-1a1 1 0 0 0-1 1h1Zm0 5h-1a1 1 0 0 0 1 1v-1Zm3-5h1a1 1 0 0 0-1-1v1Zm0 5v1a1 1 0 0 0 1-1h-1ZM4.5 4a.5.5 0 0 1-.5.5v-2A1.5 1.5 0 0 0 2.5 4h2Zm0 7V4h-2v7h2Zm-.5-.5a.5.5 0 0 1 .5.5h-2A1.5 1.5 0 0 0 4 12.5v-2Zm5 0H4v2h5v-2Zm-.5.5a.5.5 0 0 1 .5-.5v2a1.5 1.5 0 0 0 1.5-1.5h-2Zm0-7v7h2V4h-2Zm.5.5a.5.5 0 0 1-.5-.5h2A1.5 1.5 0 0 0 9 2.5v2Zm-5 0h5v-2H4v2Zm-.5 0v6h2v-6h-2Zm5-1h-4v2h4v-2Zm1 7v-6h-2v6h2Zm-5 1h4v-2h-4v2Zm0 2.5a.5.5 0 0 1-.5.5v-2A1.5 1.5 0 0 0 2.5 14h2Zm0 6v-6h-2v6h2Zm-.5-.5a.5.5 0 0 1 .5.5h-2A1.5 1.5 0 0 0 4 21.5v-2Zm9 0H4v2h9v-2Zm-.5.5a.5.5 0 0 1 .5-.5v2a1.5 1.5 0 0 0 1.5-1.5h-2Zm0-6v6h2v-6h-2Zm.5.5a.5.5 0 0 1-.5-.5h2a1.5 1.5 0 0 0-1.5-1.5v2Zm-9 0h9v-2H4v2Zm-.5 0v5h2v-5h-2Zm9-1h-8v2h8v-2Zm1 6v-5h-2v5h2Zm-9 1h8v-2h-8v2Zm7.5-18A1.5 1.5 0 0 0 10.5 4h2a.5.5 0 0 1-.5.5v-2Zm8 0h-8v2h8v-2ZM21.5 4A1.5 1.5 0 0 0 20 2.5v2a.5.5 0 0 1-.5-.5h2Zm0 7V4h-2v7h2ZM20 12.5a1.5 1.5 0 0 0 1.5-1.5h-2a.5.5 0 0 1 .5-.5v2Zm-8 0h8v-2h-8v2ZM10.5 11a1.5 1.5 0 0 0 1.5 1.5v-2a.5.5 0 0 1 .5.5h-2Zm0-7v7h2V4h-2Zm3 6.5v-6h-2v6h2Zm6-1h-7v2h7v-2Zm-1-5v6h2v-6h-2Zm-6 1h7v-2h-7v2Zm3.854 8.854A.5.5 0 0 1 16 14.5v-2a1.5 1.5 0 0 0-1.06.44l1.414 1.414ZM16.5 14a.5.5 0 0 1-.146.354l-1.415-1.415A1.5 1.5 0 0 0 14.5 14h2Zm0 6v-6h-2v6h2Zm-.5-.5a.5.5 0 0 1 .5.5h-2a1.5 1.5 0 0 0 1.5 1.5v-2Zm4 0h-4v2h4v-2Zm-.5.5a.5.5 0 0 1 .5-.5v2a1.5 1.5 0 0 0 1.5-1.5h-2Zm0-6v6h2v-6h-2Zm.5.5a.5.5 0 0 1-.5-.5h2a1.5 1.5 0 0 0-1.5-1.5v2Zm-4 0h4v-2h-4v2Zm-.5 0v5h2v-5h-2Zm4-1h-3v2h3v-2Zm1 6v-5h-2v5h2Zm-4 1h3v-2h-3v2Z" fill="#0278D5" mask="url(#a)"/></svg>