<svg fill="none" viewBox="0 0 64 64" xmlns="http://www.w3.org/2000/svg"><path clip-rule="evenodd" d="m35.3593 7.51136c-1.8745-1.87452-4.9137-1.87452-6.7882 0l-5.6568 5.65684c-1.8745 1.8745-1.8745 4.9137 0 6.7882l5.6568 5.6569c1.8745 1.8745 4.9137 1.8745 6.7882 0l5.6568-5.6569c1.8745-1.8745 1.8745-4.9137 0-6.7882zm-4.5255 2.26274c.6248-.62484 1.6379-.62484 2.2627 0l5.6568 5.6569c.6249.6248.6249 1.6379 0 2.2627l-5.6568 5.6568c-.6248.6249-1.6379.6249-2.2627 0l-5.6568-5.6568c-.6248-.6248-.6248-1.6379 0-2.2627zm-19.8258 20.3014c.3001-.3001.707-.4687 1.1314-.4687h40.4606c.8836 0 1.6.7164 1.6 1.6v8.9712h-3.2v-7.3712h-17.0303v7.3712h-3.2v-7.3712h-17.0303v7.3712h-3.2v-8.9712c0-.4243.1686-.8313.4686-1.1313zm21.6318 17.5126c-1.0165 0-1.8405.824-1.8405 1.8406 0 1.0165.824 1.8406 1.8405 1.8406 1.0166 0 1.8406-.8241 1.8406-1.8406 0-1.0166-.824-1.8406-1.8406-1.8406zm-5.0405 1.8406c0-2.7839 2.2567-5.0406 5.0405-5.0406 2.7839 0 5.0406 2.2567 5.0406 5.0406 0 2.7838-2.2567 5.0406-5.0406 5.0406-2.7838 0-5.0405-2.2568-5.0405-5.0406zm23.1609 0c0-1.0166.8241-1.8406 1.8406-1.8406s1.8406.824 1.8406 1.8406c0 1.0165-.8241 1.8406-1.8406 1.8406s-1.8406-.8241-1.8406-1.8406zm1.8406-5.0406c-2.7838 0-5.0406 2.2567-5.0406 5.0406 0 2.7838 2.2568 5.0406 5.0406 5.0406s5.0405-2.2568 5.0405-5.0406c0-2.7839-2.2567-5.0406-5.0405-5.0406zm-40.7682 3.2c-1.0166 0-1.84063.824-1.84063 1.8406 0 1.0165.82403 1.8406 1.84063 1.8406 1.0165 0 1.8405-.8241 1.8405-1.8406 0-1.0166-.824-1.8406-1.8405-1.8406zm-5.04061 1.8406c0-2.7839 2.25674-5.0406 5.04061-5.0406 2.7838 0 5.0405 2.2567 5.0405 5.0406 0 2.7838-2.2567 5.0406-5.0405 5.0406-2.78387 0-5.04061-2.2568-5.04061-5.0406z" fill="#0278d5" fill-rule="evenodd"/></svg>