<svg fill="none" viewBox="0 0 40 41" xmlns="http://www.w3.org/2000/svg"><path clip-rule="evenodd" d="m12.4648 7.59197c-.0563.04958-.0748.10162-.0748.14427v3.30576c0 .0427.0185.0947.0748.1443.0572.0504.1474.0904.2591.0904h14.5936c.1118 0 .2019-.04.2592-.0904.0563-.0496.0747-.1016.0747-.1443v-3.30576c0-.04265-.0184-.09469-.0747-.14427-.0573-.05043-.1474-.09035-.2592-.09035h-14.5936c-.1117 0-.2019.03992-.2591.09035zm-1.0748.14427c0-.73954.6587-1.23462 1.3339-1.23462h14.5936c.6753 0 1.3339.49508 1.3339 1.23462v3.30576c0 .7396-.6586 1.2347-1.3339 1.2347h-14.5936c-.6752 0-1.3339-.4951-1.3339-1.2347zm19.3172 2.82436c0-.2761.2238-.5.5-.5h4.8339c.7143 0 1.3339.5584 1.3339 1.2959v9.1521c0 .7376-.6196 1.2958-1.3339 1.2958h-3.8625l1.5141 1.1005c.2234.1623.2728.475.1105.6984-.1624.2233-.475.2728-.6984.1105l-2.7586-2.0049c-.1296-.0942-.2062-.2447-.2061-.4048s.0769-.3105.2066-.4045l2.7586-1.9995c.2236-.162.5362-.1122.6983.1114.162.2236.1121.5362-.1114.6983l-1.5103 1.0946h3.8592c.2067 0 .3339-.1542.3339-.2958v-9.1521c0-.1416-.1273-.2959-.3339-.2959h-4.8339c-.2762 0-.5-.2238-.5-.5zm-18.2424 7.7763c-.0563.0496-.0748.1016-.0748.1443v3.3058c0 .0426.0185.0947.0748.1443.0572.0504.1474.0903.2591.0903h14.5936c.1118 0 .2019-.0399.2592-.0903.0563-.0496.0747-.1017.0747-.1443v-3.3058c0-.0427-.0184-.0947-.0747-.1443-.0573-.0504-.1474-.0903-.2592-.0903h-14.5936c-.1117 0-.2019.0399-.2591.0903zm-1.0748.1443c0-.7396.6587-1.2346 1.3339-1.2346h14.5936c.6753 0 1.3339.495 1.3339 1.2346v3.3058c0 .7395-.6586 1.2346-1.3339 1.2346h-14.5936c-.6752 0-1.3339-.4951-1.3339-1.2346zm-8.765 2.463c0-.7373.61945-1.2958 1.33392-1.2958h4.8338c.27614 0 .5.2238.5.5 0 .2761-.22386.5-.5.5h-4.8338c-.20668 0-.33392.1542-.33392.2958v9.1522c0 .1417.12717.2958.33392.2958h3.85912l-1.51023-1.0946c-.22359-.1621-.27347-.4747-.11141-.6983s.47469-.2734.69828-.1114l2.75862 1.9995c.12966.094.20646.2444.20656.4045.00011.1601-.0765.3106-.20604.4048l-2.75862 2.0049c-.22338.1623-.53608.1128-.69842-.1105-.16235-.2234-.11287-.5361.11051-.6985l1.51412-1.1004h-3.86249c-.7144 0-1.33392-.5582-1.33392-1.2958zm9.8398 8.1227c-.0563.0496-.0748.1016-.0748.1443v3.3058c0 .0426.0185.0947.0748.1443.0572.0504.1474.0903.2591.0903h14.5936c.1118 0 .2019-.0399.2592-.0903.0563-.0496.0747-.1017.0747-.1443v-3.3058c0-.0427-.0184-.0947-.0747-.1443-.0573-.0504-.1474-.0903-.2592-.0903h-14.5936c-.1117 0-.2019.0399-.2591.0903zm-1.0748.1443c0-.7396.6587-1.2346 1.3339-1.2346h14.5936c.6753 0 1.3339.495 1.3339 1.2346v3.3058c0 .7395-.6586 1.2346-1.3339 1.2346h-14.5936c-.6752 0-1.3339-.4951-1.3339-1.2346z" fill="#fafcff" fill-rule="evenodd"/></svg>