<svg viewBox="0 0 33 33" fill="none" xmlns="http://www.w3.org/2000/svg">
<path d="M7.11572 15.599H5.1822H3.24868C2.88022 15.599 2.58154 15.8841 2.58154 16.2357V23.5575C2.58154 23.9091 2.88022 24.1941 3.24868 24.1941H7.56943M7.56943 24.1941L5.36254 22.5945M7.56943 24.1941L5.36254 25.798M25.0473 7.92884H28.9144C29.2828 7.92884 29.5815 8.21389 29.5815 8.56551V15.8872C29.5815 16.2389 29.2828 16.5239 28.9144 16.5239H24.5936M24.5936 16.5239L26.8005 14.9243M24.5936 16.5239L26.8005 18.1278M10.2607 13.6776H21.9356C22.304 13.6776 22.6027 13.9407 22.6027 14.2653V16.9099C22.6027 17.2345 22.304 17.4976 21.9356 17.4976H10.2607C9.89224 17.4976 9.59355 17.2345 9.59355 16.9099V14.2653C9.59355 13.9407 9.89224 13.6776 10.2607 13.6776ZM10.2607 22.2616H21.9356C22.304 22.2616 22.6027 22.5247 22.6027 22.8493V25.4939C22.6027 25.8185 22.304 26.0816 21.9356 26.0816H10.2607C9.89224 26.0816 9.59355 25.8185 9.59355 25.4939V22.8493C9.59355 22.5247 9.89224 22.2616 10.2607 22.2616ZM10.2607 5.08163H21.9356C22.304 5.08163 22.6027 5.34476 22.6027 5.66933V8.31397C22.6027 8.63855 22.304 8.90167 21.9356 8.90167H10.2607C9.89224 8.90167 9.59355 8.63855 9.59355 8.31397V5.66933C9.59355 5.34476 9.89224 5.08163 10.2607 5.08163Z" stroke="#FFFFFF" stroke-linecap="round" stroke-linejoin="round"/>
</svg>
