<svg fill="none" viewBox="0 0 33 33" xmlns="http://www.w3.org/2000/svg" xmlns:xlink="http://www.w3.org/1999/xlink"><mask id="a" height="11" maskUnits="userSpaceOnUse" width="12" x="21" y="22"><path d="m32.81 27.128-2.26-3.931a.993.993 0 0 0 -.847-.505h-4.52a.993.993 0 0 0 -.848.505l-2.261 3.92a.987.987 0 0 0 0 .983l2.26 3.953c.171.312.493.51.847.524h4.521c.355-.012.677-.21.849-.521l2.26-3.93c.176-.31.176-.69 0-.998z" fill="#fff"/></mask><path clip-rule="evenodd" d="m7.68 4.403a.498.498 0 0 1 .682-.183l4.758 2.758a.502.502 0 0 1 .183.685.498.498 0 0 1 -.682.182l-4.758-2.758a.502.502 0 0 1 -.183-.684zm-2.88 2.575a.498.498 0 0 0 -.682.183.502.502 0 0 0 .184.684l4.758 2.759a.498.498 0 0 0 .682-.183.502.502 0 0 0 -.184-.684zm13.626.552a.5.5 0 0 0 -.502 0l-7.016 4.065a.5.5 0 0 0 -.25.433v7.833a.5.5 0 0 0 .249.432l7.345 4.291a.5.5 0 0 0 .504 0l7.047-4.095a.5.5 0 0 0 .248-.432v-7.798a.5.5 0 0 0 -.248-.432zm-6.766 12.044v-6.678l6.397 3.714-.046 6.675zm7.351 3.706.046-6.668 5.995-3.484v6.64l-6.04 3.512zm-.452-7.535 6-3.486-6.384-3.719-6.019 3.488zm-13.759-2.645a.498.498 0 0 0 -.682.182.502.502 0 0 0 .184.684l4.758 2.759a.498.498 0 0 0 .682-.183.502.502 0 0 0 -.184-.684l-4.758-2.759z" fill="#0278d5" fill-rule="evenodd"/><g mask="url(#a)"><path d="m32.81 27.128-2.26-3.931a.993.993 0 0 0 -.847-.505h-4.52a.993.993 0 0 0 -.848.505l-2.261 3.92a.987.987 0 0 0 0 .983l2.26 3.953c.171.312.493.51.847.524h4.521c.355-.012.677-.21.849-.521l2.26-3.93c.176-.31.176-.69 0-.998z" fill="#4285f4"/><path d="m29.985 26.332-.311.34.07 2.02-.296.428-.17-.171h.157v-.7l-.756-.757-.571.286-1.896-1.9-.912.49-.113.946.32 1.733.464.455-.211.3 2.76 2.826h1.154c.353-.013.736-.244.906-.554l1.881-3.265z" fill="#000" opacity=".07"/><g fill="#fff"><path d="m25.76 29.802.452-.453-.678-.679v-2.112l.678-.68-.452-.452-.907.907v2.563z"/><path d="m26.46 27.935a.321.321 0 1 0 0-.642.321.321 0 0 0 0 .642zm.961 0a.321.321 0 1 0 0-.642.321.321 0 0 0 0 .642zm.961 0a.321.321 0 1 0 0-.642.321.321 0 0 0 0 .642z"/><path d="m29.079 25.426-.453.453.679.679v2.112l-.68.68.454.452.906-.907v-2.563z"/></g></g></svg>