<svg xmlns="http://www.w3.org/2000/svg" viewBox="0 0 44 40"><rect width="44" height="40" fill="#effbff" rx="4"/><path fill="#004ba4" fill-rule="evenodd" d="M16.145 5.777a.52.52 0 0 1 .723-.203l2.752 1.659c.253.152.34.49.194.755a.52.52 0 0 1-.724.202l-2.752-1.658a.566.566 0 0 1-.194-.755m-1.35 2.312a.52.52 0 0 0-.724.202.566.566 0 0 0 .194.755l2.752 1.659a.52.52 0 0 0 .723-.203.566.566 0 0 0-.194-.755zm.19 3.37a.52.52 0 0 0-.723.203.566.566 0 0 0 .193.755l2.752 1.658a.52.52 0 0 0 .724-.202.566.566 0 0 0-.194-.755zm10.287-4.43a1.02 1.02 0 0 0-1.079-.002L19.67 9.804a.56.56 0 0 0-.26.476v5.443c0 .392.198.755.522.954l4.484 2.747a.51.51 0 0 0 .534.001l4.525-2.748c.325-.198.526-.562.526-.955V10.28a.56.56 0 0 0-.259-.475zm-1.118 6.504-3.687-2.282v4.472l3.687 2.259zm4.787 2.189-3.728 2.264v-4.452l3.728-2.287zm-.511-5.444-3.746 2.298-3.705-2.294L24.73 7.98z" clip-rule="evenodd"/><path fill="#004ba4" d="M8.185 31.596q-.643 0-1.15-.33-.51-.33-.803-.96-.295-.627-.295-1.526 0-.91.298-1.534.301-.63.813-.948a2.1 2.1 0 0 1 1.14-.324q.48 0 .789.164.309.159.49.387.18.224.28.422H9.8v-2.72h1.29V31.5H9.824v-.86h-.078a2.2 2.2 0 0 1-.287.423 1.6 1.6 0 0 1-.498.377q-.309.156-.777.156m.358-1.055q.41 0 .696-.22.288-.224.437-.621.15-.399.15-.927 0-.53-.15-.92a1.3 1.3 0 0 0-.433-.607 1.12 1.12 0 0 0-.7-.217q-.429 0-.717.224t-.433.618a2.6 2.6 0 0 0-.146.902q0 .51.146.912.15.398.437.629.291.227.713.227m6.331 1.066q-.821 0-1.417-.341-.593-.345-.912-.973-.32-.633-.32-1.488 0-.842.32-1.478.323-.639.902-.994.578-.359 1.36-.359.504 0 .951.164.451.16.796.497.348.337.547.86.198.518.198 1.235v.394h-4.47v-.866h3.238a1.4 1.4 0 0 0-.16-.657 1.16 1.16 0 0 0-.436-.458 1.23 1.23 0 0 0-.647-.167q-.393 0-.692.192a1.3 1.3 0 0 0-.465.497 1.4 1.4 0 0 0-.167.67v.757q0 .477.174.817.174.338.486.519.314.177.732.177.28 0 .508-.078a1.1 1.1 0 0 0 .394-.238 1 1 0 0 0 .252-.387l1.2.135q-.113.476-.433.83-.315.353-.81.548-.493.192-1.129.192m3.513 1.938v-7.5h1.264v.902h.075q.1-.198.28-.422.182-.227.49-.387.31-.165.789-.164.631 0 1.14.324.51.32.81.948.3.625.301 1.534 0 .899-.295 1.527-.294.629-.802.959t-1.15.33q-.47 0-.778-.156a1.6 1.6 0 0 1-.497-.377 2.4 2.4 0 0 1-.288-.422h-.053v2.904zm1.26-4.772q0 .528.15.927.153.398.437.621.286.22.696.22.426 0 .713-.227.288-.23.434-.629.15-.4.149-.912 0-.509-.146-.902a1.36 1.36 0 0 0-.433-.618q-.287-.224-.717-.224a1.13 1.13 0 0 0-.7.217 1.33 1.33 0 0 0-.437.607q-.145.39-.145.92m6.276-4.546V31.5h-1.286v-7.273zm3.7 7.38q-.799 0-1.384-.352a2.4 2.4 0 0 1-.91-.984q-.319-.631-.319-1.477 0-.845.32-1.48.322-.637.909-.988.585-.352 1.385-.352.798 0 1.385.352.585.351.905.987.324.636.323 1.481 0 .846-.323 1.477-.32.633-.905.984-.586.352-1.385.352m.008-1.03q.433 0 .724-.238.291-.242.433-.646.146-.405.146-.902 0-.501-.146-.906a1.43 1.43 0 0 0-.433-.65 1.1 1.1 0 0 0-.724-.241q-.444 0-.739.241-.291.242-.437.65-.142.405-.142.906 0 .496.142.901.146.405.437.647.295.238.739.238m4.31 2.968a2.6 2.6 0 0 1-.837-.135l.298-1q.28.081.5.077a.6.6 0 0 0 .388-.138q.171-.132.288-.44l.11-.295-1.978-5.568h1.363l1.257 4.119h.057l1.26-4.12h1.368l-2.184 6.115a2.5 2.5 0 0 1-.405.743 1.65 1.65 0 0 1-.618.476q-.362.165-.866.166"/></svg>