<svg fill="none" height="18" viewBox="0 0 18 18" width="18" xmlns="http://www.w3.org/2000/svg" xmlns:xlink="http://www.w3.org/1999/xlink"><mask id="a" fill="#fff"><path d="m6.75 6.625a.5.5 0 1 0 0 1h4.5a.5.5 0 1 0 0-1zm-.5 2.75a.5.5 0 0 1 .5-.5h4.5a.5.5 0 1 1 0 1h-4.5a.5.5 0 0 1 -.5-.5zm0 2.25a.5.5 0 0 1 .5-.5h4.5a.5.5 0 1 1 0 1h-4.5a.5.5 0 0 1 -.5-.5z" fill="#fff" fill-rule="evenodd"/></mask><path d="m7.25 7.125a.5.5 0 0 1 -.5.5v-2a1.5 1.5 0 0 0 -1.5 1.5zm-.5-.5a.5.5 0 0 1 .5.5h-2a1.5 1.5 0 0 0 1.5 1.5zm4.5 0h-4.5v2h4.5zm-.5.5a.5.5 0 0 1 .5-.5v2a1.5 1.5 0 0 0 1.5-1.5zm.5.5a.5.5 0 0 1 -.5-.5h2a1.5 1.5 0 0 0 -1.5-1.5zm-4.5 0h4.5v-2h-4.5zm0 .25a1.5 1.5 0 0 0 -1.5 1.5h2a.5.5 0 0 1 -.5.5zm4.5 0h-4.5v2h4.5zm1.5 1.5a1.5 1.5 0 0 0 -1.5-1.5v2a.5.5 0 0 1 -.5-.5zm-1.5 1.5a1.5 1.5 0 0 0 1.5-1.5h-2a.5.5 0 0 1 .5-.5zm-4.5 0h4.5v-2h-4.5zm-1.5-1.5a1.5 1.5 0 0 0 1.5 1.5v-2a.5.5 0 0 1 .5.5zm1.5.75a1.5 1.5 0 0 0 -1.5 1.5h2a.5.5 0 0 1 -.5.5zm4.5 0h-4.5v2h4.5zm1.5 1.5a1.5 1.5 0 0 0 -1.5-1.5v2a.5.5 0 0 1 -.5-.5zm-1.5 1.5a1.5 1.5 0 0 0 1.5-1.5h-2a.5.5 0 0 1 .5-.5zm-4.5 0h4.5v-2h-4.5zm-1.5-1.5a1.5 1.5 0 0 0 1.5 1.5v-2a.5.5 0 0 1 .5.5z" fill="#6b6d85" mask="url(#a)" opacity=".3"/><rect height="13.5" rx="1" stroke="#6b6d85" width="10.5" x="3.75" y="2.25"/></svg>