<svg xmlns="http://www.w3.org/2000/svg" viewBox="0 0 80 80"><path fill="#01C9CC" d="M62.459 35.203c.287-.945 1.625-.945 1.913 0l.511 1.679a1 1 0 0 0 .957.708h1.785c.953 0 1.366 1.207.613 1.79l-1.553 1.204a1 1 0 0 0-.344 1.082l.566 1.86c.284.933-.798 1.68-1.569 1.082l-1.31-1.015a1 1 0 0 0-1.225 0l-1.31 1.015c-.772.598-1.854-.149-1.57-1.081l.567-1.86a1 1 0 0 0-.344-1.083l-1.553-1.203c-.754-.584-.34-1.79.612-1.79h1.786a1 1 0 0 0 .956-.71l.512-1.678Z"/><path fill="#000" fill-rule="evenodd" d="m63.927 37.173-.512-1.679-.511 1.679a2 2 0 0 1-1.913 1.417h-1.786l1.553 1.204a2 2 0 0 1 .688 2.164l-.566 1.86 1.31-1.016a2 2 0 0 1 2.45 0l1.31 1.016-.566-1.86a2 2 0 0 1 .688-2.164l1.553-1.204H65.84a2 2 0 0 1-1.913-1.417Zm.445-1.97c-.288-.945-1.626-.945-1.913 0l-.512 1.679a1 1 0 0 1-.956.708h-1.786c-.953 0-1.366 1.207-.612 1.79l1.553 1.204a1 1 0 0 1 .344 1.082l-.567 1.86c-.284.933.798 1.68 1.57 1.082l1.31-1.015a1 1 0 0 1 1.225 0l1.31 1.015c.77.598 1.853-.149 1.57-1.081l-.567-1.86a1 1 0 0 1 .344-1.083l1.553-1.203c.753-.584.34-1.79-.613-1.79H65.84a1 1 0 0 1-.957-.71l-.511-1.678Z" clip-rule="evenodd"/><path fill="#01C9CC" d="M15.964 34.99c.3-.922 1.603-.922 1.903 0l.62 1.91a1 1 0 0 0 .951.69h2.008c.969 0 1.372 1.24.588 1.81l-1.624 1.18a1 1 0 0 0-.364 1.117l.62 1.91c.3.922-.754 1.688-1.538 1.118l-1.625-1.18a1 1 0 0 0-1.175 0l-1.625 1.18c-.784.57-1.838-.196-1.539-1.118l.62-1.91a1 1 0 0 0-.363-1.117l-1.624-1.18c-.784-.57-.381-1.81.588-1.81h2.008a1 1 0 0 0 .95-.69l.621-1.91Z"/><path fill="#000" fill-rule="evenodd" d="m17.536 37.208-.62-1.91-.621 1.91a2 2 0 0 1-1.902 1.382h-2.008l1.624 1.18a2 2 0 0 1 .727 2.236l-.62 1.91 1.624-1.18a2 2 0 0 1 2.351 0l1.625 1.18-.62-1.91a2 2 0 0 1 .726-2.236l1.624-1.18h-2.008a2 2 0 0 1-1.902-1.382Zm.33-2.219c-.299-.921-1.602-.921-1.902 0l-.62 1.91a1 1 0 0 1-.951.691h-2.008c-.969 0-1.372 1.24-.588 1.81l1.624 1.18a1 1 0 0 1 .364 1.117l-.62 1.91c-.3.922.754 1.688 1.538 1.118l1.625-1.18a1 1 0 0 1 1.175 0l1.625 1.18c.784.57 1.838-.196 1.539-1.118l-.62-1.91a1 1 0 0 1 .363-1.117l1.624-1.18c.784-.57.381-1.81-.588-1.81h-2.008a1 1 0 0 1-.95-.69l-.621-1.91Z" clip-rule="evenodd"/><path fill="#01C9CC" d="M54.964 20.99c.3-.922 1.603-.922 1.903 0l.62 1.91a1 1 0 0 0 .951.69h2.008c.969 0 1.372 1.24.588 1.81l-1.624 1.18a1 1 0 0 0-.364 1.118l.62 1.91c.3.92-.754 1.687-1.538 1.117l-1.625-1.18a1 1 0 0 0-1.175 0l-1.625 1.18c-.784.57-1.838-.196-1.539-1.118l.62-1.91a1 1 0 0 0-.362-1.117l-1.625-1.18c-.784-.57-.381-1.81.588-1.81h2.008a1 1 0 0 0 .95-.69l.621-1.91Z"/><path fill="#000" fill-rule="evenodd" d="m56.536 23.208-.62-1.91-.621 1.91a2 2 0 0 1-1.902 1.382h-2.008l1.624 1.18a2 2 0 0 1 .727 2.236l-.62 1.91 1.624-1.18a2 2 0 0 1 2.351 0l1.625 1.18-.62-1.91a2 2 0 0 1 .726-2.236l1.624-1.18h-2.008a2 2 0 0 1-1.902-1.382Zm.33-2.219c-.299-.921-1.602-.921-1.902 0l-.62 1.91a1 1 0 0 1-.951.691h-2.008c-.969 0-1.372 1.24-.588 1.81l1.625 1.18a1 1 0 0 1 .363 1.118l-.62 1.91c-.3.92.754 1.687 1.538 1.117l1.625-1.18a1 1 0 0 1 1.175 0l1.625 1.18c.784.57 1.838-.196 1.539-1.118l-.62-1.91a1 1 0 0 1 .363-1.117l1.624-1.18c.784-.57.381-1.81-.588-1.81h-2.008a1 1 0 0 1-.95-.69l-.621-1.91Z" clip-rule="evenodd"/><path fill="#01C9CC" d="M22.964 20.99c.3-.922 1.603-.922 1.903 0l.62 1.91a1 1 0 0 0 .951.69h2.008c.969 0 1.372 1.24.588 1.81l-1.624 1.18a1 1 0 0 0-.364 1.118l.62 1.91c.3.92-.754 1.687-1.538 1.117l-1.625-1.18a1 1 0 0 0-1.175 0l-1.625 1.18c-.784.57-1.838-.196-1.539-1.118l.62-1.91a1 1 0 0 0-.362-1.117l-1.625-1.18c-.784-.57-.381-1.81.588-1.81h2.008a1 1 0 0 0 .95-.69l.621-1.91Z"/><path fill="#000" fill-rule="evenodd" d="m24.536 23.208-.62-1.91-.621 1.91a2 2 0 0 1-1.902 1.382h-2.008l1.624 1.18a2 2 0 0 1 .727 2.236l-.62 1.91 1.624-1.18a2 2 0 0 1 2.351 0l1.625 1.18-.62-1.91a2 2 0 0 1 .726-2.236l1.624-1.18h-2.008a2 2 0 0 1-1.902-1.382Zm.33-2.219c-.299-.921-1.602-.921-1.902 0l-.62 1.91a1 1 0 0 1-.951.691h-2.008c-.969 0-1.372 1.24-.588 1.81l1.625 1.18a1 1 0 0 1 .363 1.118l-.62 1.91c-.3.92.754 1.687 1.538 1.117l1.625-1.18a1 1 0 0 1 1.175 0l1.625 1.18c.784.57 1.838-.196 1.539-1.118l-.62-1.91a1 1 0 0 1 .363-1.117l1.624-1.18c.784-.57.381-1.81-.588-1.81h-2.008a1 1 0 0 1-.95-.69l-.621-1.91Z" clip-rule="evenodd"/><path fill="#01C9CC" d="M38.964 12.99c.3-.922 1.603-.922 1.903 0l.62 1.91a1 1 0 0 0 .951.69h2.008c.969 0 1.372 1.24.588 1.81l-1.624 1.18a1 1 0 0 0-.364 1.118l.62 1.91c.3.92-.754 1.687-1.538 1.117l-1.625-1.18a1 1 0 0 0-1.175 0l-1.625 1.18c-.784.57-1.838-.196-1.539-1.118l.62-1.91a1 1 0 0 0-.362-1.117l-1.625-1.18c-.784-.57-.381-1.81.588-1.81h2.008a1 1 0 0 0 .95-.69l.621-1.91Z"/><path fill="#000" fill-rule="evenodd" d="m40.536 15.208-.62-1.91-.621 1.91a2 2 0 0 1-1.902 1.382h-2.008l1.624 1.18a2 2 0 0 1 .727 2.236l-.62 1.91 1.624-1.18a2 2 0 0 1 2.351 0l1.625 1.18-.62-1.91a2 2 0 0 1 .726-2.236l1.624-1.18h-2.008a2 2 0 0 1-1.902-1.382Zm.33-2.219c-.299-.921-1.602-.921-1.902 0l-.62 1.91a1 1 0 0 1-.951.691h-2.008c-.969 0-1.372 1.24-.588 1.81l1.625 1.18a1 1 0 0 1 .363 1.118l-.62 1.91c-.3.92.754 1.687 1.538 1.117l1.625-1.18a1 1 0 0 1 1.175 0l1.625 1.18c.784.57 1.838-.196 1.539-1.118l-.62-1.91a1 1 0 0 1 .363-1.117l1.624-1.18c.784-.57.381-1.81-.588-1.81h-2.008a1 1 0 0 1-.95-.69l-.621-1.91Z" clip-rule="evenodd"/><path fill="#fff" d="M29.26 69.165c-.623-1.871 3.64-16.378 5.85-23.397-5.616 1.248-6.24 9.099-5.85 12.868-2.34-1.95-6.473-6.785-4.29-10.528 2.184-3.744 8.71-6.5 11.7-7.41C34.2 36.67 24.97 29 40.178 30.56c10.316 1.058 7.54 7.929 5.07 10.139 1.43-.13 3.275-.858 7.019 3.51 3.743 4.367 3.727 10.432.87 12.443 0 0-.584-3.854-1.27-6.032-.909-2.883-4.128-5.82-4.128-5.82 4.127 9.312 7.408 19.047 7.408 19.047s1.587 9.207-8.678-2.857c-2.305-2.709-8.37.116-9.8 1.936-2.21 2.86-6.785 8.111-7.41 6.24Z"/><path fill="#000" fill-rule="evenodd" d="M39.826 29.637c-1.7-.22-3.44-.202-5.133.204-.64.154-1.36.38-1.98.76-.627.385-1.175.941-1.419 1.75a3.81 3.81 0 0 0-.152 1.236c-.155 1.307.309 2.54 1.101 3.62.8 1.089 1.953 2.05 3.23 2.825 1.28.777 2.704 1.38 4.067 1.746 1.356.363 2.688.5 3.769.304a7.42 7.42 0 0 0 2.073-.72 6.17 6.17 0 0 0 .376-.165 3.608 3.608 0 0 0 1.03-.757c.153-.125.302-.256.445-.392 1.099-1.045 1.905-2.43 2.005-3.995.112-1.768-.944-3.056-2.226-3.951-.82-.573-1.767-1.013-2.654-1.344-1.08-.476-2.263-.747-3.494-.957-.344-.064-.69-.12-1.038-.164Zm.897 1.13a46.966 46.966 0 0 0-1.028-.163c-1.604-.208-3.222-.187-4.774.186-.602.145-1.206.342-1.698.643-.485.298-.838.68-.994 1.2-.272.903-.037 1.977.505 3.038a9.335 9.335 0 0 0 2.07 2.653c1.203 1.05 3.08 1.926 5.06 2.345 1.828.387 3.674.369 5.112-.194.4-.211.787-.463 1.145-.75.504-.54.883-1.304 1.1-2.149.322-1.246.244-2.471-.131-3.121-.806-1.396-1.85-2.239-3.099-2.793a17.99 17.99 0 0 0-1.308-.428c-.644-.184-1.3-.343-1.96-.467ZM47.313 43.97a.488.488 0 0 0-.24.646c1.593 3.483 2.473 5.703 3.452 8.171.682 1.722 1.412 3.565 2.466 6.04.27.634.961 2.419 1.382 4.2.21.892.346 1.756.337 2.463-.01.656-.142 1.064-.334 1.277-.383.057-.878-.097-1.515-.515-.683-.448-1.425-1.13-2.212-1.908-.278-.274-.562-.562-.85-.853a60.208 60.208 0 0 0-1.536-1.519c-.794-.745-1.61-1.424-2.404-1.822-2.086-1.043-4.137-1.012-6.092-.108-1.931.892-3.745 2.623-5.44 4.936-.785 1.072-1.62 2.179-2.669 2.933-1.024.736-2.248 1.134-3.85.778a.488.488 0 1 0-.212.953c1.908.424 3.413-.063 4.632-.94 1.193-.857 2.112-2.09 2.887-3.148 1.647-2.248 3.343-3.832 5.061-4.627 1.694-.783 3.433-.81 5.247.096.66.33 1.39.925 2.171 1.66.496.466.99.967 1.491 1.473.29.294.583.59.878.882.789.78 1.591 1.523 2.363 2.03.756.496 1.593.838 2.41.619a.486.486 0 0 0 .18-.092c.59-.477.758-1.296.769-2.091.011-.824-.145-1.778-.363-2.702-.437-1.853-1.151-3.694-1.433-4.356a240.634 240.634 0 0 1-2.443-5.982c-.99-2.496-1.889-4.762-3.486-8.254a.488.488 0 0 0-.647-.24Z" clip-rule="evenodd"/><path fill="#000" fill-rule="evenodd" d="M34.895 45.703a.488.488 0 0 0-.63.281c-.646 1.691-2.29 6.066-3.61 10.868-.66 2.401-1.243 4.918-1.578 7.264-.335 2.34-.43 4.546-.092 6.311a.488.488 0 0 0 .958-.183c-.308-1.609-.23-3.69.1-5.99.327-2.292.898-4.765 1.552-7.143 1.308-4.756 2.938-9.095 3.582-10.778a.488.488 0 0 0-.282-.63Z" clip-rule="evenodd"/><path fill="#000" fill-rule="evenodd" d="M36.941 39.997a.488.488 0 0 0-.67-.16c-.446.273-.892.543-1.338.814-2.644 1.603-5.287 3.205-7.632 5.352-2.2 2.013-3.453 4.502-3.166 6.978.29 2.492 2.118 4.799 5.704 6.48a.488.488 0 1 0 .414-.884c-3.402-1.595-4.912-3.667-5.149-5.709-.239-2.058.794-4.26 2.855-6.146 2.27-2.076 4.82-3.623 7.467-5.229.449-.272.901-.547 1.355-.825a.488.488 0 0 0 .16-.671ZM45.164 40.208a.488.488 0 0 0 .377.578c3.536.744 6.632 3.465 8.18 6.667 1.365 2.82 1.495 5.922-.226 8.346-.217-3.205-1.356-7.693-5.575-11.56a.488.488 0 0 0-.659.719c4.544 4.165 5.302 9.08 5.302 12.119a.488.488 0 0 0 .832.345c2.908-2.909 2.869-6.954 1.205-10.394-1.661-3.433-4.985-6.381-8.858-7.197a.488.488 0 0 0-.578.377ZM46.89 34.98a.488.488 0 0 0-.616.31c-.483 1.449-2.142 2.202-4.228 2.25-2.06.046-4.271-.616-5.52-1.687a.488.488 0 0 0-.636.74c1.48 1.27 3.949 1.972 6.178 1.922 2.204-.05 4.445-.857 5.131-2.917a.488.488 0 0 0-.308-.617Z" clip-rule="evenodd"/><path fill="#000" fill-rule="evenodd" d="M37.067 45.059a.488.488 0 0 0-.603-.335c-2.794.798-5.654 2.41-7.204 4.942-1.575 2.573-1.732 5.984.675 10.197a.488.488 0 1 0 .847-.484c-2.272-3.976-2.04-7-.69-9.204 1.375-2.245 3.975-3.752 6.64-4.514a.488.488 0 0 0 .335-.602Z" clip-rule="evenodd"/></svg>