<svg viewBox="0 0 16 16" fill="none" xmlns="http://www.w3.org/2000/svg"><path d="M7.646 6.854a.5.5 0 0 0 .708 0l2.5-2.5a.5.5 0 0 0 0-.708l-2.5-2.5a.5.5 0 0 0-.708 0l-2.5 2.5a.5.5 0 0 0 0 .708zM8 2.207 9.793 4 8 5.793 6.207 4zm.354 6.937a.5.5 0 0 0-.708 0l-2.5 2.5a.5.5 0 0 0 0 .708l2.5 2.5a.5.5 0 0 0 .708 0l2.5-2.5a.5.5 0 0 0 0-.708zM8 13.794 6.207 12 8 10.207 9.793 12zm6.854-6.148-2.5-2.5a.5.5 0 0 0-.708 0l-2.5 2.5a.5.5 0 0 0 0 .708l2.5 2.5a.5.5 0 0 0 .708 0l2.5-2.5a.5.5 0 0 0 0-.708M12 9.793 10.207 8 12 6.207 13.793 8zM6.854 7.646l-2.5-2.5a.5.5 0 0 0-.708 0l-2.5 2.5a.5.5 0 0 0 0 .708l2.5 2.5a.5.5 0 0 0 .708 0l2.5-2.5a.5.5 0 0 0 0-.708M4 9.793 2.207 8 4 6.207 5.793 8z" fill="currentColor"/></svg>