<svg fill="none" height="16" viewBox="0 0 17 16" width="17" xmlns="http://www.w3.org/2000/svg"><path clip-rule="evenodd" d="m2.66165 8.09072c.04799 1.10625.96003 1.98838 2.0781 1.98838 1.14879 0 2.08007-.93128 2.08007-2.08008 0-1.14879-.93128-2.08007-2.08007-2.08007-1.10461 0-2.00811.86101-2.07599 1.94851-.00267.04367-.00402.08771-.00402.13205 0 .03056.00064.06097.00191.09121zm8.58635 2.03918h-4.28421c.53023-.55329.85603-1.30403.85603-2.13088 0-.82635-.32542-1.5767-.8551-2.12988h4.28328c1.1766 0 2.1304.9538 2.1304 2.13037s-.9538 2.13039-2.1304 2.13039zm-9.5854-1.99526c.07076 1.66617 1.44392 2.99526 3.1275 2.99526h6.4579c1.7289 0 3.1304-1.40153 3.1304-3.13039 0-1.72885-1.4015-3.13037-3.1304-3.13037h-6.45789c-1.66325 0-3.02353 1.29716-3.12438 2.93501-.00402.06444-.00606.12942-.00606.19487 0 .04545.00098.09066.00293.13562z" fill="#fff" fill-rule="evenodd"/></svg>