<svg viewBox="0 0 28 28" fill="none" xmlns="http://www.w3.org/2000/svg"><g clip-path="url(#a)"><path d="M27.422 11.21c-.63-.437-2.075-.6-3.205-.382-.131-1.094-.736-2.05-1.787-2.898l-.604-.438-.42.629c-.525.82-.788 1.969-.71 3.062.027.383.158 1.067.552 1.668-.367.219-1.13.492-2.128.492H.126l-.052.22c-.184 1.093-.184 4.51 1.97 7.135 1.629 1.997 4.046 3.008 7.225 3.008 6.883 0 11.98-3.308 14.37-9.296.946.027 2.969 0 3.993-2.051a22.8 22.8 0 0 0 .263-.574l.105-.219-.578-.355ZM15.311 3.5h-2.89v2.734h2.89V3.5Zm0 3.281h-2.89v2.734h2.89V6.781Zm-3.415 0h-2.89v2.734h2.89V6.781Zm-3.415 0H5.59v2.734h2.89V6.781Zm-3.416 3.281h-2.89v2.735h2.89v-2.735Zm3.416 0H5.59v2.735h2.89v-2.735Zm3.415 0h-2.89v2.735h2.89v-2.735Zm3.415 0h-2.89v2.735h2.89v-2.735Zm3.415 0h-2.89v2.735h2.89v-2.735Z" fill="#FAFCFF"/></g><defs><clipPath id="a"><path fill="#fff" transform="translate(0 3.5)" d="M0 0h28v20.234H0z"/></clipPath></defs></svg>