<svg width="24" height="25" viewBox="0 0 24 25" fill="none" xmlns="http://www.w3.org/2000/svg">
<path d="M23.5046 10.3513C22.9642 9.97631 21.7257 9.83569 20.7574 10.0232C20.6448 9.08572 20.1269 8.26544 19.2262 7.53891L18.7082 7.16392L18.3479 7.70297C17.8976 8.40606 17.6724 9.3904 17.74 10.3279C17.7625 10.656 17.8751 11.2419 18.2128 11.7575C17.8976 11.945 17.2446 12.1793 16.3889 12.1793H0.10826L0.0632234 12.3668C-0.0944035 13.3043 -0.0944036 16.2339 1.75208 18.4838C3.14821 20.1947 5.21988 21.0618 7.94457 21.0618C13.8443 21.0618 18.2128 18.226 20.262 13.0934C21.0726 13.1168 22.8065 13.0934 23.6847 11.3356C23.7073 11.2888 23.7523 11.195 23.9099 10.8435L24 10.656L23.5046 10.3513ZM13.1237 3.74219H10.6467V6.08584H13.1237V3.74219ZM13.1237 6.55457H10.6467V8.89823H13.1237V6.55457ZM10.1964 6.55457H7.71939V8.89823H10.1964V6.55457ZM7.26903 6.55457H4.79203V8.89823H7.26903V6.55457ZM4.34167 9.36696H1.86467V11.7106H4.34167V9.36696ZM7.26903 9.36696H4.79203V11.7106H7.26903V9.36696ZM10.1964 9.36696H7.71939V11.7106H10.1964V9.36696ZM13.1237 9.36696H10.6467V11.7106H13.1237V9.36696ZM16.0511 9.36696H13.5741V11.7106H16.0511V9.36696Z" fill="#2396ED"/>
</svg>
