<svg xmlns="http://www.w3.org/2000/svg" width="24" height="25" fill="none" viewBox="0 0 24 25">
  <g clip-path="url(#a)">
    <path fill="#fff" d="M22.546 10.527c-.495-.346-1.63-.476-2.518-.303-.104-.865-.578-1.622-1.404-2.292l-.475-.346-.33.498c-.413.648-.62 1.556-.557 2.421.02.303.123.843.433 1.319-.289.173-.887.39-1.672.39H1.1l-.041.172c-.145.865-.145 3.568 1.548 5.643 1.28 1.579 3.179 2.378 5.677 2.378 5.408 0 9.412-2.616 11.29-7.35.744.021 2.333 0 3.138-1.622.02-.043.062-.13.206-.454l.083-.173-.454-.281ZM13.03 4.43h-2.27v2.162h2.27V4.43Zm0 2.594h-2.27v2.162h2.27V7.024Zm-2.683 0h-2.27v2.162h2.27V7.024Zm-2.684 0h-2.27v2.162h2.27V7.024ZM4.98 9.62H2.71v2.162h2.27V9.619Zm2.683 0h-2.27v2.162h2.27V9.619Zm2.684 0h-2.27v2.162h2.27V9.619Zm2.683 0h-2.27v2.162h2.27V9.619Zm2.684 0h-2.271v2.162h2.27V9.619Z"/>
  </g>
  <defs>
    <clipPath id="a">
      <path fill="#fff" d="M0 0h22v16H0z" transform="translate(1 4.43)"/>
    </clipPath>
  </defs>
</svg>
