<svg viewBox="0 0 33 32" fill="none" xmlns="http://www.w3.org/2000/svg">
<g clip-path="url(#clip0_2920_319532)">
<path d="M31.3675 13.2657C30.647 12.7657 28.9957 12.5782 27.7046 12.8283C27.5545 11.5783 26.8639 10.4846 25.663 9.51588L24.9723 9.01589L24.4919 9.73462C23.8915 10.6721 23.5913 11.9845 23.6814 13.2345C23.7114 13.672 23.8615 14.4532 24.3118 15.1407C23.8915 15.3907 23.0209 15.7031 21.8799 15.7031H0.172423L0.112374 15.9531C-0.0977951 17.2031 -0.0977953 21.1092 2.36418 24.1091C4.22569 26.3903 6.98792 27.5464 10.6208 27.5464C18.4871 27.5464 24.3118 23.7653 27.0441 16.9219C28.1249 16.9531 30.4367 16.9219 31.6077 14.5781C31.6378 14.5157 31.6978 14.3907 31.9079 13.922L32.0281 13.672L31.3675 13.2657ZM17.5263 4.45358H14.2237V7.57845H17.5263V4.45358ZM17.5263 8.20342H14.2237V11.3283H17.5263V8.20342ZM13.6233 8.20342H10.3206V11.3283H13.6233V8.20342ZM9.72012 8.20342H6.41745V11.3283H9.72012V8.20342ZM5.81697 11.9533H2.5143V15.0781H5.81697V11.9533ZM9.72012 11.9533H6.41745V15.0781H9.72012V11.9533ZM13.6233 11.9533H10.3206V15.0781H13.6233V11.9533ZM17.5263 11.9533H14.2237V15.0781H17.5263V11.9533ZM21.4295 11.9533H18.1269V15.0781H21.4295V11.9533Z" fill="#2396ED"/>
</g>
<defs>
<clipPath id="clip0_2920_319532">
<rect width="32" height="32" fill="white" transform="translate(0.0280762)"/>
</clipPath>
</defs>
</svg>
