<svg width="16" height="16" viewBox="0 0 16 16"  xmlns="http://www.w3.org/2000/svg">
<g clip-path="url(#clip0_12223_11425)">
<path d="M0.799999 0.905037H3.68532C6.2099 0.905037 7.52595 2.00791 7.52595 4.27166V4.3393C7.52595 6.62231 6.16114 7.82196 3.69502 7.82196H0.799999V0.905037ZM3.60746 5.85819C4.48464 5.85819 4.81628 5.47132 4.81628 4.39732V4.32006C4.81628 3.14955 4.42646 2.86909 3.58807 2.86909H3.40299V5.85846H3.60774L3.60746 5.85819Z" fill="#221E27"/>
<path d="M0.799999 8.28307H3.86098C5.93728 8.28307 6.90228 9.1151 6.90228 10.6145V10.6532C6.90228 11.5625 6.50276 12.1042 5.87882 12.443L7.31178 15.2H4.61154L3.52961 13.0039H3.38332V15.2H0.799999V8.28307ZM3.67562 11.3885C4.18264 11.3885 4.40679 11.1853 4.40679 10.7789V10.7401C4.40679 10.3629 4.18264 10.1984 3.69529 10.1984H3.38332V11.3885H3.67562Z" fill="#221E27"/>
<path d="M9.72166 8.28307H13.0652L15.2 15.2H12.4316L12.1978 14.2811H10.2287L9.99484 15.2H7.57748L9.72194 8.28307H9.72166ZM10.6573 12.559H11.7686L11.2228 10.3533L10.6576 12.559H10.6573Z" fill="#221E27"/>
<path d="M7.80301 4.37945C7.80301 2.40248 9.41772 0.800003 11.4095 0.800003C13.4013 0.800003 15.0163 2.40248 15.0163 4.37945C15.0163 6.35642 13.4016 7.9589 11.4095 7.9589C9.41745 7.9589 7.80273 6.35642 7.80273 4.37945H7.80301ZM11.4095 3.01564C10.6506 3.01564 10.0353 3.62633 10.0353 4.37945C10.0353 5.13257 10.6506 5.74326 11.4095 5.74326C12.1684 5.74326 12.7837 5.13257 12.7837 4.37945C12.7837 3.62633 12.1684 3.01564 11.4095 3.01564Z" fill="#221E27"/>
</g>
<defs>
<clipPath id="clip0_12223_11425">
<rect width="14.4" height="14.4" fill="white" transform="translate(0.799999 0.800003)"/>
</clipPath>
</defs>
</svg>
