<svg viewBox="0 0 32 32" xmlns="http://www.w3.org/2000/svg">
<g clip-path="url(#clip0_4941_873)">
<path fill-rule="evenodd" clip-rule="evenodd" d="M16.9785 5.43781C16.9785 5.16168 16.7547 4.93783 16.4786 4.93781C16.2024 4.93778 15.9786 5.16168 15.9785 5.43781L15.9758 20.2005L11.1064 15.4788C10.9081 15.2866 10.5916 15.2915 10.3993 15.4897C10.2071 15.688 10.212 16.0045 10.4102 16.1968L16.0963 21.7103C16.1456 21.7677 16.2081 21.8142 16.2807 21.8449C16.3441 21.8718 16.4108 21.8847 16.4771 21.8845C16.5433 21.8847 16.61 21.8717 16.6734 21.8449C16.746 21.8142 16.8086 21.7676 16.8578 21.7102L22.541 16.1967C22.7391 16.0044 22.7439 15.6878 22.5517 15.4896C22.3594 15.2914 22.0428 15.2867 21.8446 15.4789L16.9785 20.1999V5.43781ZM6.97876 20.6911C6.97876 20.415 6.7549 20.1911 6.47876 20.1911C6.20262 20.1911 5.97876 20.415 5.97876 20.6911V26.2378C5.97876 26.5139 6.20262 26.7378 6.47876 26.7378H26.4788C26.7549 26.7378 26.9788 26.5139 26.9788 26.2378V20.6911C26.9788 20.415 26.7549 20.1911 26.4788 20.1911C26.2026 20.1911 25.9788 20.415 25.9788 20.6911V25.7378H6.97876V20.6911Z" fill="#0278D5"/>
<g clip-path="url(#clip1_4941_873)">
<path d="M24.5472 22.9085L23.884 23.2752V29.7103L24.5472 30.0748L24.5512 30.0695V22.9136L24.5472 22.9085Z" fill="#8C3123"/>
<path d="M28.0964 29.1408L24.5471 30.0748V22.9085L28.0964 23.8222V29.1408Z" fill="#E05243"/>
<path d="M26.4944 27.6786L27.9999 27.8905L28.0093 27.8664L28.0178 25.1372L27.9999 25.1159L26.4944 25.3247V27.6786" fill="#8C3123"/>
<path d="M28 29.1513L31.4526 30.0768L31.4581 30.0673L31.458 22.9149L31.4525 22.9085L28 23.8327V29.1513" fill="#8C3123"/>
<path d="M29.5059 27.6786L28 27.8905V25.1159L29.5059 25.3247V27.6786Z" fill="#E05243"/>
<path d="M29.5058 24.1863L27.9999 24.4897L26.4944 24.1863L27.998 23.7506L29.5058 24.1863Z" fill="#5E1F18"/>
<path d="M29.5058 28.8138L27.9999 28.5084L26.4944 28.8138L27.998 29.2779L29.5058 28.8138Z" fill="#F2B0A9"/>
<path d="M26.4944 24.1863L27.9999 23.7745L28.0121 23.7703V21.0111L27.9999 21L26.4944 21.8323V24.1863Z" fill="#8C3123"/>
<path d="M29.5059 24.1863L28 23.7745V21L29.5059 21.8323V24.1863Z" fill="#E05243"/>
<path d="M27.9998 32L26.4941 31.168V28.814L27.9998 29.2258L28.0219 29.2536L28.0159 31.952L27.9998 32Z" fill="#8C3123"/>
<path d="M28 32L29.5058 31.168V28.814L28 29.2257V32M31.4526 22.9085L32.1161 23.2752V29.7103L31.4526 30.0768V22.9085Z" fill="#E05243"/>
</g>
</g>
<defs>
<clipPath id="clip0_4941_873">
<rect width="32" height="32" fill="white"/>
</clipPath>
<clipPath id="clip1_4941_873">
<rect width="11" height="11" fill="white" transform="translate(22.5 21)"/>
</clipPath>
</defs>
</svg>
