<svg xmlns="http://www.w3.org/2000/svg" width="32" height="32" fill="none" viewBox="0 0 32 32"><path stroke="#0278d5" stroke-linecap="round" stroke-linejoin="round" stroke-width="1.5" d="m20 15.5-4.002 4L16 8v11.5l-4.004-4M23 19v4H9v-4"/><path fill="#ea4335" d="M29.076 25.554h.244l.696-.696.034-.295a3.126 3.126 0 0 0-5.085 1.525.38.38 0 0 1 .244-.015l1.39-.23s.072-.116.108-.109a1.735 1.735 0 0 1 2.374-.18z"/><path fill="#4285f4" d="M31.006 26.088a3.13 3.13 0 0 0-.944-1.522l-.976.976c.412.336.647.843.637 1.376v.173a.869.869 0 0 1 0 1.737h-1.737l-.174.176v1.042l.174.173h1.737a2.26 2.26 0 0 0 1.283-4.13"/><path fill="#34a853" d="M26.246 30.21h1.737v-1.391h-1.737a.9.9 0 0 1-.359-.078l-.244.075-.7.695-.061.245c.393.296.872.455 1.364.453"/><path fill="#fbbc05" d="M26.246 25.698a2.259 2.259 0 0 0-1.364 4.05l1.008-1.008a.869.869 0 1 1 1.15-1.149l1.007-1.008a2.26 2.26 0 0 0-1.8-.885"/></svg>