<svg xmlns="http://www.w3.org/2000/svg" viewBox="0 0 32 32" xmlns:v="https://vecta.io/nano"><path fill-rule="evenodd" d="M16 2.5a.5.5 0 0 1 .5.5v18.748l6.295-6.107a.5.5 0 1 1 .696.718l-7.108 6.896a.5.5 0 0 1-.385.178.5.5 0 0 1-.385-.178l-7.112-6.896a.5.5 0 1 1 .696-.718l6.299 6.108L15.5 3a.5.5 0 0 1 .5-.5zM3.5 21.567a.5.5 0 0 1 .5.5V28.5h21v1H3.5A.5.5 0 0 1 3 29v-6.933a.5.5 0 0 1 .5-.5zM29 24v-1.933a.5.5 0 1 0-1 0V24h1z" fill="#0278d5"/><path d="M31.175 24.601l-2.771-2.775a3.16 3.16 0 0 0-1.146-.693c-.947-.315-1.889-.069-2.652.693l-2.778 2.775c-.31.328-.547.719-.693 1.146-.316.947-.07 1.889.693 2.651l2.774 2.775c.328.31.718.547 1.145.693.259.087.53.133.803.134.665 0 1.303-.281 1.849-.827l2.773-2.775c.311-.328.547-.719.694-1.146.315-.947.069-1.888-.694-2.651h.002zm-4.461-1.97a1.57 1.57 0 0 1 .567.324l.82.821-1.599 1.598-1.599-1.599.824-.826c.221-.22.533-.454.989-.32l-.002.001zm-4.08 3.653a1.57 1.57 0 0 1 .326-.567l.82-.82 1.599 1.599-1.6 1.599-.824-.826c-.221-.22-.453-.532-.321-.988l.001.002zm3.653 4.08a1.55 1.55 0 0 1-.567-.324l-.817-.811 1.599-1.6 1.599 1.599-.824.826c-.221.22-.532.454-.989.32v-.009zm4.082-3.645a1.58 1.58 0 0 1-.324.567l-.82.81-1.599-1.599 1.599-1.599.824.824c.221.22.454.532.321.988" fill="#00abe4"/></svg>