<svg xmlns="http://www.w3.org/2000/svg" viewBox="0 0 33 33" fill="none" xmlns:v="https://vecta.io/nano"><path d="M15.15 25.46c-4.961-.234-8.909-4.324-8.909-9.35 0-5.167 4.197-9.366 9.361-9.366 5.024 0 9.112 3.949 9.346 8.913l-3.276-.983c-.64-2.763-3.12-4.808-6.069-4.808a6.24 6.24 0 0 0-6.241 6.244 6.23 6.23 0 0 0 4.805 6.072l.983 3.278zm16.055-9.35c0 .468-.016.936-.062 1.405l-3.074-.921c.016-.156.016-.328.016-.484 0-6.9-5.586-12.488-12.482-12.488S3.12 9.21 3.12 16.11s5.586 12.488 12.482 12.488c.156 0 .328 0 .484-.016l.921 3.075c-.468.047-.936.062-1.404.062C6.99 31.72 0 24.726 0 16.11S6.99.5 15.602.5s15.602 6.993 15.602 15.61zm-5.882 6.65l5.882-1.967-15.602-4.683 4.681 15.61 1.966-5.885 6.662 6.665L32 29.409l-6.678-6.65z" fill="currentColor"/></svg>