<svg width="24" height="25" viewBox="0 0 24 25" xmlns="http://www.w3.org/2000/svg">
<g clip-path="url(#clip0_2777_319451)">
<path d="M23.4836 12.9305C23.4836 19.2693 18.3389 24.414 12.0001 24.414C5.6613 24.414 0.516602 19.2693 0.516602 12.9305C0.516602 6.59172 5.6613 1.44702 12.0001 1.44702C18.3389 1.44702 23.4836 6.59172 23.4836 12.9305V12.9305Z" fill="#9D5125"/>
<path d="M0.516602 12.9305V11.9905H23.4836V12.9305H0.516602Z" fill="#9D5125"/>
<path d="M23.4836 11.9906C23.4836 18.3293 18.3389 23.474 12.0001 23.474C5.6613 23.474 0.516602 18.3293 0.516602 11.9906C0.516602 5.65178 5.6613 0.50708 12.0001 0.50708C18.3389 0.50708 23.4836 5.65178 23.4836 11.9906V11.9906Z" fill="#F58534"/>
<path d="M11.2495 10.7456L10.4619 3.89868H13.536L12.7357 10.7456H11.2495Z" fill="white"/>
<path d="M19.228 15.2932L17.0812 12.0794L12.3811 10.4407L12 13.0321L16.2301 13.4386L18.6436 15.7759L19.228 15.2932Z" fill="white"/>
<path d="M4.77246 15.2932L6.91926 12.0794L11.6194 10.4407L12.0004 13.0321L7.75766 13.4386L5.3568 15.7759L4.77246 15.2932Z" fill="white"/>
<path d="M14.1344 3.89899C14.1344 5.08037 13.1817 6.03309 12.0003 6.03309C10.8189 6.03309 9.86621 5.08037 9.86621 3.89899C9.86621 2.71761 10.8189 1.76489 12.0003 1.76489C13.1817 1.7776 14.1344 2.73032 14.1344 3.89899V3.89899Z" fill="white"/>
<path d="M12.0004 1.96801C10.9334 1.96801 10.0569 2.84452 10.0569 3.91156C10.0569 4.97861 10.9334 5.85512 12.0004 5.85512C13.0675 5.85512 13.944 4.97861 13.944 3.91156C13.944 2.83181 13.0675 1.96801 12.0004 1.96801V1.96801ZM12.0004 6.2235C10.7174 6.2235 9.67578 5.18186 9.67578 3.89886C9.67578 2.61586 10.7174 1.57422 12.0004 1.57422C13.2834 1.57422 14.3251 2.61586 14.3251 3.89886C14.3251 5.18186 13.2834 6.2235 12.0004 6.2235Z" fill="#F58534"/>
<path d="M12.6981 3.89861C12.6981 4.2797 12.3805 4.59728 11.9994 4.59728C11.6184 4.59728 11.3008 4.2797 11.3008 3.89861C11.3008 3.51753 11.6184 3.19995 11.9994 3.19995C12.3805 3.21265 12.6981 3.51753 12.6981 3.89861Z" fill="#F58534"/>
<path d="M13.536 11.7111C13.536 12.5622 12.8501 13.2482 11.999 13.2482C11.1479 13.2482 10.4619 12.5622 10.4619 11.7111C10.4619 10.86 11.1479 10.1741 11.999 10.1741C12.8501 10.1741 13.536 10.86 13.536 11.7111Z" fill="white"/>
<path d="M12.001 10.3645C11.2516 10.3645 10.6545 10.9742 10.6545 11.711C10.6545 12.4605 11.2643 13.0575 12.001 13.0575C12.7505 13.0575 13.3476 12.4478 13.3476 11.711C13.3476 10.9742 12.7378 10.3645 12.001 10.3645ZM12.001 13.4386C11.0483 13.4386 10.2734 12.6637 10.2734 11.711C10.2734 10.7583 11.0483 9.9834 12.001 9.9834C12.9538 9.9834 13.7286 10.7583 13.7286 11.711C13.7286 12.6637 12.9538 13.4386 12.001 13.4386Z" fill="#F58534"/>
<path d="M12.4693 11.711C12.4693 11.9777 12.2534 12.181 11.9993 12.181C11.7325 12.181 11.5293 11.965 11.5293 11.711C11.5293 11.4442 11.7452 11.241 11.9993 11.241C12.2534 11.241 12.4693 11.4569 12.4693 11.711Z" fill="#F58534"/>
<path d="M7.0459 20.7303V15.2554H16.9542V20.7303H7.0459Z" fill="white"/>
<path d="M7.54102 20.2857V15.7H8.29049V20.2857H7.54102Z" fill="#FCBF92"/>
<path d="M8.90039 20.2855V15.6997H9.64987V20.2855H8.90039Z" fill="#FCBF92"/>
<path d="M10.2588 20.2855V15.6997H11.0083V20.2855H10.2588Z" fill="#FCBF92"/>
<path d="M11.6182 20.2857V15.7H12.3676V20.2857H11.6182Z" fill="#FCBF92"/>
<path d="M12.9785 20.2855V15.6997H13.7407V20.2855H12.9785Z" fill="#FCBF92"/>
<path d="M14.3359 20.2855V15.6997H15.0981V20.2855H14.3359Z" fill="#FCBF92"/>
<path d="M15.6973 20.2857V15.7H16.4594V20.2857H15.6973Z" fill="#FCBF92"/>
</g>
<defs>
<clipPath id="clip0_2777_319451">
<rect width="24" height="24" fill="white" transform="translate(0 0.414062)"/>
</clipPath>
</defs>
</svg>
