<svg viewBox="0 0 33 32" fill="none" xmlns="http://www.w3.org/2000/svg">
<g clip-path="url(#clip0_2920_319669)">
<path fill-rule="evenodd" clip-rule="evenodd" d="M31.3864 16C31.056 24.1933 24.302 30.7417 16.0281 30.7417C7.75425 30.7417 1.00028 24.1933 0.66989 16C0.661475 16.2087 0.657227 16.4184 0.657227 16.6291C0.657227 25.1137 7.54352 32 16.0281 32C24.5127 32 31.399 25.1137 31.399 16.6291C31.399 16.4184 31.3948 16.2087 31.3864 16Z" fill="#9D5125"/>
<path fill-rule="evenodd" clip-rule="evenodd" d="M16.0281 30.7418C24.5127 30.7418 31.399 23.8555 31.399 15.3709C31.399 6.8863 24.5127 0 16.0281 0C7.54352 0 0.657227 6.8863 0.657227 15.3709C0.657227 23.8555 7.54352 30.7418 16.0281 30.7418ZM16.0281 1.95532C14.5998 1.95532 13.4266 3.12854 13.4266 4.55681C13.4266 5.98508 14.5998 7.1583 16.0281 7.1583C17.4564 7.1583 18.6296 5.98508 18.6296 4.55681C18.6296 3.11154 17.4564 1.95532 16.0281 1.95532ZM14.2656 7.10382L14.9389 12.9572C15.2637 12.7831 15.6346 12.6843 16.0281 12.6843C16.4157 12.6843 16.7814 12.7801 17.1025 12.9494L17.7854 7.10737C17.2852 7.45053 16.6799 7.65139 16.0281 7.65139C15.374 7.65139 14.7668 7.44914 14.2656 7.10382ZM18.0127 13.8106C18.2208 14.1576 18.3406 14.5634 18.3406 14.9968C18.3406 15.7803 17.949 16.4739 17.3513 16.8923L21.6902 17.3093L24.9208 20.4379L25.7029 19.7918L22.8294 15.4899L18.0127 13.8106ZM16.2459 16.7861L16.0281 16.7652L15.8107 16.786C14.9248 16.6788 14.2258 15.9252 14.2258 14.9968C14.2258 14.0106 15.0249 13.1944 16.0281 13.1944C17.0143 13.1944 17.8305 14.0106 17.8305 14.9968C17.8305 15.9104 17.1445 16.6782 16.2459 16.7861ZM14.7044 16.892L10.349 17.3093L7.13542 20.4379L6.35327 19.7918L9.22681 15.4899L14.0436 13.8106C13.8355 14.1576 13.7157 14.5634 13.7157 14.9968C13.7157 15.78 14.107 16.4735 14.7044 16.892ZM16.9633 4.53981C16.9633 5.0499 16.5382 5.47498 16.0281 5.47498C15.518 5.47498 15.0929 5.0499 15.0929 4.53981C15.0929 4.02971 15.518 3.60463 16.0281 3.60463C16.5382 3.62164 16.9633 4.02971 16.9633 4.53981ZM16.6573 14.9968C16.6573 15.3538 16.3682 15.6259 16.0281 15.6259C15.6711 15.6259 15.399 15.3368 15.399 14.9968C15.399 14.6397 15.6881 14.3676 16.0281 14.3676C16.1942 14.3703 16.3527 14.4374 16.4701 14.5548C16.5875 14.6722 16.6546 14.8307 16.6573 14.9968ZM22.6593 19.7407H9.39685V27.0691H22.6593V19.7407ZM11.0631 20.3359H10.0599V26.4741H11.0631V20.3359ZM12.8825 20.3359H11.8793V26.4741H12.8825V20.3359ZM14.7018 20.3359H13.6986V26.4741H14.7018V20.3359ZM16.5212 20.3359H15.518V26.4741H16.5212V20.3359ZM18.3575 20.3359H17.3373V26.4741H18.3575V20.3359ZM20.1768 20.3359H19.1566V26.4741H20.1768V20.3359ZM21.9962 20.3359H20.976V26.4741H21.9962V20.3359Z" fill="#F58534"/>
<path d="M10.0601 20.3359H11.0632V26.4741H10.0601V20.3359ZM11.8794 20.3359H12.8826V26.4741H11.8794V20.3359ZM13.6987 20.3359H14.7019V26.4741H13.6987V20.3359ZM15.5181 20.3359H16.5213V26.4741H15.5181V20.3359ZM17.3374 20.3359H18.3576V26.4741H17.3374V20.3359ZM19.1568 20.3359H20.177V26.4741H19.1568V20.3359ZM20.9761 20.3359H21.9963V26.4741H20.9761V20.3359Z" fill="#FCBF92"/>
</g>
<defs>
<clipPath id="clip0_2920_319669">
<rect width="32" height="32" fill="white" transform="translate(0.0280762)"/>
</clipPath>
</defs>
</svg>
