<svg fill="none" viewBox="0 0 41 41" xmlns="http://www.w3.org/2000/svg" xmlns:xlink="http://www.w3.org/1999/xlink"><clipPath id="a"><path d="m.661621.967606h40v40h-40z"/></clipPath><g clip-path="url(#a)" clip-rule="evenodd" fill-rule="evenodd"><path d="m39.8596 20.9676c-.4129 10.2416-8.8554 18.4272-19.1977 18.4272-10.3424 0-18.78484-8.1856-19.19783-18.4272-.01052.2609-.01583.523-.01583.7864 0 10.6058 8.60786 19.2137 19.21366 19.2137 10.6057 0 19.2136-8.6079 19.2136-19.2137 0-.2634-.0053-.5255-.0159-.7864z" fill="#d9dae5"/><path d="m20.6619 39.3948c10.6057 0 19.2136-8.6078 19.2136-19.2136 0-10.60572-8.6079-19.213594-19.2136-19.213594-10.6058 0-19.21366 8.607874-19.21366 19.213594 0 10.6058 8.60786 19.2136 19.21366 19.2136zm-.0001-35.98304c-1.7853 0-3.2518 1.46652-3.2518 3.25186s1.4665 3.25186 3.2518 3.25186c1.7854 0 3.2519-1.46652 3.2519-3.25186 0-1.80659-1.4665-3.25186-3.2519-3.25186zm-2.203 6.43562.8416 7.31672c.4059-.2176.8695-.3411 1.3615-.3411.4845 0 .9415.1198 1.343.3313l.8535-7.30248c-.6252.42898-1.3818.67998-2.1966.67998-.8176 0-1.5766-.2528-2.203-.68442zm4.6837 8.38352c.2602.4337.4099.941.4099 1.4827 0 .9793-.4894 1.8464-1.2365 2.3694l5.4235.5212 4.0383 3.9108.9776-.8077-3.5919-5.3773zm-2.2084 3.7194-.2723-.0262-.2718.026c-1.1073-.134-1.9811-1.0761-1.9811-2.2365 0-1.2328.999-2.253 2.253-2.253 1.2327 0 2.2529 1.0202 2.2529 2.253 0 1.142-.8574 2.1017-1.9807 2.2367zm-1.9269.1323-5.4442.5216-4.01702 3.9108-.97768-.8077 3.5919-5.3773 6.021-2.0992c-.2602.4338-.4099.9411-.4099 1.4828 0 .9791.4892 1.8459 1.2359 2.369zm2.8236-15.44023c0 .63762-.5314 1.16897-1.169 1.16897s-1.169-.53135-1.169-1.16897.5314-1.16897 1.169-1.16897c.6376.02125 1.169.53135 1.169 1.16897zm-.3825 13.07123c0 .4463-.3613.7864-.7864.7864-.4464 0-.7864-.3614-.7864-.7864 0-.4464.3613-.7864.7864-.7864.2075.0032.4056.0872.5524.2339.1468.1468.2307.3449.234.5525zm7.5026 5.9299h-16.5781v9.1605h16.5781zm-14.4953.744h-1.254v7.6727h1.254zm2.2742 0h-1.254v7.6727h1.254zm2.2742 0h-1.254v7.6727h1.254zm2.2741 0h-1.2539v7.6727h1.2539zm2.2955 0h-1.2753v7.6727h1.2753zm2.2742 0h-1.2753v7.6727h1.2753zm2.2741 0h-1.2752v7.6727h1.2752z" fill="#fff"/></g></svg>