<svg viewBox="0 0 32 32" xmlns="http://www.w3.org/2000/svg"><path fill-rule="evenodd" clip-rule="evenodd" d="M26.557 23.288a.5.5 0 0 1-.25.433l-1.825 1.054a.5.5 0 0 0-.25.433v2.425a.5.5 0 0 0 .25.433l2.1 1.213a.5.5 0 0 0 .5 0l2.04-1.178a.5.5 0 0 1 .5 0l1.232.71a.5.5 0 0 1 0 .867l-3.772 2.178a.5.5 0 0 1-.5 0l-4.332-2.501a.5.5 0 0 1-.25-.433v-5.003a.5.5 0 0 1 .25-.433l3.557-2.053a.5.5 0 0 1 .75.433v1.422z" fill="url(#a)"/><path d="m27.365 23.726 1.817 1.049a.5.5 0 0 1 .25.433v1.85a.5.5 0 0 0 .25.433l1.232.71a.5.5 0 0 0 .75-.432v-3.85a.5.5 0 0 0-.25-.433l-3.55-2.049a.5.5 0 0 0-.75.433v1.422a.5.5 0 0 0 .25.433z" fill="url(#b)"/><path fill-rule="evenodd" clip-rule="evenodd" d="M5.5 8A2.5 2.5 0 0 1 8 5.5h16A2.5 2.5 0 0 1 26.5 8v11a.5.5 0 0 1-1 0V8A1.5 1.5 0 0 0 24 6.5H8A1.5 1.5 0 0 0 6.5 8v16A1.5 1.5 0 0 0 8 25.5h12a.5.5 0 0 1 0 1H8A2.5 2.5 0 0 1 5.5 24V8zm6 3a2 2 0 1 0 0 4 2 2 0 0 0 0-4zm-3 2a3 3 0 0 1 5.959-.5H22.5a.5.5 0 0 1 0 1h-8.041A3 3 0 0 1 8.5 13zm14 6a2 2 0 1 0-4 0 2 2 0 0 0 4 0zm-2-3a3 3 0 1 1-2.959 3.5H9.5a.5.5 0 0 1 0-1h8.041A3 3 0 0 1 20.5 16z" fill="#4F5162"/><defs><linearGradient id="a" x1="23.953" y1="22.581" x2="29.625" y2="30.392" gradientUnits="userSpaceOnUse"><stop stop-color="#F6D164"/><stop offset="1" stop-color="#EFAF4D"/></linearGradient><linearGradient id="b" x1="27.58" y1="22.302" x2="30.648" y2="28.625" gradientUnits="userSpaceOnUse"><stop stop-color="#E99343"/><stop offset="1" stop-color="#EEA84A"/></linearGradient></defs></svg>