<svg xmlns="http://www.w3.org/2000/svg" width="32" height="32" fill="none" viewBox="0 0 32 32"><path stroke="#9293ab" stroke-linecap="round" stroke-linejoin="round" d="M7 7 3 3m0 0v3.2M3 3h3.2M25 7l4-4m0 0v3.2M29 3h-3.2M7 25l-4 4m0 0v-3.2M3 29h3.2M25 25l4 4m0 0v-3.2m0 3.2h-3.2"/><path fill="url(#a)" fill-rule="evenodd" d="M15.778 23.958a.3.3 0 0 0 .16.042.3.3 0 0 0 .152-.047l6.217-3.561a.3.3 0 0 0 .159-.27.31.31 0 0 0-.159-.273l-2.972-1.692a.3.3 0 0 0-.3 0l-3.089 1.78-3.532-2.02V13.78L15.55 12a.31.31 0 0 0 .15-.264V8.321a.29.29 0 0 0-.15-.282.3.3 0 0 0-.321.015l-6.271 3.578a.32.32 0 0 0-.159.273v7.887a.31.31 0 0 0 .159.273zm.32-.554-6.69-3.825-.009-7.47 5.693-3.263v2.724l-3.137 1.78a.3.3 0 0 0-.159.27v4.407a.31.31 0 0 0 .16.27l3.978 2.273a.34.34 0 0 0 .327 0l3.185-1.822 2.397 1.368zm6.617-4.027q.074.04.158.041a.33.33 0 0 0 .168-.053.32.32 0 0 0 .159-.273V11.92a.31.31 0 0 0-.159-.27l-6.295-3.582a.31.31 0 0 0-.416.116.3.3 0 0 0-.04.152v3.415a.31.31 0 0 0 .16.27l3.137 1.792v3.594a.3.3 0 0 0 .158.27zm-.123-.804-2.397-1.365.009-3.57a.3.3 0 0 0-.159-.27l-3.146-1.804v-2.71l5.693 3.265z" clip-rule="evenodd"/><defs><linearGradient id="a" x1="16.093" x2="24.947" y1="7.174" y2="19.933" gradientUnits="userSpaceOnUse"><stop stop-color="#c8511b"/><stop offset="1" stop-color="#f90"/></linearGradient></defs></svg>