<svg viewBox="0 0 32 32" xmlns="http://www.w3.org/2000/svg">
<rect x="0.281296" y="28" width="39.2" height="39.2" rx="9.8" transform="rotate(-45 0.281296 28)" fill="url(#paint0_linear_2343_202122)"/>
<mask id="mask0_2343_202122" style="mask-type:alpha" maskUnits="userSpaceOnUse" x="4" y="4" width="48" height="48">
<rect x="0.281174" y="28" width="39.2" height="39.2" rx="9.8" transform="rotate(-45 0.281174 28)" fill="#5B46F6"/>
</mask>
<g mask="url(#mask0_2343_202122)">
<path d="M39.3103 50.38L35.8076 48.3577L35.8077 20.6265L39.3104 22.6488L39.381 50.3392L39.3103 50.38Z" fill="#3D3D3D"/>
<path d="M39.3104 18.6043L42.8131 20.6266L39.3104 22.6488L35.8077 20.6266L39.3104 18.6043Z" fill="#D1CDE8"/>
<path d="M42.8127 48.2415L42.8128 20.6265L39.3101 22.6488L39.3805 50.223L42.8127 48.2415Z" fill="#8180FF"/>
<path d="M15.7673 51.5071L12.2646 49.4848L12.2647 27.6265L15.7674 29.6488L15.838 51.4663L15.7673 51.5071Z" fill="#3D3D3D"/>
<path d="M15.7675 25.6042L19.2702 27.6265L15.7675 29.6488L12.2648 27.6265L15.7675 25.6042Z" fill="#D1CDE8"/>
<path d="M19.2702 49.4847L19.2702 27.6265L15.7674 29.6488L15.838 51.4663L19.2702 49.4847Z" fill="#8180FF"/>
<path d="M28.4339 11.993L25.5367 13.9429L29.5726 26.5863L32.7705 24.4936L28.4339 11.993Z" fill="#8180FF"/>
<path d="M30.7244 52.4937L30.7212 22.3938L27.2185 24.416L27.2887 53.8938L30.7244 52.4937Z" fill="#8180FF"/>
<path fill-rule="evenodd" clip-rule="evenodd" d="M29.5663 26.5838L27.2781 25.2634L27.2976 53.828L23.8077 51.7937L23.8052 26.5905L23.7937 26.5838L23.7936 23.2358L21.3845 21.8602L25.5359 13.9299L29.5663 26.5838ZM27.2896 53.828L27.2977 41.9937L27.2976 28.6187L27.2896 53.828Z" fill="#3D3D3D"/>
</g>
<defs>
<linearGradient id="paint0_linear_2343_202122" x1="9.20637" y1="31.1621" x2="30.5562" y2="64.0379" gradientUnits="userSpaceOnUse">
<stop stop-color="#9250FF"/>
<stop offset="1" stop-color="#5B46F6"/>
</linearGradient>
</defs>
</svg>
