<svg viewBox="0 0 32 32" xmlns="http://www.w3.org/2000/svg">
<rect x="0.160797" y="16" width="22.4" height="22.4" rx="5.6" transform="rotate(-45 0.160797 16)" fill="white"/>
<mask id="mask0_2343_202142" style="mask-type:alpha" maskUnits="userSpaceOnUse" x="2" y="2" width="28" height="28">
<rect x="0.160751" y="16" width="22.4" height="22.4" rx="5.6" transform="rotate(-45 0.160751 16)" fill="#5B46F6"/>
</mask>
<g mask="url(#mask0_2343_202142)">
<path d="M22.463 28.7886L20.4615 27.633L20.4615 11.7866L22.4631 12.9422L22.5034 28.7653L22.463 28.7886Z" fill="#3D3D3D"/>
<path d="M22.4631 10.631L24.4646 11.7866L22.4631 12.9422L20.4615 11.7866L22.4631 10.631Z" fill="#D1CDE8"/>
<path d="M24.4645 27.5666L24.4645 11.7866L22.463 12.9422L22.5032 28.6989L24.4645 27.5666Z" fill="#8180FF"/>
<path d="M9.00987 29.4327L7.0083 28.2771L7.00837 15.7867L9.00993 16.9423L9.05023 29.4094L9.00987 29.4327Z" fill="#3D3D3D"/>
<path d="M9.00998 14.631L11.0115 15.7866L9.00997 16.9422L7.00841 15.7866L9.00998 14.631Z" fill="#D1CDE8"/>
<path d="M11.0115 28.277L11.0115 15.7866L9.00993 16.9422L9.05022 29.4093L11.0115 28.277Z" fill="#8180FF"/>
<path d="M16.2481 6.85313L14.5925 7.96736L16.8987 15.1922L18.7261 13.9964L16.2481 6.85313Z" fill="#8180FF"/>
<path d="M17.5568 29.9964L17.555 12.7964L15.5534 13.952L15.5935 30.7964L17.5568 29.9964Z" fill="#8180FF"/>
<path fill-rule="evenodd" clip-rule="evenodd" d="M16.8951 15.1907L15.5876 14.4363L15.5987 30.7588L13.6045 29.5964L13.6031 15.1946L13.5965 15.1907L13.5965 13.2776L12.2198 12.4915L14.592 7.95996L16.8951 15.1907ZM15.5941 30.7588L15.5988 23.9964L15.5987 16.3535L15.5941 30.7588Z" fill="#3D3D3D"/>
</g>
</svg>
