<svg width="218" height="56" viewBox="0 0 218 56" fill="none" xmlns="http://www.w3.org/2000/svg">
<rect x="8.20099" y="27.4335" width="28" height="28" rx="7" transform="rotate(-45 8.20099 27.4335)" fill="url(#paint0_linear_2343_200215)"/>
<mask id="mask0_2343_200215" style="mask-type:alpha" maskUnits="userSpaceOnUse" x="11" y="10" width="34" height="35">
<rect x="8.20094" y="27.4335" width="28" height="28" rx="7" transform="rotate(-45 8.20094 27.4335)" fill="#5B46F6"/>
</mask>
<g mask="url(#mask0_2343_200215)">
<path d="M36.0788 43.4191L33.5769 41.9747L33.5769 22.1667L36.0789 23.6112L36.1293 43.39L36.0788 43.4191Z" fill="white"/>
<path d="M36.0789 20.7222L38.5808 22.1667L36.0789 23.6112L33.5769 22.1667L36.0789 20.7222Z" fill="#D1CDE8"/>
<path d="M38.5806 41.8917L38.5807 22.1667L36.0787 23.6112L36.129 43.3071L38.5806 41.8917Z" fill="#8180FF"/>
<path d="M19.2623 44.2243L16.7604 42.7798L16.7605 27.1667L19.2624 28.6112L19.3128 44.1951L19.2623 44.2243Z" fill="white"/>
<path d="M19.2625 25.7222L21.7644 27.1667L19.2625 28.6112L16.7605 27.1667L19.2625 25.7222Z" fill="#D1CDE8"/>
<path d="M21.7644 42.7797L21.7644 27.1667L19.2624 28.6112L19.3128 44.1951L21.7644 42.7797Z" fill="#8180FF"/>
<path d="M28.3101 15.9999L26.2406 17.3926L29.1234 26.4237L31.4076 24.9289L28.3101 15.9999Z" fill="#8180FF"/>
<path d="M29.946 44.9289L29.9437 23.429L27.4418 24.8735L27.4919 45.929L29.946 44.9289Z" fill="#8180FF"/>
<path fill-rule="evenodd" clip-rule="evenodd" d="M29.1189 26.4219L27.4845 25.4788L27.4984 45.882L25.0056 44.429L25.0038 26.4267L24.9956 26.4219L24.9956 24.0305L23.2748 23.0479L26.2401 17.3834L29.1189 26.4219ZM27.4927 45.882L27.4985 37.429L27.4984 27.8754L27.4927 45.882Z" fill="white"/>
</g>
<path d="M53.043 26V15.8182H59.6651V17.3643H54.8874V20.1285H59.3221V21.6747H54.8874V24.4538H59.7049V26H53.043Z" fill="black"/>
<path d="M63.267 21.5256V26H61.4673V18.3636H63.1875V19.6612H63.277C63.4526 19.2337 63.7327 18.8939 64.1172 18.642C64.505 18.3901 64.9839 18.2642 65.554 18.2642C66.081 18.2642 66.54 18.3769 66.9311 18.6023C67.3255 18.8276 67.6304 19.1541 67.8459 19.5817C68.0646 20.0092 68.1723 20.5279 68.169 21.1378V26H66.3693V21.4162C66.3693 20.9058 66.2367 20.5064 65.9716 20.218C65.7097 19.9297 65.3468 19.7855 64.8828 19.7855C64.5679 19.7855 64.2879 19.8551 64.0426 19.9943C63.8006 20.1302 63.6101 20.3274 63.4709 20.5859C63.335 20.8445 63.267 21.1577 63.267 21.5256Z" fill="black"/>
<path d="M73.3196 29.0227C72.6733 29.0227 72.1181 28.9349 71.6541 28.7592C71.1901 28.5869 70.8172 28.3549 70.5355 28.0632C70.2538 27.7715 70.0582 27.4484 69.9488 27.0937L71.5696 26.701C71.6425 26.8501 71.7486 26.9976 71.8878 27.1435C72.027 27.2926 72.2142 27.4152 72.4496 27.5114C72.6882 27.6108 72.9881 27.6605 73.3494 27.6605C73.8598 27.6605 74.2824 27.5362 74.6172 27.2876C74.9519 27.0424 75.1193 26.638 75.1193 26.0746V24.6278H75.0298C74.937 24.8134 74.8011 25.004 74.6221 25.1996C74.4465 25.3951 74.2128 25.5592 73.9212 25.6918C73.6328 25.8243 73.2699 25.8906 72.8324 25.8906C72.2457 25.8906 71.7138 25.7531 71.2365 25.478C70.7625 25.1996 70.3847 24.7853 70.103 24.2351C69.8246 23.6816 69.6854 22.9889 69.6854 22.157C69.6854 21.3184 69.8246 20.6108 70.103 20.0341C70.3847 19.4541 70.7642 19.0149 71.2415 18.7166C71.7187 18.415 72.2507 18.2642 72.8373 18.2642C73.2848 18.2642 73.6527 18.3404 73.941 18.4929C74.2327 18.642 74.4647 18.8227 74.6371 19.0348C74.8094 19.2436 74.9403 19.4408 75.0298 19.6264H75.1292V18.3636H76.9041V26.1243C76.9041 26.7772 76.7483 27.3175 76.4368 27.745C76.1252 28.1726 75.6993 28.4924 75.1591 28.7045C74.6188 28.9167 74.0057 29.0227 73.3196 29.0227ZM73.3345 24.4787C73.7157 24.4787 74.0405 24.3859 74.3089 24.2003C74.5774 24.0147 74.7812 23.7479 74.9204 23.3999C75.0596 23.0518 75.1292 22.6342 75.1292 22.147C75.1292 21.6664 75.0596 21.2455 74.9204 20.8842C74.7846 20.523 74.5824 20.2429 74.3139 20.044C74.0488 19.8419 73.7223 19.7408 73.3345 19.7408C72.9335 19.7408 72.5987 19.8452 72.3302 20.054C72.0618 20.2628 71.8596 20.5495 71.7237 20.9141C71.5878 21.2753 71.5199 21.6863 71.5199 22.147C71.5199 22.6143 71.5878 23.0237 71.7237 23.375C71.8629 23.723 72.0667 23.9948 72.3352 24.1903C72.607 24.3826 72.9401 24.4787 73.3345 24.4787Z" fill="black"/>
<path d="M78.7486 26V18.3636H80.5483V26H78.7486ZM79.6534 17.2798C79.3684 17.2798 79.1231 17.1854 78.9176 16.9964C78.7121 16.8042 78.6094 16.5739 78.6094 16.3054C78.6094 16.0336 78.7121 15.8033 78.9176 15.6143C79.1231 15.4221 79.3684 15.326 79.6534 15.326C79.9417 15.326 80.187 15.4221 80.3892 15.6143C80.5947 15.8033 80.6974 16.0336 80.6974 16.3054C80.6974 16.5739 80.5947 16.8042 80.3892 16.9964C80.187 17.1854 79.9417 17.2798 79.6534 17.2798Z" fill="black"/>
<path d="M84.1987 21.5256V26H82.399V18.3636H84.1191V19.6612H84.2086C84.3843 19.2337 84.6643 18.8939 85.0488 18.642C85.4366 18.3901 85.9155 18.2642 86.4856 18.2642C87.0126 18.2642 87.4716 18.3769 87.8627 18.6023C88.2571 18.8276 88.5621 19.1541 88.7775 19.5817C88.9963 20.0092 89.104 20.5279 89.1007 21.1378V26H87.3009V21.4162C87.3009 20.9058 87.1684 20.5064 86.9032 20.218C86.6414 19.9297 86.2785 19.7855 85.8144 19.7855C85.4996 19.7855 85.2195 19.8551 84.9742 19.9943C84.7323 20.1302 84.5417 20.3274 84.4025 20.5859C84.2666 20.8445 84.1987 21.1577 84.1987 21.5256Z" fill="black"/>
<path d="M94.3109 26.1491C93.5453 26.1491 92.884 25.9901 92.3272 25.6719C91.7737 25.3504 91.3478 24.8963 91.0495 24.3097C90.7512 23.7197 90.6021 23.0253 90.6021 22.2266C90.6021 21.441 90.7512 20.7517 91.0495 20.1584C91.3511 19.5618 91.7721 19.0978 92.3123 18.7663C92.8526 18.4316 93.4873 18.2642 94.2164 18.2642C94.6871 18.2642 95.1312 18.3404 95.5488 18.4929C95.9697 18.642 96.341 18.874 96.6624 19.1889C96.9873 19.5038 97.2425 19.9048 97.4281 20.392C97.6137 20.8759 97.7065 21.4526 97.7065 22.1222V22.674H91.4473V21.4609H95.9813C95.978 21.1162 95.9035 20.8097 95.7576 20.5412C95.6118 20.2694 95.408 20.0556 95.1461 19.8999C94.8876 19.7441 94.586 19.6662 94.2413 19.6662C93.8734 19.6662 93.5502 19.7557 93.2718 19.9347C92.9934 20.1103 92.7763 20.3423 92.6205 20.6307C92.4681 20.9157 92.3902 21.2289 92.3869 21.5703V22.6293C92.3869 23.0734 92.4681 23.4545 92.6305 23.7727C92.7929 24.0876 93.0199 24.3295 93.3116 24.4986C93.6033 24.6643 93.9446 24.7472 94.3357 24.7472C94.5976 24.7472 94.8346 24.7107 95.0467 24.6378C95.2588 24.5615 95.4428 24.4505 95.5985 24.3047C95.7543 24.1588 95.872 23.9782 95.9515 23.7628L97.6319 23.9517C97.5258 24.3958 97.3237 24.7836 97.0254 25.1151C96.7304 25.4432 96.3526 25.6984 95.8919 25.8807C95.4312 26.0597 94.9042 26.1491 94.3109 26.1491Z" fill="black"/>
<path d="M102.61 26.1491C101.844 26.1491 101.183 25.9901 100.626 25.6719C100.073 25.3504 99.6466 24.8963 99.3484 24.3097C99.0501 23.7197 98.9009 23.0253 98.9009 22.2266C98.9009 21.441 99.0501 20.7517 99.3484 20.1584C99.65 19.5618 100.071 19.0978 100.611 18.7663C101.151 18.4316 101.786 18.2642 102.515 18.2642C102.986 18.2642 103.43 18.3404 103.848 18.4929C104.269 18.642 104.64 18.874 104.961 19.1889C105.286 19.5038 105.541 19.9048 105.727 20.392C105.913 20.8759 106.005 21.4526 106.005 22.1222V22.674H99.7461V21.4609H104.28C104.277 21.1162 104.202 20.8097 104.056 20.5412C103.911 20.2694 103.707 20.0556 103.445 19.8999C103.186 19.7441 102.885 19.6662 102.54 19.6662C102.172 19.6662 101.849 19.7557 101.571 19.9347C101.292 20.1103 101.075 20.3423 100.919 20.6307C100.767 20.9157 100.689 21.2289 100.686 21.5703V22.6293C100.686 23.0734 100.767 23.4545 100.929 23.7727C101.092 24.0876 101.319 24.3295 101.61 24.4986C101.902 24.6643 102.243 24.7472 102.635 24.7472C102.896 24.7472 103.133 24.7107 103.346 24.6378C103.558 24.5615 103.742 24.4505 103.897 24.3047C104.053 24.1588 104.171 23.9782 104.25 23.7628L105.931 23.9517C105.825 24.3958 105.622 24.7836 105.324 25.1151C105.029 25.4432 104.651 25.6984 104.191 25.8807C103.73 26.0597 103.203 26.1491 102.61 26.1491Z" fill="black"/>
<path d="M107.528 26V18.3636H109.273V19.6364H109.352C109.492 19.1955 109.73 18.8558 110.068 18.6172C110.41 18.3752 110.799 18.2543 111.237 18.2543C111.336 18.2543 111.447 18.2592 111.57 18.2692C111.696 18.2758 111.8 18.2874 111.883 18.304V19.9595C111.807 19.933 111.686 19.9098 111.52 19.8899C111.358 19.8667 111.2 19.8551 111.048 19.8551C110.72 19.8551 110.425 19.9264 110.163 20.0689C109.904 20.2081 109.7 20.402 109.551 20.6506C109.402 20.8991 109.328 21.1858 109.328 21.5106V26H107.528Z" fill="black"/>
<path d="M113.079 26V18.3636H114.878V26H113.079ZM113.983 17.2798C113.698 17.2798 113.453 17.1854 113.248 16.9964C113.042 16.8042 112.939 16.5739 112.939 16.3054C112.939 16.0336 113.042 15.8033 113.248 15.6143C113.453 15.4221 113.698 15.326 113.983 15.326C114.272 15.326 114.517 15.4221 114.719 15.6143C114.925 15.8033 115.028 16.0336 115.028 16.3054C115.028 16.5739 114.925 16.8042 114.719 16.9964C114.517 17.1854 114.272 17.2798 113.983 17.2798Z" fill="black"/>
<path d="M118.529 21.5256V26H116.729V18.3636H118.449V19.6612H118.539C118.714 19.2337 118.994 18.8939 119.379 18.642C119.767 18.3901 120.246 18.2642 120.816 18.2642C121.343 18.2642 121.802 18.3769 122.193 18.6023C122.587 18.8276 122.892 19.1541 123.108 19.5817C123.326 20.0092 123.434 20.5279 123.431 21.1378V26H121.631V21.4162C121.631 20.9058 121.498 20.5064 121.233 20.218C120.971 19.9297 120.609 19.7855 120.145 19.7855C119.83 19.7855 119.55 19.8551 119.304 19.9943C119.062 20.1302 118.872 20.3274 118.733 20.5859C118.597 20.8445 118.529 21.1577 118.529 21.5256Z" fill="black"/>
<path d="M128.581 29.0227C127.935 29.0227 127.38 28.9349 126.916 28.7592C126.452 28.5869 126.079 28.3549 125.797 28.0632C125.515 27.7715 125.32 27.4484 125.211 27.0937L126.831 26.701C126.904 26.8501 127.01 26.9976 127.149 27.1435C127.289 27.2926 127.476 27.4152 127.711 27.5114C127.95 27.6108 128.25 27.6605 128.611 27.6605C129.122 27.6605 129.544 27.5362 129.879 27.2876C130.214 27.0424 130.381 26.638 130.381 26.0746V24.6278H130.292C130.199 24.8134 130.063 25.004 129.884 25.1996C129.708 25.3951 129.475 25.5592 129.183 25.6918C128.895 25.8243 128.532 25.8906 128.094 25.8906C127.507 25.8906 126.975 25.7531 126.498 25.478C126.024 25.1996 125.646 24.7853 125.365 24.2351C125.086 23.6816 124.947 22.9889 124.947 22.157C124.947 21.3184 125.086 20.6108 125.365 20.0341C125.646 19.4541 126.026 19.0149 126.503 18.7166C126.98 18.415 127.512 18.2642 128.099 18.2642C128.547 18.2642 128.914 18.3404 129.203 18.4929C129.494 18.642 129.726 18.8227 129.899 19.0348C130.071 19.2436 130.202 19.4408 130.292 19.6264H130.391V18.3636H132.166V26.1243C132.166 26.7772 132.01 27.3175 131.698 27.745C131.387 28.1726 130.961 28.4924 130.421 28.7045C129.881 28.9167 129.267 29.0227 128.581 29.0227ZM128.596 24.4787C128.977 24.4787 129.302 24.3859 129.571 24.2003C129.839 24.0147 130.043 23.7479 130.182 23.3999C130.321 23.0518 130.391 22.6342 130.391 22.147C130.391 21.6664 130.321 21.2455 130.182 20.8842C130.046 20.523 129.844 20.2429 129.576 20.044C129.31 19.8419 128.984 19.7408 128.596 19.7408C128.195 19.7408 127.86 19.8452 127.592 20.054C127.323 20.2628 127.121 20.5495 126.985 20.9141C126.85 21.2753 126.782 21.6863 126.782 22.147C126.782 22.6143 126.85 23.0237 126.985 23.375C127.125 23.723 127.328 23.9948 127.597 24.1903C127.869 24.3826 128.202 24.4787 128.596 24.4787Z" fill="black"/>
<path d="M137.562 26V15.8182H144.185V17.3643H139.407V20.1285H143.842V21.6747H139.407V24.4538H144.224V26H137.562Z" fill="black"/>
<path d="M147.458 18.3636L149 21.1825L150.566 18.3636H152.47L150.168 22.1818L152.51 26H150.615L149 23.2507L147.399 26H145.49L147.816 22.1818L145.549 18.3636H147.458Z" fill="black"/>
<path d="M156.906 26.1491C156.143 26.1491 155.489 25.9818 154.942 25.647C154.398 25.3123 153.979 24.8499 153.684 24.2599C153.392 23.6667 153.247 22.9839 153.247 22.2116C153.247 21.4361 153.396 20.7517 153.694 20.1584C153.992 19.5618 154.413 19.0978 154.957 18.7663C155.504 18.4316 156.15 18.2642 156.896 18.2642C157.516 18.2642 158.064 18.3785 158.541 18.6072C159.022 18.8326 159.405 19.1525 159.69 19.5668C159.975 19.9777 160.137 20.4583 160.177 21.0085H158.457C158.387 20.6406 158.222 20.334 157.96 20.0888C157.701 19.8402 157.355 19.7159 156.921 19.7159C156.553 19.7159 156.23 19.8153 155.951 20.0142C155.673 20.2097 155.456 20.4915 155.3 20.8594C155.147 21.2273 155.071 21.6681 155.071 22.1818C155.071 22.7022 155.147 23.1496 155.3 23.5241C155.452 23.8954 155.666 24.182 155.941 24.3842C156.22 24.5831 156.546 24.6825 156.921 24.6825C157.186 24.6825 157.423 24.6328 157.632 24.5334C157.844 24.4306 158.021 24.2831 158.164 24.0909C158.306 23.8987 158.404 23.665 158.457 23.3899H160.177C160.134 23.9302 159.975 24.4091 159.7 24.8267C159.425 25.241 159.05 25.5658 158.576 25.8011C158.102 26.0331 157.545 26.1491 156.906 26.1491Z" fill="black"/>
<path d="M165.035 26.1491C164.27 26.1491 163.609 25.9901 163.052 25.6719C162.498 25.3504 162.072 24.8963 161.774 24.3097C161.476 23.7197 161.327 23.0253 161.327 22.2266C161.327 21.441 161.476 20.7517 161.774 20.1584C162.076 19.5618 162.497 19.0978 163.037 18.7663C163.577 18.4316 164.212 18.2642 164.941 18.2642C165.412 18.2642 165.856 18.3404 166.273 18.4929C166.694 18.642 167.066 18.874 167.387 19.1889C167.712 19.5038 167.967 19.9048 168.153 20.392C168.338 20.8759 168.431 21.4526 168.431 22.1222V22.674H162.172V21.4609H166.706C166.703 21.1162 166.628 20.8097 166.482 20.5412C166.336 20.2694 166.133 20.0556 165.871 19.8999C165.612 19.7441 165.311 19.6662 164.966 19.6662C164.598 19.6662 164.275 19.7557 163.996 19.9347C163.718 20.1103 163.501 20.3423 163.345 20.6307C163.193 20.9157 163.115 21.2289 163.111 21.5703V22.6293C163.111 23.0734 163.193 23.4545 163.355 23.7727C163.518 24.0876 163.745 24.3295 164.036 24.4986C164.328 24.6643 164.669 24.7472 165.06 24.7472C165.322 24.7472 165.559 24.7107 165.771 24.6378C165.983 24.5615 166.167 24.4505 166.323 24.3047C166.479 24.1588 166.597 23.9782 166.676 23.7628L168.357 23.9517C168.25 24.3958 168.048 24.7836 167.75 25.1151C167.455 25.4432 167.077 25.6984 166.616 25.8807C166.156 26.0597 165.629 26.1491 165.035 26.1491Z" fill="black"/>
<path d="M171.753 15.8182V26H169.954V15.8182H171.753Z" fill="black"/>
<path d="M175.404 15.8182V26H173.604V15.8182H175.404Z" fill="black"/>
<path d="M180.635 26.1491C179.869 26.1491 179.208 25.9901 178.651 25.6719C178.098 25.3504 177.672 24.8963 177.374 24.3097C177.075 23.7197 176.926 23.0253 176.926 22.2266C176.926 21.441 177.075 20.7517 177.374 20.1584C177.675 19.5618 178.096 19.0978 178.637 18.7663C179.177 18.4316 179.811 18.2642 180.541 18.2642C181.011 18.2642 181.455 18.3404 181.873 18.4929C182.294 18.642 182.665 18.874 182.987 19.1889C183.311 19.5038 183.567 19.9048 183.752 20.392C183.938 20.8759 184.031 21.4526 184.031 22.1222V22.674H177.771V21.4609H182.306C182.302 21.1162 182.228 20.8097 182.082 20.5412C181.936 20.2694 181.732 20.0556 181.47 19.8999C181.212 19.7441 180.91 19.6662 180.565 19.6662C180.198 19.6662 179.874 19.7557 179.596 19.9347C179.318 20.1103 179.101 20.3423 178.945 20.6307C178.792 20.9157 178.714 21.2289 178.711 21.5703V22.6293C178.711 23.0734 178.792 23.4545 178.955 23.7727C179.117 24.0876 179.344 24.3295 179.636 24.4986C179.927 24.6643 180.269 24.7472 180.66 24.7472C180.922 24.7472 181.159 24.7107 181.371 24.6378C181.583 24.5615 181.767 24.4505 181.923 24.3047C182.079 24.1588 182.196 23.9782 182.276 23.7628L183.956 23.9517C183.85 24.3958 183.648 24.7836 183.35 25.1151C183.055 25.4432 182.677 25.6984 182.216 25.8807C181.755 26.0597 181.228 26.1491 180.635 26.1491Z" fill="black"/>
<path d="M187.353 21.5256V26H185.553V18.3636H187.273V19.6612H187.363C187.539 19.2337 187.819 18.8939 188.203 18.642C188.591 18.3901 189.07 18.2642 189.64 18.2642C190.167 18.2642 190.626 18.3769 191.017 18.6023C191.411 18.8276 191.716 19.1541 191.932 19.5817C192.151 20.0092 192.258 20.5279 192.255 21.1378V26H190.455V21.4162C190.455 20.9058 190.323 20.5064 190.058 20.218C189.796 19.9297 189.433 19.7855 188.969 19.7855C188.654 19.7855 188.374 19.8551 188.129 19.9943C187.887 20.1302 187.696 20.3274 187.557 20.5859C187.421 20.8445 187.353 21.1577 187.353 21.5256Z" fill="black"/>
<path d="M197.415 26.1491C196.653 26.1491 195.999 25.9818 195.452 25.647C194.908 25.3123 194.489 24.8499 194.194 24.2599C193.902 23.6667 193.756 22.9839 193.756 22.2116C193.756 21.4361 193.906 20.7517 194.204 20.1584C194.502 19.5618 194.923 19.0978 195.467 18.7663C196.013 18.4316 196.66 18.2642 197.406 18.2642C198.025 18.2642 198.574 18.3785 199.051 18.6072C199.532 18.8326 199.915 19.1525 200.2 19.5668C200.485 19.9777 200.647 20.4583 200.687 21.0085H198.967C198.897 20.6406 198.731 20.334 198.469 20.0888C198.211 19.8402 197.865 19.7159 197.43 19.7159C197.062 19.7159 196.739 19.8153 196.461 20.0142C196.183 20.2097 195.965 20.4915 195.81 20.8594C195.657 21.2273 195.581 21.6681 195.581 22.1818C195.581 22.7022 195.657 23.1496 195.81 23.5241C195.962 23.8954 196.176 24.182 196.451 24.3842C196.729 24.5831 197.056 24.6825 197.43 24.6825C197.696 24.6825 197.933 24.6328 198.141 24.5334C198.353 24.4306 198.531 24.2831 198.673 24.0909C198.816 23.8987 198.914 23.665 198.967 23.3899H200.687C200.644 23.9302 200.485 24.4091 200.21 24.8267C199.934 25.241 199.56 25.5658 199.086 25.8011C198.612 26.0331 198.055 26.1491 197.415 26.1491Z" fill="black"/>
<path d="M205.545 26.1491C204.78 26.1491 204.118 25.9901 203.562 25.6719C203.008 25.3504 202.582 24.8963 202.284 24.3097C201.986 23.7197 201.836 23.0253 201.836 22.2266C201.836 21.441 201.986 20.7517 202.284 20.1584C202.586 19.5618 203.006 19.0978 203.547 18.7663C204.087 18.4316 204.722 18.2642 205.451 18.2642C205.921 18.2642 206.366 18.3404 206.783 18.4929C207.204 18.642 207.575 18.874 207.897 19.1889C208.222 19.5038 208.477 19.9048 208.662 20.392C208.848 20.8759 208.941 21.4526 208.941 22.1222V22.674H202.682V21.4609H207.216C207.212 21.1162 207.138 20.8097 206.992 20.5412C206.846 20.2694 206.642 20.0556 206.38 19.8999C206.122 19.7441 205.82 19.6662 205.476 19.6662C205.108 19.6662 204.785 19.7557 204.506 19.9347C204.228 20.1103 204.011 20.3423 203.855 20.6307C203.702 20.9157 203.625 21.2289 203.621 21.5703V22.6293C203.621 23.0734 203.702 23.4545 203.865 23.7727C204.027 24.0876 204.254 24.3295 204.546 24.4986C204.838 24.6643 205.179 24.7472 205.57 24.7472C205.832 24.7472 206.069 24.7107 206.281 24.6378C206.493 24.5615 206.677 24.4505 206.833 24.3047C206.989 24.1588 207.106 23.9782 207.186 23.7628L208.866 23.9517C208.76 24.3958 208.558 24.7836 208.26 25.1151C207.965 25.4432 207.587 25.6984 207.126 25.8807C206.666 26.0597 206.139 26.1491 205.545 26.1491Z" fill="black"/>
<path d="M53.043 30.8182H55.3001L58.3228 38.196H58.4421L61.4648 30.8182H63.7219V41H61.952V34.005H61.8576L59.0437 40.9702H57.7212L54.9073 33.9901H54.8128V41H53.043V30.8182Z" fill="black"/>
<path d="M67.8484 41.1541C67.3644 41.1541 66.9286 41.0679 66.5408 40.8956C66.1564 40.7199 65.8514 40.4614 65.626 40.12C65.404 39.7786 65.293 39.3577 65.293 38.8572C65.293 38.4264 65.3725 38.0701 65.5316 37.7883C65.6907 37.5066 65.9078 37.2812 66.1829 37.1122C66.458 36.9432 66.7679 36.8156 67.1126 36.7294C67.4606 36.6399 67.8202 36.5753 68.1914 36.5355C68.6388 36.4891 69.0018 36.4477 69.2802 36.4112C69.5586 36.3714 69.7608 36.3118 69.8867 36.2322C70.016 36.1494 70.0806 36.0218 70.0806 35.8494V35.8196C70.0806 35.4451 69.9696 35.1551 69.7475 34.9496C69.5254 34.7441 69.2056 34.6413 68.788 34.6413C68.3472 34.6413 67.9975 34.7374 67.739 34.9297C67.4838 35.1219 67.3114 35.349 67.2219 35.6108L65.5415 35.3722C65.6741 34.9081 65.8929 34.5204 66.1978 34.2088C66.5027 33.8939 66.8756 33.6586 67.3164 33.5028C67.7572 33.3437 68.2444 33.2642 68.778 33.2642C69.1459 33.2642 69.5122 33.3073 69.8768 33.3935C70.2413 33.4796 70.5744 33.6222 70.8761 33.821C71.1777 34.0166 71.4196 34.2834 71.6019 34.6214C71.7875 34.9595 71.8803 35.3821 71.8803 35.8892V41H70.1502V39.951H70.0905C69.9812 40.1631 69.827 40.362 69.6282 40.5476C69.4326 40.7299 69.1857 40.8774 68.8874 40.9901C68.5924 41.0994 68.2461 41.1541 67.8484 41.1541ZM68.3157 39.8317C68.677 39.8317 68.9902 39.7604 69.2553 39.6179C69.5205 39.4721 69.7243 39.2798 69.8668 39.0412C70.0127 38.8026 70.0856 38.5424 70.0856 38.2606V37.3608C70.0292 37.4072 69.9331 37.4503 69.7972 37.4901C69.6646 37.5298 69.5155 37.5646 69.3498 37.5945C69.1841 37.6243 69.02 37.6508 68.8576 37.674C68.6952 37.6972 68.5543 37.7171 68.435 37.7337C68.1665 37.7701 67.9262 37.8298 67.7141 37.9126C67.502 37.9955 67.3346 38.1115 67.212 38.2606C67.0894 38.4065 67.028 38.5954 67.028 38.8274C67.028 39.1588 67.149 39.4091 67.391 39.5781C67.6329 39.7472 67.9412 39.8317 68.3157 39.8317Z" fill="black"/>
<path d="M77.5032 33.3636V34.7557H73.1133V33.3636H77.5032ZM74.1971 31.5341H75.9968V38.7031C75.9968 38.9451 76.0332 39.1307 76.1062 39.2599C76.1824 39.3859 76.2818 39.4721 76.4045 39.5185C76.5271 39.5649 76.663 39.5881 76.8121 39.5881C76.9248 39.5881 77.0276 39.5798 77.1204 39.5632C77.2165 39.5466 77.2894 39.5317 77.3391 39.5185L77.6424 40.9254C77.5463 40.9586 77.4087 40.995 77.2297 41.0348C77.0541 41.0746 76.8386 41.0978 76.5834 41.1044C76.1327 41.1177 75.7267 41.0497 75.3654 40.9006C75.0041 40.7481 74.7174 40.5128 74.5053 40.1946C74.2965 39.8764 74.1938 39.4787 74.1971 39.0014V31.5341Z" fill="black"/>
<path d="M83.8755 37.7883V33.3636H85.6752V41H83.9302V39.6427H83.8507C83.6783 40.0703 83.3949 40.42 83.0005 40.6918C82.6094 40.9635 82.1272 41.0994 81.5538 41.0994C81.0533 41.0994 80.6108 40.9884 80.2264 40.7663C79.8452 40.541 79.5469 40.2145 79.3315 39.7869C79.116 39.3561 79.0083 38.8357 79.0083 38.2258V33.3636H80.808V37.9474C80.808 38.4313 80.9406 38.8158 81.2058 39.1008C81.4709 39.3859 81.8189 39.5284 82.2498 39.5284C82.515 39.5284 82.7718 39.4638 83.0204 39.3345C83.269 39.2052 83.4728 39.013 83.6319 38.7578C83.7943 38.4993 83.8755 38.1761 83.8755 37.7883Z" fill="black"/>
<path d="M87.5259 41V33.3636H89.2709V34.6364H89.3505C89.4897 34.1955 89.7283 33.8558 90.0664 33.6172C90.4078 33.3752 90.7972 33.2543 91.2347 33.2543C91.3341 33.2543 91.4452 33.2592 91.5678 33.2692C91.6938 33.2758 91.7982 33.2874 91.881 33.304V34.9595C91.8048 34.933 91.6838 34.9098 91.5181 34.8899C91.3557 34.8667 91.1983 34.8551 91.0458 34.8551C90.7177 34.8551 90.4227 34.9264 90.1609 35.0689C89.9023 35.2081 89.6985 35.402 89.5493 35.6506C89.4002 35.8991 89.3256 36.1858 89.3256 36.5106V41H87.5259Z" fill="black"/>
<path d="M93.0767 41V33.3636H94.8764V41H93.0767ZM93.9815 32.2798C93.6965 32.2798 93.4512 32.1854 93.2457 31.9964C93.0402 31.8042 92.9375 31.5739 92.9375 31.3054C92.9375 31.0336 93.0402 30.8033 93.2457 30.6143C93.4512 30.4221 93.6965 30.326 93.9815 30.326C94.2699 30.326 94.5151 30.4221 94.7173 30.6143C94.9228 30.8033 95.0256 31.0336 95.0256 31.3054C95.0256 31.5739 94.9228 31.8042 94.7173 31.9964C94.5151 32.1854 94.2699 32.2798 93.9815 32.2798Z" fill="black"/>
<path d="M100.54 33.3636V34.7557H96.1504V33.3636H100.54ZM97.2342 31.5341H99.0339V38.7031C99.0339 38.9451 99.0704 39.1307 99.1433 39.2599C99.2195 39.3859 99.3189 39.4721 99.4416 39.5185C99.5642 39.5649 99.7001 39.5881 99.8492 39.5881C99.9619 39.5881 100.065 39.5798 100.157 39.5632C100.254 39.5466 100.327 39.5317 100.376 39.5185L100.679 40.9254C100.583 40.9586 100.446 40.995 100.267 41.0348C100.091 41.0746 99.8758 41.0978 99.6205 41.1044C99.1698 41.1177 98.7638 41.0497 98.4025 40.9006C98.0412 40.7481 97.7545 40.5128 97.5424 40.1946C97.3336 39.8764 97.2309 39.4787 97.2342 39.0014V31.5341Z" fill="black"/>
<path d="M103.164 43.8636C102.919 43.8636 102.692 43.8437 102.483 43.804C102.277 43.7675 102.113 43.7244 101.991 43.6747L102.408 42.2727C102.67 42.349 102.904 42.3854 103.109 42.3821C103.315 42.3788 103.495 42.3142 103.651 42.1882C103.81 42.0656 103.945 41.8601 104.054 41.5717L104.208 41.1591L101.439 33.3636H103.348L105.108 39.1307H105.187L106.952 33.3636H108.866L105.809 41.9247C105.666 42.3291 105.477 42.6754 105.242 42.9638C105.007 43.2554 104.718 43.4775 104.377 43.63C104.039 43.7857 103.635 43.8636 103.164 43.8636Z" fill="black"/>
<path d="M114.972 41H113.003L116.587 30.8182H118.864L122.454 41H120.485L117.766 32.9062H117.686L114.972 41ZM115.036 37.0078H120.406V38.4893H115.036V37.0078Z" fill="black"/>
<path d="M129.628 35.3821L127.987 35.5611C127.941 35.3954 127.86 35.2396 127.744 35.0937C127.631 34.9479 127.478 34.8302 127.286 34.7408C127.094 34.6513 126.859 34.6065 126.58 34.6065C126.206 34.6065 125.891 34.6877 125.636 34.8501C125.384 35.0125 125.259 35.223 125.263 35.4815C125.259 35.7036 125.341 35.8842 125.506 36.0234C125.675 36.1626 125.954 36.277 126.342 36.3665L127.644 36.6449C128.367 36.8007 128.904 37.0476 129.255 37.3856C129.61 37.7237 129.789 38.1662 129.792 38.7131C129.789 39.1936 129.648 39.6179 129.369 39.9858C129.094 40.3504 128.711 40.6354 128.221 40.8409C127.73 41.0464 127.167 41.1491 126.531 41.1491C125.596 41.1491 124.843 40.9536 124.273 40.5625C123.703 40.1681 123.364 39.6195 123.254 38.9169L125.009 38.7479C125.089 39.0926 125.258 39.3527 125.516 39.5284C125.775 39.7041 126.111 39.7919 126.526 39.7919C126.953 39.7919 127.296 39.7041 127.555 39.5284C127.817 39.3527 127.947 39.1356 127.947 38.8771C127.947 38.6584 127.863 38.4777 127.694 38.3352C127.528 38.1927 127.27 38.0833 126.918 38.0071L125.616 37.7337C124.883 37.5812 124.341 37.3243 123.99 36.9631C123.639 36.5985 123.465 36.1378 123.468 35.581C123.465 35.1103 123.592 34.7026 123.851 34.3579C124.113 34.0099 124.476 33.7415 124.94 33.5526C125.407 33.3603 125.946 33.2642 126.555 33.2642C127.45 33.2642 128.155 33.4548 128.668 33.8359C129.185 34.2171 129.505 34.7325 129.628 35.3821Z" fill="black"/>
<path d="M137.311 35.3821L135.671 35.5611C135.624 35.3954 135.543 35.2396 135.427 35.0937C135.314 34.9479 135.162 34.8302 134.97 34.7408C134.778 34.6513 134.542 34.6065 134.264 34.6065C133.889 34.6065 133.574 34.6877 133.319 34.8501C133.067 35.0125 132.943 35.223 132.946 35.4815C132.943 35.7036 133.024 35.8842 133.19 36.0234C133.359 36.1626 133.637 36.277 134.025 36.3665L135.328 36.6449C136.05 36.8007 136.587 37.0476 136.939 37.3856C137.293 37.7237 137.472 38.1662 137.475 38.7131C137.472 39.1936 137.331 39.6179 137.053 39.9858C136.778 40.3504 136.395 40.6354 135.904 40.8409C135.414 41.0464 134.85 41.1491 134.214 41.1491C133.279 41.1491 132.527 40.9536 131.957 40.5625C131.387 40.1681 131.047 39.6195 130.938 38.9169L132.693 38.7479C132.772 39.0926 132.941 39.3527 133.2 39.5284C133.458 39.7041 133.795 39.7919 134.209 39.7919C134.637 39.7919 134.98 39.7041 135.238 39.5284C135.5 39.3527 135.631 39.1356 135.631 38.8771C135.631 38.6584 135.546 38.4777 135.377 38.3352C135.212 38.1927 134.953 38.0833 134.602 38.0071L133.299 37.7337C132.567 37.5812 132.025 37.3243 131.674 36.9631C131.322 36.5985 131.148 36.1378 131.152 35.581C131.148 35.1103 131.276 34.7026 131.534 34.3579C131.796 34.0099 132.159 33.7415 132.623 33.5526C133.091 33.3603 133.629 33.2642 134.239 33.2642C135.134 33.2642 135.838 33.4548 136.352 33.8359C136.869 34.2171 137.189 34.7325 137.311 35.3821Z" fill="black"/>
<path d="M142.34 41.1491C141.575 41.1491 140.913 40.9901 140.357 40.6719C139.803 40.3504 139.377 39.8963 139.079 39.3097C138.781 38.7197 138.631 38.0253 138.631 37.2266C138.631 36.441 138.781 35.7517 139.079 35.1584C139.38 34.5618 139.801 34.0978 140.342 33.7663C140.882 33.4316 141.517 33.2642 142.246 33.2642C142.716 33.2642 143.16 33.3404 143.578 33.4929C143.999 33.642 144.37 33.874 144.692 34.1889C145.017 34.5038 145.272 34.9048 145.457 35.392C145.643 35.8759 145.736 36.4526 145.736 37.1222V37.674H139.477V36.4609H144.011C144.007 36.1162 143.933 35.8097 143.787 35.5412C143.641 35.2694 143.437 35.0556 143.175 34.8999C142.917 34.7441 142.615 34.6662 142.271 34.6662C141.903 34.6662 141.58 34.7557 141.301 34.9347C141.023 35.1103 140.806 35.3423 140.65 35.6307C140.497 35.9157 140.419 36.2289 140.416 36.5703V37.6293C140.416 38.0734 140.497 38.4545 140.66 38.7727C140.822 39.0876 141.049 39.3295 141.341 39.4986C141.633 39.6643 141.974 39.7472 142.365 39.7472C142.627 39.7472 142.864 39.7107 143.076 39.6378C143.288 39.5615 143.472 39.4505 143.628 39.3047C143.784 39.1588 143.901 38.9782 143.981 38.7628L145.661 38.9517C145.555 39.3958 145.353 39.7836 145.055 40.1151C144.76 40.4432 144.382 40.6984 143.921 40.8807C143.46 41.0597 142.933 41.1491 142.34 41.1491Z" fill="black"/>
<path d="M153.294 35.3821L151.653 35.5611C151.607 35.3954 151.526 35.2396 151.41 35.0937C151.297 34.9479 151.144 34.8302 150.952 34.7408C150.76 34.6513 150.525 34.6065 150.246 34.6065C149.872 34.6065 149.557 34.6877 149.302 34.8501C149.05 35.0125 148.925 35.223 148.929 35.4815C148.925 35.7036 149.007 35.8842 149.172 36.0234C149.341 36.1626 149.62 36.277 150.008 36.3665L151.31 36.6449C152.033 36.8007 152.57 37.0476 152.921 37.3856C153.276 37.7237 153.455 38.1662 153.458 38.7131C153.455 39.1936 153.314 39.6179 153.035 39.9858C152.76 40.3504 152.377 40.6354 151.887 40.8409C151.396 41.0464 150.833 41.1491 150.197 41.1491C149.262 41.1491 148.51 40.9536 147.939 40.5625C147.369 40.1681 147.03 39.6195 146.92 38.9169L148.675 38.7479C148.755 39.0926 148.924 39.3527 149.182 39.5284C149.441 39.7041 149.777 39.7919 150.192 39.7919C150.619 39.7919 150.962 39.7041 151.221 39.5284C151.483 39.3527 151.613 39.1356 151.613 38.8771C151.613 38.6584 151.529 38.4777 151.36 38.3352C151.194 38.1927 150.936 38.0833 150.584 38.0071L149.282 37.7337C148.549 37.5812 148.007 37.3243 147.656 36.9631C147.305 36.5985 147.131 36.1378 147.134 35.581C147.131 35.1103 147.258 34.7026 147.517 34.3579C147.779 34.0099 148.142 33.7415 148.606 33.5526C149.073 33.3603 149.612 33.2642 150.221 33.2642C151.116 33.2642 151.821 33.4548 152.334 33.8359C152.851 34.2171 153.171 34.7325 153.294 35.3821Z" fill="black"/>
<path d="M160.977 35.3821L159.337 35.5611C159.29 35.3954 159.209 35.2396 159.093 35.0937C158.981 34.9479 158.828 34.8302 158.636 34.7408C158.444 34.6513 158.208 34.6065 157.93 34.6065C157.555 34.6065 157.24 34.6877 156.985 34.8501C156.733 35.0125 156.609 35.223 156.612 35.4815C156.609 35.7036 156.69 35.8842 156.856 36.0234C157.025 36.1626 157.303 36.277 157.691 36.3665L158.994 36.6449C159.716 36.8007 160.253 37.0476 160.605 37.3856C160.959 37.7237 161.138 38.1662 161.141 38.7131C161.138 39.1936 160.997 39.6179 160.719 39.9858C160.444 40.3504 160.061 40.6354 159.57 40.8409C159.08 41.0464 158.516 41.1491 157.88 41.1491C156.945 41.1491 156.193 40.9536 155.623 40.5625C155.053 40.1681 154.713 39.6195 154.604 38.9169L156.359 38.7479C156.438 39.0926 156.607 39.3527 156.866 39.5284C157.124 39.7041 157.461 39.7919 157.875 39.7919C158.303 39.7919 158.646 39.7041 158.904 39.5284C159.166 39.3527 159.297 39.1356 159.297 38.8771C159.297 38.6584 159.213 38.4777 159.043 38.3352C158.878 38.1927 158.619 38.0833 158.268 38.0071L156.965 37.7337C156.233 37.5812 155.691 37.3243 155.34 36.9631C154.988 36.5985 154.814 36.1378 154.818 35.581C154.814 35.1103 154.942 34.7026 155.2 34.3579C155.462 34.0099 155.825 33.7415 156.289 33.5526C156.757 33.3603 157.295 33.2642 157.905 33.2642C158.8 33.2642 159.504 33.4548 160.018 33.8359C160.535 34.2171 160.855 34.7325 160.977 35.3821Z" fill="black"/>
<path d="M162.626 41V33.3636H164.346V34.6612H164.435C164.594 34.2237 164.858 33.8823 165.226 33.6371C165.594 33.3885 166.033 33.2642 166.543 33.2642C167.06 33.2642 167.496 33.3901 167.851 33.642C168.209 33.8906 168.461 34.2303 168.606 34.6612H168.686C168.855 34.237 169.14 33.8989 169.541 33.647C169.945 33.3918 170.424 33.2642 170.978 33.2642C171.68 33.2642 172.254 33.4863 172.698 33.9304C173.142 34.3745 173.364 35.0225 173.364 35.8743V41H171.559V36.1527C171.559 35.6787 171.434 35.3324 171.182 35.1136C170.93 34.8916 170.621 34.7805 170.257 34.7805C169.823 34.7805 169.483 34.9164 169.238 35.1882C168.996 35.4567 168.875 35.8063 168.875 36.2372V41H167.11V36.0781C167.11 35.6837 166.991 35.3688 166.752 35.1335C166.517 34.8982 166.208 34.7805 165.827 34.7805C165.569 34.7805 165.333 34.8468 165.121 34.9794C164.909 35.1087 164.74 35.2926 164.614 35.5312C164.488 35.7666 164.425 36.0417 164.425 36.3565V41H162.626Z" fill="black"/>
<path d="M178.571 41.1491C177.805 41.1491 177.144 40.9901 176.587 40.6719C176.033 40.3504 175.608 39.8963 175.309 39.3097C175.011 38.7197 174.862 38.0253 174.862 37.2266C174.862 36.441 175.011 35.7517 175.309 35.1584C175.611 34.5618 176.032 34.0978 176.572 33.7663C177.112 33.4316 177.747 33.2642 178.476 33.2642C178.947 33.2642 179.391 33.3404 179.809 33.4929C180.23 33.642 180.601 33.874 180.922 34.1889C181.247 34.5038 181.502 34.9048 181.688 35.392C181.873 35.8759 181.966 36.4526 181.966 37.1222V37.674H175.707V36.4609H180.241C180.238 36.1162 180.163 35.8097 180.017 35.5412C179.872 35.2694 179.668 35.0556 179.406 34.8999C179.147 34.7441 178.846 34.6662 178.501 34.6662C178.133 34.6662 177.81 34.7557 177.532 34.9347C177.253 35.1103 177.036 35.3423 176.88 35.6307C176.728 35.9157 176.65 36.2289 176.647 36.5703V37.6293C176.647 38.0734 176.728 38.4545 176.89 38.7727C177.053 39.0876 177.28 39.3295 177.571 39.4986C177.863 39.6643 178.204 39.7472 178.596 39.7472C178.857 39.7472 179.094 39.7107 179.306 39.6378C179.519 39.5615 179.703 39.4505 179.858 39.3047C180.014 39.1588 180.132 38.9782 180.211 38.7628L181.892 38.9517C181.786 39.3958 181.583 39.7836 181.285 40.1151C180.99 40.4432 180.612 40.6984 180.152 40.8807C179.691 41.0597 179.164 41.1491 178.571 41.1491Z" fill="black"/>
<path d="M185.289 36.5256V41H183.489V33.3636H185.209V34.6612H185.298C185.474 34.2337 185.754 33.8939 186.139 33.642C186.526 33.3901 187.005 33.2642 187.575 33.2642C188.102 33.2642 188.561 33.3769 188.953 33.6023C189.347 33.8276 189.652 34.1541 189.867 34.5817C190.086 35.0092 190.194 35.5279 190.191 36.1378V41H188.391V36.4162C188.391 35.9058 188.258 35.5064 187.993 35.218C187.731 34.9297 187.368 34.7855 186.904 34.7855C186.589 34.7855 186.309 34.8551 186.064 34.9943C185.822 35.1302 185.632 35.3274 185.492 35.5859C185.356 35.8445 185.289 36.1577 185.289 36.5256Z" fill="black"/>
<path d="M195.833 33.3636V34.7557H191.443V33.3636H195.833ZM192.527 31.5341H194.327V38.7031C194.327 38.9451 194.363 39.1307 194.436 39.2599C194.512 39.3859 194.612 39.4721 194.735 39.5185C194.857 39.5649 194.993 39.5881 195.142 39.5881C195.255 39.5881 195.358 39.5798 195.45 39.5632C195.547 39.5466 195.619 39.5317 195.669 39.5185L195.972 40.9254C195.876 40.9586 195.739 40.995 195.56 41.0348C195.384 41.0746 195.169 41.0978 194.914 41.1044C194.463 41.1177 194.057 41.0497 193.695 40.9006C193.334 40.7481 193.048 40.5128 192.835 40.1946C192.627 39.8764 192.524 39.4787 192.527 39.0014V31.5341Z" fill="black"/>
<defs>
<linearGradient id="paint0_linear_2343_200215" x1="14.576" y1="29.6921" x2="29.8259" y2="53.1749" gradientUnits="userSpaceOnUse">
<stop stop-color="#9250FF"/>
<stop offset="1" stop-color="#5B46F6"/>
</linearGradient>
</defs>
</svg>
