<svg width="218" height="56" viewBox="0 0 218 56" fill="none" xmlns="http://www.w3.org/2000/svg">
<rect x="8.20099" y="27.4335" width="28" height="28" rx="7" transform="rotate(-45 8.20099 27.4335)" fill="url(#paint0_linear_2343_200235)"/>
<mask id="mask0_2343_200235" style="mask-type:alpha" maskUnits="userSpaceOnUse" x="11" y="10" width="34" height="35">
<rect x="8.20094" y="27.4335" width="28" height="28" rx="7" transform="rotate(-45 8.20094 27.4335)" fill="#5B46F6"/>
</mask>
<g mask="url(#mask0_2343_200235)">
<path d="M36.0788 43.4191L33.5768 41.9747L33.5769 22.1667L36.0789 23.6112L36.1292 43.39L36.0788 43.4191Z" fill="#3D3D3D"/>
<path d="M36.0789 20.7222L38.5808 22.1667L36.0789 23.6112L33.5769 22.1667L36.0789 20.7222Z" fill="#D1CDE8"/>
<path d="M38.5806 41.8917L38.5807 22.1667L36.0787 23.6112L36.129 43.3071L38.5806 41.8917Z" fill="#8180FF"/>
<path d="M19.2623 44.2243L16.7604 42.7798L16.7605 27.1667L19.2624 28.6112L19.3128 44.1951L19.2623 44.2243Z" fill="#3D3D3D"/>
<path d="M19.2625 25.7222L21.7644 27.1667L19.2625 28.6112L16.7605 27.1667L19.2625 25.7222Z" fill="#D1CDE8"/>
<path d="M21.7644 42.7797L21.7644 27.1667L19.2624 28.6112L19.3128 44.1951L21.7644 42.7797Z" fill="#8180FF"/>
<path d="M28.3101 15.9999L26.2406 17.3926L29.1234 26.4237L31.4076 24.9289L28.3101 15.9999Z" fill="#8180FF"/>
<path d="M29.946 44.9289L29.9437 23.429L27.4418 24.8735L27.4919 45.929L29.946 44.9289Z" fill="#8180FF"/>
<path fill-rule="evenodd" clip-rule="evenodd" d="M29.1189 26.4219L27.4845 25.4788L27.4984 45.882L25.0056 44.429L25.0038 26.4267L24.9956 26.4219L24.9956 24.0305L23.2748 23.0479L26.2401 17.3834L29.1189 26.4219ZM27.4927 45.882L27.4985 37.429L27.4984 27.8754L27.4927 45.882Z" fill="#3D3D3D"/>
</g>
<path d="M53 23.8387V13.6568H59.6222V15.203H54.8445V17.9672H59.2791V19.5134H54.8445V22.2925H59.6619V23.8387H53Z" fill="white"/>
<path d="M63.2241 19.3642V23.8387H61.4244V16.2023H63.1445V17.4999H63.234C63.4097 17.0723 63.6897 16.7326 64.0742 16.4807C64.462 16.2288 64.9409 16.1029 65.511 16.1029C66.038 16.1029 66.497 16.2156 66.8881 16.4409C67.2826 16.6663 67.5875 16.9928 67.8029 17.4203C68.0217 17.8479 68.1294 18.3666 68.1261 18.9764V23.8387H66.3264V19.2549C66.3264 18.7444 66.1938 18.3451 65.9286 18.0567C65.6668 17.7684 65.3039 17.6242 64.8398 17.6242C64.525 17.6242 64.2449 17.6938 63.9996 17.833C63.7577 17.9689 63.5671 18.1661 63.4279 18.4246C63.292 18.6831 63.2241 18.9963 63.2241 19.3642Z" fill="white"/>
<path d="M73.2766 26.8614C72.6303 26.8614 72.0752 26.7736 71.6112 26.5979C71.1471 26.4255 70.7743 26.1935 70.4925 25.9019C70.2108 25.6102 70.0153 25.2871 69.9059 24.9324L71.5266 24.5397C71.5996 24.6888 71.7056 24.8363 71.8448 24.9821C71.984 25.1313 72.1713 25.2539 72.4066 25.35C72.6452 25.4495 72.9452 25.4992 73.3065 25.4992C73.8169 25.4992 74.2395 25.3749 74.5742 25.1263C74.909 24.881 75.0763 24.4767 75.0763 23.9132V22.4665H74.9869C74.8941 22.6521 74.7582 22.8427 74.5792 23.0382C74.4035 23.2338 74.1699 23.3978 73.8782 23.5304C73.5898 23.663 73.2269 23.7293 72.7894 23.7293C72.2028 23.7293 71.6708 23.5917 71.1935 23.3166C70.7196 23.0382 70.3417 22.6239 70.06 22.0737C69.7816 21.5202 69.6424 20.8275 69.6424 19.9956C69.6424 19.1571 69.7816 18.4495 70.06 17.8728C70.3417 17.2927 70.7212 16.8536 71.1985 16.5553C71.6758 16.2537 72.2077 16.1029 72.7944 16.1029C73.2418 16.1029 73.6097 16.1791 73.8981 16.3316C74.1897 16.4807 74.4218 16.6613 74.5941 16.8735C74.7665 17.0823 74.8974 17.2795 74.9869 17.4651H75.0863V16.2023H76.8612V23.963C76.8612 24.6159 76.7054 25.1561 76.3938 25.5837C76.0823 26.0112 75.6564 26.3311 75.1161 26.5432C74.5759 26.7553 73.9627 26.8614 73.2766 26.8614ZM73.2915 22.3174C73.6727 22.3174 73.9975 22.2246 74.266 22.0389C74.5344 21.8533 74.7383 21.5865 74.8775 21.2385C75.0167 20.8905 75.0863 20.4729 75.0863 19.9857C75.0863 19.5051 75.0167 19.0842 74.8775 18.7229C74.7416 18.3616 74.5394 18.0816 74.271 17.8827C74.0058 17.6805 73.6793 17.5794 73.2915 17.5794C72.8905 17.5794 72.5558 17.6838 72.2873 17.8926C72.0188 18.1014 71.8166 18.3881 71.6808 18.7527C71.5449 19.114 71.4769 19.525 71.4769 19.9857C71.4769 20.453 71.5449 20.8623 71.6808 21.2137C71.82 21.5617 72.0238 21.8335 72.2923 22.029C72.564 22.2212 72.8971 22.3174 73.2915 22.3174Z" fill="white"/>
<path d="M78.7056 23.8387V16.2023H80.5053V23.8387H78.7056ZM79.6104 15.1185C79.3254 15.1185 79.0801 15.024 78.8746 14.8351C78.6692 14.6429 78.5664 14.4125 78.5664 14.1441C78.5664 13.8723 78.6692 13.6419 78.8746 13.453C79.0801 13.2608 79.3254 13.1647 79.6104 13.1647C79.8988 13.1647 80.1441 13.2608 80.3462 13.453C80.5517 13.6419 80.6545 13.8723 80.6545 14.1441C80.6545 14.4125 80.5517 14.6429 80.3462 14.8351C80.1441 15.024 79.8988 15.1185 79.6104 15.1185Z" fill="white"/>
<path d="M84.1557 19.3642V23.8387H82.356V16.2023H84.0762V17.4999H84.1657C84.3413 17.0723 84.6214 16.7326 85.0059 16.4807C85.3936 16.2288 85.8726 16.1029 86.4426 16.1029C86.9696 16.1029 87.4287 16.2156 87.8198 16.4409C88.2142 16.6663 88.5191 16.9928 88.7346 17.4203C88.9533 17.8479 89.061 18.3666 89.0577 18.9764V23.8387H87.258V19.2549C87.258 18.7444 87.1254 18.3451 86.8603 18.0567C86.5984 17.7684 86.2355 17.6242 85.7715 17.6242C85.4566 17.6242 85.1766 17.6938 84.9313 17.833C84.6893 17.9689 84.4988 18.1661 84.3596 18.4246C84.2237 18.6831 84.1557 18.9963 84.1557 19.3642Z" fill="white"/>
<path d="M94.2679 23.9878C93.5023 23.9878 92.8411 23.8287 92.2843 23.5105C91.7308 23.189 91.3049 22.735 91.0066 22.1483C90.7083 21.5584 90.5591 20.864 90.5591 20.0652C90.5591 19.2797 90.7083 18.5903 91.0066 17.997C91.3082 17.4005 91.7291 16.9364 92.2694 16.605C92.8096 16.2702 93.4443 16.1029 94.1735 16.1029C94.6441 16.1029 95.0882 16.1791 95.5059 16.3316C95.9268 16.4807 96.298 16.7127 96.6195 17.0276C96.9443 17.3425 97.1995 17.7435 97.3851 18.2307C97.5707 18.7146 97.6635 19.2913 97.6635 19.9608V20.5127H91.4043V19.2996H95.9384C95.9351 18.9549 95.8605 18.6483 95.7147 18.3799C95.5688 18.1081 95.365 17.8943 95.1032 17.7385C94.8446 17.5827 94.543 17.5049 94.1983 17.5049C93.8304 17.5049 93.5073 17.5943 93.2289 17.7733C92.9505 17.949 92.7334 18.181 92.5776 18.4693C92.4251 18.7544 92.3472 19.0676 92.3439 19.409V20.4679C92.3439 20.9121 92.4251 21.2932 92.5875 21.6114C92.7499 21.9263 92.977 22.1682 93.2686 22.3372C93.5603 22.503 93.9017 22.5858 94.2928 22.5858C94.5546 22.5858 94.7916 22.5494 95.0037 22.4764C95.2159 22.4002 95.3998 22.2892 95.5556 22.1434C95.7114 21.9975 95.829 21.8169 95.9086 21.6014L97.589 21.7904C97.4829 22.2345 97.2807 22.6223 96.9824 22.9537C96.6874 23.2818 96.3096 23.5371 95.8489 23.7193C95.3882 23.8983 94.8612 23.9878 94.2679 23.9878Z" fill="white"/>
<path d="M102.567 23.9878C101.801 23.9878 101.14 23.8287 100.583 23.5105C100.03 23.189 99.6037 22.735 99.3054 22.1483C99.0071 21.5584 98.858 20.864 98.858 20.0652C98.858 19.2797 99.0071 18.5903 99.3054 17.997C99.607 17.4005 100.028 16.9364 100.568 16.605C101.108 16.2702 101.743 16.1029 102.472 16.1029C102.943 16.1029 103.387 16.1791 103.805 16.3316C104.226 16.4807 104.597 16.7127 104.918 17.0276C105.243 17.3425 105.498 17.7435 105.684 18.2307C105.87 18.7146 105.962 19.2913 105.962 19.9608V20.5127H99.7031V19.2996H104.237C104.234 18.9549 104.159 18.6483 104.013 18.3799C103.868 18.1081 103.664 17.8943 103.402 17.7385C103.143 17.5827 102.842 17.5049 102.497 17.5049C102.129 17.5049 101.806 17.5943 101.528 17.7733C101.249 17.949 101.032 18.181 100.876 18.4693C100.724 18.7544 100.646 19.0676 100.643 19.409V20.4679C100.643 20.9121 100.724 21.2932 100.886 21.6114C101.049 21.9263 101.276 22.1682 101.567 22.3372C101.859 22.503 102.201 22.5858 102.592 22.5858C102.853 22.5858 103.09 22.5494 103.303 22.4764C103.515 22.4002 103.699 22.2892 103.854 22.1434C104.01 21.9975 104.128 21.8169 104.207 21.6014L105.888 21.7904C105.782 22.2345 105.58 22.6223 105.281 22.9537C104.986 23.2818 104.608 23.5371 104.148 23.7193C103.687 23.8983 103.16 23.9878 102.567 23.9878Z" fill="white"/>
<path d="M107.485 23.8387V16.2023H109.23V17.475H109.309C109.449 17.0342 109.687 16.6945 110.025 16.4559C110.367 16.2139 110.756 16.0929 111.194 16.0929C111.293 16.0929 111.404 16.0979 111.527 16.1078C111.653 16.1145 111.757 16.1261 111.84 16.1426V17.7982C111.764 17.7717 111.643 17.7485 111.477 17.7286C111.315 17.7054 111.157 17.6938 111.005 17.6938C110.677 17.6938 110.382 17.765 110.12 17.9076C109.861 18.0468 109.657 18.2407 109.508 18.4892C109.359 18.7378 109.285 19.0245 109.285 19.3493V23.8387H107.485Z" fill="white"/>
<path d="M113.036 23.8387V16.2023H114.835V23.8387H113.036ZM113.941 15.1185C113.655 15.1185 113.41 15.024 113.205 14.8351C112.999 14.6429 112.896 14.4125 112.896 14.1441C112.896 13.8723 112.999 13.6419 113.205 13.453C113.41 13.2608 113.655 13.1647 113.941 13.1647C114.229 13.1647 114.474 13.2608 114.676 13.453C114.882 13.6419 114.985 13.8723 114.985 14.1441C114.985 14.4125 114.882 14.6429 114.676 14.8351C114.474 15.024 114.229 15.1185 113.941 15.1185Z" fill="white"/>
<path d="M118.486 19.3642V23.8387H116.686V16.2023H118.406V17.4999H118.496C118.671 17.0723 118.951 16.7326 119.336 16.4807C119.724 16.2288 120.203 16.1029 120.773 16.1029C121.3 16.1029 121.759 16.2156 122.15 16.4409C122.544 16.6663 122.849 16.9928 123.065 17.4203C123.283 17.8479 123.391 18.3666 123.388 18.9764V23.8387H121.588V19.2549C121.588 18.7444 121.455 18.3451 121.19 18.0567C120.929 17.7684 120.566 17.6242 120.102 17.6242C119.787 17.6242 119.507 17.6938 119.261 17.833C119.019 17.9689 118.829 18.1661 118.69 18.4246C118.554 18.6831 118.486 18.9963 118.486 19.3642Z" fill="white"/>
<path d="M128.538 26.8614C127.892 26.8614 127.337 26.7736 126.873 26.5979C126.409 26.4255 126.036 26.1935 125.754 25.9019C125.473 25.6102 125.277 25.2871 125.168 24.9324L126.788 24.5397C126.861 24.6888 126.967 24.8363 127.107 24.9821C127.246 25.1313 127.433 25.2539 127.668 25.35C127.907 25.4495 128.207 25.4992 128.568 25.4992C129.079 25.4992 129.501 25.3749 129.836 25.1263C130.171 24.881 130.338 24.4767 130.338 23.9132V22.4665H130.249C130.156 22.6521 130.02 22.8427 129.841 23.0382C129.665 23.2338 129.432 23.3978 129.14 23.5304C128.852 23.663 128.489 23.7293 128.051 23.7293C127.464 23.7293 126.933 23.5917 126.455 23.3166C125.981 23.0382 125.603 22.6239 125.322 22.0737C125.043 21.5202 124.904 20.8275 124.904 19.9956C124.904 19.1571 125.043 18.4495 125.322 17.8728C125.603 17.2927 125.983 16.8536 126.46 16.5553C126.937 16.2537 127.469 16.1029 128.056 16.1029C128.504 16.1029 128.871 16.1791 129.16 16.3316C129.451 16.4807 129.683 16.6613 129.856 16.8735C130.028 17.0823 130.159 17.2795 130.249 17.4651H130.348V16.2023H132.123V23.963C132.123 24.6159 131.967 25.1561 131.656 25.5837C131.344 26.0112 130.918 26.3311 130.378 26.5432C129.838 26.7553 129.224 26.8614 128.538 26.8614ZM128.553 22.3174C128.934 22.3174 129.259 22.2246 129.528 22.0389C129.796 21.8533 130 21.5865 130.139 21.2385C130.278 20.8905 130.348 20.4729 130.348 19.9857C130.348 19.5051 130.278 19.0842 130.139 18.7229C130.003 18.3616 129.801 18.0816 129.533 17.8827C129.268 17.6805 128.941 17.5794 128.553 17.5794C128.152 17.5794 127.817 17.6838 127.549 17.8926C127.281 18.1014 127.078 18.3881 126.942 18.7527C126.807 19.114 126.739 19.525 126.739 19.9857C126.739 20.453 126.807 20.8623 126.942 21.2137C127.082 21.5617 127.286 21.8335 127.554 22.029C127.826 22.2212 128.159 22.3174 128.553 22.3174Z" fill="white"/>
<path d="M137.52 23.8387V13.6568H144.142V15.203H139.364V17.9672H143.799V19.5134H139.364V22.2925H144.181V23.8387H137.52Z" fill="white"/>
<path d="M147.415 16.2023L148.957 19.0212L150.523 16.2023H152.427L150.125 20.0205L152.467 23.8387H150.572L148.957 21.0894L147.356 23.8387H145.447L147.773 20.0205L145.506 16.2023H147.415Z" fill="white"/>
<path d="M156.863 23.9878C156.1 23.9878 155.446 23.8204 154.899 23.4857C154.355 23.1509 153.936 22.6886 153.641 22.0986C153.349 21.5053 153.204 20.8226 153.204 20.0503C153.204 19.2747 153.353 18.5903 153.651 17.997C153.949 17.4005 154.37 16.9364 154.914 16.605C155.461 16.2702 156.107 16.1029 156.853 16.1029C157.473 16.1029 158.021 16.2172 158.498 16.4459C158.979 16.6713 159.362 16.9911 159.647 17.4054C159.932 17.8164 160.094 18.297 160.134 18.8472H158.414C158.344 18.4793 158.179 18.1727 157.917 17.9274C157.658 17.6789 157.312 17.5546 156.878 17.5546C156.51 17.5546 156.187 17.654 155.908 17.8529C155.63 18.0484 155.413 18.3301 155.257 18.698C155.104 19.0659 155.028 19.5068 155.028 20.0205C155.028 20.5408 155.104 20.9883 155.257 21.3628C155.409 21.734 155.623 22.0207 155.898 22.2229C156.177 22.4218 156.503 22.5212 156.878 22.5212C157.143 22.5212 157.38 22.4715 157.589 22.372C157.801 22.2693 157.978 22.1218 158.121 21.9296C158.263 21.7373 158.361 21.5037 158.414 21.2286H160.134C160.091 21.7688 159.932 22.2478 159.657 22.6654C159.382 23.0797 159.007 23.4045 158.533 23.6398C158.059 23.8718 157.502 23.9878 156.863 23.9878Z" fill="white"/>
<path d="M164.993 23.9878C164.227 23.9878 163.566 23.8287 163.009 23.5105C162.455 23.189 162.029 22.735 161.731 22.1483C161.433 21.5584 161.284 20.864 161.284 20.0652C161.284 19.2797 161.433 18.5903 161.731 17.997C162.033 17.4005 162.454 16.9364 162.994 16.605C163.534 16.2702 164.169 16.1029 164.898 16.1029C165.369 16.1029 165.813 16.1791 166.23 16.3316C166.651 16.4807 167.023 16.7127 167.344 17.0276C167.669 17.3425 167.924 17.7435 168.11 18.2307C168.295 18.7146 168.388 19.2913 168.388 19.9608V20.5127H162.129V19.2996H166.663C166.66 18.9549 166.585 18.6483 166.439 18.3799C166.293 18.1081 166.09 17.8943 165.828 17.7385C165.569 17.5827 165.268 17.5049 164.923 17.5049C164.555 17.5049 164.232 17.5943 163.953 17.7733C163.675 17.949 163.458 18.181 163.302 18.4693C163.15 18.7544 163.072 19.0676 163.069 19.409V20.4679C163.069 20.9121 163.15 21.2932 163.312 21.6114C163.475 21.9263 163.702 22.1682 163.993 22.3372C164.285 22.503 164.626 22.5858 165.017 22.5858C165.279 22.5858 165.516 22.5494 165.728 22.4764C165.94 22.4002 166.124 22.2892 166.28 22.1434C166.436 21.9975 166.554 21.8169 166.633 21.6014L168.314 21.7904C168.207 22.2345 168.005 22.6223 167.707 22.9537C167.412 23.2818 167.034 23.5371 166.574 23.7193C166.113 23.8983 165.586 23.9878 164.993 23.9878Z" fill="white"/>
<path d="M171.71 13.6568V23.8387H169.911V13.6568H171.71Z" fill="white"/>
<path d="M175.361 13.6568V23.8387H173.561V13.6568H175.361Z" fill="white"/>
<path d="M180.592 23.9878C179.827 23.9878 179.165 23.8287 178.608 23.5105C178.055 23.189 177.629 22.735 177.331 22.1483C177.032 21.5584 176.883 20.864 176.883 20.0652C176.883 19.2797 177.032 18.5903 177.331 17.997C177.632 17.4005 178.053 16.9364 178.594 16.605C179.134 16.2702 179.769 16.1029 180.498 16.1029C180.968 16.1029 181.412 16.1791 181.83 16.3316C182.251 16.4807 182.622 16.7127 182.944 17.0276C183.269 17.3425 183.524 17.7435 183.709 18.2307C183.895 18.7146 183.988 19.2913 183.988 19.9608V20.5127H177.729V19.2996H182.263C182.259 18.9549 182.185 18.6483 182.039 18.3799C181.893 18.1081 181.689 17.8943 181.427 17.7385C181.169 17.5827 180.867 17.5049 180.523 17.5049C180.155 17.5049 179.831 17.5943 179.553 17.7733C179.275 17.949 179.058 18.181 178.902 18.4693C178.749 18.7544 178.671 19.0676 178.668 19.409V20.4679C178.668 20.9121 178.749 21.2932 178.912 21.6114C179.074 21.9263 179.301 22.1682 179.593 22.3372C179.885 22.503 180.226 22.5858 180.617 22.5858C180.879 22.5858 181.116 22.5494 181.328 22.4764C181.54 22.4002 181.724 22.2892 181.88 22.1434C182.036 21.9975 182.153 21.8169 182.233 21.6014L183.913 21.7904C183.807 22.2345 183.605 22.6223 183.307 22.9537C183.012 23.2818 182.634 23.5371 182.173 23.7193C181.712 23.8983 181.185 23.9878 180.592 23.9878Z" fill="white"/>
<path d="M187.31 19.3642V23.8387H185.51V16.2023H187.23V17.4999H187.32C187.496 17.0723 187.776 16.7326 188.16 16.4807C188.548 16.2288 189.027 16.1029 189.597 16.1029C190.124 16.1029 190.583 16.2156 190.974 16.4409C191.368 16.6663 191.673 16.9928 191.889 17.4203C192.108 17.8479 192.215 18.3666 192.212 18.9764V23.8387H190.412V19.2549C190.412 18.7444 190.28 18.3451 190.015 18.0567C189.753 17.7684 189.39 17.6242 188.926 17.6242C188.611 17.6242 188.331 17.6938 188.086 17.833C187.844 17.9689 187.653 18.1661 187.514 18.4246C187.378 18.6831 187.31 18.9963 187.31 19.3642Z" fill="white"/>
<path d="M197.373 23.9878C196.61 23.9878 195.956 23.8204 195.409 23.4857C194.865 23.1509 194.446 22.6886 194.151 22.0986C193.859 21.5053 193.713 20.8226 193.713 20.0503C193.713 19.2747 193.863 18.5903 194.161 17.997C194.459 17.4005 194.88 16.9364 195.424 16.605C195.971 16.2702 196.617 16.1029 197.363 16.1029C197.982 16.1029 198.531 16.2172 199.008 16.4459C199.489 16.6713 199.872 16.9911 200.157 17.4054C200.442 17.8164 200.604 18.297 200.644 18.8472H198.924C198.854 18.4793 198.688 18.1727 198.426 17.9274C198.168 17.6789 197.822 17.5546 197.387 17.5546C197.02 17.5546 196.696 17.654 196.418 17.8529C196.14 18.0484 195.922 18.3301 195.767 18.698C195.614 19.0659 195.538 19.5068 195.538 20.0205C195.538 20.5408 195.614 20.9883 195.767 21.3628C195.919 21.734 196.133 22.0207 196.408 22.2229C196.686 22.4218 197.013 22.5212 197.387 22.5212C197.653 22.5212 197.89 22.4715 198.098 22.372C198.31 22.2693 198.488 22.1218 198.63 21.9296C198.773 21.7373 198.871 21.5037 198.924 21.2286H200.644C200.601 21.7688 200.442 22.2478 200.167 22.6654C199.891 23.0797 199.517 23.4045 199.043 23.6398C198.569 23.8718 198.012 23.9878 197.373 23.9878Z" fill="white"/>
<path d="M205.502 23.9878C204.737 23.9878 204.075 23.8287 203.519 23.5105C202.965 23.189 202.539 22.735 202.241 22.1483C201.943 21.5584 201.794 20.864 201.794 20.0652C201.794 19.2797 201.943 18.5903 202.241 17.997C202.543 17.4005 202.963 16.9364 203.504 16.605C204.044 16.2702 204.679 16.1029 205.408 16.1029C205.878 16.1029 206.323 16.1791 206.74 16.3316C207.161 16.4807 207.532 16.7127 207.854 17.0276C208.179 17.3425 208.434 17.7435 208.62 18.2307C208.805 18.7146 208.898 19.2913 208.898 19.9608V20.5127H202.639V19.2996H207.173C207.169 18.9549 207.095 18.6483 206.949 18.3799C206.803 18.1081 206.599 17.8943 206.338 17.7385C206.079 17.5827 205.777 17.5049 205.433 17.5049C205.065 17.5049 204.742 17.5943 204.463 17.7733C204.185 17.949 203.968 18.181 203.812 18.4693C203.66 18.7544 203.582 19.0676 203.578 19.409V20.4679C203.578 20.9121 203.66 21.2932 203.822 21.6114C203.984 21.9263 204.211 22.1682 204.503 22.3372C204.795 22.503 205.136 22.5858 205.527 22.5858C205.789 22.5858 206.026 22.5494 206.238 22.4764C206.45 22.4002 206.634 22.2892 206.79 22.1434C206.946 21.9975 207.063 21.8169 207.143 21.6014L208.823 21.7904C208.717 22.2345 208.515 22.6223 208.217 22.9537C207.922 23.2818 207.544 23.5371 207.083 23.7193C206.623 23.8983 206.096 23.9878 205.502 23.9878Z" fill="white"/>
<path d="M53 28.6568H55.2571L58.2798 36.0347H58.3991L61.4219 28.6568H63.679V38.8387H61.9091V31.8436H61.8146L59.0007 38.8088H57.6783L54.8643 31.8287H54.7699V38.8387H53V28.6568Z" fill="white"/>
<path d="M67.8054 38.9928C67.3215 38.9928 66.8857 38.9066 66.4979 38.7343C66.1134 38.5586 65.8085 38.3001 65.5831 37.9587C65.361 37.6173 65.25 37.1964 65.25 36.6959C65.25 36.265 65.3295 35.9087 65.4886 35.627C65.6477 35.3453 65.8648 35.1199 66.1399 34.9509C66.415 34.7818 66.7249 34.6542 67.0696 34.5681C67.4176 34.4786 67.7772 34.4139 68.1484 34.3742C68.5959 34.3278 68.9588 34.2863 69.2372 34.2499C69.5156 34.2101 69.7178 34.1505 69.8438 34.0709C69.973 33.988 70.0376 33.8604 70.0376 33.6881V33.6583C70.0376 33.2837 69.9266 32.9937 69.7045 32.7882C69.4825 32.5827 69.1626 32.48 68.745 32.48C68.3042 32.48 67.9545 32.5761 67.696 32.7684C67.4408 32.9606 67.2685 33.1876 67.179 33.4495L65.4986 33.2108C65.6312 32.7468 65.8499 32.359 66.1548 32.0475C66.4598 31.7326 66.8326 31.4973 67.2734 31.3415C67.7143 31.1824 68.2015 31.1029 68.7351 31.1029C69.103 31.1029 69.4692 31.146 69.8338 31.2321C70.1984 31.3183 70.5315 31.4608 70.8331 31.6597C71.1347 31.8552 71.3767 32.122 71.559 32.4601C71.7446 32.7982 71.8374 33.2208 71.8374 33.7279V38.8387H70.1072V37.7897H70.0476C69.9382 38.0018 69.7841 38.2006 69.5852 38.3862C69.3897 38.5685 69.1428 38.716 68.8445 38.8287C68.5495 38.9381 68.2031 38.9928 67.8054 38.9928ZM68.2727 37.6703C68.634 37.6703 68.9472 37.5991 69.2124 37.4566C69.4775 37.3107 69.6813 37.1185 69.8239 36.8799C69.9697 36.6412 70.0426 36.381 70.0426 36.0993V35.1995C69.9863 35.2459 69.8902 35.2889 69.7543 35.3287C69.6217 35.3685 69.4725 35.4033 69.3068 35.4331C69.1411 35.463 68.977 35.4895 68.8146 35.5127C68.6522 35.5359 68.5114 35.5558 68.392 35.5723C68.1236 35.6088 67.8833 35.6684 67.6712 35.7513C67.459 35.8342 67.2917 35.9502 67.169 36.0993C67.0464 36.2451 66.9851 36.4341 66.9851 36.6661C66.9851 36.9975 67.1061 37.2478 67.348 37.4168C67.59 37.5858 67.8982 37.6703 68.2727 37.6703Z" fill="white"/>
<path d="M77.4602 31.2023V32.5943H73.0703V31.2023H77.4602ZM74.1541 29.3728H75.9538V36.5418C75.9538 36.7837 75.9903 36.9693 76.0632 37.0986C76.1394 37.2246 76.2389 37.3107 76.3615 37.3571C76.4841 37.4035 76.62 37.4267 76.7692 37.4267C76.8819 37.4267 76.9846 37.4184 77.0774 37.4019C77.1735 37.3853 77.2464 37.3704 77.2962 37.3571L77.5994 38.7641C77.5033 38.7972 77.3658 38.8337 77.1868 38.8735C77.0111 38.9132 76.7957 38.9364 76.5405 38.9431C76.0897 38.9563 75.6837 38.8884 75.3224 38.7392C74.9612 38.5868 74.6745 38.3514 74.4624 38.0333C74.2536 37.7151 74.1508 37.3174 74.1541 36.8401V29.3728Z" fill="white"/>
<path d="M83.8326 35.627V31.2023H85.6323V38.8387H83.8873V37.4814H83.8077C83.6354 37.909 83.352 38.2586 82.9576 38.5304C82.5665 38.8022 82.0842 38.9381 81.5108 38.9381C81.0104 38.9381 80.5679 38.8271 80.1834 38.605C79.8023 38.3796 79.504 38.0532 79.2885 37.6256C79.0731 37.1947 78.9654 36.6744 78.9654 36.0645V31.2023H80.7651V35.7861C80.7651 36.27 80.8977 36.6545 81.1628 36.9395C81.428 37.2246 81.776 37.3671 82.2069 37.3671C82.472 37.3671 82.7289 37.3024 82.9775 37.1732C83.226 37.0439 83.4299 36.8517 83.589 36.5965C83.7514 36.338 83.8326 36.0148 83.8326 35.627Z" fill="white"/>
<path d="M87.483 38.8387V31.2023H89.228V32.475H89.3075C89.4467 32.0342 89.6854 31.6945 90.0234 31.4559C90.3648 31.2139 90.7543 31.0929 91.1918 31.0929C91.2912 31.0929 91.4022 31.0979 91.5249 31.1078C91.6508 31.1145 91.7552 31.1261 91.8381 31.1426V32.7982C91.7618 32.7717 91.6409 32.7485 91.4751 32.7286C91.3127 32.7054 91.1553 32.6938 91.0028 32.6938C90.6747 32.6938 90.3797 32.765 90.1179 32.9076C89.8594 33.0468 89.6555 33.2407 89.5064 33.4892C89.3572 33.7378 89.2827 34.0245 89.2827 34.3493V38.8387H87.483Z" fill="white"/>
<path d="M93.0337 38.8387V31.2023H94.8335V38.8387H93.0337ZM93.9386 30.1185C93.6535 30.1185 93.4083 30.024 93.2028 29.8351C92.9973 29.6429 92.8945 29.4125 92.8945 29.1441C92.8945 28.8723 92.9973 28.6419 93.2028 28.453C93.4083 28.2608 93.6535 28.1647 93.9386 28.1647C94.2269 28.1647 94.4722 28.2608 94.6744 28.453C94.8799 28.6419 94.9826 28.8723 94.9826 29.1441C94.9826 29.4125 94.8799 29.6429 94.6744 29.8351C94.4722 30.024 94.2269 30.1185 93.9386 30.1185Z" fill="white"/>
<path d="M100.497 31.2023V32.5943H96.1074V31.2023H100.497ZM97.1912 29.3728H98.9909V36.5418C98.9909 36.7837 99.0274 36.9693 99.1003 37.0986C99.1765 37.2246 99.276 37.3107 99.3986 37.3571C99.5212 37.4035 99.6571 37.4267 99.8063 37.4267C99.919 37.4267 100.022 37.4184 100.115 37.4019C100.211 37.3853 100.284 37.3704 100.333 37.3571L100.637 38.7641C100.54 38.7972 100.403 38.8337 100.224 38.8735C100.048 38.9132 99.8328 38.9364 99.5776 38.9431C99.1268 38.9563 98.7208 38.8884 98.3596 38.7392C97.9983 38.5868 97.7116 38.3514 97.4995 38.0333C97.2907 37.7151 97.1879 37.3174 97.1912 36.8401V29.3728Z" fill="white"/>
<path d="M103.121 41.7023C102.876 41.7023 102.649 41.6824 102.44 41.6426C102.234 41.6062 102.07 41.5631 101.948 41.5134L102.365 40.1114C102.627 40.1876 102.861 40.2241 103.066 40.2208C103.272 40.2175 103.453 40.1528 103.608 40.0269C103.767 39.9042 103.902 39.6987 104.011 39.4104L104.165 38.9978L101.396 31.2023H103.305L105.065 36.9693H105.145L106.909 31.2023H108.824L105.766 39.7634C105.623 40.1677 105.435 40.5141 105.199 40.8024C104.964 41.0941 104.676 41.3162 104.334 41.4686C103.996 41.6244 103.592 41.7023 103.121 41.7023Z" fill="white"/>
<path d="M114.929 38.8387H112.96L116.544 28.6568H118.821L122.411 38.8387H120.442L117.723 30.7449H117.643L114.929 38.8387ZM114.993 34.8465H120.363V36.328H114.993V34.8465Z" fill="white"/>
<path d="M129.585 33.2208L127.944 33.3997C127.898 33.234 127.817 33.0782 127.701 32.9324C127.588 32.7866 127.435 32.6689 127.243 32.5794C127.051 32.4899 126.816 32.4452 126.537 32.4452C126.163 32.4452 125.848 32.5264 125.593 32.6888C125.341 32.8512 125.216 33.0617 125.22 33.3202C125.216 33.5423 125.298 33.7229 125.463 33.8621C125.632 34.0013 125.911 34.1157 126.299 34.2051L127.601 34.4835C128.324 34.6393 128.861 34.8862 129.212 35.2243C129.567 35.5624 129.746 36.0049 129.749 36.5517C129.746 37.0323 129.605 37.4566 129.326 37.8245C129.051 38.189 128.668 38.4741 128.178 38.6796C127.687 38.8851 127.124 38.9878 126.488 38.9878C125.553 38.9878 124.801 38.7923 124.23 38.4012C123.66 38.0068 123.321 37.4582 123.211 36.7556L124.966 36.5865C125.046 36.9312 125.215 37.1914 125.473 37.3671C125.732 37.5427 126.068 37.6306 126.483 37.6306C126.91 37.6306 127.253 37.5427 127.512 37.3671C127.774 37.1914 127.904 36.9743 127.904 36.7158C127.904 36.497 127.82 36.3164 127.651 36.1739C127.485 36.0314 127.227 35.922 126.875 35.8458L125.573 35.5723C124.84 35.4199 124.298 35.163 123.947 34.8017C123.596 34.4371 123.422 33.9764 123.425 33.4196C123.422 32.949 123.549 32.5413 123.808 32.1966C124.07 31.8486 124.433 31.5801 124.897 31.3912C125.364 31.199 125.903 31.1029 126.512 31.1029C127.407 31.1029 128.112 31.2934 128.625 31.6746C129.142 32.0558 129.462 32.5711 129.585 33.2208Z" fill="white"/>
<path d="M137.268 33.2208L135.628 33.3997C135.581 33.234 135.5 33.0782 135.384 32.9324C135.272 32.7866 135.119 32.6689 134.927 32.5794C134.735 32.4899 134.499 32.4452 134.221 32.4452C133.846 32.4452 133.531 32.5264 133.276 32.6888C133.024 32.8512 132.9 33.0617 132.903 33.3202C132.9 33.5423 132.981 33.7229 133.147 33.8621C133.316 34.0013 133.594 34.1157 133.982 34.2051L135.285 34.4835C136.007 34.6393 136.544 34.8862 136.896 35.2243C137.25 35.5624 137.429 36.0049 137.433 36.5517C137.429 37.0323 137.288 37.4566 137.01 37.8245C136.735 38.189 136.352 38.4741 135.862 38.6796C135.371 38.8851 134.808 38.9878 134.171 38.9878C133.236 38.9878 132.484 38.7923 131.914 38.4012C131.344 38.0068 131.004 37.4582 130.895 36.7556L132.65 36.5865C132.729 36.9312 132.898 37.1914 133.157 37.3671C133.415 37.5427 133.752 37.6306 134.166 37.6306C134.594 37.6306 134.937 37.5427 135.195 37.3671C135.457 37.1914 135.588 36.9743 135.588 36.7158C135.588 36.497 135.504 36.3164 135.335 36.1739C135.169 36.0314 134.91 35.922 134.559 35.8458L133.256 35.5723C132.524 35.4199 131.982 35.163 131.631 34.8017C131.279 34.4371 131.105 33.9764 131.109 33.4196C131.105 32.949 131.233 32.5413 131.491 32.1966C131.753 31.8486 132.116 31.5801 132.58 31.3912C133.048 31.199 133.586 31.1029 134.196 31.1029C135.091 31.1029 135.795 31.2934 136.309 31.6746C136.826 32.0558 137.146 32.5711 137.268 33.2208Z" fill="white"/>
<path d="M142.297 38.9878C141.532 38.9878 140.87 38.8287 140.314 38.5105C139.76 38.189 139.334 37.735 139.036 37.1483C138.738 36.5584 138.588 35.864 138.588 35.0652C138.588 34.2797 138.738 33.5903 139.036 32.997C139.337 32.4005 139.758 31.9364 140.299 31.605C140.839 31.2702 141.474 31.1029 142.203 31.1029C142.673 31.1029 143.118 31.1791 143.535 31.3316C143.956 31.4807 144.327 31.7127 144.649 32.0276C144.974 32.3425 145.229 32.7435 145.414 33.2307C145.6 33.7146 145.693 34.2913 145.693 34.9608V35.5127H139.434V34.2996H143.968C143.964 33.9549 143.89 33.6483 143.744 33.3799C143.598 33.1081 143.394 32.8943 143.132 32.7385C142.874 32.5827 142.572 32.5049 142.228 32.5049C141.86 32.5049 141.537 32.5943 141.258 32.7733C140.98 32.949 140.763 33.181 140.607 33.4693C140.454 33.7544 140.377 34.0676 140.373 34.409V35.4679C140.373 35.9121 140.454 36.2932 140.617 36.6114C140.779 36.9263 141.006 37.1682 141.298 37.3372C141.59 37.503 141.931 37.5858 142.322 37.5858C142.584 37.5858 142.821 37.5494 143.033 37.4764C143.245 37.4002 143.429 37.2892 143.585 37.1434C143.741 36.9975 143.858 36.8169 143.938 36.6014L145.618 36.7904C145.512 37.2345 145.31 37.6223 145.012 37.9537C144.717 38.2818 144.339 38.5371 143.878 38.7193C143.417 38.8983 142.891 38.9878 142.297 38.9878Z" fill="white"/>
<path d="M153.251 33.2208L151.61 33.3997C151.564 33.234 151.483 33.0782 151.367 32.9324C151.254 32.7866 151.101 32.6689 150.909 32.5794C150.717 32.4899 150.482 32.4452 150.203 32.4452C149.829 32.4452 149.514 32.5264 149.259 32.6888C149.007 32.8512 148.883 33.0617 148.886 33.3202C148.883 33.5423 148.964 33.7229 149.129 33.8621C149.298 34.0013 149.577 34.1157 149.965 34.2051L151.267 34.4835C151.99 34.6393 152.527 34.8862 152.878 35.2243C153.233 35.5624 153.412 36.0049 153.415 36.5517C153.412 37.0323 153.271 37.4566 152.992 37.8245C152.717 38.189 152.334 38.4741 151.844 38.6796C151.353 38.8851 150.79 38.9878 150.154 38.9878C149.219 38.9878 148.467 38.7923 147.896 38.4012C147.326 38.0068 146.987 37.4582 146.877 36.7556L148.632 36.5865C148.712 36.9312 148.881 37.1914 149.139 37.3671C149.398 37.5427 149.734 37.6306 150.149 37.6306C150.576 37.6306 150.919 37.5427 151.178 37.3671C151.44 37.1914 151.57 36.9743 151.57 36.7158C151.57 36.497 151.486 36.3164 151.317 36.1739C151.151 36.0314 150.893 35.922 150.541 35.8458L149.239 35.5723C148.506 35.4199 147.964 35.163 147.613 34.8017C147.262 34.4371 147.088 33.9764 147.091 33.4196C147.088 32.949 147.215 32.5413 147.474 32.1966C147.736 31.8486 148.099 31.5801 148.563 31.3912C149.03 31.199 149.569 31.1029 150.178 31.1029C151.073 31.1029 151.778 31.2934 152.291 31.6746C152.808 32.0558 153.128 32.5711 153.251 33.2208Z" fill="white"/>
<path d="M160.934 33.2208L159.294 33.3997C159.247 33.234 159.166 33.0782 159.05 32.9324C158.938 32.7866 158.785 32.6689 158.593 32.5794C158.401 32.4899 158.165 32.4452 157.887 32.4452C157.512 32.4452 157.197 32.5264 156.942 32.6888C156.69 32.8512 156.566 33.0617 156.569 33.3202C156.566 33.5423 156.647 33.7229 156.813 33.8621C156.982 34.0013 157.26 34.1157 157.648 34.2051L158.951 34.4835C159.673 34.6393 160.21 34.8862 160.562 35.2243C160.916 35.5624 161.095 36.0049 161.099 36.5517C161.095 37.0323 160.954 37.4566 160.676 37.8245C160.401 38.189 160.018 38.4741 159.528 38.6796C159.037 38.8851 158.474 38.9878 157.837 38.9878C156.903 38.9878 156.15 38.7923 155.58 38.4012C155.01 38.0068 154.67 37.4582 154.561 36.7556L156.316 36.5865C156.395 36.9312 156.564 37.1914 156.823 37.3671C157.081 37.5427 157.418 37.6306 157.832 37.6306C158.26 37.6306 158.603 37.5427 158.861 37.3671C159.123 37.1914 159.254 36.9743 159.254 36.7158C159.254 36.497 159.17 36.3164 159.001 36.1739C158.835 36.0314 158.576 35.922 158.225 35.8458L156.922 35.5723C156.19 35.4199 155.648 35.163 155.297 34.8017C154.945 34.4371 154.771 33.9764 154.775 33.4196C154.771 32.949 154.899 32.5413 155.157 32.1966C155.419 31.8486 155.782 31.5801 156.246 31.3912C156.714 31.199 157.252 31.1029 157.862 31.1029C158.757 31.1029 159.461 31.2934 159.975 31.6746C160.492 32.0558 160.812 32.5711 160.934 33.2208Z" fill="white"/>
<path d="M162.583 38.8387V31.2023H164.303V32.4999H164.392C164.551 32.0624 164.815 31.721 165.183 31.4757C165.551 31.2272 165.99 31.1029 166.5 31.1029C167.017 31.1029 167.453 31.2288 167.808 31.4807C168.166 31.7293 168.418 32.069 168.563 32.4999H168.643C168.812 32.0756 169.097 31.7376 169.498 31.4857C169.902 31.2305 170.381 31.1029 170.935 31.1029C171.637 31.1029 172.211 31.3249 172.655 31.7691C173.099 32.2132 173.321 32.8612 173.321 33.713V38.8387H171.517V33.9914C171.517 33.5174 171.391 33.171 171.139 32.9523C170.887 32.7302 170.579 32.6192 170.214 32.6192C169.78 32.6192 169.44 32.7551 169.195 33.0269C168.953 33.2953 168.832 33.645 168.832 34.0759V38.8387H167.067V33.9168C167.067 33.5224 166.948 33.2075 166.709 32.9722C166.474 32.7369 166.165 32.6192 165.784 32.6192C165.526 32.6192 165.29 32.6855 165.078 32.8181C164.866 32.9473 164.697 33.1313 164.571 33.3699C164.445 33.6052 164.382 33.8803 164.382 34.1952V38.8387H162.583Z" fill="white"/>
<path d="M178.528 38.9878C177.762 38.9878 177.101 38.8287 176.544 38.5105C175.991 38.189 175.565 37.735 175.266 37.1483C174.968 36.5584 174.819 35.864 174.819 35.0652C174.819 34.2797 174.968 33.5903 175.266 32.997C175.568 32.4005 175.989 31.9364 176.529 31.605C177.069 31.2702 177.704 31.1029 178.433 31.1029C178.904 31.1029 179.348 31.1791 179.766 31.3316C180.187 31.4807 180.558 31.7127 180.879 32.0276C181.204 32.3425 181.459 32.7435 181.645 33.2307C181.831 33.7146 181.923 34.2913 181.923 34.9608V35.5127H175.664V34.2996H180.198C180.195 33.9549 180.12 33.6483 179.974 33.3799C179.829 33.1081 179.625 32.8943 179.363 32.7385C179.104 32.5827 178.803 32.5049 178.458 32.5049C178.09 32.5049 177.767 32.5943 177.489 32.7733C177.21 32.949 176.993 33.181 176.837 33.4693C176.685 33.7544 176.607 34.0676 176.604 34.409V35.4679C176.604 35.9121 176.685 36.2932 176.847 36.6114C177.01 36.9263 177.237 37.1682 177.528 37.3372C177.82 37.503 178.161 37.5858 178.553 37.5858C178.814 37.5858 179.051 37.5494 179.263 37.4764C179.476 37.4002 179.66 37.2892 179.815 37.1434C179.971 36.9975 180.089 36.8169 180.168 36.6014L181.849 36.7904C181.743 37.2345 181.54 37.6223 181.242 37.9537C180.947 38.2818 180.569 38.5371 180.109 38.7193C179.648 38.8983 179.121 38.9878 178.528 38.9878Z" fill="white"/>
<path d="M185.246 34.3642V38.8387H183.446V31.2023H185.166V32.4999H185.256C185.431 32.0723 185.711 31.7326 186.096 31.4807C186.483 31.2288 186.962 31.1029 187.533 31.1029C188.059 31.1029 188.519 31.2156 188.91 31.4409C189.304 31.6663 189.609 31.9928 189.824 32.4203C190.043 32.8479 190.151 33.3666 190.148 33.9764V38.8387H188.348V34.2549C188.348 33.7444 188.215 33.3451 187.95 33.0567C187.688 32.7683 187.325 32.6242 186.861 32.6242C186.546 32.6242 186.266 32.6938 186.021 32.833C185.779 32.9689 185.589 33.1661 185.449 33.4246C185.314 33.6831 185.246 33.9963 185.246 34.3642Z" fill="white"/>
<path d="M195.79 31.2023V32.5943H191.4V31.2023H195.79ZM192.484 29.3728H194.284V36.5418C194.284 36.7837 194.32 36.9693 194.393 37.0986C194.47 37.2246 194.569 37.3107 194.692 37.3571C194.814 37.4035 194.95 37.4267 195.099 37.4267C195.212 37.4267 195.315 37.4184 195.408 37.4019C195.504 37.3853 195.577 37.3704 195.626 37.3571L195.93 38.7641C195.833 38.7972 195.696 38.8337 195.517 38.8735C195.341 38.9132 195.126 38.9364 194.871 38.9431C194.42 38.9563 194.014 38.8884 193.653 38.7392C193.291 38.5868 193.005 38.3514 192.792 38.0333C192.584 37.7151 192.481 37.3174 192.484 36.8401V29.3728Z" fill="white"/>
<defs>
<linearGradient id="paint0_linear_2343_200235" x1="14.576" y1="29.6921" x2="29.8259" y2="53.1749" gradientUnits="userSpaceOnUse">
<stop stop-color="#9250FF"/>
<stop offset="1" stop-color="#5B46F6"/>
</linearGradient>
</defs>
</svg>
