<svg viewBox="0 0 24 24" xmlns="http://www.w3.org/2000/svg"><mask id="a" style="mask-type:luminance" maskUnits="userSpaceOnUse" x="9" y="8" width="7" height="8"><path d="M9.724 8.238h.986v2.907l2.837-2.907h1.301l-3.113 3.203 3.31 3.695h-1.261l-3.074-3.449v3.449h-.986V8.238Z" fill="#fff"/></mask><g mask="url(#a)"><path d="M9.724 8.238h.986v2.907l2.837-2.907h1.301l-3.113 3.203 3.31 3.695h-1.261l-3.074-3.449v3.449h-.986V8.238Z" fill="#fff"/></g><mask id="b" style="mask-type:luminance" maskUnits="userSpaceOnUse" x="12" y="0" width="11" height="17"><path d="m12.811 5.501 4.853 2.802a.268.268 0 0 1 .134.232v5.604c0 .095.051.184.134.231l4.33 2.5a.268.268 0 0 0 .402-.231V5.725a.268.268 0 0 0-.134-.232L13.08.036a.268.268 0 0 0-.402.232V5.27c0 .096.051.184.134.232Z" fill="#fff"/></mask><g mask="url(#b)"><path d="m12.811 5.501 4.853 2.802a.268.268 0 0 1 .134.232v5.604c0 .095.051.184.134.231l4.33 2.5a.268.268 0 0 0 .402-.231V5.725a.268.268 0 0 0-.134-.232L13.08.036a.268.268 0 0 0-.402.232V5.27c0 .096.051.184.134.232Z" fill="#fff"/></g><mask id="c" style="mask-type:luminance" maskUnits="userSpaceOnUse" x="1" y="0" width="21" height="24"><path d="m16.987 15.543-4.853 2.802a.267.267 0 0 1-.268 0l-5.53-3.193a.269.269 0 0 1-.134-.232V8.534c0-.095.051-.183.134-.231L11.189 5.5a.268.268 0 0 0 .134-.232v-5a.268.268 0 0 0-.402-.233L1.47 5.493a.268.268 0 0 0-.134.232V17.73c0 .095.05.184.134.232l10.396 6.002a.267.267 0 0 0 .268 0l9.451-5.457a.268.268 0 0 0 0-.463l-4.33-2.5a.267.267 0 0 0-.268 0Z" fill="#fff"/></mask><g mask="url(#c)"><path d="m16.987 15.543-4.853 2.802a.267.267 0 0 1-.268 0l-5.53-3.193a.269.269 0 0 1-.134-.232V8.534c0-.095.051-.183.134-.231L11.189 5.5a.268.268 0 0 0 .134-.232v-5a.268.268 0 0 0-.402-.233L1.47 5.493a.268.268 0 0 0-.134.232V17.73c0 .095.05.184.134.232l10.396 6.002a.267.267 0 0 0 .268 0l9.451-5.457a.268.268 0 0 0 0-.463l-4.33-2.5a.267.267 0 0 0-.268 0Z" fill="url(#d)"/></g><defs><linearGradient id="d" x1="18.312" y1="20.256" x2=".021" y2="-7.181" gradientUnits="userSpaceOnUse"><stop offset=".056" stop-color="#F3F3FA"/><stop offset="1" stop-color="#D9DAE5"/></linearGradient></defs></svg>