<svg viewBox="0 0 32 33" fill="currentColor" xmlns="http://www.w3.org/2000/svg"><path fill-rule="evenodd" clip-rule="evenodd" d="M27.18 8.455c.33.093.608.367.667.762a6.403 6.403 0 1 1-5.389-5.389c.395.06.67.338.762.668a.981.981 0 0 1-.256.956L19.936 8.48l3.26 3.26 3.028-3.028a.977.977 0 0 1 .955-.257Zm-.307 1.022-2.97 2.97a1 1 0 0 1-1.415 0l-3.26-3.26a1 1 0 0 1 0-1.415l2.97-2.97a5.403 5.403 0 1 0 4.674 4.674Z"/><path fill-rule="evenodd" clip-rule="evenodd" d="m6.969 20.032 8.457-8.458.708.707-8.458 8.458c-.21.21-.405.399-.589.576-.247.24-.474.458-.686.68-.36.378-.604.691-.733.986a1.1 1.1 0 0 0-.038.844c.113.334.383.754.925 1.295.541.542.961.813 1.295.925a1.1 1.1 0 0 0 .845-.038c.294-.129.607-.372.985-.733.222-.212.44-.438.68-.686.178-.184.366-.379.576-.589l8.458-8.457.707.707-8.458 8.457c-.18.181-.362.368-.539.551-.256.265-.505.522-.734.74-.397.38-.814.725-1.275.926a2.097 2.097 0 0 1-1.564.07c-.541-.183-1.09-.573-1.683-1.165-.593-.593-.983-1.143-1.165-1.684a2.097 2.097 0 0 1 .069-1.564c.201-.46.547-.878.926-1.275.219-.23.475-.478.74-.734.183-.177.37-.358.55-.54Zm24.077 6.801a5.203 5.203 0 0 1-7.844 4.483l2.196-2.196a.637.637 0 1 0-.9-.901l-2.314 2.313a5.225 5.225 0 0 1-.76-.952l3.458-3.458a.637.637 0 0 0-.901-.9l-3.119 3.118a5.203 5.203 0 1 1 10.184-1.507ZM20.862 28.34l-2.63 2.63a.637.637 0 1 0 .901.9l2.291-2.29a5.181 5.181 0 0 1-.562-1.24Zm1.322 2.192-.695.695a.637.637 0 0 0 .901.9l.812-.81a5.23 5.23 0 0 1-1.018-.785Z"/></svg>