<svg viewBox="0 0 32 32" fill="none" xmlns="http://www.w3.org/2000/svg"><path d="m17.293 12.733 4.41 3.35m0 0-4.41 3.359m4.41-3.359H3.747" stroke="#0278D5" stroke-linecap="round" stroke-linejoin="round"/><path d="M28.252 19.384 25.957 9.33a1 1 0 0 0-.54-.678l-8.86-4.266a1 1 0 0 0-.867 0L6.83 8.65a1 1 0 0 0-.54.678l-.344 1.504-.225.987m12.663 16.004h-7.177a1 1 0 0 1-.782-.376L7.36 23.604l-1.683-2.11-.841-1.055-.421-.527" stroke="#0278D5" stroke-linecap="round"/><path fill-rule="evenodd" clip-rule="evenodd" d="M31.486 26.411a5.203 5.203 0 0 1-7.844 4.484l2.197-2.197a.637.637 0 1 0-.901-.9l-2.313 2.312a5.226 5.226 0 0 1-.76-.951l3.457-3.458a.637.637 0 0 0-.9-.901l-3.12 3.119a5.203 5.203 0 1 1 10.184-1.507ZM21.303 27.92l-2.63 2.63a.637.637 0 0 0 .9.9l2.291-2.29a5.178 5.178 0 0 1-.561-1.24Zm1.322 2.191-.695.695a.637.637 0 0 0 .9.901l.812-.811a5.226 5.226 0 0 1-1.017-.785Z" fill="#8D52FF"/></svg>