<svg xmlns="http://www.w3.org/2000/svg" fill="none" viewBox="0 0 24 24"><path fill="#99bce3" fill-rule="evenodd" d="M22.432 16.152 12 14.919 1.567 16.152 12 23.898z" clip-rule="evenodd"/><path fill="#19486f" fill-rule="evenodd" d="M22.5 7.75 11.933 8.975 1.5 7.746 12 0z" clip-rule="evenodd"/><path fill="#205b99" fill-rule="evenodd" d="M12 0 1.5 4.945V7.75L12 4.779zm0 19.117L1.5 16.151v2.8L12 23.896zm0-3.555-4.551-.632V9.017L12 8.393l4.287 3.584z" clip-rule="evenodd"/><path fill="#5294cf" fill-rule="evenodd" d="m12 0 10.5 4.945V7.75L12 4.779zm0 19.117 10.5-2.966v2.8L12 23.896zm0-3.555 4.551-.632V9.017L12 8.393z" clip-rule="evenodd"/></svg>