<svg fill="none" viewBox="0 0 32 32" xmlns="http://www.w3.org/2000/svg"><path d="m10.427 26.742a.5.5 0 0 0 -.11.994zm10.478-6.527-.475-.158zm-7.022-4.917.354.353.163-.164-.019-.23-.498.04zm-10.891 10.202a.5.5 0 0 0 .708.707zm18.6-10.202-.31-.392-.182.144-.008.23zm1.654-1.31.31.391a.5.5 0 0 0 -.006-.788l-.305.396zm-1.87-1.436-.486.114.04.174.142.109.305-.397zm-11.06 15.184c3.317.369 5.86-.766 7.68-2.349 1.808-1.572 2.907-3.584 3.383-5.014l-.949-.316c-.43 1.288-1.438 3.14-3.09 4.576-1.639 1.425-3.91 2.443-6.913 2.11l-.11.993zm3.213-12.791-10.537 10.555.708.707 10.537-10.557-.708-.706zm7.85 5.428c.534-1.601.674-3.928.713-5.058l-1-.034c-.039 1.137-.18 3.329-.662 4.776zm.523-4.683 1.654-1.31-.621-.785-1.654 1.311.622.784zm-.038-3.251c-.702-3.007-2.95-4.495-5.085-3.972-2.128.522-3.722 2.937-3.395 6.872l.997-.083c-.307-3.685 1.188-5.462 2.636-5.817 1.442-.354 3.259.595 3.873 3.227zm1.686 1.152-1.869-1.435-.609.793 1.869 1.435.61-.793z" fill="#fcb519"/><path d="m3.536 18.174a12.706 12.706 0 0 1 -.18-2.535c.198-6.98 6.016-12.477 12.994-12.279 6.978.2 12.478 6.361 12.278 13.341a12.46 12.46 0 0 1 -.329 2.522m-18.106 8.017a12.585 12.585 0 0 0 5.436 1.4c.834.024 1.653-.03 2.447-.153" stroke="#fcb519" stroke-linecap="round" stroke-linejoin="round"/><path d="m21.399 22.959a.5.5 0 0 0 .707-.707zm-15.232-15.232 15.232 15.233.707-.707-15.232-15.233z" fill="#fcb519"/><path clip-rule="evenodd" d="m31.946 26.386a5.203 5.203 0 0 1 -7.844 4.484l2.197-2.197a.637.637 0 1 0 -.901-.9l-2.313 2.312a5.225 5.225 0 0 1 -.76-.951l3.457-3.458a.637.637 0 0 0 -.9-.901l-3.12 3.119a5.203 5.203 0 1 1 10.184-1.508zm-10.184 1.508-2.63 2.63a.637.637 0 0 0 .902.9l2.29-2.29a5.178 5.178 0 0 1 -.562-1.24zm1.323 2.191-.695.695a.637.637 0 0 0 .9.901l.812-.811a5.226 5.226 0 0 1 -1.017-.785z" fill="#8d52ff" fill-rule="evenodd"/></svg>