<svg viewBox="0 0 32 32" fill="currentColor" xmlns="http://www.w3.org/2000/svg"><path fill-rule="evenodd" clip-rule="evenodd" d="M22.96 4.058a.5.5 0 0 1 .699-.104l4.668 3.466a.5.5 0 0 1 0 .802l-4.668 3.475a.5.5 0 0 1-.597-.802l3.458-2.574H9.09a.505.505 0 0 1-.067.005c-2.494 0-4.496 1.973-4.496 4.382v2.208a.5.5 0 0 1-1 0v-2.208c0-2.96 2.433-5.345 5.426-5.382a.504.504 0 0 1 .07-.005h17.493l-3.453-2.564a.5.5 0 0 1-.104-.7ZM9.095 25.738a.5.5 0 0 1-.7.103l-4.667-3.466a.5.5 0 0 1 0-.802l4.667-3.475a.5.5 0 1 1 .597.802l-3.457 2.574H21.6a.5.5 0 0 1 0 1H5.539l3.453 2.564a.5.5 0 0 1 .103.7Zm18.349-6.305a.5.5 0 0 1-.262-.657c.222-.52.345-1.09.345-1.689V14.88a.5.5 0 1 1 1 0v2.208c0 .738-.152 1.442-.426 2.083a.5.5 0 0 1-.657.263Zm4.502 6.954a5.203 5.203 0 0 1-7.844 4.483l2.197-2.196a.637.637 0 0 0-.901-.901l-2.313 2.313a5.23 5.23 0 0 1-.76-.952l3.457-3.458a.637.637 0 1 0-.9-.9l-3.12 3.118a5.203 5.203 0 1 1 10.184-1.507Zm-10.184 1.507-2.63 2.63a.637.637 0 0 0 .902.9l2.29-2.29a5.176 5.176 0 0 1-.562-1.24Zm1.323 2.192-.695.695a.637.637 0 1 0 .9.9l.812-.811a5.226 5.226 0 0 1-1.017-.784Z"/></svg>