<svg viewBox="0 0 32 33" fill="currentColor" xmlns="http://www.w3.org/2000/svg"><path fill-rule="evenodd" clip-rule="evenodd" d="M32 27.25a5.203 5.203 0 0 1-7.844 4.483l2.196-2.197a.637.637 0 0 0-.9-.9l-2.313 2.312a5.226 5.226 0 0 1-.76-.951l3.457-3.458a.637.637 0 1 0-.9-.901l-3.12 3.119A5.203 5.203 0 1 1 32 27.25Zm-10.184 1.507-2.63 2.63a.637.637 0 0 0 .901.9l2.291-2.29a5.18 5.18 0 0 1-.562-1.24Zm1.323 2.191-.695.695a.637.637 0 1 0 .9.901l.812-.811a5.225 5.225 0 0 1-1.017-.785ZM8 4.726a1 1 0 0 0-1 1v3.007a1 1 0 0 0 1 1h3.001a1 1 0 0 0 1-1V5.726a1 1 0 0 0-1-1H8Zm0 1h3.001v3.007H8V5.726Zm17 8.01a1 1 0 0 1-1 1h-3.001a1 1 0 0 1-1-1V10.73a1 1 0 0 1 1-1H24a1 1 0 0 1 1 1v3.007Zm-4.001 0H24V10.73h-3.001v3.007ZM24 21.727a1 1 0 0 0 1-1V17.72a1 1 0 0 0-1-1h-3.001a1 1 0 0 0-1 1v3.006a1 1 0 0 0 1 1H24Zm0-1h-3.001V17.72H24v3.006Zm-6.994 1a1 1 0 0 0 1-1V17.72a1 1 0 0 0-1-1h-3.001a1 1 0 0 0-1 1v3.006a1 1 0 0 0 1 1h3Zm0-1h-3.001V17.72h3v3.006Zm-3.012-15a1 1 0 0 1 1-1h3.001a1 1 0 0 1 1 1v3.007a1 1 0 0 1-1 1h-3a1 1 0 0 1-1-1V5.726Zm4.001 0h-3v3.007h3V5.726ZM8 11.716a1 1 0 0 0-1 1v3.007a1 1 0 0 0 1 1h3.001a1 1 0 0 0 1-1v-3.007a1 1 0 0 0-1-1H8Zm0 1h3.001v3.007H8v-3.007Z" fill="#fff"/></svg>