<svg viewBox="0 0 32 32" fill="none" xmlns="http://www.w3.org/2000/svg"><path d="m23.36 4.355 4.669 3.466m0 0-4.668 3.475m4.668-3.475H9.023m0 .005c-2.759 0-4.996 2.186-4.996 4.882v2.208M8.694 25.44l-4.668-3.466m0 0 4.668-3.475m-4.668 3.475H21.6m6.428-7.095v2.208a4.77 4.77 0 0 1-.386 1.886" stroke="#0278D5" stroke-linecap="round" stroke-linejoin="round"/><path fill-rule="evenodd" clip-rule="evenodd" d="M31.946 26.386a5.203 5.203 0 0 1-7.844 4.484l2.197-2.197a.637.637 0 1 0-.901-.9l-2.313 2.312a5.225 5.225 0 0 1-.76-.951l3.457-3.458a.637.637 0 0 0-.9-.901l-3.12 3.119a5.203 5.203 0 1 1 10.184-1.508Zm-10.184 1.508-2.63 2.63a.637.637 0 0 0 .902.9l2.29-2.29a5.178 5.178 0 0 1-.562-1.24Zm1.323 2.191-.695.695a.637.637 0 0 0 .9.901l.812-.811a5.226 5.226 0 0 1-1.017-.785Z" fill="#8D52FF"/></svg>