<svg viewBox="0 0 32 33" fill="none" xmlns="http://www.w3.org/2000/svg"><path d="M17.34 14.335a5.903 5.903 0 0 0 10.012-5.044c-.056-.375-.507-.494-.775-.226l-3.028 3.028a.5.5 0 0 1-.707 0l-3.26-3.26a.5.5 0 0 1 0-.707l3.028-3.028c.267-.268.149-.72-.226-.775a5.903 5.903 0 0 0-5.045 10.012Z" stroke="#0278D5"/><path d="m15.78 11.928-8.458 8.457c-1.87 1.87-3.39 2.82-1.12 5.089 2.268 2.268 3.218.749 5.088-1.121l8.457-8.458" stroke="#0278D5"/><path fill-rule="evenodd" clip-rule="evenodd" d="M31.046 26.833a5.203 5.203 0 0 1-7.844 4.483l2.196-2.196a.637.637 0 1 0-.9-.901l-2.314 2.313a5.225 5.225 0 0 1-.76-.952l3.458-3.458a.637.637 0 0 0-.901-.9l-3.119 3.118a5.203 5.203 0 1 1 10.184-1.507ZM20.862 28.34l-2.63 2.63a.637.637 0 1 0 .901.9l2.291-2.29a5.181 5.181 0 0 1-.562-1.24Zm1.322 2.192-.695.695a.637.637 0 0 0 .901.9l.812-.81a5.23 5.23 0 0 1-1.018-.785Z" fill="#8D52FF"/></svg>