<svg viewBox="0 0 32 33" fill="currentColor" xmlns="http://www.w3.org/2000/svg"><path fill-rule="evenodd" clip-rule="evenodd" d="M32 27.228a5.203 5.203 0 0 1-7.844 4.484l2.196-2.197a.637.637 0 0 0-.9-.9l-2.313 2.312a5.226 5.226 0 0 1-.76-.951l3.457-3.458a.637.637 0 1 0-.9-.901l-3.12 3.119A5.203 5.203 0 1 1 32 27.229Zm-10.184 1.508-2.63 2.63a.637.637 0 0 0 .901.9l2.291-2.29a5.18 5.18 0 0 1-.562-1.24Zm1.323 2.191-.695.695a.637.637 0 1 0 .9.901l.812-.811a5.225 5.225 0 0 1-1.017-.785Z" fill="#8D52FF"/><path fill-rule="evenodd" clip-rule="evenodd" d="M24 14.716a1 1 0 0 0 1-1v-3.007a1 1 0 0 0-1-1h-3.001a1 1 0 0 0-1 1v3.007a1 1 0 0 0 1 1H24Zm0-1h-3.001v-3.007H24v3.007Zm-5.994 6.99a1 1 0 0 1-1 1h-3.001a1 1 0 0 1-1-1v-3.008a1 1 0 0 1 1-1h3a1 1 0 0 1 1 1v3.007Zm-4.001 0h3v-3.008h-3v3.007Zm10.995 0a1 1 0 0 1-1 1h-3.001a1 1 0 0 1-1-1v-3.008a1 1 0 0 1 1-1H24a1 1 0 0 1 1 1v3.007Zm-4.001 0H24v-3.008h-3.001v3.007Z" fill="#0278D5"/><path fill-rule="evenodd" clip-rule="evenodd" d="M7 5.705a1 1 0 0 1 1-1h3.001a1 1 0 0 1 1 1v3.007a1 1 0 0 1-1 1H8a1 1 0 0 1-1-1V5.705Zm4.001 0H8v3.007h3.001V5.705Zm2.993 0a1 1 0 0 1 1-1h3.001a1 1 0 0 1 1 1v3.007a1 1 0 0 1-1 1h-3a1 1 0 0 1-1-1V5.705Zm4.001 0h-3v3.007h3V5.705ZM8 11.695a1 1 0 0 0-1 1v3.007a1 1 0 0 0 1 1h3.001a1 1 0 0 0 1-1v-3.007a1 1 0 0 0-1-1H8Zm0 1h3.001v3.007H8v-3.007Z" fill="#299B2C"/></svg>