<svg viewBox="0 0 48 48" fill="currentColor" xmlns="http://www.w3.org/2000/svg"><path fill-rule="evenodd" clip-rule="evenodd" d="M48 22.21c0 10.61-8.6 19.21-19.21 19.21-3.56 0-6.895-.968-9.754-2.656l8.11-8.109a2.352 2.352 0 0 0-3.327-3.327l-8.54 8.54a19.302 19.302 0 0 1-2.806-3.514l12.768-12.767a2.352 2.352 0 1 0-3.327-3.327L10.398 27.776a19.208 19.208 0 0 1-.818-5.566C9.58 11.6 18.18 3 28.79 3 39.4 3 48 11.6 48 22.21Zm-37.602 5.566L.69 37.485a2.352 2.352 0 1 0 3.327 3.327l8.457-8.458a19.111 19.111 0 0 1-2.075-4.578Zm4.882 8.091-2.567 2.567a2.352 2.352 0 1 0 3.327 3.327l2.996-2.997a19.29 19.29 0 0 1-3.756-2.897Z" fill="#FCFEFF"/></svg>