<svg viewBox="0 0 32 32" fill="currentColor" xmlns="http://www.w3.org/2000/svg"><path fill-rule="evenodd" clip-rule="evenodd" d="M16.895 12.43a.5.5 0 0 1 .7-.095l4.41 3.35a.5.5 0 0 1 0 .796l-4.41 3.359a.5.5 0 0 1-.605-.796l3.231-2.46H3.747a.5.5 0 1 1 0-1h16.47l-3.226-2.453a.5.5 0 0 1-.096-.7Z"/><path fill-rule="evenodd" clip-rule="evenodd" d="M15.473 3.934a1.5 1.5 0 0 1 1.302 0L25.633 8.2a1.5 1.5 0 0 1 .812 1.018l2.295 10.055a.5.5 0 1 1-.975.223L25.47 9.44a.5.5 0 0 0-.27-.339l-8.86-4.266a.5.5 0 0 0-.433 0L7.048 9.101a.5.5 0 0 0-.27.34l-.569 2.49a.5.5 0 1 1-.975-.223l.569-2.49A1.5 1.5 0 0 1 6.614 8.2l8.859-4.266ZM4.104 19.521a.5.5 0 0 1 .703.079l6.01 7.536a.5.5 0 0 0 .39.188h7.178a.5.5 0 1 1 0 1h-7.177a1.5 1.5 0 0 1-1.173-.564l-6.01-7.537a.5.5 0 0 1 .08-.702ZM31.486 26.411a5.203 5.203 0 0 1-7.844 4.484l2.197-2.197a.637.637 0 1 0-.901-.9l-2.313 2.312a5.226 5.226 0 0 1-.76-.951l3.457-3.458a.637.637 0 0 0-.9-.901l-3.12 3.119a5.203 5.203 0 1 1 10.184-1.507ZM21.303 27.92l-2.63 2.63a.637.637 0 0 0 .9.9l2.291-2.29a5.178 5.178 0 0 1-.561-1.24Zm1.322 2.191-.695.695a.637.637 0 0 0 .9.901l.812-.811a5.226 5.226 0 0 1-1.017-.785Z"/></svg>