<svg xmlns="http://www.w3.org/2000/svg" viewBox="0 0 64 63" fill="none" xmlns:v="https://vecta.io/nano"><path d="M31.276 36.494L9.385 24.872l-6.156 7.443 23.302 12.448 4.745-8.269zm1.693-23.654L11 23.851l21.417 11.375L53.875 23.83l-12.307-6.506-8.599-4.484zM8.276 23.619L.203 15.892a.84.84 0 0 1 .078-1.174 1.05 1.05 0 0 1 .156-.111L24.974.581c.391-.211.875-.063 1.094.321l6.891 9.59 4.594-8.695c.214-.405.708-.563 1.109-.347L63.557 14.75c.073.042.141.089.203.153.318.326.312.853-.011 1.174l-7.375 7.322 7.141 8.638c.292.353.245.879-.104 1.169a1.15 1.15 0 0 1-.167.111l-6.411 3.427v12.843a.83.83 0 0 1-.51.769l-23.182 11.89a.82.82 0 0 1-.609.274c-.323 0-.599-.184-.734-.458L8.573 50.321c-.286-.147-.453-.437-.453-.742V36.804l-6.531-3.49a1.15 1.15 0 0 1-.167-.111c-.349-.295-.396-.821-.104-1.169l6.958-8.416zm23.411-12.048l-6.63-9.153L2.12 15.592l7.495 7.053 22.073-11.074zm2.557.011l7.682 4.063 13.063 6.806 6.807-6.758L38.62 3.302l-4.375 8.28zm21.208 13.29L33.563 36.494l4.745 8.264 23.302-12.448-6.156-7.437z" fill="currentColor"/></svg>