<svg fill="none" height="16" viewBox="0 0 17 16" width="17" xmlns="http://www.w3.org/2000/svg" xmlns:xlink="http://www.w3.org/1999/xlink"><mask id="a" fill="#fff"><path clip-rule="evenodd" d="m4.79004 4.86914c-1.72886 0-3.13037 1.40152-3.13037 3.13037 0 1.72886 1.40151 3.13039 3.13037 3.13039h6.45796c1.7288 0 3.1304-1.40153 3.1304-3.13039 0-1.72885-1.4016-3.13037-3.1304-3.13037zm6.30906 5.50686c1.3122 0 2.376-1.06378 2.376-2.376s-1.0638-2.37598-2.376-2.37598c-1.31219 0-2.37596 1.06376-2.37596 2.37598s1.06377 2.376 2.37596 2.376z" fill="#fff" fill-rule="evenodd"/></mask><g fill="#fff"><path clip-rule="evenodd" d="m4.79004 4.86914c-1.72886 0-3.13037 1.40152-3.13037 3.13037 0 1.72886 1.40151 3.13039 3.13037 3.13039h6.45796c1.7288 0 3.1304-1.40153 3.1304-3.13039 0-1.72885-1.4016-3.13037-3.1304-3.13037zm6.30906 5.50686c1.3122 0 2.376-1.06378 2.376-2.376s-1.0638-2.37598-2.376-2.37598c-1.31219 0-2.37596 1.06376-2.37596 2.37598s1.06377 2.376 2.37596 2.376z" fill-rule="evenodd"/><path d="m2.65967 7.99951c0-1.17657.9538-2.13037 2.13037-2.13037v-2c-2.28114 0-4.130372 1.84923-4.130372 4.13037zm2.13037 2.13039c-1.17657 0-2.13037-.95382-2.13037-2.13039h-2.000002c0 2.28119 1.849232 4.13039 4.130372 4.13039zm6.45796 0h-6.45796v2h6.45796zm2.1304-2.13039c0 1.17657-.9538 2.13039-2.1304 2.13039v2c2.2811 0 4.1304-1.8492 4.1304-4.13039zm-2.1304-2.13037c1.1766 0 2.1304.9538 2.1304 2.13037h2c0-2.28114-1.8493-4.13037-4.1304-4.13037zm-6.45796 0h6.45796v-2h-6.45796zm7.68506 2.13086c0 .75993-.616 1.37598-1.376 1.37598v2.00002c1.8645 0 3.376-1.5115 3.376-3.376zm-1.376-1.37598c.76 0 1.376.61605 1.376 1.37598h2c0-1.8645-1.5115-3.37598-3.376-3.37598zm-1.37596 1.37598c0-.75993.61606-1.37598 1.37596-1.37598v-2c-1.86448 0-3.37596 1.51148-3.37596 3.37598zm1.37596 1.37598c-.7599 0-1.37596-.61605-1.37596-1.37598h-2c0 1.8645 1.51148 3.376 3.37596 3.376z" mask="url(#a)"/></g></svg>