<svg viewBox="0 0 33 33" xmlns="http://www.w3.org/2000/svg">
<circle cx="16.793" cy="16.0732" r="16" fill="#00ADE4"/>
<path d="M18.9524 11.4433C19.0417 11.598 19.0417 11.7886 18.9524 11.9433L17.3007 14.8041C17.2114 14.9588 17.0463 15.0541 16.8677 15.0541L13.5644 15.0541C13.3858 15.0541 13.2207 14.9588 13.1314 14.8041L11.4797 11.9433L11.0467 12.1933L11.4797 11.9433C11.3904 11.7886 11.3904 11.598 11.4797 11.4433L13.1314 8.58255C13.2207 8.42785 13.3858 8.33255 13.5644 8.33255L16.8677 8.33255C17.0463 8.33255 17.2114 8.42785 17.3007 8.58255L18.9524 11.4433Z" fill="#00ADE4" stroke="white" stroke-linejoin="round"/>
<path d="M17.5554 5.08463L11.6382 5.0846C11.2819 5.08459 10.9525 5.27421 10.7735 5.58233L8.15487 10.0906C7.9899 10.3746 7.97492 10.7215 8.11481 11.0187L10.0075 15.0396C10.1461 15.3341 10.1327 15.6776 9.97164 15.9604L8.17864 19.1084C8.00108 19.4202 8.00413 19.8032 8.18663 20.112L10.7723 24.4883C10.9522 24.7928 11.2796 24.9796 11.6333 24.9796L17.5808 24.9796C17.9406 24.9796 18.2727 24.7863 18.4504 24.4734L20.1338 21.5087C20.3115 21.1958 20.6436 21.0025 21.0034 21.0025L24.3629 21.0025C24.7081 21.0025 25.0289 20.8244 25.2115 20.5314L28.0281 16.0125C28.2215 15.7023 28.2301 15.3112 28.0506 14.9927L25.2048 9.94279C25.0276 9.62829 24.6946 9.43373 24.3336 9.43373L21.0288 9.43373C20.6555 9.43373 20.3133 9.22585 20.1413 8.89459L18.4428 5.62377C18.2708 5.29251 17.9286 5.08463 17.5554 5.08463Z" stroke="white"/>
<path d="M18.9524 18.1003C19.0417 18.255 19.0417 18.4456 18.9524 18.6003L17.3007 21.461C17.2114 21.6157 17.0463 21.711 16.8677 21.711L13.5644 21.711C13.3858 21.711 13.2207 21.6157 13.1314 21.461L11.4797 18.6003L11.0467 18.8503L11.4797 18.6003C11.3904 18.4456 11.3904 18.255 11.4797 18.1003L13.1314 15.2395C13.2207 15.0848 13.3858 14.9895 13.5644 14.9895L16.8677 14.9895C17.0463 14.9895 17.2114 15.0848 17.3007 15.2395L18.9524 18.1003Z" fill="#00ADE4" stroke="white" stroke-linejoin="round"/>
<path d="M24.5877 15.0097C24.677 15.1644 24.677 15.355 24.5877 15.5097L22.936 18.3705C22.8467 18.5252 22.6817 18.6205 22.503 18.6205L19.1997 18.6205C19.0211 18.6205 18.856 18.5252 18.7667 18.3705L17.115 15.5097L16.682 15.7597L17.115 15.5097C17.0257 15.355 17.0257 15.1644 17.115 15.0097L18.7667 12.149C18.856 11.9943 19.0211 11.899 19.1997 11.899L22.503 11.899C22.6817 11.899 22.8467 11.9943 22.936 12.149L24.5877 15.0097Z" fill="#00ADE4" stroke="white" stroke-linejoin="round"/>
</svg>
