<svg fill="none" viewBox="0 0 32 32" xmlns="http://www.w3.org/2000/svg"><circle cx="16" cy="16" fill="#00ade4" r="16"/><g stroke="#fff"><path d="m18.1594 11.8701-1.6517 2.8608c-.0893.1547-.2544.25-.433.25h-3.3033c-.1787 0-.3437-.0953-.433-.25l-1.6517-2.8608c-.0893-.1547-.0893-.3453 0-.5l1.6517-2.86073c.0893-.1547.2543-.25.433-.25h3.3033c.1786 0 .3437.0953.433.25l1.6517 2.86073c.0893.1547.0893.3453 0 .5z" fill="#00ade4" stroke-linejoin="round"/><path d="m16.7623 5.01144-5.9171-.00002c-.3564-.00001-.6858.18961-.86475.49773l-2.61861 4.50825c-.16497.284-.17995.631-.04006.9282l1.89266 4.0208c.13862.2945.12525.638-.03583.9208l-1.793 3.1481c-.17756.3117-.17451.6947.00799 1.0036l2.58567 4.3762c.17993.3045.50733.4913.86093.4913h5.9475c.3599 0 .6919-.1933.8696-.5062l1.6835-2.9647c.1777-.3129.5098-.5062.8696-.5062h3.3595c.3452 0 .666-.1781.8486-.471l2.8165-4.5189c.1934-.3103.2021-.7014.0226-1.0199l-2.8458-5.04989c-.1772-.3145-.5102-.50906-.8712-.50906h-3.3048c-.3733 0-.7155-.20788-.8875-.53915l-1.6985-3.27081c-.172-.33126-.5142-.53914-.8875-.53915z"/><path d="m18.1594 18.5271-1.6517 2.8608c-.0893.1547-.2544.25-.433.25h-3.3033c-.1787 0-.3437-.0953-.433-.25l-1.6517-2.8608c-.0893-.1547-.0893-.3453 0-.5l1.6517-2.8607c.0893-.1547.2543-.25.433-.25h3.3033c.1786 0 .3437.0953.433.25l1.6517 2.8607c.0893.1547.0893.3453 0 .5z" fill="#00ade4" stroke-linejoin="round"/><path d="m23.7947 15.4365-1.6517 2.8608c-.0893.1547-.2544.25-.433.25h-3.3033c-.1787 0-.3437-.0953-.433-.25l-1.6517-2.8608c-.0893-.1547-.0893-.3453 0-.5l1.6517-2.8607c.0893-.1547.2543-.25.433-.25h3.3033c.1786 0 .3437.0953.433.25l1.6517 2.8607c.0893.1547.0893.3453 0 .5z" fill="#00ade4" stroke-linejoin="round"/></g></svg>