<svg fill="none" xmlns="http://www.w3.org/2000/svg" viewBox="0 0 18 18"><circle cx="9" cy="9" r="9" fill="#00ADE4"/><path opacity=".01" fill="#000" d="M4.715 4.714h8.571v8.571H4.715z"/><path fill-rule="evenodd" clip-rule="evenodd" d="M9.264 6.992a.2.2 0 00.08.17l2.834 2.114a1 1 0 01.005 1.599l-2.58 1.954a1 1 0 01-1.206.002L5.613 10.73a.859.859 0 01-.015-1.35.159.159 0 01.197-.003.237.237 0 01-.005.377l-.136.101a.2.2 0 00-.003.32l2.762 2.091a.2.2 0 00.32-.16v-1.16L5.78 8.73a1 1 0 010-1.6l2.63-1.972a1 1 0 011.188-.01l2.685 1.947a.938.938 0 01-.034 1.542l-.172-.168a.2.2 0 01.037-.315l.174-.105a.2.2 0 00.012-.335l-2.676-1.87a.2.2 0 00-.314.154l-.046.995zM8.85 5.9a.2.2 0 00-.32-.16L5.87 7.734a.2.2 0 00-.001.32l2.856 2.158a.5.5 0 00.566.025l1.224-.765a.2.2 0 01.233.015l.09.074a.2.2 0 01-.02.324l-1.57.987a.2.2 0 00-.094.17v1.081a.2.2 0 00.322.159l2.658-2.051a.2.2 0 000-.317L9.153 7.637a.2.2 0 00-.245.002l-1.188.935a.2.2 0 01-.258-.008l-.065-.06a.2.2 0 01.01-.305l1.367-1.075a.2.2 0 00.077-.157V5.9z" fill="#fff"/></svg>