<svg xmlns="http://www.w3.org/2000/svg" fill="none" viewBox="0 0 18 16"><path fill="currentColor" stroke="#EF9790" stroke-width="2" d="M7.752 1.763a1.513 1.513 0 0 1 2.628 0l6.153 10.778a1.513 1.513 0 0 1-1.315 2.263H2.913A1.513 1.513 0 0 1 1.6 12.541L7.752 1.763Zm1.069 9.72c0 .153.12.236.216.236a.226.226 0 0 0 .217-.236.226.226 0 0 0-.217-.235.226.226 0 0 0-.216.235Z"/><path fill="#fff" d="m8.9 4 4.763 8.25H4.136L8.9 4Z"/><path fill="#B41710" fill-rule="evenodd" d="M9.511 2.259a.513.513 0 0 0-.891 0L2.467 13.036a.513.513 0 0 0 .446.768h12.305a.513.513 0 0 0 .446-.768L9.512 2.26Zm.31 9.224a.774.774 0 0 0-.784-.764.774.774 0 0 0-.783.764c0 .423.35.765.783.765a.774.774 0 0 0 .784-.765Zm-.783-1.788c.283 0 .513-.23.513-.514V5.59a.513.513 0 0 0-1.027 0V9.18c0 .284.23.514.514.514Z" clip-rule="evenodd"/></svg>