<svg viewBox="0 0 36 32" fill="none" xmlns="http://www.w3.org/2000/svg">
<path fill-rule="evenodd" clip-rule="evenodd" d="M1.41082 5.48784C1.41082 3.23544 3.22456 1.41582 5.45417 1.41582C7.68377 1.41582 9.49752 3.23544 9.49752 5.48784C9.49752 7.74025 7.68377 9.55987 5.45417 9.55987C3.22456 9.55987 1.41082 7.74025 1.41082 5.48784ZM5.45417 0.21582C2.55487 0.21582 0.210815 2.57967 0.210815 5.48784C0.210815 8.39602 2.55487 10.7599 5.45417 10.7599C6.41229 10.7599 7.30977 10.5017 8.08206 10.0511L10.9385 12.5257V19.9157L8.14584 21.9867C7.35936 21.5127 6.43878 21.24 5.45417 21.24C2.55487 21.24 0.210815 23.6039 0.210815 26.5121C0.210815 29.4202 2.55487 31.7841 5.45417 31.7841C8.35347 31.7841 10.6975 29.4202 10.6975 26.5121C10.6975 25.0407 10.0975 23.7086 9.12902 22.7515L11.8694 20.7194H24.9259H25.5259V20.1194V16.6001H33.7406L30.9465 19.3942C30.7121 19.6285 30.7121 20.0084 30.9465 20.2427C31.1808 20.477 31.5607 20.477 31.795 20.2427L35.6134 16.4243C35.8477 16.19 35.8477 15.8101 35.6134 15.5758L31.795 11.7574C31.5607 11.5231 31.1808 11.5231 30.9465 11.7574C30.7121 11.9917 30.7121 12.3716 30.9465 12.606L33.7406 15.4001H25.5259V12.374V11.774H24.9259H11.9035L9.06261 9.31288C10.07 8.35164 10.6975 6.99261 10.6975 5.48784C10.6975 2.57967 8.35347 0.21582 5.45417 0.21582ZM12.5128 19.5194H24.3259V12.974H12.1385V19.0259L12.1439 19.0219L12.5128 19.5194ZM1.41082 26.5121C1.41082 24.2597 3.22456 22.44 5.45417 22.44C6.45341 22.44 7.36912 22.8055 8.07547 23.4116L8.13342 23.4898L8.15019 23.4774C8.97671 24.2224 9.49752 25.3051 9.49752 26.5121C9.49752 28.7645 7.68377 30.5841 5.45417 30.5841C3.22456 30.5841 1.41082 28.7645 1.41082 26.5121Z" fill="#4F5162"/>
</svg>

