<svg width="27" height="24" viewBox="0 0 27 24" fill="none" xmlns="http://www.w3.org/2000/svg">
<path fill-rule="evenodd" clip-rule="evenodd" d="M1 3.93589C1 2.31444 2.31444 1 3.93589 1C5.55734 1 6.87178 2.31444 6.87178 3.93589C6.87178 5.55734 5.55734 6.87178 3.93589 6.87178C2.31444 6.87178 1 5.55734 1 3.93589ZM3.93589 0C1.76216 0 0 1.76216 0 3.93589C0 6.10962 1.76216 7.87178 3.93589 7.87178C4.64053 7.87178 5.30191 7.68661 5.87405 7.36229L8.23079 9.39144V14.1028V14.3002L5.9243 16.0001C5.34079 15.6578 4.66125 15.4616 3.93589 15.4616C1.76216 15.4616 0 17.2237 0 19.3975C0 21.5712 1.76216 23.3334 3.93589 23.3334C6.10962 23.3334 7.87178 21.5712 7.87178 19.3975C7.87178 18.323 7.44121 17.349 6.74318 16.6388L8.82733 15.1028H9.23079H17.5385H18.5385V14.1028V12.1668H18.5385H24.7314L22.403 14.4952C22.2077 14.6905 22.2077 15.007 22.403 15.2023C22.5982 15.3976 22.9148 15.3976 23.1101 15.2023L26.2921 12.0203C26.4873 11.8251 26.4873 11.5085 26.2921 11.3132L23.1101 8.13124C22.9148 7.93598 22.5982 7.93598 22.403 8.13124C22.2077 8.3265 22.2077 8.64308 22.403 8.83834L24.7314 11.1668H18.5385H18.5385V9.231V8.231H17.5385H9.23079H8.41563L6.69133 6.74637C7.41982 6.03206 7.87178 5.03676 7.87178 3.93589C7.87178 1.76216 6.10962 0 3.93589 0ZM1 19.3975C1 17.776 2.31444 16.4616 3.93589 16.4616C5.55734 16.4616 6.87178 17.776 6.87178 19.3975C6.87178 21.0189 5.55734 22.3334 3.93589 22.3334C2.31444 22.3334 1 21.0189 1 19.3975ZM9.23079 9.231H17.5385V14.1028H9.23079V9.231Z" fill="#4F5162"/>
</svg>
