<svg viewBox="0 0 25 30" fill="none" xmlns="http://www.w3.org/2000/svg"><path d="M11.764.133a.99.99 0 0 1 1.015.015c3.63 2.2 8.207 3.77 10.738 4.192.486.081.88.481.897.975.154 4.233-.338 7.823-1.226 10.838l-.05.144a1.12 1.12 0 0 0-2.202.29v4.286q0 .236.088.44c-2.543 4.518-5.975 6.985-8.382 7.916a.9.9 0 0 1-.723-.04C1.216 23.91-.45 11.577.089 5.273c.041-.48.444-.833.924-.88 4.145-.408 8.561-2.974 10.75-4.26m.87 18.034c-.619 0-1.121.503-1.121 1.122v2.929a1.123 1.123 0 0 0 2.243 0v-2.929c0-.62-.502-1.122-1.121-1.122m2.693-6.493c-2.024 0-3.814 1.541-3.814 3.617v1.07a1.122 1.122 0 0 0 2.243 0v-1.07c0-.679.622-1.374 1.571-1.374.95 0 1.57.696 1.57 1.374v6.927a1.122 1.122 0 0 0 2.244 0V15.29c0-2.076-1.79-3.617-3.814-3.617m-5.926-.041a1.12 1.12 0 0 0-1.46.617 6.3 6.3 0 0 0-.465 2.379v6.244a1.123 1.123 0 0 0 2.243 0V14.63c0-.537.104-1.053.3-1.535a1.12 1.12 0 0 0-.618-1.461m5.926-3.996c-1.58 0-3.062.416-4.304 1.141a1.122 1.122 0 1 0 1.132 1.937 6.3 6.3 0 0 1 3.172-.835c2.656 0 4.766 1.545 5.403 3.47a1.121 1.121 0 0 0 2.128-.703c-.983-2.973-4.051-5.01-7.53-5.01" fill="url(#a)"/><defs><linearGradient id="a" x1="5.503" y1="2.31" x2="25.84" y2="22.754" gradientUnits="userSpaceOnUse"><stop stop-color="#5992ff"/><stop offset="1" stop-color="#004fe6"/></linearGradient></defs></svg>