<svg fill="none" viewBox="0 0 42 42" xmlns="http://www.w3.org/2000/svg"><path clip-rule="evenodd" d="m21.9951 5.62988c7.9391 0 14.375 6.43592 14.375 14.37502s-6.4359 14.375-14.375 14.375c-.3452 0-.625.2798-.625.625s.2798.625.625.625c8.6295 0 15.625-6.9956 15.625-15.625 0-8.6295-6.9955-15.62502-15.625-15.62502-8.6294 0-15.62498 6.99552-15.62498 15.62502 0 .3452.27982.625.625.625.34517 0 .625-.2798.625-.625 0-7.9391 6.43588-14.37502 14.37498-14.37502z" fill="#383946" fill-rule="evenodd"/><path d="m28.9268 20.0002h-13.8542" stroke="#da291d" stroke-linecap="round" stroke-linejoin="round" stroke-width="1.25"/><g clip-rule="evenodd" fill="#da291d" fill-rule="evenodd"><path d="m5.07182 27.9717 5.67818-3.2783 5.6782 3.2783v6.5566l-5.6782 3.2783-5.67818-3.2783zm5.05318-4.3609c.3868-.2233.8633-.2233 1.25 0l5.6782 3.2783c.3868.2233.625.636.625 1.0826v6.5566c0 .4466-.2382.8592-.625 1.0825l-5.6782 3.2783c-.3867.2233-.8632.2233-1.25 0l-5.67818-3.2783c-.38676-.2233-.625-.6359-.625-1.0825v-6.5566c0-.4466.23825-.8593.625-1.0826z"/><path d="m7.95811 29.6385 2.79149-1.6116 2.7914 1.6116v3.2233l-2.7914 1.6116-2.79149-1.6116zm2.16649-2.6942c.3867-.2233.8632-.2233 1.25 0l2.7914 1.6117c.3868.2233.625.6359.625 1.0825v3.2233c0 .4466-.2382.8592-.625 1.0825l-2.7914 1.6117c-.3868.2233-.8633.2233-1.25 0l-2.79149-1.6117c-.38675-.2233-.625-.6359-.625-1.0825v-3.2233c0-.4466.23825-.8592.625-1.0825z"/></g></svg>