<svg xmlns="http://www.w3.org/2000/svg" viewBox="0 0 24 24"><path d="M8.24 6.45a6.536 6.536 0 114.022 11.687h0l-.31.003h-.048l-.002.047-.046.992-.002.05.05.003.356.018h.002A7.65 7.65 0 107.446 5.657L6.049 4.26l-.086-.085v4.224h4.224l-.085-.085L8.239 6.45z" fill="#22222A" stroke="#22222A" stroke-width=".1"/><path d="M5.39 12.257l-.052-.657H5l.012.693.377-.036zM5.234 13.665l.442-.13-.174-.63-.412.078.144.682zM5.716 14.978l.482-.25-.29-.582-.465.186.273.646zM6.05 15.595l.393.585.49-.386-.392-.515-.49.316zM7.851 16.696l-.48-.428-.48.46.497.502.463-.534zM8.367 17.076l-.434.609.588.402.394-.683-.548-.328zM9.146 18.432l.657.285.284-.823-.597-.216-.344.754zM11.323 18.151l-.623-.098-.214.886.704.155.133-.943z" fill="#22222A"/><path d="M14.064 8.578h0a.606.606 0 01.858 0m-.858 0h.858m-.858 0l-.001.001-2.05 2.137a.984.984 0 10.005 1.952l2.913 2.621a.607.607 0 00.856-.86h0l-.004-.003-2.91-2.618a.866.866 0 000-.235l2.05-2.138m-.859-.857l.859.857m0-.857a.607.607 0 010 .857m0-.857v.857" fill="currentColor" stroke="#22222A" stroke-width=".2"/></svg>