<svg xmlns="http://www.w3.org/2000/svg" fill="currentColor" viewBox="0 0 24 24">
  <g clip-path="url(#a)">
    <circle cx="12" cy="12" r="12" fill="#fff"/>
    <path fill="currentColor" d="M14.7745 8.96924H9.22814c-.13279 0-.24181.10413-.24181.23902v5.60644c0 .1321.10832.2404.24181.2404h5.54636c.1328 0 .2404-.1076.2404-.2404V9.20826c-.0007-.13419-.1076-.23902-.2404-.23902Z"/>
    <path fill="currentColor" d="M12.0007 1.5C6.20208 1.5 1.5 6.20068 1.5 12.0007c0 5.8 4.70208 10.5007 10.5007 10.5007C17.8 22.5014 22.5 17.8007 22.5 12.0007 22.5 6.20068 17.8 1.5 12.0007 1.5Zm0 19.2472c-4.83067 0-8.74721-3.9165-8.74721-8.7465 0-4.83207 3.91654-8.7479 8.74721-8.7479 4.8314 0 8.7458 3.91583 8.7458 8.7479 0 4.83-3.9144 8.7465-8.7458 8.7465Z"/>
  </g>
  <defs>
    <clipPath id="a">
      <path fill="#fff" d="M0 0h24v24H0z"/>
    </clipPath>
  </defs>
</svg>
