<svg fill="none" viewBox="0 0 17 17" xmlns="http://www.w3.org/2000/svg"><path clip-rule="evenodd" d="m8.99805 2.25195c3.17565 0 5.74995 2.57437 5.74995 5.75 0 3.17565-2.5743 5.75005-5.74995 5.75005-.13807 0-.25.1119-.25.25 0 .138.11193.25.25.25 3.45175 0 6.24995-2.7983 6.24995-6.25005 0-3.45178-2.7982-6.25-6.24995-6.25-3.45178 0-6.25 2.79822-6.25 6.25 0 .13807.11193.25.25.25s.25-.11193.25-.25c0-3.17563 2.57436-5.75 5.75-5.75z" fill="#b41710" fill-rule="evenodd"/><path d="m11.7715 8.00016h-5.54168" stroke="#b41710" stroke-linecap="round" stroke-linejoin="round" stroke-width=".5"/><g clip-rule="evenodd" fill="#b41710" fill-rule="evenodd"><path d="m2.22892 11.1888 2.27128-1.31136 2.27128 1.31136v2.6226l-2.27128 1.3113-2.27128-1.3113zm2.02128-1.74437c.1547-.08932.3453-.08932.5 0l2.27128 1.31137c.1547.0893.25.2543.25.433v2.6226c0 .1786-.0953.3437-.25.433l-2.27128 1.3114c-.1547.0893-.3453.0893-.5 0l-2.27128-1.3114c-.1547-.0893-.25-.2544-.25-.433v-2.6226c0-.1787.0953-.3437.25-.433z"/><path d="m3.38403 11.8554 1.11658-.6447 1.11658.6447v1.2893l-1.11658.6446-1.11658-.6446zm.86658-1.0777c.1547-.0893.3453-.0893.5 0l1.11658.6446c.1547.0894.25.2544.25.4331v1.2893c0 .1786-.0953.3437-.25.433l-1.11658.6446c-.1547.0894-.3453.0894-.5 0l-1.11658-.6446c-.1547-.0893-.25-.2544-.25-.433v-1.2893c0-.1787.0953-.3437.25-.4331z"/></g></svg>