<svg viewBox="0 0 19 15" xmlns="http://www.w3.org/2000/svg"><path d="M15.964 15H3.027C.702 15-.737 12.787.392 11.021L6.29 1.339c1.152-1.785 5.261-1.785 6.412 0l5.897 9.682C19.75 12.768 18.288 15 15.964 15z" color="#fff"/><path d="M4.23 13.75h10.408c1.713 0 2.79-1.77 1.941-3.157l-5.22-8.53c-.848-1.417-3.002-1.417-3.85 0l-5.22 8.53c-.832 1.402.229 3.157 1.941 3.157zm5.22-1.894c-.456 0-.832-.354-.832-.785 0-.431.376-.786.832-.786.457 0 .832.354.816.801.016.416-.375.77-.816.77zm-.212-7.083c.392-.093.8.092.963.446.049.123.081.247.081.385-.016.385-.049.785-.081 1.17-.033.601-.082 1.217-.114 1.817-.017.2-.017.37-.017.57a.6.6 0 01-.62.57c-.342 0-.603-.231-.62-.554-.048-.94-.114-1.879-.163-2.818l-.049-.755a.82.82 0 01.62-.831z"/></svg>