<svg xmlns="http://www.w3.org/2000/svg" viewBox="0 0 24 24">
  <g clip-path="url(#a)">
    <circle cx="12" cy="12" r="12" fill="#fff"/>
    <path fill="currentColor" fill-rule="evenodd" d="M1.5 12c0 5.799 4.70101 10.5 10.5 10.5 5.799 0 10.5-4.701 10.5-10.5 0-5.79899-4.701-10.5-10.5-10.5C6.20101 1.5 1.5 6.20101 1.5 12Zm8.8493 2.5501 6.8451-7.16746c.3754-.39317.9986-.4075 1.3917-.03202.3932.37548.4075.99859.032 1.39175l-7.5208 7.87503c-.3739.3914-.9936.4076-1.38739.0361l-4.29166-4.0487c-.39545-.3731-.41359-.9961-.04052-1.3916.37307-.3954.99607-.4136 1.39152-.0405l3.58005 3.3774Z" clip-rule="evenodd"/>
  </g>
  <defs>
    <clipPath id="a">
      <path fill="#fff" d="M0 0h24v24H0z"/>
    </clipPath>
  </defs>
</svg>
