<svg xmlns="http://www.w3.org/2000/svg" viewBox="0 0 92 92">
  <circle cx="45.8" cy="45.8" r="45.8" fill="#fff"/>
  <circle cx="45.7998" cy="45.8" r="42.9375" fill="currentColor"/>
  <path fill="#fff" d="M45.7712 17.175c-15.801 0-28.5964 12.824-28.5964 28.625s12.7954 28.625 28.5964 28.625c15.8296 0 28.6536-12.824 28.6536-28.625s-12.824-28.625-28.6536-28.625Zm.0286 51.525c-12.6522 0-22.9-10.2477-22.9-22.9 0-12.6522 10.2478-22.9 22.9-22.9 12.6523 0 22.9 10.2478 22.9 22.9 0 12.6523-10.2477 22.9-22.9 22.9Zm1.4313-37.2125h-4.2938v17.175l15.0281 9.0169 2.1469-3.5208-12.8812-7.6429V31.4875Z"/>
</svg>
