<svg xmlns="http://www.w3.org/2000/svg" viewBox="0 0 24 24">
  <circle cx="12" cy="12" r="12" fill="#fff"/>
  <circle cx="12" cy="12" r="10.5" fill="currentColor"/>
  <path fill="#fff" d="M18.7888 8.24379c-.2239-.11798-.5119-.05899-.6398.17697l-.7358 1.09132c-.7679-2.18263-3.0073-3.68688-5.5346-3.68688-2.59139 0-4.86281 1.59273-5.59862 3.83436-.06399.23596.06398.47194.31992.56044.25593.059.51187-.059.60784-.29499.60785-1.88768 2.49537-3.21496 4.67086-3.21496 2.1114 0 3.9669 1.23879 4.6068 3.03799l-1.2157-.64889c-.2239-.11798-.5119-.05899-.6398.14748-.128.20646-.064.47192.1599.5899l2.2075 1.17977c.0639.0295.1599.059.2559.059.032 0 .096 0 .128-.0295.1279-.0295.2239-.118.2879-.2064l1.2797-2.0352c.1279-.17697.0639-.44243-.16-.56041Z"/>
  <path fill="#fff" fill-rule="evenodd" d="M9.00011 12.0005v4.5001H4.5v-4.5001h4.50011Zm-.75002.75H5.25002v3.0001h3.00007v-3.0001Zm6.00001-.75v4.5001H9.75v-4.5001h4.5001Zm-.75.75H10.5v3.0001h3.0001v-3.0001Zm6-.75v4.5001H15v-4.5001h4.5001Zm-.75.75H15.75v3.0001h3.0001v-3.0001Z" clip-rule="evenodd"/>
  <path fill="#fff" d="M6.75002 13.501H6v.75h.75002v-.75Z"/>
  <path fill="#fff" d="M7.50002 14.25H6.75V15h.75002v-.75Z"/>
  <path fill="#fff" fill-rule="evenodd" d="M16.5 13.501h.75v.75h-.75v-.75Z" clip-rule="evenodd"/>
  <path fill="#fff" d="M18 14.25h-.75V15H18v-.75Z"/>
</svg>
