<svg xmlns="http://www.w3.org/2000/svg" viewBox="0 0 24 24">
  <circle cx="12" cy="12" r="12" fill="#fff"/>
  <circle cx="12" cy="12" r="10.5" fill="currentColor"/>
  <path fill="#fff" d="m13.2642 6.36364-.2216 8.14776h-2.0795l-.2273-8.14776h2.5284ZM12.0028 18.1477c-.375 0-.6969-.1325-.9659-.3977-.2689-.2689-.4015-.5909-.3977-.9659-.0038-.3712.1288-.6894.3977-.9546.269-.2651.5909-.3977.9659-.3977.3599 0 .6762.1326.9489.3977.2727.2652.411.5834.4148.9546-.0038.25-.0701.4792-.1989.6875-.125.2045-.2898.3693-.4943.4943-.2045.1212-.428.1818-.6705.1818Z"/>
</svg>
