<svg fill="none" viewBox="0 0 16 18" xmlns="http://www.w3.org/2000/svg"><path clip-rule="evenodd" d="m8.31126 1.16796c-.19891-.223945-.54874-.223945-.74765 0l-6.4345 7.24417c-.28645.32249-.05752.83205.37382.83205h2.43464c.27614 0 .5.22386.5.5v6.25002c0 .2762.22386.5.5.5h6.00003c.2761 0 .5-.2238.5-.5v-6.25002c0-.27614.2238-.5.5-.5h2.4343c.4314 0 .6603-.50956.3739-.83205l-6.43454-7.24417.37383-.332049zm-1.4953-.664094c.59673-.671822 1.64622-.671821 2.24296 0l6.43448 7.244174c.8594.96748.1726 2.49616-1.1215 2.49616h-1.9343v5.75c0 .8285-.6716 1.5-1.5 1.5h-6.00003c-.82843 0-1.5-.6715-1.5-1.5v-5.75h-1.93464c-1.294008 0-1.980818-1.52868-1.121478-2.49616z" fill="#3e7bfa" fill-rule="evenodd"/></svg>