<svg viewBox="0 0 96 95.5" xmlns="http://www.w3.org/2000/svg"><path d="m87.4 20.6-8-8c-.8-.8-2-.8-2.8 0l-24 24c-.4.4-.6.9-.6 1.4v8c0 1.1.9 2 2 2h8c.5 0 1-.2 1.4-.6l24-24c.8-.8.8-2 0-2.8zm-26.2 23.4h-5.2v-5.2l22-22 5.2 5.2z"/><path d="m42 32h-20c-1.1 0-2 .9-2 2s.9 2 2 2h20c1.1 0 2-.9 2-2s-.9-2-2-2z"/><path d="m22 48h20c1.1 0 2-.9 2-2s-.9-2-2-2h-20c-1.1 0-2 .9-2 2s.9 2 2 2z"/><path d="m22 60h40c1.1 0 2-.9 2-2s-.9-2-2-2h-40c-1.1 0-2 .9-2 2s.9 2 2 2z"/><path d="m74 48c-1.1 0-2 .9-2 2v12c0 3.3-2.7 6-6 6h-20c-.4 0-.9.1-1.2.4l-12.8 9.6v-8c0-1.1-.9-2-2-2h-12c-3.3 0-6-2.7-6-6v-32c0-3.3 2.7-6 6-6h36c1.1 0 2-.9 2-2s-.9-2-2-2h-36c-5.5 0-10 4.5-10 10v32c0 5.5 4.5 10 10 10h10v10c0 1.1.9 2 2 2 .4 0 .9-.1 1.2-.4l15.5-11.6h19.3c5.5 0 10-4.5 10-10v-12c0-1.1-.9-2-2-2z"/></svg>