<svg viewBox="0 0 168 56" fill="none" xmlns="http://www.w3.org/2000/svg"><path d="M29.29 10.6a6.487 6.487 0 00-7.514 5.261L18.6 33.872a6.487 6.487 0 005.261 7.515l9.437 1.664a.2.2 0 00.208-.298L24.603 27.57c-.37-.586-.365-1.728.063-2 .098-.063.39-.324.39-.324l.498-.544.082-.09c.462-.508.88-.967 2.2-1.628l.284-.1c1.935-.604 3.012-.56 4.088-.516 1.077.043 2.154.087 4.092-.518 1.59-.497 3.037-1.472 3.843-2.084.358-.272.886-.192 1.124.189l5.746 9.2a.662.662 0 01-.127.87c-.62.508-1.875 1.403-3.542 1.924-1.936.604-3.04.578-4.145.552-1.105-.026-2.21-.052-4.148.553-1.706.533-2.387 1.236-2.614 1.54-.047.063-.071.208-.033.276.456.831 2.911 5.152 4.82 8.506a1 1 0 00.695.49l3.953.697a6.487 6.487 0 007.515-5.262l3.176-18.01a6.487 6.487 0 00-5.262-7.516L29.291 10.6z" fill="url(#paint0_linear)"/><path d="M36.808 24.343c-1.63.425-2.616.394-3.603.363-.987-.03-1.974-.062-3.601.363-.944.274-1.489.754-2.008 1.367a.198.198 0 00-.017.23l3.152 5.167a.21.21 0 00.307.054c.434-.334 1.597-1.149 3.07-1.533 1.837-.48 2.936-.469 4.093-.457.896.008 1.827.017 3.162-.2.896-.147 1.627-.536 2.035-.795a.434.434 0 00.119-.61l-3.177-4.917a.527.527 0 00-.7-.16c-.522.296-1.504.781-2.832 1.128z" fill="url(#paint1_linear)"/><path d="M61.004 33h1.845v-4.325h4.23v-1.547h-4.23v-2.764h4.678v-1.546h-6.523V33zM71.948 33.15c1.78 0 3.003-.87 3.321-2.198l-1.68-.19c-.244.647-.84.985-1.616.985-1.163 0-1.934-.765-1.949-2.073h5.32v-.552c0-2.68-1.611-3.858-3.49-3.858-2.188 0-3.615 1.606-3.615 3.963 0 2.396 1.407 3.922 3.71 3.922zm-1.919-4.69c.055-.974.776-1.794 1.85-1.794 1.034 0 1.73.756 1.74 1.795h-3.59zM79.064 33.154c1.198 0 1.914-.562 2.242-1.203h.06V33h1.73v-5.11c0-2.02-1.646-2.626-3.103-2.626-1.605 0-2.838.716-3.236 2.108l1.68.239c.18-.522.686-.97 1.566-.97.836 0 1.293.428 1.293 1.179v.03c0 .516-.542.541-1.89.685-1.48.16-2.898.602-2.898 2.322 0 1.502 1.099 2.297 2.556 2.297zm.467-1.322c-.75 0-1.288-.343-1.288-1.005 0-.69.602-.979 1.407-1.093.473-.065 1.417-.184 1.65-.373v.9c0 .85-.685 1.57-1.769 1.57zM88.719 25.364h-1.507v-1.83h-1.8v1.83H84.33v1.392h1.083V31c-.01 1.437 1.034 2.143 2.387 2.103a3.614 3.614 0 001.059-.179l-.303-1.406c-.1.024-.304.07-.528.07-.452 0-.815-.16-.815-.886v-3.947h1.507v-1.392zM95.09 29.788c0 1.164-.83 1.74-1.625 1.74-.865 0-1.442-.611-1.442-1.58v-4.584h-1.8v4.862c0 1.834 1.045 2.873 2.546 2.873 1.144 0 1.949-.601 2.297-1.456h.08V33h1.745v-7.636h-1.8v4.424zM98.741 33h1.8v-4.49c0-.969.731-1.655 1.72-1.655.303 0 .681.055.835.104v-1.655a4.306 4.306 0 00-.646-.05c-.875 0-1.606.497-1.884 1.382h-.08v-1.272h-1.745V33zM107.358 33.15c1.78 0 3.003-.87 3.321-2.198l-1.68-.19c-.244.647-.84.985-1.616.985-1.163 0-1.934-.765-1.949-2.073h5.32v-.552c0-2.68-1.611-3.858-3.49-3.858-2.188 0-3.615 1.606-3.615 3.963 0 2.396 1.407 3.922 3.709 3.922zm-1.919-4.69c.055-.974.776-1.794 1.85-1.794 1.034 0 1.73.756 1.74 1.795h-3.59zM115.829 33h1.844v-4.325h4.231v-1.547h-4.231v-2.764h4.678v-1.546h-6.522V33zM125.752 22.818h-1.8V33h1.8V22.818zM129.8 33.154c1.198 0 1.914-.562 2.242-1.203h.06V33h1.73v-5.11c0-2.02-1.646-2.626-3.102-2.626-1.606 0-2.839.716-3.237 2.108l1.681.239c.179-.522.686-.97 1.566-.97.835 0 1.292.428 1.292 1.179v.03c0 .516-.542.541-1.889.685-1.481.16-2.898.602-2.898 2.322 0 1.502 1.098 2.297 2.555 2.297zm.467-1.322c-.75 0-1.287-.343-1.287-1.005 0-.69.601-.979 1.407-1.093.472-.065 1.417-.184 1.65-.373v.9c0 .85-.686 1.57-1.77 1.57zM138.963 36.023c2.063 0 3.584-.945 3.584-2.899v-7.76h-1.775v1.262h-.099c-.274-.551-.845-1.362-2.193-1.362-1.764 0-3.152 1.382-3.152 3.893 0 2.49 1.388 3.734 3.147 3.734 1.308 0 1.919-.701 2.198-1.263h.089v1.447c0 1.123-.745 1.585-1.77 1.585-1.083 0-1.561-.512-1.779-.959l-1.621.393c.328 1.069 1.427 1.929 3.371 1.929zm.015-4.544c-1.189 0-1.815-.925-1.815-2.332 0-1.387.616-2.406 1.815-2.406 1.158 0 1.794.96 1.794 2.406 0 1.457-.646 2.332-1.794 2.332zM150.427 27.382c-.248-1.293-1.283-2.118-3.072-2.118-1.84 0-3.093.905-3.088 2.317-.005 1.114.681 1.85 2.148 2.153l1.303.273c.701.154 1.029.438 1.029.87 0 .522-.567.915-1.422.915-.825 0-1.362-.358-1.516-1.044l-1.755.169c.223 1.402 1.402 2.232 3.276 2.232 1.909 0 3.256-.99 3.261-2.436-.005-1.089-.706-1.755-2.148-2.068l-1.302-.279c-.776-.174-1.084-.442-1.079-.884-.005-.517.567-.875 1.318-.875.83 0 1.267.452 1.407.954l1.64-.179z" fill="#fff"/><defs><linearGradient id="paint0_linear" x1="24.547" y1="10.5" x2="45.726" y2="43.284" gradientUnits="userSpaceOnUse"><stop stop-color="#FFC100"/><stop offset="1" stop-color="#E66B35"/></linearGradient><linearGradient id="paint1_linear" x1="24.547" y1="10.5" x2="45.726" y2="43.284" gradientUnits="userSpaceOnUse"><stop stop-color="#FFC100"/><stop offset="1" stop-color="#E66B35"/></linearGradient></defs></svg>