<svg xmlns="http://www.w3.org/2000/svg" viewBox="0 0 168 56" fill="currentColor" xmlns:v="https://vecta.io/nano"><path d="M29.29 10.6a6.49 6.49 0 0 0-7.515 5.262L18.6 33.872a6.49 6.49 0 0 0 5.262 7.515l9.437 1.664a.2.2 0 0 0 .207-.298L24.603 27.57c-.371-.587-.366-1.728.063-2 .098-.063.39-.324.39-.324l.498-.545.082-.09c.462-.508.88-.967 2.2-1.628l.284-.099c1.936-.605 3.012-.561 4.089-.517a10.38 10.38 0 0 0 4.092-.518c1.59-.497 3.037-1.472 3.843-2.084.358-.272.886-.192 1.124.189l5.746 9.201c.179.286.134.656-.127.87-.621.508-1.875 1.403-3.542 1.923-1.936.605-3.04.578-4.145.552s-2.21-.053-4.148.553c-1.706.533-2.387 1.237-2.614 1.54-.047.063-.071.208-.033.276l4.82 8.506a1 1 0 0 0 .695.49l3.954.697a6.49 6.49 0 0 0 7.515-5.262l3.176-18.011a6.49 6.49 0 0 0-5.262-7.515L29.29 10.6z" fill="url(#A)"/><path d="M36.808 24.343c-1.629.425-2.617.394-3.604.363s-1.973-.062-3.601.363c-.944.274-1.488.754-2.007 1.367-.055.065-.061.158-.017.231l3.151 5.166a.21.21 0 0 0 .307.054c.434-.334 1.597-1.149 3.071-1.533 1.836-.479 2.935-.468 4.092-.457.896.009 1.827.018 3.163-.2.896-.146 1.627-.535 2.035-.794.207-.132.252-.403.118-.609l-3.177-4.918c-.149-.23-.461-.294-.699-.16-.523.296-1.504.781-2.832 1.127z" fill="url(#A)"/><path d="M61.004 33h1.844v-4.325h4.231v-1.546h-4.231v-2.764h4.678v-1.546h-6.523V33zm10.944.149c1.78 0 3.003-.87 3.321-2.197l-1.68-.189c-.244.646-.84.984-1.616.984-1.163 0-1.934-.766-1.949-2.073h5.32v-.552c0-2.68-1.611-3.858-3.49-3.858-2.187 0-3.614 1.606-3.614 3.962 0 2.396 1.407 3.922 3.709 3.922zm-1.919-4.688c.055-.974.776-1.795 1.85-1.795 1.034 0 1.73.756 1.74 1.795h-3.59zm9.035 4.693c1.198 0 1.914-.562 2.242-1.203h.06V33h1.73v-5.111c0-2.018-1.646-2.625-3.102-2.625-1.606 0-2.839.716-3.237 2.108l1.68.239c.179-.522.686-.969 1.566-.969.835 0 1.293.428 1.293 1.178v.03c0 .517-.542.542-1.889.686-1.481.159-2.898.602-2.898 2.322 0 1.502 1.099 2.297 2.555 2.297zm.467-1.322c-.751 0-1.288-.343-1.288-1.004 0-.691.602-.979 1.407-1.094.472-.065 1.417-.184 1.651-.373v.9c0 .85-.686 1.571-1.77 1.571zm9.187-6.468h-1.506v-1.83h-1.8v1.83h-1.084v1.392h1.084v4.246c-.01 1.437 1.034 2.143 2.386 2.103a3.61 3.61 0 0 0 1.059-.179l-.303-1.407c-.099.025-.303.07-.527.07-.452 0-.815-.159-.815-.885v-3.947h1.506v-1.392zm6.373 4.424c0 1.163-.83 1.74-1.626 1.74-.865 0-1.442-.612-1.442-1.581v-4.584h-1.8v4.862c0 1.835 1.044 2.874 2.546 2.874 1.143 0 1.949-.602 2.297-1.457h.079V33h1.745v-7.636h-1.8v4.425zM98.741 33h1.8v-4.489c0-.969.731-1.656 1.72-1.656a3.44 3.44 0 0 1 .835.104v-1.655a4.29 4.29 0 0 0-.646-.05c-.875 0-1.606.497-1.884 1.382h-.08v-1.273h-1.745V33zm8.617.149c1.78 0 3.003-.87 3.321-2.197l-1.68-.189c-.244.646-.84.984-1.616.984-1.163 0-1.934-.766-1.949-2.073h5.32v-.552c0-2.68-1.611-3.858-3.49-3.858-2.188 0-3.615 1.606-3.615 3.962 0 2.396 1.407 3.922 3.709 3.922zm-1.919-4.688c.055-.974.776-1.795 1.85-1.795 1.034 0 1.73.756 1.74 1.795h-3.59zM115.828 33h1.845v-4.325h4.231v-1.546h-4.231v-2.764h4.678v-1.546h-6.523V33zm9.924-10.182h-1.8V33h1.8V22.818zm4.048 10.336c1.198 0 1.914-.562 2.242-1.203h.06V33h1.73v-5.111c0-2.018-1.646-2.625-3.102-2.625-1.606 0-2.839.716-3.237 2.108l1.68.239c.179-.522.687-.969 1.567-.969.835 0 1.292.428 1.292 1.178v.03c0 .517-.542.542-1.889.686-1.482.159-2.899.602-2.899 2.322 0 1.502 1.099 2.297 2.556 2.297zm.467-1.322c-.75 0-1.287-.343-1.287-1.004 0-.691.601-.979 1.407-1.094.472-.065 1.416-.184 1.65-.373v.9c0 .85-.686 1.571-1.77 1.571zm8.696 4.191c2.063 0 3.584-.945 3.584-2.898v-7.761h-1.775v1.263h-.099c-.274-.552-.845-1.362-2.193-1.362-1.765 0-3.152 1.382-3.152 3.893 0 2.491 1.387 3.734 3.147 3.734 1.308 0 1.919-.701 2.198-1.263h.089v1.447c0 1.124-.745 1.586-1.77 1.586-1.083 0-1.561-.512-1.779-.959l-1.621.393c.328 1.069 1.427 1.929 3.371 1.929zm.014-4.544c-1.188 0-1.814-.925-1.814-2.332 0-1.387.616-2.406 1.814-2.406 1.159 0 1.795.959 1.795 2.406 0 1.457-.646 2.332-1.795 2.332zm11.45-4.097c-.249-1.293-1.283-2.118-3.072-2.118-1.84 0-3.093.905-3.088 2.317-.005 1.114.681 1.849 2.148 2.153l1.302.273c.701.154 1.03.438 1.03.87 0 .522-.567.915-1.422.915-.826 0-1.362-.358-1.517-1.044l-1.755.169c.224 1.402 1.402 2.232 3.277 2.232 1.909 0 3.256-.989 3.261-2.436-.005-1.089-.706-1.755-2.148-2.068l-1.302-.278c-.776-.174-1.084-.442-1.079-.885-.005-.517.567-.875 1.317-.875.831 0 1.268.452 1.407.955l1.641-.179z" fill="#000"/><defs><linearGradient id="A" x1="24.547" y1="10.5" x2="45.726" y2="43.284" gradientUnits="userSpaceOnUse"><stop stop-color="#ffc100"/><stop offset="1" stop-color="#e66b35"/></linearGradient></defs></svg>