<svg fill="none" xmlns="http://www.w3.org/2000/svg" viewBox="0 0 20 20"><path d="M14.167 7.334H5.833a.333.333 0 100 .667h8.334a.333.333 0 100-.667zM5.833 5.334h3.334a.333.333 0 100-.667H5.833a.333.333 0 100 .667zM14.167 10H5.833a.333.333 0 100 .667h8.334a.333.333 0 100-.667zM14.167 12.666H5.833a.333.333 0 100 .667h8.334a.333.333 0 100-.667zM14.167 15.333H5.833a.333.333 0 100 .667h8.334a.333.333 0 100-.667z" fill="currentColor"/><path d="M12.971 0H2.167v20h15.666V4.862L12.971 0zm.196 1.138l3.528 3.529h-3.528V1.138zM2.833 19.333V.667H12.5v4.666h4.667v14H2.833z" fill="currentColor"/></svg>