<svg viewBox="0 0 65 64" fill="none" xmlns="http://www.w3.org/2000/svg">
<path d="M9.38281 45.5545L9.38281 55.0027C9.38281 55.2788 9.60667 55.5027 9.88281 55.5027H32.3828H54.8828C55.159 55.5027 55.3828 55.2788 55.3828 55.0027V45.5545" stroke='currentColor' stroke-width="1.5" stroke-linecap="round" stroke-linejoin="round"/>
<path d="M49.0056 27.0698L49.0056 30.4683C49.0056 33.782 46.3193 36.4683 43.0056 36.4683L41.8992 36.4683" stroke='currentColor' stroke-width="1.5" stroke-linecap="round"/>
<path d="M33.3281 9.25268C33.7423 9.25268 34.0781 8.9169 34.0781 8.50268C34.0781 8.08847 33.7423 7.75268 33.3281 7.75268L33.3281 9.25268ZM31.4765 7.75268C31.0623 7.75268 30.7265 8.08847 30.7265 8.50268C30.7265 8.9169 31.0623 9.25268 31.4765 9.25268L31.4765 7.75268ZM49.0056 17.671L48.2556 17.671L49.0056 17.671ZM48.2556 27.0694C48.2556 27.4836 48.5914 27.8194 49.0056 27.8194C49.4198 27.8194 49.7556 27.4836 49.7556 27.0694L48.2556 27.0694ZM25.7171 11.2002L25.7171 10.4502L24.2171 10.4502L24.2171 11.2002L25.7171 11.2002ZM25.9671 9.25268L33.3281 9.25268L33.3281 7.75268L25.9671 7.75268L25.9671 9.25268ZM48.2556 9.50269L48.2556 17.671L49.7556 17.671L49.7556 9.50269L48.2556 9.50269ZM48.2556 17.671L48.2556 27.0694L49.7556 27.0694L49.7556 17.671L48.2556 17.671ZM31.4765 9.25268L40.2411 9.25269L40.2411 7.75269L31.4765 7.75268L31.4765 9.25268ZM40.2411 9.25269L48.0056 9.25269L48.0056 7.75269L40.2411 7.75269L40.2411 9.25269ZM25.7171 17.8139L25.7171 11.2002L24.2171 11.2002L24.2171 17.8139L25.7171 17.8139ZM25.7171 17.8139L25.7171 9.50268L24.2171 9.50268L24.2171 17.8139L25.7171 17.8139ZM25.9671 7.75268C25.0006 7.75268 24.2171 8.53619 24.2171 9.50268L25.7171 9.50268C25.7171 9.36461 25.829 9.25268 25.9671 9.25268L25.9671 7.75268ZM49.7556 9.50269C49.7556 8.53619 48.9721 7.75269 48.0056 7.75269L48.0056 9.25269C48.1437 9.25269 48.2556 9.36462 48.2556 9.50269L49.7556 9.50269Z" fill='currentColor'/>
<path d="M41.9185 36.5382L41.9185 39.9366C41.9185 43.2504 39.2322 45.9366 35.9185 45.9366L29.8992 45.9366" stroke='currentColor' stroke-width="1.5" stroke-linecap="round"/>
<path d="M26.241 18.7211C26.6552 18.7211 26.991 18.3853 26.991 17.9711C26.991 17.5569 26.6552 17.2211 26.241 17.2211L26.241 18.7211ZM24.3894 17.2211C23.9752 17.2211 23.6394 17.5569 23.6394 17.9711C23.6394 18.3853 23.9752 18.7211 24.3894 18.7211L24.3894 17.2211ZM41.9185 27.1394L41.1685 27.1394L41.9185 27.1394ZM41.1685 36.5378C41.1685 36.952 41.5042 37.2878 41.9185 37.2878C42.3327 37.2878 42.6685 36.952 42.6685 36.5378L41.1685 36.5378ZM34.4964 46.6862C34.9106 46.6862 35.2464 46.3504 35.2464 45.9362C35.2464 45.522 34.9106 45.1862 34.4964 45.1862L34.4964 46.6862ZM18.6299 20.6686L18.6299 19.9186L17.1299 19.9186L17.1299 20.6686L18.6299 20.6686ZM18.8799 18.7211L26.241 18.7211L26.241 17.2211L18.8799 17.2211L18.8799 18.7211ZM41.1685 18.9711L41.1685 27.1394L42.6685 27.1394L42.6685 18.9711L41.1685 18.9711ZM41.1685 27.1394L41.1685 36.5378L42.6685 36.5378L42.6685 27.1394L41.1685 27.1394ZM34.4964 45.1862L18.8799 45.1862L18.8799 46.6862L34.4964 46.6862L34.4964 45.1862ZM24.3894 18.7211L33.1539 18.7211L33.1539 17.2211L24.3894 17.2211L24.3894 18.7211ZM33.1539 18.7211L40.9185 18.7211L40.9185 17.2211L33.1539 17.2211L33.1539 18.7211ZM18.6299 44.9362L18.6299 38.6991L17.1299 38.6991L17.1299 44.9362L18.6299 44.9362ZM18.6299 38.6991L18.6299 18.9711L17.1299 18.9711L17.1299 38.6991L18.6299 38.6991ZM18.6299 38.6991L18.6299 20.6686L17.1299 20.6686L17.1299 38.6991L18.6299 38.6991ZM18.8799 17.2211C17.9134 17.2211 17.1299 18.0046 17.1299 18.9711L18.6299 18.9711C18.6299 18.833 18.7418 18.7211 18.8799 18.7211L18.8799 17.2211ZM18.8799 45.1862C18.7418 45.1862 18.6299 45.0743 18.6299 44.9362L17.1299 44.9362C17.1299 45.9027 17.9134 46.6862 18.8799 46.6862L18.8799 45.1862ZM42.6685 18.9711C42.6685 18.0046 41.885 17.2211 40.9185 17.2211L40.9185 18.7211C41.0565 18.7211 41.1685 18.833 41.1685 18.9711L42.6685 18.9711Z" fill='currentColor'/>
<path d="M22.812 24.6821H36.9863" stroke='currentColor' stroke-width="1.5" stroke-linecap="round" stroke-linejoin="round"/>
<path d="M22.812 29.744H36.9863" stroke='currentColor' stroke-width="1.5" stroke-linecap="round" stroke-linejoin="round"/>
<path d="M22.812 34.7721H36.9863" stroke='currentColor' stroke-width="1.5" stroke-linecap="round" stroke-linejoin="round"/>
</svg>
