<svg viewBox="0 0 9 9" xmlns="http://www.w3.org/2000/svg"><path d="m5.61 7.55c.62-.7.3-1.42.18-2.35a.32.32 0 0 1 .1-.29l1.43-1.42a.76.76 0 0 1 .28-.15c.39-.1 1 0 1.28-.29a.34.34 0 0 0 0-.51l-2.42-2.42a.33.33 0 0 0 -.52 0c-.28.29-.2.9-.28 1.3a.53.53 0 0 1 -.13.23l-1.44 1.47a.29.29 0 0 1 -.28.09c-.89-.11-1.6-.49-2.27.11-.29.26-.29.43 0 .7l1.31 1.34.15.16-.15.15-2.7 2.69a.36.36 0 0 0 0 .54.36.36 0 0 0 .54-.05l2.63-2.68.17-.17.17.16c.45.46.9.91 1.36 1.36.21.21.42.22.59.03z" fill="currentColor"/></svg>
