<svg viewBox="0 0 64 64" fill="none" xmlns="http://www.w3.org/2000/svg"><g clip-path="url(#a)"><path d="M10.1 17c-.9-.6-1.1-1.7-.5-2.6.1-.2.3-.4.5-.5L31 .3c.6-.4 1.4-.4 2 0l20.9 13.6c.9.6 1.1 1.7.5 2.6-.1.2-.3.4-.5.5L33 30.5c-.6.4-1.4.4-2 0L10.1 17Z" fill="#326CE5"/><path d="M35.3 19.4h1.4c.6 0 1.1-.5 1.1-1.1 0-.2-.1-.4-.1-.5L33 9.5c-.3-.5-1-.7-1.5-.4-.2.1-.3.2-.4.4l-4.7 8.2c-.3.5-.1 1.2.4 1.5.2.1.4.1.5.1h1.4c.6 0 1.1.5 1.1 1.1v9.4l1 .6c.7.5 1.7.5 2.4 0l1-.6v-9.4c0-.5.5-1 1.1-1Z" fill="#C1D2F7"/><path d="m39.2 37.5-5-3.3v1.5c1.6.8 3.3 1.3 5 1.8Zm-5 1.1v2.2c1.7.5 3.3.9 5 1.3 5.4 1.3 10.6 2.6 14.7 6.7l.6.6c.4-.9.2-1.9-.6-2.4l-8.2-5.3c-2-.7-4-1.2-6-1.6-1.9-.5-3.7-1-5.5-1.5Zm-4.4-1.8-2.1-1.2-1.9 1.2c1.2.9 2.6 1.7 3.9 2.3l.1-2.3Zm6.3 6.9c-.6-.2-1.2-.3-1.9-.5v2.1c.5.1.9.2 1.4.3 5.4 1.3 10.6 2.6 14.7 6.7l1.8-1.1-.3-.3c-4.6-4.5-10.3-5.8-15.7-7.2ZM29.8 42c-2.4-.8-4.6-1.9-6.6-3.4l-1.8 1.2c2.6 2.1 5.5 3.4 8.5 4.4V42h-.1Zm0 4.7c-4.1-1.1-7.9-2.4-11.2-5.2l-1.8 1.2c3.8 3.5 8.4 5 13 6.2v-2.2Zm4.4 3.2c4.3 1.1 8.3 2.4 11.6 5.4l1.8-1.2c-4-3.7-8.7-5.2-13.4-6.4v2.2Zm-20-5.5-1.8 1.2.2.2c4.5 4.5 10.2 5.9 15.7 7.3 4.7 1.2 9.3 2.3 13.1 5.3l1.8-1.2c-4.3-3.6-9.4-4.9-14.4-6.1-5.4-1.4-10.5-2.7-14.6-6.7Zm-3.8 3.5-.6-.6c-.7.7-.7 1.9 0 2.6.1.1.2.2.3.2l6.1 4c2.7 1.1 5.6 1.8 8.4 2.5 4.4 1.1 8.5 2.1 12.1 4.6l1.9-1.2c-4.1-3.1-8.9-4.3-13.5-5.4-5.4-1.3-10.6-2.6-14.7-6.7Zm20 15.4 1.2.6c.5.1 1 0 1.4-.3l1-.7c-3.3-2.2-7-3.3-10.7-4.3l7.1 4.7Z" fill="#326CE5"/></g><defs><clipPath id="a"><path fill="#fff" d="M0 0h64v64H0z"/></clipPath></defs></svg>