<svg viewBox="0 0 32 32" fill="none" xmlns="http://www.w3.org/2000/svg"><path d="M.77 23.814a.5.5 0 1 0 1 0h-1Zm13.916 0a.5.5 0 1 0 1 0h-1Zm-13.417 0h.5v-.988h-1v.988h.5Zm0-.988h.5c0-3.543 2.89-6.419 6.459-6.419v-1c-4.117 0-7.459 3.319-7.459 7.419h.5Zm6.959-6.919v.5c3.569 0 6.458 2.877 6.458 6.419h1c0-4.1-3.342-7.419-7.458-7.419v.5Zm6.958 6.919h-.5v.988h1v-.988h-.5Zm-6.958-6.919v.5c2.469 0 4.476-1.991 4.476-4.453h-1c0 1.904-1.554 3.453-3.476 3.453v.5Zm3.976-3.953h.5c0-2.463-2.007-4.454-4.476-4.454v1c1.922 0 3.476 1.549 3.476 3.454h.5ZM8.228 8v-.5c-2.47 0-4.477 1.991-4.477 4.454h1c0-1.905 1.554-3.454 3.477-3.454V8ZM4.25 11.954h-.5c0 2.462 2.007 4.453 4.477 4.453v-1c-1.923 0-3.477-1.549-3.477-3.453h-.5Zm12.334 11.86a.5.5 0 1 0 1 0h-1Zm13.916 0a.5.5 0 1 0 1 0h-1Zm-13.416 0h.5v-.988h-1v.988h.5Zm0-.988h.5c0-3.543 2.888-6.419 6.458-6.419v-1c-4.117 0-7.459 3.319-7.459 7.419h.5Zm6.958-6.919v.5c3.57 0 6.458 2.877 6.458 6.419h1c0-4.1-3.342-7.419-7.458-7.419v.5ZM31 22.826h-.5v.988h1v-.988H31Zm-6.958-6.919v.5c2.47 0 4.476-1.991 4.476-4.453h-1c0 1.904-1.554 3.453-3.476 3.453v.5Zm3.976-3.953h.5c0-2.463-2.007-4.454-4.476-4.454v1c1.922 0 3.476 1.549 3.476 3.454h.5ZM24.042 8v-.5c-2.47 0-4.476 1.991-4.476 4.454h1c0-1.905 1.553-3.454 3.476-3.454V8Zm-3.976 3.954h-.5c0 2.462 2.006 4.453 4.476 4.453v-1c-1.923 0-3.476-1.549-3.476-3.453h-.5Z" fill="#0278D5"/><path d="M5.697 21.916h5.06m10.755 0h5.06m-18.345-2.53v5.06" stroke="#0278D5" stroke-linecap="round" stroke-linejoin="round"/></svg>