<svg viewBox="0 0 32 32" xmlns="http://www.w3.org/2000/svg">
<rect x="11.5" y="3.5" width="7" height="7" rx="3.5" stroke="#0278D5"/>
<rect x="11.5" y="12.5" width="7" height="7" rx="3.5" stroke="#0278D5"/>
<rect x="11.5" y="21.5" width="7" height="7" rx="3.5" stroke="#0278D5"/>
<rect x="22.5" y="3.5" width="7" height="7" rx="3.5" fill="#0278D5"/>
<rect x="22.5" y="3.5" width="7" height="7" rx="3.5" stroke="#0278D5"/>
<rect x="22.5" y="12.5" width="7" height="7" rx="3.5" fill="#0278D5"/>
<rect x="22.5" y="12.5" width="7" height="7" rx="3.5" stroke="#0278D5"/>
<rect x="22.5" y="21.5" width="7" height="7" rx="3.5" fill="#0278D5"/>
<rect x="22.5" y="21.5" width="7" height="7" rx="3.5" stroke="#0278D5"/>
<rect x="2.5" y="3.5" width="7" height="7" rx="3.5" stroke="#0278D5"/>
<rect x="2.5" y="12.5" width="7" height="7" rx="3.5" stroke="#0278D5"/>
<rect x="2.5" y="21.5" width="7" height="7" rx="3.5" stroke="#0278D5"/>
<line x1="20.5" y1="3.5" x2="20.5" y2="28.5" stroke="#0278D5" stroke-linecap="round"/>
</svg>
