<svg viewBox="0 0 16 16" fill="none" xmlns="http://www.w3.org/2000/svg">
<path fill-rule="evenodd" clip-rule="evenodd" d="M1.53878 2.47786C1.82253 0.852006 3.37922 -0.237486 5.01574 0.0444112L13.5059 1.50687C15.1424 1.78876 16.239 3.3353 15.9553 4.96115L14.4612 13.5221C14.1775 15.148 12.6208 16.2375 10.9843 15.9556L2.49413 14.4931C0.857601 14.2112 -0.239044 12.6647 0.0447025 11.0388L1.53878 2.47786ZM9.99113 1.86443L13.3427 2.44176C14.4595 2.63413 15.2079 3.68953 15.0143 4.79906L13.5202 13.36C13.3266 14.4696 12.2642 15.2131 11.1474 15.0207L7.14667 14.3316L13.1375 9.59511C13.2452 9.50485 13.3072 9.37197 13.3071 9.23202C13.3069 9.09208 13.2446 8.95934 13.1367 8.86932L7.23683 3.94488L9.9823 1.87208C9.98529 1.86956 9.98823 1.86701 9.99113 1.86443ZM8.7445 1.6497L4.85258 0.979302C3.73577 0.786928 2.67344 1.53043 2.47981 2.63995L0.985729 11.2009C0.792092 12.3105 1.54047 13.3659 2.65728 13.5582L5.89465 14.1159L8.60509 12.1538L2.63496 7.32385C2.52499 7.23488 2.46051 7.10195 2.45899 6.96106C2.45748 6.82016 2.51907 6.68589 2.6271 6.5946L8.7445 1.6497ZM12.0881 9.23338L9.34783 11.5311L3.68294 6.94804L6.49905 4.56834L12.0881 9.23338Z" fill="#B0B1C4"/>
</svg>
