<svg viewBox="0 0 35 32" fill="none" xmlns="http://www.w3.org/2000/svg"><path d="M27 21v-1.125C27 15.525 23.581 12 19.364 12m0 0C16.954 12 15 9.985 15 7.5S16.954 3 19.364 3s4.363 2.015 4.363 4.5-1.953 4.5-4.363 4.5Zm-7.26 3.958h.344c2.412 0 3.619 0 4.077.434.395.374.57.926.464 1.46-.124.618-1.109 1.315-3.078 2.708l-3.218 2.276c-1.97 1.393-2.954 2.09-3.078 2.708a1.583 1.583 0 0 0 .465 1.46c.458.433 1.664.433 4.076.433h.74M9.333 15.959a2.375 2.375 0 1 1-4.75 0 2.375 2.375 0 0 1 4.75 0Zm11.084 11.084a2.375 2.375 0 1 1-4.75 0 2.375 2.375 0 0 1 4.75 0Z" stroke="#0278D5" stroke-linecap="round" stroke-linejoin="round"/></svg>