<svg viewBox="0 0 16 16" fill="none" xmlns="http://www.w3.org/2000/svg">
<path fill-rule="evenodd" clip-rule="evenodd" d="M9.90106 15.008H13.8554V12.1074H9.90106V15.008ZM1.99234 15.008V12.1074H5.9467V15.008H1.99234ZM6.42325 7.14976H5.74708V8.74975H13.3604C13.6246 8.74975 13.8566 8.9806 13.8566 9.24117C13.8531 9.37031 13.7996 9.49317 13.7073 9.58441C13.615 9.67564 13.4908 9.72828 13.3604 9.73146H12.3692V11.1372H14.3516C14.6158 11.1372 14.8478 11.3657 14.8478 11.6274V15.5097C14.8442 15.6388 14.7908 15.7617 14.6985 15.8529C14.6061 15.9442 14.482 15.9968 14.3516 16H9.40489C9.1418 16 8.90872 15.7714 8.90872 15.5086V11.6274C8.90872 11.3657 9.1418 11.136 9.40489 11.136H11.3873V9.73146H4.45934V11.1372H6.44171C6.7048 11.1372 6.93788 11.3657 6.93788 11.6274V15.5097C6.9341 15.6388 6.88057 15.7615 6.7883 15.8526C6.69603 15.9438 6.57201 15.9965 6.44171 16H1.49617C1.3655 15.9971 1.241 15.9444 1.14858 15.8528C1.05616 15.7613 1.00294 15.638 1 15.5086V11.6274C1 11.3657 1.23193 11.136 1.49617 11.136H3.47854V9.73146H2.4862C2.35573 9.72826 2.23152 9.67542 2.13935 9.58391C2.04717 9.49241 1.99411 9.36926 1.99119 9.24003C1.99119 8.9806 2.22312 8.75089 2.48736 8.75089H4.75474V7.14976H3.33084C3.20027 7.14657 3.07592 7.09377 2.98356 7.00229C2.8912 6.91081 2.83789 6.78766 2.83467 6.65833V2.7772C2.83467 2.51663 3.06661 2.28692 3.33084 2.28692L5.74592 2.29835C5.74592 2.29835 6.3044 2.29835 6.3044 2.77835C6.3044 3.25835 5.80823 3.27892 5.80823 3.27892L3.82586 3.26749V6.17033H6.38979C7.11558 6.17033 7.34982 7.1509 6.4221 7.1509L6.42325 7.14976Z" fill="#B0B1C4"/>
<path fill-rule="evenodd" clip-rule="evenodd" d="M15.8943 5.01719L15.2712 4.51663C15.3303 4.17512 15.3303 3.82614 15.2712 3.48463L15.8943 2.98406C15.9407 2.94763 15.9742 2.89757 15.9899 2.84108C16.0057 2.78459 16.0029 2.72461 15.982 2.66978L15.9739 2.64692C15.8 2.19363 15.5425 1.77627 15.2147 1.41607L15.1974 1.39664C15.1558 1.35204 15.1021 1.32033 15.0427 1.30532C14.9833 1.29031 14.9208 1.29266 14.8628 1.31207L14.0897 1.57035C13.8028 1.34989 13.4822 1.17627 13.14 1.05607L12.99 0.297217C12.9774 0.238766 12.9471 0.185497 12.9032 0.144473C12.8593 0.103448 12.8039 0.0766058 12.7442 0.0675036L12.7188 0.0629321C12.2178 -0.0209774 11.706 -0.0209774 11.2049 0.0629321L11.1796 0.0675036C11.1201 0.0765295 11.0647 0.103204 11.0209 0.144009C10.977 0.184814 10.9466 0.237833 10.9338 0.296074L10.7838 1.0595C10.4437 1.17944 10.1251 1.35227 9.8399 1.5715L9.05988 1.31207C9.00183 1.29251 8.93929 1.29009 8.87988 1.30511C8.82046 1.32012 8.76674 1.35192 8.72525 1.39664L8.7091 1.41607C8.38162 1.77653 8.12421 2.19382 7.94984 2.64692L7.94176 2.66978C7.92088 2.72461 7.91811 2.78459 7.93388 2.84108C7.94964 2.89757 7.98311 2.94763 8.02946 2.98406L8.66179 3.49034C8.60263 3.82763 8.60263 4.17249 8.66179 4.50977L8.02946 5.01491C7.98311 5.05134 7.94964 5.1014 7.93388 5.15789C7.91811 5.21438 7.92088 5.27436 7.94176 5.32919L7.94984 5.35205C8.12292 5.80233 8.37678 6.21833 8.7091 6.58404L8.7264 6.60233C8.80718 6.69376 8.94103 6.7269 9.06103 6.6869L9.8399 6.42747C10.1238 6.6469 10.4411 6.81947 10.7826 6.94061L10.9326 7.7029C10.9557 7.81947 11.0538 7.9109 11.1796 7.93147L11.2049 7.93604C11.706 8.02045 12.2178 8.02045 12.7188 7.93604L12.7442 7.93261C12.8039 7.92351 12.8593 7.89667 12.9032 7.85564C12.9471 7.81462 12.9774 7.76135 12.99 7.7029L13.14 6.94404C13.485 6.82176 13.8035 6.65033 14.0897 6.42976L14.8628 6.6869C14.9208 6.70646 14.9833 6.70888 15.0428 6.69386C15.1022 6.67885 15.1559 6.64705 15.1974 6.60233L15.2147 6.58404C15.5459 6.21719 15.802 5.80233 15.9739 5.35205L15.982 5.32919C16.0027 5.2747 16.0054 5.2151 15.9896 5.15901C15.9739 5.10292 15.9405 5.05325 15.8943 5.01719ZM14.5927 3.58863C14.6409 3.86123 14.6409 4.14003 14.5927 4.41263L14.5304 4.77034L15.2412 5.34176C15.1329 5.5759 14.997 5.79649 14.8362 5.9989L13.9523 5.70519L13.6523 5.9349C13.4245 6.11032 13.1697 6.24845 12.8977 6.34405L12.5354 6.47205L12.3646 7.33833C12.0957 7.36685 11.8246 7.36685 11.5557 7.33833L11.385 6.46862L11.0249 6.33947C10.7546 6.24377 10.5015 6.10605 10.2749 5.93148L9.97606 5.69948L9.08757 5.99662C8.927 5.79385 8.7907 5.57333 8.6814 5.33948L9.40027 4.76348L9.33796 4.40577C9.29217 4.1372 9.29217 3.86292 9.33796 3.59434L9.40027 3.23663L8.6814 2.66063C8.78871 2.42749 8.92487 2.20807 9.08642 2.00349L9.97606 2.30064L10.2761 2.06864C10.5011 1.89492 10.7538 1.75664 11.0249 1.66064L11.3861 1.53264L11.5557 0.664072C11.825 0.63546 12.0965 0.63546 12.3658 0.664072L12.5365 1.5315L12.8988 1.65835C13.1723 1.7555 13.4262 1.89264 13.6535 2.06749L13.9535 2.29835L14.8362 2.00464C14.9978 2.20921 15.1339 2.42978 15.2424 2.66178L14.5316 3.23206L14.5927 3.58863Z" fill="#B0B1C4"/>
<path fill-rule="evenodd" clip-rule="evenodd" d="M12 2.34635C11.5873 2.34635 11.1915 2.50872 10.8997 2.79774C10.6079 3.08676 10.444 3.47875 10.444 3.88749C10.444 4.29622 10.6079 4.68821 10.8997 4.97723C11.1915 5.26625 11.5873 5.42862 12 5.42862C12.4127 5.42862 12.8084 5.26625 13.1002 4.97723C13.392 4.68821 13.556 4.29622 13.556 3.88749C13.556 3.47875 13.392 3.08676 13.1002 2.79774C12.8084 2.50872 12.4127 2.34635 12 2.34635ZM12.7004 4.58177C12.6087 4.67316 12.4996 4.7457 12.3795 4.79519C12.2594 4.84469 12.1306 4.87017 12.0005 4.87017C11.8705 4.87017 11.7417 4.84469 11.6216 4.79519C11.5014 4.7457 11.3924 4.67316 11.3007 4.58177C11.2084 4.49095 11.1352 4.38296 11.0852 4.264C11.0353 4.14504 11.0095 4.01747 11.0095 3.88863C11.0095 3.75978 11.0353 3.63221 11.0852 3.51326C11.1352 3.3943 11.2084 3.2863 11.3007 3.19549C11.3923 3.10408 11.5012 3.03156 11.6212 2.98213C11.7412 2.93269 11.87 2.90732 12 2.90749C12.1966 2.90568 12.3893 2.96213 12.5534 3.06959C12.7174 3.17704 12.8453 3.33061 12.9206 3.51056C12.9958 3.69051 13.0151 3.88864 12.9759 4.07951C12.9366 4.27038 12.8407 4.44529 12.7004 4.58177Z" fill="#B0B1C4"/>
</svg>
