<svg viewBox="0 0 32 32" fill="none" xmlns="http://www.w3.org/2000/svg"><path d="M13 16h1.426a1 1 0 0 0 1-1V6a1 1 0 0 1 1-1H21" stroke="#0278D5" stroke-linecap="round"/><path d="m19 2 2 3-2 3m0 5 2 3-2 3" stroke="#0278D5" stroke-linecap="round" stroke-linejoin="round"/><path d="m19 24 2 3-2 3" stroke="#0278D5" stroke-linecap="round" stroke-linejoin="round" stroke-dasharray="2 2"/><path d="M15.25 17v9a1 1 0 0 0 1 1h4" stroke="#0278D5" stroke-linecap="round" stroke-dasharray="2 2"/><path d="M21 16h-9" stroke="#0278D5" stroke-linecap="round"/><path d="M23.5 31a.5.5 0 0 0 1 0h-1Zm7 0a.5.5 0 0 0 1 0h-1ZM24 31h.5v-.5h-1v.5h.5Zm0-.5h.5a3 3 0 0 1 3-3v-1a4 4 0 0 0-4 4h.5Zm3.5-3.5v.5a3 3 0 0 1 3 3h1a4 4 0 0 0-4-4v.5Zm3.5 3.5h-.5v.5h1v-.5H31ZM27.5 27v.5A2.5 2.5 0 0 0 30 25h-1a1.5 1.5 0 0 1-1.5 1.5v.5Zm2-2h.5a2.5 2.5 0 0 0-2.5-2.5v1A1.5 1.5 0 0 1 29 25h.5Zm-2-2v-.5A2.5 2.5 0 0 0 25 25h1a1.5 1.5 0 0 1 1.5-1.5V23Zm-2 2H25a2.5 2.5 0 0 0 2.5 2.5v-1A1.5 1.5 0 0 1 26 25h-.5Zm-2-5a.5.5 0 0 0 1 0h-1Zm7 0a.5.5 0 0 0 1 0h-1ZM24 20h.5v-.5h-1v.5h.5Zm0-.5h.5a3 3 0 0 1 3-3v-1a4 4 0 0 0-4 4h.5Zm3.5-3.5v.5a3 3 0 0 1 3 3h1a4 4 0 0 0-4-4v.5Zm3.5 3.5h-.5v.5h1v-.5H31ZM27.5 16v.5A2.5 2.5 0 0 0 30 14h-1a1.5 1.5 0 0 1-1.5 1.5v.5Zm2-2h.5a2.5 2.5 0 0 0-2.5-2.5v1A1.5 1.5 0 0 1 29 14h.5Zm-2-2v-.5A2.5 2.5 0 0 0 25 14h1a1.5 1.5 0 0 1 1.5-1.5V12Zm-2 2H25a2.5 2.5 0 0 0 2.5 2.5v-1A1.5 1.5 0 0 1 26 14h-.5Zm-2-5a.5.5 0 0 0 1 0h-1Zm7 0a.5.5 0 0 0 1 0h-1ZM24 9h.5v-.5h-1V9h.5Zm0-.5h.5a3 3 0 0 1 3-3v-1a4 4 0 0 0-4 4h.5ZM27.5 5v.5a3 3 0 0 1 3 3h1a4 4 0 0 0-4-4V5ZM31 8.5h-.5V9h1v-.5H31ZM27.5 5v.5A2.5 2.5 0 0 0 30 3h-1a1.5 1.5 0 0 1-1.5 1.5V5Zm2-2h.5A2.5 2.5 0 0 0 27.5.5v1A1.5 1.5 0 0 1 29 3h.5Zm-2-2V.5A2.5 2.5 0 0 0 25 3h1a1.5 1.5 0 0 1 1.5-1.5V1Zm-2 2H25a2.5 2.5 0 0 0 2.5 2.5v-1A1.5 1.5 0 0 1 26 3h-.5Z" fill="#0278D5"/><path d="M23.5 9a.5.5 0 0 0 1 0h-1Zm7 0a.5.5 0 0 0 1 0h-1ZM24 9h.5v-.5h-1V9h.5Zm0-.5h.5a3 3 0 0 1 3-3v-1a4 4 0 0 0-4 4h.5ZM27.5 5v.5a3 3 0 0 1 3 3h1a4 4 0 0 0-4-4V5ZM31 8.5h-.5V9h1v-.5H31ZM27.5 5v.5A2.5 2.5 0 0 0 30 3h-1a1.5 1.5 0 0 1-1.5 1.5V5Zm2-2h.5A2.5 2.5 0 0 0 27.5.5v1A1.5 1.5 0 0 1 29 3h.5Zm-2-2V.5A2.5 2.5 0 0 0 25 3h1a1.5 1.5 0 0 1 1.5-1.5V1Zm-2 2H25a2.5 2.5 0 0 0 2.5 2.5v-1A1.5 1.5 0 0 1 26 3h-.5Zm-20 13.4a.9.9 0 1 0 0-1.8.9.9 0 0 0 0 1.8Z" fill="#0278D5"/><path d="M5.5 20a4.5 4.5 0 1 0 0-9 4.5 4.5 0 0 0 0 9Z" stroke="#0278D5" stroke-linecap="round" stroke-linejoin="round"/><path d="M5.5 18.2a2.7 2.7 0 1 0 0-5.4 2.7 2.7 0 0 0 0 5.4Z" stroke="#0278D5" stroke-linecap="round" stroke-linejoin="round"/><path d="M5.5 16.4a.9.9 0 1 0 0-1.8.9.9 0 0 0 0 1.8Z" stroke="#0278D5" stroke-linecap="round" stroke-linejoin="round"/></svg>