<svg viewBox="0 0 16 16" fill="none" xmlns="http://www.w3.org/2000/svg">
<g clip-path="url(#clip0_1048_37324)">
<path fill-rule="evenodd" clip-rule="evenodd" d="M1.37143 0.685715C1.37143 0.307005 1.06442 0 0.685715 0C0.307005 0 0 0.307005 0 0.685715V15.3143C0 15.693 0.307005 16 0.685715 16H15.3143C15.693 16 16 15.693 16 15.3143C16 14.9356 15.693 14.6286 15.3143 14.6286H1.37143V12.4114L7.98469 6.2115L10.2581 8.48487C10.5259 8.75266 10.96 8.75266 11.2278 8.48487L15.3421 4.37058C15.6099 4.1028 15.6099 3.66862 15.3421 3.40084C15.0743 3.13305 14.6401 3.13305 14.3724 3.40084L10.7429 7.03025L8.48496 4.77227C8.22325 4.51056 7.8011 4.50376 7.5311 4.75688L1.37143 10.5316V0.685715Z" fill="#B0B1C4"/>
</g>
<defs>
<clipPath id="clip0_1048_37324">
<rect width="16" height="16" fill="white"/>
</clipPath>
</defs>
</svg>
