<svg viewBox="0 0 16 16" fill="none" xmlns="http://www.w3.org/2000/svg">
<mask id="path-1-inside-1_1048_37322" fill="white">
<path fill-rule="evenodd" clip-rule="evenodd" d="M0.685669 0.185677C0.409527 0.185677 0.185669 0.409534 0.185669 0.685677V7.08571C0.185669 7.36185 0.409527 7.58571 0.685669 7.58571H5.25712C5.53326 7.58571 5.75712 7.36185 5.75712 7.08571V0.685677C5.75712 0.409534 5.53326 0.185677 5.25712 0.185677H0.685669ZM1.18567 6.58571V1.18568H4.75712V6.58571H1.18567ZM0.685669 9.32858C0.409527 9.32858 0.185669 9.55244 0.185669 9.82858V15.3143C0.185669 15.5905 0.409527 15.8143 0.685669 15.8143H8.91428C9.19042 15.8143 9.41428 15.5905 9.41428 15.3143V9.82858C9.41428 9.55244 9.19042 9.32858 8.91428 9.32858H0.685669ZM1.18567 14.8143V10.3286H8.41428V14.8143H1.18567ZM7.50005 0.685677C7.50005 0.409534 7.72391 0.185677 8.00005 0.185677H15.3144C15.5905 0.185677 15.8144 0.409534 15.8144 0.685677V7.08571C15.8144 7.36185 15.5905 7.58571 15.3144 7.58571H8.00005C7.72391 7.58571 7.50005 7.36185 7.50005 7.08571V0.685677ZM8.50005 1.18568V6.58571H14.8144V1.18568H8.50005ZM11.6572 9.32858C11.5245 9.32858 11.3974 9.38126 11.3036 9.47502C11.2098 9.56879 11.1572 9.69597 11.1572 9.82858V15.3143C11.1572 15.5905 11.381 15.8143 11.6572 15.8143H15.3143C15.5905 15.8143 15.8143 15.5905 15.8143 15.3143V9.82858C15.8143 9.55244 15.5905 9.32858 15.3143 9.32858H11.6572ZM12.1572 14.8143V10.3286H14.8143V14.8143H12.1572Z"/>
</mask>
<path d="M1.18567 1.18568V0.185677C0.633384 0.185677 0.185669 0.633392 0.185669 1.18568L1.18567 1.18568ZM1.18567 6.58571H0.185669C0.185669 7.138 0.633384 7.58571 1.18567 7.58571L1.18567 6.58571ZM4.75712 1.18568H5.75712C5.75712 0.633392 5.30941 0.185677 4.75712 0.185677V1.18568ZM4.75712 6.58571V7.58571C5.30941 7.58571 5.75712 7.138 5.75712 6.58571H4.75712ZM1.18567 10.3286V9.32858C0.633384 9.32858 0.185669 9.77629 0.185669 10.3286H1.18567ZM1.18567 14.8143H0.185669C0.185669 15.3666 0.633384 15.8143 1.18567 15.8143L1.18567 14.8143ZM8.41428 10.3286H9.41428C9.41428 9.77629 8.96657 9.32858 8.41428 9.32858V10.3286ZM8.41428 14.8143V15.8143C8.96657 15.8143 9.41428 15.3666 9.41428 14.8143H8.41428ZM8.50005 6.58571H7.50005C7.50005 7.138 7.94776 7.58571 8.50005 7.58571V6.58571ZM8.50005 1.18568V0.185677C7.94776 0.185677 7.50005 0.633392 7.50005 1.18568L8.50005 1.18568ZM14.8144 6.58571V7.58571C15.3667 7.58571 15.8144 7.138 15.8144 6.58571H14.8144ZM14.8144 1.18568H15.8144C15.8144 0.633392 15.3667 0.185677 14.8144 0.185677V1.18568ZM12.1572 10.3286V9.32858C11.6049 9.32858 11.1572 9.77629 11.1572 10.3286H12.1572ZM12.1572 14.8143H11.1572C11.1572 15.3666 11.6049 15.8143 12.1572 15.8143V14.8143ZM14.8143 10.3286H15.8143C15.8143 9.77629 15.3666 9.32858 14.8143 9.32858V10.3286ZM14.8143 14.8143V15.8143C15.3666 15.8143 15.8143 15.3666 15.8143 14.8143H14.8143ZM1.18567 0.685677C1.18567 0.961819 0.961811 1.18568 0.685669 1.18568V-0.814323C-0.142758 -0.814323 -0.814331 -0.142751 -0.814331 0.685677H1.18567ZM1.18567 7.08571V0.685677H-0.814331V7.08571H1.18567ZM0.685669 6.58571C0.961812 6.58571 1.18567 6.80957 1.18567 7.08571H-0.814331C-0.814331 7.91414 -0.142759 8.58571 0.685669 8.58571V6.58571ZM5.25712 6.58571H0.685669V8.58571H5.25712V6.58571ZM4.75712 7.08571C4.75712 6.80957 4.98098 6.58571 5.25712 6.58571V8.58571C6.08555 8.58571 6.75712 7.91414 6.75712 7.08571H4.75712ZM4.75712 0.685677V7.08571H6.75712V0.685677H4.75712ZM5.25712 1.18568C4.98098 1.18568 4.75712 0.961818 4.75712 0.685677H6.75712C6.75712 -0.14275 6.08555 -0.814323 5.25712 -0.814323V1.18568ZM0.685669 1.18568H5.25712V-0.814323H0.685669V1.18568ZM0.185669 1.18568V6.58571H2.18567V1.18568H0.185669ZM4.75712 0.185677H1.18567V2.18568H4.75712V0.185677ZM5.75712 6.58571V1.18568H3.75712V6.58571H5.75712ZM1.18567 7.58571H4.75712V5.58571H1.18567V7.58571ZM1.18567 9.82858C1.18567 10.1047 0.961812 10.3286 0.685669 10.3286V8.32858C-0.142759 8.32858 -0.814331 9.00015 -0.814331 9.82858H1.18567ZM1.18567 15.3143V9.82858H-0.814331V15.3143H1.18567ZM0.685669 14.8143C0.961812 14.8143 1.18567 15.0382 1.18567 15.3143H-0.814331C-0.814331 16.1427 -0.142759 16.8143 0.685669 16.8143V14.8143ZM8.91428 14.8143H0.685669V16.8143H8.91428V14.8143ZM8.41428 15.3143C8.41428 15.0382 8.63814 14.8143 8.91428 14.8143V16.8143C9.74271 16.8143 10.4143 16.1427 10.4143 15.3143H8.41428ZM8.41428 9.82858V15.3143H10.4143V9.82858H8.41428ZM8.91428 10.3286C8.63814 10.3286 8.41428 10.1047 8.41428 9.82858H10.4143C10.4143 9.00015 9.74271 8.32858 8.91428 8.32858V10.3286ZM0.685669 10.3286H8.91428V8.32858H0.685669V10.3286ZM0.185669 10.3286V14.8143H2.18567V10.3286H0.185669ZM8.41428 9.32858H1.18567V11.3286H8.41428V9.32858ZM9.41428 14.8143V10.3286H7.41428V14.8143H9.41428ZM1.18567 15.8143H8.41428V13.8143H1.18567V15.8143ZM8.00005 -0.814323C7.17162 -0.814323 6.50005 -0.14275 6.50005 0.685677H8.50005C8.50005 0.961819 8.27619 1.18568 8.00005 1.18568V-0.814323ZM15.3144 -0.814323H8.00005V1.18568H15.3144V-0.814323ZM16.8144 0.685677C16.8144 -0.142751 16.1428 -0.814323 15.3144 -0.814323V1.18568C15.0382 1.18568 14.8144 0.961819 14.8144 0.685677H16.8144ZM16.8144 7.08571V0.685677H14.8144V7.08571H16.8144ZM15.3144 8.58571C16.1428 8.58571 16.8144 7.91414 16.8144 7.08571H14.8144C14.8144 6.80957 15.0382 6.58571 15.3144 6.58571V8.58571ZM8.00005 8.58571H15.3144V6.58571H8.00005V8.58571ZM6.50005 7.08571C6.50005 7.91414 7.17162 8.58571 8.00005 8.58571V6.58571C8.27619 6.58571 8.50005 6.80957 8.50005 7.08571H6.50005ZM6.50005 0.685677V7.08571H8.50005V0.685677H6.50005ZM9.50005 6.58571V1.18568H7.50005V6.58571H9.50005ZM14.8144 5.58571H8.50005V7.58571H14.8144V5.58571ZM13.8144 1.18568V6.58571H15.8144V1.18568H13.8144ZM8.50005 2.18568H14.8144V0.185677H8.50005V2.18568ZM12.0107 10.1821C11.9169 10.2759 11.7898 10.3286 11.6572 10.3286V8.32858C11.2593 8.32858 10.8778 8.48661 10.5965 8.76792L12.0107 10.1821ZM12.1572 9.82858C12.1572 9.96118 12.1045 10.0884 12.0107 10.1821L10.5965 8.76792C10.3152 9.04922 10.1572 9.43076 10.1572 9.82858H12.1572ZM12.1572 15.3143V9.82858H10.1572V15.3143H12.1572ZM11.6572 14.8143C11.9333 14.8143 12.1572 15.0382 12.1572 15.3143H10.1572C10.1572 16.1427 10.8287 16.8143 11.6572 16.8143V14.8143ZM15.3143 14.8143H11.6572V16.8143H15.3143V14.8143ZM14.8143 15.3143C14.8143 15.0382 15.0382 14.8143 15.3143 14.8143V16.8143C16.1427 16.8143 16.8143 16.1427 16.8143 15.3143H14.8143ZM14.8143 9.82858V15.3143H16.8143V9.82858H14.8143ZM15.3143 10.3286C15.0382 10.3286 14.8143 10.1047 14.8143 9.82858H16.8143C16.8143 9.00015 16.1427 8.32858 15.3143 8.32858V10.3286ZM11.6572 10.3286H15.3143V8.32858H11.6572V10.3286ZM11.1572 10.3286V14.8143H13.1572V10.3286H11.1572ZM14.8143 9.32858H12.1572V11.3286H14.8143V9.32858ZM15.8143 14.8143V10.3286H13.8143V14.8143H15.8143ZM12.1572 15.8143H14.8143V13.8143H12.1572V15.8143Z" fill="#B0B1C4" mask="url(#path-1-inside-1_1048_37322)"/>
</svg>
