<svg viewBox="0 0 16 16" fill="none" xmlns="http://www.w3.org/2000/svg">
<path fill-rule="evenodd" clip-rule="evenodd" d="M7.99999 0C5.44031 0 3.36528 2.0902 3.36528 4.6686C3.36528 6.79732 4.77965 8.59328 6.71343 9.15497C5.18681 9.34236 3.87742 9.88627 2.89103 10.8655C1.63561 12.1118 1 12.9672 1 15.3883C1 15.7262 1.27191 16 1.60731 16C1.94272 16 2.21461 15.7262 2.21461 15.3883C2.21461 13.1731 2.79359 12.68 3.74361 11.7369C4.69542 10.792 6.11636 10.3031 7.99992 10.3031C9.88349 10.3031 11.3045 10.792 12.2564 11.7369C13.2063 12.68 13.7854 13.1731 13.7854 15.3883C13.7854 15.7262 14.0572 16 14.3927 16C14.7281 16.0001 15 15.7262 15 15.3884C15 12.9672 14.3643 12.1118 13.1089 10.8655C12.1225 9.88628 10.8131 9.34238 9.28652 9.15498C11.2202 8.59331 12.6347 6.79733 12.6347 4.6686C12.6347 2.0902 10.5597 0 7.99999 0ZM4.57989 4.6686C4.57989 2.76592 6.11112 1.22349 7.99999 1.22349C9.88885 1.22349 11.4201 2.76592 11.4201 4.6686C11.4201 6.57127 9.88885 8.1137 7.99999 8.1137C6.11112 8.1137 4.57989 6.57127 4.57989 4.6686Z" fill="#9293AB"/>
</svg>
