<svg viewBox="0 0 16 16" fill="none" xmlns="http://www.w3.org/2000/svg">
<path fill-rule="evenodd" clip-rule="evenodd" d="M6.33065 1.09352C6.33065 0.489587 6.82023 0 7.42417 0H8.57525C9.17919 0 9.66877 0.489588 9.66877 1.09353V1.61537C10.2544 1.77723 10.807 2.01816 11.3143 2.32578L11.704 1.93612C12.131 1.50908 12.8234 1.50908 13.2505 1.93612L14.0644 2.75006C14.4915 3.17711 14.4915 3.86949 14.0644 4.29654L13.6574 4.70351C13.6556 4.70533 13.6521 4.7094 13.6508 4.72052C13.6494 4.73291 13.6517 4.74978 13.661 4.76651C13.9187 5.23211 14.1216 5.73252 14.2607 6.25893C14.2676 6.28475 14.2818 6.3048 14.2968 6.31702C14.3107 6.32835 14.3221 6.33093 14.3309 6.33093L14.9065 6.33093C15.5104 6.33093 16 6.82052 16 7.42446V8.57554C16 9.17948 15.5104 9.66906 14.9065 9.66906H14.3091C14.2973 9.66906 14.2831 9.67268 14.2669 9.68564C14.2495 9.69945 14.2333 9.72179 14.2251 9.75043C14.0827 10.2475 13.8832 10.7203 13.6342 11.1612C13.6195 11.1873 13.615 11.2146 13.6174 11.2367C13.6197 11.2575 13.6272 11.2702 13.6356 11.2786L14.0617 11.7048C14.4886 12.1318 14.4886 12.824 14.0617 13.2511L13.2479 14.0651C12.8208 14.4923 12.1283 14.4923 11.7012 14.0651L11.2805 13.6444C11.2721 13.6359 11.2594 13.6284 11.2385 13.6262C11.2163 13.6238 11.1888 13.6284 11.1627 13.6433C10.7214 13.8949 10.2478 14.097 9.74971 14.2416C9.72119 14.2499 9.69898 14.2661 9.68525 14.2834C9.67238 14.2996 9.66877 14.3137 9.66877 14.3255V14.9065C9.66877 15.5104 9.17919 16 8.57525 16H7.42417C6.82023 16 6.33065 15.5104 6.33065 14.9065V14.3309C6.33066 14.3301 6.33073 14.3264 6.32489 14.3192C6.31794 14.3107 6.30547 14.3016 6.28855 14.2973C5.73094 14.1548 5.20198 13.941 4.71204 13.6663C4.7068 13.6633 4.70205 13.6623 4.69884 13.6621L4.29718 14.0638C3.87013 14.4908 3.17775 14.4908 2.7507 14.0638L1.93676 13.2498C1.50971 12.8228 1.50971 12.1304 1.93676 11.7034L2.30289 11.3372C1.99131 10.8233 1.74815 10.263 1.58627 9.66906H1.09353C0.489588 9.66906 0 9.17948 0 8.57554V7.42446C0 6.82052 0.489588 6.33094 1.09353 6.33094H1.55476C1.7084 5.72169 1.94716 5.14643 2.25752 4.61863L1.93541 4.29642C1.50851 3.8694 1.50851 3.1772 1.93541 2.75018L2.74922 1.93612C3.1763 1.50892 3.86886 1.50892 4.29593 1.93612L4.62375 2.26403C5.15042 1.95784 5.7238 1.72272 6.33065 1.572V1.09352ZM4.70414 13.6568C4.70417 13.6568 4.70412 13.6568 4.70414 13.6568ZM7.42417 1.03597C7.39238 1.03597 7.36662 1.06174 7.36662 1.09352V1.66906C7.36662 2.1123 7.05073 2.46674 6.65156 2.56024C6.08596 2.69273 5.5537 2.9122 5.06957 3.20396C4.72947 3.40893 4.27254 3.37802 3.97006 3.07546L3.56328 2.66855C3.5408 2.64607 3.50435 2.64607 3.48187 2.66855L2.66806 3.48261C2.64559 3.50508 2.64559 3.54151 2.66806 3.56399L3.07509 3.97114C3.37541 4.27156 3.40505 4.72586 3.1992 5.06259C2.89903 5.55362 2.67353 6.09488 2.53822 6.67075C2.4467 7.06023 2.10051 7.36691 1.66906 7.36691H1.09353C1.06174 7.36691 1.03597 7.39267 1.03597 7.42446V8.57554C1.03597 8.60733 1.06174 8.63309 1.09353 8.63309H1.66906C2.11118 8.63309 2.46711 8.94277 2.57019 9.33816C2.70927 9.87164 2.92618 10.3739 3.20825 10.832C3.43403 11.1988 3.40705 11.6982 3.07627 12.0289L2.6693 12.4359C2.64683 12.4584 2.64683 12.4948 2.6693 12.5173L3.48324 13.3312C3.50572 13.3537 3.54216 13.3537 3.56463 13.3312L3.9716 12.9243C4.31537 12.5805 4.83022 12.5448 5.21877 12.7627C5.63118 12.994 6.07611 13.1738 6.54496 13.2935C6.99973 13.4097 7.36662 13.8162 7.36662 14.3309V14.9065C7.36662 14.9383 7.39238 14.964 7.42417 14.964H8.57525C8.60704 14.964 8.6328 14.9383 8.6328 14.9065V14.3255C8.6328 13.7988 9.00084 13.3803 9.46083 13.2467C9.87964 13.1251 10.278 12.9552 10.6496 12.7433C11.0711 12.503 11.636 12.5346 12.0132 12.9119L12.4338 13.3327C12.4563 13.3552 12.4928 13.3552 12.5152 13.3327L13.3291 12.5186C13.3515 12.4961 13.3515 12.4597 13.3291 12.4372L12.9029 12.011C12.5273 11.6352 12.4944 11.0729 12.7321 10.6519C12.9416 10.2807 13.1094 9.883 13.2292 9.46508C13.3615 9.00329 13.7808 8.63309 14.3091 8.63309L14.9065 8.63309C14.9383 8.63309 14.964 8.60732 14.964 8.57554V7.42446C14.964 7.39267 14.9383 7.36691 14.9065 7.36691H14.3309C13.8007 7.36691 13.3824 6.98993 13.2592 6.52369C13.1422 6.08108 12.9716 5.66016 12.7546 5.26825C12.5308 4.86395 12.567 4.32883 12.9249 3.97096L13.3319 3.564C13.3543 3.54152 13.3543 3.50508 13.3319 3.4826L12.5179 2.66867C12.4955 2.64619 12.459 2.64619 12.4365 2.66867L12.0296 3.07563C11.6848 3.4204 11.1652 3.44757 10.7832 3.21526C10.3449 2.94875 9.86678 2.74165 9.35997 2.60494C8.95275 2.4951 8.6328 2.1271 8.6328 1.66906V1.09353C8.6328 1.06174 8.60704 1.03597 8.57525 1.03597H7.42417ZM8.00006 4.93642C6.2977 4.93642 4.92138 6.31008 4.92138 8C4.92138 9.68992 6.2977 11.0636 8.00006 11.0636C9.70242 11.0636 11.0787 9.68992 11.0787 8C11.0787 6.31008 9.70242 4.93642 8.00006 4.93642ZM3.88541 8C3.88541 5.73383 5.72966 3.90045 8.00006 3.90045C10.2705 3.90045 12.1147 5.73383 12.1147 8C12.1147 10.2662 10.2705 12.0996 8.00006 12.0996C5.72966 12.0996 3.88541 10.2662 3.88541 8Z" fill="#B0B1C4"/>
</svg>
