<svg viewBox="0 0 32 32" fill="none" xmlns="http://www.w3.org/2000/svg">
<path d="M16 18.45C17.3531 18.45 18.45 17.3531 18.45 16C18.45 14.6469 17.3531 13.55 16 13.55C14.6469 13.55 13.55 14.6469 13.55 16C13.55 17.3531 14.6469 18.45 16 18.45Z" fill="#0278D5"/>
<path d="M16 28.25C22.7655 28.25 28.25 22.7655 28.25 16C28.25 9.23451 22.7655 3.75 16 3.75C9.23451 3.75 3.75 9.23451 3.75 16C3.75 22.7655 9.23451 28.25 16 28.25Z" stroke="#0278D5" stroke-linecap="round" stroke-linejoin="round"/>
<path d="M16 23.35C20.0593 23.35 23.35 20.0593 23.35 16C23.35 11.9407 20.0593 8.65 16 8.65C11.9407 8.65 8.65 11.9407 8.65 16C8.65 20.0593 11.9407 23.35 16 23.35Z" stroke="#0278D5" stroke-linecap="round" stroke-linejoin="round"/>
<path d="M16 18.45C17.3531 18.45 18.45 17.3531 18.45 16C18.45 14.6469 17.3531 13.55 16 13.55C14.6469 13.55 13.55 14.6469 13.55 16C13.55 17.3531 14.6469 18.45 16 18.45Z" stroke="#0278D5" stroke-linecap="round" stroke-linejoin="round"/>
</svg>
