<svg viewBox="0 0 16 16" fill="none" xmlns="http://www.w3.org/2000/svg">
<g clip-path="url(#clip0_1048_37340)">
<path fill-rule="evenodd" clip-rule="evenodd" d="M6.64421 7.53955L8.55987 4.21871L6.64421 0.897886H2.81282L0.897131 4.21871L2.81282 7.53955H6.64421ZM9.34067 3.77647C9.33939 3.77423 9.33811 3.772 9.33682 3.76976L7.42108 0.448938C7.26081 0.171139 6.96465 0 6.64421 0H2.81282C2.4923 0 2.19613 0.171139 2.03587 0.448938L0.120191 3.76976C-0.0400637 4.04757 -0.0400637 4.38984 0.120191 4.66764L2.03587 7.98847L2.04263 8.00002L2.03587 8.01148L0.120191 11.3323C-0.0400637 11.6102 -0.0400637 11.9524 0.120191 12.2302L2.03587 15.5511C2.19613 15.8289 2.4923 16 2.81282 16H6.64421C6.96465 16 7.26081 15.8289 7.42108 15.5511L9.33682 12.2302C9.33994 12.2247 9.34305 12.2192 9.34607 12.2137C9.34937 12.2137 9.35258 12.2137 9.35578 12.2137H13.1872C13.5077 12.2137 13.8039 12.0426 13.9641 11.7648L15.8798 8.444C16.0401 8.16619 16.0401 7.82395 15.8798 7.54614L13.9641 4.22528C13.8039 3.94748 13.5077 3.77634 13.1872 3.77634H9.35587C9.35074 3.77634 9.34571 3.77639 9.34067 3.77647ZM6.64421 15.1021L8.55987 11.7813L6.64421 8.46041H2.81282L0.897131 11.7813L2.81282 15.1021H6.64421ZM15.1028 7.99507L13.1872 11.3158H9.35587L7.44013 7.99507L9.35587 4.67423H13.1872L15.1028 7.99507Z" fill="#9293AB"/>
</g>
<defs>
<clipPath id="clip0_1048_37340">
<rect width="16" height="16" fill="white"/>
</clipPath>
</defs>
</svg>
