<svg viewBox="0 0 16 16" fill="none" xmlns="http://www.w3.org/2000/svg">
<g clip-path="url(#clip0_1048_37335)">
<path fill-rule="evenodd" clip-rule="evenodd" d="M8 1.11628C4.19811 1.11628 1.11628 4.19811 1.11628 8C1.11628 10.8084 2.79796 13.224 5.2093 14.2946V4.27684C5.20949 4.10382 5.25436 3.93317 5.33956 3.78259C5.42477 3.632 5.54741 3.50598 5.69563 3.41671C5.84384 3.32745 6.01259 3.27797 6.18554 3.27308C6.35849 3.26819 6.52977 3.30804 6.68279 3.38878L11.6465 6.01573C11.6466 6.01581 11.6463 6.01565 11.6465 6.01573C11.8045 6.09923 11.9379 6.22364 12.032 6.37567C12.1262 6.52785 12.178 6.70242 12.1821 6.88132C12.1862 7.06023 12.1424 7.23699 12.0553 7.39332C11.9683 7.54957 11.8411 7.67974 11.6869 7.77039C11.6868 7.77043 11.687 7.77035 11.6869 7.77039L6.32558 10.9239V14.6787C6.86159 14.8126 7.42249 14.8837 8 14.8837C11.8019 14.8837 14.8837 11.8019 14.8837 8C14.8837 4.19811 11.8019 1.11628 8 1.11628ZM6.32558 9.62882L10.9488 6.90947L6.32558 4.4627V9.62882ZM11.1256 7.00306C11.1258 7.00317 11.1254 7.00294 11.1256 7.00306ZM0 8C0 3.58161 3.58161 0 8 0C12.4184 0 16 3.58161 16 8C16 12.4184 12.4184 16 8 16C3.58161 16 0 12.4184 0 8Z" fill="#9293AB"/>
</g>
<defs>
<clipPath id="clip0_1048_37335">
<rect width="16" height="16" fill="white"/>
</clipPath>
</defs>
</svg>
