<svg xmlns="http://www.w3.org/2000/svg" width="32" height="32" viewBox="0 0 32 32" fill="none">
  <g clip-path="url(#clip0_3070_1591)">
    <path d="M2.91841 16.0102C4.08076 16.0102 5.02956 15.0536 5.02956 13.8786C5.02956 13.4146 4.88089 12.9875 4.63221 12.6381L10.3654 8.88404C10.7182 9.15014 11.1507 9.30707 11.621 9.30707C12.2887 9.30707 12.8875 8.9891 13.2753 8.49647L18.2883 10.4616C18.2018 10.6963 18.1504 10.9474 18.1504 11.2121C18.1504 12.3857 19.0979 13.3437 20.2616 13.3437C21.4239 13.3437 22.3727 12.3871 22.3727 11.2121C22.3727 10.7127 22.1997 10.2555 21.9159 9.89117L27.8183 3.90019C28.1534 4.13082 28.5616 4.26321 28.9982 4.26321C30.1605 4.26321 31.1093 3.30658 31.1093 2.1316C31.1093 0.957991 30.1619 0 28.9982 0C27.8358 0 26.887 0.956629 26.887 2.1316C26.887 2.63107 27.06 3.08823 27.3439 3.45257L21.4401 9.44913C21.1049 9.21851 20.6968 9.08612 20.2602 9.08612C19.5925 9.08612 18.9938 9.40409 18.6059 9.89672L13.5957 7.9316C13.6822 7.69688 13.7336 7.44579 13.7336 7.18105C13.7336 6.00744 12.7861 5.04945 11.6224 5.04945C10.4601 5.04945 9.51127 6.00608 9.51127 7.18105C9.51127 7.64503 9.65994 8.07218 9.90862 8.42153L4.17816 12.1714C3.82541 11.9053 3.39292 11.7484 2.92256 11.7484C1.76022 11.7484 0.811417 12.705 0.811417 13.88C0.811417 15.0536 1.7561 16.0102 2.91841 16.0102ZM28.9968 0.662021C29.8023 0.662021 30.4565 1.32523 30.4565 2.13586C30.4565 2.94919 29.7997 3.60971 28.9968 3.60971C28.1913 3.60971 27.5371 2.9465 27.5371 2.13586C27.5331 1.32254 28.1899 0.662021 28.9968 0.662021ZM20.2631 9.74266C21.0687 9.74266 21.7228 10.4059 21.7228 11.2165C21.7228 12.0271 21.066 12.6903 20.2631 12.6903C19.4603 12.6903 18.8034 12.0271 18.8034 11.2165C18.8034 10.4059 19.4576 9.74266 20.2631 9.74266ZM11.6213 5.70333C12.4269 5.70333 13.081 6.36654 13.081 7.17718C13.081 7.98778 12.4242 8.65102 11.6213 8.65102C10.8158 8.65102 10.1616 7.98781 10.1616 7.17718C10.1603 6.36658 10.8144 5.70333 11.6213 5.70333ZM2.91876 12.4049C3.72428 12.4049 4.37846 13.0681 4.37846 13.8788C4.37846 14.6894 3.72161 15.3526 2.91876 15.3526C2.11324 15.3526 1.45906 14.6894 1.45906 13.8788C1.45906 13.0695 2.1132 12.4049 2.91876 12.4049Z" fill="#0278D5"/>
    <path d="M1.47942 31.9937H4.27805C5.10589 31.9937 5.75747 31.0426 5.75747 29.8289V21.8828C5.75747 20.6691 5.10589 19.718 4.27805 19.718H1.47942C0.651572 19.718 0 20.6691 0 21.8828V29.8289C0 31.0426 0.646239 31.9937 1.47942 31.9937ZM0.865208 21.8831C0.865208 21.1829 1.191 20.6636 1.47942 20.6636H4.27805C4.56646 20.6636 4.89226 21.1829 4.89226 21.8831V29.8292C4.89226 30.5294 4.56647 31.0488 4.27805 31.0488H1.47942C1.19101 31.0488 0.865208 30.5294 0.865208 29.8292V21.8831ZM10.6844 13.4947C9.61618 13.4947 8.74561 14.4458 8.74561 15.6128V29.8755C8.74561 31.0425 9.61618 31.9937 10.6844 31.9937H12.5697C13.6379 31.9937 14.5084 31.0425 14.5084 29.8755V15.6128C14.5084 14.4458 13.6379 13.4947 12.5697 13.4947H10.6844ZM13.6379 15.6128V29.8755C13.6379 30.5232 13.1572 31.0483 12.5644 31.0483H10.679C10.0862 31.0483 9.60552 30.5232 9.60552 29.8755V15.6128C9.60552 14.9651 10.0862 14.44 10.679 14.44H12.5644C13.1572 14.4458 13.6379 14.971 13.6379 15.6128ZM28.1759 8.00511C27.1077 8.00511 26.2372 8.95624 26.2372 10.1233V29.8818C26.2372 31.0488 27.1077 32 28.1759 32H30.0612C31.1294 32 32 31.0488 32 29.8818V10.1233C32 8.95624 31.1294 8.00511 30.0612 8.00511H28.1759ZM31.1294 10.1233V29.8818C31.1294 30.5295 30.6488 31.0547 30.0559 31.0547H28.1706C27.5777 31.0547 27.0971 30.5295 27.0971 29.8818V10.1233C27.0971 9.47556 27.5777 8.95042 28.1706 8.95042H30.0559C30.6488 8.95042 31.1294 9.47556 31.1294 10.1233ZM19.6118 17.3595C18.4421 17.3595 17.4861 18.3981 17.4861 19.6819V29.6776C17.4861 30.9555 18.4367 32 19.6118 32H21.1233C22.2929 32 23.249 30.9614 23.249 29.6776V19.6819C23.249 18.404 22.2983 17.3595 21.1233 17.3595H19.6118ZM22.3837 19.6819V29.6776C22.3837 30.4362 21.8176 31.0489 21.1286 31.0489H19.6171C18.9228 31.0489 18.362 30.4304 18.362 29.6776V19.6819C18.362 18.9234 18.9281 18.3106 19.6171 18.3106H21.1286C21.8229 18.3048 22.3837 18.9233 22.3837 19.6819Z" fill="#0278D5"/>
  </g>
  <defs>
    <clipPath id="clip0_3070_1591">
      <rect width="32" height="32" fill="white"/>
    </clipPath>
  </defs>
</svg>
