<svg viewBox="0 0 18 16" fill="none" xmlns="http://www.w3.org/2000/svg">
  <path fill-rule="evenodd" clip-rule="evenodd"
    d="M16.801 5.15388C16.964 5.23695 17.0966 5.3695 17.1796 5.53254C17.2415 5.65397 17.2599 5.77235 17.2674 5.86438C17.2741 5.9463 17.2741 6.04145 17.2741 6.1317L17.2741 10.1699C17.2741 10.2602 17.2741 10.3553 17.2674 10.4372C17.2599 10.5293 17.2415 10.6477 17.1796 10.7691C17.0966 10.9321 16.964 11.0647 16.801 11.1477C16.6795 11.2096 16.5612 11.228 16.4691 11.2355C16.3872 11.2422 16.2921 11.2422 16.2018 11.2422L1.79813 11.2422C1.70787 11.2422 1.6127 11.2422 1.53078 11.2355C1.43875 11.228 1.32037 11.2096 1.19894 11.1477C1.0359 11.0647 0.903345 10.9321 0.820274 10.7691C0.758401 10.6476 0.740006 10.5293 0.732487 10.4372C0.725795 10.3553 0.725814 10.2602 0.725832 10.1699L0.725833 6.1317C0.725813 6.04145 0.725794 5.9463 0.732487 5.86438C0.740006 5.77235 0.758402 5.65397 0.820274 5.53254C0.903346 5.3695 1.0359 5.23695 1.19894 5.15388C1.32037 5.09201 1.43875 5.07361 1.53078 5.06609C1.6127 5.0594 1.70786 5.05942 1.79812 5.05944L16.2018 5.05943C16.292 5.05942 16.3872 5.0594 16.4691 5.06609C16.5612 5.07361 16.6795 5.09201 16.801 5.15388ZM16.2739 6.05958C16.2488 6.05944 16.2206 6.05944 16.1877 6.05944L14.1641 6.05944C14.1644 6.0655 14.1645 6.0716 14.1645 6.07771V7.63254C14.1645 7.90868 13.9406 8.13254 13.6645 8.13254C13.3883 8.13254 13.1645 7.90868 13.1645 7.63254L13.1645 6.07771C13.1645 6.0716 13.1646 6.0655 13.1648 6.05944L11.0545 6.05944C11.0547 6.0655 11.0548 6.0716 11.0548 6.07771V7.63254C11.0548 7.90868 10.831 8.13254 10.5548 8.13254C10.2787 8.13254 10.0548 7.90868 10.0548 7.63254V6.07771C10.0548 6.0716 10.0549 6.0655 10.0551 6.05944H7.94484C7.94506 6.0655 7.94517 6.0716 7.94517 6.07771V7.63254C7.94517 7.90868 7.72131 8.13254 7.44517 8.13254C7.16903 8.13254 6.94517 7.90868 6.94517 7.63254L6.94517 6.07771C6.94517 6.0716 6.94528 6.0655 6.9455 6.05944L4.83519 6.05944C4.83541 6.0655 4.83552 6.0716 4.83552 6.07771L4.83552 7.63254C4.83552 7.90868 4.61166 8.13254 4.33552 8.13254C4.05938 8.13254 3.83552 7.90868 3.83552 7.63254L3.83552 6.07771C3.83552 6.0716 3.83563 6.0655 3.83585 6.05944L1.81219 6.05944C1.77932 6.05944 1.75109 6.05944 1.72598 6.05958C1.72584 6.08469 1.72583 6.11292 1.72583 6.1458L1.72583 10.1558C1.72583 10.1887 1.72584 10.2169 1.72598 10.242C1.75108 10.2422 1.77932 10.2422 1.81219 10.2422L16.1877 10.2422C16.2206 10.2422 16.2488 10.2422 16.2739 10.242C16.2741 10.2169 16.2741 10.1887 16.2741 10.1558L16.2741 6.1458C16.2741 6.11292 16.2741 6.08469 16.2739 6.05958Z"
    fill="#9293AB" />
</svg>