<svg viewBox="0 0 16 16" fill="none" xmlns="http://www.w3.org/2000/svg">
<path d="M0.566667 10.6667V11.1667H1.06667H14.9333H15.4333V10.6667V5.33333V4.83333H14.9333H13.7867H13.38H13.2867H12.88H11.6533H11.2467H11.1533H10.7467H9.52H9.11333H9.02H8.61333H7.38667H6.98H6.88667H6.48H5.25333H4.84667H4.75333H4.34667H3.12H2.71333H2.62H2.21333H1.06667H0.566667V5.33333V10.6667ZM0.5 4.8C0.5 4.78159 0.514926 4.76666 0.533333 4.76666H15.4667C15.4851 4.76666 15.5 4.78162 15.5 4.8V11.2C15.5 11.2184 15.485 11.2333 15.4667 11.2333H0.533333C0.514952 11.2333 0.5 11.2184 0.5 11.2V4.8Z" fill="#9293AB" stroke="#9293AB"/>
</svg>
