<svg viewBox="0 0 40 40" fill="none" xmlns="http://www.w3.org/2000/svg"><path fill-rule="evenodd" clip-rule="evenodd" d="m22.931 4.203-9.427-1.635A6.547 6.547 0 0 0 5.934 7.9L2.683 26.66a6.547 6.547 0 0 0 5.332 7.569l5.727.992 7.247-6.115-12.8-10.423a1.25 1.25 0 0 1-.02-1.922L22.93 4.203Zm-5.974 31.575 9.54 1.654a6.547 6.547 0 0 0 7.568-5.332l3.253-18.759a6.547 6.547 0 0 0-5.332-7.569l-5.85-1.014-7.47 6.356 12.652 10.63a1.25 1.25 0 0 1 .002 1.912L16.957 35.778Zm11.616-13.075-5.64 4.76-12.001-9.772 5.802-4.935 11.839 9.947Z" fill="url(#a)"/><defs><linearGradient id="a" x1="10.335" y1="6.221" x2="35.545" y2="45.837" gradientUnits="userSpaceOnUse"><stop stop-color="#B336FF"/><stop offset="1" stop-color="#58159B"/></linearGradient></defs></svg>