<svg viewBox="0 0 32 32" fill="none" xmlns="http://www.w3.org/2000/svg"><path fill-rule="evenodd" clip-rule="evenodd" d="m18.345 3.362-7.542-1.308A5.238 5.238 0 0 0 4.747 6.32L2.146 21.328a5.238 5.238 0 0 0 4.266 6.055l4.582.794 5.797-4.892-10.24-8.338a1 1 0 0 1-.016-1.538l13.81-11.047Zm-4.78 25.26 7.633 1.323a5.238 5.238 0 0 0 6.055-4.266l2.602-15.007a5.238 5.238 0 0 0-4.266-6.055l-4.68-.811-5.976 5.085 10.122 8.504a1 1 0 0 1 .001 1.53L13.566 28.62Zm9.293-10.46-4.512 3.808-9.6-7.818 4.641-3.948 9.471 7.957Z" fill="url(#a)"/><defs><linearGradient id="a" x1="8.268" y1="4.977" x2="28.436" y2="36.67" gradientUnits="userSpaceOnUse"><stop stop-color="#B336FF"/><stop offset="1" stop-color="#58159B"/></linearGradient></defs></svg>