<svg viewBox="0 0 16 16" fill="none" xmlns="http://www.w3.org/2000/svg">
<path fill-rule="evenodd" clip-rule="evenodd" d="M6.19462 3.73223C6.67344 3.26339 7.32285 3 8 3C8.67715 3 9.32656 3.26339 9.80538 3.73223C10.2842 4.20107 10.5532 4.83696 10.5532 5.5C10.5532 6.16304 10.2842 6.79893 9.80538 7.26777C9.76755 7.3048 9.72866 7.34056 9.68878 7.375C10.0856 7.56078 10.4513 7.81241 10.7682 8.12276C11.5024 8.84165 11.9149 9.81667 11.9149 10.8333V11.5C11.9149 11.7761 11.6863 12 11.4043 12C11.1222 12 10.8936 11.7761 10.8936 11.5V10.8333C10.8936 10.0819 10.5888 9.36122 10.0461 8.82986C9.50344 8.29851 8.76744 8 8 8C7.23257 8 6.49656 8.29851 5.9539 8.82986C5.41125 9.36122 5.10638 10.0819 5.10638 10.8333V11.5C5.10638 11.7761 4.87776 12 4.59574 12C4.31373 12 4.08511 11.7761 4.08511 11.5V10.8333C4.08511 9.81667 4.49757 8.84165 5.23175 8.12276C5.5487 7.81241 5.91439 7.56078 6.31122 7.375C6.27133 7.34056 6.23245 7.3048 6.19462 7.26777C5.7158 6.79893 5.44681 6.16304 5.44681 5.5C5.44681 4.83696 5.7158 4.20107 6.19462 3.73223ZM8 4C7.59371 4 7.20406 4.15804 6.91677 4.43934C6.62948 4.72064 6.46809 5.10218 6.46809 5.5C6.46809 5.89783 6.62948 6.27936 6.91677 6.56066C7.20406 6.84196 7.59371 7 8 7C8.40629 7 8.79594 6.84196 9.08323 6.56066C9.37052 6.27936 9.53192 5.89783 9.53192 5.5C9.53192 5.10218 9.37052 4.72064 9.08323 4.43934C8.79594 4.15804 8.40629 4 8 4ZM1.22925 6.20364C1.58038 5.85982 2.05662 5.66667 2.55319 5.66667C3.04977 5.66667 3.526 5.85982 3.87714 6.20364C4.22827 6.54745 4.42553 7.01377 4.42553 7.5C4.42553 7.98623 4.22827 8.45255 3.87714 8.79636C3.526 9.14018 3.04977 9.33333 2.55319 9.33333C2.1469 9.33333 1.75725 9.49137 1.46996 9.77267C1.18267 10.054 1.02128 10.4355 1.02128 10.8333V11.5C1.02128 11.7761 0.792656 12 0.510638 12C0.228621 12 0 11.7761 0 11.5V10.8333C0 10.1703 0.268996 9.53441 0.747812 9.06557C0.87644 8.93962 1.01738 8.8285 1.16786 8.73333C0.855207 8.39665 0.680851 7.95713 0.680851 7.5C0.680851 7.01377 0.878115 6.54745 1.22925 6.20364ZM2.55319 6.66667C2.32748 6.66667 2.111 6.75446 1.9514 6.91074C1.79179 7.06702 1.70213 7.27899 1.70213 7.5C1.70213 7.72101 1.79179 7.93298 1.9514 8.08926C2.111 8.24554 2.32748 8.33333 2.55319 8.33333C2.77891 8.33333 2.99538 8.24554 3.15498 8.08926C3.31459 7.93298 3.40426 7.72101 3.40426 7.5C3.40426 7.27899 3.31459 7.06702 3.15498 6.91074C2.99538 6.75446 2.77891 6.66667 2.55319 6.66667ZM12.1229 6.20364C12.474 5.85982 12.9502 5.66667 13.4468 5.66667C13.9434 5.66667 14.4196 5.85982 14.7708 6.20364C15.1219 6.54745 15.3191 7.01377 15.3191 7.5C15.3191 7.95713 15.1448 8.39665 14.8321 8.73333C14.9826 8.8285 15.1236 8.93962 15.2522 9.06557C15.731 9.53441 16 10.1703 16 10.8333V11.5C16 11.7761 15.7714 12 15.4894 12C15.2073 12 14.9787 11.7761 14.9787 11.5V10.8333C14.9787 10.4355 14.8173 10.054 14.53 9.77267C14.2427 9.49137 13.8531 9.33333 13.4468 9.33333C12.9502 9.33333 12.474 9.14018 12.1229 8.79636C11.7717 8.45255 11.5745 7.98623 11.5745 7.5C11.5745 7.01377 11.7717 6.54745 12.1229 6.20364ZM13.4468 8.33333C13.6725 8.33333 13.889 8.24554 14.0486 8.08926C14.2082 7.93297 14.2979 7.72101 14.2979 7.5C14.2979 7.27899 14.2082 7.06703 14.0486 6.91074C13.889 6.75446 13.6725 6.66667 13.4468 6.66667C13.2211 6.66667 13.0046 6.75446 12.845 6.91074C12.6854 7.06703 12.5957 7.27899 12.5957 7.5C12.5957 7.72101 12.6854 7.93297 12.845 8.08926C13.0046 8.24554 13.2211 8.33333 13.4468 8.33333Z" fill="#9293AB"/>
</svg>
