<svg viewBox="0 0 33 38" fill="none" xmlns="http://www.w3.org/2000/svg">
<path d="M24 30L32 30" stroke="#0278D5" stroke-linecap="round" stroke-linejoin="round"/>
<path d="M3.625 26.0625C3.625 26.3386 3.84886 26.5625 4.125 26.5625C4.40114 26.5625 4.625 26.3386 4.625 26.0625H4.125H3.625ZM19.375 26.0625C19.375 26.3386 19.5989 26.5625 19.875 26.5625C20.1511 26.5625 20.375 26.3386 20.375 26.0625H19.875H19.375ZM17.125 19.3125C17.125 19.5886 17.3489 19.8125 17.625 19.8125C17.9011 19.8125 18.125 19.5886 18.125 19.3125H17.625H17.125ZM28.375 19.875C28.375 20.1511 28.5989 20.375 28.875 20.375C29.1511 20.375 29.375 20.1511 29.375 19.875H28.875H28.375ZM4.125 26.0625H4.625V24.9375H4.125H3.625V26.0625H4.125ZM4.125 24.9375H4.625C4.625 20.8644 7.9269 17.5625 12 17.5625V17.0625V16.5625C7.37462 16.5625 3.625 20.3121 3.625 24.9375H4.125ZM12 17.0625V17.5625C16.0731 17.5625 19.375 20.8644 19.375 24.9375H19.875H20.375C20.375 20.3121 16.6254 16.5625 12 16.5625V17.0625ZM19.875 24.9375H19.375V26.0625H19.875H20.375V24.9375H19.875ZM17.625 19.3125H18.125C18.125 16.4821 20.4196 14.1875 23.25 14.1875V13.6875V13.1875C19.8673 13.1875 17.125 15.9298 17.125 19.3125H17.625ZM23.25 13.6875V14.1875C26.0804 14.1875 28.375 16.4821 28.375 19.3125H28.875H29.375C29.375 15.9298 26.6327 13.1875 23.25 13.1875V13.6875ZM28.875 19.3125H28.375V19.875H28.875H29.375V19.3125H28.875ZM12 17.0625V17.5625C14.7614 17.5625 17 15.3239 17 12.5625H16.5H16C16 14.7716 14.2091 16.5625 12 16.5625V17.0625ZM16.5 12.5625H17C17 9.80107 14.7614 7.5625 12 7.5625V8.0625V8.5625C14.2091 8.5625 16 10.3534 16 12.5625H16.5ZM12 8.0625V7.5625C9.23857 7.5625 7 9.80107 7 12.5625H7.5H8C8 10.3534 9.79086 8.5625 12 8.5625V8.0625ZM7.5 12.5625H7C7 15.3239 9.23857 17.5625 12 17.5625V17.0625V16.5625C9.79086 16.5625 8 14.7716 8 12.5625H7.5ZM23.25 13.6875V14.1875C25.3902 14.1875 27.125 12.4526 27.125 10.3125H26.625H26.125C26.125 11.9003 24.8379 13.1875 23.25 13.1875V13.6875ZM26.625 10.3125H27.125C27.125 8.17241 25.3902 6.4375 23.25 6.4375V6.9375V7.4375C24.8379 7.4375 26.125 8.72468 26.125 10.3125H26.625ZM23.25 6.9375V6.4375C21.1098 6.4375 19.375 8.17241 19.375 10.3125H19.875H20.375C20.375 8.72468 21.6621 7.4375 23.25 7.4375V6.9375ZM19.875 10.3125H19.375C19.375 12.4526 21.1098 14.1875 23.25 14.1875V13.6875V13.1875C21.6621 13.1875 20.375 11.9003 20.375 10.3125H19.875Z" fill="#0278D5"/>
</svg>
