<svg viewBox="0 0 32 32" fill="none" xmlns="http://www.w3.org/2000/svg">
<path d="M13 16H14.096H14.4263C14.9786 16 15.4263 15.5523 15.4263 15V12.8571V6C15.4263 5.44772 15.874 5 16.4263 5H21" stroke="#0278D5" stroke-linecap="round"/>
<path d="M19 2L21 5L19 8" stroke="#0278D5" stroke-linecap="round" stroke-linejoin="round"/>
<path d="M19 13L21 16L19 19" stroke="#0278D5" stroke-linecap="round" stroke-linejoin="round"/>
<path d="M19 24L21 27L19 30" stroke="#0278D5" stroke-linecap="round" stroke-linejoin="round" stroke-dasharray="2 2"/>
<path d="M15.25 17V19.8571V26C15.25 26.5523 15.6977 27 16.25 27H20.25" stroke="#0278D5" stroke-linecap="round" stroke-dasharray="2 2"/>
<path d="M21 16C20.04 16 14.6 16 12 16" stroke="#0278D5" stroke-linecap="round"/>
<path d="M23.5 31C23.5 31.2761 23.7239 31.5 24 31.5C24.2761 31.5 24.5 31.2761 24.5 31H24H23.5ZM30.5 31C30.5 31.2761 30.7239 31.5 31 31.5C31.2761 31.5 31.5 31.2761 31.5 31H31H30.5ZM24 31H24.5V30.5H24H23.5V31H24ZM24 30.5H24.5C24.5 28.8431 25.8431 27.5 27.5 27.5V27V26.5C25.2909 26.5 23.5 28.2909 23.5 30.5H24ZM27.5 27V27.5C29.1569 27.5 30.5 28.8431 30.5 30.5H31H31.5C31.5 28.2909 29.7091 26.5 27.5 26.5V27ZM31 30.5H30.5V31H31H31.5V30.5H31ZM27.5 27V27.5C28.8807 27.5 30 26.3807 30 25H29.5H29C29 25.8284 28.3284 26.5 27.5 26.5V27ZM29.5 25H30C30 23.6193 28.8807 22.5 27.5 22.5V23V23.5C28.3284 23.5 29 24.1716 29 25H29.5ZM27.5 23V22.5C26.1193 22.5 25 23.6193 25 25H25.5H26C26 24.1716 26.6716 23.5 27.5 23.5V23ZM25.5 25H25C25 26.3807 26.1193 27.5 27.5 27.5V27V26.5C26.6716 26.5 26 25.8284 26 25H25.5Z" fill="#0278D5"/>
<path d="M23.5 20C23.5 20.2761 23.7239 20.5 24 20.5C24.2761 20.5 24.5 20.2761 24.5 20H24H23.5ZM30.5 20C30.5 20.2761 30.7239 20.5 31 20.5C31.2761 20.5 31.5 20.2761 31.5 20H31H30.5ZM24 20H24.5V19.5H24H23.5V20H24ZM24 19.5H24.5C24.5 17.8431 25.8431 16.5 27.5 16.5V16V15.5C25.2909 15.5 23.5 17.2909 23.5 19.5H24ZM27.5 16V16.5C29.1569 16.5 30.5 17.8431 30.5 19.5H31H31.5C31.5 17.2909 29.7091 15.5 27.5 15.5V16ZM31 19.5H30.5V20H31H31.5V19.5H31ZM27.5 16V16.5C28.8807 16.5 30 15.3807 30 14H29.5H29C29 14.8284 28.3284 15.5 27.5 15.5V16ZM29.5 14H30C30 12.6193 28.8807 11.5 27.5 11.5V12V12.5C28.3284 12.5 29 13.1716 29 14H29.5ZM27.5 12V11.5C26.1193 11.5 25 12.6193 25 14H25.5H26C26 13.1716 26.6716 12.5 27.5 12.5V12ZM25.5 14H25C25 15.3807 26.1193 16.5 27.5 16.5V16V15.5C26.6716 15.5 26 14.8284 26 14H25.5Z" fill="#0278D5"/>
<path d="M23.5 9C23.5 9.27614 23.7239 9.5 24 9.5C24.2761 9.5 24.5 9.27614 24.5 9H24H23.5ZM30.5 9C30.5 9.27614 30.7239 9.5 31 9.5C31.2761 9.5 31.5 9.27614 31.5 9H31H30.5ZM24 9H24.5V8.5H24H23.5V9H24ZM24 8.5H24.5C24.5 6.84314 25.8431 5.5 27.5 5.5V5V4.5C25.2909 4.5 23.5 6.29086 23.5 8.5H24ZM27.5 5V5.5C29.1569 5.5 30.5 6.84314 30.5 8.5H31H31.5C31.5 6.29086 29.7091 4.5 27.5 4.5V5ZM31 8.5H30.5V9H31H31.5V8.5H31ZM27.5 5V5.5C28.8807 5.5 30 4.38069 30 3H29.5H29C29 3.82841 28.3284 4.5 27.5 4.5V5ZM29.5 3H30C30 1.61928 28.8807 0.5 27.5 0.5V1V1.5C28.3284 1.5 29 2.17158 29 3H29.5ZM27.5 1V0.5C26.1193 0.5 25 1.61929 25 3H25.5H26C26 2.17157 26.6716 1.5 27.5 1.5V1ZM25.5 3H25C25 4.38069 26.1193 5.5 27.5 5.5V5V4.5C26.6716 4.5 26 3.82841 26 3H25.5Z" fill="#0278D5"/>
<path d="M23.5 9C23.5 9.27614 23.7239 9.5 24 9.5C24.2761 9.5 24.5 9.27614 24.5 9H24H23.5ZM30.5 9C30.5 9.27614 30.7239 9.5 31 9.5C31.2761 9.5 31.5 9.27614 31.5 9H31H30.5ZM24 9H24.5V8.5H24H23.5V9H24ZM24 8.5H24.5C24.5 6.84314 25.8431 5.5 27.5 5.5V5V4.5C25.2909 4.5 23.5 6.29086 23.5 8.5H24ZM27.5 5V5.5C29.1569 5.5 30.5 6.84314 30.5 8.5H31H31.5C31.5 6.29086 29.7091 4.5 27.5 4.5V5ZM31 8.5H30.5V9H31H31.5V8.5H31ZM27.5 5V5.5C28.8807 5.5 30 4.38069 30 3H29.5H29C29 3.82841 28.3284 4.5 27.5 4.5V5ZM29.5 3H30C30 1.61928 28.8807 0.5 27.5 0.5V1V1.5C28.3284 1.5 29 2.17158 29 3H29.5ZM27.5 1V0.5C26.1193 0.5 25 1.61929 25 3H25.5H26C26 2.17157 26.6716 1.5 27.5 1.5V1ZM25.5 3H25C25 4.38069 26.1193 5.5 27.5 5.5V5V4.5C26.6716 4.5 26 3.82841 26 3H25.5Z" fill="#0278D5"/>
<path d="M5.5 16.4C5.99706 16.4 6.4 15.9971 6.4 15.5C6.4 15.0029 5.99706 14.6 5.5 14.6C5.00294 14.6 4.6 15.0029 4.6 15.5C4.6 15.9971 5.00294 16.4 5.5 16.4Z" fill="#0278D5"/>
<path d="M5.5 20C7.98528 20 10 17.9853 10 15.5C10 13.0147 7.98528 11 5.5 11C3.01472 11 1 13.0147 1 15.5C1 17.9853 3.01472 20 5.5 20Z" stroke="#0278D5" stroke-linecap="round" stroke-linejoin="round"/>
<path d="M5.5 18.2C6.99117 18.2 8.2 16.9912 8.2 15.5C8.2 14.0088 6.99117 12.8 5.5 12.8C4.00883 12.8 2.8 14.0088 2.8 15.5C2.8 16.9912 4.00883 18.2 5.5 18.2Z" stroke="#0278D5" stroke-linecap="round" stroke-linejoin="round"/>
<path d="M5.5 16.4C5.99706 16.4 6.4 15.9971 6.4 15.5C6.4 15.0029 5.99706 14.6 5.5 14.6C5.00294 14.6 4.6 15.0029 4.6 15.5C4.6 15.9971 5.00294 16.4 5.5 16.4Z" stroke="#0278D5" stroke-linecap="round" stroke-linejoin="round"/>
</svg>
