<svg viewBox="0 0 32 32" xmlns="http://www.w3.org/2000/svg" fill="none">
<mask id="path-1-inside-1_2757_1176" fill="white">
<path fill-rule="evenodd" clip-rule="evenodd" d="M21.024 1.68454L4.00061 19.4121L12.1418 19.4121L9.85716 29.5422L26.8806 11.8146H18.7394L21.024 1.68454Z"/>
</mask>
<path d="M4.00061 19.4121L3.27932 18.7194L1.65392 20.4121H4.00061L4.00061 19.4121ZM21.024 1.68454L21.9995 1.90454L22.7894 -1.59755L20.3028 0.991902L21.024 1.68454ZM12.1418 19.4121L13.1173 19.6321L13.3924 18.4121H12.1418V19.4121ZM9.85716 29.5422L8.88166 29.3222L8.09184 32.8242L10.5784 30.2348L9.85716 29.5422ZM26.8806 11.8146L27.6019 12.5073L29.2273 10.8146H26.8806V11.8146ZM18.7394 11.8146L17.7639 11.5946L17.4888 12.8146H18.7394V11.8146ZM4.00061 19.4121L4.7219 20.1047L21.7453 2.37718L21.024 1.68454L20.3028 0.991902L3.27932 18.7194L4.00061 19.4121ZM12.1418 19.4121V18.4121L4.00061 18.4121L4.00061 19.4121L4.00061 20.4121L12.1418 20.4121V19.4121ZM9.85716 29.5422L10.8327 29.7622L13.1173 19.6321L12.1418 19.4121L11.1663 19.1921L8.88166 29.3222L9.85716 29.5422ZM26.8806 11.8146L26.1593 11.122L9.13587 28.8495L9.85716 29.5422L10.5784 30.2348L27.6019 12.5073L26.8806 11.8146ZM18.7394 11.8146V12.8146H26.8806V11.8146V10.8146H18.7394V11.8146ZM21.024 1.68454L20.0485 1.46454L17.7639 11.5946L18.7394 11.8146L19.7149 12.0346L21.9995 1.90454L21.024 1.68454Z" fill="#0278D5" mask="url(#path-1-inside-1_2757_1176)"/>
<path d="M15 25.0004L13.625 22.4122L21.5625 14.0004L25 16.5886L15 25.0004Z" fill="white" stroke="white"/>
<mask id="mask0_2757_1176" style="mask-type:alpha" maskUnits="userSpaceOnUse" x="15" y="15" width="12" height="13">
<path d="M24.8146 21.5004C24.8107 21.1547 24.7652 20.8109 24.6792 20.4777L25.8999 19.3527L25.1847 18.0231L23.6788 18.5918C23.2138 18.1036 22.6399 17.7514 22.0118 17.569L21.7152 15.8754H20.2847L19.9881 17.5731C19.36 17.7555 18.786 18.1077 18.321 18.5959L16.8152 18.0231L16.0999 19.3527L17.3206 20.4777C17.2347 20.8109 17.1892 21.1547 17.1852 21.5004C17.1892 21.8461 17.2347 22.1899 17.3206 22.5231L16.0999 23.6481L16.8152 24.9777L18.321 24.4101C18.786 24.8983 19.36 25.2504 19.9881 25.4328L20.2847 27.1254H21.7152L22.0118 25.4277C22.6399 25.2453 23.2138 24.8931 23.6788 24.4049L25.1847 24.9726L25.8999 23.643L24.6792 22.5231C24.7652 22.1899 24.8107 21.8461 24.8146 21.5004Z" stroke="white" stroke-width="0.75" stroke-linecap="round" stroke-linejoin="round"/>
<path d="M20.9999 23.1879C21.8697 23.1879 22.5749 22.4324 22.5749 21.5004C22.5749 20.5683 21.8697 19.8129 20.9999 19.8129C20.13 19.8129 19.4249 20.5683 19.4249 21.5004C19.4249 22.4324 20.13 23.1879 20.9999 23.1879Z" stroke="white" stroke-width="0.75" stroke-linecap="round" stroke-linejoin="round"/>
</mask>
<g mask="url(#mask0_2757_1176)">
<rect width="14" height="15" transform="translate(14 14.0004)" fill="#0278D5"/>
</g>
<mask id="mask1_2757_1176" style="mask-type:alpha" maskUnits="userSpaceOnUse" x="15" y="15" width="12" height="13">
<path d="M24.8146 21.5004C24.8107 21.1547 24.7652 20.8109 24.6792 20.4777L25.8999 19.3527L25.1847 18.0231L23.6788 18.5918C23.2138 18.1036 22.6399 17.7514 22.0118 17.569L21.7152 15.8754H20.2847L19.9881 17.5731C19.36 17.7555 18.786 18.1077 18.321 18.5959L16.8152 18.0231L16.0999 19.3527L17.3206 20.4777C17.2347 20.8109 17.1892 21.1547 17.1852 21.5004C17.1892 21.8461 17.2347 22.1899 17.3206 22.5231L16.0999 23.6481L16.8152 24.9777L18.321 24.4101C18.786 24.8983 19.36 25.2504 19.9881 25.4328L20.2847 27.1254H21.7152L22.0118 25.4277C22.6399 25.2453 23.2138 24.8931 23.6788 24.4049L25.1847 24.9726L25.8999 23.643L24.6792 22.5231C24.7652 22.1899 24.8107 21.8461 24.8146 21.5004Z" stroke="white" stroke-linecap="round" stroke-linejoin="round"/>
<path d="M20.9999 23.1879C21.8697 23.1879 22.5749 22.4324 22.5749 21.5004C22.5749 20.5683 21.8697 19.8129 20.9999 19.8129C20.13 19.8129 19.4249 20.5683 19.4249 21.5004C19.4249 22.4324 20.13 23.1879 20.9999 23.1879Z" stroke="white" stroke-linecap="round" stroke-linejoin="round"/>
</mask>
<g mask="url(#mask1_2757_1176)">
<rect width="14" height="15" transform="translate(14 14.0004)" fill="#0278D5"/>
</g>
</svg>
