<svg width="162" height="50" viewBox="0 0 162 50" fill="none" xmlns="http://www.w3.org/2000/svg">
<path fill-rule="evenodd" clip-rule="evenodd" d="M17.5243 11.4816L9.40399 10.0825C8.67425 9.95669 7.92672 9.97493 7.20408 10.1362C6.48144 10.2974 5.79785 10.5985 5.19234 11.0222C4.58683 11.4459 4.07125 11.9839 3.67506 12.6056C3.27887 13.2273 3.00982 13.9204 2.88328 14.6454L0.0829034 30.6995C-0.172565 32.1635 0.167801 33.6684 1.02913 34.8831C1.89046 36.0978 3.20221 36.9229 4.67583 37.1768L9.609 38.0257L15.8515 32.7927L4.82571 23.8731C4.70317 23.774 4.6041 23.6493 4.53552 23.5078C4.46694 23.3664 4.43053 23.2117 4.42889 23.0547C4.42724 22.8977 4.4604 22.7423 4.526 22.5995C4.5916 22.4567 4.68805 22.33 4.80848 22.2283L17.5243 11.4816ZM12.3784 38.5024L20.596 39.9178C22.0695 40.1713 23.5841 39.8331 24.8066 38.9774C26.0291 38.1217 26.8594 36.8187 27.115 35.3549L29.9171 19.3016C30.1726 17.8376 29.8322 16.3327 28.9709 15.118C28.1095 13.9033 26.7978 13.0783 25.3242 12.8243L20.285 11.9566L13.8505 17.3958L24.7488 26.4926C24.8689 26.5929 24.9654 26.718 25.0317 26.8593C25.0981 27.0005 25.1325 27.1544 25.1327 27.3103C25.1328 27.4661 25.0987 27.6202 25.0327 27.7615C24.9667 27.9029 24.8704 28.0283 24.7505 28.1288L12.3784 38.5024ZM22.3843 27.3133L17.526 31.3867L7.1885 23.0242L12.1863 18.801L22.3843 27.3133Z" fill="url(#paint0_linear_2_39)"/>
<path d="M35.375 22.5455V13.8182H40.9659V15.1435H36.956V17.5128H40.5824V18.8381H36.956V22.5455H35.375ZM44.7553 22.6733C44.0991 22.6733 43.5323 22.537 43.055 22.2643C42.5806 21.9887 42.2155 21.5995 41.9599 21.0966C41.7042 20.591 41.5763 19.9958 41.5763 19.3111C41.5763 18.6378 41.7042 18.0469 41.9599 17.5384C42.2184 17.027 42.5792 16.6293 43.0423 16.3452C43.5053 16.0583 44.0494 15.9148 44.6744 15.9148C45.0778 15.9148 45.4584 15.9802 45.8164 16.1108C46.1772 16.2387 46.4954 16.4375 46.7709 16.7074C47.0494 16.9773 47.2681 17.3211 47.4272 17.7387C47.5863 18.1534 47.6658 18.6478 47.6658 19.2216V19.6946H42.3008V18.6549H46.1871C46.1843 18.3594 46.1204 18.0966 45.9954 17.8665C45.8704 17.6336 45.6957 17.4503 45.4712 17.3168C45.2496 17.1833 44.9911 17.1165 44.6957 17.1165C44.3803 17.1165 44.1033 17.1932 43.8647 17.3466C43.6261 17.4972 43.44 17.6961 43.3065 17.9432C43.1758 18.1875 43.109 18.456 43.1062 18.7486V19.6563C43.1062 20.037 43.1758 20.3637 43.315 20.6364C43.4542 20.9063 43.6488 21.1137 43.8988 21.2586C44.1488 21.4006 44.4414 21.4716 44.7766 21.4716C45.0011 21.4716 45.2042 21.4404 45.386 21.3779C45.5678 21.3125 45.7255 21.2174 45.859 21.0924C45.9925 20.9674 46.0934 20.8125 46.1616 20.6279L47.6019 20.7898C47.511 21.1705 47.3377 21.5029 47.082 21.787C46.8292 22.0682 46.5053 22.287 46.1104 22.4432C45.7155 22.5966 45.2638 22.6733 44.7553 22.6733ZM50.8544 22.6776C50.4396 22.6776 50.066 22.6037 49.7337 22.456C49.4041 22.3054 49.1428 22.0839 48.9496 21.7912C48.7592 21.4986 48.6641 21.1378 48.6641 20.7089C48.6641 20.3395 48.7322 20.0341 48.8686 19.7927C49.005 19.5512 49.191 19.358 49.4268 19.2131C49.6626 19.0682 49.9283 18.9588 50.2237 18.885C50.522 18.8083 50.8303 18.7529 51.1484 18.7188C51.532 18.679 51.843 18.6435 52.0817 18.6123C52.3203 18.5782 52.4936 18.527 52.6016 18.4588C52.7124 18.3878 52.7678 18.2784 52.7678 18.1307V18.1052C52.7678 17.7841 52.6726 17.5356 52.4822 17.3594C52.2919 17.1833 52.0178 17.0952 51.6598 17.0952C51.282 17.0952 50.9822 17.1776 50.7606 17.3424C50.5419 17.5071 50.3942 17.7017 50.3175 17.9262L48.8771 17.7216C48.9908 17.3239 49.1783 16.9915 49.4396 16.7245C49.701 16.4546 50.0206 16.2529 50.3984 16.1194C50.7763 15.983 51.1939 15.9148 51.6513 15.9148C51.9666 15.9148 52.2805 15.9517 52.593 16.0256C52.9055 16.0995 53.191 16.2216 53.4496 16.3921C53.7081 16.5597 53.9155 16.7884 54.0717 17.0782C54.2308 17.3679 54.3104 17.7302 54.3104 18.1648V22.5455H52.8274V21.6464H52.7763C52.6825 21.8282 52.5504 21.9986 52.38 22.1577C52.2124 22.314 52.0007 22.4404 51.745 22.537C51.4922 22.6307 51.1953 22.6776 50.8544 22.6776ZM51.255 21.5441C51.5646 21.5441 51.8331 21.483 52.0604 21.3608C52.2876 21.2358 52.4624 21.0711 52.5845 20.8665C52.7095 20.662 52.772 20.439 52.772 20.1975V19.4262C52.7237 19.4659 52.6413 19.5029 52.5249 19.537C52.4112 19.5711 52.2834 19.6009 52.1413 19.6265C51.9993 19.652 51.8587 19.6748 51.7195 19.6946C51.5803 19.7145 51.4595 19.7316 51.3572 19.7458C51.1271 19.777 50.9212 19.8282 50.7393 19.8992C50.5575 19.9702 50.4141 20.0696 50.3089 20.1975C50.2038 20.3225 50.1513 20.4844 50.1513 20.6833C50.1513 20.9674 50.255 21.1819 50.4624 21.3267C50.6697 21.4716 50.9339 21.5441 51.255 21.5441ZM59.13 16V17.1932H55.3672V16H59.13ZM56.2962 14.4319H57.8388V20.5767C57.8388 20.7841 57.87 20.9432 57.9325 21.054C57.9979 21.162 58.0831 21.2358 58.1882 21.2756C58.2933 21.3154 58.4098 21.3353 58.5376 21.3353C58.6342 21.3353 58.7223 21.3282 58.8018 21.314C58.8842 21.2998 58.9467 21.287 58.9893 21.2756L59.2493 22.4816C59.1669 22.51 59.049 22.5412 58.8956 22.5753C58.745 22.6094 58.5604 22.6293 58.3416 22.635C57.9553 22.6464 57.6072 22.5881 57.2976 22.4603C56.9879 22.3296 56.7422 22.1279 56.5604 21.8552C56.3814 21.5824 56.2933 21.2415 56.2962 20.8324V14.4319ZM64.592 19.7927V16H66.1346V22.5455H64.6388V21.3821H64.5707C64.4229 21.7486 64.18 22.0483 63.842 22.2813C63.5067 22.5142 63.0934 22.6307 62.6019 22.6307C62.1729 22.6307 61.7937 22.5356 61.4641 22.3452C61.1374 22.152 60.8817 21.8722 60.6971 21.5057C60.5124 21.1364 60.4201 20.6904 60.4201 20.1677V16H61.9627V19.929C61.9627 20.3438 62.0763 20.6733 62.3036 20.9177C62.5309 21.162 62.8292 21.2841 63.1985 21.2841C63.4258 21.2841 63.6459 21.2287 63.859 21.1179C64.0721 21.0071 64.2468 20.8424 64.3832 20.6236C64.5224 20.402 64.592 20.125 64.592 19.7927ZM67.7209 22.5455V16H69.2166V17.091H69.2848C69.4041 16.7131 69.6087 16.4219 69.8984 16.2174C70.191 16.01 70.5249 15.9063 70.8999 15.9063C70.9851 15.9063 71.0803 15.9106 71.1854 15.9191C71.2933 15.9248 71.3828 15.9347 71.4538 15.9489V17.3679C71.3885 17.3452 71.2848 17.3253 71.1428 17.3083C71.0035 17.2884 70.8686 17.2785 70.7379 17.2785C70.4567 17.2785 70.2038 17.3395 69.9794 17.4617C69.7578 17.581 69.5831 17.7472 69.4553 17.9603C69.3274 18.1733 69.2635 18.4191 69.2635 18.6975V22.5455H67.7209ZM75.1069 22.6733C74.4506 22.6733 73.8839 22.537 73.4066 22.2643C72.9322 21.9887 72.5671 21.5995 72.3114 21.0966C72.0557 20.591 71.9279 19.9958 71.9279 19.3111C71.9279 18.6378 72.0557 18.0469 72.3114 17.5384C72.57 17.027 72.9307 16.6293 73.3938 16.3452C73.8569 16.0583 74.4009 15.9148 75.0259 15.9148C75.4293 15.9148 75.81 15.9802 76.168 16.1108C76.5288 16.2387 76.8469 16.4375 77.1225 16.7074C77.4009 16.9773 77.6197 17.3211 77.7788 17.7387C77.9379 18.1534 78.0174 18.6478 78.0174 19.2216V19.6946H72.6523V18.6549H76.5387C76.5359 18.3594 76.4719 18.0966 76.3469 17.8665C76.2219 17.6336 76.0472 17.4503 75.8228 17.3168C75.6012 17.1833 75.3427 17.1165 75.0472 17.1165C74.7319 17.1165 74.4549 17.1932 74.2163 17.3466C73.9776 17.4972 73.7915 17.6961 73.658 17.9432C73.5273 18.1875 73.4606 18.456 73.4577 18.7486V19.6563C73.4577 20.037 73.5273 20.3637 73.6665 20.6364C73.8057 20.9063 74.0004 21.1137 74.2504 21.2586C74.5004 21.4006 74.793 21.4716 75.1282 21.4716C75.3526 21.4716 75.5557 21.4404 75.7376 21.3779C75.9194 21.3125 76.0771 21.2174 76.2106 21.0924C76.3441 20.9674 76.445 20.8125 76.5131 20.6279L77.9535 20.7898C77.8626 21.1705 77.6893 21.5029 77.4336 21.787C77.1807 22.0682 76.8569 22.287 76.462 22.4432C76.0671 22.5966 75.6154 22.6733 75.1069 22.6733ZM82.3672 13.8182H84.3018L86.8928 20.1421H86.995L89.5859 13.8182H91.5206V22.5455H90.0035V16.5498H89.9226L87.5106 22.5199H86.3771L83.9652 16.537H83.8842V22.5455H82.3672V13.8182ZM95.0575 22.6776C94.6428 22.6776 94.2692 22.6037 93.9368 22.456C93.6072 22.3054 93.3459 22.0839 93.1527 21.7912C92.9624 21.4986 92.8672 21.1378 92.8672 20.7089C92.8672 20.3395 92.9354 20.0341 93.0717 19.7927C93.2081 19.5512 93.3942 19.358 93.63 19.2131C93.8658 19.0682 94.1314 18.9588 94.4268 18.885C94.7251 18.8083 95.0334 18.7529 95.3516 18.7188C95.7351 18.679 96.0462 18.6435 96.2848 18.6123C96.5234 18.5782 96.6967 18.527 96.8047 18.4588C96.9155 18.3878 96.9709 18.2784 96.9709 18.1307V18.1052C96.9709 17.7841 96.8757 17.5356 96.6854 17.3594C96.495 17.1833 96.2209 17.0952 95.8629 17.0952C95.4851 17.0952 95.1854 17.1776 94.9638 17.3424C94.745 17.5071 94.5973 17.7017 94.5206 17.9262L93.0803 17.7216C93.1939 17.3239 93.3814 16.9915 93.6428 16.7245C93.9041 16.4546 94.2237 16.2529 94.6016 16.1194C94.9794 15.983 95.397 15.9148 95.8544 15.9148C96.1697 15.9148 96.4837 15.9517 96.7962 16.0256C97.1087 16.0995 97.3942 16.2216 97.6527 16.3921C97.9112 16.5597 98.1186 16.7884 98.2749 17.0782C98.4339 17.3679 98.5135 17.7302 98.5135 18.1648V22.5455H97.0305V21.6464H96.9794C96.8856 21.8282 96.7535 21.9986 96.5831 22.1577C96.4155 22.314 96.2038 22.4404 95.9481 22.537C95.6953 22.6307 95.3984 22.6776 95.0575 22.6776ZM95.4581 21.5441C95.7678 21.5441 96.0362 21.483 96.2635 21.3608C96.4908 21.2358 96.6655 21.0711 96.7876 20.8665C96.9126 20.662 96.9751 20.439 96.9751 20.1975V19.4262C96.9268 19.4659 96.8445 19.5029 96.728 19.537C96.6143 19.5711 96.4865 19.6009 96.3445 19.6265C96.2024 19.652 96.0618 19.6748 95.9226 19.6946C95.7834 19.7145 95.6626 19.7316 95.5604 19.7458C95.3303 19.777 95.1243 19.8282 94.9425 19.8992C94.7606 19.9702 94.6172 20.0696 94.5121 20.1975C94.407 20.3225 94.3544 20.4844 94.3544 20.6833C94.3544 20.9674 94.4581 21.1819 94.6655 21.3267C94.8729 21.4716 95.1371 21.5441 95.4581 21.5441ZM101.607 18.7103V22.5455H100.064V16H101.539V17.1123H101.616C101.766 16.7458 102.006 16.4546 102.336 16.2387C102.668 16.0228 103.079 15.9148 103.567 15.9148C104.019 15.9148 104.412 16.0114 104.748 16.2046C105.086 16.3978 105.347 16.6776 105.532 17.0441C105.719 17.4106 105.812 17.8552 105.809 18.3779V22.5455H104.266V18.6165C104.266 18.179 104.152 17.8367 103.925 17.5895C103.701 17.3424 103.39 17.2188 102.992 17.2188C102.722 17.2188 102.482 17.2784 102.272 17.3978C102.064 17.5142 101.901 17.6833 101.782 17.9049C101.665 18.1265 101.607 18.3949 101.607 18.7103ZM109.26 22.6776C108.846 22.6776 108.472 22.6037 108.14 22.456C107.81 22.3054 107.549 22.0839 107.356 21.7912C107.165 21.4986 107.07 21.1378 107.07 20.7089C107.07 20.3395 107.138 20.0341 107.275 19.7927C107.411 19.5512 107.597 19.358 107.833 19.2131C108.069 19.0682 108.334 18.9588 108.63 18.885C108.928 18.8083 109.236 18.7529 109.554 18.7188C109.938 18.679 110.249 18.6435 110.488 18.6123C110.726 18.5782 110.9 18.527 111.008 18.4588C111.118 18.3878 111.174 18.2784 111.174 18.1307V18.1052C111.174 17.7841 111.079 17.5356 110.888 17.3594C110.698 17.1833 110.424 17.0952 110.066 17.0952C109.688 17.0952 109.388 17.1776 109.167 17.3424C108.948 17.5071 108.8 17.7017 108.724 17.9262L107.283 17.7216C107.397 17.3239 107.584 16.9915 107.846 16.7245C108.107 16.4546 108.427 16.2529 108.804 16.1194C109.182 15.983 109.6 15.9148 110.057 15.9148C110.373 15.9148 110.687 15.9517 110.999 16.0256C111.312 16.0995 111.597 16.2216 111.856 16.3921C112.114 16.5597 112.322 16.7884 112.478 17.0782C112.637 17.3679 112.716 17.7302 112.716 18.1648V22.5455H111.233V21.6464H111.182C111.089 21.8282 110.956 21.9986 110.786 22.1577C110.618 22.314 110.407 22.4404 110.151 22.537C109.898 22.6307 109.601 22.6776 109.26 22.6776ZM109.661 21.5441C109.971 21.5441 110.239 21.483 110.466 21.3608C110.694 21.2358 110.868 21.0711 110.991 20.8665C111.116 20.662 111.178 20.439 111.178 20.1975V19.4262C111.13 19.4659 111.047 19.5029 110.931 19.537C110.817 19.5711 110.689 19.6009 110.547 19.6265C110.405 19.652 110.265 19.6748 110.126 19.6946C109.986 19.7145 109.866 19.7316 109.763 19.7458C109.533 19.777 109.327 19.8282 109.145 19.8992C108.964 19.9702 108.82 20.0696 108.715 20.1975C108.61 20.3225 108.557 20.4844 108.557 20.6833C108.557 20.9674 108.661 21.1819 108.868 21.3267C109.076 21.4716 109.34 21.5441 109.661 21.5441ZM117.114 25.1364C116.56 25.1364 116.084 25.0611 115.687 24.9106C115.289 24.7628 114.969 24.564 114.728 24.314C114.486 24.064 114.319 23.787 114.225 23.483L115.614 23.1464C115.677 23.2742 115.768 23.4006 115.887 23.5256C116.006 23.6535 116.167 23.7586 116.368 23.841C116.573 23.9262 116.83 23.9688 117.14 23.9688C117.577 23.9688 117.939 23.8623 118.226 23.6492C118.513 23.439 118.657 23.0924 118.657 22.6094V21.3694H118.58C118.501 21.5285 118.384 21.6918 118.231 21.8594C118.08 22.027 117.88 22.1677 117.63 22.2813C117.383 22.3949 117.072 22.4517 116.697 22.4517C116.194 22.4517 115.738 22.3339 115.329 22.0981C114.922 21.8594 114.599 21.5043 114.357 21.0327C114.118 20.5583 113.999 19.9645 113.999 19.2515C113.999 18.5327 114.118 17.9262 114.357 17.4319C114.599 16.9347 114.924 16.5583 115.333 16.3026C115.742 16.0441 116.198 15.9148 116.701 15.9148C117.084 15.9148 117.4 15.9802 117.647 16.1108C117.897 16.2387 118.096 16.3935 118.243 16.5753C118.391 16.7543 118.503 16.9233 118.58 17.0824H118.665V16H120.187V22.652C120.187 23.2117 120.053 23.6748 119.786 24.0412C119.519 24.4077 119.154 24.6819 118.691 24.8637C118.228 25.0455 117.702 25.1364 117.114 25.1364ZM117.127 21.2415C117.454 21.2415 117.732 21.162 117.962 21.0029C118.192 20.8438 118.367 20.6151 118.486 20.3168C118.606 20.0185 118.665 19.6606 118.665 19.2429C118.665 18.831 118.606 18.4702 118.486 18.1606C118.37 17.8509 118.197 17.6108 117.966 17.4404C117.739 17.2671 117.459 17.1804 117.127 17.1804C116.783 17.1804 116.496 17.2699 116.266 17.4489C116.036 17.6279 115.863 17.8736 115.746 18.1861C115.63 18.4958 115.572 18.8481 115.572 19.2429C115.572 19.6435 115.63 19.9944 115.746 20.2955C115.866 20.5938 116.04 20.8267 116.27 20.9944C116.503 21.1591 116.789 21.2415 117.127 21.2415ZM124.665 22.6733C124.009 22.6733 123.442 22.537 122.965 22.2643C122.491 21.9887 122.126 21.5995 121.87 21.0966C121.614 20.591 121.486 19.9958 121.486 19.3111C121.486 18.6378 121.614 18.0469 121.87 17.5384C122.128 17.027 122.489 16.6293 122.952 16.3452C123.415 16.0583 123.959 15.9148 124.584 15.9148C124.988 15.9148 125.368 15.9802 125.726 16.1108C126.087 16.2387 126.405 16.4375 126.681 16.7074C126.959 16.9773 127.178 17.3211 127.337 17.7387C127.496 18.1534 127.576 18.6478 127.576 19.2216V19.6946H122.211V18.6549H126.097C126.094 18.3594 126.03 18.0966 125.905 17.8665C125.78 17.6336 125.606 17.4503 125.381 17.3168C125.16 17.1833 124.901 17.1165 124.606 17.1165C124.29 17.1165 124.013 17.1932 123.775 17.3466C123.536 17.4972 123.35 17.6961 123.216 17.9432C123.086 18.1875 123.019 18.456 123.016 18.7486V19.6563C123.016 20.037 123.086 20.3637 123.225 20.6364C123.364 20.9063 123.559 21.1137 123.809 21.2586C124.059 21.4006 124.351 21.4716 124.687 21.4716C124.911 21.4716 125.114 21.4404 125.296 21.3779C125.478 21.3125 125.635 21.2174 125.769 21.0924C125.902 20.9674 126.003 20.8125 126.072 20.6279L127.512 20.7898C127.421 21.1705 127.248 21.5029 126.992 21.787C126.739 22.0682 126.415 22.287 126.02 22.4432C125.626 22.5966 125.174 22.6733 124.665 22.6733ZM128.881 22.5455V16H130.355V17.1123H130.432C130.568 16.7373 130.794 16.4446 131.11 16.2344C131.425 16.0213 131.801 15.9148 132.239 15.9148C132.682 15.9148 133.056 16.0228 133.36 16.2387C133.666 16.4517 133.882 16.7429 134.007 17.1123H134.075C134.22 16.7486 134.465 16.4588 134.808 16.2429C135.155 16.0242 135.565 15.9148 136.04 15.9148C136.642 15.9148 137.134 16.1052 137.514 16.4858C137.895 16.8665 138.085 17.4219 138.085 18.152V22.5455H136.539V18.3907C136.539 17.9844 136.431 17.6875 136.215 17.5C135.999 17.3097 135.735 17.2145 135.422 17.2145C135.05 17.2145 134.759 17.331 134.548 17.564C134.341 17.7941 134.237 18.0938 134.237 18.4631V22.5455H132.725V18.3267C132.725 17.9887 132.622 17.7188 132.418 17.5171C132.216 17.3154 131.952 17.2145 131.625 17.2145C131.404 17.2145 131.202 17.2713 131.02 17.385C130.838 17.4958 130.693 17.6534 130.585 17.858C130.477 18.0597 130.423 18.2955 130.423 18.5654V22.5455H128.881ZM142.548 22.6733C141.892 22.6733 141.325 22.537 140.848 22.2643C140.373 21.9887 140.008 21.5995 139.753 21.0966C139.497 20.591 139.369 19.9958 139.369 19.3111C139.369 18.6378 139.497 18.0469 139.753 17.5384C140.011 17.027 140.372 16.6293 140.835 16.3452C141.298 16.0583 141.842 15.9148 142.467 15.9148C142.871 15.9148 143.251 15.9802 143.609 16.1108C143.97 16.2387 144.288 16.4375 144.564 16.7074C144.842 16.9773 145.061 17.3211 145.22 17.7387C145.379 18.1534 145.459 18.6478 145.459 19.2216V19.6946H140.094V18.6549H143.98C143.977 18.3594 143.913 18.0966 143.788 17.8665C143.663 17.6336 143.488 17.4503 143.264 17.3168C143.042 17.1833 142.784 17.1165 142.488 17.1165C142.173 17.1165 141.896 17.1932 141.657 17.3466C141.419 17.4972 141.233 17.6961 141.099 17.9432C140.969 18.1875 140.902 18.456 140.899 18.7486V19.6563C140.899 20.037 140.969 20.3637 141.108 20.6364C141.247 20.9063 141.442 21.1137 141.692 21.2586C141.942 21.4006 142.234 21.4716 142.569 21.4716C142.794 21.4716 142.997 21.4404 143.179 21.3779C143.361 21.3125 143.518 21.2174 143.652 21.0924C143.785 20.9674 143.886 20.8125 143.954 20.6279L145.395 20.7898C145.304 21.1705 145.13 21.5029 144.875 21.787C144.622 22.0682 144.298 22.287 143.903 22.4432C143.508 22.5966 143.057 22.6733 142.548 22.6733ZM148.306 18.7103V22.5455H146.764V16H148.238V17.1123H148.315C148.465 16.7458 148.705 16.4546 149.035 16.2387C149.367 16.0228 149.778 15.9148 150.266 15.9148C150.718 15.9148 151.112 16.0114 151.447 16.2046C151.785 16.3978 152.046 16.6776 152.231 17.0441C152.418 17.4106 152.511 17.8552 152.508 18.3779V22.5455H150.965V18.6165C150.965 18.179 150.852 17.8367 150.624 17.5895C150.4 17.3424 150.089 17.2188 149.691 17.2188C149.421 17.2188 149.181 17.2784 148.971 17.3978C148.764 17.5142 148.6 17.6833 148.481 17.9049C148.364 18.1265 148.306 18.3949 148.306 18.7103ZM157.345 16V17.1932H153.582V16H157.345ZM154.511 14.4319H156.053V20.5767C156.053 20.7841 156.085 20.9432 156.147 21.054C156.213 21.162 156.298 21.2358 156.403 21.2756C156.508 21.3154 156.624 21.3353 156.752 21.3353C156.849 21.3353 156.937 21.3282 157.016 21.314C157.099 21.2998 157.161 21.287 157.204 21.2756L157.464 22.4816C157.382 22.51 157.264 22.5412 157.11 22.5753C156.96 22.6094 156.775 22.6293 156.556 22.635C156.17 22.6464 155.822 22.5881 155.512 22.4603C155.203 22.3296 154.957 22.1279 154.775 21.8552C154.596 21.5824 154.508 21.2415 154.511 20.8324V14.4319ZM37.1903 37.6776C36.7756 37.6776 36.402 37.6037 36.0696 37.456C35.7401 37.3054 35.4787 37.0839 35.2855 36.7912C35.0952 36.4986 35 36.1378 35 35.7089C35 35.3395 35.0682 35.0341 35.2045 34.7927C35.3409 34.5512 35.527 34.358 35.7628 34.2131C35.9986 34.0682 36.2642 33.9589 36.5597 33.885C36.858 33.8083 37.1662 33.7529 37.4844 33.7188C37.8679 33.679 38.179 33.6435 38.4176 33.6123C38.6562 33.5782 38.8295 33.527 38.9375 33.4589C39.0483 33.3878 39.1037 33.2785 39.1037 33.1307V33.1052C39.1037 32.7841 39.0085 32.5356 38.8182 32.3594C38.6278 32.1833 38.3537 32.0952 37.9957 32.0952C37.6179 32.0952 37.3182 32.1776 37.0966 32.3424C36.8778 32.5071 36.7301 32.7017 36.6534 32.9262L35.2131 32.7216C35.3267 32.3239 35.5142 31.9915 35.7756 31.7245C36.0369 31.4546 36.3565 31.2529 36.7344 31.1194C37.1122 30.983 37.5298 30.9148 37.9872 30.9148C38.3026 30.9148 38.6165 30.9517 38.929 31.0256C39.2415 31.0995 39.527 31.2216 39.7855 31.3921C40.044 31.5597 40.2514 31.7884 40.4077 32.0782C40.5668 32.3679 40.6463 32.7302 40.6463 33.1648V37.5455H39.1633V36.6464H39.1122C39.0185 36.8282 38.8864 36.9986 38.7159 37.1577C38.5483 37.314 38.3366 37.4404 38.081 37.537C37.8281 37.6307 37.5312 37.6776 37.1903 37.6776ZM37.5909 36.5441C37.9006 36.5441 38.169 36.483 38.3963 36.3608C38.6236 36.2358 38.7983 36.0711 38.9204 35.8665C39.0454 35.662 39.108 35.439 39.108 35.1975V34.4262C39.0597 34.466 38.9773 34.5029 38.8608 34.537C38.7472 34.5711 38.6193 34.6009 38.4773 34.6265C38.3352 34.652 38.1946 34.6748 38.0554 34.6946C37.9162 34.7145 37.7955 34.7316 37.6932 34.7458C37.4631 34.777 37.2571 34.8282 37.0753 34.8992C36.8935 34.9702 36.75 35.0696 36.6449 35.1975C36.5398 35.3225 36.4872 35.4844 36.4872 35.6833C36.4872 35.9674 36.5909 36.1819 36.7983 36.3267C37.0057 36.4716 37.2699 36.5441 37.5909 36.5441ZM43.7401 33.7103V37.5455H42.1974V31H43.6719V32.1123H43.7486C43.8991 31.7458 44.1392 31.4546 44.4687 31.2387C44.8011 31.0228 45.2116 30.9148 45.7003 30.9148C46.152 30.9148 46.5455 31.0114 46.8807 31.2046C47.2187 31.3978 47.4801 31.6776 47.6648 32.0441C47.8523 32.4106 47.9446 32.8552 47.9418 33.3779V37.5455H46.3991V33.6165C46.3991 33.179 46.2855 32.8367 46.0582 32.5895C45.8338 32.3424 45.5227 32.2188 45.125 32.2188C44.8551 32.2188 44.6151 32.2785 44.4048 32.3978C44.1974 32.5142 44.0341 32.6833 43.9148 32.9049C43.7983 33.1265 43.7401 33.3949 43.7401 33.7103ZM51.9389 37.6606C51.4247 37.6606 50.9645 37.5285 50.5582 37.2643C50.152 37 49.831 36.6165 49.5952 36.1137C49.3594 35.6108 49.2415 35 49.2415 34.2813C49.2415 33.554 49.3608 32.9404 49.5994 32.4404C49.8409 31.9375 50.1662 31.5583 50.5753 31.3026C50.9844 31.0441 51.4403 30.9148 51.9432 30.9148C52.3267 30.9148 52.642 30.9802 52.8892 31.1108C53.1364 31.2387 53.3324 31.3935 53.4773 31.5753C53.6222 31.7543 53.7344 31.9233 53.8139 32.0824H53.8778V28.8182H55.4247V37.5455H53.9077V36.5143H53.8139C53.7344 36.6733 53.6193 36.8424 53.4687 37.0214C53.3182 37.1975 53.1193 37.3481 52.8722 37.4731C52.625 37.5981 52.3139 37.6606 51.9389 37.6606ZM52.3693 36.3949C52.696 36.3949 52.9744 36.3069 53.2045 36.1307C53.4347 35.9517 53.6094 35.7032 53.7287 35.385C53.848 35.0668 53.9077 34.6961 53.9077 34.2728C53.9077 33.8495 53.848 33.4816 53.7287 33.1691C53.6122 32.8566 53.4389 32.6137 53.2088 32.4404C52.9815 32.2671 52.7017 32.1804 52.3693 32.1804C52.0256 32.1804 51.7386 32.2699 51.5085 32.4489C51.2784 32.6279 51.1051 32.875 50.9886 33.1904C50.8722 33.5057 50.8139 33.8665 50.8139 34.2728C50.8139 34.6819 50.8722 35.0469 50.9886 35.3679C51.108 35.6861 51.2827 35.9375 51.5128 36.1222C51.7457 36.304 52.0312 36.3949 52.3693 36.3949ZM60.1133 37.5455V28.8182H65.7894V30.1435H61.6942V32.5128H65.4954V33.8381H61.6942V36.2202H65.8235V37.5455H60.1133ZM68.5955 31L69.9165 33.4162L71.2589 31H72.891L70.918 34.2728L72.9251 37.5455H71.3015L69.9165 35.189L68.5444 37.5455H66.908L68.9023 34.2728L66.9592 31H68.5955ZM74.0842 40V31H75.6012V32.0824H75.6907C75.7702 31.9233 75.8825 31.7543 76.0273 31.5753C76.1722 31.3935 76.3682 31.2387 76.6154 31.1108C76.8626 30.9802 77.1779 30.9148 77.5614 30.9148C78.0671 30.9148 78.5231 31.0441 78.9293 31.3026C79.3384 31.5583 79.6623 31.9375 79.9009 32.4404C80.1424 32.9404 80.2631 33.554 80.2631 34.2813C80.2631 35 80.1452 35.6108 79.9094 36.1137C79.6736 36.6165 79.3526 37 78.9464 37.2643C78.5401 37.5285 78.0799 37.6606 77.5657 37.6606C77.1907 37.6606 76.8796 37.5981 76.6325 37.4731C76.3853 37.3481 76.1864 37.1975 76.0359 37.0214C75.8881 36.8424 75.7731 36.6733 75.6907 36.5143H75.6268V40H74.0842ZM75.5969 34.2728C75.5969 34.6961 75.6566 35.0668 75.7759 35.385C75.8981 35.7032 76.0728 35.9517 76.3001 36.1307C76.5302 36.3069 76.8086 36.3949 77.1353 36.3949C77.4762 36.3949 77.7617 36.304 77.9918 36.1222C78.2219 35.9375 78.3952 35.6861 78.5117 35.3679C78.631 35.0469 78.6907 34.6819 78.6907 34.2728C78.6907 33.8665 78.6325 33.5057 78.516 33.1904C78.3995 32.875 78.2262 32.6279 77.9961 32.4489C77.766 32.2699 77.479 32.1804 77.1353 32.1804C76.8057 32.1804 76.5259 32.2671 76.2958 32.4404C76.0657 32.6137 75.891 32.8566 75.7717 33.1691C75.6552 33.4816 75.5969 33.8495 75.5969 34.2728ZM84.4819 37.6733C83.8256 37.6733 83.2589 37.537 82.7816 37.2643C82.3072 36.9887 81.9421 36.5995 81.6864 36.0966C81.4307 35.591 81.3029 34.9958 81.3029 34.3111C81.3029 33.6378 81.4307 33.0469 81.6864 32.5384C81.945 32.027 82.3057 31.6293 82.7688 31.3452C83.2319 31.0583 83.7759 30.9148 84.4009 30.9148C84.8043 30.9148 85.185 30.9802 85.543 31.1108C85.9038 31.2387 86.2219 31.4375 86.4975 31.7074C86.7759 31.9773 86.9947 32.3211 87.1538 32.7387C87.3129 33.1535 87.3924 33.6478 87.3924 34.2216V34.6946H82.0273V33.6549H85.9137C85.9109 33.3594 85.8469 33.0966 85.7219 32.8665C85.5969 32.6336 85.4222 32.4503 85.1978 32.3168C84.9762 32.1833 84.7177 32.1165 84.4222 32.1165C84.1069 32.1165 83.8299 32.1932 83.5913 32.3466C83.3526 32.4972 83.1665 32.6961 83.033 32.9432C82.9023 33.1875 82.8356 33.456 82.8327 33.7486V34.6563C82.8327 35.037 82.9023 35.3637 83.0415 35.6364C83.1807 35.9063 83.3754 36.1137 83.6254 36.2586C83.8754 36.4006 84.168 36.4716 84.5032 36.4716C84.7276 36.4716 84.9307 36.4404 85.1126 36.3779C85.2944 36.3125 85.4521 36.2174 85.5856 36.0924C85.7191 35.9674 85.82 35.8125 85.8881 35.6279L87.3285 35.7898C87.2376 36.1705 87.0643 36.5029 86.8086 36.787C86.5557 37.0682 86.2319 37.287 85.837 37.4432C85.4421 37.5966 84.9904 37.6733 84.4819 37.6733ZM88.6974 37.5455V31H90.1932V32.091H90.2614C90.3807 31.7131 90.5852 31.4219 90.875 31.2174C91.1676 31.01 91.5014 30.9063 91.8764 30.9063C91.9616 30.9063 92.0568 30.9106 92.1619 30.9191C92.2699 30.9248 92.3594 30.9347 92.4304 30.9489V32.3679C92.3651 32.3452 92.2614 32.3253 92.1193 32.3083C91.9801 32.2884 91.8452 32.2785 91.7145 32.2785C91.4332 32.2785 91.1804 32.3395 90.956 32.4617C90.7344 32.581 90.5597 32.7472 90.4318 32.9603C90.304 33.1733 90.2401 33.4191 90.2401 33.6975V37.5455H88.6974ZM93.4553 37.5455V31H94.9979V37.5455H93.4553ZM94.2308 30.0711C93.9865 30.0711 93.7763 29.9901 93.6001 29.8282C93.424 29.6634 93.3359 29.466 93.3359 29.2358C93.3359 29.0029 93.424 28.8054 93.6001 28.6435C93.7763 28.4787 93.9865 28.3964 94.2308 28.3964C94.478 28.3964 94.6882 28.4787 94.8615 28.6435C95.0376 28.8054 95.1257 29.0029 95.1257 29.2358C95.1257 29.466 95.0376 29.6634 94.8615 29.8282C94.6882 29.9901 94.478 30.0711 94.2308 30.0711ZM96.5842 37.5455V31H98.0586V32.1123H98.1353C98.2717 31.7373 98.4975 31.4446 98.8129 31.2344C99.1282 31.0214 99.5046 30.9148 99.9422 30.9148C100.385 30.9148 100.759 31.0228 101.063 31.2387C101.369 31.4517 101.585 31.7429 101.71 32.1123H101.779C101.923 31.7486 102.168 31.4589 102.512 31.2429C102.858 31.0242 103.269 30.9148 103.743 30.9148C104.345 30.9148 104.837 31.1052 105.217 31.4858C105.598 31.8665 105.789 32.4219 105.789 33.152V37.5455H104.242V33.3907C104.242 32.9844 104.134 32.6875 103.918 32.5C103.702 32.3097 103.438 32.2145 103.125 32.2145C102.753 32.2145 102.462 32.331 102.252 32.564C102.044 32.7941 101.94 33.0938 101.94 33.4631V37.5455H100.428V33.3267C100.428 32.9887 100.325 32.7188 100.121 32.5171C99.9192 32.3154 99.6552 32.2145 99.3285 32.2145C99.1069 32.2145 98.9052 32.2714 98.7234 32.385C98.5415 32.4958 98.3967 32.6535 98.2887 32.858C98.1807 33.0597 98.1268 33.2955 98.1268 33.5654V37.5455H96.5842ZM110.251 37.6733C109.595 37.6733 109.028 37.537 108.551 37.2643C108.077 36.9887 107.711 36.5995 107.456 36.0966C107.2 35.591 107.072 34.9958 107.072 34.3111C107.072 33.6378 107.2 33.0469 107.456 32.5384C107.714 32.027 108.075 31.6293 108.538 31.3452C109.001 31.0583 109.545 30.9148 110.17 30.9148C110.574 30.9148 110.954 30.9802 111.312 31.1108C111.673 31.2387 111.991 31.4375 112.267 31.7074C112.545 31.9773 112.764 32.3211 112.923 32.7387C113.082 33.1535 113.162 33.6478 113.162 34.2216V34.6946H107.797V33.6549H111.683C111.68 33.3594 111.616 33.0966 111.491 32.8665C111.366 32.6336 111.192 32.4503 110.967 32.3168C110.746 32.1833 110.487 32.1165 110.192 32.1165C109.876 32.1165 109.599 32.1932 109.361 32.3466C109.122 32.4972 108.936 32.6961 108.802 32.9432C108.672 33.1875 108.605 33.456 108.602 33.7486V34.6563C108.602 35.037 108.672 35.3637 108.811 35.6364C108.95 35.9063 109.145 36.1137 109.395 36.2586C109.645 36.4006 109.937 36.4716 110.273 36.4716C110.497 36.4716 110.7 36.4404 110.882 36.3779C111.064 36.3125 111.221 36.2174 111.355 36.0924C111.488 35.9674 111.589 35.8125 111.657 35.6279L113.098 35.7898C113.007 36.1705 112.834 36.5029 112.578 36.787C112.325 37.0682 112.001 37.287 111.606 37.4432C111.211 37.5966 110.76 37.6733 110.251 37.6733ZM116.009 33.7103V37.5455H114.467V31H115.941V32.1123H116.018C116.168 31.7458 116.409 31.4546 116.738 31.2387C117.07 31.0228 117.481 30.9148 117.97 30.9148C118.421 30.9148 118.815 31.0114 119.15 31.2046C119.488 31.3978 119.749 31.6776 119.934 32.0441C120.122 32.4106 120.214 32.8552 120.211 33.3779V37.5455H118.668V33.6165C118.668 33.179 118.555 32.8367 118.328 32.5895C118.103 32.3424 117.792 32.2188 117.394 32.2188C117.124 32.2188 116.884 32.2785 116.674 32.3978C116.467 32.5142 116.303 32.6833 116.184 32.9049C116.068 33.1265 116.009 33.3949 116.009 33.7103ZM125.048 31V32.1932H121.285V31H125.048ZM122.214 29.4319H123.757V35.5767C123.757 35.7841 123.788 35.9432 123.85 36.054C123.916 36.162 124.001 36.2358 124.106 36.2756C124.211 36.3154 124.328 36.3353 124.455 36.3353C124.552 36.3353 124.64 36.3282 124.72 36.314C124.802 36.2998 124.864 36.287 124.907 36.2756L125.167 37.4816C125.085 37.51 124.967 37.5412 124.813 37.5753C124.663 37.6094 124.478 37.6293 124.259 37.635C123.873 37.6464 123.525 37.5881 123.215 37.4603C122.906 37.3296 122.66 37.1279 122.478 36.8552C122.299 36.5824 122.211 36.2415 122.214 35.8324V29.4319ZM128.221 37.6776C127.807 37.6776 127.433 37.6037 127.101 37.456C126.771 37.3054 126.51 37.0839 126.317 36.7912C126.126 36.4986 126.031 36.1378 126.031 35.7089C126.031 35.3395 126.099 35.0341 126.236 34.7927C126.372 34.5512 126.558 34.358 126.794 34.2131C127.03 34.0682 127.295 33.9589 127.591 33.885C127.889 33.8083 128.197 33.7529 128.515 33.7188C128.899 33.679 129.21 33.6435 129.449 33.6123C129.687 33.5782 129.861 33.527 129.969 33.4589C130.079 33.3878 130.135 33.2785 130.135 33.1307V33.1052C130.135 32.7841 130.04 32.5356 129.849 32.3594C129.659 32.1833 129.385 32.0952 129.027 32.0952C128.649 32.0952 128.349 32.1776 128.128 32.3424C127.909 32.5071 127.761 32.7017 127.684 32.9262L126.244 32.7216C126.358 32.3239 126.545 31.9915 126.807 31.7245C127.068 31.4546 127.388 31.2529 127.765 31.1194C128.143 30.983 128.561 30.9148 129.018 30.9148C129.334 30.9148 129.648 30.9517 129.96 31.0256C130.273 31.0995 130.558 31.2216 130.817 31.3921C131.075 31.5597 131.282 31.7884 131.439 32.0782C131.598 32.3679 131.677 32.7302 131.677 33.1648V37.5455H130.194V36.6464H130.143C130.05 36.8282 129.917 36.9986 129.747 37.1577C129.579 37.314 129.368 37.4404 129.112 37.537C128.859 37.6307 128.562 37.6776 128.221 37.6776ZM128.622 36.5441C128.932 36.5441 129.2 36.483 129.427 36.3608C129.655 36.2358 129.829 36.0711 129.952 35.8665C130.076 35.662 130.139 35.439 130.139 35.1975V34.4262C130.091 34.466 130.008 34.5029 129.892 34.537C129.778 34.5711 129.65 34.6009 129.508 34.6265C129.366 34.652 129.226 34.6748 129.086 34.6946C128.947 34.7145 128.827 34.7316 128.724 34.7458C128.494 34.777 128.288 34.8282 128.106 34.8992C127.925 34.9702 127.781 35.0696 127.676 35.1975C127.571 35.3225 127.518 35.4844 127.518 35.6833C127.518 35.9674 127.622 36.1819 127.829 36.3267C128.037 36.4716 128.301 36.5441 128.622 36.5441ZM136.497 31V32.1932H132.734V31H136.497ZM133.663 29.4319H135.206V35.5767C135.206 35.7841 135.237 35.9432 135.3 36.054C135.365 36.162 135.45 36.2358 135.555 36.2756C135.66 36.3154 135.777 36.3353 135.905 36.3353C136.001 36.3353 136.089 36.3282 136.169 36.314C136.251 36.2998 136.314 36.287 136.356 36.2756L136.616 37.4816C136.534 37.51 136.416 37.5412 136.263 37.5753C136.112 37.6094 135.927 37.6293 135.709 37.635C135.322 37.6464 134.974 37.5881 134.665 37.4603C134.355 37.3296 134.109 37.1279 133.927 36.8552C133.748 36.5824 133.66 36.2415 133.663 35.8324V29.4319ZM137.787 37.5455V31H139.33V37.5455H137.787ZM138.563 30.0711C138.318 30.0711 138.108 29.9901 137.932 29.8282C137.756 29.6634 137.668 29.466 137.668 29.2358C137.668 29.0029 137.756 28.8054 137.932 28.6435C138.108 28.4787 138.318 28.3964 138.563 28.3964C138.81 28.3964 139.02 28.4787 139.193 28.6435C139.369 28.8054 139.458 29.0029 139.458 29.2358C139.458 29.466 139.369 29.6634 139.193 29.8282C139.02 29.9901 138.81 30.0711 138.563 30.0711ZM143.771 37.6733C143.132 37.6733 142.578 37.5327 142.109 37.2515C141.64 36.9702 141.277 36.5767 141.018 36.0711C140.763 35.5654 140.635 34.9745 140.635 34.2983C140.635 33.6222 140.763 33.0299 141.018 32.5214C141.277 32.0128 141.64 31.6179 142.109 31.3367C142.578 31.0554 143.132 30.9148 143.771 30.9148C144.41 30.9148 144.964 31.0554 145.433 31.3367C145.902 31.6179 146.264 32.0128 146.52 32.5214C146.778 33.0299 146.907 33.6222 146.907 34.2983C146.907 34.9745 146.778 35.5654 146.52 36.0711C146.264 36.5767 145.902 36.9702 145.433 37.2515C144.964 37.5327 144.41 37.6733 143.771 37.6733ZM143.78 36.4375C144.126 36.4375 144.416 36.3424 144.649 36.152C144.882 35.9589 145.055 35.7003 145.169 35.3765C145.285 35.0526 145.344 34.6918 145.344 34.2941C145.344 33.8935 145.285 33.5313 145.169 33.2074C145.055 32.8807 144.882 32.6208 144.649 32.4276C144.416 32.2344 144.126 32.1378 143.78 32.1378C143.425 32.1378 143.129 32.2344 142.893 32.4276C142.66 32.6208 142.486 32.8807 142.369 33.2074C142.255 33.5313 142.199 33.8935 142.199 34.2941C142.199 34.6918 142.255 35.0526 142.369 35.3765C142.486 35.7003 142.66 35.9589 142.893 36.152C143.129 36.3424 143.425 36.4375 143.78 36.4375ZM149.759 33.7103V37.5455H148.217V31H149.691V32.1123H149.768C149.918 31.7458 150.159 31.4546 150.488 31.2387C150.82 31.0228 151.231 30.9148 151.72 30.9148C152.171 30.9148 152.565 31.0114 152.9 31.2046C153.238 31.3978 153.499 31.6776 153.684 32.0441C153.872 32.4106 153.964 32.8552 153.961 33.3779V37.5455H152.418V33.6165C152.418 33.179 152.305 32.8367 152.078 32.5895C151.853 32.3424 151.542 32.2188 151.144 32.2188C150.874 32.2188 150.634 32.2785 150.424 32.3978C150.217 32.5142 150.053 32.6833 149.934 32.9049C149.818 33.1265 149.759 33.3949 149.759 33.7103Z" fill="black"/>
<defs>
<linearGradient id="paint0_linear_2_39" x1="6.67425" y1="13.2086" x2="28.1878" y2="47.2382" gradientUnits="userSpaceOnUse">
<stop stop-color="#B336FF"/>
<stop offset="1" stop-color="#58159B"/>
</linearGradient>
</defs>
</svg>
