<svg viewBox="0 0 32 32" fill="none" xmlns="http://www.w3.org/2000/svg">
<rect x="3.5" y="3.5" width="7" height="7" rx="3.5" stroke="#0278D5"/>
<rect x="3.5" y="12.5" width="7" height="7" rx="3.5" stroke="#0278D5"/>
<rect x="3.5" y="21.5" width="7" height="7" rx="3.5" stroke="#0278D5"/>
<rect x="12.5" y="3.5" width="7" height="7" rx="3.5" stroke="#0278D5"/>
<rect x="12.5" y="12.5" width="7" height="7" rx="3.5" fill="#0278D5"/>
<rect x="12.5" y="12.5" width="7" height="7" rx="3.5" stroke="#0278D5"/>
<rect x="12.5" y="21.5" width="7" height="7" rx="3.5" stroke="#0278D5"/>
<rect x="21.5" y="3.5" width="7" height="7" rx="3.5" stroke="#0278D5"/>
<path d="M24 7L26 7" stroke="#0278D5" stroke-linecap="round" stroke-linejoin="round"/>
<path d="M25 8V6" stroke="#0278D5" stroke-linecap="round" stroke-linejoin="round"/>
<rect x="21.5" y="12.5" width="7" height="7" rx="3.5" stroke="#0278D5"/>
<rect x="21.5" y="21.5" width="7" height="7" rx="3.5" stroke="#0278D5"/>
<path d="M14 16L18 16" stroke="white" stroke-linecap="round" stroke-linejoin="round"/>
<path d="M6 25H8" stroke="#0278D5" stroke-linecap="round" stroke-linejoin="round"/>
<path d="M7 26V24" stroke="#0278D5" stroke-linecap="round" stroke-linejoin="round"/>
</svg>

