<svg viewBox="0 0 16 16" fill="none" xmlns="http://www.w3.org/2000/svg">
<path fill-rule="evenodd" clip-rule="evenodd" d="M1.35352 6.09934C1.35352 3.47934 3.47448 1.35541 6.09082 1.35541C8.70716 1.35541 10.8281 3.47934 10.8281 6.09934C10.8281 8.71934 8.70716 10.8433 6.09082 10.8433C3.47448 10.8433 1.35352 8.71934 1.35352 6.09934ZM6.09082 0C2.72695 0 0 2.73077 0 6.09934C0 9.46791 2.72695 12.1987 6.09082 12.1987C7.53465 12.1987 8.86114 11.6956 9.90503 10.8549L14.8447 15.8015C15.109 16.0662 15.5375 16.0662 15.8018 15.8015C16.0661 15.5368 16.0661 15.1077 15.8018 14.8431L10.8596 9.89402C11.6872 8.85251 12.1816 7.53375 12.1816 6.09934C12.1816 2.73077 9.45469 0 6.09082 0Z" fill="#9293AB"/>
</svg>
