<svg viewBox="0 0 32 32" fill="none" xmlns="http://www.w3.org/2000/svg">
<path d="M19.5 4.79992C18.0978 4.28255 16.5819 4 15 4C7.8203 4 2 9.8203 2 17C2 24.1797 7.8203 30 15 30C22.1797 30 28 24.1797 28 17C28 15.4181 27.7175 13.9022 27.2001 12.5" stroke="#0278D5" stroke-width="1.5"/>
<path d="M11 29.5V22.6065M11 22.6065V10.6154L23 16.6109L11 22.6065Z" stroke="#0278D5" stroke-width="1.5" stroke-linecap="round" stroke-linejoin="round"/>
<mask id="mask0_2675_23032" style="mask-type:alpha" maskUnits="userSpaceOnUse" x="19" y="1" width="11" height="11">
<circle cx="24.5" cy="6.5" r="4.675" fill="white" stroke="black" stroke-width="1.65"/>
</mask>
<g mask="url(#mask0_2675_23032)">
<circle cx="24.5" cy="6.5" r="5" stroke="#0278D5" stroke-width="1.5"/>
</g>
<path d="M22.5 6.5L26.5 6.5" stroke="#0278D5" stroke-width="1.5" stroke-linecap="round" stroke-linejoin="round"/>
<path d="M24.5 8.5L24.5 4.5" stroke="#0278D5" stroke-width="1.5" stroke-linecap="round" stroke-linejoin="round"/>
</svg>
