<svg viewBox="0 0 33 34" fill="none" xmlns="http://www.w3.org/2000/svg">
<mask id="mask0_2785_1439" style="mask-type:alpha" maskUnits="userSpaceOnUse" x="12" y="13" width="19" height="18">
<path d="M18.625 23.4375H24.375M15.75 14.0938H27.25M14.3125 29.9062H28.6875C29.4814 29.9062 30.125 29.2627 30.125 28.4688V19.8438C30.125 19.0498 29.4814 18.4062 28.6875 18.4062H14.3125C13.5186 18.4062 12.875 19.0498 12.875 19.8438V28.4688C12.875 29.2627 13.5186 29.9062 14.3125 29.9062Z" stroke="black" stroke-linecap="round"/>
</mask>
<g mask="url(#mask0_2785_1439)">
<rect width="23" height="23" transform="translate(10 10.5)" fill="#0278D5"/>
</g>
<rect width="14" height="1.25" transform="translate(15 13.5)" fill="white"/>
<line x1="15.5" y1="16.5" x2="28.5" y2="16.5" stroke="#0278D5" stroke-linecap="round"/>
<path d="M2 30V16.4455M2 16.4455V2L22 9.22276L2 16.4455Z" stroke="#0278D5" stroke-linecap="round" stroke-linejoin="round"/>
</svg>

