<svg viewBox="0 0 16 16" fill="none" xmlns="http://www.w3.org/2000/svg">
<g clip-path="url(#clip0_1048_37314)">
<path fill-rule="evenodd" clip-rule="evenodd" d="M10.25 0C10.4569 -5.96046e-08 10.6424 0.127414 10.7167 0.32051L11.6006 2.61882C11.8213 3.19265 11.9038 3.39684 12.0232 3.56473C12.1365 3.72417 12.2758 3.86346 12.4353 3.97683C12.6032 4.09621 12.8073 4.17866 13.3812 4.39936L15.6795 5.28333C15.8726 5.35759 16 5.54311 16 5.75C16 5.95689 15.8726 6.14241 15.6795 6.21667L13.3812 7.10064C12.8073 7.32134 12.6032 7.40379 12.4353 7.52317C12.2758 7.63654 12.1365 7.77583 12.0232 7.93527C11.9038 8.10316 11.8213 8.30735 11.6006 8.88118L10.7167 11.1795C10.6424 11.3726 10.4569 11.5 10.25 11.5C10.0431 11.5 9.8576 11.3726 9.78333 11.1795L8.89936 8.88118C8.67866 8.30735 8.59621 8.10316 8.47683 7.93527C8.36346 7.77583 8.22416 7.63654 8.06473 7.52317C7.89684 7.40379 7.69265 7.32134 7.11882 7.10064L4.82051 6.21667C4.62741 6.14241 4.5 5.95689 4.5 5.75C4.5 5.54311 4.62741 5.35759 4.82051 5.28333L7.11882 4.39936C7.69265 4.17866 7.89684 4.09621 8.06473 3.97683C8.22417 3.86346 8.36346 3.72417 8.47683 3.56473C8.59621 3.39684 8.67866 3.19265 8.89936 2.61882L9.78333 0.320511C9.85759 0.127415 10.0431 5.96047e-08 10.25 0ZM10.25 1.89284L9.83271 2.9778C9.82499 2.99786 9.81739 3.01765 9.80988 3.03718C9.62044 3.53011 9.49335 3.86079 9.2918 4.14423C9.11366 4.39476 8.89476 4.61366 8.64423 4.7918C8.36079 4.99334 8.03011 5.12043 7.5372 5.30987C7.51766 5.31738 7.49786 5.32499 7.4778 5.33271L6.39284 5.75L7.4778 6.16729C7.49786 6.17501 7.51766 6.18262 7.5372 6.19013C8.03011 6.37957 8.36079 6.50666 8.64423 6.7082C8.89476 6.88634 9.11366 7.10524 9.2918 7.35577C9.49335 7.63922 9.62044 7.9699 9.80988 8.46282C9.81739 8.48235 9.82499 8.50214 9.83271 8.5222L10.25 9.60716L10.6673 8.5222C10.675 8.50214 10.6826 8.48234 10.6901 8.4628C10.8796 7.96989 11.0067 7.63921 11.2082 7.35577C11.3863 7.10524 11.6052 6.88634 11.8558 6.7082C12.1392 6.50666 12.4699 6.37957 12.9628 6.19013C12.9823 6.18262 13.0021 6.17501 13.0222 6.16729L14.1072 5.75L13.0222 5.33271C13.0021 5.32499 12.9823 5.31739 12.9628 5.30988C12.4699 5.12043 12.1392 4.99335 11.8558 4.7918C11.6052 4.61366 11.3863 4.39476 11.2082 4.14423C11.0067 3.86079 10.8796 3.53011 10.6901 3.03719C10.6826 3.01765 10.675 2.99786 10.6673 2.9778L10.25 1.89284ZM3.875 8.25C4.06439 8.25 4.23752 8.357 4.32221 8.52639L4.91056 9.70308C5.11817 10.1183 5.1944 10.266 5.29103 10.3913C5.38282 10.5104 5.48958 10.6172 5.60867 10.709C5.73403 10.8056 5.88169 10.8818 6.29692 11.0894L7.47361 11.6778C7.643 11.7625 7.75 11.9356 7.75 12.125C7.75 12.3144 7.643 12.4875 7.47361 12.5722L6.29692 13.1606C5.88169 13.3682 5.73403 13.4444 5.60867 13.541C5.48958 13.6328 5.38282 13.7396 5.29103 13.8587C5.1944 13.984 5.11817 14.1317 4.91056 14.5469L4.32221 15.7236C4.23752 15.893 4.06439 16 3.875 16C3.68561 16 3.51248 15.893 3.42779 15.7236L2.83944 14.5469C2.63183 14.1317 2.5556 13.984 2.45897 13.8587C2.36718 13.7396 2.26042 13.6328 2.14133 13.541C2.01597 13.4444 1.86831 13.3682 1.45308 13.1606L0.276393 12.5722C0.107001 12.4875 0 12.3144 0 12.125C0 11.9356 0.107001 11.7625 0.276393 11.6778L1.45308 11.0894C1.86831 10.8818 2.01597 10.8056 2.14133 10.709C2.26042 10.6172 2.36718 10.5104 2.45897 10.3913C2.5556 10.266 2.63183 10.1183 2.83944 9.70308L3.42779 8.52639C3.51248 8.357 3.68561 8.25 3.875 8.25ZM3.875 9.86803L3.73387 10.1503C3.72668 10.1647 3.71959 10.1789 3.71258 10.1929C3.53391 10.5504 3.41397 10.7904 3.25098 11.0018C3.10674 11.189 2.93897 11.3567 2.75184 11.501C2.54039 11.664 2.30039 11.7839 1.94288 11.9626C1.92886 11.9696 1.91467 11.9767 1.90029 11.9839L1.61803 12.125L1.90029 12.2661C1.91467 12.2733 1.92886 12.2804 1.94288 12.2874C2.30039 12.4661 2.54039 12.586 2.75184 12.749C2.93897 12.8933 3.10673 13.061 3.25098 13.2482C3.41397 13.4596 3.53391 13.6996 3.71258 14.0571C3.71958 14.0711 3.72668 14.0853 3.73387 14.0997L3.875 14.382L4.01613 14.0997C4.02332 14.0853 4.03042 14.0711 4.03742 14.0571C4.21609 13.6996 4.33603 13.4596 4.49902 13.2482C4.64327 13.061 4.81103 12.8933 4.99816 12.749C5.20961 12.586 5.44961 12.4661 5.80713 12.2874C5.82114 12.2804 5.83533 12.2733 5.84971 12.2661L6.13197 12.125L5.84971 11.9839C5.83533 11.9767 5.82114 11.9696 5.80713 11.9626C5.44962 11.7839 5.20961 11.664 4.99816 11.501C4.81103 11.3567 4.64326 11.189 4.49902 11.0018C4.33603 10.7904 4.21609 10.5504 4.03742 10.1929C4.03041 10.1789 4.02332 10.1647 4.01613 10.1503L3.875 9.86803Z" fill="#B0B1C4"/>
</g>
<defs>
<clipPath id="clip0_1048_37314">
<rect width="16" height="16" fill="white"/>
</clipPath>
</defs>
</svg>
