<svg viewBox="0 0 16 16" fill="none" xmlns="http://www.w3.org/2000/svg">
<path fill-rule="evenodd" clip-rule="evenodd" d="M11.6285 10.6654L7.79077 12.8997C7.55769 13.0117 7.44231 13.0117 7.20923 12.8997L3.37154 10.6654L1.62808 11.6711L7.44231 15.0231L13.3731 11.6711L11.6285 10.6654ZM1.79308 5.191L5.00077 3.29155C5.00077 3.29155 5.69769 2.39782 4.41808 2.28582L0.233077 4.74299C1.49012e-08 4.85614 0 5.08014 0 5.19214C0 5.415 0.115385 5.52701 0.233077 5.63786L2.20962 6.75559L0.233077 7.87332C1.49012e-08 7.98418 0 8.20704 0 8.31904C0 8.54305 0.115385 8.6539 0.233077 8.76591L2.20962 9.88363L0.233077 11.0002C1.49012e-08 11.1122 0 11.3351 0 11.4471C0 11.6711 0.115385 11.7831 0.233077 11.8939L7.20923 15.9169C7.44231 16.0277 7.55769 16.0277 7.79077 15.9169L14.7669 11.8939C14.8835 11.7831 15 11.5591 15 11.4482C15 11.2242 14.8846 11.1122 14.7669 11.0002L12.7904 9.88363L14.7669 8.76591C15.1165 8.43104 14.7669 7.47446 13.9535 7.87218C12.6519 8.50762 10.4654 9.54763 10.4654 9.54763C10.4654 9.54763 5.45423 7.15103 1.79308 5.191Z" fill="#B0B1C4"/>
<path fill-rule="evenodd" clip-rule="evenodd" d="M14.8938 5.01728L14.2708 4.51671C14.3299 4.17519 14.3299 3.82621 14.2708 3.48469L14.8938 2.98411C14.9402 2.94769 14.9737 2.89762 14.9894 2.84113C15.0052 2.78464 15.0024 2.72466 14.9815 2.66982L14.9735 2.64697C14.7995 2.19367 14.542 1.77631 14.2142 1.41609L14.1969 1.39667C14.1554 1.35207 14.1016 1.32035 14.0422 1.30534C13.9829 1.29033 13.9204 1.29268 13.8623 1.31209L13.0892 1.57038C12.8024 1.34992 12.4818 1.17629 12.1396 1.05609L11.9896 0.297222C11.977 0.23877 11.9467 0.185501 11.9028 0.144476C11.8589 0.10345 11.8035 0.0766072 11.7438 0.0675048L11.7185 0.0629332C11.2174 -0.0209778 10.7057 -0.0209778 10.2046 0.0629332L10.1792 0.0675048C10.1197 0.0765309 10.0644 0.103206 10.0205 0.144012C9.97666 0.184818 9.9463 0.237838 9.93346 0.296079L9.78346 1.05952C9.44339 1.17946 9.12479 1.3523 8.83962 1.57152L8.05962 1.31209C8.00157 1.29253 7.93903 1.29011 7.87962 1.30513C7.82021 1.32014 7.76649 1.35195 7.725 1.39667L7.70885 1.41609C7.38138 1.77656 7.12398 2.19386 6.94962 2.64697L6.94154 2.66982C6.92065 2.72466 6.91789 2.78464 6.93365 2.84113C6.94941 2.89762 6.98288 2.94769 7.02923 2.98411L7.66154 3.49041C7.60239 3.8277 7.60239 4.17256 7.66154 4.50985L7.02923 5.015C6.98288 5.05143 6.94941 5.10149 6.93365 5.15798C6.91789 5.21447 6.92065 5.27446 6.94154 5.32929L6.94962 5.35215C7.12269 5.80244 7.37654 6.21844 7.70885 6.58416L7.72615 6.60245C7.80692 6.69388 7.94077 6.72702 8.06077 6.68702L8.83962 6.42759C9.12346 6.64702 9.44077 6.81959 9.78231 6.94074L9.93231 7.70303C9.95538 7.81961 10.0535 7.91104 10.1792 7.93161L10.2046 7.93618C10.7056 8.02059 11.2174 8.02059 11.7185 7.93618L11.7438 7.93275C11.8035 7.92365 11.8589 7.89681 11.9028 7.85578C11.9467 7.81476 11.977 7.76149 11.9896 7.70303L12.1396 6.94417C12.4846 6.82188 12.8031 6.65045 13.0892 6.42987L13.8623 6.68702C13.9204 6.70658 13.9829 6.709 14.0423 6.69398C14.1017 6.67897 14.1554 6.64717 14.1969 6.60245L14.2142 6.58416C14.5454 6.2173 14.8015 5.80244 14.9735 5.35215L14.9815 5.32929C15.0022 5.2748 15.0049 5.21519 14.9891 5.1591C14.9734 5.10301 14.94 5.05334 14.8938 5.01728ZM13.5923 3.58869C13.6405 3.86129 13.6405 4.1401 13.5923 4.4127L13.53 4.77042L14.2408 5.34186C14.1325 5.576 13.9965 5.79659 13.8358 5.99901L12.9519 5.70529L12.6519 5.93501C12.4241 6.11043 12.1693 6.24856 11.8973 6.34416L11.535 6.47216L11.3642 7.33846C11.0954 7.36698 10.8242 7.36698 10.5554 7.33846L10.3846 6.46873L10.0246 6.33959C9.75433 6.24388 9.50116 6.10616 9.27462 5.93158L8.97577 5.69958L8.08731 5.99673C7.92674 5.79395 7.79045 5.57343 7.68115 5.33957L8.4 4.76357L8.33769 4.40585C8.2919 4.13727 8.2919 3.86299 8.33769 3.59441L8.4 3.23669L7.68115 2.66068C7.78846 2.42754 7.92462 2.2081 8.08615 2.00353L8.97577 2.30068L9.27577 2.06867C9.50077 1.89496 9.75346 1.75667 10.0246 1.66067L10.3858 1.53267L10.5554 0.664084C10.8246 0.635471 11.0962 0.635471 11.3654 0.664084L11.5362 1.53152L11.8985 1.65838C12.1719 1.75553 12.4258 1.89267 12.6531 2.06753L12.9531 2.29839L13.8358 2.00467C13.9973 2.20925 14.1335 2.42982 14.2419 2.66182L13.5312 3.23212L13.5923 3.58869Z" fill="#B0B1C4"/>
<path fill-rule="evenodd" clip-rule="evenodd" d="M10.9996 2.34639C10.5869 2.34639 10.1912 2.50876 9.89938 2.79779C9.60759 3.08681 9.44365 3.47881 9.44365 3.88756C9.44365 4.2963 9.60759 4.6883 9.89938 4.97732C10.1912 5.26635 10.5869 5.42872 10.9996 5.42872C11.4123 5.42872 11.808 5.26635 12.0998 4.97732C12.3916 4.6883 12.5556 4.2963 12.5556 3.88756C12.5556 3.47881 12.3916 3.08681 12.0998 2.79779C11.808 2.50876 11.4123 2.34639 10.9996 2.34639ZM11.7 4.58185C11.6083 4.67325 11.4993 4.74578 11.3792 4.79528C11.2591 4.84478 11.1303 4.87026 11.0002 4.87026C10.8701 4.87026 10.7413 4.84478 10.6212 4.79528C10.5011 4.74578 10.3921 4.67325 10.3004 4.58185C10.2081 4.49103 10.1349 4.38304 10.0849 4.26408C10.0349 4.14512 10.0092 4.01754 10.0092 3.8887C10.0092 3.75985 10.0349 3.63228 10.0849 3.51332C10.1349 3.39436 10.2081 3.28636 10.3004 3.19555C10.3919 3.10414 10.5009 3.03162 10.6209 2.98218C10.7409 2.93275 10.8696 2.90738 10.9996 2.90754C11.1963 2.90573 11.389 2.96218 11.553 3.06964C11.717 3.1771 11.8449 3.33067 11.9202 3.51062C11.9955 3.69058 12.0147 3.88871 11.9755 4.07959C11.9362 4.27046 11.8403 4.44537 11.7 4.58185Z" fill="#B0B1C4"/>
</svg>
