<svg viewBox="0 0 32 32" fill="none" xmlns="http://www.w3.org/2000/svg">
<rect x="4" y="4" width="8" height="8" rx="4" stroke="#0278D5" stroke-width="1.5"/>
<rect x="4" y="12" width="8" height="8" rx="4" stroke="#0278D5" stroke-width="1.5"/>
<rect x="4" y="20" width="8" height="8" rx="4" stroke="#0278D5" stroke-width="1.5"/>
<rect x="12" y="4" width="8" height="8" rx="4" stroke="#0278D5" stroke-width="1.5"/>
<rect x="12" y="12" width="8" height="8" rx="4" fill="#0278D5" stroke="#0278D5" stroke-width="1.5"/>
<rect x="12" y="20" width="8" height="8" rx="4" stroke="#0278D5" stroke-width="1.5"/>
<rect x="20" y="4" width="8" height="8" rx="4" stroke="#0278D5" stroke-width="1.5"/>
<path d="M23 8H25" stroke="#0278D5" stroke-width="1.5" stroke-linecap="round" stroke-linejoin="round"/>
<path d="M24 9V7" stroke="#0278D5" stroke-width="1.5" stroke-linecap="round" stroke-linejoin="round"/>
<rect x="20" y="12" width="8" height="8" rx="4" stroke="#0278D5" stroke-width="1.5"/>
<rect x="20" y="20" width="8" height="8" rx="4" stroke="#0278D5" stroke-width="1.5"/>
<path d="M14 16H18" stroke="white" stroke-width="1.5" stroke-linecap="round" stroke-linejoin="round"/>
<path d="M7 24H9" stroke="#0278D5" stroke-width="1.5" stroke-linecap="round" stroke-linejoin="round"/>
<path d="M8 25V23" stroke="#0278D5" stroke-width="1.5" stroke-linecap="round" stroke-linejoin="round"/>
</svg>
