<svg viewBox="0 0 16 16" xmlns="http://www.w3.org/2000/svg"><g fill="#383946"><path d="m14.372 13.241h-12.745c-.88276 0-1.6276-.7173-1.6276-1.6276v-11.062c0-.30345.24828-.55172.55172-.55172h4.1379c.1931 0 .3862.11034.46896.27586l1.6552 2.7586h7.5586c.8828 0 1.6276.71724 1.6276 1.6276v6.9517c0 .9103-.7172 1.6276-1.6276 1.6276zm-13.269-12.138v10.51c0 .2759.22069.5241.52414.5241h12.745c.2759 0 .5242-.2207.5242-.5241v-6.9517c0-.27586-.2207-.52414-.5242-.52414h-7.8621c-.1931 0-.3862-.11034-.46896-.27586l-1.6552-2.7586h-3.2828z"/><path d="m9.9308 10.484c-.13793 0-.27586-.0552-.38621-.1655l-1.5448-1.5448-1.5448 1.5448c-.22069.2207-.55173.2207-.77241 0-.22069-.2207-.22069-.55174 0-.77243l1.931-1.931c.22069-.22069.57931-.22069.77241 0l1.9311 1.931c.2207.22069.2207.55173 0 .77243-.1104.1103-.2483.1655-.38624.1655z"/><path d="m8.0001 15.448c-.30345 0-.55173-.2483-.55173-.5517v-6.8138c0-.30344.24828-.55172.55173-.55172s.55172.24828.55172.55172v6.8138c0 .3034-.24827.5517-.55172.5517z"/></g></svg>