<?xml version="1.0" encoding="UTF-8"?>
<svg viewBox="0 0 16 16" xmlns="http://www.w3.org/2000/svg">
<path d="m14.372 13.241h-12.745c-0.88276 0-1.6276-0.7173-1.6276-1.6276v-11.062c0-0.30345 0.24828-0.55172 0.55172-0.55172h4.1379c0.1931 0 0.3862 0.11034 0.46896 0.27586l1.6552 2.7586h7.5586c0.8828 0 1.6276 0.71724 1.6276 1.6276v6.9517c0 0.9103-0.7172 1.6276-1.6276 1.6276zm-13.269-12.138v10.51c0 0.2759 0.22069 0.5241 0.52414 0.5241h12.745c0.2759 0 0.5242-0.2207 0.5242-0.5241v-6.9517c0-0.27586-0.2207-0.52414-0.5242-0.52414h-7.8621c-0.1931 0-0.3862-0.11034-0.46896-0.27586l-1.6552-2.7586h-3.2828z" fill="#383946"/>
<path d="m9.9308 10.484c-0.13793 0-0.27586-0.0552-0.38621-0.1655l-1.5448-1.5448-1.5448 1.5448c-0.22069 0.2207-0.55173 0.2207-0.77241 0-0.22069-0.2207-0.22069-0.55174 0-0.77243l1.931-1.931c0.22069-0.22069 0.57931-0.22069 0.77241 0l1.9311 1.931c0.2207 0.22069 0.2207 0.55173 0 0.77243-0.1104 0.1103-0.2483 0.1655-0.38624 0.1655z" fill="#383946"/>
<path d="m8.0001 15.448c-0.30345 0-0.55173-0.2483-0.55173-0.5517v-6.8138c0-0.30344 0.24828-0.55172 0.55173-0.55172s0.55172 0.24828 0.55172 0.55172v6.8138c0 0.3034-0.24827 0.5517-0.55172 0.5517z" fill="#383946"/>
</svg>
