<svg xmlns="http://www.w3.org/2000/svg" width="24" height="24" viewBox="0 0 40 40">
    <g>
        <path style=" stroke:none;fill-rule:nonzero;fill:rgb(0%,0%,0%);fill-opacity:1;" d="M 6.238281 21.359375 C 6.238281 21.359375 6.183594 21.207031 6.339844 21.085938 C 6.535156 20.945312 6.785156 20.804688 6.929688 20.964844 L 6.953125 20.988281 C 7.0625 21.109375 7.191406 21.152344 7.324219 21.152344 C 7.605469 21.152344 7.902344 20.957031 8.035156 20.871094 C 8.351562 20.652344 8.566406 20.464844 8.613281 19.898438 L 8.613281 19.875 C 8.613281 19.863281 8.613281 19.703125 8.753906 19.671875 C 8.808594 19.660156 8.863281 19.691406 8.90625 19.726562 C 9.015625 19.824219 9.148438 20.0625 9.125 20.414062 C 9.082031 20.925781 8.828125 21.386719 8.382812 21.777344 C 8.347656 21.8125 8.316406 21.832031 8.285156 21.863281 C 8.011719 22.082031 7.75 22.28125 7.507812 22.441406 C 7.171875 22.628906 6.863281 22.34375 6.710938 22.160156 C 6.648438 22.074219 6.589844 21.996094 6.503906 21.863281 L 6.484375 21.820312 C 6.394531 21.664062 6.308594 21.511719 6.238281 21.359375 Z M 5.148438 24.667969 C 5.183594 24.691406 5.214844 24.710938 5.246094 24.734375 C 5.289062 24.765625 5.332031 24.789062 5.386719 24.808594 C 5.507812 24.863281 5.628906 24.84375 5.835938 24.789062 C 5.890625 24.777344 5.945312 24.765625 6 24.753906 C 5.738281 24.515625 5.542969 24.230469 5.398438 23.914062 C 5.386719 24.167969 5.324219 24.429688 5.148438 24.667969 Z M 8.25 5.328125 C 8.25 5.316406 8.238281 5.316406 8.25 5.328125 C 8.117188 5.164062 8.011719 5 7.921875 4.839844 C 7.953125 5.132812 8.007812 5.429688 8.0625 5.691406 C 8.085938 5.789062 8.097656 5.875 8.117188 5.964844 C 8.214844 5.851562 8.316406 5.757812 8.402344 5.660156 C 8.347656 5.4375 8.25 5.328125 8.25 5.328125 Z M 3.523438 22.210938 C 3.535156 22.191406 3.535156 22.15625 3.535156 22.113281 L 3.535156 22.078125 C 3.523438 21.960938 3.535156 21.839844 3.546875 21.699219 C 3.558594 21.523438 3.589844 21.359375 3.632812 21.183594 C 3.632812 21.171875 3.632812 21.164062 3.644531 21.152344 C 3.65625 21.117188 3.664062 21.042969 3.65625 21.019531 C 3.523438 20.921875 3.371094 20.835938 3.261719 20.78125 C 3.285156 21.03125 3.273438 21.304688 3.261719 21.457031 L 3.261719 21.535156 C 3.25 21.695312 3.238281 21.882812 3.492188 22.15625 C 3.488281 22.179688 3.511719 22.191406 3.523438 22.210938 Z M 27.816406 10.886719 C 27.949219 10.886719 28.078125 10.875 28.210938 10.851562 C 28.417969 10.789062 28.5625 10.753906 28.582031 10.742188 C 29.730469 10.40625 30.679688 9.671875 31.117188 8.789062 C 31.421875 7.992188 31.390625 7.378906 31.355469 6.941406 C 31.34375 6.84375 31.34375 6.746094 31.34375 6.648438 C 31.332031 5.882812 32.285156 4.550781 32.480469 4.277344 C 33.167969 3.144531 33.398438 2.171875 33.167969 1.472656 C 32.960938 0.851562 32.449219 0.640625 32.4375 0.628906 L 32.425781 0.628906 C 32.226562 0.542969 32.03125 0.464844 31.824219 0.410156 C 31.5 0.328125 31.148438 0.285156 30.789062 0.285156 C 29.359375 0.285156 27.796875 1.015625 26.628906 2.25 C 26.628906 2.261719 26.617188 2.269531 26.605469 2.28125 C 26.179688 2.839844 25.503906 3.976562 25.796875 5.316406 C 26.003906 6.234375 26.507812 6.953125 27.339844 7.535156 C 27.449219 7.609375 27.5 7.730469 27.480469 7.863281 C 27.457031 7.992188 27.382812 8.089844 27.261719 8.136719 C 27.25 8.136719 26.214844 8.527344 25.996094 9.195312 C 25.910156 9.457031 25.960938 9.742188 26.171875 10.058594 C 26.203125 10.066406 26.804688 10.886719 27.816406 10.886719 Z M 5.050781 18.804688 C 5.203125 18.804688 5.410156 18.71875 5.75 18.511719 C 6.21875 18.226562 6.6875 18.039062 7.15625 17.964844 L 7.179688 17.964844 C 7.332031 17.929688 7.441406 17.800781 7.441406 17.636719 L 7.441406 17.601562 C 7.429688 17.480469 7.351562 17.371094 7.234375 17.328125 C 7.222656 17.328125 7.210938 17.316406 7.199219 17.316406 C 7.078125 17.273438 6.949219 17.25 6.808594 17.25 L 6.796875 17.25 C 6.613281 17.25 6.503906 17.285156 6.382812 17.328125 C 6.285156 17.363281 6.199219 17.382812 6.089844 17.382812 L 6.023438 17.382812 C 5.921875 17.371094 5.824219 17.339844 5.761719 17.308594 C 5.683594 17.273438 5.617188 17.25 5.542969 17.25 C 5.507812 17.25 5.488281 17.25 5.453125 17.261719 C 5.25 17.308594 5.027344 17.492188 4.953125 17.566406 C 4.953125 17.566406 4.941406 17.578125 4.933594 17.578125 L 4.921875 17.578125 C 4.789062 17.691406 4.648438 17.808594 4.503906 17.917969 L 4.441406 17.984375 C 4.441406 17.984375 4.429688 17.996094 4.429688 18.003906 L 4.40625 18.039062 C 4.386719 18.082031 4.375 18.136719 4.375 18.179688 C 4.375 18.265625 4.40625 18.355469 4.472656 18.421875 C 4.484375 18.433594 4.492188 18.441406 4.503906 18.453125 C 4.515625 18.464844 4.527344 18.476562 4.539062 18.488281 C 4.777344 18.707031 4.886719 18.804688 5.050781 18.804688 Z M 21.125 38.625 C 21.136719 38.625 21.148438 38.613281 21.160156 38.613281 C 22.796875 37.957031 24.402344 37.125 25.929688 36.132812 L 25.996094 36.089844 C 26.082031 36.023438 26.148438 35.925781 26.148438 35.816406 L 26.148438 35.785156 C 26.148438 35.761719 26.148438 35.75 26.136719 35.726562 C 26.136719 35.714844 26.125 35.707031 26.125 35.695312 L 26.113281 35.671875 C 25.761719 34.703125 25.273438 32.582031 25.894531 29.382812 C 26.058594 28.566406 26.148438 27.777344 26.15625 27.046875 L 26.15625 26.96875 C 26.136719 26.796875 25.996094 26.667969 25.832031 26.667969 C 25.722656 26.667969 25.625 26.722656 25.570312 26.796875 L 25.558594 26.820312 L 25.558594 26.832031 L 25.535156 26.851562 C 25.363281 27.183594 25.144531 27.519531 24.890625 27.878906 C 22.28125 31.625 20.316406 34.769531 20.6875 38.351562 C 20.707031 38.527344 20.851562 38.648438 21.015625 38.648438 C 21.046875 38.648438 21.089844 38.636719 21.125 38.625 Z M 16.253906 39.976562 L 16.308594 39.964844 C 16.921875 39.878906 18.167969 39.648438 19.761719 39.125 L 19.78125 39.113281 L 19.792969 39.113281 C 19.804688 39.113281 19.816406 39.101562 19.828125 39.101562 C 19.945312 39.046875 20.023438 38.925781 20.023438 38.796875 L 20.023438 38.773438 L 20.011719 38.730469 C 19.476562 34.800781 21.550781 31.457031 24.304688 27.507812 C 26.0625 24.984375 25.589844 23.761719 25.078125 23.0625 C 24.578125 22.460938 23.933594 22.167969 23.144531 22.167969 C 22.785156 22.167969 22.390625 22.230469 21.976562 22.363281 C 21.617188 22.484375 21.246094 22.59375 20.863281 22.691406 C 20.480469 22.777344 20.078125 22.855469 19.660156 22.921875 C 19.386719 22.964844 19.113281 23 18.851562 23.03125 C 17.5 23.207031 16.210938 23.371094 14.703125 24.15625 L 14.683594 24.179688 L 14.660156 24.179688 C 14.539062 24.234375 14.429688 24.296875 14.308594 24.351562 L 14.300781 24.351562 C 14.289062 24.363281 14.265625 24.363281 14.257812 24.375 L 14.246094 24.375 C 14.210938 24.398438 14.191406 24.417969 14.167969 24.453125 C 14.167969 24.453125 14.15625 24.464844 14.15625 24.472656 L 14.15625 24.484375 L 14.136719 24.507812 C 14.113281 24.550781 14.101562 24.605469 14.101562 24.648438 C 14.101562 24.746094 14.144531 24.84375 14.222656 24.910156 L 14.300781 24.910156 L 14.300781 24.964844 C 15.316406 25.597656 16.046875 27.160156 16.15625 28.941406 C 16.296875 31.222656 16.089844 33.328125 15.90625 35.175781 L 15.90625 35.195312 C 15.707031 37.117188 15.554688 38.625 15.851562 39.707031 L 15.851562 39.730469 C 15.851562 39.75 15.863281 39.785156 15.871094 39.808594 C 15.925781 39.921875 16.046875 40 16.179688 40 C 16.234375 39.976562 16.242188 39.976562 16.253906 39.976562 Z M 7.039062 7.042969 C 7.050781 7.03125 7.050781 7.03125 7.058594 7.023438 L 7.058594 7.011719 C 7.214844 6.824219 7.355469 6.648438 7.496094 6.496094 C 7.507812 6.484375 7.507812 6.484375 7.519531 6.476562 C 7.5625 6.421875 7.59375 6.34375 7.59375 6.269531 L 7.59375 6.203125 C 7.574219 6.070312 7.550781 5.929688 7.519531 5.808594 C 7.375 5.101562 7.214844 4.226562 7.519531 3.507812 C 7.519531 3.125 7.582031 2.730469 7.628906 2.382812 L 7.628906 2.359375 C 7.660156 2.152344 7.691406 1.941406 7.714844 1.738281 C 7.78125 1.082031 7.660156 0.535156 7.386719 0.238281 C 7.234375 0.078125 7.046875 0 6.820312 0 L 6.785156 0 C 6.679688 0 6.523438 0 6.363281 0.152344 C 6.25 0.285156 6.164062 0.535156 6.097656 0.851562 C 6.011719 1.308594 6.011719 1.824219 6.035156 2.117188 C 6.144531 3.222656 6.121094 3.363281 6.035156 3.601562 C 5.988281 3.714844 5.933594 3.863281 5.914062 4.488281 C 5.890625 4.957031 6.089844 5.613281 6.285156 6.234375 L 6.285156 6.246094 C 6.351562 6.453125 6.414062 6.671875 6.46875 6.890625 C 6.46875 6.902344 6.480469 6.921875 6.480469 6.933594 L 6.480469 6.945312 C 6.535156 7.078125 6.65625 7.164062 6.796875 7.164062 C 6.886719 7.152344 6.972656 7.109375 7.039062 7.042969 Z M 7.441406 10.941406 C 7.441406 10.929688 7.453125 10.910156 7.453125 10.898438 L 7.453125 10.886719 C 7.507812 10.492188 7.550781 9.96875 7.582031 9.183594 C 7.59375 8.953125 7.625 8.703125 7.671875 8.453125 L 7.703125 8.308594 C 7.703125 8.289062 7.714844 8.265625 7.714844 8.246094 L 7.714844 8.210938 C 7.691406 8.035156 7.550781 7.90625 7.386719 7.90625 C 7.289062 7.90625 7.191406 7.949219 7.136719 8.027344 C 7.136719 8.027344 7.125 8.039062 7.125 8.046875 L 7.125 8.058594 C 7.003906 8.210938 6.929688 8.308594 6.90625 8.332031 L 6.898438 8.34375 C 6.785156 8.464844 6.6875 8.617188 6.601562 8.789062 C 6.394531 9.191406 6.296875 9.597656 6.285156 9.632812 L 6.285156 9.644531 C 6.238281 9.816406 6.195312 10.003906 6.152344 10.199219 C 6.152344 10.320312 6.1875 10.429688 6.25 10.539062 C 6.371094 10.757812 6.601562 10.953125 6.949219 11.148438 L 6.960938 11.160156 C 6.972656 11.171875 6.984375 11.171875 6.996094 11.183594 C 7.039062 11.203125 7.082031 11.214844 7.136719 11.214844 C 7.265625 11.191406 7.410156 11.09375 7.441406 10.941406 Z M 9.046875 4.871094 L 9.066406 4.847656 C 9.375 4.585938 9.714844 4.355469 10.09375 4.148438 L 10.105469 4.148438 C 10.214844 4.09375 10.269531 3.976562 10.269531 3.855469 L 10.269531 3.820312 C 10.257812 3.757812 10.238281 3.691406 10.191406 3.636719 C 9.832031 3.210938 9.550781 2.632812 9.308594 2.117188 L 9.285156 2.074219 C 9.210938 1.921875 9.136719 1.769531 9.066406 1.625 L 9.035156 1.5625 C 8.980469 1.453125 8.863281 1.375 8.742188 1.375 C 8.632812 1.375 8.535156 1.433594 8.480469 1.507812 C 8.480469 1.507812 8.46875 1.519531 8.46875 1.53125 L 8.46875 1.542969 L 8.445312 1.5625 C 8.425781 1.605469 8.414062 1.636719 8.414062 1.683594 L 8.402344 1.792969 C 8.382812 2.019531 8.347656 2.238281 8.316406 2.445312 C 8.261719 2.828125 8.207031 3.1875 8.207031 3.539062 C 8.214844 4.007812 8.328125 4.390625 8.566406 4.75 L 8.566406 4.761719 C 8.566406 4.773438 8.578125 4.773438 8.589844 4.785156 C 8.652344 4.871094 8.75 4.914062 8.863281 4.914062 C 8.917969 4.945312 8.992188 4.914062 9.046875 4.871094 Z M 9.144531 17.484375 C 9.558594 16.359375 10.355469 15.246094 11 14.339844 C 11.261719 13.964844 11.527344 13.617188 11.699219 13.320312 C 13.097656 11.050781 13.863281 8.921875 13.875 8.898438 C 13.875 8.886719 13.886719 8.875 13.886719 8.863281 C 14.53125 7.421875 15.328125 6.417969 16.320312 5.785156 C 17.191406 5.226562 18.207031 4.933594 19.605469 4.835938 L 19.628906 4.835938 C 20.128906 4.800781 20.535156 4.671875 20.828125 4.433594 L 20.828125 4.421875 L 20.839844 4.421875 L 20.863281 4.402344 L 20.875 4.402344 C 20.898438 4.378906 20.929688 4.359375 20.941406 4.335938 C 20.984375 4.28125 21.015625 4.203125 21.015625 4.128906 L 21.015625 4.09375 C 21.003906 3.941406 20.875 3.8125 20.722656 3.800781 L 20.625 3.789062 C 20.21875 3.746094 19.78125 3.722656 19.3125 3.722656 C 18.351562 3.722656 17.273438 3.820312 16.203125 4.007812 C 15.863281 4.0625 15.5 4.09375 15.085938 4.09375 C 14.757812 4.09375 14.441406 4.074219 14.125 4.0625 C 13.820312 4.050781 13.503906 4.027344 13.195312 4.027344 C 13.066406 4.027344 12.957031 4.027344 12.847656 4.039062 C 12.519531 4.050781 12.191406 4.105469 11.851562 4.191406 L 11.765625 4.214844 L 11.753906 4.214844 C 10.511719 4.574219 9.429688 5.679688 8.773438 7.21875 C 8.773438 7.21875 8.773438 7.230469 8.761719 7.230469 C 8.480469 7.898438 8.316406 8.59375 8.285156 9.195312 C 8.207031 10.722656 8.121094 11.390625 7.878906 12.011719 L 7.878906 12.035156 L 7.855469 12.054688 C 7.75 12.328125 7.617188 12.589844 7.453125 12.929688 L 7.421875 13.007812 C 7.191406 13.453125 6.886719 13.976562 6.578125 14.492188 L 6.492188 14.632812 C 6.449219 14.699219 6.414062 14.761719 6.371094 14.828125 C 6.109375 15.277344 5.847656 15.734375 5.683594 16.085938 L 5.683594 16.105469 L 5.660156 16.128906 C 5.660156 16.140625 5.648438 16.148438 5.648438 16.148438 C 5.640625 16.183594 5.628906 16.226562 5.628906 16.261719 C 5.628906 16.402344 5.714844 16.523438 5.835938 16.566406 C 5.847656 16.566406 5.859375 16.578125 5.871094 16.578125 L 5.890625 16.589844 C 5.933594 16.609375 5.976562 16.621094 6.023438 16.644531 C 6.046875 16.65625 6.078125 16.664062 6.089844 16.664062 C 6.109375 16.664062 6.144531 16.652344 6.164062 16.644531 L 6.175781 16.644531 C 6.308594 16.601562 6.503906 16.546875 6.808594 16.546875 L 6.820312 16.546875 C 7.183594 16.546875 7.511719 16.644531 7.792969 16.816406 C 8.011719 16.960938 8.308594 17.234375 8.589844 17.5625 C 8.65625 17.636719 8.742188 17.683594 8.851562 17.683594 C 8.96875 17.703125 9.089844 17.613281 9.144531 17.484375 Z M 10.09375 20.988281 C 10.117188 20.988281 10.128906 20.976562 10.136719 20.976562 L 10.148438 20.976562 C 10.871094 20.800781 11.460938 20.59375 11.832031 19.722656 C 12.234375 18.785156 12.507812 17.648438 12.769531 16.542969 L 12.855469 16.191406 C 13.292969 14.390625 13.730469 12.816406 14.671875 11.738281 L 14.683594 11.726562 C 14.714844 11.683594 14.757812 11.640625 14.792969 11.605469 C 14.804688 11.59375 14.804688 11.59375 14.8125 11.585938 C 14.824219 11.574219 14.824219 11.574219 14.835938 11.5625 C 15.261719 11.160156 15.882812 10.941406 16.59375 10.941406 C 16.941406 10.941406 17.304688 10.996094 17.675781 11.09375 L 17.6875 11.09375 C 17.75 11.117188 17.816406 11.128906 17.882812 11.148438 C 18.222656 11.25 18.613281 11.367188 19.03125 11.367188 C 19.402344 11.367188 19.738281 11.28125 20.078125 11.085938 L 20.089844 11.085938 C 20.113281 11.074219 22.644531 9.6875 24 5.492188 L 24 5.480469 C 24.011719 5.460938 24.011719 5.425781 24.023438 5.40625 L 24.042969 5.351562 L 24.042969 5.339844 L 24.054688 5.316406 C 24.066406 5.285156 24.078125 5.261719 24.089844 5.230469 L 24.109375 5.175781 C 24.121094 5.144531 24.121094 5.121094 24.121094 5.089844 L 24.121094 5.058594 C 24.101562 4.882812 23.957031 4.761719 23.792969 4.761719 C 23.726562 4.761719 23.671875 4.785156 23.617188 4.816406 L 23.597656 4.828125 C 22.691406 5.429688 21.773438 5.484375 20.757812 5.496094 C 20.375 5.496094 20.035156 5.507812 19.71875 5.527344 L 19.699219 5.527344 C 17.523438 5.683594 15.808594 6.347656 14.554688 9.144531 C 14.496094 9.28125 13.722656 11.410156 12.324219 13.683594 C 12.136719 13.988281 11.875 14.351562 11.613281 14.71875 L 11.558594 14.742188 C 10.574219 16.105469 9.242188 17.984375 9.601562 19.414062 L 9.601562 19.4375 C 9.703125 19.785156 9.734375 20.125 9.714844 20.441406 L 9.714844 20.464844 C 9.714844 20.519531 9.703125 20.5625 9.691406 20.617188 L 9.691406 20.664062 C 9.691406 20.847656 9.84375 21 10.03125 21 C 10.050781 20.988281 10.074219 20.988281 10.09375 20.988281 Z M 25.109375 12.230469 L 25.132812 12.21875 L 25.15625 12.21875 C 25.460938 12.023438 25.800781 11.835938 26.183594 11.648438 C 26.191406 11.648438 26.203125 11.636719 26.226562 11.628906 C 26.335938 11.574219 26.386719 11.453125 26.386719 11.332031 L 26.386719 11.300781 C 26.375 11.214844 26.332031 11.125 26.257812 11.070312 C 25.875 10.796875 25.65625 10.503906 25.613281 10.4375 C 25.285156 9.9375 25.195312 9.445312 25.351562 8.976562 C 25.46875 8.613281 25.730469 8.277344 26.136719 7.980469 L 26.148438 7.980469 C 26.160156 7.980469 26.160156 7.96875 26.171875 7.96875 C 26.246094 7.90625 26.289062 7.816406 26.289062 7.71875 L 26.289062 7.6875 C 26.277344 7.601562 26.246094 7.535156 26.179688 7.46875 L 26.09375 7.394531 L 26.105469 7.382812 C 25.722656 6.964844 25.449219 6.519531 25.273438 6.027344 L 25.242188 5.898438 C 25.199219 5.753906 25.066406 5.65625 24.925781 5.65625 C 24.816406 5.65625 24.71875 5.710938 24.664062 5.789062 C 24.652344 5.800781 24.640625 5.820312 24.628906 5.84375 C 24.617188 5.855469 24.617188 5.875 24.609375 5.886719 C 24.609375 5.898438 24.609375 5.898438 24.597656 5.910156 L 24.597656 5.933594 C 24.3125 7.046875 24.421875 8.28125 24.519531 9.589844 L 24.519531 9.601562 C 24.585938 10.367188 24.652344 11.164062 24.628906 11.9375 L 24.628906 11.984375 C 24.628906 12.167969 24.785156 12.3125 24.96875 12.3125 C 25 12.273438 25.066406 12.25 25.109375 12.230469 Z M 8.457031 26.941406 C 9.671875 26.941406 10.292969 26.425781 11.230469 25.660156 L 11.273438 25.628906 C 11.40625 25.519531 11.535156 25.410156 11.679688 25.300781 L 11.691406 25.300781 C 11.746094 25.257812 11.789062 25.222656 11.84375 25.179688 L 11.855469 25.167969 L 11.867188 25.167969 C 12.433594 24.71875 13.253906 24.132812 14.441406 23.542969 C 15.175781 23.160156 15.894531 22.886719 16.714844 22.691406 C 17.425781 22.515625 18.089844 22.429688 18.8125 22.339844 L 18.855469 22.328125 C 19.105469 22.296875 19.367188 22.261719 19.628906 22.21875 C 20.40625 22.109375 21.148438 21.933594 21.824219 21.695312 C 24.554688 20.746094 26.292969 18.824219 26.707031 16.277344 C 27.03125 14.261719 27.558594 13.332031 28.351562 12.394531 C 28.417969 12.316406 28.496094 12.230469 28.59375 12.121094 C 28.648438 12.058594 28.679688 11.980469 28.679688 11.890625 L 28.679688 11.859375 C 28.660156 11.683594 28.515625 11.554688 28.351562 11.554688 C 28.308594 11.554688 28.273438 11.566406 28.230469 11.574219 L 28.078125 11.628906 L 28.078125 11.617188 C 26.996094 11.976562 24.792969 12.851562 24.277344 14.074219 C 24.265625 14.117188 24.246094 14.152344 24.234375 14.195312 C 24.003906 14.773438 23.6875 15.285156 23.261719 15.746094 C 21.910156 17.207031 20.578125 17.558594 19.277344 17.898438 C 18.035156 18.226562 16.863281 18.53125 15.707031 19.863281 L 15.695312 19.875 C 15.683594 19.886719 14.984375 20.617188 13.785156 22.714844 C 13.105469 23.902344 11.960938 24.832031 10.539062 25.324219 C 9.875 25.5625 9.164062 25.683594 8.488281 25.683594 C 7.886719 25.683594 7.308594 25.585938 6.839844 25.386719 L 6.808594 25.386719 L 6.785156 25.367188 C 6.65625 25.3125 6.523438 25.28125 6.394531 25.28125 C 6.25 25.28125 6.121094 25.3125 6 25.335938 C 5.878906 25.367188 5.738281 25.398438 5.597656 25.398438 L 5.488281 25.398438 C 5.386719 25.410156 5.300781 25.453125 5.246094 25.53125 C 5.246094 25.53125 5.234375 25.542969 5.234375 25.554688 L 5.234375 25.566406 L 5.214844 25.585938 C 5.191406 25.628906 5.179688 25.683594 5.179688 25.726562 C 5.179688 25.828125 5.222656 25.925781 5.300781 25.988281 L 5.3125 26 C 5.390625 26.066406 5.476562 26.121094 5.566406 26.175781 C 6.328125 26.667969 7.300781 26.90625 8.425781 26.917969 L 8.457031 26.917969 Z M 22.597656 4.191406 C 22.414062 4.105469 22.203125 4.019531 21.976562 3.953125 C 21.941406 3.941406 21.910156 3.933594 21.867188 3.921875 C 21.84375 3.996094 21.769531 4.160156 21.769531 4.160156 C 21.746094 4.214844 21.726562 4.28125 21.726562 4.34375 C 21.726562 4.597656 21.921875 4.792969 22.171875 4.792969 C 22.207031 4.792969 22.226562 4.792969 22.261719 4.78125 C 22.28125 4.78125 22.292969 4.769531 22.316406 4.769531 C 22.566406 4.703125 22.808594 4.605469 23.046875 4.476562 C 22.914062 4.378906 22.773438 4.28125 22.597656 4.191406 Z M 27.140625 35.304688 C 27.152344 35.292969 27.164062 35.285156 27.175781 35.285156 L 27.195312 35.273438 C 27.753906 34.867188 28.308594 34.429688 28.835938 33.984375 C 31.042969 32.117188 32.941406 29.953125 34.492188 27.550781 L 34.492188 27.539062 C 34.503906 27.527344 34.511719 27.507812 34.523438 27.496094 C 34.546875 27.453125 34.566406 27.398438 34.566406 27.34375 L 34.566406 27.3125 C 34.558594 27.203125 34.492188 27.105469 34.394531 27.050781 L 34.382812 27.050781 C 34.054688 26.886719 33.738281 26.667969 33.453125 26.382812 C 32.285156 25.238281 31.554688 23.226562 31.292969 20.421875 L 31.269531 20.238281 C 31.183594 19.253906 30.996094 17.210938 30.023438 15.683594 C 29.597656 15.0625 29.183594 14.40625 28.8125 13.726562 L 28.800781 13.707031 C 28.738281 13.609375 28.636719 13.554688 28.519531 13.554688 C 28.410156 13.554688 28.3125 13.609375 28.257812 13.683594 C 28.257812 13.695312 28.246094 13.695312 28.246094 13.707031 L 28.222656 13.738281 C 27.828125 14.429688 27.566406 15.246094 27.371094 16.394531 C 27.054688 18.335938 26.027344 19.976562 24.421875 21.132812 C 24.410156 21.132812 24.410156 21.144531 24.402344 21.144531 L 24.390625 21.15625 C 24.367188 21.179688 24.347656 21.191406 24.324219 21.222656 C 24.324219 21.222656 24.3125 21.234375 24.3125 21.242188 L 24.3125 21.253906 L 24.292969 21.277344 C 24.269531 21.320312 24.257812 21.375 24.257812 21.417969 C 24.257812 21.550781 24.335938 21.671875 24.464844 21.722656 L 24.53125 21.757812 C 24.957031 21.953125 25.339844 22.238281 25.65625 22.621094 C 26.835938 24.019531 27.171875 26.539062 26.582031 29.53125 C 26.15625 31.691406 26.289062 33.320312 26.472656 34.304688 C 26.527344 34.585938 26.59375 34.859375 26.671875 35.113281 C 26.671875 35.125 26.671875 35.125 26.683594 35.132812 C 26.726562 35.273438 26.855469 35.363281 27 35.363281 C 27.03125 35.347656 27.085938 35.335938 27.140625 35.304688 Z M 35.210938 26.363281 L 35.234375 26.316406 C 36.25 24.539062 36.816406 23.074219 37.070312 22.355469 C 37.070312 22.34375 37.082031 22.332031 37.082031 22.332031 C 37.09375 22.300781 37.09375 22.269531 37.09375 22.234375 L 37.09375 22.199219 C 37.082031 22.089844 37.015625 21.992188 36.917969 21.9375 C 35.3125 21.171875 33.785156 20.039062 32.375 18.585938 C 32.375 18.585938 32.339844 18.554688 32.332031 18.542969 C 32.277344 18.488281 32.191406 18.464844 32.113281 18.464844 C 32.003906 18.464844 31.90625 18.523438 31.851562 18.597656 C 31.851562 18.597656 31.839844 18.609375 31.839844 18.621094 L 31.839844 18.632812 L 31.816406 18.652344 C 31.796875 18.695312 31.785156 18.75 31.785156 18.796875 L 31.785156 18.839844 L 31.796875 18.875 C 31.875 19.386719 31.917969 19.84375 31.949219 20.171875 L 31.972656 20.359375 C 32.136719 22.160156 32.605469 24.574219 33.894531 25.863281 C 34.15625 26.125 34.441406 26.332031 34.722656 26.460938 L 34.820312 26.503906 C 34.863281 26.527344 34.910156 26.527344 34.953125 26.527344 C 35.046875 26.503906 35.148438 26.449219 35.210938 26.363281 Z M 4.941406 23.773438 L 4.941406 23.726562 C 4.921875 23.554688 4.800781 23.398438 4.625 23.347656 C 4.613281 23.347656 4.601562 23.347656 4.589844 23.335938 C 4.472656 23.300781 4.339844 23.257812 4.199219 23.191406 L 4.1875 23.191406 C 4.023438 23.117188 3.851562 23.019531 3.675781 22.910156 C 3.597656 22.867188 3.511719 22.800781 3.414062 22.726562 L 3.402344 22.714844 C 3.347656 22.679688 3.28125 22.648438 3.214844 22.648438 C 3.117188 22.648438 3.019531 22.703125 2.964844 22.78125 C 2.953125 22.792969 2.953125 22.800781 2.941406 22.8125 C 2.921875 22.855469 2.910156 22.910156 2.910156 22.964844 C 2.910156 23 2.910156 23.023438 2.921875 23.042969 C 2.921875 23.054688 2.921875 23.054688 2.933594 23.066406 C 2.945312 23.097656 2.953125 23.140625 2.964844 23.175781 C 3.128906 23.632812 3.394531 24.027344 3.710938 24.289062 C 3.960938 24.496094 4.222656 24.605469 4.441406 24.59375 C 4.464844 24.59375 4.484375 24.582031 4.507812 24.582031 C 4.605469 24.558594 4.691406 24.515625 4.757812 24.429688 C 4.921875 24.230469 4.953125 23.992188 4.941406 23.773438 Z M 8.480469 18.976562 L 8.480469 18.957031 C 8.46875 18.824219 8.382812 18.714844 8.25 18.671875 L 8.238281 18.671875 C 8.074219 18.628906 7.886719 18.609375 7.683594 18.609375 C 7.617188 18.609375 7.539062 18.609375 7.476562 18.621094 C 7.039062 18.652344 6.578125 18.816406 6.109375 19.101562 C 5.671875 19.375 5.324219 19.492188 5.027344 19.492188 C 4.636719 19.492188 4.375 19.261719 4.066406 18.96875 C 3.933594 18.839844 3.792969 18.773438 3.628906 18.773438 C 3.519531 18.773438 3.410156 18.808594 3.292969 18.859375 C 3.269531 18.871094 3.203125 18.925781 3.148438 18.96875 C 3.128906 18.992188 3.117188 19.011719 3.09375 19.035156 L 3.082031 19.046875 C 3.082031 19.046875 3.070312 19.058594 3.070312 19.066406 L 3.070312 19.078125 L 3.050781 19.101562 C 3.027344 19.144531 3.015625 19.199219 3.015625 19.242188 C 3.015625 19.417969 3.148438 19.558594 3.3125 19.570312 L 3.332031 19.570312 C 3.496094 19.582031 3.660156 19.660156 3.824219 19.777344 C 4.480469 20.269531 4.347656 20.683594 4.238281 21.101562 C 4.21875 21.164062 4.207031 21.230469 4.183594 21.308594 L 4.171875 21.339844 C 4.140625 21.480469 4.117188 21.613281 4.109375 21.742188 C 4.101562 21.863281 4.101562 21.972656 4.101562 22.070312 C 4.121094 22.464844 4.296875 22.582031 4.449219 22.671875 C 4.472656 22.683594 4.492188 22.691406 4.515625 22.703125 C 4.535156 22.714844 4.570312 22.726562 4.601562 22.726562 C 4.6875 22.726562 4.765625 22.671875 4.796875 22.59375 C 4.796875 22.582031 4.808594 22.570312 4.808594 22.558594 C 4.808594 22.546875 4.820312 22.539062 4.832031 22.527344 L 4.832031 22.515625 C 4.832031 22.503906 4.84375 22.503906 4.84375 22.496094 L 4.863281 22.472656 C 4.875 22.460938 4.886719 22.453125 4.898438 22.453125 C 4.910156 22.441406 4.921875 22.441406 4.933594 22.429688 C 4.941406 22.429688 4.941406 22.417969 4.953125 22.417969 C 4.964844 22.417969 4.964844 22.40625 4.976562 22.40625 L 4.988281 22.40625 C 5 22.40625 5 22.394531 5.007812 22.394531 L 5.183594 22.394531 C 5.195312 22.394531 5.203125 22.394531 5.214844 22.40625 L 5.226562 22.40625 L 5.25 22.417969 C 5.261719 22.417969 5.273438 22.429688 5.292969 22.441406 C 5.304688 22.441406 5.304688 22.453125 5.316406 22.453125 C 5.328125 22.464844 5.335938 22.464844 5.347656 22.472656 L 5.390625 22.515625 C 5.402344 22.527344 5.414062 22.539062 5.414062 22.550781 C 5.414062 22.5625 5.425781 22.5625 5.425781 22.570312 L 5.425781 22.582031 C 5.425781 22.59375 5.4375 22.59375 5.4375 22.605469 L 5.449219 22.617188 C 5.449219 22.628906 5.460938 22.628906 5.460938 22.636719 C 5.492188 22.738281 5.546875 22.800781 5.636719 22.855469 C 5.734375 22.910156 5.851562 22.941406 6.007812 22.941406 C 6.09375 22.941406 6.191406 22.933594 6.289062 22.910156 C 6.398438 22.875 6.453125 22.824219 6.453125 22.789062 C 6.464844 22.746094 6.433594 22.671875 6.375 22.605469 L 6.363281 22.59375 C 6.34375 22.570312 6.332031 22.550781 6.308594 22.515625 C 6.246094 22.417969 6.179688 22.339844 6.089844 22.210938 L 6.058594 22.15625 C 5.9375 21.980469 5.839844 21.808594 5.761719 21.621094 L 5.730469 21.546875 C 5.511719 21 5.523438 20.476562 5.761719 20.101562 C 5.949219 19.820312 6.242188 19.667969 6.605469 19.65625 L 6.617188 19.65625 C 7.054688 19.65625 7.214844 20.027344 7.292969 20.277344 C 7.328125 20.398438 7.433594 20.472656 7.566406 20.472656 C 7.621094 20.472656 7.664062 20.460938 7.699219 20.441406 C 7.710938 20.429688 7.71875 20.429688 7.730469 20.417969 C 7.742188 20.410156 7.753906 20.40625 7.765625 20.398438 C 8.003906 20.234375 8.070312 20.191406 8.09375 19.863281 C 8.09375 19.675781 8.171875 19.425781 8.367188 19.261719 C 8.378906 19.25 8.386719 19.25 8.398438 19.238281 C 8.476562 19.175781 8.519531 19.085938 8.519531 18.988281 C 8.480469 18.988281 8.480469 18.988281 8.480469 18.976562 Z M 23.820312 9.621094 C 23.808594 9.421875 23.789062 9.226562 23.777344 9.03125 L 23.777344 9.007812 C 23.757812 8.832031 23.613281 8.703125 23.449219 8.703125 C 23.339844 8.703125 23.242188 8.757812 23.1875 8.835938 C 23.1875 8.835938 23.175781 8.847656 23.175781 8.855469 L 23.175781 8.867188 L 23.15625 8.886719 C 22.074219 10.558594 20.9375 11.34375 20.558594 11.585938 C 20.457031 12.035156 20.078125 13.300781 18.667969 14.226562 C 18.636719 14.25 18.601562 14.273438 18.570312 14.292969 C 18.546875 14.304688 18.527344 14.316406 18.503906 14.335938 C 17.054688 15.222656 15.523438 15.046875 15.523438 15.046875 C 14.082031 14.839844 13.679688 15.765625 13.523438 16.347656 L 13.4375 16.695312 C 13.164062 17.832031 12.890625 19 12.453125 19.996094 C 11.910156 21.261719 10.949219 21.492188 10.105469 21.6875 C 9.613281 21.808594 9.15625 21.917969 8.785156 22.210938 C 8.75 22.246094 8.71875 22.277344 8.675781 22.296875 C 8.402344 22.515625 8.140625 22.714844 7.886719 22.875 L 7.8125 22.933594 C 7.320312 23.25 6.863281 23.453125 6.457031 23.542969 L 6.402344 23.554688 C 6.390625 23.554688 6.382812 23.554688 6.371094 23.566406 L 6.351562 23.566406 C 6.195312 23.601562 6.097656 23.742188 6.097656 23.894531 C 6.097656 23.960938 6.121094 24.027344 6.152344 24.078125 C 6.164062 24.089844 6.175781 24.101562 6.1875 24.125 C 6.1875 24.125 6.1875 24.136719 6.199219 24.136719 C 6.40625 24.398438 6.691406 24.605469 7.050781 24.757812 L 7.070312 24.769531 C 7.476562 24.933594 7.957031 25.019531 8.46875 25.019531 C 10.011719 25.019531 12.136719 24.203125 13.175781 22.386719 C 14.386719 20.28125 15.109375 19.496094 15.1875 19.417969 C 16.476562 17.933594 17.808594 17.582031 19.097656 17.246094 C 20.351562 16.917969 21.53125 16.613281 22.753906 15.289062 C 23.125 14.898438 23.398438 14.460938 23.585938 13.957031 C 23.597656 13.914062 23.617188 13.871094 23.628906 13.839844 C 24.0625 12.558594 23.941406 11.0625 23.820312 9.621094 Z M 5.78125 14.664062 C 5.78125 14.652344 5.78125 14.632812 5.769531 14.621094 L 5.769531 14.613281 C 5.695312 14.457031 5.605469 14.25 5.542969 13.988281 L 5.542969 13.964844 C 5.507812 13.878906 5.421875 13.804688 5.324219 13.804688 C 5.246094 13.804688 5.183594 13.835938 5.136719 13.890625 C 5.136719 13.902344 5.125 13.910156 5.125 13.910156 C 5.125 13.910156 5.125 13.921875 5.113281 13.921875 C 5.105469 13.933594 5.105469 13.953125 5.105469 13.964844 C 4.996094 14.296875 4.886719 14.589844 4.765625 14.851562 C 4.691406 15.015625 4.613281 15.15625 4.535156 15.296875 C 4.535156 15.296875 4.535156 15.308594 4.523438 15.308594 C 4.523438 15.308594 4.523438 15.308594 4.523438 15.320312 C 4.523438 15.332031 4.511719 15.34375 4.511719 15.363281 C 4.511719 15.386719 4.511719 15.398438 4.523438 15.421875 C 4.523438 15.421875 4.523438 15.433594 4.535156 15.433594 C 4.558594 15.453125 4.570312 15.476562 4.589844 15.507812 C 4.667969 15.636719 4.800781 15.769531 4.953125 15.769531 C 5.113281 15.769531 5.28125 15.625 5.355469 15.484375 C 5.355469 15.472656 5.367188 15.472656 5.367188 15.464844 C 5.488281 15.234375 5.628906 14.980469 5.773438 14.742188 C 5.773438 14.730469 5.785156 14.71875 5.785156 14.71875 C 5.796875 14.699219 5.796875 14.6875 5.796875 14.664062 C 5.78125 14.675781 5.78125 14.675781 5.78125 14.664062 Z M 4.375 16.085938 C 4.375 16.074219 4.363281 16.074219 4.363281 16.0625 C 4.363281 16.0625 4.363281 16.050781 4.351562 16.050781 C 4.316406 16.007812 4.261719 15.976562 4.207031 15.976562 C 4.152344 15.976562 4.097656 15.996094 4.066406 16.039062 C 4.066406 16.039062 4.066406 16.050781 4.054688 16.050781 C 4.054688 16.050781 4.054688 16.050781 4.054688 16.0625 C 4.054688 16.0625 4.054688 16.074219 4.042969 16.074219 C 3.769531 16.621094 3.714844 17.078125 3.691406 17.441406 L 3.691406 17.460938 C 3.691406 17.558594 3.769531 17.636719 3.867188 17.636719 C 3.902344 17.636719 3.933594 17.625 3.964844 17.601562 L 3.976562 17.589844 C 4.023438 17.558594 4.066406 17.527344 4.097656 17.492188 L 4.109375 17.480469 C 4.164062 17.4375 4.285156 17.339844 4.414062 17.199219 C 4.414062 17.199219 4.414062 17.199219 4.425781 17.1875 L 4.4375 17.175781 C 4.722656 16.914062 4.601562 16.511719 4.375 16.085938 Z M 4.375 16.085938"/>
    </g>
</svg>
