<svg xmlns="http://www.w3.org/2000/svg" viewBox="0 0 286 284" width="40" height="40">
<path fill="#fff" d="M222.245 40.74c34.142 28.186 51.136 64.15 50.69 108.045-.642 62.99-49.164 118.669-111.428 128.321C88.888 288.364 23.453 242.963 8.42 170.89c-14.558-69.8 32.896-141.757 102.833-155.856 40.732-8.211 77.623.416 110.992 25.707M93.082 140.774c-.193 1.149-.455 2.29-.565 3.447-.71 7.469 3.528 14.448 10.049 16.606 6.679 2.21 14.283-.125 17.772-5.458 5.19-7.935 3.005-19.667-4.347-23.857-7.364-4.197-19.263-2.524-22.91 9.262m50.457 20.365c4.725-1.333 8.223-3.914 8.202-9.27-.02-5.313-4.07-7.183-8.258-8.753-.466-.174-1.023-.209-1.404-.49-2.18-1.603-7.058-.807-5.892-5.03.317-1.15 5.668-2.04 8.109-1.233 4.526 1.497 5.243-.389 5.686-5.325-4.858-.393-9.536-1.313-14.12-.973-3.683.274-6.175 3.13-6.671 7.061-.516 4.09 1.069 7.147 4.882 8.902 1.356.624 2.8 1.064 4.12 1.75 2.543 1.318 7.616.854 6.377 5.194-1.166 4.087-5.577 2.169-8.753 1.945-.322-.022-.657-.148-.946-.3-4.496-2.355-5.369.275-5.86 5.025 4.747.57 9.256 1.112 14.528 1.497m36.369-7.153c.964-5.676-2.084-8.725-6.943-10.568-2.018-.766-4.206-1.227-6.032-2.31-1.209-.716-1.91-2.29-2.838-3.48 1.374-.687 2.758-1.959 4.121-1.937 2.755.043 5.498.789 8.651 1.312l2.05-5.24c-4.019-.882-7.363-1.937-10.78-2.288-4.868-.502-9.389 2.687-10.395 6.791-1.133 4.617.978 8.299 6.196 10.526 2.13.91 4.517 1.303 6.503 2.432 1.203.685 1.86 2.33 2.762 3.542-1.27.868-2.557 2.486-3.806 2.458-3.241-.075-6.466-.874-10.063-1.442l-2.253 4.397c10.723 5.427 18.119 4.2 22.827-4.193m33.247 5.957l-13.638-30.465-1.518.279-13.847 30.741c4.617 1.41 7.785.829 8.998-4.16.935-3.848 4.313-2.522 6.648-2.336 1.766.141 4.54 1.3 4.932 2.593 1.432 4.731 4.297 5.295 8.425 3.348M66.012 153.42v7.682l6.411-.289v-12.113h11.058v-5.852H72.53v-7.074H86.86v-5.499H66.012v23.145z" />
<path fill="#509c71" d="M93.158 140.39c3.57-11.402 15.47-13.075 22.833-8.878 7.352 4.19 9.538 15.922 4.347 23.857-3.489 5.333-11.093 7.668-17.772 5.458-6.521-2.158-10.76-9.137-10.05-16.606.11-1.156.373-2.298.642-3.832m12.933 15.143c6.848.222 10.367-2.817 10.868-9.385.415-5.442-3.224-10.284-8.113-10.796-4.413-.463-8.155 2.081-9.459 6.429-1.789 5.966.394 10.927 6.704 13.752z" />
<path fill="#509c71" d="M143.156 161.218c-4.89-.464-9.4-1.006-14.146-1.576.491-4.75 1.364-7.38 5.86-5.024.29.151.624.277.946.3 3.176.223 7.587 2.141 8.753-1.946 1.239-4.34-3.834-3.876-6.376-5.195-1.32-.685-2.765-1.125-4.12-1.749-3.814-1.755-5.4-4.811-4.883-8.902.496-3.932 2.988-6.787 6.67-7.06 4.585-.341 9.263.579 14.12.972-.442 4.936-1.159 6.822-5.685 5.325-2.44-.807-7.792.082-8.11 1.233-1.165 4.223 3.714 3.427 5.893 5.03.381.281.938.316 1.404.49 4.187 1.57 8.238 3.44 8.258 8.752.021 5.357-3.477 7.938-8.584 9.35zM179.828 154.377c-4.63 8.002-12.025 9.229-22.748 3.802l2.253-4.397c3.597.568 6.822 1.367 10.063 1.442 1.25.028 2.536-1.59 3.806-2.458-.902-1.213-1.56-2.857-2.762-3.542-1.986-1.13-4.373-1.522-6.503-2.432-5.218-2.227-7.329-5.91-6.196-10.526 1.006-4.104 5.527-7.293 10.396-6.791 3.416.351 6.76 1.406 10.778 2.287l-2.049 5.241c-3.153-.523-5.896-1.27-8.65-1.312-1.364-.022-2.748 1.25-4.122 1.937.928 1.19 1.63 2.764 2.838 3.48 1.826 1.083 4.014 1.544 6.032 2.31 4.859 1.843 7.907 4.892 6.864 10.959z" />
<path fill="#509c71" d="M213.106 160.303c-4.08 1.587-6.945 1.023-8.377-3.708-.392-1.292-3.166-2.452-4.932-2.593-2.335-.186-5.713-1.512-6.648 2.335-1.213 4.99-4.381 5.571-8.998 4.161l13.847-30.741 1.518-.279c4.546 10.155 9.092 20.31 13.59 30.825z" />
<path fill="#509c71" d="M66.012 152.932v-22.656h20.847v5.499H72.532v7.074H83.48v5.852H72.423v12.113l-6.411.29v-8.172z" />
<path fill="#fff" d="M105.718 155.427c-5.937-2.72-8.12-7.68-6.33-13.647 1.303-4.348 5.045-6.892 9.458-6.43 4.89.513 8.528 5.355 8.113 10.797-.501 6.568-4.02 9.607-11.24 9.28z" /></svg>