<svg viewBox="0 0 48 48" fill="currentColor" xmlns="http://www.w3.org/2000/svg"><path d="M44.5 11.76V9a.5.5 0 0 0-.5-.5H4a.5.5 0 0 0-.5.5v2.76m41 0V39a.5.5 0 0 1-.5.5H4a.5.5 0 0 1-.5-.5V11.76m41 0h-41" stroke="#4F5162"/><path d="M23.945 20.11v3.924m0 0v3.856m0-3.856 3.593 2.217m-3.593-2.217 3.593-1.96m-3.593 1.96-3.551-1.96m3.55 1.96-3.376 2.108m1.628 3.496 1.749-1.748m0 0 1.748 1.748M18.18 25.459l2.388.64-.64 2.388M29.902 22.746l-2.387-.64.64-2.388M25.693 18.362l-1.748 1.748-1.748-1.748M19.928 19.718l.64 2.389-2.388.64M28.037 28.487l-.64-2.388 2.388-.64" stroke="#4F5162" stroke-linecap="round"/></svg>