<svg viewBox="0 0 15 14" xmlns="http://www.w3.org/2000/svg"><path d="M4.64.866H3.214A2.352 2.352 0 00.862 3.217v1.427a2.352 2.352 0 002.352 2.351H4.64a2.352 2.352 0 002.352-2.351V3.217A2.352 2.352 0 004.64.866zm1.255 3.778c0 .691-.563 1.254-1.255 1.254H3.214A1.256 1.256 0 011.96 4.644V3.217c0-.691.562-1.254 1.254-1.254H4.64c.692 0 1.255.563 1.255 1.254v1.427zm5.8-3.778H10.27a2.352 2.352 0 00-2.351 2.351v1.427a2.352 2.352 0 002.351 2.351h1.427a2.352 2.352 0 002.351-2.351V3.217A2.352 2.352 0 0011.696.866zm1.255 3.778c0 .691-.563 1.254-1.254 1.254h-1.427a1.256 1.256 0 01-1.254-1.254V3.217c0-.691.563-1.254 1.254-1.254h1.427c.691 0 1.254.563 1.254 1.254v1.427zM4.64 7.773H3.214a2.352 2.352 0 00-2.352 2.351v1.427a2.352 2.352 0 002.352 2.352H4.64a2.352 2.352 0 002.352-2.352v-1.427A2.352 2.352 0 004.64 7.773zm1.255 3.778c0 .691-.563 1.254-1.255 1.254H3.214a1.256 1.256 0 01-1.254-1.254v-1.427c0-.691.562-1.254 1.254-1.254H4.64c.692 0 1.255.563 1.255 1.254v1.427zm8.294-1.984a.549.549 0 01-.549.549H8.466a.549.549 0 010-1.098h5.174c.303 0 .549.246.549.549zm0 3.397a.549.549 0 01-.549.549H8.466a.549.549 0 110-1.098h5.174c.303 0 .549.246.549.549z" fill="#25A6F7" fill-rule="nonzero"/></svg>