<svg xmlns="http://www.w3.org/2000/svg" xml:space="preserve" fill="none" overflow="visible" viewBox="0 0 24 24"><path d="M0 0h24v24H0z"/><path fill="#d8e0ed" fill-rule="evenodd" d="m6 2.4-5.2 3v13.7l5.2 3v-2.6l-3-1.7V6.7L6 5z"/><path fill="#fafcff" fill-rule="evenodd" d="M.8 8v8.5L3 17.8V6.7z"/><path fill="#fafcff" fill-rule="evenodd" d="M.8 8 3 7.5v-.8z"/><path fill="#d8e0ed" fill-rule="evenodd" d="M18 2.4V5l3 1.7v11.1l-3 1.7v2.6l5.2-3V5.4z"/><path fill="#fafcff" fill-rule="evenodd" d="m21 17.8 2.2-1.3V8L21 6.7z"/><path fill="#fafcff" fill-rule="evenodd" d="m21 7.5 2.2.5L21 6.7zm0 9.6v.7l2.2-1.3z"/><g fill-rule="evenodd"><path fill="#d8e0ed" d="M12 5.5 9 7.1l3 1.6 3-1.6z"/><path fill="#fafcff" d="m12.4 12.4 2.9-1.6V7.7l-2.9 1.6zm-.7-3.1-3-1.6v3.1l3 1.6z"/><path fill="#d8e0ed" d="m8.56 11.376-2.9 1.6 2.9 1.6 2.8-1.6z"/><path fill="#fafcff" d="m8.76 18.276 2.9-1.6v-3.2l-2.9 1.6zm-.5-3.2-2.9-1.6v3.2l2.9 1.6z"/><path fill="#d8e0ed" d="m15.52 11.376-2.9 1.6 2.9 1.6 2.9-1.6z"/><path fill="#fafcff" d="m15.82 18.276 2.9-1.6v-3.2l-2.9 1.6zm-.6-3.2-2.9-1.6v3.2l2.9 1.6z"/></g></svg>