<svg width="32" height="32" viewBox="0 0 32 32" fill="none" xmlns="http://www.w3.org/2000/svg">
<path d="M19.3717 19.6667C21.5012 19.6667 23.3113 18.9213 24.802 17.4307C26.2929 15.9398 27.0383 14.1296 27.0383 12C27.0383 11.6296 27.0113 11.2592 26.9573 10.889C26.9036 10.5186 26.8134 10.1632 26.687 9.82301C26.6014 9.6179 26.486 9.46623 26.3407 9.36801C26.1956 9.26979 26.0316 9.19845 25.8487 9.15401C25.6656 9.10957 25.4813 9.1129 25.296 9.16401C25.1104 9.21534 24.9417 9.31712 24.7897 9.46934L21.2383 12.995L18.3767 10.1333L21.8897 6.60768C22.0417 6.45545 22.1433 6.28368 22.1947 6.09234C22.246 5.90101 22.2494 5.71468 22.205 5.53334C22.1606 5.35223 22.087 5.18901 21.9843 5.04368C21.8819 4.89834 21.7323 4.7829 21.5357 4.69734C21.1954 4.56245 20.8416 4.46801 20.474 4.41401C20.1067 4.36023 19.7392 4.33334 19.3717 4.33334C17.2419 4.33334 15.4317 5.07868 13.941 6.56934C12.4503 8.06023 11.705 9.87045 11.705 12C11.705 12.5625 11.758 13.0863 11.864 13.5717C11.97 14.0572 12.129 14.5266 12.341 14.9797L5.09466 22.1847C4.53578 22.7413 4.25633 23.4228 4.25633 24.229C4.25633 25.0352 4.53489 25.7179 5.092 26.277C5.64911 26.8359 6.33111 27.1153 7.138 27.1153C7.94489 27.1153 8.62789 26.829 9.187 26.2563L16.392 19.0307C16.8622 19.2342 17.3401 19.3911 17.8257 19.5013C18.3114 19.6116 18.8268 19.6667 19.3717 19.6667ZM19.3717 17.6667C18.7881 17.6667 18.2046 17.5799 17.621 17.4063C17.0377 17.233 16.5041 16.9617 16.0203 16.5923L7.74066 24.872C7.57844 25.0342 7.37511 25.112 7.13066 25.1053C6.88622 25.0985 6.68278 25.0138 6.52033 24.8513C6.35789 24.6889 6.27666 24.4855 6.27666 24.241C6.27666 23.9966 6.35789 23.7931 6.52033 23.6307L14.7997 15.3717C14.4254 14.9101 14.1494 14.3849 13.9717 13.796C13.7939 13.2071 13.705 12.6085 13.705 12C13.705 10.5213 14.2332 9.21279 15.2897 8.07434C16.3461 6.9359 17.6829 6.37779 19.3 6.40001L16.41 9.28968C16.1691 9.53079 16.0487 9.81201 16.0487 10.1333C16.0487 10.4547 16.1691 10.7359 16.41 10.977L20.3947 14.9617C20.6358 15.2026 20.917 15.323 21.2383 15.323C21.5597 15.323 21.8409 15.2026 22.082 14.9617L24.9717 12.0717C24.9683 13.7828 24.3931 15.1431 23.246 16.1527C22.0989 17.162 20.8074 17.6667 19.3717 17.6667Z" fill="#0278D5"/>
<path d="M30.4571 29.4391H25.5448C25.3714 29.4391 25.2296 29.2972 25.2296 29.1238V24.2115C25.2296 24.0381 25.3714 23.8962 25.5448 23.8962H30.4571C30.6305 23.8962 30.7724 24.0381 30.7724 24.2115V29.1238C30.7724 29.2972 30.6305 29.4391 30.4571 29.4391ZM25.8581 28.8085H30.1399V24.5268H25.8581V28.8085Z" fill="#4285F4"/>
<path d="M25.8581 28.8085H25.2276V24.2115C25.2276 24.0381 25.3694 23.8962 25.5428 23.8962H28.4217V24.5268H25.8581V28.8085Z" fill="#FBBC04"/>
<path d="M31.6847 28.8085H30.4571C30.2837 28.8085 30.1419 28.6666 30.1419 28.4932C30.1419 28.3199 30.2837 28.178 30.4571 28.178H31.6847C31.8581 28.178 32 28.3199 32 28.4932C32 28.6666 31.8581 28.8085 31.6847 28.8085Z" fill="#4285F4"/>
<path d="M31.6847 26.9819H30.4571C30.2837 26.9819 30.1419 26.84 30.1419 26.6667C30.1419 26.4933 30.2837 26.3514 30.4571 26.3514H31.6847C31.8581 26.3514 32 26.4933 32 26.6667C32 26.84 31.8581 26.9819 31.6847 26.9819Z" fill="#EA4335"/>
<path d="M31.6847 25.1396H30.4571C30.2837 25.1396 30.1419 24.9977 30.1419 24.8243C30.1419 24.6509 30.2837 24.509 30.4571 24.509H31.6847C31.8581 24.509 32 24.6509 32 24.8243C32 24.9977 31.8581 25.1396 31.6847 25.1396Z" fill="#EA4335"/>
<path d="M29.8424 24.5248C29.669 24.5248 29.5271 24.3829 29.5271 24.2095V22.9819C29.5271 22.8085 29.669 22.6667 29.8424 22.6667C30.0158 22.6667 30.1576 22.8085 30.1576 22.9819V24.2095C30.1576 24.3829 30.0158 24.5248 29.8424 24.5248Z" fill="#EA4335"/>
<path d="M28 24.5248C27.8266 24.5248 27.6847 24.3829 27.6847 24.2095V22.9819C27.6847 22.8085 27.8266 22.6667 28 22.6667C28.1734 22.6667 28.3153 22.8085 28.3153 22.9819V24.2095C28.3153 24.3829 28.1734 24.5248 28 24.5248Z" fill="#EA4335"/>
<path d="M26.1576 24.5248C25.9842 24.5248 25.8424 24.3829 25.8424 24.2095V22.9819C25.8424 22.8085 25.9842 22.6667 26.1576 22.6667C26.331 22.6667 26.4729 22.8085 26.4729 22.9819V24.2095C26.4729 24.3829 26.331 24.5248 26.1576 24.5248Z" fill="#FBBC04"/>
<path d="M29.1626 28.1445H26.8375C26.6641 28.1445 26.5222 28.0026 26.5222 27.8292V25.5041C26.5222 25.3307 26.6641 25.1888 26.8375 25.1888H29.1626C29.336 25.1888 29.4779 25.3307 29.4779 25.5041V27.8292C29.4779 28.0026 29.336 28.1445 29.1626 28.1445ZM27.1527 27.514H28.8473V25.8194H27.1527V27.514Z" fill="#34A853"/>
<path d="M30.7724 28.178H30.1419V24.5268H27.6867V23.8962H30.4572C30.6306 23.8962 30.7724 24.0381 30.7724 24.2115V28.178Z" fill="#EA4335"/>
<path d="M26.1576 30.6667C25.9842 30.6667 25.8424 30.5248 25.8424 30.3514V29.1238C25.8424 28.9504 25.9842 28.8085 26.1576 28.8085C26.331 28.8085 26.4729 28.9504 26.4729 29.1238V30.3514C26.4729 30.5248 26.331 30.6667 26.1576 30.6667Z" fill="#4285F4"/>
<path d="M28 30.6667C27.8266 30.6667 27.6847 30.5248 27.6847 30.3514V29.1238C27.6847 28.9504 27.8266 28.8085 28 28.8085C28.1734 28.8085 28.3153 28.9504 28.3153 29.1238V30.3514C28.3153 30.5248 28.1734 30.6667 28 30.6667Z" fill="#4285F4"/>
<path d="M29.8424 30.6667C29.669 30.6667 29.5271 30.5248 29.5271 30.3514V29.1238C29.5271 28.9504 29.669 28.8085 29.8424 28.8085C30.0158 28.8085 30.1576 28.9504 30.1576 29.1238V30.3514C30.1576 30.5248 30.0158 30.6667 29.8424 30.6667Z" fill="#4285F4"/>
<path d="M25.5429 25.1396H24.3153C24.1419 25.1396 24 24.9977 24 24.8243C24 24.6509 24.1419 24.509 24.3153 24.509H25.5429C25.7163 24.509 25.8581 24.6509 25.8581 24.8243C25.8581 24.9977 25.7163 25.1396 25.5429 25.1396Z" fill="#FBBC04"/>
<path d="M25.5429 26.9819H24.3153C24.1419 26.9819 24 26.84 24 26.6667C24 26.4933 24.1419 26.3514 24.3153 26.3514H25.5429C25.7163 26.3514 25.8581 26.4933 25.8581 26.6667C25.8581 26.84 25.7163 26.9819 25.5429 26.9819Z" fill="#FBBC04"/>
<path d="M25.5429 28.8085H24.3153C24.1419 28.8085 24 28.6666 24 28.4932C24 28.3199 24.1419 28.178 24.3153 28.178H25.5429C25.7163 28.178 25.8581 28.3199 25.8581 28.4932C25.8581 28.6666 25.7163 28.8085 25.5429 28.8085Z" fill="#FBBC04"/>
</svg>
