<svg width="24" height="24" viewBox="0 0 24 24" fill="none" xmlns="http://www.w3.org/2000/svg">
<path d="M14.5287 14.75C16.1259 14.75 17.4835 14.191 18.6015 13.073C19.7197 11.9548 20.2787 10.5972 20.2787 9C20.2787 8.72217 20.2585 8.44442 20.218 8.16675C20.1777 7.88892 20.1101 7.62242 20.0152 7.36725C19.9511 7.21342 19.8645 7.09967 19.7555 7.026C19.6467 6.95233 19.5237 6.89883 19.3865 6.8655C19.2492 6.83217 19.111 6.83467 18.972 6.873C18.8328 6.9115 18.7062 6.98783 18.5922 7.102L15.9287 9.74625L13.7825 7.6L16.4172 4.95575C16.5312 4.84158 16.6075 4.71275 16.646 4.56925C16.6845 4.42575 16.6871 4.286 16.6537 4.15C16.6204 4.01417 16.5652 3.89175 16.4882 3.78275C16.4114 3.67375 16.2992 3.58717 16.1517 3.523C15.8966 3.42183 15.6312 3.351 15.3555 3.3105C15.08 3.27017 14.8044 3.25 14.5287 3.25C12.9314 3.25 11.5737 3.809 10.4557 4.927C9.33775 6.04517 8.77875 7.40283 8.77875 9C8.77875 9.42183 8.8185 9.81475 8.898 10.1788C8.9775 10.5429 9.09675 10.8949 9.25575 11.2348L3.821 16.6385C3.40183 17.056 3.19225 17.5671 3.19225 18.1718C3.19225 18.7764 3.40116 19.2884 3.819 19.7078C4.23683 20.1269 4.74833 20.3365 5.3535 20.3365C5.95866 20.3365 6.47091 20.1217 6.89025 19.6923L12.294 14.273C12.6467 14.4257 13.0051 14.5433 13.3692 14.626C13.7336 14.7087 14.1201 14.75 14.5287 14.75ZM14.5287 13.25C14.0911 13.25 13.6534 13.1849 13.2157 13.0548C12.7782 12.9248 12.3781 12.7212 12.0152 12.4443L5.8055 18.654C5.68383 18.7757 5.53133 18.834 5.348 18.829C5.16466 18.8238 5.01208 18.7603 4.89025 18.6385C4.76841 18.5167 4.7075 18.3641 4.7075 18.1807C4.7075 17.9974 4.76841 17.8448 4.89025 17.723L11.0997 11.5288C10.8191 11.1826 10.6121 10.7887 10.4787 10.347C10.3454 9.90533 10.2787 9.45633 10.2787 9C10.2787 7.891 10.6749 6.90958 11.4672 6.05575C12.2596 5.20192 13.2622 4.78333 14.475 4.8L12.3075 6.96725C12.1268 7.14808 12.0365 7.359 12.0365 7.6C12.0365 7.841 12.1268 8.05192 12.3075 8.23275L15.296 11.2213C15.4768 11.4019 15.6877 11.4923 15.9287 11.4923C16.1697 11.4923 16.3807 11.4019 16.5615 11.2213L18.7287 9.05375C18.7262 10.3371 18.2948 11.3573 17.4345 12.1145C16.5742 12.8715 15.6056 13.25 14.5287 13.25Z" fill="#0278D5"/>
<path d="M22.8429 22.0793H19.1586C19.0286 22.0793 18.9222 21.9729 18.9222 21.8429V18.1586C18.9222 18.0286 19.0286 17.9222 19.1586 17.9222H22.8429C22.9729 17.9222 23.0793 18.0286 23.0793 18.1586V21.8429C23.0793 21.9729 22.9729 22.0793 22.8429 22.0793ZM19.3936 21.6064H22.6049V18.3951H19.3936V21.6064Z" fill="#4285F4"/>
<path d="M19.3936 21.6064H18.9207V18.1586C18.9207 18.0286 19.0271 17.9222 19.1571 17.9222H21.3162V18.3951H19.3936V21.6064Z" fill="#FBBC04"/>
<path d="M23.7636 21.6064H22.8429C22.7128 21.6064 22.6064 21.5 22.6064 21.3699C22.6064 21.2399 22.7128 21.1335 22.8429 21.1335H23.7636C23.8936 21.1335 24 21.2399 24 21.3699C24 21.5 23.8936 21.6064 23.7636 21.6064Z" fill="#4285F4"/>
<path d="M23.7636 20.2365H22.8429C22.7128 20.2365 22.6064 20.1301 22.6064 20C22.6064 19.87 22.7128 19.7635 22.8429 19.7635H23.7636C23.8936 19.7635 24 19.87 24 20C24 20.1301 23.8936 20.2365 23.7636 20.2365Z" fill="#EA4335"/>
<path d="M23.7636 18.8547H22.8429C22.7128 18.8547 22.6064 18.7483 22.6064 18.6182C22.6064 18.4882 22.7128 18.3818 22.8429 18.3818H23.7636C23.8936 18.3818 24 18.4882 24 18.6182C24 18.7483 23.8936 18.8547 23.7636 18.8547Z" fill="#EA4335"/>
<path d="M22.3818 18.3936C22.2517 18.3936 22.1453 18.2872 22.1453 18.1571V17.2365C22.1453 17.1064 22.2517 17 22.3818 17C22.5118 17 22.6182 17.1064 22.6182 17.2365V18.1571C22.6182 18.2872 22.5118 18.3936 22.3818 18.3936Z" fill="#EA4335"/>
<path d="M21 18.3936C20.8699 18.3936 20.7635 18.2872 20.7635 18.1571V17.2365C20.7635 17.1064 20.8699 17 21 17C21.13 17 21.2364 17.1064 21.2364 17.2365V18.1571C21.2364 18.2872 21.13 18.3936 21 18.3936Z" fill="#EA4335"/>
<path d="M19.6182 18.3936C19.4882 18.3936 19.3818 18.2872 19.3818 18.1571V17.2365C19.3818 17.1064 19.4882 17 19.6182 17C19.7483 17 19.8547 17.1064 19.8547 17.2365V18.1571C19.8547 18.2872 19.7483 18.3936 19.6182 18.3936Z" fill="#FBBC04"/>
<path d="M21.8719 21.1084H20.1281C19.998 21.1084 19.8916 21.002 19.8916 20.8719V19.1281C19.8916 18.998 19.998 18.8916 20.1281 18.8916H21.8719C22.002 18.8916 22.1084 18.998 22.1084 19.1281V20.8719C22.1084 21.002 22.002 21.1084 21.8719 21.1084ZM20.3645 20.6355H21.6355V19.3645H20.3645V20.6355Z" fill="#34A853"/>
<path d="M23.0793 21.1335H22.6064V18.3951H20.765V17.9222H22.8429C22.9729 17.9222 23.0793 18.0286 23.0793 18.1586V21.1335Z" fill="#EA4335"/>
<path d="M19.6182 23C19.4882 23 19.3818 22.8936 19.3818 22.7636V21.8429C19.3818 21.7128 19.4882 21.6064 19.6182 21.6064C19.7483 21.6064 19.8547 21.7128 19.8547 21.8429V22.7636C19.8547 22.8936 19.7483 23 19.6182 23Z" fill="#4285F4"/>
<path d="M21 23C20.8699 23 20.7635 22.8936 20.7635 22.7636V21.8429C20.7635 21.7128 20.8699 21.6064 21 21.6064C21.13 21.6064 21.2364 21.7128 21.2364 21.8429V22.7636C21.2364 22.8936 21.13 23 21 23Z" fill="#4285F4"/>
<path d="M22.3818 23C22.2517 23 22.1453 22.8936 22.1453 22.7636V21.8429C22.1453 21.7128 22.2517 21.6064 22.3818 21.6064C22.5118 21.6064 22.6182 21.7128 22.6182 21.8429V22.7636C22.6182 22.8936 22.5118 23 22.3818 23Z" fill="#4285F4"/>
<path d="M19.1571 18.8547H18.2365C18.1064 18.8547 18 18.7483 18 18.6182C18 18.4882 18.1064 18.3818 18.2365 18.3818H19.1571C19.2872 18.3818 19.3936 18.4882 19.3936 18.6182C19.3936 18.7483 19.2872 18.8547 19.1571 18.8547Z" fill="#FBBC04"/>
<path d="M19.1571 20.2365H18.2365C18.1064 20.2365 18 20.1301 18 20C18 19.87 18.1064 19.7635 18.2365 19.7635H19.1571C19.2872 19.7635 19.3936 19.87 19.3936 20C19.3936 20.1301 19.2872 20.2365 19.1571 20.2365Z" fill="#FBBC04"/>
<path d="M19.1571 21.6064H18.2365C18.1064 21.6064 18 21.5 18 21.3699C18 21.2399 18.1064 21.1335 18.2365 21.1335H19.1571C19.2872 21.1335 19.3936 21.2399 19.3936 21.3699C19.3936 21.5 19.2872 21.6064 19.1571 21.6064Z" fill="#FBBC04"/>
</svg>
