<svg width="24" height="24" fill="none" xmlns="http://www.w3.org/2000/svg"><path d="M14.035 8.417v.5h.47c.633 0 .61-.023.61.613v.467h.506c.62 0 .607-.006.607.35 0 .346-.003.35-.626.35h-.486v.953h.486c.623 0 .626.003.626.35s-.003.35-.626.35h-.486v.953h.492c.61 0 .62.007.62.36 0 .34 0 .34-.613.34h-.5v.477c0 .636.032.604-.603.604h-.477v.493c0 .483-.004.496-.08.572-.063.067-.108.08-.254.08-.175 0-.296-.039-.34-.109-.013-.019-.026-.26-.026-.537v-.5h-.953v.494c0 .483-.004.496-.08.572-.063.067-.108.08-.277.08-.34 0-.343-.004-.343-.624v-.521h-.95l-.01.512c-.01.499-.013.512-.089.575-.067.054-.114.06-.292.051-.325-.02-.325-.02-.337-.63l-.01-.508h-.947L8.983 15c-.06-.076-.067-.127-.067-.54v-.458h-.502c-.614 0-.61 0-.61-.344 0-.35.009-.356.62-.356h.492v-.953H8.43c-.623 0-.626-.003-.626-.35s.003-.35.626-.35h.486v-.953h-.505c-.607 0-.607 0-.607-.37 0-.33.003-.33.613-.33h.5v-.413H2.31l-.105.181c-.057.102-.127.223-.156.273-.025.048-.181.318-.343.604-.165.283-.318.554-.344.598-.127.239-.178.827-.104 1.18.035.171.18.499.333.756.166.277.43.741.735 1.272.105.184.273.477.375.652l.423.73c.13.227.273.468.314.532.039.067.074.127.074.133 0 .01.04.086.092.172.047.083.127.216.168.296l.248.426c.134.226.662 1.141 1.05 1.812.028.05.187.324.346.604l.442.763c.203.353.53.674.836.82.47.23.105.213 5.297.213 3.252 0 4.73-.01 4.848-.035.273-.057.667-.264.884-.464.235-.216.289-.293.674-.963l.788-1.367c.27-.464.591-1.02.715-1.24.128-.22.414-.712.636-1.097.223-.385.506-.877.63-1.097.12-.22.248-.442.276-.493.032-.054.169-.289.302-.524.302-.525.312-.544.54-.938.395-.67.494-.947.494-1.383 0-.48-.074-.661-.7-1.742l-.391-.674H15.704l-.833-.833-.836-.836v.502Z" fill="#0278D5"/><path d="M14.035 15.583v-.499h.47c.633 0 .61.022.61-.614v-.467h.506c.62 0 .607.006.607-.35 0-.346-.003-.35-.626-.35h-.486v-.953h.486c.623 0 .626-.003.626-.35 0-.346-.003-.35-.626-.35h-.486v-.953h.492c.61 0 .62-.007.62-.36 0-.34 0-.34-.613-.34h-.5V9.52c0-.635.032-.604-.603-.604h-.477v-.492c0-.484-.004-.496-.08-.573-.063-.066-.108-.08-.254-.08-.175 0-.296.04-.34.109-.013.02-.026.26-.026.537v.5h-.953v-.493c0-.484-.004-.496-.08-.573-.063-.066-.108-.08-.277-.08-.34 0-.343.004-.343.624v.521h-.95l-.01-.511c-.01-.5-.013-.512-.089-.576-.067-.054-.114-.06-.292-.05-.325.018-.325.018-.337.629l-.01.508h-.947L8.983 9c-.06.076-.067.127-.067.54v.458h-.502c-.614 0-.61 0-.61.344 0 .35.009.356.62.356h.492v.953H8.43c-.623 0-.626.004-.626.35 0 .347.003.35.626.35h.486v.954h-.505c-.607 0-.607 0-.607.368 0 .331.003.331.613.331h.5v.413H2.31l-.105-.18c-.057-.103-.127-.223-.156-.274-.025-.048-.181-.318-.343-.604-.165-.283-.318-.553-.344-.598-.127-.238-.178-.826-.104-1.18.035-.171.18-.498.333-.756.166-.277.43-.74.735-1.272.105-.184.273-.477.375-.651.102-.175.292-.503.423-.732.13-.225.273-.467.314-.53.039-.067.074-.128.074-.134 0-.01.04-.086.092-.172.047-.082.127-.216.168-.295l.248-.426c.134-.226.662-1.142 1.05-1.813.028-.05.187-.324.346-.604l.442-.763c.203-.353.53-.674.836-.82.47-.229.105-.213 5.297-.213 3.252 0 4.73.01 4.848.035.273.057.667.264.884.464.235.216.289.293.674.964.168.289.521.902.788 1.367.27.464.591 1.02.715 1.24l.636 1.096c.223.385.506.878.63 1.097.12.22.248.442.276.493.032.054.169.29.302.524.302.525.312.544.54.938.395.671.494.948.494 1.383 0 .48-.074.662-.7 1.742l-.391.674H15.704l-.833.833-.836.836v-.502Z" fill="#0278D5"/><path d="M9.647 12v2.353h4.737V9.647H9.647V12Zm3.488-1.106.073.066v1.046c0 1.002-.003 1.046-.063 1.107-.06.06-.105.063-1.126.063h-1.065l-.064-.082c-.063-.083-.066-.121-.066-1.094 0-.973.003-1.011.066-1.094l.064-.082h1.056c1.036 0 1.052 0 1.125.07Z" fill="#0278D5"/></svg>