<svg viewBox="0 0 40 36" xmlns="http://www.w3.org/2000/svg"><path d="m39.5219 16.1625-8.2188-14.29375c-.309-.54811-.7559-1.005979-1.2964-1.328272-.5404-.322294-1.1557-.4978299-1.7848-.509228h-16.4406c-.6293.0110875-1.2446.186494-1.78513.508819-.5405.322325-.98733.780361-1.29616 1.328681l-8.221878 14.25625c-.312553.5439-.47703337 1.1602-.47703337 1.7875s.16448037 1.2436.47703337 1.7875l8.218748 14.375c.30578.5561.75024 1.0236 1.29016 1.3571.53996.3335 1.15696.5216 1.79106.546h16.4407c.634-.0217 1.2515-.2077 1.7922-.5396.5406-.332.9858-.7985 1.2921-1.3541l8.2188-14.2938c.3148-.5527.4803-1.1779.4803-1.814 0-.6362-.1655-1.2613-.4803-1.8141z" fill="#4285f4"/><path d="m29.0375 11.7781-9.2063-3.18435-8.1999 3.56245-.0688 2.4313v3.5625l.5656 3.1656.9594 2.2063 1.7562 3.3031 8.925 8.9875h4.4344c.633.0022 1.2554-.1628 1.8041-.4783.5488-.3155 1.0044-.7704 1.3209-1.3186l7.3125-12.6625z" opacity=".07"/><g fill="#fff"><path d="m20 18.4468c-.5421.0006-1.0721-.1595-1.5232-.4601-.451-.3006-.8028-.7283-1.0108-1.2288-.208-.5006-.2629-1.0516-.1577-1.5833.1051-.5318.3656-1.0204.7484-1.4041.3829-.3837.8709-.6453 1.4024-.7517.5315-.1063 1.0826-.0527 1.5837.1542.501.2069.9294.5576 1.2311 1.008.3016.4503.463.98.4636 1.5221 0 .7266-.2882 1.4235-.8014 1.9379s-1.2095.8042-1.9361.8058zm0-4.0625c-.2608 0-.5158.0774-.7327.2223s-.3859.3508-.4857.5918-.1259.5061-.075.762c.0508.2558.1764.4907.3609.6752.1844.1844.4194.31.6752.3609s.521.0248.7619-.0751c.241-.0998.447-.2688.5919-.4857.1449-.2168.2222-.4718.2222-.7326-.0016-.349-.1412-.6831-.3882-.9296-.2471-.2465-.5816-.3852-.9305-.386z"/><path d="m20 29.6563-.1688-.0406c-5.0625-1.2313-8.8937-6.3032-8.8937-11.8063v-6.0156l9.0625-4.025 9.0438 4.025v6.0187c0 5.4907-3.8157 10.5688-8.875 11.8032zm-7.625-16.9438v5.0969c0 4.7969 3.2656 9.2281 7.625 10.3844 4.375-1.1563 7.625-5.5875 7.625-10.3844v-5.0969l-7.625-3.39058z"/><path d="m20.7094 17.5688h-1.4188v6.9157h1.4188z"/><path d="m19.6938 20.0125h-2.575v1.4187h2.575z"/><path d="m20.2031 22.0437h-2.1438v1.4187h2.1438z"/></g></svg>