<svg fill="none" xmlns="http://www.w3.org/2000/svg" viewBox="0 0 32 33"><path fill-rule="evenodd" clip-rule="evenodd" d="m.387 17.715 6.563 11.37a2.877 2.877 0 0 0 2.487 1.437h13.126c1.024 0 1.975-.55 2.487-1.438l6.563-11.369a2.88 2.88 0 0 0 0-2.875L25.05 3.472a2.877 2.877 0 0 0-2.488-1.438H9.438c-1.025 0-1.975.55-2.487 1.438L.387 14.84a2.88 2.88 0 0 0 0 2.875Zm11.163-8.13v1.774L9.5 12.54v7.476l2.05 1.18v1.776l-3.613-2.088v-9.212l3.613-2.088Zm8.9 1.774V9.584l3.613 2.088v9.212l-3.613 2.088v-1.775l2.05-1.181V12.54l-2.05-1.182ZM16 15.591l-2-1.157v-2.312l2-1.156 2 1.156v2.312l-2 1.157Zm.625 3.343 2 1.156 2-1.156v-2.312l-2-1.156-2 1.156v2.312Zm-3.25 1.156-2-1.156v-2.312l2-1.156 2 1.156v2.312l-2 1.156Z" fill="url(#a)"/><path fill-rule="evenodd" clip-rule="evenodd" d="m31.05 18.69-6 10.394a2.877 2.877 0 0 1-2.488 1.438h-4.956l-9.61-9.603 3.554 2.053v-1.775L9.5 20.016V12.54l2.05-1.182V9.601l.012-.01 2.497 2.496-.059.035v2.312l2 1.157 2-1.157v-2.262l4.5 4.494v3.35l-2.05 1.18v1.776l3.613-2.088v-9.187l6.987 6.993Zm-8.55-6.15v.888l-2.038-2.038.015-.015L22.5 12.54Zm-3.875 7.55-2-1.156v-2.312l2-1.156 2 1.156v2.312l-2 1.156Zm-7.25-1.156 2 1.156 2-1.156v-2.312l-2-1.156-2 1.156v2.312Z" fill="#D8DFED"/><defs><linearGradient id="a" x1="16" y1="2.036" x2="16" y2="30.475" gradientUnits="userSpaceOnUse"><stop stop-color="#fff"/><stop offset="1" stop-color="#E3EDFE"/></linearGradient></defs></svg>