<svg fill="none" height="32" viewBox="0 0 32 32" width="32" xmlns="http://www.w3.org/2000/svg" xmlns:xlink="http://www.w3.org/1999/xlink"><clipPath id="a"><path d="m21 21h11v11h-11z"/></clipPath><path clip-rule="evenodd" d="m6.56963 3.78524c.13808-.23915.44387-.32108.68302-.18301l4.81195 2.77817c.2391.13808.3211.44387.183.68302-.1381.23914-.4439.32108-.683.18301l-4.81195-2.77818c-.23915-.13807-.32109-.44386-.18302-.68301zm-2.87069 2.59543c-.23915-.13807-.54495-.05613-.68302.18301-.13807.23915-.05613.54494.18302.68301l4.81194 2.77821c.23915.138.54494.0561.68301-.18304.13807-.23915.05614-.54494-.18301-.68301zm13.59456.50992c-.1548-.08981-.3458-.09003-.5008-.00055l-7.00021 4.04046c-.15473.0893-.25005.2544-.25005.433l.00002 7.7841c0 .178.09466.3426.24853.4321l7.32911 4.2649c.1551.0902.3467.0904.502.0005l7.0316-4.0703c.1544-.0894.2495-.2543.2495-.4327v-7.7487c0-.1783-.0949-.3431-.2491-.4325zm-6.751 11.96941-.0001-6.6298 6.381 3.6894-.0458 6.6268zm7.3351 3.6818.0458-6.62 5.9798-3.4613v6.5933zm-.4523-7.4871 5.9807-3.4618-6.364-3.69214-6 3.46314zm-13.72636-2.6294c-.23915-.138-.54495-.0561-.68302.1831-.13807.2391-.05613.5449.18302.683l4.81194 2.7781c.23915.1381.54494.0562.68301-.183.13807-.2391.05614-.5449-.18301-.683z" fill="#0278d5" fill-rule="evenodd"/><g clip-path="url(#a)"><path d="m24.2312 21.55c-.3437 0-.6703.2063-.8422.4985l-2.2515 3.9359c-.1719.3094-.1719.6703 0 .9797l2.2515 3.9531c.1719.3094.4985.5157.8422.5157h4.5203c.361-.0172.6703-.2063.8422-.5157l2.2516-3.9359c.1031-.1375.1547-.3094.1547-.4813 0-.1718-.0516-.3437-.1375-.4984l-2.2516-3.9359c-.1719-.3094-.4984-.4985-.8422-.4985h-4.5375z" fill="#4285f4"/><path d="m31.1578 28.2188-1.5469 2.6984c-.1718.3094-.4984.5156-.8421.5156h-1.7188l-2.5266-2.5266.7391-2.389-.7391-2.4234.7563.5156 1.0312 1.0312-.4812-1.5468 3.575 2.4062z" fill="#000" fill-opacity=".07"/><path d="m24.5234 24.1108.7563.5157.6015 1.925-.5843 1.839-.7735.5157.7391-2.3891zm1.9422.8422.3782 1.2032h1.4093zm2.9563 1.5641-3.5922 2.3891.7391-2.3891-.7391-2.4063z" fill="#fff"/></g></svg>