<svg viewBox="0 0 33 32" fill="none" xmlns="http://www.w3.org/2000/svg"><path fill-rule="evenodd" clip-rule="evenodd" d="M10.56 3.964a1 1 0 0 1 1-1h10a1 1 0 0 1 1 1v1h4a1 1 0 0 1 1 1v13.063a.5.5 0 0 1-1 0V5.964h-4v1a1 1 0 0 1-1 1h-10a1 1 0 0 1-1-1v-1h-4v22H17.66a.5.5 0 1 1 0 1H6.561a1 1 0 0 1-1-1v-22a1 1 0 0 1 1-1h4v-1Zm11 0h-10v3h10v-3Zm-7.979 6.097a.5.5 0 0 1 0 .707l-2.635 2.635a1 1 0 0 1-1.414 0l-.992-.991a.5.5 0 1 1 .707-.707l.992.991 2.635-2.635a.5.5 0 0 1 .707 0Zm1.663 1.884a.5.5 0 0 1 .5-.5h8a.5.5 0 1 1 0 1h-8a.5.5 0 0 1-.5-.5Zm-1.663 2.75a.5.5 0 0 1 0 .708l-2.635 2.635a1 1 0 0 1-1.414 0l-.992-.991a.5.5 0 0 1 .707-.708l.992.992 2.635-2.636a.5.5 0 0 1 .707 0Zm1.663 2.27a.5.5 0 0 1 .5-.5h8a.5.5 0 1 1 0 1h-8a.5.5 0 0 1-.5-.5Zm-1.663 2.681a.5.5 0 0 1 0 .708l-2.635 2.635a1 1 0 0 1-1.414 0l-.992-.992a.5.5 0 1 1 .707-.707l.992.992 2.635-2.636a.5.5 0 0 1 .707 0Zm1.663 2.356a.5.5 0 0 1 .5-.5h2.528a.5.5 0 0 1 0 1h-2.528a.5.5 0 0 1-.5-.5Z" fill="#fff"/><g clip-path="url(#a)"><path d="M24.792 21.55c-.344 0-.67.206-.842.498l-2.252 3.936a.996.996 0 0 0 0 .98l2.252 3.953c.172.31.498.516.842.516h4.52a1 1 0 0 0 .842-.516l2.252-3.936a.804.804 0 0 0 .155-.481c0-.172-.052-.344-.138-.498l-2.251-3.936a.969.969 0 0 0-.843-.499h-4.537v-.017Z" fill="#fff"/><path d="m31.719 28.219-1.547 2.698a.985.985 0 0 1-.843.516h-1.718l-2.527-2.527.74-2.389-.74-2.423.756.515 1.032 1.032-.482-1.547 3.575 2.406 1.754 1.719Z" fill="#D7DFED"/><path d="m25.084 24.11.756.517.602 1.925-.584 1.838-.774.516.74-2.389-.74-2.406Zm1.942.843.378 1.203h1.41l-1.788-1.203Zm2.957 1.564-3.593 2.39.74-2.39-.74-2.406 3.593 2.406Z" fill="#000" fill-opacity=".07"/></g><defs><clipPath id="a"><path fill="#fff" transform="translate(21.56 21)" d="M0 0h11v11H0z"/></clipPath></defs></svg>