<svg viewBox="0 0 24 25" fill="none" xmlns="http://www.w3.org/2000/svg">
<path d="M5.21211 22.0187L0.290234 13.4921C-0.0941406 12.8265 -0.0941406 12.0015 0.290234 11.3359L5.21211 2.80933C5.59648 2.1437 6.30898 1.7312 7.07773 1.7312H16.9215C17.6902 1.7312 18.4027 2.1437 18.7871 2.80933L23.709 11.3359C24.0934 12.0015 24.0934 12.8265 23.709 13.4921L18.7871 22.0187C18.4027 22.6843 17.6902 23.0968 16.9215 23.0968H7.07773C6.30898 23.0968 5.59648 22.6843 5.21211 22.0187Z" fill="url(#paint0_linear_2777_319502)"/>
<path opacity="0.07" d="M23.5127 14.4484L18.0096 8.94062L15.7033 8.38281L15.3471 8.74844L17.1236 10.525L17.1283 12.9578L13.4627 9.29688L10.5471 9.27344L8.67207 7.39844L6.65645 9.08594L5.98145 15.8781L13.4486 23.3406L18.2814 23.3359L23.5127 14.4484Z" fill="black"/>
<path d="M15.3379 7.3938V8.72505L16.8754 9.61099V15.2172L15.3379 16.1032V17.4344L18.0473 15.8688V8.95942L15.3379 7.3938Z" fill="white"/>
<path d="M10.5 11.0312L12 11.8984L13.5 11.0312V9.29688L12 8.42969L10.5 9.29688V11.0312Z" fill="white"/>
<path d="M12.4688 14.4062L13.9688 15.2734L15.4688 14.4062V12.6719L13.9688 11.8047L12.4688 12.6719V14.4062Z" fill="white"/>
<path d="M8.53125 14.4062L10.0312 15.2734L11.5312 14.4062V12.6719L10.0312 11.8047L8.53125 12.6719V14.4062Z" fill="white"/>
<path d="M8.6625 7.3938V8.72505L7.125 9.61099V15.2172L8.6625 16.1032V17.4344L5.95312 15.8688V8.95942L8.6625 7.3938Z" fill="white"/>
<defs>
<linearGradient id="paint0_linear_2777_319502" x1="11.9996" y1="1.73283" x2="11.9996" y2="23.0621" gradientUnits="userSpaceOnUse">
<stop stop-color="#4387FD"/>
<stop offset="1" stop-color="#4683EA"/>
</linearGradient>
</defs>
</svg>
