<svg viewBox="0 0 24 24" fill="none" xmlns="http://www.w3.org/2000/svg">
<path fill-rule="evenodd" clip-rule="evenodd" d="M0.290662 13.0782L5.21254 21.6048C5.59691 22.2704 6.30941 22.6829 7.07816 22.6829H16.9219C17.6907 22.6829 18.4032 22.2704 18.7875 21.6048L23.7094 13.0782C24.0938 12.4126 24.0938 11.5876 23.7094 10.9219L18.7875 2.39539C18.4032 1.72976 17.6907 1.31726 16.9219 1.31726H7.07816C6.30941 1.31726 5.59691 1.72976 5.21254 2.39539L0.290662 10.9219C-0.0937134 11.5876 -0.0937134 12.4126 0.290662 13.0782ZM8.6625 6.97961V8.31086L7.125 9.1968V14.8031L8.6625 15.689V17.0202L5.95312 15.4546V8.54524L8.6625 6.97961ZM15.3375 8.31086V6.97961L18.0469 8.54524V15.4546L15.3375 17.0202V15.689L16.875 14.8031V9.1968L15.3375 8.31086ZM12 11.4843L10.5 10.6171V8.88274L12 8.01555L13.5 8.88274V10.6171L12 11.4843ZM12.4688 13.9921L13.9688 14.8593L15.4688 13.9921V12.2577L13.9688 11.3906L12.4688 12.2577V13.9921ZM10.0312 14.8593L8.53125 13.9921V12.2577L10.0312 11.3906L11.5312 12.2577V13.9921L10.0312 14.8593Z" fill="#FAFCFF"/>
<path fill-rule="evenodd" clip-rule="evenodd" d="M23.2874 13.8092L18.0468 8.56411L18.0468 15.4546L15.3375 17.0202V15.689L16.875 14.8031L16.875 12.291L13.5 8.92028L13.5 10.6171L12 11.4843L10.5 10.6171V8.88274L10.5445 8.85702L8.67182 6.98438L8.66247 6.9922V8.31086L7.12497 9.1968V14.8031L8.66247 15.689V17.0202L5.99731 15.4802L13.2046 22.6829H16.9219C17.6906 22.6829 18.4031 22.2704 18.7875 21.6048L23.2874 13.8092ZM16.875 9.1968L15.3581 8.32277L15.3468 8.33438L16.875 9.86252L16.875 9.1968ZM13.9687 14.8593L12.4687 13.9921V12.2577L13.9687 11.3906L15.4687 12.2577V13.9921L13.9687 14.8593ZM8.53122 13.9921L10.0312 14.8593L11.5312 13.9921V12.2577L10.0312 11.3906L8.53122 12.2577V13.9921Z" fill="#D8E0ED"/>
</svg>
