<svg width="32" height="32" fill="none" xmlns="http://www.w3.org/2000/svg"><path fill-rule="evenodd" clip-rule="evenodd" d="M14.019 5.325a.5.5 0 1 0-.701-.713l-3.072 3.022a.5.5 0 0 0 0 .713l3.072 3.022a.5.5 0 1 0 .7-.713l-2.2-2.165H26.06a.5.5 0 0 1 .5.5v9.307a.5.5 0 1 0 1 0V8.99a1.5 1.5 0 0 0-1.5-1.5H11.818l2.2-2.166Zm-8.571 8.606a.5.5 0 1 0-1 0v11.96a1.5 1.5 0 0 0 1.5 1.5h12.681a.5.5 0 1 0 0-1H5.948a.5.5 0 0 1-.5-.5V13.93Zm6.511 4.574a4.5 4.5 0 1 1 9 0 4.5 4.5 0 0 1-9 0Zm4.5-5.5a5.5 5.5 0 1 0 0 11 5.5 5.5 0 0 0 0-11Zm0 2a.5.5 0 0 1 .5.5v2.793l1.555 1.555a.5.5 0 1 1-.707.707l-1.698-1.698a.499.499 0 0 1-.15-.357v-3a.5.5 0 0 1 .5-.5Z" fill="#0278D5"/><g clip-path="url(#a)"><path d="M24.231 21.55c-.344 0-.67.206-.842.498l-2.252 3.936a.995.995 0 0 0 0 .98l2.252 3.953c.172.31.498.516.842.516h4.52a1 1 0 0 0 .843-.516l2.251-3.936A.804.804 0 0 0 32 26.5c0-.172-.052-.344-.137-.498l-2.252-3.936a.969.969 0 0 0-.842-.499H24.23v-.017Z" fill="#4285F4"/><path d="m31.158 28.219-1.547 2.698a.985.985 0 0 1-.842.516H27.05l-2.527-2.527.74-2.389-.74-2.423.757.515 1.03 1.032-.48-1.547 3.575 2.406 1.753 1.719Z" fill="#000" fill-opacity=".07"/><path d="m24.523 24.11.757.517.601 1.925-.584 1.838-.774.516.74-2.389-.74-2.406Zm1.943.843.378 1.203h1.41l-1.788-1.203Zm2.956 1.564-3.592 2.39.739-2.39-.74-2.406 3.593 2.406Z" fill="#fff"/></g><defs><clipPath id="a"><path fill="#fff" transform="translate(21 21)" d="M0 0h11v11H0z"/></clipPath></defs></svg>