<svg viewBox="0 0 32 32" fill="none" xmlns="http://www.w3.org/2000/svg"><path fill-rule="evenodd" clip-rule="evenodd" d="M6.57 3.785a.5.5 0 0 1 .683-.183l4.812 2.778a.5.5 0 0 1-.5.866L6.753 4.468a.5.5 0 0 1-.183-.683ZM3.699 6.381a.5.5 0 0 0-.5.866l4.812 2.778a.5.5 0 0 0 .5-.866L3.699 6.38Zm13.595.51a.5.5 0 0 0-.501-.001l-7 4.04a.5.5 0 0 0-.25.434v7.784a.5.5 0 0 0 .248.432l7.33 4.265a.5.5 0 0 0 .501 0l7.032-4.07a.5.5 0 0 0 .25-.433v-7.749a.5.5 0 0 0-.25-.432l-7.36-4.27ZM10.542 18.86v-6.63l6.381 3.69-.045 6.626-6.335-3.686Zm7.336 3.682.045-6.62 5.98-3.462v6.594l-6.025 3.488Zm-.453-7.487 5.981-3.462L17.042 7.9l-6 3.463 6.383 3.69ZM3.7 12.425a.5.5 0 0 0-.5.866L8.01 16.07a.5.5 0 1 0 .5-.867l-4.812-2.778Z" fill="#fff"/><g clip-path="url(#a)"><path d="M24.231 21.55c-.344 0-.67.206-.842.498l-2.252 3.936a.995.995 0 0 0 0 .98l2.252 3.953c.172.31.498.516.842.516h4.52a1 1 0 0 0 .843-.516l2.251-3.936A.804.804 0 0 0 32 26.5c0-.172-.052-.344-.137-.498l-2.252-3.936a.969.969 0 0 0-.842-.499H24.23v-.017Z" fill="#fff"/><path d="m31.158 28.219-1.547 2.698a.985.985 0 0 1-.842.516H27.05l-2.527-2.527.74-2.389-.74-2.423.757.515 1.03 1.032-.48-1.547 3.575 2.406 1.753 1.719Z" fill="#D7DFED"/><path d="m24.523 24.11.757.517.601 1.925-.584 1.838-.774.516.74-2.389-.74-2.406Zm1.943.843.378 1.203h1.41l-1.788-1.203Zm2.956 1.564-3.592 2.39.739-2.39-.74-2.406 3.593 2.406Z" fill="#000" fill-opacity=".07"/></g><defs><clipPath id="a"><path fill="#fff" transform="translate(21 21)" d="M0 0h11v11H0z"/></clipPath></defs></svg>