<svg width="32" height="32" viewBox="0 0 32 32" fill="none" xmlns="http://www.w3.org/2000/svg">
<path d="M17.2929 12.7332L21.7026 16.0832M21.7026 16.0832L17.2929 19.4422M21.7026 16.0832H3.74707" stroke="white" stroke-linecap="round" stroke-linejoin="round"/>
<path d="M28.2525 19.3843L25.9575 9.32918C25.8898 9.03249 25.6906 8.78277 25.4164 8.65073L16.558 4.38473C16.2838 4.25269 15.9644 4.25269 15.6902 4.38473L6.83177 8.65073C6.55758 8.78277 6.35845 9.03249 6.29073 9.32918L5.94748 10.833L5.72228 11.8197M18.3856 27.8244H11.208C10.9037 27.8244 10.6159 27.6858 10.4262 27.4479L7.36109 23.6044L5.6784 21.4943L4.83705 20.4393L4.41638 19.9118" stroke="white" stroke-linecap="round"/>
<g clip-path="url(#clip0_3965_2180)">
<path d="M24.2312 21.55C23.8875 21.55 23.5609 21.7563 23.389 22.0485L21.1375 25.9844C20.9656 26.2938 20.9656 26.6547 21.1375 26.9641L23.389 30.9172C23.5609 31.2266 23.8875 31.4329 24.2312 31.4329H28.7515C29.1125 31.4157 29.4218 31.2266 29.5937 30.9172L31.8453 26.9813C31.9484 26.8438 32 26.6719 32 26.5C32 26.3282 31.9484 26.1563 31.8625 26.0016L29.6109 22.0657C29.439 21.7563 29.1125 21.5672 28.7687 21.5672H24.2312V21.55Z" fill="white"/>
<path d="M31.1578 28.2188L29.6109 30.9172C29.4391 31.2266 29.1125 31.4328 28.7688 31.4328H27.05L24.5234 28.9062L25.2625 26.5172L24.5234 24.0938L25.2797 24.6094L26.3109 25.6406L25.8297 24.0938L29.4047 26.5L31.1578 28.2188Z" fill="#D7DFED"/>
<path d="M24.5234 24.1108L25.2797 24.6265L25.8812 26.5515L25.2969 28.3905L24.5234 28.9062L25.2625 26.5171L24.5234 24.1108ZM26.4656 24.953L26.8438 26.1562H28.2531L26.4656 24.953ZM29.4219 26.5171L25.8297 28.9062L26.5688 26.5171L25.8297 24.1108L29.4219 26.5171Z" fill="black" fill-opacity="0.07"/>
</g>
<defs>
<clipPath id="clip0_3965_2180">
<rect width="11" height="11" fill="white" transform="translate(21 21)"/>
</clipPath>
</defs>
</svg>
