<svg width="33" height="32" viewBox="0 0 33 32" fill="none" xmlns="http://www.w3.org/2000/svg">
<g clip-path="url(#clip0_2920_319137)">
<path fill-rule="evenodd" clip-rule="evenodd" d="M0.415625 17.4376L6.97812 28.8063C7.49062 29.6938 8.44062 30.2438 9.46562 30.2438H22.5906C23.6156 30.2438 24.5656 29.6938 25.0781 28.8063L31.6406 17.4376C32.1531 16.5501 32.1531 15.4501 31.6406 14.5626L25.0781 3.19385C24.5656 2.30635 23.6156 1.75635 22.5906 1.75635H9.46562C8.44062 1.75635 7.49062 2.30635 6.97812 3.19385L0.415625 14.5626C-0.0968751 15.4501 -0.0968751 16.5501 0.415625 17.4376ZM11.5781 9.30615V11.0812L9.52808 12.2624V19.7374L11.5781 20.9187V22.6937L7.96558 20.6062V11.3937L11.5781 9.30615ZM20.4781 11.0812V9.30615L24.0906 11.3937V20.6062L20.4781 22.6937V20.9187L22.5281 19.7374V12.2624L20.4781 11.0812ZM16.0281 15.3124L14.0281 14.1562V11.8437L16.0281 10.6874L18.0281 11.8437V14.1562L16.0281 15.3124ZM16.6531 18.6562L18.6531 19.8124L20.6531 18.6562V16.3437L18.6531 15.1874L16.6531 16.3437V18.6562ZM13.4031 19.8124L11.4031 18.6562V16.3437L13.4031 15.1874L15.4031 16.3437V18.6562L13.4031 19.8124Z" fill="#4487FC"/>
<path fill-rule="evenodd" clip-rule="evenodd" d="M31.0779 18.4122L24.0904 11.4188L24.0905 20.6062L20.478 22.6937V20.9187L22.528 19.7374L22.5279 16.388L18.0279 11.8937L18.028 14.1562L16.028 15.3124L14.028 14.1562V11.8437L14.0873 11.8094L11.5904 9.3125L11.578 9.32294V11.0812L9.52795 12.2624V19.7374L11.578 20.9187V22.6937L8.02441 20.6402L17.6341 30.2438H22.5905C23.6155 30.2438 24.5655 29.6938 25.078 28.8063L31.0779 18.4122ZM22.528 12.2624L20.5055 11.097L20.4904 11.1125L22.5279 13.15L22.528 12.2624ZM18.653 19.8124L16.653 18.6562V16.3437L18.653 15.1874L20.653 16.3437V18.6562L18.653 19.8124ZM11.403 18.6562L13.403 19.8124L15.403 18.6562V16.3437L13.403 15.1874L11.403 16.3437V18.6562Z" fill="#417BDC"/>
</g>
<defs>
<clipPath id="clip0_2920_319137">
<rect width="32" height="32" fill="white" transform="translate(0.0280762)"/>
</clipPath>
</defs>
</svg>
