<svg width="24" height="25" viewBox="0 0 24 25" fill="none" xmlns="http://www.w3.org/2000/svg">
<path d="M23.7118 11.3087L18.7805 2.73239C18.5953 2.40327 18.3273 2.12835 18.0029 1.93493C17.6786 1.74152 17.3093 1.63635 16.9317 1.62988H7.06729C6.68976 1.63654 6.32053 1.74178 5.99623 1.93518C5.67193 2.12857 5.40383 2.4034 5.21852 2.73239L0.285363 11.2862C0.0983738 11.6127 0 11.9824 0 12.3587C0 12.735 0.0983738 13.1047 0.285363 13.4312L5.21665 22.0563C5.40026 22.3898 5.66697 22.6702 5.9909 22.8703C6.31483 23.0704 6.68497 23.1833 7.06541 23.1982H16.9299C17.3103 23.1851 17.6808 23.0735 18.0052 22.8744C18.3296 22.6752 18.5967 22.3953 18.7805 22.0619L23.7118 13.4856C23.9007 13.1539 24 12.7788 24 12.3972C24 12.0155 23.9007 11.6404 23.7118 11.3087V11.3087Z" fill="#4285F4"/>
<path opacity="0.07" d="M16.028 9.8894L9.24415 10.5138L7.93164 11.8263L9.05665 12.9513L7.93164 14.9051L16.2192 23.1926H16.9205C17.3009 23.1796 17.6714 23.068 17.9958 22.8688C18.3202 22.6697 18.5873 22.3897 18.7711 22.0564L22.208 16.0788L16.028 9.8894Z" fill="black"/>
<path d="M15.8794 9.83699H8.1093C8.04876 9.83546 7.99004 9.85781 7.94584 9.89921C7.90164 9.9406 7.87549 9.99773 7.87305 10.0582V11.6708C7.87305 11.7309 7.89695 11.7886 7.9395 11.8312C7.98205 11.8737 8.03975 11.8976 8.09992 11.8976H15.8794C15.9394 11.8971 15.9968 11.8731 16.0392 11.8306C16.0817 11.7882 16.1057 11.7308 16.1062 11.6708V10.0639C16.1062 10.0037 16.0823 9.94599 16.0398 9.90344C15.9972 9.86089 15.9395 9.83699 15.8794 9.83699ZM14.6775 11.337C14.5855 11.337 14.4956 11.3097 14.4191 11.2586C14.3427 11.2075 14.2831 11.1349 14.2479 11.0499C14.2127 10.965 14.2035 10.8715 14.2214 10.7813C14.2393 10.6911 14.2836 10.6082 14.3487 10.5432C14.4137 10.4782 14.4966 10.4339 14.5868 10.4159C14.677 10.398 14.7705 10.4072 14.8554 10.4424C14.9404 10.4776 15.013 10.5372 15.0641 10.6137C15.1152 10.6901 15.1425 10.78 15.1425 10.872C15.1425 10.9953 15.0935 11.1136 15.0063 11.2008C14.9191 11.288 14.8008 11.337 14.6775 11.337" fill="white"/>
<path d="M15.8794 12.9345H8.1093C8.04876 12.933 7.99004 12.9553 7.94584 12.9967C7.90164 13.0381 7.87549 13.0952 7.87305 13.1558V14.7776C7.8759 14.8362 7.90094 14.8915 7.94309 14.9322C7.98523 14.973 8.04131 14.9961 8.09992 14.997H15.8794C15.9394 14.9965 15.9968 14.9725 16.0392 14.93C16.0817 14.8876 16.1057 14.8302 16.1062 14.7701V13.1539C16.1062 13.0937 16.0823 13.036 16.0398 12.9935C15.9972 12.9509 15.9395 12.927 15.8794 12.927M14.6775 14.427C14.5855 14.427 14.4956 14.3997 14.4191 14.3486C14.3427 14.2976 14.2831 14.2249 14.2479 14.14C14.2127 14.055 14.2035 13.9615 14.2214 13.8713C14.2393 13.7811 14.2836 13.6982 14.3487 13.6332C14.4137 13.5682 14.4966 13.5239 14.5868 13.5059C14.677 13.488 14.7705 13.4972 14.8554 13.5324C14.9404 13.5676 15.013 13.6272 15.0641 13.7037C15.1152 13.7801 15.1425 13.87 15.1425 13.962C15.1425 14.0231 15.1304 14.0835 15.1071 14.14C15.0837 14.1964 15.0495 14.2476 15.0063 14.2908C14.9631 14.334 14.9118 14.3682 14.8554 14.3916C14.799 14.415 14.7385 14.427 14.6775 14.427V14.427Z" fill="white"/>
</svg>
