<svg width="24" height="24" viewBox="0 0 24 24" fill="none" xmlns="http://www.w3.org/2000/svg">
<path fill-rule="evenodd" clip-rule="evenodd" d="M18.7805 2.31833L23.7118 10.8946C23.9007 11.2263 24 11.6014 24 11.9831C24 12.3648 23.9007 12.7399 23.7118 13.0715L18.7805 21.6478C18.5967 21.9812 18.3296 22.2611 18.0052 22.4603C17.6808 22.6595 17.3103 22.771 16.9299 22.7841H7.06541C6.68497 22.7693 6.31483 22.6563 5.9909 22.4562C5.66697 22.2562 5.40026 21.9758 5.21665 21.6422L0.285363 13.0172C0.0983738 12.6906 0 12.3209 0 11.9446C0 11.5684 0.0983738 11.1987 0.285363 10.8721L5.21853 2.31833C5.40383 1.98934 5.67193 1.71451 5.99623 1.52111C6.32053 1.32772 6.68976 1.22247 7.06729 1.21582H16.9317C17.3093 1.22229 17.6786 1.32745 18.0029 1.52087C18.3273 1.71428 18.5953 1.98921 18.7805 2.31833ZM15.8795 9.42286H8.10942C8.04888 9.42134 7.99017 9.44369 7.94596 9.48508C7.90176 9.52648 7.87561 9.5836 7.87317 9.64412V11.2566C7.87317 11.3168 7.89707 11.3745 7.93962 11.4171C7.98217 11.4596 8.03987 11.4835 8.10005 11.4835H15.8795C15.9395 11.483 15.9969 11.459 16.0394 11.4165C16.0818 11.3741 16.1059 11.3166 16.1064 11.2566V9.64974C16.1064 9.58957 16.0825 9.53186 16.0399 9.48931C15.9974 9.44677 15.9397 9.42286 15.8795 9.42286ZM14.6776 10.9229C14.5856 10.9229 14.4957 10.8956 14.4193 10.8445C14.3428 10.7934 14.2832 10.7208 14.248 10.6358C14.2128 10.5509 14.2036 10.4574 14.2215 10.3672C14.2395 10.277 14.2838 10.1941 14.3488 10.1291C14.4138 10.064 14.4967 10.0197 14.5869 10.0018C14.6771 9.98386 14.7706 9.99307 14.8555 10.0283C14.9405 10.0635 15.0131 10.1231 15.0642 10.1995C15.1153 10.276 15.1426 10.3659 15.1426 10.4579C15.1426 10.5812 15.0936 10.6995 15.0064 10.7867C14.9192 10.8739 14.8009 10.9229 14.6776 10.9229ZM15.8795 12.5204H8.10942C8.04888 12.5189 7.99017 12.5412 7.94596 12.5826C7.90176 12.624 7.87561 12.6811 7.87317 12.7416V14.3635C7.87602 14.4221 7.90107 14.4773 7.94321 14.5181C7.98535 14.5588 8.04143 14.582 8.10005 14.5829H15.8795C15.9395 14.5824 15.9969 14.5583 16.0394 14.5159C16.0818 14.4735 16.1059 14.416 16.1064 14.356V12.7398C16.1064 12.6796 16.0825 12.6219 16.0399 12.5793C15.9974 12.5368 15.9397 12.5129 15.8795 12.5129V12.5204ZM14.6776 14.0129C14.5856 14.0129 14.4957 13.9856 14.4193 13.9345C14.3428 13.8834 14.2832 13.8108 14.248 13.7258C14.2128 13.6409 14.2036 13.5474 14.2215 13.4572C14.2395 13.367 14.2838 13.2841 14.3488 13.2191C14.4138 13.154 14.4967 13.1098 14.5869 13.0918C14.6771 13.0739 14.7706 13.0831 14.8555 13.1183C14.9405 13.1535 15.0131 13.2131 15.0642 13.2895C15.1153 13.366 15.1426 13.4559 15.1426 13.5479C15.1426 13.609 15.1306 13.6694 15.1072 13.7258C15.0838 13.7823 15.0496 13.8335 15.0064 13.8767C14.9632 13.9199 14.912 13.9541 14.8555 13.9775C14.7991 14.0009 14.7387 14.0129 14.6776 14.0129Z" fill="#F6FAFF"/>
<path fill-rule="evenodd" clip-rule="evenodd" d="M7.93348 11.4106L7.93188 11.4122L9.04003 12.5204H15.8795V12.5129C15.9397 12.5129 15.9974 12.5368 16.0399 12.5793C16.0825 12.6219 16.1064 12.6796 16.1064 12.7398V14.356C16.1059 14.416 16.0818 14.4735 16.0394 14.5159C15.997 14.5583 15.9395 14.5824 15.8795 14.5829H8.10008C8.06441 14.5824 8.02969 14.5736 7.99847 14.5576L16.2194 22.7786H16.9207C17.3011 22.7655 17.6717 22.6539 17.996 22.4548C18.3204 22.2556 18.5876 21.9757 18.7713 21.6423L22.2082 15.6648L16.0282 9.47534L16.025 9.47564C16.0301 9.47995 16.0351 9.48452 16.0399 9.48931C16.0825 9.53186 16.1064 9.58957 16.1064 9.64974V11.2566C16.1059 11.3166 16.0818 11.3741 16.0394 11.4165C15.997 11.459 15.9395 11.483 15.8795 11.4835H8.10008C8.0399 11.4835 7.9822 11.4596 7.93965 11.4171C7.93755 11.415 7.93549 11.4128 7.93348 11.4106ZM14.6776 10.9229C14.5857 10.9229 14.4958 10.8956 14.4193 10.8445C14.3428 10.7934 14.2832 10.7208 14.248 10.6358C14.2128 10.5509 14.2036 10.4574 14.2216 10.3672C14.2395 10.277 14.2838 10.1941 14.3488 10.1291C14.4138 10.064 14.4967 10.0197 14.5869 10.0018C14.6771 9.98386 14.7706 9.99307 14.8556 10.0283C14.9405 10.0635 15.0132 10.1231 15.0643 10.1995C15.1154 10.276 15.1426 10.3659 15.1426 10.4579C15.1426 10.5812 15.0936 10.6995 15.0064 10.7867C14.9192 10.8739 14.801 10.9229 14.6776 10.9229ZM14.6776 14.0129C14.5857 14.0129 14.4958 13.9856 14.4193 13.9345C14.3428 13.8834 14.2832 13.8108 14.248 13.7258C14.2128 13.6409 14.2036 13.5474 14.2216 13.4572C14.2395 13.367 14.2838 13.2841 14.3488 13.2191C14.4138 13.154 14.4967 13.1098 14.5869 13.0918C14.6771 13.0739 14.7706 13.0831 14.8556 13.1183C14.9405 13.1535 15.0132 13.2131 15.0643 13.2895C15.1154 13.366 15.1426 13.4559 15.1426 13.5479C15.1426 13.609 15.1306 13.6694 15.1072 13.7258C15.0839 13.7823 15.0496 13.8335 15.0064 13.8767C14.9633 13.9199 14.912 13.9541 14.8556 13.9775C14.7992 14.0009 14.7387 14.0129 14.6776 14.0129Z" fill="#D7DFED"/>
</svg>
