<svg viewBox="0 0 33 32" fill="none" xmlns="http://www.w3.org/2000/svg">
<g clip-path="url(#clip0_2920_319578)">
<path fill-rule="evenodd" clip-rule="evenodd" d="M25.0687 3.0911L31.6438 14.5262C31.8956 14.9684 32.0281 15.4685 32.0281 15.9775C32.0281 16.4864 31.8956 16.9865 31.6438 17.4287L25.0687 28.8638C24.8237 29.3083 24.4675 29.6815 24.035 29.9471C23.6025 30.2126 23.1085 30.3614 22.6012 30.3788H9.44863C8.94137 30.359 8.44785 30.2084 8.01594 29.9416C7.58404 29.6749 7.22843 29.301 6.98361 28.8563L0.40856 17.3562C0.159241 16.9209 0.0280762 16.4279 0.0280762 15.9262C0.0280762 15.4245 0.159241 14.9315 0.40856 14.4962L6.98611 3.0911C7.23318 2.65245 7.59065 2.28601 8.02305 2.02815C8.45545 1.77029 8.94775 1.62996 9.45113 1.62109H22.6037C23.1072 1.62971 23.5996 1.76994 24.032 2.02782C24.4644 2.28571 24.8219 2.65228 25.0687 3.0911ZM21.2007 12.5638H10.8406C10.7599 12.5618 10.6816 12.5916 10.6227 12.6468C10.5638 12.702 10.5289 12.7781 10.5256 12.8588V15.0088C10.5256 15.0891 10.5575 15.166 10.6142 15.2227C10.671 15.2795 10.7479 15.3113 10.8281 15.3113H21.2007C21.2807 15.3107 21.3573 15.2786 21.4139 15.222C21.4705 15.1654 21.5026 15.0889 21.5032 15.0088V12.8663C21.5032 12.7861 21.4713 12.7091 21.4146 12.6524C21.3579 12.5957 21.2809 12.5638 21.2007 12.5638ZM19.5982 14.5638C19.4756 14.5638 19.3557 14.5275 19.2537 14.4593C19.1518 14.3912 19.0723 14.2944 19.0254 14.1811C18.9785 14.0678 18.9662 13.9431 18.9901 13.8229C19.014 13.7026 19.0731 13.5921 19.1598 13.5054C19.2465 13.4187 19.357 13.3597 19.4772 13.3357C19.5975 13.3118 19.7222 13.3241 19.8355 13.371C19.9488 13.4179 20.0456 13.4974 20.1137 13.5994C20.1818 13.7013 20.2182 13.8212 20.2182 13.9438C20.2182 14.1083 20.1529 14.266 20.0366 14.3822C19.9203 14.4985 19.7626 14.5638 19.5982 14.5638ZM21.2007 16.6938H10.8406C10.7599 16.6918 10.6816 16.7216 10.6227 16.7768C10.5638 16.832 10.5289 16.9082 10.5256 16.9888V19.1514C10.5294 19.2294 10.5628 19.3031 10.619 19.3575C10.6752 19.4118 10.75 19.4427 10.8281 19.4439H21.2007C21.2807 19.4432 21.3573 19.4111 21.4139 19.3545C21.4705 19.2979 21.5026 19.2214 21.5032 19.1414V16.9863C21.5032 16.9061 21.4713 16.8292 21.4146 16.7724C21.3579 16.7157 21.2809 16.6838 21.2007 16.6838V16.6938ZM19.5982 18.6839C19.4756 18.6839 19.3557 18.6475 19.2537 18.5794C19.1518 18.5112 19.0723 18.4144 19.0254 18.3011C18.9785 18.1878 18.9662 18.0632 18.9901 17.9429C19.014 17.8226 19.0731 17.7121 19.1598 17.6254C19.2465 17.5387 19.357 17.4797 19.4772 17.4558C19.5975 17.4318 19.7222 17.4441 19.8355 17.491C19.9488 17.538 20.0456 17.6174 20.1137 17.7194C20.1818 17.8214 20.2182 17.9412 20.2182 18.0639C20.2182 18.1453 20.2022 18.2259 20.171 18.3011C20.1399 18.3763 20.0942 18.4447 20.0366 18.5023C19.979 18.5598 19.9107 18.6055 19.8355 18.6367C19.7602 18.6678 19.6796 18.6839 19.5982 18.6839Z" fill="#F6FAFF"/>
<path fill-rule="evenodd" clip-rule="evenodd" d="M10.6061 15.2142L10.604 15.2163L12.0815 16.6938H21.2008V16.6838C21.2811 16.6838 21.358 16.7157 21.4147 16.7724C21.4715 16.8292 21.5033 16.9061 21.5033 16.9863V19.1414C21.5027 19.2214 21.4706 19.2979 21.414 19.3545C21.3574 19.4111 21.2809 19.4432 21.2008 19.4439H10.8283C10.7807 19.4431 10.7344 19.4314 10.6928 19.4101L21.6541 30.3714H22.5891C23.0963 30.354 23.5904 30.2052 24.0229 29.9397C24.4554 29.6741 24.8116 29.3009 25.0566 28.8564L29.6391 20.8863L21.3991 12.6338L21.3948 12.6342C21.4017 12.6399 21.4083 12.646 21.4147 12.6524C21.4715 12.7091 21.5033 12.7861 21.5033 12.8663V15.0088C21.5027 15.0889 21.4706 15.1654 21.414 15.222C21.3574 15.2786 21.2809 15.3107 21.2008 15.3113H10.8283C10.748 15.3113 10.6711 15.2795 10.6144 15.2227C10.6116 15.2199 10.6088 15.2171 10.6061 15.2142ZM19.5983 14.5638C19.4757 14.5638 19.3558 14.5275 19.2539 14.4593C19.1519 14.3912 19.0724 14.2944 19.0255 14.1811C18.9786 14.0678 18.9663 13.9431 18.9902 13.8229C19.0142 13.7026 19.0732 13.5921 19.1599 13.5054C19.2466 13.4187 19.3571 13.3597 19.4774 13.3357C19.5976 13.3118 19.7223 13.3241 19.8356 13.371C19.9489 13.4179 20.0457 13.4974 20.1138 13.5994C20.182 13.7013 20.2183 13.8212 20.2183 13.9438C20.2183 14.1083 20.153 14.266 20.0367 14.3822C19.9205 14.4985 19.7628 14.5638 19.5983 14.5638ZM19.5983 18.6839C19.4757 18.6839 19.3558 18.6475 19.2539 18.5794C19.1519 18.5112 19.0724 18.4144 19.0255 18.3011C18.9786 18.1878 18.9663 18.0632 18.9902 17.9429C19.0142 17.8226 19.0732 17.7121 19.1599 17.6254C19.2466 17.5387 19.3571 17.4797 19.4774 17.4558C19.5976 17.4318 19.7223 17.4441 19.8356 17.491C19.9489 17.538 20.0457 17.6174 20.1138 17.7194C20.182 17.8214 20.2183 17.9412 20.2183 18.0638C20.2183 18.1453 20.2023 18.2259 20.1711 18.3011C20.14 18.3763 20.0943 18.4447 20.0367 18.5023C19.9792 18.5598 19.9108 18.6055 19.8356 18.6367C19.7604 18.6678 19.6797 18.6839 19.5983 18.6839Z" fill="#D7DFED"/>
</g>
<defs>
<clipPath id="clip0_2920_319578">
<rect width="32" height="32" fill="white" transform="translate(0.0280762)"/>
</clipPath>
</defs>
</svg>
