<svg viewBox="0 0 16 16" xmlns="http://www.w3.org/2000/svg"><path d="m2.68682 3.48795c-.096.128-.256.176-.4.16l-.752-.144c-.176-.032-.368.064-.432.24l-.176001.48-.176001.48c-.064.176.000001.384.176001.464l.656001.384c.128.08.208.224.208.384-.016.224 0 .448.016.672.016.16-.048.304-.176.4l-.624.432c-.160001.112-.208001.304-.128001.48l.208001.464.208.464c.08.176.272.256.448.208l.736-.192c.144-.048.304.016.416.128.144.16.32.32.496.464.128.096.176.256.16.4l-.144.75205c-.032.192.064.368.24.432l.48.176.48.176c.176.064.384 0 .464-.176l.384-.656c.08-.144.224-.208.384-.208.208.016.432 0 .64-.016.16-.016.304.048.4.176l.432.64c.112.16.304.208.48.128l.464-.208.464-.208c.176-.08.256-.272.208-.448l-.192-.72005c-.048-.16.016-.32.128-.416.16-.144.32-.32.464-.496.096-.128.256-.176.4-.16l.75198.144c.192.032.368-.064.432-.24l.176-.48.176-.48c.064-.176 0-.384-.176-.464l-.656-.368c-.144-.08-.208-.224-.208-.384.016-.224 0-.448-.016-.672-.016-.16.048-.304.176-.4l.64-.432c.16-.112.208-.304.128-.48l-.208-.464-.208-.464c-.08-.176-.272-.256-.448-.208l-.71998.208c-.16.048-.32 0-.416-.128-.144-.16-.304-.32-.48-.464-.128-.096-.176-.256-.16-.4l.144-.752c.032-.192-.064-.368-.24-.432l-.48-.176-.48-.175999c-.176-.064-.384.000001-.464.175999l-.368.64c-.08.144-.224.208-.384.208-.24-.016-.464 0-.704.016-.16.016-.304-.048-.4-.176l-.432-.624c-.112-.159999-.304-.207998-.48-.128l-.464.208-.464.208c-.176.08-.256.272-.208.448l.192.736c.048.144-.016.304-.128.416-.176.096-.32.272-.464.448zm1.2 1.872c.416-1.152 1.68-1.76 2.848-1.36 1.152.416 1.76 1.68 1.36 2.848s-1.68 1.76-2.848 1.36c-1.168-.416-1.776-1.696-1.36-2.848zm10.70398 4.81605c.064-.096.048-.22405-.016-.30405l-.208-.208-.208-.208c-.08-.08-.208-.096-.304-.032l-.368.256c-.08.048-.176.064-.256.016-.112-.064-.24-.112-.368-.16-.08-.032-.16-.112-.16-.192l-.08-.448c-.016-.112-.112-.192-.224-.192h-.304-.304c-.112 0-.208.08-.224.192l-.08.448c-.016.096-.08.176-.176.192-.128.032-.256.096-.368.144-.08.048-.176.032-.256-.016l-.368-.272c-.096-.064-.224-.048-.304.016l-.20798.208-.208.208c-.08.08-.096.20805-.032.30405l.256.368c.048.08.064.176.016.256-.064.128-.128.256-.16.384-.032.096-.096.16-.192.176l-.448.08c-.112.016-.192.112-.192.224v.304.304c0 .112.08.208.192.224l.448.08c.096.016.16.08.192.176.048.128.096.256.16.368.048.08.032.176-.016.256l-.272.368c-.064.096-.048.208.016.288l.208.208.208.208c.07998.08.20798.096.30398.032l.368-.256c.08-.048.176-.064.256-.016.128.064.24.112.368.16.096.032.16.096.176.192l.08.448c.016.112.112.192.224.192h.304.304c.112 0 .208-.08.224-.192l.08-.448c.016-.096.08-.16.176-.192.128-.048.256-.096.368-.16.08-.048.176-.032.256.016l.368.272c.096.064.224.048.304-.016l.208-.208.208-.208c.08-.08.096-.208.032-.304l-.256-.368c-.048-.08-.064-.176-.016-.256.064-.112.112-.24.144-.352.032-.096.112-.16.192-.176l.448-.08c.112-.016.192-.112.192-.224v-.304-.304c0-.112-.08-.208-.192-.224l-.448-.08c-.096-.016-.16-.08-.192-.176-.032-.128-.096-.256-.144-.368-.048-.08-.032-.176.016-.256zm-1.584 2.688c-.512.528-1.36.528-1.872.016-.528-.512-.528-1.36-.016-1.872s1.36-.528 1.872-.016.528 1.344.016 1.872z" fill="#30aaaf"/></svg>