<svg xmlns="http://www.w3.org/2000/svg" viewBox="0 0 24 24" fill="none" xmlns:v="https://vecta.io/nano"><path d="M11.904.001c-1.049 0-7.32.002-10.463 1.459C.677 1.808 0 2.415 0 3.255c0 .012.004.021.004.032v8.039c.102.141.202.323.282.456-.089.182-.161.286-.282.48L0 20.785c0 1.162 1.301 1.715 2.182 1.975 2.826 1.048 13.779 1.728 19.444 0 1.014-.317 2.182-.857 2.182-1.975v-8.518c-.106-.149-.203-.337-.285-.479.088-.166.164-.269.285-.453V3.266h-.001c.001-.935-.83-1.548-1.44-1.807C20.037.305 15.017.01 11.904.001zm0 2.07c3.162.258 6.534.058 9.34 1.185-2.849 1.003-6.59 1.179-9.34 1.188-3.162-.26-6.966-.144-9.339-1.188 2.302-.961 6.59-1.176 9.339-1.185zM2.072 5.316c2.594.944 6.842 1.188 9.832 1.198 1.551 0 7.157-.125 9.833-1.198v5.56c-.117.181-.25.346-.32.578-.924.268-2.24.509-3.867.679-3.48.363-7.801.363-11.281 0-1.632-.17-2.949-.412-3.872-.681-.069-.239-.204-.406-.324-.591V5.316zm.144 7.161c1.01.284 2.33.519 3.945.687 3.568.372 7.927.372 11.495 0 1.608-.168 2.925-.401 3.934-.683l.147.236v7.762c-.131.077-.368.191-.73.305-5.367 1.057-13.769 1.287-18.202 0-.363-.114-.602-.23-.733-.307v-7.768l.144-.232z" fill="currentColor"/></svg>