<svg width="33" height="33" viewBox="0 0 33 33" fill="none" xmlns="http://www.w3.org/2000/svg">
<path d="M11.0492 30.6034H10.5492C10.5492 30.7863 10.6491 30.9547 10.8096 31.0423C10.9702 31.1299 11.1658 31.1229 11.3196 31.024L11.0492 30.6034ZM12.8178 29.4661L13.0839 29.0427L12.8147 28.8736L12.5473 29.0455L12.8178 29.4661ZM14.6272 30.6034L14.3611 31.0267C14.5152 31.1236 14.7097 31.1291 14.869 31.0411C15.0283 30.953 15.1272 30.7854 15.1272 30.6034H14.6272ZM5.61426 7.81927H20.6952V6.81927H5.61426V7.81927ZM20.6952 7.81927V26.5741H21.6952V7.81927H20.6952ZM20.6952 26.5741H16.673V27.5741H20.6952V26.5741ZM5.61426 24.1118V7.81927H4.61426V24.1118H5.61426ZM7.69211 26.574C6.54534 26.574 5.61426 25.6426 5.61426 24.4918H4.61426C4.61426 26.1933 5.99146 27.574 7.69211 27.574V26.574ZM5.61426 24.4918C5.61426 23.341 6.54534 22.4096 7.69211 22.4096V21.4096C5.99146 21.4096 4.61426 22.7903 4.61426 24.4918H5.61426ZM7.69211 22.4096H21.1952V21.4096H7.69211V22.4096ZM7.69211 27.574H8.43599V26.574H7.69211V27.574ZM10.5492 25.9751V30.6034H11.5492V25.9751H10.5492ZM11.3196 31.024L13.0882 29.8866L12.5473 29.0455L10.7787 30.1829L11.3196 31.024ZM12.5517 29.8894L14.3611 31.0267L14.8933 30.1801L13.0839 29.0427L12.5517 29.8894ZM15.1272 30.6034V25.9751H14.1272V30.6034H15.1272ZM14.1272 24.9751H11.5492V25.9751H14.1272V24.9751ZM11.7149 4.10342H26.4486V3.10342H11.7149V4.10342ZM26.6143 4.27026V22.9199H27.6143V4.27026H26.6143ZM26.4486 23.0868H23.2851V24.0868H26.4486V23.0868ZM11.5492 7.24357V4.27026H10.5492V7.24357H11.5492ZM26.6143 22.9199C26.6143 23.0129 26.5393 23.0868 26.4486 23.0868V24.0868C27.0932 24.0868 27.6143 23.5636 27.6143 22.9199H26.6143ZM26.4486 4.10342C26.5393 4.10342 26.6143 4.17732 26.6143 4.27026H27.6143C27.6143 3.62663 27.0932 3.10342 26.4486 3.10342V4.10342ZM11.7149 3.10342C11.0703 3.10342 10.5492 3.62663 10.5492 4.27026H11.5492C11.5492 4.17732 11.6242 4.10342 11.7149 4.10342V3.10342ZM15.1272 25.9751C15.1272 25.4229 14.6795 24.9751 14.1272 24.9751V25.9751L14.1272 25.9751H15.1272ZM20.6952 26.5741L20.6952 26.5741V27.5741C21.2475 27.5741 21.6952 27.1264 21.6952 26.5741H20.6952ZM20.6952 7.81927L20.6952 7.81927H21.6952C21.6952 7.26699 21.2475 6.81927 20.6952 6.81927V7.81927ZM11.5492 25.9751L11.5492 25.9751V24.9751C10.9969 24.9751 10.5492 25.4229 10.5492 25.9751H11.5492ZM5.61426 6.81927C5.06197 6.81927 4.61426 7.26699 4.61426 7.81927H5.61426L5.61426 7.81927V6.81927Z" fill="#FFFFFF"/>
</svg>
