<svg viewBox="0 0 40 41" xmlns="http://www.w3.org/2000/svg"><path clip-rule="evenodd" d="m13.1687 5.04497c0-.73578.5991-1.32736 1.3321-1.32736h18.4171c.733 0 1.3321.59158 1.3321 1.32736v23.13943c0 .7358-.5991 1.3274-1.3321 1.3274h-3.9543v-1h3.9543c.1861 0 .3321-.1493.3321-.3274v-23.13943c0-.1781-.146-.32736-.3321-.32736h-18.4171c-.1861 0-.3321.14926-.3321.32736v3.28304h11.6825c.5523 0 1 .44771 1 1v23.51069c0 .5523-.4477 1-1 1h-5.1528v-1h5.1528v-5.4079h-16.37888c-1.50621 0-2.72232 1.2132-2.72232 2.7039 0 1.4906 1.21611 2.7038 2.72232 2.7038h.92988v1h-.92988c-2.05307 0-3.72232-1.6555-3.72232-3.7038 0-.1598.01016-.3172.02986-.4716h-.02986v-20.33509c0-.55229.44772-1 1-1h6.4187zm-6.4187 22.56363c.67989-.725 1.64861-1.1778 2.72232-1.1778h16.37888v-17.10279h-19.1012zm6.4187 4.2461c0-.5522.4477-1 1-1h3.4725c.5523 0 1 .4478 1 1v5.8629c0 .1817-.0986.3491-.2574.4372-.1589.0882-.3531.0832-.5073-.013l-1.994-1.2441-1.9448 1.2414c-.154.0982-.3492.1047-.5093.017-.1602-.0878-.2597-.2559-.2597-.4385zm4.4725 0h-3.4725v4.9506l1.7077-1.0901 1.7648 1.1011z" fill="#4f5162" fill-rule="evenodd"/></svg>