<svg xmlns="http://www.w3.org/2000/svg" viewBox="0 0 24 24"><path fill="currentColor" fill-rule="evenodd" d="M4.909 14.095a7.983 7.983 0 0 1-.072-.288l-.003-.011a1.023 1.023 0 0 0-.992-.799H2.627v-2h1.215c.491 0 .889-.35.992-.798v-.004h.003a7.946 7.946 0 0 1 1.01-2.438l.003-.005a1.02 1.02 0 0 0-.135-1.264l-.86-.859 1.417-1.414.86.858c.346.347.875.38 1.266.136a7.97 7.97 0 0 1 2.446-1.011v-.002a1.02 1.02 0 0 0 .774-.984V2h2.003v1.213c0 .49.35.887.8.99a7.961 7.961 0 0 1 2.432 1.005c.39.245.92.212 1.267-.135l.86-.858 1.416 1.414-.86.858a1.02 1.02 0 0 0-.135 1.265l.005.008-.004.003a7.946 7.946 0 0 1 1.011 2.43l.003.012c.104.449.5.799.992.799h1.215v2h-1.215c-.491 0-.889.35-.992.798v.004h-.003a7.947 7.947 0 0 1-1.01 2.438l-.003.005a1.02 1.02 0 0 0 .135 1.264l.86.859-1.417 1.414-.86-.858a1.024 1.024 0 0 0-1.266-.136 7.971 7.971 0 0 1-2.446 1.011v.002a1.021 1.021 0 0 0-.774.984V22H11.63v-1.213c0-.49-.35-.887-.8-.99a7.958 7.958 0 0 1-2.432-1.005 1.024 1.024 0 0 0-1.267.135l-.86.858-1.416-1.414.86-.858a1.02 1.02 0 0 0 .135-1.265l-.005-.008.004-.003a7.948 7.948 0 0 1-.94-2.143Zm9.716-10.88a.032.032 0 0 0 .007.007 8.989 8.989 0 0 1 2.763 1.143.033.033 0 0 0 .012 0h.004l.86-.858a1.003 1.003 0 0 1 1.416 0l1.417 1.414a.999.999 0 0 1 0 1.414l-.86.859v.004c-.001.005 0 .014.005.022a8.936 8.936 0 0 1 1.143 2.76c.003.01.008.017.012.02a.013.013 0 0 0 .004.003h1.215a1 1 0 0 1 1.002 1v2a1 1 0 0 1-1.002 1h-1.215l-.004.002a.037.037 0 0 0-.012.02 8.939 8.939 0 0 1-1.143 2.754.036.036 0 0 0-.006.022v.004l.86.858a.999.999 0 0 1 0 1.415l-1.416 1.414c-.392.39-1.026.39-1.417 0l-.86-.858a8.974 8.974 0 0 1-2.754 1.138.037.037 0 0 0-.02.012l-.002.002v1.215a1 1 0 0 1-1.002 1H11.63a1 1 0 0 1-1.002-1v-1.215l-.002-.002a.03.03 0 0 0-.007-.006 8.991 8.991 0 0 1-2.763-1.143.034.034 0 0 0-.012-.001h-.004l-.86.86c-.391.39-1.025.39-1.416 0l-1.417-1.415a.999.999 0 0 1 0-1.414l.86-.859v-.004c.001-.005 0-.014-.005-.022a8.94 8.94 0 0 1-1.143-2.76.037.037 0 0 0-.012-.02l-.004-.003H2.627a1 1 0 0 1-1.002-1v-2a1 1 0 0 1 1.002-1h1.217l.002-.002a.037.037 0 0 0 .012-.02A8.939 8.939 0 0 1 5 7.22a.037.037 0 0 0 .006-.022v-.004l-.86-.859a.999.999 0 0 1 0-1.414l1.416-1.414a1.003 1.003 0 0 1 1.417 0l.86.858a8.973 8.973 0 0 1 2.754-1.138.037.037 0 0 0 .02-.012l.002-.002V1.999a1 1 0 0 1 1.002-1h2.003a1 1 0 0 1 1.002 1v1.213l.002.004Zm-2 3.285A5.47 5.47 0 0 0 7.58 9.871a.496.496 0 0 1-.65.268.501.501 0 0 1-.266-.655C7.641 7.144 9.942 5.5 12.625 5.5c2.683 0 4.984 1.644 5.961 3.984a.501.501 0 0 1-.266.655.496.496 0 0 1-.65-.268A5.47 5.47 0 0 0 12.625 6.5ZM6.93 13.861a.496.496 0 0 1 .65.268 5.47 5.47 0 0 0 5.045 3.371 5.47 5.47 0 0 0 5.045-3.371.496.496 0 0 1 .65-.268c.253.107.372.4.266.655-.977 2.34-3.278 3.984-5.961 3.984-2.683 0-4.984-1.644-5.961-3.984a.501.501 0 0 1 .266-.655Zm6.273-4.723a.5.5 0 0 1 .392.586l-.923 4.744a.497.497 0 1 1-.976-.192l.923-4.744a.497.497 0 0 1 .584-.394Zm-3.068.73a.495.495 0 0 1 .68.18.502.502 0 0 1-.178.684l-2.163 1.272 2.162 1.263a.502.502 0 0 1 .18.684.495.495 0 0 1-.68.181l-2.161-1.263a1.003 1.003 0 0 1-.003-1.728l2.163-1.272Zm4.34.18a.495.495 0 0 1 .68-.18l2.164 1.273a1.003 1.003 0 0 1-.003 1.728l-2.162 1.263a.495.495 0 0 1-.68-.181.502.502 0 0 1 .181-.684l2.162-1.263-2.163-1.272a.502.502 0 0 1-.178-.684Z" clip-rule="evenodd"/></svg>