<svg fill="none" viewBox="0 0 13 16" xmlns="http://www.w3.org/2000/svg"><path d="m3.485 11.947v-.5a.5.5 0 0 0 -.5.5zm0 2.563h-.5a.5.5 0 0 0 .77.421l-.27-.42zm.885-.568.266-.424-.269-.168-.267.171.27.42zm.906.568-.265.424a.5.5 0 0 0 .765-.424zm0-2.563h.5a.5.5 0 0 0 -.5-.5zm-2.291 0v2.563h1v-2.563zm.77 2.984.885-.568-.54-.842-.885.569zm.35-.566.905.569.532-.847-.906-.569-.532.847zm1.671.145v-2.563h-1v2.563zm-.5-3.063h-1.791v1h1.791z" fill="#4f5162"/><g stroke="#4f5162"><path d="m.513 11.265v-7.894a.5.5 0 0 1 .5-.5h7.052a.5.5 0 0 1 .5.5v8.875a.5.5 0 0 1 -.5.5h-1.764"/><path d="m8.248 10.165h-6.444a1.29 1.29 0 1 0 0 2.581h.372m1.309-10.142v-1.09a.5.5 0 0 1 .5-.5h7.044a.5.5 0 0 1 .5.5v8.989a.5.5 0 0 1 -.5.5h-1.419"/></g></svg>