<svg width="24" height="24" viewBox="0 0 24 24" fill="none" xmlns="http://www.w3.org/2000/svg">
<g clip-path="url(#clip0_2894_319019)">
<path d="M8.22693 22.5155H7.72693C7.72693 22.6984 7.82674 22.8667 7.98721 22.9543C8.14767 23.042 8.34319 23.0351 8.49706 22.9363L8.22693 22.5155ZM9.55532 21.6627L9.82108 21.2392L9.55226 21.0705L9.2852 21.242L9.55532 21.6627ZM10.9144 22.5155L10.6486 22.9391C10.8027 23.0358 10.9971 23.0411 11.1563 22.9531C11.3155 22.865 11.4144 22.6975 11.4144 22.5155H10.9144ZM4.26929 5.55676H15.3475V4.55676H4.26929V5.55676ZM15.3475 5.55676V19.3692H16.3475V5.55676H15.3475ZM15.3475 19.3692H12.4509V20.3692H15.3475V19.3692ZM4.26929 17.648V5.55676H3.26929V17.648H4.26929ZM5.70548 19.3692C4.91229 19.3692 4.26929 18.7261 4.26929 17.933H3.26929C3.26929 19.2784 4.36001 20.3692 5.70548 20.3692V19.3692ZM4.26929 17.933C4.26929 17.1398 4.91229 16.4968 5.70548 16.4968V15.4968C4.36001 15.4968 3.26929 16.5875 3.26929 17.933H4.26929ZM5.70548 16.4968H15.8475V15.4968H5.70548V16.4968ZM5.70548 20.3692H6.2642V19.3692H5.70548V20.3692ZM7.72693 19.1703V22.5155H8.72693V19.1703H7.72693ZM8.49706 22.9363L9.82544 22.0835L9.2852 21.242L7.95681 22.0948L8.49706 22.9363ZM9.28955 22.0862L10.6486 22.9391L11.1801 22.092L9.82108 21.2392L9.28955 22.0862ZM11.4144 22.5155V19.1703H10.4144V22.5155H11.4144ZM10.4144 18.1703H8.72693V19.1703H10.4144V18.1703ZM8.72695 2.77057H19.7932V1.77057H8.72695V2.77057ZM19.7932 2.77057V16.7544H20.7932V2.77057H19.7932ZM19.7932 16.7544H17.4172V17.7544H19.7932V16.7544ZM8.72695 5V2.77057H7.72695V5H8.72695ZM19.7932 16.7544V17.7544C20.3455 17.7544 20.7932 17.3066 20.7932 16.7544H19.7932ZM19.7932 2.77057H20.7932C20.7932 2.21828 20.3455 1.77057 19.7932 1.77057V2.77057ZM8.72695 1.77057C8.17466 1.77057 7.72695 2.21828 7.72695 2.77057H8.72695V2.77057V1.77057ZM11.4144 19.1703C11.4144 18.618 10.9666 18.1703 10.4144 18.1703V19.1703L10.4144 19.1703H11.4144ZM15.3475 19.3692L15.3475 19.3692V20.3692C15.8998 20.3692 16.3475 19.9215 16.3475 19.3692H15.3475ZM15.3475 5.55676L15.3475 5.55676H16.3475C16.3475 5.00448 15.8998 4.55676 15.3475 4.55676V5.55676ZM8.72693 19.1703L8.72693 19.1703V18.1703C8.17465 18.1703 7.72693 18.618 7.72693 19.1703H8.72693ZM4.26929 4.55676C3.717 4.55676 3.26929 5.00448 3.26929 5.55676H4.26929L4.26929 5.55676V4.55676Z" fill="#4F5162"/>
</g>
<defs>
<clipPath id="clip0_2894_319019">
<rect width="24" height="24" fill="white"/>
</clipPath>
</defs>
</svg>
