<svg xmlns="http://www.w3.org/2000/svg" fill="none" viewBox="0 0 24 24"><path fill="#FC6D26" fill-rule="evenodd" d="m21.963 13.437-1.12-3.74-2.217-7.411a.373.373 0 0 0-.725 0l-2.218 7.411H8.318L6.1 2.286a.373.373 0 0 0-.725 0L3.157 9.697l-1.12 3.74a.895.895 0 0 0 0 .511c.05.166.147.311.278.414L12 22.002l9.686-7.64a.827.827 0 0 0 .277-.414.896.896 0 0 0 0-.511Z" clip-rule="evenodd"/><path fill="#E24329" fill-rule="evenodd" d="m12 22.002 3.682-12.305H8.317L12 22.002Z" clip-rule="evenodd"/><path fill="#FC6D26" fill-rule="evenodd" d="M12 22.002 8.318 9.697H3.157L12 22.002Z" clip-rule="evenodd"/><path fill="#FCA326" fill-rule="evenodd" d="m3.156 9.696-1.119 3.74a.895.895 0 0 0 0 .511c.05.166.147.311.277.414L12 22.001 3.156 9.696Z" clip-rule="evenodd"/><path fill="#E24329" fill-rule="evenodd" d="M3.157 9.697h5.16L6.1 2.287a.373.373 0 0 0-.725 0l-2.218 7.41Z" clip-rule="evenodd"/><path fill="#FC6D26" fill-rule="evenodd" d="m12 22.002 3.682-12.305h5.161L12 22.002Z" clip-rule="evenodd"/><path fill="#FCA326" fill-rule="evenodd" d="m20.843 9.697 1.12 3.74c.05.166.05.345 0 .511a.828.828 0 0 1-.278.414L12 22.002l8.843-12.305Z" clip-rule="evenodd"/><path fill="#E24329" fill-rule="evenodd" d="M20.843 9.697h-5.16l2.217-7.41a.373.373 0 0 1 .725 0l2.218 7.41Z" clip-rule="evenodd"/></svg>