<svg xmlns="http://www.w3.org/2000/svg" viewBox="0 0 60 54" width="60" height="54">
  <path d="M23.074219 3.539062c-.464844.300782-.929688.796876-1.039063 1.097657-.164062.550781-.355468.578125-4.816406.578125h-4.628906v43.351562h4.328125c5.035156 0 5.527343-.082031 5.527343-.988281 0-.738281-.464843-.875-.710937-.246094-.136719.328125-.875.410157-4.242187.410157h-4.050782V6.035156h4.242188c3.667968 0 4.214844.054688 4.214844.441406 0 .820313 1.53125 2.03125 2.546874 2.03125 1.121094 0 2.652344-1.125 2.652344-1.949218 0-.496094.328125-.523438 9.855469-.523438h9.851563v41.707032h-9.714844c-8.457032 0-9.71875.054687-9.71875.414062 0 .355469 1.316406.410156 10.128906.410156h10.128906v-2.824218c.027344-3.707032.027344-34.738282 0-38.003907V5.214844H37.390625c-10.128906 0-10.265625 0-10.429687-.578125-.21875-.65625-1.667969-1.617188-2.460938-1.617188-.304688 0-.933594.246094-1.425781.519531Zm2.847656.90625c1.3125 1.234376.4375 3.347657-1.421875 3.347657-.742188 0-1.179688-.164063-1.535156-.632813-1.613282-2 1.09375-4.472656 2.957031-2.714844Zm0 0" style="stroke:none;fill-rule:nonzero;fill:#000;fill-opacity:1"/>
  <path d="M24.25 10.070312c-.082031.082032-.164062 5.101563-.164062 11.113282 0 9.519531.054687 10.921875.414062 10.921875.355469 0 .410156-1.402344.410156-10.949219 0-6.039062-.109375-11.03125-.246094-11.113281-.109374-.082031-.304687-.082031-.414062.027343Zm3.011719.054688c-.246094.382812 5.3125 11.605469 5.695312 11.46875.4375-.164062.410157-.246094-2.410156-6.0625-2.464844-5.105469-2.957031-5.953125-3.285156-5.40625Zm7.171875 14.707031c-.820313.464844-1.449219 2.003907-1.175782 2.9375.519532 1.699219 2.410157 2.550781 3.914063 1.753907 1.039063-.546876 1.421875-1.207032 1.421875-2.496094 0-2.058594-2.242188-3.238282-4.160156-2.195313Zm2.820312.933594c.929688.960937.984375 1.617187.21875 2.605469-.410156.523437-.820312.714844-1.503906.714844-2.792969 0-2.683594-3.925782.109375-4.089844.21875-.027344.738281.332031 1.175781.769531ZM33.121094 33.75c0 .300781.191406.546875.410156.546875.21875 0 .410156-.246094.410156-.546875 0-.300781-.191406-.546875-.410156-.546875-.21875 0-.410156.246094-.410156.546875Zm2.738281 0c0 .300781.191406.546875.410156.546875.21875 0 .410157-.246094.410157-.546875 0-.300781-.191407-.546875-.410157-.546875s-.410156.246094-.410156.546875Zm-1.371094 1.644531c0 .304688.191407.550781.410157.550781s.410156-.246093.410156-.550781c0-.300781-.191406-.546875-.410156-.546875-.21875 0-.410157.246094-.410157.546875Zm2.738281 0c0 .304688.191407.550781.410157.550781s.410156-.246093.410156-.550781c0-.300781-.191406-.546875-.410156-.546875-.21875 0-.410157.246094-.410157.546875Zm-14.480468.441407c-.683594.574218-.847656.90625-.847656 1.808593 0 1.457031.382812 2.113281 1.558593 2.582031.738281.328126 1.152344.355469 1.890625.109376 1.203125-.414063 1.75-1.234376 1.75-2.632813 0-2.363281-2.515625-3.433594-4.351562-1.867187Zm3.121094.519531c.410156.386719.683593.988281.683593 1.402343 0 1.011719-.984375 2.027344-1.96875 2.027344-.988281 0-2.136719-1.097656-2.136719-2.054687 0-.90625 1.148438-2.058594 2.054688-2.058594.382812 0 1.011719.300781 1.367188.683594Zm7.445312.027343c-.300781.304688-.21875 1.207032.082031 1.207032.410157 0 .65625-.820313.355469-1.125-.136719-.136719-.328125-.164063-.4375-.082032Zm2.710938.027344c-.328126.332032-.164063 1.179688.246093 1.179688.21875 0 .410157-.246094.410157-.519532 0-.578124-.355469-.933593-.65625-.660156ZM34.597656 38.25c-.109375.273438-.054687.605469.109375.769531.21875.21875.355469.191407.492188-.164062.109375-.277344.054687-.605469-.109375-.769531-.21875-.21875-.355469-.191407-.492188.164062Zm2.738282 0c-.164063.464844.054687.988281.464843.988281.328125 0 .328125-1.015625-.027343-1.234375-.164063-.082031-.355469.027344-.4375.246094Zm-4.160157 1.839844c.027344.355468.21875.628906.355469.574218.410156-.082031.328125-.960937-.082031-1.097656-.246094-.082031-.355469.082032-.273438.523438Zm2.792969-.195313c-.109375.277344-.054688.605469.109375.769531.21875.21875.355469.191407.492187-.164062.109376-.273438.054688-.605469-.109374-.769531-.21875-.21875-.355469-.191407-.492188.164062Zm-1.480469 1.785157c0 .328124.164063.578124.4375.578124.246094 0 .382813-.195312.328125-.46875-.136718-.683593-.765625-.769531-.765625-.109374Zm2.847657-.109376c-.191407.464844.109374 1.015626.464843.824219.328125-.222656.328125-1.234375-.027343-1.234375-.164063 0-.355469.191406-.4375.410156ZM21.625 44.453125c0 .300781.191406.546875.410156.546875.21875 0 .410156-.246094.410156-.546875 0-.304687-.191406-.550781-.410156-.550781-.21875 0-.410156.246094-.410156.550781Zm2.734375 0c0 .300781.195313.546875.414063.546875.21875 0 .410156-.246094.410156-.546875 0-.304687-.191406-.550781-.410156-.550781-.21875 0-.414063.246094-.414063.550781Zm-1.257813 1.207031c-.164062.464844.054688.984375.464844.984375.328125 0 .328125-1.011719-.027344-1.234375-.164062-.082031-.355468.027344-.4375.25Zm2.738282.027344c-.082032.21875-.082032.519531.027344.683594.300781.496094.683593.300781.683593-.410156 0-.742188-.464843-.933594-.710937-.273438Zm-1.367188 1.644531c-.082031.21875-.082031.523438.027344.6875.300781.492188.683594.300781.683594-.414062 0-.738281-.464844-.933594-.710938-.273438Zm-1.371094 1.648438c-.191406.464843.109376 1.011719.464844.820312.328125-.21875.328125-1.234375-.027344-1.234375-.164062 0-.355468.191406-.4375.414063Zm2.738282 0c-.082032.21875-.082032.519531.027344.683593.300781.496094.683593.300782.683593-.410156 0-.742187-.464843-.933594-.710937-.273437ZM21.625 50.761719c0 .300781.191406.550781.410156.550781.21875 0 .410156-.25.410156-.550781 0-.300781-.191406-.546875-.410156-.546875-.21875 0-.410156.246094-.410156.546875Zm2.929688-.355469c-.359376.328125-.195313.90625.21875.90625.21875 0 .410156-.25.410156-.550781 0-.546875-.300782-.714844-.628906-.355469Zm-1.5625 2.003906c0 .300782.191406.546875.410156.546875.21875 0 .410156-.246093.410156-.546875 0-.304687-.191406-.550781-.410156-.550781-.21875 0-.410156.246094-.410156.550781Zm2.929687-.359375c-.355469.332031-.191406.90625.21875.90625.21875 0 .410156-.246093.410156-.546875 0-.550781-.300781-.714844-.628906-.359375Zm0 0" style="stroke:none;fill-rule:nonzero;fill:#000;fill-opacity:1"/>
</svg>
