<svg width="320" height="200" viewBox="0 0 320 200" fill="none" xmlns="http://www.w3.org/2000/svg">
    <g clip-path="url(#clip0_81_21037)">
    <path d="M190.521 161.561C191.021 180.907 153.787 197.565 107.356 198.766C60.9242 199.968 22.8782 185.258 22.3776 165.912C21.877 146.565 59.1113 129.908 105.543 128.706C151.974 127.505 190.02 142.214 190.521 161.561Z" fill="url(#paint0_radial_81_21037)" fill-opacity="0.15"/>
    <path fill-rule="evenodd" clip-rule="evenodd" d="M96.0465 42.0899C96.3224 42.0768 96.5566 42.2898 96.5698 42.5656L96.9182 49.8826C96.9313 50.1585 96.7184 50.3927 96.4425 50.4059C96.1667 50.419 95.9325 50.206 95.9193 49.9302L95.5709 42.6131C95.5578 42.3373 95.7707 42.1031 96.0465 42.0899Z" fill="black"/>
    <path fill-rule="evenodd" clip-rule="evenodd" d="M96.7119 54.9845C96.9864 54.9541 97.2336 55.1518 97.2641 55.4263L97.9609 61.698C97.9914 61.9725 97.7937 62.2197 97.5192 62.2502C97.2448 62.2807 96.9976 62.0829 96.9671 61.8085L96.2702 55.5367C96.2397 55.2623 96.4375 55.015 96.7119 54.9845Z" fill="black"/>
    <path fill-rule="evenodd" clip-rule="evenodd" d="M97.8125 68.5703C98.0886 68.5703 98.3125 68.7942 98.3125 69.0703V76.3874C98.3125 76.6635 98.0886 76.8874 97.8125 76.8874C97.5364 76.8874 97.3125 76.6635 97.3125 76.3874V69.0703C97.3125 68.7942 97.5364 68.5703 97.8125 68.5703Z" fill="black"/>
    <path fill-rule="evenodd" clip-rule="evenodd" d="M97.8125 82.856C98.0886 82.856 98.3125 83.0798 98.3125 83.356V91.0215C98.3125 91.2976 98.0886 91.5215 97.8125 91.5215C97.5364 91.5215 97.3125 91.2976 97.3125 91.0215V83.356C97.3125 83.0798 97.5364 82.856 97.8125 82.856Z" fill="black"/>
    <path fill-rule="evenodd" clip-rule="evenodd" d="M98.1073 96.0996C98.3819 96.0701 98.6283 96.2688 98.6578 96.5433C98.9458 99.2255 99.1647 101.892 99.3563 104.575C99.376 104.85 99.1686 105.09 98.8932 105.109C98.6177 105.129 98.3785 104.922 98.3588 104.646C98.1677 101.97 97.9498 99.3162 97.6635 96.6501C97.6341 96.3755 97.8327 96.1291 98.1073 96.0996Z" fill="black"/>
    <path fill-rule="evenodd" clip-rule="evenodd" d="M107.917 58.4658C108.193 58.4658 108.417 58.6897 108.417 58.9658V67.6766C108.417 67.9528 108.193 68.1766 107.917 68.1766C107.641 68.1766 107.417 67.9528 107.417 67.6766V58.9658C107.417 58.6897 107.641 58.4658 107.917 58.4658Z" fill="black"/>
    <path fill-rule="evenodd" clip-rule="evenodd" d="M108.243 75.8877C108.519 75.8757 108.753 76.0896 108.765 76.3655L109.113 84.3794C109.125 84.6553 108.911 84.8887 108.635 84.9007C108.359 84.9127 108.126 84.6987 108.114 84.4229L107.766 76.4089C107.754 76.1331 107.968 75.8997 108.243 75.8877Z" fill="black"/>
    <path fill-rule="evenodd" clip-rule="evenodd" d="M108.962 90.1733C109.238 90.1733 109.462 90.3972 109.462 90.6733V101.126C109.462 101.402 109.238 101.626 108.962 101.626C108.686 101.626 108.462 101.402 108.462 101.126V90.6733C108.462 90.3972 108.686 90.1733 108.962 90.1733Z" fill="black"/>
    <path fill-rule="evenodd" clip-rule="evenodd" d="M119.746 62.9959C120.022 62.9864 120.254 63.2024 120.263 63.4784C120.338 65.6366 120.518 67.785 120.699 69.9454C120.79 71.0317 120.881 72.121 120.959 73.2161C120.979 73.4915 120.772 73.7308 120.496 73.7504C120.221 73.7701 119.981 73.5628 119.962 73.2873C119.885 72.2187 119.795 71.1427 119.705 70.0626C119.523 67.8869 119.339 65.6945 119.264 63.5128C119.254 63.2369 119.47 63.0054 119.746 62.9959Z" fill="black"/>
    <path fill-rule="evenodd" clip-rule="evenodd" d="M120.071 79.0252C120.346 79.0025 120.587 79.2072 120.61 79.4824C120.832 82.1681 120.96 84.8387 120.96 87.5374C120.96 87.8135 120.736 88.0374 120.46 88.0374C120.184 88.0374 119.96 87.8135 119.96 87.5374C119.96 84.8705 119.833 82.2278 119.614 79.5646C119.591 79.2894 119.796 79.0479 120.071 79.0252Z" fill="black"/>
    <path fill-rule="evenodd" clip-rule="evenodd" d="M119.741 95.0518C120.017 95.0392 120.251 95.2526 120.263 95.5284C120.304 96.4181 120.334 97.3045 120.363 98.1874C120.455 100.917 120.545 103.613 120.955 106.277C120.997 106.55 120.81 106.805 120.537 106.847C120.264 106.889 120.008 106.702 119.966 106.429C119.547 103.701 119.454 100.92 119.362 98.1771C119.333 97.3047 119.304 96.4361 119.264 95.5741C119.252 95.2983 119.465 95.0644 119.741 95.0518Z" fill="black"/>
    <path fill-rule="evenodd" clip-rule="evenodd" d="M133.353 98.8838C133.629 98.8838 133.853 99.1076 133.853 99.3838V109.488C133.853 109.764 133.629 109.988 133.353 109.988C133.076 109.988 132.853 109.764 132.853 109.488V99.3838C132.853 99.1076 133.076 98.8838 133.353 98.8838Z" fill="black"/>
    <path fill-rule="evenodd" clip-rule="evenodd" d="M132.307 75.1904C132.583 75.1904 132.807 75.4143 132.807 75.6904V89.2793C132.807 89.5554 132.583 89.7793 132.307 89.7793C132.031 89.7793 131.807 89.5554 131.807 89.2793V75.6904C131.807 75.4143 132.031 75.1904 132.307 75.1904Z" fill="black"/>
    <path fill-rule="evenodd" clip-rule="evenodd" d="M132.275 53.5889C132.551 53.5712 132.788 53.7801 132.806 54.0557C133.017 57.3223 133.139 60.5502 133.156 63.8415C133.157 64.1177 132.934 64.3426 132.658 64.344C132.382 64.3453 132.157 64.1226 132.156 63.8465C132.139 60.577 132.018 57.369 131.808 54.1201C131.79 53.8445 131.999 53.6067 132.275 53.5889Z" fill="black"/>
    <path fill-rule="evenodd" clip-rule="evenodd" d="M119.046 37.9086C119.322 37.8973 119.555 38.1118 119.566 38.3877C119.695 41.525 119.81 44.6616 119.915 47.7992C119.924 48.0752 119.707 48.3064 119.432 48.3156C119.156 48.3248 118.924 48.1085 118.915 47.8325C118.811 44.6972 118.695 41.5631 118.567 38.4287C118.556 38.1528 118.77 37.92 119.046 37.9086Z" fill="black"/>
    <path fill-rule="evenodd" clip-rule="evenodd" d="M74.0368 42.119C74.3126 42.1058 74.5469 42.3188 74.56 42.5946L74.9084 49.9117C74.9216 50.1875 74.7086 50.4218 74.4328 50.4349C74.1569 50.4481 73.9227 50.2351 73.9096 49.9593L73.5611 42.6422C73.548 42.3664 73.7609 42.1321 74.0368 42.119Z" fill="black"/>
    <path fill-rule="evenodd" clip-rule="evenodd" d="M74.7022 55.0136C74.9766 54.9831 75.2238 55.1809 75.2543 55.4553L75.9512 61.7271C75.9817 62.0015 75.7839 62.2488 75.5094 62.2793C75.235 62.3097 74.9878 62.112 74.9573 61.8375L74.2604 55.5658C74.2299 55.2913 74.4277 55.0441 74.7022 55.0136Z" fill="black"/>
    <path fill-rule="evenodd" clip-rule="evenodd" d="M75.8027 68.5994C76.0789 68.5994 76.3027 68.8232 76.3027 69.0994V76.4164C76.3027 76.6926 76.0789 76.9164 75.8027 76.9164C75.5266 76.9164 75.3027 76.6926 75.3027 76.4164V69.0994C75.3027 68.8232 75.5266 68.5994 75.8027 68.5994Z" fill="black"/>
    <path fill-rule="evenodd" clip-rule="evenodd" d="M75.8027 82.885C76.0789 82.885 76.3027 83.1089 76.3027 83.385V91.0505C76.3027 91.3266 76.0789 91.5505 75.8027 91.5505C75.5266 91.5505 75.3027 91.3266 75.3027 91.0505V83.385C75.3027 83.1089 75.5266 82.885 75.8027 82.885Z" fill="black"/>
    <path fill-rule="evenodd" clip-rule="evenodd" d="M76.0975 96.1286C76.3721 96.0991 76.6186 96.2978 76.6481 96.5724C76.9361 99.2546 77.1549 101.922 77.3465 104.604C77.3662 104.88 77.1588 105.119 76.8834 105.138C76.608 105.158 76.3687 104.951 76.3491 104.675C76.1579 101.999 75.9401 99.3452 75.6538 96.6792C75.6243 96.4046 75.823 96.1581 76.0975 96.1286Z" fill="black"/>
    <path fill-rule="evenodd" clip-rule="evenodd" d="M85.9072 58.4949C86.1834 58.4949 86.4072 58.7187 86.4072 58.9949V67.7057C86.4072 67.9818 86.1834 68.2057 85.9072 68.2057C85.6311 68.2057 85.4072 67.9818 85.4072 67.7057V58.9949C85.4072 58.7187 85.6311 58.4949 85.9072 58.4949Z" fill="black"/>
    <path fill-rule="evenodd" clip-rule="evenodd" d="M86.2337 75.9167C86.5095 75.9047 86.7429 76.1187 86.7549 76.3945L87.1033 84.4085C87.1153 84.6844 86.9014 84.9177 86.6255 84.9297C86.3496 84.9417 86.1163 84.7278 86.1043 84.4519L85.7559 76.438C85.7439 76.1621 85.9578 75.9287 86.2337 75.9167Z" fill="black"/>
    <path fill-rule="evenodd" clip-rule="evenodd" d="M86.9521 90.2024C87.2283 90.2024 87.4521 90.4263 87.4521 90.7024V101.155C87.4521 101.431 87.2283 101.655 86.9521 101.655C86.676 101.655 86.4521 101.431 86.4521 101.155V90.7024C86.4521 90.4263 86.676 90.2024 86.9521 90.2024Z" fill="black"/>
    <path d="M104.145 155.937C103.595 160.795 79.0533 161.162 73.4458 157.543L71.3248 128.067L69.5952 117.401C82.7011 123.733 104.815 120.502 105.599 115.687C105.599 130.086 105.599 143.086 104.145 155.937Z" fill="#A3E9FF"/>
    <path d="M71.4797 119.016C70.3756 118.463 69.7044 117.66 69.7947 116.823C71.5992 115.897 73.4892 115.137 75.6585 114.648C83.253 112.936 92.5399 112.712 100.288 113.784C101.647 113.972 108.187 115.383 104.935 117.65C100.847 120.499 94.2789 120.813 89.4354 121.044L89.3923 121.046C84.0427 121.302 76.4124 121.484 71.4797 119.016Z" fill="#A3E9FF"/>
    <path fill-rule="evenodd" clip-rule="evenodd" d="M85.6811 112.117C90.475 111.97 97.4969 112.115 101.637 113.356C101.773 113.397 101.878 113.49 101.938 113.606C102.771 113.811 103.748 114.105 104.554 114.485C104.923 114.66 105.274 114.86 105.562 115.088C105.847 115.313 106.104 115.592 106.238 115.934C106.38 116.298 106.363 116.688 106.171 117.066C105.989 117.425 105.662 117.752 105.221 118.06C103.088 119.546 100.339 120.353 97.5513 120.822C94.7634 121.29 91.8861 121.428 89.4712 121.543L89.416 121.546C86.7382 121.673 83.468 121.784 80.2434 121.551C77.026 121.319 73.8086 120.741 71.2558 119.463C70.3897 119.03 69.6518 118.386 69.3888 117.602C67.9342 118.387 66.5168 119.278 65.0173 120.225C64.7838 120.373 64.475 120.303 64.3275 120.07C64.18 119.836 64.2497 119.527 64.4832 119.38C66.1225 118.344 67.7011 117.352 69.3481 116.491C69.4991 115.905 69.9224 115.372 70.5696 114.914C71.3245 114.379 72.4064 113.957 73.6264 113.617C74.8559 113.275 76.2669 113.005 77.7089 112.795C80.5933 112.373 83.6388 112.18 85.6811 112.117ZM70.301 117.127C70.3822 117.59 70.816 118.125 71.7033 118.569C74.0831 119.76 77.1473 120.325 80.3156 120.554C83.4767 120.782 86.6964 120.674 89.3683 120.547L89.4114 120.545C91.8374 120.429 94.661 120.293 97.3856 119.836C100.115 119.377 102.694 118.602 104.649 117.239C105.021 116.98 105.201 116.768 105.279 116.614C105.346 116.481 105.341 116.388 105.306 116.298C105.262 116.185 105.153 116.04 104.941 115.872C104.733 115.707 104.456 115.545 104.127 115.39C102.794 114.761 100.876 114.37 100.219 114.279C92.5237 113.214 83.2978 113.439 75.7683 115.136C73.7591 115.589 71.9921 116.28 70.301 117.127ZM71.8101 115.341C72.3706 115.063 73.0766 114.808 73.8947 114.581C74.0981 114.524 74.3073 114.469 74.5215 114.417C73.5721 114.677 72.6739 114.988 71.8101 115.341Z" fill="black"/>
    <path fill-rule="evenodd" clip-rule="evenodd" d="M71.2758 113.738C71.4711 113.933 71.4711 114.25 71.2758 114.445C70.3486 115.372 70.1336 115.768 70.1001 116.135C70.0819 116.333 70.1133 116.564 70.1982 116.922C70.2332 117.069 70.2746 117.228 70.322 117.41C70.3317 117.448 70.3417 117.486 70.352 117.525C70.4114 117.754 70.4773 118.012 70.5446 118.303C70.5509 118.331 70.555 118.359 70.5566 118.387L70.5672 118.574C71.4299 133.661 72.3739 150.165 73.3176 157.557C73.3526 157.831 73.1589 158.082 72.885 158.117C72.6111 158.152 72.3607 157.958 72.3257 157.684C71.3769 150.252 70.4315 133.717 69.5706 118.661L69.5606 118.487C69.4998 118.226 69.4399 117.992 69.3841 117.777C69.3744 117.739 69.3647 117.702 69.3552 117.666C69.3078 117.484 69.263 117.312 69.2253 117.153C69.1354 116.774 69.0706 116.412 69.1042 116.044C69.1743 115.279 69.6547 114.652 70.5687 113.738C70.764 113.543 71.0805 113.543 71.2758 113.738Z" fill="black"/>
    <path fill-rule="evenodd" clip-rule="evenodd" d="M105.807 115.898C106.084 115.901 106.305 116.127 106.302 116.403L105.802 116.398L105.302 116.392C105.305 116.116 105.531 115.895 105.807 115.898ZM105.802 116.398C105.302 116.392 105.302 116.392 105.302 116.392L105.298 116.734C105.296 116.957 105.292 117.287 105.286 117.709C105.275 118.554 105.259 119.772 105.235 121.265C105.187 124.249 105.112 128.33 105.002 132.714C104.78 141.494 104.416 151.458 103.85 156.295C103.818 156.569 104.014 156.818 104.289 156.85C104.563 156.882 104.811 156.685 104.843 156.411C105.416 151.519 105.78 141.505 106.001 132.739C106.112 128.351 106.187 124.267 106.235 121.28C106.259 119.787 106.275 118.568 106.286 117.722C106.292 117.299 106.296 116.969 106.298 116.745L106.302 116.403C106.302 116.403 106.302 116.403 105.802 116.398Z" fill="black"/>
    <path fill-rule="evenodd" clip-rule="evenodd" d="M105.649 144.789C105.864 144.963 105.897 145.277 105.723 145.492C104.44 147.078 102.076 148.302 99.2378 149.154C96.3802 150.012 92.9638 150.515 89.486 150.603C86.0082 150.692 82.4494 150.366 79.3081 149.553C76.1745 148.741 73.4109 147.434 71.5746 145.524C71.3832 145.325 71.3894 145.008 71.5885 144.817C71.7875 144.626 72.104 144.632 72.2954 144.831C73.9529 146.555 76.5172 147.797 79.5587 148.584C82.5925 149.37 86.0559 149.69 89.4607 149.604C92.8655 149.517 96.1918 149.025 98.9504 148.197C101.728 147.363 103.854 146.212 104.946 144.863C105.12 144.648 105.435 144.615 105.649 144.789Z" fill="black"/>
    <path fill-rule="evenodd" clip-rule="evenodd" d="M105.65 150.159C105.864 150.333 105.898 150.647 105.724 150.862C104.44 152.448 102.077 153.672 99.2383 154.524C96.3807 155.382 92.9643 155.885 89.4865 155.973C86.0087 156.062 82.4498 155.736 79.3086 154.923C76.1749 154.112 73.4114 152.804 71.5751 150.894C71.3837 150.695 71.3899 150.378 71.589 150.187C71.788 149.996 72.1045 150.002 72.2959 150.201C73.9533 151.925 76.5177 153.167 79.5591 153.955C82.5929 154.74 86.0564 155.06 89.4612 154.974C92.8659 154.887 96.1923 154.395 98.9508 153.567C101.728 152.733 103.855 151.582 104.947 150.233C105.12 150.018 105.435 149.985 105.65 150.159Z" fill="black"/>
    <path fill-rule="evenodd" clip-rule="evenodd" d="M105.479 155.848C105.694 156.022 105.727 156.336 105.553 156.551C104.27 158.137 101.907 159.361 99.0679 160.213C96.2103 161.071 92.7939 161.574 89.3161 161.662C85.8383 161.751 82.2794 161.425 79.1381 160.612C76.0045 159.801 73.241 158.493 71.4047 156.583C71.2133 156.384 71.2195 156.067 71.4186 155.876C71.6176 155.685 71.9341 155.691 72.1255 155.89C73.7829 157.614 76.3472 158.856 79.3887 159.644C82.4225 160.429 85.886 160.749 89.2907 160.663C92.6955 160.576 96.0219 160.084 98.7804 159.256C101.558 158.422 103.684 157.271 104.776 155.922C104.95 155.707 105.265 155.674 105.479 155.848Z" fill="black"/>
    <path fill-rule="evenodd" clip-rule="evenodd" d="M69.985 122.035C70.2543 122.096 70.4232 122.364 70.3623 122.633C70.2462 123.146 69.8995 124.054 69.495 125.112C69.4516 125.226 69.4074 125.341 69.3629 125.458C68.8932 126.69 68.3507 128.137 67.9229 129.56C67.4927 130.991 67.1913 132.359 67.1819 133.44C67.1722 134.547 67.4624 135.154 67.9806 135.393C68.854 135.796 69.9091 135.716 71.1379 135.203C72.3663 134.69 73.7026 133.771 75.0745 132.608C77.8171 130.284 80.5973 127.081 82.8167 124.52C82.9976 124.311 83.3133 124.289 83.522 124.47C83.7307 124.65 83.7532 124.966 83.5724 125.175C81.3646 127.722 78.5332 130.988 75.721 133.371C74.3154 134.562 72.8884 135.556 71.523 136.126C70.1579 136.696 68.7884 136.867 67.5616 136.301C66.4783 135.801 66.1714 134.634 66.1819 133.432C66.1926 132.204 66.5284 130.725 66.9652 129.272C67.4045 127.81 67.9589 126.334 68.4285 125.102C68.4681 124.998 68.507 124.896 68.545 124.797C68.9677 123.689 69.2877 122.851 69.387 122.412C69.4479 122.143 69.7156 121.974 69.985 122.035Z" fill="black"/>
    <path fill-rule="evenodd" clip-rule="evenodd" d="M84.1645 123.599C83.3744 123.531 82.4367 123.765 81.8725 124.024C81.1152 124.373 80.9706 125.193 81.2383 125.784C81.279 125.874 81.2909 125.969 81.278 126.06C81.2816 126.062 81.2851 126.064 81.2886 126.066C82.3916 126.709 83.5063 126.993 84.62 126.518C84.9636 126.371 85.1864 126.152 85.3214 125.874C85.4609 125.586 85.5237 125.197 85.4741 124.696C85.4342 124.293 85.2782 124.055 85.0796 123.901C84.8657 123.736 84.5555 123.632 84.1645 123.599ZM80.5415 126.428C80.514 126.623 80.6041 126.824 80.7848 126.93C82.0154 127.648 83.482 128.091 85.0128 127.437C85.5639 127.202 85.9745 126.819 86.2213 126.31C86.4636 125.81 86.5312 125.224 86.4692 124.598C86.4046 123.944 86.1257 123.447 85.6919 123.111C85.2734 122.787 84.7536 122.646 84.2497 122.602C83.2499 122.517 82.1382 122.802 81.4547 123.116C80.0792 123.748 79.8906 125.232 80.3274 126.196C80.3737 126.299 80.4501 126.378 80.5415 126.428Z" fill="black"/>
    <path d="M129.497 159.711C128.947 164.569 104.405 164.936 98.7979 161.318L96.6769 131.842L94.9473 121.176C108.053 127.508 130.167 124.276 130.951 119.462C130.951 133.861 130.951 146.861 129.497 159.711Z" fill="#A3E9FF"/>
    <path d="M131.269 119.594C128.517 123.957 122.601 125.309 113.859 125.309C102.132 125.309 96.9254 123.365 95.2651 121.309C103.771 114.147 122.763 117.565 131.269 119.594Z" fill="#A3E9FF"/>
    <path d="M96.8318 122.791C95.7276 122.238 95.0565 121.435 95.1467 120.598C96.9513 119.672 98.8413 118.912 101.011 118.423C108.605 116.711 117.892 116.487 125.64 117.559C126.999 117.747 133.539 119.158 130.287 121.424C126.199 124.274 119.631 124.588 114.787 124.819L114.744 124.821C109.395 125.076 101.764 125.259 96.8318 122.791Z" fill="#A3E9FF"/>
    <path fill-rule="evenodd" clip-rule="evenodd" d="M111.033 115.892C115.827 115.745 122.849 115.89 126.989 117.131C127.125 117.172 127.23 117.265 127.29 117.381C128.123 117.585 129.1 117.88 129.906 118.26C130.275 118.434 130.626 118.634 130.914 118.863C131.199 119.088 131.456 119.367 131.59 119.709C131.732 120.072 131.715 120.462 131.523 120.841C131.341 121.2 131.014 121.527 130.573 121.834C128.44 123.321 125.691 124.128 122.903 124.596C120.115 125.065 117.238 125.202 114.823 125.318L114.768 125.32C112.09 125.448 108.82 125.559 105.595 125.326C102.378 125.093 99.1607 124.515 96.6078 123.238C95.7418 122.804 95.0038 122.161 94.7408 121.377C93.2862 122.162 91.8689 123.053 90.3693 124C90.1358 124.147 89.827 124.078 89.6795 123.844C89.5321 123.611 89.6018 123.302 89.8352 123.155C91.4745 122.119 93.0531 121.126 94.7001 120.266C94.8512 119.68 95.2744 119.147 95.9217 118.688C96.6766 118.154 97.7585 117.732 98.9785 117.392C100.208 117.05 101.619 116.78 103.061 116.569C105.945 116.147 108.991 115.954 111.033 115.892ZM95.653 120.902C95.7343 121.365 96.1681 121.899 97.0554 122.343C99.4352 123.534 102.499 124.099 105.668 124.329C108.829 124.557 112.048 124.449 114.72 124.321L114.763 124.319C117.189 124.204 120.013 124.068 122.738 123.61C125.467 123.152 128.046 122.377 130.001 121.014C130.373 120.755 130.553 120.542 130.631 120.389C130.698 120.256 130.693 120.162 130.658 120.072C130.614 119.96 130.506 119.815 130.293 119.647C130.085 119.482 129.808 119.32 129.479 119.164C128.146 118.536 126.228 118.145 125.571 118.054C117.876 116.989 108.65 117.213 101.12 118.91C99.1112 119.363 97.3442 120.054 95.653 120.902ZM97.1621 119.116C97.7227 118.837 98.4287 118.583 99.2467 118.355C99.4502 118.299 99.6593 118.244 99.8735 118.191C98.9241 118.451 98.026 118.763 97.1621 119.116Z" fill="black"/>
    <path fill-rule="evenodd" clip-rule="evenodd" d="M96.6279 117.513C96.8231 117.708 96.8231 118.025 96.6279 118.22C95.7006 119.147 95.4857 119.543 95.4521 119.91C95.434 120.108 95.4653 120.339 95.5503 120.697C95.5852 120.844 95.6266 121.003 95.674 121.185C95.6838 121.222 95.6938 121.261 95.704 121.3C95.7634 121.529 95.8293 121.786 95.8966 122.078C95.903 122.105 95.907 122.134 95.9086 122.162L95.9193 122.348C96.782 137.436 97.7259 153.939 98.6697 161.332C98.7047 161.606 98.511 161.856 98.237 161.891C97.9631 161.926 97.7127 161.732 97.6778 161.459C96.7289 154.026 95.7835 137.491 94.9226 122.436L94.9127 122.262C94.8518 122 94.792 121.766 94.7362 121.552C94.7264 121.514 94.7168 121.477 94.7072 121.44C94.6598 121.258 94.615 121.087 94.5773 120.928C94.4874 120.549 94.4226 120.186 94.4563 119.819C94.5263 119.053 95.0068 118.427 95.9207 117.513C96.116 117.318 96.4326 117.318 96.6279 117.513Z" fill="black"/>
    <path fill-rule="evenodd" clip-rule="evenodd" d="M131.159 119.672C131.436 119.675 131.657 119.901 131.654 120.178L131.154 120.172L130.654 120.167C130.657 119.891 130.883 119.669 131.159 119.672ZM131.154 120.172C130.654 120.167 130.654 120.167 130.654 120.167L130.65 120.508C130.648 120.732 130.644 121.061 130.638 121.484C130.628 122.329 130.611 123.547 130.587 125.039C130.539 128.024 130.464 132.105 130.354 136.489C130.132 145.268 129.768 155.232 129.202 160.07C129.17 160.344 129.366 160.592 129.641 160.624C129.915 160.656 130.163 160.46 130.195 160.186C130.768 155.294 131.132 145.28 131.353 136.514C131.464 132.126 131.539 128.042 131.587 125.055C131.611 123.562 131.627 122.343 131.638 121.497C131.644 121.074 131.648 120.744 131.65 120.52L131.654 120.178C131.654 120.177 131.654 120.178 131.154 120.172Z" fill="black"/>
    <path fill-rule="evenodd" clip-rule="evenodd" d="M115.635 137.05C115.444 137.249 115.127 137.254 114.928 137.063C114.412 136.565 113.975 136.122 113.509 135.649C113.213 135.35 112.906 135.039 112.56 134.695C112.365 134.5 112.364 134.183 112.558 133.988C112.753 133.792 113.07 133.791 113.266 133.986C113.627 134.345 113.938 134.661 114.234 134.961C114.692 135.425 115.113 135.851 115.623 136.343C115.821 136.535 115.827 136.851 115.635 137.05Z" fill="black"/>
    <path fill-rule="evenodd" clip-rule="evenodd" d="M116.286 146.39C116.01 146.39 115.786 146.166 115.786 145.89V140.15C115.786 139.874 116.01 139.65 116.286 139.65C116.562 139.65 116.786 139.874 116.786 140.15V145.89C116.786 146.166 116.562 146.39 116.286 146.39Z" fill="black"/>
    <path fill-rule="evenodd" clip-rule="evenodd" d="M120.894 141.711C120.74 141.941 120.43 142.003 120.2 141.85C119.632 141.471 119.153 141.067 118.326 140.37C118.145 140.218 117.949 140.052 117.731 139.869C117.519 139.692 117.491 139.377 117.669 139.165C117.846 138.953 118.162 138.926 118.373 139.103C118.6 139.293 118.803 139.464 118.986 139.618C119.81 140.312 120.237 140.673 120.755 141.018C120.985 141.171 121.047 141.481 120.894 141.711Z" fill="black"/>
    <path fill-rule="evenodd" clip-rule="evenodd" d="M116.724 149.781C116.17 149.932 115.574 149.875 114.954 149.663C114.693 149.573 114.554 149.289 114.643 149.028C114.653 148.998 114.666 148.97 114.681 148.944C114.172 148.454 113.858 147.675 114.104 146.949C114.572 145.573 115.906 145.068 117.121 145.466C117.914 145.725 118.366 146.308 118.505 146.962C118.639 147.592 118.48 148.271 118.109 148.777L118.109 148.777C117.741 149.277 117.283 149.627 116.724 149.781ZM117.276 148.22C117.285 148.208 117.294 148.197 117.302 148.185C117.512 147.9 117.6 147.51 117.527 147.169C117.46 146.852 117.252 146.561 116.81 146.416C116.056 146.169 115.323 146.471 115.051 147.271C114.953 147.56 115.094 148.01 115.459 148.298C115.628 148.431 115.816 148.503 116.002 148.504C116.18 148.506 116.397 148.444 116.637 148.235C116.822 148.074 117.091 148.073 117.276 148.22Z" fill="black"/>
    <path fill-rule="evenodd" clip-rule="evenodd" d="M122.192 144.919C121.671 145.065 121.112 145.009 120.536 144.808C120.275 144.717 120.138 144.432 120.229 144.171C120.236 144.15 120.245 144.13 120.254 144.111C119.788 143.643 119.504 142.911 119.731 142.228C119.942 141.597 120.354 141.136 120.879 140.889C121.4 140.645 121.998 140.628 122.56 140.816L122.402 141.29L122.56 140.816C123.306 141.064 123.728 141.623 123.857 142.242C123.982 142.839 123.834 143.482 123.488 143.963L123.488 143.963C123.147 144.437 122.718 144.772 122.192 144.919ZM122.735 143.422C122.717 143.405 122.698 143.39 122.678 143.377C122.864 143.117 122.944 142.759 122.878 142.446C122.818 142.156 122.633 141.894 122.244 141.764C121.9 141.65 121.569 141.67 121.304 141.795C121.043 141.917 120.81 142.155 120.68 142.544C120.593 142.805 120.718 143.216 121.044 143.478C121.194 143.599 121.358 143.661 121.515 143.662C121.666 143.664 121.855 143.611 122.069 143.42C122.243 143.266 122.493 143.255 122.678 143.377C122.677 143.378 122.677 143.378 122.676 143.379M122.735 143.422L123.08 143.67L122.735 143.422" fill="black"/>
    <path fill-rule="evenodd" clip-rule="evenodd" d="M116.225 140.589C115.817 140.612 115.392 140.54 114.954 140.39C114.693 140.301 114.554 140.017 114.643 139.755C114.646 139.746 114.65 139.736 114.654 139.727C114.452 139.488 114.288 139.217 114.179 138.936C114.028 138.55 113.962 138.097 114.104 137.677C114.572 136.3 115.906 135.796 117.121 136.193C117.914 136.452 118.366 137.035 118.505 137.689C118.639 138.319 118.48 138.998 118.109 139.504L118.109 139.504C117.921 139.76 117.709 139.976 117.473 140.147C117.087 140.476 116.654 140.612 116.225 140.589ZM116.879 139.343C117.026 139.238 117.167 139.097 117.302 138.912L117.706 139.208L117.302 138.912C117.512 138.627 117.6 138.238 117.527 137.897C117.46 137.58 117.252 137.288 116.81 137.144C116.056 136.897 115.323 137.198 115.051 137.998C115.009 138.123 115.012 138.321 115.11 138.572C115.206 138.817 115.375 139.064 115.585 139.256C115.796 139.448 116.023 139.56 116.226 139.586C116.227 139.586 116.227 139.586 116.228 139.586C116.31 139.578 116.387 139.563 116.46 139.544C116.601 139.505 116.739 139.441 116.872 139.348C116.874 139.346 116.877 139.344 116.879 139.343Z" fill="black"/>
    <path fill-rule="evenodd" clip-rule="evenodd" d="M131.001 148.563C131.216 148.737 131.249 149.052 131.075 149.267C129.792 150.852 127.429 152.077 124.59 152.929C121.732 153.787 118.316 154.29 114.838 154.378C111.36 154.466 107.801 154.14 104.66 153.327C101.527 152.516 98.7629 151.208 96.9267 149.299C96.7353 149.1 96.7415 148.783 96.9405 148.592C97.1396 148.4 97.4561 148.406 97.6475 148.605C99.3049 150.329 101.869 151.572 104.911 152.359C107.945 153.144 111.408 153.465 114.813 153.378C118.218 153.292 121.544 152.799 124.302 151.971C127.08 151.138 129.206 149.986 130.298 148.637C130.472 148.423 130.787 148.39 131.001 148.563Z" fill="black"/>
    <path fill-rule="evenodd" clip-rule="evenodd" d="M131.002 153.934C131.216 154.107 131.25 154.422 131.076 154.637C129.792 156.222 127.429 157.447 124.59 158.299C121.733 159.157 118.316 159.66 114.839 159.748C111.361 159.836 107.802 159.51 104.661 158.697C101.527 157.886 98.7634 156.578 96.9272 154.669C96.7358 154.47 96.742 154.153 96.941 153.962C97.1401 153.77 97.4566 153.777 97.648 153.976C99.3054 155.699 101.87 156.942 104.911 157.729C107.945 158.514 111.408 158.835 114.813 158.748C118.218 158.662 121.544 158.169 124.303 157.341C127.08 156.508 129.207 155.357 130.299 154.008C130.472 153.793 130.787 153.76 131.002 153.934Z" fill="black"/>
    <path fill-rule="evenodd" clip-rule="evenodd" d="M130.831 159.622C131.046 159.796 131.079 160.111 130.905 160.326C129.622 161.911 127.259 163.136 124.42 163.988C121.562 164.846 118.146 165.349 114.668 165.437C111.19 165.525 107.631 165.199 104.49 164.386C101.357 163.575 98.593 162.267 96.7567 160.358C96.5653 160.159 96.5716 159.842 96.7706 159.651C96.9697 159.459 97.2862 159.466 97.4776 159.665C99.135 161.388 101.699 162.631 104.741 163.418C107.775 164.203 111.238 164.524 114.643 164.437C118.048 164.351 121.374 163.858 124.132 163.03C126.91 162.197 129.036 161.046 130.128 159.697C130.302 159.482 130.617 159.449 130.831 159.622Z" fill="black"/>
    <path fill-rule="evenodd" clip-rule="evenodd" d="M95.337 125.81C95.6063 125.87 95.7753 126.138 95.7144 126.408C95.5982 126.921 95.2515 127.828 94.8471 128.887C94.8036 129.001 94.7595 129.116 94.7149 129.233C94.2452 130.465 93.7027 131.911 93.275 133.334C92.8448 134.766 92.5433 136.133 92.5339 137.215C92.5243 138.322 92.8145 138.928 93.3327 139.168C94.206 139.571 95.2611 139.491 96.4899 138.978C97.7184 138.465 99.0546 137.546 100.427 136.383C103.169 134.059 105.949 130.855 108.169 128.295C108.35 128.086 108.665 128.063 108.874 128.244C109.083 128.425 109.105 128.741 108.924 128.949C106.717 131.497 103.885 134.763 101.073 137.146C99.6675 138.337 98.2405 139.331 96.8751 139.901C95.51 140.47 94.1405 140.642 92.9137 140.076C91.8304 139.576 91.5235 138.409 91.5339 137.206C91.5446 135.978 91.8804 134.5 92.3173 133.047C92.7566 131.585 93.3109 130.108 93.7805 128.877C93.8202 128.773 93.859 128.671 93.8971 128.571C94.3197 127.464 94.6397 126.626 94.739 126.187C94.7999 125.918 95.0677 125.749 95.337 125.81Z" fill="black"/>
    <path fill-rule="evenodd" clip-rule="evenodd" d="M109.517 127.373C108.726 127.306 107.789 127.54 107.225 127.799C106.467 128.147 106.323 128.967 106.59 129.559C106.631 129.648 106.643 129.744 106.63 129.835C106.634 129.837 106.637 129.839 106.641 129.841C107.744 130.484 108.858 130.768 109.972 130.292C110.316 130.145 110.538 129.927 110.673 129.648C110.813 129.36 110.876 128.972 110.826 128.471C110.786 128.067 110.63 127.83 110.432 127.676C110.218 127.51 109.908 127.407 109.517 127.373ZM105.894 130.203C105.866 130.398 105.956 130.599 106.137 130.704C107.367 131.422 108.834 131.866 110.365 131.212C110.916 130.976 111.327 130.594 111.573 130.084C111.816 129.584 111.883 128.998 111.821 128.372C111.757 127.719 111.478 127.221 111.044 126.885C110.625 126.561 110.106 126.42 109.602 126.377C108.602 126.292 107.49 126.576 106.807 126.891C105.431 127.523 105.243 129.007 105.679 129.971C105.726 130.073 105.802 130.152 105.894 130.203Z" fill="black"/>
    <path d="M193.041 118.686C198.21 111.57 190.456 108.982 185.287 107.689C161.509 107.689 164.344 124.508 174.037 128.111C165.413 128.111 161.965 137.006 161.965 145.314C156.796 158.252 156.279 171.805 161.965 165.595C169.073 157.833 171.746 152.842 177.562 154.136C183.377 155.429 194.362 177.572 196.948 170.456C199.016 164.763 198.731 156.891 195.715 146.973C195.716 145.682 215.38 139.728 187.438 124.622C187.991 124.619 189.581 123.449 193.041 118.686Z" fill="white"/>
    <path fill-rule="evenodd" clip-rule="evenodd" d="M180.895 107.124C183.805 106.74 186.779 106.774 189.662 107.48C191.81 108.007 194.519 109.032 195.298 111.676C195.498 112.358 195.572 113.061 195.546 113.77C195.809 115.972 195.051 118.072 193.708 119.941C192.358 121.819 190.4 123.49 188.213 124.846C186.025 126.204 183.587 127.259 181.257 127.896C178.934 128.532 176.681 128.761 174.874 128.428C173.69 128.209 172.495 127.781 171.363 127.181C171.144 127.092 170.928 126.995 170.718 126.892C170.08 126.578 169.514 126.138 169.019 125.61C168.754 125.391 168.498 125.16 168.251 124.921C166.393 123.117 165.054 120.747 164.888 118.094C164.704 115.153 166.417 112.979 168.592 111.427C169.986 110.432 171.604 109.665 173.123 109.086C174.956 108.26 176.974 107.785 179.096 107.415C179.692 107.302 180.292 107.204 180.895 107.124ZM179.247 108.405C179.829 108.303 180.423 108.208 181.029 108.115C183.84 107.744 186.686 107.78 189.424 108.452C191.58 108.98 193.733 109.901 194.339 111.959C194.848 113.69 194.397 115.696 193.439 117.612C192.485 119.518 191.067 121.258 189.771 122.413C187.632 124.321 184.325 125.892 180.852 126.642C177.642 127.335 174.364 127.311 171.787 126.274C171.06 125.885 170.359 125.418 169.71 124.885C168.775 123.87 168.092 122.443 167.703 120.907C167.135 118.657 167.25 116.374 167.968 115.104C169.412 112.551 171.288 111.015 173.506 110.01C174.313 109.703 175.097 109.449 175.807 109.241C176.936 108.911 178.086 108.627 179.247 108.405ZM168.019 113.18C166.631 114.483 165.764 116.077 165.886 118.032C165.956 119.151 166.263 120.225 166.752 121.224C166.746 121.2 166.74 121.176 166.734 121.152C166.136 118.787 166.199 116.203 167.098 114.612C167.389 114.097 167.696 113.621 168.019 113.18Z" fill="black"/>
    <path fill-rule="evenodd" clip-rule="evenodd" d="M191.046 131.612C191.305 131.516 191.593 131.649 191.688 131.908C196.99 146.282 198.66 157.153 198.513 163.997C198.44 167.403 197.917 169.877 197.112 171.284C196.71 171.986 196.19 172.506 195.54 172.653C194.866 172.806 194.223 172.521 193.677 171.994C191.951 170.327 190.386 168.189 188.919 165.959C188.185 164.842 187.472 163.696 186.775 162.569C186.698 162.444 186.621 162.321 186.545 162.197C185.926 161.197 185.32 160.216 184.717 159.28C183.357 157.172 182.042 155.338 180.703 154.086C179.363 152.835 178.076 152.235 176.751 152.425C175.36 152.624 173.746 153.625 172.029 155.104C170.329 156.568 168.599 158.437 166.976 160.266C166.542 160.755 166.115 161.241 165.699 161.716C164.567 163.007 163.51 164.212 162.6 165.132C161.978 165.761 161.399 166.284 160.89 166.618C160.635 166.784 160.374 166.92 160.116 166.989C159.868 167.055 159.592 167.068 159.328 166.957C158.687 166.771 158.231 166.303 157.919 165.707C157.605 165.105 157.418 164.339 157.319 163.488C157.122 161.783 157.265 159.602 157.594 157.363C157.925 155.116 158.447 152.781 159.026 150.756C159.602 148.74 160.244 146.997 160.823 145.953C160.957 145.712 161.261 145.624 161.503 145.758C161.744 145.892 161.831 146.197 161.697 146.438C161.175 147.38 160.558 149.034 159.988 151.03C159.42 153.017 158.907 155.309 158.584 157.508C158.259 159.714 158.13 161.795 158.313 163.373C158.404 164.163 158.57 164.794 158.805 165.244C159.036 165.686 159.313 165.918 159.628 166.003C159.657 166.011 159.686 166.022 159.714 166.035L159.714 166.035C159.715 166.035 159.723 166.039 159.742 166.04C159.764 166.04 159.801 166.038 159.857 166.023C159.973 165.992 160.133 165.918 160.342 165.781C160.76 165.508 161.279 165.046 161.889 164.429C162.776 163.532 163.802 162.362 164.926 161.081C165.347 160.601 165.782 160.105 166.228 159.602C167.854 157.77 169.621 155.858 171.376 154.346C173.115 152.848 174.916 151.677 176.609 151.435C178.368 151.183 179.948 152.012 181.385 153.355C182.823 154.698 184.194 156.624 185.557 158.738C186.165 159.682 186.777 160.671 187.395 161.671C187.472 161.795 187.548 161.918 187.625 162.042C188.323 163.169 189.029 164.305 189.755 165.41C191.209 167.622 192.726 169.686 194.372 171.274C194.776 171.665 195.09 171.73 195.319 171.678C195.573 171.62 195.904 171.381 196.244 170.787C196.922 169.602 197.442 167.334 197.514 163.976C197.657 157.293 196.023 146.551 190.75 132.254C190.655 131.995 190.787 131.707 191.046 131.612Z" fill="black"/>
    <path fill-rule="evenodd" clip-rule="evenodd" d="M169.74 115.962C170.002 115.875 170.285 116.016 170.372 116.278C171.237 118.876 174.17 120.142 177.663 120.222C181.13 120.301 184.875 119.19 187.019 117.351C187.228 117.171 187.544 117.195 187.724 117.404C187.904 117.614 187.879 117.93 187.67 118.109C185.29 120.151 181.281 121.305 177.641 121.222C174.026 121.139 170.497 119.818 169.424 116.594C169.336 116.332 169.478 116.049 169.74 115.962Z" fill="black"/>
    <path fill-rule="evenodd" clip-rule="evenodd" d="M188.153 123.874C188.006 124.108 188.075 124.416 188.309 124.564C195.452 129.075 199.353 132.705 201.122 135.592C202.002 137.028 202.339 138.254 202.311 139.299C202.283 140.337 201.893 141.245 201.232 142.048C199.887 143.68 197.441 144.851 194.8 145.654C192.179 146.451 189.456 146.859 187.651 147.021C187.376 147.046 187.173 147.289 187.198 147.564C187.223 147.839 187.466 148.042 187.741 148.017C189.593 147.851 192.387 147.433 195.091 146.611C197.775 145.795 200.463 144.553 202.003 142.684C202.784 141.736 203.276 140.62 203.311 139.326C203.345 138.038 202.926 136.622 201.975 135.07C200.082 131.981 196.019 128.25 188.843 123.718C188.609 123.571 188.3 123.641 188.153 123.874Z" fill="black"/>
    <path d="M157.671 123.7L170.448 124.582L190.715 126.346L188.512 140.902H197.324L188.512 147.519L156.349 145.313L157.671 123.7Z" fill="white"/>
    <path fill-rule="evenodd" clip-rule="evenodd" d="M198.161 140.6C197.993 140.381 197.679 140.339 197.46 140.507C196.896 140.94 194.594 142.587 192.419 144.135C191.334 144.906 190.285 145.651 189.508 146.202C189.119 146.478 188.798 146.706 188.574 146.864L188.224 147.112C188.224 147.112 188.223 147.112 188.512 147.52C188.801 147.929 188.801 147.928 188.801 147.928L189.152 147.68C189.376 147.522 189.697 147.294 190.086 147.018C190.864 146.466 191.913 145.722 192.999 144.949C195.163 143.409 197.487 141.747 198.069 141.301C198.288 141.133 198.329 140.819 198.161 140.6ZM188.104 147.809C188.264 148.035 188.576 148.088 188.801 147.928L188.512 147.52L188.224 147.112C187.998 147.272 187.945 147.584 188.104 147.809Z" fill="black"/>
    <path fill-rule="evenodd" clip-rule="evenodd" d="M193.238 141.404C194.72 141.404 196.116 141.404 197.765 141.404C198.041 141.404 198.265 141.18 198.265 140.904C198.265 140.628 198.041 140.404 197.765 140.404C196.116 140.404 194.72 140.404 193.238 140.404C191.948 140.404 190.594 140.404 188.953 140.404C188.677 140.404 188.453 140.628 188.453 140.904C188.453 141.18 188.677 141.404 188.953 141.404C190.594 141.404 191.948 141.404 193.238 141.404Z" fill="black"/>
    <path fill-rule="evenodd" clip-rule="evenodd" d="M191.227 124.529C190.954 124.49 190.701 124.68 190.662 124.953L191.157 125.024L191.652 125.094C191.691 124.821 191.501 124.568 191.227 124.529ZM191.157 125.024C191.652 125.094 191.652 125.094 191.652 125.094L191.519 126.024C191.435 126.617 191.314 127.465 191.17 128.485C190.881 130.525 190.495 133.253 190.11 136.01C189.724 138.766 189.339 141.55 189.05 143.699C188.905 144.773 188.785 145.688 188.701 146.361C188.659 146.698 188.626 146.972 188.604 147.175C188.593 147.277 188.585 147.359 188.579 147.421C188.577 147.451 188.575 147.476 188.574 147.494C188.573 147.51 188.573 147.517 188.573 147.519C188.573 147.519 188.573 147.519 188.573 147.519C188.573 147.795 188.349 148.019 188.073 148.019C187.796 148.019 187.573 147.795 187.573 147.519C187.573 147.431 187.589 147.263 187.61 147.067C187.633 146.856 187.667 146.576 187.709 146.237C187.794 145.56 187.914 144.641 188.059 143.565C188.348 141.414 188.734 138.628 189.119 135.871C189.505 133.114 189.891 130.385 190.18 128.344C190.324 127.324 190.445 126.476 190.529 125.884L190.662 124.954C190.662 124.954 190.662 124.953 191.157 125.024Z" fill="black"/>
    <path fill-rule="evenodd" clip-rule="evenodd" d="M156.292 123.662C156.27 123.937 156.477 124.177 156.752 124.198L191.118 126.845C191.393 126.866 191.634 126.66 191.655 126.385C191.676 126.11 191.47 125.869 191.195 125.848L156.829 123.201C156.553 123.18 156.313 123.386 156.292 123.662Z" fill="black"/>
    <path fill-rule="evenodd" clip-rule="evenodd" d="M157.701 122.32C157.426 122.303 157.189 122.514 157.172 122.789L155.85 144.844C155.834 145.119 156.044 145.356 156.32 145.373C156.595 145.389 156.832 145.179 156.849 144.903L158.17 122.849C158.187 122.573 157.977 122.337 157.701 122.32Z" fill="black"/>
    <path fill-rule="evenodd" clip-rule="evenodd" d="M155.41 145.28C155.391 145.556 155.599 145.794 155.875 145.813L188.038 148.019C188.313 148.038 188.552 147.829 188.571 147.554C188.589 147.279 188.381 147.04 188.106 147.021L155.943 144.816C155.668 144.797 155.429 145.005 155.41 145.28Z" fill="black"/>
    <path d="M195.813 100.182C192.79 101.321 190.021 104.756 188.25 107.314L190.343 108.065C193.346 105.813 195.81 106.647 198.419 109.778C204.08 116.572 204.17 120.302 213.959 119.445C217.334 118.824 212.527 119.418 208.82 117.243C204.084 113.299 212.578 113.466 212.736 107.314C212.925 99.9251 201.142 98.1739 195.813 100.182Z" fill="white"/>
    <path fill-rule="evenodd" clip-rule="evenodd" d="M206.492 99.7465C202.817 98.6095 198.423 98.6641 195.636 99.7142C194.027 100.321 192.518 101.523 191.205 102.866C189.886 104.215 188.733 105.738 187.839 107.029L187.468 107.564L190.428 108.627L190.643 108.465C192.065 107.399 193.281 107.116 194.411 107.389C195.573 107.67 196.755 108.563 198.035 110.099C199.172 111.463 200.08 112.699 200.896 113.811C201.088 114.072 201.274 114.326 201.457 114.573C202.414 115.864 203.292 116.982 204.316 117.86C206.414 119.659 209.043 120.377 214.003 119.943L214.026 119.941L214.05 119.937C214.469 119.86 214.78 119.798 214.984 119.746C215.079 119.721 215.186 119.69 215.273 119.648C215.31 119.63 215.4 119.585 215.477 119.495C215.519 119.445 215.574 119.362 215.595 119.247C215.618 119.124 215.593 119.008 215.545 118.915C215.466 118.761 215.334 118.693 215.3 118.676C215.246 118.648 215.192 118.63 215.154 118.618C215.074 118.594 214.979 118.575 214.885 118.557C214.754 118.533 214.584 118.506 214.393 118.476C214.308 118.462 214.218 118.448 214.125 118.433C212.896 118.234 210.867 117.853 209.108 116.832C207.968 115.875 207.832 115.327 207.901 114.995C207.941 114.803 208.063 114.589 208.303 114.33C208.543 114.071 208.864 113.805 209.252 113.5C209.346 113.425 209.444 113.35 209.544 113.272C211.053 112.1 213.155 110.466 213.236 107.327C213.339 103.29 210.155 100.88 206.492 99.7465ZM206.196 100.702C209.709 101.789 212.322 103.949 212.236 107.301C212.168 109.953 210.429 111.311 208.895 112.509C208.807 112.577 208.72 112.646 208.634 112.714C208.246 113.019 207.868 113.328 207.569 113.651C207.27 113.974 207.015 114.347 206.922 114.79C206.727 115.725 207.301 116.629 208.5 117.627L208.531 117.653L208.567 117.674C209.745 118.365 211.022 118.786 212.124 119.056C208.482 119.165 206.536 118.446 204.967 117.101C204.037 116.304 203.218 115.27 202.261 113.978C202.082 113.736 201.898 113.486 201.708 113.227C200.891 112.114 199.961 110.848 198.803 109.458C197.474 107.863 196.119 106.773 194.646 106.417C193.211 106.07 191.765 106.442 190.263 107.505L189.036 107.065C189.848 105.929 190.829 104.68 191.92 103.565C193.189 102.267 194.576 101.182 195.989 100.65C198.532 99.6919 202.694 99.618 206.196 100.702Z" fill="black"/>
    <path d="M193.92 82.7339C192.163 75.7957 193.92 59.7105 193.92 45.5806H194.834C210.873 45.0757 244.343 44.0961 249.911 44.2173C255.479 44.3385 256.871 47.6004 256.871 49.2163C256.821 57.2953 256.75 74.938 256.871 80.8762C257.023 88.2988 252.483 87.3899 249.911 87.9959C247.339 88.6018 240.227 86.9355 233.872 88.7533C228.788 90.2075 225.197 97.9432 224.037 101.629C223.734 99.2561 222.857 93.8128 221.767 91.0255C220.678 88.2382 215.765 88.8543 213.445 89.5107C194.834 90.7226 194.954 86.8163 193.92 82.7339Z" fill="white"/>
    <path d="M193.789 81.7205C192.916 78.4666 192.931 57.2813 193.789 46.728L194.34 45.9478C210.379 45.4429 243.297 43.4256 248.866 43.5467C254.434 43.6679 255.826 46.9299 255.826 48.5457C255.776 56.6248 255.705 74.2675 255.826 80.2056C255.977 87.6283 251.438 86.7194 248.866 87.3253C246.293 87.9312 239.182 86.2649 232.827 88.0827C227.743 89.537 224.152 97.2727 222.991 100.959C222.689 98.5855 221.811 93.1422 220.722 90.355C219.632 87.5677 214.72 88.1837 212.4 88.8401C193.788 90.052 194.73 85.2314 193.789 81.7205Z" fill="white"/>
    <path fill-rule="evenodd" clip-rule="evenodd" d="M240.879 43.4995C244.578 43.4994 248.028 43.4993 251.011 43.4994C252.668 43.4995 253.908 43.8322 254.812 44.4818C255.722 45.1366 256.227 46.0673 256.501 47.1302C256.772 48.1824 256.826 49.3951 256.817 50.6592C256.813 51.236 256.796 51.8328 256.779 52.4362C256.777 52.497 256.775 52.5578 256.773 52.6187C256.754 53.2866 256.736 53.9632 256.736 54.6442V81.6706L256.735 81.6866C256.714 82.0235 256.701 82.3503 256.688 82.6696L256.685 82.7543C256.674 83.0423 256.663 83.3257 256.647 83.597C256.611 84.1886 256.549 84.7638 256.385 85.2769C256.217 85.8011 255.94 86.2726 255.473 86.6398C255.011 87.0022 254.405 87.2321 253.63 87.3479C249.221 88.0066 246.627 88.0066 241.165 88.0064L240.886 88.0064C234.666 88.0064 231.605 89.0539 229.515 91.213C228.454 92.3091 227.615 93.72 226.753 95.5114C226.238 96.5818 225.726 97.7614 225.157 99.0744C224.767 99.9737 224.35 100.936 223.886 101.968C223.851 102.044 223.8 102.138 223.723 102.22C223.642 102.305 223.505 102.406 223.312 102.415C223.121 102.425 222.977 102.341 222.892 102.271C222.809 102.203 222.749 102.122 222.708 102.056C222.554 101.812 222.424 101.405 222.307 100.961C222.062 100.033 221.801 98.6354 221.541 97.1544C221.454 96.6618 221.367 96.1593 221.281 95.6592C221.106 94.6448 220.933 93.6404 220.765 92.7487C220.64 92.0841 220.519 91.4898 220.405 91.0078C220.288 90.5144 220.186 90.1745 220.104 89.9963C219.991 89.7489 219.71 89.5395 219.157 89.4104C218.611 89.2833 217.906 89.2607 217.125 89.2971C216.356 89.3329 215.551 89.4235 214.8 89.508L214.776 89.5107C214.036 89.5939 213.329 89.6735 212.807 89.6735C212.4 89.6735 211.774 89.7167 210.975 89.7718C210.661 89.7934 210.32 89.8169 209.956 89.8404C208.681 89.9224 207.15 90.0005 205.558 89.9824C203.967 89.9642 202.304 89.8498 200.765 89.5425C199.231 89.236 197.788 88.7312 196.664 87.9101C194.144 86.0684 193.131 83.9752 192.79 81.6396C192.545 79.9641 192.648 78.1372 192.755 76.2251C192.794 75.5444 192.833 74.8529 192.857 74.1536C192.927 72.1254 193.06 70.0968 193.198 68.0757C193.21 67.8989 193.223 67.722 193.235 67.5453C193.361 65.7 193.487 63.8614 193.569 62.0246C193.749 57.9995 193.714 54.0071 193.011 50.0461C192.963 49.7743 193.144 49.5147 193.416 49.4664C193.688 49.4181 193.947 49.5994 193.995 49.8713C194.717 53.9375 194.749 58.0137 194.568 62.0691C194.486 63.9186 194.359 65.769 194.232 67.6122C194.22 67.7895 194.208 67.9668 194.196 68.1439C194.058 70.1654 193.925 72.1787 193.856 74.188C193.83 74.9477 193.789 75.6754 193.75 76.3756C193.644 78.2499 193.55 79.9274 193.779 81.495C194.084 83.5846 194.966 85.4307 197.254 87.1027C198.215 87.8048 199.501 88.2701 200.961 88.5618C202.417 88.8526 204.013 88.9646 205.569 88.9824C207.124 89.0002 208.626 88.9239 209.892 88.8424C210.231 88.8206 210.556 88.7982 210.862 88.7771C211.681 88.7205 212.363 88.6735 212.807 88.6735C213.26 88.6735 213.904 88.6024 214.669 88.5164L214.702 88.5127C215.443 88.4293 216.277 88.3355 217.079 88.2981C217.888 88.2605 218.702 88.2777 219.384 88.4366C220.057 88.5935 220.709 88.9165 221.013 89.58C221.14 89.8572 221.261 90.2839 221.378 90.777C221.498 91.2814 221.622 91.8934 221.748 92.5637C221.917 93.4627 222.092 94.4805 222.268 95.4995C222.354 95.9977 222.44 96.4962 222.525 96.9812C222.787 98.4692 223.042 99.8253 223.274 100.706C223.284 100.744 223.294 100.782 223.304 100.817C223.628 100.085 223.934 99.381 224.226 98.7072C224.804 97.3747 225.331 96.1603 225.852 95.0778C226.729 93.2538 227.624 91.7289 228.796 90.5174C231.174 88.0612 234.582 87.0064 240.886 87.0064L241.151 87.0064C246.622 87.0066 249.151 87.0061 253.482 86.3588C254.146 86.2597 254.571 86.0762 254.855 85.8535C255.132 85.6356 255.312 85.3501 255.433 84.9723C255.557 84.5834 255.614 84.1114 255.649 83.5374C255.664 83.2771 255.675 83.0043 255.686 82.7139L255.689 82.631C255.701 82.3164 255.715 81.9838 255.736 81.6386V54.6442C255.736 53.9473 255.755 53.2579 255.774 52.5901C255.776 52.5296 255.777 52.4693 255.779 52.4092C255.797 51.8035 255.813 51.2177 255.817 50.6523C255.826 49.4039 255.77 48.2999 255.532 47.3799C255.298 46.4706 254.895 45.7735 254.228 45.2936C253.553 44.8085 252.545 44.4995 251.011 44.4994C248.028 44.4993 244.578 44.4994 240.879 44.4995C238.057 44.4996 235.09 44.4997 232.076 44.4997L232.059 44.4997C216.439 44.4998 210.653 44.4998 194.368 45.5331C194.093 45.5505 193.855 45.3413 193.838 45.0657C193.82 44.7901 194.029 44.5526 194.305 44.5351C210.62 43.4998 216.43 43.4998 232.061 43.4997L232.076 43.4997C235.09 43.4997 238.057 43.4996 240.879 43.4995ZM222.968 101.569C222.968 101.57 222.968 101.569 222.969 101.567C222.969 101.568 222.968 101.569 222.968 101.569Z" fill="black"/>
    <path fill-rule="evenodd" clip-rule="evenodd" d="M218.93 60.4197C219.089 60.6457 219.034 60.9575 218.808 61.1161C218.412 61.394 217.485 61.9385 216.364 62.5873C216.007 62.7934 215.629 63.0112 215.238 63.2365C214.383 63.7288 213.467 64.2567 212.582 64.775C211.292 65.5311 210.082 66.2591 209.245 66.8174C208.991 66.9873 208.778 67.1365 208.611 67.2625C211.794 68.6939 214.761 69.7849 216.81 70.5385C216.85 70.5534 216.891 70.5682 216.931 70.5829C218.004 70.9778 218.842 71.2871 219.29 71.499C219.403 71.5522 219.512 71.6089 219.599 71.6682C219.642 71.6971 219.698 71.739 219.749 71.7946C219.79 71.8391 219.893 71.9607 219.903 72.1471C219.917 72.3829 219.78 72.5422 219.672 72.6182C219.579 72.6828 219.484 72.7082 219.432 72.7197C219.32 72.7447 219.19 72.7505 219.065 72.7505C218.797 72.7505 218.577 72.5384 218.566 72.2725C218.127 72.0899 217.456 71.8415 216.585 71.5214C216.543 71.506 216.501 71.4905 216.459 71.4748C214.287 70.6761 211.053 69.4869 207.618 67.9098C207.482 67.8474 207.33 67.7121 207.293 67.4895C207.263 67.3083 207.329 67.1638 207.366 67.0961C207.442 66.9556 207.568 66.8309 207.674 66.7362C207.905 66.5289 208.263 66.2705 208.69 65.9854C209.554 65.4095 210.786 64.6686 212.077 63.9122C212.964 63.392 213.887 62.8608 214.743 62.3675C215.133 62.1428 215.51 61.926 215.863 61.7216C217.005 61.0613 217.883 60.5437 218.234 60.2975C218.46 60.1389 218.772 60.1936 218.93 60.4197Z" fill="black"/>
    <path fill-rule="evenodd" clip-rule="evenodd" d="M229.427 59.8937C229.68 60.0044 229.795 60.2993 229.684 60.5522L224.241 72.9838C224.13 73.2368 223.835 73.352 223.582 73.2413C223.329 73.1305 223.214 72.8357 223.325 72.5827L228.768 60.1511C228.879 59.8982 229.174 59.7829 229.427 59.8937Z" fill="black"/>
    <path fill-rule="evenodd" clip-rule="evenodd" d="M234.13 60.7919C234.282 60.561 234.593 60.4965 234.823 60.6477C235.527 61.1101 236.227 61.5751 236.925 62.0391C238.879 63.3381 240.822 64.6295 242.827 65.8363C242.868 65.8609 242.91 65.886 242.953 65.9114C243.263 66.0974 243.612 66.306 243.93 66.5437C244.295 66.8159 244.653 67.1488 244.903 67.577C245.042 67.8149 244.961 68.1211 244.722 68.261C244.483 68.4008 244.177 68.3214 244.038 68.0835C243.881 67.8154 243.638 67.5764 243.329 67.3454C243.054 67.1401 242.752 66.959 242.437 66.7702C242.394 66.7447 242.351 66.7189 242.308 66.693C240.281 65.4737 238.311 64.1641 236.351 62.8613C235.657 62.3998 234.964 61.9391 234.27 61.4836C234.04 61.3324 233.977 61.0227 234.13 60.7919Z" fill="black"/>
    <path fill-rule="evenodd" clip-rule="evenodd" d="M243.268 68.6825C242.665 69.0111 242.016 69.3653 241.631 69.5499C240.512 70.0863 239.376 70.5835 238.249 71.0766C238.048 71.1647 237.847 71.2526 237.647 71.3407C236.32 71.9231 235.009 72.5101 233.734 73.1679C233.488 73.2948 233.186 73.1989 233.06 72.9539C232.935 72.7088 233.032 72.4073 233.278 72.2804C234.584 71.6071 235.92 71.0093 237.248 70.4261C237.451 70.3372 237.653 70.2487 237.855 70.1602C238.982 69.6669 240.1 69.1776 241.202 68.6494C241.561 68.4772 242.17 68.1451 242.764 67.8209C242.974 67.7062 243.183 67.5924 243.378 67.4871C243.737 67.2932 244.064 67.1204 244.247 67.04C244.289 67.0215 244.352 66.9953 244.414 66.9791C244.415 66.979 244.415 66.9788 244.416 66.9786C244.436 66.9735 244.529 66.9487 244.641 66.9663C244.704 66.9763 244.853 67.0127 244.965 67.1597C245.086 67.3193 245.073 67.4903 245.053 67.5783C245.034 67.6611 244.998 67.7197 244.982 67.7446C244.963 67.7747 244.943 67.7981 244.93 67.8132C244.904 67.8433 244.877 67.8689 244.856 67.8873C244.814 67.9255 244.761 67.968 244.702 68.0127C244.591 68.097 244.457 68.1284 244.329 68.1109C244.195 68.1804 244.033 68.2668 243.85 68.3656C243.67 68.4633 243.471 68.5714 243.268 68.6825Z" fill="black"/>
    </g>
    <defs>
    <radialGradient id="paint0_radial_81_21037" cx="0" cy="0" r="1" gradientUnits="userSpaceOnUse" gradientTransform="translate(106.449 163.736) rotate(72.935) scale(28.9837 70.325)">
    <stop stop-opacity="0.43"/>
    <stop offset="1" stop-opacity="0"/>
    </radialGradient>
    <clipPath id="clip0_81_21037">
    <rect width="320" height="200" fill="white"/>
    </clipPath>
    </defs>
    </svg>
    