<svg xmlns="http://www.w3.org/2000/svg" viewBox="0 0 320 200" width="320" height="200" fill="currentColor"><g clip-path="url(#a)"><path fill="url(#b)" fill-opacity=".15" d="M190.521 161.561c.5 19.346-36.734 36.004-83.165 37.205-46.432 1.202-84.478-13.508-84.978-32.854-.501-19.347 36.733-36.004 83.165-37.206 46.431-1.201 84.477 13.508 84.978 32.855Z"/><path fill="#000" fill-rule="evenodd" d="M96.046 42.09a.5.5 0 0 1 .524.476l.348 7.317a.5.5 0 0 1-.999.047l-.348-7.317a.5.5 0 0 1 .475-.523ZM96.712 54.984a.5.5 0 0 1 .552.442l.697 6.272a.5.5 0 1 1-.994.11l-.697-6.271a.5.5 0 0 1 .442-.553ZM97.813 68.57a.5.5 0 0 1 .5.5v7.317a.5.5 0 0 1-1 0V69.07a.5.5 0 0 1 .5-.5ZM97.813 82.856a.5.5 0 0 1 .5.5v7.666a.5.5 0 0 1-1 0v-7.666a.5.5 0 0 1 .5-.5ZM98.107 96.1a.5.5 0 0 1 .55.443c.289 2.682.508 5.349.7 8.032a.5.5 0 1 1-.998.071c-.191-2.676-.41-5.33-.695-7.996a.5.5 0 0 1 .443-.55ZM107.917 58.466a.5.5 0 0 1 .5.5v8.71a.5.5 0 0 1-1 0v-8.71a.5.5 0 0 1 .5-.5ZM108.243 75.888a.5.5 0 0 1 .522.477l.348 8.014a.5.5 0 0 1-.999.044l-.348-8.014a.5.5 0 0 1 .477-.521ZM108.962 90.173a.5.5 0 0 1 .5.5v10.453a.5.5 0 0 1-1 0V90.673a.5.5 0 0 1 .5-.5ZM119.746 62.996a.5.5 0 0 1 .517.482c.075 2.159.255 4.307.436 6.467.091 1.087.182 2.176.26 3.271a.5.5 0 1 1-.997.071c-.077-1.068-.167-2.144-.257-3.224-.182-2.176-.366-4.368-.441-6.55a.5.5 0 0 1 .482-.517ZM120.071 79.025a.5.5 0 0 1 .539.457c.222 2.686.35 5.357.35 8.055a.5.5 0 0 1-1 0c0-2.666-.127-5.31-.346-7.972a.5.5 0 0 1 .457-.54ZM119.741 95.052a.5.5 0 0 1 .522.476c.041.89.071 1.776.1 2.66.092 2.729.182 5.425.592 8.089a.5.5 0 1 1-.989.152c-.419-2.728-.512-5.509-.604-8.252-.029-.872-.058-1.74-.098-2.603a.5.5 0 0 1 .477-.522ZM133.353 98.884a.5.5 0 0 1 .5.5v10.104a.5.5 0 0 1-1 0V99.384a.5.5 0 0 1 .5-.5ZM132.307 75.19a.5.5 0 0 1 .5.5v13.59a.5.5 0 0 1-1 0V75.69a.5.5 0 0 1 .5-.5ZM132.275 53.589a.5.5 0 0 1 .531.467c.211 3.266.333 6.494.35 9.786a.5.5 0 0 1-1 .005c-.017-3.27-.138-6.478-.348-9.727a.5.5 0 0 1 .467-.531ZM119.046 37.909a.5.5 0 0 1 .52.479c.129 3.137.244 6.274.349 9.411a.5.5 0 0 1-1 .034c-.104-3.136-.22-6.27-.348-9.404a.5.5 0 0 1 .479-.52ZM74.037 42.119a.5.5 0 0 1 .523.476l.348 7.317a.5.5 0 1 1-.998.047l-.349-7.317a.5.5 0 0 1 .476-.523ZM74.702 55.014a.5.5 0 0 1 .552.441l.697 6.272a.5.5 0 0 1-.994.11l-.697-6.271a.5.5 0 0 1 .442-.552ZM75.803 68.6a.5.5 0 0 1 .5.5v7.316a.5.5 0 1 1-1 0V69.1a.5.5 0 0 1 .5-.5ZM75.803 82.885a.5.5 0 0 1 .5.5v7.665a.5.5 0 1 1-1 0v-7.665a.5.5 0 0 1 .5-.5ZM76.097 96.129a.5.5 0 0 1 .551.443c.288 2.683.507 5.35.699 8.032a.499.499 0 1 1-.998.071 224.6 224.6 0 0 0-.695-7.996.5.5 0 0 1 .444-.55ZM85.907 58.495a.5.5 0 0 1 .5.5v8.71a.5.5 0 1 1-1 0v-8.71a.5.5 0 0 1 .5-.5ZM86.234 75.917a.5.5 0 0 1 .52.477l.35 8.014a.5.5 0 1 1-1 .044l-.348-8.014a.5.5 0 0 1 .478-.521ZM86.952 90.202a.5.5 0 0 1 .5.5v10.453a.5.5 0 0 1-1 0V90.702a.5.5 0 0 1 .5-.5Z" clip-rule="evenodd"/><path fill="#A3E9FF" d="M104.145 155.937c-.55 4.858-25.092 5.225-30.7 1.606l-2.12-29.476-1.73-10.666c13.106 6.332 35.22 3.101 36.004-1.714 0 14.399 0 27.399-1.454 40.25Z"/><path fill="#A3E9FF" d="M71.48 119.016c-1.104-.553-1.776-1.356-1.685-2.193 1.804-.926 3.694-1.686 5.864-2.175 7.594-1.712 16.88-1.936 24.629-.864 1.359.188 7.899 1.599 4.647 3.866-4.088 2.849-10.656 3.163-15.5 3.394l-.043.002c-5.35.256-12.98.438-17.912-2.03Z"/><path fill="#000" fill-rule="evenodd" d="M85.681 112.117c4.794-.147 11.816-.002 15.956 1.239a.5.5 0 0 1 .301.25c.833.205 1.81.499 2.616.879.369.175.72.375 1.008.603.285.225.542.504.676.846a1.35 1.35 0 0 1-.067 1.132c-.182.359-.509.686-.95.994-2.133 1.486-4.882 2.293-7.67 2.762-2.788.468-5.665.606-8.08.721l-.055.003c-2.678.127-5.948.238-9.173.005-3.217-.232-6.434-.81-8.987-2.088-.866-.433-1.604-1.077-1.867-1.861-1.455.785-2.872 1.676-4.372 2.623a.5.5 0 1 1-.534-.845c1.64-1.036 3.218-2.028 4.865-2.889.151-.586.574-1.119 1.222-1.577.755-.535 1.836-.957 3.056-1.297 1.23-.342 2.64-.612 4.083-.822 2.884-.422 5.93-.615 7.972-.678Zm-15.38 5.01c.081.463.515.998 1.402 1.442 2.38 1.191 5.444 1.756 8.613 1.985 3.16.228 6.38.12 9.052-.007l.043-.002c2.426-.116 5.25-.252 7.975-.709 2.729-.459 5.308-1.234 7.263-2.597.372-.259.552-.471.63-.625.067-.133.062-.226.027-.316-.044-.113-.153-.258-.365-.426a4.233 4.233 0 0 0-.814-.482c-1.333-.629-3.251-1.02-3.908-1.111-7.695-1.065-16.921-.84-24.45.857-2.01.453-3.777 1.144-5.468 1.991Zm1.51-1.786c.56-.278 1.266-.533 2.084-.76.203-.057.412-.112.627-.164-.95.26-1.848.571-2.712.924Z" clip-rule="evenodd"/><path fill="#000" fill-rule="evenodd" d="M71.276 113.738a.5.5 0 0 1 0 .707c-.927.927-1.142 1.323-1.176 1.69-.018.198.013.429.098.787a24.682 24.682 0 0 0 .154.603c.06.229.125.487.193.778.006.028.01.056.012.084l.01.187c.863 15.087 1.807 31.591 2.75 38.983a.5.5 0 0 1-.991.127c-.95-7.432-1.894-23.967-2.755-39.023l-.01-.174a28.507 28.507 0 0 0-.206-.821c-.047-.182-.092-.354-.13-.513-.09-.379-.154-.741-.12-1.109.07-.765.55-1.392 1.464-2.306a.5.5 0 0 1 .707 0ZM105.807 115.898a.5.5 0 0 1 .495.505l-.5-.005-.5-.006a.5.5 0 0 1 .505-.494Zm-.005.5-.5-.006-.004.342-.012.975a1293.778 1293.778 0 0 1-.284 15.005c-.222 8.78-.586 18.744-1.152 23.581a.5.5 0 1 0 .993.116c.573-4.892.937-14.906 1.158-23.672a1262.8 1262.8 0 0 0 .297-15.994l.004-.342-.5-.005Z" clip-rule="evenodd"/><path fill="#000" fill-rule="evenodd" d="M105.649 144.789a.5.5 0 0 1 .074.703c-1.283 1.586-3.647 2.81-6.485 3.662-2.858.858-6.274 1.361-9.752 1.449-3.478.089-7.037-.237-10.178-1.05-3.134-.812-5.897-2.119-7.733-4.029a.5.5 0 1 1 .72-.693c1.658 1.724 4.222 2.966 7.264 3.753 3.034.786 6.497 1.106 9.902 1.02 3.404-.087 6.73-.579 9.49-1.407 2.777-.834 4.903-1.985 5.995-3.334a.5.5 0 0 1 .703-.074Z" clip-rule="evenodd"/><path fill="#000" fill-rule="evenodd" d="M105.65 150.159a.5.5 0 0 1 .074.703c-1.284 1.586-3.647 2.81-6.486 3.662-2.857.858-6.274 1.361-9.751 1.449-3.478.089-7.037-.237-10.178-1.05-3.134-.811-5.898-2.119-7.734-4.029a.5.5 0 1 1 .72-.693c1.658 1.724 4.223 2.966 7.264 3.754 3.034.785 6.497 1.105 9.902 1.019 3.405-.087 6.731-.579 9.49-1.407 2.777-.834 4.904-1.985 5.996-3.334a.5.5 0 0 1 .703-.074Z" clip-rule="evenodd"/><path fill="#000" fill-rule="evenodd" d="M105.479 155.848a.5.5 0 0 1 .074.703c-1.283 1.586-3.646 2.81-6.485 3.662-2.858.858-6.274 1.361-9.752 1.449-3.478.089-7.037-.237-10.178-1.05-3.134-.811-5.897-2.119-7.733-4.029a.5.5 0 1 1 .72-.693c1.658 1.724 4.222 2.966 7.264 3.754 3.034.785 6.497 1.105 9.902 1.019 3.404-.087 6.73-.579 9.49-1.407 2.777-.834 4.903-1.985 5.995-3.334a.5.5 0 0 1 .703-.074ZM69.985 122.035a.5.5 0 0 1 .377.598c-.116.513-.462 1.421-.867 2.479l-.132.346c-.47 1.232-1.012 2.679-1.44 4.102-.43 1.431-.732 2.799-.741 3.88-.01 1.107.28 1.714.799 1.953.873.403 1.928.323 3.157-.19 1.228-.513 2.565-1.432 3.936-2.595 2.743-2.324 5.523-5.527 7.743-8.088a.5.5 0 1 1 .755.655c-2.207 2.547-5.039 5.813-7.851 8.196-1.406 1.191-2.833 2.185-4.198 2.755-1.365.57-2.735.741-3.961.175-1.084-.5-1.39-1.667-1.38-2.869.01-1.228.346-2.707.783-4.16.44-1.462.994-2.938 1.463-4.17l.117-.305c.423-1.108.743-1.946.842-2.385a.5.5 0 0 1 .598-.377Z" clip-rule="evenodd"/><path fill="#000" fill-rule="evenodd" d="M84.165 123.599c-.79-.068-1.728.166-2.293.425-.757.349-.901 1.169-.634 1.76.041.09.053.185.04.276l.01.006c1.104.643 2.218.927 3.332.452.344-.147.566-.366.701-.644.14-.288.203-.677.153-1.178-.04-.403-.196-.641-.394-.795-.214-.165-.525-.269-.915-.302Zm-3.624 2.829a.501.501 0 0 0 .244.502c1.23.718 2.697 1.161 4.228.507a2.307 2.307 0 0 0 1.208-1.127c.243-.5.31-1.086.248-1.712-.064-.654-.343-1.151-.777-1.487-.419-.324-.938-.465-1.442-.509-1-.085-2.112.2-2.795.514-1.376.632-1.564 2.116-1.128 3.08a.494.494 0 0 0 .215.232Z" clip-rule="evenodd"/><path fill="#A3E9FF" d="M129.497 159.711c-.55 4.858-25.092 5.225-30.7 1.607l-2.12-29.476-1.73-10.666c13.106 6.332 35.22 3.1 36.004-1.714 0 14.399 0 27.399-1.454 40.249Z"/><path fill="#A3E9FF" d="M131.269 119.594c-2.752 4.363-8.668 5.715-17.41 5.715-11.727 0-16.934-1.944-18.594-4 8.506-7.162 27.498-3.744 36.004-1.715Z"/><path fill="#A3E9FF" d="M96.832 122.791c-1.104-.553-1.775-1.356-1.685-2.193 1.804-.926 3.694-1.686 5.864-2.175 7.594-1.712 16.881-1.936 24.629-.864 1.359.188 7.899 1.599 4.647 3.865-4.088 2.85-10.656 3.164-15.5 3.395l-.043.002c-5.349.255-12.98.438-17.912-2.03Z"/><path fill="#000" fill-rule="evenodd" d="M111.033 115.892c4.794-.147 11.816-.002 15.956 1.239a.5.5 0 0 1 .301.25c.833.204 1.81.499 2.616.879.369.174.72.374 1.008.603.285.225.542.504.676.846a1.35 1.35 0 0 1-.067 1.132c-.182.359-.509.686-.95.993-2.133 1.487-4.882 2.294-7.67 2.762-2.788.469-5.665.606-8.08.722l-.055.002c-2.678.128-5.948.239-9.173.006-3.217-.233-6.434-.811-8.987-2.088-.866-.434-1.604-1.077-1.867-1.861-1.455.785-2.872 1.676-4.372 2.623a.5.5 0 0 1-.534-.845c1.64-1.036 3.218-2.029 4.865-2.889.151-.586.574-1.119 1.222-1.578.755-.534 1.837-.956 3.056-1.296 1.23-.342 2.641-.612 4.083-.823 2.884-.422 5.93-.615 7.972-.677Zm-15.38 5.01c.081.463.515.997 1.402 1.441 2.38 1.191 5.444 1.756 8.613 1.986 3.161.228 6.38.12 9.052-.008l.043-.002c2.426-.115 5.25-.251 7.975-.709 2.729-.458 5.308-1.233 7.263-2.596.372-.259.552-.472.63-.625.067-.133.062-.227.027-.317-.044-.112-.152-.257-.365-.425a4.284 4.284 0 0 0-.814-.483c-1.333-.628-3.251-1.019-3.908-1.11-7.695-1.065-16.921-.841-24.451.856-2.009.453-3.776 1.144-5.467 1.992Zm1.51-1.786c.56-.279 1.266-.533 2.084-.761.203-.056.412-.111.627-.164-.95.26-1.848.572-2.712.925Z" clip-rule="evenodd"/><path fill="#000" fill-rule="evenodd" d="M96.628 117.513a.5.5 0 0 1 0 .707c-.927.927-1.142 1.323-1.176 1.69-.018.198.013.429.098.787.035.147.077.306.124.488l.03.115c.06.229.125.486.193.778.006.027.01.056.012.084l.01.186c.863 15.088 1.807 31.591 2.75 38.984a.5.5 0 0 1-.991.127c-.95-7.433-1.894-23.968-2.755-39.023l-.01-.174a26.845 26.845 0 0 0-.206-.822c-.047-.182-.092-.353-.13-.512-.09-.379-.154-.742-.12-1.109.07-.766.55-1.392 1.464-2.306a.5.5 0 0 1 .707 0ZM131.159 119.672a.5.5 0 0 1 .495.506l-.5-.006-.5-.005a.5.5 0 0 1 .505-.495Zm-.005.5-.5-.005-.004.341-.012.976a1293.14 1293.14 0 0 1-.284 15.005c-.222 8.779-.586 18.743-1.152 23.581a.5.5 0 0 0 .993.116c.573-4.892.937-14.906 1.158-23.672a1262.8 1262.8 0 0 0 .297-15.994l.004-.342-.5-.006ZM115.635 137.05a.5.5 0 0 1-.707.013 76.045 76.045 0 0 1-1.419-1.414c-.296-.299-.603-.61-.949-.954a.501.501 0 0 1 .706-.709c.361.359.672.675.968.975.458.464.879.89 1.389 1.382a.5.5 0 0 1 .012.707ZM116.286 146.39a.5.5 0 0 1-.5-.5v-5.74a.5.5 0 0 1 1 0v5.74a.5.5 0 0 1-.5.5ZM120.894 141.711a.5.5 0 0 1-.694.139c-.568-.379-1.047-.783-1.874-1.48l-.595-.501a.499.499 0 1 1 .642-.766l.613.515c.824.694 1.251 1.055 1.769 1.4a.5.5 0 0 1 .139.693Z" clip-rule="evenodd"/><path fill="#000" fill-rule="evenodd" d="M116.724 149.781c-.554.151-1.15.094-1.77-.118a.5.5 0 0 1-.273-.719c-.509-.49-.823-1.269-.577-1.995.468-1.376 1.802-1.881 3.017-1.483.793.259 1.245.842 1.384 1.496a2.31 2.31 0 0 1-.396 1.815c-.368.5-.826.85-1.385 1.004Zm.552-1.561.026-.035c.21-.285.298-.675.225-1.016-.067-.317-.275-.608-.717-.753-.754-.247-1.487.055-1.759.855-.098.289.043.739.408 1.027a.891.891 0 0 0 .543.206c.178.002.395-.06.635-.269a.5.5 0 0 1 .639-.015ZM122.192 144.919c-.521.146-1.08.09-1.656-.111a.5.5 0 0 1-.282-.697c-.466-.468-.75-1.2-.523-1.883.211-.631.623-1.092 1.148-1.339.521-.244 1.119-.261 1.681-.073l-.158.474.158-.474c.746.248 1.168.807 1.297 1.426a2.22 2.22 0 0 1-.369 1.721c-.341.474-.77.809-1.296.956Zm.543-1.497a.402.402 0 0 0-.057-.045c.186-.26.266-.618.2-.931-.06-.29-.245-.552-.634-.682-.344-.114-.675-.094-.94.031-.261.122-.494.36-.624.749-.087.261.038.672.364.934.15.121.314.183.471.184.151.002.34-.051.554-.242a.502.502 0 0 1 .609-.043l-.002.002m.059.043.345.248-.345-.248M116.225 140.589a3.345 3.345 0 0 1-1.271-.199.5.5 0 0 1-.3-.663 2.819 2.819 0 0 1-.475-.791c-.151-.386-.217-.839-.075-1.259.468-1.377 1.802-1.881 3.017-1.484.793.259 1.245.842 1.384 1.496a2.31 2.31 0 0 1-.396 1.815 2.92 2.92 0 0 1-.636.643 1.75 1.75 0 0 1-1.248.442Zm.654-1.246c.147-.105.288-.246.423-.431l.404.296-.404-.296c.21-.285.298-.674.225-1.015-.067-.317-.275-.609-.717-.753-.754-.247-1.487.054-1.759.854-.042.125-.039.323.059.574.096.245.265.492.475.684.211.192.438.304.641.33h.002a1.338 1.338 0 0 0 .651-.243Z" clip-rule="evenodd"/><path fill="#000" fill-rule="evenodd" d="M131.001 148.563a.5.5 0 0 1 .074.704c-1.283 1.585-3.646 2.81-6.485 3.662-2.858.858-6.274 1.361-9.752 1.449-3.478.088-7.037-.238-10.178-1.051-3.133-.811-5.897-2.119-7.733-4.028a.5.5 0 0 1 .72-.694c1.658 1.724 4.222 2.967 7.264 3.754 3.034.785 6.497 1.106 9.902 1.019 3.405-.086 6.731-.579 9.489-1.407 2.778-.833 4.904-1.985 5.996-3.334a.501.501 0 0 1 .703-.074Z" clip-rule="evenodd"/><path fill="#000" fill-rule="evenodd" d="M131.002 153.934a.5.5 0 0 1 .074.703c-1.284 1.585-3.647 2.81-6.486 3.662-2.857.858-6.274 1.361-9.751 1.449-3.478.088-7.037-.238-10.178-1.051-3.134-.811-5.898-2.119-7.734-4.028a.5.5 0 1 1 .721-.693c1.657 1.723 4.222 2.966 7.263 3.753 3.034.785 6.497 1.106 9.902 1.019 3.405-.086 6.731-.579 9.49-1.407 2.777-.833 4.904-1.984 5.996-3.333a.5.5 0 0 1 .703-.074Z" clip-rule="evenodd"/><path fill="#000" fill-rule="evenodd" d="M130.831 159.622a.5.5 0 0 1 .074.704c-1.283 1.585-3.646 2.81-6.485 3.662-2.858.858-6.274 1.361-9.752 1.449-3.478.088-7.037-.238-10.178-1.051-3.133-.811-5.897-2.119-7.733-4.028a.5.5 0 0 1 .72-.693c1.658 1.723 4.222 2.966 7.264 3.753 3.034.785 6.497 1.106 9.902 1.019 3.405-.086 6.731-.579 9.489-1.407 2.778-.833 4.904-1.984 5.996-3.333a.5.5 0 0 1 .703-.075ZM95.337 125.81a.5.5 0 0 1 .377.598c-.116.513-.463 1.42-.867 2.479l-.132.346c-.47 1.232-1.012 2.678-1.44 4.101-.43 1.432-.732 2.799-.741 3.881-.01 1.107.28 1.713.799 1.953.873.403 1.928.323 3.157-.19 1.228-.513 2.565-1.432 3.937-2.595 2.742-2.324 5.522-5.528 7.742-8.088a.5.5 0 1 1 .755.654c-2.207 2.548-5.039 5.814-7.851 8.197-1.405 1.191-2.832 2.185-4.198 2.755-1.365.569-2.734.741-3.961.175-1.084-.5-1.39-1.667-1.38-2.87.01-1.228.346-2.706.783-4.159.44-1.462.994-2.939 1.464-4.17l.116-.306c.423-1.107.743-1.945.842-2.384a.5.5 0 0 1 .598-.377Z" clip-rule="evenodd"/><path fill="#000" fill-rule="evenodd" d="M109.517 127.373c-.791-.067-1.728.167-2.292.426-.758.348-.902 1.168-.635 1.76a.492.492 0 0 1 .04.276l.011.006c1.103.643 2.217.927 3.331.451.344-.147.566-.365.701-.644.14-.288.203-.676.153-1.177-.04-.404-.196-.641-.394-.795-.214-.166-.524-.269-.915-.303Zm-3.623 2.83a.497.497 0 0 0 .243.501c1.23.718 2.697 1.162 4.228.508.551-.236.962-.618 1.208-1.128.243-.5.31-1.086.248-1.712-.064-.653-.343-1.151-.777-1.487-.419-.324-.938-.465-1.442-.508-1-.085-2.112.199-2.795.514-1.376.632-1.564 2.116-1.128 3.08a.505.505 0 0 0 .215.232Z" clip-rule="evenodd"/><path fill="#fff" d="M193.041 118.686c5.169-7.116-2.585-9.704-7.754-10.997-23.778 0-20.943 16.819-11.25 20.422-8.624 0-12.072 8.895-12.072 17.203-5.169 12.938-5.686 26.491 0 20.281 7.108-7.762 9.781-12.753 15.597-11.459 5.815 1.293 16.8 23.436 19.386 16.32 2.068-5.693 1.783-13.565-1.233-23.483.001-1.291 19.665-7.245-8.277-22.351.553-.003 2.143-1.173 5.603-5.936Z"/><path fill="#000" fill-rule="evenodd" d="M180.895 107.124c2.91-.384 5.884-.35 8.767.356 2.148.527 4.857 1.552 5.636 4.196.2.682.274 1.385.248 2.094.263 2.202-.495 4.302-1.838 6.171-1.35 1.878-3.308 3.549-5.495 4.905a26.935 26.935 0 0 1-6.956 3.05c-2.323.636-4.576.865-6.383.532a12.36 12.36 0 0 1-3.511-1.247 10.122 10.122 0 0 1-.645-.289 5.925 5.925 0 0 1-1.699-1.282c-.265-.219-.521-.45-.768-.689-1.858-1.804-3.197-4.174-3.363-6.827-.184-2.941 1.529-5.115 3.704-6.667 1.394-.995 3.012-1.762 4.531-2.341 1.833-.826 3.851-1.301 5.973-1.671a32.861 32.861 0 0 1 1.799-.291Zm-1.648 1.281a85.293 85.293 0 0 1 1.782-.29c2.811-.371 5.657-.335 8.395.337 2.156.528 4.309 1.449 4.915 3.507.509 1.731.058 3.737-.9 5.653-.954 1.906-2.372 3.646-3.668 4.801-2.139 1.908-5.446 3.479-8.919 4.229-3.21.693-6.488.669-9.065-.368a12.793 12.793 0 0 1-2.077-1.389c-.935-1.015-1.618-2.442-2.007-3.978-.568-2.25-.453-4.533.265-5.803 1.444-2.553 3.32-4.089 5.538-5.094a31.036 31.036 0 0 1 2.301-.769 37.154 37.154 0 0 1 3.44-.836Zm-11.228 4.775c-1.388 1.303-2.255 2.897-2.133 4.852a8.449 8.449 0 0 0 .866 3.192l-.018-.072c-.598-2.365-.535-4.949.364-6.54.291-.515.598-.991.921-1.432ZM191.046 131.612a.5.5 0 0 1 .642.296c5.302 14.374 6.972 25.245 6.825 32.089-.073 3.406-.596 5.88-1.401 7.287-.402.702-.922 1.222-1.572 1.369-.674.153-1.317-.132-1.863-.659-1.726-1.667-3.291-3.805-4.758-6.035a146.47 146.47 0 0 1-2.144-3.39l-.23-.372c-.619-1-1.225-1.981-1.828-2.917-1.36-2.108-2.675-3.942-4.014-5.194-1.34-1.251-2.627-1.851-3.952-1.661-1.391.199-3.005 1.2-4.722 2.679-1.7 1.464-3.43 3.333-5.053 5.162-.434.489-.861.975-1.277 1.45-1.132 1.291-2.189 2.496-3.099 3.416-.622.629-1.201 1.152-1.71 1.486a2.78 2.78 0 0 1-.774.371 1.21 1.21 0 0 1-.788-.032c-.641-.186-1.097-.654-1.409-1.25-.314-.602-.501-1.368-.6-2.219-.197-1.705-.054-3.886.275-6.125a52.679 52.679 0 0 1 1.432-6.607c.576-2.016 1.218-3.759 1.797-4.803a.5.5 0 0 1 .874.485c-.522.942-1.139 2.596-1.709 4.592a51.542 51.542 0 0 0-1.404 6.478c-.325 2.206-.454 4.287-.271 5.865.091.79.257 1.421.492 1.871.231.442.508.674.823.759a.558.558 0 0 1 .086.032c.001 0 .009.004.028.005a.434.434 0 0 0 .115-.017c.116-.031.276-.105.485-.242.418-.273.937-.735 1.547-1.352.887-.897 1.913-2.067 3.037-3.348.421-.48.856-.976 1.302-1.479 1.626-1.832 3.393-3.744 5.148-5.256 1.739-1.498 3.54-2.669 5.233-2.911 1.759-.252 3.339.577 4.776 1.92 1.438 1.343 2.809 3.269 4.172 5.383.608.944 1.22 1.933 1.838 2.933l.23.371a149.439 149.439 0 0 0 2.13 3.368c1.454 2.212 2.971 4.276 4.617 5.864.404.391.718.456.947.404.254-.058.585-.297.925-.891.678-1.185 1.198-3.453 1.27-6.811.143-6.683-1.491-17.425-6.764-31.722a.5.5 0 0 1 .296-.642Z" clip-rule="evenodd"/><path fill="#000" fill-rule="evenodd" d="M169.74 115.962a.5.5 0 0 1 .632.316c.865 2.598 3.798 3.864 7.291 3.944 3.467.079 7.212-1.032 9.356-2.871a.5.5 0 1 1 .651.758c-2.38 2.042-6.389 3.196-10.029 3.113-3.615-.083-7.144-1.404-8.217-4.628a.499.499 0 0 1 .316-.632ZM188.153 123.874a.5.5 0 0 0 .156.69c7.143 4.511 11.044 8.141 12.813 11.028.88 1.436 1.217 2.662 1.189 3.707-.028 1.038-.418 1.946-1.079 2.749-1.345 1.632-3.791 2.803-6.432 3.606-2.621.797-5.344 1.205-7.149 1.367a.5.5 0 0 0 .09.996c1.852-.166 4.646-.584 7.35-1.406 2.684-.816 5.372-2.058 6.912-3.927.781-.948 1.273-2.064 1.308-3.358.034-1.288-.385-2.704-1.336-4.256-1.893-3.089-5.956-6.82-13.132-11.352a.501.501 0 0 0-.69.156Z" clip-rule="evenodd"/><path fill="#fff" d="m157.671 123.7 12.777.882 20.267 1.764-2.203 14.556h8.812l-8.812 6.617-32.163-2.206 1.322-21.613Z"/><path fill="#000" fill-rule="evenodd" d="M198.161 140.6a.5.5 0 0 0-.701-.093c-.564.433-2.866 2.08-5.041 3.628a3983.41 3983.41 0 0 1-2.911 2.067l-.934.662-.35.248.288.408.289.408.351-.248.934-.662c.778-.552 1.827-1.296 2.913-2.069 2.164-1.54 4.488-3.202 5.07-3.648a.5.5 0 0 0 .092-.701Zm-10.057 7.209a.5.5 0 0 0 .697.119l-.289-.408-.288-.408a.5.5 0 0 0-.12.697Z" clip-rule="evenodd"/><path fill="#000" fill-rule="evenodd" d="M193.238 141.404h4.527a.5.5 0 0 0 0-1H188.953a.5.5 0 0 0 0 1h4.285Z" clip-rule="evenodd"/><path fill="#000" fill-rule="evenodd" d="M191.227 124.529a.5.5 0 0 0-.565.424l.495.071.495.07a.5.5 0 0 0-.425-.565Zm-.07.495.495.07-.133.93-.349 2.461c-.289 2.04-.675 4.768-1.06 7.525-.386 2.756-.771 5.54-1.06 7.689a283.864 283.864 0 0 0-.349 2.662 55.092 55.092 0 0 0-.122 1.06l-.005.073-.001.025a.5.5 0 0 1-1 0c0-.088.016-.256.037-.452.023-.211.057-.491.099-.83.085-.677.205-1.596.35-2.672.289-2.151.675-4.937 1.06-7.694a4928.2 4928.2 0 0 1 1.061-7.527l.349-2.46.133-.93.495.07Z" clip-rule="evenodd"/><path fill="#000" fill-rule="evenodd" d="M156.292 123.662a.499.499 0 0 0 .46.536l34.366 2.647a.5.5 0 0 0 .077-.997l-34.366-2.647a.5.5 0 0 0-.537.461Z" clip-rule="evenodd"/><path fill="#000" fill-rule="evenodd" d="M157.701 122.32a.5.5 0 0 0-.529.469l-1.322 22.055a.501.501 0 0 0 .999.059l1.321-22.054a.5.5 0 0 0-.469-.529Z" clip-rule="evenodd"/><path fill="#000" fill-rule="evenodd" d="M155.41 145.28a.5.5 0 0 0 .465.533l32.163 2.206a.5.5 0 0 0 .068-.998l-32.163-2.205a.5.5 0 0 0-.533.464Z" clip-rule="evenodd"/><path fill="#fff" d="M195.813 100.182c-3.023 1.139-5.792 4.574-7.563 7.132l2.093.751c3.003-2.252 5.467-1.418 8.076 1.713 5.661 6.794 5.751 10.524 15.54 9.667 3.375-.621-1.432-.027-5.139-2.202-4.736-3.944 3.758-3.777 3.916-9.929.189-7.389-11.594-9.14-16.923-7.132Z"/><path fill="#000" fill-rule="evenodd" d="M206.492 99.746c-3.675-1.136-8.069-1.082-10.856-.032-1.609.607-3.118 1.809-4.431 3.152-1.319 1.349-2.472 2.872-3.366 4.163l-.371.535 2.96 1.063.215-.162c1.422-1.066 2.638-1.349 3.768-1.076 1.162.281 2.344 1.174 3.624 2.71 1.137 1.364 2.045 2.6 2.861 3.712l.561.762c.957 1.291 1.835 2.409 2.859 3.287 2.098 1.799 4.727 2.517 9.687 2.083l.023-.002.024-.004c.419-.077.73-.139.934-.191.095-.025.202-.056.289-.098a.62.62 0 0 0 .204-.153.516.516 0 0 0 .068-.58.554.554 0 0 0-.245-.239.91.91 0 0 0-.146-.058 2.833 2.833 0 0 0-.269-.061 21.481 21.481 0 0 0-.492-.081l-.268-.043c-1.229-.199-3.258-.58-5.017-1.601-1.14-.957-1.276-1.505-1.207-1.837.04-.192.162-.406.402-.665.24-.259.561-.525.949-.83.094-.075.192-.15.292-.228 1.509-1.172 3.611-2.806 3.692-5.945.103-4.037-3.081-6.447-6.744-7.58Zm-.296.956c3.513 1.087 6.126 3.247 6.04 6.599-.068 2.652-1.807 4.01-3.341 5.208l-.261.205c-.388.305-.766.614-1.065.937-.299.323-.554.696-.647 1.139-.195.935.379 1.839 1.578 2.837l.031.026.036.021c1.178.691 2.455 1.112 3.557 1.382-3.642.109-5.588-.61-7.157-1.955-.93-.797-1.749-1.831-2.706-3.123l-.553-.751c-.817-1.113-1.747-2.379-2.905-3.769-1.329-1.595-2.684-2.685-4.157-3.041-1.435-.347-2.881.025-4.383 1.088l-1.227-.44c.812-1.136 1.793-2.385 2.884-3.5 1.269-1.298 2.656-2.383 4.069-2.915 2.543-.958 6.705-1.032 10.207.052Z" clip-rule="evenodd"/><path fill="#fff" d="M193.92 82.734c-1.757-6.938 0-23.023 0-37.153h.914c16.039-.505 49.509-1.485 55.077-1.364 5.568.122 6.96 3.383 6.96 5-.05 8.078-.121 25.721 0 31.66.152 7.422-4.388 6.513-6.96 7.119-2.572.606-9.684-1.06-16.039.757-5.084 1.454-8.675 9.19-9.835 12.876-.303-2.373-1.18-7.816-2.27-10.604-1.089-2.787-6.002-2.17-8.322-1.514-18.611 1.212-18.491-2.695-19.525-6.777Z"/><path fill="#fff" d="M193.789 81.72c-.873-3.253-.858-24.439 0-34.992l.551-.78c16.039-.505 48.957-2.522 54.526-2.401 5.568.12 6.96 3.383 6.96 4.999-.05 8.079-.121 25.721 0 31.66.151 7.422-4.388 6.513-6.96 7.12-2.573.605-9.684-1.061-16.039.757-5.084 1.454-8.675 9.19-9.836 12.876-.302-2.374-1.18-7.817-2.269-10.604-1.09-2.787-6.002-2.171-8.322-1.515-18.612 1.212-17.67-3.609-18.611-7.12Z"/><path fill="#000" fill-rule="evenodd" d="M240.879 43.5h10.132c1.657 0 2.897.332 3.801.982.91.655 1.415 1.585 1.689 2.648.271 1.052.325 2.265.316 3.53-.004.576-.021 1.173-.038 1.776l-.006.183a71.119 71.119 0 0 0-.037 2.025v27.027l-.001.016c-.021.337-.034.663-.047.983l-.003.084c-.011.288-.022.572-.038.843-.036.592-.098 1.167-.262 1.68-.168.524-.445.996-.912 1.363-.462.362-1.068.592-1.843.708-4.409.659-7.003.659-12.465.658h-.279c-6.22 0-9.281 1.048-11.371 3.207-1.061 1.096-1.9 2.507-2.762 4.298-.515 1.07-1.027 2.25-1.596 3.563-.39.9-.807 1.862-1.271 2.894a.94.94 0 0 1-.163.252.606.606 0 0 1-.411.195.609.609 0 0 1-.42-.144.873.873 0 0 1-.184-.215c-.154-.244-.284-.651-.401-1.095-.245-.928-.506-2.326-.766-3.807-.087-.492-.174-.995-.26-1.495-.175-1.014-.348-2.019-.516-2.91a39.97 39.97 0 0 0-.36-1.741c-.117-.494-.219-.834-.301-1.012-.113-.247-.394-.456-.947-.586-.546-.127-1.251-.15-2.032-.113-.769.036-1.574.127-2.325.211l-.024.003c-.74.083-1.447.163-1.969.163-.407 0-1.033.043-1.832.098-.314.021-.655.045-1.019.068-1.275.082-2.806.16-4.398.142-1.591-.018-3.254-.132-4.793-.44-1.534-.306-2.977-.81-4.101-1.632-2.52-1.842-3.533-3.935-3.874-6.27-.245-1.676-.142-3.503-.035-5.415.039-.68.078-1.372.102-2.071.07-2.029.203-4.057.341-6.078l.037-.53c.126-1.846.252-3.685.334-5.521.18-4.026.145-8.018-.558-11.979a.5.5 0 0 1 .984-.175c.722 4.066.754 8.143.573 12.198-.082 1.85-.209 3.7-.336 5.543l-.036.532c-.138 2.021-.271 4.035-.34 6.044-.026.76-.067 1.487-.106 2.188-.106 1.874-.2 3.551.029 5.119.305 2.09 1.187 3.936 3.475 5.608.961.702 2.247 1.167 3.707 1.459 1.456.29 3.052.403 4.608.42 1.555.018 3.057-.058 4.323-.14.339-.021.664-.044.97-.065.819-.056 1.501-.103 1.945-.103.453 0 1.097-.072 1.862-.158l.033-.003a37.011 37.011 0 0 1 2.377-.215c.809-.038 1.623-.02 2.305.139.673.157 1.325.48 1.629 1.143.127.277.248.704.365 1.197.12.504.244 1.116.37 1.787.169.899.344 1.917.52 2.936l.257 1.481c.262 1.488.517 2.844.749 3.725l.03.111c.324-.732.63-1.436.922-2.11.578-1.332 1.105-2.547 1.626-3.63.877-1.823 1.772-3.348 2.944-4.56 2.378-2.456 5.786-3.51 12.09-3.51h.265c5.471 0 8 0 12.331-.648.664-.1 1.089-.283 1.373-.505.277-.218.457-.504.578-.882.124-.389.181-.86.216-1.435.015-.26.026-.533.037-.823l.003-.083a43.6 43.6 0 0 1 .047-.992V54.644c0-.697.019-1.386.038-2.054l.005-.18c.018-.606.034-1.192.038-1.758.009-1.248-.047-2.352-.285-3.272-.234-.91-.637-1.607-1.304-2.086-.675-.485-1.683-.794-3.217-.795h-18.952c-15.62 0-21.406 0-37.691 1.034a.5.5 0 0 1-.063-.998C210.62 43.5 216.43 43.5 232.061 43.5H240.879Zm-17.911 58.069.001-.002-.001.002Z" clip-rule="evenodd"/><path fill="#000" fill-rule="evenodd" d="M218.93 60.42a.5.5 0 0 1-.122.696c-.396.278-1.323.822-2.444 1.471l-1.126.65c-.855.492-1.771 1.02-2.656 1.538-1.29.756-2.5 1.484-3.337 2.042-.254.17-.467.32-.634.446 3.183 1.43 6.15 2.522 8.199 3.275l.121.045c1.073.395 1.911.704 2.359.916.113.053.222.11.309.17.043.028.099.07.15.126a.566.566 0 0 1 .154.352.536.536 0 0 1-.231.471.674.674 0 0 1-.24.102c-.112.025-.242.03-.367.03a.5.5 0 0 1-.499-.478 59.297 59.297 0 0 0-2.107-.797c-2.172-.799-5.406-1.988-8.841-3.565a.563.563 0 0 1-.325-.42.612.612 0 0 1 .073-.394c.076-.14.202-.265.308-.36.231-.207.589-.466 1.016-.75.864-.577 2.096-1.317 3.387-2.074.887-.52 1.81-1.051 2.666-1.544l1.12-.646c1.142-.66 2.02-1.178 2.371-1.425a.5.5 0 0 1 .696.123ZM229.427 59.894a.5.5 0 0 1 .257.658l-5.443 12.432a.5.5 0 0 1-.916-.401l5.443-12.432a.5.5 0 0 1 .659-.257ZM234.13 60.792a.501.501 0 0 1 .693-.144c.704.462 1.404.927 2.102 1.391 1.954 1.3 3.897 2.59 5.902 3.797l.126.075c.31.186.659.395.977.633.365.272.723.605.973 1.033a.5.5 0 0 1-.865.507c-.157-.269-.4-.508-.709-.739a10.568 10.568 0 0 0-.892-.575 21.95 21.95 0 0 1-.129-.077c-2.027-1.22-3.997-2.529-5.957-3.832-.694-.461-1.387-.922-2.081-1.377a.498.498 0 0 1-.14-.692Z" clip-rule="evenodd"/><path fill="#000" fill-rule="evenodd" d="M243.268 68.683c-.603.328-1.252.682-1.637.867a107.35 107.35 0 0 1-3.382 1.527l-.602.264c-1.327.582-2.638 1.17-3.913 1.827a.5.5 0 1 1-.456-.888c1.306-.673 2.642-1.27 3.97-1.854l.607-.266c1.127-.493 2.245-.982 3.347-1.51.359-.173.968-.505 1.562-.83l.614-.333c.359-.194.686-.367.869-.447.042-.019.105-.045.167-.06l.002-.001c.02-.005.113-.03.225-.013a.504.504 0 0 1 .341.778.768.768 0 0 1-.126.143 2.3 2.3 0 0 1-.154.126.502.502 0 0 1-.373.098c-.134.07-.296.156-.479.255-.18.097-.379.205-.582.317Z" clip-rule="evenodd"/></g><defs><radialGradient id="b" cx="0" cy="0" r="1" gradientTransform="rotate(72.935 -57.545 153.882) scale(28.9837 70.325)" gradientUnits="userSpaceOnUse"><stop stop-opacity=".43"/><stop offset="1" stop-opacity="0"/></radialGradient><clipPath id="a"><path fill="#fff" d="M0 0h320v200H0z"/></clipPath></defs></svg>