<svg fill="none" viewBox="0 0 64 64" xmlns="http://www.w3.org/2000/svg"><path clip-rule="evenodd" d="m9.63477 49.9656v-35.9695h44.49673v35.9695zm46.49673-39.96951h-48.49673c-1.10457 0-2 .89541-2 2.00001v39.9695c0 1.1045.89542 2 1.99999 2h48.49674c1.1045 0 2-.8955 2-2v-39.9695c0-1.1046-.8955-2.00001-2-2.00001zm-15.4358 12.02681c-2.3183 0-4.1977 1.8794-4.1977 4.1977 0 2.3182 1.8794 4.1976 4.1977 4.1976 2.3182 0 4.1976-1.8794 4.1976-4.1976 0-2.3183-1.8794-4.1977-4.1976-4.1977zm-8.1977 4.1977c0-4.5275 3.6702-8.1977 8.1977-8.1977 4.5274 0 8.1976 3.6702 8.1976 8.1977 0 1.3242-.314 2.5751-.8716 3.6823v14.0894c0 .7763-.4492 1.4825-1.1524 1.8115-.7031.329-1.5331.2214-2.1291-.276l-3.546-2.9593-3.9042 3.0081c-.6038.4652-1.4195.5468-2.1035.2103-.6839-.3364-1.1172-1.0324-1.1172-1.7946v-12.9445c-.9881-1.3541-1.5713-3.0226-1.5713-4.8272zm8.1977 8.1976c1.184 0 2.3095-.2511 3.326-.7028v6.0028l-1.496-1.2485c-.7196-.6005-1.7597-.6208-2.5022-.0488l-1.9542 1.5057v-5.9382c.8245.2787 1.7078.4298 2.6264.4298zm-26.7318-12.4015c0-1.1045.8933-2 1.9952-2h12.0095c1.102 0 1.9953.8955 1.9953 2 0 1.1046-.8933 2-1.9953 2h-12.0095c-1.1019 0-1.9952-.8954-1.9952-2zm1.9952 5.9909c-1.1019 0-1.9952.8955-1.9952 2 0 1.1046.8933 2 1.9952 2h12.0095c1.102 0 1.9953-.8954 1.9953-2 0-1.1045-.8933-2-1.9953-2z" fill="#0278d5" fill-rule="evenodd"/></svg>