<svg fill="none" viewBox="0 0 32 32" xmlns="http://www.w3.org/2000/svg"><circle cx="16" cy="16" fill="#00ade4" r="16"/><path clip-rule="evenodd" d="m18.1143 10.6477c-1.7543 0-3.1764 1.4221-3.1764 3.1765 0 1.7543 1.4221 3.1764 3.1764 3.1764 1.7544 0 3.1765-1.4221 3.1765-3.1764 0-1.7544-1.4221-3.1765-3.1765-3.1765zm-4.2353 3.1765c0-2.3391 1.8963-4.23533 4.2353-4.23533 2.3391 0 4.2353 1.89623 4.2353 4.23533 0 2.339-1.8962 4.2353-4.2353 4.2353-.5757 0-1.1247-.1149-1.6251-.3231v1.3843c0 .2924-.2371.5294-.5295.5294h-1.5408v.9503c0 .1404-.0558.2751-.1551.3744-.0992.0993-.2339.155-.3743.155h-1.0693v1.2217c0 .2924-.2371.5294-.5295.5294l-2.9565.0001c-.29238 0-.5294-.2371-.52941-.5294l-.0001-1.7511c-.00001-.1404.05577-.2751.15506-.3744l5.11755-5.1176c-.1288-.4051-.1983-.8366-.1983-1.2843zm.6791 2.301-4.69458 4.6945.00006 1.0024h1.89772v-1.2217c0-.2924.2371-.5294.5294-.5294h1.0694v-.9503c0-.2924.237-.5294.5294-.5294h1.5408v-1.4907c-.3385-.2777-.6333-.6068-.8722-.9754zm3.9771-3.5827c-.4386 0-.7941.3556-.7941.7942 0 .4385.3555.7941.7941.7941s.7941-.3556.7941-.7941c0-.4386-.3555-.7942-.7941-.7942zm-1.853.7942c0-1.0234.8296-1.853 1.853-1.853 1.0233 0 1.8529.8296 1.8529 1.853 0 1.0233-.8296 1.8529-1.8529 1.8529-1.0234 0-1.853-.8296-1.853-1.8529z" fill="#fafcff" fill-rule="evenodd"/></svg>