<svg viewBox="0 0 16 16" fill="currentcolor" xmlns="http://www.w3.org/2000/svg"><path fill-rule="evenodd" clip-rule="evenodd" d="M9.476 1.949a2.75 2.75 0 0 0-2.75 0L3.38 3.88a2.75 2.75 0 0 0-1.375 2.382v3.863c0 .982.524 1.89 1.375 2.382l3.346 1.931c.85.491 1.899.491 2.75 0l3.345-1.931a2.75 2.75 0 0 0 1.375-2.382V6.262a2.75 2.75 0 0 0-1.375-2.382L9.476 1.95Zm-2.5.433a2.25 2.25 0 0 1 2.25 0l3.345 1.931a2.25 2.25 0 0 1 1.125 1.949v3.863a2.25 2.25 0 0 1-1.125 1.948l-3.345 1.932a2.25 2.25 0 0 1-2.25 0L3.63 12.073a2.25 2.25 0 0 1-1.125-1.948V6.262A2.25 2.25 0 0 1 3.63 4.313l2.179-1.258L7.062 4.31a1.25 1.25 0 0 0 .683 2.035l.016 3.931a1.25 1.25 0 1 0 .5 0L8.246 6.35c.218-.041.417-.14.579-.278l1.45 1.45a1.25 1.25 0 1 0 .361-.346L9.135 5.675A1.25 1.25 0 0 0 7.46 4L6.257 2.797l.719-.415Zm.286 2.74a.75.75 0 1 1 1.5 0 .75.75 0 0 1-1.5 0Zm0 6.378a.75.75 0 1 1 1.5 0 .75.75 0 0 1-1.5 0Zm4.041-4.015a.75.75 0 1 0 0 1.5.75.75 0 0 0 0-1.5Z" fill="currentColor"/></svg>