<svg fill="none" viewBox="0 0 12 12" xmlns="http://www.w3.org/2000/svg"><path clip-rule="evenodd" d="m2.45703 1.49609c-.55228 0-1 .44772-1 1v7c0 .55231.44772 1.00001 1 1.00001h7c.55227 0 .99997-.4477.99997-1.00001v-7c0-.55228-.4477-1-.99997-1zm3.5 1.87134c-.62132 0-1.125.50368-1.125 1.125 0 .20711-.16789.375-.375.375s-.375-.16789-.375-.375c0-1.03553.83947-1.875 1.875-1.875 1.03554 0 1.875.83947 1.875 1.875 0 .43292-.11384.76505-.31345 1.0215-.19258.24743-.44078.39169-.64095.49395-.06874.03511-.12812.06402-.18039.08946-.12129.05906-.20426.09945-.27698.15547-.06686.05151-.08823.08797-.08823.16857v.77314c0 .2071-.16789.375-.375.375s-.375-.1679-.375-.375v-.77314c0-.35606.16613-.59754.38052-.7627.13896-.10706.32267-.19611.46625-.2657.03951-.01915.07597-.03683.10763-.053.17484-.08931.30163-.17279.3903-.28671.08165-.1049.1553-.26774.1553-.56084 0-.62132-.50368-1.125-1.125-1.125zm.41849 5.26611c0 .20711-.16789.375-.375.375s-.375-.16789-.375-.375c0-.2071.16789-.375.375-.375s.375.1679.375.375z" fill="#9293ab" fill-rule="evenodd"/></svg>