<svg fill="none" viewBox="0 0 32 32" xmlns="http://www.w3.org/2000/svg"><circle cx="16" cy="16" fill="#00ade4" r="16"/><path clip-rule="evenodd" d="m16.6846 10.7104c0 .2418-.2086.4378-.466.4378-.2575 0-.4661-.196-.4661-.4378s.2086-.4379.4661-.4379c.2574 0 .466.1961.466.4379zm.2999 1.3492c-.0378.019-.0766.0366-.1161.0528v3.4463c.5753.2357.9775.7748.9775 1.4021 0 .8443-.7286 1.5287-1.6273 1.5287-.8988 0-1.6274-.6844-1.6274-1.5287 0-.6765.4677-1.2504 1.1159-1.4518v-3.3469c-.6482-.2014-1.1159-.7752-1.1159-1.4517 0-.84431.7286-1.52876 1.6274-1.52876.8987 0 1.6273.68445 1.6273 1.52876 0 .1839-.0345.3603-.0979.5236l1.1203 1.0524c.2256-.1111.4823-.174.7547-.174.8988 0 1.6274.6844 1.6274 1.5287 0 .8444-.7286 1.5288-1.6274 1.5288-.8987 0-1.6273-.6844-1.6273-1.5288 0-.1883.0362-.3687.1025-.5353zm5.3385 4.9137-3.2495-1.0694-.3839 1.0296 1.7631.5802-4.7235 1.7186-4.2364-1.6996 1.7855-.6004-.3914-1.0271-3.17969 1.0693c-.23089.0776-.38495.2832-.38494.5136l.00011 2.4171c.00002.4251.26294.8115.67368.99l5.47874 2.3811c.1481.0643.3181.0672.4685.0079l6.0565-2.3871c.4313-.17.712-.5666.712-1.006l-.0001-2.4031c-.0001-.2317-.1559-.4381-.3887-.5147zm-6.0238 3.2215 5.2512-1.9106.0001 1.6069-5.2513 2.0698zm-1.1613-.0135.0001 1.7466-4.6543-2.0228-.0001-1.591zm1.0807-2.7827c.2574 0 .466-.196.466-.4378 0-.2419-.2086-.4379-.466-.4379-.2575 0-.4661.196-.4661.4379 0 .2418.2086.4378.4661.4378zm3.8705-3.7575c0 .2419-.2086.4379-.4661.4379-.2574 0-.4661-.196-.4661-.4379 0-.2418.2087-.4378.4661-.4378.2575 0 .4661.196.4661.4378z" fill="#fff" fill-rule="evenodd"/></svg>