<svg fill="none" viewBox="0 0 64 64" xmlns="http://www.w3.org/2000/svg"><path clip-rule="evenodd" d="m33.7102 8.35641c-1.0777-.50646-2.325-.50646-3.4026 0l-17.0371 8.00669c-1.1069.5202-1.915 1.5182-2.1935 2.7092l-4.18962 17.9129c-.28276 1.209.01191 2.4807.79755 3.4421l11.76187 14.3931c.7597.9296 1.8968 1.4689 3.0974 1.4689h18.9294c1.2006 0 2.3376-.5393 3.0973-1.4689l11.7619-14.3931c.7857-.9614 1.0803-2.2331.7976-3.4421l-4.1896-17.9129c-.2786-1.191-1.0867-2.189-2.1936-2.7092zm-18.7383 11.62679 17.037-8.0066 17.037 8.0066 4.1896 17.913-11.7619 14.3931h-18.9295l-11.7618-14.3931zm9.0562-.8503c-2.171 0-3.9309 1.76-3.9309 3.931v5.1381c0 2.171 1.7599 3.9309 3.9309 3.9309h5.1381c2.171 0 3.931-1.7599 3.931-3.9309v-5.1381c0-2.171-1.76-3.931-3.931-3.931zm0 3.931h5.1381v5.1381h-5.1381zm-3.9309 15.799c0-2.171 1.7599-3.9309 3.9309-3.9309h5.1381c2.171 0 3.931 1.76 3.931 3.9309v5.1382c0 2.171-1.76 3.9309-3.931 3.9309h-5.1381c-2.171 0-3.9309-1.7599-3.9309-3.9309zm9.069 0h-5.1381v5.1382h5.1381zm9.7018-11.8943c-2.171 0-3.931 1.76-3.931 3.931v5.1381c0 2.171 1.7599 3.9309 3.931 3.9309h5.1381c2.171 0 3.9309-1.7599 3.9309-3.9309v-5.1381c0-2.171-1.7599-3.931-3.9309-3.931zm0 3.931h5.1381v5.1381h-5.1381z" fill="#0278d5" fill-rule="evenodd"/></svg>