<svg fill="none" viewBox="0 0 64 64" xmlns="http://www.w3.org/2000/svg"><path clip-rule="evenodd" d="m30.1236 13.9135-5.8742-5.87418 3.4192-1.96642c2.9119-1.67463 6.4956-1.6894 9.4212-.03884l14.547 8.20694c3.001 1.6931 4.8442 4.8748 4.8145 8.3109l-.1441 16.656c-.029 3.3498-1.8344 6.4343-4.7463 8.109l-14.9714 8.6102c-2.9119 1.6746-6.4956 1.6894-9.4213.0388l-14.547-8.2069c-3.00096-1.6931-4.84412-4.8748-4.81439-8.3109l.14409-16.656c.02898-3.3498 1.83439-6.4343 4.7462-8.109l9.0325-5.19463 6.1968 6.19683c-.593.8385-.9414 1.8622-.9414 2.9674 0 2.3088 1.5207 4.2624 3.6151 4.9138.0421.0131.0843.0257.1268.0377v15.5422c-2.1596.6108-3.7419 2.5963-3.7419 4.9514 0 2.664 2.0246 4.8552 4.6191 5.1187.1729.0175.3484.0265.526.0265 2.8416 0 5.1452-2.3036 5.1452-5.1451 0-2.3088-1.5207-4.2625-3.6152-4.9139-.042-.0131-.0842-.0256-.1267-.0376v-15.5422c.531-.1502 1.0272-.3835 1.4734-.6851.0305-.0206.0608-.0415.0908-.0627l5.6356 5.6357c-.4149.7419-.6508 1.5976-.6508 2.508 0 2.8416 2.3035 5.1452 5.1451 5.1452 2.8417 0 5.1452-2.3036 5.1452-5.1452s-2.3036-5.1451-5.1451-5.1451c-.888 0-1.7235.2249-2.4525.621-.0193.0104-.0384.0209-.0574.0316l-5.8484-5.8483c.2614-.6166.406-1.2947.406-2.0066 0-2.8416-2.3036-5.1452-5.1452-5.1452-.7104 0-1.3871.144-2.0027.4044-.0013.0005-.0026.001-.0038.0016zm12.7665 17.0085c-.0008.0259-.0013.052-.0013.0781 0 .0807.0041.1605.0121.2391.1198 1.1793 1.1157 2.0996 2.3266 2.0996 1.2917 0 2.3388-1.047 2.3388-2.3387 0-1.2916-1.0471-2.3387-2.3388-2.3387-.0271 0-.054.0005-.0808.0014-1.2283.0417-2.2163 1.0306-2.2566 2.2592zm-12.748-11.0369c.4126.6641 1.1487 1.1063 1.988 1.1063 1.2917 0 2.3387-1.0471 2.3387-2.3387s-1.047-2.3387-2.3387-2.3387c-.0038 0-.0076 0-.0114 0-1.2864.0062-2.3273 1.0509-2.3273 2.3387 0 .4523.1284.8746.3507 1.2324zm0 22.9803c-.1896.3056-.3107.6577-.3424 1.0345-.0055.0653-.0083.1313-.0083.198 0 1.2916 1.0471 2.3387 2.3387 2.3387.0051 0 .0101-.0001.0152-.0001 1.2846-.0081 2.3235-1.0521 2.3235-2.3387 0-.0735-.0034-.1463-.01-.2181-.0344-.3704-.1552-.7165-.3425-1.0173-.4129-.6624-1.1481-1.1033-1.9862-1.1033-.8393 0-1.5754.4422-1.988 1.1063zm-18.8441-30.6151c-3.77204 2.1694-6.11582 6.1688-6.15345 10.5175l-.14409 16.656c-.03859 4.4609 2.35434 8.5863 6.24174 10.7795l14.5471 8.2069c3.7887 2.1375 8.4284 2.1184 12.1993-.0503l14.9715-8.6102c3.772-2.1693 6.1158-6.1688 6.1534-10.5175l.1441-16.656c.0386-4.4609-2.3543-8.5863-6.2418-10.7795l-14.547-8.20693c-3.7887-2.13749-8.4284-2.11839-12.1993.05032z" fill="#0278d5" fill-rule="evenodd"/></svg>