<svg fill="none" height="16" viewBox="0 0 16 16" width="16" xmlns="http://www.w3.org/2000/svg"><path clip-rule="evenodd" d="m11.9777 6.00887v6.99213c0 .5523-.4478 1-1 1-.5523 0-1.00004-.4477-1.00004-1h-.00278c-.0052-.2717-.22702-.4903-.4999-.4903-.27615 0-.5.2239-.5.5 0 .5523-.44834.9903-.99732.9903-.55228 0-1-.4477-1-1-.0052-.2717-.22736-.4903-.50024-.4903-.27615 0-.5.2239-.5.5 0 .5488-.45074.9903-.99976.9903-.55228 0-1-.4477-.99999-1v-.0042l-.00001-6.99582c0-2.20914 1.79086-4 4-4s4.00004 1.79086 4.00004 4zm-4.97099-.00789c0 .55228-.44771 1-1 1-.55228 0-1-.44772-1-1 0-.55229.44772-1 1-1 .55229 0 1 .44771 1 1zm3.98929 0c0 .55228-.4477 1-.99997 1-.55228 0-1-.44772-1-1 0-.55229.44772-1 1-1 .55227 0 .99997.44771.99997 1z" fill="#fcc026" fill-rule="evenodd"/></svg>