<svg fill="none" viewBox="0 0 24 24" xmlns="http://www.w3.org/2000/svg"><path clip-rule="evenodd" d="m12.9133 4.94655c0 .32242-.2782.58379-.6214.58379-.3433 0-.6215-.26137-.6215-.58379 0-.32243.2782-.5838.6215-.5838.3432 0 .6214.26137.6214.5838zm.3999 1.79889c-.0505.02533-.1022.04885-.1549.07045v4.59511c.7671.3142 1.3034 1.033 1.3034 1.8694 0 1.1257-.9715 2.0383-2.1698 2.0383-1.1984 0-2.1699-.9126-2.1699-2.0383 0-.902.6236-1.6671 1.4879-1.9357v-4.46251c-.8643-.26857-1.4879-1.03369-1.4879-1.93564 0-1.12575.9715-2.03835 2.1699-2.03835 1.1983 0 2.1698.9126 2.1698 2.03835 0 .24522-.0461.48034-.1306.6981l1.4937 1.40322c.3008-.14817.6432-.232 1.0064-.232 1.1983 0 2.1698.9126 2.1698 2.03835 0 1.12574-.9715 2.03838-2.1698 2.03838-1.1984 0-2.1699-.91264-2.1699-2.03838 0-.25114.0484-.49168.1368-.71383zm7.1179 6.55156-4.3326-1.4257-.5119 1.3727 2.3508.7736-6.298 2.2914-5.64859-2.266 2.38076-.8006-.52187-1.3695-4.23964 1.4258c-.30785.1035-.51327.3776-.51326.6847l.00015 3.2228c.00003.5669.3506 1.0821.89824 1.3201l7.30501 3.1748c.1974.0858.4241.0896.6246.0106l8.0754-3.1829c.5751-.2267.9493-.7554.9493-1.3414l-.0002-3.204c0-.309-.2078-.5842-.5182-.6864zm-8.0318 4.2954 7.0017-2.5474.0001 2.1425-7.0017 2.7597zm-1.5483-.018.0001 2.3288-6.20576-2.697-.0001-2.1214zm1.4409-3.7103c.3432 0 .6214-.2613.6214-.5837 0-.3225-.2782-.5838-.6214-.5838-.3433 0-.6215.2613-.6215.5838 0 .3224.2782.5837.6215.5837zm5.1607-5.00988c0 .32242-.2782.58379-.6214.58379-.3433 0-.6215-.26137-.6215-.58379 0-.32243.2782-.5838.6215-.5838.3432 0 .6214.26137.6214.5838z" fill="#fff" fill-rule="evenodd"/></svg>