<svg fill="currentColor" viewBox="0 0 64 64" xmlns="http://www.w3.org/2000/svg"><path clip-rule="evenodd" d="m41.9911 10.0039c-6.6274 0-12 5.3726-12 12s5.3726 12 12 12 12-5.3726 12-12-5.3726-12-12-12zm-16 12c0-8.8365 7.1634-15.99999 16-15.99999 8.8365 0 16 7.16349 16 15.99999 0 8.8366-7.1635 16-16 16-2.1752 0-4.249-.4341-6.1396-1.2203v5.2295c0 1.1046-.8954 2-2 2h-5.8209v3.59c0 .5304-.2107 1.0391-.5858 1.4142s-.8838.5858-1.4142.5858h-4.0398v4.6153c0 1.1046-.8954 2-2 2h-11.16914c-1.10453 0-1.99994-.8953-2-1.9998l-.00037-6.6153c-.00003-.5304.21069-1.0392.58579-1.4143l19.33292-19.333c-.4864-1.5304-.7489-3.1606-.7489-4.8521zm2.5651 8.6928-17.7349 17.7349.0002 3.7868h7.1693v-4.6153c0-1.1046.8955-2 2-2h4.0398v-3.59c0-1.1046.8954-2 2-2h5.8209v-5.6316c-1.279-1.049-2.3924-2.2923-3.2953-3.6848zm15.0247-13.5345c-1.6568 0-3 1.3432-3 3 0 1.6569 1.3432 3 3 3 1.6569 0 3-1.3431 3-3 0-1.6568-1.3431-3-3-3zm-7 3c0-3.866 3.134-7 7-7s7 3.134 7 7-3.134 7-7 7-7-3.134-7-7z" fill="currentColor" fill-rule="evenodd"/></svg>