<svg fill="none" viewBox="0 0 19 18" xmlns="http://www.w3.org/2000/svg"><circle cx="10" cy="9" fill="#00ade4" r="9"/><path clip-rule="evenodd" d="m9.55927 5.78943c.11329-.04802.23787-.07458.36867-.07458.52206 0 .94536.42323.94536.94531 0 .13079-.0266.25538-.0746.36867l1.0745 1.0745c.1364-.07637.2937-.11991.4611-.11991.5221 0 .9453.42323.9453.94531s-.4232.94532-.9453.94532-.9453-.42324-.9453-.94532c0-.16727.0434-.32439.1197-.4607l-1.0356-1.03552c-.0862.06099-.1831.1079-.2873.13738v2.85551c.3967.1123.6875.4771.6875.9098-.0001.522-.4233.9453-.94536.9453-.52208 0-.94532-.4233-.94532-.9453 0-.4327.29073-.7975.68751-.9098v-2.85551c-.39678-.11222-.68751-.47703-.68751-.90973 0-.20305.06402-.39114.17297-.5452l-1.13853-1.13853-1.65952.95441c-.53499.30768-.86669.8744-.87202 1.48985l-.02647 3.06021c-.00546.6313.33318 1.2158.88455 1.5269l2.6727 1.5079c.53752.3032 1.196.3005 1.7309-.0072l2.7507-1.5819c.535-.3077.8667-.8744.872-1.4899l.0265-3.06014c.0055-.63131-.3332-1.21588-.8845-1.52695l-2.6727-1.50785c-.5376-.30326-1.19598-.30054-1.73097.00713l-.62821.36129zm-.06102.87073c0-.23731.19238-.42969.42969-.42969.23726 0 .42966.19238.42966.42969s-.1924.42969-.42966.42969c-.23731 0-.42969-.19238-.42969-.42969zm0 4.67504c0-.2374.19238-.4297.42969-.4297.23726 0 .42966.1923.42966.4297 0 .2373-.1924.4296-.42966.4296-.23731 0-.42969-.1923-.42969-.4296zm2.83605-2.83615c-.2373 0-.4297.19237-.4297.42968s.1924.42969.4297.42969.4297-.19238.4297-.42969-.1924-.42968-.4297-.42968z" fill="#fcfeff" fill-rule="evenodd"/></svg>