<svg fill="none" viewBox="0 0 32 32" xmlns="http://www.w3.org/2000/svg"><circle cx="16" cy="16" fill="#00ade4" r="16"/><path clip-rule="evenodd" d="m16.4817 9.35c-.3031-.14245-.6539-.14245-.957 0l-4.7917 2.2519c-.3113.1463-.5386.427-.6169.7619l-1.17832 5.0381c-.07953.34.00335.6976.22431.968l3.30801 4.0481c.2137.2615.5335.4131.8711.4131h5.324c.3376 0 .6574-.1516.8711-.4131l3.308-4.0481c.221-.2704.3038-.628.2243-.9681l-1.1783-5.038c-.0783-.3349-.3056-.6156-.6169-.7619zm-5.2702 3.27 4.7917-2.2518 4.7917 2.2518 1.1783 5.0381-3.308 4.048h-5.324l-3.308-4.048zm2.5471-.2391c-.6106 0-1.1056.495-1.1056 1.1056v1.4451c0 .6106.495 1.1055 1.1056 1.1055h1.4451c.6106 0 1.1056-.4949 1.1056-1.1055v-1.4451c0-.6106-.495-1.1056-1.1056-1.1056zm0 1.1056h1.4451v1.4451h-1.4451zm-1.1056 4.4435c0-.6106.495-1.1056 1.1056-1.1056h1.4451c.6106 0 1.1056.495 1.1056 1.1056v1.4451c0 .6106-.495 1.1055-1.1056 1.1055h-1.4451c-.6106 0-1.1056-.495-1.1056-1.1055zm2.5507 0h-1.4451v1.4451h1.4451zm2.7286-3.3453c-.6106 0-1.1056.495-1.1056 1.1056v1.4451c0 .6105.495 1.1055 1.1056 1.1055h1.4451c.6106 0 1.1056-.495 1.1056-1.1055v-1.4451c0-.6106-.495-1.1056-1.1056-1.1056zm0 1.1056h1.4451v1.4451h-1.4451z" fill="#fff" fill-rule="evenodd"/></svg>