<svg fill="none" height="64" viewBox="0 0 64 64" width="64" xmlns="http://www.w3.org/2000/svg"><path clip-rule="evenodd" d="m51 5c4.4183 0 8 3.58172 8 8v6c0 4.4183-3.5817 8-8 8h-14.8816l-4.3816 3 .7083-3h-2.4451c-4.4183 0-8-3.5817-8-8v-6c0-4.41828 3.5817-8 8-8z" fill="#fcc62d" fill-rule="evenodd"/><rect fill="#fedf76" height="23" rx="8" transform="matrix(-1 0 0 1 61 5)" width="35"/><path clip-rule="evenodd" d="m36.1116 26.5-4.1091 2.9128.4262-1.6648c.1619-.6325-.3159-1.248-.9688-1.248h-1.4599c-3.5899 0-6.5-2.9101-6.5-6.5v-8c0-3.58985 2.9101-6.5 6.5-6.5h24c3.5899 0 6.5 2.91015 6.5 6.5v8c0 3.5899-2.9101 6.5-6.5 6.5zm-6.1116 1.5c-4.4183 0-8-3.5817-8-8v-8c0-4.41828 3.5817-8 8-8h24c4.4183 0 8 3.58172 8 8v8c0 4.4183-3.5817 8-8 8h-17.4107l-4.8307 3.4244c-.7594.5383-1.7779-.162-1.5471-1.0638l.6043-2.3606z" fill="#000" fill-rule="evenodd"/><path d="m39.84 12.782c0 .168-.1447.4153-.434.742-.3453.392-1.246 1.596-2.702 3.612.0187 1.204.056 2.03.112 2.478.028.28.042.4807.042.602 0 .308-.056.518-.168.63-.1027.1027-.2847.154-.546.154-.196 0-.3827-.056-.56-.168-.168-.1213-.252-.266-.252-.434 0-.6813-.014-1.68-.042-2.996 0-.056-.0373-.1493-.112-.28s-.1213-.2147-.14-.252c-.196-.3453-.4433-.728-.742-1.148-.2893-.4293-.5413-.7513-.756-.966-.4107-.4107-.7327-.7793-.966-1.106-.2333-.336-.35-.574-.35-.714 0-.196.0887-.35.266-.462.1867-.1213.3873-.182.602-.182.1213 0 .2473.0327.378.098.14.0653.252.1587.336.28.5507.8213 1.0407 1.5027 1.47 2.044l.658.854c.4013-.4107.7513-.8167 1.05-1.218.308-.4107.644-.896 1.008-1.456l.238-.364c.1773-.2427.4527-.364.826-.364.1773 0 .35.0513.518.154.1773.1027.266.2567.266.462zm1.4607 5.25c0-.3547.0653-.7093.196-1.064.1307-.364.3033-.6953.518-.994s.5553-.5413 1.022-.728c.4667-.196.882-.294 1.246-.294.3733 0 .7513.0513 1.134.154.392.1027.6627.2613.812.476.3453.4853.518.9613.518 1.428 0 .252-.056.4667-.168.644-.1027.1773-.252.3687-.448.574-.1587.168-.4107.28-.756.336-.336.056-.672.084-1.008.084-.2147 0-.476-.0187-.784-.056-.308-.0467-.6067-.1027-.896-.168.0187.1867.0653.3687.14.546s.1633.3127.266.406c.1867.1773.378.2893.574.336.2053.0467.4667.07.784.07.336 0 .6487-.056.938-.168.2333-.084.4247-.126.574-.126.1773 0 .3127.056.406.168.0933.1027.14.238.14.406 0 .2333-.1353.4247-.406.574s-.5833.2613-.938.336c-.3453.0653-.6253.098-.84.098-.4387 0-.8633-.0793-1.274-.238s-.7513-.3827-1.022-.672c-.224-.2613-.4013-.574-.532-.938-.1307-.3733-.196-.77-.196-1.19zm3.052-1.89c-.2053 0-.4107.042-.616.126-.2053.0747-.3733.182-.504.322-.168.1773-.2847.322-.35.434-.056.1027-.0933.2473-.112.434.2333.0747.7187.112 1.456.112.4013 0 .7093-.0607.924-.182.224-.1213.336-.28.336-.476s-.1213-.3733-.364-.532-.4993-.238-.77-.238zm8.3519 1.708c.0746.0467.2193.1353.434.266.224.1213.3733.266.448.434.0746.168.112.4013.112.7 0 .336-.098.6347-.294.896-.196.252-.448.448-.756.588-.224.1027-.4994.182-.826.238-.3174.056-.5694.084-.756.084-.1867 0-.4294-.028-.728-.084-.2894-.056-.49-.1073-.602-.154-.2894-.168-.5414-.3733-.756-.616-.2054-.2427-.308-.49-.308-.742 0-.1867.0606-.3313.182-.434.1213-.112.28-.168.476-.168.0933 0 .1913.0373.294.112.1026.0653.1726.1353.21.21.1026.2427.2753.4247.518.546.2426.1213.49.182.742.182.3266 0 .63-.0513.91-.154.28-.112.42-.2613.42-.448 0-.084-.0234-.1493-.07-.196-.0374-.056-.0934-.112-.168-.168-.1307-.0933-.3267-.168-.588-.224-.2614-.0653-.4294-.1073-.504-.126-.3827-.084-.756-.21-1.12-.378-.364-.1773-.6534-.3873-.868-.63-.2147-.2427-.322-.5553-.322-.938 0-.252.0933-.5133.28-.784.1866-.28.3966-.476.63-.588.168-.0653.448-.1353.84-.21.4013-.0747.672-.112.812-.112.2146 0 .448.0233.7.07.252.0373.4433.1027.574.196.252.1493.4573.308.616.476.1586.1587.238.3407.238.546 0 .1027-.0234.2147-.07.336-.0467.112-.1027.182-.168.21-.14.0653-.3034.098-.49.098-.084 0-.154-.0233-.21-.07-.0467-.0467-.112-.1213-.196-.224-.1027-.1587-.2007-.252-.294-.28-.112-.028-.2754-.0607-.49-.098-.2147-.0467-.3594-.07-.434-.07-.2147 0-.4387.0607-.672.182-.224.1213-.336.2613-.336.42 0 .084.0326.1493.098.196.0746.0467.1493.0887.224.126.084.0373.14.0607.168.07.196.0933.4106.1727.644.238.2426.0653.392.1073.448.126.504.1213.84.238 1.008.35z" fill="#000"/><path clip-rule="evenodd" d="m18.6626 30.2148c-.6887-.966-2.1-.9031-2.7203.0845-.0355.0564-.0721.115-.1098.1755l-5.5807 4.9348c-.72766.6434-.76918 1.7647-.0911 2.4603l1.7151 1.7591c-.0019.0241-.0037.0481-.0053.072h-.0124v.3562 3.8161c0 .7375.4697 1.3653 1.1262 1.6007l-1.0713 1.0713c-.7487.655-1.6498.653-2.24705.6517l-.07699-.0001c-.97251 0-1.85698-.9349-1.77337-2.2394.03002-.4685-.32542-.8726-.7939-.9026s-.8726.3254-.90262.7939c-.13203 2.06 1.30456 4.0481 3.46989 4.0481.03059 0 .06519.0003.10352.0007.60052.0057 2.11332.0202 3.36842-1.098.0122-.0108.0241-.0221.0357-.0336l1.2968-1.2969.8958-.8958h1.1862v2.492c0 .4694.3806.85.85.85.4695 0 .85-.3806.85-.85v-2.492h1.1731l2.0128 2.0128c.0116.0115.0235.0228.0357.0336 1.2551 1.1182 2.7679 1.1037 3.3684 1.0979.0383-.0003.0729-.0007.1035-.0007 2.1654 0 3.6019-1.988 3.4699-4.048-.03-.4685-.4341-.824-.9026-.7939-.4685.03-.8239.4341-.7939.9026.0836 1.3045-.8009 2.2393-1.7734 2.2393l-.077.0002c-.5973.0013-1.4983.0033-2.2471-.6517l-.9105-.9105c.6299-.2489 1.0754-.8632 1.0754-1.5816v-3.8161-.2445l1.8631-1.9109c.6781-.6955.6365-1.8168-.0911-2.4603l-5.6663-5.0104c-.0528-.0754-.1038-.1475-.1528-.2163zm4.6929 6.5003-.9581.9827c-.2266-.9124-.5579-1.8111-.9316-2.6537zm-5.8193-5.1459-.1875-.1658-.2026.1792c-.6114.9926-1.4483 2.4277-2.1634 3.9231-.8313 1.7384-1.4246 3.4125-1.4246 4.5515v3.8161h6.1343.0164 1.3009v-3.8161c0-1.5452-.5889-3.2972-1.3808-4.9338-.6825-1.4106-1.4853-2.6741-2.0927-3.5542zm-5.2401 6.0557c.2826-.9059.6736-1.8388 1.0879-2.7156l-2.0061 1.7738zm7.4731 4.0444c0 .4401-.3568.7969-.7969.7969s-.7969-.3568-.7969-.7969.3568-.7968.7969-.7968.7969.3567.7969.7968zm-4.0906.7969c.4401 0 .7968-.3568.7968-.7969s-.3567-.7968-.7968-.7968-.7969.3567-.7969.7968.3568.7969.7969.7969zm.6964 10.7089c0-.4695.3806-.85.85-.85s.85.3805.85.85c0 .4694-.3806.85-.85.85s-.85-.3806-.85-.85zm.85-2.55c-1.4083 0-2.55 1.1416-2.55 2.55 0 1.4083 1.1417 2.55 2.55 2.55s2.55-1.1417 2.55-2.55c0-1.4084-1.1417-2.55-2.55-2.55zm10.6042 1.7c-.4694 0-.85.3805-.85.85 0 .4694.3806.85.85.85.4695 0 .85-.3806.85-.85 0-.4695-.3805-.85-.85-.85zm-2.55.85c0-1.4084 1.1417-2.55 2.55-2.55 1.4084 0 2.55 1.1416 2.55 2.55 0 1.4083-1.1416 2.55-2.55 2.55-1.4083 0-2.55-1.1417-2.55-2.55zm-19.95835 0c0-.4695.38056-.85.85-.85s.85.3805.85.85c0 .4694-.38056.85-.85.85s-.85-.3806-.85-.85zm.85-2.55c-1.40833 0-2.55 1.1416-2.55 2.55 0 1.4083 1.14167 2.55 2.55 2.55s2.55-1.1417 2.55-2.55c0-1.4084-1.14167-2.55-2.55-2.55z" fill="#4f5162" fill-rule="evenodd"/></svg>