<svg fill="none" height="64" viewBox="0 0 64 64" width="64" xmlns="http://www.w3.org/2000/svg"><path clip-rule="evenodd" d="m11 1c-4.41828 0-8 3.58172-8 8v6c0 4.4183 3.58172 8 8 8h14.8816l4.3816 3-.7083-3h2.4451c4.4183 0 8-3.5817 8-8v-6c0-4.41828-3.5817-8-8-8z" fill="#4dc952" fill-rule="evenodd"/><rect fill="#77e26c" height="23" rx="8" width="35" x="1" y="1"/><path clip-rule="evenodd" d="m25.8884 22.5 4.1091 2.9128-.4262-1.6648c-.1619-.6325.3159-1.248.9688-1.248h1.4599c3.5899 0 6.5-2.9101 6.5-6.5v-8c0-3.58985-2.9101-6.5-6.5-6.5h-24c-3.58985 0-6.5 2.91015-6.5 6.5v8c0 3.5899 2.91015 6.5 6.5 6.5zm6.1116 1.5c4.4183 0 8-3.5817 8-8v-8c0-4.41828-3.5817-8-8-8h-24c-4.41828 0-8 3.58172-8 8v8c0 4.4183 3.58172 8 8 8h17.4107l4.8307 3.4244c.7594.5383 1.7779-.162 1.5471-1.0638l-.6043-2.3606z" fill="#000" fill-rule="evenodd"/><path d="m16.86 8.132c0-.27067.0607-.504.182-.7.1307-.20533.322-.308.574-.308.2147 0 .406.042.574.126s.252.224.252.42c0 .38267-.0187.91933-.056 1.61-.0373.672-.056 1.1713-.056 1.498 0 .5133.0187 1.1993.056 2.058.0373.8213.056 1.4233.056 1.806 0 .308-.0047.5367-.014.686 0 .1493-.084.2987-.252.448-.1587.14-.406.21-.742.21-.1773 0-.3313-.028-.462-.084-.1213-.0653-.2053-.1353-.252-.21-.4387-.532-1.078-1.4373-1.918-2.716-.9427-1.428-1.7127-2.52-2.31-3.276.0747.672.112 1.4933.112 2.464 0 .4293-.0093.9893-.028 1.68-.0093.6813-.028 1.1293-.056 1.344-.0373.2707-.1213.4807-.252.63-.1213.14-.3173.21-.588.21-.2053 0-.3593-.056-.462-.168-.0933-.1213-.1493-.3267-.168-.616-.0093-.3827.014-.9567.07-1.722.0093-.1213.0233-.3313.042-.63s.028-.5647.028-.798c0-.644-.0327-1.3813-.098-2.212-.056-.91467-.084-1.59133-.084-2.03 0-.224.0793-.39667.238-.518.168-.12133.3593-.182.574-.182.1867 0 .3827.04667.588.14.8027 1.008 1.89 2.51067 3.262 4.508l1.316 2.016c.0093-.1493.014-.3593.014-.63 0-.476-.0093-.9893-.028-1.54s-.0327-.924-.042-1.12c-.0467-.90533-.07-1.70333-.07-2.394zm10.1333-.028c.308.476.5553 1.022.742 1.638.1866.6067.28 1.2273.28 1.862 0 .756-.1307 1.4747-.392 2.156-.252.6813-.6347 1.2367-1.148 1.666-.504.4293-1.12.644-1.848.644-.6814 0-1.3067-.1727-1.876-.518-.5694-.3547-.9987-.7653-1.288-1.232-.2147-.3453-.378-.7327-.49-1.162-.112-.4387-.168-.8773-.168-1.316 0-.7653.1586-1.512.476-2.24.3266-.728.7746-1.31133 1.344-1.75.5413-.40133 1.162-.602 1.862-.602.7746 0 1.61.28467 2.506.854zm-3.752.966c-.084.14-.168.266-.252.378-.2054.308-.3547.5693-.448.784-.0934.2053-.1774.5227-.252.952-.0374.196-.056.4247-.056.686 0 .6627.1306 1.2367.392 1.722.2706.476.6393.798 1.106.966.224.084.476.126.756.126.7 0 1.2273-.308 1.582-.924.364-.6253.546-1.3953.546-2.31 0-.8493-.1587-1.54467-.476-2.086-.3174-.55067-.8074-.826-1.47-.826-.2707 0-.504.042-.7.126-.1867.084-.4294.21933-.728.406z" fill="#000"/><path clip-rule="evenodd" d="m47.6626 28.2148c-.6887-.966-2.1-.9031-2.7203.0845-.0355.0564-.0721.115-.1098.1755l-5.5807 4.9348c-.7277.6434-.7692 1.7647-.0911 2.4603l1.7151 1.7591c-.0019.0241-.0037.0481-.0053.072h-.0124v.3562 3.8161c0 .7375.4697 1.3653 1.1262 1.6007l-1.0713 1.0713c-.7487.655-1.6498.653-2.247.6517l-.077-.0001c-.9726 0-1.857-.9349-1.7734-2.2394.03-.4685-.3254-.8726-.7939-.9026s-.8726.3254-.9026.7939c-.1321 2.06 1.3045 4.0481 3.4699 4.0481.0304 0 .0648.0003.103.0006l.0005.0001c.6005.0057 2.1133.0202 3.3684-1.098.0122-.0108.0241-.0221.0357-.0336l1.2968-1.2969.8958-.8958h1.1862v2.492c0 .4694.3806.85.85.85.4695 0 .85-.3806.85-.85v-2.492h1.1731l2.0128 2.0128c.0116.0115.0235.0228.0357.0336 1.2551 1.1182 2.7679 1.1037 3.3684 1.0979.0383-.0003.0729-.0007.1035-.0007 2.1654 0 3.6019-1.988 3.4699-4.048-.03-.4685-.4341-.824-.9026-.7939-.4685.03-.8239.4341-.7939.9026.0836 1.3045-.8009 2.2393-1.7734 2.2393l-.077.0002c-.5972.0013-1.4983.0033-2.2471-.6517l-.9105-.9105c.6299-.2489 1.0754-.8632 1.0754-1.5816v-3.8161-.2445l1.8631-1.9109c.6781-.6955.6365-1.8168-.0911-2.4603l-5.6663-5.0104c-.0528-.0754-.1038-.1475-.1528-.2163zm4.6929 6.5003-.9581.9827c-.2266-.9124-.5579-1.8111-.9316-2.6537zm-5.8193-5.1459-.1875-.1658-.2026.1792c-.6114.9926-1.4483 2.4277-2.1634 3.9231-.8313 1.7384-1.4246 3.4125-1.4246 4.5515v3.8161h6.1343.0164 1.3009v-3.8161c0-1.5452-.5889-3.2972-1.3808-4.9338-.6825-1.4106-1.4853-2.6741-2.0927-3.5542zm-5.2401 6.0557c.2826-.9059.6736-1.8388 1.0879-2.7156l-2.0061 1.7738zm7.4731 4.0444c0 .4401-.3568.7969-.7969.7969s-.7969-.3568-.7969-.7969.3568-.7968.7969-.7968.7969.3567.7969.7968zm-4.0906.7969c.4401 0 .7968-.3568.7968-.7969s-.3567-.7968-.7968-.7968-.7969.3567-.7969.7968.3568.7969.7969.7969zm.6964 10.7089c0-.4695.3806-.85.85-.85s.85.3805.85.85c0 .4694-.3806.85-.85.85s-.85-.3806-.85-.85zm.85-2.55c-1.4083 0-2.55 1.1416-2.55 2.55 0 1.4083 1.1417 2.55 2.55 2.55s2.55-1.1417 2.55-2.55c0-1.4084-1.1417-2.55-2.55-2.55zm10.6042 1.7c-.4694 0-.85.3805-.85.85 0 .4694.3806.85.85.85.4695 0 .85-.3806.85-.85 0-.4695-.3805-.85-.85-.85zm-2.55.85c0-1.4084 1.1417-2.55 2.55-2.55 1.4084 0 2.55 1.1416 2.55 2.55 0 1.4083-1.1416 2.55-2.55 2.55-1.4083 0-2.55-1.1417-2.55-2.55zm-19.9584 0c0-.4695.3806-.85.85-.85.4695 0 .85.3805.85.85 0 .4694-.3805.85-.85.85-.4694 0-.85-.3806-.85-.85zm.85-2.55c-1.4083 0-2.55 1.1416-2.55 2.55 0 1.4083 1.1417 2.55 2.55 2.55 1.4084 0 2.55-1.1417 2.55-2.55 0-1.4084-1.1416-2.55-2.55-2.55z" fill="#4f5162" fill-rule="evenodd"/></svg>