<svg fill="none" viewBox="0 0 32 32" xmlns="http://www.w3.org/2000/svg"><circle cx="16" cy="16" fill="#00ade4" r="16"/><path clip-rule="evenodd" d="m9.34707 10.6963c.02685.015.05699.0309.09075.0475.31101.1532.80148.3086 1.45858.4455 1.3041.2717 3.1343.4445 5.1759.4445 2.0415 0 3.8718-.1728 5.1758-.4445.6571-.1369 1.1476-.2923 1.4586-.4455.0338-.0166.0639-.0325.0908-.0475-.0269-.015-.057-.0309-.0908-.0475-.311-.1532-.8015-.3086-1.4586-.4455-1.304-.27168-3.1343-.44451-5.1758-.44451-2.0416 0-3.8718.17283-5.1759.44451-.6571.1369-1.14757.2923-1.45858.4455-.03376.0166-.0639.0325-.09075.0475zm1.29443-1.71673c1.4104-.29384 3.3302-.47078 5.4308-.47078s4.0203.17694 5.4307.47078c.7001.14585 1.308.32717 1.756.54785.2228.10974.4386.2448.6068.41601.1702.17327.3315.42707.3315.75287 0 .1633-.0406.3085-.1024.4346l-1.2199 11.3033.0002.023c0 .3078-.1525.544-.306.7004-.1516.1542-.3428.2729-.5339.3671-.3848.1895-.9012.3428-1.4882.4651-1.1842.2467-2.7914.3945-4.5469.3945-1.7554 0-3.3626-.1478-4.5468-.3945-.587-.1223-1.1034-.2756-1.48816-.4651-.19117-.0942-.38239-.2129-.53391-.3671-.11411-.1162-.22766-.2765-.27846-.4775l-.00487.0005-.00385-.0384c-.01213-.0585-.01891-.1201-.01891-.185l.00001-.0031-1.16577-11.6042c-.00792-.0493-.01221-.1005-.01221-.1536 0-.3258.16128-.5796.33148-.75287.16816-.17121.38394-.30627.60674-.41601.44803-.22068 1.05592-.402 1.75601-.54785zm10.8615 3.43343c.456-.095.8729-.205 1.232-.3312l-1.1049 10.2374c-.0312.0216-.0786.0503-.1472.0841-.2477.1221-.6467.2494-1.1907.3627-1.0778.2246-2.5956.3683-4.292.3683-1.6963 0-3.2141-.1437-4.2919-.3683-.5441-.1133-.943-.2406-1.1907-.3627-.0706-.0347-.1186-.0641-.1498-.0859l-1.03089-10.2616c.37504.1371.81749.2557 1.30459.3572 1.4104.2938 3.3302.4708 5.4308.4708s4.0203-.177 5.4307-.4708zm-4.53 2.9269c.0663-.3387-.1546-.6671-.4933-.7334-.3388-.0663-.6671.1545-.7334.4933l-.8638 4.4122c-.0663.3388.1546.6671.4933.7335.3388.0663.6672-.1546.7335-.4933zm1.1478-.1061c.236-.2519.6315-.2649.8834-.0289l1.7275 1.6178c.2487.233.265.6223.0365.8752l-1.7274 1.9119c-.2314.2562-.6267.2762-.8828.0448s-.2762-.6266-.0448-.8827l1.3159-1.4565-1.2793-1.1982c-.252-.2359-.2649-.6315-.029-.8834zm-5.2025-.0198c.2469-.2412.6426-.2367.8838.0102.2413.2469.2367.6426-.0101.8838l-1.2895 1.2602 1.3085 1.3951c.2361.2517.2235.6473-.0283.8834-.2517.2361-.6473.2235-.8834-.0283l-1.7274-1.8416c-.2328-.2481-.2243-.6368.019-.8746z" fill="#fff" fill-rule="evenodd"/></svg>