<svg fill="none" xmlns="http://www.w3.org/2000/svg" viewBox="0 0 16 17"><path fill="currentColor" fill-rule="evenodd" clip-rule="evenodd" d="M12.504 14.214H3.088C1.382 14.214 0 12.807 0 11.071 0 9.55 1.064 8.28 2.476 7.991a.063.063 0 0 0 .05-.063c0-2.84 2.262-5.142 5.053-5.142 2.427 0 4.454 1.742 4.941 4.065a.294.294 0 0 0 .263.233C14.584 7.234 16 8.77 16 10.643c0 1.924-1.495 3.493-3.367 3.568l-.002.002-.001.001h-.126Zm-6.376-1.74c0-.356.289-.644.644-.644h2.963a.644.644 0 1 1 0 1.288H6.772a.644.644 0 0 1-.644-.644Zm1.083-6.727a.644.644 0 0 0-.877.944l1.797 1.668-1.797 1.668a.644.644 0 1 0 .877.944l2.304-2.14a.644.644 0 0 0 0-.944l-2.304-2.14Z" /></svg>