<svg width="24" height="24" viewBox="0 0 24 24" fill="none" xmlns="http://www.w3.org/2000/svg">
<path fill-rule="evenodd" clip-rule="evenodd" d="M2.75046 3.44322C2.75046 3.06036 3.06082 2.75 3.44367 2.75H6.21654C6.59939 2.75 6.90976 3.06036 6.90976 3.44322V6.22186C6.90976 6.60471 6.59939 6.91507 6.21654 6.91507H3.44367C3.06082 6.91507 2.75046 6.60471 2.75046 6.22186V3.44322ZM6.21654 3.44322L3.44367 3.44322V6.22186L6.21654 6.22186V3.44322ZM8.29568 3.44322C8.29568 3.06036 8.60605 2.75 8.9889 2.75H11.7618C12.1446 2.75 12.455 3.06036 12.455 3.44322V6.22186C12.455 6.60471 12.1446 6.91507 11.7618 6.91507H8.9889C8.60605 6.91507 8.29568 6.60471 8.29568 6.22186V3.44322ZM11.7618 3.44322L8.9889 3.44322V6.22186L11.7618 6.22186V3.44322ZM3.44367 8.28998C3.06082 8.28998 2.75046 8.60035 2.75046 8.9832V11.7618C2.75046 12.1447 3.06082 12.4551 3.44367 12.4551H6.21654C6.59939 12.4551 6.90976 12.1447 6.90976 11.7618V8.9832C6.90976 8.60035 6.59939 8.28998 6.21654 8.28998H3.44367ZM3.44367 8.9832L6.21654 8.9832V11.7618L3.44367 11.7618V8.9832Z" fill="#42AB45"/>
<path fill-rule="evenodd" clip-rule="evenodd" d="M18 17.3072C18 17.69 17.6896 18.0004 17.3068 18.0004H14.5339C14.1511 18.0004 13.8407 17.69 13.8407 17.3072V14.5286C13.8407 14.1457 14.1511 13.8353 14.5339 13.8353H17.3068C17.6896 13.8353 18 14.1457 18 14.5286V17.3072ZM14.5339 17.3072L17.3068 17.3072V14.5286L14.5339 14.5286V17.3072ZM12.4546 17.3072C12.4546 17.69 12.1442 18.0004 11.7614 18.0004H8.98852C8.60567 18.0004 8.29531 17.69 8.29531 17.3072V14.5286C8.29531 14.1457 8.60567 13.8353 8.98852 13.8353H11.7614C12.1442 13.8353 12.4546 14.1457 12.4546 14.5286V17.3072ZM8.98852 17.3072L11.7614 17.3072V14.5286L8.98852 14.5286V17.3072ZM17.3068 12.4604C17.6896 12.4604 18 12.1501 18 11.7672V8.98857C18 8.60572 17.6896 8.29536 17.3068 8.29536H14.5339C14.1511 8.29536 13.8407 8.60572 13.8407 8.98857V11.7672C13.8407 12.1501 14.1511 12.4604 14.5339 12.4604H17.3068ZM17.3068 11.7672L14.5339 11.7672V8.98857L17.3068 8.98857V11.7672Z" fill="#0278D5"/>
<path d="M22.8429 22.0793H19.1586C19.0286 22.0793 18.9222 21.9729 18.9222 21.8429V18.1586C18.9222 18.0286 19.0286 17.9222 19.1586 17.9222H22.8429C22.9729 17.9222 23.0793 18.0286 23.0793 18.1586V21.8429C23.0793 21.9729 22.9729 22.0793 22.8429 22.0793ZM19.3936 21.6064H22.6049V18.3951H19.3936V21.6064Z" fill="#4285F4"/>
<path d="M19.3936 21.6064H18.9207V18.1586C18.9207 18.0286 19.0271 17.9222 19.1571 17.9222H21.3163V18.3951H19.3936V21.6064Z" fill="#FBBC04"/>
<path d="M23.7636 21.6064H22.8429C22.7128 21.6064 22.6064 21.5 22.6064 21.3699C22.6064 21.2399 22.7128 21.1335 22.8429 21.1335H23.7636C23.8936 21.1335 24 21.2399 24 21.3699C24 21.5 23.8936 21.6064 23.7636 21.6064Z" fill="#4285F4"/>
<path d="M23.7636 20.2365H22.8429C22.7128 20.2365 22.6064 20.1301 22.6064 20C22.6064 19.87 22.7128 19.7635 22.8429 19.7635H23.7636C23.8936 19.7635 24 19.87 24 20C24 20.1301 23.8936 20.2365 23.7636 20.2365Z" fill="#EA4335"/>
<path d="M23.7636 18.8547H22.8429C22.7128 18.8547 22.6064 18.7483 22.6064 18.6182C22.6064 18.4882 22.7128 18.3818 22.8429 18.3818H23.7636C23.8936 18.3818 24 18.4882 24 18.6182C24 18.7483 23.8936 18.8547 23.7636 18.8547Z" fill="#EA4335"/>
<path d="M22.3818 18.3936C22.2517 18.3936 22.1453 18.2872 22.1453 18.1571V17.2365C22.1453 17.1064 22.2517 17 22.3818 17C22.5118 17 22.6182 17.1064 22.6182 17.2365V18.1571C22.6182 18.2872 22.5118 18.3936 22.3818 18.3936Z" fill="#EA4335"/>
<path d="M21 18.3936C20.87 18.3936 20.7635 18.2872 20.7635 18.1571V17.2365C20.7635 17.1064 20.87 17 21 17C21.1301 17 21.2365 17.1064 21.2365 17.2365V18.1571C21.2365 18.2872 21.1301 18.3936 21 18.3936Z" fill="#EA4335"/>
<path d="M19.6182 18.3936C19.4882 18.3936 19.3818 18.2872 19.3818 18.1571V17.2365C19.3818 17.1064 19.4882 17 19.6182 17C19.7483 17 19.8547 17.1064 19.8547 17.2365V18.1571C19.8547 18.2872 19.7483 18.3936 19.6182 18.3936Z" fill="#FBBC04"/>
<path d="M21.8719 21.1084H20.1281C19.998 21.1084 19.8916 21.002 19.8916 20.8719V19.1281C19.8916 18.998 19.998 18.8916 20.1281 18.8916H21.8719C22.002 18.8916 22.1084 18.998 22.1084 19.1281V20.8719C22.1084 21.002 22.002 21.1084 21.8719 21.1084ZM20.3645 20.6355H21.6355V19.3645H20.3645V20.6355Z" fill="#34A853"/>
<path d="M23.0793 21.1335H22.6064V18.3951H20.765V17.9222H22.8429C22.9729 17.9222 23.0793 18.0286 23.0793 18.1586V21.1335Z" fill="#EA4335"/>
<path d="M19.6182 23C19.4882 23 19.3818 22.8936 19.3818 22.7636V21.8429C19.3818 21.7128 19.4882 21.6064 19.6182 21.6064C19.7483 21.6064 19.8547 21.7128 19.8547 21.8429V22.7636C19.8547 22.8936 19.7483 23 19.6182 23Z" fill="#4285F4"/>
<path d="M21 23C20.87 23 20.7635 22.8936 20.7635 22.7636V21.8429C20.7635 21.7128 20.87 21.6064 21 21.6064C21.1301 21.6064 21.2365 21.7128 21.2365 21.8429V22.7636C21.2365 22.8936 21.1301 23 21 23Z" fill="#4285F4"/>
<path d="M22.3818 23C22.2517 23 22.1453 22.8936 22.1453 22.7636V21.8429C22.1453 21.7128 22.2517 21.6064 22.3818 21.6064C22.5118 21.6064 22.6182 21.7128 22.6182 21.8429V22.7636C22.6182 22.8936 22.5118 23 22.3818 23Z" fill="#4285F4"/>
<path d="M19.1571 18.8547H18.2365C18.1064 18.8547 18 18.7483 18 18.6182C18 18.4882 18.1064 18.3818 18.2365 18.3818H19.1571C19.2872 18.3818 19.3936 18.4882 19.3936 18.6182C19.3936 18.7483 19.2872 18.8547 19.1571 18.8547Z" fill="#FBBC04"/>
<path d="M19.1571 20.2365H18.2365C18.1064 20.2365 18 20.1301 18 20C18 19.87 18.1064 19.7635 18.2365 19.7635H19.1571C19.2872 19.7635 19.3936 19.87 19.3936 20C19.3936 20.1301 19.2872 20.2365 19.1571 20.2365Z" fill="#FBBC04"/>
<path d="M19.1571 21.6064H18.2365C18.1064 21.6064 18 21.5 18 21.3699C18 21.2399 18.1064 21.1335 18.2365 21.1335H19.1571C19.2872 21.1335 19.3936 21.2399 19.3936 21.3699C19.3936 21.5 19.2872 21.6064 19.1571 21.6064Z" fill="#FBBC04"/>
<path d="M5.80687 17.1579C5.77458 17.1255 5.75876 17.0886 5.75942 17.0471C5.76008 17.0056 5.7759 16.9693 5.80687 16.9383L6.46395 16.2812H4.52244C4.41855 16.2812 4.3298 16.2445 4.25619 16.1709C4.18262 16.0973 4.14583 16.0085 4.14583 15.9046V14.0937C4.14583 14.0494 4.16079 14.0123 4.19072 13.9824C4.22062 13.9525 4.25774 13.9375 4.30208 13.9375C4.34642 13.9375 4.38354 13.9525 4.41343 13.9824C4.44336 14.0123 4.45833 14.0494 4.45833 14.0937V15.9046C4.45833 15.9234 4.46434 15.9387 4.47635 15.9507C4.48836 15.9627 4.50373 15.9687 4.52244 15.9687H6.46395L5.80369 15.3085C5.77137 15.2762 5.75574 15.2396 5.75682 15.1987C5.75789 15.1579 5.77352 15.1213 5.80369 15.089C5.83602 15.0566 5.87295 15.0403 5.91447 15.0399C5.956 15.0395 5.99225 15.0548 6.02322 15.0857L6.93067 15.9932C6.95019 16.0127 6.96394 16.0333 6.97192 16.0549C6.97994 16.0765 6.98395 16.0999 6.98395 16.125C6.98395 16.1501 6.97994 16.1735 6.97192 16.1951C6.96394 16.2167 6.95019 16.2373 6.93067 16.2568L6.02963 17.1579C5.9973 17.1902 5.96019 17.2063 5.91828 17.2063C5.87633 17.2063 5.8392 17.1902 5.80687 17.1579Z" fill="#383946" stroke="#383946" stroke-width="0.2"/>
<path d="M17.1579 5.80687C17.1255 5.77458 17.0886 5.75876 17.0471 5.75942C17.0056 5.76008 16.9693 5.7759 16.9383 5.80687L16.2812 6.46395V4.52244C16.2812 4.41855 16.2445 4.3298 16.1709 4.25619C16.0973 4.18262 16.0085 4.14583 15.9046 4.14583H14.0937C14.0494 4.14583 14.0123 4.16079 13.9824 4.19072C13.9525 4.22062 13.9375 4.25774 13.9375 4.30208C13.9375 4.34642 13.9525 4.38354 13.9824 4.41343C14.0123 4.44336 14.0494 4.45833 14.0937 4.45833H15.9046C15.9234 4.45833 15.9387 4.46434 15.9507 4.47635C15.9627 4.48836 15.9687 4.50373 15.9687 4.52244V6.46395L15.3085 5.80369C15.2762 5.77137 15.2396 5.75574 15.1987 5.75682C15.1579 5.75789 15.1213 5.77352 15.089 5.80369C15.0566 5.83602 15.0403 5.87295 15.0399 5.91447C15.0395 5.956 15.0548 5.99225 15.0857 6.02322L15.9932 6.93067C16.0127 6.95019 16.0333 6.96394 16.0549 6.97192C16.0765 6.97994 16.0999 6.98395 16.125 6.98395C16.1501 6.98395 16.1735 6.97994 16.1951 6.97192C16.2167 6.96394 16.2373 6.95019 16.2568 6.93067L17.1579 6.02963C17.1902 5.9973 17.2063 5.96019 17.2063 5.91828C17.2063 5.87633 17.1902 5.8392 17.1579 5.80687Z" fill="#383946" stroke="#383946" stroke-width="0.2"/>
</svg>
