<svg width="32" height="32" viewBox="0 0 32 32" fill="none" xmlns="http://www.w3.org/2000/svg">
<path d="M13.3333 27.3333C13.0496 27.3333 12.812 27.2375 12.6207 27.046C12.4291 26.8547 12.3333 26.6171 12.3333 26.3333V8.51032L10.5693 10.254C10.376 10.4471 10.1418 10.5437 9.86666 10.5437C9.59155 10.5437 9.35733 10.4471 9.164 10.254C8.95733 10.0471 8.85955 9.80732 8.87066 9.53465C8.88177 9.26199 8.97955 9.03332 9.164 8.84865L12.4897 5.52299C12.7308 5.2821 13.012 5.16165 13.3333 5.16165C13.6547 5.16165 13.9359 5.2821 14.177 5.52299L17.5027 8.84865C17.7093 9.05554 17.8093 9.28976 17.8027 9.55132C17.7958 9.81287 17.6958 10.0471 17.5027 10.254C17.2958 10.4607 17.0594 10.5653 16.7937 10.568C16.5279 10.5704 16.2958 10.4725 16.0973 10.2743L14.3333 8.51032V18.4153C15.0684 17.53 15.9312 16.8795 16.9217 16.464C17.9123 16.0487 18.9563 15.841 20.0537 15.841C20.435 15.841 20.8009 15.8564 21.1513 15.8873C21.5018 15.918 21.8411 15.9641 22.1693 16.0257L20.4257 14.2613C20.2326 14.0682 20.136 13.8341 20.136 13.559C20.136 13.2837 20.2326 13.0494 20.4257 12.8563C20.6326 12.6494 20.8723 12.5515 21.145 12.5627C21.4174 12.5738 21.646 12.6717 21.8307 12.8563L25.1563 16.182C25.3974 16.4231 25.518 16.7043 25.518 17.0257C25.518 17.347 25.3974 17.6282 25.1563 17.8693L21.8307 21.1947C21.6376 21.388 21.4034 21.4847 21.1283 21.4847C20.853 21.4847 20.6188 21.388 20.4257 21.1947C20.2188 20.988 20.1174 20.7483 20.1217 20.4757C20.1261 20.203 20.2206 19.9743 20.405 19.7897L22.1693 18.0257C21.8138 17.9641 21.4497 17.9123 21.077 17.8703C20.7043 17.8285 20.3359 17.8077 19.9717 17.8077C18.729 17.8077 17.5829 18.1764 16.5333 18.914C15.4838 19.6515 14.7504 20.7828 14.3333 22.3077V26.3333C14.3333 26.6171 14.2376 26.8547 14.046 27.046C13.8547 27.2375 13.6171 27.3333 13.3333 27.3333Z" fill="#0278D5"/>
<path d="M30.4571 29.4391H25.5448C25.3714 29.4391 25.2296 29.2972 25.2296 29.1238V24.2115C25.2296 24.0381 25.3714 23.8962 25.5448 23.8962H30.4571C30.6305 23.8962 30.7724 24.0381 30.7724 24.2115V29.1238C30.7724 29.2972 30.6305 29.4391 30.4571 29.4391ZM25.8581 28.8085H30.1399V24.5268H25.8581V28.8085Z" fill="#4285F4"/>
<path d="M25.8581 28.8085H25.2276V24.2115C25.2276 24.0381 25.3694 23.8962 25.5428 23.8962H28.4217V24.5268H25.8581V28.8085Z" fill="#FBBC04"/>
<path d="M31.6847 28.8085H30.4571C30.2837 28.8085 30.1419 28.6666 30.1419 28.4932C30.1419 28.3199 30.2837 28.178 30.4571 28.178H31.6847C31.8581 28.178 32 28.3199 32 28.4932C32 28.6666 31.8581 28.8085 31.6847 28.8085Z" fill="#4285F4"/>
<path d="M31.6847 26.9819H30.4571C30.2837 26.9819 30.1419 26.84 30.1419 26.6667C30.1419 26.4933 30.2837 26.3514 30.4571 26.3514H31.6847C31.8581 26.3514 32 26.4933 32 26.6667C32 26.84 31.8581 26.9819 31.6847 26.9819Z" fill="#EA4335"/>
<path d="M31.6847 25.1396H30.4571C30.2837 25.1396 30.1419 24.9977 30.1419 24.8243C30.1419 24.6509 30.2837 24.509 30.4571 24.509H31.6847C31.8581 24.509 32 24.6509 32 24.8243C32 24.9977 31.8581 25.1396 31.6847 25.1396Z" fill="#EA4335"/>
<path d="M29.8424 24.5248C29.669 24.5248 29.5271 24.3829 29.5271 24.2095V22.9819C29.5271 22.8085 29.669 22.6667 29.8424 22.6667C30.0158 22.6667 30.1576 22.8085 30.1576 22.9819V24.2095C30.1576 24.3829 30.0158 24.5248 29.8424 24.5248Z" fill="#EA4335"/>
<path d="M28 24.5248C27.8266 24.5248 27.6847 24.3829 27.6847 24.2095V22.9819C27.6847 22.8085 27.8266 22.6667 28 22.6667C28.1734 22.6667 28.3153 22.8085 28.3153 22.9819V24.2095C28.3153 24.3829 28.1734 24.5248 28 24.5248Z" fill="#EA4335"/>
<path d="M26.1576 24.5248C25.9842 24.5248 25.8424 24.3829 25.8424 24.2095V22.9819C25.8424 22.8085 25.9842 22.6667 26.1576 22.6667C26.331 22.6667 26.4729 22.8085 26.4729 22.9819V24.2095C26.4729 24.3829 26.331 24.5248 26.1576 24.5248Z" fill="#FBBC04"/>
<path d="M29.1626 28.1445H26.8375C26.6641 28.1445 26.5222 28.0026 26.5222 27.8292V25.5041C26.5222 25.3307 26.6641 25.1888 26.8375 25.1888H29.1626C29.336 25.1888 29.4779 25.3307 29.4779 25.5041V27.8292C29.4779 28.0026 29.336 28.1445 29.1626 28.1445ZM27.1527 27.514H28.8473V25.8194H27.1527V27.514Z" fill="#34A853"/>
<path d="M30.7724 28.178H30.1419V24.5268H27.6867V23.8962H30.4572C30.6306 23.8962 30.7724 24.0381 30.7724 24.2115V28.178Z" fill="#EA4335"/>
<path d="M26.1576 30.6667C25.9842 30.6667 25.8424 30.5248 25.8424 30.3514V29.1238C25.8424 28.9504 25.9842 28.8085 26.1576 28.8085C26.331 28.8085 26.4729 28.9504 26.4729 29.1238V30.3514C26.4729 30.5248 26.331 30.6667 26.1576 30.6667Z" fill="#4285F4"/>
<path d="M28 30.6667C27.8266 30.6667 27.6847 30.5248 27.6847 30.3514V29.1238C27.6847 28.9504 27.8266 28.8085 28 28.8085C28.1734 28.8085 28.3153 28.9504 28.3153 29.1238V30.3514C28.3153 30.5248 28.1734 30.6667 28 30.6667Z" fill="#4285F4"/>
<path d="M29.8424 30.6667C29.669 30.6667 29.5271 30.5248 29.5271 30.3514V29.1238C29.5271 28.9504 29.669 28.8085 29.8424 28.8085C30.0158 28.8085 30.1576 28.9504 30.1576 29.1238V30.3514C30.1576 30.5248 30.0158 30.6667 29.8424 30.6667Z" fill="#4285F4"/>
<path d="M25.5429 25.1396H24.3153C24.1419 25.1396 24 24.9977 24 24.8243C24 24.6509 24.1419 24.509 24.3153 24.509H25.5429C25.7163 24.509 25.8581 24.6509 25.8581 24.8243C25.8581 24.9977 25.7163 25.1396 25.5429 25.1396Z" fill="#FBBC04"/>
<path d="M25.5429 26.9819H24.3153C24.1419 26.9819 24 26.84 24 26.6667C24 26.4933 24.1419 26.3514 24.3153 26.3514H25.5429C25.7163 26.3514 25.8581 26.4933 25.8581 26.6667C25.8581 26.84 25.7163 26.9819 25.5429 26.9819Z" fill="#FBBC04"/>
<path d="M25.5429 28.8085H24.3153C24.1419 28.8085 24 28.6666 24 28.4932C24 28.3199 24.1419 28.178 24.3153 28.178H25.5429C25.7163 28.178 25.8581 28.3199 25.8581 28.4932C25.8581 28.6666 25.7163 28.8085 25.5429 28.8085Z" fill="#FBBC04"/>
</svg>
