<svg width="32" height="32" viewBox="0 0 32 32" fill="none" xmlns="http://www.w3.org/2000/svg">
<path fill-rule="evenodd" clip-rule="evenodd" d="M3.66727 4.59095C3.66727 4.08047 4.08109 3.66666 4.59156 3.66666H8.28872C8.79919 3.66666 9.21301 4.08047 9.21301 4.59095V8.2958C9.21301 8.80627 8.79919 9.22009 8.28872 9.22009H4.59156C4.08109 9.22009 3.66727 8.80627 3.66727 8.2958V4.59095ZM8.28872 4.59095L4.59156 4.59095V8.2958L8.28872 8.2958V4.59095ZM11.0609 4.59095C11.0609 4.08047 11.4747 3.66666 11.9852 3.66666H15.6824C16.1928 3.66666 16.6066 4.08047 16.6066 4.59095V8.2958C16.6066 8.80627 16.1928 9.22009 15.6824 9.22009H11.9852C11.4747 9.22009 11.0609 8.80627 11.0609 8.2958V4.59095ZM15.6824 4.59095L11.9852 4.59095V8.2958L15.6824 8.2958V4.59095ZM4.59156 11.0533C4.08109 11.0533 3.66727 11.4671 3.66727 11.9776V15.6824C3.66727 16.1929 4.08109 16.6067 4.59156 16.6067H8.28872C8.79919 16.6067 9.21301 16.1929 9.21301 15.6824V11.9776C9.21301 11.4671 8.79919 11.0533 8.28872 11.0533H4.59156ZM4.59156 11.9776L8.28872 11.9776V15.6824L4.59156 15.6824V11.9776Z" fill="#42AB45"/>
<path fill-rule="evenodd" clip-rule="evenodd" d="M24 23.0763C24 23.5867 23.5862 24.0005 23.0757 24.0005H19.3786C18.8681 24.0005 18.4543 23.5867 18.4543 23.0763V19.3714C18.4543 18.8609 18.8681 18.4471 19.3786 18.4471H23.0757C23.5862 18.4471 24 18.8609 24 19.3714V23.0763ZM19.3786 23.0763L23.0757 23.0763V19.3714L19.3786 19.3714V23.0763ZM16.6061 23.0763C16.6061 23.5867 16.1923 24.0005 15.6819 24.0005H11.9847C11.4742 24.0005 11.0604 23.5867 11.0604 23.0763V19.3714C11.0604 18.8609 11.4742 18.4471 11.9847 18.4471H15.6819C16.1923 18.4471 16.6061 18.8609 16.6061 19.3714V23.0763ZM11.9847 23.0763L15.6819 23.0763V19.3714L11.9847 19.3714V23.0763ZM23.0757 16.6139C23.5862 16.6139 24 16.2001 24 15.6896V11.9848C24 11.4743 23.5862 11.0605 23.0757 11.0605H19.3786C18.8681 11.0605 18.4543 11.4743 18.4543 11.9848V15.6896C18.4543 16.2001 18.8681 16.6139 19.3786 16.6139H23.0757ZM23.0757 15.6896L19.3786 15.6896V11.9848L23.0757 11.9848V15.6896Z" fill="#0278D5"/>
<path d="M30.4571 29.4391H25.5448C25.3714 29.4391 25.2296 29.2972 25.2296 29.1238V24.2115C25.2296 24.0381 25.3714 23.8962 25.5448 23.8962H30.4571C30.6305 23.8962 30.7724 24.0381 30.7724 24.2115V29.1238C30.7724 29.2972 30.6305 29.4391 30.4571 29.4391ZM25.8581 28.8086H30.1399V24.5268H25.8581V28.8086Z" fill="#4285F4"/>
<path d="M25.8581 28.8086H25.2276V24.2115C25.2276 24.0381 25.3694 23.8962 25.5428 23.8962H28.4217V24.5268H25.8581V28.8086Z" fill="#FBBC04"/>
<path d="M31.6847 28.8086H30.4571C30.2837 28.8086 30.1419 28.6667 30.1419 28.4933C30.1419 28.3199 30.2837 28.178 30.4571 28.178H31.6847C31.8581 28.178 32 28.3199 32 28.4933C32 28.6667 31.8581 28.8086 31.6847 28.8086Z" fill="#4285F4"/>
<path d="M31.6847 26.982H30.4571C30.2837 26.982 30.1419 26.8401 30.1419 26.6667C30.1419 26.4933 30.2837 26.3514 30.4571 26.3514H31.6847C31.8581 26.3514 32 26.4933 32 26.6667C32 26.8401 31.8581 26.982 31.6847 26.982Z" fill="#EA4335"/>
<path d="M31.6847 25.1396H30.4571C30.2837 25.1396 30.1419 24.9978 30.1419 24.8244C30.1419 24.651 30.2837 24.5091 30.4571 24.5091H31.6847C31.8581 24.5091 32 24.651 32 24.8244C32 24.9978 31.8581 25.1396 31.6847 25.1396Z" fill="#EA4335"/>
<path d="M29.8424 24.5248C29.669 24.5248 29.5271 24.3829 29.5271 24.2095V22.982C29.5271 22.8086 29.669 22.6667 29.8424 22.6667C30.0158 22.6667 30.1576 22.8086 30.1576 22.982V24.2095C30.1576 24.3829 30.0158 24.5248 29.8424 24.5248Z" fill="#EA4335"/>
<path d="M28 24.5248C27.8266 24.5248 27.6847 24.3829 27.6847 24.2095V22.982C27.6847 22.8086 27.8266 22.6667 28 22.6667C28.1734 22.6667 28.3153 22.8086 28.3153 22.982V24.2095C28.3153 24.3829 28.1734 24.5248 28 24.5248Z" fill="#EA4335"/>
<path d="M26.1576 24.5248C25.9842 24.5248 25.8424 24.3829 25.8424 24.2095V22.982C25.8424 22.8086 25.9842 22.6667 26.1576 22.6667C26.331 22.6667 26.4729 22.8086 26.4729 22.982V24.2095C26.4729 24.3829 26.331 24.5248 26.1576 24.5248Z" fill="#FBBC04"/>
<path d="M29.1626 28.1446H26.8375C26.6641 28.1446 26.5222 28.0027 26.5222 27.8293V25.5042C26.5222 25.3308 26.6641 25.1889 26.8375 25.1889H29.1626C29.336 25.1889 29.4779 25.3308 29.4779 25.5042V27.8293C29.4779 28.0027 29.336 28.1446 29.1626 28.1446ZM27.1527 27.514H28.8473V25.8194H27.1527V27.514Z" fill="#34A853"/>
<path d="M30.7724 28.178H30.1419V24.5268H27.6867V23.8962H30.4572C30.6306 23.8962 30.7724 24.0381 30.7724 24.2115V28.178Z" fill="#EA4335"/>
<path d="M26.1576 30.6667C25.9842 30.6667 25.8424 30.5249 25.8424 30.3515V29.1239C25.8424 28.9505 25.9842 28.8086 26.1576 28.8086C26.331 28.8086 26.4729 28.9505 26.4729 29.1239V30.3515C26.4729 30.5249 26.331 30.6667 26.1576 30.6667Z" fill="#4285F4"/>
<path d="M28 30.6667C27.8266 30.6667 27.6847 30.5249 27.6847 30.3515V29.1239C27.6847 28.9505 27.8266 28.8086 28 28.8086C28.1734 28.8086 28.3153 28.9505 28.3153 29.1239V30.3515C28.3153 30.5249 28.1734 30.6667 28 30.6667Z" fill="#4285F4"/>
<path d="M29.8424 30.6667C29.669 30.6667 29.5271 30.5249 29.5271 30.3515V29.1239C29.5271 28.9505 29.669 28.8086 29.8424 28.8086C30.0158 28.8086 30.1576 28.9505 30.1576 29.1239V30.3515C30.1576 30.5249 30.0158 30.6667 29.8424 30.6667Z" fill="#4285F4"/>
<path d="M25.5429 25.1396H24.3153C24.1419 25.1396 24 24.9978 24 24.8244C24 24.651 24.1419 24.5091 24.3153 24.5091H25.5429C25.7163 24.5091 25.8581 24.651 25.8581 24.8244C25.8581 24.9978 25.7163 25.1396 25.5429 25.1396Z" fill="#FBBC04"/>
<path d="M25.5429 26.982H24.3153C24.1419 26.982 24 26.8401 24 26.6667C24 26.4933 24.1419 26.3514 24.3153 26.3514H25.5429C25.7163 26.3514 25.8581 26.4933 25.8581 26.6667C25.8581 26.8401 25.7163 26.982 25.5429 26.982Z" fill="#FBBC04"/>
<path d="M25.5429 28.8086H24.3153C24.1419 28.8086 24 28.6667 24 28.4933C24 28.3199 24.1419 28.178 24.3153 28.178H25.5429C25.7163 28.178 25.8581 28.3199 25.8581 28.4933C25.8581 28.6667 25.7163 28.8086 25.5429 28.8086Z" fill="#FBBC04"/>
</svg>
