<svg width="32" height="32" viewBox="0 0 32 32" fill="none" xmlns="http://www.w3.org/2000/svg">
<path fill-rule="evenodd" clip-rule="evenodd" d="M3.66728 4.59095C3.66728 4.08047 4.0811 3.66666 4.59157 3.66666H8.28873C8.7992 3.66666 9.21301 4.08047 9.21301 4.59095V8.2958C9.21301 8.80627 8.7992 9.22009 8.28873 9.22009H4.59157C4.0811 9.22009 3.66728 8.80627 3.66728 8.2958V4.59095ZM8.28873 4.59095L4.59157 4.59095V8.2958L8.28873 8.2958V4.59095ZM11.0609 4.59095C11.0609 4.08047 11.4747 3.66666 11.9852 3.66666H15.6824C16.1928 3.66666 16.6066 4.08047 16.6066 4.59095V8.2958C16.6066 8.80627 16.1928 9.22009 15.6824 9.22009H11.9852C11.4747 9.22009 11.0609 8.80627 11.0609 8.2958V4.59095ZM15.6824 4.59095L11.9852 4.59095V8.2958L15.6824 8.2958V4.59095ZM4.59157 11.0533C4.0811 11.0533 3.66728 11.4671 3.66728 11.9776V15.6824C3.66728 16.1929 4.0811 16.6067 4.59157 16.6067H8.28873C8.7992 16.6067 9.21301 16.1929 9.21301 15.6824V11.9776C9.21301 11.4671 8.7992 11.0533 8.28873 11.0533H4.59157ZM4.59157 11.9776L8.28873 11.9776V15.6824L4.59157 15.6824V11.9776Z" fill="#42AB45"/>
<path fill-rule="evenodd" clip-rule="evenodd" d="M24 23.0763C24 23.5867 23.5862 24.0005 23.0757 24.0005H19.3786C18.8681 24.0005 18.4543 23.5867 18.4543 23.0763V19.3714C18.4543 18.8609 18.8681 18.4471 19.3786 18.4471H23.0757C23.5862 18.4471 24 18.8609 24 19.3714V23.0763ZM19.3786 23.0763L23.0757 23.0763V19.3714L19.3786 19.3714V23.0763ZM16.6061 23.0763C16.6061 23.5867 16.1923 24.0005 15.6819 24.0005H11.9847C11.4742 24.0005 11.0604 23.5867 11.0604 23.0763V19.3714C11.0604 18.8609 11.4742 18.4471 11.9847 18.4471H15.6819C16.1923 18.4471 16.6061 18.8609 16.6061 19.3714V23.0763ZM11.9847 23.0763L15.6819 23.0763V19.3714L11.9847 19.3714V23.0763ZM23.0757 16.6139C23.5862 16.6139 24 16.2001 24 15.6896V11.9848C24 11.4743 23.5862 11.0605 23.0757 11.0605H19.3786C18.8681 11.0605 18.4543 11.4743 18.4543 11.9848V15.6896C18.4543 16.2001 18.8681 16.6139 19.3786 16.6139H23.0757ZM23.0757 15.6896L19.3786 15.6896V11.9848L23.0757 11.9848V15.6896Z" fill="#0278D5"/>
<path d="M7.74249 22.8772C7.69944 22.8341 7.67835 22.7848 7.67923 22.7295C7.68011 22.6741 7.7012 22.6257 7.74249 22.5844L8.6186 21.7083H6.02992C5.89141 21.7083 5.77307 21.6593 5.67492 21.5612C5.57682 21.463 5.52777 21.3447 5.52777 21.2062V18.7917C5.52777 18.7326 5.54772 18.6831 5.58763 18.6432C5.62749 18.6033 5.67698 18.5833 5.7361 18.5833C5.79522 18.5833 5.84472 18.6033 5.88458 18.6432C5.92448 18.6831 5.94444 18.7326 5.94444 18.7917V21.2062C5.94444 21.2311 5.95245 21.2516 5.96847 21.2676C5.98448 21.2837 6.00497 21.2917 6.02992 21.2917H8.6186L7.73826 20.4113C7.69516 20.3682 7.67432 20.3194 7.67576 20.2649C7.67719 20.2105 7.69803 20.1617 7.73826 20.1186C7.78136 20.0755 7.8306 20.0537 7.88597 20.0532C7.94134 20.0526 7.98967 20.073 8.03097 20.1143L9.2409 21.3242C9.26691 21.3503 9.28525 21.3777 9.2959 21.4065C9.30659 21.4354 9.31194 21.4665 9.31194 21.5C9.31194 21.5335 9.30659 21.5646 9.2959 21.5935C9.28525 21.6223 9.26691 21.6498 9.2409 21.6758L8.03951 22.8772C7.99641 22.9202 7.94691 22.9417 7.89103 22.9417C7.83511 22.9417 7.78559 22.9202 7.74249 22.8772Z" fill="#383946" stroke="#383946" stroke-width="0.2"/>
<path d="M22.8771 7.74252C22.834 7.69947 22.7848 7.67838 22.7294 7.67926C22.6741 7.68014 22.6257 7.70123 22.5844 7.74252L21.7083 8.61863V6.02995C21.7083 5.89144 21.6593 5.7731 21.5612 5.67495C21.463 5.57685 21.3447 5.5278 21.2062 5.5278H18.7917C18.7325 5.5278 18.6831 5.54776 18.6432 5.58766C18.6033 5.62752 18.5833 5.67701 18.5833 5.73613C18.5833 5.79526 18.6033 5.84475 18.6432 5.88461C18.6831 5.92451 18.7325 5.94447 18.7917 5.94447H21.2062C21.2311 5.94447 21.2516 5.95248 21.2676 5.9685C21.2837 5.98451 21.2917 6.005 21.2917 6.02995V8.61863L20.4113 7.73829C20.3682 7.69519 20.3194 7.67435 20.2649 7.67579C20.2105 7.67722 20.1617 7.69806 20.1186 7.73829C20.0755 7.78139 20.0537 7.83063 20.0532 7.886C20.0526 7.94137 20.073 7.9897 20.1143 8.031L21.3242 9.24093C21.3502 9.26695 21.3777 9.28528 21.4065 9.29593C21.4354 9.30662 21.4665 9.31197 21.5 9.31197C21.5335 9.31197 21.5646 9.30662 21.5935 9.29593C21.6223 9.28528 21.6497 9.26695 21.6758 9.24093L22.8771 8.03954C22.9202 7.99644 22.9417 7.94695 22.9417 7.89107C22.9417 7.83514 22.9202 7.78563 22.8771 7.74252Z" fill="#383946" stroke="#383946" stroke-width="0.2"/>
<path d="M30.4571 29.4391H25.5448C25.3714 29.4391 25.2296 29.2972 25.2296 29.1238V24.2115C25.2296 24.0381 25.3714 23.8962 25.5448 23.8962H30.4571C30.6305 23.8962 30.7724 24.0381 30.7724 24.2115V29.1238C30.7724 29.2972 30.6305 29.4391 30.4571 29.4391ZM25.8581 28.8085H30.1399V24.5268H25.8581V28.8085Z" fill="#4285F4"/>
<path d="M25.8581 28.8085H25.2276V24.2115C25.2276 24.0381 25.3694 23.8962 25.5428 23.8962H28.4217V24.5268H25.8581V28.8085Z" fill="#FBBC04"/>
<path d="M31.6847 28.8085H30.4571C30.2837 28.8085 30.1419 28.6666 30.1419 28.4932C30.1419 28.3199 30.2837 28.178 30.4571 28.178H31.6847C31.8581 28.178 32 28.3199 32 28.4932C32 28.6666 31.8581 28.8085 31.6847 28.8085Z" fill="#4285F4"/>
<path d="M31.6847 26.9819H30.4571C30.2837 26.9819 30.1419 26.84 30.1419 26.6667C30.1419 26.4933 30.2837 26.3514 30.4571 26.3514H31.6847C31.8581 26.3514 32 26.4933 32 26.6667C32 26.84 31.8581 26.9819 31.6847 26.9819Z" fill="#EA4335"/>
<path d="M31.6847 25.1396H30.4571C30.2837 25.1396 30.1419 24.9977 30.1419 24.8243C30.1419 24.6509 30.2837 24.509 30.4571 24.509H31.6847C31.8581 24.509 32 24.6509 32 24.8243C32 24.9977 31.8581 25.1396 31.6847 25.1396Z" fill="#EA4335"/>
<path d="M29.8424 24.5248C29.669 24.5248 29.5271 24.3829 29.5271 24.2095V22.9819C29.5271 22.8085 29.669 22.6667 29.8424 22.6667C30.0158 22.6667 30.1576 22.8085 30.1576 22.9819V24.2095C30.1576 24.3829 30.0158 24.5248 29.8424 24.5248Z" fill="#EA4335"/>
<path d="M28 24.5248C27.8266 24.5248 27.6847 24.3829 27.6847 24.2095V22.9819C27.6847 22.8085 27.8266 22.6667 28 22.6667C28.1734 22.6667 28.3153 22.8085 28.3153 22.9819V24.2095C28.3153 24.3829 28.1734 24.5248 28 24.5248Z" fill="#EA4335"/>
<path d="M26.1576 24.5248C25.9842 24.5248 25.8424 24.3829 25.8424 24.2095V22.9819C25.8424 22.8085 25.9842 22.6667 26.1576 22.6667C26.331 22.6667 26.4729 22.8085 26.4729 22.9819V24.2095C26.4729 24.3829 26.331 24.5248 26.1576 24.5248Z" fill="#FBBC04"/>
<path d="M29.1626 28.1445H26.8375C26.6641 28.1445 26.5222 28.0026 26.5222 27.8292V25.5041C26.5222 25.3307 26.6641 25.1888 26.8375 25.1888H29.1626C29.336 25.1888 29.4779 25.3307 29.4779 25.5041V27.8292C29.4779 28.0026 29.336 28.1445 29.1626 28.1445ZM27.1527 27.514H28.8473V25.8194H27.1527V27.514Z" fill="#34A853"/>
<path d="M30.7724 28.178H30.1419V24.5268H27.6867V23.8962H30.4572C30.6306 23.8962 30.7724 24.0381 30.7724 24.2115V28.178Z" fill="#EA4335"/>
<path d="M26.1576 30.6667C25.9842 30.6667 25.8424 30.5248 25.8424 30.3514V29.1238C25.8424 28.9504 25.9842 28.8085 26.1576 28.8085C26.331 28.8085 26.4729 28.9504 26.4729 29.1238V30.3514C26.4729 30.5248 26.331 30.6667 26.1576 30.6667Z" fill="#4285F4"/>
<path d="M28 30.6667C27.8266 30.6667 27.6847 30.5248 27.6847 30.3514V29.1238C27.6847 28.9504 27.8266 28.8085 28 28.8085C28.1734 28.8085 28.3153 28.9504 28.3153 29.1238V30.3514C28.3153 30.5248 28.1734 30.6667 28 30.6667Z" fill="#4285F4"/>
<path d="M29.8424 30.6667C29.669 30.6667 29.5271 30.5248 29.5271 30.3514V29.1238C29.5271 28.9504 29.669 28.8085 29.8424 28.8085C30.0158 28.8085 30.1576 28.9504 30.1576 29.1238V30.3514C30.1576 30.5248 30.0158 30.6667 29.8424 30.6667Z" fill="#4285F4"/>
<path d="M25.5429 25.1396H24.3153C24.1419 25.1396 24 24.9977 24 24.8243C24 24.6509 24.1419 24.509 24.3153 24.509H25.5429C25.7163 24.509 25.8581 24.6509 25.8581 24.8243C25.8581 24.9977 25.7163 25.1396 25.5429 25.1396Z" fill="#FBBC04"/>
<path d="M25.5429 26.9819H24.3153C24.1419 26.9819 24 26.84 24 26.6667C24 26.4933 24.1419 26.3514 24.3153 26.3514H25.5429C25.7163 26.3514 25.8581 26.4933 25.8581 26.6667C25.8581 26.84 25.7163 26.9819 25.5429 26.9819Z" fill="#FBBC04"/>
<path d="M25.5429 28.8085H24.3153C24.1419 28.8085 24 28.6666 24 28.4932C24 28.3199 24.1419 28.178 24.3153 28.178H25.5429C25.7163 28.178 25.8581 28.3199 25.8581 28.4932C25.8581 28.6666 25.7163 28.8085 25.5429 28.8085Z" fill="#FBBC04"/>
</svg>
