<svg width="24" height="24" viewBox="0 0 24 24" fill="none" xmlns="http://www.w3.org/2000/svg">
<path d="M8.15385 19.5588C8.15385 19.6838 8.09853 19.7886 7.98788 19.8731C7.87724 19.9577 7.74019 20 7.57673 20C7.41314 20 7.27615 19.9577 7.16577 19.8731C7.05526 19.7886 7 19.6838 7 19.5588L7 10.4412C7 10.3162 7.05532 10.2114 7.16596 10.1269C7.2766 10.0423 7.41365 10 7.57712 10C7.74071 10 7.87769 10.0423 7.98808 10.1269C8.09859 10.2114 8.15385 10.3162 8.15385 10.4412V19.5588ZM17 19.5588C17 19.6838 16.9447 19.7886 16.834 19.8731C16.7234 19.9577 16.5863 20 16.4229 20C16.2593 20 16.1223 19.9577 16.0119 19.8731C15.9014 19.7886 15.8462 19.6838 15.8462 19.5588V10.4412C15.8462 10.3162 15.9015 10.2114 16.0121 10.1269C16.1228 10.0423 16.2598 10 16.4233 10C16.5869 10 16.7238 10.0423 16.8342 10.1269C16.9447 10.2114 17 10.3162 17 10.4412V19.5588ZM12.5769 19.5588C12.5769 19.6838 12.5216 19.7886 12.411 19.8731C12.3003 19.9577 12.1633 20 11.9998 20C11.8362 20 11.6992 19.9577 11.5888 19.8731C11.4783 19.7886 11.4231 19.6838 11.4231 19.5588V10.4412C11.4231 10.3162 11.4784 10.2114 11.589 10.1269C11.6997 10.0423 11.8367 10 12.0002 10C12.1638 10 12.3008 10.0423 12.4112 10.1269C12.5217 10.2114 12.5769 10.3162 12.5769 10.4412V19.5588Z" fill="#0278D5" stroke="#0278D5" stroke-width="0.4"/>
<path d="M15.5761 5.99164H7.42521C7.30454 5.99164 7.20353 5.94494 7.12218 5.85155C7.04073 5.75827 7 5.64246 7 5.50411C7 5.36576 7.04073 5.24994 7.12218 5.15666C7.20353 5.06327 7.30454 5.01658 7.42521 5.01658H15.5761L14.5512 3.83155C14.467 3.73481 14.4253 3.62164 14.4264 3.49207C14.4275 3.3625 14.472 3.24728 14.5599 3.14641C14.6479 3.05226 14.7489 3.00351 14.8631 3.00015C14.9772 2.9969 15.0753 3.04566 15.1574 3.14641L16.8462 5.09279C16.9487 5.21034 17 5.34745 17 5.50411C17 5.66077 16.9487 5.79787 16.8462 5.91542L15.1487 7.8618C15.0701 7.95172 14.9729 7.99777 14.8571 7.99993C14.7412 8.00199 14.6392 7.95595 14.5512 7.8618C14.4633 7.76094 14.4193 7.64507 14.4193 7.51419C14.4193 7.38343 14.4633 7.26761 14.5512 7.16675L15.5761 5.99164Z" fill="#0278D5" stroke="#0278D5" stroke-width="0.4"/>
<path d="M22.8429 22.0793H19.1586C19.0286 22.0793 18.9222 21.9729 18.9222 21.8429V18.1586C18.9222 18.0286 19.0286 17.9222 19.1586 17.9222H22.8429C22.9729 17.9222 23.0793 18.0286 23.0793 18.1586V21.8429C23.0793 21.9729 22.9729 22.0793 22.8429 22.0793ZM19.3936 21.6064H22.6049V18.3951H19.3936V21.6064Z" fill="#4285F4"/>
<path d="M19.3936 21.6064H18.9207V18.1586C18.9207 18.0286 19.0271 17.9222 19.1571 17.9222H21.3163V18.3951H19.3936V21.6064Z" fill="#FBBC04"/>
<path d="M23.7636 21.6064H22.8429C22.7128 21.6064 22.6064 21.5 22.6064 21.3699C22.6064 21.2399 22.7128 21.1335 22.8429 21.1335H23.7636C23.8936 21.1335 24 21.2399 24 21.3699C24 21.5 23.8936 21.6064 23.7636 21.6064Z" fill="#4285F4"/>
<path d="M23.7636 20.2365H22.8429C22.7128 20.2365 22.6064 20.1301 22.6064 20C22.6064 19.87 22.7128 19.7635 22.8429 19.7635H23.7636C23.8936 19.7635 24 19.87 24 20C24 20.1301 23.8936 20.2365 23.7636 20.2365Z" fill="#EA4335"/>
<path d="M23.7636 18.8547H22.8429C22.7128 18.8547 22.6064 18.7483 22.6064 18.6182C22.6064 18.4882 22.7128 18.3818 22.8429 18.3818H23.7636C23.8936 18.3818 24 18.4882 24 18.6182C24 18.7483 23.8936 18.8547 23.7636 18.8547Z" fill="#EA4335"/>
<path d="M22.3818 18.3936C22.2517 18.3936 22.1453 18.2872 22.1453 18.1571V17.2365C22.1453 17.1064 22.2517 17 22.3818 17C22.5118 17 22.6182 17.1064 22.6182 17.2365V18.1571C22.6182 18.2872 22.5118 18.3936 22.3818 18.3936Z" fill="#EA4335"/>
<path d="M21 18.3936C20.87 18.3936 20.7635 18.2872 20.7635 18.1571V17.2365C20.7635 17.1064 20.87 17 21 17C21.1301 17 21.2365 17.1064 21.2365 17.2365V18.1571C21.2365 18.2872 21.1301 18.3936 21 18.3936Z" fill="#EA4335"/>
<path d="M19.6182 18.3936C19.4882 18.3936 19.3818 18.2872 19.3818 18.1571V17.2365C19.3818 17.1064 19.4882 17 19.6182 17C19.7483 17 19.8547 17.1064 19.8547 17.2365V18.1571C19.8547 18.2872 19.7483 18.3936 19.6182 18.3936Z" fill="#FBBC04"/>
<path d="M21.8719 21.1084H20.1281C19.998 21.1084 19.8916 21.002 19.8916 20.8719V19.1281C19.8916 18.998 19.998 18.8916 20.1281 18.8916H21.8719C22.002 18.8916 22.1084 18.998 22.1084 19.1281V20.8719C22.1084 21.002 22.002 21.1084 21.8719 21.1084ZM20.3645 20.6355H21.6355V19.3645H20.3645V20.6355Z" fill="#34A853"/>
<path d="M23.0793 21.1335H22.6064V18.3951H20.765V17.9222H22.8429C22.9729 17.9222 23.0793 18.0286 23.0793 18.1586V21.1335Z" fill="#EA4335"/>
<path d="M19.6182 23C19.4882 23 19.3818 22.8936 19.3818 22.7636V21.8429C19.3818 21.7128 19.4882 21.6064 19.6182 21.6064C19.7483 21.6064 19.8547 21.7128 19.8547 21.8429V22.7636C19.8547 22.8936 19.7483 23 19.6182 23Z" fill="#4285F4"/>
<path d="M21 23C20.87 23 20.7635 22.8936 20.7635 22.7636V21.8429C20.7635 21.7128 20.87 21.6064 21 21.6064C21.1301 21.6064 21.2365 21.7128 21.2365 21.8429V22.7636C21.2365 22.8936 21.1301 23 21 23Z" fill="#4285F4"/>
<path d="M22.3818 23C22.2517 23 22.1453 22.8936 22.1453 22.7636V21.8429C22.1453 21.7128 22.2517 21.6064 22.3818 21.6064C22.5118 21.6064 22.6182 21.7128 22.6182 21.8429V22.7636C22.6182 22.8936 22.5118 23 22.3818 23Z" fill="#4285F4"/>
<path d="M19.1571 18.8547H18.2365C18.1064 18.8547 18 18.7483 18 18.6182C18 18.4882 18.1064 18.3818 18.2365 18.3818H19.1571C19.2872 18.3818 19.3936 18.4882 19.3936 18.6182C19.3936 18.7483 19.2872 18.8547 19.1571 18.8547Z" fill="#FBBC04"/>
<path d="M19.1571 20.2365H18.2365C18.1064 20.2365 18 20.1301 18 20C18 19.87 18.1064 19.7635 18.2365 19.7635H19.1571C19.2872 19.7635 19.3936 19.87 19.3936 20C19.3936 20.1301 19.2872 20.2365 19.1571 20.2365Z" fill="#FBBC04"/>
<path d="M19.1571 21.6064H18.2365C18.1064 21.6064 18 21.5 18 21.3699C18 21.2399 18.1064 21.1335 18.2365 21.1335H19.1571C19.2872 21.1335 19.3936 21.2399 19.3936 21.3699C19.3936 21.5 19.2872 21.6064 19.1571 21.6064Z" fill="#FBBC04"/>
</svg>
