<svg width="24" height="24" fill="none" xmlns="http://www.w3.org/2000/svg"><path d="M9.96 9.84H5.64v4.32h4.32V9.84Z" fill="#AECBFA"/><path d="M8.52 4.8H7.08v2.88h1.44V4.8Zm-2.88 0H4.2v2.88h1.44V4.8Zm5.76 0H9.96v2.88h1.44V4.8Z" fill="#669DF6"/><path d="M8.52 16.32H7.08v2.88h1.44v-2.88Zm-2.88 0H4.2v2.88h1.44v-2.88Zm5.76 0H9.96v2.88h1.44v-2.88Zm.72-5.04v1.44H15v-1.44h-2.88Zm0 2.88v1.44H15v-1.44h-2.88Zm0-5.76v1.44H15V8.4h-2.88Z" fill="#4285F4"/><path d="M.6 11.28v1.44h2.88v-1.44H.6Zm0 2.88v1.44h2.88v-1.44H.6Zm0-5.76v1.44h2.88V8.4H.6Z" fill="#669DF6"/><path d="M2.76 6.96v10.08h10.08V6.96H2.76Zm8.64 8.64H4.2V8.4h7.2v7.2Z" fill="#AECBFA"/><path d="M5.64 14.16h4.32L7.8 12l-2.16 2.16Z" fill="#669DF6"/><path d="m7.8 12 2.16 2.16V9.84L7.8 12Z" fill="#4285F4"/><path d="M21.72 6.48h-1.44v1.44h1.44V6.48Zm-.48-1.68h-.48v.96h.48V4.8Zm-.96 0h-.48v.96h.48V4.8Zm1.92 0h-.48v.96h.48V4.8Zm-.96 3.84h-.48v.96h.48v-.96Zm-.96 0h-.48v.96h.48v-.96Zm1.92 0h-.48v.96h.48v-.96Zm.24-1.68v.48h.96v-.48h-.96Zm0 .96v.48h.96v-.48h-.96Zm0-1.92v.48h.96V6h-.96Zm-3.84.96v.48h.96v-.48h-.96Zm0 .96v.48h.96v-.48h-.96Zm0-1.92v.48h.96V6h-.96Z" fill="#383946"/><path d="M19.32 5.52v3.36h3.36V5.52h-3.36ZM22.2 8.4h-2.4V6h2.4v2.4Z" fill="#383946"/><path d="M20.28 7.92h1.44L21 7.2l-.72.72Z" fill="#383946"/><path d="m21 7.2.72.72V6.48L21 7.2Zm.72 8.88h-1.44v1.44h1.44v-1.44Zm-.48-1.68h-.48v.96h.48v-.96Zm-.96 0h-.48v.96h.48v-.96Zm1.92 0h-.48v.96h.48v-.96Zm-.96 3.84h-.48v.96h.48v-.96Zm-.96 0h-.48v.96h.48v-.96Zm1.92 0h-.48v.96h.48v-.96Zm.24-1.68v.48h.96v-.48h-.96Zm0 .96V18h.96v-.48h-.96Zm0-1.92v.48h.96v-.48h-.96Zm-3.84.96v.48h.96v-.48h-.96Zm0 .96V18h.96v-.48h-.96Zm0-1.92v.48h.96v-.48h-.96Z" fill="#383946"/><path d="M19.32 15.12v3.36h3.36v-3.36h-3.36ZM22.2 18h-2.4v-2.4h2.4V18Z" fill="#383946"/><path d="M20.28 17.52h1.44L21 16.8l-.72.72Z" fill="#383946"/><path d="m21 16.8.72.72v-1.44l-.72.72Zm-5.22-7.6-.18-.18 1.962-1.963h-1.19V6.8H18v1.629h-.257V7.238L15.78 9.2Zm0 5.6-.18.18 1.962 1.963h-1.19v.257H18v-1.629h-.257v1.191L15.78 14.8Z" fill="#383946"/></svg>