<svg width="24" height="24" viewBox="0 0 24 24" fill="none" xmlns="http://www.w3.org/2000/svg">
<g clip-path="url(#clip0_15_3)">
<path d="M17.8453 18.5953H6.15937C5.74687 18.5953 5.40937 18.2578 5.40937 17.8453V6.15938C5.40937 5.74688 5.74687 5.40938 6.15937 5.40938H17.8453C18.2578 5.40938 18.5953 5.74688 18.5953 6.15938V17.8453C18.5953 18.2578 18.2578 18.5953 17.8453 18.5953ZM6.90469 17.0953H17.0906V6.90938H6.90469V17.0953Z" fill="#4285F4"/>
<path d="M6.90469 17.0953H5.40469V6.15938C5.40469 5.74688 5.74219 5.40938 6.15469 5.40938H13.0031V6.90938H6.90469V17.0953Z" fill="#FBBC04"/>
<path d="M20.7656 17.0953H17.8453C17.4328 17.0953 17.0953 16.7578 17.0953 16.3453C17.0953 15.9328 17.4328 15.5953 17.8453 15.5953H20.7656C21.1781 15.5953 21.5156 15.9328 21.5156 16.3453C21.5156 16.7578 21.1781 17.0953 20.7656 17.0953Z" fill="#4285F4"/>
<path d="M20.7656 12.75H17.8453C17.4328 12.75 17.0953 12.4125 17.0953 12C17.0953 11.5875 17.4328 11.25 17.8453 11.25H20.7656C21.1781 11.25 21.5156 11.5875 21.5156 12C21.5156 12.4125 21.1781 12.75 20.7656 12.75Z" fill="#EA4335"/>
<path d="M20.7656 8.36719H17.8453C17.4328 8.36719 17.0953 8.02969 17.0953 7.61719C17.0953 7.20469 17.4328 6.86719 17.8453 6.86719H20.7656C21.1781 6.86719 21.5156 7.20469 21.5156 7.61719C21.5156 8.02969 21.1781 8.36719 20.7656 8.36719Z" fill="#EA4335"/>
<path d="M16.3828 6.90469C15.9703 6.90469 15.6328 6.56719 15.6328 6.15469V3.23438C15.6328 2.82188 15.9703 2.48438 16.3828 2.48438C16.7953 2.48438 17.1328 2.82188 17.1328 3.23438V6.15469C17.1328 6.56719 16.7953 6.90469 16.3828 6.90469Z" fill="#EA4335"/>
<path d="M12 6.90469C11.5875 6.90469 11.25 6.56719 11.25 6.15469V3.23438C11.25 2.82188 11.5875 2.48438 12 2.48438C12.4125 2.48438 12.75 2.82188 12.75 3.23438V6.15469C12.75 6.56719 12.4125 6.90469 12 6.90469Z" fill="#EA4335"/>
<path d="M7.61719 6.90469C7.20469 6.90469 6.86719 6.56719 6.86719 6.15469V3.23438C6.86719 2.82188 7.20469 2.48438 7.61719 2.48438C8.02969 2.48438 8.36719 2.82188 8.36719 3.23438V6.15469C8.36719 6.56719 8.02969 6.90469 7.61719 6.90469Z" fill="#FBBC04"/>
<path d="M14.7656 15.5156H9.23438C8.82187 15.5156 8.48438 15.1781 8.48438 14.7656V9.23438C8.48438 8.82187 8.82187 8.48438 9.23438 8.48438H14.7656C15.1781 8.48438 15.5156 8.82187 15.5156 9.23438V14.7656C15.5156 15.1781 15.1781 15.5156 14.7656 15.5156ZM9.98438 14.0156H14.0156V9.98438H9.98438V14.0156Z" fill="#34A853"/>
<path d="M18.5953 15.5953H17.0953V6.90938H11.2547V5.40938H17.8453C18.2578 5.40938 18.5953 5.74688 18.5953 6.15938V15.5953Z" fill="#EA4335"/>
<path d="M7.61719 21.5156C7.20469 21.5156 6.86719 21.1781 6.86719 20.7656V17.8453C6.86719 17.4328 7.20469 17.0953 7.61719 17.0953C8.02969 17.0953 8.36719 17.4328 8.36719 17.8453V20.7656C8.36719 21.1781 8.02969 21.5156 7.61719 21.5156Z" fill="#4285F4"/>
<path d="M12 21.5156C11.5875 21.5156 11.25 21.1781 11.25 20.7656V17.8453C11.25 17.4328 11.5875 17.0953 12 17.0953C12.4125 17.0953 12.75 17.4328 12.75 17.8453V20.7656C12.75 21.1781 12.4125 21.5156 12 21.5156Z" fill="#4285F4"/>
<path d="M16.3828 21.5156C15.9703 21.5156 15.6328 21.1781 15.6328 20.7656V17.8453C15.6328 17.4328 15.9703 17.0953 16.3828 17.0953C16.7953 17.0953 17.1328 17.4328 17.1328 17.8453V20.7656C17.1328 21.1781 16.7953 21.5156 16.3828 21.5156Z" fill="#4285F4"/>
<path d="M6.15469 8.36719H3.23438C2.82188 8.36719 2.48438 8.02969 2.48438 7.61719C2.48438 7.20469 2.82188 6.86719 3.23438 6.86719H6.15469C6.56719 6.86719 6.90469 7.20469 6.90469 7.61719C6.90469 8.02969 6.56719 8.36719 6.15469 8.36719Z" fill="#FBBC04"/>
<path d="M6.15469 12.75H3.23438C2.82188 12.75 2.48438 12.4125 2.48438 12C2.48438 11.5875 2.82188 11.25 3.23438 11.25H6.15469C6.56719 11.25 6.90469 11.5875 6.90469 12C6.90469 12.4125 6.56719 12.75 6.15469 12.75Z" fill="#FBBC04"/>
<path d="M6.15469 17.0953H3.23438C2.82188 17.0953 2.48438 16.7578 2.48438 16.3453C2.48438 15.9328 2.82188 15.5953 3.23438 15.5953H6.15469C6.56719 15.5953 6.90469 15.9328 6.90469 16.3453C6.90469 16.7578 6.56719 17.0953 6.15469 17.0953Z" fill="#FBBC04"/>
</g>
<defs>
<clipPath id="clip0_15_3">
<rect width="24" height="24" fill="white"/>
</clipPath>
</defs>
</svg>
