<svg viewBox="0 0 192 192" fill="none" xmlns="http://www.w3.org/2000/svg"><mask id="a" style="mask-type:alpha" maskUnits="userSpaceOnUse" x="32" y="8" width="128" height="176"><path d="M130.334 184H61.6c-8.944 0-13.415 0-16.962-1.404a20 20 0 0 1-11.233-11.234C32 167.815 32 163.343 32 154.4V37.6c0-8.944 0-13.415 1.404-16.963A20 20 0 0 1 44.638 9.404C48.186 8 52.657 8 61.6 8H100l54.793 54.793c1.661 1.661 2.492 2.492 3.13 3.43a11.99 11.99 0 0 1 1.862 4.502c.212 1.115.212 2.301.21 4.674-.035 48.918-.057 49.4-.058 78.967 0 8.966 0 13.45-1.405 16.997a20 20 0 0 1-11.233 11.233C143.752 184 139.279 184 130.334 184Z" fill="#3186FF"/></mask><g mask="url(#a)"><path d="M159.94 184H32V8h68l59.999 60-.059 116Z" fill="#3186FF"/><g filter="url(#b)"><path d="M43 192h106V20H43v172Z" fill="url(#c)"/></g></g><path d="M154.995 62.995A14.932 14.932 0 0 0 146 60h-33.2c-7.069 0-12.8-5.73-12.8-12.8V8l54.995 54.995Z" fill="#76BBFF"/><rect x="64.001" y="114" width="64" height="12" rx="6" fill="#fff"/><rect x="64.001" y="143" width="48" height="12" rx="6" fill="#fff"/><defs><linearGradient id="c" x1="96" y1="59.284" x2="54.612" y2="171.338" gradientUnits="userSpaceOnUse"><stop offset=".33" stop-color="#3186FF"/><stop offset="1" stop-color="#A9A8FF"/></linearGradient><filter id="b" x="31" y="8" width="130" height="196" filterUnits="userSpaceOnUse" color-interpolation-filters="sRGB"><feFlood flood-opacity="0" result="BackgroundImageFix"/><feBlend in="SourceGraphic" in2="BackgroundImageFix" result="shape"/><feGaussianBlur stdDeviation="6" result="effect1_foregroundBlur_37242_8762"/></filter></defs></svg>