<svg width="24" height="24" viewBox="0 0 24 24" fill="none" xmlns="http://www.w3.org/2000/svg">
<path d="M10 20.5C9.78716 20.5 9.609 20.4282 9.4655 20.2845C9.32183 20.141 9.25 19.9628 9.25 19.75V6.38275L7.927 7.6905C7.782 7.83533 7.60633 7.90775 7.4 7.90775C7.19366 7.90775 7.018 7.83533 6.873 7.6905C6.718 7.53533 6.64466 7.3555 6.653 7.151C6.66133 6.9465 6.73466 6.775 6.873 6.6365L9.36725 4.14225C9.54808 3.96158 9.759 3.87125 10 3.87125C10.241 3.87125 10.4519 3.96158 10.6327 4.14225L13.127 6.6365C13.282 6.79166 13.357 6.96733 13.352 7.1635C13.3468 7.35966 13.2718 7.53533 13.127 7.6905C12.9718 7.8455 12.7946 7.924 12.5952 7.926C12.3959 7.92783 12.2218 7.85441 12.073 7.70575L10.75 6.38275V13.8115C11.3013 13.1475 11.9484 12.6597 12.6912 12.348C13.4342 12.0365 14.2172 11.8807 15.0402 11.8807C15.3262 11.8807 15.6007 11.8923 15.8635 11.9155C16.1263 11.9385 16.3808 11.9731 16.627 12.0192L15.3192 10.696C15.1744 10.5512 15.102 10.3756 15.102 10.1692C15.102 9.96275 15.1744 9.78708 15.3192 9.64225C15.4744 9.48708 15.6542 9.41366 15.8587 9.422C16.0631 9.43033 16.2345 9.50375 16.373 9.64225L18.8672 12.1365C19.0481 12.3173 19.1385 12.5282 19.1385 12.7692C19.1385 13.0102 19.0481 13.2212 18.8672 13.402L16.373 15.896C16.2282 16.041 16.0526 16.1135 15.8462 16.1135C15.6397 16.1135 15.4641 16.041 15.3192 15.896C15.1641 15.741 15.0881 15.5612 15.0912 15.3567C15.0946 15.1522 15.1654 14.9807 15.3037 14.8422L16.627 13.5192C16.3603 13.4731 16.0872 13.4342 15.8077 13.4027C15.5282 13.3714 15.2519 13.3557 14.9787 13.3557C14.0467 13.3557 13.1872 13.6323 12.4 14.1855C11.6128 14.7387 11.0628 15.5871 10.75 16.7307V19.75C10.75 19.9628 10.6782 20.141 10.5345 20.2845C10.391 20.4282 10.2128 20.5 10 20.5Z" fill="#0278D5"/>
<path d="M22.8429 22.0793H19.1586C19.0286 22.0793 18.9222 21.9729 18.9222 21.8429V18.1586C18.9222 18.0286 19.0286 17.9222 19.1586 17.9222H22.8429C22.9729 17.9222 23.0793 18.0286 23.0793 18.1586V21.8429C23.0793 21.9729 22.9729 22.0793 22.8429 22.0793ZM19.3936 21.6064H22.6049V18.3951H19.3936V21.6064Z" fill="#4285F4"/>
<path d="M19.3936 21.6064H18.9207V18.1586C18.9207 18.0286 19.0271 17.9222 19.1571 17.9222H21.3163V18.3951H19.3936V21.6064Z" fill="#FBBC04"/>
<path d="M23.7636 21.6064H22.8429C22.7128 21.6064 22.6064 21.5 22.6064 21.3699C22.6064 21.2399 22.7128 21.1335 22.8429 21.1335H23.7636C23.8936 21.1335 24 21.2399 24 21.3699C24 21.5 23.8936 21.6064 23.7636 21.6064Z" fill="#4285F4"/>
<path d="M23.7636 20.2365H22.8429C22.7128 20.2365 22.6064 20.1301 22.6064 20C22.6064 19.87 22.7128 19.7635 22.8429 19.7635H23.7636C23.8936 19.7635 24 19.87 24 20C24 20.1301 23.8936 20.2365 23.7636 20.2365Z" fill="#EA4335"/>
<path d="M23.7636 18.8547H22.8429C22.7128 18.8547 22.6064 18.7483 22.6064 18.6182C22.6064 18.4882 22.7128 18.3818 22.8429 18.3818H23.7636C23.8936 18.3818 24 18.4882 24 18.6182C24 18.7483 23.8936 18.8547 23.7636 18.8547Z" fill="#EA4335"/>
<path d="M22.3818 18.3936C22.2517 18.3936 22.1453 18.2872 22.1453 18.1571V17.2365C22.1453 17.1064 22.2517 17 22.3818 17C22.5118 17 22.6182 17.1064 22.6182 17.2365V18.1571C22.6182 18.2872 22.5118 18.3936 22.3818 18.3936Z" fill="#EA4335"/>
<path d="M21 18.3936C20.87 18.3936 20.7635 18.2872 20.7635 18.1571V17.2365C20.7635 17.1064 20.87 17 21 17C21.1301 17 21.2365 17.1064 21.2365 17.2365V18.1571C21.2365 18.2872 21.1301 18.3936 21 18.3936Z" fill="#EA4335"/>
<path d="M19.6182 18.3936C19.4882 18.3936 19.3818 18.2872 19.3818 18.1571V17.2365C19.3818 17.1064 19.4882 17 19.6182 17C19.7483 17 19.8547 17.1064 19.8547 17.2365V18.1571C19.8547 18.2872 19.7483 18.3936 19.6182 18.3936Z" fill="#FBBC04"/>
<path d="M21.8719 21.1084H20.1281C19.998 21.1084 19.8916 21.002 19.8916 20.8719V19.1281C19.8916 18.998 19.998 18.8916 20.1281 18.8916H21.8719C22.002 18.8916 22.1084 18.998 22.1084 19.1281V20.8719C22.1084 21.002 22.002 21.1084 21.8719 21.1084ZM20.3645 20.6355H21.6355V19.3645H20.3645V20.6355Z" fill="#34A853"/>
<path d="M23.0793 21.1335H22.6064V18.3951H20.765V17.9222H22.8429C22.9729 17.9222 23.0793 18.0286 23.0793 18.1586V21.1335Z" fill="#EA4335"/>
<path d="M19.6182 23C19.4882 23 19.3818 22.8936 19.3818 22.7636V21.8429C19.3818 21.7128 19.4882 21.6064 19.6182 21.6064C19.7483 21.6064 19.8547 21.7128 19.8547 21.8429V22.7636C19.8547 22.8936 19.7483 23 19.6182 23Z" fill="#4285F4"/>
<path d="M21 23C20.87 23 20.7635 22.8936 20.7635 22.7636V21.8429C20.7635 21.7128 20.87 21.6064 21 21.6064C21.1301 21.6064 21.2365 21.7128 21.2365 21.8429V22.7636C21.2365 22.8936 21.1301 23 21 23Z" fill="#4285F4"/>
<path d="M22.3818 23C22.2517 23 22.1453 22.8936 22.1453 22.7636V21.8429C22.1453 21.7128 22.2517 21.6064 22.3818 21.6064C22.5118 21.6064 22.6182 21.7128 22.6182 21.8429V22.7636C22.6182 22.8936 22.5118 23 22.3818 23Z" fill="#4285F4"/>
<path d="M19.1571 18.8547H18.2365C18.1064 18.8547 18 18.7483 18 18.6182C18 18.4882 18.1064 18.3818 18.2365 18.3818H19.1571C19.2872 18.3818 19.3936 18.4882 19.3936 18.6182C19.3936 18.7483 19.2872 18.8547 19.1571 18.8547Z" fill="#FBBC04"/>
<path d="M19.1571 20.2365H18.2365C18.1064 20.2365 18 20.1301 18 20C18 19.87 18.1064 19.7635 18.2365 19.7635H19.1571C19.2872 19.7635 19.3936 19.87 19.3936 20C19.3936 20.1301 19.2872 20.2365 19.1571 20.2365Z" fill="#FBBC04"/>
<path d="M19.1571 21.6064H18.2365C18.1064 21.6064 18 21.5 18 21.3699C18 21.2399 18.1064 21.1335 18.2365 21.1335H19.1571C19.2872 21.1335 19.3936 21.2399 19.3936 21.3699C19.3936 21.5 19.2872 21.6064 19.1571 21.6064Z" fill="#FBBC04"/>
</svg>
