<svg width="24" height="24" viewBox="0 0 24 24" fill="none" xmlns="http://www.w3.org/2000/svg">
<path d="M7.302 11.85C7.57383 11.3065 7.86358 10.7827 8.17125 10.2787C8.47891 9.77491 8.818 9.2775 9.1885 8.7865L7.72125 8.49225C7.66991 8.47941 7.62025 8.481 7.57225 8.497C7.52408 8.51316 7.48075 8.54041 7.44225 8.57875L5.17875 10.8422C5.15958 10.8616 5.15316 10.8841 5.1595 10.9097C5.166 10.9352 5.18208 10.9544 5.20775 10.9672L7.302 11.85ZM19.0537 4.677C17.7012 4.74883 16.4009 5.08891 15.1527 5.69725C13.9047 6.30558 12.7519 7.13858 11.6942 8.19625C10.9749 8.91541 10.3402 9.675 9.79025 10.475C9.24025 11.275 8.8095 12.0474 8.498 12.7922L11.3385 15.6172C12.0833 15.3057 12.8573 14.875 13.6605 14.325C14.4637 13.775 15.2249 13.1404 15.9442 12.4212C17.0019 11.3636 17.8349 10.2148 18.4432 8.975C19.0516 7.73533 19.3917 6.43916 19.4635 5.0865C19.4635 5.03266 19.4557 4.98041 19.4402 4.92975C19.4249 4.87908 19.3955 4.832 19.352 4.7885C19.3083 4.74483 19.2612 4.71533 19.2105 4.7C19.1598 4.68466 19.1076 4.677 19.0537 4.677ZM13.6307 10.4942C13.2922 10.1557 13.123 9.74425 13.123 9.25975C13.123 8.77508 13.2922 8.3635 13.6307 8.025C13.9692 7.6865 14.3833 7.51725 14.873 7.51725C15.3628 7.51725 15.7769 7.6865 16.1152 8.025C16.4537 8.3635 16.623 8.77508 16.623 9.25975C16.623 9.74425 16.4537 10.1557 16.1152 10.4942C15.7769 10.8327 15.3628 11.002 14.873 11.002C14.3833 11.002 13.9692 10.8327 13.6307 10.4942ZM12.2807 16.823L13.1635 18.9327C13.1763 18.9584 13.1955 18.9728 13.221 18.976C13.2467 18.9792 13.2692 18.9712 13.2885 18.952L15.552 16.698C15.5903 16.6595 15.6176 16.6162 15.6337 16.5682C15.6497 16.5201 15.6513 16.4704 15.6385 16.4192L15.3442 14.952C14.8532 15.3225 14.3558 15.659 13.852 15.9615C13.348 16.264 12.8242 16.5512 12.2807 16.823ZM20.8922 4.204C20.9551 5.954 20.6471 7.61641 19.9682 9.19125C19.2894 10.7662 18.2448 12.2589 16.8345 13.6692C16.8025 13.7012 16.7721 13.7301 16.7432 13.7557C16.7144 13.7814 16.684 13.8102 16.652 13.8422L17.1135 16.1152C17.1737 16.4166 17.1586 16.7096 17.0682 16.9942C16.9779 17.2787 16.8257 17.5281 16.6115 17.7422L13.6442 20.7095C13.4199 20.9338 13.1487 21.0185 12.8307 20.9635C12.5127 20.9083 12.2935 20.7301 12.173 20.4287L10.8115 17.2287L6.902 13.3095L3.702 11.948C3.40066 11.8275 3.2215 11.6083 3.1645 11.2905C3.1075 10.9725 3.19116 10.7013 3.4155 10.477L6.38275 7.50975C6.59691 7.29558 6.84883 7.14491 7.1385 7.05775C7.42816 6.97058 7.72366 6.95708 8.025 7.01725L10.298 7.479C10.3302 7.44683 10.3574 7.41791 10.3797 7.39225C10.4022 7.36675 10.4295 7.33791 10.4615 7.30575C11.8718 5.89558 13.3645 4.84941 14.9395 4.16725C16.5145 3.48525 18.177 3.17566 19.927 3.2385C20.0475 3.24883 20.1663 3.27833 20.2835 3.327C20.4008 3.37566 20.5063 3.44683 20.6 3.5405C20.6935 3.634 20.763 3.73783 20.8085 3.852C20.854 3.966 20.8819 4.08333 20.8922 4.204ZM4.52125 16.0712C5.00841 15.5841 5.60233 15.3395 6.303 15.3375C7.0035 15.3357 7.59733 15.5783 8.0845 16.0655C8.57166 16.5527 8.81275 17.1465 8.80775 17.847C8.80258 18.5477 8.55641 19.1416 8.06925 19.6287C7.39108 20.3069 6.59108 20.7194 5.66925 20.8662C4.74741 21.0131 3.81983 21.1422 2.8865 21.2537C2.99816 20.3141 3.129 19.3849 3.279 18.4662C3.429 17.5477 3.84308 16.7494 4.52125 16.0712ZM5.5905 17.1345C5.30066 17.4243 5.1 17.7692 4.9885 18.1692C4.877 18.5692 4.79108 18.9807 4.73075 19.4037C5.15391 19.3436 5.5655 19.2587 5.9655 19.149C6.3655 19.0393 6.71033 18.8397 7 18.55C7.2 18.35 7.30516 18.1099 7.3155 17.8297C7.32566 17.5496 7.23075 17.3095 7.03075 17.1095C6.83075 16.9095 6.59066 16.8137 6.3105 16.822C6.0305 16.8303 5.7905 16.9345 5.5905 17.1345Z" fill="#0278D5"/>
<path d="M22.8429 22.0793H19.1586C19.0286 22.0793 18.9222 21.9729 18.9222 21.8429V18.1586C18.9222 18.0286 19.0286 17.9222 19.1586 17.9222H22.8429C22.9729 17.9222 23.0793 18.0286 23.0793 18.1586V21.8429C23.0793 21.9729 22.9729 22.0793 22.8429 22.0793ZM19.3936 21.6064H22.6049V18.3951H19.3936V21.6064Z" fill="#4285F4"/>
<path d="M19.3936 21.6064H18.9207V18.1586C18.9207 18.0286 19.0271 17.9222 19.1571 17.9222H21.3162V18.3951H19.3936V21.6064Z" fill="#FBBC04"/>
<path d="M23.7636 21.6064H22.8429C22.7128 21.6064 22.6064 21.5 22.6064 21.3699C22.6064 21.2399 22.7128 21.1335 22.8429 21.1335H23.7636C23.8936 21.1335 24 21.2399 24 21.3699C24 21.5 23.8936 21.6064 23.7636 21.6064Z" fill="#4285F4"/>
<path d="M23.7636 20.2365H22.8429C22.7128 20.2365 22.6064 20.1301 22.6064 20C22.6064 19.87 22.7128 19.7635 22.8429 19.7635H23.7636C23.8936 19.7635 24 19.87 24 20C24 20.1301 23.8936 20.2365 23.7636 20.2365Z" fill="#EA4335"/>
<path d="M23.7636 18.8547H22.8429C22.7128 18.8547 22.6064 18.7483 22.6064 18.6182C22.6064 18.4882 22.7128 18.3818 22.8429 18.3818H23.7636C23.8936 18.3818 24 18.4882 24 18.6182C24 18.7483 23.8936 18.8547 23.7636 18.8547Z" fill="#EA4335"/>
<path d="M22.3818 18.3936C22.2517 18.3936 22.1453 18.2872 22.1453 18.1571V17.2365C22.1453 17.1064 22.2517 17 22.3818 17C22.5118 17 22.6182 17.1064 22.6182 17.2365V18.1571C22.6182 18.2872 22.5118 18.3936 22.3818 18.3936Z" fill="#EA4335"/>
<path d="M21 18.3936C20.8699 18.3936 20.7635 18.2872 20.7635 18.1571V17.2365C20.7635 17.1064 20.8699 17 21 17C21.13 17 21.2364 17.1064 21.2364 17.2365V18.1571C21.2364 18.2872 21.13 18.3936 21 18.3936Z" fill="#EA4335"/>
<path d="M19.6182 18.3936C19.4882 18.3936 19.3818 18.2872 19.3818 18.1571V17.2365C19.3818 17.1064 19.4882 17 19.6182 17C19.7483 17 19.8547 17.1064 19.8547 17.2365V18.1571C19.8547 18.2872 19.7483 18.3936 19.6182 18.3936Z" fill="#FBBC04"/>
<path d="M21.8719 21.1084H20.1281C19.998 21.1084 19.8916 21.002 19.8916 20.8719V19.1281C19.8916 18.998 19.998 18.8916 20.1281 18.8916H21.8719C22.002 18.8916 22.1084 18.998 22.1084 19.1281V20.8719C22.1084 21.002 22.002 21.1084 21.8719 21.1084ZM20.3645 20.6355H21.6355V19.3645H20.3645V20.6355Z" fill="#34A853"/>
<path d="M23.0793 21.1335H22.6064V18.3951H20.765V17.9222H22.8429C22.9729 17.9222 23.0793 18.0286 23.0793 18.1586V21.1335Z" fill="#EA4335"/>
<path d="M19.6182 23C19.4882 23 19.3818 22.8936 19.3818 22.7636V21.8429C19.3818 21.7128 19.4882 21.6064 19.6182 21.6064C19.7483 21.6064 19.8547 21.7128 19.8547 21.8429V22.7636C19.8547 22.8936 19.7483 23 19.6182 23Z" fill="#4285F4"/>
<path d="M21 23C20.8699 23 20.7635 22.8936 20.7635 22.7636V21.8429C20.7635 21.7128 20.8699 21.6064 21 21.6064C21.13 21.6064 21.2364 21.7128 21.2364 21.8429V22.7636C21.2364 22.8936 21.13 23 21 23Z" fill="#4285F4"/>
<path d="M22.3818 23C22.2517 23 22.1453 22.8936 22.1453 22.7636V21.8429C22.1453 21.7128 22.2517 21.6064 22.3818 21.6064C22.5118 21.6064 22.6182 21.7128 22.6182 21.8429V22.7636C22.6182 22.8936 22.5118 23 22.3818 23Z" fill="#4285F4"/>
<path d="M19.1571 18.8547H18.2365C18.1064 18.8547 18 18.7483 18 18.6182C18 18.4882 18.1064 18.3818 18.2365 18.3818H19.1571C19.2872 18.3818 19.3936 18.4882 19.3936 18.6182C19.3936 18.7483 19.2872 18.8547 19.1571 18.8547Z" fill="#FBBC04"/>
<path d="M19.1571 20.2365H18.2365C18.1064 20.2365 18 20.1301 18 20C18 19.87 18.1064 19.7635 18.2365 19.7635H19.1571C19.2872 19.7635 19.3936 19.87 19.3936 20C19.3936 20.1301 19.2872 20.2365 19.1571 20.2365Z" fill="#FBBC04"/>
<path d="M19.1571 21.6064H18.2365C18.1064 21.6064 18 21.5 18 21.3699C18 21.2399 18.1064 21.1335 18.2365 21.1335H19.1571C19.2872 21.1335 19.3936 21.2399 19.3936 21.3699C19.3936 21.5 19.2872 21.6064 19.1571 21.6064Z" fill="#FBBC04"/>
</svg>
