<svg width="32" height="32" viewBox="0 0 32 32" fill="none" xmlns="http://www.w3.org/2000/svg">
<path d="M9.736 15.8C10.0984 15.0753 10.4848 14.377 10.895 13.705C11.3052 13.0332 11.7573 12.37 12.2513 11.7153L10.295 11.323C10.2266 11.3059 10.1603 11.308 10.0963 11.3293C10.0321 11.3509 9.97433 11.3872 9.923 11.4383L6.905 14.4563C6.87944 14.4821 6.87089 14.5121 6.87933 14.5463C6.888 14.5803 6.90944 14.6059 6.94367 14.623L9.736 15.8ZM25.405 6.23601C23.6017 6.33178 21.8679 6.78523 20.2037 7.59634C18.5397 8.40745 17.0026 9.51812 15.5923 10.9283C14.6332 11.8872 13.787 12.9 13.0537 13.9667C12.3203 15.0333 11.746 16.0632 11.3307 17.0563L15.118 20.823C16.1111 20.4077 17.1431 19.8333 18.214 19.1C19.2849 18.3667 20.2999 17.5206 21.259 16.5617C22.6692 15.1515 23.7799 13.6198 24.591 11.9667C25.4021 10.3138 25.8556 8.58556 25.9513 6.78201C25.9513 6.71023 25.941 6.64056 25.9203 6.57301C25.8999 6.50545 25.8607 6.44267 25.8027 6.38467C25.7444 6.32645 25.6816 6.28712 25.614 6.26667C25.5464 6.24623 25.4768 6.23601 25.405 6.23601ZM18.1743 13.9923C17.723 13.541 17.4973 12.9923 17.4973 12.3463C17.4973 11.7001 17.723 11.1513 18.1743 10.7C18.6257 10.2487 19.1778 10.023 19.8307 10.023C20.4838 10.023 21.0359 10.2487 21.487 10.7C21.9383 11.1513 22.164 11.7001 22.164 12.3463C22.164 12.9923 21.9383 13.541 21.487 13.9923C21.0359 14.4437 20.4838 14.6693 19.8307 14.6693C19.1778 14.6693 18.6257 14.4437 18.1743 13.9923ZM16.3743 22.4307L17.5513 25.2437C17.5684 25.2779 17.594 25.2971 17.628 25.3013C17.6622 25.3056 17.6922 25.2949 17.718 25.2693L20.736 22.264C20.7871 22.2127 20.8234 22.155 20.845 22.091C20.8663 22.0268 20.8684 21.9606 20.8513 21.8923L20.459 19.936C19.8043 20.43 19.1411 20.8787 18.4693 21.282C17.7973 21.6853 17.099 22.0682 16.3743 22.4307ZM27.8563 5.60534C27.9401 7.93867 27.5294 10.1552 26.6243 12.255C25.7192 14.355 24.3264 16.3452 22.446 18.2257C22.4033 18.2683 22.3628 18.3068 22.3243 18.341C22.2859 18.3752 22.2453 18.4137 22.2027 18.4563L22.818 21.487C22.8982 21.8888 22.8781 22.2795 22.7577 22.659C22.6372 23.0383 22.4342 23.3708 22.1487 23.6563L18.1923 27.6127C17.8932 27.9118 17.5317 28.0247 17.1077 27.9513C16.6837 27.8778 16.3913 27.6401 16.2307 27.2383L14.4153 22.9717L9.20267 17.746L4.936 15.9307C4.53422 15.77 4.29533 15.4778 4.21933 15.054C4.14333 14.63 4.25489 14.2685 4.554 13.9693L8.51033 10.013C8.79589 9.72745 9.13178 9.52656 9.518 9.41034C9.90422 9.29412 10.2982 9.27612 10.7 9.35634L13.7307 9.972C13.7736 9.92912 13.8099 9.89056 13.8397 9.85634C13.8697 9.82234 13.906 9.78389 13.9487 9.74101C15.8291 7.86078 17.8193 6.46589 19.9193 5.55634C22.0193 4.64701 24.236 4.23423 26.5693 4.318C26.73 4.33178 26.8884 4.37112 27.0447 4.43601C27.2011 4.50089 27.3418 4.59578 27.4667 4.72067C27.5913 4.84534 27.684 4.98378 27.7447 5.13601C27.8053 5.28801 27.8426 5.44445 27.8563 5.60534ZM6.02833 21.4283C6.67789 20.7788 7.46978 20.4527 8.404 20.45C9.338 20.4476 10.1298 20.7711 10.7793 21.4207C11.4289 22.0702 11.7503 22.862 11.7437 23.796C11.7368 24.7302 11.4086 25.5221 10.759 26.1717C9.85478 27.0759 8.78811 27.6259 7.559 27.8217C6.32989 28.0175 5.09311 28.1897 3.84867 28.3383C3.99756 27.0855 4.172 25.8466 4.372 24.6217C4.572 23.397 5.12411 22.3326 6.02833 21.4283ZM7.454 22.846C7.06756 23.2325 6.8 23.6923 6.65133 24.2257C6.50267 24.759 6.38811 25.3077 6.30767 25.8717C6.87189 25.7915 7.42067 25.6782 7.954 25.532C8.48733 25.3858 8.94711 25.1196 9.33333 24.7333C9.6 24.4667 9.74022 24.1466 9.754 23.773C9.76756 23.3995 9.641 23.0793 9.37433 22.8127C9.10767 22.546 8.78756 22.4182 8.414 22.4293C8.04067 22.4405 7.72067 22.5793 7.454 22.846Z" fill="#0278D5"/>
<path d="M30.4571 29.4391H25.5448C25.3714 29.4391 25.2296 29.2972 25.2296 29.1238V24.2115C25.2296 24.0381 25.3714 23.8962 25.5448 23.8962H30.4571C30.6305 23.8962 30.7724 24.0381 30.7724 24.2115V29.1238C30.7724 29.2972 30.6305 29.4391 30.4571 29.4391ZM25.8581 28.8085H30.1399V24.5268H25.8581V28.8085Z" fill="#4285F4"/>
<path d="M25.8581 28.8085H25.2276V24.2115C25.2276 24.0381 25.3694 23.8962 25.5428 23.8962H28.4217V24.5268H25.8581V28.8085Z" fill="#FBBC04"/>
<path d="M31.6847 28.8085H30.4571C30.2837 28.8085 30.1419 28.6666 30.1419 28.4932C30.1419 28.3199 30.2837 28.178 30.4571 28.178H31.6847C31.8581 28.178 32 28.3199 32 28.4932C32 28.6666 31.8581 28.8085 31.6847 28.8085Z" fill="#4285F4"/>
<path d="M31.6847 26.9819H30.4571C30.2837 26.9819 30.1419 26.84 30.1419 26.6667C30.1419 26.4933 30.2837 26.3514 30.4571 26.3514H31.6847C31.8581 26.3514 32 26.4933 32 26.6667C32 26.84 31.8581 26.9819 31.6847 26.9819Z" fill="#EA4335"/>
<path d="M31.6847 25.1396H30.4571C30.2837 25.1396 30.1419 24.9977 30.1419 24.8243C30.1419 24.6509 30.2837 24.509 30.4571 24.509H31.6847C31.8581 24.509 32 24.6509 32 24.8243C32 24.9977 31.8581 25.1396 31.6847 25.1396Z" fill="#EA4335"/>
<path d="M29.8424 24.5248C29.669 24.5248 29.5271 24.3829 29.5271 24.2095V22.9819C29.5271 22.8085 29.669 22.6667 29.8424 22.6667C30.0158 22.6667 30.1576 22.8085 30.1576 22.9819V24.2095C30.1576 24.3829 30.0158 24.5248 29.8424 24.5248Z" fill="#EA4335"/>
<path d="M28 24.5248C27.8266 24.5248 27.6847 24.3829 27.6847 24.2095V22.9819C27.6847 22.8085 27.8266 22.6667 28 22.6667C28.1734 22.6667 28.3153 22.8085 28.3153 22.9819V24.2095C28.3153 24.3829 28.1734 24.5248 28 24.5248Z" fill="#EA4335"/>
<path d="M26.1576 24.5248C25.9842 24.5248 25.8424 24.3829 25.8424 24.2095V22.9819C25.8424 22.8085 25.9842 22.6667 26.1576 22.6667C26.331 22.6667 26.4729 22.8085 26.4729 22.9819V24.2095C26.4729 24.3829 26.331 24.5248 26.1576 24.5248Z" fill="#FBBC04"/>
<path d="M29.1626 28.1445H26.8375C26.6641 28.1445 26.5222 28.0026 26.5222 27.8292V25.5041C26.5222 25.3307 26.6641 25.1888 26.8375 25.1888H29.1626C29.336 25.1888 29.4779 25.3307 29.4779 25.5041V27.8292C29.4779 28.0026 29.336 28.1445 29.1626 28.1445ZM27.1527 27.514H28.8473V25.8194H27.1527V27.514Z" fill="#34A853"/>
<path d="M30.7724 28.178H30.1419V24.5268H27.6867V23.8962H30.4572C30.6306 23.8962 30.7724 24.0381 30.7724 24.2115V28.178Z" fill="#EA4335"/>
<path d="M26.1576 30.6667C25.9842 30.6667 25.8424 30.5248 25.8424 30.3514V29.1238C25.8424 28.9504 25.9842 28.8085 26.1576 28.8085C26.331 28.8085 26.4729 28.9504 26.4729 29.1238V30.3514C26.4729 30.5248 26.331 30.6667 26.1576 30.6667Z" fill="#4285F4"/>
<path d="M28 30.6667C27.8266 30.6667 27.6847 30.5248 27.6847 30.3514V29.1238C27.6847 28.9504 27.8266 28.8085 28 28.8085C28.1734 28.8085 28.3153 28.9504 28.3153 29.1238V30.3514C28.3153 30.5248 28.1734 30.6667 28 30.6667Z" fill="#4285F4"/>
<path d="M29.8424 30.6667C29.669 30.6667 29.5271 30.5248 29.5271 30.3514V29.1238C29.5271 28.9504 29.669 28.8085 29.8424 28.8085C30.0158 28.8085 30.1576 28.9504 30.1576 29.1238V30.3514C30.1576 30.5248 30.0158 30.6667 29.8424 30.6667Z" fill="#4285F4"/>
<path d="M25.5429 25.1396H24.3153C24.1419 25.1396 24 24.9977 24 24.8243C24 24.6509 24.1419 24.509 24.3153 24.509H25.5429C25.7163 24.509 25.8581 24.6509 25.8581 24.8243C25.8581 24.9977 25.7163 25.1396 25.5429 25.1396Z" fill="#FBBC04"/>
<path d="M25.5429 26.9819H24.3153C24.1419 26.9819 24 26.84 24 26.6667C24 26.4933 24.1419 26.3514 24.3153 26.3514H25.5429C25.7163 26.3514 25.8581 26.4933 25.8581 26.6667C25.8581 26.84 25.7163 26.9819 25.5429 26.9819Z" fill="#FBBC04"/>
<path d="M25.5429 28.8085H24.3153C24.1419 28.8085 24 28.6666 24 28.4932C24 28.3199 24.1419 28.178 24.3153 28.178H25.5429C25.7163 28.178 25.8581 28.3199 25.8581 28.4932C25.8581 28.6666 25.7163 28.8085 25.5429 28.8085Z" fill="#FBBC04"/>
</svg>
