<svg xmlns="http://www.w3.org/2000/svg" fill-rule="evenodd" clip-rule="evenodd" viewBox="0 0 512 512"><g transform="matrix(1.6 0 0 1.6 7.443 .154)"><clipPath id="a"><path d="M0 0h311v320H0z"/></clipPath><g clip-path="url(#a)"><g fill="none" stroke-width="2"><path stroke="#7e916f" d="m76.37.51.01 76.47"/><path stroke="#1375eb" d="M76.38 76.98 0 76.96"/><path stroke="#f3801d" d="M235.08 1.09q-.16.06-.27.13a.3.3 0 0 0-.17.28l-.02 75.51"/><path stroke="#7eb426" d="M234.62 77.01h-.05"/><path stroke="#91a080" d="m76.41 77.01-.03-.03"/><path stroke="#75783e" d="m310.53 76.77-75.91.24"/><path stroke="#138495" d="M76.43 182.69 0 182.67"/><path stroke="#00983a" d="m76.44 259.13-.01-38.28"/></g><path fill="#0066da" fill-rule="nonzero" d="m76.37.51.01 76.47L0 76.96V20.77q.85-5.96 3.53-10.01Q10.14.74 22.75.67 49.41.53 76.37.51"/><path fill="#fbbc04" fill-rule="nonzero" d="m76.37.51 157.42.02c.332 0 .653.101.92.29l.37.27q-.16.06-.27.13a.3.3 0 0 0-.17.28l-.02 75.51H76.41l-.03-.03z"/><path fill="#ea4335" fill-rule="nonzero" d="m235.08 1.09 75.45 75.68-75.91.24.02-75.51q0-.19.17-.28.11-.07.27-.13"/><path fill="#2684fc" fill-rule="nonzero" d="m0 76.96 76.38.02.03.03.02 105.68L0 182.67z"/><path fill="#00ac47" fill-rule="nonzero" d="m310.53 76.77.47.34v161.9q-2.66 14.53-15.06 18.77-4.42 1.52-13.03 1.5-55.89-.09-112.92-.17-8.28-.01-16.8.12-.47.01-.8.34a15823 15823 0 0 0-56 56.02c-2.87 2.89-6.12 4.5-10.24 3.89q-5.76-.85-8.49-5.94-1.15-2.16-1.17-7.88-.07-23.19-.05-46.53l-.01-38.28 37.78-37.78c.332-.333.786-.52 1.26-.52l118.3.04c.455 0 .83-.375.83-.83l-.03-104.75h.05z"/><path fill="#00832d" fill-rule="nonzero" d="M76.43 182.69v38.16l.01 38.28q-23.97.14-47.53.09-9.82-.02-14.15-1.54Q2.62 253.44 0 238.88v-56.21z"/></g></g></svg>