<svg width="32" height="32" viewBox="0 0 32 32" fill="none" xmlns="http://www.w3.org/2000/svg">
<path d="M11 26.4291C11 26.5908 10.9281 26.7264 10.7842 26.8358C10.6404 26.9453 10.4622 27 10.2497 27C10.0371 27 9.859 26.9453 9.7155 26.8358C9.57183 26.7264 9.5 26.5908 9.5 26.4291V14.6298C9.5 14.468 9.57192 14.3324 9.71575 14.2231C9.85958 14.1136 10.0378 14.0588 10.2503 14.0588C10.4629 14.0588 10.641 14.1136 10.7845 14.2231C10.9282 14.3324 11 14.468 11 14.6298V26.4291ZM22.5 26.4291C22.5 26.5908 22.4281 26.7264 22.2843 26.8358C22.1404 26.9453 21.9623 27 21.7498 27C21.5371 27 21.359 26.9453 21.2155 26.8358C21.0718 26.7264 21 26.5908 21 26.4291V14.6298C21 14.468 21.0719 14.3324 21.2157 14.2231C21.3596 14.1136 21.5378 14.0588 21.7503 14.0588C21.9629 14.0588 22.141 14.1136 22.2845 14.2231C22.4282 14.3324 22.5 14.468 22.5 14.6298V26.4291ZM16.75 26.4291C16.75 26.5908 16.6781 26.7264 16.5342 26.8358C16.3904 26.9453 16.2123 27 15.9998 27C15.7871 27 15.609 26.9453 15.4655 26.8358C15.3218 26.7264 15.25 26.5908 15.25 26.4291V14.6298C15.25 14.468 15.3219 14.3324 15.4658 14.2231C15.6096 14.1136 15.7878 14.0588 16.0003 14.0588C16.2129 14.0588 16.391 14.1136 16.5345 14.2231C16.6782 14.3324 16.75 14.468 16.75 14.6298V26.4291Z" fill="#0278D5"/>
<path d="M20.649 8.87153H10.0528C9.8959 8.87153 9.76459 8.8111 9.65883 8.69024C9.55294 8.56953 9.5 8.41965 9.5 8.24061C9.5 8.06157 9.55294 7.91169 9.65883 7.79097C9.76459 7.67011 9.8959 7.60969 10.0528 7.60969H20.649L19.3166 6.07613C19.207 5.95093 19.1529 5.80448 19.1543 5.6368C19.1558 5.46911 19.2136 5.32 19.3278 5.18947C19.4422 5.06764 19.5736 5.00454 19.722 5.0002C19.8704 4.99599 19.9979 5.05908 20.1047 5.18947L22.3001 7.70832C22.4334 7.86044 22.5 8.03787 22.5 8.24061C22.5 8.44334 22.4334 8.62077 22.3001 8.7729L20.0932 11.2917C19.9912 11.4081 19.8648 11.4677 19.7142 11.4705C19.5635 11.4732 19.431 11.4136 19.3166 11.2917C19.2022 11.1612 19.1451 11.0113 19.1451 10.8419C19.1451 10.6727 19.2022 10.5228 19.3166 10.3923L20.649 8.87153Z" fill="#0278D5"/>
<path d="M11 26.4291C11 26.5908 10.9281 26.7264 10.7842 26.8358C10.6404 26.9453 10.4622 27 10.2497 27C10.0371 27 9.859 26.9453 9.7155 26.8358C9.57183 26.7264 9.5 26.5908 9.5 26.4291V14.6298C9.5 14.468 9.57192 14.3324 9.71575 14.2231C9.85958 14.1136 10.0378 14.0588 10.2503 14.0588C10.4629 14.0588 10.641 14.1136 10.7845 14.2231C10.9282 14.3324 11 14.468 11 14.6298V26.4291ZM22.5 26.4291C22.5 26.5908 22.4281 26.7264 22.2843 26.8358C22.1404 26.9453 21.9623 27 21.7498 27C21.5371 27 21.359 26.9453 21.2155 26.8358C21.0718 26.7264 21 26.5908 21 26.4291V14.6298C21 14.468 21.0719 14.3324 21.2157 14.2231C21.3596 14.1136 21.5378 14.0588 21.7503 14.0588C21.9629 14.0588 22.141 14.1136 22.2845 14.2231C22.4282 14.3324 22.5 14.468 22.5 14.6298V26.4291ZM16.75 26.4291C16.75 26.5908 16.6781 26.7264 16.5342 26.8358C16.3904 26.9453 16.2123 27 15.9998 27C15.7871 27 15.609 26.9453 15.4655 26.8358C15.3218 26.7264 15.25 26.5908 15.25 26.4291V14.6298C15.25 14.468 15.3219 14.3324 15.4658 14.2231C15.6096 14.1136 15.7878 14.0588 16.0003 14.0588C16.2129 14.0588 16.391 14.1136 16.5345 14.2231C16.6782 14.3324 16.75 14.468 16.75 14.6298V26.4291Z" stroke="#0278D5" stroke-width="0.5"/>
<path d="M20.649 8.87153H10.0528C9.8959 8.87153 9.76459 8.8111 9.65883 8.69024C9.55294 8.56953 9.5 8.41965 9.5 8.24061C9.5 8.06157 9.55294 7.91169 9.65883 7.79097C9.76459 7.67011 9.8959 7.60969 10.0528 7.60969H20.649L19.3166 6.07613C19.207 5.95093 19.1529 5.80448 19.1543 5.6368C19.1558 5.46911 19.2136 5.32 19.3278 5.18947C19.4422 5.06764 19.5736 5.00454 19.722 5.0002C19.8704 4.99599 19.9979 5.05908 20.1047 5.18947L22.3001 7.70832C22.4334 7.86044 22.5 8.03787 22.5 8.24061C22.5 8.44334 22.4334 8.62077 22.3001 8.7729L20.0932 11.2917C19.9912 11.4081 19.8648 11.4677 19.7142 11.4705C19.5635 11.4732 19.431 11.4136 19.3166 11.2917C19.2022 11.1612 19.1451 11.0113 19.1451 10.8419C19.1451 10.6727 19.2022 10.5228 19.3166 10.3923L20.649 8.87153Z" stroke="#0278D5" stroke-width="0.5"/>
<path d="M30.4571 29.4391H25.5448C25.3714 29.4391 25.2296 29.2972 25.2296 29.1238V24.2115C25.2296 24.0381 25.3714 23.8962 25.5448 23.8962H30.4571C30.6305 23.8962 30.7724 24.0381 30.7724 24.2115V29.1238C30.7724 29.2972 30.6305 29.4391 30.4571 29.4391ZM25.8581 28.8085H30.1399V24.5268H25.8581V28.8085Z" fill="#4285F4"/>
<path d="M25.8581 28.8085H25.2276V24.2115C25.2276 24.0381 25.3694 23.8962 25.5428 23.8962H28.4217V24.5268H25.8581V28.8085Z" fill="#FBBC04"/>
<path d="M31.6847 28.8085H30.4571C30.2837 28.8085 30.1419 28.6666 30.1419 28.4932C30.1419 28.3199 30.2837 28.178 30.4571 28.178H31.6847C31.8581 28.178 32 28.3199 32 28.4932C32 28.6666 31.8581 28.8085 31.6847 28.8085Z" fill="#4285F4"/>
<path d="M31.6847 26.9819H30.4571C30.2837 26.9819 30.1419 26.84 30.1419 26.6667C30.1419 26.4933 30.2837 26.3514 30.4571 26.3514H31.6847C31.8581 26.3514 32 26.4933 32 26.6667C32 26.84 31.8581 26.9819 31.6847 26.9819Z" fill="#EA4335"/>
<path d="M31.6847 25.1396H30.4571C30.2837 25.1396 30.1419 24.9977 30.1419 24.8243C30.1419 24.6509 30.2837 24.509 30.4571 24.509H31.6847C31.8581 24.509 32 24.6509 32 24.8243C32 24.9977 31.8581 25.1396 31.6847 25.1396Z" fill="#EA4335"/>
<path d="M29.8424 24.5248C29.669 24.5248 29.5271 24.3829 29.5271 24.2095V22.9819C29.5271 22.8085 29.669 22.6667 29.8424 22.6667C30.0158 22.6667 30.1576 22.8085 30.1576 22.9819V24.2095C30.1576 24.3829 30.0158 24.5248 29.8424 24.5248Z" fill="#EA4335"/>
<path d="M28 24.5248C27.8266 24.5248 27.6847 24.3829 27.6847 24.2095V22.9819C27.6847 22.8085 27.8266 22.6667 28 22.6667C28.1734 22.6667 28.3153 22.8085 28.3153 22.9819V24.2095C28.3153 24.3829 28.1734 24.5248 28 24.5248Z" fill="#EA4335"/>
<path d="M26.1576 24.5248C25.9842 24.5248 25.8424 24.3829 25.8424 24.2095V22.9819C25.8424 22.8085 25.9842 22.6667 26.1576 22.6667C26.331 22.6667 26.4729 22.8085 26.4729 22.9819V24.2095C26.4729 24.3829 26.331 24.5248 26.1576 24.5248Z" fill="#FBBC04"/>
<path d="M29.1626 28.1445H26.8375C26.6641 28.1445 26.5222 28.0026 26.5222 27.8292V25.5041C26.5222 25.3307 26.6641 25.1888 26.8375 25.1888H29.1626C29.336 25.1888 29.4779 25.3307 29.4779 25.5041V27.8292C29.4779 28.0026 29.336 28.1445 29.1626 28.1445ZM27.1527 27.514H28.8473V25.8194H27.1527V27.514Z" fill="#34A853"/>
<path d="M30.7724 28.178H30.1419V24.5268H27.6867V23.8962H30.4572C30.6306 23.8962 30.7724 24.0381 30.7724 24.2115V28.178Z" fill="#EA4335"/>
<path d="M26.1576 30.6667C25.9842 30.6667 25.8424 30.5248 25.8424 30.3514V29.1238C25.8424 28.9504 25.9842 28.8085 26.1576 28.8085C26.331 28.8085 26.4729 28.9504 26.4729 29.1238V30.3514C26.4729 30.5248 26.331 30.6667 26.1576 30.6667Z" fill="#4285F4"/>
<path d="M28 30.6667C27.8266 30.6667 27.6847 30.5248 27.6847 30.3514V29.1238C27.6847 28.9504 27.8266 28.8085 28 28.8085C28.1734 28.8085 28.3153 28.9504 28.3153 29.1238V30.3514C28.3153 30.5248 28.1734 30.6667 28 30.6667Z" fill="#4285F4"/>
<path d="M29.8424 30.6667C29.669 30.6667 29.5271 30.5248 29.5271 30.3514V29.1238C29.5271 28.9504 29.669 28.8085 29.8424 28.8085C30.0158 28.8085 30.1576 28.9504 30.1576 29.1238V30.3514C30.1576 30.5248 30.0158 30.6667 29.8424 30.6667Z" fill="#4285F4"/>
<path d="M25.5429 25.1396H24.3153C24.1419 25.1396 24 24.9977 24 24.8243C24 24.6509 24.1419 24.509 24.3153 24.509H25.5429C25.7163 24.509 25.8581 24.6509 25.8581 24.8243C25.8581 24.9977 25.7163 25.1396 25.5429 25.1396Z" fill="#FBBC04"/>
<path d="M25.5429 26.9819H24.3153C24.1419 26.9819 24 26.84 24 26.6667C24 26.4933 24.1419 26.3514 24.3153 26.3514H25.5429C25.7163 26.3514 25.8581 26.4933 25.8581 26.6667C25.8581 26.84 25.7163 26.9819 25.5429 26.9819Z" fill="#FBBC04"/>
<path d="M25.5429 28.8085H24.3153C24.1419 28.8085 24 28.6666 24 28.4932C24 28.3199 24.1419 28.178 24.3153 28.178H25.5429C25.7163 28.178 25.8581 28.3199 25.8581 28.4932C25.8581 28.6666 25.7163 28.8085 25.5429 28.8085Z" fill="#FBBC04"/>
</svg>
