<svg viewBox="0 0 16 16" fill="currentColor" xmlns="http://www.w3.org/2000/svg">
  <path fill="currentcolor" d="M13.6 13.6h-2.8v-2.8h2.8z"/>
  <path fill="currentcolor" d="M13.6 13.6h-2.8v-2.8h2.8z"/>
  <path fill="currentcolor" d="M13.6 13.6h-2.8v-2.8h2.8zM9.4 13.6H6.6v-2.8h2.8z"/>
  <path fill="currentcolor" d="M9.4 13.6H6.6v-2.8h2.8z"/>
  <path fill="currentcolor" d="M9.4 13.6H6.6v-2.8h2.8zM5.2 13.6H2.4v-2.8h2.8z"/>
  <path fill="currentcolor" d="M5.2 13.6H2.4v-2.8h2.8z"/>
  <path fill="currentcolor" d="M5.2 13.6H2.4v-2.8h2.8zM13.6 9.4h-2.8V6.6h2.8z"/>
  <path fill="currentcolor" d="M13.6 9.4h-2.8V6.6h2.8z"/>
  <path fill="currentcolor" d="M13.6 9.4h-2.8V6.6h2.8zM9.4 9.4H6.6V6.6h2.8z"/>
  <path fill="currentcolor" d="M9.4 9.4H6.6V6.6h2.8z"/>
  <path fill="currentcolor" d="M9.4 9.4H6.6V6.6h2.8zM5.2 9.4H2.4V6.6h2.8z"/>
  <path fill="currentcolor" d="M5.2 9.4H2.4V6.6h2.8z"/>
  <path fill="currentcolor" d="M5.2 9.4H2.4V6.6h2.8zM13.6 5.2h-2.8V2.4h2.8z"/>
  <path fill="currentcolor" d="M13.6 5.2h-2.8V2.4h2.8z"/>
  <path fill="currentcolor" d="M13.6 5.2h-2.8V2.4h2.8zM9.4 5.2H6.6V2.4h2.8z"/>
  <path fill="currentcolor" d="M9.4 5.2H6.6V2.4h2.8z"/>
  <path fill="currentcolor" d="M9.4 5.2H6.6V2.4h2.8zM5.2 5.2H2.4V2.4h2.8z"/>
  <path fill="currentcolor" d="M5.2 5.2H2.4V2.4h2.8z"/>
  <path fill="currentcolor" d="M5.2 5.2H2.4V2.4h2.8z"/>
</svg>
