<svg xmlns="http://www.w3.org/2000/svg" viewBox="0 0 159 32" fill="none" xmlns:v="https://vecta.io/nano"><path fill-rule="evenodd" d="M28 8.309a5.02 5.02 0 0 0-1.735-1.659L18.61 2.257c-1.54-.884-3.426-.876-4.958.021L5.773 6.887c-.632.37-1.165.868-1.574 1.451L6.51 9.69a.81.81 0 0 1 .294 1.099.79.79 0 0 1-1.086.291l-2.221-1.3a5.12 5.12 0 0 0-.221 1.447l-.076 8.916c-.016 1.839.954 3.543 2.534 4.449l7.656 4.393c.568.326 1.183.531 1.811.614v-2.453a.8.8 0 0 1 1.6 0v2.404a4.95 4.95 0 0 0 1.547-.586l7.879-4.609c1.532-.896 2.483-2.548 2.498-4.341l.076-8.916c.004-.448-.051-.888-.159-1.311l-2.202 1.289a.79.79 0 0 1-1.087-.291.81.81 0 0 1 .294-1.099L28 8.309zm-4.953 12.14l-6.126 3.309a1.95 1.95 0 0 1-1.842 0l-6.126-3.309c-.597-.323-.952-.924-.952-1.561v-6.59a1.78 1.78 0 0 1 .952-1.561l6.127-3.309a1.95 1.95 0 0 1 1.842 0l6.127 3.309a1.78 1.78 0 0 1 .952 1.561v6.59c0 .637-.355 1.238-.952 1.561zm-7.26-11.832l-5.556 3.001-.018.01.136.072 5.651 2.988 5.787-3.06-5.574-3.011a.45.45 0 0 0-.425 0zM9.435 18.889v-5.861l5.764 3.048v6.176L9.66 19.261c-.139-.075-.225-.217-.225-.372zm7.364-2.744v6.107l5.539-2.992c.139-.075.225-.217.225-.372v-5.861l-5.764 3.048v.069z" fill="url(#A)"/><path d="M40.147 20.5h-1.828l3.328-9.454h2.114l3.333 9.455h-1.828l-2.525-7.516h-.074L40.147 20.5zm.06-3.707h4.986v1.376h-4.986v-1.376zm8.209 3.707v-7.091h1.62v1.182h.074c.129-.409.351-.725.665-.946a1.83 1.83 0 0 1 1.085-.337l.309.014a2.07 2.07 0 0 1 .291.032v1.537a1.76 1.76 0 0 0-.337-.065c-.151-.021-.297-.032-.439-.032a1.69 1.69 0 0 0-.822.198c-.24.129-.429.309-.568.54s-.208.497-.208.799V20.5h-1.671zm9.226-7.091v1.293h-4.076v-1.293h4.076zm-3.07-1.699h1.671v6.657c0 .225.034.397.102.517s.163.197.277.24.24.065.379.065c.105 0 .2-.008.286-.023l.203-.041.282 1.306c-.089.031-.217.065-.383.101s-.363.059-.6.065c-.418.012-.795-.051-1.131-.189a1.76 1.76 0 0 1-.799-.656c-.194-.295-.289-.665-.286-1.108V11.71zm4.618 8.79v-7.091h1.671V20.5H59.19zm.84-8.097c-.265 0-.492-.088-.683-.263s-.286-.392-.286-.642a.84.84 0 0 1 .286-.642c.191-.178.419-.268.683-.268s.495.089.683.268a.84.84 0 0 1 .286.642c0 .249-.095.463-.286.642s-.416.263-.683.263zm6.291 1.006v1.293h-4.192v-1.293h4.192zM63.177 20.5v-7.76c0-.477.099-.874.295-1.191a1.87 1.87 0 0 1 .803-.711c.335-.157.708-.235 1.117-.235a3.86 3.86 0 0 1 .771.069l.499.125-.332 1.293a2.89 2.89 0 0 0-.268-.065 1.62 1.62 0 0 0-.36-.037c-.311 0-.531.075-.66.226s-.189.36-.189.637v7.65h-1.676zm6.402.143c-.449 0-.854-.08-1.214-.24a1.98 1.98 0 0 1-.849-.72c-.206-.317-.309-.708-.309-1.173 0-.4.074-.731.222-.992s.349-.471.605-.628.543-.275.863-.355.657-.143 1.002-.18l1.011-.115c.258-.037.446-.092.563-.166s.18-.195.18-.356v-.028c0-.348-.103-.617-.309-.808s-.503-.286-.891-.286c-.409 0-.734.089-.974.268s-.397.389-.48.632l-1.56-.222a2.49 2.49 0 0 1 .609-1.08 2.65 2.65 0 0 1 1.039-.655c.409-.148.862-.222 1.357-.222.342 0 .682.04 1.02.12a2.87 2.87 0 0 1 .928.397c.28.182.505.429.674.743s.258.706.258 1.177V20.5h-1.606v-.974h-.055a2.04 2.04 0 0 1-.429.554c-.181.169-.411.306-.688.411s-.596.152-.965.152zm.434-1.228c.335 0 .626-.066.873-.198s.436-.314.568-.535.203-.463.203-.725v-.836c-.052.043-.141.083-.268.12s-.262.069-.415.097l-.457.074-.392.055c-.249.034-.472.089-.669.166a1.11 1.11 0 0 0-.466.323.79.79 0 0 0-.171.526c0 .308.112.54.337.697s.511.235.859.235zm8.233 1.223c-.708 0-1.316-.155-1.823-.466s-.894-.74-1.168-1.288-.406-1.185-.406-1.902.138-1.356.415-1.907a3.1 3.1 0 0 1 1.173-1.293c.508-.311 1.108-.466 1.8-.466.576 0 1.085.106 1.528.319a2.61 2.61 0 0 1 1.066.891c.265.382.415.828.452 1.339h-1.597c-.065-.342-.218-.626-.462-.854s-.562-.346-.965-.346c-.342 0-.642.092-.9.277s-.46.443-.605.785-.212.751-.212 1.228c0 .483.071.899.212 1.247s.34.611.596.799.562.277.909.277c.246 0 .466-.046.66-.138s.362-.232.494-.411a1.58 1.58 0 0 0 .272-.651h1.597c-.04.502-.188.946-.443 1.334s-.603.686-1.043.905-.957.323-1.551.323zm8.101-7.229v1.293h-4.076v-1.293h4.076zm-3.07-1.699h1.671v6.657c0 .225.034.397.102.517s.163.197.277.24.24.065.379.065c.105 0 .2-.008.286-.023l.203-.041.282 1.306c-.089.031-.217.065-.383.101s-.363.059-.6.065c-.419.012-.796-.051-1.131-.189a1.76 1.76 0 0 1-.799-.656c-.194-.295-.289-.665-.286-1.108V11.71zm8.066 8.79v-9.454h3.545c.726 0 1.336.126 1.828.378s.869.606 1.122 1.062.383.98.383 1.583-.129 1.133-.388 1.579-.632.786-1.131 1.03-1.111.36-1.837.36H92.34v-1.422h2.294c.425 0 .772-.059 1.043-.175s.471-.294.6-.522.199-.514.199-.849-.066-.622-.199-.859-.334-.422-.605-.545-.62-.189-1.048-.189h-1.57V20.5h-1.713zm4.884-4.284l2.341 4.284h-1.911l-2.299-4.284h1.87zm6.685 4.423c-.711 0-1.325-.148-1.842-.443s-.909-.72-1.186-1.265-.415-1.193-.415-1.934c0-.729.138-1.37.415-1.92s.671-.985 1.172-1.293 1.091-.466 1.768-.466c.437 0 .85.071 1.237.212a2.8 2.8 0 0 1 1.035.646c.301.292.538.665.71 1.117s.259.985.259 1.607v.512h-5.812v-1.126h4.21a1.79 1.79 0 0 0-.208-.854c-.135-.252-.324-.451-.567-.596s-.521-.217-.841-.217a1.63 1.63 0 0 0-.9.249c-.258.163-.46.378-.605.646s-.214.556-.217.873v.983c0 .412.076.766.227 1.062s.361.517.632.674.588.231.951.231c.243 0 .463-.034.66-.102a1.47 1.47 0 0 0 .513-.309c.144-.135.254-.303.327-.503l1.561.175c-.099.412-.286.773-.563 1.08s-.625.542-1.053.711-.917.249-1.468.249zm7.801 2.668c-.601 0-1.116-.081-1.547-.245s-.777-.375-1.039-.646-.443-.571-.544-.9l1.505-.365a1.64 1.64 0 0 0 .295.411c.129.138.303.252.522.342s.5.138.835.138c.474 0 .867-.115 1.177-.346s.467-.603.467-1.126v-1.343h-.083c-.087.172-.213.349-.379.531s-.38.334-.651.457-.605.185-1.011.185c-.545 0-1.039-.128-1.482-.383s-.791-.643-1.052-1.154-.388-1.157-.388-1.93c0-.779.129-1.436.388-1.971s.614-.946 1.057-1.223.937-.42 1.482-.42c.415 0 .757.071 1.025.212s.486.306.646.503.282.377.365.549h.092v-1.173h1.648v7.206c0 .606-.145 1.108-.434 1.505s-.685.694-1.186.891-1.071.295-1.708.295zm.013-4.219c.354 0 .656-.086.905-.259s.439-.42.568-.743.194-.711.194-1.163c0-.446-.065-.837-.194-1.173s-.314-.595-.563-.78-.549-.282-.91-.282c-.372 0-.683.097-.932.291s-.437.46-.563.799a3.24 3.24 0 0 0-.19 1.145c0 .434.064.814.19 1.14s.318.576.568.757.561.268.927.268zm5.178 1.413v-7.091h1.671V20.5h-1.671zm.84-8.097c-.265 0-.492-.088-.683-.263s-.286-.392-.286-.642.095-.466.286-.642.418-.268.683-.268.495.089.683.268.286.389.286.642-.095.463-.286.642-.415.263-.683.263zm8.304 2.881l-1.524.166c-.043-.154-.118-.299-.226-.434s-.246-.245-.425-.328-.397-.125-.655-.125c-.348 0-.64.075-.877.226s-.35.346-.346.586a.61.61 0 0 0 .226.503c.157.129.415.235.775.318l1.21.259c.671.145 1.169.374 1.496.688s.495.725.498 1.233a1.93 1.93 0 0 1-.392 1.182c-.256.339-.611.603-1.067.794s-.978.286-1.569.286c-.868 0-1.567-.182-2.096-.545s-.845-.876-.946-1.528l1.629-.157c.074.32.231.562.471.725s.552.245.937.245c.397 0 .716-.082.956-.245s.364-.365.364-.605a.63.63 0 0 0-.235-.503c-.154-.132-.394-.234-.72-.305l-1.21-.254c-.68-.142-1.183-.38-1.509-.716s-.488-.766-.485-1.283c-.003-.437.115-.816.355-1.136s.581-.572 1.011-.748.935-.268 1.501-.268c.831 0 1.485.177 1.962.531s.777.832.891 1.436zm5.221-1.874v1.293h-4.076v-1.293h4.076zm-3.07-1.699h1.671v6.657c0 .225.034.397.102.517s.163.197.277.24a1.06 1.06 0 0 0 .378.065c.105 0 .2-.008.287-.023l.203-.041.281 1.306c-.089.031-.217.065-.383.101s-.363.059-.6.065a2.72 2.72 0 0 1-1.131-.189c-.336-.142-.602-.36-.799-.656s-.289-.665-.286-1.108V11.71zm4.618 8.79v-7.091h1.62v1.182h.074c.129-.409.351-.725.665-.946a1.83 1.83 0 0 1 1.085-.337l.309.014c.117.006.214.017.291.032v1.537c-.071-.025-.183-.046-.337-.065a3.11 3.11 0 0 0-.439-.032c-.305 0-.578.066-.822.198s-.429.309-.567.54-.208.497-.208.799V20.5h-1.671zm6.558 2.659c-.227 0-.438-.018-.632-.055a2.35 2.35 0 0 1-.457-.12l.388-1.302c.243.071.46.105.651.102a.8.8 0 0 0 .503-.18c.148-.114.272-.305.374-.572l.143-.383-2.571-7.239h1.772l1.635 5.355h.073l1.639-5.355h1.778l-2.84 7.95c-.132.375-.307.697-.526.965s-.486.477-.803.619-.689.217-1.127.217z" fill="#000"/><defs><linearGradient id="A" x1="9.028" y1="3.859" x2="24.79" y2="26.049" gradientUnits="userSpaceOnUse"><stop stop-color="#73dfe7"/><stop offset="1" stop-color="#0095f7"/></linearGradient></defs></svg>