<svg viewBox="0 0 20 20" fill="none" xmlns="http://www.w3.org/2000/svg"><path fill-rule="evenodd" clip-rule="evenodd" d="M16.6583 10.405C16.4689 10.9098 16.1533 11.3515 16.0901 11.3515L14.7013 12.7397L11.9236 10.0264L14.6382 7.31308L16.027 8.70129C16.4689 9.07989 16.8477 9.5847 16.6583 10.405ZM9.65082 16.6519C9.14579 16.4626 8.70388 16.1471 8.70388 16.084L7.31505 14.6958L10.0296 11.9824L12.7441 14.6958L11.3553 16.084C10.9765 16.4626 10.4084 16.8412 9.65082 16.6519ZM3.40109 9.6478C3.59047 9.14299 3.90612 8.70129 3.96925 8.70129L5.35808 7.31308L8.07262 10.0264L5.35808 12.7397L3.90612 11.3515C3.52734 10.9729 3.14857 10.405 3.40109 9.6478ZM10.4084 3.40081C10.9134 3.59011 11.3553 3.90562 11.3553 3.96872L12.7441 5.35693L10.0296 8.07026L7.31505 5.35693L8.70388 3.96872C9.08266 3.59011 9.58769 3.14841 10.4084 3.40081ZM18.0471 6.74521L13.3124 2.01267C13.2493 1.94957 12.4917 1.19236 11.3554 0.813758C9.71405 0.245853 8.13583 0.687557 6.81013 2.01267L2.01234 6.74521C1.94921 6.80831 1.19166 7.56552 0.81289 8.70133C0.244731 10.3419 0.686633 11.9195 2.01234 13.2446L6.747 17.9771C6.81013 18.0402 7.56767 18.7974 8.70399 19.176C9.14589 19.3022 9.65092 19.4284 10.0928 19.4284C11.2291 19.4284 12.3023 18.9236 13.2493 18.0402L17.9839 13.3077C18.0471 13.2446 18.8046 12.4874 19.1834 11.3516C19.7515 9.71094 19.3096 8.07033 18.0471 6.74521Z" fill="url(#paint0_linear_1906_46458)"/><defs><linearGradient id="paint0_linear_1906_46458" x1="1.94502" y1="0.571289" x2="19.0346" y2="19.0356" gradientUnits="userSpaceOnUse"><stop stop-color="#FF8AC1"/><stop offset="0.5" stop-color="#6C44DB"/><stop offset="1" stop-color="#47D5DF"/></linearGradient></defs></svg>