<svg viewBox="0 0 16 17" fill="none" xmlns="http://www.w3.org/2000/svg"><path d="M0 2.58997C0 1.4854 0.895431 0.589966 2 0.589966H14C15.1046 0.589966 16 1.4854 16 2.58997V14.59C16 15.6945 15.1046 16.59 14 16.59H2C0.895431 16.59 0 15.6945 0 14.59V2.58997Z" fill="url(#paint0_linear_735_28891)"/><path d="M4.65128 12.09H3.24503L5.8054 4.81724H7.43182L9.99574 12.09H8.58949L6.64702 6.30872H6.5902L4.65128 12.09ZM4.69744 9.2384H8.53267V10.2966H4.69744V9.2384Z" fill="white"/><path d="M12.0711 4.81724V12.09H10.7537V4.81724H12.0711Z" fill="white"/><defs><linearGradient id="paint0_linear_735_28891" x1="1.16642" y1="0.589966" x2="15.6667" y2="16.2566" gradientUnits="userSpaceOnUse"><stop stop-color="#F687B3"/><stop offset="0.5" stop-color="#7A3DF5"/><stop offset="1" stop-color="#4FD1C5"/></linearGradient></defs></svg>