<svg xmlns="http://www.w3.org/2000/svg" viewBox="0 0 25 25" fill="none"><path fill="#25A6F7" fill-rule="evenodd" d="M93.297 62.026c-.947 2.524-2.525 4.732-2.84 4.732L83.511 73.7 69.624 60.133l13.573-13.567 6.944 6.941c2.21 1.893 4.103 4.417 3.156 8.519ZM58.26 93.26c-2.526-.946-4.735-2.524-4.735-2.84l-6.944-6.94 13.573-13.567L73.726 83.48l-6.944 6.94c-1.894 1.894-4.735 3.787-8.522 2.84ZM27.01 58.24c.947-2.524 2.525-4.733 2.84-4.733l6.945-6.94 13.573 13.566-13.573 13.566-7.26-6.94c-1.894-1.894-3.788-4.733-2.525-8.52Zm35.036-31.235c2.526.946 4.735 2.524 4.735 2.84l6.944 6.94-13.572 13.567L46.58 36.785l6.944-6.94c1.894-1.894 4.419-4.102 8.522-2.84Zm38.194 16.722L76.568 20.064c-.316-.315-4.104-4.101-9.785-5.995-8.207-2.839-16.098-.63-22.727 5.995L20.067 43.727c-.315.315-4.103 4.101-5.997 9.78-2.84 8.204-.631 16.091 5.997 22.717l23.674 23.662c.315.316 4.103 4.102 9.785 5.995 2.21.631 4.734 1.262 6.944 1.262 5.681 0 11.047-2.524 15.782-6.941l23.673-23.663c.316-.315 4.104-4.101 5.997-9.78 2.841-8.204.632-16.407-5.681-23.032Z" clip-rule="evenodd" opacity=".1"/></svg>