<svg xmlns="http://www.w3.org/2000/svg" viewBox="0 0 121 91"><path fill="#fff" d="M102.45 56.673 81.518 50.12V22.274l20.245 6.552.687 27.847Z"/><path fill="#000" fill-rule="evenodd" d="M79.669 22.12a.5.5 0 0 1 .63-.322c.532.173 1.05.34 1.554.505 8.135 2.639 13.048 4.232 21.762 6.697a.5.5 0 0 1-.272.962c-8.733-2.47-13.661-4.069-21.796-6.707l-1.557-.505a.5.5 0 0 1-.321-.63Zm0 27.519a.5.5 0 0 1 .63-.322A855.339 855.339 0 0 0 90.996 52.7c3.587 1.115 7.076 2.2 11.781 3.743a.5.5 0 0 1-.312.95 713.683 713.683 0 0 0-11.75-3.733c-3.17-.986-6.424-1.997-10.725-3.391a.5.5 0 0 1-.321-.63Z" clip-rule="evenodd"/><path fill="#000" fill-rule="evenodd" d="M81.174 20.464a.5.5 0 0 1 .5.5v29.812a.5.5 0 1 1-1 0V20.964a.5.5 0 0 1 .5-.5Zm20.589 5.897a.5.5 0 0 1 .5.5v29.812a.5.5 0 0 1-1 0V26.861a.5.5 0 0 1 .5-.5Z" clip-rule="evenodd"/><path fill="#000" fill-rule="evenodd" d="M93.808 47.77a.5.5 0 0 1 .697.121l.19.27c.743 1.057 1.851 2.634 3.019 4.155 1.283 1.672 2.596 3.222 3.557 3.96a.501.501 0 0 1-.61.793c-1.08-.83-2.466-2.483-3.74-4.144-1.182-1.54-2.302-3.132-3.044-4.188l-.19-.27a.5.5 0 0 1 .12-.697ZM95.615 45.146a.5.5 0 0 1 .697.118c.868 1.22 2.413 3.244 3.746 4.97.666.86 1.277 1.645 1.722 2.214l.528.675.194.248-.393.31-.393.308-.195-.249c-.125-.16-.307-.39-.529-.676-.446-.57-1.058-1.356-1.725-2.22-1.332-1.723-2.889-3.762-3.77-5a.5.5 0 0 1 .118-.698Zm6.803 8.927a.5.5 0 0 1-.702-.084l.393-.309.393-.309a.5.5 0 0 1-.084.702ZM81.779 23.32a.5.5 0 0 1 .696.124c.823 1.181 5.271 6.464 9.763 11.79l.501.595c4.295 5.092 8.498 10.076 9.335 11.248a.501.501 0 0 1-.814.58c-.812-1.137-5.024-6.13-9.37-11.284l-.417-.494c-4.462-5.292-8.961-10.632-9.819-11.863a.5.5 0 0 1 .125-.696ZM87.366 24.627a.5.5 0 0 1 .707.037l14.235 15.785a.501.501 0 0 1-.743.67L87.33 25.333a.5.5 0 0 1 .036-.706Zm8.746 2.249a.5.5 0 0 1 .705.05l5.497 6.343a.5.5 0 0 1-.756.654l-5.496-6.342a.5.5 0 0 1 .05-.705Z" clip-rule="evenodd"/><path fill="#fff" d="M96.99 59.5 76.06 52.95V25.102l20.245 6.552.687 27.847Z"/><path fill="#000" fill-rule="evenodd" d="M74.21 24.948a.5.5 0 0 1 .63-.321l1.555.504c8.134 2.639 13.047 4.232 21.76 6.697a.5.5 0 0 1-.271.963c-8.733-2.47-13.661-4.07-21.796-6.708l-1.556-.505a.5.5 0 0 1-.322-.63Zm0 27.519a.5.5 0 0 1 .63-.321c4.255 1.38 7.515 2.393 10.697 3.382 3.587 1.115 7.076 2.2 11.78 3.744a.5.5 0 1 1-.311.95 713.092 713.092 0 0 0-11.75-3.734c-3.17-.986-6.424-1.997-10.725-3.391a.5.5 0 0 1-.32-.63ZM78.328 42.787a.5.5 0 0 1 .632-.317l.96.318c5.024 1.667 8.056 2.673 13.434 4.228a.5.5 0 1 1-.278.96c-5.397-1.56-8.444-2.571-13.469-4.238l-.962-.319a.5.5 0 0 1-.317-.632Zm.53 4.552a.5.5 0 0 1 .632-.317 343.589 343.589 0 0 1 6.636 2.271c1.63.572 3.302 1.16 5.875 2.023a.5.5 0 0 1-.318.948c-2.58-.866-4.257-1.455-5.888-2.027l-.33-.116c-1.736-.61-3.485-1.22-6.29-2.15a.5.5 0 0 1-.317-.632Z" clip-rule="evenodd"/><path fill="#000" fill-rule="evenodd" d="M75.715 23.292a.5.5 0 0 1 .5.5v29.812a.5.5 0 1 1-1 0V23.792a.5.5 0 0 1 .5-.5Zm20.589 5.897a.5.5 0 0 1 .5.5V59.5a.5.5 0 0 1-1 0V29.69a.5.5 0 0 1 .5-.5Z" clip-rule="evenodd"/><path fill="#01C9CC" d="M78.606 38.617V31l14.287 3.894v8.764l-14.287-5.042Z"/><path fill="#000" fill-rule="evenodd" d="M83.44 33.518a.5.5 0 0 1-.144.692l-2.404 1.576 2.471 2.3a.5.5 0 1 1-.681.732l-2.939-2.735a.5.5 0 0 1 .067-.784l2.939-1.925a.5.5 0 0 1 .692.144Zm4.645.785a.5.5 0 0 1 .102.7l-3.85 5.167a.5.5 0 0 1-.802-.598l3.85-5.167a.5.5 0 0 1 .7-.102ZM89 35.32a.5.5 0 0 1 .701.093l2.634 3.445a.5.5 0 0 1-.22.771l-3.749 1.419a.5.5 0 0 1-.354-.936l3.12-1.18-2.225-2.911A.5.5 0 0 1 89 35.32Z" clip-rule="evenodd"/><path fill="#fff" d="M31.169 28.009c-5.188-6.555 2.593-8.939 7.78-10.13 23.862 0 21.017 15.493 11.29 18.812 8.654 0 15.356 4.698 15.356 12.351 2.504 3.835-13.354 18.792-19.197 18.792-7.111 0-3.507-1.063-2.183-1.392-.25.054-.624.133-1.155.242-5.836 1.192-22.444-1.116-25.04-7.67-2.075-5.244.835-3.836 5.843-8.054l-.016-.016c-1.297-1.19-8.79-8.073 11.844-17.879-.42-.126-1.456-1.181-4.523-5.056Z"/><path fill="#000" fill-rule="evenodd" d="M45.15 17.587c-3.48-.607-7.098-.723-10.581.06-1.098.248-2.305.607-3.336 1.2-1.036.595-1.927 1.446-2.325 2.684a5.607 5.607 0 0 0-.252 1.948c-.266 2.054.507 4.004 1.856 5.727 1.358 1.734 3.325 3.274 5.518 4.522a28.33 28.33 0 0 0 6.974 2.808c2.328.584 4.583.794 6.387.488 1.184-.2 2.381-.594 3.516-1.145.22-.083.436-.172.647-.267a5.931 5.931 0 0 0 1.704-1.18 13.1 13.1 0 0 0 .77-.635c1.864-1.662 3.222-3.857 3.39-6.327.187-2.75-1.559-4.765-3.733-6.19-1.398-.916-3.02-1.621-4.544-2.155-1.84-.76-3.864-1.197-5.991-1.538Zm-.127.994a88.713 88.713 0 0 0-1.795-.268c-2.825-.342-5.686-.31-8.44.31-1.061.24-2.154.572-3.057 1.09-.897.516-1.573 1.195-1.87 2.123-.503 1.567-.06 3.392.898 5.152.953 1.75 2.374 3.349 3.673 4.413 2.146 1.757 5.468 3.206 8.959 3.898 3.227.64 6.526.618 9.12-.34.732-.36 1.435-.79 2.086-1.281.935-.932 1.616-2.24 2.002-3.642.568-2.061.449-4.14-.26-5.29-1.445-2.346-3.326-3.76-5.553-4.686a33.196 33.196 0 0 0-2.312-.709 40.078 40.078 0 0 0-3.451-.77Zm11.379 4.494c1.328 1.18 2.135 2.605 2.018 4.328-.069 1.017-.373 1.996-.86 2.91a.328.328 0 0 0 .003-.011c.603-2.19.543-4.594-.372-6.08-.25-.408-.514-.79-.79-1.147Z" clip-rule="evenodd"/><path fill="#000" fill-rule="evenodd" d="M54.563 25.469a.5.5 0 0 0-.64.3c-.43 1.183-1.367 2.065-2.66 2.668-1.297.605-2.925.913-4.662.95-3.49.072-7.254-.954-9.406-2.65a.5.5 0 0 0-.62.786c2.388 1.88 6.403 2.94 10.047 2.863 1.83-.038 3.605-.363 5.064-1.043 1.463-.682 2.633-1.736 3.176-3.234a.5.5 0 0 0-.3-.64ZM36.083 32.785a.5.5 0 0 1-.182.683c-7.171 4.157-11.082 7.5-12.853 10.153-.88 1.318-1.21 2.434-1.183 3.375.027.934.409 1.757 1.07 2.493 1.347 1.5 3.801 2.581 6.457 3.323 2.633.735 5.369 1.11 7.182 1.26a.5.5 0 1 1-.082.997c-1.857-.153-4.658-.538-7.369-1.294-2.688-.75-5.384-1.892-6.933-3.618-.787-.876-1.29-1.917-1.325-3.132-.035-1.207.393-2.525 1.35-3.96 1.905-2.851 5.986-6.289 13.184-10.462a.5.5 0 0 1 .684.182Z" clip-rule="evenodd"/><path fill="#FAFCFF" d="m67.925 32.628-12.822.813-20.338 1.625 2.21 13.409h-8.842l8.842 6.094 14.85-.934 7.928-5.743 3.339-.767s4.833.767 2.92 5.413c-.447 1.087 3.24 0 3.24 0l-1.327-19.91Z"/><path fill="#000" fill-rule="evenodd" d="M27.283 48.188a.5.5 0 0 1 .696-.121c.566.398 2.877 1.915 5.06 3.341l2.92 1.905.938.61.351.228-.272.42-.272.419-.352-.23a2344.456 2344.456 0 0 1-3.86-2.515c-2.172-1.419-4.504-2.95-5.088-3.36a.5.5 0 0 1-.121-.697Zm10.112 6.655a.5.5 0 0 1-.691.147l.272-.42.272-.42a.5.5 0 0 1 .147.693Z" clip-rule="evenodd"/><path fill="#000" fill-rule="evenodd" d="M32.234 48.976H27.69a.5.5 0 1 1 0-1h8.843a.5.5 0 0 1 0 1h-4.3Z" clip-rule="evenodd"/><path fill="#000" fill-rule="evenodd" d="M34.248 33.355a.5.5 0 0 1 .57.417l-.494.077-.494.077a.5.5 0 0 1 .418-.571Zm.076.494-.494.077.133.856a3664.34 3664.34 0 0 1 1.414 9.198c.387 2.54.774 5.103 1.064 7.083.145.99.266 1.832.35 2.451a48.725 48.725 0 0 1 .122.973c.005.055.006.079.006.083a.5.5 0 0 0 1 0 4.54 4.54 0 0 0-.038-.425 47.683 47.683 0 0 0-.1-.765c-.084-.625-.205-1.471-.35-2.462-.291-1.983-.678-4.548-1.065-7.088a3605.45 3605.45 0 0 0-1.415-9.2l-.133-.858-.494.077Z" clip-rule="evenodd"/><path fill="#000" fill-rule="evenodd" d="M69.31 32.593a.5.5 0 0 1-.464.534l-34.487 2.438a.5.5 0 0 1-.07-.997l34.486-2.438a.5.5 0 0 1 .534.463Z" clip-rule="evenodd"/><path fill="#000" fill-rule="evenodd" d="M67.893 31.317a.5.5 0 0 1 .532.467L69.75 52.1a.5.5 0 1 1-.998.065l-1.326-20.316a.5.5 0 0 1 .466-.532Z" clip-rule="evenodd"/><path fill="#000" fill-rule="evenodd" d="M70.192 52.497a.5.5 0 0 1-.457.54l-4.098.34a.5.5 0 1 1-.082-.997l4.097-.34a.5.5 0 0 1 .54.457Zm-18.286 1.115a.5.5 0 0 1-.466.532l-13.989.925a.5.5 0 1 1-.066-.998l13.99-.925a.5.5 0 0 1 .531.466ZM52.408 37.293a1.5 1.5 0 0 1 1.403-.11l3.379 1.456c.512.22.865.704.916 1.256l.305 3.277a1.474 1.474 0 0 1-.672 1.382l-1.5.962-.55-.843 1.501-.962c.155-.099.241-.276.224-.46l-.305-3.277a.509.509 0 0 0-.305-.42L53.425 38.1a.5.5 0 0 0-.467.037l-3.046 1.951a.491.491 0 0 0-.222.474l.162 1.361-.994.105-.162-1.362a1.475 1.475 0 0 1 .667-1.42l3.045-1.952Z" clip-rule="evenodd"/><path fill="#FAFCFF" d="M51.102 40.236a1 1 0 0 1 .935-.073l3.758 1.619c.342.147.577.47.61.837l.341 3.661a.983.983 0 0 1-.447.921l-3.405 2.181a1 1 0 0 1-.935.074L48.2 47.837a1.017 1.017 0 0 1-.611-.838l-.34-3.66a.983.983 0 0 1 .447-.922l3.405-2.18Z"/><path fill="#000" fill-rule="evenodd" d="m55.409 42.698-3.758-1.62-3.404 2.182.34 3.66 3.758 1.62 3.404-2.181-.34-3.661Zm-3.372-2.535a1 1 0 0 0-.935.073l-3.405 2.181a.983.983 0 0 0-.447.921L47.59 47c.034.368.27.69.61.838l3.759 1.619a1 1 0 0 0 .935-.074l3.405-2.18a.983.983 0 0 0 .447-.922l-.34-3.66a1.017 1.017 0 0 0-.611-.838l-3.758-1.62ZM33.625 41.883a.5.5 0 0 1 .142.692c-1.431 2.172-3.508 4.678-5.557 6.616a.5.5 0 1 1-.688-.727c1.993-1.884 4.02-4.33 5.41-6.439a.5.5 0 0 1 .693-.142ZM21.412 54.607l-.603-.797 2.952-2.316.627.779a79.855 79.855 0 0 1-2.753 2.17l-.165.122-.043.031-.011.008-.005.003Z" clip-rule="evenodd"/><path fill="#000" fill-rule="evenodd" d="M31.786 55.867c5.953 2.128 11.82 5.185 13.322 6.033a.5.5 0 1 1-.491.87c-1.47-.83-7.284-3.858-13.167-5.961-2.946-1.053-5.875-1.862-8.273-2.06-2.444-.2-4.11.247-4.845 1.42-.383.612-.393 1.322-.147 2.054.248.737.744 1.451 1.29 1.988.82.81 2.266 1.664 4.131 2.487 1.853.818 4.073 1.585 6.4 2.236 4.666 1.306 9.697 2.127 12.998 1.977a.5.5 0 1 1 .046.999c-3.456.157-8.604-.694-13.313-2.013-2.361-.66-4.628-1.443-6.535-2.284-1.893-.836-3.477-1.75-4.43-2.69-.63-.621-1.226-1.465-1.535-2.382-.31-.923-.34-1.965.248-2.903 1.062-1.697 3.29-2.09 5.774-1.885 2.528.208 5.555 1.051 8.527 2.114Z" clip-rule="evenodd"/><path fill="#000" fill-rule="evenodd" d="M52.678 65.388c-2.275 1.405-4.267 2.433-5.345 2.75-1.725.506-3.037.644-3.942.384-.47-.135-.842-.381-1.085-.742-.239-.354-.325-.778-.312-1.222.026-.873.44-1.939 1.072-3.077.64-1.151 1.535-2.431 2.59-3.749 2.11-2.636 4.89-5.46 7.632-7.763 2.72-2.285 5.476-4.12 7.533-4.69.878-.244 1.95-.361 2.965-.218 1.017.144 2.02.557 2.677 1.415 1.222 1.597.661 3.63-.627 5.605-1.303 1.998-3.461 4.122-5.84 6.086-2.385 1.97-5.024 3.805-7.318 5.221ZM64.97 53.593c1.233-1.891 1.497-3.422.655-4.523-.458-.598-1.186-.926-2.031-1.045-.847-.12-1.767-.022-2.524.188-1.81.502-4.41 2.197-7.122 4.474-2.692 2.261-5.422 5.036-7.487 7.614-1.032 1.29-1.89 2.521-2.494 3.607-.61 1.1-.93 1.997-.95 2.637-.008.312.054.532.158.686.1.148.265.276.548.357.6.173 1.658.115 3.343-.38l.133.465-.133-.465c.92-.27 2.8-1.224 5.078-2.63 2.258-1.395 4.855-3.2 7.197-5.134 2.349-1.94 4.41-3.983 5.629-5.851Z" clip-rule="evenodd"/></svg>