<svg width="24" height="24" viewBox="0 0 24 24" fill="none" xmlns="http://www.w3.org/2000/svg">
<path fill-rule="evenodd" clip-rule="evenodd" d="M7.5 3.16907C7.5 3.1687 7.5 3.16833 7.5 3.16797C9.86173 3.16797 11.7985 4.40922 11.9853 5.98767C11.9952 5.9874 12.0051 5.98713 12.015 5.98686C12.203 4.40932 14.1392 3.16907 16.5 3.16907C18.9272 3.16907 20.9057 5.18076 20.9967 7.6983L21 7.69655C21 7.73145 20.9998 7.76635 20.9994 7.80125C20.9998 7.82735 21 7.85351 21 7.87972C21 8.05548 20.9908 8.22899 20.9729 8.39976C20.5447 14.0103 15.1538 19.5473 12.5807 21.7189L12.4118 21.9666C12.2133 22.2577 11.7841 22.2577 11.5856 21.9666L11.4148 21.7161C8.83933 19.5413 3.45269 14.0056 3.02683 8.3971C3.0091 8.22719 3 8.05457 3 7.87972C3 7.85365 3.0002 7.82764 3.00061 7.80167C3.0002 7.76696 3 7.73225 3 7.69755L3.00324 7.69928C3.09383 5.18128 5.07243 3.16907 7.5 3.16907Z" fill="white"/>
</svg>
