<svg width="24" height="24" viewBox="0 0 24 24" fill="none" xmlns="http://www.w3.org/2000/svg">
<path fill-rule="evenodd" clip-rule="evenodd" d="M15.6654 12.3564C15.7651 12.1246 15.7416 11.8583 15.6028 11.6475C15.4641 11.4368 15.2287 11.31 14.9764 11.31L10.6443 11.3099C10.4312 11.3099 10.286 11.0939 10.3665 10.8966L13.0532 4.31408C13.0726 4.26648 13.1038 4.22453 13.1446 4.19334C13.9687 3.56473 15.1666 3.16907 16.5 3.16907C18.9267 3.16907 20.9047 5.17978 20.9967 7.69647C20.9967 7.69731 20.9976 7.69783 20.9983 7.69744V7.69744C20.9991 7.69704 21 7.69759 21 7.69844C21 7.73271 20.9998 7.76698 20.9994 7.80125C20.9998 7.82735 21 7.85351 21 7.87972C21 8.05548 20.9908 8.229 20.9729 8.39977C20.545 14.0061 15.1619 19.539 12.5865 21.714C12.5739 21.7247 12.5629 21.7359 12.5518 21.7481C12.3556 21.9637 12.0615 22.0359 11.7998 21.9647C11.6612 21.927 11.6172 21.7666 11.6739 21.6347L15.6654 12.3564ZM10.5647 20.4174C10.4826 20.6081 10.237 20.6605 10.0871 20.5167C7.33 17.8731 3.38858 13.1614 3.02683 8.3971C3.0091 8.22719 3 8.05457 3 7.87972C3 7.85365 3.0002 7.82764 3.00061 7.80168C3.00021 7.76759 3.00001 7.73351 3 7.69942C3 7.69858 3.00091 7.69803 3.00165 7.69844V7.69844C3.00238 7.69883 3.00328 7.69831 3.00331 7.69748C3.09477 5.18051 5.07271 3.16937 7.49945 3.16907C7.49975 3.16907 7.5 3.16882 7.5 3.16852V3.16852C7.5 3.16821 7.50025 3.16797 7.50055 3.16797C9.0214 3.16809 10.366 3.68294 11.1804 4.47107C11.264 4.55193 11.2853 4.67605 11.2414 4.78371L8.38726 11.7765C8.29287 12.0078 8.31981 12.2709 8.45913 12.4782C8.59845 12.6856 8.83185 12.8099 9.08165 12.8099L13.3817 12.81C13.5972 12.81 13.7424 13.0305 13.6573 13.2285L10.5647 20.4174Z" fill="white"/>
</svg>
