<svg xmlns="http://www.w3.org/2000/svg" fill="none" viewBox="0 0 32 32"><path fill="#000" d="M4.988 11.289c.219-.618.47-1.213.764-1.771-.284-.285-.993-.891-.95-.939 3.7-4.824 8.522-6.274 12.788-5.43.873.13 1.746.356 2.608.701 6.11 2.472 9.197 9.803 6.906 16.386-.23.654-.513 1.284-.818 1.866.338.32 1.08.915 1.036.962-4.102 5.288-9.568 6.512-14.118 5.038a13.983 13.983 0 0 1-1.31-.427c-6.098-2.472-9.197-9.803-6.906-16.387ZM25.828 0c-.775.808-1.703 1.782-2.16 2.222a15.28 15.28 0 0 0-2.303-1.164c-6.94-2.805-14.25.368-18.275 6.274C.984 10.718-.26 14.889.046 19.179c0 0 .01 8.068 6.852 12.821.556-.832 1.265-1.901 1.734-2.59.764.475 1.572.903 2.423 1.247 7.855 3.173 16.562-.879 19.41-9.042 0 0 2.083-4.98 1.396-10.421 0 0-.535-7.344-6.034-11.194Z"/></svg>