<svg xmlns="http://www.w3.org/2000/svg" viewBox="0 0 25 25" fill="none"><path fill="#065fe5" d="M19.108 14.688h.132c.273 0 .533.029.795.107l.062.019c.177.054.336.127.497.218l.064.035c.148.082.282.179.415.284l.031.025a2.1 2.1 0 0 1 .347.334l.05.06c.525.636.704 1.39.643 2.202a2.818 2.818 0 0 1-.812 1.685l-.053.053c-.496.494-1.208.83-1.915.832a15.59 15.59 0 0 1-.098-.001h-.147c-.25 0-.492-.02-.733-.089l-.045-.013a3.034 3.034 0 0 1-1.096-.602l-.057-.049a2.896 2.896 0 0 1-.94-1.806 4.566 4.566 0 0 1-.005-.16v-.046c-.007-.638-.007-.638.085-.93l.015-.048c.188-.583.53-1.114 1.021-1.487l.063-.048c.34-.258.73-.434 1.148-.52l.09-.021c.146-.035.293-.035.443-.034"/><path fill="#075394" d="M12.647 4.319a.551.551 0 0 1 .232.286c.008.061.007.121.007.182v.054l-.001.177v.123a75.718 75.718 0 0 1-.002.323l-.001.33-.003.645.104.01.059.005.14.011c.397.03.78.174 1.152.313l.048.018c.129.05.251.11.373.174l.06.032c.17.09.335.189.496.295a1.56 1.56 0 0 0 .197-.23l.058-.081.031-.043c.059-.08.118-.16.178-.238l.038-.051.077-.103.116-.154c.13-.175.262-.35.396-.523.047-.062.093-.123.137-.188a.493.493 0 0 1 .247-.184c.128-.02.255-.024.37.042.095.07.166.16.188.277.025.203-.058.362-.178.52l-.038.047-.081.106-.041.053c-.061.079-.12.16-.179.24-.098.134-.199.268-.3.4a29.765 29.765 0 0 0-.314.417l-.034.047a5.34 5.34 0 0 0-.17.244l.037.036c.351.343.62.753.846 1.187l.02.038c.014.035.014.035.014.094-.13.009-.26.014-.39.018l-.132.006c-.356.022-.356.022-.454-.054a.904.904 0 0 1-.14-.248.802.802 0 0 0-.13-.178l-.033-.038a16.248 16.248 0 0 0-.097-.104l-.04-.043c-.727-.766-1.757-1.273-2.821-1.315-.725-.018-1.404.085-2.063.401l-.052.025c-.353.17-.682.381-.965.653a10.486 10.486 0 0 1-.083.072c-.23.202-.474.468-.603.748-.057.064-.065.066-.146.071-.04 0-.079 0-.118-.002h-.063a15.33 15.33 0 0 1-.198-.004l-.134-.002a30.203 30.203 0 0 1-.33-.006c.14-.434.438-.82.738-1.156l.027-.03a16.946 16.946 0 0 1 .153-.17.907.907 0 0 0-.094-.155l-.033-.044-.035-.048-.037-.05c-.121-.163-.244-.324-.367-.485a36.364 36.364 0 0 1-.252-.334l-.088-.118L7.9 6.6a6.639 6.639 0 0 0-.098-.127c-.14-.176-.282-.356-.267-.592a.49.49 0 0 1 .2-.319c.101-.065.222-.05.338-.04.194.053.317.236.428.392l.073.1.038.053c.065.089.132.176.199.263.136.178.27.358.403.54l.192.26.071.097.03.04.022.03c.096-.034.178-.087.264-.141.615-.38 1.406-.72 2.142-.717h.086l-.001-.067a126.834 126.834 0 0 1-.005-.632 56.89 56.89 0 0 0-.004-.638l-.001-.12c-.005-.415-.005-.415.11-.556.149-.137.332-.196.526-.107"/><path fill="#f6f9fd" d="M19.818 15.722c.523.182.949.512 1.203 1.01.238.492.25 1.045.089 1.562a1.929 1.929 0 0 1-.376.645l-.028.03a2.03 2.03 0 0 1-.55.429l-.064.035c-.44.224-1.02.266-1.492.124a2.076 2.076 0 0 1-.817-.498l-.046-.041c-.337-.315-.54-.805-.558-1.26-.015-.611.155-1.107.58-1.554.3-.289.739-.525 1.16-.554.234-.117.666-.005.9.072"/><path fill="#065395" d="M8.034 13.955c.136-.005.273-.01.409-.012a8.014 8.014 0 0 0 .139-.004c.385-.016.385-.016.492.062.04.056.069.11.097.174.026.038.026.038.055.07l.05.058c.338.397.744.715 1.21.948l.064.035a3.712 3.712 0 0 0 1.115.372c.261.049.516.064.781.063h.06c.351 0 .672-.037 1.01-.13l.053-.015c.174-.047.341-.11.506-.185l.041-.019a4.311 4.311 0 0 0 1.255-.839l.051-.048c.127-.122.235-.256.341-.396l.026-.034.03-.053c.08-.074.162-.059.267-.056h.064c.068 0 .135.002.203.003l.137.001.336.005a.945.945 0 0 1-.08.197l-.025.042-.026.043-.026.045c-.08.13-.166.252-.262.371l-.038.05c-.086.111-.18.215-.276.318a2.654 2.654 0 0 0-.164.19l.023.03c.147.188.293.377.436.568l.037.04c.022.04.022.04.012.084l-.03.056-.02.04a10.546 10.546 0 0 1-.049.09 2.503 2.503 0 0 0-.27.667h-.04c-.028-.035-.028-.035-.064-.087a8.175 8.175 0 0 0-.232-.309l-.073-.093-.035-.046a29.341 29.341 0 0 1-.142-.184 47.807 47.807 0 0 0-.23-.297 1.396 1.396 0 0 0-.194.09l-.053.03-.057.032a6.259 6.259 0 0 1-.973.426l-.039.014a3.767 3.767 0 0 1-.541.14l-.064.013a2.85 2.85 0 0 1-.34.043l-.076.005-.056.004v.063q.004.295.005.59a49.532 49.532 0 0 0 .004.595l.001.112c.006.381.006.381-.11.534-.046.045-.046.045-.09.071l-.046.027a.457.457 0 0 1-.355.018c-.122-.066-.196-.126-.25-.253-.039-.147-.026-.304-.024-.455v-.115l.002-.3.002-.306c0-.2.002-.4.004-.601h-.134l-.075.001a1.263 1.263 0 0 1-.259-.033l-.05-.01c-.134-.03-.267-.063-.4-.098l-.057-.014a4.459 4.459 0 0 1-1.357-.62c-.042-.028-.042-.028-.1-.023-.036.039-.036.039-.07.092a5.463 5.463 0 0 1-.197.264 24.322 24.322 0 0 0-.233.298 46.69 46.69 0 0 1-.215.278 47.229 47.229 0 0 0-.281.365l-.033.043a18.96 18.96 0 0 0-.131.173c-.096.126-.178.217-.336.26-.143.018-.268.02-.387-.069a.395.395 0 0 1-.136-.266l-.001-.067-.003-.065c.02-.16.12-.277.218-.4a79.426 79.426 0 0 0 .075-.094l.038-.048c.055-.07.107-.14.16-.211a14.354 14.354 0 0 1 .251-.327c.105-.132.207-.267.31-.4l.18-.236.065-.086.048-.063a.453.453 0 0 0-.111-.15 2.784 2.784 0 0 1-.243-.276 9.25 9.25 0 0 0-.053-.066c-.45-.566-.45-.566-.45-.744m7.838-4.098h.048l.102-.002c.051 0 .103-.002.155-.004.233-.004.233-.004.313.043a.557.557 0 0 1 .076.134 18.5 18.5 0 0 0 .057.103c.038.068.073.137.109.206l.047.09.097.185c.07.136.143.271.215.407l.065.123.076.143a2.412 2.412 0 0 0 .066.114c.026.044.026.044.026.084a.528.528 0 0 0 .116-.16l.033-.06.035-.068.056-.105.059-.11c.1-.19.202-.379.304-.568a92.663 92.663 0 0 0 .068-.127l.09-.167.026-.05.025-.044.02-.039a.417.417 0 0 1 .105-.117 1.096 1.096 0 0 1 .167-.01h.048l.102.001h.303c.106.002.106.002.151.031.039.057.034.104.034.172v3.158l-.008.058c-.076.05-.138.045-.226.045h-.151a18 18 0 0 0-.158 0H18.377c-.11-.001-.11-.001-.155-.045a2.236 2.236 0 0 1-.007-.168v-.052a35.407 35.407 0 0 1-.002-.173v-.119a115.35 115.35 0 0 1-.003-.314l-.003-.32a324.94 324.94 0 0 1-.005-.629l-.027.05-.101.191-.044.082c-.384.723-.384.723-.446.754-.08.006-.158.005-.237.006l-.067.002h-.064l-.058.001c-.069-.012-.09-.036-.132-.089-.028-.044-.028-.044-.052-.093l-.028-.055-.03-.059-.064-.124-.032-.063a16.016 16.016 0 0 0-.165-.306l-.03-.056a6.758 6.758 0 0 0-.138-.24v.066l-.006.625-.002.321a98.545 98.545 0 0 1-.003.31v.119l-.002.165v.05c-.002.113-.002.113-.047.157a2.101 2.101 0 0 1-.163.006h-.458c-.112-.001-.112-.001-.156-.045-.005-.058-.005-.058-.005-.132v-.278l-.001-.269v-1.298l-.001-.468v-.845c.007-.06.007-.06.033-.097.06-.04.128-.033.197-.034"/><path fill="#065293" d="M5.911 9.862h.419l.048-.001c.11 0 .11 0 .155.03.037.054.033.094.033.16v.075l-.001.083v.084a35.662 35.662 0 0 1-.003.448c0 .148-.002.295-.003.443h1.136l-.002-.272v-.216a47.915 47.915 0 0 0-.003-.445 10.965 10.965 0 0 0 0-.084 10.666 10.666 0 0 1-.001-.117v-.067c.006-.055.006-.055.032-.092.062-.04.137-.03.209-.03h.16l.166.001h.155c.117.002.117.002.162.046.005.058.005.058.005.133v3.179c-.005.058-.005.058-.045.097a2.291 2.291 0 0 1-.172.006h-.052a19.478 19.478 0 0 1-.108 0l-.166.002H7.88c-.114 0-.114 0-.16-.03-.036-.054-.032-.096-.031-.161v-.247l.002-.225.002-.27.002-.41H6.56l.002.282v.176a59.801 59.801 0 0 0 .004.507v.207l.001.07-.007.054c-.078.051-.144.045-.234.045h-.481c-.118-.001-.118-.001-.162-.045-.005-.058-.005-.058-.005-.133V12.964l-.001-.1V11.838l-.001-.55a177.93 177.93 0 0 1 0-.47v-.282a45.714 45.714 0 0 1 0-.264v-.305l.007-.058c.077-.05.14-.046.23-.046"/><path fill="#075394" d="M9.544 9.86h.887a72.433 72.433 0 0 0 .73 0h.538c.054.01.071.025.103.068.006.051.009.097.008.148V10.48c0 .094 0 .094-.03.139-.058.04-.109.033-.18.033h-.043a15.91 15.91 0 0 1-.143-.001h-.1l-.26-.002-.265-.001a154.844 154.844 0 0 1-.522-.003v.558l.256-.001h.202l.213-.002h.244l.078-.001h.134c.05.004.05.004.09.044.003.051.005.1.005.15v.421c-.001.102-.001.102-.046.147-.05.005-.05.005-.112.004H11.103l-.208-.002h-.212l-.416-.002v.598h.139l.453-.001h.274l.265-.001h.286c.096 0 .096 0 .118.022.002.051.004.102.004.153v.389l.001.045c0 .106 0 .106-.045.15-.04.005-.04.005-.093.005H9.472c-.042-.005-.042-.005-.082-.044-.005-.058-.005-.058-.005-.132v-.278l-.001-.269v-1.298l-.001-.468v-.845c.007-.06.007-.06.031-.098.046-.028.076-.03.13-.03m3.25 0h.16l.166.001h.155c.118.003.118.003.162.047.005.047.005.047.005.106V10.235l-.001.213v.222a212.413 212.413 0 0 1-.002.902l-.002.988h.056l.519-.002.267-.001.257-.001H14.772l.08-.001c.06.005.06.005.1.045.004.05.006.1.005.15v.421c0 .102 0 .102-.045.146-.04.005-.04.005-.091.006H13.933l-.373.001h-.724l-.064.001h-.109c-.043-.008-.043-.008-.079-.03-.036-.056-.032-.103-.032-.17v-.04a14.075 14.075 0 0 1 0-.137v-2.735a12.201 12.201 0 0 1 0-.13v-.074c.02-.153.107-.152.242-.15"/><path fill="#0963e9" d="M18.6 17.205h1.177c.02.078.023.148.022.228V17.833c0 .074-.008.136-.022.21H18.6z"/><path fill="#0b63e5" d="m19.195 15.923.051-.002c.071.011.1.037.152.088.03.044.056.086.08.132l.022.038c.087.16.143.32.192.495l.013.048.013.045.01.04a.418.418 0 0 1 .009.119H18.66c.058-.347.138-.722.399-.977.048-.024.082-.025.136-.026"/><path fill="#0963e9" d="M18.68 18.341h1.037c0 .351-.163.682-.365.961-.07.047-.12.053-.204.048-.094-.022-.137-.071-.189-.151-.06-.11-.11-.225-.16-.34l-.032-.072a1.25 1.25 0 0 1-.06-.198l-.016-.065c-.01-.063-.01-.063-.01-.183"/><path fill="#0960e2" d="M17.581 17.203H17.913l.408.002v.837h-.817c-.061-.274-.095-.54-.02-.817.02-.02.02-.02.097-.022"/><path fill="#0763ed" d="M20.056 17.205h.837c.064.127.044.31.044.45V17.825c-.004.058-.004.058-.044.217h-.837z"/><path fill="#0b66eb" d="M19.737 16.009c.425.105.76.404.991.767.026.05.026.05.046.15h-.758l-.05-.226a2.99 2.99 0 0 0-.198-.582c-.031-.07-.031-.07-.031-.11"/><path fill="#0b62e5" d="m18.68 16.029-.027.049a2.1 2.1 0 0 0-.167.4l-.011.038c-.038.135-.064.272-.094.41h-.757c.056-.283.327-.538.558-.698.39-.247.39-.247.498-.2"/><path fill="#0b62e4" d="M17.624 18.341h.757l.06.3c.018.062.036.123.057.185l.016.046c.035.101.077.196.13.29.016.037.016.037-.004.096a1.747 1.747 0 0 1-1-.841c-.016-.036-.016-.036-.016-.076"/><path fill="#0b66ef" d="M20.016 18.341h.758a.848.848 0 0 1-.129.253l-.026.037a1.7 1.7 0 0 1-.902.627 3.509 3.509 0 0 1 .07-.166c.108-.244.168-.491.229-.75"/></svg>