<svg viewBox="0 0 33 33" fill="currentColor" xmlns="http://www.w3.org/2000/svg">
<path d="M22.9167 22.9166V32.0833H32.0833V22.9166H22.9167ZM30.7633 30.722H24.2321V24.2916H30.7679V30.722H30.7633ZM28.7971 26.9087H30.1079V30.062H28.7971V26.9087ZM28.7971 24.9379H30.1079V26.2487H28.7971V24.9379ZM24.8875 24.9379V30.062H28.1417V28.7466H26.2029V26.2533H28.1417V24.9379H24.8875Z" fill="black"/>
<path d="M14.9466 5.38906C14.9564 5.79459 14.9149 6.19566 14.8086 6.58796C14.7799 6.69399 14.806 6.71136 14.9089 6.72271C16.2525 6.87087 17.5015 7.28264 18.6434 7.98134C18.7777 8.06351 18.8039 8.01801 18.853 7.90174C19.1843 7.1174 19.6784 6.44206 20.3538 5.89487C20.5803 5.71135 20.8235 5.54892 21.1248 5.49604C21.4282 5.44279 21.6195 5.58418 21.6504 5.88143C21.6806 6.17105 21.6126 6.4463 21.5059 6.71283C21.1841 7.51607 20.6875 8.2042 20.0082 8.76638C19.9055 8.85135 19.8875 8.89239 19.9973 8.99054C20.5381 9.47407 20.9994 10.0221 21.3981 10.6198C21.4616 10.7152 21.4638 10.7634 21.3543 10.8242C21.0363 11.0008 20.7224 11.1845 20.412 11.3733C20.3094 11.4357 20.2566 11.4358 20.1862 11.3273C19.7301 10.6246 19.1566 10.0216 18.4733 9.51692C17.3656 8.69877 16.1202 8.19417 14.726 8.07471C11.9845 7.8398 9.75513 8.77426 8.0331 10.8326C8.00023 10.8719 7.96836 10.912 7.93791 10.9531C7.69516 11.2803 7.69533 11.2803 7.35089 11.0666C7.11937 10.9229 6.89011 10.7758 6.65509 10.6376C6.55328 10.5777 6.52007 10.5342 6.59999 10.4221C7.00251 9.85731 7.46055 9.3394 7.98964 8.88165C8.09794 8.78795 8.10975 8.74629 7.9968 8.64111C7.30199 7.99411 6.76968 7.24828 6.53223 6.33209C6.48884 6.16468 6.48247 5.9941 6.50988 5.82493C6.54929 5.58175 6.73611 5.45337 6.98933 5.48927C7.30755 5.53437 7.56164 5.7039 7.79911 5.89501C8.4343 6.40621 8.90633 7.03699 9.23842 7.76299C9.3003 7.89826 9.34509 7.90799 9.47342 7.83535C10.6098 7.19215 11.8355 6.8112 13.1519 6.7113C13.325 6.69816 13.3454 6.64328 13.3127 6.48825C13.134 5.64201 13.1382 4.7987 13.4021 3.96574C13.4656 3.76561 13.5533 3.5756 13.6897 3.41058C13.9314 3.11818 14.2162 3.11871 14.4565 3.41715C14.6961 3.71472 14.7897 4.06964 14.8639 4.42978C14.9291 4.74632 14.9531 5.06667 14.9466 5.38906Z" fill="#27799F"/>
<path d="M13.1916 24.7432C13.207 24.4224 13.2015 24.0996 13.2793 23.784C13.3081 23.6674 13.3117 23.599 13.1377 23.5844C11.7965 23.4718 10.546 23.08 9.39159 22.4143C9.27131 22.3449 9.23817 22.371 9.18412 22.4797C8.84895 23.1535 8.40027 23.7471 7.80032 24.2277C7.57262 24.4101 7.33036 24.5737 7.02918 24.6271C6.72536 24.6809 6.53365 24.54 6.50232 24.2431C6.47174 23.9534 6.54142 23.6786 6.64603 23.4112C6.91808 22.7159 7.33688 22.1091 7.88463 21.5885C8.01653 21.4632 7.99566 21.408 7.87314 21.3023C7.46133 20.947 7.10789 20.5407 6.77837 20.1139C6.70415 20.0177 6.69616 19.9674 6.8093 19.8959C7.11087 19.7053 7.40792 19.5076 7.69915 19.3027C7.80817 19.226 7.8628 19.232 7.94425 19.3403C8.59698 20.208 9.4148 20.8998 10.397 21.4053C11.8747 22.1657 13.4459 22.433 15.1028 22.1729C17.1099 21.8579 18.7143 20.9004 19.9253 19.3341C20.0014 19.2358 20.054 19.206 20.1701 19.2885C20.4603 19.4947 20.7584 19.6909 21.0597 19.8819C21.1653 19.9489 21.1814 19.9921 21.1007 20.0968C20.7912 20.4984 20.4597 20.8812 20.0804 21.223C19.9844 21.3095 20.0037 21.3452 20.0897 21.4229C20.8204 22.0833 21.3759 22.8502 21.6224 23.7994C21.6642 23.9603 21.6688 24.1249 21.6443 24.2881C21.6064 24.5419 21.419 24.6717 21.1545 24.6325C20.8436 24.5865 20.5945 24.4211 20.3616 24.2348C19.7138 23.7166 19.2385 23.0727 18.9005 22.3351C18.8465 22.2172 18.8104 22.2077 18.7006 22.2759C17.5577 22.986 16.308 23.414 14.9557 23.5607C14.8272 23.5746 14.8345 23.6171 14.8529 23.716C14.9965 24.4886 14.9959 25.2591 14.7843 26.022C14.713 26.2789 14.6159 26.5269 14.4336 26.7339C14.201 26.998 13.9305 26.9996 13.7049 26.7281C13.4162 26.3807 13.3282 25.9589 13.2497 25.5352C13.2011 25.273 13.2083 25.0073 13.1916 24.7432Z" fill="#27799F"/>
<path d="M20.9319 14.39C21.1716 15.6565 21.174 16.9143 21.1671 18.1733C21.1662 18.3444 21.1184 18.3839 20.9481 18.3784C20.5609 18.3657 20.1729 18.3694 19.7854 18.3772C19.6615 18.3797 19.6329 18.343 19.6331 18.2282C19.6367 16.2597 19.6368 14.2911 19.6329 12.3226C19.6327 12.1993 19.6669 12.1626 19.7967 12.1644C20.2893 12.1715 20.7823 12.174 21.2748 12.1632C21.4228 12.16 21.4782 12.2143 21.5237 12.3377C21.9353 13.4529 22.4067 14.5483 22.7216 15.6954C22.7312 15.7303 22.75 15.763 22.7708 15.8114C22.8578 15.7014 22.8704 15.5796 22.9026 15.4684C23.2156 14.3876 23.6425 13.3438 24.0171 12.2831C24.0506 12.1882 24.1043 12.1642 24.2035 12.1651C24.7093 12.1698 25.2153 12.1715 25.7211 12.1644C25.8493 12.1625 25.8711 12.2076 25.871 12.3173C25.8681 14.2858 25.8682 16.2544 25.8708 18.2229C25.8709 18.3294 25.8557 18.3802 25.724 18.3775C25.3103 18.369 24.8961 18.3693 24.4824 18.3774C24.3519 18.3799 24.3339 18.3304 24.3334 18.2224C24.3284 17.0428 24.3133 15.863 24.5142 14.6931C24.527 14.6189 24.5246 14.5422 24.527 14.4667C24.5275 14.4514 24.5178 14.4358 24.4999 14.3804C24.435 14.5666 24.3817 14.7182 24.3294 14.8701C23.9978 15.8328 23.6103 16.776 23.2532 17.7298C23.2101 17.8448 23.1483 17.8838 23.0236 17.8778C22.8205 17.8681 22.6163 17.8704 22.4128 17.8773C22.3183 17.8805 22.2722 17.8475 22.2407 17.7642C21.8336 16.6874 21.386 15.6244 21.052 14.5228C21.0385 14.4781 21.0358 14.4221 20.9319 14.39Z" fill="#27799F"/>
<path d="M7.49036 15.2715C7.49036 16.2429 7.48775 17.2143 7.49329 18.1856C7.49408 18.3243 7.4717 18.3833 7.30515 18.3786C6.8589 18.3661 6.41191 18.3693 5.96543 18.3774C5.82967 18.3799 5.78761 18.3477 5.78903 18.2121C5.79635 17.512 5.78869 16.8117 5.79553 16.1116C5.79692 15.9693 5.76726 15.9147 5.60337 15.9183C5.09131 15.9292 4.57865 15.9295 4.0666 15.9182C3.89464 15.9144 3.8642 15.972 3.86593 16.1221C3.87393 16.8159 3.86454 17.5099 3.87342 18.2036C3.87529 18.3503 3.82879 18.3804 3.68596 18.3776C3.23294 18.3688 2.77957 18.371 2.32644 18.3767C2.21113 18.3781 2.16861 18.3554 2.16887 18.2329C2.17309 16.2586 2.17303 14.2843 2.16899 12.3099C2.16874 12.1886 2.20976 12.1635 2.32639 12.165C2.77951 12.1709 3.23289 12.1731 3.6859 12.1641C3.83016 12.1612 3.87528 12.1939 3.87328 12.3393C3.86444 12.9826 3.87425 13.6261 3.8659 14.2694C3.86395 14.4197 3.89494 14.4767 4.06657 14.4729C4.57862 14.4616 5.09128 14.4618 5.60334 14.4729C5.76721 14.4765 5.7971 14.4224 5.79554 14.28C5.78843 13.6304 5.79641 12.9806 5.78918 12.331C5.78768 12.1967 5.82866 12.1618 5.96541 12.1643C6.41189 12.1725 6.85888 12.1757 7.30514 12.1631C7.47264 12.1584 7.49396 12.2193 7.4932 12.3573C7.48785 13.3287 7.49036 14.3001 7.49036 15.2715Z" fill="#27799F"/>
<path d="M8.87357 15.2794C8.87356 14.3015 8.87621 13.3236 8.87049 12.3457C8.8697 12.2114 8.89428 12.1627 9.05 12.1635C10.3113 12.1703 11.5727 12.1694 12.8341 12.1644C12.9751 12.1638 13.0292 12.1896 13.0239 12.3382C13.0117 12.6848 13.0141 13.0322 13.0231 13.379C13.0264 13.5069 12.9804 13.5356 12.8555 13.5347C12.1591 13.5296 11.4627 13.5363 10.7664 13.5291C10.6165 13.5275 10.5639 13.5577 10.5675 13.7141C10.5753 14.0496 10.5776 13.984 10.5681 14.3194C10.564 14.4653 10.6006 14.5134 10.7613 14.5106C11.3327 14.5006 11.9045 14.5128 12.4759 14.5027C12.6373 14.4999 12.6718 14.5506 12.6677 14.6941C12.6577 15.0471 12.659 15.4007 12.6674 15.7539C12.6703 15.879 12.6303 15.9139 12.5015 15.9126C11.9235 15.9065 11.3453 15.9142 10.7672 15.9069C10.6205 15.9051 10.5643 15.9315 10.5672 16.0898C10.5718 16.3453 10.5636 16.599 10.5679 16.8466C10.5703 16.9832 10.6104 17.0136 10.7453 17.0125C11.4745 17.0064 12.2038 17.0138 12.9329 17.0063C13.0852 17.0047 13.1355 17.0398 13.1298 17.1923C13.1172 17.5326 13.1215 17.8737 13.1283 18.2142C13.1306 18.3309 13.1062 18.3778 12.9692 18.3773C11.6553 18.3722 10.3413 18.372 9.02741 18.3775C8.88685 18.3781 8.871 18.3263 8.87143 18.2132C8.87514 17.2353 8.87357 16.2573 8.87357 15.2794Z" fill="#27799F"/>
<path d="M14.3926 15.2659C14.3926 14.2943 14.3961 13.3227 14.389 12.3511C14.388 12.2032 14.4268 12.1598 14.5832 12.1636C15.0231 12.1743 15.4637 12.1753 15.9035 12.1632C16.0675 12.1587 16.0937 12.2145 16.0932 12.3552C16.0884 13.8378 16.0928 15.3204 16.0866 16.803C16.0859 16.962 16.1146 17.0179 16.2978 17.0146C16.9808 17.0022 17.6642 17.0144 18.3473 17.006C18.4995 17.0041 18.5339 17.0486 18.5298 17.1867C18.5196 17.5335 18.5215 17.8807 18.5292 18.2276C18.5318 18.3437 18.4977 18.3772 18.3755 18.3768C17.101 18.3727 15.8265 18.3724 14.552 18.3771C14.4208 18.3776 14.3893 18.34 14.3899 18.2185C14.3948 17.2343 14.3927 16.2501 14.3926 15.2659Z" fill="#27799F"/>
</svg>