<svg width="17" height="25" fill="none" xmlns="http://www.w3.org/2000/svg"><path d="M.488 8.325a3.694 3.694 0 015.225 0 3.694 3.694 0 015.224 0 3.694 3.694 0 015.225 0 7.837 7.837 0 10-15.674 0z" fill="#ADEEFA"/><path d="M8.325.488c-1.443 0-2.613 3.508-2.613 7.836v.001a3.694 3.694 0 015.227-.001c0-4.328-1.17-7.836-2.614-7.836z" fill="#FF7D97"/><path d="M4.81 13.574h7.03c1.08 0 1.954.875 1.954 1.953v7.032a1.953 1.953 0 01-1.953 1.953H4.81a1.953 1.953 0 01-1.954-1.953v-7.032c0-1.078.875-1.953 1.954-1.953z" fill="#FFEC80"/><path d="M6.373 17.385v-3.81h3.906v3.81l-1.953-1.4-1.953 1.4z" fill="#fff"/><path d="M16.65 8.325C16.65 3.735 12.916 0 8.325 0 3.735 0 0 3.735 0 8.325c0 .153.071.293.187.384l5.584 4.377H4.81a2.444 2.444 0 00-2.442 2.441v1.319a.488.488 0 00.977 0v-1.319c0-.807.657-1.464 1.465-1.464h1.074v3.322a.488.488 0 00.773.397l1.669-1.196 1.669 1.196a.488.488 0 00.772-.397v-3.323h1.074c.808 0 1.465.658 1.465 1.465v7.032c0 .807-.657 1.464-1.465 1.464H4.81a1.466 1.466 0 01-1.465-1.464V21.24a.488.488 0 00-.977 0v1.319A2.444 2.444 0 004.81 25h7.03a2.444 2.444 0 002.442-2.441v-7.032a2.444 2.444 0 00-2.441-2.441h-.962l5.584-4.377a.488.488 0 00.187-.384zm-1.048-1.033a4.199 4.199 0 00-4.195.054c-.072-1.776-.339-3.423-.77-4.717-.206-.617-.429-1.095-.657-1.464a7.368 7.368 0 015.621 6.127zM8.325.977c.337 0 .902.513 1.385 1.961.399 1.195.647 2.725.72 4.385a4.184 4.184 0 00-4.209 0c.072-1.66.32-3.19.72-4.385C7.422 1.49 7.987.977 8.324.977zm2.025 7.475l-2.024 4.613L6.3 8.451a3.212 3.212 0 014.05 0zm-5.045.159l1.918 4.372-5.96-4.671a3.21 3.21 0 014.042.299zm6.043-.002a3.21 3.21 0 014.04-.297l-5.959 4.67 1.919-4.373zM6.67 1.165c-.228.369-.45.847-.656 1.464-.432 1.294-.699 2.941-.771 4.717a4.199 4.199 0 00-4.194-.054A7.368 7.368 0 016.67 1.165zm3.12 15.27l-1.18-.847a.488.488 0 00-.569 0l-1.18.846v-2.372h2.93v2.372z" fill="#6B6D85"/><path d="M11.646 22.64a.488.488 0 100-.976h-1.514a.488.488 0 000 .976h1.514zm-8.79-3.109a.492.492 0 00.489-.488.492.492 0 00-.489-.488.492.492 0 00-.488.488.492.492 0 00.488.488z" fill="#6B6D85"/></svg>