<svg xmlns="http://www.w3.org/2000/svg" fill="none" viewBox="0 0 17 17"><g fill="currentColor" fill-rule="evenodd" clip-path="url(#a)" clip-rule="evenodd"><path d="M12.876 5.877 8.333 3.255 3.791 5.877v5.246l4.542 2.622 4.543-2.622V5.877ZM8.833 2.39a1 1 0 0 0-1 0L3.291 5.01a1 1 0 0 0-.5.866v5.246a1 1 0 0 0 .5.866l4.542 2.622a1 1 0 0 0 1 0l4.543-2.622a1 1 0 0 0 .5-.866V5.877a1 1 0 0 0-.5-.866L8.833 2.39Z"/><path d="M10.566 7.21 8.333 5.922 6.1 7.211v2.578l2.233 1.29 2.233-1.29V7.211ZM8.833 5.056a1 1 0 0 0-1 0L5.6 6.345a1 1 0 0 0-.5.866v2.578a1 1 0 0 0 .5.866l2.233 1.29a1 1 0 0 0 1 0l2.233-1.29a1 1 0 0 0 .5-.866V7.211a1 1 0 0 0-.5-.866l-2.233-1.29Z"/></g><defs><clipPath id="a"><path fill="#fff" d="M.333.5h16v16h-16z"/></clipPath></defs></svg>