<svg xmlns="http://www.w3.org/2000/svg" fill="none" viewBox="0 0 26 22"><path fill="currentColor" d="m8.919 18-.468.468L7.983 18h.938m4.33-12a3.2 3.2 0 0 0-2.368 1.052A6.5 6.5 0 0 0 9.079 6.8H7.823c-.614 0-1.218.084-1.804.252A3.2 3.2 0 0 0 3.651 6a3.204 3.204 0 0 0-3.2 3.2 3.2 3.2 0 0 0 1.053 2.368 6.5 6.5 0 0 0-.252 1.804c0 1.044.186 2.068.552 3.046l1.12 2.986A4 4 0 0 0 6.67 22h.182c.614 0 1.175-.232 1.6-.612.424.38.986.612 1.6.612h.181a4 4 0 0 0 3.746-2.596l1.12-2.986a8.7 8.7 0 0 0 .553-3.046q0-.923-.253-1.804A3.2 3.2 0 0 0 16.452 9.2c0-1.764-1.436-3.2-3.2-3.2zm-2.074 1.996a2.4 2.4 0 0 1 2.498-1.16 2.395 2.395 0 0 1 1.94 1.94 2.4 2.4 0 0 1-1.158 2.497c.254.65.396 1.358.396 2.098 0 .944-.17 1.88-.502 2.766l-1.12 2.986a3.2 3.2 0 0 1-2.996 2.075h-.182c-.479 0-.907-.211-1.2-.543v-1.457l1.034-1.034a.57.57 0 0 0 .112-.642.58.58 0 0 0-.535-.324H7.44c-.224 0-.44.12-.534.324a.57.57 0 0 0 .112.642l1.034 1.034v1.457a1.6 1.6 0 0 1-1.2.543H6.67a3.2 3.2 0 0 1-2.996-2.075l-1.12-2.986a7.9 7.9 0 0 1-.502-2.766c0-.74.142-1.448.396-2.098a2.399 2.399 0 1 1 3.28-3.277A5.8 5.8 0 0 1 7.825 7.6h1.257c.74 0 1.447.142 2.097.396z"/><path stroke="currentColor" stroke-linecap="round" stroke-width=".75" d="M4.452 14.8c.533.533 1.6 1.2 2.8 0M10.052 14.8c.533.533 1.6 1.2 2.8 0"/><path fill="currentColor" d="m17.176 9.36 3.552-4.432h-3.28v-.64h4.176v.64L18.08 9.36h3.64V10h-4.544zM22.33.716h3.258v.57l-2.496 3.066h2.556V5h-3.51v-.612l2.496-3.024H22.33z"/></svg>