<svg viewBox="0 0 9 12" xmlns="http://www.w3.org/2000/svg"><path clip-rule="evenodd" d="m8.18875 1.30777c-.17304 2.32799-1.26719 3.11518-2.01119 3.6499-.47903.34416-.72911.54072-.72911.90911 0 .3684.24912.5652.72911.90936.77232.55487 1.91999 1.38095 2.02655 3.91706h.09024c.32017-.0019.58141.2558.58392.576v.1548c-.00251.3201-.26375.5778-.58392.5759h-7.709233c-.153975.0013-.302125-.0587-.411857-.1668-.1097314-.108-.17205536-.2552-.17326-.4091v-.1548c.00095106-.1542.0631634-.3016.172923-.4099.109759-.1082.258054-.1683.412194-.1671h.244318c.106559-2.53511 1.254235-3.36143 2.026545-3.91606.47808-.34416.72696-.54168.72696-.91008 0-.36839-.24912-.56519-.72912-.90935-.74471-.53496-1.83815-1.32191-2.011185-3.6499h-.258718c-.32017.00186-.58140761-.25583-.583917-.575996v-.154799c.00120464-.153975.0635286-.301164.17326-.409186.109732-.1080209.257882-.16802507.411857-.16681093h7.709233c.32017-.00186285.58141.25583193.58392.57599693v.155759c-.00251.320166-.26375.577856-.58392.575996zm-.52248 9.38443c-.09672-2.25743-1.03919-2.93591-1.80502-3.48598v-.00024c-.48912-.35112-.95088-.6828-.95088-1.3392 0-.65626.46181-.98794.95058-1.33897l.0003-.00022.00145-.00105c.73341-.52756 1.6316-1.17366 1.78821-3.21901h-6.26924c.15768 2.04647 1.0548 2.69206 1.78967 3.22006l.00059.00043c.4889.3512.95029.68263.95029 1.33876 0 .65627-.46181.98794-.95058 1.33898l-.0003.00022c-.76583.55007-1.70903 1.22855-1.80503 3.48622zm-.83111-7.58516-.00012-.00005.00012-.00019zm-.00012-.00005c-.75413-.27886-1.55241-.41926-2.35643-.41443-.7818-.00449-1.55836.12774-2.29462.39072.29288.48324.69428.89162 1.17239 1.19279.5064.36384 1.07999.77616 1.07999 1.59071v.01776h.15888v-.01776c0-.81453.5737-1.22684 1.0795-1.59035l.0005-.00036c.47032-.2966.86695-.6964 1.15979-1.16908zm-5.14305 7.39511c.006-.0821.01344-.1617.02184-.24.56746-1.04749 1.67823-1.68428 2.8689-1.64468 1.19068.03959 2.25669.74877 2.75331 1.83168.00058.0086.00134.0171.00209.0256.0008.009.00161.0181.00223.0274z" fill="#77788d" fill-rule="evenodd"/></svg>