<svg xmlns="http://www.w3.org/2000/svg" fill="none" viewBox="0 0 40 40"><defs><linearGradient id="a" x1="11.588" x2="37.051" y1="4.558" y2="30.155" gradientUnits="userSpaceOnUse"><stop stop-color="#5992FF"/><stop offset="1" stop-color="#004FE6"/></linearGradient><mask id="b" maskUnits="userSpaceOnUse"><path fill="#fff" d="M0 0h40v40H0z"/><g stroke="#000" stroke-linecap="round" stroke-linejoin="round" stroke-width="1.2"><path d="m20 10.5 7.4 4.25v8.5L20 27.5l-7.4-4.25v-8.5ZM20 27.5V19M27.4 14.75 20 19M12.6 14.75 20 19"/></g></mask></defs><path fill="url(#a)" d="M19.428 1.832a1.24 1.24 0 0 1 1.271.019C25.244 4.605 30.975 6.57 34.143 7.1c.61.101 1.1.603 1.123 1.22.193 5.3-.423 9.796-1.535 13.57l-.384 1.145-.87 2.356c-3.207 7.565-8.448 11.516-11.95 12.87-.294.114-.624.091-.906-.048C6.221 31.601 4.136 16.16 4.811 8.267c.051-.601.555-1.044 1.155-1.103 5.19-.51 10.72-3.723 13.462-5.332" mask="url(#b)"/></svg>