<svg xmlns="http://www.w3.org/2000/svg" width="20" height="20" fill="none" xmlns:v="https://vecta.io/nano"><circle cx="10" cy="10" r="9" stroke="#6b6d85" stroke-width=".75"/><path fill-rule="evenodd" d="M9.97 4.994a5 5 0 0 0-5 5c0 1.126.372 2.164 1 3v-1.249a.5.5 0 1 1 1 0v2.494a.5.5 0 0 1-.5.506h-2.5a.5.5 0 1 1 0-1h1.317c-.823-1.027-1.317-2.331-1.317-3.751a6 6 0 0 1 6-6 .5.5 0 1 1 0 1zm3.444 2.778V6.369c.959.911 1.556 2.199 1.556 3.625a5 5 0 0 1-5 5 .5.5 0 1 0 0 1 6 6 0 0 0 6-6 5.98 5.98 0 0 0-1.736-4.221h1.18a.5.5 0 1 0 0-1h-2.494-.006a.5.5 0 0 0-.5.5h0v2.5a.5.5 0 1 0 1 0z" fill="#6b6d85"/></svg>