<svg fill="none" viewBox="0 0 148 164" xmlns="http://www.w3.org/2000/svg" xmlns:xlink="http://www.w3.org/1999/xlink"><linearGradient id="a" gradientUnits="userSpaceOnUse" x1="13.7722" x2="139.832" y1="13.1245" y2="128.088"><stop offset="0" stop-color="#ff6fab"/><stop offset="1" stop-color="#ce0056"/></linearGradient><path clip-rule="evenodd" d="m84 2.77349c-6.188-3.572659-13.812-3.572661-20-.00001l-53.6122 30.95302c-6.188 3.5726-9.999983 10.1752-9.999983 17.3205v61.906c0 7.145 3.811973 13.748 9.999983 17.32l53.6122 30.953c6.188 3.573 13.812 3.573 20 0l53.612-30.953c6.188-3.572 10-10.175 10-17.32v-11.742l.004-.002v-20.8003l-.004.0019v-12.61l.001-.0006v-18.6101-1.3546c0-.2309-.15-.4107-.343-.4751-1.064-5.6758-4.552-10.686-9.658-13.6337zm63.27 44.58671c-.123-.041-.263-.0351-.393.0344l-23.574 12.6357-50.3021-28.7441c-.31-.1771-.6909-.1755-.9995.0042l-50.5048 29.4203c-.3075.1791-.4966.5082-.4966.864v17.6854c0 .538.4067.9346.879.9939.0858.0673.1778.1281.2755.1814l49.509 27.0456c.5926.324 1.3085.327 1.9037.008l74.0448-39.6884v-16.7536c0-1.25-.117-2.4833-.342-3.6868zm.342 33.0504-75.4963 40.9984-51.5-28.1337v20.7997l51.5 28.134 75.4963-40.998zm-74.6111-29.1244 32.2421 18.4242-31.6758 16.9783c-.5952.319-1.3111.3161-1.9037-.0076l-31.1781-17.0319 31.516-18.3588c.3086-.1797.6895-.1813.9995-.0042z" fill="url(#a)" fill-rule="evenodd"/></svg>