<svg fill="none" viewBox="0 0 191 56" xmlns="http://www.w3.org/2000/svg" xmlns:xlink="http://www.w3.org/1999/xlink"><linearGradient id="a" gradientUnits="userSpaceOnUse" x1="21.5386" x2="41.1205" y1="12.8446" y2="38.04"><stop offset="0" stop-color="#62f91f"/><stop offset="1" stop-color="#45bd35"/></linearGradient><path clip-rule="evenodd" d="m15.0389 18.7869.3249 19.7915c.0152.8278.5762 1.5336 1.4062 1.7694l21.4674 5.0689c1.3741.3903 2.8112-.6433 2.8011-2.0145l-.2283-31.0292c-.0097-1.3245-1.3709-2.2036-2.7167-1.7544l-21.564 6.1687c-.8985.2998-1.5068 1.1158-1.4906 1.9996zm4.466 7.1149c0-.4541.3648-.8223.8148-.8223h1.8803v-3.1434c0-.8386.5582-1.5723 1.3603-1.7882l6.1295-1.6495v-1.5902c0-.4541.3648-.8223.8148-.8223h5.0925c.45 0 .8148.3682.8148.8223v5.1392c0 .4541-.3648.8223-.8148.8223h-5.0925c-.45 0-.8148-.3682-.8148-.8223v-1.6339l-5.658 1.5226v3.1434h1.3804c.45 0 .8148.3682.8148.8223v5.1392c0 .4541-.3648.8223-.8148.8223h-1.3804v3.0405l5.658 1.5226v-1.531c0-.4541.3648-.8223.8148-.8223h5.0925c.45 0 .8148.3682.8148.8223v5.1392c0 .4541-.3648.8223-.8148.8223h-5.0925c-.45 0-.8148-.3682-.8148-.8223v-1.6931l-6.1295-1.6495c-.8021-.2159-1.3603-.9496-1.3603-1.7882v-3.0405h-1.8803c-.45 0-.8148-.3682-.8148-.8223zm1.6296.8223v3.4946h3.4629v-3.4946zm10.1849-5.499v-3.4946h3.4629v3.4946zm-1.6296 4.6767c0-.4541.3648-.8223.8148-.8223h5.0925c.45 0 .8148.3682.8148.8223v5.1392c0 .4541-.3648.8223-.8148.8223h-5.0925c-.45 0-.8148-.3682-.8148-.8223zm1.6296.8223v3.4946h3.4629v-3.4946zm0 12.4882v-3.4946h3.4629v3.4946z" fill="url(#a)" fill-rule="evenodd"/><g fill="#000"><path d="m53.8486 15.8182v10.1818h-1.8445v-10.1818z"/><path d="m57.5661 21.5256v4.4744h-1.7997v-7.6363h1.7202v1.2976h.0894c.1757-.4276.4558-.7673.8402-1.0192.3878-.2519.8668-.3779 1.4368-.3779.527 0 .9861.1127 1.3772.3381.3944.2254.6993.5519.9147.9794.2188.4276.3265.9463.3232 1.5561v4.8622h-1.7997v-4.5838c0-.5104-.1326-.9098-.3978-1.1981-.2618-.2884-.6247-.4326-1.0887-.4326-.3149 0-.595.0696-.8402.2089-.242.1358-.4326.333-.5718.5916-.1359.2585-.2038.5717-.2038.9396z"/><path d="m68.1655 18.3637v1.392h-4.5142v-1.392zm-3.3856 7.6363v-8.3572c0-.5137.106-.9413.3182-1.2827.2154-.3414.5037-.5966.865-.7656s.7623-.2536 1.2031-.2536c.3116 0 .5883.0249.8303.0746.2419.0497.4209.0945.5369.1342l-.3579 1.3921c-.0763-.0232-.1724-.0464-.2884-.0696-.116-.0265-.2452-.0398-.3878-.0398-.3347 0-.5717.0812-.7109.2436-.1359.1591-.2038.3878-.2038.6861v8.2379z"/><path d="m69.575 26v-7.6363h1.745v1.2727h.0795c.1393-.4408.3779-.7805.716-1.0192.3413-.2419.7308-.3629 1.1683-.3629.0994 0 .2104.005.3331.0149.1259.0066.2303.0182.3132.0348v1.6556c-.0762-.0266-.1972-.0498-.3629-.0697-.1624-.0232-.3199-.0348-.4723-.0348-.3282 0-.6231.0713-.885.2138-.2585.1392-.4623.3331-.6115.5817-.1491.2486-.2237.5353-.2237.8601v4.4893z"/><path d="m77.1865 26.1542c-.4839 0-.9198-.0862-1.3075-.2586-.3845-.1756-.6894-.4342-.9148-.7755-.2221-.3414-.3331-.7623-.3331-1.2628 0-.4309.0795-.7872.2386-1.0689s.3762-.5071.6513-.6762c.2751-.169.585-.2966.9297-.3828.348-.0895.7076-.1541 1.0788-.1939.4475-.0464.8104-.0878 1.0888-.1242.2784-.0398.4806-.0995.6065-.179.1293-.0829.1939-.2105.1939-.3828v-.0299c0-.3745-.111-.6645-.3331-.87-.222-.2055-.5419-.3082-.9595-.3082-.4408 0-.7905.0961-1.049.2883-.2552.1923-.4276.4193-.517.6811l-1.6804-.2386c.1325-.464.3513-.8518.6562-1.1634.3049-.3148.6778-.5501 1.1186-.7059.4408-.1591.928-.2387 1.4617-.2387.3679 0 .7341.0431 1.0987.1293s.6977.2287.9993.4276c.3016.1955.5435.4623.7258.8004.1856.3381.2784.7606.2784 1.2677v5.1108h-1.7301v-1.049h-.0596c-.1094.2122-.2635.411-.4624.5966-.1955.1823-.4425.3298-.7408.4425-.2949.1094-.6413.1641-1.039.1641zm.4673-1.3225c.3613 0 .6745-.0712.9396-.2138.2652-.1458.469-.338.6115-.5767.1459-.2386.2188-.4988.2188-.7805v-.8999c-.0563.0464-.1525.0895-.2884.1293-.1325.0398-.2817.0746-.4474.1044s-.3298.0563-.4922.0795-.3033.0431-.4226.0597c-.2684.0365-.5087.0961-.7209.179-.2121.0828-.3795.1988-.5021.348-.1226.1458-.1839.3347-.1839.5667 0 .3315.1209.5817.3629.7508.2419.169.5502.2535.9247.2535z"/><path d="m89.0636 20.3821-1.6406.179c-.0464-.1657-.1276-.3215-.2436-.4673-.1127-.1458-.2652-.2635-.4574-.353s-.4276-.1342-.706-.1342c-.3745 0-.6894.0812-.9446.2436-.2519.1624-.3762.3728-.3728.6314-.0034.222.0778.4027.2436.5419.169.1392.4474.2535.8352.343l1.3025.2784c.7226.1558 1.2595.4027 1.6108.7408.3547.3381.5337.7805.537 1.3274-.0033.4806-.1442.9048-.4226 1.2727-.2751.3646-.6579.6496-1.1484.8551-.4906.2055-1.054.3083-1.6904.3083-.9347 0-1.687-.1956-2.2571-.5867-.5701-.3944-.9098-.9429-1.0192-1.6456l1.755-.169c.0795.3447.2486.6049.5071.7805.2585.1757.5949.2635 1.0092.2635.4276 0 .7706-.0878 1.0292-.2635.2618-.1756.3927-.3927.3927-.6512 0-.2188-.0845-.3994-.2535-.5419-.1658-.1426-.4243-.2519-.7756-.3282l-1.3026-.2734c-.7324-.1525-1.2743-.4093-1.6257-.7706-.3513-.3646-.5253-.8253-.522-1.3821-.0033-.4706.1243-.8783.3828-1.223.2619-.348.6248-.6165 1.0888-.8054.4673-.1922 1.0059-.2884 1.6158-.2884.8949 0 1.5992.1906 2.1129.5718.517.3811.8369.8965.9595 1.5461z"/><path d="m94.5249 18.3637v1.392h-4.3899v-1.392zm-3.3061-1.8296h1.7997v7.1691c0 .2419.0365.4275.1094.5568.0762.1259.1756.2121.2983.2585.1226.0464.2585.0696.4077.0696.1126 0 .2154-.0083.3082-.0249.0961-.0165.169-.0314.2187-.0447l.3033 1.407c-.0961.0331-.2337.0696-.4126.1093-.1757.0398-.3911.063-.6463.0696-.4508.0133-.8568-.0546-1.2181-.2038-.3612-.1525-.6479-.3878-.8601-.706-.2088-.3181-.3115-.7159-.3082-1.1931z"/><path d="m96.0301 26v-7.6363h1.745v1.2727h.0795c.1392-.4408.3779-.7805.7159-1.0192.3414-.2419.7309-.3629 1.1684-.3629.0994 0 .2104.005.3331.0149.126.0066.23.0182.313.0348v1.6556c-.076-.0266-.197-.0498-.363-.0697-.1622-.0232-.3196-.0348-.4721-.0348-.3281 0-.6231.0713-.8849.2138-.2585.1392-.4624.3331-.6115.5817-.1492.2486-.2237.5353-.2237.8601v4.4893z"/><path d="m106.448 22.7884v-4.4247h1.8v7.6363h-1.745v-1.3572h-.08c-.172.4275-.456.7772-.85 1.049-.391.2718-.873.4077-1.447.4077-.5 0-.943-.1111-1.327-.3331-.381-.2254-.68-.5519-.895-.9794-.215-.4309-.323-.9513-.323-1.5611v-4.8622h1.8v4.5838c0 .4839.132.8683.397 1.1534.265.285.613.4275 1.044.4275.265 0 .522-.0646.771-.1938.248-.1293.452-.3215.611-.5768.163-.2585.244-.5816.244-.9694z"/><path d="m113.429 26.1492c-.762 0-1.417-.1674-1.963-.5021-.544-.3348-.963-.7972-1.258-1.3871-.292-.5933-.438-1.2761-.438-2.0483 0-.7756.149-1.46.448-2.0533.298-.5966.719-1.0606 1.263-1.392.546-.3348 1.193-.5022 1.938-.5022.62 0 1.169.1144 1.646.3431.481.2254.863.5452 1.148.9595.286.411.448.8916.488 1.4418h-1.72c-.07-.3679-.236-.6745-.498-.9198-.258-.2486-.605-.3729-1.039-.3729-.368 0-.691.0995-.969.2983-.279.1956-.496.4773-.651.8452-.153.3679-.229.8087-.229 1.3225 0 .5203.076.9678.229 1.3423.152.3712.366.6579.641.8601.278.1988.605.2983.979.2983.265 0 .502-.0498.711-.1492.212-.1027.39-.2502.532-.4425.143-.1922.24-.4259.294-.701h1.72c-.043.5403-.202 1.0192-.478 1.4368-.275.4143-.649.7391-1.123.9745-.474.232-1.031.348-1.671.348z"/><path d="m121.992 18.3637v1.392h-4.39v-1.392zm-3.306-1.8296h1.799v7.1691c0 .2419.037.4275.11.5568.076.1259.175.2121.298.2585s.259.0696.408.0696c.112 0 .215-.0083.308-.0249.096-.0165.169-.0314.219-.0447l.303 1.407c-.096.0331-.234.0696-.413.1093-.175.0398-.391.063-.646.0696-.451.0133-.857-.0546-1.218-.2038-.361-.1525-.648-.3878-.86-.706-.209-.3181-.312-.7159-.308-1.1931z"/><path d="m128.364 22.7884v-4.4247h1.8v7.6363h-1.745v-1.3572h-.08c-.172.4275-.456.7772-.85 1.049-.391.2718-.873.4077-1.447.4077-.5 0-.943-.1111-1.327-.3331-.381-.2254-.68-.5519-.895-.9794-.215-.4309-.323-.9513-.323-1.5611v-4.8622h1.8v4.5838c0 .4839.132.8683.397 1.1534.265.285.613.4275 1.044.4275.265 0 .522-.0646.771-.1938.249-.1293.452-.3215.611-.5768.163-.2585.244-.5816.244-.9694z"/><path d="m132.014 26v-7.6363h1.745v1.2727h.08c.139-.4408.378-.7805.716-1.0192.341-.2419.731-.3629 1.168-.3629.1 0 .211.005.333.0149.126.0066.231.0182.314.0348v1.6556c-.077-.0266-.198-.0498-.363-.0697-.163-.0232-.32-.0348-.473-.0348-.328 0-.623.0713-.885.2138-.258.1392-.462.3331-.611.5817s-.224.5353-.224.8601v4.4893z"/><path d="m140.631 26.1492c-.765 0-1.426-.1591-1.983-.4773-.554-.3215-.98-.7756-1.278-1.3622-.298-.59-.447-1.2843-.447-2.0831 0-.7855.149-1.4749.447-2.0682.302-.5966.723-1.0606 1.263-1.392.54-.3348 1.175-.5022 1.904-.5022.471 0 .915.0763 1.332.2287.421.1492.793.3812 1.114.6961.325.3148.58.7159.766 1.2031.185.4839.278 1.0606.278 1.7301v.5518h-6.259v-1.213h4.534c-.003-.3447-.078-.6513-.224-.9198-.146-.2718-.349-.4855-.611-.6413-.259-.1558-.56-.2337-.905-.2337-.368 0-.691.0895-.97.2685-.278.1757-.495.4077-.651.696-.152.2851-.23.5983-.234.9396v1.059c0 .4441.082.8253.244 1.1435.162.3148.389.5568.681.7258.292.1657.633.2486 1.024.2486.262 0 .499-.0365.711-.1094.212-.0762.396-.1872.552-.3331.156-.1458.274-.3264.353-.5419l1.68.1889c-.106.4442-.308.832-.606 1.1634-.295.3281-.673.5833-1.134.7656-.46.179-.987.2685-1.581.2685z"/><path d="m151.22 26.1542c-.484 0-.92-.0862-1.308-.2586-.384-.1756-.689-.4342-.915-.7755-.222-.3414-.333-.7623-.333-1.2628 0-.4309.08-.7872.239-1.0689s.376-.5071.651-.6762c.275-.169.585-.2966.93-.3828.348-.0895.708-.1541 1.079-.1939.447-.0464.81-.0878 1.089-.1242.278-.0398.48-.0995.606-.179.129-.0829.194-.2105.194-.3828v-.0299c0-.3745-.111-.6645-.333-.87s-.542-.3082-.96-.3082c-.44 0-.79.0961-1.049.2883-.255.1923-.427.4193-.517.6811l-1.68-.2386c.132-.464.351-.8518.656-1.1634.305-.3148.678-.5501 1.119-.7059.441-.1591.928-.2387 1.461-.2387.368 0 .735.0431 1.099.1293.365.0862.698.2287.999.4276.302.1955.544.4623.726.8004.186.3381.279.7606.279 1.2677v5.1108h-1.73v-1.049h-.06c-.109.2122-.264.411-.462.5966-.196.1823-.443.3298-.741.4425-.295.1094-.642.1641-1.039.1641zm.467-1.3225c.361 0 .674-.0712.94-.2138.265-.1458.469-.338.611-.5767.146-.2386.219-.4988.219-.7805v-.8999c-.056.0464-.153.0895-.288.1293-.133.0398-.282.0746-.448.1044s-.33.0563-.492.0795-.303.0431-.423.0597c-.268.0365-.508.0961-.721.179-.212.0828-.379.1988-.502.348-.122.1458-.184.3347-.184.5667 0 .3315.121.5817.363.7508.242.169.55.2535.925.2535z"/><path d="m163.097 20.3821-1.641.179c-.046-.1657-.127-.3215-.243-.4673-.113-.1458-.266-.2635-.458-.353s-.427-.1342-.706-.1342c-.374 0-.689.0812-.944.2436-.252.1624-.377.3728-.373.6314-.004.222.078.4027.243.5419.169.1392.448.2535.836.343l1.302.2784c.723.1558 1.26.4027 1.611.7408.355.3381.534.7805.537 1.3274-.003.4806-.144.9048-.423 1.2727-.275.3646-.658.6496-1.148.8551-.491.2055-1.054.3083-1.69.3083-.935 0-1.688-.1956-2.258-.5867-.57-.3944-.909-.9429-1.019-1.6456l1.755-.169c.08.3447.249.6049.507.7805.259.1757.595.2635 1.01.2635.427 0 .77-.0878 1.029-.2635.262-.1756.392-.3927.392-.6512 0-.2188-.084-.3994-.253-.5419-.166-.1426-.424-.2519-.776-.3282l-1.302-.2734c-.733-.1525-1.275-.4093-1.626-.7706-.351-.3646-.525-.8253-.522-1.3821-.003-.4706.124-.8783.383-1.223.262-.348.625-.6165 1.089-.8054.467-.1922 1.006-.2884 1.615-.2884.895 0 1.6.1906 2.113.5718.517.3811.837.8965.96 1.5461z"/><path d="m60.7193 34.2536h-1.8593c-.0531-.3049-.1509-.5751-.2934-.8104-.1425-.2386-.3198-.4408-.5319-.6065-.2122-.1657-.4541-.29-.7259-.3729-.2685-.0862-.5585-.1292-.87-.1292-.5535 0-1.044.1392-1.4716.4176-.4276.2751-.7623.6794-1.0043 1.213-.2419.5303-.3629 1.1783-.3629 1.9439 0 .7789.121 1.4352.3629 1.9688.2453.5303.5801.9313 1.0043 1.2031.4276.2685.9164.4027 1.4666.4027.3049 0 .59-.0398.8551-.1193.2685-.0829.5088-.2039.7209-.3629.2154-.1591.3961-.3547.5419-.5867.1492-.232.2519-.4972.3083-.7954l1.8593.0099c-.0696.4839-.2204.938-.4524 1.3622-.2287.4243-.5286.7988-.8998 1.1236-.3713.3215-.8054.5734-1.3026.7557-.4972.179-1.049.2684-1.6555.2684-.8949 0-1.6937-.2071-2.3963-.6214-.7027-.4143-1.2562-1.0126-1.6606-1.7948-.4043-.7822-.6065-1.7201-.6065-2.8139 0-1.097.2038-2.035.6115-2.8139.4077-.7822.9628-1.3804 1.6655-1.7947.7026-.4143 1.4981-.6215 2.3864-.6215.5667 0 1.0937.0796 1.5809.2386.4872.1591.9214.3928 1.3026.701.3811.305.6943.6795.9396 1.1236.2486.4408.411.9446.4872 1.5114z"/><path d="m65.6598 41.1492c-.7457 0-1.392-.1641-1.9389-.4922s-.9711-.7872-1.2727-1.3771c-.2983-.59-.4474-1.2794-.4474-2.0682s.1491-1.4799.4474-2.0732c.3016-.5932.7258-1.0539 1.2727-1.3821.5469-.3281 1.1932-.4922 1.9389-.4922.7458 0 1.3921.1641 1.939.4922.5468.3282.9694.7889 1.2677 1.3821.3016.5933.4524 1.2844.4524 2.0732s-.1508 1.4782-.4524 2.0682c-.2983.5899-.7209 1.049-1.2677 1.3771-.5469.3281-1.1932.4922-1.939.4922zm.01-1.4418c.4043 0 .7424-.111 1.0142-.3331.2718-.2254.474-.527.6065-.9048.1359-.3778.2039-.7988.2039-1.2628 0-.4673-.068-.8899-.2039-1.2677-.1325-.3812-.3347-.6845-.6065-.9098-.2718-.2254-.6099-.3381-1.0142-.3381-.4143 0-.759.1127-1.0341.3381-.2718.2253-.4756.5286-.6115.9098-.1326.3778-.1989.8004-.1989 1.2677 0 .464.0663.885.1989 1.2628.1359.3778.3397.6794.6115.9048.2751.2221.6198.3331 1.0341.3331z"/><path d="m73.6803 41.1343c-.5999 0-1.1369-.1542-1.6108-.4624-.474-.3082-.8485-.7557-1.1236-1.3423-.2751-.5867-.4127-1.2993-.4127-2.1378 0-.8485.1393-1.5644.4177-2.1477.2817-.5867.6612-1.0292 1.1385-1.3274.4772-.3017 1.0092-.4525 1.5958-.4525.4475 0 .8154.0763 1.1037.2287.2884.1492.5171.3298.6861.5419.169.2088.3.406.3928.5917h.0745v-3.8083h1.8047v10.1818h-1.7699v-1.2031h-.1093c-.0928.1856-.2271.3828-.4027.5916-.1757.2055-.4077.3812-.6961.527-.2883.1459-.6512.2188-1.0887.2188zm.5021-1.4766c.3812 0 .706-.1027.9744-.3082.2685-.2088.4723-.4989.6115-.8701s.2088-.8037.2088-1.2975c0-.4939-.0696-.9231-.2088-1.2877-.1359-.3646-.338-.648-.6065-.8501-.2652-.2022-.5916-.3033-.9794-.3033-.401 0-.7358.1044-1.0043.3132-.2684.2088-.4706.4972-.6065.8651s-.2038.7888-.2038 1.2628c0 .4772.0679.9031.2038 1.2777.1392.3712.343.6645.6115.8799.2718.2121.6049.3182.9993.3182z"/><path d="m83.0455 41.1492c-.7656 0-1.4268-.1591-1.9837-.4773-.5535-.3215-.9794-.7756-1.2777-1.3622-.2983-.59-.4474-1.2843-.4474-2.0831 0-.7855.1491-1.4749.4474-2.0682.3016-.5966.7226-1.0606 1.2628-1.392.5403-.3348 1.175-.5022 1.9041-.5022.4707 0 .9148.0763 1.3324.2287.421.1492.7922.3812 1.1137.6961.3248.3148.58.7159.7656 1.2031.1856.4839.2784 1.0606.2784 1.7301v.5518h-6.2592v-1.213h4.5341c-.0034-.3447-.0779-.6513-.2238-.9198-.1458-.2718-.3496-.4855-.6115-.6413-.2585-.1558-.5601-.2337-.9048-.2337-.3679 0-.6911.0895-.9695.2685-.2784.1757-.4955.4077-.6512.696-.1525.2851-.2304.5983-.2337.9396v1.059c0 .4441.0812.8253.2436 1.1435.1624.3148.3894.5568.6811.7258.2917.1657.6331.2486 1.0242.2486.2618 0 .4988-.0365.7109-.1094.2121-.0762.3961-.1872.5518-.3331.1558-.1458.2735-.3264.353-.5419l1.6804.1889c-.106.4442-.3082.832-.6065 1.1634-.295.3281-.6728.5833-1.1335.7656-.4607.179-.9877.2685-1.581.2685z"/><path d="m91.5158 30.8182h2.2571l3.0228 7.3779h.1193l3.0227-7.3779h2.2573v10.1818h-1.77v-6.995h-.095l-2.8134 6.9652h-1.3225l-2.8139-6.9801h-.0945v7.0099h-1.7699z"/><path d="m106.321 41.1542c-.484 0-.919-.0862-1.307-.2586-.385-.1756-.69-.4342-.915-.7755-.222-.3414-.333-.7623-.333-1.2628 0-.4309.079-.7872.238-1.0689.16-.2817.377-.5071.652-.6762.275-.169.585-.2966.929-.3828.348-.0895.708-.1541 1.079-.1939.448-.0464.811-.0878 1.089-.1242.278-.0398.481-.0995.607-.179.129-.0829.193-.2105.193-.3828v-.0299c0-.3745-.111-.6645-.333-.87s-.542-.3082-.959-.3082c-.441 0-.791.0961-1.049.2883-.255.1923-.428.4193-.517.6811l-1.681-.2386c.133-.464.352-.8518.657-1.1634.305-.3148.677-.5501 1.118-.7059.441-.1591.928-.2387 1.462-.2387.368 0 .734.0431 1.099.1293.364.0862.697.2287.999.4276.302.1955.544.4623.726.8004.185.3381.278.7606.278 1.2677v5.1108h-1.73v-1.049h-.06c-.109.2122-.263.411-.462.5966-.195.1823-.442.3298-.741.4425-.295.1094-.641.1641-1.039.1641zm.468-1.3225c.361 0 .674-.0712.939-.2138.265-.1458.469-.338.612-.5767.146-.2386.218-.4988.218-.7805v-.8999c-.056.0464-.152.0895-.288.1293-.132.0398-.282.0746-.447.1044-.166.0298-.33.0563-.493.0795-.162.0232-.303.0431-.422.0597-.269.0365-.509.0961-.721.179-.212.0828-.379.1988-.502.348-.123.1458-.184.3347-.184.5667 0 .3315.121.5817.363.7508.242.169.55.2535.925.2535z"/><path d="m113.963 36.5256v4.4744h-1.8v-7.6363h1.72v1.2976h.09c.175-.4276.455-.7673.84-1.0192.388-.2519.866-.3779 1.437-.3779.527 0 .986.1127 1.377.3381.394.2254.699.5519.914.9794.219.4276.327.9463.324 1.5561v4.8622h-1.8v-4.5838c0-.5104-.133-.9098-.398-1.1981-.262-.2884-.625-.4326-1.089-.4326-.315 0-.595.0696-.84.2089-.242.1358-.432.333-.572.5916-.135.2585-.203.5717-.203.9396z"/><path d="m122.892 41.1542c-.484 0-.92-.0862-1.308-.2586-.384-.1756-.689-.4342-.915-.7755-.222-.3414-.333-.7623-.333-1.2628 0-.4309.08-.7872.239-1.0689s.376-.5071.651-.6762c.275-.169.585-.2966.93-.3828.348-.0895.707-.1541 1.079-.1939.447-.0464.81-.0878 1.088-.1242.279-.0398.481-.0995.607-.179.129-.0829.194-.2105.194-.3828v-.0299c0-.3745-.111-.6645-.333-.87s-.542-.3082-.96-.3082c-.441 0-.79.0961-1.049.2883-.255.1923-.427.4193-.517.6811l-1.68-.2386c.132-.464.351-.8518.656-1.1634.305-.3148.678-.5501 1.119-.7059.44-.1591.928-.2387 1.461-.2387.368 0 .734.0431 1.099.1293s.698.2287.999.4276c.302.1955.544.4623.726.8004.186.3381.279.7606.279 1.2677v5.1108h-1.731v-1.049h-.059c-.11.2122-.264.411-.463.5966-.195.1823-.442.3298-.74.4425-.295.1094-.642.1641-1.039.1641zm.467-1.3225c.361 0 .674-.0712.94-.2138.265-.1458.469-.338.611-.5767.146-.2386.219-.4988.219-.7805v-.8999c-.057.0464-.153.0895-.289.1293-.132.0398-.281.0746-.447.1044s-.33.0563-.492.0795c-.163.0232-.303.0431-.423.0597-.268.0365-.509.0961-.721.179-.212.0828-.379.1988-.502.348-.122.1458-.184.3347-.184.5667 0 .3315.121.5817.363.7508.242.169.55.2535.925.2535z"/><path d="m132.054 44.0228c-.646 0-1.201-.0879-1.665-.2635-.464-.1724-.837-.4044-1.119-.6961-.282-.2916-.477-.6148-.587-.9694l1.621-.3928c.073.1492.179.2967.318.4425.14.1491.327.2718.562.3679.239.0994.539.1491.9.1491.51 0 .933-.1242 1.268-.3728.335-.2453.502-.6496.502-1.2131v-1.4467h-.09c-.092.1856-.228.3762-.407.5717-.176.1956-.41.3596-.701.4922-.289.1326-.652.1989-1.089.1989-.587 0-1.119-.1376-1.596-.4127-.474-.2784-.852-.6927-1.133-1.2429-.279-.5535-.418-1.2462-.418-2.0781 0-.8385.139-1.5462.418-2.1229.281-.58.661-1.0192 1.138-1.3174.477-.3017 1.009-.4525 1.596-.4525.447 0 .815.0763 1.104.2287.291.1492.523.3298.696.5419.172.2088.303.406.392.5917h.1v-1.2628h1.775v7.7606c0 .653-.156 1.1932-.468 1.6208-.311.4275-.737.7474-1.277.9595-.541.2121-1.154.3182-1.84.3182zm.015-4.5441c.381 0 .706-.0928.975-.2784.268-.1856.472-.4524.611-.8004s.209-.7656.209-1.2528c0-.4806-.07-.9016-.209-1.2628-.136-.3613-.338-.6414-.606-.8402-.266-.2022-.592-.3033-.98-.3033-.401 0-.736.1044-1.004.3132-.269.2088-.471.4955-.607.8601-.136.3613-.204.7722-.204 1.233 0 .4673.068.8766.204 1.2279.14.348.343.6198.612.8154.272.1922.605.2883.999.2883z"/><path d="m140.864 41.1492c-.766 0-1.427-.1591-1.984-.4773-.553-.3215-.979-.7756-1.277-1.3622-.299-.59-.448-1.2843-.448-2.0831 0-.7855.149-1.4749.448-2.0682.301-.5966.722-1.0606 1.262-1.392.541-.3348 1.175-.5022 1.904-.5022.471 0 .915.0763 1.333.2287.421.1492.792.3812 1.113.6961.325.3148.58.7159.766 1.2031.186.4839.278 1.0606.278 1.7301v.5518h-6.259v-1.213h4.534c-.003-.3447-.078-.6513-.223-.9198-.146-.2718-.35-.4855-.612-.6413-.258-.1558-.56-.2337-.905-.2337-.368 0-.691.0895-.969.2685-.279.1757-.496.4077-.651.696-.153.2851-.231.5983-.234.9396v1.059c0 .4441.081.8253.243 1.1435.163.3148.39.5568.682.7258.291.1657.633.2486 1.024.2486.262 0 .499-.0365.711-.1094.212-.0762.396-.1872.552-.3331.155-.1458.273-.3264.352-.5419l1.681.1889c-.106.4442-.308.832-.607 1.1634-.295.3281-.672.5833-1.133.7656-.461.179-.988.2685-1.581.2685z"/><path d="m145.782 41v-7.6363h1.72v1.2976h.09c.159-.4375.422-.7789.79-1.0242.368-.2486.807-.3729 1.318-.3729.517 0 .953.126 1.307.3779.358.2486.61.5883.756 1.0192h.079c.169-.4243.454-.7624.855-1.0142.405-.2553.884-.3829 1.437-.3829.703 0 1.276.2221 1.72.6662.445.4442.667 1.0921.667 1.9439v5.1257h-1.805v-4.8473c0-.4739-.126-.8203-.378-1.039-.252-.2221-.56-.3331-.925-.3331-.434 0-.774.1359-1.019.4076-.242.2685-.363.6182-.363 1.049v4.7628h-1.765v-4.9218c0-.3945-.119-.7093-.358-.9446-.235-.2354-.543-.353-.924-.353-.259 0-.494.0663-.706.1988-.212.1293-.381.3132-.507.5519-.126.2353-.189.5104-.189.8253v4.6434z"/><path d="m161.727 41.1492c-.765 0-1.427-.1591-1.984-.4773-.553-.3215-.979-.7756-1.277-1.3622-.299-.59-.448-1.2843-.448-2.0831 0-.7855.149-1.4749.448-2.0682.301-.5966.722-1.0606 1.263-1.392.54-.3348 1.175-.5022 1.904-.5022.47 0 .914.0763 1.332.2287.421.1492.792.3812 1.114.6961.325.3148.58.7159.765 1.2031.186.4839.279 1.0606.279 1.7301v.5518h-6.259v-1.213h4.534c-.004-.3447-.078-.6513-.224-.9198-.146-.2718-.35-.4855-.612-.6413-.258-.1558-.56-.2337-.904-.2337-.368 0-.692.0895-.97.2685-.278.1757-.495.4077-.651.696-.153.2851-.231.5983-.234.9396v1.059c0 .4441.081.8253.244 1.1435.162.3148.389.5568.681.7258.292.1657.633.2486 1.024.2486.262 0 .499-.0365.711-.1094.212-.0762.396-.1872.552-.3331.156-.1458.273-.3264.353-.5419l1.68.1889c-.106.4442-.308.832-.606 1.1634-.295.3281-.673.5833-1.134.7656-.461.179-.988.2685-1.581.2685z"/><path d="m168.445 36.5256v4.4744h-1.8v-7.6363h1.72v1.2976h.09c.176-.4276.456-.7673.84-1.0192.388-.2519.867-.3779 1.437-.3779.527 0 .986.1127 1.377.3381.394.2254.699.5519.915.9794.219.4276.326.9463.323 1.5561v4.8622h-1.8v-4.5838c0-.5104-.132-.9098-.397-1.1981-.262-.2884-.625-.4326-1.089-.4326-.315 0-.595.0696-.84.2089-.242.1358-.433.333-.572.5916-.136.2585-.204.5717-.204.9396z"/><path d="m178.99 33.3637v1.392h-4.39v-1.392zm-3.306-1.8296h1.799v7.1691c0 .2419.037.4275.11.5568.076.1259.175.2121.298.2585s.259.0696.408.0696c.112 0 .215-.0083.308-.0249.096-.0165.169-.0314.219-.0447l.303 1.407c-.096.0331-.234.0696-.413.1093-.175.0398-.391.063-.646.0696-.451.0133-.857-.0546-1.218-.2038-.361-.1525-.648-.3878-.86-.706-.209-.3181-.312-.7159-.308-1.1931z"/></g></svg>