<svg fill="none" viewBox="0 0 24 24" xmlns="http://www.w3.org/2000/svg" xmlns:xlink="http://www.w3.org/1999/xlink"><linearGradient id="a" gradientUnits="userSpaceOnUse" x1="7.17619" x2="18.7941" y1="2" y2="19.8988"><stop offset="0" stop-color="#62f91f"/><stop offset="1" stop-color="#45bd35"/></linearGradient><path clip-rule="evenodd" d="m5.18757 18.0448-.18739-11.30944c-.00934-.505.34144-.97128.85958-1.14263l12.43544-3.52497c.7761-.25665 1.561.24565 1.5666 1.00255l.1317 17.73089c.0058.7836-.8229 1.3742-1.6153 1.1512l-12.37971-2.8965c-.47868-.1347-.80217-.5381-.81092-1.0111zm2.85794-8.0052c-.25951 0-.46987.2104-.46987.4699v2.9367c0 .2595.21036.4698.46987.4698h.99846v3.201c0 .2595.21036.4699.46987.4699h3.93516v.9984c0 .2595.2104.4699.4699.4699h2.9367c.2595 0 .4698-.2104.4698-.4699v-2.9367c0-.2595-.2103-.4698-.4698-.4698h-2.9367c-.2595 0-.4699.2103-.4699.4698v.9985h-3.46529v-2.7311h.99849c.2595 0 .4699-.2103.4699-.4698v-.8517h1.9969v.8517c0 .2595.2104.4698.4699.4698h2.9367c.2595 0 .4698-.2103.4698-.4698v-2.9367c0-.2595-.2103-.4699-.4698-.4699h-2.9367c-.2595 0-.4699.2104-.4699.4699v1.1453h-1.9969v-1.1453c0-.2595-.2104-.4699-.4699-.4699h-.99849v-2.73114h3.46529v.99849c0 .2595.2104.46987.4699.46987h2.9367c.2595 0 .4698-.21037.4698-.46987v-2.93668c0-.25951-.2103-.46987-.4698-.46987h-2.9367c-.2595 0-.4699.21036-.4699.46987v.99845h-3.93516c-.25951 0-.46987.21037-.46987.46987v3.20101zm.46987 2.9367v-1.997h1.99692v1.997zm5.87332-7.13617v1.99695h1.997v-1.99695zm0 7.13617v-1.997h1.997v1.997zm0 3.1422v1.997h1.997v-1.997z" fill="url(#a)" fill-rule="evenodd"/></svg>