<svg viewBox="0 0 32 33" xmlns="http://www.w3.org/2000/svg"><path d="m25.31 10.755c0-.08-.043-.155-.112-.195l-9.085-5.245c-.07-.04-.155-.04-.225 0l-9.086 5.245c-.07.04-.112.115-.112.195v10.491c0 .08.043.155.112.195l9.085 5.245c.07.04.155.04.225 0l1.452-.809c.304-.175.688-.125.936.123.36.36.281.964-.16 1.219l-1.452.808c-.549.317-1.226.317-1.775 0l-9.085-5.245c-.549-.317-.887-.903-.887-1.537v-10.49c0-.634.338-1.22.887-1.537l9.085-5.245c.549-.317 1.226-.317 1.775 0l9.085 5.245c.549.317.887.903.887 1.537v6.745c0 .428-.347.775-.775.775s-.775-.347-.775-.775zm-4.619 2.666c0-.08-.043-.155-.112-.195l-4.466-2.579c-.07-.04-.155-.04-.225 0l-4.466 2.579c-.07.04-.113.114-.113.195v5.157c0 .08.043.155.113.195l4.466 2.579c.07.04.155.04.225 0l1.367-.789c.371-.214.845-.087 1.059.284s.087.845-.284 1.059l-1.367.789c-.549.317-1.226.317-1.775 0l-4.466-2.579c-.549-.317-.888-.903-.888-1.537v-5.157c0-.634.338-1.22.888-1.537l4.466-2.579c.549-.317 1.226-.317 1.775 0l4.466 2.579c.549.317.887.903.887 1.537v3.578c0 .428-.347.775-.775.775s-.775-.347-.775-.775z" fill="#0278d5"/><g fill-rule="evenodd"><path d="m21.046 23.052h-.001c-.286-.157-.292-.568-.011-.733l1.686-.976 2.378-1.377c.274-.159.451-.183.734-.023l2.495 1.408 1.855 1.046a.34.34 0 0 1 -.008.597l-1.837.972-1.524.806-1.203.636c-.08.043-.176.042-.256-.002l-2.642-1.443-1.665-.91z" fill="#edc100"/><path d="m28.716 24.686-1.524.806-1.203.636-.104.055v3.153 2.244a.27.27 0 0 0 .402.237l2.042-1.139 2.7-1.506c.086-.048.139-.138.139-.237v-2.913-1.96-.001c-.001-.307-.325-.503-.596-.36l-.019.01-.011.005-1.826.967h-.001z" fill="#fff"/><path d="m19.963 26.02v-1.889a.44.44 0 0 1 .649-.387l.002.001.044.024 1.665.91 2.749 1.502v3.157 2.228c0 .209-.225.339-.405.236l-1.947-1.118-2.62-1.504c-.041-.024-.076-.059-.1-.1s-.037-.088-.037-.136z" fill="#f7d900"/><path d="m26.187 19.207 2.538 1.432 1.854 1.046.001.001c1.1.582 1.439.921 1.399 2.379v.001 1.96 2.912.002a1.11 1.11 0 0 1 -.558.949l-2.7 1.506-2.345 1.304c-.779.41-1.134.395-1.81 0l-.162-.098-2.091-1.209-2.62-1.504c-.206-.141-.545-.481-.545-.943v-.001-.83-3.98-.003c0-1.524.339-1.864 1.476-2.517l.004-.002 1.683-.975 2.468-1.429c.479-.277.921-.274 1.405 0zm-5.143 3.845h.001l1.665.91 2.642 1.443c.039.021.083.033.128.033s.089-.011.128-.032l1.203-.636 1.524-.806 1.837-.972a.34.34 0 0 0 .008-.597l-1.855-1.047-2.495-1.408c-.282-.159-.46-.135-.734.023l-2.378 1.377-1.686.976c-.281.165-.276.576.011.733h.001zm-1.082 1.079v1.889 2.922c0 .048.013.095.037.136s.058.076.1.1l2.62 1.504 1.947 1.118c.181.104.405-.027.405-.236v-2.227-3.157l-2.749-1.501-1.665-.91-.044-.024-.002-.001a.44.44 0 0 0 -.649.387zm7.229 1.361 1.524-.806 1.826-.967.011-.005.019-.01c.27-.143.595.054.596.36v.001 1.96 2.912.001c-.001.098-.054.189-.139.237l-2.7 1.506-2.042 1.139c-.181.101-.402-.03-.402-.238v-2.244-3.153l.104-.055 1.203-.636v-.001zm-5.382 1.729c.213.239.357.473.306.841-.416-.124-.76-.33-1.07-.575-.166-.132.006-.426.257-.457.188-.023.341.059.508.191zm1.825 1.063c.213.239.358.472.306.841-.416-.124-.76-.329-1.07-.575-.166-.132.006-.426.257-.457.188-.023.342.059.508.191z" fill="#08192c"/></g></svg>