<svg viewBox="0 0 32 33" xmlns="http://www.w3.org/2000/svg"><path d="m25.31 10.755c0-.08-.043-.155-.112-.195l-9.085-5.245c-.07-.04-.155-.04-.225 0l-9.086 5.245c-.07.04-.112.115-.112.195v10.491c0 .08.043.155.112.195l9.085 5.245c.07.04.155.04.225 0l1.452-.809c.304-.175.688-.125.936.123.36.36.281.964-.16 1.219l-1.452.808c-.549.317-1.226.317-1.775 0l-9.085-5.245c-.549-.317-.887-.903-.887-1.537v-10.49c0-.634.338-1.22.887-1.537l9.085-5.245c.549-.317 1.226-.317 1.775 0l9.085 5.245c.549.317.887.903.887 1.537v6.745c0 .428-.347.775-.775.775s-.775-.347-.775-.775zm-4.619 2.666c0-.08-.043-.155-.112-.195l-4.466-2.579c-.07-.04-.155-.04-.225 0l-4.466 2.579c-.07.04-.113.114-.113.195v5.157c0 .08.043.155.113.195l4.466 2.579c.07.04.155.04.225 0l1.367-.789c.371-.214.845-.087 1.059.284s.087.845-.284 1.059l-1.367.789c-.549.317-1.226.317-1.775 0l-4.466-2.579c-.549-.317-.888-.903-.888-1.537v-5.157c0-.634.338-1.22.888-1.537l4.466-2.579c.549-.317 1.226-.317 1.775 0l4.466 2.579c.549.317.887.903.887 1.537v3.578c0 .428-.347.775-.775.775s-.775-.347-.775-.775z" fill="#fff"/><g fill-rule="evenodd"><path d="m21.046 23.052h-.001c-.286-.157-.292-.568-.011-.733l1.686-.976 2.378-1.377c.274-.159.451-.183.734-.023l2.495 1.408 1.855 1.046a.34.34 0 0 1 -.008.597l-1.837.972-1.524.806-1.203.636c-.08.043-.176.042-.256-.002l-2.642-1.443-1.665-.91z" fill="#d9dae5"/><path d="m28.716 24.686-1.524.806-1.203.636-.104.055v3.153 2.244a.27.27 0 0 0 .402.237l2.042-1.139 2.7-1.506c.086-.048.139-.138.139-.237v-2.913-1.96-.001c-.001-.307-.325-.503-.596-.36l-.019.01-.011.005-1.826.967h-.001z" fill="#fff"/><path d="m19.963 24.131v1.889 2.923c0 .048.013.095.037.136s.058.076.1.1l2.62 1.504 1.947 1.118c.181.103.405-.027.405-.236v-2.228-3.157l-2.749-1.501-1.665-.91-.044-.024-.002-.001a.44.44 0 0 0 -.649.387zm2.153 3.93c.051-.368-.093-.602-.306-.841-.166-.132-.319-.215-.508-.191-.25.031-.423.325-.257.457.31.246.655.451 1.07.575zm1.825 1.063c.051-.368-.093-.602-.306-.841-.166-.132-.319-.215-.508-.191-.25.031-.423.325-.257.457.31.246.655.451 1.07.575z" fill="#f3f3fa"/></g></svg>