<svg fill="none" viewBox="0 0 24 24" xmlns="http://www.w3.org/2000/svg"><path clip-rule="evenodd" d="m21.1369 7.84538-2.7083 1.5076-5.6513-3.23172c-.2975-.17013-.6656-.17013-.9631 0l-5.43593 3.10852c-.63067.36065-.63068 1.25262 0 1.61332l5.58923 3.1962c.1742.0996.3763.1111.5521.0481.057-.0133.1132-.0347.1669-.0646l8.5595-4.76469-.0507 5.87549c-.011 1.2788-.6974 2.4564-1.8046 3.0958l-5.6926 3.2871c-1.1071.6393-2.4698.645-3.5822.0148l-5.53116-3.1332c-1.14106-.6463-1.84188-1.861-1.83058-3.1728l.02815-3.2677 9.13239 5.12c.0306.0171.0619.0315.0938.0431.2021.1413.4783.1623.7067.0317l6.0384-3.453c.3102-.1775.4148-.5674.2335-.8711-.1812-.3036-.5797-.4059-.8899-.2285l-5.7113 3.266-9.54358-5.3506c-.0156-.0087-.0314-.0167-.04737-.024l.014-1.62473c.01102-1.27887.69749-2.45647 1.80465-3.0958l5.6926-3.28716c1.1071-.63933 2.4698-.64497 3.5822-.01482l5.5312 3.1332c.8646.48981 1.4765 1.30601 1.7173 2.24349zm-8.828 4.91422-4.76197-2.7232 4.74877-2.71556 4.8259 2.75966z" fill="#383946" fill-rule="evenodd"/></svg>