<svg fill="none" viewBox="0 0 24 24" xmlns="http://www.w3.org/2000/svg" xmlns:xlink="http://www.w3.org/1999/xlink"><linearGradient id="a" gradientUnits="userSpaceOnUse" x1="7.17619" x2="18.7941" y1="2" y2="19.8988"><stop offset="0" stop-color="#c7e747"/><stop offset=".828125" stop-color="#31cd1b"/></linearGradient><path clip-rule="evenodd" d="m5.00018 6.73536.18739 11.30944c.00875.473.33224.8764.81092 1.0111l12.37971 2.8965c.7924.223 1.6211-.3676 1.6153-1.1512l-.1317-17.73089c-.0056-.7569-.7905-1.2592-1.5666-1.00255l-12.43544 3.52497c-.51814.17135-.86892.63763-.85958 1.14263zm2.57547 4.06554c0-.2595.21037-.4699.46987-.4699h1.55015v-2.13861c0-.06584.04426-.12345.10788-.14041l3.74545-.99878v-1.39141c0-.25951.2103-.46987.4698-.46987h2.9367c.2595 0 .4699.21036.4699.46987v2.93668c0 .2595-.2104.46987-.4699.46987h-2.9367c-.2595 0-.4698-.21037-.4698-.46987v-1.41636l-3.71336.99022c-.00909.00243-.01541.01066-.01541.02006v2.13861h1.26197c.2595 0 .4699.2104.4699.4699v2.9366c0 .2595-.2104.4699-.4699.4699h-1.2619v2.0799c0 .0094.00633.0177.01541.0201l3.71329.9902v-1.3574c0-.2595.2103-.4699.4698-.4699h2.9367c.2595 0 .4699.2104.4699.4699v2.9366c0 .2595-.2104.4699-.4699.4699h-2.9367c-.2595 0-.4698-.2104-.4698-.4699v-1.4503l-3.74538-.9987c-.06361-.017-.10788-.0746-.10788-.1405v-2.0799h-1.55022c-.2595 0-.46987-.2104-.46987-.4699zm.93974.4698v1.997h1.99691v-1.997zm5.87331-3.1421v-1.99694h1.997v1.99694zm-.9397 2.6723c0-.2595.2104-.4699.4699-.4699h2.9367c.2595 0 .4698.2104.4698.4699v2.9366c0 .2595-.2103.4699-.4698.4699h-2.9367c-.2595 0-.4699-.2104-.4699-.4699zm.9397.4698v1.997h1.997v-1.997zm0 7.1363v-1.997h1.997v1.997z" fill="url(#a)" fill-rule="evenodd"/></svg>