<svg fill="none" viewBox="0 0 32 33" xmlns="http://www.w3.org/2000/svg"><path d="m25.3102 10.7546c0-.0804-.0429-.1547-.1125-.1949l-9.0852-5.24528c-.0696-.04019-.1553-.04019-.225 0l-9.08508 5.24528c-.06962.0402-.1125.1145-.1125.1949v10.4906c0 .0804.04288.1546.1125.1948l9.08508 5.2453c.0697.0402.1554.0402.225 0l1.9171-1.1068c.3038-.1754.6875-.1249.9355.1232.3603.3603.2808.9644-.1605 1.2192l-1.9171 1.1068c-.5491.317-1.2258.317-1.775 0l-9.08508-5.2453c-.54919-.3171-.8875-.9031-.8875-1.5372v-10.4906c0-.6342.33831-1.22015.8875-1.53722l9.08508-5.2453c.5492-.31707 1.2259-.31707 1.775 0l9.0852 5.2453c.5492.31707.8875.90302.8875 1.53722v8.2453c0 .428-.347.775-.775.775-.4281 0-.775-.347-.775-.775z" fill="#0278d5" stroke="#fff" stroke-linejoin="round" stroke-width=".45"/><path d="m20.6913 13.4214c0-.0804-.0428-.1547-.1125-.1949l-4.4663-2.5786c-.0696-.0402-.1554-.0402-.225 0l-4.4663 2.5787c-.0696.0401-.1125.1144-.1125.1948v5.1573c0 .0804.0429.1546.1125.1948l4.4663 2.5787c.0696.0402.1554.0402.225 0l1.3671-.7894c.3707-.214.8447-.087 1.0587.2837s.087.8447-.2836 1.0587l-1.3672.7893c-.5492.3171-1.2258.3171-1.775 0l-4.4663-2.5786c-.5492-.3171-.88751-.9031-.88751-1.5372v-5.1573c0-.6341.33831-1.2201.88751-1.5372l4.4663-2.57862c.5492-.31707 1.2258-.31708 1.775 0l4.4663 2.57862c.5492.3171.8875.9031.8875 1.5372v3.5786c0 .4281-.3469.775-.775.775-.428 0-.775-.3469-.775-.775z" fill="#0278d5" stroke="#fff" stroke-linejoin="round" stroke-width=".45"/><path d="m28.6135 24.3697v3.9981l3.3865-1.9525v-4.0911z" fill="#4040b2"/><g fill="#5c4ee5"><path d="m24.8607 22.3242 3.3865 2.0455v3.9981l-3.3865-1.9525z"/><path clip-rule="evenodd" d="m21.017 23.9981v-3.9981l3.4779 2.0455v3.9981zm7.2302 8.8324-3.4779-2.0455v-3.9981l3.4779 2.0456z" fill-rule="evenodd"/></g></svg>