<svg xmlns="http://www.w3.org/2000/svg" width="20" height="20" fill="none" xmlns:v="https://vecta.io/nano"><circle cx="10" cy="10" r="9" fill="#fdcc35" fill-opacity=".15" stroke="#ff832b" stroke-width=".75"/><path d="M6 11.409c.008-.555.121-1.01.338-1.364s.505-.616.851-.785S7.916 9 8.318 9a2.32 2.32 0 0 1 1.105.26c.326.173.676.415 1.05.724.278.225.513.392.706.501s.415.163.652.163a1.19 1.19 0 0 0 .918-.368c.237-.249.37-.598.398-1.044l.996.03c-.02.551-.141 1.002-.362 1.352s-.497.61-.839.779-.706.254-1.093.254-.743-.088-1.056-.254-.66-.406-1.038-.712c-.278-.229-.519-.4-.724-.513a1.48 1.48 0 0 0-.7-.175c-.374 0-.688.119-.942.356s-.38.59-.392 1.069L6 11.409z" fill="#ff832b"/></svg>