<svg viewBox="0 0 24 24" fill="none" xmlns="http://www.w3.org/2000/svg"><path d="M9.75 15.75V13.5a3.75 3.75 0 0 1 3.75-3.75h2.25a.75.75 0 0 1 0 1.5H13.5a2.25 2.25 0 0 0-2.25 2.25v2.25a.75.75 0 0 1-1.5 0Z" fill="currentColor"/><path d="M3.75 15.75V13.5a9.75 9.75 0 0 1 9.75-9.75h2.25a.75.75 0 0 1 0 1.5H13.5a8.25 8.25 0 0 0-8.25 8.25v2.25a.75.75 0 0 1-1.5 0Z" fill="currentColor"/><path d="M16.5 4.5v6H18v-6h-1.5Zm3 6A1.5 1.5 0 0 1 18 12h-1.5a1.5 1.5 0 0 1-1.5-1.5v-6A1.5 1.5 0 0 1 16.5 3H18a1.5 1.5 0 0 1 1.5 1.5v6ZM4.5 16.5V18h6v-1.5h-6ZM12 18a1.5 1.5 0 0 1-1.5 1.5h-6A1.5 1.5 0 0 1 3 18v-1.5A1.5 1.5 0 0 1 4.5 15h6a1.5 1.5 0 0 1 1.5 1.5V18Z" fill="currentColor"/><path d="M9.75 21.75v-3a.75.75 0 0 1 1.5 0v3a.75.75 0 0 1-1.5 0ZM3.75 21.75v-3a.75.75 0 0 1 1.5 0v3a.75.75 0 0 1-1.5 0ZM21.75 3.75a.75.75 0 0 1 0 1.5h-3a.75.75 0 0 1 0-1.5h3ZM21.75 9.75a.75.75 0 0 1 0 1.5h-3a.75.75 0 0 1 0-1.5h3Z" fill="currentColor"/></svg>