<svg viewBox="0 0 24 25" fill="none" xmlns="http://www.w3.org/2000/svg"><path fill-rule="evenodd" clip-rule="evenodd" d="M10.654 18.397A3.73 3.73 0 0 1 6.981 21.5a3.726 3.726 0 0 1-3.724-3.724A3.726 3.726 0 0 1 9.14 14.74l5.45-5.452-.75-.748a1.9 1.9 0 0 1-.438-.696H9.464v.62a1.86 1.86 0 0 1-1.862 1.863H5.119a1.86 1.86 0 0 1-1.862-1.863V5.983a1.86 1.86 0 0 1 1.862-1.862h2.483c1.029 0 1.862.833 1.862 1.862v.62h3.937c.09-.253.236-.492.439-.696l1.862-1.862a1.86 1.86 0 0 1 2.633 0l1.863 1.862a1.86 1.86 0 0 1 0 2.634l-1.863 1.862a1.86 1.86 0 0 1-2.633 0l-.234-.235-5.451 5.45c.32.45.542.972.637 1.537h8.12l-1.117-1.49a.62.62 0 1 1 .993-.744l1.863 2.482a.62.62 0 0 1 0 .745l-1.863 2.483a.62.62 0 1 1-.993-.745l1.118-1.49zm-1.19-.621a2.484 2.484 0 0 0-2.483-2.483A2.484 2.484 0 0 0 4.5 17.776a2.484 2.484 0 0 0 2.482 2.483 2.484 2.484 0 0 0 2.483-2.483m-1.241-9.31V5.982a.62.62 0 0 0-.621-.621H5.119a.62.62 0 0 0-.62.62v2.483a.62.62 0 0 0 .62.621h2.483a.62.62 0 0 0 .62-.62m6.415-.901a.6.6 0 0 0 .08.098l1.862 1.862a.62.62 0 0 0 .878 0l1.862-1.862a.62.62 0 0 0 0-.878l-1.862-1.862a.62.62 0 0 0-.878 0l-1.862 1.862a.63.63 0 0 0-.08.78" fill="currentColor"/></svg>