<svg xmlns="http://www.w3.org/2000/svg" fill="currentColor" viewBox="0 0 16 16"><path fill="#6B6D85" fill-rule="evenodd" d="M6.236 1.765a.399.399 0 0 0-.606.011L3.361 4.532a.399.399 0 0 0 .308.652h1.067c.02 1.332.138 2.94.309 4.417.186 1.616.441 3.114.714 3.916.018.053.047.1.083.14a.398.398 0 0 0 .713-.245c0-.089.003-.176.007-.262l.05-.473c.134-.84.504-1.494 1.048-1.966.629-.546 1.527-.881 2.654-.945v1.216a.398.398 0 0 0 .663.298l2.756-2.443a.399.399 0 0 0-.011-.606l-2.756-2.269a.399.399 0 0 0-.652.308v1.07c-1.255.046-2.381.329-3.204 1.19a3.476 3.476 0 0 0-.129.143c.09-1.188.158-2.397.171-3.489h1.23a.399.399 0 0 0 .297-.663L6.236 1.765ZM4.513 4.387 5.95 2.643l1.546 1.744H6.358v.399c0 1.823-.174 4.057-.357 5.985-.059-.4-.114-.823-.164-1.262-.186-1.605-.307-3.362-.307-4.723v-.399H4.513Zm2.624 5.722a3.867 3.867 0 0 0-.142.13c.184-.496.419-.873.692-1.158.678-.71 1.676-.95 3.025-.95h.399V7.114l1.744 1.436-1.744 1.546V8.958h-.399c-1.447 0-2.689.382-3.575 1.15Z" clip-rule="evenodd"/></svg>