<svg viewBox="0 0 80 80" fill="none" xmlns="http://www.w3.org/2000/svg"><circle cx="35.573" cy="35.573" r="35.271" transform="matrix(1 0 0 -1 4.427 75.573)" fill="url(#a)" stroke="url(#b)" stroke-width=".605"/><path d="M40.158 13.583c14.5 0 26.259 11.825 26.259 26.417 0 14.59-11.758 26.417-26.259 26.417C25.658 66.417 13.9 54.59 13.9 40c0-14.592 11.758-26.417 26.26-26.417Z" fill="url(#c)" stroke="url(#d)" stroke-width=".605"/><g filter="url(#e)"><g clip-path="url(#f)"><rect x="23.591" y="23.592" width="32.885" height="32.885" rx="16.443" fill="url(#g)"/><g filter="url(#h)"><circle cx="39.876" cy="39.876" r="16.127" stroke="url(#i)" stroke-width=".949"/></g><path fill-rule="evenodd" clip-rule="evenodd" d="M29.125 30.944h21.818v18.182H29.125V30.944Zm21.818-.91H29.125a.91.91 0 0 0-.91.91v18.182a.91.91 0 0 0 .91.909h21.818a.91.91 0 0 0 .91-.91v-18.18a.91.91 0 0 0-.91-.91Zm-6.47 4.904a2.5 2.5 0 1 0 0 5 2.5 2.5 0 0 0 0-5Zm-3.409 2.5a3.41 3.41 0 1 1 6.14 2.043v6.256a.455.455 0 0 1-.698.384l-2.071-1.31-1.982 1.306a.455.455 0 0 1-.704-.38v-6.25a3.394 3.394 0 0 1-.685-2.049Zm3.41 3.41c.669 0 1.293-.194 1.82-.527v4.59l-1.621-1.025a.454.454 0 0 0-.493.005l-1.522 1.002v-4.569a3.393 3.393 0 0 0 1.815.523Zm-12.118-5.945c0-.251.203-.455.454-.455h5.455a.455.455 0 0 1 0 .91H32.81a.455.455 0 0 1-.454-.455Zm.454 3.133a.455.455 0 0 0 0 .91h5.455a.455.455 0 0 0 0-.91H32.81Z" fill="#3DC7F6" stroke="#3DC7F6" stroke-width=".909" stroke-linecap="round"/><g style="mix-blend-mode:screen" filter="url(#j)"><ellipse cx="39.755" cy="51.767" rx="7.525" ry="4.777" transform="rotate(-180 39.755 51.767)" fill="#EFFBFF"/><ellipse cx="5.911" cy="4.184" rx="5.911" ry="4.184" transform="matrix(-.99698 -.0777 .72792 -.68566 38.857 56.793)" fill="#FAFBFC"/><ellipse cx="4.627" cy="4.613" rx="4.627" ry="4.613" transform="matrix(-.9955 .0948 -.792 -.61052 52.366 55.886)" fill="#FAFBFC"/></g></g></g><circle cx="40" cy="40" r="39.72" stroke="url(#k)" stroke-width=".56"/><defs><linearGradient id="a" x1="35.573" y1="0" x2="35.573" y2="60.13" gradientUnits="userSpaceOnUse"><stop stop-color="#F3F3FA"/><stop offset="1" stop-color="#FAFCFF"/></linearGradient><linearGradient id="b" x1="35.573" y1="0" x2="34.308" y2="63.399" gradientUnits="userSpaceOnUse"><stop stop-color="#F3F3FA"/><stop offset="1" stop-color="#FAFCFF"/></linearGradient><linearGradient id="c" x1="40.158" y1="13.28" x2="40.158" y2="58.444" gradientUnits="userSpaceOnUse"><stop stop-color="#F3F3FA"/><stop offset="1" stop-color="#FAFCFF"/></linearGradient><linearGradient id="d" x1="40.158" y1="13.28" x2="40.158" y2="66.719" gradientUnits="userSpaceOnUse"><stop stop-color="#F3F3FA"/><stop offset="1" stop-color="#fff" stop-opacity="0"/></linearGradient><linearGradient id="g" x1="40.327" y1="23.886" x2="39.184" y2="56.416" gradientUnits="userSpaceOnUse"><stop stop-color="#F3F3FA"/><stop offset=".695" stop-color="#FAFBFC"/></linearGradient><linearGradient id="k" x1="40" y1="0" x2="39.903" y2="38.024" gradientUnits="userSpaceOnUse"><stop stop-color="#F3F3FA"/><stop offset="1" stop-color="#FAFCFF"/></linearGradient><filter id="e" x="23.591" y="23.592" width="32.885" height="35.001" filterUnits="userSpaceOnUse" color-interpolation-filters="sRGB"><feFlood flood-opacity="0" result="BackgroundImageFix"/><feBlend in="SourceGraphic" in2="BackgroundImageFix" result="shape"/><feColorMatrix in="SourceAlpha" values="0 0 0 0 0 0 0 0 0 0 0 0 0 0 0 0 0 0 127 0" result="hardAlpha"/><feOffset dy="2.644"/><feGaussianBlur stdDeviation="1.058"/><feComposite in2="hardAlpha" operator="arithmetic" k2="-1" k3="1"/><feColorMatrix values="0 0 0 0 1 0 0 0 0 1 0 0 0 0 1 0 0 0 0.2 0"/><feBlend in2="shape" result="effect1_innerShadow_11679_25201"/></filter><filter id="h" x="22.643" y="22.643" width="34.466" height="34.466" filterUnits="userSpaceOnUse" color-interpolation-filters="sRGB"><feFlood flood-opacity="0" result="BackgroundImageFix"/><feBlend in="SourceGraphic" in2="BackgroundImageFix" result="shape"/><feGaussianBlur stdDeviation=".316" result="effect1_foregroundBlur_11679_25201"/></filter><filter id="j" x="23.05" y="40.666" width="33.26" height="22.201" filterUnits="userSpaceOnUse" color-interpolation-filters="sRGB"><feFlood flood-opacity="0" result="BackgroundImageFix"/><feBlend in="SourceGraphic" in2="BackgroundImageFix" result="shape"/><feGaussianBlur stdDeviation="3.162" result="effect1_foregroundBlur_11679_25201"/></filter><radialGradient id="i" cx="0" cy="0" r="1" gradientUnits="userSpaceOnUse" gradientTransform="rotate(67.652 -4.681 39.243) scale(15.3848 36.2275)"><stop stop-color="#FAFBFC"/><stop offset="1" stop-color="#FAFBFC"/></radialGradient><clipPath id="f"><rect x="23.591" y="23.592" width="32.885" height="32.885" rx="16.443" fill="#fff"/></clipPath></defs></svg>