<svg viewBox="0 0 24 24" fill="none" xmlns="http://www.w3.org/2000/svg"><rect width="24" height="24" rx="12" fill="#4791FF"/><path fill-rule="evenodd" clip-rule="evenodd" d="M10.446 10.114c.043.08.098.156.166.223l.709.709a.96.96 0 0 0 .222.165v1.88h-1.027a.955.955 0 0 0-.957.953v.05H7.966a.553.553 0 0 1-.554-.551v-2.574h.548a.955.955 0 0 0 .952-.855h1.534Zm-.887 4.883H7.966c-.807 0-1.46-.651-1.46-1.454v-2.574h-.55A.955.955 0 0 1 5 10.016V9.013c0-.526.428-.953.957-.953H7.96c.529 0 .957.427.957.953v.198h1.529a.955.955 0 0 1 .166-.223l.709-.708a.955.955 0 0 1 1.35 0l.709.708a.951.951 0 0 1 .166.223h1.537v-.198c0-.526.428-.953.957-.953h2.003c.529 0 .957.427.957.953v1.003a.955.955 0 0 1-.957.953H16.04a.955.955 0 0 1-.952-.855h-1.542a.952.952 0 0 1-.166.223l-.709.709a.957.957 0 0 1-.222.165v1.88h1.074c.529 0 .957.427.957.953v1.003a.955.955 0 0 1-.957.953h-3.007a.955.955 0 0 1-.957-.953v-.05Zm1.693-5.299a.05.05 0 0 1 0-.071l.708-.708a.05.05 0 0 1 .072 0l.708.708a.05.05 0 0 1 0 .071l-.708.708a.05.05 0 0 1-.072 0l-.708-.708Zm-5.295-.735a.05.05 0 0 0-.05.05v1.003c0 .027.022.05.05.05H7.96a.05.05 0 0 0 .05-.05V9.013a.05.05 0 0 0-.05-.05H5.957Zm10.083 0a.05.05 0 0 0-.05.05v1.003c0 .027.022.05.05.05h2.003a.05.05 0 0 0 .05-.05V9.013a.05.05 0 0 0-.05-.05H16.04Zm-5.574 5.081a.05.05 0 0 1 .05-.05h3.007a.05.05 0 0 1 .05.05v1.003a.05.05 0 0 1-.05.05h-3.007a.05.05 0 0 1-.05-.05v-1.003Z" fill="#EDEEF0"/></svg>