<svg viewBox="0 0 24 24" fill="none" xmlns="http://www.w3.org/2000/svg"><path d="M10.125 17.625a3 3 0 1 1-6 0 3 3 0 0 1 6 0Zm-5.094-6.594 1.344-1.346 1.344 1.346a.75.75 0 1 0 1.062-1.062L7.435 8.625l1.346-1.344a.75.75 0 1 0-1.062-1.062L6.375 7.565 5.031 6.219a.75.75 0 1 0-1.062 1.062l1.346 1.344-1.346 1.344a.75.75 0 0 0 1.062 1.062Zm15.154 6.594 1.346-1.344a.75.75 0 0 0-1.062-1.062l-1.344 1.346-1.344-1.346a.75.75 0 1 0-1.062 1.062l1.346 1.344-1.346 1.344a.75.75 0 1 0 1.062 1.062l1.344-1.346 1.344 1.346a.75.75 0 1 0 1.062-1.062l-1.346-1.344ZM15.531 4.719l-.22-.219h1.939a.75.75 0 1 0 0-1.5H13.5a.75.75 0 0 0-.75.75V7.5a.75.75 0 1 0 1.5 0V5.56l.22.22c1.68 1.682 1.678 3.32 1.378 4.397-.435 1.573-1.815 2.979-3.28 3.346a.75.75 0 1 0 .365 1.454c1.988-.496 3.783-2.306 4.362-4.4.572-2.066-.054-4.147-1.764-5.858Z" fill="currentColor"/></svg>