<svg viewBox="0 0 24 24" fill="none" xmlns="http://www.w3.org/2000/svg"><rect width="24" height="24" rx="12" fill="#13B7D8"/><path d="M14.354 9.646a.5.5 0 0 1 0 .708l-4 4a.5.5 0 1 1-.708-.708l4-4a.5.5 0 0 1 .708 0Zm3.121-3.121a3.5 3.5 0 0 0-4.95 0l-1.879 1.878a.5.5 0 0 0 .708.708l1.879-1.875a2.5 2.5 0 0 1 3.535 3.535l-1.88 1.878a.5.5 0 0 0 .708.708l1.88-1.882a3.5 3.5 0 0 0 0-4.95Zm-4.829 8.364-1.878 1.878a2.5 2.5 0 1 1-3.535-3.535l1.878-1.878a.5.5 0 0 0-.708-.708l-1.878 1.879a3.5 3.5 0 1 0 4.95 4.95l1.879-1.88a.5.5 0 1 0-.708-.706Z" fill="#EEE"/></svg>