<svg viewBox="0 0 16 16" fill="none" xmlns="http://www.w3.org/2000/svg"><mask id="a" style="mask-type:alpha" maskUnits="userSpaceOnUse" x="1" y="1" width="14" height="14"><path d="M2 6.267V2.4c0-.22.18-.4.4-.4h11.2c.22 0 .4.18.4.4v3.867a.4.4 0 0 1-.4.4H2.4a.4.4 0 0 1-.4-.4ZM9.333 13.6V9.733c0-.22.18-.4.4-.4H13.6c.22 0 .4.18.4.4V13.6a.4.4 0 0 1-.4.4H9.733a.4.4 0 0 1-.4-.4ZM2 13.6V9.733c0-.22.18-.4.4-.4h3.867c.22 0 .4.18.4.4V13.6a.4.4 0 0 1-.4.4H2.4a.4.4 0 0 1-.4-.4Z" stroke="#000"/></mask><g mask="url(#a)"><path fill="currentColor" d="M0 0h16v16H0z"/></g></svg>