<svg viewBox="0 0 24 24" fill="none" xmlns="http://www.w3.org/2000/svg"><rect width="24" height="24" rx="12" fill="#AE82FC"/><path fill="#fff" fill-opacity=".01" d="M4 4h16v16H4z"/><path fill-rule="evenodd" clip-rule="evenodd" d="M9.082 7.33c.925-.078 1.916-.13 2.918-.13 1.002 0 1.993.052 2.918.13 1.114.094 1.834.158 2.386.288.501.119.781.275 1.022.522.026.027.064.067.088.096.213.246.352.552.432 1.132.085.622.087 1.434.087 2.659 0 1.21-.002 2.01-.087 2.624-.08.571-.218.876-.433 1.124-.024.028-.062.07-.088.096-.244.249-.522.404-1.011.52-.54.128-1.245.19-2.34.28-.927.078-1.933.129-2.974.129-1.04 0-2.047-.051-2.974-.128-1.095-.091-1.8-.153-2.34-.281-.49-.116-.767-.271-1.01-.52a2.379 2.379 0 0 1-.09-.096c-.214-.248-.353-.553-.432-1.124-.085-.614-.087-1.413-.087-2.624 0-1.225.002-2.037.087-2.659.08-.58.22-.886.432-1.132.024-.029.062-.07.088-.096.24-.247.52-.403 1.022-.522.552-.13 1.272-.194 2.386-.288ZM4 12.027c0-2.392 0-3.588.779-4.489.039-.045.09-.101.132-.144.832-.852 1.915-.943 4.081-1.127.949-.08 1.97-.134 3.008-.134s2.06.054 3.008.134c2.166.184 3.249.275 4.081 1.127.042.043.093.1.132.144C20 8.44 20 9.635 20 12.027c0 2.363 0 3.544-.78 4.445a3.55 3.55 0 0 1-.133.145c-.833.852-1.897.94-4.025 1.118-.95.079-1.987.132-3.062.132a37.05 37.05 0 0 1-3.062-.132c-2.128-.178-3.192-.266-4.025-1.118a3.499 3.499 0 0 1-.133-.145C4 15.571 4 14.39 4 12.027ZM9.6 9.74c0-.192.198-.321.374-.244l5.15 2.259a.267.267 0 0 1 0 .488l-5.15 2.259a.267.267 0 0 1-.374-.245V9.741Z" fill="#EDEEF0"/></svg>