<svg fill="currentColor" xmlns="http://www.w3.org/2000/svg" viewBox="0 0 40 40"><path d="M23.125 10a3.125 3.125 0 1 0 0-6.25 3.125 3.125 0 0 0 0 6.25ZM33.125 22.5a3.125 3.125 0 1 0 0-6.25 3.125 3.125 0 0 0 0 6.25ZM24.375 36.25a3.125 3.125 0 1 0 0-6.25 3.125 3.125 0 0 0 0 6.25ZM8.75 31.875a3.125 3.125 0 1 0 0-6.25 3.125 3.125 0 0 0 0 6.25ZM8.125 16.25a3.125 3.125 0 1 0 0-6.25 3.125 3.125 0 0 0 0 6.25ZM31.447 22.013l-5.393 8.475M25.077 9.315l6.097 7.619M11.01 11.923l9.229-3.847M30.003 19.523 20 19.999M20 20l2.402-10.084M10.829 14.691l9.17 5.31M20 20l3.386 10.16M21.365 32.283l-9.606-2.69M11.217 26.831 20 20M8.626 25.628l-.375-9.382" stroke="#4D0B8F" stroke-width="2.5" stroke-linecap="round" stroke-linejoin="round"/></svg>