<svg xmlns="http://www.w3.org/2000/svg" fill="currentColor" viewBox="0 0 16 16"><path fill="#6B6D85" fill-rule="evenodd" stroke="#6B6D85" stroke-linejoin="round" stroke-width=".5" d="M7.326 3.4H4.587a.2.2 0 0 0-.2.2V6.8c0 .332-.262.583-.558.635-.276.047-.64.15-.93.365-.28.209-.499.525-.499 1.032 0 .497.21.789.476.972.278.191.63.27.908.301.314.034.603.291.603.641V13.2c0 .11.09.2.2.2h9.527a.2.2 0 0 0 .2-.198l.086-9.6a.2.2 0 0 0-.2-.202h-2.873c-.107 0-.217.092-.24.228-.049.306-.161.744-.425 1.11-.27.375-.695.67-1.338.67-.643 0-1.067-.294-1.336-.67-.262-.365-.374-.803-.423-1.109-.021-.137-.132-.229-.239-.229ZM4.587 3h2.739c.334 0 .587.267.635.566.044.28.142.647.352.94.203.283.512.501 1.01.501.5 0 .81-.219 1.015-.503.21-.293.31-.66.355-.94.048-.298.3-.564.634-.564H14.2a.6.6 0 0 1 .6.606l-.086 9.6a.6.6 0 0 1-.6.594H4.587a.6.6 0 0 1-.6-.6v-2.455c0-.112-.1-.227-.246-.243-.306-.034-.735-.124-1.092-.37C2.28 9.88 2 9.468 2 8.832c0-.647.29-1.077.66-1.353.363-.269.797-.386 1.1-.439.136-.023.227-.133.227-.24V3.6a.6.6 0 0 1 .6-.6Z" clip-rule="evenodd"/></svg>