<svg viewBox="0 0 24 24" fill="none" xmlns="http://www.w3.org/2000/svg"><rect width="24" height="24" rx="12" fill="#07A0AB"/><path d="m5.715 9.642 5.773-2.886a.4.4 0 0 1 .357 0l5.773 2.887a.4.4 0 0 1 0 .715l-5.773 2.886a.4.4 0 0 1-.357 0l-5.773-2.887a.4.4 0 0 1 0-.715Z" stroke="#fff" stroke-width="1.5" stroke-linecap="round" stroke-linejoin="round"/><path d="M19 12.667v-2.334l-1.333-.666M7 11v3.608a1.333 1.333 0 0 0 .761 1.205l3.334 1.582a1.333 1.333 0 0 0 1.144 0l3.333-1.582a1.333 1.333 0 0 0 .761-1.205V11" stroke="#fff" stroke-width="1.5" stroke-linecap="round" stroke-linejoin="round"/></svg>