<svg xmlns="http://www.w3.org/2000/svg" fill="currentColor" viewBox="0 0 16 16"><g clip-path="url(#a)"><path fill="#6B6D85" d="M2.687 3.488a.437.437 0 0 1-.4.16l-.752-.144a.389.389 0 0 0-.432.24l-.176.48-.176.48c-.064.176 0 .384.176.464l.656.384a.45.45 0 0 1 .208.384c-.016.224 0 .448.016.672a.434.434 0 0 1-.176.4l-.624.432a.378.378 0 0 0-.128.48l.208.464.208.464a.38.38 0 0 0 .448.208l.736-.192c.144-.048.304.016.416.128.144.16.32.32.496.464a.437.437 0 0 1 .16.4l-.144.752a.38.38 0 0 0 .24.432l.48.176.48.176c.176.064.384 0 .464-.176l.384-.656c.08-.144.224-.208.384-.208.208.016.432 0 .64-.016a.434.434 0 0 1 .4.176l.432.64c.112.16.304.208.48.128l.464-.208.464-.208a.38.38 0 0 0 .208-.448l-.192-.72a.4.4 0 0 1 .128-.416c.16-.144.32-.32.464-.496a.437.437 0 0 1 .4-.16l.752.144a.38.38 0 0 0 .432-.24l.176-.48.176-.48c.064-.176 0-.384-.176-.464l-.656-.368c-.144-.08-.208-.224-.208-.384.016-.224 0-.448-.016-.672a.434.434 0 0 1 .176-.4l.64-.432a.378.378 0 0 0 .128-.48l-.208-.464-.208-.464a.38.38 0 0 0-.448-.208l-.72.208c-.16.048-.32 0-.416-.128a4.408 4.408 0 0 0-.48-.464.437.437 0 0 1-.16-.4l.144-.752a.38.38 0 0 0-.24-.432l-.48-.176-.48-.176c-.176-.064-.384 0-.464.176l-.368.64c-.08.144-.224.208-.384.208-.24-.016-.464 0-.704.016a.434.434 0 0 1-.4-.176l-.432-.624a.378.378 0 0 0-.48-.128l-.464.208-.464.208a.38.38 0 0 0-.208.448l.192.736c.048.144-.016.304-.128.416-.176.096-.32.272-.464.448Zm1.2 1.872A2.249 2.249 0 0 1 6.735 4a2.249 2.249 0 0 1 1.36 2.848c-.4 1.168-1.68 1.76-2.848 1.36a2.228 2.228 0 0 1-1.36-2.848Zm10.704 4.816a.264.264 0 0 0-.016-.304l-.208-.208-.208-.208a.242.242 0 0 0-.304-.032l-.368.256c-.08.048-.176.064-.256.016a2.554 2.554 0 0 0-.368-.16c-.08-.032-.16-.112-.16-.192l-.08-.448a.224.224 0 0 0-.224-.192h-.608a.224.224 0 0 0-.224.192l-.08.448c-.016.096-.08.176-.176.192-.128.032-.256.096-.368.144-.08.048-.176.032-.256-.016l-.368-.272a.264.264 0 0 0-.304.016l-.208.208-.208.208a.242.242 0 0 0-.032.304l.256.368c.048.08.064.176.016.256-.064.128-.128.256-.16.384-.032.096-.096.16-.192.176l-.448.08a.224.224 0 0 0-.192.224v.608c0 .112.08.208.192.224l.448.08c.096.016.16.08.192.176.048.128.096.256.16.368.048.08.032.176-.016.256l-.272.368a.24.24 0 0 0 .016.288l.208.208.208.208c.08.08.208.096.304.032l.368-.256c.08-.048.176-.064.256-.016.128.064.24.112.368.16.096.032.16.096.176.192l.08.448a.224.224 0 0 0 .224.192h.608c.112 0 .208-.08.224-.192l.08-.448c.016-.096.08-.16.176-.192.128-.048.256-.096.368-.16.08-.048.176-.032.256.016l.368.272a.265.265 0 0 0 .304-.016l.208-.208.208-.208a.243.243 0 0 0 .032-.304l-.256-.368c-.048-.08-.064-.176-.016-.256.064-.112.112-.24.144-.352a.264.264 0 0 1 .192-.176l.448-.08a.224.224 0 0 0 .192-.224v-.608a.224.224 0 0 0-.192-.224l-.448-.08c-.096-.016-.16-.08-.192-.176-.032-.128-.096-.256-.144-.368-.048-.08-.032-.176.016-.256l.256-.368Zm-1.584 2.688a1.318 1.318 0 0 1-1.872.016 1.318 1.318 0 0 1-.016-1.872c.512-.512 1.36-.528 1.872-.016s.528 1.344.016 1.872Z"/></g><defs><clipPath id="a"><path fill="#fff" d="M0 0h16v16H0z"/></clipPath></defs></svg>