<svg xmlns="http://www.w3.org/2000/svg" fill="currentColor" viewBox="0 0 16 16"><path fill="#6B6D85" fill-rule="evenodd" stroke="#6B6D85" stroke-width=".5" d="M5.47 3.793V5.64h4.81V3.793a2.396 2.396 0 0 0-2.405-2.387A2.396 2.396 0 0 0 5.47 3.793Zm5.216 1.847h1.658a.406.406 0 0 1 .406.406v7.548a.406.406 0 0 1-.406.406H3.406A.406.406 0 0 1 3 13.594V6.046a.406.406 0 0 1 .406-.407h1.659V3.793A2.802 2.802 0 0 1 7.874 1a2.802 2.802 0 0 1 2.811 2.793V5.64Zm-7.28.406v7.548h8.938V6.046H3.406Zm4.469 1.73a.897.897 0 0 0-.9.892c0 .266.118.505.305.67a.603.603 0 0 1 .218.446v1.572c0 .07.057.129.13.129h.494a.13.13 0 0 0 .13-.129V9.784c0-.19.103-.345.219-.447a.89.89 0 0 0 .305-.669.897.897 0 0 0-.901-.893Zm-1.306.892c0-.719.586-1.299 1.306-1.299.72 0 1.307.58 1.307 1.299 0 .389-.172.737-.443.975-.058.05-.08.102-.08.141v1.572a.536.536 0 0 1-.537.535h-.494a.535.535 0 0 1-.536-.535V9.784c0-.039-.023-.091-.08-.141a1.293 1.293 0 0 1-.443-.975Z" clip-rule="evenodd"/></svg>