<svg viewBox="0 0 24 24" fill="none" xmlns="http://www.w3.org/2000/svg"><rect width="24" height="24" rx="12" fill="#42AB45"/><path fill="#fff" fill-opacity=".01" d="M4 4h16v16H4z"/><path fill-rule="evenodd" clip-rule="evenodd" d="M12 15.733c-2.877 0-5.302-1.47-6.83-3.733C6.697 9.737 9.122 8.267 12 8.267c2.877 0 5.302 1.47 6.83 3.733-1.528 2.263-3.953 3.733-6.83 3.733ZM12 7.2c-3.405 0-6.233 1.82-7.919 4.517a.533.533 0 0 0 0 .566C5.767 14.98 8.595 16.8 12 16.8c3.405 0 6.233-1.82 7.919-4.517a.533.533 0 0 0 0-.566C18.233 9.02 15.405 7.2 12 7.2Zm0 6.933a2.133 2.133 0 1 0 0-4.266 2.133 2.133 0 0 0 0 4.266Z" fill="#fff"/></svg>