<svg viewBox="0 0 24 24" fill="none" xmlns="http://www.w3.org/2000/svg"><rect width="24" height="24" rx="12" fill="#FF802B"/><path fill="#fff" fill-opacity=".01" d="M4 4h16v16H4z"/><path fill-rule="evenodd" clip-rule="evenodd" d="M7.2 6.667c0-.295.239-.534.533-.534h5.958c.142 0 .278.057.378.157l2.575 2.575c.1.1.156.235.156.377v8.091a.534.534 0 0 1-.533.534H7.733a.533.533 0 0 1-.533-.534V6.667Zm.533-1.6a1.6 1.6 0 0 0-1.6 1.6v10.666a1.6 1.6 0 0 0 1.6 1.6h8.534a1.6 1.6 0 0 0 1.6-1.6V9.242a1.6 1.6 0 0 0-.469-1.132l-2.575-2.575a1.6 1.6 0 0 0-1.132-.468H7.733Zm1.067 3.2a.533.533 0 1 0 0 1.066H12a.533.533 0 0 0 0-1.066H8.8Zm0 3.2a.533.533 0 0 0 0 1.066h6.4a.533.533 0 1 0 0-1.066H8.8Zm0 3.2a.533.533 0 0 0 0 1.066h6.4a.533.533 0 0 0 0-1.066H8.8Z" fill="#EDEEF0"/></svg>