<svg viewBox="0 0 24 24" fill="none" xmlns="http://www.w3.org/2000/svg"><rect width="24" height="24" rx="12" fill="#FFC53D"/><path fill="#fff" fill-opacity=".01" d="M4 4h16v16H4z"/><path fill-rule="evenodd" clip-rule="evenodd" d="m11.445 5.335-.022.054-1.464 3.518a.32.32 0 0 1-.27.196l-3.798.305-.058.004-.354.029-.32.025a.32.32 0 0 0-.183.562l.244.21.27.23.044.038 2.894 2.48c.091.077.13.2.103.317l-.884 3.706-.014.057-.082.345-.075.313a.32.32 0 0 0 .478.347l.275-.168.303-.185.05-.03 3.251-1.986a.32.32 0 0 1 .334 0l3.252 1.986.05.03.302.185.275.168a.32.32 0 0 0 .478-.347l-.075-.313-.082-.345-.014-.057-.884-3.706a.32.32 0 0 1 .103-.318l2.894-2.479.044-.037.27-.231.244-.21a.32.32 0 0 0-.182-.562l-.321-.025-.354-.029-.058-.004-3.798-.305a.32.32 0 0 1-.27-.196L12.578 5.39l-.022-.054-.137-.327-.123-.298a.32.32 0 0 0-.591 0l-.124.298-.136.327ZM12 6.778l-1.056 2.539c-.2.48-.651.808-1.17.85l-2.74.22 2.088 1.788c.395.338.567.87.447 1.375l-.638 2.675 2.346-1.433a1.386 1.386 0 0 1 1.446 0l2.347 1.433-.638-2.675a1.387 1.387 0 0 1 .447-1.375l2.088-1.789-2.741-.22a1.387 1.387 0 0 1-1.17-.85L12 6.779Z" fill="#1C2024"/></svg>