<svg xmlns="http://www.w3.org/2000/svg" fill="currentColor" viewBox="0 0 16 16"><path fill="#6B6D85" fill-rule="evenodd" stroke="#6B6D85" stroke-linecap="round" stroke-width=".5" d="M2 3h12v10H2V3Zm12-.5H2a.5.5 0 0 0-.5.5v10a.5.5 0 0 0 .5.5h12a.5.5 0 0 0 .5-.5V3a.5.5 0 0 0-.5-.5Zm-3.558 2.697a1.375 1.375 0 1 0 0 2.75 1.375 1.375 0 0 0 0-2.75ZM8.567 6.572a1.875 1.875 0 1 1 3.376 1.123v3.441a.25.25 0 0 1-.383.212l-1.14-.72-1.09.717a.25.25 0 0 1-.387-.209V7.7a1.867 1.867 0 0 1-.376-1.127Zm1.875 1.875c.368 0 .711-.106 1.001-.29v2.525l-.891-.564a.25.25 0 0 0-.272.003l-.837.551V8.16c.29.183.632.288.999.288Zm-6.665-3.27a.25.25 0 0 1 .25-.25h3a.25.25 0 0 1 0 .5h-3a.25.25 0 0 1-.25-.25Zm.25 1.724a.25.25 0 0 0 0 .5h3a.25.25 0 0 0 0-.5h-3Z" clip-rule="evenodd"/></svg>