<svg xmlns="http://www.w3.org/2000/svg" fill="none" viewBox="0 0 81 54"><path fill="#23C3C3" d="M77.788 38.675c-1.48 6.925-19.307 8.985-39.818 4.602-20.512-4.383-35.94-13.55-34.46-20.474 1.48-6.925 19.307-8.985 39.818-4.602 20.512 4.383 35.94 13.55 34.46 20.474ZM11.77 5.092a4.074 4.074 0 1 1-8.148 0 4.074 4.074 0 0 1 8.149 0Z"/><path fill="#fff" d="M76.96 21.39a4.074 4.074 0 1 1-8.149 0 4.074 4.074 0 0 1 8.15 0Z"/><path fill="#000" fill-rule="evenodd" d="M23.737 11.317c.322 0 .582.26.582.582v5.947a.582.582 0 1 1-1.164 0V11.9c0-.321.26-.582.582-.582ZM62.051 17.868c.322 0 .582.26.582.582v9.955a.582.582 0 1 1-1.164 0V18.45c0-.322.26-.582.582-.582Z" clip-rule="evenodd"/><path fill="#FCFEFF" d="M20.353 9.098V3.366l13.274 3.319v6.033l-13.274-3.62Z"/><path fill="#000" fill-rule="evenodd" d="M16.844 9.637a.582.582 0 0 1 .725-.39c1.296.387 3.598 1.03 6.04 1.71 3.466.966 7.212 2.01 8.757 2.518a.582.582 0 0 1-.363 1.106c-1.535-.504-5.198-1.525-8.627-2.48-2.456-.685-4.793-1.336-6.141-1.74a.582.582 0 0 1-.39-.724ZM16.458 3.784c.079-.312.396-.5.707-.42 2.431.618 5.262 1.368 7.943 2.078 2.766.733 5.373 1.424 7.218 1.885a.582.582 0 1 1-.282 1.13 621.727 621.727 0 0 1-7.249-1.893 904.852 904.852 0 0 0-7.917-2.072.582.582 0 0 1-.42-.708Z" clip-rule="evenodd"/><path fill="#000" fill-rule="evenodd" d="M18.005 3.207c.322 0 .582.26.582.582V10.304a.582.582 0 1 1-1.164 0V3.79c0-.321.26-.582.582-.582Zm13.275 3.62c.321 0 .582.26.582.582v6.515a.582.582 0 0 1-1.165 0V7.41c0-.322.261-.583.583-.583Z" clip-rule="evenodd"/><path fill="#FCFEFF" d="M40.867 14.529V8.797l13.275 3.318v6.034l-13.275-3.62Z"/><path fill="#000" fill-rule="evenodd" d="M37.774 15.068a.582.582 0 0 1 .725-.39c1.295.387 3.598 1.029 6.04 1.71 3.465.966 7.211 2.01 8.757 2.517a.582.582 0 1 1-.363 1.106c-1.535-.504-5.198-1.524-8.627-2.48-2.457-.684-4.793-1.335-6.141-1.739a.582.582 0 0 1-.391-.724ZM37.388 9.215c.079-.312.396-.5.707-.42 2.431.618 5.262 1.368 7.943 2.078a612.02 612.02 0 0 0 7.218 1.885.582.582 0 0 1-.282 1.13c-1.834-.46-4.465-1.156-7.249-1.893-2.69-.713-5.522-1.463-7.917-2.073a.582.582 0 0 1-.42-.707Z" clip-rule="evenodd"/><path fill="#000" fill-rule="evenodd" d="M38.935 8.638c.321 0 .582.26.582.582V15.735a.582.582 0 1 1-1.165 0V9.22c0-.322.261-.582.583-.582Zm13.274 3.62c.322 0 .582.26.582.582v6.515a.582.582 0 1 1-1.164 0 11619.788 11619.788 0 0 1 0-6.515c0-.321.261-.582.582-.582Z" clip-rule="evenodd"/><path fill="#FCFEFF" d="M40.873 24.211v-5.732l13.274 3.319v6.033l-13.274-3.62Z"/><path fill="#000" fill-rule="evenodd" d="M37.774 24.721a.582.582 0 0 1 .725-.39c1.295.388 3.598 1.03 6.04 1.71 3.465.966 7.211 2.01 8.757 2.518a.582.582 0 1 1-.363 1.106c-1.535-.504-5.198-1.525-8.627-2.48-2.457-.684-4.793-1.335-6.141-1.74a.582.582 0 0 1-.391-.724ZM37.388 18.869c.079-.312.396-.5.707-.42 2.431.618 5.262 1.368 7.943 2.078 2.766.733 5.373 1.423 7.218 1.885a.582.582 0 0 1-.282 1.13c-1.834-.46-4.465-1.156-7.249-1.894-2.69-.712-5.522-1.462-7.917-2.072a.582.582 0 0 1-.42-.707Z" clip-rule="evenodd"/><path fill="#000" fill-rule="evenodd" d="M38.935 18.292c.321 0 .582.26.582.582V25.389a.582.582 0 0 1-1.165 0V18.874c0-.322.261-.582.583-.582Zm13.274 3.62c.322 0 .582.26.582.582V29.009a.582.582 0 1 1-1.164 0V22.494c0-.322.261-.582.582-.582ZM10.196 5.422a.582.582 0 0 1 .72-.399c.151.044.451.104.929.2a108.554 108.554 0 0 1 6.306 1.444.582.582 0 1 1-.292 1.127 107.39 107.39 0 0 0-6.14-1.408c-.547-.11-.93-.188-1.125-.244a.582.582 0 0 1-.398-.72Zm20.801 5.345a.582.582 0 0 1 .71-.418c1.008.26 2.196.524 3.408.792l.024.006c1.215.269 2.452.543 3.526.82a.582.582 0 1 1-.29 1.128 109.197 109.197 0 0 0-3.488-.812l-.037-.008c-1.202-.267-2.407-.534-3.435-.8a.582.582 0 0 1-.418-.708Zm21.139 5.281a.582.582 0 0 1 .709-.417c9.988 2.583 15.88 4.22 16.856 4.517a.582.582 0 1 1-.34 1.113c-.947-.288-6.817-1.92-16.808-4.503a.582.582 0 0 1-.417-.71Z" clip-rule="evenodd"/><path fill="#000" fill-rule="evenodd" d="M70.68 19.217c-.37.667-.467 1.604-.388 2.596a.582.582 0 0 1-.383.593c.088.397.255.822.535 1.308.423.733.937 1.059 1.53 1.188.633.138 1.4.062 2.327-.126 1.194-.242 1.899-.97 2.192-1.849.3-.9.178-1.993-.386-2.93-.712-1.18-1.798-1.85-3.324-1.85-1.16 0-1.765.457-2.103 1.07Zm-.985-.623c.568-.982 1.572-1.61 3.088-1.61 1.943 0 3.403.89 4.321 2.413.726 1.204.91 2.651.493 3.899-.423 1.269-1.458 2.295-3.065 2.62-.953.194-1.923.317-2.807.123-.924-.201-1.708-.737-2.289-1.743-.57-.988-.785-1.842-.772-2.713.013-.834.238-1.655.48-2.54l.006-.021a.582.582 0 0 1 .545-.428ZM4.238 4.03c-.135 1.102.144 1.87.619 2.367.492.515 1.273.822 2.28.822.822 0 1.404-.215 1.808-.515.407-.302.673-.72.816-1.188.3-.978.033-2.04-.434-2.507-.598-.598-1.168-.935-1.753-1.056-.527-.11-1.123-.058-1.84.216A3.51 3.51 0 0 0 4.239 4.03Zm.56-2.64a4.639 4.639 0 0 0-1.682 2.324.581.581 0 0 0-.025.107c-.187 1.402.148 2.567.924 3.38.768.804 1.89 1.182 3.121 1.182 1.034 0 1.869-.273 2.504-.745a3.449 3.449 0 0 0 1.234-1.78c.398-1.298.11-2.838-.724-3.672a6.701 6.701 0 0 0-.48-.437.582.582 0 0 0-.15-.993C8.242.244 6.559.336 5.2 1.129a7.01 7.01 0 0 0-.16.067.58.58 0 0 0-.24.195Z" clip-rule="evenodd"/><path fill="#000" fill-rule="evenodd" d="M6.011 2.076a.582.582 0 0 1 .61.057l2.602 1.972a.582.582 0 0 1-.063.97c-.28.16-.648.387-1.027.622l-.584.36c-.27.165-.53.318-.725.42-.09.047-.199.1-.298.132a.73.73 0 0 1-.282.037.598.598 0 0 1-.555-.598l-.001-2.553v-.898c0-.22.125-.423.323-.521Zm.841 1.693v1.349l.091-.055c.171-.104.358-.22.548-.338l.343-.212-.982-.744ZM71.655 19.269a.582.582 0 0 1 .609.554c.02.42.027.82.034 1.212.013.695.025 1.36.106 2.043a.582.582 0 0 1-1.156.136c-.087-.734-.102-1.506-.116-2.243-.007-.377-.014-.745-.031-1.093a.582.582 0 0 1 .554-.61Z" clip-rule="evenodd"/><path fill="#000" fill-rule="evenodd" d="M75.69 20.057a.582.582 0 0 1-.555.608c-.338.015-.677.033-1.018.05-1.042.053-2.098.107-3.16.107a.582.582 0 0 1 0-1.164c1.03 0 2.043-.052 3.078-.105.346-.017.695-.035 1.047-.051a.582.582 0 0 1 .608.555Z" clip-rule="evenodd"/><path fill="#000" fill-rule="evenodd" d="M74.326 19.267c.32 0 .582.26.582.582 0 .656.019 1.314.038 1.981v.006c.02.663.04 1.335.04 2.007a.582.582 0 1 1-1.164 0c0-.654-.02-1.311-.04-1.979v-.002c-.019-.664-.039-1.338-.039-2.013 0-.322.261-.582.583-.582Z" clip-rule="evenodd"/><path fill="#000" fill-rule="evenodd" d="M75.526 22.9a.582.582 0 0 1-.494.658l-.584.084c-1.027.15-2.078.302-3.13.39a.582.582 0 0 1-.097-1.16c1.014-.085 2.023-.232 3.051-.38.198-.03.396-.058.596-.087a.582.582 0 0 1 .658.494ZM22.884 17.66a.582.582 0 0 1 .738-.365c.58.197 7.637 2.093 15.65 4.236a.582.582 0 0 1-.3 1.124c-7.971-2.131-15.095-4.044-15.724-4.257a.582.582 0 0 1-.364-.738Zm28.486 7.653a.582.582 0 0 1 .712-.412c5.091 1.362 10.291 2.808 10.745 2.949a.582.582 0 1 1-.345 1.111c-.427-.132-5.6-1.571-10.7-2.935a.582.582 0 0 1-.412-.713Z" clip-rule="evenodd"/><path fill="#23C3C3" d="M10.914 27.913a4.074 4.074 0 1 1-8.149 0 4.074 4.074 0 0 1 8.15 0Z"/><path fill="#fff" d="M76.104 44.21a4.074 4.074 0 1 1-8.149 0 4.074 4.074 0 0 1 8.149 0Z"/><path fill="#000" fill-rule="evenodd" d="M22.88 34.138c.322 0 .583.261.583.583v5.947a.582.582 0 1 1-1.164 0V34.72c0-.322.26-.583.582-.583ZM61.195 40.689c.321 0 .582.26.582.582v9.956a.582.582 0 1 1-1.164 0V41.27c0-.322.26-.582.582-.582Z" clip-rule="evenodd"/><path fill="#FCFEFF" d="M19.497 31.92v-5.733l13.274 3.319v6.033l-13.274-3.62Z"/><path fill="#000" fill-rule="evenodd" d="M15.988 32.458a.582.582 0 0 1 .724-.39c1.296.388 3.599 1.03 6.04 1.71 3.466.966 7.212 2.01 8.758 2.518a.582.582 0 0 1-.363 1.106c-1.535-.504-5.198-1.525-8.627-2.48-2.457-.684-4.793-1.335-6.142-1.74a.582.582 0 0 1-.39-.724ZM15.601 26.605c.08-.311.396-.5.708-.42a898.65 898.65 0 0 1 7.942 2.079c2.766.732 5.373 1.423 7.219 1.884a.582.582 0 0 1-.282 1.13 620.478 620.478 0 0 1-7.25-1.893c-2.689-.712-5.521-1.463-7.916-2.072a.582.582 0 0 1-.42-.708Z" clip-rule="evenodd"/><path fill="#000" fill-rule="evenodd" d="M17.149 26.028c.321 0 .582.26.582.582V33.125a.582.582 0 1 1-1.165 0V26.61c0-.321.261-.582.583-.582Zm13.274 3.62c.322 0 .582.261.582.582v6.515a.582.582 0 0 1-1.164 0v-6.514c0-.322.26-.583.582-.583Z" clip-rule="evenodd"/><path fill="#FCFEFF" d="M40.011 37.35v-5.732l13.274 3.318v6.034l-13.274-3.62Z"/><path fill="#000" fill-rule="evenodd" d="M36.918 37.889a.582.582 0 0 1 .724-.39c1.296.387 3.598 1.03 6.04 1.71 3.466.966 7.212 2.01 8.757 2.517a.582.582 0 0 1-.363 1.106c-1.535-.504-5.197-1.524-8.626-2.48-2.457-.684-4.794-1.335-6.142-1.739a.582.582 0 0 1-.39-.724ZM36.531 32.036c.08-.312.396-.5.708-.42 2.43.618 5.261 1.368 7.942 2.078 2.766.733 5.373 1.423 7.219 1.885a.582.582 0 0 1-.282 1.13c-1.834-.46-4.465-1.156-7.25-1.893-2.689-.713-5.521-1.463-7.916-2.073a.582.582 0 0 1-.42-.707Z" clip-rule="evenodd"/><path fill="#000" fill-rule="evenodd" d="M38.078 31.459c.322 0 .582.26.582.582V38.556a.582.582 0 0 1-1.164 0V32.041c0-.321.26-.582.582-.582Zm13.275 3.62c.322 0 .582.26.582.582v6.515a.582.582 0 0 1-1.164 0v-6.514c0-.322.26-.583.582-.583Z" clip-rule="evenodd"/><path fill="#FCFEFF" d="M40.017 47.032V41.3L53.29 44.62v6.033l-13.274-3.62Z"/><path fill="#000" fill-rule="evenodd" d="M36.918 47.542a.582.582 0 0 1 .724-.39c1.296.388 3.598 1.03 6.04 1.71 3.466.966 7.212 2.01 8.757 2.518a.582.582 0 0 1-.363 1.106c-1.535-.504-5.197-1.524-8.626-2.48-2.457-.684-4.794-1.335-6.142-1.739a.582.582 0 0 1-.39-.725ZM36.531 41.69c.08-.312.396-.5.708-.42 2.43.618 5.261 1.368 7.942 2.078a612.02 612.02 0 0 0 7.219 1.885.582.582 0 1 1-.282 1.13 620.424 620.424 0 0 1-7.25-1.893c-2.689-.713-5.521-1.463-7.916-2.073a.582.582 0 0 1-.42-.707Z" clip-rule="evenodd"/><path fill="#000" fill-rule="evenodd" d="M38.078 41.113c.322 0 .582.26.582.582V48.21a.582.582 0 0 1-1.164 0V41.695c0-.322.26-.582.582-.582Zm13.275 3.62c.322 0 .582.26.582.582v6.515a.582.582 0 1 1-1.164 0v-6.514c0-.322.26-.583.582-.583ZM9.34 28.243a.582.582 0 0 1 .72-.399c.151.044.45.104.928.2a108.416 108.416 0 0 1 6.306 1.444.582.582 0 1 1-.292 1.127 107.518 107.518 0 0 0-6.139-1.408c-.547-.11-.93-.188-1.125-.244a.582.582 0 0 1-.399-.72Zm20.8 5.345a.582.582 0 0 1 .71-.418c1.008.26 2.197.524 3.409.792l.024.006c1.215.27 2.451.544 3.526.82a.582.582 0 0 1-.291 1.128 108.851 108.851 0 0 0-3.487-.812l-.037-.008c-1.202-.266-2.407-.534-3.435-.8a.582.582 0 0 1-.419-.708ZM51.28 38.87a.582.582 0 0 1 .71-.418c9.987 2.583 15.88 4.22 16.855 4.517a.582.582 0 1 1-.339 1.114c-.947-.289-6.818-1.92-16.808-4.504a.582.582 0 0 1-.418-.71Z" clip-rule="evenodd"/><path fill="#000" fill-rule="evenodd" d="M69.823 42.038c-.368.667-.466 1.604-.388 2.596a.582.582 0 0 1-.383.593c.088.397.255.822.536 1.308.422.733.936 1.059 1.53 1.188.633.139 1.4.062 2.326-.126 1.194-.242 1.9-.97 2.193-1.849.3-.899.178-1.993-.386-2.93-.713-1.18-1.798-1.849-3.325-1.849-1.16 0-1.764.456-2.103 1.069Zm-.985-.623c.568-.981 1.573-1.61 3.088-1.61 1.944 0 3.403.89 4.322 2.413.726 1.205.91 2.651.493 3.9-.424 1.268-1.458 2.294-3.065 2.62-.954.193-1.923.316-2.807.123-.924-.202-1.709-.737-2.29-1.744-.569-.987-.784-1.842-.771-2.713.012-.834.237-1.655.48-2.54l.006-.021a.582.582 0 0 1 .544-.428ZM3.381 26.852c-.134 1.1.145 1.87.62 2.366.491.515 1.273.822 2.279.822.823 0 1.404-.215 1.809-.515.406-.302.672-.72.816-1.188.3-.978.032-2.04-.434-2.507-.598-.598-1.168-.934-1.754-1.056-.526-.11-1.122-.058-1.839.216a3.51 3.51 0 0 0-1.497 1.862Zm.56-2.64a4.639 4.639 0 0 0-1.682 2.323.582.582 0 0 0-.025.107c-.187 1.402.148 2.568.925 3.38.767.804 1.889 1.182 3.12 1.182 1.034 0 1.87-.273 2.504-.745a3.449 3.449 0 0 0 1.235-1.78c.398-1.298.11-2.838-.724-3.672a6.744 6.744 0 0 0-.48-.437.582.582 0 0 0-.15-.993c-1.28-.512-2.962-.42-4.322.374a6.98 6.98 0 0 0-.159.066.58.58 0 0 0-.241.195Z" clip-rule="evenodd"/><path fill="#000" fill-rule="evenodd" d="M5.155 24.897a.582.582 0 0 1 .61.057l2.602 1.973a.582.582 0 0 1-.064.97c-.28.159-.648.387-1.027.621-.195.121-.393.244-.583.36-.271.165-.53.318-.725.42-.091.048-.2.1-.298.133-.036.01-.148.047-.283.036a.598.598 0 0 1-.555-.598 3106.297 3106.297 0 0 1 0-3.45c0-.222.125-.424.323-.522Zm.84 1.693v1.349l.092-.055c.17-.104.358-.22.547-.338l.344-.212-.982-.744ZM70.798 42.09a.582.582 0 0 1 .61.554c.02.42.027.82.034 1.212.013.696.025 1.36.105 2.043a.582.582 0 1 1-1.156.136c-.086-.733-.101-1.506-.116-2.243a40.158 40.158 0 0 0-.03-1.093.582.582 0 0 1 .553-.61Z" clip-rule="evenodd"/><path fill="#000" fill-rule="evenodd" d="M74.834 42.878a.582.582 0 0 1-.555.608c-.338.015-.678.033-1.019.05-1.042.053-2.097.107-3.159.107a.582.582 0 1 1 0-1.164c1.03 0 2.043-.052 3.077-.105.347-.017.695-.035 1.048-.051a.582.582 0 0 1 .608.555Z" clip-rule="evenodd"/><path fill="#000" fill-rule="evenodd" d="M73.469 42.088c.322 0 .582.26.582.582 0 .656.02 1.314.039 1.981v.006c.02.663.04 1.335.04 2.007a.582.582 0 0 1-1.165 0c0-.654-.019-1.31-.039-1.978v-.003c-.02-.664-.039-1.338-.039-2.013 0-.322.26-.582.582-.582Z" clip-rule="evenodd"/><path fill="#000" fill-rule="evenodd" d="M74.67 45.72a.582.582 0 0 1-.494.659l-.584.084c-1.028.15-2.078.302-3.131.39a.582.582 0 1 1-.097-1.16c1.014-.085 2.024-.232 3.052-.38.198-.03.396-.058.595-.087a.582.582 0 0 1 .659.494ZM22.027 40.48a.582.582 0 0 1 .738-.364c.581.197 7.638 2.093 15.651 4.236a.582.582 0 0 1-.3 1.124c-7.972-2.131-15.096-4.044-15.725-4.257a.582.582 0 0 1-.364-.738Zm28.486 7.654a.582.582 0 0 1 .713-.412c5.09 1.362 10.29 2.808 10.744 2.949a.582.582 0 0 1-.345 1.112c-.426-.133-5.6-1.572-10.7-2.936a.582.582 0 0 1-.412-.713Z" clip-rule="evenodd"/></svg>