<svg xmlns="http://www.w3.org/2000/svg" fill="currentColor" viewBox="0 0 16 16"><path fill="#6B6D85" fill-rule="evenodd" d="m8.51 9.188-2.664 2.664-.6.6a1.192 1.192 0 0 1-.846.348c-.66 0-1.2-.54-1.2-1.2 0-.33.132-.63.354-.846L6.818 7.49A2.367 2.367 0 0 0 6.2 7.4c-.666 0-1.254.276-1.692.708l-.006-.006-1.8 1.8.006.006A2.395 2.395 0 0 0 2 11.6 2.4 2.4 0 0 0 4.4 14c.666 0 1.254-.276 1.692-.708l.006.006 1.8-1.8-.006-.006A2.395 2.395 0 0 0 8.6 9.8c0-.216-.036-.414-.09-.612ZM14 4.4A2.4 2.4 0 0 0 11.6 2c-.666 0-1.254.276-1.692.708l-.006-.006-1.8 1.8.006.006A2.395 2.395 0 0 0 7.4 6.2c0 .216.036.414.09.612l2.664-2.664.6-.6c.216-.216.516-.348.846-.348.66 0 1.2.54 1.2 1.2 0 .33-.132.63-.354.846L9.182 8.51c.204.054.402.09.618.09.666 0 1.254-.276 1.692-.708l.006.006 1.8-1.8-.006-.006A2.395 2.395 0 0 0 14 4.4Zm-9 6a.602.602 0 0 0 1.026.426l4.8-4.8a.602.602 0 1 0-.852-.852l-1.2 1.2-1.2 1.2-1.2 1.2-1.2 1.2A.598.598 0 0 0 5 10.4Z" clip-rule="evenodd"/></svg>