<svg viewBox="0 0 20 21" xmlns="http://www.w3.org/2000/svg"><g filter="url(#a)"><rect x="2.249" y="2.249" width="15.5" height="15.5" rx="4.25" fill="#42AB45" stroke="#fff" stroke-width=".5"/></g><path fill-rule="evenodd" clip-rule="evenodd" d="M3.672 16.329a3.987 3.987 0 0 0 2.827 1.17h7a4 4 0 0 0 4-4v-7a3.987 3.987 0 0 0-1.17-2.827L3.672 16.33Z" fill="#FCB519"/><path d="M11.226 4.441 7.043 8.58 4.899 6.556a.59.59 0 0 0-.81.858l2.572 2.425a.59.59 0 0 0 .831-.021l4.587-4.562a.59.59 0 0 0-.854-.815Z" fill="#fff"/><path d="M13.52 9.475v3.34l-.204-3.34h.204Zm0 0h.213l-.213 3.419" stroke="#fff" stroke-linecap="round" stroke-linejoin="round"/><path d="M14.073 14.669a.561.561 0 0 0-.548-.574.561.561 0 0 0-.548.574c0 .322.25.573.548.573a.561.561 0 0 0 .548-.573Z" fill="#fff" stroke="#fff" stroke-width=".342"/><defs><filter id="a" x="-.001" y=".499" width="20" height="20" filterUnits="userSpaceOnUse" color-interpolation-filters="sRGB"><feFlood flood-opacity="0" result="BackgroundImageFix"/><feColorMatrix in="SourceAlpha" values="0 0 0 0 0 0 0 0 0 0 0 0 0 0 0 0 0 0 127 0" result="hardAlpha"/><feOffset dy=".5"/><feGaussianBlur stdDeviation="1"/><feColorMatrix values="0 0 0 0 0.376471 0 0 0 0 0.380392 0 0 0 0 0.439216 0 0 0 0.16 0"/><feBlend in2="BackgroundImageFix" result="effect1_dropShadow_4722_82"/><feColorMatrix in="SourceAlpha" values="0 0 0 0 0 0 0 0 0 0 0 0 0 0 0 0 0 0 127 0" result="hardAlpha"/><feOffset/><feGaussianBlur stdDeviation=".5"/><feColorMatrix values="0 0 0 0 0.156863 0 0 0 0 0.160784 0 0 0 0 0.239216 0 0 0 0.08 0"/><feBlend in2="effect1_dropShadow_4722_82" result="effect2_dropShadow_4722_82"/><feBlend in="SourceGraphic" in2="effect2_dropShadow_4722_82" result="shape"/></filter></defs></svg>