<svg xmlns="http://www.w3.org/2000/svg" viewBox="0 0 24 24" fill="none"><path fill="#6B6D85" d="M12.049 5.004a.599.599 0 0 0-.15.035L1.276 9.09c-.16.06-.27.194-.27.331s.11.271.27.331l10.621 4.052a.628.628 0 0 0 .438 0l10.62-4.052c.162-.06.271-.194.271-.33 0-.138-.11-.272-.27-.332L12.335 5.04a.622.622 0 0 0-.287-.035ZM1.481 11.628c-.217 0-.424.127-.47.29-.048.161.07.342.266.413l10.621 4.051a.63.63 0 0 0 .438 0l10.62-4.051c.227-.088.33-.325.215-.498-.114-.174-.425-.252-.652-.164l-10.402 3.97-10.402-3.97a.614.614 0 0 0-.234-.04Zm0 2.579c-.217 0-.424.127-.47.289-.048.162.07.343.266.413l10.621 4.052a.63.63 0 0 0 .438 0l10.62-4.052c.227-.087.33-.325.215-.498-.114-.173-.425-.251-.652-.164l-10.402 3.971-10.402-3.97a.616.616 0 0 0-.234-.041Z"/></svg>
