<svg xmlns="http://www.w3.org/2000/svg" fill="currentColor" viewBox="0 0 24 24"><path fill="currentColor" fill-rule="evenodd" d="M11.855 20.74.29 15.77C.116 15.696 0 15.496 0 15.275c0-.222.116-.422.29-.496l3.654-1.57-2.21-.95c-.173-.073-.288-.274-.288-.495 0-.221.115-.422.289-.496l3.655-1.57-2.21-.95c-.173-.073-.288-.273-.288-.495 0-.221.115-.422.289-.495l8.674-3.729a.375.375 0 0 1 .29 0l8.674 3.729c.174.073.29.274.29.495 0 .222-.116.422-.29.496l-2.209.949 3.655 1.57c.174.074.29.275.29.496 0 .221-.116.422-.29.495l-2.21.95 3.656 1.57c.173.074.289.274.289.496 0 .221-.116.421-.29.495l-11.565 4.97a.35.35 0 0 1-.29 0ZM12 11.415l7.373-3.17L12 5.076l-7.373 3.17L12 11.416Zm0 5.222a.348.348 0 0 1-.145-.031v-.004l-6.61-2.84-3.51 1.508L12 19.685l10.265-4.41-3.51-1.508-6.61 2.84a.348.348 0 0 1-.145.031Zm-9.397-4.786L12 15.718l9.542-3.866-3.759-1.581-4.915 2.108c-.29.176-1.07.422-1.88 0-.81-.421-3.518-1.698-4.77-2.284l-3.615 1.757Z" clip-rule="evenodd"/><path fill="currentColor" d="m4.916 13.257-3.903 1.758-.29.35 11.278 4.92 11.132-5.095-4.192-1.933L12 16.244l-7.085-2.987Z"/></svg>
