<svg xmlns="http://www.w3.org/2000/svg" fill="currentColor" viewBox="0 0 24 24"><path fill="currentColor" d="M12.035 21.016 0 14.066l5.155-2.975.42.728-3.893 2.247 10.353 5.979 10.284-5.937-3.89-2.246.42-.728L24 14.108l-11.965 6.908Z"/><path fill="currentColor" d="M12.036 15.727a.418.418 0 0 1-.21-.056l-.365-.21a.42.42 0 1 1 .42-.729l.155.09.153-.09a.42.42 0 0 1 .42.728l-.363.21a.417.417 0 0 1-.21.057ZM10.175 14.653a.419.419 0 0 1-.21-.056l-.747-.432a.42.42 0 1 1 .42-.728l.748.432a.42.42 0 0 1-.21.784Zm-2.243-1.295a.418.418 0 0 1-.21-.056l-.747-.432a.42.42 0 1 1 .42-.728l.748.432a.42.42 0 0 1-.21.784ZM5.69 12.063a.418.418 0 0 1-.21-.056l-.748-.432a.42.42 0 1 1 .421-.728l.748.432a.42.42 0 0 1-.211.784Zm-2.243-1.295a.419.419 0 0 1-.21-.056l-.747-.432a.42.42 0 1 1 .42-.728l.748.432a.42.42 0 0 1-.211.784ZM1.205 9.473a.418.418 0 0 1-.21-.056l-.364-.21a.42.42 0 0 1 0-.729l.364-.21a.42.42 0 0 1 .574.574.42.42 0 0 1-.364.631ZM2.69 8.196a.42.42 0 0 1-.21-.785l.742-.428a.42.42 0 1 1 .42.727l-.742.43a.419.419 0 0 1-.21.056ZM4.918 6.91a.42.42 0 0 1-.21-.785l.742-.429a.42.42 0 0 1 .42.729l-.742.428a.419.419 0 0 1-.21.057Zm2.228-1.286a.42.42 0 0 1-.211-.785l.743-.429a.42.42 0 1 1 .42.729l-.743.428a.419.419 0 0 1-.21.057Zm2.228-1.287a.42.42 0 0 1-.211-.784l.743-.429a.42.42 0 0 1 .42.728l-.743.43a.42.42 0 0 1-.21.055ZM12.33 3.051a.418.418 0 0 1-.21-.056l-.155-.09-.154.09a.42.42 0 1 1-.42-.729l.364-.21a.42.42 0 0 1 .42 0l.364.21a.42.42 0 0 1-.21.785ZM21.3 8.231a.418.418 0 0 1-.21-.056l-.748-.432a.42.42 0 1 1 .42-.728l.749.432a.42.42 0 0 1-.21.784Zm-2.243-1.295a.418.418 0 0 1-.21-.056l-.747-.432a.42.42 0 1 1 .42-.728l.748.432a.42.42 0 0 1-.21.784Zm-2.242-1.295a.418.418 0 0 1-.21-.056l-.748-.432a.42.42 0 1 1 .42-.728l.748.432a.42.42 0 0 1-.21.784Zm-2.243-1.295a.418.418 0 0 1-.21-.056l-.748-.432a.42.42 0 1 1 .421-.728l.748.432a.42.42 0 0 1-.211.784ZM22.796 9.515a.42.42 0 0 1-.364-.63.42.42 0 0 1 .574-.575l.364.21a.42.42 0 0 1 0 .728l-.364.21a.418.418 0 0 1-.21.057ZM13.885 14.66a.42.42 0 0 1-.211-.785l.742-.429a.42.42 0 0 1 .42.728l-.742.429a.418.418 0 0 1-.21.056Zm2.227-1.287a.42.42 0 0 1-.21-.784l.742-.429a.42.42 0 1 1 .42.728l-.742.429a.421.421 0 0 1-.21.056Zm2.228-1.286a.42.42 0 0 1-.211-.784l.743-.429a.42.42 0 1 1 .42.728l-.743.429a.42.42 0 0 1-.21.056Zm2.228-1.286a.42.42 0 0 1-.211-.784l.743-.429a.42.42 0 1 1 .42.728l-.742.429a.419.419 0 0 1-.21.056Z"/></svg>
