<svg xmlns="http://www.w3.org/2000/svg" viewBox="0 0 24 24" fill="none"><path fill="#0278D5" fill-rule="evenodd" d="m11.373 19.647-10.12-4.348c-.152-.065-.253-.24-.253-.434 0-.193.101-.369.253-.433l3.198-1.375-1.933-.83c-.152-.065-.253-.24-.253-.434 0-.193.101-.368.253-.433l3.198-1.375-1.933-.83c-.152-.064-.253-.24-.253-.433 0-.194.101-.37.253-.434l7.59-3.263a.328.328 0 0 1 .254 0l7.59 3.263c.152.065.253.24.253.434 0 .193-.101.369-.253.433l-1.933.83 3.198 1.375c.152.065.253.24.253.434 0 .193-.101.368-.253.433l-1.933.83 3.198 1.375c.152.064.253.24.253.433 0 .194-.101.37-.253.434l-10.12 4.348a.304.304 0 0 1-.254 0Zm.127-8.158 6.452-2.774L11.5 5.942 5.048 8.715 11.5 11.49Zm0 4.57a.304.304 0 0 1-.127-.028v-.003L5.59 13.543l-3.072 1.32 8.982 3.861 8.982-3.859-3.072-1.319-5.784 2.485a.304.304 0 0 1-.126.027ZM3.277 11.87l8.223 3.382 8.35-3.382-3.29-1.384-4.301 1.845c-.253.154-.936.369-1.645 0-.708-.369-3.078-1.486-4.174-1.999l-3.163 1.538Z" clip-rule="evenodd"/><path fill="#0278D5" d="m5.301 13.1-3.415 1.538-.253.308L11.5 19.25l9.741-4.46-3.668-1.69-6.073 2.613-6.199-2.613Z"/></svg>
