<svg width="30" height="24" fill="none" xmlns="http://www.w3.org/2000/svg"><path d="M9.697 11.491c-1.682.49-2.81 1.932-2.697 3.474.534-.596 1.35-1.111 2.339-1.45l.358-2.024ZM4.49 13.828 3.004 5.414c-.014-.076.013-.123.011-.125a18.303 18.303 0 0 1 8.86-2.297c.075 0 .151.008.227.009a4.502 4.502 0 0 1 2.419-1.219 22.793 22.793 0 0 1 2.68-.25C16.733.88 16.053.398 15.243.268A21.242 21.242 0 0 0 1.556 2.675C.423 3.304-.184 4.616.05 5.933l1.488 8.415c.667 3.774 6.39 6.66 9.583 6.66.169 0 .317-.022.47-.037-.634-.801-1.357-1.898-1.852-3.168-2.232-.609-4.972-2.42-5.247-3.975Zm4.573-6.443a1.851 1.851 0 0 0-.19-.535c-.388.418-.97.739-1.657.86-.686.12-1.343.018-1.85-.243-.025.184-.03.374.004.567a1.875 1.875 0 0 0 3.693-.65Zm19.38-1.718A21.249 21.249 0 0 0 14.757 3.26c-1.28.205-2.3 1.231-2.533 2.548l-1.487 8.415c-.722 4.08 4.466 9.2 7.42 9.72 2.955.52 9.585-2.522 10.306-6.603l1.488-8.414c.233-1.318-.374-2.63-1.507-3.259Zm-12.808 4.538a1.874 1.874 0 0 1 2.172-1.517 1.87 1.87 0 0 1 1.521 2.166 1.85 1.85 0 0 1-.19.535c-.387-.418-.97-.739-1.656-.859-.687-.12-1.344-.019-1.851.242a1.83 1.83 0 0 1 .004-.567Zm3.303 9.317c-2.61-.46-4.384-2.779-4.174-5.293.966 1.198 2.635 2.165 4.664 2.521 2.029.357 3.929.018 5.247-.778-.665 2.435-3.127 4.008-5.737 3.55Zm6.108-7.094c-.387-.418-.97-.739-1.656-.86-.687-.12-1.344-.018-1.85.243a1.843 1.843 0 0 1 .003-.567 1.875 1.875 0 0 1 3.694.65 1.84 1.84 0 0 1-.191.534Z" fill="currentColor"/></svg>