<svg xmlns="http://www.w3.org/2000/svg" fill="none" viewBox="0 0 20 20"><path fill="currentColor" d="M15.3294 3.74921c0-.34242-.2798-.62001-.625-.62001H4.81185c-.34518 0-.625.27759-.625.62001v9.80709c0 .2261.12408.4343.3238.5433l4.99475 2.7252c.07917.0432.16541.0681.25273.0749.08733-.0068.17357-.0317.25277-.0749l4.5726-2.4297.0019-.0011c.0396-.0214.6945-.3645.9916.1678.2962.5305-.3199.8882-.3616.9116l-.0022.0012-4.491 2.4301c-.2989.166-.6323.2448-.96407.2363-.33173.0085-.66515-.0703-.9641-.2363l-4.89796-2.7191c-.59242-.3288-.95936-.9497-.95936-1.6232V8.79183l.00014-.01323V3.74921c0-1.02728.83946-1.86005 1.875-1.86005h9.89255c1.0356 0 1.875.83277 1.875 1.86005v2.87771s0 .57281-.625.57939c-.625.00659-.625-.57939-.625-.57939V3.74921Z"/><circle cx="10.0812" cy="8.94705" r="3.41531" stroke="currentColor" stroke-width="1.3"/><path stroke="currentColor" stroke-linecap="round" stroke-width="1.3" d="m13.3856 10.196 3.6778 1.5513"/></svg>