<svg viewBox="0 0 18 9" xmlns="http://www.w3.org/2000/svg"><path d="M2.536 2.869c-1.148 0-2.06.912-2.06 2.034a2.04 2.04 0 002.06 2.042c.81 0 1.416-.401 1.821-.784.153-.153.27-.292.387-.43.103.135.22.273.377.43.412.387 1.019.784 1.832.784a2.04 2.04 0 002.053-2.042A2.043 2.043 0 006.953 2.87c-.81 0-1.42.4-1.836.806a3.08 3.08 0 00-.373.415 5.007 5.007 0 00-.383-.415c-.412-.402-1.016-.806-1.825-.806zm-1.08 2.034c0-.575.483-1.054 1.08-1.054.447 0 .834.234 1.136.532.185.174.34.373.454.522-.11.16-.252.341-.454.537-.323.305-.689.525-1.136.525-.597 0-1.08-.472-1.08-1.062zm6.562 0a1.06 1.06 0 01-1.065 1.062c-.458 0-.827-.224-1.147-.525a3.773 3.773 0 01-.454-.537c.07-.085.241-.32.454-.522.298-.294.689-.532 1.147-.532.59 0 1.065.48 1.065 1.054zm6.16 1.733c.004.82.519 1.513 1.481 1.513.952 0 1.474-.692 1.474-1.513v-.383c0-.824-.508-1.513-1.474-1.513-.948 0-1.477.693-1.48 1.513v.383zM10.52 2.474c0 .82.519 1.513 1.481 1.513.949 0 1.474-.689 1.47-1.513v-.383c.004-.824-.507-1.513-1.47-1.513-.944 0-1.48.69-1.48 1.513v.383zM10.82 8h.848l5-7.273h-.848L10.82 8zm4.187-1.747c.003-.409.18-.803.653-.803.49 0 .643.394.643.803v.383c0 .409-.167.803-.643.803-.483 0-.65-.398-.653-.803v-.383zM11.35 2.09c0-.405.178-.803.65-.803.49 0 .643.395.643.803v.383c0 .409-.167.803-.643.803-.483 0-.65-.394-.65-.803V2.09z" fill="currentColor"/></svg>