<svg viewBox="0 0 32 32" fill="none" xmlns="http://www.w3.org/2000/svg"><path fill-rule="evenodd" clip-rule="evenodd" d="M16 29.004c-7.18 0-13-5.82-13-13s5.82-13 13-13 13 5.82 13 13-5.82 13-13 13Zm-1.499-18.5a1.5 1.5 0 1 0 3 0 1.5 1.5 0 0 0-3 0Zm1.5 3.474a1 1 0 0 0-1 1v6.002a1 1 0 1 0 2 0v-6.002a1 1 0 0 0-1-1Z" fill="#5452F6"/><path fill-rule="evenodd" clip-rule="evenodd" d="M16 28.004c-6.627 0-12-5.373-12-12s5.373-12 12-12 12 5.373 12 12-5.373 12-12 12Zm-.244-15.011a2.5 2.5 0 1 1 .49 0 2 2 0 0 1 1.755 1.985v6.002a2 2 0 0 1-4 0v-6.002a2 2 0 0 1 1.755-1.985ZM3 16.004c0 7.18 5.82 13 13 13s13-5.82 13-13-5.82-13-13-13-13 5.82-13 13Zm13.001-4a1.5 1.5 0 1 1 0-3 1.5 1.5 0 0 1 0 3Zm-1 2.974a1 1 0 1 1 2 0v6.002a1 1 0 1 1-2 0v-6.002Z" fill="#5452F6"/><path d="M27.598 28.94c.83.358 1.672-.483 1.314-1.314L25.99 20.85a1 1 0 0 0-1.625-.311l-3.854 3.854a1 1 0 0 0 .31 1.625l6.777 2.922Z" fill="#5452F6"/></svg>