<svg viewBox="0 0 24 24" fill="currentColor" xmlns="http://www.w3.org/2000/svg"><path fill-rule="evenodd" clip-rule="evenodd" d="m11.15 10.822 2.091-3.623-2.091-3.624H6.966L4.874 7.2l2.092 3.623h4.184Zm2.944-4.106-.004-.007-2.092-3.623a.98.98 0 0 0-.848-.49H6.966a.98.98 0 0 0-.848.49L4.026 6.709a.98.98 0 0 0 0 .98l2.092 3.623.007.012-.007.013-2.092 3.623a.98.98 0 0 0 0 .98l2.092 3.623a.98.98 0 0 0 .848.49h4.184a.98.98 0 0 0 .848-.49l2.092-3.623.01-.018h4.194a.98.98 0 0 0 .849-.49l2.091-3.623a.98.98 0 0 0 0-.98l-2.091-3.623a.98.98 0 0 0-.849-.49h-4.2ZM11.15 19.073l2.091-3.623-2.091-3.623H6.966L4.874 15.45l2.092 3.623h4.184Zm9.236-7.754-2.092 3.623h-4.183l-2.092-3.623 2.092-3.623h4.183l2.092 3.623Z" fill="#4F5162"/></svg>