<svg xmlns="http://www.w3.org/2000/svg" viewBox="0 0 16 16"><path fill-rule="evenodd" clip-rule="evenodd" d="M12.543 5.377 8 2.755 3.458 5.377v5.246L8 13.245l4.543-2.622V5.377ZM8.5 1.89a1 1 0 0 0-1 0L2.958 4.51a1 1 0 0 0-.5.866v5.246a1 1 0 0 0 .5.866L7.5 14.11a1 1 0 0 0 1 0l4.543-2.622a1 1 0 0 0 .5-.866V5.377a1 1 0 0 0-.5-.866L8.5 1.89Z" fill="currentColor"/><path fill-rule="evenodd" clip-rule="evenodd" d="M10.233 6.71 8 5.422l-2.233 1.29v2.578L8 10.58l2.233-1.29V6.711ZM8.5 4.556a1 1 0 0 0-1 0l-2.233 1.29a1 1 0 0 0-.5.866v2.578a1 1 0 0 0 .5.866l2.233 1.29a1 1 0 0 0 1 0l2.233-1.29a1 1 0 0 0 .5-.866V6.711a1 1 0 0 0-.5-.866L8.5 4.555Z" fill="currentColor"/></svg>