<svg xmlns="http://www.w3.org/2000/svg" viewBox="0 0 44 40"><rect width="44" height="40" fill="#effbff" rx="4"/><path fill="#fff" fill-opacity=".01" d="M14 4.5h16v16H14z"/><path fill="#004ba4" fill-rule="evenodd" d="M17.89 8.39a.533.533 0 0 0 0 .754l7.089 7.09h-4.58a.533.533 0 0 0 0 1.066h5.868a.534.534 0 0 0 .533-.533V10.9a.533.533 0 1 0-1.067 0v4.58l-7.09-7.09a.533.533 0 0 0-.753 0" clip-rule="evenodd"/><path fill="#004ba4" d="M6.035 24.227V31.5H4.717v-7.273zm2.655 4.077V31.5H7.405v-5.454h1.228v.926h.064q.189-.458.6-.728.416-.27 1.027-.27.564 0 .983.242.423.24.654.7.234.457.23 1.111V31.5h-1.285v-3.274q0-.547-.284-.856-.28-.309-.778-.309-.338 0-.6.15a1.03 1.03 0 0 0-.408.422 1.4 1.4 0 0 0-.146.671m7.18 5.355q-.692 0-1.19-.188a2.1 2.1 0 0 1-.798-.497 1.7 1.7 0 0 1-.42-.693l1.159-.28q.078.16.227.316.15.16.401.263.255.105.643.106.546 0 .905-.266.36-.262.36-.867V30.52h-.065a1.8 1.8 0 0 1-.291.408 1.5 1.5 0 0 1-.5.352q-.31.142-.778.142-.63 0-1.14-.295a2.1 2.1 0 0 1-.81-.888q-.298-.593-.298-1.484 0-.898.298-1.516.301-.622.813-.941a2.1 2.1 0 0 1 1.14-.324q.48 0 .788.164.314.159.498.387.184.224.28.422h.071v-.901h1.268v5.543q0 .7-.334 1.157a2 2 0 0 1-.913.686 3.6 3.6 0 0 1-1.313.227m.011-3.246q.41 0 .696-.198.288-.2.437-.572.15-.373.15-.895a2.5 2.5 0 0 0-.15-.902 1.3 1.3 0 0 0-.433-.6 1.12 1.12 0 0 0-.7-.217q-.429 0-.717.224t-.433.614a2.5 2.5 0 0 0-.146.88q0 .502.146.878.15.373.436.582.293.207.714.206m3.867 1.087v-5.454h1.247v.909h.057a1.36 1.36 0 0 1 1.346-.988q.105 0 .238.011.135.007.223.025v1.182a1.4 1.4 0 0 0-.259-.05 2.4 2.4 0 0 0-.337-.024 1.3 1.3 0 0 0-.633.152q-.276.15-.436.416a1.17 1.17 0 0 0-.16.614V31.5zm6.155.107q-.82 0-1.416-.341-.594-.345-.913-.973-.32-.633-.32-1.488 0-.842.32-1.478.323-.639.902-.994.58-.359 1.36-.359.504 0 .952.164.45.16.795.497.348.337.547.86.2.518.199 1.235v.394h-4.471v-.866h3.239a1.4 1.4 0 0 0-.16-.657 1.16 1.16 0 0 0-.437-.458 1.23 1.23 0 0 0-.646-.167q-.395 0-.693.192a1.3 1.3 0 0 0-.465.497 1.4 1.4 0 0 0-.167.67v.757q0 .477.174.817.174.338.487.519.312.177.731.177.281 0 .508-.078a1.1 1.1 0 0 0 .394-.238 1 1 0 0 0 .252-.387l1.2.135q-.113.476-.433.83-.315.353-.81.548-.492.192-1.129.192m7.825-4.12-1.172.128a.9.9 0 0 0-.174-.334.9.9 0 0 0-.327-.252 1.2 1.2 0 0 0-.504-.096q-.402 0-.675.174-.27.175-.266.451a.47.47 0 0 0 .174.387q.181.15.596.245l.93.2q.775.166 1.151.528.38.363.384.948a1.5 1.5 0 0 1-.302.91q-.295.39-.82.61t-1.208.22q-1.002 0-1.612-.419a1.68 1.68 0 0 1-.728-1.175l1.253-.12a.88.88 0 0 0 .363.557q.277.188.72.188.459 0 .736-.188.28-.188.28-.465a.49.49 0 0 0-.18-.387q-.18-.153-.555-.235l-.93-.195q-.785-.164-1.161-.55-.378-.39-.373-.988a1.4 1.4 0 0 1 .273-.873 1.8 1.8 0 0 1 .778-.576 3 3 0 0 1 1.154-.206q.959 0 1.51.409.553.408.684 1.104m5.488 0-1.172.128a.9.9 0 0 0-.174-.334.86.86 0 0 0-.327-.252 1.2 1.2 0 0 0-.504-.096q-.401 0-.675.174-.27.175-.266.451a.47.47 0 0 0 .174.387q.181.15.596.245l.93.2q.775.166 1.151.528.381.363.384.948a1.5 1.5 0 0 1-.302.91q-.295.39-.82.61t-1.208.22q-1.001 0-1.612-.419a1.68 1.68 0 0 1-.728-1.175l1.254-.12a.88.88 0 0 0 .362.557q.278.188.72.188.459 0 .736-.188.28-.188.28-.465a.48.48 0 0 0-.18-.387q-.178-.153-.555-.235l-.93-.195q-.784-.164-1.161-.55-.377-.39-.373-.988a1.4 1.4 0 0 1 .273-.873 1.8 1.8 0 0 1 .778-.576 3 3 0 0 1 1.154-.206q.959 0 1.51.409.553.408.685 1.104"/></svg>