<svg viewBox="0 0 33 33" fill="none" xmlns="http://www.w3.org/2000/svg">
<path d="M25.1345 9.43981L20.8702 9.44003M25.1345 9.43981L25.1343 5.18457M25.1345 9.43981C24.9139 9.17637 24.4907 8.6887 24.2427 8.44127C19.7466 3.95425 12.4569 3.95425 7.96072 8.44127C7.55388 8.84729 7.18385 9.27614 6.85063 9.72368M5.41609 20.8509C5.19651 20.3048 5.02063 19.7453 4.88845 19.1777M4.60319 17.1457C4.57589 16.6033 4.58692 16.0593 4.63628 15.5181M5.03723 13.382C5.18645 12.8638 5.37289 12.354 5.59654 11.8568M7.04272 23.7122L11.3071 23.712M7.04272 23.7122L7.04295 27.9675M7.04272 23.7122C7.26331 23.9757 7.68657 24.4633 7.9345 24.7108C12.4307 29.1978 19.7204 29.1978 24.2165 24.7108C24.6234 24.3047 24.9934 23.8759 25.3266 23.4283M26.7611 12.3011C26.9807 12.8472 27.1566 13.4067 27.2888 13.9743M27.574 16.0063C27.6013 16.5488 27.5903 17.0928 27.541 17.6339M27.14 19.77C26.9908 20.2883 26.8043 20.7981 26.5807 21.2952" stroke="#FFFFFF" stroke-linecap="round"/>
</svg>
