<svg viewBox="0 0 24 24" fill="none" xmlns="http://www.w3.org/2000/svg">
<path d="M18.7844 6.64785L15.5862 6.64802M18.7844 6.64785L18.7842 3.45642M18.7844 6.64785C18.619 6.45027 18.3015 6.08452 18.1156 5.89895C14.7435 2.53369 9.2762 2.53369 5.90408 5.89895C5.59895 6.20346 5.32143 6.5251 5.07152 6.86075M3.99561 15.2062C3.83093 14.7966 3.69901 14.377 3.59988 13.9513M3.38594 12.4273C3.36546 12.0204 3.37373 11.6124 3.41075 11.2066M3.71147 9.60448C3.82338 9.21581 3.96321 8.83346 4.13095 8.46058M5.21558 17.3521L8.41384 17.352M5.21558 17.3521L5.21575 20.5436M5.21558 17.3521C5.38102 17.5497 5.69847 17.9155 5.88442 18.1011C9.25653 21.4663 14.7238 21.4663 18.0959 18.1011C18.401 17.7965 18.6786 17.4749 18.9285 17.1392M20.0044 8.79385C20.1691 9.20341 20.301 9.62303 20.4001 10.0487M20.6141 11.5727C20.6345 11.9796 20.6263 12.3876 20.5893 12.7934M20.2885 14.3955C20.1766 14.7842 20.0368 15.1665 19.869 15.5394" stroke="#FFFFFF" stroke-linecap="round"/>
</svg>
