<svg xmlns="http://www.w3.org/2000/svg" fill="none" viewBox="0 0 16 16">
  <g clip-path="url(#a)">
    <path stroke="currentColor" d="M2 4.933V2.4c0-.22.18-.4.4-.4h3.867c.22 0 .4.18.4.4v2.533a.4.4 0 0 1-.4.4H2.4a.4.4 0 0 1-.4-.4ZM9.333 13.6v-2.534c0-.22.18-.4.4-.4H13.6a.4.4 0 0 1 .4.4V13.6a.4.4 0 0 1-.4.4H9.733a.4.4 0 0 1-.4-.4ZM9.333 5v3.267c0 .22.18.4.4.4H13.6a.4.4 0 0 0 .4-.4V7.5"/>
    <path fill="currentColor" fill-rule="evenodd" d="m15.92 3.763-.463-.375a2.274 2.274 0 0 0 0-.775l.464-.375a.207.207 0 0 0 .066-.235l-.007-.018a2.939 2.939 0 0 0-.564-.923l-.012-.014a.236.236 0 0 0-.249-.064l-.575.194a2.53 2.53 0 0 0-.705-.386l-.111-.57a.221.221 0 0 0-.182-.171l-.02-.004a3.374 3.374 0 0 0-1.124 0l-.02.004a.221.221 0 0 0-.182.172l-.112.572c-.254.09-.49.22-.7.384l-.58-.195a.235.235 0 0 0-.248.064l-.012.014a2.953 2.953 0 0 0-.564.923l-.007.018a.208.208 0 0 0 .066.235l.47.38a2.226 2.226 0 0 0 0 .764l-.47.38a.207.207 0 0 0-.066.235l.007.017c.128.338.317.65.564.924l.012.014c.061.068.16.093.249.064l.579-.195c.21.164.446.294.7.384l.112.572c.017.088.09.156.182.172l.02.003a3.353 3.353 0 0 0 1.124 0l.02-.003a.221.221 0 0 0 .182-.172l.111-.57c.256-.09.493-.22.705-.385l.575.194c.089.029.188.004.249-.064l.012-.014c.247-.275.436-.586.564-.924l.007-.017a.206.206 0 0 0-.066-.234Zm-.965-1.071a1.806 1.806 0 0 1 0 .617l-.046.269.528.428a2.45 2.45 0 0 1-.301.493l-.657-.22-.222.172c-.169.132-.357.235-.56.307l-.27.096-.127.65a2.823 2.823 0 0 1-.601 0l-.127-.652-.267-.097a2.007 2.007 0 0 1-.557-.306l-.222-.173-.66.222a2.502 2.502 0 0 1-.302-.493l.534-.432-.046-.268a1.826 1.826 0 0 1 0-.609l.046-.268-.534-.432c.08-.175.181-.34.301-.493l.661.223.222-.174c.168-.13.355-.234.557-.306l.268-.096L12.7.5a2.82 2.82 0 0 1 .6 0l.127.65.27.095c.203.072.392.175.56.307l.223.172.656-.22c.12.153.221.319.302.493l-.529.428.046.267Z" clip-rule="evenodd"/>
    <path fill="currentColor" fill-rule="evenodd" d="M13.029 1.76a1.156 1.156 0 1 0 0 2.312 1.156 1.156 0 0 0 0-2.312Zm.52 1.676a.733.733 0 0 1-1.04 0 .733.733 0 0 1 0-1.04.73.73 0 0 1 .52-.215.733.733 0 0 1 .52 1.256Z" clip-rule="evenodd"/>
    <path stroke="currentColor" stroke-width=".1" d="m15.92 3.763-.463-.375a2.274 2.274 0 0 0 0-.775l.464-.375a.207.207 0 0 0 .066-.235l-.007-.018a2.939 2.939 0 0 0-.564-.923l-.012-.014a.236.236 0 0 0-.249-.064l-.575.194a2.53 2.53 0 0 0-.705-.386l-.111-.57a.221.221 0 0 0-.182-.171l-.02-.004a3.374 3.374 0 0 0-1.124 0l-.02.004a.221.221 0 0 0-.182.172l-.112.572c-.254.09-.49.22-.7.384l-.58-.195a.235.235 0 0 0-.248.064l-.012.014a2.953 2.953 0 0 0-.564.923l-.007.018a.208.208 0 0 0 .066.235l.47.38a2.226 2.226 0 0 0 0 .764l-.47.38a.207.207 0 0 0-.066.235l.007.017c.128.338.317.65.564.924l.012.014c.061.068.16.093.249.064l.579-.195c.21.164.446.294.7.384l.112.572c.017.088.09.156.182.172l.02.003a3.353 3.353 0 0 0 1.124 0l.02-.003a.221.221 0 0 0 .182-.172l.111-.57c.256-.09.493-.22.705-.385l.575.194c.089.029.188.004.249-.064l.012-.014c.247-.275.436-.586.564-.924l.007-.017a.206.206 0 0 0-.066-.234Zm-.965-1.071a1.806 1.806 0 0 1 0 .617l-.046.269.528.428a2.45 2.45 0 0 1-.301.493l-.657-.22-.222.172c-.169.132-.357.235-.56.307l-.27.096-.127.65a2.823 2.823 0 0 1-.601 0l-.127-.652-.267-.097a2.007 2.007 0 0 1-.557-.306l-.222-.173-.66.222a2.502 2.502 0 0 1-.302-.493l.534-.432-.046-.268a1.826 1.826 0 0 1 0-.609l.046-.268-.534-.432c.08-.175.181-.34.301-.493l.661.223.222-.174c.168-.13.355-.234.557-.306l.268-.096L12.7.5a2.82 2.82 0 0 1 .6 0l.127.65.27.095c.203.072.392.175.56.307l.223.172.656-.22c.12.153.221.319.302.493l-.529.428.046.267Z" clip-rule="evenodd"/>
    <path stroke="currentColor" stroke-width=".1" d="M13.029 1.76a1.156 1.156 0 1 0 0 2.312 1.156 1.156 0 0 0 0-2.312Zm.52 1.676a.733.733 0 0 1-1.04 0 .733.733 0 0 1 0-1.04.73.73 0 0 1 .52-.215.733.733 0 0 1 .52 1.256Z" clip-rule="evenodd"/>
    <path stroke="currentColor" d="M2 13.6V7.734c0-.221.18-.4.4-.4h3.867c.22 0 .4.179.4.4V13.6a.4.4 0 0 1-.4.4H2.4a.4.4 0 0 1-.4-.4Z"/>
  </g>
  <defs>
    <clipPath id="a">
      <path fill="#fff" d="M0 0h16v16H0z"/>
    </clipPath>
  </defs>
</svg>
