<svg xmlns="http://www.w3.org/2000/svg" fill="none" viewBox="0 0 18 18"><path fill="currentColor" d="m11.66 9 .938-1.042a5.1 5.1 0 0 0-1.651-1.227 4.65 4.65 0 0 0-1.949-.43c-.668 0-1.33.146-1.948.43a5.1 5.1 0 0 0-1.652 1.227l.95 1.043c.705-.781 1.66-1.22 2.656-1.22s1.95.439 2.656 1.22Zm3.64-3.675A8.88 8.88 0 0 0 9 2.699a8.88 8.88 0 0 0-6.3 2.626l.968.974a7.5 7.5 0 0 1 2.446-1.644 7.5 7.5 0 0 1 8.216 1.644zm-9.55 9.62.171.355h6.154l.172-.355a3.44 3.44 0 0 0 .351-1.514c0-.936-.379-1.834-1.054-2.496A3.64 3.64 0 0 0 8.998 9.9c-.954 0-1.87.372-2.545 1.034a3.5 3.5 0 0 0-1.055 2.497c0 .524.12 1.042.352 1.514m3.248-3.799c.618 0 1.21.241 1.648.67a2.26 2.26 0 0 1 .593 2.238H6.758a2.26 2.26 0 0 1 .593-2.239 2.35 2.35 0 0 1 1.647-.668Z"/></svg>