<svg viewBox="0 0 24 24" fill="none" xmlns="http://www.w3.org/2000/svg">
  <path
    fill-rule="evenodd"
    clip-rule="evenodd"
    d="M10.1111 3.74697C11.2658 3.06578 12.7121 3.0655 13.8693 3.74721L18.3717 6.35863L18.3727 6.35921C19.5229 7.03143 20.23 8.25908 20.23 9.591V14.351C20.23 15.6816 19.5139 16.9154 18.3637 17.5822L13.8642 20.1919C12.6971 20.8671 11.2559 20.8675 10.0861 20.1921L10.0852 20.1916L5.58761 17.573C4.49363 16.9355 3.80375 15.8013 3.72964 14.5548C3.74298 14.4988 3.75 14.4406 3.75 14.381V9.611C3.75 8.2662 4.45951 7.03457 5.60615 6.36985L10.1074 3.74916L10.1111 3.74697ZM2.25 9.611V14.1313C2.23236 14.1952 2.223 14.2622 2.223 14.331C2.223 16.1976 3.21178 17.9246 4.83263 18.8691L9.33263 21.4891L9.33481 21.4904C10.9688 22.4344 12.9838 22.4343 14.6163 21.4898L19.1163 18.8798C20.726 17.9466 21.73 16.2203 21.73 14.351V9.591C21.73 7.7233 20.7375 6.00328 19.1283 5.06337L14.6307 2.45479L14.6284 2.45345C13.0027 1.49688 10.9751 1.49667 9.35085 2.45389L4.85323 5.0725C3.24024 6.00787 2.25 7.73604 2.25 9.611ZM12 6.75C12.4142 6.75 12.75 7.08579 12.75 7.5V12C12.75 12.4142 12.4142 12.75 12 12.75C11.5858 12.75 11.25 12.4142 11.25 12V7.5C11.25 7.08579 11.5858 6.75 12 6.75ZM11.9939 14.75L11.999 14.75C12.0238 14.75 12.0483 14.7512 12.0725 14.7536C12.5566 14.7947 12.999 15.1902 12.999 15.75C12.999 16.0451 12.8662 16.2909 12.7031 16.4541C12.5399 16.6172 12.2941 16.75 11.999 16.75C11.4255 16.75 10.999 16.2747 10.999 15.75C10.999 15.22 11.4067 14.7891 11.9271 14.7525C11.9475 14.7509 11.9682 14.75 11.989 14.75L11.9939 14.75Z"
    fill="currentColor"
  />
</svg>
