<svg fill="none" viewBox="0 0 20 20" xmlns="http://www.w3.org/2000/svg">
  <g transform="translate(-4, -5), scale(1.03, 1.03)" stroke="currentColor" fill-rule="evenodd" clip-rule="evenodd">
    <path d="m15.4042 10.8232c.0893.1547.0893.3453 0 .5l-1.6516 2.8607c-.0893.1547-.2544.25-.433.25h-3.3034c-.17859 0-.34366-.0953-.43297-.25l-1.65166-2.8607-.43301.25.43301-.25c-.08932-.1547-.08932-.3453 0-.5l1.65166-2.86077c.08931-.1547.25438-.25.43297-.25h3.3034c.1786 0 .3437.0953.433.25z" />
    <path d="m15.5007 17.705c.0893.1547.0893.3453 0 .5l-1.6517 2.8608c-.0893.1547-.2544.25-.433.25h-3.3033c-.17866 0-.34372-.0953-.43304-.25l-1.65165-2.8608-.43302.25.43302-.25c-.08932-.1547-.08932-.3453 0-.5l1.65165-2.8607c.08932-.1547.25438-.25.43304-.25h3.3033c.1786 0 .3437.0953.433.25z" />
    <path d="m21.0395 14.3896c.0894.1547.0894.3453 0 .5l-1.6516 2.8608c-.0893.1547-.2544.25-.433.25h-3.3033c-.1787 0-.3437-.0953-.4331-.25l-1.6516-2.8608-.433.25.433-.25c-.0893-.1547-.0893-.3453 0-.5l1.6516-2.8608c.0894-.1547.2544-.25.4331-.25h3.3033c.1786 0 .3437.0953.433.25z" />
  </g>
</svg>