<svg viewBox="0 0 20 20" xmlns="http://www.w3.org/2000/svg">
  <path fill-rule="evenodd" clip-rule="evenodd" d="M11.4736 2.10637C11.7414 2.37206 11.7414 2.80282 11.4736 3.06851C11.2059 3.33419 10.7719 3.33419 10.5042 3.06851C10.2365 2.80282 10.2365 2.37206 10.5042 2.10637C10.7719 1.84069 11.2059 1.84069 11.4736 2.10637ZM12.12 3.70993C12.7446 3.09 12.7446 2.08488 12.12 1.46495C11.4953 0.845017 10.4825 0.845016 9.85786 1.46495C9.2332 2.08488 9.2332 3.09 9.85786 3.70993C10.0557 3.90627 10.2925 4.04043 10.5435 4.1124V6.89883C10.5435 7.03983 10.6096 7.17282 10.7223 7.25866C10.835 7.3445 10.9816 7.37342 11.1188 7.33693C12.3759 7.00262 13.6681 7.74299 14.0049 8.99051L14.0049 8.99052C14.3417 10.2381 13.5957 11.5205 12.3386 11.8548C11.0815 12.1891 9.78938 11.4487 9.45253 10.2011C9.3872 9.95916 9.1366 9.81558 8.8928 9.88041C8.649 9.94525 8.50432 10.194 8.56965 10.4359C9.03715 12.1673 10.8305 13.195 12.5751 12.731C14.3199 12.267 15.3552 10.4873 14.8877 8.75576C14.4717 7.21461 13.0052 6.23118 11.4575 6.36074V4.10555C11.6999 4.03208 11.9282 3.90021 12.12 3.70993ZM8.52635 16.9315C8.25864 17.1972 8.25864 17.6279 8.52635 17.8936C8.79406 18.1593 9.22811 18.1593 9.49583 17.8936C9.76354 17.6279 9.76354 17.1972 9.49583 16.9315C9.22811 16.6658 8.79406 16.6658 8.52635 16.9315ZM7.88004 18.535C7.25537 17.9151 7.25537 16.91 7.88004 16.2901C8.07176 16.0998 8.30005 15.9679 8.54246 15.8944V13.6393C6.99483 13.7688 5.5283 12.7854 5.11225 11.2442C4.64476 9.51271 5.68011 7.73297 7.42486 7.26901C9.16954 6.80504 10.9629 7.83265 11.4304 9.56409C11.4957 9.80605 11.351 10.0548 11.1072 10.1196C10.8634 10.1844 10.6128 10.0408 10.5475 9.79888C10.2106 8.55131 8.91848 7.81091 7.66143 8.14521C6.40429 8.47951 5.65829 9.76185 5.99514 11.0095L5.99515 11.0095C6.33192 12.257 7.6241 12.9974 8.88118 12.6631C9.01842 12.6266 9.16496 12.6555 9.27768 12.7413C9.3904 12.8272 9.45649 12.9602 9.45649 13.1012V15.8876C9.70753 15.9596 9.9443 16.0937 10.1421 16.2901C10.7668 16.91 10.7668 17.9151 10.1421 18.535C9.51748 19.155 8.5047 19.155 7.88004 18.535Z" fill="currentColor"/>
</svg>
