<svg viewBox="0 0 24 24" xmlns="http://www.w3.org/2000/svg">
  <path d="M6.709 7.95999L10.24 3.96999L9.1 3.95999L12.85 8.32999C13.14 8.66999 13.68 8.66999 13.98 8.31999L16.4 5.47999H15.26L17.19 7.72999C18.31 9.03999 18.93 10.72 18.93 12.45L18.929 12.7C18.929 16.55 15.799 19.67 11.949 19.67C8.089 19.67 4.969 16.54 4.969 12.69C4.969 10.95 5.579 9.27999 6.709 7.95999ZM5.62 7.05999C4.25 8.63999 3.51 10.66 3.51 12.75C3.509 17.43 7.3 21.22 11.98 21.22C16.66 21.21 20.45 17.42 20.45 12.74V12.48C20.44 10.38 19.7 8.35999 18.34 6.77999L16.4 4.51999C16.1 4.16999 15.56 4.16999 15.26 4.51999L12.83 7.34999L13.96 7.33999L10.2 2.95999C9.9 2.60999 9.36 2.60999 9.06 2.94999L5.62 7.05999Z" fill="currentColor"/>
</svg>
