<svg width="20" height="20" viewBox="0 0 20 20" fill="none" xmlns="http://www.w3.org/2000/svg">
  <path fill-rule="evenodd" clip-rule="evenodd" d="M2.08338 2.9165C1.62314 2.9165 1.25004 3.2896 1.25004 3.74984V5.74362L1.25 15.8332C1.25 16.5235 1.80964 17.0832 2.5 17.0832H15.2427H17.5C18.1904 17.0832 18.75 16.5235 18.75 15.8332L18.75 5.74362L18.75 3.74984C18.75 3.2896 18.3769 2.9165 17.9167 2.9165H2.08338ZM2.08338 3.74984L17.9167 3.74984L17.9167 5.32695H2.08338V3.74984ZM2.08338 6.16029H17.9167L17.9167 15.8332C17.9167 16.0633 17.7301 16.2498 17.5 16.2498H15.2427H2.5C2.26988 16.2498 2.08333 16.0633 2.08333 15.8332L2.08338 6.16029ZM8.26172 11.5027C8.37764 11.4255 8.44726 11.2954 8.44726 11.1561C8.44726 11.0167 8.37764 10.8866 8.26172 10.8094L5.76172 9.1427C5.63386 9.05746 5.46947 9.04951 5.33399 9.12202C5.19851 9.19453 5.11393 9.33572 5.11393 9.48938V12.8227C5.11393 12.9764 5.19851 13.1176 5.33399 13.1901C5.46947 13.2626 5.63386 13.2546 5.76172 13.1694L8.26172 11.5027ZM5.94726 12.0442V10.2679L7.27944 11.1561L5.94726 12.0442ZM11.2496 9.13446C11.2496 8.90435 11.4361 8.7178 11.6663 8.7178H15.8329C16.063 8.7178 16.2496 8.90435 16.2496 9.13446C16.2496 9.36458 16.063 9.55113 15.8329 9.55113H11.6663C11.4361 9.55113 11.2496 9.36458 11.2496 9.13446ZM11.6663 11.2212C11.4361 11.2212 11.2496 11.4078 11.2496 11.6379C11.2496 11.868 11.4361 12.0545 11.6663 12.0545H15.8329C16.063 12.0545 16.2496 11.868 16.2496 11.6379C16.2496 11.4078 16.063 11.2212 15.8329 11.2212H11.6663ZM11.2496 14.1329C11.2496 13.9028 11.4361 13.7162 11.6663 13.7162H15.8329C16.063 13.7162 16.2496 13.9028 16.2496 14.1329C16.2496 14.363 16.063 14.5496 15.8329 14.5496H11.6663C11.4361 14.5496 11.2496 14.363 11.2496 14.1329ZM3.7681 7.88289C3.53799 7.88289 3.35144 8.06943 3.35144 8.29955V14.1329C3.35144 14.363 3.53799 14.5496 3.7681 14.5496H9.60144C9.83156 14.5496 10.0181 14.363 10.0181 14.1329V8.29955C10.0181 8.06943 9.83156 7.88289 9.60144 7.88289H3.7681ZM4.18477 13.7162V8.71622H9.18477V13.7162H4.18477Z" fill="currentColor" />
</svg>
