<svg xmlns="http://www.w3.org/2000/svg" fill="none" viewBox="0 0 32 32"><g clip-path="url(#a)"><path fill="url(#b)" fill-rule="evenodd" d="M16.9585.00001425V3.77641c0 .54886-.445.99379-.9938.99379-.5489 0-.9938-.44493-.9938-.99379V0H3.97516c-.89137 0-1.71421.29338-2.37723.788845L5.88322 5.07413c.38809.3881.38809 1.01733 0 1.40543-.3881.3881-1.01734.3881-1.40543 0L.346899 2.34867C.123995 2.84515 0 3.39567 0 3.97515V28.0248c0 1.7684 1.15463 3.267 2.7511 3.7832l.33266-4.2581c.04041-.5172.47193-.9163.99077-.9163h1.96789l1.27572-13.5827c.23979-2.553 2.38291-4.5043 4.94716-4.5043h7.9262c2.5331 0 4.6607 1.9055 4.9389 4.4232l1.5098 13.6638h.8877c.4954 0 .9152.3648.9841.8554l.6127 4.3569C30.7852 31.3688 32 29.8387 32 28.0248V3.97516c0-.73385-.1989-1.42125-.5456-2.01126l-4.5157 4.51566c-.3881.3881-1.0173.3881-1.4054 0-.3881-.3881-.3881-1.01733 0-1.40543l4.519-4.518966C29.4587.202506 28.7654 0 28.0248 0L16.9585.00001425ZM27.1393 32l-.4752-3.3789H4.9937L4.72973 32H27.1393ZM17.0932 14.5093c0-.5488-.445-.9938-.9938-.9938-.5489 0-.9938.445-.9938.9938v5.3665c0 .5488.4449.9938.9938.9938.5488 0 .9938-.445.9938-.9938v-5.3665Zm-.8945 9.1429c.494 0 .8945-.4005.8945-.8944 0-.494-.4005-.8944-.8945-.8944-.4939 0-.8944.4004-.8944.8944 0 .4939.4005.8944.8944.8944Zm6.9561-10.4641 1.4857 13.4455H8.03874l1.25827-13.3968c.14387-1.5319 1.42979-2.7026 2.96829-2.7026h7.9262c1.5198 0 2.7964 1.1433 2.9633 2.6539Z" clip-rule="evenodd"/></g><defs><linearGradient id="b" x1="2.90909" x2="27.6364" y1="2.54545" y2="27.6364" gradientUnits="userSpaceOnUse"><stop stop-color="#FF6FAB"/><stop offset="1" stop-color="#CE0056"/></linearGradient><clipPath id="a"><path fill="#fff" d="M0 0h32v32H0z"/></clipPath></defs></svg>