<svg xmlns="http://www.w3.org/2000/svg" fill="none" viewBox="0 0 32 32">
  <path fill="currentColor" fill-rule="evenodd" d="M17.0355 5.7127V2.77348C17.0355 2.3463 16.667 2 16.2123 2c-.4546 0-.8232.3463-.8232.77348V5.7127c0 .42718.3686.77347.8232.77347.4547 0 .8232-.3463.8232-.77347Zm-.7116 7.5801c.4547 0 .8233.3463.8233.7735v4.1767c0 .4272-.3686.7735-.8233.7735-.4546 0-.8232-.3463-.8232-.7735v-4.1767c0-.4272.3686-.7735.8232-.7735Zm.8232 7.1933c0 .3845-.3317.6962-.7409.6962-.4091 0-.7409-.3117-.7409-.6962 0-.3844.3318-.6961.7409-.6961.4092 0 .7409.3117.7409.6961ZM28.5946 2.536l-4.456 4.18675c-.3214.30207-.3214.79181 0 1.09387.3215.30206.8428.30206 1.1642 0l4.456-4.18676c.3215-.30206.3215-.7918 0-1.09386-.3215-.30207-.8427-.30207-1.1642 0ZM7.86129 6.72275 3.40531 2.536c-.32148-.30207-.84271-.30207-1.1642 0-.32148.30206-.32148.7918 0 1.09386l4.45598 4.18676c.32148.30206.84271.30206 1.1642 0 .32149-.30206.32148-.7918 0-1.09387ZM5.54243 24.2159c.03347-.4026.39093-.7132.82071-.7132H7.9932l1.05675-10.5716c.19863-1.987 1.97395-3.5057 4.09805-3.5057h6.5657c2.0983 0 3.8607 1.483 4.0912 3.4426l1.2507 10.6347h.7354c.4104 0 .758.2839.8152.6657l.7409 4.9503c.0332.2217-.0376.4461-.1939.6151-.1564.169-.383.2661-.6213.2661H5.95154c-.22948 0-.44853-.09-.60435-.2483-.15581-.1583-.23424-.3705-.21637-.5854l.41161-4.9503Zm17.85667-.7132-1.2307-10.4648c-.1382-1.1757-1.1957-2.0655-2.4547-2.0655H13.148c-1.2745 0-2.3397.9112-2.4588 2.1034L9.64688 23.5027H23.3991ZM7.12455 25.0496l-.28298 3.4033H25.5848l-.5094-3.4033H7.12455Z" clip-rule="evenodd"/>
</svg>
