<svg viewBox="0 0 34 34" fill="none" xmlns="http://www.w3.org/2000/svg">
<rect width="34" height="34" rx="4" fill="white"/>
<g clip-path="url(#clip0_3672_85614)">
<path d="M13.1665 24.648C13.1665 24.648 12.0902 25.3025 13.9146 25.4897C16.1109 25.7697 17.2807 25.7233 19.7115 25.2561C20.2 25.5553 20.7167 25.8058 21.2541 26.0042C15.7854 28.3422 8.86499 25.8642 13.1665 24.648ZM12.4665 21.6091C12.4665 21.6091 11.2975 22.4972 13.121 22.6853C15.5054 22.919 17.3752 22.9653 20.6022 22.3117C20.9161 22.63 21.3003 22.8701 21.724 23.0126C15.1317 24.9761 7.74499 23.199 12.4665 21.6091ZM25.3701 26.9378C25.3701 26.9378 26.1646 27.5923 24.482 28.1068C21.3495 29.0431 11.3447 29.3231 8.53949 28.1068C7.55774 27.6868 9.42762 27.0787 10.027 26.9851C10.6351 26.8451 10.9632 26.8451 10.9632 26.8451C9.88699 26.097 3.81012 28.3877 7.87799 29.0413C19.0517 30.8648 28.262 28.2468 25.3631 26.9378H25.3701ZM13.6722 18.4293C13.6722 18.4293 8.57624 19.6456 11.8487 20.0656C13.2514 20.2528 16.0094 20.2056 18.581 20.0192C20.6845 19.832 22.7897 19.4592 22.7897 19.4592C22.7897 19.4592 22.0416 19.7865 21.5271 20.1137C16.3384 21.47 6.37912 20.8618 9.23162 19.4592C11.6624 18.2902 13.6731 18.4311 13.6731 18.4311L13.6722 18.4293ZM22.7897 23.5253C28.0257 20.8128 25.595 18.1966 23.9115 18.523C23.4915 18.6166 23.3034 18.7102 23.3034 18.7102C23.3034 18.7102 23.4434 18.4302 23.7706 18.3366C27.0904 17.1676 29.7084 21.8427 22.6944 23.6653C22.6944 23.6653 22.7407 23.619 22.788 23.5253H22.7897ZM14.1885 30.9121C19.2372 31.2393 26.9521 30.7248 27.1385 28.3396C27.1385 28.3396 26.7649 29.2758 22.9779 29.9758C18.6764 30.7703 13.3467 30.6758 10.2142 30.1631C10.2142 30.1631 10.8687 30.724 14.1885 30.9121Z" fill="#4E7896"/>
<path d="M19.6244 3.00098C19.6244 3.00098 22.5233 5.94623 16.8664 10.3877C12.3313 13.9875 15.8383 16.0446 16.8664 18.3826C14.2012 15.9982 12.2849 13.8939 13.5939 11.9312C15.5102 9.03148 20.7934 7.6376 19.6244 3.00098ZM18.1369 16.4191C19.4932 17.9617 17.7633 19.3644 17.7633 19.3644C17.7633 19.3644 21.223 17.5881 19.6332 15.3901C18.1842 13.2866 17.0607 12.2576 23.1393 8.75148C23.1393 8.75148 13.5554 11.1359 18.1369 16.4191Z" fill="#F58219"/>
</g>
<defs>
<clipPath id="clip0_3672_85614">
<rect width="28" height="28" fill="white" transform="translate(3 3)"/>
</clipPath>
</defs>
</svg>