<svg fill="none" viewBox="0 0 33 33" xmlns="http://www.w3.org/2000/svg" xmlns:xlink="http://www.w3.org/1999/xlink"><linearGradient id="a"><stop offset=".18" stop-color="#0052cc"/><stop offset="1" stop-color="#2684ff"/></linearGradient><linearGradient id="b" gradientUnits="userSpaceOnUse" x1="24.599" x2="21.31" xlink:href="#a" y1="19.916" y2="21.275"/><linearGradient id="c" gradientUnits="userSpaceOnUse" x1="27.07" x2="30.352" xlink:href="#a" y1="31.976" y2="30.619"/><path clip-rule="evenodd" d="m15.734 4.152c-1.1-.253-2.018.036-2.685.597-.65.547-1.042 1.334-1.171 2.077l-1.034 5.244a.5.5 0 0 1 -.49.403h-5.744a1.5 1.5 0 0 0 -1.5 1.5v11.587a1.5 1.5 0 0 0 1.5 1.5h10.415a.5.5 0 1 0 0-1h-4.575v-12.505a.495.495 0 0 0 -.007-.085 1.5 1.5 0 0 0 1.382-1.207l1.035-5.249.003-.012c.093-.544.382-1.11.83-1.488.432-.363 1.03-.569 1.817-.388.823.19 1.175.63 1.333 1.108.172.518.128 1.126.036 1.6l-.741 3.856a1.5 1.5 0 0 0 1.473 1.783h10.175a.5.5 0 0 1 .491.592l-.734 3.91a.5.5 0 1 0 .983.185l.734-3.91a1.5 1.5 0 0 0 -1.474-1.777h-10.176a.5.5 0 0 1 -.491-.594l.741-3.856c.104-.537.183-1.345-.069-2.104-.266-.8-.886-1.498-2.058-1.767zm-6.277 9.321a.502.502 0 0 0 -.007.082v12.505h-4.84a.5.5 0 0 1 -.5-.5v-11.587a.5.5 0 0 1 .5-.5z" fill="#0278d5" fill-rule="evenodd"/><path clip-rule="evenodd" d="m26.388 19.928 5.655 5.655c.189.188.189.565 0 .754l-1.885 1.885-.094.094-4.241 4.241-2.356-2.356-3.865-3.864c-.188-.189-.188-.566 0-.754l1.98-1.98 4.24-4.24zm-2.545 6.032 1.98 1.98 1.979-1.98-1.98-1.98z" fill="#2684ff" fill-rule="evenodd"/><path d="m25.823 23.98c-1.32-1.225-1.32-3.298 0-4.618l-4.241 4.242 2.262 2.356 1.98-1.98z" fill="url(#b)"/><path d="m27.802 25.96-1.979 1.979c1.32 1.32 1.32 3.393 0 4.618l4.241-4.241z" fill="url(#c)"/></svg>