<svg fill="none" viewBox="0 0 33 33" xmlns="http://www.w3.org/2000/svg"><g fill="#fff"><path clip-rule="evenodd" d="m14.826 19.508a.5.5 0 0 0 .644.644l5.11-1.933a.502.502 0 0 0 .176-.114l6.72-6.72a11.947 11.947 0 0 1 1.344 5.526.5.5 0 1 0 1 0c0-2.27-.582-4.406-1.605-6.264l2.706-2.706a.5.5 0 0 0 0-.707l-3.177-3.177a.5.5 0 0 0 -.707 0l-2.437 2.438a12.945 12.945 0 0 0 -7.78-2.584c-7.18 0-13 5.82-13 13 0 3.716 1.56 7.068 4.06 9.437h-3.565a.5.5 0 0 0 0 1h5a.5.5 0 0 0 .5-.5v-5.838a.5.5 0 0 0 -1 0v4.84a11.97 11.97 0 0 1 -3.996-8.94c0-6.628 5.373-12 12-12 2.642 0 5.083.853 7.065 2.299l-7.012 7.012a.5.5 0 0 0 -.114.176l-1.933 5.11zm15.034-11.92-9.735 9.734-3.972 1.503 1.503-3.972 9.735-9.735 2.47 2.47zm-2.836 12.097 5.655 5.655c.189.189.189.566 0 .754l-1.885 1.886-.094.094-4.241 4.241-2.357-2.356-3.864-3.865c-.188-.188-.188-.565 0-.754l1.98-1.979 4.24-4.241zm-2.545 6.032 1.98 1.98 1.979-1.98-1.98-1.979-1.979 1.98z" fill-rule="evenodd"/><path d="m26.46 23.738c-1.32-1.225-1.32-3.299 0-4.618l-4.242 4.241 2.262 2.356zm1.978 1.979-1.979 1.98c1.32 1.32 1.32 3.393 0 4.618l4.241-4.241z"/></g></svg>