<svg fill="none" viewBox="0 0 33 33" xmlns="http://www.w3.org/2000/svg" xmlns:xlink="http://www.w3.org/1999/xlink"><linearGradient id="a"><stop offset=".18" stop-color="#0052cc"/><stop offset="1" stop-color="#2684ff"/></linearGradient><linearGradient id="b" gradientUnits="userSpaceOnUse" x1="25.348" x2="22.059" xlink:href="#a" y1="20.163" y2="21.521"/><linearGradient id="c" gradientUnits="userSpaceOnUse" x1="27.819" x2="31.101" xlink:href="#a" y1="32.222" y2="30.866"/><path clip-rule="evenodd" d="m4.889 16.542c0-6.606 5.354-11.96 11.96-11.96 6.605 0 11.96 5.354 11.96 11.96a.52.52 0 1 0 1.04 0c0-7.18-5.82-13-13-13s-13 5.82-13 13 5.82 13 13 13a.52.52 0 1 0 0-1.04c-6.606 0-11.96-5.355-11.96-11.96zm6.48-.574a.52.52 0 0 1 .52-.52h3.93v-3.93a.52.52 0 0 1 1.04 0v3.93h3.93a.52.52 0 1 1 0 1.04h-3.93v3.93a.52.52 0 0 1 -1.04 0v-3.93h-3.93a.52.52 0 0 1 -.52-.52z" fill="#0278d5" fill-rule="evenodd"/><path clip-rule="evenodd" d="m27.137 20.174 5.655 5.655c.189.189.189.566 0 .754l-1.885 1.885-.094.095-4.241 4.24-2.356-2.355-3.865-3.865c-.188-.188-.188-.565 0-.754l1.98-1.98 4.24-4.24zm-2.544 6.032 1.979 1.98 1.979-1.98-1.98-1.98-1.979 1.98z" fill="#2684ff" fill-rule="evenodd"/><path d="m26.572 24.227c-1.32-1.225-1.32-3.299 0-4.618l-4.24 4.24 2.261 2.357 1.98-1.98z" fill="url(#b)"/><path d="m28.552 26.206-1.98 1.98c1.32 1.319 1.32 3.392 0 4.618l4.242-4.242z" fill="url(#c)"/></svg>