<svg viewBox="0 0 33 33" fill="none" xmlns="http://www.w3.org/2000/svg"><path fill-rule="evenodd" clip-rule="evenodd" d="M4.889 16.542c0-6.606 5.354-11.96 11.96-11.96 6.605 0 11.96 5.354 11.96 11.96a.52.52 0 1 0 1.04 0c0-7.18-5.82-13-13-13s-13 5.82-13 13 5.82 13 13 13a.52.52 0 1 0 0-1.04c-6.606 0-11.96-5.355-11.96-11.96Zm6.48-.574a.52.52 0 0 1 .52-.52h3.93v-3.93a.52.52 0 0 1 1.04 0v3.93h3.93a.52.52 0 1 1 0 1.04h-3.93v3.93a.52.52 0 0 1-1.04 0v-3.93h-3.93a.52.52 0 0 1-.52-.52Z" fill="#0278D5"/><path fill-rule="evenodd" clip-rule="evenodd" d="m27.137 20.174 5.655 5.655c.189.189.189.566 0 .754l-1.885 1.885-.094.095-4.241 4.24-2.356-2.355-3.865-3.865c-.188-.188-.188-.565 0-.754l1.98-1.98 4.24-4.24.566.565Zm-2.544 6.032 1.979 1.98 1.979-1.98-1.98-1.98-1.979 1.98Z" fill="#2684FF"/><path d="M26.572 24.227c-1.32-1.225-1.32-3.299 0-4.618l-4.24 4.24 2.261 2.357 1.98-1.98Z" fill="url(#a)"/><path d="m28.552 26.206-1.98 1.98c1.32 1.319 1.32 3.392 0 4.618l4.242-4.242-2.262-2.356Z" fill="url(#b)"/><defs><linearGradient id="a" x1="25.348" y1="20.163" x2="22.059" y2="21.521" gradientUnits="userSpaceOnUse"><stop offset=".18" stop-color="#0052CC"/><stop offset="1" stop-color="#2684FF"/></linearGradient><linearGradient id="b" x1="27.819" y1="32.222" x2="31.101" y2="30.866" gradientUnits="userSpaceOnUse"><stop offset=".18" stop-color="#0052CC"/><stop offset="1" stop-color="#2684FF"/></linearGradient></defs></svg>