<svg fill="none" viewBox="0 0 33 33" xmlns="http://www.w3.org/2000/svg"><g fill="#fff"><path clip-rule="evenodd" d="m4.858 16.3c0-6.606 5.355-11.96 11.96-11.96 6.606 0 11.96 5.354 11.96 11.96a.52.52 0 1 0 1.04 0c0-7.18-5.82-13-13-13s-13 5.82-13 13c0 7.179 5.82 13 13 13a.52.52 0 0 0 0-1.04c-6.605 0-11.96-5.355-11.96-11.96zm6.48-.574a.52.52 0 0 1 .52-.52h3.93v-3.93a.52.52 0 1 1 1.04 0v3.93h3.931a.52.52 0 0 1 0 1.04h-3.93v3.93a.52.52 0 1 1 -1.04 0v-3.93h-3.93a.52.52 0 0 1 -.52-.52z" fill-rule="evenodd"/><path clip-rule="evenodd" d="m27.107 19.932 5.655 5.655c.189.188.189.565 0 .754l-1.885 1.885-.094.094-4.241 4.241-2.357-2.356-3.864-3.864c-.188-.189-.188-.566 0-.754l1.98-1.98 4.24-4.24zm-2.545 6.032 1.98 1.98 1.979-1.98-1.98-1.98z" fill-rule="evenodd"/><path d="m26.542 23.985c-1.32-1.226-1.32-3.3 0-4.619l-4.241 4.242 2.262 2.356 1.98-1.98zm1.979 1.979-1.979 1.979c1.32 1.32 1.32 3.393 0 4.618l4.241-4.241z"/></g></svg>