<svg xmlns="http://www.w3.org/2000/svg" xmlns:xlink="http://www.w3.org/1999/xlink" viewBox="0 0 511.24 511.24">
    <defs>
        <path id="reuse-0" d="M215.6 262.2c-2 .4-4 .7-6 1 1-.1 2.1-.3 3.1-.5 1-.1 2-.3 2.9-.5z" style="fill:#be202e" />
        <path id="reuse-1" d="M220.8 236.9c-.1 0-.1 0 0 0 .3 0 .6-.1.9-.1 1.3-.2 2.6-.4 3.8-.7-1.5.3-3.1.5-4.7.8z"
            style="fill:#be202e" />
        <path id="reuse-2" d="M212.7 262.8c-1 .2-2 .3-3.1.5 1-.2 2-.4 3.1-.5z" style="fill:#be202e" />
        <path id="reuse-3" d="M220.7 236.9c.3 0 .6-.1 1-.1-.3 0-.6.1-1 .1z" style="fill:#be202e" />
        <path id="reuse-4" d="M220.8 236.9z" style="fill:#be202e" />
    </defs>
    <defs>
        <linearGradient xlink:href="#b" id="k" x1="-7708.8" x2="-7633.15" y1="-803.36" y2="-714.91"
            gradientTransform="rotate(-65 -3054.25 -6609.84)" gradientUnits="userSpaceOnUse" />
        <linearGradient xlink:href="#c" id="l" x1="-8268.64" x2="-7728.96" y1="-813.12" y2="-813.12"
            gradientTransform="rotate(-65 -3054.25 -6609.84)" gradientUnits="userSpaceOnUse" />
        <linearGradient xlink:href="#d" id="m" x1="-8203.49" x2="-7881.9" y1="-758.99" y2="-758.99"
            gradientTransform="rotate(-65 -3054.25 -6609.84)" gradientUnits="userSpaceOnUse" />
        <linearGradient xlink:href="#e" id="n" x1="-8238.33" x2="-7698.65" y1="-818.15" y2="-818.15"
            gradientTransform="rotate(-65 -3054.25 -6609.84)" gradientUnits="userSpaceOnUse" />
        <linearGradient xlink:href="#a" id="o" x1="-8198.97" x2="-7915.35" y1="-810.85" y2="-810.85"
            gradientTransform="rotate(-65 -3054.25 -6609.84)" gradientUnits="userSpaceOnUse" />
        <linearGradient xlink:href="#f" id="p" x1="-8238.33" x2="-7698.65" y1="-762.3" y2="-762.3"
            gradientTransform="rotate(-65 -3054.25 -6609.84)" gradientUnits="userSpaceOnUse" />
        <linearGradient xlink:href="#g" id="q" x1="-8271.81" x2="-7732.13" y1="-765.07" y2="-765.07"
            gradientTransform="rotate(-65 -3054.25 -6609.84)" gradientUnits="userSpaceOnUse" />
        <linearGradient xlink:href="#h" id="r" x1="-8238.33" x2="-7698.65" y1="-745.68" y2="-745.68"
            gradientTransform="rotate(-65 -3054.25 -6609.84)" gradientUnits="userSpaceOnUse" />
        <linearGradient xlink:href="#i" id="s" x1="-8238.33" x2="-7698.65" y1="-747.59" y2="-747.59"
            gradientTransform="rotate(-65 -3054.25 -6609.84)" gradientUnits="userSpaceOnUse" />
        <linearGradient xlink:href="#j" id="t" x1="-7935.14" x2="-7815.86" y1="-747.97" y2="-747.97"
            gradientTransform="rotate(-65 -3054.25 -6609.84)" gradientUnits="userSpaceOnUse" />
    </defs><text xml:space="preserve" x="175.77" y="103.83"
        style="font-size:48px;font-style:normal;font-variant:normal;font-weight:700;font-stretch:normal;line-height:125%;letter-spacing:0;word-spacing:0;fill:#000;fill-opacity:1;stroke:none;font-family:Arial;-inkscape-font-specification:Sans Bold"
        transform="translate(647.23 288.07)" />
    <path
        d="M-645.36 64.33v2.94h-.83v-2.94h-1.04v-.7h2.88v.7h-1.01zM-640.49 64.98l-.98 1.99h-.49l-.98-2v2.3h-.8v-3.64h1.1l.96 1.99.95-2h1.1v3.65h-.8v-2.3z"
        style="fill:#b0afb0" transform="translate(647.23 288.07)" />
    <path
        d="M-611.92 207.08c-3.4 0-6.38-.18-8.95-.55-2.56-.31-4.73-.7-6.51-1.18v-20.24c1.93.42 3.97.78 6.12 1.1 2.1.31 4.4.47 6.9.47 2.41 0 4.64-.27 6.68-.79 2.09-.52 3.9-1.44 5.41-2.74a11.9 11.9 0 0 0 3.61-5.1c.89-2.15 1.33-4.85 1.33-8.09V58.6H-573v110.58c0 6.59-.96 12.26-2.9 17.03a30.57 30.57 0 0 1-8 11.77 31.36 31.36 0 0 1-12.25 6.9 53.47 53.47 0 0 1-15.77 2.2"
        style="font-size:160.72227478px;font-style:normal;font-variant:normal;font-weight:700;font-stretch:normal;line-height:125%;letter-spacing:0;word-spacing:0;fill:#d22128;fill-opacity:1;stroke:#d22128;stroke-width:3;stroke-linejoin:round;stroke-miterlimit:4;stroke-opacity:1;stroke-dasharray:none;font-family:Droid Sans;-inkscape-font-specification:Droid Sans Bold"
        transform="translate(647.23 288.07)" />
    <path
        d="M-559.96 58.61v114.72h21.75v-53.37c0-1.47-.04-3.11-.1-4.94 0-1.83-.05-3.73-.15-5.72-.05-1.99-.11-3.99-.22-6.03a750.96 750.96 0 0 0-1.03-19.94h.72l25.19 90h22.34l27.16-89.84h.62a948.3 948.3 0 0 1-.53 13.72c-.05 1.88-.15 3.82-.25 5.8a9635.86 9635.86 0 0 1-.31 11.38V173.33h22.68V58.61h-33.12l-26.38 87.72h-.46l-24.79-87.72h-33.12zm227.78 8.32-6.9 18.5-13.16 8.03v10.12h11.44v42.28c0 5.65.67 10.36 2.03 14.13a23.37 23.37 0 0 0 5.75 8.94c2.4 2.2 5.26 3.76 8.56 4.65 3.3.9 6.84 1.31 10.66 1.31 3.92 0 7.54-.37 10.84-1.15 3.35-.73 6.13-1.7 8.37-2.85v-17.8a65.4 65.4 0 0 1-6.5 1.96c-2.09.52-4.33.78-6.68.78-2.72 0-4.92-.81-6.6-2.44-1.67-1.62-2.5-4.13-2.5-7.53v-42.28h21.35V85.61h-21.35V66.93h-15.3zm-61.44 17.03c-5.96 0-11.4.97-16.3 2.9a33.31 33.31 0 0 0-12.57 8.69c-3.45 3.82-6.16 8.62-8.1 14.38-1.93 5.75-2.9 12.46-2.9 20.15 0 7.59 1.06 14.23 3.15 19.88a38.22 38.22 0 0 0 8.94 13.97 36.86 36.86 0 0 0 13.66 8.21 52.65 52.65 0 0 0 17.34 2.75c3.25 0 6.22-.1 8.94-.37a54.55 54.55 0 0 0 14.28-3 52.55 52.55 0 0 0 6.38-2.81v-18.53a93.93 93.93 0 0 1-6.75 3.06 61.95 61.95 0 0 1-13.66 3.47c-2.35.26-4.86.37-7.53.37-3.2 0-6.05-.47-8.56-1.47-2.46-1-4.6-2.42-6.38-4.25a20.67 20.67 0 0 1-4.06-6.84 30.6 30.6 0 0 1-1.56-9.1h53.5V123.8c0-6.38-.88-12.02-2.66-16.94a33.6 33.6 0 0 0-7.53-12.56 30.94 30.94 0 0 0-11.94-7.69 43.67 43.67 0 0 0-15.69-2.65zm144.1 0c-5.97 0-11.4.97-16.32 2.9a33.31 33.31 0 0 0-12.56 8.69c-3.45 3.82-6.16 8.62-8.1 14.38-1.93 5.75-2.9 12.46-2.9 20.15 0 7.59 1.07 14.23 3.16 19.88a38.21 38.21 0 0 0 8.94 13.97 36.86 36.86 0 0 0 13.65 8.21 52.65 52.65 0 0 0 17.35 2.75c3.24 0 6.21-.1 8.93-.37a54.55 54.55 0 0 0 14.28-3 52.55 52.55 0 0 0 6.38-2.81v-18.53a93.93 93.93 0 0 1-6.75 3.06 61.95 61.95 0 0 1-13.66 3.47c-2.35.26-4.86.37-7.53.37-3.19 0-6.05-.47-8.56-1.47a18.3 18.3 0 0 1-6.34-4.25 20.73 20.73 0 0 1-4.1-6.84 30.6 30.6 0 0 1-1.56-9.1h53.5V123.8c0-6.38-.88-12.02-2.66-16.94a33.6 33.6 0 0 0-7.53-12.56 30.94 30.94 0 0 0-11.94-7.69 43.67 43.67 0 0 0-15.68-2.65zm89.97 0c-2.93 0-5.55.36-7.85 1.09a20.8 20.8 0 0 0-6.12 2.97 23.9 23.9 0 0 0-4.85 4.66 44.18 44.18 0 0 0-4.09 6.09h-1.19l-3.53-13.16h-18.12v87.72h23.93v-44.65c0-4.14.51-7.62 1.5-10.44a17.52 17.52 0 0 1 4.32-6.9 16.74 16.74 0 0 1 6.68-3.85 29.5 29.5 0 0 1 10.5-1.1c.79 0 1.56.06 2.35.16a30.24 30.24 0 0 1 4.1.56V84.64c-.32-.1-.79-.16-1.42-.21-.57-.1-1.23-.2-1.96-.25-.68-.1-1.4-.16-2.2-.16-.72-.05-1.43-.06-2.05-.06zm-233.91 17.03c2.51 0 4.71.46 6.6 1.4 1.88.95 3.46 2.24 4.71 3.91a16.72 16.72 0 0 1 2.81 5.81c.63 2.25.98 4.71 1.04 7.38h-30.54c.42-6.38 2.01-11.05 4.79-14.03a13.98 13.98 0 0 1 10.59-4.47zm144.1 0c2.5 0 4.7.46 6.59 1.4 1.88.95 3.46 2.24 4.72 3.91a16.72 16.72 0 0 1 2.8 5.81c.64 2.25.99 4.71 1.04 7.38h-30.53c.42-6.38 2-11.05 4.78-14.03a13.98 13.98 0 0 1 10.6-4.47z"
        style="font-size:160.72227478px;font-style:normal;font-variant:normal;font-weight:700;font-stretch:normal;line-height:125%;letter-spacing:0;word-spacing:0;fill:#000;fill-opacity:1;stroke:#000;stroke-width:3;stroke-linejoin:round;stroke-miterlimit:4;stroke-opacity:1;stroke-dasharray:none;font-family:Droid Sans;-inkscape-font-specification:Droid Sans Bold"
        transform="translate(647.23 288.07)" />
    <g
        style="font-size:35.26461411px;font-style:normal;font-variant:normal;font-weight:700;font-stretch:normal;line-height:125%;letter-spacing:0;word-spacing:0;fill:#4d4d4d;fill-opacity:1;stroke:none;font-family:Arial;-inkscape-font-specification:Sans Bold">
        <path
            d="M658.03 171.06h-5.32v-20.73h-6.32v-4.44h17.94v4.44h-6.3v20.73M678.33 171.06l-5.53-19.75h-.15a164.6 164.6 0 0 1 .32 8.04v11.71h-4.77V145.9h7.27l5.44 19.25h.1l5.8-19.25h7.26v25.17h-4.98v-12.93a369.43 369.43 0 0 0 .07-2.5l.05-1.27c.05-.96.09-1.97.12-3.01h-.14l-5.95 19.71h-4.91"
            style="fill:#4d4d4d;font-family:Droid Sans;-inkscape-font-specification:Droid Sans Bold"
            transform="matrix(.661 0 0 .661 52.45 246.46)" />
    </g>
    <path
        d="m232.6 277.3 49.3-117.8h9.5l49.3 117.8h-12.4L313 240.5h-53l-15.1 36.8h-12.3zm54.1-104.2-24.2 58.2h47.8l-23.6-58.2zM353.3 277.3V159.5h48.8c20.2 0 34.8 18.7 34.8 37 0 19.2-13.6 37.3-33.8 37.3h-38.3v43.5h-11.5zm11.5-53.8h37.7c13.9 0 22.9-12.8 22.9-27 0-14.8-10.9-26.7-23.9-26.7h-36.7v53.7zM430.5 277.3l49.3-117.8h9.5l49.3 117.8H526l-15.3-36.8h-52.9l-15.1 36.8h-12.2zm54.1-104.2-24.2 58.2h47.8l-23.6-58.2zM594.2 158.8c20.9 0 36.2 10.6 43.5 25.7l-9.3 5.6c-7.5-15.6-22.1-20.9-34.8-20.9-28.2 0-43.6 25.2-43.6 48.9 0 26 19.1 49.6 44.1 49.6 13.3 0 28.9-6.6 36.3-21.9l9.6 5c-7.6 17.6-28.5 27.4-46.6 27.4-32.3 0-55.1-30.9-55.1-60.7 0-28.3 20.4-58.7 55.9-58.7zM749.1 159.5v117.8h-11.6v-55.1h-69.8v55.1h-11.4V159.5h11.4v52.4h69.8v-52.4h11.6zM854.8 267v10.3h-79.1V159.5h77.6v10.3h-66.2v42.5h57.7v9.8h-57.7V267h67.7z"
        style="fill:#d22128" transform="matrix(.349 0 0 .349 -31.5 232.36)" />
    <g transform="matrix(.651 0 0 .651 261.58 3.5)">
        <linearGradient id="b" x1="-7708.8" x2="-7633.15" y1="-803.36" y2="-714.91"
            gradientTransform="rotate(-65 -3054.25 -6609.84)" gradientUnits="userSpaceOnUse">
            <stop offset="0" style="stop-color:#f69923" />
            <stop offset=".31" style="stop-color:#f79a23" />
            <stop offset=".84" style="stop-color:#e97826" />
        </linearGradient>
        <path
            d="M267.1 19.6c-8.4 5-22.4 19-39 39.3l15.3 28.9c10.7-15.4 21.7-29.2 32.7-41 .8-.9 1.3-1.4 1.3-1.4-.4.5-.9.9-1.3 1.4-3.6 3.9-14.4 16.5-30.7 41.6 15.7-.8 39.8-4 59.5-7.4 5.9-32.8-5.7-47.8-5.7-47.8s-14.8-23.9-32.1-13.6z"
            style="fill:url(#k)" />
        <path
            d="M241.1 184.4c.1 0 .2 0 .3-.1l-2.2.2c-.1.1-.3.1-.4.2l2.3-.3zM225.5 236.1c-1.2.3-2.5.5-3.8.7 1.3-.2 2.6-.4 3.8-.7zM119.3 352.2c.2-.4.3-.9.5-1.3 3.4-8.9 6.7-17.5 10-26a2072.65 2072.65 0 0 1 33.8-81.1c3.1-6.9 6.1-13.6 9.1-20.1 1-2.2 2-4.3 3-6.4 2-4.2 3.9-8.3 5.8-12.3 1.8-3.7 3.5-7.3 5.2-10.9.6-1.2 1.2-2.4 1.7-3.5l.3-.6-1.9.2-1.5-2.9c-.1.3-.3.6-.4.9-2.7 5.3-5.4 10.7-8 16.2-1.5 3.1-3 6.3-4.6 9.5-4.2 8.8-8.3 17.6-12.3 26.6-4.1 9-8.1 18.1-12 27.1-3.9 8.9-7.6 17.8-11.3 26.7-3.7 8.9-7.3 17.7-10.8 26.5-3.7 9.2-7.3 18.3-10.7 27.3-.8 2-1.6 4.1-2.3 6.1-2.8 7.3-5.5 14.4-8.1 21.5l2.4 4.7 2.1-.2c.1-.2.2-.4.2-.6 3.1-9.5 6.5-18.6 9.8-27.4zM220.7 236.9z"
            style="fill:none" />
        <use xlink:href="#reuse-0" style="fill:#be202e" />
        <use xlink:href="#reuse-0" style="opacity:.35;fill:#be202e" />
        <use xlink:href="#reuse-1" style="fill:#be202e" />
        <use xlink:href="#reuse-1" style="opacity:.35;fill:#be202e" />
        <linearGradient id="c" x1="-8268.64" x2="-7728.96" y1="-813.12" y2="-813.12"
            gradientTransform="rotate(-65 -3054.25 -6609.84)" gradientUnits="userSpaceOnUse">
            <stop offset=".32" style="stop-color:#9e2064" />
            <stop offset=".63" style="stop-color:#c92037" />
            <stop offset=".75" style="stop-color:#cd2335" />
            <stop offset="1" style="stop-color:#e97826" />
        </linearGradient>
        <path
            d="M198.2 162.4c4.7-8.7 9.4-17.2 14.1-25.5 4.9-8.6 9.9-16.9 15-25 .3-.5.6-1 .9-1.4 5-7.9 10-15.5 15.1-22.8L228 58.9c-1.1 1.4-2.3 2.8-3.5 4.3-4.4 5.5-9 11.4-13.7 17.7-5.3 7.1-10.7 14.6-16.3 22.5-5.1 7.3-10.3 15-15.5 22.9-4.4 6.8-8.8 13.7-13.2 20.8-.2.3-.3.5-.5.8l19.9 39.3c4.4-8.3 8.7-16.6 13-24.8z"
            style="fill:url(#l)" />
        <linearGradient id="d" x1="-8203.49" x2="-7881.9" y1="-758.99" y2="-758.99"
            gradientTransform="rotate(-65 -3054.25 -6609.84)" gradientUnits="userSpaceOnUse">
            <stop offset="0" style="stop-color:#282662" />
            <stop offset=".1" style="stop-color:#662e8d" />
            <stop offset=".79" style="stop-color:#9f2064" />
            <stop offset=".95" style="stop-color:#cd2032" />
        </linearGradient>
        <path
            d="M107.5 384.1c-2.6 7.2-5.3 14.6-7.9 22.2 0 .1-.1.2-.1.3-.4 1.1-.8 2.1-1.1 3.2-1.8 5.1-3.3 9.7-6.9 20.1 5.9 2.7 10.6 9.7 15 17.7-.5-8.3-3.9-16.1-10.4-22.1 28.9 1.3 53.9-6 66.7-27.2 1.1-1.9 2.2-3.9 3.2-6-5.9 7.4-13.1 10.6-26.8 9.8h-.1.1c20.1-9 30.2-17.7 39.1-32 2.1-3.4 4.2-7.1 6.3-11.2-17.6 18.1-38 23.2-59.5 19.3L109 380c-.5 1.4-1 2.7-1.5 4.1z"
            style="fill:url(#m)" />
        <linearGradient id="e" x1="-8238.33" x2="-7698.65" y1="-818.15" y2="-818.15"
            gradientTransform="rotate(-65 -3054.25 -6609.84)" gradientUnits="userSpaceOnUse">
            <stop offset=".32" style="stop-color:#9e2064" />
            <stop offset=".63" style="stop-color:#c92037" />
            <stop offset=".75" style="stop-color:#cd2335" />
            <stop offset="1" style="stop-color:#e97826" />
        </linearGradient>
        <path
            d="M115 348c3.5-9 7.1-18.1 10.7-27.3 3.5-8.8 7.1-17.6 10.8-26.5 3.7-8.9 7.5-17.8 11.3-26.7 3.9-9.1 7.9-18.1 12-27.1 4-8.9 8.2-17.8 12.3-26.6 1.5-3.2 3-6.3 4.6-9.5 2.6-5.4 5.3-10.8 8-16.2.1-.3.3-.6.4-.9L165.4 148c-.3.5-.6 1.1-1 1.6-4.6 7.6-9.3 15.3-13.8 23.2-4.6 8-9.1 16.1-13.5 24.4-3.7 7-7.3 14-10.9 21.1-.7 1.4-1.4 2.9-2.1 4.3a548.8 548.8 0 0 0-28 69c-1.4 4.4-2.7 8.9-4 13.3-3 10.4-5.5 20.8-7.6 31.2l20 39.5c2.6-7.1 5.4-14.2 8.1-21.5.8-2 1.6-4 2.4-6.1z"
            style="fill:url(#n)" />
        <linearGradient id="a" x1="-8198.97" x2="-7915.35" y1="-810.85" y2="-810.85"
            gradientTransform="rotate(-65 -3054.25 -6609.84)" gradientUnits="userSpaceOnUse">
            <stop offset="0" style="stop-color:#282662" />
            <stop offset=".1" style="stop-color:#662e8d" />
            <stop offset=".79" style="stop-color:#9f2064" />
            <stop offset=".95" style="stop-color:#cd2032" />
        </linearGradient>
        <path
            d="M84.2 337.5c-2.5 12.6-4.3 25.2-5.2 37.8 0 .4-.1.9-.1 1.3-6.2-10-23-19.8-22.9-19.7 12 17.4 21.1 34.6 22.4 51.5-6.4 1.3-15.2-.6-25.3-4.3 10.6 9.7 18.5 12.4 21.6 13.1-9.7.6-19.8 7.3-30 15 14.9-6.1 27-8.5 35.6-6.5-13.7 38.7-27.4 81.5-41.1 126.9 4.2-1.2 6.7-4.1 8.1-7.9 2.4-8.2 18.7-62.2 44.1-133.1.7-2 1.5-4 2.2-6.1.2-.6.4-1.1.6-1.7 2.7-7.4 5.5-15 8.4-22.8.7-1.8 1.3-3.5 2-5.3v-.1l-20-39.5c-.2.5-.3.9-.4 1.4z"
            style="fill:url(#o)" />
        <linearGradient id="f" x1="-8238.33" x2="-7698.65" y1="-762.3" y2="-762.3"
            gradientTransform="rotate(-65 -3054.25 -6609.84)" gradientUnits="userSpaceOnUse">
            <stop offset=".32" style="stop-color:#9e2064" />
            <stop offset=".63" style="stop-color:#c92037" />
            <stop offset=".75" style="stop-color:#cd2335" />
            <stop offset="1" style="stop-color:#e97826" />
        </linearGradient>
        <path
            d="M188.4 190.6c-.6 1.2-1.1 2.3-1.7 3.5-1.7 3.6-3.5 7.2-5.2 10.9-1.9 4-3.8 8.1-5.8 12.3-1 2.1-2 4.2-3 6.4-3 6.5-6 13.2-9.1 20.1a2072.65 2072.65 0 0 0-22.8 53.6c-3.6 8.9-7.3 18-11 27.5-3.3 8.4-6.6 17.1-10 26-.2.4-.3.9-.5 1.3-3.3 8.8-6.7 17.9-10.1 27.2-.1.2-.2.4-.2.6l16.1-1.8c-.3-.1-.6-.1-1-.2 19.3-2.4 44.9-16.8 61.4-34.6 7.6-8.2 14.5-17.8 20.9-29.1 4.8-8.4 9.2-17.7 13.5-28.1 3.7-9 7.3-18.8 10.7-29.4-4.4 2.3-9.5 4-15.1 5.2l-3 .6c-1 .2-2 .3-3.1.5 18-6.9 29.3-20.2 37.5-36.6a65.5 65.5 0 0 1-21.6 9.5c-1.2.3-2.5.5-3.8.7-.3 0-.6.1-1 .1 6.2-2.6 11.5-5.5 16.1-9 1-.7 1.9-1.5 2.8-2.3 1.4-1.2 2.7-2.5 4-3.8.8-.9 1.6-1.7 2.4-2.6 1.8-2.1 3.5-4.4 5-6.9.5-.8 1-1.5 1.4-2.3.6-1.2 1.2-2.3 1.7-3.4a178.45 178.45 0 0 0 8.2-19c.2-.7.5-1.3.7-2 .6-1.9 1.2-3.6 1.6-5.1.6-2.2 1-4 1.2-5.3-.6.5-1.3 1-2.1 1.4-5.4 3.2-14.7 6.2-22.2 7.6l14.8-1.6-14.8 1.6c-.1 0-.2 0-.3.1-.7.1-1.5.2-2.3.4.1-.1.3-.1.4-.2l-50.6 5.5c.1.4 0 .6-.1.7z"
            style="fill:url(#p)" />
        <linearGradient id="g" x1="-8271.81" x2="-7732.13" y1="-765.07" y2="-765.07"
            gradientTransform="rotate(-65 -3054.25 -6609.84)" gradientUnits="userSpaceOnUse">
            <stop offset=".32" style="stop-color:#9e2064" />
            <stop offset=".63" style="stop-color:#c92037" />
            <stop offset=".75" style="stop-color:#cd2335" />
            <stop offset="1" style="stop-color:#e97826" />
        </linearGradient>
        <path
            d="M245.4 88.4c-4.5 6.9-9.4 14.8-14.7 23.6-.3.5-.6.9-.8 1.4a1094.48 1094.48 0 0 0-28.3 51.2c-4.2 8-8.4 16.5-12.9 25.5l50.6-5.5c14.7-6.8 21.3-12.9 27.7-21.8 1.7-2.4 3.4-5 5.1-7.7 5.2-8.1 10.3-17 14.8-25.9 4.4-8.6 8.3-17.1 11.2-24.7 1.9-4.9 3.4-9.4 4.5-13.4.9-3.5 1.6-6.8 2.2-10-19.6 3.3-43.7 6.5-59.4 7.3z"
            style="fill:url(#q)" />
        <use xlink:href="#reuse-2" style="fill:#be202e" />
        <use xlink:href="#reuse-2" style="opacity:.35;fill:#be202e" />
        <linearGradient id="h" x1="-8238.33" x2="-7698.65" y1="-745.68" y2="-745.68"
            gradientTransform="rotate(-65 -3054.25 -6609.84)" gradientUnits="userSpaceOnUse">
            <stop offset=".32" style="stop-color:#9e2064" />
            <stop offset=".63" style="stop-color:#c92037" />
            <stop offset=".75" style="stop-color:#cd2335" />
            <stop offset="1" style="stop-color:#e97826" />
        </linearGradient>
        <use xlink:href="#reuse-2" style="fill:url(#r)" />
        <use xlink:href="#reuse-3" style="fill:#be202e" />
        <use xlink:href="#reuse-3" style="opacity:.35;fill:#be202e" />
        <linearGradient id="i" x1="-8238.33" x2="-7698.65" y1="-747.59" y2="-747.59"
            gradientTransform="rotate(-65 -3054.25 -6609.84)" gradientUnits="userSpaceOnUse">
            <stop offset=".32" style="stop-color:#9e2064" />
            <stop offset=".63" style="stop-color:#c92037" />
            <stop offset=".75" style="stop-color:#cd2335" />
            <stop offset="1" style="stop-color:#e97826" />
        </linearGradient>
        <use xlink:href="#reuse-3" style="fill:url(#s)" />
        <use xlink:href="#reuse-4" style="fill:#be202e" />
        <use xlink:href="#reuse-4" style="opacity:.35;fill:#be202e" />
        <linearGradient id="j" x1="-7935.14" x2="-7815.86" y1="-747.97" y2="-747.97"
            gradientTransform="rotate(-65 -3054.25 -6609.84)" gradientUnits="userSpaceOnUse">
            <stop offset=".32" style="stop-color:#9e2064" />
            <stop offset=".63" style="stop-color:#c92037" />
            <stop offset=".75" style="stop-color:#cd2335" />
            <stop offset="1" style="stop-color:#e97826" />
        </linearGradient>
        <use xlink:href="#reuse-4" style="fill:url(#t)" />
    </g>
</svg>