<svg viewBox="0 0 33 32" fill="none" xmlns="http://www.w3.org/2000/svg"><path fill-rule="evenodd" clip-rule="evenodd" d="M8.5 5a.5.5 0 0 1 .5-.5h13.357a.5.5 0 0 1 .401.201l3.643 4.89a.5.5 0 0 1 .099.298v8.555a.5.5 0 1 1-1 0v-8.39L22.106 5.5H9.5v4.76a.5.5 0 0 1-1 0V5ZM9 21.717a.5.5 0 0 1 .5.5V26.5H19c.276 0 .5.5.5.5s-.224.5-.5.5H9a.5.5 0 0 1-.5-.5v-4.783a.5.5 0 0 1 .5-.5ZM7.765 15.16a.5.5 0 0 1-.024.706l-1.474 1.38H14a.5.5 0 0 1 0 1H6.262l1.48 1.39a.5.5 0 1 1-.684.73l-2.4-2.257a.5.5 0 0 1 0-.73l2.4-2.243a.5.5 0 0 1 .707.024Zm3.494-3.794a.5.5 0 1 1 .682-.73l2.4 2.244a.5.5 0 0 1 .001.73l-2.4 2.255a.5.5 0 1 1-.684-.728l1.48-1.392H5a.5.5 0 0 1 0-1h7.733l-1.475-1.379Z" fill="#0278D5"/><path d="M19 27h6.9a.1.1 0 0 0 .1-.1v-8.4" stroke="#0278D5" stroke-linejoin="round"/></svg>