<svg xmlns="http://www.w3.org/2000/svg" viewBox="0 0 32 32" xmlns:v="https://vecta.io/nano"><path fill-rule="evenodd" d="M16 27a.5.5 0 0 1-.5-.5v-6.378c0-1.466-.945-2.379-2.104-3.472l-.031-.029c-1.101-1.038-2.386-2.251-2.386-4.231l-.001-5.594-1.608 1.77a.5.5 0 0 1-.74-.672l2.458-2.706A.5.5 0 0 1 11.478 5a.5.5 0 0 1 .391.187l2.456 2.706a.5.5 0 0 1-.741.672l-1.606-1.77v5.593c0 1.51.951 2.446 2.104 3.533l.069.065c.659.621 1.381 1.302 1.849 2.17.467-.868 1.19-1.549 1.849-2.17l.069-.065c1.153-1.087 2.104-2.024 2.104-3.533V6.796l-1.606 1.77a.5.5 0 0 1-.74-.672l2.456-2.706A.5.5 0 0 1 20.522 5a.5.5 0 0 1 .391.187l2.458 2.706a.5.5 0 1 1-.74.672l-1.608-1.77-.001 5.594c0 1.981-1.285 3.193-2.387 4.232l-.031.029c-1.159 1.093-2.104 2.006-2.104 3.472V26.5a.5.5 0 0 1-.5.5z" fill="#0278d5"/><path d="M26 20.6l4.378 2.108 1.081 4.738-3.03 3.799h-4.86l-3.03-3.799 1.081-4.738L26 20.6z" fill="#326ce5"/><path fill-rule="evenodd" d="M30.76 22.909l.991 4.306h0a.77.77 0 0 1-.148.644l-2.776 3.453a.78.78 0 0 1-.6.286l-4.453.001a.78.78 0 0 1-.332-.076c-.104-.05-.195-.121-.268-.21l-2.777-3.453a.74.74 0 0 1-.044-.061c-.055-.085-.093-.181-.111-.281s-.016-.203.007-.302l.99-4.306c.027-.111.078-.215.149-.305s.163-.162.266-.211l4.012-1.917c.104-.05.218-.075.333-.075s.229.026.333.075l4.012 1.916c.103.05.194.122.265.211s.123.193.149.305zm.486 4.597c.011-.029.019-.059.026-.09h0c.022-.1.022-.203 0-.303l-.909-3.947a.71.71 0 0 0-.38-.473l-3.678-1.756a.71.71 0 0 0-.61 0l-3.677 1.757a.71.71 0 0 0-.38.473l-.907 3.947c-.022.1-.023.203 0 .303a.7.7 0 0 0 .026.09.68.68 0 0 0 .07.142l.04.056 2.545 3.164a.52.52 0 0 0 .031.034.71.71 0 0 0 .139.116c.062.039.13.069.201.088.058.016.118.024.179.025H24l4.042-.001a.67.67 0 0 0 .073-.004c.035-.004.07-.011.104-.02.024-.006.049-.014.072-.023l.055-.022c.026-.013.052-.027.077-.043a.69.69 0 0 0 .169-.149l.078-.097 2.467-3.068a.69.69 0 0 0 .11-.197zm-1.582-.714l.022.006c.03.004.06.014.086.03s.049.037.066.063a.22.22 0 0 1 .034.175.22.22 0 0 1-.107.143c-.027.015-.056.024-.087.028a.22.22 0 0 1-.091-.01h-.003l-.004-.001-.022-.005-.035-.008a1.81 1.81 0 0 1-.198-.076 2.06 2.06 0 0 0-.384-.113c-.045-.001-.09.015-.123.046l-.094-.017c-.213.67-.664 1.238-1.269 1.596.01.03.023.06.037.089-.022.039-.029.086-.017.13a2.05 2.05 0 0 0 .195.349c.043.056.082.115.118.175l.02.041.009.018a.22.22 0 0 1 .022.178.22.22 0 0 1-.044.08c-.02.023-.045.042-.073.055s-.058.02-.089.021-.062-.005-.09-.017a.22.22 0 0 1-.124-.13l-.027-.056a1.83 1.83 0 0 1-.064-.202 2.05 2.05 0 0 0-.151-.37c-.027-.037-.068-.061-.112-.068l-.021-.038-.026-.046a2.85 2.85 0 0 1-2.031-.005l-.05.09c-.035.005-.069.022-.095.046a1.54 1.54 0 0 0-.171.395 1.8 1.8 0 0 1-.064.202l-.018.037-.009.019v.001h0a.22.22 0 0 1-.048.078c-.021.022-.047.04-.076.052a.22.22 0 0 1-.09.017c-.031-.001-.061-.008-.089-.021a.22.22 0 0 1-.117-.136c-.009-.029-.012-.061-.008-.091a.22.22 0 0 1 .03-.087l.01-.021.018-.038c.036-.061.075-.119.118-.176.078-.113.144-.233.199-.358.006-.043-.001-.086-.02-.125l.04-.096c-.602-.356-1.054-.919-1.269-1.585l-.096.016c-.037-.026-.081-.042-.127-.045a2.06 2.06 0 0 0-.384.113c-.064.029-.13.054-.197.076l-.036.008-.021.005-.008.002c-.029.01-.06.013-.091.01s-.06-.012-.087-.027-.05-.036-.068-.06a.22.22 0 0 1-.038-.083c-.007-.03-.007-.061-.001-.091a.22.22 0 0 1 .102-.146c.026-.016.055-.026.086-.03h.003.002l.004-.001.055-.013a1.84 1.84 0 0 1 .211-.017 2.06 2.06 0 0 0 .395-.065c.038-.024.07-.057.095-.095l.092-.027a2.85 2.85 0 0 1 .449-1.986l-.071-.063c-.003-.046-.018-.09-.044-.127a2.05 2.05 0 0 0-.327-.23 1.82 1.82 0 0 1-.182-.107l-.035-.028-.014-.011c-.05-.036-.084-.09-.094-.151s.004-.123.04-.173c.021-.026.048-.046.078-.06s.064-.02.097-.018c.056.002.11.023.153.058l.049.039a1.83 1.83 0 0 1 .145.154c.09.099.189.189.297.268.04.021.087.026.131.013l.079.056a2.83 2.83 0 0 1 1.438-.822c.131-.03.264-.05.398-.061l.005-.093a.24.24 0 0 0 .071-.114 2.06 2.06 0 0 0-.024-.399 1.85 1.85 0 0 1-.03-.209v-.039-.021c-.003-.034 0-.065.01-.095s.025-.056.046-.079.046-.041.074-.054.059-.019.09-.019a.22.22 0 0 1 .164.073.22.22 0 0 1 .056.171v.023.04c-.006.07-.016.14-.03.209a2.06 2.06 0 0 0-.025.399c.009.045.034.084.072.11v.006l.005.093c.696.063 1.345.377 1.827.883l.084-.06c.045.008.091.003.133-.014.107-.08.207-.17.297-.268a1.84 1.84 0 0 1 .145-.154l.037-.029a.27.27 0 0 1 .09-.059c.029-.011.06-.015.091-.014s.061.01.089.025a.22.22 0 0 1 .071.058c.019.024.033.052.041.082s.009.061.004.092a.22.22 0 0 1-.099.15l-.017.014-.031.025c-.059.039-.12.075-.183.107a2.06 2.06 0 0 0-.327.23c-.03.035-.044.079-.041.125l-.036.032-.043.038a2.86 2.86 0 0 1 .459 1.981l.089.026c.022.04.055.073.095.095.129.034.261.056.395.065a1.86 1.86 0 0 1 .211.017l.042.01zm-3.009-1.569l.941-.667c-.358-.351-.821-.574-1.319-.636l.065 1.153.001.001c.002.035.013.069.032.098s.046.053.078.068.067.021.102.018.068-.016.097-.037l.003.002zm-.477.597h-.354l-.221.275.079.343.319.153.318-.153.079-.343-.22-.275zm-.452-1.899c-.079.009-.157.023-.235.04-.412.093-.79.299-1.092.595l.947.671.002-.001c.028.021.062.033.097.036s.07-.003.102-.019.058-.039.078-.068.03-.063.032-.098l.005-.002.066-1.154zm-.806 1.84l-.864-.773c-.264.429-.377.934-.322 1.435l1.108-.32.001-.004c.034-.009.065-.028.089-.053s.041-.057.049-.091.006-.07-.005-.103-.031-.063-.057-.086l.001-.005zm-.147 2.344l.44-1.064-.003-.004c.013-.029.018-.061.015-.093s-.013-.062-.031-.089-.041-.049-.069-.064-.059-.024-.091-.024c-.013 0-.026.001-.038.003l-.002-.003-1.136.193a2.28 2.28 0 0 0 .915 1.145zm.498.24c.4.136.83.158 1.242.064l.224-.062-.56-1.012h-.004c-.017-.031-.041-.056-.072-.075s-.064-.027-.1-.027-.069.009-.099.027-.055.044-.071.075h-.001l-.559 1.01zm1.519-1.311l.445 1.075a2.27 2.27 0 0 0 .918-1.153l-1.146-.194-.002.002c-.015-.003-.03-.004-.045-.003a.19.19 0 0 0-.074.019c-.045.022-.08.06-.098.107s-.016.099.003.145l-.001.002zm.369-.937l1.114.321a2.31 2.31 0 0 0-.332-1.43l-.86.769v.002c-.026.023-.046.053-.057.086s-.012.069-.005.103.025.066.049.091.055.044.089.053l.001.005z" fill="#fff"/></svg>