<svg data-icon="canary-progressive-rollback" viewBox="0 0 20 20" xmlns="http://www.w3.org/2000/svg"><desc>Canary Progressive Rollback</desc><g fill="currentColor"><path fill-rule="evenodd" d="M14 6H4.41L6.7 3.71a1.003 1.003 0 1 0-1.41-1.42l-4 4a1.003 1.003 0 0 0 0 1.42l4 4a1.003 1.003 0 1 0 1.41-1.42L4.41 8H14a3 3 0 0 1 0 6h-1v2h1a5 5 0 0 0 0-10"/><g transform="translate(0 3)"><rect x="2.2" y="12.3" width="2.8" height="2.8" rx=".25"/><rect x="7.3" y="13" width="2.1" height="2.1" rx=".22"/><rect x="11.8" y="13.6" width="1.5" height="1.5" rx=".18"/></g></g></svg>