<svg fill="none" xmlns="http://www.w3.org/2000/svg" viewBox="0 0 32 33"><path fill-rule="evenodd" clip-rule="evenodd" d="M10.35 4.5c0-.146.119-.265.265-.265h1.114v.53h-.85v.737h-.529V4.5Zm2.549-.265h2.227v.53H12.9v-.53Zm3.397 0h2.228v.53h-2.228v-.53Zm3.398 0h2.227v.53h-2.227v-.53Zm3.397 0h2.228v.53H23.09v-.53Zm3.398 0h2.227v.53H26.49v-.53Zm3.397 0H31c.146 0 .265.119.265.265v1.002h-.53v-.738h-.849v-.529ZM10.88 6.45v2.005h-.529V6.449h.53Zm20.386 0v2.005h-.53V6.449h.53Zm0 2.951v2.005h-.53V9.4h.53Zm0 2.952v2.004h-.53v-2.004h.53Zm0 2.951v2.005h-.53v-2.005h.53Zm0 2.951v1.003a.264.264 0 0 1-.265.264h-1.114v-.529h.85v-.738h.529Zm-4.776.738h2.227v.53H26.49v-.53ZM5.543 9.044c0-.146.118-.265.264-.265h1.114v.53h-.85v.737h-.528V9.044Zm2.548-.265h2.228v.53H8.09v-.53Zm3.397 0h2.228v.53h-2.228v-.53Zm3.398 0h2.228v.53h-2.228v-.53Zm3.398 0h2.228v.53h-2.229v-.53Zm3.397 0h2.228v.53h-2.228v-.53Zm3.398 0h1.114c.146 0 .264.119.264.265v1.002h-.529v-.738h-.85V8.78ZM6.072 10.993v2.004h-.53v-2.004h.53Zm20.385 0v2.004h-.529v-2.004h.53Zm0 2.951v2.005h-.529v-2.005h.53Zm0 2.951V18.9h-.529v-2.005h.53Zm0 2.952v2.005h-.529v-2.005h.53Zm0 2.951v1.003a.265.265 0 0 1-.264.264h-1.114v-.529h.849v-.738h.53Zm-4.776.738h2.228v.53h-2.228v-.53ZM.735 13.588c0-.146.119-.264.265-.264h20.385c.146 0 .265.118.265.264v14.757a.265.265 0 0 1-.265.265H1a.265.265 0 0 1-.265-.265V13.588Z" fill="currentColor"/></svg>