<svg fill="none" xmlns="http://www.w3.org/2000/svg" viewBox="0 0 32 32"><path fill-rule="evenodd" clip-rule="evenodd" d="M10.615 2.735A.265.265 0 0 0 10.35 3v1.002h.53v-.738h.849v-.529h-1.114Zm4.511 0H12.9v.53h2.227v-.53Zm3.398 0h-2.228v.53h2.228v-.53Zm3.397 0h-2.227v.53h2.227v-.53Zm3.398 0H23.09v.53h2.228v-.53Zm3.398 0h-2.228v.53h2.227v-.53Zm2.283 0h-1.114v.53h.85v.737h.529V3A.264.264 0 0 0 31 2.735ZM10.88 6.954V4.949h-.53v2.005h.53Zm20.385 0V4.949h-.53v2.005h.53Zm0 2.951V7.9h-.53v2.005h.53Zm0 2.951v-2.004h-.53v2.004h.53Zm0 2.952v-2.005h-.53v2.005h.53Zm0 1.949v-1.003h-.53v.738h-.849v.53H31a.264.264 0 0 0 .265-.265Zm-2.549-.265H26.49v.53h2.227v-.53ZM1 29.35h21.475v-.619H1v.619ZM5.543 7.544c0-.146.118-.265.264-.265h1.114v.53h-.85v.737h-.528V7.544Zm2.548-.265h2.228v.53H8.09v-.53Zm3.397 0h2.228v.53h-2.228v-.53Zm3.398 0h2.228v.53h-2.228v-.53Zm3.398 0h2.228v.53h-2.229v-.53Zm3.397 0h2.228v.53h-2.228v-.53Zm3.398 0h1.114c.146 0 .264.119.264.265v1.002h-.529v-.738h-.85V7.28ZM6.072 9.493v2.004h-.53V9.493h.53Zm20.385 0v2.004h-.529V9.493h.53Zm0 2.951v2.005h-.529v-2.005h.53Zm0 2.951V17.4h-.529v-2.005h.53Zm0 2.952v2.005h-.529v-2.005h.53Zm0 2.951v1.003a.265.265 0 0 1-.264.264h-1.114v-.529h.849v-.738h.53Zm-4.534.738h1.986v.53h-1.986v3.602a.265.265 0 0 1-.265.265H1.852a.265.265 0 0 1-.265-.265V11.83c0-.146.118-.265.264-.265h19.807c.146 0 .265.119.265.265v10.206Z" fill="currentColor"/></svg>