<svg fill="none" xmlns="http://www.w3.org/2000/svg" viewBox="0 0 32 33"><path fill-rule="evenodd" clip-rule="evenodd" d="M10.35 4.5c0-.146.119-.265.265-.265h1.114v.53h-.85v.737h-.528V4.5Zm2.549-.265h2.228v.53h-2.228v-.53Zm3.397 0h2.228v.53h-2.228v-.53Zm3.398 0h2.228v.53h-2.228v-.53Zm3.397 0h2.228v.53h-2.228v-.53Zm3.398 0h2.228v.53h-2.228v-.53Zm3.398 0H31c.146 0 .265.119.265.265v1.002h-.53v-.738h-.848v-.529ZM10.88 6.45v2.005h-.53V6.449h.53Zm20.385 0v2.005h-.53V6.449h.53Zm0 2.951v2.005h-.53V9.4h.53Zm0 2.952v2.004h-.53v-2.004h.53Zm0 2.951v2.005h-.53v-2.005h.53Zm0 2.951v1.003a.264.264 0 0 1-.265.264h-1.113v-.529h.849v-.738h.529Zm-4.776.738h2.228v.53h-2.228v-.53ZM5.543 9.044c0-.146.118-.265.265-.265h1.114v.53h-.85v.737h-.529V9.044Zm2.548-.265h2.228v.53H8.091v-.53Zm3.398 0h2.228v.53h-2.228v-.53Zm3.397 0h2.228v.53h-2.228v-.53Zm3.398 0h2.228v.53h-2.228v-.53Zm3.397 0h2.228v.53h-2.228v-.53Zm3.398 0h1.114c.146 0 .264.119.264.265v1.002h-.529v-.738h-.85V8.78ZM6.072 10.993v2.004h-.529v-2.004h.53Zm20.385 0v2.004h-.529v-2.004h.53Zm0 2.951v2.005h-.529v-2.005h.53Zm0 2.951V18.9h-.529v-2.005h.53Zm0 2.952v2.005h-.529v-2.005h.53ZM6.072 22.798v.738h.85v.53H5.808a.265.265 0 0 1-.265-.265v-1.003h.53Zm20.385 0v1.003a.265.265 0 0 1-.264.264h-1.114v-.529h.85v-.738h.528Zm-18.366.738h2.228v.53H8.091v-.53Zm3.398 0h2.228v.53h-2.228v-.53Zm3.397 0h2.228v.53h-2.228v-.53Zm6.795 0h2.228v.53h-2.228v-.53Z" fill="currentColor"/><path fill-rule="evenodd" clip-rule="evenodd" d="M.735 13.5c0-.146.119-.265.265-.265h20.385c.146 0 .265.119.265.265v14.757a.265.265 0 0 1-.265.264H1a.265.265 0 0 1-.265-.264V13.5Zm2.196 4.103c0-.215.15-.475.556-.757.399-.277.993-.537 1.75-.76 1.513-.443 3.619-.722 5.955-.722 2.337 0 4.442.278 5.955.723.758.222 1.352.482 1.751.759.407.282.556.542.556.757 0 .215-.15.475-.556.757-.399.277-.993.537-1.751.76-1.513.443-3.618.722-5.955.722-2.336 0-4.442-.279-5.954-.723-.758-.222-1.352-.482-1.751-.76-.407-.281-.556-.541-.556-.756ZM19.2 18.795c.09-.063.175-.13.254-.198v5.778c0 .215-.15.475-.556.757-.399.277-.993.537-1.751.76-1.513.443-3.618.722-5.955.722-2.336 0-4.442-.279-5.954-.723-.758-.222-1.352-.482-1.751-.759-.407-.282-.556-.542-.556-.757v-5.778c.078.069.164.135.254.198.464.322 1.119.601 1.904.832 1.573.462 3.731.744 6.103.744 2.373 0 4.53-.282 6.104-.744.785-.23 1.44-.51 1.904-.832Zm.784 5.58v-6.772c0-.477-.328-.875-.784-1.192-.465-.322-1.119-.602-1.904-.832-1.573-.462-3.731-.744-6.104-.744-2.372 0-4.53.282-6.103.744-.785.23-1.44.51-1.904.832-.456.317-.784.715-.784 1.192v6.772c0 .477.328.875.784 1.192.464.322 1.119.602 1.904.832 1.573.462 3.731.744 6.103.744 2.373 0 4.53-.282 6.104-.744.785-.23 1.44-.51 1.904-.832.456-.317.784-.715.784-1.192Z" fill="currentColor"/></svg>