<svg xmlns="http://www.w3.org/2000/svg" width="32" height="32" fill="none"><mask id="a" width="29" height="29" x="2" y="1" maskUnits="userSpaceOnUse" style="mask-type:alpha"><path stroke="#000" stroke-linecap="round" stroke-linejoin="round" stroke-width="2" d="M4.475 10.632 16 16.837m0 0 11.525-6.205M16 16.837v11.525M3.14 2.922l.016-.016M3.14 28.897l.015-.016m25.98-25.959.016-.016m-.014 25.991.015-.016m-12.273-.135 10.638-6.08a1.77 1.77 0 0 0 .893-1.538V10.774c0-.636-.34-1.224-.893-1.54L16.88 3.157a1.77 1.77 0 0 0-1.76 0L4.483 9.235a1.77 1.77 0 0 0-.893 1.539v10.354c0 .636.34 1.223.893 1.539l10.639 6.079a1.77 1.77 0 0 0 1.759 0"/></mask><g mask="url(#a)"><path fill="currentColor" d="M0 0h32v32H0z"/></g></svg>