<svg xmlns="http://www.w3.org/2000/svg" fill="currentColor" viewBox="0 0 32 32"><g fill="currentColor" clip-path="url(#a)"><path d="m22.505 11.637-5.989-3.5a1 1 0 0 0-1.007-.001l-6.012 3.5A1 1 0 0 0 9 12.5v7a1 1 0 0 0 .497.864l6.012 3.5A.96.96 0 0 0 16 24c.174 0 .36-.045.516-.137l5.989-3.5A1 1 0 0 0 23 19.5v-7a1 1 0 0 0-.495-.863m-6.494-1.48 4.007 2.343-4.007 2.342-4.023-2.342zM11 14.24l4 2.33v4.685l-4-2.33zm6 7.025v-4.683l4-2.338v4.683z"/><path d="M16 31a1 1 0 0 1-.504-.136l-12-7A1 1 0 0 1 3 23V9a1 1 0 0 1 .496-.864l12-7a1 1 0 0 1 1.008 0l11 6.417-1.008 1.727L16 3.158 5 9.574v12.852l11 6.416 11-6.416V15h2v8a1 1 0 0 1-.496.864l-12 7A1 1 0 0 1 16 31"/></g><defs><clipPath id="a"><path fill="#fff" d="M0 0h32v32H0z"/></clipPath></defs></svg>