<svg xmlns="http://www.w3.org/2000/svg" viewBox="0 0 500 500"><g style="fill:none;fill-rule:evenodd;stroke:none;stroke-width:1"><path id="Page-1" d="M237.705 0c76.958 0 139.344 62.387 139.344 139.344v197.008h65.574c31.688 0 57.377 25.688 57.377 57.377V443h-7.546c-18.225 0-33.095-14.593-33.438-32.815v-8.224l-.003-.407c-.217-13.393-11.142-24.184-24.586-24.184h-327.87C47.707 377.37 0 329.663 0 270.813V139.344C0 62.387 62.387 0 139.344 0zm-8.197 41.019h-81.967l-1.762.014c-58.037.94-104.795 48.281-104.795 106.543v123.202l.008 1.084c.58 35.716 29.712 64.49 65.565 64.49h163.935c36.215 0 65.574-29.359 65.574-65.574V147.576l-.015-1.762c-.94-58.037-48.281-104.795-106.543-104.795m-81.64 65.63c9.345 0 16.722 7.629 16.722 17.227v49.96l56.803-58.574c7.377-6.891 17.46-7.383 24.59-.738v.246c6.886 6.399 6.394 16.981-1.229 23.873l-42.05 43.315 48.935 69.896c5.902 8.614 4.18 19.442-3.688 24.61-8.607 4.923-18.443 2.216-24.344-6.398l-44.017-64.481-15 15.75v40.363c0 9.845-7.377 17.228-16.721 17.228s-16.721-7.383-16.721-17.228V123.876c0-9.598 7.377-17.228 16.72-17.228" style="fill:#5c62b0" transform="translate(2.119 37.661)"/></g></svg>