<svg width="22" height="11" xmlns="http://www.w3.org/2000/svg"><g fill-rule="nonzero" stroke="#1C1C28" stroke-width=".5" fill="none"><path d="M5.444 1A4.45 4.45 0 001 5.444c0 2.459 1.994 4.46 4.444 4.46 1.939 0 3.613-1.542 4.202-2.995a.393.393 0 01.23-.223.39.39 0 01.322.015l1.032.507.757-.72a.402.402 0 01.552-.007l.543.493.547-.556a.404.404 0 01.572-.005l.527.516.528-.53a.406.406 0 01.571-.002l.522.522.524-.523a.406.406 0 01.571 0l.522.522.523-.522a.414.414 0 01.315-.118c.118.01.223.067.294.16l.277.369c.116-.153.234-.311.312-.396a.412.412 0 01.3-.134c.693 0 .927-.37.927-1.465 0-1.018-.636-1.381-1.23-1.381H9.638a.408.408 0 01-.35-.202A4.448 4.448 0 005.444 1h0z"/><path d="M3.828 3.99c.403 0 .769.163 1.034.428a1.458 1.458 0 010 2.067 1.458 1.458 0 01-2.067 0 1.458 1.458 0 010-2.067c.265-.265.63-.428 1.033-.428z"/></g></svg>