<svg viewBox="0 0 32 32" fill="none" xmlns="http://www.w3.org/2000/svg"><rect opacity=".7" x="2" y="3" width="13.523" height="15.21" rx="2" fill="#526EB3"/><rect x="3.932" y="4.789" width="13.523" height="15.21" rx="2" fill="#36559E"/><path d="M7.795 9.47H9.58v7.158H7.795V9.47zM12.254 9.47h2.377L9.58 14.425v-2.202l2.675-2.753z" fill="#fff"/><path d="M12.848 16.628h2.378l-3.567-4.68-1.189 1.376 2.378 3.304z" fill="#fff"/><path d="M22 15h6a1 1 0 011 1v2a1 1 0 01-1 1h-6a1 1 0 01-1-1v-2a1 1 0 011-1zM3.333 24.333H28a1 1 0 011 1v2a1 1 0 01-1 1H3.333a1 1 0 01-1-1v-2a1 1 0 011-1zM23 6h5a1 1 0 011 1v2a1 1 0 01-1 1h-5a1 1 0 01-1-1V7a1 1 0 011-1z" fill="#36559E"/></svg>