<?xml version="1.0" encoding="UTF-8"?>
<svg version="1.1" xmlns="http://www.w3.org/2000/svg" viewBox="0 0 1024 1024">
<path d="M0 0 C0.93325325 -0.00205263 1.8665065 -0.00410527 2.82804015 -0.0062201 C5.9427457 -0.0118565 9.05740656 -0.01043702 12.17211628 -0.00901413 C14.43299561 -0.01159971 16.69387449 -0.0146134 18.95475274 -0.01801753 C25.158623 -0.0260684 31.36248168 -0.02787604 37.56635654 -0.028615 C43.57336441 -0.03027843 49.58036637 -0.03659888 55.58737093 -0.04269341 C71.67518161 -0.0587266 87.7629913 -0.06465403 103.85080852 -0.06944216 C111.46870852 -0.0717812 119.08660777 -0.07538423 126.70450719 -0.07913754 C152.80538173 -0.09197182 178.90625586 -0.1026902 205.00713348 -0.10614014 C206.64455677 -0.10636177 208.28198005 -0.10658355 209.91940333 -0.10680549 C211.56068094 -0.10702613 213.20195854 -0.10724661 214.84323615 -0.10746694 C218.13566824 -0.10790948 221.42810033 -0.10835659 224.72053242 -0.10880661 C225.53685958 -0.108916 226.35318674 -0.10902539 227.19425108 -0.1091381 C253.6426635 -0.11276587 280.09104846 -0.128676 306.53945037 -0.15199697 C334.53255398 -0.17663464 362.52564192 -0.19031484 390.51875669 -0.19150805 C393.59627744 -0.19167949 396.67379819 -0.19189492 399.75131893 -0.19214249 C400.88789448 -0.19222614 400.88789448 -0.19222614 402.04743115 -0.19231148 C414.20270951 -0.19345862 426.35795954 -0.20445195 438.51322836 -0.21902954 C450.74956203 -0.23344968 462.98585968 -0.23660059 475.22219952 -0.22858956 C481.84169128 -0.22454635 488.46110852 -0.2255451 495.08059406 -0.23964691 C501.15515843 -0.25246878 507.22955784 -0.25111622 513.30412225 -0.2390562 C515.48726142 -0.23711344 517.67041262 -0.24011082 519.85353496 -0.24890056 C590.03834982 -0.51330704 655.52536405 28.61500853 705.11921406 77.75642776 C710.90186501 83.58544 716.22919921 89.62384897 721.24421406 96.13142776 C722.2590647 97.40678392 723.27475186 98.68147469 724.29108906 99.95564651 C732.12925992 109.87755851 738.99121153 120.14477825 745.24421406 131.13142776 C745.67331074 131.88117874 746.10240742 132.63092972 746.54450703 133.40340042 C759.2529277 155.86087838 767.64001086 180.19559006 772.99421406 205.38142776 C773.29247089 206.78122879 773.29247089 206.78122879 773.59675312 208.20930862 C776.79283886 223.99923305 777.65169854 239.37723219 777.61921406 255.44392776 C777.61839832 256.96436691 777.61839832 256.96436691 777.61756611 258.515522 C777.57768823 274.71263998 776.71169207 290.25651141 773.24421406 306.13142776 C772.91477802 307.67081009 772.91477802 307.67081009 772.57868671 309.24129105 C763.94077429 348.60400732 746.61098176 384.8269574 721.24421406 416.13142776 C720.79884296 416.68121292 720.35347187 417.23099808 719.89460468 417.79744339 C708.69617847 431.49142862 696.32643376 444.38749993 682.24421406 455.13142776 C681.07988414 456.04775474 679.91584042 456.96444544 678.75202656 457.88142776 C632.27160658 494.06404085 576.10770225 512.50393464 517.47453022 512.39212418 C515.20760874 512.39515002 512.94068827 512.39904167 510.67376959 512.40371674 C504.48569928 512.41394977 498.29768721 512.41182694 492.10961223 512.40753615 C486.1080096 512.40531511 480.10642233 512.41249275 474.10482494 512.4192964 C460.32513438 512.43448974 446.54546229 512.43624625 432.76576512 512.43377338 C422.11943555 512.43193642 411.47311199 512.43370876 400.82678318 512.43799782 C399.29395012 512.43860024 397.76111707 512.43920143 396.22828401 512.43980142 C393.91806622 512.44070874 391.60784843 512.44161741 389.29763065 512.44253377 C367.83387847 512.45095645 346.37012854 512.45530378 324.90637493 512.45112705 C324.09820408 512.45097068 323.29003324 512.4508143 322.45737236 512.45065319 C318.36181745 512.44984748 314.26626254 512.4490017 310.17070763 512.44813988 C309.35740813 512.4479688 308.54410863 512.44779771 307.70616369 512.44762144 C306.06147628 512.44727478 304.41678888 512.44692625 302.77210148 512.44657585 C277.19166573 512.44122094 251.61126447 512.44914533 226.03083515 512.46760941 C197.24887864 512.48836034 168.46694349 512.49904616 139.68497908 512.49503392 C136.61149923 512.49463861 133.53801938 512.49427706 130.46453953 512.49393654 C129.707848 512.49384581 128.95115647 512.49375508 128.17153489 512.49366159 C116.78573206 512.49249927 105.3999509 512.49911611 94.01415348 512.50974846 C81.05263214 512.52184039 68.09115832 512.52331374 55.12963621 512.51095829 C48.52427513 512.50494231 41.91898667 512.50391867 35.31362629 512.51596069 C29.25229013 512.52688192 23.19112336 512.52364253 17.12979491 512.50969901 C14.95157723 512.50706914 12.77334601 512.50936396 10.59514169 512.51743487 C-27.99462306 512.65035518 -66.06626915 504.24251058 -100.75578594 487.13142776 C-101.58239727 486.72698441 -102.4090086 486.32254105 -103.26066875 485.90584183 C-121.01217388 477.1389335 -137.40957975 466.64223066 -152.75578594 454.13142776 C-153.3065379 453.68363968 -153.85728985 453.23585159 -154.42473125 452.77449417 C-167.78636317 441.82252408 -180.19718052 429.83247528 -190.75578594 416.13142776 C-191.77063659 414.85607161 -192.78632374 413.58138084 -193.80266094 412.30720901 C-201.6408318 402.38529702 -208.50278342 392.11807728 -214.75578594 381.13142776 C-215.18488262 380.38167679 -215.6139793 379.63192581 -216.05607891 378.85945511 C-228.76449959 356.40197715 -237.15158274 332.06726547 -242.50578594 306.88142776 C-242.70462383 305.94822708 -242.90346172 305.0150264 -243.108325 304.05354691 C-246.30450097 288.26317673 -247.16180299 272.88592034 -247.13078594 256.81892776 C-247.13057446 255.80629868 -247.13036297 254.79366959 -247.13014507 253.75035477 C-247.09642072 237.53949178 -246.12787574 222.03317251 -242.75578594 206.13142776 C-242.48290752 204.76171829 -242.48290752 204.76171829 -242.20451641 203.36433792 C-235.05824184 167.87564464 -219.48232821 134.00866047 -197.75578594 105.13142776 C-197.29172344 104.51042191 -196.82766094 103.88941605 -196.34953594 103.24959183 C-189.67812525 94.37490985 -182.45382569 86.12611644 -174.75578594 78.13142776 C-174.25401836 77.60774612 -173.75225079 77.08406448 -173.23527813 76.5445137 C-166.47471884 69.52309682 -159.44891578 63.13868449 -151.75578594 57.13142776 C-150.79543438 56.35412308 -149.83508282 55.57681839 -148.84562969 54.77595901 C-107.86720775 22.19008366 -52.73993383 -0.1098491 0 0 Z M-29.63078594 96.44392776 C-33.19236673 101.41338048 -35.7143333 106.72898563 -37.50187969 112.56892776 C-39.16340718 115.96444811 -41.66927732 117.99188413 -44.50578594 120.38142776 C-53.58692138 128.40435717 -60.23488733 137.8044667 -61.13859844 150.26033401 C-61.52294959 159.72524356 -60.91832901 168.27512752 -54.50578594 175.75642776 C-53.63953594 176.43705276 -53.63953594 176.43705276 -52.75578594 177.13142776 C-52.59143047 176.13562698 -52.59143047 176.13562698 -52.42375469 175.11970901 C-51.54442571 170.22263298 -50.76126881 166.22981349 -47.75578594 162.13142776 C-43.92189391 163.56913728 -40.34014725 165.32973322 -36.72062969 167.22908401 C-30.25859368 170.19673873 -21.92963535 170.19814708 -15.12687969 168.45955276 C-13.30236389 167.7676076 -11.52137591 166.96229363 -9.75578594 166.13142776 C-9.50441875 166.80431839 -9.25305157 167.47720901 -8.99406719 168.17049026 C-7.23887774 172.36744171 -5.09466987 176.36525765 -2.94133282 180.36970901 C3.20711148 192.28895804 6.14455083 205.19669995 8.75428486 218.24702835 C9.25645764 220.75507702 9.77083652 223.26035275 10.28864765 225.76521683 C10.97163856 229.06982279 11.65197358 232.37494693 12.329175 235.68074417 C20.08976836 273.49335914 32.3368546 305.23051783 63.24421406 330.13142776 C71.90623513 337.17205872 71.90623513 337.17205872 72.51545429 342.50642776 C72.53394428 343.80580276 72.53394428 343.80580276 72.55280781 345.13142776 C72.5871291 346.57751419 72.5871291 346.57751419 72.62214375 348.05281448 C72.64180195 349.06875687 72.66146015 350.08469925 72.68171406 351.13142776 C73.01982475 361.50176568 73.50250077 370.82010083 78.99421406 379.88142776 C80.77180167 382.86388479 81.63398866 384.88403464 81.43171406 388.38142776 C79.90561813 393.20067806 78.37460868 394.34973343 74.24421406 397.13142776 C71.19444993 398.65630983 68.02750521 398.36549895 64.68171406 398.38142776 C63.92954609 398.38682571 63.17737812 398.39222366 62.40241718 398.39778519 C56.84168522 398.34982792 51.6755485 397.58471442 46.24421406 396.44392776 C40.68098902 395.30209493 36.54903259 394.81087263 31.29108906 397.25642776 C28.86793677 398.29227913 26.66783706 398.50991913 24.05671406 398.81892776 C19.84779439 399.5609058 18.17199811 400.83870041 15.61921406 404.25642776 C14.79883662 405.53005241 13.99650902 406.81644063 13.24421406 408.13142776 C14.23421406 408.46142776 15.22421406 408.79142776 16.24421406 409.13142776 C17.23421406 408.47142776 18.22421406 407.81142776 19.24421406 407.13142776 C21.28718281 406.71736526 21.28718281 406.71736526 23.43171406 406.50642776 C24.68983906 406.38267776 25.94796406 406.25892776 27.24421406 406.13142776 C27.24421406 407.45142776 27.24421406 408.77142776 27.24421406 410.13142776 C28.23421406 410.81205276 28.23421406 410.81205276 29.24421406 411.50642776 C29.90421406 412.04267776 30.56421406 412.57892776 31.24421406 413.13142776 C31.49421406 416.31892776 31.49421406 416.31892776 31.24421406 419.13142776 C32.13108906 418.28580276 33.01796406 417.44017776 33.93171406 416.56892776 C36.8732863 414.13142776 36.8732863 414.13142776 39.80671406 414.13142776 C42.24421406 415.13142776 42.24421406 415.13142776 44.49421406 416.88142776 C47.61956122 418.30204011 48.10811888 418.18397241 51.24421406 417.19392776 C56.38744702 415.21443138 61.36083736 412.82093485 66.32624531 410.43611526 C75.09478713 406.51550888 85.22787467 407.30277227 94.24421406 410.13142776 C94.24421406 410.79142776 94.24421406 411.45142776 94.24421406 412.13142776 C93.04796406 412.04892776 91.85171406 411.96642776 90.61921406 411.88142776 C86.15714044 411.87350223 83.6718485 413.20539836 80.24421406 416.13142776 C79.91421406 417.12142776 79.58421406 418.11142776 79.24421406 419.13142776 C80.06921406 418.80142776 80.89421406 418.47142776 81.74421406 418.13142776 C87.69158907 416.43217776 91.85233918 416.40325583 97.30671406 419.06892776 C100.84368558 420.3983412 102.10385152 420.18335561 105.72858906 418.84236526 C107.67300798 417.9126005 109.58208549 416.93062394 111.49079609 415.92976761 C117.25817679 412.94191769 122.76390206 411.72274115 129.24421406 411.13142776 C129.24421406 411.79142776 129.24421406 412.45142776 129.24421406 413.13142776 C128.40890156 413.22424026 128.40890156 413.22424026 127.55671406 413.31892776 C121.3419093 415.50250782 117.38790311 422.63267268 114.24421406 428.13142776 C114.24421406 428.79142776 114.24421406 429.45142776 114.24421406 430.13142776 C126.30755869 430.32599784 136.41808185 423.44760897 146.35358906 417.29549026 C150.8871947 414.50413803 155.0042846 414.66840012 160.24421406 415.13142776 C162.36530781 415.80330276 162.36530781 415.80330276 164.30671406 416.63142776 C168.61886006 418.46452627 172.60634547 418.81687092 177.24421406 418.13142776 C179.97403238 416.77742131 179.97403238 416.77742131 182.24421406 415.13142776 C185.05671406 414.44392776 185.05671406 414.44392776 187.24421406 414.13142776 C185.79633337 411.07479076 184.90350956 409.4359595 181.78327656 407.99470901 C176.21895932 406.63740867 170.64937346 406.73647194 164.94343281 406.65291214 C159.67355766 406.49835929 155.76247573 406.15551746 151.24421406 403.13142776 C148.94787581 399.6869204 148.70404921 397.19330494 148.24421406 393.13142776 C148.82171406 392.94580276 149.39921406 392.76017776 149.99421406 392.56892776 C153.63515891 390.24276855 155.56442638 386.43584564 156.77644062 382.32722855 C157.29215485 379.9063863 157.45507762 377.6197672 157.56062031 375.14705276 C157.60251484 374.21248245 157.64440937 373.27791214 157.68757343 372.31502151 C157.72688984 371.34693558 157.76620625 370.37884964 157.80671406 369.38142776 C157.84989765 368.39787308 157.89308125 367.41431839 157.93757343 366.40095901 C158.04343458 363.97791501 158.14551576 361.55477237 158.24421406 359.13142776 C159.41597187 359.69797073 159.41597187 359.69797073 160.61140156 360.27595901 C169.33564276 364.42434542 178.16567631 368.29118283 187.05671406 372.06892776 C188.21993183 372.56561966 189.3831496 373.06231155 190.5816164 373.57405472 C191.67296894 374.03513626 192.76432148 374.4962178 193.88874531 374.97127151 C194.8720583 375.38755814 195.85537128 375.80384476 196.86848164 376.23274612 C199.13264904 377.24936377 199.13264904 377.24936377 201.24421406 377.13142776 C201.5007375 377.85588089 201.75726093 378.58033401 202.02155781 379.32674026 C205.89109282 388.20318161 214.01964926 396.26585068 222.80671406 400.31111526 C225.71899177 401.29120873 228.1921777 401.27338294 231.24421406 401.13142776 C231.57421406 400.47142776 231.90421406 399.81142776 232.24421406 399.13142776 C233.27481953 399.16623245 233.27481953 399.16623245 234.32624531 399.20174026 C235.2273 399.21978714 236.12835468 399.23783401 237.05671406 399.25642776 C238.39669453 399.29123245 238.39669453 399.29123245 239.76374531 399.32674026 C242.4982412 399.31428603 242.4982412 399.31428603 245.24421406 397.13142776 C246.15171406 397.77080276 247.05921406 398.41017776 247.99421406 399.06892776 C253.26561981 402.41424295 258.11145681 402.60066008 264.24421406 402.13142776 C267.1750208 401.26489362 267.1750208 401.26489362 269.24421406 400.13142776 C267.52574226 393.98167647 262.97578616 391.8864204 257.89655781 388.51033401 C254.69115779 385.63538761 254.75616797 384.28094893 254.24421406 380.13142776 C252.59527906 377.66319409 252.59527906 377.66319409 250.36921406 375.44392776 C249.56226093 374.58412308 248.75530781 373.72431839 247.92390156 372.83845901 C246.10111564 370.99707324 244.25077275 369.18265071 242.37702656 367.39314651 C234.31664292 359.67134268 230.49269488 353.19787919 227.18171406 342.63142776 C210.55970027 289.92848927 176.07648131 246.05866431 137.74421406 207.50642776 C137.2054665 206.96300735 136.66671894 206.41958694 136.1116457 205.85969925 C133.29722133 203.05653777 130.41365645 200.38494954 127.40437031 197.79158401 C122.79060688 193.7949763 118.48541821 189.51953372 114.18171406 185.19392776 C113.41794453 184.43402542 112.654175 183.67412308 111.86726093 182.89119339 C96.77058968 167.76869379 86.5393426 151.85496855 77.12605 132.84822464 C65.88669642 110.19509493 53.38209088 93.29568193 28.52155781 84.86970901 C9.17968023 79.08378181 -15.82350289 79.65286744 -29.63078594 96.44392776 Z M353.24421406 119.13142776 C350.59045956 121.31405505 347.91596176 123.47089091 345.24421406 125.63142776 C343.86388986 126.75628561 342.48367922 127.8812828 341.10358906 129.00642776 C337.20079002 132.17912434 333.24651578 135.28350336 329.25983906 138.35017776 C323.86398535 143.11860663 322.22825923 147.07819815 321.74421406 154.13142776 C321.51954835 157.40512801 321.28438631 160.01091102 320.24421406 163.13142776 C315.6285943 164.01904695 313.3563573 164.25382428 309.24421406 162.13142776 C303.53580622 162.26116431 299.70985915 164.87193762 295.24421406 168.13142776 C294.71215351 168.51653519 294.18009296 168.90164261 293.63190937 169.29841995 C285.18451401 175.09228165 285.18451401 175.09228165 280.55671406 183.69392776 C281.17245744 197.63435794 300.30247159 215.49338653 309.74421406 224.52205276 C314.94828649 229.14811876 314.94828649 229.14811876 321.49421406 230.88142776 C325.63910097 230.05245038 328.06335829 228.7492355 331.24421406 226.13142776 C332.04214375 225.52556839 332.84007343 224.91970901 333.66218281 224.29549026 C342.11152533 218.35105351 342.11152533 218.35105351 346.72468281 209.60799026 C346.89907443 207.84385474 347.02844974 206.07444383 347.10358906 204.30330276 C347.24421406 202.13142776 347.24421406 202.13142776 348.24421406 200.13142776 C354.31845878 200.55521228 359.34582401 202.67392296 364.96296406 204.94783401 C367.90008137 206.00729419 370.47994974 206.58384748 373.55671406 207.00642776 C379.32468595 208.06019186 382.28116207 210.96268104 386.24421406 215.13142776 C386.72793476 215.63287308 387.21165546 216.13431839 387.71003437 216.65095901 C394.11787333 223.31230347 400.23653165 230.15472898 406.01374531 237.37361526 C408.02368868 239.85876416 410.085796 242.28945025 412.17268085 244.71004105 C417.2207916 250.57828056 421.94977717 256.62408249 426.55646992 262.84383011 C430.33349704 267.93982867 434.20500531 272.95272777 438.11921406 277.94392776 C443.49216907 284.81014943 448.70592744 291.77769293 453.85310078 298.81428909 C458.24613505 304.80850567 462.72660262 310.73066381 467.24421406 316.63142776 C475.28569817 327.14268598 483.13482211 337.7877439 490.95319843 348.46541214 C498.33722444 358.54372358 505.80467315 368.54989069 513.39924335 378.47078323 C516.54044793 382.57535198 519.66903489 386.68701156 522.74812031 390.83845901 C523.28872089 391.56653763 523.82932148 392.29461624 524.3863039 393.04475784 C525.37846858 394.38441527 526.36736737 395.72650114 527.35212421 397.07161331 C532.6936953 404.27894248 538.00937991 409.21301726 546.68171406 411.88142776 C547.52733906 411.96392776 548.37296406 412.04642776 549.24421406 412.13142776 C549.88874531 412.20619339 550.53327656 412.28095901 551.19733906 412.35799026 C557.76853053 412.79453795 562.9410318 411.03241268 568.24421406 407.13142776 C574.04961292 400.52690517 575.67684594 394.63517545 575.49421406 385.98299026 C574.56849527 375.42401037 566.7466319 368.89792977 559.73884296 361.68660355 C557.96903704 359.84510343 556.28225475 357.94461874 554.61921406 356.00642776 C551.726764 352.65348815 548.74380196 349.38830985 545.74421406 346.13142776 C542.12326098 342.1986281 538.55462358 338.22928624 535.05280781 334.19002151 C532.81410156 331.64186127 530.53011194 329.13732184 528.24421406 326.63142776 C525.39897178 323.51235765 522.57221825 320.38387385 519.80671406 317.19392776 C516.84537895 313.78454196 513.80268919 310.45348467 510.74421406 307.13142776 C507.10007077 303.17280591 503.50507689 299.17966017 499.97858906 295.11580276 C496.44920692 291.07768086 492.8378718 287.11228095 489.24421406 283.13142776 C486.99313405 280.63109322 484.7429219 278.12998979 482.49421406 275.62752151 C480.99938717 273.96919793 479.49940825 272.31550335 477.99421406 270.66658401 C474.14143666 266.43254218 470.40557091 262.14664345 466.80671406 257.69392776 C463.73084818 253.89055274 460.5566824 250.23060125 457.24421406 246.63142776 C453.1843776 242.21502632 449.35097585 237.66979255 445.58405781 233.00252151 C443.05687752 229.90155739 440.4679496 226.85977753 437.86921406 223.81892776 C433.03264757 218.14147753 428.40271832 212.3203836 423.82624531 206.43220901 C420.92281386 202.70015054 417.92242079 199.04926976 414.90046406 195.41267776 C410.61965923 189.51647489 409.8425886 184.95532498 409.74421406 177.88142776 C409.34096113 166.47899176 406.29033292 157.84623872 401.54890156 147.52595901 C400.20290675 144.02395455 399.63189272 140.85219735 399.24421406 137.13142776 C399.76757343 136.88908401 400.29093281 136.64674026 400.83015156 136.39705276 C403.32515514 135.08899263 405.65006585 133.58761231 408.01423359 132.05940628 C421.80161403 123.30392976 436.99219431 118.75267036 453.30671406 117.90486526 C454.33599018 117.84939529 454.33599018 117.84939529 455.38605976 117.79280472 C457.33137711 117.69877756 459.27808617 117.63498077 461.22468281 117.57283401 C462.22112812 117.42716995 463.21757343 117.28150589 464.24421406 117.13142776 C465.23421406 115.64642776 465.23421406 115.64642776 466.24421406 114.13142776 C461.52134157 106.61776699 453.67568968 104.32410989 445.45368671 102.40901566 C412.77531709 95.21631279 379.35786089 96.4717662 353.24421406 119.13142776 Z M532.17390156 102.60017776 C531.36815693 102.91986526 530.5624123 103.23955276 529.73225117 103.56892776 C528.86994892 103.91955276 528.00764668 104.27017776 527.11921406 104.63142776 C525.78418842 105.17283401 525.78418842 105.17283401 524.42219257 105.72517776 C505.26785368 113.54044246 505.26785368 113.54044246 488.24421406 125.13142776 C487.04538593 126.12722855 487.04538593 126.12722855 485.82233906 127.14314651 C478.58760391 133.71024671 471.69484704 144.06885982 471.13309956 154.11944962 C471.14145329 155.16649818 471.14145329 155.16649818 471.14997578 156.23469925 C471.1526244 157.03330872 471.15527302 157.83191818 471.1580019 158.65472794 C471.16324879 159.51199982 471.16849567 160.3692717 471.17390156 161.25252151 C471.165308 163.0943278 471.15482862 164.93612606 471.14265156 166.77791214 C471.1260624 169.66125421 471.11898195 172.54280911 471.14460468 175.4261055 C471.23910829 187.86728996 470.68731542 196.72963378 463.24421406 207.13142776 C462.7975539 207.80230423 462.35089375 208.47318069 461.89069843 209.16438675 C460.83856067 210.69579722 459.70154564 212.16801648 458.55671406 213.63142776 C457.83097187 214.56986526 457.10522968 215.50830276 456.35749531 216.47517776 C454.32420807 219.03088077 452.28832101 221.58436899 450.24421406 224.13142776 C451.17040546 225.13109573 451.17040546 225.13109573 452.11530781 226.15095901 C456.44177944 230.85937183 460.67106029 235.58467326 464.68171406 240.56892776 C469.6037296 246.6729327 474.8957561 252.40307933 480.24421406 258.13142776 C481.3463625 257.02734573 481.3463625 257.02734573 482.47077656 255.90095901 C484.12690316 254.24716499 485.78698114 252.59729125 487.45515156 250.95564651 C491.04593677 247.41023223 494.54080893 243.85526333 497.80671406 240.00642776 C503.88324191 232.95709151 509.40853135 227.45581054 518.98249531 226.63924026 C520.84036912 226.50876925 522.69845657 226.38131535 524.55671406 226.25642776 C543.6457787 224.71457634 559.64869769 220.49518393 573.24421406 206.13142776 C581.86235325 195.71784291 586.78988935 183.79076861 590.05988789 170.793293 C590.56147404 168.8000118 591.08180671 166.81235232 591.60554218 164.82478714 C595.03965922 154.66229363 595.03965922 154.66229363 593.98640156 144.73299026 C593.37022968 144.08072464 592.75405781 143.42845901 592.11921406 142.75642776 C591.51851093 142.08869339 590.91780781 141.42095901 590.29890156 140.73299026 C587.85334979 138.8267617 586.33992645 138.25758532 583.24421406 138.13142776 C577.17084713 141.43968455 572.76072162 147.98880639 568.53718281 153.29549026 C565.60882354 156.91727702 562.51544945 160.35658925 559.34187031 163.76424026 C557.2254171 166.05559776 557.2254171 166.05559776 555.61530781 168.49861526 C553.07759815 172.07303338 551.29993853 173.8023205 547.04890156 175.12752151 C541.96847182 175.83527037 538.01331137 176.06329795 533.39655781 173.63142776 C530.83577389 171.60496507 528.56396137 169.42713625 526.24421406 167.13142776 C525.46690937 166.56810745 524.68960468 166.00478714 523.88874531 165.42439651 C520.62084256 163.04721416 518.61673385 161.36074309 517.42390156 157.42439651 C516.7248956 151.86953002 516.93759549 148.76490602 520.24421406 144.13142776 C522.06090312 141.87041814 523.95519046 139.68527534 525.86921406 137.50642776 C526.94702815 136.26510019 528.0238407 135.02290233 529.09968281 133.77986526 C529.63125996 133.16594925 530.1628371 132.55203323 530.71052265 131.9195137 C533.65245521 128.48960061 536.49777865 124.98354401 539.32624531 121.45955276 C541.24421406 119.13142776 541.24421406 119.13142776 542.94343281 117.36580276 C545.54035602 114.66215668 546.23108485 113.38088281 546.43171406 109.56892776 C544.85848075 105.01483133 543.23571195 103.76581637 539.24421406 101.13142776 C536.28796762 101.13142776 534.86438664 101.52908418 532.17390156 102.60017776 Z M416.24421406 266.13142776 C414.11251074 268.35960233 412.01724783 270.61054882 409.93171406 272.88142776 C403.68345695 279.61440375 397.29725139 286.19432628 390.80671406 292.69392776 C389.97937763 293.52569534 389.15204121 294.35746292 388.29963398 295.21443558 C384.04693263 299.45729568 379.72115185 303.54052976 375.16730976 307.45784378 C371.87849579 310.31995115 368.72491302 313.3247622 365.55671406 316.31892776 C364.15472336 317.63831344 362.75237464 318.95731877 361.34968281 320.27595901 C360.65922871 320.92516312 359.9687746 321.57436722 359.25739765 322.24324417 C356.30671274 325.01071896 353.34155799 327.76224483 350.36921406 330.50642776 C349.83868427 330.99643265 349.30815449 331.48643753 348.76154804 331.99129105 C345.57628456 334.92549193 342.35699694 337.81759549 339.11921406 340.69392776 C321.31127478 356.3454884 321.31127478 356.3454884 313.27546406 377.92049026 C313.15635166 386.34769251 316.05436368 394.28069275 321.61140156 400.61970901 C328.5468306 407.04078806 337.44706382 410.51030452 346.74421406 411.50642776 C359.5588906 410.13342671 369.68259057 403.83531135 377.95905781 394.08455276 C382.09814492 388.73557864 385.85445965 383.14266494 389.62214375 377.5288887 C392.67925207 373.0104053 395.81029715 368.54310936 398.93171406 364.06892776 C403.09126274 358.10301161 407.24631847 352.1344741 411.36921406 346.14314651 C420.06021102 333.53506585 428.8875002 321.04829301 438.63874531 309.22908401 C439.2923 308.43373245 439.94585468 307.63838089 440.61921406 306.81892776 C441.16319843 306.18341995 441.70718281 305.54791214 442.26765156 304.89314651 C443.4355583 303.19622047 443.4355583 303.19622047 443.01032734 301.30647659 C442.06569768 298.62460736 440.70761029 296.81495166 438.96296406 294.56892776 C438.28950947 293.69454056 437.61605488 292.82015335 436.92219257 291.91926956 C436.20345966 290.99928177 435.48472675 290.07929398 434.74421406 289.13142776 C433.2841577 287.24243013 431.8245201 285.35310875 430.36530781 283.46345901 C429.65745136 282.55031937 428.94959492 281.63717972 428.22028828 280.69636917 C425.00004951 276.51650403 421.87291975 272.26953399 418.74812031 268.01814651 C418.00368671 267.08422073 418.00368671 267.08422073 417.24421406 266.13142776 C416.91421406 266.13142776 416.58421406 266.13142776 416.24421406 266.13142776 Z " fill="currentColor" transform="translate(246.75578594207764,255.86857223510742)"/>
<path d="M0 0 C2.36624803 2.14025571 3.62728032 4.00446375 4.83203125 6.94921875 C5.31337524 8.0928186 5.31337524 8.0928186 5.80444336 9.25952148 C6.13710205 10.06075439 6.46976074 10.8619873 6.8125 11.6875 C9.58283437 18.17302426 12.44724259 23.55889968 17 29 C17.495 30.485 17.495 30.485 18 32 C19.88316159 33.10836423 19.88316159 33.10836423 22 34 C22.99 34.66 23.98 35.32 25 36 C25.7118533 39.91519315 25.18901679 41.67410898 23.1875 45.125 C18.58454614 50.09409792 11.15181165 52.08206046 4.5625 52.625 C1 52 1 52 -1.4375 49.0625 C-1.953125 48.051875 -2.46875 47.04125 -3 46 C-3.495 45.505 -3.495 45.505 -4 45 C-7.56394504 45.00911495 -11.11800644 45.13348277 -14.6796875 45.2578125 C-18 45 -18 45 -19.93359375 43.69140625 C-21.5311582 41.15754029 -21.19454014 38.91810207 -21 36 C-20.33613281 35.731875 -19.67226563 35.46375 -18.98828125 35.1875 C-17.66376953 34.5996875 -17.66376953 34.5996875 -16.3125 34 C-15.44238281 33.62875 -14.57226562 33.2575 -13.67578125 32.875 C-7.03377939 28.22075052 -5.01966105 20.81559791 -3.25 13.25 C-3.04246094 12.41339844 -2.83492188 11.57679688 -2.62109375 10.71484375 C-2.23883179 9.16853245 -1.86210313 7.62083313 -1.49316406 6.07128906 C-1.01037685 4.04358277 -0.50901665 2.02126296 0 0 Z " fill="currentColor" transform="translate(358,611)"/>
<path d="M0 0 C5.07311095 2.29171421 8.81061109 5.63564503 11.7734375 10.3515625 C12.87656187 13.79882616 12.95869803 15.61052037 12.0859375 19.1015625 C10.49138752 21.83507675 9.80901975 22.47284132 6.7734375 23.3515625 C-0.5689371 23.96342705 -6.33044548 22.79717243 -12.0390625 17.9765625 C-15.24575856 14.12852722 -17.07647314 11.80242635 -17.6015625 6.7265625 C-17.2265625 3.3515625 -17.2265625 3.3515625 -15.8515625 1.4765625 C-11.18542333 -1.75384154 -5.34728194 -1.5572786 0 0 Z " fill="currentColor" transform="translate(590.2265625,629.6484375)"/>
</svg>
