<svg viewBox="0 0 26 26" xmlns="http://www.w3.org/2000/svg">
<path fill-rule="evenodd" clip-rule="evenodd" d="M12.7972 0.569504C12.9547 0.476487 13.151 0.476858 13.3082 0.570469L25.2581 7.68681C25.4092 7.77679 25.5012 7.9393 25.5 8.11417C25.4988 8.28905 25.4045 8.45028 25.2522 8.53818L13.3023 15.4334C13.1481 15.5224 12.9576 15.5228 12.8031 15.4344L0.7494 8.53911C0.596149 8.45144 0.501229 8.28971 0.500012 8.11416C0.498794 7.93862 0.591462 7.7756 0.743484 7.68584L12.7972 0.569504ZM13.0508 1.57036L1.98402 8.10403L13.0508 14.4347L24.0223 8.10404L13.0508 1.57036ZM22.1997 11.5936C22.3413 11.3594 22.6473 11.2835 22.8832 11.424L25.2581 12.8383C25.4092 12.9283 25.5012 13.0908 25.5 13.2657C25.4988 13.4405 25.4046 13.6018 25.2522 13.6897L13.3023 20.5849C13.1481 20.6739 12.9577 20.6742 12.8031 20.5858L0.749406 13.6906C0.596154 13.6029 0.501235 13.4412 0.500018 13.2656C0.4988 13.0901 0.591468 12.9271 0.743489 12.8373L3.13902 11.423C3.37548 11.2834 3.68121 11.3605 3.82188 11.5952C3.96256 11.8298 3.8849 12.1333 3.64843 12.2729L1.98403 13.2555L13.0508 19.5862L24.0223 13.2555L22.3706 12.2719C22.1346 12.1314 22.0581 11.8277 22.1997 11.5936ZM22.8832 16.2721C22.6473 16.1316 22.3413 16.2075 22.1997 16.4417C22.0581 16.6758 22.1346 16.9795 22.3706 17.12L24.0223 18.1036L13.0508 24.4343L1.98403 18.1036L3.64843 17.121C3.8849 16.9814 3.96256 16.6779 3.82188 16.4433C3.68121 16.2086 3.37548 16.1315 3.13902 16.2711L0.743489 17.6854C0.591468 17.7752 0.4988 17.9382 0.500018 18.1137C0.501235 18.2893 0.596154 18.451 0.749406 18.5387L12.8031 25.4339C12.9577 25.5224 13.1481 25.522 13.3023 25.433L25.2522 18.5378C25.4046 18.4499 25.4988 18.2886 25.5 18.1138C25.5012 17.9389 25.4092 17.7764 25.2581 17.6864L22.8832 16.2721Z" fill="currentColor"/>
</svg>
