<svg viewBox="0 0 4.2333 4.2333" xmlns="http://www.w3.org/2000/svg"><g fill="none" transform="matrix(.20982 0 0 .20982 0 .40318)"><rect fill="#000" fill-opacity=".05" height="16.333" rx="1" width="20.176"/><rect height="15.333" rx=".5" stroke="#66798b" stroke-opacity=".6" width="19.176" x=".5" y=".5"/><g fill="#9ea9b4"><path d="m9.3027 3c0-.55229.44772-1 .99997-1h7c.5523 0 1 .44772 1 1v9c0 .5523-.4477 1-1 1h-7c-.55225 0-.99997-.4477-.99997-1z"/><path d="m14.303 14.5c0-.2761.2239-.5.5-.5h3c.2762 0 .5.2239.5.5s-.2238.5-.5.5h-3c-.2761 0-.5-.2239-.5-.5z"/></g></g></svg>