<svg xmlns="http://www.w3.org/2000/svg" fill="none" viewBox="0 0 12 12"><path fill="currentColor" d="M4.247.5h-.018a1 1 0 0 0-.32.041.75.75 0 0 0-.28.173.969.969 0 0 0-.18.268l-.007.016-2.107 4.214a3 3 0 0 0-.118.253.77.77 0 0 0-.055.395.75.75 0 0 0 .312.505c.14.098.29.12.378.127.085.008.186.008.28.008h2.446L3.27 10.856a.5.5 0 0 0 .839.491l6.109-6.336a4 4 0 0 0 .249-.27.8.8 0 0 0 .192-.442.75.75 0 0 0-.265-.622.8.8 0 0 0-.45-.168C9.839 3.5 9.709 3.5 9.577 3.5H6.72l.872-2.324A.5.5 0 0 0 7.125.5z"/></svg>