<svg xmlns="http://www.w3.org/2000/svg" viewBox="0 0 20 20">
  <path fill="#000" stroke="currentColor" stroke-linecap="round" stroke-linejoin="round" stroke-width="2" d="M7.5 13.75h5v4.583h-5z" opacity=".12"/>
  <path stroke="currentColor" stroke-linecap="round" stroke-linejoin="round" stroke-width="2" d="M12.5 13.75v2.083c0 .777 0 1.165-.127 1.472-.169.408-.493.732-.902.901-.306.127-.694.127-1.471.127s-1.165 0-1.471-.127a1.67 1.67 0 0 1-.902-.901c-.127-.307-.127-.695-.127-1.472V13.75m5 0c2.207-.964 3.75-3.27 3.75-5.833a6.25 6.25 0 1 0-12.5 0c0 2.563 1.543 4.869 3.75 5.833m5 0h-5"/>
</svg>