<svg height="46" viewBox="0 0 46 46" width="46" xmlns="http://www.w3.org/2000/svg"><path clip-rule="evenodd" d="m21 1c.7364 0 1.3333.59695 1.3333 1.33333v3.48499c7.1792.76435 12.8446 6.59538 13.3515 13.84838h3.9819c.7362 0 1.3333.5969 1.3333 1.3333s-.5971 1.3333-1.3333 1.3333h-4.0299c-.7451 6.9984-6.3051 12.5584-13.3035 13.3035v4.0299c0 .7362-.5969 1.3333-1.3333 1.3333s-1.3333-.5971-1.3333-1.3333v-3.9819c-7.253-.5069-13.08403-6.1723-13.84838-13.3515h-3.48499c-.73638 0-1.33333-.5969-1.33333-1.3333s.59695-1.3333 1.33333-1.3333h3.43696c.51974-7.4356 6.46081-13.37667 13.89641-13.89641v-3.43696c0-.73638.5969-1.33333 1.3333-1.33333zm1.3333 32.0859v-6.7526c0-.7363-.5969-1.3333-1.3333-1.3333s-1.3333.597-1.3333 1.3333v6.8107c-5.8529-.4936-10.55411-5.0325-11.29753-10.8107h7.29753c.7363 0 1.3333-.5969 1.3333-1.3333s-.597-1.3333-1.3333-1.3333h-7.3555c.50885-6.0357 5.3198-10.84665 11.3555-11.3555v7.3555c0 .7363.5969 1.3333 1.3333 1.3333s1.3333-.597 1.3333-1.3333v-7.29753c5.7782.74342 10.3171 5.44463 10.8107 11.29753h-6.8107c-.7363 0-1.3333.5969-1.3333 1.3333s.597 1.3333 1.3333 1.3333h6.7526c-.7203 5.5976-5.155 10.0323-10.7526 10.7526z" fill="#3476ce" fill-rule="evenodd" stroke="#fcfeff" stroke-width="1.25"/><circle cx="35.25" cy="36" fill="#fff" r="9.5" stroke="#fff"/><path clip-rule="evenodd" d="m34.038 31.2691c0-.446.3615-.8076.8076-.8076.446 0 .8075.3616.8075.8076s-.3615.8076-.8075.8076c-.4461 0-.8076-.3616-.8076-.8076zm.8076-1.2691c-.7009 0-1.2691.5682-1.2691 1.2691 0 .6201.4448 1.1364 1.0328 1.2471v3.0595h.0163c-.596.1042-1.0491.6242-1.0491 1.2501 0 .7009.5682 1.2691 1.2691 1.2691.7008 0 1.269-.5682 1.269-1.2691 0-.6259-.4531-1.1459-1.0491-1.2501h.0053v-3.0575c.1954-.035.3753-.1147.5288-.2282l.9879.9879c-.1622.2131-.2584.4791-.2584.7676 0 .7009.5682 1.269 1.2691 1.269.7008 0 1.269-.5681 1.269-1.269s-.5682-1.2691-1.269-1.2691c-.2456 0-.4748.0697-.6691.1905l-1.0142-1.0142c.1264-.1973.1997-.4319.1997-.6836 0-.7009-.5682-1.2691-1.269-1.2691zm-2.3841 6.1713-2.3148.9047c-.0885.0346-.1467.1199-.1467.215l.0001 2.051c0 .2651.1514.5068.3898.6226l4.1423 2.0122c.0609.0296.1318.0309.1938.0036l4.5518-2.0044c.2512-.1106.4133-.3591.4133-.6336l-.0001-2.0389c0-.095-.0583-.1803-.1468-.2149l-2.3147-.9046-.168.4298 1.7755.6939-4.1996 1.7063-3.8101-1.7085 1.8022-.7043zm2.4022 3.2488 4.3658-1.7738.0001 1.6962c0 .0914-.054.1743-.1377.2111l-4.2282 1.8619zm-.4615-.0059.0001 1.9864-3.8108-1.8511c-.0795-.0386-.1299-.1191-.1299-.2075l-.0001-1.6947zm.4434-3.396c-.4461 0-.8076.3616-.8076.8076s.3615.8076.8076.8076c.446 0 .8075-.3616.8075-.8076s-.3615-.8076-.8075-.8076zm1.945-1.9727c0-.446.3615-.8076.8076-.8076.446 0 .8075.3616.8075.8076s-.3615.8076-.8075.8076c-.4461 0-.8076-.3616-.8076-.8076z" fill="#4f5162" fill-rule="evenodd" stroke="#4f5162" stroke-width=".3"/></svg>