<svg fill="none" height="24" viewBox="0 0 24 24" width="24" xmlns="http://www.w3.org/2000/svg"><path d="m20.45 20.45h-3.55v-5.57c0-1.33-.03-3.04-1.85-3.04-1.85 0-2.14 1.44-2.14 2.94v5.67h-3.56v-11.45h3.41v1.56h.05c.48-.9 1.64-1.85 3.37-1.85 3.6 0 4.27 2.37 4.27 5.45zm-15.11-13.02c-1.14 0-2.06-.93-2.06-2.07s.92-2.06 2.06-2.06 2.06.92 2.06 2.06c0 1.15-.92 2.07-2.06 2.07zm1.78 13.02h-3.56v-11.45h3.56zm15.11-20.45h-20.46c-.98 0-1.77.77-1.77 1.73v20.54c0 .96.79 1.73 1.77 1.73h20.45c.98 0 1.78-.77 1.78-1.73v-20.54c0-.96-.8-1.73-1.77-1.73z" fill="#0072b1"/></svg>