<svg xmlns="http://www.w3.org/2000/svg" fill="none" viewBox="0 0 24 24">
    <path fill="#fff"
        d="m9.258 7.92-.265-4.5 2.648-.397 2.603-.309.486 4.06-.133.264 4.369 6.09.75 1.235v2.339l.662.573.618 1.633.617.883.088.573-.308.574-1.81.926-.97.839-1.324.926-1.147.265-.971-.53-.441-.794-1.854-.44-3.133.264-.75.883-.926.308-1.103-.22-1.986-.706-1.5-.133-1.015-.397-.353-.53.353-1.235-.177-1.544.397-.662 1.104-.485 1.191-1.148.838-1.014.971-4.237 2.471-3.353z" />
    <path fill="#fff"
        d="m9.435 21.114.573.75 4.634-.132.661-2.206.265-2.25.353-.75.662-.442 1.368.618.485.176 1.28-.176.662.573.617 1.633.618.883.088.573-.308.574-1.81.926-.97.839-1.324.927-1.147.264-.971-.53-.441-.793-1.854-.442-3.133.265-.75.883-.926.308-1.103-.22-1.986-.706-1.5-.133-1.015-.397-.353-.53.353-1.235-.177-1.544.397-.662 1.104-.485 1.191-1.148.838-1.014 2.03 3.485z" />
    <path fill="#fb0"
        d="m9.435 21.114.573.75 4.634-.132.661-2.206.265-2.25.353-.75.662-.442 1.368.618.485.176 1.28-.176.662.573.617 1.633.618.883.088.573-.308.574-1.81.926-.97.839-1.324.927-1.147.264-.971-.53-.441-.793-1.854-.442-3.133.265-.75.883-.926.308-1.103-.22-1.986-.706-1.5-.133-1.015-.397-.353-.53.353-1.235-.177-1.544.397-.662 1.104-.485 1.191-1.148.838-1.014 2.03 3.485z" />
    <path fill="#ff9c00"
        d="M8.905 7.038v-.573l.706-.353 1.236-.883.44-.132 1.06.309 1.412.573.574.398-.089.75-.706.573-.75.397-.838.442-1.103.044-.618-.486-.662-.485z" />
    <path fill="#000"
        d="M15.666 2.204c.115.326.188.65.247.982.161.905.147 1.818.13 2.73a4.86 4.86 0 0 0 .072.98 3.7 3.7 0 0 0 .445 1.162c.363.635.832 1.192 1.291 1.757.696.857 1.325 1.756 1.77 2.773a8.502 8.502 0 0 1 .44 1.267 5.27 5.27 0 0 1 .15 1.687c-.025.387-.096.77-.23 1.14.053.075.139.102.21.144.322.196.473.501.573.844.1.34.151.694.287 1.025.094.23.288.381.428.575.174.242.342.485.407.78.09.407-.084.711-.395.954-.285.221-.612.37-.934.528-.486.239-.973.477-1.391.83-.241.203-.418.466-.648.68-.449.415-.95.736-1.55.889-.997.253-1.972-.203-2.351-1.164-.048-.122-.109-.17-.248-.164-.425.022-.843-.045-1.262-.11-.583-.09-1.165-.116-1.753-.019-.384.063-.767.137-1.152.198-.128.02-.259.03-.388.049a.187.187 0 0 0-.152.1 1.7 1.7 0 0 1-1.092.816c-.476.124-.95.097-1.427.005-.51-.097-.971-.314-1.435-.533a3.727 3.727 0 0 0-.858-.264c-.347-.071-.7-.103-1.05-.152-.213-.03-.43-.049-.641-.088-.372-.07-.734-.169-.973-.498a1.014 1.014 0 0 1-.18-.715c.03-.303.109-.595.215-.881.049-.13.05-.27.039-.41-.027-.318-.089-.632-.126-.95a1.275 1.275 0 0 1 .677-1.295c.178-.093.362-.174.553-.225.389-.105.649-.355.864-.674.114-.168.232-.335.381-.475.08-.075.09-.155.079-.252a4.912 4.912 0 0 1-.004-.96c.02-.275.073-.545.137-.81.082-.338.192-.668.322-.99.238-.592.525-1.16.853-1.707a18.757 18.757 0 0 1 1.582-2.225c.38-.466.67-.983.875-1.549.31-.852.355-1.729.287-2.62a13.064 13.064 0 0 1-.034-1.85 5.81 5.81 0 0 1 .135-.959c.242-1.026.78-1.827 1.8-2.238.36-.144.734-.22 1.119-.276a4.905 4.905 0 0 1 1.085-.03c1.06.085 1.932.515 2.49 1.462.134.228.245.466.331.726M8.07 12.087c-.035.078-.068.156-.104.233-.205.441-.409.882-.552 1.348a9.227 9.227 0 0 0-.193.725 6.548 6.548 0 0 0-.145.895c-.014.17-.038.34-.056.508-.038.004-.052-.012-.064-.028a2.412 2.412 0 0 1-.464-1.236 3.371 3.371 0 0 1 .077-1.11c.073-.295.155-.585.268-.866.154-.385.362-.744.547-1.114.033-.065.073-.129.094-.197.02-.064.073-.118.062-.204-.359.563-.681 1.131-.931 1.736-.236.572-.42 1.156-.415 1.785.002.28.01.558.1.826.191.584.568 1.023 1.083 1.35.53.338 1.05.689 1.492 1.14.32.328.605.68.737 1.13.138.474-.14.868-.63.895-.039.002-.084-.009-.11.043.012.022.023.048.04.07.194.246.383.495.555.757.021.031.05.05.082.07a3.904 3.904 0 0 0 1.853.654c.58.049 1.155.001 1.715-.17.45-.138.88-.321 1.284-.56.23-.137.47-.247.536-.563.078-.383.205-.757.234-1.15.027-.367.044-.735.083-1.102.036-.341.1-.673.21-.994.132-.382.351-.712.727-.895.154-.075.195-.183.23-.33.056-.248.187-.442.442-.54.297-.114.588-.058.874.023.354.1.684.26.998.449.14.083.273.178.384.3a.649.649 0 0 1 .181.535c-.004.04-.005.085.052.095.053.009.084-.018.106-.063a.272.272 0 0 0 .022-.106.83.83 0 0 0-.253-.649c-.305-.317-.69-.516-1.084-.694-.118-.054-.156-.118-.128-.232.135-.552.057-1.094-.075-1.633a4.516 4.516 0 0 0-.308-.841 5.836 5.836 0 0 0-1.187-1.686c-.033-.032-.063-.07-.12-.073-.004.09.051.14.103.191.164.16.313.33.447.516.282.39.501.814.668 1.264.108.293.182.598.205.907.021.297.034.6-.042.895-.034.134-.06.269-.112.397-.016.04-.034.078-.087.065a2.157 2.157 0 0 0-.41-.056c-.058-.003-.081-.034-.093-.091a9.825 9.825 0 0 0-.31-1.154 8.56 8.56 0 0 0-.506-1.246c-.487-.944-.948-1.9-1.32-2.895-.205-.548-.414-1.095-.566-1.662-.035-.13-.085-.257-.13-.395-.025.02-.042.031-.055.046a2.012 2.012 0 0 1-.82.536 2.86 2.86 0 0 0-.62.31c-.36.237-.735.433-1.18.45a1.973 1.973 0 0 1-.522-.04c-.319-.073-.565-.264-.798-.478a2.794 2.794 0 0 0-.61-.44c-.042.044-.047.093-.05.14-.02.353-.104.695-.192 1.035-.128.498-.3.981-.49 1.46-.228.575-.484 1.139-.759 1.714m-5.531 9.895a.567.567 0 0 0 .205.127c.284.101.58.15.875.204.332.06.667.098 1 .148a5.1 5.1 0 0 1 1.318.375c.5.223 1.005.431 1.557.509.385.054.759.032 1.12-.092.756-.258 1.103-1.045.813-1.785-.159-.406-.416-.751-.681-1.092-.278-.356-.57-.7-.822-1.076-.295-.44-.509-.924-.76-1.388-.245-.453-.518-.886-.918-1.222-.44-.368-.932-.405-1.367.027-.092.091-.168.198-.252.298-.205.246-.381.52-.659.698-.228.147-.485.23-.732.333-.284.118-.553.259-.677.56-.1.24-.07.494-.047.744.024.266.062.531.077.798.008.147-.001.298-.045.444-.093.315-.196.627-.172.965a.676.676 0 0 0 .167.425m17.926-4.128c-.035-.091-.067-.183-.105-.273-.085-.2-.19-.385-.386-.503a1.007 1.007 0 0 0-.405-.129c-.244-.03-.476.003-.68.16-.46.355-.947.636-1.564.575a.533.533 0 0 1-.252-.08c-.39-.257-.582-.635-.66-1.078-.028-.15-.054-.167-.187-.09a.877.877 0 0 0-.316.332c-.209.356-.255.758-.314 1.153-.06.404-.083.814-.134 1.22-.078.615-.235 1.214-.399 1.812-.12.442-.22.886-.189 1.353.026.386.207.687.469.948.426.422.957.451 1.506.352.435-.079.803-.304 1.139-.585.324-.272.63-.565.94-.853.452-.419.996-.687 1.544-.952.327-.158.645-.332.915-.58.168-.154.21-.34.155-.555a1.54 1.54 0 0 0-.195-.417c-.14-.23-.33-.425-.47-.652-.218-.35-.286-.755-.412-1.158M9.143 6.789c0 .3.263.683.546.792.023.008.051.019.07.012.13-.045.257-.094.39-.144-.029-.056-.066-.08-.1-.11a35.738 35.738 0 0 1-.49-.421c-.04-.035-.096-.07-.068-.14.048-.015.074.013.1.036.144.12.287.242.43.363.482.403 1.03.558 1.65.42.366-.082.693-.258 1.015-.44.255-.145.505-.3.771-.423.057-.026.15-.113.19-.024s-.084.096-.143.123a1.259 1.259 0 0 0-.347.221l.073.01c.259.026.528-.052.778.077.045.023.082-.01.102-.046.107-.194.157-.404.053-.605a.78.78 0 0 0-.55-.41c-.078-.015-.153-.029-.216-.07a1.466 1.466 0 0 0-.26-.132c-.185-.076-.373-.145-.544-.249a2.674 2.674 0 0 0-.665-.301c-.336-.095-.67-.178-1 .018a.107.107 0 0 1-.06.012c-.127-.01-.231.05-.325.122-.414.321-.827.645-1.238.972a.454.454 0 0 0-.162.337m4.667-.852c.016-.019.034-.036.047-.056.227-.36.328-.743.285-1.175a1.757 1.757 0 0 0-.35-.928 1.015 1.015 0 0 0-.66-.408c-.451-.065-.79.139-1.035.505-.23.346-.307.735-.282 1.146.002.038.005.08.044.094.143.054.287.104.43.155.042-.063.023-.121.025-.176.007-.227.058-.441.192-.63.227-.319.583-.31.782.028.212.358.202.73.032 1.103-.021.046-.063.087-.043.154.17.064.345.13.533.188m-2.905-1.205-.036-.153c-.06-.3-.166-.578-.396-.791-.317-.294-.742-.24-.992.115a1.554 1.554 0 0 0-.257.738c-.045.395.044.774.244 1.12.14.242.18.245.387.059.008-.008.013-.02.023-.035l-.045-.069c-.244-.33-.251-.69-.118-1.06.045-.125.135-.221.276-.228.146-.008.236.09.31.204.13.2.17.424.163.661.074-.004.123-.043.176-.07.293-.147.293-.147.265-.491m1.357 2.773c-.211.119-.446.175-.69.255.467.106.88-.037 1.027-.417z" />
    <path fill="#ff9c00"
        d="M9.832 7.656c-.183-.105-.309-.176-.22-.132-.187-.186.255-.363.44-.177.186.187.776.445 1.148.442.618-.006 1.572-.53 1.941-.75.546-.327.529-.028.839-.153.123 0 .297.075 0 .373-.372.373-.576.51-.971.662-.574.22-.794.618-1.677.618-.882 0-1.015-.603-1.5-.883m.485-1.985.441.176c.442 0 1.148-.485 1.104-.485-.045 0-.265-.22-.839-.133-.21.033-.544.295-.706.442" />
</svg>