<svg height="273" viewBox="0 0 461 273" width="461" xmlns="http://www.w3.org/2000/svg"><g fill="none" fill-rule="evenodd"><path d="m339 29.714286v8.571428" stroke="#fff" stroke-linecap="square"/><g transform="translate(14 14)"><path d="m266 241h183v-241h-183z" stroke="#fff"/><path d="m299 73h38v-38h-38z" fill="#50acdf"/><path d="m299 73h38v-38h-38z" stroke="#50acdf"/><g transform="translate(0 12)"><path d="m64.8888225.99601111c6.7926621 0 12.2982935 5.49124074 12.2982935 12.26438889 0 6.7717222-5.5056314 12.261537-12.2982935 12.261537s-12.2982935-5.4898148-12.2982935-12.261537c0-6.77314815 5.5056314-12.26438889 12.2982935-12.26438889z" stroke="#22272d"/><path d="m166.800348.99601111c6.792662 0 12.298293 5.49124074 12.298293 12.26438889 0 6.7717222-5.505631 12.261537-12.298293 12.261537s-12.298294-5.4898148-12.298294-12.261537c0-6.77314815 5.505632-12.26438889 12.298294-12.26438889z" stroke="#22272d"/><path d="m12.5856102 54.9556148c6.7926622 0 12.2982936 5.4898148 12.2982936 12.262963 0 6.7731481-5.5056314 12.261537-12.2982936 12.261537-6.79266208 0-12.29829348-5.4883889-12.29829348-12.261537 0-6.7731482 5.5056314-12.262963 12.29829348-12.262963z" stroke="#fff"/><path d="m12.5856102 164.733802c6.7926622 0 12.2982936 5.489815 12.2982936 12.262963s-5.5056314 12.261537-12.2982936 12.261537c-6.79266208 0-12.29829348-5.488389-12.29829348-12.261537s5.5056314-12.262963 12.29829348-12.262963z" stroke="#fff"/><path d="m116.261798 164.733802c6.792662 0 12.298293 5.489815 12.298293 12.262963s-5.505631 12.261537-12.298293 12.261537c-6.792663 0-12.298294-5.488389-12.298294-12.261537s5.505631-12.262963 12.298294-12.262963z" stroke="#fff"/><path d="m166.800348 164.733802c6.792662 0 12.298293 5.489815 12.298293 12.262963s-5.505631 12.261537-12.298293 12.261537-12.298294-5.488389-12.298294-12.261537 5.505632-12.262963 12.298294-12.262963z" stroke="#fff"/><path d="m12.5856102 54.9556148c6.7926622 0 12.2982936 5.4898148 12.2982936 12.262963 0 6.7731481-5.5056314 12.261537-12.2982936 12.261537-6.79266208 0-12.29829348-5.4883889-12.29829348-12.261537 0-6.7731482 5.5056314-12.262963 12.29829348-12.262963z" stroke="#22272d"/><path d="m12.5856102 164.733802c6.7926622 0 12.2982936 5.489815 12.2982936 12.262963s-5.5056314 12.261537-12.2982936 12.261537c-6.79266208 0-12.29829348-5.488389-12.29829348-12.261537s5.5056314-12.262963 12.29829348-12.262963z" stroke="#22272d"/><path d="m116.261798 164.733802c6.792662 0 12.298293 5.489815 12.298293 12.262963s-5.505631 12.261537-12.298293 12.261537c-6.792663 0-12.298294-5.488389-12.298294-12.261537s5.505631-12.262963 12.298294-12.262963z" stroke="#22272d"/><path d="m166.800348 164.733802c6.792662 0 12.298293 5.489815 12.298293 12.262963s-5.505631 12.261537-12.298293 12.261537-12.298294-5.488389-12.298294-12.261537 5.505632-12.262963 12.298294-12.262963z" stroke="#22272d"/><path d="m307.387003 43.6527278 6.949966 8.5983333 17.374915-17.325" stroke="#fff"/><path d="m299.40727 195.213111h38.224812v-38.113574h-38.224812z" stroke="#22272d"/><path d="m299.40727 127.902278h38.224812v-38.1135743h-38.224812z" stroke="#22272d"/><path d="m417.041591 92.803967h-54.441399" stroke="#77787b"/><path d="m417.041591 125.786917h-54.441399" stroke="#77787b"/><path d="m417.041591 110.129537h-54.441399" stroke="#77787b"/><path d="m417.041591 159.666489h-54.441399" stroke="#77787b"/><path d="m417.041591 192.648013h-54.441399" stroke="#77787b"/><path d="m417.041591 176.990633h-54.441399" stroke="#77787b"/><path d="m417.041591 23.376489h-54.441399" stroke="#77787b"/><path d="m417.041591 56.486061h-54.441399" stroke="#77787b"/><path d="m417.041591 40.700633h-54.441399" stroke="#77787b"/><path d="m285.722129 42.4913111h-70.214676v186.5111109h-158.7337882 158.7337882" stroke="#4facdd"/><path d="m280.144567 37.2151 5.577133 4.7055556-4.719113 5.5611111" stroke="#50acdf"/><g stroke-linejoin="bevel"><path d="m3.71911263 7.12720741 8.86621157-6.98561111v26.2356111" stroke="#22272d"/><path d="m21.451536 26.377207h-17.732423" stroke="#22272d"/><path d="m107.467231 7.12720741 8.723208-6.98561111v26.2356111" stroke="#22272d"/><path d="m125.056365 26.377207h-17.58942" stroke="#fff"/><path d="m158.005781 60.9435056 8.723208-6.8444445v26.238463" stroke="#22272d"/><path d="m175.594915 80.336811h-17.58942" stroke="#fff"/><path d="m3.71911263 114.822259 8.86621157-6.987037v26.237037" stroke="#22272d"/><path d="m21.451536 134.072259h-17.732423" stroke="#fff"/><path d="m158.005781 114.822259 8.723208-6.987037v26.237037" stroke="#22272d"/><path d="m175.594915 134.072259h-17.58942" stroke="#fff"/><path d="m56.0228969 170.864998 8.8662116-6.987037v26.237037" stroke="#22272d"/><path d="m73.755177 190.114998h-17.732423" stroke="#fff"/></g><path d="m64.6687403 61.3096833-3.4435222 8.7822778h6.9270853zm-2.4024574-8.2261666h5.1652833l12.3326143 28.2689814h-7.0472081l-2.4424983-5.9903148h-11.0112628l-2.3624164 5.9903148h-6.8870444z" fill="#50acdf"/><path d="m64.6687403 61.3096833-3.4435222 8.7822778h6.9270853zm-2.4024574-8.2261666h5.1652833l12.3326143 28.2689814h-7.0472081l-2.4424983-5.9903148h-11.0112628l-2.3624164 5.9903148h-6.8870444z" stroke="#50acdf"/><path d="m48.8727263 106.819535h9.4496655l6.5266758 18.447204h.0800819l6.5667167-18.447204h9.4096246v28.267556h-6.2463891v-21.679778h-.0800819l-7.4476178 21.679778h-4.7648737l-7.167331-21.679778h-.0800819v21.679778h-6.2463891z" fill="#50acdf"/><path d="m48.8727263 106.819535h9.4496655l6.5266758 18.447204h.0800819l6.5667167-18.447204h9.4096246v28.267556h-6.2463891v-21.679778h-.0800819l-7.4476178 21.679778h-4.7648737l-7.167331-21.679778h-.0800819v21.679778h-6.2463891z" stroke="#50acdf"/><path d="m107.352685 106.819535h6.246389v22.518222h11.571836v5.749334h-17.818225z" fill="#50acdf"/><path d="m107.352685 106.819535h6.246389v22.518222h11.571836v5.749334h-17.818225z" stroke="#50acdf"/><path d="m124.483779 59.8364167v-7.6615h-16.445393v7.6615h4.026976v14.764037h-4.026976v7.6615h16.445393v-7.6615h-4.741993v-14.764037z" fill="#50acdf"/></g></g></g></svg>