<svg xmlns="http://www.w3.org/2000/svg" viewBox="0 0 32 32" fill="none" xmlns:v="https://vecta.io/nano"><path d="M4.493 8.007l.284.152c.648.317 1.562.593 2.661.82 2.203.456 5.23.735 8.562.735s6.358-.279 8.562-.735c1.099-.227 2.012-.503 2.661-.82l.174-.09-1.906 17.546a.45.45 0 0 1-.077.098c-.092.093-.248.201-.481.316-.465.227-1.162.443-2.054.627-1.778.368-4.251.599-6.994.599s-5.217-.23-6.995-.599c-.892-.185-1.589-.4-2.054-.627-.233-.114-.389-.222-.481-.316a.41.41 0 0 1-.084-.111L4.493 8.007zm22.996-.91l.015-.016.003-.032.023.003c.08-.094.094-.158.094-.194 0-.042-.019-.12-.136-.24s-.314-.254-.597-.393c-.566-.277-1.41-.537-2.483-.759-2.14-.443-5.113-.72-8.409-.72s-6.269.277-8.409.72c-1.073.222-1.916.482-2.482.759-.284.139-.478.273-.597.393-.106.108-.132.183-.136.227l.006.058c.012.045.046.11.13.195.119.12.314.254.597.393.566.277 1.41.537 2.482.759 2.14.443 5.113.72 8.409.72s6.269-.277 8.409-.72c1.073-.222 1.916-.482 2.483-.759.284-.139.479-.273.597-.393zm.886-.24c0 .185-.056.354-.147.503l-1.976 18.197h.008c0 .273-.135.501-.311.678s-.412.328-.684.462c-.547.268-1.315.499-2.232.689-1.842.381-4.368.614-7.147.614s-5.306-.233-7.148-.614c-.918-.19-1.685-.421-2.232-.689-.273-.134-.51-.286-.685-.462-.109-.11-.202-.24-.257-.387l-.02.002-.01-.099c-.015-.062-.023-.127-.023-.194h.004L3.639 7.018c-.009-.052-.014-.106-.014-.161 0-.301.149-.557.351-.762s.478-.381.801-.54c.648-.317 1.562-.593 2.661-.82C9.642 4.279 12.669 4 16 4s6.358.279 8.562.735c1.099.227 2.012.503 2.661.82.323.158.6.336.801.54s.351.46.351.762zm-11.431 7.264c.04-.202-.093-.398-.296-.437s-.4.092-.44.294l-1.382 7.016c-.04.202.093.398.296.437s.4-.092.44-.294l1.382-7.016zm2.674.375c.142-.15.379-.158.53-.017l2.764 2.572a.37.37 0 0 1 .022.522l-2.764 3.04c-.139.153-.376.165-.53.027a.37.37 0 0 1-.027-.526l2.517-2.768-2.495-2.322a.37.37 0 0 1-.017-.527zm-8.002-.012c.148-.144.386-.141.53.006a.37.37 0 0 1-.006.527l-2.501 2.429 2.513 2.662a.37.37 0 0 1-.017.527c-.151.141-.388.133-.53-.017L8.84 17.69a.37.37 0 0 1 .011-.521l2.764-2.684z" stroke="currentColor" stroke-linejoin="round"/></svg>