<svg xmlns="http://www.w3.org/2000/svg" viewBox="0 0 32 32" fill="none"  xmlns:v="https://vecta.io/nano"><path fill-rule="evenodd" fill="currentColor" d="M4 5.241A1.24 1.24 0 0 1 5.241 4h3.517c.229 0 .414.185.414.414s-.185.414-.414.414H5.241c-.229 0-.414.185-.414.414v3.517c0 .229-.185.414-.414.414S4 8.987 4 8.759V5.241zm18.828-.828c0-.229.185-.414.414-.414h3.517A1.24 1.24 0 0 1 28 5.241v3.517c0 .229-.185.414-.414.414s-.414-.185-.414-.414V5.241c0-.229-.185-.414-.414-.414h-3.517c-.229 0-.414-.185-.414-.414zm-8.396 2.998a.36.36 0 0 0-.359 0L7.71 11.068a.36.36 0 0 0-.181.313v7.044a.36.36 0 0 0 .181.312l10.16 5.852a.36.36 0 0 0 .36 0l6.391-3.683a.36.36 0 0 0 .18-.312v-7.012a.36.36 0 0 0-.181-.312L14.432 7.412zM8.25 18.216v-6.213l9.487 5.441-.043 6.211-9.444-5.439zm10.165 5.434l.043-6.205 5.623-3.24v6.18l-5.666 3.265zM14.252 8.14l9.466 5.441-5.62 3.239-9.485-5.44 5.639-3.24zm5.832 9.929a.36.36 0 1 0-.721 0v3.31a.36.36 0 1 0 .721 0v-3.31zm1.295-1.188a.36.36 0 0 1 .36.36v3.31a.36.36 0 1 1-.721 0v-3.31a.36.36 0 0 1 .36-.36zm2.016-.467a.36.36 0 1 0-.721 0v3.31a.36.36 0 1 0 .721 0v-3.31zM5.241 28A1.24 1.24 0 0 1 4 26.759v-3.517c0-.229.185-.414.414-.414s.414.185.414.414v3.517c0 .229.185.414.414.414h3.517c.229 0 .414.185.414.414S8.987 28 8.759 28H5.241zm18 0c-.229 0-.414-.185-.414-.414s.185-.414.414-.414h3.517c.229 0 .414-.185.414-.414v-3.517c0-.229.185-.414.414-.414s.414.185.414.414v3.517A1.24 1.24 0 0 1 26.759 28h-3.517z"/></svg>