<svg xmlns="http://www.w3.org/2000/svg" fill="none" viewBox="0 0 50 50"><rect width="50" height="50" fill="#0B2503" rx="6"/><path fill="#B8EE4B" fill-rule="evenodd" d="m33.2503 26.1104 9.5599-9.8261L41.5599 15 32 24.8261l1.2503 1.2843ZM36.5751 27 46 17.3911l-1.2597-1.2843-9.4249 9.6089L36.5751 27Z" clip-rule="evenodd"/><path fill="#B8EE4B" fill-rule="evenodd" d="M33 24h2v6h-2v-6Z" clip-rule="evenodd"/><path fill="#B8EE4B" d="m16.0185 14-2.6395 1.2851-.2732.1331L8 35h5.0657l3.544-13.5772L30.1757 35H37L16.0185 14Z"/><path fill="#B8EE4B" fill-rule="evenodd" d="M7.7544 30.8411 6.9284 34H4v-1.4378l3.7544-1.7211Zm18.0193-8.2619L35.7601 18h2.9895l2.9888 2.9827v5.0625l-2.8981 2.8923-3.6718-3.7135-.935.9204L42 34h-4.7825L25.7737 22.5792Zm-10.4579 4.7943 4.3031-1.9726 6.3329 6.3202L20.6668 34h-7.0859l1.7349-6.6265Z" clip-rule="evenodd"/></svg>