<svg viewBox="0 0 13 12" fill="currentColor" xmlns="http://www.w3.org/2000/svg">
<path d="M1.66667 5.9999C1.66667 7.47057 2.80733 8.66657 4.20867 8.66657V9.33323C2.43933 9.33323 1 7.8379 1 5.9999C1 4.1619 2.43933 2.66657 4.20867 2.66657H7.028L5.93067 1.56923L6.402 1.0979L8.30467 2.9999L6.40267 4.90257L5.93067 4.43057L7.02867 3.33323H4.20867C2.80733 3.33323 1.66667 4.52923 1.66667 5.9999ZM9.12467 2.66657V3.33323C10.526 3.33323 11.6667 4.52923 11.6667 5.9999C11.6667 7.47057 10.526 8.66657 9.12467 8.66657H6.30467L7.402 7.56923L6.93067 7.0979L5.02867 8.9999L6.93133 10.9026L7.40267 10.4312L6.30467 9.33323H9.124C10.894 9.33323 12.3333 7.8379 12.3333 5.9999C12.3333 4.1619 10.894 2.66657 9.12467 2.66657Z"/>
</svg>
