<svg viewBox="0 0 18 16" xmlns="http://www.w3.org/2000/svg"><path fill-rule="evenodd" clip-rule="evenodd" d="M17.125 11.415l-3.713 3.427a.618.618 0 01-.825 0l-3.712-3.427a.51.51 0 010-.761.618.618 0 01.825 0l2.717 2.508V1.538c0-.297.26-.538.583-.538.322 0 .583.241.583.538v11.624l2.717-2.508a.618.618 0 01.825 0 .51.51 0 010 .761zM.875 4.584l3.713-3.426a.618.618 0 01.824 0l3.713 3.426a.51.51 0 010 .762.618.618 0 01-.825 0L5.583 2.838v11.623c0 .298-.26.539-.583.539-.322 0-.583-.241-.583-.539V2.838L1.7 5.346a.618.618 0 01-.825 0 .51.51 0 010-.762z" fill="currentColor"/></svg>