<svg enable-background="new 0 0 14 14" viewBox="0 0 14 14" xmlns="http://www.w3.org/2000/svg"><path d="m7 0c-.2 0-.3.2-.3.3v6.3l-2.2-2.2c-.1-.1-.2-.2-.3-.1-.1 0-.2.1-.2.2s0 .2.1.3l2.7 2.7c0 .1.1.1.2.1s.2 0 .2-.1l2.8-2.7c.1-.1.1-.3 0-.4s-.3-.1-.4 0l-2.3 2.2v-6.3c0-.1 0-.2-.1-.2-.1-.1-.1-.1-.2-.1zm-4.7 1.5c-.2 0-.5.2-.5.5l-1.8 7.6v.2 3c0 .3.3.6.6.6h12.8c.3 0 .6-.3.6-.6v-3c0-.1 0-.2 0-.2l-1.8-7.6c-.1-.3-.3-.5-.6-.5h-3.4v.6h3.4l1.6 7h-12.4l1.6-7h3.4v-.6zm-1.7 8.3h12.8v3h-12.8zm11 .9c-.3 0-.6.3-.6.6s.3.6.6.6.6-.3.6-.6-.3-.6-.6-.6z" fill="#4d5969"/></svg>