<svg enable-background="new 0 0 14 11" viewBox="0 0 14 11" xmlns="http://www.w3.org/2000/svg"><path d="m11.2 9.9c0-.2-.1-.4-.2-.6-.3-.7-.9-1.1-2.2-1.6-.1 0-.5-.2-.5-.2-.1-.2-.3-.2-.4-.3 0-.1 0-.2 0-.3v-.1c-.1 0-.1-.1-.2-.2.3-.1.4-.4.5-.7 0 0 0 0 0-.1.3-.2.5-.5.6-.8s.2-.6.1-1c0-.3-.1-.6-.3-.8 0-.4-.1-.9-.1-1.3 0 0 0-.1 0-.2.2 0 .4-.1.6-.1.4 0 .9.1 1.2.4.3.2.6.6.7 1 0 .1 0 .2.1.3.1.3.1.8.1 1.1.1 0 .2.2.2.4s-.1.4-.1.4c0 .2-.1.4-.3.4 0 .1 0 .2-.1.2-.1.4-.4.7-.6.9v.1c0 .3-.1.5.7.8.6.5 1.8.9 2 1.4s.1.9.1.9zm-.9-.3c.3.7.2 1.1.2 1.1h-10.5s-.1-.4.2-1.1 1.8-1.2 2.7-1.6c1-.4.9-.7.9-1.1v-.1c-.3-.3-.6-.7-.8-1.2 0-.2 0-.3-.1-.4-.2 0-.4-.3-.4-.5 0-.1-.2-.3-.1-.6 0-.3.2-.5.3-.6 0-.4 0-1 .1-1.4 0-.1 0-.2.1-.3.1-.6.4-1 .8-1.3s1-.5 1.6-.5 1.1.2 1.5.5.7.7.8 1.3c0 .1.1.2.1.3.1.4.1 1 .1 1.4v.1c.1.1.3.2.3.6 0 .2-.1.4-.1.5 0 .2-.2.5-.4.5 0 .1-.1.2-.1.3-.2.5-.5 1-.8 1.3v.1c0 .4-.1.6.9 1.1s2.4.9 2.7 1.6z" fill="#4d5969"/></svg>