<svg enable-background="new 0 0 14 14" viewBox="0 0 14 14" xmlns="http://www.w3.org/2000/svg"><path d="m2.5 0c-.6 0-1.1.5-1.1 1.1v5.7c0 .6.5 1.1 1.1 1.1h5.7c.6 0 1.1-.5 1.1-1.1v-5.7c0-.6-.5-1.1-1.1-1.1zm0 .6h1.1c0 .2.1.3.3.3s.3-.1.3-.3h1.3c0 .2.1.3.3.3s.3-.1.3-.3h1.3c0 .2.1.3.3.3s.3-.1.3-.3h.2c.2 0 .4.2.4.4v.2c-.2 0-.3.1-.3.3s.1.3.3.3v1.3c-.2 0-.3.1-.3.3s.1.3.3.3v1.3c-.1 0-.3.2-.3.4s.1.3.3.3v1.1.1c-.1.1-.3.2-.3.3h-.1-1.1c0-.2-.1-.3-.3-.3s-.4.2-.4.4h-1.2c0-.2-.1-.3-.3-.3s-.3.1-.3.3h-1.3c0-.2-.1-.3-.3-.3s-.4.1-.4.3h-.1c-.3 0-.5-.2-.5-.5v-.2c.2 0 .3-.1.3-.3s-.1-.3-.3-.3v-1.3c.2 0 .3-.1.3-.3s-.1-.3-.3-.3v-1.3c.2 0 .3-.1.3-.3s-.1-.3-.3-.3v-1.1c0-.1 0-.1 0-.2.2 0 .3-.1.3-.3zm.5.7c-.2 0-.3.1-.3.3s.1.3.3.3.3-.1.3-.3-.2-.3-.3-.3zm1.8 0c-.2 0-.3.1-.3.3s.1.3.3.3.3-.1.3-.3c.1-.2-.1-.3-.3-.3zm1.9 0c-.2 0-.3.1-.3.3s.1.3.3.3.3-.1.3-.3c.1-.2-.1-.3-.3-.3zm-2.8.9c-.2 0-.3.1-.3.3s.1.3.3.3.3-.1.3-.3c0-.1-.1-.3-.3-.3zm1.9 0c-.2 0-.3.1-.3.3s.1.3.3.3.3-.1.3-.3c0-.1-.1-.3-.3-.3zm1.9 0c-.2 0-.3.1-.3.3s.1.3.3.3.3-.1.3-.3c0-.1-.1-.3-.3-.3zm-4.7 1c-.2 0-.3.1-.3.3s.1.3.3.3.3-.1.3-.3-.2-.3-.3-.3zm1.8 0c-.2 0-.3.1-.3.3s.1.3.3.3.3-.1.3-.3c.1-.2-.1-.3-.3-.3zm1.9 0c-.2 0-.3.1-.3.3s.1.3.3.3.3-.1.3-.3c.1-.2-.1-.3-.3-.3zm-2.8.9c-.2 0-.3.1-.3.3s.1.3.3.3.3-.1.3-.3-.1-.3-.3-.3zm1.9 0c-.2 0-.3.1-.3.3s.1.3.3.3.3-.1.3-.3-.1-.3-.3-.3zm1.9 0c-.2 0-.3.1-.3.3s.1.3.3.3.3-.1.3-.3-.1-.3-.3-.3zm2.2.6v.6h3c.2 0 .4.2.4.4v5.7c0 .2-.2.4-.4.4h-5.7c-.2 0-.4-.2-.4-.4v-3h-.7v3c0 .6.5 1.1 1.1 1.1h5.7c.6 0 1.1-.5 1.1-1.1v-5.6c0-.6-.5-1.1-1.1-1.1zm-6.9.3c-.2 0-.4.2-.4.4s.2.3.4.3.3-.1.3-.3-.2-.4-.3-.4zm1.8 0c-.1 0-.3.2-.3.4s.1.3.3.3.3-.1.3-.3-.1-.4-.3-.4zm1.9 0c-.1 0-.3.2-.3.4s.1.3.3.3.3-.1.3-.3-.1-.4-.3-.4zm-2.8 1c-.2 0-.3.1-.3.3s.1.3.3.3.3-.1.3-.3-.1-.3-.3-.3zm1.9 0c-.2 0-.3.1-.3.3s.1.3.3.3.3-.1.3-.3-.1-.3-.3-.3zm1.9 0c-.2 0-.3.1-.3.3s.1.3.3.3.3-.1.3-.3-.1-.3-.3-.3zm-7.3 2.5c-.2 0-.3.1-.3.3v2.8c0 .5.4.9.9.9h3l-.7.7c-.1.1-.1.2-.1.3s.1.2.2.2.2 0 .3-.1l1.3-1c.1-.1.1-.2.1-.3s0-.2-.1-.3l-1.2-1.2c-.1-.1-.1-.1-.2-.1s-.2.1-.3.2c0 .1 0 .3.1.3l.7.8h-3c-.2 0-.3-.1-.3-.3v-2.9c0-.1 0-.2-.1-.2-.1-.1-.2-.1-.3-.1z" fill="#4d5969"/></svg>