<svg enable-background="new 0 0 14 9" viewBox="0 0 14 9" xmlns="http://www.w3.org/2000/svg"><path d="m8.1 0c-1.4 0-2.7.9-3.3 2.1-.3-.2-.7-.4-1.1-.4-1 0-1.9.8-1.9 1.8-1 .4-1.8 1.4-1.8 2.6 0 1.5 1.2 2.7 2.7 2.7h8.8c1.4 0 2.5-1.1 2.5-2.5 0-1.3-1-2.3-2.2-2.4 0-.1 0-.1 0-.2 0-2-1.7-3.7-3.7-3.7zm0 .6c1.7 0 3.1 1.4 3.1 3.1v.4l-.1.3h.3c1.1 0 1.9.9 1.9 1.9s-.9 1.9-1.9 1.9h-8.7c-1.2 0-2.2-1-2.2-2.2 0-1 .7-1.8 1.6-2.1l.3.1v-.2-.1c0-.8.6-1.4 1.4-1.4.4 0 .8.2 1 .4l.3.3.1-.4c.4-1.2 1.6-2 2.9-2z" fill="#4d5969"/></svg>