<svg enable-background="new 0 0 14 14" viewBox="0 0 14 14" xmlns="http://www.w3.org/2000/svg"><path d="m13.3 5.6h-1.6c-.1-.3-.2-.6-.4-.9l1.2-1.2c.3-.3.3-.7 0-1l-1-1c-.3-.3-.7-.3-1 0l-1.2 1.2c-.3-.1-.6-.3-.9-.4v-1.6c0-.4-.3-.7-.7-.7h-1.4c-.4 0-.7.3-.7.7v1.6c-.3.1-.7.2-1 .4l-1.1-1.1c-.3-.3-.7-.3-1 0l-1 1c-.3.3-.3.7 0 1l1.1 1.1c-.2.3-.3.6-.4 1h-1.5c-.4-.1-.7.2-.7.6v1.4c0 .4.3.7.7.7h1.6c.1.3.2.6.4.9l-1.2 1.2c-.3.3-.3.7 0 1l1 1c.3.3.7.3 1 0l1.2-1.2c.3.2.6.3.9.4v1.6c0 .4.3.7.7.7h1.4c.4 0 .7-.3.7-.7v-1.6c.3-.1.7-.2 1-.4l1.1 1.1c.3.3.7.3 1 0l1-1c.3-.3.3-.7 0-1l-1.1-1.1c.2-.3.3-.6.4-1h1.6c.4 0 .7-.3.7-.7v-1.3c-.1-.4-.4-.7-.8-.7zm-6.3 4.2c-1.5 0-2.8-1.3-2.8-2.8s1.3-2.8 2.8-2.8 2.8 1.3 2.8 2.8-1.3 2.8-2.8 2.8z" fill="#4d5969"/></svg>