<svg enable-background="new 0 0 14 14" viewBox="0 0 14 14" xmlns="http://www.w3.org/2000/svg"><path d="m7 0c-.1 0-.1 0-.2 0-.2 0-.4.1-.6.3l-6 6c-.3.3-.3.8 0 1.1l1.8 1.7 4.6 4.6c.3.3.8.3 1.1 0l6-6c.2-.1.3-.3.3-.5s0-.4 0-.5v-.1-.1c0-.1 0-.2 0-.3 0-.4 0-.9 0-1.3 0-1 0-1.9 0-2 0-.5-.4-1-1-1h-.9v-.9c0-.5-.4-1-1-1h-3.8c-.1 0-.2 0-.3 0zm0 .6h.3 3.9c.2 0 .4.2.4.4v.9h-1.1c-.3-.3-.5-.4-.8-.4s-.4.1-.6.3c-.1 0-.3 0-.5 0-.2.1-.4.1-.6.3l-6 6s-.1.1-.1.2l-1.2-1.4c-.1-.1-.1-.2 0-.3l6-6s.1-.1.2-.1c0 .1.1.1.1.1zm1.9 1.8h4.1c.2 0 .4.2.4.4v2 1.3.4.1s0 0 0 0v.5s0 .2-.1.2l-6 6c-.1.1-.2.1-.3 0l-4.5-4.5c-.1-.1-.1-.2 0-.3l6-6s.1-.1.2-.1zm2.7.9c-.2 0-.5.1-.6.3-.4.4-.4.9 0 1.3s.9.4 1.3 0 .4-.9 0-1.3c-.3-.2-.5-.3-.7-.3zm0 .7c.1 0 .2 0 .2.1.1.1.1.3 0 .4s-.3.1-.4 0-.1-.3 0-.4c0-.1.1-.1.2-.1z" fill="#4d5969"/></svg>