<svg enable-background="new 0 0 12 13" viewBox="0 0 12 13" xmlns="http://www.w3.org/2000/svg"><path d="m6 0c-.1 0-.2 0-.3.1l-1.6 1.5c-.2.2-.1.6.3.6h3.2c.4 0 .5-.4.3-.6l-1.6-1.5c-.1-.1-.2-.1-.3-.1zm-5.3 3.4c-.2 0-.5.1-.6.3s-.1.5 0 .6c.1.2.3.3.6.3h10.6c.2 0 .5-.1.6-.3s.1-.4 0-.6-.3-.3-.6-.3zm0 2.5c-.3 0-.5.1-.6.3s-.1.4 0 .6.3.3.6.3h10.6c.2 0 .5-.1.6-.3s.1-.4 0-.6-.3-.3-.6-.3zm0 2.4c-.2 0-.5.1-.6.3s-.1.5 0 .7.3.3.6.3h10.6c.2 0 .5-.1.6-.3s.1-.4 0-.6-.3-.3-.6-.3h-10.6zm3.7 2.5c-.4 0-.5.4-.3.6l1.5 1.4c.2.2.5.2.7 0l1.5-1.4c.2-.2.1-.6-.3-.6z" fill="#4d5969"/></svg>