<svg xmlns="http://www.w3.org/2000/svg" fill="none" viewBox="0 0 16 16">
  <path stroke="currentColor" stroke-linecap="round" stroke-linejoin="round" stroke-width=".833" d="m11.22 9.561 2.415 2.416a1.246 1.246 0 0 1-1.762 1.762L8.006 9.872M4.703 4.643l-1.322.44L2.06 2.881 2.941 2l2.202 1.321-.44 1.322Zm0 0 1.763 1.763m.304 1.167-4.405 4.404a1.246 1.246 0 1 0 1.762 1.762l4.405-4.404c1.341.525 3.1.422 4.184-.661 1.084-1.084 1.322-3.084.661-4.185l-1.894 1.894-1.938.176.176-1.938 1.894-1.894c-1.101-.66-3.1-.423-4.185.66-1.083 1.085-1.186 2.844-.66 4.186Z"/>
</svg>
