<svg viewBox="0 0 18 18" fill="none" xmlns="http://www.w3.org/2000/svg">
<rect x="0.75" y="0.75" width="16.5" height="16.5" rx="4.25" fill="#07A0AB"/>
<rect x="0.75" y="0.75" width="16.5" height="16.5" rx="4.25" stroke="white" stroke-width="0.5"/>
<path d="M8.73428 11.7962C7.18381 11.7231 5.95027 10.4456 5.95027 8.87567C5.95027 7.26182 7.26182 5.95027 8.87567 5.95027C10.4456 5.95027 11.7231 7.18381 11.7962 8.73428L10.7723 8.42711C10.5724 7.56412 9.79717 6.9254 8.87567 6.9254C7.79815 6.9254 6.9254 7.79815 6.9254 8.87567C6.9254 9.79717 7.56412 10.5724 8.42711 10.7723L8.73428 11.7962ZM13.7513 8.87567C13.7513 9.02194 13.7465 9.16821 13.7318 9.31448L12.7713 9.02682C12.7762 8.97806 12.7762 8.92443 12.7762 8.87567C12.7762 6.72062 11.0307 4.97513 8.87567 4.97513C6.72062 4.97513 4.97513 6.72062 4.97513 8.87567C4.97513 11.0307 6.72062 12.7762 8.87567 12.7762C8.92443 12.7762 8.97806 12.7762 9.02682 12.7713L9.31448 13.7318C9.16821 13.7465 9.02194 13.7513 8.87567 13.7513C6.1843 13.7513 4 11.567 4 8.87567C4 6.1843 6.1843 4 8.87567 4C11.567 4 13.7513 6.1843 13.7513 8.87567ZM11.9132 10.9527L13.7513 10.3384L8.87567 8.87567L10.3384 13.7513L10.9527 11.9132L13.0346 13.9951L14 13.0297L11.9132 10.9527Z" fill="white"/>
</svg>
