<svg xmlns="http://www.w3.org/2000/svg" viewBox="0 0 32 32" fill="none">
  <path fill="currentColor" fill-rule="evenodd" stroke="currentColor" stroke-linejoin="round" stroke-width=".5" d="M5.025 3.942a1 1 0 0 0-1 1v6a1 1 0 0 0 1 1h6a1 1 0 0 0 1-1v-2.5h3.48v15.026h-3.48v-2.5a1 1 0 0 0-1-1h-6a1 1 0 0 0-1 1v6a1 1 0 0 0 1 1h6a1 1 0 0 0 1-1v-2.5h3.98a.5.5 0 0 0 .5-.5v-7.412h3.349v2.413a1 1 0 0 0 1 1h6.125a1 1 0 0 0 1-1v-5.988a1 1 0 0 0-1-1h-6.125a1 1 0 0 0-1 1v2.575h-3.35V7.942a.5.5 0 0 0-.5-.5h-3.979v-2.5a1 1 0 0 0-1-1h-6Zm0 1h6v6h-6v-6Zm15.829 8.04h6.125v5.988h-6.125V12.98Zm-9.829 7.986h-6v6h6v-6Z" clip-rule="evenodd"/>
</svg>
