<svg xmlns="http://www.w3.org/2000/svg" viewBox="0 0 32 32">
<g id="surface1">
<path style=" stroke:none;fill-rule:nonzero;fill:currenColor;fill-opacity:1;" d="M 16.871094 5.152344 C 17.597656 5.261719 18.300781 5.425781 18.984375 5.660156 C 19.882812 5.96875 20.71875 6.390625 21.507812 6.914062 C 21.699219 7.042969 21.699219 7.042969 21.851562 6.886719 C 22.226562 6.492188 22.601562 6.101562 22.976562 5.710938 C 23.089844 5.589844 23.21875 5.507812 23.390625 5.566406 C 23.5625 5.625 23.660156 5.757812 23.695312 5.933594 C 23.914062 7.101562 24.132812 8.269531 24.347656 9.4375 C 24.410156 9.78125 24.152344 10.035156 23.808594 9.96875 C 22.648438 9.753906 21.492188 9.539062 20.335938 9.316406 C 20.011719 9.257812 19.894531 8.945312 20.105469 8.691406 C 20.261719 8.503906 20.4375 8.332031 20.605469 8.15625 C 20.726562 8.023438 20.726562 7.988281 20.570312 7.894531 C 19.597656 7.296875 18.558594 6.851562 17.441406 6.605469 C 16.773438 6.457031 16.097656 6.378906 15.414062 6.386719 C 12.867188 6.421875 10.632812 7.25 8.777344 9.019531 C 7.453125 10.285156 6.53125 11.800781 6.089844 13.585938 C 5.941406 14.183594 5.855469 14.796875 5.816406 15.414062 C 5.683594 17.578125 6.234375 19.558594 7.449219 21.332031 C 8.808594 23.320312 10.648438 24.6875 12.984375 25.34375 C 13.621094 25.519531 14.273438 25.613281 14.933594 25.652344 C 16.261719 25.730469 17.542969 25.523438 18.785156 25.054688 C 19.621094 24.738281 20.386719 24.304688 21.09375 23.765625 C 21.886719 23.164062 22.617188 22.5 23.191406 21.683594 C 24.101562 20.390625 24.710938 18.976562 24.96875 17.410156 C 25.085938 16.699219 25.113281 15.984375 25.074219 15.265625 C 25.019531 14.269531 24.8125 13.300781 24.441406 12.371094 C 24.378906 12.214844 24.335938 12.054688 24.378906 11.882812 C 24.441406 11.625 24.675781 11.429688 24.949219 11.398438 C 25.183594 11.375 25.429688 11.507812 25.546875 11.742188 C 25.691406 12.027344 25.785156 12.332031 25.878906 12.636719 C 26.097656 13.355469 26.261719 14.089844 26.328125 14.84375 C 26.390625 15.519531 26.410156 16.195312 26.347656 16.867188 C 26.167969 18.804688 25.542969 20.589844 24.433594 22.191406 C 23.226562 23.933594 21.652344 25.242188 19.722656 26.105469 C 18.738281 26.542969 17.703125 26.800781 16.628906 26.921875 C 16.015625 26.992188 15.402344 27 14.789062 26.96875 C 13.46875 26.902344 12.203125 26.578125 11 26.023438 C 9.785156 25.464844 8.6875 24.722656 7.746094 23.769531 C 6.308594 22.3125 5.34375 20.59375 4.828125 18.613281 C 4.535156 17.484375 4.457031 16.332031 4.53125 15.179688 C 4.644531 13.433594 5.148438 11.804688 6.066406 10.304688 C 6.875 8.980469 7.910156 7.867188 9.175781 6.96875 C 10.332031 6.148438 11.617188 5.613281 12.996094 5.300781 C 13.9375 5.089844 14.886719 5.019531 15.847656 5.054688 C 16.183594 5.070312 16.519531 5.117188 16.871094 5.152344 Z M 16.871094 5.152344 "/>
<path style=" stroke:none;fill-rule:nonzero;fill:currenColor;fill-opacity:1;" d="M 18.09375 23.914062 C 15.886719 23.914062 13.695312 23.914062 11.5 23.914062 C 10.539062 23.914062 9.832031 23.210938 9.832031 22.253906 C 9.832031 18.433594 9.832031 14.617188 9.832031 10.800781 C 9.832031 10.09375 10.335938 9.433594 11.019531 9.257812 C 11.160156 9.222656 11.308594 9.21875 11.453125 9.21875 C 13.453125 9.21875 15.453125 9.21875 17.453125 9.21875 C 17.59375 9.21875 17.734375 9.226562 17.871094 9.242188 C 18.066406 9.265625 18.226562 9.355469 18.363281 9.496094 C 19.324219 10.46875 20.285156 11.445312 21.246094 12.417969 C 21.386719 12.558594 21.449219 12.726562 21.449219 12.925781 C 21.449219 16.058594 21.449219 19.195312 21.449219 22.328125 C 21.445312 23.152344 20.683594 23.910156 19.859375 23.914062 C 19.277344 23.917969 18.691406 23.914062 18.09375 23.914062 M 10.917969 11.082031 C 10.917969 14.773438 10.917969 18.464844 10.917969 22.15625 C 10.917969 22.613281 11.136719 22.832031 11.597656 22.832031 C 14.304688 22.832031 17.011719 22.832031 19.71875 22.832031 C 20.148438 22.832031 20.363281 22.617188 20.363281 22.191406 C 20.363281 21.226562 20.363281 20.265625 20.363281 19.300781 C 20.363281 17.425781 20.363281 15.554688 20.363281 13.679688 C 20.363281 13.449219 20.363281 13.449219 20.128906 13.449219 C 19.703125 13.449219 19.273438 13.449219 18.847656 13.449219 C 17.992188 13.445312 17.367188 12.824219 17.363281 11.972656 C 17.363281 11.492188 17.359375 11.015625 17.367188 10.535156 C 17.367188 10.390625 17.320312 10.34375 17.179688 10.34375 C 15.273438 10.347656 13.367188 10.347656 11.460938 10.347656 C 11.125 10.347656 10.933594 10.539062 10.917969 10.878906 C 10.914062 10.933594 10.917969 10.992188 10.917969 11.082031 M 18.675781 12.347656 C 19.007812 12.441406 19.34375 12.378906 19.6875 12.363281 C 19.269531 11.917969 18.867188 11.476562 18.402344 11.050781 C 18.382812 11.378906 18.371094 11.664062 18.402344 11.949219 C 18.417969 12.117188 18.496094 12.253906 18.675781 12.347656 Z M 18.675781 12.347656 "/>
<path style=" stroke:none;fill-rule:nonzero;fill:currenColor;fill-opacity:1;" d="M 15.011719 16.324219 C 15.765625 15.570312 16.511719 14.820312 17.257812 14.074219 C 17.5 13.832031 17.75 13.828125 17.996094 14.066406 C 18.070312 14.136719 18.144531 14.210938 18.21875 14.285156 C 18.484375 14.554688 18.488281 14.804688 18.222656 15.070312 C 17.726562 15.570312 17.230469 16.066406 16.730469 16.5625 C 16.289062 17.003906 15.835938 17.433594 15.414062 17.890625 C 15.15625 18.171875 14.601562 18.164062 14.351562 17.890625 C 13.792969 17.285156 13.195312 16.707031 12.617188 16.117188 C 12.351562 15.851562 12.355469 15.597656 12.621094 15.335938 C 12.679688 15.277344 12.738281 15.21875 12.796875 15.15625 C 13.054688 14.898438 13.300781 14.894531 13.554688 15.152344 C 13.953125 15.550781 14.34375 15.953125 14.738281 16.355469 C 14.769531 16.386719 14.792969 16.429688 14.804688 16.453125 C 14.917969 16.4375 14.953125 16.371094 15.011719 16.324219 Z M 15.011719 16.324219 "/>
<path style=" stroke:none;fill-rule:nonzero;fill:currenColor;fill-opacity:1;" d="M 12.847656 19.242188 C 14.71875 19.242188 16.578125 19.242188 18.4375 19.242188 C 18.726562 19.242188 18.855469 19.320312 18.925781 19.535156 C 19.023438 19.832031 18.839844 20.113281 18.523438 20.132812 C 18.5 20.136719 18.472656 20.136719 18.445312 20.136719 C 16.558594 20.136719 14.667969 20.136719 12.777344 20.132812 C 12.492188 20.132812 12.359375 20.046875 12.300781 19.828125 C 12.210938 19.492188 12.375 19.261719 12.722656 19.242188 C 12.757812 19.242188 12.796875 19.242188 12.847656 19.242188 Z M 12.847656 19.242188 "/>
<path style=" stroke:none;fill-rule:nonzero;fill:currenColor;fill-opacity:1;" d="M 13.375 21.761719 C 13.140625 21.761719 12.921875 21.761719 12.703125 21.757812 C 12.4375 21.753906 12.28125 21.59375 12.277344 21.324219 C 12.269531 21.074219 12.429688 20.898438 12.691406 20.898438 C 14.015625 20.894531 15.339844 20.894531 16.660156 20.898438 C 16.9375 20.902344 17.082031 21.074219 17.074219 21.359375 C 17.066406 21.621094 16.917969 21.761719 16.640625 21.761719 C 15.558594 21.761719 14.472656 21.761719 13.375 21.761719 Z M 13.375 21.761719 "/>
</g>
</svg>
