<svg viewBox="0 0 25 25" xmlns="http://www.w3.org/2000/svg"><path fill-rule="evenodd" clip-rule="evenodd" d="M3.757 2.104a1 1 0 0 0-1 1v18a1 1 0 0 0 1 1h18a1 1 0 0 0 1-1v-18a1 1 0 0 0-1-1h-18ZM7.37 5.877l-.84.84c-.182.182-.182.478 0 .637l4.375 4.396a.5.5 0 0 1 0 .707L6.53 16.83a.466.466 0 0 0 0 .66l.84.84c.182.182.478.182.637 0l4.395-4.396a.5.5 0 0 1 .708.001l4.374 4.395a.466.466 0 0 0 .66 0l.84-.84a.466.466 0 0 0 0-.66l-4.395-4.374a.5.5 0 0 1 0-.708l4.395-4.395c.182-.16.182-.455 0-.636l-.84-.841a.466.466 0 0 0-.66 0L13.11 10.25a.5.5 0 0 1-.706.001L8.007 5.877c-.16-.182-.455-.182-.637 0Z" fill="#B0B1C2"/></svg>