<svg xmlns="http://www.w3.org/2000/svg" fill="none" shape-rendering="geometricPrecision" viewBox="0 0 22 22"><rect width="22" height="22" fill="#FFF" rx="3" ry="3"/><path fill="#0F1013" d="M10.278 4.086a2.737 2.737 0 0 1 3.838 0l.096.1a2.66 2.66 0 0 1 .672 2.164 2.73 2.73 0 0 1 2.188.665l.102.096.03.03a2.664 2.664 0 0 1 0 3.797l-5.53 5.47a.17.17 0 0 0 0 .238l1.135 1.123a.54.54 0 0 1 0 .771.556.556 0 0 1-.78 0l-1.135-1.123a1.25 1.25 0 0 1 0-1.78l5.532-5.47a1.58 1.58 0 0 0 .11-2.133l-.11-.121-.032-.03-.122-.11a1.624 1.624 0 0 0-2.156.11l-4.62 4.567a.556.556 0 0 1-.78 0 .54.54 0 0 1 0-.771l4.62-4.568a1.58 1.58 0 0 0 .11-2.132l-.11-.121a1.624 1.624 0 0 0-2.279 0l-6.116 6.049a.556.556 0 0 1-.78 0 .54.54 0 0 1 0-.771zm1.528 1.512a.556.556 0 0 1 .78 0 .54.54 0 0 1 0 .772l-4.523 4.473a1.58 1.58 0 0 0 0 2.254 1.624 1.624 0 0 0 2.278 0l4.524-4.473a.556.556 0 0 1 .78 0 .54.54 0 0 1 0 .77l-4.524 4.474a2.737 2.737 0 0 1-3.838 0 2.664 2.664 0 0 1 0-3.796z"/><rect width="21.4" height="21.4" x=".3" y=".3" stroke="var(--cn-comp-avatar-shadow)" stroke-width=".6" rx="3" ry="3"/></svg>