<svg viewBox="0 0 32 32" fill="none" xmlns="http://www.w3.org/2000/svg"><mask id="a" fill="#fff"><path d="M19.92 26 16 23.693 12.08 26l1.04-4.453-3.453-2.987 4.546-.387L16 14l1.787 4.173 4.546.387-3.453 2.987m7.787-18.88H5.333v2.666l6.48 4.854a10.667 10.667 0 1 0 8.374 0l6.48-4.854M24 20a8 8 0 1 1-9.573-7.84 7.9 7.9 0 0 1 3.146 0A8 8 0 0 1 24 20M16.84 9.333h-1.68l-5.333-4H22.28z"/></mask><path d="m16 23.693 2.536-4.31L16 17.893l-2.536 1.492zM12.08 26l-4.87-1.137-2.653 11.365 10.059-5.919zm1.04-4.453 4.869 1.137.687-2.943-2.285-1.976zM9.667 18.56l-.424-4.982-11.818 1.005 8.97 7.759zm4.546-.387.424 4.982 2.991-.254 1.182-2.76zM16 14l4.596-1.968L16 1.295l-4.597 10.737zm1.787 4.173-4.597 1.968 1.182 2.76 2.99.254zm4.546.387 3.271 3.782 8.971-7.76-11.818-1.004zm-17-15.893v-5h-5v5zm0 2.666h-5v2.502l2.003 1.5zm6.48 4.854 1.963 4.598 7.974-3.403-6.94-5.197zM16 30.664v5zm4.187-20.477-2.998-4.002-6.94 5.197 7.975 3.403zM24 20l5-.003zm-9.573-7.84.983 4.902.008-.002.009-.001zm3.146 0-1 4.899.009.002.008.001zm-.733-2.827v5h1.64l1.322-.972zm-1.68 0-3 4 1.333 1h1.667zm-5.333-4v-5h-15l12 9zm12.453 0 2.962 4.028L37.52.333H22.28zm.176 16.358-3.92-2.307-5.072 8.619 3.92 2.306zm-8.992-2.307-3.92 2.307 5.072 8.618 3.92-2.306zm3.485 7.753 1.04-4.453-9.738-2.275-1.04 4.454zm-.558-9.372-3.454-2.987-6.541 7.564 3.453 2.986zm-6.3 5.777 4.546-.387-.847-9.964-4.547.387zm8.719-3.401 1.786-4.173-9.193-3.936-1.786 4.173zm-7.407-4.173 1.787 4.173 9.193-3.936-1.787-4.173zm5.96 7.187 4.547.387.847-9.964-4.547-.387zm1.7-8.377-3.454 2.987 6.542 7.563 3.453-2.986zm7.604-17.111H5.333v10h21.334zm-26.334 5v2.666h10V2.667zm2.003 6.668 6.48 4.853 5.995-8.003L8.33 1.33zM9.85 5.588a15.67 15.67 0 0 0-7.726 7.135l8.856 4.643a5.67 5.67 0 0 1 2.795-2.58zm-7.726 7.135A15.67 15.67 0 0 0 .65 23.135l9.797-2.003a5.67 5.67 0 0 1 .533-3.766zM.65 23.135a15.67 15.67 0 0 0 5.442 9l6.324-7.748a5.67 5.67 0 0 1-1.969-3.255zm5.442 9A15.67 15.67 0 0 0 16 35.663v-10a5.67 5.67 0 0 1-3.583-1.277zM16 35.663c3.61 0 7.11-1.247 9.907-3.53l-6.324-7.747A5.67 5.67 0 0 1 16 25.664zm9.907-3.53a15.67 15.67 0 0 0 5.442-8.999l-9.797-2.003a5.67 5.67 0 0 1-1.969 3.255zm5.442-8.999a15.67 15.67 0 0 0-1.474-10.412l-8.856 4.643a5.67 5.67 0 0 1 .533 3.766zm-1.474-10.412a15.67 15.67 0 0 0-7.726-7.135l-3.925 9.197a5.67 5.67 0 0 1 2.795 2.58zm-6.691 1.465 6.48-4.853-5.995-8.004-6.48 4.854zM19 20.002a3 3 0 0 1-.465 1.605l8.452 5.345A13 13 0 0 0 29 19.997zm-.465 1.605a3 3 0 0 1-1.25 1.108l4.282 9.036a13 13 0 0 0 5.42-4.8zm-1.25 1.108a3 3 0 0 1-1.65.266l-1.215 9.926a13 13 0 0 0 7.147-1.156zm-1.65.266a3 3 0 0 1-1.536-.656L7.763 30.06a13 13 0 0 0 6.657 2.846zm-1.536-.656a3 3 0 0 1-.947-1.377l-9.491 3.148a13 13 0 0 0 4.102 5.965zm-.947-1.377a3 3 0 0 1-.063-1.67l-9.704-2.416a13 13 0 0 0 .276 7.234zm-.063-1.67a3 3 0 0 1 .84-1.444l-6.907-7.232a13 13 0 0 0-3.637 6.26zm.84-1.444a3 3 0 0 1 1.48-.772l-1.966-9.805a13 13 0 0 0-6.42 3.345zm1.498-.775a2.9 2.9 0 0 1 1.146 0l2-9.798a12.9 12.9 0 0 0-5.146 0zm1.163.003a3 3 0 0 1 1.73 1.04l7.734-6.34a13 13 0 0 0-7.497-4.505zm1.73 1.04a3 3 0 0 1 .68 1.9l10-.005a13 13 0 0 0-2.946-8.235zM16.84 4.333h-1.68v10h1.68zm1.32 1-5.333-4-6 8 5.333 4zm-8.333 5H22.28v-10H9.827zm9.491-9.028-5.44 4 5.924 8.056 5.44-4z" fill="currentColor" mask="url(#a)"/></svg>