<svg fill="none" height="24" viewBox="0 0 24 24" width="24" xmlns="http://www.w3.org/2000/svg"><path d="m19.29 11.327a7.32 7.32 0 0 0 -7.29-6.68l-11.066-.011a.377.377 0 0 0 -.376.376v7.261c0 .207.17.376.376.376h3.78a7.32 7.32 0 0 0 7.286 6.638l11.065.004a.377.377 0 0 0 .376-.376v-7.212a.377.377 0 0 0 -.376-.376z" fill="#1a1b3a"/><path d="m1.218 5.48v6.317a.19.19 0 0 0 .188.188h3.235a7.379 7.379 0 0 1 4.3-6.693h-7.534a.189.189 0 0 0 -.19.188z" fill="#fafbfc"/><path d="m18.097 14.628a1.517 1.517 0 0 1 -1.771-1.494v-2.3a.826.826 0 0 0 -.822-.83.828.828 0 0 0 -.822.83v2.299c0 .837-.677 1.518-1.51 1.518s-1.511-.681-1.511-1.517v-2.298a.826.826 0 0 0 -.823-.83.828.828 0 0 0 -.822.83v.655l.002.015v1.63c0 .836-.676 1.518-1.51 1.518-.832 0-1.51-.682-1.51-1.518v-2.3a.826.826 0 0 0 -.823-.83.82.82 0 0 0 -.594.26 6.647 6.647 0 0 0 6.419 8.367 6.649 6.649 0 0 0 6.096-4.006z" fill="#9293ab"/><path d="m6.175 9.317c.832 0 1.51.68 1.51 1.517v2.3c0 .458.37.83.823.83a.828.828 0 0 0 .822-.83v-2.299c0-.837.677-1.518 1.51-1.518.832 0 1.511.68 1.511 1.517v2.3c0 .458.369.83.822.83a.828.828 0 0 0 .823-.83v-.435c0-.004-.003-.009-.003-.014v-1.85c0-.837.677-1.518 1.51-1.518.835 0 1.511.68 1.511 1.517v2.3c0 .458.37.83.823.83.225 0 .43-.092.578-.24a6.647 6.647 0 0 0 -6.413-8.387 6.65 6.65 0 0 0 -6.1 4.003 1.73 1.73 0 0 1 .273-.023z" fill="#fafbfc"/><path d="m19.357 11.985a7.401 7.401 0 0 1 -4.19 6.641h7.425a.188.188 0 0 0 .187-.188v-6.265a.188.188 0 0 0 -.188-.188z" fill="#9293ab"/></svg>