<svg xmlns="http://www.w3.org/2000/svg" width="25" height="24" fill="none" viewBox="0 0 25 24">
  <path fill="#1A1B3A" d="M19.478 11.328a7.32 7.32 0 0 0-7.292-6.682L1.12 4.637a.377.377 0 0 0-.376.376v7.261c0 .207.169.376.376.376H4.9a7.32 7.32 0 0 0 7.287 6.637l11.065.005c.207 0 .376-.17.376-.376v-7.213a.377.377 0 0 0-.376-.375h-3.775Z"/>
  <path fill="#00A0A2" d="M1.405 5.48v6.317c0 .104.085.188.188.188h3.235a7.379 7.379 0 0 1 4.299-6.693H1.595a.189.189 0 0 0-.19.188Z"/>
  <path fill="#00799F" d="M18.284 14.628a1.517 1.517 0 0 1-1.771-1.494v-2.3a.826.826 0 0 0-.822-.83.828.828 0 0 0-.823.83v2.3c0 .836-.676 1.518-1.51 1.518-.832 0-1.51-.682-1.51-1.518v-2.298a.826.826 0 0 0-.823-.829.828.828 0 0 0-.822.83v.655l.002.014v1.63c0 .837-.676 1.518-1.51 1.518a1.517 1.517 0 0 1-1.511-1.518v-2.3a.826.826 0 0 0-.822-.829.82.82 0 0 0-.595.259 6.647 6.647 0 0 0 6.42 8.368 6.649 6.649 0 0 0 6.097-4.006Z"/>
  <path fill="#00A0A2" d="M6.362 9.317c.831 0 1.51.68 1.51 1.517v2.3c0 .458.37.83.823.83a.828.828 0 0 0 .822-.83v-2.299c0-.837.676-1.518 1.51-1.518.832 0 1.511.68 1.511 1.517v2.3c0 .458.369.83.822.83a.828.828 0 0 0 .822-.83v-.435l-.002-.014v-1.85c0-.837.677-1.518 1.51-1.518.835 0 1.511.68 1.511 1.517v2.3c0 .458.369.83.822.83.226 0 .43-.092.578-.24a6.647 6.647 0 0 0-6.413-8.387A6.65 6.65 0 0 0 6.089 9.34a1.73 1.73 0 0 1 .273-.023Z"/>
  <path fill="#00799F" d="M19.543 11.985a7.401 7.401 0 0 1-4.188 6.642h7.423a.188.188 0 0 0 .188-.188v-6.266a.188.188 0 0 0-.188-.188h-3.235Z"/>
</svg>
