<svg xmlns="http://www.w3.org/2000/svg" width="40" height="40" fill="none" viewBox="0 0 24 25">
  <path fill="#1A1B3A" d="M19.404 11.847a7.32 7.32 0 0 0-7.292-6.681l-11.065-.01a.377.377 0 0 0-.376.376v7.262c0 .206.17.375.376.375h3.78a7.32 7.32 0 0 0 7.287 6.637l11.065.005c.207 0 .376-.17.376-.376v-7.212a.377.377 0 0 0-.376-.376h-3.775Z"/>
  <path fill="#FAFBFC" d="M1.331 6v6.317a.19.19 0 0 0 .188.188h3.235a7.379 7.379 0 0 1 4.3-6.693H1.521a.189.189 0 0 0-.19.187Z"/>
  <path fill="#9293AB" d="M18.21 15.147a1.517 1.517 0 0 1-1.771-1.494v-2.3a.826.826 0 0 0-.822-.83.828.828 0 0 0-.822.83v2.3c0 .836-.677 1.518-1.51 1.518a1.518 1.518 0 0 1-1.511-1.518v-2.297a.826.826 0 0 0-.823-.83.828.828 0 0 0-.822.83v.655c0 .005.003.01.003.014v1.63c0 .837-.677 1.518-1.511 1.518-.832 0-1.51-.681-1.51-1.518v-2.299a.826.826 0 0 0-.823-.83.82.82 0 0 0-.594.259 6.647 6.647 0 0 0 6.42 8.368 6.649 6.649 0 0 0 6.097-4.006Z"/>
  <path fill="#FAFBFC" d="M6.288 9.836c.832 0 1.51.681 1.51 1.518v2.3c0 .458.37.829.823.829a.828.828 0 0 0 .822-.83v-2.299c0-.837.677-1.518 1.51-1.518.832 0 1.511.681 1.511 1.518v2.3c0 .458.37.829.823.829a.828.828 0 0 0 .822-.83v-.434l-.002-.014v-1.851c0-.837.676-1.518 1.51-1.518s1.51.681 1.51 1.518v2.3c0 .458.37.829.823.829.225 0 .43-.092.578-.24a6.647 6.647 0 0 0-6.413-8.387 6.65 6.65 0 0 0-6.1 4.004c.09-.015.18-.024.273-.024Z"/>
  <path fill="#9293AB" d="M19.47 12.504a7.401 7.401 0 0 1-4.189 6.642h7.424a.189.189 0 0 0 .188-.188v-6.266a.189.189 0 0 0-.188-.188H19.47Z"/>
</svg>
