<svg xmlns="http://www.w3.org/2000/svg" width="45" height="40" fill="none" viewBox="0 0 27 25">
  <path fill="#265AB1" d="M4.54 3.071V15.41c0 1.763 1.745 4.199 3.53 5.397l4.858 3.264 4.81-3.264c1.778-1.207 3.528-3.634 3.528-5.398V3.072c-5.526-1.635-11.105-1.52-16.726 0Z"/>
  <path fill="#000" d="M5.789 4.962v10.391c0 1.486 2.039 3.613 2.972 4.547V9.384l2.748 2.473v4.396h2.647v-4.396l2.748-2.473V19.9c.933-.934 2.973-3.061 2.973-4.547V4.963h-2.823l-4.221 4.02-4.222-4.02H5.79Z" opacity=".3"/>
  <path fill="#fff" d="M5.789 4.47v10.392c0 1.485 2.039 3.612 2.972 4.546V8.892l2.748 2.473v4.396h2.647v-4.396l2.748-2.473v10.516c.933-.934 2.973-3.061 2.973-4.546V4.47h-2.823l-4.221 4.021-4.223-4.02H5.79Z"/>
  <path fill="#fff" d="M12.868 1.887C10.08 1.901 7.28 2.31 4.47 3.07v.493c5.62-1.52 11.2-1.635 16.726 0V3.07a28.675 28.675 0 0 0-8.328-1.183Z" opacity=".2"/>
  <path fill="#000" d="M4.47 14.914v.493c0 1.763 1.744 4.199 3.529 5.398l4.859 3.263 4.809-3.264c1.778-1.207 3.529-3.634 3.529-5.397v-.493c0 1.763-1.75 4.19-3.53 5.397l-4.808 3.264-4.86-3.264c-1.784-1.198-3.529-3.634-3.529-5.397Z" opacity=".3"/>
  <path fill="#000" d="M12.868 1.888h-.01V24.07l4.809-3.264c1.778-1.207 3.529-3.634 3.529-5.397V3.072a28.674 28.674 0 0 0-8.328-1.184Z" opacity=".2"/>
</svg>
