<svg xmlns="http://www.w3.org/2000/svg" fill="none" viewBox="0 0 32 32">
  <mask id="a" width="30" height="30" x="1" y="1" fill="#000" maskUnits="userSpaceOnUse">
    <path fill="#fff" d="M1 1h30v30H1z"/>
    <path d="M25.8998 6.10047C23.2554 3.45632 19.7397 2 16.0002 2c-3.7396 0-7.25527 1.45632-9.89973 4.10047C3.45601 8.74463 2 12.2606 2 16.0002v1.606c0 .6857.55786 1.2436 1.2436 1.2436h1.5151c.74452 0 1.3842.4272 1.66934 1.1154.28484.6878.13484 1.4424-.39181 1.969l-1.07148 1.0715c-.23423.2342-.36332.5466-.36332.8793 0 .3328.12909.6452.36332.8794l2.27114 2.2708c.23424.2343.54665.3634.87937.3634.33271 0 .64513-.1291.87936-.3634l1.07148-1.0714c.5267-.5267 1.2809-.6767 1.969-.3918.6879.2848 1.1154.9245 1.1154 1.6693v1.5151c0 .6857.5579 1.2436 1.2436 1.2436h3.2118c.6857 0 1.2436-.5579 1.2436-1.2436v-1.5151c0-.7445.4272-1.3842 1.1154-1.6693.6878-.2849 1.4424-.1349 1.969.3918l1.0715 1.0711c.2342.2343.5466.3634.8793.3634.3331 0 .6452-.1291.8794-.3634l2.2711-2.2711c.4849-.4848.4849-1.2739 0-1.7587l-1.0714-1.0712c-.5267-.5266-.6767-1.2812-.3918-1.969.2851-.6879.9245-1.1154 1.6693-1.1154h1.5151c.6857 0 1.2436-.5579 1.2436-1.2436v-1.6057c.0003-3.7396-1.456-7.25527-4.1002-9.89973ZM13.5202 16.412c.1973 1.1911 1.2339 2.1023 2.48 2.1023 1.246 0 2.2826-.9115 2.4799-2.1023h2.9705c-.2112 2.8223-2.5751 5.054-5.4504 5.054-2.8754 0-5.2393-2.2317-5.4505-5.054h2.9705Zm4.1569-1.2103c-.0643.0994-.0825.2218-.0503.3357.0424.1494.0639.3052.0639.4628 0 .932-.7585 1.6905-1.6905 1.6905-.9321 0-1.6906-.7585-1.6906-1.6905 0-.9321.7585-1.6906 1.6906-1.6906.1572 0 .313.0215.4627.0639.1139.0325.2363.0143.3357-.0503l2.4799-1.6014-1.6014 2.4799Zm.803.3866c-.0049-.0293-.0097-.0587-.0155-.0878l2.5436-3.9387c.1051-.163.0824-.3772-.0549-.5145-.1372-.1373-.3515-.16-.5145-.0549l-3.9387 2.5436c-.1639-.033-.3312-.0497-.4996-.0497-1.2461 0-2.2827.9115-2.48 2.1023H8.47767c.21454-3.9638 3.50653-7.12245 7.52253-7.12245 4.0162 0 7.3079 3.15865 7.5224 7.12215h-5.0425Zm-15.64952 0c.06485-2.0978.6221-4.0735 1.55995-5.81552l4.17562 2.41082c-.53089 1.0297-.85391 2.1833-.9133 3.4047H2.83058ZM16.412 7.65285V2.83058c2.0978.06485 4.0735.6221 5.8155 1.55995l-2.4108 4.17562c-1.0297-.53059-2.1833-.85361-3.4047-.9133Zm-.8237 0c-1.2214.05969-2.375.38271-3.4047.9133L9.77278 4.39053c1.74172-.93815 3.71772-1.49541 5.81552-1.55995v4.82227Zm8.7592 7.93545c-.0597-1.2214-.3828-2.375-.9133-3.4047l4.1756-2.41082c.9381 1.74172 1.4954 3.71772 1.5599 5.81552h-4.8222Zm2.849-6.52762-4.1754 2.41052c-.6448-.9963-1.4957-1.8469-2.4917-2.49173l2.4105-4.17532c1.7242 1.07239 3.1836 2.53204 4.2566 4.25653ZM9.06068 4.80385l2.41052 4.17532c-.9963.64483-1.8469 1.49573-2.49173 2.49173L4.80415 9.06038c1.07269-1.72419 2.53204-3.18384 4.25653-4.25653ZM29.1767 17.6062c0 .2318-.1885.4199-.4203.4199h-1.5151c-1.0839 0-2.0151.6221-2.4302 1.6236-.4149 1.0015-.1964 2.1.5703 2.8666l1.0714 1.0712c.164.1639.164.4303 0 .5942l-2.2711 2.2711c-.0788.0788-.1842.1222-.297.1222-.1127 0-.2181-.0434-.2969-.1222l-1.0715-1.0711c-.7666-.7667-1.8648-.9852-2.8666-.5703-1.0015.4148-1.6236 1.346-1.6236 2.4299v1.5151c0 .2318-.1884.4203-.4202.4203h-3.2115c-.2318 0-.4202-.1885-.4202-.4203v-1.5151c0-1.0842-.6221-2.0154-1.6236-2.4302-1.0015-.4149-2.1-.1964-2.8666.5703l-1.07148 1.0714c-.07879.0788-.18424.1222-.29696.1222-.11303 0-.21848-.0434-.29696-.1222l-2.27114-2.2711c-.07878-.0788-.12212-.1842-.12212-.297 0-.1127.04334-.2184.12212-.2969l1.07148-1.0715c.76664-.7666.98512-1.8648.57029-2.8666-.41484-1.0015-1.34602-1.6236-2.43023-1.6236H3.2439c-.23181 0-.41999-.1884-.41999-.4199V16.412H9.7246c.21272 3.2768 2.946 5.8776 6.2756 5.8776 3.3295 0 6.0628-2.6008 6.2755-5.8776h6.901v1.1942Zm-13.1765-2.7236c-.6164 0-1.1176.5015-1.1176 1.1176 0 .6163.5015 1.1175 1.1176 1.1175.616 0 1.1175-.5015 1.1175-1.1175 0-.6164-.5012-1.1176-1.1175-1.1176Zm0 1.4115c-.1622 0-.294-.1318-.294-.2943 0-.1621.1318-.2939.294-.2939.1621 0 .2939.1318.2939.2939 0 .1625-.1318.2943-.2939.2943Z"/>
  </mask>
  <path fill="currentColor" d="M25.8998 6.10047C23.2554 3.45632 19.7397 2 16.0002 2c-3.7396 0-7.25527 1.45632-9.89973 4.10047C3.45601 8.74463 2 12.2606 2 16.0002v1.606c0 .6857.55786 1.2436 1.2436 1.2436h1.5151c.74452 0 1.3842.4272 1.66934 1.1154.28484.6878.13484 1.4424-.39181 1.969l-1.07148 1.0715c-.23423.2342-.36332.5466-.36332.8793 0 .3328.12909.6452.36332.8794l2.27114 2.2708c.23424.2343.54665.3634.87937.3634.33271 0 .64513-.1291.87936-.3634l1.07148-1.0714c.5267-.5267 1.2809-.6767 1.969-.3918.6879.2848 1.1154.9245 1.1154 1.6693v1.5151c0 .6857.5579 1.2436 1.2436 1.2436h3.2118c.6857 0 1.2436-.5579 1.2436-1.2436v-1.5151c0-.7445.4272-1.3842 1.1154-1.6693.6878-.2849 1.4424-.1349 1.969.3918l1.0715 1.0711c.2342.2343.5466.3634.8793.3634.3331 0 .6452-.1291.8794-.3634l2.2711-2.2711c.4849-.4848.4849-1.2739 0-1.7587l-1.0714-1.0712c-.5267-.5266-.6767-1.2812-.3918-1.969.2851-.6879.9245-1.1154 1.6693-1.1154h1.5151c.6857 0 1.2436-.5579 1.2436-1.2436v-1.6057c.0003-3.7396-1.456-7.25527-4.1002-9.89973ZM13.5202 16.412c.1973 1.1911 1.2339 2.1023 2.48 2.1023 1.246 0 2.2826-.9115 2.4799-2.1023h2.9705c-.2112 2.8223-2.5751 5.054-5.4504 5.054-2.8754 0-5.2393-2.2317-5.4505-5.054h2.9705Zm4.1569-1.2103c-.0643.0994-.0825.2218-.0503.3357.0424.1494.0639.3052.0639.4628 0 .932-.7585 1.6905-1.6905 1.6905-.9321 0-1.6906-.7585-1.6906-1.6905 0-.9321.7585-1.6906 1.6906-1.6906.1572 0 .313.0215.4627.0639.1139.0325.2363.0143.3357-.0503l2.4799-1.6014-1.6014 2.4799Zm.803.3866c-.0049-.0293-.0097-.0587-.0155-.0878l2.5436-3.9387c.1051-.163.0824-.3772-.0549-.5145-.1372-.1373-.3515-.16-.5145-.0549l-3.9387 2.5436c-.1639-.033-.3312-.0497-.4996-.0497-1.2461 0-2.2827.9115-2.48 2.1023H8.47767c.21454-3.9638 3.50653-7.12245 7.52253-7.12245 4.0162 0 7.3079 3.15865 7.5224 7.12215h-5.0425Zm-15.64952 0c.06485-2.0978.6221-4.0735 1.55995-5.81552l4.17562 2.41082c-.53089 1.0297-.85391 2.1833-.9133 3.4047H2.83058ZM16.412 7.65285V2.83058c2.0978.06485 4.0735.6221 5.8155 1.55995l-2.4108 4.17562c-1.0297-.53059-2.1833-.85361-3.4047-.9133Zm-.8237 0c-1.2214.05969-2.375.38271-3.4047.9133L9.77278 4.39053c1.74172-.93815 3.71772-1.49541 5.81552-1.55995v4.82227Zm8.7592 7.93545c-.0597-1.2214-.3828-2.375-.9133-3.4047l4.1756-2.41082c.9381 1.74172 1.4954 3.71772 1.5599 5.81552h-4.8222Zm2.849-6.52762-4.1754 2.41052c-.6448-.9963-1.4957-1.8469-2.4917-2.49173l2.4105-4.17532c1.7242 1.07239 3.1836 2.53204 4.2566 4.25653ZM9.06068 4.80385l2.41052 4.17532c-.9963.64483-1.8469 1.49573-2.49173 2.49173L4.80415 9.06038c1.07269-1.72419 2.53204-3.18384 4.25653-4.25653ZM29.1767 17.6062c0 .2318-.1885.4199-.4203.4199h-1.5151c-1.0839 0-2.0151.6221-2.4302 1.6236-.4149 1.0015-.1964 2.1.5703 2.8666l1.0714 1.0712c.164.1639.164.4303 0 .5942l-2.2711 2.2711c-.0788.0788-.1842.1222-.297.1222-.1127 0-.2181-.0434-.2969-.1222l-1.0715-1.0711c-.7666-.7667-1.8648-.9852-2.8666-.5703-1.0015.4148-1.6236 1.346-1.6236 2.4299v1.5151c0 .2318-.1884.4203-.4202.4203h-3.2115c-.2318 0-.4202-.1885-.4202-.4203v-1.5151c0-1.0842-.6221-2.0154-1.6236-2.4302-1.0015-.4149-2.1-.1964-2.8666.5703l-1.07148 1.0714c-.07879.0788-.18424.1222-.29696.1222-.11303 0-.21848-.0434-.29696-.1222l-2.27114-2.2711c-.07878-.0788-.12212-.1842-.12212-.297 0-.1127.04334-.2184.12212-.2969l1.07148-1.0715c.76664-.7666.98512-1.8648.57029-2.8666-.41484-1.0015-1.34602-1.6236-2.43023-1.6236H3.2439c-.23181 0-.41999-.1884-.41999-.4199V16.412H9.7246c.21272 3.2768 2.946 5.8776 6.2756 5.8776 3.3295 0 6.0628-2.6008 6.2755-5.8776h6.901v1.1942Zm-13.1765-2.7236c-.6164 0-1.1176.5015-1.1176 1.1176 0 .6163.5015 1.1175 1.1176 1.1175.616 0 1.1175-.5015 1.1175-1.1175 0-.6164-.5012-1.1176-1.1175-1.1176Zm0 1.4115c-.1622 0-.294-.1318-.294-.2943 0-.1621.1318-.2939.294-.2939.1621 0 .2939.1318.2939.2939 0 .1625-.1318.2943-.2939.2943Z"/>
  <path stroke="currentColor" stroke-width=".4" d="M25.8998 6.10047C23.2554 3.45632 19.7397 2 16.0002 2c-3.7396 0-7.25527 1.45632-9.89973 4.10047C3.45601 8.74463 2 12.2606 2 16.0002v1.606c0 .6857.55786 1.2436 1.2436 1.2436h1.5151c.74452 0 1.3842.4272 1.66934 1.1154.28484.6878.13484 1.4424-.39181 1.969l-1.07148 1.0715c-.23423.2342-.36332.5466-.36332.8793 0 .3328.12909.6452.36332.8794l2.27114 2.2708c.23424.2343.54665.3634.87937.3634.33271 0 .64513-.1291.87936-.3634l1.07148-1.0714c.5267-.5267 1.2809-.6767 1.969-.3918.6879.2848 1.1154.9245 1.1154 1.6693v1.5151c0 .6857.5579 1.2436 1.2436 1.2436h3.2118c.6857 0 1.2436-.5579 1.2436-1.2436v-1.5151c0-.7445.4272-1.3842 1.1154-1.6693.6878-.2849 1.4424-.1349 1.969.3918l1.0715 1.0711c.2342.2343.5466.3634.8793.3634.3331 0 .6452-.1291.8794-.3634l2.2711-2.2711c.4849-.4848.4849-1.2739 0-1.7587l-1.0714-1.0712c-.5267-.5266-.6767-1.2812-.3918-1.969.2851-.6879.9245-1.1154 1.6693-1.1154h1.5151c.6857 0 1.2436-.5579 1.2436-1.2436v-1.6057c.0003-3.7396-1.456-7.25527-4.1002-9.89973ZM13.5202 16.412c.1973 1.1911 1.2339 2.1023 2.48 2.1023 1.246 0 2.2826-.9115 2.4799-2.1023h2.9705c-.2112 2.8223-2.5751 5.054-5.4504 5.054-2.8754 0-5.2393-2.2317-5.4505-5.054h2.9705Zm4.1569-1.2103c-.0643.0994-.0825.2218-.0503.3357.0424.1494.0639.3052.0639.4628 0 .932-.7585 1.6905-1.6905 1.6905-.9321 0-1.6906-.7585-1.6906-1.6905 0-.9321.7585-1.6906 1.6906-1.6906.1572 0 .313.0215.4627.0639.1139.0325.2363.0143.3357-.0503l2.4799-1.6014-1.6014 2.4799Zm.803.3866c-.0049-.0293-.0097-.0587-.0155-.0878l2.5436-3.9387c.1051-.163.0824-.3772-.0549-.5145-.1372-.1373-.3515-.16-.5145-.0549l-3.9387 2.5436c-.1639-.033-.3312-.0497-.4996-.0497-1.2461 0-2.2827.9115-2.48 2.1023H8.47767c.21454-3.9638 3.50653-7.12245 7.52253-7.12245 4.0162 0 7.3079 3.15865 7.5224 7.12215h-5.0425Zm-15.64952 0c.06485-2.0978.6221-4.0735 1.55995-5.81552l4.17562 2.41082c-.53089 1.0297-.85391 2.1833-.9133 3.4047H2.83058ZM16.412 7.65285V2.83058c2.0978.06485 4.0735.6221 5.8155 1.55995l-2.4108 4.17562c-1.0297-.53059-2.1833-.85361-3.4047-.9133Zm-.8237 0c-1.2214.05969-2.375.38271-3.4047.9133L9.77278 4.39053c1.74172-.93815 3.71772-1.49541 5.81552-1.55995v4.82227Zm8.7592 7.93545c-.0597-1.2214-.3828-2.375-.9133-3.4047l4.1756-2.41082c.9381 1.74172 1.4954 3.71772 1.5599 5.81552h-4.8222Zm2.849-6.52762-4.1754 2.41052c-.6448-.9963-1.4957-1.8469-2.4917-2.49173l2.4105-4.17532c1.7242 1.07239 3.1836 2.53204 4.2566 4.25653ZM9.06068 4.80385l2.41052 4.17532c-.9963.64483-1.8469 1.49573-2.49173 2.49173L4.80415 9.06038c1.07269-1.72419 2.53204-3.18384 4.25653-4.25653ZM29.1767 17.6062c0 .2318-.1885.4199-.4203.4199h-1.5151c-1.0839 0-2.0151.6221-2.4302 1.6236-.4149 1.0015-.1964 2.1.5703 2.8666l1.0714 1.0712c.164.1639.164.4303 0 .5942l-2.2711 2.2711c-.0788.0788-.1842.1222-.297.1222-.1127 0-.2181-.0434-.2969-.1222l-1.0715-1.0711c-.7666-.7667-1.8648-.9852-2.8666-.5703-1.0015.4148-1.6236 1.346-1.6236 2.4299v1.5151c0 .2318-.1884.4203-.4202.4203h-3.2115c-.2318 0-.4202-.1885-.4202-.4203v-1.5151c0-1.0842-.6221-2.0154-1.6236-2.4302-1.0015-.4149-2.1-.1964-2.8666.5703l-1.07148 1.0714c-.07879.0788-.18424.1222-.29696.1222-.11303 0-.21848-.0434-.29696-.1222l-2.27114-2.2711c-.07878-.0788-.12212-.1842-.12212-.297 0-.1127.04334-.2184.12212-.2969l1.07148-1.0715c.76664-.7666.98512-1.8648.57029-2.8666-.41484-1.0015-1.34602-1.6236-2.43023-1.6236H3.2439c-.23181 0-.41999-.1884-.41999-.4199V16.412H9.7246c.21272 3.2768 2.946 5.8776 6.2756 5.8776 3.3295 0 6.0628-2.6008 6.2755-5.8776h6.901v1.1942Zm-13.1765-2.7236c-.6164 0-1.1176.5015-1.1176 1.1176 0 .6163.5015 1.1175 1.1176 1.1175.616 0 1.1175-.5015 1.1175-1.1175 0-.6164-.5012-1.1176-1.1175-1.1176Zm0 1.4115c-.1622 0-.294-.1318-.294-.2943 0-.1621.1318-.2939.294-.2939.1621 0 .2939.1318.2939.2939 0 .1625-.1318.2943-.2939.2943Z" mask="url(#a)"/>
</svg>
