<svg viewBox="0 0 12 14" fill="none" xmlns="http://www.w3.org/2000/svg">
<path d="M0.558594 2.6001V6.6001C0.558594 6.6001 0.558594 8.6001 5.22526 8.6001C9.89193 8.6001 9.89193 6.6001 9.89193 6.6001V2.6001" stroke="#9293AB" stroke-linecap="round" stroke-linejoin="round"/>
<path d="M5.22526 0.600098C9.89193 0.600098 9.89193 2.6001 9.89193 2.6001C9.89193 2.6001 9.89193 4.6001 5.22526 4.6001C0.558594 4.6001 0.558594 2.6001 0.558594 2.6001C0.558594 2.6001 0.558594 0.600098 5.22526 0.600098Z" stroke="currentColor" stroke-linecap="round" stroke-linejoin="round"/>
<path d="M5.22526 12.6001C0.558594 12.6001 0.558594 10.6001 0.558594 10.6001V6.6001" stroke="#9293AB" stroke-linecap="round" stroke-linejoin="round"/>
<path d="M7.44141 10.6135C7.44141 11.1497 7.87609 11.5843 8.41229 11.5843C8.94849 11.5843 9.38317 11.1497 9.38317 10.6135C9.38317 10.0773 8.94849 9.64258 8.41229 9.64258C7.87609 9.64258 7.44141 10.0773 7.44141 10.6135Z" fill="currentColor"/>
<path d="M9.81641 10.6134C9.81641 11.1496 10.2511 11.5843 10.7873 11.5843C11.3234 11.5843 11.7581 11.1496 11.7581 10.6134C11.7581 10.0772 11.3234 9.64258 10.7873 9.64258C10.2511 9.64258 9.81641 10.0772 9.81641 10.6134Z" fill="currentColor"/>
<path d="M7.44141 12.987C7.44141 13.5232 7.87609 13.9579 8.41229 13.9579C8.94849 13.9579 9.38317 13.5232 9.38317 12.987C9.38317 12.4508 8.94849 12.0161 8.41229 12.0161C7.87609 12.0161 7.44141 12.4508 7.44141 12.987Z" fill="currentColor"/>
<path d="M9.81641 12.987C9.81641 13.5232 10.2511 13.9578 10.7873 13.9578C11.3234 13.9578 11.7581 13.5232 11.7581 12.987C11.7581 12.4508 11.3234 12.0161 10.7873 12.0161C10.2511 12.0161 9.81641 12.4508 9.81641 12.987Z" fill="currentColor"/>
</svg>
