<svg width="24" height="24" viewBox="0 0 24 24" fill="none" xmlns="http://www.w3.org/2000/svg">
<path fill-rule="evenodd" clip-rule="evenodd" d="M1 12C1 18.0751 5.92487 23 12 23C18.0751 23 23 18.0751 23 12C23 5.92487 18.0751 1 12 1C5.92487 1 1 5.92487 1 12ZM6.53755 10.8291L19.0734 10.9743C19.761 10.9823 20.3093 11.546 20.298 12.2335C20.2867 12.9209 19.72 13.4717 19.0324 13.4638L5.25902 13.3042C5.257 13.3582 4.13352 13.307 4.13673 11.9843C4.13951 10.8351 5.35741 10.832 5.35741 10.832L6.53755 10.8291Z" fill="white"/>
</svg>
