<?xml version="1.0" encoding="UTF-8"?>
<svg version="1.1" xmlns="http://www.w3.org/2000/svg" viewBox="0 0 400 400">
<path d="M0 0 C0.87629059 0.00054382 1.75258118 0.00108765 2.65542603 0.00164795 C17.27640523 0.04321363 31.34725518 1.00738975 45.625 4.375 C46.53685059 4.58930664 47.44870117 4.80361328 48.38818359 5.02441406 C61.33360969 8.18430311 73.54377812 12.7882311 85.625 18.375 C86.33527344 18.70258301 87.04554688 19.03016602 87.77734375 19.36767578 C97.58064262 23.9475689 106.66157987 29.32469141 115.625 35.375 C114.08643991 39.89518343 110.39626425 42.07850024 106.6875 44.75 C105.62547363 45.53056763 105.62547363 45.53056763 104.54199219 46.3269043 C103.0222165 47.44289645 101.4998272 48.55533645 99.97509766 49.66455078 C96.88219638 51.91562769 93.80333328 54.18548804 90.72436523 56.45556641 C89.14260093 57.62163063 87.56006607 58.78665024 85.97680664 59.95068359 C79.32005406 64.84777416 72.70856685 69.80352492 66.10424805 74.77099609 C60.49162953 78.98795328 54.84874068 83.16112017 49.1875 87.3125 C42.3348519 92.33868218 35.55958929 97.45811334 28.8125 102.625 C22.79314691 107.22641451 16.76703648 111.81302147 10.625 116.25 C9.573125 117.01054688 8.52125 117.77109375 7.4375 118.5546875 C4.625 120.375 4.625 120.375 -0.375 122.375 C-0.375 106.865 -0.375 91.355 -0.375 75.375 C-30.94527834 78.59292404 -57.01957883 85.85053897 -80.375 106.375 C-81.20515625 107.06078125 -82.0353125 107.7465625 -82.890625 108.453125 C-107.70864224 129.52502643 -120.19688773 161.71513057 -123.375 193.375 C-125.5392983 221.24765242 -116.66591395 249.92605413 -100.61254883 272.55517578 C-96.84967835 277.87964123 -96.84967835 277.87964123 -96.375 281.375 C-97.16519531 281.93445313 -97.95539063 282.49390625 -98.76953125 283.0703125 C-108.21800656 289.77945799 -117.5531073 296.63657814 -126.87109375 303.52539062 C-129.42257823 305.41014554 -131.97649316 307.2915585 -134.53125 309.171875 C-135.79545776 310.10241699 -135.79545776 310.10241699 -137.08520508 311.05175781 C-138.68388083 312.22835292 -140.28266823 313.40479636 -141.8815918 314.58105469 C-146.73232118 318.15320231 -151.56189288 321.75231893 -156.375 325.375 C-159.65043104 323.99794453 -161.20515685 322.62369006 -163.14453125 319.6640625 C-163.63711426 318.92067627 -164.12969727 318.17729004 -164.63720703 317.41137695 C-165.14880371 316.61562256 -165.66040039 315.81986816 -166.1875 315 C-166.7222998 314.17781982 -167.25709961 313.35563965 -167.80810547 312.50854492 C-169.34157254 310.13764763 -170.85922682 307.75723118 -172.375 305.375 C-173.03113281 304.36824219 -173.68726563 303.36148437 -174.36328125 302.32421875 C-184.94009653 285.28519652 -191.7354754 265.78816436 -196.375 246.375 C-196.59945801 245.43624023 -196.82391602 244.49748047 -197.05517578 243.53027344 C-202.86174198 217.7995649 -203.28835038 187.15720764 -197.375 161.375 C-197.20339355 160.57368652 -197.03178711 159.77237305 -196.85498047 158.94677734 C-185.61820248 106.94027759 -154.59988809 61.93029872 -110.39453125 32.3828125 C-107.09744639 30.30176274 -103.75625777 28.31470459 -100.375 26.375 C-99.70678223 25.98699219 -99.03856445 25.59898438 -98.35009766 25.19921875 C-68.15847191 7.86431402 -34.63990864 -0.08123633 0 0 Z " fill="#42C9ED" transform="translate(200.375,-0.375)"/>
<path d="M0 0 C3.24063914 1.36857745 4.80736403 2.71335552 6.734375 5.640625 C7.22180176 6.37361816 7.70922852 7.10661133 8.21142578 7.86181641 C8.71915527 8.64991699 9.22688477 9.43801758 9.75 10.25 C10.54833252 11.47662354 10.54833252 11.47662354 11.36279297 12.72802734 C12.92276348 15.14326761 14.4641546 17.56936672 16 20 C16.58152832 20.90637207 16.58152832 20.90637207 17.17480469 21.83105469 C28.1359023 39.07334679 35.4350312 59.15827643 40 79 C40.20882813 79.89041992 40.41765625 80.78083984 40.6328125 81.69824219 C46.40495721 107.53589626 46.93800367 138.11030402 41 164 C40.82839355 164.80131348 40.65678711 165.60262695 40.47998047 166.42822266 C29.25386371 218.38537965 -1.77892333 263.60724867 -46.05078125 293.02734375 C-49.32857672 295.08872197 -52.64287711 297.07173143 -56 299 C-56.62471191 299.3609375 -57.24942383 299.721875 -57.89306641 300.09375 C-74.76670402 309.72865981 -93.04558078 316.71923599 -112 321 C-113.27979736 321.29414795 -113.27979736 321.29414795 -114.58544922 321.59423828 C-140.61164324 327.30161416 -170.91307138 327.82442358 -197 322 C-198.36535889 321.70198486 -198.36535889 321.70198486 -199.75830078 321.39794922 C-226.02926355 315.49659716 -249.50762917 304.59611299 -272 290 C-270.62803826 286.77582501 -269.23080266 285.1326783 -266.38671875 283.109375 C-265.64413818 282.57304443 -264.90155762 282.03671387 -264.13647461 281.48413086 C-263.32831299 280.91186768 -262.52015137 280.33960449 -261.6875 279.75 C-259.95188975 278.4978041 -258.21756056 277.24383107 -256.484375 275.98828125 C-255.58138672 275.33553223 -254.67839844 274.6827832 -253.74804688 274.01025391 C-249.25624736 270.72440838 -244.84994032 267.32872765 -240.4375 263.9375 C-233.31268245 258.47763981 -226.11040738 253.15305605 -218.80834961 247.93334961 C-212.95378058 243.73104568 -207.21788001 239.38599807 -201.5 235 C-193.51675836 228.8786389 -185.43945577 222.91536552 -177.2578125 217.0625 C-174.3566771 214.9855054 -171.47908472 212.8807369 -168.6171875 210.75 C-167.57570557 209.97619995 -167.57570557 209.97619995 -166.51318359 209.18676758 C-165.20333779 208.21129303 -163.89621394 207.23214919 -162.59228516 206.2487793 C-158.22111151 203 -158.22111151 203 -156 203 C-156 218.51 -156 234.02 -156 250 C-125.37325825 246.77613245 -99.41695574 239.50349313 -76 219 C-75.24332031 218.38769531 -74.48664063 217.77539062 -73.70703125 217.14453125 C-50.61984748 197.9801256 -36.3273659 166.38355349 -33.41601562 136.88232422 C-33.25397009 134.92334267 -33.12610434 132.96162309 -33 131 C-32.89365234 129.41445313 -32.89365234 129.41445313 -32.78515625 127.796875 C-31.92533814 100.97054991 -40.42724063 72.50772897 -56.90112305 51.2746582 C-60 47.26873276 -60 47.26873276 -60 44 C-58.09693451 42.41980369 -56.23559252 41.05816788 -54.1875 39.6875 C-52.89335226 38.79337071 -51.60044922 37.89743802 -50.30859375 37 C-49.26227783 36.27683594 -49.26227783 36.27683594 -48.19482422 35.5390625 C-44.32721526 32.82700389 -40.5433096 30.00205407 -36.75 27.1875 C-30.32406555 22.43317907 -23.86605648 17.72748015 -17.375 13.0625 C-11.48642599 8.82830469 -5.65391923 4.54628008 0 0 Z " fill="#0094E2" transform="translate(356,75)"/>
</svg>
