<svg viewBox="0 0 16 16" fill="none" xmlns="http://www.w3.org/2000/svg">
<g id="Icons/SRM/Monitored Service">
<path id="Subtract" d="M11.2525 12.9376L10.9343 13.2558L11.2525 12.9376ZM12.6665 11.5232L12.3483 11.8414L12.6665 11.5232ZM13.5723 9.34021V9.79021V9.34021ZM10.724 3.79897L10.4902 4.18347L10.724 3.79897ZM11.6083 3.39042L11.2901 3.07222L11.6083 3.39042ZM13.0225 4.80463L13.3407 5.12283L13.0225 4.80463ZM12.5965 5.74906L12.2028 5.967L12.5965 5.74906ZM12.669 5.15818L12.3508 4.83998L12.669 5.15818ZM13.0762 6.94266L13.5113 6.82766L13.0762 6.94266ZM14.0723 7.34021V7.79021V7.34021ZM14.0723 9.34021V8.89021V9.34021ZM13.0477 9.73695L12.6151 9.613L13.0477 9.73695ZM13.0201 12.5839L13.3384 12.9021L13.0201 12.5839ZM13.0201 11.8769L12.7019 12.1951L13.0201 11.8769ZM11.2405 12.9256L10.9222 13.2437L11.2405 12.9256ZM5.43596 12.8703L5.21585 13.2628L5.43596 12.8703ZM3.83013 13.2899L3.51193 13.6081L3.83013 13.2899ZM4.53724 13.2899L4.21904 12.9717L4.53724 13.2899ZM3.12303 11.8757L3.44122 12.1939L3.12303 11.8757ZM3.12303 12.5828L3.44122 12.2646L3.12303 12.5828ZM3.52623 11.0365L3.14302 11.2724L3.52623 11.0365ZM3.47658 11.5221L3.15838 11.2039H3.15838L3.47658 11.5221ZM3.4755 5.15829L3.15726 5.47644H3.15726L3.4755 5.15829ZM3.51763 5.55363L3.90157 5.78834L3.51763 5.55363ZM11.6059 13.2911L11.9242 12.973L11.6059 13.2911ZM12.3131 13.2911L11.9949 12.973L12.3131 13.2911ZM3.1219 4.80458L3.44014 4.48643L3.1219 4.80458ZM4.53611 3.39036L4.21786 3.70851L4.53611 3.39036ZM9.46684 13.3304L9.34136 12.8983L9.46684 13.3304ZM4.8895 3.74386L5.20775 3.42571L4.8895 3.74386ZM12.6499 11.5066L12.3317 11.8248L12.6499 11.5066ZM12.5751 10.8653L12.1833 10.6441L12.5751 10.8653ZM6.69682 13.375L6.8082 12.939L6.69682 13.375ZM9.37093 3.21878L9.25374 3.65325L9.37093 3.21878ZM8.62201 2.34021V2.84021H9.52201V2.34021H8.62201ZM7.57201 2.29021H8.57201V1.39021H7.57201V2.29021ZM7.52201 2.84021V2.34021H6.62201V2.84021H7.52201ZM5.52646 4.17365C5.94705 3.92018 6.40944 3.72952 6.90081 3.61442L6.69555 2.73814C6.11115 2.87503 5.56144 3.10176 5.06191 3.40281L5.52646 4.17365ZM4.21786 3.70851L4.57126 4.06201L5.20775 3.42571L4.85435 3.07221L4.21786 3.70851ZM3.44014 4.41573L4.14714 3.70851L3.51065 3.07221L2.80365 3.77942L3.44014 4.41573ZM3.79375 4.84014L3.44014 4.48643L2.80365 5.12273L3.15726 5.47644L3.79375 4.84014ZM3.32734 7.18543C3.4449 6.68514 3.6408 6.21492 3.90157 5.78834L3.13369 5.31892C2.82398 5.82555 2.59102 6.38454 2.4512 6.97956L3.32734 7.18543ZM2.07227 7.79021H2.57227V6.89021H2.07227V7.79021ZM2.02227 8.84021V7.84021H1.12227V8.84021H2.02227ZM2.57227 8.89021H2.07227V9.79021H2.57227V8.89021ZM3.90943 10.8005C3.66439 10.4025 3.47595 9.96619 3.35512 9.50273L2.48423 9.72978C2.62794 10.281 2.85201 10.7997 3.14302 11.2724L3.90943 10.8005ZM3.44122 12.1939L3.79478 11.8403L3.15838 11.2039L2.80483 11.5575L3.44122 12.1939ZM4.14833 12.9717L3.44122 12.2646L2.80483 12.901L3.51193 13.6081L4.14833 12.9717ZM4.5726 12.6182L4.21904 12.9717L4.85544 13.6081L5.20899 13.2546L4.5726 12.6182ZM6.8082 12.939C6.40089 12.8349 6.01436 12.6787 5.65608 12.4778L5.21585 13.2628C5.64148 13.5015 6.10102 13.6872 6.58544 13.811L6.8082 12.939ZM7.52201 14.3402V13.8402H6.62201V14.3402H7.52201ZM8.57201 14.3902H7.57201V15.2902H8.57201V14.3902ZM8.62201 13.8402V14.3402H9.52201V13.8402H8.62201ZM8.62201 13.8355V13.8402H9.52201V13.8355H8.62201ZM10.3741 12.461C10.0513 12.645 9.7052 12.7926 9.34136 12.8983L9.59232 13.7626C10.025 13.6369 10.4365 13.4614 10.8199 13.2428L10.3741 12.461ZM11.5708 12.6195L11.5587 12.6074L10.9222 13.2437L10.9343 13.2558L11.5708 12.6195ZM11.9242 12.973L11.5708 12.6195L10.9343 13.2558L11.2877 13.6093L11.9242 12.973ZM12.7019 12.2658L11.9949 12.973L12.6314 13.6093L13.3384 12.9021L12.7019 12.2658ZM12.3483 11.8414L12.7019 12.1951L13.3384 11.5588L12.9848 11.2051L12.3483 11.8414ZM12.3317 11.8248L12.3483 11.8414L12.9848 11.2051L12.9682 11.1885L12.3317 11.8248ZM12.6151 9.613C12.5111 9.97606 12.3653 10.3216 12.1833 10.6441L12.967 11.0865C13.1833 10.7034 13.3566 10.2927 13.4803 9.8609L12.6151 9.613ZM13.5723 8.89021H13.5533V9.79021H13.5723V8.89021ZM14.0723 8.89021L13.5723 8.89021V9.79021H14.0723V8.89021ZM14.1223 7.84021V8.84021H15.0223V7.84021H14.1223ZM13.5723 7.79021H14.0723V6.89021L13.5723 6.89021V7.79021ZM12.2028 5.967C12.3913 6.30748 12.5395 6.67315 12.6412 7.05767L13.5113 6.82766C13.3904 6.37034 13.2141 5.93561 12.9902 5.53111L12.2028 5.967ZM12.7043 4.48643L12.3508 4.83998L12.9872 5.47638L13.3407 5.12283L12.7043 4.48643ZM11.9972 3.70861L12.7043 4.41572L13.3407 3.77932L12.6336 3.07222L11.9972 3.70861ZM11.573 4.06217L11.9265 3.70861L11.2901 3.07222L10.9366 3.42577L11.573 4.06217ZM9.25374 3.65325C9.69403 3.77202 10.1094 3.95193 10.4902 4.18347L10.9578 3.41447C10.5055 3.1395 10.0118 2.92557 9.48813 2.78431L9.25374 3.65325ZM10.7469 8.34021C10.7469 9.80833 9.55125 11.0017 8.07232 11.0017V11.9017C10.0447 11.9017 11.6469 10.3089 11.6469 8.34021H10.7469ZM8.07232 5.67872C9.55125 5.67872 10.7469 6.8721 10.7469 8.34021H11.6469C11.6469 6.37147 10.0447 4.77872 8.07232 4.77872V5.67872ZM5.39772 8.34021C5.39772 6.8721 6.59339 5.67872 8.07232 5.67872V4.77872C6.09991 4.77872 4.49772 6.37147 4.49772 8.34021H5.39772ZM8.07232 11.0017C6.59339 11.0017 5.39772 9.80833 5.39772 8.34021H4.49772C4.49772 10.3089 6.09991 11.9017 8.07232 11.9017V11.0017ZM10.9366 3.42577C10.9399 3.42238 10.9441 3.4195 10.9484 3.41756C10.9524 3.41572 10.9554 3.41516 10.957 3.41501C10.9595 3.41476 10.9593 3.4154 10.9578 3.41447L10.4902 4.18347C10.8221 4.38529 11.2734 4.36169 11.573 4.06217L10.9366 3.42577ZM12.6336 3.07222C12.2626 2.70122 11.6611 2.70122 11.2901 3.07222L11.9265 3.70861C11.946 3.68909 11.9777 3.68909 11.9972 3.70861L12.6336 3.07222ZM13.3407 5.12283C13.7117 4.75183 13.7117 4.15032 13.3407 3.77932L12.7043 4.41572C12.7238 4.43525 12.7238 4.4669 12.7043 4.48643L13.3407 5.12283ZM12.9902 5.53111C12.9822 5.51658 12.9802 5.50192 12.9814 5.49116C12.9825 5.4815 12.9856 5.47796 12.9872 5.47638L12.3508 4.83998C12.0399 5.15088 12.0084 5.61576 12.2028 5.967L12.9902 5.53111ZM13.5723 6.89021C13.5646 6.89021 13.5547 6.88796 13.5426 6.87812C13.5296 6.8675 13.5172 6.85008 13.5113 6.82766L12.6412 7.05767C12.7482 7.46271 13.1116 7.79021 13.5723 7.79021V6.89021ZM15.0223 7.84021C15.0223 7.31554 14.5969 6.89021 14.0723 6.89021V7.79021C14.0999 7.79021 14.1223 7.81259 14.1223 7.84021H15.0223ZM14.0723 9.79021C14.5969 9.79021 15.0223 9.36488 15.0223 8.84021H14.1223C14.1223 8.86782 14.0999 8.89021 14.0723 8.89021V9.79021ZM13.4803 9.8609C13.4874 9.83602 13.5016 9.81661 13.5166 9.8046C13.5307 9.79335 13.543 9.79021 13.5533 9.79021V8.89021C13.0943 8.89021 12.7301 9.21181 12.6151 9.613L13.4803 9.8609ZM13.3384 12.9021C13.7092 12.5311 13.7092 11.9297 13.3384 11.5588L12.7019 12.1951C12.7214 12.2146 12.7214 12.2462 12.7019 12.2658L13.3384 12.9021ZM10.8199 13.2428C10.8425 13.2299 10.8664 13.2259 10.8857 13.228C10.9038 13.2299 10.9149 13.2364 10.9222 13.2437L11.5587 12.6074C11.2311 12.2797 10.7403 12.2522 10.3741 12.461L10.8199 13.2428ZM8.57201 15.2902C9.09668 15.2902 9.52201 14.8649 9.52201 14.3402H8.62201C8.62201 14.3678 8.59963 14.3902 8.57201 14.3902V15.2902ZM5.20899 13.2546C5.20737 13.2562 5.20527 13.2576 5.20334 13.2585C5.20161 13.2593 5.20098 13.2593 5.20183 13.2592C5.2041 13.2589 5.20957 13.2593 5.21585 13.2628L5.65608 12.4778C5.31852 12.2885 4.87125 12.3195 4.57259 12.6182L5.20899 13.2546ZM3.51193 13.6081C3.88293 13.9791 4.48444 13.9791 4.85544 13.6081L4.21904 12.9717C4.19952 12.9912 4.16786 12.9912 4.14833 12.9717L3.51193 13.6081ZM2.80483 11.5575C2.43383 11.9285 2.43383 12.53 2.80483 12.901L3.44122 12.2646C3.4217 12.2451 3.4217 12.2134 3.44122 12.1939L2.80483 11.5575ZM3.14302 11.2724C3.13906 11.2659 3.13648 11.2572 3.13754 11.2462C3.13869 11.2342 3.14466 11.2177 3.15838 11.2039L3.79478 11.8403C4.08214 11.553 4.10558 11.1192 3.90943 10.8005L3.14302 11.2724ZM1.12227 8.84021C1.12227 9.36488 1.5476 9.79021 2.07227 9.79021V8.89021C2.04465 8.89021 2.02227 8.86782 2.02227 8.84021H1.12227ZM3.15726 5.47644C3.10596 5.42513 3.10949 5.3585 3.13369 5.31892L3.90157 5.78834C4.0804 5.4958 4.05466 5.10112 3.79375 4.84014L3.15726 5.47644ZM11.2877 13.6093C11.6587 13.9804 12.2603 13.9804 12.6314 13.6093L11.9949 12.973C11.9754 12.9925 11.9437 12.9925 11.9242 12.973L11.2877 13.6093ZM2.80365 3.77942C2.43279 4.1504 2.43279 4.75175 2.80365 5.12273L3.44014 4.48643C3.42062 4.4669 3.42062 4.43525 3.44014 4.41573L2.80365 3.77942ZM6.62201 2.84021C6.62201 2.77874 6.66383 2.74557 6.69555 2.73814L6.90081 3.61442C7.24759 3.53319 7.52201 3.22527 7.52201 2.84021H6.62201ZM4.85435 3.07221C4.48333 2.70108 3.88167 2.70108 3.51065 3.07221L4.14714 3.70851C4.16667 3.68898 4.19834 3.68898 4.21786 3.70851L4.85435 3.07221ZM2.07227 6.89021C1.5476 6.89021 1.12227 7.31554 1.12227 7.84021H2.02227C2.02227 7.81259 2.04465 7.79021 2.07227 7.79021V6.89021ZM6.62201 14.3402C6.62201 14.8649 7.04734 15.2902 7.57201 15.2902V14.3902C7.5444 14.3902 7.52201 14.3678 7.52201 14.3402H6.62201ZM7.57201 1.39021C7.04734 1.39021 6.62201 1.81554 6.62201 2.34021H7.52201C7.52201 2.3126 7.5444 2.29021 7.57201 2.29021V1.39021ZM2.57227 9.79021C2.51799 9.79021 2.49057 9.75413 2.48423 9.72978L3.35512 9.50273C3.26557 9.15924 2.95636 8.89021 2.57227 8.89021V9.79021ZM9.52201 13.8355C9.52201 13.8253 9.52514 13.813 9.53632 13.7989C9.54825 13.7839 9.56755 13.7698 9.59232 13.7626L9.34136 12.8983C8.94175 13.0143 8.62201 13.3779 8.62201 13.8355H9.52201ZM5.06191 3.40281C5.09764 3.38128 5.15938 3.37733 5.20775 3.42571L4.57126 4.06201C4.83403 4.32487 5.23099 4.35172 5.52646 4.17365L5.06191 3.40281ZM12.9682 11.1885C12.9609 11.1812 12.9544 11.1701 12.9524 11.1521C12.9503 11.1329 12.9542 11.1091 12.967 11.0865L12.1833 10.6441C11.9768 11.0098 12.0053 11.4983 12.3317 11.8248L12.9682 11.1885ZM2.4512 6.97956C2.46095 6.93806 2.5024 6.89021 2.57227 6.89021V7.79021C2.94708 7.79021 3.24784 7.52379 3.32734 7.18543L2.4512 6.97956ZM6.58544 13.811C6.60015 13.8147 6.61097 13.8227 6.61702 13.83C6.62231 13.8365 6.62201 13.8396 6.62201 13.8402H7.52201C7.52201 13.393 7.20328 13.0399 6.8082 12.939L6.58544 13.811ZM9.48813 2.78431C9.49451 2.78603 9.50171 2.79008 9.50813 2.7981C9.51513 2.80686 9.52201 2.82184 9.52201 2.84021H8.62201C8.62201 3.23813 8.89997 3.55782 9.25374 3.65325L9.48813 2.78431ZM9.52201 2.34021C9.52201 1.81554 9.09668 1.39021 8.57201 1.39021V2.29021C8.59963 2.29021 8.62201 2.3126 8.62201 2.34021H9.52201Z" fill="currentColor"/>
<path id="Vector" d="M6.48242 8.49917L7.43596 9.45271L9.66089 7.22778" stroke="currentColor" stroke-width="0.666667" stroke-linecap="round" stroke-linejoin="round"/>
</g>
</svg>
