<svg xmlns="http://www.w3.org/2000/svg" fill="none" viewBox="0 0 24 24"><path fill="currentColor" fill-rule="evenodd" d="M7.437 4.755a1 1 0 0 1 .995-1.005h12.073a1 1 0 0 1 .995 1.005v11.06a1 1 0 0 1-.995 1.005h-3.942v2.425a1 1 0 0 1-.995 1.005H3.495a1 1 0 0 1-.995-1.005v-3.694h.995v3.694h12.073V8.185H3.495v3.713H2.5V8.184a1 1 0 0 1 .995-1.004h3.942V4.755m10.299 11.06h-1.173v-7.63a1 1 0 0 0-.995-1.005H8.432V4.755h12.073v11.06zM9.273 11.05a.494.494 0 0 0-.696.097.506.506 0 0 0 .095.703l1.782 1.368H2.5v1.005h7.957l-1.786 1.374a.506.506 0 0 0-.094.704c.166.22.478.263.697.095l2.958-2.276a.504.504 0 0 0 0-.8z" clip-rule="evenodd"/></svg>