<svg xmlns="http://www.w3.org/2000/svg" fill="none" viewBox="0 0 22 22"><path stroke="currentColor" stroke-linecap="round" stroke-linejoin="round" d="M19.333 12.88 21 14.534m0 0h-6.667m6.667 0-1.667 1.653M6 6h3m3 0h3m-4.5 1.5v8M4 7v9.5h4.5m2-12L12 6l-1.5 1.5L9 6l1.5-1.5Zm-8 .5h3a.5.5 0 0 1 .5.5v1a.5.5 0 0 1-.5.5h-3a.5.5 0 0 1-.5-.5v-1a.5.5 0 0 1 .5-.5Zm13 0h3a.5.5 0 0 1 .5.5v1a.5.5 0 0 1-.5.5h-3a.5.5 0 0 1-.5-.5v-1a.5.5 0 0 1 .5-.5ZM9 15.5h3a.5.5 0 0 1 .5.5v1a.5.5 0 0 1-.5.5H9a.5.5 0 0 1-.5-.5v-1a.5.5 0 0 1 .5-.5Z"/></svg>