<svg viewBox="0 0 16 13" xmlns="http://www.w3.org/2000/svg"><path d="m9.548 1.606a1.587 1.587 0 0 0 -2.645.006l-.23.348a1.863 1.863 0 0 0 -3.105-.006l-2.214 3.322a2 2 0 0 0 0 2.218l2.234 3.352a1.856 1.856 0 0 0 3.085.007l.213.316a1.602 1.602 0 0 0 2.662-.006 1.594 1.594 0 0 0 2.653 0l2.445-3.67a2 2 0 0 0 0-2.217l-2.446-3.67a1.594 1.594 0 0 0 -2.653 0zm-4.422 9.955-3.45-5.176 3.45-5.177 3.449 5.177-3.45 5.176zm3.095 0-1.017-1.504 2.432-3.672-2.432-3.628 1.017-1.505 3.45 5.177zm1.857-1.194 2.653-3.982-2.653-3.982.796-1.195 3.45 5.177-3.45 5.176zm-5.04-5.68c-.204 0-.407.07-.61.21l.035.052a1.938 1.938 0 0 0 -.304 2.927c.292.309.585.463.878.463.469 0 .937-.395 1.406-1.186a1.634 1.634 0 0 0 -1.406-2.466zm.663.926c.39.487.39 1.18 0 1.667a.854.854 0 0 1 -1.334 0 1.334 1.334 0 0 1 0-1.667.854.854 0 0 1 1.334 0z" fill="#25a6f7"/></svg>