<svg xmlns="http://www.w3.org/2000/svg" fill="none" viewBox="0 0 16 16">
  <path fill="currentColor" fill-rule="evenodd" d="m6.81368 7.5971 1.6762-2.90573-1.6762-2.90572H3.46121L1.78499 4.69137 3.46121 7.5971h3.35247Zm2.35941-3.29269c-.00112-.00196-.00225-.00391-.00337-.00587L7.49344 1.39282C7.35321 1.14975 7.09407 1 6.81368 1H3.46121c-.28045 0-.5396.14975-.67982.39282L1.10517 4.29854c-.140226.24308-.140226.54257 0 .78565l1.67622 2.90572.00591.01011-.00591.01003-1.67622 2.90575c-.140226.2431-.140226.5425 0 .7856l1.67622 2.9058c.14022.2431.39937.3928.67982.3928h3.35247c.28039 0 .53953-.1497.67976-.3928l1.67628-2.9058c.00273-.0048.00545-.0096.0081-.0144h3.36098c.2804 0 .5396-.1497.6798-.3928l1.6762-2.9057c.1403-.24308.1403-.54254 0-.78562l-1.6762-2.90576c-.1402-.24308-.3994-.39282-.6798-.39282H9.18639c-.00449 0-.00889.00004-.0133.00011ZM6.81368 14.2143l1.6762-2.9057-1.6762-2.90574H3.46121L1.78499 11.3086l1.67622 2.9057h3.35247ZM14.215 7.99569l-1.6762 2.90571H9.18639L7.51011 7.99569l1.67628-2.90574h3.35241l1.6762 2.90574Z" clip-rule="evenodd"/>
</svg>