<svg width="16" height="16" viewBox="0 0 16 16" fill="none" xmlns="http://www.w3.org/2000/svg">
<path fill-rule="evenodd" clip-rule="evenodd" d="M12.5 8.5V10.0333H14.5C14.7667 10.0333 15 10.2667 15 10.5333L15 14.5C15 14.7667 14.7667 15 14.5 15L9.5 15C9.23333 15 9 14.7667 9 14.5L9 10.5333C9 10.2667 9.23333 10.0333 9.5 10.0333H11.5V8.5L4.5 8.5V10.0333L6.5 10.0333C6.76667 10.0333 7 10.2667 7 10.5333L7 14.5C7 14.7667 6.76667 15 6.5 15L1.5 15C1.23333 15 1 14.7667 1 14.5L1 10.5333C1 10.2667 1.23333 10.0333 1.5 10.0333H3.5L3.5 8.5H2.5C2.23333 8.5 2 8.26667 2 8C2 7.73333 2.23333 7.5 2.5 7.5L7.5 7.5L7.5 5.96667L5.5 5.96667C5.23333 5.96667 5 5.73333 5 5.46667L5 1.5C5 1.23333 5.23333 1 5.5 1L10.5 1C10.7667 1 11 1.23333 11 1.5L11 5.46667C11 5.73333 10.7667 5.96667 10.5 5.96667L8.5 5.96667V6L8.5 7.5L13.5 7.5C13.7667 7.5 14 7.73333 14 8C14 8.26667 13.7667 8.5 13.5 8.5H12.5ZM10 2L6 2L6 4.96667H10L10 2ZM6 14L2 14L2 11.0333L6 11.0333L6 14ZM10 14L14 14L14 11.0333L10 11.0333L10 14Z" fill="#4F5162"/>
</svg>
