<svg xmlns="http://www.w3.org/2000/svg" viewBox="0 0 18 19"><circle cx="9" cy="9.5" r="9" fill="#F2994A"/><path fill="#fff" d="M8.9 5.445a3.954 3.954 0 013.955 3.956 3.954 3.954 0 01-3.785 3.951l-1.405-2.424.036.062.086.146s.242-.346.826-.5c1.012-.27 1.109.09 2.12-.18.632-.168 1.19-.624 1.19-.624l-1.576-2.518s-.558.456-1.19.625c-1.013.268-1.11-.09-2.12.178l-.075.022a1.798 1.798 0 00-.636.433l-.134.134s-.078.064-.104.08c-.113.064-.127.356-.037.51l2.44 4.6c.059.1.112.19.231.224.004.02.055-.02.055 0-.055.019.082.002.123.002A4.72 4.72 0 0013.62 9.4 4.72 4.72 0 008.9 4.68 4.72 4.72 0 004.179 9.4c0 2.22 1.673 4.119 3.737 4.623l-.562-.983-.023-.045-.005-.008c-1.33-.637-2.382-2.012-2.382-3.586A3.954 3.954 0 018.9 5.445z"/></svg>
