<svg viewBox="0 0 16 16" fill="none" xmlns="http://www.w3.org/2000/svg">
<path d="M9.23221 8.87797L6.33687 12.1866C6.21173 12.3296 6.05747 12.4442 5.88442 12.5227C5.71138 12.6012 5.52356 12.6418 5.33354 12.6418C5.14352 12.6418 4.9557 12.6012 4.78266 12.5227C4.60961 12.4442 4.45535 12.3296 4.33021 12.1866L1.43487 8.87797C1.2222 8.63492 1.10498 8.32293 1.10498 7.99997C1.10498 7.67701 1.2222 7.36502 1.43487 7.12197L4.33021 3.8133C4.45535 3.67031 4.60961 3.55573 4.78266 3.47722C4.9557 3.39871 5.14352 3.35809 5.33354 3.35809C5.52356 3.35809 5.71138 3.39871 5.88442 3.47722C6.05747 3.55573 6.21173 3.67031 6.33687 3.8133L9.23221 7.12197C9.44488 7.36502 9.5621 7.67701 9.5621 7.99997C9.5621 8.32293 9.44488 8.63492 9.23221 8.87797Z" stroke="currentColor" stroke-width="1.11" stroke-linecap="round" stroke-linejoin="round"/>
<path d="M8.6665 12.6666L11.9225 8.86798C12.1298 8.62628 12.2437 8.31839 12.2437 7.99998C12.2437 7.68157 12.1298 7.37368 11.9225 7.13198L8.6665 3.33331" stroke="currentColor" stroke-width="1.11" stroke-linecap="round" stroke-linejoin="round"/>
<path d="M11.3335 12.6666L14.5895 8.86798C14.7968 8.62628 14.9107 8.31839 14.9107 7.99998C14.9107 7.68157 14.7968 7.37368 14.5895 7.13198L11.3335 3.33331" stroke="currentColor" stroke-width="1.11" stroke-linecap="round" stroke-linejoin="round"/>
</svg>
