<svg xmlns="http://www.w3.org/2000/svg" fill="none" viewBox="0 0 24 24">
    <path d="M18.3953 4.49891C18.3953 4.088 18.0595 3.75489 17.6453 3.75489H5.77422C5.36 3.75489 5.02422 4.088 5.02422 4.49891V16.2674C5.02422 16.5388 5.17312 16.7886 5.41278 16.9194L11.4065 20.1896C11.5015 20.2414 11.605 20.2714 11.7098 20.2795C11.8146 20.2714 11.918 20.2414 12.013 20.1896L17.5002 17.2739L17.5025 17.2727C17.55 17.247 18.3359 16.8352 18.6924 17.474C19.0478 18.1106 18.3085 18.5398 18.2584 18.568L18.2558 18.5694L12.8667 21.4855C12.508 21.6846 12.1078 21.7792 11.7098 21.769C11.3117 21.7792 10.9116 21.6846 10.5528 21.4855L4.67528 18.2226C3.96438 17.828 3.52405 17.0829 3.52405 16.2748V10.55L3.52422 10.5342V4.49891C3.52422 3.26617 4.53157 2.26685 5.77422 2.26685H17.6453C18.8879 2.26685 19.8953 3.26617 19.8953 4.49891V7.95216C19.8953 7.95216 19.8953 8.63953 19.1453 8.64743C18.3953 8.65533 18.3953 7.95216 18.3953 7.95216V4.49891Z" fill="currentColor"/>
    <ellipse cx="12.0974" cy="10.7362" rx="4.09838" ry="4.09838" stroke="currentColor" stroke-width="1.3"/>
    <path d="M16.0627 12.235L20.4761 14.0965" stroke="currentColor" stroke-width="1.3" stroke-linecap="round"/>
</svg>
