<svg width="16" height="16" viewBox="0 0 16 16" fill="none" xmlns="http://www.w3.org/2000/svg">
<path fill-rule="evenodd" clip-rule="evenodd" d="M8.16308 1.12607C8.00826 1.03625 7.81724 1.03604 7.66222 1.12551L2.05654 4.36109C1.90181 4.45039 1.80649 4.61547 1.80649 4.79413L1.80651 11.0275C1.80651 11.2055 1.90116 11.3701 2.05503 11.4597L7.92415 14.8749C8.07924 14.9652 8.27081 14.9654 8.42611 14.8755L14.057 11.616C14.2114 11.5266 14.3065 11.3617 14.3065 11.1833V7.47798C14.3065 7.20184 14.0826 6.97798 13.8065 6.97798C13.5303 6.97798 13.3065 7.20184 13.3065 7.47798V10.895L8.68166 13.5721L8.71674 8.50198L14.057 5.41089C14.2113 5.32155 14.3064 5.15675 14.3065 4.97841C14.3066 4.80006 14.2117 4.63517 14.0574 4.54567L8.16308 1.12607ZM7.71673 8.49983L7.6816 13.5768L2.8065 10.74L2.80649 5.66078L7.71673 8.49983ZM8.21859 7.63488L3.30604 4.7945L7.91153 2.13624L12.8093 4.97767L8.21859 7.63488ZM4.35521 7.56698C4.11606 7.42891 3.81027 7.51084 3.6722 7.74999C3.53412 7.98914 3.61606 8.29493 3.85521 8.433L6.02027 9.683C6.25942 9.82108 6.56521 9.73914 6.70328 9.49999C6.84136 9.26085 6.75942 8.95505 6.52027 8.81698L4.35521 7.56698Z" fill="#4F5162"/>
</svg>