<svg viewBox="0 0 24 24" fill="none" xmlns="http://www.w3.org/2000/svg">
<path d="M8.25001 20.3334C9.25893 20.3333 10.2396 20.0002 11.0399 19.3859C11.8403 18.7716 12.4156 17.9104 12.6766 16.9358C12.9376 15.9613 12.8698 14.9278 12.4836 13.9957C12.0974 13.0636 11.4144 12.285 10.5407 11.7806C9.66686 11.2762 8.65106 11.0743 7.65078 11.206C6.6505 11.3377 5.72165 11.7959 5.00826 12.5093C4.29488 13.2227 3.83683 14.1516 3.70516 15.1519C3.57349 16.1522 3.77555 17.168 4.28001 18.0418L3.89584 20.1043L5.95834 19.7209C6.65485 20.1236 7.44548 20.3349 8.25001 20.3334Z" stroke="currentColor" stroke-width="1.5" stroke-linecap="round" stroke-linejoin="round"/>
<path d="M14.735 16.9151C15.5329 16.7867 16.3005 16.5133 17 16.1084L20 16.6667L19.4417 13.6667C19.9319 12.8163 20.2283 11.8681 20.3096 10.8899C20.391 9.91163 20.2553 8.9275 19.9123 8.00777C19.5693 7.08804 19.0274 6.2554 18.3254 5.56933C17.6233 4.88326 16.7784 4.36069 15.851 4.03894C14.9237 3.7172 13.9367 3.60422 12.9606 3.70807C11.9845 3.81193 11.0433 4.13005 10.2044 4.63973C9.36548 5.1494 8.64946 5.83805 8.10749 6.65647C7.56551 7.4749 7.21096 8.40292 7.06915 9.37423" stroke="currentColor" stroke-width="1.5" stroke-linecap="round" stroke-linejoin="round"/>
</svg>
