<svg viewBox="0 0 18 11" fill="currentColor" xmlns="http://www.w3.org/2000/svg"><g fill-rule="evenodd" clip-rule="evenodd"><path d="M9.871 1.01a1 1 0 0 1 1-1h5.25a1 1 0 0 1 1 1v2.125a1 1 0 0 1-1 1h-5.25a1 1 0 0 1-1-1V1.01Zm6.25 0h-5.25v2.125h5.25V1.01ZM9.871 6.879a1 1 0 0 1 1-1h5.25a1 1 0 0 1 1 1v2.125a1 1 0 0 1-1 1h-5.25a1 1 0 0 1-1-1V6.879Zm6.25 0h-5.25v2.125h5.25V6.879ZM.889 1a1 1 0 0 1 1-1h5.25a1 1 0 0 1 1 1v2.125a1 1 0 0 1-1 1h-5.25a1 1 0 0 1-1-1V1Zm6.25 0h-5.25v2.125h5.25V1Z"/><path d="M10.25 2.844h-2.5v-1h2.5v1ZM5.125 3.906v1.875c0 .416.07.705.172.91.099.198.241.342.435.453.42.24 1.079.325 2.018.325h2.5v1h-2.5c-.936 0-1.84-.072-2.514-.457a2.045 2.045 0 0 1-.834-.874c-.19-.382-.277-.835-.277-1.357V3.906h1Z"/></g></svg>