
<svg viewBox="0 0 32 32" xmlns="http://www.w3.org/2000/svg"><rect width="32" height="32" rx="16" fill="#AE82FC"/><path d="m14.884 22.126.202.116c.206.115.438.174.672.17.23.001.458-.057.66-.17l.2-.116c3.204-1.83 5.187-5.265 5.19-8.991v-.095a1.366 1.366 0 0 0-.671-1.192l-.161-.092-5.246 6.606a.324.324 0 0 1-.449.058l-2.998-2.248a.324.324 0 0 1-.065-.454l.167-.223a.324.324 0 0 1 .454-.064l2.277 1.708c.14.105.34.08.448-.058l4.598-5.79-3.731-2.127a1.33 1.33 0 0 0-1.345 0l-4.706 2.684c-.42.245-.676.7-.672 1.192v.095c0 3.723 1.978 7.158 5.176 8.991Z" fill="#F3F3FA"/></svg>