<svg viewBox="0 0 16 16" xmlns="http://www.w3.org/2000/svg"><path opacity=".01" d="M0 0h16v16H0z"/><path fill-rule="evenodd" clip-rule="evenodd" d="M12.5 8.5v1.533h2c.267 0 .5.234.5.5V14.5c0 .267-.233.5-.5.5h-5a.513.513 0 0 1-.5-.5v-3.967c0-.266.233-.5.5-.5h2V8.5h-7v1.533h2c.267 0 .5.234.5.5V14.5c0 .267-.233.5-.5.5h-5a.513.513 0 0 1-.5-.5v-3.967c0-.266.233-.5.5-.5h2V8.5h-1A.513.513 0 0 1 2 8c0-.267.233-.5.5-.5h5V5.967h-2a.513.513 0 0 1-.5-.5V1.5c0-.267.233-.5.5-.5h5c.267 0 .5.233.5.5v3.967c0 .266-.233.5-.5.5h-2V7.5h5c.267 0 .5.233.5.5s-.233.5-.5.5h-1ZM10 2H6v2.967h4V2ZM6 14H2v-2.967h4V14Zm4 0h4v-2.967h-4V14Z" fill="currentColor"/></svg>