<svg viewBox="0 0 23 17" xmlns="http://www.w3.org/2000/svg"><path d="m13.7115385 0c3.1756373 0 5.75 2.57436269 5.75 5.75 0 .20802318-.0110467.41346628-.0325854.61577467 2.0589069.56748239 3.5710469 2.4531104 3.5710469 4.69191763v.8846154c0 2.6870777-2.1783069 4.8653846-4.8653846 4.8653846h-13.26923078c-2.68707773 0-4.86538462-2.1783069-4.86538462-4.8653846v-.8846154c0-1.89094633 1.07874058-3.52993931 2.65439628-4.33515345l-.00055013-.53023116c0-2.44279793 1.98027899-4.42307692 4.42307693-4.42307692h.88461538c.48803482 0 .9576086.07904109 1.39661835.22502027 1.05309649-1.22098521 2.61293609-1.99425104 4.35338169-1.99425104zm0 1.76923077c-1.1009054 0-2.1256714.4474099-2.8688188 1.22142777l-.1448137.15912256-.77378308.89714254-1.12421575-.37382334c-.20025669-.0665892-.40862307-.1090289-.62260597-.12608693l-.21576274-.00855183h-.88461538c-1.41333309 0-2.56862309 1.10481381-2.64934194 2.49626666l-.00450517.15574389.00167478 1.61422234-.9652539.49327788c-.97539254.49845907-1.61969841 1.47362391-1.68481816 2.57504149l-.00544792.1846785v.8846154c0 1.6529599 1.29532249 3.0033811 2.92627655 3.0915725l.1698773.0045813h13.26923078c1.6529599 0 3.0033811-1.2953225 3.0915725-2.9262765l.0045813-.1698773v-.8846154c0-1.34366667-.8639741-2.51761861-2.1076017-2.93604345l-.1643255-.05024435-1.4482114-.39916057.1590342-1.4937716c.0150491-.14135318.0226429-.28427924.0226429-.42847233 0-2.19851814-1.7822511-3.98076923-3.9807692-3.98076923zm1.7990625 5.11259659c.3251693.31248385.3596748.813678.0968009 1.16600311l-.0719178.08478448-4.6710111 4.86063325c-.3308525.3442836-.86860543.3601567-1.21878562.0543089l-.07730157-.0762883-2.26509916-2.522968c-.3263853-.3635424-.29626349-.92283934.06727895-1.24922464.33557763-.30127874.837952-.2987881 1.16996558-.01068624l.0792591.07796519 1.62847892 1.81433719 4.0115442-4.17398182c.3385242-.35226674.8985208-.36340729 1.2507876-.02488312z" fill="#4ba132"/></svg>