<svg viewBox="0 0 25 13" fill="none" xmlns="http://www.w3.org/2000/svg"><g filter="url(#a)" fill="#0278D5"><path d="M21.843 12.155h-5.284a.218.218 0 1 1 0-.436h5.011a4.002 4.002 0 0 0 .367-1.677 4.06 4.06 0 0 0-4.056-4.056c-.175 0-.359.015-.58.047l-.206.03-.039-.206a4.054 4.054 0 0 0-7.967 0l-.038.206-.207-.03a4.036 4.036 0 0 0-.58-.046 4.06 4.06 0 0 0-4.055 4.056c0 .58.123 1.144.366 1.676h5.153a.218.218 0 0 1 0 .436H4.302l-.06-.121a4.446 4.446 0 0 1-.47-1.992 4.497 4.497 0 0 1 4.492-4.491c.139 0 .282.008.439.025a4.49 4.49 0 0 1 8.74 0c.157-.017.3-.025.438-.025a4.497 4.497 0 0 1 4.492 4.492c0 .693-.158 1.363-.47 1.99l-.06.122Z"/><path fill-rule="evenodd" clip-rule="evenodd" d="M8.506 5.297a4.752 4.752 0 0 1 9.134 0 4.758 4.758 0 0 1 4.995 4.746c0 .733-.168 1.443-.498 2.107l-.133.266H16.56a.48.48 0 1 1 0-.959h4.84c.183-.453.276-.927.276-1.415a3.8 3.8 0 0 0-3.794-3.794c-.16 0-.331.013-.543.043l-.454.066-.085-.452a3.793 3.793 0 0 0-7.453 0l-.084.452-.455-.065a3.778 3.778 0 0 0-.543-.044 3.8 3.8 0 0 0-3.794 3.794c0 .488.093.963.277 1.415h4.98a.48.48 0 0 1 0 .96H4.14l-.132-.267a4.708 4.708 0 0 1-.497-2.108 4.758 4.758 0 0 1 4.995-4.745Z"/><path d="M13.291 18.552V9.444a.218.218 0 0 0-.436 0v9.108a1.603 1.603 0 0 0-1.384 1.585c0 .883.719 1.602 1.602 1.602.883 0 1.602-.719 1.602-1.602 0-.809-.604-1.478-1.384-1.585Zm-.218 2.75a1.167 1.167 0 0 1 0-2.33 1.167 1.167 0 0 1 0 2.33Z"/><path fill-rule="evenodd" clip-rule="evenodd" d="M12.594 9.444a.48.48 0 0 1 .959 0v8.894a1.865 1.865 0 0 1 1.383 1.799A1.865 1.865 0 0 1 13.073 22a1.865 1.865 0 0 1-1.863-1.863c0-.862.589-1.587 1.384-1.799V9.444Zm.48 9.789a.906.906 0 0 0 0 1.808.906.906 0 0 0 0-1.809Z"/><path d="M20.86 14.216c-.809 0-1.478.604-1.584 1.384h-3.913V9.444a.218.218 0 1 0-.436 0v6.592h4.349c.107.78.776 1.384 1.585 1.384.883 0 1.601-.719 1.601-1.602 0-.883-.718-1.602-1.601-1.602Zm0 2.768a1.167 1.167 0 1 1 1.166-1.166c0 .643-.523 1.166-1.165 1.166Z"/><path fill-rule="evenodd" clip-rule="evenodd" d="M14.666 9.444a.48.48 0 1 1 .959 0v5.895h3.437a1.864 1.864 0 0 1 1.799-1.384c1.027 0 1.863.835 1.863 1.863a1.865 1.865 0 0 1-1.863 1.863 1.864 1.864 0 0 1-1.8-1.384h-4.395V9.444Zm6.195 5.47a.906.906 0 0 0 0 1.809.906.906 0 0 0 0-1.81Z"/><path d="M11.226 9.444a.218.218 0 0 0-.436 0V15.6H6.862a1.603 1.603 0 0 0-1.585-1.384c-.883 0-1.602.719-1.602 1.602 0 .883.72 1.602 1.602 1.602.81 0 1.478-.604 1.585-1.384h4.364V9.444Zm-5.949 7.54a1.167 1.167 0 1 1 1.166-1.166c0 .643-.523 1.166-1.166 1.166Z"/><path fill-rule="evenodd" clip-rule="evenodd" d="M10.528 9.444a.48.48 0 1 1 .96 0v6.853H7.075a1.864 1.864 0 0 1-1.799 1.384 1.865 1.865 0 0 1-1.863-1.863c0-1.028.836-1.863 1.863-1.863.863 0 1.587.588 1.799 1.384h3.452V9.444Zm-5.25 5.47a.906.906 0 0 0 0 1.809.906.906 0 0 0 0-1.81Z"/><path d="M6.093 8.938a.218.218 0 0 1-.195-.314A2.363 2.363 0 0 1 8.371 7.32a.218.218 0 0 1-.061.432 1.93 1.93 0 0 0-2.02 1.063.219.219 0 0 1-.197.122Z"/><path fill-rule="evenodd" clip-rule="evenodd" d="M6.132 8.739Zm-.469-.23a2.625 2.625 0 0 1 2.745-1.447l-.037.259.037-.259a.48.48 0 0 1 .407.543.48.48 0 0 1-.54.407h-.003a1.668 1.668 0 0 0-1.748.92.48.48 0 0 1-.642.218"/></g><defs><filter id="a" x="-2" y="-1.5" width="28" height="28" filterUnits="userSpaceOnUse" color-interpolation-filters="sRGB"><feFlood flood-opacity="0" result="BackgroundImageFix"/><feColorMatrix in="SourceAlpha" values="0 0 0 0 0 0 0 0 0 0 0 0 0 0 0 0 0 0 127 0" result="hardAlpha"/><feOffset dy=".5"/><feGaussianBlur stdDeviation="1"/><feColorMatrix values="0 0 0 0 0.376471 0 0 0 0 0.380392 0 0 0 0 0.439216 0 0 0 0.16 0"/><feBlend in2="BackgroundImageFix" result="effect1_dropShadow_13238_235064"/><feColorMatrix in="SourceAlpha" values="0 0 0 0 0 0 0 0 0 0 0 0 0 0 0 0 0 0 127 0" result="hardAlpha"/><feOffset/><feGaussianBlur stdDeviation=".5"/><feColorMatrix values="0 0 0 0 0.156863 0 0 0 0 0.160784 0 0 0 0 0.239216 0 0 0 0.08 0"/><feBlend in2="effect1_dropShadow_13238_235064" result="effect2_dropShadow_13238_235064"/><feBlend in="SourceGraphic" in2="effect2_dropShadow_13238_235064" result="shape"/></filter></defs></svg>