<svg xmlns="http://www.w3.org/2000/svg" width="24" height="25" fill="none" viewBox="0 0 24 25">
  <ellipse cx="12" cy="12.93" fill="#fff" rx="11" ry="11.5"/>
  <path fill="#747474" d="M13.354 2.024c.706.322 1.359.644 1.997 1.015a.785.785 0 0 1-.2.17c-1.604-1.107-3.353-.845-5.102-.584-.073.011-.15.001-.246-.098.205-.075.409-.154.615-.225.208-.073.418-.138.648-.242.76-.036 1.498-.036 2.288-.036Z"/>
  <path fill="#202020" d="M5.223 13.413a41.573 41.573 0 0 1-.428-1.608c.09-.823.18-1.553.309-2.288.224-.238.422-.286.681-.1.19.136.413.22.63.377.07 1.652.837 2.86 1.967 3.87.455.407.948.678 1.569.743.404.042.826.19 1.18.4.73.428 1.479.527 2.28.355.543-.117 1.085-.228 1.63-.343a13.27 13.27 0 0 1-.16 1.227c-.92.981-2.04 1.59-3.174 2.186-.203.107-.342.345-.511.523l-2.179-1.809a372.777 372.777 0 0 1-2.595-4.142v1.998l-.115.068-1.084-1.457Z"/>
  <path fill="#707070" d="M11.208 18.796c.157-.219.296-.457.5-.564 1.133-.595 2.253-1.205 3.208-2.16.271.112.47.198.694.294-.038 1.509-.83 2.933-.432 4.655.15-.37.25-.582.326-.804.224-.656.439-1.316.695-1.976.321.327.604.655.887.983-.257 1.37-1.28 2.079-2.264 2.805-.116.086-.41-.046-.604-.125-.357-.146-.7-.328-1.09-.395a130.22 130.22 0 0 1 1.758 1.759 50.004 50.004 0 0 1-2.162-.548l.035-.18c-.257.143-.51.294-.774.422-.057.028-.15-.024-.208-.116.069-.404.119-.732.174-1.096l-.922-.223.597 1.195-.618-.096.355.641c-.514-.257-1.098.201-1.307-.46l-1.275-.422c1.038-.95 1.36-2.043 1.222-3.423.796.452 1.534.864 2.264 1.29.656.381 1.3.787 1.96 1.16.167.094.378.104.538.145v-1.175c-.429-.238-.964-.641-1.56-.835-.578-.188-1.22-.159-1.869-.229-.03-.123-.073-.302-.128-.522Zm1.034 2.495c-.114-.57-.466-.827-1.113-.901.332.5.414 1.103 1.113.901Z"/>
  <path fill="#ADADAD" d="M15.17 3.245c.043-.075.105-.115.2-.17 1.246.945 2.455 1.913 3.265 3.296.198.34.329.723.487 1.166-.098.465-.372.869.187 1.191l-1.146 1.54c.06-.942.27-1.808-.094-2.76-.708.81-1.228 1.628-1.325 2.713-.593.104-1.132.133-1.573-.319.457-.815.926-1.623 1.37-2.447.564-1.05.189-1.918-.484-2.758-.341-.427-.582-.942-.887-1.452Z"/>
  <path fill="#707070" d="M6.406 9.744c-.208-.107-.432-.19-.62-.327-.26-.186-.457-.138-.713.065a9.174 9.174 0 0 1-.42-1.132c.086-.928.523-1.637 1.19-2.248.409-.376.711-.876 1.096-1.284.318-.336.689-.609 1.127-.197 1.394-1.145 1.394-1.145 2.015-.208-.601.902-.596.957.152 1.613.125.11.265.203.39.314a78.769 78.769 0 0 1 1.76 1.616c-.315-.068-.585-.123-.869-.213-.447-.397-.88-.758-1.328-1.154-1.123-.923-2.419-1.49-3.144-1.395.111.199.22.392.279.594-.14.156-.288.294-.308.45-.065.509-.083 1.024-.154 1.534-.119.147-.25.287-.276.447-.08.504-.121 1.016-.177 1.525Z"/>
  <path fill="#AAA" d="M5.191 13.43c.393.469.755.955 1.116 1.44l.115-.068v-1.998c.859 1.384 1.7 2.74 2.56 4.131-.264.267-.545.5-.876.776.014.006-.06-.008-.109-.053-1.134-1.038-2.252-2.093-3.08-3.43-.072-.117-.09-.272-.138-.477-.006-.068.016-.108.016-.108l.396-.212Z"/>
  <path fill="#AEAEAE" d="M12.43 7.97c-.602-.544-1.204-1.089-1.808-1.63-.124-.111-.264-.204-.39-.314-.747-.656-.752-.71-.132-1.576.8 1.658 2.29 2.556 3.581 3.67.194.167.257.498.328.792-.15.032-.248.026-.385.009a54.343 54.343 0 0 1-1.194-.951Z"/>
  <path fill="#242424" d="M13.662 8.932c.098.006.197.012.333.025.392.31.746.613 1.138.93.479.467 1.018.438 1.65.365.52.165 1.038.267.668.97-.55.32-1.06.637-1.619.984-.26-1.139-.944-1.952-1.714-2.709-.17-.168-.305-.375-.456-.565Z"/>
  <path fill="#AEAEAE" d="M4.624 8.375c.146.342.264.709.412 1.111-.06.766-.152 1.496-.256 2.278-.603-.371-.681-1.027-.614-1.666.06-.575.28-1.132.458-1.723Z"/>
  <path fill="#393939" d="M4.784 13.603c.01.04-.011.08-.002.1-.045.025-.14.045-.145.029-.31-.823-.614-1.65-.911-2.478-.005-.014.078-.063.114-.09.31.796.621 1.598.944 2.439Z"/>
  <path fill="#F2F2F2" d="M11.652 22.736a33.15 33.15 0 0 1-.623-1.209l.922.224c-.055.363-.105.691-.178 1.057-.046.006-.07-.026-.12-.072Z"/>
  <path fill="#212121" d="M17.116 19.2a14.912 14.912 0 0 1-.919-1.01c.048-1.2.136-2.351.232-3.602l2.375.51.063-.099-2.354-2.146c.361-.455.683-.862 1.044-1.27.32-.242.609-.476.884-.726.576-.524 1.146-1.057 1.719-1.586.029 1.392.211 2.78-.08 4.177-.109.518.122 1.102.097 1.65-.017.39-.103.867-.335 1.141-.86 1.016-1.792 1.964-2.726 2.961Zm1.073-6.893 1.022.493-.424-1.408c-.275.36-.47.615-.598.915Z"/>
  <path fill="#6F6F6F" d="M20.184 9.245c-.597.556-1.167 1.088-1.744 1.613-.274.25-.563.483-.899.682a.752.752 0 0 1-.05-.318c.33-.703-.187-.804-.666-.99.016-1.096.536-1.913 1.244-2.724.364.952.154 1.818.094 2.76l1.146-1.54c-.56-.322-.285-.726-.176-1.151.368.52.721 1.081 1.05 1.668Z"/>
  <path fill="#F7F7F7" d="M17.451 11.223c.039.09.038.182.052.318-.306.45-.629.857-.99 1.312L18.867 15c-.02.033-.042.066-.063.098l-2.375-.509a681.71 681.71 0 0 0-.27 3.604c-.216.71-.43 1.369-.655 2.025-.075.222-.175.435-.326.804-.397-1.722.394-3.146.431-4.655a18.347 18.347 0 0 1-.655-.294c.004-.42.043-.817.086-1.253-.543.114-1.086.226-1.628.343-.802.172-1.551.073-2.28-.356a3.013 3.013 0 0 0-1.181-.399c-.62-.065-1.114-.336-1.569-.743-1.13-1.01-1.897-2.218-1.966-3.87.046-.559.086-1.07.167-1.576.025-.159.157-.3.286-.402.185.892.31 1.74.465 2.582.312 1.712 1.038 3.113 2.848 3.414 1.056.176 2.149.195 3.221.16.7-.024 1.324-.405 1.813-.973.236-.276.335-.528.06-.835-.648-.725-1.277-1.47-1.941-2.179-.665-.709-1.364-1.383-2.023-2.098a1.72 1.72 0 0 1 .216-.108c.27.054.54.11.856.177.431.327.817.64 1.24.965.19.2.324.408.494.576.77.757 1.454 1.57 1.714 2.708a58.015 58.015 0 0 1 1.62-.982Z"/>
  <path fill="#F3F3F3" d="M12.237 21.33c-.694.163-.776-.44-1.108-.94.647.074.999.33 1.108.94Z"/>
  <path fill="#202020" d="M11.287 7.912c.684.69 1.383 1.364 2.048 2.074.664.708 1.293 1.453 1.942 2.178.274.307.175.56-.061.835-.49.568-1.112.95-1.813.973-1.072.036-2.165.016-3.221-.16-1.81-.301-2.536-1.702-2.848-3.414-.154-.842-.28-1.69-.43-2.579.026-.556.044-1.072.109-1.58.02-.157.169-.295.342-.432.548.26 1.013.513 1.498.797.824.457 1.63.883 2.434 1.308Zm.103 2.62 1.34.202.062-.298-1.77-.578-.101.213c.13.14.26.28.469.462Z"/>
  <path fill="#F6F6F6" d="m8.832 6.572-1.428-.775c-.142-.211-.25-.404-.362-.603.725-.095 2.021.472 3.094 1.393-.458.018-.88.002-1.304-.015Z"/>
  <path fill="#A9A9A9" d="M8.853 6.604c.402-.015.825.001 1.297.02.483.362.917.722 1.364 1.12-.05.063-.113.09-.202.143-.83-.4-1.635-.826-2.46-1.283Z"/>
  <path fill="#EFEFEF" d="M18.156 12.285c.162-.278.356-.533.631-.893.157.52.27.893.424 1.408-.418-.202-.72-.347-1.055-.515Z"/>
  <path fill="#F2F2F2" d="M11.35 10.512a8.67 8.67 0 0 1-.43-.441l.103-.213 1.769.578-.062.298a45.265 45.265 0 0 1-1.38-.222Z"/>
</svg>
