<svg xmlns="http://www.w3.org/2000/svg" width="40" height="40" fill="none" viewBox="0 0 24 25">
  <ellipse cx="12" cy="12.5" fill="#fff" rx="11" ry="11.5"/>
  <path fill="#747474" d="M13.354 1.595a22.2 22.2 0 0 1 1.997 1.015.793.793 0 0 1-.2.17c-1.604-1.108-3.353-.845-5.102-.584-.073.01-.15.001-.246-.098.205-.076.409-.154.615-.226.208-.072.418-.138.648-.242.76-.035 1.498-.035 2.288-.035Z"/>
  <path fill="#202020" d="M5.223 12.984c-.142-.505-.284-1.01-.428-1.608.09-.824.18-1.554.309-2.288.224-.239.422-.286.681-.1.19.136.413.22.63.376.07 1.652.837 2.861 1.967 3.87.455.407.948.679 1.569.744.404.042.826.19 1.18.4.73.428 1.479.526 2.28.354.543-.116 1.085-.228 1.63-.342-.044.436-.083.832-.16 1.226-.92.982-2.04 1.591-3.174 2.187-.203.107-.342.345-.511.522l-2.179-1.808c-.895-1.402-1.736-2.759-2.595-4.143v1.998l-.115.069-1.084-1.457Z"/>
  <path fill="#707070" d="M11.208 18.366c.157-.218.296-.456.5-.563 1.133-.596 2.253-1.205 3.208-2.16.271.111.47.197.694.294-.038 1.508-.83 2.933-.432 4.654.15-.368.25-.581.326-.803.224-.656.439-1.316.695-1.976.321.327.604.655.887.983-.257 1.369-1.28 2.078-2.264 2.805-.116.086-.41-.046-.604-.125-.357-.147-.7-.329-1.09-.396a130.22 130.22 0 0 1 1.758 1.76 50.004 50.004 0 0 1-2.162-.548l.035-.18c-.257.143-.51.294-.774.422-.057.028-.15-.024-.208-.116.069-.404.119-.732.174-1.096l-.922-.223.597 1.195-.618-.096.355.64c-.514-.256-1.098.202-1.307-.46l-1.275-.422c1.038-.949 1.36-2.042 1.222-3.422.796.452 1.534.864 2.264 1.29.656.38 1.3.787 1.96 1.16.167.094.378.104.538.145v-1.175c-.429-.238-.964-.642-1.56-.835-.578-.188-1.22-.16-1.869-.23l-.128-.522Zm1.034 2.496c-.114-.571-.466-.827-1.113-.901.332.5.414 1.103 1.113.9Z"/>
  <path fill="#ADADAD" d="M15.17 2.816c.043-.076.105-.116.2-.171 1.246.946 2.455 1.913 3.265 3.297.198.34.329.723.487 1.166-.098.464-.372.868.187 1.19L18.163 9.84c.06-.942.27-1.808-.094-2.76-.708.81-1.228 1.628-1.325 2.713-.593.103-1.132.133-1.573-.32.457-.814.926-1.623 1.37-2.446.564-1.051.189-1.919-.484-2.759-.341-.427-.582-.941-.887-1.451Z"/>
  <path fill="#707070" d="M6.406 9.315c-.208-.107-.432-.19-.62-.327-.26-.186-.457-.139-.713.064a9.103 9.103 0 0 1-.42-1.131c.086-.928.523-1.637 1.19-2.248.409-.376.711-.876 1.096-1.284.318-.336.689-.61 1.127-.197 1.394-1.145 1.394-1.145 2.015-.208-.601.902-.596.956.152 1.612.125.11.265.204.39.315a78.745 78.745 0 0 1 1.76 1.616c-.315-.068-.585-.123-.869-.213-.447-.397-.88-.758-1.328-1.154-1.123-.924-2.419-1.49-3.144-1.395.111.199.22.391.279.594-.14.156-.288.294-.308.45-.065.509-.083 1.024-.154 1.534-.119.146-.25.287-.276.446-.08.505-.121 1.017-.177 1.526Z"/>
  <path fill="#AAA" d="M5.191 13.001c.393.468.755.954 1.116 1.44l.115-.069v-1.998c.859 1.384 1.7 2.741 2.56 4.132-.264.267-.545.5-.876.775.014.006-.06-.008-.109-.052-1.134-1.038-2.252-2.094-3.08-3.43-.072-.118-.09-.272-.138-.478-.006-.068.016-.108.016-.108l.396-.212Z"/>
  <path fill="#AEAEAE" d="M12.43 7.54c-.602-.543-1.204-1.088-1.808-1.63-.124-.11-.264-.204-.39-.314-.747-.656-.752-.71-.132-1.575.8 1.658 2.29 2.556 3.581 3.67.194.166.257.498.328.792-.15.032-.248.026-.385.008a52.598 52.598 0 0 1-1.194-.95Z"/>
  <path fill="#242424" d="M13.662 8.503c.098.006.197.012.333.025.392.31.746.613 1.138.93.479.467 1.018.437 1.65.364.52.166 1.038.267.668.971-.55.319-1.06.636-1.619.983-.26-1.138-.944-1.952-1.714-2.708-.17-.168-.305-.376-.456-.565Z"/>
  <path fill="#AEAEAE" d="M4.624 7.946c.146.342.264.709.412 1.111-.06.766-.152 1.495-.256 2.277-.603-.37-.681-1.026-.614-1.666.06-.575.28-1.132.458-1.722Z"/>
  <path fill="#393939" d="M4.784 13.174c.01.04-.011.08-.002.1-.045.025-.14.045-.145.029-.31-.824-.614-1.65-.911-2.479-.005-.013.078-.062.114-.09.31.797.621 1.599.944 2.44Z"/>
  <path fill="#F2F2F2" d="M11.652 22.307a33.314 33.314 0 0 1-.623-1.21l.922.224c-.055.364-.105.692-.178 1.057-.046.006-.07-.026-.12-.071Z"/>
  <path fill="#212121" d="M17.116 18.77a14.909 14.909 0 0 1-.919-1.009c.048-1.2.136-2.352.232-3.602l2.375.509c.02-.033.042-.065.063-.098l-2.354-2.146a30.44 30.44 0 0 1 1.044-1.27c.32-.243.609-.476.884-.726.576-.524 1.146-1.057 1.719-1.586.029 1.392.211 2.779-.08 4.177-.109.517.122 1.102.097 1.65-.017.39-.103.866-.335 1.141-.86 1.016-1.792 1.963-2.726 2.96Zm1.073-6.892 1.022.492-.424-1.408c-.275.36-.47.616-.598.916Z"/>
  <path fill="#6F6F6F" d="M20.184 8.816c-.597.555-1.167 1.088-1.744 1.612-.274.25-.563.483-.899.682a.75.75 0 0 1-.05-.317c.33-.704-.187-.805-.666-.991.016-1.095.536-1.913 1.244-2.724.364.953.154 1.819.094 2.761l1.146-1.54c-.56-.323-.285-.727-.176-1.152.368.52.721 1.082 1.05 1.669Z"/>
  <path fill="#F7F7F7" d="M17.451 10.793c.039.091.038.183.052.318-.306.45-.629.857-.99 1.313l2.354 2.146c-.02.033-.042.066-.063.098l-2.375-.509a681.71 681.71 0 0 0-.27 3.604c-.216.71-.43 1.369-.655 2.025-.075.222-.175.434-.326.803-.397-1.721.394-3.146.431-4.654a18.347 18.347 0 0 1-.655-.294c.004-.421.043-.817.086-1.253-.543.114-1.086.226-1.628.342-.802.173-1.551.074-2.28-.355a3.013 3.013 0 0 0-1.181-.4c-.62-.064-1.114-.336-1.569-.742-1.13-1.01-1.897-2.218-1.966-3.87.046-.56.086-1.07.167-1.576.025-.159.157-.3.286-.402.185.892.31 1.74.465 2.582.312 1.711 1.038 3.112 2.848 3.414 1.056.176 2.149.195 3.221.16.7-.024 1.324-.405 1.813-.974.236-.275.335-.527.06-.834-.648-.725-1.277-1.47-1.941-2.179-.665-.709-1.364-1.384-2.023-2.098.089-.053.152-.08.216-.108.27.054.54.109.856.177.431.327.817.64 1.24.964.19.201.324.41.494.577.77.756 1.454 1.57 1.714 2.708a58.015 58.015 0 0 1 1.62-.983Z"/>
  <path fill="#F3F3F3" d="M12.237 20.9c-.694.164-.776-.44-1.108-.94.647.075.999.33 1.108.94Z"/>
  <path fill="#202020" d="M11.287 7.483c.684.69 1.383 1.364 2.048 2.073.664.709 1.293 1.454 1.942 2.18.274.306.175.558-.061.833-.49.569-1.112.95-1.813.973-1.072.036-2.165.016-3.221-.16-1.81-.3-2.536-1.702-2.848-3.413-.154-.843-.28-1.69-.43-2.579.026-.557.044-1.072.109-1.581.02-.156.169-.294.342-.432.548.261 1.013.513 1.498.798.824.457 1.63.882 2.434 1.308Zm.103 2.62 1.34.202.062-.298-1.77-.579-.101.213c.13.14.26.281.469.462Z"/>
  <path fill="#F6F6F6" d="m8.832 6.143-1.428-.776c-.142-.21-.25-.403-.362-.602.725-.095 2.021.471 3.094 1.393-.458.018-.88.001-1.304-.015Z"/>
  <path fill="#A9A9A9" d="M8.853 6.175c.402-.016.825 0 1.297.019.483.362.917.723 1.364 1.12-.05.063-.113.09-.202.144-.83-.4-1.635-.826-2.46-1.283Z"/>
  <path fill="#EFEFEF" d="M18.156 11.856c.162-.278.356-.533.631-.894l.424 1.409c-.418-.202-.72-.348-1.055-.515Z"/>
  <path fill="#F2F2F2" d="M11.35 10.083c-.17-.16-.3-.301-.43-.442.035-.07.069-.142.103-.213l1.769.579-.062.298a47.54 47.54 0 0 1-1.38-.222Z"/>
</svg>
