<svg viewBox="0 0 25 25" fill="currentColor" xmlns="http://www.w3.org/2000/svg"><path fill-rule="evenodd" clip-rule="evenodd" d="M4.309 6.875c0-1.1.9-2 2-2s2 .9 2 2-.9 2-2 2-2-.9-2-2Zm2 4c-1.1 0-2 .9-2 2s.9 2 2 2 2-.9 2-2-.9-2-2-2Zm0 6c-1.1 0-2 .9-2 2s.9 2 2 2 2-.9 2-2-.9-2-2-2Zm12-8c1.1 0 2-.9 2-2s-.9-2-2-2-2 .9-2 2 .9 2 2 2Zm-2 4c0-1.1.9-2 2-2s2 .9 2 2-.9 2-2 2-2-.9-2-2Zm-4-8c-1.1 0-2 .9-2 2s.9 2 2 2 2-.9 2-2-.9-2-2-2Zm4 14c0-1.1.9-2 2-2s2 .9 2 2-.9 2-2 2-2-.9-2-2Zm-4-8c-1.1 0-2 .9-2 2s.9 2 2 2 2-.9 2-2-.9-2-2-2Zm-2 8c0-1.1.9-2 2-2s2 .9 2 2-.9 2-2 2-2-.9-2-2Z"/></svg>