<svg width="55" height="55" viewBox="0 0 55 55" fill="none" xmlns="http://www.w3.org/2000/svg">
    <path fill-rule="evenodd" clip-rule="evenodd" d="M9.19254 10.6048L18.2324 3.25996L23.8823 5.51993L26.1423 8.34489H30.6622L34.6171 1L43.657 6.64991L46.482 11.7348L43.657 15.6898L46.482 19.0797H51.5669L53.2619 22.4697L51.5669 34.3345H45.352L40.832 41.1144L43.092 46.1993L33.4872 52.4142L30.6622 47.3293H23.8823L19.3624 53.5442L10.3225 48.4593L6.36759 46.1993L10.3225 39.4194V37.1594H6.36759L1.84766 33.2045V21.9047L8.06256 21.3397L12.0175 15.6898L9.19254 10.6048ZM20.4924 26.4246L29.5322 19.0797L32.3572 21.9047L31.7922 30.9445L23.8823 37.1594L20.4924 34.3345V26.4246Z" fill="white"/>
    <path fill-rule="evenodd" clip-rule="evenodd" d="M9.19254 10.6048L18.2324 3.25996L23.8823 5.51993L26.1423 8.34489H30.6622L34.6171 1L43.657 6.64991L46.482 11.7348L43.657 15.6898L46.482 19.0797H51.5669L53.2619 22.4697L51.5669 34.3345H45.352L40.832 41.1144L43.092 46.1993L33.4872 52.4142L30.6622 47.3293H23.8823L19.3624 53.5442L10.3225 48.4593L6.36759 46.1993L10.3225 39.4194V37.1594H6.36759L1.84766 33.2045V21.9047L8.06256 21.3397L12.0175 15.6898L9.19254 10.6048ZM20.4924 26.4246L29.5322 19.0797L32.3572 21.9047L31.7922 30.9445L23.8823 37.1594L20.4924 34.3345V26.4246Z" fill="url(#paint0_linear_12009_301962)"/>
    <path fill-rule="evenodd" clip-rule="evenodd" d="M17.4892 16.2449C17.7294 16.3811 17.8137 16.6862 17.6774 16.9264L12.31 26.39C12.1738 26.6302 11.8686 26.7145 11.6284 26.5783C11.3882 26.4421 11.3039 26.1369 11.4402 25.8967L16.8076 16.4331C16.9438 16.1929 17.249 16.1086 17.4892 16.2449Z" fill="black"/>
    <path fill-rule="evenodd" clip-rule="evenodd" d="M13.3493 12.2743C13.5969 12.1522 13.8967 12.254 14.0189 12.5016C14.1537 12.7751 14.2869 13.0478 14.4195 13.3191C15.2811 15.0825 16.1173 16.7939 17.2276 18.3668C17.3869 18.5924 17.3331 18.9044 17.1075 19.0637C16.8819 19.2229 16.5699 19.1691 16.4106 18.9435C15.2503 17.2997 14.376 15.5092 13.5172 13.7507C13.3855 13.4808 13.254 13.2117 13.122 12.9439C12.9999 12.6963 13.1016 12.3965 13.3493 12.2743Z" fill="black"/>
    <path fill-rule="evenodd" clip-rule="evenodd" d="M24.5613 5.61489C24.8216 5.5225 25.1074 5.65855 25.1998 5.91877C25.7691 7.52202 26.2382 9.14973 26.7037 10.7654C26.7913 11.0691 26.8786 11.3724 26.9666 11.675C27.1834 12.4215 27.3255 12.8936 27.6871 13.4361C27.8403 13.6659 27.7782 13.9763 27.5485 14.1295C27.3187 14.2827 27.0083 14.2206 26.8551 13.9908C26.3994 13.3073 26.2224 12.698 26.0083 11.961L26.0063 11.9539C25.9171 11.647 25.8289 11.3409 25.7408 11.0355C25.2751 9.41955 24.8157 7.82549 24.2575 6.25338C24.1651 5.99315 24.3011 5.70729 24.5613 5.61489Z" fill="black"/>
    <path fill-rule="evenodd" clip-rule="evenodd" d="M25.3005 4.27696C25.441 4.5147 25.3622 4.82131 25.1244 4.96179C20.9121 7.45092 16.756 10.2792 13.5195 13.9042C13.3355 14.1102 13.0195 14.1281 12.8135 13.9442C12.6075 13.7602 12.5896 13.4442 12.7735 13.2382C16.1141 9.49677 20.3765 6.60582 24.6157 4.10087C24.8534 3.96038 25.16 4.03923 25.3005 4.27696Z" fill="black"/>
    <path fill-rule="evenodd" clip-rule="evenodd" d="M29.5044 12.7156C28.4029 12.6512 27.2704 12.7276 26.3208 12.7991C26.0454 12.8199 25.8054 12.6135 25.7846 12.3381C25.7639 12.0627 25.9703 11.8227 26.2457 11.8019C27.1935 11.7305 28.3868 11.6486 29.5627 11.7173C30.7307 11.7856 31.9413 12.0048 32.8966 12.578C33.1334 12.7201 33.2102 13.0272 33.0681 13.264C32.926 13.5008 32.6189 13.5776 32.3821 13.4355C31.6326 12.9858 30.614 12.7805 29.5044 12.7156Z" fill="black"/>
    <path fill-rule="evenodd" clip-rule="evenodd" d="M38.467 4.56903C38.6791 4.74581 38.7078 5.06109 38.531 5.27323C36.7395 7.42307 35.411 10.1028 34.1238 12.6995C33.9657 13.0185 33.8081 13.3362 33.6504 13.6516C33.527 13.8986 33.2266 13.9987 32.9796 13.8752C32.7326 13.7517 32.6325 13.4514 32.756 13.2044C32.9122 12.892 33.0693 12.5749 33.228 12.2545C34.507 9.6725 35.8903 6.88006 37.7628 4.63305C37.9396 4.42091 38.2549 4.39224 38.467 4.56903Z" fill="black"/>
    <path fill-rule="evenodd" clip-rule="evenodd" d="M46.8345 11.2402C47.0298 11.4355 47.0298 11.752 46.8345 11.9473C45.2746 13.5072 44.0922 15.5511 42.933 17.5549C42.7527 17.8667 42.5729 18.1775 42.3923 18.4854C42.2526 18.7236 41.9462 18.8034 41.7081 18.6637C41.4699 18.524 41.39 18.2176 41.5297 17.9794C41.7044 17.6816 41.8804 17.377 42.0589 17.0681C43.2114 15.0735 44.4667 12.9009 46.1274 11.2402C46.3227 11.0449 46.6392 11.0449 46.8345 11.2402Z" fill="black"/>
    <path fill-rule="evenodd" clip-rule="evenodd" d="M42.2634 15.9688C42.4986 15.824 42.8066 15.8974 42.9513 16.1326C44.1435 18.0698 44.9934 20.0293 45.685 22.1735C45.7698 22.4363 45.6255 22.7181 45.3627 22.8029C45.0999 22.8876 44.8181 22.7433 44.7333 22.4805C44.0616 20.3981 43.2427 18.5141 42.0996 16.6567C41.9549 16.4215 42.0282 16.1135 42.2634 15.9688Z" fill="black"/>
    <path fill-rule="evenodd" clip-rule="evenodd" d="M52.9137 22.5942C52.9221 22.8703 52.7051 23.1008 52.4291 23.1092C51.8703 23.1261 51.3082 23.1468 50.7437 23.1676C48.9552 23.2335 47.1428 23.3003 45.3378 23.2504C45.0617 23.2428 44.8441 23.0129 44.8518 22.7368C44.8594 22.4608 45.0893 22.2432 45.3654 22.2508C47.1351 22.2997 48.9024 22.2346 50.6837 22.169C51.2538 22.148 51.8253 22.127 52.3988 22.1096C52.6748 22.1012 52.9054 22.3182 52.9137 22.5942Z" fill="black"/>
    <path fill-rule="evenodd" clip-rule="evenodd" d="M53.4482 22.2522C53.7231 22.278 53.9251 22.5218 53.8993 22.7968C53.7729 24.143 53.6122 25.4837 53.4519 26.8204C53.1106 29.6672 52.7715 32.4958 52.7715 35.3211C52.7715 35.5972 52.5476 35.8211 52.2715 35.8211C51.9953 35.8211 51.7715 35.5972 51.7715 35.3211C51.7715 32.4358 52.1225 29.5053 52.4672 26.6265C52.6255 25.3047 52.7825 23.9939 52.9037 22.7033C52.9295 22.4284 53.1733 22.2264 53.4482 22.2522Z" fill="black"/>
    <path fill-rule="evenodd" clip-rule="evenodd" d="M53.9017 34.3027C53.918 34.5784 53.7076 34.815 53.432 34.8312C50.6062 34.9974 47.7785 35.1465 44.947 35.2554C44.671 35.266 44.4387 35.0509 44.4281 34.775C44.4175 34.4991 44.6326 34.2668 44.9085 34.2562C47.7308 34.1476 50.5512 33.9989 53.3732 33.8329C53.6489 33.8167 53.8855 34.027 53.9017 34.3027Z" fill="black"/>
    <path fill-rule="evenodd" clip-rule="evenodd" d="M46.4061 31.479C46.6572 31.5938 46.7677 31.8905 46.6529 32.1416C45.3401 35.0135 43.6612 37.6528 41.9929 40.2755C41.6984 40.7384 41.4043 41.2008 41.1126 41.6638C40.9654 41.8975 40.6566 41.9676 40.423 41.8204C40.1894 41.6732 40.1193 41.3644 40.2665 41.1308C40.5628 40.6604 40.8599 40.1932 41.156 39.7276C42.8251 37.1031 44.4618 34.5295 45.7434 31.7258C45.8583 31.4747 46.1549 31.3642 46.4061 31.479Z" fill="black"/>
    <path fill-rule="evenodd" clip-rule="evenodd" d="M40.1398 40.1251C40.3728 39.9769 40.6818 40.0455 40.8301 40.2785C41.4686 41.2819 42.0477 42.3159 42.6172 43.3374C42.6381 43.3748 42.659 43.4123 42.6798 43.4497C43.23 44.4368 43.7729 45.4108 44.3635 46.3556C44.5098 46.5898 44.4386 46.8982 44.2045 47.0446C43.9703 47.1909 43.6618 47.1198 43.5155 46.8856C42.9113 45.919 42.3575 44.9253 41.8105 43.9441C41.7883 43.9042 41.766 43.8642 41.7438 43.8243C41.1729 42.8004 40.6071 41.7908 39.9864 40.8154C39.8382 40.5824 39.9069 40.2734 40.1398 40.1251Z" fill="black"/>
    <path fill-rule="evenodd" clip-rule="evenodd" d="M31.9977 46.6571C32.0556 46.9271 31.8836 47.1929 31.6136 47.2507C28.5772 47.9014 25.8835 48.0691 22.7858 47.3915C22.5161 47.3325 22.3452 47.066 22.4042 46.7962C22.4632 46.5265 22.7298 46.3556 22.9995 46.4146C25.9218 47.0539 28.4661 46.9025 31.404 46.2729C31.674 46.2151 31.9398 46.387 31.9977 46.6571Z" fill="black"/>
    <path fill-rule="evenodd" clip-rule="evenodd" d="M30.7379 46.4506C30.9896 46.337 31.2857 46.449 31.3992 46.7008C32.2649 48.6194 33.2225 50.4489 34.2107 52.3231C34.3395 52.5673 34.2459 52.8698 34.0016 52.9986C33.7574 53.1274 33.4549 53.0338 33.3262 52.7895C32.3389 50.917 31.3676 49.0623 30.4877 47.112C30.3742 46.8603 30.4861 46.5642 30.7379 46.4506Z" fill="black"/>
    <path fill-rule="evenodd" clip-rule="evenodd" d="M43.7898 46.629C43.943 46.8587 43.8809 47.1692 43.6511 47.3223C43.5448 47.3932 43.4384 47.4642 43.3319 47.5352C40.253 49.5886 37.0945 51.6951 33.6992 53.2912C33.4493 53.4087 33.1514 53.3013 33.0339 53.0514C32.9165 52.8015 33.0238 52.5037 33.2737 52.3862C36.6002 50.8225 39.7035 48.7529 42.8 46.6879C42.8988 46.622 42.9976 46.5561 43.0964 46.4903C43.3262 46.3371 43.6366 46.3992 43.7898 46.629Z" fill="black"/>
    <path fill-rule="evenodd" clip-rule="evenodd" d="M24.0403 45.2992C24.3023 45.3866 24.4438 45.6697 24.3565 45.9317C23.8636 47.4105 23.1898 48.8193 22.5022 50.1936C22.379 50.4398 22.2556 50.6847 22.1325 50.9286C21.5642 52.0555 21.0055 53.1633 20.5297 54.3002C20.4231 54.5549 20.1302 54.675 19.8755 54.5684C19.6207 54.4618 19.5006 54.1689 19.6072 53.9142C20.098 52.7414 20.6761 51.5954 21.245 50.4675C21.3667 50.2262 21.488 49.9858 21.6079 49.7462C22.2931 48.3766 22.939 47.0219 23.4078 45.6155C23.4952 45.3535 23.7783 45.2119 24.0403 45.2992Z" fill="black"/>
    <path fill-rule="evenodd" clip-rule="evenodd" d="M16.6012 41.0341C16.8003 41.2255 16.8065 41.542 16.6151 41.7411C15.1139 43.3023 13.7789 44.9673 12.423 46.6584C11.8593 47.3615 11.292 48.0691 10.7076 48.7756C10.5316 48.9884 10.2164 49.0182 10.0036 48.8422C9.79081 48.6662 9.761 48.351 9.937 48.1382C10.5001 47.4574 11.0555 46.7648 11.6129 46.0697C12.9807 44.3639 14.3602 42.6434 15.8943 41.048C16.0857 40.8489 16.4022 40.8427 16.6012 41.0341Z" fill="black"/>
    <path fill-rule="evenodd" clip-rule="evenodd" d="M9.46977 47.9186C9.61184 47.6818 9.91897 47.605 10.1558 47.7471C12.7233 49.2877 15.1488 51.0251 17.56 52.7523C17.8706 52.9749 18.181 53.1972 18.4914 53.4189C18.5168 53.437 18.5654 53.475 18.6145 53.5133C18.6434 53.5359 18.6725 53.5587 18.6971 53.5775C18.7228 53.5973 18.7488 53.6169 18.7745 53.6359C18.7764 53.6352 18.7783 53.6346 18.7803 53.6339C19.0422 53.5466 19.3254 53.6882 19.4127 53.9501C19.4373 54.0238 19.4835 54.1791 19.4424 54.3497C19.4177 54.4523 19.3586 54.5699 19.243 54.6585C19.132 54.7437 19.0137 54.7677 18.9304 54.7716C18.7841 54.7786 18.6614 54.7286 18.6066 54.7046C18.5363 54.6738 18.469 54.6352 18.4119 54.5997C18.2969 54.528 18.1787 54.4402 18.0885 54.371C18.0478 54.3398 18.0102 54.3104 17.9798 54.2865L17.9681 54.2774L17.9273 54.2457L17.9146 54.2359C17.9124 54.2343 17.911 54.2333 17.9105 54.2329C17.9102 54.2327 17.91 54.2326 17.9101 54.2326C17.5986 54.0101 17.2878 53.7875 16.9774 53.5652C14.5624 51.8353 12.1716 50.1228 9.64127 48.6046C9.40448 48.4625 9.32769 48.1554 9.46977 47.9186ZM18.4673 54.2781C18.4671 54.278 18.4659 54.2744 18.4645 54.2679C18.4669 54.275 18.4675 54.2783 18.4673 54.2781ZM19.006 53.7878C19.0149 53.7909 19.016 53.7922 19.0077 53.7886C19.0072 53.7883 19.0066 53.7881 19.006 53.7878Z" fill="black"/>
    <path fill-rule="evenodd" clip-rule="evenodd" d="M12.6427 36.1003C12.9153 36.0561 13.1721 36.2412 13.2163 36.5138C13.5341 38.4734 14.5092 40.6394 15.9012 42.0314C16.0965 42.2267 16.0965 42.5433 15.9012 42.7385C15.706 42.9338 15.3894 42.9338 15.1941 42.7385C13.6266 41.171 12.5739 38.7994 12.2292 36.6739C12.185 36.4013 12.3701 36.1445 12.6427 36.1003Z" fill="black"/>
    <path fill-rule="evenodd" clip-rule="evenodd" d="M4.46724 36.0628C4.52752 35.7934 4.79485 35.6238 5.06433 35.684C7.14701 36.1499 9.35494 36.1277 11.5767 36.1053C12.053 36.1005 12.5299 36.0957 13.0063 36.0957C13.2825 36.0957 13.5063 36.3196 13.5063 36.5957C13.5063 36.8719 13.2825 37.0957 13.0063 37.0957C12.5534 37.0957 12.0926 37.1006 11.6263 37.1055C9.40176 37.1288 7.05277 37.1535 4.84604 36.6599C4.57656 36.5996 4.40696 36.3323 4.46724 36.0628Z" fill="black"/>
    <path fill-rule="evenodd" clip-rule="evenodd" d="M4.89873 25.0135C4.97548 24.7483 5.25273 24.5954 5.51799 24.6722C8.25639 25.4644 10.9086 25.2992 13.7919 24.9388C14.0659 24.9046 14.3158 25.0989 14.35 25.373C14.3843 25.647 14.1899 25.8969 13.9159 25.9311C11.0071 26.2947 8.18419 26.4845 5.24008 25.6328C4.97482 25.556 4.82199 25.2788 4.89873 25.0135Z" fill="black"/>
    <path fill-rule="evenodd" clip-rule="evenodd" d="M5.81038 24.6524C6.08649 24.6564 6.30708 24.8835 6.30308 25.1596C6.28197 26.6163 6.22647 28.0713 6.17124 29.5195C6.16945 29.5663 6.16767 29.6132 6.16588 29.66C6.10883 31.1566 6.05325 32.646 6.0363 34.1351C6.02264 35.3349 6.04184 36.1356 6.41254 37.1241C6.5095 37.3827 6.3785 37.6709 6.11994 37.7678C5.86138 37.8648 5.57318 37.7338 5.47622 37.4752C5.03515 36.299 5.02257 35.3356 5.03636 34.1237C5.05349 32.6193 5.10962 31.1171 5.1666 29.6219C5.16834 29.5765 5.17007 29.5311 5.1718 29.4857C5.22715 28.0343 5.28225 26.5898 5.30319 25.1451C5.30719 24.869 5.53426 24.6484 5.81038 24.6524Z" fill="black"/>
    <path fill-rule="evenodd" clip-rule="evenodd" d="M1.61128 21.2927C1.79267 21.0845 2.10851 21.0627 2.31672 21.2441C3.8713 22.5984 5.19806 24.0222 6.57269 25.4975L6.59153 25.5177C6.77978 25.7197 6.76861 26.0361 6.56658 26.2243C6.36456 26.4126 6.04817 26.4014 5.85992 26.1994L5.85735 26.1966C4.47185 24.7098 3.17512 23.3182 1.65986 21.9981C1.45164 21.8167 1.4299 21.5009 1.61128 21.2927Z" fill="black"/>
    <path fill-rule="evenodd" clip-rule="evenodd" d="M9.2663 21.166C9.28467 21.4415 9.0762 21.6798 8.80067 21.6981C8.02771 21.7497 7.27808 21.8278 6.52085 21.9068C6.04539 21.9564 5.56694 22.0063 5.07783 22.0501C3.82876 22.162 2.55499 22.2286 1.2406 22.1213C0.965369 22.0989 0.760467 21.8575 0.782935 21.5823C0.805402 21.3071 1.04673 21.1022 1.32196 21.1246C2.55298 21.2251 3.76141 21.164 4.98862 21.0541C5.44574 21.0131 5.91226 20.9646 6.38406 20.9155C7.15927 20.8348 7.94873 20.7527 8.73415 20.7003C9.00968 20.682 9.24793 20.8904 9.2663 21.166Z" fill="black"/>
    <path fill-rule="evenodd" clip-rule="evenodd" d="M12.9876 15.9633C13.1481 16.188 13.0961 16.5003 12.8714 16.6608C11.0016 17.9964 10.0301 20.2848 9.39029 22.6019C9.3168 22.8681 9.04143 23.0243 8.77525 22.9508C8.50907 22.8773 8.35287 22.6019 8.42636 22.3358C9.07749 19.9776 10.124 17.3943 12.2902 15.8471C12.5149 15.6866 12.8271 15.7386 12.9876 15.9633Z" fill="black"/>
    <path fill-rule="evenodd" clip-rule="evenodd" d="M8.49544 9.90096C8.72707 9.75063 9.03672 9.81654 9.18705 10.0482C10.4088 11.9307 11.425 13.8677 12.332 15.9085C12.4441 16.1608 12.3305 16.4563 12.0782 16.5684C11.8258 16.6806 11.5303 16.5669 11.4182 16.3146C10.5287 14.3133 9.53672 12.4238 8.34822 10.5926C8.19789 10.3609 8.2638 10.0513 8.49544 9.90096Z" fill="black"/>
    <path fill-rule="evenodd" clip-rule="evenodd" d="M8.16672 9.9847C8.27449 9.73045 8.56795 9.6117 8.8222 9.71946C10.0544 10.2417 11.1901 10.9059 12.2915 11.5612C12.3641 11.6044 12.4365 11.6475 12.5088 11.6905C13.5419 12.3059 14.5481 12.9051 15.6165 13.3983C15.8672 13.514 15.9767 13.8111 15.861 14.0618C15.7452 14.3125 15.4482 14.422 15.1974 14.3062C14.0793 13.7902 13.0302 13.1652 12.0066 12.5554C11.931 12.5103 11.8556 12.4654 11.7802 12.4206C10.6763 11.7638 9.59395 11.1327 8.43196 10.6402C8.17772 10.5324 8.05896 10.2389 8.16672 9.9847Z" fill="black"/>
    <path fill-rule="evenodd" clip-rule="evenodd" d="M12.1523 15.8579C12.2934 15.6205 12.6002 15.5425 12.8376 15.6835C13.9684 16.3556 15.1346 16.8981 16.3551 17.4657L16.3891 17.4815C16.7436 17.6464 17.1126 17.818 17.4556 18.161C17.6509 18.3563 17.6509 18.6729 17.4556 18.8681C17.2603 19.0634 16.9437 19.0634 16.7485 18.8681C16.5449 18.6645 16.3284 18.5562 15.9652 18.3872L15.9131 18.363C14.7067 17.8019 13.5012 17.2413 12.3267 16.5432C12.0893 16.4021 12.0112 16.0953 12.1523 15.8579Z" fill="black"/>
    <path fill-rule="evenodd" clip-rule="evenodd" d="M8.33925 20.931C8.56508 20.7721 8.87698 20.8263 9.0359 21.0521C10.2971 22.8444 11.5551 24.5497 13.0767 26.0713C13.272 26.2665 13.272 26.5831 13.0767 26.7784C12.8815 26.9736 12.5649 26.9736 12.3696 26.7784C10.7828 25.1916 9.48329 23.4255 8.21809 21.6276C8.05917 21.4018 8.11342 21.0899 8.33925 20.931Z" fill="black"/>
    <path fill-rule="evenodd" clip-rule="evenodd" d="M20.3719 2.04208C20.4975 2.28797 20.4001 2.58918 20.1542 2.71485C15.5734 5.05614 11.2066 7.86468 8.18391 12.027C8.02165 12.2505 7.70897 12.3001 7.48553 12.1378C7.26209 11.9756 7.2125 11.6629 7.37476 11.4394C10.5376 7.08399 15.0748 4.18793 19.6991 1.82442C19.945 1.69874 20.2462 1.7962 20.3719 2.04208Z" fill="black"/>
    <path fill-rule="evenodd" clip-rule="evenodd" d="M17.509 2.31785C17.6399 2.07468 17.9431 1.98363 18.1863 2.11449C20.3919 3.30141 22.6128 4.39746 24.9185 5.34071C25.1741 5.44527 25.2965 5.73722 25.192 5.9928C25.0874 6.24838 24.7955 6.37081 24.5399 6.26626C22.1917 5.30565 19.9378 4.19265 17.7124 2.99508C17.4692 2.86422 17.3782 2.56101 17.509 2.31785Z" fill="black"/>
    <path fill-rule="evenodd" clip-rule="evenodd" d="M30.9436 8.84375C28.9968 8.84375 27.1246 8.90642 25.2446 9.25893C24.9732 9.30982 24.7119 9.13105 24.661 8.85964C24.6101 8.58823 24.7889 8.32695 25.0603 8.27606C27.0339 7.90601 28.9809 7.84375 30.9436 7.84375C31.2197 7.84375 31.4436 8.06761 31.4436 8.34375C31.4436 8.61989 31.2197 8.84375 30.9436 8.84375Z" fill="black"/>
    <path fill-rule="evenodd" clip-rule="evenodd" d="M30.2913 7.7584C30.537 7.63231 30.8384 7.72925 30.9645 7.97493C31.8947 9.78747 32.7731 11.6257 33.6471 13.4549C33.7437 13.6571 33.8403 13.8592 33.9369 14.0612C34.0561 14.3103 33.9507 14.6088 33.7016 14.728C33.4525 14.8471 33.1539 14.7417 33.0348 14.4926C32.9382 14.2906 32.8417 14.0887 32.7452 13.8868C31.8703 12.0558 30.9982 10.2306 30.0748 8.43153C29.9487 8.18586 30.0457 7.88448 30.2913 7.7584Z" fill="black"/>
    <path fill-rule="evenodd" clip-rule="evenodd" d="M34.9814 0.693521C35.2284 0.817016 35.3285 1.11735 35.205 1.36434C34.7634 2.24767 34.2857 3.12527 33.8126 3.9946C33.5778 4.42605 33.3441 4.85547 33.1164 5.28254C32.4245 6.58057 31.7767 7.87774 31.271 9.22617C31.1741 9.48473 30.8859 9.61574 30.6273 9.51878C30.3687 9.42182 30.2377 9.13361 30.3347 8.87505C30.8636 7.46472 31.5358 6.12189 32.234 4.81214C32.4705 4.36838 32.7088 3.93067 32.9457 3.49541C33.4136 2.63572 33.8764 1.78557 34.3106 0.917128C34.4341 0.670138 34.7344 0.570026 34.9814 0.693521Z" fill="black"/>
    <path fill-rule="evenodd" clip-rule="evenodd" d="M35.2581 0.8253C35.51 0.71212 35.8059 0.82456 35.9191 1.07644C36.7291 2.87905 37.5829 4.64931 38.4545 6.42886C38.576 6.67685 38.4734 6.97636 38.2254 7.09782C37.9774 7.21929 37.6779 7.11672 37.5564 6.86872C36.6835 5.08654 35.8239 3.30437 35.0069 1.48631C34.8938 1.23442 35.0062 0.938481 35.2581 0.8253Z" fill="black"/>
    <path fill-rule="evenodd" clip-rule="evenodd" d="M37.5695 5.27563C37.7043 5.0346 38.0089 4.94844 38.2499 5.08319C40.3661 6.26623 42.328 7.69256 44.2622 9.09869C44.7702 9.468 45.2762 9.83592 45.7827 10.1977C46.0074 10.3582 46.0595 10.6705 45.8989 10.8952C45.7384 11.1199 45.4262 11.1719 45.2015 11.0114C44.6795 10.6386 44.1632 10.2633 43.6489 9.88946C41.7207 8.48799 39.8209 7.10713 37.762 5.95605C37.5209 5.8213 37.4348 5.51667 37.5695 5.27563Z" fill="black"/>
    <path fill-rule="evenodd" clip-rule="evenodd" d="M35.2134 0.97098C35.3848 0.754445 35.6992 0.71783 35.9158 0.889198C37.1868 1.89508 38.5491 2.70972 39.9546 3.4995C40.2916 3.68885 40.6321 3.87728 40.9744 4.06673C42.0501 4.66212 43.1442 5.26769 44.2075 5.94436C44.4405 6.09261 44.5092 6.40166 44.3609 6.63463C44.2127 6.8676 43.9036 6.93628 43.6707 6.78802C42.6356 6.12935 41.579 5.54447 40.5095 4.95251C40.1625 4.76044 39.8142 4.56762 39.4648 4.37129C38.0481 3.57524 36.6299 2.72961 35.2952 1.67334C35.0787 1.50197 35.042 1.18752 35.2134 0.97098Z" fill="black"/>
    <path fill-rule="evenodd" clip-rule="evenodd" d="M43.3538 5.46849C43.6151 5.37906 43.8994 5.51836 43.9888 5.77962C44.3247 6.76095 44.7538 7.69734 45.2044 8.64629C45.2697 8.78388 45.3356 8.9219 45.4016 9.06038C45.7879 9.86985 46.1818 10.6953 46.5225 11.547C46.625 11.8034 46.5003 12.0944 46.2439 12.1969C45.9875 12.2995 45.6965 12.1748 45.594 11.9184C45.2663 11.0993 44.8882 10.3067 44.5015 9.49602C44.4348 9.35635 44.368 9.21615 44.301 9.07518C43.849 8.1231 43.3984 7.14271 43.0427 6.10346C42.9533 5.8422 43.0926 5.55791 43.3538 5.46849Z" fill="black"/>
    <path fill-rule="evenodd" clip-rule="evenodd" d="M43.5437 15.401C43.7818 15.2611 44.0882 15.3408 44.2281 15.5789C44.8913 16.708 45.5498 17.8394 46.2068 18.971C46.3455 19.2098 46.2643 19.5158 46.0255 19.6545C45.7867 19.7931 45.4807 19.7119 45.342 19.4731C44.6852 18.342 44.0278 17.2123 43.3658 16.0854C43.226 15.8473 43.3056 15.5409 43.5437 15.401Z" fill="black"/>
    <path fill-rule="evenodd" clip-rule="evenodd" d="M46.2009 17.6111C46.4654 17.6904 46.6154 17.9692 46.5361 18.2336C46.0596 19.822 46.0283 21.5812 45.9971 23.3318C45.9954 23.4239 45.9938 23.5159 45.9921 23.6079C45.987 23.884 45.759 24.1037 45.4829 24.0986C45.2068 24.0934 44.9872 23.8655 44.9923 23.5894C44.9942 23.4854 44.996 23.3807 44.9979 23.2753C45.0278 21.56 45.0607 19.6716 45.5783 17.9463C45.6576 17.6818 45.9364 17.5317 46.2009 17.6111Z" fill="black"/>
    <path fill-rule="evenodd" clip-rule="evenodd" d="M45.286 18.5544C45.3423 18.284 45.6071 18.1105 45.8775 18.1669C46.9444 18.3891 48.0233 18.4851 49.129 18.5646C49.3008 18.577 49.4735 18.589 49.647 18.601C50.5804 18.6657 51.5347 18.7319 52.4848 18.8676C52.7582 18.9067 52.9482 19.1599 52.9091 19.4333C52.8701 19.7067 52.6168 19.8966 52.3434 19.8576C51.4325 19.7274 50.5199 19.6641 49.5861 19.5992C49.4106 19.587 49.2343 19.5748 49.0572 19.5621C47.9468 19.4822 46.8107 19.3828 45.6735 19.1458C45.4032 19.0895 45.2297 18.8247 45.286 18.5544Z" fill="black"/>
    <path fill-rule="evenodd" clip-rule="evenodd" d="M50.7358 18.2331C50.9695 18.0861 51.2782 18.1563 51.4252 18.3901C52.3678 19.8885 53.2472 21.4011 54.1198 22.9282C54.2569 23.1679 54.1736 23.4734 53.9338 23.6104C53.694 23.7474 53.3886 23.6641 53.2516 23.4243C52.3808 21.9004 51.5098 20.4026 50.5788 18.9225C50.4318 18.6888 50.502 18.3801 50.7358 18.2331Z" fill="black"/>
    <path fill-rule="evenodd" clip-rule="evenodd" d="M9.61863 36.3944C9.88415 36.3185 10.1609 36.4723 10.2368 36.7378C10.5366 37.7873 10.8385 38.8087 11.2129 39.807C11.3098 40.0656 11.1788 40.3538 10.9203 40.4507C10.6617 40.5477 10.3735 40.4167 10.2766 40.1581C9.88684 39.1189 9.57559 38.0638 9.27523 37.0125C9.19936 36.747 9.35311 36.4702 9.61863 36.3944Z" fill="black"/>
    <path fill-rule="evenodd" clip-rule="evenodd" d="M9.04594 38.7389C9.18801 38.5021 9.49514 38.4253 9.73193 38.5674C10.2175 38.8587 10.7104 39.1829 11.2021 39.5063C11.247 39.5359 11.2919 39.5654 11.3368 39.5949C11.8769 39.9498 12.4176 40.3022 12.9679 40.6234C14.0724 41.2681 15.1765 41.7633 16.3098 41.8892C16.5842 41.9197 16.782 42.1669 16.7515 42.4413C16.721 42.7158 16.4738 42.9136 16.1994 42.8831C14.8599 42.7342 13.6121 42.1573 12.4638 41.4871C11.8878 41.1509 11.327 40.7851 10.7876 40.4306C10.7434 40.4015 10.6994 40.3726 10.6555 40.3437C10.16 40.0179 9.68428 39.705 9.21744 39.4249C8.98065 39.2828 8.90386 38.9757 9.04594 38.7389Z" fill="black"/>
    <path fill-rule="evenodd" clip-rule="evenodd" d="M10.4642 39.9952C10.6912 40.1524 10.7478 40.4639 10.5907 40.6909C10.1092 41.3863 9.59732 42.0735 9.0913 42.7528C8.82473 43.1107 8.55979 43.4663 8.30182 43.8198C7.54638 44.855 6.83342 45.8939 6.24162 46.9986C6.11122 47.242 5.80818 47.3336 5.56477 47.2032C5.32135 47.0728 5.22974 46.7697 5.36014 46.5263C5.9848 45.3603 6.7299 44.2774 7.49405 43.2303C7.76465 42.8595 8.03562 42.4958 8.30479 42.1346C8.80347 41.4652 9.29597 40.8042 9.76846 40.1217C9.92565 39.8946 10.2371 39.838 10.4642 39.9952Z" fill="black"/>
    <path fill-rule="evenodd" clip-rule="evenodd" d="M6.55868 45.7256C6.74259 45.5196 7.05867 45.5017 7.26465 45.6856C7.74373 46.1134 8.28466 46.5952 8.86094 47.0028C9.44114 47.4133 10.0183 47.7198 10.5609 47.8283C10.8317 47.8824 11.0073 48.1458 10.9531 48.4166C10.899 48.6874 10.6356 48.863 10.3648 48.8089C9.62139 48.6602 8.90924 48.2619 8.28345 47.8192C7.65474 47.3745 7.07389 46.8559 6.6009 46.4336L6.59864 46.4316C6.39265 46.2477 6.37476 45.9316 6.55868 45.7256Z" fill="black"/>
    <path fill-rule="evenodd" clip-rule="evenodd" d="M0.827089 32.5324C1.04219 32.3593 1.35694 32.3932 1.53011 32.6083C1.72967 32.8562 1.9312 33.1213 2.13897 33.3945C2.53726 33.9184 2.95848 34.4724 3.43264 34.9932C4.14997 35.7811 4.88219 36.3643 5.62779 36.53C5.89736 36.5899 6.06732 36.857 6.00742 37.1265C5.94751 37.3961 5.68043 37.5661 5.41086 37.5062C4.34826 37.27 3.43914 36.4858 2.69319 35.6664C2.19176 35.1156 1.71567 34.4903 1.30105 33.9458C1.10231 33.6848 0.917692 33.4423 0.751176 33.2354C0.578005 33.0203 0.611992 32.7056 0.827089 32.5324Z" fill="black"/>
    <path fill-rule="evenodd" clip-rule="evenodd" d="M1.13682 20.2735C1.41295 20.2713 1.63851 20.4935 1.64061 20.7696C1.66845 24.4261 1.71236 28.0621 2.00003 31.6884C2.06246 32.4754 2.14903 33.1978 2.33194 33.9295C2.39891 34.1974 2.23603 34.4688 1.96813 34.5358C1.70023 34.6028 1.42877 34.4399 1.36179 34.172C1.15934 33.3622 1.06736 32.5768 1.00316 31.7675C0.712315 28.1012 0.668469 24.4321 0.64064 20.7772C0.638537 20.5011 0.860684 20.2756 1.13682 20.2735Z" fill="black"/>
    <path fill-rule="evenodd" clip-rule="evenodd" d="M20.0288 24.0875C20.3041 24.0657 20.545 24.2711 20.5668 24.5464C20.8069 27.5712 20.86 30.6236 20.9127 33.6531C20.9347 34.9157 20.9566 36.1744 20.9919 37.4254C20.9997 37.7014 20.7823 37.9315 20.5062 37.9393C20.2302 37.9471 20.0001 37.7297 19.9923 37.4536C19.9563 36.1788 19.9342 34.9066 19.9121 33.6368C19.8597 30.6208 19.8075 27.618 19.57 24.6255C19.5481 24.3502 19.7536 24.1094 20.0288 24.0875Z" fill="black"/>
    <path fill-rule="evenodd" clip-rule="evenodd" d="M18.5384 33.0426C18.7048 32.8222 19.0183 32.7783 19.2387 32.9447C20.4032 33.8235 21.5373 34.7219 22.6658 35.6158C25.0392 37.4959 27.3875 39.356 29.9399 40.9725C30.1732 41.1202 30.2425 41.4291 30.0948 41.6624C29.947 41.8957 29.6381 41.9651 29.4048 41.8173C26.8081 40.1727 24.3885 38.2565 21.992 36.3586C20.8737 35.4729 19.7603 34.5912 18.6363 33.7429C18.4159 33.5765 18.3721 33.263 18.5384 33.0426Z" fill="black"/>
    <path fill-rule="evenodd" clip-rule="evenodd" d="M38.2496 32.7424C38.4264 32.9546 38.3978 33.2698 38.1856 33.4466C36.5675 34.7951 34.8827 36.0668 33.2092 37.3299C32.9148 37.5521 32.6208 37.7741 32.3275 37.9962C30.3622 39.4842 28.4274 40.9802 26.6184 42.6146C26.4135 42.7997 26.0973 42.7837 25.9122 42.5788C25.7271 42.3739 25.7431 42.0577 25.948 41.8726C27.7918 40.2067 29.7568 38.6883 31.7238 37.1989C32.0195 36.975 32.3151 36.7519 32.6104 36.529C34.2845 35.2654 35.9474 34.0101 37.5454 32.6784C37.7576 32.5016 38.0729 32.5303 38.2496 32.7424Z" fill="black"/>
    <path fill-rule="evenodd" clip-rule="evenodd" d="M38.324 20.2747C38.5995 20.2941 38.8071 20.5331 38.7877 20.8086C38.6357 22.9685 38.553 25.1369 38.4699 27.3149C38.4539 27.7324 38.438 28.1504 38.4215 28.5687C38.3194 31.1643 38.1981 33.7695 37.939 36.3605C37.9115 36.6352 37.6665 36.8357 37.3917 36.8082C37.1169 36.7808 36.9164 36.5357 36.9439 36.261C37.1998 33.7024 37.3203 31.123 37.4223 28.5294C37.4387 28.1136 37.4545 27.6973 37.4704 27.2807C37.5535 25.1029 37.6369 22.9158 37.7902 20.7384C37.8095 20.4629 38.0486 20.2553 38.324 20.2747Z" fill="black"/>
    <path fill-rule="evenodd" clip-rule="evenodd" d="M30.6604 18.3888C30.8081 18.6221 30.7388 18.931 30.5055 19.0787C28.5183 20.3373 26.6372 21.7507 24.7634 23.2029C24.3423 23.5292 23.9212 23.8578 23.4994 24.187C22.0492 25.3186 20.5896 26.4576 19.0889 27.5371C18.8647 27.6983 18.5523 27.6473 18.391 27.4231C18.2298 27.199 18.2808 26.8865 18.5049 26.7253C19.9882 25.6583 21.4271 24.5356 22.8745 23.4061C23.2988 23.0751 23.7237 22.7435 24.1508 22.4125C26.0295 20.9565 27.9413 19.519 29.9705 18.2339C30.2037 18.0862 30.5126 18.1555 30.6604 18.3888Z" fill="black"/>
    <path fill-rule="evenodd" clip-rule="evenodd" d="M29.5361 19.2311C29.6868 18.9997 29.9966 18.9343 30.228 19.085C30.8602 19.4967 31.5012 19.9004 32.1439 20.3053C34.5424 21.8162 36.9662 23.3431 39.0593 25.3587C39.2582 25.5503 39.2642 25.8668 39.0727 26.0657C38.8811 26.2646 38.5646 26.2706 38.3657 26.079C36.3538 24.1416 34.0431 22.6853 31.6574 21.1816C31.0031 20.7692 30.3432 20.3533 29.6823 19.923C29.4509 19.7723 29.3855 19.4625 29.5361 19.2311Z" fill="black"/>
    <path fill-rule="evenodd" clip-rule="evenodd" d="M32.3782 20.1333C32.6541 20.1448 32.8684 20.3777 32.8569 20.6536L32.8535 20.7357C32.6938 24.5692 32.5342 28.3979 32.4334 32.2283C32.4262 32.5043 32.1965 32.7222 31.9204 32.715C31.6444 32.7077 31.4265 32.478 31.4338 32.202C31.5348 28.3639 31.6946 24.5287 31.8542 20.6977C31.8554 20.6691 31.8566 20.6406 31.8578 20.612C31.8693 20.3361 32.1023 20.1218 32.3782 20.1333Z" fill="black"/>
    <path fill-rule="evenodd" clip-rule="evenodd" d="M32.0801 31.5391C32.2204 31.7769 32.1413 32.0835 31.9034 32.2237C30.4596 33.0752 29.1209 34.0755 27.758 35.0938C27.7208 35.1217 27.6835 35.1495 27.6461 35.1774C26.2522 36.2187 24.8304 37.2744 23.2814 38.1596C23.0416 38.2966 22.7362 38.2133 22.5992 37.9735C22.4622 37.7338 22.5455 37.4283 22.7852 37.2913C24.2732 36.4411 25.6483 35.4217 27.0476 34.3763C27.0904 34.3443 27.1331 34.3124 27.1759 34.2804C28.5265 33.2712 29.9038 32.242 31.3954 31.3624C31.6333 31.2221 31.9398 31.3012 32.0801 31.5391Z" fill="black"/>
    <path fill-rule="evenodd" clip-rule="evenodd" d="M30.9021 31.3247C31.0033 31.0678 31.2937 30.9415 31.5506 31.0427C32.6312 31.4684 33.7483 31.8241 34.8838 32.1857C35.0406 32.2356 35.1977 32.2856 35.3551 32.336C36.645 32.7484 37.9505 33.1804 39.1978 33.7347C39.4501 33.8469 39.5638 34.1424 39.4516 34.3947C39.3395 34.6471 39.044 34.7607 38.7916 34.6486C37.5991 34.1185 36.3399 33.7007 35.0506 33.2884C34.8948 33.2386 34.7385 33.1889 34.5818 33.139C33.4496 32.7786 32.2982 32.412 31.1841 31.9732C30.9271 31.8719 30.8009 31.5816 30.9021 31.3247Z" fill="black"/>
    <path fill-rule="evenodd" clip-rule="evenodd" d="M1.06862 29.4645C1.26296 29.2683 1.57954 29.2669 1.77572 29.4612C1.83987 29.5248 1.90388 29.5882 1.96777 29.6516C2.99961 30.6747 4.00173 31.6684 5.11863 32.5275C5.33751 32.6959 5.37845 33.0098 5.21009 33.2287C5.04172 33.4476 4.7278 33.4885 4.50892 33.3202C3.34026 32.4212 2.29617 31.3857 1.27463 30.3726C1.20698 30.3055 1.13942 30.2385 1.07194 30.1716C0.875762 29.9773 0.874276 29.6607 1.06862 29.4645Z" fill="black"/>
    <path fill-rule="evenodd" clip-rule="evenodd" d="M0.666773 24.3577C0.872647 24.1737 1.18873 24.1914 1.37277 24.3972C2.30822 25.4437 3.30785 26.4066 4.32286 27.3842C4.8379 27.8803 5.3569 28.3803 5.87349 28.8968C6.06875 29.0921 6.06875 29.4087 5.87349 29.604C5.67823 29.7992 5.36164 29.7992 5.16638 29.604C4.67836 29.1159 4.174 28.63 3.66576 28.1402C2.63412 27.1462 1.58651 26.1368 0.627237 25.0637C0.443197 24.8578 0.460898 24.5417 0.666773 24.3577Z" fill="black"/>
    <path fill-rule="evenodd" clip-rule="evenodd" d="M9.78449 18.6338C9.95223 18.4144 10.266 18.3726 10.4854 18.5403C11.565 19.3659 12.5873 20.2654 13.5916 21.149C13.7895 21.3231 13.9866 21.4965 14.1834 21.6687C14.3912 21.8505 14.4122 22.1664 14.2304 22.3742C14.0486 22.582 13.7327 22.6031 13.5249 22.4213C13.3237 22.2453 13.1236 22.0692 12.924 21.8936C11.9198 21.0102 10.9277 20.1375 9.87794 19.3347C9.65859 19.167 9.61674 18.8532 9.78449 18.6338Z" fill="black"/>
    <path fill-rule="evenodd" clip-rule="evenodd" d="M11.1509 7.54935C11.2791 7.30473 11.5812 7.2103 11.8259 7.33844C12.4425 7.66143 13.0937 7.93739 13.7669 8.22268C13.868 8.26553 13.9696 8.30858 14.0717 8.35204C14.8435 8.68073 15.6361 9.03039 16.371 9.47132C16.6078 9.6134 16.6846 9.92053 16.5425 10.1573C16.4005 10.3941 16.0933 10.4709 15.8565 10.3288C15.1867 9.92689 14.4509 9.60044 13.6799 9.2721C13.5806 9.22983 13.4806 9.18748 13.3802 9.14492C12.71 8.86107 12.0176 8.56775 11.3618 8.22427C11.1172 8.09614 11.0228 7.79396 11.1509 7.54935Z" fill="black"/>
    <path fill-rule="evenodd" clip-rule="evenodd" d="M14.6337 4.45608C14.8306 4.26242 15.1471 4.26499 15.3408 4.46183C15.8691 4.99876 16.5257 5.64338 17.2326 6.18987C17.9478 6.74285 18.6677 7.15798 19.3199 7.28841C19.5906 7.34257 19.7663 7.60598 19.7121 7.87676C19.6579 8.14754 19.3945 8.32315 19.1238 8.26899C18.2437 8.09297 17.3758 7.56468 16.6209 6.981C15.8576 6.39084 15.1616 5.70559 14.628 5.16317C14.4343 4.96632 14.4369 4.64975 14.6337 4.45608Z" fill="black"/>
    <path fill-rule="evenodd" clip-rule="evenodd" d="M33.0291 3.21576C33.2876 3.11851 33.5759 3.2492 33.6732 3.50766C33.9321 4.19584 34.1367 4.92493 34.3347 5.63073C34.381 5.79572 34.4269 5.95943 34.4731 6.12104C34.7209 6.9881 34.9792 7.80866 35.3474 8.54504C35.4709 8.79203 35.3708 9.09237 35.1238 9.21586C34.8768 9.33936 34.5765 9.23925 34.453 8.99226C34.0401 8.16654 33.761 7.26868 33.5116 6.39581C33.4623 6.22344 33.4143 6.05247 33.3667 5.88299C33.1695 5.18041 32.9794 4.50353 32.7372 3.8598C32.64 3.60134 32.7707 3.313 33.0291 3.21576Z" fill="black"/>
    <path fill-rule="evenodd" clip-rule="evenodd" d="M47.6436 18.4495C47.9132 18.3896 48.1803 18.5596 48.2402 18.8291C48.4248 19.6601 48.579 20.5053 48.7313 21.34C48.8034 21.7352 48.8751 22.1281 48.9494 22.516C49.0013 22.7872 48.8235 23.0492 48.5523 23.1011C48.2811 23.1531 48.0192 22.9753 47.9672 22.7041C47.8894 22.2974 47.8159 21.8949 47.743 21.495C47.5927 20.671 47.4445 19.8586 47.264 19.0461C47.2041 18.7765 47.374 18.5094 47.6436 18.4495Z" fill="black"/>
    <path fill-rule="evenodd" clip-rule="evenodd" d="M25.8281 35.9651C25.9424 35.7137 26.2388 35.6025 26.4902 35.7168C27.8483 36.3341 29.1704 36.9975 30.4777 37.7105C30.7201 37.8428 30.8094 38.1465 30.6772 38.3889C30.545 38.6313 30.2413 38.7206 29.9988 38.5884C28.7117 37.8863 27.4112 37.2339 26.0764 36.6272C25.825 36.5129 25.7139 36.2165 25.8281 35.9651Z" fill="black"/>
    <path fill-rule="evenodd" clip-rule="evenodd" d="M29.1525 33.4432C29.3327 33.234 29.6484 33.2105 29.8576 33.3907C30.9807 34.3583 32.3527 35.1453 33.7648 35.5487C34.0303 35.6246 34.1841 35.9013 34.1082 36.1669C34.0323 36.4324 33.7556 36.5861 33.4901 36.5103C31.9208 36.0619 30.4226 35.1975 29.2049 34.1483C28.9957 33.9681 28.9722 33.6524 29.1525 33.4432Z" fill="black"/>
    <path fill-rule="evenodd" clip-rule="evenodd" d="M31.5848 27.7341C31.6411 27.4637 31.906 27.2902 32.1763 27.3465C32.9898 27.516 33.7855 27.7512 34.5577 27.9795C34.578 27.9855 34.5983 27.9915 34.6185 27.9975C35.4168 28.2334 36.1908 28.4602 36.9748 28.617C37.2456 28.6711 37.4212 28.9345 37.367 29.2053C37.3129 29.4761 37.0495 29.6517 36.7787 29.5976C35.9438 29.4306 35.1278 29.1907 34.3351 28.9565C34.3202 28.9521 34.3053 28.9477 34.2904 28.9433C33.5065 28.7116 32.7451 28.4865 31.9723 28.3255C31.702 28.2692 31.5285 28.0044 31.5848 27.7341Z" fill="black"/>
    <path fill-rule="evenodd" clip-rule="evenodd" d="M32 23.8389C32.0243 23.5638 32.267 23.3605 32.542 23.3848C33.3953 23.4601 34.2248 23.6419 35.0256 23.8357C35.2078 23.8798 35.3878 23.9243 35.5664 23.9685C36.1831 24.121 36.7821 24.2691 37.3899 24.3796C37.6616 24.429 37.8418 24.6893 37.7924 24.961C37.743 25.2327 37.4827 25.4129 37.2111 25.3635C36.5693 25.2468 35.9297 25.0886 35.308 24.9348C35.1339 24.8917 34.9613 24.849 34.7904 24.8076C33.9983 24.6159 33.2292 24.4493 32.4541 24.3809C32.1791 24.3566 31.9757 24.114 32 23.8389Z" fill="black"/>
    <path fill-rule="evenodd" clip-rule="evenodd" d="M8.0477 42.0064C8.18016 41.7641 8.48396 41.675 8.72626 41.8075C10.086 42.5508 11.2722 43.5787 12.4 44.5558C12.6179 44.7447 12.8337 44.9316 13.0481 45.1143C13.2583 45.2933 13.2835 45.6089 13.1045 45.8191C12.9254 46.0293 12.6098 46.0546 12.3996 45.8755C12.1717 45.6814 11.9468 45.4867 11.7233 45.2933C10.595 44.3167 9.50358 43.3721 8.24659 42.6849C8.00429 42.5525 7.91524 42.2487 8.0477 42.0064Z" fill="black"/>
    <defs>
        <linearGradient id="paint0_linear_12009_301962" x1="52.709" y1="-67.3639" x2="-10.0796" y2="191.353" gradientUnits="userSpaceOnUse">
            <stop offset="0.262754" stop-color="#B2EEC0"/>
            <stop offset="0.949452" stop-color="#62F91F" stop-opacity="0.69"/>
        </linearGradient>
    </defs>
</svg>