<svg fill="none" xmlns="http://www.w3.org/2000/svg" viewBox="0 0 16 16"><circle cx="8" cy="8" r="6.145" stroke="#B0B1C3" stroke-width="1.043"/><path stroke="#B0B1C3" stroke-width="1.043" d="m3.369 3.742 8.333 8.334"/><path fill-rule="evenodd" clip-rule="evenodd" d="M8.486 3.864a.479.479 0 0 1 .459.009l3.027 1.73a.24.24 0 0 1 .121.207v3.307c0 .166-.086.32-.227.407l-4.251 2.63a.24.24 0 0 1-.244.005l-3.318-1.875a.479.479 0 0 1-.244-.417v-3.3c0-.09.05-.171.13-.212l4.547-2.491Zm.222.424L4.566 6.567l2.918 1.522L11.37 5.81 8.708 4.288ZM7.25 8.507 4.288 6.962v2.905l2.962 1.674V8.507Zm.478-.007v3.022l3.886-2.405V6.223L7.728 8.5Z" fill="#4F5162"/></svg>