<svg xmlns="http://www.w3.org/2000/svg" viewBox="0 0 28 28" fill="none" xmlns:v="https://vecta.io/nano"><path d="M1.946 7.041L14.023.125l12.076 6.916v13.82l-12.076 6.916L1.946 20.86V7.041z" fill="#c00"/><path d="M14.361 13.944l11.23-6.36.451 12.821-11.681 6.938V13.944z" fill="#fff"/><path d="M25.76 7.195l-.034 13.587-11.715 6.682-.056-13.354L25.76 7.195zm-9.853 8.025l.034 8.925 3.894-2.231-.011-6.727 1.964-1.143v6.749l1.964-1.132.011-9.036-7.855 4.596h0z" fill="#c00"/><path d="M14.789.225c-.542-.3-1.411-.3-1.953 0L2.137 6.274a2.1 2.1 0 0 0-.971 1.654v12.099c0 .61.44 1.354.971 1.654l10.699 6.05c.542.3 1.411.3 1.953 0l10.699-6.05c.542-.3.971-1.055.971-1.654V7.928c0-.611-.44-1.354-.971-1.654L14.789.225zm9.492 6.327c.542.3.542.799 0 1.099l-9.367 5.295c-.542.3-1.411.3-1.953 0L3.458 7.573c-.542-.3-.542-.799 0-1.099l9.367-5.295c.542-.3 1.411-.3 1.953 0l9.503 5.372h0zM2.002 8.805c0-.61.44-.855.971-.555l9.582 5.417c.542.3.971 1.055.971 1.654v10.745c0 .611-.44.855-.971.555l-9.582-5.417a2.1 2.1 0 0 1-.971-1.654V8.805zm13.352 17.649c-.542.3-.971.056-.971-.555V15.321c0-.611.44-1.354.97-1.654l9.3-5.25c.542-.3.971-.056.971.555V19.55c0 .611-.44 1.354-.971 1.654l-9.3 5.25h0z" fill="#910505"/></svg>