<svg width="24" height="24" viewBox="0 0 24 24" fill="none" xmlns="http://www.w3.org/2000/svg">
<path fill-rule="evenodd" clip-rule="evenodd" d="M2.25049 11.9922C2.25049 17.377 6.61571 21.7422 12.0005 21.7422C17.3853 21.7422 21.7505 17.377 21.7505 11.9922C21.7505 6.60741 17.3853 2.24219 12.0005 2.24219C6.61571 2.24219 2.25049 6.60741 2.25049 11.9922ZM12.0006 15.7476C12.6219 15.7476 13.1256 16.2513 13.1256 16.8726C13.1256 17.4939 12.6219 17.9976 12.0006 17.9976C11.3793 17.9976 10.8756 17.4939 10.8756 16.8726C10.8756 16.2513 11.3793 15.7476 12.0006 15.7476ZM12.7509 13.4851C12.7509 13.8993 12.4152 14.2351 12.0009 14.2351C11.5867 14.2351 11.2509 13.8994 11.2509 13.4851L11.2509 6.77058C11.2509 6.35637 11.5867 6.02058 12.0009 6.02058C12.4151 6.02058 12.7509 6.35636 12.7509 6.77058L12.7509 13.4851Z" fill="white"/>
</svg>
