<svg viewBox="0 0 20 20" fill="currentColor" xmlns="http://www.w3.org/2000/svg"><g clip-path="url(#a)"><path d="M17.445.074H2.555A2.482 2.482 0 0 0 .074 2.555v14.89a2.482 2.482 0 0 0 2.481 2.481h14.89a2.482 2.482 0 0 0 2.481-2.481V2.555A2.482 2.482 0 0 0 17.445.074Z" fill="#F68423"/><path d="M16.243 8.486a12.416 12.416 0 0 0-4.537-1.532v-4.02L9.354 4.45v2.443c-7.29.57-11.442 8.091 0 10.174l2.352-1.514V8.538a12.47 12.47 0 0 1 3.025.957l-1.345.842h4.369v-2.86l-1.512 1.009Zm-6.89-.065v7.13c-7.09-.92-5.46-6.667 0-7.13Z" fill="#fff"/></g><defs><clipPath id="a"><path fill="#fff" transform="translate(.074 .074)" d="M0 0h19.852v19.852H0z"/></clipPath></defs></svg>