<svg xmlns="http://www.w3.org/2000/svg" fill="none" shape-rendering="geometricPrecision" viewBox="0 0 22 22"><rect width="22" height="22" fill="#000" rx="3" ry="3"/><path fill="#fff" d="M9.369 9.05V7.733c0-.11.042-.194.14-.25l2.65-1.526a2.5 2.5 0 0 1 1.234-.305c1.666 0 2.72 1.29 2.72 2.665 0 .096 0 .207-.014.318l-2.747-1.61a.46.46 0 0 0-.5 0zm6.189 5.134v-3.15a.46.46 0 0 0-.25-.43l-3.482-2.026 1.138-.652a.25.25 0 0 1 .277 0l2.65 1.526c.764.444 1.277 1.388 1.277 2.303a2.62 2.62 0 0 1-1.61 2.429m-7.007-2.775-1.137-.667c-.097-.055-.139-.138-.139-.249V7.441c0-1.484 1.138-2.609 2.678-2.609a2.6 2.6 0 0 1 1.582.541L8.8 6.955a.46.46 0 0 0-.249.43zM11 12.824l-1.631-.915V9.966L11 9.051l1.63.915v1.943zm1.047 4.218a2.6 2.6 0 0 1-1.582-.54l2.734-1.583a.46.46 0 0 0 .25-.43v-4.023l1.152.666a.27.27 0 0 1 .138.25v3.051c0 1.485-1.151 2.61-2.691 2.61M8.76 13.947l-2.65-1.526c-.763-.444-1.277-1.387-1.277-2.303 0-1.069.638-2.025 1.624-2.429v3.164c0 .194.083.334.25.43l3.467 2.012-1.137.652a.25.25 0 0 1-.278 0m-.152 2.275c-1.568 0-2.72-1.178-2.72-2.635 0-.111.014-.222.028-.333l2.733 1.582a.46.46 0 0 0 .5 0l3.482-2.012v1.318c0 .11-.042.194-.138.25l-2.65 1.526a2.5 2.5 0 0 1-1.235.305m3.44 1.652a3.47 3.47 0 0 0 3.4-2.775C17.001 14.697 18 13.24 18 11.756a3.5 3.5 0 0 0-1.165-2.594c.07-.292.11-.583.11-.875a3.462 3.462 0 0 0-4.565-3.289A3.48 3.48 0 0 0 9.952 4a3.47 3.47 0 0 0-3.4 2.775C5 7.178 4 8.634 4 10.119a3.5 3.5 0 0 0 1.166 2.595 3.8 3.8 0 0 0-.112.874c0 1.984 1.61 3.468 3.47 3.468.374 0 .734-.056 1.096-.18a3.48 3.48 0 0 0 2.427 1"/><rect width="21.4" height="21.4" x=".3" y=".3" stroke="var(--cn-comp-avatar-shadow)" stroke-width=".6" rx="3" ry="3"/></svg>