<svg viewBox="0 0 5 15" fill="currentColor" xmlns="http://www.w3.org/2000/svg"><path fill-rule="evenodd" clip-rule="evenodd" d="M2.211 12.213c-.622 0-1.04.446-1.04.893s.418.893 1.04.893c.622 0 1.04-.446 1.04-.893s-.418-.893-1.04-.893Zm-2.04.893c0-1.091.962-1.893 2.04-1.893s2.04.802 2.04 1.893-.962 1.893-2.04 1.893-2.04-.802-2.04-1.893Zm2.04-11.108c-.622 0-1.04.446-1.04.893s.418.893 1.04.893c.622 0 1.04-.446 1.04-.893s-.418-.893-1.04-.893Zm-2.04.893c0-1.091.962-1.893 2.04-1.893s2.04.802 2.04 1.893-.962 1.893-2.04 1.893S.171 3.982.171 2.89Zm2.04 4.213c-.622 0-1.04.445-1.04.892 0 .448.418.893 1.04.893.622 0 1.04-.445 1.04-.893 0-.447-.418-.892-1.04-.892Zm-2.04.892c0-1.09.962-1.892 2.04-1.892s2.04.801 2.04 1.892c0 1.092-.962 1.893-2.04 1.893S.171 9.088.171 7.996Z"/></svg>