<svg viewBox="0 0 14 14" fill="none" xmlns="http://www.w3.org/2000/svg"><path fill-rule="evenodd" clip-rule="evenodd" d="M1.986.066h-.053c-.244 0-.454 0-.64.045A1.6 1.6 0 0 0 .111 1.293c-.045.186-.045.396-.045.64V4.6c0 .244 0 .454.045.64a1.6 1.6 0 0 0 1.182 1.182c.186.045.396.045.64.045H4.6c.244 0 .454 0 .64-.045A1.6 1.6 0 0 0 6.422 5.24c.045-.186.045-.396.045-.64V1.933c0-.244 0-.454-.045-.64A1.6 1.6 0 0 0 5.24.111C5.054.066 4.844.066 4.6.066H1.986Zm-.444 1.082c.046-.011.116-.015.444-.015h2.56c.329 0 .4.004.445.015.195.047.347.199.394.394.011.046.015.116.015.444v2.56c0 .329-.004.4-.015.445a.533.533 0 0 1-.394.394c-.046.011-.116.015-.445.015h-2.56c-.328 0-.398-.004-.444-.015a.533.533 0 0 1-.394-.394c-.011-.046-.015-.116-.015-.445v-2.56c0-.328.004-.398.015-.444a.533.533 0 0 1 .394-.394ZM9.453.066H9.4c-.243 0-.453 0-.64.045a1.6 1.6 0 0 0-1.182 1.182c-.044.186-.044.396-.044.64V4.6c0 .244 0 .454.044.64A1.6 1.6 0 0 0 8.76 6.422c.186.045.396.045.64.045h2.667c.243 0 .454 0 .64-.045a1.6 1.6 0 0 0 1.182-1.182c.045-.186.045-.396.044-.64V1.933c0-.244 0-.454-.044-.64A1.6 1.6 0 0 0 12.707.111c-.186-.045-.397-.045-.64-.045H9.453ZM9.01 1.148c.046-.011.116-.015.444-.015h2.56c.329 0 .399.004.445.015.195.047.347.199.394.394.01.046.014.116.014.444v2.56c0 .329-.003.4-.014.445a.534.534 0 0 1-.394.394c-.046.011-.117.015-.445.015h-2.56c-.328 0-.398-.004-.444-.015a.533.533 0 0 1-.394-.394c-.011-.046-.015-.116-.015-.445v-2.56c0-.328.004-.398.015-.444a.533.533 0 0 1 .394-.394ZM1.933 7.533H4.6c.244 0 .454 0 .64.044A1.6 1.6 0 0 1 6.422 8.76c.045.186.045.396.045.64v2.667c0 .243 0 .454-.045.64a1.6 1.6 0 0 1-1.182 1.182c-.186.045-.396.045-.64.044H1.933c-.244 0-.454 0-.64-.044a1.6 1.6 0 0 1-1.182-1.182c-.045-.186-.045-.397-.045-.64V9.399c0-.243 0-.453.045-.64a1.6 1.6 0 0 1 1.182-1.182c.186-.044.396-.044.64-.044ZM1.986 8.6c-.328 0-.398.004-.444.015a.533.533 0 0 0-.394.394c-.011.046-.015.116-.015.444v2.56c0 .329.004.399.015.445.047.195.199.347.394.394.046.01.116.014.444.014h2.56c.329 0 .4-.003.445-.014a.534.534 0 0 0 .394-.394c.011-.046.015-.117.015-.445v-2.56c0-.328-.004-.398-.015-.444a.533.533 0 0 0-.394-.394c-.046-.011-.116-.015-.445-.015h-2.56Zm7.467-1.067H9.4c-.243 0-.453 0-.64.044A1.6 1.6 0 0 0 7.578 8.76c-.044.186-.044.396-.044.64v2.667c0 .243 0 .454.044.64a1.6 1.6 0 0 0 1.183 1.182c.186.045.396.045.64.044h2.667c.243 0 .454 0 .64-.044a1.6 1.6 0 0 0 1.182-1.182c.045-.186.045-.397.044-.64V9.399c0-.243 0-.453-.044-.64a1.6 1.6 0 0 0-1.182-1.182c-.186-.044-.397-.044-.64-.044H9.453ZM9.01 8.615c.046-.011.116-.015.444-.015h2.56c.329 0 .399.004.445.015.195.046.347.199.394.394.01.046.014.116.014.444v2.56c0 .329-.003.399-.014.445a.534.534 0 0 1-.394.394c-.046.01-.117.014-.445.014h-2.56c-.328 0-.398-.003-.444-.014a.534.534 0 0 1-.394-.394c-.011-.046-.015-.117-.015-.445v-2.56c0-.328.004-.398.015-.444a.533.533 0 0 1 .394-.394Z" fill="currentColor"/></svg>