<svg viewBox="0 0 16 4" xmlns="http://www.w3.org/2000/svg"><path d="m2.72.08c-1.056 0-1.92.864-1.92 1.92s.864 1.92 1.92 1.92 1.92-.864 1.92-1.92-.864-1.92-1.92-1.92zm0 3.2c-.704 0-1.28-.576-1.28-1.28s.576-1.28 1.28-1.28 1.28.576 1.28 1.28-.576 1.28-1.28 1.28zm10.56-3.2c-1.056 0-1.92.864-1.92 1.92s.864 1.92 1.92 1.92 1.92-.864 1.92-1.92-.864-1.92-1.92-1.92zm0 3.2c-.704 0-1.28-.576-1.28-1.28s.576-1.28 1.28-1.28 1.28.576 1.28 1.28-.576 1.28-1.28 1.28zm-5.28-3.2c-1.056 0-1.92.864-1.92 1.92s.864 1.92 1.92 1.92 1.92-.864 1.92-1.92-.864-1.92-1.92-1.92zm0 3.2c-.704 0-1.28-.576-1.28-1.28s.576-1.28 1.28-1.28 1.28.576 1.28 1.28-.576 1.28-1.28 1.28z" fill="#25a6f7"/></svg>