<svg xmlns="http://www.w3.org/2000/svg" width="24" height="25" fill="none" viewBox="0 0 24 25">
  <path fill="#231F20" d="M10.676 3.946V2c-4.902.72-8.798 4.525-9.64 9.38h1.96a9.573 9.573 0 0 1 7.68-7.434Z" opacity=".5"/>
  <path fill="#231F20" d="M10.676 5.713V3.946a9.573 9.573 0 0 0-7.68 7.435H4.78a7.84 7.84 0 0 1 5.897-5.668Z" opacity=".3"/>
  <path fill="#F78D0A" d="m16.207 10.589-1.453 1.455c.043.083.091.16.127.248.133.335.2.7.2 1.096v.026c0 .404-.067.77-.2 1.095-.133.328-.319.61-.555.851a2.382 2.382 0 0 1-.858.554 3.081 3.081 0 0 1-1.11.194h-1.536v-.129L8.904 17.9h3.453a5.27 5.27 0 0 0 1.943-.348 4.656 4.656 0 0 0 1.523-.954 4.18 4.18 0 0 0 .987-1.43 4.52 4.52 0 0 0 .349-1.78v-.024c0-.636-.116-1.227-.349-1.774a4.248 4.248 0 0 0-.603-1Z"/>
  <path fill="#F78D0A" d="M10.822 10.668h1.536c.404 0 .774.067 1.11.2.335.134.621.32.858.56.173.177.31.389.428.616l1.454-1.455a4.229 4.229 0 0 0-.385-.423 4.607 4.607 0 0 0-1.523-.948 5.355 5.355 0 0 0-1.942-.341H8.834V17.9h.07l1.918-1.92v-5.311Z" opacity=".7"/>
  <path fill="#231F20" d="M14.41 4.019v1.784a7.836 7.836 0 0 1 3.997 2.585l1.232-1.234a9.562 9.562 0 0 0-5.23-3.135Z" opacity=".3"/>
  <path fill="#F78D0A" d="M14.41 2.059v1.96a9.562 9.562 0 0 1 5.229 3.135L21 5.791a11.475 11.475 0 0 0-6.59-3.732ZM2.953 15.109H1A11.447 11.447 0 0 0 4.808 22l1.36-1.362a9.54 9.54 0 0 1-3.215-5.53Z"/>
  <path fill="#231F20" d="M4.727 15.109H2.953a9.542 9.542 0 0 0 3.216 5.53l1.233-1.235a7.82 7.82 0 0 1-2.675-4.295Z" opacity=".3"/>
</svg>
