<svg xmlns="http://www.w3.org/2000/svg" width="24" height="25" fill="none" viewBox="0 0 24 25">
  <path fill="#231F20" d="M10.676 4.375V2.43c-4.902.72-8.798 4.525-9.64 9.38h1.96a9.573 9.573 0 0 1 7.68-7.435Z" opacity=".5"/>
  <path fill="#231F20" d="M10.676 6.143V4.375a9.573 9.573 0 0 0-7.68 7.435H4.78a7.84 7.84 0 0 1 5.897-5.667Z" opacity=".3"/>
  <path fill="#fff" d="m16.207 11.019-1.453 1.455c.043.082.091.16.127.248.133.334.2.7.2 1.095v.026c0 .405-.067.77-.2 1.096-.133.327-.319.61-.555.85a2.382 2.382 0 0 1-.858.554 3.081 3.081 0 0 1-1.11.194h-1.536v-.128l-1.918 1.92h3.453c.706 0 1.353-.116 1.943-.348a4.655 4.655 0 0 0 1.523-.955 4.18 4.18 0 0 0 .987-1.43 4.52 4.52 0 0 0 .349-1.779v-.025a4.48 4.48 0 0 0-.349-1.773 4.246 4.246 0 0 0-.603-1Z"/>
  <path fill="#fff" d="M10.822 11.098h1.536c.404 0 .774.067 1.11.2.335.133.621.32.858.56.173.177.31.388.428.616l1.454-1.455a4.229 4.229 0 0 0-.385-.424 4.607 4.607 0 0 0-1.523-.947 5.355 5.355 0 0 0-1.942-.341H8.834v9.023h.07l1.918-1.92v-5.312Z" opacity=".7"/>
  <path fill="#231F20" d="M14.41 4.448v1.785a7.836 7.836 0 0 1 3.997 2.584l1.232-1.233a9.562 9.562 0 0 0-5.23-3.136Z" opacity=".3"/>
  <path fill="#fff" d="M14.41 2.488v1.96a9.562 9.562 0 0 1 5.229 3.136L21 6.22a11.475 11.475 0 0 0-6.59-3.733ZM2.953 15.538H1a11.447 11.447 0 0 0 3.808 6.892l1.36-1.362a9.54 9.54 0 0 1-3.215-5.53Z"/>
  <path fill="#231F20" d="M4.727 15.539H2.953a9.542 9.542 0 0 0 3.216 5.529l1.233-1.234a7.82 7.82 0 0 1-2.675-4.295Z" opacity=".3"/>
</svg>
