<svg viewBox="0 0 9 9" xmlns="http://www.w3.org/2000/svg"><path d="m8.20641 2.70856c-.07165.043-.14331.05733-.21496.05733-.12899 0-.25797-.07166-.34395-.18631-.12898-.21496-.28663-.40127-.44427-.58758-.15764-.15764-.14331-.4156.01433-.55891.15764-.15765.41561-.14331.55892.01433.20063.21497.38694.4586.54458.71656.12898.1863.07166.42994-.11465.54458z"/><path d="m5.98739 7.8679c.57325-.25796 1.08917-.6449 1.46178-1.1465.12898-.17197.38694-.21496.55892-.07165.17197.12898.21497.38694.07165.55891-.45859.60191-1.07484 1.08918-1.77706 1.40446-.05733.02866-.10032.02866-.15765.02866-.15764 0-.30095-.08598-.37261-.24363-.08599-.20063.01433-.44426.21497-.53025z"/><path d="m8.07816 5.40317c.12898-.47293.14331-.97453.08599-1.44746-.02867-.21496.11465-.4156.34395-.44426.21496-.02867.4156.11465.44426.34395.08599.58757.05733 1.17515-.10032 1.76273-.04299.18631-.21496.30096-.38694.30096-.02866 0-.07165 0-.10032-.01433-.21496-.07166-.34395-.28663-.28662-.50159z"/><path d="m5.74837.857647c-.05977-.205175.0581-.419958.26328-.479731s.41996.0581.47973.263276c.05977.205175-.0581.419958-.26327.479728-.20518.05978-.41996-.0581-.47974-.263273z"/><path d="m4.52451 0c.21497 0 .40127.171974.40127.401274 0 .214968-.17197.401273-.40127.401273-2.03503 0-3.697452 1.662423-3.697452 3.697453 0 .38694.057324.77388.186302 1.16082.07166.21497-.04299.42994-.257958.5016-.042993.01433-.085987.01433-.128981.01433-.171974 0-.329618-.10032-.372611-.2723-.1576434-.45859-.2293001-.93152-.2293001-1.40445 0-2.4793 2.0207001-4.5 4.5000001-4.5z"/><path d="m1.80158 6.99381c.70223.75955 1.69108 1.20382 2.72293 1.20382.21497 0 .40127.17197.40127.40127 0 .21497-.17197.40127-.40127.40127-1.24682 0-2.46497-.53025-3.31051-1.46178-.14331-.15764-.14331-.4156.02866-.55892.15765-.15764.40128-.14331.55892.01434z"/></svg>