<svg viewBox="0 0 16 16" xmlns="http://www.w3.org/2000/svg"><path fill-rule="evenodd" clip-rule="evenodd" d="M14.8 1.148a.638.638 0 0 1 .192.577l-2.396 13.707a.614.614 0 0 1-.43.49.584.584 0 0 1-.611-.193l-3.813-4.578-1.856 2.382a.584.584 0 0 1-.666.194.622.622 0 0 1-.398-.587V8.852l-4.46-2.32a.628.628 0 0 1-.329-.61.618.618 0 0 1 .423-.543l13.772-4.362a.581.581 0 0 1 .573.131ZM6.02 8.783v2.6l4.996-6.413-4.997 3.813Zm5.193-5.508L2.24 6.116 5.36 7.74l5.852-4.465Zm2.182.62-4.892 6.278c.023.02.045.043.065.067l3.074 3.69 1.753-10.035Z" fill="current-color"/></svg>