<svg fill="none" viewBox="0 0 18 18" xmlns="http://www.w3.org/2000/svg"><circle cx="9" cy="9" fill="#00ade4" r="9"/><path d="m2.572 2.571h12.858v12.857h-12.858z" fill="#00ade4"/><g fill="#fff"><path clip-rule="evenodd" d="m3.697 7.321a1 1 0 0 1 1-1h1.17a1 1 0 0 1 1 1v.054a1 1 0 0 1 -1 1h-1.17a1 1 0 0 1 -1-1zm3.17-.178h1.073v.41h-1.073zm-.396-.41h-2.377v1.231h2.376v-1.232zm2.459 3.338a1 1 0 0 0 -1 1v.143a1 1 0 0 0 1 1h1.214a1 1 0 0 0 1-1v-.143a1 1 0 0 0 -1-1zm1.812.429h-2.41v1.286h2.41zm1.736-3.815a1 1 0 0 0 0 1.415l.101.1a1 1 0 0 0 1.415 0l.1-.1a1 1 0 0 0 0-1.415l-.1-.1a1 1 0 0 0 -1.415 0l-.1.1zm.834-.214-.947.947.947.947.947-.947z" fill-rule="evenodd"/><path clip-rule="evenodd" d="m8.93 6.321a1 1 0 0 0 -1 1v.054a1 1 0 0 0 1 1h1.17a1 1 0 0 0 1-1v-.054a1 1 0 0 0 -1-1zm1.785.375h-2.41v1.286h2.41z" fill-rule="evenodd"/><path d="m10.77 7.141h1.607v.411h-1.607z"/></g></svg>