<svg viewBox="0 0 16 16" fill="currentColor" xmlns="http://www.w3.org/2000/svg"><path fill-rule="evenodd" clip-rule="evenodd" d="M1.58 3.587a1.2 1.2 0 0 1 1.2-1.2h10.412a1.2 1.2 0 0 1 1.2 1.2v8.792a1.2 1.2 0 0 1-1.2 1.2H2.779a1.2 1.2 0 0 1-1.2-1.2V9.565h.8v2.814c0 .221.18.4.4.4h10.413a.4.4 0 0 0 .4-.4V3.587a.4.4 0 0 0-.4-.4H2.779a.4.4 0 0 0-.4.4v2.831h-.8V3.587Z"/><path fill-rule="evenodd" clip-rule="evenodd" d="M4.55 9.83a.4.4 0 0 1-.56.084L1.801 8.301a.4.4 0 0 1 .001-.644l2.19-1.606a.4.4 0 1 1 .472.645L3.26 7.58h5.583v.8H3.256l1.209.891a.4.4 0 0 1 .085.56Z"/></svg>