<svg fill="none" xmlns="http://www.w3.org/2000/svg" viewBox="0 0 18 18"><circle cx="9" cy="9" r="9" fill="#00ADE4"/><path fill="#00ADE4" d="M2.572 2.571H15.43v12.857H2.572z"/><path fill-rule="evenodd" clip-rule="evenodd" d="M3.697 7.321a1 1 0 011-1h1.17a1 1 0 011 1v.054a1 1 0 01-1 1h-1.17a1 1 0 01-1-1v-.054zm3.17-.178H7.94v.41H6.867v-.41zm-.396-.41H4.094v1.231H6.47V6.732zM8.93 10.071a1 1 0 00-1 1v.143a1 1 0 001 1h1.214a1 1 0 001-1v-.143a1 1 0 00-1-1H8.93zm1.812.429h-2.41v1.286h2.41V10.5zM12.478 6.685a1 1 0 000 1.415l.101.1a1 1 0 001.415 0l.1-.1a1 1 0 000-1.415l-.1-.1a1 1 0 00-1.415 0l-.1.1zm.834-.214l-.947.947.947.947.947-.947-.947-.947z" fill="#fff"/><path fill-rule="evenodd" clip-rule="evenodd" d="M8.93 6.321a1 1 0 00-1 1v.054a1 1 0 001 1h1.17a1 1 0 001-1v-.054a1 1 0 00-1-1H8.93zm1.785.375h-2.41v1.286h2.41V6.696z" fill="#fff"/><path fill="#fff" d="M10.77 7.141h1.607v.411H10.77z"/></svg>