<svg viewBox="0 0 17 13" xmlns="http://www.w3.org/2000/svg"><path fill-rule="evenodd" clip-rule="evenodd" d="M6.5 1H1v2.375h5.5V1ZM1 0a1 1 0 0 0-1 1v2.375a1 1 0 0 0 1 1h5.5a1 1 0 0 0 1-1V1a1 1 0 0 0-1-1H1ZM15.25 1h-5.5v2.375h5.5V1Zm-5.5-1a1 1 0 0 0-1 1v2.375a1 1 0 0 0 1 1h5.5a1 1 0 0 0 1-1V1a1 1 0 0 0-1-1h-5.5Z" fill="current-color"/><path fill-rule="evenodd" clip-rule="evenodd" d="M9.375 3h-2.5V2h2.5v1ZM4.25 3.917v3.096c0 .416.07.705.172.91.099.198.241.342.435.453.42.24 1.079.325 2.018.325v1c-.936 0-1.84-.072-2.514-.457a2.045 2.045 0 0 1-.834-.874c-.19-.381-.277-.835-.277-1.357V3.917h1ZM13.385 6.334v-.43a.143.143 0 0 0-.143-.143h-.86a.143.143 0 0 0-.142.143v.964a.15.15 0 0 1-.107.14 2.273 2.273 0 0 0-.388.162.15.15 0 0 1-.175-.025l-.378-.378-.304-.303a.143.143 0 0 0-.202 0l-.608.607a.143.143 0 0 0 0 .203l.304.304.378.377a.15.15 0 0 1 .024.176 2.283 2.283 0 0 0-.16.387.15.15 0 0 1-.142.107h-.964a.143.143 0 0 0-.143.143v.86c0 .078.064.143.143.143h.964a.15.15 0 0 1 .141.106c.042.135.096.265.161.388a.15.15 0 0 1-.024.175l-.378.378-.304.304a.143.143 0 0 0 0 .202l.608.608a.143.143 0 0 0 .202 0l.304-.304.378-.378a.15.15 0 0 1 .175-.024c.123.065.253.119.388.16a.15.15 0 0 1 .107.142v.964c0 .079.064.143.143.143h.86c.078 0 .142-.064.142-.143v-.964a.15.15 0 0 1 .107-.141c.135-.042.265-.096.388-.161a.15.15 0 0 1 .175.024l.378.378.304.304a.143.143 0 0 0 .202 0l.608-.608a.143.143 0 0 0 0-.202l-.304-.304-.378-.378a.15.15 0 0 1-.024-.175 2.28 2.28 0 0 0 .16-.388.15.15 0 0 1 .142-.106h.964c.079 0 .143-.065.143-.144v-.859a.143.143 0 0 0-.143-.143h-.964a.15.15 0 0 1-.141-.107 2.283 2.283 0 0 0-.16-.387.15.15 0 0 1 .023-.176l.378-.377.304-.304a.143.143 0 0 0 0-.203l-.608-.607a.143.143 0 0 0-.202 0l-.304.303-.378.378a.15.15 0 0 1-.175.025 2.273 2.273 0 0 0-.388-.161.15.15 0 0 1-.107-.141v-.534Zm-.572 4.01a1.146 1.146 0 1 0 0-2.292 1.146 1.146 0 0 0 0 2.291ZM8.75 9.697H7.5v-1h1.25v1Z" fill="current-color"/></svg>