<svg width="33" height="33" viewBox="0 0 33 33" fill="none" xmlns="http://www.w3.org/2000/svg">
<path d="M8.1624 26.9752L27.8054 26.9752C28.0798 26.9752 28.3029 26.754 28.3054 26.4797L28.4831 6.68189C28.4856 6.40401 28.261 6.1774 27.9831 6.1774L21.6391 6.1771C21.3636 6.17709 21.1368 6.40004 21.1052 6.67369C20.981 7.74779 20.4246 10.1908 17.932 10.1908C15.4407 10.1908 14.8921 7.75013 14.7713 6.67507C14.7404 6.40066 14.5137 6.17673 14.2376 6.17673L8.16233 6.17685C7.88618 6.17686 7.66241 6.40071 7.66241 6.67686L7.6624 13.6708C7.6624 13.9447 7.4419 14.1709 7.17012 14.2051C6.10657 14.3391 3.68945 14.9204 3.68945 17.4378C3.68945 19.9251 6.04911 20.346 7.1314 20.4082C7.4195 20.4248 7.6624 20.6576 7.6624 20.9462V26.4752C7.6624 26.7513 7.88626 26.9752 8.1624 26.9752Z" stroke="#4F5162" stroke-linejoin="round"/>
</svg>
