<svg viewBox="0 0 24 24" fill="none" xmlns="http://www.w3.org/2000/svg">
<path d="M6.1804 19.7994L20.6637 19.7994C20.9381 19.7994 21.1613 19.5783 21.1637 19.3039L21.2948 4.70556C21.2973 4.42767 21.0727 4.20107 20.7948 4.20107L16.2873 4.20085C16.0118 4.20083 15.7852 4.42345 15.7467 4.69622C15.6259 5.55073 15.1622 7.21115 13.3826 7.21115C11.6042 7.21115 11.1457 5.55284 11.0275 4.69775C10.9897 4.42421 10.7628 4.20056 10.4867 4.20056L6.18028 4.20065C5.90414 4.20066 5.6804 4.42452 5.6804 4.70066L5.6804 9.69755C5.6804 9.97147 5.46019 10.1976 5.18939 10.2388C4.34337 10.3676 2.70068 10.8491 2.70068 12.6464C2.70068 14.4156 4.29255 14.7908 5.14925 14.8646C5.43677 14.8894 5.6804 15.1222 5.6804 15.4108V19.2994C5.6804 19.5755 5.90425 19.7994 6.1804 19.7994Z" stroke="#FFFFFF" stroke-linejoin="round"/>
</svg>
