<svg viewBox="0 0 40 41" xmlns="http://www.w3.org/2000/svg"><path clip-rule="evenodd" d="m17.8137 8.46857-7.84654.00015h.0003v8.99108c-.00001.5499-.43254.9714-.9371 1.0267-.59902.0656-1.6317.2564-2.50107.79-.8425.5171-1.52908 1.3488-1.52908 2.7684 0 1.4003.66638 2.1618 1.47891 2.6083.84789.4658 1.86476.5871 2.47778.6116.5337.0214 1.01055.4531 1.01055 1.0324v7.1694h24.80785l.2245-24.99719h.0001c-2.2596-.00002-4.568-.00017-6.4319-.00028-.6437-.00004-1.2344-.00008-1.7517-.0001-.0012 0-.0019.00011-.0032.00065-.0017.0007-.0051.00254-.0095.00664-.0094.00898-.0166.02272-.0181.03784-.0658.66034-.2663 1.87644-.8987 2.94134-.6485 1.0922-1.7604 2.0307-3.5797 2.0307-1.8187 0-2.928-.9381-3.5733-2.0305-.629-1.0649-.8257-2.28087-.8894-2.94184-.0015-.01522-.0087-.02901-.0181-.03801-.0043-.00411-.0078-.00595-.0095-.00664-.0012-.00052-.0019-.00064-.0031-.00064zm-7.84655-.99985 7.84655-.00015c.5558.00001.9773.44066 1.0263.94942.0584.60669.2362 1.65081.755 2.52921.5026.8508 1.3147 1.539 2.7121 1.539 1.3982 0 2.2136-.6891 2.7196-1.5412.5221-.8792.7031-1.92391.7635-2.52992.0505-.50752.4718-.94608 1.0261-.94605.5171.00002 1.1074.00006 1.7508.0001 1.864.00011 4.1729.00026 6.4328.00028.556 0 1.005.45331 1.0001 1.00898l-.2245 24.99721c-.0049.5487-.4513.991-1.0002.991h-24.80785c-.5524 0-1.00021-.4477-1.00021-1v-7.1694-.0001c.00003-.0006.0003-.0058-.009-.0151-.0107-.0106-.02598-.0174-.04134-.018-.66766-.0267-1.86919-.1574-2.91953-.7345-1.0857-.5965-1.99737-1.6692-1.99737-3.4846 0-1.8293.92417-2.9566 2.00599-3.6206 1.05496-.6476 2.26016-.8601 2.91543-.9319.01477-.0016.02865-.0088.03797-.0187.00839-.009.00785-.0138.00785-.0139l.00001-8.99108c0-.55189.44711-.99999.9999-1z" fill="#4f5162" fill-rule="evenodd"/></svg>