<svg fill="none" viewBox="0 0 22 24"  xmlns="http://www.w3.org/2000/svg"><path d="m10.5 2.57735c.6188-.35727 1.3812-.35727 2 0l6.6603 3.8453c.6188.35727 1 1.01752 1 1.73205v7.6906c0 .7145-.3812 1.3748-1 1.7321l-6.6603 3.8452c-.6188.3573-1.3812.3573-2 0l-6.66025-3.8452c-.61881-.3573-1-1.0176-1-1.7321v-7.6906c0-.71453.38119-1.37478 1-1.73205z" fill="#4dc952"/><path clip-rule="evenodd" d="m11.6981 6.48904c-.1045-.06217-.2346-.0625-.3394-.00086l-4.27675 2.51501 4.39655 2.60731 4.4405-2.61025zm4.5425 3.09554-4.4295 2.60372v5.0718l4.2638-2.4808c.1025-.0597.1657-.1694.1657-.2881zm-5.0962 7.67292v-5.07l-4.38463-2.6003v4.9057c0 .1182.06263.2276.16459.2875zm-.1236-11.34399c.3144-.18492.7047-.18393 1.0182.0026l4.7053 2.7994c.101.0601.1629.16894.1629.28647v5.48922c0 .3561-.1893.6853-.4971.8644l-4.7647 2.7722c-.1041.0605-.2326.0602-.3364-.0007l-4.72212-2.7718c-.30589-.1795-.49378-.5077-.49378-.8624v-5.49092c0-.11814.06253-.22745.16436-.28733z" fill="#fafcff" fill-rule="evenodd"/></svg>