<svg fill="none" viewBox="0 0 32 33" xmlns="http://www.w3.org/2000/svg"><g clip-rule="evenodd" fill="#4f5162" fill-rule="evenodd"><path d="m8 5.31616c-.55228 0-1 .44772-1 1v15.81744c0 .3647.19853.7005.51808.8762l7.99162 4.3954c.3024.1663.6691.165.9702-.0035l7.8368-4.3855c.3159-.1768.5116-.5106.5116-.8727v-7.6943c0-.5523.4478-1 1-1 .5523 0 1 .4477 1 1v7.6943c0 1.0862-.5871 2.0875-1.5349 2.618l-7.8368 4.3855c-.9034.5055-2.0036.5096-2.9108.0106l-7.99156-4.3953c-.95864-.5273-1.55424-1.5346-1.55424-2.6287v-15.81744c0-1.65685 1.34315-3 3-3h10.0564c.5523 0 1 .44772 1 1 0 .55229-.4477 1-1 1z"/><path d="m26.5411 6.84612c.3905.39053.3905 1.0237-.0001 1.41422l-10.3933 10.39316-5.5613-5.5612c-.3906-.3905-.3906-1.0237-.0001-1.4142.3906-.3905 1.0237-.3905 1.4143 0l4.1471 4.147 8.9791-8.97899c.3906-.39052 1.0237-.39051 1.4143.00001z"/></g></svg>