<svg fill="none"  viewBox="0 0 321 201" xmlns="http://www.w3.org/2000/svg" xmlns:xlink="http://www.w3.org/1999/xlink"><radialGradient id="a" cx="0" cy="0" gradientTransform="matrix(0 20.667 -115.348 0 175.215 152.985)" gradientUnits="userSpaceOnUse" r="1"><stop offset="0"/><stop offset="1" stop-color="#c4c4c4" stop-opacity="0"/></radialGradient><path d="m290.564 152.985c0 11.414-51.643 20.667-115.349 20.667-63.705 0-115.3478-9.253-115.3478-20.667s51.6428-20.667 115.3478-20.667c63.706 0 115.349 9.253 115.349 20.667z" fill="url(#a)" fill-opacity=".07"/><path d="m234.029 87.2368-50.808-3.979c0 15.6008 1.612 20.9742-7.876 29.2382s-40.897 12.105-50.08 14.554c-7.345 1.959-15.814 5.73-12.147 10.199 5.713 4.999 15.677 16.074 19.482 17.534 4.24 1.626 26.456-3.789 36.557-7.564-5.616 3.553-10.278 5.605-9.054 7.564 1.531 2.448 46.341-.109 67.21 1.733 16.88 1.49 21.509 2.953 29.365 6.626-6.611-5.632-4.591-18.67-2.755-24.485-7.59-3.673-19.282-3.571-24.179-3.061l-19.283-4.285c21.792-10.039 24.792-33.5658 23.568-44.0742z" fill="#fff"/><path d="m159.545 152.985 9.051-5.596c22.909-6.451 45.312-.713 53.651 2.963.823 1.481-2.14 2.633-15.47 2.633-11.284 0-34.066-2.633-47.232 0z" fill="#e8e8ff" opacity=".5"/><path clip-rule="evenodd" d="m181.748 82.5006c.021-.2753.262-.4808.538-.459 8.862.7019 15.244 1.8374 20.95 2.8526 1.994.355 3.907.6952 5.813.9971 7.356 1.1646 14.704 1.7743 26.584.4907.274-.0297.521.1688.55.4434.03.2745-.168.5211-.443.5508-11.978 1.2942-19.415.6796-26.847-.4972-1.933-.306-3.86-.649-5.865-1.0056-5.696-1.0135-12.011-2.1372-20.821-2.8349-.276-.0218-.481-.2626-.459-.5379z" fill="#000" fill-rule="evenodd"/><path clip-rule="evenodd" d="m183.131 82.0409c.276-.0161.513.1944.529.4701.818 14.0286-.765 22.089-5.419 27.425-2.323 2.663-5.381 4.613-9.197 6.294-3.812 1.68-8.412 3.106-13.832 4.704l-.023.006-.023.005c-15.754 3.082-26.005 5.578-32.54 7.732-3.268 1.077-5.588 2.062-7.195 2.983-1.613.924-2.461 1.755-2.853 2.501-.171.324-.152.834.236 1.612.378.76 1.054 1.661 1.965 2.665 1.818 2.005 4.483 4.326 7.294 6.637 1.403 1.154 2.837 2.301 4.213 3.401l.128.102c1.329 1.062 2.602 2.081 3.735 3.013 1.167.962 2.193 1.84 2.979 2.589.766.729 1.367 1.392 1.613 1.918.117.25.008.548-.242.664-.25.117-.548.009-.664-.241-.155-.331-.617-.874-1.397-1.617-.759-.723-1.762-1.583-2.925-2.541-1.127-.928-2.395-1.942-3.727-3.006l-.124-.1c-1.376-1.1-2.815-2.251-4.224-3.409-2.813-2.314-5.528-4.674-7.4-6.738-.934-1.029-1.68-2.009-2.12-2.892-.43-.865-.626-1.762-.225-2.522.521-.99 1.557-1.94 3.241-2.904 1.69-.968 4.081-1.978 7.379-3.065 6.593-2.173 16.889-4.677 32.638-7.759 5.417-1.597 9.95-3.005 13.689-4.653 3.74-1.648 6.655-3.523 8.847-6.037 4.376-5.017 5.99-12.7166 5.174-26.7088-.016-.2757.195-.5122.47-.5283z" fill="#000" fill-rule="evenodd"/><path clip-rule="evenodd" d="m233.175 85.4656c.276 0 .5.2238.5.5 0 13.5035-1.679 23.4334-7.115 31.4314-5.435 7.996-14.57 13.981-29.286 19.735-17.877 6.991-32.775 8.804-43.696 9.88-.859.085-1.693.165-2.5.243-4.337.416-7.922.761-10.726 1.365-3.339.72-5.387 1.774-6.304 3.575-.373.731-.496 1.232-.478 1.558.009.152.048.256.101.334s.139.156.28.226c.299.148.793.232 1.529.217.723-.016 1.623-.126 2.695-.317 2.557-.457 5.963-1.353 10.052-2.427 2.812-.739 5.948-1.563 9.352-2.388 16.626-4.028 39.405-7.998 60.667-1.563 1.046.31 2.54.875 3.577 1.571.507.34.987.764 1.194 1.272.109.27.143.568.057.874-.085.3-.273.562-.529.79-.155.137-.367.213-.543.262-.196.055-.435.1-.706.138-.544.076-1.266.13-2.134.168-1.738.076-4.105.088-6.892.061-3.816-.037-8.438-.145-13.341-.26-2.258-.054-4.576-.108-6.901-.157-7.38-.158-14.841-.264-20.77-.118-2.965.073-5.537.209-7.517.432-.991.111-1.825.243-2.481.397-.657.154-1.089.32-1.327.477.005.003.011.006.017.009.13.066.315.136.562.209.999.294 2.747.545 5.086.754 4.657.415 11.497.651 18.959.779 11.408.197 24.233.143 32.864.106 2.659-.011 4.92-.02 6.619-.02 13.358 0 22.875 3.586 28.901 5.857 1.027.387 1.953.735 2.779 1.022.261.09.399.375.308.636-.09.261-.375.399-.636.308-.843-.292-1.781-.645-2.817-1.035-6.029-2.27-15.373-5.788-28.535-5.788-1.694 0-3.95.009-6.605.02-8.631.037-21.475.091-32.895-.106-7.464-.128-14.336-.364-19.031-.783-2.337-.209-4.175-.466-5.279-.791-.279-.082-.527-.172-.731-.275-.194-.098-.397-.231-.532-.42-.158-.222-.205-.502-.087-.775.099-.228.29-.397.476-.524.393-.268.979-.47 1.676-.633.709-.167 1.585-.304 2.597-.418 2.023-.228 4.628-.365 7.604-.438 5.954-.147 13.437-.039 20.816.118 2.332.049 4.653.104 6.913.157 4.898.115 9.509.224 13.318.26 2.783.027 5.128.015 6.838-.06.857-.037 1.542-.09 2.039-.159.25-.035.44-.073.575-.111.118-.033.158-.056.158-.055.148-.134.202-.239.222-.306.017-.062.016-.132-.022-.226-.089-.219-.354-.503-.824-.817-.914-.614-2.297-1.145-3.306-1.444h-.003c-20.988-6.354-43.541-2.445-60.143 1.577-3.343.81-6.455 1.627-9.265 2.365-4.133 1.086-7.609 1.999-10.198 2.462-1.095.196-2.053.315-2.85.332-.785.017-1.475-.064-1.992-.319-.267-.132-.498-.314-.665-.561-.169-.248-.255-.533-.272-.839-.034-.593.187-1.288.585-2.069 1.138-2.234 3.601-3.369 6.985-4.099 2.865-.617 6.522-.968 10.855-1.384.805-.078 1.632-.157 2.483-.241 10.888-1.073 25.679-2.875 43.429-9.816 14.652-5.729 23.559-11.62 28.824-19.367 5.263-7.744 6.942-17.4235 6.942-30.8684 0-.2762.224-.5.5-.5z" fill="#000" fill-rule="evenodd"/><path clip-rule="evenodd" d="m233.698 137.403c.223.162.272.475.11.698-.483.664-1.7 2.267-3.153 4.179-.718.945-1.493 1.965-2.266 2.985-2.348 3.102-4.655 6.181-5.297 7.19-.148.233-.457.301-.69.153s-.302-.457-.154-.69c.67-1.053 3.012-4.177 5.344-7.256.78-1.03 1.56-2.057 2.28-3.005 1.446-1.903 2.651-3.489 3.127-4.144.163-.223.475-.273.699-.11z" fill="#000" fill-rule="evenodd"/><path clip-rule="evenodd" d="m208.469 131.372c.022-.276.264-.48.539-.458l-.041.499-.041.498c-.275-.023-.48-.264-.457-.539zm.498.041-.041.498.012.001.039.003c.034.003.085.008.152.014.135.012.333.03.588.056.51.05 1.246.128 2.149.236 1.807.217 4.278.557 6.937 1.049 2.662.492 5.503 1.134 8.052 1.954 2.56.823 4.781 1.811 6.236 2.975.216.173.53.138.703-.078.172-.215.138-.53-.078-.702-1.599-1.28-3.96-2.313-6.555-3.147-2.605-.838-5.491-1.489-8.176-1.986-2.686-.496-5.178-.839-6.999-1.058-.911-.109-1.654-.187-2.17-.239-.259-.025-.46-.044-.597-.056-.068-.006-.121-.011-.156-.014l-.041-.004-.013-.001s-.001 0-.042.499z" fill="#000" fill-rule="evenodd"/><path clip-rule="evenodd" d="m227.65 135.067c0-.277.224-.5.5-.5 11.117 0 16.752 1.046 27.543 4.129.266.076.419.353.344.618-.076.266-.353.42-.619.344-10.722-3.064-16.264-4.091-27.268-4.091-.276 0-.5-.224-.5-.5z" fill="#000" fill-rule="evenodd"/><path clip-rule="evenodd" d="m254.029 137.084c.273.04.462.294.422.567-.155 1.054-.333 2.139-.514 3.246-.503 3.071-1.034 6.31-1.181 9.517-.199 4.351.319 8.541 2.536 12.017.148.233.08.542-.153.691-.233.148-.542.08-.691-.153-2.376-3.727-2.894-8.16-2.691-12.601.15-3.27.695-6.598 1.201-9.684.179-1.094.354-2.158.504-3.178.04-.273.294-.462.567-.422z" fill="#000" fill-rule="evenodd"/><path clip-rule="evenodd" d="m169.217 147.397c.127.245.032.547-.213.674-1.367.709-3.129 1.835-4.903 2.998-.371.242-.742.487-1.109.729-1.381.909-2.712 1.786-3.782 2.425-.238.142-.545.064-.686-.173-.142-.237-.064-.544.173-.685 1.049-.627 2.355-1.487 3.733-2.394.37-.244.745-.492 1.123-.739 1.768-1.158 3.572-2.313 4.99-3.049.245-.127.547-.031.674.214z" fill="#000" fill-rule="evenodd"/><path clip-rule="evenodd" d="m190.427 96.435c.028-.2747.274-.4742.549-.4456 3.129.3254 8.1 1.0131 13.168 1.7143.323.0448.647.0896.971.1344 5.407.7476 10.797 1.4852 14.106 1.7987.275.0261.476.27.45.5452-.026.275-.27.476-.545.45-3.335-.316-8.75-1.057-14.148-1.8033-.321-.0444-.641-.0887-.961-.133-5.078-.7026-10.033-1.3881-13.145-1.7117-.275-.0286-.474-.2744-.445-.549z" fill="#000" fill-rule="evenodd"/><path clip-rule="evenodd" d="m191.877 103.171c.056-.271.32-.445.59-.39 3.925.801 15.498 3.063 19.444 3.364.276.021.482.262.461.537s-.262.482-.537.46c-4.024-.307-15.672-2.587-19.568-3.381-.27-.056-.445-.32-.39-.59z" fill="#000" fill-rule="evenodd"/><path clip-rule="evenodd" d="m185.775 113.094c.099-.258.388-.386.646-.288 4.708 1.804 14.457 6.339 18.997 8.462.251.117.358.415.242.665-.117.25-.415.358-.665.241-4.556-2.13-14.265-6.646-18.932-8.434-.257-.099-.386-.388-.288-.646z" fill="#000" fill-rule="evenodd"/><path clip-rule="evenodd" d="m180.5 116.293c.136-.24.441-.325.682-.189 1.658.938 4.4 2.397 6.912 3.733 1.6.852 3.107 1.653 4.18 2.239.242.132.332.436.2.678-.133.243-.436.332-.679.2-1.053-.575-2.547-1.37-4.142-2.218-2.524-1.343-5.298-2.819-6.964-3.761-.24-.136-.325-.441-.189-.682z" fill="#000" fill-rule="evenodd"/><path clip-rule="evenodd" d="m159.514 125.012c.168-.219.482-.26.701-.092.181.139.362.278.543.417 3.336 2.56 6.689 5.134 9.889 7.891.21.181.233.496.053.705-.18.21-.496.233-.705.053-3.178-2.738-6.511-5.296-9.852-7.86-.179-.138-.358-.275-.537-.412-.219-.169-.261-.482-.092-.702z" fill="#000" fill-rule="evenodd"/><path clip-rule="evenodd" d="m154.624 126.836c.176-.213.492-.243.704-.067.735.608 1.488 1.194 2.248 1.786.101.079.202.157.303.236.86.671 1.725 1.351 2.56 2.066.209.18.233.496.054.705-.18.21-.496.234-.705.055-.816-.699-1.664-1.367-2.524-2.037-.1-.079-.201-.157-.302-.236-.759-.591-1.524-1.187-2.271-1.804-.213-.176-.243-.491-.067-.704z" fill="#000" fill-rule="evenodd"/><path clip-rule="evenodd" d="m211.151 132.994c.157.227.1.539-.127.696-2.462 1.701-4.356 3.254-6.49 5.002-1.276 1.046-2.637 2.161-4.256 3.421-.218.169-.532.13-.702-.088-.169-.218-.13-.532.088-.701 1.572-1.224 2.919-2.326 4.191-3.369 2.161-1.77 4.111-3.367 6.601-5.088.227-.157.538-.1.695.127z" fill="#000" fill-rule="evenodd"/><path clip-rule="evenodd" d="m217.011 133.772c.182.208.16.524-.048.705l-.277-.317c.277.317.277.317.277.317l-.324.284c-.208.182-.508.444-.875.766-.733.645-1.735 1.527-2.805 2.478-2.146 1.907-4.554 4.079-5.652 5.176-.196.196-.512.195-.708 0-.195-.195-.195-.512.001-.707 1.123-1.123 3.556-3.315 5.695-5.216 1.072-.953 2.075-1.837 2.809-2.482.367-.323.668-.586.876-.768l.325-.284s.001 0 .283.324l-.283-.324c.208-.182.525-.16.706.048z" fill="#000" fill-rule="evenodd"/><path clip-rule="evenodd" d="m175.657 146.602c.13.244.039.547-.205.677-.363.195-.726.387-1.088.578-2.478 1.31-4.891 2.586-6.888 4.468-.201.19-.518.181-.707-.02s-.18-.518.021-.707c2.103-1.983 4.648-3.327 7.116-4.63.36-.191.719-.38 1.074-.57.244-.131.547-.039.677.204z" fill="#000" fill-rule="evenodd"/><path clip-rule="evenodd" d="m183.811 145.13c.126.245.029.547-.216.673-3.491 1.795-6.906 3.718-9.801 6.304-.206.184-.522.166-.706-.04s-.166-.522.04-.706c2.995-2.676 6.507-4.646 10.009-6.447.246-.126.547-.03.674.216z" fill="#000" fill-rule="evenodd"/><path clip-rule="evenodd" d="m188.845 144.815c.151.232.085.541-.147.692l-.272-.42-.272-.419c.231-.15.541-.085.691.147zm-3.592 3.019c-1.914 1.333-4.173 2.98-5.621 4.273-.206.184-.522.166-.706-.04s-.166-.522.04-.706c1.497-1.337 3.801-3.014 5.715-4.347.96-.669 1.828-1.255 2.456-1.674.313-.209.567-.377.743-.493.088-.057.156-.102.202-.132l.053-.035.019-.012s0 0 .272.419l.272.42-.017.011-.052.034c-.045.029-.113.074-.2.131-.174.114-.426.281-.737.489-.624.416-1.486.998-2.439 1.662z" fill="#000" fill-rule="evenodd"/><path clip-rule="evenodd" d="m193.868 144.927c.148.233.079.542-.155.689-3.468 2.198-5.479 4.108-7.604 6.233-.195.195-.511.195-.707 0-.195-.196-.195-.512 0-.707 2.148-2.148 4.218-4.116 7.776-6.37.233-.148.542-.079.69.155z" fill="#000" fill-rule="evenodd"/><path clip-rule="evenodd" d="m200.408 144.834c.133.242.045.546-.198.679-3.348 1.836-6.386 4.174-9.111 6.862-.196.194-.513.192-.707-.005-.194-.196-.192-.513.005-.707 2.782-2.745 5.894-5.142 9.333-7.027.242-.133.546-.044.678.198z" fill="#000" fill-rule="evenodd"/><path clip-rule="evenodd" d="m205.793 145.118c.133.242.044.546-.198.679-3.348 1.836-6.386 4.174-9.111 6.862-.197.194-.513.192-.707-.004-.194-.197-.192-.514.005-.708 2.782-2.745 5.894-5.141 9.332-7.027.243-.133.546-.044.679.198z" fill="#000" fill-rule="evenodd"/><path clip-rule="evenodd" d="m211.168 145.787c.141.237.062.544-.175.685-3.216 1.905-6.393 4.047-9.141 6.543-.205.186-.521.17-.706-.034-.186-.204-.171-.521.033-.706 2.818-2.56 6.058-4.74 9.304-6.664.237-.14.544-.062.685.176z" fill="#000" fill-rule="evenodd"/><path clip-rule="evenodd" d="m215.569 147.357c.153.23.091.541-.139.694-2.318 1.546-4.528 3.197-6.675 4.978-.213.176-.528.147-.704-.066-.177-.212-.147-.527.065-.704 2.173-1.802 4.411-3.475 6.759-5.04.23-.153.541-.091.694.138z" fill="#000" fill-rule="evenodd"/><path clip-rule="evenodd" d="m219.238 148.401c.205.186.22.502.035.706l-.371-.335c.371.335.371.335.371.335l-.002.002-.003.004-.013.014-.05.054c-.043.046-.107.115-.19.201-.166.174-.41.424-.721.73-.622.612-1.517 1.449-2.61 2.356-.212.176-.527.147-.704-.066-.176-.213-.147-.528.066-.704 1.067-.885 1.941-1.703 2.547-2.299.303-.298.539-.54.699-.707.08-.084.14-.149.181-.192l.045-.049.011-.012.002-.003c.186-.204.502-.22.707-.035z" fill="#000" fill-rule="evenodd"/><path d="m64.7402 132.096 16.7669-13.281c-10.9268-10.625-1.7269-14.914 4.2388-15.731 12.6599.377 13.8782 8.76 12.9049 12.905 6.2542 3.466 19.1222 4.27 24.7732 4.239l-20.629 4.238c2.983 11.367 8.798 34.344 8.195 35.324-.602.98-3.014-1.601-4.144-3.014-6.33-11.831-12.4969-16.296-14.789-17.05-7.0081.226-13.47 12.654-15.8249 18.839-.157-3.14-.3768-9.853 0-11.586s4.804-14.851 6.9705-21.194z" fill="#fff"/><path clip-rule="evenodd" d="m81.0631 103.612c3.4827-1.492 8.0046-1.675 10.9768-.641 1.7256.6 3.6329 1.914 5.1156 3.57 1.4794 1.653 2.5939 3.714 2.6174 5.828.0212 1.901-.4961 3.417-1.3936 4.597-.8932 1.174-2.1368 1.98-3.5175 2.514-2.7484 1.063-6.1261 1.08-8.7081.696-2.0134-.299-3.9236-.964-5.5417-1.99.4651.481.9286.844 1.3641 1.039.2521.113.3649.409.2521.661s-.4086.365-.6606.252c-1.1875-.532-2.345-1.881-3.2677-3.308-.8237-1.274-1.5131-2.693-1.9123-3.854-.0525-.151-.1017-.305-.1474-.461-.6408-2.19-.3398-4.053.6054-5.562.9348-1.493 2.4687-2.592 4.2175-3.341zm-3.7492 8.982c-.042-.124-.0801-.245-.114-.36-.5672-1.938-.2883-3.503.4933-4.751.7921-1.264 2.1321-2.253 3.7637-2.952 3.2778-1.404 7.5416-1.559 10.2544-.615 1.5407.536 3.3105 1.741 4.6991 3.292 1.3918 1.555 2.3428 3.392 2.3626 5.172.0189 1.703-.4407 2.996-1.1895 3.98-.7532.99-1.8253 1.701-3.0823 2.187-2.5269.977-5.7122 1.01-8.2006.64-4.1975-.624-7.7287-2.89-8.9867-6.593z" fill="#000" fill-rule="evenodd"/><path clip-rule="evenodd" d="m111.404 160.218c-.157.175-.373.282-.625.282-.591 0-1.181-.365-1.722-.832-.562-.485-1.169-1.166-1.804-1.967-1.245-1.57-2.654-3.676-4.111-5.854l-.093-.138c-1.496-2.236-3.045-4.543-4.545-6.472-1.5127-1.946-2.9258-3.438-4.1388-4.106-1.1286-.622-2.1545-.854-3.0995-.818-.9477.035-1.8471.341-2.718.841-1.7615 1.012-3.3402 2.781-4.8825 4.573-3.2884 3.822-5.6805 8.128-6.5618 12.996-.0492.272-.3093.452-.5811.403-.2717-.049-.4521-.309-.4029-.581.9207-5.086 3.4145-9.55 6.7878-13.47 1.5227-1.77 3.2079-3.676 5.1422-4.788.9771-.561 2.0335-.931 3.1788-.974 1.1479-.043 2.352.243 3.6197.942 1.4105.777 2.9322 2.422 4.4455 4.368 1.5256 1.962 3.0946 4.3 4.5866 6.53l.076.114c1.471 2.197 2.861 4.274 4.081 5.813.62.783 1.182 1.407 1.673 1.831.443.381.764.543.976.581.007-.019.015-.044.023-.074.058-.219.083-.59.056-1.129-.053-1.065-.299-2.61-.689-4.494-.777-3.758-2.106-8.769-3.517-13.759-1.359-4.812-2.792-9.593-3.871-13.198l-.117-.39c-.546-1.821-.993-3.318-1.282-4.327-.144-.502-.251-.892-.312-1.142-.027-.115-.053-.232-.061-.319-.002-.022-.005-.065-.001-.114.002-.024.007-.069.024-.122.015-.045.057-.154.169-.243.139-.108.304-.125.436-.092.107.027.177.083.205.106.059.051.096.105.107.122.073.11.097.238.077.358.005.021.01.044.017.07.054.227.156.598.3 1.1.287 1.002.733 2.493 1.279 4.316l.117.392c1.08 3.604 2.514 8.392 3.876 13.211 1.411 4.994 2.749 10.033 3.534 13.829.391 1.893.651 3.501.708 4.646.028.565.01 1.062-.089 1.435-.049.187-.129.385-.271.544zm-10.375-39.339c-.002-.003-.003-.005-.005-.007s.002.003.005.007z" fill="#000" fill-rule="evenodd"/><path clip-rule="evenodd" d="m98.1815 116.318c.0928-.26.3788-.395.6389-.303 7.7296 2.757 16.9746 3.149 21.7096 3.35.664.029 1.24.053 1.71.08.471.026.857.057 1.119.099.119.019.267.049.387.106.051.025.185.094.27.246.049.088.077.196.065.312-.01.111-.053.198-.093.257-.072.106-.167.167-.216.196-.06.035-.124.065-.184.089-.123.05-.279.099-.462.15-.368.102-.897.223-1.597.37-1.552.326-4.001.788-7.535 1.455-2.838.536-6.375 1.203-10.71 2.038-.271.053-.533-.125-.585-.396s.125-.533.396-.586c4.353-.838 7.896-1.507 10.732-2.042 3.205-.605 5.508-1.04 7.059-1.357-.122-.005-.249-.011-.379-.016-4.714-.199-14.133-.596-22.0225-3.409-.2601-.092-.3957-.378-.303-.639z" fill="#000" fill-rule="evenodd"/><path clip-rule="evenodd" d="m84.1486 113.054c.1724-.216.4871-.251.7027-.078 1.7929 1.433 4.0322 1.96 6.1006 1.859 2.0823-.102 3.9122-.836 4.8987-1.822.1953-.196.5119-.196.7071 0 .1953.195.1953.512 0 .707-1.2131 1.213-3.3095 2.004-5.5568 2.114-2.2611.111-4.7545-.462-6.7741-2.077-.2156-.173-.2507-.487-.0782-.703z" fill="#000" fill-rule="evenodd"/><path clip-rule="evenodd" d="m81.0204 118.647c.1974.193.2009.51.0078.707-3.9324 4.02-9.5453 8.452-14.3873 11.737-.3123.212-.5858.403-.8214.573.0244-.008.0491-.015.0741-.023 2.3703-.74 7.23-2.641 14.5948-5.526.125-.049.2696-.112.4372-.185l.039-.017c.18-.078.3806-.165.5857-.245.3415-.134.7437-.269 1.126-.303.0201-.01.0411-.019.0629-.026.262-.087.5451.054.6324.316.0055.017.0099.029.0132.038.0049.01.0093.019.0132.028.0056.012.016.036.0252.066l.0002.001c.003.01.0161.053.0203.109l.0001.001c.0015.019.0093.118-.0374.229-.0284.068-.0914.175-.2199.245-.1337.074-.2663.07-.3549.05-.0578-.014-.1034-.035-.135-.053-.2118.029-.4779.111-.7822.23-.1851.072-.3697.152-.5501.231-.0145.006-.029.012-.0436.019-.1618.07-.3238.141-.4676.197-7.3413 2.876-12.2476 4.796-14.6614 5.549-.6.188-1.0774.313-1.4093.358-.1508.02-.3458.035-.5192-.015-.0938-.028-.2393-.091-.3419-.243-.1107-.163-.1116-.338-.0838-.462.0452-.202.1854-.365.2787-.465.1133-.122.2633-.256.4406-.4.3563-.291.8664-.659 1.5226-1.104 4.8064-3.262 10.3624-7.652 14.234-11.609.1931-.198.5096-.201.707-.008z" fill="#000" fill-rule="evenodd"/><path clip-rule="evenodd" d="m83.3199 123.369c.2755.019.484.257.4656.532-.2981 4.472-1.9076 8.445-3.5544 12.51-.4619 1.14-.9267 2.287-1.3664 3.455-2.0171 5.357-3.5759 11.275-2.1865 19.227.0475.272-.1344.531-.4065.579-.272.047-.531-.135-.5786-.407-1.4317-8.195.1847-14.304 2.2358-19.752.4601-1.222.9386-2.404 1.4083-3.564 1.6346-4.039 3.1641-7.818 3.4505-12.114.0184-.276.2567-.484.5322-.466z" fill="#000" fill-rule="evenodd"/><path d="m156.619 33.4366c11.279 10.1878 31.079 15.3127 39.569 16.6017.455 11.9011-2.592 38.4322-18.42 49.3479-15.828 10.9158-31.458 12.1288-37.295 11.3708-16.146-8.414-22.059-20.6946-25.016-25.0154-2.365-3.4567-2.046-25.2425-1.591-35.7033 5.457 0 20.921-7.8838 27.971-11.8257z" fill="#fafbfc"/><path d="m156.619 33.4366c11.279 10.1878 31.079 15.3127 39.569 16.6017.455 11.9011-2.592 38.4322-18.42 49.3479-15.828 10.9158-31.458 12.1288-37.295 11.3708-16.146-8.414-22.059-20.6946-25.016-25.0154-2.365-3.4567-2.046-25.2425-1.591-35.7033 5.457 0 20.921-7.8838 27.971-11.8257z" fill="#e8e8ff" fill-opacity=".5"/><g clip-rule="evenodd" fill="#000" fill-rule="evenodd"><path d="m140.861 37.0312c-.193.1978-.189.5144.009.707 6.587 6.4137 12.165 10.9534 18.676 14.1885 6.512 3.2358 13.924 5.1503 24.161 6.3648.274.0326.523-.1634.555-.4376.033-.2742-.163-.5229-.438-.5554-10.171-1.2068-17.46-3.1006-23.833-6.2674-6.375-3.1674-11.866-7.6246-18.423-14.0093-.198-.1927-.515-.1885-.707.0094z"/><path d="m142.655 37.4229c-.167-.2195-.481-.2617-.701-.0942-6.504 4.9641-14.31 8.0562-20.508 9.9073-3.095.9246-5.783 1.5374-7.694 1.9189-.956.1907-1.718.3235-2.24.4085-.26.0425-.461.073-.596.0928-.068.01-.119.0172-.153.0219l-.038.0052-.009.0013-.002.0003c-.274.0361-.467.2874-.43.5612.036.2738.287.4664.561.4302l-.066-.4957c.066.4957.066.4957.066.4957l.004-.0006.011-.0014.041-.0057c.037-.0051.09-.0127.16-.023.14-.0205.346-.0519.612-.0952.532-.0867 1.306-.2216 2.274-.4148 1.937-.3864 4.655-1.0063 7.785-1.9414 6.256-1.8682 14.189-5.0034 20.829-10.0705.22-.1675.262-.4813.094-.7008z"/><path d="m176.848 51.754c-.276 0-.5.2239-.5.5 0 19.7754-.032 35.2413-13.646 45.9587-2.664 2.0973-8.445 5.2423-14.268 8.2663-1.979 1.027-3.961 2.039-5.819 2.988-3.575 1.826-6.689 3.416-8.427 4.423-.239.138-.321.444-.183.683.139.239.445.32.684.182 1.716-.993 4.786-2.561 8.34-4.376 1.864-.952 3.861-1.972 5.866-3.013 5.793-3.008 11.671-6.199 14.426-8.3676 14.027-11.0427 14.027-27.0147 14.027-46.6122 0-.044 0-.0881 0-.1322 0-.2761-.224-.5-.5-.5z"/><path d="m114.027 46.7165c-.277-.0046-.504.2155-.509.4916-.032 1.9238-.082 3.9677-.134 6.0815-.139 5.6192-.29 11.7325-.136 17.3952.106 3.8995.357 7.6023.86 10.8004.501 3.1882 1.258 5.9208 2.403 7.8491 6.603 11.1207 13.572 15.8027 22.724 21.9517 1.475.991 3.007 2.021 4.604 3.121.228.157.539.1.696-.127.156-.228.099-.539-.128-.696-1.611-1.11-3.152-2.146-4.63-3.14-9.141-6.144-15.924-10.7032-22.406-21.6202-1.047-1.7636-1.781-4.3457-2.275-7.4938-.493-3.1382-.743-6.7933-.848-10.6724-.154-5.6347-.004-11.7061.135-17.3172.052-2.1204.103-4.1751.135-6.1157.005-.2761-.215-.5036-.491-.5082z"/><path d="m155.478 32.8682c-.158.2262-.103.538.123.6963 5.207 3.6453 12.075 7.839 19.421 11.1556 7.34 3.3135 15.195 5.7682 22.365 5.8986.276.005.504-.2147.509-.4908s-.214-.504-.49-.509c-6.977-.1269-14.689-2.5221-21.972-5.8103-7.277-3.2851-14.09-7.4447-19.26-11.0633-.226-.1584-.538-.1034-.696.1229z"/><path d="m200.154 48.6445c-.083-.2633-.364-.4094-.627-.3262-2.956.9336-7.559 2.4768-12.301 4.0665-.454.1522-.909.3048-1.364.4574-5.215 1.7477-10.422 3.4864-13.657 4.4815-.263.0812-.412.361-.33.6249.081.264.361.4121.625.3309 3.248-.9996 8.469-2.743 13.679-4.4892.455-.1523.909-.3046 1.362-.4564 4.746-1.591 9.34-3.1313 12.287-4.0621.263-.0831.41-.364.326-.6273z"/><path d="m160.721 31.8623c-.083-.2634-.364-.4094-.628-.3263-2.956.9336-7.559 2.4768-12.3 4.0666-.454.1522-.91.3048-1.365.4574-5.215 1.7477-10.422 3.4864-13.656 4.4815-.264.0812-.412.361-.331.6249.081.264.361.4121.625.3309 3.249-.9997 8.47-2.743 13.68-4.4892.454-.1523.909-.3046 1.362-.4565 4.745-1.591 9.339-3.1312 12.287-4.062.263-.0831.409-.364.326-.6273z"/><path d="m196.969 48.6446c-.275-.0322-.523.1639-.555.4382-1.039 8.828-2.137 18.1148-4.363 26.4542-2.227 8.3422-5.567 15.67-11.042 20.6226-4.509 4.0784-11.473 7.1994-18.863 9.5764-7.378 2.373-15.123 3.988-21.151 5.084-.271.049-.452.31-.402.581.049.272.309.452.581.403 6.044-1.099 13.839-2.723 21.278-5.116 7.426-2.389 14.557-5.562 19.228-9.7867 5.684-5.1416 9.089-12.6878 11.337-21.1064 2.248-8.4214 3.353-17.7821 4.39-26.5953.032-.2742-.164-.5227-.438-.555z"/><path d="m182.102 46.6825c-.094-.2595-.381-.3932-.641-.2986-1.609.5866-3.187 1.2154-4.753 1.84-4.235 1.6886-8.391 3.3454-12.891 4.0484-.272.0427-.459.2984-.416.5712.042.2729.298.4595.571.4168 4.62-.7218 8.931-2.4408 13.2-4.1431 1.545-.6161 3.085-1.2301 4.632-1.7938.259-.0945.393-.3815.298-.6409z"/><path d="m188.058 48.6239c-.095-.2595-.382-.3932-.641-.2986-1.61.5866-3.188 1.2155-4.754 1.84-4.235 1.6886-8.391 3.3454-12.891 4.0484-.272.0427-.459.2984-.416.5712.042.2729.298.4595.571.4169 4.62-.7219 8.931-2.4409 13.2-4.1432 1.545-.6161 3.085-1.2301 4.632-1.7938.259-.0945.393-.3815.299-.6409z"/><path d="m172.331 42.605c-.086-.2626-.368-.4061-.631-.3205-2.428.7914-4.803 1.7095-7.161 2.6214-.438.1693-.876.3383-1.312.5063-2.798 1.0754-5.588 2.1097-8.471 2.9002-.266.073-.423.3481-.35.6144s.348.423.614.35c2.935-.8047 5.765-1.8546 8.565-2.9312.441-.1694.881-.3393 1.32-.5091 2.359-.912 4.705-1.8189 7.105-2.6012.263-.0856.406-.3678.321-.6303z"/><path d="m177.424 44.4153c-.085-.2626-.367-.4061-.63-.3205-2.428.7914-4.803 1.7095-7.162 2.6214-.438.1693-.875.3383-1.312.5063-2.797 1.0754-5.587 2.1097-8.47 2.9002-.267.073-.423.3481-.35.6144s.348.423.614.35c2.935-.8047 5.765-1.8546 8.565-2.9312.441-.1694.88-.3393 1.32-.5091 2.359-.912 4.705-1.8189 7.105-2.6012.263-.0856.406-.3678.32-.6303z"/><path d="m167.782 40.6219c-.085-.2628-.366-.407-.629-.3222-5.234 1.6896-10.464 3.3775-15.716 5.0006-.264.0815-.412.3615-.33.6253.081.2638.361.4116.625.3301 5.259-1.6252 10.495-3.315 15.728-5.0044.263-.0848.407-.3666.322-.6294z"/><path d="m164.401 37.6141c-.084-.2628-.366-.407-.629-.3222-5.234 1.6896-10.464 3.3775-15.716 5.0005-.264.0816-.412.3616-.33.6254s.362.4116.625.3301c5.259-1.6252 10.495-3.315 15.728-5.0044.263-.0848.407-.3666.322-.6294z"/><path d="m160.835 35.2738c-.085-.2628-.367-.4071-.629-.3222-5.234 1.6896-10.465 3.3775-15.716 5.0005-.264.0816-.412.3615-.33.6254.081.2638.361.4116.625.33 5.259-1.6252 10.495-3.315 15.728-5.0043.263-.0848.407-.3666.322-.6294z"/><path d="m198.156 53.8616c-.094-.2598-.381-.3943-.64-.3005-4.585 1.6557-9.222 3.0924-13.872 4.5336-2.418.7494-4.841 1.5-7.262 2.2833-.262.085-.407.3669-.322.6296.085.2628.367.4068.63.3218 2.396-.775 4.805-1.5218 7.218-2.2696 4.666-1.4459 9.342-2.8952 13.947-4.5581.26-.0938.394-.3804.301-.6401z"/><path d="m198.156 58.8606c-.094-.2597-.381-.3943-.64-.3005-4.585 1.6557-9.222 3.0924-13.872 4.5336-2.418.7494-4.841 1.5-7.262 2.2833-.262.085-.407.3669-.322.6297.085.2627.367.4068.63.3218 2.396-.775 4.805-1.5219 7.218-2.2697 4.666-1.4458 9.342-2.8952 13.947-4.5581.26-.0938.394-.3804.301-.6401z"/><path d="m198.156 63.1038c-.094-.2598-.381-.3943-.64-.3005-4.585 1.6557-9.222 3.0924-13.872 4.5336-2.418.7494-4.841 1.5-7.262 2.2833-.262.085-.407.3669-.322.6296.085.2628.367.4068.63.3218 2.396-.775 4.805-1.5218 7.218-2.2696 4.666-1.4459 9.342-2.8952 13.947-4.5581.26-.0938.394-.3804.301-.6401z"/><path d="m194.499 68.6449c-.065-.2683-.335-.4331-.603-.368l.118.4859.117.4859c.269-.0651.434-.3354.368-.6038zm-.485.1179c.117.4859.117.4859.117.4859l-.12.0294c-.079.0194-.197.0481-.349.0856-.304.0748-.746.1844-1.299.323-1.107.2773-2.655.6707-4.424 1.1353-3.539.9298-7.951 2.1426-11.463 3.2789-.263.085-.545-.0591-.63-.3218s.059-.5446.322-.6296c3.54-1.1453 7.974-2.3637 11.517-3.2947 1.773-.4658 3.325-.8601 4.434-1.1381.555-.139.999-.2489 1.304-.324.153-.0376.271-.0665.351-.0861l.122-.0297s0 0 .118.4859z"/><path d="m193.596 72.8427c-.072-.2666-.346-.4245-.613-.3527-1.495.4028-3.186.8234-4.957 1.264-4.349 1.0822-9.184 2.285-12.802 3.6417-.258.0969-.389.3851-.292.6437.097.2585.385.3895.643.2926 3.561-1.3353 8.295-2.513 12.623-3.5895 1.788-.4449 3.507-.8726 5.045-1.2869.267-.0719.425-.3462.353-.6129z"/><path d="m192.686 77.2908c-.072-.2666-.347-.4245-.613-.3525-1.986.5358-3.988 1.0497-5.995 1.5647-3.935 1.0099-7.887 2.024-11.76 3.2158-.264.0812-.412.361-.331.6249s.361.4121.625.3308c3.852-1.1852 7.762-2.1885 11.682-3.1944 2.013-.5164 4.028-1.0336 6.039-1.5763.267-.072.425-.3464.353-.613z"/><path d="m191.365 81.6794c-.072-.2666-.346-.4244-.613-.3524-1.957.5281-4.014 1.0577-6.104 1.5957-4.19 1.0784-8.511 2.1904-12.413 3.391-.263.0812-.412.361-.33.6249.081.264.361.4121.625.3309 3.88-1.1941 8.158-2.2951 12.334-3.3698 2.097-.5396 4.167-1.0725 6.149-1.6073.267-.0719.424-.3464.352-.613z"/><path d="m188.996 86.1531c-.072-.2666-.346-.4244-.613-.3525-1.957.5281-4.014 1.0577-6.105 1.5957-4.189 1.0784-8.51 2.1904-12.412 3.391-.264.0813-.412.3611-.331.625.082.2639.361.412.625.3308 3.881-1.194 8.159-2.2951 12.335-3.3698 2.096-.5396 4.167-1.0725 6.149-1.6072.266-.072.424-.3464.352-.613z"/><path d="m187.293 90.3118c-.072-.2666-.346-.4244-.613-.3525-2.937.7926-7.842 1.8771-12.023 2.7654-2.088.4437-3.993.8376-5.375 1.1206-.69.1415-1.251.2553-1.639.3336l-.601.1212s-.001.0001.098.4904c.098.4903.098.4903.098.4903l.604-.1217c.388-.0785.949-.1924 1.641-.3341 1.384-.2834 3.29-.6778 5.382-1.1221 4.178-.8877 9.108-1.9774 12.076-2.7781.266-.0719.424-.3464.352-.613zm-20.644 4.5768c.054.2708.318.4464.589.3922l-.098-.4903-.098-.4904c-.271.0542-.447.3178-.393.5885z"/><path d="m183.202 95.4272c-.047-.2721-.306-.4547-.578-.4078l-19.633 3.3816c-.272.0469-.455.3055-.408.5776.047.2722.305.4548.577.4079l19.634-3.3817c.272-.0468.455-.3054.408-.5776z"/><path d="m176.816 99.9801c-.041-.2729-.296-.4603-.569-.4185l-20.293 3.1054c-.273.042-.46.297-.418.57.041.273.297.461.57.419l20.292-3.106c.273-.042.46-.297.418-.5699z"/><path d="m166.604 104.965c-.031-.275-.279-.472-.554-.44-3.871.445-7.73 1.034-11.578 1.621-2.516.384-5.027.767-7.535 1.109-.273.037-.465.29-.428.563.038.274.29.465.563.428 2.545-.347 5.068-.732 7.586-1.117 3.828-.584 7.645-1.167 11.506-1.611.275-.031.472-.279.44-.553z"/></g><path d="m151.465 67.9561c1.449 2.9801.318 12.7307-.597 18.1403h-19.928c-.636-7.6371-.286-23.6035 6.205-26.372 8.115-3.4605 12.172 3.8161 14.32 8.2317z" fill="#cccbff"/><path d="m136.063 72.3523h10.589c0-1.1869.913-9.4028-6.299-9.4025-3.834.0002-3.834 6.2379-4.29 9.4025z" fill="#f3f3ff"/><path clip-rule="evenodd" d="m148.838 63.5854c1.926 2.5944 3.16 6.0797 3.16 9.6141 0 2.6215-.329 6.4108-.66 9.4198-.165 1.5017-.33 2.8014-.453 3.6544-.05.3458-.092.6112-.124.7854-.056.0807-.089.1785-.089.284 0 .0338.001.0995.013.1634.003.0186.01.0522.025.0916.01.0271.047.122.141.2049.054.0474.134.0971.24.1167.108.02.206.0021.283-.0292.131-.054.2-.1474.218-.1725.045-.062.067-.1227.073-.1387v-.0012c.01-.0262.017-.0515.023-.0714.011-.0406.021-.0875.031-.1358.04-.1925.093-.5241.155-.9542.126-.867.292-2.1784.458-3.6881.332-3.014.666-6.8494.666-9.5291 0-3.7551-1.306-7.4483-3.357-10.2101-2.045-2.755-4.883-4.647-7.966-4.647-4.122 0-6.699 2.5434-8.334 5.6096-1.627 3.0533-2.374 6.7128-2.834 9.1548-.275 1.4579-.272 4.3442-.206 7.1584.029 1.256.071 2.5027.108 3.6256.048 1.4307.089 2.6603.089 3.4523 0 .2761.224.5.5.5s.5-.2239.5-.5c0-.8027-.042-2.0652-.091-3.5173-.037-1.1228-.078-2.359-.107-3.5838-.066-2.851-.062-5.6181.189-6.9499.462-2.448 1.188-5.967 2.735-8.8697 1.54-2.8898 3.841-5.08 7.451-5.08 2.659 0 5.233 1.6418 7.163 4.243zm2.835 23.7767v-.002z" fill="#000" fill-rule="evenodd"/><path clip-rule="evenodd" d="m129.455 86.2407c-.023.2752.182.5169.457.5399 1.595.1334 3.04.2017 4.787.2565 5.936.1861 11.765.2494 17.785.2596.276.0004.5-.223.5-.4992.001-.2761-.223-.5004-.499-.5008-6.014-.0102-11.832-.0734-17.754-.2591-1.738-.0545-3.164-.1221-4.736-.2535-.275-.023-.517.1814-.54.4566z" fill="#000" fill-rule="evenodd"/><path clip-rule="evenodd" d="m135.935 72.61c-.016.2757.195.5121.471.528 4.032.2326 8.04.1788 12.057.0717.276-.0073.493-.2371.486-.5131-.007-.2761-.237-.4939-.513-.4865-4.011.1069-7.985.1596-11.973-.0705-.275-.0159-.512.1947-.528.4704z" fill="#000" fill-rule="evenodd"/><path clip-rule="evenodd" d="m141.89 63.2692c2.606.4199 5.371 3.9107 4.781 9.5326-.028.2746.171.5206.445.5495.275.0288.521-.1705.55-.4451.619-5.8965-2.268-10.0845-5.616-10.6242-1.699-.2738-3.405.4279-4.656 2.1834-1.237 1.7363-2.029 4.493-2.029 8.3893 0 .2762.224.5.5.5s.5-.2238.5-.5c0-3.7828.772-6.3056 1.843-7.809 1.058-1.4842 2.404-1.9826 3.682-1.7765z" fill="#000" fill-rule="evenodd"/><path clip-rule="evenodd" d="m142.831 79.5151c-.138.2705-.287.333-.385.333-.276 0-.5.2239-.5.5 0 .2762.224.5.5.5.617 0 1.044-.4226 1.276-.8796.235-.4621.328-1.0475.264-1.6163-.064-.5724-.292-1.1705-.749-1.6302-.465-.4682-1.129-.7539-1.982-.7539-1.24 0-2.289.7541-2.711 1.7374-.213.4979-.27 1.0645-.095 1.6186.176.5563.572 1.0566 1.186 1.4462.233.1479.542.0788.69-.1544s.079-.5422-.154-.6901c-.448-.2841-.674-.6057-.768-.9032-.095-.2998-.07-.6189.06-.9226.266-.6198.956-1.1319 1.792-1.1319.616 0 1.015.1993 1.273.4586.266.2678.42.6396.464 1.0372.046.4012-.026.7858-.161 1.0512z" fill="#000" fill-rule="evenodd"/><path clip-rule="evenodd" d="m140.002 79.8531c-.276 0-.5.2239-.5.5v3.4831l.5.0004.5-.0001v-3.4834c0-.2761-.224-.5-.5-.5zm0 4.4835c.276 0 .5-.2239.5-.5001l-.5.0001-.5-.0004c0 .2761.224.5004.5.5004z" fill="#000" fill-rule="evenodd"/><path clip-rule="evenodd" d="m142.41 79.8917c-.276 0-.5.2239-.5.5v3.5381l.5.0009.5.0001v-3.5391c0-.2761-.224-.5-.5-.5zm0 4.539c.276.0001.5-.2237.5-.4999l-.5-.0001-.5-.0009c0 .2761.224.5007.5.5009z" fill="#000" fill-rule="evenodd"/><path clip-rule="evenodd" d="m139.253 84.1492c-.088.2619.054.5451.316.6324.209.0698.417.0725.548.0742.021.0002.04.0005.056.001.365.0102.732.027 1.102.0443.022.001.044.002.066.0031.348.0162.7.0327 1.053.044.276.0089.507-.2077.516-.4837s-.208-.5069-.484-.5158c-.345-.011-.691-.0272-1.04-.0435-.022-.001-.043-.002-.064-.003-.37-.0173-.745-.0345-1.121-.045-.035-.001-.066-.0018-.092-.0024-.133-.0033-.171-.0042-.224-.0219-.262-.0873-.545.0543-.632.3163z" fill="#000" fill-rule="evenodd"/></svg>