<svg fill="none" height="32" viewBox="0 0 32 32" width="32" xmlns="http://www.w3.org/2000/svg"><g clip-rule="evenodd" fill="#4f5162" fill-rule="evenodd"><path d="m6 4c0-.55228.44772-1 1-1h20c.5523 0 1 .44772 1 1v17.9671c0 3.0269-2.2406 5.5276-5.1496 5.9403-.109.0408-.2271.0631-.3504.0631-.1159 0-.2299-.0018-.342-.0054-.0655.0017-.1313.0023-.1973.0019l-.7264-.0048-7.2291.0378h-.0052-6c-2.76142 0-5-2.2386-5-5v-2c0-.5523.44772-1 1-1h2zm2 16h10c.5523 0 1 .4477 1 1 0 1.5767.0222 2.7994.4557 3.6607.1935.3844.4695.6881.9.9094.3971.2042.9704.3606 1.8056.3938 2.1327-.0843 3.8387-1.8402 3.8387-3.9968v-16.9671h-18zm9.9107 5.9796c-.0885-.1354-.1688-.2755-.2414-.4198-.5366-1.066-.6434-2.3659-.6644-3.5598h-12.0049v1c0 1.6569 1.34315 3 3 3h6z"/><path d="m23.3796 8.57928c.3905.39053.3905 1.02369 0 1.41421l-7.4209 7.42071-3.7283-3.7282c-.3905-.3905-.3905-1.0237 0-1.4142.3905-.3906 1.0237-.3906 1.4142-.0001l2.3141 2.3141 6.0067-6.00654c.3905-.39052 1.0237-.39051 1.4142.00002z"/></g></svg>