<svg xmlns="http://www.w3.org/2000/svg" fill='none' viewBox="0 0 24 24">
  <path fill="currentColor" fill-rule="evenodd" d="M12 1C5.92489 1 1 5.92489 1 12c0 6.0751 4.92489 11 11 11 6.0751 0 11-4.9249 11-11 0-6.07511-4.9249-11-11-11Zm1.1963 9.7304c.1825-2.00878.4222-4.00287.7193-5.98225.1524-.89496-.2009-1.26093-1.06-1.09799-.1421.11683-.2557.2556-.3406.41647-.2527 2.02141-.5177 4.04074-.795 6.05797-.6795-.91945-1.3736-1.82817-2.08201-2.72608-.05048-.15147-.05048-.30293 0-.4544.40041-.27406.77891-.57699 1.13561-.90865.0485-.13368.0358-.2599-.0378-.37866-1.21818-.30401-2.45475-.49334-3.70984-.56793-.1473.6113-.24827 1.22964-.30279 1.85524-.02551.50683-.07593 1.01172-.15147 1.51452-.03195.21262.04378.36409.22713.45432.104.01195.20498-.00073.30287-.0378.34173-.23411.66977-.48655.98425-.75725.1616-.04814.313-.02283.45426.07573l2.19559 2.95326c-1.35427-.1232-2.69181-.3126-4.01263-.568-.83232-.1136-1.66511-.2019-2.49843-.265-.1847.0586-.32348.1722-.4164.3408-.14985.4823-.01101.8357.4164 1.0601 1.0955.1708 2.18073.3475 3.25548.5301 1.03656.1211 2.0713.2598 3.10408.4165-.96262.7862-1.94681 1.5434-2.95261 2.2717-.0327.0164-.06539.0274-.09802.0332-.06828.012-.13656.001-.20484-.0332-.31267-.3867-.61553-.7779-.90852-1.1737-.33039-.1139-.51966.0123-.56786.3786-.12642.9615-.26527 1.9207-.4164 2.8775-.0337.217.01686.4063.15147.568.44808.1091.90234.1722 1.36278.1893.60096.1089 1.20662.1846 1.81704.2272h.37853c.13233-.1258.17019-.2772.11353-.4544-.23398-.3418-.48642-.6699-.75706-.9844-.04686-.061-.07613-.1245-.08788-.1905-.01074-.0606-.00671-.1233.01215-.1882.90631-.7685 1.84009-1.5005 2.80129-2.1959-.1711 1.5643-.3604 3.1293-.5679 4.6949-.1242.5434-.099 1.0734.0758 1.5902.4313.3204.8225.27 1.1735-.1515.1803-1.144.3443-2.2798.4921-3.4075.1084-.9583.222-1.9175.3407-2.8776l2.2713 3.029c.0312.078.0431.156.0358.234-.0046.0482-.0165.0964-.0358.1446-.1612.1377-.3261.2688-.4948.3935-.0988.0729-.1988.1438-.3002.2123-.2624.1226-.376.3245-.3407.6058.2461.2091.5363.31.8707.3029.3606.0593.7203.1211 1.0792.1855.4745.0851.9476.1747 1.4192.2689.1683.0243.3071-.0262.4164-.1515.1441-1.0457.2829-2.0806.4164-3.1047.0124-.1785-.0002-.3552-.0379-.5301-.0723-.1056-.1732-.156-.3028-.1514-.4088.231-.8.4961-1.1735.7951-.1262.0505-.2523.0505-.3785 0-.7357-.9125-1.4424-1.8464-2.1199-2.8018 1.6708.1647 3.3365.3919 4.9969.6815.3028.0505.6056.0505.9085 0 .55-.5339.4995-.9882-.1514-1.363-.4819-.0862-.9604-.1698-1.4356-.2509-.3307-.0564-.6597-.1117-.9872-.1657-1.0646-.1161-2.1245-.2675-3.1798-.4543.8949-.7125 1.8034-1.4066 2.7256-2.08245.1262-.05048.2523-.05048.3786 0 .274.40055.5768.77915.9085 1.13595.3197.0595.4836-.0793.492-.4166.0789-.49181.1672-.97145.265-1.43874.0333-.5606.109-1.11591.2272-1.66591-.0008-.03894-.007-.07472-.0186-.10742-.0231-.06465-.0673-.11722-.1328-.15764-1.0706-.16503-2.1306-.32912-3.1799-.49219h-.3785c-.0471.08533-.1102.16106-.1893.22719-.0505.07573-.0505.15147 0 .22713.234.34187.4865.66998.7571.98446.0726.10413.1055.2139.0984.32918-.0025.04102-.01.08271-.0227.12514l-2.9527 2.3475Z" clip-rule="evenodd"/>
</svg>
