<svg xmlns="http://www.w3.org/2000/svg" viewBox="0 0 24 24">
  <path fill="currentColor" fill-rule="evenodd" d="M22 12.1579c0 1.7441-1.4138 3.1579-3.1579 3.1579-1.7441 0-3.1579-1.4138-3.1579-3.1579C15.6842 10.4138 17.098 9 18.8421 9 20.5862 9 22 10.4138 22 12.1579ZM4.10526 14.2632c1.16271 0 2.10527-.9426 2.10527-2.1053s-.94256-2.1053-2.10527-2.1053C2.94256 10.0526 2 10.9952 2 12.1579s.94256 2.1053 2.10526 2.1053Zm7.36844 0c1.1627 0 2.1052-.9426 2.1052-2.1053s-.9425-2.1053-2.1052-2.1053-2.10528.9426-2.10528 2.1053.94258 2.1053 2.10528 2.1053Z" clip-rule="evenodd"/>
</svg>
