<svg fill="none" xmlns="http://www.w3.org/2000/svg" viewBox="0 0 32 32"><path d="M2.116 11.226l11.966 7.156c.208.118.61.118.82 0L27 11.045c.475-.27.326-1.14-.162-1.385L14.805 3.627a.68.68 0 00-.61 0L2.163 9.66c-.489.245-.522 1.296-.047 1.566zM3.202 9.66l.225 1.566L14.63 5.45l11.21 5.775V9.677l-11.675 6.838h.981L3.202 9.66zm10.304 8.045v12.693c0 .523.875 1.266 1.33 1.008l11.718-7.317c.693-.544.813-.74.813-1.777v-7.397c0-.378-.348-.76-.813-.76-.465 0-.868.382-.868.76v7.247l-11.486 7 1.232 1.16-.03-12.617c0-.378-.525-.716-.902-.716-.376 0-.994.338-.994.716zm1.578 11.869L2.85 22.16l.692 1.386-.116-12.578c0-.377-.581-.978-.958-.978a.683.683 0 00-.681.684v12.872c0 .24.125.462.33.585l12.033 7.266a.68.68 0 00.935-.233c.195-.324.323-1.395 0-1.59zM5.325 16.087l4.011 2.414a.68.68 0 00.936-.235.685.685 0 00-.234-.938l-4.011-2.413a.68.68 0 00-.935.234.685.685 0 00.233.938z" fill="#fff"/></svg>