<svg viewBox="0 0 944 896" width="1280" height="1280" xmlns="http://www.w3.org/2000/svg"><path d="M81 15h105l699 1 9 3 9 6 6 9 3 9v729l-3 10-6 9-9 6-10 3-38 1H101l-43-1-10-4-9-7-5-9-2-5-1-11V49l2-12 7-11 8-6 8-4z" fill="#FEFEFE"/><path d="M484 262h60l2 2v35l-1 13-1 1H400l-2-2v-48zM491 358h53l2 4-1 46-1 1H400l-2-2v-47l1-1z" fill="#FEFEFE"/><path d="M394 345h155l6 3 3 6v61l-3 5-4 2-20 1H416l-24-1-5-3-1-3v-63l3-5zm97 13-92 1-1 1v47l2 2h144l1-1 1-46-2-4zM397 249h151l6 2 3 3 1 6v60l-4 5-10 2H400l-9-1-5-5v-62l2-7 3-2zm87 13-86 1v48l2 2h144l1-1 1-13v-35l-2-2z" fill="#0199F9"/><path d="M527 522h12v69l-1 1h-9l-1-1v-8l-10 8-5 2-9-1-9-7-4-7-2-8 1-14 5-10 8-6 3-1h9l6 3 5 4zM258 522h28l10 2 6 4 5 8 1 13-3 9-4 5-7 4-4 1h-20v23h-13zM372 539h11l8 3 5 4 4 6 2 6v16l-5 10-7 6-9 3h-8l-8-3-8-7-3-5-2-8v-7l3-11 4-6 6-5zM570 539h10l8 3 7 8 3 8 1 9-1 1-21 1h-15l3 10 5 3h9l10-5h7l1 3-3 5-5 4-6 3-5 1h-9l-10-5-6-7-3-7v-16l5-10 8-7zM661 539h12l9 4 5 6-1 5h-7l-6-5-6-1-7 2-1 6 3 3 17 4 7 4 3 5v7l-3 6-6 5-6 2h-16l-8-4-4-6v-5h9l6 5 10 1 5-3v-6l-10-3-11-3-7-6-1-2v-10l4-6 6-4zM409 539l11 1 4 10 7 23 1 4h2l2-11 8-24 2-3h11l-3 13-11 30-5 10-12-1-4-8-15-42zM319 539l11 1v7l8-7 9-1 1 1v9l-4 1-6 1-5 3-1 2-1 35h-12l-1-9v-42zM610 539h7l3 1 1 7 5-5 6-3 7 1v8l-1 2-7-1-6 4h-2l-1 4-1 34h-12v-51z" fill="#120F12"/><path d="M374 548h7l6 4 3 7v14l-4 7-4 3h-8l-5-3-3-4-2-8 1-10 3-6zM512 548l7 1 6 5 2 5v13l-4 7-6 4-8-1-5-5-2-4v-15l4-6z" fill="#FEFEFE"/><path d="M467 539h7l5 1v51h-12l-1-51z" fill="#120F12"/><path d="M270 532h13l8 2 4 5v12l-5 6-3 1h-17zM572 548h7l6 5 3 5v2l-2 1h-24l1-6 4-5z" fill="#FEFEFE"/><path d="m470 519 8 1 1 1v8l-1 2h-10l-2-3 1-7z" fill="#120F12"/><path d="m423 378 6 2 1 1-1 7-3 2h-5l-3-3v-6zM420 283h8l2 3-1 6-4 2-5-1-2-2v-6z" fill="#0199F9"/></svg>