<svg xmlns="http://www.w3.org/2000/svg" width="24" height="25" fill="none" viewBox="0 0 24 25">
  <path fill="#6CB12B" d="M4.27 8.555a2.757 2.757 0 0 0-1.8 1.396c-.015.026-.027.054-.044.077a.097.097 0 0 1-.124.028.097.097 0 0 1-.051-.115.334.334 0 0 1 .033-.072 2.953 2.953 0 0 1 1.893-1.5l.086-.022.023-.011c.008-.024.019-.05.027-.078.365-1.198 1.348-2.088 2.58-2.299 1.12-.19 2.099.12 2.92.904.063.06.12.082.207.076a2.537 2.537 0 0 1 2.643 2.056c.012.064.042.093.097.118.37.168.688.406.957.71.024.026.05.053.068.084a.099.099 0 0 1-.153.123c-.02-.017-.036-.039-.053-.058a2.67 2.67 0 0 0-1.768-.911 2.565 2.565 0 0 0-1.153.137c-.071.026-.112.011-.163-.037a2.593 2.593 0 0 0-3.575.008c-.02.018-.037.038-.059.052a.102.102 0 0 1-.134-.014c-.032-.036-.034-.083-.004-.126a2.72 2.72 0 0 1 1.693-.814 2.75 2.75 0 0 1 2.142.677c.046.04.086.045.141.028a2.892 2.892 0 0 1 1.66-.01l.085.021c-.002-.028 0-.05-.005-.07a2.347 2.347 0 0 0-2.545-1.761.135.135 0 0 1-.128-.049A3.024 3.024 0 0 0 7.9 6.136c-.983-.125-1.844.157-2.567.835a2.984 2.984 0 0 0-.853 1.445c-.02.074-.046.117-.125.12-.026.002-.051.01-.085.019Zm7.661 3.196c.075.227.145.447.24.662.014-.04.028-.08.04-.12.126-.392.25-.785.375-1.178l.019-.056c.059-.172.138-.231.32-.233.19-.002.38 0 .57 0 .03 0 .06.002.089.008.157.027.225.13.183.284-.02.07-.05.135-.077.202-.06.145-.117.291-.18.435a.158.158 0 0 0 .003.148c.085.167.165.335.248.502.008.017.02.032.038.06.02-.049.034-.084.047-.12l.454-1.224c.01-.03.022-.062.034-.092.064-.156.13-.202.299-.203.17-.001.341-.002.512 0a.655.655 0 0 1 .146.018c.122.029.182.117.164.24a.575.575 0 0 1-.037.132l-1.17 2.842a.316.316 0 0 1-.174.183c0-.138-.017-.257.033-.378.367-.883.73-1.767 1.094-2.65.02-.05.037-.103.061-.168-.055-.007-.096-.015-.136-.016-.144-.002-.289 0-.433 0-.143 0-.144 0-.191.129l-.48 1.299-.116.313c-.018.05-.047.088-.105.087-.058 0-.083-.04-.105-.088a65.146 65.146 0 0 0-.289-.624 5.16 5.16 0 0 0-.108-.22.194.194 0 0 1-.004-.178c.084-.2.165-.4.246-.6.013-.032.023-.066.038-.11-.048-.003-.084-.008-.119-.008h-.502c-.126 0-.134.006-.173.127l-.493 1.553c-.01.035-.016.073-.037.101a.165.165 0 0 1-.083.057c-.042.011-.077-.014-.095-.053a.966.966 0 0 1-.043-.11l-.508-1.548c-.04-.12-.047-.127-.173-.128h-.532c-.037.001-.075.009-.126.015.016.051.027.091.042.13.356.869.709 1.739 1.07 2.606a.908.908 0 0 1 .064.452c-.046.009-.076-.02-.098-.049a.58.58 0 0 1-.073-.127c-.39-.947-.778-1.895-1.166-2.843a.487.487 0 0 1-.03-.093c-.028-.148.049-.26.197-.286a.563.563 0 0 1 .098-.007h.58c.186 0 .275.067.333.245.072.224.144.449.22.68ZM1.835 11.22c-.066.081-.126.159-.189.235-.078.095-.162.082-.205-.033-.038-.104-.072-.21-.11-.315-.03-.084-.037-.088-.129-.089H.626c.012.043.016.077.03.108.088.195.103.4.102.613-.005 1.07-.002 2.141-.004 3.212 0 .083.02.149.074.214.198.24.391.484.586.727.024.03.05.057.092.105.013-.053.025-.082.026-.112.003-.062.001-.124.001-.186v-1.817l.001-.089c0-.043.018-.078.058-.094a.101.101 0 0 1 .118.023l.027.029c.207.218.207.218.448.347v.194c-.172-.029-.304-.122-.446-.236-.002.051-.004.085-.004.12v1.67c0 .032 0 .065-.002.098a.265.265 0 0 1-.201.24c-.079.017-.143.006-.199-.066-.236-.302-.477-.6-.72-.898a.264.264 0 0 1-.06-.18l.001-3.457a.713.713 0 0 0-.044-.259 4.017 4.017 0 0 1-.077-.232c-.045-.143.034-.28.206-.277.2.004.4.002.601 0 .136 0 .222.067.27.19.023.06.044.122.07.194l.065-.072a.98.98 0 0 1 .733-.348c.912-.035 1.611.604 1.742 1.45.08.52-.015 1.005-.333 1.433-.23.312-.539.513-.915.609-.034.008-.07.013-.114.02V14.1c.013-.005.027-.012.042-.016.62-.17.985-.581 1.111-1.198.09-.436.025-.858-.223-1.235-.323-.49-.79-.701-1.37-.665a.72.72 0 0 0-.483.235Zm17.735 1.83c.114-.06.214-.04.295.042.118.122.234.248.341.38.083.103.066.244-.034.34a1.75 1.75 0 0 1-.987.488c-.01.002-.02-.002-.033-.005-.002-.015-.006-.03-.007-.046-.004-.147 0-.144.126-.169.284-.056.526-.198.738-.392.051-.047.057-.071.018-.117-.097-.111-.197-.22-.296-.328-.009-.01-.022-.014-.04-.027l-.077.055c-.297.216-.625.3-.985.203a.713.713 0 0 1-.548-.623c0-.064.031-.098.094-.104.029-.003.059 0 .088 0 .575 0 1.15 0 1.724-.002.072 0 .144-.004.216-.013.093-.012.108-.03.117-.125a1.425 1.425 0 0 0-.441-1.202 1.483 1.483 0 0 0-2.442.577 1.572 1.572 0 0 0 1.06 2.068l.079.024v.2c-.035-.006-.066-.01-.096-.018-.7-.21-1.16-.658-1.308-1.378-.184-.898.349-1.803 1.231-2.044.93-.253 1.92.358 2.099 1.3.031.168.031.339.019.509-.013.171-.098.26-.27.285a2.109 2.109 0 0 1-.295.017c-.505.002-1.01.001-1.517.001h-.118c.007.027.008.05.017.067.075.137.19.222.338.266.23.069.45.027.66-.073.081-.04.152-.1.234-.155Zm-9.813 1.403c.125.289.246.572.366.855.048.111.094.223.141.335a.4.4 0 0 1 .03.24.377.377 0 0 1-.337.308.377.377 0 0 1-.404-.262c-.119-.36-.235-.722-.353-1.083-.012-.037-.026-.074-.036-.112-.031-.112.001-.182.105-.233l.056-.026-.068-.194-.155.019v-.195c.51-.106.9-.38 1.137-.85.174-.346.212-.714.12-1.09a1.556 1.556 0 0 0-1.654-1.181 1.552 1.552 0 0 0-1.447 1.415A1.58 1.58 0 0 0 8.525 14.1v.189c-.712-.04-1.39-.765-1.469-1.565a1.755 1.755 0 0 1 1.322-1.89c.892-.225 1.745.218 2.087 1.012.132.307.167.626.124.953-.043.325-.17.616-.377.872a1.791 1.791 0 0 1-.79.557l.07.184c.099-.033.189-.052.265.04Zm-.157 1.05c.042.128.08.256.126.382.04.111.155.163.263.125a.206.206 0 0 0 .126-.262c-.006-.019-.014-.037-.022-.055l-.445-1.057c-.01-.026-.025-.05-.04-.078l-.266.099c-.003.017-.006.024-.005.03l.263.817Zm12.587-4.34-.205.248a.41.41 0 0 1-.06.065c-.059.052-.126.041-.163-.029-.022-.043-.036-.09-.055-.136-.03-.07-.061-.138-.088-.208-.02-.053-.053-.077-.111-.075-.105.002-.21-.002-.315.001-.107.004-.13.03-.13.139v2.77c0 .1.002.1.103.14v.172a.246.246 0 0 1-.3-.211c-.005-.038-.005-.078-.005-.117v-2.79c.005-.175.098-.287.273-.3.146-.012.295-.008.442-.003.102.004.169.066.212.155.032.067.062.135.098.214l.063-.067c.076-.076.148-.159.23-.228a.568.568 0 0 1 .365-.125 1.24 1.24 0 0 1 .743.215c.068.047.136.092.203.14.13.09.163.207.098.35-.029.063-.067.12-.101.18-.05.085-.098.17-.15.254-.118.186-.32.215-.486.07a.551.551 0 0 0-.394-.149.362.362 0 0 0-.256.109c-.035.035-.064.075-.096.112a.271.271 0 0 0-.063.19c.003.55.002 1.1.001 1.65a.789.789 0 0 1-.012.155c-.03.145-.135.216-.294.2v-.172c.029-.017.07-.028.085-.054.018-.03.017-.075.017-.114 0-.563.002-1.126-.002-1.689 0-.097.02-.18.082-.254.016-.02.03-.043.046-.064a.654.654 0 0 1 .908-.156c.041.027.078.06.117.09.068.05.125.046.168-.022.082-.134.162-.27.238-.407.032-.057.024-.08-.027-.116a5.436 5.436 0 0 0-.262-.175 1.047 1.047 0 0 0-.456-.141.512.512 0 0 0-.461.183Zm-17.732 1.35v-1.375c.003-.182.105-.297.288-.309.137-.008.275-.004.413-.001.105.002.179.058.224.151.034.07.066.142.104.225l.073-.088c.08-.096.165-.186.273-.252a.58.58 0 0 1 .28-.084c.273-.013.527.05.756.203.081.055.164.109.238.173.122.105.14.22.063.36a9.42 9.42 0 0 1-.234.399c-.116.187-.319.218-.485.074a.556.556 0 0 0-.384-.15.37.37 0 0 0-.28.12c-.036.039-.066.082-.1.122a.227.227 0 0 0-.049.154c.002.557.001 1.114.001 1.67 0 .043.001.086-.004.128-.022.157-.144.245-.304.219-.002-.018-.005-.037-.005-.056v-.114c.112-.044.112-.044.112-.167 0-.573.002-1.146 0-1.72a.3.3 0 0 1 .062-.2c.028-.035.054-.074.081-.11.22-.29.553-.298.804-.18.07.032.133.083.196.13.077.056.132.054.18-.024.08-.128.155-.259.23-.39.032-.055.03-.078-.022-.118-.228-.185-.475-.325-.783-.325a.47.47 0 0 0-.346.135c-.059.057-.11.122-.164.184-.049.057-.093.118-.146.172-.063.064-.134.05-.174-.03-.021-.044-.036-.091-.055-.137-.029-.07-.06-.138-.088-.208-.018-.044-.048-.066-.097-.066-.112.002-.224-.002-.335.002-.095.003-.118.031-.122.129v2.77c.002.105.005.109.103.151v.172c-.132.02-.244-.041-.281-.16a.558.558 0 0 1-.022-.164v-1.415Zm12.372-1.984v3.358c0 .043.001.085-.003.128-.015.153-.13.249-.295.242v-.187c.081-.01.098-.063.098-.138l-.001-3.722c0-.118-.021-.14-.136-.14h-.522c-.095.001-.107.014-.11.109-.002.026-.001.052-.001.079v3.701c.004.086.005.087.097.114v.179c-.163.041-.277-.083-.292-.204a.9.9 0 0 1-.004-.107V10.14c.007-.164.098-.26.263-.273.058-.004.118-.002.177-.002h.423c.183.002.302.118.305.3.003.118.001.236.001.364Z"/>
  <path fill="#6CB12B" d="M2.942 11.878c.305.303.354.825.123 1.197a.822.822 0 0 1-.916.357.914.914 0 0 1-.688-.936.915.915 0 0 1 .798-.843.798.798 0 0 1 .683.225Zm-.45-.018a.712.712 0 0 0-.814.543.71.71 0 0 0 .516.831.621.621 0 0 0 .764-.401.79.79 0 0 0 .01-.53.625.625 0 0 0-.475-.443Zm5.648 1.239c-.213-.361-.218-.722-.01-1.076.156-.268.405-.395.714-.387.32.009.555.165.696.45.135.276.143.562.036.848-.234.623-1.026.664-1.384.233l-.051-.068Zm.604.144a.584.584 0 0 0 .645-.387.847.847 0 0 0-.017-.65c-.1-.224-.27-.357-.523-.367a.58.58 0 0 0-.57.329.795.795 0 0 0-.036.692.587.587 0 0 0 .501.383Zm9.793-1.022c-.105 0-.2.002-.295 0-.122-.002-.165-.066-.109-.17.128-.237.304-.425.578-.48a.717.717 0 0 1 .71.24c.063.07.116.15.164.232.064.107.023.177-.102.178h-.946Zm.01-.357a.546.546 0 0 0-.146.152h.91c-.085-.213-.488-.371-.765-.152Zm-5.116 1.887a.725.725 0 0 1 .075.477c-.084-.017-.126-.079-.157-.146-.04-.086-.074-.175-.11-.263l-.224-.545c-.01-.027-.024-.054-.044-.099l-.048.103c-.104.258-.205.517-.313.773-.025.058-.072.107-.112.158-.01.014-.032.018-.063.033.003-.14-.016-.266.038-.394.131-.31.253-.624.379-.937.022-.056.04-.117.115-.117.072.001.095.058.118.115.113.279.229.557.346.842Z"/>
</svg>
