<svg xmlns="http://www.w3.org/2000/svg" width="24" height="25" fill="none" viewBox="0 0 24 25">
  <path fill="#fff" d="M4.27 8.984a2.757 2.757 0 0 0-1.8 1.397c-.015.025-.027.053-.044.076a.098.098 0 0 1-.124.029.096.096 0 0 1-.051-.116 2.953 2.953 0 0 1 1.926-1.572l.086-.022c.006-.001.012-.005.023-.01.008-.024.019-.051.027-.079.365-1.197 1.348-2.088 2.58-2.298 1.12-.191 2.099.119 2.92.903.063.06.12.082.207.076a2.537 2.537 0 0 1 2.643 2.056c.012.065.042.094.097.119.37.168.688.406.957.709.024.027.05.053.068.084a.099.099 0 0 1-.153.123c-.02-.017-.036-.038-.053-.058a2.67 2.67 0 0 0-1.768-.91 2.565 2.565 0 0 0-1.153.137c-.071.025-.112.01-.163-.038a2.593 2.593 0 0 0-3.575.008c-.02.018-.037.038-.059.053a.102.102 0 0 1-.134-.014c-.032-.037-.034-.083-.004-.127.011-.015.026-.029.04-.043a2.72 2.72 0 0 1 1.654-.77 2.747 2.747 0 0 1 2.141.676c.046.04.086.045.141.028a2.892 2.892 0 0 1 1.66-.01l.085.022c-.002-.028 0-.05-.005-.07a2.347 2.347 0 0 0-2.545-1.762c-.054.007-.09-.008-.128-.048A3.024 3.024 0 0 0 7.9 6.565c-.983-.125-1.844.158-2.567.836a2.984 2.984 0 0 0-.853 1.445c-.02.073-.046.117-.125.12-.026.001-.051.01-.085.018Zm7.661 3.196c.075.227.145.447.24.663.014-.04.028-.08.04-.12l.375-1.179.019-.056c.059-.171.138-.23.32-.232.19-.002.38-.001.57 0 .03 0 .06.002.089.007.157.028.225.13.183.285-.02.069-.05.134-.077.201-.06.146-.117.292-.18.436a.158.158 0 0 0 .003.148c.085.166.165.335.248.502.008.016.02.031.038.06.02-.05.034-.084.047-.12l.454-1.224c.01-.031.022-.062.034-.092.064-.157.13-.203.299-.204h.512a.67.67 0 0 1 .146.018c.122.03.182.118.164.24a.576.576 0 0 1-.037.133l-1.17 2.841a.316.316 0 0 1-.174.184c0-.138-.017-.258.033-.379.367-.882.73-1.766 1.094-2.65.02-.05.037-.102.061-.168-.055-.006-.096-.015-.136-.015-.144-.002-.289-.001-.433-.001-.143 0-.144 0-.191.13l-.48 1.298-.116.313c-.018.05-.047.088-.105.088-.058 0-.083-.04-.105-.089a65.146 65.146 0 0 0-.289-.623 5.163 5.163 0 0 0-.108-.22.194.194 0 0 1-.004-.179c.084-.199.165-.4.246-.6.013-.032.023-.065.038-.109-.048-.004-.084-.009-.119-.009h-.502c-.126 0-.134.007-.173.128l-.493 1.553c-.01.034-.016.073-.037.1a.164.164 0 0 1-.083.057c-.042.011-.077-.013-.095-.052a.98.98 0 0 1-.043-.11l-.508-1.549c-.04-.12-.047-.127-.173-.127h-.532c-.037 0-.075.008-.126.014.016.052.027.092.042.13.356.87.709 1.74 1.07 2.606a.908.908 0 0 1 .064.453c-.046.008-.076-.02-.098-.05a.577.577 0 0 1-.073-.126c-.39-.948-.778-1.896-1.166-2.844a.485.485 0 0 1-.03-.093c-.028-.148.049-.259.197-.285a.563.563 0 0 1 .098-.008h.58c.186.001.275.068.333.246l.22.68Zm-10.096-.531c-.066.082-.126.16-.189.235-.078.096-.162.083-.205-.032-.038-.105-.072-.21-.11-.316-.03-.083-.037-.088-.129-.088H.626c.012.042.016.077.03.107.088.196.103.4.102.613-.005 1.07-.002 2.142-.004 3.212 0 .083.02.149.074.214.198.24.391.485.586.728.024.029.05.057.092.105.013-.054.025-.083.026-.112.003-.062.001-.125.001-.187v-1.817l.001-.088c0-.044.018-.078.058-.095a.101.101 0 0 1 .118.023l.027.029c.207.219.207.219.448.348v.193c-.172-.028-.304-.121-.446-.235-.002.05-.004.085-.004.119v1.67c0 .033 0 .066-.002.098a.265.265 0 0 1-.201.24c-.079.018-.143.006-.199-.066-.236-.302-.477-.6-.72-.897a.264.264 0 0 1-.06-.18l.001-3.458a.712.712 0 0 0-.044-.258 4.046 4.046 0 0 1-.077-.233c-.045-.142.034-.28.206-.276.2.003.4.001.601 0 .136 0 .222.067.27.19.023.06.044.121.07.193l.065-.072a.98.98 0 0 1 .733-.348c.912-.035 1.611.605 1.742 1.45.08.52-.015 1.005-.333 1.434-.23.311-.539.512-.915.608-.034.009-.07.013-.114.021v-.193c.013-.005.027-.011.042-.015.62-.17.985-.582 1.111-1.199.09-.436.025-.857-.223-1.235-.323-.49-.79-.7-1.37-.665a.72.72 0 0 0-.483.235ZM19.57 13.48c.114-.06.214-.041.295.042.118.122.234.248.341.38.083.103.066.244-.034.34a1.75 1.75 0 0 1-.987.488c-.01.001-.02-.003-.033-.005-.002-.015-.006-.03-.007-.046-.004-.147 0-.144.126-.17.284-.056.526-.197.738-.391.051-.048.057-.072.018-.117-.097-.111-.197-.22-.296-.329-.009-.009-.022-.014-.04-.026l-.077.054c-.297.216-.625.302-.985.204a.713.713 0 0 1-.548-.624c0-.063.031-.097.094-.103.029-.003.059-.001.088-.001h1.724c.072 0 .144-.006.216-.014.093-.012.108-.03.117-.126a1.425 1.425 0 0 0-.441-1.201 1.482 1.482 0 0 0-2.442.577 1.572 1.572 0 0 0 1.06 2.067l.079.024v.2c-.035-.006-.066-.008-.096-.017-.7-.21-1.16-.658-1.308-1.379-.184-.897.349-1.803 1.231-2.043.93-.253 1.92.358 2.099 1.3.031.168.031.339.019.508-.013.172-.098.26-.27.286a2.109 2.109 0 0 1-.295.017c-.505.002-1.01 0-1.517 0h-.118c.007.028.008.05.017.068.075.136.19.222.338.266.23.069.45.027.66-.074.081-.039.152-.1.234-.155Zm-9.813 1.403c.125.288.246.571.366.854l.141.335a.4.4 0 0 1 .03.24.377.377 0 0 1-.337.308.377.377 0 0 1-.404-.262c-.119-.36-.235-.722-.353-1.083-.012-.037-.026-.074-.036-.112-.031-.111.001-.182.105-.233l.056-.025-.068-.194-.155.018v-.195c.51-.105.9-.38 1.137-.85.174-.346.212-.713.12-1.089a1.556 1.556 0 0 0-1.654-1.182 1.553 1.553 0 0 0-1.447 1.415 1.58 1.58 0 0 0 1.267 1.703v.188c-.712-.039-1.39-.764-1.469-1.564a1.755 1.755 0 0 1 1.322-1.891c.892-.224 1.745.218 2.087 1.013.132.306.167.625.124.952-.043.326-.17.617-.377.873a1.792 1.792 0 0 1-.79.557l.07.184c.099-.034.189-.053.265.04Zm-.157 1.05c.042.127.08.256.126.381.04.112.155.163.263.125a.206.206 0 0 0 .126-.262c-.006-.018-.014-.036-.022-.055l-.445-1.057c-.01-.026-.025-.05-.04-.078l-.266.1c-.003.017-.006.024-.005.029l.263.817Zm12.587-4.34-.205.248a.41.41 0 0 1-.06.065c-.059.052-.126.04-.163-.03-.022-.042-.036-.09-.055-.135-.03-.07-.061-.138-.088-.208-.02-.053-.053-.077-.111-.075-.105.002-.21-.002-.315.001-.107.003-.13.03-.13.139v2.77c0 .1.002.1.103.14v.172a.246.246 0 0 1-.3-.211c-.005-.039-.005-.079-.005-.118v-2.789c.005-.176.098-.288.273-.301.146-.012.295-.007.442-.002.102.003.169.066.212.155.032.067.062.135.098.213l.063-.066c.076-.077.148-.159.23-.228a.568.568 0 0 1 .365-.125 1.24 1.24 0 0 1 .743.215l.203.139c.13.09.163.208.098.351-.029.062-.067.12-.101.18-.05.085-.098.17-.15.254-.118.185-.32.215-.486.07a.551.551 0 0 0-.394-.149.362.362 0 0 0-.256.109c-.035.034-.064.074-.096.112a.271.271 0 0 0-.063.189c.003.55.002 1.1.001 1.65a.79.79 0 0 1-.012.156c-.03.144-.135.216-.294.2v-.173c.029-.016.07-.027.085-.053.018-.031.017-.075.017-.114 0-.563.002-1.126-.002-1.69 0-.096.02-.18.082-.253.016-.02.03-.043.046-.064a.653.653 0 0 1 .908-.156c.041.027.078.06.117.089.068.05.125.047.168-.022.082-.133.162-.269.238-.406.032-.057.024-.08-.027-.116a5.436 5.436 0 0 0-.262-.175 1.047 1.047 0 0 0-.456-.141.512.512 0 0 0-.461.183Zm-17.732 1.35v-1.375c.003-.183.105-.298.288-.31.137-.008.275-.004.413-.001.105.002.179.059.224.152.034.07.066.141.104.224l.073-.087a1.11 1.11 0 0 1 .273-.252.582.582 0 0 1 .28-.085c.273-.012.527.05.756.204.081.054.164.108.238.172.122.105.14.22.063.361a9.42 9.42 0 0 1-.234.398c-.116.188-.319.218-.485.074a.555.555 0 0 0-.384-.15.37.37 0 0 0-.28.12c-.036.04-.066.082-.1.123a.227.227 0 0 0-.049.154c.002.557.001 1.113.001 1.67 0 .042.001.085-.004.127-.022.157-.144.245-.304.22-.002-.018-.005-.037-.005-.056v-.114c.112-.044.112-.044.112-.168 0-.573.002-1.146 0-1.719a.298.298 0 0 1 .062-.2c.028-.036.054-.075.081-.111.22-.29.553-.297.804-.18.07.033.133.083.196.13.077.057.132.054.18-.024.08-.128.155-.258.23-.389.032-.055.03-.078-.022-.119-.228-.184-.475-.324-.783-.325a.47.47 0 0 0-.346.136c-.059.057-.11.121-.164.183-.049.057-.093.119-.146.172-.063.065-.134.05-.174-.03-.021-.044-.036-.091-.055-.136-.029-.07-.06-.138-.088-.208-.018-.045-.048-.067-.097-.066-.112.001-.224-.002-.335.001-.095.004-.118.032-.122.129v2.77c.002.105.005.11.103.152v.171c-.132.02-.244-.04-.281-.16a.558.558 0 0 1-.022-.164v-1.414Zm12.372-1.985v3.359c0 .042.001.085-.003.127-.015.153-.13.249-.295.242V14.5c.081-.01.098-.063.098-.139l-.001-3.721c0-.119-.021-.14-.136-.14-.174-.001-.348-.002-.522 0-.095 0-.107.014-.11.108-.002.026-.001.053-.001.079v3.702c.004.085.005.086.097.113v.18c-.163.04-.277-.083-.292-.204a.9.9 0 0 1-.004-.108v-3.801c.007-.164.098-.26.263-.272.058-.005.118-.002.177-.002h.423c.183.002.302.118.305.3.003.118.001.236.001.363Z"/>
  <path fill="#fff" d="M2.942 12.308c.305.302.354.825.123 1.196a.822.822 0 0 1-.916.357.914.914 0 0 1-.688-.935.915.915 0 0 1 .798-.843.798.798 0 0 1 .683.225Zm-.45-.019a.712.712 0 0 0-.814.543.71.71 0 0 0 .516.832.621.621 0 0 0 .764-.402.79.79 0 0 0 .01-.529.625.625 0 0 0-.475-.444Zm5.648 1.239c-.213-.36-.218-.721-.01-1.075.156-.268.405-.395.714-.387.32.008.555.164.696.45.135.275.143.562.036.848-.234.622-1.026.663-1.384.232a1.333 1.333 0 0 1-.051-.068Zm.604.144a.584.584 0 0 0 .645-.386.847.847 0 0 0-.017-.65c-.1-.225-.27-.358-.523-.367a.58.58 0 0 0-.57.328.795.795 0 0 0-.036.692.587.587 0 0 0 .501.383Zm9.793-1.022c-.105 0-.2.002-.295 0-.122-.001-.165-.066-.109-.17.128-.237.304-.425.578-.48a.717.717 0 0 1 .71.24c.063.07.116.15.164.232.064.108.023.178-.102.178-.29.002-.578 0-.867 0h-.079Zm.01-.357a.545.545 0 0 0-.146.152h.91c-.085-.213-.488-.37-.765-.152Zm-5.116 1.888a.725.725 0 0 1 .075.477c-.084-.017-.126-.08-.157-.147-.04-.086-.074-.175-.11-.262l-.224-.546c-.01-.027-.024-.053-.044-.098-.02.043-.035.072-.048.103-.104.258-.205.517-.313.773-.025.058-.072.107-.112.158-.01.013-.032.018-.063.033.003-.14-.016-.267.038-.394.131-.31.253-.625.379-.938.022-.055.04-.117.115-.116.072 0 .095.058.118.114.113.28.229.558.346.843Z"/>
</svg>
