<svg viewBox="0 0 14 14" xmlns="http://www.w3.org/2000/svg">
<path fill-rule="evenodd" fill="currentColor" clip-rule="evenodd" d="M11.1572 2.10822C10.447 1.77594 9.5882 2.0371 9.18883 2.72883C9.02203 3.01774 8.96043 3.33726 8.99169 3.6451C9.1354 3.68048 9.27658 3.73648 9.41119 3.8142L9.43641 3.82906L11.1572 2.10822ZM8.32281 2.22883C8.05189 2.69807 7.94847 3.21926 7.99441 3.72121C7.75415 3.82051 7.53648 3.97852 7.36511 4.18889C6.92663 4.213 6.49729 4.40697 6.15194 4.61089C5.64732 4.90886 5.17444 5.31674 4.83796 5.65322L5.54506 6.36033C5.84523 6.06016 6.25183 5.71323 6.66039 5.47198C6.78605 5.39779 6.90131 5.33984 7.00588 5.29612C7.01911 5.52343 7.08052 5.746 7.18588 5.94801L6.0556 7.0783L6.76272 7.78539L7.90229 6.64581C8.06601 6.72623 8.2377 6.77623 8.41051 6.79764C8.36533 6.91195 8.30257 7.03977 8.21939 7.18064C7.97815 7.5892 7.63121 7.9958 7.33105 8.29597L8.03815 9.00307C8.37464 8.66659 8.78252 8.19371 9.08048 7.68909C9.27427 7.36091 9.45906 6.95688 9.49764 6.54123C9.69754 6.40852 9.87062 6.22879 9.99872 6.0069C10.0054 5.99527 10.012 5.9836 10.0184 5.97187C11.051 6.17731 12.1443 5.7193 12.7004 4.75621C13.3983 3.54739 12.9841 2.00166 11.7753 1.30375C10.5664 0.605829 9.02073 1.02 8.32281 2.22883ZM11.8343 4.25621C11.4962 4.84196 10.8277 5.11965 10.1992 4.98819C10.1805 4.85096 10.1441 4.71657 10.0911 4.5886L11.8753 2.80434C12.099 3.2486 12.1016 3.79329 11.8343 4.25621ZM8.91119 4.68022C8.62174 4.51311 8.25162 4.61228 8.08451 4.90173C7.9174 5.19118 8.01657 5.5613 8.30602 5.72841C8.59547 5.89553 8.96558 5.79635 9.1327 5.5069C9.29981 5.21745 9.20064 4.84734 8.91119 4.68022ZM1.51565 10.4666L4.19644 7.78574L3.48932 7.07864L0.808527 9.75953C0.262873 10.3052 0.079238 11.244 0.678475 11.8432C0.928783 12.0935 1.23834 12.2073 1.55375 12.215C1.56159 12.5304 1.6753 12.8398 1.92555 13.0901C2.52478 13.6893 3.46362 13.5057 4.00927 12.96L6.66118 10.308L5.95407 9.60091L3.30216 12.2529C3.0157 12.5394 2.72187 12.4722 2.63265 12.383C2.54344 12.2937 2.47626 11.9999 2.76272 11.7134L5.44351 9.03256L4.73639 8.32547L4.70739 8.35447L4.707 8.35408L2.05509 11.0061C1.76863 11.2925 1.4748 11.2254 1.38558 11.1361C1.29637 11.0469 1.22919 10.7531 1.51565 10.4666ZM1.46007 3.08196C1.26481 2.8867 0.948228 2.8867 0.752966 3.08196C0.557704 3.27722 0.557704 3.59381 0.752966 3.78907L10.6525 13.6886C10.8477 13.8838 11.1643 13.8838 11.3596 13.6886C11.5548 13.4933 11.5548 13.1767 11.3596 12.9815L1.46007 3.08196Z"/>
</svg>
