<svg xmlns="http://www.w3.org/2000/svg" viewBox="0 0 30 30" fill="none" xmlns:v="https://vecta.io/nano"><g clip-path="url(#C)"><path d="M14.892 0c-7.616 0-7.14 3.303-7.14 3.303l.008 3.422h7.268v1.027H4.873S0 7.2 0 14.886s4.254 7.413 4.254 7.413h2.539v-3.567s-.137-4.254 4.186-4.254h7.208s4.05.066 4.05-3.915V3.983S22.851 0 14.892 0zm-4.007 2.301c.723 0 1.308.585 1.308 1.308s-.584 1.308-1.308 1.308-1.307-.585-1.307-1.308.584-1.308 1.307-1.308z" fill="url(#A)"/><path d="M15.108 29.849c7.616 0 7.14-3.303 7.14-3.303l-.009-3.422h-7.267v-1.027h10.154S30 22.649 30 14.963 25.746 7.55 25.746 7.55h-2.538v3.566s.137 4.254-4.186 4.254h-7.208s-4.05-.065-4.05 3.915v6.581s-.615 3.983 7.344 3.983zm4.007-2.301c-.723 0-1.307-.584-1.307-1.308s.584-1.308 1.307-1.308 1.307.584 1.307 1.308-.584 1.308-1.307 1.308z" fill="url(#B)"/></g><defs><linearGradient id="A" x1="2.883" y1="2.685" x2="17.752" y2="17.403" gradientUnits="userSpaceOnUse"><stop stop-color="#387eb8"/><stop offset="1" stop-color="#366994"/></linearGradient><linearGradient id="B" x1="12.008" y1="12.138" x2="27.976" y2="27.23" gradientUnits="userSpaceOnUse"><stop stop-color="#ffe052"/><stop offset="1" stop-color="#ffc331"/></linearGradient><clipPath id="C"><path fill="#fff" d="M0 0h30v30H0z"/></clipPath></defs></svg>