<svg xmlns="http://www.w3.org/2000/svg" width="25" height="25" fill="none" viewBox="0 0 25 25">
  <path fill="#fff" fill-rule="evenodd" d="M21.918 4.263S18.674.81 12.223.81C5.77.811 2.53 4.263 2.53 4.263s-.37 2.555-.134 7.7c.358 7.771 9.827 12.44 9.828 12.439.063-.032 9.472-4.694 9.828-12.44.237-5.144-.134-7.7-.134-7.7Zm-9.694 1.78c-2.67 0-4.842 2.236-4.842 4.984 0 2.292 1.214 4.091 3.609 5.347 1.567.823 3.904 1.425 6.374 1.742-.41.612-1.506 1.658-2.147 2.012-2.957-.485-5.555-1.51-7.33-3.044-1.9-1.641-2.904-3.783-2.904-6.194 0-3.992 3.248-7.24 7.24-7.24s7.24 3.248 7.24 7.24a6.994 6.994 0 0 1-2.724 5.538c-1.158-.106-2.368-.435-2.917-.748 1.414-.902 3.248-2.657 3.248-4.79a4.852 4.852 0 0 0-4.847-4.847Z" clip-rule="evenodd"/>
</svg>
