<svg xmlns="http://www.w3.org/2000/svg" width="25" height="24" fill="none" viewBox="0 0 25 24">
  <path fill="#fff" fill-rule="evenodd" d="M13.174.41c6.451 0 9.695 3.451 9.695 3.451s.371 2.555.134 7.7C22.646 19.332 13.176 24 13.176 24c-.001 0-9.47-4.668-9.828-12.44-.237-5.144.134-7.699.134-7.699S6.722.409 13.174.409Z" clip-rule="evenodd"/>
  <path fill="#ED2E26" fill-rule="evenodd" d="M22.87 3.861S19.624.409 13.173.409 3.482 3.861 3.482 3.861s-.371 2.555-.134 7.7C3.705 19.332 13.175 24 13.176 24c.063-.031 9.471-4.694 9.827-12.44.237-5.144-.134-7.699-.134-7.699Zm-9.694 1.78c-2.67 0-4.843 2.236-4.843 4.984 0 2.292 1.214 4.091 3.61 5.348 1.566.822 3.904 1.424 6.374 1.742-.411.611-1.507 1.657-2.148 2.01-2.957-.484-5.555-1.508-7.33-3.043-1.9-1.641-2.903-3.783-2.903-6.194 0-3.992 3.247-7.24 7.24-7.24 3.992 0 7.24 3.248 7.24 7.24a6.994 6.994 0 0 1-2.724 5.538c-1.159-.106-2.369-.435-2.917-.748 1.413-.902 3.247-2.657 3.247-4.79a4.852 4.852 0 0 0-4.846-4.847Z" clip-rule="evenodd"/>
</svg>
