<svg width="24" height="24" fill="none" xmlns="http://www.w3.org/2000/svg"><path d="M20.462 4H2.879a.829.829 0 0 0-.622.293A1.074 1.074 0 0 0 2 5v6c0 .265.093.52.257.707A.83.83 0 0 0 2.88 12h17.582a.829.829 0 0 0 .622-.293c.165-.187.258-.442.258-.707V5c0-.265-.093-.52-.258-.707A.829.829 0 0 0 20.462 4Zm-.88 6H3.758V6h15.824v4Zm.88 4H2.879a.829.829 0 0 0-.622.293A1.074 1.074 0 0 0 2 15c0 .265.093.52.257.707A.829.829 0 0 0 2.88 16h17.582a.829.829 0 0 0 .622-.293c.165-.187.258-.442.258-.707 0-.265-.093-.52-.258-.707a.829.829 0 0 0-.621-.293Zm0 4H2.879a.829.829 0 0 0-.622.293A1.074 1.074 0 0 0 2 19c0 .265.093.52.257.707A.829.829 0 0 0 2.88 20h17.582a.829.829 0 0 0 .622-.293c.165-.187.258-.442.258-.707 0-.265-.093-.52-.258-.707a.829.829 0 0 0-.621-.293Z" fill="#000"/></svg>