<svg viewBox="0 0 32 24" xmlns="http://www.w3.org/2000/svg"><path fill-rule="evenodd" clip-rule="evenodd" d="m23.089 16.866-3.91-3.909a.614.614 0 0 1 0-.868l3.91-3.91a.614.614 0 1 1 .868.87l-2.86 2.86h9.392a.614.614 0 0 1 0 1.228h-9.392l2.86 2.86a.614.614 0 1 1-.868.869ZM8.014 8.18l3.91 3.909c.239.24.239.628 0 .868l-3.91 3.909a.614.614 0 1 1-.868-.869l2.86-2.86H.614a.614.614 0 0 1 0-1.228h9.392l-2.86-2.86a.614.614 0 0 1 .868-.87Z"/><path stroke="#000" stroke-width="2" stroke-linecap="round" d="M15.5 1v22"/></svg>