<svg xmlns="http://www.w3.org/2000/svg" fill="none" viewBox="0 0 32 32"><path d="M19.744 13.234a.9.9 0 0 0 .231.147.4.4 0 0 0 .208.04c.116-.02.163-.069.18-.116a.22.22 0 0 0-.01-.151 1.97 1.97 0 0 1-.084-1.117 2.71 2.71 0 0 1 .447-.982l.015-.018c.023-.038.02-.06.014-.07q-.007-.014-.044-.03a.13.13 0 0 0-.086-.002c-.055.02-.265.097-.495.257s-.478.402-.61.75c-.193.514-.123.966.213 1.28zm3.471.518a.54.54 0 0 1-.242.138 1.2 1.2 0 0 1-.355.057c-.612.001-1.073-.366-1.311-1.015-.16-.435-.111-.89-.011-1.255.1-.363.25-.636.286-.698a.16.16 0 0 1 .09-.073.13.13 0 0 1 .074-.01c.022.007.044.028.05.083l.002.025c.007.146.032.717.35 1.377.175.364.516.715 1.011.966.053.028.114.07.14.136.024.063.017.147-.084.265m2.33-1.407c.247-.182.373-.411.39-.59.017-.187-.04-.29-.11-.343a.3.3 0 0 0-.242-.042c-.66.17-1.24.133-1.667-.056a3.6 3.6 0 0 1-1.298-.964q-.017-.023-.024-.027c-.042-.044-.083-.048-.113-.033a.1.1 0 0 0-.056.085c-.003.088.037.444.192.844.156.402.425.844.885 1.11.685.392 1.475.425 2.033.023zm.85-3.574c.108-.11.231-.187.336-.201q.084-.011.145.03a.28.28 0 0 1 .097.155c.03.093.04.246.025.415a1.4 1.4 0 0 1-.125.487l-.007.013c-.369.738-1.135.983-1.985.942-.567-.03-1.034-.315-1.368-.615s-.536-.615-.573-.702a.11.11 0 0 1 .018-.11c.023-.03.063-.046.126-.024q.012.002.037.016c.167.07.8.344 1.697.276.737-.054 1.275-.37 1.584-.68zm.243-2.713a1.1 1.1 0 0 0-.153-.367c-.052-.073-.1-.105-.14-.114a.14.14 0 0 0-.112.027.6.6 0 0 0-.146.189c-.399.758-.857 1.206-1.532 1.55a3.625 3.625 0 0 1-1.188.368 3 3 0 0 1-.385.025h-.174c-.067.005-.1.036-.11.073a.113.113 0 0 0 .024.112c.051.048.197.15.413.255.214.105.495.21.81.276.628.13 1.39.084 2.033-.507.45-.411.69-.86.715-1.384a1.7 1.7 0 0 0-.053-.5zm-1.16-2.34.005.015c.179.482.114.994-.174 1.573-.418.838-1.175 1.236-1.869 1.413a4.2 4.2 0 0 1-.936.127 2.2 2.2 0 0 1-.523-.038.1.1 0 0 1-.07-.09c-.006-.038.017-.083.086-.118l.045-.02a4.4 4.4 0 0 0 1.574-1.152c.546-.626.832-1.245.932-2.121.008-.047.022-.16.074-.24a.18.18 0 0 1 .107-.08c.046-.01.11-.004.192.038.091.046.2.138.302.262s.197.27.254.43m-2.457-2.36h.001a1.6 1.6 0 0 0-.437-.327 1.1 1.1 0 0 0-.418-.135c-.104-.007-.172.015-.214.045a.2.2 0 0 0-.08.13c-.024.105.008.23.02.28.248.94.202 1.703-.109 2.585a5.2 5.2 0 0 1-1.155 1.877q-.03.03-.039.042c-.054.067-.06.123-.04.162a.11.11 0 0 0 .11.06c.083-.01.288-.071.555-.193.267-.12.594-.3.915-.546.643-.49 1.265-1.23 1.358-2.278.065-.724-.078-1.284-.46-1.7h-.002l-.007-.01v.007zM18.837.038a1.2 1.2 0 0 1 .466-.03c.184.02.38.072.555.157.539.266.953.798 1.078 1.52.232 1.328-.107 2.371-.546 3.106s-.975 1.157-1.133 1.24a.12.12 0 0 1-.133-.018c-.035-.03-.05-.09-.02-.18l.025-.056c.104-.239.486-1.11.478-2.326A5.06 5.06 0 0 0 18.73.603a.7.7 0 0 1-.123-.273.24.24 0 0 1 .031-.16.36.36 0 0 1 .199-.132zM15.8.24l-.002.001c-.198.042-.37.111-.479.188a.4.4 0 0 0-.167.205.25.25 0 0 0 .018.182.7.7 0 0 0 .214.244c.882.682 1.5 1.634 1.823 2.68.393 1.27.27 2.311.237 2.593q-.007.05-.007.067c-.005.106.032.164.079.184.05.022.11.01.148-.027a1.9 1.9 0 0 0 .268-.413 5.55 5.55 0 0 0 .315-.744c.198-.582.346-1.307.295-2.027-.05-.691-.19-1.328-.494-1.928-.33-.653-.966-1.13-1.616-1.225a1.8 1.8 0 0 0-.63.025zm-4.053 1.74c.086-.124.244-.262.437-.382.19-.118.415-.216.64-.266v.002l.017-.003c.718-.15 1.56.109 2.14.669.537.514.914 1.129 1.214 1.838.315.738.418 1.56.42 2.248 0 .343-.024.653-.063.903a2.2 2.2 0 0 1-.135.534.15.15 0 0 1-.148.087c-.06-.005-.12-.05-.15-.166l-.02-.072a6.828 6.828 0 0 0-1.18-2.637C14.202 3.762 13.211 3 12.04 2.62a.783.783 0 0 1-.316-.174.3.3 0 0 1-.086-.188.47.47 0 0 1 .105-.282m-2.52 1.92h-.003a2.43 2.43 0 0 0-.574.566c-.154.21-.262.424-.302.59a.7.7 0 0 0-.014.35.27.27 0 0 0 .118.164c.105.065.25.058.325.052a6.87 6.87 0 0 1 4.018 1.002 7.6 7.6 0 0 1 2.31 2.282l.048.073c.083.106.164.133.23.113a.18.18 0 0 0 .12-.158c.01-.128-.018-.348-.08-.63a7 7 0 0 0-.307-.981c-.282-.734-.73-1.556-1.36-2.204-.605-.624-1.25-1.11-2.02-1.43-.834-.343-1.818-.26-2.51.206M6.56 9.9c-.08.036-.233.103-.374.074a.3.3 0 0 1-.19-.13.8.8 0 0 1-.112-.386c-.018-.201.02-.478.112-.77.09-.286.23-.586.415-.84h.002l.007-.008C7 7.055 8.042 6.56 9.078 6.595c.954.03 1.834.298 2.717.727.922.448 1.712 1.124 2.294 1.76.29.319.528.628.7.891.174.266.283.486.322.626a.22.22 0 0 1-.072.226c-.064.05-.164.052-.292-.028l-.042-.029c-.267-.18-1.502-1.013-3.41-1.416-1.507-.32-3.267-.119-4.73.55zm-1.433 3.111c-.102.34-.137.715-.125 1.055.014.341.076.645.167.847.084.186.174.296.26.358s.169.075.248.062c.158-.025.293-.158.363-.227 1.277-1.28 3.037-2.193 4.73-2.462 2.147-.342 3.749.038 4.083.118q.034.008.049.01c.165.035.269-.008.318-.088a.25.25 0 0 0-.006-.268c-.09-.132-.286-.318-.567-.525a8 8 0 0 0-1.06-.651c-.842-.435-1.916-.824-3.044-.922-1.082-.095-2.1-.024-3.105.327-1.094.38-1.997 1.313-2.313 2.368zm.437 6.475c-.18-1.22.292-2.618 1.22-3.556.854-.863 1.854-1.45 2.995-1.905 1.189-.475 2.467-.63 3.527-.62.53.005 1.004.05 1.385.116.388.073.675.158.831.247.094.05.146.16.134.27-.01.106-.098.203-.28.252l-.06.013c-.384.093-2.184.522-4.193 1.953-1.587 1.131-2.936 2.943-3.623 4.877-.037.108-.112.31-.26.417a.37.37 0 0 1-.282.062c-.118-.017-.262-.084-.436-.228-.19-.156-.397-.43-.572-.767a3.6 3.6 0 0 1-.38-1.126m3.593 7.952a4.96 4.96 0 0 0 1.096 1.067c.395.282.785.477 1.084.546.274.062.47.056.604.01a.41.41 0 0 0 .26-.237.8.8 0 0 0 .052-.34c-.004-.113-.023-.218-.035-.29-.483-2.598-.19-5.44.774-7.644 1.22-2.79 2.845-4.319 3.19-4.648l.056-.05c.16-.162.195-.324.138-.457a.38.38 0 0 0-.316-.237c-.22-.01-.576.057-1.02.202a9.6 9.6 0 0 0-1.53.67c-1.12.601-2.368 1.516-3.325 2.744-.92 1.176-1.602 2.423-1.964 3.902-.388 1.583-.03 3.423.893 4.71l.04.051zm15.474 2.81h-.009c-1.36.21-2.913-.392-3.956-1.55-.957-1.066-1.61-2.305-2.113-3.72-.523-1.475-.692-3.05-.68-4.355.007-.653.056-1.24.132-1.708.076-.47.174-.823.272-1.016a.302.302 0 0 1 .306-.164c.12.017.228.126.283.355l.015.072c.102.473.576 2.697 2.162 5.192 1.252 1.97 3.263 3.66 5.413 4.528.117.047.344.143.463.33.06.093.092.208.07.354-.02.147-.096.325-.256.536-.175.233-.48.486-.857.698a3.7 3.7 0 0 1-1.245.45m-5.174 1.596c.274-.107.441-.227.54-.35a.5.5 0 0 0 .116-.37.8.8 0 0 0-.117-.338 2 2 0 0 0-.17-.24c-1.68-2.057-2.791-4.794-3.004-7.352-.266-3.235.43-5.58.577-6.08l.023-.08c.065-.244.016-.41-.096-.495a.35.35 0 0 0-.392-.026c-.198.119-.483.394-.804.787-.322.394-.68.907-1.028 1.51-.7 1.208-1.36 2.772-1.61 4.447-.244 1.605-.246 3.136.147 4.684.426 1.682 1.657 3.146 3.12 3.742.471.193.998.29 1.48.31s.923-.035 1.218-.15z" fill="#0e37f6"/></svg>