<svg xmlns="http://www.w3.org/2000/svg" xml:space="preserve" viewBox="0 0 611.26 224.22"><path d="M58.98 60.44 70.33 79.8l11.18-19.36zm17 21.41h19.6L85.04 66.16zm29.54 0h23.02L117.03 62.2zm5.69-21.41H88.34l12.22 18.2zM85.1 105.02l10.13-17.3H74.97zm21.12-17.3 10.89 18.6L128 87.72zm5.41 20.96-10.91-18.63-10.91 18.63zm5.81 51.65 10.86-18.54h-21.67zm10.86-24.41-10.83-18.49-10.83 18.49zm-5.64-21.36 10.8 18.44 10.8-18.44zm14.23 24.29v.01l15.1 25.88 2.57 4.4h-38.81l-.86-1.48-13.38-22.93-13.37 22.87-.86 1.48H48.46l2.57-4.4 31.08-53.07-30.85-52.66-2.57-4.39h70.73l.87 1.48 31.7 54.13.85 1.45-.85 1.46zm-3.43 5.87-10.86 18.54h21.67zm-53.04 18.49-10.84-18.5-10.83 18.5zm-5.69-21.42 10.83 18.5 10.79-18.5zm21.44-5.87-11.05-17.74-10.39 17.74zm-6.32-21.36 11.56 18.57.08-.14 10.8-18.43zm43.58-24.37-10.83 18.49h21.66zm405.7-15.85-15.81 24.6 7.73 12.56 25.12-36.52v-.64z" style="fill:#08b09c"/><path d="m519.19 105.38-16.94-27.56-2.14-3.48h-16.83v.64l28.83 43.47v31.04h14.15l.02-32.59zm-280.82-6.11c0-13.03-9.33-24.82-27.01-24.93-11.9.11-23.8 0-35.7 0v75.14h14.15V124.4h13.61l21.87 25.08h16.83v-.97l-22.73-25.62c14.26-2.88 18.98-13.28 18.98-23.62m-27.02-11.74c8.9 0 12.86 6.02 12.86 12.06s-3.86 12.06-12.86 12.06H189.8V87.53zm69.16-13.19-33.66 75.14h15.33l6.43-14.15h39.23l6.33 14.15h15.43l-33.66-75.14zm-6.21 47.81 13.94-32.01 13.93 32.01zm67.23-47.59v74.93h14.15v-27.77h37.62v-13.07h-37.62V88.17h39.77V74.56zm96.28-.22-33.66 75.14h15.33l6.43-14.15h39.23l6.33 14.15h15.44l-33.66-75.14zm-6.22 47.81 13.94-32.01 13.93 32.01z" style="fill:#233941"/></svg>