<svg xmlns="http://www.w3.org/2000/svg" viewBox="0 0 32 33"><g clip-path="url(#a)"><path fill="#0075a8" fill-rule="evenodd" d="M23.75 10.706h3.322c.68 0 1.234.558 1.239 1.233v6.408c0 .68-.559 1.233-1.234 1.233h-3.323c-.68 0-1.233-.558-1.233-1.233V15.83a1.217 1.217 0 0 0-.496.982v2.108c0 .68.559 1.234 1.234 1.234h2.157v3.279c0 .417-.34.753-.753.753h-4.056a.75.75 0 0 1-.753-.753v-3.046a.75.75 0 0 0-.753-.753H8.973a.754.754 0 0 0-.753.753v3.046a.75.75 0 0 1-.753.753H3.41a.75.75 0 0 1-.752-.753v-8.764L.826 16.112a.184.184 0 0 1-.257-.024l-.525-.617a.19.19 0 0 1-.014-.224l2.69-4.095a.746.746 0 0 1 .686-.442h14.296c.466 0 .82.418.743.875l-.291 1.744a.754.754 0 0 0 .743.874h2.87c.37 0 .676-.262.739-.612a1.856 1.856 0 0 1-.583.092h-2.05c-.68 0-1.141-.544-1.03-1.214l.345-2.084c.112-.666.37-1.215.578-1.215.204 0 .374.56.374 1.234v.316a.935.935 0 0 1 .117-.01h3.41c.03-.005.053-.005.083-.005Zm7.888-.321.345 2.084c.112.67-.35 1.214-1.025 1.22h-2.05l-.058-.003a.944.944 0 0 0-.058-.003v-1.496c.039-.005.078-.005.116-.005h.544c.68 0 1.234-.558 1.234-1.234v-.544c0-.68.166-1.234.374-1.234.204 0 .467.545.578 1.215Z" clip-rule="evenodd"/></g><defs><clipPath id="a"><path fill="#fff" d="M0 .678h32v32H0z"/></clipPath></defs></svg>