<svg viewBox="0 0 16 16" fill="none" xmlns="http://www.w3.org/2000/svg"><path d="M11.625 7.783a.25.25 0 0 1 0 .434l-4.5 2.598a.25.25 0 0 1-.375-.217V5.402a.25.25 0 0 1 .375-.217l4.5 2.598Z" stroke="#0278D5"/><circle cx="3.651" cy="4.732" r="1.5" stroke="#0278D5"/><path d="m2.85 10.023.47-.168-.47.168Zm.23-1.084a.5.5 0 0 0-.986.17l.986-.17ZM14 8a5.5 5.5 0 0 1-5.5 5.5v1A6.5 6.5 0 0 0 15 8h-1ZM8.5 2.5A5.5 5.5 0 0 1 14 8h1a6.5 6.5 0 0 0-6.5-6.5v1ZM4.836 3.898A5.478 5.478 0 0 1 8.5 2.5v-1a6.48 6.48 0 0 0-4.33 1.652l.666.746ZM8.5 13.5a5.502 5.502 0 0 1-5.18-3.645l-.941.337c.9 2.51 3.3 4.308 6.121 4.308v-1ZM3.32 9.855a5.456 5.456 0 0 1-.24-.916l-.986.17c.064.372.16.735.285 1.083l.941-.337Z" fill="#0278D5"/></svg>