<svg viewBox="0 0 16 16" fill="none" xmlns="http://www.w3.org/2000/svg"><path d="M11.322 4.001a.5.5 0 0 0 0 1v-1Zm-9.25 4.5v-1h-1v1h1Zm2.5-3.5h3.5v-1h-3.5v1Zm6.75 0h.25v-1h-.25v1Zm-3.25 6h-3.5v1h3.5v-1Zm6-3.5v.5h1v-.5h-1Zm-13 1a3.5 3.5 0 0 0 3.5 3.5v-1a2.5 2.5 0 0 1-2.5-2.5h-1Zm10.5-3.5a2.5 2.5 0 0 1 2.5 2.5h1a3.5 3.5 0 0 0-3.5-3.5v1Zm-9.5 2.5a2.5 2.5 0 0 1 2.5-2.5v-1a3.5 3.5 0 0 0-3.5 3.5h1Z" fill="#0278D5"/><path d="m6.995 2.487 2.113 2.014L5.104 4.5h4.004L6.995 6.515" stroke="#0278D5" stroke-linecap="round" stroke-linejoin="round"/><path d="M14.856 10.392a.25.25 0 0 1 0 .433l-4.198 2.424a.25.25 0 0 1-.375-.217V8.185a.25.25 0 0 1 .375-.217l4.198 2.424Z" stroke="#0278D5"/></svg>