<svg xmlns="http://www.w3.org/2000/svg" viewBox="0 0 24 24">
  <path d="M9.134 19.642c-.368 0-.655-.102-.861-.308-.191-.207-.287-.494-.287-.861v-.398c0-.368.096-.655.287-.86.206-.207.493-.31.86-.31h.244c.368 0 .647.103.838.31.192.205.287.492.287.86v.398c0 .367-.095.654-.287.86-.19.207-.47.31-.838.31h-.243Zm4.018-5.441a.686.686 0 0 1-.535-.24c-.143-.161-.206-.367-.188-.617l.214-2.221c.018-.054.01-.09-.026-.107-.036-.036-.072-.036-.108 0l-1.873 1.338a.718.718 0 0 1-.59.16.805.805 0 0 1-.508-.4c-.143-.25-.178-.474-.107-.67.09-.196.24-.34.455-.429l2.088-.936c.054-.018.08-.045.08-.08 0-.036-.026-.063-.08-.081l-2.088-.964a.722.722 0 0 1-.428-.455.753.753 0 0 1 .08-.642c.125-.214.295-.34.509-.375a.77.77 0 0 1 .589.134l1.873 1.338c.036.036.072.045.108.027.035-.018.044-.054.026-.107l-.214-2.222c-.018-.25.045-.455.188-.616a.8.8 0 0 1 .588-.24c.232 0 .42.08.563.24.143.161.196.366.16.616l-.214 2.222c-.018.053-.009.09.027.107.036.018.08.009.134-.027l1.847-1.311a.713.713 0 0 1 .616-.134c.214.035.383.16.508.374.143.232.17.447.08.643a.826.826 0 0 1-.454.428l-2.062.964c-.053.018-.08.045-.08.08 0 .036.027.063.08.08l2.061.938c.232.107.384.267.456.481.07.197.044.402-.08.616a.805.805 0 0 1-.51.402.794.794 0 0 1-.615-.161l-1.847-1.338c-.054-.036-.098-.036-.134 0-.036.017-.045.053-.027.107l.214 2.222c.036.25-.027.455-.187.615-.143.16-.34.241-.589.241ZM5.38 19.643a.485.485 0 0 1-.324-.12 7.599 7.599 0 0 1-1.867-1.967 9.357 9.357 0 0 1-1.137-2.544 10.92 10.92 0 0 1-.379-2.884c0-1.006.127-1.967.38-2.883a9.158 9.158 0 0 1 1.15-2.528 8.239 8.239 0 0 1 1.853-2.001.485.485 0 0 1 .323-.12c.187 0 .332.086.435.255.103.17.155.334.155.492a.762.762 0 0 1-.253.577 7.014 7.014 0 0 0-1.46 1.73 7.974 7.974 0 0 0-.884 2.137 9.286 9.286 0 0 0-.295 2.341c0 .803.094 1.59.28 2.358.188.769.478 1.481.871 2.137a5.927 5.927 0 0 0 1.488 1.697.748.748 0 0 1 .253.593.84.84 0 0 1-.169.492c-.112.159-.252.238-.42.238Zm13.24 0c.122 0 .23-.04.324-.12a7.598 7.598 0 0 0 1.867-1.967 9.356 9.356 0 0 0 1.137-2.544c.252-.927.378-1.889.378-2.884 0-1.006-.126-1.967-.378-2.883a9.158 9.158 0 0 0-1.151-2.528 8.239 8.239 0 0 0-1.853-2.001.485.485 0 0 0-.323-.12.484.484 0 0 0-.435.255.95.95 0 0 0-.155.492.76.76 0 0 0 .253.577 7.013 7.013 0 0 1 1.46 1.73 7.97 7.97 0 0 1 .884 2.137c.197.758.295 1.538.295 2.341 0 .803-.094 1.59-.28 2.358a7.654 7.654 0 0 1-.871 2.137 5.927 5.927 0 0 1-1.488 1.697.748.748 0 0 0-.253.593c0 .17.056.334.169.492.112.159.252.238.42.238Z"/>
</svg>
