<svg xmlns="http://www.w3.org/2000/svg" viewBox="0 0 16 16" fill="none" stroke="currentColor" xmlns:v="https://vecta.io/nano"><g stroke-linecap="round" stroke-linejoin="round"><path d="M13.333 7V4.667H8l-1.333-2h-4v10.667H7"/><path opacity=".3" d="M8.667 2.667h4.667"/></g><path fill-rule="evenodd" d="M12.055 8.535c-.079-.046-.175-.046-.254 0l-2.8 1.63c-.078.046-.127.13-.127.221v3.139c0 .091.048.175.126.221l2.931 1.72a.25.25 0 0 0 .254 0l2.812-1.642c.078-.046.126-.13.126-.221v-3.125c0-.091-.048-.175-.126-.221l-2.944-1.722zm-2.673 4.843v-2.549l2.445 1.426-.017 2.548-2.427-1.424zm2.934 1.422l.018-2.545 2.285-1.334v2.535L12.316 14.8zm1.241-3.85l.809-.472-2.439-1.427-.802.467 2.366 1.377c.025.015.047.034.066.055zm-.492.287l-2.446-1.424-.984.573 2.446 1.426.984-.575z" fill="currentColor" stroke-width=".3" stroke-linejoin="round"/></svg>