<svg xmlns="http://www.w3.org/2000/svg" viewBox="0 0 200 200" fill="none" stroke="currentColor" stroke-width="6" stroke-linejoin="round" xmlns:v="https://vecta.io/nano"><path d="M43.034 141.667a144.98 144.98 0 0 1 9.432-25m43.368-51.713a140.32 140.32 0 0 1 20.834-12.488" stroke-linecap="round"/><path d="M37.5 183.333c-11.506 0-20.833-9.327-20.833-20.833s9.327-20.833 20.833-20.833 20.833 9.327 20.833 20.833-9.327 20.833-20.833 20.833zM79.167 100c-11.506 0-20.833-9.327-20.833-20.833s9.327-20.833 20.833-20.833S100 67.661 100 79.167 90.673 100 79.167 100zM162.5 58.333c-11.506 0-20.833-9.327-20.833-20.833s9.327-20.833 20.833-20.833 20.833 9.328 20.833 20.833-9.327 20.833-20.833 20.833z"/></svg>