<svg xmlns="http://www.w3.org/2000/svg" viewBox="0 0 226 226" fill="none" xmlns:v="https://vecta.io/nano"><g fill-rule="evenodd"><path d="M75.334 32.961a4.71 4.71 0 0 1 4.708 4.708v14.125h65.916V37.669a4.71 4.71 0 0 1 4.709-4.708 4.71 4.71 0 0 1 4.708 4.708v14.125h32.958a4.71 4.71 0 0 1 4.709 4.708v131.833a4.71 4.71 0 0 1-4.709 4.708H37.667a4.71 4.71 0 0 1-4.708-4.708V56.503a4.71 4.71 0 0 1 4.708-4.708h32.958V37.669a4.71 4.71 0 0 1 4.708-4.708zm-4.708 28.25h-28.25v122.417h141.25V61.211h-28.25v14.125a4.71 4.71 0 0 1-4.708 4.708 4.71 4.71 0 0 1-4.709-4.708V61.211H80.042v14.125a4.71 4.71 0 0 1-4.708 4.708 4.71 4.71 0 0 1-4.708-4.708V61.211z" fill="url(#A)"/><path d="M53.923 94.367c0-2.628.484-4.758 1.081-4.758h21.627c.597 0 1.081 2.13 1.081 4.758s-.484 4.758-1.081 4.758H55.004c-.597 0-1.081-2.13-1.081-4.758z" fill="#a3e9ff"/><path d="M53.923 118.156c0-2.627.484-4.758 1.081-4.758h21.627c.597 0 1.081 2.131 1.081 4.758s-.484 4.758-1.081 4.758H55.004c-.597 0-1.081-2.13-1.081-4.758z" fill="#fdd13b"/><path d="M53.923 141.945c0-2.627.484-4.757 1.081-4.757h21.627c.597 0 1.081 2.13 1.081 4.757s-.484 4.758-1.081 4.758H55.004c-.597 0-1.081-2.13-1.081-4.758zm31.719-47.578c0-2.628.484-4.758 1.081-4.758h21.627c.597 0 1.082 2.13 1.082 4.758s-.485 4.758-1.082 4.758H86.723c-.597 0-1.081-2.13-1.081-4.758z" fill="#ef9790"/><use href="#D" fill="#b0b1c3"/><use href="#D" y="23.789" fill="#a3e9ff"/><path d="M117.361 94.367c0-2.628.484-4.758 1.082-4.758h21.626c.598 0 1.082 2.13 1.082 4.758s-.484 4.758-1.082 4.758h-21.626c-.598 0-1.082-2.13-1.082-4.758z" fill="#b0b1c3"/><path d="M117.361 118.156c0-2.627.484-4.758 1.082-4.758h21.626c.598 0 1.082 2.131 1.082 4.758s-.484 4.758-1.082 4.758h-21.626c-.598 0-1.082-2.13-1.082-4.758z" fill="#a3e9ff"/><path d="M117.361 165.734c0-2.627.484-4.757 1.082-4.757h21.626c.598 0 1.082 2.13 1.082 4.757s-.484 4.758-1.082 4.758h-21.626c-.598 0-1.082-2.13-1.082-4.758z" fill="#fdd13b"/><path d="M149.081 118.156c0-2.627.484-4.758 1.081-4.758h21.627c.597 0 1.081 2.131 1.081 4.758s-.484 4.758-1.081 4.758h-21.627c-.597 0-1.081-2.13-1.081-4.758z" fill="#ef9790"/><use href="#E" fill="#fdd13b"/><use href="#E" y="23.789" fill="#b0b1c3"/><path d="M168.13 88.815c.241.223.255.6.032.841l-9.817 10.582-4.558-4.961c-.223-.242-.207-.618.035-.84s.618-.206.841.036l3.686 4.013 8.941-9.638c.223-.241.599-.255.84-.032zm-63.438 23.789c.24.223.254.6.031.841l-9.817 10.582-4.558-4.961c-.222-.242-.206-.618.036-.841s.618-.206.84.036l3.686 4.013 8.94-9.638c.223-.241.6-.255.841-.032zm31.719 23.789c.241.223.255.6.031.841l-9.816 10.582-4.559-4.961c-.222-.242-.206-.618.036-.84s.618-.207.84.035l3.687 4.013 8.94-9.638c.224-.241.6-.255.841-.032zm-63.439 23.789c.241.224.255.6.032.841l-9.817 10.582-4.558-4.961c-.222-.242-.206-.618.036-.84s.618-.207.84.035l3.686 4.013 8.941-9.638c.223-.241.6-.255.841-.032z" fill="#42ab45" stroke="#42ab45" stroke-width="2"/></g><g clip-path="url(#C)"><path d="M216.701 30.962l-.013-.387-.017-.433-.059-.876c-.039-.47-.412-.843-.882-.882l-.875-.058-.439-.017-.379-.012-.63-.006h-.105c-4.167.02-7.992 1.043-11.854 3.152l-.204.11c-.024.014-.048.025-.072.039-3.181 1.775-6.342 4.266-9.614 7.538l-1.095 1.127-6.358.483c-.186.014-.364.082-.512.194l-9.972 7.589c-.317.242-.454.653-.343 1.036s.444.659.841.695l9.357.845 2.962 2.963c-1.05.24-2.12.828-3.036 1.744-.549.549-.989 1.164-1.312 1.837-.421.893-1.347 3.192-2.328 5.627l-.478 1.188c-.145.359-.062.77.213 1.044.184.185.432.283.683.283.121 0 .244-.023.361-.07l1.231-.496 5.59-2.313a6.69 6.69 0 0 0 1.831-1.309c.916-.916 1.503-1.985 1.743-3.035l2.875 2.875.845 9.356c.035.397.312.731.695.841.088.026.178.038.267.038.296 0 .583-.137.769-.381l7.588-9.971a.97.97 0 0 0 .194-.512l.469-6.17 1.23-1.195c3.274-3.274 5.766-6.437 7.531-9.605.016-.025.023-.04.032-.056l.234-.437c2.032-3.79 3.019-7.551 3.041-11.639v-.12l-.005-.62zm-12.35 15.389c-.761.762-1.775 1.182-2.853 1.182s-2.09-.42-2.852-1.182a4.04 4.04 0 0 1 0-5.706 4.04 4.04 0 0 1 5.705 0 4.01 4.01 0 0 1 1.183 2.853c0 1.078-.42 2.091-1.183 2.853z" fill="url(#B)"/></g><defs><linearGradient id="A" x1="32.959" y1="113.003" x2="193.042" y2="113.003" gradientUnits="userSpaceOnUse"><stop offset=".307" stop-color="#5452f6"/><stop offset="1" stop-color="#00ade4"/></linearGradient><linearGradient id="B" x1="173.24" y1="49.978" x2="216.706" y2="49.978" gradientUnits="userSpaceOnUse"><stop offset=".307" stop-color="#5452f6"/><stop offset="1" stop-color="#00ade4"/></linearGradient><clipPath id="C"><path fill="#fff" transform="translate(173 28)" d="M0 0h44v44H0z"/></clipPath><path id="D" d="M85.642 141.945c0-2.627.484-4.757 1.081-4.757h21.627c.597 0 1.082 2.13 1.082 4.757s-.485 4.758-1.082 4.758H86.723c-.597 0-1.081-2.13-1.081-4.758z"/><path id="E" d="M149.081 141.945c0-2.627.484-4.757 1.081-4.757h21.627c.597 0 1.081 2.13 1.081 4.757s-.484 4.758-1.081 4.758h-21.627c-.597 0-1.081-2.13-1.081-4.758z"/></defs></svg>