<svg viewBox="0 0 13 14" fill="none" xmlns="http://www.w3.org/2000/svg"><path fill-rule="evenodd" clip-rule="evenodd" d="M3.334 1c0-.184.15-.333.334-.333h6.81c.103 0 .201.048.264.13L12.6 3.233c.045.058.069.129.069.202V13c0 .184-.15.333-.333.333H3.668A.333.333 0 0 1 3.334 13v-2.413a.333.333 0 0 1 .667 0v2.08h8v-9.12l-1.689-2.214h-6.31v2.219a.333.333 0 0 1-.668 0V1Zm4.568 10.33a.333.333 0 0 0 .062-.384L6.682 8.382a.334.334 0 0 0-.062-.087L4.568 6.244l-2.05-2.051a.333.333 0 0 0-.472 0L.764 5.475a.333.333 0 0 0 0 .471l4.102 4.103a.334.334 0 0 0 .087.062l2.564 1.282a.333.333 0 0 0 .385-.062ZM5.299 9.54 1.471 5.71l.81-.81 1.816 1.815L6.11 8.728l.81 1.622-1.62-.811Zm.024-4.853a.333.333 0 0 0 0 .667h5a.333.333 0 1 0 0-.667h-5ZM6.657 7c0-.184.149-.333.333-.333h3.333a.333.333 0 0 1 0 .666H6.99A.333.333 0 0 1 6.657 7ZM8.323 8.69a.333.333 0 1 0 0 .667h2a.333.333 0 1 0 0-.667h-2Z" fill="currentColor"/></svg>