<svg xmlns="http://www.w3.org/2000/svg" viewBox="0 0 28 28" fill="none" xmlns:v="https://vecta.io/nano"><path d="M17.499 4.665V2.332m0 2.333v2.333m0-2.333h-5.25m-8.75 7v10.5c0 .619.246 1.212.683 1.65s1.031.683 1.65.683h16.333c.619 0 1.212-.246 1.65-.683s.683-1.031.683-1.65v-10.5m-21 0h21m-21 0V6.999c0-.619.246-1.212.683-1.65s1.031-.683 1.65-.683h2.333m16.333 7V6.999c0-.619-.246-1.212-.683-1.65s-1.031-.683-1.65-.683h-.583M8.166 2.332v4.667" stroke="currentColor" stroke-width="2" stroke-linecap="round" stroke-linejoin="round"/></svg>