
<svg width="16" height="16" viewBox="0 0 16 16" fill="none" xmlns="http://www.w3.org/2000/svg">
<path d="M7.61037 13.5733L2.19262 10.6058C2.13422 10.5738 2.08556 10.5271 2.05169 10.4703C2.01781 10.4136 1.99997 10.3489 2 10.2831V4.57045C2.00008 4.50471 2.01798 4.44019 2.05185 4.38356C2.08571 4.32693 2.13432 4.28026 2.19262 4.24837L7.42897 1.37977C7.48447 1.34942 7.5469 1.3335 7.61037 1.3335C7.67384 1.3335 7.73627 1.34942 7.79177 1.37977L13.0281 4.24837C13.0864 4.28026 13.135 4.32693 13.1689 4.38356C13.2028 4.44019 13.2207 4.50471 13.2207 4.57045V6.8121M2 5.14884L7.0992 7.94184C7.15478 7.9723 7.21732 7.98829 7.28092 7.98829C7.34451 7.98829 7.40705 7.9723 7.46263 7.94184L12.5799 5.13901M7.28123 8.04141V11.422M7.28123 1.89486V6.19744M11.431 11.2641L11.8718 11.6986M10.5496 12.1332L10.9903 12.5677M11.431 9.52519L8.78605 12.1332C8.55232 12.3637 8.42102 12.6763 8.42102 13.0023C8.42102 13.3283 8.55232 13.6409 8.78605 13.8714L9.22678 14.3066C9.34256 14.4208 9.48002 14.5114 9.63131 14.5732C9.78261 14.635 9.94477 14.6668 10.1085 14.6668C10.2723 14.6668 10.4345 14.635 10.5858 14.5732C10.7371 14.5114 10.8745 14.4208 10.9903 14.3066L13.6347 11.6986C13.7505 11.5845 13.8424 11.4489 13.905 11.2997C13.9677 11.1506 14 10.9907 14 10.8292C14 10.6677 13.9677 10.5078 13.905 10.3586C13.8424 10.2094 13.7505 10.0739 13.6347 9.95975L13.1939 9.52519C12.9601 9.29473 12.6431 9.16526 12.3125 9.16526C11.9819 9.16526 11.6648 9.29473 11.431 9.52519Z" stroke="#6B6D85" stroke-linecap="round" stroke-linejoin="round"/>
</svg>

