<svg xmlns="http://www.w3.org/2000/svg" width="32" height="32" fill="none">
  <path fill="#0278D5" stroke="#0278D5" stroke-width=".5" d="M12.394 17.581a.636.636 0 0 1 0-1.271h2.226a8.087 8.087 0 0 0-.522 1.28l-1.704-.009Zm11.201 10.591a2.223 2.223 0 0 1-.26.707A2.224 2.224 0 0 1 21.396 30a2.28 2.28 0 0 1-.776-.132 2.174 2.174 0 0 1-.683-.394 2.3 2.3 0 0 1-.506-.586 2.21 2.21 0 0 1-.262-.73.241.241 0 0 1 .194-.277h4.003a.228.228 0 0 1 .228.228.284.284 0 0 1 0 .063h.002Zm-.95-12.988c.192.05.381.111.565.185.269.107.529.235.777.383l.03.018c.232.144.453.305.66.483a4.925 4.925 0 0 1 1.073 1.294 4.824 4.824 0 0 1 .595 1.62c.053.294.08.593.078.891v1.88c.001.268.018.536.05.802.033.259.081.515.144.768.061.242.145.478.25.704a3.98 3.98 0 0 0 .968 1.326c.259.236.534.45.826.643a.392.392 0 0 1-.228.718H14.299a.394.394 0 0 1-.395-.392.398.398 0 0 1 .199-.353 6.64 6.64 0 0 0 .82-.64c.213-.194.404-.41.57-.645l.015-.021c.144-.21.27-.431.379-.66.106-.227.191-.463.255-.705v-.014a5.71 5.71 0 0 0 .134-.733c.033-.27.049-.54.048-.812v-1.863a5.134 5.134 0 0 1 .308-1.744 5.298 5.298 0 0 1 .861-1.48 5.053 5.053 0 0 1 2.08-1.488c.19-.072.383-.131.58-.178.056-.222.178-.422.348-.575.253-.211.578-.316.907-.291.326-.018.646.088.898.296.168.155.289.354.348.574l-.009.01Zm.21 1.208a4.229 4.229 0 0 0-.634-.194.37.37 0 0 1-.323-.326.545.545 0 0 0-.142-.344.556.556 0 0 0-.362-.11.508.508 0 0 0-.35.097.529.529 0 0 0-.14.346.37.37 0 0 1-.303.326 3.9 3.9 0 0 0-1.31.492 4.019 4.019 0 0 0-.563.406c-.175.15-.337.313-.485.49a4.353 4.353 0 0 0-.695 1.203 3.844 3.844 0 0 0-.25 1.403v1.775c0 .29-.018.579-.053.866a6.48 6.48 0 0 1-.153.805v.018c-.072.274-.17.541-.291.797-.121.255-.261.5-.42.732l-.014.023c-.189.265-.406.51-.647.729h11.344a4.538 4.538 0 0 1-.65-.732 5.064 5.064 0 0 1-.442-.76 4.54 4.54 0 0 1-.3-.787 6.971 6.971 0 0 1-.206-1.68V20.187c.001-.242-.02-.484-.064-.723a3.763 3.763 0 0 0-.184-.683 4.094 4.094 0 0 0-.688-1.196 4.048 4.048 0 0 0-1.017-.878l-.025-.016a4.836 4.836 0 0 0-.626-.307l-.007.009Zm-15.873.558a.47.47 0 0 1 .78-.522l.254.383 1.014-1.233a.47.47 0 1 1 .725.595L8.35 17.88a.471.471 0 0 1-.763-.025l-.606-.912v.007Zm0-4.466a.47.47 0 1 1 .78-.522l.254.38 1.014-1.227a.47.47 0 0 1 .725.594L8.35 13.416a.468.468 0 0 1-.763-.023l-.606-.911v.002Zm0-4.468a.47.47 0 1 1 .78-.522l.254.378L9.03 6.64a.471.471 0 0 1 .725.602L8.35 8.948a.472.472 0 0 1-.763-.025l-.606-.912v.005Zm5.412.107a.636.636 0 1 1 0-1.272h6.774a.636.636 0 0 1 0 1.272h-6.774ZM4.639 2h18.122a1.47 1.47 0 0 1 1.475 1.472v9.267l-.107-.048a6.99 6.99 0 0 0-.85-.278 1.836 1.836 0 0 0-.308-.615v-8.32a.228.228 0 0 0-.06-.147.228.228 0 0 0-.15-.062H4.64a.21.21 0 0 0-.207.21v18.215a.21.21 0 0 0 .207.21h9.138v.643c0 .21 0 .414-.018.615H4.643a1.464 1.464 0 0 1-1.479-1.47V3.474A1.47 1.47 0 0 1 4.64 2Zm7.748 10.85a.636.636 0 1 1 0-1.268h6.252a.632.632 0 0 1 .572.911 7.495 7.495 0 0 0-.966.358h-5.858Z"/>
</svg>
