<svg xmlns="http://www.w3.org/2000/svg" viewBox="0 0 12 12" fill="none" xmlns:v="https://vecta.io/nano"><path d="M12 9.855v-.64-.64c0-.192-.126-.32-.316-.32H7.958v.32c0 .544-.411.961-.947.961H4.989c-.537 0-.947-.416-.947-.961v-.32H.316c-.189 0-.316.128-.316.32v3.106c0 .16.126.32.316.32h.632-.293c-.088-.099-.088-.099-.338 0h11.368c.175 0 .197-.099.316-.32v-.979c0-.352-.074-.37 0-.847zm-1.074-.064c.19 0 .316.128.316.32 0 .16-.126.32-.316.32s-.316-.16-.316-.32.126-.32.316-.32zm-1.263 0c.189 0 .316.128.316.32 0 .16-.126.32-.316.32s-.316-.16-.316-.32.126-.32.316-.32zm-3.439 1.544l-4.645-.567V12h10.105c.189 0 .316-.16.316-.32V9.855l-.684.913-5.092.567zm-1.55-5.002h2.653v1.281H4.674V6.332zm0 1.921h2.653v.32a.32.32 0 0 1-.316.32H4.989c-.189 0-.316-.128-.316-.32v-.32zm4.484-3.843H7.326v1.281H4.674V4.411H2.842c-.284 0-.411-.32-.253-.544L5.747.12c.126-.16.347-.16.474 0l3.158 3.746c.189.224.063.544-.221.544z" fill="#000"/></svg>