<svg xmlns="http://www.w3.org/2000/svg" viewBox="0 0 16 16" fill="none" xmlns:v="https://vecta.io/nano"><path fill-rule="evenodd" d="M8.357 1.329A.33.33 0 0 0 8.028 1a.33.33 0 0 0-.329.329v.81c-2.931.194-5.263 2.58-5.373 5.533h-.996A.33.33 0 0 0 1 8.002a.33.33 0 0 0 .329.329h1.008c.215 2.85 2.503 5.122 5.361 5.311v1.028a.33.33 0 0 0 .329.329.33.33 0 0 0 .329-.329v-1.021c2.911-.135 5.258-2.429 5.477-5.318h.837A.33.33 0 0 0 15 8.002a.33.33 0 0 0-.329-.329h-.824c-.111-2.992-2.504-5.402-5.489-5.54v-.803zM12.2 7.673h.987c-.111-2.628-2.208-4.743-4.83-4.88V3.8a.33.33 0 0 1-.329.329.33.33 0 0 1-.329-.329v-1a5.11 5.11 0 0 0-4.714 4.873H3.8a.33.33 0 0 1 .329.329.33.33 0 0 1-.329.329h-.801a5.11 5.11 0 0 0 4.7 4.651V12.2a.33.33 0 0 1 .329-.329.33.33 0 0 1 .329.329v.79a5.11 5.11 0 0 0 4.816-4.658H12.2a.33.33 0 0 1-.329-.329.33.33 0 0 1 .329-.329zm-5.572.322a1.4 1.4 0 0 1 2.8 0 1.4 1.4 0 1 1-2.8 0zm1.4-2.059a2.06 2.06 0 0 0-2.059 2.059 2.06 2.06 0 0 0 2.059 2.059 2.06 2.06 0 0 0 2.059-2.059 2.06 2.06 0 0 0-2.059-2.059z" fill="#4f5162"/></svg>