<svg xmlns="http://www.w3.org/2000/svg" viewBox="0 0 32 32" fill="none">
  <path stroke="currentColor" stroke-width="1.8" d="M4 9.867V4.8a.8.8 0 0 1 .8-.8h7.733a.8.8 0 0 1 .8.8v5.067a.8.8 0 0 1-.8.8H4.8a.8.8 0 0 1-.8-.8ZM18.666 27.2v-5.066a.8.8 0 0 1 .8-.8H27.2a.8.8 0 0 1 .8.8V27.2a.8.8 0 0 1-.8.8h-7.733a.8.8 0 0 1-.8-.8ZM18.666 16.533V4.8a.8.8 0 0 1 .8-.8H27.2a.8.8 0 0 1 .8.8v11.733a.8.8 0 0 1-.8.8h-7.733a.8.8 0 0 1-.8-.8ZM4 27.2V15.467a.8.8 0 0 1 .8-.8h7.733a.8.8 0 0 1 .8.8V27.2a.8.8 0 0 1-.8.8H4.8a.8.8 0 0 1-.8-.8Z"/>
</svg>
