<svg xmlns="http://www.w3.org/2000/svg" viewBox="0 0 21 20"><path fill="currentColor" fill-rule="evenodd" d="m3.597 4.696.09.048c.312.153.802.308 1.46.445 1.303.272 3.133.445 5.175.445s3.872-.173 5.176-.445c.657-.137 1.147-.292 1.458-.445l.091-.048a1.973 1.973 0 0 0-.09-.047c-.312-.153-.802-.309-1.46-.446-1.303-.271-3.133-.444-5.175-.444s-3.872.173-5.176.444C4.49 4.34 4 4.496 3.688 4.65a1.97 1.97 0 0 0-.091.047ZM4.89 2.98c1.41-.294 3.33-.471 5.431-.471 2.1 0 4.02.177 5.43.47.7.146 1.309.328 1.757.548.223.11.438.245.607.416.17.174.331.428.331.753 0 .164-.04.309-.102.435l-1.22 11.303v.023a1 1 0 0 1-.306.7 1.957 1.957 0 0 1-.534.368c-.385.19-.901.343-1.488.465-1.184.247-2.792.394-4.547.394s-3.363-.148-4.547-.394c-.587-.122-1.103-.276-1.488-.465a1.958 1.958 0 0 1-.534-.367 1.06 1.06 0 0 1-.278-.478h-.005l-.004-.038a.908.908 0 0 1-.019-.185v-.003L2.209 4.85a.966.966 0 0 1-.012-.154c0-.325.161-.58.332-.753.168-.17.383-.306.606-.416.448-.22 1.056-.402 1.756-.547Zm10.862 3.433a9.799 9.799 0 0 0 1.232-.331L15.88 16.319c-.031.022-.079.05-.147.084-.248.122-.647.25-1.191.363-1.078.225-2.596.368-4.292.368-1.696 0-3.214-.143-4.292-.368-.544-.113-.943-.24-1.19-.363a1.15 1.15 0 0 1-.15-.085L3.587 6.055c.375.137.817.256 1.304.357 1.41.294 3.33.47 5.431.47 2.1 0 4.02-.176 5.43-.47Zm-4.53 2.927a.625.625 0 1 0-1.227-.24l-.864 4.412a.625.625 0 0 0 1.227.24l.864-4.412Zm1.148-.106a.625.625 0 0 1 .883-.03l1.727 1.619a.625.625 0 0 1 .037.875L13.29 13.61a.625.625 0 1 1-.927-.838l1.316-1.457-1.28-1.198a.625.625 0 0 1-.028-.883Zm-5.203-.02a.625.625 0 1 1 .874.894l-1.29 1.26 1.309 1.395a.625.625 0 0 1-.912.855l-1.727-1.841a.625.625 0 0 1 .019-.875l1.727-1.688Z" clip-rule="evenodd"/></svg>
