<svg xmlns="http://www.w3.org/2000/svg" viewBox="0 0 16 16" fill="none" fill-rule="evenodd" xmlns:v="https://vecta.io/nano"><path d="M3.429 6.32a.8.8 0 0 1 .793-.908h7.099a.8.8 0 0 1 .796.881l-.692 6.805a.8.8 0 0 1-.796.719H5.145a.8.8 0 0 1-.793-.692L3.429 6.32zm7.892-.108h-7.1l.924 6.805h5.483l.692-6.805zm-4.71-4.483a.4.4 0 0 1 .479-.301l2.817.643a.4.4 0 0 1 .301.479l-.206.902 2.573.588a.4.4 0 0 1-.178.78L3.69 2.832a.4.4 0 0 1 .178-.78l2.536.579.206-.902zm.574 1.081l2.037.465.117-.512-2.037-.465-.117.512z" fill="#4f5162"/><path opacity=".3" d="M8 7.872c.184 0 .333.149.333.333v3.333c0 .184-.149.333-.333.333s-.333-.149-.333-.333V8.206c0-.184.149-.333.333-.333zm-1.841.008c.183-.016.345.12.361.303l.291 3.321c.016.183-.12.345-.303.361s-.345-.12-.361-.303l-.291-3.321c-.016-.183.12-.345.303-.361zm3.682 0c.183.016.319.178.303.361l-.291 3.321c-.016.183-.178.319-.361.303s-.319-.178-.303-.361l.291-3.321c.016-.183.178-.319.361-.303z" fill="#383946"/></svg>