<svg xmlns="http://www.w3.org/2000/svg" viewBox="0 0 16 16" fill="none" xmlns:v="https://vecta.io/nano"><path d="M7.156 1.2l.246.436h0L7.156 1.2zm-3.64 1.55l-.12-.485h0l.12.485zm5.413-1.547l.237-.44h0l-.237.44zm3.609 1.459l.136-.481-.136.481zm1.494 1.786l.5.008h0l-.5-.008zm-.605 4.237l-.193.461.516.216.157-.538-.48-.14zm-2.324-.974l.193-.461h0l-.193.461zm-.062-.021l-.49-.101-.094.459.452.124.132-.482zm-.127-1.579l.468-.177-.468.177zM7.239 4.452l.177.468h0l-.177-.468zm2.015 5.333l-.177-.468h0l.177.468zm1.419-1.171l.234-.442-.414-.22-.246.399.426.262zm.041.02l.193-.461h0l-.193.461zm2.394 1.003l.468.177.17-.451-.445-.186-.193.461zM8.665 14.96l-.222-.448h0l.222.448zm-1.225-.047l-.243.437h0l.243-.437zM2 4.395l.5.001-.5-.001zm4.515 3.377l-.468.177.468-.177zm1.077-2.385l.177.468h0l-.177-.468zM8.9 8.849l.177.468-.177-.468zm1.077-2.385l.468-.177-.468.177zM6.91.764c-.931.525-2.217 1.18-3.514 1.5l.239.971c1.433-.353 2.816-1.064 3.766-1.6L6.91.764zM9.165.762C8.471.389 7.619.364 6.91.764l.491.871c.388-.219.874-.215 1.29.008l.473-.881zm3.507 1.418c-1.029-.29-2.33-.786-3.507-1.418l-.473.881c1.247.67 2.617 1.193 3.71 1.5l.271-.963zm1.858 2.275c.018-1.142-.887-2.002-1.858-2.275l-.271.963c.669.188 1.138.735 1.129 1.296l1 .016zm-.625 4.369c.368-1.262.598-2.713.625-4.369l-1-.016c-.025 1.572-.244 2.934-.585 4.105l.96.28zm-2.998-.653l2.325.974.386-.922-2.325-.974-.386.922zm-.001 0h.001l.386-.922c-.04-.017-.082-.031-.123-.042l-.264.965zm.622-.382c.123-.6.084-1.242-.149-1.856l-.936.353c.163.432.191.881.105 1.301l.979.201zm-.149-1.856a3.35 3.35 0 0 0-4.318-1.95l.353.935a2.35 2.35 0 0 1 3.029 1.368l.936-.353zm-4.318-1.95a3.35 3.35 0 0 0-1.95 4.318l.935-.353a2.35 2.35 0 0 1 1.368-3.029l-.353-.935zm-1.95 4.318a3.35 3.35 0 0 0 4.318 1.95l-.353-.935a2.35 2.35 0 0 1-3.029-1.368l-.935.353zm4.318 1.95c.721-.272 1.294-.767 1.669-1.377l-.852-.524a2.34 2.34 0 0 1-1.17.965l.353.935zm1.477-2.08h-.001l-.469.883.083.039.386-.922zm2.394 1.003l-2.394-1.003-.386.922 2.394 1.003.386-.922zm-4.414 6.233c1.536-.762 3.528-2.518 4.689-5.595l-.936-.353c-1.071 2.837-2.885 4.401-4.197 5.052l.445.896zm-1.69-.058c.508.282 1.139.332 1.69.058l-.445-.896c-.226.112-.509.103-.76-.037l-.485.874zM1.5 4.394c-.008 3.239 1.085 8.398 5.697 10.956l.485-.874C3.546 12.181 2.492 7.497 2.5 4.396l-1-.003zm1.896-2.13c-.933.23-1.893.981-1.896 2.13l1 .003c.001-.515.453-.993 1.135-1.161l-.239-.971zm3.587 5.331a1.35 1.35 0 0 1 .786-1.741l-.353-.935a2.35 2.35 0 0 0-1.368 3.029l.935-.353zm1.741.786a1.35 1.35 0 0 1-1.741-.786l-.935.353a2.35 2.35 0 0 0 3.029 1.368l-.353-.935zm.786-1.741a1.35 1.35 0 0 1-.786 1.741l.353.935a2.35 2.35 0 0 0 1.368-3.029l-.935.353zm-1.741-.786a1.35 1.35 0 0 1 1.741.786l.935-.353a2.35 2.35 0 0 0-3.029-1.368l.353.935z" fill="#383946"/></svg>