<svg fill="none" viewBox="0 0 112 111" xmlns="http://www.w3.org/2000/svg" xmlns:xlink="http://www.w3.org/1999/xlink"><linearGradient id="a"><stop offset="0" stop-color="#73dfe7"/><stop offset="1" stop-color="#0095f7"/></linearGradient><linearGradient id="b" gradientUnits="userSpaceOnUse" x1="28.8797" x2="52.0114" xlink:href="#a" y1="31.8008" y2="74.9773"/><linearGradient id="c"><stop offset="0" stop-color="#f80"/><stop offset="1" stop-color="#e63535"/></linearGradient><linearGradient id="d" gradientUnits="userSpaceOnUse" x1="17.8164" x2="20.2774" xlink:href="#c" y1="47.0274" y2="50.8368"/><linearGradient id="e" gradientUnits="userSpaceOnUse" x1="25.4355" x2="27.8965" xlink:href="#c" y1="47.0274" y2="50.8368"/><linearGradient id="f" gradientUnits="userSpaceOnUse" x1="33.0547" x2="35.5156" xlink:href="#c" y1="47.0274" y2="50.8368"/><linearGradient id="g" gradientUnits="userSpaceOnUse" x1="3.66585" x2="3.94415" xlink:href="#c" y1="54.6485" y2="60.0333"/><linearGradient id="h" gradientUnits="userSpaceOnUse" x1="15.3554" x2="16.4666" xlink:href="#c" y1="62.2656" y2="67.4256"/><linearGradient id="i" gradientUnits="userSpaceOnUse" x1="16.5859" x2="18.1652" xlink:href="#c" y1="69.8867" y2="74.7759"/><linearGradient id="j" gradientUnits="userSpaceOnUse" x1="21.6265" x2="25.6739" xlink:href="#a" y1="87.6504" y2="91.8272"/><linearGradient id="k" gradientUnits="userSpaceOnUse" x1="29.2456" x2="36.5147" xlink:href="#a" y1="81.1993" y2="84.0123"/><linearGradient id="l" gradientUnits="userSpaceOnUse" x1="36.8641" x2="43.4646" xlink:href="#a" y1="83.7813" y2="87.187"/><linearGradient id="m" gradientUnits="userSpaceOnUse" x1="44.4833" x2="52.2276" xlink:href="#a" y1="77.3341" y2="79.5137"/><linearGradient id="n" gradientUnits="userSpaceOnUse" x1="52.1024" x2="59.5759" xlink:href="#a" y1="79.9083" y2="82.479"/><linearGradient id="o" gradientUnits="userSpaceOnUse" x1="59.7209" x2="67.7372" xlink:href="#a" y1="72.1739" y2="73.8284"/><linearGradient id="p" gradientUnits="userSpaceOnUse" x1="3.6667" x2="3.945" xlink:href="#a" y1="90.8438" y2="96.2286"/><path d="m110.474 50.0809v-12.3807c0-.3788-.151-.7422-.419-1.0101-.267-.2679-.631-.4184-1.01-.4184h-7.826c-.316-.0003-.623-.1054-.873-.2987-.249-.1933-.4282-.4639-.5078-.7696-.7905-3.025-1.9936-5.9267-3.5757-8.6234-.1601-.2725-.2253-.5903-.1855-.9039.0399-.3135.1826-.6049.4058-.8287l5.5362-5.5368c.268-.2679.419-.6312.419-1.0101 0-.3788-.151-.7421-.419-1.01l-8.7536-8.75437c-.2678-.26789-.6312-.41838-1.01-.41838-.3789 0-.7422.15049-1.0101.41838l-5.5366 5.53657c-.2238.2231-.5152.3658-.8287.4056s-.6314-.0255-.9039-.1856c-2.6968-1.5818-5.5986-2.7849-8.6236-3.5754-.3057-.0797-.5763-.2584-.7696-.5083-.1933-.24986-.2984-.55675-.2987-.87265v-7.82578c0-.37887-.1505-.742226-.4184-1.01013-.2679-.267903-.6312-.4184088-1.0101-.4184088h-12.3807c-.3789 0-.7422.1505058-1.0101.4184088-.2679.267904-.4184.63126-.4184 1.01013v7.82625c-.0004.31591-.1054.62279-.2987.87268-.1933.2498-.4639.4286-.7696.5082-3.0249.7905-5.9266 1.9936-8.6234 3.5754-.2725.1602-.5903.2255-.9038.1856-.3136-.0398-.605-.1824-.8288-.4056l-5.5368-5.53697c-.2679-.26789-.6312-.41838-1.0101-.41838-.3788 0-.7422.15049-1.0101.41838l-8.7543 8.75437c-.2679.2679-.4184.6312-.4184 1.01 0 .3789.1505.7422.4184 1.0101l5.5365 5.5368c.2232.2238.3658.5153.4057.8288.0398.3135-.0255.6314-.1857.9038-1.5818 2.6968-2.7849 5.5985-3.5754 8.6234-.0796.3057-.2584.5763-.5082.7696-.2499.1933-.5568.2984-.8727.2987h-7.8257c-.3789 0-.7423.1505-1.0102.4184s-.4184.6313-.4184 1.0101v12.3807c0 .3789.1505.7422.4184 1.0101s.6313.4184 1.0102.4184h7.8262c.3159.0004.6228.1054.8727.2987.2498.1933.4286.4639.5082.7696.7905 3.0249 1.9936 5.9266 3.5754 8.6234.1602.2725.2254.5903.1856.9038-.0398.3136-.1824.605-.4056.8288l-5.5365 5.5368c-.2679.2679-.4184.6312-.4184 1.0101 0 .3788.1505.7422.4184 1.0101l8.7543 8.7543c.2679.2679.6312.4184 1.0101.4184s.7422-.1505 1.0101-.4184l5.5368-5.5365c.2238-.2232.5152-.3658.8287-.4056.3135-.0399.6314.0254.9039.1856 2.6967 1.5818 5.5984 2.7849 8.6233 3.5754.3057.0796.5764.2584.7697.5082.1933.2499.2983.5568.2986.8727v7.8258c0 .3788.1506.7422.4185 1.0101s.6312.4184 1.0101.4184h12.3807c.3788 0 .7422-.1505 1.0101-.4184s.4184-.6313.4184-1.0101v-7.8263c.0003-.3159.1053-.6228.2986-.8727.1933-.2498.464-.4286.7697-.5082 3.025-.7905 5.9268-1.9937 8.6236-3.5757.2725-.1601.5904-.2253.9039-.1854.3135.0398.6049.1825.8287.4057l5.5365 5.5365c.2679.2679.6313.4184 1.0101.4184.3789 0 .7422-.1505 1.0101-.4184l8.7541-8.7543c.268-.2679.419-.6312.419-1.0101s-.151-.7422-.419-1.0101l-5.5363-5.5368c-.2232-.2237-.3659-.5152-.4057-.8287-.0399-.3135.0254-.6314.1855-.9039 1.582-2.6967 2.7852-5.5984 3.5756-8.6233.0797-.3057.2589-.5764.5079-.7697.25-.1933.557-.2983.873-.2986h7.825c.379 0 .742-.1505 1.01-.4183s.419-.631.419-1.0098zm-43.2134 5.223c-2.3079.1202-4.598-.462-6.5682-1.6699-1.9702-1.208-3.5279-2.9848-4.4675-5.0962-.9397-2.1113-1.2172-4.4579-.7959-6.7302.4214-2.2723 1.5217-4.3635 3.1558-5.9976s3.7253-2.7344 5.9976-3.1557c2.2722-.4214 4.6189-.1439 6.7302.7958 2.1113.9396 3.8882 2.4973 5.0961 4.4675 1.208 1.9702 1.7902 4.2603 1.67 6.5682-.1474 2.8214-1.3344 5.4882-3.3322 7.4859-1.9977 1.9978-4.6646 3.1848-7.4859 3.3322z" fill="#d9dae6"/><g fill="#eaeae8"><path d="m32.2413 5.68606-2.5518-2.82898c1.1016-.99331 2.258-1.954243 3.437-2.85708l2.3147 3.02541c-1.0971.84069-2.174 1.73567-3.1999 2.66065z"/><path d="m18.614 25.524-3.558-1.361c2.7277-7.1475 6.918-13.6466 12.3026-19.08097l2.7107 2.67661c-5.0138 5.05956-8.9155 11.11046-11.4553 17.76536z"/><path d="m87.2065 95.1898-1.4173-3.5361c1.1626-.466 2.323-.9817 3.4492-1.5326l1.674 3.4218c-1.2097.5931-2.4566 1.1459-3.7059 1.6469z"/><path d="m94.5083 91.6115-1.9229-3.2884c6.4482-3.7848 12.0046-8.9153 16.2906-15.0419l3.124 2.1795c-4.602 6.5784-10.568 12.0871-17.4917 16.1508z"/></g><path d="m86.7787 58.3434-3.0925-2.2247c2.2473-3.1309 3.5875-6.821 3.8734-10.6643.2858-3.8434-.4938-7.6911-2.2532-11.12s-4.4303-6.3062-7.7191-8.3154-7.068-3.0725-10.9219-3.0729c-4.011.0073-7.9362 1.162-11.3122 3.3278-3.3761 2.1658-6.062 5.2523-7.7407 8.895l-3.4621-1.589c2.3549-5.1359 6.3952-9.3122 11.4505-11.8358 5.0552-2.5235 10.8214-3.2426 16.3415-2.0378 5.5202 1.2048 10.4624 4.2609 14.0065 8.6613s5.477 9.8803 5.4778 15.5304c.0123 5.1848-1.6145 10.2407-4.648 14.4454z" fill="url(#b)"/><path d="m74.2841 55.3242h-62.8557c-3.15585 0-5.71417 2.5583-5.71417 5.7142v39.9986c0 3.156 2.55832 5.715 5.71417 5.715h62.8557c3.1559 0 5.7142-2.559 5.7142-5.715v-39.9986c0-3.1559-2.5583-5.7142-5.7142-5.7142z" fill="#6b6d85"/><path d="m19.0468 40.232h47.618c1.4757 0 2.8909.5863 3.9344 1.6297 1.0435 1.0435 1.6297 2.4588 1.6297 3.9345v56.9918h-58.7463v-56.9918c0-1.4757.5863-2.891 1.6297-3.9345 1.0435-1.0434 2.4588-1.6297 3.9345-1.6297z" fill="#f3f3fa" stroke="#000" stroke-width=".3"/><path d="m19.0469 45.7969h3.8094v3.8094h-3.8094z" fill="url(#d)"/><path d="m26.666 45.7969h3.8095v3.8094h-3.8095z" fill="url(#e)"/><path d="m34.2852 45.7969h3.8094v3.8094h-3.8094z" fill="url(#f)"/><path d="m19.0469 53.418h47.6179v3.8094h-47.6179z" fill="url(#g)"/><path d="m19.0469 61.0352h11.4283v3.8094h-11.4283z" fill="url(#h)"/><path d="m19.0469 68.6562h7.6189v3.8095h-7.6189z" fill="url(#i)"/><path d="m22.8569 85.8047h3.8095v5.7141h-3.8095z" fill="url(#j)"/><path d="m30.4761 76.2773h3.8094v15.2378h-3.8094z" fill="url(#k)"/><path d="m38.0946 80.0898h3.8094v11.4284h-3.8094z" fill="url(#l)"/><path d="m45.7137 70.5664h3.8095v20.9519h-3.8095z" fill="url(#m)"/><path d="m53.3329 74.3711h3.8094v17.1425h-3.8094z" fill="url(#n)"/><path d="m60.9514 62.9453h3.8095v28.5708h-3.8095z" fill="url(#o)"/><path d="m19.0477 89.6133h47.618v3.8094h-47.618z" fill="url(#p)"/><path d="m51.4274 101.034c-1.2196 1.219-2.8737 1.904-4.5985 1.904h-7.9455c-1.7247 0-3.3789-.685-4.5985-1.904-1.2196-1.2199-2.8737-1.9051-4.5984-1.9051h-29.6865v5.7141c0 1.516.602026 2.969 1.67364 4.041 1.07161 1.071 2.52503 1.673 4.04052 1.673h74.28404c1.5155 0 2.9689-.602 4.0405-1.673 1.0716-1.072 1.6736-2.525 1.6736-4.041v-5.7141h-29.6864c-1.7248 0-3.3789.6852-4.5985 1.9051z" fill="#b0b1c4"/></svg>