<svg fill="currentColor" xmlns="http://www.w3.org/2000/svg" viewBox="0 0 30 30"><circle opacity=".8" cx="15" cy="15" r="15" fill="#0092E4"/><path fill-rule="evenodd" clip-rule="evenodd" d="M8.325 10.26c0-.261.213-.474.475-.474h4.727a.475.475 0 000-.95H8.8c-.787 0-1.425.638-1.425 1.425v10.441c0 .787.638 1.425 1.425 1.425h12.365c.787 0 1.425-.638 1.425-1.425V10.261c0-.787-.638-1.425-1.425-1.425h-3.503a.475.475 0 000 .95h3.503c.262 0 .475.213.475.475v10.441a.475.475 0 01-.475.475h-.1l-1.7-3.108a2.602 2.602 0 10-3.152-.06l-1.668 3.168H8.8a.475.475 0 01-.475-.475V10.261zm9.503 8.31c.235 0 .463-.03.679-.089l1.474 2.696H15.62l1.432-2.724c.246.076.506.118.777.118zm0-4.254a1.652 1.652 0 100 3.305 1.652 1.652 0 000-3.305zm-8.52-1.525h5.524v-.95H9.308v.95zm0 2.23h4.652v-.95H9.308v.95z" fill="#fff"/></svg>