<svg xmlns="http://www.w3.org/2000/svg" viewBox="0 0 16 16"><rect width="16" height="16" rx="1.6" fill="none"/><path fill="currentColor" d="M10.556 5.81h1.88a.366.366 0 0 0 .262-.62c-.256-.265-.48-.494-.676-.695l.986-.986a.367.367 0 0 0-.257-.629.37.37 0 0 0-.26.112l-.982.981c-.841-.847-.893-.829-1.09-.75a.37.37 0 0 0-.23.34v1.881a.367.367 0 0 0 .367.366m-2.56 4.023a1.829 1.829 0 1 0 0-3.657 1.829 1.829 0 0 0 0 3.657M5.573 3.224c-.197-.08-.25-.097-1.091.75L3.5 2.992a.366.366 0 0 0-.517.517l.986.986-.676.695a.366.366 0 0 0 .262.62h1.88a.366.366 0 0 0 .366-.365V3.564a.37.37 0 0 0-.228-.34m6.454 8.294c.848-.843.829-.895.749-1.09a.37.37 0 0 0-.34-.23h-1.88a.367.367 0 0 0-.366.366v1.881a.365.365 0 0 0 .62.262c.265-.256.494-.48.695-.676l.986.986a.365.365 0 0 0 .518-.517zm-6.591-1.319H3.555a.37.37 0 0 0-.34.228c-.08.197-.098.248.75 1.091l-.982.982a.365.365 0 0 0 .517.517l.986-.986.695.676a.365.365 0 0 0 .62-.262v-1.88a.366.366 0 0 0-.365-.366"/></svg>