<svg viewBox="0 0 20 18" xmlns="http://www.w3.org/2000/svg">
<path fill-rule="evenodd" clip-rule="evenodd" d="M1.56864 2.3791C1.56864 2.04773 1.83727 1.7791 2.16864 1.7791H7.16439C7.49576 1.7791 7.76438 1.51047 7.76438 1.1791C7.76438 0.847731 7.49576 0.579102 7.16439 0.579102H2.16864C1.17453 0.579102 0.368652 1.38499 0.368652 2.3791V15.5679C0.368652 16.562 1.17453 17.3679 2.16864 17.3679H17.7875C18.7816 17.3679 19.5874 16.562 19.5874 15.5679V2.3791C19.5874 1.38499 18.7816 0.579102 17.7875 0.579102H16.1262C15.7949 0.579102 15.5262 0.847731 15.5262 1.1791C15.5262 1.51047 15.7949 1.7791 16.1262 1.7791H17.7875C18.1188 1.7791 18.3875 2.04773 18.3875 2.3791V15.5679C18.3875 15.8993 18.1188 16.1679 17.7875 16.1679H2.16864C1.83727 16.1679 1.56864 15.8993 1.56864 15.5679V2.3791ZM9.56413 3.86598C9.56413 2.71343 10.4984 1.7791 11.651 1.7791C12.8035 1.7791 13.7378 2.71343 13.7378 3.86598C13.7378 5.01853 12.8035 5.95285 11.651 5.95285C10.4984 5.95285 9.56413 5.01853 9.56413 3.86598ZM11.651 0.579102C9.83571 0.579102 8.36414 2.05069 8.36414 3.86598C8.36414 5.68127 9.83571 7.15285 11.651 7.15285C13.4663 7.15285 14.9378 5.68127 14.9378 3.86598C14.9378 2.05069 13.4663 0.579102 11.651 0.579102ZM7.13931 13.7516L9.47756 9.70156C9.93944 8.90156 9.36209 7.90156 8.43834 7.90156H3.76184C2.83809 7.90156 2.26074 8.90156 2.72262 9.70156L5.06087 13.7516C5.52274 14.5516 6.67744 14.5516 7.13931 13.7516ZM6.10009 13.1516L3.76184 9.10156H8.43834L6.10009 13.1516ZM9.96132 11.8221C9.62996 12.396 9.8266 13.13 10.4006 13.4613L13.5182 15.2613C14.0922 15.5927 14.8261 15.396 15.1574 14.8221L16.9574 11.7044C17.2888 11.1305 17.0921 10.3965 16.5182 10.0652L13.4005 8.26518C12.8266 7.9338 12.0927 8.13046 11.7613 8.70441L9.96132 11.8221ZM11.0005 12.4221L12.8005 9.30441L15.9182 11.1044L14.1182 14.2221L11.0005 12.4221Z" fill="currentColor"/>
</svg>
