<svg xmlns="http://www.w3.org/2000/svg" fill="none" viewBox="0 0 55 43"><path fill="#e5f4ff" d="M36.711 18.135c-3.873.023-7.806-.158-11.486-1.179-3.679-1.021-6.933-2.949-9.89-5.2-1.937-1.465-3.698-2.63-6.213-2.454a11.46 11.46 0 0 0-6.706 2.616C-.782 14.719-.297 19.896.979 23.538 2.9 29.024 8.753 32.833 13.72 35.315c5.745 2.87 12.055 4.538 18.382 5.495 5.546.841 12.669 1.456 17.471-2.168 4.414-3.323 5.625-10.921 4.544-16.052a6.32 6.32 0 0 0-2.27-3.845c-3.101-2.265-7.723-.754-11.208-.675-1.271.028-2.607.06-3.929.065"/><path stroke="#a1d6ff" stroke-linecap="round" stroke-linejoin="round" stroke-width=".393" d="M17.826.197v1.987m-.994-.994h1.987m33.893 38.617v1.987m-.993-.994h1.987"/><path fill="#a1d6ff" d="M2.809 31.228a.453.453 0 1 0 0-.905.453.453 0 0 0 0 .905M41.375 2.249a.453.453 0 1 0 0-.906.453.453 0 0 0 0 .906"/><path fill="#fff" stroke="#0278d5" stroke-linecap="round" stroke-linejoin="round" stroke-width=".462" d="M15.755 5.595H40.39a2.31 2.31 0 0 1 2.311 2.311v29.308a2.31 2.31 0 0 1-2.31 2.311H12.597a2.31 2.31 0 0 1-2.31-2.311V11.118z"/><path fill="#a4d8ff" d="M42.59 19.877H17.188v19.93H42.59z"/><path fill="#fff" stroke="#0278d5" stroke-linecap="round" stroke-linejoin="round" stroke-width=".462" d="M10.287 11.118h4.479a.994.994 0 0 0 .989-.994V5.595zm32.178 2.395H17.34a1.77 1.77 0 0 0-1.77 1.77v5.375c0 .978.793 1.77 1.77 1.77h25.125a1.77 1.77 0 0 0 1.77-1.77v-5.375a1.77 1.77 0 0 0-1.77-1.77"/><path fill="#a4d8ff" d="M20.451 19.526a1.544 1.544 0 1 0 0-3.088 1.544 1.544 0 0 0 0 3.088m4.853 0a1.544 1.544 0 1 0 0-3.088 1.544 1.544 0 0 0 0 3.088m4.848 0a1.544 1.544 0 1 0 0-3.088 1.544 1.544 0 0 0 0 3.088"/><path fill="#fff" stroke="#0278d5" stroke-linecap="round" stroke-linejoin="round" stroke-width=".462" d="M42.465 23.394H17.34a1.77 1.77 0 0 0-1.77 1.77v5.376c0 .977.793 1.77 1.77 1.77h25.125a1.77 1.77 0 0 0 1.77-1.77v-5.375a1.77 1.77 0 0 0-1.77-1.77"/><path fill="#a4d8ff" d="M20.451 29.412a1.544 1.544 0 1 0 0-3.087 1.544 1.544 0 0 0 0 3.087m4.853 0a1.544 1.544 0 1 0 0-3.087 1.544 1.544 0 0 0 0 3.087m4.848 0a1.544 1.544 0 1 0 0-3.087 1.544 1.544 0 0 0 0 3.087"/><path fill="#fff" stroke="#0278d5" stroke-linecap="round" stroke-linejoin="round" stroke-width=".462" d="M42.465 33.28H17.34a1.77 1.77 0 0 0-1.77 1.771v5.375c0 .978.793 1.77 1.77 1.77h25.125a1.77 1.77 0 0 0 1.77-1.77v-5.375a1.77 1.77 0 0 0-1.77-1.77"/><path fill="#a4d8ff" d="M20.451 39.294a1.544 1.544 0 1 0 0-3.088 1.544 1.544 0 0 0 0 3.088m4.853 0a1.544 1.544 0 1 0 0-3.088 1.544 1.544 0 0 0 0 3.088m4.848 0a1.544 1.544 0 1 0 0-3.088 1.544 1.544 0 0 0 0 3.088"/></svg>