<svg fill="none" viewBox="0 0 33 33" xmlns="http://www.w3.org/2000/svg"><path clip-rule="evenodd" d="m16.9961 4.50391c6.3513 0 11.5 5.14872 11.5 11.49999 0 6.3513-5.1487 11.5-11.5 11.5-.2761 0-.5.2239-.5.5s.2239.5.5.5c6.9036 0 12.5-5.5964 12.5-12.5 0-6.90355-5.5964-12.49999-12.5-12.49999s-12.50001 5.59644-12.50001 12.49999c0 .2761.22386.5.5.5.27615 0 .5-.2239.5-.5 0-6.35127 5.14871-11.49999 11.50001-11.49999z" fill="#0278d5" fill-rule="evenodd"/><path d="m22.5415 16.0001h-11.0833" stroke="#0278d5" stroke-linecap="round" stroke-linejoin="round"/><g clip-rule="evenodd" fill="#0278d5" fill-rule="evenodd"><path d="m3.45736 22.3773 4.54256-2.6227 4.54258 2.6227v5.2453l-4.54258 2.6226-4.54256-2.6226zm4.04256-3.4887c.3094-.1786.6906-.1786 1 0l4.54258 2.6227c.3094.1786.5.5087.5.866v5.2453c0 .3573-.1906.6874-.5.866l-4.54258 2.6227c-.3094.1786-.6906.1786-1 0l-4.54256-2.6227c-.30941-.1786-.5-.5087-.5-.866v-5.2453c0-.3573.19059-.6874.5-.866z"/><path d="m5.76659 23.7107 2.23316-1.2893 2.23315 1.2893v2.5786l-2.23315 1.2894-2.23316-1.2894zm1.73316-2.1553c.3094-.1787.6906-.1787 1 0l2.23315 1.2893c.3094.1786.5.5087.5.866v2.5786c0 .3573-.1906.6874-.5.8661l-2.23315 1.2893c-.3094.1786-.6906.1786-1 0l-2.23316-1.2893c-.3094-.1787-.5-.5088-.5-.8661v-2.5786c0-.3573.1906-.6874.5-.866z"/></g></svg>