<svg width="20" height="20" xmlns="http://www.w3.org/2000/svg"><path d="M10.003 0a9.893 9.893 0 00-4.348.992.5.5 0 00.436.9A8.912 8.912 0 0110.003 1 8.996 8.996 0 112.17 5.564a.5.5 0 10-.872-.492A10 10 0 1010.003 0zM2.587 3.152a1 1 0 102 0 1 1 0 00-2 0zM12.927 5.2a.496.496 0 00-.228-.668 6.1 6.1 0 10-2.692 11.572 6.104 6.104 0 006.024-7.052.5.5 0 00-.988.148 5.092 5.092 0 11-2.8-3.784.496.496 0 00.684-.216zm1.396 2.48a1 1 0 10.22-1.988 1 1 0 00-.22 1.988zM9.003 10a1 1 0 102 0 1 1 0 00-2 0z" fill="#25A6F7"/></svg>