<svg fill="currentColor" viewBox="0 0 16 16" xmlns="http://www.w3.org/2000/svg"><g fill="currentColor" stroke="currentColor"><g stroke-width=".152851"><path d="m14.078 14.2823c-.3192.3174-.7518.4956-1.203.4956h-9.75c-.45119 0-.88382-.1782-1.20299-.4956h-.00003c-.31905-.3175-.49841-.748-.49841-1.1972v-2.9634c0-.0918.03668-.17987.10185-.24469.06515-.06481.15346-.10114.24541-.10114.19139 0 .34726.15446.34726.34583v2.9634c0 .2653.10599.52.29475.7078.18889.1878.44505.2934.71216.2934h9.75c.2671 0 .5233-.1056.7122-.2934.1887-.1878.2947-.4425.2947-.7078v-2.9634c0-.19137.1559-.34583.3473-.34583s.3472.15446.3472.34583v2.9634c0 .4492-.1793.8797-.4984 1.1972z"/><path d="m12.5783 12.6226h-9.15418c-.19139 0-.34726-.1545-.34726-.3459 0-.1913.15587-.3458.34726-.3458h9.15418c.1914 0 .3472.1545.3472.3458 0 .1914-.1558.3459-.3472.3459z"/><path d="m12.5783 10.9121h-9.15418c-.19139 0-.34726-.1545-.34726-.3458 0-.1914.15587-.3459.34726-.3459h9.15418c.1914 0 .3472.1545.3472.3459 0 .1913-.1558.3458-.3472.3458z"/><path d="m3.54263 9.45395.00014.00091h-.01188-.03922c-.18989.01285-.35596-.12887-.3708-.31907-.01484-.19021.12725-.35593.31717-.37211l9.01866-1.39516.0002-.00004c.1909-.02885.3699.10156.3992.29236v.00006c.0292.19085-.1027.36864-.2937.39752l-.0742.01121-.0011-.00643z"/><path d="m12.2487 4.99848c.0355-.06495.0428-.14156.0199-.21191-.0229-.07048-.074-.12833-.1411-.1602s-.1445-.03488-.2139-.0083zm0 0c-.0357.06494-.0966.11245-.1684.13145zm-9.19404 2.69301c.02642.16773.17083.29109.34058.29232h.00022c.03635.00016.07248-.00573.10686-.01731l.0006-.00021 8.59768-2.76268c.0916-.02446.1694-.08519.2151-.16834v-.0001c.0456-.08335.055-.18177.0256-.27221v-.00008c-.0295-.09053-.095-.16472-.181-.20554-.0853-.04052-.1835-.04463-.2719-.01143l-8.59857 2.76339-.00038.00012c-.16145.05281-.26123.21432-.23479.38207zm0 0v.00001l.0755-.0119z"/></g><path d="m9.5 2.64995c-.02761 0-.05.02239-.05.05v.61191c0 .02762.02239.05.05.05h2.1417c.0276 0 .05-.02238.05-.05v-.61191c0-.02761-.0224-.05-.05-.05z" stroke-linejoin="round" stroke-width=".1"/><path d="m5.07079 3.85349c0 .02762.02239.05.05.05h.61191c.02762 0 .05-.02238.05-.05v-.57079h.57146c.02762 0 .05-.02238.05-.05v-.61191c0-.02761-.02238-.05-.05-.05h-.57146v-.57079c0-.02761-.02238-.05-.05-.05h-.61191c-.02761 0-.05.02239-.05.05v.57079h-.57079c-.02761 0-.05.02239-.05.05v.61191c0 .02762.02239.05.05.05h.57079z" stroke-linejoin="round" stroke-width=".1"/></g></svg>