<svg fill="none" viewBox="0 0 32 32" xmlns="http://www.w3.org/2000/svg"><path d="m5.159 5.8-2.083 1.04v18.278l2.083 1.035.012-.015v-20.324l-.012-.015z" fill="#d9dae6"/><path d="m16.303 23.5-11.144 2.653v-20.353l11.144 2.595z" fill="#fff"/><path d="m11.273 19.347 4.726.602.03-.068.027-7.752-.057-.06-4.726.593z" fill="#d9dae6"/><path clip-rule="evenodd" d="m20.712 24.673-4.712-1.143v-15.106l10.84-2.624.017.019v14.19h-5.645a.5.5 0 0 0 -.5.5v4.165z" fill="#d9dae6" fill-rule="evenodd"/><path d="m20.728 19.347-4.728.603v-7.88l4.728.593v6.685z" fill="#fff"/><path d="m20.728 9.429-4.729.861-4.726-.861 4.72-1.238z" fill="#b0b1c4"/><path d="m20.728 22.572-4.729-.868-4.726.868 4.72 1.318z" fill="#f3f3fa"/><path d="m11.273 9.429 4.726-1.17.039-.012v-7.836l-.039-.032-4.726 2.364z" fill="#d9dae6"/><path d="m20.728 9.429-4.728-1.17v-7.88l4.728 2.364z" fill="#fff"/><path d="m16 31.621-4.728-2.363v-6.686l4.728 1.17.07.079-.02 7.664z" fill="#d9dae6"/><path clip-rule="evenodd" d="m20.712 29.266-4.712 2.354v-7.88l4.712-1.165v6.69zm8.212-9.258v-13.168l-2.084-1.041v14.209z" fill="#fff" fill-rule="evenodd"/><g stroke="#fff"><path d="m26.644 21.653 2.818 3.045m-2.818-3.045h-3.682a.5.5 0 0 0 -.5.5v8a.5.5 0 0 0 .5.5h6a.5.5 0 0 0 .5-.5v-5.455m-2.818-3.045v2.545a.5.5 0 0 0 .5.5h2.318"/><path d="m26.035 28.79-1.735-1.316m0 0 1.734-1.32m-1.734 1.32h3.321" stroke-linecap="round" stroke-linejoin="round"/></g></svg>