<svg viewBox="0 0 33 33" fill="none" xmlns="http://www.w3.org/2000/svg">
<path d="M27.5742 29.4022L31.7382 30.4118L31.7447 30.4014L31.7446 22.5988L31.738 22.5919L27.5742 23.6V29.4022Z" fill="#D9DAE6"/>
<path d="M29.3904 29.034L27.5742 28.7009L25.7585 29.034L27.572 29.5402L29.3904 29.034Z" fill="#F3F3FA"/>
<path fill-rule="evenodd" clip-rule="evenodd" d="M29.3903 23.9858L27.5742 23.5365V20.5099L29.3903 21.4178V23.9858ZM23.4102 30.4097L27.6907 29.3907V28.0119L29.3903 27.7956V25.2277L27.6907 25.0145V23.5886L23.4102 22.5919V30.4097ZM29.3902 31.6021L27.5742 32.5098V29.4833L29.3902 29.0342V31.6021ZM32.5383 22.9918L31.7381 22.5919V30.4118L32.5383 30.012V22.9918Z" fill="white"/>
<path fill-rule="evenodd" clip-rule="evenodd" d="M25.7585 23.9858L27.5742 23.5365L27.5889 23.532V20.522L27.5742 20.5099L25.7585 21.4178V23.9858ZM22.6104 22.9918L23.4102 22.5919L23.415 22.5974V30.4039L23.4102 30.4097L22.6104 30.012V22.9918ZM27.5742 28.0267L25.7585 27.7956V25.2277L27.5742 24.9999L27.5958 25.0232L27.5856 28.0004L27.5742 28.0267ZM25.7583 31.6022L27.5742 32.5099L27.5936 32.4575L27.6009 29.5137L27.5742 29.4834L25.7583 29.0342V31.6022Z" fill="#D9DAE6"/>
<path d="M29.3904 23.9858L27.5742 24.3168L25.7585 23.9858L27.5719 23.5105L29.3904 23.9858Z" fill="#B0B1C4"/>
<path d="M24.9639 12.7439C24.9639 14.3814 21.204 15.7089 16.5659 15.7089C11.9279 15.7089 8.16797 14.3814 8.16797 12.7439M24.9639 12.7439V19.7945M24.9639 12.7439C24.9639 11.8359 23.8077 11.0232 21.9866 10.4793M8.16797 12.7439V23.6099C8.16797 25.2474 11.9279 26.5749 16.5659 26.5749C17.1237 26.5749 17.6688 26.5557 18.1962 26.519M8.16797 12.7439C8.16797 11.8607 9.26188 11.0676 10.9975 10.5244M24.9639 18.0915C24.9639 19.729 21.204 21.0565 16.5659 21.0565C11.9279 21.0565 8.16797 19.729 8.16797 18.0915M12.7127 6.60493C13.1585 5.03192 14.6052 3.87955 16.321 3.87955C18.3921 3.87955 20.071 5.55849 20.071 7.62957C20.071 9.70065 18.3921 11.3796 16.321 11.3796C15.1716 11.3796 14.143 10.8625 13.4551 10.0482M12.7127 6.60493L12.1143 5.0883M12.7127 6.60493L14.2294 6.00646M13.4551 10.0482C13.3893 9.97024 13.3265 9.88955 13.2671 9.80633M13.4551 10.0482L13.2671 9.80633M13.2671 9.80633C13.2114 9.72834 13.1586 9.64812 13.1089 9.56584M13.1089 9.56584C13.0614 9.48717 13.0167 9.4066 12.9749 9.32429M13.1089 9.56584L12.9749 9.32429M12.9749 9.32429C12.9313 9.2383 12.8908 9.15039 12.8538 9.06074" stroke="white" stroke-linecap="round" stroke-linejoin="round"/>
<path fill-rule="evenodd" clip-rule="evenodd" d="M10.0197 17.5066C10.2945 17.5066 10.5173 17.2838 10.5173 17.0089C10.5173 16.734 10.2945 16.5112 10.0197 16.5112C9.74479 16.5112 9.52197 16.734 9.52197 17.0089C9.52197 17.2838 9.74479 17.5066 10.0197 17.5066ZM10.0197 23.0057C10.2945 23.0057 10.5173 22.7829 10.5173 22.5081C10.5173 22.2332 10.2945 22.0104 10.0197 22.0104C9.74479 22.0104 9.52197 22.2332 9.52197 22.5081C9.52197 22.7829 9.74479 23.0057 10.0197 23.0057Z" fill="white"/>
</svg>
