<svg viewBox="0 0 24 24" fill="none" xmlns="http://www.w3.org/2000/svg">
<path d="M18.3192 9.17551C18.3192 10.4036 15.4992 11.3992 12.0207 11.3992C8.54215 11.3992 5.72223 10.4036 5.72223 9.17551M18.3192 9.17551V17.325C18.3192 18.5531 15.4992 19.5487 12.0207 19.5487C8.54215 19.5487 5.72223 18.5531 5.72223 17.325V9.17551M18.3192 9.17551C18.3192 8.49447 17.452 7.88493 16.0862 7.47702M5.72223 9.17551C5.72223 8.51307 6.54266 7.91828 7.84436 7.5109M18.3192 13.1862C18.3192 14.4143 15.4992 15.4099 12.0207 15.4099C8.54215 15.4099 5.72223 14.4143 5.72223 13.1862M9.13078 4.57126C9.46514 3.3915 10.5502 2.52722 11.837 2.52722C13.3903 2.52722 14.6495 3.78643 14.6495 5.33974C14.6495 6.89305 13.3903 8.15225 11.837 8.15225C10.975 8.15225 10.2035 7.76442 9.6876 7.15372M9.13078 4.57126L8.68195 3.43379M9.13078 4.57126L10.2683 4.12241M9.6876 7.15372C9.6382 7.09525 9.59114 7.03473 9.54657 6.97231M9.6876 7.15372L9.54657 6.97231M9.54657 6.97231C9.5048 6.91382 9.46522 6.85365 9.42794 6.79194M9.42794 6.79194C9.39229 6.73294 9.35875 6.67252 9.32743 6.61078M9.42794 6.79194L9.32743 6.61078M9.32743 6.61078C9.2947 6.54628 9.26438 6.48036 9.23659 6.41312" stroke="#FFFFFF" stroke-linecap="round" stroke-linejoin="round"/>
<ellipse cx="7.11099" cy="12.3742" rx="0.373261" ry="0.373261" fill="#FFFFFF"/>
<ellipse cx="7.11099" cy="16.4986" rx="0.373261" ry="0.373261" fill="#FFFFFF"/>
</svg>
