<svg width="33" height="33" viewBox="0 0 33 33" fill="none" xmlns="http://www.w3.org/2000/svg">
<path d="M24.5142 12.81C24.5142 14.4475 20.7543 15.775 16.1162 15.775C11.4782 15.775 7.71826 14.4475 7.71826 12.81M24.5142 12.81V23.676C24.5142 25.3135 20.7543 26.641 16.1162 26.641C11.4782 26.641 7.71826 25.3135 7.71826 23.676V12.81M24.5142 12.81C24.5142 11.902 23.3579 11.0893 21.5369 10.5454M7.71826 12.81C7.71826 11.9268 8.81217 11.1337 10.5478 10.5905M24.5142 18.1576C24.5142 19.7951 20.7543 21.1226 16.1162 21.1226C11.4782 21.1226 7.71826 19.7951 7.71826 18.1576M12.263 6.67103C12.7088 5.09802 14.1555 3.94565 15.8713 3.94565C17.9424 3.94565 19.6213 5.62459 19.6213 7.69567C19.6213 9.76675 17.9424 11.4457 15.8713 11.4457C14.7219 11.4457 13.6933 10.9286 13.0054 10.1143M12.263 6.67103L11.6646 5.1544M12.263 6.67103L13.7797 6.07256M13.0054 10.1143C12.9395 10.0363 12.8768 9.95565 12.8174 9.87243M13.0054 10.1143L12.8174 9.87243M12.8174 9.87243C12.7617 9.79444 12.7089 9.71422 12.6592 9.63194M12.6592 9.63194C12.6117 9.55327 12.567 9.4727 12.5252 9.39039M12.6592 9.63194L12.5252 9.39039M12.5252 9.39039C12.4815 9.3044 12.4411 9.21649 12.4041 9.12684" stroke="#4F5162" stroke-linecap="round" stroke-linejoin="round"/>
<path fill-rule="evenodd" clip-rule="evenodd" d="M9.56995 17.5727C9.84481 17.5727 10.0676 17.3499 10.0676 17.075C10.0676 16.8002 9.84481 16.5773 9.56995 16.5773C9.29508 16.5773 9.07227 16.8002 9.07227 17.075C9.07227 17.3499 9.29508 17.5727 9.56995 17.5727ZM9.56995 23.0718C9.84481 23.0718 10.0676 22.849 10.0676 22.5742C10.0676 22.2993 9.84481 22.0765 9.56995 22.0765C9.29508 22.0765 9.07227 22.2993 9.07227 22.5742C9.07227 22.849 9.29508 23.0718 9.56995 23.0718Z" fill="#4F5162"/>
</svg>
