<svg viewBox="0 0 33 33" fill="none" xmlns="http://www.w3.org/2000/svg">
<path d="M24.9639 12.7439C24.9639 14.3814 21.204 15.7089 16.5659 15.7089C11.9279 15.7089 8.16797 14.3814 8.16797 12.7439M24.9639 12.7439V19.7945M24.9639 12.7439C24.9639 11.8359 23.8077 11.0232 21.9866 10.4793M8.16797 12.7439V23.6099C8.16797 25.2474 11.9279 26.5749 16.5659 26.5749C17.1237 26.5749 17.6688 26.5557 18.1962 26.519M8.16797 12.7439C8.16797 11.8607 9.26188 11.0676 10.9975 10.5244M24.9639 18.0915C24.9639 19.729 21.204 21.0565 16.5659 21.0565C11.9279 21.0565 8.16797 19.729 8.16797 18.0915M12.7127 6.60493C13.1585 5.03192 14.6052 3.87955 16.321 3.87955C18.3921 3.87955 20.071 5.55849 20.071 7.62957C20.071 9.70065 18.3921 11.3796 16.321 11.3796C15.1716 11.3796 14.143 10.8625 13.4551 10.0482M12.7127 6.60493L12.1143 5.0883M12.7127 6.60493L14.2294 6.00646M13.4551 10.0482C13.3893 9.97024 13.3265 9.88955 13.2671 9.80633M13.4551 10.0482L13.2671 9.80633M13.2671 9.80633C13.2114 9.72834 13.1586 9.64812 13.1089 9.56584M13.1089 9.56584C13.0614 9.48717 13.0167 9.4066 12.9749 9.32429M13.1089 9.56584L12.9749 9.32429M12.9749 9.32429C12.9313 9.2383 12.8908 9.15039 12.8538 9.06074" stroke="white" stroke-linecap="round" stroke-linejoin="round"/>
<path fill-rule="evenodd" clip-rule="evenodd" d="M10.0197 17.5066C10.2945 17.5066 10.5173 17.2838 10.5173 17.0089C10.5173 16.734 10.2945 16.5112 10.0197 16.5112C9.74479 16.5112 9.52197 16.734 9.52197 17.0089C9.52197 17.2838 9.74479 17.5066 10.0197 17.5066ZM10.0197 23.0057C10.2945 23.0057 10.5173 22.7829 10.5173 22.5081C10.5173 22.2332 10.2945 22.0104 10.0197 22.0104C9.74479 22.0104 9.52197 22.2332 9.52197 22.5081C9.52197 22.7829 9.74479 23.0057 10.0197 23.0057Z" fill="white"/>
<path fill-rule="evenodd" clip-rule="evenodd" d="M29.9286 22.277L32.3942 26.5651C32.4887 26.7309 32.5383 26.9185 32.5383 27.1093C32.5383 27.3002 32.4887 27.4877 32.3942 27.6536L29.9286 31.9417C29.8367 32.1084 29.7031 32.2484 29.5409 32.348C29.3787 32.4475 29.1935 32.5033 29.0033 32.5099H24.071C23.8808 32.5024 23.6957 32.446 23.5338 32.3459C23.3718 32.2459 23.2385 32.1057 23.1467 31.9389L20.681 27.6264C20.5875 27.4631 20.5383 27.2783 20.5383 27.0901C20.5383 26.902 20.5875 26.7171 20.681 26.5539L23.1476 22.277C23.2402 22.1125 23.3743 21.9751 23.5364 21.8784C23.6986 21.7817 23.8832 21.729 24.072 21.7257H29.0042C29.193 21.7289 29.3776 21.7815 29.5398 21.8782C29.702 21.9749 29.836 22.1124 29.9286 22.277ZM28.4781 25.8292H24.593C24.5628 25.8285 24.5334 25.8396 24.5113 25.8603C24.4892 25.881 24.4761 25.9096 24.4749 25.9399V26.7461C24.4749 26.7762 24.4869 26.8051 24.5081 26.8263C24.5294 26.8476 24.5583 26.8595 24.5884 26.8595H28.4781C28.5081 26.8593 28.5368 26.8473 28.558 26.8261C28.5792 26.8048 28.5913 26.7761 28.5915 26.7461V25.9427C28.5915 25.9126 28.5796 25.8837 28.5583 25.8625C28.537 25.8412 28.5082 25.8292 28.4781 25.8292ZM27.8771 26.5792C27.8311 26.5792 27.7862 26.5656 27.748 26.5401C27.7097 26.5145 27.6799 26.4782 27.6623 26.4357C27.6447 26.3932 27.6401 26.3465 27.6491 26.3014C27.6581 26.2563 27.6802 26.2148 27.7127 26.1823C27.7452 26.1498 27.7867 26.1277 27.8318 26.1187C27.8769 26.1097 27.9236 26.1143 27.9661 26.1319C28.0086 26.1495 28.0449 26.1793 28.0704 26.2176C28.096 26.2558 28.1096 26.3007 28.1096 26.3467C28.1096 26.4084 28.0851 26.4675 28.0415 26.5111C27.9979 26.5547 27.9388 26.5792 27.8771 26.5792ZM28.4781 27.378H24.593C24.5628 27.3772 24.5334 27.3884 24.5113 27.4091C24.4892 27.4298 24.4761 27.4584 24.4749 27.4886V28.2996C24.4763 28.3288 24.4889 28.3565 24.5099 28.3768C24.531 28.3972 24.559 28.4088 24.5884 28.4092H28.4781C28.5081 28.409 28.5368 28.397 28.558 28.3757C28.5792 28.3545 28.5913 28.3258 28.5915 28.2958V27.4877C28.5915 27.4576 28.5796 27.4287 28.5583 27.4075C28.537 27.3862 28.5082 27.3742 28.4781 27.3742V27.378ZM27.8771 28.1242C27.8311 28.1242 27.7862 28.1106 27.748 28.0851C27.7097 28.0595 27.6799 28.0232 27.6623 27.9807C27.6447 27.9382 27.6401 27.8915 27.6491 27.8464C27.6581 27.8013 27.6802 27.7599 27.7127 27.7273C27.7452 27.6948 27.7867 27.6727 27.8318 27.6637C27.8769 27.6547 27.9236 27.6593 27.9661 27.6769C28.0086 27.6945 28.0449 27.7243 28.0704 27.7626C28.096 27.8008 28.1096 27.8458 28.1096 27.8917C28.1096 27.9223 28.1036 27.9525 28.0919 27.9807C28.0802 28.0089 28.0631 28.0346 28.0415 28.0561C28.0199 28.0777 27.9943 28.0949 27.9661 28.1065C27.9379 28.1182 27.9077 28.1242 27.8771 28.1242Z" fill="#F6FAFF"/>
<path fill-rule="evenodd" clip-rule="evenodd" d="M24.5049 26.8231L24.5042 26.8239L25.0582 27.378H28.478V27.3742C28.508 27.3742 28.5369 27.3862 28.5582 27.4075C28.5794 27.4287 28.5914 27.4576 28.5914 27.4877V28.2958C28.5912 28.3258 28.5791 28.3545 28.5579 28.3757C28.5367 28.397 28.508 28.409 28.478 28.4092H24.5882C24.5704 28.409 24.5531 28.4046 24.5374 28.3966L28.6479 32.5071H28.9986C29.1888 32.5006 29.374 32.4448 29.5362 32.3452C29.6984 32.2456 29.832 32.1056 29.9239 31.939L31.6423 28.9502L28.5523 25.8555L28.5507 25.8556C28.5533 25.8578 28.5558 25.8601 28.5582 25.8625C28.5794 25.8837 28.5914 25.9126 28.5914 25.9427V26.7461C28.5912 26.7761 28.5791 26.8048 28.5579 26.8261C28.5367 26.8473 28.508 26.8593 28.478 26.8595H24.5882C24.5582 26.8595 24.5293 26.8476 24.508 26.8263C24.507 26.8253 24.506 26.8242 24.5049 26.8231ZM27.877 26.5792C27.831 26.5792 27.7861 26.5656 27.7478 26.5401C27.7096 26.5145 27.6798 26.4782 27.6622 26.4357C27.6446 26.3932 27.64 26.3465 27.649 26.3014C27.658 26.2563 27.6801 26.2148 27.7126 26.1823C27.7451 26.1498 27.7866 26.1277 27.8317 26.1187C27.8768 26.1097 27.9235 26.1143 27.966 26.1319C28.0085 26.1495 28.0448 26.1793 28.0703 26.2176C28.0959 26.2558 28.1095 26.3007 28.1095 26.3467C28.1095 26.4084 28.085 26.4675 28.0414 26.5111C27.9978 26.5547 27.9387 26.5792 27.877 26.5792ZM27.877 28.1242C27.831 28.1242 27.7861 28.1106 27.7478 28.0851C27.7096 28.0595 27.6798 28.0232 27.6622 27.9807C27.6446 27.9382 27.64 27.8915 27.649 27.8464C27.658 27.8013 27.6801 27.7599 27.7126 27.7273C27.7451 27.6948 27.7866 27.6727 27.8317 27.6637C27.8768 27.6547 27.9235 27.6593 27.966 27.6769C28.0085 27.6945 28.0448 27.7243 28.0703 27.7626C28.0959 27.8008 28.1095 27.8458 28.1095 27.8917C28.1095 27.9223 28.1035 27.9525 28.0918 27.9807C28.0801 28.0089 28.063 28.0346 28.0414 28.0561C28.0198 28.0777 27.9942 28.0949 27.966 28.1065C27.9378 28.1182 27.9076 28.1242 27.877 28.1242Z" fill="#D7DFED"/>
</svg>
