<svg fill="none" viewBox="0 0 40 40" xmlns="http://www.w3.org/2000/svg"><g clip-rule="evenodd" fill-rule="evenodd"><path d="m36.7378 27.2088 3.0821 5.3602c.118.2073.1801.4418.1801.6803 0 .2386-.0621.473-.1801.6803l-3.0821 5.3602c-.1148.2083-.2818.3833-.4845.5078-.2028.1245-.4344.1942-.6721.2024h-6.1653c-.2378-.0093-.4691-.0799-.6716-.205-.2024-.125-.3691-.3003-.4839-.5087l-3.082-5.3907c-.1169-.2041-.1784-.4351-.1784-.6703s.0615-.4662.1784-.6703l3.0832-5.3462c.1158-.2056.2834-.3773.486-.4982.2027-.1209.4335-.1867.6695-.1908h6.1652c.236.004.4668.0697.6695.1906.2028.1209.3703.2927.486.4984zm-1.8131 4.4404h-4.8563c-.0378-.001-.0745.013-.1022.0389-.0276.0258-.0439.0615-.0455.0994v1.0078c0 .0376.015.0737.0416.1003.0266.0265.0626.0415.1002.0415h4.8622c.0375-.0003.0734-.0154.0999-.0419s.0416-.0624.0419-.0999v-1.0043c0-.0376-.015-.0737-.0416-.1003-.0265-.0266-.0626-.0415-.1002-.0415zm-.7512.9375c-.0575 0-.1137-.0171-.1615-.049s-.085-.0773-.107-.1304-.0278-.1116-.0165-.1679c.0112-.0564.0389-.1082.0795-.1488.0406-.0407.0924-.0684.1488-.0796s.1148-.0054.1679.0166.0985.0592.1304.107c.032.0478.049.104.049.1615 0 .077-.0306.151-.0851.2055s-.1284.0851-.2055.0851zm.7512.9984h-4.8563c-.0378-.0009-.0745.013-.1022.0389-.0276.0259-.0439.0616-.0455.0994v1.0137c.0018.0366.0175.0711.0438.0966s.0614.0399.098.0405h4.8622c.0375-.0003.0734-.0153.0999-.0419.0265-.0265.0416-.0624.0419-.0999v-1.0102c0-.0376-.015-.0736-.0416-.1002-.0265-.0266-.0626-.0416-.1002-.0416zm-.7512.9328c-.0575 0-.1137-.017-.1615-.0489-.0478-.032-.085-.0774-.107-.1305s-.0278-.1115-.0165-.1679c.0112-.0564.0389-.1081.0795-.1488.0406-.0406.0924-.0683.1488-.0795s.1148-.0055.1679.0165.0985.0593.1304.1071c.032.0478.049.1039.049.1614 0 .0382-.0075.076-.0221.1112-.0146.0353-.036.0673-.063.0943s-.059.0484-.0943.063c-.0352.0146-.073.0221-.1112.0221z" fill="#4285f4"/><path d="m29.9585 32.8916-.001.001.6926.6926h4.2747v-.0047c.0376 0 .0737.0149.1003.0415.0265.0266.0415.0627.0415.1003v1.0101c-.0003.0375-.0154.0734-.0419.1-.0265.0265-.0624.0415-.0999.0418h-4.8622c-.0223-.0003-.044-.0058-.0635-.0158l5.1381 5.1381h.4383c.2378-.0081.4694-.0779.6721-.2023.2028-.1245.3697-.2995.4846-.5078l2.148-3.736-3.8625-3.8684-.002.0002c.0032.0027.0064.0055.0094.0085.0265.0266.0415.0627.0415.1003v1.0043c-.0003.0375-.0154.0734-.0419.0999-.0265.0266-.0624.0416-.0999.0419h-4.8622c-.0376 0-.0736-.0149-.1002-.0415-.0013-.0013-.0026-.0027-.0039-.004zm4.2151-.3049c-.0575 0-.1137-.017-.1615-.049-.0477-.0319-.085-.0773-.107-.1304s-.0277-.1115-.0165-.1679.0389-.1082.0795-.1488c.0407-.0407.0924-.0683.1488-.0796.0564-.0112.1148-.0054.1679.0166s.0985.0592.1305.107c.0319.0478.0489.104.0489.1615 0 .0771-.0306.151-.0851.2055s-.1284.0851-.2055.0851zm0 1.9313c-.0575 0-.1137-.0171-.1615-.049-.0477-.0319-.085-.0773-.107-.1304s-.0277-.1116-.0165-.1679c.0112-.0564.0389-.1082.0795-.1489.0407-.0406.0924-.0683.1488-.0795s.1148-.0055.1679.0165.0985.0593.1305.1071c.0319.0478.0489.104.0489.1614 0 .0382-.0075.076-.0221.1113-.0146.0352-.036.0673-.063.0943-.027.0269-.059.0483-.0943.063-.0352.0146-.073.0221-.1112.0221z" fill="#3d7ce3"/><path d="m16.1224 7.22054c.737-1.18396 2.0612-1.97324 3.5714-1.97324 2.3133 0 4.1885 1.85126 4.1885 4.13489 0 2.28361-1.8752 4.13491-4.1885 4.13491-1.2801 0-2.4257-.5663-3.1948-1.4608l-.2222-.2822c-.0584-.0811-.1139-.1644-.1663-.2497l-.1584-.2817c-.0472-.0923-.0909-.1865-.1311-.2826-.1055-.252-.398-.3719-.6532-.2677-.2553.1041-.3767.3928-.2713.6448.0513.1226.1073.2427.1677.3602.0578.1125.1197.2225.1855.33.0687.1124.1418.2219.2188.3285.0822.1136.169.2238.2601.3302.951 1.1113 2.3747 1.8184 3.9652 1.8184 2.8657 0 5.1887-2.2933 5.1887-5.12231 0-2.82898-2.323-5.12232-5.1887-5.12232-1.92 0-3.5956 1.02921-4.493 2.55873l-.3015-.75428c-.1013-.25364-.3918-.37812-.6487-.27804-.257.10009-.3831.38684-.2817.64048l.7483 1.87196c.0486.1218.1443.21952.266.27166.1217.05215.2593.05444.3827.00637l1.8963-.73869c.2569-.10008.383-.38683.2816-.64047-.1013-.25364-.3918-.37812-.6487-.27803zm10.7982 5.20596c-.2646-.078-.5433.0705-.6223.3318-.0791.2612.0714.5363.3361.6143 1.1079.3267 1.9778.7245 2.5594 1.152.59.4336.806.8361.806 1.1702 0 .3012-.1739.6568-.6455 1.0455-.4688.3863-1.1771.7563-2.0963 1.0767-1.8338.6391-4.3998 1.0437-7.258 1.0437s-5.4242-.4046-7.258-1.0437c-.9192-.3204-1.6275-.6904-2.0963-1.0767-.4716-.3887-.6455-.7443-.6455-1.0455 0-.3249.2038-.7142.7596-1.1356.5493-.4163 1.3729-.8069 2.4274-1.1327.2636-.0815.4104-.3584.3279-.6187-.0825-.2602-.3631-.4051-.6267-.3237-1.1155.3447-2.0607.7787-2.7378 1.292-.67047.5082-1.1506 1.1534-1.1506 1.9187v13.4117c0 .7094.41373 1.3165 1.0048 1.8035.5938.4894 1.4232.9079 2.4042 1.2498 1.9664.6854 4.6502 1.1001 7.591 1.1001.7089 0 1.402-.0241 2.073-.0701.2756-.0189.4834-.2548.4643-.5268-.0192-.272-.258-.4772-.5336-.4583-.6477.0444-1.3177.0677-2.0037.0677-2.8582 0-5.4242-.4045-7.258-1.0437-.9192-.3203-1.6275-.6904-2.0963-1.0767-.4716-.3886-.6455-.7442-.6455-1.0455v-5.0115l.0046.0038c.5938.4893 1.4232.9079 2.4042 1.2498 1.9664.6853 4.6502 1.1 7.591 1.1 2.9407 0 5.6246-.4147 7.591-1.1.981-.3419 1.8104-.7605 2.4042-1.2498l.0046-.0038v.3022c0 .2726.2239.4937.5001.4937s.5001-.2211.5001-.4937v-8.7024c0-.7867-.5068-1.4462-1.2089-1.9622-.7103-.5221-1.7016-.9615-2.8705-1.3061zm3.0746 5.0718.0046-.0037v4.8007c0 .3012-.1739.6568-.6455 1.0454-.4688.3863-1.1771.7564-2.0963 1.0768-1.8338.6391-4.3998 1.0437-7.258 1.0437s-5.4242-.4046-7.258-1.0437c-.9192-.3204-1.6275-.6905-2.0963-1.0768-.4716-.3886-.6455-.7442-.6455-1.0454v-4.8007l.0046.0037c.5938.4894 1.4232.9079 2.4042 1.2498 1.9664.6854 4.6502 1.1 7.591 1.1 2.9407 0 5.6246-.4146 7.591-1.1.981-.3419 1.8104-.7604 2.4042-1.2498zm-17.5578 3.4607c0 .3393-.2786.6143-.6223.6143-.3436 0-.6222-.275-.6222-.6143 0-.3392.2786-.6143.6222-.6143.3437 0 .6223.2751.6223.6143zm0 6.7875c0 .3393-.2786.6143-.6223.6143-.3436 0-.6222-.275-.6222-.6143 0-.3392.2786-.6142.6222-.6142.3437 0 .6223.275.6223.6142z" fill="#4f5162"/></g></svg>