<svg fill="none" xmlns="http://www.w3.org/2000/svg" viewBox="0 0 32 32"><path d="M5.159 5.8 3.076 6.84v18.278l2.083 1.035.012-.015V5.814l-.012-.015Z" fill="#D9DAE6"/><path d="M16.303 23.5 5.159 26.153V5.8l11.144 2.595V23.5Z" fill="#fff"/><path d="m11.273 19.347 4.726.602.03-.068.027-7.752-.057-.06-4.726.593v6.685Z" fill="#D9DAE6"/><path fill-rule="evenodd" clip-rule="evenodd" d="M20.712 24.673 16 23.53V8.424L26.84 5.8l.017.019v14.19h-5.645a.5.5 0 0 0-.5.5v4.165Z" fill="#D9DAE6"/><path d="M20.728 19.347 16 19.95v-7.88l4.728.593v6.685Z" fill="#fff"/><path d="m20.728 9.429-4.729.861-4.726-.861 4.72-1.238 4.735 1.238Z" fill="#B0B1C4"/><path d="m20.728 22.572-4.729-.868-4.726.868 4.72 1.318 4.735-1.318Z" fill="#F3F3FA"/><path d="m11.273 9.429 4.726-1.17.039-.012V.411l-.039-.032-4.726 2.364v6.686Z" fill="#D9DAE6"/><path d="M20.728 9.429 16 8.259V.379l4.728 2.364v6.686Z" fill="#fff"/><path d="m16 31.621-4.728-2.363v-6.686L16 23.742l.07.079-.02 7.664-.05.136Z" fill="#D9DAE6"/><path fill-rule="evenodd" clip-rule="evenodd" d="M20.712 29.266 16 31.62v-7.88l4.712-1.165v6.69Zm8.212-9.258V6.84L26.84 5.799v14.209h2.084Z" fill="#fff"/><path d="m26.644 21.653 2.818 3.045m-2.818-3.045h-3.682a.5.5 0 0 0-.5.5v8a.5.5 0 0 0 .5.5h6a.5.5 0 0 0 .5-.5v-5.455m-2.818-3.045v2.545a.5.5 0 0 0 .5.5h2.318" stroke="#fff"/><path d="M26.035 28.79 24.3 27.474m0 0 1.734-1.32m-1.734 1.32h3.321" stroke="#fff" stroke-linecap="round" stroke-linejoin="round"/></svg>