<svg fill="none" viewBox="0 0 40 40" xmlns="http://www.w3.org/2000/svg"><path d="m33.7949 36.1154 5.205 1.2621.0082-.0131-.0002-9.7532-.0082-.0087-5.2048 1.2602z" fill="#d9dae6"/><path d="m36.0652 35.6552-2.2702-.4165-2.2696.4165 2.2668.6328z" fill="#f3f3fa"/><path clip-rule="evenodd" d="m36.065 29.345-2.2701-.5617v-3.7833l2.2701 1.1349zm-7.4752 8.0297 5.3507-1.2736v-1.7236l2.1245-.2704v-3.2098l-2.1245-.2665v-1.7824l-5.3507-1.2459zm7.4751 1.4906-2.27 1.1346v-3.7831l2.27-.5614zm3.9351-10.7628-1.0002-.5v9.7749l1.0002-.4997z" fill="#fff" fill-rule="evenodd"/><path clip-rule="evenodd" d="m31.525 29.345 2.2696-.5617.0184-.0057v-3.7625l-.0184-.0151-2.2696 1.1349zm-3.9352-1.2425.9998-.5.006.0069v9.7581l-.006.0072-.9998-.497zm6.2048 6.2935-2.2696-.2889v-3.2098l2.2696-.2848.027.0291-.0127 3.7215zm-2.2698 4.4694 2.2698 1.1346.0244-.0655.009-3.6797-.0334-.0379-2.2698-.5615z" fill="#d9dae6" fill-rule="evenodd"/><path d="m36.0652 29.345-2.2702.4137-2.2696-.4137 2.2667-.5942z" fill="#b0b1c4"/><path clip-rule="evenodd" d="m16.1224 7.22056c.737-1.18397 2.0612-1.97324 3.5714-1.97324 2.3133 0 4.1885 1.85125 4.1885 4.13489 0 2.28359-1.8752 4.13489-4.1885 4.13489-1.2801 0-2.4257-.5663-3.1948-1.4607l-.2222-.2823c-.0584-.0811-.1139-.1644-.1663-.2497l-.1584-.2817c-.0472-.0923-.0909-.1865-.1311-.2826-.1055-.252-.398-.3718-.6532-.2677-.2553.1041-.3767.3928-.2713.6448.0513.1226.1073.2427.1677.3602.0578.1125.1197.2226.1855.33.0687.1124.1418.222.2188.3285.0822.1136.169.2238.2601.3302.951 1.1114 2.3747 1.8184 3.9652 1.8184 2.8657 0 5.1887-2.2933 5.1887-5.12229 0-2.82898-2.323-5.12232-5.1887-5.12232-1.92 0-3.5956 1.0292-4.493 2.55873l-.3015-.75428c-.1013-.25364-.3918-.37812-.6487-.27804-.257.10008-.3831.38683-.2817.64047l.7483 1.87196c.0486.12181.1443.21953.266.27167s.2593.05443.3827.00637l1.8963-.73869c.2569-.10009.383-.38684.2816-.64047-.1013-.25364-.3918-.37812-.6487-.27804zm10.7982 5.20594c-.2646-.078-.5433.0705-.6223.3318-.0791.2613.0714.5363.3361.6143 1.1079.3267 1.9778.7245 2.5594 1.152.59.4336.806.8361.806 1.1702 0 .3013-.1739.6569-.6455 1.0455-.4688.3863-1.1771.7563-2.0963 1.0767-1.8338.6392-4.3998 1.0437-7.258 1.0437s-5.4242-.4045-7.258-1.0437c-.9192-.3204-1.6275-.6904-2.0963-1.0767-.4716-.3886-.6455-.7442-.6455-1.0455 0-.3249.2038-.7142.7596-1.1355.5493-.4164 1.3729-.807 2.4274-1.1328.2636-.0814.4104-.3584.3279-.6186-.0825-.2603-.3631-.4052-.6267-.3238-1.1155.3447-2.0607.7787-2.7378 1.292-.67047.5082-1.1506 1.1534-1.1506 1.9187v13.4118c0 .7093.41373 1.3164 1.0048 1.8035.5938.4893 1.4232.9078 2.4042 1.2497 1.9664.6854 4.6502 1.1001 7.591 1.1001.7089 0 1.402-.0241 2.073-.0701.2756-.0189.4834-.2547.4643-.5268-.0192-.272-.258-.4772-.5336-.4583-.6477.0444-1.3177.0678-2.0037.0678-2.8582 0-5.4242-.4046-7.258-1.0438-.9192-.3203-1.6275-.6904-2.0963-1.0767-.4716-.3886-.6455-.7442-.6455-1.0454v-5.0116l.0046.0038c.5938.4893 1.4232.9079 2.4042 1.2498 1.9664.6853 4.6502 1.1 7.591 1.1 2.9407 0 5.6246-.4147 7.591-1.1.981-.3419 1.8104-.7605 2.4042-1.2498l.0046-.0038v.3022c0 .2727.2239.4937.5001.4937s.5001-.221.5001-.4937v-8.7024c0-.7867-.5068-1.4462-1.2089-1.9622-.7103-.5221-1.7016-.9615-2.8705-1.3061zm3.0746 5.0718.0046-.0037v4.8007c0 .3012-.1739.6568-.6455 1.0454-.4688.3864-1.1771.7564-2.0963 1.0768-1.8338.6391-4.3998 1.0437-7.258 1.0437s-5.4242-.4046-7.258-1.0437c-.9192-.3204-1.6275-.6904-2.0963-1.0768-.4716-.3886-.6455-.7442-.6455-1.0454v-4.8007l.0046.0037c.5938.4894 1.4232.9079 2.4042 1.2498 1.9664.6854 4.6502 1.1001 7.591 1.1001 2.9407 0 5.6246-.4147 7.591-1.1001.981-.3419 1.8104-.7604 2.4042-1.2498zm-17.5578 3.4607c0 .3393-.2786.6143-.6223.6143-.3436 0-.6222-.275-.6222-.6143 0-.3392.2786-.6143.6222-.6143.3437 0 .6223.2751.6223.6143zm0 6.7876c0 .3392-.2786.6142-.6223.6142-.3436 0-.6222-.275-.6222-.6142 0-.3393.2786-.6143.6222-.6143.3437 0 .6223.275.6223.6143z" fill="#fff" fill-rule="evenodd"/></svg>