<svg fill="none" viewBox="0 0 28 28" xmlns="http://www.w3.org/2000/svg"><path d="m4.302 4.849-1.863.932v16.35l1.863.926.01-.013v-18.182z" fill="#8c3123"/><path d="m14.271 20.684-9.97 2.373v-18.208l9.97 2.321z" fill="#e05243"/><path d="m9.771 16.969 4.229.538.026-.061.024-6.934-.05-.055-4.229.531v5.98" fill="#8c3123"/><path d="m14 20.71 9.698 2.352.015-.024v-18.173l-.016-.016-9.697 2.348v13.514" fill="#8c3123"/><path d="m18.23 16.969-4.23.538v-7.05l4.23.531v5.98z" fill="#e05243"/><path d="m18.23 8.096-4.23.77-4.229-.77 4.223-1.107z" fill="#5e1f18"/><path d="m18.23 19.853-4.23-.776-4.229.776 4.224 1.179z" fill="#f2b0a9"/><path d="m9.771 8.096 4.229-1.047.034-.01v-7.01l-.034-.029-4.23 2.115v5.98z" fill="#8c3123"/><path d="m18.23 8.096-4.23-1.047v-7.049l4.23 2.115v5.98z" fill="#e05243"/><path d="m14 27.948-4.23-2.114v-5.98l4.23 1.046.062.07-.017 6.856z" fill="#8c3123"/><path d="m14 27.948 4.229-2.114v-5.98l-4.23 1.046v7.048zm9.697-23.098 1.863.932v16.35l-1.863.931v-18.214z" fill="#e05243"/><path d="m24.472 15.75h-5.317c-.912 0-1.655.721-1.655 1.608v9.034c0 .887.742 1.608 1.655 1.608h6.778c.913 0 1.655-.721 1.655-1.608v-7.258z" fill="#fbe6e4"/><g fill="#4f5162"><path d="m24.196 16.47h-4.556a1.42 1.42 0 0 0 -1.418 1.42v7.97a1.42 1.42 0 0 0 1.418 1.42h5.81a1.42 1.42 0 0 0 1.418-1.42v-6.404l-2.67-2.985zm.187 1.223 1.39 1.554h-1.39zm1.809 8.167c0 .41-.334.743-.743.743h-5.81a.744.744 0 0 1 -.742-.743v-7.97c0-.41.333-.743.742-.743h4.068v2.776h2.485v5.938z"/><path d="m22.544 20.598a2.404 2.404 0 1 0 0 4.807 2.404 2.404 0 0 0 0-4.807zm-.296 2.742.595.51-.439.513-1.592-1.361 1.592-1.361.44.514-.597.509h2.029v.676z"/></g></svg>