<svg viewBox="0 0 33 33" fill="none" xmlns="http://www.w3.org/2000/svg">
<path d="M27.6907 29.7782L23.4102 30.7972V22.9793L27.6907 23.9761V29.7782Z" fill="#E05243"/>
<path fill-rule="evenodd" clip-rule="evenodd" d="M22.6104 23.3793L23.4102 22.9793L23.415 22.9848V30.7914L23.4102 30.7972L22.6104 30.3995V23.3793ZM31.7382 30.7993L27.5742 29.7897V23.9875L31.738 22.9793L31.7446 22.9863L31.7447 30.7889L31.7382 30.7993Z" fill="#8C3123"/>
<path d="M29.3904 24.3733L27.5742 24.7043L25.7585 24.3733L27.5719 23.898L29.3904 24.3733Z" fill="#5E1F18"/>
<path d="M29.3904 29.4215L27.5742 29.0883L25.7585 29.4215L27.572 29.9277L29.3904 29.4215Z" fill="#F2B0A9"/>
<path fill-rule="evenodd" clip-rule="evenodd" d="M25.7585 24.3733L27.5742 23.924L27.5889 23.9195V20.9095L27.5742 20.8973L25.7585 21.8053V24.3733ZM25.7585 28.183L27.5742 28.4142L27.5856 28.3879L27.5958 25.4107L27.5742 25.3874L25.7585 25.6152V28.183ZM25.7583 31.9897L27.5742 32.8974L27.5936 32.845L27.6009 29.9013L27.5742 29.8709L25.7583 29.4217V31.9897Z" fill="#8C3123"/>
<path fill-rule="evenodd" clip-rule="evenodd" d="M29.3904 24.3733L27.5742 23.924V20.8973L29.3904 21.8053V24.3733ZM29.3904 28.183L27.5742 28.4142V25.3874L29.3904 25.6152V28.183ZM29.3902 31.9896L27.5742 32.8973V29.8708L29.3902 29.4217V31.9896ZM32.5384 23.3793L31.7382 22.9793V30.7993L32.5384 30.3995V23.3793Z" fill="#E05243"/>
<path d="M24.9639 13.1314C24.9639 14.7689 21.204 16.0964 16.5659 16.0964C11.9279 16.0964 8.16797 14.7689 8.16797 13.1314M24.9639 13.1314V20.182M24.9639 13.1314C24.9639 12.2234 23.8077 11.4107 21.9866 10.8668M8.16797 13.1314V23.9974C8.16797 25.6349 11.9279 26.9624 16.5659 26.9624C17.1237 26.9624 17.6688 26.9432 18.1962 26.9065M8.16797 13.1314C8.16797 12.2482 9.26188 11.4551 10.9975 10.912M24.9639 18.479C24.9639 20.1165 21.204 21.444 16.5659 21.444C11.9279 21.444 8.16797 20.1165 8.16797 18.479M12.7127 6.99245C13.1585 5.41943 14.6052 4.26706 16.321 4.26706C18.3921 4.26706 20.071 5.946 20.071 8.01708C20.071 10.0882 18.3921 11.7671 16.321 11.7671C15.1716 11.7671 14.143 11.25 13.4551 10.4357M12.7127 6.99245L12.1143 5.47581M12.7127 6.99245L14.2294 6.39397M13.4551 10.4357C13.3893 10.3578 13.3265 10.2771 13.2671 10.1938M13.4551 10.4357L13.2671 10.1938M13.2671 10.1938C13.2114 10.1158 13.1586 10.0356 13.1089 9.95335M13.1089 9.95335C13.0614 9.87468 13.0167 9.79412 12.9749 9.7118M13.1089 9.95335L12.9749 9.7118M12.9749 9.7118C12.9313 9.62581 12.8908 9.5379 12.8538 9.44825" stroke="#4F5162" stroke-linecap="round" stroke-linejoin="round"/>
<path fill-rule="evenodd" clip-rule="evenodd" d="M10.0197 17.8941C10.2945 17.8941 10.5173 17.6713 10.5173 17.3964C10.5173 17.1216 10.2945 16.8987 10.0197 16.8987C9.74479 16.8987 9.52197 17.1216 9.52197 17.3964C9.52197 17.6713 9.74479 17.8941 10.0197 17.8941ZM10.0197 23.3932C10.2945 23.3932 10.5173 23.1704 10.5173 22.8956C10.5173 22.6207 10.2945 22.3979 10.0197 22.3979C9.74479 22.3979 9.52197 22.6207 9.52197 22.8956C9.52197 23.1704 9.74479 23.3932 10.0197 23.3932Z" fill="#4F5162"/>
</svg>
