<svg width="33" height="33" viewBox="0 0 33 33" fill="none" xmlns="http://www.w3.org/2000/svg">
<path fill-rule="evenodd" clip-rule="evenodd" d="M29.9286 22.6645L32.3942 26.9526C32.4887 27.1185 32.5383 27.306 32.5383 27.4969C32.5383 27.6877 32.4887 27.8752 32.3942 28.0411L29.9286 32.3292C29.8367 32.4959 29.7031 32.6359 29.5409 32.7355C29.3787 32.835 29.1935 32.8908 29.0033 32.8974H24.071C23.8808 32.8899 23.6957 32.8335 23.5338 32.7334C23.3718 32.6334 23.2385 32.4932 23.1467 32.3264L20.681 28.0139C20.5875 27.8506 20.5383 27.6658 20.5383 27.4776C20.5383 27.2895 20.5875 27.1046 20.681 26.9414L23.1476 22.6645C23.2402 22.5 23.3743 22.3626 23.5364 22.2659C23.6986 22.1692 23.8832 22.1165 24.072 22.1132H29.0042C29.193 22.1165 29.3776 22.169 29.5398 22.2657C29.702 22.3625 29.836 22.4999 29.9286 22.6645ZM28.4781 26.2167H24.593C24.5628 26.216 24.5334 26.2272 24.5113 26.2479C24.4892 26.2685 24.4761 26.2971 24.4749 26.3274V27.1336C24.4749 27.1637 24.4869 27.1926 24.5081 27.2138C24.5294 27.2351 24.5583 27.2471 24.5884 27.2471H28.4781C28.5081 27.2468 28.5368 27.2348 28.558 27.2136C28.5792 27.1923 28.5913 27.1636 28.5915 27.1336V26.3302C28.5915 26.3001 28.5796 26.2712 28.5583 26.25C28.537 26.2287 28.5082 26.2167 28.4781 26.2167ZM27.8771 26.9667C27.8311 26.9667 27.7862 26.9531 27.748 26.9276C27.7097 26.902 27.6799 26.8657 27.6623 26.8232C27.6447 26.7807 27.6401 26.734 27.6491 26.6889C27.6581 26.6438 27.6802 26.6024 27.7127 26.5698C27.7452 26.5373 27.7867 26.5152 27.8318 26.5062C27.8769 26.4972 27.9236 26.5018 27.9661 26.5194C28.0086 26.537 28.0449 26.5668 28.0704 26.6051C28.096 26.6433 28.1096 26.6883 28.1096 26.7342C28.1096 26.7959 28.0851 26.855 28.0415 26.8986C27.9979 26.9423 27.9388 26.9667 27.8771 26.9667ZM28.4781 27.7655H24.593C24.5628 27.7647 24.5334 27.7759 24.5113 27.7966C24.4892 27.8173 24.4761 27.8459 24.4749 27.8761V28.6871C24.4763 28.7163 24.4889 28.744 24.5099 28.7644C24.531 28.7847 24.559 28.7963 24.5884 28.7968H28.4781C28.5081 28.7965 28.5368 28.7845 28.558 28.7633C28.5792 28.742 28.5913 28.7133 28.5915 28.6833V27.8752C28.5915 27.8451 28.5796 27.8162 28.5583 27.795C28.537 27.7737 28.5082 27.7617 28.4781 27.7617V27.7655ZM27.8771 28.5118C27.8311 28.5118 27.7862 28.4981 27.748 28.4726C27.7097 28.447 27.6799 28.4107 27.6623 28.3682C27.6447 28.3257 27.6401 28.279 27.6491 28.2339C27.6581 28.1888 27.6802 28.1474 27.7127 28.1148C27.7452 28.0823 27.7867 28.0602 27.8318 28.0512C27.8769 28.0422 27.9236 28.0469 27.9661 28.0644C28.0086 28.082 28.0449 28.1118 28.0704 28.1501C28.096 28.1883 28.1096 28.2333 28.1096 28.2793C28.1096 28.3098 28.1036 28.34 28.0919 28.3682C28.0802 28.3964 28.0631 28.4221 28.0415 28.4437C28.0199 28.4652 27.9943 28.4824 27.9661 28.4941C27.9379 28.5057 27.9077 28.5118 27.8771 28.5118Z" fill="#4285F4"/>
<path fill-rule="evenodd" clip-rule="evenodd" d="M24.5049 27.2106L24.5042 27.2114L25.0582 27.7655H28.478V27.7617C28.508 27.7617 28.5369 27.7737 28.5582 27.795C28.5794 27.8162 28.5914 27.8451 28.5914 27.8752V28.6833C28.5912 28.7133 28.5791 28.742 28.5579 28.7633C28.5367 28.7845 28.508 28.7965 28.478 28.7968H24.5882C24.5704 28.7965 24.5531 28.7921 24.5374 28.7841L28.6479 32.8946H28.9986C29.1888 32.8881 29.374 32.8323 29.5362 32.7327C29.6984 32.6331 29.832 32.4931 29.9239 32.3265L31.6423 29.3377L28.5523 26.243L28.5507 26.2431C28.5533 26.2453 28.5558 26.2476 28.5582 26.25C28.5794 26.2712 28.5914 26.3001 28.5914 26.3302V27.1336C28.5912 27.1636 28.5791 27.1923 28.5579 27.2136C28.5367 27.2348 28.508 27.2468 28.478 27.2471H24.5882C24.5582 27.2471 24.5293 27.2351 24.508 27.2138C24.507 27.2128 24.506 27.2117 24.5049 27.2106ZM27.877 26.9667C27.831 26.9667 27.7861 26.9531 27.7478 26.9276C27.7096 26.902 27.6798 26.8657 27.6622 26.8232C27.6446 26.7807 27.64 26.734 27.649 26.6889C27.658 26.6438 27.6801 26.6024 27.7126 26.5698C27.7451 26.5373 27.7866 26.5152 27.8317 26.5062C27.8768 26.4972 27.9235 26.5018 27.966 26.5194C28.0085 26.537 28.0448 26.5668 28.0703 26.6051C28.0959 26.6433 28.1095 26.6883 28.1095 26.7342C28.1095 26.7959 28.085 26.855 28.0414 26.8986C27.9978 26.9423 27.9387 26.9667 27.877 26.9667ZM27.877 28.5118C27.831 28.5118 27.7861 28.4981 27.7478 28.4726C27.7096 28.447 27.6798 28.4107 27.6622 28.3682C27.6446 28.3257 27.64 28.279 27.649 28.2339C27.658 28.1888 27.6801 28.1474 27.7126 28.1148C27.7451 28.0823 27.7866 28.0602 27.8317 28.0512C27.8768 28.0422 27.9235 28.0469 27.966 28.0644C28.0085 28.082 28.0448 28.1118 28.0703 28.1501C28.0959 28.1883 28.1095 28.2333 28.1095 28.2793C28.1095 28.3098 28.1035 28.34 28.0918 28.3682C28.0801 28.3964 28.063 28.4221 28.0414 28.4437C28.0198 28.4652 27.9942 28.4824 27.966 28.4941C27.9378 28.5057 27.9076 28.5118 27.877 28.5118Z" fill="#3D7CE3"/>
<path d="M24.9639 13.1314C24.9639 14.7689 21.204 16.0964 16.5659 16.0964C11.9279 16.0964 8.16797 14.7689 8.16797 13.1314M24.9639 13.1314V20.182M24.9639 13.1314C24.9639 12.2234 23.8077 11.4107 21.9866 10.8668M8.16797 13.1314V23.9974C8.16797 25.6349 11.9279 26.9624 16.5659 26.9624C17.1237 26.9624 17.6688 26.9432 18.1962 26.9065M8.16797 13.1314C8.16797 12.2482 9.26188 11.4551 10.9975 10.912M24.9639 18.479C24.9639 20.1165 21.204 21.444 16.5659 21.444C11.9279 21.444 8.16797 20.1165 8.16797 18.479M12.7127 6.99245C13.1585 5.41943 14.6052 4.26706 16.321 4.26706C18.3921 4.26706 20.071 5.946 20.071 8.01708C20.071 10.0882 18.3921 11.7671 16.321 11.7671C15.1716 11.7671 14.143 11.25 13.4551 10.4357M12.7127 6.99245L12.1143 5.47581M12.7127 6.99245L14.2294 6.39397M13.4551 10.4357C13.3893 10.3578 13.3265 10.2771 13.2671 10.1938M13.4551 10.4357L13.2671 10.1938M13.2671 10.1938C13.2114 10.1158 13.1586 10.0356 13.1089 9.95335M13.1089 9.95335C13.0614 9.87468 13.0167 9.79412 12.9749 9.7118M13.1089 9.95335L12.9749 9.7118M12.9749 9.7118C12.9313 9.62581 12.8908 9.5379 12.8538 9.44825" stroke="#4F5162" stroke-linecap="round" stroke-linejoin="round"/>
<path fill-rule="evenodd" clip-rule="evenodd" d="M10.0197 17.8941C10.2945 17.8941 10.5173 17.6713 10.5173 17.3964C10.5173 17.1216 10.2945 16.8987 10.0197 16.8987C9.74479 16.8987 9.52197 17.1216 9.52197 17.3964C9.52197 17.6713 9.74479 17.8941 10.0197 17.8941ZM10.0197 23.3932C10.2945 23.3932 10.5173 23.1704 10.5173 22.8956C10.5173 22.6207 10.2945 22.3979 10.0197 22.3979C9.74479 22.3979 9.52197 22.6207 9.52197 22.8956C9.52197 23.1704 9.74479 23.3932 10.0197 23.3932Z" fill="#4F5162"/>
</svg>
