<svg fill="none" viewBox="0 0 40 40" xmlns="http://www.w3.org/2000/svg"><path d="m33.9405 36.1011-5.3507 1.2736v-9.7723l5.3507 1.2459z" fill="#e05243"/><path clip-rule="evenodd" d="m27.5898 28.1024.9998-.5.006.0069v9.7582l-.006.0072-.9998-.497zm11.4099 9.275-5.205-1.262v-7.2528l5.2048-1.2602.0082.0088.0001 9.7532z" fill="#8c3123" fill-rule="evenodd"/><path d="m36.0652 29.345-2.2702.4137-2.2696-.4137 2.2667-.5942z" fill="#5e1f18"/><path d="m36.0652 35.6552-2.2702-.4165-2.2696.4165 2.2668.6327z" fill="#f2b0a9"/><g clip-rule="evenodd" fill-rule="evenodd"><path d="m31.5252 29.3449 2.2696-.5616.0184-.0057v-3.7625l-.0184-.0152-2.2696 1.135zm0 4.7622 2.2696.2889.0142-.0329.0128-3.7215-.027-.0291-2.2696.2848zm-.0003 4.7583 2.2698 1.1346.0244-.0655.009-3.6797-.0334-.0379-2.2698-.5615z" fill="#8c3123"/><path d="m36.0651 29.3449-2.2702-.5616v-3.7834l2.2702 1.135zm0 4.7622-2.2702.2889v-3.7835l2.2702.2848zm-.0002 4.7582-2.27 1.1346v-3.7831l2.27-.5614zm3.9352-10.7629-1.0002-.5v9.775l1.0002-.4998z" fill="#e05243"/><path d="m16.1224 7.22054c.737-1.18396 2.0612-1.97324 3.5714-1.97324 2.3133 0 4.1885 1.85126 4.1885 4.13489 0 2.28361-1.8752 4.13491-4.1885 4.13491-1.2801 0-2.4257-.5663-3.1948-1.4608l-.2222-.2822c-.0584-.0811-.1139-.1644-.1663-.2497l-.1584-.2817c-.0472-.0923-.0909-.1865-.1311-.2826-.1055-.252-.398-.3719-.6532-.2677-.2553.1041-.3767.3928-.2713.6448.0513.1226.1073.2427.1677.3602.0578.1125.1197.2225.1855.33.0687.1124.1418.2219.2188.3285.0822.1136.169.2238.2601.3302.951 1.1113 2.3747 1.8184 3.9652 1.8184 2.8657 0 5.1887-2.2933 5.1887-5.12231 0-2.82898-2.323-5.12232-5.1887-5.12232-1.92 0-3.5956 1.02921-4.493 2.55873l-.3015-.75428c-.1013-.25364-.3918-.37812-.6487-.27804-.257.10009-.3831.38684-.2817.64048l.7483 1.87196c.0486.1218.1443.21952.266.27166.1217.05215.2593.05444.3827.00637l1.8963-.73869c.2569-.10008.383-.38683.2816-.64047-.1013-.25364-.3918-.37812-.6487-.27803zm10.7982 5.20596c-.2646-.078-.5433.0705-.6223.3318-.0791.2612.0714.5363.3361.6143 1.1079.3267 1.9778.7245 2.5594 1.152.59.4336.806.8361.806 1.1702 0 .3012-.1739.6568-.6455 1.0455-.4688.3863-1.1771.7563-2.0963 1.0767-1.8338.6391-4.3998 1.0437-7.258 1.0437s-5.4242-.4046-7.258-1.0437c-.9192-.3204-1.6275-.6904-2.0963-1.0767-.4716-.3887-.6455-.7443-.6455-1.0455 0-.3249.2038-.7142.7596-1.1356.5493-.4163 1.3729-.8069 2.4274-1.1327.2636-.0815.4104-.3584.3279-.6187-.0825-.2602-.3631-.4051-.6267-.3237-1.1155.3447-2.0607.7787-2.7378 1.292-.67047.5082-1.1506 1.1534-1.1506 1.9187v13.4117c0 .7094.41373 1.3165 1.0048 1.8035.5938.4894 1.4232.9079 2.4042 1.2498 1.9664.6854 4.6502 1.1001 7.591 1.1001.7089 0 1.402-.0241 2.073-.0701.2756-.0189.4834-.2548.4643-.5268-.0192-.272-.258-.4772-.5336-.4583-.6477.0444-1.3177.0677-2.0037.0677-2.8582 0-5.4242-.4045-7.258-1.0437-.9192-.3203-1.6275-.6904-2.0963-1.0767-.4716-.3886-.6455-.7442-.6455-1.0455v-5.0115l.0046.0038c.5938.4893 1.4232.9079 2.4042 1.2498 1.9664.6853 4.6502 1.1 7.591 1.1 2.9407 0 5.6246-.4147 7.591-1.1.981-.3419 1.8104-.7605 2.4042-1.2498l.0046-.0038v.3022c0 .2726.2239.4937.5001.4937s.5001-.2211.5001-.4937v-8.7024c0-.7867-.5068-1.4462-1.2089-1.9622-.7103-.5221-1.7016-.9615-2.8705-1.3061zm3.0746 5.0718.0046-.0037v4.8007c0 .3012-.1739.6568-.6455 1.0454-.4688.3863-1.1771.7564-2.0963 1.0768-1.8338.6391-4.3998 1.0437-7.258 1.0437s-5.4242-.4046-7.258-1.0437c-.9192-.3204-1.6275-.6905-2.0963-1.0768-.4716-.3886-.6455-.7442-.6455-1.0454v-4.8007l.0046.0037c.5938.4894 1.4232.9079 2.4042 1.2498 1.9664.6854 4.6502 1.1 7.591 1.1 2.9407 0 5.6246-.4146 7.591-1.1.981-.3419 1.8104-.7604 2.4042-1.2498zm-17.5578 3.4607c0 .3393-.2786.6143-.6223.6143-.3436 0-.6222-.275-.6222-.6143 0-.3392.2786-.6143.6222-.6143.3437 0 .6223.2751.6223.6143zm0 6.7875c0 .3393-.2786.6143-.6223.6143-.3436 0-.6222-.275-.6222-.6143 0-.3392.2786-.6142.6222-.6142.3437 0 .6223.275.6223.6142z" fill="#4f5162"/></g></svg>