<svg viewBox="0 0 32 32" xmlns="http://www.w3.org/2000/svg"><path fill-rule="evenodd" clip-rule="evenodd" d="M16.01 5a10.98 10.98 0 00-7.473 2.92 2.998 2.998 0 01-.72 4.528A3.002 3.002 0 015.003 16.5 3.002 3.002 0 012 13.501c0-1.09.581-2.042 1.45-2.568a3.002 3.002 0 014.309-3.654A11.982 11.982 0 0116.01 4c4.729 0 8.819 2.73 10.78 6.696L26.79 7.38a.5.5 0 011.001 0v4.755h-1.367l-.087.033-.012-.033h-3.304a.5.5 0 110-1h2.87A11.015 11.015 0 0016.011 5zm-9.746 7.881c.213 0 .421-.022.622-.065A2.001 2.001 0 015.003 15.5a2.001 2.001 0 01-1.05-3.703 2.999 2.999 0 002.31 1.084zM4.998 24.099v-3.296a12.02 12.02 0 002.517 3.682A11.985 11.985 0 0016.011 28c4.914 0 9.138-2.947 11-7.167a3.002 3.002 0 002.989-3c0-1.657-1.345-3-3.003-3a3.001 3.001 0 00-1.007 5.827A11.015 11.015 0 0116.01 27c-3.04 0-5.793-1.23-7.787-3.222a11.02 11.02 0 01-2.334-3.435h2.878a.5.5 0 100-1h-4.77V24.1a.5.5 0 001 0zM6.264 7.88a2.001 2.001 0 102.002 2c0-1.105-.897-2-2.002-2zm18.73 9.952c0-1.104.897-2 2.003-2a2.001 2.001 0 11-2.003 2z" fill="#0278D5"/></svg>