<svg xmlns="http://www.w3.org/2000/svg" viewBox="0 0 32 32"><path fill="#fff" d="M12.714 1.361a4.65 4.65 0 0 1 6.572 0l11.353 11.353a4.65 4.65 0 0 1 0 6.572L19.286 30.639a4.65 4.65 0 0 1-6.572 0L1.361 19.286a4.65 4.65 0 0 1 0-6.572zm9.935 8.89a1 1 0 0 0-1.414 1.414l4.576 4.576a.8.8 0 0 1-.001 1.129l-9.151 9.15a.797.797 0 0 1-1.128 0L6.38 17.37a.8.8 0 0 1 0-1.129l.527-.528a1 1 0 0 0-1.414-1.414l-.528.528a2.8 2.8 0 0 0 .001 3.957l9.151 9.151a2.8 2.8 0 0 0 3.956 0l9.151-9.151a2.8 2.8 0 0 0 .001-3.957zM11.777 9.237a1 1 0 0 0-1.339-.068l-.075.068-2.023 2.022a1 1 0 0 0 1.414 1.414l.315-.315v4.831c0 .283.111.555.309.758l3.383 3.462a1 1 0 1 0 1.431-1.398l-3.122-3.193v-4.459l.314.315a1 1 0 0 0 1.414-1.414zm6.482-4.962a1 1 0 0 0-1.304-.064l-.075.064-2.669 2.54a1 1 0 1 0 1.379 1.449l.979-.933v8.587a1 1 0 1 0 2 0V7.331l.98.934a1 1 0 0 0 1.378-1.449l-2.669-2.54z"/></svg>