<svg xmlns="http://www.w3.org/2000/svg" viewBox="0 0 141 40"><path fill="url(#a)" fill-rule="evenodd" d="M16.714 5.361a4.65 4.65 0 0 1 6.572 0l11.353 11.353a4.65 4.65 0 0 1 0 6.572L23.286 34.639a4.65 4.65 0 0 1-6.572 0L5.361 23.286a4.65 4.65 0 0 1 0-6.572zm9.935 8.89a1 1 0 0 0-1.414 1.414l4.576 4.576a.8.8 0 0 1-.001 1.129l-9.151 9.15a.797.797 0 0 1-1.128 0l-9.151-9.15a.8.8 0 0 1 0-1.129l.527-.528a1 1 0 0 0-1.414-1.414l-.528.528a2.8 2.8 0 0 0 .001 3.957l9.151 9.151a2.8 2.8 0 0 0 3.956 0l9.151-9.151a2.8 2.8 0 0 0 .001-3.957zm-10.871-1.014a1 1 0 0 0-1.339-.068l-.075.068-2.023 2.023a1 1 0 0 0 1.414 1.414l.315-.315v4.831c0 .283.111.555.309.758l3.383 3.462a1 1 0 1 0 1.431-1.398l-3.122-3.193V16.36l.314.315a1 1 0 0 0 1.414-1.414l-2.021-2.023zm6.482-4.962a1 1 0 0 0-1.304-.064l-.075.064-2.669 2.54a1 1 0 1 0 1.379 1.449l.979-.933v8.587a1 1 0 1 0 2 0V11.33l.98.934a1 1 0 0 0 1.378-1.449z"/><path fill="#000" d="M45.004 16V5.818h3.818q1.173 0 1.969.408c.796.408.936.653 1.208 1.143s.413 1.056.413 1.705-.139 1.22-.418 1.7-.681.847-1.218 1.109-1.197.388-1.979.388h-2.72V10.74h2.471q.686 0 1.124-.189c.438-.189.507-.316.646-.562s.214-.554.214-.915-.071-.669-.214-.925a1.36 1.36 0 0 0-.651-.587q-.438-.204-1.129-.204h-1.69V16zm5.26-4.614L52.785 16h-2.058l-2.476-4.614zm7.037 4.763q-1.149 0-1.984-.477c-.835-.477-.979-.776-1.278-1.362s-.447-1.284-.447-2.083q0-1.178.447-2.068c.447-.89.723-1.061 1.263-1.392s1.175-.502 1.904-.502q.706 0 1.332.229a3 3 0 0 1 1.114.696q.487.472.766 1.203c.279.731.278 1.061.278 1.73v.552h-6.259v-1.213h4.534q-.005-.517-.224-.92c-.219-.403-.35-.486-.611-.641s-.56-.234-.905-.234q-.552 0-.97.268a1.85 1.85 0 0 0-.651.696q-.228.427-.234.94v1.059q0 .666.244 1.143c.244.477.389.557.681.726s.633.249 1.024.249q.393 0 .711-.109c.318-.109.396-.187.552-.333s.273-.327.353-.542l1.68.189a2.6 2.6 0 0 1-.607 1.163q-.443.492-1.133.766c-.69.274-.988.268-1.581.268zm6.718-10.331V16h-1.8V5.818zm5.231 10.331q-1.149 0-1.984-.477c-.835-.477-.979-.776-1.278-1.362s-.447-1.284-.447-2.083q0-1.178.447-2.068c.447-.89.723-1.061 1.263-1.392s1.175-.502 1.904-.502q.707 0 1.332.229a3 3 0 0 1 1.114.696q.487.472.766 1.203c.279.731.278 1.061.278 1.73v.552h-6.259v-1.213h4.534q-.005-.517-.224-.92c-.219-.403-.35-.486-.612-.641s-.56-.234-.905-.234a1.75 1.75 0 0 0-.969.268 1.85 1.85 0 0 0-.651.696q-.229.427-.234.94v1.059q0 .666.244 1.143a1.74 1.74 0 0 0 .681.726q.438.249 1.024.249.393 0 .711-.109a1.6 1.6 0 0 0 .552-.333q.234-.22.353-.542l1.68.189a2.6 2.6 0 0 1-.607 1.163q-.443.492-1.133.766c-.69.274-.988.268-1.581.268zm7.116.005q-.726 0-1.307-.258c-.581-.258-.689-.434-.915-.776s-.333-.762-.333-1.263q0-.646.239-1.069c.239-.423.376-.507.651-.676s.585-.297.93-.383.708-.154 1.079-.194l1.089-.124q.417-.06.607-.179c.19-.119.194-.21.194-.383v-.03q0-.562-.333-.87c-.333-.308-.542-.308-.96-.308q-.661 0-1.049.288a1.43 1.43 0 0 0-.517.681l-1.68-.239q.199-.696.656-1.163c.457-.467.678-.55 1.119-.706a4.3 4.3 0 0 1 1.462-.239 4.8 4.8 0 0 1 1.099.129 3.1 3.1 0 0 1 .999.428q.453.293.726.8c.273.507.278.761.278 1.268V16h-1.73v-1.049h-.06q-.164.318-.462.597c-.298.279-.442.33-.741.443s-.641.164-1.039.164zm.467-1.322q.541 0 .94-.214a1.6 1.6 0 0 0 .611-.577 1.47 1.47 0 0 0 .219-.78v-.9a.8.8 0 0 1-.288.129 4 4 0 0 1-.448.104l-.492.079-.423.06q-.403.054-.721.179c-.318.125-.38.199-.502.348a.85.85 0 0 0-.184.567q0 .497.363.751c.363.254.55.254.925.254m11.41-4.45-1.641.179a1.3 1.3 0 0 0-.244-.467 1.2 1.2 0 0 0-.457-.353 1.7 1.7 0 0 0-.706-.134q-.562 0-.945.244c-.383.244-.376.373-.373.631a.66.66 0 0 0 .244.542q.253.209.835.343l1.303.278q1.083.234 1.611.741c.528.507.534.781.537 1.327q-.005.721-.423 1.273c-.418.552-.658.65-1.148.855s-1.054.308-1.69.308q-1.402 0-2.257-.587c-.855-.587-.91-.943-1.019-1.646l1.755-.169q.12.517.507.781c.387.264.595.264 1.009.264q.642 0 1.029-.264c.387-.264.393-.393.393-.651a.68.68 0 0 0-.254-.542q-.249-.214-.776-.328l-1.303-.273q-1.098-.228-1.626-.771c-.528-.543-.525-.825-.522-1.382q-.005-.706.383-1.223c.388-.517.625-.616 1.089-.805s1.006-.288 1.616-.288q1.342 0 2.113.572c.771.572.837.897.959 1.546zm5.029 5.767q-1.149 0-1.984-.477c-.835-.477-.979-.776-1.278-1.362s-.447-1.284-.447-2.083q0-1.178.447-2.068c.447-.89.723-1.061 1.263-1.392s1.175-.502 1.904-.502q.707 0 1.332.229a3 3 0 0 1 1.114.696q.487.472.766 1.203c.279.731.278 1.061.278 1.73v.552h-6.259v-1.213h4.534q-.005-.517-.224-.92c-.219-.403-.35-.486-.612-.641s-.56-.234-.905-.234q-.552 0-.97.268a1.85 1.85 0 0 0-.651.696q-.229.427-.234.94v1.059q0 .666.244 1.143c.244.477.389.557.681.726s.633.249 1.024.249q.393 0 .711-.109c.318-.109.396-.187.552-.333s.273-.327.353-.542l1.68.189a2.6 2.6 0 0 1-.606 1.163q-.443.492-1.133.766c-.69.274-.988.268-1.581.268zm-39.17 12.76q0 1.646-.617 2.819c-.617 1.173-.965 1.375-1.67 1.79s-1.5.621-2.391.621-1.69-.207-2.396-.621-1.26-1.016-1.671-1.795-.611-1.72-.611-2.814.204-2.035.611-2.814.968-1.38 1.671-1.795 1.505-.621 2.396-.621 1.689.207 2.391.621 1.263 1.013 1.67 1.795.617 1.717.617 2.814m-1.854 0q0-1.158-.363-1.954c-.363-.796-.57-.936-.994-1.208s-.913-.413-1.467-.413-1.042.138-1.467.413-.757.674-.999 1.208-.358 1.181-.358 1.954.119 1.425.358 1.959.575.933.999 1.208.913.408 1.467.408 1.042-.136 1.467-.408.756-.678.994-1.208.363-1.187.363-1.959M55.767 34v-7.636h1.745v1.273h.08q.209-.662.716-1.019a1.97 1.97 0 0 1 1.168-.363l.333.015a2 2 0 0 1 .313.035v1.656a2 2 0 0 0-.363-.07 3 3 0 0 0-.472-.035 1.8 1.8 0 0 0-.885.214q-.388.209-.611.582c-.223.373-.224.535-.224.86V34zm8.567.149q-1.143 0-1.964-.502c-.821-.502-.963-.797-1.258-1.387s-.437-1.276-.437-2.048.149-1.46.447-2.053a3.34 3.34 0 0 1 1.263-1.392q.82-.502 1.939-.502.93 0 1.646.343c.716.343.863.545 1.148.96s.447.892.487 1.442h-1.72q-.104-.552-.497-.92c-.393-.368-.605-.373-1.039-.373q-.552 0-.969.298c-.417.298-.495.477-.651.845s-.229.809-.229 1.322q0 .78.229 1.342c.229.562.366.658.641.86a1.64 1.64 0 0 0 .979.298q.397 0 .711-.149a1.4 1.4 0 0 0 .532-.443q.213-.288.293-.701h1.72q-.065.81-.477 1.437c-.412.627-.65.739-1.123.974s-1.031.348-1.671.348zm6.549-4.623V34h-1.8V23.818h1.76v3.843h.09a2.2 2.2 0 0 1 .83-1.019q.567-.378 1.442-.378.796 0 1.387.333c.591.333.699.547.915.974s.328.95.328 1.566V34h-1.8v-4.584q0-.77-.398-1.198c-.398-.428-.63-.433-1.104-.433q-.477 0-.855.209a1.46 1.46 0 0 0-.587.592q-.209.388-.209.94zm10.167 4.623q-1.149 0-1.984-.477c-.835-.477-.979-.776-1.278-1.362s-.448-1.284-.448-2.083q0-1.179.448-2.068c.448-.889.722-1.061 1.263-1.392s1.175-.502 1.904-.502q.707 0 1.332.229a3 3 0 0 1 1.114.696q.487.473.766 1.203c.279.73.278 1.061.278 1.73v.552h-6.259v-1.213h4.534q-.005-.517-.224-.92c-.219-.403-.35-.486-.612-.641s-.56-.234-.905-.234q-.552 0-.969.268a1.85 1.85 0 0 0-.651.696q-.229.427-.234.94v1.059q0 .666.244 1.143a1.74 1.74 0 0 0 .681.726q.438.249 1.024.249.393 0 .711-.109c.318-.109.396-.187.552-.333s.273-.326.353-.542l1.68.189a2.6 2.6 0 0 1-.607 1.163q-.443.492-1.133.766c-.69.274-.988.268-1.581.268zm10.954-5.767-1.641.179a1.3 1.3 0 0 0-.244-.467 1.2 1.2 0 0 0-.457-.353 1.7 1.7 0 0 0-.706-.134q-.561 0-.945.244c-.384.244-.376.373-.373.631a.66.66 0 0 0 .244.542q.254.209.835.343l1.302.278q1.085.234 1.611.741c.526.507.534.781.537 1.327q-.005.721-.423 1.273c-.418.552-.658.65-1.148.855s-1.054.308-1.69.308q-1.402 0-2.257-.587c-.855-.587-.91-.943-1.019-1.646l1.755-.169q.12.518.507.78c.387.262.595.264 1.009.264q.642 0 1.029-.264c.387-.264.393-.393.393-.651q0-.328-.254-.542c-.254-.214-.424-.252-.775-.328l-1.303-.273q-1.099-.228-1.626-.771c-.527-.543-.525-.825-.522-1.382q-.005-.706.383-1.223c.388-.517.625-.617 1.089-.805s1.006-.288 1.616-.288q1.342 0 2.113.572c.771.572.837.897.96 1.546m5.461-2.018v1.392h-4.39v-1.392zm-3.306-1.83h1.8v7.169q0 .363.109.557a.6.6 0 0 0 .298.259q.185.07.408.07.17 0 .308-.025l.219-.045.303 1.407a4 4 0 0 1-.413.109q-.264.06-.646.07-.676.02-1.218-.204c-.542-.224-.648-.388-.86-.706s-.311-.716-.308-1.193v-7.467zM98.97 34v-7.636h1.745v1.273h.079q.209-.662.716-1.019a1.97 1.97 0 0 1 1.168-.363l.334.015a2 2 0 0 1 .313.035v1.656q-.114-.04-.363-.07a3 3 0 0 0-.472-.035 1.8 1.8 0 0 0-.885.214 1.56 1.56 0 0 0-.612.582 1.64 1.64 0 0 0-.224.86V34zm7.611.154q-.726 0-1.307-.258a2.13 2.13 0 0 1-.915-.776q-.333-.512-.333-1.263 0-.646.238-1.069a1.85 1.85 0 0 1 .652-.676 3.3 3.3 0 0 1 .929-.383 7.6 7.6 0 0 1 1.079-.194l1.089-.124q.418-.06.606-.179a.42.42 0 0 0 .194-.383v-.03q0-.562-.333-.87c-.333-.308-.542-.308-.959-.308q-.662 0-1.049.288c-.387.288-.428.419-.517.681l-1.681-.239q.2-.696.657-1.163c.457-.467.677-.55 1.118-.706s.928-.239 1.462-.239q.552 0 1.099.129a3.1 3.1 0 0 1 .999.428 2.16 2.16 0 0 1 .726.8q.278.507.278 1.268V34h-1.73v-1.049h-.06q-.163.318-.462.597c-.299.279-.442.33-.741.442s-.641.164-1.039.164m.467-1.322q.543 0 .94-.214c.397-.214.469-.338.612-.577s.218-.499.218-.781v-.9a.8.8 0 0 1-.288.129 4 4 0 0 1-.447.104l-.493.079-.422.06q-.403.054-.721.179c-.318.125-.38.199-.502.348s-.184.335-.184.567q0 .498.363.751c.363.253.55.254.924.254zm9.188-6.468v1.392h-4.39v-1.392zm-3.306-1.83h1.8v7.169q0 .363.109.557a.6.6 0 0 0 .298.259q.184.07.408.07.169 0 .308-.025l.219-.045.303 1.407q-.144.05-.412.109a2.8 2.8 0 0 1-.647.07q-.676.02-1.218-.204c-.542-.224-.648-.388-.86-.706s-.311-.716-.308-1.193v-7.467zM117.741 34v-7.636h1.8V34zm.905-8.72a1.05 1.05 0 0 1-.736-.283q-.308-.288-.308-.691c0-.403.103-.502.308-.691a1.04 1.04 0 0 1 .736-.288 1.03 1.03 0 0 1 .736.288q.308.283.308.691c0 .408-.103.499-.308.691a1.04 1.04 0 0 1-.736.283m6.076 8.869q-1.118 0-1.938-.492c-.82-.492-.972-.787-1.273-1.377s-.448-1.279-.448-2.068.15-1.48.448-2.073a3.33 3.33 0 0 1 1.273-1.382q.82-.492 1.938-.492c1.118 0 1.393.164 1.939.492a3.3 3.3 0 0 1 1.268 1.382q.453.89.453 2.073c0 1.183-.151 1.478-.453 2.068s-.721 1.049-1.268 1.377-1.193.492-1.939.492m.01-1.442q.607 0 1.015-.333c.408-.333.474-.527.606-.905s.204-.799.204-1.263-.068-.89-.204-1.268-.335-.684-.606-.91-.61-.338-1.015-.338q-.621 0-1.034.338c-.413.338-.475.529-.611.91a3.8 3.8 0 0 0-.199 1.268q0 .696.199 1.263a2.05 2.05 0 0 0 .611.905q.413.333 1.034.333m6.977-3.182V34h-1.8v-7.636h1.72v1.298h.09q.263-.642.84-1.019c.577-.377.867-.378 1.437-.378q.79 0 1.377.338c.587.338.699.552.915.979s.326.946.323 1.556V34h-1.8v-4.584q0-.766-.398-1.198c-.398-.432-.624-.433-1.088-.433q-.472 0-.841.209c-.369.209-.432.333-.571.592s-.204.572-.204.94z"/><defs><linearGradient id="a" x1="12" x2="28" y1="6.144" y2="33.856" gradientUnits="userSpaceOnUse"><stop stop-color="#62f91f"/><stop offset="1" stop-color="#45bd35"/></linearGradient></defs></svg>