<svg viewBox="0 0 33 32" fill="currentColor" xmlns="http://www.w3.org/2000/svg"><path fill-rule="evenodd" clip-rule="evenodd" d="M5.258 7.173a.8.8 0 0 1 .8-.8h7.962a.8.8 0 0 0 0-1.6H6.058a2.4 2.4 0 0 0-2.4 2.4V24.76a2.4 2.4 0 0 0 2.4 2.4h20.825a2.4 2.4 0 0 0 2.4-2.4V7.173a2.4 2.4 0 0 0-2.4-2.4h-5.9a.8.8 0 1 0 0 1.6h5.9a.8.8 0 0 1 .8.8V24.76a.8.8 0 0 1-.8.8h-.17l-2.862-5.234a4.382 4.382 0 1 0-5.31-.102l-2.806 5.335H6.058a.8.8 0 0 1-.8-.8V7.174ZM21.263 21.17c.396 0 .78-.053 1.144-.151l2.482 4.54h-7.346l2.412-4.588a4.38 4.38 0 0 0 1.308.199Zm0-7.165a2.783 2.783 0 1 0 0 5.565 2.783 2.783 0 0 0 0-5.565Zm-14.35-2.571h9.305v-1.6H6.913v1.6Zm0 3.754h7.836v-1.6H6.913v1.6Z"/></svg>