<svg viewBox="0 0 32 32" xmlns="http://www.w3.org/2000/svg"><path fill-rule="evenodd" clip-rule="evenodd" d="M14.523 5.355a.5.5 0 1 0-.704-.71l-3.057 3.028a.5.5 0 0 0 0 .71l3.057 3.029a.5.5 0 1 0 .704-.711L12.33 8.528H26a.5.5 0 0 1 .5.5V26a.5.5 0 0 1-.5.5H6a.5.5 0 0 1-.5-.5v-6.526a.5.5 0 1 0-1 0V26A1.5 1.5 0 0 0 6 27.5h20a1.5 1.5 0 0 0 1.5-1.5V9.028a1.5 1.5 0 0 0-1.5-1.5H12.33l2.193-2.173Zm-2.525 9.128a1 1 0 0 0-1 1v4a1 1 0 0 0 1 1h8.003a1 1 0 0 0 1-1v-4a1 1 0 0 0-1-1h-8.003Zm0 1h8.003v4h-8.003v-4Z" fill="#fff"/></svg>