<svg xmlns="http://www.w3.org/2000/svg" viewBox="0 0 32 32" fill="none"><path fill-rule="evenodd" clip-rule="evenodd" d="M27.427 17.023a2 2 0 0 0 .008-1.986l-5.112-9.023A2 2 0 0 0 20.583 5H10.414a2 2 0 0 0-1.74 1.014l-5.111 9.023a2 2 0 0 0 .008 1.986l5.1 8.834a2 2 0 0 0 1.732 1h10.19a2 2 0 0 0 1.733-1l1.645-2.848-8.307.057c-.045 0-.09-.003-.133-.008-2.97-.047-5.624-2.143-6.298-5.185-.784-3.546 1.418-7.071 4.95-7.853 2.74-.606 5.537.342 7.266 2.53l1.55-1.55v5h-5l2.022-2.023c-1.223-1.698-3.31-2.468-5.405-2.004-2.432.538-3.981 2.977-3.43 5.468.48 2.164 2.383 3.628 4.468 3.618.04 0 .08.002.119.006L25.13 21l2.297-3.978Z" fill="#fff"/></svg>