<svg viewBox="0 0 32 32" xmlns="http://www.w3.org/2000/svg"><path fill-rule="evenodd" clip-rule="evenodd" d="M14.523 5.355a.5.5 0 1 0-.704-.71l-3.057 3.028a.5.5 0 0 0 0 .71l3.057 3.028a.5.5 0 1 0 .704-.71L12.33 8.528H26a.5.5 0 0 1 .5.5V26a.5.5 0 0 1-.5.5H6a.5.5 0 0 1-.5-.5v-6.526a.5.5 0 1 0-1 0V26A1.5 1.5 0 0 0 6 27.5h20a1.5 1.5 0 0 0 1.5-1.5V9.028a1.5 1.5 0 0 0-1.5-1.5H12.33l2.193-2.173ZM8 14.567a1 1 0 0 1 1-1h5.379a1 1 0 0 1 1 1v.59h1.619v-.57a1 1 0 0 1 1-1h5a1 1 0 0 1 1 1v2a1 1 0 0 1-1 1h-2v2.547h2a1 1 0 0 1 1 1v2a1 1 0 0 1-1 1h-5a1 1 0 0 1-1-1v-.582H12.19a1 1 0 0 1-1-1v-3.805H9a1 1 0 0 1-1-1v-2.18Zm7.379 1.59h1.619v.43a1 1 0 0 0 1 1h2v2.547h-2a1 1 0 0 0-1 1v.418H12.19v-3.805h2.189a1 1 0 0 0 1-1v-.59ZM9 14.567v2.18h5.379v-2.18H9Zm8.998 6.567h5v2h-5v-2Zm5-6.548h-5v2h5v-2Z" fill="#fff"/></svg>