<svg xmlns="http://www.w3.org/2000/svg" viewBox="0 0 31 34" fill="none"><path fill="currentColor" fill-rule="evenodd" d="M21.356 22.579c0-.396.325-.853 1.075-1.234.727-.369 1.758-.608 2.917-.608 1.159 0 2.19.239 2.918.608.75.38 1.075.838 1.075 1.234s-.326.853-1.075 1.233c-.728.37-1.76.61-2.918.61-1.159 0-2.19-.24-2.917-.61-.75-.38-1.075-.837-1.075-1.233Zm7.234 1.893c.276-.14.532-.306.75-.494v1.548c0 .396-.325.853-1.074 1.234-.728.37-1.76.608-2.918.608-1.159 0-2.19-.239-2.917-.608-.75-.38-1.075-.838-1.075-1.234v-1.548c.218.188.474.354.75.494.848.43 1.995.686 3.242.686 1.247 0 2.394-.256 3.242-.686Zm0 2.947a3.74 3.74 0 0 0 .75-.494v1.549c0 .395-.325.853-1.074 1.233-.728.37-1.76.609-2.918.609-1.159 0-2.19-.24-2.917-.609-.75-.38-1.075-.838-1.075-1.233v-1.55c.218.19.474.355.75.495.848.43 1.995.686 3.242.686 1.247 0 2.394-.256 3.242-.686Zm0 2.947a3.74 3.74 0 0 0 .75-.494v1.55c0 .395-.325.852-1.074 1.233-.728.369-1.76.608-2.918.608-1.159 0-2.19-.239-2.917-.608-.75-.38-1.075-.838-1.075-1.234v-1.549c.218.19.474.354.75.494.848.43 1.995.687 3.242.687 1.247 0 2.394-.256 3.242-.687Zm0 2.948c.827-.42 1.477-1.068 1.477-1.893V22.58c0-.825-.65-1.473-1.477-1.893-.848-.43-1.995-.686-3.242-.686-1.247 0-2.393.256-3.242.686-.439.223-.827.51-1.096.853l.003-.054a6.555 6.555 0 0 0-.383-.011c-.948 0-1.825.201-2.477.545-.635.334-1.153.86-1.153 1.542v6.878c0 .682.518 1.209 1.153 1.542.652.344 1.529.545 2.477.545.13 0 .257-.003.383-.01l-.003-.055c.269.343.657.63 1.096.853.848.43 1.995.686 3.242.686 1.247 0 2.394-.256 3.242-.686Zm-7.916-1.525a1.538 1.538 0 0 1-.044-.368v-1.187c-.948 0-1.825-.202-2.477-.545a3.07 3.07 0 0 1-.427-.27v1.02c0 .267.213.6.76.888.53.28 1.288.462 2.144.462h.044Zm-.044-2.292v-1.555c-.948 0-1.825-.202-2.477-.545a3.07 3.07 0 0 1-.427-.27v1.02c0 .266.213.6.76.888.53.279 1.288.462 2.144.462Zm0-2.292v-1.556c-.948 0-1.825-.201-2.477-.545a3.07 3.07 0 0 1-.427-.27v1.02c0 .267.213.6.76.889.53.278 1.288.462 2.144.462Zm0-2.293V22.58c0-.127.015-.25.044-.368h-.044c-.856 0-1.613.183-2.143.462-.548.288-.761.621-.761.888s.213.6.76.89c.53.278 1.288.461 2.144.461ZM9.89 2.953a.688.688 0 0 1-.003.972l-.917.91h8.217c1.14 0 2.063.923 2.063 2.062v10.29c0 1.14-.923 2.063-2.063 2.063H4.813a2.062 2.062 0 0 1-2.062-2.063V9.622a.688.688 0 0 1 1.375 0v7.566c0 .38.308.688.688.688h12.375c.38 0 .687-.308.687-.688V6.898a.688.688 0 0 0-.688-.687H8.97l.917.91a.688.688 0 0 1-.969.975l-2.1-2.085a.688.688 0 0 1 0-.975l2.1-2.085a.688.688 0 0 1 .972.003Z" clip-rule="evenodd"/></svg>