<svg xmlns="http://www.w3.org/2000/svg" fill="none" viewBox="0 0 168 56"><path fill="#fff" d="M108.306 43.6965c-.646 0-1.201-.0878-1.665-.2635-.464-.1723-.837-.4043-1.119-.696-.282-.2917-.477-.6148-.587-.9695l1.621-.3927c.073.1491.179.2966.318.4425.139.1491.327.2717.562.3678.239.0995.539.1492.9.1492.51 0 .933-.1243 1.268-.3729.334-.2452.502-.6496.502-1.213v-1.4468h-.09c-.092.1856-.228.3762-.407.5718-.176.1955-.41.3596-.701.4921-.289.1326-.652.1989-1.089.1989-.587 0-1.119-.1375-1.596-.4126-.474-.2784-.852-.6927-1.134-1.2429-.278-.5535-.417-1.2462-.417-2.0782 0-.8385.139-1.5461.417-2.1228.282-.58.662-1.0192 1.139-1.3175.477-.3016 1.009-.4524 1.596-.4524.447 0 .815.0762 1.104.2287.291.1491.523.3298.696.5419.172.2088.303.406.392.5916h.1v-1.2628h1.775v7.7607c0 .6529-.156 1.1932-.468 1.6207-.311.4276-.737.7474-1.277.9595-.541.2121-1.154.3182-1.84.3182Zm.015-4.544c.381 0 .706-.0928.974-.2784.269-.1856.473-.4524.612-.8005.139-.348.209-.7656.209-1.2528 0-.4806-.07-.9015-.209-1.2628-.136-.3613-.338-.6413-.607-.8402-.265-.2022-.591-.3032-.979-.3032-.401 0-.736.1044-1.004.3132-.269.2088-.471.4955-.607.86-.136.3613-.204.7723-.204 1.233 0 .4673.068.8767.204 1.228.139.348.343.6198.612.8153.272.1923.605.2884.999.2884ZM98.2536 36.1994v4.4744h-1.7997v-7.6364h1.7201v1.2976h.0895c.1757-.4276.4557-.7673.8402-1.0192.3878-.2519.8667-.3778 1.4373-.3778.526 0 .986.1127 1.377.3381.394.2253.699.5518.914.9794.219.4275.327.9462.324 1.5561v4.8622h-1.8V36.09c0-.5104-.133-.9098-.398-1.1982-.262-.2883-.625-.4325-1.0887-.4325-.3148 0-.5949.0696-.8402.2088-.2419.1359-.4325.3331-.5717.5916-.1359.2585-.2038.5718-.2038.9397ZM92.8035 40.674v-7.6364h1.7997v7.6364h-1.7997Zm.9048-8.7202c-.285 0-.5303-.0944-.7358-.2833-.2054-.1923-.3082-.4226-.3082-.6911 0-.2718.1028-.5021.3082-.691.2055-.1923.4508-.2884.7358-.2884.2884 0 .5337.0961.7358.2884.2055.1889.3083.4192.3083.691 0 .2685-.1028.4988-.3083.6911-.2021.1889-.4474.2833-.7358.2833ZM91.2984 33.0376v1.392h-4.39v-1.392h4.39Zm-3.3061-1.8296h1.7997v7.169c0 .242.0364.4276.1093.5569.0763.1259.1757.2121.2983.2585.1227.0464.2586.0696.4077.0696.1127 0 .2154-.0083.3083-.0249.0961-.0165.169-.0315.2187-.0447l.3033 1.4069c-.0962.0332-.2337.0696-.4127.1094-.1756.0398-.3911.063-.6463.0696-.4507.0133-.8568-.0547-1.218-.2038-.3613-.1525-.648-.3878-.8601-.706-.2088-.3182-.3116-.7159-.3082-1.1932V31.208ZM85.8371 35.0559l-1.6406.179c-.0464-.1658-.1276-.3215-.2437-.4674-.1126-.1458-.2651-.2635-.4573-.3529-.1923-.0895-.4276-.1343-.706-.1343-.3745 0-.6894.0812-.9446.2436-.2519.1624-.3762.3729-.3729.6314-.0033.2221.0779.4027.2436.5419.1691.1392.4475.2536.8353.3431l1.3025.2784c.7226.1557 1.2595.4027 1.6108.7407.3547.3381.5336.7806.5369 1.3275-.0033.4805-.1441.9048-.4225 1.2727-.2751.3646-.6579.6496-1.1485.8551-.4905.2055-1.054.3082-1.6903.3082-.9347 0-1.687-.1955-2.2571-.5866-.5701-.3944-.9098-.943-1.0192-1.6456l1.755-.169c.0795.3447.2486.6048.5071.7805.2585.1757.5949.2635 1.0092.2635.4276 0 .7706-.0878 1.0291-.2635.2619-.1757.3928-.3928.3928-.6513 0-.2187-.0845-.3994-.2536-.5419-.1657-.1425-.4242-.2519-.7755-.3281l-1.3026-.2735c-.7325-.1524-1.2744-.4093-1.6257-.7705-.3513-.3646-.5253-.8253-.522-1.3822-.0033-.4706.1243-.8783.3828-1.223.2618-.348.6248-.6164 1.0888-.8054.4673-.1922 1.0059-.2883 1.6157-.2883.8949 0 1.5992.1906 2.113.5717.517.3812.8368.8966.9595 1.5462ZM74.8834 40.8229c-.7657 0-1.4269-.1591-1.9837-.4772-.5535-.3215-.9794-.7756-1.2777-1.3623-.2983-.5899-.4474-1.2843-.4474-2.0831 0-.7855.1491-1.4749.4474-2.0681.3016-.5966.7225-1.0606 1.2628-1.3921.5402-.3347 1.1749-.5021 1.9041-.5021.4707 0 .9148.0762 1.3324.2287.4209.1491.7921.3811 1.1136.696.3248.3149.58.7159.7657 1.2031.1856.4839.2784 1.0606.2784 1.7301v.5519h-6.2593v-1.2131h4.5341c-.0033-.3447-.0779-.6513-.2237-.9197-.1458-.2718-.3497-.4856-.6115-.6414-.2585-.1557-.5601-.2336-.9048-.2336-.3679 0-.6911.0895-.9695.2684-.2784.1757-.4955.4077-.6513.6961-.1524.285-.2303.5982-.2336.9396v1.0589c0 .4442.0812.8253.2436 1.1435.1624.3149.3894.5568.6811.7259.2916.1657.633.2485 1.0241.2485.2619 0 .4988-.0364.711-.1093.2121-.0763.396-.1873.5518-.3331.1558-.1459.2734-.3265.353-.5419l1.6804.1889c-.1061.4441-.3082.8319-.6065 1.1633-.295.3282-.6729.5834-1.1336.7657-.4607.1789-.9877.2684-1.5809.2684ZM63 32.0384v-1.5462h8.1236v1.5462h-3.147v8.6356H66.147v-8.6356H63ZM127.588 23.8229c-.765 0-1.426-.1591-1.983-.4772-.554-.3215-.98-.7756-1.278-1.3623-.298-.5899-.447-1.2843-.447-2.0831 0-.7855.149-1.4749.447-2.0681.302-.5966.723-1.0606 1.263-1.3921.54-.3347 1.175-.5021 1.904-.5021.471 0 .915.0762 1.332.2287.421.1491.793.3811 1.114.696.325.3149.58.7159.766 1.2031.185.4839.278 1.0606.278 1.7301v.5519h-6.259v-1.2131h4.534c-.003-.3447-.078-.6513-.224-.9197-.146-.2718-.349-.4856-.611-.6414-.259-.1557-.56-.2336-.905-.2336-.368 0-.691.0895-.97.2684-.278.1757-.495.4077-.651.6961-.152.285-.23.5982-.234.9396v1.0589c0 .4442.082.8253.244 1.1435.162.3149.389.5568.681.7259.292.1657.633.2485 1.024.2485.262 0 .499-.0364.711-.1093.212-.0763.396-.1873.552-.3331.156-.1459.274-.3265.353-.5419l1.68.1889c-.106.4441-.308.8319-.606 1.1633-.295.3282-.673.5834-1.134.7657-.46.1789-.987.2684-1.581.2684ZM119.459 23.8229c-.763 0-1.417-.1673-1.964-.5021-.544-.3348-.963-.7971-1.258-1.3871-.292-.5932-.437-1.276-.437-2.0483 0-.7755.149-1.46.447-2.0532.298-.5966.719-1.0606 1.263-1.3921.547-.3347 1.193-.5021 1.939-.5021.619 0 1.168.1143 1.645.343.481.2254.864.5452 1.149.9595.285.411.447.8916.487 1.4418h-1.72c-.07-.3679-.236-.6745-.497-.9197-.259-.2486-.605-.3729-1.039-.3729-.368 0-.691.0994-.97.2983-.278.1955-.495.4773-.651.8452-.153.3679-.229.8087-.229 1.3224 0 .5204.076.9678.229 1.3423.152.3712.366.6579.641.8601.279.1989.605.2983.98.2983.265 0 .502-.0497.711-.1491.212-.1028.389-.2503.531-.4425.143-.1922.241-.4259.294-.701h1.72c-.043.5402-.202 1.0192-.477 1.4368-.275.4143-.65.7391-1.124.9744-.474.232-1.031.348-1.67.348ZM109.396 19.1994v4.4744h-1.8v-7.6364h1.721v1.2976h.089c.176-.4276.456-.7673.84-1.0192.388-.2519.867-.3778 1.437-.3778.527 0 .986.1127 1.377.3381.395.2253.7.5518.915.9794.219.4275.326.9462.323 1.5561v4.8622h-1.8V19.09c0-.5104-.132-.9098-.397-1.1982-.262-.2883-.625-.4325-1.089-.4325-.315 0-.595.0696-.84.2088-.242.1359-.433.3331-.572.5916-.136.2585-.204.5718-.204.9397ZM102.678 23.8229c-.765 0-1.427-.1591-1.983-.4772-.554-.3215-.9798-.7756-1.2781-1.3623-.2983-.5899-.4474-1.2843-.4474-2.0831 0-.7855.1491-1.4749.4474-2.0681.3016-.5966.7221-1.0606 1.2631-1.3921.54-.3347 1.175-.5021 1.904-.5021.47 0 .915.0762 1.332.2287.421.1491.792.3811 1.114.696.325.3149.58.7159.765 1.2031.186.4839.279 1.0606.279 1.7301v.5519h-6.2593v-1.2131h4.5343c-.004-.3447-.078-.6513-.224-.9197-.146-.2718-.35-.4856-.611-.6414-.259-.1557-.561-.2336-.905-.2336-.368 0-.691.0895-.97.2684-.278.1757-.495.4077-.651.6961-.153.285-.23.5982-.234.9396v1.0589c0 .4442.081.8253.244 1.1435.162.3149.389.5568.681.7259.292.1657.633.2485 1.024.2485.262 0 .499-.0364.711-.1093.212-.0763.396-.1873.552-.3331.156-.1459.273-.3265.353-.5419l1.68.1889c-.106.4441-.308.8319-.606 1.1633-.295.3282-.673.5834-1.134.7657-.46.1789-.987.2684-1.581.2684ZM95.6473 23.674v-7.6364h1.7997v7.6364h-1.7997Zm.9048-8.7202c-.285 0-.5303-.0944-.7358-.2833-.2055-.1923-.3082-.4226-.3082-.6911 0-.2718.1027-.5021.3082-.691.2055-.1923.4508-.2884.7358-.2884.2883 0 .5336.0961.7358.2884.2055.1889.3082.4192.3082.691 0 .2685-.1027.4988-.3082.6911-.2022.1889-.4475.2833-.7358.2833ZM93.7965 13.4922V23.674h-1.7997V13.4922h1.7997ZM88.3465 23.674v-7.6364h1.7997v7.6364h-1.7997Zm.9048-8.7202c-.285 0-.5303-.0944-.7358-.2833-.2055-.1923-.3082-.4226-.3082-.6911 0-.2718.1027-.5021.3082-.691.2055-.1923.4508-.2884.7358-.2884.2884 0 .5336.0961.7358.2884.2055.1889.3082.4192.3082.691 0 .2685-.1027.4988-.3082.6911-.2022.1889-.4474.2833-.7358.2833ZM86.6984 18.0559l-1.6406.179c-.0464-.1658-.1276-.3215-.2436-.4674-.1127-.1458-.2652-.2635-.4574-.3529-.1922-.0895-.4276-.1343-.706-.1343-.3745 0-.6894.0812-.9446.2436-.2519.1624-.3762.3729-.3728.6314-.0034.2221.0778.4027.2436.5419.169.1392.4474.2536.8352.3431l1.3025.2784c.7226.1557 1.2595.4027 1.6108.7407.3547.3381.5337.7806.537 1.3275-.0033.4805-.1442.9048-.4226 1.2727-.2751.3646-.6579.6496-1.1485.8551-.4905.2055-1.0539.3082-1.6903.3082-.9347 0-1.687-.1955-2.2571-.5866-.5701-.3944-.9098-.943-1.0192-1.6456l1.755-.169c.0795.3447.2486.6048.5071.7805.2585.1757.5949.2635 1.0092.2635.4276 0 .7706-.0878 1.0292-.2635.2618-.1757.3927-.3928.3927-.6513 0-.2187-.0845-.3994-.2535-.5419-.1658-.1425-.4243-.2519-.7756-.3281l-1.3026-.2735c-.7324-.1524-1.2743-.4093-1.6257-.7705-.3513-.3646-.5253-.8253-.522-1.3822-.0033-.4706.1243-.8783.3828-1.223.2619-.348.6248-.6164 1.0888-.8054.4673-.1922 1.0059-.2883 1.6158-.2883.8949 0 1.5992.1906 2.1129.5717.517.3812.8369.8966.9595 1.5462ZM75.7447 23.8229c-.7656 0-1.4269-.1591-1.9837-.4772-.5535-.3215-.9794-.7756-1.2777-1.3623-.2983-.5899-.4474-1.2843-.4474-2.0831 0-.7855.1491-1.4749.4474-2.0681.3016-.5966.7226-1.0606 1.2628-1.3921.5403-.3347 1.175-.5021 1.9041-.5021.4707 0 .9148.0762 1.3324.2287.421.1491.7922.3811 1.1137.696.3248.3149.58.7159.7656 1.2031.1856.4839.2784 1.0606.2784 1.7301v.5519h-6.2592v-1.2131h4.534c-.0033-.3447-.0778-.6513-.2237-.9197-.1458-.2718-.3496-.4856-.6115-.6414-.2585-.1557-.5601-.2336-.9048-.2336-.3679 0-.6911.0895-.9695.2684-.2784.1757-.4955.4077-.6512.6961-.1525.285-.2304.5982-.2337.9396v1.0589c0 .4442.0812.8253.2436 1.1435.1624.3149.3894.5568.6811.7259.2917.1657.6331.2485 1.0242.2485.2618 0 .4988-.0364.7109-.1093.2121-.0763.3961-.1873.5518-.3331.1558-.1459.2735-.3265.353-.5419l1.6804.1889c-.106.4441-.3082.8319-.6065 1.1633-.295.3282-.6728.5834-1.1335.7657-.4607.1789-.9877.2684-1.581.2684ZM63.4475 23.674V13.4922h3.8182c.7822 0 1.4384.1359 1.9687.4077.5337.2717.9364.6529 1.2081 1.1434.2751.4872.4127 1.0557.4127 1.7053 0 .6529-.1392 1.2197-.4176 1.7003-.2751.4772-.6811.8468-1.2181 1.1086-.5369.2586-1.1965.3878-1.9787.3878h-2.7194v-1.5312h2.4709c.4573 0 .8319-.063 1.1235-.189.2917-.1292.5071-.3165.6463-.5617.1426-.2486.2138-.5536.2138-.9148 0-.3613-.0712-.6695-.2138-.9247-.1425-.2586-.3596-.4541-.6512-.5867-.2917-.1359-.6679-.2038-1.1286-.2038H65.292v8.6406h-1.8445Zm5.26-4.6136 2.5205 4.6136h-2.0582l-2.4758-4.6136h2.0135Z"/><path fill="url(#a)" fill-rule="evenodd" d="M45.2026 24.645c.5092.5092 1.3348.5092 1.8441 0 .5092-.5093.5092-1.3349 0-1.8441l-6.718-6.7181 8.1342-4.6963c1.9023-1.0982 4.2801.2746 4.2801 2.4712V28.21l-9.8328 2.3523c-.7004.1676-1.1323.8712-.9648 1.5716.1676.7004.8712 1.1324 1.5716.9648l9.226-2.2072v10.7208c0 2.1965-2.3778 3.5694-4.2801 2.4711L37.146 37.5496l1.5835-11.4366c.0988-.7134-.3995-1.3718-1.1128-1.4705-.7134-.0988-1.3718.3994-1.4705 1.1128L34.708 36.142l-10.2813-5.9359c-1.9023-1.0983-1.9023-3.844 0-4.9423l13.5637-7.831 7.2122 7.2122Z" clip-rule="evenodd"/><defs><linearGradient id="a" x1="34.6055" x2="52.7309" y1="16.216" y2="44.3821" gradientUnits="userSpaceOnUse"><stop stop-color="#FF61A2"/><stop offset="1" stop-color="#D8005A"/></linearGradient></defs></svg>