<svg xmlns="http://www.w3.org/2000/svg" xmlns:xlink="http://www.w3.org/1999/xlink" viewBox="0 0 16 16"><defs><path id="a" d="M7.2 10.6V5.4L10.6 8l-3.4 2.6zm4.4-3.3L7.4 4.1c-.3-.2-.6-.2-.9-.1-.3.2-.5.5-.5.8v6.4c0 .3.2.6.5.8.3.1.6.1.9-.1l4.2-3.2c.2-.2.3-.4.3-.7s-.1-.5-.3-.7zm1.1 5.4c-2.2 2.2-5.7 2.6-8.4.8s-3.6-5.1-2.4-8c1.2-2.9 4.3-4.6 7.4-4 3.1.6 5.3 3.3 5.3 6.5.1 1.8-.6 3.4-1.9 4.7zm2.7-7.8C13.8 1.1 9.6-.9 5.7.4 1.7 1.6-.7 5.6.2 9.6s4.5 6.8 8.6 6.4c4.1-.4 7.2-3.8 7.2-8 0-1.1-.2-2.1-.6-3.1z"/></defs><clipPath id="b"><use xlink:href="#a" overflow="visible"/></clipPath><path clip-path="url(#b)" fill="#54b610" d="M-5-5h26v26H-5z"/></svg>