<svg viewBox="0 0 16 16" xmlns="http://www.w3.org/2000/svg" xmlns:xlink="http://www.w3.org/1999/xlink"><clipPath id="a"><path d="m7.2 10.6v-5.2l3.4 2.6zm4.4-3.3-4.2-3.2c-.3-.2-.6-.2-.9-.1-.3.2-.5.5-.5.8v6.4c0 .3.2.6.5.8.3.1.6.1.9-.1l4.2-3.2c.2-.2.3-.4.3-.7s-.1-.5-.3-.7zm1.1 5.4c-2.2 2.2-5.7 2.6-8.4.8s-3.6-5.1-2.4-8 4.3-4.6 7.4-4 5.3 3.3 5.3 6.5c.1 1.8-.6 3.4-1.9 4.7zm2.7-7.8c-1.6-3.8-5.8-5.8-9.7-4.5-4 1.2-6.4 5.2-5.5 9.2s4.5 6.8 8.6 6.4 7.2-3.8 7.2-8c0-1.1-.2-2.1-.6-3.1z"/></clipPath><path clip-path="url(#a)" d="m-5-5h26v26h-26z" fill="#54b610"/></svg>