<svg viewBox="0 0 33 32" fill="none" xmlns="http://www.w3.org/2000/svg"><g clip-path="url(#a)"><path d="m20.67 30.852 2.532-4.665-2.532-5.04-.643.319v9.068l.643.319zm6.15-7.365-4.198-.705.948-1.335 4.241 1.884-.992.156zm.05 5.008-4.978.817 1.042 1.434 4.877-2.108-.942-.143z" fill="#9D5125"/><path d="M22.167 21.49v9.013l-1.497.35v-9.705l1.497.343z" fill="#F58534"/><path d="m22.167 31.6-.786-.392V20.792l.786-.393 1.478 6.23-1.478 4.972zm5.644-8.27-.998.157v4.995l.998.156.91-2.538-.91-2.77z" fill="#9D5125"/><path d="M23.695 20.836V31.17l-1.528.43V20.399l1.528.437z" fill="#F58534"/><path d="M28.853 29.711v-1.266l-6.686 1.241v1.915l6.686-1.89zm.012-7.41v1.23l-6.698-1.273v-1.859l6.698 1.902z" fill="#F58534"/><path d="M27.811 30.004v-8.002l1.073.293v7.416l-1.073.293z" fill="#F58534"/><path d="m31.042 22.744.986 2.277-2.876.137-1.016-.069 2.906-2.345z" fill="#6B3B19"/><path d="M28.136 23.218v1.872l2.906-.169v-2.177l-2.906.474z" fill="#9D5125"/><path d="m26.788 24.996-1.39-.094 2.95-2.969 1.496 2.87-3.056.193z" fill="#6B3B19"/><path d="M25.398 22.62v2.282l2.95-.25v-2.719l-2.95.686zm2.738 6.205v-1.87l3.891.062-.985 2.276-2.907-.468z" fill="#9D5125"/><path d="M25.398 29.418v-2.283l4.446.1-1.496 2.869-2.95-.686z" fill="#9D5125"/><path d="m26.788 27.042-1.39.093 2.95.25 1.496-.15-3.056-.193zm4.254.074.985-.1-2.875-.13-1.017.068 2.907.162z" fill="#FCBF92"/><path d="M31.042 22.744v2.177l.986.1v-1.984l-.986-.293zm-1.198-.362v2.42l-1.496-.15v-2.719l1.497.45zm1.198 6.911v-2.177l.986-.1V29l-.986.293zm-1.198.362v-2.42l-1.496.15v2.719l1.497-.45z" fill="#F58534"/></g><path d="M17.098 28.464H6a.5.5 0 0 1-.5-.5v-22a.5.5 0 0 1 .5-.5h4.5m16 13.563V5.965a.5.5 0 0 0-.5-.5h-4.5m0 0v-1.5a.5.5 0 0 0-.5-.5H11a.5.5 0 0 0-.5.5v1.5m11 0v1.5a.5.5 0 0 1-.5.5H11a.5.5 0 0 1-.5-.5v-1.5m4.684 6.48h8m-8 5.02h8m-8 5.037h2.528m-9.379-.358.991.991a.5.5 0 0 0 .708 0L12.667 20m-4.334-3.307.991.991a.5.5 0 0 0 .708 0l2.635-2.635m-4.334-2.99.991.99a.5.5 0 0 0 .708 0l2.635-2.635" stroke="#4F5162" stroke-linecap="round"/><defs><clipPath id="a"><path fill="#fff" transform="translate(20.027 20)" d="M0 0h12v12H0z"/></clipPath></defs></svg>