<svg xmlns="http://www.w3.org/2000/svg" fill="none" viewBox="0 0 20 20"><path fill="currentColor" fill-rule="evenodd" d="M6.25 2.478c0-.346.28-.625.625-.625h6.25c.345 0 .625.28.625.625v.625h2.5c.344 0 .625.279.625.625v13.75c0 .345-.28.624-.625.624H3.75a.625.625 0 0 1-.625-.625V3.727c0-.345.28-.624.625-.624h2.5zm0 1.25h-2.5v13.75h12.5V3.727h-2.5v.625c0 .345-.28.625-.625.625h-6.25a.625.625 0 0 1-.625-.625zm6.875-1.25h-6.25v1.875h6.25zm-4.987 3.81a.31.31 0 0 1 0 .442L6.49 8.377a.625.625 0 0 1-.884 0l-.62-.62a.313.313 0 0 1 .442-.442l.62.62 1.647-1.647a.31.31 0 0 1 .442 0m1.04 1.177c0-.172.14-.312.312-.312h5a.312.312 0 1 1 0 .625h-5a.31.31 0 0 1-.313-.313m-1.04 1.72a.31.31 0 0 1 0 .441L6.49 11.274a.625.625 0 0 1-.884 0l-.62-.62a.312.312 0 1 1 .442-.442l.62.62 1.647-1.647a.31.31 0 0 1 .442 0m1.04 1.417c0-.172.14-.312.312-.312h5a.313.313 0 0 1 0 .625h-5a.31.31 0 0 1-.313-.312m-1.04 1.677a.31.31 0 0 1 0 .442L6.49 14.368a.625.625 0 0 1-.884 0l-.62-.62a.312.312 0 1 1 .442-.442l.62.62 1.647-1.647a.31.31 0 0 1 .442 0m1.04 1.472c0-.172.14-.312.312-.312h5a.312.312 0 1 1 0 .625h-5a.31.31 0 0 1-.313-.313" clip-rule="evenodd"/></svg>