<svg viewBox="0 0 40 41" xmlns="http://www.w3.org/2000/svg"><path clip-rule="evenodd" d="m4 7.75501c-.55229 0-1 .44772-1 1v24.99999c0 .5523.44771 1 1 1h32c.5523 0 1-.4477 1-1v-24.99999c0-.55228-.4477-1-1-1zm0 3.77049v-2.77049h32v2.77049zm0 1h32v21.2295h-32zm6.7546 3.2992c-.2377-.1406-.5443-.0619-.6849.1758-.14056.2376-.0618.5443.1758.6849l7.6449 4.5217-7.6436 4.4912c-.2381.1399-.3177.4464-.1778.6844.1399.2381.4463.3177.6844.1778l7.6436-4.4912c.6568-.3859.6581-1.3351.0025-1.7229zm11.1395 9.9303c-.2761 0-.5.2239-.5.5 0 .2762.2239.5.5.5h7.606c.2761 0 .5-.2238.5-.5 0-.2761-.2239-.5-.5-.5z" fill="#4f5162" fill-rule="evenodd"/></svg>