<svg xmlns="http://www.w3.org/2000/svg" fill="currenColor" viewBox="0 0 20 20"><path fill="#0B0B0D" fill-rule="evenodd" d="M3.616 3.718a.59.59 0 0 0-.58.598v10.763c0 .33.26.598.58.598h12.766a.59.59 0 0 0 .58-.598V7.305c0-.33.26-.598.58-.598.32 0 .58.268.58.598v7.774c0 .99-.779 1.794-1.74 1.794H3.616c-.962 0-1.741-.803-1.741-1.794V4.316c0-.991.78-1.794 1.74-1.794H13.77c.32 0 .58.267.58.598a.59.59 0 0 1-.58.598H3.616Zm2.426 3.245a.57.57 0 0 1 .808-.147l2.731 1.97a.76.76 0 0 1 0 1.225L6.85 11.98a.57.57 0 0 1-.808-.147.61.61 0 0 1 .142-.833l2.223-1.603-2.223-1.603a.61.61 0 0 1-.142-.832Zm5.117 3.93a.59.59 0 0 0-.58.598c0 .33.26.598.58.598h2.901a.59.59 0 0 0 .58-.598.59.59 0 0 0-.58-.598H11.16Z" clip-rule="evenodd"/></svg>