<svg width="24" height="25" viewBox="0 0 24 25" fill="none" xmlns="http://www.w3.org/2000/svg">
<g clip-path="url(#clip0_2777_319498)">
<path d="M3.94719 4.57031L2.40039 5.36882V19.3833L3.94719 20.1771L3.95649 20.1656V4.58131L3.94719 4.57031Z" fill="#8C3123"/>
<path d="M12.2255 18.143L3.94727 20.1771V4.57031L12.2255 6.56007V18.143Z" fill="#E05243"/>
<path d="M8.48828 14.9584L11.9996 15.4199L12.0217 15.3674L12.0414 9.42389L11.9996 9.37744L8.48828 9.8322V14.9584Z" fill="#8C3123"/>
<path d="M12 18.1658L20.0528 20.1815L20.0655 20.1606L20.0653 4.58425L20.0525 4.57031L12 6.58291V18.1658Z" fill="#8C3123"/>
<path d="M15.5123 14.9584L12 15.4199V9.37744L15.5123 9.8322V14.9584Z" fill="#E05243"/>
<path d="M15.512 7.35315L11.9996 8.01392L8.48828 7.35315L11.9952 6.4043L15.512 7.35315Z" fill="#5E1F18"/>
<path d="M15.512 17.431L11.9996 16.7659L8.48828 17.431L11.9954 18.4415L15.512 17.431Z" fill="#F2B0A9"/>
<path d="M8.48828 7.35324L11.9996 6.45626L12.0281 6.4472V0.438295L11.9996 0.414062L8.48828 2.22668V7.35324Z" fill="#8C3123"/>
<path d="M15.5123 7.35324L12 6.45626V0.414062L15.5123 2.22668V7.35324Z" fill="#E05243"/>
<path d="M12 24.3699L8.48828 22.5579V17.4314L12 18.3281L12.0517 18.3887L12.0377 24.2653L12 24.3699Z" fill="#8C3123"/>
<path d="M12 24.3699L15.512 22.5579V17.4314L12 18.3281V24.3699Z" fill="#E05243"/>
<path d="M20.0527 4.57031L21.6002 5.36882V19.3833L20.0527 20.1815V4.57031Z" fill="#E05243"/>
</g>
<defs>
<clipPath id="clip0_2777_319498">
<rect width="24" height="24" fill="white" transform="translate(0 0.414062)"/>
</clipPath>
</defs>
</svg>
