<svg fill="none" viewBox="0 0 28 28" xmlns="http://www.w3.org/2000/svg"><path d="m4.302 4.85-1.863.93v16.35l1.863.927.01-.013v-18.182l-.01-.013z" fill="#3dc7f6"/><path d="m14.271 20.684-9.97 2.373v-18.208l9.97 2.321z" fill="#fafcff"/><path d="m9.771 16.968 4.229.539.026-.061.024-6.934-.05-.055-4.229.53z" fill="#3dc7f6"/><path d="m14 20.71 9.698 2.352.015-.024v-18.173l-.016-.016-9.697 2.348v13.514" fill="#3dc7f6"/><path d="m18.23 16.968-4.23.539v-7.05l4.23.53z" fill="#fafcff"/><path d="m18.23 8.096-4.23.77-4.229-.77 4.223-1.107z" fill="#3dc7f6"/><path d="m18.23 19.853-4.23-.776-4.229.776 4.224 1.179z" fill="#cdf4fe"/><path d="m9.771 8.096 4.229-1.047.034-.01v-7.01l-.034-.029-4.23 2.115v5.98z" fill="#3dc7f6"/><path d="m18.23 8.096-4.23-1.047v-7.049l4.23 2.115v5.98z" fill="#fafcff"/><path d="m14 27.948-4.23-2.114v-5.98l4.23 1.046.062.07-.017 6.856z" fill="#3dc7f6"/><path d="m14 27.948 4.229-2.114v-5.98l-4.23 1.046v7.048zm9.697-23.098 1.863.932v16.35l-1.863.931z" fill="#fafcff"/></svg>