<svg viewBox="0 0 24 24" fill="none" xmlns="http://www.w3.org/2000/svg">
<path d="M11.9997 17.6476L20.1304 19.6191L20.1432 19.5988L20.143 4.36318L20.1301 4.34955L11.9997 6.31811V17.6476Z" fill="#D9DAE6"/>
<path d="M15.546 16.9288L11.9997 16.2782L8.45435 16.9288L11.9953 17.9172L15.546 16.9288Z" fill="#F3F3FA"/>
<path fill-rule="evenodd" clip-rule="evenodd" d="M15.546 7.0715L11.9997 6.19414V0.284149L15.546 2.05711V7.0715ZM3.8689 19.6149L12.2272 17.6253V14.9329L15.546 14.5105V9.49639L12.2272 9.08012V6.29577L3.8689 4.34955V19.6149ZM15.5457 21.9434L11.9997 23.7157V17.8061L15.5457 16.9291V21.9434ZM21.6929 5.13058L20.1304 4.34955V19.6191L21.6929 18.8384V5.13058Z" fill="white"/>
<path fill-rule="evenodd" clip-rule="evenodd" d="M8.45435 7.0715L11.9997 6.19414L12.0284 6.18528V0.307851L11.9997 0.284149L8.45435 2.05711V7.0715ZM2.30713 5.13058L3.86889 4.34955L3.87828 4.3603V19.6036L3.86889 19.6149L2.30713 18.8384V5.13058ZM11.9997 14.9618L8.45435 14.5105V9.49639L11.9997 9.05158L12.0418 9.09702L12.0219 14.9105L11.9997 14.9618ZM8.45399 21.9435L11.9997 23.7158L12.0377 23.6135L12.0519 17.8655L11.9997 17.8062L8.45399 16.9291V21.9435Z" fill="#D9DAE6"/>
<path d="M15.546 7.07149L11.9997 7.71781L8.45435 7.07149L11.9952 6.1434L15.546 7.07149Z" fill="#B0B1C4"/>
</svg>
