<svg width="33" height="32" viewBox="0 0 33 32" fill="none" xmlns="http://www.w3.org/2000/svg">
<path d="M16.0276 23.5302L26.8685 26.1589L26.8856 26.1317L26.8853 5.81761L26.8681 5.79944L16.0276 8.42418V23.5302Z" fill="#D9DAE6"/>
<path d="M20.756 22.5717L16.0276 21.7043L11.3005 22.5717L16.0219 23.8896L20.756 22.5717Z" fill="#F3F3FA"/>
<path fill-rule="evenodd" clip-rule="evenodd" d="M20.756 9.42871L16.0276 8.2589V0.378906L20.756 2.74285V9.42871ZM5.18652 26.1532L16.3309 23.5004V19.9105L20.756 19.3473V12.6619L16.3309 12.1069V8.3944L5.18652 5.79944V26.1532ZM20.7556 29.2579L16.0276 31.621V23.7415L20.7556 22.5721V29.2579ZM28.9518 6.84082L26.8685 5.79944V26.1589L28.9518 25.1179V6.84082Z" fill="white"/>
<path fill-rule="evenodd" clip-rule="evenodd" d="M11.3005 9.42871L16.0276 8.2589L16.0659 8.24709V0.410509L16.0276 0.378906L11.3005 2.74285V9.42871ZM3.10425 6.84082L5.1866 5.79944L5.19912 5.81378V26.1382L5.1866 26.1532L3.10425 25.1179V6.84082ZM16.0276 19.9491L11.3005 19.3473V12.6619L16.0276 12.0688L16.0839 12.1294L16.0573 19.8807L16.0276 19.9491ZM11.3001 29.258L16.0277 31.6211L16.0783 31.4847L16.0972 23.8207L16.0277 23.7416L11.3001 22.5722V29.258Z" fill="#D9DAE6"/>
<path d="M20.756 9.42862L16.0276 10.2904L11.3005 9.42862L16.0217 8.19116L20.756 9.42862Z" fill="#B0B1C4"/>
</svg>
