<svg xmlns="http://www.w3.org/2000/svg" viewBox="0 0 12 12" fill="none"><g clip-path="url(#a)"><path fill="currentColor" d="M7.5 2.25h-3L3.39.584A.375.375 0 0 1 3.7 0h4.6c.3 0 .477.333.31.584L7.5 2.25ZM4.5 3h3c.09.059.19.124.305.197C9.134 4.047 12 5.88 12 9.75A2.25 2.25 0 0 1 9.75 12h-7.5A2.25 2.25 0 0 1 0 9.75c0-3.87 2.866-5.702 4.195-6.553.113-.073.216-.138.305-.197Zm1.969 2.063A.47.47 0 0 0 6 4.593a.47.47 0 0 0-.469.47v.328c-.178.04-.356.103-.52.199-.326.194-.607.534-.605 1.029.003.476.282.776.58.954.257.154.578.253.834.328l.04.011c.295.09.51.16.656.251.12.075.136.127.138.192.002.118-.042.188-.138.247a.931.931 0 0 1-.502.11c-.26-.01-.504-.092-.823-.2a7.124 7.124 0 0 0-.168-.056.47.47 0 0 0-.298.889c.045.014.094.03.143.049.194.068.42.145.66.197v.347a.47.47 0 0 0 .938 0v-.324c.188-.04.375-.105.544-.21a1.19 1.19 0 0 0 .581-1.056c-.007-.475-.274-.782-.576-.975-.27-.168-.607-.271-.87-.351l-.016-.005c-.3-.091-.513-.157-.663-.246-.122-.073-.125-.115-.125-.157 0-.087.033-.152.146-.218a1.02 1.02 0 0 1 .504-.117c.225.002.473.051.73.122a.47.47 0 0 0 .242-.907 6.228 6.228 0 0 0-.494-.11v-.322Z"/></g><defs><clipPath id="a"><path fill="#fff" d="M0 0h12v12H0z"/></clipPath></defs></svg>