<svg xmlns="http://www.w3.org/2000/svg" fill="none" viewBox="0 0 24 24"><path fill="currentColor" d="M13.183 15.604a7.6 7.6 0 0 0-1.15-.362v-2.264a4.8 4.8 0 0 1 1.364.263q.112.044.183.044.21 0 .34-.154a.5.5 0 0 0 .124-.332.456.456 0 0 0-.321-.462 5.5 5.5 0 0 0-1.692-.332v-.629a.371.371 0 0 0-.636-.266.37.37 0 0 0-.103.266v.642c-.453.046-.85.164-1.178.354a2.1 2.1 0 0 0-.78.756 1.96 1.96 0 0 0-.264.995q.001.614.323 1.019.32.397.797.615.452.205 1.102.381v2.186a4.6 4.6 0 0 1-1.602-.39.5.5 0 0 0-.216-.047.45.45 0 0 0-.342.146.49.49 0 0 0-.04.623q.09.131.228.188c.609.261 1.272.42 1.972.472v.651q0 .169.106.269a.36.36 0 0 0 .258.097q.166 0 .27-.104a.36.36 0 0 0 .105-.262v-.65c.44-.032.835-.132 1.174-.297.358-.175.638-.414.833-.709q.294-.447.295-1c0-.447-.111-.813-.333-1.087a2.06 2.06 0 0 0-.817-.62m.123 1.644c0 .644-.417.995-1.274 1.072v-1.997q.627.178.953.375c.217.133.32.313.32.55m-3.196-3.197c0-.288.11-.517.334-.695.213-.17.5-.285.851-.341v2.043c-.381-.107-.678-.235-.879-.38-.207-.147-.306-.353-.306-.627"/><path stroke="currentColor" stroke-width=".75" d="M14.396 8.43c2.68 1.629 4.824 3.8 5.36 7.057.537 2.17.537 6.513-3.752 6.513H7.426c-1.787-.18-5.146-1.52-4.288-5.428C4.21 11.687 7.427 8.973 9.035 8.43m5.36 0 .001-1.088C15.29 6.076 16.47 2.992 13.86 3c-2.68.008-3.633.005-4.289 0-1.072 0-2.68.87-.536 4.342 0 0 .24.583.347.995m5.014.093c-1.148-.166-3.62-.393-5.014-.093m-.347.093c1.148-.204.446.289.347-.093m-.347.093q.16-.053.347-.093"/><rect width="7" height="2" x="8" y="7" fill="currentColor" rx="1"/></svg>