<svg xmlns="http://www.w3.org/2000/svg" viewBox="0 0 268 270"><g fill="#00A1E0"><path d="M54 3.3c-27.6 9.4-43 39.6-33.6 65.6 1.5 4.2 1.5 4.6-.1 5.5-37.1 20.7-20.5 81 22.7 82.4 10.6.4 10.6.4 13.5 6.1 16.8 31.9 67.2 32.5 83.5.8 2-3.9 2.9-4.7 4.5-4.2 9.7 3.1 12.6 3.6 19 3.2 12.3-.9 23.1-6.5 30.6-15.9 4-5 4-5 14.2-4.9 52.6.9 78.6-63.3 40.3-99.7-15.5-14.7-37.7-20-56.7-13.5-5.6 1.9-5.6 1.9-10-3.6-16.8-21-46-24.5-66.6-8-4.3 3.5-4.3 3.5-10.1-2.1C91.6 2.1 71.1-2.6 54 3.3m36 80.3c0 17.5 0 17.5-2.2 17.2-3.8-.5-4.1-34.8-.3-34.8C90 66 90 66 90 83.6m68.8-15.4c-.2 1.6-1 2.2-3.1 2.3-4.7.1-6.7 5.5-2.1 5.5 3.7 0 3 4.4-.8 4.8-2.9.3-3 .6-5.8 17.2-1.9 10.5-8.9 17.5-13.2 13.2-1.7-1.7-.1-4.2 2.6-4.2 3.3 0 4.1-1.7 6.1-12.6.9-4.9 1.9-9.9 2.2-11.2.4-1.7.1-2.2-1.6-2.2-1.2 0-2.1-.4-2.1-.9 0-2.3 1.4-4.1 3-4.1 1.2 0 2.1-1 2.5-3 1.3-5.9 13.2-10.6 12.3-4.8M54.5 77.4c3.4 2.5 1.3 4.5-3.4 3.3-8.5-2.3-9.4 3-1.1 5.8 7.4 2.5 9.5 8.4 4.4 12.4-4.5 3.5-15.4 2.2-15.4-1.9 0-2.6.9-2.9 4-1.3 4.2 2 8.4 1.4 8.8-1.4.3-1.7-.5-2.4-4.7-3.8-8-2.6-10.2-7.5-5.6-12 2.8-2.9 9.8-3.5 13-1.1m23 1.1c9 8.9 2 24.1-10.3 22.2C56 98.9 58.3 86.4 70 85.2c5.4-.5 6.6-2.3 2.9-4.3-2-1-5.4-.8-9 .6-1.1.4-1.8-.1-2.2-1.5-1.2-4.5 11.6-5.7 15.8-1.5m33.4-1c2.9 1.5 5.1 5.8 5.1 10.1 0 2.3-.3 2.4-8 2.4-8.5 0-9.4.7-6.6 4.6 1.2 1.5 2.6 1.9 7 1.8 4.1-.1 5.6.2 6.1 1.4 2 5.4-14.5 3.9-18.1-1.6-6.9-10.6 3.7-24.3 14.5-18.7m23.5-.6c1.8.8 2.3 1.5 1.9 3.1-.4 1.4-1.1 1.9-2.2 1.5-3.7-1.5-7.2-1.7-8.5-.6-2.2 1.8-.9 3.9 3.2 5.2 8.5 2.6 11.1 8.2 6 12.9-3.3 3-15.8 2.2-15.8-1.1 0-3 1.1-3.7 4.1-2.2 4.1 2 8.3 1.4 8.7-1.4.3-1.7-.4-2.3-3.5-3.3-6.6-2.1-8.3-3.7-8.3-7.5 0-6.4 6.7-9.5 14.4-6.6m40.6 1.6c10.4 9.4-.6 27.4-12.9 21.1-7-3.7-7-18.2 0-22.3 3.1-1.8 10.4-1.1 12.9 1.2m12.5-1.5c.4.7 1.2.7 2.5 0 2.3-1.3 7-1.3 7-.1 0 2.6-1.5 4.1-4.1 4.1-3.9 0-4.9 2.4-4.9 11.4 0 7.4-.1 7.6-2.5 7.6-2.5 0-2.5 0-2.5-12 0-11.9 1.6-15.7 4.5-11m27.8-.4c3.3 1.2.7 4.2-3.2 3.7-5.5-.8-8.4 2-8.4 8.1s1.9 8.1 7.8 8c4.5-.1 7 2 4.3 3.8-4.6 2.9-14.2-.5-16.4-5.7-4.7-11.2 5-22.1 15.9-17.9m19.6.9c2.9 1.5 5.1 5.8 5.1 10.1 0 2.3-.3 2.4-8 2.4-8.5 0-9.4.7-6.6 4.6 1.2 1.5 2.6 1.9 7 1.8 4.1-.1 5.6.2 6.1 1.4 2 5.4-14.5 3.9-18.2-1.7-6.9-10.5 3.8-24.2 14.6-18.6"/><path d="M66.8 90.1c-4.2 2.4-1.3 6.9 4.4 6.9 3.8 0 3.8 0 3.8-4 0-4.3-3.7-5.6-8.2-2.9m34.9-8.3c-3 3.2-2.1 4.2 3.8 4.2s6.3-.4 3.9-3.8c-1.8-2.7-5.5-2.9-7.7-.4m62.3.2c-4.1 4.1-1.7 15 3.3 15 3.2 0 4.6-1.2 5.7-5 2.4-8.4-3.8-15.2-9-10m61.7-.2c-3 3.2-2.1 4.2 3.8 4.2s6.3-.4 3.9-3.8c-1.8-2.7-5.5-2.9-7.7-.4"/></g><path stroke="#00A1E0" stroke-linecap="round" stroke-linejoin="round" stroke-width="12" d="M134 195v55m0 0-28-28m28 28 28-28"/></svg>