<svg fill="none" viewBox="0 0 40 40" xmlns="http://www.w3.org/2000/svg"><g clip-rule="evenodd" fill-rule="evenodd"><path d="m36.7378 27.2088 3.0821 5.3602c.118.2073.1801.4418.1801.6803 0 .2386-.0621.473-.1801.6803l-3.0821 5.3602c-.1148.2083-.2818.3833-.4845.5078-.2028.1245-.4344.1942-.6721.2024h-6.1653c-.2378-.0093-.4691-.0799-.6716-.205-.2024-.125-.3691-.3003-.4839-.5087l-3.082-5.3907c-.1169-.2041-.1784-.4351-.1784-.6703s.0615-.4662.1784-.6703l3.0832-5.3462c.1158-.2056.2834-.3773.486-.4982.2027-.1209.4335-.1867.6695-.1908h6.1652c.236.004.4668.0697.6695.1906.2028.1209.3703.2927.486.4984zm-1.8131 4.4404h-4.8563c-.0378-.001-.0745.013-.1022.0389-.0276.0258-.0439.0615-.0455.0994v1.0078c0 .0376.015.0737.0416.1003.0266.0265.0626.0415.1002.0415h4.8622c.0375-.0003.0734-.0154.0999-.0419s.0416-.0624.0419-.0999v-1.0043c0-.0376-.015-.0737-.0416-.1003-.0265-.0266-.0626-.0415-.1002-.0415zm-.7512.9375c-.0575 0-.1137-.0171-.1615-.049s-.085-.0773-.107-.1304-.0278-.1116-.0165-.1679c.0112-.0564.0389-.1082.0795-.1488.0406-.0407.0924-.0684.1488-.0796s.1148-.0054.1679.0166.0985.0592.1304.107c.032.0478.049.104.049.1615 0 .077-.0306.151-.0851.2055s-.1284.0851-.2055.0851zm.7512.9984h-4.8563c-.0378-.0009-.0745.013-.1022.0389-.0276.0259-.0439.0616-.0455.0994v1.0137c.0018.0366.0175.0711.0438.0966s.0614.0399.098.0405h4.8622c.0375-.0003.0734-.0153.0999-.0419.0265-.0265.0416-.0624.0419-.0999v-1.0102c0-.0376-.015-.0736-.0416-.1002-.0265-.0266-.0626-.0416-.1002-.0416zm-.7512.9328c-.0575 0-.1137-.017-.1615-.0489-.0478-.032-.085-.0774-.107-.1305s-.0278-.1115-.0165-.1679c.0112-.0564.0389-.1081.0795-.1488.0406-.0406.0924-.0683.1488-.0795s.1148-.0055.1679.0165.0985.0593.1304.1071c.032.0478.049.1039.049.1614 0 .0382-.0075.076-.0221.1112-.0146.0353-.036.0673-.063.0943s-.059.0484-.0943.063c-.0352.0146-.073.0221-.1112.0221z" fill="#f6faff"/><path d="m29.9585 32.8916-.001.001.6926.6926h4.2747v-.0047c.0376 0 .0737.0149.1003.0415.0265.0266.0415.0627.0415.1003v1.0101c-.0003.0375-.0154.0734-.0419.1-.0265.0265-.0624.0415-.0999.0418h-4.8622c-.0223-.0003-.044-.0058-.0635-.0158l5.1381 5.1381h.4383c.2378-.0081.4694-.0779.6721-.2023.2028-.1245.3697-.2995.4846-.5078l2.148-3.736-3.8625-3.8684-.002.0002c.0032.0027.0064.0055.0094.0085.0265.0266.0415.0627.0415.1003v1.0043c-.0003.0375-.0154.0734-.0419.0999-.0265.0266-.0624.0416-.0999.0419h-4.8622c-.0376 0-.0736-.0149-.1002-.0415-.0013-.0013-.0026-.0027-.0039-.004zm4.2151-.3049c-.0575 0-.1137-.017-.1615-.049-.0477-.0319-.085-.0773-.107-.1304s-.0277-.1115-.0165-.1679.0389-.1082.0795-.1488c.0407-.0407.0924-.0683.1488-.0796.0564-.0112.1148-.0054.1679.0166s.0985.0592.1305.107c.0319.0478.0489.104.0489.1615 0 .0771-.0306.151-.0851.2055s-.1284.0851-.2055.0851zm0 1.9313c-.0575 0-.1137-.0171-.1615-.049-.0477-.0319-.085-.0773-.107-.1304s-.0277-.1116-.0165-.1679c.0112-.0564.0389-.1082.0795-.1489.0407-.0406.0924-.0683.1488-.0795s.1148-.0055.1679.0165.0985.0593.1305.1071c.0319.0478.0489.104.0489.1614 0 .0382-.0075.076-.0221.1113-.0146.0352-.036.0673-.063.0943-.027.0269-.059.0483-.0943.063-.0352.0146-.073.0221-.1112.0221z" fill="#d7dfed"/><path d="m20.4015 4.45083c-.0946-.12026-.2413-.19084-.397-.19094s-.3025.0703-.3972.19045l-3.1299 3.9703c-.1681.21318-.1266.5185.0926.68195s.5331.12313.7012-.09005l2.2329-2.83245v8.91821c0 .2687.2239.4864.5001.4864s.5001-.2177.5001-.4864v-8.91516l2.2241 2.8289c.1678.21339.4817.2541.7011.09093s.2613-.46844.0935-.68183zm-4.0215 8.60947c.2738-.0353.4664-.2797.4301-.546-.0362-.2663-.2876-.4537-.5614-.4184-2.0232.2605-3.7857.7289-5.0581 1.3482-.6357.3094-1.1718.6674-1.55481 1.0752-.3857.4106-.63579.8947-.63579 1.4358v13.213c0 .6988.41373 1.297 1.0048 1.7768.5938.4821 1.4232.8944 2.4042 1.2312 1.9664.6753 4.6503 1.0838 7.591 1.0838.7003 0 1.3852-.0232 2.0486-.0674.2756-.0184.4837-.2506.4648-.5186-.019-.268-.2577-.4703-.5332-.452-.6404.0428-1.3025.0652-1.9802.0652-2.8582 0-5.4242-.3986-7.258-1.0283-.9192-.3156-1.6275-.6801-2.0963-1.0607-.4716-.3829-.6455-.7332-.6455-1.03v-4.9372l.0046.0036c.5938.4821 1.4232.8945 2.4042 1.2313 1.9664.6752 4.6503 1.0837 7.591 1.0837 2.9408 0 5.6246-.4085 7.591-1.0837.981-.3368 1.8104-.7492 2.4042-1.2313l.0046-.0036v.3259c0 .2686.2239.4864.5001.4864s.5001-.2178.5001-.4864v-8.6017c0-1.0641-.9424-1.8938-2.1421-2.4872-1.2446-.6156-2.9695-1.0843-4.9527-1.3517-.2736-.0369-.5262.1489-.5641.415s.1531.5117.4267.5486c1.9182.2586 3.5249.7053 4.6367 1.2552 1.1566.5721 1.5953 1.1579 1.5953 1.6201 0 .2968-.1739.6471-.6455 1.03-.4688.3806-1.1771.7451-2.0963 1.0608-1.8337.6296-4.3998 1.0282-7.258 1.0282s-5.4242-.3986-7.258-1.0282c-.9192-.3157-1.6275-.6802-2.0963-1.0608-.4716-.3829-.6455-.7332-.6455-1.03 0-.2318.1041-.4923.3741-.7797.2726-.2902.6937-.5838 1.2639-.8613 1.1396-.5547 2.7841-1.0018 4.7418-1.2538zm-6.3798 9.3975v-4.7296l.0046.0037c.5938.4821 1.4232.8944 2.4042 1.2313 1.9664.6752 4.6503 1.0837 7.591 1.0837 2.9408 0 5.6246-.4085 7.591-1.0837.981-.3369 1.8104-.7492 2.4042-1.2313l.0046-.0037v4.7296c0 .2967-.1739.6471-.6455 1.0299-.4688.3806-1.1771.7452-2.0963 1.0608-1.8337.6297-4.3998 1.0283-7.258 1.0283s-5.4242-.3986-7.258-1.0283c-.9192-.3156-1.6275-.6802-2.0963-1.0608-.4716-.3828-.6455-.7332-.6455-1.0299zm2.5183-1.3165c0 .3342-.2786.6052-.6223.6052-.3436 0-.6222-.271-.6222-.6052s.2786-.6052.6222-.6052c.3437 0 .6223.271.6223.6052zm0 6.6869c0 .3343-.2786.6052-.6223.6052-.3436 0-.6222-.2709-.6222-.6052 0-.3342.2786-.6051.6222-.6051.3437 0 .6223.2709.6223.6051z" fill="#fff"/></g></svg>