<svg width="33" height="33" viewBox="0 0 33 33" fill="none" xmlns="http://www.w3.org/2000/svg">
<path d="M28.1003 29.49L23.8198 30.5089V22.6911L28.1003 23.6878V29.49Z" fill="#E05243"/>
<path fill-rule="evenodd" clip-rule="evenodd" d="M23.02 23.0911L23.8198 22.6911L23.8247 22.6966V30.5031L23.8198 30.5089L23.02 30.1112V23.0911ZM32.1479 30.5111L27.9839 29.5014V23.6992L32.1477 22.6911L32.1543 22.6981L32.1544 30.5006L32.1479 30.5111Z" fill="#8C3123"/>
<path d="M29.8 24.0851L27.9839 24.4161L26.1682 24.0851L27.9816 23.6098L29.8 24.0851Z" fill="#5E1F18"/>
<path d="M29.8 29.1332L27.9839 28.8001L26.1682 29.1332L27.9817 29.6395L29.8 29.1332Z" fill="#F2B0A9"/>
<path fill-rule="evenodd" clip-rule="evenodd" d="M26.1682 24.0851L27.9839 23.6357L27.9986 23.6312V20.6212L27.9839 20.6091L26.1682 21.5171V24.0851ZM26.1682 27.8948L27.9839 28.1259L27.9953 28.0996L28.0055 25.1224L27.9839 25.0991L26.1682 25.3269V27.8948ZM26.168 31.7014L27.9838 32.6091L28.0033 32.5567L28.0105 29.613L27.9838 29.5826L26.168 29.1335V31.7014Z" fill="#8C3123"/>
<path fill-rule="evenodd" clip-rule="evenodd" d="M29.8 24.0851L27.9839 23.6357V20.6091L29.8 21.5171V24.0851ZM29.8 27.8948L27.9839 28.1259V25.0991L29.8 25.3269V27.8948ZM29.7999 31.7014L27.9839 32.609V29.5826L29.7999 29.1334V31.7014ZM32.948 23.0911L32.1479 22.6911V30.5111L32.948 30.1112V23.0911Z" fill="#E05243"/>
<path d="M25.814 12.7818C25.814 14.4193 22.0541 15.7468 17.416 15.7468C12.778 15.7468 9.01807 14.4193 9.01807 12.7818M25.814 12.7818V19.8556M25.814 12.7818C25.814 11.5267 23.6049 10.4536 20.4845 10.021M9.01807 12.7818V23.6478C9.01807 25.2853 12.778 26.6128 17.416 26.6128C17.9671 26.6128 18.5057 26.594 19.0272 26.5582M9.01807 12.7818C9.01807 11.5105 11.2842 10.4261 14.4682 10.0047M25.814 18.1294C25.814 19.7669 22.0541 21.0944 17.416 21.0944C12.778 21.0944 9.01807 19.7669 9.01807 18.1294M19.916 6.82908L17.4194 3.56403M17.4194 3.56403L14.916 6.82908M17.4194 3.56403V7.82064V12.0772" stroke="#4F5162" stroke-linecap="round" stroke-linejoin="round"/>
<path fill-rule="evenodd" clip-rule="evenodd" d="M10.9342 17.5445C11.2091 17.5445 11.4319 17.3216 11.4319 17.0468C11.4319 16.7719 11.2091 16.5491 10.9342 16.5491C10.6593 16.5491 10.4365 16.7719 10.4365 17.0468C10.4365 17.3216 10.6593 17.5445 10.9342 17.5445ZM10.9342 23.0436C11.2091 23.0436 11.4319 22.8208 11.4319 22.5459C11.4319 22.2711 11.2091 22.0482 10.9342 22.0482C10.6593 22.0482 10.4365 22.2711 10.4365 22.5459C10.4365 22.8208 10.6593 23.0436 10.9342 23.0436Z" fill="#4F5162"/>
</svg>
