<svg fill="none" viewBox="0 0 40 40" xmlns="http://www.w3.org/2000/svg"><path d="m33.9405 36.1011-5.3507 1.2736v-9.7723l5.3507 1.2459z" fill="#e05243"/><path clip-rule="evenodd" d="m27.5898 28.1024.9998-.5.006.0069v9.7582l-.006.0072-.9998-.497zm11.4099 9.275-5.205-1.262v-7.2528l5.2048-1.2602.0082.0088.0001 9.7532z" fill="#8c3123" fill-rule="evenodd"/><path d="m36.0652 29.345-2.2702.4137-2.2696-.4137 2.2667-.5942z" fill="#5e1f18"/><path d="m36.0652 35.6552-2.2702-.4165-2.2696.4165 2.2668.6327z" fill="#f2b0a9"/><g clip-rule="evenodd" fill-rule="evenodd"><path d="m31.5252 29.3449 2.2696-.5616.0184-.0057v-3.7625l-.0184-.0152-2.2696 1.135zm0 4.7622 2.2696.2889.0142-.0329.0128-3.7215-.027-.0291-2.2696.2848zm-.0003 4.7583 2.2698 1.1346.0244-.0655.009-3.6797-.0334-.0379-2.2698-.5615z" fill="#8c3123"/><path d="m36.0651 29.3449-2.2702-.5616v-3.7834l2.2702 1.135zm0 4.7622-2.2702.2889v-3.7835l2.2702.2848zm-.0002 4.7582-2.27 1.1346v-3.7831l2.27-.5614zm3.9352-10.7629-1.0002-.5v9.775l1.0002-.4998z" fill="#e05243"/><path d="m20.4015 4.45082c-.0946-.12026-.2413-.19085-.397-.19095-.1557-.00009-.3025.07031-.3972.19045l-3.1299 3.9703c-.1681.21319-.1266.51851.0926.68195.2192.16345.5331.12314.7012-.09005l2.2329-2.83244v8.91822c0 .2687.2239.4864.5001.4864s.5001-.2177.5001-.4864v-8.91518l2.2241 2.8289c.1678.2134.4817.25411.7011.09094.2194-.16318.2613-.46845.0935-.68184zm-4.0215 8.60948c.2738-.0353.4664-.2797.4301-.5461-.0362-.2663-.2876-.4536-.5614-.4183-2.0232.2604-3.7857.7289-5.0581 1.3482-.6357.3094-1.1718.6674-1.55481 1.0752-.3857.4106-.63579.8947-.63579 1.4358v13.213c0 .6988.41373 1.2969 1.0048 1.7768.5938.4821 1.4232.8944 2.4042 1.2312 1.9664.6753 4.6503 1.0838 7.591 1.0838.7003 0 1.3852-.0232 2.0486-.0675.2756-.0183.4837-.2505.4648-.5185-.019-.268-.2577-.4704-.5332-.452-.6404.0428-1.3025.0652-1.9802.0652-2.8582 0-5.4242-.3986-7.258-1.0283-.9192-.3156-1.6275-.6802-2.0963-1.0607-.4716-.3829-.6455-.7332-.6455-1.03v-4.9373l.0046.0037c.5938.4821 1.4232.8945 2.4042 1.2313 1.9664.6752 4.6503 1.0837 7.591 1.0837 2.9408 0 5.6246-.4085 7.591-1.0837.981-.3368 1.8104-.7492 2.4042-1.2313l.0046-.0037v.3259c0 .2687.2239.4864.5001.4864s.5001-.2177.5001-.4864v-8.6016c0-1.0641-.9424-1.8938-2.1421-2.4872-1.2446-.6156-2.9695-1.0843-4.9527-1.3517-.2736-.0369-.5262.1489-.5641.415-.0379.266.1531.5116.4267.5485 1.9182.2587 3.5249.7054 4.6367 1.2553 1.1566.5721 1.5953 1.1579 1.5953 1.6201 0 .2968-.1739.6471-.6455 1.03-.4688.3806-1.1771.7451-2.0963 1.0607-1.8337.6297-4.3998 1.0283-7.258 1.0283s-5.4242-.3986-7.258-1.0283c-.9192-.3156-1.6275-.6801-2.0963-1.0607-.4716-.3829-.6455-.7332-.6455-1.03 0-.2318.1041-.4923.3741-.7797.2726-.2902.6937-.5838 1.2639-.8614 1.1396-.5546 2.7841-1.0017 4.7418-1.2537zm-6.3798 9.3974v-4.7295l.0046.0037c.5938.4821 1.4232.8944 2.4042 1.2312 1.9664.6753 4.6503 1.0838 7.591 1.0838 2.9408 0 5.6246-.4085 7.591-1.0838.981-.3368 1.8104-.7491 2.4042-1.2312l.0046-.0037v4.7295c0 .2968-.1739.6472-.6455 1.03-.4688.3806-1.1771.7452-2.0963 1.0608-1.8337.6297-4.3998 1.0282-7.258 1.0282s-5.4242-.3985-7.258-1.0282c-.9192-.3156-1.6275-.6802-2.0963-1.0608-.4716-.3828-.6455-.7332-.6455-1.03zm2.5183-1.3164c0 .3342-.2786.6052-.6223.6052-.3436 0-.6222-.271-.6222-.6052s.2786-.6052.6222-.6052c.3437 0 .6223.271.6223.6052zm0 6.6869c0 .3343-.2786.6052-.6223.6052-.3436 0-.6222-.2709-.6222-.6052 0-.3342.2786-.6051.6222-.6051.3437 0 .6223.2709.6223.6051z" fill="#4f5162"/></g></svg>