<svg fill="none" viewBox="0 0 28 28" xmlns="http://www.w3.org/2000/svg"><path d="m4.302 4.849-1.863.932v16.35l1.863.926.01-.013v-18.182z" fill="#8c3123"/><path d="m14.271 20.684-9.97 2.373v-18.208l9.97 2.321z" fill="#e05243"/><path d="m9.771 16.969 4.229.538.026-.061.024-6.934-.05-.055-4.229.531v5.98" fill="#8c3123"/><path d="m14 20.71 9.698 2.352.015-.024v-18.173l-.016-.016-9.697 2.348v13.514" fill="#8c3123"/><path d="m18.23 16.969-4.23.538v-7.05l4.23.531v5.98z" fill="#e05243"/><path d="m18.23 8.096-4.23.77-4.229-.77 4.223-1.107z" fill="#5e1f18"/><path d="m18.23 19.853-4.23-.776-4.229.776 4.224 1.179z" fill="#f2b0a9"/><path d="m9.771 8.096 4.229-1.047.034-.01v-7.01l-.034-.029-4.23 2.115v5.98z" fill="#8c3123"/><path d="m18.23 8.096-4.23-1.047v-7.049l4.23 2.115v5.98z" fill="#e05243"/><path d="m14 27.948-4.23-2.114v-5.98l4.23 1.046.062.07-.017 6.856z" fill="#8c3123"/><path d="m14 27.948 4.229-2.114v-5.98l-4.23 1.046v7.048zm9.697-23.098 1.863.932v16.35l-1.863.931v-18.214z" fill="#e05243"/><path clip-rule="evenodd" d="m16.888 15.75h7.174l3.4 3.433.067.003v7.666c0 .631-.512 1.148-1.138 1.148h-9.503a1.146 1.146 0 0 1 -1.138-1.148v-9.954c0-.631.512-1.148 1.138-1.148zm1.883 9.522h5.737v.853h-5.738v-.853zm-.73-1.607h7.196v.853h-7.195v-.853zm1.266-1.607h4.665v.852h-4.665zm-1.097-.856h6.859c.626 0 1.137.517 1.137 1.148v3.313c0 .632-.511 1.148-1.137 1.148h-6.86a1.146 1.146 0 0 1 -1.137-1.148v-3.313c0-.631.512-1.148 1.138-1.148z" fill="#fbe6e4" fill-rule="evenodd"/><path d="m17.147 20.451h9.314v6.582h-9.314z" fill="#fbe6e4"/><path clip-rule="evenodd" d="m17.285 16.234h6.621l3.139 3.139.061.003v7.008c0 .578-.472 1.05-1.05 1.05h-8.771c-.578 0-1.05-.472-1.05-1.05v-9.1c0-.577.472-1.05 1.05-1.05zm1.738 8.707h5.295v.78h-5.296v-.78zm-.674-1.47h6.642v.78h-6.641v-.78zm1.169-1.47h4.305v.78h-4.305zm-1.013-.782h6.33c.578 0 1.05.472 1.05 1.05v3.029c0 .578-.472 1.05-1.05 1.05h-6.33c-.578 0-1.05-.473-1.05-1.05v-3.029c0-.578.472-1.05 1.05-1.05z" fill="#4f5162" fill-rule="evenodd"/></svg>