<svg width="33" height="33" viewBox="0 0 33 33" fill="none" xmlns="http://www.w3.org/2000/svg">
<path d="M25.6089 12.7818C25.6089 14.4193 21.849 15.7468 17.2109 15.7468C12.5729 15.7468 8.81299 14.4193 8.81299 12.7818M25.6089 12.7818V19.8556M25.6089 12.7818C25.6089 11.5267 23.3998 10.4536 20.2794 10.021M8.81299 12.7818V23.6478C8.81299 25.2853 12.5729 26.6128 17.2109 26.6128C17.762 26.6128 18.3007 26.594 18.8221 26.5582M8.81299 12.7818C8.81299 11.5105 11.0792 10.4261 14.2631 10.0047M25.6089 18.1294C25.6089 19.7669 21.849 21.0944 17.2109 21.0944C12.5729 21.0944 8.81299 19.7669 8.81299 18.1294M19.7109 6.82908L17.2143 3.56403M17.2143 3.56403L14.7109 6.82908M17.2143 3.56403V7.82064V12.0772" stroke="#4F5162" stroke-linecap="round" stroke-linejoin="round"/>
<path fill-rule="evenodd" clip-rule="evenodd" d="M10.7291 17.5445C11.004 17.5445 11.2268 17.3216 11.2268 17.0468C11.2268 16.7719 11.004 16.5491 10.7291 16.5491C10.4543 16.5491 10.2314 16.7719 10.2314 17.0468C10.2314 17.3216 10.4543 17.5445 10.7291 17.5445ZM10.7291 23.0436C11.004 23.0436 11.2268 22.8208 11.2268 22.5459C11.2268 22.2711 11.004 22.0482 10.7291 22.0482C10.4543 22.0482 10.2314 22.2711 10.2314 22.5459C10.2314 22.8208 10.4543 23.0436 10.7291 23.0436Z" fill="#4F5162"/>
<path fill-rule="evenodd" clip-rule="evenodd" d="M30.1332 22.3762L32.5988 26.6644C32.6933 26.8302 32.7429 27.0177 32.7429 27.2086C32.7429 27.3994 32.6933 27.587 32.5988 27.7528L30.1332 32.041C30.0413 32.2076 29.9077 32.3476 29.7455 32.4472C29.5833 32.5468 29.3981 32.6026 29.2079 32.6091H24.2756C24.0854 32.6017 23.9003 32.5452 23.7384 32.4452C23.5764 32.3451 23.4431 32.2049 23.3512 32.0382L20.8856 27.7256C20.7921 27.5624 20.7429 27.3775 20.7429 27.1894C20.7429 27.0012 20.7921 26.8164 20.8856 26.6531L23.3522 22.3762C23.4448 22.2117 23.5789 22.0743 23.741 21.9776C23.9032 21.8809 24.0878 21.8283 24.2766 21.825H29.2088C29.3976 21.8282 29.5822 21.8808 29.7444 21.9775C29.9066 22.0742 30.0406 22.2116 30.1332 22.3762ZM28.6827 25.9285H24.7976C24.7674 25.9277 24.738 25.9389 24.7159 25.9596C24.6938 25.9803 24.6807 26.0088 24.6795 26.0391V26.8454C24.6795 26.8754 24.6915 26.9043 24.7127 26.9256C24.734 26.9468 24.7629 26.9588 24.7929 26.9588H28.6827C28.7127 26.9585 28.7414 26.9465 28.7626 26.9253C28.7838 26.9041 28.7959 26.8754 28.7961 26.8454V26.0419C28.7961 26.0118 28.7841 25.983 28.7629 25.9617C28.7416 25.9404 28.7127 25.9285 28.6827 25.9285ZM28.0817 26.6785C28.0357 26.6785 27.9908 26.6648 27.9525 26.6393C27.9143 26.6137 27.8845 26.5774 27.8669 26.535C27.8493 26.4925 27.8447 26.4457 27.8537 26.4006C27.8627 26.3555 27.8848 26.3141 27.9173 26.2816C27.9498 26.2491 27.9913 26.2269 28.0364 26.2179C28.0815 26.209 28.1282 26.2136 28.1707 26.2312C28.2132 26.2488 28.2495 26.2786 28.275 26.3168C28.3006 26.355 28.3142 26.4 28.3142 26.446C28.3142 26.5076 28.2897 26.5668 28.2461 26.6104C28.2025 26.654 28.1434 26.6785 28.0817 26.6785ZM28.6827 27.4772H24.7976C24.7674 27.4765 24.738 27.4876 24.7159 27.5083C24.6938 27.529 24.6807 27.5576 24.6795 27.5879V28.3988C24.6809 28.4281 24.6935 28.4557 24.7145 28.4761C24.7356 28.4965 24.7636 28.508 24.7929 28.5085H28.6827C28.7127 28.5082 28.7414 28.4962 28.7626 28.475C28.7838 28.4538 28.7959 28.4251 28.7961 28.3951V27.5869C28.7961 27.5568 28.7841 27.528 28.7629 27.5067C28.7416 27.4854 28.7127 27.4735 28.6827 27.4735V27.4772ZM28.0817 28.2235C28.0357 28.2235 27.9908 28.2099 27.9525 28.1843C27.9143 28.1588 27.8845 28.1224 27.8669 28.08C27.8493 28.0375 27.8447 27.9907 27.8537 27.9456C27.8627 27.9005 27.8848 27.8591 27.9173 27.8266C27.9498 27.7941 27.9913 27.7719 28.0364 27.7629C28.0815 27.754 28.1282 27.7586 28.1707 27.7762C28.2132 27.7938 28.2495 27.8236 28.275 27.8618C28.3006 27.9 28.3142 27.945 28.3142 27.991C28.3142 28.0215 28.3082 28.0518 28.2965 28.08C28.2848 28.1082 28.2677 28.1338 28.2461 28.1554C28.2245 28.177 28.1989 28.1941 28.1707 28.2058C28.1425 28.2175 28.1122 28.2235 28.0817 28.2235Z" fill="#4285F4"/>
<path fill-rule="evenodd" clip-rule="evenodd" d="M24.7095 26.9224L24.7087 26.9232L25.2628 27.4772H28.6826V27.4735C28.7126 27.4735 28.7415 27.4854 28.7628 27.5067C28.784 27.528 28.796 27.5568 28.796 27.5869V28.395C28.7957 28.4251 28.7837 28.4538 28.7625 28.475C28.7413 28.4962 28.7126 28.5082 28.6826 28.5085H24.7928C24.775 28.5082 24.7576 28.5038 24.742 28.4958L28.8525 32.6063H29.2031C29.3934 32.5998 29.5786 32.544 29.7408 32.4444C29.903 32.3448 30.0366 32.2049 30.1285 32.0382L31.8469 29.0494L28.7569 25.9547L28.7553 25.9549C28.7579 25.957 28.7604 25.9593 28.7628 25.9617C28.784 25.983 28.796 26.0118 28.796 26.0419V26.8454C28.7957 26.8754 28.7837 26.9041 28.7625 26.9253C28.7413 26.9465 28.7126 26.9585 28.6826 26.9588H24.7928C24.7628 26.9588 24.7339 26.9468 24.7126 26.9256C24.7116 26.9245 24.7105 26.9234 24.7095 26.9224ZM28.0816 26.6785C28.0356 26.6785 27.9907 26.6648 27.9524 26.6393C27.9142 26.6137 27.8844 26.5774 27.8668 26.535C27.8492 26.4925 27.8446 26.4457 27.8536 26.4006C27.8625 26.3555 27.8847 26.3141 27.9172 26.2816C27.9497 26.2491 27.9912 26.2269 28.0363 26.2179C28.0814 26.209 28.1281 26.2136 28.1706 26.2312C28.2131 26.2488 28.2494 26.2786 28.2749 26.3168C28.3005 26.355 28.3141 26.4 28.3141 26.446C28.3141 26.5076 28.2896 26.5668 28.246 26.6104C28.2024 26.654 28.1433 26.6785 28.0816 26.6785ZM28.0816 28.2235C28.0356 28.2235 27.9907 28.2098 27.9524 28.1843C27.9142 28.1588 27.8844 28.1224 27.8668 28.08C27.8492 28.0375 27.8446 27.9907 27.8536 27.9456C27.8625 27.9005 27.8847 27.8591 27.9172 27.8266C27.9497 27.7941 27.9912 27.7719 28.0363 27.7629C28.0814 27.754 28.1281 27.7586 28.1706 27.7762C28.2131 27.7938 28.2494 27.8236 28.2749 27.8618C28.3005 27.9 28.3141 27.945 28.3141 27.991C28.3141 28.0215 28.3081 28.0518 28.2964 28.08C28.2847 28.1082 28.2676 28.1338 28.246 28.1554C28.2244 28.177 28.1988 28.1941 28.1706 28.2058C28.1424 28.2175 28.1121 28.2235 28.0816 28.2235Z" fill="#3D7CE3"/>
</svg>
