<svg fill="none" viewBox="0 0 40 40" xmlns="http://www.w3.org/2000/svg"><path clip-rule="evenodd" d="m20.4015 5.19753c-.0946-.12441-.2413-.19743-.397-.19753s-.3025.07273-.3972.19702l-3.1299 4.1072c-.1681.22054-.1266.53639.0926.70548.2192.1691.5331.1274.7012-.09317l2.2329-2.93011v9.22578c0 .2779.2239.5032.5001.5032s.5001-.2253.5001-.5032v-9.22263l2.2241 2.92645c.1678.22078.4817.26288.7011.09408.2194-.16881.2613-.48461.0935-.70536zm-4.0215 8.90637c.2738-.0365.4664-.2894.4301-.5649-.0362-.2755-.2876-.4692-.5614-.4328-2.0232.2695-3.7857.7541-5.0581 1.3947-.6357.3201-1.1718.6904-1.55481 1.1123-.3857.4248-.63579.9255-.63579 1.4853v13.6686c0 .7229.41373 1.3417 1.0048 1.8381.5938.4987 1.4232.9252 2.4042 1.2737 1.9664.6985 4.6503 1.1211 7.591 1.1211 2.9408 0 5.6246-.4226 7.591-1.1211.981-.3485 1.8104-.775 2.4042-1.2737.5911-.4964 1.0048-1.1152 1.0048-1.8381v-13.6686c-.0425-1.1306-.9424-1.9591-2.1421-2.573-1.2446-.6368-2.9695-1.1217-4.9527-1.3983-.2736-.0382-.5262.154-.5641.4293s.1531.5293.4267.5675c1.9182.2676 3.5249.7297 4.6367 1.2985 1.1566.5919 1.5953 1.1979 1.5953 1.676 0 .307-.1739.6694-.6455 1.0655-.4688.3937-1.1771.7708-2.0963 1.0973-1.8337.6514-4.3998 1.0638-7.258 1.0638s-5.4242-.4124-7.258-1.0638c-.9192-.3265-1.6275-.7036-2.0963-1.0973-.4716-.3961-.6455-.7585-.6455-1.0655 0-.2398.1041-.5093.3741-.8066.2726-.3002.6937-.6039 1.2639-.891 1.1396-.5738 2.7841-1.0363 4.7418-1.297zm-6.3798 9.7215v-4.8927l.0046.0039c.5938.4987 1.4232.9252 2.4042 1.2737 1.9664.6985 4.6503 1.1211 7.591 1.1211 2.9408 0 5.6246-.4226 7.591-1.1211.981-.3485 1.8104-.775 2.4042-1.2737l.0046-.0039v4.8927c0 .307-.1739.6694-.6455 1.0655-.4688.3937-1.1771.7708-2.0963 1.0973-1.8337.6514-4.3998 1.0637-7.258 1.0637s-5.4242-.4123-7.258-1.0637c-.9192-.3265-1.6275-.7036-2.0963-1.0973-.4716-.3961-.6455-.7585-.6455-1.0655zm19.995 1.838.0046-.0038v5.1075c0 .307-.1739.6694-.6455 1.0655-.4688.3937-1.1771.7709-2.0963 1.0974-1.8337.6513-4.3998 1.0637-7.258 1.0637s-5.4242-.4124-7.258-1.0637c-.9192-.3265-1.6275-.7037-2.0963-1.0974-.4716-.3961-.6455-.7585-.6455-1.0655v-5.1075l.0046.0038c.5938.4988 1.4232.9253 2.4042 1.2738 1.9664.6985 4.6503 1.1211 7.591 1.1211 2.9408 0 5.6246-.4226 7.591-1.1211.981-.3485 1.8104-.775 2.4042-1.2738zm-17.4772-3.1999c0 .3458-.2786.6261-.6223.6261-.3436 0-.6222-.2803-.6222-.6261 0-.3457.2786-.626.6222-.626.3437 0 .6223.2803.6223.626zm0 6.9175c0 .3458-.2786.6261-.6223.6261-.3436 0-.6222-.2803-.6222-.6261 0-.3457.2786-.626.6222-.626.3437 0 .6223.2803.6223.626z" fill="#fff" fill-rule="evenodd"/></svg>