<svg viewBox="0 0 33 33" fill="none" xmlns="http://www.w3.org/2000/svg">
<path d="M25.6089 12.6826C25.6089 14.3201 21.849 15.6476 17.2109 15.6476C12.5729 15.6476 8.81299 14.3201 8.81299 12.6826M25.6089 12.6826V19.7563M25.6089 12.6826C25.6089 11.4274 23.3998 10.3544 20.2794 9.92177M8.81299 12.6826V23.5485C8.81299 25.1861 12.5729 26.5135 17.2109 26.5135C17.762 26.5135 18.3007 26.4948 18.8221 26.459M8.81299 12.6826C8.81299 11.4113 11.0792 10.3269 14.2631 9.90542M25.6089 18.0302C25.6089 19.6677 21.849 20.9951 17.2109 20.9951C12.5729 20.9951 8.81299 19.6677 8.81299 18.0302M19.7109 6.72984L17.2143 3.46478M17.2143 3.46478L14.7109 6.72984M17.2143 3.46478V7.72139V11.978" stroke="white" stroke-linecap="round" stroke-linejoin="round"/>
<path fill-rule="evenodd" clip-rule="evenodd" d="M10.7291 17.4452C11.004 17.4452 11.2268 17.2224 11.2268 16.9475C11.2268 16.6727 11.004 16.4499 10.7291 16.4499C10.4543 16.4499 10.2314 16.6727 10.2314 16.9475C10.2314 17.2224 10.4543 17.4452 10.7291 17.4452ZM10.7291 22.9444C11.004 22.9444 11.2268 22.7215 11.2268 22.4467C11.2268 22.1718 11.004 21.949 10.7291 21.949C10.4543 21.949 10.2314 22.1718 10.2314 22.4467C10.2314 22.7215 10.4543 22.9444 10.7291 22.9444Z" fill="white"/>
<path fill-rule="evenodd" clip-rule="evenodd" d="M30.1332 22.277L32.5988 26.5651C32.6933 26.7309 32.7429 26.9185 32.7429 27.1093C32.7429 27.3002 32.6933 27.4877 32.5988 27.6536L30.1332 31.9417C30.0413 32.1084 29.9077 32.2484 29.7455 32.348C29.5833 32.4475 29.3981 32.5033 29.2079 32.5099H24.2756C24.0854 32.5024 23.9003 32.446 23.7384 32.3459C23.5764 32.2459 23.4431 32.1057 23.3512 31.9389L20.8856 27.6264C20.7921 27.4631 20.7429 27.2783 20.7429 27.0901C20.7429 26.902 20.7921 26.7171 20.8856 26.5539L23.3522 22.277C23.4448 22.1125 23.5789 21.9751 23.741 21.8784C23.9032 21.7817 24.0878 21.729 24.2766 21.7257H29.2088C29.3976 21.7289 29.5822 21.7815 29.7444 21.8782C29.9066 21.9749 30.0406 22.1124 30.1332 22.277ZM28.6827 25.8292H24.7976C24.7674 25.8285 24.738 25.8396 24.7159 25.8603C24.6938 25.881 24.6807 25.9096 24.6795 25.9399V26.7461C24.6795 26.7762 24.6915 26.8051 24.7127 26.8263C24.734 26.8476 24.7629 26.8595 24.7929 26.8595H28.6827C28.7127 26.8593 28.7414 26.8473 28.7626 26.8261C28.7838 26.8048 28.7959 26.7761 28.7961 26.7461V25.9427C28.7961 25.9126 28.7841 25.8837 28.7629 25.8625C28.7416 25.8412 28.7127 25.8292 28.6827 25.8292ZM28.0817 26.5792C28.0357 26.5792 27.9908 26.5656 27.9525 26.5401C27.9143 26.5145 27.8845 26.4782 27.8669 26.4357C27.8493 26.3932 27.8447 26.3465 27.8537 26.3014C27.8627 26.2563 27.8848 26.2148 27.9173 26.1823C27.9498 26.1498 27.9913 26.1277 28.0364 26.1187C28.0815 26.1097 28.1282 26.1143 28.1707 26.1319C28.2132 26.1495 28.2495 26.1793 28.275 26.2176C28.3006 26.2558 28.3142 26.3007 28.3142 26.3467C28.3142 26.4084 28.2897 26.4675 28.2461 26.5111C28.2025 26.5547 28.1434 26.5792 28.0817 26.5792ZM28.6827 27.378H24.7976C24.7674 27.3772 24.738 27.3884 24.7159 27.4091C24.6938 27.4298 24.6807 27.4584 24.6795 27.4886V28.2996C24.6809 28.3288 24.6935 28.3565 24.7145 28.3768C24.7356 28.3972 24.7636 28.4088 24.7929 28.4092H28.6827C28.7127 28.409 28.7414 28.397 28.7626 28.3757C28.7838 28.3545 28.7959 28.3258 28.7961 28.2958V27.4877C28.7961 27.4576 28.7841 27.4287 28.7629 27.4075C28.7416 27.3862 28.7127 27.3742 28.6827 27.3742V27.378ZM28.0817 28.1242C28.0357 28.1242 27.9908 28.1106 27.9525 28.0851C27.9143 28.0595 27.8845 28.0232 27.8669 27.9807C27.8493 27.9382 27.8447 27.8915 27.8537 27.8464C27.8627 27.8013 27.8848 27.7599 27.9173 27.7273C27.9498 27.6948 27.9913 27.6727 28.0364 27.6637C28.0815 27.6547 28.1282 27.6593 28.1707 27.6769C28.2132 27.6945 28.2495 27.7243 28.275 27.7626C28.3006 27.8008 28.3142 27.8458 28.3142 27.8917C28.3142 27.9223 28.3082 27.9525 28.2965 27.9807C28.2848 28.0089 28.2677 28.0346 28.2461 28.0561C28.2245 28.0777 28.1989 28.0949 28.1707 28.1065C28.1425 28.1182 28.1122 28.1242 28.0817 28.1242Z" fill="#F6FAFF"/>
<path fill-rule="evenodd" clip-rule="evenodd" d="M24.7095 26.8231L24.7087 26.8239L25.2628 27.378H28.6826V27.3742C28.7126 27.3742 28.7415 27.3862 28.7628 27.4075C28.784 27.4287 28.796 27.4576 28.796 27.4877V28.2958C28.7957 28.3258 28.7837 28.3545 28.7625 28.3757C28.7413 28.397 28.7126 28.409 28.6826 28.4092H24.7928C24.775 28.409 24.7576 28.4046 24.742 28.3966L28.8525 32.5071H29.2031C29.3934 32.5006 29.5786 32.4448 29.7408 32.3452C29.903 32.2456 30.0366 32.1056 30.1285 31.939L31.8469 28.9502L28.7569 25.8555L28.7553 25.8556C28.7579 25.8578 28.7604 25.8601 28.7628 25.8625C28.784 25.8837 28.796 25.9126 28.796 25.9427V26.7461C28.7957 26.7761 28.7837 26.8048 28.7625 26.8261C28.7413 26.8473 28.7126 26.8593 28.6826 26.8595H24.7928C24.7628 26.8595 24.7339 26.8476 24.7126 26.8263C24.7116 26.8253 24.7105 26.8242 24.7095 26.8231ZM28.0816 26.5792C28.0356 26.5792 27.9907 26.5656 27.9524 26.5401C27.9142 26.5145 27.8844 26.4782 27.8668 26.4357C27.8492 26.3932 27.8446 26.3465 27.8536 26.3014C27.8625 26.2563 27.8847 26.2148 27.9172 26.1823C27.9497 26.1498 27.9912 26.1277 28.0363 26.1187C28.0814 26.1097 28.1281 26.1143 28.1706 26.1319C28.2131 26.1495 28.2494 26.1793 28.2749 26.2176C28.3005 26.2558 28.3141 26.3007 28.3141 26.3467C28.3141 26.4084 28.2896 26.4675 28.246 26.5111C28.2024 26.5547 28.1433 26.5792 28.0816 26.5792ZM28.0816 28.1242C28.0356 28.1242 27.9907 28.1106 27.9524 28.0851C27.9142 28.0595 27.8844 28.0232 27.8668 27.9807C27.8492 27.9382 27.8446 27.8915 27.8536 27.8464C27.8625 27.8013 27.8847 27.7599 27.9172 27.7273C27.9497 27.6948 27.9912 27.6727 28.0363 27.6637C28.0814 27.6547 28.1281 27.6593 28.1706 27.6769C28.2131 27.6945 28.2494 27.7243 28.2749 27.7626C28.3005 27.8008 28.3141 27.8458 28.3141 27.8917C28.3141 27.9223 28.3081 27.9525 28.2964 27.9807C28.2847 28.0089 28.2676 28.0346 28.246 28.0561C28.2244 28.0777 28.1988 28.0949 28.1706 28.1065C28.1424 28.1182 28.1121 28.1242 28.0816 28.1242Z" fill="#D7DFED"/>
</svg>
