<svg viewBox="0 0 24 24" fill="none" xmlns="http://www.w3.org/2000/svg">
<path d="M18.3192 9.17556C18.3192 10.4037 15.4992 11.3993 12.0207 11.3993C8.54215 11.3993 5.72223 10.4037 5.72223 9.17556M18.3192 9.17556V17.325C18.3192 18.5532 15.4992 19.5488 12.0207 19.5488C8.54215 19.5488 5.72223 18.5532 5.72223 17.325V9.17556M18.3192 9.17556C18.3192 8.23418 16.6623 7.42943 14.322 7.10495M5.72223 9.17556C5.72223 8.2221 7.42187 7.40879 9.80981 7.09269M18.3192 13.1863C18.3192 14.4144 15.4992 15.41 12.0207 15.41C8.54215 15.41 5.72223 14.4144 5.72223 13.1863M13.8957 4.711L12.0232 2.26221M12.0232 2.26221L10.1457 4.711M12.0232 2.26221V5.45467V8.64713" stroke="#4F5162" stroke-linecap="round" stroke-linejoin="round"/>
<ellipse cx="7.15933" cy="12.3742" rx="0.373261" ry="0.373261" fill="#4F5162"/>
<ellipse cx="7.15933" cy="16.4986" rx="0.373261" ry="0.373261" fill="#4F5162"/>
</svg>
