<svg fill="none" viewBox="0 0 40 40" xmlns="http://www.w3.org/2000/svg"><path d="m33.7949 36.1154 5.205 1.2621.0082-.0131-.0002-9.7532-.0082-.0087-5.2048 1.2602z" fill="#d9dae6"/><path d="m36.0652 35.6552-2.2702-.4165-2.2696.4165 2.2668.6328z" fill="#f3f3fa"/><path clip-rule="evenodd" d="m36.065 29.345-2.2701-.5617v-3.7833l2.2701 1.1349zm-7.4752 8.0297 5.3507-1.2736v-1.7236l2.1245-.2704v-3.2098l-2.1245-.2665v-1.7824l-5.3507-1.2459zm7.4751 1.4906-2.27 1.1346v-3.7831l2.27-.5614zm3.9351-10.7628-1.0002-.5v9.7749l1.0002-.4997z" fill="#fff" fill-rule="evenodd"/><path clip-rule="evenodd" d="m31.525 29.345 2.2696-.5617.0184-.0057v-3.7625l-.0184-.0151-2.2696 1.1349zm-3.9352-1.2425.9998-.5.006.0069v9.7581l-.006.0072-.9998-.497zm6.2048 6.2935-2.2696-.2889v-3.2098l2.2696-.2848.027.0291-.0127 3.7215zm-2.2698 4.4694 2.2698 1.1346.0244-.0655.009-3.6797-.0334-.0379-2.2698-.5615z" fill="#d9dae6" fill-rule="evenodd"/><path d="m36.0652 29.345-2.2702.4137-2.2696-.4137 2.2667-.5942z" fill="#b0b1c4"/><path clip-rule="evenodd" d="m20.4015 4.45083c-.0946-.12026-.2413-.19084-.397-.19094s-.3025.0703-.3972.19045l-3.1299 3.9703c-.1681.21318-.1266.5185.0926.68195s.5331.12313.7012-.09005l2.2329-2.83245v8.91821c0 .2687.2239.4864.5001.4864s.5001-.2177.5001-.4864v-8.91516l2.2241 2.8289c.1678.21339.4817.2541.7011.09093s.2613-.46844.0935-.68183zm-4.0215 8.60947c.2738-.0353.4664-.2797.4301-.546-.0362-.2663-.2876-.4537-.5614-.4184-2.0232.2605-3.7857.7289-5.0581 1.3482-.6357.3094-1.1718.6674-1.55481 1.0752-.3857.4106-.63579.8947-.63579 1.4358v13.213c0 .6988.41373 1.297 1.0048 1.7768.5938.4821 1.4232.8944 2.4042 1.2312 1.9664.6753 4.6503 1.0838 7.591 1.0838.7003 0 1.3852-.0232 2.0486-.0674.2756-.0184.4837-.2506.4648-.5186-.019-.268-.2577-.4703-.5332-.452-.6404.0428-1.3025.0652-1.9802.0652-2.8582 0-5.4242-.3986-7.258-1.0283-.9192-.3156-1.6275-.6801-2.0963-1.0607-.4716-.3829-.6455-.7332-.6455-1.03v-4.9372l.0046.0036c.5938.4821 1.4232.8945 2.4042 1.2313 1.9664.6752 4.6503 1.0837 7.591 1.0837 2.9408 0 5.6246-.4085 7.591-1.0837.981-.3368 1.8104-.7492 2.4042-1.2313l.0046-.0036v.3259c0 .2686.2239.4864.5001.4864s.5001-.2178.5001-.4864v-8.6017c0-1.0641-.9424-1.8938-2.1421-2.4872-1.2446-.6156-2.9695-1.0843-4.9527-1.3517-.2736-.0369-.5262.1489-.5641.415s.1531.5117.4267.5486c1.9182.2586 3.5249.7053 4.6367 1.2552 1.1566.5721 1.5953 1.1579 1.5953 1.6201 0 .2968-.1739.6471-.6455 1.03-.4688.3806-1.1771.7451-2.0963 1.0608-1.8337.6296-4.3998 1.0282-7.258 1.0282s-5.4242-.3986-7.258-1.0282c-.9192-.3157-1.6275-.6802-2.0963-1.0608-.4716-.3829-.6455-.7332-.6455-1.03 0-.2318.1041-.4923.3741-.7797.2726-.2902.6937-.5838 1.2639-.8613 1.1396-.5547 2.7841-1.0018 4.7418-1.2538zm-6.3798 9.3975v-4.7296l.0046.0037c.5938.4821 1.4232.8944 2.4042 1.2313 1.9664.6752 4.6503 1.0837 7.591 1.0837 2.9408 0 5.6246-.4085 7.591-1.0837.981-.3369 1.8104-.7492 2.4042-1.2313l.0046-.0037v4.7296c0 .2967-.1739.6471-.6455 1.0299-.4688.3806-1.1771.7452-2.0963 1.0608-1.8337.6297-4.3998 1.0283-7.258 1.0283s-5.4242-.3986-7.258-1.0283c-.9192-.3156-1.6275-.6802-2.0963-1.0608-.4716-.3828-.6455-.7332-.6455-1.0299zm2.5183-1.3165c0 .3342-.2786.6052-.6223.6052-.3436 0-.6222-.271-.6222-.6052s.2786-.6052.6222-.6052c.3437 0 .6223.271.6223.6052zm0 6.6869c0 .3343-.2786.6052-.6223.6052-.3436 0-.6222-.2709-.6222-.6052 0-.3342.2786-.6051.6222-.6051.3437 0 .6223.2709.6223.6051z" fill="#fff" fill-rule="evenodd"/></svg>