<svg viewBox="0 0 33 33" fill="none" xmlns="http://www.w3.org/2000/svg">
<path d="M24.5142 12.8101C24.5142 14.4476 20.7543 15.775 16.1162 15.775C11.4782 15.775 7.71826 14.4476 7.71826 12.8101M24.5142 12.8101V23.676C24.5142 25.3135 20.7543 26.641 16.1162 26.641C11.4782 26.641 7.71826 25.3135 7.71826 23.676V12.8101M24.5142 12.8101C24.5142 11.5549 22.3051 10.4819 19.1847 10.0492M7.71826 12.8101C7.71826 11.5388 9.98444 10.4544 13.1684 10.0329M24.5142 18.1576C24.5142 19.7951 20.7543 21.1226 16.1162 21.1226C11.4782 21.1226 7.71826 19.7951 7.71826 18.1576M18.6162 6.85731L16.1195 3.59225M16.1195 3.59225L13.6162 6.85731M16.1195 3.59225V7.84886V12.1055" stroke="#4F5162" stroke-linecap="round" stroke-linejoin="round"/>
<path fill-rule="evenodd" clip-rule="evenodd" d="M9.6344 17.5727C9.90926 17.5727 10.1321 17.3499 10.1321 17.075C10.1321 16.8002 9.90926 16.5773 9.6344 16.5773C9.35954 16.5773 9.13672 16.8002 9.13672 17.075C9.13672 17.3499 9.35954 17.5727 9.6344 17.5727ZM9.6344 23.0718C9.90926 23.0718 10.1321 22.849 10.1321 22.5742C10.1321 22.2993 9.90926 22.0765 9.6344 22.0765C9.35954 22.0765 9.13672 22.2993 9.13672 22.5742C9.13672 22.849 9.35954 23.0718 9.6344 23.0718Z" fill="#4F5162"/>
</svg>
