<svg width="33" height="33" viewBox="0 0 33 33" fill="none" xmlns="http://www.w3.org/2000/svg">
<path d="M25.814 12.6826C25.814 14.3201 22.0541 15.6476 17.416 15.6476C12.778 15.6476 9.01807 14.3201 9.01807 12.6826M25.814 12.6826V19.7563M25.814 12.6826C25.814 11.4274 23.6049 10.3544 20.4845 9.92177M9.01807 12.6826V23.5485C9.01807 25.1861 12.778 26.5135 17.416 26.5135C17.9671 26.5135 18.5057 26.4948 19.0272 26.459M9.01807 12.6826C9.01807 11.4113 11.2842 10.3269 14.4682 9.90542M25.814 18.0302C25.814 19.6677 22.0541 20.9951 17.416 20.9951C12.778 20.9951 9.01807 19.6677 9.01807 18.0302M19.916 6.72984L17.4194 3.46478M17.4194 3.46478L14.916 6.72984M17.4194 3.46478V7.72139V11.978" stroke="white" stroke-linecap="round" stroke-linejoin="round"/>
<path fill-rule="evenodd" clip-rule="evenodd" d="M10.9342 17.4452C11.2091 17.4452 11.4319 17.2224 11.4319 16.9475C11.4319 16.6727 11.2091 16.4499 10.9342 16.4499C10.6593 16.4499 10.4365 16.6727 10.4365 16.9475C10.4365 17.2224 10.6593 17.4452 10.9342 17.4452ZM10.9342 22.9444C11.2091 22.9444 11.4319 22.7215 11.4319 22.4467C11.4319 22.1718 11.2091 21.949 10.9342 21.949C10.6593 21.949 10.4365 22.1718 10.4365 22.4467C10.4365 22.7215 10.6593 22.9444 10.9342 22.9444Z" fill="white"/>
<path d="M27.9839 29.4022L32.1479 30.4118L32.1544 30.4014L32.1543 22.5988L32.1477 22.5919L27.9839 23.6V29.4022Z" fill="#D9DAE6"/>
<path d="M29.8 29.034L27.9839 28.7009L26.1682 29.034L27.9817 29.5402L29.8 29.034Z" fill="#F3F3FA"/>
<path fill-rule="evenodd" clip-rule="evenodd" d="M29.8 23.9858L27.9838 23.5365V20.5099L29.8 21.4178V23.9858ZM23.8198 30.4097L28.1003 29.3907V28.0119L29.8 27.7956V25.2277L28.1003 25.0145V23.5886L23.8198 22.5919V30.4097ZM29.7998 31.6021L27.9838 32.5098V29.4833L29.7998 29.0342V31.6021ZM32.948 22.9918L32.1478 22.5919V30.4118L32.948 30.012V22.9918Z" fill="white"/>
<path fill-rule="evenodd" clip-rule="evenodd" d="M26.1682 23.9858L27.9838 23.5365L27.9985 23.532V20.522L27.9838 20.5099L26.1682 21.4178V23.9858ZM23.02 22.9918L23.8198 22.5919L23.8246 22.5974V30.4039L23.8198 30.4097L23.02 30.012V22.9918ZM27.9838 28.0267L26.1682 27.7956V25.2277L27.9838 24.9999L28.0054 25.0232L27.9952 28.0004L27.9838 28.0267ZM26.168 31.6022L27.9838 32.5099L28.0033 32.4575L28.0106 29.5137L27.9838 29.4834L26.168 29.0342V31.6022Z" fill="#D9DAE6"/>
<path d="M29.8 23.9858L27.9839 24.3168L26.1682 23.9858L27.9816 23.5105L29.8 23.9858Z" fill="#B0B1C4"/>
</svg>
