<svg xmlns="http://www.w3.org/2000/svg" fill="none" viewBox="0 0 24 24"><path fill="#6B6D85" d="M17.301 13.159c-.3 0-.546.249-.546.553v6.53c0 .161-.07.316-.196.443a.834.834 0 0 1-.65.243c-.475-.011-.792-.392-.792-.735v-.956a.551.551 0 0 0-.546-.552H4.74V6.528l6.007.011a.55.55 0 0 0 .546-.552v-.011a.55.55 0 0 0-.546-.553H4.74c-.6 0-1.092.498-1.092 1.105v12.157H2.556c-.3 0-.546.248-.546.552v.824c-.104.911.639 1.735 1.747 1.933.033.006.082.006.115.006h11.791c.033 0 .06 0 .093-.006.043 0 .082.006.125.006h.055c.519 0 1.021-.204 1.387-.558.339-.337.524-.774.524-1.232v-6.498a.551.551 0 0 0-.546-.553ZM3.905 20.895c-.437-.089-.858-.381-.809-.718.006-.028.006-.056.006-.083v-.304h10.923v.37c0 .26.06.508.163.735H3.905Z"/><path fill="#6B6D85" d="M7.455 9.844h3.265c.3 0 .547-.249.547-.553a.551.551 0 0 0-.546-.552H7.454c-.3 0-.546.248-.546.552 0 .304.245.553.546.553ZM7.455 16.474h6.553c.3 0 .546-.248.546-.552a.551.551 0 0 0-.546-.553H7.455a.55.55 0 0 0-.546.553c0 .304.245.552.546.552ZM13.997 10.949H7.455a.55.55 0 0 0-.546.552c0 .304.245.553.546.553h6.542c.3 0 .546-.249.546-.553a.551.551 0 0 0-.546-.552ZM7.455 14.264h6.542c.3 0 .546-.248.546-.552a.551.551 0 0 0-.546-.553H7.455a.55.55 0 0 0-.546.553c0 .303.245.552.546.552ZM21.37 2.986l-.317-.16-1.02-.514-.203-.1-.89-.452-1.092-.547-.306-.155a.538.538 0 0 0-.486 0l-.3.15-1.093.552-.89.447-.202.105-1.021.514-.317.16a.555.555 0 0 0-.3.498v5.315c0 .21.114.404.3.498l3.823 1.94a.55.55 0 0 0 .491 0l3.823-1.94a.555.555 0 0 0 .3-.498V3.484a.555.555 0 0 0-.3-.498Zm-4.615 6.858-2.73-1.382V4.384l2.73 1.382v4.078Zm.546-5.04-1.638-.828-.972-.492.076-.039.896-.453.328-.166.764-.381.546-.276.547.276.759.381.333.171.89.448.077.039-.967.492-1.639.828Zm3.277 3.658-2.73 1.382V5.766l2.73-1.382v4.078Z"/></svg>