<svg viewBox="0 0 16 14" fill="none" xmlns="http://www.w3.org/2000/svg">
<path fill-rule="evenodd" clip-rule="evenodd" d="M2.70408 7C2.70408 3.2725 5.6649 0.25 9.31633 0.25C12.9678 0.25 15.9286 3.2725 15.9286 7C15.9286 10.7275 12.9678 13.75 9.31633 13.75C7.80286 13.75 6.40694 13.225 5.27551 12.355L6.33347 11.275C7.17837 11.875 8.21429 12.25 9.31633 12.25C12.1596 12.25 14.4592 9.9025 14.4592 7C14.4592 4.0975 12.1596 1.75 9.31633 1.75C6.47306 1.75 4.17347 4.0975 4.17347 7H6.37755L3.43878 10L0.5 7H2.70408ZM9.31633 5.5C10.1245 5.5 10.7857 6.175 10.7857 7C10.7857 7.825 10.1245 8.5 9.31633 8.5C8.50816 8.5 7.84694 7.825 7.84694 7C7.84694 6.175 8.50816 5.5 9.31633 5.5Z" fill="currentColor"/>
</svg>
