<svg xmlns="http://www.w3.org/2000/svg" viewBox="0 0 16 16" fill="currentColor" xmlns:v="https://vecta.io/nano"><path fill-rule="evenodd" d="M4.827 2.019a2.75 2.75 0 0 0 0 5.5 2.75 2.75 0 0 0 0-5.5zm-3.25 2.75a3.25 3.25 0 1 1 6.5 0 3.25 3.25 0 1 1-6.5 0zm3.25-1.811a.25.25 0 0 1 .25.25v1.5h1a.25.25 0 1 1 0 .5h-1.25a.25.25 0 0 1-.25-.25v-1.75a.25.25 0 0 1 .25-.25zm4.235 1.716h4.893v1.521H9.062v.5h4.893v6.479h-9v-4.25h-.5v4.25a.5.5 0 0 0 .5.5h9a.5.5 0 0 0 .5-.5V6.445 4.673a.5.5 0 0 0-.5-.5H9.062v.5z" fill="currentColor"/></svg>