<svg viewBox="0 0 23 24" fill="none" xmlns="http://www.w3.org/2000/svg"><path fill-rule="evenodd" clip-rule="evenodd" d="M4.176 3.708c0-.39.325-.708.726-.708H19.41c.4 0 .725.317.725.708v2.125a.717.717 0 01-.725.709.717.717 0 01-.726-.709V4.417H5.628v9.916h7.255c.4 0 .725.317.725.709 0 1.117.016 1.983.33 2.593.141.272.341.487.654.644.288.145.704.255 1.31.279 1.547-.06 2.785-1.304 2.785-2.831v-2.102c0-.391.324-.708.725-.708.4 0 .725.317.725.708v2.102c0 2.144-1.625 3.915-3.735 4.207a.74.74 0 01-.255.045c-.084 0-.166-.001-.248-.004a4.55 4.55 0 01-.143.002l-.527-.004L9.984 20H5.627C3.624 20 2 18.414 2 16.458v-1.416c0-.392.325-.709.725-.709h1.451V3.708zm8.641 14.86a3.032 3.032 0 01-.175-.297c-.39-.755-.467-1.675-.482-2.521H3.45v.708c0 1.174.975 2.125 2.177 2.125H9.98l2.837-.014z" fill="#3E7BFA"/><path fill-rule="evenodd" clip-rule="evenodd" d="M16.791 7.593a.715.715 0 01.992-.232l2.879 1.821A.73.73 0 0121 9.8a.73.73 0 01-.338.618l-2.88 1.821a.715.715 0 01-.99-.232.734.734 0 01.228-1.003L18.922 9.8 17.02 8.596a.734.734 0 01-.229-1.003zM12.254 7.593a.715.715 0 00-.991-.232l-2.88 1.821a.73.73 0 000 1.236l2.88 1.821c.337.213.78.11.991-.232a.734.734 0 00-.229-1.003L10.123 9.8l1.902-1.204a.734.734 0 00.23-1.003z" fill="#3E7BFA"/><path fill-rule="evenodd" clip-rule="evenodd" d="M15.275 7.302c.443.15.658.574.481.947l-1.727 3.643c-.177.373-.68.555-1.122.406-.443-.15-.658-.574-.481-.947l1.727-3.643c.177-.373.68-.555 1.122-.406z" fill="#3E7BFA"/></svg>