<svg fill="none" viewBox="0 0 23 24" xmlns="http://www.w3.org/2000/svg"><g clip-rule="evenodd" fill="#3e7bfa" fill-rule="evenodd"><path d="m4.176 3.708c0-.39.325-.708.726-.708h14.508c.4 0 .725.317.725.708v2.125a.717.717 0 0 1 -.725.709.717.717 0 0 1 -.726-.709v-1.416h-13.056v9.916h7.255c.4 0 .725.317.725.709 0 1.117.016 1.983.33 2.593.141.272.341.487.654.644.288.145.704.255 1.31.279 1.547-.06 2.785-1.304 2.785-2.831v-2.102c0-.391.324-.708.725-.708.4 0 .725.317.725.708v2.102c0 2.144-1.625 3.915-3.735 4.207a.74.74 0 0 1 -.255.045c-.084 0-.166-.001-.248-.004a4.55 4.55 0 0 1 -.143.002l-.527-.004-5.245.027h-4.357c-2.003 0-3.627-1.586-3.627-3.542v-1.416c0-.392.325-.709.725-.709h1.451zm8.641 14.86a3.032 3.032 0 0 1 -.175-.297c-.39-.755-.467-1.675-.482-2.521h-8.71v.708c0 1.174.975 2.125 2.177 2.125h4.353l2.837-.014z"/><path d="m16.791 7.593a.715.715 0 0 1 .992-.232l2.879 1.821a.73.73 0 0 1 .338.618.73.73 0 0 1 -.338.618l-2.88 1.821a.715.715 0 0 1 -.99-.232.734.734 0 0 1 .228-1.003l1.902-1.204-1.902-1.204a.734.734 0 0 1 -.229-1.003zm-4.537 0a.715.715 0 0 0 -.991-.232l-2.88 1.821a.73.73 0 0 0 0 1.236l2.88 1.821c.337.213.78.11.991-.232a.734.734 0 0 0 -.229-1.003l-1.902-1.204 1.902-1.204a.734.734 0 0 0 .23-1.003z"/><path d="m15.275 7.302c.443.15.658.574.481.947l-1.727 3.643c-.177.373-.68.555-1.122.406-.443-.15-.658-.574-.481-.947l1.727-3.643c.177-.373.68-.555 1.122-.406z"/></g></svg>