<svg width="14" height="14" viewBox="0 0 14 14" fill="currentColor" xmlns="http://www.w3.org/2000/svg">
<path d="M5.5579 0.355655C5.63257 0.381433 5.70568 0.411655 5.77724 0.446322L6.63257 0.867655C6.74706 0.924007 6.87296 0.953312 7.00057 0.953312C7.12818 0.953312 7.25408 0.924007 7.36857 0.867655L8.2239 0.446322C8.43992 0.339978 8.67478 0.277227 8.91505 0.261654C9.15533 0.246081 9.39632 0.277991 9.62426 0.35556C9.8522 0.433129 10.0626 0.554839 10.2435 0.71374C10.4244 0.87264 10.5723 1.06562 10.6786 1.28166L10.7272 1.38966L10.7692 1.50099L11.0759 2.40299C11.1592 2.64832 11.3519 2.84032 11.5966 2.92366L12.4992 3.23032C12.7461 3.31433 12.9723 3.45005 13.1626 3.62843C13.3529 3.8068 13.5029 4.02372 13.6026 4.2647C13.7024 4.50568 13.7496 4.76517 13.7411 5.02584C13.7326 5.28652 13.6685 5.54237 13.5532 5.77632L13.1326 6.63166C13.0762 6.74615 13.0469 6.87205 13.0469 6.99965C13.0469 7.12726 13.0762 7.25316 13.1326 7.36765L13.5532 8.22299C13.6684 8.45691 13.7324 8.7127 13.7408 8.9733C13.7493 9.2339 13.7021 9.4933 13.6023 9.7342C13.5025 9.97509 13.3526 10.1919 13.1623 10.3703C12.9721 10.5486 12.7461 10.6843 12.4992 10.7683L11.5966 11.075C11.4758 11.1162 11.3661 11.1845 11.276 11.2748C11.1858 11.3651 11.1176 11.4749 11.0766 11.5957L10.7692 12.4983C10.6852 12.7451 10.5495 12.9712 10.3712 13.1614C10.1929 13.3516 9.97601 13.5016 9.73511 13.6014C9.49421 13.7011 9.23481 13.7484 8.97421 13.7399C8.71362 13.7314 8.45782 13.6675 8.2239 13.5523L7.36857 13.1317C7.25408 13.0753 7.12818 13.046 7.00057 13.046C6.87296 13.046 6.74706 13.0753 6.63257 13.1317L5.77724 13.5523C5.54332 13.6675 5.28752 13.7314 5.02693 13.7399C4.76633 13.7484 4.50692 13.7011 4.26603 13.6014C4.02513 13.5016 3.80828 13.3516 3.62995 13.1614C3.45163 12.9712 3.31592 12.7451 3.2319 12.4983L2.92524 11.5957C2.88398 11.4748 2.81551 11.3651 2.72512 11.275C2.63473 11.1848 2.52483 11.1166 2.4039 11.0757L1.5019 10.7683C1.25502 10.6844 1.02889 10.5487 0.838597 10.3704C0.64831 10.1921 0.498247 9.97529 0.398427 9.73438C0.298607 9.49348 0.251328 9.23405 0.259744 8.97342C0.268161 8.71279 0.332081 8.45695 0.447236 8.22299L0.86857 7.36765C0.924921 7.25316 0.954226 7.12726 0.954226 6.99965C0.954226 6.87205 0.924921 6.74615 0.86857 6.63166L0.447236 5.77632C0.332081 5.54236 0.268161 5.28652 0.259744 5.02589C0.251328 4.76526 0.298607 4.50583 0.398427 4.26493C0.498247 4.02402 0.64831 3.80718 0.838597 3.62889C1.02889 3.45059 1.25502 3.31494 1.5019 3.23099L2.4039 2.92432C2.52485 2.88315 2.6347 2.81472 2.72498 2.72432C2.81527 2.63393 2.88355 2.52398 2.92457 2.40299L3.23124 1.50099C3.30876 1.27298 3.43044 1.06248 3.58934 0.881518C3.74823 0.700552 3.94123 0.552665 4.15729 0.446304C4.37335 0.339944 4.60826 0.277194 4.84858 0.26164C5.0889 0.246086 5.32993 0.278033 5.5579 0.355655ZM9.3139 4.97899L5.70057 8.59232L4.38457 7.01232C4.34313 6.96009 4.29166 6.91668 4.2332 6.88464C4.17473 6.85259 4.11045 6.83257 4.04413 6.82574C3.97781 6.8189 3.91079 6.8254 3.84702 6.84485C3.78325 6.8643 3.72401 6.89631 3.6728 6.93899C3.62158 6.98167 3.57941 7.03417 3.54878 7.09339C3.51815 7.1526 3.49967 7.21735 3.49443 7.28381C3.48919 7.35028 3.4973 7.41712 3.51828 7.48041C3.53925 7.54369 3.57267 7.60214 3.61657 7.65232L5.28324 9.65232C5.32767 9.70568 5.38274 9.7492 5.44492 9.7801C5.50711 9.811 5.57505 9.82861 5.64441 9.83181C5.71378 9.83501 5.78305 9.82373 5.84781 9.79868C5.91257 9.77363 5.97141 9.73536 6.02057 9.68632L10.0206 5.68632C10.0697 5.64055 10.1091 5.58535 10.1364 5.52401C10.1638 5.46268 10.1784 5.39647 10.1796 5.32934C10.1808 5.2622 10.1685 5.19552 10.1433 5.13326C10.1182 5.071 10.0807 5.01444 10.0333 4.96696C9.98578 4.91948 9.92923 4.88205 9.86697 4.85691C9.80471 4.83176 9.73802 4.81941 9.67089 4.82059C9.60375 4.82178 9.53754 4.83647 9.47621 4.8638C9.41488 4.89113 9.35968 4.93053 9.3139 4.97966" fill="#42AB45"/>
</svg>
