<svg xmlns="http://www.w3.org/2000/svg" viewBox="0 0 39 35" fill="currentColor"><path d="M29.707 29.42h.714v-.004zm-.15-24.554h-.714v.004zM21.41 26.684h.714a.715.715 0 0 0-.714-.714zm-20.695 0v-.714a.715.715 0 0 0-.714.714zM37.857 7.661v.715c.394 0 .714-.32.714-.715zM28.993 29.42a3.437 3.437 0 0 1-3.436 3.437v1.429a4.866 4.866 0 0 0 4.864-4.866zm-3.436 3.437a3.437 3.437 0 0 1-3.436-3.437h-1.428a4.866 4.866 0 0 0 4.864 4.866zm-20.693 0A3.437 3.437 0 0 1 1.43 29.42H0a4.866 4.866 0 0 0 4.864 4.866zm0 1.429h20.693v-1.429H4.864zM8.864 0A4.866 4.866 0 0 0 4 4.866h1.428a3.44 3.44 0 0 1 3.437-3.437zm13.257 29.42v-2.736h-1.428v2.736zM0 26.684v2.736h1.429v-2.736zm21.407-.714H4.713v1.429h16.694zm-16.694 0H.714v1.429h4V25.97zM38.57 4.866A4.866 4.866 0 0 0 33.707 0v1.429a3.437 3.437 0 0 1 3.436 3.437zM33.707 0a4.866 4.866 0 0 0-4.866 4.866h1.429a3.437 3.437 0 0 1 3.437-3.437zM8.85 1.429h24.857V0H8.85zM3.999 4.866v21.818h1.428V4.866zm33.144 0v2.797h1.428V4.866zm-8.3.004.014 2.796 1.429-.009-.015-2.796zm.014 2.796.136 21.758 1.428-.008-.134-21.759-1.428.009zm9-.717h-8.286v1.428h8.286zM11.65 19h-1.292l3.739-10.182h1.272L19.108 19h-1.293l-3.042-8.571h-.08zm.478-3.977h5.21v1.093h-5.21zm9.799-6.205V19h-1.233V8.818z"/></svg>
