<svg fill="currentColor" viewBox="0 0 39 35"><path d="M29.707 29.42h.714v-.004zm-.15-24.554h-.714v.004zM21.41 26.684h.714a.715.715 0 0 0-.714-.714zm-20.695 0v-.714a.715.715 0 0 0-.714.714zM37.857 7.661v.715c.394 0 .714-.32.714-.715zM28.993 29.42a3.437 3.437 0 0 1-3.436 3.437v1.429a4.866 4.866 0 0 0 4.864-4.866zm-3.436 3.437a3.437 3.437 0 0 1-3.436-3.437h-1.428a4.866 4.866 0 0 0 4.864 4.866zm-20.693 0A3.437 3.437 0 0 1 1.43 29.42H0a4.866 4.866 0 0 0 4.864 4.866zm0 1.429h20.693v-1.429H4.864zM8.864 0A4.866 4.866 0 0 0 4 4.866h1.428a3.44 3.44 0 0 1 3.437-3.437zm13.257 29.42v-2.736h-1.428v2.736zM0 26.684v2.736h1.429v-2.736zm21.407-.714H4.713v1.429h16.694zm-16.694 0H.714v1.429h4V25.97zM38.57 4.866A4.866 4.866 0 0 0 33.707 0v1.429a3.437 3.437 0 0 1 3.436 3.437zM33.707 0a4.866 4.866 0 0 0-4.866 4.866h1.429a3.437 3.437 0 0 1 3.437-3.437zM8.85 1.429h24.857V0H8.85zM3.999 4.866v21.818h1.428V4.866zm33.144 0v2.797h1.428V4.866zm-8.3.004.014 2.796 1.429-.009-.015-2.796zm.014 2.796.136 21.758 1.428-.008-.134-21.759-1.428.009zm9-.717h-8.286v1.428h8.286zM8.828 17.295c-.32 0-.58.302-.58.676s.26.677.58.677h6.958c.32 0 .58-.303.58-.677 0-.373-.26-.676-.58-.676zm0-8.118c-.32 0-.58.303-.58.676s.26.677.58.677h6.958c.32 0 .58-.303.58-.677 0-.373-.26-.676-.58-.676zm0 4.059c-.32 0-.58.303-.58.676s.26.677.58.677h6.958c.32 0 .58-.303.58-.677 0-.373-.26-.676-.58-.676z"/><path fill-rule="evenodd" d="M19.072 11.237c0-1.885 1.514-3.413 3.382-3.413s3.383 1.528 3.383 3.413a3.42 3.42 0 0 1-.674 2.045v6.264c0 .165-.09.318-.234.398a.45.45 0 0 1-.458-.014l-2.055-1.312-1.966 1.308a.45.45 0 0 1-.462.02.46.46 0 0 1-.237-.4v-6.257a3.4 3.4 0 0 1-.68-2.052Zm3.382-2.503c-1.37 0-2.48 1.12-2.48 2.503 0 1.382 1.11 2.503 2.48 2.503s2.48-1.12 2.48-2.503c0-1.382-1.11-2.503-2.48-2.503m0 5.916c.665 0 1.284-.193 1.807-.527v4.596l-1.609-1.027a.45.45 0 0 0-.489.005l-1.51 1.004v-4.575c.521.332 1.14.524 1.801.524" clip-rule="evenodd"/></svg>