<svg viewBox="0 0 39 35" fill="currentColor" xmlns="http://www.w3.org/2000/svg"><path d="M33.666 0a4.7 4.7 0 0 1 4.7 4.7v2.807a.53.53 0 0 1-.531.53h-7.787l.132 21.32v.003a4.7 4.7 0 0 1-4.699 4.7H4.7a4.7 4.7 0 0 1-4.7-4.7v-2.748a.53.53 0 0 1 .53-.53h3.487V4.7A4.7 4.7 0 0 1 8.697.001L8.7 0h24.965ZM1.061 29.36A3.64 3.64 0 0 0 4.699 33h17.81a4.691 4.691 0 0 1-1.727-3.64v-2.217H1.061v2.217Zm7.655-28.3A3.64 3.64 0 0 0 5.077 4.7v21.382h16.236a.53.53 0 0 1 .53.53v2.748a3.639 3.639 0 0 0 7.276.004l-.135-21.853V7.51l-.017-2.807V4.7c0-1.467.673-2.778 1.726-3.64H8.716Zm11.628 9.77c2.229-.079 4.418 1.612 4.418 4.153 0 3.502-4.135 5.396-6.898 3.244l-.839-.653c-.614.704-1.385 1.109-2.106 1.328-.804.245-1.572.27-2.057.21h-.008c-1.96-.269-3.717-1.857-3.717-4.122 0-3.516 4.19-5.396 6.976-3.25l.89.686.855-.683.006-.004a4.255 4.255 0 0 1 2.48-.909Zm-4.841 1.701c-2.187-1.684-5.366-.155-5.366 2.46 0 1.684 1.303 2.916 2.848 3.13.353.042.98.027 1.643-.175.57-.174 1.147-.48 1.606-.987l-1.288-1.004a1.058 1.058 0 0 1-1.488-.972 1.063 1.063 0 1 1 2.107.187l2.914 2.269c2.146 1.671 5.283.163 5.283-2.456 0-1.896-1.637-3.215-3.382-3.154a3.258 3.258 0 0 0-1.901.7l-.659.525 1.871 1.44a.5.5 0 1 1-.61.793l-3.578-2.756Zm18.163-11.47a3.64 3.64 0 0 0-3.639 3.64l.015 2.276h7.263V4.7a3.64 3.64 0 0 0-3.639-3.64Z" fill="#6B6D85"/></svg>