<svg width="15" height="15" viewBox="0 0 15 15" fill="currentColor" xmlns="http://www.w3.org/2000/svg">
<path d="M6.05742 0.855899C6.13208 0.881677 6.20519 0.9119 6.27675 0.946566L7.13208 1.3679C7.24657 1.42425 7.37247 1.45356 7.50008 1.45356C7.62769 1.45356 7.75359 1.42425 7.86808 1.3679L8.72341 0.946566C8.93944 0.840222 9.17429 0.777471 9.41456 0.761898C9.65484 0.746325 9.89583 0.778235 10.1238 0.855804C10.3517 0.933373 10.5621 1.05508 10.743 1.21398C10.9239 1.37288 11.0718 1.56586 11.1781 1.7819L11.2267 1.8899L11.2687 2.00123L11.5754 2.90323C11.6587 3.14857 11.8514 3.34057 12.0961 3.4239L12.9987 3.73057C13.2457 3.81457 13.4718 3.9503 13.6621 4.12867C13.8524 4.30704 14.0024 4.52396 14.1022 4.76494C14.2019 5.00592 14.2491 5.26541 14.2406 5.52609C14.2321 5.78676 14.168 6.04262 14.0527 6.27657L13.6321 7.1319C13.5757 7.24639 13.5464 7.37229 13.5464 7.4999C13.5464 7.62751 13.5757 7.75341 13.6321 7.8679L14.0527 8.72323C14.1679 8.95715 14.2319 9.21295 14.2403 9.47354C14.2488 9.73414 14.2016 9.99354 14.1018 10.2344C14.0021 10.4753 13.8521 10.6922 13.6619 10.8705C13.4716 11.0488 13.2456 11.1845 12.9987 11.2686L12.0961 11.5752C11.9753 11.6164 11.8657 11.6848 11.7755 11.7751C11.6853 11.8653 11.6171 11.9751 11.5761 12.0959L11.2687 12.9986C11.1847 13.2454 11.049 13.4715 10.8707 13.6617C10.6924 13.8519 10.4755 14.0019 10.2346 14.1016C9.99373 14.2014 9.73432 14.2486 9.47373 14.2401C9.21313 14.2317 8.95733 14.1677 8.72341 14.0526L7.86808 13.6319C7.75359 13.5755 7.62769 13.5462 7.50008 13.5462C7.37247 13.5462 7.24657 13.5755 7.13208 13.6319L6.27675 14.0526C6.04283 14.1677 5.78703 14.2317 5.52644 14.2401C5.26584 14.2486 5.00644 14.2014 4.76554 14.1016C4.52464 14.0019 4.30779 13.8519 4.12947 13.6617C3.95114 13.4715 3.81544 13.2454 3.73141 12.9986L3.42475 12.0959C3.38349 11.9751 3.31502 11.8654 3.22463 11.7752C3.13424 11.685 3.02434 11.6168 2.90341 11.5759L2.00141 11.2686C1.75453 11.1846 1.5284 11.049 1.33811 10.8707C1.14782 10.6924 0.997758 10.4755 0.897939 10.2346C0.798119 9.99372 0.750839 9.73429 0.759256 9.47366C0.767673 9.21303 0.831593 8.9572 0.946748 8.72323L1.36808 7.8679C1.42443 7.75341 1.45374 7.62751 1.45374 7.4999C1.45374 7.37229 1.42443 7.24639 1.36808 7.1319L0.946748 6.27657C0.831593 6.0426 0.767673 5.78677 0.759256 5.52614C0.750839 5.26551 0.798119 5.00608 0.897939 4.76517C0.997758 4.52427 1.14782 4.30743 1.33811 4.12913C1.5284 3.95084 1.75453 3.81518 2.00141 3.73123L2.90341 3.42457C3.02436 3.38339 3.13421 3.31497 3.2245 3.22457C3.31478 3.13417 3.38306 3.02423 3.42408 2.90323L3.73075 2.00123C3.80827 1.77323 3.92996 1.56273 4.08885 1.38176C4.24775 1.2008 4.44074 1.05291 4.6568 0.946548C4.87287 0.840188 5.10777 0.777438 5.34809 0.761884C5.58841 0.746331 5.82944 0.778277 6.05742 0.855899ZM10.5201 6.18657L7.22746 10.3321L4.73271 10.5997L3.99976 8.49976L3.73075 6.61045L4.88408 7.51257C4.84264 7.46034 4.55822 7.5318 4.49976 7.49976C4.44129 7.46771 4.60996 7.33281 4.54364 7.32598C4.47732 7.31915 4.43322 7.11245 4.36944 7.1319C4.30567 7.15135 4.22353 7.39655 4.17231 7.43924C4.12109 7.48192 4.07892 7.53441 4.04829 7.59363C4.01766 7.65285 3.99918 7.71759 3.99395 7.78406C3.98871 7.85052 3.99681 7.91736 4.01779 7.98065C4.03876 8.04393 4.07218 8.10239 4.11608 8.15257L5.78275 10.1526C5.82719 10.2059 5.88225 10.2494 5.94443 10.2803C6.00662 10.3112 6.07456 10.3289 6.14392 10.3321C6.21329 10.3353 6.28256 10.324 6.34732 10.2989C6.41209 10.2739 6.47092 10.2356 6.52008 10.1866L8.00675 7.2859L9.49976 4.99976L11.1781 4.76517L10.9998 5.99976L10.5201 6.18657C10.5692 6.14079 10.6086 6.08559 10.6359 6.02426C10.6633 5.96293 10.678 5.89672 10.6791 5.82958C10.6803 5.76245 10.668 5.69576 10.6428 5.6335C10.6177 5.57124 10.5803 5.51469 10.5328 5.46721C10.4853 5.41973 10.4287 5.3823 10.3665 5.35715C10.3042 5.332 10.2375 5.31965 10.1704 5.32084C10.1033 5.32202 10.0371 5.33672 9.97572 5.36405C9.91439 5.39137 10.5659 6.13744 10.5201 6.18657Z" fill="#B0B1C3"/>
</svg>
