<svg xmlns="http://www.w3.org/2000/svg" fill="none" viewBox="0 0 41 36"><path fill="#6B6D85" fill-rule="evenodd" d="M17.25 9.28a.6.6 0 0 1 .42 0l5.16 1.94c.23.08.39.3.39.55v4.52c0 2.2-1.46 3.97-2.79 5.13a14.59 14.59 0 0 1-2.64 1.82l-.05.03h-.01l-.27-.52-.26.53h-.01l-.01-.01-.05-.03a8.62 8.62 0 0 1-.79-.45c-.5-.32-1.18-.78-1.85-1.37-1.33-1.16-2.79-2.93-2.79-5.13v-4.52a.6.6 0 0 1 .39-.55l5.16-1.94Zm.21 13.47-.26.53c.16.08.36.08.52 0l-.26-.53Zm0-.67a12.57 12.57 0 0 0 2.2-1.55c1.25-1.1 2.38-2.56 2.38-4.24v-4.11l-4.58-1.72-4.58 1.72v4.11c0 1.68 1.13 3.14 2.39 4.24a13.41 13.41 0 0 0 2.19 1.55Z" clip-rule="evenodd"/><path fill="#6B6D85" fill-rule="evenodd" d="M4.24 4.98A4.98 4.98 0 0 1 9.23 0h26.34a4.98 4.98 0 0 1 4.98 4.98v2.96c0 .32-.26.58-.58.58h-8.2l.13 22.5A4.98 4.98 0 0 1 26.92 36H4.98A4.98 4.98 0 0 1 0 31.02v-2.9c0-.32.26-.58.58-.58h3.66V4.98ZM5.4 27.54h17.12c.32 0 .58.26.58.58v2.9a3.82 3.82 0 0 0 7.65 0L30.6 7.95l-.01-2.97c0-1.54.7-2.91 1.79-3.83H9.2A3.83 3.83 0 0 0 5.4 4.98v22.56ZM35.57 1.15a3.82 3.82 0 0 0-3.83 3.83l.02 2.39h7.63V4.98a3.82 3.82 0 0 0-3.82-3.83Zm-11.84 33.7a4.97 4.97 0 0 1-1.79-3.83V28.7H1.15v2.32a3.82 3.82 0 0 0 3.83 3.83h18.75Z" clip-rule="evenodd"/></svg>