<svg  viewBox="0 0 16 16" fill="currentColor" xmlns="http://www.w3.org/2000/svg"><path d="M11.333 2.227a6.667 6.667 0 1 1-9.996 5.99L1.333 8l.004-.216a6.667 6.667 0 0 1 9.996-5.557M8 4a.667.667 0 0 0-.662.589l-.005.078V8l.006.087a.65.65 0 0 0 .132.318l.058.067 2 2 .062.055a.67.67 0 0 0 .818 0l.062-.056.056-.062a.67.67 0 0 0 0-.818l-.056-.062-1.804-1.806V4.667l-.005-.078A.667.667 0 0 0 8 4" fill="currentColor"/><g clip-path="url(#a)"><rect x="11.167" y="1" width="3" height="6" rx="1.5" fill="#FFF9E7"/><path d="M12.667 2v2m0 2v.007" stroke="currentColor" stroke-linecap="round" stroke-linejoin="round"/></g><defs><clipPath id="a"><rect x="11.167" y="1" width="3" height="6" rx="1.5" fill="#fff"/></clipPath></defs></svg>