<svg xmlns="http://www.w3.org/2000/svg" fill="none" viewBox="0 0 20 20"><path fill="#0278D5" d="M14.17 11.2a1.76 1.76 0 0 1 1.3.56 1.92 1.92 0 0 1 .53 1.35v.77a3.31 3.31 0 0 1-1.06 2.42c-1.27 1.14-3.1 1.7-5.44 1.7-2.35 0-4.17-.56-5.44-1.7A3.18 3.18 0 0 1 3 13.88v-.77c0-.5.2-1 .54-1.35.34-.36.8-.56 1.29-.56h9.34Zm0 1.28H4.83a.6.6 0 0 0-.43.18.65.65 0 0 0-.18.45v.77c0 .56.23 1.09.64 1.45 1.02.92 2.56 1.4 4.64 1.4 2.08 0 3.62-.48 4.64-1.4a1.9 1.9 0 0 0 .64-1.45v-.77a.65.65 0 0 0-.18-.45.6.6 0 0 0-.43-.19M9.5 1a.6.6 0 0 1 .4.16c.1.1.18.24.2.4v.71h2.85c.48 0 .95.2 1.3.56.34.36.53.85.53 1.36v3.83c0 .5-.2.99-.54 1.35-.34.36-.8.56-1.29.56h-6.9c-.5 0-.96-.2-1.3-.56a1.96 1.96 0 0 1-.54-1.35V4.19a1.99 1.99 0 0 1 .54-1.36 1.82 1.82 0 0 1 1.3-.56h2.84v-.63c0-.16.05-.3.15-.42A.6.6 0 0 1 9.42 1L9.5 1Zm3.45 2.55h-6.9a.6.6 0 0 0-.44.19.65.65 0 0 0-.18.45v3.83c0 .35.28.63.61.63h6.91a.6.6 0 0 0 .43-.18.65.65 0 0 0 .18-.45V4.19a.65.65 0 0 0-.18-.45.6.6 0 0 0-.43-.19ZM7.67 4.83a.98.98 0 0 1 .74.29 1.07 1.07 0 0 1 .32.77 1.1 1.1 0 0 1-.32.76 1.01 1.01 0 0 1-.74.3 1 1 0 0 1-.7-.33 1.09 1.09 0 0 1 0-1.47 1 1 0 0 1 .7-.33Zm3.65 0a.98.98 0 0 1 .74.29 1.07 1.07 0 0 1 .32.77 1.1 1.1 0 0 1-.32.76 1.01 1.01 0 0 1-.74.3 1 1 0 0 1-.7-.33 1.09 1.09 0 0 1 0-1.47 1 1 0 0 1 .7-.33Z"/></svg>