<svg xmlns="http://www.w3.org/2000/svg" fill="none" viewBox="0 0 28 28"><mask id="a" width="28" height="28" x="0" y="0" maskUnits="userSpaceOnUse" style="mask-type:luminance"><path fill="#fff" d="M0 5.75A5.55 5.55 0 0 1 5.54.2h16.64a5.55 5.55 0 0 1 5.54 5.55v16.66a5.55 5.55 0 0 1-5.54 5.55H5.54A5.55 5.55 0 0 1 0 22.4V5.75Z"/></mask><g mask="url(#a)"><path fill="#FF6740" fill-rule="evenodd" d="m25.85.2.07-.09-1.48-1.3-.66.73-.6.66H0v1.55l-1.36.84.52.84c.27.44.55.88.84 1.3v18.52h-.02l-.99.03.04 1.98.97-.02v2.72h27.72V10.37a34.62 34.62 0 0 0 2.17-3.56l.01-.04h.01v-.01l-.84-.39.84.38.41-.9-1.8-.81-.41.9-.02.03a7.07 7.07 0 0 1-.37.71V.2h-1.87Zm0 0h-2.66A32.63 32.63 0 0 1 6.95 9.67 32.6 32.6 0 0 1 .85 2.4l-.53-.84-.32.2v2.98a34.58 34.58 0 0 0 17.16 13.21A32.6 32.6 0 0 1 0 23.25v1.99h.02a34.52 34.52 0 0 0 27.7-14.87V6.68c-.2.36-.47.82-.82 1.35v.01l-.01.01a32.6 32.6 0 0 1-7.72 8.46 32.63 32.63 0 0 1-10.33-5.28A34.61 34.61 0 0 0 25.27.86l.58-.66Z" clip-rule="evenodd"/></g></svg>