<svg xmlns="http://www.w3.org/2000/svg" fill="none" viewBox="0 0 37 38"><path stroke="#000" stroke-width="1.46" d="M25.86 3H9.14A3.14 3.14 0 0 0 6 6.14v25.09c0 1.73 1.4 3.13 3.14 3.13h16.72c1.74 0 3.14-1.4 3.14-3.13V6.13C29 4.4 27.6 3 25.86 3Z"/><path fill="#fff" d="m31.43 16.02.92-.92a1.23 1.23 0 0 1 1.74 0l.87.88c.48.48.48 1.26 0 1.74l-.91.91m-2.62-2.61-5.92 5.92c-.2.2-.33.48-.36.77L25 24.39c-.03.39.29.7.67.67l1.69-.15c.29-.02.56-.15.76-.35l5.93-5.93m-2.62-2.61 2.62 2.61-2.62-2.61Z"/><path stroke="#0278D5" stroke-linecap="round" stroke-linejoin="round" stroke-width="1.5" d="m31.43 16.02.92-.92a1.23 1.23 0 0 1 1.74 0l.87.88c.48.48.48 1.26 0 1.74l-.91.91m-2.62-2.61-5.92 5.92c-.2.2-.33.48-.36.77L25 24.39c-.03.39.29.7.67.67l1.69-.15c.29-.02.56-.15.76-.35l5.93-5.93m-2.62-2.61 2.62 2.61"/><path stroke="#000" stroke-linecap="round" stroke-linejoin="round" stroke-width="1.46" d="M11 8.74h12.55M11 13.36h12.55M11 18.06h12.55"/><path stroke="#0278D5" stroke-width="1.2" d="M10.5 28.24c3.04-8.76 4.4.05 5-.58 0 0 1.2-1.87 2.41-1.87.62 0 1.09 2.45 1.09 2.45.5.6 4.46-2.99 5-3.08"/></svg>