<svg enable-background="new 0 0 38 38" viewBox="0 0 38 38" xmlns="http://www.w3.org/2000/svg"><g transform="translate(1 1)"><circle cx="18" cy="18" fill="#f7fcff" r="18" stroke="#d4ecfc"/><path d="m25.2 24.3c-.1-.3-.2-.6-.3-.9-.4-1-1.3-1.6-3.2-2.4-.2-.1-.7-.3-.7-.3-.2-.1-.4-.2-.6-.3 0-.1 0-.2 0-.4 0 0 0-.1 0-.2-.1-.1-.2-.1-.2-.2.3-.4.5-.8.6-1.2 0-.1 0-.1 0-.1.3-.3.6-.7.7-1.1.2-.4.3-.9.2-1.4 0-.5-.2-.9-.4-1.2 0-.6-.1-1.3-.2-1.8 0-.1 0-.1 0-.2.3-.1.6-.1.9-.1.6 0 1.2.2 1.7.5s.8.8 1 1.4c0 .1.1.2.1.4.1.4.1 1.1.1 1.6v.1c.2.1.3.2.3.6 0 .3-.1.5-.2.6-.1.2-.2.5-.5.6 0 .1-.1.2-.1.4-.2.5-.5 1-.9 1.3v.2c0 .4-.1.7 1 1.2s2.8 1 3.1 1.8.2 1.2.2 1.2zm-1.4-.5c.4 1 .3 1.6.3 1.6h-15.1s-.2-.6.3-1.6c.4-1 2.5-1.7 3.9-2.3s1.2-1 1.3-1.5c0-.1 0-.1 0-.2-.5-.4-.9-1-1.2-1.7 0-.1-.1-.3-.1-.5-.3-.1-.5-.4-.6-.8-.1-.1-.2-.5-.2-.8 0-.5.2-.7.5-.8 0 0 0 0 0-.1 0-.6.1-1.5.2-2.1 0-.2.1-.3.1-.5.2-.7.6-1.3 1.2-1.8s1.4-.7 2.2-.7 1.6.2 2.2.7 1 1.1 1.2 1.8c0 .2.1.3.1.5.1.6.2 1.4.2 2.1v.1c.2.1.4.3.4.8 0 .4-.1.7-.2.8-.1.3-.2.7-.6.7 0 .2-.1.3-.1.5-.3.7-.7 1.3-1.1 1.7v.2c0 .5-.1.9 1.3 1.5 1.3.7 3.4 1.4 3.8 2.4z" fill="#25a6f7"/></g></svg>