<svg enable-background="new 0 0 38 38" viewBox="0 0 38 38" xmlns="http://www.w3.org/2000/svg"><g transform="translate(1 1)"><circle cx="18" cy="18" fill="#f7fcff" r="18" stroke="#d4ecfc"/><path d="m18.9 9c-.2 0-.3.1-.4.3l-.1.7c-.6.2-1.1.5-1.5.9l-.7-.2c-.2 0-.3 0-.5.2l-.6 1c-.1.2 0 .3.1.5l.5.5v.9c0 .3 0 .6.1.9l-.5.5c-.1.1-.2.3-.1.5l.6 1c.1.2.3.2.5.2l.7-.2c.4.4 1 .7 1.5.9l.2.7c0 .2.2.3.4.3h1.1c.2 0 .3-.1.4-.3l.2-.7c.6-.2 1.1-.5 1.5-.9l.7.2c.2 0 .3 0 .5-.2l.6-1c.1-.2 0-.3-.1-.5l-.5-.5c.1-.3.1-.6.1-.9s0-.6-.1-.9l.5-.5c.1-.1.2-.3.1-.5l-.6-1c-.1-.2-.3-.2-.5-.2l-.7.2c-.4-.4-1-.7-1.5-.9l-.2-.7c-.2-.2-.3-.3-.5-.3zm.6 3.4c.7 0 1.1.5 1.1 1.1 0 .7-.5 1.1-1.1 1.1s-1.1-.5-1.1-1.1c-.1-.6.4-1.1 1.1-1.1zm-6.7 3.5c-.2 0-.3.1-.4.3l-.2.7c-.6.2-1.1.5-1.5.9l-.7-.2c-.2 0-.3 0-.5.2l-.6 1c.1 0 .1.2.2.3l.5.5v.9c0 .3 0 .6.1.9l-.5.5c-.2 0-.2.2-.1.4l.6 1c.1.2.3.2.5.2l.7-.2c.4.4 1 .7 1.5.9l.2.7c0 .2.2.3.4.3h1c.2 0 .3-.1.4-.3l.2-.7c.6-.2 1.1-.5 1.5-.9l.7.2c.2 0 .3 0 .5-.2l.6-1c.1-.2 0-.3-.1-.5l-.5-.5c.1-.3.1-.6.1-.9s0-.6-.1-.9l.5-.5c.1-.1.2-.3.1-.5l-.6-1c-.1-.2-.3-.2-.5-.2l-.8.4c-.4-.4-1-.7-1.5-.9l-.2-.7c0-.2-.2-.3-.4-.3h-1.1zm8.8 1.9c-.2 0-.3.1-.4.3l-.2.7c-.6.2-1.1.5-1.5.9l-.7-.2c-.2 0-.3 0-.5.2l-.6 1c-.1.2 0 .3.1.5l.5.5v.9s0 .6.1.9l-.4.2c-.1.1-.2.3-.1.5l.6 1c.1.2.3.2.5.2l.7-.2c.4.4 1 .7 1.5.9l.2.7c0 .2.2.3.4.3h1.1c.2 0 .3-.1.4-.3l.2-.7c.6-.2 1.1-.5 1.5-.9l.7.2c.2 0 .3 0 .5-.2l.6-1c.1-.2 0-.3-.1-.5l-.7-.4c.1-.3.1-.6.1-.9s0-.6-.1-.9l.5-.5c.1-.1.2-.3.1-.5l-.6-1c-.1-.2-.3-.2-.5-.2l-.7.2c-.4-.4-1-.7-1.5-.9l-.2-.7c0-.2-.2-.3-.4-.3h-1.1zm-8.2 1.5c.7 0 1.1.5 1.1 1.1 0 .7-.5 1.1-1.1 1.1s-1.1-.5-1.1-1.1c-.1-.6.4-1.1 1.1-1.1zm8.8 1.6c.8 0 1.5.7 1.5 1.5s-.7 1.5-1.5 1.5-1.5-.7-1.5-1.5c-.1-.8.6-1.5 1.5-1.5z" fill="#25a6f7"/></g></svg>