<svg enable-background="new 0 0 38 38" viewBox="0 0 38 38" xmlns="http://www.w3.org/2000/svg"><g transform="translate(1 1)"><circle cx="18" cy="18" fill="#f7fcff" r="18" stroke="#d4ecfc"/><path d="m13.4 9c-.4 0-.7.3-.7.7v.7h-2c-.4 0-.7.3-.7.7v13.6c0 .4.3.7.7.7h14.3c.4 0 .7-.3.7-.7v-2.7c0-.1-.1-.2-.2-.3s-.2-.1-.3 0c-.2 0-.2.1-.2.2v2.7h-14.3v-10.2h14.3v2.4c0 .1.1.2.2.3s.2.1.3 0 .2-.2.2-.3v-5.8c0-.4-.3-.7-.7-.7h-2v-.6c0-.4-.3-.7-.7-.7h-.7c-.4 0-.7.3-.7.7v.7h-6.1v-.7c0-.4-.3-.7-.7-.7zm0 .7h.7v2h-.7v-1-.1zm8.2 0h.7v1 .1 1h-.7zm-10.9 1.3h2v.7c0 .4.3.7.7.7h.7c.4 0 .7-.3.7-.7v-.7h6.1v.7c0 .4.3.7.7.7h.7c.4 0 .7-.3.7-.7v-.7h2v2.7h-14.3zm12.4 5.6c-.1 0-.3.1-.3.2-.1.1 0 .3.1.4l1.6 1.7h-6c-.1 0-.2.1-.3.2s-.1.2 0 .3.2.2.3.2h6l-1.6 1.7c-.1.1-.1.3 0 .5.1.1.3.1.5 0l2.4-2.5-2.4-2.5c-.1-.1-.2-.2-.3-.2z" fill="#00ade4"/></g></svg>