<svg fill="none" viewBox="0 0 64 64" xmlns="http://www.w3.org/2000/svg"><path clip-rule="evenodd" d="m35.7424 7.66436 5.153 4.98964c1.4105 1.3724 1.8713 3.0627 1.2848 4.7732-.405 1.1899-1.194 1.9743-1.2848 2.0621l-5.153 4.9897c-.5509.5334-1.1534.9266-1.7873 1.1744l.0001 23.1269-.0001 5.5526c0 .856-.7164 1.55-1.6 1.55h-5.7316c-.8837 0-1.6-.694-1.6-1.55 0-.8561.7163-1.55 1.6-1.55h4.1316l.0001-2.4526h-4.1318c-.8837 0-1.6-.694-1.6-1.55 0-.8561.7163-1.55 1.6-1.55h4.1318l-.0001-21.5288c-1.1926-.4042-1.9757-1.143-2.0649-1.2293l-5.153-4.9896c-1.4104-1.3725-1.8713-3.0628-1.2848-4.7665.405-1.19 1.194-1.9742 1.2848-2.0621l5.153-4.98964c1.4174-1.36572 3.1631-1.81195 4.9226-1.24403 1.2289.39214 2.0389 1.15613 2.1296 1.24403zm-2.0951 2.0165c-.086-.07154-.4967-.41324-1.033-.56965-.8518-.2434-1.4244.18254-1.8364.57468l-1.5291 1.48061 2.9675 2.8735 2.9676-2.8735-1.5222-1.47385c-.0026-.00202-.0075-.00603-.0144-.01179zm-8.0274 5.00164c-.0736.0829-.4268.4807-.5885 1.0004-.2513.818.1886 1.3792.5935 1.7781l1.5292 1.4807 2.9675-2.8734-2.9675-2.8735-1.5222 1.4739c-.0021.0025-.0062.0072-.012.0138zm5.1653 7.7731c.0858.0714.4967.4133 1.0331.5697.8449.2434 1.4244-.1825 1.8364-.5747l1.5292-1.4806-2.9676-2.8735-2.9675 2.8735 1.5221 1.4739c.0026.002.0074.006.0143.0117zm8.0274-5.0015c.0734-.0826.4269-.4806.5885-1.0005.2515-.8248-.1885-1.3792-.5934-1.7781l-1.5291-1.4807-2.9676 2.8735 2.9676 2.8734 1.5221-1.4739c.002-.0025.0061-.0071.0119-.0137z" fill="#0278d5" fill-rule="evenodd"/></svg>