<svg fill="none" viewBox="0 0 54 62" xmlns="http://www.w3.org/2000/svg"><g stroke="#05aab6" stroke-width="2.278"><path d="m26.699 42.578h-22.421a2.278 2.278 0 0 1 -2.278-2.278v-24.553a2.278 2.278 0 0 1 2.278-2.278h24.553a2.278 2.278 0 0 1 2.278 2.278v20.215"/><rect height="10.954" rx="1.139" width="10.954" x="11.079" y="23.424"/><path d="m31.991 47.869h-3.897a2.278 2.278 0 0 1 -2.278-2.278v-7.794a2.278 2.278 0 0 1 2.278-2.277h7.794a2.278 2.278 0 0 1 2.278 2.277v3.897"/><path d="m40.223 54.045h-5.955a2.278 2.278 0 0 1 -2.278-2.278v-7.794a2.278 2.278 0 0 1 2.278-2.278h7.794a2.278 2.278 0 0 1 2.278 2.278v4.309"/><rect height="11.836" rx="1.139" width="11.836" x="40.186" y="48.127"/><path d="m6.41 13.467v-8.82c0-1.325 0-2.647 2.66-2.647h15.436c3.334 0 3.075 1.323 3.075 2.646v5.734h-3.97v-3.087c0-.883 0-1.765-1.764-1.765h-9.262c-1.323 0-1.764.649-1.764 1.765v6.174"/></g></svg>