<svg viewBox="0 0 24 24" fill="none" xmlns="http://www.w3.org/2000/svg">
<path d="M8.09321 10L8.09256 6.90744C8.09256 4.74942 9.84198 3 12 3C14.158 3 15.9074 4.74942 15.9074 6.90744L15.9081 10M10.3473 14.2623C10.3473 13.3493 11.0874 12.6092 12.0004 12.6092C12.9134 12.6092 13.6536 13.3493 13.6536 14.2623C13.6536 14.7563 13.4369 15.1997 13.0934 15.5026C12.9636 15.617 12.8703 15.7736 12.8703 15.9467V18.3179C12.8703 18.594 12.6464 18.8179 12.3703 18.8179H11.6306C11.3545 18.8179 11.1306 18.594 11.1306 18.3179V15.9467C11.1306 15.7736 11.0372 15.617 10.9074 15.5026C10.564 15.1997 10.3473 14.7563 10.3473 14.2623ZM5.5 22H18.5C18.7761 22 19 21.7761 19 21.5V10.5001C19 10.2239 18.7761 10.0001 18.5 10.0001H5.5C5.22386 10.0001 5 10.2239 5 10.5001V21.5C5 21.7761 5.22386 22 5.5 22Z" stroke="#4F5162"/>
</svg>
