<svg xmlns="http://www.w3.org/2000/svg" width="120" height="75" fill="none" viewBox="0 0 120 75">
  <path fill="#fff" d="M52.383 63.753l5.637-4.4h16.677v3.628l-5.25 4.015H52.382v-3.243zM101.938 56.2a3.944 3.944 0 11-7.888 0 3.944 3.944 0 017.888 0zM112.499 51.801a3.943 3.943 0 11-7.886.002 3.943 3.943 0 017.886-.002zM18.794 60.096a6.9 6.9 0 11-13.8 0 6.9 6.9 0 0113.8 0zM101.604 71.146l-1.069-1.738-4.947-5.949 8.423-4.746 4.612 4.746s1.012-5.749 3.676-5.749c2.073 0 4.078 7.754 4.078 7.754h-7.152l-7.621 5.682z"/>
  <path fill="#000" fill-rule="evenodd" d="M37.327 57.882a.478.478 0 01-.054.292c-.354.708-1.134 1.277-1.95 1.717-.823.443-1.719.775-2.349.992-.939.323-1.774.594-2.538.82.525.067 1.05.084 1.472.098.195.007.37.013.51.022 3.51.235 7.057.303 10.572.183 1.983-.068 3.46-.21 4.808-.34.428-.042.844-.082 1.26-.118 1.722-.15 3.419-.229 5.938-.035a.193.193 0 01-.03.385 33.111 33.111 0 00-5.875.034c-.41.036-.823.075-1.25.117-1.35.13-2.842.274-4.838.342-3.528.121-7.088.053-10.61-.183a14.98 14.98 0 00-.467-.02c-.494-.016-1.169-.038-1.8-.138a6.084 6.084 0 01-.529-.107c-1.362.372-2.507.596-3.654.729-1.713.199-3.428.196-5.87.192l-1.15-.001a.193.193 0 010-.386l1.15.001c2.447.004 4.137.007 5.826-.19.967-.112 1.934-.29 3.043-.57a2.872 2.872 0 01-.046-.023c-.36-.178-.663-.434-.8-.806-.174-.477-.004-.895.314-1.23.31-.33.779-.6 1.268-.82.924-.414 1.994-.674 2.432-.78l.076-.02c.163-.04 1.52-.341 2.773-.5.624-.08 1.238-.125 1.67-.08.207.022.412.068.548.176a.396.396 0 01.15.247zm-7.732 3.662a3 3 0 01-.529-.195c-.309-.153-.517-.347-.607-.593-.109-.296-.021-.565.23-.832.26-.274.672-.52 1.147-.733.89-.399 1.928-.652 2.367-.759l.075-.018a31.312 31.312 0 012.73-.492c.62-.08 1.197-.12 1.58-.08.199.021.306.06.349.095a.058.058 0 01.01.009.142.142 0 01-.019.055c-.298.596-.985 1.117-1.787 1.55-.795.429-1.668.752-2.293.967a55.257 55.257 0 01-3.253 1.026zm7.353-3.596l-.001-.001z" clip-rule="evenodd"/>
  <path fill="#000" fill-rule="evenodd" d="M58.603 58.885a.193.193 0 01-.03.271c-1.237.99-2.635 2.06-3.935 3.056-.727.557-1.424 1.09-2.045 1.574a.193.193 0 11-.237-.305c.626-.486 1.325-1.022 2.054-1.58 1.297-.993 2.688-2.058 3.922-3.046a.193.193 0 01.271.03z" clip-rule="evenodd"/>
  <path fill="#000" fill-rule="evenodd" d="M51.318 63.517a.193.193 0 01.198-.187c4.19.114 8.383.076 12.58.038 2.1-.02 4.2-.038 6.3-.038a.193.193 0 110 .385c-2.093 0-4.19.02-6.287.038-4.201.038-8.407.076-12.604-.038a.193.193 0 01-.188-.198z" clip-rule="evenodd"/>
  <path fill="#000" fill-rule="evenodd" d="M52.385 63.33a.193.193 0 01.175.209c-.095 1.124-.182 2.164-.002 3.244a.193.193 0 11-.38.063c-.19-1.135-.097-2.222-.002-3.34a.193.193 0 01.209-.176z" clip-rule="evenodd"/>
  <path fill="#000" fill-rule="evenodd" d="M51.84 66.785a.193.193 0 01.195-.189l.26.004c6.313.107 11.282.191 17.528-.004a.193.193 0 01.012.385c-6.255.196-11.232.112-17.542.005l-.264-.004a.193.193 0 01-.19-.197zM56.059 59.392c0-.107.086-.193.192-.193H76a.193.193 0 110 .386H56.25a.193.193 0 01-.192-.193z" clip-rule="evenodd"/>
  <path fill="#000" fill-rule="evenodd" d="M75.822 58.492c.071.08.064.202-.016.273-1.564 1.386-3.255 2.592-4.942 3.795-.502.357-1.003.714-1.5 1.076a.193.193 0 01-.227-.312c.504-.366 1.01-.727 1.514-1.086 1.684-1.2 3.352-2.39 4.9-3.762a.193.193 0 01.271.016z" clip-rule="evenodd"/>
  <path fill="#000" fill-rule="evenodd" d="M69.443 63.055c.107 0 .193.087.193.193V67.298a.193.193 0 11-.385 0v-1.814-2.236c0-.106.086-.193.192-.193zM74.65 58.428c.106 0 .193.086.193.192v4.547a.193.193 0 11-.386 0V58.62c0-.106.086-.192.193-.192z" clip-rule="evenodd"/>
  <path fill="#000" fill-rule="evenodd" d="M76.598 61.183a.193.193 0 010 .273c-1.799 1.799-3.868 3.269-5.924 4.728-.438.312-.876.622-1.31.936a.193.193 0 01-.226-.313c.44-.317.88-.63 1.322-.944 2.054-1.459 4.092-2.906 5.866-4.68a.193.193 0 01.272 0z" clip-rule="evenodd"/>
  <path fill="#000" fill-rule="evenodd" d="M94.065 60.594c-.022.29-.21.582-.55.872a3.344 3.344 0 01-.681.443c.157.038.317.074.48.106.618.123 1.258.204 1.843.271l.302.035c.462.052.883.1 1.207.159a.193.193 0 11-.069.38c-.31-.057-.714-.103-1.177-.155l-.307-.035c-.587-.068-1.24-.15-1.874-.277-.337-.067-.671-.147-.99-.245-.2.067-.404.122-.609.168-.663.15-1.353.21-1.951.262l-.045.004c-2.383.209-4.795.138-7.167.035-.55-.023-1.111-.056-1.684-.09-2.521-.147-5.267-.308-8.23.244a.193.193 0 11-.07-.379c3.014-.562 5.815-.397 8.339-.249.568.033 1.122.066 1.661.09 2.372.102 4.762.171 7.117-.035l.036-.003c.604-.053 1.272-.111 1.91-.255a6.19 6.19 0 00.074-.017 4.69 4.69 0 01-.177-.08c-.527-.252-.974-.59-1.23-1.06a.59.59 0 01-.074-.36.599.599 0 01.143-.31c.139-.164.358-.285.572-.373a4.63 4.63 0 011.14-.285c.29-.027.612-.001.91.07.297.07.585.188.799.357.216.171.375.411.352.712zm-1.821 1.147a5.268 5.268 0 01-.625-.246c-.488-.233-.855-.526-1.056-.895a.207.207 0 01-.032-.128.217.217 0 01.056-.11c.078-.092.226-.184.424-.265.39-.161.872-.244 1.028-.258.246-.023.526-.001.787.06.262.063.492.162.648.285.153.122.216.25.207.38-.011.142-.11.347-.416.608a3.3 3.3 0 01-1.021.57z" clip-rule="evenodd"/>
  <path fill="#000" fill-rule="evenodd" d="M105.211 58.096c.052.093.02.21-.072.264-3.358 1.919-6.695 3.817-10.203 5.493a.193.193 0 01-.166-.348c3.493-1.669 6.818-3.56 10.177-5.48a.194.194 0 01.264.072z" clip-rule="evenodd"/>
  <path fill="#000" fill-rule="evenodd" d="M95.358 63.095a.193.193 0 01.27.036c1.674 2.176 4.542 5.84 6.356 7.896.07.08.062.201-.017.272a.194.194 0 01-.273-.017c-1.823-2.066-4.699-5.741-6.371-7.916a.193.193 0 01.035-.27z" clip-rule="evenodd"/>
  <path fill="#000" fill-rule="evenodd" d="M109.507 65.439a.193.193 0 01-.025.271c-1.103.92-2.307 1.756-3.532 2.605l-.204.142c-1.297.9-2.613 1.824-3.871 2.894a.193.193 0 01-.25-.294c1.274-1.084 2.605-2.017 3.901-2.917l.2-.139c1.228-.852 2.419-1.679 3.509-2.587a.193.193 0 01.272.025zM52.037 64.653c.06-.087.18-.109.268-.048.924.64 1.845 1.283 2.763 1.93a.193.193 0 11-.222.316c-.918-.647-1.838-1.29-2.76-1.93a.193.193 0 01-.05-.268zM54.301 63.685a.193.193 0 01.27-.044c.382.276.771.548 1.161.82.998.698 2.005 1.403 2.943 2.184a.193.193 0 11-.247.296c-.924-.77-1.911-1.46-2.903-2.154-.394-.275-.788-.55-1.18-.832a.193.193 0 01-.044-.27zM57.824 63.625a.193.193 0 01.268-.055c.53.35 1.05.712 1.566 1.072 1.02.71 2.033 1.416 3.113 2.016a.193.193 0 11-.187.337c-1.097-.61-2.138-1.335-3.169-2.052a73.497 73.497 0 00-1.536-1.05.193.193 0 01-.055-.268zM61.086 63.491a.193.193 0 01.267-.053c1.506 1.001 3.008 1.99 4.552 2.924a.193.193 0 01-.2.33c-1.551-.938-3.06-1.931-4.566-2.933a.193.193 0 01-.053-.268zM65.185 63.316a.193.193 0 01.27-.038 60.58 60.58 0 004.213 2.919.193.193 0 11-.205.327 60.99 60.99 0 01-4.24-2.938.193.193 0 01-.038-.27zM104.168 58.336a.192.192 0 01.261.078l.145.27c1.018 1.901 2.028 3.787 4.083 4.577a.193.193 0 11-.138.36c-2.194-.844-3.268-2.852-4.267-4.721l-.163-.303a.193.193 0 01.079-.261z" clip-rule="evenodd"/>
  <path fill="#000" fill-rule="evenodd" d="M108.239 63.258a.194.194 0 01.33.14c0 .05-.019.087-.031.107-.022.035-.051.056-.06.063a.495.495 0 01-.077.043 2.257 2.257 0 01-.171.07 6.01 6.01 0 01-.283.098 4.79 4.79 0 01-1.286.18l-.089.004c.049.083.09.163.119.22l.021.04c.28.535.324 1.095.196 1.67-.172.775-.6 1.44-1.035 2.044-.572.794-1.333 1.231-2.158 1.642a.192.192 0 11-.171-.346c.816-.406 1.502-.809 2.016-1.522.431-.6.818-1.209.971-1.9.111-.501.071-.966-.161-1.41l-.025-.048c-.041-.079-.092-.179-.153-.272a.979.979 0 00-.085-.113.951.951 0 01-.077-.011.217.217 0 01-.172-.264.218.218 0 01.268-.163.433.433 0 01.132.06c.03 0 .062 0 .095-.002l.117-.006c.063-.003.129-.007.184-.008a4.413 4.413 0 001.184-.164c.017-.006.141-.046.257-.09.056-.021.106-.04.138-.056a.3.3 0 01.006-.006zM69.587 62.972a.193.193 0 01.272-.017c.16.141.319.284.477.427.527.476 1.049.947 1.62 1.343.154.106.305.184.482.26a.193.193 0 01-.154.354 3.135 3.135 0 01-.547-.297c-.595-.412-1.141-.906-1.672-1.385-.155-.14-.308-.278-.46-.413a.193.193 0 01-.018-.272zM71.433 61.998a.193.193 0 01.265-.06l.045.028c.77.485 1.537.967 2.322 1.417l.043.024c.084.048.18.102.27.174a.193.193 0 11-.24.301 1.56 1.56 0 00-.215-.136l-.05-.028a65.067 65.067 0 01-2.38-1.454.193.193 0 01-.06-.266zM73.282 60.475a.193.193 0 01.272-.016c.353.314.715.615 1.08.918l.413.343a.193.193 0 11-.248.296l-.406-.339c-.367-.304-.737-.611-1.095-.93a.193.193 0 01-.016-.272z" clip-rule="evenodd"/>
  <path fill="#000" fill-rule="evenodd" d="M72.845 61.923a.193.193 0 00-.258-.233c-.024.01-.059.022-.1.037a3.3 3.3 0 00-.476.204.94.94 0 00-.3.248.502.502 0 00-.089.425c.061.256.3.386.488.45.199.067.421.087.574.075.299-.025.645-.175.86-.437a5.25 5.25 0 00.294-.136 3.39 3.39 0 00.148-.07.697.697 0 00.233-.18.213.213 0 00.04-.173.21.21 0 00-.11-.143.324.324 0 00-.134-.03 1.077 1.077 0 00-.171.009c-.085.011-.17.029-.254.048a.499.499 0 00-.172-.09 1.181 1.181 0 00-.573-.004zm.223.355a.942.942 0 00-.401.128.41.41 0 00-.15.142.66.66 0 00.073 0 2.487 2.487 0 00.535-.11.192.192 0 01-.057-.16zm-.954.359a.37.37 0 01.007-.118.612.612 0 01.159-.294 1.458 1.458 0 00-.08.042.567.567 0 00-.178.14c-.027.038-.034.069-.025.108.009.035.043.08.117.122zM53.947 60.988c.342-.086.757-.049 1.005.004.096.02.2.053.27.119a.255.255 0 01.083.173.265.265 0 01-.051.166.569.569 0 01-.188.154l-.013.007a.193.193 0 01.172.315 1.281 1.281 0 01-.4.297c-.16.08-.345.145-.53.172a.995.995 0 01-.556-.057.655.655 0 01-.37-.472c-.055-.238-.018-.444.108-.603a.85.85 0 01.47-.275zm.502.445a3.553 3.553 0 00.264-.09 1.928 1.928 0 00-.672.019.497.497 0 00-.251.129 15.1 15.1 0 01.66-.058zm-.62.507c.02.02.045.035.07.047.081.037.198.048.339.027a1.404 1.404 0 00.546-.212 8.71 8.71 0 00-.267.013 4.662 4.662 0 01-.486.112.902.902 0 01-.196.013h-.007zM10.98 57.059c.107 0 .193.086.193.192v7.154a.193.193 0 11-.385 0v-2.628-4.526c0-.106.086-.192.192-.192z" clip-rule="evenodd"/>
  <path fill="#000" fill-rule="evenodd" d="M9.892 57.285a.193.193 0 01.272-.025c.895.746 1.593 1.12 2.486 1.6.4.214.841.45 1.356.75.256.15.508.266.736.363l.176.075c.155.065.299.125.41.182.078.04.154.086.214.139.06.053.122.13.136.236a.377.377 0 01-.082.277 1.033 1.033 0 01-.224.208 58.119 58.119 0 01-2.792 1.878l-.364.233c-.77.493-1.48.947-2.065 1.362a.193.193 0 11-.222-.315c.593-.42 1.311-.88 2.08-1.372l.363-.233a57.622 57.622 0 002.773-1.865.703.703 0 00.139-.122.683.683 0 00-.132-.083 5.54 5.54 0 00-.368-.163l-.195-.083a7.006 7.006 0 01-.777-.383 40.533 40.533 0 00-1.314-.727c-.91-.489-1.655-.889-2.581-1.66a.193.193 0 01-.025-.272zm5.409 3.388zm-.005-.037z" clip-rule="evenodd"/>
  <path fill="#000" fill-rule="evenodd" d="M9.807 54.597c1.316-.212 2.7-.15 3.74-.025 1.17.142 2.377.714 3.38 1.554 1.004.84 1.815 1.96 2.18 3.212.691 2.367-.307 4.775-1.855 6.347-2.054 2.084-5.414 2.361-8.226 1.41-1.147-.388-1.928-.916-2.532-1.638-.599-.716-1.013-1.613-1.443-2.717a.19.19 0 01-.009-.031c-.102-.495-.172-1.224-.16-2.003a.192.192 0 01-.08-.126c-.116-.698.07-1.477.387-2.217.32-.743.783-1.468 1.25-2.066.78-1.001 2.057-1.489 3.368-1.7zm-.724.546a.193.193 0 01-.136.141c-.774.217-1.288.474-1.725.852-.442.382-.816.895-1.296 1.646-.393.615-.583 1.533-.64 2.462-.057.916.017 1.81.13 2.371.426 1.092.82 1.933 1.374 2.595.55.659 1.269 1.15 2.36 1.52 2.726.922 5.912.628 7.827-1.316 1.48-1.503 2.401-3.772 1.76-5.968-.34-1.166-1.101-2.224-2.057-3.024-.957-.801-2.096-1.335-3.18-1.467-1.019-.123-2.364-.181-3.632.023a8.028 8.028 0 00-.785.165zM106.206 65.501a.193.193 0 01.244-.122c.307.102.521.218.747.346l.087.05c.199.114.416.24.728.383a.193.193 0 11-.161.35c-.329-.151-.56-.284-.759-.399l-.086-.049a3.512 3.512 0 00-.678-.315.193.193 0 01-.122-.244zm-.08 1.262a.193.193 0 00-.275.266l.152-.117-.152.118.001.001.001.002.003.004.005.005.01.01c.005.005.01.01.015.013l.029.021c.022.014.054.033.107.061.106.057.303.155.672.326a.193.193 0 00.162-.35c-.367-.17-.556-.264-.652-.316a1.235 1.235 0 01-.078-.044z" clip-rule="evenodd"/>
  <g>
    <path fill="#fff" d="M100.604 68.454a3.664 3.664 0 01-3.664 3.664c-2.023 0-4.435-1.64-4.435-3.664 0-2.023 2.412-3.663 4.435-3.663a3.664 3.664 0 013.664 3.663z"/>
    <path fill="#000" fill-rule="evenodd" d="M93.352 66.505c-.883 1.386-.8 2.71-.183 3.687.623.986 1.803 1.64 3.15 1.64 1.926 0 3.247-1.061 3.81-2.325.566-1.27.361-2.717-.726-3.537-1.937-1.452-4.623-1.324-6.05.535zm-.31-.227c1.58-2.069 4.521-2.17 6.593-.616 1.266.954 1.466 2.611.846 4.002-.623 1.398-2.079 2.554-4.163 2.554-1.469 0-2.776-.714-3.475-1.82-.703-1.114-.774-2.603.189-4.107a.156.156 0 01.01-.013z" clip-rule="evenodd"/>
    <path fill="#000" fill-rule="evenodd" d="M97.454 65.84a.193.193 0 01-.053.268l-.16.105c-.287.191-.61.405-.904.63-.354.27-.644.538-.785.78a.193.193 0 11-.333-.195c.183-.312.526-.62.884-.892.306-.233.64-.455.928-.646l.156-.103a.193.193 0 01.267.053z" clip-rule="evenodd"/>
    <path fill="#000" fill-rule="evenodd" d="M95.226 67.447c0-.106.086-.193.192-.193.352 0 .766.099 1.156.227.393.13.776.293 1.07.435a.193.193 0 11-.167.348 8.759 8.759 0 00-1.023-.417c-.377-.123-.745-.207-1.036-.207a.193.193 0 01-.192-.193z" clip-rule="evenodd"/>
    <path fill="#000" fill-rule="evenodd" d="M96.46 67.147c-.388.092-.73.257-.904.435a.193.193 0 01-.275-.27c.247-.252.67-.44 1.091-.54.422-.1.893-.121 1.247.007 1.125.406 1.49 1.638 1.093 2.653-.183.468-.613 1.105-1.242 1.428-.319.164-.69.247-1.1.183-.41-.064-.844-.272-1.293-.666a.193.193 0 11.254-.29c.408.357.776.525 1.098.575.32.05.61-.013.865-.145.521-.267.898-.816 1.059-1.225.336-.86.012-1.834-.865-2.15-.254-.092-.64-.086-1.028.005z" clip-rule="evenodd"/>
  </g>
  <path fill="#000" fill-rule="evenodd" d="M106.129 64.207l.03.01.094.036a13.693 13.693 0 001.632.532.193.193 0 00.093-.374 13.384 13.384 0 01-1.142-.356 31.239 31.239 0 01-.545-.2l-.039-.013a.867.867 0 00-.017-.006l-.014-.004a.225.225 0 00-.014-.002.193.193 0 00-.078.377zM96.518 61.938a1.644 1.644 0 00-.463-.051c-.098.004-.26.02-.407.059a.786.786 0 00-.181.07.256.256 0 00-.05.035.38.38 0 00.044.02c.116.048.308.08.533.098.232.018.469.021.653.02a.192.192 0 01.007-.206 1.146 1.146 0 00-.136-.045zm.594.3a.245.245 0 00.066-.051.22.22 0 00.052-.185.266.266 0 00-.063-.128c-.143-.164-.354-.257-.55-.31-.2-.052-.41-.069-.577-.063a2.368 2.368 0 00-.492.073 1.168 1.168 0 00-.272.107.532.532 0 00-.222.222.338.338 0 00.017.347c.062.091.16.145.245.18.175.07.417.105.647.123a7.975 7.975 0 00.906.017l.052-.001h.022l.023-.001h.007a.193.193 0 00.14-.33z" clip-rule="evenodd"/>
  <g>
    <path fill="#000" fill-rule="evenodd" d="M42.712 7.79c.106.002.19.09.187.197-.068 2.502-.693 4.806-1.45 7.171-.595 1.855-1.362 3.203-2.166 4.616-.351.618-.71 1.248-1.064 1.939a.193.193 0 11-.343-.176c.37-.72.736-1.365 1.092-1.99.794-1.395 1.531-2.691 2.113-4.507.755-2.357 1.366-4.618 1.433-7.063a.193.193 0 01.198-.188zM44.475 15.473c.09.058.115.178.057.267l-3.66 5.657a.193.193 0 11-.324-.21l3.66-5.657a.193.193 0 01.267-.057z" clip-rule="evenodd"/>
  </g>
  <g>
    <path fill="#000" fill-rule="evenodd" d="M111.551 58.63a.193.193 0 01.237.136c.034.128.063.256.088.385a.698.698 0 01.051-.221.209.209 0 01.209-.114.237.237 0 01.116.049c.039.029.075.07.104.105.06.075.132.18.198.285.068.105.133.216.183.304a3.843 3.843 0 01.083.162l.01.028.001.003c.307.727.414 1.666.147 2.415a.193.193 0 11-.363-.13c.228-.64.14-1.484-.145-2.149a.13.13 0 01-.009-.026l-.008-.017a5.482 5.482 0 00-.152-.268c.015.079.032.153.048.223.014.06.028.118.039.174a.025.025 0 01.001.008c.102.662.102 1.321.102 1.964v.007l.003.055.003.058c.002.05.004.115 0 .17a.365.365 0 01-.022.104.211.211 0 01-.07.093.204.204 0 01-.189.032.23.23 0 01-.094-.062.328.328 0 01-.04-.054.955.955 0 01-.06-.121l-.002-.003c-.235-.575-.311-1.16-.368-1.721l-.023-.241c-.046-.482-.09-.943-.213-1.395a.192.192 0 01.135-.237zm.434 1.305l.028.296.023.234c.016.16.034.32.055.476a7.92 7.92 0 00-.082-.896 4.736 4.736 0 00-.024-.11zm.126 2.28h.001zM112.846 63.934c.031.02.067.033.103.035.115.01.252-.067.252-.274a.219.219 0 00-.003-.04 1.429 1.429 0 01-.228.208.669.669 0 01-.124.07zm.519-.669a.48.48 0 01.221.43c0 .44-.336.687-.669.659a.598.598 0 01-.435-.244c-.11-.15-.156-.352-.126-.588a.193.193 0 01.257-.157.73.73 0 01.163-.1.653.653 0 01.269-.154.335.335 0 01.116-.014.225.225 0 01.204.168z" clip-rule="evenodd"/>
    <path fill="#000" fill-rule="evenodd" d="M112.828 58.317c-.292-.313-.569-.464-.839-.454-.256.01-.553.226-.879.678-.317.44-.625 1.052-.915 1.74-.483 1.146-.905 2.473-1.234 3.51l-.187.585-.002.005-.002.005c-.083.215-.067.37-.004.49.067.127.206.248.43.354.451.213 1.16.325 1.975.368 1.62.085 3.553-.11 4.392-.222.41-.054.592-.158.666-.255.066-.086.084-.219.007-.454-.077-.234-.231-.518-.432-.858l-.188-.312a25.158 25.158 0 01-.479-.818c-.232-.418-.468-.941-.711-1.48l-.017-.038a29.525 29.525 0 00-.747-1.577c-.268-.511-.545-.955-.834-1.267zm1.949 2.723c.245.544.475 1.05.697 1.452.157.283.316.547.468.798l.193.323c.2.337.376.655.467.934.091.277.116.569-.066.807-.172.227-.49.347-.922.405-.847.112-2.808.311-4.463.224-.822-.043-1.596-.157-2.12-.405-.263-.124-.484-.292-.606-.523-.125-.237-.129-.51-.016-.803l.183-.572c.329-1.036.757-2.385 1.248-3.549.294-.698.615-1.34.958-1.815.333-.463.726-.822 1.176-.838.436-.016.814.23 1.136.577.325.349.62.83.893 1.35.267.507.518 1.065.756 1.593l.018.042z" clip-rule="evenodd"/>
  </g>
  <path fill="url(#paint0_linear_22226_165447)" fill-rule="evenodd" d="M94.212 30.672c-.5-.026-1.002-.038-1.506-.035a.386.386 0 01-.004-.771c.518-.003 1.035.009 1.55.036a.386.386 0 01-.04.77zm-2.65-.393a.386.386 0 01-.361.408 27.77 27.77 0 00-1.5.133.386.386 0 01-.09-.767 28.67 28.67 0 011.543-.136.386.386 0 01.408.362zm3.81.09a.386.386 0 01.426-.339c.516.06 1.029.134 1.536.226a.386.386 0 01-.138.759c-.49-.089-.985-.161-1.486-.218a.386.386 0 01-.339-.427zm-6.849.218a.386.386 0 01-.315.445c-.498.085-.991.182-1.48.293a.386.386 0 01-.17-.753 28.864 28.864 0 011.52-.3c.21-.036.41.105.445.315zm9.86.277a.386.386 0 01.469-.278c.505.129 1.003.276 1.492.442a.386.386 0 01-.248.73c-.47-.159-.948-.3-1.435-.425a.386.386 0 01-.279-.469zm-12.85.356a.386.386 0 01-.265.477c-.487.138-.966.29-1.436.452a.386.386 0 01-.253-.728c.484-.168.978-.324 1.478-.466a.386.386 0 01.477.265zm15.759.57a.386.386 0 01.508-.2c.48.21.948.439 1.403.69a.386.386 0 01-.373.675 16.01 16.01 0 00-1.339-.658.386.386 0 01-.199-.508zm-18.656.39a.386.386 0 01-.208.505c-.467.195-.923.402-1.365.622a.386.386 0 01-.343-.69 23.51 23.51 0 011.411-.644.386.386 0 01.505.208zm21.362 1.02a.385.385 0 01.536-.098c.43.298.844.617 1.24.959a.385.385 0 11-.504.583 13.716 13.716 0 00-1.174-.907.385.385 0 01-.098-.537zm-24.115.293a.386.386 0 01-.136.528c-.437.259-.856.53-1.255.814a.386.386 0 11-.447-.629c.417-.296.854-.58 1.31-.849a.386.386 0 01.528.136zm26.473 1.637a.386.386 0 01.545.023c.352.383.683.788.993 1.216a.385.385 0 11-.625.452 12.598 12.598 0 00-.936-1.146.386.386 0 01.023-.545zm-28.999.08a.386.386 0 01-.039.544c-.382.332-.738.676-1.064 1.032a.386.386 0 01-.569-.522c.348-.379.725-.743 1.128-1.093a.386.386 0 01.544.04zm-2.123 2.187a.386.386 0 01.096.537c-.284.41-.532.832-.74 1.265a.386.386 0 01-.695-.333c.226-.473.495-.93.802-1.373a.386.386 0 01.537-.096zm32.98.15a.385.385 0 01.524.149c.252.45.482.923.687 1.417a.386.386 0 11-.712.297 12.998 12.998 0 00-.648-1.339.385.385 0 01.149-.525zm-34.403 2.542a.386.386 0 01.272.473c-.125.464-.205.94-.237 1.426a.386.386 0 01-.77-.05 8.114 8.114 0 01.262-1.577.386.386 0 01.473-.272zm35.658.236a.385.385 0 01.479.26c.145.485.268.989.37 1.51a.386.386 0 01-.757.148 15.402 15.402 0 00-.352-1.439.385.385 0 01.26-.48zM73.461 43.1a.386.386 0 01.431.334c.031.24.074.482.128.728a.386.386 0 01-.753.167 8.878 8.878 0 01-.14-.797.386.386 0 01.334-.432zm36.663.194a.386.386 0 01.424.343c.053.508.088 1.031.102 1.57a.386.386 0 01-.771.02 19.568 19.568 0 00-.098-1.51.385.385 0 01.343-.423zm.143 3.046a.385.385 0 01.369.401 22.18 22.18 0 01-.047.797.385.385 0 11-.769-.057c.02-.26.035-.518.046-.772a.385.385 0 01.401-.37z" clip-rule="evenodd" opacity=".5"/>
  <path fill="url(#paint1_linear_22226_165447)" fill-rule="evenodd" d="M107.931 20.445a.385.385 0 00.379.392 43.52 43.52 0 011.53.052.385.385 0 10.04-.77 44.088 44.088 0 00-1.557-.053.385.385 0 00-.392.379zm-.775 0a.386.386 0 00-.393-.377c-.521.01-1.041.029-1.558.057a.386.386 0 00.043.77 42.217 42.217 0 011.53-.056.386.386 0 00.378-.393zm3.861.133c-.018.212.139.4.351.418.506.044 1.013.096 1.523.158a.385.385 0 10.093-.765 45.461 45.461 0 00-1.549-.162.385.385 0 00-.418.35zm-6.948.01a.385.385 0 00-.419-.348c-.519.047-1.036.104-1.55.17a.386.386 0 00.099.765c.504-.065 1.011-.12 1.522-.167a.385.385 0 00.348-.42zm10.017.337a.386.386 0 00.322.44c.501.079 1.005.166 1.509.262a.386.386 0 00.145-.758 46.973 46.973 0 00-1.535-.266.386.386 0 00-.441.322zm-13.085.03a.385.385 0 00-.443-.317c-.515.086-1.026.18-1.534.284a.386.386 0 10.155.756c.498-.102 1-.195 1.505-.28a.386.386 0 00.317-.443zm16.125.522a.386.386 0 00.291.461c.25.056.5.114.75.175a.385.385 0 10.181-.75 46.56 46.56 0 00-.762-.178.385.385 0 00-.46.292zm-19.157.07a.386.386 0 00-.466-.284c-.507.124-1.01.256-1.508.398a.386.386 0 00.21.742c.49-.139.983-.27 1.48-.39a.386.386 0 00.284-.466zm-2.98.815a.386.386 0 00-.487-.248c-.495.16-.987.33-1.474.508a.386.386 0 00.265.725c.478-.175.96-.342 1.447-.5a.386.386 0 00.248-.485zm-2.912 1.035a.386.386 0 00-.503-.211c-.482.197-.96.402-1.432.617a.386.386 0 10.318.702c.464-.21.933-.412 1.406-.605a.386.386 0 00.21-.503zm-2.826 1.248a.386.386 0 00-.517-.172c-.466.232-.927.472-1.383.721a.386.386 0 10.37.677c.447-.244.9-.48 1.357-.708a.386.386 0 00.173-.518zm-2.726 1.456a.386.386 0 00-.529-.134c-.447.266-.888.54-1.325.822a.386.386 0 10.419.648 41.16 41.16 0 011.3-.807.386.386 0 00.135-.529zm-2.61 1.653a.386.386 0 00-.538-.094c-.426.298-.846.604-1.26.917a.386.386 0 00.465.615c.407-.307.82-.608 1.238-.9a.386.386 0 00.095-.538zm-2.482 1.842a.386.386 0 00-.542-.055c-.403.328-.8.664-1.19 1.007a.386.386 0 10.509.58c.383-.337.773-.667 1.168-.99a.386.386 0 00.055-.542zm-2.34 2.018a.386.386 0 00-.545-.015c-.377.357-.748.721-1.113 1.092a.386.386 0 00.55.54c.358-.364.723-.721 1.093-1.072a.386.386 0 00.016-.545zm-2.185 2.184a.386.386 0 00-.545.024c-.35.384-.694.774-1.03 1.17a.386.386 0 10.587.5c.33-.39.668-.773 1.012-1.15a.386.386 0 00-.024-.544zm-2.021 2.337a.386.386 0 00-.542.064c-.16.204-.32.41-.477.617a.386.386 0 10.614.466c.154-.203.31-.405.469-.605a.386.386 0 00-.064-.542z" clip-rule="evenodd" opacity=".5"/>
  <g>
    <path fill="#000" fill-rule="evenodd" d="M96.863 57.543a66.378 66.378 0 01-1.177-2.165.193.193 0 11.34-.18c.532 1.003.905 1.698 1.17 2.15.132.226.234.387.313.494l.005-.062c.008-.102.014-.224.021-.364l.005-.093c.008-.178.02-.38.038-.596.076-.857.28-1.97 1.027-2.785.758-.826 2.033-1.3 4.146-.966a.194.194 0 01.161.22.194.194 0 01-.221.161c-2.032-.322-3.159.145-3.802.846-.655.715-.853 1.717-.927 2.557-.018.209-.029.405-.037.582l-.005.09c-.006.14-.013.27-.021.38-.01.126-.026.25-.06.342a.324.324 0 01-.115.156.256.256 0 01-.24.026.452.452 0 01-.153-.106 1.368 1.368 0 01-.132-.157 6.292 6.292 0 01-.336-.53zm.612.482l.001-.002v.002z" clip-rule="evenodd"/>
    <path fill="#000" fill-rule="evenodd" d="M94.78 54.164c-.883 1.385-.8 2.71-.183 3.686.623.986 1.803 1.641 3.149 1.641 1.927 0 3.248-1.062 3.811-2.325.566-1.27.361-2.717-.726-3.537-1.937-1.453-4.623-1.325-6.05.535zm-.311-.228c1.581-2.068 4.522-2.17 6.594-.615 1.265.954 1.466 2.611.846 4.002-.623 1.398-2.08 2.554-4.163 2.554-1.47 0-2.777-.715-3.475-1.82-.703-1.115-.774-2.603.189-4.108a.155.155 0 01.009-.013z" clip-rule="evenodd"/>
  </g>
  <g>
    <path fill="#000" fill-rule="evenodd" d="M107.189 53.278a68.171 68.171 0 01-1.176-2.166.193.193 0 11.341-.18 66.61 66.61 0 001.168 2.151c.132.226.234.386.313.494a4.15 4.15 0 00.006-.062c.008-.102.014-.224.021-.365l.004-.092c.009-.179.02-.38.039-.597.075-.856.28-1.97 1.027-2.784.758-.827 2.033-1.3 4.146-.966a.193.193 0 01-.06.38c-2.033-.32-3.159.145-3.802.847-.656.714-.853 1.717-.927 2.557a16.23 16.23 0 00-.038.582l-.004.09c-.007.14-.013.27-.022.379-.01.127-.025.252-.06.343a.326.326 0 01-.114.156.256.256 0 01-.241.026.458.458 0 01-.152-.106 1.454 1.454 0 01-.132-.158 6.522 6.522 0 01-.337-.53zm.613.481l.001-.002-.001.002z" clip-rule="evenodd"/>
    <path fill="#000" fill-rule="evenodd" d="M105.107 49.899c-.883 1.385-.799 2.71-.183 3.686.623.986 1.803 1.64 3.149 1.64 1.927 0 3.248-1.061 3.811-2.324.566-1.27.361-2.718-.726-3.538-1.937-1.452-4.623-1.324-6.051.536zm-.311-.228c1.581-2.068 4.522-2.17 6.594-.616 1.265.955 1.466 2.612.846 4.003-.623 1.398-2.079 2.553-4.163 2.553-1.469 0-2.777-.714-3.475-1.82-.703-1.114-.774-2.602.189-4.107a.755.755 0 01.009-.013z" clip-rule="evenodd"/>
  </g>
  <g>
    <path fill="#F6F1FF" d="M65.166 40.767c0 2.71 2.288 4.908 5.11 4.908 2.823 0 5.11-2.198 5.11-4.908 0-2.71-2.287-4.908-5.11-4.908-2.822 0-5.11 2.197-5.11 4.908z"/>
    <path fill="url(#paint2_linear_22226_165447)" d="M64.337 27.01c-2.64.683-10.324 1.798-10.754 1.768-2.048-2.906-9.878-12.41-3.639-17.589 10.034-8.328 16.354-3.348 18.51-1.357 2.674 2.467 5.196 12.458 4.603 13.54-.593 1.084-6.08 2.954-8.72 3.638z"/>
    <path fill="#AE82FC" d="M67.588 25.811c-5.212 2.04-7.744 2.344-12.894 3.114-.63-.096-1.526-.22-1.196-.814.527-.948 3.218-1.867 4.234-2.29 3.215-1.341 3.858-1.487 7.17-2.466 2.117-.625 5.38-1.723 7.354-1.416.8.124.789.77.19 1.333-1.197 1.13-3.27 1.917-4.858 2.54z"/>
    <path fill="#000" fill-rule="evenodd" d="M57.09 25.87c.221-.088.416-.164.568-.228 2.905-1.211 3.722-1.451 6.278-2.203l.911-.268.736-.221c.912-.276 1.965-.594 3.005-.84 1.33-.315 2.67-.521 3.698-.362.223.035.41.109.547.226.14.119.22.275.235.45.03.334-.172.69-.489.988-.62.585-1.459 1.075-2.332 1.494-.817.392-1.676.728-2.432 1.023l-.157.062c-4.95 1.938-7.5 2.317-12.12 3.004l-.24.036a.193.193 0 01-.244.158 3.308 3.308 0 00-.36-.068l-.3.045a.193.193 0 01-.211-.13 2.538 2.538 0 01-.526-.155c-.145-.065-.296-.164-.373-.32-.083-.171-.056-.36.046-.544.155-.279.455-.535.803-.765.354-.234.781-.455 1.218-.658.601-.279 1.24-.529 1.739-.725zm-2.396 2.86l.785-.116c4.615-.687 7.13-1.06 12.039-2.982l.154-.06c.758-.297 1.605-.628 2.409-1.014.86-.413 1.656-.882 2.234-1.426.282-.266.384-.514.37-.674a.273.273 0 00-.102-.19.716.716 0 00-.357-.139c-.947-.147-2.224.042-3.55.356-1.027.244-2.064.557-2.975.832-.26.078-.509.154-.744.223l-.913.27c-2.55.749-3.352.985-6.238 2.189-.164.068-.366.147-.593.236-.496.195-1.109.435-1.7.71a9.163 9.163 0 00-1.167.629c-.336.222-.57.436-.679.63-.062.113-.047.164-.036.187.017.036.068.086.184.138.225.101.562.153.88.202z" clip-rule="evenodd"/>
    <path fill="#000" fill-rule="evenodd" d="M54.252 26.987a.193.193 0 01.23-.146c.551.124 1.1.272 1.644.418.255.069.509.137.762.203.796.206 1.588.387 2.398.471a.193.193 0 01-.04.384c-.839-.088-1.653-.274-2.455-.482l-.776-.206c-.539-.146-1.074-.29-1.618-.412a.193.193 0 01-.145-.23zM57.1 25.973a.193.193 0 01.226-.154c1.845.347 3.697.888 5.485 1.423a.193.193 0 11-.11.37c-1.79-.536-3.623-1.071-5.446-1.414a.193.193 0 01-.154-.225zM59.667 24.626a.193.193 0 01.245-.12c1.545.531 3.086.92 4.7 1.15.643.09 1.265.218 1.89.377a.193.193 0 11-.095.374 17.434 17.434 0 00-1.849-.37 25.676 25.676 0 01-4.77-1.166.193.193 0 01-.12-.245zM62.459 23.902a.193.193 0 01.228-.149c1.384.292 2.772.481 4.176.673l.5.068c.68.094 1.371.202 2.044.42a.193.193 0 01-.12.367c-.636-.207-1.297-.311-1.977-.405l-.5-.068c-1.402-.192-2.804-.383-4.203-.677a.193.193 0 01-.148-.229zM66.416 22.943a.193.193 0 01.211-.173c1.868.188 3.715.466 5.558.8a.193.193 0 01-.069.38 70.27 70.27 0 00-5.527-.796.193.193 0 01-.173-.21z" clip-rule="evenodd"/>
    <g>
      <path fill="#fff" fill-rule="evenodd" d="M58.868 9.046c-1 .586-2.986 1.734-4.856 1.928-.235.024-.432.197-.451.431-.239 2.88.53 8.466 5.382 10.869.11.054.24.063.354.018 1.34-.523 3.37-2.082 4.51-5.105l-2.23-.935a.47.47 0 01-.04-.018 2.623 2.623 0 11.332-.824c.018.004.035.01.053.018l2.17.91c.402-1.368.627-2.995.56-4.912a.517.517 0 00-.439-.478c-1.155-.199-3.21-.906-4.849-1.896a.485.485 0 00-.496-.006zm-.174 4.192a1.73 1.73 0 101.223 3.235 1.73 1.73 0 00-1.223-3.235z" clip-rule="evenodd"/>
    </g>
    <g>
      <path fill="#AE82FC" fill-rule="evenodd" d="M71.847 35.334c-3.36-.822-5.838 1.296-6.658 2.457-2.55 3.452-.64 6.072 1.115 7.313l-6.923 10.427 1.117.67 7.295-10.36c2.661.84 7.033.604 8.254-4.117 1.341-5.184-3.619-6.39-4.2-6.39zm2.084 1.826l1.228 3.128-.558 2.457-2.123 1.9-2.234.558-2.234-.559-2.234-1.675-.447-1.788.447-2.122 1.787-1.564 2.234-1.006 2.123-.223 2.01.894z" clip-rule="evenodd"/>
      <path fill="#000" fill-rule="evenodd" d="M65.403 42.05c.251.71.76 1.396 1.573 2.017 2.393 1.828 4.972 1.287 6.592-.159.76-.679 1.319-1.57 1.544-2.513a.193.193 0 00.229-.208c-.031-.319-.074-.62-.126-.907a3.495 3.495 0 00-.412-1.463c-.49-1.229-1.247-2.016-2.143-2.44-1.367-.645-3-.413-4.373.293-1.373.706-2.527 1.908-2.926 3.265-.2.682-.21 1.404.042 2.115zm8.72-3.764c-.438-.764-1.005-1.266-1.627-1.56-1.225-.578-2.728-.384-4.032.287-1.305.671-2.371 1.8-2.733 3.031-.18.613-.187 1.25.035 1.877s.678 1.255 1.444 1.84c2.226 1.7 4.6 1.2 6.1-.14.993-.886 1.585-2.115 1.518-3.312a7.342 7.342 0 00-.371-1.32 3.363 3.363 0 00-.32-.486.193.193 0 01-.015-.217zM66.492 45.064a.193.193 0 00-.269.049L59.162 55.35a.193.193 0 10.317.22l7.062-10.238a.193.193 0 00-.05-.268zM67.955 45.695a.193.193 0 00-.269.047L60.4 56.088a.193.193 0 10.316.222l7.287-10.346a.193.193 0 00-.047-.269z" clip-rule="evenodd"/>
      <path fill="#000" fill-rule="evenodd" d="M59.046 55.351a.193.193 0 00.069.264l1.276.75a.193.193 0 10.196-.333l-1.277-.75a.193.193 0 00-.264.069zM70.718 34.985c-2.017 0-3.99.806-5.297 2.208-1.312 1.409-1.944 3.41-1.28 5.768l.002.005.002.006c.43 1.226 1.554 2.21 2.915 2.814 1.364.605 2.996.844 4.483.556 1.841-.358 3.557-1.655 4.41-3.424a5.599 5.599 0 00.347-3.998c.077.228.132.465.164.71a.193.193 0 00.382-.049c-.154-1.193-.81-2.192-1.69-2.948a6.442 6.442 0 00-.592-.451c-1.168-.788-2.6-1.22-3.846-1.197zm4.166 1.922c1.515 2.11 1.515 4.199.722 5.844-.8 1.66-2.415 2.878-4.136 3.212-1.402.272-2.953.047-4.253-.53-1.301-.577-2.322-1.494-2.706-2.583-.625-2.223-.029-4.084 1.193-5.394 1.227-1.317 3.096-2.085 5.015-2.085h.004c1.161-.022 2.517.383 3.626 1.13.186.127.365.262.535.406z" clip-rule="evenodd"/>
    </g>
    <path fill="#000" fill-rule="evenodd" d="M65.804 7.804c1.49.756 2.354 1.93 3.07 3.307.574 1.104 1.457 3.176 2.258 5.255.793 2.06 1.498 4.105 1.743 5.212l-2.148 13.82.381.059 2.16-13.891-.008-.035c-.245-1.131-.967-3.224-1.769-5.304-.802-2.081-1.69-4.17-2.276-5.294-.733-1.41-1.644-2.665-3.237-3.473-1.588-.806-3.826-1.155-7.188-.818-3.38.338-6.529 1.712-8.625 3.76-2.1 2.054-3.149 4.793-2.29 7.827 1.642 5.802 4.885 10.105 5.352 10.725.011.015.02.028.029.038a.655.655 0 00.087.09c.033.029.075.063.124.101.098.077.23.175.39.291.32.233.758.541 1.278.904l1.058.735c.835.58 1.78 1.235 2.736 1.909 1.39.979 2.8 1.995 3.934 2.87.567.437 1.062.838 1.449 1.18.391.346.658.62.782.806l.321-.214c-.155-.232-.456-.535-.848-.881-.396-.35-.898-.757-1.468-1.197-1.14-.88-2.557-1.9-3.948-2.88-.958-.674-1.904-1.331-2.74-1.911l-1.056-.734c-.519-.362-.955-.669-1.272-.899-.159-.115-.286-.21-.378-.282a2.612 2.612 0 01-.14-.119c-.001-.001-.001-.001 0 0a5.59 5.59 0 00-.03-.038c-.459-.61-3.667-4.867-5.29-10.599-.812-2.873.17-5.471 2.19-7.445 2.024-1.98 5.085-3.323 8.393-3.654 3.325-.332 5.48.02 6.976.779z" clip-rule="evenodd"/>
  </g>
  <defs>
    <linearGradient id="paint0_linear_22226_165447" x1="13.36" x2="37.455" y1="-9.265" y2="45.65" gradientUnits="userSpaceOnUse">
      <stop stop-color="#4791FF"/>
      <stop offset="1" stop-color="#2C77D8"/>
    </linearGradient>
    <linearGradient id="paint1_linear_22226_165447" x1="118.085" x2="99.674" y1="-3.995" y2="41.321" gradientUnits="userSpaceOnUse">
      <stop stop-color="#4791FF"/>
      <stop offset="1" stop-color="#2C77D8"/>
    </linearGradient>
    <linearGradient id="paint2_linear_22226_165447" x1="48.689" x2="67.231" y1="10.505" y2="26.907" gradientUnits="userSpaceOnUse">
      <stop stop-color="#BEA1FF"/>
      <stop offset="1" stop-color="#8A36FF"/>
    </linearGradient>
  </defs>
</svg>
