<svg width="172" height="130" viewBox="0 0 172 130" fill="none" xmlns="http://www.w3.org/2000/svg">
<path d="M114.885 87.3088L112.508 93.4542L131.694 91.6023L133.962 85.2693L114.885 87.3088Z" fill="white"/>
<path fill-rule="evenodd" clip-rule="evenodd" d="M113.811 91.5423C113.832 91.3905 113.721 91.2595 113.565 91.2497C110.599 91.065 106.858 90.3462 104.084 89.4316C100.758 88.3349 98.1323 86.5607 97.1053 83.2737C96.8605 82.4903 96.6911 81.5634 96.7488 80.669C96.7606 80.4868 96.7816 80.307 96.8131 80.1306C97.756 81.5168 98.6901 82.6922 99.532 83.4183C99.8432 83.6867 100.15 83.9014 100.449 84.0424C100.747 84.1828 101.054 84.2583 101.358 84.2223C102.005 84.1455 102.441 83.6033 102.707 82.7638C102.986 81.8844 102.709 80.9467 102.262 80.1494C101.81 79.3449 101.157 78.6325 100.592 78.1808C100.189 77.8591 99.6589 77.5282 99.0897 77.4064C98.503 77.2808 97.8636 77.3782 97.3203 77.9287C97.0442 78.2085 96.8268 78.5159 96.6588 78.8406C96.4351 78.4917 96.211 78.1325 95.9876 77.7659C93.2531 73.2777 90.7062 67.8095 90.4379 67.1309C90.383 66.992 90.2185 66.9296 90.0706 66.9916C89.9226 67.0536 89.8472 67.2165 89.9021 67.3555C90.1818 68.0632 92.742 73.5569 95.4899 78.0671C95.7879 78.5561 96.0888 79.035 96.3902 79.4961C96.27 79.8791 96.2038 80.2753 96.1783 80.6702C96.1153 81.6484 96.3002 82.6412 96.557 83.4632C97.6527 86.9701 100.459 88.8298 103.869 89.9541C106.688 90.8837 110.477 91.6117 113.491 91.7995C113.648 91.8093 113.791 91.6941 113.811 91.5423ZM97.0179 79.3917C97.1748 78.9885 97.4043 78.6169 97.7222 78.2948C98.0891 77.923 98.5007 77.8523 98.932 77.9446C99.3807 78.0407 99.835 78.3138 100.211 78.614C100.729 79.0288 101.338 79.6926 101.755 80.4351C102.176 81.1847 102.373 81.9646 102.161 82.6344C101.915 83.4119 101.6 83.6428 101.324 83.6755C101.166 83.6942 100.969 83.6585 100.727 83.5444C100.486 83.4308 100.218 83.2476 99.928 82.9973C99.051 82.241 98.0446 80.9427 97.0179 79.3917Z" fill="black"/>
<path fill-rule="evenodd" clip-rule="evenodd" d="M108.902 91.0397C108.827 91.0211 108.754 91.0174 108.691 91.0289C108.68 91.0309 108.669 91.0333 108.658 91.0363C108.685 91.1098 108.72 91.1905 108.763 91.2785C108.814 91.3818 108.789 91.5052 108.708 91.5894C108.782 91.5844 108.861 91.5685 108.943 91.5395C108.964 91.4801 108.977 91.3811 108.946 91.2217C108.933 91.1559 108.918 91.0953 108.902 91.0397ZM109.312 91.9666C109.309 91.9697 109.307 91.9727 109.304 91.9757C109.093 92.1892 108.803 92.2374 108.566 92.2014C108.446 92.1832 108.326 92.1421 108.218 92.0791C108.094 92.0372 107.981 91.9752 107.884 91.8946C107.681 91.7269 107.554 91.4811 107.56 91.1918C107.566 90.9037 107.703 90.6037 107.964 90.3205C108.009 90.2716 108.067 90.2402 108.127 90.2272C108.199 90.1183 108.305 90.0313 108.452 89.9925C108.721 89.9216 108.965 90.0614 109.127 90.2401C109.217 90.3399 109.298 90.4663 109.365 90.6177C109.559 90.7236 109.738 90.8913 109.811 91.1025C109.85 91.2153 109.859 91.3462 109.813 91.4809C109.767 91.6163 109.674 91.7302 109.551 91.8196C109.473 91.8763 109.393 91.9253 109.312 91.9666Z" fill="black"/>
<path fill-rule="evenodd" clip-rule="evenodd" d="M111.969 95.114C112.111 95.1716 112.282 95.1042 112.351 94.9634C112.939 93.7645 113.329 92.5147 113.713 91.2826C113.851 90.8412 113.988 90.4021 114.133 89.9684C114.138 89.9516 114.144 89.9342 114.15 89.9164C114.243 89.6383 114.372 89.251 114.516 88.9221C114.593 88.7459 114.668 88.6006 114.736 88.5022C114.767 88.4585 114.79 88.4325 114.805 88.4188C114.943 88.3871 115.045 88.2631 115.041 88.125C115.036 87.9735 114.904 87.8624 114.747 87.8768C114.619 87.8884 114.518 87.9516 114.449 88.0103C114.379 88.07 114.318 88.1435 114.268 88.2163C114.166 88.3622 114.073 88.5485 113.991 88.7366C113.837 89.0903 113.7 89.5004 113.608 89.7749C113.602 89.7941 113.596 89.8126 113.59 89.8304C113.436 90.2886 113.295 90.7426 113.154 91.1924C112.774 92.411 112.404 93.5989 111.837 94.7546C111.768 94.8954 111.827 95.0563 111.969 95.114ZM114.816 88.4098C114.816 88.4098 114.815 88.41 114.815 88.4105Z" fill="black"/>
<path fill-rule="evenodd" clip-rule="evenodd" d="M131.307 92.8694C131.293 92.7191 131.154 92.6161 130.997 92.6393C127.696 93.1284 124.384 93.3896 121.062 93.6435C120.94 93.6528 120.819 93.6621 120.697 93.6714C117.499 93.9155 114.29 94.1604 111.088 94.6036C110.931 94.6254 110.813 94.7651 110.826 94.9157C110.838 95.0663 110.976 95.1707 111.133 95.1489C114.317 94.7083 117.509 94.4646 120.712 94.2201C120.831 94.211 120.951 94.2018 121.071 94.1927C124.391 93.939 127.722 93.6764 131.048 93.1838C131.205 93.1605 131.321 93.0198 131.307 92.8694Z" fill="black"/>
<path fill-rule="evenodd" clip-rule="evenodd" d="M134.21 86.6125C134.217 86.4604 134.095 86.3393 133.938 86.342C131.55 86.3838 129.15 86.6533 126.774 86.9203C126.147 86.9907 125.522 87.0609 124.899 87.1268C122.623 87.3673 120.366 87.5133 118.099 87.6598C116.737 87.7479 115.371 87.8362 113.996 87.9455C113.838 87.958 113.712 88.0911 113.715 88.2427C113.718 88.3943 113.848 88.5071 114.006 88.4945C115.362 88.3869 116.72 88.299 118.08 88.211C120.357 88.0636 122.64 87.9159 124.925 87.6744C125.557 87.6076 126.188 87.5368 126.818 87.466C129.191 87.1995 131.554 86.9341 133.911 86.8929C134.069 86.8901 134.203 86.7646 134.21 86.6125Z" fill="black"/>
<path fill-rule="evenodd" clip-rule="evenodd" d="M131.238 93.367C131.388 93.4072 131.55 93.3209 131.602 93.1741C131.941 92.205 132.324 91.2578 132.71 90.3038C132.781 90.1287 132.852 89.9533 132.922 89.7775C133.377 88.6474 133.824 87.5037 134.187 86.3173C134.232 86.1691 134.146 86.0211 133.995 85.9869C133.844 85.9527 133.684 86.0451 133.639 86.1934C133.284 87.3548 132.845 88.4791 132.391 89.6076C132.321 89.7816 132.251 89.9559 132.18 90.1304C131.795 91.0841 131.406 92.0455 131.061 93.0284C131.01 93.1752 131.089 93.3267 131.238 93.367Z" fill="black"/>
<path fill-rule="evenodd" clip-rule="evenodd" d="M139.04 88.7179C139.008 88.5712 138.857 88.4848 138.703 88.5249C137.682 88.7901 136.628 88.9455 135.557 89.0746C135.216 89.1157 134.873 89.1541 134.529 89.1928C133.796 89.2749 133.058 89.3576 132.333 89.4665C132.176 89.4902 132.06 89.6311 132.075 89.7814C132.089 89.9317 132.228 90.0344 132.385 90.0108C133.099 89.9036 133.817 89.8231 134.544 89.7417C134.891 89.7028 135.24 89.6636 135.591 89.6213C136.67 89.4913 137.756 89.332 138.818 89.0563C138.972 89.0162 139.072 88.8647 139.04 88.7179Z" fill="black"/>
<path fill-rule="evenodd" clip-rule="evenodd" d="M140.715 88.9122C140.753 88.786 140.741 88.6589 140.7 88.5403C140.647 88.387 140.535 88.2833 140.419 88.2155C140.304 88.148 140.171 88.1073 140.046 88.0834C139.801 88.0368 139.523 88.0437 139.331 88.0971C139.127 88.154 138.958 88.2505 138.835 88.3913C138.713 88.5313 138.657 88.691 138.637 88.8412C138.629 88.9025 138.626 88.9651 138.628 89.0276C138.601 89.0897 138.586 89.1585 138.592 89.2317C138.599 89.3254 138.638 89.4005 138.688 89.4572C138.701 89.5168 138.715 89.5731 138.728 89.6245C138.73 89.6321 138.732 89.6396 138.734 89.6471C138.77 89.7926 138.924 89.8745 139.078 89.8301C139.165 89.8048 139.233 89.7443 139.269 89.6701C139.398 89.6749 139.533 89.6636 139.657 89.6351C139.797 89.6032 139.991 89.5344 140.11 89.3788C140.111 89.3772 140.112 89.3755 140.114 89.3739C140.25 89.3465 140.386 89.297 140.499 89.2123C140.595 89.1405 140.676 89.0406 140.715 88.9122ZM140.023 88.6567C140.053 88.6673 140.079 88.679 140.1 88.6913C140.145 88.718 140.155 88.7384 140.157 88.744C140.164 88.7648 140.166 88.7783 140.166 88.7858C140.162 88.789 140.157 88.7925 140.15 88.7961C140.129 88.7633 140.104 88.7342 140.08 88.7088C140.062 88.6905 140.043 88.6731 140.023 88.6567Z" fill="black"/>
<path d="M122.602 41.2158L95.6223 31.53L86.9784 31.53C86.6292 46.8875 81.609 62.943 97.5301 73.2952C107.791 79.9673 120.506 66.6079 122.602 62.9431L122.602 41.2158Z" fill="#FFA49E"/>
<path fill-rule="evenodd" clip-rule="evenodd" d="M86.5871 31.9956C86.8339 31.9956 87.034 32.1956 87.034 32.4423C87.034 37.7396 87.0302 41.6861 87.027 45.0382C87.0219 50.4375 87.0183 54.2946 87.034 59.7708C87.0347 60.0175 86.8352 60.218 86.5884 60.2187C86.3416 60.2194 86.141 60.0201 86.1403 59.7734C86.1245 54.2957 86.1281 50.436 86.1333 45.0352C86.1364 41.6831 86.1402 37.7372 86.1402 32.4423C86.1402 32.1956 86.3403 31.9956 86.5871 31.9956Z" fill="black"/>
<path fill-rule="evenodd" clip-rule="evenodd" d="M85.9324 55.1498C86.1792 55.1498 86.3793 55.3498 86.3793 55.5964C86.3793 56.9984 86.8367 58.7429 87.6828 60.6345C88.5262 62.5201 89.7434 64.5244 91.2325 66.4388C94.2173 70.2763 98.2529 73.7009 102.484 75.1105C102.718 75.1885 102.845 75.4414 102.767 75.6754C102.689 75.9094 102.436 76.0359 102.201 75.9579C97.7448 74.4733 93.5752 70.9063 90.5268 66.987C88.9992 65.0231 87.7429 62.9578 86.8668 60.999C85.9934 59.0463 85.4855 57.1717 85.4855 55.5964C85.4855 55.3498 85.6856 55.1498 85.9324 55.1498Z" fill="black"/>
<path fill-rule="evenodd" clip-rule="evenodd" d="M117.762 63.3013C117.947 63.4646 117.964 63.7469 117.801 63.9317C117.731 64.0115 117.658 64.0942 117.582 64.1798C116.097 65.8637 113.654 68.6327 110.4 71.0244C106.98 73.5387 102.632 75.6594 97.5163 75.6594C97.2695 75.6594 97.0694 75.4594 97.0694 75.2127C97.0694 74.9661 97.2695 74.7661 97.5163 74.7661C102.376 74.7661 106.541 72.752 109.871 70.3048C113.045 67.9715 115.432 65.2657 116.918 63.5819C116.991 63.4988 117.062 63.4182 117.131 63.3403C117.295 63.1555 117.577 63.138 117.762 63.3013Z" fill="black"/>
<path fill-rule="evenodd" clip-rule="evenodd" d="M122.943 62.3359C123.128 62.4992 123.146 62.7815 122.982 62.9663C122.912 63.0461 122.839 63.1288 122.764 63.2143C121.278 64.8983 118.836 67.6673 115.582 70.059C112.161 72.5733 107.813 74.694 102.698 74.6939C102.451 74.6939 102.251 74.494 102.251 74.2473C102.251 74.0006 102.451 73.8007 102.698 73.8007C107.557 73.8007 111.723 71.7866 115.052 69.3394C118.227 67.0061 120.614 64.3002 122.099 62.6164C122.173 62.5334 122.244 62.4528 122.313 62.3749C122.476 62.19 122.758 62.1726 122.943 62.3359Z" fill="black"/>
<path fill-rule="evenodd" clip-rule="evenodd" d="M86.1505 33.6841C86.2256 33.4491 86.4771 33.3195 86.7122 33.3946C96.6964 36.5817 108.945 40.5103 118.572 43.6864C118.806 43.7638 118.933 44.0163 118.856 44.2506C118.779 44.4848 118.526 44.612 118.292 44.5347C108.67 41.36 96.4244 37.4326 86.4403 34.2455C86.2051 34.1704 86.0754 33.9191 86.1505 33.6841Z" fill="black"/>
<path fill-rule="evenodd" clip-rule="evenodd" d="M93.8726 30.4687C93.9477 30.2338 94.1991 30.1041 94.4343 30.1792C100.166 32.0088 105.809 33.951 111.393 35.8731C115.53 37.2971 119.635 38.71 123.72 40.0578C123.954 40.1351 124.081 40.3877 124.004 40.6219C123.927 40.8561 123.674 40.9833 123.439 40.906C119.327 39.549 115.216 38.1341 111.08 36.7103C105.511 34.7933 99.8949 32.86 94.1623 31.0301C93.9272 30.955 93.7975 30.7037 93.8726 30.4687Z" fill="black"/>
<path fill-rule="evenodd" clip-rule="evenodd" d="M116.9 40.678C117.146 40.678 117.346 40.878 117.346 41.1246C117.346 47.6002 117.346 53.1835 117.347 57.8274C117.347 60.7938 117.347 63.3768 117.347 65.5643C117.347 65.811 117.146 66.0109 116.9 66.0109C116.653 66.0109 116.453 65.811 116.453 65.5643C116.453 63.3767 116.453 60.7934 116.453 57.8268C116.453 53.183 116.453 47.5999 116.453 41.1246C116.453 40.878 116.653 40.678 116.9 40.678Z" fill="black"/>
<path fill-rule="evenodd" clip-rule="evenodd" d="M122.293 38.7488C122.54 38.7488 122.74 38.9487 122.74 39.1954C122.74 45.6702 122.74 51.2529 122.74 55.8965C122.74 58.8636 122.74 61.4472 122.74 63.6351C122.74 63.8817 122.54 64.0817 122.293 64.0817C122.046 64.0817 121.846 63.8817 121.846 63.6351C121.846 61.4475 121.846 58.8642 121.846 55.8976C121.846 51.2538 121.846 45.6706 121.846 39.1954C121.846 38.9487 122.046 38.7488 122.293 38.7488Z" fill="black"/>
<path fill-rule="evenodd" clip-rule="evenodd" d="M95.7049 30.5999C95.7454 30.8432 95.581 31.0734 95.3375 31.1139C94.4786 31.257 93.636 31.5317 92.7686 31.8206C92.3849 31.9484 92.0023 32.077 91.6201 32.2055C89.5197 32.9114 87.4322 33.613 85.2366 34.1616C84.9972 34.2214 84.7545 34.0759 84.6947 33.8366C84.6348 33.5973 84.7804 33.3548 85.0198 33.295C87.1779 32.7558 89.2272 32.0671 91.3283 31.3611C91.7121 31.2321 92.0977 31.1025 92.486 30.9732C93.3463 30.6866 94.2525 30.3891 95.1906 30.2328C95.434 30.1923 95.6643 30.3566 95.7049 30.5999Z" fill="black"/>
<path fill-rule="evenodd" clip-rule="evenodd" d="M94.9175 34.1438C93.5381 34.6644 92.1153 35.2014 90.6756 35.4553C90.4325 35.4982 90.2007 35.336 90.1578 35.0931C90.1149 34.8502 90.2772 34.6185 90.5203 34.5757C91.87 34.3376 93.2005 33.8361 94.5807 33.3157C94.8511 33.2138 95.1233 33.1112 95.398 33.0097C97.0506 32.3989 98.7775 31.8355 100.573 31.8355C100.82 31.8355 101.02 32.0355 101.02 32.2821C101.02 32.5288 100.82 32.7288 100.573 32.7288C98.9513 32.7288 97.356 33.2384 95.708 33.8475C95.4462 33.9442 95.1827 34.0437 94.9175 34.1438Z" fill="black"/>
<path fill-rule="evenodd" clip-rule="evenodd" d="M105.199 33.8275C105.234 34.0717 105.064 34.2979 104.819 34.3328C103.146 34.5717 101.55 35.1487 99.9139 35.7671C99.7996 35.8103 99.6852 35.8537 99.5705 35.8971C98.0562 36.4711 96.4998 37.061 94.8681 37.3837C94.6259 37.4316 94.3908 37.2743 94.3429 37.0323C94.295 36.7903 94.4524 36.5553 94.6945 36.5075C96.2496 36.1999 97.7389 35.6357 99.2682 35.0563C99.3778 35.0148 99.4877 34.9732 99.5977 34.9316C101.229 34.3151 102.91 33.7031 104.693 33.4485C104.937 33.4136 105.164 33.5833 105.199 33.8275Z" fill="black"/>
<path fill-rule="evenodd" clip-rule="evenodd" d="M110.345 35.5845C110.386 35.8278 110.221 36.0579 109.978 36.0985C108.309 36.3764 106.686 36.9575 105.043 37.6045C104.705 37.7373 104.367 37.8731 104.027 38.0095C102.723 38.5324 101.399 39.0636 100.057 39.4625C99.8203 39.5328 99.5715 39.3982 99.5011 39.1618C99.4307 38.9254 99.5654 38.6767 99.802 38.6063C101.1 38.2204 102.375 37.7093 103.674 37.1885C104.019 37.0501 104.366 36.911 104.715 36.7734C106.367 36.1231 108.064 35.5117 109.831 35.2173C110.074 35.1768 110.305 35.3412 110.345 35.5845Z" fill="black"/>
<path fill-rule="evenodd" clip-rule="evenodd" d="M116.452 37.32C116.512 37.5593 116.366 37.8018 116.126 37.8617C114.502 38.2676 112.934 38.8671 111.345 39.4909C111.227 39.5372 111.109 39.5835 110.991 39.63C109.523 40.207 108.031 40.7936 106.488 41.2343C106.25 41.3021 106.003 41.1648 105.935 40.9276C105.867 40.6904 106.005 40.4432 106.242 40.3754C107.742 39.9471 109.195 39.3759 110.671 38.7958C110.786 38.7504 110.902 38.7049 111.018 38.6595C112.605 38.0365 114.222 37.4168 115.91 36.9951C116.149 36.9352 116.392 37.0807 116.452 37.32Z" fill="black"/>
<path fill-rule="evenodd" clip-rule="evenodd" d="M122.398 39.0643C122.471 39.3 122.338 39.55 122.102 39.6225C120.799 40.0233 119.532 40.5113 118.249 41.0055C117.997 41.1026 117.744 41.1999 117.49 41.2969C115.953 41.8844 114.386 42.455 112.743 42.8458C112.503 42.903 112.262 42.7548 112.205 42.5148C112.148 42.2748 112.296 42.034 112.536 41.9769C114.117 41.6006 115.638 41.0485 117.171 40.4625C117.42 40.3674 117.67 40.2713 117.92 40.1749C119.203 39.6806 120.504 39.1795 121.839 38.7687C122.075 38.6962 122.325 38.8285 122.398 39.0643Z" fill="black"/>
<path fill-rule="evenodd" clip-rule="evenodd" d="M120.696 46.0483C120.578 46.0962 120.48 46.136 120.427 46.1555C120.14 46.2604 119.85 46.3699 119.557 46.4807C118.347 46.9377 117.083 47.4152 115.784 47.6748C115.542 47.7231 115.307 47.5663 115.258 47.3244C115.21 47.0825 115.367 46.8472 115.609 46.7988C116.828 46.5552 118.005 46.1109 119.209 45.6567C119.51 45.543 119.813 45.4287 120.119 45.3168C120.159 45.3023 120.23 45.2731 120.331 45.2322C120.399 45.2047 120.48 45.1718 120.573 45.1345C120.793 45.0461 121.064 44.9403 121.328 44.8484C121.585 44.7586 121.86 44.6733 122.081 44.6362C122.182 44.6191 122.324 44.6025 122.46 44.6297C122.53 44.6438 122.641 44.6777 122.738 44.7691C122.85 44.8736 122.901 45.0122 122.901 45.1466C122.901 45.3932 122.7 45.5932 122.454 45.5932C122.363 45.5932 122.28 45.5665 122.209 45.5206C122.068 45.5467 121.862 45.6082 121.622 45.6917C121.378 45.7769 121.122 45.8769 120.906 45.9636C120.832 45.9929 120.761 46.0218 120.696 46.0483Z" fill="black"/>
<path fill-rule="evenodd" clip-rule="evenodd" d="M123.2 49.9883C123.278 50.2223 123.151 50.4752 122.917 50.5532C121.447 51.0428 119.998 51.5756 118.54 52.1112C117.913 52.3415 117.285 52.5724 116.653 52.8006C116.421 52.8844 116.165 52.7643 116.081 52.5323C115.997 52.3003 116.117 52.0443 116.349 51.9605C116.971 51.736 117.593 51.5073 118.217 51.2781C119.681 50.7403 121.151 50.1999 122.634 49.7058C122.869 49.6278 123.122 49.7543 123.2 49.9883Z" fill="black"/>
<path fill-rule="evenodd" clip-rule="evenodd" d="M120.272 58.0189C120.15 58.0658 120.038 58.1089 119.938 58.1441C118.673 58.5898 117.415 59.1074 116.215 59.6959C115.993 59.8046 115.725 59.7131 115.617 59.4917C115.508 59.2702 115.599 59.0026 115.821 58.894C117.056 58.2883 118.347 57.7575 119.641 57.3016C119.701 57.2806 119.789 57.2469 119.895 57.2063C120.134 57.1148 120.464 56.9883 120.765 56.8942C120.991 56.8235 121.232 56.7594 121.456 56.7291C121.658 56.7016 121.935 56.6877 122.17 56.8053C122.391 56.9156 122.481 57.1838 122.37 57.4045C122.26 57.6251 121.991 57.7145 121.771 57.6042C121.774 57.6058 121.776 57.6066 121.775 57.6069C121.775 57.6084 121.722 57.5945 121.576 57.6143C121.425 57.6347 121.238 57.6821 121.032 57.7466C120.753 57.8339 120.496 57.9329 120.272 58.0189Z" fill="black"/>
<path fill-rule="evenodd" clip-rule="evenodd" d="M124.161 61.7142C124.245 61.9461 124.125 62.2023 123.893 62.2866C123.59 62.3967 123.29 62.5025 122.993 62.6073C122.25 62.8692 121.523 63.1254 120.805 63.4302C120.586 63.5231 120.347 63.6344 120.096 63.7512C119.621 63.9718 119.104 64.212 118.606 64.3844C117.816 64.6579 116.942 64.8167 116.049 64.5452C115.813 64.4733 115.68 64.2238 115.751 63.9878C115.823 63.7519 116.073 63.6188 116.309 63.6906C116.943 63.8833 117.605 63.7858 118.313 63.5403C118.776 63.3802 119.207 63.1791 119.648 62.973C119.911 62.8506 120.177 62.7265 120.455 62.6081C121.201 62.2916 121.969 62.0209 122.722 61.7555C123.014 61.6527 123.303 61.5507 123.588 61.4471C123.82 61.3628 124.076 61.4824 124.161 61.7142Z" fill="black"/>
<path fill-rule="evenodd" clip-rule="evenodd" d="M114.084 69.4723C113.417 69.6135 112.738 69.7572 112.067 69.8652C111.824 69.9045 111.594 69.7389 111.555 69.4954C111.516 69.2519 111.681 69.0227 111.925 68.9834C112.576 68.8784 113.215 68.7431 113.867 68.605C114.223 68.5297 114.583 68.4536 114.95 68.3811C115.975 68.179 117.03 68.013 118.11 68.013C118.357 68.013 118.557 68.2129 118.557 68.4596C118.557 68.7063 118.357 68.9062 118.11 68.9062C117.117 68.9062 116.13 69.059 115.123 69.2575C114.782 69.3247 114.435 69.3982 114.084 69.4723Z" fill="black"/>
<path d="M109.447 56.3989C109.462 60.9623 105.673 64.6711 100.983 64.6828C96.2935 64.6946 92.4796 61.0047 92.4646 56.4414C92.4495 51.878 96.2389 48.1692 100.928 48.1575C105.618 48.1457 109.432 51.8356 109.447 56.3989Z" fill="white"/>
<path fill-rule="evenodd" clip-rule="evenodd" d="M108.223 45.4934C108.35 45.7049 108.282 45.9793 108.07 46.1063C102.648 49.3644 100.454 53.2906 99.5823 56.1894C99.1451 57.6437 99.0391 58.846 99.031 59.5843C99.0285 59.8067 99.035 59.9844 99.0434 60.1122C99.0444 60.1148 99.0454 60.1175 99.0464 60.1202C99.0593 60.1548 99.0678 60.1909 99.0719 60.2276C99.0776 60.2802 99.0816 60.3258 99.0836 60.3634C99.0846 60.3818 99.0853 60.4021 99.0852 60.4223L99.0852 60.4235C99.0852 60.4351 99.085 60.48 99.0742 60.5304C99.0709 60.5459 99.0639 60.5752 99.0495 60.6099C99.0389 60.6355 99.0042 60.7152 98.9208 60.7841C98.809 60.8765 98.6437 60.9187 98.4815 60.8592C98.3621 60.8154 98.298 60.7347 98.2788 60.7097C98.2361 60.6535 98.2166 60.5994 98.2125 60.5878L98.2121 60.5868C98.2048 60.5666 98.2 60.5492 98.1972 60.5385C98.1871 60.4994 98.1803 60.456 98.1755 60.4211C98.1712 60.3897 98.1669 60.3524 98.1627 60.3095C97.3537 58.203 96.1327 56.6844 94.6483 55.2859C94.4686 55.1167 94.4601 54.834 94.6294 54.6546C94.7986 54.4751 95.0814 54.4669 95.2611 54.6362C96.4028 55.7117 97.418 56.8782 98.2218 58.3257C98.3035 57.6442 98.4557 56.8318 98.7263 55.9318C99.658 52.8321 101.986 48.7192 107.609 45.3407C107.821 45.2136 108.095 45.282 108.223 45.4934Z" fill="black"/>
<path fill-rule="evenodd" clip-rule="evenodd" d="M97.1047 47.4052C99.3486 46.5399 102.261 46.5822 104.421 47.3858C105.776 47.8897 107.482 49.2088 108.562 51.0452C109.653 52.9017 110.117 55.3114 108.916 57.9456C107.833 60.3199 106.025 62.0736 103.842 62.9168C101.656 63.7615 99.1241 63.6797 96.6267 62.438C94.0928 61.1782 92.4867 58.9854 91.9805 56.2283C91.6843 54.615 91.9533 52.6811 93.0773 51.0269C92.9693 51.1595 92.8692 51.2957 92.778 51.4354C92.6432 51.6419 92.3664 51.7 92.1596 51.5651C91.9528 51.4303 91.8945 51.1535 92.0293 50.947C93.121 49.2741 95.2036 48.1384 97.1047 47.4052ZM102.094 47.7444C102.098 47.7658 102.099 47.7876 102.099 47.8098C102.1 48.0565 101.901 48.2569 101.654 48.2576C97.8509 48.2671 95.5251 49.4681 94.2184 51.0025C92.9043 52.5455 92.5689 54.4848 92.8596 56.0678C93.3164 58.5558 94.7497 60.5074 97.0243 61.6383C99.3097 62.7746 101.58 62.8328 103.52 62.0835C105.463 61.3327 107.106 59.7584 108.102 57.5745C109.164 55.2469 108.76 53.1451 107.791 51.4974C106.811 49.8296 105.263 48.6518 104.11 48.223L104.11 48.223C103.495 47.9941 102.809 47.8333 102.094 47.7444Z" fill="black"/>
<path d="M97.5858 64.4862L70.6066 54.8004L61.9627 54.8004C61.6135 70.1579 56.5933 86.2134 72.5144 96.5656C82.7757 103.238 95.4904 89.8783 97.5859 86.2135L97.5858 64.4862Z" fill="#C7D3FF"/>
<path fill-rule="evenodd" clip-rule="evenodd" d="M61.5714 55.266C61.8182 55.266 62.0183 55.466 62.0183 55.7127C62.0183 61.01 62.0145 64.9565 62.0113 68.3086C62.0062 73.7079 62.0026 77.565 62.0183 83.0412C62.019 83.2879 61.8195 83.4884 61.5727 83.4891C61.3259 83.4898 61.1253 83.2905 61.1246 83.0438C61.1088 77.5661 61.1125 73.7064 61.1176 68.3056C61.1208 64.9535 61.1245 61.0076 61.1245 55.7127C61.1245 55.466 61.3246 55.266 61.5714 55.266Z" fill="black"/>
<path fill-rule="evenodd" clip-rule="evenodd" d="M60.9167 78.4202C61.1635 78.4202 61.3636 78.6202 61.3636 78.8668C61.3636 80.2688 61.821 82.0133 62.6671 83.9049C63.5105 85.7905 64.7277 87.7948 66.2168 89.7092C69.2016 93.5467 73.2372 96.9713 77.4684 98.3809C77.7025 98.4589 77.8291 98.7118 77.751 98.9458C77.673 99.1798 77.4199 99.3063 77.1857 99.2283C72.7291 97.7437 68.5595 94.1767 65.5111 90.2574C63.9835 88.2935 62.7272 86.2282 61.8511 84.2694C60.9777 82.3167 60.4698 80.4421 60.4698 78.8668C60.4698 78.6202 60.6699 78.4202 60.9167 78.4202Z" fill="black"/>
<path fill-rule="evenodd" clip-rule="evenodd" d="M92.7464 86.5717C92.9313 86.735 92.9488 87.0173 92.7854 87.2021C92.7149 87.2819 92.6419 87.3646 92.5665 87.4502C91.0811 89.1341 88.6386 91.9031 85.3846 94.2948C81.9639 96.8091 77.6158 98.9298 72.5006 98.9298C72.2538 98.9298 72.0537 98.7298 72.0537 98.4831C72.0537 98.2365 72.2538 98.0365 72.5006 98.0365C77.3603 98.0365 81.5255 96.0224 84.8551 93.5752C88.0296 91.2419 90.4168 88.5361 91.9023 86.8523C91.9756 86.7692 92.0467 86.6886 92.1155 86.6107C92.279 86.4259 92.5614 86.4084 92.7464 86.5717Z" fill="black"/>
<path fill-rule="evenodd" clip-rule="evenodd" d="M97.9277 85.6063C98.1127 85.7696 98.1302 86.0519 97.9668 86.2367C97.8963 86.3165 97.8233 86.3992 97.7479 86.4847C96.2625 88.1687 93.82 90.9377 90.566 93.3294C87.1452 95.8437 82.7972 97.9644 77.682 97.9643C77.4352 97.9643 77.2351 97.7644 77.2351 97.5177C77.2351 97.271 77.4352 97.0711 77.682 97.0711C82.5417 97.0711 86.7069 95.057 90.0365 92.6098C93.2109 90.2765 95.5982 87.5706 97.0837 85.8868C97.157 85.8038 97.2281 85.7232 97.2969 85.6453C97.4604 85.4604 97.7428 85.443 97.9277 85.6063Z" fill="black"/>
<path fill-rule="evenodd" clip-rule="evenodd" d="M61.1348 56.9545C61.2099 56.7195 61.4614 56.5899 61.6965 56.665C71.6807 59.8521 83.9298 63.7807 93.5561 66.9568C93.7905 67.0342 93.9177 67.2867 93.8403 67.521C93.763 67.7552 93.5102 67.8824 93.2759 67.8051C83.6541 64.6304 71.4087 60.703 61.4246 57.5159C61.1895 57.4408 61.0597 57.1895 61.1348 56.9545Z" fill="black"/>
<path fill-rule="evenodd" clip-rule="evenodd" d="M68.8569 53.7391C68.932 53.5042 69.1835 53.3745 69.4186 53.4496C75.15 55.2792 80.7929 57.2214 86.377 59.1435C90.5142 60.5675 94.6191 61.9804 98.7039 63.3282C98.9383 63.4055 99.0656 63.6581 98.9882 63.8923C98.9108 64.1265 98.6581 64.2537 98.4237 64.1764C94.311 62.8194 90.2007 61.4045 86.0643 59.9807C80.4953 58.0637 74.8792 56.1304 69.1466 54.3005C68.9115 54.2254 68.7818 53.9741 68.8569 53.7391Z" fill="black"/>
<path fill-rule="evenodd" clip-rule="evenodd" d="M91.8838 63.9484C92.1306 63.9484 92.3307 64.1484 92.3307 64.395C92.3307 70.8706 92.3308 76.4539 92.3308 81.0978C92.3309 84.0642 92.3309 86.6472 92.3309 88.8347C92.3309 89.0814 92.1308 89.2813 91.884 89.2813C91.6372 89.2813 91.4371 89.0814 91.4371 88.8347C91.4371 86.6471 91.4371 84.0638 91.437 81.0972C91.437 76.4534 91.4369 70.8703 91.4369 64.395C91.4369 64.1484 91.637 63.9484 91.8838 63.9484Z" fill="black"/>
<path fill-rule="evenodd" clip-rule="evenodd" d="M97.277 62.0192C97.5238 62.0192 97.7239 62.2191 97.7239 62.4658C97.7239 68.9406 97.724 74.5233 97.724 79.1669C97.724 82.134 97.7241 84.7176 97.7241 86.9055C97.7241 87.1521 97.524 87.3521 97.2772 87.3521C97.0304 87.3521 96.8303 87.1521 96.8303 86.9055C96.8303 84.7179 96.8303 82.1346 96.8302 79.168C96.8302 74.5242 96.8301 68.941 96.8301 62.4658C96.8301 62.2191 97.0302 62.0192 97.277 62.0192Z" fill="black"/>
<path fill-rule="evenodd" clip-rule="evenodd" d="M70.6892 53.8703C70.7298 54.1136 70.5653 54.3438 70.3218 54.3843C69.4629 54.5274 68.6203 54.8021 67.7529 55.091C67.3692 55.2188 66.9866 55.3474 66.6044 55.4759C64.504 56.1818 62.4165 56.8834 60.2209 57.432C59.9815 57.4918 59.7388 57.3463 59.679 57.107C59.6191 56.8677 59.7647 56.6252 60.0042 56.5654C62.1622 56.0262 64.2116 55.3375 66.3126 54.6315C66.6964 54.5025 67.082 54.3729 67.4703 54.2436C68.3306 53.957 69.2368 53.6595 70.1749 53.5032C70.4183 53.4627 70.6486 53.627 70.6892 53.8703Z" fill="black"/>
<path fill-rule="evenodd" clip-rule="evenodd" d="M69.9018 57.4142C68.5224 57.9348 67.0996 58.4718 65.6599 58.7257C65.4168 58.7686 65.185 58.6064 65.1421 58.3635C65.0992 58.1206 65.2615 57.8889 65.5046 57.8461C66.8543 57.608 68.1848 57.1065 69.5651 56.5861C69.8354 56.4842 70.1076 56.3816 70.3823 56.2801C72.0349 55.6693 73.7618 55.1059 75.5572 55.1059C75.804 55.1059 76.0041 55.3059 76.0041 55.5525C76.0041 55.7992 75.804 55.9992 75.5572 55.9992C73.9356 55.9992 72.3404 56.5088 70.6923 57.1179C70.4306 57.2146 70.167 57.3141 69.9018 57.4142Z" fill="black"/>
<path fill-rule="evenodd" clip-rule="evenodd" d="M80.1829 57.0979C80.2178 57.3421 80.0481 57.5683 79.8037 57.6032C78.1304 57.8421 76.5346 58.4191 74.8982 59.0375C74.784 59.0807 74.6695 59.1241 74.5548 59.1675C73.0406 59.7415 71.4841 60.3314 69.8524 60.6541C69.6102 60.702 69.3751 60.5447 69.3272 60.3027C69.2793 60.0607 69.4367 59.8257 69.6788 59.7779C71.2339 59.4703 72.7233 58.9061 74.2525 58.3267C74.3621 58.2852 74.472 58.2436 74.5821 58.202C76.2135 57.5855 77.8943 56.9735 79.6773 56.7189C79.9217 56.684 80.148 56.8537 80.1829 57.0979Z" fill="black"/>
<path fill-rule="evenodd" clip-rule="evenodd" d="M85.3295 58.8549C85.3701 59.0982 85.2056 59.3283 84.9622 59.3689C83.2936 59.6468 81.6703 60.2279 80.027 60.8749C79.6898 61.0077 79.3511 61.1435 79.011 61.2799C77.7072 61.8028 76.3828 62.334 75.0412 62.7329C74.8046 62.8032 74.5558 62.6686 74.4854 62.4322C74.415 62.1958 74.5498 61.9471 74.7863 61.8767C76.0843 61.4908 77.3589 60.9797 78.6579 60.4589C79.003 60.3205 79.3499 60.1814 79.6994 60.0438C81.351 59.3935 83.048 58.7821 84.8152 58.4877C85.0587 58.4472 85.2889 58.6116 85.3295 58.8549Z" fill="black"/>
<path fill-rule="evenodd" clip-rule="evenodd" d="M91.436 60.5904C91.4958 60.8297 91.3502 61.0722 91.1108 61.1321C89.4859 61.538 87.9186 62.1375 86.3289 62.7613C86.2111 62.8076 86.0932 62.8539 85.9751 62.9004C84.5075 63.4774 83.0156 64.064 81.472 64.5047C81.2347 64.5725 80.9873 64.4352 80.9195 64.198C80.8517 63.9608 80.9892 63.7136 81.2265 63.6458C82.7266 63.2175 84.1797 62.6463 85.6553 62.0662C85.7708 62.0208 85.8864 61.9753 86.0022 61.9299C87.5896 61.3069 89.2062 60.6872 90.894 60.2655C91.1335 60.2056 91.3761 60.3511 91.436 60.5904Z" fill="black"/>
<path fill-rule="evenodd" clip-rule="evenodd" d="M97.3824 62.3347C97.4549 62.5704 97.3225 62.8204 97.0866 62.8929C95.7833 63.2937 94.5163 63.7817 93.2332 64.2759C92.9811 64.373 92.7284 64.4703 92.4747 64.5673C90.9372 65.1548 89.3699 65.7254 87.7273 66.1162C87.4872 66.1734 87.2462 66.0252 87.1891 65.7852C87.1319 65.5452 87.2802 65.3044 87.5203 65.2473C89.1015 64.871 90.6221 64.3189 92.1555 63.7329C92.4044 63.6378 92.6539 63.5417 92.9041 63.4453C94.1872 62.951 95.4881 62.4499 96.8238 62.0391C97.0597 61.9666 97.3098 62.0989 97.3824 62.3347Z" fill="black"/>
<path fill-rule="evenodd" clip-rule="evenodd" d="M95.6803 69.3187C95.5622 69.3666 95.4641 69.4064 95.4108 69.4259C95.1243 69.5308 94.8344 69.6403 94.5412 69.7511C93.3313 70.2081 92.0668 70.6856 90.7684 70.9452C90.5264 70.9935 90.2909 70.8367 90.2425 70.5948C90.1941 70.3529 90.3511 70.1176 90.5931 70.0692C91.8123 69.8256 92.9896 69.3813 94.1934 68.9271C94.4947 68.8134 94.7976 68.6991 95.1033 68.5872C95.1429 68.5727 95.2147 68.5435 95.3154 68.5026C95.3832 68.4751 95.4642 68.4422 95.5573 68.4049C95.7777 68.3166 96.0484 68.2107 96.312 68.1188C96.5693 68.029 96.8441 67.9437 97.065 67.9066C97.1667 67.8895 97.3086 67.8729 97.4442 67.9001C97.5147 67.9142 97.6252 67.9481 97.7226 68.0395C97.834 68.144 97.8849 68.2826 97.8849 68.417C97.8849 68.6636 97.6848 68.8636 97.438 68.8636C97.3478 68.8636 97.2638 68.8369 97.1936 68.791C97.0523 68.8171 96.846 68.8786 96.6066 68.9621C96.3623 69.0473 96.1064 69.1473 95.89 69.234C95.8168 69.2633 95.7455 69.2922 95.6803 69.3187Z" fill="black"/>
<path fill-rule="evenodd" clip-rule="evenodd" d="M98.184 73.2587C98.2621 73.4927 98.1355 73.7456 97.9014 73.8236C96.4317 74.3132 94.982 74.846 93.5242 75.3816C92.8975 75.6119 92.2693 75.8428 91.6374 76.071C91.4052 76.1548 91.1491 76.0347 91.0652 75.8027C90.9813 75.5707 91.1015 75.3147 91.3336 75.2309C91.9552 75.0064 92.5777 74.7777 93.2014 74.5485C94.665 74.0107 96.1356 73.4703 97.6187 72.9762C97.8529 72.8982 98.106 73.0247 98.184 73.2587Z" fill="black"/>
<path fill-rule="evenodd" clip-rule="evenodd" d="M95.2564 81.2893C95.1344 81.3362 95.0224 81.3793 94.9225 81.4145C93.6571 81.8602 92.3993 82.3778 91.1989 82.9663C90.9773 83.075 90.7095 82.9835 90.6008 82.7621C90.4921 82.5406 90.5836 82.273 90.8052 82.1644C92.0406 81.5587 93.3311 81.0279 94.6254 80.572C94.6849 80.551 94.773 80.5173 94.879 80.4767C95.1182 80.3852 95.4487 80.2587 95.7489 80.1646C95.9749 80.0939 96.2168 80.0298 96.4402 79.9995C96.6426 79.972 96.9195 79.9581 97.1547 80.0757C97.3755 80.186 97.4649 80.4542 97.3546 80.6749C97.2442 80.8955 96.9757 80.9849 96.755 80.8746C96.7582 80.8762 96.7599 80.877 96.7598 80.8773C96.7594 80.8788 96.706 80.8649 96.5604 80.8847C96.4093 80.9051 96.2222 80.9525 96.0162 81.017C95.7375 81.1043 95.4801 81.2033 95.2564 81.2893Z" fill="black"/>
<path fill-rule="evenodd" clip-rule="evenodd" d="M99.145 84.9846C99.2293 85.2165 99.1097 85.4727 98.8777 85.557C98.5747 85.6671 98.2746 85.7729 97.977 85.8777C97.2341 86.1396 96.5069 86.3958 95.7893 86.7006C95.5706 86.7935 95.3311 86.9048 95.0799 87.0216C94.6052 87.2422 94.0885 87.4824 93.5903 87.6548C92.8002 87.9283 91.9261 88.0871 91.0332 87.8156C90.7971 87.7437 90.6639 87.4942 90.7358 87.2582C90.8077 87.0223 91.0573 86.8892 91.2935 86.961C91.9272 87.1537 92.5889 87.0562 93.2978 86.8107C93.7603 86.6506 94.1912 86.4495 94.6327 86.2434C94.8951 86.121 95.1611 85.9969 95.4397 85.8785C96.1849 85.562 96.953 85.2913 97.7061 85.0259C97.9978 84.9231 98.2873 84.8211 98.5722 84.7175C98.8042 84.6332 99.0606 84.7528 99.145 84.9846Z" fill="black"/>
<path fill-rule="evenodd" clip-rule="evenodd" d="M89.0687 92.7427C88.4013 92.8839 87.722 93.0276 87.0515 93.1356C86.8079 93.1749 86.5785 93.0093 86.5392 92.7658C86.4999 92.5223 86.6655 92.2931 86.9092 92.2538C87.5603 92.1488 88.1995 92.0135 88.8516 91.8754C89.2073 91.8001 89.5669 91.724 89.9344 91.6515C90.9593 91.4494 92.0142 91.2834 93.094 91.2834C93.3408 91.2834 93.5409 91.4833 93.5409 91.73C93.5409 91.9767 93.3408 92.1766 93.094 92.1766C92.1017 92.1766 91.1141 92.3294 90.1074 92.5279C89.7665 92.5951 89.4192 92.6686 89.0687 92.7427Z" fill="black"/>
<path d="M84.4312 79.6693C84.4463 84.2327 80.6569 87.9415 75.9673 87.9532C71.2778 87.965 67.464 84.2751 67.4489 79.7118C67.4338 75.1484 71.2232 71.4396 75.9127 71.4279C80.6023 71.4161 84.4161 75.106 84.4312 79.6693Z" fill="white"/>
<path fill-rule="evenodd" clip-rule="evenodd" d="M83.2068 68.7638C83.3341 68.9753 83.2659 69.2497 83.0545 69.3767C77.6323 72.6348 75.438 76.561 74.5666 79.4598C74.1295 80.9141 74.0235 82.1164 74.0153 82.8547C74.0128 83.0771 74.0193 83.2548 74.0277 83.3826C74.0287 83.3852 74.0297 83.3879 74.0307 83.3906C74.0436 83.4252 74.0522 83.4613 74.0562 83.498C74.0619 83.5506 74.0659 83.5963 74.0679 83.6338C74.0689 83.6522 74.0696 83.6725 74.0695 83.6927L74.0695 83.6939C74.0695 83.7055 74.0693 83.7504 74.0585 83.8008C74.0552 83.8163 74.0482 83.8456 74.0338 83.8803C74.0232 83.9059 73.9885 83.9856 73.9052 84.0545C73.7933 84.1469 73.628 84.1891 73.4658 84.1296C73.3464 84.0858 73.2823 84.0051 73.2632 83.9801C73.2204 83.9239 73.2009 83.8698 73.1968 83.8583L73.1964 83.8572C73.1891 83.837 73.1843 83.8196 73.1815 83.8089C73.1714 83.7698 73.1646 83.7264 73.1598 83.6915C73.1555 83.6601 73.1512 83.6228 73.147 83.5799C72.338 81.4734 71.117 79.9548 69.6326 78.5563C69.4529 78.3871 69.4445 78.1044 69.6137 77.925C69.7829 77.7455 70.0657 77.7373 70.2454 77.9066C71.3871 78.9821 72.4024 80.1486 73.2062 81.5961C73.2878 80.9146 73.44 80.1022 73.7106 79.2022C74.6423 76.1025 76.9707 71.9896 82.5935 68.6111C82.8049 68.484 83.0795 68.5524 83.2068 68.7638Z" fill="black"/>
<path fill-rule="evenodd" clip-rule="evenodd" d="M72.089 70.6756C74.3329 69.8103 77.2449 69.8526 79.4054 70.6562C80.7603 71.1601 82.4661 72.4792 83.5461 74.3156C84.6378 76.1721 85.1017 78.5818 83.9 81.216C82.817 83.5903 81.0095 85.344 78.8268 86.1872C76.6401 87.0319 74.1084 86.9501 71.611 85.7084C69.0771 84.4486 67.471 82.2558 66.9648 79.4987C66.6686 77.8854 66.9376 75.9515 68.0617 74.2973C67.9536 74.4299 67.8535 74.5661 67.7623 74.7058C67.6276 74.9123 67.3507 74.9704 67.1439 74.8355C66.9371 74.7007 66.8788 74.4239 67.0136 74.2174C68.1053 72.5445 70.1879 71.4088 72.089 70.6756ZM77.0787 71.0148C77.0819 71.0362 77.0836 71.058 77.0837 71.0802C77.0845 71.3269 76.8851 71.5273 76.6383 71.528C72.8352 71.5375 70.5094 72.7385 69.2027 74.2729C67.8886 75.8159 67.5533 77.7552 67.8439 79.3382C68.3007 81.8262 69.734 83.7778 72.0086 84.9087C74.294 86.045 76.5644 86.1032 78.504 85.3539C80.4476 84.6031 82.0905 83.0288 83.0867 80.8449C84.1485 78.5173 83.7445 76.4155 82.7756 74.7678C81.7948 73.1 80.2472 71.9222 79.0943 71.4934L79.0942 71.4934C78.479 71.2645 77.793 71.1037 77.0787 71.0148Z" fill="black"/>
<path fill-rule="evenodd" clip-rule="evenodd" d="M55.0667 42.2658C55.1691 42.142 55.3525 42.1247 55.4763 42.2271C57.3273 43.7578 59.1251 45.3463 60.9197 46.9319C61.1764 47.1587 61.433 47.3854 61.6897 47.6119C61.8102 47.7182 61.8216 47.902 61.7154 48.0225C61.6091 48.143 61.4252 48.1545 61.3048 48.0482C61.0477 47.8213 60.7908 47.5944 60.5341 47.3675C58.7388 45.7813 56.9486 44.1996 55.1055 42.6754C54.9817 42.573 54.9643 42.3896 55.0667 42.2658Z" fill="black"/>
<path fill-rule="evenodd" clip-rule="evenodd" d="M59.5572 41.1894C59.6827 41.0891 59.8657 41.1096 59.966 41.2351C61.2211 42.8058 62.5068 44.3475 63.7962 45.8936C63.9663 46.0976 64.1365 46.3016 64.3067 46.5058C64.4095 46.6292 64.3928 46.8127 64.2694 46.9155C64.146 47.0183 63.9626 47.0017 63.8598 46.8783C63.6897 46.6742 63.5197 46.4703 63.3496 46.2663C62.0606 44.7207 60.7707 43.174 59.5115 41.5982C59.4112 41.4727 59.4317 41.2897 59.5572 41.1894Z" fill="black"/>
<path d="M141.186 71.0283C143.338 72.9112 132.073 77.0255 127.867 78.2716L122.493 74.0658C124.931 74.193 132.158 70.667 135.344 68.4581C137.447 69.3927 139.316 69.3928 141.186 71.0283Z" fill="white"/>
<path fill-rule="evenodd" clip-rule="evenodd" d="M122.208 74.8776C122.278 74.7327 122.451 74.6716 122.596 74.7411C123.568 75.2071 124.457 75.8056 125.319 76.3916C125.348 76.4109 125.376 76.4301 125.404 76.4493C126.243 77.0192 127.057 77.5727 127.926 78.007C128.069 78.0788 128.128 78.2535 128.056 78.3972C127.984 78.5409 127.809 78.5992 127.665 78.5273C126.761 78.0753 125.918 77.5021 125.089 76.9385C125.057 76.9166 125.025 76.8947 124.993 76.8728C124.126 76.2843 123.271 75.7101 122.345 75.2656C122.2 75.1962 122.139 75.0224 122.208 74.8776Z" fill="black"/>
<path fill-rule="evenodd" clip-rule="evenodd" d="M135.456 68.05C135.575 68.1583 135.583 68.3423 135.475 68.461C131.12 73.23 126.46 74.3848 121.675 75.4589C121.519 75.4941 121.363 75.3956 121.328 75.2388C121.293 75.0821 121.391 74.9265 121.548 74.8913C126.319 73.8203 130.821 72.6954 135.045 68.0687C135.153 67.9501 135.337 67.9417 135.456 68.05Z" fill="black"/>
<path fill-rule="evenodd" clip-rule="evenodd" d="M142.35 70.8861C142.481 70.9782 142.513 71.1596 142.421 71.2912C140.624 73.8593 137.85 75.4295 134.869 76.5303C132.608 77.365 130.198 77.9393 127.978 78.4685C127.274 78.6361 126.59 78.7992 125.935 78.9647C125.779 79.004 125.621 78.9097 125.582 78.7539C125.543 78.5982 125.637 78.44 125.793 78.4006C126.463 78.2312 127.158 78.0656 127.868 77.8964C130.082 77.3687 132.443 76.8059 134.667 75.9846C137.6 74.9015 140.245 73.3853 141.945 70.9576C142.037 70.826 142.218 70.794 142.35 70.8861Z" fill="black"/>
<path fill-rule="evenodd" clip-rule="evenodd" d="M134.573 68.0124C134.64 67.866 134.812 67.801 134.958 67.8671C135.448 68.0883 135.936 68.3106 136.423 68.5326C138.998 69.706 141.554 70.8707 144.211 71.8088C144.363 71.8623 144.442 72.0284 144.389 72.1799C144.335 72.3314 144.169 72.4109 144.018 72.3574C141.333 71.41 138.751 70.2329 136.176 69.0595C135.69 68.8381 135.205 68.6168 134.719 68.3973C134.572 68.3311 134.507 68.1588 134.573 68.0124Z" fill="black"/>
<path fill-rule="evenodd" clip-rule="evenodd" d="M141.236 62.2034C141.38 62.1315 141.554 62.1898 141.626 62.3335C142.343 63.766 142.039 65.2489 141.422 66.5993C140.958 67.6153 140.294 68.6 139.709 69.467C139.522 69.7446 139.343 70.0102 139.181 70.2609C139.094 70.3959 138.914 70.4347 138.779 70.3476C138.644 70.2604 138.605 70.0804 138.692 69.9454C138.867 69.6749 139.055 69.3961 139.247 69.1099C139.827 68.251 140.451 67.3254 140.893 66.3575C141.479 65.0759 141.708 63.7969 141.106 62.5936C141.034 62.4499 141.092 62.2752 141.236 62.2034Z" fill="black"/>
<path fill-rule="evenodd" clip-rule="evenodd" d="M139.979 61.241C140.313 60.98 140.766 60.8355 141.213 60.9396C141.448 60.9946 141.609 61.138 141.709 61.3143C141.796 61.3137 141.882 61.3208 141.964 61.3361C142.265 61.392 142.62 61.5873 142.658 62.028C142.692 62.4219 142.543 62.8444 142.326 63.1877C142.109 63.5315 141.794 63.845 141.439 63.992C141.169 64.1036 140.878 64.1313 140.66 63.9338C140.593 63.8733 140.545 63.8011 140.511 63.7247C140.353 63.6594 140.194 63.5833 140.05 63.4916C139.697 63.2654 139.396 62.9168 139.396 62.3681C139.396 61.9072 139.645 61.502 139.979 61.241ZM141.662 63.1097C141.723 63.0394 141.781 62.9614 141.834 62.8774C142.01 62.5988 142.098 62.3033 142.078 62.0784C142.072 62.0086 142.03 61.9401 141.858 61.9081C141.858 61.9081 141.857 61.908 141.857 61.9079C141.859 61.9556 141.859 62.0029 141.858 62.0492C141.849 62.443 141.746 62.8591 141.662 63.1097ZM141.03 61.4963C140.8 61.4604 140.546 61.5364 140.337 61.6994C140.114 61.8744 139.977 62.1222 139.977 62.3681C139.977 62.6578 140.119 62.8449 140.364 63.0015C140.372 63.007 140.381 63.0124 140.39 63.0177C140.403 62.8082 140.441 62.5695 140.506 62.345C140.554 62.1749 140.621 62.0022 140.709 61.8512C140.787 61.7189 140.891 61.5878 141.03 61.4963ZM141.019 63.0605C141.021 63.0585 141.023 63.0564 141.025 63.0543C141.05 63.03 141.068 63.0077 141.081 62.9899C141.09 62.9787 141.093 62.9721 141.094 62.9703C141.166 62.7726 141.266 62.3927 141.276 62.0517C141.255 62.0767 141.233 62.1078 141.211 62.146C141.186 62.1876 141.163 62.2343 141.142 62.2851C141.142 62.3021 141.141 62.3194 141.138 62.3368C141.13 62.3895 141.117 62.4552 141.104 62.523C141.103 62.5291 141.102 62.5353 141.101 62.5416C141.086 62.6183 141.07 62.7021 141.055 62.7896C141.04 62.8812 141.027 62.9729 141.019 63.0605Z" fill="black"/>
<path d="M138.724 51.111C138.724 49.6897 137.322 45.7369 133.584 43.4004H138.724L142.696 44.5686L146.201 52.7466C143.553 52.2792 138.724 51.111 138.724 51.111Z" fill="white" fill-opacity="0.2"/>
<path fill-rule="evenodd" clip-rule="evenodd" d="M130.089 41.8478C130.172 41.7104 130.351 41.6664 130.489 41.7496C130.594 41.8137 130.7 41.8777 130.806 41.9417C132.83 43.1626 134.861 44.3884 136.09 46.6203C136.884 48.064 137.177 49.5042 137.327 51.0751C137.342 51.235 137.225 51.377 137.065 51.3923C136.905 51.4075 136.763 51.2902 136.748 51.1303C136.602 49.599 136.321 48.2471 135.58 46.9008C134.429 44.8096 132.524 43.6588 130.469 42.4177C130.376 42.3611 130.282 42.3043 130.187 42.2473C130.05 42.1641 130.006 41.9852 130.089 41.8478Z" fill="black"/>
<path fill-rule="evenodd" clip-rule="evenodd" d="M136.067 50.6915C136.105 50.5353 136.261 50.4389 136.418 50.4762C137.232 50.671 138.063 50.8402 138.907 51.0118C139.459 51.1242 140.016 51.2377 140.578 51.3601C141.984 51.6668 143.39 52.0249 144.703 52.5504C144.853 52.6101 144.925 52.7794 144.866 52.9285C144.806 53.0777 144.637 53.1502 144.487 53.0906C143.219 52.5831 141.85 52.233 140.454 51.9285C139.911 51.8101 139.359 51.6978 138.808 51.5856C137.955 51.4118 137.102 51.2381 136.282 51.0421C136.126 51.0047 136.03 50.8477 136.067 50.6915Z" fill="black"/>
<path fill-rule="evenodd" clip-rule="evenodd" d="M140.816 44.0035C140.95 43.9142 141.13 43.95 141.22 44.0835C143.156 46.9784 144.322 50.7017 144.937 53.1619C144.976 53.3178 144.881 53.4757 144.725 53.5147C144.569 53.5537 144.411 53.4589 144.372 53.303C143.762 50.8612 142.616 47.2169 140.736 44.407C140.647 44.2735 140.683 44.0928 140.816 44.0035Z" fill="black"/>
<path fill-rule="evenodd" clip-rule="evenodd" d="M134.041 43.4576C133.145 43.5066 132.153 43.5438 131.012 43.4915C130.851 43.4841 130.727 43.3481 130.734 43.1876C130.742 43.0271 130.878 42.903 131.038 42.9103C132.151 42.9613 133.121 42.9253 134.009 42.8767C134.203 42.8662 134.393 42.855 134.58 42.8439C135.249 42.8044 135.882 42.7671 136.493 42.7692C138.08 42.7749 139.549 43.0464 141.34 44.2053C141.475 44.2926 141.514 44.4726 141.426 44.6075C141.339 44.7424 141.159 44.781 141.024 44.6937C139.343 43.6058 137.987 43.3563 136.491 43.351C135.9 43.3489 135.291 43.3848 134.625 43.424C134.436 43.4352 134.241 43.4467 134.041 43.4576Z" fill="black"/>
<path fill-rule="evenodd" clip-rule="evenodd" d="M136.594 42.9244C136.652 42.7745 136.82 42.6999 136.97 42.7577C138.103 43.1948 139.251 43.9994 140.293 44.9063C141.339 45.8156 142.294 46.8408 143.04 47.7356C143.142 47.859 143.126 48.0425 143.002 48.1453C142.879 48.2482 142.695 48.2315 142.593 48.1081C141.862 47.2308 140.928 46.2294 139.912 45.3452C138.892 44.4586 137.803 43.7028 136.761 43.3005C136.611 43.2426 136.536 43.0743 136.594 42.9244Z" fill="black"/>
<path d="M66.977 38.8374L61.7412 33.0198C61.2564 32.3411 60.4613 30.8673 61.1594 30.4019C62.032 29.8201 66.1044 30.6928 68.4314 30.9837C70.293 31.2164 71.1463 29.3353 71.3402 28.3657C72.9885 30.9837 76.7506 34.9396 76.2852 35.6377C75.7034 36.5104 72.5037 36.2195 68.4314 35.6377C65.1735 35.1723 66.4922 37.7709 66.977 38.8374Z" fill="white"/>
<path fill-rule="evenodd" clip-rule="evenodd" d="M59.7392 31.0503C59.8528 30.9368 60.037 30.9368 60.1506 31.0503C60.4129 31.3127 60.6754 31.5747 60.9378 31.8366C65.7373 36.628 70.5144 41.3969 73.8537 47.4591C73.9312 47.5998 73.88 47.7767 73.7392 47.8542C73.5985 47.9317 73.4216 47.8805 73.3441 47.7398C70.0461 41.7525 65.3237 37.0377 60.5107 32.2323C60.2537 31.9758 59.9965 31.719 59.7392 31.4617C59.6257 31.3481 59.6257 31.1639 59.7392 31.0503Z" fill="black"/>
<path fill-rule="evenodd" clip-rule="evenodd" d="M70.9559 26.0057C71.1134 25.9742 71.2667 26.0764 71.2982 26.2339C71.5468 27.477 71.5448 28.8602 70.9151 30.0793C70.5106 30.8624 69.7892 31.2177 69.0366 31.338C68.2902 31.4573 67.4844 31.3524 66.8351 31.1938C66.4543 31.1008 66.0445 30.9643 65.6327 30.8271C65.6158 30.8215 65.5989 30.8159 65.5821 30.8103C65.1484 30.6659 64.7093 30.5212 64.2712 30.4132C63.3884 30.1957 62.5686 30.1435 61.8778 30.5027C61.6448 30.6239 61.523 30.7917 61.4637 30.9907C61.401 31.201 61.4042 31.4616 61.46 31.7567C61.5629 32.3012 61.8246 32.8722 62.0195 33.2973C62.0375 33.3365 62.0549 33.3745 62.0716 33.4111C62.1382 33.5574 62.0736 33.7298 61.9274 33.7964C61.7812 33.863 61.6087 33.7984 61.5421 33.6522C61.5256 33.6159 61.5078 33.5772 61.4891 33.5364C61.2976 33.1199 61.0054 32.484 60.8883 31.8647C60.8236 31.5225 60.8065 31.1586 60.9062 30.8245C61.0092 30.4791 61.2324 30.1826 61.6094 29.9865C62.4932 29.527 63.4889 29.6213 64.4104 29.8483C64.8744 29.9627 65.3346 30.1147 65.7658 30.2583C65.7792 30.2628 65.7925 30.2672 65.8057 30.2716C66.2266 30.4117 66.6161 30.5414 66.9731 30.6286C67.583 30.7776 68.3043 30.8659 68.9448 30.7635C69.5791 30.6621 70.1045 30.3809 70.3982 29.8123C70.9448 28.7542 70.9621 27.52 70.7277 26.348C70.6962 26.1905 70.7984 26.0372 70.9559 26.0057Z" fill="black"/>
<path fill-rule="evenodd" clip-rule="evenodd" d="M69.3748 36.6986C68.656 36.5683 67.9864 36.5473 67.4399 36.7717C67.2718 36.8408 67.182 36.9281 67.1299 37.0159C67.0756 37.1076 67.0477 37.225 67.0469 37.3746C67.0455 37.6453 67.1287 37.9461 67.2158 38.2613C67.2304 38.3141 67.2452 38.3674 67.2596 38.421C67.3015 38.5761 67.2097 38.7357 67.0546 38.7776C66.8995 38.8194 66.7398 38.7276 66.698 38.5725C66.6859 38.5277 66.6726 38.4803 66.6588 38.4307C66.5726 38.1224 66.4633 37.7308 66.4652 37.3715C66.4663 37.1545 66.5067 36.9264 66.6294 36.7194C66.7543 36.5085 66.9502 36.3439 67.2188 36.2336C67.9224 35.9446 68.7279 35.9901 69.4786 36.1262C69.9527 36.2122 70.4445 36.3438 70.8884 36.4626C71.1353 36.5287 71.3673 36.5908 71.5733 36.6389C72.0558 36.7515 73.0735 36.9313 74.0818 36.9924C74.586 37.023 75.0784 37.0233 75.496 36.9738C75.924 36.9231 76.2286 36.8247 76.3968 36.6931C76.5233 36.5941 76.7061 36.6164 76.8051 36.7429C76.9041 36.8694 76.8818 37.0522 76.7553 37.1512C76.4572 37.3846 76.0191 37.4976 75.5645 37.5515C75.0993 37.6067 74.569 37.6048 74.0466 37.5731C73.0018 37.5098 71.9514 37.3246 71.441 37.2054C71.1967 37.1484 70.948 37.0815 70.6939 37.0132C70.2704 36.8994 69.832 36.7815 69.3748 36.6986Z" fill="black"/>
<path fill-rule="evenodd" clip-rule="evenodd" d="M70.3063 28.1237C70.4399 28.0346 70.6205 28.0707 70.7096 28.2044C71.2299 28.9849 71.705 29.7188 72.1536 30.4117C73.7263 32.8413 74.9726 34.7666 76.6969 36.4252C76.8127 36.5366 76.8162 36.7207 76.7049 36.8365C76.5935 36.9523 76.4094 36.9559 76.2936 36.8445C74.5164 35.135 73.2233 33.1367 71.6426 30.6939C71.1986 30.0079 70.732 29.2867 70.2256 28.5271C70.1365 28.3934 70.1726 28.2128 70.3063 28.1237Z" fill="black"/>
<path fill-rule="evenodd" clip-rule="evenodd" d="M43.9725 83.964C45.9557 83.9533 48.025 84.7057 49.3268 86.0238C50.0436 86.7495 50.2978 87.646 50.2357 88.5581C50.225 88.7154 50.0888 88.8342 49.9316 88.8235C49.7743 88.8128 49.6555 88.6766 49.6663 88.5194C49.7189 87.7459 49.5063 87.0177 48.9207 86.4248C47.7442 85.2336 45.8316 84.5247 43.9756 84.5348C42.8443 84.5409 41.7579 84.8129 40.8812 85.386C40.85 85.4212 40.81 85.449 40.7637 85.4655C40.3552 85.7515 39.996 86.1063 39.7039 86.5335C39.6939 86.5798 39.6849 86.6274 39.6771 86.6762C39.5736 87.3189 39.6692 88.0825 39.7489 88.7191C39.7509 88.7349 39.7528 88.7506 39.7548 88.7662C39.9496 90.3249 40.2766 91.3952 41.4725 92.2408C42.0664 92.6607 42.8357 93.025 43.6372 93.2265C44.4405 93.4285 45.2541 93.4615 45.948 93.2457C46.2261 93.1591 46.5138 93.0254 46.8016 92.8507C46.9363 92.7689 47.1118 92.8118 47.1936 92.9465C47.2754 93.0812 47.2325 93.2567 47.0978 93.3385C46.7772 93.5332 46.4472 93.6881 46.1175 93.7906C45.6324 93.9416 45.1122 93.9868 44.5893 93.9541C44.5943 93.9937 44.5911 94.0351 44.5782 94.0758C44.5308 94.226 44.3705 94.3094 44.2202 94.2619C42.5581 93.7371 40.6753 92.9097 39.4923 91.6728C38.896 91.0493 38.468 90.3118 38.3473 89.4498C38.2264 88.5867 38.4182 87.6316 39.0034 86.5822C39.0572 86.4858 39.1136 86.3922 39.1725 86.3015C39.2453 86.0204 39.3617 85.7521 39.5437 85.5241C39.7758 85.2332 40.1008 85.0254 40.531 84.9327C41.5241 84.2716 42.744 83.9707 43.9725 83.964ZM39.0792 87.8065C38.8894 88.3814 38.8467 88.901 38.9125 89.3706C39.0051 90.0319 39.3167 90.622 39.7858 91.1494C39.45 90.4704 39.2966 89.702 39.1884 88.837C39.1853 88.8121 39.1822 88.7869 39.179 88.7613C39.1435 88.4787 39.1021 88.1498 39.0792 87.8065Z" fill="black"/>
<path fill-rule="evenodd" clip-rule="evenodd" d="M40.4795 91.3066C40.5381 91.4529 40.4669 91.619 40.3206 91.6775C39.5967 91.9671 39.0344 92.4209 38.2849 93.0394C38.1633 93.1398 37.9835 93.1225 37.8832 93.001C37.7828 92.8794 37.8001 92.6996 37.9216 92.5993C38.6619 91.9883 39.2895 91.4753 40.1086 91.1476C40.2549 91.0891 40.421 91.1603 40.4795 91.3066ZM37.454 93.2282C37.5626 93.3424 37.558 93.5231 37.4437 93.6316C35.1583 95.8028 33.1702 99.1695 32.1856 102.322C32.1386 102.472 31.9785 102.556 31.8281 102.509C31.6777 102.462 31.5938 102.302 31.6408 102.151C32.6506 98.9187 34.6861 95.4642 37.0506 93.2178C37.1649 93.1093 37.3455 93.1139 37.454 93.2282Z" fill="black"/>
<path fill-rule="evenodd" clip-rule="evenodd" d="M50.2549 105.683C50.4113 105.703 50.5222 105.846 50.5027 106.002C50.3885 106.915 49.8378 107.435 49.1558 107.716C48.494 107.989 47.6943 108.046 47.0174 108.063C42.943 108.161 38.8493 107.637 34.8932 106.621C34.7406 106.582 34.6486 106.427 34.6878 106.274C34.727 106.121 34.8825 106.029 35.0352 106.069C38.9457 107.073 42.9869 107.589 47.0037 107.492C47.6761 107.476 48.3822 107.418 48.9382 107.188C49.474 106.967 49.8531 106.598 49.9364 105.931C49.9559 105.775 50.0985 105.664 50.2549 105.683Z" fill="black"/>
<path fill-rule="evenodd" clip-rule="evenodd" d="M45.8238 93.4012C45.9814 93.4012 46.1091 93.529 46.1091 93.6866C46.1091 97.8509 47.5425 100.811 49.2121 104.258C49.577 105.011 49.9531 105.788 50.3281 106.606C50.3938 106.749 50.3309 106.918 50.1876 106.984C50.0444 107.05 49.875 106.987 49.8093 106.844C49.4447 106.048 49.075 105.286 48.7136 104.541C47.0376 101.084 45.5384 97.9926 45.5384 93.6866C45.5384 93.529 45.6662 93.4012 45.8238 93.4012Z" fill="black"/>
<path fill-rule="evenodd" clip-rule="evenodd" d="M52.1985 86.5194C50.6174 88.0164 48.4803 90.825 46.3505 95.2267C46.2818 95.3686 46.1112 95.4279 45.9693 95.3593C45.8274 95.2906 45.7681 95.12 45.8367 94.9781C47.9875 90.5332 50.1616 87.662 51.8062 86.105C52.6218 85.3328 53.332 84.86 53.8622 84.6995C54.1222 84.6208 54.4018 84.5986 54.6266 84.7331C54.8721 84.8801 54.9496 85.1473 54.9399 85.4102C54.9388 85.4373 54.934 85.4641 54.9254 85.4899C54.3351 87.261 52.8006 89.2974 51.1278 91.2906C50.522 92.0124 49.8977 92.729 49.2872 93.4297C48.193 94.6858 47.1428 95.8912 46.3219 96.9858C46.2273 97.1119 46.0485 97.1374 45.9224 97.0428C45.7963 96.9483 45.7707 96.7694 45.8653 96.6433C46.6975 95.5337 47.7735 94.2984 48.8785 93.0297C49.4856 92.3327 50.1015 91.6256 50.6906 90.9237C52.3567 88.9386 53.8081 86.996 54.3698 85.3514C54.3685 85.2991 54.36 85.2666 54.3524 85.2485C54.3447 85.2301 54.338 85.2256 54.3334 85.2228C54.3158 85.2123 54.2328 85.1836 54.0275 85.2458C53.6271 85.3669 52.9958 85.7646 52.1985 86.5194Z" fill="black"/>
<path fill-rule="evenodd" clip-rule="evenodd" d="M31.498 84.3343C31.526 84.5879 31.5789 84.8445 31.636 85.0414C31.9482 86.1166 32.7846 87.2805 33.4997 88.206C34.2871 89.225 35.1351 90.1949 35.9898 91.1723C36.0667 91.2602 36.1436 91.3482 36.2205 91.4362C37.1505 92.5009 38.0815 93.5793 38.9279 94.7304C39.0212 94.8574 38.994 95.036 38.867 95.1294C38.74 95.2227 38.5614 95.1955 38.4681 95.0685C37.6375 93.939 36.7211 92.8769 35.7907 91.8117C35.7134 91.7232 35.636 91.6347 35.5585 91.5461C34.7059 90.5711 33.8466 89.5884 33.0481 88.555C32.3399 87.6385 31.4345 86.3944 31.0879 85.2005C31.0215 84.9716 30.9622 84.6827 30.9307 84.3969C30.8997 84.1161 30.8925 83.8135 30.9456 83.5679C30.9721 83.4455 31.0184 83.3136 31.1046 83.2059C31.1982 83.0888 31.3342 83.0076 31.5043 83.0005C31.6604 82.994 31.8124 83.0514 31.9525 83.1351C32.095 83.2203 32.2483 83.3465 32.4144 83.5126C34.1029 85.2011 35.1041 87.0277 36.1813 88.9932C36.3322 89.2684 36.4845 89.5464 36.6405 89.827C37.1967 90.8284 37.776 91.814 38.3407 92.661C38.4281 92.7922 38.3926 92.9693 38.2615 93.0568C38.1304 93.1442 37.9532 93.1088 37.8658 92.9776C37.289 92.1124 36.7014 91.1119 36.1415 90.1042C35.9836 89.8199 35.8302 89.5402 35.6791 89.2647C34.5988 87.2952 33.6379 85.5432 32.0109 83.9162C31.8636 83.769 31.7476 83.6775 31.6597 83.625C31.6164 83.5991 31.5836 83.5849 31.5606 83.5776C31.5537 83.5754 31.5479 83.5739 31.5432 83.5729C31.5327 83.5908 31.5169 83.6264 31.5035 83.6886C31.4697 83.8449 31.4694 84.0757 31.498 84.3343Z" fill="black"/>
<path fill-rule="evenodd" clip-rule="evenodd" d="M42.2333 88.4044C42.3038 88.2635 42.4752 88.2063 42.6162 88.2768C43.4429 88.6902 44.3104 89.0476 45.1991 89.4137C45.2806 89.4473 45.3623 89.481 45.4442 89.5148C45.6581 89.6031 45.8784 89.688 46.1016 89.7741C46.6352 89.9799 47.1851 90.192 47.7026 90.4706C47.8021 90.5242 47.8884 90.5781 47.9533 90.6341C47.9859 90.6622 48.0223 90.6986 48.0519 90.7442C48.0815 90.7899 48.1141 90.8604 48.1114 90.9489C48.1053 91.1484 47.9429 91.2351 47.888 91.2597C47.8173 91.2915 47.7371 91.3076 47.671 91.3176C47.5341 91.3384 47.3573 91.3466 47.1957 91.3539L47.181 91.3545C47.0162 91.362 46.8611 91.369 46.7338 91.3843C45.7572 91.5015 45.1154 91.3734 44.5775 90.9782C44.3182 90.7877 44.0956 90.544 43.8758 90.2662C43.7216 90.0714 43.5613 89.8497 43.3884 89.6106C43.3172 89.5121 43.2438 89.4108 43.1679 89.3071C43.1321 89.2581 43.1141 89.2016 43.1129 89.1452C42.8595 89.0299 42.6085 88.9111 42.3609 88.7873C42.22 88.7168 42.1628 88.5454 42.2333 88.4044ZM44.0543 89.5562C44.1475 89.6834 44.2359 89.8016 44.3234 89.9121C44.5301 90.1734 44.7159 90.3717 44.9155 90.5183C45.2954 90.7974 45.7729 90.9247 46.6658 90.8176C46.7896 90.8027 46.9307 90.7948 47.0646 90.7885C46.697 90.6157 46.3217 90.471 45.9337 90.3215C45.7028 90.2325 45.4674 90.1418 45.2265 90.0424C45.144 90.0083 45.0615 89.9743 44.9789 89.9403C44.6703 89.8132 44.3615 89.686 44.0543 89.5562Z" fill="black"/>
<path fill-rule="evenodd" clip-rule="evenodd" d="M22.2933 90.1207C24.2765 90.1099 26.3458 90.8623 27.6476 92.1804C27.7584 92.2925 27.7572 92.4732 27.6451 92.5839C27.533 92.6947 27.3523 92.6936 27.2415 92.5814C26.065 91.3902 24.1524 90.6813 22.2964 90.6914C21.1651 90.6976 20.0787 90.9695 19.202 91.5426C19.1708 91.5779 19.1308 91.6056 19.0845 91.6221C18.676 91.9081 18.3168 92.2629 18.0247 92.6902C18.0147 92.7365 18.0057 92.784 17.9979 92.8328C17.8944 93.4755 17.99 94.2391 18.0697 94.8757C18.0717 94.8915 18.0736 94.9072 18.0756 94.9228C18.2704 96.4816 18.5974 97.5518 19.7933 98.3974C20.3872 98.8173 21.1565 99.1817 21.958 99.3832C22.7613 99.5851 23.5749 99.6182 24.2688 99.4023C25.2146 99.108 26.2465 98.2758 26.9895 97.2209C27.0802 97.092 27.2582 97.0611 27.3871 97.1519C27.516 97.2426 27.5468 97.4207 27.4561 97.5495C26.6641 98.6742 25.5381 99.6051 24.4383 99.9473C23.9532 100.098 23.433 100.143 22.9101 100.111C22.9151 100.15 22.9119 100.192 22.899 100.232C22.8516 100.383 22.6913 100.466 22.541 100.419C20.8789 99.8937 18.9961 99.0663 17.8131 97.8294C17.2168 97.2059 16.7888 96.4684 16.6681 95.6064C16.5472 94.7434 16.739 93.7882 17.3242 92.7388C17.378 92.6424 17.4344 92.5488 17.4933 92.4582C17.5661 92.177 17.6825 91.9088 17.8645 91.6807C18.0966 91.3898 18.4216 91.1821 18.8518 91.0893C19.8449 90.4282 21.0648 90.1274 22.2933 90.1207ZM17.4 93.9631C17.2102 94.5381 17.1675 95.0577 17.2333 95.5273C17.3259 96.1886 17.6375 96.7787 18.1066 97.3061C17.7708 96.627 17.6174 95.8586 17.5092 94.9936C17.5061 94.9688 17.503 94.9436 17.4998 94.918C17.4643 94.6353 17.4229 94.3064 17.4 93.9631Z" fill="black"/>
<path fill-rule="evenodd" clip-rule="evenodd" d="M19.3189 98.2987C19.4511 98.3845 19.4888 98.5612 19.403 98.6934C18.0776 100.737 17.8393 103.465 17.9494 106.183C18.0032 107.508 18.1387 108.816 18.2642 110.028L18.2724 110.107C18.3995 111.334 18.5153 112.468 18.5156 113.395C18.5156 113.553 18.3879 113.681 18.2302 113.681C18.0726 113.681 17.9449 113.553 17.9448 113.396C17.9446 112.504 17.8328 111.402 17.7047 110.165L17.6959 110.08C17.5708 108.873 17.4336 107.549 17.3792 106.206C17.2681 103.466 17.4969 100.584 18.9242 98.3829C19.0099 98.2507 19.1866 98.213 19.3189 98.2987Z" fill="black"/>
<path fill-rule="evenodd" clip-rule="evenodd" d="M27.0173 109.472C27.0639 109.471 27.1101 109.481 27.1518 109.502C28.22 110.036 29.4261 110.706 30.6325 111.384C30.7941 111.475 30.9557 111.565 31.117 111.656C32.1624 112.244 33.195 112.825 34.1327 113.319C35.2196 113.891 36.1588 114.336 36.8315 114.542C37.174 114.647 37.4089 114.678 37.5477 114.658C37.6118 114.649 37.6332 114.632 37.6377 114.628C37.6389 114.627 37.651 114.617 37.6566 114.573C37.6761 114.417 37.8187 114.306 37.9751 114.325C38.1315 114.345 38.2424 114.487 38.2229 114.644C38.2038 114.797 38.1422 114.939 38.0247 115.047C37.9106 115.153 37.7686 115.203 37.6285 115.223C37.3589 115.262 37.0226 115.198 36.6641 115.088C35.9349 114.864 34.9535 114.396 33.8667 113.824C32.9215 113.326 31.8812 112.741 30.8365 112.153C30.6754 112.063 30.5141 111.972 30.3531 111.881C29.17 111.217 27.9989 110.566 26.9604 110.044C25.5921 110.088 24.6122 110.43 23.8513 110.881C23.0905 111.333 22.5378 111.9 22.0185 112.432C22.0054 112.446 21.9924 112.459 21.9793 112.472C21.4626 113.002 20.9472 113.528 20.2884 113.756C19.6029 113.993 18.8192 113.896 17.7926 113.344C17.6538 113.269 17.6019 113.096 17.6766 112.957C17.7513 112.818 17.9244 112.766 18.0632 112.841C19.0075 113.35 19.6198 113.384 20.1015 113.217C20.6098 113.04 21.0325 112.626 21.5707 112.074C21.5878 112.056 21.6049 112.039 21.6222 112.021C22.1349 111.495 22.7333 110.881 23.56 110.39C24.4206 109.88 25.5171 109.508 27.0173 109.472Z" fill="black"/>
<path fill-rule="evenodd" clip-rule="evenodd" d="M28.1228 98.3396C28.2261 98.2207 28.4064 98.208 28.5253 98.3114C31.5296 100.922 33.9497 104.171 35.6193 107.207C37.2831 110.233 38.2235 113.088 38.2235 114.912C38.2235 115.069 38.0958 115.197 37.9382 115.197C37.7806 115.197 37.6528 115.069 37.6528 114.912C37.6528 113.233 36.768 110.481 35.1192 107.482C33.4763 104.494 31.0964 101.302 28.151 98.7422C28.032 98.6388 28.0194 98.4586 28.1228 98.3396Z" fill="black"/>
<path fill-rule="evenodd" clip-rule="evenodd" d="M29.5546 88.3078C29.4991 88.4019 29.444 88.4952 29.3923 88.5776C27.5256 91.5494 27.4775 95.3111 27.8158 98.8828C28.0571 97.7099 28.3114 96.5378 28.6 95.3743C28.8109 94.5243 29.0655 93.6854 29.3175 92.8549C29.3489 92.7513 29.3804 92.6478 29.4116 92.5444C29.6945 91.6095 29.9675 90.6826 30.1723 89.7418C30.2007 89.6112 30.2368 89.4694 30.273 89.3275C30.2844 89.2827 30.2959 89.2379 30.307 89.1934C30.3547 89.004 30.4 88.8134 30.432 88.6252C30.4975 88.2412 30.4996 87.9102 30.3894 87.6553C30.3101 87.4717 30.251 87.4245 30.2339 87.4139C30.2204 87.4181 30.1703 87.4372 30.0774 87.5346C29.9659 87.6514 29.8481 87.8234 29.7274 88.0189C29.6695 88.1128 29.6134 88.208 29.5584 88.3013L29.5546 88.3078ZM28.0225 100.745C28.3721 98.9906 28.7247 97.2421 29.154 95.5117C29.3611 94.677 29.6112 93.8528 29.8637 93.0205C29.8951 92.9171 29.9265 92.8135 29.9579 92.7097C30.2409 91.7746 30.5199 90.8284 30.73 89.8631C30.756 89.7433 30.7886 89.6155 30.8241 89.4763C30.836 89.4297 30.8482 89.3819 30.8605 89.3326C30.909 89.1401 30.9587 88.932 30.9947 88.7212C31.0652 88.3074 31.091 87.8398 30.9133 87.4288C30.7873 87.1372 30.6016 86.8852 30.3098 86.8464C30.0297 86.8093 29.8054 86.9928 29.6644 87.1407C29.5091 87.3034 29.3653 87.5188 29.2417 87.7192C29.1807 87.8181 29.122 87.9176 29.0677 88.0097L29.0629 88.0179C29.0065 88.1136 28.9556 88.1997 28.909 88.274C26.612 91.931 26.9462 96.6731 27.4447 100.724C27.4314 100.791 27.418 100.859 27.4046 100.926C27.3303 101.299 27.2561 101.672 27.1813 102.044C27.1227 102.335 27.0873 102.635 27.0535 102.921C27.0428 103.012 27.0322 103.102 27.0211 103.189C26.974 103.56 26.9163 103.907 26.8002 104.235C26.7476 104.384 26.8254 104.547 26.974 104.599C27.1225 104.652 27.2856 104.574 27.3382 104.426C27.4755 104.038 27.5391 103.641 27.5873 103.261C27.5998 103.162 27.6112 103.066 27.6225 102.971C27.6556 102.69 27.6872 102.423 27.7408 102.156C27.7799 101.962 27.8188 101.767 27.8576 101.573C28.0046 101.545 28.1061 101.407 28.0869 101.256C28.0652 101.087 28.0437 100.917 28.0225 100.745Z" fill="black"/>
<path fill-rule="evenodd" clip-rule="evenodd" d="M11.5633 91.0973C11.5913 91.3509 11.6442 91.6075 11.7014 91.8044C12.0136 92.8796 12.8499 94.0435 13.5651 94.969C14.3525 95.988 15.2005 96.9579 16.0552 97.9353C16.132 98.0232 16.2089 98.1112 16.2859 98.1992C16.8474 98.8421 17.4093 99.4899 17.9527 100.156C17.7802 99.7222 17.5349 99.2911 17.2631 98.8539C17.1621 98.6914 17.0563 98.5264 16.9498 98.3603C16.726 98.0112 16.4991 97.6573 16.3072 97.3119C16.0458 96.8413 15.7931 96.3661 15.541 95.8921C14.5432 94.016 13.5552 92.1581 12.0762 90.6792C11.929 90.532 11.813 90.4405 11.7251 90.388C11.6817 90.3621 11.649 90.3479 11.626 90.3406C11.619 90.3384 11.6133 90.3369 11.6086 90.3359C11.598 90.3538 11.5823 90.3894 11.5689 90.4516C11.5351 90.6079 11.5348 90.8387 11.5633 91.0973ZM18.2968 100.583C18.3304 100.585 18.3649 100.58 18.3988 100.569C18.5483 100.519 18.6291 100.357 18.5793 100.208C18.3864 99.6293 18.0731 99.0759 17.7479 98.5526C17.6372 98.3746 17.5262 98.2016 17.4173 98.0318C17.1993 97.6919 16.9894 97.3646 16.8061 97.0347C16.5566 96.5855 16.3118 96.1248 16.0647 95.6597C15.0638 93.7759 14.0252 91.821 12.4798 90.2756C12.3137 90.1095 12.1604 89.9833 12.0178 89.8981C11.8778 89.8144 11.7258 89.757 11.5697 89.7635C11.3996 89.7706 11.2636 89.8518 11.17 89.9689C11.0838 90.0766 11.0375 90.2085 11.011 90.3309C10.9579 90.5765 10.9651 90.8791 10.996 91.1599C11.0276 91.4457 11.0868 91.7346 11.1533 91.9635C11.4999 93.1574 12.4053 94.4015 13.1134 95.318C13.912 96.3514 14.7713 97.3341 15.6239 98.3091C15.7013 98.3977 15.7787 98.4862 15.856 98.5747C16.7865 99.6399 17.7029 100.702 18.5334 101.832C18.6268 101.958 18.8054 101.986 18.9324 101.892C19.0594 101.799 19.0866 101.62 18.9932 101.493C18.7666 101.185 18.5339 100.882 18.2968 100.583Z" fill="black"/>
<path fill-rule="evenodd" clip-rule="evenodd" d="M23.604 96.0104C23.5553 96.0138 23.5014 96.0175 23.451 96.0186C22.947 96.0301 22.4434 96.0606 21.9331 96.0915C21.865 96.0956 21.7967 96.0997 21.7282 96.1038C21.1501 96.1385 20.5641 96.1703 19.9745 96.1703C19.8169 96.1703 19.6891 96.0425 19.6891 95.8849C19.6891 95.7273 19.8169 95.5996 19.9745 95.5996C20.5454 95.5996 21.1163 95.5687 21.6941 95.5341C21.7621 95.5301 21.8302 95.5259 21.8983 95.5218C22.4074 95.491 22.9225 95.4598 23.438 95.448C23.4729 95.4472 23.5137 95.4446 23.564 95.441C23.5683 95.4407 23.5726 95.4404 23.5769 95.4401C23.622 95.4369 23.6734 95.4333 23.725 95.4311C23.8322 95.4266 23.9742 95.4261 24.1041 95.4632C24.2195 95.4961 24.2756 95.5848 24.2968 95.6437C24.3153 95.6949 24.3149 95.7389 24.3143 95.7568C24.3129 95.7962 24.3042 95.8296 24.3001 95.8444C24.2903 95.8802 24.2755 95.9193 24.2617 95.9533C24.2327 96.0247 24.1911 96.1151 24.149 96.2029C24.0674 96.373 23.9663 96.5693 23.9303 96.6266C23.5332 97.2572 22.9999 97.6922 22.2238 97.8334C21.7682 97.9162 21.354 97.9504 20.966 97.8512C20.5674 97.7494 20.2295 97.5161 19.9068 97.1289C19.8059 97.0078 19.8223 96.8278 19.9434 96.7269C20.0644 96.626 20.2444 96.6424 20.3453 96.7635C20.6109 97.0823 20.8518 97.233 21.1073 97.2983C21.3732 97.3662 21.6882 97.3506 22.1217 97.2718C22.7107 97.1647 23.1179 96.8455 23.4472 96.3225C23.4472 96.3226 23.4473 96.3225 23.4473 96.3224C23.4477 96.3217 23.4496 96.3187 23.4531 96.3124C23.4572 96.3052 23.4624 96.2957 23.4687 96.284C23.4814 96.2606 23.4973 96.2304 23.5153 96.1955C23.5436 96.1407 23.5761 96.0759 23.6083 96.0101C23.6069 96.0102 23.6054 96.0103 23.604 96.0104Z" fill="black"/>
<path fill-rule="evenodd" clip-rule="evenodd" d="M12.0638 90.5268C12.3431 90.7119 12.5745 90.9845 12.6021 91.3579C12.6128 91.5024 12.6074 91.6391 12.5878 91.7676C12.6273 92.0173 12.6186 92.2729 12.5927 92.5054C12.5677 92.7307 12.4918 92.9859 12.3197 93.1668C12.2298 93.2613 12.1132 93.3352 11.9706 93.3668C11.8291 93.3983 11.6815 93.3838 11.5344 93.3334C11.3301 93.2634 11.1549 93.1819 11.0095 93.0849C10.5034 93.097 9.97161 92.9053 9.56838 92.4865C9.44804 92.3615 9.37437 92.1924 9.33019 92.0307C9.2847 91.8642 9.26334 91.6795 9.26513 91.4992C9.26691 91.3193 9.29185 91.1333 9.34645 90.9659C9.37067 90.8916 9.4025 90.8157 9.44415 90.744C9.43303 90.7487 9.42266 90.7534 9.41305 90.7582C9.27209 90.8287 9.10067 90.7716 9.03019 90.6306C8.95971 90.4897 9.01684 90.3182 9.15781 90.2478C9.37908 90.1371 9.6955 90.0839 10.019 90.07C10.3509 90.0558 10.7249 90.0817 11.0805 90.153C11.4331 90.2238 11.7863 90.3428 12.0638 90.5268ZM10.8052 90.9552C10.775 90.9488 10.7447 90.9429 10.7143 90.9374C10.54 90.9057 10.3766 90.8911 10.2414 90.899C10.1005 90.9073 10.0246 90.9382 9.99125 90.9641C9.96422 90.9851 9.92325 91.038 9.88905 91.1429C9.85611 91.2439 9.83717 91.3703 9.83584 91.5049C9.83451 91.639 9.85078 91.7706 9.88075 91.8803C9.91204 91.9948 9.95165 92.0617 9.97949 92.0906C10.1436 92.261 10.3364 92.3775 10.537 92.4447C10.5214 92.3804 10.512 92.3146 10.5081 92.2479C10.4949 92.0243 10.5429 91.7939 10.6058 91.5727C10.6474 91.4261 10.7011 91.2661 10.7552 91.105C10.7719 91.0551 10.7887 91.005 10.8052 90.9552ZM12.007 91.7656C11.9225 92.1218 11.6661 92.3535 11.3469 92.456C11.2961 92.4724 11.2436 92.4854 11.1901 92.4949C11.117 92.4132 11.0844 92.3251 11.0778 92.2142C11.0704 92.0879 11.0971 91.9317 11.1548 91.7287C11.1929 91.5945 11.2391 91.4569 11.2903 91.3045C11.3108 91.2436 11.332 91.1804 11.3538 91.1142C11.4455 91.1484 11.5234 91.1822 11.5806 91.2116C11.8174 91.3334 11.9486 91.5218 12.007 91.7656Z" fill="black"/>
<path fill-rule="evenodd" clip-rule="evenodd" d="M31.5501 86.7341C32.2127 86.9228 32.9167 87.448 32.9167 88.229C32.9167 88.2582 32.9169 88.2895 32.917 88.3226C32.9181 88.5178 32.9195 88.7755 32.8879 89.0237C32.8515 89.3084 32.7655 89.6439 32.5299 89.8795C32.3874 90.022 32.2 90.0375 32.068 90.027C31.9309 90.0161 31.7908 89.973 31.6718 89.9275C31.5118 89.8664 31.3337 89.7759 31.227 89.7208C30.7797 89.6641 30.3399 89.4806 30.0113 89.1994C29.7676 88.9908 29.5746 88.7192 29.4961 88.3935C29.4167 88.0641 29.4609 87.7055 29.6486 87.3405C30.017 86.6243 30.8893 86.5459 31.5501 86.7341ZM31.392 89.164C31.3875 89.1619 31.383 89.1598 31.3786 89.1577C30.9534 88.9603 30.7619 88.7835 30.6572 88.5845C30.545 88.3714 30.507 88.0894 30.4908 87.6129C30.4874 87.5124 30.4324 87.4257 30.3521 87.3776C30.5927 87.2056 30.9726 87.1631 31.3937 87.283C31.5664 87.3322 31.7224 87.4023 31.8559 87.4874C31.8132 87.4882 31.7688 87.4888 31.7217 87.4888C31.5641 87.4888 31.4363 87.6166 31.4363 87.7742C31.4363 87.9318 31.5641 88.0596 31.7217 88.0596C31.7992 88.0596 31.8695 88.058 31.9306 88.0566C31.9931 88.0552 32.0432 88.0541 32.0872 88.0545C32.1309 88.0549 32.1591 88.057 32.1764 88.0591C32.1859 88.0992 32.1943 88.1729 32.1943 88.3048C32.1943 88.4882 32.1552 88.7057 32.0711 88.8761C31.9882 89.0442 31.8821 89.1317 31.7541 89.1514C31.637 89.1694 31.5148 89.1732 31.392 89.164Z" fill="black"/>
</svg>
