<svg fill="none" viewBox="0 0 40 41" xmlns="http://www.w3.org/2000/svg"><path clip-rule="evenodd" d="m14.0806 11.8429.001 4.5458h11.8387l-.0009-4.5457c0-3.24159-2.647-5.87539-5.9194-5.87539s-5.9193 2.63374-5.9194 5.87529zm12.8397 4.5458h4.0797c.5523 0 1 .4478 1 1v18.5789c0 .5523-.4477 1-1 1h-22c-.55228 0-1-.4477-1-1v-18.5789c0-.5522.44772-1 1-1h4.0816l-.001-4.5457c0-3.80036 3.1012-6.87539 6.9194-6.87539s6.9193 3.07487 6.9194 6.87519zm-17.9203 1v18.5789h22v-18.5789zm11.0007 4.2571c-1.227 0-2.2158.9869-2.2158 2.1972 0 .6552.2886 1.2437.7496 1.6474.2851.2497.5372.632.5372 1.1007v3.8689c0 .1711.1406.3158.3214.3158h1.2152c.1808 0 .3214-.1447.3214-.3158v-3.8689c0-.4687.2521-.851.5372-1.1007.461-.4037.7497-.9922.7497-1.6474 0-1.2103-.9889-2.1972-2.2159-2.1972zm-3.2158 2.1972c0-1.769 1.443-3.1972 3.2158-3.1972s3.2159 1.4282 3.2159 3.1972c0 .9567-.4232 1.815-1.0908 2.3997-.1413.1238-.1961.2525-.1961.3484v3.8689c0 .7299-.5948 1.3158-1.3214 1.3158h-1.2152c-.7265 0-1.3214-.5859-1.3214-1.3158v-3.8689c0-.0959-.0547-.2246-.1961-.3484-.6675-.5847-1.0907-1.443-1.0907-2.3997z" fill="#4f5162" fill-rule="evenodd"/></svg>