<svg width="24" height="24" viewBox="0 0 32 32" fill="none">
<defs>
<linearGradient id="a" x1=".165" x2=".85102" y1=".11565" y2=".86378">
<stop stop-color="#4791FF"/>
<stop offset="1" stop-color="#2E1CF3"/>
</linearGradient>
<linearGradient id="b" x1=".14708" x2=".80109" y1=".08066" y2=".88845">
<stop stop-color="#FF7F77"/>
<stop offset=".0001" stop-color="#FD7A64"/>
<stop offset="1" stop-color="#E62D14"/>
</linearGradient>
</defs>
<g fill-rule="evenodd" stroke="null" clip-rule="evenodd">
<path transform="translate(0 -2)" fill="url(#a)" d="M8.53422 6.09089c-1.4952.8775-4.5119 2.6297-7.343 2.9079-.3274.0321-.6025.2735-.6305.6013-.36798 4.3056.7697 12.7276 8.0791 16.3339.1539.076.3334.0884.4935.0265 2.0067-.7762 5.0618-3.1125 6.7763-7.6564l-3.343-1.401c-.0198-.0083-.039-.0174-.0576-.0273-.4398.7135-1.1104 1.2925-1.9552 1.6117-2.0305.7672-4.2984-.257-5.0656-2.2875-.7672-2.0305.257-4.2984 2.2874-5.0656 2.0305-.7671 4.2985.257 5.0657 2.2875.2781.7361.3208 1.5034.1654 2.2191.0261.0073.0519.0163.0775.027l3.2518 1.3628c.6061-2.0588.9427-4.5104.8372-7.4016-.0123-.3369-.28-.6105-.6125-.6659-1.7279-.288-4.8541-1.3598-7.3333-2.8625-.2131-.1291-.4783-.1361-.6932-.0099zm-.2852 6.2963c-1.3387.5057-2.0138 2.0009-1.5081 3.3395.5058 1.3386 2.001 2.0138 3.3396 1.5081 1.3386-.5058 2.0138-2.001 1.508-3.3396-.5057-1.3386-2.0009-2.0138-3.3395-1.508z"/>
<path transform="translate(0 -2)" fill="url(#b)" d="M18.21972 13.97879c.296-1.9825.3739-3.8713.1545-4.9788h12.5444c.3011 0 .5506.2504.5619.5649.378 10.5275-4.8383 15.247-7.7323 16.4005-.1368.0546-.2892.0432-.4206-.0242-3.1841-1.6331-5.1502-4.2606-6.3156-7.0479.294-.7801.5538-1.6752.7706-2.6097.1075.3321.2879.6442.5412.909.7176.7499 1.7987.8882 2.6504.4151l1.5006 1.5078c.0077.0078.0156.0152.0235.0225-.5583.9886-.431 2.283.3817 3.1324.9635 1.0069 2.5258 1.0069 3.4893 0 .9636-1.007.9636-2.6395 0-3.6465-.7973-.8332-2.0045-.9769-2.9432-.4313-.0156-.0195-.0323-.0383-.0502-.0564l-1.478-1.4851c.2836-.5455.3457-1.1833.1864-1.7693l1.5293-.8243c.0304.0358.062.0709.0948.1052.8799.9195 2.3066.9195 3.1865 0 .88-.9196.88-2.4104 0-3.33-.8799-.9195-2.3066-.9195-3.1865 0-.5191.5425-.7319 1.2838-.6386 1.9893l-1.6924.9122c-.8853-.7889-2.2167-.7462-3.0536.1284-.0362.0378-.0709.0766-.1041.1162zm1.0233.8444c.3723-.389.9758-.389 1.3481 0 .3722.389.3722 1.0198 0 1.4088-.3723.389-.9758.389-1.3481 0-.3722-.389-.3722-1.0198 0-1.4088zm6.7327-3.0299c-.3723-.389-.9758-.389-1.348 0-.3723.389-.3723 1.0198 0 1.4088.3722.389.9757.389 1.348 0 .3723-.389.3723-1.0198 0-1.4088zm-2.1765 7.7912c.4559-.4764 1.195-.4764 1.6509 0 .4559.4764.4559 1.2488 0 1.7252-.4559.4764-1.195.4764-1.6509 0-.4558-.4764-.4558-1.2488 0-1.7252z"/>
</g>
</svg>