<svg viewBox="0 0 40 40" fill="none" xmlns="http://www.w3.org/2000/svg">
<path transform="translate(0 -9)" fill-rule="evenodd" clip-rule="evenodd" d="M9.06688 10.0909C7.57167 10.9684 4.55503 12.7206 1.72396 12.9988C1.39654 13.0309 1.12145 13.2723 1.09343 13.6001C0.725431 17.9057 1.86311 26.3277 9.17247 29.934C9.32642 30.01 9.50589 30.0224 9.666 29.9605C11.6727 29.1843 14.7278 26.848 16.4423 22.3041L13.0993 20.9031C13.0795 20.8948 13.0603 20.8857 13.0417 20.8758C12.6019 21.5893 11.9313 22.1683 11.0865 22.4875C9.05602 23.2547 6.78807 22.2305 6.02091 20.2C5.25374 18.1695 6.27787 15.9016 8.30836 15.1344C10.3389 14.3673 12.6068 15.3914 13.374 17.4219C13.6521 18.158 13.6948 18.9253 13.5395 19.641C13.5655 19.6483 13.5913 19.6573 13.6169 19.668L16.8687 21.0308C17.4748 18.972 17.8114 16.5204 17.7059 13.6292C17.6937 13.2923 17.4259 13.0187 17.0934 12.9633C15.3655 12.6753 12.2393 11.6035 9.7601 10.1008C9.54697 9.97165 9.28182 9.96473 9.06688 10.0909ZM8.78167 16.3872C7.44305 16.8929 6.76788 18.3881 7.27364 19.7267C7.7794 21.0653 9.27458 21.7405 10.6132 21.2348C11.9518 20.729 12.627 19.2338 12.1212 17.8952C11.6155 16.5566 10.1203 15.8814 8.78167 16.3872Z" fill="url(#paint0_linear_795_24)"/>
<path transform="translate(0 -9)" fill-rule="evenodd" clip-rule="evenodd" d="M21.9177 16.1242C21.6929 14.4244 21.6845 12.8592 21.7923 11.6241C21.8195 11.3119 22.0804 11.0815 22.3884 11.0815H38.3408C38.6653 11.0815 38.9342 11.3443 38.9464 11.6742C39.3538 22.72 33.7325 27.6718 30.6137 28.8821C30.4663 28.9393 30.3021 28.9274 30.1605 28.8567C25.2365 26.3979 23.0154 21.7905 22.1684 17.6223L24.0575 17.9831C24.0703 18.5977 24.3072 19.2084 24.7682 19.6774C25.5415 20.4642 26.7065 20.6094 27.6244 20.113L29.2415 21.695C29.2498 21.7031 29.2582 21.711 29.2668 21.7186C28.6652 22.7559 28.8023 24.114 29.6781 25.0052C30.7165 26.0617 32.4 26.0617 33.4384 25.0052C34.4768 23.9487 34.4768 22.2357 33.4384 21.1792C32.5792 20.305 31.2782 20.1542 30.2666 20.7267C30.2499 20.7062 30.2318 20.6864 30.2125 20.6675L28.6198 19.1093C28.9254 18.537 28.9924 17.8677 28.8206 17.2529L30.4687 16.388C30.5014 16.4256 30.5355 16.4624 30.5709 16.4984C31.5191 17.4632 33.0565 17.4632 34.0048 16.4984C34.9531 15.5336 34.9531 13.9693 34.0048 13.0045C33.0565 12.0396 31.5191 12.0396 30.5709 13.0045C30.0115 13.5736 29.7821 14.3514 29.8827 15.0917L28.0588 16.0488C27.1048 15.221 25.67 15.2659 24.7682 16.1835C24.6399 16.314 24.529 16.4555 24.4354 16.605L21.9177 16.1242ZM27.2115 17.1914C26.8103 16.7833 26.1599 16.7833 25.7588 17.1914C25.3576 17.5996 25.3576 18.2614 25.7588 18.6695C26.1599 19.0777 26.8103 19.0777 27.2115 18.6695C27.6127 18.2614 27.6127 17.5996 27.2115 17.1914ZM31.5615 14.0124C31.9626 13.6042 32.613 13.6042 33.0142 14.0124C33.4153 14.4205 33.4153 15.0823 33.0142 15.4905C32.613 15.8986 31.9626 15.8986 31.5615 15.4905C31.1603 15.0823 31.1603 14.4205 31.5615 14.0124ZM32.4478 22.1871C31.9565 21.6873 31.16 21.6873 30.6687 22.1871C30.1775 22.687 30.1775 23.4974 30.6687 23.9972C31.16 24.4971 31.9565 24.4971 32.4478 23.9972C32.939 23.4974 32.939 22.687 32.4478 22.1871Z" fill="url(#paint1_linear_795_24)"/>
<defs>
<linearGradient id="paint0_linear_795_24" x1="3.7869" y1="12.3131" x2="15.2382" y2="27.2755" gradientUnits="userSpaceOnUse">
<stop stop-color="#4791FF"/>
<stop offset="1" stop-color="#2E1CF3"/>
</linearGradient>
<linearGradient id="paint1_linear_795_24" x1="25.6508" y1="12.5203" x2="35.4956" y2="27.1746" gradientUnits="userSpaceOnUse">
<stop stop-color="#FF7F77"/>
<stop offset="0.0001" stop-color="#FD7A64"/>
<stop offset="1" stop-color="#E62D14"/>
</linearGradient>
</defs>
</svg>