<svg width="33" height="33" viewBox="0 0 33 33" fill="none" xmlns="http://www.w3.org/2000/svg">
<path d="M10.9261 13.2865L10.9252 9.21735C10.9252 6.37786 13.237 4.07599 16.0886 4.07599C18.9403 4.07599 21.252 6.37786 21.252 9.21735L21.2529 13.2865M13.9047 18.8948C13.9047 17.6935 14.8827 16.7197 16.0892 16.7197C17.2957 16.7197 18.2737 17.6935 18.2737 18.8948C18.2737 19.5448 17.9874 20.1282 17.5335 20.5268C17.362 20.6774 17.2386 20.8834 17.2386 21.1111V24.2311C17.2386 24.5945 16.9428 24.889 16.5779 24.889H15.6005C15.2356 24.889 14.9398 24.5945 14.9398 24.2311V21.1111C14.9398 20.8834 14.8164 20.6774 14.6449 20.5268C14.191 20.1282 13.9047 19.5448 13.9047 18.8948ZM7.33862 29.076H24.8386C25.1148 29.076 25.3386 28.8521 25.3386 28.576V13.7866C25.3386 13.5104 25.1148 13.2866 24.8386 13.2866H7.33862C7.06248 13.2866 6.83862 13.5104 6.83862 13.7866V28.576C6.83862 28.8521 7.06248 29.076 7.33862 29.076Z" stroke="#FFFFFF"/>
</svg>
