<svg xmlns="http://www.w3.org/2000/svg" fill="none" viewBox="0 0 16 16">
  <path fill="currentColor" fill-rule="evenodd" d="M6.473 2.669c.31 0 .562.252.562.562v.561a2.69 2.69 0 0 1 1.437.83l.482-.28a.563.563 0 0 1 .565.974l-.484.28a2.691 2.691 0 0 1 0 1.662l.484.28a.563.563 0 0 1-.565.973l-.482-.28a2.69 2.69 0 0 1-1.437.83v.56a.562.562 0 0 1-1.125 0v-.56a2.69 2.69 0 0 1-1.434-.826l-.488.278a.563.563 0 1 1-.558-.977l.481-.274a2.694 2.694 0 0 1 0-1.67l-.48-.274a.562.562 0 1 1 .557-.978l.488.279a2.69 2.69 0 0 1 1.434-.827v-.56c0-.311.252-.563.563-.563Zm0 2.195a.567.567 0 0 1-.07-.004 1.566 1.566 0 0 0-1.253.723.569.569 0 0 1-.064.11 1.563 1.563 0 0 0 .037 1.526.57.57 0 0 1 .026.05c.266.418.726.702 1.255.724a.568.568 0 0 1 .138 0 1.568 1.568 0 0 0 0-3.133.568.568 0 0 1-.07.004Z" clip-rule="evenodd"/>
  <path fill="currentColor" d="M10.81 11.752a1.065 1.065 0 1 0 0-2.13 1.065 1.065 0 0 0 0 2.13Z"/>
  <path fill="currentColor" fill-rule="evenodd" d="M1 6.533a5.533 5.533 0 0 1 10.697-1.99l2.13 4.049a3.775 3.775 0 0 1-4.971 5.162l-4.22-2.022A5.535 5.535 0 0 1 1 6.532Zm5.533-4.408a4.408 4.408 0 0 0-1.489 8.558.54.54 0 0 1 .053.022l4.245 2.035a2.65 2.65 0 0 0 3.49-3.624l-2.146-4.079a.578.578 0 0 1-.028-.063 4.41 4.41 0 0 0-4.125-2.849Z" clip-rule="evenodd"/>
</svg>
