<svg xmlns="http://www.w3.org/2000/svg" fill="none" viewBox="0 0 16 16">
  <path stroke="currentColor" stroke-linecap="round" stroke-linejoin="round" stroke-width="1.1" d="M2.667 9.333v2.934c0 .22.179.4.4.4h3.6M12.667 9.333v2.934a.4.4 0 0 1-.4.4H9.334M9.334 3.333h2.933a.4.4 0 0 1 .4.4v2.934M2.667 6.667V3.733c0-.22.179-.4.4-.4h3.6M9.333 12.667v.666a1.333 1.333 0 1 1-2.667 0v-.666M2.667 6.667h.666a1.333 1.333 0 1 1 0 2.666h-.667M12.666 6.667h.667a1.333 1.333 0 1 1 0 2.666h-.667M9.333 3.333v-.666a1.333 1.333 0 1 0-2.667 0v.666"/>
</svg>
