<svg viewBox="0 0 202 48" fill="none" xmlns="http://www.w3.org/2000/svg">
<path d="M61.2196 14.0563C61.177 13.6571 60.9972 13.3462 60.6802 13.1237C60.3663 12.9013 59.958 12.79 59.4551 12.79C59.1016 12.79 58.7984 12.8434 58.5455 12.95C58.2925 13.0567 58.099 13.2015 57.9649 13.3843C57.8308 13.5672 57.7623 13.7759 57.7592 14.0106C57.7592 14.2056 57.8034 14.3747 57.8918 14.518C57.9832 14.6612 58.1066 14.7831 58.2621 14.8837C58.4175 14.9812 58.5897 15.0635 58.7786 15.1305C58.9675 15.1976 59.158 15.2539 59.35 15.2997L60.2277 15.5191C60.5812 15.6014 60.921 15.7126 61.2471 15.8528C61.5762 15.993 61.8703 16.1697 62.1293 16.383C62.3914 16.5964 62.5986 16.8539 62.751 17.1556C62.9034 17.4573 62.9796 17.8108 62.9796 18.2161C62.9796 18.7647 62.8394 19.2477 62.559 19.6652C62.2787 20.0797 61.8733 20.4042 61.3431 20.6389C60.8159 20.8705 60.1774 20.9863 59.4277 20.9863C58.6994 20.9863 58.067 20.8735 57.5307 20.648C56.9973 20.4225 56.5798 20.0934 56.2781 19.6606C55.9795 19.2279 55.818 18.7007 55.7936 18.079H57.4621C57.4865 18.4051 57.587 18.6763 57.7638 18.8927C57.9405 19.109 58.1706 19.2705 58.454 19.3772C58.7405 19.4839 59.0605 19.5372 59.414 19.5372C59.7828 19.5372 60.1058 19.4823 60.3831 19.3726C60.6635 19.2599 60.8829 19.1045 61.0414 18.9064C61.1998 18.7052 61.2806 18.4706 61.2836 18.2024C61.2806 17.9586 61.209 17.7575 61.0688 17.599C60.9286 17.4375 60.732 17.3034 60.4791 17.1967C60.2292 17.087 59.9367 16.9895 59.6014 16.9042L58.5363 16.6299C57.7653 16.4318 57.1558 16.1316 56.7078 15.7294C56.2629 15.324 56.0404 14.7862 56.0404 14.1157C56.0404 13.5641 56.1898 13.0811 56.4884 12.6666C56.7901 12.2522 57.2 11.9306 57.7181 11.7021C58.2361 11.4705 58.8228 11.3547 59.478 11.3547C60.1424 11.3547 60.7244 11.4705 61.2242 11.7021C61.7271 11.9306 62.1217 12.2491 62.4082 12.6575C62.6946 13.0628 62.8424 13.5291 62.8516 14.0563H61.2196Z" fill="black"/>
<path d="M67.4811 20.9817C66.7954 20.9817 66.2012 20.8309 65.6983 20.5292C65.1955 20.2275 64.8054 19.8054 64.5281 19.2629C64.2538 18.7205 64.1167 18.0866 64.1167 17.3613C64.1167 16.636 64.2538 16.0006 64.5281 15.4551C64.8054 14.9096 65.1955 14.486 65.6983 14.1843C66.2012 13.8826 66.7954 13.7317 67.4811 13.7317C68.1668 13.7317 68.7611 13.8826 69.2639 14.1843C69.7667 14.486 70.1553 14.9096 70.4296 15.4551C70.7069 16.0006 70.8456 16.636 70.8456 17.3613C70.8456 18.0866 70.7069 18.7205 70.4296 19.2629C70.1553 19.8054 69.7667 20.2275 69.2639 20.5292C68.7611 20.8309 68.1668 20.9817 67.4811 20.9817ZM67.4903 19.6561C67.8621 19.6561 68.1729 19.554 68.4228 19.3498C68.6727 19.1425 68.8586 18.8652 68.9805 18.5178C69.1054 18.1704 69.1679 17.7834 69.1679 17.3567C69.1679 16.927 69.1054 16.5385 68.9805 16.191C68.8586 15.8406 68.6727 15.5617 68.4228 15.3545C68.1729 15.1473 67.8621 15.0437 67.4903 15.0437C67.1093 15.0437 66.7924 15.1473 66.5394 15.3545C66.2895 15.5617 66.1021 15.8406 65.9772 16.191C65.8553 16.5385 65.7943 16.927 65.7943 17.3567C65.7943 17.7834 65.8553 18.1704 65.9772 18.5178C66.1021 18.8652 66.2895 19.1425 66.5394 19.3498C66.7924 19.554 67.1093 19.6561 67.4903 19.6561Z" fill="black"/>
<path d="M75.8065 13.8231V15.1031H71.6558V13.8231H75.8065ZM72.6935 20.8446V13.1603C72.6935 12.6879 72.791 12.2948 72.986 11.9809C73.1841 11.667 73.4493 11.4324 73.7814 11.277C74.1136 11.1215 74.4824 11.0438 74.8877 11.0438C75.1741 11.0438 75.4286 11.0667 75.6511 11.1124C75.8735 11.1581 76.0381 11.1992 76.1448 11.2358L75.8156 12.5158C75.7455 12.4944 75.6572 12.4731 75.5505 12.4518C75.4438 12.4274 75.325 12.4152 75.1939 12.4152C74.8862 12.4152 74.6683 12.4899 74.5403 12.6392C74.4153 12.7855 74.3528 12.9957 74.3528 13.27V20.8446H72.6935Z" fill="black"/>
<path d="M80.6086 13.8231V15.1031H76.5722V13.8231H80.6086ZM77.5687 12.1409H79.2235V18.7327C79.2235 18.9551 79.257 19.1258 79.3241 19.2446C79.3942 19.3604 79.4856 19.4397 79.5983 19.4823C79.7111 19.525 79.836 19.5463 79.9732 19.5463C80.0768 19.5463 80.1713 19.5387 80.2566 19.5235C80.345 19.5082 80.412 19.4945 80.4577 19.4823L80.7366 20.776C80.6482 20.8065 80.5217 20.84 80.3572 20.8766C80.1957 20.9131 79.9976 20.9345 79.7629 20.9406C79.3484 20.9528 78.9751 20.8903 78.643 20.7532C78.3108 20.613 78.0472 20.3966 77.8521 20.104C77.6601 19.8115 77.5657 19.4458 77.5687 19.0069V12.1409Z" fill="black"/>
<path d="M83.4416 20.8446L81.4577 13.8231H83.1445L84.3787 18.7601H84.4427L85.7044 13.8231H87.3729L88.6346 18.7327H88.7031L89.9191 13.8231H91.6104L89.6219 20.8446H87.8986L86.5821 16.0996H86.4861L85.1695 20.8446H83.4416Z" fill="black"/>
<path d="M94.7863 20.9863C94.3414 20.9863 93.9406 20.907 93.5841 20.7486C93.2306 20.5871 92.9502 20.3494 92.743 20.0355C92.5388 19.7216 92.4367 19.3345 92.4367 18.8744C92.4367 18.4782 92.5098 18.1506 92.6561 17.8916C92.8024 17.6325 93.002 17.4253 93.2549 17.2699C93.5079 17.1144 93.7928 16.9971 94.1098 16.9179C94.4298 16.8356 94.7604 16.7762 95.1017 16.7396C95.5131 16.6969 95.8468 16.6588 96.1028 16.6253C96.3588 16.5887 96.5447 16.5339 96.6605 16.4608C96.7794 16.3846 96.8388 16.2672 96.8388 16.1088V16.0813C96.8388 15.737 96.7367 15.4703 96.5325 15.2814C96.3283 15.0924 96.0343 14.998 95.6503 14.998C95.245 14.998 94.9234 15.0863 94.6857 15.2631C94.4511 15.4398 94.2926 15.6486 94.2103 15.8893L92.6653 15.6699C92.7872 15.2433 92.9883 14.8867 93.2687 14.6003C93.549 14.3107 93.8919 14.0944 94.2972 13.9511C94.7025 13.8049 95.1505 13.7317 95.6411 13.7317C95.9794 13.7317 96.3162 13.7713 96.6514 13.8506C96.9866 13.9298 97.2929 14.0608 97.5702 14.2437C97.8475 14.4235 98.07 14.6688 98.2376 14.9797C98.4083 15.2905 98.4936 15.6791 98.4936 16.1453V20.8446H96.9028V19.88H96.8479C96.7474 20.0751 96.6057 20.2579 96.4228 20.4286C96.243 20.5962 96.016 20.7318 95.7417 20.8354C95.4705 20.936 95.152 20.9863 94.7863 20.9863ZM95.216 19.7703C95.5482 19.7703 95.8362 19.7048 96.08 19.5738C96.3238 19.4397 96.5112 19.2629 96.6422 19.0435C96.7763 18.8241 96.8434 18.5849 96.8434 18.3258V17.4984C96.7916 17.5411 96.7032 17.5807 96.5782 17.6173C96.4563 17.6538 96.3192 17.6858 96.1668 17.7133C96.0145 17.7407 95.8636 17.7651 95.7143 17.7864C95.5649 17.8077 95.4354 17.826 95.3257 17.8413C95.0789 17.8748 94.8579 17.9296 94.6629 18.0058C94.4678 18.082 94.3139 18.1887 94.2012 18.3258C94.0884 18.4599 94.0321 18.6336 94.0321 18.8469C94.0321 19.1517 94.1433 19.3818 94.3658 19.5372C94.5882 19.6926 94.8716 19.7703 95.216 19.7703Z" fill="black"/>
<path d="M100.158 20.8446V13.8231H101.762V14.9934H101.835C101.963 14.5881 102.183 14.2757 102.493 14.0563C102.807 13.8338 103.165 13.7226 103.568 13.7226C103.659 13.7226 103.761 13.7271 103.874 13.7363C103.99 13.7424 104.086 13.753 104.162 13.7683V15.2905C104.092 15.2661 103.981 15.2448 103.828 15.2265C103.679 15.2052 103.534 15.1945 103.394 15.1945C103.092 15.1945 102.821 15.26 102.58 15.3911C102.343 15.5191 102.155 15.6974 102.018 15.9259C101.881 16.1545 101.812 16.4181 101.812 16.7167V20.8446H100.158Z" fill="black"/>
<path d="M108.081 20.9817C107.377 20.9817 106.769 20.8354 106.257 20.5429C105.748 20.2473 105.356 19.8298 105.082 19.2904C104.808 18.7479 104.67 18.1094 104.67 17.375C104.67 16.6527 104.808 16.0189 105.082 15.4734C105.359 14.9248 105.746 14.4982 106.243 14.1934C106.74 13.8856 107.323 13.7317 107.994 13.7317C108.427 13.7317 108.835 13.8018 109.219 13.942C109.606 14.0791 109.947 14.2925 110.243 14.582C110.541 14.8715 110.776 15.2402 110.947 15.6882C111.117 16.1331 111.203 16.6634 111.203 17.279V17.7864H105.448V16.671H109.617C109.614 16.3541 109.545 16.0722 109.411 15.8253C109.277 15.5755 109.089 15.3789 108.849 15.2357C108.611 15.0924 108.334 15.0208 108.017 15.0208C107.678 15.0208 107.381 15.1031 107.125 15.2677C106.869 15.4292 106.67 15.6425 106.526 15.9076C106.386 16.1697 106.315 16.4577 106.312 16.7716V17.7453C106.312 18.1536 106.386 18.5041 106.536 18.7967C106.685 19.0862 106.894 19.3086 107.162 19.4641C107.43 19.6164 107.744 19.6926 108.103 19.6926C108.344 19.6926 108.562 19.6591 108.757 19.5921C108.952 19.522 109.121 19.4199 109.265 19.2858C109.408 19.1517 109.516 18.9856 109.589 18.7875L111.134 18.9612C111.037 19.3696 110.851 19.7261 110.577 20.0309C110.305 20.3326 109.958 20.5673 109.534 20.7349C109.111 20.8994 108.626 20.9817 108.081 20.9817Z" fill="black"/>
<path d="M56.1319 34.6367V25.2748H62.2208V26.6964H57.8278V29.238H61.9053V30.6597H57.8278V33.215H62.2573V34.6367H56.1319Z" fill="black"/>
<path d="M65.5326 30.5226V34.6367H63.8778V27.6152H65.4595V28.8083H65.5418C65.7033 28.4152 65.9608 28.1028 66.3143 27.8712C66.6709 27.6396 67.1112 27.5238 67.6354 27.5238C68.1199 27.5238 68.542 27.6274 68.9016 27.8347C69.2643 28.0419 69.5447 28.3421 69.7427 28.7352C69.9439 29.1283 70.0429 29.6053 70.0399 30.166V34.6367H68.3851V30.422C68.3851 29.9527 68.2632 29.5855 68.0194 29.3203C67.7786 29.0552 67.4449 28.9226 67.0183 28.9226C66.7288 28.9226 66.4712 28.9866 66.2457 29.1146C66.0233 29.2396 65.848 29.4209 65.72 29.6586C65.5951 29.8963 65.5326 30.1843 65.5326 30.5226Z" fill="black"/>
<path d="M74.7757 37.416C74.1814 37.416 73.671 37.3352 73.2443 37.1737C72.8177 37.0153 72.4748 36.8019 72.2158 36.5337C71.9567 36.2656 71.7769 35.9684 71.6764 35.6424L73.1666 35.2812C73.2336 35.4184 73.3312 35.554 73.4592 35.6881C73.5872 35.8252 73.7593 35.938 73.9757 36.0263C74.1951 36.1178 74.4709 36.1635 74.8031 36.1635C75.2724 36.1635 75.661 36.0492 75.9688 35.8206C76.2766 35.5951 76.4305 35.2233 76.4305 34.7052V33.375H76.3482C76.2629 33.5457 76.1379 33.7209 75.9733 33.9007C75.8118 34.0805 75.597 34.2314 75.3288 34.3533C75.0637 34.4752 74.73 34.5361 74.3277 34.5361C73.7883 34.5361 73.2992 34.4096 72.8603 34.1567C72.4245 33.9007 72.0771 33.5198 71.8181 33.0139C71.5621 32.505 71.4341 31.868 71.4341 31.1031C71.4341 30.3321 71.5621 29.6814 71.8181 29.1512C72.0771 28.6179 72.4261 28.2141 72.8649 27.9398C73.3037 27.6625 73.7929 27.5238 74.3323 27.5238C74.7437 27.5238 75.082 27.5939 75.3471 27.7341C75.6153 27.8712 75.8286 28.0373 75.9871 28.2324C76.1455 28.4244 76.2659 28.6057 76.3482 28.7763H76.4396V27.6152H78.0715V34.751C78.0715 35.3513 77.9283 35.8481 77.6419 36.2412C77.3554 36.6343 76.9638 36.9284 76.467 37.1234C75.9703 37.3185 75.4065 37.416 74.7757 37.416ZM74.7894 33.2379C75.1399 33.2379 75.4385 33.1525 75.6854 32.9819C75.9322 32.8112 76.1196 32.5659 76.2476 32.2459C76.3756 31.9259 76.4396 31.5419 76.4396 31.094C76.4396 30.6521 76.3756 30.265 76.2476 29.9329C76.1227 29.6007 75.9368 29.3432 75.6899 29.1603C75.4461 28.9744 75.146 28.8815 74.7894 28.8815C74.4206 28.8815 74.1128 28.9775 73.866 29.1695C73.6192 29.3615 73.4333 29.6251 73.3083 29.9603C73.1834 30.2925 73.1209 30.6704 73.1209 31.094C73.1209 31.5237 73.1834 31.9 73.3083 32.2231C73.4363 32.543 73.6237 32.7929 73.8706 32.9727C74.1205 33.1495 74.4267 33.2379 74.7894 33.2379Z" fill="black"/>
<path d="M79.7675 34.6367V27.6152H81.4223V34.6367H79.7675ZM80.5994 26.6187C80.3374 26.6187 80.1118 26.5319 79.9229 26.3582C79.734 26.1814 79.6395 25.9696 79.6395 25.7227C79.6395 25.4729 79.734 25.2611 79.9229 25.0873C80.1118 24.9106 80.3374 24.8222 80.5994 24.8222C80.8646 24.8222 81.0901 24.9106 81.276 25.0873C81.4649 25.2611 81.5594 25.4729 81.5594 25.7227C81.5594 25.9696 81.4649 26.1814 81.276 26.3582C81.0901 26.5319 80.8646 26.6187 80.5994 26.6187Z" fill="black"/>
<path d="M84.7787 30.5226V34.6367H83.1239V27.6152H84.7056V28.8083H84.7879C84.9494 28.4152 85.2069 28.1028 85.5604 27.8712C85.9169 27.6396 86.3573 27.5238 86.8815 27.5238C87.366 27.5238 87.7881 27.6274 88.1477 27.8347C88.5104 28.0419 88.7907 28.3421 88.9888 28.7352C89.19 29.1283 89.289 29.6053 89.286 30.166V34.6367H87.6312V30.422C87.6312 29.9527 87.5093 29.5855 87.2655 29.3203C87.0247 29.0552 86.691 28.9226 86.2644 28.9226C85.9749 28.9226 85.7173 28.9866 85.4918 29.1146C85.2694 29.2396 85.0941 29.4209 84.9661 29.6586C84.8412 29.8963 84.7787 30.1843 84.7787 30.5226Z" fill="black"/>
<path d="M94.0766 34.7738C93.3727 34.7738 92.7647 34.6275 92.2527 34.335C91.7438 34.0394 91.3522 33.6219 91.0779 33.0825C90.8036 32.54 90.6665 31.9016 90.6665 31.1671C90.6665 30.4448 90.8036 29.811 91.0779 29.2655C91.3552 28.7169 91.7422 28.2903 92.239 27.9855C92.7357 27.6777 93.3193 27.5238 93.9898 27.5238C94.4225 27.5238 94.8309 27.5939 95.2149 27.7341C95.6019 27.8712 95.9432 28.0846 96.2388 28.3741C96.5375 28.6636 96.7721 29.0323 96.9428 29.4803C97.1135 29.9252 97.1988 30.4555 97.1988 31.0711V31.5785H91.4436V30.4631H95.6126C95.6095 30.1462 95.5409 29.8643 95.4069 29.6175C95.2728 29.3676 95.0853 29.171 94.8446 29.0278C94.6069 28.8845 94.3296 28.8129 94.0126 28.8129C93.6744 28.8129 93.3772 28.8952 93.1212 29.0598C92.8652 29.2213 92.6656 29.4346 92.5224 29.6997C92.3822 29.9618 92.3106 30.2498 92.3076 30.5637V31.5374C92.3076 31.9457 92.3822 32.2962 92.5315 32.5888C92.6809 32.8783 92.8896 33.1007 93.1578 33.2562C93.426 33.4085 93.7399 33.4847 94.0995 33.4847C94.3402 33.4847 94.5581 33.4512 94.7532 33.3842C94.9482 33.3141 95.1173 33.212 95.2606 33.0779C95.4038 32.9438 95.512 32.7777 95.5851 32.5796L97.1302 32.7533C97.0327 33.1617 96.8468 33.5182 96.5725 33.823C96.3013 34.1247 95.9539 34.3594 95.5303 34.527C95.1067 34.6915 94.6221 34.7738 94.0766 34.7738Z" fill="black"/>
<path d="M101.707 34.7738C101.003 34.7738 100.395 34.6275 99.8832 34.335C99.3743 34.0394 98.9827 33.6219 98.7084 33.0825C98.4342 32.54 98.297 31.9016 98.297 31.1671C98.297 30.4448 98.4342 29.811 98.7084 29.2655C98.9858 28.7169 99.3728 28.2903 99.8695 27.9855C100.366 27.6777 100.95 27.5238 101.62 27.5238C102.053 27.5238 102.461 27.5939 102.845 27.7341C103.232 27.8712 103.574 28.0846 103.869 28.3741C104.168 28.6636 104.403 29.0323 104.573 29.4803C104.744 29.9252 104.829 30.4555 104.829 31.0711V31.5785H99.0741V30.4631H103.243C103.24 30.1462 103.172 29.8643 103.037 29.6175C102.903 29.3676 102.716 29.171 102.475 29.0278C102.237 28.8845 101.96 28.8129 101.643 28.8129C101.305 28.8129 101.008 28.8952 100.752 29.0598C100.496 29.2213 100.296 29.4346 100.153 29.6997C100.013 29.9618 99.9412 30.2498 99.9381 30.5637V31.5374C99.9381 31.9457 100.013 32.2962 100.162 32.5888C100.311 32.8783 100.52 33.1007 100.788 33.2562C101.057 33.4085 101.37 33.4847 101.73 33.4847C101.971 33.4847 102.189 33.4512 102.384 33.3842C102.579 33.3141 102.748 33.212 102.891 33.0779C103.034 32.9438 103.143 32.7777 103.216 32.5796L104.761 32.7533C104.663 33.1617 104.477 33.5182 104.203 33.823C103.932 34.1247 103.584 34.3594 103.161 34.527C102.737 34.6915 102.253 34.7738 101.707 34.7738Z" fill="black"/>
<path d="M106.229 34.6367V27.6152H107.834V28.7855H107.907C108.035 28.3802 108.254 28.0678 108.565 27.8484C108.879 27.6259 109.237 27.5147 109.639 27.5147C109.731 27.5147 109.833 27.5193 109.946 27.5284C110.062 27.5345 110.158 27.5452 110.234 27.5604V29.0826C110.164 29.0582 110.052 29.0369 109.9 29.0186C109.751 28.9973 109.606 28.9866 109.466 28.9866C109.164 28.9866 108.893 29.0521 108.652 29.1832C108.414 29.3112 108.227 29.4895 108.09 29.718C107.953 29.9466 107.884 30.2102 107.884 30.5088V34.6367H106.229Z" fill="black"/>
<path d="M111.333 34.6367V27.6152H112.988V34.6367H111.333ZM112.165 26.6187C111.903 26.6187 111.677 26.5319 111.488 26.3582C111.3 26.1814 111.205 25.9696 111.205 25.7227C111.205 25.4729 111.3 25.2611 111.488 25.0873C111.677 24.9106 111.903 24.8222 112.165 24.8222C112.43 24.8222 112.656 24.9106 112.842 25.0873C113.031 25.2611 113.125 25.4729 113.125 25.7227C113.125 25.9696 113.031 26.1814 112.842 26.3582C112.656 26.5319 112.43 26.6187 112.165 26.6187Z" fill="black"/>
<path d="M116.344 30.5226V34.6367H114.69V27.6152H116.271V28.8083H116.353C116.515 28.4152 116.772 28.1028 117.126 27.8712C117.483 27.6396 117.923 27.5238 118.447 27.5238C118.932 27.5238 119.354 27.6274 119.713 27.8347C120.076 28.0419 120.356 28.3421 120.554 28.7352C120.756 29.1283 120.855 29.6053 120.852 30.166V34.6367H119.197V30.422C119.197 29.9527 119.075 29.5855 118.831 29.3203C118.59 29.0552 118.257 28.9226 117.83 28.9226C117.54 28.9226 117.283 28.9866 117.057 29.1146C116.835 29.2396 116.66 29.4209 116.532 29.6586C116.407 29.8963 116.344 30.1843 116.344 30.5226Z" fill="black"/>
<path d="M125.587 37.416C124.993 37.416 124.483 37.3352 124.056 37.1737C123.629 37.0153 123.287 36.8019 123.027 36.5337C122.768 36.2656 122.589 35.9684 122.488 35.6424L123.978 35.2812C124.045 35.4184 124.143 35.554 124.271 35.6881C124.399 35.8252 124.571 35.938 124.787 36.0263C125.007 36.1178 125.283 36.1635 125.615 36.1635C126.084 36.1635 126.473 36.0492 126.78 35.8206C127.088 35.5951 127.242 35.2233 127.242 34.7052V33.375H127.16C127.075 33.5457 126.95 33.7209 126.785 33.9007C126.624 34.0805 126.409 34.2314 126.14 34.3533C125.875 34.4752 125.542 34.5361 125.139 34.5361C124.6 34.5361 124.111 34.4096 123.672 34.1567C123.236 33.9007 122.889 33.5198 122.63 33.0139C122.374 32.505 122.246 31.868 122.246 31.1031C122.246 30.3321 122.374 29.6814 122.63 29.1512C122.889 28.6179 123.238 28.2141 123.677 27.9398C124.115 27.6625 124.605 27.5238 125.144 27.5238C125.555 27.5238 125.894 27.5939 126.159 27.7341C126.427 27.8712 126.64 28.0373 126.799 28.2324C126.957 28.4244 127.078 28.6057 127.16 28.7763H127.251V27.6152H128.883V34.751C128.883 35.3513 128.74 35.8481 128.454 36.2412C128.167 36.6343 127.775 36.9284 127.279 37.1234C126.782 37.3185 126.218 37.416 125.587 37.416ZM125.601 33.2379C125.952 33.2379 126.25 33.1525 126.497 32.9819C126.744 32.8112 126.931 32.5659 127.059 32.2459C127.187 31.9259 127.251 31.5419 127.251 31.094C127.251 30.6521 127.187 30.265 127.059 29.9329C126.934 29.6007 126.748 29.3432 126.502 29.1603C126.258 28.9744 125.958 28.8815 125.601 28.8815C125.232 28.8815 124.925 28.9775 124.678 29.1695C124.431 29.3615 124.245 29.6251 124.12 29.9603C123.995 30.2925 123.933 30.6704 123.933 31.094C123.933 31.5237 123.995 31.9 124.12 32.2231C124.248 32.543 124.435 32.7929 124.682 32.9727C124.932 33.1495 125.238 33.2379 125.601 33.2379Z" fill="black"/>
<path d="M135.541 25.2748V34.6367H133.845V25.2748H135.541Z" fill="black"/>
<path d="M138.959 30.5226V34.6367H137.305V27.6152H138.886V28.8083H138.969C139.13 28.4152 139.388 28.1028 139.741 27.8712C140.098 27.6396 140.538 27.5238 141.062 27.5238C141.547 27.5238 141.969 27.6274 142.328 27.8347C142.691 28.0419 142.971 28.3421 143.17 28.7352C143.371 29.1283 143.47 29.6053 143.467 30.166V34.6367H141.812V30.422C141.812 29.9527 141.69 29.5855 141.446 29.3203C141.205 29.0552 140.872 28.9226 140.445 28.9226C140.156 28.9226 139.898 28.9866 139.673 29.1146C139.45 29.2396 139.275 29.4209 139.147 29.6586C139.022 29.8963 138.959 30.1843 138.959 30.5226Z" fill="black"/>
<path d="M150.698 29.4712L149.19 29.6357C149.147 29.4834 149.073 29.3401 148.966 29.206C148.862 29.0719 148.722 28.9638 148.545 28.8815C148.369 28.7992 148.152 28.7581 147.896 28.7581C147.552 28.7581 147.262 28.8327 147.028 28.982C146.796 29.1314 146.682 29.3249 146.685 29.5626C146.682 29.7668 146.756 29.9329 146.909 30.0609C147.064 30.1889 147.32 30.294 147.677 30.3763L148.874 30.6323C149.539 30.7755 150.032 31.0025 150.356 31.3134C150.682 31.6242 150.846 32.0311 150.849 32.5339C150.846 32.9758 150.717 33.3659 150.461 33.7041C150.208 34.0394 149.856 34.3015 149.405 34.4904C148.954 34.6793 148.436 34.7738 147.85 34.7738C146.991 34.7738 146.299 34.594 145.775 34.2344C145.251 33.8718 144.939 33.3674 144.838 32.7213L146.452 32.5659C146.525 32.8828 146.68 33.1221 146.918 33.2836C147.156 33.4451 147.465 33.5259 147.846 33.5259C148.239 33.5259 148.554 33.4451 148.792 33.2836C149.033 33.1221 149.153 32.9225 149.153 32.6848C149.153 32.4836 149.076 32.3175 148.92 32.1865C148.768 32.0555 148.53 31.9549 148.207 31.8848L147.009 31.6334C146.336 31.4932 145.838 31.257 145.515 30.9248C145.192 30.5896 145.032 30.166 145.035 29.654C145.032 29.2213 145.149 28.8464 145.387 28.5295C145.627 28.2095 145.961 27.9627 146.388 27.789C146.817 27.6122 147.313 27.5238 147.873 27.5238C148.696 27.5238 149.344 27.6991 149.816 28.0495C150.292 28.4 150.586 28.8739 150.698 29.4712Z" fill="black"/>
<path d="M152.214 34.6367V27.6152H153.869V34.6367H152.214ZM153.046 26.6187C152.784 26.6187 152.558 26.5319 152.369 26.3582C152.18 26.1814 152.086 25.9696 152.086 25.7227C152.086 25.4729 152.18 25.2611 152.369 25.0873C152.558 24.9106 152.784 24.8222 153.046 24.8222C153.311 24.8222 153.536 24.9106 153.722 25.0873C153.911 25.2611 154.006 25.4729 154.006 25.7227C154.006 25.9696 153.911 26.1814 153.722 26.3582C153.536 26.5319 153.311 26.6187 153.046 26.6187Z" fill="black"/>
<path d="M158.624 37.416C158.03 37.416 157.519 37.3352 157.092 37.1737C156.666 37.0153 156.323 36.8019 156.064 36.5337C155.805 36.2656 155.625 35.9684 155.524 35.6424L157.015 35.2812C157.082 35.4184 157.179 35.554 157.307 35.6881C157.435 35.8252 157.607 35.938 157.824 36.0263C158.043 36.1178 158.319 36.1635 158.651 36.1635C159.121 36.1635 159.509 36.0492 159.817 35.8206C160.125 35.5951 160.279 35.2233 160.279 34.7052V33.375H160.196C160.111 33.5457 159.986 33.7209 159.821 33.9007C159.66 34.0805 159.445 34.2314 159.177 34.3533C158.912 34.4752 158.578 34.5361 158.176 34.5361C157.636 34.5361 157.147 34.4096 156.708 34.1567C156.273 33.9007 155.925 33.5198 155.666 33.0139C155.41 32.505 155.282 31.868 155.282 31.1031C155.282 30.3321 155.41 29.6814 155.666 29.1512C155.925 28.6179 156.274 28.2141 156.713 27.9398C157.152 27.6625 157.641 27.5238 158.18 27.5238C158.592 27.5238 158.93 27.5939 159.195 27.7341C159.463 27.8712 159.677 28.0373 159.835 28.2324C159.994 28.4244 160.114 28.6057 160.196 28.7763H160.288V27.6152H161.92V34.751C161.92 35.3513 161.776 35.8481 161.49 36.2412C161.203 36.6343 160.812 36.9284 160.315 37.1234C159.818 37.3185 159.255 37.416 158.624 37.416ZM158.637 33.2379C158.988 33.2379 159.287 33.1525 159.533 32.9819C159.78 32.8112 159.968 32.5659 160.096 32.2459C160.224 31.9259 160.288 31.5419 160.288 31.094C160.288 30.6521 160.224 30.265 160.096 29.9329C159.971 29.6007 159.785 29.3432 159.538 29.1603C159.294 28.9744 158.994 28.8815 158.637 28.8815C158.269 28.8815 157.961 28.9775 157.714 29.1695C157.467 29.3615 157.281 29.6251 157.156 29.9603C157.031 30.2925 156.969 30.6704 156.969 31.094C156.969 31.5237 157.031 31.9 157.156 32.2231C157.284 32.543 157.472 32.7929 157.719 32.9727C157.969 33.1495 158.275 33.2379 158.637 33.2379Z" fill="black"/>
<path d="M165.27 30.5226V34.6367H163.616V25.2748H165.234V28.8083H165.316C165.481 28.4122 165.735 28.0998 166.079 27.8712C166.427 27.6396 166.869 27.5238 167.405 27.5238C167.893 27.5238 168.318 27.6259 168.681 27.8301C169.043 28.0343 169.324 28.3329 169.522 28.7261C169.723 29.1192 169.823 29.5992 169.823 30.166V34.6367H168.169V30.422C168.169 29.9496 168.047 29.5824 167.803 29.3203C167.562 29.0552 167.224 28.9226 166.788 28.9226C166.495 28.9226 166.233 28.9866 166.002 29.1146C165.773 29.2396 165.593 29.4209 165.462 29.6586C165.334 29.8963 165.27 30.1843 165.27 30.5226Z" fill="black"/>
<path d="M175.016 27.6152V28.8952H170.98V27.6152H175.016ZM171.976 25.933H173.631V32.5248C173.631 32.7472 173.665 32.9179 173.732 33.0367C173.802 33.1525 173.893 33.2318 174.006 33.2744C174.119 33.3171 174.244 33.3384 174.381 33.3384C174.484 33.3384 174.579 33.3308 174.664 33.3156C174.753 33.3004 174.82 33.2866 174.865 33.2744L175.144 34.5681C175.056 34.5986 174.929 34.6321 174.765 34.6687C174.603 34.7052 174.405 34.7266 174.171 34.7327C173.756 34.7449 173.383 34.6824 173.051 34.5453C172.718 34.4051 172.455 34.1887 172.26 33.8961C172.068 33.6036 171.973 33.2379 171.976 32.799V25.933Z" fill="black"/>
<path d="M181.849 29.4712L180.341 29.6357C180.298 29.4834 180.223 29.3401 180.117 29.206C180.013 29.0719 179.873 28.9638 179.696 28.8815C179.519 28.7992 179.303 28.7581 179.047 28.7581C178.703 28.7581 178.413 28.8327 178.178 28.982C177.947 29.1314 177.833 29.3249 177.836 29.5626C177.833 29.7668 177.907 29.9329 178.06 30.0609C178.215 30.1889 178.471 30.294 178.828 30.3763L180.025 30.6323C180.69 30.7755 181.183 31.0025 181.506 31.3134C181.832 31.6242 181.997 32.0311 182 32.5339C181.997 32.9758 181.867 33.3659 181.611 33.7041C181.358 34.0394 181.006 34.3015 180.555 34.4904C180.104 34.6793 179.586 34.7738 179.001 34.7738C178.142 34.7738 177.45 34.594 176.926 34.2344C176.402 33.8718 176.089 33.3674 175.989 32.7213L177.602 32.5659C177.676 32.8828 177.831 33.1221 178.069 33.2836C178.306 33.4451 178.616 33.5259 178.997 33.5259C179.39 33.5259 179.705 33.4451 179.943 33.2836C180.184 33.1221 180.304 32.9225 180.304 32.6848C180.304 32.4836 180.226 32.3175 180.071 32.1865C179.919 32.0555 179.681 31.9549 179.358 31.8848L178.16 31.6334C177.487 31.4932 176.988 31.257 176.665 30.9248C176.342 30.5896 176.182 30.166 176.185 29.654C176.182 29.2213 176.3 28.8464 176.537 28.5295C176.778 28.2095 177.112 27.9627 177.538 27.789C177.968 27.6122 178.463 27.5238 179.024 27.5238C179.847 27.5238 180.495 27.6991 180.967 28.0495C181.442 28.4 181.736 28.8739 181.849 29.4712Z" fill="black"/>
<path fill-rule="evenodd" clip-rule="evenodd" d="M33.956 39.1713C42.208 39.1713 48.8975 32.4818 48.8975 24.2299C48.8975 15.978 42.208 9.28845 33.956 9.28845C26.6135 9.28845 20.5079 14.5848 19.2514 21.5656C20.8446 21.3732 22.7103 21.2415 24.0721 21.2436C25.834 21.2463 28.4387 21.5271 29.8407 21.8175C30.4641 20.8292 31.6388 20.3045 32.8135 20.522C33.4945 19.0979 33.9131 18.2412 35.164 16.459C36.4659 14.6042 39.2426 13.4342 39.2427 13.8855C39.2427 14.8056 39.1622 15.9638 37.8637 18.0227C36.931 19.5014 35.7384 20.8293 34.7465 21.8003C35.2268 22.5243 35.3871 23.4499 35.1036 24.3346C34.9997 24.6586 34.8447 24.9512 34.6501 25.2066C35.3683 26.6061 36.1037 28.3247 36.7751 29.8938L36.7751 29.894L36.7752 29.8942C36.9928 30.4027 37.2037 30.8955 37.4051 31.3567C38.3232 33.4592 38.2329 37.0676 37.864 36.872C36.7496 36.2808 34.9803 34.2188 34.1866 32.2764C34.0684 31.9871 33.9348 31.6654 33.7928 31.3234L33.7917 31.3207L33.7914 31.3201L33.7914 31.3201C33.1087 29.6759 32.2311 27.5624 31.9228 26.3114C31.7567 26.2867 31.5904 26.2473 31.4252 26.1923C30.5884 25.9141 29.956 25.296 29.6323 24.5426L29.5894 24.54C27.8117 24.4329 25.8832 24.3168 24.0775 24.0593C22.7379 23.8683 20.5808 23.1318 19.1094 22.5376C19.0468 23.093 19.0146 23.6577 19.0146 24.2299C19.0146 32.4818 25.7041 39.1713 33.956 39.1713Z" fill="url(#paint0_linear_1965_28884)"/>
<defs>
<linearGradient id="paint0_linear_1965_28884" x1="26.4853" y1="11.2902" x2="41.4268" y2="37.1696" gradientUnits="userSpaceOnUse">
<stop stop-color="#62F91F"/>
<stop offset="1" stop-color="#45BD35"/>
</linearGradient>
</defs>
</svg>
