<svg xmlns="http://www.w3.org/2000/svg" fill="none" viewBox="0 0 16 16">
  <path fill="currentColor" fill-rule="evenodd" d="M6.967 1.2c.403 0 .92.281.92.839V4.18c0 .557-.517.838-.92.838h-1.4v2.259h3.199v-.541c0-.541.489-.838.902-.838h3.893c.414 0 .903.297.903.838v2.142c0 .541-.49.839-.903.839H9.668c-.413 0-.902-.298-.902-.839v-.601H5.567v3.698h3.199v-.54c0-.542.489-.84.902-.84h3.893c.414 0 .903.298.903.84v2.142c0 .54-.49.838-.903.838H9.668c-.413 0-.902-.297-.902-.838v-.602H4.567V5.02H2.92C2.516 5.02 2 4.74 2 4.181V2.039c0-.558.516-.839.919-.839h4.048Zm-.08 2.82V2.2H3v1.82h3.886Zm6.577 4.698v-1.82H9.766v1.82h3.698Zm-3.698 2.879h3.698v1.819H9.766v-1.82Z" clip-rule="evenodd"/>
</svg>
