<svg xmlns="http://www.w3.org/2000/svg" fill="none" viewBox="0 0 16 16">
  <path fill="currentColor" stroke="currentColor" stroke-linecap="round" stroke-linejoin="round" stroke-width=".1" d="M3.642 3.214V6.39a.046.046 0 0 1-.02.009c-.32.055-.798.181-1.206.483-.428.317-.762.818-.762 1.552 0 .722.325 1.209.758 1.506.407.279.883.375 1.206.41a.05.05 0 0 1 .024.01v2.434c0 .47.38.85.85.85h9.107a.85.85 0 0 0 .85-.842l.086-9.581a.85.85 0 0 0-.85-.858h-2.668c-.476 0-.816.374-.881.774-.043.262-.134.585-.312.832-.163.225-.401.397-.811.397-.41 0-.647-.171-.809-.396-.177-.246-.267-.568-.308-.83-.064-.401-.406-.777-.882-.777H4.492a.85.85 0 0 0-.85.85Zm.9.05h2.457a.044.044 0 0 1 .008.018c.051.322.171.803.466 1.214.31.432.807.771 1.54.771.732 0 1.23-.34 1.541-.771.296-.41.418-.892.47-1.214a.042.042 0 0 1 .008-.018h2.602l-.085 9.481H4.542v-2.399c0-.498-.408-.844-.826-.89-.262-.028-.566-.1-.795-.257a.804.804 0 0 1-.26-.281.993.993 0 0 1-.107-.483c0-.418.173-.663.398-.829.245-.181.564-.275.824-.32.395-.068.766-.408.766-.88V3.264Zm4.99 3.91a.45.45 0 1 0-.869-.233l-.828 3.09a.45.45 0 1 0 .87.233l.827-3.09Zm1.248-.503a.45.45 0 1 0-.608.663l1.267 1.162-1.293 1.401a.45.45 0 0 0 .661.61l1.6-1.733a.45.45 0 0 0-.027-.637l-1.6-1.466Zm-3.558.028a.45.45 0 0 0-.635-.028l-1.6 1.466a.45.45 0 0 0-.027.637l1.6 1.734a.45.45 0 1 0 .661-.61L5.928 8.495l1.267-1.162a.45.45 0 0 0 .027-.635Z"/>
</svg>
