<svg xmlns="http://www.w3.org/2000/svg" fill="none" viewBox="0 0 16 16">
  <path fill="currentColor" d="M5.958 8.25a1.458 1.458 0 1 0 0-2.916 1.458 1.458 0 0 0 0 2.916Zm0-2.333a.875.875 0 1 1 0 1.75.875.875 0 0 1 0-1.75Z"/>
  <path fill="currentColor" d="M14.867 3.047a.29.29 0 0 0-.278-.021c-1.322.592-3.035 1.14-6.589 1.14-3.554 0-5.267-.548-6.589-1.14A.291.291 0 0 0 1 3.292v9.917a.292.292 0 0 0 .411.266c1.322-.593 3.035-1.141 6.589-1.141 3.554 0 5.267.548 6.589 1.14A.292.292 0 0 0 15 13.21V3.292a.292.292 0 0 0-.133-.245ZM8 4.75c3.306 0 5.127-.488 6.417-1.015v7.603l-4.46-4.46a.292.292 0 0 0-.413 0l-3.148 3.147-1.69-1.69a.292.292 0 0 0-.412 0l-2.71 2.711V3.735C2.872 4.262 4.693 4.75 8 4.75Zm0 7c-3.306 0-5.127.488-6.417 1.016v-.895L4.5 8.954l2.127 2.127a.292.292 0 0 0 .413-.412l-.232-.231L9.75 7.496l4.667 4.667v.603c-1.29-.528-3.11-1.016-6.417-1.016Z"/>
  <path stroke="currentColor" stroke-width=".2" d="M5.958 8.25a1.458 1.458 0 1 0 0-2.916 1.458 1.458 0 0 0 0 2.916Zm0-2.333a.875.875 0 1 1 0 1.75.875.875 0 0 1 0-1.75Z"/>
  <path stroke="currentColor" stroke-width=".2" d="M14.867 3.047a.29.29 0 0 0-.278-.021c-1.322.592-3.035 1.14-6.589 1.14-3.554 0-5.267-.548-6.589-1.14A.291.291 0 0 0 1 3.292v9.917a.292.292 0 0 0 .411.266c1.322-.593 3.035-1.141 6.589-1.141 3.554 0 5.267.548 6.589 1.14A.292.292 0 0 0 15 13.21V3.292a.292.292 0 0 0-.133-.245ZM8 4.75c3.306 0 5.127-.488 6.417-1.015v7.603l-4.46-4.46a.292.292 0 0 0-.413 0l-3.148 3.147-1.69-1.69a.292.292 0 0 0-.412 0l-2.71 2.711V3.735C2.872 4.262 4.693 4.75 8 4.75Zm0 7c-3.306 0-5.127.488-6.417 1.016v-.895L4.5 8.954l2.127 2.127a.292.292 0 0 0 .413-.412l-.232-.231L9.75 7.496l4.667 4.667v.603c-1.29-.528-3.11-1.016-6.417-1.016Z"/>
</svg>
