<svg xmlns="http://www.w3.org/2000/svg" fill="none" viewBox="0 0 16 16">
  <path fill="currentColor" stroke="currentColor" stroke-width=".1" d="M11.598 8.36h-.05v.613c-.19.046-.369.121-.531.22l-.398-.397-.036-.036-.035.036-.566.565-.035.036.035.035.4.399a1.876 1.876 0 0 0-.22.53h-.615V11.262h.616c.047.19.122.368.22.53l-.4.401-.036.035.035.036.566.566.035.035.036-.035.402-.402c.161.097.339.172.527.218v.618H12.449v-.618c.19-.046.367-.12.529-.219l.402.402.035.036.035-.036.566-.565.035-.036-.035-.035-.401-.401c.098-.162.173-.34.22-.53h.616V10.362h-.615a1.88 1.88 0 0 0-.219-.53l.4-.399.034-.035-.035-.035-.566-.566-.035-.036-.035.036-.398.398a1.879 1.879 0 0 0-.533-.221V8.36H11.598ZM7.261 4.762v-.657a.85.85 0 0 0-.85-.85H2.4a.85.85 0 0 0-.85.85v1.9c0 .469.38.85.85.85h1.555v2.013c0 .889.208 1.541.704 1.943.473.384 1.105.447 1.7.447h.05V10.358h-.05c-.577 0-.922-.075-1.133-.246-.188-.152-.37-.47-.37-1.244V6.855H6.41c.47 0 .85-.381.85-.85v-.343H8.74v.343c0 .47.38.85.85.85h4.01c.47 0 .85-.381.85-.85v-1.9a.85.85 0 0 0-.85-.85H9.59a.85.85 0 0 0-.85.85v.657H7.26Zm-.093 6.447v.05H8.848V10.358H7.168V11.208Zm3.84-.4a.99.99 0 1 1 1.98 0 .99.99 0 0 1-1.98 0ZM2.452 4.155h3.91v1.8H2.45v-1.8Zm7.189 0h3.91v1.8H9.64v-1.8Z"/>
</svg>
