<svg xmlns="http://www.w3.org/2000/svg" fill="none" viewBox="0 0 16 16">
  <path fill="currentColor" fill-rule="evenodd" d="M1.5 7.333a5.833 5.833 0 1 1 10.297 3.756l2.557 2.557a.5.5 0 0 1-.708.708l-2.557-2.557A5.833 5.833 0 0 1 1.5 7.334ZM7.333 2.5a4.833 4.833 0 0 0-4.818 5.217.45.45 0 0 1 .152-.026h1.356l.302-.473a.65.65 0 0 1 1.13.064l.714 1.453.97-3.539c.171-.623 1.049-.642 1.246-.026l.809 2.52H12a.45.45 0 0 1 .152.027A4.833 4.833 0 0 0 7.334 2.5Zm4.669 6.09H9.012a.65.65 0 0 1-.62-.45l-.607-1.895-.923 3.365a.65.65 0 0 1-1.21.114l-.808-1.647-.137.214a.65.65 0 0 1-.548.3H2.665a4.835 4.835 0 0 0 9.337 0Z" clip-rule="evenodd"/>
</svg>
