<svg viewBox="0 0 35 35" fill="currentColor" xmlns="http://www.w3.org/2000/svg"><path d="M18.951 21.676v-.444c0-2.629-.002-5.256.004-7.884 0-.292.008-.593.074-.875a2.5 2.5 0 0 1 4.22-1.237c.298.29.578.415.973.384.292-.023.587-.002.88-.008.456-.008.491-.043.503-.512.007-.263.002-.526.003-.788.005-1.144.008-2.288.016-3.433 0-.17.004-.342.034-.508.089-.483.391-.718.879-.704.447.013.731.273.803.74a2.2 2.2 0 0 1 .017.324c.003 1.515-.016 3.03.013 4.544.026 1.33-1.042 2.173-2.14 2.095-.366-.026-.736-.004-1.128-.004v5.007c1.076-.266 1.97.028 2.688.818 1.327-.673 2.705-.416 3.643.948.17-.037.349-.074.526-.115 1.14-.262 2.235.235 2.773 1.266.201.387.316.788.314 1.239-.012 2.937 0 5.875-.008 8.811-.004 1.299-.624 2.23-1.767 2.818a2.967 2.967 0 0 1-1.422.341c-1.795-.02-3.59-.006-5.384-.01-.625 0-1.037-.46-.946-1.037.056-.357.257-.598.603-.687.206-.053.426-.072.64-.073 1.61-.005 3.219-.002 4.827-.003.155 0 .31.002.464-.01.671-.06 1.138-.526 1.202-1.197.01-.108.006-.217.006-.324 0-2.783.001-5.565-.002-8.349 0-.183-.01-.373-.059-.549-.097-.348-.338-.532-.663-.55a.766.766 0 0 0-.76.5c-.048.127-.059.27-.085.405-.09.459-.433.757-.866.753-.474-.005-.806-.298-.866-.794-.03-.26-.017-.524-.026-.787-.005-.186.003-.373-.027-.555a.765.765 0 0 0-.655-.63.717.717 0 0 0-.76.414c-.08.165-.11.352-.157.53-.125.477-.45.736-.894.71-.439-.026-.745-.326-.806-.808-.027-.213-.016-.433-.04-.647-.05-.441-.35-.742-.737-.758-.367-.014-.686.243-.794.65-.031.12-.032.245-.064.364a.856.856 0 0 1-.858.644c-.434-.012-.769-.293-.836-.722-.026-.166-.021-.339-.021-.508-.003-2.288-.004-4.577-.009-6.864 0-.232-.009-.466-.046-.693a.766.766 0 0 0-.732-.654c-.36-.002-.705.297-.76.684-.026.182-.023.37-.023.555 0 3.973 0 7.946-.002 11.92 0 .169.001.34-.022.508-.058.408-.306.674-.706.756-.377.078-.67-.075-.881-.375-.115-.164-.2-.349-.285-.53-.534-1.114-1.063-2.23-1.6-3.343a4.63 4.63 0 0 0-.385-.685c-.276-.388-.664-.564-1.204-.556.02.22.013.405.057.573.45 1.718.915 3.431 1.36 5.15.582 2.251 1.896 4.03 3.562 5.589.18.168.36.346.49.552.402.644-.004 1.38-.755 1.425a.597.597 0 0 1-.498-.186c-.521-.529-1.08-1.025-1.551-1.593a15.808 15.808 0 0 1-3.2-6.262c-.405-1.586-.814-3.17-1.235-4.75-.376-1.405.526-2.2 1.704-2.277 1.363-.09 2.307.636 3 1.743.11.175.199.362.297.543.03-.009.062-.016.091-.024v-.001ZM6.476 14.947c1.392 0 2.782-.002 4.174.002.215 0 .436-.003.646.037.984.189 1.612.939 1.638 1.96.014.571.003 1.143.003 1.714 0 2.317.005 4.634-.006 6.95-.002.304-.042.62-.137.908-.264.807-1 1.289-1.941 1.297-.959.01-1.916.003-2.875.003-1.932 0-3.864.002-5.795-.002-.683-.002-1.274-.219-1.707-.775-.317-.41-.423-.885-.424-1.39-.002-1.206 0-2.41 0-3.615v-4.727c0-.123-.004-.247.003-.37.06-1.19.868-1.978 2.063-1.99 1.129-.011 2.257-.003 3.385-.003h.973v.001Zm.035 1.762c-1.392 0-2.784-.002-4.176 0-.453 0-.499.05-.516.506-.003.107-.001.216-.001.325v4.079c0 1.282-.007 2.565 0 3.847.002.538.063.596.581.597 2.737.004 5.474.004 8.212 0 .495 0 .561-.071.562-.57.004-2.75.004-5.502 0-8.252 0-.482-.055-.53-.534-.53-1.376-.003-2.753 0-4.13 0l.002-.002ZM6.482 13.37c-1.439 0-2.878.002-4.316 0-1.272-.004-2.104-.807-2.11-2.079C.043 8.4.044 5.508.056 2.618.06 1.333.89.523 2.196.507 3.203.494 4.208.504 5.214.504c1.81 0 3.62-.005 5.43.005.306.002.622.034.915.118.846.244 1.369.986 1.377 1.93.01 1.066.003 2.133.003 3.2 0 1.84.002 3.68 0 5.52-.003.82-.32 1.47-1.063 1.87-.32.172-.666.227-1.03.226-1.454-.006-2.908-.003-4.362-.003h-.002Zm.01-1.755c1.377 0 2.752.002 4.129 0 .51 0 .545-.04.556-.556V2.993c0-.14-.005-.278-.015-.417-.01-.157-.086-.26-.254-.276-.108-.009-.216-.03-.323-.03-2.737 0-5.474-.003-8.21.002-.506.001-.551.052-.552.57-.005 2.75-.005 5.5 0 8.25 0 .48.05.52.542.521 1.376.003 2.752.001 4.128.001v.001Z"/><path d="M16.28 2.395v8.801c.015.363.045.402.398.414.294.01.588-.005.88.008.567.025.939.384.933.887-.006.51-.375.85-.948.861-.386.009-.773.01-1.16 0a1.94 1.94 0 0 1-1.86-1.783 6.886 6.886 0 0 1-.014-.417c-.002-2.842-.014-5.684 0-8.526.005-1.063.5-1.761 1.377-2.016.263-.078.546-.115.821-.116 2.535-.01 5.07-.008 7.605-.007.123 0 .247.007.367.032.61.122.894.638.675 1.222-.108.29-.331.44-.63.474-.183.02-.37.024-.555.024-2.195.006-4.39.008-6.584.012-.414 0-.834-.095-1.304.13Z"/><path d="M21.013 7.556c.128-.18.208-.336.327-.456 1.81-1.818 3.626-3.631 5.442-5.444.13-.13.265-.263.42-.36.345-.216.68-.162.961.128.261.27.294.653.07.973-.079.113-.182.21-.28.308-2.055 2.054-4.116 4.102-6.162 6.165-.662.667-1.024.698-1.698.01-.78-.794-1.568-1.579-2.355-2.366-.191-.191-.338-.398-.345-.683-.013-.538.518-.924 1.016-.716.178.075.342.208.483.345.565.55 1.116 1.113 1.675 1.67.107.107.22.21.447.424v.002Z"/></svg>