<svg viewBox="0 0 32 33" fill="none" xmlns="http://www.w3.org/2000/svg"><g clip-path="url(#a)"><mask id="b" style="mask-type:alpha" maskUnits="userSpaceOnUse" x="0" y="1" width="32" height="30"><path d="M31.616 14.861 25.04 3.426a2.89 2.89 0 0 0-2.465-1.47H9.424a2.887 2.887 0 0 0-2.465 1.47L.382 14.831a2.87 2.87 0 0 0 0 2.86l6.574 11.5a2.942 2.942 0 0 0 2.465 1.522h13.152a2.932 2.932 0 0 0 2.468-1.515l6.575-11.434c.512-.9.512-2.003 0-2.903z" fill="#fff"/></mask><g mask="url(#b)"><path d="M31.616 14.861 25.04 3.426a2.89 2.89 0 0 0-2.465-1.47H9.424a2.887 2.887 0 0 0-2.465 1.47L.382 14.831a2.87 2.87 0 0 0 0 2.86l6.574 11.5a2.942 2.942 0 0 0 2.465 1.522h13.152a2.932 2.932 0 0 0 2.468-1.515l6.575-11.434c.512-.9.512-2.003 0-2.903z" fill="#4285F4"/><path opacity=".07" d="m23.396 12.548-.907.989.205 5.874-.86 1.245-.498-.497h.459V18.12l-2.2-2.199-1.661.831-5.513-5.525-2.655 1.422-.328 2.754.931 5.04 1.35 1.323-.615.874 8.03 8.22h3.355c1.028-.035 2.142-.709 2.638-1.61l5.472-9.5-7.203-7.203z" fill="#000"/><path d="m11.104 22.641 1.317-1.317-1.975-1.975v-6.146l1.975-1.975-1.317-1.317-2.638 2.637v7.456l2.638 2.637z" fill="#fff"/><path d="M13.143 17.21a.934.934 0 1 0 0-1.868.934.934 0 0 0 0 1.868zM15.937 17.21a.934.934 0 1 0 0-1.868.934.934 0 0 0 0 1.868zM18.732 17.21a.934.934 0 1 0 0-1.868.934.934 0 0 0 0 1.868z" fill="#fff"/><path d="m20.759 9.91-1.318 1.318 1.975 1.975v6.146l-1.975 1.975 1.318 1.317 2.637-2.637v-7.456l-2.637-2.637z" fill="#fff"/></g></g><defs><clipPath id="a"><path fill="#fff" d="M0 0h32v33H0z"/></clipPath></defs></svg>