<svg enable-background="new 0 0 14 14" viewBox="0 0 14 14" xmlns="http://www.w3.org/2000/svg"><path d="m7 .1c-3.8 0-6.9 3.1-6.9 6.9s3.1 6.9 6.9 6.9 6.9-3.1 6.9-6.9-3.1-6.9-6.9-6.9zm0 12.9c-1.1 0-2-.7-2-1.6h4c0 .9-.9 1.6-2 1.6zm3.2-2.2h-6.4v-1.1h6.4zm0-1.7h-6.4s0 0-.1-.1c-.7-.8-.8-1.2-1-1.6 0 0 .8.2 1.4.3 0 0 .3.1.7.1-.4-.5-.6-1.1-.6-1.7 0-1.4 1.1-2.6.7-3.5.4 0 .8.8.8 2 .4-.5.6-1.5.6-2.1s.4-1.4.8-1.4c-.4.4.1 1 .5 2.3.2.5.1 1.3.3 1.8 0-1.1.1-2.7.8-3.2-.3.7.1 1.5.3 2 .4.7.6 1.2.6 2.1 0 .6-.2 1.2-.6 1.7.5-.1.8-.2.8-.2l1.5-.3c-.1 0-.3.9-1.1 1.8z" fill="#da4e31"/></svg>