<svg viewBox="0 0 16 14" xmlns="http://www.w3.org/2000/svg"><path d="m8.04 4.695a2.345 2.345 0 1 0 0 4.69 2.345 2.345 0 0 0 0-4.69zm0 .67a1.675 1.675 0 1 1 0 3.35 1.675 1.675 0 0 1 0-3.35zm2.358-4.634h-4.758c-.819 0-1.578.427-2.003 1.126l-2.585 4.247a2.345 2.345 0 0 0 .055 2.525l2.529 3.774a2.345 2.345 0 0 0 1.948 1.04h4.87c.772 0 1.493-.38 1.931-1.014l2.604-3.776c.531-.77.554-1.783.056-2.576l-2.66-4.246a2.345 2.345 0 0 0 -1.987-1.1zm-4.757.67h4.757c.577 0 1.113.297 1.419.786l2.66 4.246c.356.566.34 1.29-.04 1.84l-2.603 3.775a1.675 1.675 0 0 1 -1.38.724h-4.87c-.559 0-1.08-.278-1.392-.742l-2.529-3.774a1.675 1.675 0 0 1 -.039-1.804l2.586-4.247c.304-.5.846-.804 1.43-.804z" fill="#25a6f7"/></svg>