<svg viewBox="0 0 28 24" xmlns="http://www.w3.org/2000/svg"><g clip-path="url(#a)"><path d="M7.958 12.939c0 .34.037.616.101.818.074.203.166.423.295.662a.4.4 0 0 1 .065.212c0 .092-.056.184-.175.276l-.58.386a.443.443 0 0 1-.24.083c-.092 0-.184-.046-.276-.129a2.846 2.846 0 0 1-.332-.432 7.108 7.108 0 0 1-.286-.543c-.718.846-1.62 1.27-2.707 1.27-.774 0-1.391-.221-1.843-.663-.45-.441-.681-1.03-.681-1.765 0-.782.276-1.416.838-1.895.562-.478 1.308-.717 2.257-.717.313 0 .635.028.976.074.34.046.69.12 1.06.202v-.671c0-.699-.148-1.186-.434-1.471-.295-.285-.792-.423-1.501-.423a4.14 4.14 0 0 0-.995.12c-.34.082-.672.183-.995.312a2.645 2.645 0 0 1-.322.12.566.566 0 0 1-.147.027c-.13 0-.194-.092-.194-.285v-.45c0-.148.019-.258.065-.323a.69.69 0 0 1 .258-.193 5.312 5.312 0 0 1 1.16-.413 5.57 5.57 0 0 1 1.437-.175c1.096 0 1.897.248 2.413.745.507.496.765 1.25.765 2.262v2.979h.018Zm-3.74 1.398c.305 0 .618-.055.95-.166.33-.11.626-.312.874-.588a1.45 1.45 0 0 0 .313-.589 3.25 3.25 0 0 0 .093-.8v-.386a7.7 7.7 0 0 0-.848-.156 6.948 6.948 0 0 0-.866-.055c-.617 0-1.068.12-1.372.367-.304.249-.451.598-.451 1.058 0 .432.11.754.34.974.222.23.544.34.968.34Zm7.397.993c-.166 0-.277-.028-.35-.092-.074-.055-.139-.184-.194-.359L8.907 7.771a1.609 1.609 0 0 1-.083-.368c0-.147.074-.23.22-.23h.904c.175 0 .294.028.359.092.073.056.129.184.184.36l1.547 6.086 1.437-6.087c.046-.184.101-.303.175-.359.074-.055.203-.091.369-.091h.736c.175 0 .295.027.369.091.073.056.138.184.175.36l1.455 6.16 1.593-6.16c.056-.185.12-.304.185-.36.073-.055.193-.091.359-.091h.857c.147 0 .23.073.23.23 0 .045-.01.091-.019.147a1.288 1.288 0 0 1-.064.23l-2.22 7.108c-.055.183-.12.303-.193.358a.59.59 0 0 1-.35.092h-.792c-.175 0-.295-.027-.369-.092-.073-.064-.138-.184-.175-.368L14.37 8.95l-1.42 5.92c-.046.184-.101.304-.175.368-.074.064-.203.092-.368.092h-.792Zm11.835.248c-.479 0-.958-.055-1.418-.165-.46-.11-.82-.23-1.06-.368-.147-.083-.248-.175-.285-.258a.647.647 0 0 1-.055-.257v-.47c0-.192.073-.284.212-.284.055 0 .11.009.165.027.056.019.139.056.23.092.314.138.655.249 1.014.322a5.5 5.5 0 0 0 1.096.11c.58 0 1.031-.1 1.345-.303a.99.99 0 0 0 .479-.873.895.895 0 0 0-.25-.644c-.165-.175-.478-.331-.93-.478l-1.335-.414c-.672-.212-1.17-.524-1.474-.938a2.188 2.188 0 0 1-.46-1.333c0-.387.083-.727.248-1.021.166-.294.387-.552.664-.754a2.91 2.91 0 0 1 .958-.478 4.02 4.02 0 0 1 1.16-.157c.203 0 .415.01.617.037.212.028.405.065.599.101.184.046.36.092.525.148.166.055.295.11.387.165a.795.795 0 0 1 .276.23.495.495 0 0 1 .083.303v.433c0 .193-.074.294-.212.294-.074 0-.193-.037-.35-.11-.525-.24-1.114-.36-1.768-.36-.525 0-.94.084-1.225.258-.286.175-.433.442-.433.819a.87.87 0 0 0 .276.653c.184.174.525.349 1.013.505l1.308.414c.663.212 1.142.506 1.428.883.285.377.424.81.424 1.287 0 .396-.083.754-.24 1.067a2.475 2.475 0 0 1-.672.81 2.97 2.97 0 0 1-1.023.514 4.385 4.385 0 0 1-1.317.193Z" fill="#252F3E"/><path fill-rule="evenodd" clip-rule="evenodd" d="M25.19 20.047c-3.03 2.235-7.432 3.42-11.218 3.42-5.305 0-10.085-1.958-13.696-5.213-.286-.258-.028-.607.313-.405 3.905 2.262 8.723 3.633 13.705 3.633 3.362 0 7.056-.7 10.454-2.134.507-.23.94.331.442.7Z" fill="#F90"/><path fill-rule="evenodd" clip-rule="evenodd" d="M26.452 18.613c-.387-.497-2.56-.24-3.546-.12-.295.037-.34-.22-.073-.414 1.731-1.213 4.577-.864 4.909-.46.331.414-.092 3.256-1.713 4.617-.25.211-.489.1-.378-.175.368-.91 1.188-2.961.801-3.448Z" fill="#F90"/></g><path d="M20.93 9.617c0 .12.098.218.218.218H24.8v-.002a2.878 2.878 0 0 0 .124-5.744.24.24 0 0 1-.215-.188 4.146 4.146 0 0 0-8.198.869.05.05 0 0 1-.041.05 2.534 2.534 0 0 0 .501 5.015h2.914a.22.22 0 0 0 .22-.218V8.93a.23.23 0 0 0-.191-.223c-.456-.087-.846-.275-1.113-.544a1.496 1.496 0 0 1-.425-.889c-.016-.121.085-.22.207-.22l.487.002c.117 0 .21.094.237.208.112.478.544.793 1.186.796.25.001 1.181-.116 1.184-.76.002-.514-.675-.71-1.315-.868-.11-.027-.22-.054-.332-.084-.724-.192-1.49-.413-1.486-1.34.004-.9.762-1.364 1.56-1.459v-.863c0-.121.098-.219.219-.219h.388c.121 0 .219.098.219.219v.887c.576.093 1.35.384 1.482 1.271.018.122-.083.224-.206.224l-.49-.002c-.112 0-.202-.088-.236-.195-.127-.405-.525-.651-1.108-.654-.387-.002-.95.204-.952.674-.002.426.324.57 1.54.885l.162.041.065.016c.463.112 1.414.341 1.409 1.36-.004.805-.553 1.355-1.472 1.52a.23.23 0 0 0-.193.222v.682Z" fill="#01C9CC"/><defs><clipPath id="a"><path fill="#fff" transform="translate(0 6.833)" d="M0 0h28v16.736H0z"/></clipPath></defs></svg>