<svg viewBox="0 0 16 14" xmlns="http://www.w3.org/2000/svg"><path d="M8.04 4.695a2.345 2.345 0 100 4.69 2.345 2.345 0 000-4.69zm0 .67a1.675 1.675 0 110 3.35 1.675 1.675 0 010-3.35zM10.398.731H5.64c-.819 0-1.578.427-2.003 1.126L1.052 6.104a2.345 2.345 0 00.055 2.525l2.529 3.774a2.345 2.345 0 001.948 1.04h4.87c.772 0 1.493-.38 1.931-1.014l2.604-3.776c.531-.77.554-1.783.056-2.576l-2.66-4.246a2.345 2.345 0 00-1.987-1.1zm-4.757.67h4.757c.577 0 1.113.297 1.419.786l2.66 4.246c.356.566.34 1.29-.04 1.84l-2.603 3.775a1.675 1.675 0 01-1.38.724h-4.87c-.559 0-1.08-.278-1.392-.742L1.663 8.256a1.675 1.675 0 01-.039-1.804L4.21 2.205c.304-.5.846-.804 1.43-.804h.001z" fill="#25A6F7" fill-rule="nonzero"/></svg>