<svg width="33" height="32" viewBox="0 0 33 32" fill="none" xmlns="http://www.w3.org/2000/svg">
<g clip-path="url(#clip0_2920_319593)">
<path d="M14.2169 20.8351L12.5283 21.305C12.6751 21.7307 12.7926 22.4943 12.7926 23.522V28.5731H14.6867V23.2284C15.0391 22.8026 15.4209 22.597 15.8319 22.597C16.0375 22.597 16.1991 22.6411 16.3753 22.7439L16.8891 20.9966C16.5955 20.8644 16.4634 20.8351 16.1843 20.8351C15.9789 20.8351 15.7293 20.8791 15.5677 20.9526C15.2153 21.1287 14.7747 21.5251 14.4958 21.907C14.4958 21.4811 14.393 21.1434 14.2169 20.8351ZM7.69749 18.3388H7.49193V28.5584H9.45948V24.036H11.9409V22.3474H9.45948V19.998H12.5576L12.6751 19.1024C10.8103 18.9703 9.12177 18.6766 7.69749 18.3388ZM3.10164 29.9239L4.012 30.9811C4.893 30.6287 5.99424 29.8359 6.2879 28.5731C6.39069 28.162 6.42005 27.8976 6.42005 26.5615V18.3536H4.43781V26.7818C4.43781 27.883 4.39377 28.2942 4.24693 28.6759C4.05605 29.1016 3.60086 29.601 3.10164 29.9239ZM20.9711 24.7408C20.9711 26.5322 20.6187 27.2956 19.8111 27.2956C19.4441 27.2956 19.0329 27.09 18.8567 26.679C18.7099 26.2972 18.6218 25.6511 18.6218 24.7702C18.6218 24.0214 18.6953 23.4927 18.8127 23.0816C18.9595 22.6118 19.3266 22.318 19.7818 22.318C20.1195 22.318 20.4131 22.4648 20.5894 22.7144C20.8537 23.0668 20.9711 23.7276 20.9711 24.7408ZM22.1311 27.6774C22.7478 26.9432 23.0267 26.0476 23.0267 24.7555C23.0267 23.5367 22.7771 22.6998 22.2045 21.995C21.5878 21.2315 20.7949 20.8644 19.7671 20.8644C17.8289 20.8644 16.5367 22.4355 16.5367 24.8142C16.5367 27.1928 17.8142 28.7199 19.7671 28.7199C20.8683 28.7346 21.5878 28.3235 22.1311 27.6774ZM27.5051 23.4487C27.5051 24.1387 27.0941 24.5206 26.3598 24.5206C25.6991 24.5206 25.2586 24.2122 25.2586 23.4487C25.2586 22.7439 25.6698 22.3327 26.3746 22.3327C27.0794 22.3327 27.5051 22.7439 27.5051 23.4487ZM30.8382 21.8335L30.0601 20.5854C29.6195 20.9966 29.091 21.2315 28.577 21.2315C28.3421 21.2315 28.2099 21.2022 27.6961 21.07C27.1821 20.9231 26.815 20.8791 26.4039 20.8791C24.5685 20.8791 23.3791 21.8775 23.3791 23.434C23.3791 24.5499 23.8783 25.2547 24.9209 25.5336C24.4951 25.6364 24.0399 25.8567 23.8343 26.1063C23.6875 26.2826 23.6141 26.5175 23.6141 26.7964C23.6141 27.0314 23.6729 27.237 23.7609 27.4131C23.8637 27.5747 23.9958 27.7068 24.1721 27.7802C24.5098 27.9123 25.053 28.0004 25.8899 28.0151C26.3305 28.0151 26.5947 28.0298 26.6829 28.0298C27.1969 28.0592 27.4611 28.1472 27.6667 28.25C27.8575 28.3675 28.0043 28.6319 28.0043 28.9255C28.0043 29.2191 27.8282 29.5128 27.5493 29.689C27.2995 29.8652 26.8885 29.9387 26.3598 29.9387C25.4935 29.9387 25.009 29.6156 25.009 29.0136C25.009 28.7494 25.0383 28.6906 25.0971 28.5291H23.3645C23.2911 28.6759 23.203 28.8815 23.203 29.2926C23.203 29.8064 23.3938 30.247 23.7903 30.6287C24.4363 31.2602 25.4935 31.4363 26.5067 31.4363C27.6226 31.4363 28.7091 31.172 29.3406 30.4672C29.737 30.0267 29.9133 29.5422 29.9133 28.9108C29.9133 28.2354 29.7223 27.7215 29.2965 27.2956C28.7973 26.8111 28.2246 26.635 27.1234 26.6202L26.1102 26.6055C25.9194 26.6055 25.8019 26.5322 25.8019 26.4294C25.8019 26.2238 26.0662 26.0476 26.5507 25.8127C26.6975 25.8274 26.7417 25.8274 26.8297 25.8274C28.3567 25.8274 29.4727 24.8876 29.4727 23.5808C29.4727 23.0816 29.3259 22.6998 29.0469 22.3474C29.2818 22.3768 29.3553 22.3915 29.5314 22.3915C30.0307 22.3915 30.4271 22.2299 30.8382 21.8335ZM7.19826 9.45555C4.84894 10.0282 3.24848 11.1588 3.24848 12.4509C3.24848 13.2584 3.86517 13.9927 4.87832 14.5654C4.56996 14.0807 4.40845 13.5522 4.40845 13.0235C4.42313 11.6874 5.46564 10.4393 7.19826 9.45555ZM31.9835 14.5212C31.9835 13.6696 31.455 12.8914 30.5739 12.2454C30.6474 12.5097 30.7061 12.774 30.7061 13.0383C30.7061 15.461 27.3143 17.546 22.4982 18.4123C23.0414 18.4711 23.5994 18.5004 24.1867 18.5004C28.4889 18.4858 31.9835 16.7091 31.9835 14.5212ZM29.2085 13.1998C29.2085 12.3041 28.4449 11.4818 27.1381 10.8064C27.4465 11.1735 27.6079 11.5699 27.6079 11.9811C27.6079 14.1395 23.0267 15.8868 17.359 15.8868C11.706 15.8868 7.11016 14.1395 7.11016 11.9811C7.11016 11.7021 7.18358 11.4378 7.33041 11.1882C6.42005 11.7902 5.90613 12.4803 5.90613 13.2144C5.90613 15.5491 11.1187 17.4432 17.5499 17.4432C23.9811 17.4432 29.2085 15.5198 29.2085 13.1998ZM24.1281 13.0823C21.7493 14.6094 14.4371 15.1967 11.2949 13.2291C8.8281 11.6874 9.67973 9.23529 2.61709 3.86124C1.69205 3.15644 2.79329 2.4076 3.48341 2.89215C4.17352 3.37669 3.54214 3.49416 4.93705 4.88907C7.75622 7.70824 7.72685 5.16804 8.16736 6.13713C9.10708 8.14873 11.1627 10.175 11.1627 10.175C13.2331 11.5259 14.8775 11.8195 17.9317 9.74921C19.8699 8.4424 19.077 11.8342 23.8197 9.38213C25.5523 8.48645 25.4789 9.08847 27.2409 6.63636C27.975 5.62323 29.3699 7.41457 27.7841 7.66419C27.1527 7.76697 26.0809 8.45709 25.6257 9.54364C24.965 11.1735 25.2439 12.3775 24.1281 13.0823ZM10.9425 8.94164C10.3552 8.67733 9.73846 7.67888 9.50353 7.28243C10.1643 6.63637 9.89997 5.56449 9.51821 4.97716C9.15113 4.38984 8.69594 4.55135 8.21141 4.00807C7.71217 3.46479 8.40229 2.0552 9.03366 3.14176C11.3977 7.20901 12.9541 5.52044 14.8775 5.27083C16.7277 5.03589 18.3722 6.04904 18.8714 3.18581C18.9595 2.71595 19.4147 2.61316 19.4587 3.37669C19.5027 4.15491 19.7965 6.03436 20.8097 6.26928C21.8227 6.51891 22.645 6.03436 22.8799 5.77005C23.1149 5.50576 23.247 5.53512 23.3498 6.21056C23.4526 6.87129 23.7169 7.79635 25.1411 6.76852C28.0631 4.68349 27.2262 3.87592 28.3714 3.33264C29.0175 3.02429 30.0454 4.02275 28.5623 4.7716C26.4479 5.84347 26.2277 7.16496 24.8915 8.00191C22.645 9.41149 23.3351 8.06064 19.723 7.54673C18.3282 7.35584 17.8877 8.89759 16.8011 8.45709C14.3197 7.42927 12.5723 7.63483 10.9425 8.94164ZM18.7686 1.40913C18.8567 2.02584 18.9595 2.01115 19.1798 2.0552C19.4001 2.11393 19.679 1.76153 19.679 1.43851C19.6937 1.10079 19.5322 0.895227 19.2091 0.909907C18.8714 0.924587 18.7539 1.08611 18.7686 1.40913ZM29.6342 2.51039C29.8985 2.76 30.6033 2.59848 30.7649 2.4076C31.1906 1.93773 31.2053 1.65875 30.9851 1.33572C30.7649 1.02737 30.3097 1.07143 29.8545 1.40913C29.3993 1.74685 29.4874 2.37823 29.6342 2.51039ZM29.4434 5.62323C29.2231 5.91689 29.2085 6.13713 29.3699 6.29865C29.5461 6.47485 29.8985 6.62168 30.1482 6.4308C30.3978 6.22524 30.3978 5.93157 30.1922 5.68196C29.9719 5.41765 29.6783 5.41765 29.4434 5.62323ZM7.15421 1.95241C7.49193 2.0552 7.65344 2.37823 7.93242 2.01115C8.07925 1.83495 8.09394 1.58533 7.90305 1.32104C7.7856 1.15952 7.22762 1.04205 6.99269 1.27699C6.75777 1.51192 6.97801 1.89368 7.15421 1.95241ZM0.267777 1.74685C0.884472 2.12861 1.28092 2.70127 1.75078 2.18735C1.9123 2.01115 2.10318 1.7028 1.76546 1.08611C1.51585 0.630929 0.708273 0.45473 0.429292 0.630929C0.135628 0.792441 -0.21677 1.45319 0.267777 1.74685ZM5.95018 4.66881C6.14106 4.87439 6.47878 4.85969 6.68434 4.74223C6.87522 4.62476 6.84586 4.31641 6.65498 4.05212C6.53752 3.8906 6.18512 3.80251 5.95018 4.05212C5.71525 4.30173 5.81804 4.52199 5.95018 4.66881Z" fill="white"/>
</g>
<defs>
<clipPath id="clip0_2920_319593">
<rect width="32" height="32" fill="white" transform="translate(0.0280762)"/>
</clipPath>
</defs>
</svg>
