<svg viewBox="0 0 33 32" xmlns="http://www.w3.org/2000/svg"><path fill-rule="evenodd" clip-rule="evenodd" d="M7.296 3.785a.5.5 0 0 1 .683-.183l4.812 2.778a.5.5 0 0 1-.5.866L7.48 4.468a.5.5 0 0 1-.183-.683zm-2.87 2.596a.5.5 0 1 0-.5.866l4.812 2.778a.5.5 0 0 0 .5-.866L4.426 6.38zm13.594.51a.5.5 0 0 0-.5-.001l-7 4.04a.5.5 0 0 0-.25.433v7.785a.5.5 0 0 0 .248.432l7.329 4.264a.5.5 0 0 0 .502.001l7.031-4.07a.5.5 0 0 0 .25-.433v-7.749a.5.5 0 0 0-.25-.432l-7.36-4.27zM11.27 18.86v-6.63l6.38 3.69-.046 6.626-6.335-3.686zm7.334 3.682.046-6.62 5.98-3.462v6.594l-6.026 3.488zm-.452-7.487 5.98-3.462L17.77 7.9l-6 3.463 6.383 3.69zm-13.726-2.63a.5.5 0 0 0-.5.866l4.812 2.778a.5.5 0 1 0 .5-.866l-4.812-2.778z" fill="#fff"/><path d="m23.773 32 6.01-5.443-.447-.28-5.094 4.61v-1.09l5.658-5.119v1.099l-.564.5.447.28.602-.535v-2.123l-1.318.182 1.181-1.978v-1.866L29.986 20l-6.918 5.96v1.46l2.22-.375-1.516 2.563V32zm5.991-10.81v.768l-1.268 2.201-.645.09 1.913-3.06zm-6.23 5.646v-.788l2.7-.368-.567.818-2.134.338z" fill="currentColor"/></svg>