<svg viewBox="0 0 28 28" xmlns="http://www.w3.org/2000/svg"><g clip-path="url(#a)"><path d="M17.767 11.538h.855l2.434-2.434.12-1.033c-4.53-3.997-11.444-3.566-15.441.963a10.922 10.922 0 0 0-2.357 4.374c.271-.111.571-.13.854-.052l4.868-.802s.247-.41.375-.384a6.072 6.072 0 0 1 8.31-.632h-.018Z" fill="#EA4335"/><path d="M24.523 13.408a10.965 10.965 0 0 0-3.305-5.328l-3.416 3.415a6.071 6.071 0 0 1 2.23 4.817v.607a3.04 3.04 0 1 1 0 6.08H13.95l-.606.614v3.647l.607.606h6.08a7.91 7.91 0 0 0 7.614-5.56 7.913 7.913 0 0 0-3.122-8.898Z" fill="#4285F4"/><path d="M7.861 27.832h6.081v-4.867h-6.08c-.434 0-.862-.093-1.256-.273l-.855.264-2.45 2.434-.214.854a7.87 7.87 0 0 0 4.774 1.588Z" fill="#34A853"/><path d="M7.862 12.042a7.907 7.907 0 0 0-4.774 14.175l3.527-3.526a3.04 3.04 0 1 1 4.022-4.023l3.527-3.526a7.904 7.904 0 0 0-6.302-3.1Z" fill="#FBBC05"/></g><path d="M20.93 11.617c0 .12.098.218.218.218H24.8v-.002a2.878 2.878 0 0 0 .124-5.744.24.24 0 0 1-.215-.188 4.146 4.146 0 0 0-8.198.869.05.05 0 0 1-.041.05 2.534 2.534 0 0 0 .501 5.015h2.914c.121 0 .22-.098.22-.218v-.687a.23.23 0 0 0-.191-.223c-.456-.087-.846-.275-1.113-.544a1.496 1.496 0 0 1-.425-.889c-.016-.121.085-.22.207-.22l.487.002c.117 0 .21.094.237.208.112.478.544.793 1.186.796.25.001 1.181-.116 1.184-.76.002-.514-.675-.71-1.315-.868-.11-.027-.22-.054-.332-.084-.724-.192-1.49-.413-1.486-1.34.004-.9.762-1.364 1.56-1.459v-.863c0-.121.098-.219.219-.219h.388c.121 0 .219.098.219.219v.887c.576.093 1.35.384 1.482 1.271.018.122-.083.224-.206.224l-.49-.002c-.112 0-.202-.088-.236-.195-.127-.405-.525-.651-1.108-.654-.387-.002-.95.204-.952.674-.002.426.324.57 1.54.885l.162.041.065.016c.463.112 1.414.341 1.409 1.36-.004.805-.553 1.355-1.472 1.52a.23.23 0 0 0-.193.222v.682Z" fill="#01C9CC"/><defs><clipPath id="a"><path fill="#fff" transform="translate(0 5.333)" d="M0 0h28v22.533H0z"/></clipPath></defs></svg>