<svg fill="none" viewBox="0 0 33 33" xmlns="http://www.w3.org/2000/svg"><g clip-rule="evenodd" fill-rule="evenodd"><path d="m15.72 3.842c-1.1-.253-2.018.036-2.685.598-.649.547-1.042 1.333-1.17 2.077l-1.035 5.243a.5.5 0 0 1 -.49.404h-5.745a1.5 1.5 0 0 0 -1.5 1.5v11.586a1.5 1.5 0 0 0 1.5 1.5h10.415a.5.5 0 0 0 0-1h-4.575v-12.504a.506.506 0 0 0 -.007-.085 1.5 1.5 0 0 0 1.382-1.207l1.036-5.25.002-.012c.093-.543.383-1.11.83-1.487.432-.364 1.03-.57 1.817-.388.824.189 1.175.63 1.333 1.107.172.519.128 1.127.037 1.6l-.742 3.856a1.5 1.5 0 0 0 1.473 1.784h10.175a.5.5 0 0 1 .491.592l-.734 3.91a.5.5 0 1 0 .983.185l.734-3.91a1.5 1.5 0 0 0 -1.474-1.777h-10.174a.5.5 0 0 1 -.49-.595l.74-3.855c.104-.538.183-1.346-.069-2.105-.265-.8-.886-1.498-2.058-1.767zm-6.277 9.322a.503.503 0 0 0 -.007.082v12.504h-4.84a.5.5 0 0 1 -.5-.5v-11.586a.5.5 0 0 1 .5-.5z" fill="#0278d5"/><path d="m25.475 20.177c-3.75 0-6.697 2.946-6.697 6.696 0 1.964.804 3.75 2.054 5 .446.446 1.25.446 1.785.089.715-.625 1.786-.982 2.858-.982 1.16 0 2.053.357 2.857.982.535.446 1.25.357 1.785-.179 1.25-1.25 2.054-2.946 2.054-4.91-.09-3.66-3.036-6.697-6.696-6.697zm-.09 10.178c-2.053 0-3.393-1.518-3.393-3.393s1.34-3.393 3.393-3.393c2.054 0 3.393 1.518 3.393 3.393s-1.34 3.393-3.393 3.393z" fill="#81b5a1"/></g></svg>