<svg viewBox="0 0 28 27" xmlns="http://www.w3.org/2000/svg"><path d="M16.37 15.38a.432.432 0 0 0-.277.036.453.453 0 0 0-.22.588l-.003.004 1.038 2.507a5.297 5.297 0 0 0 2.141-2.69l-2.674-.451-.005.005Zm-4.16.355a.453.453 0 0 0-.524-.345l-.005-.005-2.65.45a5.317 5.317 0 0 0 2.134 2.67l1.027-2.482-.008-.01a.449.449 0 0 0 .025-.278Zm2.22.973a.452.452 0 0 0-.798.001h-.002l-1.304 2.358a5.31 5.31 0 0 0 3.42.003l-1.307-2.362h-.01Zm4.126-5.476-2.005 1.796v.005a.452.452 0 0 0 .178.779l.003.01 2.598.749a5.388 5.388 0 0 0-.774-3.338Zm-3.726.202a.453.453 0 0 0 .72.345l.007.003 2.195-1.556a5.336 5.336 0 0 0-3.077-1.483l.153 2.69h.002Zm-2.324.355a.453.453 0 0 0 .718-.347l.011-.005.153-2.694a5.29 5.29 0 0 0-3.095 1.483l2.209 1.566.004-.003Zm-1.178 2.036a.453.453 0 0 0 .178-.779l.002-.01-2.017-1.804a5.288 5.288 0 0 0-.75 3.347l2.585-.746.002-.008Zm1.959.792.744.358.742-.357.184-.801-.513-.642h-.827l-.514.641.184.801Z" fill="#326CE5"/><path d="m26.33 16.195-2.12-9.209a1.656 1.656 0 0 0-.888-1.104l-8.581-4.097a1.653 1.653 0 0 0-1.424 0l-8.58 4.1a1.655 1.655 0 0 0-.888 1.103l-2.116 9.209a1.62 1.62 0 0 0 .059.916 1.596 1.596 0 0 0 .256.461l5.94 7.384c.025.032.054.061.082.09a1.638 1.638 0 0 0 .783.465c.136.037.276.056.417.057h.092l9.432-.002a1.587 1.587 0 0 0 .413-.056 1.668 1.668 0 0 0 .475-.207c.15-.094.283-.211.394-.348l.181-.225 5.756-7.16a1.604 1.604 0 0 0 .317-.67 1.612 1.612 0 0 0 0-.707Zm-8.901 3.581c.024.071.053.14.086.208a.403.403 0 0 0-.04.303 4.8 4.8 0 0 0 .455.815c.1.13.192.268.275.41.021.038.048.097.068.137a.516.516 0 1 1-.929.44c-.02-.04-.047-.094-.063-.132a4.305 4.305 0 0 1-.15-.47 4.788 4.788 0 0 0-.352-.865.406.406 0 0 0-.262-.159c-.016-.028-.077-.14-.11-.197a6.646 6.646 0 0 1-4.74-.012l-.115.21a.417.417 0 0 0-.222.108 3.59 3.59 0 0 0-.397.923c-.04.16-.09.317-.149.47-.016.038-.043.091-.063.131l-.001.002a.515.515 0 1 1-.927-.44c.02-.04.045-.1.066-.138.083-.142.175-.279.275-.41.181-.264.337-.543.465-.836a.51.51 0 0 0-.046-.29l.093-.224a6.683 6.683 0 0 1-2.961-3.698l-.224.038a.569.569 0 0 0-.295-.104 4.811 4.811 0 0 0-.896.263c-.15.068-.304.127-.46.177-.037.01-.091.02-.133.03-.004 0-.007.002-.01.003a.515.515 0 1 1-.236-1l.007-.002h.005c.043-.011.098-.025.137-.033.163-.022.328-.036.493-.04.31-.02.62-.07.92-.15a.709.709 0 0 0 .221-.223l.215-.063a6.646 6.646 0 0 1 1.048-4.633l-.165-.147a.57.57 0 0 0-.103-.296 4.79 4.79 0 0 0-.764-.537 4.289 4.289 0 0 1-.425-.249c-.031-.023-.073-.058-.107-.085l-.007-.006a.544.544 0 0 1-.127-.757.495.495 0 0 1 .41-.181c.13.006.256.053.358.135.034.027.082.064.113.09.12.114.233.234.339.36.21.23.441.44.692.625.094.05.203.06.305.03.061.045.123.088.185.132a6.607 6.607 0 0 1 4.285-2.06l.012-.217a.56.56 0 0 0 .166-.266 4.808 4.808 0 0 0-.057-.932 4.3 4.3 0 0 1-.07-.488c-.001-.037 0-.089.001-.131V5.33a.516.516 0 1 1 1.026 0c0 .045.003.104.001.146a4.253 4.253 0 0 1-.07.488 4.81 4.81 0 0 0-.058.932c.02.104.08.196.168.256.001.038.007.161.012.23a6.73 6.73 0 0 1 4.263 2.06l.195-.14a.57.57 0 0 0 .312-.034c.25-.186.482-.396.692-.626.106-.127.22-.246.34-.36.03-.026.078-.063.113-.09a.517.517 0 1 1 .64.803c-.034.028-.08.066-.113.091-.137.091-.28.174-.427.249a4.803 4.803 0 0 0-.764.537.406.406 0 0 0-.096.29c-.028.027-.129.116-.182.164a6.674 6.674 0 0 1 1.07 4.622l.207.06c.052.094.129.17.222.223.3.08.61.131.92.152.165.003.33.017.493.039.043.008.105.025.15.035a.516.516 0 1 1-.229 1h-.007l-.01-.004c-.043-.009-.096-.018-.133-.028a4.29 4.29 0 0 1-.46-.178 4.801 4.801 0 0 0-.897-.263.406.406 0 0 0-.287.106 7.745 7.745 0 0 0-.22-.038 6.683 6.683 0 0 1-2.96 3.724Z" fill="#326CE5"/><path d="M22.632 15.457c-.044-.01-.106-.027-.15-.035a4.338 4.338 0 0 0-.492-.04 4.804 4.804 0 0 1-.92-.15.577.577 0 0 1-.222-.224l-.208-.06a6.674 6.674 0 0 0-1.07-4.622l.183-.163a.406.406 0 0 1 .096-.291c.237-.203.492-.383.764-.537.147-.075.29-.158.427-.249.033-.024.078-.063.113-.091a.516.516 0 1 0-.64-.803c-.035.027-.083.064-.114.09-.12.114-.233.234-.34.36-.21.23-.441.44-.692.626a.57.57 0 0 1-.311.034l-.196.14a6.73 6.73 0 0 0-4.262-2.06c-.005-.069-.011-.192-.013-.23a.407.407 0 0 1-.167-.256c-.011-.312.008-.624.058-.932.032-.161.056-.324.07-.488.001-.041-.001-.102-.001-.146a.517.517 0 1 0-1.027 0v.015c0 .042-.002.094 0 .131.014.164.037.327.07.489.05.307.068.62.057.931a.56.56 0 0 1-.167.266l-.012.217a6.606 6.606 0 0 0-4.284 2.06 8.684 8.684 0 0 1-.185-.132.406.406 0 0 1-.305-.03 4.792 4.792 0 0 1-.693-.625 4.291 4.291 0 0 0-.338-.36c-.03-.026-.079-.062-.114-.09a.612.612 0 0 0-.358-.136.495.495 0 0 0-.409.182.544.544 0 0 0 .126.757l.008.006c.034.027.075.062.106.085.137.091.28.174.426.25.272.153.527.333.764.536a.57.57 0 0 1 .103.296l.164.147a6.646 6.646 0 0 0-1.047 4.633l-.215.063a.71.71 0 0 1-.221.222 4.79 4.79 0 0 1-.92.152c-.166.004-.33.017-.493.04-.04.007-.095.02-.138.031l-.004.001-.007.002a.516.516 0 1 0 .228 1.001l.008-.001.01-.003c.042-.01.095-.02.132-.03.157-.05.31-.109.46-.177.29-.116.59-.204.896-.263a.57.57 0 0 1 .295.104l.224-.038a6.684 6.684 0 0 0 2.962 3.698l-.093.224a.51.51 0 0 1 .045.29 5.014 5.014 0 0 1-.464.835c-.1.132-.192.269-.276.41-.02.04-.046.099-.066.14a.516.516 0 1 0 .928.44v-.003c.02-.04.048-.093.064-.13.059-.154.108-.312.148-.471.089-.325.223-.635.398-.923a.417.417 0 0 1 .221-.108l.117-.21a6.646 6.646 0 0 0 4.739.012c.032.058.093.169.11.197.104.017.198.074.262.16.145.275.263.564.352.863.04.16.09.317.15.47.016.039.043.092.063.132a.516.516 0 1 0 .928-.439c-.02-.04-.046-.1-.067-.138a4.249 4.249 0 0 0-.275-.41 4.8 4.8 0 0 1-.455-.814.403.403 0 0 1 .04-.303 1.758 1.758 0 0 1-.086-.208 6.683 6.683 0 0 0 2.96-3.724c.066.01.182.03.22.039a.406.406 0 0 1 .287-.107 4.8 4.8 0 0 1 .896.263c.15.069.303.128.46.178.038.01.09.02.133.029.004 0 .007.002.01.003l.008.001a.518.518 0 0 0 .663-.375.517.517 0 0 0-.435-.626Zm-4.88-5.23-2.194 1.555-.008-.003a.454.454 0 0 1-.72-.346h-.002l-.153-2.69a5.336 5.336 0 0 1 3.077 1.483Zm-4.134 2.948h.826l.513.642-.184.8-.742.357-.744-.357-.184-.802.515-.64Zm-.777-4.338c.18-.041.364-.072.548-.094l-.153 2.693-.011.006a.452.452 0 0 1-.719.347l-.004.002-2.21-1.566a5.29 5.29 0 0 1 2.549-1.388Zm-3.35 2.395 2.018 1.803-.002.011a.453.453 0 0 1-.178.779l-.003.008-2.585.746a5.288 5.288 0 0 1 .75-3.348Zm2.701 4.791-1.027 2.483a5.318 5.318 0 0 1-2.134-2.671l2.65-.45.005.005a.45.45 0 0 1 .534.407.453.453 0 0 1-.036.217l.008.01Zm3.032 3.192a5.31 5.31 0 0 1-2.898-.148l1.304-2.358h.002a.454.454 0 0 1 .798 0h.01l1.306 2.36c-.17.057-.343.106-.522.146Zm1.684-.7-1.037-2.507.003-.004a.453.453 0 0 1 .497-.625l.004-.005 2.674.452a5.297 5.297 0 0 1-2.14 2.69Zm2.422-3.945-2.598-.748-.002-.01a.453.453 0 0 1-.178-.779l-.001-.005 2.006-1.795c.614.999.886 2.17.773 3.337Z" fill="#fff"/><circle cx="20.996" cy="6.996" r="4" fill="#FCFEFF"/><path d="M20.926 10.617c0 .12.098.218.219.218H24.795v-.002a2.878 2.878 0 0 0 .124-5.744.24.24 0 0 1-.215-.188 4.146 4.146 0 0 0-8.198.869.05.05 0 0 1-.041.05 2.534 2.534 0 0 0 .501 5.015h2.914c.121 0 .22-.098.22-.218V9.93a.23.23 0 0 0-.191-.223c-.456-.087-.846-.275-1.113-.544a1.495 1.495 0 0 1-.425-.889c-.016-.121.085-.22.207-.22l.487.002c.117 0 .21.094.237.208.112.478.545.793 1.186.796.25.001 1.181-.116 1.184-.76.002-.514-.675-.71-1.315-.868-.11-.027-.22-.054-.332-.084-.724-.192-1.49-.413-1.486-1.34.004-.9.762-1.364 1.56-1.459v-.863c0-.121.098-.219.219-.219h.388c.121 0 .219.098.219.219v.887c.576.093 1.351.384 1.482 1.271.019.122-.082.224-.206.224l-.49-.002c-.112 0-.202-.088-.236-.195-.127-.405-.525-.651-1.108-.654-.387-.002-.95.204-.952.674-.002.426.324.57 1.54.885l.162.041.065.016c.463.112 1.414.341 1.409 1.36-.004.805-.553 1.355-1.472 1.52a.23.23 0 0 0-.193.222v.682Z" fill="#01C9CC"/></svg>