<svg fill="none" xmlns="http://www.w3.org/2000/svg" viewBox="0 0 32 33"><path d="M19.923 24.662v-6.97l2.346 3.845 1.926-6.355v7.044" stroke="#4F5162" stroke-linecap="round" stroke-linejoin="round"/><path d="M27.464 10.319V22.98a1 1 0 0 1-.497.864l-10.99 6.395m11.487-19.921L16.602 3.857a1 1 0 0 0-1.018-.003L4.591 10.319m22.873 0L15.977 17.07m0 13.168L5.085 23.846a1 1 0 0 1-.494-.862V10.319m11.386 19.92V17.072M4.591 10.32l11.386 6.752" stroke="#4F5162" stroke-linejoin="round"/><path d="m8.725 16.235.962 7.373 2.802-5.273" stroke="#4F5162" stroke-linecap="round" stroke-linejoin="round"/></svg>