<svg viewBox="0 0 25 24" fill="currentColor" xmlns="http://www.w3.org/2000/svg"><path fill-rule="evenodd" clip-rule="evenodd" d="M10.52 2.991a1 1 0 0 1 1-1h2a1 1 0 0 1 1 1v1.241l.003.004c.004.005.011.01.022.013a7.953 7.953 0 0 1 2.019.837c.01.006.018.007.024.006h.005l.878-.879a1 1 0 0 1 1.414 0L20.3 5.627a1 1 0 0 1 0 1.415l-.879.878v.002l-.001.003c0 .006 0 .015.006.024.366.624.65 1.301.836 2.018.003.01.009.018.014.022a.015.015 0 0 0 .003.002h1.242a1 1 0 0 1 1 1v2a1 1 0 0 1-1 1h-1.242l-.003.003a.042.042 0 0 0-.014.022 7.954 7.954 0 0 1-.838 2.02.041.041 0 0 0-.006.025v.004l.878.878a1 1 0 0 1 0 1.414l-1.414 1.414a1 1 0 0 1-1.414 0l-.879-.878h-.001l-.003-.001c-.006 0-.015 0-.025.006-.622.365-1.3.648-2.015.835a.043.043 0 0 0-.022.013l-.003.004v1.241a1 1 0 0 1-1 1h-2a1 1 0 0 1-1-1V19.75l-.002-.004a.042.042 0 0 0-.022-.013 7.956 7.956 0 0 1-2.017-.837.041.041 0 0 0-.025-.006l-.004.001-.878.879a1 1 0 0 1-1.415 0l-1.414-1.415a1 1 0 0 1 0-1.414l.878-.878.001-.004c0-.006 0-.016-.006-.025a7.955 7.955 0 0 1-.837-2.018.042.042 0 0 0-.013-.022.012.012 0 0 0-.004-.003H3.521a1 1 0 0 1-1-1v-2a1 1 0 0 1 1-1h1.241l.004-.002a.042.042 0 0 0 .013-.022c.187-.717.47-1.394.836-2.018a.041.041 0 0 0 .006-.024V7.92l-.88-.879a1 1 0 0 1 0-1.414l1.415-1.414a1 1 0 0 1 1.414 0l.878.879h.005c.006.001.015 0 .025-.005a7.955 7.955 0 0 1 2.018-.837.042.042 0 0 0 .022-.014.015.015 0 0 0 .002-.004v-1.24Zm3 0h-2v1.241c0 .482-.337.872-.771.985a6.955 6.955 0 0 0-1.765.732c-.388.227-.902.19-1.243-.15l-.878-.879-1.414 1.414.879.88c.34.34.377.854.15 1.241a6.955 6.955 0 0 0-.731 1.764 1.024 1.024 0 0 1-.985.772H3.521v2h1.241c.482 0 .872.338.985.772.163.627.412 1.22.732 1.765.227.387.19.902-.15 1.242l-.879.878 1.415 1.414.878-.878c.34-.34.855-.377 1.242-.15.545.32 1.137.568 1.764.731.434.113.771.503.771.985v1.241h2V19.75c0-.482.338-.872.772-.985a6.958 6.958 0 0 0 1.763-.73c.387-.227.901-.19 1.242.15l.878.88 1.414-1.415-.877-.877a1.024 1.024 0 0 1-.15-1.243c.32-.546.569-1.14.733-1.767.113-.434.503-.772.984-.772h1.242v-2h-1.242c-.481 0-.871-.337-.984-.772a6.952 6.952 0 0 0-.732-1.764 1.024 1.024 0 0 1 .15-1.242l.88-.879-1.415-1.414-.878.879c-.34.34-.855.377-1.242.15a6.956 6.956 0 0 0-1.766-.732 1.024 1.024 0 0 1-.772-.985v-1.24ZM12.477 7.53c-2.487 0-4.5 2.008-4.5 4.48 0 2.472 2.013 4.48 4.5 4.48 2.488 0 4.501-2.008 4.501-4.48 0-2.472-2.013-4.48-4.5-4.48Zm-5.5 4.48c0-3.028 2.464-5.48 5.5-5.48 3.037 0 5.501 2.452 5.501 5.48 0 3.029-2.465 5.48-5.5 5.48-3.037 0-5.502-2.451-5.502-5.48Z" fill="#4F5162"/></svg>