<svg xmlns="http://www.w3.org/2000/svg" viewBox="0 0 24 24" fill="none">
<g clip-path="url(#clip0_25366_172465)">
<path fill-rule="evenodd" clip-rule="evenodd" d="M20.4714 11.565C20.4714 16.32 16.7027 20.175 12.0542 20.175C7.4057 20.175 3.6377 16.32 3.6377 11.565C3.6377 6.81002 7.4057 2.95502 12.0542 2.95502C16.7027 2.95502 20.4714 6.81002 20.4714 11.565Z" fill="#D9DAE6"/>
<path d="M3.97935 13.6972C3.97935 13.6972 3.37035 4.71899 11.6428 4.46249L11.0653 3.50024L6.57585 5.00024L5.30085 6.47549L4.17885 8.62424L3.5376 11.1255L3.73035 12.7927" fill="#F3F3FA"/>
<path d="M6.28898 5.69252C4.81148 7.20377 3.89798 9.29027 3.89798 11.598C3.89798 13.9058 4.81298 15.993 6.28898 17.5028C7.76498 19.0125 9.80273 19.9455 12.0542 19.9455C14.3057 19.9455 16.342 19.0133 17.8195 17.5028C19.297 15.9923 20.2105 13.905 20.2105 11.598C20.2105 9.29102 19.2955 7.20302 17.8195 5.69252C16.3435 4.18202 14.3057 3.24977 12.0542 3.24977C9.80273 3.24977 7.76648 4.18202 6.28898 5.69252V5.69252ZM5.91548 17.8688C4.34573 16.2638 3.37598 14.0453 3.37598 11.5988C3.37598 9.15227 4.34648 6.93377 5.91548 5.32877C7.48448 3.72377 9.65648 2.72777 12.0542 2.72852C14.452 2.72927 16.624 3.72377 18.193 5.32877C19.762 6.93377 20.7332 9.15227 20.7332 11.5988C20.7332 14.0453 19.7627 16.2638 18.193 17.8688C16.6232 19.4738 14.452 20.469 12.0542 20.469C9.65648 20.469 7.48448 19.4738 5.91548 17.8688" fill="#0A3364"/>
<path fill-rule="evenodd" clip-rule="evenodd" d="M15.5972 11.613L14.3222 11.8058L12.5897 11.9985L11.4677 12.0308L10.3772 11.9985L9.54318 11.742L8.80593 10.9395L8.22843 9.30454L8.10093 8.95204L7.33143 8.69554L6.88143 7.95829L6.55518 6.90004L6.90768 5.97004L7.74168 5.68129L8.41518 6.00229L8.73618 6.70729L9.12093 6.64279L9.24843 6.48229L9.12093 5.74504L9.08868 4.81504L9.28143 3.54004L9.27393 2.80729L9.85893 1.87279L10.8849 1.13554L12.6789 0.357788L14.6664 0.646538L16.3989 1.89679L17.2014 3.17179L17.7144 4.10179L17.8419 6.41029L17.4572 8.39779L16.7522 10.1603L16.0787 11.0903" fill="white"/>
<path fill-rule="evenodd" clip-rule="evenodd" d="M14.5066 17.16L9.92112 17.3528V18.1223L10.3059 20.8148L10.1131 21.0398L6.90762 19.95L6.68262 19.5653L6.36162 15.9428L5.62437 13.7625L5.46387 13.2495L8.02887 11.487L8.83137 11.166L9.53637 12.0315L10.1454 12.5768L10.8504 12.8018L11.1706 12.8978L11.5554 14.565L11.8441 14.9175L12.5814 14.661L12.0684 15.6548L14.8584 16.9695L14.5059 17.1623" fill="white"/>
<path fill-rule="evenodd" clip-rule="evenodd" d="M6.90755 5.97003L7.74155 5.68128L8.41505 6.00228L8.73605 6.70728L9.1208 6.64278L9.2168 6.25803L9.02405 5.52078L9.2168 3.75678L9.0563 2.79453L9.6338 2.12103L10.884 1.12728L10.5315 0.647278L8.76755 1.51278L8.0303 2.09028L7.6133 2.98803L6.97205 3.85353L6.7793 4.87953L6.9068 5.97003" fill="#D9DAE6"/>
<path fill-rule="evenodd" clip-rule="evenodd" d="M8.22151 2.95505C8.22151 2.95505 8.70151 1.76855 10.6268 1.19255C12.552 0.61655 10.7228 0.77555 10.7228 0.77555L8.63776 1.57805L7.83526 2.38055L7.48276 3.0218L8.22001 2.9573L8.22151 2.95505ZM7.26001 5.74505C7.26001 5.74505 6.58651 3.5003 9.15226 3.18005L9.05626 2.7953L7.29376 3.2123L6.78076 4.87955L6.90826 5.97005L7.26076 5.74505" fill="#DCD9D8"/>
<path fill-rule="evenodd" clip-rule="evenodd" d="M8.28613 8.72706L8.70613 8.32056C8.71034 8.38043 8.73438 8.43719 8.77444 8.48188C8.81451 8.52656 8.86832 8.55663 8.92738 8.56731C8.95963 8.79231 9.05488 10.8121 10.4274 11.9026C10.5534 12.0023 9.40138 11.7421 9.40138 11.7421L8.37538 10.1386L8.28613 8.72706ZM14.1789 8.11731C14.1789 8.11731 14.2539 7.14531 14.5164 7.22031C14.7789 7.29531 14.7789 7.55781 14.7789 7.55781C14.7789 7.55781 14.1429 7.96881 14.1804 8.11881" fill="white"/>
<path d="M16.848 4.55774C16.848 4.55774 16.3193 4.67024 16.2705 5.13524C16.2218 5.60024 16.848 5.23124 16.944 5.19974L16.848 4.55774ZM12.975 4.58999C12.975 4.58999 12.27 4.68599 12.27 5.13524C12.27 5.58449 13.0725 5.55224 13.296 5.36024" fill="white"/>
<path fill-rule="evenodd" clip-rule="evenodd" d="M8.60619 6.67505C8.60619 6.67505 7.38744 5.93705 7.25994 6.6428C7.13244 7.34855 6.84294 7.86155 7.45269 8.5988L7.03569 8.4713L6.65094 7.47755L6.52344 6.5153L7.26069 5.7458L8.09469 5.8103L8.57469 6.19505L8.60694 6.67505H8.60619ZM9.18444 4.65455C9.18444 4.65455 9.72969 1.83305 12.4874 1.27955C14.7577 0.831048 15.9502 1.37555 16.3994 1.88855C16.3994 1.88855 14.3789 -0.515952 12.4544 0.221298C10.5299 0.958548 9.11994 2.3213 9.14994 3.17855L9.18219 4.6538L9.18444 4.65455ZM16.6222 2.2163C16.6222 2.2163 15.6922 2.18405 15.6599 3.0188C15.6633 3.10778 15.685 3.19512 15.7237 3.2753C15.7237 3.2753 16.4617 2.4413 16.9102 2.89055L16.6222 2.2163ZM12.5504 3.36155C12.5504 3.36155 12.3907 2.08205 11.2994 2.82605C10.5944 3.30605 10.6582 3.98105 10.7864 4.10105C10.9147 4.22105 10.8802 4.4873 10.9777 4.31105C11.0752 4.1348 11.0429 3.55655 11.3962 3.39605C11.7494 3.23555 12.3262 3.0563 12.5512 3.3548" fill="#F3F3FA"/>
<path fill-rule="evenodd" clip-rule="evenodd" d="M9.53611 12.0301L6.52111 13.3771C6.52111 13.3771 7.77136 18.3473 7.13011 19.8871L6.68011 19.7266L6.64786 17.8343L5.81686 14.2501L5.46436 13.2563L8.61436 11.1398L9.54436 12.0376L9.53611 12.0301ZM9.84736 14.7788L10.2749 15.3008V17.2246H9.76186L9.69811 15.7246C9.69811 15.5641 9.76186 14.9873 9.76186 14.9873L9.84736 14.7788ZM9.85711 17.5126L8.41411 17.5763L8.83111 17.8651L9.85711 18.0256" fill="#D9DAE6"/>
<path fill-rule="evenodd" clip-rule="evenodd" d="M14.7949 17.1923L15.9814 17.16L16.2702 20.1105L15.0514 20.271L14.7949 17.193" fill="white"/>
<path fill-rule="evenodd" clip-rule="evenodd" d="M15.116 17.1923L16.9115 17.0963L17.6487 15.1403C17.6487 15.0443 18.29 12.4478 18.29 12.4478L16.847 10.9403L16.5582 10.6838L15.7887 11.4533V14.4353L15.1152 17.193" fill="white"/>
<path fill-rule="evenodd" clip-rule="evenodd" d="M15.9179 16.968L14.7959 17.193L14.9564 18.0908C15.3734 18.2835 16.0784 17.7698 16.0784 17.7698L15.9179 16.968ZM15.9494 11.3573L18.1941 13.0245L18.2586 12.255L16.5591 10.6838L15.9501 11.3573" fill="#D9DAE6"/>
<path fill-rule="evenodd" clip-rule="evenodd" d="M10.9699 23.5095L10.3061 20.8155L9.97614 18.828L9.92139 17.3527L12.9259 17.193H14.7956L14.6254 20.568L14.9141 23.1652L14.8819 23.6452L12.4444 23.838L10.9691 23.517" fill="white"/>
<path fill-rule="evenodd" clip-rule="evenodd" d="M14.3772 17.16C14.3772 17.16 14.2167 20.4953 14.6982 22.86C14.6982 22.86 13.7359 23.469 12.3252 23.6295L15.0177 23.5335L15.3387 23.3408L14.9539 18.0818L14.8579 16.959" fill="#DCD9D8"/>
<path fill-rule="evenodd" clip-rule="evenodd" d="M16.3249 19.854L17.5752 19.5015L19.9482 19.374L20.3007 18.2835L19.6594 16.3913L18.9222 16.2953L17.8962 16.6163L16.9114 17.0963L16.3887 17.0003L15.9814 17.16" fill="white"/>
<path fill-rule="evenodd" clip-rule="evenodd" d="M16.3027 19.2121C16.3027 19.2121 17.1367 18.8273 17.265 18.8596L16.9125 17.0956L17.3295 16.9351L17.6182 18.7951L19.5742 18.8911C19.5742 18.8911 19.959 18.1538 19.863 17.3911L20.2155 18.4171L20.2477 18.9946L19.7347 19.7641L19.1572 19.8916L18.195 19.8593L17.874 19.4423L16.752 19.6028L16.3995 19.7303" fill="#DCD9D8"/>
<path d="M15.0419 16.935L14.3369 15.1395L13.5996 14.082C13.5996 14.082 13.7601 13.632 13.9844 13.632H14.7216L15.4266 13.8885L15.3629 15.075L15.0419 16.935Z" fill="white"/>
<path fill-rule="evenodd" clip-rule="evenodd" d="M15.1802 16.3275C15.1802 16.3275 14.2824 14.595 14.2824 14.34C14.2824 14.34 14.4429 13.9552 14.6672 14.0512C14.8914 14.1472 15.3722 14.4037 15.3722 14.4037V13.7947L14.2817 13.5697L13.5444 13.6657L14.7947 16.6162L15.0512 16.6485" fill="#DCD9D8"/>
<path d="M11.2576 12.0937L10.3696 11.9962L9.53564 11.7397V12.0285L9.94289 12.4785L11.2179 13.056" fill="white"/>
<path fill-rule="evenodd" clip-rule="evenodd" d="M9.825 12.1906C9.825 12.1906 10.8188 12.6076 11.1398 12.5116L11.172 12.8963L10.2743 12.7043L9.729 12.3196L9.825 12.1921" fill="#DCD9D8"/>
<path fill-rule="evenodd" clip-rule="evenodd" d="M16.3213 13.7423C15.7776 13.7273 15.2863 13.662 14.8551 13.5398C14.8851 13.3635 14.8296 13.1903 14.8738 13.0628C14.9938 12.9765 15.1948 12.978 15.3763 12.9578C15.2188 12.8805 14.9991 12.8505 14.8183 12.8948C14.8138 12.7725 14.7583 12.6968 14.7261 12.6008C15.0321 12.4913 15.7536 11.7758 16.1601 12.0128C16.3536 12.1253 16.4361 12.7703 16.4511 13.0823C16.4638 13.3418 16.4286 13.6043 16.3213 13.7423" fill="#FAFBFC"/>
<path d="M16.3213 13.7423C15.7776 13.7273 15.2863 13.662 14.8551 13.5398C14.8851 13.3635 14.8296 13.1903 14.8738 13.0628C14.9938 12.9765 15.1948 12.978 15.3763 12.9578C15.2188 12.8805 14.9991 12.8505 14.8183 12.8948C14.8138 12.7725 14.7583 12.6968 14.7261 12.6008C15.0321 12.4913 15.7536 11.7758 16.1601 12.0128C16.3536 12.1253 16.4361 12.7703 16.4511 13.0823C16.4638 13.3418 16.4286 13.6043 16.3213 13.7423V13.7423Z" stroke="#D9DAE6" stroke-width="0.514"/>
<path fill-rule="evenodd" clip-rule="evenodd" d="M13.7197 12.8528L13.7152 12.9773C13.545 13.0898 13.2712 13.0875 13.0852 13.1813C13.3597 13.1933 13.5765 13.2593 13.764 13.3538L13.752 13.665C13.4407 13.878 13.1565 14.196 12.7897 14.3955C12.6172 14.49 12.0082 14.733 11.8237 14.6903C11.7187 14.6663 11.7097 14.5365 11.6685 14.4143C11.58 14.1518 11.376 13.737 11.3572 13.3433C11.3347 12.846 11.2845 12.0135 11.82 12.1155C12.2628 12.2094 12.6901 12.3658 13.089 12.5798C13.2937 12.6923 13.4115 12.8295 13.722 12.8535" fill="#D9DAE6"/>
<path d="M13.7197 12.8528L13.7152 12.9773C13.545 13.0898 13.2712 13.0875 13.0852 13.1813C13.3597 13.1933 13.5765 13.2593 13.764 13.3538L13.752 13.665C13.4407 13.878 13.1565 14.196 12.7897 14.3955C12.6172 14.49 12.0082 14.733 11.8237 14.6903C11.7187 14.6663 11.7097 14.5365 11.6685 14.4143C11.58 14.1518 11.376 13.737 11.3572 13.3433C11.3347 12.846 11.2845 12.0135 11.82 12.1155C12.2628 12.2094 12.6901 12.3658 13.089 12.5798C13.2937 12.6923 13.4115 12.8295 13.722 12.8535L13.7197 12.8528Z" stroke="#FAFBFC" stroke-width="0.514"/>
<path fill-rule="evenodd" clip-rule="evenodd" d="M14.0287 13.446C13.9815 13.176 13.926 13.098 13.9477 12.861C14.67 12.3795 14.805 13.6875 14.0287 13.446Z" fill="#FAFBFC"/>
<path d="M14.0287 13.446C13.9815 13.176 13.926 13.098 13.9477 12.861C14.67 12.3795 14.805 13.6875 14.0287 13.446Z" stroke="#FAFBFC" stroke-width="0.514"/>
<path fill-rule="evenodd" clip-rule="evenodd" d="M15.075 13.665C15.075 13.665 14.85 13.344 15.0105 13.248C15.171 13.152 15.3315 13.248 15.4275 13.0875C15.5235 12.927 15.4275 12.831 15.4598 12.6375C15.492 12.444 15.6525 12.4125 15.8123 12.381C15.972 12.3495 16.4213 12.285 16.4858 12.4455L16.293 11.868L15.9083 11.7405L14.6895 12.4455L14.625 12.798V13.503L15.075 13.665ZM11.7 14.7225L11.5755 13.2225C11.5005 12.4763 11.7555 12.606 12.402 12.606C12.501 12.606 13.002 12.7238 13.047 12.7988C13.2218 13.1558 12.747 13.0763 13.2495 13.3463C13.6665 13.5735 14.403 13.2083 14.2343 12.7028C14.1398 12.5903 13.743 12.6675 13.6005 12.594L12.849 12.204C12.5303 12.039 11.7938 11.7975 11.454 12.0285C10.593 12.6135 11.508 14.0775 11.8155 14.688" fill="#F3F3FA"/>
<path fill-rule="evenodd" clip-rule="evenodd" d="M12.5513 3.36221C11.6776 3.15971 11.2433 3.72821 10.9778 4.31846C10.7416 4.26146 10.8278 3.93971 10.9028 3.77546C11.0528 3.34496 11.6903 2.77271 12.2048 2.84996C12.4268 2.88371 12.7268 3.08621 12.5588 3.36221H12.5513ZM16.8098 4.34996L16.8511 4.35146C17.0483 4.76171 17.2261 5.19671 17.4683 5.55146C17.3011 5.93996 16.2046 6.28421 16.2211 5.58596C16.4581 5.48246 16.8676 5.56496 17.0783 5.43221C16.9568 5.09846 16.7813 4.81421 16.8083 4.34246L16.8098 4.34996ZM12.9983 4.36796C13.1858 4.71146 13.2458 5.07296 13.5128 5.33171C13.6328 5.44871 13.8653 5.59121 13.7506 5.91671C13.6687 6.04205 13.5511 6.14 13.4131 6.19796C12.9968 6.32096 12.0256 6.22346 12.3631 5.70446C12.7081 5.71946 13.1701 5.92796 13.4281 5.67821C13.2301 5.36321 12.8783 4.73696 13.0081 4.36871L12.9983 4.36796ZM16.6606 7.85996C16.0336 8.26271 15.3346 8.69996 14.3071 8.59946C14.0873 8.40896 14.0041 7.98446 14.2171 7.70321C14.3281 7.89371 14.2583 8.24546 14.5681 8.29796C15.1508 8.39771 15.8296 7.94171 16.2481 7.78196C16.5083 7.34321 16.2256 7.18196 15.9916 6.89996C15.5116 6.32246 14.8688 5.60546 14.8921 4.73996C15.0856 4.59971 15.1021 4.95446 15.1306 5.01896C15.3811 5.60396 16.0111 6.35396 16.4708 6.85646C16.5833 6.98021 16.7708 7.09871 16.7903 7.18046C16.8503 7.41821 16.6351 7.70246 16.6598 7.86071L16.6606 7.85996ZM8.38731 7.43546C8.19081 7.32296 8.14431 6.82946 7.91331 6.81521C7.58331 6.79496 7.64331 7.45646 7.64481 7.84271C7.41756 7.63646 7.37781 7.00271 7.54431 6.67646C7.35456 6.58346 7.26906 6.77921 7.16406 6.84896C7.29906 5.86496 8.60406 6.39896 8.38656 7.43621L8.38731 7.43546ZM17.0528 8.26121C16.7528 8.81621 16.3478 9.42821 15.4913 9.44621C15.4741 9.26621 15.4613 8.99396 15.4921 8.88596C16.1468 8.82296 16.5518 8.48996 17.0528 8.26121ZM12.9496 8.62121C13.4956 8.90846 14.4998 8.93921 15.2423 8.91746C15.2821 9.08021 15.2813 9.28121 15.2828 9.47996C14.3281 9.52721 13.2001 9.29246 12.9578 8.62121H12.9496ZM12.8528 9.15671C13.2308 10.1055 14.5291 9.99671 15.6241 9.96971C15.5761 10.0927 15.4711 10.2382 15.3413 10.2907C14.9903 10.4407 14.0228 10.542 13.5361 10.2832C13.2271 10.1182 13.0291 9.74771 12.8596 9.53021C12.7846 9.42521 12.3706 9.15671 12.8536 9.15521" fill="#0A3364"/>
<path fill-rule="evenodd" clip-rule="evenodd" d="M16.6079 14.397L15.2144 16.6058C15.4349 15.9578 15.5294 14.8733 15.5624 14.0453C16.0236 13.8293 16.4189 14.094 16.6079 14.3978" fill="white"/>
<path fill-rule="evenodd" clip-rule="evenodd" d="M18.9931 17.1255C18.4966 17.2245 18.1478 17.7075 17.6641 17.676C17.9303 17.301 18.3961 17.151 18.9931 17.1255V17.1255ZM19.2121 17.9025C18.8071 17.9452 18.3323 18.0105 17.9221 17.9775C18.1171 17.6805 18.8648 17.7825 19.2121 17.9025ZM19.3523 18.5715C18.8978 18.5812 18.3323 18.5722 17.9003 18.5362C18.1553 18.2617 19.0576 18.4342 19.3523 18.5715Z" fill="#231F20"/>
<path fill-rule="evenodd" clip-rule="evenodd" d="M15.7522 20.4045C15.8175 20.9745 16.0447 21.5542 16.0147 22.179C15.7635 22.2637 15.6187 22.338 15.282 22.3365L15.2085 20.4862C15.3735 20.4975 15.6187 20.3677 15.7515 20.4112" fill="#DCD9D8"/>
<path fill-rule="evenodd" clip-rule="evenodd" d="M15.0195 11.9895C14.7915 12.1395 14.5965 12.3248 14.3775 12.4845C13.8915 12.5085 13.626 12.4508 13.269 12.1718C13.275 12.1493 13.311 12.159 13.3118 12.132C13.8323 12.3645 14.4938 12.0375 15.0195 11.9895" fill="#F0D6B7"/>
<path fill-rule="evenodd" clip-rule="evenodd" d="M12.2871 15.537C12.4296 14.9175 12.9906 14.5965 13.4991 14.2545C14.0241 14.922 14.3436 15.777 14.6954 16.605C13.8644 16.3545 13.0154 15.948 12.2879 15.5363" fill="white"/>
<path fill-rule="evenodd" clip-rule="evenodd" d="M15.2099 20.487C15.1889 20.9932 15.2594 21.807 15.2834 22.3372C15.6209 22.338 15.7649 22.2637 16.0162 22.1797C16.0447 21.5542 15.8182 20.976 15.7537 20.4052C15.6209 20.37 15.3764 20.499 15.2107 20.4802L15.2099 20.487ZM9.96592 17.607C10.1879 19.6485 10.5097 21.357 11.0999 23.172C12.4094 23.5695 13.9874 23.604 15.1454 23.2455C14.9332 22.2255 15.0254 20.9827 14.9017 19.893L14.7277 17.4157C13.3252 17.1232 11.3429 17.3482 9.96667 17.6047L9.96592 17.607ZM15.0659 17.4307C15.0539 18.3082 15.1049 19.1722 15.1724 20.0505L16.0499 19.8975C15.9487 19.0522 15.9599 18.1012 15.7537 17.3535C15.5137 17.3557 15.3044 17.3505 15.0659 17.4307ZM16.7737 17.2897C16.6139 17.2522 16.4287 17.2882 16.2749 17.2912L16.5749 19.545C16.8149 19.5525 16.9424 19.44 17.1412 19.401C17.1517 18.7425 17.0834 17.835 16.7662 17.2897H16.7737ZM19.3597 19.6522C19.8607 19.5307 20.1749 18.9172 20.0347 18.2872C19.9409 17.8642 19.7737 17.067 19.5944 16.7962C19.4624 16.596 19.1032 16.3335 18.8167 16.5172C18.3502 16.8157 17.5289 16.9027 17.1892 17.2635C17.3594 17.8312 17.4127 18.6105 17.4832 19.3297C18.0659 19.3657 18.7822 19.1692 19.2667 19.3777C18.9292 19.4872 18.4897 19.488 18.1979 19.6477C18.4364 19.7632 18.9959 19.74 19.3604 19.6515L19.3597 19.6522ZM14.7037 16.6072C14.3512 15.78 14.0324 14.9227 13.5074 14.2567C12.9989 14.598 12.4387 14.919 12.2954 15.5392C13.0229 15.9517 13.8727 16.3567 14.7029 16.608L14.7037 16.6072ZM15.5707 14.046C15.5377 14.8732 15.4432 15.9585 15.2227 16.6065C15.7477 15.9367 16.1729 15.1567 16.6162 14.3977C16.4272 14.0947 16.0312 13.8307 15.5707 14.046ZM14.5957 13.6965C14.3962 13.674 14.2282 13.9252 13.9679 13.8165L13.7939 14.0175C14.3662 14.7075 14.6189 15.6855 15.0689 16.4955C15.3059 15.717 15.2789 14.8642 15.3314 14.0145C15.0059 14.0355 14.8252 13.7197 14.5964 13.6957L14.5957 13.6965ZM13.9634 12.8625C13.9424 13.0987 13.9972 13.176 14.0444 13.4475C14.8207 13.6905 14.6849 12.3825 13.9634 12.8625ZM13.1024 12.5797C12.7035 12.3657 12.2762 12.2094 11.8334 12.1155C11.2979 12.0127 11.3482 12.846 11.3707 13.3432C11.3887 13.737 11.5934 14.1532 11.6819 14.4142C11.7239 14.5365 11.7329 14.6655 11.8372 14.6902C12.0217 14.733 12.6299 14.49 12.8032 14.3955C13.1707 14.1952 13.4542 13.8705 13.7654 13.665L13.7774 13.3537C13.5899 13.2607 13.3739 13.194 13.0987 13.1812C13.2862 13.0875 13.5592 13.089 13.7287 12.9772L13.7332 12.8527C13.4227 12.8287 13.3057 12.6907 13.1002 12.579L13.1024 12.5797ZM9.90742 11.9992C9.62992 12.2812 10.6859 12.6652 11.0227 12.6862C11.0204 12.5077 11.1247 12.3397 11.1037 12.2115C10.7039 12.141 10.1782 12.1875 9.90742 11.9992ZM13.3274 12.1312C13.3259 12.159 13.2899 12.1485 13.2847 12.171C13.6417 12.45 13.9072 12.5085 14.3932 12.4837L15.0352 11.9887C14.5102 12.036 13.8479 12.3622 13.3274 12.1312ZM16.4669 13.0837C16.4519 12.7702 16.3694 12.1267 16.1759 12.0142C15.7694 11.7772 15.0472 12.4927 14.7419 12.6022C14.7749 12.6982 14.8304 12.7747 14.8342 12.8962C15.0142 12.8512 15.2354 12.8812 15.3922 12.9592C15.2107 12.9795 15.0172 12.978 14.8897 13.0642C14.8447 13.1917 14.9002 13.3642 14.8709 13.5412C15.3014 13.6627 15.7934 13.7272 16.3372 13.7437C16.4422 13.6065 16.4797 13.344 16.4669 13.0837ZM9.43942 12.2722C9.35242 12.21 8.76217 11.4427 8.68942 11.4742C7.62217 11.8942 6.62467 12.6217 5.73292 13.3117C6.58342 15.1357 6.92542 17.3715 6.98692 19.5255C7.96192 19.9807 8.81692 20.6377 10.1369 20.706L9.75742 17.64C9.42517 17.4997 8.94892 17.646 8.63842 17.5965C8.63542 17.2215 9.11317 17.4315 9.15292 17.181C9.18292 16.9905 8.89042 16.9762 8.98567 16.6762C9.22867 16.7647 9.35617 16.9597 9.61567 17.0325C9.85267 16.515 9.61267 15.5985 9.64567 15.1575C9.65317 15.0765 9.68617 14.7075 9.86842 14.772C10.0297 14.829 9.85942 15.7545 9.87592 16.1632C9.89092 16.5405 9.83092 16.9132 9.98317 17.1427C11.2604 16.9687 12.5579 16.8562 13.9394 16.8187C13.6357 16.6882 13.2742 16.5637 12.8782 16.3417C12.6637 16.2217 11.9872 15.969 11.9257 15.7642C11.8267 15.4395 12.1852 15.2662 12.2459 14.988C11.6009 15.3405 11.4757 14.6505 11.3234 14.163C11.1854 13.7205 11.1059 13.3905 11.0729 13.1355C10.5179 12.8707 9.92392 12.6105 9.44542 12.2632L9.43942 12.2722ZM15.9022 11.5672C16.7917 11.136 16.9522 13.1797 16.6034 13.8367C16.6574 14.0332 16.8434 14.1082 16.9184 14.2845L15.3659 16.8817C15.7424 16.647 16.2809 16.8397 16.7159 16.6567C16.8779 16.593 16.9949 16.2217 17.1179 15.9255C17.4554 15.1095 17.8094 14.0805 17.9669 13.3005C18.0022 13.1227 18.0997 12.7365 18.0779 12.5782C18.0389 12.2955 17.6557 12.0855 17.4599 11.9032L16.4999 10.9942C16.3477 11.2192 16.0214 11.3692 15.8969 11.5522L15.9022 11.5672ZM7.39117 3.68099C6.96742 4.14749 7.05592 5.02049 7.10767 5.64224C7.87267 5.16074 8.88967 5.67974 8.88067 6.49949C9.24667 6.48974 9.01717 6.04199 8.95117 5.75474C8.73517 4.81424 9.31567 3.79274 8.97742 2.93249C8.32117 2.98199 7.78192 3.25049 7.39117 3.68099ZM10.4227 0.974989C9.46267 1.24649 8.23417 1.94399 7.84042 2.80499C8.14567 2.75999 8.35792 2.60699 8.65792 2.57999C8.77192 2.57249 8.92042 2.62799 9.05167 2.59499C9.31192 2.53049 9.53167 1.94624 9.72892 1.72874C9.92092 1.51649 10.1512 1.42574 10.3087 1.23224C10.4099 1.18349 10.5599 1.18724 10.5652 1.03499C10.5202 0.987739 10.4752 0.959989 10.4152 0.959989L10.4227 0.974989ZM15.4154 1.22999C14.4202 0.669739 12.7349 0.247489 11.6759 0.774739C10.8209 1.20074 9.66592 1.90574 9.27217 2.79974C9.63967 3.66224 9.16342 4.45199 9.13267 5.32724C9.11617 5.79224 9.35167 6.19949 9.36967 6.70724C9.24367 6.91499 8.85967 6.93974 8.59267 6.92624C8.50267 6.47774 8.34517 5.97374 7.88467 5.92274C7.23217 5.85149 6.75367 6.39224 6.72367 6.95774C6.68842 7.62224 7.23367 8.72399 8.00767 8.64749C8.30617 8.61749 8.37967 8.31749 8.70517 8.32124C8.88142 8.67374 8.43292 8.78399 8.38717 9.03524C8.37517 9.10049 8.42467 9.35474 8.45317 9.47399C8.59342 10.0545 8.90692 10.8052 9.21517 11.247C9.60667 11.8072 10.3747 11.892 11.2027 11.9467C11.3504 11.6287 11.8942 11.6542 12.2489 11.7382C11.8244 11.5702 11.4292 11.1622 11.1014 10.8007C10.7264 10.3867 10.3439 9.94199 10.3252 9.40049C11.0354 10.386 11.6227 11.247 12.9142 11.6805C13.8914 12.0082 15.0337 11.5305 15.7844 11.0025C16.0964 10.7835 16.2824 10.4355 16.5044 10.1175C17.3332 8.91749 17.7194 7.22249 17.6354 5.57249C17.6002 4.89224 17.6017 4.21499 17.3729 3.75749C17.1344 3.27899 16.3274 2.84999 15.8549 3.28349C15.7672 2.81849 16.2479 2.53049 16.8119 2.69849C16.4099 2.17949 15.9869 1.55549 15.4154 1.23299V1.22999ZM17.2702 16.5802C18.0479 16.1932 19.5014 15.5392 19.9897 16.5817C20.1697 16.9657 20.3812 17.6152 20.4742 18.012C20.6062 18.5715 20.3242 19.7475 19.7564 19.9357C19.2487 20.1007 18.6554 20.0917 18.0434 19.9687C17.9714 19.9087 17.8912 19.8037 17.8349 19.6957C17.3977 19.6785 16.9889 19.7182 16.6439 19.8982C16.6769 20.2207 16.4579 20.2732 16.2539 20.3407C16.1017 20.943 16.5577 21.7297 16.4489 22.2787C16.3709 22.6702 15.8894 22.7302 15.5362 22.8037C15.5249 23.0287 15.5512 23.2027 15.5759 23.3865C15.4949 23.6842 15.1319 23.8545 14.7884 23.8965C13.6574 24.0315 11.9399 24.0937 10.8509 23.7015C10.5472 22.9567 10.3079 22.0515 10.0559 21.2002C8.99467 21.3127 8.13592 20.7427 7.32742 20.3677C7.04692 20.238 6.65242 20.1652 6.55492 19.9432C6.45367 19.7272 6.49492 19.3132 6.47017 18.9232C6.40642 17.9257 6.35017 16.962 6.09517 15.9397C5.97667 15.4807 5.77042 15.0772 5.62642 14.6347C5.49367 14.2252 5.26117 13.7197 5.20042 13.3102C5.11042 12.705 5.68042 12.6712 6.04492 12.4087C6.60742 12.0037 7.04992 11.7787 7.66117 11.4127C7.84117 11.304 8.38717 11.0377 8.44867 10.9027C8.57167 10.6522 8.23717 10.299 8.14867 10.1025C8.00617 9.79199 7.93342 9.52799 7.91317 9.22124C7.40092 9.14024 7.01317 8.83574 6.77842 8.49224C6.39067 7.92374 6.12142 6.87224 6.45742 6.07199C6.48367 6.00899 6.60742 5.88449 6.63442 5.78849C6.67192 5.59799 6.56242 5.34449 6.55567 5.14199C6.52042 4.10174 6.73192 3.20699 7.43167 2.89199C7.71667 1.76699 8.73292 1.38449 9.69142 0.820489C10.0499 0.610489 10.4444 0.475489 10.8524 0.325489C12.3149 -0.213011 14.5604 -0.111761 15.7747 0.806989C16.2892 1.19699 17.1127 2.01824 17.4067 2.61449C18.1844 4.18574 18.1289 6.81224 17.5852 8.72399C17.5124 8.98049 17.4052 9.35774 17.2582 9.66599C17.1547 9.88124 16.8344 10.311 16.8734 10.5022C16.9132 10.6987 17.6047 11.2237 17.7532 11.367C18.0202 11.6242 18.5272 11.967 18.5684 12.291C18.6134 12.636 18.4162 13.11 18.3164 13.4437L17.2814 16.5787" fill="#0A3364"/>
<path fill-rule="evenodd" clip-rule="evenodd" d="M12.0802 8.87247C12.1222 8.81622 12.3547 8.72998 12.6802 8.88748C12.6802 8.88748 12.2955 8.95197 12.3277 9.59247L12.1672 9.56022C12.1672 9.56022 12.0022 8.97823 12.0817 8.87173" fill="white"/>
<path fill-rule="evenodd" clip-rule="evenodd" d="M14.8921 14.3865C14.8921 14.484 14.8133 14.5627 14.7158 14.5627C14.6183 14.5627 14.5396 14.484 14.5396 14.3865C14.5396 14.289 14.6183 14.2102 14.7158 14.2102C14.8133 14.2102 14.8921 14.289 14.8921 14.3865ZM15.0676 15.2115C15.0676 15.309 14.9888 15.3877 14.8913 15.3877C14.7938 15.3877 14.7151 15.309 14.7151 15.2115C14.7151 15.114 14.7938 15.0352 14.8913 15.0352C14.9888 15.0352 15.0676 15.114 15.0676 15.2115Z" fill="#1D1919"/>
</g>
<defs>
<clipPath id="clip0_25366_172465">
<rect width="24" height="24" fill="white"/>
</clipPath>
</defs>
</svg>