<svg fill="none" viewBox="0 0 24 24" xmlns="http://www.w3.org/2000/svg"><rect fill="#5aa200" height="24" width="24"/><path d="m16.4957 10.7783h-2.4509l2.1899 2.9296-2.7808 3.5213h2.423l1.4869-1.9842 1.4756 1.9842h2.5561z" fill="#fff"/><path d="m22.5991 8.6626h-2.3896l-1.6161 1.9726v2.8625z" fill="#000"/><g fill="#fff"><path d="m5.27324 16.3089c-.61143 0-1.22285-.1129-1.83428-.3386-.60187-.2352-1.13687-.5691-1.60499-1.0018l1.16075-1.4011c.33438.301.70696.5409 1.11777.7196.42035.1787.83115.2681 1.2324.2681.46812 0 .81682-.0847 1.04611-.254.23884-.1787.35825-.4233.35825-.7337 0-.2069-.08598-.3015-.20062-.4332s-.27705-.2445-.48723-.3386c-.20062-.1035-.43946-.2117-.71651-.3245l-1.2324-.5221c-.32482-.1317-.63054-.3057-.91714-.5221-.28661-.2163-.52067-.4844-.70218-.8042-.18152-.3292-.27228-.71489-.27228-1.157 0-.50795.13853-.96416.41558-1.36864.2866-.40448.67352-.72429 1.16075-.95946.49678-.24456 1.06044-.36685 1.69097-.36685.54455 0 1.07477.10347 1.59066.31042.52544.20694.98401.49854 1.37571.8748l-1.0074 1.30115c-.29616-.23516-.60059-.41636-.91586-.54805-.31526-.1317-.62112-.2158-1.00326-.2158s-.61812.05589-.85695.2158c-.22929.15991-.34393.35778-.34393.64938 0 .19753.0621.36215.18629.49384.1242.13169.29616.24931.51589.35271.22929.0941.42938.1641.69687.2769l1.20375.5076c.38214.1506.71173.3387.98878.5644.27706.2258.49201.4986.64487.8184.16241.3104.17755.682.17755 1.1147 0 .5079-.13853.9782-.41558 1.4109-.2675.4233-.66397.7667-1.18941 1.03-.51589.254-1.13687.381-1.86293.381z"/><path d="m15.2052 6.90336v1.76405h-3.7084v2.11239h1.7473l1.2516 1.7867h-2.9989v3.6287l-2.17139.0001-.00004-9.29183z"/></g></svg>