<svg enable-background="new 0 0 12 14" viewBox="0 0 23 25" xmlns="http://www.w3.org/2000/svg"><path d="M10.484.857A12.047 12.047 0 0 0 1.847 6.35 14.364 14.364 0 0 0 .824 8.356a11.439 11.439 0 0 0-.748 2.938c-.101.777-.101 2.2 0 2.978a11.52 11.52 0 0 0 1.21 3.95 11.377 11.377 0 0 0 2.256 3.09c1.893 1.882 4.297 3.053 6.97 3.396.778.102 2.202.102 2.979 0a12.021 12.021 0 0 0 8.666-5.493 12.809 12.809 0 0 0 1.485-3.407c.264-1.027.358-1.829.358-3.025 0-.72-.018-1.066-.072-1.49a11.52 11.52 0 0 0-1.21-3.949 11.38 11.38 0 0 0-2.256-3.09c-1.894-1.882-4.297-3.053-6.971-3.397-.745-.097-2.284-.097-3.007 0Zm2.147 2.552c.27.021.336.036.408.108a.288.288 0 0 1 .083.17c0 .069.054.112.307.242.813.408 1.38 1.283 1.49 2.284.017.177.032.206.104.224.112.029.21.18.188.293-.014.072.018.123.191.27.12.102.214.203.214.221 0 .018-.058.033-.13.033h-.13l.252.267c.308.333.662.842.825 1.193.162.354.289.856.379 1.518l.08.545.242.452c.61 1.135.94 2.013.94 2.508-.004.52-.257 1.102-.655 1.5-.235.235-.25.256-.25.415 0 .441-.241 2.255-.32 2.4-.019.029-.07-.018-.16-.145l-.134-.191v.235c0 .502-.159 1.785-.249 2.027-.022.065-.029.065-.148-.022-.116-.087-.127-.087-.152-.029-.014.036-.076.387-.137.785-.065.393-.145.787-.185.874-.1.239-.375.495-.632.593a1.154 1.154 0 0 1-1.399-.524c-.04-.08-.159-.47-.264-.868-.159-.625-.195-.722-.252-.719a9.013 9.013 0 0 0-.39.065 2.773 2.773 0 0 1-1.092 0 9.04 9.04 0 0 0-.39-.065c-.062-.003-.094.083-.243.665-.227.871-.263.958-.484 1.178-.43.43-1.091.452-1.547.047-.263-.231-.336-.419-.459-1.243a11.936 11.936 0 0 0-.137-.788c-.025-.058-.036-.058-.152.03-.09.068-.13.079-.148.046-.083-.152-.246-1.46-.25-1.995v-.289l-.14.192c-.08.105-.148.173-.16.159-.053-.09-.23-1.312-.3-2.07l-.024-.272-.286-.213c-.846-.625-1.192-1.569-.9-2.443.174-.513.593-1.265 1.168-2.085.195-.282.21-.318.263-.65.152-.955.463-1.67 1.08-2.487.12-.159.283-.358.362-.444l.141-.152h-.152c-.08 0-.148-.007-.148-.018 0-.03.235-.235.416-.362.14-.1.148-.119.105-.18-.065-.087-.069-.488-.004-.571.022-.037.087-.076.145-.09.086-.022.112-.07.235-.427.184-.539.386-.871.744-1.229.318-.314.69-.531 1.106-.65.155-.044.217-.076.217-.123 0-.062.123-.192.217-.228a.75.75 0 0 1 .216-.007c.09.01.307.025.485.04Z" fill="#5849A6"/><path fill-rule="evenodd" clip-rule="evenodd" d="M13.039 3.517c-.072-.072-.137-.087-.408-.108l-.186-.015c-.123-.01-.239-.018-.299-.025a.75.75 0 0 0-.216.007c-.094.036-.217.166-.217.228 0 .047-.062.08-.217.123-.416.119-.788.336-1.106.65-.358.358-.56.69-.744 1.229-.123.358-.149.405-.235.426-.058.015-.123.054-.145.09-.065.084-.061.485.004.572.043.061.036.08-.105.18-.18.127-.416.333-.416.362 0 .01.069.018.148.018h.152l-.14.152c-.08.086-.243.285-.362.444-.618.817-.929 1.532-1.08 2.486-.055.333-.07.369-.264.65-.575.821-.994 1.573-1.168 2.086-.293.875.054 1.818.9 2.443l.286.213.025.271c.069.759.246 1.98.3 2.07.01.015.08-.053.159-.158l.14-.192v.29c.004.534.167 1.842.25 1.994.018.033.058.022.148-.047.116-.087.127-.087.152-.029.015.036.076.39.137.788.123.824.196 1.012.46 1.243a1.112 1.112 0 0 0 1.546-.047c.22-.22.257-.307.484-1.178.149-.582.181-.668.243-.665.036.004.213.033.39.065.405.073.687.073 1.091 0 .177-.032.354-.061.39-.065.058-.003.095.094.254.72.104.397.224.787.263.867.26.487.878.719 1.399.524.257-.098.531-.354.632-.593.04-.087.12-.48.185-.874.061-.398.123-.749.137-.785.025-.058.036-.058.152.03.12.086.126.086.148.02.09-.241.25-1.524.25-2.026v-.235l.133.191c.09.127.141.174.16.145.079-.145.32-1.959.32-2.4 0-.159.015-.18.25-.415.398-.398.65-.98.654-1.5 0-.495-.329-1.373-.94-2.508l-.242-.452-.08-.545c-.09-.662-.216-1.164-.378-1.518-.163-.35-.517-.86-.825-1.193l-.253-.267h.13c.073 0 .13-.015.13-.033 0-.018-.093-.119-.213-.22-.173-.148-.205-.199-.191-.271.022-.112-.076-.264-.188-.293-.072-.018-.087-.047-.105-.224-.108-1.001-.676-1.876-1.489-2.284-.253-.13-.307-.173-.307-.242a.288.288 0 0 0-.083-.17Z" fill="#fff"/><path fill-rule="evenodd" clip-rule="evenodd" d="M13.039 3.517c-.072-.072-.137-.087-.408-.108l-.186-.015c-.123-.01-.239-.018-.299-.025a.75.75 0 0 0-.216.007c-.094.036-.217.166-.217.228 0 .047-.062.08-.217.123-.416.119-.788.336-1.106.65-.358.358-.56.69-.744 1.229-.123.358-.149.405-.235.426-.058.015-.123.054-.145.09-.065.084-.061.485.004.572.017.024.026.042.022.06.164.224.507.677.779.99.362.42.864.642 1.33.707.464.065 1.17.13 1.515.121.344-.01 1.05-.288 1.236-.474l.127-.12c.272-.254.807-.752.961-1.136-.031-.043-.037-.075-.029-.112.022-.112-.076-.264-.188-.293-.072-.018-.087-.047-.105-.224-.108-1.001-.675-1.876-1.489-2.284-.253-.13-.307-.173-.307-.242a.288.288 0 0 0-.083-.17Z" fill="#17A9F9"/><circle cx="12.202" cy="6.871" fill="#1794DA" r="1.258"/><circle cx="12.202" cy="6.65" fill="#fff" r="1.258"/><path d="m12.244 5.843-.672 1.339c-.092-.13-.252-.507-.115-.864.136-.356.582-.465.787-.475Z" fill="#F2F2F2"/><path fill-rule="evenodd" clip-rule="evenodd" d="M17.19 15.504c-.436.295-1.36.823-2.123.937.564-.06 1.688-.258 2.094-.588.005-.082.009-.15.009-.2 0-.065.002-.106.02-.149Zm-9.935.593c.372.117 1.349.294 2.326.084-.34.015-1.283-.053-2.36-.45l.025.268.01.098Zm1.124-2.565c-.46-.27-.606-.732-.58-.912-.058.346-.123.88 1.146 1.59.966.542 3.057.267 4.012.027v.087h.125l-.06.078v.222c.49-.436 1.336-.542 1.698-.54.652-.08 1.09.531 1.226.847-.021-.07-.099-.273-.238-.525-.138-.252-.286-.355-.342-.375.755-.322.997-1.011 1.024-1.315-.185.578-.636.812-.94.97-.06.03-.115.06-.161.087-.22.132-.884.148-1.188.14l.023.045-.609-.034.136.16c-.167.052-.532.021-.694 0v-.082a1.21 1.21 0 0 1-.288.03c-.607-.015-1.341-.362-1.632-.533v.284c.196.153.973.33 1.337.399-.563.17-1.632.165-2.096.142l.202-.202c-.24.018-.83.013-1.262-.153-.432-.166-.66-.295-.72-.339.161-.127.42-.22.614-.232.575-.037 1.496.51 1.866.752l-.024-.242c-.213-.202-1.25-.69-1.766-.69-.358 0-.69.217-.81.315Z" fill="#E6E6E6"/><path fill-rule="evenodd" clip-rule="evenodd" d="M9.736 10.835c-.17-.123-.206-.26-.09-.325.09-.054.104-.05.27.065a4.749 4.749 0 0 0 1.558.636c1.063.202 2.028.029 3.032-.546.293-.166.362-.191.423-.159.123.065.09.203-.08.329-.202.148-.704.397-1.033.517-.91.325-1.98.34-2.949.032-.329-.104-.903-.383-1.131-.549Zm.112-1.612a.412.412 0 0 0-.123.163.3.3 0 0 0 .148.38c.145.075.228.068.354-.04.3-.253-.061-.727-.38-.503Zm4.347-.014c-.04.021-.09.097-.119.162-.047.112-.047.141.004.246.101.213.307.257.484.109.224-.188.101-.557-.184-.557a.436.436 0 0 0-.185.04Z"/></svg>