<svg height="24" viewBox="0 0 669 199" width="24" xmlns="http://www.w3.org/2000/svg" xmlns:xlink="http://www.w3.org/1999/xlink"><mask id="a" fill="#fff"><path d="m.06.451h188.544v153.489h-188.544z" fill="#fff" fill-rule="evenodd"/></mask><g fill="none" fill-rule="evenodd"><g fill="#060406"><g transform="translate(0 45)"><path d="m71.331 75.8c0 4.445-.945 8.544-2.823 12.314-1.878 3.775-4.507 6.962-7.863 9.585-3.361 2.622-7.355 4.675-11.987 6.152-4.633 1.478-9.703 2.216-15.212 2.216-6.592 0-12.501-.9-17.733-2.71-5.24-1.804-10.48-4.782-15.713-8.94l8.658-14.089c4.168 3.485 7.925 6.046 11.279 7.655 3.356 1.614 6.787 2.415 10.286 2.415 4.294 0 7.75-1.101 10.373-3.33 2.622-2.216 3.93-5.207 3.93-8.964 0-1.615-.237-3.136-.707-4.544-.469-1.408-1.34-2.861-2.617-4.339-1.27-1.477-3.011-3.091-5.233-4.832-2.216-1.753-5.064-3.907-8.551-6.461-2.686-1.882-5.296-3.831-7.844-5.84-2.554-2.022-4.863-4.176-6.948-6.465-2.078-2.28-3.749-4.833-5.032-7.651-1.278-2.835-1.904-6.058-1.904-9.69 0-4.163.865-7.957 2.611-11.392 1.733-3.432 4.113-6.348 7.135-8.771 3.012-2.417 6.624-4.3 10.849-5.64 4.226-1.352 8.808-2.028 13.766-2.028 5.233 0 10.297.708 15.205 2.104 4.895 1.401 9.433 3.435 13.602 6.109l-7.862 12.644c-5.371-3.755-11.011-5.64-16.926-5.64-3.625 0-6.617.953-8.965 2.83-2.353 1.885-3.524 4.238-3.524 7.061 0 2.693 1.039 5.114 3.117 7.262 2.06 2.152 5.647 5.183 10.736 9.077 5.127 3.767 9.377 7.067 12.745 9.89 3.369 2.829 6.029 5.489 7.981 7.968 1.966 2.499 3.313 5.021 4.057 7.575.732 2.553 1.114 5.383 1.114 8.469" mask="url(#a)"/><path d="m160.435 52.064c0-11.024-2.23-19.737-6.699-26.129-4.457-6.385-10.548-9.585-18.26-9.585-8.119 0-14.542 3.4-19.267 10.193-4.74 6.797-7.105 15.974-7.105 27.543 0 11.298 2.334 20.174 6.992 26.623 4.675 6.465 11.067 9.689 19.179 9.689 4.871 0 8.883-1.239 12.07-3.729 3.179-2.492 5.754-5.655 7.712-9.484 1.965-3.826 3.348-8.001 4.162-12.508.807-4.507 1.216-8.708 1.216-12.613m28.169-1.021c0 7.931-1.22 15.223-3.651 21.873-2.422 6.653-5.796 12.467-10.109 17.433-4.312 4.977-9.428 8.832-15.367 11.594-5.928 2.748-12.332 4.124-19.206 4.124-3.105 0-6.002-.27-8.702-.801-2.697-.545-5.251-1.452-7.686-2.722-2.423-1.286-4.815-2.93-7.168-4.953-2.36-2.015-4.819-4.507-7.38-7.462v63.871h-25.898v-151.127h25.898l.137 14.711c4.715-5.91 9.822-10.242 15.343-13.002 5.521-2.748 11.913-4.125 19.181-4.125 6.591 0 12.607 1.24 18.06 3.724 5.445 2.486 10.153 5.948 14.128 10.385 3.968 4.433 7.037 9.741 9.189 15.926 2.148 6.178 3.231 13.032 3.231 20.551" mask="url(#a)"/></g><path d="m200.128 148.583h26.573v-147.89h-26.573z"/><path d="m313.638 148.62-.064-13.496c-5.113 5.652-10.364 9.72-15.742 12.213-5.384 2.491-11.649 3.724-18.774 3.724-7.944 0-14.635-1.578-20.094-4.726-5.445-3.167-9.384-7.843-11.8-14.036-.676-1.47-1.183-3.022-1.515-4.638-.338-1.614-.644-3.46-.914-5.552-.261-2.09-.438-4.477-.501-7.167-.069-2.692-.099-5.985-.099-9.892v-57.328h26.573v57.73c0 5.121.237 9.008.708 11.705.475 2.692 1.319 5.121 2.534 7.262 3.099 5.659 8.577 8.481 16.402 8.481 9.989 0 16.875-4.168 20.651-12.513.945-2.154 1.621-4.538 2.026-7.168.409-2.623.609-6.352.609-11.197v-54.3h26.58v100.898z"/><path d="m428.263 148.576v-57.573c0-5.102-.233-8.994-.708-11.674-.469-2.68-1.322-5.101-2.529-7.248-3.099-5.634-8.571-8.458-16.401-8.458-4.995 0-9.283 1.039-12.857 3.124-3.581 2.072-6.248 5.132-7.995 9.158-.958 2.285-1.595 4.732-1.927 7.349-.345 2.61-.508 6.272-.508 10.968v54.354h-26.805v-100.671h26.805l.051 13.496c5.121-5.641 10.36-9.727 15.75-12.207 5.377-2.49 11.635-3.737 18.772-3.737 7.945 0 14.636 1.641 20.089 4.932 5.459 3.293 9.39 7.95 11.812 13.999.538 1.477 1.013 2.985 1.415 4.532.413 1.551.739 3.316 1.008 5.332.274 2.015.431 4.401.506 7.155.063 2.755.1 6.073.1 9.965v57.204z"/><path d="m540.106 150.617-40.087-55.606v53.59h-26.81v-147.877h26.81v86.831h2.818l35.655-41.303 20.145 8.669-34.248 36.665 40.501 50.366z"/></g><path d="m587.901 145.846v-17.703l62.45-30.785-62.45-30.392v-18.11l80.583 40.452v16.494z" fill="#6bb04d"/><path d="m586.461 31.891v-.049c0-5.089 4.133-9.359 9.384-9.359 5.239 0 9.327 4.22 9.327 9.309v.05c0 5.089-4.138 9.351-9.39 9.351-5.239 0-9.321-4.211-9.321-9.302zm17.853-.049v-.05c0-4.683-3.643-8.501-8.469-8.501-4.865 0-8.532 3.869-8.532 8.551v.049c0 4.683 3.637 8.502 8.469 8.502 4.864 0 8.532-3.875 8.532-8.551zm-12.168-5.065h4.288c1.214 0 2.221.383 2.847 1.009.457.437.764 1.083.764 1.858v.051c0 1.552-1.025 2.479-2.473 2.817l2.968 3.85h-1.753l-2.766-3.62h-2.455v3.62h-1.42zm4.155 4.702c1.347 0 2.28-.62 2.28-1.71v-.049c0-1.008-.826-1.653-2.198-1.653h-2.817v3.412z" fill="#060406"/></g></svg>