<svg viewBox="0 0 32 33" xmlns="http://www.w3.org/2000/svg"><g clip-path="url(#a)"><path fill-rule="evenodd" clip-rule="evenodd" d="M16.5 5.715a.5.5 0 0 0-1 0l-.002 14.864-4.573-4.712a.5.5 0 1 0-.718.696l5.402 5.567a.499.499 0 0 0 .579.148.5.5 0 0 0 .2-.149l5.4-5.566a.5.5 0 1 0-.718-.696l-4.57 4.711V5.715zM7 21.115a.5.5 0 1 0-1 0v5.6a.5.5 0 0 0 .5.5h16.217v-1H7v-5.1zm19 0a.5.5 0 1 0-1 0v2.8a.5.5 0 0 0 1 0v-2.8z" fill="#0278D5"/><path d="m23.046 32.215 6.01-5.444-.446-.28-5.094 4.61v-1.09l5.658-5.118v1.099l-.564.5.446.28.602-.535v-2.123l-1.318.182 1.182-1.978v-1.866l-.262-.237-6.918 5.96v1.46l2.22-.375-1.516 2.563v2.392zm5.992-10.81v.768l-1.268 2.201-.646.09 1.914-3.06zm-6.231 5.646v-.788l2.7-.368-.566.818-2.134.338z" fill="#FD5750"/><path d="m23.046 32.215 6.01-5.444-.446-.28-5.094 4.61v-1.09l5.658-5.118v1.099l-.564.5.446.28.602-.535v-2.123l-1.318.182 1.182-1.978v-1.866l-.262-.237-6.918 5.96v1.46l2.22-.375-1.516 2.563v2.392zm5.992-10.81v.768l-1.268 2.201-.646.09 1.914-3.06zm-6.231 5.646v-.788l2.7-.368-.566.818-2.134.338z" fill="#FD5750"/></g><defs><clipPath id="a"><path fill="#fff" transform="translate(0 .215)" d="M0 0h32v32H0z"/></clipPath></defs></svg>