<svg xmlns="http://www.w3.org/2000/svg" viewBox="0 0 64 64"><path fill="#4285f4" d="M18.8 3.2c-2 0-3.9 1.2-4.9 2.9L.8 29c-1 1.8-1 3.9 0 5.7l13.1 23c1 1.8 2.9 3 4.9 3h26.3c2.1-.1 3.9-1.2 4.9-3l13.1-22.9c.6-.8.9-1.8.9-2.8s-.3-2-.8-2.9L50.1 6.2c-1-1.8-2.9-2.9-4.9-2.9H18.8z"/><path fill-opacity=".07" d="m59.1 42-9 15.7c-1 1.8-2.9 3-4.9 3h-10L20.5 46l4.3-13.9L20.5 18l4.4 3 6 6-2.8-9 20.8 14z"/><path fill="#fff" d="m20.5 18.1 4.4 3 3.5 11.2L25 43l-4.5 3 4.3-13.9zM31.8 23l2.2 7h8.2zM49 32.1 28.1 46l4.3-13.9-4.3-14z"/></svg>