<svg viewBox="0 0 41 41" fill="none" xmlns="http://www.w3.org/2000/svg">
<g clip-path="url(#clip0_2952_318973)">
<path d="M18.3976 27.0115L16.2869 27.5988C16.4704 28.131 16.6172 29.0855 16.6172 30.3702V36.684H18.985V30.0032C19.4255 29.4708 19.9026 29.2138 20.4165 29.2138C20.6735 29.2138 20.8755 29.269 21.0956 29.3975L21.738 27.2133C21.371 27.0482 21.2058 27.0115 20.857 27.0115C20.6001 27.0115 20.2881 27.0665 20.0861 27.1583C19.6456 27.3785 19.095 27.874 18.7463 28.3513C18.7463 27.819 18.6178 27.3968 18.3976 27.0115ZM10.2484 23.8912H9.99144V36.6657H12.4509V31.0127H15.5527V28.9018H12.4509V25.9652H16.3236L16.4704 24.8457C14.1394 24.6805 12.0287 24.3133 10.2484 23.8912ZM4.50357 38.3725L5.64152 39.694C6.74277 39.2535 8.11932 38.2625 8.4864 36.684C8.61489 36.1702 8.65159 35.8397 8.65159 34.1695V23.9097H6.17379V34.4448C6.17379 35.8213 6.11874 36.3353 5.93519 36.8125C5.69659 37.3447 5.1276 37.9688 4.50357 38.3725ZM26.8405 31.8937C26.8405 34.1328 26.4 35.0872 25.3905 35.0872C24.9316 35.0872 24.4176 34.8302 24.1975 34.3163C24.014 33.8392 23.9038 33.0315 23.9038 31.9303C23.9038 30.9943 23.9956 30.3335 24.1425 29.8197C24.326 29.2323 24.7848 28.8652 25.3538 28.8652C25.776 28.8652 26.143 29.0487 26.3633 29.3607C26.6936 29.8012 26.8405 30.6272 26.8405 31.8937ZM28.2905 35.5643C29.0613 34.6467 29.41 33.5272 29.41 31.912C29.41 30.3885 29.098 29.3423 28.3821 28.4613C27.6113 27.507 26.6201 27.0482 25.3355 27.0482C22.9126 27.0482 21.2975 29.012 21.2975 31.9853C21.2975 34.9587 22.8943 36.8675 25.3355 36.8675C26.712 36.8858 27.6113 36.372 28.2905 35.5643ZM35.008 30.2785C35.008 31.141 34.4941 31.6183 33.5763 31.6183C32.7505 31.6183 32.1998 31.2328 32.1998 30.2785C32.1998 29.3975 32.7138 28.8835 33.5948 28.8835C34.4758 28.8835 35.008 29.3975 35.008 30.2785ZM39.1743 28.2595L38.2016 26.6993C37.651 27.2133 36.9903 27.507 36.3478 27.507C36.0541 27.507 35.889 27.4703 35.2466 27.3052C34.6041 27.1215 34.1453 27.0665 33.6315 27.0665C31.3371 27.0665 29.8505 28.3145 29.8505 30.2602C29.8505 31.655 30.4745 32.536 31.7776 32.8847C31.2455 33.0132 30.6765 33.2885 30.4195 33.6005C30.236 33.8208 30.1441 34.1145 30.1441 34.4632C30.1441 34.7568 30.2176 35.0138 30.3276 35.234C30.4561 35.436 30.6213 35.6012 30.8416 35.6928C31.2638 35.858 31.9428 35.9682 32.989 35.9865C33.5396 35.9865 33.87 36.0048 33.9801 36.0048C34.6226 36.0417 34.953 36.1517 35.21 36.2802C35.4485 36.427 35.632 36.7575 35.632 37.1245C35.632 37.4915 35.4118 37.8587 35.0631 38.0788C34.751 38.2992 34.2371 38.391 33.5763 38.391C32.4935 38.391 31.8878 37.9872 31.8878 37.2347C31.8878 36.9043 31.9245 36.8308 31.998 36.629H29.8321C29.7405 36.8125 29.6303 37.0695 29.6303 37.5833C29.6303 38.2257 29.8688 38.7763 30.3645 39.2535C31.172 40.0428 32.4935 40.263 33.76 40.263C35.1548 40.263 36.513 39.9327 37.3023 39.0517C37.7978 38.501 38.0181 37.8953 38.0181 37.1062C38.0181 36.2618 37.7795 35.6195 37.2471 35.0872C36.6231 34.4815 35.9073 34.2613 34.5308 34.2428L33.2643 34.2245C33.0258 34.2245 32.879 34.1328 32.879 34.0043C32.879 33.7473 33.2093 33.5272 33.815 33.2335C33.9985 33.2518 34.0536 33.2518 34.1636 33.2518C36.0725 33.2518 37.4675 32.0772 37.4675 30.4437C37.4675 29.8197 37.284 29.3423 36.9351 28.9018C37.2288 28.9387 37.3206 28.957 37.5408 28.957C38.165 28.957 38.6605 28.755 39.1743 28.2595ZM9.62435 12.7871C6.6877 13.5029 4.68712 14.9161 4.68712 16.5313C4.68712 17.5407 5.45799 18.4585 6.72442 19.1743C6.33897 18.5685 6.13709 17.9078 6.13709 17.247C6.15544 15.5769 7.45857 14.0168 9.62435 12.7871ZM40.606 19.1192C40.606 18.0547 39.9453 17.0818 38.844 16.2743C38.9358 16.6047 39.0091 16.9351 39.0091 17.2655C39.0091 20.2938 34.7695 22.9002 28.7493 23.983C29.4283 24.0565 30.1258 24.0932 30.86 24.0932C36.2376 24.0748 40.606 21.854 40.606 19.1192ZM37.1371 17.4673C37.1371 16.3477 36.1826 15.3199 34.5491 14.4756C34.9346 14.9345 35.1365 15.43 35.1365 15.944C35.1365 18.642 29.41 20.8262 22.3253 20.8262C15.259 20.8262 9.51422 18.642 9.51422 15.944C9.51422 15.5952 9.606 15.2649 9.78954 14.9528C8.65159 15.7053 8.00919 16.568 8.00919 17.4857C8.00919 20.404 14.5249 22.7717 22.564 22.7717C30.603 22.7717 37.1371 20.3673 37.1371 17.4673ZM30.7866 17.3205C27.8131 19.2293 18.673 19.9635 14.7451 17.504C11.6617 15.5769 12.7262 12.5117 3.89789 5.79418C2.74159 4.91318 4.11814 3.97713 4.98079 4.58281C5.84342 5.1885 5.0542 5.33533 6.79784 7.07896C10.3218 10.6029 10.2851 7.42768 10.8357 8.63905C12.0104 11.1535 14.5799 13.6864 14.5799 13.6864C17.1679 15.375 19.2235 15.7421 23.0411 13.1541C25.464 11.5206 24.4728 15.7604 30.4011 12.6953C32.567 11.5757 32.4751 12.3282 34.6776 9.26308C35.5953 7.99666 37.339 10.2358 35.3566 10.5479C34.5675 10.6763 33.2276 11.539 32.6586 12.8972C31.8328 14.9345 32.1815 16.4395 30.7866 17.3205ZM14.3046 12.1447C13.5705 11.8143 12.7996 10.5662 12.5059 10.0707C13.3319 9.2631 13.0015 7.92325 12.5243 7.18908C12.0654 6.45493 11.4965 6.65681 10.8908 5.97771C10.2667 5.29861 11.1294 3.53663 11.9186 4.89483C14.8736 9.9789 16.8191 7.86818 19.2235 7.55616C21.5361 7.2625 23.5918 8.52893 24.2158 4.9499C24.326 4.36256 24.895 4.23408 24.95 5.1885C25.005 6.16126 25.3721 8.51058 26.6386 8.80423C27.905 9.11626 28.9328 8.51058 29.2265 8.1802C29.5201 7.84983 29.6853 7.88653 29.8138 8.73083C29.9423 9.55675 30.2726 10.7131 32.053 9.42828C35.7055 6.822 34.6593 5.81253 36.0908 5.13343C36.8985 4.748 38.1833 5.99606 36.3295 6.93213C33.6865 8.27196 33.4111 9.92383 31.741 10.97C28.9328 12.732 29.7955 11.0434 25.2803 10.401C23.5368 10.1624 22.9861 12.0896 21.628 11.539C18.5261 10.2542 16.3419 10.5112 14.3046 12.1447ZM24.0873 2.72905C24.1975 3.49993 24.326 3.48156 24.6013 3.53663C24.8766 3.61005 25.2253 3.16955 25.2253 2.76576C25.2436 2.34361 25.0418 2.08666 24.638 2.10501C24.2158 2.12336 24.069 2.32526 24.0873 2.72905ZM37.6693 4.10561C37.9996 4.41763 38.8806 4.21573 39.0826 3.97713C39.6148 3.3898 39.6331 3.04106 39.358 2.63728C39.0826 2.25185 38.5136 2.30691 37.9446 2.72905C37.3756 3.1512 37.4858 3.94041 37.6693 4.10561ZM37.4308 7.99666C37.1555 8.36375 37.1371 8.63905 37.339 8.84095C37.5591 9.0612 37.9996 9.24473 38.3118 9.00613C38.6238 8.74918 38.6238 8.3821 38.3668 8.07008C38.0915 7.7397 37.7245 7.7397 37.4308 7.99666ZM9.56929 3.40815C9.99144 3.53663 10.1933 3.94041 10.5421 3.48156C10.7256 3.26131 10.744 2.9493 10.5053 2.61893C10.3585 2.41703 9.66105 2.2702 9.36739 2.56386C9.07374 2.85753 9.34904 3.33473 9.56929 3.40815ZM0.961247 3.1512C1.73212 3.6284 2.22768 4.34421 2.815 3.70181C3.0169 3.48156 3.2555 3.09613 2.83335 2.32526C2.52134 1.75629 1.51187 1.53604 1.16314 1.75629C0.796061 1.95818 0.355564 2.78411 0.961247 3.1512ZM8.06425 6.80365C8.30285 7.06061 8.725 7.04225 8.98195 6.89541C9.22055 6.74858 9.18385 6.36315 8.94525 6.03278C8.79842 5.83088 8.35792 5.72076 8.06425 6.03278C7.77059 6.3448 7.89907 6.62011 8.06425 6.80365Z" fill="#41BF47"/>
</g>
<defs>
<clipPath id="clip0_2952_318973">
<rect width="40" height="40" fill="white" transform="translate(0.661621 0.967606)"/>
</clipPath>
</defs>
</svg>
