<svg viewBox="0 0 28 23" xmlns="http://www.w3.org/2000/svg"><path d="M15.298.334 7.044 7.492 0 20.135h6.351l8.947-19.8Zm1.098 1.675-3.523 9.93 6.755 8.486-13.104 2.251H28L16.396 2.01Z" fill="#0072C6"/><path d="M20.93 9.617c0 .12.098.218.218.218H24.8v-.002a2.878 2.878 0 0 0 .124-5.744.24.24 0 0 1-.215-.188 4.146 4.146 0 0 0-8.198.869.05.05 0 0 1-.041.05 2.534 2.534 0 0 0 .501 5.015h2.914a.22.22 0 0 0 .22-.218V8.93a.23.23 0 0 0-.191-.223c-.456-.087-.846-.275-1.113-.544a1.496 1.496 0 0 1-.425-.889c-.016-.121.085-.22.207-.22l.487.002c.117 0 .21.094.237.208.112.478.544.793 1.186.796.25.001 1.181-.116 1.184-.76.002-.514-.675-.71-1.315-.868-.11-.027-.22-.054-.332-.084-.724-.192-1.49-.413-1.486-1.34.004-.9.762-1.364 1.56-1.459v-.863c0-.121.098-.219.219-.219h.388c.121 0 .219.098.219.219v.887c.576.093 1.35.384 1.482 1.271.018.122-.083.224-.206.224l-.49-.002c-.112 0-.202-.088-.236-.195-.127-.405-.525-.651-1.108-.654-.387-.002-.95.204-.952.674-.002.426.324.57 1.54.885l.162.041.065.016c.463.112 1.414.341 1.409 1.36-.004.805-.553 1.355-1.472 1.52a.23.23 0 0 0-.193.222v.682Z" fill="#01C9CC"/></svg>