<svg viewBox="0 0 33 33" xmlns="http://www.w3.org/2000/svg"><path fill-rule="evenodd" clip-rule="evenodd" d="M14.478 4.833a.5.5 0 0 1-.006.707l-2.2 2.166h14.241a1.5 1.5 0 0 1 1.5 1.5v9.306a.5.5 0 0 1-1 0V9.207a.5.5 0 0 0-.5-.5H12.271l2.201 2.165a.5.5 0 1 1-.7.713L10.7 8.562a.5.5 0 0 1 0-.713l3.071-3.022a.5.5 0 0 1 .707.006zm-9.077 8.813a.5.5 0 0 1 .5.5v11.96a.5.5 0 0 0 .5.5h12.682a.5.5 0 1 1 0 1H6.401a1.5 1.5 0 0 1-1.5-1.5v-11.96a.5.5 0 0 1 .5-.5z" fill="#0278D5"/><path d="m23.5 32.215 6.01-5.444-.447-.28-5.094 4.61v-1.09l5.658-5.118v1.099l-.563.5.446.28.602-.535v-2.123l-1.318.182 1.181-1.978v-1.866l-.262-.237-6.918 5.96v1.46l2.22-.375-1.516 2.563v2.392zm5.991-10.81v.768l-1.268 2.201-.645.09 1.913-3.06zm-6.23 5.646v-.788l2.7-.368-.567.818-2.133.338z" fill="#FD5750"/></svg>