<svg width="24" height="24" viewBox="0 0 24 24" fill="none" xmlns="http://www.w3.org/2000/svg">
<path d="M23.4704 6.818C23.3327 6.33753 23.0642 5.89949 22.6915 5.54752C22.3188 5.19555 21.855 4.94192 21.3463 4.81188C19.4839 4.33215 11.988 4.33215 11.988 4.33215C11.988 4.33215 4.49186 4.34667 2.62939 4.8264C2.12065 4.95644 1.65685 5.21009 1.28419 5.56208C0.911527 5.91407 0.643002 6.35212 0.505354 6.83261C-0.0579989 9.958 -0.276534 14.7204 0.520823 17.7208C0.658485 18.2012 0.927017 18.6393 1.29968 18.9912C1.67234 19.3432 2.13613 19.5968 2.64486 19.7269C4.50733 20.2066 12.0033 20.2066 12.0033 20.2066C12.0033 20.2066 19.4992 20.2066 21.3616 19.7269C21.8703 19.5969 22.3342 19.3432 22.7068 18.9913C23.0795 18.6393 23.3481 18.2012 23.4857 17.7208C24.0799 14.5909 24.263 9.83148 23.4704 6.818Z" fill="#FF0000"/>
<path d="M7.99999 16.8411L16.8437 12.0033L7.99999 7.16547V16.8411Z" fill="white"/>
</svg>
