<svg enable-background="new 0 0 14 14" viewBox="0 0 14 14" xmlns="http://www.w3.org/2000/svg"><path d="m.8 13-.8-.4v-11.3l.8-.4 3 5.8z" fill="#9d5025"/><path d="m3.1 11 1.1 1.6 4.8-2.3-1.1-.2z" fill="#9d5025"/><path d="m2.2 2.9 1.2-1.7 5.6 2.5-1 .2z" fill="#9d5025"/><path d="m2.6 1.3-1.7-.4v12.1l1.7-.5z" fill="#f58536"/><path d="m1.7 13.5.9.5 1.7-7.8-1.7-6.2-.9.5z" fill="#9d5025"/><path d="m7.9 4 1.1-.2 1.1 3.1-1.1 3.5-1.1-.2z" fill="#9d5025"/><g fill="#f58536"><path d="m4.3.5-1.7-.5v14l1.7-.5z"/><path d="m10.2 3.9-7.6-1.5v-2.4l7.6 2.3z"/><path d="m10.4 10.1-7.8 1.6v2.3l7.8-2.4z"/><path d="m9 12 1.2-.4v-9.2l-1.2-.4z"/></g><path d="m14 8.2-3.3-.2-1.1.1 3.3 3z" fill="#6b3a19"/><path d="m9.4 8.2 3.4.2v2.7l-3.4-.6z" fill="#9d5025"/><path d="m6.3 8.3 3.4 3.7 1.7-3.6-3.5-.2z" fill="#6b3a19"/><path d="m6.3 8.4 3.4.3v3.4l-3.4-.9z" fill="#9d5025"/><path d="m9.6 5.8 4.4-.1-1.1-2.8-3.3.6z" fill="#9d5025"/><path d="m6.3 5.6 5.1-.1-1.7-3.6-3.4.9z" fill="#9d5025"/><path d="m6.3 5.7 3.4-.4 1.7.2-3.5.3z" fill="#fbbf93"/><path d="m14 5.8-3.3.2-1.1-.1 3.3-.3z" fill="#fbbf93"/><g fill="#f58536"><path d="m12.8 8.3 1.2-.1v2.5l-1.2.4z"/><path d="m11.4 8.5-1.7.2v3.4l1.7-.5z"/><path d="m12.8 5.7 1.2.1v-2.5l-1.2-.4z"/><path d="m11.4 5.5-1.7-.2v-3.4l1.7.5z"/></g></svg>