<svg viewBox="0 0 33 32" xmlns="http://www.w3.org/2000/svg"><g clip-path="url(#a)" fill="#fff"><path fill-rule="evenodd" clip-rule="evenodd" d="M16.773 5.5a.5.5 0 0 0-1 0l-.002 14.864-4.573-4.712a.5.5 0 0 0-.718.696l5.402 5.567a.5.5 0 0 0 .78 0l5.399-5.567a.5.5 0 1 0-.718-.696l-4.57 4.711V5.5zm-9.5 15.4a.5.5 0 0 0-1 0v5.6a.5.5 0 0 0 .5.5H22.99v-1H7.273v-5.1zm19 0a.5.5 0 1 0-1 0v2.8a.5.5 0 1 0 1 0v-2.8z"/><path d="m23.32 32 6.01-5.443-.447-.28-5.094 4.61v-1.09l5.657-5.119v1.099l-.563.5.446.28.602-.535v-2.123l-1.318.182 1.182-1.978v-1.866L29.533 20l-6.918 5.96v1.46l2.22-.375-1.516 2.563V32zm5.99-10.81v.768l-1.267 2.201-.646.09 1.914-3.06zm-6.23 5.646v-.788l2.7-.368-.566.818-2.134.338z"/><path d="m23.32 32 6.01-5.443-.447-.28-5.094 4.61v-1.09l5.657-5.119v1.099l-.563.5.446.28.602-.535v-2.123l-1.318.182 1.182-1.978v-1.866L29.533 20l-6.918 5.96v1.46l2.22-.375-1.516 2.563V32zm5.99-10.81v.768l-1.267 2.201-.646.09 1.914-3.06zm-6.23 5.646v-.788l2.7-.368-.566.818-2.134.338z"/></g><defs><clipPath id="a"><path fill="#fff" transform="translate(.273)" d="M0 0h32v32H0z"/></clipPath></defs></svg>