<svg width="24" height="17" viewBox="0 0 24 17" fill="none" xmlns="http://www.w3.org/2000/svg">
<path d="M23.4704 2.81788C23.3327 2.3374 23.0642 1.89937 22.6915 1.5474C22.3188 1.19543 21.855 0.941793 21.3463 0.811758C19.4839 0.332031 11.988 0.332031 11.988 0.332031C11.988 0.332031 4.49186 0.346552 2.62939 0.826279C2.12065 0.956322 1.65685 1.20997 1.28419 1.56196C0.911527 1.91395 0.643002 2.352 0.505354 2.83249C-0.0579989 5.95788 -0.276534 10.7203 0.520823 13.7206C0.658485 14.2011 0.927017 14.6391 1.29968 14.9911C1.67234 15.3431 2.13613 15.5967 2.64486 15.7268C4.50733 16.2065 12.0033 16.2065 12.0033 16.2065C12.0033 16.2065 19.4992 16.2065 21.3616 15.7268C21.8703 15.5967 22.3342 15.3431 22.7068 14.9911C23.0795 14.6392 23.3481 14.2011 23.4857 13.7206C24.0799 10.5908 24.263 5.83136 23.4704 2.81788Z" fill="#FF0000"/>
</svg>
