<svg viewBox="0 0 32 32" fill="none" xmlns="http://www.w3.org/2000/svg"><path fill-rule="evenodd" clip-rule="evenodd" d="M11.736 4.562c1.017-.689 2.505-1.164 4.223-1.164s3.206.475 4.223 1.164l.42-.62-.42.62c1.023.694 1.439 1.495 1.439 2.191 0 .696-.416 1.497-1.44 2.191-1.016.69-2.504 1.164-4.222 1.164-1.718 0-3.206-.475-4.223-1.164-1.023-.694-1.44-1.495-1.44-2.19 0-.697.417-1.498 1.44-2.192Zm4.223-2.664c-1.978 0-3.768.544-5.064 1.422-1.298.88-2.098 2.094-2.098 3.433 0 1.34.8 2.553 2.098 3.433 1.296.878 3.086 1.422 5.064 1.422 1.978 0 3.768-.544 5.064-1.422 1.298-.88 2.098-2.094 2.098-3.433 0-1.34-.8-2.553-2.098-3.433-1.296-.878-3.086-1.422-5.064-1.422Zm-9.261 9.103a.75.75 0 0 1 .8-.034c.865.495 2.468 1.152 4.173 1.688 1.716.54 3.42.918 4.507.918 1.046 0 2.577-.46 4.166-1.13 1.562-.657 3.075-1.471 4.045-2.086a.75.75 0 0 1 1.15.674c-.177 3.25-1.028 7.802-2.513 11.562-.741 1.878-1.659 3.604-2.764 4.874-1.105 1.27-2.469 2.158-4.084 2.158-1.694 0-3.094-.892-4.22-2.175-1.122-1.278-2.032-3.006-2.772-4.854-1.48-3.702-2.35-8.082-2.801-10.858a.75.75 0 0 1 .313-.737Zm1.416 1.936c.486 2.661 1.276 6.128 2.465 9.102.71 1.775 1.544 3.326 2.506 4.421.957 1.09 1.98 1.665 3.093 1.665 1.017 0 2.004-.553 2.953-1.643.949-1.09 1.79-2.642 2.5-4.44 1.214-3.075 1.991-6.734 2.297-9.674a32.285 32.285 0 0 1-3.002 1.458c-1.612.679-3.381 1.247-4.748 1.247-1.328 0-3.217-.44-4.957-.987a31.947 31.947 0 0 1-3.107-1.15Zm5.68-5.841c.912 0 1.653-.406 1.653-.906s-.74-.905-1.654-.905c-.913 0-1.653.405-1.653.905s.74.906 1.653.906Zm5.937-.906c0 .5-.74.906-1.654.906-.913 0-1.653-.406-1.653-.906s.74-.905 1.653-.905c.914 0 1.654.405 1.654.905Zm8.08 6.773a.75.75 0 0 1 .691.805c-.276 3.607-1.351 6.547-1.883 7.614a.75.75 0 1 1-1.343-.668c.45-.902 1.47-3.655 1.73-7.06a.75.75 0 0 1 .806-.69Zm-22.815.686a.75.75 0 1 0-1.497.097c.233 3.61 1.273 6.562 1.792 7.636a.75.75 0 1 0 1.35-.653c-.437-.907-1.425-3.672-1.645-7.08Z" fill="currentColor"/></svg>