<svg viewBox="0 0 60 62" xmlns="http://www.w3.org/2000/svg"><path d="M35.08 34.956a.932.932 0 0 0-.595.08.971.971 0 0 0-.47 1.258l-.007.01 2.223 5.371a11.35 11.35 0 0 0 4.588-5.763l-5.73-.968-.01.012Zm-8.917.761a.97.97 0 0 0-1.122-.737l-.01-.012-5.68.964a11.394 11.394 0 0 0 4.574 5.723l2.201-5.32-.017-.02a.96.96 0 0 0 .054-.598Zm4.758 2.086a.97.97 0 0 0-1.71.002h-.005l-2.793 5.052c2 .68 4.15.791 6.21.32.381-.088.754-.192 1.119-.314l-2.8-5.06h-.021Zm8.843-11.734-4.298 3.847.002.012a.972.972 0 0 0 .38 1.668l.006.023 5.567 1.604a11.546 11.546 0 0 0-1.657-7.153Zm-7.985.431a.972.972 0 0 0 1.542.74l.016.008 4.703-3.335a11.433 11.433 0 0 0-6.593-3.178l.326 5.764.006.001Zm-4.98.762a.97.97 0 0 0 1.539-.743l.024-.011.326-5.773a11.335 11.335 0 0 0-6.633 3.177l4.734 3.355.01-.005Zm-2.524 4.362a.97.97 0 0 0 .38-1.668l.005-.023-4.321-3.865a11.331 11.331 0 0 0-1.609 7.173l5.54-1.598.005-.019Zm4.197 1.698 1.595.767 1.59-.765.394-1.716-1.1-1.376h-1.77l-1.104 1.374.395 1.716Z" fill="#326CE5"/><path d="m56.422 36.703-4.543-19.732a3.549 3.549 0 0 0-1.902-2.366l-18.389-8.78a3.544 3.544 0 0 0-3.052 0L10.151 14.61a3.546 3.546 0 0 0-1.902 2.366L3.713 36.707a3.472 3.472 0 0 0-.001 1.515 3.52 3.52 0 0 0 .678 1.436l12.726 15.823c.055.069.117.131.177.195a3.5 3.5 0 0 0 1.677.994c.292.08.592.121.895.123h.198l20.21-.005a3.397 3.397 0 0 0 .885-.12 3.6 3.6 0 0 0 .36-.115 3.59 3.59 0 0 0 .273-.113 3.619 3.619 0 0 0 1.23-.962l.388-.482 12.333-15.343a3.56 3.56 0 0 0 .68-1.436 3.455 3.455 0 0 0 0-1.514Zm-19.074 7.675c.052.152.113.3.183.444a.864.864 0 0 0-.085.65c.268.612.594 1.197.976 1.746.213.281.41.574.59.877.044.083.102.21.144.297a1.106 1.106 0 1 1-1.99.94c-.041-.086-.1-.2-.136-.282a9.195 9.195 0 0 1-.319-1.008c-.19-.64-.444-1.26-.755-1.851a.87.87 0 0 0-.562-.34c-.035-.062-.165-.3-.235-.424a14.241 14.241 0 0 1-10.156-.026l-.25.45a.896.896 0 0 0-.474.232 7.7 7.7 0 0 0-.852 1.977 9.1 9.1 0 0 1-.317 1.009c-.035.08-.095.194-.136.28l-.002.004a1.104 1.104 0 1 1-1.987-.943c.041-.087.097-.214.14-.296a9.19 9.19 0 0 1 .59-.88c.389-.563.723-1.163.997-1.79.029-.212-.005-.429-.098-.622l.2-.48a14.321 14.321 0 0 1-6.346-7.923l-.48.081a1.22 1.22 0 0 0-.633-.223 10.31 10.31 0 0 0-1.918.565c-.322.145-.651.27-.988.378-.08.022-.194.044-.285.063l-.02.008a.16.16 0 0 1-.017.002 1.103 1.103 0 1 1-.489-2.145l.016-.004.01-.002c.092-.022.21-.053.293-.069.35-.048.703-.077 1.056-.085a10.273 10.273 0 0 0 1.973-.324c.191-.121.353-.284.473-.477l.46-.134c-.5-3.473.3-7.008 2.247-9.928l-.353-.314a1.223 1.223 0 0 0-.221-.636 10.274 10.274 0 0 0-1.637-1.15 9.168 9.168 0 0 1-.913-.533c-.066-.05-.155-.125-.227-.184l-.017-.011a1.166 1.166 0 0 1-.27-1.623 1.059 1.059 0 0 1 .876-.388c.28.012.55.114.768.29.074.058.177.137.243.194.257.242.498.5.725.77.45.493.947.943 1.484 1.34a.87.87 0 0 0 .654.064c.13.095.263.19.396.282a14.156 14.156 0 0 1 7.191-4.109c.656-.148 1.32-.25 1.99-.306l.026-.465a1.2 1.2 0 0 0 .357-.57 10.297 10.297 0 0 0-.122-1.995 9.229 9.229 0 0 1-.15-1.047c-.003-.08.001-.19.002-.281 0-.011-.003-.021-.003-.031a1.107 1.107 0 1 1 2.201-.001c0 .096.006.224.003.313-.03.351-.08.7-.151 1.046-.106.66-.148 1.328-.125 1.996.044.224.173.421.36.55.004.08.017.346.026.492a14.422 14.422 0 0 1 9.135 4.414l.419-.3c.225.04.456.014.668-.072a10.307 10.307 0 0 0 1.483-1.342c.227-.27.47-.527.727-.77.068-.058.17-.135.244-.194a1.107 1.107 0 1 1 1.371 1.72c-.074.06-.171.143-.242.196a9.13 9.13 0 0 1-.915.533c-.581.33-1.13.715-1.636 1.15a.87.87 0 0 0-.207.624c-.061.056-.276.246-.39.35a14.299 14.299 0 0 1 2.292 9.904l.445.13c.11.2.275.364.474.477.646.172 1.307.28 1.974.325.353.008.705.036 1.055.084.092.017.226.054.32.076a1.103 1.103 0 0 1 .742 1.755 1.104 1.104 0 0 1-1.231.389l-.016-.002-.022-.008c-.09-.02-.205-.04-.284-.06a9.175 9.175 0 0 1-.987-.382c-.62-.25-1.263-.439-1.92-.564a.87.87 0 0 0-.616.229 16.76 16.76 0 0 0-.47-.083 14.322 14.322 0 0 1-6.344 7.98Z" fill="#326CE5"/><path d="M48.496 35.123c-.094-.022-.228-.059-.32-.076a9.267 9.267 0 0 0-1.055-.085 10.29 10.29 0 0 1-1.974-.324 1.237 1.237 0 0 1-.474-.477l-.445-.13a14.3 14.3 0 0 0-2.292-9.904c.114-.103.33-.294.39-.35a.87.87 0 0 1 .207-.623c.507-.436 1.055-.82 1.636-1.15.315-.16.62-.338.915-.534.07-.052.168-.136.242-.195a1.106 1.106 0 1 0-1.37-1.721c-.075.06-.178.137-.244.195-.258.242-.5.499-.728.769-.45.494-.946.944-1.483 1.342a1.223 1.223 0 0 1-.668.073l-.419.299a14.422 14.422 0 0 0-9.135-4.414c-.01-.146-.022-.411-.026-.491a.872.872 0 0 1-.36-.55 10.31 10.31 0 0 1 .125-1.997c.07-.345.12-.695.15-1.046.004-.089-.001-.217-.001-.313a1.105 1.105 0 1 0-2.201.001l.002.03c0 .092-.005.203-.002.282.03.352.08.701.15 1.047.105.66.146 1.328.122 1.996a1.2 1.2 0 0 1-.357.57l-.026.465a14.36 14.36 0 0 0-1.99.306 14.156 14.156 0 0 0-7.19 4.108 18.696 18.696 0 0 1-.398-.282.869.869 0 0 1-.653-.064 10.272 10.272 0 0 1-1.484-1.34 9.202 9.202 0 0 0-.724-.77c-.067-.057-.17-.135-.244-.195a1.312 1.312 0 0 0-.768-.29 1.06 1.06 0 0 0-.877.389 1.166 1.166 0 0 0 .271 1.622l.017.012c.072.06.16.135.228.183.293.196.598.374.912.534.582.33 1.13.715 1.636 1.15.132.188.209.407.222.636l.352.314a14.24 14.24 0 0 0-2.245 9.928l-.461.134c-.12.192-.282.355-.473.477-.646.172-1.306.28-1.973.325a9.189 9.189 0 0 0-1.056.085c-.084.016-.201.045-.293.068l-.01.002-.016.005a1.103 1.103 0 0 0-.742 1.755 1.105 1.105 0 0 0 1.231.39l.017-.003.02-.007c.091-.02.206-.042.285-.064a9.26 9.26 0 0 0 .988-.378c.62-.25 1.262-.44 1.918-.565.228.014.447.092.633.224l.48-.082a14.322 14.322 0 0 0 6.346 7.923l-.2.48c.093.193.127.41.098.622a10.746 10.746 0 0 1-.996 1.79c-.213.282-.41.575-.59.88-.044.082-.1.21-.141.296a1.105 1.105 0 1 0 1.987.943l.002-.002v-.003c.041-.086.1-.198.136-.28.125-.329.231-.666.317-1.008a7.7 7.7 0 0 1 .852-1.977.894.894 0 0 1 .475-.231l.25-.451a14.242 14.242 0 0 0 10.155.025c.07.125.2.363.235.424a.87.87 0 0 1 .561.341c.312.59.565 1.21.756 1.85.087.343.194.68.32 1.01.035.08.093.195.136.281a1.108 1.108 0 0 0 1.513.627 1.106 1.106 0 0 0 .476-1.567c-.042-.087-.1-.214-.143-.297a9.158 9.158 0 0 0-.59-.877 10.267 10.267 0 0 1-.976-1.747.864.864 0 0 1 .084-.649 3.801 3.801 0 0 1-.183-.444 14.32 14.32 0 0 0 6.344-7.98c.142.022.39.065.47.082a.87.87 0 0 1 .616-.229c.657.126 1.3.315 1.92.565.32.146.65.273.987.38.08.022.193.042.284.062l.022.007.016.002a1.102 1.102 0 0 0 1.42-.803 1.104 1.104 0 0 0-.93-1.341ZM38.04 23.913l-4.703 3.335-.017-.008a.97.97 0 0 1-1.542-.74l-.005-.002-.327-5.764a11.435 11.435 0 0 1 6.594 3.18Zm-8.86 6.318h1.77l1.1 1.376-.394 1.716-1.59.765-1.594-.767-.395-1.716 1.103-1.374Zm-1.665-9.295c.387-.087.78-.155 1.174-.202l-.327 5.772-.024.012a.97.97 0 0 1-1.54.744l-.009.005-4.734-3.357a11.334 11.334 0 0 1 5.46-2.974Zm-7.176 5.132 4.322 3.865-.005.023a.97.97 0 0 1-.381 1.668l-.005.019-5.54 1.598a11.332 11.332 0 0 1 1.609-7.173Zm5.786 10.268-2.2 5.319a11.394 11.394 0 0 1-4.573-5.723l5.68-.965.01.013a.95.95 0 0 1 .644.104.97.97 0 0 1 .423 1.23l.016.022Zm6.497 6.84c-2.06.472-4.21.362-6.21-.32l2.794-5.05h.004a.971.971 0 0 1 1.71-.002h.021l2.8 5.06c-.363.121-.736.225-1.119.312Zm3.61-1.5-2.224-5.373.006-.01a.972.972 0 0 1 1.065-1.337l.01-.012 5.73.968a11.35 11.35 0 0 1-4.588 5.764Zm5.19-8.454-5.569-1.603-.005-.024a.972.972 0 0 1-.38-1.667l-.003-.011 4.298-3.847a11.545 11.545 0 0 1 1.658 7.152Z" fill="#fff"/><path fill-rule="evenodd" clip-rule="evenodd" d="M0 15.273 16.296 0 14.11 8.727h5.483L3.296 24l2.187-8.727H0Z" fill="#00ADE4"/></svg>