<svg fill="none" xmlns="http://www.w3.org/2000/svg" viewBox="0 0 18 18"><circle cx="9" cy="9" r="9" fill="#00ADE4"/><path fill-rule="evenodd" clip-rule="evenodd" d="M9.733 4.307l3.092 1.845a.956.956 0 01.46.822v3.916c.001.342-.179.658-.47.827L9.724 13.51a.908.908 0 01-.913 0l-3.09-1.792a.955.955 0 01-.471-.827V6.974c0-.338.175-.65.46-.822L8.8 4.307a.908.908 0 01.933 0zm2.778 6.859a.318.318 0 00.157-.276V6.974a.317.317 0 00-.154-.274L9.422 4.855a.302.302 0 00-.31 0L6.021 6.7a.318.318 0 00-.154.274v3.916c0 .114.06.22.157.276l3.09 1.791c.095.055.21.055.305 0l3.09-1.791zM9.268 7.014c-1.024 0-1.855.847-1.855 1.891s.83 1.89 1.855 1.89c1.024 0 1.854-.846 1.854-1.89s-.83-1.89-1.854-1.89zM8.032 8.905c0 .696.553 1.26 1.236 1.26.683 0 1.236-.564 1.236-1.26 0-.696-.553-1.26-1.236-1.26-.683 0-1.236.564-1.236 1.26z" fill="#fff"/></svg>