<svg viewBox="0 0 33 33" xmlns="http://www.w3.org/2000/svg"><path fill-rule="evenodd" clip-rule="evenodd" d="M7.023 4a.5.5 0 0 1 .683-.183l4.812 2.778a.5.5 0 1 1-.5.866L7.206 4.683A.5.5 0 0 1 7.023 4zm-2.87 2.596a.5.5 0 0 0-.5.866l4.812 2.778a.5.5 0 0 0 .5-.866L4.153 6.596zm13.594.51a.5.5 0 0 0-.5-.001l-7 4.04a.5.5 0 0 0-.25.433v7.784a.5.5 0 0 0 .248.433l7.329 4.264a.5.5 0 0 0 .502.001l7.031-4.07a.5.5 0 0 0 .25-.433v-7.749a.5.5 0 0 0-.25-.432l-7.36-4.27zm-6.75 11.969v-6.63l6.38 3.69-.046 6.626-6.335-3.686zm7.334 3.682.046-6.62 5.98-3.462v6.594l-6.026 3.488zm-.452-7.488 5.98-3.461-6.363-3.692-6 3.463 6.383 3.69zM4.153 12.64a.5.5 0 0 0-.5.866l4.812 2.778a.5.5 0 0 0 .5-.866L4.153 12.64z" fill="#0278D5"/><path d="m23.5 32.215 6.01-5.444-.447-.28-5.094 4.61v-1.09l5.658-5.118v1.099l-.563.5.446.28.602-.535v-2.123l-1.318.182 1.181-1.978v-1.866l-.262-.237-6.918 5.96v1.46l2.22-.375-1.516 2.563v2.392zm5.991-10.81v.768l-1.268 2.201-.645.09 1.913-3.06zm-6.23 5.646v-.788l2.7-.368-.567.818-2.133.338z" fill="#FD5750"/></svg>