<svg xmlns="http://www.w3.org/2000/svg" fill="none" viewBox="0 0 40 40"><g clip-path="url(#a)"><path fill="#DA1A32" d="M9.03438 27.2069v1.4591c0 1.1321.89937 2.0494 2.00932 2.0494h17.9141c1.11 0 2.0094-.9173 2.0094-2.0494v-1.4591H40v8.9324c0 2.0848-1.6723 3.7904-3.7164 3.7904H3.71641C1.67234 39.9297 0 38.2241 0 36.1393v-8.9324h9.03438Zm-.00157-11.8491v9.2126H0v-9.2128h9.03281v.0002Zm30.96719 0v9.2126h-9.0328v-9.2128H40v.0002ZM36.2836 0C38.3277 0 40 1.70566 40 3.79203v8.93087h-9.0328v-1.4592c0-1.1321-.8994-2.04936-2.0094-2.04936H11.0422c-1.11001 0-2.00939.91726-2.00939 2.04936v1.4592H0V3.79044C0 1.70566 1.67234 0 3.71641 0H36.2836Z"/></g><defs><clipPath id="a"><path fill="#fff" d="M0 0h40v40H0z"/></clipPath></defs></svg>