<svg viewBox="0 0 33 33" xmlns="http://www.w3.org/2000/svg"><path fill-rule="evenodd" clip-rule="evenodd" d="M5.454 5.715a.5.5 0 0 1 .5-.5h7.875a.5.5 0 0 1 .416.223l2.476 3.714h10.233a.5.5 0 0 1 .5.5v10.142a.5.5 0 1 1-1 0v-9.641h-7.212v1.701h1.157a.5.5 0 1 1 0 1h-1.157v1.275h1.157a.5.5 0 1 1 0 1h-1.157v1.099h1.157a.5.5 0 1 1 0 1h-1.157v1.276a.5.5 0 0 1-1 0v-1.276h-1.158a.5.5 0 0 1 0-1h1.158v-1.1h-1.158a.5.5 0 1 1 0-1h1.158v-1.274h-1.158a.5.5 0 0 1 0-1h1.158v-1.701h-1.788a.5.5 0 0 1-.416-.223L13.56 6.215H6.454v20h13.392a.5.5 0 1 1 0 1H5.954a.5.5 0 0 1-.5-.5v-21z" fill="#0278D5"/><path d="m23.5 32.215 6.01-5.444-.447-.28-5.094 4.61v-1.09l5.658-5.118v1.099l-.563.5.446.28.602-.535v-2.123l-1.318.182 1.181-1.978v-1.866l-.262-.237-6.918 5.96v1.46l2.22-.375-1.516 2.563v2.392zm5.991-10.81v.768l-1.268 2.201-.645.09 1.913-3.06zm-6.23 5.646v-.788l2.7-.368-.567.818-2.133.338z" fill="#FD5750"/></svg>