<svg fill="none" viewBox="0 0 32 32" xmlns="http://www.w3.org/2000/svg"><path clip-rule="evenodd" d="m0 16.3945c0-8.83597 7.16533-15.999969 16-15.999969 8.836 0 16 7.163999 16 15.999969 0 7.0667-4.5787 13.0627-10.932 15.1814-.812.1573-1.068-.3427-1.068-.768v-4.3907c0-1.4933-.524-2.4667-1.0973-2.9627 3.5626-.396 7.3053-1.7493 7.3053-7.8946 0-1.7467-.62-3.1747-1.6467-4.2947.1654-.4027.7134-2.03067-.1573-4.23467 0 0-1.3413-.42933-4.396 1.64-1.2787-.35467-2.648-.532-4.008-.53867-1.36.00667-2.728.184-4.004.53867-3.05733-2.06933-4.40133-1.64-4.40133-1.64-.86934 2.20267-.32134 3.83067-.156 4.23467-1.02267 1.12-1.648 2.5467-1.648 4.2947 0 6.1293 3.736 7.5013 7.28933 7.908-.4587.3986-.8733 1.1053-1.016 2.1386-.9133.4094-3.22933 1.116-4.656-1.3293 0 0-.84533-1.5373-2.452-1.6493 0 0-1.56267-.0214-.11067.972 0 0 1.04934.492 1.77734 2.3413 0 0 .92666 2.856 5.37733 1.888v2.9787c0 .4213-.2587.9173-1.0573.7693-6.3587-2.116-10.9427-8.1133-10.9427-15.1827zm15.7657-3.8052c.1572-.0925.3523-.092.5091.0013l2.6306 1.565-2.922 1.7176-2.8888-1.7132zm.7166 4.1506 2.9053-1.7078v3.0514c0 .178-.0946.3426-.2485.4321l-2.6568 1.5458zm-1-.0012v3.3188l-2.6241-1.5403c-.1529-.0897-.2469-.2538-.2469-.4312v-3.05zm1.3038-5.0075c-.4703-.2798-1.0556-.2813-1.5273-.0039l-3.4009 1.9999c-.1528.0898-.2466.2538-.2466.431v3.9278c0 .5321.2819 1.0243.7407 1.2936l3.3772 1.9824c.1557.0914.3485.0917.5045.001l3.4083-1.983c.4616-.2686.7456-.7624.7456-1.2965v-3.9253c0-.1763-.0928-.3396-.2443-.4297z" fill="#000" fill-rule="evenodd"/></svg>