<svg viewBox="0 0 33 33" fill="none" xmlns="http://www.w3.org/2000/svg"><path fill-rule="evenodd" clip-rule="evenodd" d="M25.783 20.244c-3.75 0-6.696 2.946-6.696 6.696 0 1.964.803 3.75 2.053 5 .447.446 1.25.446 1.786.09.714-.626 1.786-.983 2.857-.983 1.16 0 2.054.357 2.857.982.536.446 1.25.357 1.786-.179 1.25-1.25 2.053-2.946 2.053-4.91-.089-3.66-3.035-6.696-6.696-6.696Zm-.09 10.178c-2.053 0-3.392-1.518-3.392-3.393 0-1.875 1.34-3.393 3.393-3.393s3.393 1.518 3.393 3.393c0 1.875-1.34 3.393-3.393 3.393ZM14.485 19.508a.5.5 0 0 0 .645.644l5.109-1.933a.5.5 0 0 0 .177-.114l6.719-6.72a11.947 11.947 0 0 1 1.345 5.526.5.5 0 1 0 1 0c0-2.27-.583-4.406-1.606-6.264l2.706-2.706a.5.5 0 0 0 0-.707l-3.176-3.177a.5.5 0 0 0-.707 0l-2.438 2.438a12.944 12.944 0 0 0-7.78-2.584c-7.18 0-13 5.82-13 13 0 3.716 1.56 7.068 4.06 9.437H3.975a.5.5 0 0 0 0 1h5a.5.5 0 0 0 .5-.5V21.01a.5.5 0 0 0-1 0v4.84a11.97 11.97 0 0 1-3.997-8.94c0-6.628 5.373-12 12-12 2.642 0 5.083.853 7.065 2.299l-7.012 7.012a.5.5 0 0 0-.114.176l-1.933 5.11ZM29.52 7.588l-9.735 9.734-3.973 1.503 1.503-3.972 9.735-9.735 2.47 2.47Z" fill="#fff"/></svg>