<svg viewBox="0 0 33 33" fill="none" xmlns="http://www.w3.org/2000/svg"><path fill-rule="evenodd" clip-rule="evenodd" d="M26.154 20.244c-3.75 0-6.696 2.946-6.696 6.696 0 1.964.804 3.75 2.054 5 .446.446 1.25.446 1.785.09.715-.626 1.786-.983 2.857-.983 1.161 0 2.054.357 2.857.982.536.446 1.25.357 1.786-.179 1.25-1.25 2.053-2.946 2.053-4.91-.089-3.66-3.035-6.696-6.696-6.696Zm-.089 10.178c-2.053 0-3.393-1.518-3.393-3.393 0-1.875 1.34-3.393 3.393-3.393s3.393 1.518 3.393 3.393c0 1.875-1.34 3.393-3.393 3.393Z" fill="#81B5A1"/><path fill-rule="evenodd" clip-rule="evenodd" d="M5.118 16.954c0-6.606 5.355-11.96 11.96-11.96s11.96 5.354 11.96 11.96a.52.52 0 0 0 1.04 0c0-7.18-5.82-13-13-13s-13 5.82-13 13 5.82 13 13 13a.52.52 0 0 0 0-1.04c-6.605 0-11.96-5.355-11.96-11.96Zm6.48-.573a.52.52 0 0 1 .52-.52h3.93v-3.93a.52.52 0 0 1 1.04 0v3.93h3.93a.52.52 0 1 1 0 1.04h-3.93v3.93a.52.52 0 1 1-1.04 0V16.9h-3.93a.52.52 0 0 1-.52-.52Z" fill="#0278D5"/></svg>