<svg viewBox="0 0 32 32" fill="none" xmlns="http://www.w3.org/2000/svg"><path d="m2.498 15.953-.35-.356a.5.5 0 0 0-.005.707l.356-.351zm4.352-3.59a.5.5 0 1 0-.703-.713l.703.712zm-.707 7.99a.5.5 0 1 0 .711-.703l-.711.703zm.004-8.703-4 3.947.703.712 4-3.947-.703-.712zm-4.004 4.654 4 4.049.711-.703-4-4.048-.711.702zM29.498 15.953l.351-.356a.5.5 0 0 1 .005.707l-.356-.351zm-4.351-3.59a.5.5 0 0 1 .702-.713l-.702.712zm.707 7.99a.5.5 0 1 1-.712-.703l.712.703zm-.005-8.703 4 3.947-.702.712-4-3.947.702-.712zm4.005 4.654-4 4.049-.712-.703 4-4.048.712.702z" fill="#4F5162"/><path d="m21.486 4.527.483.13a.5.5 0 0 0-.837-.484l.354.354zM18.52 15.504l-.483-.13a.5.5 0 0 0 .483.63v-.5zm-9.054 1.044-.353-.354a.5.5 0 0 0 .353.854v-.5zm3.838 0 .483.13a.5.5 0 0 0-.483-.63v.5zm-2.967 10.977-.483-.13a.5.5 0 0 0 .837.484l-.354-.354zm12.02-12.02.354.353a.5.5 0 0 0-.353-.854v.5zM21.004 4.395l-2.967 10.978.965.26L21.97 4.658l-.966-.26zM9.82 16.901l12.02-12.02-.706-.708L9.111 16.194l.707.707zm3.484-.853H9.465v1h3.838v-1zM10.82 27.656l2.967-10.978-.965-.26-2.968 10.977.966.26zM22.003 15.15 9.983 27.17l.707.708 12.02-12.021-.707-.707zm-3.484.853h3.838v-1h-3.838v1z" fill="currentColor"/></svg>