<svg fill="none" viewBox="0 0 33 33" xmlns="http://www.w3.org/2000/svg"><g clip-rule="evenodd" fill-rule="evenodd"><path d="m26.154 20.244c-3.75 0-6.696 2.946-6.696 6.696 0 1.964.804 3.75 2.054 5 .446.446 1.25.446 1.785.09.715-.626 1.786-.983 2.857-.983 1.161 0 2.054.357 2.857.982.536.446 1.25.357 1.786-.179 1.25-1.25 2.053-2.946 2.053-4.91-.089-3.66-3.035-6.696-6.696-6.696zm-.089 10.178c-2.053 0-3.393-1.518-3.393-3.393s1.34-3.393 3.393-3.393 3.393 1.518 3.393 3.393-1.34 3.393-3.393 3.393z" fill="#81b5a1"/><path d="m5.118 16.954c0-6.606 5.355-11.96 11.96-11.96s11.96 5.354 11.96 11.96a.52.52 0 0 0 1.04 0c0-7.18-5.82-13-13-13s-13 5.82-13 13 5.82 13 13 13a.52.52 0 0 0 0-1.04c-6.605 0-11.96-5.355-11.96-11.96zm6.48-.573a.52.52 0 0 1 .52-.52h3.93v-3.93a.52.52 0 0 1 1.04 0v3.93h3.93a.52.52 0 1 1 0 1.04h-3.93v3.93a.52.52 0 1 1 -1.04 0v-3.931h-3.93a.52.52 0 0 1 -.52-.52z" fill="#0278d5"/></g></svg>