<svg width="24" height="25" viewBox="0 0 24 25" fill="none" xmlns="http://www.w3.org/2000/svg">
<g clip-path="url(#clip0_2775_319382)">
<path d="M10.6416 16.0405L9.37515 16.3929C9.48527 16.7122 9.57337 17.2849 9.57337 18.0557V21.844H10.994V17.8355C11.2583 17.5161 11.5446 17.3619 11.8529 17.3619C12.0071 17.3619 12.1283 17.395 12.2604 17.4721L12.6458 16.1616C12.4256 16.0625 12.3265 16.0405 12.1172 16.0405C11.9631 16.0405 11.7759 16.0735 11.6547 16.1286C11.3904 16.2607 11.06 16.558 10.8508 16.8444C10.8508 16.525 10.7737 16.2717 10.6416 16.0405ZM5.75206 14.1683H5.59789V21.833H7.07355V18.4412H8.93465V17.1747H7.07355V15.4127H9.39717L9.48527 14.741C8.08669 14.6419 6.82027 14.4216 5.75206 14.1683ZM2.30517 22.8571L2.98794 23.65C3.64869 23.3857 4.47462 22.7911 4.69487 21.844C4.77196 21.5357 4.79398 21.3374 4.79398 20.3353V14.1794H3.3073V20.5005C3.3073 21.3264 3.27427 21.6348 3.16414 21.9211C3.02098 22.2404 2.67959 22.6149 2.30517 22.8571ZM15.7073 18.9698C15.7073 20.3133 15.443 20.8859 14.8373 20.8859C14.562 20.8859 14.2536 20.7317 14.1215 20.4234C14.0114 20.1371 13.9453 19.6525 13.9453 18.9918C13.9453 18.4302 14.0004 18.0337 14.0885 17.7254C14.1986 17.373 14.4739 17.1527 14.8153 17.1527C15.0686 17.1527 15.2888 17.2628 15.421 17.45C15.6192 17.7143 15.7073 18.2099 15.7073 18.9698ZM16.5773 21.1722C17.0398 20.6216 17.249 19.9499 17.249 18.9808C17.249 18.0667 17.0618 17.439 16.6323 16.9104C16.1698 16.3378 15.5751 16.0625 14.8043 16.0625C13.3506 16.0625 12.3815 17.2408 12.3815 19.0248C12.3815 20.8088 13.3396 21.9541 14.8043 21.9541C15.6302 21.9651 16.1698 21.6568 16.5773 21.1722ZM20.6078 18.0007C20.6078 18.5182 20.2995 18.8046 19.7488 18.8046C19.2533 18.8046 18.9229 18.5733 18.9229 18.0007C18.9229 17.4721 19.2313 17.1637 19.7599 17.1637C20.2885 17.1637 20.6078 17.4721 20.6078 18.0007ZM23.1076 16.7893L22.524 15.8532C22.1936 16.1616 21.7972 16.3378 21.4117 16.3378C21.2355 16.3378 21.1364 16.3158 20.751 16.2167C20.3655 16.1065 20.0902 16.0735 19.7819 16.0735C18.4053 16.0735 17.5133 16.8223 17.5133 17.9897C17.5133 18.8266 17.8877 19.3552 18.6696 19.5644C18.3503 19.6415 18.0089 19.8067 17.8547 19.9939C17.7446 20.1261 17.6895 20.3023 17.6895 20.5115C17.6895 20.6877 17.7336 20.8419 17.7996 20.974C17.8767 21.0952 17.9758 21.1943 18.108 21.2493C18.3613 21.3484 18.7687 21.4145 19.3964 21.4255C19.7268 21.4255 19.925 21.4365 19.9911 21.4365C20.3766 21.4586 20.5748 21.5246 20.729 21.6017C20.8721 21.6898 20.9822 21.8881 20.9822 22.1083C20.9822 22.3285 20.8501 22.5488 20.6409 22.6809C20.4536 22.8131 20.1453 22.8682 19.7488 22.8682C19.0991 22.8682 18.7357 22.6259 18.7357 22.1744C18.7357 21.9762 18.7577 21.9321 18.8018 21.811H17.5023C17.4473 21.9211 17.3812 22.0753 17.3812 22.3836C17.3812 22.769 17.5243 23.0994 17.8217 23.3857C18.3062 23.8593 19.0991 23.9914 19.859 23.9914C20.6959 23.9914 21.5108 23.7932 21.9844 23.2646C22.2817 22.9342 22.4139 22.5708 22.4139 22.0973C22.4139 21.5907 22.2707 21.2053 21.9513 20.8859C21.5769 20.5225 21.1474 20.3904 20.3215 20.3793L19.5616 20.3683C19.4185 20.3683 19.3304 20.3133 19.3304 20.2362C19.3304 20.082 19.5286 19.9499 19.892 19.7737C20.0021 19.7847 20.0352 19.7847 20.1012 19.7847C21.2465 19.7847 22.0835 19.0799 22.0835 18.0998C22.0835 17.7254 21.9734 17.439 21.7641 17.1747C21.9403 17.1968 21.9954 17.2078 22.1275 17.2078C22.502 17.2078 22.7993 17.0866 23.1076 16.7893ZM5.37764 7.50583C3.61565 7.93531 2.4153 8.78327 2.4153 9.75236C2.4153 10.358 2.87782 10.9087 3.63768 11.3382C3.40641 10.9747 3.28528 10.5783 3.28528 10.1818C3.29629 9.17972 4.07817 8.24366 5.37764 7.50583ZM23.9666 11.3051C23.9666 10.6664 23.5702 10.0827 22.9094 9.59819C22.9645 9.79641 23.0085 9.99464 23.0085 10.1929C23.0085 12.0099 20.4647 13.5737 16.8526 14.2234C17.26 14.2675 17.6785 14.2895 18.119 14.2895C21.3456 14.2785 23.9666 12.946 23.9666 11.3051ZM21.8853 10.314C21.8853 9.64224 21.3126 9.02554 20.3325 8.51897C20.5638 8.79428 20.6849 9.09162 20.6849 9.39997C20.6849 11.0188 17.249 12.3293 12.9982 12.3293C8.75845 12.3293 5.31156 11.0188 5.31156 9.39997C5.31156 9.19073 5.36663 8.99251 5.47675 8.80529C4.79398 9.2568 4.40854 9.77439 4.40854 10.325C4.40854 12.076 8.31795 13.4966 13.1414 13.4966C17.9648 13.4966 21.8853 12.054 21.8853 10.314ZM18.075 10.2259C16.2909 11.3712 10.8068 11.8117 8.4501 10.336C6.60002 9.17972 7.23874 7.34064 1.94176 3.3101C1.24798 2.7815 2.07391 2.21987 2.5915 2.58328C3.10908 2.94669 2.63555 3.03479 3.68173 4.08097C5.79611 6.19535 5.77408 4.2902 6.10446 5.01702C6.80925 6.52572 8.35099 8.04544 8.35099 8.04544C9.90374 9.05858 11.1371 9.27883 13.4277 7.72608C14.8814 6.74597 14.2867 9.28984 17.8437 7.45077C19.1432 6.77901 19.0881 7.23052 20.4096 5.39144C20.9602 4.63159 22.0064 5.9751 20.817 6.16231C20.3435 6.2394 19.5396 6.75699 19.1982 7.5719C18.7027 8.79428 18.9119 9.6973 18.075 10.2259ZM8.18581 7.1204C7.74531 6.92217 7.28279 6.17333 7.10659 5.87599C7.60215 5.39145 7.40392 4.58754 7.1176 4.14704C6.84229 3.70655 6.5009 3.82768 6.1375 3.42022C5.76307 3.01276 6.28066 1.95557 6.75419 2.77049C8.52719 5.82093 9.69451 4.5545 11.1371 4.36729C12.5247 4.19109 13.7581 4.95095 14.1325 2.80353C14.1986 2.45113 14.54 2.37404 14.573 2.94669C14.606 3.53035 14.8263 4.93994 15.5862 5.11613C16.346 5.30335 16.9627 4.93994 17.1389 4.74171C17.3151 4.54349 17.4142 4.56551 17.4913 5.07209C17.5684 5.56764 17.7666 6.26143 18.8348 5.49056C21.0263 3.92679 20.3986 3.32111 21.2575 2.91365C21.7421 2.68239 22.513 3.43123 21.4007 3.99287C19.8149 4.79677 19.6497 5.78789 18.6476 6.4156C16.9627 7.47279 17.4803 6.45965 14.7712 6.07422C13.7251 5.93105 13.3947 7.08736 12.5798 6.75699C10.7187 5.98612 9.40818 6.14029 8.18581 7.1204ZM14.0554 1.47102C14.1215 1.93355 14.1986 1.92253 14.3638 1.95557C14.529 1.99962 14.7382 1.73532 14.7382 1.49305C14.7492 1.23976 14.6281 1.08559 14.3858 1.0966C14.1325 1.10761 14.0444 1.22875 14.0554 1.47102ZM22.2046 2.29696C22.4028 2.48417 22.9314 2.36303 23.0526 2.21987C23.3719 1.86747 23.3829 1.65823 23.2178 1.41596C23.0526 1.1847 22.7112 1.21774 22.3698 1.47102C22.0284 1.72431 22.0945 2.19784 22.2046 2.29696ZM22.0615 4.63159C21.8963 4.85184 21.8853 5.01702 22.0064 5.13816C22.1385 5.27031 22.4028 5.38043 22.5901 5.23727C22.7773 5.0831 22.7773 4.86285 22.6231 4.67564C22.4579 4.47741 22.2377 4.47741 22.0615 4.63159ZM5.3446 1.87848C5.59789 1.95557 5.71902 2.19784 5.92826 1.92253C6.03838 1.79038 6.0494 1.60317 5.90623 1.40495C5.81814 1.28381 5.39966 1.19571 5.22346 1.37191C5.04727 1.54811 5.21245 1.83443 5.3446 1.87848ZM0.179776 1.72431C0.642297 2.01063 0.939633 2.44012 1.29203 2.05468C1.41317 1.92253 1.55633 1.69127 1.30304 1.22875C1.11583 0.887366 0.510148 0.755217 0.300912 0.887366C0.080664 1.0085 -0.183634 1.50406 0.179776 1.72431ZM4.44158 3.91578C4.58474 4.06996 4.83803 4.05894 4.9922 3.97084C5.13536 3.88274 5.11334 3.65148 4.97018 3.45326C4.88208 3.33212 4.61778 3.26605 4.44158 3.45326C4.26538 3.64047 4.34247 3.80566 4.44158 3.91578Z" fill="#41BF47"/>
</g>
<defs>
<clipPath id="clip0_2775_319382">
<rect width="24" height="24" fill="white" transform="translate(0 0.414062)"/>
</clipPath>
</defs>
</svg>
