<svg fill="none" viewBox="0 0 33 32" xmlns="http://www.w3.org/2000/svg" xmlns:xlink="http://www.w3.org/1999/xlink"><linearGradient id="a" gradientUnits="userSpaceOnUse" x1="16.0921" x2="16.0921" y1="1.7584" y2="30.1974"><stop offset="0" stop-color="#4387fd"/><stop offset="1" stop-color="#4683ea"/></linearGradient><clipPath id="b"><path d="m.092102 0h32v32h-32z"/></clipPath><g clip-path="url(#b)"><path d="m7.04209 28.8062-6.5625-11.3687c-.5125002-.8875-.5125002-1.9875 0-2.875l6.5625-11.36877c.5125-.8875 1.4625-1.4375 2.4875-1.4375h13.12501c1.025 0 1.975.55 2.4875 1.4375l6.5625 11.36877c.5125.8875.5125 1.9875 0 2.875l-6.5625 11.3687c-.5125.8875-1.4625 1.4375-2.4875 1.4375h-13.12501c-1.025 0-1.975-.55-2.4875-1.4375z" fill="url(#a)"/><path d="m31.4421 18.7125-7.3375-7.3438-3.075-.7437-.475.4875 2.3687 2.3687.0063 3.2438-4.8875-4.8812-3.8875-.0313-2.5-2.5-2.68752 2.25-.9 9.0562 9.95622 9.9501 6.4438-.0063z" fill="#000" opacity=".07"/><g fill="#fff"><path d="m20.5421 9.30627v1.77503l2.05 1.1812v7.475l-2.05 1.1813v1.775l3.6125-2.0875v-9.2125z"/><path d="m14.0921 14.1562 2 1.1563 2-1.1563v-2.3124l-2-1.1563-2 1.1563z"/><path d="m16.7171 18.6562 2 1.1563 2-1.1563v-2.3124l-2-1.1563-2 1.1563z"/><path d="m11.4671 18.6562 2 1.1563 2-1.1563v-2.3124l-2-1.1563-2 1.1563z"/><path d="m11.6421 9.30627v1.77503l-2.05 1.1812v7.475l2.05 1.1813v1.775l-3.6125-2.0875v-9.2125z"/></g></g></svg>