<svg viewBox="0 0 33 32" xmlns="http://www.w3.org/2000/svg"><path fill-rule="evenodd" clip-rule="evenodd" d="M14.745 5.325a.5.5 0 0 0-.701-.713l-3.071 3.022a.5.5 0 0 0 0 .713l3.071 3.022a.5.5 0 0 0 .701-.713l-2.2-2.165h14.241a.5.5 0 0 1 .5.5v9.306a.5.5 0 0 0 1 0V8.992a1.5 1.5 0 0 0-1.5-1.5H12.544l2.201-2.166zm-8.57 8.606a.5.5 0 1 0-1 0v11.96a1.5 1.5 0 0 0 1.5 1.5h12.681a.5.5 0 1 0 0-1H6.674a.5.5 0 0 1-.5-.5V13.93zm6.511 4.574a4.5 4.5 0 1 1 9 0 4.5 4.5 0 0 1-9 0zm4.5-5.5a5.5 5.5 0 1 0 0 11 5.5 5.5 0 0 0 0-11zm0 2a.5.5 0 0 1 .5.5v2.793l1.555 1.555a.5.5 0 1 1-.707.707l-1.698-1.698a.499.499 0 0 1-.15-.357v-3a.5.5 0 0 1 .5-.5z" fill="#fff"/><path d="m23.773 32 6.01-5.443-.447-.28-5.094 4.61v-1.09l5.658-5.119v1.099l-.564.5.447.28.602-.535v-2.123l-1.318.182 1.181-1.978v-1.866L29.986 20l-6.918 5.96v1.46l2.22-.375-1.516 2.563V32zm5.991-10.81v.768l-1.268 2.201-.645.09 1.913-3.06zm-6.23 5.646v-.788l2.7-.368-.567.818-2.134.338z" fill="#fff"/></svg>