<svg enable-background="new 0 0 12 14" viewBox="0 0 12 14" xmlns="http://www.w3.org/2000/svg"><path d="m6.2.3c.4.2.8.4 1.2.7.8.4 1.6.9 2.3 1.4.6.3 1.2.7 1.8 1 .2.1.4.4.4.6v6c0 .3-.1.5-.4.6-.7.4-1.5.9-2.2 1.3s-1.5.9-2.2 1.3c-.2.1-.5.3-.7.4-.3.1-.5.1-.8 0-.7-.4-1.4-.8-2.1-1.2-.8-.5-1.6-.9-2.4-1.4-.3-.2-.5-.3-.8-.5-.2-.1-.3-.3-.3-.5 0-1.1 0-2.1 0-3.2 0-.1 0-.1.1 0 1.2.7 2.4 1.4 3.7 2.1.6.3 1.2.7 1.8 1h.1c0-.9 0-1.7 0-2.6 0-.1 0-.1-.1-.1-.5-.4-1.1-.7-1.6-1-.6-.4-1.3-.8-1.9-1.1-.7-.4-1.3-.8-2-1.2.1-.2.2-.4.4-.5.7-.4 1.3-.8 2-1.2l1.5-.9c.6-.3 1.1-.6 1.7-1 .1 0 .1 0 .2-.1.1.1.2.1.3.1z" fill="#71b9d9"/><g fill="#fefefe"><path d="m.6 7.6c.3.2.6.4.9.5.7.4 1.4.8 2.1 1.2s1.4.8 2.1 1.2c.2.1.4.1.6 0 .9-.5 1.7-1 2.5-1.4.2-.1.3-.1.3-.3.1-.1.1-.2.1-.3 0-1 0-2.1 0-3.1 0-.2-.1-.3-.2-.4-.8-.4-1.5-.9-2.3-1.3-.2-.1-.3-.2-.4-.3-.2-.1-.3-.1-.5 0-.9.5-1.8 1.1-2.7 1.6h-.1c-.7-.4-1.4-.8-2.1-1.2.1-.1.3-.2.4-.3 1-.6 2-1.2 3-1.8.5-.3 1.1-.6 1.6-.9h.2c1.1.6 2.1 1.2 3.2 1.9.6.4 1.3.7 1.9 1.1.1.1.1.1.1.2v3 2.9c0 .1 0 .2-.1.2-1.2.7-2.3 1.3-3.5 2-.5.3-1.1.6-1.6.9-.1 0-.2 0-.2 0-.5-.3-1.1-.6-1.6-.9-.8-.5-1.6-.9-2.3-1.4-.4-.2-.8-.4-1.2-.7-.1 0-.1-.1-.1-.2-.1-.6-.1-1.3-.1-2.2 0 .1 0 .1 0 0z"/><path d="m3.6 5.3c.3-.2.5-.3.8-.5.5-.3 1-.6 1.5-.9h.1c.8.4 1.6.9 2.3 1.3-.1.2-.2.3-.4.4-.6.4-1.3.7-1.9 1.1h-.1c-.7-.4-1.4-.9-2.1-1.3-.1 0-.1 0-.2-.1z"/><path d="m8.7 5.8v2.7c0 .1 0 .1-.1.1-.7.4-1.5.8-2.3 1.3-.1 0-.1 0-.1 0 0-.9 0-1.8 0-2.6 0 0 0-.1.1-.1.8-.5 1.6-.9 2.4-1.4-.1 0 0 0 0 0z"/></g></svg>