<svg enable-background="new 0 0 14 14" viewBox="0 0 14 14" xmlns="http://www.w3.org/2000/svg"><g fill="#277a9e"><path d="m7.5 1.3c0 .2 0 .4-.1.6 0 .1 0 .2.1.2.7.1 1.4.3 2 .7.1.1.2 0 .2-.1.2-.5.5-.9.9-1.2.2-.1.3-.3.5-.1.2.1.1.4.1.6-.1.5-.4.9-.8 1.2-.2.1-.1.2 0 .3.3.2.5.5.7.8.1.1.1.2-.1.2-.2.1-.3.3-.5.3s-.2-.3-.3-.4c-1.7-2.1-5-2.1-6.7.2-.1.1-.2.2-.3 0-.5-.3-.5-.3-.2-.7.1-.2.3-.3.5-.5.1-.1.1-.2 0-.3-.3-.3-.6-.7-.7-1.2-.1-.1-.2-.4 0-.5s.4 0 .5.1c.5.3.7.7.9 1.1.1.1.1.2.3.1.6-.4 1.2-.6 1.9-.6.2 0 .2-.1.2-.2-.1-.5-.1-1 0-1.4.1-.2.2-.5.4-.5.3 0 .3.3.4.5s.1.5.1.8z"/><path d="m9.7 11.2c-.7.4-1.3.7-2.1.8-.2 0-.2.1-.1.2.1.5.1.9-.1 1.4-.1.2-.2.4-.4.4s-.3-.2-.3-.4c-.2-.4-.2-.9-.1-1.4 0-.2 0-.2-.2-.2-.7-.1-1.4-.3-1.9-.6-.2-.1-.2 0-.2.1-.2.4-.5.8-.8 1-.2.1-.3.3-.5.1-.2-.1-.1-.4-.1-.5.1-.4.4-.8.7-1.2.1-.1.1-.2 0-.3-.2-.2-.4-.4-.5-.6-.3-.1-.2-.1-.1-.2.2-.1.3-.3.5-.3s.3.2.4.4c1.8 1.9 4.8 1.8 6.4-.2.1-.2.2-.2.4-.1.5.3.5.3.1.8-.1.1-.3.2-.3.3s.2.2.3.3c.3.3.5.6.6 1v.3c0 .2-.1.3-.4.2s-.5-.4-.8-.6c-.2-.1-.3-.4-.5-.7z"/><path d="m12 7.4c.2-.7.5-1.3.7-1.9.1-.1.1-.2.3-.2s.4 0 .7 0c.1 0 .1 0 .1.1v3.3c0 .1 0 .1-.1.1-.2 0-.5.1-.7 0s0-.4 0-.7c0-.4 0-.9 0-1.3-.1.2-.2.5-.3.7-.1.3-.2.5-.3.8 0 .1-.1.2-.3.2-.1 0-.2 0-.3-.2-.2-.5-.4-1-.6-1.5v1.7c0 .2 0 .2-.2.2s-.5.1-.6-.1c-.1-.1 0-.4 0-.6 0-.9 0-1.8 0-2.7 0-.2.1-.2.2-.2.3 0 .6-.1.7 0 .2.1.2.4.3.7 0 .7.2 1.1.4 1.6z"/><path d="m3.3 7.1v1.6c0 .2 0 .2-.2.2s-.4 0-.6 0-.2-.1-.2-.2c0-.4 0-.7 0-1.1 0-.1 0-.2-.2-.2-.3 0-.5 0-.8 0-.1 0-.2.1-.2.2v1.1c0 .1 0 .2-.2.2s-.4 0-.6 0c-.1 0-.2 0-.2-.2 0-1.1 0-2.2 0-3.3 0-.1 0-.2.2-.2s.4 0 .6 0c.1 0 .2 0 .2.2v1c0 .2 0 .2.2.2s.5 0 .7 0 .2 0 .2-.2c0-.3 0-.6 0-1 0-.1 0-.2.2-.2h.5c.2 0 .2 0 .2.2.2.7.2 1.2.2 1.7z"/><path d="m4.1 7.1c0-.5 0-1.1 0-1.6 0-.2 0-.2.2-.2h1.9c.1 0 .2 0 .2.2 0 .6 0 .6-.6.6-.2 0-.4 0-.6 0-.1 0-.2 0-.2.2 0 .4 0 .4.4.4h.5c.3 0 .3.1.3.3 0 .5 0 .5-.5.5-.1 0-.2 0-.2 0-.5 0-.5 0-.5.5 0 .1 0 .2.2.2h1.1c.1 0 .2 0 .2.2 0 .6 0 .6-.6.6-.5 0-1 0-1.5 0-.2 0-.3 0-.3-.3 0-.6 0-1.1 0-1.6z"/><path d="m7.2 7.1c0-.5 0-1.1 0-1.6 0-.2 0-.3.2-.2.2 0 .5-.1.7.1.1.1 0 .4 0 .7v1.9c0 .2 0 .2.2.2h1c.1 0 .2 0 .2.2 0 .6 0 .6-.6.6-.5 0-1 0-1.5 0-.2 0-.2-.1-.2-.2 0-.6 0-1.1 0-1.7z"/></g></svg>