<svg xmlns="http://www.w3.org/2000/svg" fill="none" viewBox="0 0 16 16">
  <path fill="currentColor" fill-rule="evenodd" d="M11 3.75a.75.75 0 1 1-1.5 0 .75.75 0 0 1 1.5 0Zm.928-.5a1.75 1.75 0 0 0-3.356 0H2.5a.5.5 0 0 0 0 1h6.072a1.75 1.75 0 0 0 3.356 0H13.5a.5.5 0 0 0 0-1h-1.572ZM5.332 8.5a1.75 1.75 0 1 1 .15-1H13.5a.5.5 0 0 1 0 1H5.332ZM2.5 11.75a.5.5 0 0 0 0 1h3.072a1.75 1.75 0 0 0 3.356 0H13.5a.5.5 0 0 0 0-1H8.928a1.75 1.75 0 0 0-3.356 0H2.5Zm4.75-.25a.75.75 0 1 1 0 1.5.75.75 0 0 1 0-1.5ZM4.5 7.75a.75.75 0 1 1-1.5 0 .75.75 0 0 1 1.5 0Z" clip-rule="evenodd"/>
</svg>
