<svg  viewBox="0 0 32 32" xmlns="http://www.w3.org/2000/svg"><path fill-rule="evenodd" clip-rule="evenodd" d="M15.55 3.594c-1.1-.253-2.019.036-2.686.598-.649.547-1.041 1.333-1.17 2.077l-1.035 5.243a.5.5 0 0 1-.49.404H4.426a1.5 1.5 0 0 0-1.5 1.5v11.586a1.5 1.5 0 0 0 1.5 1.5H14.84a.5.5 0 0 0 0-1h-4.575V12.998a.506.506 0 0 0-.007-.085 1.5 1.5 0 0 0 1.382-1.207l1.036-5.25.002-.011c.093-.544.383-1.11.83-1.488.432-.364 1.03-.57 1.818-.388.823.189 1.174.63 1.332 1.108.172.518.128 1.126.037 1.6l-.742 3.856a1.5 1.5 0 0 0 1.473 1.783h10.175a.5.5 0 0 1 .492.592l-.735 3.91a.5.5 0 1 0 .983.185l.734-3.91a1.5 1.5 0 0 0-1.474-1.777H17.426a.5.5 0 0 1-.49-.595l.74-3.855c.104-.538.183-1.346-.069-2.105-.265-.8-.886-1.497-2.057-1.767Zm-6.278 9.322a.503.503 0 0 0-.007.082v12.504h-4.84a.5.5 0 0 1-.5-.5V13.416a.5.5 0 0 1 .5-.5h4.847Z" fill="#fff"/><path d="M22.254 20.08a2.68 2.68 0 0 1 1.901-.778h.002c.989.013 1.847.533 2.3 1.3l.007.012a3.14 3.14 0 0 1 1.28-.268h.034-.001c1.785.022 3.223 1.405 3.223 3.107 0 1.705-1.444 3.09-3.232 3.106h-.002a3.83 3.83 0 0 1-.66-.065l.023.003a2.368 2.368 0 0 1-2.057 1.16h-.006a2.583 2.583 0 0 1-1.046-.228l.015.006C23.614 28.363 22.66 29 21.55 29c-1.156 0-2.141-.691-2.526-1.664l-.006-.017c-.14.029-.3.046-.465.046h-.053.002C17.12 27.356 16 26.287 16 24.97v-.017.001c0-.886.5-1.66 1.245-2.082l.011-.007a2.544 2.544 0 0 1-.243-1.093v-.005C17.014 20.239 18.315 19 19.919 19h.01c.937 0 1.772.416 2.31 1.065l.005.006.01.009Z" fill="#fff"/></svg>