<svg xmlns="http://www.w3.org/2000/svg" viewBox="0 0 32 32"><path fill="#189CD7" d="M8.743 8.697c1.77-.635 3.856-.15 5.125 1.19l.159.166c.993-.888 2.166-1.299 3.543-1.126 1.37.171 2.359.873 3.057 1.9.447-.103.875-.247 1.316-.297 2.138-.245 3.839.454 5.008 2.088 1.837 2.568.522 6.017-2.644 7.023a5 5 0 0 1-.46.122q.016-.117.016-.24c0-1.11-.915-2.006-2.037-2.006s-2.037.895-2.037 2.007c0 .593.262 1.123.675 1.49-.596.363-1.3.544-2.109.527-.51-.011-1.015-.166-1.486-.248-.314.377-.603.82-.99 1.175-2.1 1.915-5.697 1.259-6.842-1.235-.07-.153-.152-.189-.326-.165-2.147.297-4.224-1.145-4.467-3.098-.188-1.513.407-2.711 1.775-3.59.117-.075.147-.135.087-.253-.06-.12-.096-.25-.147-.392-.594-2.154.565-4.241 2.784-5.038"/><path fill="#0278D5" stroke="#fff" d="M28.174 17.23c1.277 0 2.326 1.02 2.326 2.296 0 .936-.566 1.733-1.37 2.092v.396c0 1.276-1.05 2.296-2.326 2.296h-3.607a.406.406 0 0 0-.413.399v1.402a2.3 2.3 0 0 1 1.368 2.094c0 1.275-1.05 2.295-2.326 2.295S19.5 29.48 19.5 28.205c0-.936.566-1.735 1.37-2.094v-4.493a2.29 2.29 0 0 1-1.37-2.092c0-1.276 1.05-2.296 2.326-2.296s2.326 1.02 2.326 2.296c0 .935-.565 1.733-1.369 2.092v.83q.203-.035.414-.035h3.607a.406.406 0 0 0 .413-.399v-.396a2.29 2.29 0 0 1-1.37-2.092c0-1.276 1.05-2.296 2.327-2.296Zm-6.348 10.576a.406.406 0 0 0-.413.399c0 .211.177.397.413.397a.406.406 0 0 0 .413-.397.406.406 0 0 0-.413-.399Zm0-8.679a.406.406 0 0 0-.413.399c0 .212.177.397.413.397a.405.405 0 0 0 .413-.397.406.406 0 0 0-.413-.399Zm6.348 0a.406.406 0 0 0-.413.399c0 .212.177.397.413.397a.405.405 0 0 0 .413-.397.406.406 0 0 0-.413-.399Z"/><path fill="#0278D5" stroke="#0278D5" stroke-width=".2" d="M14.991 24.014c.091 0 .173.032.238.096l.041.052a.33.33 0 0 1 .055.185v2.703h2.657l-.817-.816a.32.32 0 0 1-.1-.237.35.35 0 0 1 .098-.23l.002-.003.052-.043a.32.32 0 0 1 .418.038l1.356 1.357a.36.36 0 0 1 .108.268.4.4 0 0 1-.005.07l-.018.07a.4.4 0 0 1-.085.127L17.645 29a.33.33 0 0 1-.475 0v-.001a.32.32 0 0 1 0-.469l.811-.811h-2.66a.64.64 0 0 1-.469-.195.64.64 0 0 1-.194-.469v-2.707a.326.326 0 0 1 .333-.333Z"/></svg>