<svg viewBox="0 0 33 32" fill="none" xmlns="http://www.w3.org/2000/svg"><path fill-rule="evenodd" clip-rule="evenodd" d="M4.191 5.547a1 1 0 0 1 1-1h21.62a1 1 0 0 1 1 1V19.22a.5.5 0 1 1-1 0V5.547H5.19v18h14.83a.5.5 0 1 1 0 1H5.19a1 1 0 0 1-1-1v-18Zm4.647 4.555a.5.5 0 0 1 .684-.18l5.977 3.495a.5.5 0 0 1 0 .864L9.52 17.753a.5.5 0 0 1-.502-.865l5.235-3.04-5.237-3.062a.5.5 0 0 1-.179-.684Zm9.318 6.718a.5.5 0 1 0 0 1h5.429a.5.5 0 1 0 0-1h-5.429Z" fill="#fff"/><path d="M22.133 19.678a2.943 2.943 0 0 1 2.9.517 2.594 2.594 0 0 1 1.83-.425c.723.094 1.277.44 1.687.93.133-.034.28-.068.416-.084 1.258-.15 2.31.289 3.018 1.315 1.14 1.653.3 3.839-1.6 4.465a3.003 3.003 0 0 1-1.255.14c-.474.592-1.137.907-1.942.889a2.596 2.596 0 0 1-.477-.063c-.022-.004-.042-.01-.062-.013l-.046.062a2.997 2.997 0 0 1-.32.365c-1.246 1.18-3.34.868-4.167-.585-1.254.055-2.444-.835-2.595-2.091-.057-.48.004-.935.2-1.348.156-.326.388-.606.68-.844-.356-1.388.38-2.727 1.733-3.23Z" fill="#fff" stroke="#0278D5"/></svg>