<svg viewBox="0 0 24 25" fill="none" xmlns="http://www.w3.org/2000/svg"><g clip-path="url(#a)" fill="#189CD7"><path d="M4.68 17.413H2.918V8.028c.012-.011.041-.062.07-.061 1.417.018 2.843-.06 4.248.082 3.08.31 4.209 2.38 3.981 5.133C11 15.792 9.352 17.27 6.659 17.4c-.639.03-1.279.01-1.978.014Zm1.246-8.028H4.688V16c.786-.045 1.54-.043 2.283-.14 1.33-.174 2.16-.946 2.338-2.264.094-.697.05-1.436-.067-2.134-.186-1.104-.95-1.716-2.015-1.948-.386-.084-.79-.089-1.3-.13ZM12.727 16.943c-.335-.613-.174-1.053.246-1.531.763-.869 1.453-1.802 2.193-2.732-.736-.927-1.424-1.86-2.187-2.73-.434-.494-.585-.95-.265-1.542.1-.186.149-.4.257-.701l2.182 2.645c.127.154.229.342.384.459.934.699.809 1.7.776 2.672a.666.666 0 0 1-.155.37c-1.032 1.245-2.072 2.483-3.166 3.789a28.58 28.58 0 0 1-.265-.699ZM18.094 11.038c.916-1.11 1.803-2.189 2.747-3.335.175.506.357.939.46 1.39.034.146-.106.363-.219.507-.797 1.023-1.607 2.035-2.436 3.08.772.97 1.502 1.944 2.297 2.862.352.406.416.76.198 1.226-.122.261-.19.548-.305.894-1.1-1.314-2.164-2.557-3.193-3.827-.405-.502-.128-2.089.451-2.797Z"/></g><defs><clipPath id="a"><path fill="#fff" transform="translate(0 .5)" d="M0 0h24v24H0z"/></clipPath></defs></svg>