<svg viewBox="0 0 32 32" fill="none" xmlns="http://www.w3.org/2000/svg"><path fill-rule="evenodd" clip-rule="evenodd" d="M14.07 4.37a.5.5 0 0 1-.003.707l-2.194 2.178h13.641a1.5 1.5 0 0 1 1.5 1.5L27 17a.5.5 0 0 1-.5.5.488.488 0 0 1-.486-.5V8.755a.5.5 0 0 0-.5-.5H11.873l2.194 2.177a.5.5 0 0 1-.704.71L10.306 8.11a.5.5 0 0 1 0-.71l3.056-3.033a.5.5 0 0 1 .707.003Zm-9.556 8.846a.5.5 0 0 1 .5.5v12.006a.5.5 0 0 0 .5.5h8.383a.5.5 0 1 1 0 1H5.514a1.5 1.5 0 0 1-1.5-1.5V13.716a.5.5 0 0 1 .5-.5Z" fill="#0278D5"/><g clip-path="url(#a)" fill="#189CD7"><path d="M17.923 27.243H16.58v-7.15c.01-.009.032-.047.054-.047 1.08.014 2.166-.045 3.236.063 2.347.236 3.207 1.813 3.034 3.91-.165 1.99-1.42 3.115-3.473 3.214-.486.023-.974.008-1.507.01Zm.95-6.117h-.944v5.041c.599-.034 1.174-.033 1.739-.106 1.013-.133 1.646-.72 1.782-1.725a5.509 5.509 0 0 0-.052-1.626c-.141-.841-.723-1.308-1.534-1.484-.295-.064-.603-.068-.992-.1ZM24.054 26.885c-.255-.466-.133-.802.187-1.166.582-.662 1.108-1.373 1.671-2.082-.56-.706-1.085-1.418-1.666-2.08-.331-.377-.446-.724-.202-1.175.077-.141.114-.304.196-.534l1.662 2.015c.097.118.175.261.293.35.712.532.616 1.295.592 2.036a.508.508 0 0 1-.118.282c-.787.948-1.58 1.891-2.413 2.886-.078-.2-.136-.349-.202-.532ZM28.143 22.386l2.093-2.54c.133.384.272.715.35 1.058.027.111-.08.277-.166.387-.607.779-1.225 1.55-1.857 2.346.589.74 1.145 1.482 1.75 2.18.269.31.318.58.152.935-.094.199-.145.418-.233.68-.838-1-1.649-1.947-2.432-2.915-.31-.382-.098-1.591.343-2.13Z"/></g><defs><clipPath id="a"><path fill="#fff" transform="translate(15.5 15.5)" d="M0 0h16v16H0z"/></clipPath></defs></svg>