<svg viewBox="0 0 32 32" xmlns="http://www.w3.org/2000/svg"><path d="M8.167 16.2a28.761 28.761 0 0 1 2.083-4.233A28.342 28.342 0 0 1 13 8.133l-1.733-.366a2.574 2.574 0 0 0-1.3.066 2.67 2.67 0 0 0-1.1.667l-4.2 4.2a1.305 1.305 0 0 0-.384 1.2c.078.467.34.789.784.967l3.1 1.333Zm19.6-13a13.751 13.751 0 0 0-6.717 1.367A20.662 20.662 0 0 0 15.367 8.6a21.476 21.476 0 0 0-2.817 3.467A26.743 26.743 0 0 0 10.433 16a2.44 2.44 0 0 0-.166.883c0 .3.11.561.333.784l4.167 4.166c.222.223.483.334.783.334.3 0 .595-.056.883-.167a26.754 26.754 0 0 0 3.934-2.117c1.244-.81 2.4-1.75 3.466-2.816a20.664 20.664 0 0 0 4.034-5.684 13.751 13.751 0 0 0 1.366-6.716c0-.178-.044-.356-.133-.534a1.78 1.78 0 0 0-.333-.466 1.779 1.779 0 0 0-.467-.334 1.183 1.183 0 0 0-.533-.133ZM19.3 13.133c-.511-.51-.767-1.139-.767-1.883 0-.745.256-1.372.767-1.883.511-.511 1.139-.767 1.883-.767.745 0 1.373.256 1.884.767.51.51.766 1.138.766 1.883 0 .744-.255 1.372-.766 1.883-.511.511-1.14.767-1.884.767s-1.372-.256-1.883-.767Zm-3.067 11.134 1.334 3.1c.177.444.5.71.966.8.467.088.867-.034 1.2-.367l4.2-4.2c.311-.311.534-.683.667-1.117.133-.433.156-.872.067-1.316l-.334-1.734a30.783 30.783 0 0 1-3.85 2.75 27.405 27.405 0 0 1-4.25 2.084ZM5.4 21.4c.778-.778 1.722-1.172 2.833-1.183 1.111-.011 2.056.372 2.834 1.15.777.777 1.166 1.722 1.166 2.833 0 1.111-.389 2.056-1.166 2.833-1.067 1.067-2.328 1.7-3.784 1.9l-4.383.6c.2-1.466.406-2.928.617-4.383A6.491 6.491 0 0 1 5.4 21.4Z" fill="#0278D5"/></svg>