<svg viewBox="0 0 32 32" fill="currentColor" xmlns="http://www.w3.org/2000/svg"><g clip-path="url(#a)"><path d="m24.5 24.5 1.875 1.875M24.5 24.5h-1.25l-.417-1.25.417-.417 1.25.417v1.25Zm5.525-1.358-1.095 1.095c-.165.165-.248.248-.279.343a.416.416 0 0 0 0 .257c.031.095.114.178.279.343l.099.099c.165.165.247.247.342.278a.418.418 0 0 0 .258 0c.095-.03.177-.113.342-.278l1.025-1.024a2.292 2.292 0 0 1-2.567 3.119c-.203-.04-.304-.06-.365-.054a.348.348 0 0 0-.155.047c-.055.029-.11.084-.218.193l-2.983 2.982a.884.884 0 1 1-1.25-1.25l2.983-2.982c.109-.11.163-.164.192-.218.031-.058.041-.09.047-.156.007-.061-.013-.163-.053-.365a2.292 2.292 0 0 1 3.398-2.429ZM27 28.25l2.292 2.292a.884.884 0 0 0 1.25-1.25l-1.886-1.886a2.284 2.284 0 0 1-.389-.07.47.47 0 0 0-.459.106L27 28.25Z" stroke="#0278D5" stroke-linecap="round" stroke-linejoin="round"/></g><path fill-rule="evenodd" clip-rule="evenodd" d="M9.774 2.011a2.004 2.004 0 0 0-2.208 1.77l-.134 1.267-4.322-.45a1.002 1.002 0 0 0-1.104.885.997.997 0 0 0 .894 1.094l19.99 2.08a1.002 1.002 0 0 0 1.104-.885.997.997 0 0 0-.894-1.093l-4.333-.451.134-1.266a1.995 1.995 0 0 0-1.788-2.187l-7.339-.764ZM16.77 6.02 9.43 5.256l.134-1.266 7.339.764-.134 1.266ZM3.52 12.383c-.137-1.182.795-2.218 1.996-2.218h15.312c1.2 0 2.134 1.037 1.995 2.219L20.97 28.239A2.002 2.002 0 0 1 18.973 30H7.363a2.002 2.002 0 0 1-1.996-1.762L3.52 12.383Zm17.308-.228H5.516L7.362 28.01h11.611l1.855-15.855ZM8.957 14.14a1.002 1.002 0 0 1 1.104.885l1.05 9.894a.997.997 0 0 1-.894 1.093 1.002 1.002 0 0 1-1.104-.885l-1.05-9.894a.997.997 0 0 1 .894-1.093Zm5.276.967a1 1 0 0 0-1.005-.995 1 1 0 0 0-1.004.995v9.949a1 1 0 0 0 1.005.995 1 1 0 0 0 1.004-.995v-9.949Zm3.327-.967a.997.997 0 0 1 .894 1.093l-1.05 9.894a1.002 1.002 0 0 1-1.104.886.997.997 0 0 1-.894-1.094l1.05-9.894a1.002 1.002 0 0 1 1.104-.885Z" fill="#0278D5"/><defs><clipPath id="a"><path fill="#fff" transform="translate(22 22)" d="M0 0h10v10H0z"/></clipPath></defs></svg>