<svg xmlns="http://www.w3.org/2000/svg" viewBox="0 0 32 32"><path fill="#0278D5" fill-rule="evenodd" d="M7.009 6.451c0-1.09.9-1.975 2.009-1.975 1.11 0 2.009.884 2.009 1.975s-.9 1.976-2.01 1.976S7.01 7.543 7.01 6.451M9.018 2.5C6.798 2.5 5 4.27 5 6.451c0 1.842 1.28 3.389 3.013 3.827v11.443C6.28 22.162 5 23.708 5 25.55 5 27.73 6.799 29.5 9.018 29.5s4.018-1.77 4.018-3.951c0-1.842-1.28-3.389-3.014-3.828v-3.866h.002c0-1.09.9-1.975 2.01-1.975h7.933c2.22 0 4.018-1.77 4.018-3.952v-1.65C25.72 9.842 27 8.294 27 6.452 27 4.27 25.201 2.5 22.982 2.5s-4.018 1.77-4.018 3.951c0 1.841 1.28 3.388 3.012 3.827v1.65c0 1.091-.9 1.976-2.009 1.976h-7.934c-.732 0-1.42.193-2.01.53v-4.155c1.732-.44 3.013-1.986 3.013-3.828 0-2.182-1.8-3.951-4.018-3.951m13.964 1.976c-1.11 0-2.009.884-2.009 1.975s.9 1.976 2.01 1.976 2.008-.884 2.008-1.976c0-1.09-.9-1.975-2.009-1.975M7.01 25.549c0-1.092.9-1.976 2.009-1.976 1.11 0 2.009.884 2.009 1.976 0 1.09-.9 1.975-2.01 1.975S7.01 26.64 7.01 25.548" clip-rule="evenodd"/><path fill="#189CD7" d="M20.89 26.805c-.303-1.137.287-2.239 1.417-2.66.9-.334 1.962-.079 2.608.629l.08.087c.506-.468 1.103-.685 1.804-.594.697.09 1.2.46 1.555 1.003.228-.055.446-.13.67-.157 1.089-.13 1.954.24 2.55 1.102.934 1.356.265 3.175-1.347 3.707a2.5 2.5 0 0 1-1.222.093c-.084-.014-.122.01-.167.076-.383.559-.933.85-1.64.833-.259-.005-.516-.087-.756-.13-.16.198-.306.433-.504.62-1.068 1.01-2.899.664-3.482-.652-.035-.081-.077-.1-.165-.087-1.093.157-2.15-.605-2.274-1.635q-.142-1.199.903-1.895c.06-.04.075-.072.045-.134-.031-.063-.05-.131-.075-.206"/></svg>