<svg viewBox="0 0 32 32" fill="none" xmlns="http://www.w3.org/2000/svg"><path d="M13.32 7.206a5.601 5.601 0 0 1 4.053-1.74c2.11 0 3.951 1.177 4.932 2.923a6.815 6.815 0 0 1 2.787-.592c3.806 0 6.892 3.113 6.892 6.952 0 3.84-3.086 6.952-6.892 6.952-.464 0-.918-.046-1.357-.135a5.036 5.036 0 0 1-6.601 2.073 5.749 5.749 0 0 1-10.686-.26c-.354.075-.72.115-1.096.115-2.947 0-5.336-2.414-5.336-5.392a5.4 5.4 0 0 1 2.668-4.67 6.205 6.205 0 0 1 5.698-8.666c2.014 0 3.803.957 4.937 2.44Z" fill="#00A1E0"/><path d="M4.646 16.37c-.02.052.008.063.014.072.06.044.121.075.183.11.326.173.633.224.955.224.656 0 1.063-.35 1.063-.91v-.011c0-.52-.46-.708-.89-.844l-.056-.019c-.326-.105-.606-.196-.606-.41v-.012c0-.183.164-.318.418-.318.282 0 .617.094.833.214 0 0 .064.04.087-.02l.133-.36c.012-.034-.01-.06-.032-.074a1.859 1.859 0 0 0-.94-.252h-.065c-.6 0-1.019.363-1.019.883v.01c0 .548.462.726.895.85l.07.021c.316.097.588.18.588.403v.01c0 .204-.177.355-.462.355a1.55 1.55 0 0 1-.845-.243c-.046-.027-.073-.046-.108-.068-.019-.012-.066-.032-.086.03l-.13.358ZM14.246 16.37c-.02.052.008.063.014.072.06.044.121.075.183.11.325.173.633.224.955.224.656 0 1.063-.35 1.063-.91v-.011c0-.52-.46-.708-.89-.844l-.056-.019c-.326-.105-.606-.196-.606-.41v-.012c0-.183.164-.318.418-.318.282 0 .617.094.833.214 0 0 .064.04.087-.02l.133-.36c.012-.034-.01-.06-.032-.074a1.859 1.859 0 0 0-.94-.252h-.065c-.6 0-1.019.363-1.019.883v.01c0 .548.462.726.895.85l.07.021c.316.097.588.18.588.403v.01c0 .204-.177.355-.462.355a1.55 1.55 0 0 1-.845-.243c-.046-.027-.073-.046-.108-.068-.012-.008-.067-.03-.086.03l-.13.358ZM20.8 15.27c0 .317-.06.567-.176.744-.115.175-.29.26-.533.26-.243 0-.417-.085-.53-.26-.115-.176-.173-.427-.173-.744s.058-.567.173-.742c.113-.173.287-.257.53-.257.243 0 .418.084.534.257.116.175.175.425.175.742Zm.547-.589a1.316 1.316 0 0 0-.249-.475 1.203 1.203 0 0 0-.42-.32 1.382 1.382 0 0 0-.587-.117c-.222 0-.42.04-.587.117a1.21 1.21 0 0 0-.42.32 1.34 1.34 0 0 0-.25.475 2.08 2.08 0 0 0-.08.589c0 .21.027.408.08.588.055.181.138.342.25.476.111.133.253.24.42.316.168.077.365.115.587.115.222 0 .42-.038.587-.115.167-.076.309-.183.42-.316.112-.134.196-.294.25-.476.053-.18.08-.379.08-.588 0-.21-.027-.408-.08-.589ZM25.842 16.19c-.018-.054-.07-.034-.07-.034-.08.03-.164.059-.254.073a1.982 1.982 0 0 1-.3.021c-.265 0-.476-.079-.626-.234-.151-.156-.236-.408-.235-.749 0-.31.075-.543.21-.72.133-.177.336-.268.607-.268.226 0 .398.026.579.083 0 0 .043.019.063-.038.048-.133.084-.228.135-.374.014-.041-.021-.06-.034-.064a2.142 2.142 0 0 0-.776-.12c-.23 0-.435.04-.61.117a1.264 1.264 0 0 0-.707.795c-.06.18-.09.38-.09.59 0 .453.123.82.364 1.09.243.269.607.406 1.081.406.28 0 .569-.057.775-.139 0 0 .04-.019.023-.065l-.135-.37ZM26.8 14.966c.026-.177.075-.323.15-.438.113-.173.286-.268.53-.268.242 0 .403.095.518.268.077.115.11.268.123.438H26.8Zm1.843-.388a1.15 1.15 0 0 0-.237-.433 1.088 1.088 0 0 0-.352-.269 1.356 1.356 0 0 0-.53-.107c-.232 0-.442.039-.613.119-.17.08-.314.19-.426.325a1.334 1.334 0 0 0-.251.481 2.08 2.08 0 0 0-.082.592c0 .213.029.412.085.591.056.18.146.34.268.471.122.133.279.236.466.309.186.072.413.11.673.109.535-.002.817-.121.933-.186.02-.011.04-.031.015-.088l-.12-.34c-.02-.05-.07-.032-.07-.032-.133.05-.322.138-.761.137-.287 0-.5-.085-.634-.218-.137-.135-.204-.335-.216-.616l1.853.002s.049-.001.054-.049c.002-.02.064-.38-.055-.798ZM11.96 14.966c.027-.177.075-.323.15-.438.114-.173.287-.268.53-.268.243 0 .404.095.52.268.075.115.109.268.122.438H11.96Zm1.843-.388a1.15 1.15 0 0 0-.237-.433 1.089 1.089 0 0 0-.352-.269 1.356 1.356 0 0 0-.53-.107c-.231 0-.442.039-.612.119-.17.08-.314.19-.427.325a1.337 1.337 0 0 0-.25.481 2.097 2.097 0 0 0-.082.592c0 .213.028.412.084.591.056.18.147.34.269.471.121.133.278.236.466.309.186.072.412.11.672.109.535-.002.817-.121.933-.186.02-.011.04-.031.016-.088l-.12-.34c-.02-.05-.071-.032-.071-.032-.133.05-.32.138-.761.137-.287 0-.5-.085-.633-.218-.137-.135-.204-.335-.216-.616l1.853.002s.048-.001.053-.049c.002-.02.064-.38-.055-.798ZM7.955 16.179a.375.375 0 0 1-.107-.11.448.448 0 0 1-.055-.24c0-.164.054-.28.165-.36-.001 0 .16-.138.538-.133.265.003.503.042.503.042v.843s-.235.05-.5.066c-.378.023-.545-.109-.544-.108Zm.737-1.302a4.09 4.09 0 0 0-.289-.009c-.159 0-.312.02-.456.059a1.19 1.19 0 0 0-.387.18.894.894 0 0 0-.269.305.894.894 0 0 0-.099.427c0 .164.029.307.085.423a.763.763 0 0 0 .242.29c.103.075.23.13.377.163.146.034.31.05.49.05.19 0 .38-.015.564-.047.181-.03.405-.076.467-.09.061-.014.13-.033.13-.033.045-.011.042-.06.042-.06l-.001-1.695c0-.371-.1-.647-.295-.818-.194-.17-.48-.256-.851-.256-.139 0-.362.019-.496.046 0 0-.405.078-.572.208 0 0-.036.023-.016.074l.13.353c.017.045.061.03.061.03s.015-.006.031-.015c.357-.194.807-.188.807-.188.2 0 .355.04.458.12.102.077.153.194.153.44v.079c-.16-.023-.306-.036-.306-.036ZM23.637 13.922a.05.05 0 0 0-.027-.066 1.611 1.611 0 0 0-.311-.054.923.923 0 0 0-.478.077.843.843 0 0 0-.313.231v-.225c0-.032-.022-.057-.053-.057h-.475c-.031 0-.053.025-.053.057v2.764c0 .03.025.056.056.056h.487a.056.056 0 0 0 .056-.056v-1.381c0-.186.02-.37.061-.487a.7.7 0 0 1 .162-.272.57.57 0 0 1 .23-.138.893.893 0 0 1 .452-.01c.035.004.055-.018.067-.05.032-.085.122-.338.14-.389Z" fill="#fff"/><path d="M19.068 12.641a1.444 1.444 0 0 0-.435-.063c-.335 0-.6.095-.785.282-.184.186-.31.469-.372.84l-.023.126h-.42s-.052-.002-.063.053l-.068.386c-.005.037.01.06.06.06h.41l-.416 2.319a2.87 2.87 0 0 1-.111.456c-.04.115-.08.201-.13.264a.345.345 0 0 1-.169.13.69.69 0 0 1-.366.016.435.435 0 0 1-.1-.033s-.048-.018-.068.03l-.137.377c-.013.037.005.065.028.074a1.12 1.12 0 0 0 .44.075c.172 0 .327-.024.456-.07a.859.859 0 0 0 .343-.24c.108-.118.175-.243.24-.414.064-.169.12-.378.163-.622l.418-2.362h.61s.051.002.062-.054l.07-.386c.004-.037-.012-.06-.061-.06h-.593c.003-.012.03-.221.098-.417a.546.546 0 0 1 .13-.198.388.388 0 0 1 .155-.097.783.783 0 0 1 .446.01c.06.019.069.001.08-.028l.142-.389c.015-.042-.021-.06-.034-.065ZM10.79 16.649c0 .03-.022.056-.053.056h-.491c-.031 0-.053-.025-.053-.056v-3.955c0-.03.022-.056.053-.056h.49c.032 0 .054.025.054.056v3.955Z" fill="#fff"/></svg>