<svg viewBox="0 0 24 25" fill="none" xmlns="http://www.w3.org/2000/svg"><path d="M5.05 18C2.813 18 1 16.273 1 14.143c0-2.009 1.612-3.659 3.672-3.84C5.093 7.861 7.318 6 10 6c2.682 0 4.907 1.862 5.328 4.302 2.06.182 3.672 1.832 3.672 3.84C19 16.274 17.187 18 14.95 18h-9.9Z" stroke="#189CD7" stroke-linecap="round" stroke-linejoin="round"/><path d="M14 7.75c2.729 0 5.016 1.85 5.537 4.324 2.088.273 3.713 1.981 3.713 4.069 0 2.28-1.937 4.107-4.3 4.107h-9.9c-2.363 0-4.3-1.828-4.3-4.107 0-2.088 1.624-3.796 3.712-4.069C8.983 9.6 11.272 7.75 14 7.75Z" fill="#189CD7" stroke="#fff" stroke-width=".5" stroke-linecap="round" stroke-linejoin="round"/></svg>