<svg viewBox="0 0 32 32" fill="currentColor" xmlns="http://www.w3.org/2000/svg"><path fill-rule="evenodd" clip-rule="evenodd" d="M21.871 4.067a.5.5 0 0 1 .234.564l-2.812 10.334h3.203c.204 0 .388.121.466.309a.498.498 0 0 1-.11.545L10.738 27.853a.506.506 0 0 1-.609.08.5.5 0 0 1-.234-.564l2.812-10.334H9.504a.498.498 0 0 1-.356-.854L21.262 4.147a.506.506 0 0 1 .609-.08Zm-11.15 11.967h2.644c.157 0 .305.073.4.197a.498.498 0 0 1 .087.434L11.36 25.82l9.918-9.853h-2.644a.505.505 0 0 1-.4-.197.498.498 0 0 1-.087-.434L20.64 6.18l-9.918 9.853Z" fill="#0278D5" stroke="#0278D5" stroke-linejoin="round"/><path d="M24.003 23.864a2.145 2.145 0 0 1 1.521-.622h.002a2.16 2.16 0 0 1 1.84 1.04l.005.01c.3-.136.653-.215 1.025-.215h.027-.002C29.85 24.094 31 25.201 31 26.562c0 1.364-1.155 2.472-2.586 2.485h-.001a3.062 3.062 0 0 1-.529-.052l.019.003c-.325.557-.94.928-1.645.928h-.005a2.064 2.064 0 0 1-.837-.183l.012.005A2.168 2.168 0 0 1 23.441 31c-.925 0-1.713-.553-2.02-1.33l-.006-.015c-.112.023-.24.037-.372.037h-.042.002C19.895 29.685 19 28.83 19 27.775v-.013c0-.709.4-1.328.996-1.666l.01-.005a2.035 2.035 0 0 1-.196-.875v-.004c.001-1.222 1.042-2.212 2.326-2.213h.008c.75 0 1.417.333 1.848.852l.003.005.008.007Z" fill="#189CD7"/></svg>