<svg viewBox="0 0 24 24" xmlns="http://www.w3.org/2000/svg"><path d="M21.976 15.879a.347.347 0 0 1-.001-.051c0-.023 0-.046-.005-.07l-1.645-6.58a1 1 0 1 0-1.94.485L19.72 15H4.28l1.501-6h4.772a1 1 0 1 0 0-2H5a1 1 0 0 0-.97.757l-2 8c-.006.023-.005.046-.005.07 0 .016.001.033-.001.05-.002.02-.007.037-.012.055A.25.25 0 0 0 2 16v4.509A1.49 1.49 0 0 0 3.491 22h17.018A1.49 1.49 0 0 0 22 20.509V16c0-.024-.006-.046-.012-.068l-.001-.004a.205.205 0 0 1-.011-.049Z" fill="#0278D5"/><path d="m16.239 7 .556-2.294.961.242a1.001 1.001 0 0 0 .488-1.94l-3.879-.978a1 1 0 1 0-.488 1.94l.978.247-1.725 7.127a3.04 3.04 0 0 1-.683-.24c-2.403-1.199-4.759-.065-4.891-.001l-.003.001a1 1 0 0 0 .894 1.79l.003-.001c.081-.037 1.628-.735 3.103.001a5.25 5.25 0 0 0 2.366.549c1.398 0 2.45-.51 2.527-.547l.001-.001a1.002 1.002 0 0 0-.894-1.79c-.11.049-.223.092-.338.128L15.755 9l.484-2Z" fill="#0278D5"/></svg>