<svg viewBox="0 0 24 25" fill="none" xmlns="http://www.w3.org/2000/svg"><g clip-path="url(#a)"><path d="m11.598 24.388-7.825-4.695a.78.78 0 0 1-.38-.671v-4.904a.783.783 0 0 1 1.184-.671l4.172 2.502 2.698-2.698a.782.782 0 0 1 1.107 0l2.697 2.698 4.173-2.502a.782.782 0 0 1 1.185.67v4.905a.78.78 0 0 1-.38.67l-7.827 4.696a.78.78 0 0 1-.804 0Z" fill="#3CAADB"/><path d="m12.402 24.388 7.826-4.695a.78.78 0 0 0 .38-.671v-4.904a.782.782 0 0 0-1.184-.671l-4.173 2.502-2.698-2.698a.78.78 0 0 0-.553-.23V24.5c.14 0 .28-.037.402-.112Z" fill="#178EC3"/><path d="M12 14.587a.775.775 0 0 1-.402-.112L3.772 9.78a.782.782 0 0 1 0-1.342l7.826-4.696a.775.775 0 0 1 .804 0l7.826 4.696a.782.782 0 0 1 0 1.342l-7.826 4.695a.775.775 0 0 1-.402.112Z" fill="#E6F4FF"/><path d="M20.933 9.109 23.51 6.53a.783.783 0 0 0-.152-1.224L15.532.611a.783.783 0 0 0-.955.118L12 3.306 9.423.73a.783.783 0 0 0-.956-.118L.641 5.307A.783.783 0 0 0 .49 6.531L3.067 9.11.49 11.686A.783.783 0 0 0 .64 12.91l7.826 4.696c.302.182.698.14.956-.118L12 14.911l2.577 2.577c.258.258.654.3.955.118l7.826-4.696a.783.783 0 0 0 .152-1.224l-2.577-2.577ZM12 12.892 5.694 9.109 12 5.325l6.306 3.784L12 12.892Z" fill="#189CD7"/><path d="M18.306 9.109 12 12.892v2.019l2.577 2.577c.258.258.654.3.956.118l7.826-4.696a.783.783 0 0 0 .15-1.224l-2.576-2.577L23.51 6.53a.783.783 0 0 0-.151-1.224L15.532.611a.783.783 0 0 0-.955.118L12 3.306v2.02l6.306 3.783Z" fill="#189CD7"/><path d="M22 16.25a2.25 2.25 0 0 1 2.25 2.25v.5c0 .413-.337.75-.75.75a.751.751 0 0 1-.75-.75v-.5a.753.753 0 0 0-.75-.75.753.753 0 0 0-.75.75v1.25h1.25c.413 0 .75.337.75.75V24c0 .413-.337.75-.75.75h-6a.751.751 0 0 1-.75-.75v-3.5c0-.413.337-.75.75-.75h3.25V18.5A2.25 2.25 0 0 1 22 16.25Z" fill="#0278D5" stroke="#fff" stroke-width=".5"/></g><defs><clipPath id="a"><path fill="#fff" transform="translate(0 .5)" d="M0 0h24v24H0z"/></clipPath></defs></svg>