<svg enable-background="new 0 0 33 33" viewBox="0 0 33 33" xmlns="http://www.w3.org/2000/svg">
  <path fill="#0278D5" d="M26.129 18.328v-5.307a6.56 6.56 0 01-1.589.653v4.3c0 2.413-1.706 4.77-3.385 6.34-.9.84-2.04 1.563-2.972 2.08-.906.504-1.858.868-2.67.868-.792 0-1.733-.319-2.646-.786-.934-.479-2.15-1.156-3.056-1.971-1.78-1.6-3.283-4.05-3.283-6.53V8.268c-.082-1.42.217-1.737.883-1.873l7.178-1.733a1.918 1.918 0 011.848 0l.318.073c.216-.514.495-.995.827-1.434l-.94-.216a2.245 2.245 0 00-2.165 0L6.07 4.998a2.244 2.244 0 00-1.163 1.967v11.363c0 2.903 1.893 5.57 3.977 7.444 1.061.954 2.484 1.748 3.578 2.308 1.069.547 2.17.92 3.098.92.95 0 2.066-.426 3.126-1.015 1.09-.606 2.425-1.452 3.479-2.436 1.966-1.837 3.964-4.396 3.964-7.22z"/>
  <path fill="#0278D5" fill-rule="evenodd" d="M15.512 11.201v1.594c0 .108.074.201.177.233.223.07.438.159.64.266.096.05.215.036.291-.04l1.127-1.127a.237.237 0 01.335 0l1.005 1.005a.237.237 0 010 .334l-1.128 1.127a.247.247 0 00-.04.29c.107.204.197.418.266.641a.247.247 0 00.234.177h1.593c.13 0 .237.106.237.236v1.421c0 .131-.106.237-.237.237h-1.593a.247.247 0 00-.234.177c-.07.223-.159.437-.266.64a.247.247 0 00.04.29l1.127 1.127a.237.237 0 010 .335l-1.004 1.005a.237.237 0 01-.335 0l-1.127-1.127a.247.247 0 00-.29-.04 3.763 3.763 0 01-.64.265.247.247 0 00-.178.234v1.594c0 .13-.106.236-.236.236h-1.421a.237.237 0 01-.237-.236V20.5a.247.247 0 00-.177-.234 3.763 3.763 0 01-.64-.265.247.247 0 00-.29.04l-1.127 1.127a.237.237 0 01-.335 0l-1.005-1.005a.237.237 0 010-.335l1.127-1.126a.247.247 0 00.04-.29 3.764 3.764 0 01-.265-.641.247.247 0 00-.234-.177H9.12a.237.237 0 01-.237-.237v-1.42c0-.131.106-.237.237-.237h1.593a.247.247 0 00.234-.177c.069-.223.158-.437.265-.64a.247.247 0 00-.04-.29l-1.127-1.128a.237.237 0 010-.334l1.005-1.005a.237.237 0 01.335 0l1.127 1.127c.076.076.194.09.29.04a3.77 3.77 0 01.64-.266.247.247 0 00.177-.233V11.2c0-.13.106-.237.237-.237h1.42c.131 0 .237.106.237.237zm-.947 7.593a2.136 2.136 0 100-4.271 2.136 2.136 0 000 4.271zM26.949 4.404l-1.022 1.022a.224.224 0 00-.037.263c.1.187.18.382.241.58.029.094.114.161.212.161h1.445c.119 0 .215.096.215.215v1.288a.215.215 0 01-.215.215h-1.445a.224.224 0 00-.212.16c-.062.2-.142.394-.24.581a.224.224 0 00.036.263l1.022 1.022a.215.215 0 010 .304l-.911.911a.215.215 0 01-.304 0l-1.022-1.022a.224.224 0 00-.263-.036 3.417 3.417 0 01-.581.24.224.224 0 00-.16.212v1.445a.215.215 0 01-.215.215h-1.288a.215.215 0 01-.215-.215v-1.445a.224.224 0 00-.16-.212 3.42 3.42 0 01-.581-.24.224.224 0 00-.264.036l-1.021 1.022a.215.215 0 01-.304 0l-.911-.911a.215.215 0 010-.304l1.022-1.022a.224.224 0 00.036-.263 3.417 3.417 0 01-.24-.58.224.224 0 00-.212-.161H17.91a.215.215 0 01-.215-.215V6.645c0-.119.096-.215.215-.215h1.445a.224.224 0 00.212-.16c.061-.2.142-.394.24-.581a.224.224 0 00-.036-.263l-1.022-1.022a.215.215 0 010-.304l.91-.911a.215.215 0 01.305 0l1.021 1.022c.07.069.177.082.264.036.187-.098.382-.179.58-.24a.224.224 0 00.16-.212V2.35c0-.119.097-.215.215-.215h1.289c.119 0 .215.096.215.215v1.445c0 .098.066.183.16.212.2.061.394.142.581.24a.224.224 0 00.263-.036l1.022-1.022a.215.215 0 01.304 0l.91.911a.215.215 0 010 .304zm-4.1 4.76a1.866 1.866 0 100-3.733 1.866 1.866 0 000 3.733z" clip-rule="evenodd"/>
</svg>
