<svg fill="none" viewBox="0 0 20 20" xmlns="http://www.w3.org/2000/svg"><g fill="#0278d5"><path d="m17.777 8.89601c-.2578 0-.5052.10243-.6874.28471-.1823.18229-.2847.42968-.2847.68749v.13609c-.0079 2.0199-.9126 3.9322-2.4693 5.2191-1.557 1.287-3.6052 1.8159-5.59039 1.4435-1.98515-.3724-3.70253-1.6074-4.68732-3.3713-.9848-1.7636-1.13518-3.87365-.41036-5.75934.72481-1.88541 2.24969-3.3515 4.16218-4.00165 1.91248-.65016 4.01489-.41709 5.73869.63627.2209.17404.5063.24391.7825.19161.2763-.0523.5165-.22178.6584-.4644.142-.24283.1719-.53515.0821-.80165-.0899-.26649-.2908-.48089-.5508-.5881-2.2226-1.34137-4.92604-1.626254-7.37973-.77799-2.45346.8481-4.40372 2.74212-5.32335 5.16986-.919693 2.42746-.71398 5.13839.56181 7.39929 1.27556 2.261 3.48926 3.839 6.04255 4.307 2.55332.4681 5.18272-.2218 7.17752-1.8834 1.9947-1.6614 3.1485-4.1228 3.1498-6.7188v-.12628c0-.25802-.1024-.5052-.2847-.68749-.1823-.18228-.4297-.28471-.6875-.28471z"/><path d="m18.4673 4.03498c.181.18207.2827.4286.2827.68533 0 .25694-.1017.50324-.2827.68554l-7.6414 7.64155c-.1834.1821-.4319.2832-.6903.2819h-.13608c-.28862-.0297-.54881-.1867-.70959-.428l-3.0526-4.57911c-.16059-.21354-.22634-.48371-.18164-.74716.04471-.26323.19596-.49673.41795-.64515.22222-.14865.49565-.19921.75625-.13997.26041.05946.48523.2233.62109.45334l2.40142 3.59715 6.8053-6.80543c.1836-.19336.4383-.30273.7049-.30273.2665 0 .5211.10939.7047.30274z"/></g></svg>