<svg viewBox="0 0 16 13" xmlns="http://www.w3.org/2000/svg"><path d="m3.24972 8.54297h-2.503882c-.408435 0-.745838.3374-.745838.74584v2.52159c0 .4085.337403.7459.745838.7459h2.521642c.40844 0 .74584-.3374.74584-.7459v-2.52159c-.01776-.40844-.35516-.74584-.7636-.74584z"/><path d="m15.2364 8.54297h-2.5039c-.4084 0-.7458.3374-.7458.74584v2.52159c0 .4085.3374.7459.7458.7459h2.5217c.4084 0 .7458-.3374.7458-.7459v-2.52159c-.0177-.40844-.3551-.74584-.7636-.74584z"/><path d="m9.25192 8.54297h-2.52165c-.40843 0-.74583.3374-.74583.74584v2.52159c0 .4085.3374.7459.74583.7459h2.52165c.40843 0 .74583-.3374.74583-.7459v-2.52159c-.01775-.40844-.3374-.74584-.74583-.74584zm0 3.24973h-2.52165v-2.52165h2.52165z"/><path d="m14.6504 6.71254.8879-4.33296-1.5982.53274c-.6038-.81687-1.3851-1.49168-2.2908-1.988902-1.101-.603773-2.36182-.923418-3.65816-.923418-3.9778 0-7.209768 3.01887-7.209768 6.71254 0 .30189.248608.5505.550498.5505s.5505-.24861.5505-.5505c0-3.0899 2.73474-5.61154 6.10877-5.61154 1.90011 0 3.67596.81687 4.83016 2.16648l-1.4916.51498z"/></svg>