<svg viewBox="0 0 32 32" fill="none" xmlns="http://www.w3.org/2000/svg"><path fill-rule="evenodd" clip-rule="evenodd" d="M17.365 6.013A9.574 9.574 0 0 0 12.2 7.516l-.545-.854A10.587 10.587 0 0 1 17.365 5C23.238 5 28 9.762 28 15.636c0 5.875-4.762 10.637-10.635 10.637-4.373 0-8.129-2.64-9.763-6.411l.93-.403a9.625 9.625 0 0 0 8.833 5.8c5.314 0 9.622-4.308 9.622-9.623 0-5.314-4.308-9.623-9.622-9.623Zm-.366 4.558h1.012v5.623l3.975 2.385a.507.507 0 0 1-.521.868l-4.466-2.68v-6.196Z" fill="currentColor"/><path d="M4 12.799c.045-.239.078-.481.137-.716a4.223 4.223 0 0 1 4.467-3.185 4.215 4.215 0 0 1 3.823 3.85c.17 2.2-1.3 4.11-3.473 4.51-2.265.417-4.507-1.162-4.878-3.435-.023-.141-.05-.282-.076-.423V12.8Zm6.52-.085c-.45 0-.845-.007-1.239.003-.142.003-.185-.044-.182-.181.008-.282.002-.564.002-.846v-.474c-.566 0-1.098 0-1.63-.002-.125 0-.118.083-.118.166v1.033c0 .097-.009.194-.014.315h-1.39l2.28 2.816 2.291-2.83Z" fill="currentColor"/></svg>