<svg width="16" height="16" viewBox="0 0 16 16" fill="none" xmlns="http://www.w3.org/2000/svg">
<g id="SRM/SLO">
<path id="Union" fill-rule="evenodd" clip-rule="evenodd" d="M13.0307 0.907871C12.9542 0.847785 12.8578 0.811951 12.753 0.811951C12.5792 0.811951 12.4284 0.91046 12.3534 1.05469L9.93478 3.47335C9.85039 3.55774 9.80298 3.6722 9.80298 3.79155V5.1278L8.77662 6.15416C8.47909 5.9703 8.12842 5.8642 7.75298 5.8642C6.67602 5.8642 5.80298 6.73724 5.80298 7.8142C5.80298 8.89115 6.67602 9.7642 7.75298 9.7642C8.82994 9.7642 9.70298 8.89115 9.70298 7.8142C9.70298 7.43875 9.59688 7.08809 9.41302 6.79056L10.462 5.74155H11.753C11.8795 5.74155 11.9938 5.68936 12.0755 5.60533L14.5881 3.09278C14.7638 2.91705 14.7638 2.63212 14.5881 2.45639C14.5698 2.4381 14.5503 2.42171 14.5299 2.40723C14.4535 2.34753 14.3574 2.31195 14.253 2.31195H13.203V1.39713C13.2457 1.24547 13.2074 1.07578 13.0881 0.956448C13.07 0.938403 13.0508 0.92221 13.0307 0.907871ZM12.303 2.37795L10.703 3.97795V4.84155H11.5665L13.1961 3.21195H12.753C12.5044 3.21195 12.303 3.01048 12.303 2.76195V2.37795ZM7.73028 2.24149C4.66509 2.24149 2.18027 4.72631 2.18027 7.7915C2.18027 10.8567 4.66509 13.3415 7.73028 13.3415C10.7955 13.3415 13.2803 10.8567 13.2803 7.7915C13.2803 7.14845 13.1711 6.53186 12.9706 5.95867C12.8886 5.72407 13.0123 5.46738 13.2469 5.38534C13.4815 5.3033 13.7381 5.42696 13.8202 5.66156C14.0536 6.32894 14.1803 7.0459 14.1803 7.7915C14.1803 11.3537 11.2925 14.2415 7.73028 14.2415C4.16804 14.2415 1.28027 11.3537 1.28027 7.7915C1.28027 4.22926 4.16804 1.34149 7.73028 1.34149C8.49256 1.34149 9.22491 1.47392 9.90493 1.71741C10.1389 1.80119 10.2607 2.05878 10.1769 2.29276C10.0931 2.52675 9.83552 2.64851 9.60153 2.56473C9.01749 2.35561 8.3877 2.24149 7.73028 2.24149ZM7.75298 4.24149C5.79237 4.24149 4.20298 5.83088 4.20298 7.79149C4.20298 9.75211 5.79237 11.3415 7.75298 11.3415C9.71359 11.3415 11.303 9.75211 11.303 7.79149C11.303 7.47877 11.2627 7.17614 11.1872 6.88822C11.1241 6.64782 11.2679 6.40184 11.5083 6.3388C11.7487 6.27576 11.9947 6.41954 12.0577 6.65994C12.1526 7.02173 12.203 7.40107 12.203 7.79149C12.203 10.2492 10.2106 12.2415 7.75298 12.2415C5.29531 12.2415 3.30298 10.2492 3.30298 7.79149C3.30298 5.33383 5.29531 3.34149 7.75298 3.34149C8.14394 3.34149 8.52376 3.39202 8.886 3.48713C9.12638 3.55025 9.27007 3.79629 9.20695 4.03667C9.14383 4.27705 8.8978 4.42074 8.65742 4.35762C8.36915 4.28193 8.06613 4.24149 7.75298 4.24149ZM6.70298 7.8142C6.70298 7.2343 7.17308 6.7642 7.75298 6.7642C7.87677 6.7642 7.99555 6.78562 8.10582 6.82495L7.43478 7.496C7.25904 7.67173 7.25904 7.95666 7.43478 8.13239C7.61052 8.30813 7.89544 8.30813 8.07118 8.13239L8.74222 7.46135C8.78156 7.57163 8.80298 7.69041 8.80298 7.8142C8.80298 8.3941 8.33288 8.8642 7.75298 8.8642C7.17308 8.8642 6.70298 8.3941 6.70298 7.8142Z" fill="#0278D5"/>
</g>
</svg>
