<svg xmlns="http://www.w3.org/2000/svg" fill="none" viewBox="0 0 20 20"><path fill="currentColor" fill-rule="evenodd" d="M16.2883 1.13479c-.0956-.0751-.2161-.1199-.3471-.1199-.2173 0-.4057.12314-.4995.30342l-3.0233 3.02334c-.1055.10548-.1647.24856-.1647.39774v1.67032l-1.283 1.28294c-.3719-.22982-.8102-.36245-1.27954-.36245-1.3462 0-2.4375 1.09131-2.4375 2.4375 0 1.3462 1.0913 2.4375 2.4375 2.4375 1.34624 0 2.43754-1.0913 2.43754-2.4375 0-.46931-.1327-.90764-.3625-1.27955l1.3113-1.31126h1.6137c.1581 0 .301-.06524.4032-.17028l3.1406-3.14067c.2197-.21967.2197-.57583 0-.7955-.0228-.02286-.0472-.04335-.0727-.06145-.0954-.07462-.2156-.1191-.3461-.1191h-1.3125V1.74636c.0534-.18957.0055-.40168-.1437-.55085-.0225-.02255-.0465-.04279-.0717-.06072Zm-.9096 1.8376-2 2v1.0795h1.0794l2.037-2.037h-.5539c-.3107 0-.5625-.25184-.5625-.5625v-.48Zm-5.71592-.17057c-3.83147 0-6.9375 3.10603-6.9375 6.9375 0 3.83148 3.10603 6.93748 6.9375 6.93748 3.83152 0 6.93752-3.106 6.93752-6.93748 0-.80381-.1365-1.57454-.3871-2.29103-.1025-.29325.0521-.61411.3453-.71666.2933-.10255.6141.05203.7167.34527.2917.83423.4501 1.73043.4501 2.66242 0 4.45278-3.6097 8.06248-8.06252 8.06248-4.45279 0-8.0625-3.6097-8.0625-8.06248 0-4.4528 3.60971-8.0625 8.0625-8.0625.95282 0 1.86832.16554 2.71832.46989.2925.10473.4447.42672.3399.7192-.1047.29248-.4267.44468-.7191.33996-.7301-.26141-1.5173-.40405-2.33912-.40405Zm.02838 2.5c-2.45076 0-4.4375 1.98674-4.4375 4.4375 0 2.45078 1.98674 4.43748 4.4375 4.43748 2.45074 0 4.43754-1.9867 4.43754-4.43748 0-.3909-.0504-.76919-.1448-1.12909-.0788-.3005.1009-.60798.4014-.68678.3005-.07879.608.10093.6868.40143.1186.45224.1816.92641.1816 1.41444 0 3.07208-2.4905 5.56248-5.56254 5.56248-3.07208 0-5.5625-2.4904-5.5625-5.56248 0-3.07208 2.49042-5.5625 5.5625-5.5625.48874 0 .96344.06315 1.41624.18205.3005.0789.4801.38644.4012.68692-.0789.30047-.3864.48009-.6869.40119-.3603-.09462-.7391-.14516-1.13054-.14516ZM8.37866 9.7677c0-.72487.58762-1.3125 1.3125-1.3125.15473 0 .30321.02678.44104.07595l-.83879.8388c-.21967.21967-.21967.57583 0 .79545.21967.2197.57583.2197.79549 0l.8388-.83876c.0492.13785.076.28633.076.44106 0 .7249-.5877 1.3125-1.31254 1.3125-.72488 0-1.3125-.5876-1.3125-1.3125Z" clip-rule="evenodd" opacity=".8"/></svg>