<svg viewBox="0 0 28 29" xmlns="http://www.w3.org/2000/svg" fill="none"><mask id="a" width="28" height="29" x="0" y="0" maskUnits="userSpaceOnUse" style="mask-type:luminance"><path fill="#fff" d="M0 5.981A5.548 5.548 0 0 1 5.545.43h16.633a5.548 5.548 0 0 1 5.545 5.551v16.654a5.548 5.548 0 0 1-5.545 5.551H5.545A5.548 5.548 0 0 1 0 22.636V5.98Z"/></mask><g mask="url(#a)"><path fill="#FF6740" fill-rule="evenodd" d="m25.847.43.076-.087-1.484-1.312-.655.742c-.196.222-.395.44-.596.657H0v1.545l-1.362.84.52.844c.271.442.552.876.842 1.303v18.522h-.02l-.99.02.04 1.983.97-.02v2.72h27.723V10.603c.285-.411.562-.83.83-1.255.452-.68.787-1.261 1.011-1.677a14.736 14.736 0 0 0 .322-.632l.018-.038.006-.012.001-.004v-.001s.001-.001-.846-.384l.847.383.408-.904-1.805-.815-.407.902v.001l-.002.004-.011.024-.052.107a13.03 13.03 0 0 1-.32.608V.43h-1.876Zm0 0h-2.659A32.627 32.627 0 0 1 6.952 9.903a32.609 32.609 0 0 1-6.11-7.284l-.519-.844-.323.2v2.987A34.618 34.618 0 0 0 17.159 18.17 32.601 32.601 0 0 1 0 23.484v1.983h.02a34.53 34.53 0 0 0 19.94-6.837 34.579 34.579 0 0 0 7.763-8.026V6.91c-.198.355-.471.818-.825 1.35l-.006.01-.006.01a32.601 32.601 0 0 1-7.716 8.461 32.63 32.63 0 0 1-10.332-5.286 34.61 34.61 0 0 0 16.43-10.37l.579-.656Z" clip-rule="evenodd"/></g></svg>
