<svg fill="currentColor" viewBox="0 0 30 30"><path d="M25.385 28.27V30H4.615v-1.73zm2.884-2.885V4.615a2.885 2.885 0 0 0-2.884-2.884H4.615a2.885 2.885 0 0 0-2.884 2.884v20.77a2.885 2.885 0 0 0 2.884 2.884V30l-.237-.006a4.617 4.617 0 0 1-4.372-4.372L0 25.385V4.615A4.615 4.615 0 0 1 4.615 0h20.77A4.615 4.615 0 0 1 30 4.615v20.77a4.617 4.617 0 0 1-4.378 4.61l-.237.005v-1.73a2.885 2.885 0 0 0 2.884-2.885"/><path d="M1.788 3.108c3.029.757 8.783.8 17.624 6.425 5.909 3.76 8.953 8.948 9.782 10.606l-.774.387-.773.387c-.75-1.499-3.614-6.388-9.164-9.92C9.955 5.566 4.657 5.61 1.369 4.787z"/><path d="M20.735 11.892c-3.058.765-10.454 3.7-15.351 9.21-1.15 1.294-1.82 2.04-2.193 2.457-.039.14-.099.25-.118.286q-.067.119-.167.266c-.133.199-.336.483-.636.882L.887 23.955q.223-.299.367-.5a.9.9 0 0 1 .064-.315.893.893 0 0 1 .096-.174c.025-.036.052-.067.062-.08.05-.06.154-.177.322-.365.35-.39 1.03-1.15 2.292-2.57 5.208-5.859 12.969-8.923 16.226-9.738z"/><path d="M6.59 17.336c2.408.803 7.025 2.714 9.587 3.995 1.34.67 3.304 2.03 5.13 3.42 1.833 1.397 3.606 2.886 4.568 3.848l-1.224 1.223c-.88-.88-2.581-2.314-4.392-3.693-1.819-1.386-3.672-2.658-4.857-3.25-2.49-1.246-7.032-3.124-9.36-3.9z"/></svg>