<svg xmlns="http://www.w3.org/2000/svg" viewBox="0 0 32 32" fill="none"><path fill="#0278D5" fill-rule="evenodd" d="M4.5 16C4.5 9.649 9.649 4.5 16 4.5S27.5 9.649 27.5 16a.5.5 0 0 0 1 0c0-6.904-5.596-12.5-12.5-12.5S3.5 9.096 3.5 16 9.096 28.5 16 28.5a.5.5 0 0 0 0-1C9.649 27.5 4.5 22.351 4.5 16Zm17.84-3.633a.5.5 0 0 0-.68-.735l-7.246 6.688-3.075-2.838a.5.5 0 0 0-.678.736l3.414 3.15.339.312.339-.313 7.586-7Z" clip-rule="evenodd"/><path fill="#FF6740" fill-rule="evenodd" d="M30.172 21.031A2.213 2.213 0 0 0 29.8 21h-6.6c-.752 0-1.415.377-1.812.952a12.923 12.923 0 0 0 2.371 2.802 12.95 12.95 0 0 0 6.413-3.723Zm-9.143 1.808a13.71 13.71 0 0 0 6.78 5.191 12.945 12.945 0 0 1-6.784 2.106 2.217 2.217 0 0 1-.024-.282v-6.708c.002-.104.012-.207.028-.308Zm8.794 9.16h-6.646a2.2 2.2 0 0 1-1.875-1.086 13.708 13.708 0 0 0 7.619-2.7A13.714 13.714 0 0 0 32 25.032V29.8a2.2 2.2 0 0 1-2.177 2.2ZM32 23.57c-.078.141-.187.324-.326.534l-.003.004-.002.004a12.927 12.927 0 0 1-3.062 3.354 12.953 12.953 0 0 1-4.1-2.095 13.735 13.735 0 0 0 6.455-4.038A2.199 2.199 0 0 1 32 23.2v.37Z" clip-rule="evenodd"/></svg>
