<svg fill="none" viewBox="0 0 65 64" xmlns="http://www.w3.org/2000/svg"><path clip-rule="evenodd" d="m17.0405 5.96649c.5523 0 1 .44772 1 1v3.45531c2.3189-1.55798 4.9295-2.76547 7.776-3.52819 11.624-3.11462 23.517 2.16175 29.2531 12.11399h2.1964c.5523 0 1 .4478 1 1v12c0 .1666-.0407.3237-.1128.4619v11.5381c0 .5523-.4477 1-1 1h-44.7897c5.4958 8.537 16.0622 12.9507 26.394 10.1823 2.7228-.7296 5.2085-1.8983 7.4025-3.409h-3.676c-.5523 0-1-.4477-1-1 0-.5522.4477-1 1-1h6c.2652 0 .5196.1054.7071.2929.1875.1876.2929.4419.2929.7071v6c0 .5523-.4477 1-1 1s-1-.4477-1-1v-3.4846c-2.4252 1.702-5.1838 3.0149-8.2089 3.8255-11.6239 3.1146-23.517-2.1617-29.2531-12.1142h-2.8688c-.55229 0-1-.4477-1-1v-12c0-.1666.04074-.3236.11279-.4618v-11.5382c0-.5522.44772-1 1-1h45.46201c-5.4959-8.537-16.0622-12.9505-26.3938-10.18214-2.5597.68585-4.9097 1.75974-7.0049 3.14104h3.7112c.5523 0 1 .4477 1 1s-.4477 1-1 1h-6c-.2652 0-.5195-.1054-.7071-.2929-.1875-.1875-.2929-.4419-.2929-.7071v-6.00001c0-.55228.4477-1 1-1zm-8.8873 27.04111h48v10h-48zm48.1128-12v10h-48.00001v-10zm-13.8096 16h2v2h-2zm6.0276 0h-2v2h2zm2.0281 0h2v2h-2zm-16.0138 0h-22v2h22zm18.0138-12h-22v2h22zm-40.0138 0h2v2h-2zm6.0276 0h-2v2h2zm2.0279 0h2v2h-2z" fill="#0278d5" fill-rule="evenodd"/></svg>