<svg xmlns="http://www.w3.org/2000/svg" width="40" height="40" fill="none" viewBox="0 0 24 25">
  <path fill="#fff" d="M17.638 6.832H6.465c0-.698 1.01-2.81 3.03-6.333l.839 5.575h3.413l.838-5.575c2.035 3.57 3.053 5.681 3.053 6.333Z"/>
  <path fill="#fff" d="m12.034 24.5-7.597-5.317V6.776S7.246 5.74 12.044 5.74s7.587 1.035 7.587 1.035v12.407L12.034 24.5Z"/>
  <path fill="#DBDBDB" d="m12.034 23.752-7.112-4.956V7.274s2.66-.962 7.112-.962v17.44Z"/>
  <path fill="#C6C6C6" d="M12.044 6.312h-.01v17.425l7.05-4.941V7.274s-2.588-.962-7.04-.962Z"/>
  <path fill="#3B3B63" d="m15.883 21.04-.6-5.204h-3.296v7.928l.047.045a99.591 99.591 0 0 0 3.848-2.768Z"/>
  <path fill="#53537A" d="m8.188 21.082 3.846 2.727.002-8.131h-3.33l-.518 5.404Z"/>
  <path fill="#BC9375" d="M13.68 19.541c0 .894-.85 1.338-1.629 1.338-.78 0-1.646-.444-1.646-1.338"/>
  <path fill="#fff" d="M12.043 20.004c-.626 0-.93-.452-.93-1.38h.298c0 1.087.426 1.087.632 1.087.205 0 .631 0 .631-1.086h.298c0 .927-.304 1.379-.93 1.379Z"/>
  <path fill="#C49A7E" d="M12.034 18.851c.193.498.565.747 1.117.747.54 0 1.103-.28 1.36-.97.359-.966.355-2.31.355-2.31s1.593-1.96 1.593-2.624h-4.425v5.157Z"/>
  <path fill="#D8B7A0" d="M7.545 13.694c0 .768 1.58 2.623 1.58 2.623s-.004 1.344.355 2.31c.256.69.82.97 1.36.97.552 0 .95-.248 1.194-.746v-5.157H7.545Z"/>
  <path fill="#3B3B63" d="M16.27 9.28c-1.23-1.237-1.536-3.817-1.536-3.817-.23.813-.728 3.21-.728 3.21s-.968-.307-2.01-.309c-.035 0-.035 3.23 0 9.69l.992-.705.184-3.421 1.057 1.185 1.362.39.51-.355c.216-.298.288-.551.34-.683.19-.479-.235-4.14-.235-4.14-.151-.31.063-1.044.063-1.044Z"/>
  <path fill="#53537A" d="M10.088 8.673s-.498-2.397-.727-3.21c0 0-.307 2.58-1.536 3.818 0 0 .215.733.064 1.043 0 0-.425 3.662-.236 4.14.053.132.125.386.341.683l.51.356 1.361-.391 1.057-1.185.185 3.422.928.686v-9.69a6.482 6.482 0 0 0-1.947.328Z"/>
  <path fill="#333152" d="M15.41 3.071c.203.374 1.955 3.824 1.955 5.019l-.777 2.08c.132 1.173.393 3.722.196 4.22-.122.309-.587.942-.984 1.456l.543 4.871-.734.52-.408-3.56c-.056.361-.14.747-.27 1.093-.17.459-.47.806-.854 1.012-.023 1.099-1.054 1.692-2.026 1.692-.98 0-2.02-.593-2.043-1.691a1.85 1.85 0 0 1-.856-1.013 5.682 5.682 0 0 1-.263-1.05l-.39 3.582-.739-.528.533-4.913c-.4-.516-.873-1.16-.997-1.47-.197-.499.054-3.048.186-4.222l-.823-2.152v-.07c0-1.195 1.798-4.502 2.002-4.876l.582-1.047.531 3.644.287 1.967.377.61c.362-.12.978-.287 1.6-.287.624 0 1.244.167 1.608.287l.377-.61.816-5.611.57 1.047Zm-3.36 17.622c.43 0 1.043-.191 1.196-.698l-.05.002c-.083 0-.161-.008-.237-.018-.222.303-.567.395-.918.395-.349 0-.694-.093-.915-.395a1.84 1.84 0 0 1-.24.018l-.048-.002c.155.507.775.698 1.212.698Zm-.504-.833a.816.816 0 0 0 .496.153.81.81 0 0 0 .493-.153 1.605 1.605 0 0 1-.287-.162c-.077.022-.15.022-.207.022-.056 0-.13 0-.208-.022a1.57 1.57 0 0 1-.287.162Zm3.056-3.779c.529-.644 1.324-1.683 1.44-1.973.087-.3-.062-2.283-.25-3.945l-.01-.092.155-.413c-.514-.538-.873-1.276-1.118-1.972l-.031.218-.812 1.31-.317-.132c-.008-.003-.835-.344-1.62-.344-.791 0-1.606.34-1.613.344l-.318.133-.813-1.31-.024-.168c-.247.69-.606 1.414-1.118 1.94l.149.394-.01.093c-.19 1.661-.337 3.645-.248 3.951.113.284.908 1.322 1.436 1.966l.089.108v.138c0 .013 0 1.288.33 2.175.24.644.77.713.987.713.547 0 .778-.493.787-.514.129-.247.193-.654.193-1.22h.33c0 .455.069.863.207 1.223.008.018.245.512.794.512.217 0 .748-.07.987-.713.33-.89.33-2.163.33-2.176v-.138l.088-.108Z"/>
  <path fill="#333152" d="M14.513 12.615h-1.591v.017c0 .545.48.987 1.044.987.564 0 1.044-.442 1.044-.987v-.017h-.497Z"/>
  <path fill="#fff" d="M13.32 12.615v.017c0 .324.266.587.597.587.33 0 .597-.263.597-.587v-.017H13.32Z"/>
  <path fill="#333152" d="m13.821 12.615-.007.002c.034.007.054.084.046.136a.159.159 0 0 1-.157.134.26.26 0 0 0 .221.2.263.263 0 0 0 .299-.218c.015-.105-.037-.254-.122-.254h-.28Zm-3.148 0H9.082v.017c0 .545.48.987 1.044.987.564 0 1.044-.442 1.044-.987v-.017h-.497Z"/>
  <path fill="#fff" d="M9.48 12.615v.017c0 .324.266.587.597.587.33 0 .596-.263.596-.587v-.017H9.48Z"/>
  <path fill="#333152" d="M10.26 12.615h-.279l-.007.002c.034.007.053.084.046.136a.159.159 0 0 1-.157.134.261.261 0 0 0 .22.2.262.262 0 0 0 .3-.218c.015-.105-.036-.254-.122-.254Z"/>
  <path fill="#C49A7E" d="M14.393 12.15c.067-.072.634-.704-.124-.704-.685 0-1.179.543-1.31.703h1.434Z"/>
  <path fill="#D8B7A0" d="M11.122 12.15c-.13-.161-.624-.704-1.31-.704-.757 0-.19.632-.124.703h1.434ZM7.476 7.883c.045-.62.702-2.105 1.328-3.356l.167 1.144c-.063.428-.354 2.106-1.135 3.163l-.36-.951Z"/>
  <path fill="#C49A7E" d="m15.127 5.582.154-1.055c.626 1.251 1.283 2.736 1.328 3.356l-.351.929c-.843-1.164-1.108-3.057-1.131-3.23Z"/>
  <mask id="a" width="4" height="3" x="10" y="16" maskUnits="userSpaceOnUse" style="mask-type:alpha">
    <path fill="#fff" d="M11.457 18.177c-.294-.219-.596-.495-.596-.708 0-.139.252-.568.252-.568h1.866s.244.38.244.568c0 .198-.304.467-.608.686-.104-.175-.235-.205-.296-.068a.545.545 0 0 0-.022.282c-.166.105-.287.173-.287.173s-.093-.054-.227-.14a.573.573 0 0 0-.017-.315c-.062-.14-.196-.106-.3.075l-.008.015Z"/>
  </mask>
  <g mask="url(#a)">
    <path fill="#333152" d="M11.457 18.177c-.294-.219-.596-.495-.596-.708 0-.139.252-.568.252-.568h1.866s.244.38.244.568c0 .198-.304.467-.608.686-.104-.175-.235-.205-.296-.068a.545.545 0 0 0-.022.282c-.166.105-.287.173-.287.173s-.093-.054-.227-.14a.573.573 0 0 0-.017-.315c-.062-.14-.196-.106-.3.075l-.008.015Z"/>
  </g>
</svg>
