<svg fill="none" height="24" viewBox="0 0 24 24" width="24" xmlns="http://www.w3.org/2000/svg" xmlns:xlink="http://www.w3.org/1999/xlink"><mask id="a" height="3" maskUnits="userSpaceOnUse" width="4" x="10" y="16"><path d="m11.457 17.678c-.294-.22-.596-.496-.596-.708 0-.14.252-.569.252-.569h1.866s.244.381.244.57c0 .197-.304.465-.608.685-.104-.175-.235-.206-.296-.068a.545.545 0 0 0 -.022.282c-.166.105-.287.173-.287.173s-.093-.054-.227-.14a.573.573 0 0 0 -.017-.315c-.062-.14-.196-.106-.3.075a.735.735 0 0 0 -.008.015z" fill="#fff"/></mask><path d="m17.638 6.333h-11.173c0-.699 1.01-2.81 3.03-6.333l.839 5.575h3.413l.838-5.575c2.035 3.57 3.053 5.681 3.053 6.333z" fill="#fff"/><path d="m12.034 24-7.597-5.316v-12.407s2.809-1.035 7.607-1.035 7.587 1.035 7.587 1.035v12.407z" fill="#fff"/><path d="m12.034 23.253-7.112-4.956v-11.522s2.66-.962 7.112-.962z" fill="#dbdbdb"/><path d="m12.044 5.813h-.01v17.425l7.05-4.941v-11.522s-2.588-.962-7.04-.962z" fill="#c6c6c6"/><path d="m15.883 20.542-.6-5.205h-3.296v7.928l.047.045a99.488 99.488 0 0 0 3.848-2.768z" fill="#3b3b63"/><path d="m8.188 20.583 3.846 2.727.002-8.131h-3.33z" fill="#53537a"/><path d="m13.68 19.042c0 .894-.85 1.337-1.629 1.337-.78 0-1.646-.443-1.646-1.337" fill="#bc9375"/><path d="m12.043 19.505c-.626 0-.93-.451-.93-1.379h.298c0 1.086.426 1.086.632 1.086.205 0 .631 0 .631-1.086h.298c0 .928-.304 1.379-.93 1.379z" fill="#fff"/><path d="m12.034 18.352c.193.498.565.747 1.117.747.54 0 1.103-.28 1.36-.97.359-.966.355-2.31.355-2.31s1.593-1.96 1.593-2.624h-4.425z" fill="#c49a7e"/><path d="m7.545 13.195c0 .768 1.58 2.623 1.58 2.623s-.004 1.344.355 2.31c.256.69.82.97 1.36.97.552 0 .95-.248 1.194-.746v-5.157z" fill="#d8b7a0"/><path d="m16.27 8.782c-1.23-1.238-1.536-3.818-1.536-3.818-.23.813-.728 3.21-.728 3.21s-.968-.307-2.01-.309c-.035 0-.035 3.23 0 9.69l.992-.705.184-3.422 1.057 1.186 1.362.39.51-.355c.216-.298.288-.551.34-.683.19-.479-.235-4.14-.235-4.14-.151-.31.063-1.044.063-1.044z" fill="#3b3b63"/><path d="m10.088 8.174s-.498-2.397-.727-3.21c0 0-.307 2.58-1.536 3.818 0 0 .215.734.064 1.044 0 0-.425 3.662-.236 4.14.053.131.125.385.341.682l.51.356 1.361-.39 1.057-1.186.185 3.422.928.686v-9.689a6.442 6.442 0 0 0 -1.947.327z" fill="#53537a"/><path d="m15.41 2.572c.203.373 1.955 3.824 1.955 5.018l-.777 2.08c.132 1.173.393 3.723.196 4.221-.122.308-.587.942-.984 1.456l.543 4.87-.734.52-.408-3.559c-.056.361-.14.747-.27 1.093-.17.459-.47.806-.854 1.012-.023 1.099-1.054 1.691-2.026 1.691-.98 0-2.02-.592-2.043-1.69a1.85 1.85 0 0 1 -.856-1.013 5.682 5.682 0 0 1 -.263-1.05l-.39 3.582-.739-.528.533-4.914c-.4-.515-.873-1.159-.997-1.47-.197-.498.054-3.048.186-4.221l-.823-2.153v-.07c0-1.195 1.798-4.502 2.002-4.875l.582-1.048.531 3.645.287 1.967.377.61c.362-.12.978-.288 1.6-.288.624 0 1.244.168 1.608.288l.377-.61.816-5.612.57 1.048zm-3.36 17.621c.43 0 1.043-.19 1.196-.697l-.05.002c-.083 0-.161-.008-.237-.018-.222.303-.567.395-.918.395-.349 0-.694-.093-.915-.396a1.679 1.679 0 0 1 -.24.019l-.048-.002c.155.506.775.697 1.212.697zm-.504-.832a.816.816 0 0 0 .496.153.81.81 0 0 0 .493-.153 1.604 1.604 0 0 1 -.287-.162c-.077.022-.15.022-.207.022-.056 0-.13 0-.208-.023a1.58 1.58 0 0 1 -.287.163zm3.056-3.78c.529-.644 1.324-1.682 1.44-1.973.087-.299-.062-2.282-.25-3.944l-.01-.092.155-.413c-.514-.539-.873-1.276-1.118-1.973l-.031.22-.812 1.31-.317-.133c-.008-.004-.835-.344-1.62-.344-.791 0-1.606.34-1.613.343l-.318.134-.813-1.31-.024-.169c-.247.69-.606 1.415-1.118 1.941l.149.394-.01.092c-.19 1.662-.337 3.645-.248 3.952.113.284.908 1.322 1.436 1.966l.089.107v.138c0 .013 0 1.289.33 2.176.24.644.77.712.987.712.547 0 .778-.492.787-.513.129-.247.193-.654.193-1.22h.33c0 .455.069.862.207 1.223.008.018.245.512.794.512.217 0 .748-.07.987-.713.33-.891.33-2.164.33-2.176v-.138l.088-.108z" fill="#333152"/><path d="m14.513 12.116h-1.591v.017c0 .545.48.987 1.044.987s1.044-.442 1.044-.987v-.017z" fill="#333152"/><path d="m13.32 12.116v.017c0 .324.266.587.597.587.33 0 .597-.263.597-.587v-.017z" fill="#fff"/><path d="m13.821 12.116-.007.002c.034.007.054.084.046.136a.159.159 0 0 1 -.157.134.26.26 0 0 0 .221.2.263.263 0 0 0 .299-.218c.015-.105-.037-.254-.122-.254zm-3.148 0h-1.591v.017c0 .545.48.987 1.044.987s1.044-.442 1.044-.987v-.017z" fill="#333152"/><path d="m9.48 12.116v.017c0 .324.266.587.597.587.33 0 .596-.263.596-.587v-.017z" fill="#fff"/><path d="m10.26 12.116h-.279l-.007.002c.034.007.053.084.046.136a.159.159 0 0 1 -.157.134.262.262 0 0 0 .22.2.262.262 0 0 0 .3-.218c.015-.105-.036-.254-.122-.254z" fill="#333152"/><path d="m14.393 11.65c.067-.072.634-.703-.124-.703-.685 0-1.179.543-1.31.703z" fill="#c49a7e"/><path d="m11.122 11.65c-.13-.16-.624-.703-1.31-.703-.757 0-.19.631-.124.703zm-3.646-4.266c.045-.62.702-2.105 1.328-3.356l.167 1.144c-.063.428-.354 2.106-1.135 3.163z" fill="#d8b7a0"/><path d="m15.127 5.083.154-1.055c.626 1.252 1.283 2.737 1.328 3.356l-.351.93c-.843-1.165-1.108-3.058-1.131-3.23z" fill="#c49a7e"/><g mask="url(#a)"><path d="m11.457 17.678c-.294-.22-.596-.496-.596-.708 0-.14.252-.569.252-.569h1.866s.244.381.244.57c0 .197-.304.465-.608.685-.104-.175-.235-.206-.296-.068a.545.545 0 0 0 -.022.282c-.166.105-.287.173-.287.173s-.093-.054-.227-.14a.573.573 0 0 0 -.017-.315c-.062-.14-.196-.106-.3.075a.735.735 0 0 0 -.008.015z" fill="#333152"/></g></svg>