<svg fill="none" height="24" viewBox="0 0 25 24" width="25" xmlns="http://www.w3.org/2000/svg" xmlns:xlink="http://www.w3.org/1999/xlink"><mask id="a" height="3" maskUnits="userSpaceOnUse" width="4" x="10" y="16"><path d="m11.487 17.678c-.295-.219-.596-.495-.596-.708 0-.139.25-.568.25-.568h1.867s.245.38.245.568c0 .198-.305.467-.61.686-.103-.175-.234-.205-.295-.067a.545.545 0 0 0 -.022.281c-.166.105-.287.173-.287.173s-.093-.054-.227-.14a.574.574 0 0 0 -.017-.314c-.061-.14-.196-.107-.3.074a.735.735 0 0 0 -.008.015z" fill="#fff"/></mask><path d="m17.667 6.333h-11.173c0-.699 1.01-2.81 3.03-6.333l.839 5.575h3.413l.838-5.575c2.035 3.57 3.053 5.681 3.053 6.333z" fill="#fff"/><path d="m12.063 24-7.597-5.316v-12.407s2.809-1.035 7.607-1.035 7.587 1.035 7.587 1.035v12.407z" fill="#fff"/><path d="m12.063 23.253-7.112-4.956v-11.522s2.66-.962 7.112-.962z" fill="#dbdbdb"/><path d="m12.073 5.813h-.01v17.425l7.05-4.941v-11.522s-2.588-.962-7.04-.962z" fill="#c6c6c6"/><path d="m15.912 20.542-.6-5.205h-3.296v7.928l.047.045a99.562 99.562 0 0 0 3.849-2.768z" fill="#3b3b63"/><path d="m8.217 20.583 3.846 2.727.002-8.131h-3.33z" fill="#53537a"/><path d="m13.71 19.042c0 .894-.85 1.338-1.63 1.338s-1.646-.444-1.646-1.338" fill="#bc9375"/><path d="m12.072 19.505c-.626 0-.93-.452-.93-1.38h.298c0 1.087.426 1.087.632 1.087.205 0 .631 0 .631-1.086h.298c0 .927-.304 1.379-.93 1.379z" fill="#fff"/><path d="m12.063 18.352c.193.498.565.747 1.117.747.54 0 1.104-.28 1.36-.97.359-.966.355-2.31.355-2.31s1.593-1.96 1.593-2.624h-4.425z" fill="#c49a7e"/><path d="m7.574 13.195c0 .768 1.58 2.623 1.58 2.623s-.004 1.344.355 2.31c.256.69.82.97 1.36.97.552 0 .95-.248 1.194-.746v-5.157z" fill="#d8b7a0"/><path d="m16.298 8.782c-1.228-1.238-1.535-3.818-1.535-3.818-.23.813-.728 3.21-.728 3.21s-.968-.307-2.01-.309c-.035 0-.035 3.23 0 9.69l.992-.705.184-3.422 1.058 1.186 1.361.39.51-.355c.216-.298.288-.551.34-.683.19-.479-.235-4.14-.235-4.14-.151-.31.063-1.044.063-1.044z" fill="#3b3b63"/><path d="m10.118 8.174s-.5-2.397-.728-3.21c0 0-.307 2.58-1.536 3.818 0 0 .215.733.064 1.043 0 0-.425 3.662-.236 4.14.053.132.125.386.341.683l.51.356 1.361-.391 1.057-1.185.185 3.422.928.686v-9.69c-1.046.003-1.946.328-1.946.328z" fill="#53537a"/><path d="m15.439 2.572c.204.374 1.955 3.824 1.955 5.019l-.777 2.08c.132 1.173.393 3.722.196 4.22-.122.309-.586.942-.984 1.456l.543 4.871-.734.52-.408-3.56a5.73 5.73 0 0 1 -.27 1.093 1.85 1.85 0 0 1 -.854 1.012c-.023 1.099-1.054 1.692-2.026 1.692-.98 0-2.02-.593-2.043-1.691a1.85 1.85 0 0 1 -.856-1.012 5.683 5.683 0 0 1 -.263-1.051l-.39 3.582-.739-.528.533-4.913c-.4-.516-.873-1.16-.996-1.47-.198-.499.053-3.048.185-4.222l-.823-2.152v-.07c0-1.195 1.798-4.502 2.002-4.876l.582-1.047c.354 2.427.532 3.642.531 3.644l.287 1.967.377.61c.363-.12.978-.287 1.6-.287.624 0 1.244.167 1.608.287l.377-.61.816-5.611.57 1.047zm-3.359 17.622c.43 0 1.043-.191 1.196-.698l-.049.002c-.084 0-.162-.008-.238-.018-.222.303-.567.395-.917.395s-.695-.093-.916-.395a1.84 1.84 0 0 1 -.24.018l-.048-.002c.155.507.776.698 1.212.698zm-.504-.833a.815.815 0 0 0 .496.153.81.81 0 0 0 .493-.153 1.604 1.604 0 0 1 -.287-.162c-.076.022-.15.022-.206.022-.057 0-.131 0-.209-.022-.084.06-.18.116-.287.162zm3.056-3.779c.529-.645 1.325-1.683 1.44-1.973.087-.3-.062-2.283-.25-3.945l-.01-.092.155-.413c-.514-.538-.872-1.276-1.117-1.972l-.032.218-.812 1.31-.317-.132c-.008-.003-.835-.344-1.62-.344-.791 0-1.605.34-1.613.344l-.318.133-.812-1.31-.025-.168c-.247.69-.606 1.414-1.118 1.94l.15.394-.011.092c-.189 1.662-.337 3.646-.247 3.952.112.284.907 1.322 1.436 1.966l.088.108v.138c0 .013 0 1.288.33 2.175.24.644.77.713.987.713.547 0 .778-.493.788-.514.128-.247.192-.654.192-1.22h.33c0 .455.069.863.207 1.223.008.018.245.512.794.512.217 0 .748-.07.987-.713.33-.89.33-2.163.33-2.176v-.138z" fill="#333152"/><path d="m14.542 12.116h-1.59v.017c0 .545.48.987 1.043.987.564 0 1.045-.442 1.045-.987v-.017z" fill="#333152"/><path d="m13.35 12.116v.017a.59.59 0 0 0 .596.587c.33 0 .597-.263.597-.587v-.017h-1.194z" fill="#fff"/><path d="m13.85 12.116-.007.002c.035.007.054.084.046.136a.159.159 0 0 1 -.157.134.26.26 0 0 0 .221.2.263.263 0 0 0 .299-.218c.015-.105-.036-.254-.122-.254zm-3.148 0h-1.59v.017c0 .545.48.987 1.043.987.564 0 1.045-.442 1.045-.987v-.017z" fill="#333152"/><path d="m9.51 12.116v.017c0 .324.266.587.596.587s.596-.263.596-.587v-.017z" fill="#fff"/><path d="m10.29 12.116h-.28l-.007.002c.034.007.054.084.046.136a.159.159 0 0 1 -.157.134.262.262 0 0 0 .221.2.262.262 0 0 0 .299-.218c.015-.105-.036-.254-.122-.254z" fill="#333152"/><path d="m14.422 11.65c.067-.072.634-.703-.124-.703-.685 0-1.178.543-1.31.703z" fill="#c49a7e"/><path d="m11.151 11.65c-.13-.16-.624-.703-1.31-.703-.757 0-.19.631-.124.703zm-3.646-4.266c.045-.62.702-2.105 1.328-3.356l.167 1.144c-.063.428-.354 2.106-1.135 3.163z" fill="#d8b7a0"/><path d="m15.156 5.083.154-1.055c.626 1.251 1.283 2.736 1.329 3.356l-.352.929c-.843-1.164-1.108-3.057-1.131-3.23z" fill="#c49a7e"/><g mask="url(#a)"><path d="m11.487 17.678c-.295-.219-.596-.495-.596-.708 0-.139.25-.568.25-.568h1.867s.245.38.245.568c0 .198-.305.467-.61.686-.103-.175-.234-.205-.295-.067a.545.545 0 0 0 -.022.281c-.166.105-.287.173-.287.173s-.093-.054-.227-.14a.574.574 0 0 0 -.017-.314c-.061-.14-.196-.107-.3.074a.735.735 0 0 0 -.008.015z" fill="#333152"/></g></svg>