<svg fill="none" viewBox="0 0 20 20" xmlns="http://www.w3.org/2000/svg"><path d="m10 18.3337c-4.60238 0-8.33334-3.731-8.33334-8.3334 0-4.60235 3.73096-8.33331 8.33334-8.33331 4.6024 0 8.3333 3.73096 8.3333 8.33331 0 4.6024-3.7309 8.3334-8.3333 8.3334z" fill="#cf2318"/><path d="m9.99733 9.02555 2.97897-2.97803c.6514-.6512 1.6267.32736.9753.97856l-2.978 2.97712 2.966 2.9705c.6508.6518-.3254 1.6295-.9762.9777l-2.96695-2.9714-2.9727 2.9718c-.6514.6512-1.62675-.3273-.97535-.9785l2.97182-2.9709-2.97226-2.97676c-.65081-.65179.32541-1.62947.97623-.97768z" fill="#fff"/></svg>