<svg xmlns="http://www.w3.org/2000/svg" viewBox="0 0 184 56" fill="currentColor" xmlns:v="https://vecta.io/nano"><g fill="#000"><path d="M58.538 18.291c-.046-.434-.242-.772-.587-1.014s-.785-.363-1.332-.363c-.384 0-.714.058-.989.174s-.486.273-.631.472a1.15 1.15 0 0 0-.224.681 1.03 1.03 0 0 0 .144.552 1.32 1.32 0 0 0 .403.398 2.84 2.84 0 0 0 .562.268c.206.073.413.134.621.184l.955.239a6.58 6.58 0 0 1 1.109.363 3.91 3.91 0 0 1 .96.577 2.56 2.56 0 0 1 .676.84c.166.328.249.713.249 1.153 0 .597-.152 1.122-.457 1.576s-.746.804-1.322 1.059-1.268.378-2.083.378c-.792 0-1.48-.123-2.063-.368s-1.034-.603-1.362-1.074-.501-1.044-.527-1.72h1.815c.027.355.136.65.328.885s.442.411.751.527.66.174 1.044.174c.401 0 .752-.06 1.054-.179s.544-.292.716-.507.26-.474.264-.766c-.003-.265-.081-.484-.234-.656s-.366-.322-.641-.437-.59-.225-.955-.318l-1.158-.298c-.839-.215-1.501-.542-1.989-.979s-.726-1.026-.726-1.755c0-.6.162-1.125.487-1.576s.774-.8 1.337-1.049 1.201-.378 1.914-.378c.723 0 1.356.126 1.899.378s.976.595 1.288 1.039.472.948.482 1.521h-1.775zm6.859 7.532c-.766 0-1.427-.159-1.984-.477s-.979-.776-1.278-1.362-.447-1.284-.447-2.083c0-.785.149-1.475.447-2.068s.722-1.061 1.263-1.392 1.175-.502 1.904-.502c.471 0 .915.076 1.332.229a3.1 3.1 0 0 1 1.114.696c.322.315.58.716.766 1.203s.278 1.061.278 1.73v.552h-6.259v-1.213h4.534c-.003-.345-.078-.651-.224-.92a1.64 1.64 0 0 0-.612-.641c-.262-.155-.56-.234-.905-.234-.368 0-.691.09-.969.268a1.85 1.85 0 0 0-.651.696c-.152.285-.23.598-.234.94v1.059c0 .444.081.825.244 1.143a1.72 1.72 0 0 0 .681.726c.292.169.633.249 1.024.249a2.2 2.2 0 0 0 .711-.109 1.52 1.52 0 0 0 .552-.333c.156-.146.273-.326.353-.542l1.68.189a2.62 2.62 0 0 1-.607 1.163c-.295.328-.673.583-1.134.766s-.988.268-1.581.268zm4.918-.149v-7.636h1.745v1.273h.08c.139-.441.378-.781.716-1.019a1.97 1.97 0 0 1 1.168-.363l.333.015a2.23 2.23 0 0 1 .313.035v1.656a1.85 1.85 0 0 0-.363-.07 3.34 3.34 0 0 0-.472-.035 1.82 1.82 0 0 0-.885.214c-.259.139-.462.333-.612.582a1.64 1.64 0 0 0-.224.86v4.489h-1.8zm12.604-7.636L80.2 25.674h-1.989l-2.719-7.636h1.919l1.755 5.673h.08l1.76-5.673h1.914zm1.246 7.636v-7.636h1.8v7.636h-1.8zm.905-8.72a1.05 1.05 0 0 1-.736-.283.91.91 0 0 1-.308-.691.91.91 0 0 1 .308-.691A1.04 1.04 0 0 1 85.07 15a1.03 1.03 0 0 1 .736.288.92.92 0 0 1 .308.691c0 .272-.103.499-.308.691a1.03 1.03 0 0 1-.736.283zm6.076 8.869c-.762 0-1.417-.167-1.964-.502a3.33 3.33 0 0 1-1.258-1.387c-.295-.59-.437-1.276-.437-2.048s.149-1.46.447-2.053a3.34 3.34 0 0 1 1.263-1.392c.547-.335 1.193-.502 1.939-.502.62 0 1.168.114 1.646.343a2.85 2.85 0 0 1 1.148.96c.285.415.447.892.487 1.442h-1.72c-.07-.368-.235-.675-.497-.92s-.605-.373-1.039-.373c-.368 0-.691.099-.97.298s-.495.477-.651.845-.229.809-.229 1.322c0 .52.076.968.229 1.342s.366.658.641.86a1.64 1.64 0 0 0 .979.298 1.64 1.64 0 0 0 .711-.149 1.43 1.43 0 0 0 .532-.442c.142-.192.24-.426.293-.701h1.72c-.043.54-.202 1.019-.477 1.437s-.65.739-1.124.974-1.031.348-1.67.348zm8.13 0c-.766 0-1.427-.159-1.984-.477s-.979-.776-1.278-1.362-.447-1.284-.447-2.083c0-.785.149-1.475.447-2.068s.722-1.061 1.263-1.392 1.175-.502 1.904-.502c.471 0 .915.076 1.332.229a3.1 3.1 0 0 1 1.114.696c.322.315.58.716.765 1.203s.279 1.061.279 1.73v.552h-6.26v-1.213h4.534a1.93 1.93 0 0 0-.223-.92 1.62 1.62 0 0 0-.612-.641c-.262-.155-.56-.234-.905-.234-.368 0-.691.09-.969.268a1.85 1.85 0 0 0-.651.696c-.152.285-.23.598-.234.94v1.059c0 .444.081.825.244 1.143a1.72 1.72 0 0 0 .681.726c.292.169.633.249 1.024.249a2.18 2.18 0 0 0 .711-.109 1.58 1.58 0 0 0 .552-.333 1.4 1.4 0 0 0 .353-.542l1.68.189a2.61 2.61 0 0 1-.607 1.163 2.96 2.96 0 0 1-1.133.766c-.461.183-.988.268-1.581.268zm8.47-.149V15.492h3.818c.783 0 1.439.136 1.969.408s.937.653 1.208 1.143.413 1.056.413 1.705-.139 1.22-.418 1.7-.681.847-1.218 1.109-1.196.388-1.978.388h-2.72v-1.531h2.471c.457 0 .832-.063 1.124-.189a1.32 1.32 0 0 0 .646-.562c.139-.245.214-.554.214-.915s-.072-.669-.214-.925-.36-.454-.651-.587-.668-.204-1.129-.204h-1.69v8.641h-1.845zm5.26-4.614l2.521 4.614h-2.058l-2.476-4.614h2.013zm7.038 4.763c-.766 0-1.427-.159-1.984-.477s-.98-.776-1.278-1.362-.447-1.284-.447-2.083c0-.785.149-1.475.447-2.068a3.38 3.38 0 0 1 1.263-1.392c.54-.331 1.175-.502 1.904-.502.471 0 .915.076 1.332.229a3.01 3.01 0 0 1 1.114.696c.325.315.58.716.766 1.203s.278 1.061.278 1.73v.552h-6.259v-1.213h4.534a1.93 1.93 0 0 0-.224-.92 1.62 1.62 0 0 0-.611-.641 1.72 1.72 0 0 0-.905-.234c-.368 0-.691.09-.97.268s-.495.408-.651.696-.23.598-.233.94v1.059c0 .444.081.825.243 1.143a1.72 1.72 0 0 0 .681.726c.291.169.633.249 1.024.249a2.2 2.2 0 0 0 .711-.109 1.58 1.58 0 0 0 .552-.333 1.38 1.38 0 0 0 .353-.542l1.681.189a2.62 2.62 0 0 1-.607 1.163 2.96 2.96 0 0 1-1.133.766c-.46.183-.988.268-1.581.268zm6.717-10.331v10.182h-1.799V15.492h1.799zm1.851 10.182v-7.636h1.8v7.636h-1.8zm.905-8.72a1.05 1.05 0 0 1-.736-.283c-.205-.192-.308-.423-.308-.691a.91.91 0 0 1 .308-.691 1.04 1.04 0 0 1 .736-.288 1.03 1.03 0 0 1 .736.288c.205.189.308.419.308.691s-.103.499-.308.691a1.04 1.04 0 0 1-.736.283zm4.943 8.874c-.484 0-.92-.086-1.308-.258a2.08 2.08 0 0 1-.914-.776c-.225-.342-.333-.762-.333-1.263 0-.431.079-.787.238-1.069s.376-.507.651-.676a3.28 3.28 0 0 1 .93-.383 7.57 7.57 0 0 1 1.079-.194l1.089-.124c.278-.04.48-.099.606-.179s.194-.211.194-.383v-.03c0-.375-.111-.665-.333-.87s-.542-.308-.959-.308c-.441 0-.791.096-1.049.288s-.428.419-.518.681l-1.68-.239c.133-.464.351-.852.656-1.163s.678-.55 1.119-.706.928-.239 1.462-.239a4.75 4.75 0 0 1 1.098.129 3.09 3.09 0 0 1 1 .428c.302.199.543.462.725.8s.279.761.279 1.268v5.111h-1.73v-1.049h-.06c-.109.212-.263.411-.462.597s-.443.33-.741.443-.641.164-1.039.164zm.467-1.322a1.95 1.95 0 0 0 .94-.214c.265-.143.469-.338.611-.577s.219-.499.219-.78v-.9a.84.84 0 0 1-.288.129c-.133.04-.282.075-.448.104l-.492.079-.422.06c-.269.036-.509.096-.721.179s-.38.199-.502.348a.86.86 0 0 0-.184.567c0 .331.121.582.363.751s.55.254.924.254zm5.454 1.168V15.492h1.8V19.3h.074c.093-.186.224-.383.393-.592s.398-.393.686-.542.656-.229 1.104-.229a2.91 2.91 0 0 1 1.596.452c.477.298.855.741 1.133 1.327s.423 1.299.423 2.148c0 .838-.138 1.551-.413 2.138s-.649 1.034-1.123 1.342a2.89 2.89 0 0 1-1.611.462c-.438 0-.801-.073-1.089-.219s-.52-.322-.696-.527a3.08 3.08 0 0 1-.403-.592h-.104v1.203h-1.77zm1.765-3.818c0 .494.07.926.209 1.298s.346.661.611.87.594.308.975.308c.397 0 .731-.106.999-.318s.471-.509.607-.88a3.71 3.71 0 0 0 .208-1.278c0-.478-.068-.895-.203-1.263s-.339-.656-.607-.865-.603-.313-1.004-.313c-.385 0-.711.101-.98.303s-.472.486-.611.85-.204.794-.204 1.288zm6.974 3.818v-7.636h1.8v7.636h-1.8zm.905-8.72a1.05 1.05 0 0 1-.736-.283.91.91 0 0 1-.308-.691.9.9 0 0 1 .308-.691 1.04 1.04 0 0 1 .736-.288 1.03 1.03 0 0 1 .736.288c.205.189.308.419.308.691s-.103.499-.308.691a1.04 1.04 0 0 1-.736.283zm4.545-1.462v10.182h-1.8V15.492h1.8zm1.851 10.182v-7.636h1.799v7.636h-1.799zm.905-8.72c-.286 0-.531-.094-.736-.283a.91.91 0 0 1-.309-.691.9.9 0 0 1 .309-.691 1.04 1.04 0 0 1 .736-.288 1.03 1.03 0 0 1 .735.288.9.9 0 0 1 .309.691.91.91 0 0 1-.309.691 1.03 1.03 0 0 1-.735.283z"/><path d="M163.884 18.038v1.392h-4.39v-1.392h4.39zm-3.306-1.829h1.8v7.169c0 .242.036.428.109.557a.59.59 0 0 0 .299.259 1.14 1.14 0 0 0 .407.07c.113 0 .216-.008.308-.025l.219-.045.303 1.407c-.096.033-.233.07-.412.109a3.5 3.5 0 0 1-.646.07 2.94 2.94 0 0 1-1.219-.204 1.9 1.9 0 0 1-.86-.706c-.208-.318-.311-.716-.308-1.193V16.21zm5.93 12.329c-.245 0-.472-.02-.681-.06s-.37-.08-.492-.129l.417-1.402c.262.076.496.113.701.109a.86.86 0 0 0 .542-.194c.159-.123.294-.328.403-.617l.154-.413-2.769-7.796h1.909l1.76 5.767h.079l1.765-5.767h1.914l-3.057 8.561c-.143.404-.332.751-.567 1.039s-.524.514-.865.666-.742.234-1.213.234zM53.004 30.492h2.257l3.023 7.378h.119l3.023-7.378h2.257v10.182h-1.77v-6.995h-.094l-2.814 6.965h-1.322l-2.814-6.98h-.094v7.01h-1.77V30.492zM67.81 40.828c-.484 0-.92-.086-1.308-.258a2.09 2.09 0 0 1-.915-.776c-.226-.342-.333-.762-.333-1.263 0-.431.08-.787.239-1.069s.376-.507.651-.676a3.28 3.28 0 0 1 .93-.383 8.04 8.04 0 0 1 1.079-.194l1.089-.124c.279-.04.481-.099.607-.179s.194-.21.194-.383v-.03c0-.374-.111-.665-.333-.87s-.542-.308-.959-.308c-.441 0-.791.096-1.049.288a1.43 1.43 0 0 0-.517.681l-1.68-.239c.133-.464.351-.852.656-1.163s.678-.55 1.119-.706.928-.239 1.462-.239a4.76 4.76 0 0 1 1.099.129 3.09 3.09 0 0 1 .999.427c.302.196.544.462.726.8s.278.761.278 1.268v5.111h-1.73v-1.049h-.06a2.2 2.2 0 0 1-.462.597c-.196.182-.442.33-.741.442s-.641.164-1.039.164zm.467-1.322c.361 0 .674-.071.94-.214a1.58 1.58 0 0 0 .612-.577 1.47 1.47 0 0 0 .219-.781v-.9c-.056.046-.152.09-.288.129a4.3 4.3 0 0 1-.447.104l-.492.079-.423.06c-.268.036-.509.096-.721.179s-.379.199-.502.348a.85.85 0 0 0-.184.567c0 .332.121.582.363.751s.55.254.925.254zm7.174-3.306v4.474h-1.8v-7.636h1.72v1.298h.09a2.18 2.18 0 0 1 .84-1.019c.388-.252.867-.378 1.437-.378.527 0 .986.113 1.377.338a2.3 2.3 0 0 1 .915.979c.216.427.326.946.323 1.556v4.862h-1.8V36.09c0-.51-.133-.91-.398-1.198s-.625-.433-1.089-.433c-.315 0-.595.07-.84.209s-.433.333-.572.592-.204.572-.204.94zm8.929 4.628c-.484 0-.92-.086-1.308-.258a2.09 2.09 0 0 1-.915-.776c-.226-.342-.333-.762-.333-1.263 0-.431.08-.787.239-1.069s.376-.507.651-.676a3.28 3.28 0 0 1 .93-.383 8.04 8.04 0 0 1 1.079-.194l1.089-.124c.278-.04.48-.099.606-.179s.194-.21.194-.383v-.03c0-.374-.111-.665-.333-.87s-.542-.308-.959-.308c-.441 0-.791.096-1.049.288s-.428.419-.517.681l-1.68-.239c.133-.464.351-.852.656-1.163s.678-.55 1.119-.706.928-.239 1.462-.239a4.76 4.76 0 0 1 1.099.129 3.09 3.09 0 0 1 .999.427c.302.196.544.462.726.8s.278.761.278 1.268v5.111h-1.73v-1.049h-.06a2.2 2.2 0 0 1-.462.597c-.196.182-.442.33-.741.442s-.641.164-1.039.164zm.467-1.322c.361 0 .674-.071.94-.214a1.58 1.58 0 0 0 .612-.577 1.47 1.47 0 0 0 .219-.781v-.9c-.056.046-.152.09-.288.129a4.3 4.3 0 0 1-.447.104l-.492.079-.423.06c-.269.036-.509.096-.721.179s-.379.199-.502.348a.85.85 0 0 0-.184.567c0 .332.121.582.363.751s.55.254.925.254zm8.696 4.191c-.646 0-1.202-.088-1.666-.264s-.837-.404-1.119-.696a2.41 2.41 0 0 1-.587-.969l1.621-.393c.073.149.179.297.318.443s.326.272.562.368.538.149.9.149c.51 0 .933-.124 1.268-.373s.502-.65.502-1.213v-1.447h-.09c-.093.186-.229.376-.408.572s-.409.36-.701.492-.651.199-1.089.199c-.587 0-1.119-.137-1.596-.413s-.852-.693-1.133-1.243-.418-1.246-.418-2.078c0-.839.139-1.546.418-2.123s.661-1.019 1.138-1.318 1.009-.452 1.596-.452c.448 0 .815.076 1.104.229s.524.33.696.542a2.99 2.99 0 0 1 .393.592h.099v-1.263h1.775v7.761c0 .653-.156 1.193-.467 1.621s-.737.747-1.278.96-1.153.318-1.84.318zm.015-4.544c.381 0 .706-.093.974-.278s.472-.452.611-.8.209-.766.209-1.253c0-.481-.07-.901-.209-1.263s-.338-.641-.606-.84-.592-.303-.979-.303c-.401 0-.736.104-1.004.313s-.471.495-.606.86-.204.772-.204 1.233c0 .467.068.877.204 1.228a1.81 1.81 0 0 0 .611.815c.272.192.605.288.999.288zm8.794 1.67c-.765 0-1.427-.159-1.984-.477a3.19 3.19 0 0 1-1.277-1.362c-.298-.586-.448-1.284-.448-2.083 0-.785.149-1.475.448-2.068a3.38 3.38 0 0 1 1.263-1.392c.541-.331 1.175-.502 1.904-.502.47 0 .914.076 1.332.229a3.09 3.09 0 0 1 1.114.696c.322.315.58.716.765 1.203s.279 1.061.279 1.73v.552h-6.26v-1.213h4.534c-.004-.345-.078-.651-.224-.92a1.64 1.64 0 0 0-.612-.641c-.262-.155-.56-.234-.904-.234-.368 0-.692.089-.97.268a1.88 1.88 0 0 0-.651.696c-.156.288-.231.598-.234.94v1.059c0 .444.081.825.244 1.143a1.72 1.72 0 0 0 .681.726c.292.169.633.249 1.024.249.262 0 .499-.036.711-.109a1.58 1.58 0 0 0 .552-.333 1.39 1.39 0 0 0 .353-.542l1.68.189a2.62 2.62 0 0 1-.606 1.163c-.295.328-.673.583-1.134.766s-.988.269-1.581.269zm4.918-.149v-7.636h1.72v1.298h.09a2.03 2.03 0 0 1 .79-1.024c.367-.245.807-.373 1.318-.373.517 0 .953.126 1.307.378a2.01 2.01 0 0 1 .756 1.019h.08c.169-.424.454-.762.855-1.014s.883-.383 1.437-.383c.702 0 1.276.222 1.72.666s.666 1.092.666 1.944v5.126h-1.805v-4.847c0-.474-.126-.82-.378-1.039s-.56-.333-.924-.333c-.435 0-.774.136-1.019.408s-.363.618-.363 1.049v4.763h-1.765v-4.922c0-.394-.12-.709-.358-.945s-.544-.353-.925-.353a1.3 1.3 0 0 0-.706.199 1.41 1.41 0 0 0-.507.552c-.126.239-.189.51-.189.825v4.643h-1.8zm15.945.149c-.765 0-1.426-.159-1.983-.477s-.98-.776-1.278-1.362-.447-1.284-.447-2.083c0-.785.149-1.475.447-2.068a3.38 3.38 0 0 1 1.263-1.392c.54-.331 1.175-.502 1.904-.502.471 0 .915.076 1.332.229a3.1 3.1 0 0 1 1.114.696c.322.315.58.716.766 1.203s.278 1.061.278 1.73v.552h-6.259v-1.213h4.534a1.93 1.93 0 0 0-.224-.92 1.63 1.63 0 0 0-.611-.641 1.72 1.72 0 0 0-.905-.234c-.368 0-.691.089-.97.268s-.495.408-.651.696-.23.598-.234.94v1.059c0 .444.082.825.244 1.143s.389.557.681.726.633.249 1.024.249c.262 0 .499-.036.711-.109a1.58 1.58 0 0 0 .552-.333 1.38 1.38 0 0 0 .353-.542l1.68.189a2.62 2.62 0 0 1-.606 1.163c-.295.328-.673.583-1.134.766s-.987.269-1.581.269zm6.718-4.623v4.474h-1.799v-7.636h1.72v1.298h.089c.176-.428.456-.767.84-1.019s.867-.378 1.437-.378c.527 0 .986.113 1.377.338a2.27 2.27 0 0 1 .915.979c.219.428.327.946.323 1.556v4.862h-1.799V36.09c0-.51-.133-.91-.398-1.198s-.625-.433-1.089-.433a1.67 1.67 0 0 0-.84.209c-.242.136-.433.333-.572.592s-.204.572-.204.94zm10.545-3.162v1.392h-4.39v-1.392h4.39zm-3.306-1.829h1.8v7.169c0 .242.036.428.109.557a.59.59 0 0 0 .298.259c.123.046.259.07.408.07.113 0 .215-.008.308-.025l.219-.045.303 1.407c-.096.033-.233.07-.412.109s-.392.063-.647.07c-.45.013-.856-.055-1.218-.204a1.87 1.87 0 0 1-.86-.706c-.212-.318-.311-.716-.308-1.193V31.21z"/></g><path fill-rule="evenodd" d="M40.295 38.209L32.894 33.5c-1.303 1.154-3.017 1.854-4.894 1.854s-3.591-.7-4.894-1.854l-7.401 4.71c2.935 3.52 7.353 5.76 12.295 5.76s9.36-2.24 12.295-5.76zm1.185-1.617l-7.269-4.626a7.35 7.35 0 0 0 1.174-3.997c0-3.739-2.779-6.83-6.385-7.317V12c8.371.516 15 7.469 15 15.969 0 3.175-.925 6.135-2.52 8.623zM27 12c-8.371.516-15 7.469-15 15.969 0 3.175.925 6.135 2.52 8.623l7.27-4.626a7.35 7.35 0 0 1-1.174-3.997c0-3.739 2.779-6.829 6.384-7.317V12z" fill="url(#A)"/><path d="M24.99 27.731a1 1 0 0 0-1.365 1.462l1.365-1.462zm1.428 2.7l-.682.731a1 1 0 0 0 1.365 0l-.682-.731zm5.957-4.192a1 1 0 0 0-1.365-1.462l1.365 1.462zm-8.749 2.954l2.11 1.969L27.1 29.7l-2.11-1.969-1.365 1.462zm3.474 1.969l5.275-4.923-1.365-1.462-5.275 4.923 1.365 1.462z" fill="#ae82fc"/><defs><linearGradient id="A" x1="17.539" y1="12" x2="34.068" y2="43.988" gradientUnits="userSpaceOnUse"><stop stop-color="#bea1ff"/><stop offset="1" stop-color="#8a36ff"/></linearGradient></defs></svg>