<svg viewBox="0 0 33 32" xmlns="http://www.w3.org/2000/svg">
<path fill-rule="evenodd" clip-rule="evenodd" d="M26.5325 24.357C24.1478 27.178 20.5831 28.9694 16.6 28.9694C12.6168 28.9694 9.05196 27.1779 6.66731 24.3568L12.6924 20.5226C13.7423 21.4244 15.1075 21.9694 16.6 21.9694C18.0924 21.9694 19.4575 21.4245 20.5073 20.5228L26.5325 24.357ZM27.5991 22.9022L21.6926 19.1435C22.2676 18.2228 22.6 17.1349 22.6 15.9694C22.6 12.9614 20.3865 10.4704 17.4996 10.0364V3C24.2596 3.46205 29.6 9.09205 29.6 15.9694C29.6 18.5181 28.8665 20.8956 27.5991 22.9022ZM15.6996 3.00005C8.93991 3.46248 3.59998 9.09231 3.59998 15.9694C3.59998 18.5181 4.33342 20.8954 5.60076 22.902L11.5072 19.1433C10.9323 18.2226 10.6 17.1348 10.6 15.9694C10.6 12.9617 12.813 10.4709 15.6996 10.0365V3.00005Z" fill="url(#paint0_linear_10_445)"/>
<path fill-rule="evenodd" clip-rule="evenodd" d="M20.1579 13.2859C20.4971 13.6493 20.4774 14.2188 20.1141 14.558L15.8284 18.558C15.4826 18.8807 14.946 18.8807 14.6002 18.558L12.8859 16.958C12.5225 16.6188 12.5029 16.0493 12.842 15.6859C13.1812 15.3225 13.7507 15.3029 14.1141 15.6421L15.2143 16.6689L18.8859 13.2421C19.2493 12.9029 19.8188 12.9225 20.1579 13.2859Z" fill="url(#paint1_linear_10_445)"/>
<defs>
<linearGradient id="paint0_linear_10_445" x1="10.6981" y1="4.41525" x2="22.4798" y2="27.5654" gradientUnits="userSpaceOnUse">
<stop stop-color="#BEA1FF"/>
<stop offset="1" stop-color="#8A36FF"/>
</linearGradient>
<linearGradient id="paint1_linear_10_445" x1="14.7294" y1="13.3161" x2="16.8861" y2="19.0084" gradientUnits="userSpaceOnUse">
<stop stop-color="#BEA1FF"/>
<stop offset="1" stop-color="#8A36FF"/>
</linearGradient>
</defs>
</svg>
