<svg viewBox="0 0 13 20" fill="none" xmlns="http://www.w3.org/2000/svg">
<path fill-rule="evenodd" clip-rule="evenodd" d="M2.00676 11.2513C1.34402 11.2513 0.806763 11.7886 0.806763 12.4513L0.806763 18.7513C0.806763 19.4141 1.34402 19.9513 2.00676 19.9513L4.55676 19.9513C5.2195 19.9513 5.75676 19.4141 5.75676 18.7513L5.75676 12.4513C5.75676 11.7886 5.2195 11.2513 4.55676 11.2513L2.00676 11.2513ZM2.00676 18.7513L2.00676 12.4513L4.55676 12.4513L4.55676 18.7513L2.00676 18.7513Z" fill="#4F5162"/>
<path fill-rule="evenodd" clip-rule="evenodd" d="M9.04814 11.2513C8.3854 11.2513 7.84814 11.7886 7.84814 12.4513L7.84814 18.7513C7.84814 19.4141 8.3854 19.9513 9.04814 19.9513L11.5981 19.9513C12.2609 19.9513 12.7981 19.4141 12.7981 18.7513L12.7981 12.4513C12.7981 11.7886 12.2609 11.2513 11.5981 11.2513L9.04814 11.2513ZM9.04814 18.7513L9.04814 12.4513L11.5981 12.4513L11.5981 18.7513L9.04814 18.7513Z" fill="#4F5162"/>
<path fill-rule="evenodd" clip-rule="evenodd" d="M1.99395 0.471558C1.3312 0.471558 0.793945 1.00882 0.793945 1.67156L0.793946 7.97156C0.793946 8.6343 1.3312 9.17156 1.99395 9.17156L4.54395 9.17156C5.20669 9.17156 5.74395 8.6343 5.74395 7.97156L5.74395 1.67156C5.74395 1.00882 5.20669 0.471557 4.54395 0.471557L1.99395 0.471558ZM1.99395 7.97156L1.99395 1.67156L4.54395 1.67156L4.54395 7.97156L1.99395 7.97156Z" fill="#4F5162"/>
<path fill-rule="evenodd" clip-rule="evenodd" d="M4.20598 11.7059L4.20598 8.70593L3.00598 8.70593L3.00598 11.7059L4.20598 11.7059Z" fill="#4F5162"/>
<path fill-rule="evenodd" clip-rule="evenodd" d="M5.48096 5.55596L7.73093 5.55596C7.73092 5.55596 7.73094 5.55596 7.73093 5.55596C8.22946 5.55598 8.57642 5.63939 8.822 5.76218C9.0597 5.88103 9.23298 6.05167 9.36627 6.2849C9.65446 6.7892 9.75596 7.57909 9.75596 8.70564L9.75596 11.7056L10.956 11.7056L10.956 8.70564C10.956 7.58251 10.87 6.4976 10.4081 5.6895C10.1664 5.26653 9.82409 4.92158 9.35866 4.68887C8.90112 4.4601 8.35744 4.35598 7.73098 4.35596L5.48096 4.35596L5.48096 5.55596Z" fill="#4F5162"/>
</svg>
