<svg xmlns="http://www.w3.org/2000/svg" viewBox="0 0 12 12"><path fill-rule="evenodd" clip-rule="evenodd" d="m5.483 3.083.64-.64c.515-.516 1.42-.874 2.318-1.002a4.273 4.273 0 0 1 1.204-.016c.354.053.57.157.672.258.101.101.205.318.258.672.051.342.047.76-.016 1.204-.128.898-.486 1.803-1.002 2.318L6 9.434l-.917-.917a.4.4 0 1 0-.566.566l1.2 1.2a.4.4 0 0 0 .566 0l.437-.438.937 1.56a.4.4 0 0 0 .626.078l1.6-1.6a.4.4 0 0 0 .113-.34l-.372-2.601.499-.5c.684-.683 1.086-1.78 1.228-2.77.072-.502.08-1.001.015-1.436-.063-.422-.205-.84-.483-1.119-.279-.278-.697-.42-1.12-.483a5.066 5.066 0 0 0-1.435.015c-.99.142-2.087.544-2.77 1.228l-.5.499-2.602-.372a.4.4 0 0 0-.339.113l-1.6 1.6a.4.4 0 0 0 .077.626l1.56.937-.437.437a.4.4 0 0 0 0 .566l1.2 1.2a.4.4 0 1 0 .566-.566L2.566 6l.517-.517 2.4-2.4Zm2.596 7.472-.775-1.293L8.917 7.65l.259 1.81-1.097 1.096ZM2.738 4.696 4.35 3.083l-1.81-.259-1.096 1.097 1.293.775Zm-.855 3.587a.4.4 0 1 0-.566-.566l-.8.8a.4.4 0 1 0 .566.566l.8-.8Zm1.2 1.2a.4.4 0 0 0-.566-.566l-1.6 1.6a.4.4 0 0 0 .566.566l1.6-1.6Zm1.2 1.2a.4.4 0 0 0-.566-.566l-.8.8a.4.4 0 0 0 .566.566l.8-.8ZM7.6 5.399a.999.999 0 1 0 0-1.998.999.999 0 0 0 0 1.998Z" fill="currentColor" fill-opacity=".726"/></svg>