<svg xmlns="http://www.w3.org/2000/svg" viewBox="0 0 16 16" fill="none"><g clip-path="url(#a)"><path stroke="#6B6D85" d="M3.31 10.15 1.454 8.292a.414.414 0 0 1 0-.586L3.31 5.851a.414.414 0 0 1 .586 0l1.856 1.856a.415.415 0 0 1 0 .586l-1.856 1.856a.415.415 0 0 1-.586 0Zm4.397 4.395L5.85 12.69a.415.415 0 0 1 0-.586l1.856-1.857a.415.415 0 0 1 .586 0l1.856 1.857a.416.416 0 0 1 0 .586l-1.856 1.856a.415.415 0 0 1-.586 0Zm0-8.792L5.85 3.897a.414.414 0 0 1 0-.586l1.856-1.856a.414.414 0 0 1 .586 0l1.856 1.856a.415.415 0 0 1 0 .586L8.293 5.753a.415.415 0 0 1-.586 0Zm4.396 4.396-1.856-1.856a.415.415 0 0 1 0-.586l1.856-1.856a.415.415 0 0 1 .586 0l1.856 1.856a.415.415 0 0 1 0 .586l-1.856 1.856a.415.415 0 0 1-.586 0Z"/></g><defs><clipPath id="a"><path fill="#fff" d="M0 0h16v16H0z"/></clipPath></defs></svg>
