<svg width="40" height="40" viewBox="0 0 40 40" fill="currentColor" xmlns="http://www.w3.org/2000/svg"><path fill-rule="evenodd" clip-rule="evenodd" d="M25.8725 21.6875C22.9399 21.6875 20.5625 24.0649 20.5625 26.9975C20.5625 29.9301 22.9399 32.3075 25.8725 32.3075C27.0683 32.3075 28.1718 31.9122 29.0595 31.2451L33.9023 36.0879C34.1952 36.3808 34.6701 36.3808 34.9629 36.0879C35.2558 35.7951 35.2558 35.3202 34.9629 35.0273L30.1201 30.1845C30.7872 29.2968 31.1825 28.1933 31.1825 26.9975C31.1825 24.0649 28.8051 21.6875 25.8725 21.6875ZM22.0625 26.9975C22.0625 24.8933 23.7683 23.1875 25.8725 23.1875C27.9767 23.1875 29.6825 24.8933 29.6825 26.9975C29.6825 29.1017 27.9767 30.8075 25.8725 30.8075C23.7683 30.8075 22.0625 29.1017 22.0625 26.9975Z" fill="black"/><path fill-rule="evenodd" clip-rule="evenodd" d="M4 3H22.0607L31 11.9393V21.2041C30.5424 20.8176 30.0393 20.4831 29.5 20.2099V13H21V4.5H5.5V34.875H25.7966C25.865 34.8768 25.9336 34.8777 26.0024 34.8777C26.0712 34.8777 26.1398 34.8768 26.2082 34.875H29.5074L31.0074 36.375H4V3ZM22.5 5.56066L28.4393 11.5H22.5V5.56066Z" fill="black"/><path d="M7.9375 20H22.9546C22.1056 20.3635 21.3348 20.8742 20.674 21.5H7.9375V20Z" fill="black"/><path d="M7.9375 24.25H18.8043C18.6129 24.7283 18.4678 25.2302 18.3745 25.75H7.9375V24.25Z" fill="black"/><path d="M7.9375 28.5H18.3735C18.4664 29.0198 18.6111 29.5216 18.8021 30H7.9375V28.5Z" fill="black"/><path d="M18.5625 13H7.9375V11.5H18.5625V13Z" fill="black"/><path d="M27.0625 17.25H7.9375V15.75H27.0625V17.25Z" fill="black"/></svg>
