<svg xmlns="http://www.w3.org/2000/svg" viewBox="0 0 16 16" fill="none"><path stroke="#6B6D85" stroke-linecap="round" stroke-linejoin="round" d="M14 11.133 8.205 8.079a.442.442 0 0 0-.41 0L2 11.133m.02-6.313 5.774 3.042a.442.442 0 0 0 .411 0L14 4.81M8 1.945V7.97m0 5.022v1.674m0-3.348a.665.665 0 0 0 .667-.67A.67.67 0 0 0 8 9.98a.665.665 0 0 0-.667.67.671.671 0 0 0 .667.67Zm6-6.46v6.223a.404.404 0 0 1-.206.352l-5.6 3.124a.4.4 0 0 1-.388 0l-5.6-3.124A.401.401 0 0 1 2 11.082V4.86a.403.403 0 0 1 .206-.35l5.6-3.125a.399.399 0 0 1 .388 0l5.6 3.125a.401.401 0 0 1 .206.35Z"/></svg>
