<svg xmlns="http://www.w3.org/2000/svg" viewBox="0 0 16 16" fill="none"><path stroke="currentColor" stroke-linecap="round" stroke-linejoin="round" d="m7.61 13.573-5.417-2.967A.372.372 0 0 1 2 10.283V4.57a.365.365 0 0 1 .193-.322L7.429 1.38a.378.378 0 0 1 .363 0l5.236 2.868a.372.372 0 0 1 .193.322v2.242M2 5.149l5.1 2.793a.378.378 0 0 0 .363 0l5.117-2.803M7.28 8.04v3.38m0-9.526v4.302m4.15 5.067.44.434m-1.321.435.44.435m.441-3.043-2.645 2.608a1.22 1.22 0 0 0 0 1.738l.44.435a1.248 1.248 0 0 0 .882.36 1.263 1.263 0 0 0 .882-.36l2.645-2.608A1.227 1.227 0 0 0 14 10.83a1.214 1.214 0 0 0-.365-.87l-.441-.434a1.256 1.256 0 0 0-1.763 0Z"/></svg>
