<svg xmlns="http://www.w3.org/2000/svg" fill="currentColor" viewBox="0 0 28 25">
  <path
    d="M21.295 20.87h.5v-.003l-.5.003ZM21.19 3.682h-.5v.003l.5-.003Zm-17.39 0h.5-.5Zm11.686 15.273h.5a.5.5 0 0 0-.5-.5v.5ZM1 18.955v-.5a.5.5 0 0 0-.5.5H1ZM27 5.639v.5a.5.5 0 0 0 .5-.5H27Zm-5.8 0-.5.003.5-.003Zm-6.631 6.498a.5.5 0 1 0 0-1v1Zm-5-1a.5.5 0 1 0 0 1v-1Zm2.918-2a.5.5 0 0 0-1 0h1Zm-1 5a.5.5 0 1 0 1 0h-1Zm9.308 6.733a2.406 2.406 0 0 1-2.405 2.406v1a3.406 3.406 0 0 0 3.405-3.406h-1Zm-2.405 2.406a2.406 2.406 0 0 1-2.405-2.406h-1a3.406 3.406 0 0 0 3.405 3.406v-1Zm-14.485 0A2.406 2.406 0 0 1 1.5 20.87h-1a3.406 3.406 0 0 0 3.405 3.406v-1Zm0 1H18.39v-1H3.905v1Zm2.8-24a3.406 3.406 0 0 0-3.406 3.406h1a2.406 2.406 0 0 1 2.406-2.406v-1Zm9.28 20.594v-1.915h-1v1.915h1ZM.5 18.955v1.915h1v-1.915h-1Zm14.985-.5H3.799v1h11.686v-1Zm-11.686 0H1v1h2.8v-1ZM27.5 3.682A3.406 3.406 0 0 0 24.095.276v1A2.406 2.406 0 0 1 26.5 3.682h1ZM24.095.276a3.406 3.406 0 0 0-3.406 3.406h1a2.406 2.406 0 0 1 2.406-2.406v-1Zm-17.4 1h17.4v-1h-17.4v1ZM3.299 3.682v15.273h1V3.682h-1Zm23.201 0V5.64h1V3.682h-1Zm-5.81.003.01 1.957 1-.006-.01-1.957-1 .006Zm.01 1.957.095 15.231 1-.006-.094-15.231-1 .006ZM27 5.14h-5.8v1H27v-1Zm-11.013 6.498a4 4 0 0 1-4 4v1a5 5 0 0 0 5-5h-1Zm-4 4a4 4 0 0 1-4-4h-1a5 5 0 0 0 5 5v-1Zm-4-4a4 4 0 0 1 4-4v-1a5 5 0 0 0-5 5h1Zm4-4a4 4 0 0 1 4 4h1a5 5 0 0 0-5-5v1Zm2.582 3.5h-2.582v1h2.582v-1Zm-2.582 0H9.569v1h2.418v-1Zm-.5-2v2.5h1v-2.5h-1Zm0 2.5v2.5h1v-2.5h-1Z" />
</svg>
