<svg width="65" height="65" fill="none" xmlns="http://www.w3.org/2000/svg"><path fill-rule="evenodd" clip-rule="evenodd" d="M7.066 13.53c0-1.032.784-2.155 2.087-2.155h46.905c1.303 0 2.087 1.123 2.087 2.154v39.254c0 1.031-.784 2.154-2.087 2.154H9.153c-1.303 0-2.087-1.123-2.087-2.154V13.53Zm3 .845v4.565h45.078v-4.565H10.066Zm45.078 7.565H10.066v29.997h45.078V21.94Z" fill="currentColor"/><path fill-rule="evenodd" clip-rule="evenodd" d="M43.288 28.63a3.118 3.118 0 1 0-.096 6.236 3.118 3.118 0 0 0 .096-6.236Zm-6.091 3.12a6.091 6.091 0 1 1 11.534 2.735v10.468a1.487 1.487 0 0 1-2.438 1.14l-2.635-2.198-2.9 2.235a1.485 1.485 0 0 1-2.393-1.177v-9.618a6.063 6.063 0 0 1-1.168-3.586Zm6.09 6.09a6.07 6.07 0 0 0 2.472-.523v4.46l-1.111-.927a1.486 1.486 0 0 0-1.86-.037l-1.452 1.12V37.52c.613.208 1.27.32 1.952.32Zm-27.861-7.214c0-.821.663-1.486 1.482-1.486h14.923c.819 0 1.482.665 1.482 1.486 0 .82-.663 1.485-1.482 1.485H16.908a1.484 1.484 0 0 1-1.482-1.485Zm1.482 4.45a1.485 1.485 0 0 0-1.482 1.486c0 .821.663 1.486 1.482 1.486h14.923a1.485 1.485 0 0 0 1.482-1.486c0-.82-.663-1.486-1.482-1.486H16.908Z" fill="currentColor"/></svg>