<svg xmlns="http://www.w3.org/2000/svg" fill="currentColor" viewBox="0 0 12 12"><g clip-path="url(#a)"><path fill="#FF7020" d="M5.5 8.5c0 .275.225.5.5.5s.5-.225.5-.5S6.275 8 6 8s-.5.225-.5.5Zm0-7v2h1v-.96A3.498 3.498 0 0 1 6 9.5a3.497 3.497 0 0 1-2.71-5.71L6 6.5l.705-.705-3.4-3.4v.01A4.476 4.476 0 0 0 1.5 6 4.5 4.5 0 1 0 6 1.5h-.5ZM9 6c0-.275-.225-.5-.5-.5S8 5.725 8 6s.225.5.5.5.5-.225.5-.5ZM3 6c0 .275.225.5.5.5S4 6.275 4 6s-.225-.5-.5-.5-.5.225-.5.5Z"/></g><defs><clipPath id="a"><path fill="currentColor" d="M0 0h12v12H0z"/></clipPath></defs></svg>