<svg viewBox="0 0 41 36" width="41" xmlns="http://www.w3.org/2000/svg"><path d="m18.9934 3.04217c.3299-1.01521 1.7661-1.01521 2.096 0l2.6764 8.23713c.1475.4541.5706.7614 1.048.7614l8.6611.0001c1.0674 0 1.5113 1.3659.6477 1.9933l-7.007 5.0909c-.3862.2806-.5478.778-.4003 1.232l2.6764 8.2372c.3299 1.0152-.832 1.8594-1.6956 1.2319l-7.007-5.0908c-.3862-.2806-.9092-.2806-1.2954 0l-7.0069 5.0908c-.8636.6275-2.0256-.2167-1.6957-1.2319l2.6764-8.2372c.1475-.454-.0141-.9514-.4003-1.232l-7.00695-5.0909c-.86359-.6274-.41977-1.9933.64769-1.9933l8.66106-.0001c.4774 0 .9005-.3073 1.048-.7614z" fill="#2bb1f2"/><g clip-rule="evenodd" fill="#000" fill-rule="evenodd"><path d="m23.0672 10.4944-2.6765-8.23719c-.1099-.3384-.5887-.3384-.6986.00001l-2.6764 8.23718c-.2459.7567-.951 1.269-1.7467 1.269h-8.66106c-.35582 0-.50376.4553-.2159.6645l7.00696 5.0908c.6437.4677.913 1.2966.6672 2.0533l-2.6765 8.2372c-.1099.3384.2774.6198.5653.4107l7.0069-5.0909c.6437-.4677 1.5153-.4677 2.159 0l7.007 5.0909c.2878.2091.6751-.0723.5652-.4107l-2.6764-8.2372c-.2459-.7567.0234-1.5856.6671-2.0533l7.007-5.0908c.2878-.2092.1399-.6645-.2159-.6645h-8.6611c-.7956 0-1.5008-.5123-1.7466-1.269zm-1.9778-8.46419c-.3299-1.01521-1.7661-1.01521-2.096 0l-2.6764 8.23719c-.1475.454-.5706.7614-1.048.7614h-8.66106c-1.06746 0-1.51128 1.3659-.64769 1.9934l7.00695 5.0908c.3862.2806.5478.778.4003 1.232l-2.6764 8.2372c-.3299 1.0152.8321 1.8594 1.6957 1.232l7.0069-5.0909c.3862-.2806.9092-.2806 1.2954 0l7.007 5.0909c.8636.6274 2.0255-.2168 1.6956-1.232l-2.6764-8.2372c-.1475-.454.0141-.9514.4003-1.232l7.007-5.0908c.8636-.6275.4197-1.9934-.6477-1.9934h-8.6611c-.4774 0-.9005-.3074-1.048-.7614z"/><path d="m8.11554.253418c.20286 0 .36731.164449.36731.367307v2.616875c0 .20285-.16445.3673-.36731.3673s-.36731-.16445-.36731-.3673v-2.616875c0-.202858.16445-.367307.36731-.367307zm-3.78351 4.085012c0-.20285.16445-.3673.36731-.3673h2.43183c.20286 0 .3673.16445.3673.3673 0 .20286-.16444.36731-.3673.36731h-2.43183c-.20286 0-.36731-.16445-.36731-.36731zm4.32874 0c0-.20285.16445-.3673.36731-.3673h2.25302c.2029 0 .3674.16445.3674.3673 0 .20286-.1645.36731-.3674.36731h-2.25302c-.20286 0-.36731-.16445-.36731-.36731zm-.54523.72579c.20286 0 .36731.16445.36731.36731v2.55707c0 .20286-.16445.36731-.36731.36731s-.36731-.16445-.36731-.36731v-2.55707c0-.20286.16445-.36731.36731-.36731z"/><path d="m36.9632 17.1199c.2029 0 .3673.1644.3673.3673v2.6168c0 .2029-.1644.3674-.3673.3674s-.3673-.1645-.3673-.3674v-2.6168c0-.2029.1644-.3673.3673-.3673zm-3.7835 4.085c0-.2029.1644-.3673.3673-.3673h2.4318c.2029 0 .3673.1644.3673.3673 0 .2028-.1644.3673-.3673.3673h-2.4318c-.2029 0-.3673-.1645-.3673-.3673zm4.3287 0c0-.2029.1645-.3673.3673-.3673h2.2531c.2029 0 .3673.1644.3673.3673 0 .2028-.1644.3673-.3673.3673h-2.2531c-.2028 0-.3673-.1645-.3673-.3673zm-.5452.7258c.2029 0 .3673.1644.3673.3673v2.5571c0 .2028-.1644.3673-.3673.3673s-.3673-.1645-.3673-.3673v-2.5571c0-.2029.1644-.3673.3673-.3673z"/><path d="m4.45539 18.822c.20285 0 .3673.1645.3673.3673v2.6169c0 .2029-.16445.3673-.3673.3673-.20286 0-.36731-.1644-.36731-.3673v-2.6169c0-.2028.16445-.3673.36731-.3673zm-3.783515 4.085c0-.2028.164449-.3673.367305-.3673h2.43183c.20286 0 .36731.1645.36731.3673 0 .2029-.16445.3673-.36731.3673h-2.43183c-.202856 0-.367305-.1644-.367305-.3673zm4.328745 0c0-.2028.16445-.3673.36731-.3673h2.25306c.20286 0 .36731.1645.36731.3673 0 .2029-.16445.3673-.36731.3673h-2.25306c-.20286 0-.36731-.1644-.36731-.3673zm-.54523.7258c.20285 0 .3673.1645.3673.3673v2.5571c0 .2029-.16445.3673-.3673.3673-.20286 0-.36731-.1644-.36731-.3673v-2.5571c0-.2028.16445-.3673.36731-.3673z"/><path d="m33.3069.253418c.2029 0 .3674.164449.3674.367307v2.616865c0 .20286-.1645.36731-.3674.36731-.2028 0-.3673-.16445-.3673-.36731v-2.616865c0-.202858.1645-.367307.3673-.367307zm-3.7835 4.085012c0-.20285.1645-.3673.3673-.3673h2.4319c.2028 0 .3673.16445.3673.3673 0 .20286-.1645.36731-.3673.36731h-2.4319c-.2028 0-.3673-.16445-.3673-.36731zm4.3288 0c0-.20285.1644-.3673.3673-.3673h2.2531c.2028 0 .3673.16445.3673.3673 0 .20286-.1645.36731-.3673.36731h-2.2531c-.2029 0-.3673-.16445-.3673-.36731zm-.5453.72579c.2029 0 .3674.16445.3674.36731v2.55707c0 .20286-.1645.36731-.3674.36731-.2028 0-.3673-.16445-.3673-.36731v-2.55707c0-.20286.1645-.36731.3673-.36731z"/><path d="m20.1234 27.3342c.2028 0 .3673.1645.3673.3673v2.6169c0 .2029-.1645.3673-.3673.3673-.2029 0-.3674-.1644-.3674-.3673v-2.6169c0-.2028.1645-.3673.3674-.3673zm-3.7836 4.085c0-.2028.1645-.3673.3674-.3673h2.4318c.2028 0 .3673.1645.3673.3673 0 .2029-.1645.3674-.3673.3674h-2.4318c-.2029 0-.3674-.1645-.3674-.3674zm4.3288 0c0-.2028.1644-.3673.3673-.3673h2.2531c.2028 0 .3673.1645.3673.3673 0 .2029-.1645.3674-.3673.3674h-2.2531c-.2029 0-.3673-.1645-.3673-.3674zm-.5452.7258c.2028 0 .3673.1645.3673.3673v2.5571c0 .2029-.1645.3673-.3673.3673-.2029 0-.3674-.1644-.3674-.3673v-2.5571c0-.2028.1645-.3673.3674-.3673z"/></g></svg>