<svg viewBox="0 0 16 17" xmlns="http://www.w3.org/2000/svg"><path d="M7.333 11.747c0 .367.3.667.667.667.367 0 .667-.3.667-.667 0-.366-.3-.666-.667-.666-.367 0-.667.3-.667.666zm0-9.333v2.667h1.334V3.8A4.663 4.663 0 0 1 8 13.08a4.663 4.663 0 0 1-4.667-4.667c0-1.12.394-2.147 1.054-2.947L8 9.081l.94-.94-4.533-4.534v.014A5.969 5.969 0 0 0 2 8.414a6 6 0 1 0 6-6h-.667zm4.667 6c0-.367-.3-.667-.667-.667-.366 0-.666.3-.666.667 0 .367.3.667.666.667.367 0 .667-.3.667-.667zm-8 0c0 .367.3.667.667.667.366 0 .666-.3.666-.667 0-.367-.3-.667-.666-.667-.367 0-.667.3-.667.667z" fill="currentColor"/></svg>