<svg xmlns="http://www.w3.org/2000/svg" viewBox="0 0 20 20" fill="none"><path fill="currentColor" d="m9.334 4 .487.11.395-1.751-1.243 1.295.36.346ZM2 11.637l-.36-.347-.813.847H2v-.5Zm6.35-3.273-.488-.11-.138.61h.625v-.5Zm3.507 0 .36.346.813-.846h-1.173v.5ZM4.523 16l-.488-.11-.395 1.751 1.244-1.294L4.523 16Zm.984-4.363.488.11.138-.61h-.626v.5Zm3.466-7.983L1.639 11.29l.722.693 7.333-7.637-.721-.692Zm-.136 4.82.984-4.364-.975-.22-.984 4.364.975.22Zm3.02-.61H8.349v1h3.508v-1Zm-6.973 8.483 7.333-7.637-.721-.693-7.334 7.637.722.693Zm.135-4.82-.984 4.363.976.22.984-4.363-.976-.22ZM2 12.137h3.507v-1H2v1Z"/><path stroke="currentColor" stroke-linecap="round" stroke-linejoin="round" d="m15 12 2 2H9h8l-2 2"/></svg>