<svg xmlns="http://www.w3.org/2000/svg" fill="none" viewBox="0 0 20 20"><mask id="a" fill="#fff"><path fill-rule="evenodd" d="M3.333 12.273 13.52 1.667l-1.367 6.06h4.87L6.838 18.333l1.367-6.06h-4.87Z" clip-rule="evenodd"/></mask><path fill="#4F5162" d="m13.519 1.667.975.22.79-3.502L12.797.974l.722.693ZM3.333 12.273l-.72-.693-1.626 1.693h2.346v-1Zm8.819-4.546-.976-.22-.275 1.22h1.25v-1Zm4.87 0 .722.693 1.625-1.693h-2.346v1ZM6.838 18.333l-.975-.22-.79 3.502 2.487-2.59-.722-.692Zm1.367-6.06.976.22.275-1.22h-1.25v1Zm4.593-11.3L2.612 11.58l1.443 1.385L14.24 2.36 12.797.974Zm.33 6.974 1.367-6.06-1.95-.44-1.368 6.06 1.951.44Zm3.896-1.22h-4.871v2h4.87v-2ZM7.559 19.026 17.744 8.42l-1.443-1.386L6.116 17.641l1.443 1.385Zm-.33-6.973-1.367 6.06 1.951.44 1.367-6.06-1.951-.44Zm-3.896 1.22h4.871v-2h-4.87v2Z" mask="url(#a)"/></svg>