<svg fill="none" viewBox="0 0 32 32" xmlns="http://www.w3.org/2000/svg"><path clip-rule="evenodd" d="m13 5.75c0 .05175.0016.10313.0047.1541-.8893.17701-1.7628.45483-2.602.8342l.4119.91121c.7893-.35682 1.6124-.61583 2.4507-.77747.4112.81725 1.2575 1.37796 2.2347 1.37796.9594 0 1.7925-.54037 2.2117-1.33335.9916.21172 1.9579.55969 2.8678 1.04269l.4689-.88327c-.9714-.51563-2.0009-.88987-3.0566-1.12192.0054-.06733.0082-.13542.0082-.20415 0-1.38071-1.1193-2.5-2.5-2.5s-2.5 1.11929-2.5 2.5zm3.9127-.87101c.0704.07945.0632.201-.0163.27147l-1.4462 1.28276-.1347.11951-.1281-.12662-.7517-.74318c-.0756-.07467-.0763-.19643-.0016-.27196s.1964-.07623.272-.00156l.6236.61656 1.3115-1.16324c.0794-.07048.201-.0632.2715.01626zm-9.5758 3.86319c-.44778.40289-.87218.84539-1.26868 1.32742l.77234.6353c.36476-.4435.75457-.84987 1.1652-1.21933zm17.826 1.93332c-.3651-.5062-.7606-.97475-1.182-1.40522l-.7146.69949c.3864.39473.7497.82503 1.0856 1.29073l.0446.0619.811-.585zm.1785.2475-.0446-.0619-.811.585.0446.0619zm-18.01774 12.7921c-.43947-.4119-.85475-.863-1.24132-1.353l.78513-.6194c.35564.4509.73708.8651 1.14008 1.2429zm5.71514 2.9762c-.9223-.1946-1.8263-.4978-2.6909-.9101l.4305-.9027c.7362.3512 1.5042.6162 2.2884.7951.2602-1.1028 1.2509-1.9236 2.4332-1.9236 1.1898 0 2.1855.8312 2.4381 1.9446.8984-.1967 1.776-.5057 2.6094-.9265l.4508.8926c-.97.4898-1.9939.8404-3.041 1.0517-.2169 1.1598-1.2346 2.0376-2.4573 2.0376-1.2301 0-2.2528-.8885-2.4612-2.0587zm12.1466-4.5453c-.3754.4987-.7803.959-1.2104 1.3808l-.7002-.7139c.3944-.3868.7663-.8095 1.1117-1.2683l.0459-.061.7989.6014zm.1835-.2438-.0458.0609-.799-.6014.0459-.0609zm-8.4725 3.7483c.0795-.0705.0867-.1921.0163-.2715-.0705-.0795-.1921-.0868-.2715-.0163l-1.3115 1.1633-.6236-.6166c-.0756-.0747-.1973-.074-.272.0016-.0747.0755-.074.1973.0016.2719l.7517.7432.1281.1266.1347-.1195zm-5.3964-11.4005h-10v4h10zm-10-1c-.552285 0-1 .4477-1 1v4c0 .5523.447715 1 1 1h10c.5523 0 1-.4477 1-1v-4c0-.5523-.4477-1-1-1zm.6 2.2c0-.221.17909-.4.4-.4h2c.22091 0 .4.179.4.4 0 .2209-.17909.4-.4.4h-2c-.22091 0-.4-.1791-.4-.4zm.4 1.1c-.22091 0-.4.179-.4.4 0 .2209.17909.4.4.4h5c.22091 0 .4-.1791.4-.4 0-.221-.17909-.4-.4-.4zm18-2.3h10v4h-10zm-1 0c0-.5523.4477-1 1-1h10c.5523 0 1 .4477 1 1v4c0 .5523-.4477 1-1 1h-10c-.5523 0-1-.4477-1-1zm2 .8c-.2209 0-.4.179-.4.4 0 .2209.1791.4.4.4h2c.2209 0 .4-.1791.4-.4 0-.221-.1791-.4-.4-.4zm-.4 1.9c0-.221.1791-.4.4-.4h5c.2209 0 .4.179.4.4 0 .2209-.1791.4-.4.4h-5c-.2209 0-.4-.1791-.4-.4z" fill="currentColor" fill-rule="evenodd"/></svg>