<svg fill="none" viewBox="0 0 12 14" xmlns="http://www.w3.org/2000/svg"><path d="m5.76703 3.07924-3.35714 1.57143c-.14286.07143-.28572.21429-.35714.42857l-.85715 3.57143c-.07143.14286 0 .35714.07143.5 0 0 0 0 .07143.07143l2.28571 2.8571c.14286.1429.28572.2143.5.2143h3.71429c.21429 0 .35714-.0714.5-.2143l2.28574-2.8571c.1428-.14286.1428-.35714.1428-.5l-.85711-3.57143c-.07143-.21429-.14286-.35714-.35715-.42857l-3.35714-1.57143c0-.07143-.14285-.14286-.21428-.14286s-.14286 0-.21429.07143z" fill="#fff"/><path clip-rule="evenodd" d="m5.98129 4.22168c-.14286 0-.21429.07143-.21429.21429v.07142.21429.35714c0 .07143-.07143.07143-.07143.07143v.07143c-.14286 0-.21428 0-.35714.07143-.5.14286-1 .35714-1.28572.71428l-.07142-.07142h-.14286c-.07143-.07143-.14286-.14286-.28572-.21429l-.14285-.14286h-.07143c-.03572 0-.05357-.01785-.07143-.03571s-.03571-.03572-.07143-.03572c-.07143 0-.14286 0-.14286.07143-.07142.07143-.07142.21429.07143.28572h.07143c.07143.07143.14286.07143.14286.07143.14286.07142.21428.14285.28571.21428 0 0 .07143.07143.07143.14286l.07143.07143c-.35714.5-.5 1.14285-.42857 1.78571h-.07143l-.07143.07143c-.02958 0-.07143.01225-.12045.02661-.06932.02031-.15301.04482-.23669.04482h-.21429-.07143c-.14285 0-.21428.14286-.14285.21428 0 .07143.14285.14286.28571.14286h.07143c.03571 0 .07143-.01786.10714-.03571.03572-.01786.07143-.03572.10715-.03572.14285-.07143.21428-.07143.35714-.07143.03035 0 .04781 0 .06333.00549.021.00741.03845.02487.07953.06594h.07142c.21429.64286.64286 1.14286 1.14286 1.42858l-.07143.0714v.1429c-.02958.0296-.04691.0714-.06722.1204-.02872.0694-.06338.153-.14706.2367-.07143.0715-.07143.0715-.07143.1429v.0714c-.07143.1429 0 .2143.07143.2857.07143.0715.21428 0 .28571-.1428v-.0715c0-.0357.01786-.0714.03572-.1071.01785-.0357.03571-.0714.03571-.1071.03132-.0627.0489-.1253.0648-.1819.02036-.0725.03795-.1352.07806-.1753 0 0 .07143 0 .07143-.0714l.07142-.0714c.42858.1428 1 .2142 1.5.1428.07143 0 .125-.0178.17858-.0357.05357-.0179.10714-.0357.17857-.0357l.07143.0714s.07142 0 .07142.0714c.04012.0401.0577.1028.07806.1753.0159.0566.03348.1192.0648.1819 0 .0714 0 .1428.07143.2143v.0714c.07143.1429.14286.1429.28571.1429.07143-.0715.14286-.1429.07143-.2858v-.0714c0-.0357-.01785-.0536-.03571-.0714-.01786-.0179-.03572-.0357-.03572-.0714-.02728-.0546-.05456-.0988-.07786-.1365-.03771-.061-.06499-.1051-.06499-.1493v-.1428-.0714c.57143-.35719.92857-.85719 1.14285-1.42862h.07143s.07143-.07143.14286-.07143c.02959 0 .07143.01226.12045.02661.06933.02031.15301.04482.23669.04482.03572 0 .07143.01786.10715.03571.03571.01786.07142.03572.10714.03572h.07143c.14285 0 .21428-.07143.28571-.14286 0-.07143-.07143-.21428-.14286-.21428h-.07142-.21429c-.14286 0-.28571 0-.35714-.07143-.07143 0-.07143-.07143-.07143-.07143h-.07143c.07143-.28572 0-.64286-.07143-.92857-.07143-.28572-.21428-.64286-.35714-.85715l.07143-.07142c0-.07143 0-.07143.07143-.14286.07142-.07143.14285-.14286.28571-.21429.07143 0 .14286-.07143.14286-.07143h.07143c.07142-.07142.14285-.21428.07142-.28571-.07142-.07143-.21428-.07143-.28571 0h-.07143l-.14286.14286c-.07143.07143-.21428.21428-.28571.21428h-.14286l-.07143.07143c-.42857-.42857-1-.71428-1.64285-.78571v-.07143l-.07143-.07143v-.35714-.21429-.07143c-.01877-.02815-.03631-.05507-.05293-.0806l-.00003-.00004-.00001-.00001c-.10991-.16873-.1801-.27649-.30417-.27649zm-.21429 1.57143-.07143 1.07143c0 .07143-.07143.14285-.14286.14285h-.07142l-.85715-.64285c.28572-.28572.57143-.42857 1-.57143zm1.71429.57143c-.35715-.28572-.78572-.5-1.21429-.57143l.07143 1.07143.07143.07143c0 .07142.14285.07142.21428 0zm-3.21429.42857.78571.71428c.07143.07143.07143.14286 0 .21429l-.07142.07143-1 .28571c-.07143-.5 0-.92857.28571-1.28571zm3.78571.64286c-.07142-.21429-.14285-.42858-.28571-.64286l-.71429.71428c-.03571 0-.05357 0-.0625.00893-.00892.00893-.00892.02679-.00892.0625 0 .07143.07142.21429.14285.21429l1 .28571c0-.21428 0-.42857-.07143-.64285zm-2.21428.07142h.28571l.21429.21429-.07143.28571-.28571.14286-.28572-.14286-.07143-.28571zm2.07143 1-1.07143-.14285c-.09524.04762-.12698.09523-.15873.14285-.01587.02381-.03175.04762-.05556.07143l.42857 1c.42858-.28571.71429-.64285.85715-1.07143zm-2.78572-.14285c.07143 0 .14286.07143.14286.14285v.14286l-.42857 1c-.35714-.21428-.64286-.57143-.85714-1.07143zm.92857.42857h-.07142c-.02959 0-.04692.01225-.06723.02661-.02871.02031-.06338.04482-.14706.04482l-.5.92857c.35714.14286.78572.14286 1.14286.07143.03571 0 .07143-.01786.10714-.03572.03572-.01785.07143-.03571.10714-.03571l-.5-.92857z" fill="#3d81bc" fill-rule="evenodd"/><path d="m5.69557 5.15025v-.125h-.125v.125zm0 .07143v.125h.125v-.125zm-.35714.07143.03434.12019.01117-.00319.01039-.0052zm-1.28572.71428-.08838.08839.09875.09876.08724-.10906zm-.07142-.07142.08838-.08839-.03661-.03661h-.05177zm-.14286 0-.08839.08838.03661.03662h.05178zm-.28572-.21429-.08838.08839.01434.01434.01814.00907zm-.14285-.14286.08839-.08839-.03662-.03661h-.05177zm-.35715 0 .08839.08839.03661-.03661v-.05178zm.07143.28572-.0559.1118.02639.0132h.02951zm.07143 0 .08839-.08839-.03661-.03661h-.05178zm.14286.07143.0559-.11181-.02639-.01319h-.02951zm.35714.35714h-.125v.05177l.03661.03662zm.07143.07143.10172.07265.06155-.08617-.07488-.07487zm-.42857 1.78571v.125h.13966l-.01543-.1388zm-.07143 0v-.125h-.05178l-.03661.03661zm-.07143.07143v.125h.05178l.03661-.03661zm-.12045.02661.03514.11996zm-.66526.2591h.125v-.05177l-.03661-.03661zm.57143.07143v.125h.0295l.0264-.01319zm.42047-.06594.04163-.11787zm.07953.06594-.08839.08839.03661.03661h.05178zm.07142 0 .11859-.03953-.02849-.08547h-.0901zm1.14286 1.42858.08839.0884.11572-.11574-.14209-.0812zm-.07143.0714-.08839-.08837-.03661.03657v.0518zm0 .1429.08839.0884.03661-.0366v-.0518zm-.06722.1204-.11548-.0478zm-.14706.2367-.08839-.0884zm-.07143.2143.1118.0559.0132-.0264v-.0295zm.35714.1429.11181.0559.01319-.0264v-.0295zm.07143-.2857-.1118-.056-.0132.0264v.0296zm.0648-.1819-.12035-.0338zm.07806-.1753v-.125h-.05178l-.03661.0366zm.07143-.0714-.08839-.0884-.03661.0366v.0518zm.07142-.0714.03953-.1186-.07329-.0245-.05462.0547zm1.5.1428v-.125h-.00888l-.00879.0013zm.17858-.0357-.03953-.1186zm.17857-.0357.08839-.0884-.03662-.0366h-.05177zm.07143.0714-.08839.0884.03661.0366h.05178zm.07142.0714h-.125v.0518l.03662.0366zm.07806.1753-.12035.0338h.00001zm.0648.1819h.125v-.0295l-.01319-.0264zm.07143.2143h.125v-.0518l-.03661-.0366zm0 .0714h-.125v.0295l.0132.0264zm.28571.1429v.125h.05178l.03661-.0367zm.07143-.2858h-.125v.0295l.0132.0264zm-.03571-.1428.08839-.0884zm-.03572-.0714h.125v-.0296l-.01319-.0264zm-.07786-.1365.10633-.0657zm-.06499-.3635-.06625-.106-.05875.0367v.0693zm1.14285-1.42862v-.125h-.08662l-.03042.08111zm.07143 0v.125h.05178l.03661-.03661zm.26331-.04482-.03514.11996zm.34384.08053.0559-.1118zm.46428-.10714.08839.08839.03661-.03661v-.05178zm-.78571-.28571.08839-.08839-.03662-.03661h-.05177zm-.07143-.07143h.125v-.125h-.125zm-.07143 0-.12127-.03032-.03883.15532h.1601zm-.42857-1.78572-.08839-.08838-.07246.07246.05684.08526zm.07143-.07142.08839.08838.03661-.03661v-.05177zm.35714-.35715v-.125h-.02951l-.02639.0132zm.14286-.07143v-.125h-.05178l-.03661.03662zm.07143 0v.125h.05177l.03661-.03661zm-.21429-.28571v.125h.05178l.03661-.03661zm-.07143 0v-.125h-.05177l-.03662.03661zm-.14286.14286.08839.08839zm0 0 .08839.08839zm-.42857.21428v-.125h-.05177l-.03661.03661zm-.07143.07143-.08838.08839.08838.08839.08839-.08839zm-1.64285-.78571h-.125v.11188l.11119.01235zm0-.07143h.125v-.05178l-.03661-.03661zm-.07143-.07143h-.125v.05178l.03661.03661zm0-.64286h.125v-.03784l-.02099-.0315zm-.05293-.0806-.10483.06809.00009.00014zm-.00003-.00004-.10529.06738.00046.00071zm-.00001-.00001.10529-.06739-.00055-.00084zm-.58989 2.36637-.125-.00834v.00834zm.07143-1.07143.12472.00831.00889-.13331h-.13361zm-.28571 1.21428-.075.1.03333.025h.04167zm-.85715-.64285-.08839-.08839-.10191.10191.1153.08648zm1-.57143v-.125h-.02028l-.01925.00641zm.64286 0 .02055-.1233-.15578-.02596.01051.15757zm1.21429.57143.06933.104.14224-.09482-.13349-.10679zm-1.14286.5-.12472.00831.00312.04686.03321.03321zm.07143.07143h.125v-.05178l-.03661-.03661zm.21428 0-.06933-.10401-.0103.00686-.00875.00876zm-1.57143.57142.08849-.08848-.0044-.00401zm-.78571-.71428.08408-.09249-.09851-.08957-.08318.10397zm.78571.92857-.08838-.08839zm-.07142.07143.03434.12019.03114-.0089.0229-.0229zm-1 .28571-.12375.01768.02027.14189.13782-.03938zm3.78571-1.28571.10401-.06934-.08458-.12687-.10782.10782zm.28571.64286-.11858.03952zm-1 .07142v.125h.05178l.03661-.03661zm-.0625.00893-.08838-.08839-.00001.00001zm.13393.27679.03434-.12019-.01683-.00481h-.01751zm1 .28571-.03434.12019.15934.04553v-.16572zm-2-.57143.08839-.08838-.03661-.03662h-.05178zm-.28571 0v-.125h-.05178l-.03661.03662zm.5.21429.12127.03032.01716-.06866-.05004-.05005zm-.07143.28571.0559.11181.05142-.02571.01395-.05578zm-.28571.14286-.05591.1118.05591.02796.0559-.02796zm-.28572-.14286-.12127.03032.01395.05578.05142.02571zm-.07143-.28571-.08839-.08839-.05004.05005.01717.06866zm1.21429.64286.01652-.12391-.03807-.00507-.03435.01717zm1.07143.14285.11858.03953.04782-.14345-.14988-.01998zm-1.23016 0-.10401-.06933zm-.05556.07143-.08838-.08839-.05985.05985.03334.07778zm.42857 1-.11489.04924.0592.13813.12503-.08336zm-1.92857-1.21428v-.125h-.01161l-.01142.00214zm.14286.28571.11489.04924.01011-.02358v-.02566zm-.42857 1-.06431.10719.12279.07367.05641-.13162zm-.85714-1.07143-.02304-.12286-.1533.02875.06144.14335zm2.07142.21429.08839-.08839-.03661-.03661h-.05178zm-.13865.02661.07217.10206zm-.14706.04482v-.125h-.07466l-.0354.06573zm-.5.92857-.11006-.05926-.0664.12331.13004.05201zm1.14286.07143v-.125h-.01238l-.01214.00242zm.10714-.03572.0559.11181zm.10714-.03571v.125h.20928l-.09922-.18426zm-.5-.92857.11006-.05927-.0087-.01615-.01297-.01297zm-.23214-4.42857c0-.05217.01296-.06833.01696-.07233s.02017-.01696.07233-.01696v-.25c-.0907 0-.18168.02276-.24911.09018-.06742.06743-.09018.15841-.09018.24911zm0 .07142v-.07142h-.25v.07142zm0 .21429v-.21429h-.25v.21429zm0 .35714v-.35714h-.25v.35714zm-.19643.07143c0 .125.00006.125.00012.125h.00013.00026.00054c.00037-.00001.00076-.00001.00117-.00002.00083-.00001.00175-.00003.00275-.00007.002-.00006.00435-.00018.00701-.00037.00527-.00037.01199-.00107.01973-.00236.01489-.00248.03664-.00767.05991-.0193.02376-.01188.05132-.03166.07266-.06368.02186-.03279.03215-.0709.03215-.11063h-.25c0-.00401.00136-.01534.00983-.02804.00795-.01192.01765-.01831.02355-.02126.00542-.00271.00931-.00344.0108-.00368.00104-.00018.00219-.00031.00356-.00041.0007-.00005.00152-.0001.00247-.00013.00048-.00001.00099-.00003.00155-.00003.00028-.00001.00057-.00001.00087-.00002h.00046.00024.00012c.00006 0 .00012 0 .00012.125zm.125.07143v-.07143h-.25v.07143zm-.42624.18323c.0633-.03165.10488-.04461.14322-.051.04144-.00691.08413-.00723.15802-.00723v-.25c-.06897 0-.13342-.00032-.19912.01063-.0688.01147-.13437.03422-.21392.07399zm-1.24401.68057c.25975-.32468.72627-.53042 1.22245-.67218l-.06868-.24038c-.50382.14395-1.0373.36678-1.34898.75639zm-.25742-.06113.07143.07143.17677-.17677-.07143-.07143zm-.05447.03662h.14286v-.25h-.14286zm-.34162-.22749c.12444.06222.18438.12202.25323.19087l.17678-.17677c-.07401-.07401-.15692-.15706-.3182-.2377zm-.17534-.16627.14286.14286.17677-.17678-.14285-.14286zm.01696.03661h.07143v-.25h-.07143zm-.15982-.07232c.01917.01917.06914.07232.15982.07232v-.25c.00169 0 .00527.00024.00999.00156.00476.00134.00885.00326.01191.0051.0028.00168.00397.00283.00305.00201-.00134-.00117-.00307-.00285-.00799-.00777zm.01696.00089c-.00169 0-.00527-.00024-.00999-.00156-.00476-.00133-.00885-.00325-.01191-.00509-.0028-.00168-.00397-.00283-.00304-.00202.00133.00118.00306.00286.00798.00778l.17678-.17678c-.01917-.01917-.06914-.07233-.15982-.07233zm-.01786-.05357c0 .00376-.00135.01913-.01405.03545-.01185.01524-.02487.02-.02677.02064-.00117.00039.0024-.00087.01454-.00168.01184-.00079.0254-.00084.04414-.00084v-.25c-.02862 0-.08751-.0014-.13774.01535-.02869.00956-.06403.02771-.09151.06305-.02832.03641-.03861.07856-.03861.11803zm.00234.17391c-.03938-.01968-.04698-.0414-.04868-.0516-.00235-.01414.00284-.02702.00973-.03392l-.17677-.17678c-.06454.06454-.09506.15879-.07956.2518.01616.09694.07999.18237.18347.23411zm.01552-.01319h-.07143v.25h.07143zm.14286.19643c0-.125.00006-.125.00012-.125h.00012.00024.00045c.0003 0 .00058 0 .00085.00001.00053.00001.00101.00002.00143.00003.00084.00003.00147.00006.0019.00009.00084.00006.0009.00009.00029.00001-.00124-.00018-.00501-.00082-.01052-.00266-.01057-.00352-.02891-.01186-.04935-.0323l-.17678.17678c.05099.05098.10408.07836.14708.09269.02128.0071.03983.01092.05421.01297.00721.00103.01341.00162.01844.00196.00251.00017.00474.00027.00667.00033.00096.00003.00185.00005.00266.00007.0004 0 .00079.00001.00115.00001h.00054c.00008 0 .00017.00001.00025.00001h.00013c.00006 0 .00012 0 .00012-.125zm.3741.12589c-.07401-.07401-.15692-.15706-.3182-.2377l-.1118.22361c.12443.06222.18438.12202.25323.19087zm.10804.23125c0-.07329-.0347-.13454-.05671-.16755-.01236-.01854-.02453-.03374-.03365-.04438-.00461-.00538-.00859-.00977-.01162-.01301-.00151-.00162-.0028-.00297-.00382-.00403-.00051-.00052-.00095-.00098-.00133-.00136-.00019-.00019-.00036-.00036-.00051-.00052-.00007-.00007-.00014-.00014-.00021-.00021-.00004-.00003-.00007-.00007-.0001-.0001-.00001-.00001-.00004-.00004-.00004-.00004-.00003-.00003-.00005-.00005-.08844.08834-.08838.08839-.08841.08837-.08843.08835 0-.00001-.00002-.00003-.00004-.00004-.00002-.00003-.00005-.00006-.00008-.00008-.00004-.00005-.00009-.0001-.00013-.00014-.00008-.00008-.00015-.00015-.0002-.0002-.00011-.00011-.00015-.00015-.00014-.00014.00003.00003.00027.00028.00071.00075.00088.00094.00249.0027.00457.00513.00427.00499.00995.0121.01545.02035.01371.02056.01472.03074.01472.02888zm.03482-.01696-.07143-.07143-.17678.17678.07143.07143zm-.39273 1.8603c-.0685-.61658.0692-1.22766.40606-1.69926l-.20344-.14531c-.37742.5284-.52543 1.20304-.45109 1.87218zm-.19566.1388h.07143v-.25h-.07143zm.01696.03482.07143-.07143-.17678-.17678-.07143.07143zm-.1737.05818c.02534-.00742.04484-.0131.06149-.01709.01761-.00421.024-.00448.02382-.00448v-.25c-.02977 0-.05909.00586-.08205.01136-.02393.00573-.04986.01336-.07353.02029zm-.27183.04986c.10453 0 .2053-.03037.27183-.04986l-.07027-.23992c-.07213.02113-.13873.03978-.20156.03978zm-.21429 0h.21429v-.25h-.21429zm-.07143 0h.07143v-.25h-.07143zm-.05446.0009c.00557.00557.0083.0133.00856.01882.00021.00423-.00104.00385.00131-.00005.00412-.00687.01693-.01967.04459-.01967v-.25c-.11519 0-.20952.05863-.25897.14104-.04776.07961-.0592.19971.02773.28663zm.19732.10624c-.05247 0-.10471-.01354-.14052-.03145-.01798-.00898-.02673-.01653-.02926-.01924-.00318-.00341.00907.00777.00907.03283h-.25c0 .06079.0301.10767.05817.13775.02872.03077.06462.05447.10021.07227.07132.03566.16194.05784.25233.05784zm.07143 0h-.07143v.25h.07143zm.05124-.02252c-.01904.00952-.03094.01534-.04156.01932-.01009.00378-.0123.0032-.00968.0032v.25c.07096 0 .13459-.03468.16304-.04891zm.16305-.04891c-.07097 0-.13459.03468-.16305.04891l.1118.22361c.01905-.00952.03094-.01533.04157-.01932.01009-.00378.0123-.0032.00968-.0032zm.35714-.07143c-.06897 0-.13342-.00032-.19912.01063-.0688.01147-.13437.03422-.21393.074l.11181.22361c.0633-.03166.10487-.04462.14322-.05101.04144-.00691.08413-.00723.15802-.00723zm.10496.01262c-.0403-.01423-.08278-.01262-.10496-.01262v.25c.00782 0 .01367.00001.01878.00008.00505.00007.00808.00019.00998.00032.00356.00024-.0004.0003-.00706-.00205zm.12628.09542c-.01908-.01908-.03763-.03775-.05417-.05198-.01806-.01553-.0412-.03252-.07211-.04344l-.08327.23573c-.00991-.0035-.01382-.00806-.00763-.00274.00324.00278.00783.00702.01484.01384.00699.0068.01511.01491.02557.02537zm-.01696-.03661h-.07142v.25h.07142zm1.20488 1.44504c-.47284-.27019-.88156-.74538-1.08629-1.35957l-.23717.07906c.22384.67153.67226 1.19634 1.19942 1.49755zm-.04506.26834.07143-.0714-.17678-.17679-.07143.07142zm.03661.0545v-.1429h-.25v.1429zm-.07673.1683c.02301-.0556.03161-.0714.04012-.0799l-.17678-.1768c-.05066.0507-.07672.1185-.09431.161zm-.17416.2772c.10245-.1024.14478-.2063.17416-.2772l-.23097-.0957c-.02806.0677-.05506.1312-.11997.1961zm-.03482.0545c0-.0202.00014-.0264.00049-.03.00002-.0001-.0008.0065-.00476.0145-.00289.0057-.00477.0065.00231-.0013.00733-.0082.01797-.0189.03678-.0377l-.17678-.1768c-.01691.0169-.03306.033-.04582.0472-.013.0145-.02827.0331-.0401.0567-.02487.0498-.02212.1012-.02212.1274zm0 .0714v-.0714h-.25v.0714zm.03482.1973c-.03976-.0397-.05501-.0575-.06162-.0741-.00214-.0053-.00324-.0106-.00262-.0184.00069-.0086.0039-.0242.01622-.0489l-.2236-.1118c-.04843.0969-.05572.188-.02212.272.0291.0727.08529.1263.11696.158zm.08552-.1103c-.02542.0508-.06095.0828-.08696.0958-.01274.0064-.01829.0059-.01654.006.00384.0001.0119.0025.01798.0085l-.17678.1768c.08915.0892.20832.0718.28715.0324.08113-.0406.15275-.1157.19876-.2077zm-.0132-.0156v.0715h.25v-.0715zm.04891-.163c-.01423.0285-.04891.0921-.04891.163h.25c0 .0027-.00058.0004.0032-.0096.00399-.0107.0098-.0226.01932-.0416zm.02252-.0512c0-.0027.00058-.0005-.0032.0096-.00398.0107-.0098.0225-.01932.0416l.22361.1118c.01423-.0285.04891-.0921.04891-.163zm.06945-.2157c-.01618.0576-.031.1092-.05625.1597l.2236.1119c.03738-.0748.05774-.1485.07335-.204zm.11002-.2299c-.03653.0365-.05874.0792-.07403.1173-.01497.0372-.02627.078-.03599.1126l.2407.0676c.01064-.038.01832-.0648.02725-.087.00863-.0214.01526-.0301.01885-.0337zm.03482.017c0-.004.00136-.0154.00983-.0281.00795-.0119.01765-.0183.02355-.0212.00541-.0027.00931-.0035.0108-.0037.00104-.0002.00218-.0003.00355-.0004.00071-.0001.00152-.0001.00248-.0001.00047-.0001.00099-.0001.00155-.0001h.00087.00046.00024.00012c.00006 0 .00012 0 .00012.125s.00006.125.00012.125h.00013.00025.00054.00118c.00083 0 .00174 0 .00274-.0001.002 0 .00435-.0002.00701-.0003.00528-.0004.012-.0011.01974-.0024.01488-.0025.03664-.0077.0599-.0193.02376-.0119.05132-.0317.07266-.0637.02186-.0328.03216-.0709.03216-.1106zm.10804-.1598-.07143.0714.17677.1768.07143-.0715zm1.57071.1075c-.47862.0683-1.03044-.0003-1.4428-.1377l-.07905.2371c.44478.1483 1.03582.2225 1.5572.1481zm.15672-.0306c-.05352.0178-.08991.0293-.13905.0293v.25c.09373 0 .16448-.0242.21811-.0421zm.2181-.0421c-.09373 0-.16448.0242-.2181.0421l.07905.2372c.05353-.0179.08992-.0293.13905-.0293zm.15981.108-.07142-.0714-.17678.1768.07143.0714zm.10804.1598c0-.0397-.01029-.0778-.03215-.1106-.02134-.032-.0489-.0518-.07266-.0637-.02327-.0116-.04502-.0168-.0599-.0193-.00774-.0013-.01446-.002-.01974-.0023-.00266-.0002-.00501-.0003-.00701-.0004-.001 0-.00192-.0001-.00274-.0001-.00042 0-.00081 0-.00118 0-.00019 0-.00037 0-.00054 0-.00009 0-.00017 0-.00026 0-.00004 0-.0001 0-.00012 0-.00006 0-.00012 0-.00012.125s-.00006.125-.00012.125c-.00002 0-.00009 0-.00012 0-.00008 0-.00016 0-.00024 0-.00016 0-.00031 0-.00046 0-.0003 0-.0006 0-.00087 0-.00056 0-.00108 0-.00156 0-.00095-.0001-.00176-.0001-.00247-.0002-.00137-.0001-.00251-.0002-.00355-.0004-.00149-.0002-.00539-.001-.0108-.0037-.0059-.0029-.0156-.0093-.02355-.0212-.00847-.0127-.00984-.024-.00984-.0281zm.07341.1415c-.00972-.0346-.02101-.0754-.03599-.1126-.01529-.038-.0375-.0807-.07403-.1173l-.17677.1768c.00358.0036.01022.0123.01884.0337.00893.0223.01661.0491.02725.087zm.05626.1598c-.02526-.0505-.04008-.1021-.05626-.1598l-.24069.0676c.0156.0556.03596.1292.07334.204zm.04801.1818c-.01936-.0194-.02607-.0349-.02962-.0491-.0046-.0184-.0052-.0388-.0052-.0768h-.25c0 .0733-.00225.1924.10804.3027zm.03661.1598v-.0714h-.25v.0714zm.16071.0179c-.07959 0-.10572-.002-.12321-.009-.00569-.0022-.02257-.0086-.0507-.0648l-.2236.1118c.0433.0866.09785.1517.18145.1852.07179.0287.15281.0268.21606.0268zm-.04037-.1049c.01232.0247.01553.0404.01622.049.00062.0077-.00048.013-.00262.0184-.00661.0165-.02186.0343-.06161.0741l.17677.1767c.03167-.0316.08786-.0852.11696-.158.0336-.084.02631-.1751-.02211-.272zm-.0132-.1273v.0714h.25v-.0714zm.0009.017c.00492.0049.0066.0066.00777.008.00082.0009-.00033-.0003-.00201-.0031-.00184-.0031-.00376-.0071-.0051-.0119-.00132-.0047-.00156-.0083-.00156-.01h.25c0-.0907-.05315-.1406-.07232-.1598zm-.07233-.1598c0 .0906.05316.1406.07233.1598l.17678-.1768c-.00492-.0049-.0066-.0067-.00778-.008-.00081-.0009.00034.0002.00202.003.00184.0031.00376.0072.00509.012.00133.0047.00156.0083.00156.01zm-.0592-.0707c.02332.0377.0479.0776.0724.1266l.22361-.1119c-.03007-.0601-.06006-.1085-.08334-.1462zm-.08365-.2151c0 .0482.01498.0896.03053.1222.01507.0316.03538.0641.05312.0929l.21267-.1315c-.01996-.0323-.03215-.0523-.04015-.0691-.00751-.0157-.00617-.0185-.00617-.0145zm0-.1428v.1428h.25v-.1428zm0-.0714v.0714h.25v-.0714zm1.15081-1.47251c-.2062.54988-.54744 1.02607-1.09206 1.36651l.1325.212c.59824-.37395.97128-.89775 1.19365-1.49073zm.18847-.08111h-.07143v.25h.07143zm.14286-.07143c-.07329 0-.13454.0347-.16755.05671-.01854.01236-.03374.02453-.04438.03365-.00538.00462-.00977.00859-.01301.01162-.00162.00151-.00297.0028-.00402.00382-.00053.00051-.00099.00096-.00137.00133-.00019.00019-.00036.00036-.00051.00051-.00008.00008-.00015.00015-.00022.00022-.00003.00003-.00006.00006-.0001.00009-.00001.00002-.00003.00004-.00004.00005-.00002.00002-.00004.00004.08834.08843.08839.08839.08837.08841.08835.08843-.00001.00001-.00003.00003-.00004.00004-.00003.00003-.00005.00005-.00008.00008-.00005.00005-.00009.00009-.00014.00013-.00008.00009-.00015.00015-.0002.00021-.00011.0001-.00015.00015-.00014.00013.00003-.00002.00028-.00027.00075-.00071.00095-.00088.0027-.00248.00513-.00456.00499-.00428.01211-.00996.02035-.01546.02056-.01371.03074-.01472.02888-.01472zm.15559.03165c-.02368-.00693-.04961-.01456-.07354-.02029-.02296-.0055-.05228-.01136-.08205-.01136v.25c-.00018 0 .00621.00027.02382.00449.01665.00398.03615.00966.06149.01708zm.20155.03978c-.06283 0-.12943-.01865-.20155-.03978l-.07028.23992c.06653.01949.1673.04986.27183.04986zm.16305.04891c-.02846-.01423-.09208-.04891-.16305-.04891v.25c-.00262 0-.00041-.00058.00968.0032.01063.00398.02252.0098.04156.01932zm.05124.02252c.00262 0 .00041.00058-.00968-.0032-.01062-.00399-.02252-.0098-.04156-.01932l-.11181.22361c.02846.01423.09208.04891.16305.04891zm.07143 0h-.07143v.25h.07143zm.19732-.10625c-.07011.07012-.10943.10625-.19732.10625v.25c.19782 0 .30136-.10673.3741-.17947zm-.05447-.00089c-.02411 0-.0344-.01144-.02941-.00711.00376.00326.01144.01178.02044.02677.00862.01437.01599.0306.02097.04553.00541.01623.00586.02447.00586.02409h.25c0-.06645-.02902-.14252-.06245-.19824-.01779-.02964-.04136-.06131-.07108-.08707-.02849-.02469-.0745-.05397-.13433-.05397zm-.07142 0h.07142v-.25h-.07142zm-.21429 0h.21429v-.25h-.21429zm-.44553-.10804c.06455.06455.15111.08765.2225.09785.07301.01043.15391.01019.22303.01019v-.25c-.07374 0-.13569-.00025-.18768-.00768-.05361-.00766-.0742-.02027-.08107-.02714zm.01696-.15982c-.125 0-.125.00006-.125.00012v.00013.00025.00054c.00001.00037.00001.00077.00002.00118.00001.00083.00003.00174.00007.00275.00006.00199.00018.00434.00037.007.00037.00528.00107.012.00236.01974.00248.01488.00767.03664.0193.0599.01188.02376.03166.05132.06368.07266.03279.02187.0709.03216.11063.03216v-.25c.00401 0 .01534.00136.02804.00983.01192.00795.01831.01765.02126.02355.00271.00541.00344.00931.00368.0108.00018.00104.00031.00218.00041.00355.00005.00071.0001.00152.00013.00248.00001.00047.00003.00099.00003.00155.00001.00028.00001.00057.00002.00087v.00046.00024.00012c0 .00006 0 .00012-.125.00012zm-.07143.125h.07143v-.25h-.07143zm-.1927-1.02326c.07208.2883.1343.61646.07143.86794l.24254.06064c.07999-.31995-.00065-.70607-.07143-.98921zm-.33988-.81812c.13267.199.27079.54174.33988.81812l.24254-.06063c-.07376-.29505-.22135-.66659-.3744-.89616zm.08705-.22915-.07143.07143.17678.17677.07143-.07143zm.07143-.14286c-.01691.01691-.03306.033-.04582.04718-.013.01444-.02827.03309-.0401.05674-.02487.04974-.02212.1011-.02212.12733h.25c0-.02018.00014-.02642.00049-.02998.00002-.00013-.0008.00652-.00476.01445-.00289.00579-.00478.00658.00231-.0013.00733-.00814.01797-.01884.03677-.03764zm.3182-.2377c-.16128.08064-.24419.16369-.3182.2377l.17677.17678c.06885-.06885.1288-.12866.25323-.19087zm.19876.04037c-.08839-.08838-.08837-.08841-.08835-.08843.00001 0 .00003-.00002.00004-.00004.00003-.00002.00006-.00005.00008-.00007.00005-.00005.0001-.0001.00014-.00014.00008-.00008.00015-.00015.0002-.0002.00011-.00011.00015-.00015.00014-.00014-.00003.00003-.00028.00027-.00075.00071-.00095.00088-.0027.00249-.00513.00457-.00499.00427-.01211.00995-.02035.01545-.02056.01371-.03074.01472-.02888.01472v.25c.07329 0 .13454-.0347.16755-.05671.01854-.01235.03374-.02453.04438-.03365.00538-.00461.00977-.00859.01301-.01162.00162-.00151.00297-.0028.00403-.00382.00052-.00051.00098-.00095.00136-.00133.00019-.00019.00036-.00036.00051-.00051.00008-.00007.00015-.00014.00022-.00021.00003-.00003.00007-.00007.0001-.0001.00001-.00001.00003-.00004.00004-.00004.00002-.00003.00005-.00005-.08834-.08844zm.07143-.125h-.07143v.25h.07143zm-.01696-.07232c-.01503-.01503.00026-.02286-.01234.01494-.01103.03308-.03546.07037-.05909.094l.17677.17677c.0478-.0478.0948-.11766.11949-.19171.02311-.06935.0384-.18432-.04806-.27078zm-.10894 0c.00697-.00697.02571-.01696.05447-.01696s.0475.00999.05447.01696l.17677-.17678c-.06446-.06446-.15286-.09018-.23124-.09018s-.16679.02572-.23125.09018zm-.15982.03661h.07143v-.25h-.07143zm-.05447.10625.14286-.14286-.17678-.17678-.14285.14286zm0 0-.17677-.17678h-.00001zm-.3741.25089c.0531 0 .09991-.02403.12832-.04082.03275-.01935.06534-.04416.09456-.0685.05861-.04885.11607-.10642.15122-.14157l-.17678-.17678c-.03628.03628-.08596.08585-.13449.12629-.02435.02029-.04533.03566-.06169.04533-.02069.01222-.01852.00605-.00114.00605zm-.14286 0h.14286v-.25h-.14286zm.01696.03482.07143-.07143-.17677-.17678-.07143.07143zm-1.74505-.74987c.61419.06825 1.15945.34104 1.56828.74987l.17677-.17678c-.44831-.44831-1.04591-.74694-1.71744-.82156zm-.11119-.19566v.07143h.25v-.07143zm-.03482.01696.07143.07143.17678-.17678-.07143-.07143zm-.03661-.44553v.35714h.25v-.35714zm0-.21429v.21429h.25v-.21429zm0-.07143v.07143h.25v-.07143zm-.03267-.01237c.01658.02546.03447.05292.05366.08171l.20802-.13868c-.01835-.02751-.03554-.05389-.0522-.07948zm-.00012-.00018.00003.00004.20966-.13617-.00003-.00005zm-.00046-.00072v.00001l.21057-.13476-.00001-.00002zm-.19889-.21887c.0182 0 .03645.00496.06786.0372.03634.0373.07414.09434.13157.18251l.20948-.13645c-.05248-.08056-.10473-.16176-.16198-.22052-.06218-.06382-.14106-.11274-.24693-.11274zm-.16099 2.52617.07142-1.07143-.24944-.01663-.07143 1.07143zm-.26759.25954c.07637 0 .14228-.03692.18661-.08125s.08125-.11024.08125-.1866h-.25c0-.00295.00069-.00307-.00055-.00041-.00124.00267-.00368.00644-.00748.01023-.00379.0038-.00756.00624-.01023.00748-.00266.00125-.00255.00055.0004.00055zm-.07142 0h.07142v-.25h-.07142zm-.93215-.66785.85715.64285.15-.2-.85715-.64285zm1.03547-.79002c-.43869.14623-.74435.29712-1.04886.60163l.17678.17678c.26692-.26693.53269-.40175.95114-.54124zm.18239-.00641h-.14286v.25h.14286zm.47945.2483c.40329.06721.81258.2704 1.15675.54574l.15617-.19522c-.37012-.2961-.81797-.52148-1.27182-.59712zm.2167.93981-.07143-1.07143-.24944.01663.07143 1.07143zm.0351-.00864-.07143-.07143-.17678.17677.07143.07143zm.03751 0c-.0034.0034-.0099.00801-.01973.01175-.00988.00377-.01938.00521-.02582.00521-.00819 0-.00307-.00203.0086.00515.00674.00415.01641.01198.02432.02507.00825.01367.01173.02837.01173.04121h-.25c0 .06754.03713.11845.08292.14663.04069.02504.08599.03194.12243.03194.07244 0 .15963-.02749.22232-.09019zm.87619-.58705-.85714.57143.13867.20801.85714-.57143zm-2.27515 1.15437-.78572-.71428-.16816.18498.78571.71429zm.0043.39517c.04934-.04934.09019-.11497.09019-.19553s-.04085-.1462-.09019-.19553l-.17677.17677c.02209.02209.01696.02789.01696.01876s.00513-.00334-.01696.01875zm-.07143.07143.07143-.07143-.17677-.17678-.07143.07143zm-1.05404.31751 1-.28571-.06868-.24038-1 .28571zm.15376-1.48399c-.3137.39213-.38648.85906-.31185 1.38148l.24749-.03535c-.06823-.47758.00185-.8678.25958-1.18995zm3.4936.14743c.13235.19852.19931.39757.27114.61304l.23717-.07905c-.07103-.2131-.14693-.44262-.30029-.67267zm-.52189.73333.71429-.71428-.17678-.17678-.71428.71429zm-.0625.00893c-.01324.01324-.02732.02038-.03754.02406-.00918.00331-.0156.00395-.01584.00398-.00048.00005.00106-.00013.00647-.00024.0053-.00011.01172-.00012.02102-.00012v-.25c-.0148 0-.0365-.00018-.05509.00188-.01768.00197-.06035.00822-.09579.04366zm.02769-.02589c0-.00931 0-.01573.00011-.02102.00011-.00542.00029-.00695.00024-.00647-.00003.00023-.00067.00666-.00398.01584-.00367.01022-.01081.0243-.02406.03754l-.17678-.17677c-.03544.03544-.04169.07811-.04365.09578-.00207.0186-.00188.0403-.00188.0551zm.01785.08929c.02412 0 .03441.01143.02941.0071-.00376-.00326-.01144-.01177-.02043-.02677-.00863-.01437-.01599-.0306-.02097-.04553-.00541-.01623-.00586-.02447-.00586-.02409h-.25c0 .06645.02902.14252.06245.19824.01779.02965.04136.06131.07108.08707.02849.02469.07449.05398.13432.05398zm1.03434.29052-1-.28571-.06868.24038 1 .28571zm-.22435-.48314c.06403.19209.06501.38623.06501.60333h.25c0-.21146.00099-.44589-.07784-.68238zm-1.80999-.0931h-.28571v.25h.28571zm.30268.2509-.21429-.21428-.17678.17677.21429.21429zm-.03855.40442.07143-.28571-.24254-.06064-.07143.28572zm-.35108.22434.28571-.14285-.1118-.22361-.28572.14286zm-.39752-.14285.28571.14285.11181-.2236-.28572-.14286zm-.13679-.3672.07142.28571.24254-.06063-.07143-.28572zm.24716-.33299-.21429.21428.17678.17678.21429-.21429zm1.07187 1.06943 1.07143.14286.03304-.24781-1.07143-.14286zm-.0382.08829c.01619-.02429.02594-.03839.03993-.05238.01317-.01316.03355-.02944.07069-.04801l-.1118-.22361c-.0581.02905-.10121.0604-.13566.09485-.03363.03363-.05563.06715-.07118.09048zm-.07118.09048c.03363-.03363.05562-.06715.07118-.09048l-.20802-.13867c-.01619.02429-.02594.03838-.03993.05237zm.45508.86237-.42857-1-.22979.09848.42857 1zm.62366-1.06171c-.13285.39856-.39905.73438-.80789 1.00695l.13867.20801c.4483-.29887.75354-.67733.90639-1.13591zm-2.39927.03952c0-.07636-.03692-.14227-.08125-.1866s-.11024-.08125-.18661-.08125v.25c-.00295 0-.00306-.00069-.0004.00055s.00643.00368.01023.00748c.00379.00379.00624.00756.00748.01023.00124.00266.00055.00254.00055-.00041zm0 .14286v-.14286h-.25v.14286zm-.43868 1.04924.42857-1-.22978-.09848-.42857 1zm-1.08693-1.07143c.22148.51679.52204.89796.90773 1.12938l.12862-.21438c-.3286-.19715-.59947-.53027-.80656-1.01348zm1.23472-.38638-1.14286.21428.04607.24572 1.14286-.21428zm.88018.67643h.07142v-.25h-.07142zm.00494.00367c.00552-.0039.00807-.00567.0102-.00704.00177-.00113.00153-.00085-.00003-.00013-.00177.00081-.00448.00184-.0078.00259-.00332.00074-.00591.00091-.00731.00091v-.25c-.07275 0-.11892.03507-.1394.04955zm-.21923.06776c.05448 0 .09952-.00806.1387-.02301.0388-.0148.06586-.03437.08053-.04475l-.14434-.20412c-.01404.00993-.01867.01276-.0253.01529-.00625.00239-.02038.00659-.04959.00659zm-.38994.86283.5-.92857-.22012-.11853-.5.92858zm1.00828-.11041c-.34184.06837-.74415.06619-1.07192-.06491l-.09284.23212c.38652.15463.84135.15243 1.21379.07794zm.07576-.02494c-.01904.00952-.03094.01533-.04156.01932-.01009.00378-.0123.0032-.00968.0032v.25c.07096 0 .13458-.03468.16304-.04891zm.16304-.04891c-.07096 0-.13458.03468-.16304.04891l.1118.22361c.01905-.00953.03094-.01534.04156-.01932.0101-.00378.0123-.0032.00968-.0032zm-.61006-.74431.5.92857.22012-.11852-.5-.92858zm-.04975-.0423.07143.07143.17677-.17678-.07143-.07143z" fill="#326ce5"/></svg>