<svg viewBox="0 0 12 14" fill="none" xmlns="http://www.w3.org/2000/svg">
<path d="M5.76703 3.07924L2.40989 4.65067C2.26703 4.7221 2.12417 4.86496 2.05275 5.07924L1.1956 8.65067C1.12417 8.79353 1.1956 9.00781 1.26703 9.15067C1.26703 9.15067 1.26703 9.15067 1.33846 9.2221L3.62417 12.0792C3.76703 12.2221 3.90989 12.2935 4.12417 12.2935H7.83846C8.05275 12.2935 8.1956 12.2221 8.33846 12.0792L10.6242 9.2221C10.767 9.07924 10.767 8.86496 10.767 8.7221L9.90989 5.15067C9.83846 4.93638 9.76703 4.79353 9.55274 4.7221L6.1956 3.15067C6.1956 3.07924 6.05275 3.00781 5.98132 3.00781C5.90989 3.00781 5.83846 3.00781 5.76703 3.07924Z" fill="white"/>
<path fill-rule="evenodd" clip-rule="evenodd" d="M5.98129 4.22168C5.83843 4.22168 5.767 4.29311 5.767 4.43597V4.50739V4.72168V5.07882C5.767 5.15025 5.69557 5.15025 5.69557 5.15025V5.22168C5.55271 5.22168 5.48129 5.22168 5.33843 5.29311C4.83843 5.43597 4.33843 5.65025 4.05271 6.00739L3.98129 5.93597H3.83843C3.767 5.86454 3.69557 5.79311 3.55271 5.72168L3.40986 5.57882H3.33843C3.30271 5.57882 3.28486 5.56097 3.267 5.54311C3.24914 5.52525 3.23129 5.50739 3.19557 5.50739C3.12414 5.50739 3.05271 5.50739 3.05271 5.57882C2.98129 5.65025 2.98129 5.79311 3.12414 5.86454H3.19557C3.267 5.93597 3.33843 5.93597 3.33843 5.93597C3.48129 6.00739 3.55271 6.07882 3.62414 6.15025C3.62414 6.15025 3.69557 6.22168 3.69557 6.29311L3.767 6.36454C3.40986 6.86454 3.267 7.50739 3.33843 8.15025H3.267L3.19557 8.22168C3.16599 8.22168 3.12414 8.23393 3.07512 8.24829C3.0058 8.2686 2.92211 8.29311 2.83843 8.29311H2.62414H2.55271C2.40986 8.29311 2.33843 8.43597 2.40986 8.50739C2.40986 8.57882 2.55271 8.65025 2.69557 8.65025H2.767C2.80271 8.65025 2.83843 8.63239 2.87414 8.61454C2.90986 8.59668 2.94557 8.57882 2.98129 8.57882C3.12414 8.50739 3.19557 8.50739 3.33843 8.50739C3.36878 8.50739 3.38624 8.50739 3.40176 8.51288C3.42276 8.52029 3.44021 8.53775 3.48129 8.57882H3.55271C3.767 9.22168 4.19557 9.72168 4.69557 10.0074L4.62414 10.0788V10.2217C4.59456 10.2513 4.57723 10.2931 4.55692 10.3421C4.5282 10.4115 4.49354 10.4951 4.40986 10.5788C4.33843 10.6503 4.33843 10.6503 4.33843 10.7217V10.7931C4.267 10.936 4.33843 11.0074 4.40986 11.0788C4.48129 11.1503 4.62414 11.0788 4.69557 10.936V10.8645C4.69557 10.8288 4.71343 10.7931 4.73129 10.7574C4.74914 10.7217 4.767 10.686 4.767 10.6503C4.79832 10.5876 4.8159 10.525 4.8318 10.4684C4.85216 10.3959 4.86975 10.3332 4.90986 10.2931C4.90986 10.2931 4.98129 10.2931 4.98129 10.2217L5.05271 10.1503C5.48129 10.2931 6.05271 10.3645 6.55271 10.2931C6.62414 10.2931 6.67771 10.2753 6.73129 10.2574C6.78486 10.2395 6.83843 10.2217 6.90986 10.2217L6.98129 10.2931C6.98129 10.2931 7.05271 10.2931 7.05271 10.3645C7.09283 10.4046 7.11041 10.4673 7.13077 10.5398C7.14667 10.5964 7.16425 10.659 7.19557 10.7217C7.19557 10.7931 7.19557 10.8645 7.267 10.936V11.0074C7.33843 11.1503 7.40986 11.1503 7.55271 11.1503C7.62414 11.0788 7.69557 11.0074 7.62414 10.8645V10.7931C7.62414 10.7574 7.60629 10.7395 7.58843 10.7217C7.57057 10.7038 7.55271 10.686 7.55271 10.6503C7.52543 10.5957 7.49815 10.5515 7.47485 10.5138C7.43714 10.4528 7.40986 10.4087 7.40986 10.3645V10.2217V10.1503C7.98129 9.79311 8.33843 9.29311 8.55271 8.72168H8.62414C8.62414 8.72168 8.69557 8.65025 8.767 8.65025C8.79659 8.65025 8.83843 8.66251 8.88745 8.67686C8.95678 8.69717 9.04046 8.72168 9.12414 8.72168C9.15986 8.72168 9.19557 8.73954 9.23129 8.75739C9.267 8.77525 9.30271 8.79311 9.33843 8.79311H9.40986C9.55271 8.79311 9.62414 8.72168 9.69557 8.65025C9.69557 8.57882 9.62414 8.43597 9.55271 8.43597H9.48129H9.267C9.12414 8.43597 8.98129 8.43597 8.90986 8.36454C8.83843 8.36454 8.83843 8.29311 8.83843 8.29311H8.767C8.83843 8.00739 8.767 7.65025 8.69557 7.36454C8.62414 7.07882 8.48129 6.72168 8.33843 6.50739L8.40986 6.43597C8.40986 6.36454 8.40986 6.36454 8.48129 6.29311C8.55271 6.22168 8.62414 6.15025 8.767 6.07882C8.83843 6.07882 8.90986 6.00739 8.90986 6.00739H8.98129C9.05271 5.93597 9.12414 5.79311 9.05271 5.72168C8.98129 5.65025 8.83843 5.65025 8.767 5.72168H8.69557L8.55271 5.86454L8.55271 5.86454C8.48128 5.93597 8.33843 6.07882 8.267 6.07882H8.12414L8.05271 6.15025C7.62414 5.72168 7.05271 5.43597 6.40986 5.36454V5.29311L6.33843 5.22168V4.86454V4.65025V4.57882C6.31966 4.55067 6.30212 4.52375 6.2855 4.49822L6.28547 4.49818L6.28546 4.49817C6.17555 4.32944 6.10536 4.22168 5.98129 4.22168ZM5.767 5.79311L5.69557 6.86454C5.69557 6.93597 5.62414 7.00739 5.55271 7.00739H5.48129L4.62414 6.36454C4.90986 6.07882 5.19557 5.93597 5.62414 5.79311H5.767ZM7.48129 6.36454C7.12414 6.07882 6.69557 5.86454 6.267 5.79311L6.33843 6.86454L6.40986 6.93597C6.40986 7.00739 6.55271 7.00739 6.62414 6.93597L7.48129 6.36454ZM4.267 6.79311L5.05271 7.50739C5.12414 7.57882 5.12414 7.65025 5.05271 7.72168L4.98129 7.79311L3.98129 8.07882C3.90986 7.57882 3.98129 7.15025 4.267 6.79311ZM8.05271 7.43597C7.98129 7.22168 7.90986 7.00739 7.767 6.79311L7.05271 7.50739C7.017 7.50739 6.99914 7.50739 6.99021 7.51632C6.98129 7.52525 6.98129 7.54311 6.98129 7.57882C6.98129 7.65025 7.05271 7.79311 7.12414 7.79311L8.12414 8.07882C8.12414 7.86454 8.12414 7.65025 8.05271 7.43597ZM5.83843 7.50739H6.12414L6.33843 7.72168L6.267 8.00739L5.98129 8.15025L5.69557 8.00739L5.62414 7.72168L5.83843 7.50739ZM7.90986 8.50739L6.83843 8.36454C6.74319 8.41216 6.71145 8.45977 6.6797 8.50739C6.66383 8.5312 6.64795 8.55501 6.62414 8.57882L7.05271 9.57882C7.48129 9.29311 7.767 8.93597 7.90986 8.50739ZM5.12414 8.36454C5.19557 8.36454 5.267 8.43597 5.267 8.50739V8.65025L4.83843 9.65025C4.48129 9.43597 4.19557 9.07882 3.98129 8.57882L5.12414 8.36454ZM6.05271 8.79311H5.98129C5.9517 8.79311 5.93437 8.80536 5.91406 8.81972C5.88535 8.84003 5.85068 8.86454 5.767 8.86454L5.267 9.79311C5.62414 9.93597 6.05272 9.93597 6.40986 9.86454C6.44557 9.86454 6.48129 9.84668 6.517 9.82882C6.55272 9.81097 6.58843 9.79311 6.62414 9.79311L6.12414 8.86454L6.05271 8.79311Z" fill="#3D81BC"/>
<path d="M5.69557 5.15025V5.02525L5.57057 5.02525V5.15025H5.69557ZM5.69557 5.22168V5.34668H5.82057V5.22168H5.69557ZM5.33843 5.29311L5.37277 5.4133L5.38394 5.41011L5.39433 5.40491L5.33843 5.29311ZM4.05271 6.00739L3.96433 6.09578L4.06308 6.19454L4.15032 6.08548L4.05271 6.00739ZM3.98129 5.93597L4.06967 5.84758L4.03306 5.81097H3.98129V5.93597ZM3.83843 5.93597L3.75004 6.02435L3.78665 6.06097H3.83843V5.93597ZM3.55271 5.72168L3.46433 5.81007L3.47867 5.82441L3.49681 5.83348L3.55271 5.72168ZM3.40986 5.57882L3.49825 5.49043L3.46163 5.45382H3.40986V5.57882ZM3.05271 5.57882L3.1411 5.66721L3.17771 5.6306V5.57882H3.05271ZM3.12414 5.86454L3.06824 5.97634L3.09463 5.98954H3.12414V5.86454ZM3.19557 5.86454L3.28396 5.77615L3.24735 5.73954H3.19557V5.86454ZM3.33843 5.93597L3.39433 5.82416L3.36794 5.81097H3.33843V5.93597ZM3.69557 6.29311H3.57057V6.34488L3.60718 6.3815L3.69557 6.29311ZM3.767 6.36454L3.86872 6.43719L3.93027 6.35102L3.85539 6.27615L3.767 6.36454ZM3.33843 8.15025V8.27525H3.47809L3.46266 8.13645L3.33843 8.15025ZM3.267 8.15025V8.02525H3.21522L3.17861 8.06186L3.267 8.15025ZM3.19557 8.22168V8.34668H3.24735L3.28396 8.31007L3.19557 8.22168ZM3.07512 8.24829L3.11026 8.36825H3.11026L3.07512 8.24829ZM2.40986 8.50739H2.53486V8.45562L2.49825 8.41901L2.40986 8.50739ZM2.98129 8.57882V8.70382H3.01079L3.03719 8.69063L2.98129 8.57882ZM3.40176 8.51288L3.44339 8.39501L3.44339 8.39501L3.40176 8.51288ZM3.48129 8.57882L3.3929 8.66721L3.42951 8.70382H3.48129V8.57882ZM3.55271 8.57882L3.6713 8.53929L3.64281 8.45382H3.55271V8.57882ZM4.69557 10.0074L4.78396 10.0958L4.89968 9.98006L4.75759 9.89886L4.69557 10.0074ZM4.62414 10.0788L4.53575 9.99043L4.49914 10.027V10.0788H4.62414ZM4.62414 10.2217L4.71253 10.3101L4.74914 10.2735V10.2217H4.62414ZM4.55692 10.3421L4.44144 10.2943V10.2943L4.55692 10.3421ZM4.40986 10.5788L4.32147 10.4904V10.4904L4.40986 10.5788ZM4.33843 10.7931L4.45023 10.849L4.46343 10.8226V10.7931H4.33843ZM4.69557 10.936L4.80738 10.9919L4.82057 10.9655V10.936H4.69557ZM4.767 10.6503L4.6552 10.5943L4.642 10.6207V10.6503H4.767ZM4.8318 10.4684L4.71145 10.4346L4.71145 10.4346L4.8318 10.4684ZM4.90986 10.2931V10.1681H4.85808L4.82147 10.2047L4.90986 10.2931ZM4.98129 10.2217L4.8929 10.1333L4.85629 10.1699V10.2217H4.98129ZM5.05271 10.1503L5.09224 10.0317L5.01895 10.0072L4.96433 10.0619L5.05271 10.1503ZM6.55271 10.2931V10.1681H6.54383L6.53504 10.1694L6.55271 10.2931ZM6.73129 10.2574L6.69176 10.1388L6.69176 10.1388L6.73129 10.2574ZM6.90986 10.2217L6.99825 10.1333L6.96163 10.0967H6.90986V10.2217ZM6.98129 10.2931L6.8929 10.3815L6.92951 10.4181L6.98129 10.4181L6.98129 10.2931ZM7.05271 10.3645H6.92771V10.4163L6.96433 10.4529L7.05271 10.3645ZM7.13077 10.5398L7.01042 10.5736L7.01043 10.5736L7.13077 10.5398ZM7.19557 10.7217H7.32057V10.6922L7.30738 10.6658L7.19557 10.7217ZM7.267 10.936H7.392V10.8842L7.35539 10.8476L7.267 10.936ZM7.267 11.0074H7.142V11.0369L7.1552 11.0633L7.267 11.0074ZM7.55271 11.1503V11.2753H7.60449L7.6411 11.2386L7.55271 11.1503ZM7.62414 10.8645H7.49914V10.894L7.51234 10.9204L7.62414 10.8645ZM7.58843 10.7217L7.67682 10.6333L7.67682 10.6333L7.58843 10.7217ZM7.55271 10.6503H7.67771V10.6207L7.66452 10.5943L7.55271 10.6503ZM7.47485 10.5138L7.58118 10.4481V10.4481L7.47485 10.5138ZM7.40986 10.1503L7.34361 10.0443L7.28486 10.081V10.1503H7.40986ZM8.55271 8.72168V8.59668H8.46609L8.43567 8.67779L8.55271 8.72168ZM8.62414 8.72168V8.84668H8.67592L8.71253 8.81007L8.62414 8.72168ZM8.88745 8.67686L8.85231 8.79682L8.88745 8.67686ZM9.23129 8.75739L9.28719 8.64559L9.28719 8.64559L9.23129 8.75739ZM9.69557 8.65025L9.78396 8.73864L9.82057 8.70203V8.65025H9.69557ZM8.90986 8.36454L8.99825 8.27615L8.96163 8.23954H8.90986V8.36454ZM8.83843 8.29311H8.96343V8.16811H8.83843V8.29311ZM8.767 8.29311L8.64573 8.26279L8.6069 8.41811H8.767V8.29311ZM8.33843 6.50739L8.25004 6.41901L8.17758 6.49147L8.23442 6.57673L8.33843 6.50739ZM8.40986 6.43597L8.49825 6.52435L8.53486 6.48774V6.43597H8.40986ZM8.767 6.07882V5.95382H8.73749L8.7111 5.96702L8.767 6.07882ZM8.90986 6.00739V5.88239H8.85808L8.82147 5.91901L8.90986 6.00739ZM8.98129 6.00739V6.13239H9.03306L9.06967 6.09578L8.98129 6.00739ZM8.767 5.72168V5.84668H8.81878L8.85539 5.81007L8.767 5.72168ZM8.69557 5.72168V5.59668H8.6438L8.60718 5.63329L8.69557 5.72168ZM8.55271 5.86454L8.6411 5.95293L8.55271 5.86454ZM8.55271 5.86454L8.6411 5.95293L8.6411 5.95293L8.55271 5.86454ZM8.12414 6.07882V5.95382H8.07237L8.03576 5.99043L8.12414 6.07882ZM8.05271 6.15025L7.96433 6.23864L8.05271 6.32703L8.1411 6.23864L8.05271 6.15025ZM6.40986 5.36454H6.28486V5.47642L6.39605 5.48877L6.40986 5.36454ZM6.40986 5.29311H6.53486V5.24133L6.49825 5.20472L6.40986 5.29311ZM6.33843 5.22168H6.21343V5.27346L6.25004 5.31007L6.33843 5.22168ZM6.33843 4.57882H6.46343V4.54098L6.44244 4.50948L6.33843 4.57882ZM6.2855 4.49822L6.18067 4.56631L6.18076 4.56645L6.2855 4.49822ZM6.28547 4.49818L6.18018 4.56556L6.18064 4.56627L6.28547 4.49818ZM6.28546 4.49817L6.39075 4.43078L6.3902 4.42994L6.28546 4.49817ZM5.69557 6.86454L5.57057 6.8562V6.86454H5.69557ZM5.767 5.79311L5.89172 5.80142L5.90061 5.66811H5.767V5.79311ZM5.48129 7.00739L5.40629 7.10739L5.43962 7.13239H5.48129V7.00739ZM4.62414 6.36454L4.53575 6.27615L4.43384 6.37806L4.54914 6.46454L4.62414 6.36454ZM5.62414 5.79311V5.66811H5.60386L5.58461 5.67452L5.62414 5.79311ZM6.267 5.79311L6.28755 5.66981L6.13177 5.64385L6.14228 5.80142L6.267 5.79311ZM7.48129 6.36454L7.55062 6.46854L7.69286 6.37372L7.55937 6.26693L7.48129 6.36454ZM6.33843 6.86454L6.21371 6.87285L6.21683 6.91971L6.25004 6.95292L6.33843 6.86454ZM6.40986 6.93597H6.53486V6.88419L6.49825 6.84758L6.40986 6.93597ZM6.62414 6.93597L6.55481 6.83196L6.54451 6.83882L6.53576 6.84758L6.62414 6.93597ZM5.05271 7.50739L5.1412 7.41891L5.1368 7.4149L5.05271 7.50739ZM4.267 6.79311L4.35108 6.70062L4.25257 6.61105L4.16939 6.71502L4.267 6.79311ZM5.05271 7.72168L4.96433 7.63329H4.96433L5.05271 7.72168ZM4.98129 7.79311L5.01563 7.9133L5.04677 7.9044L5.06967 7.8815L4.98129 7.79311ZM3.98129 8.07882L3.85754 8.0965L3.87781 8.23839L4.01563 8.19901L3.98129 8.07882ZM7.767 6.79311L7.87101 6.72377L7.78643 6.5969L7.67861 6.70472L7.767 6.79311ZM8.05271 7.43597L7.93413 7.47549V7.47549L8.05271 7.43597ZM7.05271 7.50739V7.63239H7.10449L7.1411 7.59578L7.05271 7.50739ZM6.99021 7.51632L6.90183 7.42793L6.90182 7.42794L6.99021 7.51632ZM7.12414 7.79311L7.15848 7.67292L7.14165 7.66811H7.12414V7.79311ZM8.12414 8.07882L8.0898 8.19901L8.24914 8.24454V8.07882H8.12414ZM6.12414 7.50739L6.21253 7.41901L6.17592 7.38239H6.12414V7.50739ZM5.83843 7.50739V7.38239H5.78665L5.75004 7.41901L5.83843 7.50739ZM6.33843 7.72168L6.4597 7.752L6.47686 7.68334L6.42682 7.63329L6.33843 7.72168ZM6.267 8.00739L6.3229 8.1192L6.37432 8.09349L6.38827 8.03771L6.267 8.00739ZM5.98129 8.15025L5.92538 8.26205L5.98129 8.29001L6.03719 8.26205L5.98129 8.15025ZM5.69557 8.00739L5.5743 8.03771L5.58825 8.09349L5.63967 8.1192L5.69557 8.00739ZM5.62414 7.72168L5.53575 7.63329L5.48571 7.68334L5.50288 7.752L5.62414 7.72168ZM6.83843 8.36454L6.85495 8.24063L6.81688 8.23556L6.78253 8.25273L6.83843 8.36454ZM7.90986 8.50739L8.02844 8.54692L8.07626 8.40347L7.92638 8.38349L7.90986 8.50739ZM6.6797 8.50739L6.57569 8.43806V8.43806L6.6797 8.50739ZM6.62414 8.57882L6.53576 8.49043L6.47591 8.55028L6.50925 8.62806L6.62414 8.57882ZM7.05271 9.57882L6.93782 9.62806L6.99702 9.76619L7.12205 9.68283L7.05271 9.57882ZM5.12414 8.36454V8.23954H5.11253L5.10111 8.24168L5.12414 8.36454ZM5.267 8.65025L5.38189 8.69949L5.392 8.67591V8.65025H5.267ZM4.83843 9.65025L4.77412 9.75744L4.89691 9.83111L4.95332 9.69949L4.83843 9.65025ZM3.98129 8.57882L3.95825 8.45596L3.80495 8.48471L3.86639 8.62806L3.98129 8.57882ZM6.05271 8.79311L6.1411 8.70472L6.10449 8.66811H6.05271V8.79311ZM5.91406 8.81972L5.98623 8.92178H5.98623L5.91406 8.81972ZM5.767 8.86454V8.73954H5.69234L5.65694 8.80527L5.767 8.86454ZM5.267 9.79311L5.15694 9.73385L5.09054 9.85716L5.22058 9.90917L5.267 9.79311ZM6.40986 9.86454V9.73954H6.39748L6.38534 9.74196L6.40986 9.86454ZM6.517 9.82882L6.5729 9.94063L6.5729 9.94063L6.517 9.82882ZM6.62414 9.79311V9.91811H6.83342L6.7342 9.73385L6.62414 9.79311ZM6.12414 8.86454L6.2342 8.80527L6.2255 8.78912L6.21253 8.77615L6.12414 8.86454ZM5.892 4.43597C5.892 4.3838 5.90496 4.36764 5.90896 4.36364C5.91296 4.35964 5.92913 4.34668 5.98129 4.34668V4.09668C5.89059 4.09668 5.79961 4.11944 5.73218 4.18686C5.66476 4.25429 5.642 4.34527 5.642 4.43597H5.892ZM5.892 4.50739V4.43597H5.642V4.50739H5.892ZM5.892 4.72168V4.50739H5.642V4.72168H5.892ZM5.892 5.07882V4.72168H5.642V5.07882H5.892ZM5.69557 5.15025C5.69557 5.27525 5.69563 5.27525 5.69569 5.27525C5.69572 5.27525 5.69578 5.27525 5.69582 5.27525C5.6959 5.27525 5.69599 5.27525 5.69608 5.27525C5.69625 5.27525 5.69643 5.27525 5.69662 5.27525C5.69699 5.27524 5.69738 5.27524 5.69779 5.27523C5.69862 5.27522 5.69954 5.2752 5.70054 5.27516C5.70254 5.2751 5.70489 5.27498 5.70755 5.27479C5.71282 5.27442 5.71954 5.27372 5.72728 5.27243C5.74217 5.26995 5.76392 5.26476 5.78719 5.25313C5.81095 5.24125 5.83851 5.22147 5.85985 5.18945C5.88171 5.15666 5.892 5.11855 5.892 5.07882H5.642C5.642 5.07481 5.64336 5.06348 5.65183 5.05078C5.65978 5.03886 5.66948 5.03247 5.67538 5.02952C5.6808 5.02681 5.68469 5.02608 5.68618 5.02584C5.68722 5.02566 5.68837 5.02553 5.68974 5.02543C5.69044 5.02538 5.69126 5.02533 5.69221 5.0253C5.69269 5.02529 5.6932 5.02527 5.69376 5.02527C5.69404 5.02526 5.69433 5.02526 5.69463 5.02525C5.69478 5.02525 5.69494 5.02525 5.69509 5.02525C5.69517 5.02525 5.69525 5.02525 5.69533 5.02525C5.69537 5.02525 5.69543 5.02525 5.69545 5.02525C5.69551 5.02525 5.69557 5.02525 5.69557 5.15025ZM5.82057 5.22168V5.15025H5.57057V5.22168H5.82057ZM5.39433 5.40491C5.45763 5.37326 5.49921 5.3603 5.53755 5.35391C5.57899 5.347 5.62168 5.34668 5.69557 5.34668V5.09668C5.6266 5.09668 5.56215 5.09636 5.49645 5.10731C5.42765 5.11878 5.36208 5.14153 5.28253 5.1813L5.39433 5.40491ZM4.15032 6.08548C4.41007 5.7608 4.87659 5.55506 5.37277 5.4133L5.30409 5.17292C4.80027 5.31687 4.26679 5.5397 3.95511 5.92931L4.15032 6.08548ZM3.8929 6.02435L3.96433 6.09578L4.1411 5.91901L4.06967 5.84758L3.8929 6.02435ZM3.83843 6.06097H3.98129V5.81097H3.83843V6.06097ZM3.49681 5.83348C3.62125 5.8957 3.68119 5.9555 3.75004 6.02435L3.92682 5.84758C3.85281 5.77357 3.7699 5.69052 3.60862 5.60988L3.49681 5.83348ZM3.32147 5.66721L3.46433 5.81007L3.6411 5.63329L3.49825 5.49043L3.32147 5.66721ZM3.33843 5.70382H3.40986V5.45382H3.33843V5.70382ZM3.17861 5.6315C3.19778 5.65067 3.24775 5.70382 3.33843 5.70382V5.45382C3.34012 5.45382 3.3437 5.45406 3.34842 5.45538C3.35318 5.45672 3.35727 5.45864 3.36033 5.46048C3.36313 5.46216 3.3643 5.46331 3.36338 5.46249C3.36204 5.46132 3.36031 5.45964 3.35539 5.45472L3.17861 5.6315ZM3.19557 5.63239C3.19388 5.63239 3.1903 5.63215 3.18558 5.63083C3.18082 5.6295 3.17673 5.62758 3.17367 5.62574C3.17087 5.62406 3.1697 5.62291 3.17063 5.62372C3.17196 5.6249 3.17369 5.62658 3.17861 5.6315L3.35539 5.45472C3.33622 5.43555 3.28625 5.38239 3.19557 5.38239V5.63239ZM3.17771 5.57882C3.17771 5.58258 3.17636 5.59795 3.16366 5.61427C3.15181 5.62951 3.13879 5.63427 3.13689 5.63491C3.13572 5.6353 3.13929 5.63404 3.15143 5.63323C3.16327 5.63244 3.17683 5.63239 3.19557 5.63239V5.38239C3.16695 5.38239 3.10806 5.38099 3.05783 5.39774C3.02914 5.4073 2.9938 5.42545 2.96632 5.46079C2.938 5.4972 2.92771 5.53935 2.92771 5.57882H3.17771ZM3.18005 5.75273C3.14067 5.73305 3.13307 5.71133 3.13137 5.70113C3.12902 5.68699 3.13421 5.67411 3.1411 5.66721L2.96433 5.49043C2.89979 5.55497 2.86927 5.64922 2.88477 5.74223C2.90093 5.83917 2.96476 5.9246 3.06824 5.97634L3.18005 5.75273ZM3.19557 5.73954H3.12414V5.98954H3.19557V5.73954ZM3.33843 5.93597C3.33843 5.81097 3.33849 5.81097 3.33855 5.81097C3.33857 5.81097 3.33863 5.81097 3.33867 5.81097C3.33875 5.81097 3.33883 5.81097 3.33891 5.81097C3.33906 5.81097 3.33921 5.81097 3.33936 5.81097C3.33966 5.81097 3.33994 5.81097 3.34021 5.81098C3.34074 5.81099 3.34122 5.811 3.34164 5.81101C3.34248 5.81104 3.34311 5.81107 3.34354 5.8111C3.34438 5.81116 3.34444 5.81119 3.34383 5.81111C3.34259 5.81093 3.33882 5.81029 3.33331 5.80845C3.32274 5.80493 3.3044 5.79659 3.28396 5.77615L3.10718 5.95293C3.15817 6.00391 3.21126 6.03129 3.25426 6.04562C3.27554 6.05272 3.29409 6.05654 3.30847 6.05859C3.31568 6.05962 3.32188 6.06021 3.32691 6.06055C3.32942 6.06072 3.33165 6.06082 3.33358 6.06088C3.33454 6.06091 3.33543 6.06093 3.33624 6.06095C3.33664 6.06095 3.33703 6.06096 3.33739 6.06096C3.33758 6.06096 3.33775 6.06096 3.33793 6.06096C3.33801 6.06096 3.3381 6.06097 3.33818 6.06097C3.33822 6.06097 3.33829 6.06097 3.33831 6.06097C3.33837 6.06097 3.33843 6.06097 3.33843 5.93597ZM3.71253 6.06186C3.63852 5.98785 3.55561 5.9048 3.39433 5.82416L3.28253 6.04777C3.40696 6.10999 3.46691 6.16979 3.53576 6.23864L3.71253 6.06186ZM3.82057 6.29311C3.82057 6.21982 3.78587 6.15857 3.76386 6.12556C3.7515 6.10702 3.73933 6.09182 3.73021 6.08118C3.7256 6.0758 3.72162 6.07141 3.71859 6.06817C3.71708 6.06655 3.71579 6.0652 3.71477 6.06414C3.71426 6.06362 3.71382 6.06316 3.71344 6.06278C3.71325 6.06259 3.71308 6.06242 3.71293 6.06226C3.71286 6.06219 3.71279 6.06212 3.71272 6.06205C3.71268 6.06202 3.71265 6.06198 3.71262 6.06195C3.71261 6.06194 3.71258 6.06191 3.71258 6.06191C3.71255 6.06188 3.71253 6.06186 3.62414 6.15025C3.53576 6.23864 3.53573 6.23862 3.53571 6.2386C3.53571 6.23859 3.53569 6.23857 3.53567 6.23856C3.53565 6.23853 3.53562 6.2385 3.53559 6.23848C3.53555 6.23843 3.5355 6.23838 3.53546 6.23834C3.53538 6.23826 3.53531 6.23819 3.53526 6.23814C3.53515 6.23803 3.53511 6.23799 3.53512 6.238C3.53515 6.23803 3.53539 6.23828 3.53583 6.23875C3.53671 6.23969 3.53832 6.24145 3.5404 6.24388C3.54467 6.24887 3.55035 6.25598 3.55585 6.26423C3.56956 6.28479 3.57057 6.29497 3.57057 6.29311H3.82057ZM3.85539 6.27615L3.78396 6.20472L3.60718 6.3815L3.67861 6.45293L3.85539 6.27615ZM3.46266 8.13645C3.39416 7.51987 3.53186 6.90879 3.86872 6.43719L3.66528 6.29188C3.28786 6.82028 3.13985 7.49492 3.21419 8.16406L3.46266 8.13645ZM3.267 8.27525H3.33843V8.02525H3.267V8.27525ZM3.28396 8.31007L3.35539 8.23864L3.17861 8.06186L3.10718 8.13329L3.28396 8.31007ZM3.11026 8.36825C3.1356 8.36083 3.1551 8.35515 3.17175 8.35116C3.18936 8.34695 3.19575 8.34668 3.19557 8.34668V8.09668C3.1658 8.09668 3.13648 8.10254 3.11352 8.10804C3.08959 8.11377 3.06366 8.1214 3.03999 8.12833L3.11026 8.36825ZM2.83843 8.41811C2.94296 8.41811 3.04373 8.38774 3.11026 8.36825L3.03999 8.12833C2.96786 8.14946 2.90126 8.16811 2.83843 8.16811V8.41811ZM2.62414 8.41811H2.83843V8.16811H2.62414V8.41811ZM2.55271 8.41811H2.62414V8.16811H2.55271V8.41811ZM2.49825 8.41901C2.50382 8.42458 2.50655 8.43231 2.50681 8.43783C2.50702 8.44206 2.50577 8.44168 2.50812 8.43778C2.51224 8.43091 2.52505 8.41811 2.55271 8.41811V8.16811C2.43752 8.16811 2.34319 8.22674 2.29374 8.30915C2.24598 8.38876 2.23454 8.50886 2.32147 8.59578L2.49825 8.41901ZM2.69557 8.52525C2.6431 8.52525 2.59086 8.51171 2.55505 8.4938C2.53707 8.48482 2.52832 8.47727 2.52579 8.47456C2.52261 8.47115 2.53486 8.48233 2.53486 8.50739H2.28486C2.28486 8.56818 2.31496 8.61506 2.34303 8.64514C2.37175 8.67591 2.40765 8.69961 2.44324 8.71741C2.51456 8.75307 2.60518 8.77525 2.69557 8.77525V8.52525ZM2.767 8.52525H2.69557V8.77525H2.767V8.52525ZM2.81824 8.50273C2.7992 8.51225 2.7873 8.51807 2.77668 8.52205C2.76659 8.52583 2.76438 8.52525 2.767 8.52525V8.77525C2.83796 8.77525 2.90159 8.74057 2.93004 8.72634L2.81824 8.50273ZM2.98129 8.45382C2.91032 8.45382 2.8467 8.4885 2.81824 8.50273L2.93004 8.72634C2.94909 8.71682 2.96098 8.71101 2.97161 8.70702C2.9817 8.70324 2.98391 8.70382 2.98129 8.70382V8.45382ZM3.33843 8.38239C3.26946 8.38239 3.20501 8.38207 3.13931 8.39302C3.07051 8.40449 3.00494 8.42724 2.92538 8.46702L3.03719 8.69063C3.10049 8.65897 3.14206 8.64601 3.18041 8.63962C3.22185 8.63271 3.26454 8.63239 3.33843 8.63239V8.38239ZM3.44339 8.39501C3.40309 8.38078 3.36061 8.38239 3.33843 8.38239V8.63239C3.34625 8.63239 3.3521 8.6324 3.35721 8.63247C3.36226 8.63254 3.36529 8.63266 3.36719 8.63279C3.37075 8.63303 3.36679 8.63309 3.36013 8.63074L3.44339 8.39501ZM3.56967 8.49043C3.55059 8.47135 3.53204 8.45268 3.5155 8.43845C3.49744 8.42292 3.4743 8.40593 3.44339 8.39501L3.36012 8.63074C3.35021 8.62724 3.3463 8.62268 3.35249 8.628C3.35573 8.63078 3.36032 8.63502 3.36733 8.64184C3.37432 8.64864 3.38244 8.65675 3.3929 8.66721L3.56967 8.49043ZM3.55271 8.45382H3.48129V8.70382H3.55271V8.45382ZM4.75759 9.89886C4.28475 9.62867 3.87603 9.15348 3.6713 8.53929L3.43413 8.61835C3.65797 9.28988 4.10639 9.81469 4.63355 10.1159L4.75759 9.89886ZM4.71253 10.1672L4.78396 10.0958L4.60718 9.91901L4.53575 9.99043L4.71253 10.1672ZM4.74914 10.2217V10.0788H4.49914V10.2217H4.74914ZM4.67241 10.39C4.69542 10.3344 4.70402 10.3186 4.71253 10.3101L4.53575 10.1333C4.48509 10.184 4.45903 10.2518 4.44144 10.2943L4.67241 10.39ZM4.49825 10.6672C4.6007 10.5648 4.64303 10.4609 4.67241 10.39L4.44144 10.2943C4.41338 10.362 4.38638 10.4255 4.32147 10.4904L4.49825 10.6672ZM4.46343 10.7217C4.46343 10.7015 4.46357 10.6953 4.46392 10.6917C4.46394 10.6916 4.46312 10.6982 4.45916 10.7062C4.45627 10.7119 4.45439 10.7127 4.46147 10.7049C4.4688 10.6967 4.47944 10.686 4.49825 10.6672L4.32147 10.4904C4.30456 10.5073 4.28841 10.5234 4.27565 10.5376C4.26265 10.5521 4.24738 10.5707 4.23555 10.5943C4.21068 10.6441 4.21343 10.6955 4.21343 10.7217H4.46343ZM4.46343 10.7931V10.7217H4.21343V10.7931H4.46343ZM4.49825 10.9904C4.45849 10.9507 4.44324 10.9329 4.43663 10.9163C4.43449 10.911 4.43339 10.9057 4.43401 10.8979C4.4347 10.8893 4.43791 10.8737 4.45023 10.849L4.22663 10.7372C4.1782 10.8341 4.17091 10.9252 4.20451 11.0092C4.23361 11.0819 4.2898 11.1355 4.32147 11.1672L4.49825 10.9904ZM4.58377 10.8801C4.55835 10.9309 4.52282 10.9629 4.49681 10.9759C4.48407 10.9823 4.47852 10.9818 4.48027 10.9819C4.48411 10.982 4.49217 10.9844 4.49825 10.9904L4.32147 11.1672C4.41062 11.2564 4.52979 11.239 4.60862 11.1996C4.68975 11.159 4.76137 11.0839 4.80738 10.9919L4.58377 10.8801ZM4.57057 10.8645V10.936H4.82057V10.8645H4.57057ZM4.61948 10.7015C4.60525 10.73 4.57057 10.7936 4.57057 10.8645H4.82057C4.82057 10.8672 4.81999 10.8649 4.82377 10.8549C4.82776 10.8442 4.83357 10.8323 4.84309 10.8133L4.61948 10.7015ZM4.642 10.6503C4.642 10.6476 4.64258 10.6498 4.6388 10.6599C4.63482 10.6706 4.629 10.6824 4.61948 10.7015L4.84309 10.8133C4.85732 10.7848 4.892 10.7212 4.892 10.6503H4.642ZM4.71145 10.4346C4.69527 10.4922 4.68045 10.5438 4.6552 10.5943L4.8788 10.7062C4.91618 10.6314 4.93654 10.5577 4.95215 10.5022L4.71145 10.4346ZM4.82147 10.2047C4.78494 10.2412 4.76273 10.2839 4.74744 10.322C4.73247 10.3592 4.72117 10.4 4.71145 10.4346L4.95215 10.5022C4.96279 10.4642 4.97047 10.4374 4.9794 10.4152C4.98803 10.3938 4.99466 10.3851 4.99825 10.3815L4.82147 10.2047ZM4.85629 10.2217C4.85629 10.2177 4.85765 10.2063 4.86612 10.1936C4.87407 10.1817 4.88377 10.1753 4.88967 10.1724C4.89508 10.1697 4.89898 10.1689 4.90047 10.1687C4.90151 10.1685 4.90265 10.1684 4.90402 10.1683C4.90473 10.1682 4.90554 10.1682 4.9065 10.1682C4.90697 10.1681 4.90749 10.1681 4.90805 10.1681C4.90833 10.1681 4.90862 10.1681 4.90892 10.1681C4.90907 10.1681 4.90922 10.1681 4.90938 10.1681C4.90946 10.1681 4.90954 10.1681 4.90962 10.1681C4.90966 10.1681 4.90972 10.1681 4.90974 10.1681C4.9098 10.1681 4.90986 10.1681 4.90986 10.2931C4.90986 10.4181 4.90992 10.4181 4.90998 10.4181C4.91 10.4181 4.91006 10.4181 4.91011 10.4181C4.91019 10.4181 4.91028 10.4181 4.91036 10.4181C4.91054 10.4181 4.91072 10.4181 4.9109 10.4181C4.91127 10.4181 4.91166 10.4181 4.91208 10.4181C4.91291 10.4181 4.91382 10.4181 4.91482 10.418C4.91682 10.418 4.91917 10.4178 4.92183 10.4177C4.92711 10.4173 4.93383 10.4166 4.94157 10.4153C4.95645 10.4128 4.97821 10.4076 5.00147 10.396C5.02523 10.3841 5.05279 10.3643 5.07413 10.3323C5.09599 10.2995 5.10629 10.2614 5.10629 10.2217H4.85629ZM4.96433 10.0619L4.8929 10.1333L5.06967 10.3101L5.1411 10.2386L4.96433 10.0619ZM6.53504 10.1694C6.05642 10.2377 5.5046 10.1691 5.09224 10.0317L5.01319 10.2688C5.45797 10.4171 6.04901 10.4913 6.57039 10.4169L6.53504 10.1694ZM6.69176 10.1388C6.63824 10.1566 6.60185 10.1681 6.55271 10.1681V10.4181C6.64644 10.4181 6.71719 10.3939 6.77082 10.376L6.69176 10.1388ZM6.90986 10.0967C6.81613 10.0967 6.74538 10.1209 6.69176 10.1388L6.77081 10.376C6.82434 10.3581 6.86073 10.3467 6.90986 10.3467V10.0967ZM7.06967 10.2047L6.99825 10.1333L6.82147 10.3101L6.8929 10.3815L7.06967 10.2047ZM7.17771 10.3645C7.17771 10.3248 7.16742 10.2867 7.14556 10.2539C7.12422 10.2219 7.09666 10.2021 7.0729 10.1902C7.04963 10.1786 7.02788 10.1734 7.013 10.1709C7.00526 10.1696 6.99854 10.1689 6.99326 10.1686C6.9906 10.1684 6.98825 10.1683 6.98625 10.1682C6.98525 10.1682 6.98433 10.1681 6.98351 10.1681C6.98309 10.1681 6.9827 10.1681 6.98233 10.1681C6.98214 10.1681 6.98196 10.1681 6.98179 10.1681C6.9817 10.1681 6.98162 10.1681 6.98153 10.1681C6.98149 10.1681 6.98143 10.1681 6.98141 10.1681C6.98135 10.1681 6.98129 10.1681 6.98129 10.2931C6.98129 10.4181 6.98123 10.4181 6.98117 10.4181C6.98115 10.4181 6.98108 10.4181 6.98105 10.4181C6.98097 10.4181 6.98089 10.4181 6.98081 10.4181C6.98065 10.4181 6.9805 10.4181 6.98035 10.4181C6.98005 10.4181 6.97975 10.4181 6.97948 10.4181C6.97892 10.4181 6.9784 10.4181 6.97792 10.4181C6.97697 10.418 6.97616 10.418 6.97545 10.4179C6.97408 10.4178 6.97294 10.4177 6.9719 10.4175C6.97041 10.4173 6.96651 10.4165 6.9611 10.4138C6.9552 10.4109 6.9455 10.4045 6.93755 10.3926C6.92908 10.3799 6.92771 10.3686 6.92771 10.3645H7.17771ZM7.25112 10.506C7.2414 10.4714 7.23011 10.4306 7.21513 10.3934C7.19984 10.3554 7.17763 10.3127 7.1411 10.2761L6.96433 10.4529C6.96791 10.4565 6.97455 10.4652 6.98317 10.4866C6.9921 10.5089 6.99978 10.5357 7.01042 10.5736L7.25112 10.506ZM7.30738 10.6658C7.28212 10.6153 7.2673 10.5637 7.25112 10.506L7.01043 10.5736C7.02603 10.6292 7.04639 10.7028 7.08377 10.7776L7.30738 10.6658ZM7.35539 10.8476C7.33603 10.8282 7.32932 10.8127 7.32577 10.7985C7.32117 10.7801 7.32057 10.7597 7.32057 10.7217H7.07057C7.07057 10.795 7.06832 10.9141 7.17861 11.0244L7.35539 10.8476ZM7.392 11.0074V10.936H7.142V11.0074H7.392ZM7.55271 11.0253C7.47312 11.0253 7.44699 11.0233 7.4295 11.0163C7.42381 11.0141 7.40693 11.0077 7.3788 10.9515L7.1552 11.0633C7.1985 11.1499 7.25305 11.215 7.33665 11.2485C7.40844 11.2772 7.48946 11.2753 7.55271 11.2753V11.0253ZM7.51234 10.9204C7.52466 10.9451 7.52787 10.9608 7.52856 10.9694C7.52918 10.9771 7.52808 10.9824 7.52594 10.9878C7.51933 11.0043 7.50408 11.0221 7.46433 11.0619L7.6411 11.2386C7.67277 11.207 7.72896 11.1534 7.75806 11.0806C7.79166 10.9966 7.78437 10.9055 7.73595 10.8086L7.51234 10.9204ZM7.49914 10.7931V10.8645H7.74914V10.7931H7.49914ZM7.50004 10.8101C7.50496 10.815 7.50664 10.8167 7.50781 10.8181C7.50863 10.819 7.50748 10.8178 7.5058 10.815C7.50396 10.8119 7.50204 10.8079 7.5007 10.8031C7.49938 10.7984 7.49914 10.7948 7.49914 10.7931H7.74914C7.74914 10.7024 7.69599 10.6525 7.67682 10.6333L7.50004 10.8101ZM7.42771 10.6503C7.42771 10.7409 7.48087 10.7909 7.50004 10.8101L7.67682 10.6333C7.6719 10.6284 7.67022 10.6266 7.66904 10.6253C7.66823 10.6244 7.66938 10.6255 7.67106 10.6283C7.6729 10.6314 7.67482 10.6355 7.67615 10.6403C7.67748 10.645 7.67771 10.6486 7.67771 10.6503H7.42771ZM7.36851 10.5796C7.39183 10.6173 7.41641 10.6572 7.44091 10.7062L7.66452 10.5943C7.63445 10.5342 7.60446 10.4858 7.58118 10.4481L7.36851 10.5796ZM7.28486 10.3645C7.28486 10.4127 7.29984 10.4541 7.31539 10.4867C7.33046 10.5183 7.35077 10.5508 7.36851 10.5796L7.58118 10.4481C7.56122 10.4158 7.54903 10.3958 7.54103 10.379C7.53352 10.3633 7.53486 10.3605 7.53486 10.3645H7.28486ZM7.28486 10.2217V10.3645H7.53486V10.2217H7.28486ZM7.28486 10.1503V10.2217H7.53486V10.1503H7.28486ZM8.43567 8.67779C8.22947 9.22767 7.88823 9.70386 7.34361 10.0443L7.47611 10.2563C8.07435 9.88235 8.44739 9.35855 8.66976 8.76557L8.43567 8.67779ZM8.62414 8.59668H8.55271V8.84668H8.62414V8.59668ZM8.767 8.52525C8.69371 8.52525 8.63246 8.55995 8.59945 8.58196C8.58091 8.59432 8.56571 8.60649 8.55507 8.61561C8.54969 8.62023 8.5453 8.6242 8.54206 8.62723C8.54044 8.62874 8.53909 8.63003 8.53804 8.63105C8.53751 8.63156 8.53705 8.63201 8.53667 8.63238C8.53648 8.63257 8.53631 8.63274 8.53616 8.63289C8.53608 8.63297 8.53601 8.63304 8.53594 8.63311C8.53591 8.63314 8.53588 8.63317 8.53584 8.6332C8.53583 8.63322 8.53581 8.63324 8.5358 8.63325C8.53578 8.63327 8.53576 8.63329 8.62414 8.72168C8.71253 8.81007 8.71251 8.81009 8.71249 8.81011C8.71248 8.81012 8.71246 8.81014 8.71245 8.81015C8.71242 8.81018 8.7124 8.8102 8.71237 8.81023C8.71232 8.81028 8.71228 8.81032 8.71223 8.81036C8.71215 8.81045 8.71208 8.81051 8.71203 8.81057C8.71192 8.81067 8.71188 8.81072 8.71189 8.8107C8.71192 8.81068 8.71217 8.81043 8.71264 8.80999C8.71359 8.80911 8.71534 8.80751 8.71777 8.80543C8.72276 8.80115 8.72988 8.79547 8.73812 8.78997C8.75868 8.77626 8.76886 8.77525 8.767 8.77525V8.52525ZM8.92259 8.5569C8.89891 8.54997 8.87298 8.54234 8.84905 8.53661C8.82609 8.53111 8.79677 8.52525 8.767 8.52525V8.77525C8.76682 8.77525 8.77321 8.77552 8.79082 8.77974C8.80747 8.78372 8.82697 8.7894 8.85231 8.79682L8.92259 8.5569ZM9.12414 8.59668C9.06131 8.59668 8.99471 8.57803 8.92259 8.5569L8.85231 8.79682C8.91884 8.81631 9.01961 8.84668 9.12414 8.84668V8.59668ZM9.28719 8.64559C9.25873 8.63136 9.19511 8.59668 9.12414 8.59668V8.84668C9.12152 8.84668 9.12373 8.8461 9.13382 8.84988C9.14445 8.85386 9.15634 8.85968 9.17538 8.8692L9.28719 8.64559ZM9.33843 8.66811C9.34105 8.66811 9.33884 8.66869 9.32875 8.66491C9.31813 8.66092 9.30623 8.65511 9.28719 8.64559L9.17538 8.8692C9.20384 8.88343 9.26746 8.91811 9.33843 8.91811V8.66811ZM9.40986 8.66811H9.33843V8.91811H9.40986V8.66811ZM9.60718 8.56186C9.53707 8.63198 9.49775 8.66811 9.40986 8.66811V8.91811C9.60768 8.91811 9.71122 8.81138 9.78396 8.73864L9.60718 8.56186ZM9.55271 8.56097C9.5286 8.56097 9.51831 8.54953 9.5233 8.55386C9.52706 8.55712 9.53474 8.56564 9.54374 8.58063C9.55236 8.595 9.55973 8.61123 9.56471 8.62616C9.57012 8.64239 9.57057 8.65063 9.57057 8.65025H9.82057C9.82057 8.5838 9.79155 8.50773 9.75812 8.45201C9.74033 8.42237 9.71676 8.3907 9.68704 8.36494C9.65855 8.34025 9.61254 8.31097 9.55271 8.31097V8.56097ZM9.48129 8.56097H9.55271V8.31097H9.48129V8.56097ZM9.267 8.56097H9.48129V8.31097H9.267V8.56097ZM8.82147 8.45293C8.88602 8.51748 8.97258 8.54058 9.04397 8.55078C9.11698 8.56121 9.19788 8.56097 9.267 8.56097V8.31097C9.19326 8.31097 9.13131 8.31072 9.07932 8.30329C9.02571 8.29563 9.00512 8.28302 8.99825 8.27615L8.82147 8.45293ZM8.83843 8.29311C8.71343 8.29311 8.71343 8.29317 8.71343 8.29323C8.71343 8.29325 8.71343 8.29331 8.71343 8.29336C8.71343 8.29344 8.71343 8.29353 8.71343 8.29361C8.71343 8.29379 8.71343 8.29397 8.71343 8.29415C8.71344 8.29452 8.71344 8.29492 8.71345 8.29533C8.71346 8.29616 8.71348 8.29707 8.71352 8.29808C8.71358 8.30007 8.7137 8.30242 8.71389 8.30508C8.71426 8.31036 8.71496 8.31708 8.71625 8.32482C8.71873 8.3397 8.72392 8.36146 8.73555 8.38472C8.74743 8.40848 8.76721 8.43604 8.79923 8.45738C8.83202 8.47925 8.87013 8.48954 8.90986 8.48954V8.23954C8.91387 8.23954 8.9252 8.2409 8.9379 8.24937C8.94982 8.25732 8.95621 8.26702 8.95916 8.27292C8.96187 8.27833 8.9626 8.28223 8.96284 8.28372C8.96302 8.28476 8.96315 8.2859 8.96325 8.28727C8.9633 8.28798 8.96335 8.28879 8.96338 8.28975C8.96339 8.29022 8.96341 8.29074 8.96341 8.2913C8.96342 8.29158 8.96342 8.29187 8.96343 8.29217C8.96343 8.29232 8.96343 8.29247 8.96343 8.29263C8.96343 8.29271 8.96343 8.29279 8.96343 8.29287C8.96343 8.29291 8.96343 8.29297 8.96343 8.29299C8.96343 8.29305 8.96343 8.29311 8.83843 8.29311ZM8.767 8.41811H8.83843V8.16811H8.767V8.41811ZM8.5743 7.39485C8.64638 7.68315 8.7086 8.01131 8.64573 8.26279L8.88827 8.32343C8.96826 8.00348 8.88762 7.61736 8.81684 7.33422L8.5743 7.39485ZM8.23442 6.57673C8.36709 6.77573 8.50521 7.11847 8.5743 7.39485L8.81684 7.33422C8.74308 7.03917 8.59549 6.66763 8.44244 6.43806L8.23442 6.57673ZM8.32147 6.34758L8.25004 6.41901L8.42682 6.59578L8.49825 6.52435L8.32147 6.34758ZM8.3929 6.20472C8.37599 6.22163 8.35984 6.23772 8.34708 6.2519C8.33408 6.26634 8.31881 6.28499 8.30698 6.30864C8.28211 6.35838 8.28486 6.40974 8.28486 6.43597H8.53486C8.53486 6.41579 8.535 6.40955 8.53535 6.40599C8.53537 6.40586 8.53455 6.41251 8.53059 6.42044C8.5277 6.42623 8.52581 6.42702 8.5329 6.41914C8.54023 6.411 8.55087 6.4003 8.56967 6.3815L8.3929 6.20472ZM8.7111 5.96702C8.54982 6.04766 8.46691 6.13071 8.3929 6.20472L8.56967 6.3815C8.63852 6.31265 8.69847 6.25284 8.8229 6.19063L8.7111 5.96702ZM8.90986 6.00739C8.82147 5.91901 8.82149 5.91898 8.82151 5.91896C8.82152 5.91896 8.82154 5.91894 8.82155 5.91892C8.82158 5.9189 8.82161 5.91887 8.82163 5.91885C8.82168 5.9188 8.82173 5.91875 8.82177 5.91871C8.82185 5.91863 8.82192 5.91856 8.82197 5.91851C8.82208 5.9184 8.82212 5.91836 8.82211 5.91837C8.82208 5.9184 8.82183 5.91864 8.82136 5.91908C8.82041 5.91996 8.81866 5.92157 8.81623 5.92365C8.81124 5.92792 8.80412 5.9336 8.79588 5.9391C8.77532 5.95281 8.76514 5.95382 8.767 5.95382V6.20382C8.84029 6.20382 8.90154 6.16912 8.93455 6.14711C8.95309 6.13476 8.96829 6.12258 8.97893 6.11346C8.98431 6.10885 8.9887 6.10487 8.99194 6.10184C8.99356 6.10033 8.99491 6.09904 8.99597 6.09802C8.99649 6.09751 8.99695 6.09707 8.99733 6.09669C8.99752 6.0965 8.99769 6.09633 8.99784 6.09618C8.99792 6.09611 8.99799 6.09604 8.99806 6.09597C8.99809 6.09594 8.99813 6.0959 8.99816 6.09587C8.99817 6.09586 8.99819 6.09583 8.9982 6.09583C8.99822 6.0958 8.99825 6.09578 8.90986 6.00739ZM8.98129 5.88239H8.90986V6.13239H8.98129V5.88239ZM8.96433 5.81007C8.9493 5.79504 8.96459 5.78721 8.95199 5.82501C8.94096 5.85809 8.91653 5.89538 8.8929 5.91901L9.06967 6.09578C9.11747 6.04798 9.16447 5.97812 9.18916 5.90407C9.21227 5.83472 9.22756 5.71975 9.1411 5.63329L8.96433 5.81007ZM8.85539 5.81007C8.86236 5.8031 8.8811 5.79311 8.90986 5.79311C8.93862 5.79311 8.95736 5.8031 8.96433 5.81007L9.1411 5.63329C9.07664 5.56883 8.98824 5.54311 8.90986 5.54311C8.83148 5.54311 8.74307 5.56883 8.67861 5.63329L8.85539 5.81007ZM8.69557 5.84668H8.767V5.59668H8.69557V5.84668ZM8.6411 5.95293L8.78396 5.81007L8.60718 5.63329L8.46433 5.77615L8.6411 5.95293ZM8.6411 5.95293L8.6411 5.95293L8.46433 5.77615L8.46432 5.77615L8.6411 5.95293ZM8.267 6.20382C8.3201 6.20382 8.36691 6.17979 8.39532 6.163C8.42807 6.14365 8.46066 6.11884 8.48988 6.0945C8.54849 6.04565 8.60595 5.98808 8.6411 5.95293L8.46432 5.77615C8.42804 5.81243 8.37836 5.862 8.32983 5.90244C8.30548 5.92273 8.2845 5.9381 8.26814 5.94777C8.24745 5.95999 8.24962 5.95382 8.267 5.95382V6.20382ZM8.12414 6.20382H8.267V5.95382H8.12414V6.20382ZM8.1411 6.23864L8.21253 6.16721L8.03576 5.99043L7.96433 6.06186L8.1411 6.23864ZM6.39605 5.48877C7.01024 5.55702 7.5555 5.82981 7.96433 6.23864L8.1411 6.06186C7.69279 5.61355 7.09519 5.31492 6.42366 5.2403L6.39605 5.48877ZM6.28486 5.29311V5.36454H6.53486V5.29311H6.28486ZM6.25004 5.31007L6.32147 5.3815L6.49825 5.20472L6.42682 5.13329L6.25004 5.31007ZM6.21343 4.86454V5.22168H6.46343V4.86454H6.21343ZM6.21343 4.65025V4.86454H6.46343V4.65025H6.21343ZM6.21343 4.57882V4.65025H6.46343V4.57882H6.21343ZM6.18076 4.56645C6.19734 4.59191 6.21523 4.61937 6.23442 4.64816L6.44244 4.50948C6.42409 4.48197 6.4069 4.45559 6.39024 4.43L6.18076 4.56645ZM6.18064 4.56627L6.18067 4.56631L6.39033 4.43014L6.3903 4.43009L6.18064 4.56627ZM6.18018 4.56555L6.18018 4.56556L6.39075 4.4308L6.39074 4.43078L6.18018 4.56555ZM5.98129 4.34668C5.99949 4.34668 6.01774 4.35164 6.04915 4.38388C6.08549 4.42118 6.12329 4.47822 6.18072 4.56639L6.3902 4.42994C6.33772 4.34938 6.28547 4.26818 6.22822 4.20942C6.16604 4.1456 6.08716 4.09668 5.98129 4.09668V4.34668ZM5.8203 6.87285L5.89172 5.80142L5.64228 5.78479L5.57085 6.85622L5.8203 6.87285ZM5.55271 7.13239C5.62908 7.13239 5.69499 7.09547 5.73932 7.05114C5.78365 7.00681 5.82057 6.9409 5.82057 6.86454H5.57057C5.57057 6.86159 5.57126 6.86147 5.57002 6.86413C5.56878 6.8668 5.56634 6.87057 5.56254 6.87436C5.55875 6.87816 5.55498 6.8806 5.55231 6.88184C5.54965 6.88309 5.54976 6.88239 5.55271 6.88239V7.13239ZM5.48129 7.13239H5.55271V6.88239H5.48129V7.13239ZM4.54914 6.46454L5.40629 7.10739L5.55629 6.90739L4.69914 6.26454L4.54914 6.46454ZM5.58461 5.67452C5.14592 5.82075 4.84026 5.97164 4.53575 6.27615L4.71253 6.45293C4.97945 6.186 5.24522 6.05118 5.66367 5.91169L5.58461 5.67452ZM5.767 5.66811H5.62414V5.91811H5.767V5.66811ZM6.24645 5.91641C6.64974 5.98362 7.05903 6.18681 7.4032 6.46215L7.55937 6.26693C7.18925 5.97083 6.7414 5.74545 6.28755 5.66981L6.24645 5.91641ZM6.46315 6.85622L6.39172 5.78479L6.14228 5.80142L6.21371 6.87285L6.46315 6.85622ZM6.49825 6.84758L6.42682 6.77615L6.25004 6.95292L6.32147 7.02435L6.49825 6.84758ZM6.53576 6.84758C6.53236 6.85098 6.52586 6.85559 6.51603 6.85933C6.50615 6.8631 6.49665 6.86454 6.49021 6.86454C6.48202 6.86454 6.48714 6.86251 6.49881 6.86969C6.50555 6.87384 6.51522 6.88167 6.52313 6.89476C6.53138 6.90843 6.53486 6.92313 6.53486 6.93597H6.28486C6.28486 7.00351 6.32199 7.05442 6.36778 7.0826C6.40847 7.10764 6.45377 7.11454 6.49021 7.11454C6.56265 7.11454 6.64984 7.08705 6.71253 7.02435L6.53576 6.84758ZM7.41195 6.26053L6.55481 6.83196L6.69348 7.03997L7.55062 6.46854L7.41195 6.26053ZM5.1368 7.4149L4.35108 6.70062L4.18292 6.8856L4.96863 7.59989L5.1368 7.4149ZM5.1411 7.81007C5.19044 7.76073 5.23129 7.6951 5.23129 7.61454C5.23129 7.53398 5.19044 7.46834 5.1411 7.41901L4.96433 7.59578C4.98642 7.61787 4.98129 7.62367 4.98129 7.61454C4.98129 7.60541 4.98642 7.6112 4.96433 7.63329L5.1411 7.81007ZM5.06967 7.8815L5.1411 7.81007L4.96433 7.63329L4.8929 7.70472L5.06967 7.8815ZM4.01563 8.19901L5.01563 7.9133L4.94695 7.67292L3.94695 7.95863L4.01563 8.19901ZM4.16939 6.71502C3.85569 7.10715 3.78291 7.57408 3.85754 8.0965L4.10503 8.06115C4.0368 7.58357 4.10688 7.19335 4.36461 6.8712L4.16939 6.71502ZM7.66299 6.86245C7.79534 7.06097 7.8623 7.26002 7.93413 7.47549L8.1713 7.39644C8.10027 7.18334 8.02437 6.95382 7.87101 6.72377L7.66299 6.86245ZM7.1411 7.59578L7.85539 6.8815L7.67861 6.70472L6.96433 7.41901L7.1411 7.59578ZM7.0786 7.60471C7.06536 7.61795 7.05128 7.62509 7.04106 7.62877C7.03188 7.63208 7.02546 7.63272 7.02522 7.63275C7.02474 7.6328 7.02628 7.63262 7.03169 7.63251C7.03699 7.6324 7.04341 7.63239 7.05271 7.63239V7.38239C7.03791 7.38239 7.01621 7.38221 6.99762 7.38427C6.97994 7.38624 6.93727 7.39249 6.90183 7.42793L7.0786 7.60471ZM7.10629 7.57882C7.10629 7.56951 7.10629 7.56309 7.1064 7.5578C7.10651 7.55238 7.10669 7.55085 7.10664 7.55133C7.10661 7.55156 7.10597 7.55799 7.10266 7.56717C7.09899 7.57739 7.09185 7.59147 7.0786 7.60471L6.90182 7.42794C6.86638 7.46338 6.86013 7.50605 6.85817 7.52372C6.8561 7.54232 6.85629 7.56402 6.85629 7.57882H7.10629ZM7.12414 7.66811C7.14826 7.66811 7.15855 7.67954 7.15355 7.67521C7.14979 7.67195 7.14211 7.66344 7.13312 7.64844C7.12449 7.63407 7.11713 7.61784 7.11215 7.60291C7.10674 7.58668 7.10629 7.57844 7.10629 7.57882H6.85629C6.85629 7.64527 6.88531 7.72134 6.91874 7.77706C6.93653 7.80671 6.9601 7.83837 6.98982 7.86413C7.01831 7.88882 7.06431 7.91811 7.12414 7.91811V7.66811ZM8.15848 7.95863L7.15848 7.67292L7.0898 7.9133L8.0898 8.19901L8.15848 7.95863ZM7.93413 7.47549C7.99816 7.66758 7.99914 7.86172 7.99914 8.07882H8.24914C8.24914 7.86736 8.25013 7.63293 8.1713 7.39644L7.93413 7.47549ZM6.12414 7.38239H5.83843V7.63239H6.12414V7.38239ZM6.42682 7.63329L6.21253 7.41901L6.03575 7.59578L6.25004 7.81007L6.42682 7.63329ZM6.38827 8.03771L6.4597 7.752L6.21716 7.69136L6.14573 7.97708L6.38827 8.03771ZM6.03719 8.26205L6.3229 8.1192L6.2111 7.89559L5.92538 8.03845L6.03719 8.26205ZM5.63967 8.1192L5.92538 8.26205L6.03719 8.03845L5.75147 7.89559L5.63967 8.1192ZM5.50288 7.752L5.5743 8.03771L5.81684 7.97708L5.74541 7.69136L5.50288 7.752ZM5.75004 7.41901L5.53575 7.63329L5.71253 7.81007L5.92682 7.59578L5.75004 7.41901ZM6.82191 8.48844L7.89334 8.6313L7.92638 8.38349L6.85495 8.24063L6.82191 8.48844ZM6.78371 8.57673C6.7999 8.55244 6.80965 8.53834 6.82364 8.52435C6.83681 8.51119 6.85719 8.49491 6.89433 8.47634L6.78253 8.25273C6.72443 8.28178 6.68132 8.31313 6.64687 8.34758C6.61324 8.38121 6.59124 8.41473 6.57569 8.43806L6.78371 8.57673ZM6.71253 8.66721C6.74616 8.63358 6.76815 8.60006 6.78371 8.57673L6.57569 8.43806C6.5595 8.46235 6.54975 8.47644 6.53576 8.49043L6.71253 8.66721ZM7.16761 9.52958L6.73904 8.52958L6.50925 8.62806L6.93782 9.62806L7.16761 9.52958ZM7.79127 8.46787C7.65842 8.86643 7.39222 9.20225 6.98338 9.47482L7.12205 9.68283C7.57035 9.38396 7.87559 9.0055 8.02844 8.54692L7.79127 8.46787ZM5.392 8.50739C5.392 8.43103 5.35508 8.36512 5.31075 8.32079C5.26642 8.27646 5.20051 8.23954 5.12414 8.23954V8.48954C5.12119 8.48954 5.12108 8.48885 5.12374 8.49009C5.1264 8.49133 5.13017 8.49377 5.13397 8.49757C5.13776 8.50136 5.14021 8.50513 5.14145 8.5078C5.14269 8.51046 5.142 8.51034 5.142 8.50739H5.392ZM5.392 8.65025V8.50739H5.142V8.65025H5.392ZM4.95332 9.69949L5.38189 8.69949L5.15211 8.60101L4.72354 9.60101L4.95332 9.69949ZM3.86639 8.62806C4.08787 9.14485 4.38843 9.52602 4.77412 9.75744L4.90274 9.54306C4.57414 9.34591 4.30327 9.01279 4.09618 8.52958L3.86639 8.62806ZM5.10111 8.24168L3.95825 8.45596L4.00432 8.70168L5.14718 8.4874L5.10111 8.24168ZM5.98129 8.91811H6.05271V8.66811H5.98129V8.91811ZM5.98623 8.92178C5.99175 8.91788 5.9943 8.91611 5.99643 8.91474C5.9982 8.91361 5.99796 8.91389 5.9964 8.91461C5.99463 8.91542 5.99192 8.91645 5.9886 8.9172C5.98528 8.91794 5.98269 8.91811 5.98129 8.91811V8.66811C5.90854 8.66811 5.86237 8.70318 5.84189 8.71766L5.98623 8.92178ZM5.767 8.98954C5.82148 8.98954 5.86652 8.98148 5.9057 8.96653C5.9445 8.95173 5.97156 8.93216 5.98623 8.92178L5.84189 8.71766C5.82785 8.72759 5.82322 8.73042 5.81659 8.73295C5.81034 8.73534 5.79621 8.73954 5.767 8.73954V8.98954ZM5.37706 9.85237L5.87706 8.9238L5.65694 8.80527L5.15694 9.73385L5.37706 9.85237ZM6.38534 9.74196C6.0435 9.81033 5.64119 9.80815 5.31342 9.67705L5.22058 9.90917C5.6071 10.0638 6.06193 10.0616 6.43437 9.98711L6.38534 9.74196ZM6.4611 9.71702C6.44206 9.72654 6.43016 9.73235 6.41954 9.73634C6.40945 9.74012 6.40724 9.73954 6.40986 9.73954V9.98954C6.48082 9.98954 6.54444 9.95486 6.5729 9.94063L6.4611 9.71702ZM6.62414 9.66811C6.55318 9.66811 6.48956 9.70279 6.4611 9.71702L6.5729 9.94063C6.59195 9.9311 6.60384 9.92529 6.61446 9.92131C6.62456 9.91753 6.62676 9.91811 6.62414 9.91811V9.66811ZM6.01408 8.9238L6.51408 9.85237L6.7342 9.73385L6.2342 8.80527L6.01408 8.9238ZM5.96433 8.8815L6.03576 8.95293L6.21253 8.77615L6.1411 8.70472L5.96433 8.8815Z" fill="#326CE5"/>
</svg>
