<svg width="14" height="14" viewBox="0 0 14 14" fill="none" xmlns="http://www.w3.org/2000/svg">
    <path d="M13.438 3.50244C13.7372 3.50244 13.9694 3.76347 13.9346 4.06064L12.8215 13.5582C12.7919 13.8101 12.5785 14 12.3249 14H4.11108C3.83494 14 3.61108 13.7762 3.61108 13.5L3.61108 4.00244C3.61108 3.7263 3.83494 3.50244 4.11108 3.50244H13.438Z" fill="#42AB45"/>
    <path d="M3.61108 1.00023C3.61108 0.448007 4.05871 0.000316127 4.61094 0.000235172L5.20012 0.000148799C5.75823 6.69805e-05 6.20839 0.45685 6.20016 1.0149L6.14227 4.93848C6.1342 5.4849 5.689 5.92365 5.14253 5.92373L4.86941 5.92377L4.61124 5.92381C4.05889 5.92389 3.61108 5.47615 3.61108 4.92381V1.00023Z" fill="#42AB45"/>
    <path fill="#42AB45" d="M0.5 3.5127h1.3643s0.5 0 0.5 0.5v9.487s0 0.5 -0.5 0.5h-1.3643s-0.5 0 -0.5 -0.5v-9.487s0 -0.5 0.5 -0.5" />
</svg>
