<svg xmlns="http://www.w3.org/2000/svg" xmlns:xlink="http://www.w3.org/1999/xlink" viewBox="0 0 168 56" fill="currentColor" xmlns:v="https://vecta.io/nano">
  <path fill-rule="evenodd"
        d="M24.92 10.307c-2.776 1.63-8.379 4.884-13.636 5.4-.608.06-1.12.509-1.171 1.117-.684 7.996 1.43 23.637 15.004 30.335.285.14.619.164.916.049 3.727-1.442 9.4-5.78 12.585-14.219l-6.209-2.602a1.262 1.262 0 0 1-.106-.05 7.299 7.299 0 1 1 .924-2.293c.048.013.096.03.144.05l6.038 2.53c1.126-3.823 1.751-8.376 1.555-13.745-.022-.626-.52-1.134-1.137-1.237-3.21-.535-9.015-2.525-13.62-5.316a1.254 1.254 0 0 0-1.287-.019ZM24.39 22a4.812 4.812 0 1 0 3.402 9.003A4.812 4.812 0 0 0 24.391 22Z"
        fill="url(#a)"/>
  <g fill="#fff">
    <path d="M55.538 18.617a1.357 1.357 0 0 0-.587-1.014c-.341-.242-.785-.363-1.332-.363-.385 0-.715.058-.99.174a1.464 1.464 0 0 0-.631.472c-.146.2-.22.426-.224.681 0 .213.048.396.144.552.1.156.234.289.403.398.17.106.356.196.562.268.205.073.412.135.621.184l.955.24c.384.089.754.21 1.108.362.358.152.678.345.96.577.285.232.51.512.676.84.166.328.249.713.249 1.153 0 .597-.153 1.122-.458 1.576-.305.451-.745.804-1.322 1.06-.573.251-1.268.377-2.083.377-.792 0-1.48-.122-2.063-.368-.58-.245-1.035-.603-1.363-1.074-.324-.47-.5-1.044-.527-1.72h1.815c.026.355.136.65.328.885.192.236.443.411.75.527.312.116.66.174 1.045.174.4 0 .752-.06 1.054-.179.305-.123.543-.291.716-.507.172-.219.26-.474.263-.766a.973.973 0 0 0-.233-.656 1.712 1.712 0 0 0-.642-.437 6.178 6.178 0 0 0-.954-.319l-1.159-.298c-.838-.215-1.501-.542-1.988-.98-.484-.44-.726-1.025-.726-1.754 0-.6.162-1.125.487-1.576.328-.45.774-.8 1.337-1.05.564-.251 1.202-.377 1.915-.377.722 0 1.355.126 1.899.378.547.248.976.595 1.287 1.039.312.44.473.948.483 1.521h-1.775Zm6.86 7.532c-.766 0-1.428-.159-1.985-.477a3.233 3.233 0 0 1-1.277-1.362c-.299-.59-.448-1.285-.448-2.083 0-.786.15-1.475.448-2.069a3.384 3.384 0 0 1 1.263-1.392c.54-.334 1.175-.502 1.904-.502.47 0 .915.076 1.332.229.421.149.792.381 1.114.696.325.315.58.716.765 1.203.186.484.279 1.06.279 1.73v.552h-6.26v-1.213h4.535a1.935 1.935 0 0 0-.224-.92 1.625 1.625 0 0 0-.612-.641 1.719 1.719 0 0 0-.904-.234c-.368 0-.692.09-.97.269a1.848 1.848 0 0 0-.651.696c-.153.285-.23.598-.234.94v1.058c0 .444.081.825.244 1.144.162.315.39.556.68.726.293.165.634.248 1.025.248.262 0 .499-.036.711-.11.212-.075.396-.186.552-.332.156-.146.273-.327.353-.542l1.68.189a2.62 2.62 0 0 1-.606 1.163 2.958 2.958 0 0 1-1.134.766c-.46.179-.988.268-1.58.268Zm8.248 0c-.762 0-1.417-.167-1.963-.502a3.353 3.353 0 0 1-1.258-1.387c-.292-.593-.438-1.276-.438-2.048 0-.776.15-1.46.448-2.054a3.34 3.34 0 0 1 1.262-1.392c.547-.334 1.194-.502 1.94-.502.62 0 1.168.115 1.645.343.48.226.863.546 1.148.96.285.41.448.891.488 1.442h-1.72a1.644 1.644 0 0 0-.498-.92c-.258-.249-.605-.373-1.039-.373-.368 0-.69.1-.97.298-.278.196-.495.477-.65.845-.153.368-.23.81-.23 1.323 0 .52.077.968.23 1.342.152.371.366.658.64.86.28.2.606.299.98.299.265 0 .502-.05.711-.15.212-.102.39-.25.532-.442.143-.192.24-.426.293-.701h1.72a2.999 2.999 0 0 1-.477 1.437 2.83 2.83 0 0 1-1.123.974c-.474.232-1.031.348-1.67.348Zm9.617-3.36v-4.425h1.8V26h-1.746v-1.357h-.08a2.296 2.296 0 0 1-.85 1.049c-.39.271-.873.407-1.446.407-.5 0-.943-.11-1.328-.333a2.314 2.314 0 0 1-.894-.98c-.216-.43-.324-.95-.324-1.56v-4.862h1.8v4.583c0 .484.133.869.398 1.154.265.285.613.427 1.044.427.265 0 .522-.064.77-.194.25-.129.453-.321.612-.576.162-.259.244-.582.244-.97ZM83.913 26v-7.636h1.745v1.272h.08c.139-.44.377-.78.716-1.019a1.97 1.97 0 0 1 1.168-.363c.1 0 .21.005.333.015.126.007.23.018.313.035v1.655a1.894 1.894 0 0 0-.363-.07 3.34 3.34 0 0 0-.472-.034c-.328 0-.623.071-.885.214-.259.14-.462.333-.612.582a1.64 1.64 0 0 0-.223.86V26h-1.8Zm5.55 0v-7.636h1.8V26h-1.8Zm.906-8.72a1.05 1.05 0 0 1-.736-.284.913.913 0 0 1-.308-.69c0-.272.102-.503.308-.692a1.04 1.04 0 0 1 .736-.288c.288 0 .533.096.735.288.206.19.309.42.309.691a.913.913 0 0 1-.309.691 1.038 1.038 0 0 1-.735.284Zm6.558 1.084v1.392h-4.39v-1.392h4.39Zm-3.306-1.83h1.8v7.17c0 .241.036.427.11.556a.59.59 0 0 0 .298.258c.122.047.258.07.407.07.113 0 .216-.008.309-.025a2.72 2.72 0 0 0 .218-.044l.304 1.406c-.096.034-.234.07-.413.11-.176.04-.391.063-.646.07a2.935 2.935 0 0 1-1.218-.204 1.895 1.895 0 0 1-.86-.706c-.21-.319-.312-.716-.309-1.194v-7.467Zm5.93 12.33c-.245 0-.472-.02-.681-.06a2.528 2.528 0 0 1-.492-.13l.418-1.401c.261.076.495.112.7.11a.858.858 0 0 0 .542-.195c.159-.122.294-.328.403-.616l.154-.413-2.769-7.795h1.91l1.759 5.767h.08l1.764-5.767h1.915l-3.058 8.56a3.41 3.41 0 0 1-.567 1.04 2.297 2.297 0 0 1-.865.666c-.338.156-.742.234-1.213.234Zm10.053-11.5v-1.546h8.123v1.546h-3.147V26h-1.829v-8.636h-3.147Zm11.883 8.785c-.766 0-1.427-.159-1.984-.477a3.232 3.232 0 0 1-1.277-1.362c-.299-.59-.448-1.285-.448-2.083 0-.786.149-1.475.448-2.069a3.38 3.38 0 0 1 1.262-1.392c.541-.334 1.175-.502 1.905-.502.47 0 .914.076 1.332.229.421.149.792.381 1.114.696.324.315.58.716.765 1.203.186.484.279 1.06.279 1.73v.552h-6.26v-1.213h4.534a1.93 1.93 0 0 0-.223-.92 1.627 1.627 0 0 0-.612-.641 1.717 1.717 0 0 0-.905-.234c-.367 0-.691.09-.969.269a1.845 1.845 0 0 0-.651.696 1.993 1.993 0 0 0-.234.94v1.058c0 .444.081.825.244 1.144.162.315.389.556.681.726.291.165.633.248 1.024.248.262 0 .499-.036.711-.11.212-.075.396-.186.552-.332.155-.146.273-.327.353-.542l1.68.189a2.622 2.622 0 0 1-.606 1.163 2.957 2.957 0 0 1-1.134.766c-.461.179-.988.268-1.581.268Zm10.954-5.767-1.641.18a1.313 1.313 0 0 0-.244-.468 1.204 1.204 0 0 0-.457-.353 1.664 1.664 0 0 0-.706-.134c-.374 0-.689.08-.944.243-.252.162-.377.373-.373.631a.66.66 0 0 0 .243.542c.169.14.448.254.835.343l1.303.279c.723.156 1.26.403 1.611.74.354.339.533.781.537 1.328a2.08 2.08 0 0 1-.423 1.273c-.275.364-.658.65-1.148.855-.491.205-1.054.308-1.691.308-.934 0-1.687-.195-2.257-.587-.57-.394-.91-.942-1.019-1.645l1.755-.17c.08.346.249.606.507.781.259.176.595.264 1.009.264.428 0 .771-.088 1.03-.264.261-.175.392-.392.392-.65 0-.22-.084-.4-.253-.543-.166-.142-.424-.252-.776-.328l-1.302-.273c-.733-.153-1.275-.41-1.626-.77-.351-.365-.525-.826-.522-1.383-.003-.47.124-.878.383-1.223.262-.348.624-.617 1.088-.805.468-.193 1.006-.289 1.616-.289.895 0 1.599.19 2.113.572.517.381.837.897.96 1.546Zm5.461-2.018v1.392h-4.39v-1.392h4.39Zm-3.306-1.83h1.8v7.17c0 .241.036.427.109.556a.591.591 0 0 0 .298.258c.123.047.259.07.408.07.113 0 .215-.008.308-.025.096-.016.169-.031.219-.044l.303 1.406a3.387 3.387 0 0 1-1.059.179 2.933 2.933 0 0 1-1.218-.203 1.895 1.895 0 0 1-.86-.706c-.209-.319-.311-.716-.308-1.194v-7.467ZM139.407 26v-7.636h1.8V26h-1.8Zm.905-8.72a1.05 1.05 0 0 1-.736-.284.915.915 0 0 1-.308-.69c0-.272.103-.503.308-.692.206-.192.451-.288.736-.288.288 0 .534.096.736.288.205.19.308.42.308.691a.915.915 0 0 1-.308.691 1.039 1.039 0 0 1-.736.284Zm4.545 4.246V26h-1.799v-7.636h1.72v1.297h.089a2.19 2.19 0 0 1 .84-1.019c.388-.252.867-.378 1.437-.378.527 0 .986.113 1.377.338.395.226.7.552.915.98.219.427.327.946.323 1.556V26h-1.799v-4.584c0-.51-.133-.91-.398-1.198-.262-.288-.625-.433-1.089-.433-.315 0-.595.07-.84.21a1.447 1.447 0 0 0-.572.59c-.136.26-.204.573-.204.94Zm10.053 7.497c-.647 0-1.202-.088-1.666-.264-.464-.172-.837-.404-1.118-.696a2.403 2.403 0 0 1-.587-.97l1.621-.392c.073.15.179.297.318.442.139.15.326.272.562.368.238.1.538.15.9.15.51 0 .933-.125 1.267-.373.335-.246.503-.65.503-1.213v-1.447h-.09a2.564 2.564 0 0 1-.408.572c-.175.195-.409.36-.701.492-.288.132-.651.199-1.088.199a3.137 3.137 0 0 1-1.596-.413c-.474-.278-.852-.693-1.134-1.243-.278-.553-.417-1.246-.417-2.078 0-.839.139-1.546.417-2.123.282-.58.661-1.02 1.139-1.317a2.925 2.925 0 0 1 1.596-.453c.447 0 .815.076 1.103.229.292.149.524.33.696.542.173.209.304.406.393.591h.099v-1.262h1.775v7.76c0 .653-.155 1.194-.467 1.621-.312.428-.737.747-1.278.96-.54.212-1.153.318-1.839.318Zm.015-4.544c.381 0 .706-.093.974-.279.269-.185.472-.452.612-.8.139-.348.208-.766.208-1.253 0-.48-.069-.901-.208-1.263-.136-.361-.338-.641-.607-.84-.265-.202-.591-.303-.979-.303-.401 0-.736.104-1.005.313a1.9 1.9 0 0 0-.606.86 3.482 3.482 0 0 0-.204 1.233c0 .467.068.877.204 1.228.139.348.343.62.611.815.272.193.605.289 1 .289Zm-95.823 11.43c0 1.097-.205 2.037-.616 2.819-.408.779-.965 1.375-1.67 1.79-.703.414-1.5.621-2.392.621-.892 0-1.69-.207-2.396-.621-.703-.418-1.26-1.016-1.67-1.795-.408-.782-.612-1.72-.612-2.814 0-1.097.204-2.035.611-2.814.411-.782.968-1.38 1.67-1.795.707-.414 1.505-.621 2.397-.621.892 0 1.689.207 2.391.621.706.415 1.263 1.013 1.67 1.795.412.78.617 1.717.617 2.814Zm-1.854 0c0-.772-.121-1.423-.363-1.954-.239-.533-.57-.936-.994-1.208a2.635 2.635 0 0 0-1.467-.413 2.64 2.64 0 0 0-1.467.413c-.424.272-.757.675-.999 1.208-.239.53-.358 1.182-.358 1.954s.12 1.425.358 1.959c.242.53.575.933 1 1.208.424.272.913.408 1.466.408.553 0 1.042-.136 1.467-.408.424-.275.755-.678.994-1.208.242-.534.363-1.187.363-1.959ZM60.767 41v-7.636h1.744v1.272h.08c.14-.44.378-.78.716-1.019a1.97 1.97 0 0 1 1.168-.363c.1 0 .21.005.333.015.126.007.23.018.314.035v1.655a1.894 1.894 0 0 0-.363-.07 3.34 3.34 0 0 0-.473-.034 1.82 1.82 0 0 0-.885.214 1.57 1.57 0 0 0-.611.582 1.63 1.63 0 0 0-.224.86V41h-1.8Zm8.567.15c-.763 0-1.417-.168-1.964-.503a3.353 3.353 0 0 1-1.258-1.387c-.291-.593-.437-1.276-.437-2.048 0-.776.149-1.46.447-2.054a3.34 3.34 0 0 1 1.263-1.392c.547-.334 1.193-.502 1.939-.502.62 0 1.168.115 1.645.343.481.226.864.546 1.149.96.285.41.447.891.487 1.441h-1.72a1.644 1.644 0 0 0-.497-.92c-.259-.248-.605-.372-1.04-.372-.367 0-.69.1-.969.298-.278.196-.495.477-.651.845-.152.368-.229.81-.229 1.323 0 .52.077.968.229 1.342.152.371.366.658.641.86.279.2.605.298.98.298.265 0 .502-.05.71-.149.213-.102.39-.25.533-.442.142-.192.24-.426.293-.701h1.72a2.999 2.999 0 0 1-.477 1.437c-.275.414-.65.739-1.124.974-.474.232-1.03.348-1.67.348Zm6.549-4.624V41h-1.8V30.818h1.76v3.843h.09c.178-.43.455-.77.83-1.019.377-.252.858-.378 1.441-.378.53 0 .993.111 1.387.333.395.222.7.547.915.975.219.427.328.95.328 1.566V41h-1.8v-4.584c0-.513-.132-.913-.397-1.198-.262-.288-.63-.433-1.104-.433-.318 0-.603.07-.855.21a1.462 1.462 0 0 0-.587.59c-.139.26-.208.573-.208.94Zm10.166 4.623c-.765 0-1.426-.159-1.983-.477a3.233 3.233 0 0 1-1.278-1.362c-.298-.59-.447-1.285-.447-2.083 0-.786.149-1.475.447-2.069a3.384 3.384 0 0 1 1.263-1.392c.54-.334 1.175-.502 1.904-.502.47 0 .915.076 1.332.229.421.149.793.381 1.114.696.325.315.58.716.766 1.203.185.484.278 1.06.278 1.73v.552h-6.26v-1.213h4.535a1.936 1.936 0 0 0-.224-.92 1.627 1.627 0 0 0-.611-.641 1.72 1.72 0 0 0-.905-.234c-.368 0-.691.09-.97.269a1.85 1.85 0 0 0-.65.696 1.993 1.993 0 0 0-.234.94v1.058c0 .444.08.826.243 1.144.162.315.39.556.681.726.292.165.633.248 1.024.248.262 0 .5-.036.711-.11.213-.075.396-.187.552-.332.156-.146.274-.327.353-.542l1.68.189a2.62 2.62 0 0 1-.606 1.163 2.958 2.958 0 0 1-1.133.766c-.461.179-.988.268-1.582.268Zm10.954-5.767-1.64.18a1.318 1.318 0 0 0-.244-.468 1.21 1.21 0 0 0-.457-.353 1.667 1.667 0 0 0-.706-.135c-.375 0-.69.082-.945.244-.252.163-.376.373-.373.631a.66.66 0 0 0 .244.542c.169.14.447.254.835.343l1.302.279c.723.156 1.26.403 1.611.74.355.339.534.781.537 1.328-.003.48-.144.905-.422 1.273-.275.364-.658.65-1.149.855-.49.205-1.054.308-1.69.308-.935 0-1.687-.195-2.257-.587-.57-.394-.91-.942-1.02-1.645l1.756-.17c.08.346.248.606.507.781.258.176.595.264 1.009.264.428 0 .77-.088 1.029-.264.262-.175.393-.392.393-.65a.68.68 0 0 0-.254-.543c-.166-.142-.424-.252-.775-.328l-1.303-.273c-.732-.153-1.274-.41-1.626-.77-.35-.365-.525-.826-.522-1.383-.003-.47.125-.878.383-1.223.262-.348.625-.616 1.089-.805.467-.193 1.006-.289 1.616-.289.895 0 1.599.19 2.113.572.517.381.837.897.96 1.546Zm5.461-2.018v1.392h-4.39v-1.392h4.39Zm-3.306-1.83h1.8v7.17c0 .241.037.427.109.556a.593.593 0 0 0 .299.259c.122.046.258.07.407.07.113 0 .216-.01.309-.026a2.53 2.53 0 0 0 .218-.044l.304 1.406a4.01 4.01 0 0 1-.413.11c-.176.04-.391.063-.646.07a2.933 2.933 0 0 1-1.218-.204 1.894 1.894 0 0 1-.86-.706c-.21-.319-.312-.716-.309-1.194v-7.467ZM103.97 41v-7.636h1.745v1.272h.079c.139-.44.378-.78.716-1.019a1.971 1.971 0 0 1 1.168-.363c.1 0 .211.005.334.015.125.007.23.018.313.035v1.655a1.888 1.888 0 0 0-.363-.07 3.347 3.347 0 0 0-.472-.034 1.81 1.81 0 0 0-.885.214c-.259.14-.463.333-.612.582a1.64 1.64 0 0 0-.224.86V41h-1.799Zm7.611.154c-.484 0-.92-.086-1.307-.258a2.13 2.13 0 0 1-.915-.776c-.222-.341-.333-.762-.333-1.263 0-.43.079-.787.238-1.069.159-.281.377-.507.652-.676a3.29 3.29 0 0 1 .929-.383 7.57 7.57 0 0 1 1.079-.194c.448-.046.811-.087 1.089-.124.278-.04.481-.1.606-.179.13-.083.194-.21.194-.383v-.03c0-.374-.111-.664-.333-.87-.222-.205-.542-.308-.959-.308-.441 0-.791.096-1.049.289a1.43 1.43 0 0 0-.517.68l-1.681-.238c.133-.464.352-.852.657-1.163.304-.315.677-.55 1.118-.706a4.283 4.283 0 0 1 1.462-.239c.368 0 .734.043 1.099.13.364.086.697.228.999.427.301.196.543.462.726.8.185.338.278.761.278 1.268V41h-1.73v-1.049h-.06a2.186 2.186 0 0 1-.462.597c-.196.182-.442.33-.741.442a2.97 2.97 0 0 1-1.039.164Zm.467-1.322c.362 0 .675-.072.94-.214.265-.146.469-.338.612-.577.145-.238.218-.499.218-.78v-.9a.84.84 0 0 1-.288.13 4.17 4.17 0 0 1-.447.103c-.166.03-.33.057-.493.08l-.422.06a3.135 3.135 0 0 0-.721.179c-.212.083-.38.199-.502.348-.123.145-.184.334-.184.566 0 .332.121.582.363.751.242.17.55.254.924.254Zm9.188-6.468v1.392h-4.39v-1.392h4.39Zm-3.306-1.83h1.8v7.17c0 .241.036.427.109.556a.591.591 0 0 0 .298.259c.123.046.259.07.408.07.113 0 .215-.01.308-.026.096-.016.169-.031.219-.044l.303 1.406a3.387 3.387 0 0 1-1.059.179 2.933 2.933 0 0 1-1.218-.203 1.895 1.895 0 0 1-.86-.706c-.209-.319-.311-.716-.308-1.194v-7.467ZM122.741 41v-7.636h1.8V41h-1.8Zm.905-8.72a1.05 1.05 0 0 1-.736-.284.915.915 0 0 1-.308-.69c0-.272.103-.503.308-.692.206-.192.451-.288.736-.288.288 0 .534.096.736.288.205.19.308.42.308.691a.915.915 0 0 1-.308.691 1.039 1.039 0 0 1-.736.284Zm6.076 8.87c-.745 0-1.392-.165-1.938-.493a3.339 3.339 0 0 1-1.273-1.377c-.298-.59-.448-1.28-.448-2.068 0-.79.15-1.48.448-2.074a3.33 3.33 0 0 1 1.273-1.382c.546-.328 1.193-.492 1.938-.492.746 0 1.393.164 1.939.492a3.3 3.3 0 0 1 1.268 1.383c.302.593.453 1.284.453 2.073 0 .788-.151 1.478-.453 2.068a3.308 3.308 0 0 1-1.268 1.377c-.546.328-1.193.492-1.939.492Zm.01-1.443c.405 0 .743-.11 1.015-.333.271-.225.474-.527.606-.905a3.7 3.7 0 0 0 .204-1.262c0-.468-.068-.89-.204-1.268a2.007 2.007 0 0 0-.606-.91c-.272-.225-.61-.338-1.015-.338-.414 0-.759.113-1.034.338a2.048 2.048 0 0 0-.611.91 3.8 3.8 0 0 0-.199 1.268c0 .464.066.885.199 1.262.136.378.34.68.611.905.275.222.62.333 1.034.333Zm6.977-3.181V41h-1.8v-7.636h1.72v1.297h.09c.175-.427.455-.767.84-1.019.388-.252.867-.378 1.437-.378.527 0 .986.113 1.377.338.394.226.699.552.915.98.218.427.326.946.323 1.556V41h-1.8v-4.584c0-.51-.132-.91-.398-1.198-.261-.288-.624-.433-1.088-.433-.315 0-.595.07-.841.21a1.445 1.445 0 0 0-.571.59c-.136.26-.204.573-.204.94Z"/>
  </g>
  <defs>
    <linearGradient id="a" x1="15.115" x2="36.382" y1="14.434" y2="42.221" gradientUnits="userSpaceOnUse">
      <stop stop-color="#4791FF"/>
      <stop offset="1" stop-color="#2E1CF3"/>
    </linearGradient>
  </defs>
</svg>
