<svg xmlns="http://www.w3.org/2000/svg" width="40" height="40" viewBox="0 0 32 32" fill="none">
<path fill-rule="evenodd" clip-rule="evenodd" d="M15.6363 4.5C12.9715 4.5 10.4162 5.56283 8.53243 7.45404C6.71821 9.27545 5.67001 11.7215 5.59518 14.2881H3C2.72386 14.2881 2.5 14.5119 2.5 14.7881C2.5 15.0642 2.72386 15.2881 3 15.2881H5.61543C5.78398 17.7043 6.81495 19.9883 8.53243 21.7126C10.4162 23.6038 12.9715 24.6667 15.6363 24.6667C18.1337 24.6667 20.5348 23.7333 22.3772 22.0594L28.6457 28.3529C28.8406 28.5485 29.1572 28.5491 29.3528 28.3543C29.5485 28.1594 29.5491 27.8428 29.3542 27.6471L23.083 21.3511C24.7518 19.5012 25.6818 17.0902 25.6818 14.5833C25.6818 12.788 25.2048 11.0419 24.3211 9.51587H28.0909C28.3671 9.51587 28.5909 9.29201 28.5909 9.01587C28.5909 8.73973 28.3671 8.51587 28.0909 8.51587H23.6597C23.3798 8.143 23.0729 7.78802 22.7403 7.45404C20.8565 5.56283 18.3012 4.5 15.6363 4.5ZM22.3678 8.51587C22.2593 8.39445 22.1472 8.27569 22.0318 8.15975C20.3352 6.45651 18.0347 5.5 15.6363 5.5C13.238 5.5 10.9374 6.45651 9.24094 8.15975C7.61378 9.79335 6.67015 11.9856 6.59566 14.2881H9.8698L11.6483 10.717C11.7396 10.5337 11.9335 10.4245 12.1377 10.4417C12.3418 10.4588 12.5149 10.5988 12.5743 10.7948L14.9165 18.5176L16.973 8.9112C17.0224 8.68062 17.2261 8.51587 17.4619 8.51587H22.3678ZM6.61813 15.2881C6.78479 17.4398 7.71054 19.4705 9.24094 21.0069C10.9374 22.7102 13.238 23.6667 15.6363 23.6667C18.0347 23.6667 20.3352 22.7102 22.0318 21.0069C23.7283 19.3036 24.6818 16.993 24.6818 14.5833C24.6818 12.765 24.1389 11.003 23.1434 9.51587H17.8662L15.4889 20.6205C15.4412 20.8435 15.2487 21.0059 15.0209 21.0154C14.7931 21.025 14.5877 20.8792 14.5215 20.661L11.9825 12.2891L10.6269 15.011C10.5424 15.1807 10.369 15.2881 10.1794 15.2881H6.61813Z" fill="#0278D5"/>
</svg>
