<svg xmlns="http://www.w3.org/2000/svg" width="40" height="40" viewBox="0 0 32 32" fill="none">
<path fill-rule="evenodd" clip-rule="evenodd" d="M15.6864 4.5C13.0121 4.5 10.4474 5.56235 8.55637 7.45334C6.66538 9.34433 5.60303 11.9091 5.60303 14.5833C5.60303 17.2576 6.66538 19.8223 8.55637 21.7133C10.4474 23.6043 13.0121 24.6667 15.6864 24.6667C18.1935 24.6667 20.6043 23.733 22.454 22.0581L28.7495 28.3536C28.9447 28.5488 29.2613 28.5488 29.4566 28.3536C29.6518 28.1583 29.6518 27.8417 29.4566 27.6464L23.1611 21.351C24.836 19.5013 25.7697 17.0905 25.7697 14.5833C25.7697 11.9091 24.7073 9.34433 22.8164 7.45334C20.9254 5.56235 18.3606 4.5 15.6864 4.5ZM9.26347 8.16045C10.9669 6.45699 13.2773 5.5 15.6864 5.5C18.0954 5.5 20.4058 6.45699 22.1093 8.16045C23.8127 9.8639 24.7697 12.1743 24.7697 14.5833C24.7697 16.9924 23.8127 19.3028 22.1093 21.0062C20.4058 22.7097 18.0954 23.6667 15.6864 23.6667C13.2773 23.6667 10.9669 22.7097 9.26347 21.0062C7.56002 19.3028 6.60303 16.9924 6.60303 14.5833C6.60303 12.1743 7.56002 9.8639 9.26347 8.16045ZM17.3926 10.1258C17.4621 9.80442 17.2579 9.48753 16.9365 9.41803C16.6151 9.34854 16.2982 9.55276 16.2287 9.87417L14.2827 18.8742C14.2133 19.1956 14.4175 19.5125 14.7389 19.582C15.0603 19.6515 15.3772 19.4472 15.4467 19.1258L17.3926 10.1258ZM18.3177 11.0571C18.5399 10.8147 18.9166 10.7983 19.159 11.0205L22.0779 13.6962C22.1946 13.8031 22.2639 13.9521 22.2705 14.1102C22.2771 14.2684 22.2204 14.4226 22.1131 14.5389L19.1942 17.7011C18.9711 17.9427 18.5944 17.9578 18.3528 17.7347C18.1112 17.5117 18.0961 17.135 18.3191 16.8934L20.8328 14.1702L18.3543 11.8983C18.1119 11.6761 18.0955 11.2995 18.3177 11.0571ZM12.5072 11.0291C12.7448 10.8018 13.1218 10.8102 13.3491 11.0478C13.5764 11.2855 13.568 11.6624 13.3303 11.8897L10.8421 14.2697L13.3487 16.8853C13.5762 17.1227 13.5682 17.4996 13.3308 17.7271C13.0933 17.9546 12.7164 17.9466 12.4889 17.7092L9.56998 14.6634C9.46065 14.5493 9.40115 14.3964 9.40459 14.2385C9.40802 14.0805 9.47411 13.9304 9.5883 13.8211L12.5072 11.0291Z" fill="#0278D5"/>
</svg>
