<svg xmlns="http://www.w3.org/2000/svg" width="40" height="40" viewBox="0 0 32 32" fill="none">
<path fill-rule="evenodd" clip-rule="evenodd" d="M15.5 2.5C8.3203 2.5 2.5 8.3203 2.5 15.5C2.5 22.6797 8.3203 28.5 15.5 28.5C15.7761 28.5 16 28.7239 16 29C16 29.2761 15.7761 29.5 15.5 29.5C7.76801 29.5 1.5 23.232 1.5 15.5C1.5 7.76801 7.76801 1.5 15.5 1.5C23.232 1.5 29.5 7.76801 29.5 15.5C29.5 19.1859 28.075 22.5399 25.7468 25.0396L28.935 28.2279C29.1303 28.4231 29.1303 28.7397 28.935 28.935C28.7398 29.1302 28.4232 29.1302 28.2279 28.935L15.1464 15.8535C14.9512 15.6582 14.9512 15.3417 15.1464 15.1464C15.3417 14.9511 15.6583 14.9511 15.8536 15.1464L17.9454 17.2383C18.2949 16.7478 18.5 16.1482 18.5 15.5C18.5 13.8431 17.1569 12.5 15.5 12.5C13.8431 12.5 12.5 13.8431 12.5 15.5C12.5 17.1569 13.8431 18.5 15.5 18.5C15.7761 18.5 16 18.7239 16 19C16 19.2761 15.7761 19.5 15.5 19.5C13.2909 19.5 11.5 17.7091 11.5 15.5C11.5 13.2909 13.2909 11.5 15.5 11.5C17.7091 11.5 19.5 13.2909 19.5 15.5C19.5 16.4241 19.1862 17.2756 18.6599 17.9528L20.4362 19.7291C21.4114 18.592 22 17.1152 22 15.5C22 11.9101 19.0899 9 15.5 9C11.9101 9 9 11.9101 9 15.5C9 19.0899 11.9101 22 15.5 22C15.7761 22 16 22.2239 16 22.5C16 22.7761 15.7761 23 15.5 23C11.3579 23 8 19.6421 8 15.5C8 11.3579 11.3579 8 15.5 8C19.6421 8 23 11.3579 23 15.5C23 17.3909 22.2997 19.1191 21.1451 20.438L22.9159 22.2087C24.122 20.8763 24.9736 19.2181 25.3232 17.3826C24.5517 17.1052 24 16.367 24 15.5C24 14.633 24.5517 13.8948 25.3232 13.6174C24.4428 8.99472 20.3791 5.5 15.5 5.5C13.319 5.5 11.3021 6.19769 9.65882 7.38235C9.87423 7.70144 10 8.08603 10 8.5C10 9.60457 9.10457 10.5 8 10.5C7.63515 10.5 7.29312 10.4023 6.99863 10.2316C6.04858 11.7613 5.5 13.566 5.5 15.5C5.5 21.0228 9.97715 25.5 15.5 25.5C15.7761 25.5 16 25.7239 16 26C16 26.2761 15.7761 26.5 15.5 26.5C9.42487 26.5 4.5 21.5751 4.5 15.5C4.5 13.2911 5.15156 11.2331 6.27296 9.50927C6.09946 9.21301 6 8.86812 6 8.5C6 7.39543 6.89543 6.5 8 6.5C8.3192 6.5 8.62094 6.57478 8.88864 6.70777C10.729 5.32183 13.0192 4.5 15.5 4.5C20.9015 4.5 25.3929 8.39275 26.3233 13.526C27.2741 13.6805 28 14.5055 28 15.5C28 16.4945 27.2741 17.3195 26.3233 17.474C25.947 19.55 24.9884 21.4226 23.6238 22.9166L25.0392 24.3321C27.1876 22.0129 28.5 18.9102 28.5 15.5C28.5 8.3203 22.6797 2.5 15.5 2.5ZM7.26198 9.17478C7.25732 9.16935 7.25254 9.16401 7.24762 9.15875C7.09345 8.98281 7 8.75232 7 8.5C7 7.94772 7.44772 7.5 8 7.5C8.55228 7.5 9 7.94772 9 8.5C9 9.05228 8.55228 9.5 8 9.5C7.70777 9.5 7.44482 9.37465 7.26198 9.17478ZM26 14.5C25.4477 14.5 25 14.9477 25 15.5C25 16.0523 25.4477 16.5 26 16.5C26.5523 16.5 27 16.0523 27 15.5C27 14.9477 26.5523 14.5 26 14.5Z" fill="#0278D5"/>
</svg>
