<svg fill="none" viewBox="0 0 32 32" xmlns="http://www.w3.org/2000/svg"><path clip-rule="evenodd" d="m14.9565 2.38057c-2.0719 1.21356-5.99323 3.44551-9.7309 3.8987-.60655.07354-1.11868.52418-1.16299 1.13356-.4373 6.01417 1.2258 17.33777 11.09329 22.28617.285.1429.6186.1659.9144.0468 2.7787-1.1195 6.9236-4.351 9.2642-10.5538l-4.6284-1.9397c-.0275-.0115-.0542-.0242-.08-.038-.6089.9879-1.5373 1.7894-2.7069 2.2313-2.8112 1.0622-5.9512-.3557-7.0133-3.1669-1.06215-2.8112.3558-5.9512 3.167-7.01333 2.8111-1.06213 5.9511.35577 7.0132 3.16693.3851 1.0192.4442 2.0816.2291 3.0725.0361.0102.072.0227.1075.0375l4.5021 1.8868c.8197-2.7843 1.2833-6.0876 1.1683-9.97014-.0185-.62575-.5171-1.13203-1.1322-1.24833-2.398-.45334-6.4371-1.86339-9.7135-3.81521-.3976-.23688-.8915-.24876-1.2909-.01485zm-.2284 8.61923c-1.8533.7002-2.788 2.7703-2.0878 4.6236s2.7703 2.788 4.6236 2.0878 2.7881-2.7703 2.0878-4.6236c-.7002-1.8533-2.7702-2.788-4.6236-2.0878z" fill="#6b6c85" fill-rule="evenodd"/></svg>