<svg xmlns="http://www.w3.org/2000/svg" width="40" height="40" viewBox="0 0 32 32" fill="none">
<path fill-rule="evenodd" clip-rule="evenodd" d="M21.434 3.71423C17.8442 3.71423 14.934 6.62438 14.934 10.2142C14.934 13.8041 17.8442 16.7142 21.434 16.7142C25.0239 16.7142 27.934 13.8041 27.934 10.2142C27.934 6.62438 25.0239 3.71423 21.434 3.71423ZM13.934 10.2142C13.934 6.0721 17.2919 2.71423 21.434 2.71423C25.5762 2.71423 28.934 6.0721 28.934 10.2142C28.934 14.3564 25.5762 17.7142 21.434 17.7142C20.0749 17.7142 18.8002 17.3527 17.7009 16.7206V19.7608C17.7009 19.8934 17.6482 20.0206 17.5544 20.1143C17.4607 20.2081 17.3335 20.2608 17.2009 20.2608H14.2022V22.7359C14.2022 23.0121 13.9783 23.2359 13.7022 23.2359L10.943 23.2359V25.7517C10.943 26.0278 10.7191 26.2517 10.443 26.2517L5.14179 26.2517C4.86565 26.2517 4.6418 26.0279 4.64178 25.7517L4.6416 22.8329C4.64159 22.7023 4.69265 22.577 4.78387 22.4835L14.3509 12.6861C14.0808 11.9121 13.934 11.0803 13.934 10.2142ZM14.78 13.678L5.64161 23.0365L5.64175 25.2517L9.943 25.2517V22.7359C9.943 22.4598 10.1669 22.2359 10.443 22.2359L13.2022 22.2359V19.7608C13.2022 19.4846 13.426 19.2608 13.7022 19.2608H16.7009L16.7009 16.0324C15.9112 15.3892 15.2549 14.5884 14.78 13.678ZM22.2287 7.25525C21.1241 7.25525 20.2287 8.15068 20.2287 9.25525C20.2287 10.3598 21.1241 11.2553 22.2287 11.2553C23.3333 11.2553 24.2287 10.3598 24.2287 9.25525C24.2287 8.15068 23.3333 7.25525 22.2287 7.25525ZM19.2287 9.25525C19.2287 7.5984 20.5719 6.25525 22.2287 6.25525C23.8856 6.25525 25.2287 7.5984 25.2287 9.25525C25.2287 10.9121 23.8856 12.2553 22.2287 12.2553C20.5719 12.2553 19.2287 10.9121 19.2287 9.25525Z" fill="#0278D5"/>
</svg>
