<svg xmlns="http://www.w3.org/2000/svg" width="40" height="40" viewBox="0 0 32 32" fill="none">
<path fill-rule="evenodd" clip-rule="evenodd" d="M1.5 3C1.5 2.17157 2.17157 1.5 3 1.5H7.25C7.52614 1.5 7.75 1.72386 7.75 2C7.75 2.27614 7.52614 2.5 7.25 2.5H3C2.72386 2.5 2.5 2.72386 2.5 3V7.25C2.5 7.52614 2.27614 7.75 2 7.75C1.72386 7.75 1.5 7.52614 1.5 7.25V3ZM24.25 2C24.25 1.72386 24.4739 1.5 24.75 1.5H29C29.8284 1.5 30.5 2.17157 30.5 3V7.25C30.5 7.52614 30.2761 7.75 30 7.75C29.7239 7.75 29.5 7.52614 29.5 7.25V3C29.5 2.72386 29.2761 2.5 29 2.5H24.75C24.4739 2.5 24.25 2.27614 24.25 2ZM14.1054 5.62239C13.971 5.54515 13.8057 5.54514 13.6713 5.62237L5.98302 10.0404C5.84782 10.1181 5.76446 10.2621 5.76447 10.418L5.76449 18.9294C5.76449 19.0852 5.84769 19.2291 5.98268 19.3069L18.2598 26.3775C18.3944 26.455 18.5601 26.455 18.6947 26.3774L26.4175 21.9267C26.5525 21.849 26.6356 21.7051 26.6356 21.5493V13.0766C26.6356 12.9207 26.5523 12.7766 26.4171 12.6989L14.1054 5.62239ZM6.63563 18.6776L6.63561 11.17L18.099 17.7442L18.0468 25.2495L6.63563 18.6776ZM18.918 25.2432L18.9701 17.7457L25.7645 13.8303V21.2976L18.918 25.2432ZM13.8883 6.5024L25.3268 13.0771L18.5358 16.9905L7.07491 10.4177L13.8883 6.5024ZM20.9356 18.5C20.9356 18.2595 20.7406 18.0645 20.5 18.0645C20.2595 18.0645 20.0645 18.2595 20.0645 18.5V22.5C20.0645 22.7406 20.2595 22.9356 20.5 22.9356C20.7406 22.9356 20.9356 22.7406 20.9356 22.5V18.5ZM22.5 17.0645C22.7406 17.0645 22.9356 17.2595 22.9356 17.5V21.5C22.9356 21.7406 22.7406 21.9356 22.5 21.9356C22.2595 21.9356 22.0645 21.7406 22.0645 21.5V17.5C22.0645 17.2595 22.2595 17.0645 22.5 17.0645ZM24.9356 16.5C24.9356 16.2595 24.7406 16.0645 24.5 16.0645C24.2595 16.0645 24.0645 16.2595 24.0645 16.5V20.5C24.0645 20.7406 24.2595 20.9356 24.5 20.9356C24.7406 20.9356 24.9356 20.7406 24.9356 20.5V16.5ZM3 30.5C2.17157 30.5 1.5 29.8284 1.5 29V24.75C1.5 24.4739 1.72386 24.25 2 24.25C2.27614 24.25 2.5 24.4739 2.5 24.75V29C2.5 29.2761 2.72386 29.5 3 29.5H7.25C7.52614 29.5 7.75 29.7239 7.75 30C7.75 30.2761 7.52614 30.5 7.25 30.5H3ZM24.75 30.5C24.4739 30.5 24.25 30.2761 24.25 30C24.25 29.7239 24.4739 29.5 24.75 29.5H29C29.2761 29.5 29.5 29.2761 29.5 29V24.75C29.5 24.4739 29.7239 24.25 30 24.25C30.2761 24.25 30.5 24.4739 30.5 24.75V29C30.5 29.8284 29.8284 30.5 29 30.5H24.75Z" fill="#0278D5"/>
</svg>
