<svg width="40" height="40" viewBox="0 0 32 32" fill="none" xmlns="http://www.w3.org/2000/svg">
    <path fill-rule="evenodd" clip-rule="evenodd" d="M1.5 3C1.5 2.17157 2.17157 1.5 3 1.5H7.25C7.52614 1.5 7.75 1.72386 7.75 2C7.75 2.27614 7.52614 2.5 7.25 2.5H3C2.72386 2.5 2.5 2.72386 2.5 3V7.25C2.5 7.52614 2.27614 7.75 2 7.75C1.72386 7.75 1.5 7.52614 1.5 7.25V3ZM24.25 2C24.25 1.72386 24.4739 1.5 24.75 1.5H29C29.8284 1.5 30.5 2.17157 30.5 3V7.25C30.5 7.52614 30.2761 7.75 30 7.75C29.7239 7.75 29.5 7.52614 29.5 7.25V3C29.5 2.72386 29.2761 2.5 29 2.5H24.75C24.4739 2.5 24.25 2.27614 24.25 2ZM3 30.5C2.17157 30.5 1.5 29.8284 1.5 29V24.75C1.5 24.4739 1.72386 24.25 2 24.25C2.27614 24.25 2.5 24.4739 2.5 24.75V29C2.5 29.2761 2.72386 29.5 3 29.5H7.25C7.52614 29.5 7.75 29.7239 7.75 30C7.75 30.2761 7.52614 30.5 7.25 30.5H3ZM24.75 30.5C24.4739 30.5 24.25 30.2761 24.25 30C24.25 29.7239 24.4739 29.5 24.75 29.5H29C29.2761 29.5 29.5 29.2761 29.5 29V24.75C29.5 24.4739 29.7239 24.25 30 24.25C30.2761 24.25 30.5 24.4739 30.5 24.75V29C30.5 29.8284 29.8284 30.5 29 30.5H24.75Z" fill="#0278D5"/>
    <path d="M17.1245 6L15.3245 6C15.2003 6 15.0995 6.10074 15.0995 6.225L15.0995 7.51997C15.0995 7.63147 15.0177 7.7258 14.9079 7.74499C13.7917 7.94008 12.7593 8.37894 11.8676 9.00468C11.7764 9.06869 11.652 9.05976 11.5732 8.98098L10.6564 8.06445C10.5685 7.97661 10.4261 7.97661 10.3382 8.06445L9.06524 9.33705C8.97734 9.42492 8.97734 9.56742 9.06524 9.6553L9.98187 10.5717C10.0607 10.6505 10.0696 10.7749 10.0056 10.8662C9.3793 11.7581 8.94005 12.7909 8.74477 13.9076C8.72557 14.0174 8.63125 14.0992 8.51976 14.0992L7.225 14.0992C7.10074 14.0992 7 14.1999 7 14.3242L7 16.1242C7 16.2485 7.10074 16.3492 7.225 16.3492L8.51962 16.3492C8.63112 16.3492 8.72545 16.431 8.74464 16.5408C8.93982 17.6576 9.37904 18.6906 10.0053 19.5826C10.0694 19.6738 10.0604 19.7983 9.98162 19.8771L9.06541 20.7933C8.97754 20.8812 8.97754 21.0236 9.06541 21.1115L10.3382 22.3843C10.4261 22.4722 10.5685 22.4722 10.6564 22.3843L11.5728 21.4679C11.6516 21.3891 11.776 21.3802 11.8672 21.4442C12.759 22.0701 13.7915 22.5091 14.9079 22.7042C15.0177 22.7234 15.0995 22.8177 15.0995 22.9292L15.0995 24.224C15.0995 24.3483 15.2003 24.449 15.3245 24.449L19.825 24.449" stroke="#0278D5" stroke-linecap="round" stroke-linejoin="round"/>
    <path d="M16.1637 18.6001C14.1755 18.6001 12.5637 16.9883 12.5637 15.0001C12.5637 13.0119 14.1755 11.4001 16.1637 11.4001" stroke="#0278D5" stroke-linecap="round" stroke-linejoin="round"/>
    <path d="M17.2376 8.5875L19.6001 8.5875L19.6001 10.5L23.2001 10.5" stroke="#0278D5" stroke-linecap="round" stroke-linejoin="round"/>
    <path d="M16.225 16.6875L21.9625 16.6875" stroke="#0278D5" stroke-linecap="round" stroke-linejoin="round"/>
    <circle cx="1.35" cy="1.35" r="1.35" transform="matrix(4.37114e-08 1 1 -4.37114e-08 20.0501 23.0999)" stroke="#0278D5" stroke-linecap="round" stroke-linejoin="round"/>
    <circle cx="1.35" cy="1.35" r="1.35" transform="matrix(4.37114e-08 1 1 -4.37114e-08 23.2 9.15008)" stroke="#0278D5" stroke-linecap="round" stroke-linejoin="round"/>
    <circle cx="1.35" cy="1.35" r="1.35" transform="matrix(4.37114e-08 1 1 -4.37114e-08 22.3001 15.45)" stroke="#0278D5" stroke-linecap="round" stroke-linejoin="round"/>
</svg>
