<svg width="14" height="14" viewBox="0 0 14 14" fill="none" xmlns="http://www.w3.org/2000/svg">
    <path d="M0.56205 10.4976C0.262842 10.4976 0.0306215 10.2365 0.0654488 9.93936L1.17854 0.441785C1.20806 0.18988 1.42151 -1.43051e-05 1.67514 -1.43051e-05L9.88892 -1.43051e-05C10.1651 -1.43051e-05 10.3889 0.223843 10.3889 0.499986L10.3889 9.99756C10.3889 10.2737 10.1651 10.4976 9.88892 10.4976L0.56205 10.4976Z" fill="#DA291D"/>
    <path d="M10.3889 12.9998C10.3889 13.552 9.94129 13.9997 9.38906 13.9998L8.79988 13.9999C8.24177 13.9999 7.79161 13.5432 7.79984 12.9851L7.85773 9.06152C7.8658 8.5151 8.311 8.07635 8.85747 8.07627L9.13059 8.07623L9.38876 8.07619C9.94111 8.07611 10.3889 8.52385 10.3889 9.07619V12.9998Z" fill="#DA291D"/>
    <path transform="rotate(-180 14 10.4873)" fill="#DA291D" d="M14.5 10.4873h1.3643s0.5 0 0.5 0.5v9.487s0 0.5 -0.5 0.5h-1.3643s-0.5 0 -0.5 -0.5v-9.487s0 -0.5 0.5 -0.5" />
</svg>
