<svg xmlns="http://www.w3.org/2000/svg" fill="currentColor" viewBox="0 0 14 14"><path fill-rule="evenodd" stroke="#383946" stroke-linecap="round" stroke-linejoin="round" stroke-width=".3" d="M.656 1.313c0-.363.294-.657.657-.657h1.859a.219.219 0 0 1 0 .438h-1.86a.22.22 0 0 0-.218.218v1.86a.219.219 0 0 1-.438 0zM10.61.875a.22.22 0 0 1 .22-.219h1.858c.363 0 .657.294.657.657v1.859a.219.219 0 0 1-.438 0v-1.86a.22.22 0 0 0-.219-.218h-1.859a.22.22 0 0 1-.219-.219M1.313 13.344a.656.656 0 0 1-.657-.656v-1.86a.219.219 0 0 1 .438 0v1.86c0 .12.098.218.218.218h1.86a.219.219 0 1 1 0 .438zm9.515 0a.219.219 0 0 1 0-.438h1.86c.12 0 .218-.098.218-.219v-1.859a.219.219 0 0 1 .438 0v1.86a.656.656 0 0 1-.656.656z" clip-rule="evenodd"/><path stroke="#383946" stroke-linecap="round" stroke-linejoin="round" stroke-width=".7" d="M7.492 2.625h-.788a.1.1 0 0 0-.098.098v.567a.1.1 0 0 1-.084.098c-.488.086-.94.278-1.33.552a.1.1 0 0 1-.129-.01l-.4-.402a.1.1 0 0 0-.14 0l-.557.557a.1.1 0 0 0 0 .14l.401.4a.1.1 0 0 1 .01.129c-.274.39-.466.842-.551 1.33a.1.1 0 0 1-.099.084h-.566a.1.1 0 0 0-.099.099v.787a.1.1 0 0 0 .099.099h.566a.1.1 0 0 1 .099.084c.085.488.277.94.551 1.33a.1.1 0 0 1-.01.13l-.4.4a.1.1 0 0 0 0 .14l.556.556c.038.039.1.039.14 0l.4-.4a.1.1 0 0 1 .129-.011c.39.274.842.466 1.33.551a.1.1 0 0 1 .084.098v.567c0 .054.044.098.098.098h1.97"/><path stroke="#383946" stroke-linecap="round" stroke-linejoin="round" stroke-width=".7" d="M7.072 8.137a1.575 1.575 0 0 1 0-3.15m.469-1.23h1.034v.837h1.575M7.098 7.3h2.51"/><circle cx=".591" cy=".591" r=".591" stroke="#383946" stroke-linecap="round" stroke-linejoin="round" stroke-width=".7" transform="matrix(0 1 1 0 8.772 10.106)"/><circle cx=".591" cy=".591" r=".591" stroke="#383946" stroke-linecap="round" stroke-linejoin="round" stroke-width=".7" transform="matrix(0 1 1 0 10.15 4.003)"/><circle cx=".591" cy=".591" r=".591" stroke="#383946" stroke-linecap="round" stroke-linejoin="round" stroke-width=".7" transform="matrix(0 1 1 0 9.756 6.76)"/></svg>