<?xml version="1.0" encoding="utf-8"?>
<!-- Generator: Adobe Illustrator 25.4.1, SVG Export Plug-In . SVG Version: 6.00 Build 0)  -->
<svg version="1.0" id="Layer_1" xmlns="http://www.w3.org/2000/svg" xmlns:xlink="http://www.w3.org/1999/xlink" x="0px" y="0px"
	 viewBox="0 0 948.4 640.2" style="enable-background:new 0 0 948.4 640.2;" xml:space="preserve">
<style type="text/css">
	.st0{fill:#529DBC;}
	.st1{fill:#010101;}
</style>
<path class="st0" d="M611.8,265.1c-30.4,0-55,24.6-55,55s24.6,55,55,55s55-24.6,55-55c0-14.6-5.8-28.5-16.1-38.9
	C640.4,270.9,626.4,265.1,611.8,265.1z M611.8,353.6c-22.5,0-32.6-19.7-32.6-33.7s10.2-33.7,32.6-33.7c23.8,0,32.7,20.9,32.7,34.1
	C644.4,334.2,634.3,353.6,611.8,353.6z M679.3,373v-84.9h-16.7V267h39v106H679.3z"/>
<path class="st1" d="M213.1,373h60.8v-21.2h-38.4v-21.6h38.5v-21.2h-38.5v-20.8h38.5V267h-60.8V373z M158.1,333.3
	c-5.6-14.6-25.7-66.3-25.7-66.3h-24l42.7,106h14l42.5-106h-23.7C183.9,267,163.8,318.7,158.1,333.3L158.1,333.3z M397.7,267
	l-38.2,101.6l-23.6-33.2c10.5-2.6,24.8-11.1,24.8-33c0.2-9.7-3.5-19.1-10.2-26c-6.8-6.5-15.7-9.3-28.8-9.3h-34.3v106h22.3v-37.3
	l26.5,37.2h45.1l8.2-22h34.8l8.2,22h23.8L416.1,267H397.7z M315.4,317.5h-5.8v-29.4h11.1c13,0,17.7,7.3,17.7,14.3
	C338.4,306.1,338.4,317.5,315.4,317.5z M396.9,330.5c3.7-10.3,8.4-23.6,10.1-28.7l10.1,28.7H396.9z"/>
<path class="st1" d="M840,288.1V267h-60.8v106H840v-21.2h-38.5v-21.6H840v-21.2h-38.5v-20.8H840z"/>
<path class="st1" d="M503,286.2c9.5,0.2,18.4,4.6,24.3,12.1l1.4,1.7h26l-3.6-6.3c-3.9-7.3-9.4-13.6-16.1-18.4
	c-9.5-6.6-20.7-10.2-32.3-10.2c-30.3,0-54.8,24.5-54.8,54.8c0,30.3,24.5,54.8,54.8,54.8c19.8,0,38.1-10.7,47.8-28l3.4-6h-26.3
	l-1.2,1.4c-5.8,7.1-14.5,11.2-23.7,11.4c-18.1-0.8-32.4-15.8-32.1-34C470.4,301.5,484.9,286.6,503,286.2z"/>
<path class="st1" d="M716.3,267h-5.8v21.1h5.7c25.1,0,31.8,20.2,31.8,32c0,28.6-22.5,31.6-32.1,31.6h-5.4V373h5.3
	c17.4,0,30.5-4.9,41-15.3c8.2-7.9,13.5-22.9,13.5-37.4c-0.2-12-3.9-23.7-10.8-33.5C750,273.6,735.4,267,716.3,267z"/>
</svg>
