<svg xmlns="http://www.w3.org/2000/svg" width="168" height="56" fill="none" viewBox="0 0 168 56">
  <path fill="url(#a)" fill-rule="evenodd" d="M24.92 10.307c-2.776 1.63-8.379 4.884-13.636 5.4-.608.06-1.12.509-1.171 1.117-.684 7.996 1.43 23.637 15.004 30.335.285.14.619.164.916.049 3.727-1.442 9.4-5.78 12.585-14.219l-6.209-2.602a1.252 1.252 0 0 1-.107-.05 7.299 7.299 0 1 1 .924-2.293c.049.013.097.03.145.05l6.038 2.53c1.126-3.823 1.751-8.376 1.555-13.745-.022-.626-.52-1.134-1.137-1.237-3.21-.535-9.015-2.525-13.62-5.316a1.254 1.254 0 0 0-1.287-.019ZM24.39 22a4.812 4.812 0 1 0 3.402 9.003A4.812 4.812 0 0 0 24.391 22Z" clip-rule="evenodd"/>
  <path fill="#000" d="M55.538 18.617a1.357 1.357 0 0 0-.587-1.014c-.342-.242-.786-.363-1.333-.363-.384 0-.714.058-.989.174a1.466 1.466 0 0 0-.631.472c-.146.2-.22.426-.224.681 0 .213.048.397.144.552.1.156.234.289.403.398.169.106.356.196.562.269.205.072.412.134.621.183l.955.24c.384.089.754.21 1.108.362.358.152.678.345.96.577.285.232.51.512.676.84.166.328.249.713.249 1.153 0 .597-.153 1.122-.458 1.576-.305.451-.746.804-1.322 1.06-.574.251-1.268.377-2.083.377-.792 0-1.48-.122-2.064-.368-.58-.245-1.034-.603-1.362-1.074-.325-.47-.5-1.044-.527-1.72h1.815c.026.355.136.65.328.885.192.236.442.411.75.527.312.116.66.174 1.045.174.4 0 .752-.06 1.054-.179.305-.122.543-.291.716-.507.172-.219.26-.474.263-.765a.973.973 0 0 0-.234-.657 1.712 1.712 0 0 0-.64-.437 6.185 6.185 0 0 0-.955-.319l-1.159-.298c-.838-.215-1.501-.542-1.989-.98-.483-.44-.725-1.025-.725-1.754 0-.6.162-1.125.487-1.576.328-.45.774-.8 1.337-1.05.564-.251 1.202-.377 1.914-.377.723 0 1.356.126 1.9.378.546.248.976.595 1.287 1.039.312.44.472.948.482 1.521h-1.774Zm6.859 7.533c-.766 0-1.427-.16-1.984-.478a3.232 3.232 0 0 1-1.277-1.362c-.299-.59-.448-1.285-.448-2.083 0-.786.15-1.475.448-2.069a3.383 3.383 0 0 1 1.262-1.392c.54-.334 1.175-.502 1.905-.502.47 0 .914.076 1.332.229.42.15.792.381 1.114.696.324.315.58.716.765 1.203.186.484.279 1.06.279 1.73v.552h-6.26v-1.213h4.534a1.936 1.936 0 0 0-.223-.92 1.627 1.627 0 0 0-.612-.641 1.719 1.719 0 0 0-.904-.234c-.368 0-.692.09-.97.269a1.85 1.85 0 0 0-.651.696c-.153.285-.23.598-.234.94v1.058c0 .444.081.826.244 1.144.162.315.39.557.68.726a2.05 2.05 0 0 0 1.025.248c.262 0 .499-.036.71-.11.213-.075.397-.186.553-.332.155-.146.273-.327.353-.542l1.68.189a2.62 2.62 0 0 1-.606 1.163 2.957 2.957 0 0 1-1.134.766c-.46.179-.988.268-1.58.268Zm8.249 0c-.762 0-1.417-.168-1.964-.503a3.353 3.353 0 0 1-1.257-1.387c-.292-.593-.438-1.276-.438-2.048 0-.776.15-1.46.448-2.054a3.346 3.346 0 0 1 1.262-1.392c.547-.334 1.194-.502 1.94-.502.619 0 1.168.115 1.645.343.48.226.863.546 1.148.96.285.41.448.891.487 1.442h-1.72a1.645 1.645 0 0 0-.497-.92c-.258-.249-.605-.373-1.039-.373-.368 0-.691.1-.97.298-.278.196-.495.477-.65.845-.153.368-.23.81-.23 1.323 0 .52.077.968.23 1.342.152.371.366.658.64.86.28.2.606.299.98.299.265 0 .502-.05.711-.15.212-.102.39-.25.532-.442a1.7 1.7 0 0 0 .293-.701h1.72a3 3 0 0 1-.477 1.437 2.83 2.83 0 0 1-1.123.974c-.474.232-1.031.348-1.67.348Zm9.617-3.362v-4.424h1.8V26h-1.746v-1.357h-.08a2.296 2.296 0 0 1-.85 1.049c-.39.272-.873.407-1.446.407-.5 0-.943-.11-1.328-.333a2.316 2.316 0 0 1-.895-.979c-.215-.43-.323-.951-.323-1.561v-4.862h1.8v4.584c0 .483.133.868.398 1.153.265.285.613.428 1.044.428.265 0 .522-.065.77-.194.249-.13.453-.322.612-.577.162-.259.243-.582.243-.97ZM83.913 26v-7.636h1.745v1.272h.08c.139-.44.377-.78.715-1.019a1.972 1.972 0 0 1 1.169-.363c.1 0 .21.005.333.015.126.007.23.019.313.035v1.656a1.896 1.896 0 0 0-.363-.07 3.341 3.341 0 0 0-.472-.035 1.82 1.82 0 0 0-.885.214c-.259.14-.463.333-.612.582a1.64 1.64 0 0 0-.223.86V26h-1.8Zm5.551 0v-7.636h1.8V26h-1.8Zm.904-8.72a1.05 1.05 0 0 1-.735-.284.913.913 0 0 1-.309-.69c0-.272.103-.503.309-.692a1.04 1.04 0 0 1 .736-.288c.288 0 .533.096.735.288.206.19.308.42.308.691a.913.913 0 0 1-.308.692 1.039 1.039 0 0 1-.736.283Zm6.559 1.084v1.392h-4.39v-1.392h4.39Zm-3.306-1.83h1.8v7.17c0 .241.036.427.11.556a.59.59 0 0 0 .297.258c.123.047.259.07.408.07.113 0 .216-.008.308-.025a2.61 2.61 0 0 0 .22-.044l.303 1.407a4.04 4.04 0 0 1-.413.109 3.39 3.39 0 0 1-.647.07 2.934 2.934 0 0 1-1.218-.204 1.894 1.894 0 0 1-.86-.706c-.208-.319-.311-.716-.308-1.194v-7.467Zm5.93 12.33c-.245 0-.472-.02-.681-.06a2.52 2.52 0 0 1-.492-.13l.417-1.401c.262.076.496.113.701.11a.86.86 0 0 0 .542-.195c.159-.122.294-.328.403-.616l.154-.413-2.77-7.795h1.91l1.76 5.767h.079l1.765-5.767h1.914l-3.057 8.56a3.44 3.44 0 0 1-.567 1.04 2.303 2.303 0 0 1-.865.666c-.338.156-.742.234-1.213.234Zm10.053-11.5v-1.546h8.123v1.546h-3.147V26h-1.829v-8.636h-3.147Zm11.883 8.786c-.766 0-1.427-.16-1.984-.478a3.232 3.232 0 0 1-1.277-1.362c-.299-.59-.448-1.285-.448-2.083 0-.786.149-1.475.448-2.069a3.379 3.379 0 0 1 1.262-1.392c.541-.334 1.175-.502 1.904-.502.471 0 .915.076 1.333.229.421.15.792.381 1.113.696.325.315.58.716.766 1.203.186.484.279 1.06.279 1.73v.552h-6.26v-1.213h4.534a1.942 1.942 0 0 0-.223-.92 1.629 1.629 0 0 0-.612-.641 1.717 1.717 0 0 0-.905-.234c-.368 0-.691.09-.969.269a1.839 1.839 0 0 0-.651.696 1.994 1.994 0 0 0-.234.94v1.058c0 .444.081.826.244 1.144.162.315.389.557.681.726.291.165.633.248 1.024.248.262 0 .499-.036.711-.11a1.58 1.58 0 0 0 .552-.332 1.4 1.4 0 0 0 .353-.542l1.68.189a2.613 2.613 0 0 1-.607 1.163 2.953 2.953 0 0 1-1.133.766c-.461.179-.988.268-1.581.268Zm10.954-5.768-1.641.18a1.313 1.313 0 0 0-.244-.468 1.205 1.205 0 0 0-.457-.353 1.667 1.667 0 0 0-.706-.134c-.375 0-.689.08-.945.243-.252.163-.376.373-.372.632a.657.657 0 0 0 .243.541c.169.14.448.254.835.343l1.303.279c.722.156 1.259.403 1.611.74.354.339.533.781.537 1.328-.004.48-.145.905-.423 1.273-.275.364-.658.65-1.148.855-.491.206-1.054.308-1.691.308-.934 0-1.687-.195-2.257-.586-.57-.395-.91-.943-1.019-1.646l1.755-.17c.08.346.249.606.507.782.259.175.595.263 1.009.263.428 0 .771-.088 1.029-.264.262-.175.393-.392.393-.65 0-.22-.084-.4-.253-.543-.166-.142-.425-.252-.776-.328l-1.303-.273c-.732-.153-1.274-.41-1.625-.77-.352-.365-.526-.826-.522-1.383a1.95 1.95 0 0 1 .383-1.223c.261-.348.624-.617 1.088-.805.468-.193 1.006-.289 1.616-.289.895 0 1.599.19 2.113.572.517.381.837.897.96 1.546Zm5.461-2.018v1.392h-4.39v-1.392h4.39Zm-3.306-1.83h1.799v7.17c0 .241.037.427.11.556a.591.591 0 0 0 .298.258c.123.047.259.07.408.07.112 0 .215-.008.308-.025.096-.016.169-.031.219-.044l.303 1.407c-.096.033-.234.07-.413.109a3.38 3.38 0 0 1-.646.07 2.933 2.933 0 0 1-1.218-.204 1.895 1.895 0 0 1-.86-.706c-.209-.319-.312-.716-.308-1.194v-7.467ZM139.407 26v-7.636h1.8V26h-1.8Zm.905-8.72c-.285 0-.53-.095-.736-.284a.915.915 0 0 1-.308-.69c0-.272.103-.503.308-.692.206-.192.451-.288.736-.288.288 0 .533.096.736.288.205.19.308.42.308.691a.915.915 0 0 1-.308.692 1.041 1.041 0 0 1-.736.283Zm4.545 4.246V26h-1.8v-7.636h1.721v1.297h.089a2.19 2.19 0 0 1 .84-1.019c.388-.252.867-.378 1.437-.378.527 0 .986.113 1.377.338.395.226.7.552.915.98.219.427.326.946.323 1.556V26h-1.8v-4.584c0-.51-.132-.91-.397-1.198-.262-.288-.625-.432-1.089-.432-.315 0-.595.07-.84.208a1.447 1.447 0 0 0-.572.592c-.136.259-.204.572-.204.94Zm10.053 7.497c-.647 0-1.202-.088-1.666-.264-.464-.172-.837-.404-1.118-.696a2.404 2.404 0 0 1-.587-.97l1.621-.392c.073.15.179.297.318.442.139.15.326.272.562.368.238.1.538.15.899.15.511 0 .934-.125 1.268-.373.335-.246.502-.65.502-1.213v-1.447h-.089a2.562 2.562 0 0 1-.408.572c-.175.195-.409.36-.701.492-.288.132-.651.199-1.089.199a3.136 3.136 0 0 1-1.595-.413c-.474-.278-.852-.693-1.134-1.243-.278-.553-.418-1.246-.418-2.078 0-.838.14-1.546.418-2.123.282-.58.661-1.019 1.139-1.317a2.924 2.924 0 0 1 1.595-.453c.448 0 .816.076 1.104.229.292.15.524.33.696.542.172.209.303.406.393.591h.099v-1.262h1.775v7.76c0 .653-.156 1.194-.467 1.621-.312.428-.738.747-1.278.96-.54.212-1.153.318-1.839.318Zm.015-4.544c.381 0 .706-.093.974-.279a1.72 1.72 0 0 0 .612-.8c.139-.348.208-.766.208-1.253 0-.48-.069-.901-.208-1.263a1.807 1.807 0 0 0-.607-.84c-.265-.202-.592-.303-.979-.303-.401 0-.736.104-1.005.313a1.9 1.9 0 0 0-.606.86 3.483 3.483 0 0 0-.204 1.233c0 .467.068.877.204 1.228.139.348.343.62.611.815.272.193.605.289 1 .289ZM59.102 35.91c0 1.096-.205 2.036-.616 2.818-.408.779-.965 1.375-1.67 1.79-.703.414-1.5.621-2.392.621-.892 0-1.69-.207-2.396-.621-.703-.418-1.26-1.016-1.67-1.795-.409-.782-.612-1.72-.612-2.814 0-1.097.203-2.035.611-2.814.411-.782.968-1.38 1.67-1.794.706-.415 1.505-.622 2.397-.622.891 0 1.689.207 2.391.622.706.414 1.263 1.012 1.67 1.794.412.78.617 1.717.617 2.814Zm-1.854 0c0-.773-.121-1.424-.363-1.955-.239-.533-.57-.936-.994-1.208a2.635 2.635 0 0 0-1.467-.412c-.554 0-1.042.137-1.467.412-.424.272-.757.675-.999 1.208-.239.53-.358 1.182-.358 1.954s.12 1.425.358 1.959c.242.53.575.933 1 1.208.424.272.912.408 1.466.408.553 0 1.042-.136 1.467-.408.424-.275.755-.678.994-1.208.242-.534.363-1.187.363-1.959ZM60.766 41v-7.636h1.745v1.272h.08c.14-.44.378-.78.716-1.019a1.97 1.97 0 0 1 1.168-.363c.1 0 .21.005.333.015.126.007.23.019.313.035v1.656a1.894 1.894 0 0 0-.362-.07 3.34 3.34 0 0 0-.473-.035c-.328 0-.623.071-.885.214a1.57 1.57 0 0 0-.611.582 1.64 1.64 0 0 0-.224.86V41h-1.8Zm8.568.15c-.763 0-1.417-.168-1.964-.503a3.353 3.353 0 0 1-1.258-1.387c-.292-.593-.437-1.276-.437-2.048 0-.776.149-1.46.447-2.054.298-.596.72-1.06 1.263-1.392.547-.334 1.193-.502 1.939-.502.62 0 1.168.115 1.645.343.48.226.864.546 1.149.96.285.41.447.891.487 1.442h-1.72a1.645 1.645 0 0 0-.497-.92c-.259-.249-.605-.373-1.04-.373-.367 0-.69.1-.969.298-.278.196-.495.477-.651.845-.153.368-.229.81-.229 1.323 0 .52.076.968.229 1.342.152.371.366.658.641.86.279.2.605.299.98.299.265 0 .502-.05.71-.15.213-.102.39-.25.532-.442a1.7 1.7 0 0 0 .294-.701h1.72a3 3 0 0 1-.477 1.437c-.275.414-.65.739-1.124.974-.474.232-1.03.348-1.67.348Zm6.548-4.624V41h-1.8V30.818h1.76v3.843h.09c.18-.43.456-.77.83-1.019.378-.252.859-.378 1.442-.378.53 0 .993.111 1.387.333.395.222.7.547.915.975.219.427.328.95.328 1.566V41h-1.8v-4.584c0-.513-.132-.913-.397-1.198-.262-.288-.63-.432-1.104-.432-.318 0-.603.07-.855.208a1.462 1.462 0 0 0-.587.592c-.139.258-.209.572-.209.94ZM86.05 41.15c-.766 0-1.427-.16-1.984-.478a3.232 3.232 0 0 1-1.278-1.362c-.298-.59-.447-1.285-.447-2.083 0-.786.149-1.475.447-2.069a3.384 3.384 0 0 1 1.263-1.392c.54-.334 1.175-.502 1.904-.502.47 0 .915.076 1.332.229.421.15.792.381 1.114.696.325.315.58.716.766 1.203.185.484.278 1.06.278 1.73v.552h-6.26v-1.213h4.535a1.936 1.936 0 0 0-.224-.92 1.627 1.627 0 0 0-.611-.641 1.719 1.719 0 0 0-.905-.234c-.368 0-.691.09-.97.269a1.85 1.85 0 0 0-.65.696 2.005 2.005 0 0 0-.235.94v1.058c0 .444.082.826.244 1.144.162.315.39.557.681.726.292.165.633.248 1.024.248.262 0 .5-.036.711-.11.212-.075.396-.186.552-.332.156-.146.273-.327.353-.542l1.68.189a2.619 2.619 0 0 1-.606 1.163 2.958 2.958 0 0 1-1.134.766c-.46.179-.987.268-1.58.268Zm10.953-5.768-1.64.18a1.318 1.318 0 0 0-.244-.468 1.21 1.21 0 0 0-.458-.353 1.666 1.666 0 0 0-.706-.134c-.374 0-.689.08-.944.243-.252.163-.376.373-.373.632a.66.66 0 0 0 .244.541c.169.14.447.254.835.343l1.302.279c.723.156 1.26.403 1.611.74.355.339.534.781.537 1.328-.003.48-.144.905-.422 1.273-.276.364-.658.65-1.149.855-.49.206-1.054.308-1.69.308-.935 0-1.687-.195-2.257-.586-.57-.395-.91-.943-1.02-1.646l1.755-.17c.08.346.249.606.508.782.258.175.595.263 1.009.263.427 0 .77-.088 1.029-.264.262-.175.393-.392.393-.65a.68.68 0 0 0-.254-.543c-.166-.142-.424-.252-.776-.328l-1.302-.273c-.733-.153-1.274-.41-1.626-.77-.351-.365-.525-.826-.522-1.383-.003-.47.125-.878.383-1.223.262-.348.625-.616 1.089-.805.467-.193 1.006-.289 1.616-.289.895 0 1.599.19 2.112.572.518.381.837.897.96 1.546Zm5.461-2.018v1.392h-4.39v-1.392h4.39Zm-3.306-1.83h1.8v7.17c0 .241.036.427.109.556a.593.593 0 0 0 .299.259c.122.046.258.07.407.07.113 0 .216-.01.309-.026a2.53 2.53 0 0 0 .218-.044l.304 1.407c-.097.033-.234.07-.413.109-.176.04-.391.063-.646.07a2.933 2.933 0 0 1-1.218-.204 1.893 1.893 0 0 1-.86-.706c-.21-.319-.312-.716-.309-1.194v-7.467ZM103.97 41v-7.636h1.745v1.272h.079c.139-.44.378-.78.716-1.019a1.97 1.97 0 0 1 1.168-.363c.1 0 .211.005.333.015.126.007.231.019.314.035v1.656a1.92 1.92 0 0 0-.363-.07 3.35 3.35 0 0 0-.473-.035c-.328 0-.623.071-.885.214a1.57 1.57 0 0 0-.611.582 1.64 1.64 0 0 0-.224.86V41h-1.799Zm7.611.154a3.19 3.19 0 0 1-1.308-.258 2.132 2.132 0 0 1-.914-.776c-.222-.341-.333-.762-.333-1.263 0-.43.079-.787.238-1.069a1.84 1.84 0 0 1 .652-.676c.275-.169.585-.296.929-.383a7.528 7.528 0 0 1 1.079-.193c.447-.047.81-.088 1.089-.125.278-.04.48-.1.606-.179.13-.083.194-.21.194-.383v-.03c0-.374-.111-.664-.333-.87-.222-.205-.542-.308-.959-.308-.441 0-.791.096-1.049.289a1.423 1.423 0 0 0-.517.68l-1.681-.238c.133-.464.352-.852.656-1.163.305-.315.678-.55 1.119-.706a4.28 4.28 0 0 1 1.462-.239c.368 0 .734.043 1.098.13.365.086.698.228 1 .427.301.196.543.462.726.8.185.339.278.761.278 1.268V41h-1.73v-1.049h-.06a2.184 2.184 0 0 1-.462.597c-.196.182-.443.33-.741.442a2.97 2.97 0 0 1-1.039.164Zm.467-1.322c.362 0 .675-.072.94-.214.265-.146.469-.338.611-.577.146-.238.219-.499.219-.78v-.9a.84.84 0 0 1-.288.13 4.103 4.103 0 0 1-.448.103c-.165.03-.329.057-.492.08l-.422.06a3.135 3.135 0 0 0-.721.179c-.212.083-.38.199-.502.348-.123.145-.184.334-.184.566 0 .332.121.582.363.751.242.17.55.254.924.254Zm9.188-6.468v1.392h-4.39v-1.392h4.39Zm-3.306-1.83h1.799v7.17c0 .241.037.427.11.556a.587.587 0 0 0 .298.259c.123.046.259.07.408.07.112 0 .215-.01.308-.026.096-.016.169-.031.219-.044l.303 1.407c-.096.033-.234.07-.413.109a3.38 3.38 0 0 1-.646.07 2.933 2.933 0 0 1-1.218-.204 1.895 1.895 0 0 1-.86-.706c-.209-.319-.312-.716-.308-1.194v-7.467ZM122.741 41v-7.636h1.8V41h-1.8Zm.905-8.72c-.285 0-.53-.095-.736-.284a.915.915 0 0 1-.308-.69c0-.272.103-.503.308-.692.206-.192.451-.288.736-.288.288 0 .533.096.736.288.205.19.308.42.308.691a.915.915 0 0 1-.308.692 1.041 1.041 0 0 1-.736.283Zm6.076 8.87c-.745 0-1.392-.165-1.939-.493a3.343 3.343 0 0 1-1.272-1.377c-.299-.59-.448-1.28-.448-2.068 0-.79.149-1.48.448-2.074a3.336 3.336 0 0 1 1.272-1.382c.547-.328 1.194-.492 1.939-.492.746 0 1.392.164 1.939.492.547.329.97.79 1.268 1.383.302.593.452 1.284.452 2.073 0 .788-.15 1.478-.452 2.068a3.307 3.307 0 0 1-1.268 1.377c-.547.328-1.193.492-1.939.492Zm.01-1.443c.405 0 .743-.11 1.014-.333a2.01 2.01 0 0 0 .607-.905 3.7 3.7 0 0 0 .204-1.262c0-.468-.068-.89-.204-1.268a2.008 2.008 0 0 0-.607-.91c-.271-.225-.609-.338-1.014-.338-.414 0-.759.113-1.034.338a2.039 2.039 0 0 0-.611.91 3.8 3.8 0 0 0-.199 1.268c0 .464.066.885.199 1.262.136.378.339.68.611.905.275.222.62.333 1.034.333Zm6.977-3.181V41h-1.8v-7.636h1.72v1.297h.09c.175-.427.455-.767.84-1.019.388-.252.867-.378 1.437-.378.527 0 .986.113 1.377.338.394.226.699.552.915.98.218.427.326.946.323 1.556V41h-1.8v-4.584c0-.51-.133-.91-.398-1.198-.262-.288-.625-.432-1.089-.432-.314 0-.594.07-.84.208a1.445 1.445 0 0 0-.571.592c-.136.258-.204.572-.204.94Z"/>
  <defs>
    <linearGradient id="a" x1="15.115" x2="36.382" y1="14.434" y2="42.221" gradientUnits="userSpaceOnUse">
      <stop stop-color="#4791FF"/>
      <stop offset="1" stop-color="#2E1CF3"/>
    </linearGradient>
  </defs>
</svg>
