<svg xmlns="http://www.w3.org/2000/svg" viewBox="0 0 44 40"><rect width="44" height="40" fill="#effbff" rx="4"/><path stroke="#004ba4" stroke-linecap="round" stroke-linejoin="round" d="M28 7.833c0 1.105-2.686 2-6 2s-6-.895-6-2m12 0c0-1.105-2.686-2-6-2s-6 .895-6 2m12 0v9.333c0 1.107-2.667 2-6 2s-6-.893-6-2V7.833M28 12.5c0 1.106-2.667 2-6 2s-6-.894-6-2"/><path fill="#004ba4" d="m19.472 27.487-1.172.128a.9.9 0 0 0-.174-.334.9.9 0 0 0-.327-.252 1.2 1.2 0 0 0-.504-.096q-.402 0-.675.174-.27.175-.266.451a.47.47 0 0 0 .174.387q.181.15.596.245l.93.2q.775.166 1.151.528.38.363.384.948a1.5 1.5 0 0 1-.302.91q-.295.39-.82.61t-1.208.22q-1.001 0-1.612-.419a1.7 1.7 0 0 1-.728-1.175l1.254-.12a.88.88 0 0 0 .362.557q.277.188.72.188.459 0 .736-.188.28-.188.28-.465a.49.49 0 0 0-.18-.387q-.18-.153-.555-.235l-.93-.195q-.785-.164-1.161-.55-.377-.39-.373-.988a1.4 1.4 0 0 1 .273-.873 1.8 1.8 0 0 1 .778-.576 3 3 0 0 1 1.154-.206q.959 0 1.51.409.553.408.685 1.104m3.9-1.441v.994h-3.135v-.994zm-2.361-1.307h1.286v5.12q0 .26.078.398.081.135.213.185.13.05.29.05.122 0 .221-.018.103-.018.156-.032l.217 1.005a2.4 2.4 0 0 1-.756.128q-.483.013-.87-.146a1.35 1.35 0 0 1-.615-.504q-.223-.342-.22-.853zm7.67 2.748-1.172.128a.9.9 0 0 0-.174-.334.9.9 0 0 0-.327-.252 1.2 1.2 0 0 0-.504-.096q-.402 0-.675.174-.27.175-.266.451a.47.47 0 0 0 .174.387q.181.15.596.245l.93.2q.775.166 1.151.528.38.363.384.948a1.5 1.5 0 0 1-.302.91q-.295.39-.82.61t-1.208.22q-1.001 0-1.612-.419a1.68 1.68 0 0 1-.728-1.175l1.254-.12a.88.88 0 0 0 .362.557q.277.188.72.188.459 0 .736-.188.28-.188.28-.465a.49.49 0 0 0-.18-.387q-.18-.153-.555-.235l-.93-.195q-.784-.164-1.161-.55-.377-.39-.373-.988a1.4 1.4 0 0 1 .273-.873 1.8 1.8 0 0 1 .778-.576 3 3 0 0 1 1.154-.206q.959 0 1.51.409.553.408.685 1.104"/></svg>