<svg viewBox="0 0 32 32" fill="none" xmlns="http://www.w3.org/2000/svg"><g mask="url(#a)" fill="currentColor"><path d="M28.873 9.781c0 1.024-1.419 1.156-1.419-.201-.007-.658-.003-1.315-.006-1.972-.004-1.042-.576-1.62-1.616-1.62-6.559-.002-13.117-.002-19.676 0-1.02 0-1.603.582-1.603 1.598-.002 4.4-.002 8.801 0 13.202 0 1.038.578 1.606 1.626 1.607 1.698.001 3.397.013 5.095-.005.764-.01 1.38.246 1.911.793.916.942 1.86 1.86 2.808 2.805.1-.094.191-.172.276-.256.878-.874 1.758-1.745 2.629-2.626a2.274 2.274 0 0 1 1.708-.708c1.71.01 3.419.004 5.129.004 1.174 0 1.713-.544 1.713-1.724 0-2.474-.001-4.947.002-7.42 0-1.317 1.422-1.137 1.422-.333v8.425c0 1.543-1.466 2.473-3.124 2.474-1.686 0-3.372.006-5.058-.005-.34-.002-.596.11-.83.347-.91.919-1.828 1.83-2.746 2.741-.711.706-1.521.703-2.232-.005-.91-.904-1.822-1.805-2.721-2.719a1.15 1.15 0 0 0-.891-.365c-1.753.012-3.506.012-5.26.003-1.377-.009-2.883-.711-2.883-2.406V7.51c0-1.316.476-2.025 1.205-2.508.612-.405 1.457-.436 2.19-.436H26.46c1.013 0 2.414.871 2.414 2.474v2.741Z"/><path d="M13.597 14.301c.514.445 1.086.846 1.539 1.352.783.874 1.056 1.939.923 3.104-.01.088-.029.177-.053.262a.71.71 0 0 1-.821.52c-.357-.064-.646-.418-.566-.786.402-1.832-1.362-3.638-3.644-3.39-.9.098-1.671.469-2.257 1.173-.51.614-.721 1.319-.596 2.115.07.449-.163.813-.558.887-.417.078-.756-.181-.85-.649-.318-1.565.512-3.306 2.018-4.23.15-.091.303-.179.459-.27-1.646-1.643-1.122-3.726-.029-4.707a3.265 3.265 0 0 1 4.413.036c1.118 1.04 1.526 3.079.022 4.583Zm-.465-2.278c.007-.966-.777-1.75-1.765-1.764-.97-.014-1.795.778-1.803 1.732-.007.963.785 1.748 1.771 1.756.994.009 1.79-.756 1.797-1.724ZM19.443 17.589c-.887-.883-1.762-1.744-2.623-2.615-.295-.299-.287-.707-.016-.99.275-.288.706-.3 1.02-.01.278.256.54.531.808.8.268.268.533.538.903.913.24-.289 3.22-3.292 4.484-4.52.095-.092.192-.189.305-.258a.708.708 0 0 1 .887.126.707.707 0 0 1 .05.893c-.046.063-.1.12-.156.174l-5.563 5.413c-.024.023-.052.04-.097.075l-.002-.001Z"/></g></svg>