<svg viewBox="0 0 16 16" fill="none" xmlns="http://www.w3.org/2000/svg"><path fill-rule="evenodd" clip-rule="evenodd" d="M8.82384 1.5C8.69081 1.5 8.56327 1.55301 8.46943 1.64731L1.64559 8.50442C1.4511 8.69986 1.45153 9.01585 1.64654 9.21077L6.7931 14.3545C6.98586 14.5471 7.29741 14.5499 7.49361 14.3608L14.3471 7.75265C14.4448 7.65841 14.5 7.52848 14.5 7.39271V2C14.5 1.72386 14.2761 1.5 14 1.5H8.82384ZM2.70635 8.85616L9.03166 2.5H13.5V7.18025L7.15284 13.3002L2.70635 8.85616ZM11.4743 3.48773C10.922 3.48773 10.4744 3.93548 10.4744 4.48773C10.4744 5.03998 10.922 5.48773 11.4743 5.48773C12.0266 5.48773 12.4743 5.03998 12.4743 4.48773C12.4743 3.93548 12.0266 3.48773 11.4743 3.48773Z" fill="#4F5162"/><circle cx="11" cy="11" r="4.0625" fill="white"/><path fill-rule="evenodd" clip-rule="evenodd" d="M6.9375 11C6.9375 13.2437 8.75634 15.0625 11 15.0625C13.2437 15.0625 15.0625 13.2437 15.0625 11C15.0625 8.75634 13.2437 6.9375 11 6.9375C8.75634 6.9375 6.9375 8.75634 6.9375 11ZM13.2956 9.5846C13.4101 9.71372 13.3983 9.91123 13.2691 10.0258L10.9191 12.1102L10.7001 12.3044L10.492 12.0987L9.27047 10.891C9.14773 10.7697 9.1466 10.5718 9.26794 10.4491C9.38928 10.3263 9.58714 10.3252 9.70988 10.4465L10.7233 11.4485L12.8544 9.55818C12.9835 9.44366 13.181 9.45548 13.2956 9.5846Z" fill="#299B2C"/></svg>
