<svg xmlns="http://www.w3.org/2000/svg" fill="none" viewBox="0 0 18 18"><mask id="a" x=".5" y=".5" maskUnits="userSpaceOnUse"><path fill="#fff" d="M.5.5h17v17H.5z"/><path fill-rule="evenodd" d="M2.5 9a6.5 6.5 0 1 0 13 0 6.5 6.5 0 0 0-13 0Zm10.173-2.265a.5.5 0 0 1-.042.706l-3.76 3.335-.35.311-.334-.33-1.954-1.931a.5.5 0 1 1 .703-.712l1.621 1.604 3.41-3.025a.5.5 0 0 1 .706.042Z" clip-rule="evenodd"/></mask><path fill="#1E5C1F" fill-rule="evenodd" d="M2.5 9a6.5 6.5 0 1 0 13 0 6.5 6.5 0 0 0-13 0Zm10.173-2.265a.5.5 0 0 1-.042.706l-3.76 3.335-.35.311-.334-.33-1.954-1.931a.5.5 0 1 1 .703-.712l1.621 1.604 3.41-3.025a.5.5 0 0 1 .706.042Z" clip-rule="evenodd"/><path fill="#D8F3D4" d="m12.63 7.441-1.327-1.496 1.328 1.496Zm.043-.706 1.496-1.327-1.496 1.327ZM8.87 10.776 7.543 9.28l1.328 1.496Zm-.35.311L7.113 12.51l1.332 1.317 1.401-1.243-1.327-1.496Zm-.334-.33L6.781 12.18l1.406-1.422ZM6.233 8.827l1.406-1.423-1.406 1.423Zm-.004-.707L7.65 9.525 6.229 8.119Zm.707-.005 1.406-1.422-1.406 1.422Zm1.621 1.604L7.151 11.14l1.332 1.317 1.401-1.243-1.327-1.496Zm3.41-3.025L10.64 5.197l1.327 1.496ZM9 13.5A4.5 4.5 0 0 1 4.5 9h-4A8.5 8.5 0 0 0 9 17.5v-4ZM13.5 9A4.5 4.5 0 0 1 9 13.5v4A8.5 8.5 0 0 0 17.5 9h-4ZM9 4.5A4.5 4.5 0 0 1 13.5 9h4A8.5 8.5 0 0 0 9 .5v4ZM4.5 9A4.5 4.5 0 0 1 9 4.5v-4A8.5 8.5 0 0 0 .5 9h4Zm9.458-.063a2.5 2.5 0 0 0 .211-3.529l-2.992 2.654a1.5 1.5 0 0 1 .127-2.117l2.654 2.992Zm-3.76 3.336 3.76-3.336-2.655-2.992-3.76 3.335 2.655 2.993Zm-.35.31.35-.31L7.543 9.28l-.35.31 2.654 2.993ZM6.78 12.18l.333.33 2.812-2.845-.333-.33-2.812 2.845Zm-1.954-1.932L6.78 12.18l2.812-2.844L7.64 7.403l-2.812 2.845Zm-.02-3.536a2.5 2.5 0 0 0 .02 3.536l2.812-2.845a1.5 1.5 0 0 1 .012 2.122L4.806 6.712Zm3.535-.02a2.5 2.5 0 0 0-3.536.02l2.845 2.813a1.5 1.5 0 0 1-2.121.012l2.812-2.845Zm1.621 1.603L8.342 6.692 5.53 9.537 7.15 11.14l2.812-2.845Zm.677-3.098L7.23 8.22l2.654 2.993 3.41-3.025-2.654-2.992Zm3.53.211a2.5 2.5 0 0 0-3.53-.211l2.654 2.992a1.5 1.5 0 0 1-2.117-.127l2.992-2.654Z" mask="url(#a)"/><circle cx="9.5" cy="8.5" r="4.5" fill="#fff"/><path fill="#1E5C1F" fill-rule="evenodd" d="M2.5 9a6.5 6.5 0 1 0 13 0 6.5 6.5 0 0 0-13 0Zm10.173-2.265a.5.5 0 0 1-.042.706l-3.76 3.335-.35.311-.334-.33-1.954-1.931a.5.5 0 1 1 .703-.712l1.621 1.604 3.41-3.025a.5.5 0 0 1 .706.042Z" clip-rule="evenodd"/></svg>