<svg enable-background="new 0 0 60 60" viewBox="0 0 60 60" xmlns="http://www.w3.org/2000/svg"><circle cx="30" cy="30" fill="#d4ecfc" r="30"/><path d="m7.2 4.8c0-.7-.5-1.2-1.2-1.2-.3 0-.6.1-.9.3l-4.8 4.8c-.2.2-.3.5-.3.8s.1.6.3.8l4.8 4.8c.2.2.5.3.9.3.7 0 1.2-.5 1.2-1.2 0-.3-.1-.6-.3-.8l-4-3.9 3.9-3.9c.3-.2.4-.5.4-.8zm7.2-4.8c-.6 0-1 .4-1.1.9l-4.8 16.6c0 .1-.1.2-.1.3 0 .7.5 1.2 1.2 1.2.6 0 1-.4 1.1-.9l4.8-16.6c0-.1.1-.2.1-.3 0-.7-.5-1.2-1.2-1.2zm9.3 8.7-4.8-4.8c-.2-.2-.5-.3-.9-.3-.7 0-1.2.5-1.2 1.2 0 .3.1.6.3.8l4 3.9-3.9 3.9c-.2.2-.4.5-.4.8 0 .7.5 1.2 1.2 1.2.3 0 .6-.1.9-.3l4.8-4.8c.2-.2.3-.5.3-.8s-.1-.6-.3-.8z" fill="#25a6f7" transform="translate(18 21)"/></svg>