<svg enable-background="new 0 0 60 60" viewBox="0 0 60 60" xmlns="http://www.w3.org/2000/svg"><circle cx="30" cy="30" fill="#d4ecfc" r="30"/><path d="m18.7 21.4c-.6 2.4-7.1 2.6-6.6-.6.3-2.2.7-4.3 1.1-6.4.2-1.4-.7-.9-1.5-1.2-.5-.3-.5-.9.1-1 .8-.2 3.6-.1 4.6-.1.5 0 .8.3.8.7.1.5 0 .9-.1 1.3-.4 2.1-.9 4.3-1.1 6.3-.1.5 0 1.3.6 1.3.6-.1.9-.4 1.5-.5.4-.4.6-.1.6.2zm-3.2-14.7c1.3 0 2.2 1 2.2 2.2 0 1.3-1 2.3-2.2 2.2-1.2 0-2.2-1-2.2-2.2s1-2.2 2.2-2.2zm-.5-4.4c-7 0-12.7 5.7-12.7 12.7s5.7 12.6 12.7 12.6 12.6-5.6 12.6-12.6-5.6-12.7-12.6-12.7zm0-2.3c8.3 0 15 6.7 15 15s-6.7 15-15 15-15-6.7-15-15 6.7-15 15-15z" fill="#25a6f7" transform="translate(15 15)"/></svg>