<svg enable-background="new 0 0 60 60" viewBox="0 0 60 60" xmlns="http://www.w3.org/2000/svg"><circle cx="30" cy="30" fill="#d4ecfc" r="30"/><path d="m22.8 9.6h-2.8c-.1-.6-.4-1.1-.6-1.6l2-2c.5-.5.5-1.2 0-1.7l-1.7-1.7c-.5-.5-1.2-.5-1.7 0l-2 2c-.5-.3-1-.5-1.6-.7v-2.7c0-.7-.5-1.2-1.2-1.2h-2.4c-.7 0-1.2.5-1.2 1.2v2.8c-.6.2-1.1.4-1.6.7l-2-2c-.4-.4-1.2-.4-1.6 0l-1.7 1.7c-.4.4-.4 1.2 0 1.6l1.9 1.9c-.2.6-.4 1.1-.6 1.7h-2.8c-.7 0-1.2.5-1.2 1.2v2.4c0 .7.5 1.2 1.2 1.2h2.8c.1.6.4 1.1.6 1.6l-2 2c-.5.5-.5 1.2 0 1.7l1.7 1.7c.5.5 1.2.5 1.7 0l2-2c.5.3 1 .5 1.6.7v2.8c0 .7.5 1.2 1.2 1.2h2.4c.7 0 1.2-.5 1.2-1.2v-2.9c.6-.2 1.1-.4 1.6-.7l2 2c.4.4 1.2.4 1.6 0l1.6-1.6c.4-.4.4-1.2 0-1.6l-1.9-1.9c.3-.5.5-1.1.7-1.7h2.8c.7 0 1.2-.5 1.2-1.2v-2.4c0-.8-.5-1.3-1.2-1.3zm-10.8 7.2c-2.7 0-4.8-2.1-4.8-4.8s2.1-4.8 4.8-4.8 4.8 2.1 4.8 4.8-2.1 4.8-4.8 4.8z" fill="#25a6f7" transform="translate(18 18)"/></svg>