<svg enable-background="new 0 0 60 60" viewBox="0 0 60 60" xmlns="http://www.w3.org/2000/svg"><circle cx="30" cy="30" fill="#d4ecfc" r="30"/><path d="m2.4 14.4v8.4c0 .7.5 1.2 1.2 1.2h6v-8.4h4.8v8.4h6c.7 0 1.2-.5 1.2-1.2v-8.4l-9.6-9.6zm21.3-3.3-3.3-3.2v-4.3c0-.7-.5-1.2-1.2-1.2s-1.2.5-1.2 1.2v1.9l-5.1-5.1c-.3-.3-.6-.4-.9-.4s-.6.1-.9.3l-10.8 10.8c-.2.3-.3.6-.3.9 0 .7.5 1.2 1.2 1.2.3 0 .6-.1.9-.3l9.9-10 9.9 9.9c.2.2.5.4.9.4.7 0 1.2-.5 1.2-1.2 0-.3-.1-.6-.3-.9z" fill="#25a6f7" transform="translate(18 18)"/></svg>