<svg xmlns="http://www.w3.org/2000/svg" 
fill="none" viewBox="0 0 50 50"><path fill="url(#a)" 
d="M29.266 8.001s8.659 5.038 10.925 13.04c2.042 7.229.406 10.679.406 10.679a12.7 12.7 0 0 1 2.427 3.968A6.947 6.947 0 0 1 43.428 42s-.14-2.948-4.457-3.559c-3.957-.567-5.396 3.353-12.953 3.164a25.34 25.34 0 0 1-11.955-3.27A25.86 25.86 0 0 1 5 29.755c3.692 2.05 8.53 5.231 14.554 4.742 6.023-.489 7.281-2.372 7.281-2.372A94.1 94.1 0 0 1 9.027 13.155c4.735 4.032 16.465 12.058 16.192 11.854a107 107 0 0 1-11.734-13.843s17.6 14.726 19.016 14.632c.582-1.22 3.592-7.538-3.237-17.798z"/>
<defs><linearGradient id="a" x1="25.112" x2="24.35" y1="21.608" y2="42.016" gradientUnits="userSpaceOnUse">
<stop stop-color="#f88535"/><stop offset="1" stop-color="#fd2221"/></linearGradient>
</defs>
</svg>