<svg xmlns="http://www.w3.org/2000/svg" width="24" height="24" viewBox="0 0 40 40">
    <g>
    <path style=" stroke:none;fill-rule:nonzero;fill:rgb(0%,67.058824%,78.039216%);fill-opacity:1;" d="M 28.933594 12.449219 C 29.40625 12.449219 29.835938 12.703125 30.066406 13.109375 L 34.558594 20.886719 C 37.757812 26.429688 36.003906 34.109375 30.476562 38.75 C 30.359375 38.847656 30.226562 38.925781 30.085938 38.976562 C 28.308594 39.625 26.429688 39.957031 24.539062 39.960938 C 19.558594 39.960938 14.914062 37.628906 12.574219 33.582031 L 7.230469 24.324219 C 7.058594 24.023438 7.011719 23.667969 7.101562 23.332031 C 7.191406 23 7.410156 22.714844 7.707031 22.542969 L 11.347656 20.441406 C 11.753906 20.203125 12.253906 20.203125 12.65625 20.433594 C 13.0625 20.667969 13.3125 21.101562 13.3125 21.570312 C 13.3125 22.039062 13.0625 22.46875 12.652344 22.703125 L 10.144531 24.148438 L 14.835938 32.273438 C 17.378906 36.679688 23.425781 38.515625 28.972656 36.601562 C 33.40625 32.753906 34.839844 26.597656 32.296875 22.195312 L 27.804688 14.417969 C 27.570312 14.011719 27.566406 13.511719 27.800781 13.105469 C 28.03125 12.699219 28.464844 12.449219 28.933594 12.449219 Z M 15.214844 24.636719 C 15.230469 24.664062 16.054688 26.132812 16.839844 27.527344 L 16.914062 27.65625 C 17.332031 28.390625 17.730469 29.089844 17.980469 29.527344 C 19.820312 32.714844 23.1875 33.929688 26.992188 32.78125 C 27.679688 32.574219 28.410156 32.964844 28.617188 33.652344 C 28.828125 34.34375 28.4375 35.074219 27.746094 35.28125 C 26.613281 35.628906 25.4375 35.8125 24.253906 35.816406 C 20.707031 35.855469 17.429688 33.941406 15.71875 30.835938 C 15.464844 30.390625 15.070312 29.699219 14.660156 28.976562 L 14.585938 28.847656 L 14.515625 28.71875 L 14.441406 28.589844 C 14.417969 28.546875 14.394531 28.503906 14.367188 28.460938 L 14.296875 28.332031 C 13.617188 27.128906 12.988281 26.003906 12.933594 25.90625 C 12.582031 25.277344 12.808594 24.480469 13.4375 24.132812 C 14.066406 23.78125 14.863281 24.007812 15.214844 24.636719 Z M 6.28125 0.644531 L 21.707031 27.367188 C 22.128906 28.09375 23.320312 29.34375 24.824219 28.859375 C 25.507812 28.640625 26.246094 29.015625 26.464844 29.703125 C 26.6875 30.390625 26.308594 31.125 25.625 31.347656 C 25.144531 31.503906 24.648438 31.582031 24.144531 31.582031 C 22.082031 31.582031 20.335938 30.210938 19.445312 28.671875 L 4.019531 1.949219 C 3.664062 1.328125 3.878906 0.535156 4.5 0.175781 C 5.121094 -0.183594 5.917969 0.0273438 6.28125 0.644531 Z M 17.605469 8.335938 L 21.28125 14.703125 L 23.621094 13.355469 C 24.246094 13 25.039062 13.214844 25.398438 13.835938 C 25.757812 14.457031 25.546875 15.253906 24.925781 15.617188 L 21.457031 17.617188 C 21.273438 17.726562 21.0625 17.785156 20.851562 17.792969 L 20.761719 17.792969 C 20.3125 17.777344 19.898438 17.53125 19.671875 17.140625 L 15.34375 9.640625 C 14.992188 9.019531 15.207031 8.226562 15.828125 7.867188 C 16.449219 7.507812 17.242188 7.71875 17.605469 8.335938 Z M 17.605469 8.335938 "/>
    </g>
</svg>
