<svg viewBox="0 0 16 16" fill="none" xmlns="http://www.w3.org/2000/svg"><path fill-rule="evenodd" clip-rule="evenodd" d="M8.82384 1.49963C8.69081 1.49963 8.56327 1.55265 8.46943 1.64694L1.64559 8.50406C1.4511 8.69949 1.45153 9.01549 1.64654 9.2104L6.7931 14.3541C6.98586 14.5468 7.29741 14.5496 7.49361 14.3604L14.3471 7.75228C14.4448 7.65805 14.5 7.52811 14.5 7.39235V1.99963C14.5 1.72349 14.2761 1.49963 14 1.49963H8.82384ZM2.70635 8.85579L9.03166 2.49963H13.5V7.17988L7.15284 13.2998L2.70635 8.85579ZM11.4743 3.48737C10.922 3.48737 10.4744 3.93511 10.4744 4.48737C10.4744 5.03962 10.922 5.48737 11.4743 5.48737C12.0266 5.48737 12.4743 5.03962 12.4743 4.48737C12.4743 3.93511 12.0266 3.48737 11.4743 3.48737Z" fill="currentColor"/></svg>
