<svg viewBox="0 0 34 33" xmlns="http://www.w3.org/2000/svg"><path fill-rule="evenodd" clip-rule="evenodd" d="M5.133 4.83a1 1 0 0 1 1-1h21.619a1 1 0 0 1 1 1v13.672a.5.5 0 1 1-1 0V4.83H6.132v18h14.83a.5.5 0 1 1 0 1H6.132a1 1 0 0 1-1-1v-18Zm4.646 4.555a.5.5 0 0 1 .684-.18l5.978 3.495a.5.5 0 0 1-.002.864l-5.977 3.471a.5.5 0 0 1-.502-.864l5.235-3.04-5.236-3.062a.5.5 0 0 1-.18-.684Zm9.319 6.718a.5.5 0 1 0 0 1h5.428a.5.5 0 1 0 0-1h-5.428Z" fill="#0278D5"/><path d="M29.514 30.764h-3.41a.437.437 0 0 1-.346-.166l-2.165-2.709a.443.443 0 0 1-.084-.384l.824-3.316a.451.451 0 0 1 .233-.29l3.052-1.53a.445.445 0 0 1 .395 0l3.09 1.531a.435.435 0 0 1 .235.294l.787 3.317a.441.441 0 0 1-.086.373l-2.18 2.716a.443.443 0 0 1-.345.164Zm-3.41-.456h3.403l2.17-2.7-.782-3.304-3.078-1.524-3.04 1.524-.823 3.306 2.15 2.698Z" fill="#238FCF"/><path d="m31.734 23.289.387-.319-4.078-2.02v.511l3.691 1.828Z" fill="#1BBFD3"/><path d="m22.788 28.035-.497.11 2.845 3.57.224-.453-2.572-3.227Z" fill="#79BF43"/><path d="M27.585 21.463v-.51l-4.024 2.018.376.324 3.648-1.832Z" fill="#1BBFD3"/><path d="m23.665 23.663-.387-.333-1.087 4.367.5-.11.974-3.924ZM32.943 27.59l.498.109-1.034-4.37-.395.325.931 3.935Z" fill="#1D4489"/><path d="m32.841 28.035-2.599 3.232.222.453 2.875-3.575-.498-.11Z" fill="#79BF43"/><path d="m25.77 31.46-.223.458h4.503l-.223-.459H25.77Z" fill="#1BBFD3"/></svg>