<svg viewBox="0 0 34 33" fill="none" xmlns="http://www.w3.org/2000/svg">
<path d="M20.9247 23.9949H6.0957C5.81956 23.9949 5.5957 23.771 5.5957 23.4949V5.49487C5.5957 5.21873 5.81956 4.99487 6.0957 4.99487H16.9052H27.7147C27.9909 4.99487 28.2148 5.21873 28.2148 5.49487V14.4949V19.1668" stroke="#0278D5" stroke-linecap="round"/>
<path d="M10.1758 10.302L16.1532 13.7965L10.1758 17.268" stroke="#0278D5" stroke-linecap="round" stroke-linejoin="round"/>
<path d="M19.0605 17.2678H24.4891" stroke="#0278D5" stroke-linecap="round" stroke-linejoin="round"/>
<path d="M29.4772 31.4291H26.0675C26.001 31.4296 25.9352 31.4149 25.8751 31.3862C25.8151 31.3575 25.7623 31.3154 25.721 31.2632L23.5559 28.5542C23.5134 28.5009 23.4837 28.4386 23.4692 28.372C23.4547 28.3055 23.4557 28.2365 23.4721 28.1703L24.2956 24.8538C24.3115 24.7916 24.3405 24.7335 24.3807 24.6833C24.4208 24.6332 24.4713 24.5922 24.5285 24.5632L27.5805 23.0335C27.6419 23.0031 27.7094 22.9873 27.778 22.9873C27.8465 22.9873 27.9141 23.0031 27.9755 23.0335L31.0665 24.565C31.1251 24.5935 31.1767 24.6346 31.2173 24.6856C31.2579 24.7365 31.2866 24.7959 31.3013 24.8594L32.0875 28.1759C32.102 28.2405 32.1017 28.3075 32.0869 28.372C32.0721 28.4364 32.043 28.4968 32.0018 28.5486L29.8219 31.2651C29.7804 31.3165 29.7278 31.3579 29.6682 31.3863C29.6085 31.4146 29.5433 31.4293 29.4772 31.4291ZM26.0675 30.9726H29.4697L31.6404 28.2728L30.8578 24.9694L27.7798 23.4453L24.7391 24.9694L23.9174 28.2747L26.0675 30.9726Z" fill="#238FCF"/>
<path d="M31.6969 23.954L32.0844 23.6354L28.0059 21.6157V22.1262L31.6969 23.954Z" fill="#1BBFD3"/>
<path d="M22.7514 28.6997L22.2539 28.8096L25.099 32.3795L25.3226 31.9268L22.7514 28.6997Z" fill="#79BF43"/>
<path d="M27.5479 22.1282V21.6177L23.5234 23.6355L23.8998 23.9597L27.5479 22.1282Z" fill="#1BBFD3"/>
<path d="M23.6281 24.3284L23.2405 23.9949L22.1543 28.3622L22.6536 28.2523L23.6281 24.3284Z" fill="#1D4489"/>
<path d="M32.9062 28.2541L33.4037 28.3641L32.3696 23.9949L31.9746 24.3191L32.9062 28.2541Z" fill="#1D4489"/>
<path d="M32.8042 28.6997L30.2051 31.9324L30.4268 32.3851L33.3017 28.8096L32.8042 28.6997Z" fill="#79BF43"/>
<path d="M25.7333 32.1243L25.5098 32.5826H30.0131L29.7895 32.1243H25.7333Z" fill="#1BBFD3"/>
</svg>
