<svg viewBox="0 0 34 33" xmlns="http://www.w3.org/2000/svg"><path clip-rule="evenodd" d="m5.133 4.83a1 1 0 0 1 1-1h21.619a1 1 0 0 1 1 1v13.672a.5.5 0 1 1 -1 0v-13.672h-21.62v18h14.83a.5.5 0 1 1 0 1h-14.83a1 1 0 0 1 -1-1v-18zm4.646 4.555a.5.5 0 0 1 .684-.18l5.978 3.495a.5.5 0 0 1 -.002.864l-5.977 3.471a.5.5 0 0 1 -.502-.864l5.235-3.04-5.236-3.062a.5.5 0 0 1 -.18-.684zm9.319 6.718a.5.5 0 1 0 0 1h5.428a.5.5 0 1 0 0-1z" fill="#0278d5" fill-rule="evenodd"/><path d="m29.514 30.764h-3.41a.437.437 0 0 1 -.346-.166l-2.165-2.709a.443.443 0 0 1 -.084-.384l.824-3.316a.451.451 0 0 1 .233-.29l3.052-1.53a.445.445 0 0 1 .395 0l3.09 1.531a.435.435 0 0 1 .235.294l.787 3.317a.441.441 0 0 1 -.086.373l-2.18 2.716a.443.443 0 0 1 -.345.164zm-3.41-.456h3.403l2.17-2.7-.782-3.304-3.078-1.524-3.04 1.524-.823 3.306z" fill="#238fcf"/><path d="m31.734 23.289.387-.319-4.078-2.02v.511z" fill="#1bbfd3"/><path d="m22.788 28.035-.497.11 2.845 3.57.224-.453z" fill="#79bf43"/><path d="m27.585 21.463v-.51l-4.024 2.018.376.324z" fill="#1bbfd3"/><path d="m23.665 23.663-.387-.333-1.087 4.367.5-.11zm9.278 3.927.498.109-1.034-4.37-.395.325.931 3.935z" fill="#1d4489"/><path d="m32.841 28.035-2.599 3.232.222.453 2.875-3.575z" fill="#79bf43"/><path d="m25.77 31.46-.223.458h4.503l-.223-.459h-4.057z" fill="#1bbfd3"/></svg>