<svg viewBox="0 0 33 33" xmlns="http://www.w3.org/2000/svg"><path clip-rule="evenodd" d="m14.586 12.9a.5.5 0 0 0 0 1h4.714a.5.5 0 1 0 0-1zm0 2.993a.5.5 0 0 0 0 1h4.714a.5.5 0 1 0 0-1z" fill="#0278d5" fill-rule="evenodd" opacity=".3"/><path clip-rule="evenodd" d="m16.941 3.083c-.343 0-.684.013-1.021.039a.5.5 0 0 1 -.078-.997c.363-.028.73-.042 1.1-.042h.001c7.5 0 13.622 5.899 13.982 13.31a14.2 14.2 0 0 1 -.295 3.64.5.5 0 1 1 -.978-.21 13.055 13.055 0 0 0 .267-3.51 12.972 12.972 0 0 0 -4.739-9.287 12.943 12.943 0 0 0 -8.239-2.943zm-2.666-.247a.5.5 0 0 1 -.37.603c-.668.16-1.316.371-1.94.63a.5.5 0 0 1 -.383-.924c.672-.279 1.37-.506 2.09-.679a.5.5 0 0 1 .603.37zm-3.962 1.472a.5.5 0 0 1 -.165.688c-.581.357-1.133.76-1.65 1.2a.5.5 0 1 1 -.65-.76c.557-.475 1.15-.907 1.777-1.292a.5.5 0 0 1 .688.164zm-3.313 2.627a.5.5 0 0 1 .055.705 13.044 13.044 0 0 0 -1.2 1.65.5.5 0 1 1 -.853-.524c.385-.626.817-1.22 1.293-1.776a.5.5 0 0 1 .705-.055zm-2.344 3.518a.5.5 0 0 1 .27.653c-.258.624-.47 1.272-.63 1.94a.5.5 0 1 1 -.972-.233c.173-.72.4-1.418.679-2.09a.5.5 0 0 1 .653-.27zm-1.136 4.07a.5.5 0 0 1 .46.538 13.186 13.186 0 0 0 -.03 1.533 12.942 12.942 0 0 0 3.105 7.931 12.972 12.972 0 0 0 9.885 4.558c.624 0 1.238-.044 1.838-.13a.5.5 0 1 1 .14.99 14.112 14.112 0 0 1 -2.772.117c-7.361-.41-13.205-6.512-13.205-13.977 0-.37.015-.737.043-1.1a.5.5 0 0 1 .537-.46zm7.422-6.2a.5.5 0 0 1 .5-.5h8.641a.5.5 0 0 1 .403.202l2.357 3.19a.5.5 0 0 1 .097.297v10.81a.5.5 0 0 1 -.5.5h-11a.5.5 0 0 1 -.5-.5l.002-14zm1 .5-.002 13h10v-10.147l-2.109-2.855h-7.89z" fill="#0278d5" fill-rule="evenodd"/><path d="m29.014 30.93h-3.41a.439.439 0 0 1 -.346-.167l-2.165-2.709a.444.444 0 0 1 -.084-.384l.824-3.316a.452.452 0 0 1 .233-.29l3.052-1.53a.445.445 0 0 1 .395 0l3.09 1.531a.436.436 0 0 1 .235.294l.787 3.317a.442.442 0 0 1 -.086.373l-2.18 2.716a.442.442 0 0 1 -.345.164zm-3.41-.457h3.403l2.17-2.7-.782-3.304-3.078-1.524-3.04 1.524-.823 3.306z" fill="#238fcf"/><path d="m31.234 23.454.387-.319-4.078-2.02v.511z" fill="#1bbfd3"/><path d="m22.288 28.2-.497.11 2.845 3.57.224-.453z" fill="#79bf43"/><path d="m27.085 21.628v-.51l-4.024 2.018.376.324z" fill="#1bbfd3"/><path d="m23.165 23.828-.387-.333-1.087 4.367.5-.11zm9.278 3.926.498.11-1.034-4.37-.395.325z" fill="#1d4489"/><path d="m32.341 28.2-2.599 3.232.222.453 2.875-3.575z" fill="#79bf43"/><path d="m25.27 31.624-.223.459h4.503l-.223-.459z" fill="#1bbfd3"/></svg>