<svg viewBox="0 0 32 32" fill="currentColor" xmlns="http://www.w3.org/2000/svg">
<path fill-rule="evenodd" clip-rule="evenodd" d="M12 12.0267C11.7239 12.0267 11.5 12.2506 11.5 12.5267C11.5 12.8029 11.7239 13.0267 12 13.0267H20C20.2761 13.0267 20.5 12.8029 20.5 12.5267C20.5 12.2506 20.2761 12.0267 20 12.0267H12ZM12 16.025C11.7239 16.025 11.5 16.2489 11.5 16.525C11.5 16.8012 11.7239 17.025 12 17.025H20C20.2761 17.025 20.5 16.8012 20.5 16.525C20.5 16.2489 20.2761 16.025 20 16.025H12Z" fill="#B3D7F2"/>
<path fill-rule="evenodd" clip-rule="evenodd" d="M6.5 2.98067C6.22386 2.98067 6 3.20441 6 3.4804V18.7214C6 18.9974 6.22386 19.2211 6.5 19.2211C6.77614 19.2211 7 18.9974 7 18.7214V3.98014H21.1811L25 8.98273V26.9812H22.595C22.3188 26.9812 22.095 27.2049 22.095 27.4809C22.095 27.7569 22.3188 27.9807 22.595 27.9807H25.5C25.7761 27.9807 26 27.7569 26 27.4809V8.81385C26 8.70432 25.964 8.59781 25.8975 8.51072L21.8261 3.17727C21.7315 3.05337 21.5845 2.98067 21.4286 2.98067H6.5ZM19.4905 23.1609C19.6615 23.2894 19.7583 23.4696 19.7808 23.7016H20.9504C20.9448 23.3507 20.8527 23.042 20.6742 22.7756C20.4957 22.5091 20.2458 22.3011 19.9246 22.1515C19.6052 22.002 19.2313 21.9272 18.8029 21.9272C18.382 21.9272 18.0063 22.002 17.6756 22.1515C17.3449 22.3011 17.0847 22.5091 16.895 22.7756C16.7071 23.042 16.6141 23.3536 16.616 23.7102C16.6141 24.1454 16.7541 24.4914 17.0359 24.7483C17.3177 25.0052 17.7019 25.1941 18.1885 25.3148L18.817 25.4759C19.0274 25.5277 19.205 25.5852 19.3496 25.6484C19.4962 25.7117 19.607 25.7884 19.6822 25.8785C19.7592 25.9686 19.7977 26.0798 19.7977 26.2121C19.7977 26.354 19.7555 26.4795 19.6709 26.5888C19.5864 26.6981 19.4671 26.7834 19.313 26.8447C19.1608 26.9061 18.9814 26.9368 18.7747 26.9368C18.5643 26.9368 18.3755 26.9042 18.2083 26.839C18.0429 26.7719 17.9105 26.6732 17.8109 26.5428C17.7132 26.4105 17.6578 26.2456 17.6446 26.0482H16.4638C16.4732 26.4719 16.5737 26.8275 16.7653 27.1151C16.9588 27.4007 17.2275 27.6164 17.5713 27.7621C17.917 27.9078 18.3229 27.9807 18.7888 27.9807C19.2585 27.9807 19.6596 27.9088 19.9922 27.765C20.3266 27.6193 20.5821 27.4151 20.7587 27.1525C20.9372 26.8879 21.0274 26.5754 21.0293 26.215C21.0274 25.9696 20.9833 25.752 20.8968 25.5622C20.8123 25.3724 20.693 25.2075 20.5389 25.0675C20.3849 24.9276 20.2026 24.8097 19.9922 24.7138C19.7818 24.618 19.5507 24.5413 19.2989 24.4838L18.7804 24.3572C18.6545 24.3285 18.5361 24.294 18.4253 24.2537C18.3144 24.2115 18.2167 24.1626 18.1322 24.107C18.0476 24.0495 17.9809 23.9815 17.9321 23.9029C17.8851 23.8243 17.8635 23.7322 17.8672 23.6268C17.8672 23.5002 17.9029 23.3871 17.9743 23.2874C18.0476 23.1878 18.1528 23.1101 18.29 23.0545C18.4271 22.997 18.5953 22.9682 18.7944 22.9682C19.0875 22.9682 19.3196 23.0325 19.4905 23.1609ZM6.0293 23.0344V22.0077H10.7696V23.0344H9.00252V27.9807H7.79632V23.0344H6.0293ZM11.8398 27.9807H10.5321L12.5246 22.0077H14.0972L16.0868 27.9807H14.7792L14.3335 26.5543H12.2863L11.8398 27.9807ZM13.3334 23.3536L14.0298 25.5823H12.5906L13.2883 23.3536H13.3334Z" fill="#0278D5"/>
</svg>
