<svg viewBox="0 0 34 32" xmlns="http://www.w3.org/2000/svg"><path fill-rule="evenodd" clip-rule="evenodd" d="M15.92 3.04a13.186 13.186 0 0 1 1.53-.03 12.942 12.942 0 0 1 7.934 3.104A12.972 12.972 0 0 1 29.941 16c0 .94-.1 1.856-.288 2.738a.5.5 0 1 0 .978.21 14.057 14.057 0 0 0 .288-3.742C30.508 7.843 24.407 2 16.941 2c-.37 0-.736.014-1.099.043a.5.5 0 1 0 .078.997Zm-2.015.316a.5.5 0 0 0-.233-.972c-.72.172-1.418.4-2.09.679a.5.5 0 0 0 .383.923c.624-.258 1.272-.47 1.94-.63Zm-3.756 1.558a.5.5 0 0 0-.524-.852c-.626.384-1.22.817-1.776 1.292a.5.5 0 1 0 .65.76 13.044 13.044 0 0 1 1.65-1.2ZM7.056 7.557a.5.5 0 1 0-.76-.65c-.476.557-.908 1.15-1.293 1.777a.5.5 0 1 0 .852.523c.357-.582.76-1.133 1.2-1.65Zm-2.128 3.467a.5.5 0 0 0-.924-.383c-.279.672-.506 1.37-.679 2.09a.5.5 0 0 0 .973.232c.16-.668.371-1.316.63-1.94Zm-.947 3.955a.5.5 0 1 0-.997-.078c-.028.363-.043.73-.043 1.099 0 7.5 5.9 13.624 13.311 13.983a14.2 14.2 0 0 0 3.693-.306.5.5 0 1 0-.214-.977 13.05 13.05 0 0 1-3.558.278 12.972 12.972 0 0 1-9.281-4.73A12.943 12.943 0 0 1 3.942 16c0-.344.013-.684.039-1.021Zm7.773-7.668a.5.5 0 0 1 .5-.5h8.787a.5.5 0 0 1 .4.199l2.395 3.185a.5.5 0 0 1 .1.3v10.793a.5.5 0 0 1-.5.5H21.12v2.523a.5.5 0 0 1-.5.5H9.438a.5.5 0 0 1-.5-.5V10.332a.5.5 0 0 1 .5-.5h2.316V7.31Zm1 2.522h5.471a.5.5 0 0 1 .4.2l2.396 3.184a.5.5 0 0 1 .1.3v7.271h1.815V10.662l-2.145-2.851h-8.037v2.022ZM9.938 23.81V10.833h8.038l2.146 2.852-.001 10.125H9.938Z" fill="#0278D5"/><path opacity=".3" fill-rule="evenodd" clip-rule="evenodd" d="M12.635 14.902a.5.5 0 1 0 0 1h4.792a.5.5 0 0 0 0-1h-4.792Zm0 2.99a.5.5 0 1 0 0 1h4.792a.5.5 0 1 0 0-1h-4.792Z" fill="#0278D5"/><path d="M29.286 30.681h-3.41a.438.438 0 0 1-.346-.165l-2.166-2.71a.443.443 0 0 1-.083-.383l.823-3.317a.45.45 0 0 1 .233-.29l3.052-1.53a.446.446 0 0 1 .395 0l3.091 1.531a.436.436 0 0 1 .235.295l.786 3.316a.443.443 0 0 1-.086.373l-2.18 2.717a.443.443 0 0 1-.344.163Zm-3.41-.456h3.402l2.171-2.7-.783-3.303-3.078-1.524-3.04 1.524-.822 3.305 2.15 2.698Z" fill="#238FCF"/><path d="m31.506 23.206.387-.318-4.079-2.02v.51l3.692 1.828Z" fill="#1BBFD3"/><path d="m22.56 27.952-.497.11 2.845 3.57.223-.453-2.571-3.227Z" fill="#79BF43"/><path d="M27.357 21.38v-.51l-4.025 2.018.376.324 3.649-1.831Z" fill="#1BBFD3"/><path d="m23.437 23.58-.388-.333-1.086 4.368.5-.11.974-3.924ZM32.715 27.507l.497.11-1.034-4.37-.395.325.932 3.935Z" fill="#1D4489"/><path d="m32.613 27.952-2.6 3.233.222.453 2.875-3.576-.497-.11Z" fill="#79BF43"/><path d="m25.542 31.377-.224.458h4.504l-.224-.458h-4.056Z" fill="#1BBFD3"/></svg>