<svg viewBox="0 0 34 32" xmlns="http://www.w3.org/2000/svg"><path clip-rule="evenodd" d="m15.92 3.04a13.186 13.186 0 0 1 1.53-.03 12.942 12.942 0 0 1 7.934 3.104 12.972 12.972 0 0 1 4.557 9.886c0 .94-.1 1.856-.288 2.738a.5.5 0 1 0 .978.21 14.057 14.057 0 0 0 .288-3.742c-.411-7.363-6.512-13.206-13.978-13.206-.37 0-.736.014-1.099.043a.5.5 0 1 0 .078.997zm-2.015.316a.5.5 0 0 0 -.233-.972c-.72.172-1.418.4-2.09.679a.5.5 0 0 0 .383.923c.624-.258 1.272-.47 1.94-.63zm-3.756 1.558a.5.5 0 0 0 -.524-.852c-.626.384-1.22.817-1.776 1.292a.5.5 0 1 0 .65.76 13.044 13.044 0 0 1 1.65-1.2zm-3.093 2.643a.5.5 0 1 0 -.76-.65c-.476.557-.908 1.15-1.293 1.777a.5.5 0 1 0 .852.523c.357-.582.76-1.133 1.2-1.65zm-2.128 3.467a.5.5 0 0 0 -.924-.383c-.279.672-.506 1.37-.679 2.09a.5.5 0 0 0 .973.232c.16-.668.371-1.316.63-1.94zm-.947 3.955a.5.5 0 1 0 -.997-.078c-.028.363-.043.73-.043 1.099 0 7.5 5.9 13.624 13.311 13.983a14.2 14.2 0 0 0 3.693-.306.5.5 0 1 0 -.214-.977 13.05 13.05 0 0 1 -3.558.278 12.972 12.972 0 0 1 -9.281-4.73 12.943 12.943 0 0 1 -2.95-8.248c0-.344.013-.684.039-1.021zm7.773-7.668a.5.5 0 0 1 .5-.5h8.787a.5.5 0 0 1 .4.199l2.395 3.185a.5.5 0 0 1 .1.3v10.793a.5.5 0 0 1 -.5.5h-2.316v2.523a.5.5 0 0 1 -.5.5h-11.182a.5.5 0 0 1 -.5-.5v-13.979a.5.5 0 0 1 .5-.5h2.316v-2.522zm1 2.522h5.471a.5.5 0 0 1 .4.2l2.396 3.184a.5.5 0 0 1 .1.3v7.271h1.815v-10.126l-2.145-2.851h-8.037zm-2.816 13.977v-12.977h8.038l2.146 2.852-.001 10.125z" fill="#0278d5" fill-rule="evenodd"/><path clip-rule="evenodd" d="m12.635 14.902a.5.5 0 1 0 0 1h4.792a.5.5 0 0 0 0-1zm0 2.99a.5.5 0 1 0 0 1h4.792a.5.5 0 1 0 0-1z" fill="#0278d5" fill-rule="evenodd" opacity=".3"/><path d="m29.286 30.681h-3.41a.438.438 0 0 1 -.346-.165l-2.166-2.71a.443.443 0 0 1 -.083-.383l.823-3.317a.45.45 0 0 1 .233-.29l3.052-1.53a.446.446 0 0 1 .395 0l3.091 1.531a.436.436 0 0 1 .235.295l.786 3.316a.443.443 0 0 1 -.086.373l-2.18 2.717a.443.443 0 0 1 -.344.163zm-3.41-.456h3.402l2.171-2.7-.783-3.303-3.078-1.524-3.04 1.524-.822 3.305z" fill="#238fcf"/><path d="m31.506 23.206.387-.318-4.079-2.02v.51z" fill="#1bbfd3"/><path d="m22.56 27.952-.497.11 2.845 3.57.223-.453z" fill="#79bf43"/><path d="m27.357 21.38v-.51l-4.025 2.018.376.324 3.649-1.831z" fill="#1bbfd3"/><path d="m23.437 23.58-.388-.333-1.086 4.368.5-.11.974-3.924zm9.278 3.927.497.11-1.034-4.37-.395.325z" fill="#1d4489"/><path d="m32.613 27.952-2.6 3.233.222.453 2.875-3.576z" fill="#79bf43"/><path d="m25.542 31.377-.224.458h4.504l-.224-.458z" fill="#1bbfd3"/></svg>