<svg viewBox="0 0 33 33" xmlns="http://www.w3.org/2000/svg" xmlns:xlink="http://www.w3.org/1999/xlink"><clipPath id="a"><path d="m0 0h32v32h-32z" transform="translate(.941 .083)"/></clipPath><g clip-path="url(#a)"><path clip-rule="evenodd" d="m17.444 11.743a.5.5 0 1 1 -1 0l-.002-7.416-2.028 2.114a.5.5 0 0 1 -.721-.692l2.867-2.989a.5.5 0 0 1 .767 0l2.865 2.988a.5.5 0 0 1 -.722.692l-2.026-2.113v7.415zm-4.836 5.204a.5.5 0 1 0 0-1l-7.42-.002 2.114-2.026a.5.5 0 0 0 -.692-.722l-2.99 2.865a.5.5 0 0 0 0 .768l2.99 2.863a.5.5 0 0 0 .692-.722l-2.114-2.024zm4.836 3.474a.5.5 0 1 0 -1 0l-.002 7.417-2.028-2.114a.5.5 0 0 0 -.721.692l2.867 2.988a.5.5 0 0 0 .767 0l2.865-2.988a.5.5 0 1 0 -.722-.692l-2.026 2.113v-7.417zm3.332-3.974a.5.5 0 0 0 .5.5h7.42l-2.114 2.024a.5.5 0 0 0 .692.722l2.99-2.863a.499.499 0 0 0 0-.768l-2.99-2.865a.5.5 0 0 0 -.692.722l2.115 2.026-7.42.002a.5.5 0 0 0 -.5.5z" fill="#0278d5" fill-rule="evenodd"/><path d="m29.014 30.93h-3.41a.439.439 0 0 1 -.346-.167l-2.165-2.709a.444.444 0 0 1 -.084-.384l.824-3.316a.452.452 0 0 1 .233-.29l3.052-1.53a.445.445 0 0 1 .395 0l3.09 1.531a.436.436 0 0 1 .235.294l.787 3.317a.442.442 0 0 1 -.086.373l-2.18 2.716a.442.442 0 0 1 -.345.164zm-3.41-.457h3.403l2.17-2.7-.782-3.304-3.078-1.524-3.04 1.524-.823 3.306z" fill="#238fcf"/><path d="m31.234 23.454.387-.319-4.078-2.02v.511z" fill="#1bbfd3"/><path d="m22.288 28.2-.497.11 2.845 3.57.224-.453z" fill="#79bf43"/><path d="m27.085 21.628v-.51l-4.024 2.018.376.324z" fill="#1bbfd3"/><path d="m23.165 23.828-.387-.333-1.087 4.367.5-.11zm9.278 3.926.498.11-1.034-4.37-.395.325z" fill="#1d4489"/><path d="m32.341 28.2-2.599 3.232.222.453 2.875-3.575z" fill="#79bf43"/><path d="m25.27 31.624-.223.459h4.503l-.223-.459z" fill="#1bbfd3"/></g></svg>