<svg viewBox="0 0 33 33" fill="none" xmlns="http://www.w3.org/2000/svg"><g clip-path="url(#a)"><path d="m19.793 26.735-2.889 3.012.002-8.66v8.66l-2.89-3.012M6.918 19.997 3.904 17.11l8.666.002H3.904l3.014-2.889M26.89 19.997l3.015-2.887-8.667.002h8.667l-3.015-2.889M19.793 6.76l-2.889-3.012.002 8.66v-8.66l-2.89 3.012" stroke="#0278D5" stroke-linecap="round" stroke-linejoin="round"/><path d="M29.477 31.594h-3.41a.438.438 0 0 1-.346-.166l-2.165-2.709a.443.443 0 0 1-.084-.384l.824-3.316a.45.45 0 0 1 .233-.29l3.052-1.53a.446.446 0 0 1 .395 0l3.09 1.531a.436.436 0 0 1 .235.294l.787 3.317a.443.443 0 0 1-.086.373l-2.18 2.716a.443.443 0 0 1-.345.164Zm-3.41-.456h3.403l2.17-2.7-.782-3.304-3.078-1.524-3.04 1.524-.823 3.306 2.15 2.698Z" fill="#238FCF"/><path d="m31.697 24.12.387-.32-4.078-2.02v.511l3.69 1.828Z" fill="#1BBFD3"/><path d="m22.751 28.865-.497.11 2.845 3.57.224-.453-2.572-3.227Z" fill="#79BF43"/><path d="M27.548 22.293v-.51L23.523 23.8l.377.324 3.648-1.832Z" fill="#1BBFD3"/><path d="m23.628 24.493-.387-.333-1.087 4.367.5-.11.974-3.924ZM32.906 28.42l.498.11-1.034-4.37-.395.324.931 3.935Z" fill="#1D4489"/><path d="m32.804 28.865-2.599 3.232.222.453 2.875-3.575-.498-.11Z" fill="#79BF43"/><path d="m25.733 32.29-.223.458h4.503l-.224-.459h-4.056Z" fill="#1BBFD3"/></g><defs><clipPath id="a"><path fill="#fff" transform="translate(.904 .748)" d="M0 0h32v32H0z"/></clipPath></defs></svg>