<svg viewBox="0 0 33 33" xmlns="http://www.w3.org/2000/svg"><g clip-path="url(#a)"><path fill-rule="evenodd" clip-rule="evenodd" d="M17.444 11.743a.5.5 0 1 1-1 0l-.002-7.416-2.028 2.114a.5.5 0 0 1-.721-.692L16.56 2.76a.5.5 0 0 1 .767 0l2.865 2.988a.5.5 0 0 1-.722.692l-2.026-2.113v7.415Zm-4.836 5.204a.5.5 0 1 0 0-1l-7.42-.002 2.114-2.026a.5.5 0 0 0-.692-.722l-2.99 2.865a.5.5 0 0 0 0 .768l2.99 2.863a.5.5 0 0 0 .692-.722l-2.114-2.024h7.42Zm4.836 3.474a.5.5 0 1 0-1 0l-.002 7.417-2.028-2.114a.5.5 0 0 0-.721.692l2.867 2.988a.5.5 0 0 0 .767 0l2.865-2.988a.5.5 0 1 0-.722-.692l-2.026 2.113V20.42Zm3.332-3.974a.5.5 0 0 0 .5.5h7.42l-2.114 2.024a.5.5 0 0 0 .692.722l2.99-2.863a.499.499 0 0 0 0-.768l-2.99-2.865a.5.5 0 0 0-.692.722l2.115 2.026-7.42.002a.5.5 0 0 0-.5.5Z" fill="#0278D5"/><path d="M29.014 30.93h-3.41a.439.439 0 0 1-.346-.167l-2.165-2.709a.444.444 0 0 1-.084-.384l.824-3.316a.452.452 0 0 1 .233-.29l3.052-1.53a.445.445 0 0 1 .395 0l3.09 1.531a.436.436 0 0 1 .235.294l.787 3.317a.442.442 0 0 1-.086.373l-2.18 2.716a.442.442 0 0 1-.345.164Zm-3.41-.457h3.403l2.17-2.7-.782-3.304-3.078-1.524-3.04 1.524-.823 3.306 2.15 2.698Z" fill="#238FCF"/><path d="m31.234 23.454.387-.319-4.078-2.02v.511l3.691 1.828Z" fill="#1BBFD3"/><path d="m22.288 28.2-.497.11 2.845 3.57.224-.453-2.572-3.227Z" fill="#79BF43"/><path d="M27.085 21.628v-.51l-4.024 2.018.376.324 3.648-1.832Z" fill="#1BBFD3"/><path d="m23.165 23.828-.387-.333-1.087 4.367.5-.11.974-3.924ZM32.443 27.754l.498.11-1.034-4.37-.395.325.931 3.935Z" fill="#1D4489"/><path d="m32.341 28.2-2.599 3.232.222.453 2.875-3.575-.498-.11Z" fill="#79BF43"/><path d="m25.27 31.624-.223.459h4.503l-.223-.459H25.27Z" fill="#1BBFD3"/></g><defs><clipPath id="a"><path fill="#fff" transform="translate(.941 .083)" d="M0 0h32v32H0z"/></clipPath></defs></svg>