<svg viewBox="0 0 33 32" xmlns="http://www.w3.org/2000/svg"><path clip-rule="evenodd" d="m24.941 20.645a1 1 0 0 0 1-1v-3.007a1 1 0 0 0 -1-1h-3a1 1 0 0 0 -1 1v3.007a1 1 0 0 0 1 1zm-6.994 0a1 1 0 0 0 1-1v-3.007a1 1 0 0 0 -1-1h-3a1 1 0 0 0 -1 1v3.007a1 1 0 0 0 1 1zm6.994-6.99a1 1 0 0 0 1-1v-3.007a1 1 0 0 0 -1-1h-3a1 1 0 0 0 -1 1v3.007a1 1 0 0 0 1 1z" fill="#0278d5" fill-rule="evenodd"/><path clip-rule="evenodd" d="m8.941 3.645a1 1 0 0 0 -1 1v3.007a1 1 0 0 0 1 1h3.001a1 1 0 0 0 1-1v-3.007a1 1 0 0 0 -1-1h-3zm6.994 0a1 1 0 0 0 -1 1v3.007a1 1 0 0 0 1 1h3.001a1 1 0 0 0 1-1v-3.007a1 1 0 0 0 -1-1h-3zm-6.994 6.99a1 1 0 0 0 -1 1v3.006a1 1 0 0 0 1 1h3.001a1 1 0 0 0 1-1v-3.007a1 1 0 0 0 -1-1h-3z" fill="#299b2c" fill-rule="evenodd"/><path d="m29.014 30.847h-3.41a.439.439 0 0 1 -.346-.166l-2.165-2.71a.443.443 0 0 1 -.084-.383l.824-3.317a.452.452 0 0 1 .233-.29l3.052-1.53a.445.445 0 0 1 .395 0l3.09 1.532a.435.435 0 0 1 .235.294l.787 3.316a.441.441 0 0 1 -.086.373l-2.18 2.717a.44.44 0 0 1 -.345.164zm-3.41-.457h3.403l2.17-2.7-.782-3.303-3.078-1.524-3.04 1.524-.823 3.305z" fill="#238fcf"/><path d="m31.234 23.372.387-.32-4.078-2.019v.51z" fill="#1bbfd3"/><path d="m22.288 28.117-.497.11 2.845 3.57.224-.453z" fill="#79bf43"/><path d="m27.085 21.546v-.51l-4.024 2.017.376.324z" fill="#1bbfd3"/><path d="m23.165 23.746-.387-.334-1.087 4.368.5-.11zm9.278 3.926.498.11-1.034-4.37-.395.325z" fill="#1d4489"/><path d="m32.341 28.117-2.599 3.233.222.453 2.875-3.576z" fill="#79bf43"/><path d="m25.27 31.542-.223.458h4.503l-.223-.458z" fill="#1bbfd3"/></svg>