<svg viewBox="0 0 33 32" xmlns="http://www.w3.org/2000/svg"><path fill-rule="evenodd" clip-rule="evenodd" d="M6.628 3.785a.5.5 0 0 1 .683-.183l4.812 2.778a.5.5 0 0 1-.5.866L6.81 4.468a.5.5 0 0 1-.183-.683ZM3.756 6.381a.5.5 0 1 0-.5.866l4.812 2.778a.5.5 0 0 0 .5-.866L3.756 6.38Zm13.595.51a.5.5 0 0 0-.5-.001l-7 4.04a.5.5 0 0 0-.25.433v7.784a.5.5 0 0 0 .248.433l7.329 4.264a.5.5 0 0 0 .502.001l7.032-4.07a.5.5 0 0 0 .25-.433v-7.749a.5.5 0 0 0-.25-.432l-7.36-4.27Zm-6.75 11.969v-6.63l6.38 3.69-.046 6.626L10.6 18.86Zm7.335 3.682.045-6.62 5.98-3.462v6.594l-6.025 3.488Zm-.453-7.488 5.98-3.461L17.1 7.9l-6 3.463 6.383 3.69ZM3.756 12.426a.5.5 0 0 0-.5.866l4.812 2.778a.5.5 0 1 0 .5-.866l-4.812-2.778Z" fill="#0278D5"/><path d="M28.401 30.847h-3.41a.439.439 0 0 1-.346-.166l-2.165-2.71a.444.444 0 0 1-.084-.383l.823-3.317a.45.45 0 0 1 .233-.29l3.052-1.53a.445.445 0 0 1 .395 0l3.091 1.532a.435.435 0 0 1 .235.294l.786 3.316a.443.443 0 0 1-.085.373l-2.18 2.717a.44.44 0 0 1-.345.164Zm-3.41-.457h3.403l2.17-2.7-.782-3.303-3.078-1.524-3.041 1.524-.822 3.305 2.15 2.698Z" fill="#238FCF"/><path d="m30.62 23.372.388-.32-4.078-2.019v.51l3.69 1.829Z" fill="#1BBFD3"/><path d="m21.675 28.117-.497.11 2.845 3.57.223-.453-2.57-3.227Z" fill="#79BF43"/><path d="M26.472 21.546v-.51l-4.025 2.017.377.324 3.648-1.831Z" fill="#1BBFD3"/><path d="m22.552 23.746-.388-.334-1.086 4.368.5-.11.974-3.924ZM31.83 27.672l.498.11-1.035-4.37-.395.325.932 3.935Z" fill="#1D4489"/><path d="m31.728 28.117-2.6 3.233.223.453 2.874-3.576-.497-.11Z" fill="#79BF43"/><path d="m24.657 31.542-.223.458h4.503l-.224-.458h-4.056Z" fill="#1BBFD3"/></svg>