<svg viewBox="0 0 33 33" fill="none" xmlns="http://www.w3.org/2000/svg"><rect x="25.406" y="20.727" width="4.001" height="4.007" rx=".5" transform="rotate(-180 25.406 20.727)" stroke="#0278D5"/><rect x="18.412" y="20.727" width="4.001" height="4.007" rx=".5" transform="rotate(-180 18.412 20.727)" stroke="#0278D5"/><rect x="25.406" y="13.738" width="4.001" height="4.007" rx=".5" transform="rotate(-180 25.406 13.738)" stroke="#0278D5"/><rect x="8.406" y="4.727" width="4.001" height="4.007" rx=".5" stroke="#299B2C"/><rect x="15.4" y="4.727" width="4.001" height="4.007" rx=".5" stroke="#299B2C"/><rect x="8.406" y="11.717" width="4.001" height="4.007" rx=".5" stroke="#299B2C"/><path d="M28.98 31.43h-3.41a.438.438 0 0 1-.347-.167l-2.165-2.709a.444.444 0 0 1-.084-.384l.824-3.316a.453.453 0 0 1 .233-.29l3.051-1.53a.445.445 0 0 1 .395 0l3.091 1.531a.438.438 0 0 1 .235.294l.787 3.317a.444.444 0 0 1-.086.373l-2.18 2.716a.44.44 0 0 1-.345.164Zm-3.41-.457h3.402l2.17-2.7-.782-3.304-3.078-1.524-3.041 1.524-.822 3.306 2.15 2.698Z" fill="#238FCF"/><path d="m31.199 23.954.387-.319-4.078-2.02v.511l3.69 1.828Z" fill="#1BBFD3"/><path d="m22.253 28.7-.497.11 2.845 3.57.224-.453-2.572-3.227Z" fill="#79BF43"/><path d="M27.05 22.128v-.51l-4.025 2.018.377.324 3.648-1.832Z" fill="#1BBFD3"/><path d="m23.13 24.328-.387-.333-1.087 4.367.5-.11.974-3.924ZM32.408 28.254l.498.11-1.034-4.37-.395.325.931 3.935Z" fill="#1D4489"/><path d="m32.306 28.7-2.599 3.232.222.453 2.875-3.575-.498-.11Z" fill="#79BF43"/><path d="m25.235 32.124-.223.459h4.503l-.224-.459h-4.056Z" fill="#1BBFD3"/></svg>