<svg viewBox="0 0 34 33" fill="none" xmlns="http://www.w3.org/2000/svg"><path d="m18.33 16.215-.054 7.78m.054-7.78-7.383-4.269m7.383 4.269 6.978-4.04m-7.032 11.82 7.032-4.07v-7.75m-7.032 11.82-7.329-4.265v-7.784m14.361.23-7.36-4.27-7 4.04" stroke="#0278D5" stroke-linecap="round" stroke-linejoin="round"/><path d="m4.354 7.396 4.811 2.778M7.908 4.618l4.812 2.778M4.354 13.44l4.811 2.78" stroke="#0278D5" stroke-linecap="round"/><path d="M29.249 31.43h-3.41a.439.439 0 0 1-.346-.167l-2.166-2.709a.444.444 0 0 1-.083-.384l.823-3.316a.452.452 0 0 1 .233-.29l3.052-1.53a.445.445 0 0 1 .395 0l3.091 1.531a.437.437 0 0 1 .235.294l.786 3.317a.444.444 0 0 1-.086.373l-2.18 2.716a.443.443 0 0 1-.344.164Zm-3.41-.457h3.402l2.17-2.7-.782-3.304-3.078-1.524-3.04 1.524-.822 3.306 2.15 2.698Z" fill="#238FCF"/><path d="m31.468 23.954.388-.319-4.079-2.02v.511l3.691 1.828Z" fill="#1BBFD3"/><path d="m22.523 28.7-.498.11 2.846 3.57.223-.453-2.571-3.227Z" fill="#79BF43"/><path d="M27.32 22.128v-.51l-4.025 2.018.376.324 3.648-1.832Z" fill="#1BBFD3"/><path d="m23.4 24.328-.388-.333-1.086 4.367.5-.11.974-3.924ZM32.678 28.254l.497.11-1.034-4.37-.395.325.932 3.935Z" fill="#1D4489"/><path d="m32.576 28.7-2.6 3.232.222.453 2.875-3.575-.497-.11Z" fill="#79BF43"/><path d="m25.505 32.124-.224.459h4.504l-.224-.459h-4.056Z" fill="#1BBFD3"/></svg>