<svg viewBox="0 0 33 32" xmlns="http://www.w3.org/2000/svg"><path clip-rule="evenodd" d="m6.628 3.785a.5.5 0 0 1 .683-.183l4.812 2.778a.5.5 0 0 1 -.5.866l-4.813-2.778a.5.5 0 0 1 -.183-.683zm-2.872 2.596a.5.5 0 1 0 -.5.866l4.812 2.778a.5.5 0 0 0 .5-.866l-4.812-2.779zm13.595.51a.5.5 0 0 0 -.5-.001l-7 4.04a.5.5 0 0 0 -.25.433v7.784a.5.5 0 0 0 .248.433l7.329 4.264a.5.5 0 0 0 .502.001l7.032-4.07a.5.5 0 0 0 .25-.433v-7.749a.5.5 0 0 0 -.25-.432l-7.36-4.27zm-6.75 11.969v-6.63l6.38 3.69-.046 6.626-6.335-3.686zm7.335 3.682.045-6.62 5.98-3.462v6.594zm-.453-7.488 5.98-3.461-6.363-3.693-6 3.463 6.383 3.69zm-13.727-2.628a.5.5 0 0 0 -.5.866l4.812 2.778a.5.5 0 1 0 .5-.866z" fill="#0278d5" fill-rule="evenodd"/><path d="m28.401 30.847h-3.41a.439.439 0 0 1 -.346-.166l-2.165-2.71a.444.444 0 0 1 -.084-.383l.823-3.317a.45.45 0 0 1 .233-.29l3.052-1.53a.445.445 0 0 1 .395 0l3.091 1.532a.435.435 0 0 1 .235.294l.786 3.316a.443.443 0 0 1 -.085.373l-2.18 2.717a.44.44 0 0 1 -.345.164zm-3.41-.457h3.403l2.17-2.7-.782-3.303-3.078-1.524-3.041 1.524-.822 3.305z" fill="#238fcf"/><path d="m30.62 23.372.388-.32-4.078-2.019v.51z" fill="#1bbfd3"/><path d="m21.675 28.117-.497.11 2.845 3.57.223-.453-2.57-3.227z" fill="#79bf43"/><path d="m26.472 21.546v-.51l-4.025 2.017.377.324z" fill="#1bbfd3"/><path d="m22.552 23.746-.388-.334-1.086 4.368.5-.11zm9.278 3.926.498.11-1.035-4.37-.395.325z" fill="#1d4489"/><path d="m31.728 28.117-2.6 3.233.223.453 2.874-3.576z" fill="#79bf43"/><path d="m24.657 31.542-.223.458h4.503l-.224-.458z" fill="#1bbfd3"/></svg>