<svg viewBox="0 0 33 32" xmlns="http://www.w3.org/2000/svg"><path d="M29.014 30.847h-3.41a.439.439 0 0 1-.346-.166l-2.165-2.71a.443.443 0 0 1-.084-.383l.824-3.317a.452.452 0 0 1 .233-.29l3.052-1.53a.445.445 0 0 1 .395 0l3.09 1.532a.435.435 0 0 1 .235.294l.787 3.316a.441.441 0 0 1-.086.373l-2.18 2.717a.44.44 0 0 1-.345.164Zm-3.41-.457h3.403l2.17-2.7-.782-3.303-3.078-1.524-3.04 1.524-.823 3.305 2.15 2.698Z" fill="#238FCF"/><path d="m31.234 23.372.387-.32-4.078-2.019v.51l3.691 1.829Z" fill="#1BBFD3"/><path d="m22.288 28.117-.497.11 2.845 3.57.224-.453-2.572-3.227Z" fill="#79BF43"/><path d="M27.085 21.546v-.51l-4.024 2.017.376.324 3.648-1.831Z" fill="#1BBFD3"/><path d="m23.165 23.746-.387-.334-1.087 4.368.5-.11.974-3.924ZM32.443 27.672l.498.11-1.034-4.37-.395.325.931 3.935Z" fill="#1D4489"/><path d="m32.341 28.117-2.599 3.233.222.453 2.875-3.576-.498-.11Z" fill="#79BF43"/><path d="m25.27 31.542-.223.458h4.503l-.223-.458H25.27Z" fill="#1BBFD3"/><path fill-rule="evenodd" clip-rule="evenodd" d="M17.87 22.154c-.581.09-1.18.13-1.792.112-.402-.012-.896-.09-1.428-.214a7.571 7.571 0 0 0 3.31-1.7c1.41-1.225 2.264-2.792 2.636-3.908.383-1.147.505-2.763.545-3.692l1.092-.865a.5.5 0 0 0-.006-.788l-1.299-.998c-.596-2.24-2.328-3.376-4.007-2.964-1.67.41-2.89 2.254-2.715 5.174L6.26 20.27a.5.5 0 0 0 .708.706l8.27-8.283-.02-.231c-.234-2.806.904-4.1 1.94-4.354 1.03-.252 2.377.416 2.84 2.397l.04.174 1.071.822-.951.754-.008.231c-.03.876-.138 2.546-.503 3.642-.325.974-1.09 2.38-2.343 3.469-1.24 1.078-2.956 1.848-5.23 1.595a.512.512 0 0 0-.082-.002c-.361-.149-.685-.297-.948-.433a.5.5 0 1 0-.46.888c.66.34 1.622.731 2.61 1.043.98.308 2.031.554 2.855.577.669.02 1.325-.023 1.963-.121 2.55-.295 4.463-1.618 5.809-3.127 1.342-1.505 2.141-3.217 2.47-4.355a10.09 10.09 0 0 0 .272-2.064c.16-5.629-4.27-10.615-9.93-10.777-5.644-.161-10.35 4.285-10.51 9.93-.02.7.03 1.385.145 2.05a.5.5 0 0 0 .986-.17 9.274 9.274 0 0 1-.132-1.851c.145-5.094 4.39-9.105 9.482-8.96 5.075.146 9.105 4.64 8.959 9.75a9.093 9.093 0 0 1-.237 1.826c-.293 1.009-1.023 2.578-2.252 3.956-1.228 1.377-2.934 2.542-5.185 2.8a.678.678 0 0 0-.02.002Z" fill="#FCB519"/></svg>