<svg viewBox="0 0 33 33" fill="none" xmlns="http://www.w3.org/2000/svg"><path d="M11.332 27.325a.5.5 0 0 0-.111.994l.11-.994Zm10.477-6.528-.475-.158.475.158Zm-7.022-4.917.354.353.164-.164-.02-.23-.498.041ZM3.897 26.082a.5.5 0 1 0 .707.707l-.708-.707Zm18.6-10.202-.311-.392-.182.144-.008.231.5.017Zm1.653-1.31.31.391a.5.5 0 0 0-.006-.788l-.304.397Zm-1.869-1.435-.487.113.04.174.143.11.304-.397Zm-11.06 15.184c3.317.368 5.859-.766 7.68-2.35 1.808-1.571 2.906-3.584 3.382-5.014l-.949-.316c-.429 1.289-1.437 3.14-3.09 4.576-1.639 1.425-3.91 2.444-6.912 2.11l-.111.994Zm3.212-12.792L3.896 26.083l.708.706L15.14 16.233l-.708-.706Zm7.85 5.428c.534-1.601.674-3.928.713-5.058l-1-.034c-.038 1.137-.18 3.329-.662 4.776l.95.316Zm.524-4.683 1.653-1.31-.62-.784-1.654 1.31.62.784Zm-.039-3.251c-.702-3.007-2.95-4.495-5.085-3.971-2.127.522-3.722 2.937-3.394 6.872l.996-.083c-.307-3.686 1.188-5.463 2.637-5.818 1.441-.354 3.258.596 3.872 3.227l.974-.227Zm1.686 1.152-1.868-1.435-.61.793 1.87 1.435.608-.793Z" fill="#FCB519"/><path d="M4.44 18.756a12.707 12.707 0 0 1-.18-2.535c.199-6.98 6.017-12.477 12.995-12.278 6.977.2 12.477 6.362 12.278 13.342a12.463 12.463 0 0 1-.33 2.522m-18.106 8.015a12.585 12.585 0 0 0 5.436 1.4c.835.023 1.653-.03 2.447-.153" stroke="#FCB519" stroke-linecap="round" stroke-linejoin="round"/><path d="M28.977 31.43h-3.41a.439.439 0 0 1-.346-.167l-2.165-2.709a.444.444 0 0 1-.084-.384l.824-3.316a.452.452 0 0 1 .233-.29l3.052-1.53a.445.445 0 0 1 .395 0l3.09 1.531a.437.437 0 0 1 .235.294l.787 3.317a.443.443 0 0 1-.086.373l-2.18 2.716a.442.442 0 0 1-.345.164Zm-3.41-.457h3.403l2.17-2.7-.782-3.304-3.078-1.524-3.04 1.524-.823 3.306 2.15 2.698Z" fill="#238FCF"/><path d="m31.197 23.954.387-.319-4.078-2.02v.511l3.69 1.828Z" fill="#1BBFD3"/><path d="m22.251 28.7-.497.11 2.845 3.57.224-.453L22.25 28.7Z" fill="#79BF43"/><path d="M27.048 22.128v-.51l-4.025 2.018.377.324 3.648-1.832Z" fill="#1BBFD3"/><path d="m23.128 24.328-.387-.333-1.087 4.367.5-.11.974-3.924ZM32.406 28.254l.498.11-1.034-4.37-.395.325.931 3.935Z" fill="#1D4489"/><path d="m32.304 28.7-2.599 3.232.222.453 2.875-3.575-.498-.11Z" fill="#79BF43"/><path d="m25.233 32.124-.223.459h4.503l-.224-.459h-4.056Z" fill="#1BBFD3"/></svg>