<svg xmlns="http://www.w3.org/2000/svg" viewBox="0 0 16 16" fill="none"><path stroke="currentColor" stroke-linecap="round" d="M5.667 2.667H4c-.736 0-1.333.597-1.333 1.333v9.333c0 .737.597 1.334 1.333 1.334h4M10.333 2.667H12c.736 0 1.333.597 1.333 1.333v5.5"/><path stroke="currentColor" stroke-linecap="round" d="M5.333 4.267V3c0-.184.15-.333.334-.333.184 0 .336-.15.367-.33.1-.57.482-1.67 1.966-1.67s1.867 1.1 1.966 1.67c.031.18.183.33.367.33s.334.149.334.333v1.267a.4.4 0 0 1-.4.4H5.733a.4.4 0 0 1-.4-.4Z"/><path stroke="currentColor" stroke-linecap="round" stroke-linejoin="round" d="m10 13.4 1.429 1.6L15 11"/></svg>