<svg viewBox="0 0 34 33" fill="none" xmlns="http://www.w3.org/2000/svg"><rect x="5.43" y="5.19" width="7" height="7" rx=".5" stroke="#0278D5"/><rect x="21.26" y="13.229" width="7.125" height="6.988" rx=".5" stroke="#0278D5"/><rect x="5.43" y="21.216" width="7" height="7" rx=".5" stroke="#0278D5"/><path d="M12.43 8.69h4.48v8.113m-4.48 7.913h4.48v-7.913m0 0h4.094" stroke="#0278D5" stroke-linejoin="round"/><path d="M29.249 31.594h-3.41a.437.437 0 0 1-.346-.166l-2.166-2.709a.443.443 0 0 1-.083-.384l.823-3.316a.45.45 0 0 1 .233-.29l3.052-1.53a.446.446 0 0 1 .395 0l3.091 1.531a.436.436 0 0 1 .235.294l.786 3.317a.444.444 0 0 1-.086.373l-2.18 2.716a.444.444 0 0 1-.344.164Zm-3.41-.456h3.402l2.17-2.7-.782-3.304-3.078-1.524-3.04 1.524-.822 3.306 2.15 2.698Z" fill="#238FCF"/><path d="m31.468 24.12.388-.32-4.079-2.02v.511l3.691 1.828Z" fill="#1BBFD3"/><path d="m22.523 28.865-.498.11 2.846 3.57.223-.453-2.571-3.227Z" fill="#79BF43"/><path d="M27.32 22.293v-.51L23.294 23.8l.376.324 3.648-1.832Z" fill="#1BBFD3"/><path d="m23.4 24.493-.388-.333-1.086 4.367.5-.11.974-3.924ZM32.678 28.42l.497.11-1.034-4.37-.395.324.932 3.935Z" fill="#1D4489"/><path d="m32.576 28.865-2.6 3.232.222.453 2.875-3.575-.497-.11Z" fill="#79BF43"/><path d="m25.505 32.29-.224.458h4.504l-.224-.459h-4.056Z" fill="#1BBFD3"/></svg>