<svg viewBox="0 0 34 33" xmlns="http://www.w3.org/2000/svg"><path clip-rule="evenodd" d="m5.967 4.025a1 1 0 0 0 -1 1v6a1 1 0 0 0 1 1h6a1 1 0 0 0 1-1v-2.5h3.48v15.025h-3.48v-2.5a1 1 0 0 0 -1-1h-6a1 1 0 0 0 -1 1v6a1 1 0 0 0 1 1h6a1 1 0 0 0 1-1v-2.5h3.98a.5.5 0 0 0 .5-.5v-7.413h3.348v2.414a1 1 0 0 0 1 1h6.125a1 1 0 0 0 1-1v-5.988a1 1 0 0 0 -1-1h-6.125a1 1 0 0 0 -1 1v2.574h-3.349v-7.612a.5.5 0 0 0 -.5-.5h-3.98v-2.5a1 1 0 0 0 -1-1h-6zm0 1h6v6h-6zm15.828 8.039h6.125v5.988h-6.125zm-9.828 7.987h-6v6h6z" fill="#0278d5" fill-rule="evenodd"/><path d="m29.286 30.93h-3.41a.439.439 0 0 1 -.346-.167l-2.166-2.709a.444.444 0 0 1 -.083-.384l.823-3.316a.452.452 0 0 1 .233-.29l3.052-1.53a.445.445 0 0 1 .395 0l3.091 1.531a.437.437 0 0 1 .235.294l.786 3.317a.443.443 0 0 1 -.086.373l-2.18 2.716a.442.442 0 0 1 -.344.164zm-3.41-.457h3.402l2.171-2.7-.783-3.304-3.078-1.524-3.04 1.524-.822 3.306z" fill="#238fcf"/><path d="m31.506 23.454.387-.319-4.079-2.02v.511z" fill="#1bbfd3"/><path d="m22.56 28.2-.497.11 2.845 3.57.223-.453z" fill="#79bf43"/><path d="m27.357 21.628v-.51l-4.025 2.018.376.324z" fill="#1bbfd3"/><path d="m23.437 23.828-.388-.333-1.086 4.367.5-.11zm9.278 3.926.497.11-1.034-4.37-.395.325z" fill="#1d4489"/><path d="m32.613 28.2-2.6 3.232.222.453 2.875-3.575z" fill="#79bf43"/><path d="m25.542 31.624-.224.459h4.504l-.224-.459z" fill="#1bbfd3"/></svg>