<svg viewBox="0 0 33 32" xmlns="http://www.w3.org/2000/svg"><path clip-rule="evenodd" d="m14.172 4.618a.5.5 0 0 1 -.005.707l-2.201 2.166h14.242a1.5 1.5 0 0 1 1.5 1.5v9.498a.5.5 0 1 1 -1 0v-9.498a.5.5 0 0 0 -.5-.5h-14.243l2.2 2.165a.5.5 0 0 1 -.7.713l-3.072-3.022a.5.5 0 0 1 0-.713l3.071-3.022a.5.5 0 0 1 .707.006zm-9.076 8.813a.5.5 0 0 1 .5.5v11.96a.5.5 0 0 0 .5.5h12.31a.5.5 0 0 1 0 1h-12.31a1.5 1.5 0 0 1 -1.5-1.5v-11.961a.5.5 0 0 1 .5-.5z" fill="#0278d5" fill-rule="evenodd"/><path d="m28.221 30.847h-3.41a.439.439 0 0 1 -.346-.166l-2.165-2.711a.444.444 0 0 1 -.084-.383l.824-3.317a.451.451 0 0 1 .233-.29l3.052-1.53a.445.445 0 0 1 .395 0l3.09 1.532a.435.435 0 0 1 .235.294l.787 3.316a.444.444 0 0 1 -.086.373l-2.18 2.717a.44.44 0 0 1 -.345.164zm-3.41-.457h3.403l2.17-2.7-.782-3.303-3.078-1.524-3.04 1.524-.823 3.305z" fill="#238fcf"/><path d="m30.441 23.372.387-.32-4.078-2.019v.51z" fill="#1bbfd3"/><path d="m21.495 28.117-.497.11 2.845 3.57.224-.453z" fill="#79bf43"/><path d="m26.292 21.546v-.51l-4.024 2.017.376.324z" fill="#1bbfd3"/><path d="m22.372 23.746-.387-.334-1.087 4.368.5-.11zm9.278 3.926.498.11-1.034-4.37-.395.325z" fill="#1d4489"/><path d="m31.548 28.117-2.598 3.233.222.453 2.875-3.576-.498-.11z" fill="#79bf43"/><path d="m24.477 31.542-.223.458h4.503l-.223-.458h-4.056z" fill="#1bbfd3"/></svg>