<svg viewBox="0 0 33 32" xmlns="http://www.w3.org/2000/svg"><path d="m29.014 30.847h-3.41a.439.439 0 0 1 -.346-.166l-2.165-2.71a.443.443 0 0 1 -.084-.383l.824-3.317a.452.452 0 0 1 .233-.29l3.052-1.53a.445.445 0 0 1 .395 0l3.09 1.532a.435.435 0 0 1 .235.294l.787 3.316a.441.441 0 0 1 -.086.373l-2.18 2.717a.44.44 0 0 1 -.345.164zm-3.41-.457h3.403l2.17-2.7-.782-3.303-3.078-1.524-3.04 1.524-.823 3.305z" fill="#238fcf"/><path d="m31.234 23.372.387-.32-4.078-2.019v.51z" fill="#1bbfd3"/><path d="m22.288 28.117-.497.11 2.845 3.57.224-.453z" fill="#79bf43"/><path d="m27.085 21.546v-.51l-4.024 2.017.376.324z" fill="#1bbfd3"/><path d="m23.165 23.746-.387-.334-1.087 4.368.5-.11zm9.278 3.926.498.11-1.034-4.37-.395.325z" fill="#1d4489"/><path d="m32.341 28.117-2.599 3.233.222.453 2.875-3.576z" fill="#79bf43"/><path d="m25.27 31.542-.223.458h4.503l-.223-.458z" fill="#1bbfd3"/><path clip-rule="evenodd" d="m26.846 14.037a1.66 1.66 0 0 0 .007-1.649l-4.244-7.491a1.66 1.66 0 0 0 -1.445-.842h-8.444a1.66 1.66 0 0 0 -1.445.842l-4.244 7.491a1.66 1.66 0 0 0 .007 1.649l4.235 7.335c.296.514.845.83 1.438.83h8.46a1.66 1.66 0 0 0 1.439-.83l1.365-2.365-6.896.047a.827.827 0 0 1 -.11-.006c-2.467-.04-4.67-1.78-5.23-4.305-.651-2.944 1.178-5.871 4.11-6.52 2.276-.504 4.598.283 6.033 2.1l1.286-1.287v4.152h-4.15l1.678-1.68c-1.015-1.41-2.747-2.05-4.488-1.664-2.018.447-3.305 2.472-2.847 4.54.397 1.797 1.978 3.012 3.71 3.004.033 0 .066.002.098.005l7.769-.053 1.907-3.303z" fill="#0092e4" fill-rule="evenodd"/></svg>