<svg viewBox="0 0 33 32" xmlns="http://www.w3.org/2000/svg"><path fill-rule="evenodd" clip-rule="evenodd" d="M14.172 4.618a.5.5 0 0 1-.005.707l-2.201 2.166h14.242a1.5 1.5 0 0 1 1.5 1.5v9.498a.5.5 0 1 1-1 0V8.991a.5.5 0 0 0-.5-.5H11.965l2.2 2.165a.5.5 0 0 1-.7.713l-3.072-3.022a.5.5 0 0 1 0-.713l3.071-3.022a.5.5 0 0 1 .707.006Zm-9.076 8.813a.5.5 0 0 1 .5.5v11.96a.5.5 0 0 0 .5.5h12.31a.5.5 0 0 1 0 1H6.096a1.5 1.5 0 0 1-1.5-1.5V13.93a.5.5 0 0 1 .5-.5Z" fill="#0278D5"/><path d="M28.221 30.847h-3.41a.439.439 0 0 1-.346-.166L22.3 27.97a.444.444 0 0 1-.084-.383l.824-3.317a.451.451 0 0 1 .233-.29l3.052-1.53a.445.445 0 0 1 .395 0l3.09 1.532a.435.435 0 0 1 .235.294l.787 3.316a.444.444 0 0 1-.086.373l-2.18 2.717a.44.44 0 0 1-.345.164Zm-3.41-.457h3.403l2.17-2.7-.782-3.303-3.078-1.524-3.04 1.524-.823 3.305 2.15 2.698Z" fill="#238FCF"/><path d="m30.441 23.372.387-.32-4.078-2.019v.51l3.691 1.829Z" fill="#1BBFD3"/><path d="m21.495 28.117-.497.11 2.845 3.57.224-.453-2.572-3.227Z" fill="#79BF43"/><path d="M26.292 21.546v-.51l-4.024 2.017.376.324 3.648-1.831Z" fill="#1BBFD3"/><path d="m22.372 23.746-.387-.334-1.087 4.368.5-.11.974-3.924ZM31.65 27.672l.498.11-1.034-4.37-.395.325.931 3.935Z" fill="#1D4489"/><path d="M31.548 28.117 28.95 31.35l.222.453 2.875-3.576-.498-.11Z" fill="#79BF43"/><path d="m24.477 31.542-.223.458h4.503l-.223-.458h-4.056Z" fill="#1BBFD3"/></svg>