<svg viewBox="0 0 33 33" fill="none" xmlns="http://www.w3.org/2000/svg"><path d="M28.977 31.43h-3.41a.439.439 0 0 1-.346-.167l-2.165-2.709a.444.444 0 0 1-.084-.384l.824-3.316a.452.452 0 0 1 .233-.29l3.052-1.53a.445.445 0 0 1 .395 0l3.09 1.531a.437.437 0 0 1 .235.294l.787 3.317a.443.443 0 0 1-.086.373l-2.18 2.716a.442.442 0 0 1-.345.164Zm-3.41-.457h3.403l2.17-2.7-.782-3.304-3.078-1.524-3.04 1.524-.823 3.306 2.15 2.698Z" fill="#238FCF"/><path d="m31.197 23.954.387-.319-4.078-2.02v.511l3.69 1.828Z" fill="#1BBFD3"/><path d="m22.251 28.7-.497.11 2.845 3.57.224-.453L22.25 28.7Z" fill="#79BF43"/><path d="M27.048 22.128v-.51l-4.025 2.018.377.324 3.648-1.832Z" fill="#1BBFD3"/><path d="m23.128 24.328-.387-.333-1.087 4.367.5-.11.974-3.924ZM32.406 28.254l.498.11-1.034-4.37-.395.325.931 3.935Z" fill="#1D4489"/><path d="m32.304 28.7-2.599 3.232.222.453 2.875-3.575-.498-.11Z" fill="#79BF43"/><path d="m25.233 32.124-.223.459h4.503l-.224-.459h-4.056Z" fill="#1BBFD3"/><path fill-rule="evenodd" clip-rule="evenodd" d="M26.807 14.62a1.66 1.66 0 0 0 .007-1.65L22.57 5.48a1.66 1.66 0 0 0-1.445-.843h-8.443a1.66 1.66 0 0 0-1.445.842l-4.244 7.492A1.66 1.66 0 0 0 7 14.619l4.235 7.336c.296.513.845.83 1.438.83h8.46a1.66 1.66 0 0 0 1.439-.83l1.365-2.366-6.896.048a.845.845 0 0 1-.11-.007c-2.467-.039-4.67-1.78-5.23-4.304-.651-2.945 1.178-5.872 4.11-6.52 2.276-.504 4.598.283 6.033 2.1l1.286-1.287v4.151H18.98l1.68-1.68c-1.017-1.41-2.748-2.049-4.489-1.663-2.019.446-3.305 2.472-2.847 4.54.397 1.797 1.978 3.012 3.71 3.003.033 0 .066.002.098.006l7.769-.054 1.907-3.303Z" fill="#0092E4"/></svg>