<svg viewBox="0 0 33 32" xmlns="http://www.w3.org/2000/svg"><path clip-rule="evenodd" d="m23.715 3.954a.5.5 0 1 0 -.596.803l3.453 2.564h-17.494a.504.504 0 0 0 -.07.005c-2.992.037-5.425 2.422-5.425 5.382v2.208a.5.5 0 0 0 1 0v-2.208c0-2.41 2.002-4.382 4.496-4.382a.505.505 0 0 0 .067-.005h17.43l-3.458 2.574a.5.5 0 0 0 .597.802l4.668-3.475a.5.5 0 0 0 0-.802zm-15.263 21.887a.5.5 0 0 0 .596-.803l-3.454-2.564h14.016a.5.5 0 1 0 0-1h-14.02l3.459-2.574a.5.5 0 0 0 -.597-.802l-4.668 3.475a.5.5 0 0 0 .001.802l4.668 3.466zm18.785-7.065a.5.5 0 0 0 .92.394 5.271 5.271 0 0 0 .426-2.083v-2.207a.5.5 0 1 0 -1 0v2.208c0 .6-.123 1.17-.346 1.689z" fill="#0278d5" fill-rule="evenodd"/><path d="m28.13 30.847h-3.41a.439.439 0 0 1 -.347-.166l-2.165-2.71a.444.444 0 0 1 -.084-.383l.824-3.317a.453.453 0 0 1 .233-.29l3.052-1.53a.445.445 0 0 1 .395 0l3.09 1.532a.435.435 0 0 1 .236.294l.786 3.316a.444.444 0 0 1 -.086.373l-2.18 2.717a.44.44 0 0 1 -.345.164zm-3.41-.457h3.402l2.17-2.7-.782-3.303-3.078-1.524-3.04 1.524-.822 3.305z" fill="#238fcf"/><path d="m30.35 23.372.387-.32-4.079-2.019v.51l3.691 1.829z" fill="#1bbfd3"/><path d="m21.404 28.117-.498.11 2.845 3.57.224-.453z" fill="#79bf43"/><path d="m26.2 21.546v-.51l-4.024 2.017.376.324z" fill="#1bbfd3"/><path d="m22.28 23.746-.387-.334-1.086 4.368.499-.11zm9.279 3.926.497.11-1.034-4.37-.395.325z" fill="#1d4489"/><path d="m31.457 28.117-2.6 3.233.222.453 2.875-3.576z" fill="#79bf43"/><path d="m24.386 31.542-.224.458h4.504l-.224-.458z" fill="#1bbfd3"/></svg>