<svg viewBox="0 0 33 33" fill="none" xmlns="http://www.w3.org/2000/svg"><path d="m21.623 5.467 4.666 3.496m0 0-4.666 3.504m4.666-3.504h-19M11.955 14.618 7.29 18.113m0 0 4.666 3.505M7.29 18.113h19" stroke="#0278D5" stroke-linecap="round" stroke-linejoin="round"/><path d="M28.862 31.43h-3.41a.438.438 0 0 1-.346-.167l-2.165-2.709a.444.444 0 0 1-.084-.384l.823-3.316a.453.453 0 0 1 .233-.29l3.052-1.53a.445.445 0 0 1 .395 0l3.091 1.531a.438.438 0 0 1 .235.294l.786 3.317a.444.444 0 0 1-.085.373l-2.18 2.716a.442.442 0 0 1-.345.164Zm-3.41-.457h3.402l2.171-2.7-.782-3.304-3.078-1.524-3.041 1.524-.822 3.306 2.15 2.698Z" fill="#238FCF"/><path d="m31.082 23.954.387-.319-4.078-2.02v.511l3.69 1.828Z" fill="#1BBFD3"/><path d="m22.136 28.7-.497.11 2.845 3.57.223-.453-2.57-3.227Z" fill="#79BF43"/><path d="M26.933 22.128v-.51l-4.025 2.018.377.324 3.648-1.832Z" fill="#1BBFD3"/><path d="m23.013 24.328-.388-.333-1.086 4.367.5-.11.974-3.924ZM32.291 28.254l.497.11-1.034-4.37-.395.325.932 3.935Z" fill="#1D4489"/><path d="m32.189 28.7-2.6 3.232.223.453 2.875-3.575-.498-.11Z" fill="#79BF43"/><path d="m25.118 32.124-.223.459h4.503l-.224-.459h-4.056Z" fill="#1BBFD3"/></svg>