<svg viewBox="0 0 33 32" xmlns="http://www.w3.org/2000/svg"><path fill-rule="evenodd" clip-rule="evenodd" d="M22.075 4.485a.5.5 0 1 0-.6.8L24.94 7.88H7.44a.5.5 0 1 0 0 1h17.502l-3.468 2.605a.5.5 0 0 0 .6.8l4.667-3.505a.5.5 0 0 0 0-.8l-4.667-3.495Zm-10.267 9.15a.5.5 0 0 1 .6.8L8.942 17.03H26.44a.5.5 0 0 1 0 1H8.94l3.468 2.605a.5.5 0 0 1-.6.8L7.14 17.93a.5.5 0 0 1 0-.8l4.667-3.495Z" fill="#0278D5"/><path d="M29.014 30.847h-3.41a.439.439 0 0 1-.346-.166l-2.165-2.71a.443.443 0 0 1-.084-.383l.824-3.317a.452.452 0 0 1 .233-.29l3.052-1.53a.445.445 0 0 1 .395 0l3.09 1.532a.435.435 0 0 1 .235.294l.787 3.316a.441.441 0 0 1-.086.373l-2.18 2.717a.44.44 0 0 1-.345.164Zm-3.41-.457h3.403l2.17-2.7-.782-3.303-3.078-1.524-3.04 1.524-.823 3.305 2.15 2.698Z" fill="#238FCF"/><path d="m31.234 23.372.387-.32-4.078-2.019v.51l3.691 1.829Z" fill="#1BBFD3"/><path d="m22.288 28.117-.497.11 2.845 3.57.224-.453-2.572-3.227Z" fill="#79BF43"/><path d="M27.085 21.546v-.51l-4.024 2.017.376.324 3.648-1.831Z" fill="#1BBFD3"/><path d="m23.165 23.746-.387-.334-1.087 4.368.5-.11.974-3.924ZM32.443 27.672l.498.11-1.034-4.37-.395.325.931 3.935Z" fill="#1D4489"/><path d="m32.341 28.117-2.599 3.233.222.453 2.875-3.576-.498-.11Z" fill="#79BF43"/><path d="m25.27 31.542-.223.458h4.503l-.223-.458H25.27Z" fill="#1BBFD3"/></svg>