<svg viewBox="0 0 33 33" fill="none" xmlns="http://www.w3.org/2000/svg"><path d="m24.265 4.938 4.668 3.466m0 0-4.668 3.475m4.668-3.475H9.927m0 .004c-2.759 0-4.995 2.186-4.995 4.883v2.208M9.598 26.022 4.93 22.557m0 0 4.668-3.475M4.93 22.557h15.528m8.474-7.095v2.208a4.77 4.77 0 0 1-.387 1.886" stroke="#0278D5" stroke-linecap="round" stroke-linejoin="round"/><path d="M28.977 31.43h-3.41a.439.439 0 0 1-.346-.167l-2.165-2.709a.444.444 0 0 1-.084-.384l.824-3.316a.452.452 0 0 1 .233-.29l3.052-1.53a.445.445 0 0 1 .395 0l3.09 1.531a.437.437 0 0 1 .235.294l.787 3.317a.443.443 0 0 1-.086.373l-2.18 2.716a.442.442 0 0 1-.345.164Zm-3.41-.457h3.403l2.17-2.7-.782-3.304-3.078-1.524-3.04 1.524-.823 3.306 2.15 2.698Z" fill="#238FCF"/><path d="m31.197 23.954.387-.319-4.078-2.02v.511l3.69 1.828Z" fill="#1BBFD3"/><path d="m22.251 28.7-.497.11 2.845 3.57.224-.453L22.25 28.7Z" fill="#79BF43"/><path d="M27.048 22.128v-.51l-4.025 2.018.377.324 3.648-1.832Z" fill="#1BBFD3"/><path d="m23.128 24.328-.387-.333-1.087 4.367.5-.11.974-3.924ZM32.406 28.254l.498.11-1.034-4.37-.395.325.931 3.935Z" fill="#1D4489"/><path d="m32.304 28.7-2.599 3.232.222.453 2.875-3.575-.498-.11Z" fill="#79BF43"/><path d="m25.233 32.124-.223.459h4.503l-.224-.459h-4.056Z" fill="#1BBFD3"/></svg>