<svg viewBox="0 0 34 33" xmlns="http://www.w3.org/2000/svg"><path fill-rule="evenodd" clip-rule="evenodd" d="M5.967 4.025a1 1 0 0 0-1 1v6a1 1 0 0 0 1 1h6a1 1 0 0 0 1-1v-2.5h1.062a.5.5 0 1 0 0-1h-1.062v-2.5a1 1 0 0 0-1-1h-6Zm0 1h6v6h-6v-6Zm15.83 7.039a1 1 0 0 0-1 1v2.574h-.695a.5.5 0 1 0 0 1h.695v2.414a1 1 0 0 0 1 1h6.125a1 1 0 0 0 1-1v-5.988a1 1 0 0 0-1-1h-6.125Zm0 1h6.125v5.988h-6.125v-5.988Zm-16.83 7.987a1 1 0 0 1 1-1h6a1 1 0 0 1 1 1v2.5h1.062a.5.5 0 1 1 0 1h-1.062v2.5a1 1 0 0 1-1 1h-6a1 1 0 0 1-1-1v-6Zm7 0h-6v6h6v-6Zm3.929-13.526a.5.5 0 1 0 0 1h.806v1.866a.5.5 0 0 0 1 0V8.025a.5.5 0 0 0-.5-.5h-1.306Zm1.806 6.247a.5.5 0 1 0-1 0v4.674a.5.5 0 1 0 1 0v-1.808h.694a.5.5 0 0 0 0-1h-.694v-1.866Zm0 7.971a.5.5 0 1 0-1 0v1.808h-.806a.5.5 0 1 0 0 1h1.306a.5.5 0 0 0 .5-.5v-2.308Z" fill="#0278D5"/><path d="M29.286 30.93h-3.41a.439.439 0 0 1-.346-.167l-2.166-2.709a.444.444 0 0 1-.083-.384l.823-3.316a.452.452 0 0 1 .233-.29l3.052-1.53a.445.445 0 0 1 .395 0l3.091 1.531a.437.437 0 0 1 .235.294l.786 3.317a.443.443 0 0 1-.086.373l-2.18 2.716a.442.442 0 0 1-.344.164Zm-3.41-.457h3.402l2.171-2.7-.783-3.304-3.078-1.524-3.04 1.524-.822 3.306 2.15 2.698Z" fill="#238FCF"/><path d="m31.506 23.454.387-.319-4.079-2.02v.511l3.692 1.828Z" fill="#1BBFD3"/><path d="m22.56 28.2-.497.11 2.845 3.57.223-.453L22.56 28.2Z" fill="#79BF43"/><path d="M27.357 21.628v-.51l-4.025 2.018.376.324 3.649-1.832Z" fill="#1BBFD3"/><path d="m23.437 23.828-.388-.333-1.086 4.367.5-.11.974-3.924ZM32.715 27.754l.497.11-1.034-4.37-.395.325.932 3.935Z" fill="#1D4489"/><path d="m32.613 28.2-2.6 3.232.222.453 2.875-3.575-.497-.11Z" fill="#79BF43"/><path d="m25.542 31.624-.224.459h4.504l-.224-.459h-4.056Z" fill="#1BBFD3"/></svg>