<svg fill="none" viewBox="0 0 65 64" xmlns="http://www.w3.org/2000/svg"><g clip-rule="evenodd" fill="#fcb519" fill-rule="evenodd"><path d="m26.524 19.742a3.2 3.2 0 0 1 3.2-3.2h9.136a3.2 3.2 0 0 1 3.2 3.2v3.463a3.2 3.2 0 0 1 -3.2 3.2h-9.136a3.2 3.2 0 0 1 -3.2-3.2zm12.336 0h-9.136v3.463h9.136zm-31.758 0a3.2 3.2 0 0 1 3.2-3.2h9.196a3.2 3.2 0 0 1 3.2 3.2v3.687a3.2 3.2 0 0 1 -3.2 3.2h-9.196a3.2 3.2 0 0 1 -3.2-3.2zm12.396 0h-9.196v3.687h9.196zm7.026 12.033a3.2 3.2 0 0 1 3.2-3.2h9.196a3.2 3.2 0 0 1 3.2 3.2v3.687a3.2 3.2 0 0 1 -3.2 3.2h-9.196a3.2 3.2 0 0 1 -3.2-3.2zm12.396 0h-9.196v3.687h9.196z"/><path d="m12.629 30.026v-4.568h3.2v4.568c0 .646.199 1.244.601 1.669.38.4 1.118.835 2.588.835h8.387v3.2h-8.387c-2.142 0-3.799-.66-4.91-1.835-1.09-1.149-1.48-2.603-1.48-3.87zm8.469-6.84v-3.2h5.72v3.2z"/><path d="m46.783 6.433a4.8 4.8 0 0 1 4.8 4.8v24.15a1.6 1.6 0 0 1 -3.2 0v-24.15a1.6 1.6 0 0 0 -1.6-1.6h-31.692a1.6 1.6 0 0 0 -1.6 1.6v.434a1.6 1.6 0 0 1 -3.2 0v-.434a4.8 4.8 0 0 1 4.8-4.8zm-6.961 42.794a1.6 1.6 0 0 1 -1.6 1.6h-23.132a4.8 4.8 0 0 1 -4.8-4.8v-7.46a1.6 1.6 0 0 1 3.2 0v7.46a1.6 1.6 0 0 0 1.6 1.6h23.13a1.6 1.6 0 0 1 1.6 1.6z"/><path d="m49.983 33.783a1.6 1.6 0 0 1 1.6 1.6v4.244c0 6.186-5.014 11.2-11.2 11.2h-9.446a1.6 1.6 0 1 1 0-3.2h9.446a8 8 0 0 0 8-8v-4.244a1.6 1.6 0 0 1 1.6-1.6z"/><path d="m53.666 16.331a4.8 4.8 0 0 1 4.8 4.8v22.203a1.6 1.6 0 0 1 -3.2 0v-22.203a1.6 1.6 0 0 0 -1.6-1.6h-3.683a1.6 1.6 0 0 1 0-3.2zm-6.54 39.862a1.6 1.6 0 0 1 -1.6 1.6h-22.186a4.8 4.8 0 0 1 -4.8-4.8v-3.407a1.6 1.6 0 1 1 3.2 0v3.407a1.6 1.6 0 0 0 1.6 1.6h22.187a1.6 1.6 0 0 1 1.6 1.6z"/><path d="m56.866 41.734a1.6 1.6 0 0 1 1.6 1.6v3.26c0 6.185-5.015 11.2-11.2 11.2h-8.764a1.6 1.6 0 0 1 0-3.2h8.764a8 8 0 0 0 8-8v-3.26a1.6 1.6 0 0 1 1.6-1.6z"/></g></svg>