<svg xmlns="http://www.w3.org/2000/svg" width="25" height="25" fill="none" viewBox="0 0 25 25">
  <path fill="#fff" d="m22.78 13.562-2.893-8.585a1.822 1.822 0 0 0-1.381-1.207L9.48 2.008a1.83 1.83 0 0 0-1.711.576l-6.12 6.861a1.828 1.828 0 0 0-.37 1.796l2.894 8.586a1.814 1.814 0 0 0 1.38 1.207l9.027 1.762a1.831 1.831 0 0 0 1.711-.576l6.12-6.862a1.827 1.827 0 0 0 .369-1.796ZM19.285 5.18l1.902 5.646-4.04-6.374a1.612 1.612 0 0 0-.314-.36l1.554.304c.415.077.763.382.898.784Zm-2.982 14.893-3.524.177 5.697-3.3a.073.073 0 0 0 .026-.016l-1.372 2.605a.975.975 0 0 1-.826.534Zm-8.852-.06-1.99-3.138.118.076 5.743 3.325c.026.017.056.03.08.042l-3.061.157a.993.993 0 0 1-.89-.462Zm.305-15.278 3.524-.178-5.697 3.3c-.008.004-.017.008-.025.017L6.93 5.269a.975.975 0 0 1 .826-.534Zm8.852.055L18.6 7.93a2.839 2.839 0 0 0-.118-.076l-5.744-3.325c-.025-.017-.055-.03-.08-.043l3.062-.156c.356-.017.699.16.89.461Zm1.94 10.941a.786.786 0 0 1-.385.673l-5.744 3.325a.776.776 0 0 1-.779 0l-5.743-3.325a.78.78 0 0 1-.386-.673V9.077c0-.275.148-.534.386-.674l5.743-3.325a.749.749 0 0 1 .39-.105c.135 0 .27.033.39.105l5.743 3.325a.78.78 0 0 1 .385.674v6.654Zm-13.651.254-1.669-2.63a.996.996 0 0 1-.038-.996l1.682-3.197v6.569a2.4 2.4 0 0 0 .025.254Zm14.266-7.167 1.668 2.63a.994.994 0 0 1 .038.996l-1.685 3.198V9.077c0-.09-.009-.174-.021-.259ZM8.247 3.008a1.202 1.202 0 0 1 1.114-.378l5.634 1.102-7.273.368c-.203.008-.394.06-.576.14l1.101-1.233Zm-6.124 6.86 4.049-4.535-3.545 6.73a1.67 1.67 0 0 0-.182.644l-.564-1.67a1.19 1.19 0 0 1 .242-1.168Zm2.651 9.755-1.902-5.646 4.041 6.375c.09.136.195.258.314.36l-1.555-.305a1.182 1.182 0 0 1-.898-.784Zm11.042 2.178c-.28.313-.707.457-1.118.377l-5.633-1.102 7.272-.368c.204-.009.394-.06.576-.14l-1.097 1.233Zm6.12-6.862-4.048 4.536 3.545-6.734c.106-.204.165-.424.182-.644l.563 1.669c.136.406.043.855-.241 1.173Z"/>
</svg>
