<svg xmlns="http://www.w3.org/2000/svg" width="25" height="25" fill="none" viewBox="0 0 25 25">
  <path fill="#fff" d="M22.863 13.68 19.97 5.094a1.822 1.822 0 0 0-1.38-1.207L9.562 2.125a1.83 1.83 0 0 0-1.71.576L1.731 9.563a1.828 1.828 0 0 0-.369 1.796l2.893 8.586a1.815 1.815 0 0 0 1.38 1.207l9.027 1.762a1.83 1.83 0 0 0 1.711-.576l6.12-6.862a1.826 1.826 0 0 0 .37-1.796ZM19.37 5.298l1.902 5.646-4.041-6.375a1.613 1.613 0 0 0-.314-.36l1.555.305c.415.076.762.381.898.784ZM16.387 20.19l-3.524.178 5.697-3.3c.008-.004.017-.008.025-.016l-1.372 2.605a.975.975 0 0 1-.826.533Zm-8.853-.06-1.99-3.138c.038.026.076.051.118.076l5.744 3.325c.025.017.055.03.08.043l-3.062.157a.993.993 0 0 1-.89-.462ZM7.84 4.854l3.524-.178-5.696 3.3a.088.088 0 0 0-.026.017l1.372-2.605a.975.975 0 0 1 .826-.534Zm8.853.055 1.99 3.139a2.421 2.421 0 0 0-.118-.077L12.82 4.645c-.025-.016-.055-.03-.08-.042l3.062-.157c.356-.017.7.161.89.462Zm1.94 10.94a.786.786 0 0 1-.386.674l-5.743 3.325a.776.776 0 0 1-.78 0L5.98 16.522a.78.78 0 0 1-.385-.673V9.195c0-.276.148-.534.385-.674l5.743-3.325a.75.75 0 0 1 .39-.106.75.75 0 0 1 .39.106l5.743 3.325a.78.78 0 0 1 .386.674v6.654Zm-13.652.255-1.668-2.63a.996.996 0 0 1-.039-.996L4.955 9.28v6.57c.004.084.013.17.025.254Zm14.266-7.167 1.669 2.63c.19.301.203.682.038.996l-1.686 3.198V9.195c0-.09-.008-.174-.021-.259ZM8.33 3.125a1.202 1.202 0 0 1 1.114-.377l5.633 1.101-7.272.369a1.563 1.563 0 0 0-.577.14L8.33 3.125ZM2.206 9.987l4.05-4.537-3.546 6.73a1.671 1.671 0 0 0-.182.644l-.563-1.668a1.19 1.19 0 0 1 .241-1.17Zm2.652 9.754-1.902-5.646 4.04 6.375c.09.135.195.258.314.36l-1.554-.305a1.182 1.182 0 0 1-.898-.784ZM15.9 21.918c-.28.314-.707.458-1.118.377l-5.634-1.101 7.273-.368c.203-.009.394-.06.576-.14L15.9 21.918Zm6.12-6.861-4.049 4.536 3.545-6.735c.106-.203.165-.423.182-.644l.564 1.67c.135.406.042.855-.242 1.173Z"/>
</svg>
