<svg xmlns="http://www.w3.org/2000/svg" viewBox="0 0 24 24" fill="currentColor"><path fill-rule="evenodd" d="M4.339 4.461a.707.707 0 0 0-.697.718v12.916c0 .396.312.717.697.717h15.319a.707.707 0 0 0 .696-.717V8.766c0-.396.312-.717.697-.717.384 0 .696.321.696.717v9.329c0 1.188-.935 2.152-2.089 2.152H4.338c-1.153 0-2.088-.964-2.088-2.152V5.179c0-1.19.935-2.153 2.089-2.153h12.185c.385 0 .697.321.697.718a.707.707 0 0 1-.697.717H4.34ZM7.25 8.355a.683.683 0 0 1 .97-.176l3.278 2.364a.913.913 0 0 1 0 1.47L8.22 14.377a.683.683 0 0 1-.97-.176.731.731 0 0 1 .171-1l2.667-1.923L7.42 9.354a.732.732 0 0 1-.171-.999Zm6.14 4.717a.707.707 0 0 0-.696.717c0 .397.312.718.697.718h3.481a.707.707 0 0 0 .697-.718.707.707 0 0 0-.697-.717h-3.481Z" clip-rule="evenodd"/></svg>