<svg viewBox="0 0 32 32" xmlns="http://www.w3.org/2000/svg"><path fill-rule="evenodd" clip-rule="evenodd" d="M7.241 3.897a.5.5 0 0 1 .355-.147H27.25a.5.5 0 0 1 .5.5v16.312a.5.5 0 1 1-1 0V4.75H8.099l.096 16.588h9.151a.5.5 0 0 1 .5.526c-.06 1.119.296 2.474 1.079 3.538.772 1.048 1.95 1.805 3.572 1.793a.5.5 0 0 1 .007 1l-7.924.055h-4.456a5.874 5.874 0 0 1-5.874-5.874c0-.573.464-1.038 1.037-1.038h1.908L7.096 4.253a.5.5 0 0 1 .145-.356Zm12.103 23.32a5.584 5.584 0 0 1-1.224-1.222 6.753 6.753 0 0 1-1.276-3.657H5.287a.037.037 0 0 0-.037.038 4.874 4.874 0 0 0 4.874 4.874h4.453l4.767-.033Zm-5.03-17.095a.5.5 0 0 1 .486-.022l7.936 3.95a.5.5 0 0 1 0 .895l-7.936 3.95a.5.5 0 0 1-.723-.447v-7.9a.5.5 0 0 1 .237-.426Zm.763 1.232v6.286l6.314-3.143-6.314-3.143Z" fill="#0278D5"/><path fill-rule="evenodd" clip-rule="evenodd" d="M21.012 19.17v3.997l3.478 2.046v-3.998l-3.478-2.046Zm3.753 10.784L28.242 32v-3.998l-3.477-2.046v3.998Zm.091-8.46 3.386 2.045v3.998l-3.386-1.952v-4.091Zm3.753 2.045v3.998l3.386-1.952v-4.091l-3.386 2.045Z" fill="#000"/></svg>