<svg fill="none" viewBox="0 0 33 33" xmlns="http://www.w3.org/2000/svg"><path clip-rule="evenodd" d="m7.33 4.54c-.818 0-1.482.672-1.482 1.5v21c0 .828.664 1.5 1.482 1.5h10.873a.497.497 0 0 0 .494-.5c0-.276-.22-.5-.494-.5h-10.873a.497.497 0 0 1 -.494-.5v-21c0-.276.221-.5.494-.5h17.79c.272 0 .493.224.493.5v8.563c0 .276.221.5.494.5a.497.497 0 0 0 .495-.5v-8.563c0-.828-.664-1.5-1.483-1.5zm2.911 5.49a.497.497 0 0 0 -.494.5c0 .276.221.5.494.5h10.682a.497.497 0 0 0 .495-.5c0-.276-.222-.5-.495-.5zm0 4.963a.497.497 0 0 0 -.494.5c0 .276.221.5.494.5h7.962a.497.497 0 0 0 .494-.5c0-.277-.22-.5-.494-.5zm-.425 5.547c0-.276.221-.5.494-.5h7.893c.273 0 .494.224.494.5s-.22.5-.494.5h-7.893a.497.497 0 0 1 -.494-.5z" fill="#0278d5" fill-rule="evenodd"/><path d="m29.295 24.062v3.998l3.386-1.952v-4.091z" fill="#4040b2"/><g fill="#5c4ee5"><path d="m25.542 22.017 3.386 2.045v3.998l-3.386-1.952z"/><path clip-rule="evenodd" d="m21.698 23.69v-3.998l3.478 2.046v3.998zm7.23 8.833-3.477-2.046v-3.997l3.477 2.046v3.998z" fill-rule="evenodd"/></g></svg>