<svg viewBox="0 0 33 33" fill="none" xmlns="http://www.w3.org/2000/svg"><path fill-rule="evenodd" clip-rule="evenodd" d="M7.3 4.181c-.82 0-1.483.672-1.483 1.5V26.68c0 .828.663 1.5 1.482 1.5h10.873a.497.497 0 0 0 .494-.5c0-.276-.221-.5-.494-.5H7.3a.497.497 0 0 1-.494-.5V5.68c0-.276.221-.5.494-.5h17.789c.273 0 .494.224.494.5v8.563c0 .276.221.5.494.5a.497.497 0 0 0 .494-.5V5.68c0-.828-.663-1.5-1.482-1.5H7.299Zm2.91 5.49a.497.497 0 0 0-.494.5c0 .276.221.5.494.5h10.682a.497.497 0 0 0 .494-.5c0-.276-.221-.5-.494-.5H10.21Zm0 4.963a.497.497 0 0 0-.494.5c0 .276.221.5.494.5h7.962a.497.497 0 0 0 .494-.5c0-.277-.221-.5-.494-.5H10.21Zm-.425 5.546c0-.276.221-.5.494-.5h7.893c.273 0 .494.224.494.5 0 .277-.221.5-.494.5H10.28a.497.497 0 0 1-.494-.5Z" fill="#fff"/><path d="M29.264 23.703v3.998l3.386-1.952v-4.091l-3.386 2.045ZM25.51 21.658l3.387 2.045v3.998l-3.386-1.952v-4.091Z" fill="#fff"/><path fill-rule="evenodd" clip-rule="evenodd" d="M21.667 23.331v-3.998l3.478 2.046v3.998l-3.478-2.046Zm7.23 8.833-3.478-2.046V26.12l3.478 2.046v3.998Z" fill="#fff"/></svg>