<svg viewBox="0 0 33 33" fill="none" xmlns="http://www.w3.org/2000/svg"><path d="M24.386 17.973a7.53 7.53 0 0 0-5.399 3.434c-.21.33-.501.903-.639 1.253a7.153 7.153 0 0 0-.468 1.836 9.158 9.158 0 0 0 0 1.861 7.2 7.2 0 0 0 .757 2.469 7.11 7.11 0 0 0 1.41 1.931 7.461 7.461 0 0 0 4.357 2.123 9.144 9.144 0 0 0 1.86 0 7.513 7.513 0 0 0 5.417-3.433c.39-.612.748-1.434.928-2.13.165-.641.224-1.143.224-1.89 0-.45-.011-.666-.045-.93a7.2 7.2 0 0 0-.757-2.47 7.112 7.112 0 0 0-1.41-1.93 7.462 7.462 0 0 0-4.356-2.124c-.466-.06-1.428-.06-1.88 0Zm1.341 1.595c.17.013.21.023.255.068a.18.18 0 0 1 .052.106c0 .043.034.07.192.151.509.255.863.802.93 1.428.012.11.021.128.066.14.07.018.131.113.118.183-.01.045.011.076.12.169a.621.621 0 0 1 .133.138c0 .011-.036.02-.081.02h-.082l.158.167c.192.208.414.526.515.746.102.221.181.535.237.948l.05.341.151.283c.382.709.588 1.258.588 1.567-.003.325-.16.689-.41.937-.146.147-.155.16-.155.26 0 .276-.151 1.41-.201 1.5-.011.018-.043-.011-.1-.09l-.083-.12v.147c0 .314-.1 1.115-.156 1.267-.013.04-.018.04-.092-.014-.073-.054-.08-.054-.095-.018-.01.023-.048.242-.086.49-.04.246-.09.493-.115.547a.773.773 0 0 1-.395.37.721.721 0 0 1-.875-.327 5.23 5.23 0 0 1-.165-.542c-.099-.391-.122-.452-.158-.45-.022.002-.133.02-.244.04-.252.046-.429.046-.682 0a5.568 5.568 0 0 0-.244-.04c-.038-.002-.058.052-.151.416-.142.544-.165.598-.303.736a.695.695 0 0 1-.966.03c-.165-.145-.21-.263-.287-.777a7.497 7.497 0 0 0-.086-.493c-.016-.036-.023-.036-.095.018-.056.043-.081.05-.093.03-.052-.095-.153-.913-.155-1.247v-.18l-.088.119c-.05.065-.093.108-.1.1-.034-.057-.144-.82-.187-1.295l-.016-.17-.179-.133c-.528-.39-.745-.98-.562-1.526.108-.321.37-.791.73-1.304.122-.176.13-.198.165-.406.094-.596.289-1.044.675-1.554.074-.1.176-.224.226-.278l.088-.095h-.095c-.05 0-.093-.004-.093-.011 0-.018.147-.147.26-.226.088-.063.093-.075.066-.113-.041-.054-.043-.305-.003-.357.014-.022.055-.047.09-.056.055-.014.07-.043.148-.267.115-.336.241-.544.465-.768.198-.196.431-.332.69-.406.098-.027.136-.048.136-.077 0-.038.077-.12.136-.142a.467.467 0 0 1 .135-.005c.057.007.192.016.303.025Z" fill="#5849A6"/><path fill-rule="evenodd" clip-rule="evenodd" d="M25.982 19.636c-.045-.045-.086-.055-.255-.068a13.551 13.551 0 0 0-.116-.009c-.077-.006-.15-.011-.187-.016a.473.473 0 0 0-.135.005c-.059.022-.136.104-.136.142 0 .03-.038.05-.135.077-.26.074-.493.21-.691.406-.224.224-.35.432-.466.768-.076.224-.092.253-.146.267-.037.009-.077.034-.09.056-.041.052-.04.303.001.357.027.038.023.05-.065.113-.113.079-.26.208-.26.226 0 .007.043.011.093.011h.095l-.088.095c-.05.054-.152.178-.226.278-.387.51-.58.957-.676 1.554-.034.207-.043.23-.165.406-.359.513-.62.983-.73 1.304-.182.546.035 1.136.563 1.526l.179.134.016.169c.043.474.153 1.238.187 1.294.007.01.05-.034.1-.1l.087-.119v.18c.003.335.104 1.153.156 1.247.012.02.037.014.093-.029.072-.054.079-.054.095-.018.009.023.047.244.086.492.076.515.122.633.287.777.284.253.698.24.966-.029.138-.138.16-.192.303-.736.092-.364.113-.418.151-.416.023.002.133.02.244.04.253.046.43.046.682 0 .111-.02.222-.038.244-.04.036-.002.059.059.158.45.066.248.14.492.165.542.163.305.55.45.874.327a.773.773 0 0 0 .396-.37c.024-.054.074-.3.115-.547.038-.248.077-.467.086-.49.015-.036.022-.036.095.018.074.054.079.054.092.014.057-.152.156-.953.156-1.267v-.147l.084.12c.056.079.088.108.099.09.05-.09.2-1.224.2-1.5 0-.1.01-.113.157-.26.248-.248.406-.612.409-.937 0-.31-.206-.858-.588-1.567l-.151-.283-.05-.34c-.056-.414-.135-.728-.237-.95a3.4 3.4 0 0 0-.515-.745l-.158-.167h.081c.046 0 .082-.009.082-.02a.62.62 0 0 0-.134-.138c-.108-.093-.128-.124-.12-.17.014-.07-.047-.164-.117-.182-.045-.012-.054-.03-.065-.14-.068-.626-.423-1.173-.93-1.428-.159-.081-.193-.108-.193-.151a.18.18 0 0 0-.052-.106Z" fill="#fff"/><path fill-rule="evenodd" clip-rule="evenodd" d="M25.982 19.636c-.045-.045-.086-.055-.255-.068a13.579 13.579 0 0 0-.116-.009c-.077-.006-.15-.011-.187-.016a.472.472 0 0 0-.135.005c-.059.022-.136.104-.136.142 0 .03-.038.05-.135.077-.26.074-.493.21-.691.406-.224.224-.35.432-.466.768-.076.224-.092.253-.146.267-.037.009-.077.034-.09.056-.041.052-.04.303.001.357.011.015.017.026.014.038.103.14.317.423.487.619.227.262.54.401.831.442.29.04.732.081.947.075.215-.006.657-.18.773-.296l.08-.075c.17-.159.504-.47.6-.71-.02-.027-.023-.047-.018-.07.013-.07-.048-.165-.118-.183-.045-.012-.054-.03-.065-.14-.068-.626-.423-1.173-.93-1.428-.159-.081-.193-.108-.193-.151a.18.18 0 0 0-.052-.106Z" fill="#17A9F9"/><circle cx="25.459" cy="21.732" fill="#1794DA" r=".786"/><circle cx="25.459" cy="21.594" fill="#fff" r=".786"/><path d="m25.486 21.09-.42.836c-.058-.08-.158-.317-.072-.54.085-.222.363-.29.492-.296Z" fill="#F2F2F2"/><path fill-rule="evenodd" clip-rule="evenodd" d="M28.577 27.128c-.273.184-.85.514-1.327.585.352-.038 1.055-.16 1.309-.367.003-.052.005-.094.005-.126 0-.04.002-.066.013-.092Zm-6.21.37c.233.073.843.184 1.454.052-.212.01-.802-.033-1.475-.28l.016.167.006.061Zm.703-1.603c-.287-.169-.379-.457-.363-.57-.035.216-.076.55.717.994.604.339 1.91.166 2.508.017v.054h.078l-.038.049v.139c.306-.273.835-.34 1.061-.338.408-.05.68.332.767.53a2.014 2.014 0 0 0-.15-.329c-.086-.157-.178-.221-.213-.234.471-.202.623-.632.64-.822-.116.361-.397.507-.587.606-.038.02-.073.037-.101.055-.137.082-.552.092-.743.087l.014.028-.38-.021.085.1c-.104.032-.332.013-.433 0v-.051a.759.759 0 0 1-.18.018c-.38-.01-.839-.226-1.021-.332v.177c.123.096.609.206.836.25-.352.106-1.02.103-1.31.088l.126-.127c-.15.012-.518.009-.788-.095a2.415 2.415 0 0 1-.451-.212.773.773 0 0 1 .384-.145c.36-.023.935.32 1.167.47l-.016-.15c-.133-.127-.78-.432-1.103-.432-.224 0-.432.135-.506.196Z" fill="#E6E6E6"/><path fill-rule="evenodd" clip-rule="evenodd" d="M23.918 24.21c-.106-.077-.129-.163-.057-.204.057-.034.066-.032.17.04.246.168.662.34.973.398.664.127 1.267.018 1.895-.34.183-.105.226-.12.264-.1.077.04.057.126-.05.205-.126.093-.44.249-.645.323a2.936 2.936 0 0 1-1.843.02 3.317 3.317 0 0 1-.707-.343Zm.07-1.008a.257.257 0 0 0-.077.102.187.187 0 0 0 .093.237c.09.047.142.043.22-.025.188-.158-.038-.454-.236-.314Zm2.717-.009c-.025.014-.056.061-.075.102-.029.07-.029.088.003.153.063.133.192.16.302.068.14-.117.064-.348-.115-.348a.273.273 0 0 0-.115.025Z" fill="#000"/><path fill-rule="evenodd" clip-rule="evenodd" d="M20.736 11.315c-.75-1.9-1.569-4.051-2.334-6.494a4.88 4.88 0 0 0-.725.414c-.711.478-1.62 1.259-2.427 2.257-1.62 2.006-2.747 4.768-1.284 7.706a.5.5 0 0 1-.236.676l-.212-.453.211.453-.003.001-.004.002-.012.006a2.996 2.996 0 0 1-.176.07 4.327 4.327 0 0 1-2.077.184c-1.175-.189-2.517-.916-3.597-2.822-.181.274-.4.646-.62 1.118-.549 1.183-1.11 3.006-1.11 5.531 0 3.23 1.659 6.048 4.136 7.614-.74-.9-1.235-2.14-1.223-3.848.005-.765.231-1.41.46-1.9.115-.243.232-.453.323-.616l.002-.003c.102-.184.147-.267.161-.31a.5.5 0 0 1 .97.102l.007.013c.043.071.12.178.233.315.222.27.549.614.924.954.377.34.79.667 1.184.908.353.215.647.336.865.372.247-.132.406-.448.467-.951.036-.3.028-.605.009-.84a4.881 4.881 0 0 0-.041-.352l-.003-.018v-.003a.5.5 0 0 1 .983-.18v.004l.002.008.005.028a4.814 4.814 0 0 1 .05.433c.023.273.034.65-.013 1.04-.076.628-.338 1.513-1.22 1.814a.5.5 0 0 1-.183.026c-.483-.02-.992-.253-1.442-.528a9.23 9.23 0 0 1-1.334-1.02 10.901 10.901 0 0 1-.947-.967 5.976 5.976 0 0 0-.096.194c-.194.416-.362.914-.366 1.484-.014 1.973.735 3.125 1.66 3.852.942.74 2.102 1.07 2.992 1.296h.078c.716 0 1.411-.09 2.076-.258a.5.5 0 0 1 .246.969c-.744.19-1.522.29-2.322.29-5.34 0-9.643-4.457-9.643-9.922 0-2.678.596-4.645 1.204-5.952a9.227 9.227 0 0 1 .842-1.466 5.886 5.886 0 0 1 .397-.498l.008-.009.003-.002.001-.002.36.348-.359-.348a.5.5 0 0 1 .812.139c1.012 2.19 2.277 2.824 3.216 2.974.48.077.906.031 1.215-.035-1.328-3.236-.005-6.21 1.643-8.249.872-1.08 1.856-1.928 2.648-2.46.393-.263.758-.463 1.054-.569.14-.05.31-.097.475-.092a.687.687 0 0 1 .322.086c.131.074.23.195.277.344.785 2.553 1.637 4.792 2.418 6.775l.454 1.146c.6 1.51 1.143 2.875 1.546 4.1a.5.5 0 1 1-.95.313c-.393-1.194-.92-2.521-1.519-4.029v-.001c-.15-.376-.304-.763-.461-1.162Z" fill="#0278D5"/></svg>