<svg viewBox="0 0 33 33" fill="none" xmlns="http://www.w3.org/2000/svg"><path fill-rule="evenodd" clip-rule="evenodd" d="M14.029 4.844a.5.5 0 0 1-.006.707l-2.2 2.165h14.241a1.5 1.5 0 0 1 1.5 1.5V15a.5.5 0 0 1-1 0V9.216a.5.5 0 0 0-.5-.5H11.822l2.201 2.166a.5.5 0 1 1-.701.713L10.25 8.572a.5.5 0 0 1 0-.713l3.07-3.022a.5.5 0 0 1 .708.006Zm-9.077 8.812a.5.5 0 0 1 .5.5v11.96a.5.5 0 0 0 .5.5h8.43a.5.5 0 1 1 0 1h-8.43a1.5 1.5 0 0 1-1.5-1.5v-11.96a.5.5 0 0 1 .5-.5Z" fill="#0278D5"/><path d="M23.198 17.268A7.53 7.53 0 0 0 17.8 20.7c-.21.33-.502.903-.64 1.253a7.154 7.154 0 0 0-.467 1.837 9.158 9.158 0 0 0 0 1.86 7.2 7.2 0 0 0 .757 2.47 7.112 7.112 0 0 0 1.409 1.93 7.462 7.462 0 0 0 4.357 2.124 9.158 9.158 0 0 0 1.861 0 7.514 7.514 0 0 0 5.417-3.433c.39-.613.747-1.435.928-2.13.165-.642.223-1.143.223-1.89 0-.45-.01-.667-.045-.931a7.2 7.2 0 0 0-.756-2.47 7.114 7.114 0 0 0-1.41-1.93 7.462 7.462 0 0 0-4.357-2.123c-.465-.061-1.427-.061-1.879 0Zm1.342 1.594c.17.014.21.023.255.068a.18.18 0 0 1 .052.106c0 .043.034.07.192.151.508.256.863.802.93 1.428.012.11.02.129.066.14.07.018.13.113.117.183-.009.045.012.077.12.17a.62.62 0 0 1 .133.137c0 .011-.036.02-.081.02h-.081l.158.168a3.4 3.4 0 0 1 .515.745c.101.221.18.535.237.949l.05.34.151.283c.382.71.587 1.258.587 1.567-.002.326-.16.69-.409.938-.146.146-.155.16-.155.26 0 .275-.152 1.409-.201 1.5-.012.017-.043-.012-.1-.091l-.083-.12v.147c0 .314-.1 1.116-.156 1.267-.014.04-.018.04-.093-.014-.072-.054-.079-.054-.095-.018-.009.023-.047.242-.086.49-.04.247-.09.493-.115.547a.773.773 0 0 1-.395.37.721.721 0 0 1-.874-.327c-.025-.05-.1-.294-.165-.542-.1-.39-.122-.452-.158-.45-.023.003-.133.02-.244.041-.253.045-.43.045-.682 0a5.629 5.629 0 0 0-.244-.04c-.038-.003-.059.051-.151.415-.143.544-.165.599-.303.736a.695.695 0 0 1-.967.03c-.165-.145-.21-.262-.287-.777a7.497 7.497 0 0 0-.086-.493c-.015-.036-.022-.036-.094.018-.057.043-.082.05-.093.03-.052-.095-.154-.913-.156-1.247v-.18l-.088.12c-.05.065-.093.108-.1.099-.033-.057-.144-.82-.187-1.295l-.016-.17-.178-.132c-.529-.391-.745-.98-.563-1.527.109-.32.371-.79.73-1.303.122-.177.131-.2.165-.407.095-.596.29-1.043.675-1.554.075-.1.177-.224.226-.278l.088-.095h-.095c-.05 0-.092-.004-.092-.01 0-.019.147-.148.26-.227.088-.063.092-.074.065-.113-.04-.054-.043-.305-.002-.357.013-.022.054-.047.09-.056.054-.014.07-.043.147-.267.115-.336.242-.544.465-.767a1.6 1.6 0 0 1 .691-.407c.098-.027.136-.047.136-.077 0-.038.077-.12.136-.142a.465.465 0 0 1 .135-.005c.057.007.192.016.303.025Z" fill="#5849A6"/><path fill-rule="evenodd" clip-rule="evenodd" d="M24.795 18.93c-.045-.045-.086-.054-.256-.068a19.386 19.386 0 0 0-.115-.009c-.077-.006-.15-.011-.187-.016a.468.468 0 0 0-.136.005c-.058.023-.135.104-.135.142 0 .03-.039.05-.136.077-.26.075-.492.21-.69.407-.224.223-.351.431-.466.767-.077.224-.093.253-.147.267-.036.01-.077.034-.09.056-.041.052-.039.303.002.357.027.039.023.05-.066.113-.113.08-.26.208-.26.226 0 .007.044.011.093.011h.095l-.088.095c-.05.055-.151.179-.226.278-.386.51-.58.958-.675 1.554-.034.208-.043.23-.165.407-.36.512-.621.982-.73 1.303-.183.546.034 1.136.563 1.527l.178.133.016.17c.043.474.154 1.237.188 1.294.006.009.05-.034.099-.1l.088-.12v.181c.002.334.104 1.152.156 1.247.011.02.036.013.093-.03.072-.054.079-.054.094-.018.01.023.048.244.086.493.077.515.122.632.287.777.285.253.698.24.967-.03.137-.137.16-.192.302-.736.093-.364.113-.418.152-.416.022.003.133.02.244.041.253.045.429.045.682 0 .11-.02.221-.038.244-.04.036-.003.058.058.158.449.065.248.14.492.165.542.162.305.549.45.874.328a.773.773 0 0 0 .395-.37c.025-.055.075-.301.115-.547a7.3 7.3 0 0 1 .086-.49c.016-.037.023-.037.095.017.075.055.08.055.093.014.056-.151.155-.953.155-1.267v-.147l.084.12c.056.079.088.108.1.09.05-.09.2-1.224.2-1.5 0-.099.01-.113.156-.26.249-.248.407-.611.41-.937 0-.309-.206-.858-.588-1.567l-.151-.282-.05-.341c-.057-.414-.136-.728-.237-.95a3.4 3.4 0 0 0-.515-.744l-.158-.168h.08c.046 0 .082-.009.082-.02a.62.62 0 0 0-.133-.138c-.108-.092-.129-.124-.12-.17.014-.07-.047-.164-.117-.182-.045-.011-.054-.03-.066-.14-.068-.626-.422-1.172-.93-1.427-.158-.082-.192-.109-.192-.152a.18.18 0 0 0-.052-.106Z" fill="#fff"/><path fill-rule="evenodd" clip-rule="evenodd" d="M24.795 18.93c-.046-.045-.086-.054-.256-.068a19.429 19.429 0 0 0-.115-.009c-.077-.006-.15-.011-.187-.016a.467.467 0 0 0-.136.005c-.058.023-.135.104-.135.142 0 .03-.039.05-.136.077-.26.075-.492.21-.69.407-.224.223-.351.431-.466.767-.077.224-.093.253-.147.267-.036.01-.077.034-.09.056-.041.052-.039.303.002.357.01.016.016.027.014.038.103.14.317.423.486.62.227.26.54.4.831.441.291.04.733.081.948.076.215-.006.656-.18.773-.297l.079-.075c.17-.158.504-.47.6-.71-.02-.027-.023-.046-.018-.07.014-.07-.047-.165-.117-.183-.046-.011-.055-.03-.066-.14-.068-.626-.422-1.172-.93-1.427-.159-.082-.192-.109-.192-.152a.18.18 0 0 0-.052-.106Z" fill="#17A9F9"/><circle cx="24.272" cy="21.026" fill="#1794DA" r=".786"/><circle cx="24.272" cy="20.888" fill="#fff" r=".786"/><path d="m24.298 20.384-.42.836c-.058-.08-.157-.316-.072-.54.086-.222.364-.29.492-.296Z" fill="#F2F2F2"/><path fill-rule="evenodd" clip-rule="evenodd" d="M27.39 26.422c-.273.184-.85.514-1.328.586.353-.038 1.055-.162 1.31-.368.003-.051.005-.094.005-.125 0-.04.001-.067.012-.093Zm-6.21.37c.233.073.843.184 1.454.053-.212.01-.802-.034-1.475-.28l.015.166.006.061Zm.702-1.602c-.286-.17-.378-.458-.362-.57-.036.216-.077.549.716.993.604.339 1.911.167 2.508.017v.054h.078l-.038.05v.138c.307-.273.836-.339 1.062-.338.407-.05.68.332.766.53a2.014 2.014 0 0 0-.149-.328c-.086-.158-.179-.222-.214-.235.472-.201.624-.632.64-.822-.115.362-.397.508-.587.606-.038.02-.072.038-.1.055-.138.083-.553.093-.743.087l.014.029-.38-.022.085.1c-.105.033-.333.014-.434 0v-.05a.754.754 0 0 1-.18.017c-.38-.009-.838-.225-1.02-.332v.177c.122.096.608.206.836.25-.352.106-1.02.103-1.31.088l.125-.126c-.15.011-.518.008-.788-.096a2.415 2.415 0 0 1-.45-.211.773.773 0 0 1 .383-.145c.36-.023.936.319 1.167.47l-.015-.152c-.133-.126-.781-.431-1.104-.431-.224 0-.432.136-.506.197Z" fill="#E6E6E6"/><path fill-rule="evenodd" clip-rule="evenodd" d="M22.73 23.504c-.106-.077-.128-.163-.056-.204.056-.033.065-.031.17.041.245.167.661.339.973.398.664.126 1.267.018 1.895-.341.183-.104.226-.12.264-.1.077.04.056.127-.05.206-.126.092-.44.248-.646.323a2.936 2.936 0 0 1-1.843.02 3.317 3.317 0 0 1-.707-.343Zm.07-1.008a.257.257 0 0 0-.076.102.187.187 0 0 0 .092.237c.09.048.142.043.221-.025.188-.158-.038-.454-.237-.314Zm2.717-.009c-.024.014-.056.061-.074.102-.03.07-.03.088.002.154.063.133.192.16.303.067.14-.117.063-.348-.115-.348a.273.273 0 0 0-.116.025Z" fill="#000"/></svg>