<svg fill="none" viewBox="0 0 33 33" xmlns="http://www.w3.org/2000/svg"><path d="m29.462 23.924v3.998l3.386-1.953v-4.09z" fill="#4040b2"/><path d="m25.709 21.878 3.386 2.046v3.998l-3.386-1.953v-4.09z" fill="#5c4ee5"/><g clip-rule="evenodd" fill-rule="evenodd"><path d="m21.865 23.552v-3.998l3.478 2.046v3.998zm7.23 8.833-3.477-2.046v-3.998l3.478 2.045v3.999z" fill="#5c4ee5"/><path d="m17.203 10.195a.472.472 0 0 1 .018.02l3.516 3.516a.5.5 0 1 1 -.707.707l-2.682-2.682v9.124a.5.5 0 1 1 -1 0v-9.123l-2.681 2.681a.5.5 0 0 1 -.707-.707l3.517-3.517a.499.499 0 0 1 .371-.165m.355.146a.499.499 0 0 0 -.354-.146z" fill="#0278d5"/><path d="m16.852 4.888c-6.35 0-11.5 5.15-11.5 11.5 0 6.352 5.15 11.5 11.5 11.5a.5.5 0 1 1 0 1c-6.903 0-12.5-5.596-12.5-12.5 0-6.903 5.597-12.5 12.5-12.5 6.904 0 12.5 5.597 12.5 12.5a.5.5 0 1 1 -1 0c0-6.35-5.148-11.5-11.5-11.5z" fill="#0278d5"/></g></svg>