<svg viewBox="0 0 41 40" fill="none" xmlns="http://www.w3.org/2000/svg"><path d="M30.238 21.307a9.412 9.412 0 0 0-6.747 4.292c-.263.412-.627 1.129-.8 1.566a8.937 8.937 0 0 0-.584 2.296c-.079.607-.079 1.72 0 2.326a8.999 8.999 0 0 0 .946 3.086 8.887 8.887 0 0 0 1.762 2.414 9.327 9.327 0 0 0 5.446 2.654c.607.079 1.72.079 2.326 0a9.392 9.392 0 0 0 6.77-4.292c.49-.765.935-1.793 1.161-2.662.206-.802.28-1.429.28-2.363 0-.562-.014-.833-.057-1.163a9 9 0 0 0-.945-3.086 8.889 8.889 0 0 0-1.762-2.414 9.327 9.327 0 0 0-5.447-2.654c-.581-.076-1.784-.076-2.349 0Zm1.678 1.993c.211.017.262.029.319.085a.225.225 0 0 1 .065.133c0 .053.042.087.24.189.635.319 1.078 1.002 1.163 1.784.014.139.025.161.082.175.087.023.163.141.146.229-.01.056.015.096.15.212a.775.775 0 0 1 .167.172c0 .014-.045.025-.102.025h-.102l.198.21c.24.259.517.657.644.93.127.278.226.67.296 1.187l.062.426.19.353c.477.886.733 1.572.733 1.96-.002.406-.2.86-.51 1.17-.184.184-.195.201-.195.326 0 .344-.19 1.761-.252 1.874-.014.023-.053-.014-.124-.113l-.104-.15v.184c0 .393-.124 1.395-.195 1.584-.017.05-.023.05-.116-.017-.09-.068-.099-.068-.118-.023-.012.029-.06.303-.108.613-.05.308-.113.616-.144.683a.967.967 0 0 1-.494.463.902.902 0 0 1-1.093-.409 6.579 6.579 0 0 1-.206-.678c-.124-.488-.152-.564-.197-.561a7.024 7.024 0 0 0-.305.05 2.166 2.166 0 0 1-.853 0 7.024 7.024 0 0 0-.305-.05c-.048-.003-.073.064-.189.52-.178.68-.206.747-.378.92a.869.869 0 0 1-1.209.036c-.206-.18-.262-.327-.358-.971a9.319 9.319 0 0 0-.107-.615c-.02-.046-.029-.046-.119.022-.07.054-.102.062-.116.037-.065-.119-.192-1.14-.195-1.559v-.226l-.11.15c-.062.082-.116.136-.124.124-.042-.07-.18-1.024-.234-1.617l-.02-.212-.223-.167c-.66-.488-.932-1.225-.703-1.908.135-.401.463-.988.912-1.63.152-.22.164-.248.206-.508.119-.745.361-1.304.844-1.942.093-.124.22-.28.282-.347l.11-.119H29c-.062 0-.116-.005-.116-.014 0-.022.184-.183.325-.282.11-.08.116-.093.082-.141-.051-.068-.054-.382-.003-.446.017-.029.068-.06.113-.071.068-.017.087-.054.183-.333.144-.42.303-.68.582-.96a2 2 0 0 1 .864-.508c.121-.034.17-.06.17-.096 0-.048.095-.15.169-.178a.587.587 0 0 1 .17-.006c.07.009.24.02.378.031Z" fill="#5849A6"/><path fill-rule="evenodd" clip-rule="evenodd" d="M32.234 23.385c-.056-.056-.107-.068-.319-.085l-.145-.01a7.271 7.271 0 0 1-.233-.02.587.587 0 0 0-.17.005c-.073.028-.169.13-.169.178 0 .037-.048.062-.17.096a2.002 2.002 0 0 0-.863.508c-.28.28-.438.54-.582.96-.096.28-.116.316-.183.333-.046.011-.096.042-.113.07-.051.066-.048.379.002.447.034.048.029.062-.082.14-.14.1-.324.26-.324.283 0 .009.053.014.116.014h.118l-.11.119c-.062.068-.19.223-.282.347-.483.638-.726 1.197-.845 1.942-.042.26-.053.288-.206.509-.448.64-.776 1.228-.912 1.629-.228.683.043 1.42.703 1.908l.224.167.02.212c.053.593.191 1.547.234 1.617.008.012.062-.042.124-.124l.11-.15v.226c.003.418.13 1.44.195 1.559.014.025.045.017.116-.037.09-.068.098-.068.118-.023.011.029.06.305.107.616.096.644.153.79.359.971a.87.87 0 0 0 1.208-.037c.173-.172.2-.24.379-.92.116-.455.14-.522.189-.52.028.003.167.026.305.051.316.057.536.057.852 0 .139-.025.277-.048.305-.05.046-.003.074.073.198.561.082.311.175.616.206.678a.902.902 0 0 0 1.093.41.966.966 0 0 0 .494-.464c.03-.067.093-.375.144-.683.048-.31.096-.584.107-.612.02-.046.028-.046.119.022.093.068.099.068.115.017.071-.19.195-1.191.195-1.584v-.183l.105.15c.07.098.11.135.124.112.062-.113.251-1.53.251-1.874 0-.125.012-.142.195-.325.31-.31.508-.765.511-1.172 0-.386-.257-1.073-.734-1.96l-.19-.352-.061-.426c-.07-.517-.17-.91-.297-1.186a4.247 4.247 0 0 0-.643-.932l-.198-.209h.102c.056 0 .101-.011.101-.025a.775.775 0 0 0-.166-.172c-.136-.116-.161-.156-.15-.212.017-.088-.06-.206-.147-.229-.056-.014-.068-.037-.082-.175-.084-.782-.528-1.465-1.163-1.784-.197-.102-.24-.136-.24-.19a.226.226 0 0 0-.065-.132Z" fill="#fff"/><path fill-rule="evenodd" clip-rule="evenodd" d="M32.234 23.385c-.056-.056-.107-.068-.319-.085l-.144-.01a7.245 7.245 0 0 1-.234-.02.587.587 0 0 0-.17.005c-.073.028-.169.13-.169.178 0 .037-.048.062-.17.096a2.002 2.002 0 0 0-.863.508c-.28.28-.438.54-.582.96-.096.28-.116.316-.183.333-.045.011-.096.042-.113.07-.051.066-.048.379.003.447.013.019.02.032.017.047.128.175.396.529.608.774a1.69 1.69 0 0 0 1.04.552c.362.05.914.102 1.183.094.269-.007.82-.225.966-.37l.1-.094c.212-.198.63-.587.75-.887-.025-.034-.029-.059-.023-.088.017-.088-.06-.206-.147-.229-.056-.014-.067-.037-.081-.175-.085-.782-.529-1.465-1.164-1.784-.197-.102-.24-.136-.24-.19a.226.226 0 0 0-.065-.132Z" fill="#17A9F9"/><circle cx="31.581" cy="26.006" fill="#1794DA" r=".983"/><circle cx="31.581" cy="25.832" fill="#fff" r=".983"/><path d="m31.614 25.202-.526 1.046c-.072-.1-.196-.396-.09-.674.107-.279.455-.364.616-.372Z" fill="#F2F2F2"/><path fill-rule="evenodd" clip-rule="evenodd" d="M35.478 32.75c-.34.23-1.062.642-1.66.732.442-.048 1.32-.201 1.637-.46.004-.063.007-.117.007-.156 0-.05.002-.083.016-.116Zm-7.762.463c.29.091 1.054.23 1.817.066-.265.012-1.002-.042-1.844-.351l.02.209.007.076Zm.878-2.003c-.359-.212-.473-.573-.453-.713-.045.27-.096.686.896 1.242.754.424 2.388.208 3.134.02v.069h.098l-.047.06v.174c.383-.34 1.044-.423 1.326-.422.51-.062.851.416.958.662a2.521 2.521 0 0 0-.186-.41c-.108-.197-.223-.277-.268-.293.59-.252.78-.79.8-1.027-.143.451-.496.634-.733.757-.048.024-.09.047-.126.068-.172.104-.69.116-.929.11l.018.035-.475-.027.106.125c-.13.04-.416.017-.542 0v-.063a.945.945 0 0 1-.225.022c-.475-.011-1.048-.282-1.276-.416v.222c.154.12.761.258 1.046.312-.44.133-1.276.13-1.639.11l.158-.157c-.187.014-.647.01-.985-.12-.338-.13-.516-.23-.563-.264a.966.966 0 0 1 .48-.181c.45-.029 1.169.398 1.458.587l-.02-.189c-.166-.158-.975-.54-1.379-.54-.28 0-.54.17-.632.247Z" fill="#E6E6E6"/><path fill-rule="evenodd" clip-rule="evenodd" d="M29.654 29.102c-.132-.096-.16-.203-.07-.254.07-.042.082-.04.211.05.308.21.828.424 1.217.498.83.158 1.584.022 2.37-.427.228-.13.282-.15.33-.124.095.051.07.158-.063.257-.158.116-.55.31-.807.404a3.67 3.67 0 0 1-2.304.025 4.147 4.147 0 0 1-.884-.429Zm.088-1.259a.321.321 0 0 0-.096.127c-.045.11.003.24.116.297.113.059.177.053.276-.032.235-.197-.048-.567-.296-.392Zm3.396-.011c-.03.017-.07.076-.093.127-.037.087-.037.11.003.192.079.166.24.2.378.084.175-.146.08-.434-.144-.434a.34.34 0 0 0-.144.03Z" fill="#000"/><path fill-rule="evenodd" clip-rule="evenodd" d="M22.838 4.7c.967 3.102 2.006 5.83 2.955 8.238.196.498.389.982.576 1.452.748 1.885 1.41 3.548 1.902 5.045a.5.5 0 0 0 .95-.313c-.503-1.528-1.179-3.228-1.929-5.116-.186-.467-.376-.945-.569-1.435-.977-2.48-2.043-5.281-3.026-8.477a.62.62 0 0 0-.288-.359.734.734 0 0 0-.344-.09 1.546 1.546 0 0 0-.549.107c-.355.128-.803.371-1.29.698-.98.658-2.2 1.71-3.282 3.049-2.07 2.56-3.707 6.282-1.978 10.32l-.13.031a4.282 4.282 0 0 1-1.582.049c-1.22-.195-2.833-1.02-4.113-3.79a.5.5 0 0 0-.812-.138l.358.348-.358-.348-.002.002-.003.003-.01.01a7.253 7.253 0 0 0-.486.61 11.405 11.405 0 0 0-1.04 1.812c-.753 1.618-1.493 4.058-1.493 7.387 0 6.766 5.326 12.277 11.928 12.277.99 0 1.952-.124 2.872-.358a.5.5 0 0 0-.246-.969c-.841.214-1.72.327-2.626.327-6.021 0-10.928-5.034-10.928-11.277 0-3.175.705-5.472 1.4-6.966.325-.7.648-1.225.898-1.583 1.35 2.486 3.043 3.407 4.504 3.64a5.284 5.284 0 0 0 2.535-.224 3.4 3.4 0 0 0 .211-.083l.015-.006.005-.002.001-.001s.002 0-.21-.454l.212.453a.5.5 0 0 0 .236-.676c-1.86-3.735-.42-7.24 1.62-9.766 1.016-1.258 2.162-2.243 3.062-2.847.443-.297.807-.49 1.054-.58Zm-6.394 12.962Z" fill="#fff"/><path fill-rule="evenodd" clip-rule="evenodd" d="M18.535 24.987a.5.5 0 0 1 .582.402l-.492.09.492-.09v.005l.003.01.005.033.018.118a7.106 7.106 0 0 1 .029 1.687c-.094.777-.413 1.814-1.443 2.165a.5.5 0 0 1-.182.026c-.572-.024-1.186-.3-1.743-.642a11.408 11.408 0 0 1-1.649-1.26 13.072 13.072 0 0 1-1.268-1.312l-.023-.028a8.31 8.31 0 0 0-.209.413c-.247.528-.465 1.17-.47 1.907-.018 2.505.936 3.98 2.122 4.914 1.216.956 2.713 1.37 3.83 1.654a.5.5 0 1 1-.246.97c-1.115-.284-2.802-.738-4.202-1.838-1.43-1.124-2.524-2.893-2.504-5.707.006-.932.282-1.72.565-2.324.14-.3.284-.558.398-.762l.002-.004c.126-.224.188-.34.211-.406a.5.5 0 0 1 .972.124 3.745 3.745 0 0 0 .326.45c.282.344.694.778 1.168 1.207.474.43.997.842 1.499 1.15.464.283.864.447 1.167.487.388-.182.606-.643.686-1.304.047-.386.036-.776.012-1.075a6.256 6.256 0 0 0-.053-.45l-.004-.023v-.005m.401-.582a.5.5 0 0 0-.402.582Z" fill="#fff"/></svg>