<svg fill="none" viewBox="0 0 1263 1128" xmlns="http://www.w3.org/2000/svg"><path d="m1262.96 450c0 17.021 0 34.042-.36 51.732-2.66 19.226-4.96 37.782-7.45 56.672-1.2.825-2.21 1.316-3.38 1.497-5.95-6.981-11.77-13.652-17.71-20.623-4.72-5.44-9.31-10.58-13.97-16.028-1.65-1.999-3.22-3.69-4.92-5.707-3.82-3.486-7.51-6.646-11.59-10.049-2.8-.207-5.21-.172-8.03-.271-4.49-.203-8.56-.27-13.01-.382-1.11.042-1.85.128-2.93-.029-10.76-.513-21.2-.784-32.07-1.175-2.83-.096-5.24-.072-8.05-.213-2.77-.144-5.13-.123-7.9-.256-2.16-.115-3.92-.075-5.97-.191-2.11-.146-3.91-.135-6.09-.236-1.43-.045-2.48.021-3.89-.064-2.82-.131-5.28-.11-8.15-.253-2.77-.147-5.13-.129-7.89-.265-1.82-.106-3.25-.057-4.99-.169-2.45-.156-4.57-.153-7.08-.258-1.43-.04-2.48.029-3.89-.06-2.82-.137-5.28-.115-8.15-.262-2.77-.149-5.13-.128-7.89-.26-1.83-.105-3.25-.057-4.99-.17-2.44-.156-4.57-.151-7.08-.254-1.43-.041-2.48.025-3.89-.068-2.82-.141-5.28-.121-8.15-.261-2.77-.146-5.13-.131-7.82-.283-.81-.088-1.29-.009-2.1-.115-3.09-.151-5.87-.116-9.04-.179-1.78-.063-3.15-.029-4.86-.216-2.83-.156-5.31-.091-8.22-.136-2.76-.122-5.1-.135-7.81-.369-8.16-.275-15.956-.33-24.185-.49-3.1-.163-5.768-.22-8.816-.446-2.495-.093-4.61-.017-7.136-.026-2.545-.041-4.679.003-6.89.058-.077.01-.184-.103-.481-.316-2.915-.081-5.533.051-8.531-.064-2.804-.265-5.227-.283-8.087-.478-7.539-.394-14.641-.745-21.745-.783-4.583-.025-9.169.41-14.079.571-1.153.189-1.98.445-3.172.681-1.67.572-2.976 1.163-4.598 1.751-1.594.692-2.872 1.387-4.521 2.113-5.424 2.675-10.476 5.32-15.905 7.984-3.67 2.048-6.963 4.077-10.572 6.095-1.917.97-3.517 1.951-5.477 2.983-10.804 6.859-21.249 13.668-32.047 20.591-7.439 5.609-14.525 11.106-21.899 16.617-.721.333-1.154.651-1.925 1.031-2.944 2.196-5.549 4.33-8.456 6.612-11.977 10.967-24.083 21.365-35.195 32.735-9.696 9.921-18.271 20.937-27.55 31.546-.456.276-.585.534-.904.982-2.052 2.467-3.796 4.803-5.806 7.28-.85 1.145-1.433 2.15-2.313 3.34-4.772 6.465-9.25 12.743-14.007 19.22-5.228 8.581-10.176 16.964-15.391 25.572-1.741 3.07-3.215 5.915-4.969 9.008-1.324 2.379-2.368 4.511-3.663 6.856-2.58 5.444-4.908 10.675-7.487 16.134-.894 1.895-1.537 3.562-2.429 5.403-.485.929-.721 1.683-1.177 2.703-.684 1.552-1.148 2.839-1.878 4.357-2.567 6.599-4.869 12.965-7.423 19.596-.82 2.073-1.389 3.881-2.139 5.995-1.122 3.81-2.062 7.313-3.188 11.107-.238.744-.289 1.197-.562 1.756-.247.697-.271 1.287-.489 2.131-.225.673-.257 1.091-.546 1.731-.953 3.099-1.648 5.976-2.524 9.173-.702 2.774-1.223 5.227-1.973 7.97-.678 2.802-1.127 5.315-1.837 8.101-.503 1.765-.744 3.256-1.181 5.033-.387 2.101-.578 3.917-.937 6.089-.211 1.139-.254 1.92-.495 2.923-.58 3.071-.962 5.92-1.482 9.152-.181 1.46-.224 2.539-.47 3.923-.292 1.786-.382 3.265-.622 5.086-.187 1.083-.224 1.824-.44 2.702-.138.693-.095 1.25-.157 2.056-.079.429-.053.607-.196.966-.169.18-.023.652-.163 1-.2 1.852-.261 3.357-.514 5.158-.2 1.468-.209 2.639-.366 4.205-.237 2.088-.325 3.781-.609 5.797-.272 2.116-.348 3.908-.571 6.088-.088 1.467-.03 2.545-.078 3.949-.074.776-.042 1.226-.232 1.979-.258 2.104-.293 3.906-.489 6.122-.168 2.789-.175 5.162-.295 7.906-.092 1.137-.07 1.905-.241 2.923-.178 1.72-.163 3.189-.298 5.069-.295 5.494-.44 10.577-.789 16.005-.263 5.463-.322 10.581-.522 16.136-.166 4.804-.193 9.169-.414 13.842-.217 2.752-.238 5.197-.357 7.964-.024.757.05 1.193-.043 1.975-.094 2.159-.021 3.972-.076 6.225-.189 4.472-.251 8.502-.51 12.837-.216 2.749-.236 5.192-.362 8.038-.068 1.778-.029 3.154-.149 4.821-.056 1.149.049 2.006.03 3.26-.068 1.769-.013 3.141-.148 4.916-.21 2.479-.23 4.554-.432 6.986-.33 8.468-.478 16.58-.744 25.05-.094 1.1-.073 1.85-.247 2.94-.461 4.78-.725 9.21-1.038 14.07-.011 2.46.025 4.48-.031 6.95-.064 2.82-.034 5.2-.101 8.02-.076 2.8-.054 5.17-.243 7.88-.162 2.8-.113 5.27-.17 8.13-.064 1.45-.022 2.52-.165 3.9-.096.77-.006 1.24-.055 1.99-.177 1.75-.214 3.19-.419 5.01-.107 1.45-.048 2.53-.121 3.84.011 1.09.154 1.94.131 3.13-.171 2.1-.176 3.86-.426 6-.226 2.83-.207 5.27-.299 8.12-.199 5.43-.288 10.46-.594 15.89-.284 3.17-.351 5.93-.541 8.92-.08 1.06-.037 1.9-.157 3.1-.756 2.45.958 6.08-3.82 5.25-5.364-3.12-10.514-5.97-15.871-9.1-8.475-4.81-16.742-9.34-25.211-14.13-4.768-2.98-9.335-5.69-14.076-8.7-8.754-5.4-17.335-10.51-26.107-15.9-5.36-3.65-10.528-7.01-15.854-10.64-7.892-5.45-15.625-10.63-23.59-16.03-2.869-2.01-5.505-3.79-8.323-5.84-2.776-2-5.368-3.73-8.078-5.76-1.857-1.42-3.597-2.55-5.542-3.97-3.538-2.64-6.87-5-10.329-7.63-10.578-8.39-21.03-16.51-31.694-24.87-2.919-2.21-5.626-4.17-8.505-6.449-3.623-3.118-7.076-5.924-10.684-9.022-1.854-1.664-3.551-3.036-5.377-4.703-1.322-1.162-2.515-2.03-3.866-3.195-4.104-3.708-8.049-7.118-12.108-10.838-1.88-1.87-3.646-3.431-5.559-5.283-.812-.83-1.476-1.371-2.254-2.207-2.03-1.999-3.947-3.701-5.98-5.686-.748-.774-1.38-1.264-2.109-2.068-1.999-2.087-3.9-3.861-5.918-5.952-3.334-3.603-6.549-6.89-9.858-10.477-1.741-1.935-3.388-3.569-5.142-5.508-1.042-1.178-1.978-2.051-3.001-3.232-1.433-1.665-2.78-3.022-4.228-4.696-3.453-4.091-6.804-7.865-10.22-11.939-1.178-1.493-2.289-2.687-3.476-4.216-2.008-2.526-3.94-4.718-5.917-7.105-.043-.195-.38-.41-.434-.743-6.061-8.444-12.068-16.556-18.074-24.667-.428.12-.856.24-1.284.36-.497 2.851-.995 5.702-1.71 8.846-.649 2.457-1.08 4.62-1.703 6.979-.165.731-.138 1.267-.324 2.109-.252.792-.292 1.279-.529 1.947-.213.699-.229 1.216-.476 2.065-.316 1.116-.403 1.901-.634 2.85-.147.721-.148 1.279-.352 2.159-1.488 7.447-2.774 14.571-4.278 22.038-.527 2.446-.835 4.548-1.324 6.778-.143.694-.106 1.26-.222 2.143-.298 1.465-.441 2.613-.764 3.895-.18.697-.181 1.261-.314 2.054-.051.387.029.544-.041 1.073-.457 2.772-.764 5.172-1.336 7.875-.729 5.444-1.191 10.587-1.867 16.068-.398 2.776-.583 5.214-.961 7.997-.365 2.78-.537 5.215-.877 8.002-.291 2.485-.414 4.616-.703 6.991-.119 1.411-.072 2.578-.157 4.091-.155 1.812-.178 3.277-.381 5.148-.265 2.768-.35 5.128-.584 7.858-.26 2.82-.371 5.26-.614 8.12-.089 2.79-.045 5.16-.183 7.84-.099 2.77-.016 5.21-.042 8.06-.073 1.81-.036 3.21-.145 4.96-.098 3.13-.051 5.92-.12 9.02-.011.76.095 1.19.108 1.99-.025 1.12.041 1.88-.02 2.98.156 4.48.44 8.61.609 13.08.081 1.75.277 3.15.342 4.77.071.98.273 1.74.48 2.66.004.16.198.39.104.77.117 1.36.327 2.36.422 3.54.03.72.175 1.26.235 2.08.04.85.165 1.41.208 2.38.459 2.76 1.001 5.11 1.521 7.89.35 1.77.721 3.11 1.015 4.83.815 3.87 1.706 7.37 2.65 11.26.725 2.7 1.396 5 2.048 7.67.744 2.83 1.507 5.31 2.174 8.02-.723.59-1.35.94-2.189 1.03-11.242-8.39-22.272-16.51-33.38-24.85-.288-.45-.554-.58-1.027-.9-2.376-1.85-4.599-3.39-7.007-5.19-1.81-1.29-3.436-2.31-5.177-3.66-3.272-3.27-8.195-4.26-9.632-9.37-.56-1.34-1.107-2.37-1.809-3.29-33.564-43.95-59.199-92.077-75.985-144.816-12.43-39.054-20.049-79.079-21.564-120.021-.966-26.093-.657-52.27.126-78.378.493-16.427 2.409-32.865 4.615-49.172 2.497-18.448 6.033-36.755 9.118-55.123.995-5.923.475-6.421-5.386-5.713-12.137 1.467-23.237 5.579-33.262 12.625-1.132.796-2.675 1.007-3.909 1.115.127-1.128.137-1.882.3-2.929.15-.729.147-1.164.332-1.995.231-1.863.121-3.355.341-4.797.859-5.633 1.821-11.251 2.849-17.092.104-.217.033-.695.222-.924.471-.805.754-1.38 1.25-2.298.311-1.412.409-2.48.743-3.849.822-3.995 1.409-7.689 2.006-11.443-2.518-.14-4.372-.243-6.52-.376-.819.214-1.343.457-2.119.687-.364.111-.475.237-.944.373-1.422.468-2.486.926-3.877 1.359-1.507.478-2.688.98-4.254 1.495-5.462 2.589-10.538 5.166-15.9886 7.793-3.8776 2.463-7.3801 4.875-11.2062 7.309-1.6493 1.066-2.9751 2.111-4.6312 3.23-2.7995 1.971-5.269 3.867-8.0626 5.857-2.6142 2.283-4.9041 4.472-7.345 6.711-.151.051-.2652.348-.5848.446-2.9391 2.528-5.5586 4.957-8.4546 7.565-2.633 2.516-4.9895 4.853-7.6267 6.974-.2662-.871-.3385-1.541-.225-2.178 6.1733-34.65 15.0627-68.571 27.6027-101.481 16.6431-43.678 37.025-85.244 68.659-120.389 1.023-1.137 1.697-2.588 2.533-3.892-.193-.59-.386-1.179-.579-1.769-19.772 0-39.545 0-59.3738-.243-.0559-.243-.2111-.717.0233-.823.4661-.55.6977-.996 1.2265-1.614 3.0543-3.842 5.8113-7.51 8.866-11.335 4.633-5.619 8.968-11.081 13.303-16.543-.346-.508-.692-1.016-1.038-1.524-4.217.319-8.434.638-13.0787.832-2.7949.012-5.1617.148-7.861.166-2.7934.033-5.2545.186-8.1276.231-2.7971.205-5.1822.517-8.0117.826-2.8149.073-5.1855.149-7.9918.15-2.7909-.015-5.146.045-7.7552.027-.4311-.089-.6079-.1-.9545-.468.7242-1.639 1.4187-3.138 2.542-4.172 16.7893-15.45 33.7874-30.677 50.4395-46.273 47.984-44.944 91.086-94.399 133.446-144.554 17.646-20.894 36.562-40.698 57.876-57.873 36.925-29.7532 78.683-51.0376 123.012-67.3094 55.22-20.2697 112.345-30.4136 171.182-29.0572 21.893.5047 43.816 2.847 65.569 5.5929 45.141 5.6982 88.509 18.4691 130.646 35.3785 60.584 24.3125 116.571 57.0222 170.155 94.0452 2.545 1.758 5.282 3.239 8.168 5.09 7.285 5.881 14.483 11.342 21.344 17.198 11.516 9.831 22.826 19.914 34.426 30.144 2.93 2.513 5.66 4.774 8.46 7.201.07.166.41.299.54.608 2.55 2.322 4.95 4.335 7.47 6.59.56.477 1.02.713 1.63 1.251 5.2 4.848 10.03 9.667 15.36 13.855 4.47 3.52 7.81 9.382 15.24 8.578 3.83.579 7.28 1.002 11.09 1.571 1.11.181 1.86.216 2.92.502 4.09.942 7.88 1.634 12.01 2.527 1.12.265 1.89.33 2.91.617 1.09.352 1.94.48 3.11.792 2.74.719 5.16 1.253 7.9 1.981 5.47 1.766 10.61 3.338 16.04 5.141 2.75 1.063 5.23 1.895 7.9 2.939.73.339 1.26.466 2.08.822 4.77 2.173 9.26 4.119 13.95 6.313 1.57.844 2.93 1.438 4.51 2.303 3.9 2.323 7.59 4.377 11.47 6.701 1.33.938 2.47 1.606 3.8 2.529 1.8 1.23 3.41 2.204 5.2 3.457 1.47 1.114 2.76 1.95 4.16 3.063.94.799 1.77 1.322 2.76 2.135 2.43 2.011 4.7 3.731 7.06 5.711.67.672 1.25 1.084 1.96 1.824 2.02 1.936 3.92 3.545 5.88 5.398.33.421.61.597.97 1.098 2.52 2.948 4.95 5.571 7.56 8.478 6.21 8.332 12.24 16.38 18.35 24.763 1.95 3.284 3.82 6.233 5.71 9.505.86 1.833 1.7 3.344 2.57 5.214 2.35 5.454 4.67 10.547 6.98 15.997.75 2.11 1.51 3.863 2.27 5.98 1.94 6.157 3.88 11.951 5.78 18.111.67 2.757 1.36 5.147 2.01 7.859.26 1.112.57 1.901.83 3.038.1.792.23 1.235.33 2.065 1.54 10.879 3.07 21.381 4.73 31.86.36 2.296 1.23 4.513 1.87 6.767zm-878.149-309.873c12.319-5.057 24.604-10.199 36.963-15.156 52.068-20.884 106.151-32.8644 162.187-34.9229 23.916-.8785 48.008-.7533 71.849 1.1099 28.31 2.2125 56.574 5.9435 84.6 10.575 28.38 4.69 56.299 11.821 83.28 22.14 1.579.604 3.367.663 5.057.975.111-.447.222-.894.333-1.341-1.863-.867-3.761-1.667-5.58-2.617-2.028-1.059-3.917-2.399-5.982-3.37-27.801-13.065-56.625-23.3214-86.267-31.3216-61.784-16.6751-124.351-22.2799-187.945-13.2549-52.093 7.3928-100.159 25.4519-143.949 54.6705-5.468 3.648-10.455 8.015-16.105 12.153-.092.317-.184.633-.276.95.361-.199.721-.398 1.835-.59zm362.599 80.913c-38.038-10.167-76.076-20.333-114.114-30.5-.218.49-.436.981-.654 1.471.614 1.122 1.1 2.341 1.861 3.352 24.232 32.185 50.481 62.507 82.559 87.221 16.516 12.725 33.62 24.687 53.947 30.777 20.551 6.157 40.956 6.627 61.021-2.205 27.434-12.077 44.123-34.051 55.91-60.548.413-.93.234-2.123.382-3.757-7.254 0-14.06.297-20.829-.072-9.458-.515-19.159-.381-28.281-2.536-30.446-7.194-60.68-15.284-91.802-23.203zm-152.07 487.901c-8.416 42.163-11.519 84.787-10.938 127.713.579 42.718 4.936 85.04 13.66 126.925.646-1.912.736-3.803.63-5.684-.488-8.645-1.328-17.282-1.5-25.933-.652-32.846.737-65.597 4.621-98.25 5.894-49.552 17.053-97.769 36.345-143.893 20.747-49.602 49.13-94.011 88.903-130.814 28.474-26.347 60.89-46.301 96.148-61.971 6.726-2.99 13.529-5.803 20.297-8.697-1.27-1.158-2.198-1.234-3.11-1.147-30.537 2.908-60.16 9.507-88.436 21.682-41.799 17.996-76.398 45.195-103.675 81.551-26.423 35.22-42.936 74.982-52.945 118.518zm-5.407 365.609c-2.824-1.42-5.676-2.79-8.466-4.28-48.307-25.76-90.297-60.03-129.984-97.259-36.143-33.902-69.046-70.787-98.866-110.396-.903-1.199-2.376-1.969-3.583-2.939-.386.424-.773.848-1.159 1.271 28.512 49.807 64.18 93.716 107.265 131.918 36.02 31.935 129.826 89.665 146.905 87.935-4.539-2.33-7.998-4.11-12.112-6.25zm-313.777-76.959c1.339 17.749 2.391 35.519 4.144 53.229.8 8.08 2.919 16.04 4.619 24.01.218 1.03 1.522 1.82 2.323 2.72.538-1.07 1.409-2.1 1.537-3.21.206-1.8-.058-3.66-.16-5.49-.59-10.63-1.597-21.26-1.687-31.9-.117-13.81-.124-27.68.932-41.437 1.692-22.043 3.63-44.111 6.717-65.992 2.684-19.022 9.157-37.135 17.218-54.623.532-1.155-.139-2.864-.251-4.316-1.276.724-3.215 1.133-3.73 2.219-6.769 14.27-14.729 28.177-19.648 43.08-8.602 26.064-10.873 53.395-12.014 81.71zm248.557-594.982c.988-1.635 2.456-3.159 2.862-4.928.834-3.626 2.312-5.47 6.219-3.92.856.339 1.776.518 2.667.771.271-.281.541-.561.812-.842-3.617-5.61-7.234-11.221-10.503-16.291-2.241 2.303-3.9 4.009-5.56 5.715-1.545-1.669-3.105-3.325-4.631-5.01-.938-1.037-1.827-2.118-2.738-3.18-.368.251-.736.502-1.104.752.7 2.491 1.654 4.942 2.058 7.48 1.763 11.098 1.705 11.107 9.918 19.453zm-36.819-169.09c.924.318 1.847.636 2.771.954.251-.377.502-.753.752-1.129-3.645-3.46-7.382-6.83-10.906-10.41-2.595-2.635-4.933-2.493-7.104.236-2.248 2.826-4.857 4.341-8.589 3.663-.788-.142-1.718.499-2.583.779 8.53 3.202 11.862 9.42 10.931 18.052 4.335-4.731 8.167-8.967 12.113-13.094.256-.268 1.387.302 2.615.949zm-296.151 507.793c-.89-1.315-1.496-3.189-2.735-3.819-2.007-1.022-4.432-1.218-6.676-1.78-6.433-1.613-7.171-1.201-8.126 5.194-.315 2.107-.432 4.317-.149 6.414.176 1.302.964 2.956 2.008 3.636 6.305 4.103 10.741 2.679 13.804-4.231.667-1.506 1.135-3.101 1.874-5.414zm175.561 8.868c-2.667-1.34-5.36-2.63-7.993-4.033-3.208-1.709-4.84-.306-6.068 2.662-2.784 6.725-2.738 11.388.317 12.667.152.064.315.115.478.138 4.488.636 8.977 1.267 13.232 1.866.788-3.237 1.73-6.21 2.14-9.256.153-1.141-.932-2.45-2.106-4.044zm320.631-294.777c-1.063-.933-1.984-2.197-3.22-2.728-2.255-.969-4.832-1.222-7.028-2.283-3.724-1.8-4.682-.473-4.772 3.187-.055 2.275-.77 4.565-1.416 6.782-.361 1.239-1.993 2.905-1.647 3.401.939 1.349 2.518 2.833 4.039 3.085 3.884.642 7.874.643 11.237.862.801-3.61 1.678-7.564 2.807-12.306zm-67.964 387.955c.43-2.121 1.192-4.243 1.185-6.362-.006-1.705-.648-4.684-1.517-4.885-3.377-.777-9.027-2.076-10.028-.601-2.046 3.017-2.253 7.742-1.987 11.681.147 2.166 9.428 2.685 12.347.167zm-319.986-180.815c-.844 1.22-1.905 2.346-2.49 3.68-1.536 3.503 1.022 5.676 3.432 6.744 2.23.987 6.834 1.439 7.406.431 1.627-2.865 3.23-7.279 2.073-9.824-1.671-3.674-6.052-4.197-10.421-1.031zm80.914-331.111c.428.71.789 1.471 1.294 2.121 2.941 3.78 7.371 5.562 9.19 3.738 2.158-2.164 1.165-8.09-1.834-10.929-.241-.228-.479-.584-.757-.626-1.994-.303-4.561-1.404-5.847-.566-1.4.913-1.614 3.645-2.046 6.262zm51.632 47.398c-3.514.418-4.84 2.58-4.369 5.859.526 3.654 2.789 6.334 6.366 6.451 1.503.049 3.73-2.294 4.508-4.046 1.481-3.337-.075-6.062-3.324-7.673-.713-.353-1.577-.406-3.181-.591z" fill="#000"/><path d="m971.581 167.273c-2.647-1.61-5.384-3.091-7.929-4.849-53.584-37.023-109.571-69.7327-170.155-94.0452-42.137-16.9094-85.505-29.6802-130.646-35.3785-21.753-2.7458-43.676-5.0882-65.569-5.5929-58.837-1.3564-115.962 8.7875-171.182 29.0572-44.329 16.2718-86.087 37.5562-123.012 67.3094-21.314 17.175-40.23 36.979-57.876 57.873-42.36 50.155-85.462 99.61-133.446 144.554-16.6521 15.596-33.6502 30.823-50.4395 46.273-1.1233 1.034-1.8178 2.533-2.8472 4.356-2.2722.432-4.4088.325-6.9816.131-2.8083-.053-5.1804-.02-7.991-.047-2.7918-.046-5.1451-.031-7.9355-.116-2.814-.092-5.1909-.085-7.9117-.276-2.8392-.178-5.3346-.157-8.2486-.251-2.733-.092-5.0474-.068-7.8026-.142-2.84275-.111-5.2446-.124-7.94694-.233-1.12321-.687-1.94595-1.278-2.60911-2.173 3.99372-4.118 7.72143-8.047 11.68255-11.725 10.7606-9.991 21.6201-19.875 32.7128-29.98 1.9945-1.824 3.7167-3.471 5.7169-5.206.7705-.671 1.263-1.255 2.0416-1.997 2.1564-1.989 4.0267-3.819 6.1647-5.765.7895-.684 1.3114-1.251 2.1111-1.997 2.4281-2.395 4.5784-4.611 7.053-6.916 2.8185-2.666 5.3128-5.243 8.1294-7.909 2.7546-2.667 5.1869-5.246 7.9396-7.929 2.8014-2.72 5.2822-5.336 8.087-8.04 2.7819-2.697 5.2398-5.304 8.0231-7.993 2.775-2.699 5.224-5.317 7.995-8.02 2.746-2.71 5.169-5.335 7.911-8.055 2.736-2.708 5.152-5.32 7.882-8.041 2.737-2.747 5.159-5.386 7.87-8.184 2.426-2.385 4.564-4.61 7-6.989 3.555-3.693 6.917-7.144 10.052-10.791 13.057-15.185 26.046-30.428 39.339-45.81 2.4-2.784 4.521-5.407 6.833-8.14.427-.301.584-.545.956-.995 2.141-2.409 3.987-4.661 6.03-7.122.657-.999 1.119-1.788 1.898-2.722 2.805-3.04 5.292-5.935 8.086-8.987 3.962-4.247 7.617-8.338 11.495-12.675 1.513-1.612 2.803-2.978 4.401-4.493 3.578-3.771 6.849-7.392 10.446-11.04 4.617-4.286 8.906-8.544 13.501-12.967 4.202-3.797 8.1-7.43 12.325-11.122 4.051-3.2837 7.773-6.5095 11.817-9.8508 2.526-2.0129 4.73-3.9104 7.106-5.8212.171-.0134.472-.1759.819-.2328 8.082-5.3013 15.817-10.5456 23.892-15.9216 4.261-2.7868 8.182-5.442 12.418-8.0915 1.374-.6158 2.432-1.2372 3.848-1.9123 5.355-2.7435 10.352-5.4334 15.717-8.1756 5.555-2.5954 10.741-5.1384 16.296-7.7394 5.786-2.3713 11.203-4.6847 16.957-7.0922 2.402-1.0725 4.47-2.0509 6.914-3.0819 5.416-1.9481 10.454-3.8436 15.876-5.8117 2.75-.9154 5.117-1.7582 7.86-2.6082 5.501-1.747 10.627-3.4866 16.15-5.2903 2.794-.848 5.191-1.6321 7.981-2.4325 5.464-1.394 10.536-2.7717 15.986-4.1325 2.78-.6305 5.182-1.2778 7.978-1.9155 2.803-.6383 5.211-1.2864 8.026-1.9168 2.77-.4235 5.133-.86481 7.906-1.27106 5.518-.98902 10.627-2.01309 16.137-3.01158 12.28-1.25719 24.157-2.56626 36.039-3.81261 6.828-.71616 13.667-1.330675 20.5-1.99095 12.355 0 24.709-.00000003 37.773.352106 2.529.463152 4.352.534391 6.168.691544 14.369 1.24365 28.736 2.50366 43.471 3.91314 2.753.60551 5.137 1.05652 7.868 1.70795 2.821.19914 5.295.19787 8.144.22351 1.128.00963 1.88-.00765 2.871.26742 7.086 1.72872 13.932 3.16513 21.156 4.72663 2.753.6116 5.128 1.0981 7.806 1.769 5.476 1.5017 10.648 2.8189 16.168 4.2748 2.76.7581 5.172 1.3775 7.847 2.2473 2.667.8762 5.072 1.502 7.789 2.3845 5.191 1.6164 10.071 2.9761 15.172 4.466.393.1475.563.1648.984.4205 2.768.9961 5.286 1.754 8.136 2.632 1.468.3198 2.605.5194 3.934 1.0173 4.013 1.625 7.833 2.9517 11.918 4.4953 2.693 1.0535 5.12 1.8902 7.828 2.8045.669.1225 1.055.1673 1.638.4855 2.139 1.0214 4.083 1.7694 6.281 2.7488 2.826 1.21 5.398 2.1887 8.28 3.3647 5.37 2.249 10.431 4.3007 15.725 6.6067 5.496 2.6121 10.758 4.9702 16.31 7.5335 5.32 2.5435 10.351 4.8818 15.602 7.4902 2.843 1.5013 5.464 2.7325 8.166 4.2752 7.94 4.3692 15.8 8.4269 23.868 12.7503 5.097 3.0421 9.986 5.8184 15.099 8.8547 8.387 5.1259 16.551 9.9919 24.911 15.1289 5.062 3.418 9.928 6.564 15.001 9.976 8.442 5.729 16.678 11.192 25.071 16.732.158.075.507.09.658.386 2.503 2.032 4.853 3.766 7.375 5.778 1.465.977 2.758 1.677 4.134 2.706 6.539 5.257 12.996 10.186 19.57 15.426 2.46 2.371 4.802 4.431 7.279 6.765.297.807.46 1.34.623 1.872z" fill="#7f8184"/><path d="m747.813 221.127c30.719 7.832 60.953 15.922 91.399 23.116 9.122 2.155 18.823 2.021 28.281 2.536 6.769.369 13.575.072 20.829.072-.148 1.634.031 2.828-.382 3.758-11.787 26.496-28.476 48.47-55.91 60.547-20.065 8.832-40.47 8.362-61.021 2.205-20.327-6.09-37.431-18.052-53.947-30.777-32.078-24.714-58.327-55.036-82.559-87.221-.761-1.011-1.247-2.23-1.861-3.351.218-.491.436-.981.654-1.472 38.038 10.167 76.076 20.334 114.517 30.587z" fill="#fdf000"/><g fill="#7f8184"><path d="m595.44 708.532c9.909-43.127 26.421-82.889 52.845-118.109 27.277-36.356 61.876-63.555 103.675-81.551 28.276-12.175 57.899-18.774 88.435-21.682.913-.087 1.841-.011 3.111 1.147-6.768 2.894-13.572 5.707-20.297 8.697-35.258 15.67-67.675 35.624-96.148 61.971-39.773 36.803-68.156 81.212-88.903 130.814-19.292 46.124-30.451 94.341-36.345 143.893-3.885 32.653-5.273 65.404-4.621 98.25.171 8.651 1.012 17.288 1.5 25.933.106 1.881.016 3.772-.63 5.684-8.724-41.885-13.081-84.207-13.66-126.925-.581-42.926 2.522-85.55 11.038-128.122z"/><path d="m125.02 632.951c1.352-.482 2.895-.693 4.027-1.489 10.025-7.046 21.125-11.158 33.262-12.625 5.861-.708 6.382-.21 5.387 5.713-3.086 18.368-6.622 36.675-9.118 55.123-2.207 16.307-4.123 32.745-4.616 49.172-.783 26.108-1.092 52.285-.126 78.378 1.515 40.942 9.134 80.968 21.564 120.021 16.787 52.739 42.421 100.866 75.985 144.816.702.92 1.249 1.96 1.538 3.44-.538.5-.747.49-1.056.15-7.508-7.5-14.916-14.68-22.478-22.19-5.854-6.86-11.554-13.4-17.301-20.27-3.014-3.99-5.983-7.66-9.031-11.66-5.626-8.09-11.172-15.84-16.812-23.939-2.012-2.922-3.931-5.492-5.868-8.423-2.828-5.291-5.64-10.221-8.458-15.515-2.809-5.475-5.612-10.589-8.492-16.075-1.38-2.888-2.684-5.404-4.058-8.271-1.044-2.168-2.016-3.986-2.994-6.071-.112-.605-.22-.943-.351-1.649-2.537-5.887-5.05-11.407-7.595-17.296-.766-2.4-1.5-4.43-2.263-6.852-1.765-5.406-3.501-10.421-5.317-15.797-.921-2.856-1.762-5.352-2.626-8.242-1.94-6.549-3.858-12.702-5.762-19.231-.165-1.637-.345-2.898-.488-4.544-.658-2.802-1.352-5.22-2.016-8.042-.457-2.756-.945-5.106-1.386-7.852-1.285-5.81-2.615-11.225-3.904-17.033-.269-2.468-.578-4.543-.823-7.043-.35-3.178-.765-5.931-1.207-9.061-.374-2.4-.721-4.424-.995-6.858-.319-2.897-.71-5.384-1.048-8.191-.138-1.39-.329-2.46-.346-3.7-.01-.723-.193-1.276-.37-2.157-.089-.75-.185-1.173-.214-2.014-.527-9.283-1.067-18.152-1.76-27.009-.125-1.599-.885-3.147-1.342-5.157.004-2.779-.001-5.118.233-7.786.133-2.82.028-5.312-.058-8.238-.015-2.753-.049-5.071.077-7.822.052-2.874-.055-5.316-.127-8.189.01-2.745-.014-5.059.127-7.806.055-2.879-.054-5.323-.131-8.201.043-2.753.053-5.072.225-7.79-.009-2.841-.179-5.284-.357-8.166-.005-2.777-.001-5.117.375-7.556 1.344-10.665 2.316-21.231 3.501-32.106.539-2.779.866-5.249 1.308-8.118.619-3.907 1.122-7.413 1.743-11.303.196-1.715.275-3.046.54-4.626.458-1.782.73-3.316 1.002-4.85z"/><path d="m2.90062 670.402c.29408-2.798.62274-5.164.89365-7.935.3929-2.863.84354-5.321 1.14852-8.1-.2186-.653-.29153-.987-.36441-1.571 1.07121-4.876 2.21503-9.485 3.18495-14.13.54069-2.59.79204-5.24 1.32228-8.603.59125-3.14 1.03399-5.539 1.60739-8.332.5646-3.233.9986-6.073 1.5812-9.296.2265-1.752.3043-3.12.6972-4.708 1.081-4.388 1.8469-8.556 2.7814-13.062.4866-1.786.8046-3.233 1.3372-4.889.2691-.776.3234-1.342.5277-2.252.4576-2.039.7652-3.735 1.2709-5.765 2.7882-10.821 5.3785-21.309 8.1675-32.104.6815-2.451 1.1643-4.594 1.9617-6.921 1.923-5.656 3.5314-11.129 5.3776-16.898.8742-2.794 1.5106-5.291 2.4171-7.995 1.8683-5.428 3.4665-10.649 5.2706-16.178.9559-2.742 1.7059-5.176 2.767-7.721 2.2406-5.39 4.1701-10.668 6.3427-16.176.4723-1.547.7015-2.865 1.2278-4.384.7191-1.262 1.141-2.322 1.7015-3.691 1.4366-2.758 2.7347-5.208 4.2746-7.891 2.6797-5.424 5.1178-10.613 7.8247-16.043 2.8083-5.03 5.3478-9.819 8.1525-14.821 5.4656-8.133 10.666-16.052 15.8663-23.972h59.3178c.193.59.386 1.179.579 1.769-.836 1.304-1.51 2.755-2.533 3.892-31.634 35.145-52.0159 76.711-68.6589 120.389-12.5401 32.91-21.4294 66.831-27.6028 101.481-.1135.637-.0412 1.308.3277 2.459.3688.695.3542.893.079 1.3-2.2301 2.602-4.1996 4.996-6.4677 7.556-3.3952 4.337-6.4919 8.508-9.8903 12.841-5.1241 6.112-9.9466 12.061-14.769 18.011-6.2214 7.384-12.44278 14.769-18.66418 22.153-.65261-.266-1.305215-.532-1.95782-.798.978394-9.061 1.95679-18.122 2.90062-27.615z"/><path d="m383.692 139.663c5.21-4.034 10.198-8.401 15.665-12.049 43.79-29.2184 91.856-47.2776 143.949-54.6704 63.594-9.025 126.161-3.4201 187.945 13.2549 29.642 8.0002 58.466 18.2565 86.267 31.3215 2.066.971 3.954 2.311 5.982 3.37 1.819.95 3.717 1.75 5.58 2.617-.111.447-.222.894-.333 1.341-1.69-.312-3.477-.371-5.056-.975-26.981-10.319-54.9-17.45-83.28-22.14-28.027-4.6313-56.291-8.3624-84.6-10.5749-23.841-1.8632-47.934-1.9884-71.85-1.1099-56.036 2.0585-110.119 14.0398-162.187 34.9228-12.359 4.957-24.643 10.099-37.433 15.04-.47-.116-.649-.348-.649-.348z"/><path d="m590.26 1074.73c3.787 1.96 7.246 3.74 11.786 6.07-17.08 1.73-110.886-56-146.906-87.935-43.085-38.202-78.753-82.111-107.265-131.918.386-.423.773-.847 1.159-1.271 1.207.97 2.68 1.74 3.583 2.939 29.82 39.609 62.723 76.494 98.866 110.396 39.687 37.229 81.677 71.499 129.984 97.259 2.79 1.49 5.643 2.86 8.793 4.46z"/></g><path d="m276.163 997.108c1.134-27.832 3.405-55.163 12.007-81.227 4.919-14.903 12.879-28.81 19.648-43.08.515-1.086 2.454-1.495 3.731-2.219.111 1.452.783 3.161.25 4.316-8.061 17.488-14.534 35.601-17.218 54.623-3.086 21.881-5.025 43.949-6.717 65.992-1.056 13.757-1.049 27.627-.932 41.437.09 10.64 1.097 21.27 1.687 31.9.102 1.83.366 3.69.16 5.49-.127 1.11-.999 2.14-1.537 3.21-.801-.9-2.104-1.69-2.323-2.72-1.7-7.97-3.819-15.93-4.619-24.01-1.753-17.71-2.805-35.48-4.137-53.712z" fill="#787a7d"/><path d="m524.388 402.474c-7.888-8.211-7.83-8.22-9.593-19.319-.404-2.538-1.358-4.988-2.058-7.479.368-.25.736-.501 1.105-.752.91 1.062 1.799 2.143 2.737 3.179 1.527 1.686 3.086 3.342 4.631 5.011 1.66-1.706 3.319-3.412 5.56-5.715 3.269 5.07 6.886 10.681 10.503 16.291-.271.281-.541.561-.812.842-.891-.253-1.811-.432-2.667-.771-3.907-1.55-5.385.294-6.219 3.92-.406 1.768-1.874 3.293-3.187 4.793z" fill="#76787a"/><path d="m487.642 233.286c-.976-.414-2.107-.984-2.363-.716-3.946 4.127-7.778 8.363-12.113 13.094.931-8.632-2.401-14.85-10.931-18.051.865-.281 1.795-.922 2.583-.779 3.733.677 6.341-.838 8.589-3.663 2.171-2.73 4.509-2.872 7.104-.237 3.524 3.58 7.261 6.95 10.906 10.41-.25.376-.501.753-.752 1.129-.923-.318-1.847-.636-3.023-1.187z" fill="#77797c"/><path d="m191.654 741.692c-.65 1.933-1.117 3.528-1.785 5.034-3.063 6.91-7.498 8.334-13.804 4.231-1.044-.68-1.832-2.334-2.008-3.636-.283-2.097-.166-4.307.149-6.414.955-6.395 1.694-6.807 8.126-5.194 2.244.562 4.669.758 6.676 1.779 1.239.631 1.845 2.505 2.646 4.2z" fill="#7a7b7e"/><path d="m367.631 750.361c.847 1.413 1.932 2.722 1.779 3.864-.41 3.045-1.352 6.018-2.14 9.255-4.255-.599-8.744-1.23-13.232-1.866-.163-.023-.326-.074-.478-.138-3.055-1.279-3.101-5.942-.317-12.667 1.228-2.967 2.86-4.371 6.068-2.662 2.633 1.403 5.326 2.693 8.32 4.214z" fill="#77797c"/><path d="m687.81 455.797c-1.003 4.348-1.88 8.302-2.681 11.912-3.364-.22-7.354-.22-11.237-.862-1.521-.252-3.1-1.736-4.04-3.085-.345-.496 1.287-2.162 1.648-3.401.646-2.217 1.361-4.507 1.416-6.782.089-3.66 1.047-4.987 4.772-3.187 2.196 1.061 4.773 1.314 7.027 2.283 1.236.531 2.158 1.795 3.095 3.122z" fill="#77797c"/><path d="m619.839 843.733c-2.787 2.143-12.068 1.624-12.215-.542-.266-3.938-.059-8.664 1.987-11.68 1.001-1.476 6.651-.177 10.028.601.869.2 1.511 3.179 1.517 4.884.007 2.119-.755 4.241-1.317 6.737z" fill="#787a7d"/><path d="m300.255 662.294c4.099-2.918 8.48-2.394 10.151 1.28 1.157 2.545-.446 6.959-2.072 9.824-.573 1.008-5.177.556-7.407-.432-2.41-1.067-4.968-3.241-3.432-6.743.585-1.334 1.646-2.46 2.76-3.929z" fill="#77797c"/><path d="m380.75 331.092c.581-2.277.796-5.009 2.196-5.922 1.285-.838 3.852.263 5.846.565.278.043.516.399.757.626 2.999 2.839 3.992 8.766 1.834 10.93-1.819 1.824-6.249.042-9.189-3.738-.506-.65-.867-1.412-1.444-2.461z" fill="#77797c"/><path d="m432.936 378.827c1.2.189 2.063.241 2.777.594 3.248 1.611 4.805 4.336 3.323 7.673-.778 1.753-3.005 4.095-4.508 4.046-3.577-.117-5.84-2.797-6.365-6.451-.472-3.279.854-5.441 4.773-5.862z" fill="#77797c"/></svg>