<svg viewBox="0 0 33 33" fill="none" xmlns="http://www.w3.org/2000/svg"><path d="M29.156 23.854v3.998l3.387-1.952v-4.091l-3.387 2.045ZM25.403 21.809l3.387 2.045v3.998L25.403 25.9v-4.091Z" fill="#fff"/><path fill-rule="evenodd" clip-rule="evenodd" d="M21.56 23.482v-3.998l3.478 2.046v3.998l-3.478-2.046Zm7.23 8.833-3.478-2.046v-3.998l3.478 2.046v3.998ZM16.897 10.126a.475.475 0 0 1 .018.02l3.517 3.515a.5.5 0 0 1-.708.708l-2.682-2.682v9.123a.5.5 0 1 1-1 0v-9.122l-2.68 2.68a.5.5 0 0 1-.708-.707l3.517-3.517a.499.499 0 0 1 .371-.165m.355.147a.499.499 0 0 0-.353-.147Z" fill="#fff"/><path fill-rule="evenodd" clip-rule="evenodd" d="M16.547 4.819c-6.351 0-11.5 5.149-11.5 11.5s5.149 11.5 11.5 11.5a.5.5 0 0 1 0 1c-6.904 0-12.5-5.597-12.5-12.5 0-6.904 5.596-12.5 12.5-12.5 6.903 0 12.5 5.596 12.5 12.5a.5.5 0 1 1-1 0c0-6.351-5.149-11.5-11.5-11.5Z" fill="#fff"/></svg>