<svg viewBox="0 0 33 33" fill="none" xmlns="http://www.w3.org/2000/svg"><path fill-rule="evenodd" clip-rule="evenodd" d="M7.58 5.008a1.5 1.5 0 0 0-1.5 1.5v21a1.5 1.5 0 0 0 1.5 1.5h8.39a.5.5 0 0 0 0-1H7.58a.5.5 0 0 1-.5-.5v-21a.5.5 0 0 1 .5-.5h18a.5.5 0 0 1 .5.5v8.563a.5.5 0 1 0 1 0V6.508a1.5 1.5 0 0 0-1.5-1.5h-18Zm2.945 5.49a.5.5 0 0 0 0 1h10.809a.5.5 0 1 0 0-1h-10.81Zm0 4.963a.5.5 0 0 0 0 1h4.412a.5.5 0 1 0 0-1h-4.412Zm-.43 5.547a.5.5 0 0 1 .5-.5h4.453a.5.5 0 0 1 0 1h-4.454a.5.5 0 0 1-.5-.5Z" fill="#0278D5"/><path d="M24.386 17.413a7.53 7.53 0 0 0-5.398 3.433c-.21.33-.502.904-.64 1.253a7.154 7.154 0 0 0-.467 1.837 9.158 9.158 0 0 0 0 1.86c.115.909.348 1.666.757 2.47a7.113 7.113 0 0 0 1.409 1.93 7.462 7.462 0 0 0 4.357 2.124 9.159 9.159 0 0 0 1.861 0 7.514 7.514 0 0 0 5.417-3.433c.39-.612.747-1.434.928-2.13.165-.642.224-1.143.224-1.89 0-.45-.012-.667-.046-.931a7.2 7.2 0 0 0-.756-2.469 7.114 7.114 0 0 0-1.41-1.931 7.462 7.462 0 0 0-4.357-2.123c-.465-.061-1.427-.061-1.879 0Zm1.342 1.595c.169.013.21.022.255.067a.18.18 0 0 1 .052.106c0 .043.034.07.192.152.508.255.863.802.93 1.427.012.11.02.129.066.14.07.018.13.113.117.183-.009.045.012.077.12.17a.62.62 0 0 1 .133.137c0 .012-.036.02-.081.02h-.081l.158.168c.192.208.413.526.515.745.101.221.18.535.237.949l.05.34.151.283c.382.71.587 1.258.587 1.568-.002.325-.16.688-.409.937-.146.147-.155.16-.155.26 0 .275-.152 1.41-.202 1.5-.01.017-.042-.012-.099-.09l-.083-.12v.146c0 .314-.1 1.116-.156 1.267-.014.04-.018.04-.093-.013-.072-.055-.079-.055-.095-.018-.009.022-.047.241-.086.49-.04.246-.09.492-.115.546a.773.773 0 0 1-.395.37.722.722 0 0 1-.874-.327 5.27 5.27 0 0 1-.165-.542c-.1-.39-.122-.452-.158-.45-.023.003-.133.021-.244.041-.253.046-.43.046-.682 0a5.656 5.656 0 0 0-.244-.04c-.038-.003-.059.052-.151.415-.143.545-.165.599-.303.737a.695.695 0 0 1-.967.029c-.165-.145-.21-.262-.287-.777a7.39 7.39 0 0 0-.086-.492c-.015-.037-.022-.037-.094.018-.057.043-.082.05-.093.029-.052-.095-.154-.912-.156-1.247v-.18l-.088.12c-.05.065-.093.108-.1.099-.033-.057-.144-.82-.187-1.294l-.016-.17-.178-.133c-.529-.39-.745-.98-.563-1.527.109-.32.37-.79.73-1.303.122-.176.131-.199.165-.407.095-.596.29-1.043.675-1.554.075-.099.177-.223.226-.277l.088-.095h-.095c-.05 0-.092-.005-.092-.012 0-.018.147-.146.26-.226.088-.063.092-.074.065-.112-.04-.055-.043-.305-.002-.357.013-.023.054-.048.09-.057.054-.013.07-.043.147-.266.115-.337.242-.545.465-.768.199-.197.432-.332.691-.407.098-.027.136-.047.136-.076 0-.039.077-.12.136-.143a.465.465 0 0 1 .135-.004c.056.006.192.015.303.024Z" fill="#5849A6"/><path fill-rule="evenodd" clip-rule="evenodd" d="M25.983 19.075c-.045-.045-.086-.054-.256-.067l-.115-.01a5.688 5.688 0 0 1-.187-.015.469.469 0 0 0-.136.004c-.058.023-.135.104-.135.143 0 .029-.039.05-.136.076-.26.075-.492.21-.69.407-.224.224-.351.431-.466.768-.077.223-.093.253-.147.266-.036.01-.077.034-.09.057-.041.052-.039.302.002.357.027.038.023.05-.066.113-.113.079-.26.207-.26.225 0 .007.044.012.093.012h.095l-.088.095c-.05.054-.151.178-.226.277-.386.51-.58.958-.675 1.554-.034.208-.043.23-.165.407-.36.513-.621.982-.73 1.303-.183.547.034 1.136.563 1.527l.178.133.016.17c.043.474.154 1.237.188 1.294.006.009.05-.034.099-.1l.088-.12v.181c.002.335.104 1.152.156 1.247.011.02.036.014.092-.03.073-.053.08-.053.095-.017.01.022.048.244.086.492.077.515.122.632.287.777.285.253.698.24.967-.03.137-.137.16-.191.302-.736.093-.363.113-.418.152-.415.022.002.133.02.244.04.253.046.429.046.682 0a5.8 5.8 0 0 1 .244-.04c.036-.003.058.058.158.45.065.248.14.492.165.541.162.305.549.45.874.328a.773.773 0 0 0 .395-.37c.025-.055.075-.301.115-.547.039-.249.077-.468.086-.49.016-.037.023-.037.095.018.075.054.08.054.093.013.056-.151.155-.953.155-1.267v-.147l.084.12c.056.08.088.108.1.09.05-.09.2-1.224.2-1.5 0-.099.01-.112.156-.259.249-.248.407-.612.41-.937 0-.31-.206-.859-.588-1.568l-.152-.282-.05-.341c-.056-.413-.135-.727-.236-.949a3.4 3.4 0 0 0-.515-.745l-.158-.167h.08c.046 0 .082-.01.082-.02a.618.618 0 0 0-.133-.138c-.108-.093-.129-.125-.12-.17.014-.07-.047-.165-.117-.183-.045-.011-.054-.03-.066-.14-.067-.625-.422-1.172-.93-1.427-.158-.081-.192-.109-.192-.151a.18.18 0 0 0-.052-.107Z" fill="#fff"/><path fill-rule="evenodd" clip-rule="evenodd" d="M25.983 19.075c-.046-.045-.086-.054-.256-.067l-.115-.01a5.652 5.652 0 0 1-.187-.015.468.468 0 0 0-.136.004c-.059.023-.135.104-.135.143 0 .029-.039.05-.136.076-.26.075-.492.21-.69.407-.225.224-.351.431-.466.768-.077.223-.093.253-.147.266-.036.01-.077.034-.09.057-.041.052-.039.302.002.357.01.015.016.026.014.038.103.14.317.422.487.619.226.261.54.4.83.441.291.04.733.082.948.076.215-.006.656-.18.773-.297l.079-.075c.17-.158.504-.47.6-.71-.02-.026-.023-.046-.018-.07.014-.07-.047-.165-.117-.183-.046-.011-.054-.03-.066-.14-.068-.625-.422-1.172-.93-1.427-.159-.081-.192-.109-.192-.151a.18.18 0 0 0-.052-.107Z" fill="#17A9F9"/><circle cx="25.46" cy="21.172" fill="#1794DA" r=".786"/><circle cx="25.46" cy="21.033" fill="#fff" r=".786"/><path d="m25.486 20.53-.42.836c-.057-.08-.157-.317-.072-.54.086-.223.364-.29.492-.297Z" fill="#F2F2F2"/><path fill-rule="evenodd" clip-rule="evenodd" d="M28.577 26.567c-.272.185-.85.514-1.327.586.353-.038 1.055-.161 1.31-.368.003-.051.005-.094.005-.125 0-.04.001-.066.012-.093Zm-6.209.37c.233.074.843.184 1.454.053-.212.01-.802-.033-1.475-.28l.015.166.006.062Zm.702-1.602c-.286-.17-.378-.458-.362-.57-.036.216-.077.549.716.994.604.338 1.911.166 2.508.016v.054h.078l-.038.05v.138c.307-.272.836-.339 1.062-.338.407-.049.68.333.766.53a2.014 2.014 0 0 0-.149-.328c-.086-.157-.179-.222-.214-.235.472-.201.624-.631.64-.821-.115.36-.397.507-.587.605-.038.02-.072.038-.1.055-.138.083-.553.093-.743.087l.014.029-.38-.022.085.1c-.105.033-.333.014-.434 0v-.05a.754.754 0 0 1-.18.017c-.38-.009-.839-.225-1.02-.332v.177c.122.096.608.206.836.25-.353.106-1.02.103-1.31.088l.125-.126c-.15.011-.518.008-.788-.095a2.415 2.415 0 0 1-.45-.212.773.773 0 0 1 .384-.145c.359-.023.935.319 1.166.47l-.015-.151c-.133-.127-.781-.432-1.104-.432-.224 0-.431.136-.506.197Z" fill="#E6E6E6"/><path fill-rule="evenodd" clip-rule="evenodd" d="M23.918 23.649c-.106-.077-.128-.163-.056-.203.056-.034.065-.032.17.04.245.167.661.34.973.398.664.126 1.267.018 1.895-.341.183-.104.226-.12.264-.1.077.041.056.127-.05.206a3.37 3.37 0 0 1-.646.323 2.936 2.936 0 0 1-1.843.02 3.32 3.32 0 0 1-.707-.343Zm.07-1.007a.257.257 0 0 0-.076.101.187.187 0 0 0 .092.237c.09.048.142.043.221-.024.188-.159-.038-.454-.237-.314Zm2.718-.01c-.025.014-.057.061-.075.102-.03.07-.03.088.002.154.063.133.192.16.303.067.14-.117.063-.347-.115-.347a.272.272 0 0 0-.116.024Z" fill="#000"/></svg>