<svg viewBox="0 0 33 33" fill="none" xmlns="http://www.w3.org/2000/svg"><path fill-rule="evenodd" clip-rule="evenodd" d="M7.33 4.54c-.818 0-1.482.672-1.482 1.5V27.04c0 .828.664 1.5 1.482 1.5h10.873a.497.497 0 0 0 .494-.5c0-.276-.22-.5-.494-.5H7.33a.497.497 0 0 1-.494-.5V6.04c0-.276.221-.5.494-.5h17.79c.272 0 .493.224.493.5v8.563c0 .276.221.5.494.5a.497.497 0 0 0 .495-.5V6.04c0-.828-.664-1.5-1.483-1.5H7.33Zm2.911 5.49a.497.497 0 0 0-.494.5c0 .276.221.5.494.5h10.682a.497.497 0 0 0 .495-.5c0-.276-.222-.5-.495-.5H10.241Zm0 4.963a.497.497 0 0 0-.494.5c0 .276.221.5.494.5h7.962a.497.497 0 0 0 .494-.5c0-.277-.22-.5-.494-.5h-7.962Zm-.425 5.547c0-.276.221-.5.494-.5h7.893c.273 0 .494.224.494.5s-.22.5-.494.5H10.31a.497.497 0 0 1-.494-.5Z" fill="#0278D5"/><path d="M29.295 24.062v3.998l3.386-1.952v-4.091l-3.386 2.045Z" fill="#4040B2"/><path d="m25.542 22.017 3.386 2.045v3.998l-3.386-1.952v-4.091Z" fill="#5C4EE5"/><path fill-rule="evenodd" clip-rule="evenodd" d="M21.698 23.69v-3.998l3.478 2.046v3.998l-3.478-2.046Zm7.23 8.833-3.477-2.046V26.48l3.477 2.046v3.998Z" fill="#5C4EE5"/></svg>