<svg fill="none" viewBox="0 0 33 33" xmlns="http://www.w3.org/2000/svg"><g fill="#fff"><path clip-rule="evenodd" d="m7.3 4.181c-.82 0-1.483.672-1.483 1.5v20.999c0 .828.663 1.5 1.482 1.5h10.873a.497.497 0 0 0 .494-.5c0-.276-.221-.5-.494-.5h-10.872a.497.497 0 0 1 -.494-.5v-21c0-.276.221-.5.494-.5h17.789c.273 0 .494.224.494.5v8.563c0 .276.221.5.494.5a.497.497 0 0 0 .494-.5v-8.563c0-.828-.663-1.5-1.482-1.5h-17.79zm2.91 5.49a.497.497 0 0 0 -.494.5c0 .276.221.5.494.5h10.682a.497.497 0 0 0 .494-.5c0-.276-.221-.5-.494-.5zm0 4.963a.497.497 0 0 0 -.494.5c0 .276.221.5.494.5h7.962a.497.497 0 0 0 .494-.5c0-.277-.221-.5-.494-.5zm-.425 5.546c0-.276.221-.5.494-.5h7.893c.273 0 .494.224.494.5 0 .277-.221.5-.494.5h-7.892a.497.497 0 0 1 -.494-.5z" fill-rule="evenodd"/><path d="m29.264 23.703v3.998l3.386-1.952v-4.091zm-3.754-2.045 3.387 2.045v3.998l-3.386-1.952v-4.091z"/><path clip-rule="evenodd" d="m21.667 23.331v-3.998l3.478 2.046v3.998zm7.23 8.833-3.478-2.046v-3.998l3.478 2.046z" fill-rule="evenodd"/></g></svg>