<svg viewBox="0 0 32 32" xmlns="http://www.w3.org/2000/svg"><path fill-rule="evenodd" clip-rule="evenodd" d="M7.241 3.897a.5.5 0 0 1 .355-.147H27.25a.5.5 0 0 1 .5.5v16.312a.5.5 0 1 1-1 0V4.75H8.099l.096 16.588h9.151a.5.5 0 0 1 .5.526c-.06 1.119.296 2.474 1.079 3.538.772 1.048 1.95 1.805 3.572 1.793a.5.5 0 0 1 .007 1l-7.924.055h-4.456a5.874 5.874 0 0 1-5.874-5.874c0-.573.464-1.038 1.037-1.038h1.908L7.096 4.253a.5.5 0 0 1 .145-.356Zm12.103 23.32a5.584 5.584 0 0 1-1.224-1.222 6.753 6.753 0 0 1-1.276-3.657H5.287a.037.037 0 0 0-.037.038 4.874 4.874 0 0 0 4.874 4.874h4.453l4.767-.033Zm-5.03-17.095a.5.5 0 0 1 .486-.022l7.936 3.95a.5.5 0 0 1 0 .895l-7.936 3.95a.5.5 0 0 1-.723-.447v-7.9a.5.5 0 0 1 .237-.426Zm.763 1.232v6.286l6.314-3.143-6.314-3.143Z" fill="#fff"/><path fill-rule="evenodd" clip-rule="evenodd" d="m24.805 21.722 3.411 1.97v3.937l-3.41-1.969v-3.938Z" fill="#fff"/><path fill-rule="evenodd" clip-rule="evenodd" d="M28.59 23.691v3.938L32 25.66v-3.94l-3.41 1.971Z" fill="#D7DFED"/><path fill-rule="evenodd" clip-rule="evenodd" d="M21.02 19.523v3.938l3.41 1.97v-3.939l-3.41-1.97v.001Zm3.785 10.506 3.41 1.97v-3.938l-3.41-1.97v3.938Z" fill="#fff"/></svg>