<svg xmlns="http://www.w3.org/2000/svg" viewBox="0 0 251 250">
  <path fill="#160c56" d="M232.82 63v124l-107.386 62-107.387-62V63L125.434 1zm-107.136 61.571V236l96.5-55.714V68.857z"/>
  <path fill="#fff" d="M29.439 180.129V68.699l96.5 55.715v111.429z"/>
  <path fill="#e84a5d" d="m173.936 96.769-48.001 27.713-48.003-27.714 48.002-27.713z"/>
  <path fill="#b069ea" d="m221.938 124.455-48.001 27.714-48.003-27.715 48.002-27.713z"/>
  <path fill="#f9db4f" d="M222.434 68.715 173.889 96.74l-47.955-27.686L77.977 96.74 29.434 68.715 125.934 13z"/>
  <path fill="#fff" d="M29.439 180.129V68.699l96.5 55.715v111.429z"/>
  <path fill="#88e0e2" d="m222.203 180.31-96.511 55.682.247-56.08v-.006l47.997-27.71z"/>
  <path fill="#1b47dc" d="m173.935 152.196-47.997 27.711v-55.423z"/>
</svg>