<svg viewBox="0 0 33 33" fill="none" xmlns="http://www.w3.org/2000/svg"><path fill-rule="evenodd" clip-rule="evenodd" d="M21.521 11.759c-.797-2.013-1.69-4.315-2.518-6.96-.183.08-.43.217-.725.415-.711.478-1.62 1.259-2.427 2.257-1.62 2.006-2.747 4.768-1.284 7.706a.5.5 0 0 1-.236.676l-.212-.453c.212.453.211.453.21.453l-.002.001-.004.002-.012.006a2.096 2.096 0 0 1-.177.069 4.328 4.328 0 0 1-2.077.184c-1.174-.188-2.516-.915-3.596-2.82-.181.273-.4.644-.62 1.117-.549 1.182-1.11 3.006-1.11 5.53 0 3.98 2.517 7.334 5.982 8.491-2.113-1.59-3.196-4.437-2.123-7.553a.5.5 0 0 1 .969.102l.008.013c.043.07.12.178.232.314.223.27.55.614.925.955.376.34.79.667 1.184.908.352.215.647.336.865.372.247-.132.405-.448.466-.952.037-.3.028-.604.01-.84a4.811 4.811 0 0 0-.042-.352l-.003-.017v-.003a.5.5 0 0 1 .983-.18v.001l.001.003.002.008.004.028c.004.023.01.056.015.097.011.082.025.197.036.335.022.274.034.65-.013 1.04-.076.629-.338 1.514-1.22 1.815a.502.502 0 0 1-.184.026c-.482-.02-.991-.253-1.442-.528a9.239 9.239 0 0 1-1.333-1.02c-.292-.264-.56-.534-.784-.781-.648 3.62 2.036 6.531 5.457 6.531h.005c.456-.074.9-.185 1.329-.33a.5.5 0 0 1 .32.948 9.39 9.39 0 0 1-3.006.491c-5.34 0-9.643-4.456-9.643-9.921 0-2.679.597-4.645 1.204-5.952a9.235 9.235 0 0 1 .842-1.466 5.92 5.92 0 0 1 .398-.498l.008-.009.002-.003h.001v-.001l.357.346-.356-.346a.5.5 0 0 1 .812.139c1.012 2.19 2.277 2.824 3.216 2.974.48.076.906.031 1.215-.035-1.328-3.236-.005-6.21 1.643-8.25.872-1.078 1.856-1.927 2.648-2.459.393-.263.759-.463 1.054-.569.14-.05.31-.097.476-.092a.687.687 0 0 1 .322.086c.13.074.23.195.276.344.847 2.755 1.771 5.142 2.602 7.239l.274.691c.716 1.8 1.35 3.395 1.766 4.804a.5.5 0 1 1-.96.283c-.402-1.361-1.017-2.91-1.736-4.72l-.274-.69Z" fill="#0278D5"/><path d="M28.914 24.51v3.997l3.386-1.952v-4.091l-3.386 2.045Z" fill="#4040B2"/><path d="m25.161 22.464 3.387 2.045v3.998l-3.387-1.952v-4.091Z" fill="#5C4EE5"/><path fill-rule="evenodd" clip-rule="evenodd" d="M21.317 24.137V20.14l3.478 2.046v3.998l-3.478-2.046Zm7.23 8.833-3.477-2.046v-3.998l3.478 2.046v3.998Z" fill="#5C4EE5"/></svg>