<svg viewBox="0 0 41 41" fill="none" xmlns="http://www.w3.org/2000/svg"><path fill-rule="evenodd" clip-rule="evenodd" d="M18.406 6.058a.5.5 0 0 1-.005.707l-2.97 2.92H33.79a1.5 1.5 0 0 1 1.5 1.5v7.48a.5.5 0 1 1-1 0v-7.48a.5.5 0 0 0-.5-.5H15.432l2.969 2.922a.5.5 0 1 1-.702.713l-3.839-3.778a.5.5 0 0 1 0-.713l3.84-3.777a.5.5 0 0 1 .706.006ZM7.15 17.11a.5.5 0 0 1 .5.5v15.2a.5.5 0 0 0 .5.5h10.788a.5.5 0 1 1 0 1H8.15a1.5 1.5 0 0 1-1.5-1.5v-15.2a.5.5 0 0 1 .5-.5Z" fill="#fff"/><path d="M29.957 21.5a9.411 9.411 0 0 0-6.748 4.291c-.262.413-.626 1.13-.799 1.567a8.937 8.937 0 0 0-.584 2.296c-.08.607-.08 1.72 0 2.326a9 9 0 0 0 .946 3.086 8.889 8.889 0 0 0 1.762 2.414 9.327 9.327 0 0 0 5.446 2.654c.607.079 1.72.079 2.326 0a9.392 9.392 0 0 0 6.77-4.292 10.01 10.01 0 0 0 1.161-2.662c.206-.802.28-1.429.28-2.363 0-.562-.015-.833-.057-1.163a9 9 0 0 0-.946-3.086 8.889 8.889 0 0 0-1.762-2.414 9.327 9.327 0 0 0-5.446-2.654c-.581-.076-1.784-.076-2.349 0Zm1.677 1.993c.212.017.263.029.32.085a.226.226 0 0 1 .064.133c0 .053.043.087.24.189.636.319 1.079 1.002 1.163 1.784.015.139.026.161.082.175.088.023.164.141.147.229-.011.056.014.096.15.212a.774.774 0 0 1 .166.172c0 .014-.045.025-.101.025h-.102l.198.21c.24.259.516.657.644.93.127.278.225.67.296 1.187l.062.426.19.353c.476.886.733 1.572.733 1.96-.003.406-.2.86-.51 1.17-.184.184-.196.201-.196.326 0 .344-.189 1.761-.25 1.874-.015.023-.054-.014-.125-.113l-.105-.15v.184c0 .393-.124 1.395-.194 1.584-.017.05-.023.05-.116-.017-.09-.068-.099-.068-.119-.023-.011.029-.059.303-.107.613-.05.308-.113.616-.144.683a.966.966 0 0 1-.494.463.902.902 0 0 1-1.093-.409 6.553 6.553 0 0 1-.206-.678c-.124-.488-.152-.564-.197-.561a7.019 7.019 0 0 0-.305.05 2.166 2.166 0 0 1-.853 0 7.019 7.019 0 0 0-.305-.05c-.048-.003-.073.065-.19.52-.177.68-.205.747-.377.92a.869.869 0 0 1-1.209.036c-.206-.18-.262-.327-.358-.971a9.319 9.319 0 0 0-.108-.616c-.02-.045-.028-.045-.118.023-.07.054-.102.062-.116.037-.065-.119-.192-1.14-.195-1.559v-.226l-.11.15c-.062.082-.116.136-.124.124-.043-.07-.18-1.025-.235-1.617l-.02-.212-.222-.167c-.661-.488-.932-1.225-.703-1.908.135-.401.463-.988.912-1.63.152-.22.163-.248.206-.508.118-.745.361-1.304.844-1.942.093-.124.22-.28.282-.347l.11-.119h-.118c-.062 0-.116-.005-.116-.014 0-.022.183-.183.325-.282.11-.08.115-.093.082-.141-.051-.068-.054-.381-.003-.446.017-.029.067-.06.113-.071.067-.017.087-.054.183-.333.144-.42.302-.68.582-.96a2 2 0 0 1 .864-.508c.121-.034.17-.06.17-.096 0-.048.095-.15.169-.178a.584.584 0 0 1 .169-.006c.07.009.24.02.378.031Z" fill="#5849A6"/><path fill-rule="evenodd" clip-rule="evenodd" d="M31.953 23.578c-.056-.056-.107-.068-.32-.085a43.32 43.32 0 0 0-.144-.01 7.297 7.297 0 0 1-.233-.02.587.587 0 0 0-.17.005c-.073.028-.17.13-.17.178 0 .037-.047.062-.169.096a2.002 2.002 0 0 0-.864.508c-.28.28-.437.54-.581.96-.096.28-.116.316-.184.333-.045.011-.096.042-.113.07-.05.066-.048.379.003.447.034.048.028.062-.082.14-.14.1-.324.26-.324.283 0 .009.053.014.115.014h.119l-.11.119c-.062.068-.19.223-.282.347-.483.638-.726 1.197-.845 1.942-.042.26-.053.288-.206.509-.449.64-.776 1.228-.912 1.629-.229.683.043 1.42.703 1.908l.223.167.02.212c.054.593.192 1.547.234 1.617.009.012.063-.042.125-.124l.11-.15v.226c.003.418.13 1.44.195 1.559.014.025.045.017.115-.037.09-.068.1-.068.119-.023.011.029.06.305.107.616.096.644.153.79.359.971a.87.87 0 0 0 1.208-.036c.172-.173.2-.24.379-.92.115-.456.14-.523.189-.52.028.002.166.025.305.05.316.057.536.057.852 0 .139-.025.277-.048.305-.05.045-.003.074.073.198.561.082.311.175.616.206.678a.902.902 0 0 0 1.093.41.966.966 0 0 0 .494-.464c.03-.067.093-.375.144-.683.048-.31.096-.584.107-.613.02-.045.028-.045.118.023.094.068.1.068.116.017.07-.19.195-1.191.195-1.584v-.183l.104.15c.071.098.11.135.125.112.062-.113.251-1.53.251-1.874 0-.125.011-.142.195-.325.31-.31.508-.765.51-1.172 0-.387-.256-1.073-.733-1.96l-.19-.352-.062-.426c-.07-.517-.169-.91-.296-1.186a4.25 4.25 0 0 0-.644-.932l-.197-.209h.101c.057 0 .102-.011.102-.025a.774.774 0 0 0-.167-.172c-.135-.116-.16-.156-.15-.212.018-.088-.059-.206-.146-.229-.056-.014-.068-.037-.082-.175-.085-.782-.528-1.465-1.163-1.784-.198-.102-.24-.136-.24-.19a.226.226 0 0 0-.065-.132Z" fill="#fff"/><path fill-rule="evenodd" clip-rule="evenodd" d="M31.953 23.578c-.056-.056-.107-.068-.319-.085l-.145-.01a7.271 7.271 0 0 1-.233-.02.587.587 0 0 0-.17.005c-.073.028-.17.13-.17.178 0 .037-.047.062-.169.096a2.001 2.001 0 0 0-.863.508c-.28.28-.438.54-.582.96-.096.28-.116.316-.184.333-.045.011-.096.042-.112.07-.051.066-.049.379.002.447.014.019.021.033.018.047.128.175.396.529.608.774a1.69 1.69 0 0 0 1.039.552c.363.05.915.102 1.184.094.269-.007.82-.225.966-.37l.099-.094c.213-.198.63-.587.75-.887-.024-.034-.028-.059-.022-.088.017-.088-.06-.206-.147-.229-.056-.014-.068-.037-.082-.175-.084-.782-.528-1.465-1.163-1.784-.198-.102-.24-.136-.24-.19a.225.225 0 0 0-.065-.132Z" fill="#17A9F9"/><circle cx="31.299" cy="26.198" fill="#1794DA" r=".983"/><circle cx="31.299" cy="26.025" fill="#fff" r=".983"/><path d="m31.332 25.395-.525 1.046c-.072-.1-.197-.396-.09-.674.107-.279.455-.364.615-.372Z" fill="#F2F2F2"/><path fill-rule="evenodd" clip-rule="evenodd" d="M35.197 32.943c-.341.23-1.063.643-1.66.732.441-.048 1.32-.201 1.637-.46.004-.064.007-.117.007-.157a.28.28 0 0 1 .016-.115Zm-7.762.463c.29.091 1.053.23 1.817.066-.265.012-1.002-.042-1.844-.351l.02.209.007.076Zm.878-2.003c-.359-.212-.473-.573-.454-.713-.044.27-.095.686.896 1.242.755.424 2.389.208 3.135.02v.069h.098l-.048.06v.174c.384-.34 1.044-.423 1.327-.422.51-.061.85.416.958.662a2.516 2.516 0 0 0-.186-.41c-.108-.197-.224-.277-.268-.293.59-.252.78-.79.8-1.027-.144.451-.496.634-.733.757-.048.025-.09.047-.127.068-.171.104-.69.116-.928.11l.018.035-.475-.027.106.125c-.13.04-.416.017-.542 0v-.063a.945.945 0 0 1-.225.022c-.475-.011-1.048-.282-1.276-.416v.222c.154.12.761.258 1.046.312-.44.133-1.276.13-1.639.11l.158-.157c-.188.014-.648.01-.985-.12-.338-.13-.517-.23-.564-.264a.967.967 0 0 1 .48-.181c.45-.029 1.17.398 1.459.587l-.02-.189c-.166-.158-.976-.54-1.379-.54-.28 0-.54.17-.632.247Z" fill="#E6E6E6"/><path fill-rule="evenodd" clip-rule="evenodd" d="M29.373 29.295c-.133-.096-.16-.203-.07-.254.07-.042.081-.04.211.05.308.21.827.424 1.217.498.83.158 1.584.022 2.369-.427.229-.13.282-.15.33-.124.096.051.07.158-.062.257-.158.116-.55.31-.807.404a3.67 3.67 0 0 1-2.304.025 4.15 4.15 0 0 1-.884-.429Zm.087-1.259a.322.322 0 0 0-.096.127c-.045.11.003.24.116.296.113.06.178.054.277-.03.234-.198-.048-.568-.297-.393Zm3.397-.011c-.031.017-.07.076-.093.127-.037.087-.037.11.003.192.079.166.24.2.378.084.175-.146.08-.434-.144-.434a.34.34 0 0 0-.144.03Z" fill="#000"/></svg>