<svg viewBox="0 0 32 32" xmlns="http://www.w3.org/2000/svg"><path fill-rule="evenodd" clip-rule="evenodd" d="M14.07 4.863a.5.5 0 0 1-.003.707l-2.194 2.178h13.642a1.5 1.5 0 0 1 1.5 1.5v10.579a.5.5 0 1 1-1 0V9.248a.5.5 0 0 0-.5-.5H11.873l2.194 2.178a.5.5 0 0 1-.704.71l-3.056-3.033a.5.5 0 0 1 0-.71l3.056-3.033a.5.5 0 0 1 .707.003ZM4.515 13.71a.5.5 0 0 1 .5.5v12.006a.5.5 0 0 0 .5.5h14.554a.5.5 0 1 1 0 1H5.515a1.5 1.5 0 0 1-1.5-1.5V14.21a.5.5 0 0 1 .5-.5ZM24.805 21.722l3.411 1.97v3.937l-3.41-1.969v-3.938Z" fill="#fff"/><path fill-rule="evenodd" clip-rule="evenodd" d="M28.59 23.691v3.938L32 25.66v-3.94l-3.41 1.971Z" fill="#D7DFED"/><path fill-rule="evenodd" clip-rule="evenodd" d="M21.02 19.523v3.938l3.41 1.97v-3.939l-3.41-1.97v.001Zm3.785 10.506 3.41 1.97v-3.938l-3.41-1.97v3.938Z" fill="#fff"/></svg>