<svg fill="none" viewBox="0 0 655 914" xmlns="http://www.w3.org/2000/svg"><path d="m390.466 4.70251c2.39.29 4.77.58 7.16.86 45.69 5.48999 90.93 14.53999 135.09 27.50999 2.26.66 4.53 1.3 6.81 1.92 2.7.81 4.87 1.73 7.35 3.01 2.06.44 4.11.87 6.17 1.31 6.27 1.53 12.36 3.72 18.45 5.81.75.26 1.5.52 2.28.78 61.82 21.25 61.82 21.25 81.1 34.1-.59 5.94-1.45 11.69-2.72 17.53-.17.8-.34 1.6-.52 2.42-.56 2.6105-1.12 5.2305-1.69 7.8405-.4 1.83-.79 3.66-1.19 5.49-.82 3.83-1.65 7.65-2.48 11.47-1.07 4.89-2.12 9.78-3.17 14.67-.81 3.78-1.63 7.56-2.45 11.33-.39 1.81-.78 3.61-1.16 5.41-.54 2.52-1.09 5.05-1.65 7.57-.15.73-.31 1.47-.47 2.23-1.03 4.64-2.54 8.71-4.5 13.04-.52 1.68-1 3.37-1.43 5.08-.35 1.38-.35 1.38-.71 2.79-.37 1.46-.37 1.46-.74 2.94-.53 2.07-1.06 4.15-1.59 6.22-.39 1.53-.39 1.53-.79 3.08-1.01 3.92-2.08 7.81-3.18 11.7-2.1 7.46-4.12 14.95-6.12 22.44-2.06 7.67-4.16 15.309-6.37 22.94-1.17 4.14-2.28 8.3-3.38 12.46-1.22 4.56-2.45 9.11-3.69 13.67-.68 2.489-1.35 4.98-2.02 7.47-4.65 17.23-10.16 33.66-17.52 49.96-1.52 3.38-3 6.769-4.48 10.16-9.49 21.76-20.11 42.54-31.98 63.09-.46.79-.91 1.58-1.38 2.39-12.15 21.14-25.77 41.27-40.62 60.61-.43.559-.87 1.12-1.31 1.7-5.32 6.93-10.75 13.66-16.66 20.09-1.78 1.94-3.51 3.9-5.22 5.89-9.01 10.31-18.53 20.129-28.19 29.82-.83.83-1.66 1.67-2.52 2.53-4.29 4.29-8.66 8.42-13.27 12.38-2.78 2.41-5.46 4.939-8.14 7.459-4.82 4.49-9.77 8.74-14.9 12.87-2.48 2-4.91 4.06-7.32 6.141-7.59 6.52-15.5 12.57-23.48 18.6-1.78 1.36-3.56 2.73-5.33 4.11-13.86 10.78-28.05 21.079-42.97 30.329-1.45.93-2.85 1.93-4.24 2.94-3.5 1.62-5.71.93-9.45.141-2.97-1.55-2.97-1.55-5.92-3.55-.81-.54-.81-.541-1.63-1.091-1.75-1.169-3.47-2.359-5.2-3.55-1.21-.82-2.42-1.639-3.63-2.459-10.07-6.85-19.92-13.981-29.62-21.35-.6-.451-1.19-.9-1.8-1.36-13.23-9.97-26.01-20.51-38.6-31.271-1.63-1.4-3.28-2.779-4.92-4.159-14.82-12.49-28.6-26.031-42.31-39.71-.61-.61-1.22-1.22-1.85-1.85-6.4-6.37-12.69-12.751-18.52-19.65-1.02-1.161-2.05-2.31-3.07-3.47-8.11-9.18-15.64-18.701-22.93-28.53-.81-1.08-.81-1.081-1.63-2.191-32.77-44.2-59.1004-93.709-79.3704-144.809-.47-1.18-.94-2.36-1.43-3.58-.45-1.14-.9-2.28-1.36-3.46-.4-1.02-.79-2.03-1.2-3.07-1.24-3.55-1.99-7.06-2.56-10.77-.49-2.3-1.38-4.041-2.45-6.12-1.09-3.72-1.69-7.56-2.4-11.37-.56-2.641-.56-2.641-1.47-5.19-1.44-4.37-2.68-8.78-3.93-13.21-.4-1.421-.4-1.42-.8-2.87-.87-3.06-1.73-6.12-2.59-9.18-.59-2.09-1.18-4.18-1.77-6.27-1.68-5.97-3.36-11.94-5.04-17.91-.22-.79-.44-1.57-.67-2.38-1.2-4.25-2.39-8.5-3.58-12.75-.28-.98-.55-1.96-.84-2.97-.24-.87-.49-1.75-.74-2.66-.21-.73-.41-1.47-.62-2.22-.98-3.58-1.77-7.13-2.43-10.77-.91-4.68-2.37-8.83-4.12-13.25-.54-2-1.01-4.02-1.47-6.04-.15-.67-.31-1.34-.47-2.03-.15-.67-.31-1.34-.46-2.03-.6-2.2-.6-2.2-2.6-4.9-.49-1.7-.92-3.42-1.29-5.15-.22-1.01-.44-2.01-.67-3.05-.22-1.05-.44-2.1-.67-3.18-.34-1.56-.34-1.56-.69-3.15-1.7-7.89-1.7-7.89-1.62-11.06.11-2.4.11-2.4-.99-4.25-1.19-2.4-1.75-4.61-2.31998-7.23-.23-1.01-.45-2.02-.67999-3.06-.24-1.08-.47003-2.16-.71003-3.28s-.48999-2.23-.73999-3.38c-.51-2.36-1.02-4.72-1.53-7.08-.78-3.62-1.56999-7.23-2.36999-10.85-.49-2.2905-.99001-4.5805-1.48001-6.8805-.36-1.62-.35998-1.62-.72998-3.28-.21-1-.430026-2.01-.650026-3.05-.19-.89-.379987-1.77-.579987-2.68-.3-2.51-.2199987-4.05.720001-6.39 2.110002-1.39 4.040002-2.44 6.310002-3.5.7-.34 1.38998-.67 2.10998-1.02 77.99-36.9 163.6304-59.95 280.4104-73.25999 1.79-.18 3.58-.38 5.37-.57 31.58-3.13 64-.839996 95.39 3.05zm-86.59-2.7v1h5c0-.33 0-.66 0-1-1.65 0-3.3 0-5 0zm43 0v1h5c0-.33 0-.66 0-1-1.65 0-3.3 0-5 0zm-345.00038 84.99999c1 2 1 2 1 2z" fill="#00fbe0"/><path d="m405.874 141c4.75.27 9.47.92 14.19 1.5.73.09 1.46.18 2.21.27 70.47 8.68 139.98 28.66 203.6 60.23-.43 2.31-.87 4.63-1.31 6.94-.37 1.93-.37 1.93-.74 3.9-.77 3.66-1.91 7.12-3.13 10.65-1.64 5-2.91 10.11-4.26 15.2-3.74 14.06-3.74 14.06-5.68 20.75-1.23 4.22-2.38 8.45-3.48 12.71-1.1 4.29-2.25 8.57-3.4 12.85-.31 1.14-.61 2.28-.93 3.46-4.68 17.37-10.19 33.86-17.61 50.3-1.52 3.37-3 6.76-4.48 10.15-9.49 21.76-20.11 42.54-31.98 63.09-.45.79-.91 1.58-1.38 2.4-12.15 21.13-25.77 41.27-40.62 60.6-.43.56-.86 1.13-1.31 1.71-5.32 6.92-10.75 13.65-16.66 20.08-1.78 1.94-3.51 3.9-5.22 5.9-9.01 10.3-18.52 20.12-28.19 29.81-.83.84-1.66 1.67-2.52 2.53-4.29 4.29-8.66 8.42-13.26 12.38-2.79 2.41-5.46 4.94-8.15 7.47-4.82 4.48-9.77 8.74-14.9 12.86-2.48 2.01-4.9 4.06-7.32 6.14-7.59 6.52-15.5 12.58-23.47 18.6-1.79 1.36-3.57 2.73-5.34 4.11-13.85 10.78-28.05 21.08-42.97 30.34-1.45.92-2.85 1.92-4.23 2.94-3.51 1.61-5.72.93-9.46.13-2.97-1.54-2.97-1.54-5.92-3.54-.81-.54-.81-.54-1.63-1.09-1.74-1.18-3.47-2.37-5.2-3.56-1.21-.82-2.42-1.64-3.63-2.46-10.07-6.85-19.92-13.98-29.62-21.35-.59-.45-1.19-.89-1.8-1.36-13.23-9.96-26.01-20.51-38.59-31.27-1.64-1.4-3.28-2.78-4.93-4.16-14.82-12.48-28.59-26.03-42.3-39.71-.62-.61-1.23-1.22-1.86-1.84-6.39-6.38-12.68-12.76-18.52-19.66-1.02-1.16-2.04-2.31-3.07-3.46-8.1-9.19-15.64-18.71-22.93-28.54-.54-.72-1.07-1.44-1.62-2.18-32.79-44.22-59.0503-93.72-79.3803-144.82-.48-1.19-.97-2.37-1.47-3.6-.46-1.14-.92-2.29-1.39-3.47-.41-1.02-.82-2.05-1.25-3.1-.88-2.79-1.07-4.92-.89-7.83.77-.08 1.54-.16 2.33-.24 5.05-1.05 9.59-3.02 14.36-4.95 48.3003-19 98.2103-32.06 149.5603-39.25.94-.13 1.88-.26 2.85-.4 2.68-.37 5.36-.73 8.04-1.09.79-.11 1.59-.22 2.4-.33.75-.1 1.5-.2 2.27-.3.97-.13.97-.13 1.95-.26 3.07-.25 6.16-.18 9.24-.18v82c-2.97 1.48-6.13 1.59-9.38 1.98-1.56.19-3.13.39-4.69.58-.82.1-1.65.21-2.5.31-18.64 2.31-37.02 5.41-55.43 9.13 5.57 10.98 11.86 21.24 18.75 31.44.98 1.46 1.96 2.92 2.95 4.39 6.47 9.62 13.1 19.07 20.3 28.17.68.88 1.37 1.76 2.07 2.67 14.51 18.48 30.79 35.28 47.37 51.89.61.62 1.22 1.23 1.85 1.86 8.79 8.83 8.79 8.83 18.04 17.16 2.57 2.19 5.01 4.5 7.48 6.8 8.91 8.21 18.31 15.61 28.19 22.62.66-.33 1.32-.66 2-1 .33.66.66 1.32 1 2 8.51-5.87 16.43-11.93 24-19 1.33-1.17 2.66-2.34 4-3.5 13.78-12.03 27.11-24.53 40.06-37.44.79-.78 1.57-1.56 2.38-2.36 4.16-4.17 8.15-8.43 11.99-12.89 2.2-2.54 4.52-4.98 6.82-7.43 5.5-5.95 10.5-12.23 15.42-18.65 1.28-1.66 2.56-3.3 3.86-4.94 12.93-16.48 24.44-34.14 35.09-52.17.43-.71.86-1.43 1.3-2.18 1.62-2.78 3.06-5.37 4.08-8.44-1.3-.11-2.59-.21-3.93-.32-7-.7-13.91-1.95-20.84-3.15-12.76-2.2-25.48-4.23-38.35-5.68-1.34-.15-1.34-.15-2.7-.31-.77-.08-1.53-.16-2.32-.25-1.86-.29-1.86-.29-3.86-1.29-.13-21.11-.26-42.22-.39-63.32-.06-9.81-.12-19.61-.18-29.42-.06-8.56-.11-17.12-.16-25.68-.03-4.52-.06-9.04-.08-13.56-.07-10.57-.13-21.15-.18-31.72-.01-2.33-.02-4.66-.04-6.99-.01-3.71-.03-7.42-.04-11.14-.01-2.02-.02-4.04-.03-6.06 0-1.2 0-2.39-.01-3.61 0-1.05 0-2.09-.01-3.17.12-2.33.12-2.33 1.12-3.33z" fill="#fa4660"/><path d="m390.466 4.70251c2.39.29 4.77.58 7.16.86 45.69 5.48999 90.93 14.53999 135.09 27.50999 2.26.66 4.53 1.3 6.81 1.92 2.7.81 4.87 1.73 7.35 3.01 2.06.44 4.11.87 6.17 1.31 6.27 1.53 12.36 3.72 18.45 5.81.75.26 1.5.52 2.28.78 61.82 21.25 61.82 21.25 81.1 34.1-.59 5.99-1.47 11.76-2.77 17.64-.17.81-.35 1.62-.53 2.4605-.58 2.64-1.16 5.29-1.74 7.93-.4 1.85-.8 3.7-1.2 5.55-1.06 4.84-2.12 9.67-3.18 14.51-1.08 4.95-2.15 9.9-3.23 14.84-2.11 9.69-4.23 19.38-6.35 29.07-.66-.28-1.31-.55-1.98-.83-77.24-32.29-156.38-54.21-239.52-64.61-.71-.09-1.41-.18-2.14-.27-1.99-.25-3.97-.49-5.96-.73-1.12-.13-2.24-.27-3.39-.4-3.37-.31-3.37-.31-8.01.84-.33 57.09-.66 114.179-1 173-5.42-3.25-5.42-3.25-8.06-5.82-11.22-9.82-26.21-13.781-40.81-12.971-16.36 1.47-31.41 8.071-43.13 19.791-1.16-3.47-1.14-6.19-1.16-9.86-.01-.7-.01-1.4-.02-2.12-.01-2.35-.02-4.71-.03-7.06-.01-1.69-.02-3.371-.03-5.06-.02-4.58-.05-9.16-.07-13.74-.02-4.78-.04-9.57-.07-14.35-.05-9.06-.1-18.13-.14-27.19-.05-10.32-.1-20.63-.16-30.95-.11-21.22-.22-42.45-.32-63.67-1.58-.01-3.17-.02-4.75-.03-.88 0-1.76 0-2.67-.01-3.59.05-7.09.44-10.64.92-.73.09-1.47.19-2.22.29-2.39.31-4.77.63-7.16.95-.83.11-1.66.23-2.52.34-77.19 10.4-158.9204 28.48-229.0404 63.54-2.24-3.43-3.54-6.36-4.39-10.35-.21-1-.43-1.99-.65-3.02-.22-1.04-.43-2.07-.65-3.13-.34-1.55-.34-1.55-.68-3.13-1.65-7.76-1.65-7.76-1.57-10.96.11-2.4.11-2.4-.99-4.25-1.19-2.4-1.75-4.61-2.31998-7.23-.23-1.01-.45-2.02-.67999-3.06-.24-1.08-.47003-2.16-.71003-3.28s-.48999-2.23-.73999-3.38c-.51-2.36-1.02-4.72-1.53-7.08-.78-3.62-1.56999-7.23-2.36999-10.85-.49-2.2905-.99001-4.5805-1.48001-6.8805-.36-1.62-.35998-1.62-.72998-3.28-.21-1-.430026-2.01-.650026-3.05-.19-.89-.379987-1.77-.579987-2.68-.3-2.51-.2199987-4.05.720001-6.39 2.110002-1.39 4.040002-2.44 6.310002-3.5.7-.34 1.38998-.67 2.10998-1.02 77.99-36.9 163.6304-59.95 280.4104-73.25999 1.79-.18 3.58-.38 5.37-.57 31.58-3.13 64-.839996 95.39 3.05zm-86.59-2.7v1h5c0-.33 0-.66 0-1-1.65 0-3.3 0-5 0zm43 0v1h5c0-.33 0-.66 0-1-1.65 0-3.3 0-5 0zm-345.00038 84.99999c1 2 1 2 1 2z" fill="#15327a"/><path d="m250.874 257v82c-2.97 1.48-6.13 1.59-9.38 1.98-1.56.19-3.13.39-4.69.58-.82.1-1.65.21-2.5.31-18.64 2.31-37.02 5.41-55.43 9.13 5.57 10.98 11.86 21.24 18.75 31.44.98 1.46 1.96 2.92 2.95 4.39 6.47 9.62 13.1 19.07 20.3 28.17.68.88 1.37 1.76 2.07 2.67 14.51 18.48 30.79 35.28 47.37 51.89.61.62 1.22 1.23 1.85 1.86 8.79 8.83 8.79 8.83 18.04 17.16 2.57 2.19 5.01 4.5 7.48 6.8 8.91 8.21 18.31 15.61 28.19 22.62.66-.33 1.32-.66 2-1v115c-4.76-1.59-7.42-2.71-11.39-5.42-1.01-.69-2.02-1.38-3.06-2.09-1.07-.74-2.14-1.48-3.24-2.24-1.12-.77-2.23-1.54-3.35-2.3-9.82-6.77-19.45-13.77-28.96-20.95-.9-.67-.9-.67-1.81-1.36-13.22-9.97-26-20.51-38.58-31.27-1.64-1.4-3.28-2.78-4.93-4.16-14.82-12.48-28.59-26.03-42.3-39.71-.62-.61-1.23-1.22-1.86-1.84-6.39-6.38-12.68-12.76-18.52-19.66-1.02-1.16-2.04-2.31-3.07-3.46-8.1-9.19-15.64-18.71-22.93-28.54-.54-.72-1.07-1.44-1.62-2.18-32.79-44.22-59.0503-93.72-79.3803-144.82-.48-1.19-.97-2.37-1.47-3.6-.46-1.14-.92-2.29-1.39-3.47-.41-1.02-.82-2.05-1.25-3.1-.88-2.79-1.07-4.92-.89-7.83.77-.08 1.54-.16 2.33-.24 5.05-1.05 9.59-3.02 14.36-4.95 48.3003-19 98.2103-32.06 149.5603-39.25.94-.13 1.88-.26 2.85-.4 2.68-.37 5.36-.73 8.04-1.09.79-.11 1.59-.22 2.4-.33.75-.1 1.5-.2 2.27-.3.97-.13.97-.13 1.95-.26 3.07-.25 6.16-.18 9.24-.18z" fill="#fbc70a"/><path d="m312.748.87499c.71 0 1.41-.01 2.14-.01 4.19.01 7.8.44 11.98 1.13.5 127.72001.5 127.72001 1 258.00001-4.94.67-9.89 1.32-15 2-11.6 3.77-22.28 9.29-31 18-1.15-3.47-1.13-6.18-1.15-9.85-.01-.7-.01-1.4-.02-2.12-.01-2.36-.02-4.71-.03-7.06-.01-1.69-.02-3.37-.03-5.06-.03-4.58-.05-9.16-.07-13.74-.02-4.78-.05-9.57-.07-14.35-.05-9.07-.1-18.13-.14-27.19-.05-10.32-.11-20.63-.16-30.95-.12-21.23-.22-42.45-.33-63.68-1.58 0-3.16-.01-4.74-.02-.88 0-1.76-.01-2.67-.01-3.59.05-7.09.44-10.64.92-.74.09-1.47.19-2.23.28-2.38.31-4.77.64-7.15.96-.83.11-1.67.22-2.52.34-77.19 10.4-158.9296 28.48-229.0496 63.53-2.23-3.42-3.53-6.35-4.38-10.34-.22-1-.43-2-.66-3.03-.21-1.03-.42-2.06-.64-3.13-.34-1.54-.34-1.54-.68-3.12-1.65-7.76-1.65-7.76-1.57-10.96.11-2.4.11-2.4-.99-4.25-1.19-2.41-1.75-4.61-2.33-7.24-.22-1.01-.43998-2.01-.66998-3.05-.24-1.08-.47002-2.17-.71002-3.28-.25-1.12-.48999-2.23-.73999-3.39-.51-2.36-1.02-4.72-1.53-7.08-.78-3.61-1.56999-7.23-2.36999-10.84-.5-2.29-.99003-4.59-1.49003-6.88-.36-1.62-.35997-1.62-.71997-3.28-.22-1.01-.430021-2.01-.650021-3.05-.19-.89-.379986-1.77-.579986-2.68-.3-2.51-.2200089-4.06.709991-6.4 2.109996-1.38 4.050006-2.44 6.320006-3.5.69-.33 1.38999-.66 2.10999-1.01 77.98-36.91 163.6296-59.95 303.4496-74.61001zm-8.88 1.12v1h5c0-.33 0-.65 0-1-1.64 0-3.3 0-5 0zm-301.9996 85.00001c1 2 1 2 1 2z" fill="#1605da"/><path d="m375.874 104c2.93.03 5.71.2 8.62.5.95.09 1.89.18 2.87.28 79.92 8.39 176.19 25.41 246.51 66.22 2.07 4.15-.96 10.1-2.18 14.49-.57 2.06-1.12 4.14-1.66 6.21-.36 1.31-.72 2.62-1.08 3.93-.49 1.79-.49 1.79-.99 3.63-.36.9-.72 1.81-1.09 2.74-3 1-3 1-4.98.29-.75-.39-1.51-.78-2.29-1.18-.87-.43-1.74-.87-2.64-1.32-.96-.49-1.92-.98-2.9-1.48-51.71-25.4-108.73-40.78-165.31-50.62-.67-.12-1.34-.24-2.02-.36-13.57-2.37-27.14-3.75-40.86-5.33v197l33 4c13.05 2.15 26.05 4.35 39 7-.57 3.65-1.53 6.29-3.44 9.44-.5.83-.99 1.65-1.51 2.5-.53.87-1.06 1.73-1.61 2.62-.55.9-1.1 1.8-1.67 2.73-4.09 6.69-8.3 13.26-12.77 19.71-.5.73-1.01 1.46-1.52 2.22-7.48 10.88-15.1 21.58-23.48 31.78-.67.82-.67.82-1.36 1.66-5.78 6.99-11.76 13.77-17.93 20.41-1.72 1.86-3.42 3.73-5.11 5.61-6.22 6.92-12.72 13.54-19.29 20.13-.89.9-1.78 1.79-2.7 2.72-4.45 4.44-8.96 8.74-13.74 12.84-3.15 2.74-6.15 5.63-9.18 8.51-6.02 5.65-12.18 11.02-18.69 16.12-.56.44-1.11.88-1.68 1.33-1.77 1.4-3.54 2.78-5.32 4.17-.55.43-1.11.87-1.67 1.32-2.45 1.88-4.37 3.19-7.33 4.18-.94-2.81-1.12-4.48-1.12-7.38-.01-.9-.01-1.81-.01-2.73 0-.99.01-1.99.01-3.01 0-1.05 0-2.1 0-3.19 0-3.54 0-7.08.01-10.62 0-2.53 0-5.07 0-7.6 0-5.46 0-10.92 0-16.38.01-7.9.02-15.79.02-23.69 0-12.81.01-25.62.01-38.43.01-12.44.02-24.89.03-37.33 0-.77 0-1.54 0-2.33 0-3.84 0-7.69 0-11.54.01-31.92.03-63.85.05-95.77 5.25-2.63 12.64-.51 18 1.16 10.93 3.74 19.18 9.49 28 16.84 0-.88.01-1.77.01-2.68.08-21.5.17-43 .28-64.49.05-10.4.09-20.8.13-31.19.03-9.06.07-18.12.12-27.18.03-4.8.05-9.6.06-14.39.02-4.52.04-9.03.07-13.54.01-1.66.01-3.32.01-4.98.01-2.26.02-4.52.04-6.78.01-1.9.01-1.9.02-3.84.26-2.93.26-2.93 2.26-4.93z" fill="#00b0d4"/><path d="m246.874 143c.02 10.28.04 20.57.05 30.85.01 4.77.01 9.55.03 14.32.01 4.61.01 9.21.01 13.81.01 1.76.01 3.52.02 5.28v7.37c.01.74.01 1.47.01 2.23-.01 5.03-.01 5.03-1.12 6.14-2.37.36-4.73.67-7.11.95-1.54.18-3.07.37-4.61.56-.82.1-1.63.2-2.48.3-59.7 7.35-119.44 21.8-174.0003 47.6-5.51 2.59-5.51 2.59-8.8 2.59-1.74-6.15-3.48-12.3-5.22-18.44-.59-2.09-1.18-4.17-1.77-6.25-1.73-6.07-3.44-12.15-5.15-18.24-.88-3.13-1.77-6.26-2.66-9.4-.57-2-1.13-4-1.69-6.01-.27-.93-.54-1.86-.81-2.81-.24-.86-.48-1.72-.73-2.6-.21-.75-.42-1.5-.64-2.28-.33-1.97-.33-1.97.67-4.97 1.56-1.02 1.56-1.02 3.59-1.95.75-.34 1.51-.69 2.28-1.05.83-.37 1.65-.74 2.51-1.12 1.76-.81 3.53-1.62 5.3-2.43.9-.41 1.79-.82 2.72-1.25 2.32-1.07 4.61-2.18 6.89-3.33 51.6603-25.79 109.7003-39.45 166.5203-47.75.75-.1 1.49-.21 2.25-.33 2.13-.31 4.27-.61 6.4-.91 1.21-.17 2.43-.34 3.68-.52 4.64-.43 9.21-.44 13.86-.36z" fill="#fac80a"/><path d="m427.573 827.262c11.46 10.92 16.2 22.03 17.38 37.6-.08 3.14-.08 3.14-2.08 7.14-25.08 0-50.16 0-76 0 4.22 9.49 7.55 15.97 17.11 20.31 8.46 3.09 17.17 2.53 25.44-.85 2.41-1.3 2.41-1.3 3.92-2.94 3.48-3.5 5.79-4.93 10.81-5.11 1.89.04 3.77.11 5.66.21.97.03 1.94.06 2.94.09 2.37.07 4.75.16 7.12.29-3.22 10.88-11.8 19.35-21.62 24.75-13.56 6.27-27.57 6.64-41.53 1.54-12.27-5.56-21.72-15.29-26.85-27.72-4.48-12.86-4.24-25.97 1.29-38.49 7.18-13.9 17.83-22.25 32.71-27.08 15.15-3.95 31.84.32 43.7 10.26zm-49.7 12.74c-.93.6-1.86 1.19-2.81 1.81-2.52 2.52-7.19 7.38-7.19 11.19h56c-4.35-7.62-9.77-14.92-18.58-17.6-10.16-1.7-18.77-1.19-27.42 4.6z" fill="#000102"/><path d="m333.143 824.535c.57.48 1.14.97 1.73 1.46 0 3 0 3-2.41 5.7-1.02 1.01-2.05 2-3.09 2.99-.52.51-1.05 1.02-1.59 1.55-1.3 1.26-2.6 2.51-3.91 3.76-2.76-.9-5.52-1.81-8.24-2.85-6.65-2.48-12.89-3.43-19.7-.96-3.14 1.56-3.14 1.56-4.62 4.19-.55 3.3-.11 4.74 1.56 7.62 2.77 2.43 5 3.47 8.6 4.18.88.19 1.76.37 2.66.56.93.19 1.85.38 2.8.58 11.49 2.58 20.66 5.48 27.64 15.54 4.22 6.94 4.53 15.02 2.65 22.86-3.14 8.74-8.66 15.16-16.98 19.32-11.26 4.6-23.24 3.36-34.5-.73-6.49-2.95-11.59-6.61-15.87-12.31 3.96-3.96 7.92-7.92 12-12 3.68 1.84 7.22 3.83 10.78 5.88 5.12 2.59 10.58 2.78 16.22 2.12 3.86-1.99 5.6-3.39 8-7 .69-5.88.69-5.88-2.12-10.87-4.78-3.53-9.94-4.38-15.69-5.44-6.18-1.29-10.98-3.15-16.19-6.69-.91-.57-1.81-1.15-2.75-1.75-4.8-4.79-8.33-11.46-8.56-18.31.12-7.24 2.61-13.51 7.56-18.81 15.58-14.12 37.3-10.61 54.02-.59z" fill="#000102"/><path d="m492.874 239c38.29 3.5 78.289 22.49 112.999 38-2.36 9.78-4.92 19.42-8 29-.839-.35-.84-.35-1.69-.71-32.47-13.55-65.829-24.45-100.039-32.65-2.27-.64-2.27-.64-3.27-1.64-.09-2.38-.12-4.72-.1-7.1 0-.71.01-1.42.01-2.15 0-2.27.01-4.54.03-6.81 0-1.54.01-3.08.01-4.61.01-3.78.03-7.55.05-11.33z" fill="#00b1d5"/><g fill="#000102"><path d="m534.061 827.375c.6.54 1.2 1.07 1.81 1.62-.47 4.32-3.03 6.34-6.06 9.26-.92.89-1.84 1.78-2.79 2.7-.71.67-1.42 1.35-2.15 2.04-3.4-1.29-6.51-2.8-9.69-4.56-7.16-3.59-14.25-4.37-22.01-2.28-8.5 3.13-14.27 7.68-18.3 15.84-3.07 7.74-3.6 17.07-.43 24.88 4.75 8.96 10.93 13.96 20.43 17.12 9.68.76 17.52.3 25.31-5.81 1.69-1.19 1.69-1.19 3.47-1.08 3.23 1.3 5.07 3.46 7.47 5.96 1.34 1.38 1.34 1.38 2.71 2.78.67.71 1.35 1.42 2.04 2.15-2.57 6.32-8.89 9.59-14.87 12.31-13.91 5.06-27.82 4.68-41.38-1.43-8.92-4.9-15.81-12.04-20.75-20.88-.58-.99-.58-.99-1.18-2-6.03-11.61-5.66-25.43-2.03-37.64 2.27-6.4 5.77-11.28 10.21-16.36.5-.61 1-1.23 1.52-1.87 17.38-19.71 47.16-17.28 66.67-2.75z"/><path d="m255.874 776v18c-1.96.54-3.921 1.07-5.941 1.62-9.079 2.82-16.44 6.79-21.06 15.38-.99 2.48-.99 2.48-2 5h29.001v19c-10.23 0-20.461 0-31.001 0v79c-5.61 0-11.22 0-17 0-2.1-2.1-1.17-6.73-1.18-9.63 0-.9-.01-1.81-.02-2.74-.02-3.02-.03-6.04-.04-9.05 0-1.03-.01-2.06-.01-3.13-.02-5.46-.039-10.93-.049-16.4-.01-5.62-.041-11.25-.081-16.87-.03-4.35-.029-8.69-.039-13.03 0-2.07-.011-4.14-.031-6.21-.16-18.31 1.99-34.18 15.45-47.94 10.09-8.32 20.931-13 34.001-13z"/><path d="m143.873 776h18v40h30c1.59 3.17 1.14 6.58 1.12 10.06.01 1.12.01 1.12.02 2.26-.01 5.55-.01 5.55-1.14 6.68-2.22.09-4.44.11-6.66.1-1 0-1 0-2.01-.01-2.13 0-4.26-.01-6.39-.03-1.44 0-2.88-.01-4.32-.01-3.54-.01-7.08-.03-10.62-.05.07 4.82.16 9.64.26 14.46.04 1.64.06 3.27.09 4.91.17 12.37.49 23.21 9.65 32.63 6.52 5.13 12.8 6.83 21 8v18c-6.86 2.29-15.22-1.06-21.65-3.8-13.3-6.78-21.43-18.47-26.35-32.2-.81-2.79-1.12-5.26-1.12-8.16 0-.83 0-1.65 0-2.49 0-.9 0-1.79.01-2.71 0-.95 0-1.89 0-2.87 0-3.12 0-6.25.01-9.38 0-2.17.01-4.34.01-6.51 0-5.7.01-11.41.02-17.12.01-5.83.02-11.65.02-17.47.01-11.43.03-22.86.05-34.29z"/><path d="m236.682 686.449c5.5 3.89 9.43 8.99 11.19 15.55.42 4.97.35 9.92.29 14.9 0 1.45-.01 2.9-.01 4.35-.01 3.78-.04 7.57-.07 11.36-.03 3.88-.05 7.75-.06 11.63-.03 7.59-.09 15.17-.15 22.76-3.3 0-6.6 0-10 0 0-1.18 0-1.18-.01-2.39-.04-7.44-.09-14.89-.17-22.33-.04-3.83-.07-7.66-.09-11.48-.01-3.7-.05-7.39-.1-11.09-.01-1.41-.02-2.81-.02-4.22 0-1.98-.03-3.96-.06-5.93-.01-1.13-.02-2.25-.03-3.41-.64-3.89-2.09-6.07-4.52-9.15-4.72-3.29-9.4-3.91-15-3-5.12 2.65-8.18 5.53-10 11-.39 5.25.14 8.55 3 13 4.89 4.53 8.66 5.14 15.19 5.56 1.27.09 2.54.17 3.85.26.98.06 1.96.12 2.96.18-1.94 4.17-4.18 7.36-8 10-6.93 1.27-12.25-1.13-18-5-5.72-5.02-9.22-10.6-10.31-18.15-.41-7.32 2.25-13.53 6.06-19.66 9.48-9.22 22.35-11.41 34.06-4.74z"/><path d="m350.999 684.844c7.91 4.88 11.74 11.23 13.88 20.16.44 5.07.38 10.09.24 15.18-.02 1.35-.03 2.7-.05 4.04-.05 3.26-.11 6.52-.19 9.78-4.56.1-9.11.17-13.66.22-1.55.02-3.1.04-4.64.08-15.8.34-15.8.34-22.7-4.3-.89-.56-1.78-1.12-2.69-1.69-5.3-5.3-8.4-12.01-8.57-19.5.13-7.54 2.35-13.76 7.5-19.31 8.22-7.06 20.92-9.14 30.88-4.66zm-25.44 14.72c-2.87 4.14-3.02 7.49-2.68 12.44 2.04 5.67 5.59 9.29 11 12 1.59.08 3.19.1 4.78.09 1.42 0 1.42 0 2.86-.01.98 0 1.97-.01 2.98-.02 1.49-.01 1.49-.01 3.01-.01 2.45-.02 4.91-.03 7.37-.05-.06-3.38-.15-6.75-.26-10.13-.01-.95-.02-1.9-.04-2.88-.2-5.95-.8-9.43-4.7-13.99-4.27-3.75-8.2-4.36-13.72-4.28-4.76.58-7.51 3.42-10.6 6.84z"/><path d="m178.717 686.449c5.61 4.04 9 8.97 11.16 15.55.34 3.73.34 3.73.29 7.68-.01.7-.01 1.41-.01 2.13-.02 2.21-.06 4.42-.1 6.63-.01 1.51-.03 3.02-.04 4.53-.03 3.68-.08 7.35-.14 11.03-4.38.13-8.75.22-13.13.28-1.48.02-2.96.05-4.45.1-9.95.28-18.59-.01-26.32-7.12-6.24-6.6-7.75-13.05-7.51-21.97.84-6.79 3.77-12.11 8.78-16.73 9.52-7.18 20.96-8.16 31.47-2.11zm-27.16 12.06c-3.04 4.57-3.61 9.12-2.68 14.49 1.62 4.9 4.3 7.72 8.87 10.2 4.09 1.53 8.26 1.21 12.56 1.05.93-.02 1.85-.04 2.8-.05 2.26-.05 4.51-.12 6.77-.2.11-3.19.18-6.37.25-9.56.03-.9.06-1.79.1-2.71.09-6.16-.71-9.72-4.35-14.73-4.25-3.54-8.28-4.67-13.8-4.38-4.41.76-7.58 2.52-10.52 5.89z"/><path d="m254.873 683h10c.01 1.31.01 1.31.03 2.64.04 3.27.1 6.53.18 9.79.03 1.41.05 2.82.06 4.22-.04 10.88-.04 10.88 4.73 20.35 3.74 3.03 7.22 3.84 12 4 4.23-.89 7.23-2.27 10.38-5.25 4.29-7.27 4.03-14.95 4.24-23.19.04-1.21.08-2.41.12-3.66.1-2.97.18-5.93.26-8.9h9c.12 4.37.21 8.75.27 13.12.03 1.49.06 2.97.11 4.45.28 9.96-.01 18.59-7.12 26.32-6.6 6.24-13.05 7.76-21.97 7.52-7-.87-12.3-3.73-16.73-9.22-6.19-8.68-5.94-17.49-5.75-27.69.02-1.41.03-2.82.04-4.23.04-3.42.09-6.85.15-10.27z"/></g><path d="m328.874 0h6v1c-1.98 0-3.96 0-6 0 0-.33 0-.66 0-1z" fill="#15327a"/><path d="m320.874 0h6v1c-1.98 0-3.96 0-6 0 0-.33 0-.66 0-1z" fill="#160cca"/></svg>