<svg xmlns="http://www.w3.org/2000/svg" viewBox="0 0 12 12"  fill="none"><path fill="currentColor" d="M5.962.62a2.955 2.955 0 0 0-2.949 2.948c0 .882.436 1.63 1.053 2.172l-.882 1.632a1.27 1.27 0 0 0-1.435 1.25c0 .693.571 1.264 1.264 1.264a1.27 1.27 0 0 0 1.264-1.263c0-.336-.138-.642-.356-.87L5.12 5.53l-.316-.21a2.1 2.1 0 0 1 1.158-3.857 2.1 2.1 0 0 1 2.107 2.106c0 .247-.041.479-.118.697l.79.29A2.955 2.955 0 0 0 5.961.62Zm0 1.684a1.27 1.27 0 0 0-1.264 1.264 1.27 1.27 0 0 0 1.435 1.25L7.29 6.661l.21.342.356-.21c.32-.184.684-.28 1.053-.277a2.1 2.1 0 0 1 2.107 2.107 2.1 2.1 0 0 1-2.107 2.106 2.082 2.082 0 0 1-1.566-.698l-.632.553a2.953 2.953 0 0 0 2.198.987 2.955 2.955 0 0 0 2.95-2.948 2.955 2.955 0 0 0-2.95-2.95c-.388 0-.725.154-1.066.29l-.961-1.54c.21-.225.343-.526.343-.855a1.27 1.27 0 0 0-1.264-1.264Zm0 .843c.237 0 .421.184.421.42a.416.416 0 0 1-.421.422.416.416 0 0 1-.421-.421c0-.237.184-.421.42-.421ZM2.526 5.714A2.956 2.956 0 0 0 .46 10.097a2.957 2.957 0 0 0 4.029 1.08c.804-.466 1.238-1.278 1.369-2.133h1.869c.176.487.64.842 1.184.842a1.27 1.27 0 0 0 1.264-1.263A1.27 1.27 0 0 0 8.91 7.359c-.544 0-1.008.355-1.184.842H5.119v.422a2.108 2.108 0 0 1-4.217.087 2.108 2.108 0 0 1 1.756-2.167l-.132-.83ZM3.013 8.2c.237 0 .421.185.421.422a.416.416 0 0 1-.42.42.416.416 0 0 1-.422-.42c0-.238.184-.422.421-.422Zm5.897 0c.238 0 .422.185.422.422a.416.416 0 0 1-.422.42.416.416 0 0 1-.42-.42c0-.238.184-.422.42-.422Z"/></svg>