<svg xmlns="http://www.w3.org/2000/svg" viewBox="0 0 12 12" fill="none"><g stroke="currentColor" stroke-linecap="round" stroke-linejoin="round" clip-path="url(#a)"><path d="M3.5 5.5V11" opacity=".4"/><path d="M10.196 9.728A1.5 1.5 0 0 1 8.713 11H2a1 1 0 0 1-1-1V6.5a1 1 0 0 1 1-1h1.175a.5.5 0 0 0 .457-.297l1.76-3.959A.411.411 0 0 1 5.767 1C6.448 1 7 1.552 7 2.233V4a.5.5 0 0 0 .5.5h1.752a1.5 1.5 0 0 1 1.482 1.728l-.538 3.5Z"/></g><defs><clipPath id="a"><path fill="#fff" d="M0 0h12v12H0z"/></clipPath></defs></svg>