<svg xmlns="http://www.w3.org/2000/svg" viewBox="0 0 12 12" fill="none"><g stroke="currentColor" stroke-linecap="round" stroke-linejoin="round" clip-path="url(#a)"><path d="M8.5 1v5.5" opacity=".4"/><path d="M1.686 3.035c.112-.722.167-1.083.344-1.355a1.5 1.5 0 0 1 .637-.546C2.962 1 3.327 1 4.06 1h5.34c.56 0 .84 0 1.055.109a1 1 0 0 1 .436.437C11 1.76 11 2.04 11 2.6v2.3c0 .56 0 .84-.11 1.054a1 1 0 0 1-.437.437C10.24 6.5 9.96 6.5 9.4 6.5h-.38c-.189 0-.283 0-.365.03a.5.5 0 0 0-.192.124c-.06.063-.098.15-.175.321l-1.68 3.78a.41.41 0 0 1-.376.245C5.552 11 5 10.448 5 9.767V8.3c0-.28 0-.42-.055-.527a.5.5 0 0 0-.218-.218C4.62 7.5 4.48 7.5 4.2 7.5h-.403c-.964 0-1.446 0-1.79-.196a1.5 1.5 0 0 1-.66-.77c-.142-.37-.069-.846.078-1.799l.261-1.7Z"/></g><defs><clipPath id="a"><path fill="#fff" d="M0 0h12v12H0z"/></clipPath></defs></svg>