<svg fill="none" viewBox="0 0 22.5 22" xmlns="http://www.w3.org/2000/svg"><path d="M20.424 8.64c-.353-.37-.719-.75-.857-1.085-.127-.307-.134-.815-.142-1.307-.014-.915-.03-1.952-.75-2.673-.72-.72-1.758-.736-2.673-.75-.492-.008-1-.015-1.307-.143-.333-.137-.715-.503-1.084-.856C12.964 1.204 12.229.5 11.25.5s-1.713.704-2.36 1.326c-.37.353-.75.719-1.085.857-.305.127-.815.135-1.307.142-.915.014-1.952.03-2.673.75-.72.72-.731 1.758-.75 2.673-.008.492-.015 1-.143 1.307-.137.333-.503.715-.856 1.084C1.454 9.286.75 10.021.75 11s.704 1.713 1.326 2.36c.353.37.719.75.857 1.085.127.307.135.815.142 1.307.014.915.03 1.952.75 2.673.72.72 1.758.736 2.673.75.492.008 1 .015 1.307.142.333.138.715.504 1.084.857.647.622 1.382 1.326 2.361 1.326s1.713-.704 2.36-1.326c.37-.353.75-.719 1.085-.857.307-.127.815-.134 1.307-.142.915-.014 1.952-.03 2.673-.75.72-.72.736-1.758.75-2.673.008-.492.015-1 .142-1.307.138-.333.504-.715.857-1.084.622-.647 1.326-1.382 1.326-2.361s-.704-1.713-1.326-2.36m-4.893.64-5.25 5.25a.747.747 0 0 1-1.062 0l-2.25-2.25a.75.75 0 1 1 1.062-1.06l1.719 1.72 4.72-4.72a.751.751 0 0 1 1.06 1.06Z" fill="currentColor"/></svg>