<svg viewBox="0 0 64 64" fill="none" xmlns="http://www.w3.org/2000/svg"><g filter="url(#a)"><rect x="6.686" y="3.299" width="50.693" height="50" rx="9.752" fill="#fff"/><rect x="7.092" y="3.705" width="49.881" height="49.187" rx="9.346" stroke="#D9DAE5" stroke-width=".813"/></g><path fill-rule="evenodd" clip-rule="evenodd" d="M34.581 46.422c-.873.126-1.767.192-2.677.192-10.221 0-18.508-8.287-18.508-18.508 0-10.222 8.287-18.508 18.508-18.508 10.222 0 18.509 8.286 18.509 18.508 0 .461-.017.918-.05 1.371a12.089 12.089 0 0 0-5.224-1.178c-6.702 0-12.135 5.433-12.135 12.135 0 2.177.573 4.22 1.578 5.988Zm-12.97-17.884 2.007-1.917a.813.813 0 0 1 1.127.004l3.415 3.307c.32.31.828.305 1.142-.01l9.766-9.831a.813.813 0 0 1 1.157.004l2.039 2.085a.813.813 0 0 1-.01 1.146L29.305 36.142a.813.813 0 0 1-1.14.002l-6.562-6.439a.813.813 0 0 1 .008-1.167Z" fill="url(#b)"/><path fill-rule="evenodd" clip-rule="evenodd" d="M50.214 40.54c-.167.424-.445.795-.5.795l-1.222 1.168-2.444-2.282 2.388-2.282 1.222 1.168c.39.318.722.742.556 1.432Zm-6.164 5.252c-.444-.16-.833-.425-.833-.478l-1.222-1.167 2.389-2.282 2.388 2.282-1.222 1.167c-.333.318-.833.637-1.5.477Zm-5.5-5.89c.167-.424.445-.795.5-.795l1.223-1.168 2.388 2.282-2.388 2.282-1.278-1.168c-.333-.318-.666-.796-.444-1.432Zm6.167-5.254c.444.159.833.424.833.477l1.222 1.168-2.389 2.281-2.388-2.281 1.222-1.168c.333-.318.778-.69 1.5-.477Zm6.72 2.813-4.166-3.98c-.056-.052-.722-.69-1.722-1.008-1.445-.477-2.833-.106-4 1.009l-4.221 3.98c-.056.052-.723.69-1.056 1.644-.5 1.38-.111 2.707 1.056 3.821l4.166 3.98c.055.053.722.69 1.722 1.008.389.106.833.212 1.222.212 1 0 1.944-.424 2.777-1.167l4.166-3.98c.056-.053.722-.69 1.056-1.645.5-1.38.11-2.76-1-3.874Z" fill="#25A6F7"/><defs><linearGradient id="b" x1="31.904" y1="9.598" x2="31.904" y2="46.614" gradientUnits="userSpaceOnUse"><stop stop-color="#6573BC"/><stop offset="1" stop-color="#F15596"/></linearGradient><filter id="a" x=".184" y=".048" width="63.696" height="63.003" filterUnits="userSpaceOnUse" color-interpolation-filters="sRGB"><feFlood flood-opacity="0" result="BackgroundImageFix"/><feColorMatrix in="SourceAlpha" values="0 0 0 0 0 0 0 0 0 0 0 0 0 0 0 0 0 0 127 0" result="hardAlpha"/><feOffset dy="3.251"/><feGaussianBlur stdDeviation="3.251"/><feColorMatrix values="0 0 0 0 0.376471 0 0 0 0 0.380392 0 0 0 0 0.439216 0 0 0 0.16 0"/><feBlend in2="BackgroundImageFix" result="effect1_dropShadow_2017_382610"/><feColorMatrix in="SourceAlpha" values="0 0 0 0 0 0 0 0 0 0 0 0 0 0 0 0 0 0 127 0" result="hardAlpha"/><feOffset/><feGaussianBlur stdDeviation=".813"/><feColorMatrix values="0 0 0 0 0.156863 0 0 0 0 0.160784 0 0 0 0 0.239216 0 0 0 0.04 0"/><feBlend in2="effect1_dropShadow_2017_382610" result="effect2_dropShadow_2017_382610"/><feBlend in="SourceGraphic" in2="effect2_dropShadow_2017_382610" result="shape"/></filter></defs></svg>