<svg viewBox="0 0 65 64" fill="none" xmlns="http://www.w3.org/2000/svg"><g filter="url(#a)"><rect x="7.332" y="3.299" width="50.693" height="50" rx="9.752" fill="#fff"/><rect x="7.738" y="3.705" width="49.881" height="49.187" rx="9.346" stroke="#D9DAE5" stroke-width=".813"/></g><circle cx="32.551" cy="28.106" r="18.508" fill="url(#b)"/><path d="m22.258 28.538 2.007-1.917a.813.813 0 0 1 1.126.004l3.415 3.307c.32.31.829.305 1.142-.01l9.766-9.831a.813.813 0 0 1 1.158.004l2.038 2.085a.813.813 0 0 1-.01 1.146L29.953 36.142a.813.813 0 0 1-1.141.002l-6.561-6.439a.813.813 0 0 1 .008-1.167ZM37.194 49.004a12.097 12.097 0 0 1-3.544-8.57c0-6.702 5.434-12.135 12.136-12.135 2.652 0 5.105.85 7.102 2.295 2.96 10.677-10.86 20.987-15.694 18.41Z" fill="#fff"/><path fill-rule="evenodd" clip-rule="evenodd" d="M50.86 40.54c-.166.424-.444.795-.5.795l-1.222 1.168-2.444-2.282 2.389-2.282 1.222 1.168c.389.318.722.742.555 1.432Zm-6.163 5.252c-.445-.16-.834-.425-.834-.478l-1.222-1.167 2.389-2.282 2.389 2.282-1.222 1.167c-.334.318-.834.637-1.5.477Zm-5.5-5.89c.167-.424.445-.795.5-.795l1.222-1.168 2.389 2.282-2.389 2.282-1.277-1.168c-.334-.318-.667-.796-.445-1.432Zm6.166-5.254c.445.159.834.424.834.477l1.222 1.168-2.389 2.281-2.389-2.281 1.222-1.168c.334-.318.778-.69 1.5-.477Zm6.72 2.813-4.166-3.98c-.055-.052-.722-.69-1.722-1.008-1.444-.477-2.833-.106-4 1.009l-4.221 3.98c-.056.052-.722.69-1.055 1.644-.5 1.38-.112 2.707 1.055 3.821l4.166 3.98c.056.053.722.69 1.722 1.008.389.106.833.212 1.222.212 1 0 1.944-.424 2.778-1.167l4.166-3.98c.055-.053.722-.69 1.055-1.645.5-1.38.111-2.76-1-3.874Z" fill="#25A6F7"/><defs><linearGradient id="b" x1="32.551" y1="9.598" x2="32.551" y2="46.614" gradientUnits="userSpaceOnUse"><stop stop-color="#6573BC"/><stop offset="1" stop-color="#F15596"/></linearGradient><filter id="a" x=".831" y=".048" width="63.696" height="63.003" filterUnits="userSpaceOnUse" color-interpolation-filters="sRGB"><feFlood flood-opacity="0" result="BackgroundImageFix"/><feColorMatrix in="SourceAlpha" values="0 0 0 0 0 0 0 0 0 0 0 0 0 0 0 0 0 0 127 0" result="hardAlpha"/><feOffset dy="3.251"/><feGaussianBlur stdDeviation="3.251"/><feColorMatrix values="0 0 0 0 0.376471 0 0 0 0 0.380392 0 0 0 0 0.439216 0 0 0 0.16 0"/><feBlend in2="BackgroundImageFix" result="effect1_dropShadow_1920_380753"/><feColorMatrix in="SourceAlpha" values="0 0 0 0 0 0 0 0 0 0 0 0 0 0 0 0 0 0 127 0" result="hardAlpha"/><feOffset/><feGaussianBlur stdDeviation=".813"/><feColorMatrix values="0 0 0 0 0.156863 0 0 0 0 0.160784 0 0 0 0 0.239216 0 0 0 0.04 0"/><feBlend in2="effect1_dropShadow_1920_380753" result="effect2_dropShadow_1920_380753"/><feBlend in="SourceGraphic" in2="effect2_dropShadow_1920_380753" result="shape"/></filter></defs></svg>