<svg xmlns="http://www.w3.org/2000/svg" viewBox="0 0 40 40" fill="none" xmlns:v="https://vecta.io/nano"><path d="M12.902 24.848l.923-.898.296-.295s7.98-5.176 12.767-5.176h.413c-4.473-.226-8.709-2.037-11.916-5.095L3.542 1.815H2.76L1.457 3.094v.765L12.946 15.1c1.309 1.302 2.039 3.057 2.031 4.883s-.754 3.575-2.075 4.865z" fill="url(#A)"/><path d="M21.115 9.206L12.416.699h-.782l-1.302 1.274v.765l9.102 8.907c2.232 2.182 5.257 3.407 8.412 3.408h6.59l.554-.537v-1.811l-.554-.537h-6.012c-2.741 0-5.37-1.065-7.309-2.961z" fill="url(#B)"/><path d="M21.115 30.794l-8.699 8.508h-.782l-1.302-1.278v-.765l9.102-8.902c2.232-2.182 5.257-3.407 8.412-3.408h6.59l.554.537v1.806l-.554.542h-6.012c-2.741 0-5.37 1.065-7.309 2.961z" fill="url(#C)"/><path d="M7.396 15.385l-5.312-5.19h-.778L0 11.473v.761l5.059 4.953c.373.364.669.797.871 1.273s.306.987.306 1.503a3.85 3.85 0 0 1-.306 1.503 3.92 3.92 0 0 1-.871 1.273L.374 27.324v.76l1.307 1.279h.778l4.932-4.819c.616-.601 1.104-1.315 1.438-2.1s.505-1.628.506-2.478a6.35 6.35 0 0 0-.503-2.479 6.46 6.46 0 0 0-1.435-2.102z" fill="url(#D)"/><path d="M39.446 18.479H26.889c-4.789.003-9.38 1.865-12.766 5.176L1.331 36.165v.765l1.307 1.278h.782l11.926-11.649c1.675-1.644 3.666-2.948 5.857-3.838a18.39 18.39 0 0 1 6.914-1.348h11.337l.544-.518v-1.806l-.554-.57z" fill="url(#E)"/><defs><linearGradient id="A" x1="1.457" y1="-1.013" x2="10.034" y2="29.386" href="#F"><stop stop-color="#2152cf"/><stop offset="1" stop-color="#608bff"/></linearGradient><linearGradient id="B" x1="33.819" y1="13.696" x2="22.827" y2="-6.239" href="#F"><stop stop-color="#b5b4b4"/><stop offset="1" stop-color="#dcdcdc"/></linearGradient><linearGradient id="C" x1="33.819" y1="37.945" x2="22.827" y2="18.01" href="#F"><stop stop-color="#b5b4b4"/><stop offset="1" stop-color="#dcdcdc"/></linearGradient><linearGradient id="D" x1="8.892" y1="27.552" x2="-5.225" y2="20.294" href="#F"><stop stop-color="#b5b4b4"/><stop offset="1" stop-color="#dcdcdc"/></linearGradient><linearGradient id="E" x1="38.164" y1="36.344" x2="24.166" y2="7.378" href="#F"><stop stop-color="#b5b4b4"/><stop offset="1" stop-color="#dcdcdc"/></linearGradient><linearGradient id="F" gradientUnits="userSpaceOnUse"/></defs></svg>
