<svg viewBox="0 0 8 10" fill="none" xmlns="http://www.w3.org/2000/svg">
<path fill-rule="evenodd" clip-rule="evenodd" d="M0 0.854991C0 0.566842 0.233591 0.333252 0.521739 0.333252C0.809887 0.333252 1.04348 0.566842 1.04348 0.854991V9.14485C1.04348 9.433 0.809887 9.66659 0.521739 9.66659C0.233591 9.66659 0 9.433 0 9.14485V0.854991ZM3.47826 0.854991C3.47826 0.566842 3.71185 0.333252 4 0.333252C4.28815 0.333252 4.52174 0.566842 4.52174 0.854991V9.14485C4.52174 9.433 4.28815 9.66659 4 9.66659C3.71185 9.66659 3.47826 9.433 3.47826 9.14485V0.854991ZM7.47826 0.333252C7.19011 0.333252 6.95652 0.566842 6.95652 0.854991V9.14485C6.95652 9.433 7.19011 9.66659 7.47826 9.66659C7.76641 9.66659 8 9.433 8 9.14485V0.854991C8 0.566842 7.76641 0.333252 7.47826 0.333252Z" fill="currentColor"/>
</svg>
