<svg fill="currentColor" xmlns="http://www.w3.org/2000/svg" viewBox="0 0 14 15"><path fill-rule="evenodd" clip-rule="evenodd" d="M7 5.885c1.289 0 2.333-1.106 2.333-2.47C9.333 2.05 8.29.945 7 .945c-1.289 0-2.333 1.105-2.333 2.47 0 1.364 1.044 2.47 2.333 2.47zm0-.823c.86 0 1.556-.737 1.556-1.647S7.859 1.768 7 1.768c-.859 0-1.555.737-1.555 1.647S6.14 5.062 7 5.062zm-2.333 7.41c0 1.365-1.045 2.47-2.334 2.47-1.288 0-2.333-1.105-2.333-2.47 0-1.103.684-2.038 1.627-2.355a6.139 6.139 0 01-.071-.937c0-2.321 1.296-4.323 3.164-5.236.049.236.13.46.237.666-1.586.81-2.701 2.534-2.701 4.57 0 .28.02.555.061.822h.016c1.289 0 2.334 1.106 2.334 2.47zm-.778-.001c0 .91-.697 1.647-1.556 1.647-.859 0-1.555-.737-1.555-1.647s.696-1.647 1.555-1.647c.86 0 1.556.737 1.556 1.647zM14 12.473c0 1.364-1.045 2.47-2.333 2.47-1.289 0-2.334-1.106-2.334-2.47 0-1.365 1.045-2.471 2.334-2.471h.016a5.54 5.54 0 00.061-.822c0-2.036-1.115-3.76-2.7-4.57.107-.206.187-.43.236-.666 1.868.913 3.164 2.915 3.164 5.236 0 .32-.024.632-.071.937.943.317 1.627 1.252 1.627 2.355zm-.778-.002c0 .91-.696 1.647-1.555 1.647-.86 0-1.556-.737-1.556-1.647s.696-1.647 1.556-1.647c.859 0 1.555.737 1.555 1.647zm-3.694.994c.091.22.212.424.357.605a5.2 5.2 0 01-5.77 0 2.5 2.5 0 00.357-.605c.736.495 1.605.78 2.528.78s1.792-.285 2.528-.78z"/></svg>