<svg xmlns="http://www.w3.org/2000/svg" viewBox="0 0 24 24">
  <g clip-path="url(#clip0_20941_163640)">
    <path fill="#fff" d="M11.243 6.727v-.474.474zm9.563 3.197l.235-.395-.053-.04-.062-.02-.12.455zm0 .281l.124.453.053-.018.048-.033-.226-.402zm-18.992.05l-.216.408.044.03.049.016.123-.454zm.001-.282l-.122-.454-.054.018-.047.033.223.403zm5.017-1.165c.225-.074.354-.337.288-.589-.066-.25-.302-.395-.527-.321l.24.91zm2.19-1.774c-.222.085-.34.355-.263.602.076.248.317.38.54.294l-.277-.896zm2.222.167c-.041 0-.067-.008-.04-.002l.067.018c.063.017.153.044.268.08.228.07.545.173.927.298.762.252 1.774.594 2.838.955 2.123.722 4.454 1.523 5.381 1.829l.241-.91c-.923-.304-3.245-1.102-5.375-1.826a358.902 358.902 0 00-2.845-.957c-.383-.126-.705-.23-.94-.303a10.3 10.3 0 00-.394-.113c-.016-.004-.072-.017-.13-.017l.002.948zm9.437 2.551c-.921.316-3.208 1.137-5.303 1.877-1.049.37-2.05.722-2.813.98-.381.13-.7.235-.935.309-.118.036-.21.064-.278.082-.087.024-.09.02-.06.019l.023.948c.077-.003.174-.029.237-.045.082-.023.186-.054.307-.091.243-.077.57-.184.953-.315.768-.26 1.773-.612 2.823-.983 2.103-.744 4.378-1.56 5.295-1.875l-.25-.906zm-.11.567c.029.021.022.02.005-.001a.407.407 0 01-.08-.262.402.402 0 01.089-.252c.017-.02.023-.02-.006 0l.452.803a.9.9 0 00.165-.144.6.6 0 00.013-.777.899.899 0 00-.168-.157l-.47.79zm-9.28 2.7c.033-.001.05.004.027 0a6.525 6.525 0 01-.345-.094c-.233-.07-.551-.173-.932-.3-.761-.253-1.76-.599-2.808-.965-2.091-.73-4.376-1.546-5.295-1.858l-.247.907c.915.311 3.187 1.121 5.288 1.856 1.048.366 2.052.714 2.82.969.382.127.709.233.953.306.122.037.226.067.31.088.04.01.08.02.116.026a.656.656 0 00.137.013l-.023-.948zm-9.26-3.171c-.014-.01.01.002.04.046a.409.409 0 01-.016.463c-.018.022-.028.027-.017.02l-.446-.807a.786.786 0 00-.163.147.628.628 0 00-.14.33c-.04.353.206.548.309.616l.433-.815zm-.094.58c1.058-.355 2.585-.865 4.895-1.62l-.239-.91a709.935 709.935 0 00-4.9 1.621l.244.908zM9.298 7.93a93.97 93.97 0 011.444-.543 16.507 16.507 0 01.54-.186c.045-.013.014 0-.038 0l-.002-.948c-.072 0-.148.023-.168.029a3.464 3.464 0 00-.147.046c-.113.037-.265.09-.448.157-.368.134-.87.323-1.457.549l.276.896z"/>
    <path stroke="#fff" fill="none" stroke-linecap="round" stroke-width=".9" d="M5.489 12.868v-1.075m0 5.365v.37c0 1.026 2.584 1.858 5.773 1.858 3.188 0 5.773-.832 5.773-1.859v-5.789M5.489 14.665v.492"/>
    <path fill="#fff" d="M11.31 9.33a.45.45 0 000 .9v-.9zm.971.9a.45.45 0 100-.9v.9zm2.138-.9a.45.45 0 000 .9v-.9zm6.62 7.536a.45.45 0 10.9 0h-.9zm-9.729-6.637h.971v-.9h-.97v.9zm3.11 0h6.07v-.9h-6.07v.9zm6.62.55v6.087h.9v-6.087h-.9zm-.55-.55a.55.55 0 01.55.55h.9c0-.8-.65-1.45-1.45-1.45v.9z"/>
    <path fill="#fff" d="M22.392 16.322a.45.45 0 10.9 0h-.9zm-2.705 0a.45.45 0 10.9 0h-.9zm2.705-3.164v3.164h.9v-3.164h-.9zm-2.705 0v3.164h.9v-3.164h-.9zm1.803-.903c.498 0 .902.404.902.902h.9c0-.995-.807-1.802-1.802-1.802v.9zm0-.9c-.996 0-1.803.807-1.803 1.803h.9c0-.499.404-.903.903-.903v-.9z"/>
  </g>
  <defs>
    <clipPath id="clip0_20941_163640">
      <path fill="#fff" d="M0 0h24v24H0z"/>
    </clipPath>
  </defs>
</svg>
