<svg viewBox="0 0 32 32" fill="none" xmlns="http://www.w3.org/2000/svg"><path fill-rule="evenodd" clip-rule="evenodd" d="M18.437 7.603a8.38 8.38 0 0 0-9.584 11.999l.741-2.767a.5.5 0 1 1 .966.259l-1.043 3.892-.001.007a.5.5 0 0 1-.613.353l-3.898-1.044a.5.5 0 1 1 .259-.966l2.7.723A9.38 9.38 0 0 1 18.696 6.636a.5.5 0 0 1-.26.967Zm3.833 5.989.761-2.843a8.38 8.38 0 0 1-8.933 13.042.5.5 0 0 0-.258.966 9.38 9.38 0 0 0 10.167-14.36l2.594.695a.5.5 0 0 0 .259-.966l-3.892-1.043-.007-.002a.5.5 0 0 0-.613.354v.001l-1.044 3.897a.5.5 0 1 0 .966.259Z" fill="#4F5162"/><path d="m13.327 15.823 1.832 2.219 4.168-5" stroke="#4F5162" stroke-linecap="round"/></svg>