<svg xmlns="http://www.w3.org/2000/svg" viewBox="0 0 11 12" fill="currentColor" xmlns:v="https://vecta.io/nano"><path d="M2.879 6.511h1.863V7.6c-.305.087-.583.25-.807.475s-.388.503-.475.808H.508V9.9H3.46a1.86 1.86 0 0 0 2.913.975 1.87 1.87 0 0 0 .67-.975h2.781V8.883H7.04c-.087-.305-.25-.583-.475-.808a1.86 1.86 0 0 0-.807-.475V6.511h1.863a2.88 2.88 0 1 0 0-5.761H2.879a2.88 2.88 0 1 0 0 5.76zm3.218 2.88a.85.85 0 0 1-.143.471.84.84 0 0 1-.38.312c-.155.064-.325.081-.489.048a.85.85 0 0 1-.434-.232c-.119-.119-.199-.269-.232-.434s-.016-.335.048-.489a.85.85 0 0 1 .312-.38c.139-.093.303-.143.47-.143.225 0 .44.089.599.248s.248.374.248.599zM2.879 1.767h4.742a1.86 1.86 0 0 1 1.317.546 1.87 1.87 0 0 1 .546 1.318c0 .494-.196.968-.546 1.318a1.86 1.86 0 0 1-1.317.546H2.879a1.86 1.86 0 0 1-1.317-.546 1.87 1.87 0 0 1-.546-1.318c0-.494.196-.968.546-1.318a1.86 1.86 0 0 1 1.317-.546zm.074 2.264c.181 0 .328-.147.328-.328s-.147-.328-.328-.328-.328.147-.328.328.147.328.328.328zm1.969 0c.181 0 .328-.147.328-.328s-.147-.328-.328-.328-.328.147-.328.328.147.328.328.328z"/></svg>