<svg xmlns="http://www.w3.org/2000/svg" viewBox="0 0 16 16" fill="#000" xmlns:v="https://vecta.io/nano"><path d="M4.839 8.681h2.484v1.453a2.49 2.49 0 0 0-1.71 1.71H1.677v1.355h3.936c.149.519.462.975.893 1.3S7.462 15 8.001 15s1.064-.176 1.495-.501.744-.781.893-1.3h3.708v-1.355h-3.71a2.49 2.49 0 0 0-1.71-1.71V8.681h2.484a3.84 3.84 0 1 0 0-7.681H4.839a3.84 3.84 0 1 0 0 7.68zm4.29 3.84a1.13 1.13 0 0 1-1.927.799A1.13 1.13 0 0 1 8 11.392a1.13 1.13 0 0 1 1.129 1.13zM4.839 2.355h6.323c.659 0 1.29.262 1.756.728s.728 1.098.728 1.757-.262 1.291-.728 1.757-1.098.728-1.756.728H4.839a2.48 2.48 0 0 1-1.756-.728c-.465-.466-.728-1.097-.728-1.757s.262-1.291.728-1.757 1.098-.728 1.756-.728zm.099 3.02c.242 0 .438-.196.438-.437a.44.44 0 0 0-.438-.438c-.241 0-.437.196-.437.438a.44.44 0 0 0 .438.438zm2.625 0c.242 0 .438-.196.438-.437a.44.44 0 0 0-.438-.438c-.241 0-.437.196-.437.438a.44.44 0 0 0 .438.438z"/></svg>