<svg xmlns="http://www.w3.org/2000/svg" fill="none" viewBox="0 0 13 12"><path fill="currentColor" d="m11.237 2.589-.004-.012a.275.275 0 0 0-.049-.086l-.003-.006L9.771.844A.266.266 0 0 0 9.569.75H3.93a.267.267 0 0 0-.202.094l-1.41 1.641-.004.006a.283.283 0 0 0-.048.086l-.004.012a.286.286 0 0 0-.013.083v8.297c0 .155.121.281.27.281h8.46c.149 0 .27-.126.27-.28V2.671a.28.28 0 0 0-.013-.083ZM5.522 8.484h2.457v.268a.234.234 0 0 1-.23.238H5.751a.234.234 0 0 1-.23-.238v-.268Zm-2.73-.562V5.72H4.98v.268c0 .44.346.8.77.8H7.75c.425 0 .77-.36.77-.8v-.268h2.19v2.203H2.791Zm2.189-4.97v.269c0 .44.345.8.77.8H7.75c.425 0 .77-.36.77-.8v-.268h2.19v2.204H2.791V2.953h2.19Zm2.998 0v.269a.234.234 0 0 1-.23.238H5.751a.234.234 0 0 1-.23-.238v-.268H7.98ZM5.522 5.72h2.457v.268a.234.234 0 0 1-.23.237H5.751a.234.234 0 0 1-.23-.237v-.268ZM4.052 1.31h5.396l.928 1.08H3.125l.927-1.08Zm6.657 9.377H2.791V8.484h2.19v.268c0 .441.346.8.77.8H7.75c.425 0 .77-.359.77-.8v-.268h2.19v2.204Z"/></svg>