<svg viewBox="0 0 61 73" fill="none" xmlns="http://www.w3.org/2000/svg">
  <path fill-rule="evenodd" clip-rule="evenodd" d="M18.0011 17.5118C18.0011 10.7795 23.4588 5.32179 30.1911 5.32179C36.9234 5.32179 42.381 10.7795 42.381 17.5118C42.381 24.2442 36.9234 29.7019 30.1911 29.7019C23.4588 29.7019 18.0011 24.2442 18.0011 17.5118ZM30.1911 0.52179C20.8078 0.52179 13.2012 8.1285 13.2012 17.5118C13.2012 23.1634 15.9606 28.1705 20.2057 31.2593L0.465249 68.7989C0.0740421 69.5428 0.100531 70.4372 0.535081 71.1567C0.96963 71.8762 1.74891 72.3159 2.58944 72.3159H57.7946C58.6421 72.3159 59.4268 71.8689 59.859 71.1399C60.2912 70.4109 60.3069 69.508 59.9003 68.7644L39.6077 31.6557C44.1734 28.6098 47.181 23.4121 47.181 17.5118C47.181 8.1285 39.5744 0.52179 30.1911 0.52179ZM24.4472 33.5064C26.2413 34.1508 28.1752 34.5019 30.1911 34.5019C31.9606 34.5019 33.6669 34.2314 35.271 33.7294L53.7468 67.5159H6.56307L24.4472 33.5064Z" fill="currentColor" />
</svg>