<svg xmlns="http://www.w3.org/2000/svg" viewBox="0 0 32 33"><path fill-rule="evenodd" clip-rule="evenodd" d="M12.988 12.173a3.12 3.12 0 1 1 6.24 0 3.12 3.12 0 0 1-6.24 0Zm3.12-4.72a4.72 4.72 0 0 0-2.883 8.458l-2.611 4.967-1.365-3.468a3.291 3.291 0 1 0-3.707-.05l-2.277 5.968a.8.8 0 0 0 .748 1.085h4.742l-.772 1.467a.8.8 0 0 0 .708 1.173h14.834a.8.8 0 0 0 .702-1.184l-.796-1.456h4.729a.8.8 0 0 0 .744-1.095l-2.344-5.91a3.291 3.291 0 1 0-3.704-.046l-1.325 3.578-2.689-4.918a4.72 4.72 0 0 0-2.734-8.569Zm1.29 9.262a4.724 4.724 0 0 1-2.759-.054l-4.623 8.792h12.16l-4.778-8.738Zm5.652-2.05a1.691 1.691 0 1 1 3.382 0 1.691 1.691 0 0 1-3.382 0Zm-.501 8.135.007.013h4.426l-1.932-4.871a3.352 3.352 0 0 1-.7-.009L22.55 22.8Zm-14.81-4.858 1.891 4.806-.034.065H5.174l1.862-4.88a3.322 3.322 0 0 0 .703.01Zm-1.998-3.277a1.691 1.691 0 1 1 3.382 0 1.691 1.691 0 0 1-3.382 0Z" fill="currentColor"/></svg>