<svg xmlns="http://www.w3.org/2000/svg" fill="none" viewBox="0 0 16 16"><path fill="currentColor" fill-rule="evenodd" d="M6.54009 4.77776c.3861-.39118.91068-.61174 1.45861-.61174.54792 0 1.07251.22056 1.4586.61174.38595.39102.602.92045.602 1.47159s-.21605 1.08057-.602 1.47159c-.06988.0708-.14429.13601-.22256.19533.3842.16207.73718.39963 1.03676.70319.6019.60982.9393 1.43604.9393 2.29654v.5833c0 .1841-.1492.3334-.3333.3334s-.3333-.1493-.3333-.3334v-.5833c0-.6865-.2693-1.34408-.74713-1.82822-.47771-.484-1.12469-.7551-1.79837-.7551s-1.32066.2711-1.79837.7551c-.47786.48414-.74709 1.14172-.74709 1.82822v.5833c0 .1841-.14924.3334-.33333.3334-.1841 0-.33333-.1493-.33333-.3334v-.5833c0-.8605.33737-1.68672.93927-2.29654.29962-.30356.6526-.54112 1.0368-.70319-.07827-.05932-.15268-.12453-.22256-.19533-.38594-.39102-.602-.92045-.602-1.47159s.21606-1.08057.602-1.47159m1.45861.05492c-.36828 0-.72237.14818-.98413.41339-.26191.26535-.40981.62616-.40981 1.00328s.1479.73793.40981 1.00328c.26176.2652.61585.41339.98413.41339s.72237-.14819.98413-.41339c.2619-.26535.40981-.62616.40981-1.00328s-.14791-.73793-.40981-1.00328c-.26176-.26521-.61585-.41339-.98413-.41339M2.34116 6.94023c.27811-.28177.65625-.44088 1.05148-.44088.39522 0 .77336.15911 1.05148.44088.27797.28163.43337.66269.43337 1.05912s-.1554.77748-.43337 1.05911c-.27812.28178-.65626.44089-1.05148.44089-.36828 0-.72237.14818-.98413.41339-.26191.26536-.40981.62616-.40981 1.00326v.5833c0 .1841-.14924.3334-.33334.3334-.18409 0-.33333-.1493-.33333-.3334v-.5833c0-.5511.21606-1.08055.602-1.47158.1346-.13637.28603-.252.44941-.34478-.01434-.01342-.02844-.02715-.04228-.04118-.27798-.28163-.43337-.66268-.43337-1.05911s.15539-.77749.43337-1.05912m1.05148.22579c-.21558 0-.42322.08672-.57701.24253-.15393.15595-.24117.36839-.24117.5908s.08724.43484.24117.5908c.15379.15581.36143.24253.57701.24253s.42322-.08672.577-.24253c.15393-.15596.24118-.36839.24118-.5908s-.08725-.43485-.24118-.5908c-.15378-.15581-.36142-.24253-.577-.24253m8.16066-.22579c.2781-.28177.6562-.44088 1.0515-.44088.3952 0 .7733.15911 1.0514.44088.278.28163.4334.66269.4334 1.05912s-.1554.77748-.4334 1.05911c-.0138.01403-.0279.02776-.0422.04118.1633.09278.3148.20841.4494.34478.3859.39103.602.92048.602 1.47158v.5833c0 .1841-.1493.3334-.3334.3334s-.3333-.1493-.3333-.3334v-.5833c0-.3771-.1479-.7379-.4098-1.00326-.2618-.26521-.6159-.41339-.9841-.41339-.3953 0-.7734-.15911-1.0515-.44089-.278-.28163-.4334-.66268-.4334-1.05911s.1554-.77749.4334-1.05912m1.0515 1.89245c.2155 0 .4232-.08672.577-.24253.1539-.15596.2411-.36839.2411-.5908s-.0872-.43485-.2411-.5908c-.1538-.15581-.3615-.24253-.577-.24253-.2156 0-.4233.08672-.577.24253-.154.15595-.2412.36839-.2412.5908s.0872.43484.2412.5908c.1537.15581.3614.24253.577.24253" clip-rule="evenodd"/></svg>