<svg viewBox="0 0 33 33" fill="currentColor" xmlns="http://www.w3.org/2000/svg"><path fill-rule="evenodd" clip-rule="evenodd" d="M4.597 7.568a1 1 0 0 1 .903-.57h12a1 1 0 0 1 1 1v3a1 1 0 1 1-2 0v-2H7.601l5.175 6.37a1 1 0 0 1 .035 1.216l-5.355 7.414H16.5v-2a1 1 0 0 1 2 0v3a1 1 0 0 1-1 1h-12a1 1 0 0 1-.81-1.585l6.05-8.38L4.725 8.63a1 1 0 0 1-.127-1.06Zm18.745 9.417c-.24.345-.572.734-.944 1.1-.556.549-1.047.896-1.27.985a1 1 0 1 0 .743 1.857c.611-.245 1.337-.832 1.931-1.418.236-.232.474-.487.698-.753.224.266.462.521.698.753.594.586 1.32 1.173 1.93 1.418a1 1 0 0 0 .744-1.857c-.223-.09-.714-.436-1.27-.985a8.106 8.106 0 0 1-.944-1.1c.233-.37.55-.808.898-1.193.252-.28.493-.503.698-.648.154-.108.238-.137.259-.144l.005-.002a1 1 0 0 0-.018-2c-.558 0-1.047.265-1.395.51a6.376 6.376 0 0 0-1.036.946c-.198.22-.39.455-.569.692-.179-.237-.37-.471-.569-.692a6.376 6.376 0 0 0-1.036-.946c-.348-.245-.837-.51-1.395-.51a1 1 0 0 0-.018 2l.005.002c.021.007.105.036.259.144.205.145.446.368.698.648.347.385.665.822.898 1.193Z"/></svg>