<svg fill="none" xmlns="http://www.w3.org/2000/svg"><path fill="#fff" d="M0 0h80v80H0z"/><g filter="url(#a)"><rect x="15.197" y="4" width="49.606" height="49.606" rx="4" fill="url(#b)"/><g clip-path="url(#c)"><path d="m32.316 41.788.994-1.283h7.354l3.834 4.898-.681 1.662h-9.485l.227-1.662-2.243-3.615Z" fill="#169FCC"/><path d="m34.565 25.088 3.551-6.135h4.139l18.548 21.545-1.438 6.567H51.41l.5-1.844-17.346-20.133Z" fill="#14B59A"/><path d="m38.876 17.787 1.7-3.144 5.101-4.124 8.741 6.853-1.134 1.157 1.522 2.106v2.254l-4.356 3.56-7.309-8.662h-4.265Z" fill="#1BC263"/><path d="M25.368 31.489h2.31l6.025-5.04 7.984 9.277-2.252 3.379h-7.37l-5.088 6.47-1.17 1.49h-6.61v-7.931l6.171-7.645Z" fill="#16BDCC"/></g></g><g clip-path="url(#d)"><path d="M4 53.606h72V76H4V53.606Z" fill="#fff"/><path d="M64.169 53.86h2.704l.085 7.351.507-1.014c.635-.908 1.516-1.425 2.588-1.653 1.376-.18 2.77-.12 3.919.724.858.665 1.096 1.597 1.352 2.62v2.281h-5.915c.262 1.1.262 1.1 1.017 1.806.937.465 2.165.297 3.124-.012.288-.118.535-.257.781-.446.196-.106.351-.086.57-.08l.127.866.037.248.035.239.032.22c.023.201.023.201.023.54-1.043.87-2.467 1.029-3.771 1.035l-.285.005c-1.213.005-2.28-.297-3.19-1.125-.45-.472-.683-1.017-.951-1.606l-.085 2.45h-2.281l-.085-.844-.158.136c-1.11.926-2.068 1.042-3.476.962-.787-.112-1.489-.547-1.987-1.165-.274-.408-.495-.848-.717-1.285l-.075.164c-.486 1.027-1.13 1.578-2.162 2.045-.656.222-1.282.272-1.973.268l-.272-.002c-1.215-.018-2.29-.317-3.194-1.166-.816-.937-1.129-2.033-1.197-3.253-.651.246-.651.246-1.099.76-.161.462-.192.865-.185 1.347v.195c.003.36.032.706.08 1.064.042.38.043.762.047 1.145l.008.25c.006.73-.147 1.35-.642 1.904-.591.541-1.284.701-2.064.695h-.186l-.586-.003h-.398l-.975-.005v-1.099l.42-.01.552-.016.276-.006c.654-.022 1.183-.074 1.699-.511.358-.432.373-.744.364-1.29v-.195a10.282 10.282 0 0 0-.08-1.16c-.105-1-.158-2.08.463-2.924.143-.168.29-.325.447-.479l.145-.145.108-.109a451.55 451.55 0 0 1-.133-.1c-.558-.447-.899-.97-1.05-1.674a5.326 5.326 0 0 1-.011-.34V60.874c0-.392.028-.77.075-1.16.036-.334.043-.669.047-1.005l.007-.207c.005-.462-.043-.833-.371-1.177-.569-.41-1.233-.393-1.907-.401l-.307-.008c-.248-.006-.496-.01-.744-.014v-1.183a121.362 121.362 0 0 1 1.375-.019c1.061-.02 2.048.018 2.85.78.512.526.622 1.108.618 1.816l-.005.254-.002.255c-.003.358-.013.71-.062 1.066a9.2 9.2 0 0 0-.063 1.13l-.005.206c-.004.583.102 1.045.47 1.516.279.215.482.275.824.348l.006-.201c.066-1.269.443-2.424 1.346-3.348 1.242-.967 2.61-1.128 4.14-1.014 1.161.15 2.114.618 2.874 1.521.215.299.39.58.507.93l.112-.22c.543-1.043 1.073-1.716 2.212-2.136 1.255-.333 2.46-.07 3.592.497l.084-5.24ZM36.419 55.708l.355.002.86.008v1.183l-.476.007-.623.015-.312.003c-.607.017-1.034.063-1.547.398-.482.593-.465 1.172-.405 1.904.023.216.047.432.072.647.112 1.084.21 2.187-.466 3.11a3.665 3.665 0 0 1-.722.677l.136.112c.588.495.959.963 1.088 1.74.066.78-.002 1.521-.084 2.299-.119 1.063-.119 1.063.297 2.018.433.47 1.053.508 1.664.542.165.007.33.013.496.018l.258.01.624.022v1.098c-.382.007-.764.011-1.145.014l-.389.005c-.966.016-1.846.006-2.628-.633-.599-.59-.746-1.269-.76-2.085.005-.478.044-.942.105-1.415.111-.874.211-1.736-.17-2.562-.25-.317-.462-.47-.844-.591a8.723 8.723 0 0 0-.622-.027l-.185-.003c-.201-.003-.402-.004-.602-.005l-.42-.005a467.415 467.415 0 0 1-2.223-.023c-.733-.008-1.468-.016-2.202-.022a81.622 81.622 0 0 0 .243.825c.183.524.467.825.961 1.071 1.018.354 2.212.185 3.19-.206.209-.105.407-.215.603-.342.158-.08.158-.08.496-.08a199.723 199.723 0 0 1 .164.99c.132.82.132.82.09 1.122-.94.917-2.566 1.044-3.798 1.04l-.279.005c-1.318 0-2.296-.374-3.256-1.27-.376-.394-.579-.792-.78-1.296l.085 1.521c-1.218.777-2.366 1.045-3.803 1.04l-.282.005c-1.209 0-2.291-.357-3.18-1.194-1.154-1.263-1.252-2.985-1.198-4.606.061-1.166.453-2.355 1.28-3.21 1.15-1.006 2.472-1.17 3.942-1.093.74.059 1.356.288 1.973.692l.222.143c.447.435.791.979 1.046 1.547l.068-.14c.516-.991 1.213-1.667 2.277-2.041 1.18-.371 2.764-.357 3.882.178.986.55 1.499 1.326 1.872 2.373.151.59.152 1.222.182 1.828.363-.096.675-.18.962-.428.49-.887.43-1.74.306-2.715-.14-1.104-.263-2.268.343-3.259.805-1.02 2.082-.976 3.259-.961ZM4.085 54.62H7.38c.699 2.076 1.371 4.16 2.037 6.246a573.45 573.45 0 0 0 1.175 3.641 406.95 406.95 0 0 0 1.843-5.609l.103-.32c.424-1.32.846-2.638 1.265-3.958h3.211c-.095.665-.095.665-.188.926l-.063.18-.069.193-.072.207-.242.68-.17.485-.27.765c-.305.865-.606 1.733-.906 2.6l-.452 1.301-.09.259c-.316.914-.635 1.827-.953 2.74l-.077.22-1.096 3.134H8.563a629.198 629.198 0 0 1-1.943-5.747 485.884 485.884 0 0 0-1.41-4.188c-.05-.142-.098-.284-.146-.427l-.495-1.442-.263-.766-.072-.206a2.508 2.508 0 0 1-.15-.914Z" fill="#1A1A1A"/><path d="M43.972 59.352c-.05.448-.2.81-.386 1.215l-.084.188c-.068.153-.137.304-.206.456a3.91 3.91 0 0 1-.85-.253c-.88-.325-1.646-.33-2.499.053-.567.352-.838.891-1.001 1.52-.245 1.11-.194 2.352.42 3.342.394.48.976.698 1.58.768.657.033 1.362-.13 1.933-.46.163-.068.163-.068.376-.078.329.147.406.432.532.75l.08.183c.134.322.225.58.19.936-1.45.755-3.046 1.005-4.649.591-1.093-.353-1.873-.942-2.45-1.943-.715-1.638-.82-3.811-.17-5.493.375-.898 1.042-1.707 1.944-2.113 1.68-.593 3.696-.667 5.24.338Z" fill="#32FFCD"/><path d="m36.419 55.708.355.002.86.008v1.183l-.476.007-.623.015-.312.003c-.607.017-1.034.063-1.547.398-.482.593-.465 1.172-.405 1.904.023.216.047.432.072.647.112 1.084.21 2.187-.466 3.11a3.665 3.665 0 0 1-.722.677l.136.112c.588.495.959.963 1.088 1.74.066.78-.002 1.521-.084 2.299-.119 1.063-.119 1.063.297 2.018.433.47 1.053.508 1.664.542a63.254 63.254 0 0 0 .754.028l.624.022v1.098c-.382.007-.764.011-1.145.014l-.389.005c-.966.016-1.846.006-2.628-.633-.599-.59-.746-1.269-.76-2.085.005-.478.044-.942.105-1.415.111-.874.211-1.736-.17-2.562-.365-.462-.702-.563-1.267-.676v-1.014l.354-.106c.474-.16.744-.318.977-.776.275-.783.212-1.533.106-2.345-.14-1.104-.263-2.268.343-3.259.805-1.02 2.082-.976 3.259-.961Z" fill="#32FFCC"/><path d="M43.296 55.718a121.362 121.362 0 0 1 1.375-.019c1.061-.02 2.048.018 2.85.78.512.526.622 1.108.618 1.816l-.005.255-.002.254c-.003.358-.013.71-.062 1.066a9.2 9.2 0 0 0-.063 1.13l-.005.206c-.004.58.1 1.042.465 1.51.295.23.558.325.913.44v1.013l-.354.095c-.422.142-.59.29-.829.666-.164.46-.192.865-.185 1.347v.194c.003.36.032.706.08 1.064.042.38.043.762.047 1.145l.008.25c.006.73-.147 1.35-.642 1.905-.591.54-1.284.7-2.064.695h-.186l-.586-.003-.398-.002c-.325 0-.65-.002-.975-.004v-1.098l.42-.01.552-.017.276-.005c.654-.022 1.183-.075 1.699-.512.358-.432.373-.744.364-1.289v-.196a10.282 10.282 0 0 0-.08-1.16c-.105-1-.158-2.08.463-2.924.143-.168.29-.324.447-.479l.145-.145.108-.108a451.55 451.55 0 0 1-.133-.1c-.558-.448-.899-.97-1.05-1.675a5.326 5.326 0 0 1-.011-.339v-.591c0-.392.028-.77.075-1.16.036-.334.043-.668.047-1.005l.007-.207c.005-.461-.043-.833-.371-1.177-.569-.41-1.233-.393-1.907-.401l-.307-.008c-.248-.006-.496-.01-.744-.013v-1.184Z" fill="#32FFCD"/><path d="M54.73 60.92c.553.322.865.798 1.073 1.39.265 1.012.177 2.231-.317 3.148-.29.355-.595.677-1.035.824-.621.056-1.186.063-1.69-.338-.722-.728-.844-1.63-.846-2.62.048-.764.186-1.555.761-2.105.602-.468 1.334-.624 2.055-.298ZM63.791 61.168c.209.128.209.128.378.297.025.174.025.174.03.391l.007.246.003.267.004.274.006.576c.003.293.01.585.018.878l.004.56.009.264c-.004.597-.004.597-.228.852-.619.472-1.194.604-1.966.509-.537-.193-.911-.608-1.183-1.099-.43-.982-.381-2.231-.027-3.227.23-.489.522-.805.983-1.083.772-.209 1.26-.08 1.962.295Z" fill="#fff"/><path d="m58.317 71.986.19.127.085-.17h.845v3.635h-.845v-.254l-.214.125c-.332.145-.567.165-.927.166l-.325.005c-.47-.064-.724-.286-1.049-.618-.37-.525-.422-1.08-.359-1.706.11-.484.323-.838.676-1.183.55-.337 1.331-.422 1.923-.127ZM66.234 71.991c.412.245.741.596.893 1.051.103 1.52.103 1.52-.338 2.028-.566.51-1.126.551-1.862.537-.436-.038-.705-.141-1.012-.452-.492-.63-.479-1.26-.422-2.028.134-.507.422-.805.845-1.099.569-.275 1.315-.298 1.896-.037ZM71.775 71.86c.231.088.387.192.591.337.195.017.195.017.407-.169.451-.265.947-.23 1.452-.169.369.103.556.287.775.602.266.557.19 1.204.176 1.807l-.005.381c-.003.31-.01.62-.016.929h-.76l-.006-.177-.026-.8-.008-.279c-.005-.82-.005-.82-.362-1.528-.26-.122-.414-.136-.697-.09-.262.216-.4.353-.507.676-.013.169-.021.337-.027.506l-.01.298-.01.31-.012.315a327 327 0 0 0-.026.769h-.76l-.004-.185c-.006-.278-.015-.556-.023-.835l-.005-.29c-.017-.522-.04-.939-.306-1.395-.298-.198-.41-.218-.76-.169-.29.232-.445.398-.508.76-.012.166-.02.33-.027.496l-.01.286-.01.296-.012.301-.025.735h-.761v-3.634h1.014c.373-.187.862-.122 1.268-.085ZM63.129 70.586a183.663 183.663 0 0 1 .364.006v.676l-.592.169-.084.507h.676v.676h-.676v2.958h-.845V72.62h-1.099v2.112l.845.085v.76c-.16.005-.32.008-.48.011l-.27.006c-.344-.021-.579-.076-.824-.325-.156-.267-.145-.46-.14-.768l.002-.331.006-.346.004-.35c.003-.284.007-.57.012-.854h-.422v-.676h.422v-.845h.845v.845h1.099l.016-.396c.032-.333.057-.434.27-.708.298-.22.509-.259.87-.254Z" fill="#1A1A1A"/><path d="M17.521 64.17h5.324l.17 1.267-.239.1c-.193.082-.383.168-.573.258-.765.364-1.393.5-2.236.513l-.194.005c-.668-.001-1.207-.19-1.7-.645-.416-.468-.473-.87-.552-1.499Z" fill="#fff"/><path d="M51.324 71.014c2.389 0 2.389 0 2.947.45.276.354.232.786.215 1.216-.047.374-.103.522-.373.785-.43.27-.769.285-1.257.27l-.687-.017v1.86h-.845v-4.564Z" fill="#1A1A1A"/><path d="M71.843 60.916c.328.22.552.519.692.887l.085.76h-3.212c.145-1.01.145-1.01.568-1.4.545-.4 1.234-.564 1.867-.247ZM27.942 60.884c.437.305.7.652.819 1.172v.508h-3.212c.185-.83.36-1.204 1.014-1.69a2.124 2.124 0 0 1 1.379.01ZM19.914 60.884c.395.276.692.618.818 1.088v.591h-3.21c.183-.829.36-1.203 1.013-1.69a2.124 2.124 0 0 1 1.379.011Z" fill="#fff"/><path d="M69.324 71.86v.844l-.364.058c-.272.044-.366.07-.533.294-.136.278-.153.472-.16.78l-.01.308-.005.32-.009.323-.018.79h-.845v-3.633h1.099c.272-.136.544-.09.845-.085ZM54.704 70.76h.76v4.818h-.76V70.76Z" fill="#1A1A1A"/><path d="M58.1 72.762c.283.233.46.408.515.78.017.382-.03.631-.277.937-.24.254-.416.361-.76.38-.347-.02-.525-.117-.761-.38-.242-.427-.299-.708-.17-1.183.341-.623.778-.892 1.453-.534ZM65.606 72.62c.276.18.527.378.676.676.046.425.045.754-.148 1.14-.293.326-.422.37-.861.413-.267-.007-.347-.035-.586-.18-.332-.35-.382-.634-.37-1.105.041-.362.218-.548.465-.802.309-.19.466-.204.824-.142ZM52.169 71.69c.916-.037.916-.037 1.352.254.129.258.105.477.085.76-.155.222-.246.251-.507.338-.31.012-.62.004-.93 0V71.69Z" fill="#fff"/></g><defs><clipPath id="c"><path fill="#fff" transform="translate(19.197 10.519)" d="M0 0h41.606v36.568H0z"/></clipPath><clipPath id="d"><path fill="#fff" transform="translate(4 53.606)" d="M0 0h72v22.394H0z"/></clipPath><linearGradient id="b" x1="64.803" y1="28.803" x2="15.197" y2="28.803" gradientUnits="userSpaceOnUse"><stop stop-color="#465361"/><stop offset="1" stop-color="#2B343F"/></linearGradient><filter id="a" x="15.197" y="2" width="50.606" height="51.606" filterUnits="userSpaceOnUse" color-interpolation-filters="sRGB"><feFlood flood-opacity="0" result="BackgroundImageFix"/><feBlend in="SourceGraphic" in2="BackgroundImageFix" result="shape"/><feColorMatrix in="SourceAlpha" values="0 0 0 0 0 0 0 0 0 0 0 0 0 0 0 0 0 0 127 0" result="hardAlpha"/><feOffset dx="1" dy="-2"/><feGaussianBlur stdDeviation="1"/><feComposite in2="hardAlpha" operator="arithmetic" k2="-1" k3="1"/><feColorMatrix values="0 0 0 0 1 0 0 0 0 1 0 0 0 0 1 0 0 0 0.2 0"/><feBlend in2="shape" result="effect1_innerShadow_958_29291"/></filter></defs></svg>