<svg xmlns="http://www.w3.org/2000/svg" fill="none" viewBox="0 0 447 512"><path fill="#669DF6" d="M442.811 309.089a21.14 21.14 0 0 0-27.458-4.393L223.151 445.827v6.041a19.769 19.769 0 1 1 0 39.264 20.32 20.32 0 0 0 12.356-4.118l203.459-150.193a20.87 20.87 0 0 0 3.845-27.732"/><path fill="#AECBFA" d="M223.151 491.132a19.768 19.768 0 0 1 0-39.264v-6.041L30.949 304.696a20.87 20.87 0 0 0-27.458 4.393 20.32 20.32 0 0 0 4.393 27.458l203.46 150.192a20.05 20.05 0 0 0 12.081 4.119z"/><path fill="#4285F4" d="M223.151 431.275a40.36 40.36 0 0 0-39.587 48.237 40.37 40.37 0 0 0 31.713 31.712 40.36 40.36 0 0 0 41.434-17.162 40.366 40.366 0 0 0-5.02-50.965 40.36 40.36 0 0 0-28.54-11.822m0 59.857a19.767 19.767 0 0 1-13.879-33.845 19.768 19.768 0 0 1 33.648 14.351 19.495 19.495 0 0 1-19.769 19.494"/><path fill="#AECBFA" d="M58.406 95.47a20.87 20.87 0 0 1-20.593-20.593v-51.62a20.868 20.868 0 1 1 41.46 0v51.62a20.87 20.87 0 0 1-20.867 20.594zm-.549 182.592c11.525 0 20.868-9.342 20.868-20.867s-9.343-20.868-20.868-20.868-20.868 9.343-20.868 20.868 9.343 20.867 20.868 20.867m0-60.68c11.525 0 20.868-9.343 20.868-20.868s-9.343-20.868-20.868-20.868-20.868 9.343-20.868 20.868 9.343 20.868 20.868 20.868m0-60.956c11.525 0 20.868-9.343 20.868-20.868s-9.343-20.867-20.868-20.867-20.868 9.342-20.868 20.867 9.343 20.868 20.868 20.868"/><path fill="#4285F4" d="M387.896 155.876a20.865 20.865 0 0 1-20.593-20.867v-51.62a20.592 20.592 0 1 1 41.186 0v51.62a20.595 20.595 0 0 1-20.593 20.867m.549 122.461c11.524 0 20.867-9.343 20.867-20.867s-9.343-20.868-20.867-20.868-20.868 9.343-20.868 20.868 9.343 20.867 20.868 20.867m0-61.779c11.524 0 20.867-9.343 20.867-20.868s-9.343-20.867-20.867-20.867-20.868 9.342-20.868 20.867 9.343 20.868 20.868 20.868m0-172.433c11.524 0 20.867-9.343 20.867-20.867S399.969 2.39 388.445 2.39s-20.868 9.343-20.868 20.867 9.343 20.868 20.868 20.868"/><path fill="#669DF6" d="M223.151 339.568a20.87 20.87 0 0 1-20.593-20.593v-52.444a20.867 20.867 0 0 1 41.461 0v51.895a20.874 20.874 0 0 1-20.868 21.142m0 60.68c11.525 0 20.868-9.342 20.868-20.867s-9.343-20.868-20.868-20.868-20.868 9.343-20.868 20.868 9.343 20.867 20.868 20.867m0-173.256c11.525 0 20.868-9.343 20.868-20.868s-9.343-20.867-20.868-20.867-20.868 9.342-20.868 20.867 9.343 20.868 20.868 20.868m0-60.956c11.525 0 20.868-9.342 20.868-20.867s-9.343-20.868-20.868-20.868-20.868 9.343-20.868 20.868 9.343 20.867 20.868 20.867"/><path fill="#4285F4" d="M305.523 217.107a20.87 20.87 0 0 1-14.483-6.11 20.87 20.87 0 0 1-6.11-14.483v-51.62a20.87 20.87 0 0 1 29.266-21.432 20.865 20.865 0 0 1 12.195 21.432v51.62a20.87 20.87 0 0 1-20.868 20.593m.275-112.301c11.525 0 20.867-9.343 20.867-20.868s-9.342-20.867-20.867-20.867-20.868 9.342-20.868 20.867 9.343 20.868 20.868 20.868m0 233.388c11.525 0 20.867-9.343 20.867-20.867s-9.342-20.868-20.867-20.868-20.868 9.343-20.868 20.868 9.343 20.867 20.868 20.867m0-60.955c11.525 0 20.867-9.342 20.867-20.867s-9.342-20.868-20.867-20.868-20.868 9.343-20.868 20.868 9.343 20.867 20.868 20.867"/><path fill="#AECBFA" d="M140.504 338.194c11.525 0 20.868-9.343 20.868-20.867s-9.343-20.868-20.868-20.868-20.868 9.343-20.868 20.868 9.343 20.867 20.868 20.867m0-172.158c11.525 0 20.868-9.342 20.868-20.867s-9.343-20.868-20.868-20.868-20.868 9.343-20.868 20.868 9.343 20.867 20.868 20.867m0-61.23c11.525 0 20.868-9.343 20.868-20.868s-9.343-20.867-20.868-20.867-20.868 9.342-20.868 20.867 9.343 20.868 20.868 20.868m.275 172.433a20.867 20.867 0 0 1-20.868-20.044v-52.169a20.594 20.594 0 0 1 41.186 0v52.169a20.594 20.594 0 0 1-20.318 20.044"/></svg>