<svg xmlns="http://www.w3.org/2000/svg" fill="none" stroke="#383946" stroke-linejoin="round" stroke-width="1.2" xmlns:v="https://vecta.io/nano"><path d="M14.666 5.955c0-.404 0-.606-.08-.699-.069-.081-.173-.124-.28-.116-.123.01-.265.152-.551.438l-2.423 2.423 2.423 2.423c.286.286.428.428.551.438.106.008.21-.035.28-.116.08-.094.08-.295.08-.699z"/><path d="M1.333 6.534c0-1.12 0-1.68.218-2.108a2 2 0 0 1 .874-.874c.428-.218.988-.218 2.108-.218h3.6c1.12 0 1.68 0 2.108.218a2 2 0 0 1 .874.874c.218.428.218.988.218 2.108v2.933c0 1.12 0 1.68-.218 2.108a2 2 0 0 1-.874.874c-.428.218-.988.218-2.108.218h-3.6c-1.12 0-1.68 0-2.108-.218a2 2 0 0 1-.874-.874c-.218-.428-.218-.988-.218-2.108z"/></svg>