<svg xmlns="http://www.w3.org/2000/svg" viewBox="0 0 16 16" fill="none" xmlns:v="https://vecta.io/nano"><path fill-rule="evenodd" d="M11.795 2.808l1.645 3.3c.033.072.06.154.06.242v6.6a.55.55 0 0 1-.55.55h-9.9a.55.55 0 0 1-.55-.55v-6.6c0-.088.027-.17.061-.242h-.006l1.65-3.3h.005c.094-.181.275-.308.49-.308h6.6c.214 0 .396.127.489.308h.005zm-.836.792H8.55v.003h-1.1V3.6H5.041l-1.1 2.2h3.015v.004h2.858V5.8h2.245l-1.1-2.2zM3.6 12.4h8.8V6.9H3.6v5.5zm5.5-3.3H6.9a.55.55 0 0 1 0-1.1h2.2a.55.55 0 1 1 0 1.1z" fill="currentColor"/></svg>