<svg fill="none" xmlns="http://www.w3.org/2000/svg" viewBox="0 0 24 24"><mask id="a" style="mask-type:alpha" maskUnits="userSpaceOnUse" x="0" y="0" width="24" height="24"><path fill-rule="evenodd" clip-rule="evenodd" d="M17.019 23.836a1.494 1.494 0 0 0 1.19-.046l4.942-2.377A1.5 1.5 0 0 0 24 20.06V3.939a1.501 1.501 0 0 0-.85-1.352L18.209.21a1.494 1.494 0 0 0-1.704.29l-9.46 8.63-4.12-3.128a.999.999 0 0 0-1.276.057L.327 7.26a1 1 0 0 0 0 1.479L3.898 12 .326 15.26a1 1 0 0 0 .001 1.479L1.65 17.94a.999.999 0 0 0 1.276.056l4.12-3.127 9.46 8.63c.146.146.321.26.514.336Zm.985-17.284L10.826 12l7.178 5.448V6.552Z" fill="#fff"/></mask><g mask="url(#a)"><path d="M23.15 2.59 18.207.21A1.495 1.495 0 0 0 16.5.5L.312 15.26a1 1 0 0 0 0 1.478l1.323 1.202a1 1 0 0 0 1.277.057L22.407 3.208A.993.993 0 0 1 24 4v-.057a1.5 1.5 0 0 0-.85-1.351Z" fill="#0065A9"/><g filter="url(#b)"><path d="m23.15 21.409-4.944 2.38a1.495 1.495 0 0 1-1.706-.29L.312 8.74a1 1 0 0 1 0-1.478l1.323-1.202a1 1 0 0 1 1.277-.057l19.495 14.789A.993.993 0 0 0 24 20v.057a1.5 1.5 0 0 1-.85 1.352Z" fill="#007ACC"/></g><g filter="url(#c)"><path d="M18.206 23.79a1.495 1.495 0 0 1-1.706-.29c.553.553 1.5.161 1.5-.622V1.121c0-.783-.947-1.175-1.5-.621a1.496 1.496 0 0 1 1.706-.29l4.944 2.377A1.5 1.5 0 0 1 24 3.94v16.122a1.501 1.501 0 0 1-.85 1.352l-4.944 2.377Z" fill="#1F9CF0"/></g><path opacity=".25" fill-rule="evenodd" clip-rule="evenodd" d="M17.004 23.836a1.494 1.494 0 0 0 1.19-.046l4.942-2.377a1.5 1.5 0 0 0 .85-1.352V3.939a1.5 1.5 0 0 0-.85-1.352L18.195.21A1.495 1.495 0 0 0 16.49.5L7.03 9.13 2.91 6.002a.999.999 0 0 0-1.276.057L.313 7.261a1 1 0 0 0-.002 1.48L3.885 12 .312 15.26a1 1 0 0 0 0 1.479l1.322 1.202a.999.999 0 0 0 1.277.056l4.12-3.127 9.46 8.63c.145.146.32.26.513.336ZM17.99 6.55 10.812 12l7.177 5.448V6.551Z" fill="url(#d)"/></g><defs><filter id="b" x="-8.349" y="-2.535" width="40.683" height="34.807" filterUnits="userSpaceOnUse" color-interpolation-filters="sRGB"><feFlood flood-opacity="0" result="BackgroundImageFix"/><feColorMatrix in="SourceAlpha" values="0 0 0 0 0 0 0 0 0 0 0 0 0 0 0 0 0 0 127 0" result="hardAlpha"/><feOffset/><feGaussianBlur stdDeviation="4.167"/><feColorMatrix values="0 0 0 0 0 0 0 0 0 0 0 0 0 0 0 0 0 0 0.25 0"/><feBlend mode="overlay" in2="BackgroundImageFix" result="effect1_dropShadow_1633_89118"/><feBlend in="SourceGraphic" in2="effect1_dropShadow_1633_89118" result="shape"/></filter><filter id="c" x="8.166" y="-8.272" width="24.168" height="40.544" filterUnits="userSpaceOnUse" color-interpolation-filters="sRGB"><feFlood flood-opacity="0" result="BackgroundImageFix"/><feColorMatrix in="SourceAlpha" values="0 0 0 0 0 0 0 0 0 0 0 0 0 0 0 0 0 0 127 0" result="hardAlpha"/><feOffset/><feGaussianBlur stdDeviation="4.167"/><feColorMatrix values="0 0 0 0 0 0 0 0 0 0 0 0 0 0 0 0 0 0 0.25 0"/><feBlend mode="overlay" in2="BackgroundImageFix" result="effect1_dropShadow_1633_89118"/><feBlend in="SourceGraphic" in2="effect1_dropShadow_1633_89118" result="shape"/></filter><linearGradient id="d" x1="11.985" y1=".062" x2="11.985" y2="23.938" gradientUnits="userSpaceOnUse"><stop stop-color="#fff"/><stop offset="1" stop-color="#fff" stop-opacity="0"/></linearGradient></defs></svg>