<svg viewBox="0 0 13 13" xmlns="http://www.w3.org/2000/svg"><path d="m12.289.779318c-.3828 0-.6972.314462-.6972.697282v.9844l-.5469-.54689c-1.21686-1.230498-2.84386-1.91411-4.56656-1.91411s-3.36337.683612-4.5802 1.90044c-1.312537 1.31254-1.9961486 3.13095-1.8867706 4.9767.0273445.36915.3281336.65627.6836126.65627h.041016c.382822-.02735.669942-.35548.642592-.73831-.08203-1.46293.46486-2.88484 1.49028-3.91026 1.98247-1.996144 5.22279-1.996144 7.20523 0l.5469.54689h-.98437c-.38282 0-.68361.30079-.68361.68362 0 .38282.31446.69728.69728.69728h2.6524c.3828 0 .6973-.31446.6973-.69728v-2.65242c-.0137-.38282-.3281-.683612-.711-.683612z"/><path d="m8.76162 6.4122-1.627-.45118v-2.39264c0-.38282-.31446-.69729-.69728-.69729-.38283 0-.69729.31447-.69729.69729v2.91219c0 .31446.20509.5879.50587.66994l2.13287.60157c.06837.01368.12305.02735.19142.02735.30078 0 .57423-.20508.66994-.50587.10937-.38283-.10938-.76565-.47853-.86136z"/><path d="m4.85134 11.3766c-.32813-.1093-.6426-.2461-.94339-.4238-.30078-.1777-.68361-.0684-.84767.2324-.17774.3008-.06837.6836.23242.8477.36915.2188.76565.3965 1.17582.5195.06836.0274.13672.0274.19141.0274.25977 0 .50587-.1641.5879-.4238.09571-.3145-.06836-.67-.39649-.7794z"/><path d="m1.85714 8.78936c-.15039-.31446-.53321-.42384-.834-.27345-.300793.1504-.437515.53322-.273448.83401.191411.38282.423838.75198.683608 1.08008.12305.1504.30079.2325.4922.2325.13673 0 .27345-.0411.38283-.1368.27344-.2187.31446-.60155.10938-.87499-.21876-.25977-.3965-.54689-.56057-.86135z"/><path d="m10.3476 9.89858c-.0683.08203-.1504.16402-.2187.23242-.17778.1777-.35552.3281-.54693.4785-.27345.2051-.32814.6016-.12305.8751.12305.164.31446.2461.4922.2461.13668 0 .25978-.0411.36918-.1231.2324-.1777.4512-.3691.6699-.5879.0957-.0957.1914-.1914.2735-.2871.2324-.2598.205-.6563-.0547-.87504-.2461-.2461-.6426-.21876-.8614.04102z"/><path d="m7.81825 11.4564c-.32814.0958-.68362.1504-1.02542.1641-.34181.0274-.60158.3145-.58791.6563.01367.3281.30079.5879.61525.5879h.04102c.42384-.0274.86135-.0957 1.27152-.2051.32813-.0957.53322-.4375.43751-.7656-.09571-.3282-.42384-.5196-.75197-.4376z"/></svg>