<svg fill="none" xmlns="http://www.w3.org/2000/svg" viewBox="0 0 16 16"><path d="M3 3a2 2 0 0 1 2-2h3.586a1.5 1.5 0 0 1 1.06.44l2.915 2.914A1.5 1.5 0 0 1 13 5.414V10h-1V6H9.5A1.5 1.5 0 0 1 8 4.5V2H5a1 1 0 0 0-1 1v7H3V3Zm6.5 2h2.293L9 2.207V4.5a.5.5 0 0 0 .5.5ZM2.349 15l-1.232-4.364h.85l.787 3.207h.04l.84-3.207h.773l.842 3.21h.038l.786-3.21h.85L5.692 15h-.78l-.874-3.062h-.034L3.13 15h-.78Zm5.273 0h-.844l1.536-4.364h.976L10.828 15h-.843l-1.166-3.469h-.034L7.622 15Zm.027-1.71H9.95v.634h-2.3v-.635ZM11.403 15v-4.364h1.636c.336 0 .617.059.844.175.229.117.401.28.518.49.118.209.177.453.177.731 0 .28-.06.523-.18.729a1.181 1.181 0 0 1-.521.475c-.23.11-.513.166-.848.166h-1.166v-.656h1.06c.195 0 .356-.027.48-.081a.573.573 0 0 0 .278-.241.778.778 0 0 0 .091-.392.802.802 0 0 0-.091-.396.584.584 0 0 0-.28-.252 1.151 1.151 0 0 0-.483-.087h-.724V15h-.79Zm2.254-1.977L14.737 15h-.882l-1.06-1.977h.862Z" fill="#0278D5"/></svg>