<svg width="24" height="24" viewBox="0 0 24 24" fill="none" xmlns="http://www.w3.org/2000/svg">
<path fill-rule="evenodd" clip-rule="evenodd" d="M12.9357 3.54345L21.608 18.7319C21.9031 19.2487 21.7234 19.9069 21.2066 20.202C21.0438 20.2949 20.8596 20.3438 20.6722 20.3438H3.32757C2.73245 20.3438 2.25 19.8613 2.25 19.2662C2.25 19.0788 2.29887 18.8946 2.3918 18.7319L11.0641 3.54345C11.3592 3.02663 12.0174 2.84689 12.5342 3.14198C12.7015 3.23751 12.8402 3.37614 12.9357 3.54345ZM11.4682 15.4106H12.5329L13.0792 8.50446L10.9219 8.49046L11.4682 15.4106ZM11.0197 18.3805V16.4473H12.9809V18.3805H11.0197Z" fill="white"/>
</svg>
