<svg fill="currentColor" xmlns="http://www.w3.org/2000/svg" viewBox="0 0 31 30"><g filter="url(#a)"><mask id="b" maskUnits="userSpaceOnUse" x="4.5" y="2" width="22" height="22" fill="#000"><path fill="#fff" d="M4.5 2h22v22h-22z"/><path fill-rule="evenodd" clip-rule="evenodd" d="M5.5 13c0 5.523 4.477 10 10 10s10-4.477 10-10-4.477-10-10-10-10 4.477-10 10Zm10 3.852a1.154 1.154 0 1 1 0 2.307 1.154 1.154 0 0 1 0-2.307Zm.77-2.32a.77.77 0 1 1-1.539 0V7.644a.77.77 0 0 1 1.539 0v6.886Z"/></mask><path fill-rule="evenodd" clip-rule="evenodd" d="M5.5 13c0 5.523 4.477 10 10 10s10-4.477 10-10-4.477-10-10-10-10 4.477-10 10Zm10 3.852a1.154 1.154 0 1 1 0 2.307 1.154 1.154 0 0 1 0-2.307Zm.77-2.32a.77.77 0 1 1-1.539 0V7.644a.77.77 0 0 1 1.539 0v6.886Z" fill="currentColor"/><path d="M16.27 14.531h-1 1Zm-1.539 0h-1 1Zm0-6.886h-1 1Zm.77-.77v1-1Zm.769.77h-1 1ZM15.5 22a9 9 0 0 1-9-9h-2c0 6.075 4.925 11 11 11v-2Zm9-9a9 9 0 0 1-9 9v2c6.075 0 11-4.925 11-11h-2Zm-9-9a9 9 0 0 1 9 9h2c0-6.075-4.925-11-11-11v2Zm-9 9a9 9 0 0 1 9-9V2c-6.075 0-11 4.925-11 11h2Zm11.154 5.006c0-1.19-.964-2.154-2.154-2.154v2c.085 0 .154.069.154.154h2ZM15.5 20.159c1.19 0 2.154-.964 2.154-2.153h-2a.154.154 0 0 1-.154.153v2Zm-2.154-2.153c0 1.19.965 2.153 2.154 2.153v-2a.154.154 0 0 1-.154-.153h-2Zm2.154-2.154c-1.19 0-2.154.964-2.154 2.154h2c0-.085.07-.154.154-.154v-2Zm0 .448a1.77 1.77 0 0 0 1.77-1.769h-2a.23.23 0 0 1 .23-.23v2Zm-1.769-1.769c0 .977.792 1.77 1.77 1.77v-2a.23.23 0 0 1 .23.23h-2Zm0-6.886v6.886h2V7.644h-2Zm1.77-1.77a1.77 1.77 0 0 0-1.77 1.77h2a.23.23 0 0 1-.23.23v-2Zm1.769 1.77a1.77 1.77 0 0 0-1.77-1.77v2a.23.23 0 0 1-.23-.23h2Zm0 6.886V7.644h-2v6.887h2Z" fill="#fff" mask="url(#b)"/></g><defs><filter id="a" x=".5" y="0" width="30" height="30" filterUnits="userSpaceOnUse" color-interpolation-filters="sRGB"><feFlood flood-opacity="0" result="BackgroundImageFix"/><feColorMatrix in="SourceAlpha" values="0 0 0 0 0 0 0 0 0 0 0 0 0 0 0 0 0 0 127 0" result="hardAlpha"/><feOffset dy="2"/><feGaussianBlur stdDeviation="2"/><feColorMatrix values="0 0 0 0 0.376471 0 0 0 0 0.380392 0 0 0 0 0.439216 0 0 0 0.16 0"/><feBlend in2="BackgroundImageFix" result="effect1_dropShadow_625_1528"/><feColorMatrix in="SourceAlpha" values="0 0 0 0 0 0 0 0 0 0 0 0 0 0 0 0 0 0 127 0" result="hardAlpha"/><feOffset/><feGaussianBlur stdDeviation=".5"/><feColorMatrix values="0 0 0 0 0.156863 0 0 0 0 0.160784 0 0 0 0 0.239216 0 0 0 0.04 0"/><feBlend in2="effect1_dropShadow_625_1528" result="effect2_dropShadow_625_1528"/><feBlend in="SourceGraphic" in2="effect2_dropShadow_625_1528" result="shape"/></filter></defs></svg>