<svg viewBox="0 0 32 32" xmlns="http://www.w3.org/2000/svg">
<path fill-rule="evenodd" clip-rule="evenodd" d="M14.1188 27.2916C13.7301 27.6821 13.7301 28.3152 14.1188 28.7058C14.5076 29.0963 15.1379 29.0963 15.5266 28.7058C15.9154 28.3152 15.9154 27.6821 15.5266 27.2915C15.1379 26.901 14.5076 26.901 14.1188 27.2916ZM13.4149 29.4129C12.6374 28.6318 12.6374 27.3655 13.4149 26.5844C13.694 26.3041 14.0352 26.1244 14.394 26.0453V21.3595C12.16 21.6385 10.0064 20.2274 9.40731 17.981C8.75217 15.5248 10.2031 13.0002 12.6482 12.342C15.0931 11.6839 17.6063 13.1415 18.2614 15.5976C18.3326 15.8644 18.175 16.1385 17.9095 16.21C17.6439 16.2815 17.371 16.1232 17.2999 15.8565C16.787 13.9338 14.8197 12.7927 12.9058 13.3079L12.7794 12.834L12.9058 13.3079C10.9918 13.8231 9.85599 15.7994 10.3689 17.7222L10.3689 17.7222C10.8816 19.6448 12.849 20.7858 14.7629 20.2706C14.9124 20.2304 15.072 20.2622 15.1947 20.3569C15.3175 20.4515 15.3895 20.5981 15.3895 20.7535V26.081C15.6973 26.1725 15.9875 26.3403 16.2305 26.5844C17.008 27.3655 17.008 28.6318 16.2305 29.4129C15.453 30.1939 14.1924 30.1939 13.4149 29.4129ZM16.6114 5.91913C16.3032 5.82766 16.0127 5.65977 15.7695 5.41543C14.992 4.63439 14.992 3.36806 15.7695 2.58701C16.547 1.80596 17.8076 1.80596 18.5851 2.58701C19.3626 3.36806 19.3626 4.63439 18.5851 5.41543C18.306 5.69574 17.9648 5.87545 17.606 5.95456V10.7436C19.84 10.4647 21.9936 11.8757 22.5927 14.1222C23.2478 16.5784 21.7969 19.103 19.3518 19.7611C16.9069 20.4193 14.3938 18.9616 13.7386 16.5055C13.6674 16.2388 13.825 15.9646 14.0905 15.8931C14.3561 15.8217 14.629 15.9799 14.7001 16.2467C15.213 18.1693 17.1803 19.3104 19.0942 18.7952L19.2206 19.2692L19.0942 18.7952C21.0082 18.28 22.144 16.3037 21.6311 14.381L21.6311 14.381C21.1184 12.4584 19.151 11.3174 17.2371 11.8326C17.0876 11.8728 16.928 11.8409 16.8053 11.7463C16.6825 11.6517 16.6105 11.505 16.6105 11.3496V5.94897C16.6105 5.93895 16.6108 5.929 16.6114 5.91913ZM17.8812 3.29411C18.2699 3.68464 18.2699 4.3178 17.8812 4.70833C17.4924 5.09885 16.8621 5.09885 16.4734 4.70833C16.0846 4.3178 16.0846 3.68464 16.4734 3.29411C16.8621 2.90359 17.4924 2.90359 17.8812 3.29411Z" fill="#4F5162"/>
</svg>
