<svg height="28" width="32" xmlns="http://www.w3.org/2000/svg"><path d="m16.015 8.466 4.477 2.526v5.05l-4.477 2.525-4.476-2.525v-5.05zm4.7 8.134 4.477 2.526v5.05l-4.477 2.525-4.476-2.525v-5.05zm-9.882-.107 4.476 2.525v5.05l-4.476 2.525-4.477-2.525v-5.05zm15.17-8.027 4.476 2.526v5.05l-4.476 2.525-4.477-2.525v-5.05zm-19.975 0 4.476 2.526v5.05l-4.476 2.525-4.477-2.525v-5.05zm15.275-8.134 4.476 2.525v5.05l-4.476 2.526-4.477-2.526v-5.05zm-9.988 0 4.477 2.525v5.05l-4.477 2.526-4.475-2.526v-5.05z" fill="#fff" fill-rule="evenodd"/></svg>