<svg width="24" height="24" viewBox="0 0 24 24" fill="none" xmlns="http://www.w3.org/2000/svg">
<g opacity="0.75">
<path fill-rule="evenodd" clip-rule="evenodd" d="M14.5281 3.81309C14.5013 3.5449 14.6723 3.27649 14.9099 3.21359C15.1475 3.15069 15.3617 3.31711 15.3885 3.5853C15.4146 3.84773 15.4436 4.115 15.473 4.38675C15.7249 6.71282 16.0123 9.36645 14.889 12.1113C13.275 16.0555 9.80373 17.5753 7.31877 18.6632C7.31877 18.6632 7.45818 18.6417 6.98161 18.8111C6.18006 19.0961 4.42678 19.7464 2.47981 20.5006C2.44382 20.458 2.416 20.4135 2.39725 20.367C2.30055 20.1273 2.26577 19.8552 2.26922 19.5819C3.78356 19.0572 5.2768 18.5373 6.75881 17.8842L7.01554 17.7713C9.57118 16.6484 12.6785 15.283 14.1133 11.7769C15.1144 9.33049 14.8635 6.97684 14.6121 4.61924L14.6121 4.61924C14.5835 4.35062 14.5548 4.08195 14.5281 3.81309ZM6.98161 18.8111C7.09171 18.7626 7.20418 18.7133 7.31875 18.6632L6.98161 18.8111Z" fill="#F3F3FA"/>
<path fill-rule="evenodd" clip-rule="evenodd" d="M14.7494 4.15961C14.7489 4.15928 14.7487 4.15912 14.7487 4.15913ZM15.2877 4.82493C16.0752 5.93762 16.6518 7.24708 17.251 8.60793C17.3052 8.73105 17.3596 8.85459 17.4144 8.97844C17.8182 9.89176 18.2405 10.8191 18.7511 11.6871C18.5874 11.6498 18.4138 11.6107 18.2316 11.5696C18.1862 11.5594 18.1403 11.549 18.0938 11.5386C17.4165 11.3858 16.6153 11.2039 15.7289 10.9831C15.6581 10.9319 15.5876 10.8803 15.5172 10.8284C16.0922 10.9695 16.6314 11.0599 17.0349 11.04C17.2733 11.0283 17.4812 10.7957 17.4993 10.5204C17.5174 10.2452 17.3387 10.0316 17.1003 10.0434C16.6862 10.0638 15.9879 9.92102 15.1786 9.6865C14.3855 9.45662 13.5345 9.15376 12.8375 8.88759C12.7821 8.86644 12.7278 8.84556 12.6746 8.82498C13.1279 8.40606 13.6888 7.81021 14.1742 7.15028C14.4798 6.73488 14.7655 6.28079 14.9749 5.81796C15.1185 5.50077 15.2331 5.16449 15.2877 4.82493ZM11.7208 8.41622C11.7504 8.40404 11.7773 8.39217 11.8016 8.38065C11.8325 8.36593 11.8565 8.35302 11.8743 8.34228C11.8831 8.33701 11.8897 8.33268 11.8944 8.32942C11.8991 8.32613 11.9012 8.32439 11.9012 8.3244C12.3258 7.97176 12.9912 7.30822 13.5419 6.55967C13.8165 6.18637 14.0527 5.80523 14.2169 5.4425C14.3824 5.07677 14.4607 4.76081 14.4565 4.50269C14.4549 4.41083 14.4491 4.32523 14.4428 4.23244C14.4402 4.19416 14.4375 4.15465 14.4349 4.11298C14.4311 4.049 14.4275 3.97512 14.4288 3.90446C14.4298 3.84602 14.4341 3.73212 14.4734 3.61334C14.4949 3.54849 14.5364 3.45246 14.6171 3.36476C14.7054 3.26867 14.8124 3.21362 14.9179 3.19837C15.0914 3.17328 15.2195 3.26079 15.2688 3.29641C15.3924 3.38562 15.5341 3.54756 15.696 3.75432C16.6911 5.02564 17.3706 6.57031 18.0257 8.05948C18.0825 8.18866 18.1392 8.31743 18.1958 8.44557C18.7714 9.74731 19.3505 10.9924 20.1317 12.0459C20.1714 12.0603 20.2087 12.075 20.2431 12.09C20.3084 12.1184 20.4057 12.1654 20.4822 12.2433C20.5197 12.2814 20.594 12.3682 20.6199 12.5146C20.6284 12.5623 20.6306 12.6096 20.6277 12.6556C20.6698 12.7026 20.7124 12.749 20.7557 12.795C20.9208 12.9704 20.9145 13.2848 20.7415 13.4972C20.5686 13.7096 20.2946 13.7396 20.1295 13.5642C20.054 13.4841 19.9803 13.4026 19.9082 13.3198C18.3568 13.7495 16.9021 13.0128 15.6251 12.1391C15.5238 12.0698 15.4226 11.9988 15.3215 11.9267C14.054 11.6083 12.6161 11.2103 11.1194 10.7056C10.4698 10.6432 9.97534 10.5831 9.61083 10.524C9.25238 10.4658 8.9815 10.4032 8.81437 10.3223C8.76946 10.3005 8.71639 10.2702 8.66694 10.2268C8.62156 10.187 8.54623 10.1076 8.51003 9.97299C8.46686 9.81255 8.49767 9.64383 8.5704 9.50887C8.63127 9.3959 8.70988 9.32641 8.75577 9.29051C8.84848 9.21798 8.95457 9.17087 9.03368 9.13964C9.12205 9.10475 9.22255 9.0725 9.32693 9.04239C9.57659 8.97038 9.91267 8.8936 10.2533 8.81579C10.4322 8.77493 10.6123 8.73379 10.7818 8.6929C10.7888 8.64723 10.7984 8.60374 10.8104 8.56913C10.8635 8.47525 10.9864 8.34712 11.046 8.30918C11.0853 8.29038 11.1519 8.26861 11.1784 8.26327C11.2266 8.25528 11.2639 8.25855 11.2749 8.25954C11.3185 8.26348 11.3555 8.2756 11.3562 8.27579C11.3684 8.27947 11.3807 8.28364 11.3917 8.28747C11.4142 8.29532 11.4426 8.30591 11.4761 8.31877C11.5344 8.34118 11.6153 8.37332 11.7208 8.41622ZM11.5689 9.47762C11.7453 9.55024 11.9543 9.63436 12.1864 9.72502C12.4688 9.86942 12.7604 10.0504 13.0626 10.2568C12.5244 10.0961 11.9723 9.92172 11.4121 9.73226C11.3863 9.72353 11.3595 9.71782 11.3321 9.71521C11.1649 9.69929 11.0087 9.6836 10.8629 9.66811C10.8885 9.66193 10.9141 9.65568 10.9398 9.64938C11.1565 9.59614 11.3724 9.53908 11.5689 9.47762Z" fill="#F3F3FA"/>
</g>
</svg>
