<svg xmlns="http://www.w3.org/2000/svg" xmlns:xlink="http://www.w3.org/1999/xlink" width="14" height="14"><defs><clipPath id="b"><path d="M0 0h14v14H0z"/></clipPath><filter id="a" filterUnits="objectBoundingBox" x="0%" y="0%" width="100%" height="100%"><feColorMatrix in="SourceGraphic" values="0 0 0 0 1 0 0 0 0 1 0 0 0 0 1 0 0 0 1 0"/></filter><mask id="d"><g filter="url(#a)"><path style="fill:#000;fill-opacity:.8;stroke:none" d="M0 0h14v14H0z"/></g></mask><g id="c" clip-path="url(#b)"><path style="stroke:none;fill-rule:evenodd;fill:#f3f3fa;fill-opacity:1" d="M8.5 2.2c0-.2 0-.3.2-.3.1 0 .3 0 .3.2v.5c.2 1.3.3 2.9-.3 4.5-1 2.3-3 3.2-4.4 3.8H4l-2.7 1v-.5c.8-.3 1.7-.5 2.6-1 1.6-.7 3.4-1.5 4.2-3.5a8 8 0 0 0 .3-4.2v-.5ZM4 11h.2Zm0 0"/><path style="stroke:none;fill-rule:evenodd;fill:#f3f3fa;fill-opacity:1" d="M8.6 2.4Zm.3.4c.5.8 1 1.6 1.2 2.5l.9 1.5h-.4a67.8 67.8 0 0 1-.7-.4c.2 0 .3-.1.3-.3 0-.2-.1-.3-.2-.3-.9-.1-1.8-.4-2.6-.7.5-.5 1-1 1.3-1.7ZM7 4.9c.6-.5 1-1 1.4-1.8l.1-.7v-.3l.1-.1.2-.1h.2l.3.3c.5.7 1 1.7 1.3 2.5l.1.1c.3.8.7 1.5 1.2 2.2h.2v.4h.1v.4c0 .1-.3.1-.4 0v-.1c-1 .2-1.8-.2-2.6-.7l-.2-.1-2.4-.7c-.5 0-1-.1-1.4-.3L5 5.8v-.3l.1-.1.2-.2h.1l.9-.2.1-.2h.4Zm-.1.6.3.2.5.3-1.2-.4h.4Zm0 0"/></g></defs><use xlink:href="#c" mask="url(#d)"/></svg>