<svg xmlns="http://www.w3.org/2000/svg" viewBox="0 0 1024 1024">
  <path fill="currentColor" d="M897.246 286.869h-7.427c-39.084-.061-70.802 31.591-70.802 70.67v158.05c0 31.561-26.087 57.127-57.135 57.127-18.446 0-36.862-9.283-47.789-24.866l-161.42-230.546c-13.393-19.144-35.187-30.557-58.778-30.557-36.801 0-69.919 31.287-69.919 69.91v158.962c0 31.562-25.873 57.127-57.134 57.127-18.507 0-36.893-9.283-47.821-24.865L138.395 289.882c-4.079-5.844-13.241-2.952-13.241 4.17v137.84c0 6.97 2.131 13.727 6.118 19.448L309.037 705.2c10.502 15.004 25.996 26.144 43.863 30.192 44.716 10.165 85.87-24.257 85.87-68.114V508.406c0-31.561 25.569-57.127 57.134-57.127h.091a58.38 58.38 0 0 1 47.79 24.866l161.45 230.516c13.424 19.174 34.092 30.557 58.748 30.557 37.623 0 69.858-31.318 69.858-69.91V508.376c0-31.561 25.569-57.127 57.134-57.127h6.301a7.145 7.145 0 0 0 7.154-7.152V294.021a7.145 7.145 0 0 0-7.154-7.152z"/>
</svg>
