<svg xmlns="http://www.w3.org/2000/svg" fill="none" viewBox="0 0 40 40"><path fill="#2C5EE8" d="M7.767 17.429c.023.059.416 1.08.873 2.274.456 1.19.85 2.175.872 2.18.023.009.493-.977 1.05-2.189.556-1.216 1.044-2.243 1.08-2.288a.29.29 0 0 1 .19-.077.29.29 0 0 1 .19.077c.04.045.524 1.072 1.08 2.288.557 1.212 1.031 2.198 1.054 2.188.023-.009.43-1.021.904-2.256l.86-2.242 1.288-.018c.71-.01 1.302-.014 1.311-.01.01.01-3.472 9.111-4.01 10.477-.14.357-.159.325-1.348-2.315-.61-1.357-1.13-2.492-1.157-2.523-.068-.082-.285-.073-.357.013-.037.041-.61 1.162-1.284 2.496-.67 1.334-1.24 2.424-1.262 2.424-.027.004-3.934-10.06-4.07-10.5L5 17.33h2.717l.05.1ZM21.824 22.71V28h-2.622V17.42h2.622v5.29ZM30.994 17.52c.009.04-.95 1.84-2.125 4-1.18 2.171-2.139 3.975-2.139 4.038v.113l2.184.014 2.18.009V28h-4.206c-3.874 0-4.209-.005-4.236-.077-.018-.045.66-1.447 1.908-3.947 1.248-2.5 1.926-3.902 1.908-3.947-.027-.068-.199-.077-1.863-.077h-1.831V17.42l4.1.009c3.817.013 4.106.018 4.12.09ZM33.051 14.44c.24.547.683.85 1.515 1.04l.434.1-.502.126c-.551.136-.995.344-1.17.552-.19.226-.34.57-.467 1.076l-.122.484-.077-.407c-.126-.674-.425-1.162-.863-1.416-.217-.122-.656-.266-1.067-.352l-.294-.064.18-.031c.715-.131 1.276-.375 1.524-.656.231-.258.453-.832.557-1.428.031-.177.036-.163.135.27.059.25.154.566.217.706Z"/></svg>