<svg viewBox="0 0 24 24" fill="none" xmlns="http://www.w3.org/2000/svg"><rect width="100%" height="100%" rx="2" fill="currentColor"/><path fill-rule="evenodd" clip-rule="evenodd" d="M10.402 10.346q.045.078.112.145l.99.99a.7.7 0 0 0 .145.112v1.711H10.6a.7.7 0 0 0-.7.7v.35H7.35v-3.113H8.4a.7.7 0 0 0 .7-.7v-.195zm-.503 4.708H7.35a.7.7 0 0 1-.7-.7v-3.113H5.6a.7.7 0 0 1-.7-.7v-1.4a.7.7 0 0 1 .7-.7h2.801a.7.7 0 0 1 .7.7v.505h1.301a.7.7 0 0 1 .112-.145l.99-.99a.7.7 0 0 1 .99 0l.99.99q.066.067.112.145H14.7v-.55a.7.7 0 0 1 .7-.7h2.8a.7.7 0 0 1 .7.7v1.4a.7.7 0 0 1-.7.7h-2.801a.7.7 0 0 1-.7-.7v-.15h-1.104a.7.7 0 0 1-.11.145l-.991.989a.7.7 0 0 1-.145.111v1.713h1.05a.7.7 0 0 1 .7.7v1.4a.7.7 0 0 1-.7.7h-2.8a.7.7 0 0 1-.7-.7zm3.09-5.058-.99.99-.99-.99.99-.99zm-4.588-.855H5.6v1.4h2.801zm9.799-.045h-2.801v1.4H18.2zm-7.601 4.908H13.4v1.4h-2.802z" fill="#fff"/></svg>