<svg xmlns="http://www.w3.org/2000/svg" fill="none" viewBox="0 0 18 18"><path fill="currentColor" fill-rule="evenodd" d="M15.663 5.186a.52.52 0 0 0-.376-.429.55.55 0 0 0-.537.144l-1.703 1.703-1.834-1.833 1.703-1.704a.55.55 0 0 0 .144-.537.52.52 0 0 0-.428-.376 3.6 3.6 0 0 0-4.027 4.43l-4.686 4.685q-.153.152-.31.303c-.148.144-.293.284-.416.413-.213.223-.407.458-.52.717a1.18 1.18 0 0 0-.04.88c.103.304.322.613.656.947.333.333.642.553.946.655.317.107.609.08.88-.039.26-.113.494-.307.718-.52.128-.124.268-.268.412-.417q.15-.156.304-.31l4.685-4.685a3.6 3.6 0 0 0 4.429-4.027M10.64 9.01a3.6 3.6 0 0 1-1.087-.747 3.6 3.6 0 0 1-.747-1.086l-4.49 4.49q-.177.176-.331.324c-.14.134-.267.257-.386.382-.203.213-.34.389-.412.554a.62.62 0 0 0-.022.476c.064.187.216.424.52.728.305.305.541.457.729.52a.62.62 0 0 0 .475-.021c.165-.073.342-.21.554-.413.125-.119.248-.246.383-.385q.149-.155.324-.332zm2.803-2.008 1.671-1.67a3.04 3.04 0 1 1-2.63-2.63l-1.67 1.67a.56.56 0 0 0 0 .796l1.834 1.834c.22.22.576.22.795 0" clip-rule="evenodd"/></svg>