<svg xmlns="http://www.w3.org/2000/svg" xml:space="preserve" viewBox="0 0 435.001 538.143"><path fill="#3ec8ec" d="M269.586 270.858v-3.822c1-90.148 74.833-163.18 165.415-163.18V0c-65.998 0-126.497 23.846-173.414 63.228a271.297 271.297 0 0 0-44.087 47.148c-.051.072-.11.139-.162.21-32.335 44.035-51.584 98.124-51.918 156.7v3.672c.356 58.537 19.598 112.589 51.912 156.598.055.074.115.143.17.217a271.273 271.273 0 0 0 44.08 47.142c46.915 39.381 107.415 63.228 173.415 63.228V434.286c-90.584 0-164.415-73.032-165.415-163.179v-.16c0-.03.004-.059.004-.09"/><path fill="#0293b9" d="M217.665 110.587c-.051-.072-.111-.14-.165-.211a271.355 271.355 0 0 0-44.084-47.148C126.499 23.846 66 0 0 0v103.856c90.583 0 164.417 73.032 165.416 163.18v3.822c0 .034.004.067.004.1v.15c-1 90.146-74.832 163.178-165.416 163.178v103.857c66 0 126.5-23.847 173.416-63.228a271.364 271.364 0 0 0 44.082-47.142c.054-.074.113-.143.17-.217 32.315-44.012 51.556-98.069 51.91-156.609v-3.662C269.25 208.71 250 154.621 217.665 110.587"/><path fill="#007897" d="M269.582 270.947v-3.662C269.25 208.71 250 154.621 217.665 110.587c-.052-.072-.111-.14-.165-.211-.051.072-.11.139-.162.21-32.335 44.035-51.584 98.124-51.918 156.7v3.672c.356 58.537 19.598 112.59 51.912 156.598.055.074.115.143.17.217.054-.074.114-.143.17-.217 32.315-44.012 51.557-98.069 51.91-156.609"/></svg>