<svg viewBox="0 0 18 16" xmlns="http://www.w3.org/2000/svg"><g fill="#22272d"><path d="m12.946 5.347a.49.49 0 0 0 -.492-.486h-7.873a.49.49 0 0 0 -.492.486c0 .269.22.486.492.486h7.873a.49.49 0 0 0 .492-.486zm-8.365 2.917c-.272 0-.492.218-.492.486s.22.486.492.486h4.429c.271 0 .492-.218.492-.486s-.22-.486-.492-.486h-4.43zm7.92 5.833h-8.857a.55.55 0 0 1 -.538-.56v-11.519a.55.55 0 0 1 .538-.56h9.748a.55.55 0 0 1 .54.56v5.325c0 .269.22.486.491.486a.49.49 0 0 0 .492-.486v-5.323c0-.844-.679-1.533-1.523-1.533h-9.749c-.844 0-1.523.69-1.523 1.533v11.517c0 .844.68 1.533 1.523 1.533h8.859a.49.49 0 0 0 .492-.486.49.49 0 0 0 -.492-.486z"/><path d="m15.676 10.418h-1.005v-1.005a.524.524 0 1 0 -1.048 0v1.004h-1.343a.524.524 0 0 0 0 1.049h1.343v1.343a.524.524 0 1 0 1.048 0v-1.343h1.005a.524.524 0 0 0 0-1.048z"/></g></svg>