<svg viewBox="0 0 24 24" fill="none" xmlns="http://www.w3.org/2000/svg"><path d="M23.47 6.818a2.817 2.817 0 0 0-.778-1.27 3.063 3.063 0 0 0-1.346-.736c-1.862-.48-9.358-.48-9.358-.48s-7.496.015-9.359.494c-.508.13-.972.384-1.345.736-.372.352-.641.79-.779 1.27-.563 3.126-.782 7.888.016 10.889.137.48.406.918.779 1.27.372.352.836.606 1.345.736 1.862.48 9.358.48 9.358.48s7.496 0 9.359-.48c.508-.13.972-.384 1.345-.736.372-.352.641-.79.779-1.27.594-3.13.777-7.89-.016-10.903Z" fill="red"/><path d="m8 16.841 8.844-4.838L8 7.165v9.676Z" fill="#fff"/></svg>