<svg fill="none" height="25" viewBox="0 0 24 25" width="24" xmlns="http://www.w3.org/2000/svg" xmlns:xlink="http://www.w3.org/1999/xlink"><radialGradient id="a" cx="0" cy="0" gradientTransform="matrix(10.3318 0 0 10.328 12.64 13.664)" gradientUnits="userSpaceOnUse" r="1"><stop offset="0" stop-color="#dedede"/><stop offset="1" stop-color="#888"/></radialGradient><clipPath id="b"><path d="m0 0h22v22h-22z" transform="translate(.97 1.992)"/></clipPath><g clip-path="url(#b)"><path d="m12.64 23.992c5.705 0 10.33-4.624 10.33-10.328s-4.624-10.328-10.33-10.328c-5.707 0-10.333 4.624-10.333 10.328s4.626 10.328 10.333 10.328z" fill="url(#a)"/><path d="m1.84 6.32 8.202-3.528a.136.136 0 0 1 .168.048l4.434 6.296a.148.148 0 0 1 -.072.228l-1.2.4a.148.148 0 0 0 -.065.232l3.502 4.4a.148.148 0 0 1 -.076.236l-1.517.372a.147.147 0 0 0 -.104.096.149.149 0 0 0 .024.14l5.17 6.528a.144.144 0 0 1 -.176.22l-11.604-6.696a.149.149 0 0 1 -.044-.214.147.147 0 0 1 .064-.05l1.4-.556a.148.148 0 0 0 .028-.256l-4.713-3.4a.152.152 0 0 1 .028-.256l1.076-.472a.149.149 0 0 0 .073-.197.148.148 0 0 0 -.05-.06l-4.576-3.254a.148.148 0 0 1 .028-.256z" fill="#fff"/><path d="m10.094 2.792a.14.14 0 0 1 .116.06l4.434 6.284a.15.15 0 0 1 .022.132.148.148 0 0 1 -.094.096l-1.2.4a.148.148 0 0 0 -.065.232l3.502 4.4a.149.149 0 0 1 -.013.2.148.148 0 0 1 -.063.036l-1.517.372a.148.148 0 0 0 -.08.236l5.17 6.528a.149.149 0 0 1 -.032.214.147.147 0 0 1 -.076.026.12.12 0 0 1 -.068 0l-11.604-6.696a.148.148 0 0 1 .02-.264l1.4-.556a.148.148 0 0 0 .028-.256l-4.713-3.4a.152.152 0 0 1 .028-.256l1.076-.472a.148.148 0 0 0 .024-.256l-4.579-3.276a.148.148 0 0 1 .028-.256l8.203-3.528a.124.124 0 0 1 .052 0m0-.8a.889.889 0 0 0 -.364.076l-8.198 3.524a.928.928 0 0 0 -.172 1.6l3.665 2.608-.056.024a.936.936 0 0 0 -.168 1.6l3.774 2.748-.324.128a.932.932 0 0 0 -.12 1.668l11.604 6.696c.14.082.298.125.46.124a.928.928 0 0 0 .72-1.504l-4.544-5.764.564-.136a.928.928 0 0 0 .652-.592.944.944 0 0 0 -.152-.88l-2.937-3.704.316-.104a.916.916 0 0 0 .63-1.014.944.944 0 0 0 -.158-.402l-4.437-6.296a.92.92 0 0 0 -.753-.4z" fill="#000"/></g></svg>