<svg xmlns="http://www.w3.org/2000/svg" width="25" height="24" fill="none" viewBox="0 0 25 24">
  <g clip-path="url(#a)">
    <path fill="url(#b)" d="M12.668 23C18.374 23 23 18.376 23 12.672S18.374 2.344 12.668 2.344 2.336 6.968 2.336 12.672 6.962 23 12.668 23Z"/>
    <path fill="#fff" d="M1.868 5.328 10.071 1.8a.136.136 0 0 1 .168.048l4.434 6.296a.148.148 0 0 1-.072.228l-1.2.4a.149.149 0 0 0-.065.232l3.502 4.4a.148.148 0 0 1-.076.236l-1.517.372a.149.149 0 0 0-.08.236l5.17 6.528a.144.144 0 0 1-.176.22L8.555 14.3a.148.148 0 0 1 .02-.264l1.4-.556a.148.148 0 0 0 .028-.256l-4.713-3.4a.152.152 0 0 1 .028-.256l1.076-.472a.148.148 0 0 0 .024-.256L1.84 5.584a.148.148 0 0 1 .028-.256Z"/>
    <path fill="#000" d="M10.123 1.8a.14.14 0 0 1 .116.06l4.434 6.284a.148.148 0 0 1-.072.228l-1.2.4a.147.147 0 0 0-.065.232l3.502 4.4a.148.148 0 0 1-.076.236l-1.517.372a.149.149 0 0 0-.08.236l5.17 6.528a.148.148 0 0 1-.108.24.12.12 0 0 1-.068 0L8.555 14.32a.148.148 0 0 1 .02-.264l1.4-.556a.148.148 0 0 0 .028-.256l-4.713-3.4a.152.152 0 0 1 .028-.256l1.076-.472a.148.148 0 0 0 .024-.256L1.84 5.584a.148.148 0 0 1 .028-.256L10.071 1.8a.124.124 0 0 1 .052 0m0-.8a.889.889 0 0 0-.364.076L1.56 4.6a.928.928 0 0 0-.172 1.6l3.665 2.608-.056.024a.936.936 0 0 0-.168 1.6l3.774 2.748-.324.128a.932.932 0 0 0-.12 1.668l11.604 6.696c.14.082.298.125.46.124a.928.928 0 0 0 .72-1.504l-4.545-5.764.564-.136a.928.928 0 0 0 .652-.592.945.945 0 0 0-.152-.88l-2.937-3.704.316-.104a.917.917 0 0 0 .63-1.014.943.943 0 0 0-.158-.402L10.876 1.4a.92.92 0 0 0-.753-.4Z"/>
  </g>
  <defs>
    <radialGradient id="b" cx="0" cy="0" r="1" gradientTransform="matrix(10.3318 0 0 10.328 12.668 12.672)" gradientUnits="userSpaceOnUse">
      <stop stop-color="#4389FF"/>
      <stop offset="1" stop-color="#00549E"/>
    </radialGradient>
    <clipPath id="a">
      <path fill="#fff" d="M0 0h22v22H0z" transform="translate(1 1)"/>
    </clipPath>
  </defs>
</svg>
