<svg viewBox="26.56 17.18 64 64" xmlns="http://www.w3.org/2000/svg"><path d="m45.998 63.512h-8.898c-5.947-1.48-10.53-6.15-10.53-12.36 0-5.135 3.307-9.835 7.804-11.605-.058-.55-.087-1.073-.087-1.625 0-8.82 7.166-15.956 15.985-15.956 4.845 0 9.4 2.205 12.446 5.976 1.8-.9 3.8-1.393 5.83-1.364 6.992 0 13.026 6.2 13.287 13.113l-23.855-9.833-11.982 7.166z" fill="#59b4d9"/><path d="m90.56 70.098-32.86 6.266.145-23.093 32.725 6.063zm-32.754-37.25 32.754 12.33v12.33l-32.696-6.963" fill="#959595"/><path d="m57.864 50.544-8.907 4.15v-16.45l8.85-5.396m31.273 23.237-29.708-6.8v-14.727l29.708 10.967zm-16.334-5.28 2.96.812v-9.632l-2.96-1.044zm-2.986-10.793-2.96-1.072v10.26l2.96.84zm8.936 12.417 2.93.783.058-9.168-2.988-.986zm-17.844-4.729 2.96.754v-10.502l-2.96-.986zm26.75-1.654-2.96-1.044v8.965l2.96.812zm-28.228 9.66v19.06l29.708-5.454v-9.012zm1.48 16.827v-14.68l2.96.377v13.8zm8.907-1.48-2.96.55v-12.965l2.96.435v11.982zm2.988-.435v-11.255l2.96.377v10.33zm8.907-1.567-2.96.493v-9.458l2.96.435zm6.034-.957-3.075.522v-7.776l2.872.348z" fill="#b3b4b5"/><path d="m51.974 50.253-1.48.87v-11.691l1.48-.812v11.634zm2.96-13.316-1.48 1.015v11.373l1.48-.812z" fill="#959595"/><path d="m48.957 71.084-.058-13.52 8.936-4.323.058 23.15" fill="#b3b4b5"/><path d="m51.77 71.026-1.364-.696v-11.402l1.364-.6zm3.2-14.13-1.48.638-.058 14.4 1.538.783z" fill="#959595"/><path d="m87.572 47.004-26.692-8.964.03-1.16 26.662 9.168zm-.087 14.216-26.585-3.336v1.16l26.604 3.133zm-32.55-22.774v-1.45l-4.323 2.38-.058 1.218zm-4.497 21.354 4.526-1.654v-1.248l-4.555 2.03z" fill="#7a7a7a"/><path d="m90.56 45.234v24.863l-32.667 6.267 24.747-34.118z" fill="#fff" opacity=".2"/></svg>