<svg viewBox="0 0 95 95" xmlns="http://www.w3.org/2000/svg"><defs><linearGradient x1="0%" y1="50%" x2="100%" y2="50%" id="a"><stop stop-color="#89C6F9" offset="0%"/><stop stop-color="#56AADB" offset="100%"/></linearGradient></defs><g fill="none" fill-rule="evenodd"><path d="M53.495 14l.255.007c1.02.054 2.058.433 3.006 1.107L75.772 28.69l.174.132c1.314 1.053 2.108 3.074 2.051 5.2l-.022.715c-.841 23.482-11.92 39.11-19.998 45.816l-.229.182c-1.156.883-2.47 1.338-3.68 1.255l-.403-.032c-13.348-1.208-33.008-16.471-36.62-50.646l-.023-.263a8.546 8.546 0 01-.022-.518v-.17l.007-.271c.14-3.138 2.137-5.723 5.22-6.663l29.925-9.229A4.609 4.609 0 0153.495 14zm.343 6.995l-.001.035-27.232 10.56c2.922 27.17 15.71 41.937 30.01 44.28l.359-.326c9.655-8.878 16.49-23.294 17.113-41.821L53.838 20.995zm.36 8.29l.258.008c.687.043 1.368.258 2.095.654l.981.53c2.604 1.398 5.103 2.658 7.484 3.849l1.764.881.13.072c.496.301.694.768.72 1.467l.021.688c.197 7.784-1.096 14.997-4.515 21.863l-.335.66c-1.7 3.282-3.8 6.353-6.395 9.13l-.126.13c-.667.649-1.263.686-2.048.253l-.446-.254c-4.291-2.497-7.91-6.31-10.788-11.515l-.319-.595c-1.668-3.197-2.764-6.77-3.641-10.546l-.034-.166c-.18-1.04.267-1.857 1.308-2.123l.156-.034c.97-.173 1.598.444 1.786 1.431l.16.77c.397 1.78.97 3.474 1.533 5.147l.194.56c1.653 4.634 4.13 8.338 7.156 11.332l.445.42c.901.81 1.868 1.47 2.765 2.199l.05.044c.182.173.359.454.647.255l.084-.071c.212-.228.08-.56.074-.825l-.049-2.157c-.1-4.328-.208-8.742-.319-13.248l-.054-2.259c-.11-4.534-.22-9.161-.338-13.886l-.004-.16c-.04-1.388-.15-1.417-1.33-.954l-1.186.463c-3.577 1.398-7.346 2.876-11.343 4.398l-.162.057c-1.438.464-2.511-.336-2.537-1.813l.004-.176c.06-.899.698-1.223 1.398-1.473l1.245-.442c4.132-1.463 8.052-2.797 11.71-4.2.627-.24 1.217-.364 1.801-.364z" fill="url(#a)"/><path d="M0 0h95v95H0z"/></g></svg>