<svg xmlns="http://www.w3.org/2000/svg" viewBox="0 0 27 25">
  <path fill="#265AB1" d="M4.565 2.592V14.93c0 1.763 1.744 4.199 3.529 5.397l4.859 3.263 4.809-3.263c1.779-1.207 3.53-3.634 3.53-5.398V2.593c-5.528-1.635-11.107-1.52-16.727 0Z"/>
  <path fill="#000" d="M5.813 4.483v10.391c0 1.485 2.04 3.613 2.973 4.546V8.904l2.747 2.473v4.396h2.648v-4.396l2.748-2.473V19.42c.933-.933 2.972-3.06 2.972-4.546V4.483h-2.823l-4.22 4.021-4.222-4.021H5.813Z" opacity=".3"/>
  <path fill="#fff" d="M5.813 3.991v10.391c0 1.486 2.04 3.613 2.973 4.546V8.412l2.747 2.473v4.396h2.648v-4.396l2.748-2.473v10.516c.933-.933 2.972-3.06 2.972-4.546V3.992h-2.823l-4.22 4.02-4.222-4.02H5.813Z"/>
  <path fill="#fff" d="M12.893 1.408c-2.788.014-5.589.423-8.399 1.183v.493c5.621-1.52 11.2-1.635 16.727 0v-.493a28.676 28.676 0 0 0-8.328-1.183Z" opacity=".2"/>
  <path fill="#000" d="M4.494 14.435v.493c0 1.763 1.745 4.199 3.53 5.397l4.858 3.264 4.81-3.264c1.778-1.207 3.528-3.634 3.528-5.397v-.493c0 1.763-1.75 4.19-3.529 5.397l-4.809 3.264-4.859-3.264c-1.784-1.198-3.529-3.634-3.529-5.397Z" opacity=".3"/>
  <path fill="#000" d="M12.893 1.41h-.01v22.18l4.808-3.263c1.78-1.207 3.53-3.634 3.53-5.397V2.592a28.675 28.675 0 0 0-8.328-1.183Z" opacity=".2"/>
</svg>
