<svg viewBox="0 0 32 30" xmlns="http://www.w3.org/2000/svg"><path d="m9.714 13.363-4.821 1.75c.071.768.196 1.536.375 2.286l4.571-1.66a9.603 9.603 0 0 1 -.125-2.376zm21.286-5.321a13.99 13.99 0 0 0 -1.179-2l-4.821 1.75a8.669 8.669 0 0 1 1.41 1.91l4.59-1.659z" fill="#aa1017"/><path d="m20.41 6.667a9.26 9.26 0 0 1 2.608 1.857l4.821-1.75c-4.409-6.196-13.018-7.625-19.214-3.214-3.946 2.803-6.107 7.482-5.732 12.303l4.803-1.768c.358-4.91 4.643-8.607 9.572-8.25 1.09.09 2.143.375 3.143.822zm-14.839 10.625-4.571 1.66a14.38 14.38 0 0 0 2.143 4.661l4.803-1.75a9.044 9.044 0 0 1 -2.375-4.571zm19.983-1.804a8.784 8.784 0 0 1 -.804 3.09c-2.09 4.482-7.41 6.41-11.893 4.339a9.014 9.014 0 0 1 -2.607-1.857l-4.821 1.768a13.679 13.679 0 0 0 5.357 4.464c6.893 3.214 15.089.232 18.321-6.66 1-2.144 1.429-4.519 1.232-6.876zm1.178-5.893-4.571 1.661a9.017 9.017 0 0 1 1.125 5.036l4.803-1.75a13.712 13.712 0 0 0 -1.357-4.947z" fill="#ce0e19"/><path d="m9.696 14.345c-.017-.321 0-.643.018-.964l-4.821 1.75c.018.304.071.607.107.91zm20.608-7.571c-.161-.25-.304-.482-.483-.732l-4.821 1.75c.214.214.41.446.59.678z" fill="#8b070f"/><path d="m5.429 22.81a13.91 13.91 0 0 0 1.232 1.482l5.232-1.91a9.154 9.154 0 0 1 -1.66-1.322zm24.91-9.072-4.803 1.75a8.908 8.908 0 0 1 -.411 2.054l5.232-1.91c.036-.644.036-1.287-.018-1.894z" fill="#aa1017"/></svg>