<svg fill="none" viewBox="0 0 24 24" xmlns="http://www.w3.org/2000/svg"><path clip-rule="evenodd" d="m12.06 1c-6.58569 0-11.760195 5.1745-11.760195 11.7602 0 3.4497 1.411235 6.5858 3.606475 8.781.78402.784 2.19524.784 3.13606.1568 1.25443-1.0976 3.13606-1.7248 5.01766-1.7248 2.0385 0 3.6065.6272 5.0177 1.7248.9409.784 2.1953.6272 3.1361-.3136 2.1952-2.1952 3.6065-5.1745 3.6065-8.6242-.1568-6.42889-5.3313-11.7602-11.7603-11.7602zm-.1568 17.8756c-3.60643 0-5.95849-2.6657-5.95849-5.9586 0-3.29283 2.35206-5.95848 5.95849-5.95848 3.6065 0 5.9586 2.66565 5.9586 5.95848 0 3.2929-2.3521 5.9586-5.9586 5.9586z" fill="#81b5a1" fill-rule="evenodd"/></svg>