<svg fill="none" viewBox="0 0 41 41" xmlns="http://www.w3.org/2000/svg" xmlns:xlink="http://www.w3.org/1999/xlink"><clipPath id="a"><path d="m.661621.967606h40v40h-40z"/></clipPath><g clip-path="url(#a)"><path d="m12.7736 29.6945h-5.56661c-3.7171-.9248-6.58199-3.8441-6.58199-7.7244 0-3.2093 2.06708-6.1468 4.87755-7.2528-.03626-.3446-.0544-.6709-.0544-1.0155 0-5.51213 4.47866-9.97266 9.99085-9.97266 3.028 0 5.8748 1.37805 7.7788 3.73523 1.1241-.56209 2.3753-.87034 3.6445-.85221 4.3699 0 8.1414 3.88024 8.3045 8.19574l-14.9047-6.14681-7.4885 4.47871z" fill="#59b4d9"/><path d="m40.6249 33.8105-20.5438 3.9166.0906-14.4332 20.4532 3.7896zm-20.4713-23.2817 20.4713 7.7062v7.7062l-20.435-4.3518" fill="#959595"/><path d="m20.1886 21.5894-5.5665 2.593v-10.281l5.5304-3.3726m19.5464 14.5239-18.5675-4.2429v-9.2112l18.5675 6.854zm-10.2084-3.3001 1.8495.5077v-6.0199l-1.8495-.6527zm-1.8676-6.7451-1.8495-.6709v6.4188l1.8495.5259zm5.5846 7.7606 1.8315.4895.0361-5.7298-1.8676-.6165zm-11.1512-2.9557 1.8494.4715v-6.5638l-1.8494-.6165zm16.7178-1.0334-1.8495-.6529v5.603l1.8495.5076zm-17.6427 6.0379v11.9129l18.5675-3.4088v-5.6391zm.9249 10.5167v-9.1749l1.8494.2359v8.6309zm5.5666-.9246-1.8495.3445v-8.1051l1.8495.272c0-.0182 0 7.4886 0 7.4886zm1.8676-.272v-7.0353l1.8495.2357v6.4551zm5.5665-.9792-1.8495.3082v-5.9111l1.8495.272zm3.7716-.5983-1.9221.3263v-4.8594l1.7951.2176z" fill="#b3b4b5"/><path d="m16.5087 21.4079-.9247.544v-7.3072l.9247-.5077zm1.8494-8.3226-.9246.6347v7.1078l.9246-.5077z" fill="#959595"/><path d="m14.6227 34.427-.0363-8.4496 5.5847-2.7017.0364 14.4694" fill="#b3b4b5"/><path d="m16.381 34.3908-.8522-.4352v-7.1259l.8522-.3808zm1.9946-8.8304-.9248.399-.0363 8.9934.961.4897z" fill="#959595"/><path d="m38.7561 19.3773-16.6815-5.6029.018-.7253 16.6635 5.7299zm-.0543 8.8847-16.6092-2.0851v.7252l16.6274 1.9583zm-20.3443-14.2337v-.9066l-2.7018 1.4868-.0362.7615zm-2.8106 13.3452 2.8287-1.0334v-.7797l-2.8468 1.2692z" fill="#7a7a7a"/><path d="m40.6248 18.2711v15.5394l-20.4168 3.9166 15.4667-21.3235z" fill="#fff" opacity=".2"/></g></svg>