<svg viewBox="0 0 24 25" xmlns="http://www.w3.org/2000/svg">
<path d="M7.28921 17.8664H3.94923C1.71895 17.3116 0 15.56 0 13.2318C0 11.3061 1.24026 9.54367 2.92656 8.88002C2.9048 8.67331 2.89392 8.47748 2.89392 8.27077C2.89392 4.96343 5.58114 2.28709 8.88848 2.28709C10.7053 2.28709 12.4134 3.11393 13.5558 4.52826C14.2303 4.19099 14.981 4.00604 15.7425 4.01692C18.3645 4.01692 20.6274 6.34512 20.7253 8.93442L11.7824 5.2463L7.28921 7.93351V17.8664Z" fill="white"/>
<path d="M24 20.336L11.6736 22.686L11.728 14.026L24 16.2998L24 20.336ZM11.7171 6.36687L24 10.9906V15.6144L11.7389 13.0033" fill="#F3F3FA"/>
<path d="M11.7385 13.0033L8.39856 14.5591V8.39044L11.7168 6.36687M23.4448 15.0813L12.3043 12.5355V7.00875L23.4448 11.1212V15.0813ZM17.3197 13.1012L18.4294 13.4059V9.79388L17.3197 9.40222V13.1012ZM16.1991 9.05408L15.0894 8.65154V12.5029L16.1991 12.8184V9.05408ZM19.55 13.7105L20.6488 14.0042L20.6705 10.5663L19.55 10.1964L19.55 13.7105ZM12.8591 11.9371L13.9688 12.22V8.28164L12.8591 7.91174V11.9371ZM22.8899 11.317L21.7802 10.9253V14.2871L22.8899 14.5917V11.317ZM12.3043 14.9398V22.0876L23.4448 20.0423V16.6588L12.3043 14.9398ZM12.8591 21.2499V15.7449L13.9688 15.8864V21.065L12.8591 21.2499ZM16.1991 20.6951L15.0894 20.9018V16.0387L16.1991 16.2019C16.1991 16.191 16.1991 20.6951 16.1991 20.6951ZM17.3197 20.5319V16.3107L18.4294 16.4521V20.3252L17.3197 20.5319ZM20.6597 19.9444L19.55 20.1293V16.5826L20.6597 16.7458V19.9444ZM22.9226 19.5854L21.7694 19.7812V16.8655L22.8464 16.9961L22.9226 19.5854Z" fill="#D9DEE5"/>
<path d="M9.53068 12.8945L8.97583 13.2209V8.83645L9.53068 8.53182V12.8945ZM10.6404 7.90082L10.0855 8.2816V12.5463L10.6404 12.2417V7.90082Z" fill="#F3F3FA"/>
<path d="M8.39884 20.7059L8.37708 15.6361L11.7279 14.0151L11.7497 22.6969" fill="#D9DEE5"/>
<path d="M9.45408 20.6842L8.94275 20.4231V16.1475L9.45408 15.919V20.6842ZM10.6508 15.3859L10.096 15.6252L10.0742 21.0214L10.6508 21.3152L10.6508 15.3859Z" fill="#F3F3FA"/>
<path d="M22.8793 11.676L12.8702 8.31428L12.8811 7.8791L22.8793 11.317V11.676ZM22.8466 17.0069L12.8811 15.7558V16.191L22.8575 17.366L22.8466 17.0069ZM10.6399 8.46659V7.92262L9.01891 8.81473L8.99714 9.27167L10.6399 8.46659ZM8.95363 16.4738L10.6508 15.8537V15.3859L8.94275 16.1475L8.95363 16.4738Z" fill="#C4C5D0"/>
<path opacity="0.3" fill-rule="evenodd" clip-rule="evenodd" d="M17.2845 15.0555L24 16.2998V20.3361L11.762 22.6692L17.2845 15.0555ZM17.8318 14.3008L21.0299 9.89183L24 11.0124V15.6144L17.8318 14.3008Z" fill="#F3F3FA"/>
</svg>
