<svg viewBox="0 0 24 24" xmlns="http://www.w3.org/2000/svg">
<path fill-rule="evenodd" clip-rule="evenodd" d="M3.24833 10.2401C1.58851 15.6938 3.20881 21.0684 4.35488 22.8073C5.7869 24.98 7.55339 23.7135 8.96836 22.699L8.96839 22.699C9.23625 22.5069 9.49151 22.3239 9.72952 22.175C12.2451 20.6008 14.077 22.1192 14.5964 22.5498C14.6247 22.5732 14.6491 22.5934 14.6694 22.6097C14.7299 22.6581 14.8005 22.7332 14.8857 22.8239L14.8858 22.824C15.3575 23.3261 16.2755 24.3034 18.3843 23.8348C20.874 23.2815 21.8225 17.4326 21.6249 13.9944C21.4273 10.5563 20.5183 7.23662 18.0681 5.7744C16.4433 4.80472 15.5136 4.56498 14.9564 4.4213C14.6733 4.34832 14.4864 4.30011 14.3533 4.19362C14.1998 4.07081 14.094 3.93607 13.9988 3.81489C13.849 3.62411 13.7256 3.46692 13.4839 3.44275C13.4166 3.43602 13.4256 3.4825 13.4365 3.5392C13.4519 3.61914 13.4712 3.71938 13.2863 3.71938C13.1065 3.71938 13.0289 3.55321 12.9519 3.38807C12.8934 3.26284 12.8353 3.1382 12.733 3.08707C12.6144 3.02779 12.1687 2.95745 12.4564 3.24515C12.7441 3.53286 12.1797 3.64035 12.0612 3.32419C11.9827 3.11487 11.5474 2.77092 10.8756 2.84996C10.6616 2.87513 10.7339 2.95177 10.8533 3.0784C11.017 3.25203 11.2694 3.51964 10.9941 3.87746C10.9074 3.99021 10.5657 4.09724 10.0675 4.25327C8.2954 4.80827 4.5439 5.98321 3.24833 10.2401ZM11.305 9.72895C10.209 10.0873 9.65045 10.9093 9.72422 12.058C9.80853 13.3331 10.62 14.1551 11.9478 14.2921C13.3179 14.4291 14.4455 13.4069 14.4455 12.0369C14.4455 11.6048 14.4349 11.5837 14.2242 11.6891C13.9607 11.8367 13.4338 11.6575 13.2862 11.3624C13.1071 11.0463 13.1703 10.5088 13.4022 10.2559L13.6129 10.0346L13.1703 9.85541C12.5485 9.60249 11.8425 9.56033 11.305 9.72895ZM9.88231 18.2441C10.0193 18.0544 10.2301 17.9384 10.5041 17.8963C11.0521 17.8014 14.0345 17.9068 14.2558 18.0333C14.5087 18.1598 14.6036 18.6024 14.456 18.9185C14.182 19.5192 12.5064 19.9513 11.3788 19.7089C10.0509 19.4244 9.43969 18.8342 9.88231 18.2441ZM11.5474 18.9607C12.1376 18.9607 12.2324 18.8764 12.2324 18.3705V17.9068H11.5474H10.8624V18.3705C10.8624 18.8764 10.9572 18.9607 11.5474 18.9607Z" fill="#D9DAE5"/>
<path fill-rule="evenodd" clip-rule="evenodd" d="M12.1402 17.2746C15.174 17.2746 17.6334 14.9213 17.6334 12.0185C17.6334 9.11562 15.174 6.76239 12.1402 6.76239C9.10639 6.76239 6.647 9.11562 6.647 12.0185C6.647 14.9213 9.10639 17.2746 12.1402 17.2746ZM9.72422 12.058C9.65045 10.9093 10.209 10.0873 11.305 9.72895C11.8425 9.56033 12.5485 9.60249 13.1703 9.85541L13.6129 10.0346L13.4022 10.2559C13.1703 10.5088 13.1071 11.0463 13.2862 11.3624C13.4338 11.6575 13.9607 11.8367 14.2242 11.6891C14.4349 11.5837 14.4455 11.6048 14.4455 12.0369C14.4455 13.4069 13.3179 14.4291 11.9478 14.2921C10.62 14.1551 9.80853 13.3331 9.72422 12.058Z" fill="#B0B1C3"/>
<path fill-rule="evenodd" clip-rule="evenodd" d="M12.1007 16.7212C14.6761 16.7212 16.764 14.6334 16.764 12.0579C16.764 9.48248 14.6761 7.39465 12.1007 7.39465C9.52521 7.39465 7.43738 9.48248 7.43738 12.0579C7.43738 14.6334 9.52521 16.7212 12.1007 16.7212ZM9.72422 12.058C9.65045 10.9093 10.209 10.0873 11.305 9.72895C11.8425 9.56033 12.5485 9.60249 13.1703 9.85541L13.6129 10.0346L13.4022 10.2559C13.1703 10.5088 13.1071 11.0463 13.2862 11.3624C13.4338 11.6575 13.9607 11.8367 14.2242 11.6891C14.4349 11.5837 14.4455 11.6048 14.4455 12.0369C14.4455 13.4069 13.3179 14.4291 11.9478 14.2921C10.62 14.1551 9.80853 13.3331 9.72422 12.058Z" fill="#D9DAE5"/>
<path fill-rule="evenodd" clip-rule="evenodd" d="M14.4452 12.0762C14.4238 13.4264 13.3047 14.4278 11.9478 14.2921C11.0115 14.1955 10.3319 13.7583 9.98299 13.0617C8.77653 12.6174 7.89068 11.6484 7.70891 10.4862C7.53313 10.9773 7.43738 11.5064 7.43738 12.058C7.43738 14.6335 9.52521 16.7213 12.1007 16.7213C14.6761 16.7213 16.764 14.6335 16.764 12.058C16.764 10.351 15.8468 8.85818 14.4783 8.04553C14.97 8.59861 15.2622 9.29104 15.2622 10.0425C15.2622 10.8107 14.9568 11.5172 14.4452 12.0762Z" fill="white"/>
<path d="M10.8756 18.8948C10.6859 18.7684 10.6912 18.1835 10.7175 17.9069H12.3378V18.3021C12.3246 18.526 12.2588 18.9897 12.1007 19.0529C11.9031 19.132 11.1127 19.0529 10.8756 18.8948Z" fill="white"/>
<path fill-rule="evenodd" clip-rule="evenodd" d="M15.4721 4.56396C15.0637 4.79449 14.788 5.23249 14.788 5.73488C14.788 6.47696 15.3896 7.07854 16.1316 7.07854C16.8737 7.07854 17.4753 6.47696 17.4753 5.73488C17.4753 5.62443 17.462 5.51709 17.4368 5.41438C16.5691 4.94369 15.9377 4.70646 15.4721 4.56396ZM21.3909 18.1814C21.0493 17.9578 20.6409 17.8278 20.2022 17.8278C19.0017 17.8278 18.0286 18.801 18.0286 20.0014C18.0286 21.197 18.9939 22.1671 20.1876 22.1749C20.7623 21.1112 21.1575 19.6651 21.3909 18.1814ZM3.23955 10.269C2.96132 11.1895 2.77637 12.1076 2.66664 13.0062C2.67608 13.0064 2.68555 13.0065 2.69504 13.0065C3.48077 13.0065 4.11774 12.3695 4.11774 11.5838C4.11774 10.9909 3.7551 10.4827 3.23955 10.269ZM4.11774 14.7848C4.11774 15.1559 3.78156 15.4567 3.36687 15.4567C2.95217 15.4567 2.616 15.1559 2.616 14.7848C2.616 14.4138 2.95217 14.113 3.36687 14.113C3.78156 14.113 4.11774 14.4138 4.11774 14.7848ZM14.0766 5.69536C14.0766 6.02275 13.8112 6.28815 13.4838 6.28815C13.1565 6.28815 12.8911 6.02275 12.8911 5.69536C12.8911 5.36797 13.1565 5.10257 13.4838 5.10257C13.8112 5.10257 14.0766 5.36797 14.0766 5.69536ZM19.0561 17.0374C19.4926 17.0374 19.8465 16.6836 19.8465 16.2471C19.8465 15.8105 19.4926 15.4567 19.0561 15.4567C18.6196 15.4567 18.2657 15.8105 18.2657 16.2471C18.2657 16.6836 18.6196 17.0374 19.0561 17.0374Z" fill="#B0B1C3"/>
<ellipse cx="13.9581" cy="10.9119" rx="0.829908" ry="0.908947" fill="white"/>
<path fill-rule="evenodd" clip-rule="evenodd" d="M18.4817 1.23492C18.9244 0.665836 19.2511 0.433988 19.9361 0.191602C20.5789 -0.0297061 21.0426 -0.0613217 21.148 0.107294C21.1796 0.170526 21.0426 0.402373 20.8318 0.613143C20.3681 1.09792 20.1995 1.62484 20.2944 2.34146C20.4103 3.174 20.6105 3.6377 21.1901 4.41755C22.4442 6.11425 22.4758 7.19972 21.2639 7.89526C20.4841 8.33788 20.3681 8.3168 19.8307 7.57911C19.3881 6.96787 18.9665 6.53579 18.3131 6.02994L18.0181 5.80863L18.2394 5.45032C18.5028 5.00771 18.5028 4.57563 18.2288 3.47962C17.9548 2.39415 18.0181 1.84615 18.4817 1.23492ZM3.35897 0.665835C3.11658 0.402373 2.96905 0.159986 3.0112 0.0862171C3.11658 -0.0823997 3.8859 0.0335241 4.54982 0.318064C5.41398 0.697451 6.12006 1.65646 6.12006 2.47846C6.12006 2.59438 6.02522 3.04754 5.90929 3.47962C5.60368 4.61778 5.62475 5.13417 5.9936 5.57679L6.29922 5.9351L5.65637 6.53579C5.29806 6.86248 4.82383 7.39995 4.59198 7.72664C4.19151 8.29572 4.14936 8.3168 3.80159 8.25357C3.25359 8.15872 2.42104 7.67395 2.19973 7.31564C1.77819 6.6201 2.02058 5.68217 2.95851 4.41755C3.52759 3.64824 3.66459 3.3637 3.81213 2.57331C3.9702 1.74076 3.8332 1.18222 3.35897 0.665835Z" fill="#B0B1C3"/>
<path fill-rule="evenodd" clip-rule="evenodd" d="M19.9361 0.191603C19.2511 0.433989 18.9244 0.665836 18.4818 1.23492C18.0181 1.84615 17.9548 2.39415 18.2288 3.47962C18.5028 4.57563 18.5028 5.00771 18.2394 5.45033L18.0181 5.80864L18.3132 6.02994C18.9665 6.53579 19.3881 6.96787 19.8307 7.57911C19.8646 7.62559 19.8968 7.66923 19.9275 7.71008L19.6884 7.27613C20.0178 7.10487 20.6606 6.58849 20.5974 5.89294C20.521 5.05252 19.8712 3.91955 19.704 3.62795C19.6982 3.61789 19.693 3.60883 19.6884 3.60082C19.5303 3.32418 18.8585 2.09908 20.0046 0.953011C20.3585 0.599073 20.7081 0.437913 21.023 0.390868C21.1182 0.259965 21.1685 0.148254 21.148 0.107295C21.0426 -0.0613218 20.5789 -0.0297062 19.9361 0.191603ZM3.01122 0.086217C2.96907 0.159987 3.11661 0.402373 3.35899 0.665836C3.44159 0.755775 3.51396 0.846993 3.57632 0.940714C4.37494 1.4774 4.56508 3.01143 4.51296 3.32418C4.45695 3.66027 4.25978 4.08458 4.05068 4.53458C3.81721 5.03704 3.56884 5.57154 3.48545 6.05104C3.37304 6.69742 4.20992 7.22513 4.78585 7.47319C5.03565 7.1641 5.38041 6.78743 5.65639 6.53579L6.29924 5.9351L5.99362 5.57679C5.62477 5.13417 5.6037 4.61778 5.90931 3.47962C6.02524 3.04754 6.12008 2.59439 6.12008 2.47846C6.12008 1.65646 5.414 0.697451 4.54984 0.318064C3.88592 0.0335244 3.11661 -0.0823994 3.01122 0.086217Z" fill="#D9DAE5"/>
</svg>
