<svg xmlns="http://www.w3.org/2000/svg" viewBox="0 0 24 25">
  <path fill="#fff" d="M12 .82 1.937 6.695v11.844L12 24.46l10.064-5.918V6.695L12 .82Z"/>
  <path fill="#1904DA" d="M11.725 16.897V14.44c-1.1-.524-1.79-1.615-1.776-2.805l-2.265-1.321a6.206 6.206 0 0 0 .843 3.816 6.481 6.481 0 0 0 3.198 2.766Z"/>
  <path fill="#1904DA" d="M11.725 20.262v-2.85c-1.534-.581-2.743-1.604-3.594-3.041a6.652 6.652 0 0 1-.88-4.31L5.147 8.834c-1.208 4.703 1.598 9.578 6.577 11.428Z"/>
  <path fill="#08B1D5" d="M12.243 17.385v2.874c4.887-1.893 7.766-6.86 6.613-11.408l-2.089 1.23c.27 1.586.015 3.1-.738 4.384-.755 1.285-2.063 2.294-3.786 2.92Z"/>
  <path fill="#08B1D5" d="M12.243 14.437V16.9c1.537-.59 2.707-1.513 3.388-2.672.668-1.139.912-2.483.708-3.895l-2.263 1.318c-.01 1.13-.676 2.14-1.833 2.787Z"/>
  <path fill="#FFC900" d="M14.375 7.436a5.181 5.181 0 0 1 2.25 2.159l2.033-1.187a1.141 1.141 0 0 1-.039-.058c-.8-1.307-1.856-2.291-3.14-2.923-3.57-1.76-8.004-.449-10.14 2.981l2.042 1.19c1.528-2.4 4.583-3.35 6.994-2.162Z"/>
  <path fill="#FFC900" d="M12.055 10.045c.32 0 .641.071.942.22.396.195.72.505.938.899l2.289-1.336a4.721 4.721 0 0 0-2.052-1.972c-2.196-1.082-4.983-.213-6.39 1.977l2.277 1.328c.473-.713 1.232-1.116 1.996-1.116Z"/>
  <path fill="#08B1D5" d="m12.243 23.861 9.423-5.55V7.198l-2.396 1.41c1.317 4.884-1.755 10.198-7.027 12.151v3.103Z"/>
  <path fill="#1904DA" d="m4.733 8.593-2.4-1.4v11.116l9.392 5.552v-3.102c-5.283-1.879-8.34-7.2-6.992-12.166Z"/>
  <path fill="#FFC900" d="M15.682 5.007c1.364.671 2.484 1.713 3.33 3.097.014.022.03.045.049.069l2.374-1.385L12 1.283 2.564 6.789l2.374 1.385c2.257-3.64 6.958-5.033 10.744-3.167Z"/>
  <path fill="#FF0036" d="M13.6 11.728c0-.002.003-.093-.003-.239-.02-.06-.242-.499-.798-.805-.38-.21-.867-.233-1.337-.067a2 2 0 0 0-1.077.896 1.894 1.894 0 0 0-.004.215c.03.759.495 1.79 1.442 2.262l.146.07.127-.068c.92-.52 1.468-1.346 1.503-2.264Z"/>
</svg>
