<svg xmlns="http://www.w3.org/2000/svg" width="40" height="40" fill="none" viewBox="0 0 1200 1200">
<style type="text/css">
	.st0{fill:#FFFFFF;}
</style>
<g>
	<path class="st0" d="M1179.5,688.3l0-622.7c0-24.9-20.2-45.1-45.1-45.1H919.8l0,858.2c0,34.4,41.6,51.7,66,27.3l176.7-176.7
		C1173.4,718.4,1179.5,703.6,1179.5,688.3z"/>
	<path class="st0" d="M884.1,20.5l-372.4,0c-15.4,0-30.1,6.1-41,17L294,214.2c-24.3,24.3-7.1,66,27.3,66l562.8,0V20.5z"/>
	<path class="st0" d="M688.3,1179.5l-622.7,0c-24.9,0-45.1-20.2-45.1-45.1l0-214.6l858.2,0c34.4,0,51.7,41.6,27.3,66l-176.7,176.7
		C718.4,1173.4,703.6,1179.5,688.3,1179.5z"/>
	<path class="st0" d="M20.5,884.1l0-372.4c0-15.4,6.1-30.1,17-41L214.2,294c24.3-24.3,66-7.1,66,27.3l0,562.8L20.5,884.1z"/>
</g>
</svg>