<svg viewBox="0 0 48 48" xmlns="http://www.w3.org/2000/svg"><path d="m32.66 7h-17.32c-.715 0-1.375.381-1.732 1l-8.66 15a2.001 2.001 0 0 0 0 2l8.66 15a2 2 0 0 0 1.732 1h17.32c.715 0 1.375-.381 1.732-1l8.66-15a2.001 2.001 0 0 0 0-2l-8.66-15a1.999 1.999 0 0 0 -1.732-1z" fill="#2979ff"/><path d="m32 35h-16a1 1 0 0 1 -1-1v-20a1 1 0 0 1 1-1h13l4 4v17a1 1 0 0 1 -1 1z" fill="#fff"/><path d="m29 13v3a1 1 0 0 0 1 1h3z" fill="#b1cfff"/><path d="m22.265 23.831h-1.335v-4.251l-1.312.383v-1.011l2.524-.873h.122v5.752zm6.437-2.351c0 .416-.049.776-.146 1.081a2.084 2.084 0 0 1 -.411.756c-.176.2-.387.349-.632.446a2.182 2.182 0 0 1 -.81.146c-.298 0-.57-.049-.816-.146a1.628 1.628 0 0 1 -.633-.446 2.117 2.117 0 0 1 -.413-.756 3.515 3.515 0 0 1 -.147-1.081v-1.051c0-.413.049-.773.146-1.078s.234-.558.411-.758c.176-.2.387-.349.632-.446.243-.098.514-.147.812-.147.295 0 .565.049.811.146s.458.246.635.446c.176.2.313.453.412.758s.149.665.149 1.078zm-1.332-1.22c0-.229-.016-.421-.047-.579a1.251 1.251 0 0 0 -.134-.381.53.53 0 0 0 -.494-.272.62.62 0 0 0 -.283.063.512.512 0 0 0 -.209.209 1.21 1.21 0 0 0 -.13.381c-.03.158-.045.35-.045.579v1.383c0 .234.014.431.045.589.03.158.075.286.133.381a.523.523 0 0 0 .213.208.627.627 0 0 0 .284.063.527.527 0 0 0 .49-.271c.058-.095.101-.223.132-.381.03-.158.046-.354.046-.589v-1.383zm-4.062 9.311c0 .416-.049.776-.146 1.081a2.084 2.084 0 0 1 -.411.756c-.176.2-.387.349-.632.446a2.182 2.182 0 0 1 -.81.146c-.298 0-.57-.049-.816-.146a1.628 1.628 0 0 1 -.633-.446 2.117 2.117 0 0 1 -.413-.756 3.515 3.515 0 0 1 -.147-1.081v-1.051c0-.413.049-.773.146-1.078s.234-.558.411-.758c.176-.2.387-.349.632-.446s.516-.146.814-.146c.295 0 .565.049.811.146s.458.246.635.446c.176.2.313.453.412.758s.149.665.149 1.078v1.051zm-1.331-1.221c0-.229-.016-.421-.047-.579a1.251 1.251 0 0 0 -.134-.381.53.53 0 0 0 -.494-.272c-.106 0-.2.021-.283.063a.512.512 0 0 0 -.209.209 1.21 1.21 0 0 0 -.13.381c-.03.158-.045.35-.045.579v1.383c0 .234.014.431.045.589.03.158.075.286.133.381.058.097.129.166.213.208s.179.063.284.063a.527.527 0 0 0 .49-.271c.058-.095.101-.223.132-.381.03-.158.046-.354.046-.589v-1.383zm5.682 3.571h-1.335v-4.251l-1.312.383v-1.011l2.524-.873h.122v5.752z" fill="#03a9f4"/></svg>