<svg viewBox="0 0 25 25" xmlns="http://www.w3.org/2000/svg">
<path fill-rule="evenodd" clip-rule="evenodd" d="M12.4173 8.99663L15.7429 10.7599V14.2232L12.4173 15.9873L9.09253 14.2232V10.7599L12.4173 8.99663ZM16.391 15.4644L19.7167 17.2277V20.6909L16.391 22.4551L13.0663 20.6909V17.2277L16.391 15.4644ZM8.0357 15.3784L11.3613 17.1426V20.605L8.0357 22.3692L4.71008 20.605V17.1426L8.0357 15.3784ZM20.8619 8.99663L24.1875 10.7599V14.2232L20.8619 15.9873L17.5363 14.2232V10.7599L20.8619 8.99663Z" fill="white"/>
<path fill-rule="evenodd" clip-rule="evenodd" d="M3.97355 8.47614L7.75793 10.4839V14.4993L3.97438 16.507L0.1875 14.4993V10.4839L3.97355 8.47614Z" fill="white"/>
<path fill-rule="evenodd" clip-rule="evenodd" d="M16.8881 2.5289L20.2138 4.29222V7.75547L16.8881 9.51962L13.5625 7.75547V4.29222L16.8881 2.5289ZM8.44356 2.5289L11.7692 4.29222V7.75547L8.44356 9.51962L5.11877 7.75547V4.29222L8.44356 2.5289Z" fill="white"/>
</svg>
