<svg xmlns="http://www.w3.org/2000/svg" viewBox="0 0 24 25">
  <mask id="a" width="16" height="23" x="4" y="1" maskUnits="userSpaceOnUse" style="mask-type:luminance">
    <path fill="#fff" d="M4.546 1.17H19.68v22.7H4.546V1.17Z"/>
  </mask>
  <g mask="url(#a)">
    <mask id="b" width="5" height="5" x="9" y="13" maskUnits="userSpaceOnUse" style="mask-type:luminance">
      <path fill="#fff" d="M9.96 13.316h3.953v4.314H9.96v-4.314Z" opacity=".48"/>
    </mask>
    <g mask="url(#b)" opacity=".48">
      <path fill="#231F20" d="m10.344 15.014 1.593 2.087 1.592-2.087-.793-1.377h-1.599l-.793 1.377Zm1.593 2.616L9.96 15.038l.992-1.722h1.97l.991 1.722-1.976 2.592Z"/>
      <path fill="url(#c)" d="m10.454 15.006.736-1.277h1.494l.735 1.277-1.482 1.944-1.483-1.944Z"/>
      <mask id="d" width="2" height="3" x="11" y="14" maskUnits="userSpaceOnUse" style="mask-type:luminance">
        <path fill="#fff" d="M11.003 14.187h1.868v2.008h-1.868v-2.008Z" opacity=".57"/>
      </mask>
      <g mask="url(#d)" opacity=".57">
        <mask id="e" width="2" height="3" x="11" y="14" maskUnits="userSpaceOnUse" style="mask-type:luminance">
          <path fill="#fff" d="m11.003 14.97.451-.783h.966l.45.783-.933 1.225-.934-1.225Z"/>
        </mask>
        <g mask="url(#e)">
          <path fill="url(#f)" d="m11.003 14.97.451-.783h.966l.45.783-.933 1.225-.934-1.225Z"/>
        </g>
      </g>
      <path fill="#231F20" d="m12.485 14.249-.193-.123.348-.55.193.122-.348.551Zm-1.13-.004-.317-.55.198-.115.317.55-.198.115Z"/>
      <path fill="#231F20" d="m11.14 14.962.797 1.044.796-1.044-.38-.66h-.833l-.38.66Zm.797 1.422-1.071-1.404.522-.907h1.098l.522.907-1.071 1.404Z"/>
      <path fill="#231F20" d="m13.522 15.128-.659-.043.015-.229.659.043-.015.229Zm-3.17 0-.015-.229.659-.043.014.23-.658.042Zm1.7 2.135h-.23v-1.068h.23v1.068Z"/>
    </g>
    <mask id="h" width="11" height="15" x="6" y="8" maskUnits="userSpaceOnUse" style="mask-type:luminance">
      <mask id="g" width="11" height="15" x="6" y="8" maskUnits="userSpaceOnUse" style="mask-type:luminance">
        <path fill="#fff" d="M6.95 8.515h9.956v14.217H6.949V8.515Z"/>
      </mask>
      <g mask="url(#g)">
        <path fill="#000" d="M6.95 8.515h9.956v14.217H6.949V8.515Z"/>
      </g>
    </mask>
    <g mask="url(#h)">
      <mask id="i" width="11" height="15" x="6" y="8" maskUnits="userSpaceOnUse" style="mask-type:luminance">
        <path fill="#fff" d="M6.95 8.515h9.956v14.217H6.949V8.515Z"/>
      </mask>
      <g mask="url(#i)">
        <path fill="#95969B" d="M16.39 11.303h-1.237l.002-.034v-.964a.516.516 0 0 0-.515-.516h-.893V8.515h-3.64V9.79h-.892a.516.516 0 0 0-.515.516v.964l.002.034H7.464a.516.516 0 0 0-.515.517v.31c0 .285.23.516.515.516h.949a6.244 6.244 0 0 0-.59 2.685c0 1.266.358 2.426.952 3.328v.734h-.102c-.364 0-.66.231-.66.516v2.307c0 .285.296.516.66.516h6.509c.364 0 .66-.231.66-.516V19.91c0-.285-.296-.516-.66-.516h-.365v-.371c.75-.942 1.215-2.248 1.215-3.691 0-.983-.216-1.901-.59-2.685h.949a.516.516 0 0 0 .515-.516v-.31a.516.516 0 0 0-.515-.517Z"/>
      </g>
    </g>
    <mask id="j" width="11" height="15" x="6" y="8" maskUnits="userSpaceOnUse" style="mask-type:luminance">
      <path fill="#fff" d="M6.95 8.515h9.956v14.217H6.949V8.515Z"/>
    </mask>
    <g mask="url(#j)">
      <path fill="#6C6C71" d="M16.39 11.303h-1.237l.002-.034v-.964a.516.516 0 0 0-.515-.516h-.893V8.515h-3.64V9.79h-.892a.516.516 0 0 0-.515.516v.964l.002.034H7.464a.516.516 0 0 0-.515.517v.31c0 .285.23.516.515.516h.949a6.244 6.244 0 0 0-.59 2.685c0 1.266.358 2.426.952 3.328v.734h-.102c-.364 0-.66.231-.66.516v2.307c0 .285.296.516.66.516h6.509c.364 0 .66-.231.66-.516V19.91c0-.285-.296-.516-.66-.516h-.365v-.371c.75-.942 1.215-2.248 1.215-3.691 0-.983-.216-1.901-.59-2.685h.949a.516.516 0 0 0 .515-.516v-.31a.516.516 0 0 0-.515-.517Z" opacity=".77"/>
    </g>
    <path fill="#C51F36" d="M9.384 13.06a4.35 4.35 0 0 0-.232 1.41c0 1.93 1.215 3.494 2.713 3.494s2.712-1.564 2.712-3.493c0-.503-.083-.98-.231-1.412H9.384Z"/>
  </g>
  <mask id="k" width="6" height="5" x="9" y="13" maskUnits="userSpaceOnUse" style="mask-type:luminance">
    <path fill="#fff" d="M9.384 13.06a4.35 4.35 0 0 0-.232 1.41c0 1.93 1.215 3.494 2.713 3.494s2.712-1.564 2.712-3.494c0-.502-.083-.98-.231-1.41H9.384Z"/>
  </mask>
  <g mask="url(#k)">
    <path fill="url(#l)" d="M9.384 13.06a4.35 4.35 0 0 0-.232 1.41c0 1.93 1.215 3.494 2.713 3.494s2.712-1.564 2.712-3.494c0-.502-.083-.98-.231-1.41H9.384Z"/>
  </g>
  <mask id="m" width="16" height="23" x="4" y="1" maskUnits="userSpaceOnUse" style="mask-type:luminance">
    <path fill="#fff" d="M4.546 1.17H19.68v22.7H4.546V1.17Z"/>
  </mask>
  <g mask="url(#m)">
    <path fill="#231F20" d="M9.41 22.08c0 .056-.054.101-.12.101-.067 0-.12-.045-.12-.1v-1.985c0-.056.053-.1.12-.1.066 0 .12.044.12.1v1.985Zm1.081 0c0 .056-.053.101-.12.101-.066 0-.12-.045-.12-.1v-1.985c0-.056.054-.1.12-.1s.12.044.12.1v1.985Zm1.082 0c0 .056-.054.101-.12.101-.067 0-.12-.045-.12-.1v-1.985c0-.056.053-.1.12-.1.066 0 .12.044.12.1v1.985Zm1.081 0c0 .056-.053.101-.12.101-.066 0-.12-.045-.12-.1v-1.985c0-.056.054-.1.12-.1.067 0 .12.044.12.1v1.985Zm1.082 0c0 .056-.054.101-.12.101-.067 0-.12-.045-.12-.1v-1.985c0-.056.053-.1.12-.1.066 0 .12.044.12.1v1.985Zm1.081 0c0 .056-.054.101-.12.101s-.12-.045-.12-.1v-1.985c0-.056.054-.1.12-.1s.12.044.12.1v1.985Zm-4.44-7.004 1.56 2.045 1.56-2.045-.776-1.35h-1.568l-.777 1.35Zm1.56 2.563L10 15.1l.972-1.688h1.93l.972 1.688-1.937 2.54Z"/>
  </g>
  <mask id="n" width="4" height="4" x="10" y="13" maskUnits="userSpaceOnUse" style="mask-type:luminance">
    <path fill="#fff" d="m11.205 13.817-.72 1.252 1.452 1.905 1.453-1.905-.721-1.252h-1.464Z"/>
  </mask>
  <g mask="url(#n)">
    <path fill="url(#o)" d="m11.205 13.817-.72 1.252 1.452 1.905 1.453-1.905-.721-1.252h-1.464Z"/>
  </g>
  <mask id="p" width="16" height="23" x="4" y="1" maskUnits="userSpaceOnUse" style="mask-type:luminance">
    <path fill="#fff" d="M4.546 1.17H19.68v22.7H4.546V1.17Z"/>
  </mask>
  <g mask="url(#p)">
    <mask id="q" width="2" height="3" x="11" y="14" maskUnits="userSpaceOnUse" style="mask-type:luminance">
      <path fill="#fff" d="M11.022 14.266h1.83v1.967h-1.83v-1.967Z" opacity=".57"/>
    </mask>
    <g mask="url(#q)" opacity=".57">
      <mask id="r" width="2" height="3" x="11" y="14" maskUnits="userSpaceOnUse" style="mask-type:luminance">
        <path fill="#fff" d="m11.022 15.034.442-.768h.946l.442.768-.915 1.2-.915-1.2Z"/>
      </mask>
      <g mask="url(#r)">
        <path fill="url(#s)" d="m11.022 15.034.442-.768h.946l.442.768-.915 1.2-.915-1.2Z"/>
      </g>
    </g>
    <path fill="#231F20" fill-rule="evenodd" d="m12.626 13.667-.308.487h-.79l-.278-.483-.194.112.278.483-.38.66-.585.037.015.225.585-.038.856 1.121v1.009h.224v-1.01l.856-1.121.585.037.014-.224-.585-.038-.393-.681.29-.457-.19-.12Zm-1.47 1.358.78 1.023.782-1.023-.373-.647h-.817l-.372.647Z" clip-rule="evenodd"/>
    <mask id="t" width="6" height="4" x="9" y="12" maskUnits="userSpaceOnUse" style="mask-type:luminance">
      <path fill="#fff" d="M9.531 12.897h4.811v2.78H9.531v-2.78Z"/>
    </mask>
    <g mask="url(#t)">
      <path fill="#F47D55" d="M11.937 13.634c1.203 0 2.2.886 2.377 2.043a2.409 2.409 0 0 0-2.378-2.78 2.409 2.409 0 0 0-2.377 2.78 2.408 2.408 0 0 1 2.378-2.043Z" opacity=".38"/>
    </g>
    <path fill="#fff" fill-rule="evenodd" d="m7.994 13.276.06-.183h1.092a3.93 3.93 0 0 0-.356 1.645c0 .649.153 1.257.42 1.78H7.776a6.655 6.655 0 0 1 .218-3.242Zm1.9 4.172H8.016c.12.355.272.694.452 1.009h6.918c.183-.318.335-.656.457-1.009h-1.92c-.545.526-1.248.843-2.016.843-.767 0-1.47-.317-2.015-.843Zm2.837 0a2.108 2.108 0 0 1-1.646 0h1.646Zm1.096-.93H9.99a3.197 3.197 0 0 1-.525-1.78c0-.611.163-1.178.44-1.645h4.008c.277.467.44 1.034.44 1.645 0 .672-.196 1.29-.525 1.78Zm.779 0h1.477a6.78 6.78 0 0 0 .103-1.187c0-.71-.11-1.401-.325-2.055l-.06-.183h-1.13c.227.492.355 1.052.355 1.645 0 .649-.153 1.257-.42 1.78Zm.703-6.213v.706H8.546v-.706c0-.37.3-.671.67-.671h.737V8.36h3.949v1.274h.738c.369 0 .67.301.67.671Zm-9.217 1.29a7.738 7.738 0 0 1-.044-.08.928.928 0 0 0 .021 1.538c.054-.088.112-.175.172-.26a1.389 1.389 0 0 1-.167-.663v-.31c0-.077.006-.152.018-.225Zm-1.369.682c0-.691.379-1.295.938-1.616a6.744 6.744 0 0 1-.42-2.352c0-3.73 3.026-6.765 6.746-6.765 3.72 0 6.746 3.035 6.746 6.765 0 .857-.16 1.677-.451 2.433a1.86 1.86 0 0 1-.133 3.153 5.018 5.018 0 0 1-1.489 5.641c.037.12.057.245.057.373v2.307c0 .768-.689 1.394-1.535 1.394H8.673c-.846 0-1.535-.625-1.535-1.394v-2.307c0-.116.016-.23.047-.34a5.017 5.017 0 0 1-1.529-5.68 1.86 1.86 0 0 1-.933-1.612Zm13.062-.515.091-.157a.926.926 0 0 1-.138 1.453 4.96 4.96 0 0 0-.147-.225c.121-.207.19-.447.19-.703v-.368h.004Zm-.51-1.018a5.81 5.81 0 0 0 .531-2.435c0-3.218-2.61-5.835-5.82-5.835-3.208 0-5.819 2.617-5.819 5.835 0 .842.18 1.644.502 2.368.225-.158.5-.251.795-.251h.36v-.12c0-.77.625-1.395 1.391-1.395h.018V7.637h5.39v1.274h.017c.767 0 1.39.625 1.39 1.394v.12h.36c.336 0 .644.12.884.319Zm-10.23 5.775a7.372 7.372 0 0 1 .134-3.025 1.372 1.372 0 0 1-.243-.075 4.076 4.076 0 0 0-.592 3.1h.7Zm-.386.929h.6c.14.461.325.901.551 1.308a1.576 1.576 0 0 0-.084.057 4.043 4.043 0 0 1-1.067-1.365Zm9.942 0h.544a4.042 4.042 0 0 1-1.044 1.346 1.372 1.372 0 0 0-.055-.036c.23-.411.416-.85.555-1.31Zm.859-.93h-.646a7.53 7.53 0 0 0-.137-3.024c.069-.014.136-.034.201-.059.615.933.8 2.047.582 3.084Zm-9.6 3.391a.64.64 0 0 1 .306-.523h7.523c.189.126.307.319.307.523v2.307c0 .37-.365.671-.814.671H8.673c-.449 0-.814-.301-.814-.671v-2.307Zm3.398-10.347a.29.29 0 1 1-.579 0 .29.29 0 0 1 .579 0Zm.963 0a.29.29 0 1 1-.579 0 .29.29 0 0 1 .579 0Zm.963 0a.29.29 0 1 1-.579 0 .29.29 0 0 1 .579 0Zm-5.771 2.596a.213.213 0 0 0 .051.006h8.927a.23.23 0 0 0 .051-.006v-.212a.213.213 0 0 0-.051-.006H7.464a.214.214 0 0 0-.051.006v.212Z" clip-rule="evenodd"/>
  </g>
  <defs>
    <radialGradient id="c" cx="0" cy="0" r="1" gradientTransform="matrix(1.54575 0 0 1.54981 11.937 15.34)" gradientUnits="userSpaceOnUse">
      <stop stop-color="#EC1E4B"/>
      <stop offset=".41" stop-color="#EC1E4B"/>
      <stop offset=".945" stop-color="#9D1C29"/>
      <stop offset="1" stop-color="#9D1C29"/>
    </radialGradient>
    <radialGradient id="f" cx="0" cy="0" r="1" gradientTransform="matrix(.96806 0 0 .9706 11.937 15.19)" gradientUnits="userSpaceOnUse">
      <stop stop-color="#771117"/>
      <stop offset="1" stop-color="#F18051"/>
    </radialGradient>
    <radialGradient id="l" cx="0" cy="0" r="1" gradientTransform="matrix(2.58271 0 0 2.5895 11.865 15.512)" gradientUnits="userSpaceOnUse">
      <stop stop-color="#F5865C"/>
      <stop offset=".41" stop-color="#F5865C"/>
      <stop offset=".945" stop-color="#C51F36"/>
      <stop offset="1" stop-color="#C51F36"/>
    </radialGradient>
    <radialGradient id="o" cx="0" cy="0" r="1" gradientTransform="matrix(1.51471 0 0 1.5187 11.937 15.395)" gradientUnits="userSpaceOnUse">
      <stop stop-color="#EC1E4B"/>
      <stop offset=".41" stop-color="#EC1E4B"/>
      <stop offset=".945" stop-color="#9D1C29"/>
      <stop offset="1" stop-color="#9D1C29"/>
    </radialGradient>
    <radialGradient id="s" cx="0" cy="0" r="1" gradientTransform="matrix(.94868 0 0 .95118 11.937 15.25)" gradientUnits="userSpaceOnUse">
      <stop stop-color="#771117"/>
      <stop offset="1" stop-color="#F18051"/>
    </radialGradient>
  </defs>
</svg>
