<svg xmlns="http://www.w3.org/2000/svg" xmlns:xlink="http://www.w3.org/1999/xlink" viewBox="0 0 168 56" fill="currentColor" xmlns:v="https://vecta.io/nano"><path fill-rule="evenodd" d="M49.033 16.826a6.34 6.34 0 0 1 3.217 5.573l-.096 11.168a6.34 6.34 0 0 1-3.171 5.437L38.98 44.778a6.34 6.34 0 0 1-6.294.026l-9.719-5.503a6.34 6.34 0 0 1-3.217-5.573l.096-11.168a6.34 6.34 0 0 1 3.171-5.437l10.003-5.773a6.34 6.34 0 0 1 6.294-.026l9.719 5.503zm-3.536 8.671c-.526 1.982-2.537 3.172-4.502 2.676l-9.361-2.532a5.87 5.87 0 0 0-4.525.6c-1.379.803-2.364 2.099-2.777 3.656s-.202 3.182.599 4.581 2.089 2.396 3.631 2.814a5.87 5.87 0 0 0 4.525-.6c1.379-.804 2.365-2.099 2.777-3.656l.326-1.308c.041-.165-.057-.333-.222-.377l-1.572-.426c-.169-.046-.343.056-.385.226l-.319 1.28c-.532 2.003-2.581 3.196-4.564 2.66-1.978-.536-3.154-2.591-2.624-4.588.526-1.982 2.537-3.173 4.503-2.677l9.361 2.533a5.87 5.87 0 0 0 4.525-.6c1.379-.803 2.364-2.099 2.777-3.656s.202-3.182-.599-4.581-2.089-2.396-3.631-2.814a5.87 5.87 0 0 0-4.525.6c-1.379.803-2.365 2.099-2.777 3.656l-.309 1.034c-.05.168.048.345.218.391l1.573.426c.163.044.333-.05.381-.212l.309-1.034c.532-2.003 2.581-3.196 4.564-2.66 1.978.535 3.154 2.591 2.624 4.588z" fill="url(#A)"/><g fill="#000"><path d="M69.719 19.254c-.313-2.262-2.053-3.575-4.31-3.575-2.66 0-4.663 1.939-4.663 5.23s1.979 5.23 4.663 5.23c2.421 0 4.027-1.566 4.31-3.51l-1.859-.01c-.234 1.193-1.208 1.864-2.426 1.864-1.65 0-2.834-1.238-2.834-3.575 0-2.297 1.173-3.575 2.839-3.575 1.238 0 2.207.701 2.421 1.919h1.859zm4.941 6.895c2.237 0 3.659-1.576 3.659-3.937s-1.422-3.947-3.659-3.947-3.659 1.581-3.659 3.947 1.422 3.938 3.659 3.938zm.01-1.442c-1.238 0-1.844-1.104-1.844-2.501s.607-2.516 1.844-2.516c1.218 0 1.825 1.119 1.825 2.516s-.606 2.501-1.825 2.501zm6.976-3.181c0-1.104.666-1.74 1.616-1.74.93 0 1.486.611 1.486 1.631V26h1.8v-4.862c.005-1.83-1.039-2.874-2.615-2.874-1.143 0-1.929.547-2.277 1.397h-.09v-1.298h-1.72V26h1.8v-4.474zm10.545-3.162h-1.506v-1.83h-1.8v1.83h-1.084v1.392h1.084v4.246c-.01 1.437 1.034 2.143 2.386 2.103a3.61 3.61 0 0 0 1.059-.179l-.303-1.407a2.25 2.25 0 0 1-.527.07c-.452 0-.815-.159-.815-.885v-3.947h1.506v-1.392zM93.696 26h1.8v-7.636h-1.8V26zm.905-8.72c.572 0 1.039-.437 1.039-.974s-.467-.979-1.039-.979-1.044.438-1.044.979.467.974 1.044.974zm4.545 4.246c0-1.104.666-1.74 1.616-1.74.93 0 1.487.611 1.487 1.631V26h1.799v-4.862c.005-1.83-1.039-2.874-2.615-2.874-1.143 0-1.929.547-2.277 1.397h-.09v-1.298h-1.72V26h1.8v-4.474z"/><use xlink:href="#B"/><path d="M117.726 26.149c2.238 0 3.659-1.576 3.659-3.937s-1.421-3.947-3.659-3.947-3.659 1.581-3.659 3.947 1.422 3.938 3.659 3.938zm.01-1.442c-1.238 0-1.844-1.104-1.844-2.501s.606-2.516 1.844-2.516c1.218 0 1.825 1.119 1.825 2.516s-.607 2.501-1.825 2.501z"/><use xlink:href="#B" x="17.035"/><path d="M137.466 20.382c-.248-1.293-1.283-2.118-3.072-2.118-1.84 0-3.093.905-3.088 2.317-.005 1.114.681 1.849 2.148 2.153l1.303.273c.701.154 1.029.438 1.029.87 0 .522-.567.915-1.422.915-.825 0-1.362-.358-1.517-1.044l-1.755.169c.224 1.402 1.402 2.232 3.277 2.232 1.909 0 3.256-.989 3.261-2.436-.005-1.089-.706-1.755-2.148-2.068l-1.302-.278c-.776-.174-1.084-.442-1.079-.885-.005-.517.567-.875 1.317-.875.831 0 1.268.452 1.407.955l1.641-.179zM64.454 41c3.102 0 4.942-1.919 4.942-5.101 0-3.172-1.84-5.081-4.872-5.081h-3.52V41h3.45zm-1.606-1.596v-6.99h1.571c2.068 0 3.147 1.153 3.147 3.485 0 2.342-1.079 3.505-3.202 3.505h-1.516zm11.602 1.745c1.78 0 3.003-.87 3.321-2.197l-1.68-.189c-.244.646-.84.984-1.616.984-1.163 0-1.934-.766-1.949-2.073h5.32v-.552c0-2.68-1.611-3.858-3.49-3.858-2.187 0-3.614 1.606-3.614 3.962 0 2.396 1.407 3.922 3.709 3.922zm-1.919-4.688c.055-.974.776-1.795 1.849-1.795 1.034 0 1.73.756 1.74 1.795h-3.59zm8.637-5.643h-1.8V41h1.8V30.818zM83.019 41h1.8v-7.636h-1.8V41zm.905-8.72c.572 0 1.039-.437 1.039-.974s-.467-.979-1.039-.979-1.044.438-1.044.979.467.974 1.044.974zm9.566 1.084h-1.914l-1.76 5.673h-.08l-1.755-5.673h-1.919L88.782 41h1.989l2.72-7.636zm4.366 7.785c1.78 0 3.003-.87 3.321-2.197l-1.68-.189c-.244.646-.84.984-1.616.984-1.163 0-1.934-.766-1.949-2.073h5.32v-.552c0-2.68-1.611-3.858-3.49-3.858-2.187 0-3.614 1.606-3.614 3.962 0 2.396 1.407 3.922 3.709 3.922zm-1.919-4.688c.055-.974.776-1.795 1.85-1.795 1.034 0 1.73.756 1.74 1.795h-3.59zM102.774 41h1.8v-4.489c0-.969.731-1.656 1.72-1.656a3.44 3.44 0 0 1 .835.104v-1.655a4.29 4.29 0 0 0-.646-.05c-.875 0-1.606.497-1.884 1.382h-.08v-1.273h-1.745V41zm6.902 2.864c1.402 0 2.212-.721 2.645-1.939l3.067-8.551-1.924-.01-1.764 5.767h-.08l-1.76-5.767h-1.909l2.769 7.796-.154.413c-.333.87-.86.93-1.646.701l-.417 1.402c.243.099.681.189 1.173.189z"/></g><defs><linearGradient id="A" x1="24.467" y1="10.5" x2="42.875" y2="45.5" gradientUnits="userSpaceOnUse"><stop stop-color="#62f91f"/><stop offset="1" stop-color="#45bd35"/></linearGradient><path id="B" d="M110.745 22.788c0 1.163-.83 1.74-1.626 1.74-.865 0-1.441-.612-1.441-1.581v-4.584h-1.8v4.862c0 1.835 1.044 2.874 2.545 2.874 1.144 0 1.949-.601 2.297-1.457h.08V26h1.745v-7.636h-1.8v4.425z"/></defs></svg>