<svg viewBox="0 0 173 56" xmlns="http://www.w3.org/2000/svg">
<path d="M60.7193 19.1036H58.86C58.8069 18.7987 58.7091 18.5285 58.5666 18.2932C58.4241 18.0546 58.2468 17.8524 58.0347 17.6867C57.8225 17.521 57.5806 17.3967 57.3088 17.3138C57.0403 17.2276 56.7503 17.1845 56.4388 17.1845C55.8853 17.1845 55.3948 17.3238 54.9672 17.6022C54.5396 17.8773 54.2049 18.2816 53.9629 18.8152C53.721 19.3455 53.6 19.9935 53.6 20.7591C53.6 21.538 53.721 22.1943 53.9629 22.7279C54.2082 23.2582 54.543 23.6592 54.9672 23.931C55.3948 24.1995 55.8836 24.3337 56.4338 24.3337C56.7387 24.3337 57.0238 24.2939 57.2889 24.2144C57.5574 24.1315 57.7977 24.0105 58.0098 23.8515C58.2252 23.6924 58.4059 23.4968 58.5517 23.2648C58.7009 23.0328 58.8036 22.7676 58.86 22.4693L60.7193 22.4793C60.6497 22.9632 60.4989 23.4173 60.2669 23.8415C60.0382 24.2658 59.7383 24.6403 59.3671 24.9651C58.9958 25.2866 58.5617 25.5385 58.0645 25.7208C57.5673 25.8997 57.0155 25.9892 56.409 25.9892C55.5141 25.9892 54.7153 25.7821 54.0127 25.3678C53.31 24.9535 52.7565 24.3552 52.3521 23.573C51.9478 22.7908 51.7456 21.8529 51.7456 20.7591C51.7456 19.6621 51.9494 18.7241 52.3571 17.9452C52.7648 17.163 53.3199 16.5648 54.0226 16.1505C54.7252 15.7362 55.5207 15.529 56.409 15.529C56.9757 15.529 57.5027 15.6086 57.9899 15.7676C58.4771 15.9267 58.9113 16.1604 59.2925 16.4686C59.6736 16.7736 59.9868 17.1481 60.2321 17.5922C60.4807 18.033 60.6431 18.5368 60.7193 19.1036Z" fill="white"/>
<path d="M65.6598 25.9992C64.9141 25.9992 64.2678 25.8351 63.7209 25.507C63.174 25.1789 62.7498 24.7198 62.4482 24.1299C62.1499 23.5399 62.0008 22.8505 62.0008 22.0617C62.0008 21.2729 62.1499 20.5818 62.4482 19.9885C62.7498 19.3952 63.174 18.9345 63.7209 18.6064C64.2678 18.2783 64.9141 18.1142 65.6598 18.1142C66.4056 18.1142 67.0519 18.2783 67.5988 18.6064C68.1456 18.9345 68.5682 19.3952 68.8665 19.9885C69.1681 20.5818 69.3189 21.2729 69.3189 22.0617C69.3189 22.8505 69.1681 23.5399 68.8665 24.1299C68.5682 24.7198 68.1456 25.1789 67.5988 25.507C67.0519 25.8351 66.4056 25.9992 65.6598 25.9992ZM65.6698 24.5574C66.0741 24.5574 66.4122 24.4464 66.684 24.2243C66.9558 23.9989 67.158 23.6973 67.2905 23.3195C67.4264 22.9417 67.4944 22.5207 67.4944 22.0567C67.4944 21.5894 67.4264 21.1668 67.2905 20.789C67.158 20.4078 66.9558 20.1045 66.684 19.8792C66.4122 19.6538 66.0741 19.5411 65.6698 19.5411C65.2555 19.5411 64.9108 19.6538 64.6357 19.8792C64.3639 20.1045 64.1601 20.4078 64.0242 20.789C63.8916 21.1668 63.8253 21.5894 63.8253 22.0567C63.8253 22.5207 63.8916 22.9417 64.0242 23.3195C64.1601 23.6973 64.3639 23.9989 64.6357 24.2243C64.9108 24.4464 65.2555 24.5574 65.6698 24.5574Z" fill="white"/>
<path d="M72.6462 21.3756V25.85H70.8465V18.2137H72.5666V19.5113H72.6561C72.8318 19.0837 73.1118 18.744 73.4963 18.4921C73.8841 18.2402 74.363 18.1142 74.9331 18.1142C75.4601 18.1142 75.9191 18.2269 76.3102 18.4523C76.7046 18.6777 77.0096 19.0042 77.225 19.4317C77.4438 19.8593 77.5515 20.378 77.5482 20.9878V25.85H75.7484V21.2662C75.7484 20.7558 75.6159 20.3564 75.3507 20.0681C75.0889 19.7797 74.726 19.6355 74.2619 19.6355C73.9471 19.6355 73.667 19.7051 73.4217 19.8443C73.1798 19.9802 72.9892 20.1774 72.85 20.436C72.7141 20.6945 72.6462 21.0077 72.6462 21.3756Z" fill="white"/>
<path d="M83.1909 18.2137V19.6057H78.801V18.2137H83.1909ZM79.8848 16.3841H81.6845V23.5532C81.6845 23.7951 81.721 23.9807 81.7939 24.11C81.8701 24.2359 81.9696 24.3221 82.0922 24.3685C82.2148 24.4149 82.3507 24.4381 82.4999 24.4381C82.6126 24.4381 82.7153 24.4298 82.8081 24.4132C82.9042 24.3967 82.9771 24.3818 83.0269 24.3685L83.3301 25.7755C83.234 25.8086 83.0965 25.8451 82.9175 25.8848C82.7418 25.9246 82.5264 25.9478 82.2712 25.9544C81.8204 25.9677 81.4144 25.8997 81.0531 25.7506C80.6919 25.5981 80.4052 25.3628 80.193 25.0446C79.9842 24.7265 79.8815 24.3287 79.8848 23.8515V16.3841Z" fill="white"/>
<path d="M84.6961 25.85V18.2137H86.4958V25.85H84.6961ZM85.6009 17.1299C85.3159 17.1299 85.0706 17.0354 84.8651 16.8465C84.6596 16.6542 84.5569 16.4239 84.5569 16.1554C84.5569 15.8836 84.6596 15.6533 84.8651 15.4644C85.0706 15.2721 85.3159 15.176 85.6009 15.176C85.8892 15.176 86.1345 15.2721 86.3367 15.4644C86.5422 15.6533 86.6449 15.8836 86.6449 16.1554C86.6449 16.4239 86.5422 16.6542 86.3367 16.8465C86.1345 17.0354 85.8892 17.1299 85.6009 17.1299Z" fill="white"/>
<path d="M90.1462 21.3756V25.85H88.3465V18.2137H90.0666V19.5113H90.1561C90.3318 19.0837 90.6118 18.744 90.9963 18.4921C91.3841 18.2402 91.863 18.1142 92.4331 18.1142C92.9601 18.1142 93.4191 18.2269 93.8102 18.4523C94.2046 18.6777 94.5096 19.0042 94.725 19.4317C94.9438 19.8593 95.0515 20.378 95.0482 20.9878V25.85H93.2484V21.2662C93.2484 20.7558 93.1159 20.3564 92.8507 20.0681C92.5889 19.7797 92.226 19.6355 91.7619 19.6355C91.4471 19.6355 91.167 19.7051 90.9217 19.8443C90.6798 19.9802 90.4892 20.1774 90.35 20.436C90.2141 20.6945 90.1462 21.0077 90.1462 21.3756Z" fill="white"/>
<path d="M101.745 22.6384V18.2137H103.545V25.85H101.8V24.4928H101.72C101.548 24.9203 101.264 25.27 100.87 25.5418C100.479 25.8136 99.9966 25.9495 99.4232 25.9495C98.9227 25.9495 98.4802 25.8384 98.0957 25.6164C97.7146 25.391 97.4163 25.0645 97.2009 24.637C96.9854 24.2061 96.8777 23.6857 96.8777 23.0759V18.2137H98.6774V22.7975C98.6774 23.2814 98.81 23.6658 99.0751 23.9509C99.3403 24.2359 99.6883 24.3784 100.119 24.3784C100.384 24.3784 100.641 24.3138 100.89 24.1845C101.138 24.0553 101.342 23.8631 101.501 23.6078C101.664 23.3493 101.745 23.0262 101.745 22.6384Z" fill="white"/>
<path d="M108.726 25.9992C107.981 25.9992 107.334 25.8351 106.787 25.507C106.24 25.1789 105.816 24.7198 105.515 24.1299C105.216 23.5399 105.067 22.8505 105.067 22.0617C105.067 21.2729 105.216 20.5818 105.515 19.9885C105.816 19.3952 106.24 18.9345 106.787 18.6064C107.334 18.2783 107.981 18.1142 108.726 18.1142C109.472 18.1142 110.118 18.2783 110.665 18.6064C111.212 18.9345 111.635 19.3952 111.933 19.9885C112.235 20.5818 112.385 21.2729 112.385 22.0617C112.385 22.8505 112.235 23.5399 111.933 24.1299C111.635 24.7198 111.212 25.1789 110.665 25.507C110.118 25.8351 109.472 25.9992 108.726 25.9992ZM108.736 24.5574C109.141 24.5574 109.479 24.4464 109.75 24.2243C110.022 23.9989 110.224 23.6973 110.357 23.3195C110.493 22.9417 110.561 22.5207 110.561 22.0567C110.561 21.5894 110.493 21.1668 110.357 20.789C110.224 20.4078 110.022 20.1045 109.75 19.8792C109.479 19.6538 109.141 19.5411 108.736 19.5411C108.322 19.5411 107.977 19.6538 107.702 19.8792C107.43 20.1045 107.226 20.4078 107.091 20.789C106.958 21.1668 106.892 21.5894 106.892 22.0567C106.892 22.5207 106.958 22.9417 107.091 23.3195C107.226 23.6973 107.43 23.9989 107.702 24.2243C107.977 24.4464 108.322 24.5574 108.736 24.5574Z" fill="white"/>
<path d="M118.78 22.6384V18.2137H120.58V25.85H118.835V24.4928H118.755C118.583 24.9203 118.299 25.27 117.905 25.5418C117.514 25.8136 117.032 25.9495 116.458 25.9495C115.958 25.9495 115.515 25.8384 115.131 25.6164C114.75 25.391 114.451 25.0645 114.236 24.637C114.021 24.2061 113.913 23.6857 113.913 23.0759V18.2137H115.713V22.7975C115.713 23.2814 115.845 23.6658 116.11 23.9509C116.375 24.2359 116.723 24.3784 117.154 24.3784C117.419 24.3784 117.676 24.3138 117.925 24.1845C118.174 24.0553 118.377 23.8631 118.536 23.6078C118.699 23.3493 118.78 23.0262 118.78 22.6384Z" fill="white"/>
<path d="M128.466 20.2321L126.825 20.4111C126.779 20.2454 126.698 20.0896 126.582 19.9438C126.469 19.7979 126.317 19.6803 126.124 19.5908C125.932 19.5013 125.697 19.4566 125.418 19.4566C125.044 19.4566 124.729 19.5378 124.474 19.7002C124.222 19.8626 124.098 20.073 124.101 20.3316C124.098 20.5536 124.179 20.7343 124.345 20.8735C124.514 21.0127 124.792 21.127 125.18 21.2165L126.482 21.4949C127.205 21.6507 127.742 21.8976 128.093 22.2357C128.448 22.5738 128.627 23.0162 128.63 23.5631C128.627 24.0437 128.486 24.4679 128.207 24.8358C127.932 25.2004 127.55 25.4854 127.059 25.6909C126.568 25.8964 126.005 25.9992 125.369 25.9992C124.434 25.9992 123.682 25.8036 123.112 25.4125C122.541 25.0181 122.202 24.4696 122.092 23.7669L123.847 23.5979C123.927 23.9426 124.096 24.2028 124.354 24.3784C124.613 24.5541 124.949 24.6419 125.364 24.6419C125.791 24.6419 126.134 24.5541 126.393 24.3784C126.655 24.2028 126.786 23.9857 126.786 23.7272C126.786 23.5084 126.701 23.3278 126.532 23.1853C126.366 23.0427 126.108 22.9334 125.756 22.8571L124.454 22.5837C123.721 22.4312 123.179 22.1744 122.828 21.8131C122.477 21.4485 122.303 20.9878 122.306 20.431C122.303 19.9604 122.43 19.5527 122.689 19.208C122.951 18.86 123.314 18.5915 123.778 18.4026C124.245 18.2104 124.784 18.1142 125.394 18.1142C126.288 18.1142 126.993 18.3048 127.506 18.686C128.023 19.0671 128.343 19.5825 128.466 20.2321Z" fill="white"/>
<path d="M52.0041 40.85V30.6682H58.6263V32.2144H53.8486V34.9786H58.2832V36.5247H53.8486V39.3039H58.6661V40.85H52.0041Z" fill="white"/>
<path d="M60.4285 40.85V33.2137H62.1735V34.4864H62.2531C62.3923 34.0456 62.6309 33.7059 62.969 33.4672C63.3104 33.2253 63.6998 33.1043 64.1373 33.1043C64.2367 33.1043 64.3478 33.1093 64.4704 33.1192C64.5963 33.1258 64.7007 33.1374 64.7836 33.154V34.8095C64.7074 34.783 64.5864 34.7598 64.4207 34.7399C64.2583 34.7167 64.1008 34.7051 63.9484 34.7051C63.6202 34.7051 63.3253 34.7764 63.0634 34.9189C62.8049 35.0581 62.6011 35.252 62.4519 35.5006C62.3028 35.7492 62.2282 36.0359 62.2282 36.3607V40.85H60.4285Z" fill="white"/>
<path d="M65.9793 40.85V33.2137H67.7243V34.4864H67.8038C67.943 34.0456 68.1817 33.7059 68.5198 33.4672C68.8611 33.2253 69.2506 33.1043 69.6881 33.1043C69.7875 33.1043 69.8985 33.1093 70.0212 33.1192C70.1471 33.1258 70.2515 33.1374 70.3344 33.154V34.8095C70.2582 34.783 70.1372 34.7598 69.9715 34.7399C69.8091 34.7167 69.6516 34.7051 69.4992 34.7051C69.171 34.7051 68.8761 34.7764 68.6142 34.9189C68.3557 35.0581 68.1519 35.252 68.0027 35.5006C67.8536 35.7492 67.779 36.0359 67.779 36.3607V40.85H65.9793Z" fill="white"/>
<path d="M74.5466 40.9992C73.8008 40.9992 73.1545 40.8351 72.6076 40.507C72.0608 40.1789 71.6365 39.7198 71.3349 39.1299C71.0366 38.5399 70.8875 37.8505 70.8875 37.0617C70.8875 36.2729 71.0366 35.5818 71.3349 34.9885C71.6365 34.3952 72.0608 33.9345 72.6076 33.6064C73.1545 33.2783 73.8008 33.1142 74.5466 33.1142C75.2923 33.1142 75.9386 33.2783 76.4855 33.6064C77.0324 33.9345 77.4549 34.3952 77.7532 34.9885C78.0549 35.5818 78.2057 36.2729 78.2057 37.0617C78.2057 37.8505 78.0549 38.5399 77.7532 39.1299C77.4549 39.7198 77.0324 40.1789 76.4855 40.507C75.9386 40.8351 75.2923 40.9992 74.5466 40.9992ZM74.5565 39.5574C74.9609 39.5574 75.2989 39.4464 75.5707 39.2243C75.8425 38.9989 76.0447 38.6973 76.1772 38.3195C76.3131 37.9417 76.3811 37.5207 76.3811 37.0567C76.3811 36.5894 76.3131 36.1668 76.1772 35.789C76.0447 35.4078 75.8425 35.1045 75.5707 34.8792C75.2989 34.6538 74.9609 34.5411 74.5565 34.5411C74.1422 34.5411 73.7975 34.6538 73.5224 34.8792C73.2506 35.1045 73.0468 35.4078 72.9109 35.789C72.7783 36.1668 72.712 36.5894 72.712 37.0567C72.712 37.5207 72.7783 37.9417 72.9109 38.3195C73.0468 38.6973 73.2506 38.9989 73.5224 39.2243C73.7975 39.4464 74.1422 39.5574 74.5565 39.5574Z" fill="white"/>
<path d="M79.7332 40.85V33.2137H81.4782V34.4864H81.5578C81.697 34.0456 81.9356 33.7059 82.2737 33.4672C82.615 33.2253 83.0045 33.1043 83.442 33.1043C83.5414 33.1043 83.6524 33.1093 83.7751 33.1192C83.901 33.1258 84.0054 33.1374 84.0883 33.154V34.8095C84.0121 34.783 83.8911 34.7598 83.7254 34.7399C83.563 34.7167 83.4055 34.7051 83.2531 34.7051C82.9249 34.7051 82.63 34.7764 82.3681 34.9189C82.1096 35.0581 81.9058 35.252 81.7566 35.5006C81.6075 35.7492 81.5329 36.0359 81.5329 36.3607V40.85H79.7332Z" fill="white"/>
<path d="M88.3887 32.2144V30.6682H96.5123V32.2144H93.3653V40.85H91.5357V32.2144H88.3887Z" fill="white"/>
<path d="M97.2058 40.85V33.2137H98.9509V34.4864H99.0304C99.1696 34.0456 99.4082 33.7059 99.7463 33.4672C100.088 33.2253 100.477 33.1043 100.915 33.1043C101.014 33.1043 101.125 33.1093 101.248 33.1192C101.374 33.1258 101.478 33.1374 101.561 33.154V34.8095C101.485 34.783 101.364 34.7598 101.198 34.7399C101.036 34.7167 100.878 34.7051 100.726 34.7051C100.398 34.7051 100.103 34.7764 99.8408 34.9189C99.5823 35.0581 99.3784 35.252 99.2293 35.5006C99.0801 35.7492 99.0055 36.0359 99.0055 36.3607V40.85H97.2058Z" fill="white"/>
<path d="M104.817 41.0042C104.333 41.0042 103.898 40.918 103.51 40.7456C103.125 40.57 102.82 40.3114 102.595 39.9701C102.373 39.6287 102.262 39.2077 102.262 38.7073C102.262 38.2764 102.341 37.9201 102.501 37.6384C102.66 37.3567 102.877 37.1313 103.152 36.9622C103.427 36.7932 103.737 36.6656 104.082 36.5794C104.43 36.4899 104.789 36.4253 105.16 36.3855C105.608 36.3391 105.971 36.2977 106.249 36.2613C106.528 36.2215 106.73 36.1618 106.856 36.0823C106.985 35.9994 107.05 35.8718 107.05 35.6995V35.6696C107.05 35.2951 106.939 35.0051 106.716 34.7996C106.494 34.5941 106.175 34.4914 105.757 34.4914C105.316 34.4914 104.966 34.5875 104.708 34.7797C104.453 34.972 104.28 35.199 104.191 35.4608L102.511 35.2222C102.643 34.7582 102.862 34.3704 103.167 34.0588C103.472 33.744 103.845 33.5086 104.285 33.3529C104.726 33.1938 105.213 33.1142 105.747 33.1142C106.115 33.1142 106.481 33.1573 106.846 33.2435C107.21 33.3297 107.543 33.4722 107.845 33.6711C108.147 33.8666 108.389 34.1334 108.571 34.4715C108.756 34.8095 108.849 35.2321 108.849 35.7392V40.85H107.119V39.801H107.06C106.95 40.0131 106.796 40.212 106.597 40.3976C106.402 40.5799 106.155 40.7274 105.856 40.8401C105.561 40.9495 105.215 41.0042 104.817 41.0042ZM105.285 39.6817C105.646 39.6817 105.959 39.6104 106.224 39.4679C106.489 39.3221 106.693 39.1299 106.836 38.8912C106.982 38.6526 107.055 38.3924 107.055 38.1107V37.2108C106.998 37.2572 106.902 37.3003 106.766 37.3401C106.634 37.3799 106.484 37.4147 106.319 37.4445C106.153 37.4743 105.989 37.5008 105.827 37.524C105.664 37.5472 105.523 37.5671 105.404 37.5837C105.136 37.6202 104.895 37.6798 104.683 37.7627C104.471 37.8455 104.304 37.9615 104.181 38.1107C104.058 38.2565 103.997 38.4454 103.997 38.6774C103.997 39.0089 104.118 39.2591 104.36 39.4282C104.602 39.5972 104.91 39.6817 105.285 39.6817Z" fill="white"/>
<path d="M113.99 40.9992C113.228 40.9992 112.573 40.8318 112.026 40.497C111.483 40.1623 111.063 39.6999 110.768 39.11C110.477 38.5167 110.331 37.8339 110.331 37.0617C110.331 36.2861 110.48 35.6017 110.778 35.0084C111.077 34.4118 111.498 33.9478 112.041 33.6164C112.588 33.2816 113.234 33.1142 113.98 33.1142C114.6 33.1142 115.148 33.2286 115.626 33.4573C116.106 33.6827 116.489 34.0025 116.774 34.4168C117.059 34.8278 117.221 35.3084 117.261 35.8586H115.541C115.471 35.4907 115.306 35.1841 115.044 34.9388C114.785 34.6902 114.439 34.5659 114.005 34.5659C113.637 34.5659 113.314 34.6654 113.035 34.8642C112.757 35.0598 112.54 35.3415 112.384 35.7094C112.232 36.0773 112.155 36.5181 112.155 37.0318C112.155 37.5522 112.232 37.9997 112.384 38.3742C112.537 38.7454 112.75 39.0321 113.025 39.2343C113.304 39.4331 113.63 39.5326 114.005 39.5326C114.27 39.5326 114.507 39.4828 114.716 39.3834C114.928 39.2807 115.105 39.1332 115.248 38.9409C115.39 38.7487 115.488 38.515 115.541 38.2399H117.261C117.218 38.7802 117.059 39.2591 116.784 39.6767C116.509 40.091 116.134 40.4158 115.66 40.6512C115.186 40.8832 114.63 40.9992 113.99 40.9992Z" fill="white"/>
<path d="M120.38 38.4537L120.375 36.2811H120.663L123.407 33.2137H125.51L122.135 36.9722H121.762L120.38 38.4537ZM118.739 40.85V30.6682H120.539V40.85H118.739ZM123.532 40.85L121.046 37.3749L122.259 36.1071L125.684 40.85H123.532Z" fill="white"/>
<path d="M126.71 40.85V33.2137H128.509V40.85H126.71ZM127.615 32.1299C127.33 32.1299 127.084 32.0354 126.879 31.8465C126.673 31.6542 126.571 31.4239 126.571 31.1554C126.571 30.8836 126.673 30.6533 126.879 30.4644C127.084 30.2721 127.33 30.176 127.615 30.176C127.903 30.176 128.148 30.2721 128.35 30.4644C128.556 30.6533 128.659 30.8836 128.659 31.1554C128.659 31.4239 128.556 31.6542 128.35 31.8465C128.148 32.0354 127.903 32.1299 127.615 32.1299Z" fill="white"/>
<path d="M132.16 36.3756V40.85H130.36V33.2137H132.08V34.5113H132.17C132.345 34.0837 132.626 33.744 133.01 33.4921C133.398 33.2402 133.877 33.1142 134.447 33.1142C134.974 33.1142 135.433 33.2269 135.824 33.4523C136.218 33.6777 136.523 34.0042 136.739 34.4317C136.957 34.8593 137.065 35.378 137.062 35.9878V40.85H135.262V36.2662C135.262 35.7558 135.13 35.3564 134.864 35.0681C134.603 34.7797 134.24 34.6355 133.776 34.6355C133.461 34.6355 133.181 34.7051 132.935 34.8443C132.693 34.9802 132.503 35.1774 132.364 35.436C132.228 35.6945 132.16 36.0077 132.16 36.3756Z" fill="white"/>
<path d="M142.212 43.8728C141.566 43.8728 141.011 43.7849 140.547 43.6093C140.083 43.4369 139.71 43.2049 139.428 42.9132C139.147 42.6216 138.951 42.2984 138.842 41.9438L140.462 41.551C140.535 41.7002 140.641 41.8477 140.781 41.9935C140.92 42.1426 141.107 42.2653 141.342 42.3614C141.581 42.4608 141.881 42.5105 142.242 42.5105C142.753 42.5105 143.175 42.3863 143.51 42.1377C143.845 41.8924 144.012 41.4881 144.012 40.9246V39.4779H143.923C143.83 39.6635 143.694 39.8541 143.515 40.0496C143.339 40.2452 143.106 40.4092 142.814 40.5418C142.526 40.6744 142.163 40.7407 141.725 40.7407C141.139 40.7407 140.607 40.6031 140.129 40.328C139.655 40.0496 139.278 39.6353 138.996 39.0851C138.717 38.5316 138.578 37.8389 138.578 37.007C138.578 36.1684 138.717 35.4608 138.996 34.8841C139.278 34.3041 139.657 33.8649 140.134 33.5667C140.612 33.265 141.144 33.1142 141.73 33.1142C142.178 33.1142 142.546 33.1905 142.834 33.3429C143.126 33.4921 143.358 33.6727 143.53 33.8848C143.702 34.0936 143.833 34.2908 143.923 34.4765H144.022V33.2137H145.797V40.9743C145.797 41.6273 145.641 42.1675 145.33 42.5951C145.018 43.0226 144.592 43.3425 144.052 43.5546C143.512 43.7667 142.898 43.8728 142.212 43.8728ZM142.227 39.3287C142.608 39.3287 142.933 39.2359 143.202 39.0503C143.47 38.8647 143.674 38.5979 143.813 38.2499C143.952 37.9019 144.022 37.4843 144.022 36.997C144.022 36.5165 143.952 36.0955 143.813 35.7343C143.677 35.373 143.475 35.0929 143.207 34.8941C142.942 34.6919 142.615 34.5908 142.227 34.5908C141.826 34.5908 141.492 34.6952 141.223 34.904C140.955 35.1128 140.752 35.3995 140.617 35.7641C140.481 36.1254 140.413 36.5363 140.413 36.997C140.413 37.4644 140.481 37.8737 140.617 38.225C140.756 38.573 140.96 38.8448 141.228 39.0404C141.5 39.2326 141.833 39.3287 142.227 39.3287Z" fill="white"/>
<path fill-rule="evenodd" clip-rule="evenodd" d="M27.0459 43.2545V38.7759C21.8163 38.1991 17.6637 34.0465 17.0871 28.8169H12.6084V36.2545C12.6084 40.1205 15.7424 43.2545 19.6084 43.2545H27.0459ZM12.6084 26.3169H17.087C17.6637 21.0871 21.8162 16.9345 27.0459 16.3577L27.0459 11.879H19.6084C15.7424 11.879 12.6084 15.013 12.6084 18.879V26.3169ZM29.5459 43.2545H36.9839C40.8499 43.2545 43.9839 40.1205 43.9839 36.2545V18.879C43.9839 15.013 40.8499 11.879 36.9839 11.879H29.5459L29.5459 16.3576C34.7759 16.9341 38.9287 21.0869 39.5054 26.3169H41.0404C41.7308 26.3169 42.2904 26.8765 42.2904 27.5669C42.2904 28.2572 41.7308 28.8169 41.0404 28.8169H39.5054C38.9287 34.0467 34.7758 38.1995 29.5459 38.776V43.2545ZM27.0459 35.9095V36.2561C23.1987 35.7074 20.1554 32.6641 19.6069 28.8169H23.6603C24.2103 30.8617 26.0773 32.3669 28.2959 32.3669C30.9469 32.3669 33.0959 30.2178 33.0959 27.5669C33.0959 24.9159 30.9469 22.7669 28.2959 22.7669C26.0773 22.7669 24.2103 24.272 23.6603 26.3169H19.6069C20.1554 22.4695 23.1986 19.4262 27.0459 18.8775V19.295C27.0459 19.9854 27.6055 20.545 28.2959 20.545C28.9863 20.545 29.5459 19.9854 29.5459 19.295V18.8774C33.3935 19.4258 36.437 22.4693 36.9855 26.3169H36.5257C35.8354 26.3169 35.2757 26.8765 35.2757 27.5669C35.2757 28.2572 35.8354 28.8169 36.5257 28.8169H36.9855C36.437 32.6643 33.3934 35.7078 29.5459 36.2562V35.9095C29.5459 35.2191 28.9863 34.6595 28.2959 34.6595C27.6055 34.6595 27.0459 35.2191 27.0459 35.9095ZM28.2959 25.3669C27.0809 25.3669 26.0959 26.3518 26.0959 27.5669C26.0959 28.7819 27.0809 29.7669 28.2959 29.7669C29.5109 29.7669 30.4959 28.7819 30.4959 27.5669C30.4959 26.3518 29.5109 25.3669 28.2959 25.3669Z" fill="url(#paint0_linear_31452_183268)"/>
<defs>
<linearGradient id="paint0_linear_31452_183268" x1="19.752" y1="14.4099" x2="36.8403" y2="40.7236" gradientUnits="userSpaceOnUse">
<stop stop-color="#FD7A64"/>
<stop offset="1" stop-color="#D51000"/>
</linearGradient>
</defs>
</svg>
