<svg viewBox="0 0 32 32" xmlns="http://www.w3.org/2000/svg" xmlns:xlink="http://www.w3.org/1999/xlink"><linearGradient id="a" gradientUnits="userSpaceOnUse" x1="9.69201" x2="23.308" y1="6.14504" y2="27.1118"><stop offset="0" stop-color="#fd7a64"/><stop offset="1" stop-color="#d51000"/></linearGradient><g clip-rule="evenodd" fill-rule="evenodd"><path d="m15.5038 29.1284v-3.5685c-4.167-.4596-7.4757-3.7684-7.93521-7.9354h-3.56859v5.9263c0 3.0804 2.49718 5.5776 5.5776 5.5776zm-11.5038-13.4959h3.56858c.45947-4.1671 3.76822-7.4759 7.93522-7.9355v-3.56858h-5.9262c-3.08042 0-5.5776 2.49718-5.5776 5.5776zm13.4958 13.4959h5.9266c3.0804 0 5.5776-2.4972 5.5776-5.5776v-13.84478c0-3.08042-2.4972-5.5776-5.5776-5.5776h-5.9266v3.56853c4.1673.45939 7.4762 3.76835 7.9357 7.93555h1.2232c.55 0 .996.4459.996.996s-.446.996-.996.996h-1.2232c-.4595 4.1672-3.7685 7.476-7.9357 7.9354zm-1.992-5.8525v.2762c-3.0655-.4372-5.4903-2.8621-5.9274-5.9276h3.2297c.4383 1.6293 1.926 2.8286 3.6937 2.8286 2.1123 0 3.8246-1.7123 3.8246-3.8246s-1.7123-3.8247-3.8246-3.8247c-1.7677 0-3.2554 1.1993-3.6937 2.8287h-3.22971c.43701-3.0656 2.86191-5.4905 5.92741-5.92769v.33269c0 .5501.4459.996.996.996s.996-.4459.996-.996v-.33276c3.0658.43696 5.4909 2.86206 5.9279 5.92776h-.3664c-.55 0-.996.4459-.996.996s.446.996.996.996h.3664c-.4371 3.0657-2.8622 5.4907-5.9279 5.9276v-.2762c0-.5501-.4459-.996-.996-.996s-.996.4459-.996.996zm.996-8.4004c-.9681 0-1.753.7848-1.753 1.753 0 .9681.7849 1.7529 1.753 1.7529s1.753-.7848 1.753-1.7529c0-.9682-.7849-1.753-1.753-1.753z" fill="#fff"/><path d="m15.5038 29.1284v-3.5685c-4.167-.4596-7.4757-3.7684-7.93521-7.9354h-3.56859v5.9263c0 3.0804 2.49718 5.5776 5.5776 5.5776zm-11.5038-13.4959h3.56858c.45947-4.1671 3.76822-7.4759 7.93522-7.9355v-3.56858h-5.9262c-3.08042 0-5.5776 2.49718-5.5776 5.5776zm13.4958 13.4959h5.9266c3.0804 0 5.5776-2.4972 5.5776-5.5776v-13.84478c0-3.08042-2.4972-5.5776-5.5776-5.5776h-5.9266v3.56853c4.1673.45939 7.4762 3.76835 7.9357 7.93555h1.2232c.55 0 .996.4459.996.996s-.446.996-.996.996h-1.2232c-.4595 4.1672-3.7685 7.476-7.9357 7.9354zm-1.992-5.8525v.2762c-3.0655-.4372-5.4903-2.8621-5.9274-5.9276h3.2297c.4383 1.6293 1.926 2.8286 3.6937 2.8286 2.1123 0 3.8246-1.7123 3.8246-3.8246s-1.7123-3.8247-3.8246-3.8247c-1.7677 0-3.2554 1.1993-3.6937 2.8287h-3.22971c.43701-3.0656 2.86191-5.4905 5.92741-5.92769v.33269c0 .5501.4459.996.996.996s.996-.4459.996-.996v-.33276c3.0658.43696 5.4909 2.86206 5.9279 5.92776h-.3664c-.55 0-.996.4459-.996.996s.446.996.996.996h.3664c-.4371 3.0657-2.8622 5.4907-5.9279 5.9276v-.2762c0-.5501-.4459-.996-.996-.996s-.996.4459-.996.996zm.996-8.4004c-.9681 0-1.753.7848-1.753 1.753 0 .9681.7849 1.7529 1.753 1.7529s1.753-.7848 1.753-1.7529c0-.9682-.7849-1.753-1.753-1.753z" fill="url(#a)"/></g></svg>
