<svg xmlns="http://www.w3.org/2000/svg" viewBox="0 0 24 25">
  <path fill="url(#a)" d="M21.4 5.578a1.776 1.776 0 0 0 .013-2.597 1.77 1.77 0 0 0-2.512.084l-8.115 8.742a.394.394 0 0 1-.587-.01L6.101 7.08a1.783 1.783 0 0 0-2.575-.123 1.788 1.788 0 0 0 .067 2.65l4.735 4.073a.396.396 0 0 1 0 .6L3.61 18.319a1.808 1.808 0 0 0-.107 2.646c.74.747 1.96.704 2.647-.093l4.073-4.73a.394.394 0 0 1 .597 0l4.07 4.697a1.79 1.79 0 0 0 2.741-.041 1.795 1.795 0 0 0-.218-2.492l-4.734-4.09a.396.396 0 0 1-.01-.59l8.73-8.048Z"/>
  <defs>
    <linearGradient id="a" x1="12.471" x2="12.471" y1="2.499" y2="21.499" gradientUnits="userSpaceOnUse">
      <stop offset=".594" stop-color="#D16980"/>
      <stop offset=".594" stop-color="#747EBC"/>
      <stop offset=".964" stop-color="#6A89CD"/>
    </linearGradient>
  </defs>
</svg>
