<svg xmlns="http://www.w3.org/2000/svg" xmlns:xlink="http://www.w3.org/1999/xlink" viewBox="0 0 168 56" fill="currentColor" xmlns:v="https://vecta.io/nano"><path fill-rule="evenodd" d="M52.25 28c0 2.005-.389 3.954-1.068 5.749-.125.33-.546.412-.796.165l-4.986-4.926c-.208-.206-.243-.527-.107-.786.541-1.033.811-2.216.811-3.452.071-4.027-3.25-7.348-7.348-7.348a7.41 7.41 0 0 0-3.529.883c-.255.137-.572.104-.779-.099l-4.439-4.381a.6.6 0 0 1 .193-.992c1.805-.693 3.722-1.062 5.798-1.062 8.973 0 16.25 7.277 16.25 16.25zM26.594 14.776c.29-.204.683-.162.933.089l5.044 5.044c.223.223.242.575.067.838-.788 1.182-1.232 2.573-1.232 4.074a7.42 7.42 0 0 0 7.418 7.418c1.502 0 2.892-.443 4.074-1.232.262-.175.615-.155.838.067l5.46 5.46c.254.254.294.654.081.945-2.998 4.096-7.78 6.771-13.279 6.771-8.973 0-16.25-7.277-16.25-16.25 0-5.504 2.68-10.289 6.844-13.224zm12.232 14.637c2.755 0 4.946-2.19 4.946-4.946s-2.19-4.946-4.946-4.946-4.946 2.19-4.946 4.946 2.19 4.946 4.946 4.946z" fill="url(#A)"/><g fill="#000"><path d="M69.719 19.254c-.313-2.262-2.053-3.575-4.31-3.575-2.66 0-4.663 1.939-4.663 5.23s1.979 5.23 4.663 5.23c2.421 0 4.027-1.566 4.31-3.51l-1.859-.01c-.234 1.193-1.208 1.864-2.426 1.864-1.65 0-2.834-1.238-2.834-3.575 0-2.297 1.173-3.575 2.839-3.575 1.238 0 2.207.701 2.421 1.919h1.859zm4.941 6.895c2.237 0 3.659-1.576 3.659-3.937s-1.422-3.947-3.659-3.947-3.659 1.581-3.659 3.947 1.422 3.938 3.659 3.938zm.01-1.442c-1.238 0-1.844-1.104-1.844-2.501s.607-2.516 1.844-2.516c1.218 0 1.825 1.119 1.825 2.516s-.606 2.501-1.825 2.501zm6.976-3.181c0-1.104.666-1.74 1.616-1.74.93 0 1.486.611 1.486 1.631V26h1.8v-4.862c.005-1.83-1.039-2.874-2.615-2.874-1.143 0-1.929.547-2.277 1.397h-.09v-1.298h-1.72V26h1.8v-4.474zm10.545-3.162h-1.506v-1.83h-1.8v1.83h-1.084v1.392h1.084v4.246c-.01 1.437 1.034 2.143 2.386 2.103a3.61 3.61 0 0 0 1.059-.179l-.303-1.407a2.25 2.25 0 0 1-.527.07c-.452 0-.815-.159-.815-.885v-3.947h1.506v-1.392zM93.696 26h1.8v-7.636h-1.8V26zm.905-8.72c.572 0 1.039-.437 1.039-.974s-.467-.979-1.039-.979-1.044.438-1.044.979.467.974 1.044.974zm4.545 4.246c0-1.104.666-1.74 1.616-1.74.93 0 1.487.611 1.487 1.631V26h1.799v-4.862c.005-1.83-1.039-2.874-2.615-2.874-1.143 0-1.929.547-2.277 1.397h-.09v-1.298h-1.72V26h1.8v-4.474z"/><use xlink:href="#B"/><path d="M117.726 26.149c2.238 0 3.659-1.576 3.659-3.937s-1.421-3.947-3.659-3.947-3.659 1.581-3.659 3.947 1.422 3.938 3.659 3.938zm.01-1.442c-1.238 0-1.844-1.104-1.844-2.501s.606-2.516 1.844-2.516c1.218 0 1.825 1.119 1.825 2.516s-.607 2.501-1.825 2.501z"/><use xlink:href="#B" x="17.035"/><path d="M137.466 20.382c-.248-1.293-1.283-2.118-3.072-2.118-1.84 0-3.093.905-3.088 2.317-.005 1.114.681 1.849 2.148 2.153l1.303.273c.701.154 1.029.438 1.029.87 0 .522-.567.915-1.422.915-.825 0-1.362-.358-1.517-1.044l-1.755.169c.224 1.402 1.402 2.232 3.277 2.232 1.909 0 3.256-.989 3.261-2.436-.005-1.089-.706-1.755-2.148-2.068l-1.302-.278c-.776-.174-1.084-.442-1.079-.885-.005-.517.567-.875 1.317-.875.831 0 1.268.452 1.407.955l1.641-.179zM62.849 30.818h-1.844V41h1.844V30.818zm3.717 5.708c0-1.104.666-1.74 1.616-1.74.93 0 1.486.611 1.486 1.631V41h1.8v-4.862c.005-1.83-1.039-2.874-2.615-2.874-1.143 0-1.929.547-2.277 1.397h-.09v-1.298h-1.72V41h1.8v-4.474zm10.545-3.162h-1.506v-1.829h-1.8v1.829h-1.084v1.392h1.084v4.246c-.01 1.437 1.034 2.143 2.386 2.103a3.61 3.61 0 0 0 1.059-.179l-.303-1.407c-.099.025-.303.07-.527.07-.452 0-.815-.159-.815-.885v-3.947h1.506v-1.392zm4.804 7.785c1.78 0 3.003-.87 3.321-2.197l-1.68-.189c-.244.646-.84.984-1.616.984-1.163 0-1.934-.766-1.949-2.073h5.32v-.552c0-2.68-1.611-3.858-3.49-3.858-2.187 0-3.614 1.606-3.614 3.962 0 2.396 1.407 3.922 3.709 3.922zm-1.919-4.688c.055-.974.776-1.795 1.85-1.795 1.034 0 1.73.756 1.74 1.795h-3.59zm10.158 7.562c2.063 0 3.585-.945 3.585-2.898v-7.761h-1.775v1.263h-.099c-.273-.552-.845-1.362-2.192-1.362-1.765 0-3.152 1.382-3.152 3.893 0 2.491 1.387 3.734 3.147 3.734 1.307 0 1.919-.701 2.197-1.263h.089v1.447c0 1.124-.746 1.586-1.77 1.586-1.084 0-1.561-.512-1.78-.959l-1.621.393c.328 1.069 1.427 1.929 3.371 1.929zm.015-4.544c-1.188 0-1.815-.925-1.815-2.332 0-1.387.616-2.406 1.815-2.406 1.158 0 1.795.959 1.795 2.406 0 1.457-.646 2.332-1.795 2.332zM95.583 41h1.8v-4.489c0-.969.731-1.656 1.72-1.656a3.44 3.44 0 0 1 .835.104v-1.655a4.31 4.31 0 0 0-.646-.05c-.875 0-1.606.497-1.884 1.382h-.08v-1.273h-1.745V41zm7.598.154c1.198 0 1.914-.562 2.242-1.203h.06V41h1.73v-5.111c0-2.019-1.646-2.625-3.103-2.625-1.605 0-2.838.716-3.236 2.108l1.68.239c.179-.522.686-.969 1.566-.969.836 0 1.293.428 1.293 1.178v.03c0 .517-.542.542-1.889.686-1.482.159-2.899.602-2.899 2.322 0 1.502 1.099 2.297 2.556 2.297zm.467-1.322c-.751 0-1.288-.343-1.288-1.004 0-.691.602-.979 1.407-1.094.473-.065 1.417-.184 1.651-.373v.9c0 .85-.686 1.571-1.77 1.571zm9.188-6.468h-1.507v-1.829h-1.8v1.829h-1.083v1.392h1.083v4.246c-.009 1.437 1.035 2.143 2.387 2.103a3.61 3.61 0 0 0 1.059-.179l-.303-1.407a2.26 2.26 0 0 1-.527.07c-.453 0-.816-.159-.816-.885v-3.947h1.507v-1.392zM114.341 41h1.799v-7.636h-1.799V41zm.905-8.72c.571 0 1.039-.437 1.039-.974s-.468-.979-1.039-.979c-.577 0-1.044.438-1.044.979s.467.974 1.044.974zm6.076 8.869c2.237 0 3.659-1.576 3.659-3.937s-1.422-3.947-3.659-3.947-3.659 1.581-3.659 3.947 1.422 3.938 3.659 3.938zm.01-1.442c-1.238 0-1.844-1.104-1.844-2.501s.606-2.516 1.844-2.516c1.218 0 1.825 1.119 1.825 2.516s-.607 2.501-1.825 2.501zm6.976-3.181c0-1.104.667-1.74 1.616-1.74.93 0 1.487.611 1.487 1.631V41h1.799v-4.862c.005-1.83-1.039-2.874-2.615-2.874-1.143 0-1.929.547-2.277 1.397h-.089v-1.298h-1.72V41h1.799v-4.474z"/></g><defs><linearGradient id="A" x1="9.252" y1="22.248" x2="30.248" y2="54.748" gradientUnits="userSpaceOnUse"><stop stop-color="#73dfe7"/><stop offset="1" stop-color="#0095f7"/></linearGradient><path id="B" d="M110.745 22.788c0 1.163-.83 1.74-1.626 1.74-.865 0-1.441-.612-1.441-1.581v-4.584h-1.8v4.862c0 1.835 1.044 2.874 2.545 2.874 1.144 0 1.949-.601 2.297-1.457h.08V26h1.745v-7.636h-1.8v4.425z"/></defs></svg>