<svg viewBox="0 0 24 24" xmlns="http://www.w3.org/2000/svg">
<g clip-path="url(#clip0_609_990)">
<path d="M3.26839 16.5787L3.43575 16.7687L11.8895 19.1649L11.9278 17.6796L6.00715 16.1938L5.71743 16.0893L3.26839 16.5787Z" fill="#B7CA9D"/>
<path d="M20.421 16.5786L11.7871 19.4605L11.7614 17.6795L17.6821 16.1937L17.9402 15.9033L20.421 16.5786Z" fill="#B7CA9D"/>
<path d="M11.7614 6.39806L17.6821 7.77793L20.286 7.65441L20.421 7.39345L12.1717 4.42412L11.7614 6.39806Z" fill="#3C4929"/>
<path d="M6.00714 16.1936L3.26836 16.5785L3.19214 16.2941V7.69278L3.26836 7.39336L5.7431 7.57741L6.00714 7.77815V16.1936Z" fill="#759C3E"/>
<path d="M11.9278 6.39797L6.00715 7.77784L3.26839 7.39336L3.37161 7.23131L11.8895 4.80705L11.9278 6.39797Z" fill="#3C4929"/>
<path d="M11.833 0.00164795L2 4.96489L2.00469 19.0101L11.833 23.9707L11.9794 23.7484V0.29007L11.833 0.00164795ZM8.95766 18.2861L3.26836 16.5786V7.39348L8.95766 5.68664V18.2861ZM17.6821 16.1937L20.4209 16.5786L20.5744 16.3071V7.65444L20.4209 7.39348L17.6821 7.77827V16.1937Z" fill="#4B612C"/>
<path d="M11.833 23.9707L21.6849 19.0104L21.6896 4.96527L11.833 0.00164795V23.9707ZM14.7316 5.68664L20.4209 7.39348V16.5786L14.7316 18.2861V5.68664Z" fill="#759C3E"/>
</g>
<defs>
<clipPath id="clip0_609_990">
<rect width="19.6896" height="24" fill="white" transform="translate(2)"/>
</clipPath>
</defs>
</svg>
