<svg xmlns="http://www.w3.org/2000/svg" fill="none" viewBox="0 0 32 32"><g clip-path="url(#a)"><path fill="#FFD200" d="M17.078 0a16 16 0 1 0 13.834 24.061L17.092 16 29.418 5.8A16 16 0 0 0 17.078 0Zm-4.784 2.857c.453-.004.934.164 1.59.504 1.13.583 1.351 1.37.48 1.703-.649.25-3.276.236-3.909-.02-.701-.283-.507-1.041.427-1.653.536-.351.96-.528 1.412-.534ZM17.73 8.26h.029a1.723 1.723 0 1 1-.03 0Zm-8.346 5.067c1.378 0 2.384.578 2.384 1.37 0 .926-2.614 3.179-3.688 3.179-.486 0-.969-.221-1.072-.49-.104-.271.156-1.294.579-2.275.673-1.568.893-1.784 1.797-1.784ZM20.9 25.576c.496 0 1.816 3.088 1.582 3.7-.268.699-1.395.623-2.086-.14-.901-.996-.538-3.56.504-3.56Z"/></g><defs><clipPath id="a"><path fill="#fff" d="M0 0h32v32H0z"/></clipPath></defs></svg>