<svg xmlns="http://www.w3.org/2000/svg" viewBox="0 0 24 25">
  <g clip-path="url(#a)">
    <path fill="#2396ED" d="M22.546 10.097c-.495-.346-1.63-.476-2.518-.303-.104-.864-.578-1.621-1.404-2.291l-.475-.346-.33.497c-.413.649-.62 1.557-.557 2.421.02.303.123.844.433 1.32-.289.172-.887.389-1.672.389H1.1l-.041.172c-.145.865-.145 3.568 1.548 5.643 1.28 1.579 3.179 2.379 5.677 2.379 5.408 0 9.412-2.616 11.29-7.351.744.021 2.333 0 3.138-1.622.02-.043.062-.13.206-.454l.083-.173-.454-.28ZM13.03 4h-2.27v2.162h2.27V4Zm0 2.594h-2.27v2.163h2.27V6.594Zm-2.683 0h-2.27v2.163h2.27V6.594Zm-2.684 0h-2.27v2.163h2.27V6.594ZM4.98 9.19H2.71v2.162h2.27V9.19Zm2.683 0h-2.27v2.162h2.27V9.19Zm2.684 0h-2.27v2.162h2.27V9.19Zm2.683 0h-2.27v2.162h2.27V9.19Zm2.684 0h-2.271v2.162h2.27V9.19Z"/>
  </g>
  <defs>
    <clipPath id="a">
      <path fill="#fff" d="M0 0h22v16H0z" transform="translate(1 4)"/>
    </clipPath>
  </defs>
</svg>
