<svg viewBox="0 0 28 28" xmlns="http://www.w3.org/2000/svg" xmlns:xlink="http://www.w3.org/1999/xlink"><clipPath id="a"><path d="m0 0h28v20.234h-28z" transform="translate(0 3.5)"/></clipPath><g clip-path="url(#a)"><path d="m27.422 11.21c-.63-.437-2.075-.6-3.205-.382-.131-1.094-.736-2.05-1.787-2.898l-.604-.438-.42.629c-.525.82-.788 1.969-.71 3.062.027.383.158 1.067.552 1.668-.367.219-1.13.492-2.128.492h-18.994l-.052.22c-.184 1.093-.184 4.51 1.97 7.135 1.629 1.997 4.046 3.008 7.225 3.008 6.883 0 11.98-3.308 14.37-9.296.946.027 2.969 0 3.993-2.051a22.8 22.8 0 0 0 .263-.574l.105-.219-.578-.355zm-12.111-7.71h-2.89v2.734h2.89zm0 3.281h-2.89v2.734h2.89zm-3.415 0h-2.89v2.734h2.89zm-3.415 0h-2.891v2.734h2.89v-2.734zm-3.416 3.281h-2.89v2.735h2.89zm3.416 0h-2.891v2.735h2.89v-2.735zm3.415 0h-2.89v2.735h2.89zm3.415 0h-2.89v2.735h2.89zm3.415 0h-2.89v2.735h2.89z" fill="#fafcff"/></g></svg>