<svg viewBox="0 0 32 32" fill="currentColor" xmlns="http://www.w3.org/2000/svg"><g clip-path="url(#a)"><path d="M32 0H0v32h32V0Z" fill="#512BD4"/><path d="M5.703 20.444a.806.806 0 0 1-.577-.226.744.744 0 0 1-.237-.55.75.75 0 0 1 .237-.558.795.795 0 0 1 .577-.232c.23 0 .424.078.583.232.162.155.243.34.243.557a.736.736 0 0 1-.243.551.813.813 0 0 1-.583.226ZM14.749 20.317h-1.471l-3.875-6.113a2.73 2.73 0 0 1-.243-.482h-.034c.03.178.045.56.045 1.143v5.452h-1.3V12h1.566l3.745 5.968c.158.247.26.418.305.51h.023c-.038-.22-.057-.593-.057-1.12V12h1.296v8.317ZM21.084 20.317h-4.553V12h4.372v1.172h-3.026v2.354h2.789v1.166h-2.789v2.46h3.207v1.165ZM27.555 13.172h-2.33v7.145h-1.346v-7.145h-2.325V12h6.001v1.172Z" fill="#fff"/></g><defs><clipPath id="a"><path fill="#fff" d="M0 0h32v32H0z"/></clipPath></defs></svg>
