<svg viewBox="0 0 24 24" xmlns="http://www.w3.org/2000/svg"><mask id="a" style="mask-type:luminance" maskUnits="userSpaceOnUse" x="9" y="8" width="7" height="8"><path d="M9.724 8.238h.986v2.907l2.837-2.907h1.301l-3.113 3.203 3.31 3.695h-1.261l-3.074-3.449v3.449h-.986V8.238Z" fill="#fff"/></mask><g mask="url(#a)"><path d="M9.724 8.238h.986v2.907l2.837-2.907h1.301l-3.113 3.203 3.31 3.695h-1.261l-3.074-3.449v3.449h-.986V8.238Z" fill="url(#b)"/></g><mask id="c" style="mask-type:luminance" maskUnits="userSpaceOnUse" x="12" y="0" width="11" height="17"><path d="m12.811 5.501 4.853 2.802a.268.268 0 0 1 .134.232v5.604c0 .095.051.184.134.231l4.33 2.5a.268.268 0 0 0 .402-.231V5.725a.268.268 0 0 0-.134-.232L13.08.036a.268.268 0 0 0-.402.232V5.27c0 .096.051.184.134.232Z" fill="#fff"/></mask><g mask="url(#c)"><path d="m12.811 5.501 4.853 2.802a.268.268 0 0 1 .134.232v5.604c0 .095.051.184.134.231l4.33 2.5a.268.268 0 0 0 .402-.231V5.725a.268.268 0 0 0-.134-.232L13.08.036a.268.268 0 0 0-.402.232V5.27c0 .096.051.184.134.232Z" fill="url(#d)"/></g><mask id="e" style="mask-type:luminance" maskUnits="userSpaceOnUse" x="1" y="0" width="21" height="24"><path d="m16.987 15.543-4.853 2.802a.267.267 0 0 1-.268 0l-5.53-3.193a.269.269 0 0 1-.134-.232V8.534c0-.095.051-.183.134-.231L11.189 5.5a.268.268 0 0 0 .134-.232v-5a.268.268 0 0 0-.402-.233L1.47 5.493a.268.268 0 0 0-.134.232V17.73c0 .095.05.184.134.232l10.396 6.002a.267.267 0 0 0 .268 0l9.451-5.457a.268.268 0 0 0 0-.463l-4.33-2.5a.267.267 0 0 0-.268 0Z" fill="#fff"/></mask><g mask="url(#e)"><path d="m16.987 15.543-4.853 2.802a.267.267 0 0 1-.268 0l-5.53-3.193a.269.269 0 0 1-.134-.232V8.534c0-.095.051-.183.134-.231L11.189 5.5a.268.268 0 0 0 .134-.232v-5a.268.268 0 0 0-.402-.233L1.47 5.493a.268.268 0 0 0-.134.232V17.73c0 .095.05.184.134.232l10.396 6.002a.267.267 0 0 0 .268 0l9.451-5.457a.268.268 0 0 0 0-.463l-4.33-2.5a.267.267 0 0 0-.268 0Z" fill="url(#f)"/></g><defs><linearGradient id="b" x1="14.272" y1="14.958" x2="10.039" y2="7.983" gradientUnits="userSpaceOnUse"><stop stop-color="#4F66B9"/><stop offset="1" stop-color="#484FAB"/></linearGradient><linearGradient id="d" x1="23.72" y1="15.94" x2="14.124" y2="-.582" gradientUnits="userSpaceOnUse"><stop stop-color="#4F66B9"/><stop offset="1" stop-color="#484FAB"/></linearGradient><linearGradient id="f" x1="14.182" y1="22.689" x2="3.72" y2="4.217" gradientUnits="userSpaceOnUse"><stop stop-color="#4C68BB"/><stop offset="1" stop-color="#5180C9"/></linearGradient></defs></svg>