<svg viewBox="0 0 32 32" fill="currentColor" xmlns="http://www.w3.org/2000/svg">
<path d="M12.7611 13.89L19.4051 16.917L26.1051 11.043C26.204 10.5577 26.2513 10.0633 26.2461 9.56804C26.2474 7.96907 25.7365 6.41172 24.7884 5.12419C23.8402 3.83667 22.5046 2.88666 20.9773 2.41337C19.45 1.94008 17.8112 1.9684 16.3012 2.49417C14.7911 3.01994 13.4892 4.01552 12.5861 5.33504L11.4661 11.12L12.7611 13.89Z" fill="#FED10A"/>
<path d="M5.88601 20.919C5.78713 21.4128 5.73987 21.9155 5.74501 22.419C5.74722 24.0244 6.26354 25.5869 7.21831 26.8775C8.17307 28.1681 9.51609 29.119 11.0506 29.5908C12.585 30.0626 14.2303 30.0306 15.7452 29.4994C17.2602 28.9682 18.5652 27.9658 19.469 26.639L20.569 20.88L19.1 18.059L12.43 15.019L5.88601 20.919Z" fill="#24BBB1"/>
<path d="M5.84789 9.42603L10.3999 10.5L11.3999 5.33103C10.7816 4.86031 10.0273 4.60268 9.25018 4.59678C8.47308 4.59089 7.715 4.83703 7.08958 5.29832C6.46417 5.75961 6.00512 6.41118 5.78125 7.15537C5.55739 7.89956 5.58077 8.69626 5.84789 9.42603" fill="#EF5098"/>
<path d="M5.45005 10.517C4.46532 10.8407 3.60505 11.4615 2.98757 12.2941C2.37009 13.1267 2.02572 14.1302 2.00182 15.1665C1.97792 16.2028 2.27567 17.221 2.85411 18.0812C3.43256 18.9414 4.26329 19.6012 5.23205 19.97L11.6201 14.2L10.4531 11.7L5.45005 10.517Z" fill="#17A8E0"/>
<path d="M20.624 26.6389C21.2418 27.1081 21.9949 27.3645 22.7706 27.3698C23.5463 27.375 24.3029 27.1287 24.9269 26.6679C25.5509 26.2071 26.0088 25.5565 26.232 24.8136C26.4552 24.0706 26.4317 23.2754 26.165 22.5469L21.624 21.4819L20.624 26.6389Z" fill="#93C83E"/>
<path d="M21.5471 20.29L26.5471 21.457C27.5333 21.1345 28.3952 20.514 29.0141 19.6812C29.6329 18.8483 29.9783 17.844 30.0025 16.8067C30.0267 15.7693 29.7287 14.75 29.1494 13.8891C28.5701 13.0283 27.7381 12.3683 26.7681 12L20.2271 17.733L21.5471 20.29Z" fill="#0779A1"/>
</svg>