<svg viewBox="0 0 32 33" fill="currentColor" xmlns="http://www.w3.org/2000/svg"><path d="M6.95 29.324.387 17.956a2.88 2.88 0 0 1 0-2.875L6.95 3.71a2.877 2.877 0 0 1 2.487-1.437h13.126c1.024 0 1.975.55 2.487 1.438l6.563 11.369a2.88 2.88 0 0 1 0 2.875L25.05 29.324a2.877 2.877 0 0 1-2.488 1.438H9.438a2.877 2.877 0 0 1-2.487-1.438Z" fill="url(#a)"/><path fill-rule="evenodd" clip-rule="evenodd" d="M31.996 16.593c-.012.472-.14.941-.383 1.363L25.05 29.324a2.877 2.877 0 0 1-2.488 1.438H14.08l-8.062-8.306.135-3.208.442-7.361 3.473-1.177 15.922-.128 6.007 6.011Z" fill="#3D7BE2"/><path d="M26 10.575v11.887h-3.962a.189.189 0 0 1-.189-.19v-1.131c0-.104.084-.189.189-.189h2.452v-8.868H9.76a.189.189 0 0 1-.188-.188v-1.133c0-.104.085-.188.189-.188H26Zm-15.69 0c.103 0 .188.084.188.188v1.133a.189.189 0 0 1-.189.188h-2.8v8.868h15.227a.19.19 0 0 1 .189.189v1.132a.189.189 0 0 1-.189.189H6V10.575h4.31Zm11.117 3.868v1.456l.06.024 1.351-.477.28.82-1.362.465-.037.098.937 1.26-.706.514-.912-1.26h-.085l-.913 1.26-.705-.514.924-1.26-.024-.098-1.362-.465.28-.82 1.338.477.073-.024v-1.456h.863Zm-10.231 0v1.441l.06.025 1.351-.473.28.812-1.363.46-.036.097.937 1.248-.706.509-.912-1.248h-.085l-.913 1.248-.705-.509.924-1.248-.024-.097-1.362-.46.28-.812 1.337.473.073-.025v-1.441h.864Zm5.094 0v1.441l.061.025 1.35-.473.28.812-1.362.46-.037.097.937 1.248-.706.509-.912-1.248h-.085l-.912 1.248-.706-.509.925-1.248-.025-.097-1.362-.46.28-.812 1.338.473.073-.025v-1.441h.863Z" fill="#fff"/><defs><linearGradient id="a" x1="16" y1="2.277" x2="16" y2="30.715" gradientUnits="userSpaceOnUse"><stop stop-color="#4387FD"/><stop offset="1" stop-color="#4683EA"/></linearGradient></defs></svg>