<svg viewBox="0 0 1667 1341" xmlns="http://www.w3.org/2000/svg"><g fill="none"><path d="m1058.1 369.2h50.8l144.8-144.8 7.1-61.5c-269.5-237.9-680.8-212.2-918.7 57.3-66.1 74.8-114 163.9-140.2 260.3 16.1-6.6 34-7.7 50.8-3l289.6-47.8s14.7-24.4 22.4-22.9c128.8-141.5 345.6-158 494.4-37.6z" fill="#ea4335"/><path d="m1460 480.5c-33.3-122.6-101.6-232.8-196.6-317l-203.2 203.2c85.8 70.1 134.7 175.8 132.6 286.6v36.1c99.9 0 180.9 81 180.9 180.9s-81 180.9-180.9 180.9h-361.8l-36.1 36.6v217l36.1 36.1h361.8c259.8 2 472.1-207 474.1-466.8 1.2-157.8-76.5-305.4-206.9-393.6z" fill="#4285f4"/><path d="m468.7 1338.6h361.8v-289.6h-361.8c-25.8 0-51.2-5.6-74.7-16.3l-50.8 15.8-145.8 144.8-12.7 50.8c81.7 61.8 181.5 95 284 94.5z" fill="#34a853"/><path d="m468.7 399.196c-259.9 1.504-469.2 213.404-467.708 473.304.908 145.1 68.608 281.7 183.708 370.1l209.8-209.8c-91-41.1-131.5-148.3-90.4-239.3s148.3-131.5 239.3-90.4c40.1 18.1 72.2 50.3 90.4 90.4l209.8-209.8c-89.2-116.8-228-185.1-374.9-184.504z" fill="#fbbc05"/></g></svg>