<svg viewBox="0 0 33 34" xmlns="http://www.w3.org/2000/svg">
<g clip-path="url(#clip0_1039_659)">
<path fill-rule="evenodd" clip-rule="evenodd" d="M1.24195 18.207L7.80495 29.577C8.05726 30.0134 8.41981 30.3759 8.85629 30.6281C9.29277 30.8803 9.78785 31.0133 10.2919 31.014H23.4179C24.4419 31.014 25.3929 30.464 25.9049 29.576L32.468 18.207C32.7198 17.7698 32.8524 17.2741 32.8524 16.7695C32.8524 16.2649 32.7198 15.7692 32.468 15.332L25.9049 3.96399C25.6527 3.52724 25.29 3.16449 24.8533 2.9121C24.4167 2.65971 23.9213 2.52656 23.417 2.52599H10.2929C9.26795 2.52599 8.31795 3.07599 7.80595 3.96399L1.24195 15.332C0.990104 15.7692 0.857544 16.2649 0.857544 16.7695C0.857544 17.2741 0.990104 17.7698 1.24195 18.207ZM12.4049 10.077V11.851L10.3549 13.032V20.508L12.4049 21.688V23.464L8.79195 21.376V12.164L12.4049 10.076V10.077ZM21.305 11.851V10.076L24.9179 12.164V21.376L21.305 23.464V21.689L23.3549 20.508V13.032L21.305 11.85V11.851ZM16.8549 16.083L14.8549 14.926V12.614L16.8549 11.458L18.8549 12.614V14.926L16.8549 16.083ZM17.4799 19.426L19.4799 20.582L21.4799 19.426V17.114L19.4799 15.958L17.4799 17.114V19.426ZM14.2299 20.582L12.2299 19.426V17.114L14.2299 15.958L16.2299 17.114V19.426L14.2299 20.582Z" fill="white"/>
<path fill-rule="evenodd" clip-rule="evenodd" d="M31.905 19.182L25.905 29.576C25.6527 30.0127 25.29 30.3755 24.8533 30.6279C24.4167 30.8803 23.9213 31.0134 23.417 31.014H18.461L8.85095 21.411L12.405 23.464V21.689L10.355 20.508V13.032L12.405 11.85V10.093L12.417 10.083L14.914 12.579L14.855 12.614V14.926L16.855 16.083L18.855 14.926V12.664L23.355 17.158V20.508L21.305 21.688V23.464L24.918 21.376V12.189L31.905 19.182ZM23.355 13.032V13.92L21.317 11.882L21.332 11.867L23.355 13.032ZM19.48 20.582L17.48 19.426V17.114L19.48 15.958L21.48 17.114V19.426L19.48 20.582ZM12.23 19.426L14.23 20.582L16.23 19.426V17.114L14.23 15.958L12.23 17.114V19.426Z" fill="#D8DFED"/>
</g>
<defs>
<clipPath id="clip0_1039_659">
<rect width="32" height="33" fill="white" transform="translate(0.85498 0.491989)"/>
</clipPath>
</defs>
</svg>
