<svg viewBox="0 0 42 42" xmlns="http://www.w3.org/2000/svg">
<g clip-path="url(#clip0_1039_663)">
<mask id="mask0_1039_663" style="mask-type:luminance" maskUnits="userSpaceOnUse" x="1" y="1" width="41" height="41">
<path d="M1.5166 1.45959H41.5166V41.4596H1.5166V1.45959Z" fill="white"/>
</mask>
<g mask="url(#mask0_1039_663)">
<path fill-rule="evenodd" clip-rule="evenodd" d="M32.8175 5.32348L41.0363 19.6173C41.3511 20.1701 41.5166 20.7953 41.5166 21.4314C41.5166 22.0675 41.3511 22.6927 41.0363 23.2455L32.8175 37.5394C32.5112 38.0949 32.0659 38.5615 31.5253 38.8935C30.9846 39.2254 30.3671 39.4114 29.7331 39.4331H13.2923C12.6582 39.4084 12.0413 39.2201 11.5015 38.8867C10.9616 38.5532 10.517 38.0859 10.211 37.53L1.99221 23.1549C1.68056 22.6107 1.5166 21.9945 1.5166 21.3674C1.5166 20.7402 1.68056 20.124 1.99221 19.5798L10.2141 5.32348C10.523 4.77516 10.9698 4.31711 11.5103 3.99479C12.0508 3.67246 12.6662 3.49705 13.2954 3.48596H29.7362C30.3655 3.49674 30.981 3.67202 31.5215 3.99438C32.0621 4.31674 32.5089 4.77495 32.8175 5.32348ZM27.9824 17.1644H15.0323C14.9314 17.1618 14.8336 17.1991 14.7599 17.2681C14.6862 17.3371 14.6426 17.4323 14.6386 17.5331V20.2207C14.6386 20.3209 14.6784 20.4171 14.7493 20.488C14.8202 20.5589 14.9164 20.5988 15.0167 20.5988H27.9824C28.0825 20.598 28.1782 20.5579 28.2489 20.4871C28.3196 20.4164 28.3597 20.3207 28.3605 20.2207V17.5425C28.3605 17.4422 28.3207 17.346 28.2498 17.2751C28.1789 17.2042 28.0827 17.1644 27.9824 17.1644ZM25.9793 19.6644C25.826 19.6644 25.6762 19.6189 25.5487 19.5338C25.4213 19.4486 25.3219 19.3276 25.2633 19.186C25.2046 19.0444 25.1893 18.8885 25.2192 18.7382C25.2491 18.5879 25.3229 18.4498 25.4313 18.3414C25.5397 18.233 25.6777 18.1592 25.8281 18.1293C25.9784 18.0994 26.1342 18.1147 26.2759 18.1734C26.4175 18.232 26.5385 18.3314 26.6237 18.4588C26.7088 18.5863 26.7543 18.7361 26.7543 18.8894C26.7543 19.0949 26.6726 19.2921 26.5273 19.4374C26.3819 19.5827 26.1848 19.6644 25.9793 19.6644ZM27.9824 22.3269H15.0323C14.9314 22.3244 14.8336 22.3616 14.7599 22.4306C14.6862 22.4996 14.6426 22.5948 14.6386 22.6957V25.3988C14.6433 25.4964 14.6851 25.5885 14.7553 25.6564C14.8255 25.7243 14.919 25.763 15.0167 25.7644H27.9824C28.0825 25.7636 28.1782 25.7235 28.2489 25.6528C28.3196 25.582 28.3597 25.4863 28.3605 25.3863V22.6925C28.3605 22.5922 28.3207 22.4961 28.2498 22.4252C28.1789 22.3542 28.0827 22.3144 27.9824 22.3144V22.3269ZM25.9793 24.8144C25.826 24.8144 25.6762 24.769 25.5487 24.6838C25.4213 24.5987 25.3219 24.4776 25.2633 24.336C25.2046 24.1944 25.1893 24.0386 25.2192 23.8882C25.2491 23.7379 25.3229 23.5998 25.4313 23.4914C25.5397 23.383 25.6777 23.3092 25.8281 23.2793C25.9784 23.2494 26.1342 23.2647 26.2759 23.3234C26.4175 23.3821 26.5385 23.4814 26.6237 23.6088C26.7088 23.7363 26.7543 23.8861 26.7543 24.0394C26.7543 24.1412 26.7342 24.242 26.6953 24.336C26.6563 24.43 26.5993 24.5155 26.5273 24.5874C26.4553 24.6594 26.3699 24.7165 26.2759 24.7554C26.1818 24.7944 26.0811 24.8144 25.9793 24.8144Z" fill="white"/>
<path fill-rule="evenodd" clip-rule="evenodd" d="M14.739 20.4773L14.7363 20.48L16.5833 22.3269H27.9824V22.3144C28.0827 22.3144 28.1789 22.3542 28.2498 22.4252C28.3207 22.4961 28.3605 22.5922 28.3605 22.6925V25.3863C28.3597 25.4863 28.3196 25.582 28.2489 25.6528C28.1781 25.7235 28.0824 25.7636 27.9824 25.7644H15.0167C14.9572 25.7635 14.8994 25.7489 14.8473 25.7223L28.5489 39.4239H29.7177C30.3518 39.4021 30.9693 39.2162 31.5099 38.8842C32.0506 38.5523 32.4958 38.0857 32.8021 37.5301L38.5303 27.5675L28.2302 17.2518L28.2248 17.2523C28.2334 17.2595 28.2418 17.2671 28.2498 17.2751C28.3207 17.346 28.3605 17.4422 28.3605 17.5425V20.2207C28.3597 20.3207 28.3196 20.4164 28.2489 20.4871C28.1781 20.5579 28.0824 20.598 27.9824 20.5988H15.0167C14.9164 20.5988 14.8202 20.5589 14.7493 20.488C14.7458 20.4845 14.7424 20.481 14.739 20.4773ZM25.9792 19.6644C25.826 19.6644 25.6761 19.6189 25.5487 19.5338C25.4212 19.4486 25.3219 19.3276 25.2632 19.186C25.2046 19.0444 25.1892 18.8885 25.2191 18.7382C25.249 18.5879 25.3229 18.4498 25.4312 18.3414C25.5396 18.233 25.6777 18.1592 25.8281 18.1293C25.9784 18.0994 26.1342 18.1147 26.2758 18.1734C26.4174 18.232 26.5385 18.3314 26.6236 18.4588C26.7088 18.5863 26.7543 18.7361 26.7543 18.8894C26.7543 19.0949 26.6726 19.2921 26.5273 19.4374C26.3819 19.5827 26.1848 19.6644 25.9792 19.6644ZM25.9792 24.8144C25.826 24.8144 25.6761 24.769 25.5487 24.6838C25.4212 24.5987 25.3219 24.4776 25.2632 24.336C25.2046 24.1944 25.1892 24.0386 25.2191 23.8882C25.249 23.7379 25.3229 23.5998 25.4312 23.4914C25.5396 23.383 25.6777 23.3092 25.8281 23.2793C25.9784 23.2494 26.1342 23.2647 26.2758 23.3234C26.4174 23.3821 26.5385 23.4814 26.6236 23.6088C26.7088 23.7363 26.7543 23.8861 26.7543 24.0394C26.7543 24.1412 26.7342 24.242 26.6953 24.336C26.6563 24.43 26.5992 24.5155 26.5273 24.5874C26.4553 24.6594 26.3699 24.7165 26.2758 24.7554C26.1818 24.7944 26.081 24.8144 25.9792 24.8144Z" fill="#D7DFED"/>
</g>
</g>
<defs>
<clipPath id="clip0_1039_663">
<rect width="41" height="41" fill="white" transform="translate(0.85498 0.491989)"/>
</clipPath>
</defs>
</svg>
