<svg viewBox="0 0 28 26"  fill="none" xmlns="http://www.w3.org/2000/svg"><path d="M6.08 23.665.336 13.72a2.516 2.516 0 0 1 0-2.515l5.742-9.946A2.516 2.516 0 0 1 8.258 0h11.484a2.516 2.516 0 0 1 2.179 1.258l5.742 9.946a2.515 2.515 0 0 1 0 2.515l-5.742 9.946a2.516 2.516 0 0 1-2.179 1.258H8.258a2.516 2.516 0 0 1-2.179-1.258Z" fill="url(#a)"/><path opacity=".07" d="m10.787 10.247-1.533 1.529 1.303 1.303-1.29 2.292 9.764 9.764h2.366l4.62-8.299-7.316-7.317-7.914.728Z" fill="#000"/><path d="M18.528 9.458H9.464a.266.266 0 0 0-.265.266v1.873c0 .146.12.266.265.266h9.064c.146 0 .266-.12.266-.265V9.723a.266.266 0 0 0-.266-.265Zm-1.403 1.745a.543.543 0 1 1 .003-1.087.543.543 0 0 1-.003 1.087Zm1.403 1.857H9.464a.266.266 0 0 0-.265.266V15.2c0 .145.12.265.265.265h9.064c.146 0 .266-.12.266-.265v-1.874a.266.266 0 0 0-.266-.266Zm-1.403 1.745a.544.544 0 0 1-.207-1.043.543.543 0 0 1 .207-.042.542.542 0 1 1 0 1.085" fill="#fff"/><defs><linearGradient id="a" x1="14" y1="0" x2="14" y2="24.884" gradientUnits="userSpaceOnUse"><stop stop-color="#4387FD"/><stop offset="1" stop-color="#4683EA"/></linearGradient></defs></svg>