<svg xmlns="http://www.w3.org/2000/svg" fill="currenColor" viewBox="0 0 20 20"><path fill="#0B0B0D" d="M10 0C4.475 0 0 4.478 0 10a9.998 9.998 0 0 0 6.838 9.488c.5.094.683-.215.683-.481 0-.238-.008-.867-.013-1.7-2.781.603-3.368-1.342-3.368-1.342-.455-1.154-1.112-1.463-1.112-1.463-.906-.62.07-.607.07-.607 1.004.07 1.531 1.03 1.531 1.03.892 1.53 2.341 1.087 2.913.832.09-.647.347-1.088.633-1.338-2.22-.25-4.555-1.11-4.555-4.942 0-1.091.388-1.983 1.03-2.683-.113-.252-.45-1.269.087-2.646 0 0 .837-.269 2.75 1.025.8-.223 1.65-.333 2.5-.338.85.005 1.7.115 2.5.338 1.9-1.294 2.737-1.026 2.737-1.026.538 1.378.2 2.395.1 2.647.638.7 1.025 1.592 1.025 2.683 0 3.842-2.337 4.688-4.562 4.934.35.3.675.913.675 1.85 0 1.338-.013 2.413-.013 2.738 0 .263.175.575.688.475A9.966 9.966 0 0 0 20 10c0-5.522-4.477-10-10-10Z"/></svg>