<svg viewBox="0 0 128 115" xmlns="http://www.w3.org/2000/svg"><g fill="none" fill-rule="evenodd"><path d="M126.474 51.62L100.169 5.878A11.555 11.555 0 0090.306 0h-52.61a11.549 11.549 0 00-9.864 5.876L1.527 51.526a11.475 11.475 0 00-.002 11.437l26.305 45.95A11.773 11.773 0 0037.694 115h52.608a11.726 11.726 0 009.866-6.06l26.303-45.745a11.728 11.728 0 00.003-11.575z" fill="#4285F4" fill-rule="nonzero"/><path d="M92.375 36.7L63.91 22.761 35.441 36.822l-2.947 36.361L78 114.488h12.31a11.724 11.724 0 009.864-6.06l23.34-40.59L92.374 36.7z" fill="#000" fill-rule="nonzero" opacity=".07"/><path d="M68.99 24.334l21 12.089A10 10 0 0195 45.089v24.13a10 10 0 01-5.01 8.666l-21 12.09a10 10 0 01-9.98 0l-21-12.09A10 10 0 0133 69.218V45.09a10 10 0 015.01-8.666l21-12.09a10 10 0 019.98 0zm-4.897 35.672L41.56 72.972a9.99 9.99 0 001.852 1.477l.278.166 15.32 8.82a10 10 0 009.688.162l.291-.162 15.32-8.82a9.992 9.992 0 002.197-1.711L64.093 60.006zm-4.79-29.295l-.292.162-15.32 8.82a10 10 0 00-5.006 8.342l-.006.324v17.59c0 1.528.35 3.007.99 4.338l21.923-12.615.352-.608h-.016V29.757a9.988 9.988 0 00-2.626.955zm6-1.087l-.001 27.305 23.069 13.274a9.99 9.99 0 00.944-3.93l.006-.324v-17.59a10 10 0 00-4.733-8.5l-.278-.166-15.32-8.82a9.99 9.99 0 00-3.688-1.249z" fill="#FFF"/><path d="M63.708 57.648l-14.756-7.826v12.011c0 .86.46 1.654 1.207 2.088l6.649 3.864c.37.215 1.255.533 1.255.957l4.494 2.979c0 .19-.377-10.29.208-14.313.198-1.362-.61 0-.409 0s3.291-.312 2.608-.312c0 0-.17 14.721 0 14.625l11.757-7.805a2.416 2.416 0 001.231-2.101V49.724l-14.244 7.924z" fill="#FFF" fill-rule="nonzero"/><path fill="#3D7BE2" d="M55.616 52.075l14.793-.315-3.508 4.228-1.949.307v15.429h-3V57.073z"/><path d="M63.231 54.724l13.721-7.558-12.436-7.045a3.073 3.073 0 00-3.023 0l-12.54 7.104 14.278 7.499z" fill="#FFF" fill-rule="nonzero"/></g></svg>