<svg viewBox="0 0 12 12" xmlns="http://www.w3.org/2000/svg">
<path d="M6 12C9.31371 12 12 9.31371 12 6C12 2.68629 9.31371 0 6 0C2.68629 0 0 2.68629 0 6C0 9.31371 2.68629 12 6 12Z" fill="#0092E4"/>
<path d="M9.436 4.46001L7.398 2.43501C7.15785 2.20857 6.87118 2.03725 6.558 1.93301C5.866 1.70601 5.182 1.89301 4.628 2.45501L2.62 4.50701C2.39415 4.74917 2.22356 5.03748 2.12 5.35201C1.895 6.05001 2.081 6.73801 2.64 7.29501L4.677 9.31801C4.713 9.35301 5.033 9.66301 5.517 9.82201C5.715 9.88701 5.91 9.91901 6.102 9.91801C6.587 9.91401 7.052 9.70401 7.447 9.30101L9.456 7.25001C9.491 7.21301 9.799 6.89101 9.954 6.40401C10.18 5.70401 9.994 5.01601 9.436 4.46001ZM6.174 3.03501C6.402 3.10201 6.574 3.25801 6.587 3.26901L7.189 3.86701L6.032 5.04701L4.858 3.88301L5.454 3.27401C5.615 3.11401 5.839 2.93801 6.174 3.03401V3.03501ZM3.215 5.73901C3.282 5.50901 3.437 5.33801 3.448 5.32401L4.041 4.71801L5.215 5.88301L4.058 7.06401L3.453 6.46401C3.293 6.30201 3.119 6.07401 3.215 5.73901ZM5.901 8.71901C5.673 8.65101 5.502 8.49501 5.488 8.48401L4.886 7.88601L6.043 6.70501L7.217 7.87001L6.621 8.47901C6.461 8.63901 6.234 8.81501 5.901 8.71901ZM8.861 6.01401C8.793 6.24401 8.638 6.41601 8.627 6.43001L8.034 7.03601L6.86 5.87101L8.017 4.69001L8.622 5.29001C8.782 5.45201 8.957 5.67701 8.86 6.01401H8.861Z" fill="white"/>
</svg>
