<svg xmlns="http://www.w3.org/2000/svg" fill="currenColor" viewBox="0 0 18 19"><path fill="#0B0B0D" d="m16.573 5.9-4.541-4.508c-.08-.08-.794-.77-1.872-1.119-1.543-.506-3.068-.089-4.3 1.162L1.384 6.006c-.079.08-.764.799-1.11 1.884-.503 1.553-.09 3.088 1.154 4.328l4.541 4.507c.08.08.794.77 1.872 1.125.44.144.875.215 1.303.212 1.081-.007 2.117-.476 2.996-1.374l4.478-4.57c.079-.081.764-.8 1.11-1.885.503-1.56.09-3.094-1.154-4.334Zm-7.27-3.173c.509.15.89.498.92.523l1.342 1.331-2.578 2.632-2.615-2.595L7.7 3.26c.358-.359.857-.75 1.604-.534ZM2.71 8.752c.15-.511.495-.895.52-.926l1.322-1.35L7.167 9.07l-2.578 2.633-1.348-1.338c-.357-.36-.746-.868-.53-1.614Zm5.986 6.638c-.508-.15-.89-.498-.92-.523l-1.341-1.331 2.578-2.632 2.615 2.595-1.329 1.357c-.357.359-.862.75-1.603.534Zm6.594-6.025c-.15.511-.495.895-.52.926l-1.322 1.35-2.615-2.595 2.578-2.633 1.348 1.338c.357.36.745.862.53 1.614Z"/></svg>