<svg viewBox="0 0 49 48" xmlns="http://www.w3.org/2000/svg"><path fill-rule="evenodd" clip-rule="evenodd" d="M20.535 9.217a3.69 3.69 0 0 1 4.839 4.839l4.195 4.195a3.69 3.69 0 1 1-1.423 1.424l-4.043-4.043a3.676 3.676 0 0 1-1.122.537v11.148a3.693 3.693 0 0 1-1.007 7.243 3.69 3.69 0 0 1-1.006-7.243V16.17a3.692 3.692 0 0 1-2.009-5.681l-4.445-4.445-6.48 3.726a6.78 6.78 0 0 0-3.404 5.817l-.103 11.948a6.78 6.78 0 0 0 3.453 5.962l10.435 5.887a6.83 6.83 0 0 0 6.758-.028l10.74-6.177a6.78 6.78 0 0 0 3.405-5.816l.103-11.948a6.78 6.78 0 0 0-3.454-5.962L25.532 3.565a6.83 6.83 0 0 0-6.758.028l-2.453 1.41 4.214 4.214Zm-.238 3.4a1.678 1.678 0 1 1 3.355 0 1.678 1.678 0 0 1-3.355 0Zm0 18.252a1.678 1.678 0 1 1 3.355 0 1.678 1.678 0 0 1-3.355 0ZM31.37 19.796a1.678 1.678 0 1 0 0 3.356 1.678 1.678 0 0 0 0-3.356Z" fill="#4F5162"/><path fill-rule="evenodd" clip-rule="evenodd" d="M20.535 9.217a3.69 3.69 0 0 1 4.839 4.839l4.195 4.195a3.69 3.69 0 1 1-1.423 1.424l-4.043-4.043a3.676 3.676 0 0 1-1.122.537v11.148a3.693 3.693 0 0 1-1.007 7.243 3.69 3.69 0 0 1-1.006-7.243V16.17a3.692 3.692 0 0 1-2.009-5.681l-4.445-4.445-6.48 3.726a6.78 6.78 0 0 0-3.404 5.817l-.103 11.948a6.78 6.78 0 0 0 3.453 5.962l10.435 5.887a6.83 6.83 0 0 0 6.758-.028l10.74-6.177a6.78 6.78 0 0 0 3.405-5.816l.103-11.948a6.78 6.78 0 0 0-3.454-5.962L25.532 3.565a6.83 6.83 0 0 0-6.758.028l-2.453 1.41 4.214 4.214Zm-.238 3.4a1.678 1.678 0 1 1 3.355 0 1.678 1.678 0 0 1-3.355 0Zm0 18.252a1.678 1.678 0 1 1 3.355 0 1.678 1.678 0 0 1-3.355 0ZM31.37 19.796a1.678 1.678 0 1 0 0 3.356 1.678 1.678 0 0 0 0-3.356Z" fill="url(#a)"/><g clip-path="url(#b)"><path d="M38.161 34.461a.294.294 0 0 0-.188.026.308.308 0 0 0-.15.399l-.002.003.706 1.705a3.604 3.604 0 0 0 1.457-1.83l-1.82-.306-.003.003Zm-2.83.242a.308.308 0 0 0-.356-.234l-.003-.004-1.803.306c.27.749.781 1.387 1.452 1.817l.698-1.689-.005-.007a.305.305 0 0 0 .017-.189Zm1.51.662a.308.308 0 0 0-.542 0h-.002l-.887 1.604a3.611 3.611 0 0 0 2.327.002l-.889-1.606h-.007Zm2.807-3.725-1.364 1.222v.003a.308.308 0 0 0 .122.53l.001.007 1.768.51a3.665 3.665 0 0 0-.527-2.271Zm-2.534.137a.309.309 0 0 0 .49.235l.005.003 1.492-1.059a3.63 3.63 0 0 0-2.093-1.009l.104 1.83h.002Zm-1.581.242a.308.308 0 0 0 .489-.236l.007-.003.104-1.833a3.596 3.596 0 0 0-2.106 1.009l1.503 1.065.003-.002Zm-.801 1.385a.308.308 0 0 0 .12-.53l.002-.007-1.372-1.227a3.596 3.596 0 0 0-.51 2.277l1.758-.507.002-.006Zm1.332.539.506.243.505-.243.125-.544-.35-.437h-.561l-.35.436.125.545Z" fill="#326CE5"/><path d="m44.936 35.017-1.442-6.264a1.125 1.125 0 0 0-.603-.751l-5.837-2.787a1.125 1.125 0 0 0-.97 0l-5.835 2.788a1.126 1.126 0 0 0-.604.751l-1.44 6.264a1.102 1.102 0 0 0 .04.623 1.083 1.083 0 0 0 .175.314l4.04 5.022c.017.022.037.042.056.062a1.11 1.11 0 0 0 .532.315c.093.026.188.039.284.04h.063l6.415-.002a1.083 1.083 0 0 0 .396-.075 1.124 1.124 0 0 0 .209-.104 1.1 1.1 0 0 0 .267-.237l.124-.153 3.915-4.87a1.09 1.09 0 0 0 .216-.456 1.097 1.097 0 0 0 0-.48Zm-6.054 2.436c.016.048.036.095.058.14a.275.275 0 0 0-.027.207c.085.194.189.38.31.554.067.09.13.182.187.279.014.026.032.066.046.094a.35.35 0 1 1-.632.298c-.013-.027-.032-.063-.043-.09a2.917 2.917 0 0 1-.101-.32c-.061-.203-.141-.4-.24-.587a.276.276 0 0 0-.178-.108l-.075-.134a4.521 4.521 0 0 1-3.224-.009l-.079.143a.284.284 0 0 0-.15.074c-.12.195-.21.407-.271.627a2.884 2.884 0 0 1-.1.32l-.044.09a.351.351 0 1 1-.631-.298c.013-.028.03-.068.044-.094.057-.097.12-.19.188-.28.123-.178.229-.369.316-.568a.348.348 0 0 0-.031-.197l.063-.153a4.546 4.546 0 0 1-2.014-2.515l-.152.026a.388.388 0 0 0-.201-.07c-.209.04-.413.1-.61.178a2.925 2.925 0 0 1-.313.12c-.025.007-.061.014-.09.02-.002.002-.004.002-.007.003h-.005a.35.35 0 1 1-.155-.68l.005-.001.003-.001c.03-.007.067-.017.093-.022.111-.015.223-.024.335-.027.212-.014.422-.048.627-.103a.482.482 0 0 0 .15-.151l.146-.043a4.52 4.52 0 0 1 .713-3.151l-.112-.1a.388.388 0 0 0-.07-.202 3.259 3.259 0 0 0-.52-.365 2.92 2.92 0 0 1-.29-.17l-.072-.057-.005-.004a.37.37 0 0 1-.086-.515.337.337 0 0 1 .278-.123.416.416 0 0 1 .244.092c.024.018.056.043.077.061.081.077.158.159.23.245.143.156.3.299.471.425.064.034.139.041.208.02l.126.09a4.493 4.493 0 0 1 2.914-1.401l.008-.148a.381.381 0 0 0 .114-.18 3.27 3.27 0 0 0-.04-.634 2.904 2.904 0 0 1-.047-.332V27.625a.352.352 0 0 1 .492-.356.35.35 0 0 1 .207.356c0 .03.002.071 0 .1-.01.11-.025.222-.047.331-.034.21-.047.422-.04.634.014.071.055.134.114.175l.008.156c1.105.1 2.135.598 2.9 1.4l.133-.094a.388.388 0 0 0 .212-.023c.17-.127.328-.27.47-.426.073-.086.15-.168.232-.245.021-.018.053-.043.077-.061a.35.35 0 1 1 .435.546c-.023.019-.054.045-.077.062-.093.062-.19.118-.29.17a3.27 3.27 0 0 0-.52.364.276.276 0 0 0-.065.198l-.124.111a4.54 4.54 0 0 1 .728 3.144l.14.041a.393.393 0 0 0 .151.152c.206.054.415.089.627.103.112.003.224.011.335.027.03.005.072.017.102.024a.35.35 0 1 1-.156.68h-.005l-.007-.003c-.029-.006-.065-.012-.09-.019a2.936 2.936 0 0 1-.313-.12c-.197-.08-.401-.14-.61-.18a.276.276 0 0 0-.195.073l-.15-.027a4.546 4.546 0 0 1-2.013 2.534Z" fill="#326CE5"/><path d="m45.698 35.176-1.574-6.834a1.228 1.228 0 0 0-.658-.82l-6.368-3.04a1.227 1.227 0 0 0-1.057 0l-6.368 3.043a1.227 1.227 0 0 0-.659.819l-1.57 6.834a1.214 1.214 0 0 0 .234 1.022l4.408 5.48a1.24 1.24 0 0 0 .951.454l7.068-.002a1.242 1.242 0 0 0 .952-.453l4.405-5.48a1.219 1.219 0 0 0 .236-1.023Zm-.762.32a1.122 1.122 0 0 1-.215.456l-3.915 4.87-.123.153a1.102 1.102 0 0 1-.477.341 1.122 1.122 0 0 1-.396.075l-6.415.002h-.063a1.152 1.152 0 0 1-.816-.355c-.02-.02-.039-.04-.056-.062l-4.04-5.023a1.082 1.082 0 0 1-.215-.456 1.103 1.103 0 0 1 0-.48l1.44-6.264a1.127 1.127 0 0 1 .604-.751l5.836-2.788a1.125 1.125 0 0 1 .969 0L42.89 28a1.126 1.126 0 0 1 .603.75l1.442 6.264a1.1 1.1 0 0 1 0 .481Z" fill="#fff" stroke="#fff" stroke-width=".5"/><path d="M42.42 34.514c-.03-.007-.072-.019-.101-.024a2.932 2.932 0 0 0-.335-.027 3.274 3.274 0 0 1-.627-.103.394.394 0 0 1-.15-.151l-.141-.041a4.538 4.538 0 0 0-.728-3.144l.124-.111a.276.276 0 0 1 .066-.198c.16-.139.334-.26.52-.365.099-.051.196-.108.29-.17.022-.016.053-.043.076-.062a.351.351 0 1 0-.435-.546l-.077.062a2.892 2.892 0 0 0-.231.244c-.143.157-.3.3-.471.426a.39.39 0 0 1-.212.023l-.133.095a4.578 4.578 0 0 0-2.9-1.401l-.008-.156a.277.277 0 0 1-.114-.175 3.278 3.278 0 0 1 .04-.633c.022-.11.038-.22.047-.332v-.1a.35.35 0 0 0-.492-.356.351.351 0 0 0-.207.357V27.725c.01.111.025.222.048.332.033.21.046.422.038.634a.38.38 0 0 1-.113.18l-.008.148a4.494 4.494 0 0 0-2.914 1.401 5.873 5.873 0 0 1-.126-.09.276.276 0 0 1-.208-.02 3.26 3.26 0 0 1-.47-.425 2.93 2.93 0 0 0-.23-.244l-.078-.062a.416.416 0 0 0-.244-.092.335.335 0 0 0-.278.123.37.37 0 0 0 .086.515l.005.004c.023.019.051.043.072.058.094.062.19.119.29.17.185.104.359.226.52.365.041.059.066.129.07.201l.112.1a4.52 4.52 0 0 0-.713 3.152l-.146.042a.484.484 0 0 1-.15.151c-.205.055-.415.09-.627.103a2.937 2.937 0 0 0-.335.028c-.027.005-.064.014-.093.021h-.003l-.005.002a.35.35 0 1 0 .155.681h.005l.007-.003c.029-.007.065-.013.09-.02.107-.034.211-.074.314-.12.196-.08.4-.14.609-.18a.387.387 0 0 1 .2.071l.153-.026a4.546 4.546 0 0 0 2.014 2.516l-.063.152c.03.061.04.13.03.197-.086.2-.192.39-.315.569-.068.089-.13.182-.188.279-.014.026-.031.066-.044.094a.35.35 0 1 0 .63.3l.001-.001v-.001c.013-.028.032-.063.043-.09.04-.104.074-.21.101-.32.06-.22.151-.431.27-.627a.284.284 0 0 1 .151-.073l.08-.144a4.521 4.521 0 0 0 3.223.009l.074.134c.072.011.136.05.179.108.099.188.179.385.24.588.027.108.061.215.101.32.011.026.03.062.043.09a.35.35 0 1 0 .632-.3c-.014-.027-.032-.067-.046-.093a2.912 2.912 0 0 0-.187-.279 3.256 3.256 0 0 1-.31-.554.274.274 0 0 1 .027-.206 1.194 1.194 0 0 1-.058-.141 4.545 4.545 0 0 0 2.013-2.533c.046.007.124.02.15.026a.276.276 0 0 1 .195-.073c.209.04.413.1.61.18.102.046.206.086.313.12.025.007.061.013.09.02l.007.002h.005a.35.35 0 1 0 .155-.68Zm-3.319-3.558-1.493 1.058-.005-.002a.308.308 0 0 1-.49-.235l-.105-1.83a3.63 3.63 0 0 1 2.093 1.009Zm-2.812 2.005h.562l.35.437-.126.545-.505.242-.506-.243-.125-.545.35-.436Zm-.529-2.95c.123-.028.248-.05.373-.064l-.104 1.832-.007.004a.307.307 0 0 1-.489.236l-.003.001-1.503-1.065a3.598 3.598 0 0 1 1.733-.944Zm-2.277 1.629 1.371 1.227-.001.007a.308.308 0 0 1-.121.53l-.002.005-1.758.508a3.596 3.596 0 0 1 .51-2.277Zm1.836 3.26-.698 1.688a3.617 3.617 0 0 1-1.452-1.817l1.803-.306.003.004a.307.307 0 0 1 .34.423l.004.007Zm2.063 2.17a3.61 3.61 0 0 1-1.971-.101l.886-1.603h.002a.308.308 0 0 1 .542 0h.007l.889 1.605a3.762 3.762 0 0 1-.355.1Zm1.145-.476-.706-1.705.003-.003a.308.308 0 0 1 .337-.425l.004-.004 1.819.308a3.603 3.603 0 0 1-1.457 1.83Zm1.648-2.683-1.768-.51-.001-.007a.308.308 0 0 1-.121-.529v-.004l1.363-1.22c.418.679.603 1.476.527 2.27Z" fill="#fff"/></g><defs><linearGradient id="a" x1="9.592" y1="2.686" x2="29.244" y2="40.186" gradientUnits="userSpaceOnUse"><stop stop-color="#62F91F"/><stop offset="1" stop-color="#45BD35"/></linearGradient><clipPath id="b"><path fill="#fff" d="M27.026 24h19.046v18.487H27.026z"/></clipPath></defs></svg>