<svg fill="none" viewBox="0 0 34 31" xmlns="http://www.w3.org/2000/svg"><ellipse fill="#eff2f4" rx="15.5165" ry="2.31097" transform="matrix(1 0 0 -1 15.5165 27.9595)"/><rect fill="#629d00" height="12.1968" rx="4" stroke="#629d00" width="25.0905" x="1.32056" y="15.0841"/><rect fill="#69c800" height="12.1968" rx="4" width="25.0905" x="1.32056" y="15.0841"/><rect fill="#aade63" height="9.68568" rx="4" width="22.9997" x="2.50513" y="16.4476"/><path clip-rule="evenodd" d="m6.22638 15.5146c-2.20914 0-4 1.7909-4 4v.78c.06684-2.1505 1.83124-3.8734 3.99804-3.8734h15.34778c2.2092 0 4 1.7909 4 4v3.7304c.0013-.042.002-.0842.002-.1265v-4.5105c0-2.2091-1.7909-4-4-4z" fill="#d6f4bc" fill-rule="evenodd"/><g fill="#7ace00"><ellipse cx="5.92016" cy="21.3074" rx="1.39392" ry="1.43492"/><ellipse cx="22.0898" cy="21.2734" rx="1.39392" ry="1.43492"/><ellipse cx="14.1441" cy="21.3984" rx="3.4848" ry="3.58729"/></g><path clip-rule="evenodd" d="m15.9689 21.7227c-.0384-.1143-.0961-.2211-.1729-.3202s-.1728-.1867-.288-.2668c-.1153-.0762-.2497-.1372-.4033-.1829-.0615-.0153-.1652-.0419-.3073-.0762-.1345-.0343-.2804-.0687-.4302-.1068s-.2842-.0724-.4072-.1029c-.119-.0305-.1882-.0457-.2074-.0495-.1651-.0458-.2996-.1106-.4033-.1982-.1037-.0877-.1536-.2097-.1536-.3621 0-.1105.0269-.202.0807-.2744.0537-.0725.1229-.1296.2074-.1754.0845-.0419.1767-.0724.2765-.0914.0999-.0191.1997-.0305.2958-.0305.2842 0 .5185.0571.7029.1753.1843.1143.288.3163.3111.5946h.8219c0-.2287-.0499-.4307-.1459-.6022-.096-.1716-.2266-.3202-.3918-.4384-.1651-.1181-.3572-.2058-.5723-.2668-.0922-.0228-.1882-.0381-.2881-.0533v-.4155c0-.2096-.1728-.3811-.3841-.3811-.2112 0-.3841.1715-.3841.3811v.4117c-.0883.0114-.1766.0266-.2611.0495-.2074.0496-.3918.1296-.5531.2325-.1614.1067-.2919.2401-.3918.4002-.0999.1639-.1498.3545-.1498.5717 0 .1144.0154.2249.0499.3355.0346.1105.0884.2134.169.3125.0807.0991.1844.1868.3188.2668.1345.08.3035.1448.5032.1944.3265.08.5992.1448.822.1982.2227.0495.4148.1067.5838.1601.096.0343.184.0876.2646.1677.0811.08.1233.2024.1233.3697 0 .08-.0192.1601-.0538.2401-.0345.0801-.0921.1491-.1728.2097-.0807.0609-.1805.1105-.3111.1486-.1268.0381-.2804.0572-.4609.0572-.1652 0-.3227-.0191-.4648-.0534s-.2689-.0915-.3802-.1635c-.1114-.0766-.1959-.1719-.2574-.2901-.0614-.1181-.0922-.2591-.0922-.4265h-.8181c.0038.2707.0576.5028.1652.701.1037.1982.2458.3583.4225.484.1767.1258.3802.2211.6184.2821.1037.027.2151.0457.3264.061v.4154c0 .2097.1729.3812.3841.3812.2113 0 .3841-.1715.3841-.3812v-.4002c.1153-.0114.2343-.0305.3457-.0572.2228-.0495.4225-.1296.5992-.2401s.3188-.2515.426-.4231c.1079-.1711.1617-.3811.1617-.625 0-.1178-.0192-.2325-.0576-.3469z" fill="#fff" fill-rule="evenodd"/><rect fill="#629d00" height="11.9776" rx="4" stroke="#629d00" transform="matrix(.93358043 .35836795 -.35836795 .93358043 3.06957 -1.888755)" width="25.1192" x="6.63019" y="7.33658"/><rect fill="#69c800" height="11.9776" rx="4" transform="matrix(.93358043 .35836795 -.35836795 .93358043 3.06957 -1.888755)" width="25.1192" x="6.63019" y="7.33658"/><rect fill="#aade63" height="9.51161" rx="4" transform="matrix(.93358043 .35836795 -.35836795 .93358043 3.711524 -2.00231)" width="23.026" x="7.25751" y="9.01164"/><path clip-rule="evenodd" d="m11.0596 9.48977c-2.06243-.79169-4.37613.23843-5.16781 2.30083l-.27344.7123c.83332-1.9833 3.09767-2.95914 5.12035-2.1827l14.3533 5.5097c2.0625.7917 3.0926 3.1054 2.3009 5.1678l-1.2624 3.2886c.0164-.0389.0322-.0783.0475-.118l1.5358-4.001c.7917-2.0624-.2385-4.3761-2.3009-5.1678z" fill="#d6f4bc" fill-rule="evenodd"/><ellipse cx="8.73906" cy="14.6924" fill="#7ace00" rx="1.39551" ry="1.40913" transform="matrix(.93358043 .35836795 -.35836795 .93358043 5.84573 -2.155936)"/><ellipse cx="23.8639" cy="20.4625" fill="#7ace00" rx="1.39551" ry="1.40913" transform="matrix(.93358043 .35836795 -.35836795 .93358043 8.918134 -7.192946)"/><ellipse cx="16.3936" cy="17.7263" fill="#7ace00" rx="3.48878" ry="3.52282" transform="matrix(.93358043 .35836795 -.35836795 .93358043 7.441394 -4.697568)"/><path clip-rule="evenodd" d="m17.9849 18.6784c.0043-.1186-.012-.2372-.0489-.3556s-.0958-.2332-.1754-.3479c-.0808-.1113-.185-.2154-.3125-.3125-.0521-.036-.1396-.0976-.2604-.1801-.1136-.0797-.2379-.1635-.3645-.2522s-.2402-.1683-.3443-.2404c-.1006-.0707-.1598-.1094-.1764-.1198-.1383-.1012-.2411-.2089-.3072-.3264-.0661-.1176-.0698-.2474-.0162-.3871.0389-.1014.0962-.1756.172-.2227.0757-.0471.1605-.0747.2555-.0863.0938-.0081.1907-.003.2907.0153.1001.0184.1974.0437.2872.0782.2656.102.4645.2385.5952.4129.1321.171.1579.3934.0816.6568l.7682.2949c.0805-.2097.1049-.4128.0755-.6045s-.0991-.3748-.2119-.5424-.2614-.3169-.441-.45c-.0781-.054-.1625-.1024-.2505-.1522l.1462-.3809c.0738-.1922-.0274-.4115-.2248-.4873-.1975-.0758-.4194.0195-.4932.2117l-.1448.3774c-.0866-.0212-.1745-.039-.2616-.0483-.2113-.029-.4118-.0218-.5987.0147-.1884.04-.3574.1154-.5071.2263-.151.1145-.2647.2713-.3412.4705-.0402.1048-.0648.2116-.0714.3254-.0065.1137.0075.2274.048.3472s.1066.2373.2041.3589c.0975.1217.2326.2417.4019.3588.2769.1905.509.3477.6985.4766.1907.1253.3501.2467.4893.3562.0777.0659.1411.1464.1883.2487.0476.1025.044.2298-.0149.3832-.0281.0734-.0742.1399-.1347.2009-.0605.0609-.1386.1035-.2353.1301-.0969.027-.2077.0366-.3431.0247-.1319-.0105-.2822-.0482-.451-.1129-.1543-.0593-.2948-.1333-.4156-.2157-.1207-.0824-.2191-.1803-.2978-.2863-.0772-.1102-.1226-.2279-.1385-.3583-.0158-.1304.0051-.2707.064-.4241l-.7647-.2935c-.0916.2495-.1231.4816-.0923.7019.0272.2189.1037.4166.2245.5953.1209.1787.2776.3391.4788.4805.0874.062.1849.1191.2836.173l-.1462.3809c-.0737.1922.0274.4115.2249.4873.1974.0757.4193-.0195.4931-.2117l.1409-.3669c.1117.0309.2297.0561.3432.0716.2256.0345.4405.0328.6445-.0052.2041-.0379.3865-.1162.547-.235.1611-.1182.2853-.2914.3712-.5151.0414-.1079.0638-.22.0682-.3386z" fill="#fff" fill-rule="evenodd"/><rect fill="#629d00" height="11.9776" rx="4" stroke="#629d00" transform="matrix(.61566148 .78801075 -.78801075 .61566148 7.543068 -13.465581)" width="25.1192" x="17.5758" y="1"/><rect fill="#69c800" height="11.9776" rx="4" transform="matrix(.61566148 .78801075 -.78801075 .61566148 7.543068 -13.465581)" width="25.1192" x="17.5758" y="1"/><rect fill="#aade63" height="9.51161" rx="4" transform="matrix(.61566148 .78801075 -.78801075 .61566148 8.804198 -12.533461)" width="23.026" x="17.2508" y="2.75891"/><path clip-rule="evenodd" d="m20.2636 5.12695c-1.3601-1.74082-3.8739-2.04948-5.6147-.6894l-.6015.46995c1.7358-1.27109 4.1795-.94137 5.5134.76599l9.4655 12.11531c1.3601 1.7408 1.0515 4.2546-.6894 5.6147l-2.7756 2.1685c.0341-.0249.0678-.0504.1013-.0766l3.3771-2.6385c1.7408-1.36 2.0495-3.8738.6894-5.6147z" fill="#d6f4bc" fill-rule="evenodd"/><ellipse cx="15.595" cy="8.3913" fill="#7ace00" rx="1.39551" ry="1.40913" transform="matrix(.61566148 .78801075 -.78801075 .61566148 12.606194 -9.063928)"/><ellipse cx="25.5876" cy="21.1272" fill="#7ace00" rx="1.39551" ry="1.40913" transform="matrix(.61566148 .78801075 -.78801075 .61566148 26.482761 -12.043307)"/><ellipse cx="20.5935" cy="14.9343" fill="#7ace00" rx="3.48878" ry="3.52282" transform="matrix(.61566148 .78801075 -.78801075 .61566148 19.683264 -10.488073)"/><path clip-rule="evenodd" d="m21.4672 16.5699c.0648-.0994.1119-.2094.1413-.3299.0293-.1205.0379-.2493.0289-.3886-.0121-.137-.0477-.2799-.107-.4288-.0261-.0577-.0694-.1556-.1304-.2885-.0564-.1268-.1198-.2627-.1826-.4039s-.1192-.268-.1713-.3834c-.0498-.1124-.0806-.1761-.0895-.1936-.0664-.1579-.0991-.3032-.0952-.438s.0675-.2479.1855-.3401c.0855-.0668.1729-.1009.2621-.1023.0892-.0013.176.0186.2635.0576.0845.0414.1649.0956.2412.1629s.1467.1391.2059.2149c.1752.2242.2754.4436.2976.6605.0251.2146-.0673.4186-.2684.605l.5066.6484c.177-.1383.3026-.2998.3761-.4792.0736-.1795.1081-.3724.0977-.5741-.0103-.2018-.0609-.4063-.1463-.6128-.0391-.0866-.0865-.1715-.1362-.2595l.3215-.2512c.1622-.1268.1884-.3668.0582-.5335s-.3695-.1993-.5317-.0726l-.3186.2489c-.0633-.0628-.1295-.1232-.1993-.1761-.1662-.1337-.3417-.2307-.5208-.2958-.182-.0627-.3658-.0851-.5512-.0671-.1884.0203-.3666.0962-.5348.2275-.0884.0691-.1645.1481-.2287.2422-.0643.0941-.1108.1987-.1377.3223-.027.1235-.0309.2583-.01.4128.0209.1544.0749.3269.1597.5145.1393.3059.2572.5603.3533.7683.0989.2057.1731.3917.2359.5573.0327.0965.0456.1982.0334.3102-.012.1123-.0807.2196-.2101.3208-.062.0484-.1358.0816-.219.1028-.0832.0211-.1721.0173-.2688-.0097-.0969-.0267-.1968-.0755-.3067-.1555-.1077-.077-.2171-.1867-.3284-.3291-.1018-.1303-.1841-.266-.2452-.3989-.061-.1328-.0949-.2674-.1078-.3988-.0094-.1342.0123-.2585.0658-.3784.0536-.1199.1438-.2295.2733-.3306l-.5043-.6454c-.207.1666-.3535.3494-.4406.554-.0895.2017-.1257.4106-.1142.626.0116.2154.0633.4337.1629.6584.043.0982.0972.1973.1541.2944l-.3215.2512c-.1623.1268-.1885.3668-.0582.5335.1302.1666.3694.1993.5316.0726l.3097-.242c.0799.084.1681.1664.2574.2381.1756.1458.3607.255.5551.3276.1944.0725.3912.0994.5899.0802.199-.0183.3947-.1028.5834-.2503.0912-.0712.1681-.1557.2329-.2552z" fill="#fff" fill-rule="evenodd"/></svg>