<svg xmlns="http://www.w3.org/2000/svg" viewBox="0 0 24 25">
  <path fill="#fff" fill-rule="evenodd" stroke="#fff" stroke-width=".139" d="M11.857 6.682c3.539-.202 6.959 1.906 9.516 3.805.911.677 2.844 1.972 2.25 3.031-.767.884-2.22.441-4.62 1.59-3.186 1.523-3.395 2.43-7.059 2.456-3.79.026-3.876-1.014-7.233-2.51-2.65-1.181-4.118-.651-4.432-1.576-.428-1.215 1.277-2.335 2.209-2.99 4.228-2.978 6.072-3.81 9.369-3.806Z" clip-rule="evenodd"/>
  <path fill="url(#a)" d="M11.944 15.983c2.38 0 4.31-1.887 4.31-4.216 0-2.328-1.93-4.216-4.31-4.216s-4.31 1.888-4.31 4.216c0 2.329 1.93 4.216 4.31 4.216Z"/>
  <path stroke="#004C78" stroke-width="1.672" d="M11.944 15.707c2.21 0 4-1.746 4-3.9s-1.79-3.9-4-3.9-4 1.746-4 3.9 1.79 3.9 4 3.9Z" opacity=".3"/>
  <path stroke="#002040" stroke-width=".139" d="M11.944 15.983c2.38 0 4.31-1.888 4.31-4.216 0-2.329-1.93-4.216-4.31-4.216s-4.31 1.887-4.31 4.216 1.93 4.216 4.31 4.216Z"/>
  <path stroke="#002040" stroke-width=".139" d="M11.95 15.901c2.31 0 4.183-1.827 4.183-4.08 0-2.254-1.872-4.082-4.183-4.082-2.31 0-4.183 1.828-4.183 4.081 0 2.254 1.873 4.081 4.183 4.081Z"/>
  <path stroke="#002040" stroke-width=".139" d="M11.955 15.8c2.235 0 4.046-1.761 4.046-3.934s-1.811-3.934-4.046-3.934c-2.234 0-4.046 1.761-4.046 3.934S9.721 15.8 11.955 15.8Z"/>
  <path stroke="#002040" stroke-width=".139" d="M11.964 13.805c1.07 0 1.938-.868 1.938-1.94a1.939 1.939 0 1 0-1.938 1.94Z"/>
  <path stroke="#002040" stroke-width=".139" d="M11.946 14.219a2.356 2.356 0 0 0 2.36-2.353c0-1.3-1.057-2.353-2.36-2.353a2.356 2.356 0 0 0-2.36 2.353c0 1.3 1.057 2.353 2.36 2.353Z"/>
  <path stroke="#002040" stroke-width=".139" d="M11.937 14.596a2.76 2.76 0 0 0 2.764-2.757 2.76 2.76 0 0 0-2.764-2.757 2.76 2.76 0 0 0-2.763 2.757 2.76 2.76 0 0 0 2.763 2.757Z"/>
  <path stroke="#002040" stroke-width=".139" d="M11.964 14.915c1.735 0 3.141-1.378 3.141-3.078s-1.406-3.078-3.14-3.078c-1.735 0-3.142 1.378-3.142 3.078s1.407 3.078 3.141 3.078Z"/>
  <path stroke="#002040" stroke-width=".139" d="M11.944 15.216c1.92 0 3.475-1.52 3.475-3.395s-1.556-3.394-3.475-3.394c-1.92 0-3.475 1.52-3.475 3.394 0 1.875 1.556 3.395 3.475 3.395Z"/>
  <path stroke="#002040" stroke-width=".139" d="M11.937 15.444c2.05 0 3.711-1.613 3.711-3.603 0-1.99-1.661-3.603-3.71-3.603-2.05 0-3.712 1.613-3.712 3.603 0 1.99 1.662 3.603 3.711 3.603Z"/>
  <path stroke="#002040" stroke-width=".139" d="M11.944 15.646c2.157 0 3.906-1.706 3.906-3.812 0-2.105-1.748-3.812-3.906-3.812-2.157 0-3.906 1.707-3.906 3.812 0 2.106 1.749 3.812 3.906 3.812Zm-1.163-5.011L9.13 8.561m1.516 2.182L8.725 8.911m2.209 1.572L9.389 8.355m1.742 2.038-1.49-2.209m1.759 2.075L9.947 8.005m.654 2.9L8.464 9.244m2.048 1.805-2.308-1.41m2.236 1.589-2.46-1.167m2.397 1.329-2.56-.916m2.497 1.069-2.604-.611m2.586.799-2.649-.386m2.667.548-2.685-.09m2.694.269-2.676.17m2.694-.035-2.604.476m2.649-.305-2.523.754m2.613-.592-2.46.987m2.523-.826-2.3 1.24m2.381-1.123-2.11 1.508m2.235-1.346L8.77 14.64m2.1-1.562-1.76 1.85m1.869-1.742-1.527 2.038m1.679-1.93L9.847 15.44m1.437-2.074-1.042 2.263m1.204-2.192-.809 2.362m.997-2.281-.566 2.362m.746-2.335-.323 2.416m.457-2.389-.004 2.411m.157-2.402.297 2.37m-.144-2.406.584 2.344m-.423-2.452.836 2.317m-.683-2.406 1.096 2.28m-.925-2.352 1.329 2.155m-1.177-2.254 1.554 2.039m-1.392-2.129 1.751 1.85m-1.634-1.976 1.94 1.67m-1.85-1.795 2.137 1.463m-1.994-1.589 2.2 1.221m-2.155-1.383 2.38.997m-2.317-1.167 2.488.799m-2.443-.952 2.577.467m-2.55-.602 2.64.135m-2.623-.368 2.65-.036m-2.658-.108 2.64-.332m-2.676.179 2.613-.628m-2.622.467 2.505-.907m-2.595.736 2.425-1.167m-2.479.988 2.29-1.374m-2.397 1.248 2.146-1.625M13.17 10.77l1.976-1.814m-2.111 1.653 1.823-1.94m-1.985 1.841 1.68-2.102m-1.778 1.976 1.428-2.218m-1.707 2.11L13.8 7.95m-1.483 2.21 1.041-2.39m-1.238 2.354.763-2.46m-.953 2.433-.008-2.542m-.054 2.551-.485-2.542m-.97.252 1.14 2.353m-.628-2.506.781 2.488m.314-.036.369-2.533"/>
  <path fill="#fff" d="M8.2 9.41c.129-.196.154-.44.309-.623.165-.195.377-.445.582-.6.265-.2.655-.358.965-.471.225-.083.448-.118.685-.177.554-.14 1.09-.2 1.67-.177.495.02 1.01.109 1.455.325.255.124.478.302.704.453.206.137.348.25.508.425.167.182.469.524.455.784-.933-.31-1.84-.581-2.83-.612-.974-.03-2.295.033-3.002.171-.425.083-1.027.3-1.515.502m1.989 6.232a8.373 8.373 0 0 0 1.877.18c.703-.02 1.08-.077 1.888-.265-.376.432-.62.503-1.106.59-.4.072-.817-.008-1.225-.006-.336.002-.753.04-1.061-.1-.153-.07-.169-.172-.268-.273"/>
  <path fill="url(#b)" fill-rule="evenodd" d="M11.854 6.711c3.54-.202 6.962 1.877 9.52 3.776.91.677 2.843 1.972 2.249 3.031-.767.884-2.22.441-4.62 1.59-3.186 1.523-3.395 2.43-7.059 2.456-3.79.026-3.876-1.014-7.233-2.51-2.65-1.181-4.118-.651-4.432-1.576-.428-1.215 1.277-2.335 2.209-2.99 4.228-2.978 6.07-3.78 9.366-3.777Z" clip-rule="evenodd" opacity=".6"/>
  <path fill="url(#c)" fill-rule="evenodd" d="M11.89 8.667c2.33-.107 4.086.35 8.796 3.733.328.236 1.481.708 1.253.822-.566.283-1.07-.006-2.357.35-2.454.679-5.062 2.256-7.642 2.249-2.607-.008-3.732-.983-7.741-2.236-.862-.269-2.02-.12-2.236-.323-.287-.268.927-.593 1.329-.872 5.432-3.774 6.275-3.725 8.597-3.723Z" clip-rule="evenodd" opacity=".4"/>
  <g opacity=".5">
    <path fill="#fff" fill-rule="evenodd" d="M13.246 10.017c-.077-.403-.402-.57-.692-.526Z" clip-rule="evenodd"/>
    <path fill="#fff" d="M13.766 9.877c-.103-.475-.536-.643-.984-.587-.231.03-.516.086-.697.245-.177.156.156.167.242.156.103-.012-.095-.004.009 0-.075-.003.018.006.031.009.043.01.09.04.135.07.13.089.191.238.223.386.033.151.486.032.561.011.088-.023.514-.134.48-.29Z"/>
  </g>
  <g opacity=".58">
    <path fill="url(#d)" d="M13.6 11.836c0 .948-.735 1.716-1.643 1.716-.907 0-1.643-.768-1.643-1.716 0-.947.736-1.715 1.643-1.715.908 0 1.644.768 1.644 1.715Z"/>
    <path stroke="#fff" stroke-width=".139" d="m11.946 9.513-.002 4.645"/>
    <path stroke="#fff" stroke-width=".223" d="m9.73 11.866 4.495-.01" opacity=".75"/>
    <path stroke="#fff" stroke-width=".223" d="M11.955 12.625c.408 0 .739-.346.739-.773 0-.426-.33-.772-.739-.772-.408 0-.738.346-.738.772 0 .427.33.773.738.773Z" opacity=".76"/>
    <path stroke="#fff" stroke-width=".223" d="M11.95 13.518c.905 0 1.637-.75 1.637-1.675s-.732-1.675-1.636-1.675c-.904 0-1.637.75-1.637 1.675s.733 1.675 1.637 1.675Z" opacity=".79"/>
    <path fill="#fff" stroke="#fff" stroke-width=".139" d="M11.94 12.095c.143 0 .26-.113.26-.252a.256.256 0 0 0-.26-.251.256.256 0 0 0-.26.251c0 .14.116.252.26.252Z"/>
  </g>
  <path stroke="#004C78" stroke-width=".139" d="M11.857 6.682c3.539-.202 6.959 1.906 9.516 3.805.911.677 2.844 1.972 2.25 3.031-.767.884-2.22.441-4.62 1.59-3.186 1.523-3.395 2.43-7.059 2.456-3.79.026-3.876-1.014-7.233-2.51-2.65-1.181-4.118-.651-4.432-1.576-.428-1.215 1.277-2.335 2.209-2.99 4.228-2.978 6.072-3.81 9.369-3.806Z" clip-rule="evenodd" opacity=".8"/>
  <path stroke="#004C78" stroke-width=".139" d="M11.81 6.918c3.376-.192 6.651 1.79 9.091 3.589.87.64 2.898 1.886 2.331 2.89-.731.837-2.277.461-4.566 1.55-3.04 1.443-3.267 2.291-6.762 2.316-3.616.025-3.748-.967-6.951-2.384C2.424 13.76.975 14.186.656 13.316c-.39-1.064 1.338-2.188 2.227-2.81 4.034-2.82 5.781-3.591 8.926-3.588Z" clip-rule="evenodd" opacity=".8"/>
  <path stroke="#004C78" stroke-width=".139" d="M11.85 7.039c3.28-.189 6.451 1.698 8.821 3.47.845.632 3.097 2.053 2.319 2.874-.728.768-2.266.429-4.49 1.5-2.952 1.423-3.173 2.205-6.568 2.229-3.512.025-3.64-.899-6.752-2.295-2.456-1.102-3.972-.685-4.282-1.541-.379-1.049 1.408-2.154 2.272-2.767 3.918-2.778 5.625-3.473 8.68-3.47Z" clip-rule="evenodd" opacity=".8"/>
  <path stroke="#004C78" stroke-width=".139" d="M11.842 6.802c3.477-.197 6.806 1.848 9.318 3.704.895.661 2.828 1.912 2.244 2.948-.753.863-2.166.482-4.54 1.553-3.158 1.425-3.335 2.374-6.934 2.4-3.723.026-3.852-1.02-7.107-2.453C2.245 13.82.78 14.234.47 13.414.043 12.29 1.694 11.21 2.661 10.52c3.976-2.84 5.942-3.72 9.18-3.718Z" clip-rule="evenodd" opacity=".8"/>
  <path stroke="#004C78" stroke-width=".084" d="M11.877 8.46c2.54 0 4.31.357 9.524 4.132.355.256 1.252.617 1.05.805-.6.56-.832.011-2.227.397-2.66.736-5.488 2.484-8.286 2.476-2.826-.007-3.907-1.076-8.251-2.442-.591-.186-1.93-.004-2.21-.417-.237-.353.65-.557 1.085-.86 5.89-4.092 6.797-4.09 9.315-4.09Z" clip-rule="evenodd" opacity=".7"/>
  <path stroke="#004C78" stroke-width=".084" d="M11.87 8.527c2.477-.004 4.337.35 9.342 4.034.346.254 1.255.613 1.131.796-.31.457-.992.043-2.25.404-2.586.74-5.415 2.384-8.154 2.405-2.756.02-3.9-1.04-8.158-2.379-.579-.182-1.913-.026-2.196-.363-.268-.32.739-.607 1.165-.903 5.772-4.01 6.68-3.99 9.12-3.994Z" clip-rule="evenodd" opacity=".7"/>
  <path stroke="#004C78" stroke-width=".084" d="M11.883 8.592c2.409 0 4.284.32 9.144 3.938.338.25 1.29.652 1.168.813-.27.361-1.073.05-2.277.377-2.518.687-5.292 2.35-7.979 2.343-2.715-.008-3.865-1.004-8.037-2.316-.567-.178-1.912-.067-2.195-.336-.296-.282.81-.63 1.227-.92 5.657-3.93 6.532-3.9 8.95-3.9Z" clip-rule="evenodd" opacity=".7"/>
  <path stroke="#004C78" stroke-width=".084" d="M11.887 8.659c2.393-.007 4.118.273 8.96 3.853.33.245 1.438.686 1.213.818-.552.323-.984-.001-2.303.35-2.514.669-5.184 2.302-7.818 2.295-2.66-.008-3.867-.997-7.956-2.282-.556-.175-1.818-.067-2.142-.323-.313-.248.864-.611 1.274-.896 5.543-3.851 6.402-3.809 8.772-3.815Z" clip-rule="evenodd" opacity=".7"/>
  <path stroke="#004C78" stroke-width=".084" d="M11.892 8.721c2.331-.012 4.113.318 8.794 3.76.326.24 1.481.707 1.253.822-.566.282-1.07-.006-2.357.35-2.454.679-5.062 2.255-7.642 2.248-2.607-.007-3.732-.982-7.741-2.235-.862-.27-2.033-.109-2.236-.323-.243-.256.927-.593 1.329-.872 5.432-3.774 6.278-3.738 8.6-3.75Z" clip-rule="evenodd" opacity=".7"/>
  <path stroke="#004C78" stroke-width=".139" d="M15.527 15.148c.534.313.93.606.687 1.455m.633-.323c.243-.7-.301-1.388-.673-1.388m1.266 1.038c.256-.607-.337-1.227-.647-1.307m1.28.956c.148-.647-.364-1.091-.633-1.185m1.212.876a.952.952 0 0 0-.646-1.105m1.172.835c.107-.673-.189-1.037-.472-1.104m.916.915c.31-.66-.067-1.05-.215-1.131m.686.97c.418-.768.135-1.065-.026-1.105m.673-.095c.404.513-.036 1.065-.08 1.065m.646-1.078c.404.458-.006.903-.014.903m.498-.97c.297.485-.041.876-.093.876m.242-.943c.445.202.593.579.58.781m-.553-.849c0 .03.795.162 1.751.054m-.175-.822c-.175.243-.777.607-1.738.607m1.132-1.334c0 .655-.741.876-1.388 1.186m.755-1.766c0 .902-.714 1.24-1.213 1.537m.54-2.007c0 .938-.58 1.373-1.065 1.697m.485-2.142c0 .953-.525 1.414-1.078 1.724m.485-2.142c0 .953-.525 1.36-1.064 1.725m.364-2.196c0 1.042-.364 1.576-.849 1.886m.148-2.344a2.065 2.065 0 0 1-.646 1.994m-.135-2.452c.431.876-.188 1.67-.471 2.088M17.71 8.17c.282 1.105-.243 1.805-.566 1.994m-.149-2.357c.337 1.05-.202 1.67-.498 2.007m-.094-2.263c.215.822-.202 1.738-.54 1.953M7.458 7.492c-.17 1.168.36 1.886.548 2.021M6.902 7.744c-.315 1.159.341 1.958.476 2.092M6.255 8.058c-.368 1.14.323 1.94.512 2.12M5.555 8.453c-.26 1.087.377 1.913.583 2.129M4.845 8.894c-.072 1.086.458 1.912.71 2.065M4.127 9.351c-.189.943.557 1.778.889 1.931M3.453 9.81c-.125.96.674 1.57 1.096 1.786m-1.706-1.373a1.9 1.9 0 0 0 1.14 1.76m-1.724-1.32c-.063.951.673 1.59 1.131 1.733m-1.679-1.374c-.072.996.7 1.428 1.069 1.706M.93 11.713c0 .665.772.934 1.4 1.204m-2.002-.422c0 .317.746.494 1.706.574m-1.822.207s.772.134 1.706 0m-.584.834c0-.424.323-.7.629-.767m.134.058c-.251.467.065.898.144.898m.314-.835c-.332.476.02.898.045.898m.539-.88c-.377.548.052 1.033.117 1.033m.484-.961c-.358.575.02 1.114.046 1.114m.511.215c-.314-.682.065-1.15.144-1.15M4.8 15.09c-.296-.647.145-1.14.324-1.14m.107 1.346c0-.61.297-1.05.602-1.104m-.009 1.401c-.126-.674.332-1.096.62-1.159m-.045 1.455c-.126-.754.35-1.122.655-1.23m-.071 1.562c-.054-.754.386-1.23.736-1.302m-.162 1.625c-.134-.853.422-1.302.79-1.383" opacity=".8"/>
  <path fill="url(#e)" fill-rule="evenodd" stroke="#004C78" stroke-width=".139" d="M20.904 12.762c.097.067.192.105.298.163.085.047.173.09.26.137.066.036.19.111.115.2-.049.057-.167.048-.237.057a1.62 1.62 0 0 1-.355 0c-.135-.011-.276.02-.413.02-.099 0-.198.005-.296.005-.035 0-.08.008-.104-.023-.025-.032-.007-.068.012-.095.024-.032.046-.075.074-.1.025-.022.059-.037.084-.057.062-.048.083-.098.028-.16-.054-.06-.094-.104-.097-.19-.003-.111.067-.134.161-.158.141-.037.13-.012.247.055.057.033.196.127.223.146Z" clip-rule="evenodd" opacity=".5"/>
  <path fill="#262261" d="M20.634 13.037c-.016.109.114.113.191.113a.188.188 0 0 0 .103-.027c.022-.015.02-.035-.01-.035-.05 0-.152.003-.14-.075.006-.038-.138-.012-.144.024Z" opacity=".5"/>
  <path stroke="#1B75BC" stroke-width=".056" d="M20.877 12.835c.071.049.14.077.217.119l.19.1c.049.025.14.08.084.145-.035.042-.122.035-.173.042a1.24 1.24 0 0 1-.259 0c-.098-.008-.2.015-.3.015-.073 0-.145.003-.216.003-.026 0-.059.006-.076-.017-.018-.024-.006-.05.009-.07.017-.022.033-.054.053-.072.019-.016.043-.027.062-.041.045-.035.06-.072.02-.117-.04-.044-.068-.076-.07-.14-.003-.08.048-.096.117-.114.103-.026.094-.009.18.04.041.024.143.093.162.107Z" clip-rule="evenodd" opacity=".5"/>
  <path stroke="#1B75BC" stroke-width=".056" d="M20.844 12.914c.047.033.092.05.143.078.04.023.083.044.124.066.032.017.092.053.055.095-.023.028-.08.023-.113.028a.82.82 0 0 1-.17 0c-.064-.006-.132.01-.197.01l-.142.002c-.017 0-.038.004-.05-.011-.012-.016-.003-.033.006-.046.011-.015.022-.035.035-.047.013-.011.029-.019.04-.028.03-.023.04-.047.014-.076-.026-.03-.045-.05-.046-.091-.002-.054.032-.064.077-.076.067-.017.061-.006.118.027.027.015.094.06.106.07Z" clip-rule="evenodd" opacity=".5"/>
  <path fill="url(#f)" fill-rule="evenodd" stroke="#004C78" stroke-width=".139" d="M2.901 12.806c-.1.065-.194.1-.302.155-.087.045-.175.086-.263.13-.068.034-.194.107-.121.197.047.059.166.053.236.064.11.018.245.016.355.01.135-.009.275.027.412.03.098.003.198.01.296.012.035.001.08.01.104-.02.026-.032.01-.068-.01-.095-.022-.033-.043-.076-.07-.102-.025-.023-.058-.039-.083-.06-.06-.048-.08-.1-.024-.16.056-.059.097-.101.102-.188.006-.11-.06-.153-.157-.162-.125-.01-.12.015-.244.062-.06.022-.203.11-.23.127Z" clip-rule="evenodd" opacity=".5"/>
  <path fill="#262261" d="M3.018 13.094a.065.065 0 0 1-.004.039s-.006.008-.003.005c.006-.005.015-.006.022-.007-.018.004-.036.003-.063.002a.183.183 0 0 0-.103.028c-.023.015-.02.034.01.034.09.003.304-.005.287-.14-.004-.031-.15-.001-.146.04Z" opacity=".5"/>
  <path stroke="#1B75BC" stroke-width=".056" d="M2.926 12.88c-.072.047-.142.073-.22.113l-.192.095c-.05.024-.142.077-.088.143.034.043.12.038.171.047.08.013.18.011.26.006.098-.005.2.02.3.023.072.002.144.007.215.009.026 0 .058.007.076-.015.02-.023.007-.05-.007-.07-.016-.023-.031-.055-.051-.073-.018-.017-.042-.029-.06-.044-.045-.036-.06-.073-.018-.117.04-.043.07-.074.074-.137.005-.08-.046-.098-.114-.118-.102-.029-.094-.011-.181.036a3.543 3.543 0 0 0-.165.102Z" clip-rule="evenodd" opacity=".5"/>
  <path stroke="#1B75BC" stroke-width=".056" d="M2.957 12.96c-.048.031-.093.048-.145.074l-.126.062c-.032.017-.093.051-.058.094.023.028.08.026.113.031a.82.82 0 0 0 .17.005c.065-.004.132.013.197.014l.142.006c.016 0 .038.005.05-.01.012-.015.004-.032-.005-.045-.01-.016-.02-.037-.034-.049-.012-.01-.028-.019-.04-.028-.028-.024-.038-.048-.011-.077.027-.028.046-.049.049-.09.003-.053-.03-.065-.075-.077-.067-.02-.062-.008-.12.023a2.155 2.155 0 0 0-.107.067Z" clip-rule="evenodd" opacity=".5"/>
  <defs>
    <linearGradient id="b" x1="11.973" x2="11.973" y1="6.698" y2="17.564" gradientUnits="userSpaceOnUse">
      <stop offset=".472" stop-color="#C7E9F2"/>
      <stop offset=".57" stop-color="#B2DFF1"/>
      <stop offset="1" stop-color="#45BEEE"/>
    </linearGradient>
    <linearGradient id="c" x1="11.944" x2="11.944" y1="15.821" y2="8.654" gradientUnits="userSpaceOnUse">
      <stop offset=".418" stop-color="#fff"/>
      <stop offset=".492" stop-color="#DEF1F8"/>
      <stop offset=".669" stop-color="#9CD7EC"/>
      <stop offset=".819" stop-color="#65C7E5"/>
      <stop offset=".934" stop-color="#34BEE0"/>
      <stop offset="1" stop-color="#04BBDF"/>
    </linearGradient>
    <linearGradient id="e" x1="21.601" x2="20.16" y1="12.944" y2="12.944" gradientUnits="userSpaceOnUse">
      <stop stop-color="#fff"/>
      <stop offset=".114" stop-color="#E0EDF4"/>
      <stop offset=".337" stop-color="#AACEE1"/>
      <stop offset=".544" stop-color="#80B5D3"/>
      <stop offset=".731" stop-color="#61A3C8"/>
      <stop offset=".889" stop-color="#4F98C1"/>
      <stop offset="1" stop-color="#4894BF"/>
    </linearGradient>
    <linearGradient id="f" x1="2.2" x2="3.64" y1="12.978" y2="13.016" gradientUnits="userSpaceOnUse">
      <stop stop-color="#fff"/>
      <stop offset=".114" stop-color="#E0EDF4"/>
      <stop offset=".337" stop-color="#AACEE1"/>
      <stop offset=".544" stop-color="#80B5D3"/>
      <stop offset=".731" stop-color="#61A3C8"/>
      <stop offset=".889" stop-color="#4F98C1"/>
      <stop offset="1" stop-color="#4894BF"/>
    </linearGradient>
    <radialGradient id="a" cx="0" cy="0" r="1" gradientTransform="translate(11.944 11.767) scale(4.26358)" gradientUnits="userSpaceOnUse">
      <stop offset=".533" stop-color="#1B617E"/>
      <stop offset=".563" stop-color="#457E96"/>
      <stop offset=".598" stop-color="#709CAE"/>
      <stop offset=".637" stop-color="#97B7C4"/>
      <stop offset=".678" stop-color="#B7CDD6"/>
      <stop offset=".722" stop-color="#D1DFE5"/>
      <stop offset=".77" stop-color="#E6EEF1"/>
      <stop offset=".824" stop-color="#F4F7F9"/>
      <stop offset=".89" stop-color="#FCFDFE"/>
      <stop offset="1" stop-color="#fff"/>
    </radialGradient>
    <radialGradient id="d" cx="0" cy="0" r="1" gradientTransform="matrix(1.65155 0 0 1.70736 11.957 11.836)" gradientUnits="userSpaceOnUse">
      <stop offset=".802" stop-color="#091520"/>
      <stop offset=".824" stop-color="#0D1925"/>
      <stop offset=".854" stop-color="#162431"/>
      <stop offset=".888" stop-color="#233445"/>
      <stop offset=".927" stop-color="#324B65"/>
      <stop offset=".968" stop-color="#436A93"/>
      <stop offset="1" stop-color="#4D88C7"/>
    </radialGradient>
  </defs>
</svg>
