<svg viewBox="0 0 28 26" xmlns="http://www.w3.org/2000/svg"><path d="M20 12h8v4h-8v-4zM1.333 21.333H28v4H1.333v-4zM22.667 1.333H28v4h-5.333v-4z" fill="#CE0E19"/><path d="M5.103 7.24L2.279 8.263c.042.45.115.9.22 1.339l2.677-.973a5.623 5.623 0 01-.073-1.39zM17.567 4.123a8.199 8.199 0 00-.69-1.17l-2.824 1.024c.324.335.607.711.826 1.119l2.688-.973z" fill="#AA1017"/><path d="M11.366 3.318a5.422 5.422 0 011.527 1.088l2.823-1.025C13.133-.247 8.093-1.084 4.465 1.499a8.064 8.064 0 00-3.357 7.204l2.813-1.035c.21-2.875 2.719-5.04 5.605-4.83.638.052 1.255.219 1.84.48zM2.677 9.54L0 10.512c.251.983.68 1.903 1.255 2.73l2.813-1.025A5.296 5.296 0 012.677 9.54zM14.377 8.484a5.144 5.144 0 01-.47 1.809 5.25 5.25 0 01-6.964 2.54 5.28 5.28 0 01-1.527-1.087l-2.823 1.035a8.01 8.01 0 003.137 2.614c4.036 1.883 8.836.136 10.728-3.9a7.967 7.967 0 00.722-4.026l-2.803 1.015zM15.068 5.033l-2.677.973c.502.899.732 1.924.659 2.948l2.812-1.024a8.03 8.03 0 00-.794-2.897z" fill="#CE0E19"/><path d="M5.092 7.814c-.01-.188 0-.376.01-.564L2.28 8.275c.01.177.042.355.063.533l2.75-.994zM17.159 3.381c-.094-.146-.178-.282-.282-.429l-2.824 1.025c.126.125.24.261.345.397l2.76-.993z" fill="#8B070F"/><path d="M2.593 12.77c.22.304.46.597.722.869l3.063-1.12a5.361 5.361 0 01-.972-.773l-2.813 1.025zM17.18 7.46l-2.813 1.025a5.225 5.225 0 01-.24 1.202l3.063-1.119a7.81 7.81 0 00-.01-1.108z" fill="#AA1017"/></svg>