<svg fill-rule="evenodd" viewBox="0 0 24 24" xmlns="http://www.w3.org/2000/svg"><path d="m4.25 6.947-.002-.001c-.49-.27-.5-.974-.018-1.257l2.89-1.673 4.077-2.36c.47-.272.773-.313 1.258-.04l4.277 2.413 3.18 1.794c.401.226.393.808-.014 1.023l-3.149 1.666-2.613 1.382-2.062 1.091c-.137.073-.302.072-.438-.003l-4.53-2.474-2.855-1.56z" fill="#edc100"/><path d="m17.398 9.748-2.613 1.382-2.062 1.091-.178.094v5.406 3.847c0 .355.38.58.69.407l3.5-1.952 4.628-2.581c.147-.082.238-.237.239-.406v-.001-4.992-3.36-.002c-.001-.526-.558-.862-1.021-.617l-.033.017-.018.009-3.131 1.657z" fill="#fff"/><path d="m2.393 12.035v-3.239c.002-.572.611-.935 1.113-.664l.003.002.075.041 2.855 1.56 4.712 2.574v5.412 3.819c0 .358-.385.582-.695.405l-3.338-1.917-4.491-2.578a.47.47 0 0 1 -.234-.405z" fill="#f7d900"/><path d="m13.064.354 4.351 2.454 3.179 1.793.002.001c1.885.997 2.466 1.579 2.399 4.078v.002 3.36 4.992.003c0 .8-.514 1.382-.956 1.627l-4.628 2.581-4.02 2.236c-1.336.703-1.944.677-3.103 0l-.278-.168-3.584-2.072-4.491-2.578c-.354-.242-.935-.825-.935-1.616v-.002-1.422-6.823-.006c0-2.612.581-3.195 2.531-4.315l.007-.004 2.886-1.671 4.231-2.45c.821-.475 1.578-.469 2.409 0zm-8.816 6.592.002.001 2.855 1.56 4.53 2.474a.46.46 0 0 0 .438.003l2.062-1.091 2.613-1.382 3.149-1.666c.407-.215.415-.797.014-1.023l-3.18-1.794-4.277-2.413c-.484-.273-.788-.232-1.258.04l-4.077 2.36-2.89 1.673c-.482.283-.473.987.018 1.257zm-1.855 1.85v3.238 5.01a.47.47 0 0 0 .234.405l4.491 2.578 3.338 1.917c.31.178.695-.047.695-.405v-3.818-5.412l-4.712-2.574-2.855-1.56-.075-.041-.003-.002c-.501-.271-1.11.092-1.113.664zm12.392 2.333 2.613-1.382 3.131-1.657.018-.009.033-.017c.463-.245 1.02.092 1.021.617v.002 3.36 4.992.002c-.001.169-.092.324-.239.406l-4.628 2.581-3.5 1.952c-.31.173-.69-.052-.69-.408v-3.847-5.406l.178-.094 2.062-1.091zm-9.227 2.964c.365.409.613.81.525 1.441-.713-.212-1.303-.565-1.835-.986-.285-.226.011-.73.44-.783.323-.04.586.102.871.328zm3.128 1.823c.365.409.613.81.525 1.441-.713-.212-1.303-.564-1.835-.986-.285-.226.011-.73.44-.783.323-.04.586.102.871.328z" fill="#08192c"/></svg>