<svg xmlns="http://www.w3.org/2000/svg" width="24" height="24" viewBox="0 0 40 40"  fill="none">
<path d="M6.39316 13.0517C3.58349 13.3039 1.16638 15.2651 0.313949 17.9772C0.0559747 18.7953 -0.016931 19.3669 0.0167178 20.3363C0.0503666 21.2833 0.168137 21.8605 0.499017 22.7234C0.678477 23.1941 1.14956 24.0234 1.39632 24.3148L1.54213 24.4885L2.40017 23.6256L3.25822 22.7682L3.03389 22.376C2.03004 20.6333 2.27679 18.4479 3.64518 16.9574C4.23403 16.3186 5.0416 15.8255 5.86039 15.6069C6.3483 15.4724 7.25682 15.4332 7.77837 15.5173C10.0497 15.8815 11.6648 17.7811 11.6648 20.0841C11.6648 22.2023 10.3301 23.9562 8.26628 24.5502C7.67743 24.7239 6.44925 24.7295 5.88843 24.5726C5.46221 24.4493 4.78363 24.1467 4.53687 23.973L4.36302 23.8497L3.11801 25.0937L1.87862 26.3377L2.80396 26.3265C3.71809 26.3097 3.73491 26.3097 4.02653 26.461C4.82289 26.8756 5.92769 27.1222 7.0381 27.1278C8.95047 27.139 10.661 26.433 12.0293 25.0713C12.9435 24.1635 13.5491 23.1213 13.88 21.9053C14.8951 18.1061 12.5677 14.1668 8.74297 13.231C8.32797 13.1245 7.18391 12.9845 6.95398 13.0013C6.90911 13.0069 6.65675 13.0293 6.39316 13.0517Z" fill="black"/>
<path d="M19.9089 13.0572C18.647 13.2029 17.5086 13.7745 16.8076 14.6206C16.5103 14.9737 16.1626 15.6965 16.0673 16.1616C15.8318 17.2823 16.0841 18.5599 16.6898 19.2828C17.3572 20.0841 18.4003 20.5772 20.6379 21.1432C23.0214 21.7483 23.6215 22.163 23.6327 23.2165C23.6383 23.7208 23.4869 24.0458 23.0999 24.3932C22.6064 24.8359 21.8605 25.0264 20.8623 24.9704C19.5612 24.8919 18.3778 24.4156 17.2843 23.5359C17.0936 23.379 16.9141 23.2501 16.8861 23.2501C16.858 23.2501 16.5216 23.6255 16.129 24.0906L15.4224 24.9256L15.7981 25.2281C17.0431 26.2312 18.4395 26.8252 20.0098 27.0325C22.6681 27.3855 24.8048 26.5338 25.6516 24.7911C25.9208 24.2363 26.0273 23.7264 26.0329 23.026C26.0329 21.9108 25.7413 21.1768 25.0459 20.5212C24.3056 19.8207 23.5261 19.4733 21.6025 18.9634C19.7518 18.4759 19.1462 18.2293 18.7368 17.7866C18.4844 17.5121 18.3947 17.2543 18.3947 16.7724C18.3947 15.2987 20.408 14.6935 22.5447 15.5284C23.027 15.7189 23.414 15.9263 23.9635 16.2849C24.1767 16.425 24.3673 16.5202 24.3898 16.4922C24.6141 16.2457 25.6348 14.7159 25.5955 14.6823C24.6029 13.965 23.7112 13.5223 22.741 13.2758C21.7652 13.0292 20.8174 12.9564 19.9089 13.0572Z" fill="black"/>
<path d="M26.549 13.399C26.8855 14.2171 28.8315 18.9241 29.2185 19.8599C29.4876 20.5043 30.256 22.3815 30.9345 24.0177L32.1627 27.0044H33.2339C34.2097 27.0044 34.3106 26.9932 34.3387 26.9035C34.3555 26.8531 34.7929 25.7716 35.3201 24.5108C36.5146 21.6306 39.8683 13.5167 39.9356 13.343L39.9861 13.2197H38.6794H37.3783L37.0474 14.077C36.8679 14.5421 36.4473 15.6236 36.1165 16.4697C35.7856 17.3159 35.0117 19.2883 34.4004 20.8573C33.7947 22.4207 33.2731 23.6815 33.2507 23.6591C33.2283 23.6311 32.8918 22.7961 32.4992 21.7931C32.1066 20.7901 31.4617 19.1538 31.0691 18.1508C30.6766 17.1478 30.0821 15.6292 29.7456 14.7719L29.1343 13.2197H27.8052H26.4761L26.549 13.399Z" fill="black"/>
<path d="M6.23626 16.918C5.65862 17.0693 5.18754 17.3383 4.76132 17.7586C4.11639 18.3974 3.79112 19.1483 3.79112 20.028C3.78551 20.8629 4.01544 21.5186 4.52578 22.1574C4.87349 22.5888 5.54085 23.0371 6.07363 23.2052C6.55592 23.3565 7.4364 23.3789 7.87944 23.2556C8.44026 23.0987 9.00107 22.7625 9.41046 22.3255C10.0274 21.6811 10.319 20.9582 10.319 20.084C10.319 19.1819 9.96567 18.3582 9.2983 17.725C8.47391 16.9349 7.32985 16.6323 6.23626 16.918ZM6.69052 18.431C6.76903 18.4926 6.85316 18.5935 6.86998 18.6551C6.92606 18.8288 7.21208 18.8064 7.25694 18.6271C7.30181 18.4478 7.52052 18.3077 7.72242 18.3301C7.92992 18.3525 7.98039 18.5431 7.77289 18.5431C7.63829 18.5431 7.45883 18.672 7.45883 18.7672C7.45883 18.7952 7.52052 18.8793 7.59904 18.9577C7.67755 19.0362 7.73924 19.1483 7.73924 19.2043C7.73924 19.3052 7.72802 19.3052 7.40836 19.2211C7.07748 19.137 6.7466 19.1651 6.42694 19.2995C6.33721 19.3388 6.3316 19.3276 6.36525 19.2099C6.38768 19.137 6.45498 19.025 6.51106 18.9577C6.57275 18.8961 6.61761 18.8008 6.61761 18.7504C6.61761 18.6551 6.41011 18.5094 6.35403 18.5655C6.3316 18.5823 6.28673 18.5711 6.24187 18.5375C6.18579 18.487 6.18579 18.4534 6.23065 18.3974C6.32038 18.2853 6.52228 18.3021 6.69052 18.431ZM6.96532 20.2353C6.97653 20.9414 6.99897 21.1991 7.05505 21.2216C7.10552 21.2384 7.12235 21.0198 7.12235 20.2578C7.12235 19.7142 7.13917 19.2715 7.16721 19.2715C7.30741 19.2715 7.68316 19.4116 7.82336 19.5237C7.9187 19.5909 8.09816 19.6694 8.23276 19.6918C8.49634 19.7366 8.70945 19.944 8.68141 20.1345C8.65337 20.325 8.49073 20.3082 8.42343 20.1177C8.37857 19.9944 8.32249 19.944 8.24397 19.944C8.14303 19.944 8.1262 19.972 8.14303 20.1177C8.15424 20.2634 8.1935 20.3026 8.35614 20.3586C8.55803 20.4259 8.72627 20.6668 8.67019 20.8181C8.62533 20.9414 8.47951 20.9134 8.43465 20.7677C8.35053 20.4931 8.13181 20.4875 8.13181 20.7565C8.13181 20.9246 8.14863 20.9526 8.2664 20.9526C8.51877 20.9526 8.82161 21.4513 8.61411 21.5298C8.52999 21.5634 8.41222 21.4681 8.41222 21.3617C8.41222 21.3224 8.35614 21.2608 8.28884 21.2272C8.18789 21.1711 8.15424 21.1767 8.10377 21.2608C7.86823 21.6586 7.54856 21.8436 7.0887 21.8492C6.60079 21.8492 6.18018 21.6418 6.05119 21.3392C6.01754 21.2496 5.95585 21.1767 5.9166 21.1767C5.82126 21.1767 5.66423 21.3336 5.66423 21.4289C5.66423 21.5073 5.52403 21.5802 5.47356 21.5298C5.32214 21.3729 5.60254 20.9526 5.86052 20.9526C5.9839 20.9526 6.00072 20.9302 6.00072 20.7565C6.00072 20.6052 5.97829 20.5603 5.89977 20.5603C5.77079 20.5603 5.66423 20.6668 5.66423 20.7957C5.66423 20.8573 5.62497 20.8966 5.55207 20.8966C5.46795 20.8966 5.43991 20.8573 5.43991 20.7397C5.43991 20.5547 5.63058 20.353 5.83248 20.325C5.94464 20.3138 5.97829 20.2746 5.9895 20.1233C6.00633 19.9552 5.99511 19.9384 5.87734 19.9552C5.80444 19.9664 5.72031 20.0392 5.67545 20.1233C5.58011 20.3306 5.43991 20.3306 5.43991 20.1233C5.43991 19.9159 5.64741 19.7254 5.92221 19.6806C6.03998 19.6638 6.21383 19.5853 6.29795 19.5125C6.38768 19.4452 6.52788 19.3668 6.6064 19.35C6.69052 19.3332 6.78586 19.3108 6.8139 19.2995C6.84755 19.2883 6.8868 19.2771 6.90924 19.2771C6.93167 19.2715 6.95971 19.703 6.96532 20.2353Z" fill="#E4222A"/>
</svg>
