<svg xmlns="http://www.w3.org/2000/svg" viewBox="0 0 24 25">
  <g clip-path="url(#a)">
    <path fill="#fff" d="M12.976 24.463c-6.343 0-11.485-5.142-11.485-11.485 0-6.343 5.142-11.484 11.485-11.484 6.342 0 11.484 5.141 11.484 11.484s-5.142 11.485-11.484 11.485Zm0-21.202c-5.367 0-9.718 4.35-9.718 9.717 0 5.367 4.351 9.717 9.718 9.717 5.366 0 9.717-4.35 9.717-9.717 0-5.366-4.351-9.717-9.717-9.717Z"/>
    <path fill="#fff" d="M16.706 21.117c-.368 0-1.706-2.383-1.886-3.062-.376-1.422-.295-2.022-.273-2.214.07-.587.638-.88.672-1.673.011-.245.135-1.469.234-2.425a1.65 1.65 0 0 1-.702-.328c.647.868-.306 1.91-1.691 3.295-1.47 1.47-4.733 2.834-4.733 2.834s1.364-3.263 2.835-4.733c1.08-1.08 1.951-1.898 2.694-1.898.21 0 .41.065.6.207a1.648 1.648 0 0 1-.328-.702c-.956.1-2.18.223-2.425.234-.793.034-1.086.603-1.672.672-.068.008-.186.023-.372.023-.344 0-.92-.052-1.843-.296-.739-.195-3.491-1.761-3.004-1.958.248-.1 1.039-.168 2.081-.168 1.002 0 2.236.062 3.441.22a61.77 61.77 0 0 1 3.82.627c.016-.05.034-.1.056-.147l-.96-.46s-.767-.88-.685-.94a.02.02 0 0 1 .012-.004c.12 0 .733.701.793.781l.579.193-.272-.238s-.372-1.376-.275-1.409h.004c.102 0 .44 1.197.468 1.283.067.058.29.145.57.306l-.294-.756s.133-1.249.233-1.249h.002c.1.02-.02 1.042-.045 1.169l.489.75a1.24 1.24 0 0 1 .442-.08 1.5 1.5 0 0 1 .535.102c-.226-.48-.209-.98.09-1.28a.803.803 0 0 1 .338-.2.442.442 0 0 1 .438-.366.478.478 0 0 1 .477.461c.145-.297.315-.698.303-.828-.028-.295-.369-.816-.372-.821a.073.073 0 0 1 .06-.114c.025 0 .048.012.062.033.015.023.365.557.396.888.017.19-.2.666-.318.91a2.147 2.147 0 0 1 .836.835c.234-.114.683-.319.886-.319l.023.001c.33.031.865.381.888.396a.073.073 0 0 1-.08.122c-.006-.003-.527-.345-.821-.372a.14.14 0 0 0-.015 0c-.143 0-.528.163-.815.303.116.003.231.05.32.14a.461.461 0 0 1 .012.652.439.439 0 0 1-.236.123.808.808 0 0 1-.2.338.884.884 0 0 1-.642.244 1.52 1.52 0 0 1-.638-.153c.126.329.135.677.023.976l.749.489a7.83 7.83 0 0 1 .95-.085c.125 0 .213.01.219.04.02.1-1.248.235-1.248.235l-.757-.294c.161.28.248.503.306.57.088.029 1.315.375 1.283.472-.004.011-.026.016-.06.016-.271 0-1.35-.291-1.35-.291l-.237-.272.193.58c.083.06.838.722.778.804-.003.004-.009.006-.016.006-.132 0-.925-.69-.925-.69l-.46-.96c-.048.021-.097.04-.147.054.184.94.432 2.318.628 3.82.32 2.46.248 5.036.051 5.523-.016.04-.04.058-.072.058Zm4.521 1.703-.22-.552h.122l.137.364.136-.364h.122l-.22.551h-.077Zm-.263 0v-.552h.138v.551h-.138Zm.464 0v-.552h.14v.551h-.14Zm-.867 0v-.504h.14v.503h-.14Zm-.168-.437v-.115h.475v.115h-.474Z"/>
  </g>
  <defs>
    <clipPath id="a">
      <path fill="#fff" d="M0 0h22.969v22.97H0z" transform="translate(1.491 1.493)"/>
    </clipPath>
  </defs>
</svg>
