<svg xmlns="http://www.w3.org/2000/svg" viewBox="0 0 24 25">
  <g clip-path="url(#a)">
    <path fill="#000" d="M12 23.984C5.658 23.984.516 18.842.516 12.499.516 6.156 5.658 1.015 12 1.015c6.343 0 11.485 5.141 11.485 11.484S18.343 23.984 12 23.984Zm0-21.202c-5.366 0-9.717 4.35-9.717 9.717A9.716 9.716 0 0 0 12 22.216a9.716 9.716 0 0 0 9.717-9.717c0-5.366-4.35-9.717-9.717-9.717Z"/>
    <path fill="#000" d="M15.73 20.638c-.367 0-1.706-2.383-1.885-3.062-.377-1.422-.296-2.022-.273-2.214.069-.587.638-.88.672-1.673.01-.245.135-1.469.233-2.425a1.65 1.65 0 0 1-.702-.328c.648.868-.305 1.91-1.69 3.295-1.47 1.47-4.733 2.834-4.733 2.834s1.364-3.263 2.834-4.733c1.08-1.08 1.952-1.898 2.695-1.898a.98.98 0 0 1 .6.207 1.648 1.648 0 0 1-.328-.702c-.957.1-2.18.223-2.426.234-.793.034-1.086.603-1.672.672-.067.008-.185.023-.371.023-.344 0-.921-.052-1.844-.296-.738-.195-3.49-1.761-3.004-1.958.249-.1 1.04-.168 2.082-.168 1.002 0 2.236.062 3.441.22 1.503.195 2.881.443 3.82.627.015-.05.034-.1.056-.147l-.96-.46s-.768-.88-.686-.94a.02.02 0 0 1 .012-.004c.12 0 .734.701.793.781l.58.193-.272-.238s-.372-1.376-.275-1.409h.004c.102 0 .439 1.197.468 1.283.066.058.29.145.57.306l-.294-.756s.133-1.249.233-1.249h.002c.1.02-.02 1.042-.045 1.169l.488.75c.14-.053.29-.08.443-.08a1.5 1.5 0 0 1 .534.102c-.225-.48-.208-.98.09-1.28a.805.805 0 0 1 .339-.2.443.443 0 0 1 .438-.366.478.478 0 0 1 .477.461c.145-.297.315-.698.303-.828-.028-.295-.37-.816-.372-.821a.073.073 0 0 1 .06-.114c.024 0 .047.012.061.033.015.023.366.557.397.888.017.19-.2.666-.319.91.167.09.329.21.477.359.148.148.268.31.359.476.234-.114.684-.319.887-.319a.24.24 0 0 1 .023.001c.33.031.865.381.887.396a.073.073 0 0 1-.08.122c-.005-.003-.526-.345-.82-.372a.14.14 0 0 0-.015 0c-.143 0-.528.163-.815.302a.474.474 0 0 1 .32.141.461.461 0 0 1 .012.652.44.44 0 0 1-.237.123.81.81 0 0 1-.2.338.884.884 0 0 1-.641.244 1.52 1.52 0 0 1-.639-.153c.126.329.136.678.024.976l.749.489c.09-.018.638-.085.95-.085.125 0 .213.01.218.04.02.1-1.248.235-1.248.235l-.757-.295c.162.28.249.504.307.57.087.03 1.315.376 1.282.473-.003.011-.025.016-.06.016-.27 0-1.349-.291-1.349-.291l-.237-.272c.09.274.177.534.193.58.083.06.838.722.777.804-.003.004-.008.006-.015.006-.133 0-.925-.69-.925-.69l-.46-.96c-.048.021-.097.04-.148.055a62 62 0 0 1 .628 3.82c.32 2.458.248 5.035.052 5.522-.016.04-.04.058-.073.058Zm4.521 1.702-.22-.551h.122l.137.364.137-.364h.122l-.22.55h-.078Zm-.262 0v-.551h.138v.55h-.138Zm.464 0v-.551h.139v.55h-.14Zm-.867 0v-.503h.14v.503h-.14Zm-.168-.437v-.114h.475v.114h-.475Z"/>
  </g>
  <defs>
    <clipPath id="a">
      <path fill="#fff" d="M0 0h22.969v22.97H0z" transform="translate(.516 1.014)"/>
    </clipPath>
  </defs>
</svg>
