<svg viewBox="0 0 32 32" fill="currentColor" xmlns="http://www.w3.org/2000/svg"><g clip-path="url(#a)"><path d="M8.28 4.415c0-2.153.591-3.325 3.853-3.883 2.214-.38 5.053-.426 7.7 0 2.093.338 3.853 1.861 3.853 3.883v7.106c0 2.084-1.71 3.79-3.852 3.79h-7.701c-2.614 0-4.817 2.18-4.817 4.643v3.409H4.668c-2.24 0-3.544-1.58-4.092-3.789-.739-2.968-.707-4.737 0-7.58.614-2.48 2.574-3.788 4.814-3.788h10.595v-.948H8.28V4.415Z" fill="url(#b)"/><path d="M23.686 27.154c0 2.154-1.912 3.244-3.852 3.788-2.919.82-5.262.695-7.701 0-2.038-.58-3.852-1.766-3.852-3.788v-7.105c0-2.045 1.743-3.791 3.852-3.791h7.701c2.565 0 4.817-2.168 4.817-4.737V8.207h2.887c2.243 0 3.299 1.629 3.852 3.788.77 2.999.805 5.242 0 7.58-.779 2.27-1.612 3.788-3.852 3.788H15.985v.948h7.701v2.843Z" fill="url(#c)"/><path d="M10.207 3.944c0-.787.644-1.423 1.443-1.423.797 0 1.444.636 1.444 1.423 0 .784-.647 1.42-1.444 1.42a1.431 1.431 0 0 1-1.444-1.42Zm8.665 23.681c0-.784.648-1.42 1.444-1.42.799 0 1.444.637 1.444 1.42 0 .787-.645 1.423-1.444 1.423a1.434 1.434 0 0 1-1.444-1.422Z" fill="#fff"/></g><defs><linearGradient id="b" x1="23.686" y1="9.223" x2=".034" y2="9.03" gradientUnits="userSpaceOnUse"><stop stop-color="#366A96"/><stop offset="1" stop-color="#3679B0"/></linearGradient><linearGradient id="c" x1="31.981" y1="19.859" x2="-14.839" y2="19.859" gradientUnits="userSpaceOnUse"><stop stop-color="#FFC836"/><stop offset="1" stop-color="#FFE873"/></linearGradient><clipPath id="a"><path fill="#fff" d="M0 0h32v32H0z"/></clipPath></defs></svg>