<svg xmlns="http://www.w3.org/2000/svg" viewBox="0 0 25 25">
  <path fill="#fff" fill-rule="evenodd" d="M22.012 4.38S18.768.93 12.316.93C5.865.929 2.624 4.38 2.624 4.38s-.37 2.555-.134 7.7c.358 7.77 9.827 12.439 9.828 12.439.063-.032 9.471-4.694 9.828-12.44.236-5.144-.134-7.7-.134-7.7Zm-9.694 1.78c-2.67 0-4.843 2.236-4.843 4.984 0 2.293 1.215 4.092 3.61 5.348 1.566.822 3.904 1.424 6.374 1.742-.41.612-1.507 1.657-2.147 2.011-2.958-.485-5.555-1.509-7.331-3.043-1.9-1.642-2.903-3.784-2.903-6.195 0-3.992 3.248-7.24 7.24-7.24s7.24 3.248 7.24 7.24a6.994 6.994 0 0 1-2.724 5.539c-1.159-.107-2.369-.435-2.917-.748 1.413-.902 3.247-2.657 3.247-4.79a4.852 4.852 0 0 0-4.846-4.847Z" clip-rule="evenodd"/>
</svg>
