<svg viewBox="0 0 28 29" xmlns="http://www.w3.org/2000/svg">
<g clip-path="url(#clip0_1039_961)">
<path fill-rule="evenodd" clip-rule="evenodd" d="M21.9106 3.19675L27.6638 13.2025C27.8841 13.5894 28 14.027 28 14.4723C28 14.9176 27.8841 15.3552 27.6638 15.7422L21.9106 25.7479C21.6962 26.1368 21.3845 26.4634 21.0061 26.6957C20.6276 26.9281 20.1953 27.0583 19.7515 27.0735H8.24298C7.79913 27.0562 7.3673 26.9244 6.98938 26.691C6.61147 26.4576 6.30031 26.1304 6.08609 25.7413L0.332923 15.6787C0.114769 15.2978 0 14.8664 0 14.4275C0 13.9885 0.114769 13.5571 0.332923 13.1762L6.08828 3.19675C6.30447 2.81293 6.61725 2.4923 6.9956 2.26667C7.37395 2.04104 7.80472 1.91825 8.24517 1.91049H19.7537C20.1942 1.91804 20.625 2.04073 21.0034 2.26638C21.3818 2.49203 21.6946 2.81278 21.9106 3.19675ZM18.5261 11.4854H9.46099C9.39036 11.4836 9.32186 11.5097 9.27029 11.558C9.21872 11.6063 9.18821 11.6729 9.18536 11.7435V13.6248C9.18536 13.695 9.21325 13.7623 9.26289 13.8119C9.31253 13.8616 9.37985 13.8895 9.45005 13.8895H18.5261C18.5961 13.8889 18.6631 13.8608 18.7126 13.8113C18.7621 13.7618 18.7902 13.6948 18.7907 13.6248V11.7501C18.7907 11.6799 18.7629 11.6125 18.7132 11.5629C18.6636 11.5133 18.5963 11.4854 18.5261 11.4854ZM17.1239 13.2354C17.0166 13.2354 16.9117 13.2036 16.8225 13.144C16.7332 13.0843 16.6637 12.9996 16.6227 12.9005C16.5816 12.8014 16.5708 12.6923 16.5918 12.587C16.6127 12.4818 16.6644 12.3851 16.7403 12.3093C16.8161 12.2334 16.9128 12.1817 17.018 12.1608C17.1233 12.1399 17.2323 12.1506 17.3315 12.1917C17.4306 12.2327 17.5153 12.3023 17.5749 12.3915C17.6345 12.4807 17.6664 12.5856 17.6664 12.6929C17.6664 12.8368 17.6092 12.9748 17.5075 13.0765C17.4057 13.1782 17.2677 13.2354 17.1239 13.2354ZM18.5261 15.0991H9.46099C9.39036 15.0974 9.32186 15.1234 9.27029 15.1717C9.21872 15.22 9.18821 15.2867 9.18536 15.3573V17.2495C9.18869 17.3178 9.21791 17.3823 9.26708 17.4298C9.31624 17.4773 9.38167 17.5044 9.45005 17.5054H18.5261C18.5961 17.5048 18.6631 17.4768 18.7126 17.4273C18.7621 17.3777 18.7902 17.3107 18.7907 17.2407V15.3551C18.7907 15.2849 18.7629 15.2176 18.7132 15.1679C18.6636 15.1183 18.5963 15.0904 18.5261 15.0904V15.0991ZM17.1239 16.8404C17.0166 16.8404 16.9117 16.8086 16.8225 16.749C16.7332 16.6894 16.6637 16.6046 16.6227 16.5055C16.5816 16.4064 16.5708 16.2973 16.5918 16.1921C16.6127 16.0868 16.6644 15.9902 16.7403 15.9143C16.8161 15.8384 16.9128 15.7868 17.018 15.7658C17.1233 15.7449 17.2323 15.7556 17.3315 15.7967C17.4306 15.8378 17.5153 15.9073 17.5749 15.9965C17.6345 16.0857 17.6664 16.1906 17.6664 16.2979C17.6664 16.3691 17.6523 16.4397 17.6251 16.5055C17.5978 16.5713 17.5578 16.6311 17.5075 16.6815C17.4571 16.7319 17.3973 16.7718 17.3315 16.7991C17.2656 16.8264 17.1951 16.8404 17.1239 16.8404Z" fill="white"/>
<path fill-rule="evenodd" clip-rule="evenodd" d="M9.25577 13.8044L9.25391 13.8063L10.5467 15.0991H18.5261V15.0904C18.5963 15.0904 18.6637 15.1183 18.7133 15.1679C18.7629 15.2176 18.7908 15.2849 18.7908 15.3551V17.2407C18.7903 17.3107 18.7622 17.3777 18.7127 17.4273C18.6632 17.4768 18.5962 17.5048 18.5261 17.5054H9.45013C9.40852 17.5048 9.36801 17.4945 9.33159 17.4759L18.9227 27.067H19.7409C20.1847 27.0518 20.617 26.9216 20.9954 26.6893C21.3739 26.4569 21.6855 26.1303 21.8999 25.7414L25.9097 18.7676L18.6996 11.5466L18.6958 11.5469C18.7019 11.552 18.7077 11.5573 18.7133 11.5629C18.7629 11.6125 18.7908 11.6799 18.7908 11.7501V13.6248C18.7903 13.6948 18.7622 13.7618 18.7127 13.8113C18.6632 13.8608 18.5962 13.8889 18.5261 13.8895H9.45013C9.37993 13.8895 9.3126 13.8616 9.26297 13.8119C9.26051 13.8095 9.25811 13.807 9.25577 13.8044ZM17.1239 13.2354C17.0166 13.2354 16.9118 13.2036 16.8225 13.144C16.7333 13.0843 16.6638 12.9996 16.6227 12.9005C16.5817 12.8014 16.5709 12.6923 16.5919 12.587C16.6128 12.4818 16.6645 12.3851 16.7403 12.3093C16.8162 12.2334 16.9129 12.1817 17.0181 12.1608C17.1233 12.1399 17.2324 12.1506 17.3315 12.1917C17.4307 12.2327 17.5154 12.3023 17.575 12.3915C17.6346 12.4807 17.6664 12.5856 17.6664 12.6929C17.6664 12.8368 17.6093 12.9748 17.5075 13.0765C17.4058 13.1782 17.2678 13.2354 17.1239 13.2354ZM17.1239 16.8404C17.0166 16.8404 16.9118 16.8086 16.8225 16.749C16.7333 16.6894 16.6638 16.6046 16.6227 16.5055C16.5817 16.4064 16.5709 16.2973 16.5919 16.1921C16.6128 16.0868 16.6645 15.9902 16.7403 15.9143C16.8162 15.8384 16.9129 15.7868 17.0181 15.7658C17.1233 15.7449 17.2324 15.7556 17.3315 15.7967C17.4307 15.8378 17.5154 15.9073 17.575 15.9965C17.6346 16.0857 17.6664 16.1906 17.6664 16.2979C17.6664 16.3691 17.6524 16.4397 17.6251 16.5055C17.5979 16.5713 17.5579 16.6311 17.5075 16.6815C17.4572 16.7319 17.3974 16.7718 17.3315 16.7991C17.2657 16.8264 17.1952 16.8404 17.1239 16.8404Z" fill="#D9DAE5"/>
<path fill-rule="evenodd" clip-rule="evenodd" d="M19.23 18.492H25.1421L27.945 21.2939L28 21.297V27.5539C27.9994 27.8026 27.9004 28.0408 27.7246 28.2166C27.5488 28.3924 27.3105 28.4915 27.0619 28.492H19.231C18.9826 28.4915 18.7444 28.3926 18.5687 28.217C18.3929 28.0414 18.2938 27.8034 18.293 27.555V19.429C18.293 18.9132 18.7142 18.492 19.23 18.492ZM20.7815 26.2649H25.5104V26.9618H20.7815V26.2649ZM20.1813 24.9535H26.1117V25.6494H20.1802L20.1813 24.9535ZM21.2241 23.641H25.0688V24.3369H21.2231L21.2241 23.641ZM20.3196 22.9431H25.9723C26.4881 22.9431 26.9103 23.3643 26.9103 23.8801V26.5844C26.9098 26.833 26.8108 27.0713 26.635 27.2471C26.4592 27.4229 26.2209 27.5219 25.9723 27.5224H20.3196C20.071 27.5219 19.8327 27.4229 19.6569 27.2471C19.4811 27.0713 19.3821 26.833 19.3816 26.5844V23.8801C19.3816 23.3643 19.8038 22.9431 20.3196 22.9431Z" fill="#4F5162"/>
</g>
<defs>
<clipPath id="clip0_1039_961">
<rect width="28" height="28" fill="white" transform="translate(0 0.491989)"/>
</clipPath>
</defs>
</svg>
