<svg viewBox="0 0 32 32" xmlns="http://www.w3.org/2000/svg">
<path fill-rule="evenodd" clip-rule="evenodd" d="M16.2 29.2C23.3797 29.2 29.2 23.3797 29.2 16.2C29.2 9.02031 23.3797 3.20001 16.2 3.20001C9.8115 3.20001 4.49931 7.80819 3.40608 13.8819C4.79225 13.7145 6.41554 13.5999 7.60036 13.6017C9.13333 13.6041 11.3996 13.8484 12.6194 14.1011C13.1618 13.2412 14.1839 12.7847 15.2059 12.9739C15.7984 11.7348 16.1626 10.9895 17.251 9.43888C18.3837 7.82508 20.7997 6.80705 20.7997 7.19974C20.7998 8.0003 20.7297 9.008 19.5999 10.7994C18.7884 12.086 17.7508 13.2413 16.8878 14.0861C17.3057 14.7161 17.4451 15.5214 17.1984 16.2911C17.1081 16.573 16.9732 16.8276 16.8039 17.0498C17.4288 18.2674 18.0686 19.7627 18.6527 21.128L18.6528 21.1281L18.6529 21.1283C18.8422 21.5708 19.0257 21.9995 19.2009 22.4008C19.9997 24.2301 19.9211 27.3696 19.6002 27.1994C18.6306 26.685 17.0912 24.891 16.4006 23.201C16.2977 22.9493 16.1815 22.6694 16.058 22.3718L16.057 22.3695L16.0568 22.369L16.0568 22.3689C15.4627 20.9383 14.6992 19.0995 14.431 18.0111C14.2865 17.9895 14.1417 17.9552 13.998 17.9075C13.27 17.6654 12.7197 17.1276 12.4381 16.472L12.4008 16.4698C10.854 16.3767 9.17616 16.2756 7.60502 16.0516C6.43955 15.8854 4.56272 15.2446 3.28246 14.7276C3.22798 15.2109 3.2 15.7022 3.2 16.2C3.2 23.3797 9.0203 29.2 16.2 29.2Z" fill="url(#paint0_linear_1652_828)"/>
<defs>
<linearGradient id="paint0_linear_1652_828" x1="9.7" y1="4.94168" x2="22.7" y2="27.4583" gradientUnits="userSpaceOnUse">
<stop stop-color="#62F91F"/>
<stop offset="1" stop-color="#45BD35"/>
</linearGradient>
</defs>
</svg>
