<svg viewBox="0 0 300 300" xmlns="http://www.w3.org/2000/svg"><g fill="#161b1f"><path d="m203.79511 195.28745-41.59076-100.09055a6.712 6.712 0 0 0 -6.44248-4.41387 6.93571 6.93571 0 0 0 -6.62067 4.41387l-45.64826 109.7866h15.61529l18.07045-45.26508 53.92568 43.5655c2.169 1.75373 3.73371 2.54688 5.76785 2.54688a7.45654 7.45654 0 0 0 7.63512-7.46245 9.884 9.884 0 0 0 -.71222-3.0809zm-48.03324-82.10658 27.03826 66.73385-40.8407-32.171z"/><path d="m154.00038 259.70772a106.78925 106.78925 0 1 1 106.78925-106.7885 106.91 106.91 0 0 1 -106.78925 106.7885zm0-208.967a102.1777 102.1777 0 1 0 102.1777 102.17845 102.29417 102.29417 0 0 0 -102.1777-102.1784z"/></g></svg>