<svg enable-background="new 0 0 14 12" viewBox="0 0 14 12" xmlns="http://www.w3.org/2000/svg"><path d="m10.3.2c.1-.1.1 0 .1.1.7 1.1 1.3 2.3 2 3.4.4.7.9 1.5 1.3 2.2.1.1.1.2 0 .3-1.1 1.9-2.2 3.7-3.3 5.6 0 0 0 .2-.1.1-.2-.1-.2-.3-.3-.5-1-1.7-1.9-3.4-2.9-5 0-.2-.1-.3-.1-.4 0-.2.2-.3.3-.5 1-1.7 1.9-3.3 2.9-5 0-.1 0-.2.1-.3z" fill="#8bc53f"/><path d="m10.3.2c-.2.4-.4.8-.6 1.1-.6 1.1-1.3 2.2-1.9 3.3-.3.5-.5.9-.8 1.4 0 0 0 0-.1 0s-.2 0-.3 0c-2 0-4.1 0-6.1 0-.1 0-.2 0-.3-.1.2-.4.4-.8.6-1.1.9-1.5 1.8-3 2.7-4.5 0-.1.1-.1.2-.1h6.6z" fill="#39b44a"/><path d="m.2 6h6.8c.1.1 0 .1 0 .2-.6.9-1.1 1.8-1.6 2.7s-1.1 1.8-1.6 2.8c0 .1-.1.1-.1.2-.1 0-.1-.1-.1-.1-.9-1.6-1.9-3.2-2.8-4.8-.3-.4-.5-.7-.6-1z" fill="#006837"/><path d="m3.6 11.8c.4-.7.8-1.4 1.2-2.2.5-.8.9-1.6 1.4-2.4.2-.4.4-.7.6-1.1.1 0 .2 0 .2-.1 1.1 1.9 2.2 3.8 3.3 5.7 0 0 0 .1.1.1-1.4 0-2.8 0-4.1 0-.9 0-1.8 0-2.7 0z" fill="#009145"/></svg>