<svg xmlns="http://www.w3.org/2000/svg" fill="none" viewBox="0 0 40 40"><g clip-path="url(#a)"><path fill="#000" d="M40 20.9625v-3.6662c0-3.1025-3.1025-4.7938-5.64-4.7938-1.766.1379-3.4437.8285-4.795 1.9738-.5821-.614-1.2813-1.1051-2.0564-1.4443-.775-.3392-1.6102-.5197-2.4561-.5307-1.7834.0608-3.4852.7619-4.7938 1.975-.4768-.664-1.1162-1.1944-1.8569-1.5402-.7408-.3459-1.5579-.4956-2.3731-.4348-.8418-.0651-1.6845.1154-2.4257.5196-.7413.4043-1.3494 1.0149-1.7505 1.7579l-3.72004 8.44-4.1325-9.4675c-.22073-.5049-.63212-.902-1.14446-1.1048-.51234-.2028-1.08408-.1948-1.59054.0223-.25662.1097-.488627.2697-.682315.4706-.193688.201-.345122.4387-.445345.6991-.1002228.2605-.14720111.5384-.1381565.8174.00904459.2789.0739284.5532.1908145.8066l5.121252 11.14s.84625 1.975 2.5375 1.975c.51934.077 1.04958-.0194 1.50855-.2743.45898-.255.82104-.6541 1.03024-1.1357.39-.5875 3.3512-6.8125 5.135-10.5875.0691-.1456.1858-.2633.3308-.3337.1449-.0705.3095-.0896.4667-.0541.1573.0355.2977.1234.3983.2493.1007.1259.1555.2823.1554.4435v9.3588c-.0076.5823.2053 1.1459.596 1.5778.3906.4319.9301.7002 1.5103.7509.3082.0205.6174-.0224.9083-.1263.291-.1038.5575-.2663.7831-.4774.2256-.211.4055-.4662.5284-.7496.123-.2834.1864-.589.1864-.8979V18.565c.0143-.6262.2731-1.222.7211-1.6598.4479-.4378 1.0494-.683 1.6758-.683.6264 0 1.2279.2452 1.6758.683.448.4378.7068 1.0336.7211 1.6598v7.7563c0 .5984.2377 1.1722.6608 1.5954.4231.4231.997.6608 1.5954.6608.5984 0 1.1723-.2377 1.5954-.6608.4231-.4232.6609-.997.6609-1.5954V18.565c0-.6358.2526-1.2457.7022-1.6953.4496-.4496 1.0594-.7022 1.6953-.7022.6358 0 1.2456.2526 1.6952.7022.4497.4496.7023 1.0595.7023 1.6953v7.7563c0 .5984.2377 1.1722.6608 1.5954.4231.4231.997.6608 1.5954.6608.5984 0 1.1723-.2377 1.5954-.6608.4231-.4232.6609-.997.6609-1.5954v-5.3588Z"/></g><defs><clipPath id="a"><path fill="#fff" d="M0 0h40v40H0z"/></clipPath></defs></svg>