<svg fill="none" viewBox="0 0 41 41" xmlns="http://www.w3.org/2000/svg" xmlns:xlink="http://www.w3.org/1999/xlink"><clipPath id="a"><path d="m.661621.967606h40v40h-40z"/></clipPath><g clip-path="url(#a)"><path d="m18.3976 27.0115-2.1107.5873c.1835.5322.3303 1.4867.3303 2.7714v6.3138h2.3678v-6.6808c.4405-.5324.9176-.7894 1.4315-.7894.257 0 .459.0552.6791.1837l.6424-2.1842c-.367-.1651-.5322-.2018-.881-.2018-.2569 0-.5689.055-.7709.1468-.4405.2202-.9911.7157-1.3398 1.193 0-.5323-.1285-.9545-.3487-1.3398zm-8.1492-3.1203h-.25696v12.7745h2.45946v-5.653h3.1018v-2.1109h-3.1018v-2.9366h3.8727l.1468-1.1195c-2.331-.1652-4.4417-.5324-6.222-.9545zm-5.74483 14.4813 1.13795 1.3215c1.10125-.4405 2.4778-1.4315 2.84488-3.01.12849-.5138.16519-.8443.16519-2.5145v-10.2598h-2.4778v10.5351c0 1.3765-.05505 1.8905-.2386 2.3677-.2386.5322-.80759 1.1563-1.43162 1.56zm22.33693-6.4788c0 2.2391-.4405 3.1935-1.45 3.1935-.4589 0-.9729-.257-1.193-.7709-.1835-.4771-.2937-1.2848-.2937-2.386 0-.936.0918-1.5968.2387-2.1106.1835-.5874.6423-.9545 1.2113-.9545.4222 0 .7892.1835 1.0095.4955.3303.4405.4772 1.2665.4772 2.533zm1.45 3.6706c.7708-.9176 1.1195-2.0371 1.1195-3.6523 0-1.5235-.312-2.5697-1.0279-3.4507-.7708-.9543-1.762-1.4131-3.0466-1.4131-2.4229 0-4.038 1.9638-4.038 4.9371 0 2.9734 1.5968 4.8822 4.038 4.8822 1.3765.0183 2.2758-.4955 2.955-1.3032zm6.7175-5.2858c0 .8625-.5139 1.3398-1.4317 1.3398-.8258 0-1.3765-.3855-1.3765-1.3398 0-.881.514-1.395 1.395-1.395s1.4132.514 1.4132 1.395zm4.1663-2.019-.9727-1.5602c-.5506.514-1.2113.8077-1.8538.8077-.2937 0-.4588-.0367-1.1012-.2018-.6425-.1837-1.1013-.2387-1.6151-.2387-2.2944 0-3.781 1.248-3.781 3.1937 0 1.3948.624 2.2758 1.9271 2.6245-.5321.1285-1.1011.4038-1.3581.7158-.1835.2203-.2754.514-.2754.8627 0 .2936.0735.5506.1835.7708.1285.202.2937.3672.514.4588.4222.1652 1.1012.2754 2.1474.2937.5506 0 .881.0183.9911.0183.6425.0369.9729.1469 1.2299.2754.2385.1468.422.4773.422.8443s-.2202.7342-.5689.9543c-.3121.2204-.826.3122-1.4868.3122-1.0828 0-1.6885-.4038-1.6885-1.1563 0-.3304.0367-.4039.1102-.6057h-2.1659c-.0916.1835-.2018.4405-.2018.9543 0 .6424.2385 1.193.7342 1.6702.8075.7893 2.129 1.0095 3.3955 1.0095 1.3948 0 2.753-.3303 3.5423-1.2113.4955-.5507.7158-1.1564.7158-1.9455 0-.8444-.2386-1.4867-.771-2.019-.624-.6057-1.3398-.8259-2.7163-.8444l-1.2665-.0183c-.2385 0-.3853-.0917-.3853-.2202 0-.257.3303-.4771.936-.7708.1835.0183.2386.0183.3486.0183 1.9089 0 3.3039-1.1746 3.3039-2.8081 0-.624-.1835-1.1014-.5324-1.5419.2937.0369.3855.0552.6057.0552.6242 0 1.1197-.202 1.6335-.6975zm-29.54995-15.4724c-2.93665.7158-4.93723 2.129-4.93723 3.7442 0 1.0094.77087 1.9272 2.0373 2.643-.38545-.6058-.58733-1.2665-.58733-1.9273.01835-1.6701 1.32148-3.2302 3.48726-4.4599zm30.98165 6.3321c0-1.0645-.6607-2.0374-1.762-2.8449.0918.3304.1651.6608.1651.9912 0 3.0283-4.2396 5.6347-10.2598 6.7175.679.0735 1.3765.1102 2.1107.1102 5.3776-.0184 9.746-2.2392 9.746-4.974zm-3.4689-1.6519c0-1.1196-.9545-2.1474-2.588-2.9917.3855.4589.5874.9544.5874 1.4684 0 2.698-5.7265 4.8822-12.8112 4.8822-7.0663 0-12.81108-2.1842-12.81108-4.8822 0-.3488.09178-.6791.27532-.9912-1.13795.7525-1.78035 1.6152-1.78035 2.5329 0 2.9183 6.51571 5.286 14.55481 5.286 8.039 0 14.5731-2.4044 14.5731-5.3044zm-6.3505-.1468c-2.9735 1.9088-12.1136 2.643-16.0415.1835-3.0834-1.9271-2.0189-4.9923-10.84721-11.70982-1.1563-.881.22025-1.81705 1.0829-1.21137.86263.60569.07341.75252 1.81705 2.49615 3.52396 3.52394 3.48726.34872 4.03786 1.56009 1.1747 2.51445 3.7442 5.04735 3.7442 5.04735 2.588 1.6886 4.6436 2.0557 8.4612-.5323 2.4229-1.6335 1.4317 2.6063 7.36-.4588 2.1659-1.1196 2.074-.3671 4.2765-3.43222.9177-1.26642 2.6614.97272.679 1.28482-.7891.1284-2.129.9911-2.698 2.3493-.8258 2.0373-.4771 3.5423-1.872 4.4233zm-16.482-5.1758c-.7341-.3304-1.505-1.5785-1.7987-2.074.826-.8076.4956-2.14745.0184-2.88162-.4589-.73415-1.0278-.53227-1.6335-1.21137-.6241-.6791.2386-2.44108 1.0278-1.08288 2.955 5.08407 4.9005 2.97335 7.3049 2.66133 2.3126-.29366 4.3683.97277 4.9923-2.60626.1102-.58734.6792-.71582.7342.2386.055.97276.4221 3.32208 1.6886 3.61573 1.2664.31203 2.2942-.29365 2.5879-.62403.2936-.33037.4588-.29367.5873.55063.1285.82592.4588 1.98227 2.2392.69745 3.6525-2.60628 2.6063-3.61575 4.0378-4.29485.8077-.38543 2.0925.86263.2387 1.7987-2.643 1.33983-2.9184 2.9917-4.5885 4.03787-2.8082 1.762-1.9455.0734-6.4607-.569-1.7435-.2386-2.2942 1.6886-3.6523 1.138-3.1019-1.2848-5.2861-1.0278-7.3234.6057zm9.7827-9.41565c.1102.77088.2387.75251.514.80758.2753.07342.624-.36708.624-.77087.0183-.42215-.1835-.6791-.5873-.66075-.4222.01835-.569.22025-.5507.62404zm13.582 1.37656c.3303.31202 1.2113.11012 1.4133-.12848.5322-.58733.5505-.93607.2754-1.33985-.2754-.38543-.8444-.33037-1.4134.09177-.569.42215-.4588 1.21136-.2753 1.37656zm-.2385 3.89105c-.2753.36709-.2937.64239-.0918.84429.2201.22025.6606.40378.9728.16518.312-.25695.312-.62403.055-.93605-.2753-.33038-.6423-.33038-.936-.07342zm-27.86151-4.58851c.42215.12848.62401.53226.97281.07341.1835-.22025.2019-.53226-.0368-.86263-.1468-.2019-.84425-.34873-1.13791-.05507-.29365.29367-.01835.77087.2019.84429zm-8.608043-.25695c.770873.4772 1.266433 1.19301 1.853753.55061.2019-.22025.4405-.60568.01835-1.37655-.31201-.56897-1.32148-.78922-1.67021-.56897-.367079.20189-.807576 1.02782-.201893 1.39491zm7.103003 3.65245c.2386.25696.66075.2386.9177.09176.2386-.14683.2019-.53226-.0367-.86263-.14683-.2019-.58733-.31202-.881 0-.29366.31202-.16518.58733 0 .77087z" fill="#41bf47"/></g></svg>