<svg enable-background="new 0 0 70 70" viewBox="0 0 70 70" xmlns="http://www.w3.org/2000/svg"><g fill="#f90"><path d="m30.211 39.292h8.499v9.625h-8.499z"/><path d="m19.211 39.292h8.5v9.625h-8.5z"/><path d="m41.21 39.292h8.25v9.625h-8.25z"/><path d="m41.21 20.625h8.25v9.625h-8.25z"/><path d="m30.211 20.625h8.499v9.625h-8.499z"/><path d="m19.211 20.625h8.5v9.625h-8.5z"/></g><path d="m41.21 20.625h8.25v9.625h-8.25z" fill="none"/><path d="m30.211 20.625h8.499v9.625h-8.499z" fill="none"/><path d="m16.711 36.792h35.249v14.625h-35.249z" fill="none"/><path d="m19.211 20.625h8.5v9.625h-8.5z" fill="none"/><path d="m57.183 6.594h-45.697c-2.762 0-5 2.239-5 5v46.813c0 2.761 2.238 5 5 5h45.696c2.762 0 5-2.239 5-5v-46.813c.001-2.761-2.238-5-4.999-5zm-5.223 44.823h-35.249v-14.625h35.249zm0-18.667h-35.249v-14.625h35.249z" fill="#f90"/></svg>