<svg enable-background="new 0 0 14 10" viewBox="0 0 14 10" xmlns="http://www.w3.org/2000/svg"><path d="m5.8 3.3h1.3v1.3h-1.3z"/><path d="m7.2 3.3h1.3v1.3h-1.3z"/><path d="m4.3 3.3h1.3v1.3h-1.3z"/><path d="m2.9 3.3h1.3v1.3h-1.3z"/><path d="m1.4 3.3h1.3v1.3h-1.3z"/><path d="m5.8 1.9h1.3v1.3h-1.3z"/><path d="m5.8.4h1.3v1.3h-1.3z"/><path d="m4.3 1.9h1.3v1.3h-1.3z"/><path d="m2.9 1.9h1.3v1.3h-1.3z"/><path d="m.8 7.7c-.1-.2-.2-.3-.3-.4l-.1-.2c0-.1-.1-.2-.1-.4s0 0 0-.1v-.1c-.2-.4-.3-.8-.3-1.3 0-.1 0-.2 0-.3v-.1h9.5c.7 0 1.4-.2 1.7-.5-.2-.2-.4-.6-.4-1 0-.5.1-1 .3-1.3l.1-.1.1.1c.3.2.9.8.9 1.6.3-.1.5-.1.8-.1.4 0 .7.1.9.2h.1v.1c-.3.6-1 .9-1.8.9-.1 0-.2 0-.3 0-1.2 3-3.7 4.6-7.3 4.6-.6 0-1.2-.1-1.8-.3-.7-.2-1.3-.6-1.8-1.1zm4.4 1.4c-.9-.4-1.3-.9-1.6-1.5-.4.1-.7.1-1.2.2-.2 0-.3 0-.5 0h-.7c.8.8 1.8 1.3 3.6 1.3zm-1-2.4c-.2 0-.3.2-.3.3 0 .2.2.3.3.3.2 0 .3-.2.3-.3s-.1-.3-.3-.3z"/><path d="m4.2 6.8s.1 0 0 0c.1 0 .1.1 0 0 .1.2.1.2.2.2 0 0 .1 0 .1-.1v.1c0 .1-.1.3-.3.3s-.2-.1-.2-.3c0-.1.1-.2.2-.2"/></svg>