<svg viewBox="0 0 80 80" xmlns="http://www.w3.org/2000/svg" xmlns:xlink="http://www.w3.org/1999/xlink"><linearGradient id="a" x1="0%" x2="100%" y1="100%" y2="0%"><stop offset="0" stop-color="#2e27ad"/><stop offset="1" stop-color="#527fff"/></linearGradient><g fill="none" fill-rule="evenodd"><path d="m0 0h80v80h-80z" fill="url(#a)"/><path d="m68 39.3055249c0 6.9291829-4.7337505 9.4705164-7.5547441 10.3692807l-.5995356-1.9065c2.8140454-.8957651 6.1690625-3.0911894 6.1690625-8.4627807 0-6.7912191-5.5586082-8.4867744-7.9478172-8.9006659-.5330308-.0919759-.8933477-.5968435-.813939-1.1347024-.2362409-3.0941886-1.6755234-5.319605-3.8622401-5.9634362-1.8164738-.53386-3.7679423.1739544-4.9650283 1.807526-.2173813.2969222-.5846465.4478826-.9449634.3948965-.3632948-.0539859-.667033-.3069195-.7891238-.655828-.8248578-2.3493839-2.0199586-4.3258656-3.5515537-5.8744595-1.8800007-1.8995019-7.037595-5.9844306-14.3273126-2.8772455-4.2096532 1.7955292-7.507099 6.9681727-7.507099 11.7749122 0 .5348597.0317635 1.0737184.0952905 1.6025797.0585639.4978694-.2580783.9627475-.7404861 1.086715-2.4934328.640832-6.6752929 2.6163139-6.6752929 8.6557301 0 .1959486.0049631.3878983.0148892.5768487.1866104 3.8879804 3.0274562 7.2281045 6.9105411 8.1248694l-.4446887 1.948489c-4.7446691-1.0967124-8.2197919-5.197637-8.4490845-9.9733846-.0119113-.2179428-.0168743-.445883-.0168743-.6768225 0-6.9071886 4.6374674-9.4545206 7.352252-10.3522852-.0208448-.3309132-.0317635-.6628262-.0317635-.9927396 0-5.6425203 3.7480901-11.4959853 8.719074-13.6164292 5.8246274-2.4853483 11.9966677-1.2486726 16.5060886 3.3071327 1.402556 1.4176282 2.5519968 3.1371773 3.4284702 5.1276553 1.6685751-1.4126296 3.875144-1.9244953 5.9735186-1.3066573 2.878565.8467779 4.8052183 3.5180774 5.2350178 7.2061102 2.8160306.6628262 8.8173423 2.9862169 8.8173423 10.7111911zm-11.1013347 22.0082285-6.9353564 3.8859809v-8.6457327l6.9353564-3.9419662zm-17.8907776-.0249934-6.9204672 3.9879542v-8.7567037l6.9204672-3.9299694zm-7.9160537-6.4982959-6.9224524-3.8849812 6.9343637-3.8849812 6.867859 3.8619872zm-7.9706471-2.1844272 6.9810163 3.9179726v8.7577033l-6.9810163-3.9949523zm16.9080951-20.5526102 6.8817555 3.8449917-6.9105412 3.8649864-6.8559477-3.8449917zm2.0030841 18.8310617 6.9224525-3.8799825 6.9105411 3.8989775-6.8946594 3.9189723zm-1.0392612 1.704553 6.9849868 3.9649602v8.6457327l-6.9849868-3.9189722zm6.9710903-7.3170812-6.9710903 3.9059757v-7.6829852l6.9710903-3.8979778zm-15.8668487-7.652993 6.9105412 3.8749838v7.6809857l-6.9105412-3.8859809zm26.2942021 12.4177435c-.004963-.0029992-.0109186-.0039989-.0158817-.0069981l.0009926-.0019995-8.4272471-4.7537534v-9.3755413c0-.354907-.1856178-.6818212-.489356-.861774-.0079409-.003999-.0148892-.0059985-.02283-.0099974l.0019852-.0029992-8.9285145-4.987692c-.301753-.1669563-.667033-.1669563-.9648155.0009997l-8.9235515 5.0086865.0009927.0019995c-.0069483.0039989-.0148892.0049987-.0218374.0089976-.3027457.1799528-.4893561.5078668-.4893561.861774v9.3685432l-8.4659588 4.743756.0019852.0019995c-.0079409.0039989-.0158817.0059984-.02283.0099974-.3027456.178953-.489356.5078668-.489356.861774v10.9641247c0 .3599056.1915734.6918186.5022599.8687722l8.9582927 5.1276553.0079409.0049987v-.0009998c.1528617.0869772.3216052.1309657.4903486.1309657.1697361 0 .3404648-.0439885.4933265-.1319654l8.4193063-4.8517277 8.4808479 4.7577524.0009926-.0029993c.1498839.083978.314657.1289662.4814152.1289662.1657657 0 .3325239-.041989.4824078-.1259669l8.9215662-4.9986892c.3146569-.1769536.5092082-.510866.5092082-.8737708v-11.0011151c0-.3559067-.1866104-.6838207-.4923339-.8637735z" fill="#fff"/></g></svg>