<svg viewBox="0 0 33 33" xmlns="http://www.w3.org/2000/svg"><path fill-rule="evenodd" clip-rule="evenodd" d="M9.213 31.806H2.117l7.847-16.402 3.555 7.32-4.306 9.082zm1.264-17.97a.575.575 0 0 0-.516-.322H9.96a.572.572 0 0 0-.516.325L.693 32.131a.571.571 0 0 0 .516.818h8.366a.573.573 0 0 0 .518-.327l4.58-9.657a.568.568 0 0 0-.003-.493l-4.193-8.636zm19.871 17.97h-7.049L11.99 8.132a.573.573 0 0 0-.517-.326H6.859l.006-5.714h9.04l11.257 23.674a.574.574 0 0 0 .518.326h2.669l-.001 5.714zm.573-6.857h-2.879L16.785 1.275a.572.572 0 0 0-.518-.326H6.293a.573.573 0 0 0-.574.57l-.005 6.858a.572.572 0 0 0 .572.572h4.824l11.31 23.674a.573.573 0 0 0 .517.326h7.984a.572.572 0 0 0 .573-.572V25.52a.571.571 0 0 0-.573-.571z" fill="url(#a)"/><defs><linearGradient id="a" x1="3.51" y1="1.189" x2="31.494" y2="35.544" gradientUnits="userSpaceOnUse"><stop stop-color="#CA541A"/><stop offset="1" stop-color="#FC9502"/></linearGradient></defs></svg>