<svg xmlns="http://www.w3.org/2000/svg" viewBox="0 0 32 33" fill="none"><path fill="url(#a)" fill-rule="evenodd" d="M.357 9.198C-.06 6.098-.075 3.243.125.99.175.42.659 0 1.23 0h29.606c.602 0 1.102.48 1.124 1.081.756 20.148-9.676 29.18-15.465 31.388a1.056 1.056 0 0 1-.84-.046C6.515 27.938 2.394 19.533.822 11.93l3.506.658a4.508 4.508 0 0 0 6.62 3.885l3 2.886.048.043a4.937 4.937 0 0 0 7.742 5.994 4.935 4.935 0 0 0-5.887-7.804 1.32 1.32 0 0 0-.1-.108l-2.956-2.842a4.518 4.518 0 0 0 .373-3.386l3.058-1.578a4.506 4.506 0 1 0-1.088-2.364L11.756 9.06a4.507 4.507 0 0 0-6.725 1.014L.357 9.198Zm9.825 1.947a1.906 1.906 0 1 0-2.696 2.696 1.906 1.906 0 0 0 2.696-2.696Zm8.073-5.799a1.906 1.906 0 1 1 2.696 2.696 1.906 1.906 0 0 1-2.696-2.696ZM19.9 20.257A2.335 2.335 0 1 0 16.6 23.56a2.335 2.335 0 0 0 3.301-3.302Z" clip-rule="evenodd"/><defs><linearGradient id="a" x1="32.34" x2="-6.578" y1="-5.542" y2="29.619" gradientUnits="userSpaceOnUse"><stop stop-color="#F04E29"/><stop offset="1" stop-color="#FF8E75"/></linearGradient></defs></svg>
