<svg  viewBox="0 0 24 24" fill="currentColor" xmlns="http://www.w3.org/2000/svg">
<g clip-path="url(#clip0_29587_172950)">
<path d="M15.72 21.296H8.39997C8.25705 21.2971 8.11576 21.2657 7.98684 21.204C7.85792 21.1423 7.74476 21.052 7.65597 20.94L3.00797 15.124C2.91668 15.0097 2.85295 14.8759 2.82174 14.733C2.79052 14.5901 2.79265 14.442 2.82797 14.3L4.59597 7.18002C4.63005 7.0464 4.6923 6.9216 4.77853 6.81398C4.86476 6.70636 4.97299 6.61841 5.09597 6.55602L11.648 3.27202C11.7798 3.20679 11.9249 3.17285 12.072 3.17285C12.219 3.17285 12.3641 3.20679 12.496 3.27202L19.132 6.56002C19.2579 6.62101 19.3685 6.70944 19.4557 6.81881C19.5429 6.92818 19.6045 7.05571 19.636 7.19202L21.324 14.312C21.3549 14.4506 21.3545 14.5944 21.3226 14.7329C21.2908 14.8713 21.2284 15.0008 21.14 15.112L16.46 20.944C16.3708 21.0543 16.258 21.1432 16.13 21.2041C16.0019 21.265 15.8618 21.2964 15.72 21.296V21.296ZM8.39997 20.316H15.704L20.364 14.52L18.684 7.42802L12.076 4.15602L5.54797 7.42802L3.78397 14.524L8.39997 20.316Z" fill="white"/>
<path d="M20.488 5.24803L21.32 4.56403L12.564 0.228027V1.32403L20.488 5.24803Z" fill="white"/>
<path d="M1.27991 15.436L0.211914 15.672L6.31991 23.336L6.79991 22.364L1.27991 15.436Z" fill="white"/>
<path d="M11.5799 1.32806V0.232056L2.93994 4.56406L3.74794 5.26006L11.5799 1.32806Z" fill="white"/>
<path d="M3.164 6.052L2.332 5.336L0 14.712L1.072 14.476L3.164 6.052Z" fill="white"/>
<path d="M23.084 14.48L24.152 14.716L21.932 5.336L21.084 6.032L23.084 14.48Z" fill="white"/>
<path d="M22.8642 15.436L17.2842 22.376L17.7602 23.348L23.9322 15.672L22.8642 15.436Z" fill="white"/>
<path d="M7.6841 22.788L7.2041 23.772H16.8721L16.3921 22.788H7.6841Z" fill="white"/>
</g>
<defs>
<clipPath id="clip0_29587_172950">
<rect width="24" height="24" fill="white"/>
</clipPath>
</defs>
</svg>
