<svg xmlns="http://www.w3.org/2000/svg" viewBox="0 0 24 25">
  <path fill="#01A6B4" d="m22.75 13.66-2.893-8.586a1.822 1.822 0 0 0-1.38-1.207L9.45 2.105a1.83 1.83 0 0 0-1.711.576l-6.12 6.861a1.828 1.828 0 0 0-.369 1.796l2.893 8.586a1.814 1.814 0 0 0 1.38 1.207l9.027 1.762a1.83 1.83 0 0 0 1.711-.576l6.12-6.862a1.826 1.826 0 0 0 .369-1.796Zm-3.494-8.383 1.901 5.646-4.04-6.375a1.61 1.61 0 0 0-.314-.36l1.555.305c.415.077.762.382.898.784Zm-2.982 14.892-3.524.178 5.697-3.3a.07.07 0 0 0 .025-.016L17.1 19.636a.975.975 0 0 1-.826.533ZM7.42 20.11l-1.99-3.139c.038.026.076.051.118.077l5.744 3.325c.025.017.055.03.08.042l-3.062.157a.993.993 0 0 1-.89-.462Zm.305-15.278 3.524-.178-5.697 3.3a.089.089 0 0 0-.025.017L6.9 5.366a.975.975 0 0 1 .826-.534Zm8.853.055 1.99 3.139-.118-.076-5.744-3.325c-.025-.017-.055-.03-.08-.043l3.062-.156a1 1 0 0 1 .89.461Zm1.94 10.94a.786.786 0 0 1-.386.674l-5.743 3.325a.777.777 0 0 1-.78 0l-5.743-3.325a.78.78 0 0 1-.386-.673V9.174c0-.276.149-.534.386-.674l5.743-3.325A.75.75 0 0 1 12 5.07a.75.75 0 0 1 .39.106L18.133 8.5a.78.78 0 0 1 .386.674v6.654Zm-13.652.255-1.669-2.63a.996.996 0 0 1-.038-.996l1.682-3.198v6.57c.004.085.013.17.025.254Zm14.266-7.167 1.669 2.63c.19.301.203.683.038.996l-1.686 3.198V9.174c0-.09-.009-.174-.021-.259ZM8.218 3.105a1.202 1.202 0 0 1 1.114-.378l5.633 1.101-7.273.369c-.203.008-.394.06-.576.14l1.102-1.233Zm-6.125 6.86 4.05-4.536-3.546 6.73a1.67 1.67 0 0 0-.182.645l-.564-1.67a1.19 1.19 0 0 1 .242-1.168Zm2.651 9.756-1.901-5.647 4.04 6.375c.09.135.195.258.314.36l-1.555-.305a1.182 1.182 0 0 1-.898-.784Zm11.043 2.177a1.2 1.2 0 0 1-1.119.377l-5.633-1.102 7.273-.368c.203-.009.393-.06.576-.14l-1.097 1.233Zm6.12-6.862-4.05 4.536 3.546-6.734a1.67 1.67 0 0 0 .182-.644l.563 1.669c.136.406.043.855-.24 1.173Z"/>
</svg>
