<svg enable-background="new 0 0 32 32" viewBox="0 0 32 32" xmlns="http://www.w3.org/2000/svg"><circle cx="16" cy="16" fill="#fcdede" r="16"/><path d="m9.8 10h12v12h-12z" fill="#fff" transform="matrix(.7071 -.7071 .7071 .7071 -6.6677 15.8266)"/><path d="m0 9.3c0-.1 0-.4 0-.5 0-.4.3-.6.5-.9l4.8-4.8c.1-.1.1-.1.2-.3.1-.1.3-.1.4 0 .7.7 1.3 1.2 1.8 1.8.1.2.1.3.1.4-.1.6 0 1 .6 1.4.1.1.3.3.3.5v2.4 1.8c0 .3-.1.5-.4.6-.6.4-.6 1.3-.3 1.8.5.5 1.3.6 1.8.1s.5-1.4-.1-1.8c-.3-.3-.3-.5-.3-.8 0-1.3 0-2.7 0-4 0-.1 0-.4.1-.5.4.1.4.3.5.4l1.3 1.3c.3.3.4.4.3.6-.1.9.6 1.7 1.7 1.4.5-.1.9-.8.8-1.3-.1-.6-.5-1-1-1.2h-.1c-.5.1-.8-.1-1-.4-.4-.5-.9-.9-1.4-1.4-.1-.1-.1-.3-.1-.5-.1-.8-.7-1.4-1.6-1.3-.3 0-.4 0-.5-.1-.6-.7-1.2-1.2-1.7-1.7-.3-.3-.3-.4 0-.6.5-.5.9-.9 1.4-1.4.1-.3.4-.3.6-.3h.6c.4 0 .6.3.9.5 2.4 2.5 4.8 4.9 7.3 7.3.2.3.5.6.5.9v.5c0 .4-.3.6-.5.9-2.4 2.4-4.9 4.9-7.3 7.3-.3.3-.6.6-.9.6-.1 0-.4 0-.5 0-.4 0-.6-.3-.9-.5-2.5-2.5-4.9-4.9-7.5-7.5-.1-.1-.4-.4-.4-.7z" fill="#f24f29" transform="translate(7 7)"/></svg>