<svg xmlns="http://www.w3.org/2000/svg" viewBox="0 0 24 25">
  <g clip-path="url(#a)">
    <path fill="url(#b)" d="M12.752 23.52c5.706 0 10.332-4.624 10.332-10.328S18.458 2.864 12.752 2.864 2.421 7.488 2.421 13.192 7.046 23.52 12.752 23.52Z"/>
    <path fill="#fff" d="m1.952 5.847 8.203-3.528a.136.136 0 0 1 .168.048l4.434 6.296a.148.148 0 0 1-.072.228l-1.2.4a.149.149 0 0 0-.064.232l3.5 4.4a.148.148 0 0 1-.075.236l-1.517.372a.149.149 0 0 0-.08.236l5.17 6.528a.143.143 0 0 1-.08.232.144.144 0 0 1-.096-.012L8.64 14.82a.148.148 0 0 1 .02-.264l1.4-.556a.149.149 0 0 0 .077-.196.149.149 0 0 0-.049-.06l-4.713-3.4a.152.152 0 0 1 .028-.256l1.076-.472a.148.148 0 0 0 .024-.256L1.924 6.103a.148.148 0 0 1 .028-.256Z"/>
    <path fill="#000" d="M10.207 2.32a.14.14 0 0 1 .116.06l4.434 6.284a.148.148 0 0 1-.072.228l-1.2.4a.148.148 0 0 0-.064.232l3.5 4.4a.148.148 0 0 1-.075.236l-1.517.371a.149.149 0 0 0-.11.17.147.147 0 0 0 .03.066l5.17 6.529a.148.148 0 0 1-.108.24.12.12 0 0 1-.068 0L8.64 14.838a.148.148 0 0 1 .02-.264l1.4-.555a.148.148 0 0 0 .028-.256l-4.713-3.4a.152.152 0 0 1 .028-.257l1.076-.471a.148.148 0 0 0 .024-.256L1.924 6.104a.148.148 0 0 1 .028-.256l8.203-3.528a.124.124 0 0 1 .052 0m0-.8a.889.889 0 0 0-.364.076L1.644 5.12a.928.928 0 0 0-.172 1.6l3.666 2.608-.056.024a.936.936 0 0 0-.168 1.6L8.687 13.7l-.324.128a.933.933 0 0 0-.12 1.668l11.604 6.696c.14.082.298.125.46.123a.927.927 0 0 0 .72-1.504l-4.545-5.764.564-.136a.928.928 0 0 0 .652-.591.945.945 0 0 0-.152-.88L14.61 9.736l.316-.104a.917.917 0 0 0 .63-1.015.943.943 0 0 0-.158-.401L10.96 1.92a.92.92 0 0 0-.753-.4Z"/>
  </g>
  <defs>
    <radialGradient id="b" cx="0" cy="0" r="1" gradientTransform="matrix(10.3318 0 0 10.328 12.752 13.192)" gradientUnits="userSpaceOnUse">
      <stop stop-color="#DEDEDE"/>
      <stop offset="1" stop-color="#888"/>
    </radialGradient>
    <clipPath id="a">
      <path fill="#fff" d="M0 0h22v22H0z" transform="translate(1.084 1.52)"/>
    </clipPath>
  </defs>
</svg>
