<svg xmlns="http://www.w3.org/2000/svg" viewBox="0 0 16 16"><path fill-rule="evenodd" clip-rule="evenodd" d="M3.557 4.017a.5.5 0 0 0-.5.492v7.005a.5.5 0 0 0 .5.507h8.98a.5.5 0 0 0 .5-.5l.001-2.554a.5.5 0 1 1 1 0v2.554a1.5 1.5 0 0 1-1.5 1.5h-8.98a1.5 1.5 0 0 1-1.5-1.522V4.495a1.5 1.5 0 0 1 1.5-1.478h2.951a.5.5 0 0 1 0 1H3.557Z" fill="currentColor"/><path fill-rule="evenodd" clip-rule="evenodd" d="M11.002 3.694a1.3 1.3 0 1 0 0 2.6 1.3 1.3 0 0 0 0-2.6Zm-2.3 1.3a2.3 2.3 0 1 1 4.6 0 2.3 2.3 0 0 1-4.6 0Z" fill="currentColor"/><path fill-rule="evenodd" clip-rule="evenodd" d="M10.502 2.949v-.953h1v.953h-1Zm0 5.051V6.98h1V8h-1ZM13.051 4.498h.953v1h-.953v-1ZM8 4.498h1.02v1H8v-1ZM12.805 6.094l.674.674-.708.707-.673-.674.707-.707ZM9.233 2.522l.722.722-.708.707-.721-.722.707-.707ZM12.098 3.196l.673-.674.708.708-.674.673-.707-.707ZM8.526 6.768l.722-.722.707.708-.722.721-.707-.707Z" fill="currentColor"/></svg>