<svg xmlns="http://www.w3.org/2000/svg" fill="currentColor" viewBox="0 0 24 24">
  <path fill="#fff" fill-rule="evenodd" d="M4.5 3.415a.5.5 0 01.5-.5h11a.5.5 0 01.4.2l3 4a.5.5 0 01.1.3v14a.5.5 0 01-.5.5h-2.13a.5.5 0 010-1h1.63V7.58l-2.75-3.666H5.5v10.532a.5.5 0 01-1 0V3.415z" clip-rule="evenodd"/>
  <path fill="#fff" fill-rule="evenodd" d="M8.5 9.915a.5.5 0 01.5-.5h6a.5.5 0 010 1H9a.5.5 0 01-.5-.5zm0 3a.5.5 0 01.5-.5h6a.5.5 0 010 1H9a.5.5 0 01-.5-.5z" clip-rule="evenodd" opacity=".5"/>
  <path fill="#fff" d="M5.006 21.587h-1.15l1.493-4.424h1.423l1.493 4.424h-1.15l-1.038-3.31h-.035l-1.036 3.31zm-.154-1.741h2.402v.812H4.852v-.813zM9.07 21.587v-4.424h1.827c.331 0 .617.064.858.194.242.128.428.308.56.538.13.229.196.495.196.8 0 .305-.067.572-.201.8a1.347 1.347 0 01-.568.53 1.913 1.913 0 01-.877.188H9.737v-.843h.93a.87.87 0 00.403-.084.578.578 0 00.248-.235.728.728 0 00.085-.357.708.708 0 00-.085-.354.566.566 0 00-.248-.233.896.896 0 00-.404-.082h-.527v3.562h-1.07zM14.435 17.163v4.424h-1.069v-4.424h1.07z"/>
</svg>
