<svg fill="none" viewBox="0 0 32 32" xmlns="http://www.w3.org/2000/svg"><g clip-rule="evenodd" fill-rule="evenodd"><path d="m25.282 20.499a1 1 0 0 1 -1 1h-3a1 1 0 0 1 -1-1v-3.007a1 1 0 0 1 1-1h3a1 1 0 0 1 1 1v3.008zm-4 0h3v-3.007h-3v3.008zm-2.994 0a1 1 0 0 1 -1 1h-3a1 1 0 0 1 -1-1v-3.007a1 1 0 0 1 1-1h3a1 1 0 0 1 1 1v3.008zm-4 0h3v-3.007h-3v3.008zm10.994-6.989a1 1 0 0 1 -1 1h-3a1 1 0 0 1 -1-1v-3.007a1 1 0 0 1 1-1h3a1 1 0 0 1 1 1v3.006zm-4 0h3v-3.007h-3v3.006z" fill="#0278d5"/><path d="m7.282 5.499a1 1 0 0 1 1-1h3.001a1 1 0 0 1 1 1v3.007a1 1 0 0 1 -1 1h-3a1 1 0 0 1 -1-1v-3.007zm4.001 0h-3v3.007h3zm2.993 0a1 1 0 0 1 1-1h3.001a1 1 0 0 1 1 1v3.007a1 1 0 0 1 -1 1h-3a1 1 0 0 1 -1-1v-3.007zm4.001 0h-3v3.007h3zm-10.995 6.99a1 1 0 0 1 1-1h3.001a1 1 0 0 1 1 1v3.006a1 1 0 0 1 -1 1h-3a1 1 0 0 1 -1-1v-3.005zm4.001 0h-3v3.006h3v-3.005z" fill="#299b2c"/><path d="m23.14 22.76h.968v.526h-.968zm2.61 9.744-2.61-2.666v-.526l2.61 2.605 2.612-2.605v.526l-2.611 2.666zm2.612-9.744h-.974v.526h.974zm-.974 1.792v.606l-1.11 1.141-.277-.286.569-.599zm-3.28 0v.606l1.113 1.141.28-.286zm5.879 4.062-2.724-2.602v.537l2.724 2.639zm1.148-1.287h-1.148v.519h2.295v-.519zm-6.833-1.315-2.724 2.602v.574l2.724-2.639zm-2.724 1.315h-2.296v.519h2.296z" fill="#a15320"/><path d="m24.108 29.312h-.968l2.61 2.605 2.612-2.605h-.974v-1.872l-1.11-1.141-.277-.286.569-.6.818-.861v-1.793h.974l-2.611-2.665-2.61 2.665h.967v1.793l1.392 1.46-.279.287-1.113 1.14zm5.879-.698-2.724-2.602 2.724-2.602v1.278h2.295v2.639h-2.295zm-5.685-2.602-2.724 2.602v-1.288h-2.296v-2.638h2.296v-1.278z" fill="#f48433"/></g></svg>