<svg  viewBox="0 0 32 32" fill="currentColor" xmlns="http://www.w3.org/2000/svg">
<path fill-rule="evenodd" clip-rule="evenodd" d="M15.6359 2.64691C15.7324 2.55011 15.8619 2.49908 15.9935 2.5C16.1248 2.49908 16.2541 2.54995 16.3506 2.64645L19.0918 5.38766C19.2871 5.58292 19.2871 5.8995 19.0918 6.09476C18.8966 6.29002 18.58 6.29002 18.3847 6.09476L16.4961 4.2061L16.4899 11.6462C16.4897 11.9223 16.2657 12.1459 15.9897 12.1458C15.7136 12.1457 15.4899 11.9214 15.4899 11.6454V4.20935L13.6099 6.0943C13.4149 6.28982 13.0983 6.29023 12.9028 6.09523C12.7073 5.90022 12.7068 5.58364 12.9018 5.38812L15.6359 2.64691ZM2.64693 16.3613C2.55013 16.2648 2.49909 16.1352 2.50001 16.0037C2.4991 15.8724 2.54996 15.743 2.64646 15.6465L5.38767 12.9053C5.58293 12.7101 5.89952 12.7101 6.09478 12.9053C6.29004 13.1006 6.29004 13.4172 6.09478 13.6124L4.20614 15.5011L11.8562 15.5073C12.1323 15.5075 12.3559 15.7314 12.3558 16.0075C12.3557 16.2835 12.1315 16.5073 11.8554 16.5073L4.20937 16.5073L6.09431 18.3873C6.28983 18.5823 6.29025 18.8989 6.09524 19.0944C5.90024 19.2899 5.58365 19.2903 5.38814 19.0953L2.64693 16.3613ZM29.5 16.0036C29.5009 16.1352 29.4499 16.2647 29.3531 16.3612L26.6119 19.0953C26.4163 19.2903 26.0998 19.2898 25.9048 19.0943C25.7098 18.8988 25.7102 18.5822 25.9057 18.3872L27.7906 16.5072L20.1446 16.5072C19.8685 16.5072 19.6443 16.2835 19.6442 16.0074C19.6441 15.7314 19.8677 15.5074 20.1438 15.5072L27.7939 15.501L25.9052 13.6124C25.71 13.4171 25.71 13.1005 25.9052 12.9053C26.1005 12.71 26.4171 12.71 26.6123 12.9053L29.3535 15.6465C29.45 15.743 29.5009 15.8723 29.5 16.0036ZM15.6359 29.3531C15.7324 29.4499 15.8619 29.5009 15.9935 29.5C16.1248 29.5009 16.2541 29.45 16.3506 29.3535L19.0918 26.6123C19.2871 26.4171 19.2871 26.1005 19.0918 25.9052C18.8966 25.71 18.58 25.71 18.3847 25.9052L16.4961 27.7939L16.4899 20.1438C16.4897 19.8677 16.2657 19.6441 15.9897 19.6442C15.7136 19.6443 15.4899 19.8685 15.4899 20.1446V27.7906L13.6099 25.9057C13.4149 25.7102 13.0983 25.7098 12.9028 25.9048C12.7073 26.0998 12.7068 26.4163 12.9018 26.6119L15.6359 29.3531Z" fill="#0278D5"/>
</svg>
