<svg viewBox="0 0 32 33" xmlns="http://www.w3.org/2000/svg"><path fill-rule="evenodd" clip-rule="evenodd" d="M14.031 5.703a.5.5 0 0 1-.003.707l-2.194 2.178H26a1.5 1.5 0 0 1 1.5 1.5v8.22a.5.5 0 0 1-1 0v-8.22a.5.5 0 0 0-.5-.5H11.834l2.194 2.178a.5.5 0 0 1-.704.71l-3.056-3.033a.5.5 0 0 1 0-.71L13.324 5.7a.5.5 0 0 1 .707.003zM5 14.549a.5.5 0 0 1 .5.5v12.006a.5.5 0 0 0 .5.5h13.462a.5.5 0 0 1 0 1H6a1.5 1.5 0 0 1-1.5-1.5V15.05a.5.5 0 0 1 .5-.5z" fill="#0278D5"/><path fill-rule="evenodd" clip-rule="evenodd" d="M22.817 21.197a.495.495 0 0 1 .35-.146h3.379c.192 0 .366.11.448.285l3.752 7.972h.758c.274 0 .496.223.496.498v2.246a.5.5 0 0 1-.496.499h-2.679a.496.496 0 0 1-.447-.284l-3.735-7.86h-1.475a.497.497 0 0 1-.496-.499v-2.359a.5.5 0 0 1 .145-.352zm.846.85v1.363h1.293c.19 0 .365.11.447.283l3.735 7.861h1.87v-1.25h-.576a.496.496 0 0 1-.448-.284l-3.752-7.973h-2.569zm.203 3.966a.496.496 0 0 1 .457.282l1.427 2.981a.5.5 0 0 1 .017.394l-.971 2.56a.496.496 0 0 1-.464.32h-2.836a.5.5 0 0 1-.455-.696l2.38-5.54a.496.496 0 0 1 .445-.301zm.035 1.699-1.651 3.842h1.74l.774-2.04-.863-1.802z" fill="url(#a)"/><defs><linearGradient id="a" x1="22.428" y1="21.628" x2="31.634" y2="32.797" gradientUnits="userSpaceOnUse"><stop stop-color="#CA541A"/><stop offset="1" stop-color="#FC9502"/></linearGradient></defs></svg>