<svg fill="none" viewBox="0 0 28 25" xmlns="http://www.w3.org/2000/svg" xmlns:xlink="http://www.w3.org/1999/xlink"><clipPath id="a"><path d="m14.0625 11.7188h13.2812v13.2812h-13.2812z"/></clipPath><g clip-rule="evenodd" fill="#0278d5" fill-rule="evenodd"><path d="m11.2151 3.25777c.1513.15378.1493.4011-.0045.55241l-1.71942 1.69181h11.12632c.6472 0 1.1718.52467 1.1718 1.17187v4.19874c0 .2158-.1749.3907-.3906.3907s-.3906-.1749-.3906-.3907v-4.19874c0-.21573-.1749-.39062-.3906-.39062h-11.12632l1.71942 1.6918c.1538.15131.1558.39863.0045.55241s-.3986.15579-.5524.00448l-2.39945-2.36087c-.07463-.07343-.11666-.17375-.11666-.27845 0-.10469.04203-.20501.11666-.27844l2.39945-2.36087c.1538-.15131.4011-.14931.5524.00447zm-7.64479 6.93913c.21574 0 .39063.1749.39063.3906v9.3435c0 .2157.17489.3906.39062.3906h7.85614c.2158 0 .3907.1749.3907.3906 0 .2158-.1749.3907-.3907.3907h-7.85614c-.64721 0-1.17187-.5247-1.17187-1.1719v-9.3435c0-.2157.17489-.3906.39062-.3906z"/><g clip-path="url(#a)"><path d="m17.5316 14.4327c.2382-.1397.318-.4461.1782-.6843-.1397-.2382-.4461-.318-.6842-.1782l-1.932 1.1334c-.306.1795-.494.5077-.494.8625v2.7944 2.7942c0 .355.1883.6835.4947.8629l1.9316 1.1311c.2383.1396.5446.0595.6841-.1788.1396-.2383.0595-.5446-.1788-.6841l-1.9316-1.1311v-2.7942-2.7944zm6.3421 0c-.2382-.1397-.318-.4461-.1783-.6843.1398-.2382.4461-.318.6843-.1782l1.932 1.1334c.306.1795.494.5077.494.8625v2.7944 2.7942c0 .355-.1883.6835-.4947.8629l-1.9316 1.1311c-.2383.1396-.5446.0595-.6842-.1788-.1395-.2383-.0594-.5446.1788-.6841l1.9317-1.1311v-2.7942-2.7944z"/><path d="m20.5406 13.8656c.1572-.0924.3523-.0919.5091.0013l3.0975 1.8429c.152.0904.2449.2543.2444.431-.0005.1768-.0942.3402-.2466.4298l-3.1295 1.8395c-.157.0923-.3518.0919-.5084-.001l-3.1019-1.8395c-.1522-.0902-.2453-.2541-.245-.431s.0941-.3404.2466-.4301zm-1.8971 2.2757 2.1197 1.2571 2.1461-1.2615-2.1168-1.2594zm-1.9706.4224c.1531-.0898.3422-.0917.4971-.005l3.2872 1.8396c.158.0884.2558.2553.2558.4363v3.5875c0 .177-.0936.3409-.2461.4308-.1526.0898-.3413.0924-.4962.0066l-3.2872-1.8208c-.159-.0881-.2577-.2556-.2577-.4374v-1.8031-1.8032c0-.1774.094-.3416.2471-.4313zm.7529 1.2841v.9504 1.5085l2.2872 1.2669v-2.4459zm7.5536-.8528c0-.1793-.096-.3449-.2517-.434-.1556-.089-.3471-.0879-.5017.003l-3.1294 1.8395c-.1528.0899-.2466.2538-.2466.4311v3.5875c0 .1789.0956.3442.2507.4334s.346.0887.5007-.0012l3.1295-1.8208c.1539-.0896.2485-.2542.2485-.4322zm-3.1294 4.5577v-2.432l2.1294-1.2518v2.4448z"/></g></g></svg>