<svg viewBox="0 0 40 41" xmlns="http://www.w3.org/2000/svg"><g clip-rule="evenodd" fill="#fff" fill-rule="evenodd"><path d="m22.3498 2.89409c.1696.2167.131.52954-.0862.69873l-1.4857 1.15717c8.2219.42845 15.2192 7.63921 15.2192 16.01571 0 .275-.2234.4978-.499.4978s-.499-.2228-.499-.4978c0-7.8058-6.5095-14.54331-14.1436-15.01395l1.3987 1.03723c.2212.16401.2672.47584.1028.69649s-.477.26657-.6982.10255l-2.623-1.94506c-.125-.09268-.1994-.23827-.2012-.39363-.0019-.15535.0691-.30266.1918-.39827l2.623-2.043c.2173-.1692.5308-.13068.7004.08603zm-17.85373 17.24761c.27559 0 .499.2228.499.4978 0 7.8058 6.50943 14.5433 14.14363 15.014l-1.3988-1.0373c-.2211-.164-.2672-.4758-.1028-.6965.1644-.2206.477-.2665.6982-.1025l2.623 1.945c.125.0927.1994.2383.2013.3937.0018.1553-.0691.3026-.1919.3983l-2.623 2.043c-.2172.1691-.5308.1306-.7004-.0861s-.131-.5295.0862-.6987l1.4857-1.1572c-8.2218-.4284-15.21913-7.6392-15.21913-16.0157 0-.275.22341-.4978.499-.4978z"/><path d="m17.9966 10.2016c0-.55227.4478-.99999 1-.99999h2c.5523 0 1 .44772 1 .99999v1.2971c.0002.0004.0008.0016.0022.0034.0036.0043.0102.009.0194.0111 1.0996.2409 2.127.674 3.0452 1.2621.0079.005.0158.0063.0213.0058.0022-.0002.0035-.0006.0039-.0008l.9172-.9172c.3905-.3905 1.0237-.3905 1.4142 0l1.4142 1.4142c.3906.3905.3906 1.0237 0 1.4142l-.9169.9169c-.0001.0004-.0006.0017-.0008.0039-.0005.0056.0008.0135.0058.0214.5887.9188 1.0223 1.947 1.2633 3.0475.002.0093.0067.0158.0111.0194.0017.0015.0029.002.0033.0022h1.2981c.5523 0 1 .4477 1 1v2c0 .5523-.4477 1-1 1h-1.2983c-.0004.0002-.0016.0007-.0033.0022-.0044.0036-.0091.0101-.0111.0194-.2412 1.1006-.6749 2.129-1.2639 3.0479-.005.0079-.0063.0158-.0058.0213.0002.0023.0006.0035.0008.0039l.9181.9183c.3903.3905.3903 1.0235 0 1.414l-1.414 1.4145c-.3906.3906-1.0239.3906-1.4145 0l-.9187-.919c-.0004-.0002-.0017-.0007-.0039-.0009-.0056-.0005-.0134.0008-.0213.0059-.9179.5876-1.9449 1.0205-3.044 1.2613-.0092.002-.0158.0067-.0194.0111-.0014.0017-.002.0029-.0022.0033v1.2976c0 .5523-.4477 1-1 1h-2c-.5522 0-1-.4477-1-1v-1.2974s0 .0001 0 0c-.0001-.0004-.0007-.0016-.0021-.0033-.0036-.0044-.0102-.0091-.0194-.0111-1.1005-.241-2.1288-.6745-3.0476-1.2633-.0079-.005-.0158-.0063-.0214-.0058-.0022.0002-.0035.0006-.0039.0008 0 0 .0001 0 0 0l-.9186.9186c-.3905.3906-1.0237.3906-1.4142 0l-1.4142-1.4142c-.3906-.3905-.3906-1.0237 0-1.4142l.9188-.9189c.0001 0 0 .0001 0 0 .0002-.0004.0007-.0016.0009-.0039.0005-.0055-.0008-.0134-.0058-.0213-.5881-.9182-1.0213-1.9456-1.2622-3.0452-.002-.0093-.0067-.0158-.0111-.0194-.0017-.0015-.0029-.002-.0033-.0022 0 0 .0001 0 0 0h-1.29641c-.55228 0-1-.4477-1-1v-2c0-.5523.44772-1 1-1h1.29621c.0004-.0002.0016-.0007.0034-.0022.0043-.0036.009-.0101.011-.0194.241-1.1003.6745-2.1285 1.2631-3.0472.005-.0079.0063-.0158.0058-.0214-.0002-.0022-.0006-.0034-.0008-.0038l-.9171-.9174c-.3904-.3905-.3904-1.0235 0-1.414l1.414-1.4144c.3906-.3907 1.0239-.3907 1.4144 0l.9173.9175c.0003.0001.0016.0006.0039.0008.0055.0005.0134-.0008.0213-.0058.9185-.5884 1.9464-1.0217 3.0465-1.2626.0092-.002.0158-.0067.0194-.011.0014-.0018.002-.003.0021-.0034 0 0 0 .0001 0 0zm-5.9226 15.5932c.0001 0 0 .0001 0 0zm2.8282 2.8287s.0001 0 0 0zm6.0944-18.4219h-2v1.2969c0 .4931-.3541.892-.8076.9913-.9821.2151-1.9001.6019-2.721 1.1277-.3911.2505-.9234.2185-1.2719-.13l-.9172-.9175-1.414 1.4144.9171.9173c.3484.3485.3803.8808.1298 1.2718-.5261.821-.9131 1.7393-1.1282 2.7216-.0993.4536-.4982.8077-.9913.8077h-1.29621v2h1.29641c.493 0 .8919.3541.9913.8076.215.9817.6018 1.8993 1.1273 2.7199.2505.3909.2185.9232-.13 1.2716l-.9188.9189 1.4142 1.4142.9186-.9186c.3485-.3485.8809-.3804 1.2719-.1299.8211.5262 1.7395.9133 2.722 1.1285.4535.0993.8076.4982.8076.9912v1.2974h2v-1.2976c0-.493.3541-.8919.8076-.9912.9812-.215 1.8984-.6015 2.7188-1.1267.391-.2504.9232-.2183 1.2716.1302l.9187.919 1.4141-1.4145-.9181-.9183c-.3484-.3485-.3803-.8809-.1297-1.2718.5264-.8213.9137-1.7397 1.129-2.7223.0993-.4535.4982-.8076.9912-.8076h1.2983v-2h-1.2981c-.493 0-.892-.3541-.9913-.8077-.2151-.9825-.6022-1.9008-1.1284-2.7219-.2505-.391-.2186-.9234.1299-1.2719l.9169-.9169-1.4142-1.4142-.9172.9172c-.3484.3484-.8807.3804-1.2717.13-.8205-.5256-1.7381-.9123-2.7198-1.1274-.4535-.0994-.8076-.4983-.8076-.9913zm-.9516 5.1075c-3.0596 0-5.54 2.4803-5.54 5.54 0 3.0596 2.4804 5.54 5.54 5.54 3.0597 0 5.54-2.4804 5.54-5.54 0-3.0597-2.4803-5.54-5.54-5.54zm-6.54 5.54c0-3.612 2.9281-6.54 6.54-6.54 3.612 0 6.54 2.928 6.54 6.54 0 3.6119-2.928 6.54-6.54 6.54-3.6119 0-6.54-2.9281-6.54-6.54z"/></g></svg>