<svg fill="none" viewBox="0 0 36 37" xmlns="http://www.w3.org/2000/svg"><g clip-rule="evenodd" fill="#0194ff" fill-rule="evenodd"><path d="m1.951 9.416c.824 0 1.492.667 1.492 1.49v20.878c0 .824.667 1.491 1.49 1.491h20.878a1.491 1.491 0 1 1 0 2.983h-20.877a4.474 4.474 0 0 1 -4.474-4.474v-20.877c0-.824.668-1.491 1.491-1.491z"/><path d="m10.899.965a2.982 2.982 0 0 0 -2.983 2.982v4.833h15.55a4.474 4.474 0 0 1 4.474 4.474v15.546h4.83a2.982 2.982 0 0 0 2.982-2.982v-21.871a2.982 2.982 0 0 0 -2.982-2.982zm14.059 27.835v-15.547c0-.824-.668-1.492-1.491-1.492h-15.55v14.059a2.982 2.982 0 0 0 2.982 2.982h14.059z"/></g></svg>