<svg fill="none" viewBox="0 0 40 40" xmlns="http://www.w3.org/2000/svg" xmlns:xlink="http://www.w3.org/1999/xlink"><linearGradient id="a" gradientUnits="userSpaceOnUse" x1="17.972" x2="17.972" y1="11.666" y2="33.333"><stop offset=".214" stop-color="#ffd608" stop-opacity=".49"/><stop offset="1" stop-color="#ffd608" stop-opacity="0"/></linearGradient><path d="m24.642 27.5c-.666 1.333-5 4.286-12.142 6.071l-6.072-3.571c3.283-3.384 11.072-9.072 11.072-11.072 0-2.5 1.071-7.857 5.834-7.262 1.654.207 2.618 4.286 3.451 5.12.834.833-1.31 9.047-2.143 10.714z" fill="url(#a)"/><g stroke="#fcb519" stroke-width="3"><path d="m12.5 32.857c8.333.834 12.258-4.632 13.333-7.857.834-2.5.834-6.666.834-6.666 0-9.167-10-9.167-9.167.833" stroke-linecap="round"/><path d="m29.165 16.667-2.737-1.667.237 3.333z" fill="#fcb519"/><path d="m12.332 32.894a14.932 14.932 0 0 0 7.242 2.1c8.28.237 15.191-5.88 15.428-14.16.236-8.281-6.29-15.591-14.572-15.828-8.28-.236-15.185 6.285-15.422 14.566a15.07 15.07 0 0 0 .214 3.008" stroke-linecap="round" stroke-linejoin="round"/></g><path d="m3.94 30.607a1.5 1.5 0 1 0 2.121 2.121l-2.12-2.121zm14.621-10.379a1.5 1.5 0 1 0 -2.12-2.121zm-12.5 12.5 12.5-12.5-2.12-2.121-12.5 12.5z" fill="#fcb519"/></svg>