<svg viewBox="0 0 32 33" xmlns="http://www.w3.org/2000/svg" xmlns:xlink="http://www.w3.org/1999/xlink"><linearGradient id="a" gradientUnits="userSpaceOnUse" x1="14.378" x2="14.378" y1="10.258" y2="27.591"><stop offset=".214" stop-color="#fff" stop-opacity=".49"/><stop offset="1" stop-color="#fff" stop-opacity="0"/></linearGradient><path d="m19.714 22.925c-.533 1.066-4 3.428-9.714 4.857l-4.857-2.857c2.626-2.708 8.857-7.257 8.857-8.857 0-2 .857-6.286 4.667-5.81 1.323.165 2.095 3.429 2.761 4.095.667.667-1.047 7.238-1.714 8.572z" fill="url(#a)"/><g fill="#fff"><path clip-rule="evenodd" d="m17.364 8.976c2.866-.125 5.17 2.565 5.17 6.615h-1.2 1.2v.014l-.001.032-.001.118c-.002.101-.004.246-.01.425-.01.358-.032.856-.076 1.42-.084 1.1-.259 2.557-.641 3.704-.981 2.943-4.54 7.839-11.925 7.1a1.2 1.2 0 1 1 .24-2.388c5.948.595 8.67-3.254 9.408-5.47.285-.854.443-2.064.525-3.13a28.508 28.508 0 0 0 .079-1.694l.001-.1v-.03c0-3.283-1.696-4.26-2.664-4.218-.534.023-1.132.31-1.598 1.027-.474.73-.826 1.945-.675 3.757a1.2 1.2 0 1 1 -2.392.2c-.182-2.188.216-3.973 1.054-5.264.846-1.303 2.123-2.058 3.506-2.118z" fill-rule="evenodd"/><path d="m23.332 14.258-2.19-1.333.19 2.666z"/><path clip-rule="evenodd" d="m19.78 10.69 5.784 3.522-5.283 3.522-.5-7.043z" fill-rule="evenodd"/><path clip-rule="evenodd" d="m15.694 27.72c6.007.172 10.939-4.245 11.108-10.163.171-6.002-4.569-11.259-10.492-11.428-5.962-.17-10.934 4.525-11.104 10.488-.021.74.033 1.465.154 2.166a1.2 1.2 0 1 1 -2.364.41 13.255 13.255 0 0 1 -.189-2.645c.208-7.287 6.284-13.026 13.573-12.818 7.326.21 13.029 6.649 12.822 13.896-.21 7.331-6.334 12.7-13.576 12.493a13.146 13.146 0 0 1 -6.374-1.848 1.2 1.2 0 0 1 1.23-2.062 10.745 10.745 0 0 0 5.213 1.511z" fill-rule="evenodd"/><path clip-rule="evenodd" d="m14.85 15.41a1.2 1.2 0 0 1 0 1.697l-10 10a1.2 1.2 0 0 1 -1.698-1.697l10-10a1.2 1.2 0 0 1 1.697 0z" fill-rule="evenodd"/></g></svg>