<svg xmlns="http://www.w3.org/2000/svg" fill="currentColor" viewBox="0 0 40 40"><path fill="url(#a)" fill-rule="evenodd" d="M4.01562 12.3389c0-1.1046.89543-2 1.99999-2h5.74749c1.1046 0 2 .8954 2 2v.1523h2.3911v-.1523c0-1.1046.8954-2 2-2h5.7101c1.1046 0 2 .8954 2 2v2.1646c0 1.1046-.8954 2-2 2h-5.7101c-1.1046 0-2-.8954-2-2v-.0123h-2.3911v.1519c0 1.1045-.8954 2-2 2H9.46993v2.123c0 .4037.12433.7775.37592 1.0431.23705.2502.69845.5223 1.61705.5223h4.6913v-.4721c0-1.1046.8954-2 2-2h5.7475c1.1045 0 2 .8954 2 2v2.3042c0 1.1046-.8955 2-2 2h-5.7475c-1.048 0-1.9078-.8061-1.9931-1.8321h-4.6982c-1.3388 0-2.37385-.4131-3.06896-1.1468-.68054-.7184-.92399-1.6273-.92399-2.4186v-2.123H6.01561c-1.10456 0-1.99999-.8955-1.99999-2v-2.3042Zm7.74748 0H6.01561v2.3042h5.74749v-2.3042Zm12.1012 0h-5.7101v2.1646h5.7101v-2.1646Zm-5.7101 7.5205h5.7475v2.3042h-5.7475v-2.3042Z" clip-rule="evenodd"/><path fill="#4F5162" fill-rule="evenodd" d="M28.8164 4.02051c1.6569 0 3 1.34314 3 3V22.114c0 .5523-.4477 1-1 1s-1-.4477-1-1V7.02051c0-.55229-.4477-1-1-1H9.00883c-.55228 0-1 .44771-1 1v.27147c0 .55228-.44771 1-.99999 1-.55228 0-.99999-.44772-.99999-1v-.27147c0-1.65686 1.34314-3 2.99998-3H28.8164ZM24.4656 30.7667c0 .5523-.4477 1-1 1H9.00883c-1.65684 0-2.99998-1.3431-2.99998-3v-4.6629c0-.5522.44771-1 .99999-1 .55228 0 .99999.4478.99999 1v4.6629c0 .5523.44772 1 1 1H23.4656c.5523 0 1 .4477 1 1Z" clip-rule="evenodd"/><path fill="#4F5162" fill-rule="evenodd" d="M30.8164 21.1143c.5523 0 1 .4477 1 1v2.6527c0 3.8659-3.134 7-6.9999 7h-5.9039c-.5523 0-1-.4478-1-1 0-.5523.4477-1 1-1h5.9039c2.7614 0 4.9999-2.2386 4.9999-5v-2.6527c0-.5523.4477-1 1-1Z" clip-rule="evenodd"/><path fill="url(#b)" fill-rule="evenodd" d="M33.1182 10.207c1.6568 0 3 1.3432 3 3v13.8769c0 .5523-.4477 1-1 1s-1-.4477-1-1V13.207c0-.5523-.4477-1-1-1h-2.3017c-.5523 0-1-.4477-1-1s.4477-1 1-1h2.3017Zm-4.0873 24.9138c0 .5523-.4477 1-1 1H14.1641c-1.6569 0-3-1.3431-3-3v-2.1293c0-.5523.4477-1 1-1s1 .4477 1 1v2.1293c0 .5523.4477 1 1 1h13.8668c.5523 0 1 .4477 1 1Z" clip-rule="evenodd"/><path fill="url(#c)" fill-rule="evenodd" d="M35.1182 26.084c.5523 0 1 .4477 1 1v2.0368c0 3.866-3.134 7-7 7h-5.4771c-.5522 0-1-.4477-1-1 0-.5522.4478-1 1-1h5.4771c2.7614 0 5-2.2385 5-5V27.084c0-.5523.4477-1 1-1Z" clip-rule="evenodd"/><defs><linearGradient id="a" x1="22.7329" x2="-.417752" y1="13.4322" y2="45.8287" gradientUnits="userSpaceOnUse"><stop stop-color="#4F5162"/><stop offset=".541667" stop-color="#4F5162" stop-opacity="0"/></linearGradient><linearGradient id="b" x1="86.0214" x2="-10.6331" y1="7.43091" y2="62.547" gradientUnits="userSpaceOnUse"><stop stop-color="#4F5162"/><stop offset=".837223" stop-color="#4F5162" stop-opacity="0"/></linearGradient><linearGradient id="c" x1="63.0696" x2="20.6895" y1="25.0087" y2="58.7068" gradientUnits="userSpaceOnUse"><stop stop-color="#4F5162"/><stop offset=".837223" stop-color="#4F5162" stop-opacity="0"/></linearGradient></defs></svg>