<svg xmlns="http://www.w3.org/2000/svg" fill="currentColor" viewBox="0 0 20 22"><path fill="#4F5162" d="M.904611 6.26461 9.89837 11.6432c.15673.0891.45943.0891.61613 0l9.0935-5.51402c.3568-.20279.245-.85714-.1218-1.04109L10.4422.553282c-.1443-.072345-.3141-.072345-.45837 0L.939898 5.08809c-.366857.18395-.392134.97374-.035287 1.17652Zm.816259-1.17652.16961 1.17652 8.41922-4.34048 8.4259 4.34048V5.10063L9.96036 10.2401h.73744L1.72087 5.08809Zm7.7447 6.04631v9.54c0 .3934.65773.9516.99933.7582l8.8079-5.4995c.5207-.4088.6108-.5565.6108-1.3362V9.03724c0-.28384-.2612-.57129-.6108-.57129s-.6524.28745-.6524.57129v5.44706l-8.63317 5.2614.92637.8714-.0233-9.4827c0-.2839-.3942-.5379-.6773-.5379-.28301 0-.74743.254-.74743.5379Zm1.18653 8.9208-9.19606-5.5721.51985 1.0413-.08719-9.45326c0-.28385-.43657-.73499-.71961-.73499-.28304 0-.512489.2301-.512489.51395v9.6743c0 .1802.094161.3473.248144.4403l9.043935 5.4606c.24252.1464.55742.068.70342-.1752.146-.2432.2425-1.0485 0-1.1949ZM3.31713 9.91865l3.01465 1.81395c.2427.146.55751.0671.70313-.1763.14562-.2434.06692-.5591-.17578-.7051L3.84448 9.03724c-.2427-.14604-.55751-.06711-.70313.17628-.14562.2434-.06692.55909.17578.70513Z"/></svg>