<svg viewBox="0 0 42 42" xmlns="http://www.w3.org/2000/svg"><g clip-rule="evenodd" fill="#0278d5" fill-rule="evenodd"><path d="m4.2168 12.956c0-1.1598.94019-2.1 2.1-2.1h6.0349c1.1598 0 2.1.9402 2.1 2.1v.1599h2.5106v-.1599c0-1.1598.9402-2.1 2.1-2.1h5.9956c1.1598 0 2.1.9402 2.1 2.1v2.2728c0 1.1598-.9402 2.1-2.1 2.1h-5.9956c-1.1598 0-2.1-.9402-2.1-2.1v-.0129h-2.5106v.1595c0 1.1598-.9402 2.1-2.1 2.1h-2.4079v2.2292c0 .4239.13058.8164.39468 1.0952.2489.2627.7334.5484 1.6979.5484h4.9259v-.4957c0-1.1598.9402-2.1 2.1-2.1h6.0349c1.1597 0 2.0999.9402 2.0999 2.1v2.4194c0 1.1598-.9402 2.1-2.0999 2.1h-6.0349c-1.1004 0-2.0032-.8464-2.0927-1.9237h-4.9332c-1.4057 0-2.4925-.4337-3.2224-1.2041-.71457-.7543-.97019-1.7087-.97019-2.5395v-2.2292h-1.5271c-1.1598 0-2.1-.9402-2.1-2.1v-2.4194zm8.1349 0h-6.0349v2.4194h6.0349zm12.706 0h-5.9956v2.2728h5.9956zm-5.9956 7.8965h6.0349v2.4194h-6.0349z"/><path d="m30.256 4.2227c1.7397 0 3.1499 1.4103 3.1499 3.15v15.848c0 .5799-.47 1.05-1.0499 1.05s-1.05-.4701-1.05-1.05v-15.848c0-.5799-.4701-1.05-1.05-1.05h-20.798c-.5799 0-1.05.4701-1.05 1.05v.28504c0 .5799-.4701 1.05-1.05 1.05s-1.05-.4701-1.05-1.05v-.28505c0-1.7397 1.4103-3.15 3.15-3.15h20.798zm-4.5684 28.084c0 .5799-.4701 1.05-1.05 1.05h-15.18c-1.7397 0-3.15-1.4103-3.15-3.15v-4.896c0-.5799.4701-1.05 1.05-1.05.57989 0 1.05.4701 1.05 1.05v4.896c0 .5799.4701 1.05 1.05 1.05h15.18c.5799 0 1.05.4701 1.05 1.05z"/><path d="m32.356 22.172c.5799 0 1.0499.4701 1.0499 1.05v2.7853c0 4.0593-3.2906 7.35-7.3499 7.35h-6.199c-.5799 0-1.05-.4701-1.05-1.05s.4701-1.05 1.05-1.05h6.199c2.8995 0 5.25-2.3505 5.25-5.25v-2.7853c0-.5799.4701-1.05 1.05-1.05z"/><path d="m34.774 10.719c1.7396 0 3.1499 1.4104 3.1499 3.15v14.571c0 .5799-.4701 1.05-1.05 1.05s-1.05-.4701-1.05-1.05v-14.571c0-.5798-.4701-1.0499-1.0499-1.0499h-2.4168c-.5799 0-1.05-.4702-1.05-1.0501 0-.5798.4701-1.05 1.05-1.05zm-4.2917 26.16c0 .5799-.4701 1.05-1.05 1.05h-14.56c-1.7396 0-3.1499-1.4103-3.1499-3.15v-2.2358c0-.5799.4701-1.05 1.05-1.05s1.0499.4701 1.0499 1.05v2.2358c0 .5799.4701 1.05 1.05 1.05h14.56c.5799 0 1.05.4701 1.05 1.05z"/><path d="m36.874 27.387c.5799 0 1.05.4701 1.05 1.05v2.1387c0 4.0593-3.2907 7.35-7.3499 7.35h-5.751c-.5798 0-1.0499-.4701-1.0499-1.05s.4701-1.05 1.0499-1.05h5.751c2.8995 0 5.2499-2.3505 5.2499-5.25v-2.1387c0-.5799.4701-1.05 1.05-1.05z"/></g></svg>