<svg viewBox="0 0 13 13" xmlns="http://www.w3.org/2000/svg"><path clip-rule="evenodd" d="m.166687 6.5013c0 3.49781 2.835533 6.3333 6.333333 6.3333s6.33338-2.83549 6.33338-6.3333c0-3.4978-2.83558-6.333331-6.33338-6.333331s-6.333333 2.835531-6.333333 6.333331zm4.071723-3.0033 2.25958 2.26296 2.26399-2.26329c.49507-.49492 1.23633.24879.74127.7437l-2.26333 2.26263 2.25419 2.25757c.49462.49536-.24731 1.23839-.74193.74303l-2.25486-2.25822-2.25925 2.25856c-.49506.49491-1.23633-.24879-.74126-.74371l2.25858-2.25789-2.25891-2.2623c-.49462-.49536.24731-1.2384.74193-.74304z" fill-rule="evenodd"/></svg>