<svg fill="none" viewBox="0 0 33 33" xmlns="http://www.w3.org/2000/svg" xmlns:xlink="http://www.w3.org/1999/xlink"><mask id="a" height="11" maskUnits="userSpaceOnUse" width="12" x="21" y="22"><path d="m32.81 27.128-2.26-3.931a.993.993 0 0 0 -.847-.505h-4.52a.993.993 0 0 0 -.848.505l-2.261 3.92a.987.987 0 0 0 0 .983l2.26 3.953c.171.312.493.51.847.524h4.521c.355-.012.677-.21.849-.521l2.26-3.93c.176-.31.176-.69 0-.998z" fill="#fff"/></mask><path clip-rule="evenodd" d="m14.974 5.73a.5.5 0 0 1 -.003.706l-2.194 2.178h14.166a1.5 1.5 0 0 1 1.5 1.5v9.536a.5.5 0 1 1 -1 0v-9.536a.5.5 0 0 0 -.5-.5h-14.166l2.194 2.178a.5.5 0 0 1 -.704.71l-3.057-3.033a.5.5 0 0 1 0-.71l3.056-3.033a.5.5 0 0 1 .707.003zm-9.031 8.845a.5.5 0 0 1 .5.5v12.006a.5.5 0 0 0 .5.5h12.243a.5.5 0 0 1 0 1h-12.243a1.5 1.5 0 0 1 -1.5-1.5v-12.006a.5.5 0 0 1 .5-.5z" fill="#0278d5" fill-rule="evenodd"/><g mask="url(#a)"><path d="m32.81 27.128-2.26-3.931a.993.993 0 0 0 -.847-.505h-4.52a.993.993 0 0 0 -.848.505l-2.261 3.92a.987.987 0 0 0 0 .983l2.26 3.953c.171.312.493.51.847.524h4.521c.355-.012.677-.21.849-.521l2.26-3.93c.176-.31.176-.69 0-.998z" fill="#4285f4"/><path d="m29.985 26.332-.311.34.07 2.02-.296.428-.17-.171h.157v-.7l-.756-.756-.571.285-1.896-1.9-.912.49-.113.946.32 1.733.464.455-.211.3 2.76 2.826h1.154c.353-.013.736-.244.906-.554l1.881-3.265z" fill="#000" opacity=".07"/><g fill="#fff"><path d="m25.76 29.802.452-.453-.678-.679v-2.112l.678-.68-.452-.452-.907.907v2.563z"/><path d="m26.46 27.935a.321.321 0 1 0 0-.642.321.321 0 0 0 0 .642zm.961 0a.321.321 0 1 0 0-.642.321.321 0 0 0 0 .642zm.961 0a.321.321 0 1 0 0-.642.321.321 0 0 0 0 .642z"/><path d="m29.079 25.426-.453.453.679.679v2.112l-.68.68.454.452.906-.907v-2.563z"/></g></g></svg>