<svg fill="none" viewBox="0 0 16 16" xmlns="http://www.w3.org/2000/svg"><path clip-rule="evenodd" d="m7.97998 13c-2.76142 0-5-2.2386-5-5 0-2.76142 2.23858-5 5-5s5.00002 2.23858 5.00002 5c0 2.7614-2.2386 5-5.00002 5zm0 1c-3.31371 0-6-2.6863-6-6 0-3.31371 2.68629-6 6-6 3.31372 0 6.00002 2.68629 6.00002 6 0 3.3137-2.6863 6-6.00002 6zm.02002-6.5c-.27614 0-.5.22386-.5.5v2.5c0 .2761.22386.5.5.5s.5-.2239.5-.5v-2.5c0-.27614-.22386-.5-.5-.5zm0-1.02905c-.41421 0-.75-.33579-.75-.75 0-.41422.33579-.75.75-.75s.75.33578.75.75c0 .41421-.33579.75-.75.75z" fill="#383946" fill-rule="evenodd"/></svg>