<svg viewBox="0 0 24 22" xmlns="http://www.w3.org/2000/svg"><path d="M23.768 9.589l-5.577-5.9a.81.81 0 10-1.186 1.104l5.066 5.362-5.066 5.362a.808.808 0 00.31 1.311.81.81 0 00.876-.206l5.604-5.928a.808.808 0 00-.027-1.105zM6.954 3.634a.808.808 0 00-1.158.054L.218 9.59a.808.808 0 000 1.105l5.578 5.928a.81.81 0 001.185-1.105l-5.065-5.362L6.98 4.793a.808.808 0 00-.027-1.159zM14.436.02a.74.74 0 00-.569.094.777.777 0 00-.34.477L9.032 19.467c-.046.199-.013.409.09.584.105.174.272.3.465.349h.177a.745.745 0 00.46-.158.78.78 0 00.273-.412L14.992.954A.795.795 0 0014.9.37a.76.76 0 00-.465-.35z" fill="#6B6D85"/><rect x="12.2" y="10.2" width="11.6" height="11.6" rx="5.8" fill="#fff" stroke="#3E7BFA" stroke-width=".4"/><path fill-rule="evenodd" clip-rule="evenodd" d="M18 13.512a.25.25 0 01-.25-.25V12.25a.25.25 0 11.5 0v1.012a.25.25 0 01-.25.25zm2-.973a.25.25 0 00-.342.091l-.506.877a.25.25 0 10.433.25l.506-.877A.25.25 0 0020 12.54zm-4.496 2.31a.25.25 0 00.25-.434l-.876-.506a.25.25 0 00-.25.433l.876.506zM16 19.463a.25.25 0 00.341-.092l.507-.876a.25.25 0 00-.433-.25l-.506.876a.25.25 0 00.091.342zm4.155-2.218a.25.25 0 01.341-.092l.877.506a.25.25 0 11-.25.433l-.877-.506a.25.25 0 01-.091-.341zM15.512 16a.25.25 0 01-.25.25H14.25a.25.25 0 110-.5h1.012a.25.25 0 01.25.25zm-.976 2c.07.12.222.161.342.092l.876-.506a.25.25 0 00-.25-.433l-.876.506a.25.25 0 00-.092.342zm5.952-2a.25.25 0 01.25-.25h1.012a.25.25 0 010 .5h-1.012a.25.25 0 01-.25-.25zm-.242-1.583a.25.25 0 10.25.433l.877-.506a.25.25 0 10-.25-.433l-.877.506zM16 12.538a.25.25 0 00-.091.342l.506.877a.25.25 0 10.433-.25l-.506-.877A.25.25 0 0016 12.54zm2 5.953a.25.25 0 01.25.25v1.012a.25.25 0 01-.5 0V18.74a.25.25 0 01.25-.25zm2 .973a.25.25 0 00.091-.342l-.506-.876a.25.25 0 00-.433.25l.506.876c.07.12.222.16.342.092z" fill="#0092E4"/></svg>