<svg width="12" height="12" fill="none" xmlns="http://www.w3.org/2000/svg"><path d="m4.692 3 .598.528a6.955 6.955 0 0 0-.927.962c-.234.305-.387.54-.457.704a5.395 5.395 0 0 0-.176.563l.047.07c.524 0 .907.114 1.15.34.242.228.363.58.363 1.057 0 .367-.133.7-.399.997a1.235 1.235 0 0 1-.973.446c-.446 0-.818-.125-1.115-.376-.297-.25-.446-.653-.446-1.208 0-.735.227-1.494.68-2.276C3.5 4.017 4.052 3.415 4.693 3ZM7.308 8.666 6.71 8.14c.383-.337.692-.657.927-.962.234-.306.387-.54.457-.704.063-.165.121-.352.176-.564l-.047-.07c-.524 0-.907-.113-1.15-.34-.242-.227-.363-.579-.363-1.056 0-.368.133-.7.399-.997.258-.298.582-.446.973-.446.446 0 .818.125 1.115.375.297.25.446.653.446 1.209 0 .735-.227 1.494-.68 2.276-.462.79-1.014 1.392-1.655 1.806Z" fill="#fff"/></svg>