<svg enable-background="new 0 0 14 11" viewBox="0 0 14 11" xmlns="http://www.w3.org/2000/svg"><path d="m4.2 2.8c0-.4-.3-.7-.7-.7-.2 0-.4 0-.5.2l-2.8 2.7c-.1.1-.2.3-.2.5s.1.4.2.5l2.8 2.7c.1.1.3.2.5.2.4 0 .7-.3.7-.7 0-.2-.1-.4-.2-.5l-2.3-2.2 2.3-2.3c.1-.1.2-.3.2-.4zm4.2-2.8c-.3 0-.6.2-.7.5l-2.8 9.6v.2c0 .4.3.7.7.7.3 0 .6-.2.7-.5l2.8-9.6c0-.1 0-.1 0-.2 0-.4-.3-.7-.7-.7zm5.4 5-2.8-2.7c-.1-.1-.3-.2-.5-.2-.4 0-.7.3-.7.7 0 .2.1.4.2.5l2.3 2.3-2.3 2.2c-.1.1-.2.3-.2.4 0 .4.3.7.7.7.2 0 .4-.1.5-.2l2.8-2.7c.1-.1.2-.3.2-.5s-.1-.4-.2-.5z" fill="currentColor"/></svg>