<svg fill="currentColor" xmlns="http://www.w3.org/2000/svg" viewBox="0 0 33 33"><path fill-rule="evenodd" clip-rule="evenodd" d="M8.985 7.353h5.045l.006.001a.09.09 0 0 1 .025.018.184.184 0 0 1 .054.102c.101.637.338 1.582.915 2.385.604.842 1.569 1.502 2.997 1.502 1.43 0 2.396-.661 3.002-1.502.58-.803.819-1.748.923-2.385a.184.184 0 0 1 .053-.102.088.088 0 0 1 .025-.017l.006-.002h5.336L27.2 26.519H8.985v-4.899c0-.937-.768-1.593-1.563-1.68-.529-.057-1.158-.205-1.635-.533-.432-.296-.778-.758-.778-1.61 0-.871.364-1.389.836-1.738.509-.376 1.166-.567 1.691-.658.752-.13 1.449-.774 1.449-1.662V7.353Zm5.045-1.6H8.985a1.6 1.6 0 0 0-1.6 1.6v6.385l-.002.005a.09.09 0 0 1-.017.026.187.187 0 0 1-.103.055c-.633.11-1.572.358-2.37.948-.833.617-1.484 1.591-1.484 3.024 0 1.41.632 2.353 1.472 2.93.795.544 1.729.735 2.368.804a.196.196 0 0 1 .114.055.097.097 0 0 1 .02.027l.002.007v4.899a1.6 1.6 0 0 0 1.6 1.6H27.2a1.6 1.6 0 0 0 1.6-1.586l.172-19.164a1.6 1.6 0 0 0-1.6-1.614h-5.336c-.894 0-1.54.704-1.664 1.463-.086.531-.271 1.194-.64 1.706-.342.475-.849.838-1.705.838-.855 0-1.358-.363-1.698-.835-.367-.511-.55-1.173-.635-1.704-.121-.762-.769-1.47-1.664-1.47Zm4.94 9.494a.8.8 0 0 0-1.545-.414l-1.657 6.182a.8.8 0 1 0 1.546.414l1.656-6.182Zm1.396-.856a.8.8 0 0 1 1.13-.05l3.2 2.934a.8.8 0 0 1 .047 1.132l-3.2 3.467a.8.8 0 0 1-1.176-1.085l2.656-2.877-2.608-2.391a.8.8 0 0 1-.05-1.13Zm-7.123-.05a.8.8 0 1 1 1.081 1.18l-2.608 2.39 2.655 2.878a.8.8 0 1 1-1.175 1.085l-3.2-3.467a.8.8 0 0 1 .047-1.132l3.2-2.933Z" fill="#0278D5"/></svg>