<svg fill="none" viewBox="0 0 30 29" xmlns="http://www.w3.org/2000/svg"><g stroke="#fff"><path d="m15.4042 10.8232c.0893.1547.0893.3453 0 .5l-1.6516 2.8607c-.0893.1547-.2544.25-.433.25h-3.3034c-.17859 0-.34366-.0953-.43297-.25l-1.65166-2.8607-.43301.25.43301-.25c-.08932-.1547-.08932-.3453 0-.5l1.65166-2.86077c.08931-.1547.25438-.25.43297-.25h3.3034c.1786 0 .3437.0953.433.25z"/><path d="m14.0072 4.46451-5.91716-.00003c-.35633 0-.68574.18961-.86471.49773l-2.61861 4.50825c-.16498.28403-.17996.63094-.04007.92814l1.89267 4.0209c.13861.2944.12524.638-.03584.9208l-1.793 3.148c-.17756.3118-.17451.6948.00799 1.0036l2.58568 4.3763c.17991.3045.50727.4913.86095.4913h5.9475c.3598 0 .6919-.1933.8696-.5062l1.6835-2.9647c.1777-.3129.5097-.5062.8696-.5062h3.3594c.3453 0 .6661-.1781.8487-.4711l2.8165-4.5189c.1934-.3102.202-.7013.0225-1.0199l-2.8457-5.04983c-.1773-.31449-.5102-.50905-.8712-.50905h-3.3049c-.3732 0-.7154-.20789-.8874-.53915l-1.6985-3.27082c-.172-.33126-.5142-.53914-.8875-.53914z"/><path d="m15.5007 17.705c.0893.1547.0893.3453 0 .5l-1.6517 2.8608c-.0893.1547-.2544.25-.433.25h-3.3033c-.17866 0-.34372-.0953-.43304-.25l-1.65165-2.8608-.43302.25.43302-.25c-.08932-.1547-.08932-.3453 0-.5l1.65165-2.8607c.08932-.1547.25438-.25.43304-.25h3.3033c.1786 0 .3437.0953.433.25z"/><path d="m21.0395 14.3896c.0894.1547.0894.3453 0 .5l-1.6516 2.8608c-.0893.1547-.2544.25-.433.25h-3.3033c-.1787 0-.3437-.0953-.4331-.25l-1.6516-2.8608-.433.25.433-.25c-.0893-.1547-.0893-.3453 0-.5l1.6516-2.8608c.0894-.1547.2544-.25.4331-.25h3.3033c.1786 0 .3437.0953.433.25z"/></g></svg>