<svg viewBox="0 0 17 17" xmlns="http://www.w3.org/2000/svg"><circle cx="8.5" cy="8.5" r="8.5" color="var(--white)"/><circle cx="8.5" cy="8.5" r="7.5"/><path d="M9.694 13.407c-.1.025-.2.047-.3.065a.482.482 0 00.176.948 6 6 0 00.357-.078.482.482 0 10-.233-.935zM13.257 6.95a.48.48 0 00.609.305.482.482 0 00.306-.609 6.012 6.012 0 00-.126-.343.482.482 0 10-.894.358c.038.094.073.191.105.288zM11.26 12.72a5.1 5.1 0 01-.262.16.482.482 0 10.482.835c.105-.06.21-.125.31-.192a.482.482 0 00-.53-.804zM14.471 8.295a.482.482 0 10-.963.038c.004.101.005.204.003.306a.481.481 0 10.963.021 6.019 6.019 0 00-.003-.365zM13.178 11.452a.482.482 0 00-.675.096 5.082 5.082 0 01-.191.24.482.482 0 00.734.624c.078-.092.155-.188.228-.286a.482.482 0 00-.096-.674zM13.886 9.71a.482.482 0 00-.604.316 5.07 5.07 0 01-.1.29.482.482 0 00.9.343c.043-.114.083-.23.12-.345a.482.482 0 00-.316-.604z" color="var(--white)"/><path fill-rule="evenodd" clip-rule="evenodd" d="M7.75 3a.75.75 0 00-.75.75v5.5c0 .088.015.172.043.25a.749.749 0 00.707 1h2.5a.75.75 0 000-1.5H8.5V3.75A.75.75 0 007.75 3z" color="var(--white)"/></svg>