<svg viewBox="0 0 33 33" fill="none" xmlns="http://www.w3.org/2000/svg"><path fill-rule="evenodd" clip-rule="evenodd" d="M2.74 5.114a.937.937 0 0 1 .663-.274h26.666a.936.936 0 0 1 .937.937v20a.936.936 0 0 1-.937.937H3.403a.937.937 0 0 1-.937-.937v-20c0-.249.099-.487.274-.663Zm.933.933v2.087h26.126V6.047H3.673Zm26.126 3.294H3.673v16.166h26.126V9.34Z" fill="currentColor"/><path fill-rule="evenodd" clip-rule="evenodd" d="M14.885 12.007a.324.324 0 0 1 .458 0l1.333 1.333 1.333-1.333a.324.324 0 1 1 .458.458L17 13.932v2.827l2.595-1.416.53-1.98a.324.324 0 0 1 .626.168l-.489 1.821 1.821.489a.324.324 0 0 1-.168.625l-2.029-.544-2.566 1.4 2.426 1.496 2.065-.553a.324.324 0 0 1 .167.625l-1.778.477a.318.318 0 0 1-.027.07l.472 1.763a.324.324 0 0 1-.625.167l-.52-1.94-2.5-1.543v2.732l1.467 1.467a.324.324 0 1 1-.458.458l-1.333-1.334-1.334 1.334a.324.324 0 1 1-.458-.458l1.468-1.467v-2.728l-2.427 1.515-.526 1.964a.324.324 0 0 1-.625-.167l.488-1.822-1.821-.488a.324.324 0 0 1 .167-.625l2.041.547 2.388-1.49-2.49-1.375-1.939.52a.324.324 0 1 1-.167-.625l1.803-.484a.356.356 0 0 1 .014-.018l-.484-1.809a.324.324 0 1 1 .625-.167l.554 2.067 2.4 1.325v-2.824l-1.468-1.468a.324.324 0 0 1 0-.457Z" fill="currentColor"/></svg>