<svg fill="none" viewBox="0 0 32 32" xmlns="http://www.w3.org/2000/svg"><circle cx="16" cy="16" fill="#00ade4" r="16"/><path clip-rule="evenodd" d="m9.70898 20.0529v-10.11638h12.51472v10.11638zm13.07722-11.24138h-13.63972c-.31066 0-.5625.25184-.5625.5625v11.24138c0 .3107.25184.5625.5625.5625h13.63972c.3106 0 .5625-.2518.5625-.5625v-11.24138c0-.31066-.2519-.5625-.5625-.5625zm-4.3413 3.38258c-.6521 0-1.1806.5285-1.1806 1.1806 0 .652.5285 1.1805 1.1806 1.1805.652 0 1.1805-.5285 1.1805-1.1805 0-.6521-.5285-1.1806-1.1805-1.1806zm-2.3056 1.1806c0-1.2734 1.0322-2.3056 2.3056-2.3056 1.2733 0 2.3055 1.0322 2.3055 2.3056 0 .3724-.0883.7242-.2451 1.0356v3.9627c0 .2183-.1263.4169-.3241.5094-.1977.0926-.4312.0623-.5988-.0776l-.9973-.8323-1.0981.846c-.1698.1309-.3992.1538-.5916.0592-.1923-.0946-.3142-.2904-.3142-.5047v-3.6407c-.2779-.3808-.4419-.8501-.4419-1.3576zm2.3056 2.3055c.333 0 .6495-.0706.9354-.1976v1.6883l-.4207-.3512c-.2024-.1689-.495-.1746-.7038-.0137l-.5496.4235v-1.6701c.2319.0783.4803.1208.7387.1208zm-7.5184-3.4879c0-.3106.2513-.5625.5612-.5625h3.3777c.3099 0 .5611.2519.5611.5625 0 .3107-.2512.5625-.5611.5625h-3.3777c-.3099 0-.5612-.2518-.5612-.5625zm.5612 1.685c-.3099 0-.5612.2518-.5612.5625 0 .3106.2513.5625.5612.5625h3.3777c.3099 0 .5611-.2519.5611-.5625 0-.3107-.2512-.5625-.5611-.5625z" fill="#fff" fill-rule="evenodd"/></svg>