<svg fill="none" viewBox="0 0 64 64" xmlns="http://www.w3.org/2000/svg"><path clip-rule="evenodd" d="m10.7099 15.0273c.0858.0481.1823.0989.2903.1521.9953.4902 2.5647.9874 4.6676 1.4255 4.1729.8694 10.0298 1.4224 16.5627 1.4224s12.3897-.553 16.5626-1.4224c2.1029-.4381 3.6724-.9353 4.6676-1.4255.108-.0532.2045-.104.2904-.1521-.0859-.048-.1824-.0988-.2904-.152-.9952-.4902-2.5647-.9874-4.6676-1.4255-4.1729-.8694-10.0297-1.4225-16.5626-1.4225s-12.3898.5531-16.5627 1.4225c-2.1029.4381-3.6723.9353-4.6676 1.4255-.108.0532-.2045.104-.2903.152zm4.1421-5.49345c4.5134-.94029 10.6565-1.50651 17.3785-1.50651 6.7219 0 12.8651.56622 17.3784 1.50651 2.2403.46675 4.1856 1.04695 5.6193 1.75315.7129.3511 1.4034.7833 1.9415 1.3312.5447.5545 1.0608 1.3666 1.0608 2.4091 0 .5226-.1297.9874-.3277 1.3907l-3.9037 36.1706c.0006.0244.0009.0489.0009.0736 0 .985-.4881 1.741-.9795 2.2412-.4848.4936-1.0967.8735-1.7085 1.1748-1.2313.6065-2.8836 1.0969-4.762 1.4883-3.7895.7894-8.9326 1.2624-14.55 1.2624s-10.7605-.473-14.55-1.2624c-1.8784-.3914-3.5307-.8818-4.762-1.4883-.6118-.3013-1.2237-.6812-1.7085-1.1748-.3652-.3717-.7285-.8847-.8911-1.5279l-.0156.0015-.0123-.1228c-.0388-.187-.0605-.3844-.0605-.592v-.01l-3.73046-37.1333c-.02534-.1576-.03907-.3215-.03907-.4916 0-1.0425.5161-1.8546 1.06075-2.4091.53813-.5479 1.22862-.9801 1.94156-1.3312 1.43372-.7062 3.37892-1.2864 5.61922-1.75315zm34.7569 10.98695c1.4592-.304 2.7932-.6561 3.9423-1.0598l-3.5356 32.7597c-.1.0691-.2515.1611-.471.2692-.7928.3905-2.0694.7979-3.8104 1.1606-3.449.7186-8.3059 1.1784-13.7342 1.1784s-10.2852-.4598-13.7342-1.1784c-1.741-.3627-3.0176-.7701-3.8104-1.1606-.2257-.1112-.3794-.2052-.4792-.2749l-3.2989-32.8373c1.2002.4388 2.616.8184 4.1747 1.1431 4.5134.9403 10.6565 1.5065 17.3785 1.5065 6.7219 0 12.8651-.5662 17.3784-1.5065zm-14.4962 9.3661c.2122-1.084-.4945-2.1348-1.5785-2.347-1.084-.2121-2.1348.4946-2.347 1.5786l-2.7638 14.1192c-.2122 1.084.4945 2.1348 1.5785 2.347s2.1348-.4946 2.347-1.5786zm3.6732-.3395c.755-.8062 2.0207-.8477 2.8269-.0926l5.5277 5.177c.796.7455.848 1.9913.1169 2.8006l-5.5278 6.1183c-.7404.8196-2.0052.8837-2.8248.1433-.8196-.7405-.8837-2.0052-.1432-2.8248l4.2108-4.6607-4.0939-3.8342c-.8062-.755-.8477-2.0207-.0926-2.8269zm-16.6481-.0632c.7899-.772 2.0562-.7575 2.8282.0325s.7575 2.0562-.0325 2.8282l-4.1264 4.0327 4.1873 4.4641c.7556.8056.7151 2.0713-.0905 2.827-.8056.7556-2.0713.7151-2.827-.0905l-5.5277-5.8933c-.7448-.7939-.7177-2.0377.0608-2.7986z" fill="#0278d5" fill-rule="evenodd"/></svg>