<svg fill="none" viewBox="0 0 25 24" xmlns="http://www.w3.org/2000/svg"><g clip-rule="evenodd" fill="#0b0b0d" fill-rule="evenodd"><path d="m4.52393 3c0-.41421.33578-.75.75-.75h14.99997c.4142 0 .75.33579.75.75v13.4753c0 2.2702-1.6804 4.1457-3.8621 4.4552-.0818.0306-.1704.0474-.2629.0474-.0869 0-.1724-.0014-.2565-.0041-.0491.0013-.0985.0018-.148.0014l-.5447-.0035-5.4219.0283h-.0039-4.49997c-2.07107 0-3.75-1.6789-3.75-3.75v-1.5c0-.4142.33578-.75.75-.75h1.5zm1.5 12h7.49997c.4142 0 .75.3358.75.75 0 1.1826.0167 2.0995.3418 2.7455.1452.2883.3521.5161.675.6821.2979.1532.7278.2704 1.3542.2954 1.5995-.0633 2.879-1.3803 2.879-2.9977v-12.7253h-13.49997zm7.43307 4.4847c-.0664-.1015-.1267-.2066-.1811-.3148-.4024-.7995-.4826-1.7745-.4983-2.6699h-9.00367v.75c0 1.2426 1.00736 2.25 2.25 2.25h4.49997z"/><path d="m17.5586 6.43452c.2929.2929.2929.76777 0 1.06066l-5.5657 5.56552-2.79617-2.7962c-.2929-.29284-.29291-.76772-.00002-1.06062.29289-.29289.76777-.2929 1.06069-.00001l1.7355 1.73553 4.505-4.50489c.2929-.29289.7678-.29289 1.0607.00001z"/></g></svg>