<svg fill="none" viewBox="0 0 26 26" xmlns="http://www.w3.org/2000/svg" xmlns:xlink="http://www.w3.org/1999/xlink"><filter id="a" color-interpolation-filters="sRGB" filterUnits="userSpaceOnUse" height="25" width="25" x=".5" y=".125"><feFlood flood-opacity="0" result="BackgroundImageFix"/><feColorMatrix in="SourceAlpha" result="hardAlpha" type="matrix" values="0 0 0 0 0 0 0 0 0 0 0 0 0 0 0 0 0 0 127 0"/><feOffset dy=".625"/><feGaussianBlur stdDeviation="1.25"/><feColorMatrix type="matrix" values="0 0 0 0 0.376471 0 0 0 0 0.380392 0 0 0 0 0.439216 0 0 0 0.16 0"/><feBlend in2="BackgroundImageFix" mode="normal" result="effect1_dropShadow_921_236035"/><feColorMatrix in="SourceAlpha" result="hardAlpha" type="matrix" values="0 0 0 0 0 0 0 0 0 0 0 0 0 0 0 0 0 0 127 0"/><feOffset/><feGaussianBlur stdDeviation=".625"/><feColorMatrix type="matrix" values="0 0 0 0 0.156863 0 0 0 0 0.160784 0 0 0 0 0.239216 0 0 0 0.08 0"/><feBlend in2="effect1_dropShadow_921_236035" mode="normal" result="effect2_dropShadow_921_236035"/><feBlend in="SourceGraphic" in2="effect2_dropShadow_921_236035" mode="normal" result="shape"/></filter><g filter="url(#a)"><circle cx="13" cy="12" fill="#fff" r="10"/><circle cx="13" cy="12" fill="#fdcc35" fill-opacity=".15" r="9" stroke="#ff832b" stroke-width=".75"/><path clip-rule="evenodd" d="m13.1946 7.86577c-2.3907 0-4.32883 1.9381-4.32883 4.32883 0 2.3908 1.93813 4.3289 4.32883 4.3289 2.3908 0 4.3289-1.9381 4.3289-4.3289 0-.239.1938-.4329.4329-.4329s.4329.1939.4329.4329c0 2.8689-2.3258 5.1947-5.1947 5.1947s-5.1946-2.3258-5.1946-5.1947c0-2.86888 2.3257-5.1946 5.1946-5.1946 1.3991 0 2.6698.55367 3.6034 1.45294.1456.14032.2832.28909.4117.44552v-1.10651c0-.23908.1938-.43288.4329-.43288s.4329.1938.4329.43288v2.1596.00483c0 .20922-.1484.38372-.3456.42412-.0282.0057-.0574.0088-.0873.0088h-2.1641c-.239 0-.4328-.1938-.4328-.43292 0-.23907.1938-.43288.4328-.43288h1.1229c-.1243-.15822-.2593-.3076-.4041-.44701-.7787-.75012-1.8365-1.21072-3.0027-1.21072z" fill="#ff832b" fill-rule="evenodd"/></g></svg>