<svg fill="none" viewBox="0 0 32 32" xmlns="http://www.w3.org/2000/svg"><g fill="#5452f6"><path clip-rule="evenodd" d="m16 29.004c-7.18 0-13-5.82-13-13s5.82-13 13-13 13 5.82 13 13-5.82 13-13 13zm-1.499-18.5a1.5 1.5 0 1 0 3 0 1.5 1.5 0 0 0 -3 0zm1.5 3.474a1 1 0 0 0 -1 1v6.002a1 1 0 1 0 2 0v-6.002a1 1 0 0 0 -1-1z" fill-rule="evenodd"/><path clip-rule="evenodd" d="m16 28.004c-6.627 0-12-5.373-12-12s5.373-12 12-12 12 5.373 12 12-5.373 12-12 12zm-.244-15.011a2.5 2.5 0 1 1 .49 0 2 2 0 0 1 1.755 1.985v6.002a2 2 0 0 1 -4 0v-6.002a2 2 0 0 1 1.755-1.985zm-12.756 3.011c0 7.18 5.82 13 13 13s13-5.82 13-13-5.82-13-13-13-13 5.82-13 13zm13.001-4a1.5 1.5 0 1 1 0-3 1.5 1.5 0 0 1 0 3zm-1 2.974a1 1 0 1 1 2 0v6.002a1 1 0 1 1 -2 0z" fill-rule="evenodd"/><path d="m27.598 28.94c.83.358 1.672-.483 1.314-1.314l-2.922-6.776a1 1 0 0 0 -1.625-.311l-3.854 3.854a1 1 0 0 0 .31 1.625z"/></g></svg>