<svg fill="none" viewBox="0 0 40 41" xmlns="http://www.w3.org/2000/svg"><path clip-rule="evenodd" d="m10.0719 30.0295c5.4739 5.4628 14.3492 5.4628 19.8231 0 .4957-.4946.9462-1.0168 1.3518-1.5616.1649-.2215.4782-.2673.6997-.1024s.2673.4781.1024.6996c-.4346.5838-.9172 1.143-1.4475 1.6723-5.8642 5.8523-15.3716 5.8523-21.23586 0-.07997-.0798-.17265-.1773-.27116-.284l.00022 4.0363c.00001.2761-.22383.5-.49998.5-.27614 0-.50001-.2238-.50002-.4999l-.00031-5.8653 5.87681-.0003c.2761-.0001.5.2238.5.4999 0 .2762-.2238.5-.5.5001l-4.27956.0002c.1413.1564.27517.3001.38036.4051zm22.9521-3.4966c-.2518-.1133-.3641-.4092-.2509-.6611.2722-.605.4991-1.2255.6808-1.8563.0764-.2653.3534-.4185.6188-.3421s.4185.3535.3421.6188c-.1946.6761-.4379 1.3412-.7297 1.9899-.1133.2518-.4093.3641-.6611.2508zm-26.29411-.5523c-.25621.103-.54742-.0212-.65044-.2774-.28649-.7125-.51594-1.4424-.68836-2.1828-.06264-.2689.10461-.5377.37356-.6003.26895-.0627.53774.1046.60038.3735.1609.6909.37498 1.3719.64222 2.0365.10302.2562-.02116.5474-.27736.6505zm27.66461-4.0222c-.275-.025-.4776-.2683-.4525-.5433.0601-.6589.0735-1.3212.0402-1.9816-.0138-.2758.1985-.5107.4743-.5245.2758-.0139.5106.1984.5245.4742.0356.7074.0212 1.4169-.0432 2.1227-.025.275-.2683.4776-.5433.4525zm-28.85098-.6141c-.27579.0139-.51062-.1985-.5245-.4743-.0356-.7074-.02122-1.4169.04315-2.1227.02508-.275.26834-.4776.54334-.4525s.4776.2683.45252.5433c-.06009.6589-.07351 1.3212-.04027 1.9817.01388.2758-.19844.5106-.47424.5245zm28.69178-4.0111c-.2689.0626-.5377-.1046-.6003-.3736-.1609-.6909-.375-1.3719-.6422-2.0365-.1031-.2562.0211-.5474.2773-.6504.2562-.1031.5474.0211.6505.2773.2864.7125.5159 1.4424.6883 2.1828.0626.2689-.1046.5377-.3736.6004zm-28.30799-.7534c-.26536-.0764-.41854-.3534-.34213-.6188.19465-.676.43789-1.3411.72971-1.9898.11328-.2519.40927-.3642.66111-.2509.25183.1133.36415.4093.25086.6611-.27219.6051-.4991 1.2255-.68073 1.8563-.0764.2654-.35346.4185-.61882.3421zm2.1262-4.692c-.22149-.1649-.26735-.4782-.10244-.6997.43467-.5838.91722-1.143 1.44753-1.67224 5.8642-5.85232 15.3716-5.85232 21.2359 0 .0799.07981.1726.1773.2711.28396l-.0002-4.03629c0-.27614.2238-.50001.5-.50003.2761-.00001.5.22384.5.49998l.0003 5.86532-5.8768.0003c-.2761 0-.5-.2239-.5-.5s.2238-.5.5-.5l4.2796-.0002c-.1413-.1565-.2752-.3002-.3804-.4052-5.4739-5.46277-14.3492-5.46277-19.8231 0-.49566.4946-.94623 1.0169-1.35184 1.5616-.16491.2215-.47815.2674-.69965.1025z" fill="#fff" fill-rule="evenodd"/></svg>