<svg fill="none" viewBox="0 0 33 33" xmlns="http://www.w3.org/2000/svg"><g fill="#fff"><path clip-rule="evenodd" d="m16.452 4.152c-1.1-.253-2.018.036-2.685.597-.65.547-1.042 1.334-1.171 2.077l-1.034 5.244a.5.5 0 0 1 -.491.403h-5.743a1.5 1.5 0 0 0 -1.5 1.5v11.587a1.5 1.5 0 0 0 1.5 1.5h10.414a.5.5 0 1 0 0-1h-4.574v-12.505a.506.506 0 0 0 -.007-.085 1.5 1.5 0 0 0 1.382-1.207l1.035-5.249.002-.012c.094-.544.383-1.11.83-1.488.432-.363 1.03-.569 1.818-.388.823.19 1.174.63 1.333 1.108.172.518.127 1.126.036 1.6l-.741 3.856a1.5 1.5 0 0 0 1.473 1.783h10.174a.5.5 0 0 1 .492.592l-.735 3.91a.5.5 0 0 0 .983.185l.735-3.91a1.5 1.5 0 0 0 -1.475-1.777h-10.173a.5.5 0 0 1 -.491-.594l.74-3.856c.105-.537.184-1.345-.068-2.104-.266-.8-.886-1.498-2.058-1.767zm-6.278 9.321a.506.506 0 0 0 -.006.082v12.505h-4.84a.5.5 0 0 1 -.5-.5v-11.587a.5.5 0 0 1 .5-.5z" fill-rule="evenodd"/><path clip-rule="evenodd" d="m27.106 19.928 5.655 5.655c.189.188.189.565 0 .754l-1.885 1.885-.094.094-4.241 4.241-2.357-2.356-3.864-3.864c-.188-.189-.188-.566 0-.754l1.98-1.98 4.24-4.24zm-2.545 6.032 1.98 1.98 1.979-1.98-1.98-1.98z" fill-rule="evenodd"/><path d="m26.541 23.98c-1.32-1.225-1.32-3.298 0-4.618l-4.241 4.242 2.262 2.356 1.98-1.98zm1.979 1.98-1.979 1.979c1.32 1.32 1.32 3.393 0 4.618l4.241-4.241z"/></g></svg>