<svg  viewBox="0 0 32 32" fill="currentColor" xmlns="http://www.w3.org/2000/svg">
<path fill-rule="evenodd" clip-rule="evenodd" d="M6.5 2.97821C6.22386 2.97821 6 3.20207 6 3.47821V18.7189C6 18.995 6.22386 19.2189 6.5 19.2189C6.77614 19.2189 7 18.995 7 18.7189V3.97821H21.1812L25 8.98058V26.9782H18.5579C18.2817 26.9782 18.0579 27.2021 18.0579 27.4782C18.0579 27.7544 18.2817 27.9782 18.5579 27.9782H25.5C25.7761 27.9782 26 27.7544 26 27.4782V8.81154C26 8.7019 25.964 8.5953 25.8974 8.50815L21.826 3.17481C21.7314 3.05091 21.5845 2.97821 21.4286 2.97821H6.5ZM12.4939 22.8636C12.0836 23.3195 11.7109 23.8463 11.4631 24.2641C11.7237 24.673 12.1166 25.1417 12.5522 25.5711C13.1143 26.1252 13.6405 26.5081 13.9211 26.6204C14.2801 26.764 14.4547 27.1714 14.3111 27.5303C14.1675 27.8893 13.7601 28.0639 13.4012 27.9203C12.8485 27.6992 12.1575 27.1479 11.5694 26.5681C11.2538 26.2571 10.938 25.9083 10.6611 25.551C10.3843 25.9083 10.0684 26.2571 9.7529 26.5681C9.16475 27.1479 8.47377 27.6992 7.9211 27.9203C7.56215 28.0639 7.15477 27.8893 7.01119 27.5303C6.86761 27.1714 7.0422 26.764 7.40115 26.6204C7.68181 26.5081 8.20799 26.1252 8.77009 25.5711C9.20569 25.1417 9.59852 24.673 9.8592 24.2641C9.61136 23.8463 9.23863 23.3195 8.82834 22.8636C8.56727 22.5736 8.30981 22.3334 8.07899 22.1712C7.83168 21.9974 7.69589 21.9703 7.66114 21.9703C7.27454 21.9703 6.96114 21.6569 6.96114 21.2703C6.96114 20.8837 7.27454 20.5703 7.66114 20.5703C8.1264 20.5703 8.5531 20.7933 8.88392 21.0257C9.23122 21.2698 9.56751 21.5921 9.86895 21.9271C10.1543 22.2441 10.4252 22.5914 10.6611 22.9288C10.8971 22.5914 11.168 22.2441 11.4533 21.9271C11.7548 21.5921 12.091 21.2698 12.4383 21.0257C12.7692 20.7933 13.1959 20.5703 13.6611 20.5703C14.0477 20.5703 14.3611 20.8837 14.3611 21.2703C14.3611 21.6569 14.0477 21.9703 13.6611 21.9703C13.6264 21.9703 13.4906 21.9974 13.2433 22.1712C13.0125 22.3334 12.755 22.5736 12.4939 22.8636Z" fill="#0278D5"/>
<path fill-rule="evenodd" clip-rule="evenodd" d="M12 12.0078C11.7239 12.0078 11.5 12.2327 11.5 12.5101C11.5 12.7875 11.7239 13.0123 12 13.0123H20C20.2761 13.0123 20.5 12.7875 20.5 12.5101C20.5 12.2327 20.2761 12.0078 20 12.0078H12ZM12 16.0034C11.7239 16.0034 11.5 16.2282 11.5 16.5056C11.5 16.783 11.7239 17.0079 12 17.0079H20C20.2761 17.0079 20.5 16.783 20.5 16.5056C20.5 16.2282 20.2761 16.0034 20 16.0034H12Z" fill="#B3D7F2"/>
</svg>
