<svg xmlns="http://www.w3.org/2000/svg" viewBox="0 0 16 20"><path fill-rule="evenodd" clip-rule="evenodd" d="M1.143 8.48A1.2 1.2 0 0 1 2.332 7.12h10.649a1.2 1.2 0 0 1 1.194 1.321l-1.039 10.208a1.2 1.2 0 0 1-1.193 1.079H3.716a1.2 1.2 0 0 1-1.189-1.04L1.143 8.48ZM12.98 8.32H2.332l1.385 10.207h8.226L12.98 8.32ZM5.916 1.594a.6.6 0 0 1 .719-.452l4.224.965a.6.6 0 0 1 .452.719L11 4.179l3.86.882a.6.6 0 0 1-.267 1.17L1.535 3.248a.6.6 0 1 1 .267-1.17l3.805.87.309-1.354Zm.86 1.62 3.056.698.175-.768-3.055-.698-.175.768Z" fill="currentColor"/><path opacity=".3" fill-rule="evenodd" clip-rule="evenodd" d="M8 10.808a.5.5 0 0 1 .5.5v5a.5.5 0 0 1-1 0v-5a.5.5 0 0 1 .5-.5ZM5.239 10.82a.5.5 0 0 1 .541.454l.436 4.981a.5.5 0 1 1-.996.087l-.436-4.98a.5.5 0 0 1 .455-.542Z" fill="currentColor"/><path opacity=".3" fill-rule="evenodd" clip-rule="evenodd" d="M10.762 10.82a.5.5 0 0 1 .455.541l-.436 4.981a.5.5 0 1 1-.996-.087l.435-4.98a.5.5 0 0 1 .542-.455Z" fill="currentColor"/></svg>