<svg viewBox="0 0 40 40" xmlns="http://www.w3.org/2000/svg"><path fill-rule="evenodd" clip-rule="evenodd" d="M3.625 10a.75.75 0 0 1 .75-.75h20.049a.75.75 0 0 1 .75.75v9.248h8.579l-2.542-2.43a.75.75 0 0 1 1.036-1.085l3.862 3.692a.748.748 0 0 1 .212.854.75.75 0 0 1-.212.294l-3.862 3.694a.75.75 0 0 1-1.037-1.084l2.544-2.433-8.58-.002V30a.75.75 0 0 1-.75.75H4.375a.75.75 0 0 1-.75-.75V10Zm20.049 9.981v9.269H5.125v-18.5h18.549v9.231ZM9.937 14.486a.752.752 0 0 0-1.062 0 .748.748 0 0 0 0 1.06L13.341 20l-4.466 4.454a.748.748 0 0 0 0 1.06.752.752 0 0 0 1.062 0l4.466-4.455 4.465 4.455a.752.752 0 0 0 1.062 0 .748.748 0 0 0 0-1.06L15.465 20l4.465-4.454a.748.748 0 0 0 0-1.06.752.752 0 0 0-1.062 0l-4.465 4.455-4.466-4.455Z" fill="#fff"/></svg>