<svg xmlns="http://www.w3.org/2000/svg" ><path fill="currentColor" fill-rule="evenodd" d="M4.314 4.163a2 2 0 0 0-2 2v6.085a2 2 0 0 0 1.478 1.931l.085 1.619a.8.8 0 0 0 1.365.522l2.063-2.072h6.876a2 2 0 0 0 2-2V6.163a2 2 0 0 0-2-2H4.314zm4.148 6.365v-.11c.002-.224.014-.422.038-.593.015-.112.036-.213.062-.302.026-.087.056-.167.09-.24.056-.116.122-.216.199-.3.126-.137.278-.26.456-.372a3.266 3.266 0 0 0 .356-.267 1.235 1.235 0 0 0 .25-.305.742.742 0 0 0 .094-.379.71.71 0 0 0-.236-.541.725.725 0 0 0-.273-.153.885.885 0 0 0-.275-.041c-.139 0-.27.03-.395.093a.754.754 0 0 0-.305.27.828.828 0 0 0-.128.44h-1.31c.01-.429.113-.782.308-1.06.195-.28.453-.49.774-.627.32-.139.675-.208 1.063-.208.083 0 .164.002.243.008.328.022.624.09.887.204.328.139.585.341.771.607.186.265.28.585.28.96 0 .106-.008.207-.023.303a1.623 1.623 0 0 1-.446.879 2.662 2.662 0 0 1-.524.401c-.169.1-.308.206-.417.315a1.092 1.092 0 0 0-.241.379c-.052.144-.078.32-.08.53v.11H8.461zm.636 2.056a.754.754 0 0 1-.55-.225.739.739 0 0 1-.22-.546.739.739 0 0 1 .221-.54.754.754 0 0 1 .55-.224c.203 0 .381.074.536.224a.737.737 0 0 1 .121.928.849.849 0 0 1-.279.28.73.73 0 0 1-.379.103z" clip-rule="evenodd"/><path fill="currentColor" d="M8.82 18.564a2 2 0 0 1-1.995-1.85l1.062-1.067h.432v.917a.5.5 0 0 0 .5.5h7.393l1.305 1.311v-1.31h1.5c.047 0 .071-.007.08-.01l.005-.005a.251.251 0 0 0 .03-.05.744.744 0 0 0 .054-.28v-6.24a.5.5 0 0 0-.5-.5h-1.105v-1.5h1.105a2 2 0 0 1 2 2v6.241c0 .924-.548 1.844-1.669 1.844v1.55a.8.8 0 0 1-1.366.522l-2.062-2.072h-6.77z"/></svg>