<svg viewBox="0 0 14 15" xmlns="http://www.w3.org/2000/svg" xmlns:xlink="http://www.w3.org/1999/xlink"><filter id="a"><feColorMatrix in="SourceGraphic" type="matrix" values="0 0 0 0 1.000000 0 0 0 0 1.000000 0 0 0 0 1.000000 0 0 0 1.000000 0"/></filter><filter id="b"><feColorMatrix in="SourceGraphic" type="matrix" values="0 0 0 0 0.453512 0 0 0 0 0.490089 0 0 0 0 0.533316 0 0 0 1.000000 0"/></filter><filter id="c"><feColorMatrix in="SourceGraphic" type="matrix" values="0 0 0 0 0.453512 0 0 0 0 0.490089 0 0 0 0 0.533316 0 0 0 1.000000 0"/></filter><g fill="none" fill-rule="evenodd" filter="url(#a)" opacity=".812733" transform="translate(-756 -654)"><g filter="url(#b)" transform="translate(756 654)"><g filter="url(#c)"><g fill-rule="nonzero"><path d="m0 .875h14v14h-14z" fill="#3d4641" opacity="0"/><path d="m12.0351875 3.1784375-4.3763125-2.5615625c-.40803232-.2388523-.91321768-.2388523-1.32125 0l-4.37325 2.5615625c-.40429605.23756991-.6523799.6716334-.65187577 1.1405625v5.4368125c0 .4755625.25462577.914375.66631327 1.1484375l4.375 2.4871875c.40048563.227933.89145187.227933 1.2919375 0l4.375-2.4871875c.412591-.2350677.6671798-.6735818.6667505-1.1484375v-5.4368125c.0004133-.46901853-.2478488-.90310255-.652313-1.1405625zm-.2226875 6.577375c0 .158375-.084875.3049375-.22225.3828125l-4.375 2.4871875c-.13341122.0760984-.29708878.0760984-.4305 0l-4.375-2.4871875c-.13753034-.0783559-.22239326-.22452726-.22225018-.3828125v-5.4368125c0-.156625.08268768-.3014375.21743768-.3801875l4.37325-2.5615625c.13590377-.07962712.30422123-.07962712.440125 0l4.37675 2.562c.13475.0783125.2174375.223125.2174375.37975zm-4.8125-5.3808125c-1.44974747 0-2.625 1.17525253-2.625 2.625s1.17525253 2.625 2.625 2.625 2.625-1.17525253 2.625-2.625-1.17525253-2.625-2.625-2.625zm0 4.375c-.96649831 0-1.75-.78350169-1.75-1.75s.78350169-1.75 1.75-1.75 1.75.78350169 1.75 1.75-.78350169 1.75-1.75 1.75z" fill="#fff"/></g></g></g></g></svg>