<svg viewBox="0 0 20 20" xmlns="http://www.w3.org/2000/svg"><path fill-rule="evenodd" clip-rule="evenodd" d="M2.197 4.143a.624.624 0 0 1 .564-.356h7.489c.344 0 .624.28.624.624v1.872a.624.624 0 0 1-1.248 0V5.035H4.072l3.23 3.975c.178.22.186.53.021.76l-3.342 4.626h5.645v-1.248a.624.624 0 1 1 1.248 0v1.873c0 .344-.28.624-.624.624H2.76a.624.624 0 0 1-.505-.99L6.03 9.426 2.276 4.805a.624.624 0 0 1-.079-.662ZM15.9 9.276a5.276 5.276 0 0 0-.724 1.032c-.22.44-.612.912-.994 1.288-.37.365-.824.732-1.205.884a.624.624 0 1 1-.463-1.159c.138-.055.445-.272.792-.614.336-.331.62-.692.753-.958.184-.366.529-.88.914-1.308.193-.215.414-.427.646-.59.218-.153.523-.319.87-.319a.624.624 0 0 1 .012 1.248c0 .001-.052.013-.164.092-.129.09-.279.229-.437.404Z" fill="current-color"/><path fill-rule="evenodd" clip-rule="evenodd" d="M13.334 9.276c.317.352.596.774.725 1.032.22.44.611.912.993 1.288.37.365.824.732 1.205.884a.624.624 0 1 0 .464-1.159c-.139-.055-.445-.272-.793-.614-.336-.331-.62-.692-.753-.958a6.497 6.497 0 0 0-.913-1.308 3.98 3.98 0 0 0-.647-.59c-.217-.153-.523-.319-.87-.319a.624.624 0 0 0-.012 1.248c0 .001.052.013.165.092.128.09.278.229.436.404Z" fill="current-color"/></svg>