<svg xmlns="http://www.w3.org/2000/svg" viewBox="0 0 32 32"><path fill-rule="evenodd" clip-rule="evenodd" d="M18.578 6.612h8.8v3.8h-8.8v-3.8zm-1.6 0a1.6 1.6 0 011.6-1.6h8.8a1.6 1.6 0 011.6 1.6v3.8a1.6 1.6 0 01-1.6 1.6h-8.8a1.6 1.6 0 01-1.6-1.6v-.584h-1.95v.6a1.6 1.6 0 01-1.6 1.6H9.83v6.999c0 .665.111 1.127.275 1.455.158.317.386.547.697.725.584.334 1.455.48 2.658.512l.063-4.16a2.4 2.4 0 012.4-2.363h9.057a.8.8 0 110 1.6h-9.057a.8.8 0 00-.8.787l-.119 7.8a.8.8 0 00.8.811H26.58a.8.8 0 00.8-.8v-6.199a.8.8 0 011.6 0v6.2a2.4 2.4 0 01-2.4 2.4H15.803a2.4 2.4 0 01-2.4-2.437l.031-2.038c-1.281-.033-2.493-.19-3.427-.724a3.271 3.271 0 01-1.334-1.399c-.305-.61-.444-1.335-.444-2.17v-7h-3.6a1.6 1.6 0 01-1.6-1.6V6.629a1.6 1.6 0 011.6-1.6h8.8a1.6 1.6 0 011.6 1.6v1.6h1.95V6.612zm-12.35.016h8.8v3.8h-8.8v-3.8zm14.109 11.86a.8.8 0 00-1.108.739v5a.8.8 0 001.108.738l6-2.5a.8.8 0 000-1.477l-6-2.5zm.492 4.539v-2.6l3.12 1.3-3.12 1.3z" fill="currentColor"/></svg>