<svg viewBox="0 0 14 11" xmlns="http://www.w3.org/2000/svg"><path d="m13.3636 0h-12.727236c-.168775 0-.330636.0670454-.449977.186387-.1193418.119341-.186387.281202-.186387.449977v3.818186c0 .16877.0670452.33063.186387.44997.119341.11934.281202.18639.449977.18639h12.727236c.1688 0 .3307-.06705.45-.18639.1194-.11934.1864-.2812.1864-.44997v-3.818186c0-.168775-.067-.330636-.1864-.449977-.1193-.1193416-.2812-.186387-.45-.186387zm-.6363 3.81818h-11.45457v-2.54545h11.45457z"/><path d="m13.3636 6.36328h-12.727236c-.168775 0-.330636.06705-.449977.18639-.1193418.11934-.186387.2812-.186387.44997 0 .16878.0670452.33064.186387.44998.119341.11934.281202.18639.449977.18639h12.727236c.1688 0 .3307-.06705.45-.18639.1194-.11934.1864-.2812.1864-.44998 0-.16877-.067-.33063-.1864-.44997-.1193-.11934-.2812-.18639-.45-.18639z"/><path d="m13.3636 8.91016h-12.727236c-.168775 0-.330636.06704-.449977.18638-.1193418.11934-.186387.28121-.186387.44998s.0670452.33064.186387.44998c.119341.1193.281202.1864.449977.1864h12.727236c.1688 0 .3307-.0671.45-.1864.1194-.11934.1864-.28121.1864-.44998s-.067-.33064-.1864-.44998c-.1193-.11934-.2812-.18638-.45-.18638z"/></svg>