<svg fill="currentColor" xmlns="http://www.w3.org/2000/svg" viewBox="0 0 30 30"><circle opacity=".8" cx="15" cy="15" r="15" fill="#0092E4"/><path fill-rule="evenodd" clip-rule="evenodd" d="M8.325 10.26c0-.261.213-.474.475-.474h3.955a.475.475 0 000-.95H8.8c-.787 0-1.425.638-1.425 1.425v10.441c0 .787.638 1.425 1.425 1.425h12.365c.787 0 1.425-.638 1.425-1.425V10.261c0-.787-.638-1.425-1.425-1.425H19.85a.475.475 0 000 .95h1.315c.262 0 .475.213.475.475v10.441a.475.475 0 01-.475.475H8.8a.475.475 0 01-.475-.475V10.261zm6.33 1.178a1.652 1.652 0 113.304 0 1.652 1.652 0 01-3.304 0zm1.652-2.602a2.602 2.602 0 100 5.204 2.602 2.602 0 000-5.204zm-5.217 10.43a.95.95 0 001.645 0l1.851-3.206a.95.95 0 00-.823-1.425h-3.702a.95.95 0 00-.823 1.425l1.852 3.206zm.822-.475l-1.85-3.207h3.701l-1.85 3.207zm3.057-1.054a.95.95 0 00.348 1.297l2.468 1.425a.95.95 0 001.298-.347l1.425-2.469a.95.95 0 00-.348-1.297l-2.468-1.425a.95.95 0 00-1.298.347l-1.425 2.469zm.823.475l1.425-2.469 2.468 1.425-1.425 2.469-2.468-1.425z" fill="#fff"/></svg>