<svg fill="currentColor" xmlns="http://www.w3.org/2000/svg" viewBox="0 0 30 30"><circle opacity=".8" cx="15" cy="15" r="15" fill="#0092E4"/><path fill-rule="evenodd" clip-rule="evenodd" d="M15.594 11.604a.2.2 0 00.08.17l6.827 5.095a1 1 0 01.006 1.598l-6.833 5.177a1 1 0 01-1.206 0l-6.904-5.208a1 1 0 01-.025-1.577l.793-.64a.2.2 0 01.248-.002l.254.197a.3.3 0 01-.006.478l-.674.498a.2.2 0 00-.002.32l6.065 4.591a.2.2 0 00.32-.16v-2.726l-6.981-5.241a1 1 0 010-1.6l6.926-5.194a1 1 0 011.187-.01l7.002 5.077a1 1 0 01-.036 1.644l-1.059.698-.53-.518a.2.2 0 01.037-.315l.836-.503a.2.2 0 00.012-.335l-5.91-4.13a.2.2 0 00-.314.154l-.113 2.462zm-.821-2.695a.2.2 0 00-.32-.16L8.59 13.142a.2.2 0 000 .32l6.207 4.689a.5.5 0 00.566.025l2.865-1.79a.2.2 0 01.233.015l.508.416a.2.2 0 01-.02.324l-3.474 2.183a.2.2 0 00-.094.17v2.684a.2.2 0 00.322.159l5.852-4.515a.2.2 0 000-.317l-6.302-4.812a.2.2 0 00-.245.002l-2.634 2.074a.2.2 0 01-.258-.008l-.431-.391a.2.2 0 01.01-.306l3-2.36a.2.2 0 00.077-.157V8.91z" fill="#fff"/></svg>