<svg fill="currentColor" xmlns="http://www.w3.org/2000/svg" viewBox="0 0 30 30"><circle opacity=".8" cx="15" cy="15" r="15" fill="#0092E4"/><path fill-rule="evenodd" clip-rule="evenodd" d="M15.996 8.23a1.425 1.425 0 00-2.015 0l-1.68 1.68a1.425 1.425 0 000 2.014l1.68 1.68a1.425 1.425 0 002.015 0l1.68-1.68a1.425 1.425 0 000-2.015l-1.68-1.68zm-1.343.672a.475.475 0 01.672 0l1.679 1.679a.475.475 0 010 .672l-1.68 1.68a.475.475 0 01-.671 0l-1.68-1.68a.475.475 0 010-.672l1.68-1.68zm-5.886 6.026c.09-.09.21-.14.336-.14h12.012c.262 0 .475.213.475.476v2.663h-.95v-2.188h-5.056v2.188h-.95v-2.188H9.578v2.188h-.95v-2.663c0-.127.05-.247.139-.336zm6.423 5.199a.546.546 0 100 1.093.546.546 0 000-1.093zm-1.497.546a1.496 1.496 0 112.993 0 1.496 1.496 0 01-2.993 0zm6.876 0a.546.546 0 111.093 0 .546.546 0 01-1.093 0zm.546-1.496a1.496 1.496 0 100 2.993 1.496 1.496 0 000-2.993zm-12.103.95a.546.546 0 100 1.092.546.546 0 000-1.092zm-1.496.546a1.496 1.496 0 112.992 0 1.496 1.496 0 01-2.992 0z" fill="#fff"/></svg>