<svg fill="none" viewBox="0 0 28 28" xmlns="http://www.w3.org/2000/svg"><path d="m6.02 23.433-5.686-9.848a2.491 2.491 0 0 1 0-2.491l5.686-9.849a2.49 2.49 0 0 1 2.157-1.245h11.372a2.491 2.491 0 0 1 2.157 1.245l5.686 9.849a2.49 2.49 0 0 1 0 2.49l-5.686 9.85a2.49 2.49 0 0 1 -2.157 1.245h-11.372a2.49 2.49 0 0 1 -2.157-1.246z" fill="#fcfeff"/><path d="m10.681 10.146-1.518 1.514 1.29 1.29-1.277 2.27 9.668 9.668h2.343l4.575-8.216-7.245-7.246-7.835.72z" fill="#0278d5" opacity=".07"/><path d="m18.347 9.365h-8.977a.263.263 0 0 0 -.262.263v1.856c0 .144.118.262.262.262h8.976a.264.264 0 0 0 .262-.262v-1.856a.264.264 0 0 0 -.262-.263zm-1.39 1.728a.538.538 0 0 1 0-1.074.536.536 0 1 1 0 1.074zm1.39 1.839h-8.977a.263.263 0 0 0 -.262.263v1.856c0 .144.118.262.262.262h8.976a.264.264 0 0 0 .262-.262v-1.856a.264.264 0 0 0 -.262-.263zm-1.39 1.728a.538.538 0 0 1 -.205-1.033.536.536 0 0 1 .205-.041.537.537 0 1 1 0 1.073" fill="#0278d5"/><path d="m22.345 14.875h-5.697c-.977 0-1.773.773-1.773 1.723v9.68c0 .949.796 1.722 1.773 1.722h7.262c.978 0 1.774-.773 1.774-1.723v-7.777l-3.34-3.625z" fill="#effbff"/><g fill="#1b2e49"><path d="m22.05 15.647h-4.883c-.838 0-1.52.682-1.52 1.52v8.54c0 .839.682 1.52 1.52 1.52h6.224c.839 0 1.52-.681 1.52-1.52v-6.861zm.2 1.31 1.49 1.665h-1.49zm1.937 8.75a.797.797 0 0 1 -.796.796h-6.224a.797.797 0 0 1 -.796-.795v-8.54c0-.44.357-.797.796-.797h4.358v2.975h2.662v6.362z"/><path d="m20.28 20.07a2.575 2.575 0 1 0 0 5.15 2.575 2.575 0 0 0 0-5.15zm-.318 2.937.638.546-.47.55-1.706-1.458 1.705-1.459.47.55-.637.547h2.173v.724z"/></g></svg>