<svg fill="none" viewBox="0 0 40 40" xmlns="http://www.w3.org/2000/svg"><path clip-rule="evenodd" d="m16.1224 8.06276c.737-1.22479 2.0612-2.04128 3.5714-2.04128 2.3133 0 4.1885 1.91509 4.1885 4.27752 0 2.3623-1.8752 4.2774-4.1885 4.2774-1.2801 0-2.4257-.5858-3.1948-1.5111l-.2222-.292c-.0584-.0839-.1139-.17-.1664-.2583l-.1583-.2914c-.0472-.0955-.0909-.193-.1311-.2923-.1055-.2607-.398-.3847-.6532-.277-.2553.1077-.3767.4064-.2713.6671.0513.1268.1073.251.1677.3726.0578.1163.1197.2302.1855.3414.0687.1162.1418.2296.2188.3397.0822.1176.169.2316.2601.3417.951 1.1497 2.3747 1.8811 3.9652 1.8811 2.8657 0 5.1887-2.3724 5.1887-5.2989 0-2.92658-2.323-5.299-5.1887-5.299-1.92 0-3.5956 1.06469-4.493 2.64696l-.3015-.78029c-.1013-.26238-.3918-.39116-.6487-.28762-.257.10353-.3831.40017-.2817.66255l.7483 1.93652c.0486.126.1443.22709.266.28103s.2593.05631.3827.00659l1.8963-.76416c.2569-.10354.383-.40018.2816-.66256-.1013-.26239-.3918-.39116-.6487-.28762zm10.7982 5.38544c-.2646-.0807-.5433.073-.6223.3432-.0791.2703.0714.5549.3361.6356 1.1079.3379 1.9778.7495 2.5594 1.1917.59.4486.806.8649.806 1.2105 0 .3117-.1739.6795-.6455 1.0815-.4688.3997-1.1771.7825-2.0963 1.1139-1.8337.6612-4.3998 1.0797-7.258 1.0797s-5.4242-.4185-7.258-1.0797c-.9192-.3314-1.6275-.7142-2.0963-1.1139-.4716-.402-.6455-.7698-.6455-1.0815 0-.3361.2038-.7388.7596-1.1747.5493-.4307 1.3729-.8348 2.4274-1.1718.2636-.0842.4104-.3708.3279-.64s-.3631-.4191-.6267-.3348c-1.1155.3565-2.0607.8055-2.7378 1.3364-.67047.5258-1.1506 1.1933-1.1506 1.9849v13.8742c0 .7338.41373 1.3619 1.0048 1.8657.5938.5063 1.4232.9392 2.4042 1.2929 1.9664.709 4.6503 1.138 7.591 1.138 2.9408 0 5.6246-.429 7.591-1.138.981-.3537 1.8104-.7866 2.4042-1.2929.5911-.5038 1.0048-1.1319 1.0048-1.8657v-13.8742c0-.8138-.5068-1.496-1.2089-2.0298-.7103-.5401-1.7016-.9947-2.8705-1.3512zm3.0746 5.2467.0046-.0038v4.9662c0 .3116-.1739.6795-.6455 1.0815-.4688.3996-1.1771.7825-2.0963 1.1139-1.8337.6612-4.3998 1.0797-7.258 1.0797s-5.4242-.4185-7.258-1.0797c-.9192-.3314-1.6275-.7143-2.0963-1.1139-.4716-.402-.6455-.7699-.6455-1.0815v-4.9662l.0046.0038c.5938.5063 1.4232.9392 2.4042 1.2929 1.9664.709 4.6503 1.138 7.591 1.138 2.9408 0 5.6246-.429 7.591-1.138.981-.3537 1.8104-.7866 2.4042-1.2929zm0 6.8281.0046-.0039v5.1843c0 .3117-.1739.6795-.6455 1.0816-.4688.3996-1.1771.7824-2.0963 1.1138-1.8337.6612-4.3998 1.0797-7.258 1.0797s-5.4242-.4185-7.258-1.0797c-.9192-.3314-1.6275-.7142-2.0963-1.1138-.4716-.4021-.6455-.7699-.6455-1.0816v-5.1843l.0046.0039c.5938.5062 1.4232.9392 2.4042 1.2929 1.9664.709 4.6503 1.138 7.591 1.138 2.9408 0 5.6246-.429 7.591-1.138.981-.3537 1.8104-.7867 2.4042-1.2929zm-17.5578-3.248c0 .3509-.2786.6354-.6223.6354-.3436 0-.6222-.2845-.6222-.6354 0-.351.2786-.6355.6222-.6355.3437 0 .6223.2845.6223.6355zm0 7.0216c0 .3509-.2786.6354-.6223.6354-.3436 0-.6222-.2845-.6222-.6354 0-.351.2786-.6355.6222-.6355.3437 0 .6223.2845.6223.6355z" fill="#4f5162" fill-rule="evenodd"/></svg>