<svg fill="none" viewBox="0 0 32 33" xmlns="http://www.w3.org/2000/svg"><path clip-rule="evenodd" d="m8.80757 7.36569 5.04483-.00011c.0009 0 .0023 0 .006.00153.0046.0019.0138.00678.0254.01758.0254.02372.0468.06141.0533.10223.1017.63723.3384 1.58187.9153 2.38501.6044.84147 1.5691 1.50137 2.9976 1.50137 1.4294 0 2.3956-.6606 3.0019-1.50171.5791-.80321.8186-1.74795.9222-2.38485.0067-.04093.0281-.07845.0534-.10194.0115-.01069.0205-.01549.025-.01735.0036-.00148.005-.00148.0058-.00147l5.3365.00028-.1724 19.16444h-18.21489v-4.899c0-.9367-.76803-1.5926-1.56292-1.6792-.52909-.0576-1.15803-.206-1.63535-.5335-.4313-.296-.77804-.7587-.77804-1.6104 0-.8708.36477-1.3883.83671-1.7374.50853-.3762 1.16537-.5673 1.6906-.6581.75244-.1301 1.449-.7747 1.449-1.6628zm5.04483-1.6001-5.04485.00011c-.88356.00001-1.60003.71627-1.60003 1.59999v6.38461c0 .0008.00001.0022-.00154.006-.00191.0046-.00678.0138-.01755.0255-.02363.0257-.06137.0476-.10257.0547-.63355.1096-1.5722.3586-2.36945.9483-.83386.6169-1.48519 1.591-1.48519 3.0238 0 1.4099.63266 2.3532 1.47275 2.9296.79408.5449 1.72853.7353 2.3674.8049.04427.0048.08685.0266.11421.0543.01243.0126.01805.0227.02022.0277.00172.004.00172.0055.00172.0066v4.899c0 .8837.71634 1.6 1.59999 1.6h18.21489c.878 0 1.592-.7076 1.5999-1.5856l.1724-19.16444c.008-.88939-.7109-1.61438-1.6-1.6144l-5.3363-.00027c-.8935-.00006-1.54.70453-1.6635 1.46378-.0864.53106-.2715 1.19384-.6409 1.70614-.342.47443-.8481.83737-1.704.83737-.8551 0-1.3586-.36211-1.6981-.83476-.367-.51097-.55-1.17257-.6348-1.70388-.1217-.76173-.7694-1.46905-1.6647-1.46905zm1.86 7.59841c-1.6009 0-2.9053 1.2551-2.9951 2.8332-.0032.0293-.0049.0589-.0049.0887l.0002.0471-.0002.0375c0 .106.0055.2109.0163.3144.125 1.5459.9508 3.0056 1.8346 4.1595.8971 1.1714 1.9255 2.1202 2.5876 2.6525.0279.0224.0614.0464.1004.0693.3963.2614.9134.2634 1.3116.0059.039-.0221.0761-.0472.1109-.0752.6621-.5323 1.6905-1.4811 2.5876-2.6525.8838-1.1539 1.7096-2.6136 1.8346-4.1595.0108-.1035.0163-.2084.0163-.3144l-.0002-.0375.0002-.0471c0-.0298-.0017-.0594-.0049-.0887-.0898-1.5781-1.3942-2.8332-2.9951-2.8332-.87 0-1.6524.3707-2.2.9625-.5475-.5918-1.3299-.9625-2.1999-.9625zm-1.3998 2.9831.0001-.0153.0007-.0153c.028-.7536.6459-1.3525 1.399-1.3525.7534 0 1.3715.5995 1.399 1.3536.016.4382.3817.7819.82.7706h.0026c.4226-.0107.7639-.3482.7793-.7706.0275-.7542.6456-1.3536 1.399-1.3536.7531 0 1.3709.5989 1.399 1.3525l.0007.0153.0001.0153.0002.0234c0 .0525-.0028.1041-.0083.1546-.0008.0077-.0015.0154-.0021.0232-.0862 1.0961-.6975 2.2614-1.5108 3.3233-.6995.9133-1.497 1.6837-2.0788 2.1787-.5817-.495-1.3792-1.2654-2.0787-2.1787-.8133-1.0619-1.4246-2.2272-1.5108-3.3233-.0006-.0078-.0013-.0155-.0021-.0232-.0055-.0505-.0083-.1021-.0083-.1546z" fill="#0278d5" fill-rule="evenodd"/></svg>