<svg fill="none" viewBox="0 0 33 33" xmlns="http://www.w3.org/2000/svg"><g clip-rule="evenodd" fill="#fff" fill-rule="evenodd"><path d="m16.029 3.91c-1.1-.254-2.018.035-2.685.597-.65.547-1.042 1.333-1.171 2.077l-1.034 5.244a.5.5 0 0 1 -.49.403h-5.745a1.5 1.5 0 0 0 -1.5 1.5v11.586a1.5 1.5 0 0 0 1.5 1.5h10.416a.5.5 0 0 0 0-1h-4.575v-12.504a.505.505 0 0 0 -.007-.085 1.5 1.5 0 0 0 1.382-1.207l1.035-5.25.002-.011c.094-.544.383-1.111.831-1.488.432-.364 1.03-.57 1.817-.388.823.189 1.174.63 1.333 1.108.172.518.127 1.126.036 1.6l-.741 3.856a1.5 1.5 0 0 0 1.473 1.783h10.174a.5.5 0 0 1 .491.592l-.734 3.91a.5.5 0 1 0 .982.185l.735-3.91a1.5 1.5 0 0 0 -1.474-1.777h-10.174a.5.5 0 0 1 -.491-.595l.741-3.855c.104-.538.183-1.346-.07-2.105-.265-.8-.885-1.498-2.057-1.767zm-6.277 9.32a.504.504 0 0 0 -.007.083v12.504h-4.84a.5.5 0 0 1 -.5-.5v-11.587a.5.5 0 0 1 .5-.5z"/><path d="m25.783 20.244c-3.75 0-6.696 2.946-6.696 6.696 0 1.964.803 3.75 2.053 5 .447.446 1.25.446 1.786.09.714-.626 1.786-.983 2.857-.983 1.16 0 2.054.357 2.857.982.536.446 1.25.357 1.786-.179 1.25-1.25 2.053-2.946 2.053-4.91-.089-3.66-3.035-6.696-6.696-6.696zm-.09 10.178c-2.053 0-3.392-1.518-3.392-3.393s1.34-3.393 3.393-3.393 3.393 1.518 3.393 3.393-1.34 3.393-3.393 3.393z"/></g></svg>