<svg viewBox="0 0 27 26" fill="currentColor" xmlns="http://www.w3.org/2000/svg"><path fill-rule="evenodd" clip-rule="evenodd" d="M14.548 1.198a2.02 2.02 0 0 0-1.744 0L4.533 5.159a2.002 2.002 0 0 0-1.088 1.357l-.512 2.23a.67.67 0 0 0 1.307.297l.512-2.23a.667.667 0 0 1 .362-.453l8.271-3.96a.673.673 0 0 1 .582 0l8.27 3.961a.667.667 0 0 1 .363.453l2.043 8.9a.664.664 0 0 1-.13.565l-5.723 7.138a.672.672 0 0 1-.524.251h-9.18a.672.672 0 0 1-.524-.251l-5.718-7.131a.673.673 0 0 0-.942-.106.664.664 0 0 0-.106.937l5.718 7.131c.382.476.96.753 1.572.753h9.18c.612 0 1.19-.277 1.572-.753l5.723-7.138a1.992 1.992 0 0 0 .389-1.692l-2.043-8.901a2.002 2.002 0 0 0-1.088-1.357l-8.27-3.961Zm.666 8.046a.673.673 0 0 0-.939.128.664.664 0 0 0 .128.934l2.693 2.034H1.67c-.37 0-.67.299-.67.667 0 .368.3.666.67.666H17.1l-2.697 2.044a.664.664 0 0 0-.127.934c.224.293.645.35.939.126l4.277-3.24a.665.665 0 0 0 0-1.061l-4.278-3.232Z" fill="#6B6D83" stroke="#6B6D83" stroke-linecap="round"/></svg>