<svg fill="none" viewBox="0 0 64 64" xmlns="http://www.w3.org/2000/svg"><g clip-rule="evenodd" fill="#0278d5" fill-rule="evenodd"><path d="m6.42578 19.743c0-1.7673 1.43268-3.2 3.19998-3.2h9.19604c1.7673 0 3.2 1.4327 3.2 3.2v.2437h3.8257v-.2437c0-1.7673 1.4326-3.2 3.1999-3.2h9.1363c1.7673 0 3.2 1.4327 3.2 3.2v3.4634c0 1.7673-1.4327 3.2-3.2 3.2h-9.1363c-1.7673 0-3.1999-1.4327-3.1999-3.2v-.0197h-3.8257v.243c0 1.7673-1.4327 3.2-3.2 3.2h-3.6691v3.3969c0 .6459.1989 1.244.6014 1.6689.3793.4003 1.1176.8357 2.5873.8357h7.5061v-.7554c0-1.7673 1.4326-3.2 3.1999-3.2h9.1961c1.7673 0 3.1999 1.4327 3.1999 3.2v3.6867c0 1.7673-1.4326 3.2-3.1999 3.2h-9.1961c-1.6768 0-3.0524-1.2897-3.1888-2.9313h-7.5172c-2.1421 0-3.7981-.661-4.9103-1.835-1.0889-1.1494-1.4784-2.6036-1.4784-3.8696v-3.3969h-2.32694c-1.7673 0-3.19998-1.4327-3.19998-3.2zm12.39602 0h-9.19604v3.6867h9.19604zm19.3619 0h-9.1363v3.4634h9.1363zm-9.1363 12.0328h9.1961v3.6867h-9.1961z"/><path d="m46.1068 6.43359c2.6509 0 4.7999 2.14903 4.7999 4.80001v24.1496c0 .8837-.7163 1.6-1.6 1.6-.8836 0-1.5999-.7163-1.5999-1.6v-24.1496c0-.8837-.7164-1.60001-1.6-1.60001h-31.6922c-.8836 0-1.6.71631-1.6 1.60001v.4343c0 .8837-.7163 1.6-1.6 1.6-.8836 0-1.59995-.7163-1.59995-1.6v-.4343c0-2.65098 2.14905-4.80001 4.79995-4.80001zm-6.9613 42.79391c0 .8837-.7163 1.6-1.6 1.6h-23.1309c-2.6509 0-4.79995-2.149-4.79995-4.8v-7.4606c0-.8836.71635-1.6 1.59995-1.6.8837 0 1.6.7164 1.6 1.6v7.4606c0 .8837.7164 1.6 1.6 1.6h23.1309c.8837 0 1.6.7164 1.6 1.6z"/><path d="m49.3068 33.7852c.8836 0 1.5999.7163 1.5999 1.6v4.2443c0 6.1856-5.0143 11.2-11.1999 11.2h-9.4461c-.8837 0-1.6-.7164-1.6-1.6 0-.8837.7163-1.6 1.6-1.6h9.4461c4.4183 0 8-3.5818 8-8v-4.2443c0-.8837.7163-1.6 1.6-1.6z"/><path d="m52.9896 16.332c2.6509 0 4.8 2.1491 4.8 4.8l-.0001 22.2031c0 .8836-.7163 1.6-1.5999 1.6-.8837 0-1.6-.7164-1.6-1.6v-22.2031c0-.8836-.7164-1.6-1.6-1.6h-3.6827c-.8837 0-1.6-.7163-1.6-1.6 0-.8836.7163-1.6 1.6-1.6zm-6.5397 39.8621c0 .8836-.7163 1.6-1.5999 1.6h-22.187c-2.6509 0-4.7999-2.1491-4.7999-4.8v-3.407c0-.8836.7163-1.6 1.5999-1.6.8837 0 1.6.7164 1.6 1.6v3.407c0 .8836.7164 1.6 1.6 1.6h22.187c.8836 0 1.5999.7163 1.5999 1.6z"/><path d="m56.1896 41.7344c.8836 0 1.6.7163 1.6 1.6v3.2589c0 6.1856-5.0144 11.2001-11.2 11.2h-8.7633c-.8836 0-1.6-.7163-1.6-1.6 0-.8836.7164-1.6 1.6-1.6h8.7633c4.4183 0 8-3.5817 8-8v-3.2589c0-.8837.7163-1.6 1.6-1.6z"/></g></svg>