<svg fill="none" viewBox="0 0 33 33" xmlns="http://www.w3.org/2000/svg"><g fill="#fff"><path clip-rule="evenodd" d="m14.899 4.485a.5.5 0 0 1 -.006.707l-2.201 2.166h14.242a1.5 1.5 0 0 1 1.5 1.5v5.374a.5.5 0 1 1 -1 0v-5.374a.5.5 0 0 0 -.5-.5h-14.242l2.2 2.165a.5.5 0 0 1 -.7.713l-3.072-3.022a.5.5 0 0 1 0-.713l3.072-3.022a.5.5 0 0 1 .707.006zm-9.786 8.882a.5.5 0 0 1 .5.5v11.96a.5.5 0 0 0 .5.5h10.057a.5.5 0 0 1 0 1h-10.057a1.5 1.5 0 0 1 -1.5-1.5v-11.96a.5.5 0 0 1 .5-.5z" fill-rule="evenodd"/><path d="m29.156 23.854v3.998l3.387-1.952v-4.091zm-3.753-2.045 3.387 2.045v3.998l-3.387-1.952z"/><path clip-rule="evenodd" d="m21.56 23.482v-3.998l3.478 2.046v3.998zm7.23 8.833-3.478-2.046v-3.998l3.478 2.046z" fill-rule="evenodd"/></g></svg>