<svg viewBox="0 0 26 26" xmlns="http://www.w3.org/2000/svg"><path d="M13.6 7.823v7.158l6.062-3.496V4.161L13.6 7.823z" fill="currentColor"/><path d="M6.882 4.161l6.062 3.662v7.158l-6.062-3.496V4.161z" fill="currentColor"/><path fill-rule="evenodd" clip-rule="evenodd" d="M0 7.157V0l6.226 3.662v7.157L0 7.157zM12.944 22.97l-6.226-3.662v-7.157l6.226 3.662v7.157z" fill="currentColor"/><path d="M24.98 19.882a5.098 5.098 0 11-10.196 0 5.098 5.098 0 0110.196 0zm-1.02 0a4.078 4.078 0 10-8.156 0 4.078 4.078 0 008.157 0zm-3.717-1.89l1.53 1.53a.51.51 0 01-.722.72l-.659-.658v1.828a.51.51 0 01-1.02 0v-1.828l-.659.659a.51.51 0 01-.72-.721l1.529-1.53a.51.51 0 01.72 0z" fill="currentColor"/></svg>