<svg fill="none" viewBox="0 0 32 33" xmlns="http://www.w3.org/2000/svg"><path clip-rule="evenodd" d="m4.504 16.086c0-6.351 5.149-11.5 11.5-11.5s11.5 5.149 11.5 11.5a.5.5 0 1 0 1 0c0-6.904-5.597-12.5-12.5-12.5-6.904 0-12.5 5.596-12.5 12.5s5.596 12.5 12.5 12.5a.5.5 0 1 0 0-1c-6.351 0-11.5-5.149-11.5-11.5zm11.496-7.5a.499.499 0 0 1 .356.148l3.533 3.534a.5.5 0 1 1 -.707.707l-2.682-2.682v9.123a.5.5 0 1 1 -1 0v-9.123l-2.682 2.682a.5.5 0 0 1 -.707-.707l3.531-3.532a.515.515 0 0 1 .151-.106.499.499 0 0 1 .207-.044z" fill="#0278d5" fill-rule="evenodd"/><path d="m23.552 17.163a7.53 7.53 0 0 0 -5.398 3.433c-.21.33-.501.903-.639 1.253a7.154 7.154 0 0 0 -.468 1.837 9.158 9.158 0 0 0 0 1.86 7.2 7.2 0 0 0 .757 2.47 7.112 7.112 0 0 0 1.41 1.93 7.462 7.462 0 0 0 4.357 2.123 9.159 9.159 0 0 0 1.86 0 7.514 7.514 0 0 0 5.417-3.433c.39-.612.748-1.434.928-2.13.165-.641.224-1.142.224-1.89 0-.45-.011-.666-.045-.93a7.2 7.2 0 0 0 -.757-2.47 7.114 7.114 0 0 0 -1.41-1.93 7.462 7.462 0 0 0 -4.356-2.123c-.466-.061-1.428-.061-1.88 0zm1.342 1.594c.17.014.21.023.255.068a.18.18 0 0 1 .052.106c0 .043.034.07.192.151.508.256.863.802.93 1.428.012.11.021.129.066.14.07.018.131.113.118.183-.01.045.011.077.12.17a.62.62 0 0 1 .133.137c0 .011-.036.02-.082.02h-.08l.157.168c.192.207.414.526.515.745.102.221.181.535.238.948l.05.341.15.283c.382.709.588 1.258.588 1.567-.002.326-.16.69-.41.938-.146.146-.155.16-.155.26 0 .275-.151 1.409-.201 1.5-.011.017-.043-.012-.1-.091l-.083-.12v.147c0 .314-.1 1.116-.156 1.267-.013.04-.018.04-.092-.014-.073-.054-.08-.054-.095-.018-.01.023-.048.242-.086.49-.04.247-.09.493-.115.547a.773.773 0 0 1 -.396.37.721.721 0 0 1 -.874-.327c-.024-.05-.099-.294-.165-.542-.099-.39-.121-.452-.158-.45-.022.003-.133.02-.244.041-.253.045-.429.045-.682 0a5.656 5.656 0 0 0 -.244-.04c-.038-.003-.058.051-.151.415-.142.544-.165.598-.303.736a.695.695 0 0 1 -.966.03c-.165-.145-.21-.262-.287-.777a7.497 7.497 0 0 0 -.086-.493c-.016-.036-.023-.036-.095.018-.056.043-.081.05-.093.03-.052-.095-.153-.913-.155-1.247v-.18l-.088.119c-.05.066-.093.108-.1.1-.034-.057-.144-.82-.187-1.295l-.016-.17-.179-.133c-.528-.39-.745-.98-.562-1.526.108-.321.37-.79.73-1.303.122-.177.13-.2.165-.407.094-.596.289-1.043.675-1.554.074-.1.176-.224.226-.278l.088-.095h-.095c-.05 0-.093-.004-.093-.01 0-.019.147-.148.26-.227.088-.063.093-.074.066-.113-.041-.054-.043-.305-.003-.357.014-.022.055-.047.09-.056.055-.014.07-.043.148-.267.115-.336.241-.544.465-.767a1.6 1.6 0 0 1 .69-.407c.098-.027.136-.047.136-.077 0-.038.077-.12.136-.142a.465.465 0 0 1 .136-.005c.056.007.192.016.302.025z" fill="#5849a6"/><path clip-rule="evenodd" d="m25.15 18.825c-.046-.045-.087-.054-.256-.068a13.551 13.551 0 0 0 -.116-.009c-.077-.006-.15-.011-.187-.016a.473.473 0 0 0 -.135.005c-.059.022-.136.104-.136.142 0 .03-.038.05-.135.077-.26.075-.493.21-.691.407-.224.223-.35.43-.466.767-.076.224-.092.253-.146.267-.037.009-.077.034-.09.056-.042.052-.04.303.001.357.027.039.023.05-.065.113-.113.08-.26.208-.26.226 0 .007.043.011.093.011h.095l-.088.095c-.05.054-.152.179-.226.278-.386.51-.58.958-.676 1.554-.034.208-.043.23-.165.407-.359.512-.62.982-.73 1.303-.182.546.035 1.136.563 1.526l.179.134.016.17c.043.474.153 1.237.187 1.293.007.01.05-.034.1-.099l.088-.12v.181c.002.334.103 1.152.155 1.247.012.02.037.013.093-.03.072-.054.079-.054.095-.018.009.023.047.244.086.493.077.515.122.632.287.777.284.253.697.239.966-.03.138-.138.16-.192.303-.736.093-.364.113-.418.151-.416.023.003.134.02.244.041.253.045.43.045.682 0 .111-.02.222-.038.244-.04.036-.003.059.058.158.449.066.248.14.492.165.542.163.305.55.45.874.327a.773.773 0 0 0 .396-.37c.024-.054.074-.3.115-.547a7.3 7.3 0 0 1 .086-.49c.015-.036.022-.036.095.018.074.055.079.055.092.014.057-.151.156-.953.156-1.267v-.147l.083.12c.057.079.089.108.1.09.05-.09.2-1.224.2-1.5 0-.099.01-.113.157-.26.248-.248.406-.611.409-.937 0-.31-.206-.858-.588-1.567l-.151-.282-.05-.342c-.056-.413-.135-.727-.237-.948a3.4 3.4 0 0 0 -.515-.745l-.158-.168h.081c.046 0 .082-.009.082-.02a.62.62 0 0 0 -.134-.138c-.108-.092-.128-.124-.12-.17.014-.07-.047-.164-.117-.182-.045-.011-.054-.03-.065-.14-.068-.626-.423-1.172-.93-1.428-.159-.08-.193-.108-.193-.15a.18.18 0 0 0 -.052-.107z" fill="#fff" fill-rule="evenodd"/><path clip-rule="evenodd" d="m25.15 18.825c-.046-.045-.087-.054-.256-.068a13.579 13.579 0 0 0 -.116-.009c-.077-.006-.15-.011-.187-.016a.472.472 0 0 0 -.135.005c-.059.022-.136.104-.136.142 0 .03-.038.05-.135.077-.26.075-.493.21-.691.407-.224.223-.35.43-.466.767-.076.224-.092.253-.146.267-.037.009-.077.034-.09.056-.042.052-.04.303.001.357.011.016.017.027.014.038.103.14.317.423.487.62.227.26.54.4.831.44.29.041.732.082.947.076.215-.005.657-.18.773-.296l.08-.075c.17-.158.504-.47.6-.71-.02-.027-.023-.047-.018-.07.013-.07-.048-.165-.118-.183-.045-.011-.054-.03-.065-.14-.068-.626-.423-1.172-.93-1.428-.159-.08-.193-.108-.193-.15a.18.18 0 0 0 -.052-.107z" fill="#17a9f9" fill-rule="evenodd"/><circle cx="24.626" cy="20.921" fill="#1794da" r=".786"/><circle cx="24.626" cy="20.783" fill="#fff" r=".786"/><path d="m24.653 20.279-.42.836c-.058-.08-.158-.316-.072-.54.085-.222.363-.29.492-.296z" fill="#f2f2f2"/><g clip-rule="evenodd" fill-rule="evenodd"><path d="m27.744 26.317c-.273.184-.85.514-1.327.585.352-.038 1.055-.16 1.309-.367.003-.051.005-.094.005-.126 0-.04.002-.066.013-.092zm-6.21.37c.233.073.843.184 1.454.053-.212.01-.802-.034-1.475-.28l.016.166.006.061zm.703-1.602c-.287-.17-.379-.458-.363-.57-.036.216-.076.549.717.993.604.339 1.91.167 2.508.017v.054h.078l-.038.049v.139c.306-.273.835-.339 1.061-.338.408-.05.68.332.767.53a2.014 2.014 0 0 0 -.15-.328c-.086-.158-.178-.222-.213-.235.472-.201.623-.632.64-.822-.116.361-.397.508-.587.606-.038.02-.073.038-.101.055-.137.082-.553.092-.743.087l.014.029-.38-.022.085.1c-.105.033-.332.014-.433 0v-.05a.754.754 0 0 1 -.18.017c-.38-.009-.839-.225-1.021-.332v.177c.123.096.609.206.836.25-.352.106-1.02.103-1.31.088l.126-.126c-.15.011-.518.008-.788-.096a2.415 2.415 0 0 1 -.451-.211.773.773 0 0 1 .384-.145c.36-.023.935.319 1.167.47l-.016-.152c-.133-.126-.78-.431-1.103-.431-.224 0-.432.135-.506.197z" fill="#e6e6e6"/><path d="m23.085 23.399c-.106-.077-.129-.163-.057-.204.057-.034.066-.031.17.041.246.167.662.339.973.398.664.126 1.267.018 1.895-.341.183-.104.226-.12.265-.1.076.04.056.127-.05.206-.127.092-.44.248-.646.323a2.936 2.936 0 0 1 -1.843.02 3.32 3.32 0 0 1 -.707-.343zm.07-1.008a.257.257 0 0 0 -.077.102.187.187 0 0 0 .093.237c.09.047.142.043.22-.025.188-.158-.037-.454-.236-.314zm2.717-.009c-.025.014-.056.061-.075.102-.029.07-.029.088.003.153.063.134.192.16.302.068.14-.117.064-.348-.115-.348a.273.273 0 0 0 -.115.025z" fill="#000"/></g></svg>