<svg viewBox="0 0 32 32" xmlns="http://www.w3.org/2000/svg"><path fill-rule="evenodd" clip-rule="evenodd" d="M14.07 4.617a.5.5 0 0 1-.003.707L11.873 7.5h13.642a1.5 1.5 0 0 1 1.5 1.5v10.58a.5.5 0 1 1-1 0V9a.5.5 0 0 0-.5-.5H11.873l2.194 2.178a.5.5 0 1 1-.704.71l-3.056-3.033a.5.5 0 0 1 0-.71l3.056-3.032a.5.5 0 0 1 .707.003Zm-9.555 8.846a.5.5 0 0 1 .5.5v12.006a.5.5 0 0 0 .5.5h14.554a.5.5 0 1 1 0 1H5.515a1.5 1.5 0 0 1-1.5-1.5V13.963a.5.5 0 0 1 .5-.5Z" fill="#0278D5"/><path d="M28.614 23.54v3.998L32 25.585v-4.091l-3.386 2.045Z"/><path d="m24.86 21.494 3.387 2.045v3.998l-3.386-1.952v-4.091Z" fill="#000"/><path fill-rule="evenodd" clip-rule="evenodd" d="M21.017 23.168v-3.999l3.478 2.046v3.998l-3.478-2.046ZM28.247 32l-3.478-2.046v-3.998l3.478 2.046V32Z" fill="#000"/></svg>