<svg viewBox="0 0 16 18" xmlns="http://www.w3.org/2000/svg"><path d="M14.425 3.759L8.823.246a1.578 1.578 0 00-1.691 0L1.534 3.759C1.017 4.085.7 4.68.7 5.323v7.457c0 .652.326 1.254.853 1.575l5.6 3.41a1.575 1.575 0 001.653 0l5.6-3.41c.529-.323.854-.924.854-1.575V5.323c0-.643-.317-1.238-.835-1.564zm-.285 9.02a.612.612 0 01-.285.526l-5.6 3.41a.524.524 0 01-.55 0l-5.6-3.41a.612.612 0 01-.285-.525V5.323c0-.215.106-.413.278-.521l5.598-3.513c.174-.11.39-.11.563 0l5.603 3.513a.611.611 0 01.278.521v7.457zM7.98 5.4C6.124 5.4 4.62 7.012 4.62 9s1.504 3.6 3.36 3.6c1.855 0 3.36-1.612 3.36-3.6S9.835 5.4 7.98 5.4zm0 6c-1.237 0-2.24-1.074-2.24-2.4s1.003-2.4 2.24-2.4 2.24 1.075 2.24 2.4-1.003 2.4-2.24 2.4z" fill="#22272D" fill-rule="nonzero"/></svg>