<svg width="145" height="144" fill="none" xmlns="http://www.w3.org/2000/svg"><path d="M23.813 80.755c-1.713-1.701-1.427-2.836-1.07-3.19L64.08 24.933c-.296.006-.005-.254.423-.538l-.423.538c.446-.01 2.219-.621 6.847-2.664 9.637-4.254 13.92 2.127 14.991 4.253 1.07 2.127 29.982 77.628 31.053 79.754 1.07 2.127 2.141 6.381 0 8.508-1.714 1.701-12.136 5.671-17.133 7.443-24.628-13.115-74.312-39.77-76.025-41.472Z" fill="#EE5F54"/><path fill-rule="evenodd" clip-rule="evenodd" d="m117.368 108.326-16.062 6.381-.795-1.975 16.061-6.38.796 1.974ZM114.156 98.756l-16.062 6.38-.795-1.974 16.061-6.38.796 1.974ZM109.873 90.25l-16.062 6.38-.795-1.974 16.061-6.38.796 1.974ZM85.245 24.318l-16.062 6.38-.795-1.974 16.061-6.38.796 1.974Zm3.212 7.444-16.062 6.38-.795-1.974 16.062-6.38.795 1.974Zm3.212 8.507-16.061 6.38-.796-1.974 16.062-6.38.795 1.974Zm3.213 8.507-16.062 6.38-.795-1.974 16.061-6.38.796 1.974Zm2.141 7.444L80.962 62.6l-.796-1.974 16.062-6.38.795 1.974Zm3.212 7.444-16.061 6.38-.796-1.974 16.062-6.38.795 1.974Zm3.213 8.507-16.062 6.38-.795-1.974 16.061-6.38.796 1.974Zm4.283 8.507-16.062 6.38-.795-1.974 16.062-6.38.795 1.974Z" fill="#000"/><path fill-rule="evenodd" clip-rule="evenodd" d="M79.349 21.51c-.994-.063-2.198.173-3.8.703l-.015.006-10.723 3.194-.616-2.037 10.693-3.185c1.674-.553 3.19-.893 4.596-.804 1.463.092 2.734.641 3.904 1.712 1.137 1.039 2.165 2.558 3.225 4.575 1.064 2.026 2.196 4.63 3.512 7.896.843 2.094 2.945 7.735 5.745 15.249a6854.28 6854.28 0 0 0 5.913 15.828c5.61 14.951 12.151 32.119 17.249 44.414.799 1.927.55 3.69-.448 5.22-.953 1.461-2.552 2.66-4.376 3.687-2.89 1.626-6.689 2.996-10.234 4.275-.92.331-1.823.657-2.689.979a1.073 1.073 0 0 1-1.378-.622 1.061 1.061 0 0 1 .626-1.369c.924-.344 1.867-.684 2.813-1.026 3.525-1.272 7.089-2.559 9.806-4.088 1.719-.967 2.962-1.961 3.635-2.992.627-.962.788-1.991.265-3.254-5.114-12.333-11.666-29.531-17.276-44.482-2.167-5.774-4.192-11.208-5.94-15.9-2.784-7.473-4.866-13.06-5.7-15.129-1.31-3.252-2.41-5.775-3.422-7.703-1.017-1.937-1.91-3.201-2.776-3.994-.833-.762-1.647-1.094-2.59-1.153Z" fill="#000"/><path fill-rule="evenodd" clip-rule="evenodd" d="M101.34 118.628 67.243 26.949c-.58-1.56-2.658-1.885-3.693-.577L23.257 77.3a2.119 2.119 0 0 0 .65 3.177l74.39 40.75c1.736.951 3.73-.751 3.043-2.599ZM69.252 26.212c-1.16-3.12-5.317-3.77-7.386-1.154L21.573 75.986c-1.631 2.063-1.013 5.086 1.3 6.353l74.39 40.75c3.473 1.903 7.46-1.502 6.086-5.198L69.252 26.212Z" fill="#000"/><path d="M69.857 87.134c0 3.524-2.876 6.38-6.425 6.38-3.548 0-6.424-2.856-6.424-6.38 0-3.523 2.876-6.38 6.424-6.38 3.549 0 6.425 2.856 6.425 6.38Z" fill="#fff"/><path fill-rule="evenodd" clip-rule="evenodd" d="M63.432 91.388c2.366 0 4.284-1.905 4.284-4.254 0-2.349-1.918-4.253-4.283-4.253-2.366 0-4.284 1.904-4.284 4.253 0 2.35 1.918 4.254 4.283 4.254Zm0 2.127c3.549 0 6.425-2.857 6.425-6.38 0-3.525-2.876-6.381-6.425-6.381-3.548 0-6.424 2.856-6.424 6.38s2.876 6.38 6.424 6.38Z" fill="#000"/><path d="M69.857 52.043c0 7.085-.559 18.587-2.754 21.897-1.08 1.629-2.333 2.56-3.67 2.56-1.338 0-2.592-.931-3.672-2.56-2.195-3.31-2.753-15.876-2.753-22.96 0-10.572 2.37-12.761 6.424-12.761 4.055 0 6.425 3.252 6.425 13.824Z" fill="#fff"/><path fill-rule="evenodd" clip-rule="evenodd" d="M60.548 41.708c-.787 1.34-1.399 4.022-1.399 9.271 0 3.5.139 8.344.545 12.7.203 2.181.47 4.199.81 5.848.355 1.728.74 2.782 1.046 3.243.934 1.409 1.625 1.604 1.882 1.604.258 0 .949-.195 1.883-1.604.319-.48.7-1.492 1.052-3.102.337-1.544.602-3.425.805-5.47.405-4.083.544-8.656.544-12.155 0-5.219-.601-8.245-1.457-9.908-.404-.783-.826-1.19-1.21-1.417-.388-.23-.895-.373-1.617-.373-.836 0-1.398.116-1.802.305-.367.172-.73.46-1.082 1.058Zm6.555 32.232c2.195-3.31 2.754-14.812 2.754-21.897 0-10.572-2.37-13.824-6.425-13.824s-6.424 2.19-6.424 12.76c0 7.085.558 19.651 2.753 22.961 1.08 1.629 2.334 2.56 3.671 2.56 1.338 0 2.591-.931 3.671-2.56Z" fill="#000"/></svg>