<svg fill="none" viewBox="0 0 16 16" xmlns="http://www.w3.org/2000/svg"><g fill="#383946"><path d="m10.5759 4.40039v-1.856c0-1.184-.96-2.143999-2.144-2.143999h-5.888c-1.184 0-2.143998.959999-2.143998 2.143999v5.872c0 1.184.959998 2.14401 2.143998 2.14401h1.84c.304 2.816 2.688 5.024 5.584 5.024 3.104 0 5.616-2.512 5.616-5.61601.016-2.88-2.192-5.28-5.008-5.568zm-8.992 4.016v-5.872c0-.528.432-.976.976-.976h5.872c.528 0 .976.432.976.976v1.84c-2.624.272-4.72 2.368-4.992 4.992h-1.872c-.528.016-.96-.416-.96-.96zm8.4 6.00001c-2.448 0-4.432-1.984-4.432-4.43201 0-2.448 1.984-4.432 4.432-4.432s4.432 1.984 4.432 4.432c0 2.44801-1.984 4.43201-4.432 4.43201z"/><path d="m12.0159 9.39165h-1.4401v-1.95199c0-.32-.272-.592-.59195-.592-.32 0-.592.272-.592.592v2.54399c0 .32005.272.59205.592.59205h2.03205c.32 0 .592-.272.592-.59205 0-.32-.272-.592-.592-.592z"/></g></svg>