<svg viewBox="0 0 10 12" fill="none" xmlns="http://www.w3.org/2000/svg">
    <path fill-rule="evenodd" clip-rule="evenodd" d="M3.83333 0.751302C3.67225 0.751302 3.54167 0.881887 3.54167 1.04297V1.91797C3.54167 2.07905 3.67225 2.20964 3.83333 2.20964H6.45834C6.61939 2.20964 6.75 2.07905 6.75 1.91797V1.04297C6.75 0.881887 6.61939 0.751302 6.45834 0.751302H3.83333ZM2.95833 1.04297C2.95833 0.559718 3.35008 0.167969 3.83333 0.167969H6.45834C6.94157 0.167969 7.33334 0.559718 7.33334 1.04297V1.33464H8.5C8.98324 1.33464 9.375 1.72638 9.375 2.20964V10.3763C9.375 10.8595 8.98324 11.2513 8.5 11.2513H1.5C1.01675 11.2513 0.625 10.8595 0.625 10.3763V2.20964C0.625 1.72638 1.01675 1.33464 1.5 1.33464H2.95833V1.04297ZM2.95833 1.91797H1.5C1.33892 1.91797 1.20833 2.04855 1.20833 2.20964V10.3763C1.20833 10.5374 1.33892 10.668 1.5 10.668H8.5C8.66106 10.668 8.79167 10.5374 8.79167 10.3763V2.20964C8.79167 2.04855 8.66106 1.91797 8.5 1.91797H7.33334C7.33334 2.40122 6.94157 2.79297 6.45834 2.79297H3.83333C3.35008 2.79297 2.95833 2.40122 2.95833 1.91797Z" fill="currentColor"/>
</svg>
