<svg fill="none" viewBox="0 0 14 15" xmlns="http://www.w3.org/2000/svg"><path clip-rule="evenodd" d="m4.39634.302246v.000318c-2.37028.022335-4.3100652 2.114226-4.3574813 4.473236h-.0128999l-.0259588 9.5377 9.55495.0258.00069-.0012c2.35556-.0413 4.36756-1.9754 4.41446-4.3219h.0036l.0263-9.687851zm1.77838 3.008114c-.56774 0-1.61414.35778-1.66505.41077-.0606.06308-.06291.12398-.04346.19009.03239.11004.22974.35807.44752.57574.08699.08693.17695.17612.2679.26629.34604.34309.70641.70039.97216 1.00085-.11418.11057-.22837.22653-.34255.34249-.18538.18826-.37076.37653-.55613.54173-.2303-.22353-.48356-.48279-.73464-.73981-.17219-.17627-.34336-.3515-.5054-.51343-.03531-.03528-.07053-.07194-.1055-.10835-.10809-.11253-.21379-.22256-.31248-.28154-.13482-.08057-.2399-.08351-.36225 0-.2154.147-.47486 1.32831-.3971 2.0121.06936.61017.31515 1.24035.83597 1.82408.53307.59748 1.19455.89949 1.81131 1.01649.62231.1181 1.20226.0753 1.83222-.14622.19142.19304.37722.37446.56329.55616l.00002.0001c.15685.1531.31389.3065.47466.4672.06525.0652.12948.1325.19353.1996.26091.2735.51882.5438.83057.6567.54399.197 1.37419.0134 1.69289-.7309.0872-.204.1209-.455.0975-.6824-.0179-.17358-.085-.43561-.2348-.61941l-.0003-.0005c-.0765-.1117-.5203-.54053-.5203-.54053v.00003c-.0778-.07721-.1587-.1546-.2412-.23354v-.00001c-.0937-.08967-.18952-.18134-.28522-.277l-.47373-.47337c-.04681-.04679-.09342-.09804-.13982-.14906l-.00002-.00003c-.11504-.1265-.22875-.25154-.34089-.30349-.28161-.13039-.58955.20488-.46672.46646.05354.11409.17746.22643.30327.34048.05106.04628.10242.09285.14953.13993.16194.16182.32793.32419.49287.48552l.00013.00013.00009.00008c.16343.15987.32584.31873.48226.47505.01584.01584.03147.03181.04697.04779l.00039.00044c.02158.02224.04282.04449.06389.06652v.00005c.0327.03428.0649.06801.0971.10029.1413.14927.3287.35487.3585.42677l.0017.0048.0004.0011.0023.0067c.1695.5462-.47442 1.047-.96142.7519-.06804-.0412-.11996-.1013-.17612-.1664-.02967-.0343-.06052-.0701-.09555-.1051-.21858-.2184-.45773-.453-.69971-.69035l-.00012-.00012c-.37401-.36682-.75475-.74026-1.07666-1.07097-.91322.49592-1.94491.54769-2.86322-.10444-.54564-.38741-.83364-.91265-.9823-1.38544-.15231-.48451-.1589-.97549-.02788-1.42032l1.15647 1.15571c.04205.04203.08168.08685.12037.1306.08461.09569.16472.18629.2558.23144.22248.11026.39967-.07159.61875-.29644.02977-.03055.06032-.0619.09185-.09342l.40407-.40384c.04912-.04909.11564-.1103.1891-.1779.22529-.20732.51586-.47471.57025-.63666.06767-.20149-.09807-.36521-.28903-.55385l-.05233-.05189c-.4129-.41266-.79131-.79391-1.17037-1.1836.74418-.1704 1.5786-.09416 2.32683.52913.7114.59263.95798 1.40261.94049 2.02601-.00079.02784-.00413.05615-.00749.08458-.00772.06542-.01552.13149.00749.19394.12274.26357.46445.33272.64086.06964.05325-.07935.05106-.23361.04936-.35401-.00029-.02002-.00056-.0391-.00056-.05675 0-.69343-.23189-1.41576-.78022-2.07478-.74387-.89392-1.69967-1.16961-2.48009-1.16961zm3.42199 9.19084c1.41229-.0438 2.49229-1.079 2.53439-2.4901h-.0037l.0373-7.87265-7.77365-.00503c-1.45676.00387-2.50793 1.22817-2.53785 2.67511l-.03725 7.68727z" fill="#27ae60" fill-rule="evenodd"/></svg>