<svg viewBox="0 0 14 16" xmlns="http://www.w3.org/2000/svg"><g fill="#22272D" fill-rule="nonzero" stroke="#22272D" stroke-width=".25"><path d="M12.89.55H6.388a3.28 3.28 0 00-3.043 2.067C1.672 2.76.34 4.17.34 5.87v9.271c0 .17.138.308.307.308H7.15c1.35 0 2.543-.825 3.042-2.066 1.673-.144 3.006-1.554 3.006-3.255V.86A.307.307 0 0012.89.55zM7.15 14.835H.955V5.87c0-1.299.955-2.4 2.199-2.624-.002.01-.001.021-.003.032-.031.182-.05.367-.05.552v9.27c0 .17.138.308.308.308h6.105a2.67 2.67 0 01-2.364 1.425zm5.432-4.705a2.68 2.68 0 01-2.607 2.664H3.716V3.831a2.672 2.672 0 012.671-2.665h6.195v8.963z"/><path d="M6.11 6.672a.308.308 0 000 .615h1.732V9.02a.308.308 0 00.616 0V7.287h1.733a.308.308 0 000-.615H8.458V4.939a.308.308 0 00-.616 0v1.733H6.11z"/></g></svg>