<svg xmlns="http://www.w3.org/2000/svg"  viewBox="0 0 32 32"><defs/><path fill="currentColor" d="M16 9.59077c2.6484 0 4.7954-2.14696 4.7954-4.79538C20.7954 2.14697 18.6484 0 16 0s-4.7954 2.14697-4.7954 4.79539S13.3516 9.59077 16 9.59077zM4.79539 32c2.64842 0 4.79538-2.147 4.79538-4.7954 0-2.6485-2.14696-4.7954-4.79538-4.7954C2.14697 22.4092 0 24.5561 0 27.2046 0 29.853 2.14697 32 4.79539 32zM17.6138 11.804c-.5072.1383-1.0605.1845-1.6138.1845-.5533 0-1.1066-.0462-1.6138-.1845v5.8098l-5.02597 4.0115c.82997.6917 1.47547 1.5678 1.93657 2.5361L16 20.4726l4.7032 3.7349c.4611-.9683 1.1066-1.8444 1.9366-2.5361l-5.026-4.0115V11.804zM27.2046 32C29.853 32 32 29.853 32 27.2046c0-2.6485-2.147-4.7954-4.7954-4.7954s-4.7954 2.1469-4.7954 4.7954c0 2.6484 2.147 4.7954 4.7954 4.7954z"/></svg>