<svg fill="none" viewBox="0 0 10 18" xmlns="http://www.w3.org/2000/svg"><path d="m1.5 0c-.8236 0-1.5.67632-1.5 1.5 0 .8236.6764 1.5 1.5 1.5.7208 0 1.328-.5188 1.4688-1.2h1.5562c-.05.1976-.1368.3916-.2626.5624l1.5188-.5624h.0188v-.0062l1.0812-.4-2.6188-.96256c.1252.17426.2062.36976.2564.56876h-1.6064c-.2076-.58016-.764-1-1.4124-1zm0 3h-.4v.2h.8v-.2zm7-3c-.8236 0-1.5.67632-1.5 1.5 0 .685.4688 1.2668 1.1 1.4438v.0562h.8v-.0562c.6312-.177 1.1-.7588 1.1-1.4438 0-.82368-.6764-1.5-1.5-1.5zm-7 .8c.3914 0 .7.3086.7.7s-.3086.7-.7.7-.7-.3086-.7-.7.3086-.7.7-.7zm7 0c.3914 0 .7.3086.7.7s-.3086.7-.7.7-.7-.3086-.7-.7.3086-.7.7-.7zm-.4 2.4v.2h.8v-.2zm-7 .2v.2h.8v-.2zm7 .2v.2h.8v-.2zm-7 .2v.2h.8v-.2zm7 .2v.2h.8v-.2zm-7 .2v.2h.8v-.2zm7 .2v.2h.8v-.2zm-7 .2v.2h.8v-.2zm7 .2v.2h.8v-.2zm-7 .2v.2h.8v-.2zm7 .2v.2h.8v-.2zm-7 .2v.2h.8v-.2zm7 .2v.2h.8v-.2zm-7 .2v.2h.8v-.2zm7 .2v.2h.8v-.2zm-7 .2v.2h.8v-.2zm7 .2v.2h.8v-.2zm-7 .2v.2h.8v-.2zm7 .2v.2h.8v-.2zm-7 .2v.2h.8v-.2zm7 .2v.2h.8v-.2zm.4.2c-.8236 0-1.5.6764-1.5 1.5s.6764 1.5 1.5 1.5c.03 0 .0578-.0044.0876-.0062l.2748.05.0126-.0688v-.025c.6438-.1684 1.125-.756 1.125-1.45 0-.8236-.6764-1.5-1.5-1.5zm-7.4 0v.1562c-.6312.177-1.1.7588-1.1 1.4438s.4688 1.2668 1.1 1.4438v.1562h.8v-.1562c.6312-.177 1.1-.7588 1.1-1.4438s-.4688-1.2668-1.1-1.4438v-.1562zm7.4.8c.3914 0 .7.3086.7.7s-.3086.7-.7.7-.7-.3086-.7-.7.3086-.7.7-.7zm-7 .1c.3914 0 .7.3086.7.7s-.3086.7-.7.7-.7-.3086-.7-.7.3086-.7.7-.7zm6.5438 2.1562-.0062.0188-.0064.0126-.025.0748-.0062.0252-.0124.0186.7374.3062.025-.0436.0062-.0126v-.0186l.0438-.1314.0062-.0124.0062-.0126v-.0124l-.5248-.1312zm-.125.2876-.0564.1062-.0124.0188v.0062l.0312.0188.6064.4562.0312-.0376.0188-.0248.0124-.0252.0688-.1312zm-6.8188.0562v.2h.8v-.2zm6.6562.2-.0312.0312-.0062.0064-.0938.1.5688.5562.1312-.1376.0188-.0186.0186-.0188.0064-.0064-.375-.2812zm-6.6562.2v.2h.8v-.2zm6.4062.0376-.1186.0936-.0064.0064.4438.6624.0374-.025.0188-.0126.0126-.0124.1186-.0938zm-.2938.2124-.0312.0188-.1124.0624.3874.7.1438-.0812.0124-.0062.0188-.0126.025-.0188zm-6.1124.15v.2h.8v-.2zm5.8124.0124-.1812.0876.3438.7188.1812-.0812zm-.3436.1564-.1188.05-.0188.0062-.0374.0126.2812.75.05-.0188h.0062l.0126-.0064.1312-.0562zm-.3626.1374-.0438.0188-.0186.0062-.1062.0376.2436.7562.125-.0374.0126-.0064h.0062l.0626-.025zm-5.1062.0938v.2h.8v-.2zm4.7438.025-.1876.0626.2438.7624.1876-.0624zm-.3688.1188-.1938.0562.225.7688.1938-.0564zm-.3874.1124-.1876.0562.2188.7688.1936-.0562zm-.3814.1126-.1938.0562.2252.7688.1936-.0562zm-3.6062.0312v.2h.8v-.2zm3.225.0812-.0874.025h-.0126l-.1062.0376.2436.7624.0938-.0312.0126-.0062.075-.0188zm-.3938.125-.1936.0562.25.7626.1874-.0626zm-.4.125-.1874.075.2812.75.1874-.0686zm-2.4312.0688v.2h.8v-.2zm2.0438.0812-.175.075-.0064.0062h-.0124l-.0062.0064.2562.5374.075.1876.0126-.0062h.0062l.1562-.0626zm-.3814.175-.0874.0376-.0126.0062-.0062.0062-.0938.0562.3876.6938.075-.0374.0188-.0126.0624-.0312zm-1.6624.1438v.2h.8v-.2zm1.2624.075-.1686.1126.4438.6624.1686-.1124zm-.3562.2562-.1062.0812v-.0124h-.8v.2h.8v-.025l.4938.475.0062-.0124.025-.0252h.0062l.0812-.0624zm-.325.3-.0062.0126-.0188.0186-.0186.0188-.0876.1188h-.45v.2h.65l.4124.3124.1188-.15-.2624-.1936-.1188-.1188v-.05h-.05zm-.2936.4188-.0626.1188-.0126.0188-.0062.0124h-.2062v.2h.5l.4188.175.0062-.0188.0126-.025.0062-.0124.0438-.0812-.1876-.1064v-.1312h-.2438zm-.1876.4312v.0126l-.0062.0124-.0062.0126-.0188.0812h-.0688v.2h.4c-.8236 0-1.5.6764-1.5 1.5s.6764 1.5 1.5 1.5 1.5-.6764 1.5-1.5c0-.6734-.4536-1.244-1.0688-1.4312v-.0188l.0064-.0188v-.0124l.0186-.075.0062-.0126.0064-.0188-.0688-.0186v-.0938h-.3438zm.3 1.1188c.3914 0 .7.3086.7.7s-.3086.7-.7.7-.7-.3086-.7-.7.3086-.7.7-.7z" fill="#383946"/></svg>