<svg viewBox="0 0 25 24" fill="currentColor" xmlns="http://www.w3.org/2000/svg"><path fill-rule="evenodd" clip-rule="evenodd" d="M10.622 1.003A1.463 1.463 0 0 1 10.76 1l1.447.06c.805.038 1.76.649 1.984 1.9.05.283.191 1.159.353 2.16.16.987.338 2.095.469 2.876l3.662.4c2.097.044 3.683 1.742 3.683 3.824v6.807c0 2.109-1.523 3.4-3.658 3.4h-6.22c-.954 0-2.576-.592-4.821-2.179-2.216-1.566-3.476-2.554-3.747-3.355a8.59 8.59 0 0 1-.298-1.12 5.54 5.54 0 0 1-.113-.988c0-.388.17-.758.465-1.014a1.373 1.373 0 0 1 1.077-.323l.788.104 2.804.368c.072-4.2.174-10.35.174-10.835 0-1.28.935-2.028 1.814-2.083Zm1.533 1.406-1.447-.06s-.537.027-.537.73-.2 12.367-.2 12.367l-4.32-.582-.789-.13s0 .22.09.68c.043.228.108.42.206.708l.045.132c.34 1.008 5.89 4.825 7.277 4.825h6.219c1.385 0 2.296-.684 2.296-2.05V12.22c0-1.367-1.017-2.475-2.403-2.475l-4.703-.52s-.879-5.27-1.015-6.03c-.135-.76-.72-.787-.72-.787Z"/><path fill-rule="evenodd" clip-rule="evenodd" d="M15.762 11.223a.361.361 0 0 0 .405-.336.36.36 0 0 0-.327-.374l-.793-.082a.365.365 0 0 0-.402.316.36.36 0 0 0 .324.393l.793.083Zm4.259 7.673a.369.369 0 0 0 .515 0 .353.353 0 0 0 .107-.253v-5.582c0-1.225-.75-2.54-1.967-2.54h-.002l-1.61.035c-.205-.017-.393.304-.41.5-.02.196.1.37.3.388l1.572.143c.857 0 1.388.634 1.388 1.474v5.582c0 .095.038.186.107.253Z"/></svg>