<svg height="16" viewBox="0 0 18 16" width="18" xmlns="http://www.w3.org/2000/svg"><path d="m1.36968758 1.41369712c-1.82240339 1.88713606-1.82763828 4.91600804-.00734305 6.80457152l7.29122433 7.56632026c.1765175.1846507.51190548.1846507.68842298 0 2.43223206-2.5187081 4.85896766-5.0402524 7.29122336-7.55900736 1.8223797-1.88715716 1.8223797-4.91739092 0-6.8045598-1.8223797-1.88716185-4.8026393-1.88720404-6.625019 0l-1.0067088 1.03277135-1.00670875-1.04009597c-.98247667-1.02129572-2.19974152-1.41859715-3.31624074-1.41374184-1.20208131 0-2.39767231.47015505-3.30885033 1.41374184zm3.17108381-.72138943c.97707812 0 1.95928717.39945914 2.71817805 1.1987315l1.38963035 1.46767767c.18207517.19371256.52802288.19371256.71009805 0l1.38198276-1.45999349c1.5177818-1.59857669 3.9109503-1.59854227 5.428732 0 1.5177329 1.59854473 1.5177329 4.17995584 0 5.77848827-2.3895035 2.51669686-4.7801075 5.03690996-7.16958756 7.55355756l-7.16956414-7.56122944c-1.51673114-1.60051433-1.51775733-4.17999518 0-5.77850057.75886644-.7992699 1.73345238-1.1987315 2.71053049-1.1987315z" fill="#ff6687" stroke="#ff5785" stroke-width=".2"/></svg>