<svg xmlns="http://www.w3.org/2000/svg" viewBox="0 0 25 25">
  <path fill="currentColor" fill-rule="evenodd" d="M11.6199 15.3775v4.2318c.0816-.0102.1631-.0155.2423-.0206.0843-.0054.1659-.0107.2419-.0215l-1.179 2.0843C5.11432 21.483.44043 16.7039.44043 10.851.44043 4.89283 5.28275.0294533 11.2409.0715604c5.9792 0 10.8215 4.8633796 10.8215 10.8215396 0 1.5159-.3158 2.9686-.8842 4.2739l-.8842-1.5159c-.1474-.2737-.3369-.4842-.5264-.6947v-.0001c.1474-.6316.2527-1.3053.2527-1.9158h-3.4318c0 .4632-.0421 1.0527-.1052 1.6-.358.2527-.6527.5685-.9054.9896l-.5684.9895c.3369-1.2001.5474-2.5054.5474-3.6002h-3.937v3.3265c1.0737.0631 2.1053.2737 3.0949.6737l-.5053.9053c-.8422-.2947-1.6633-.4842-2.5896-.5474Zm4.9265-5.45287h3.4317c-.2105-2.02114-1.0947-3.78964-2.4001-5.15812-.5895.48423-1.179.9053-1.8316 1.24216.4421 1.26321.7158 2.52643.8 3.91596Zm-1.179-4.86337c.5053-.29475.9895-.61056 1.4527-.98952-.8632-.71582-1.8527-1.26321-2.9264-1.57902.5895.82109 1.0737 1.66323 1.4737 2.56854Zm-3.1708-2.93767c-.1719-.01671-.3176-.03089-.5767-.03089v4.00018c.9474-.06316 1.8948-.27369 2.8001-.6316-.5263-1.179-1.2211-2.29484-2.1054-3.32647-.0415-.00378-.0804-.00756-.118-.01122Zm2.6024 4.30615c-1.0317.40002-2.0843.63161-3.1791.69477v2.80012h3.9159c-.0842-1.24216-.3368-2.358-.7368-3.49489ZM6.65123 5.01915c.35791-.80004.75793-1.55796 1.26322-2.27379-.88425.35792-1.70534.8632-2.42116 1.51586v.00001c.37897.27369.75793.54739 1.15794.75792Zm-.40001.94741c-.50529-.2737-1.01058-.61055-1.49481-.98952-1.2211 1.32638-2.02114 3.09488-2.23168 4.94759h2.9054c.08421-1.38953.35791-2.6738.82109-3.95807Zm-.84215 5.05284H2.48263c.02105 2.0001.84214 4.1265 2.14746 5.6424.50529-.4 1.03163-.779 1.57902-1.0738-.50529-1.4737-.77898-3.0106-.80004-4.5686Zm1.179 5.495c-.42107.2316-.84214.5053-1.2211.8211.75792.6948 1.62112 1.2422 2.58959 1.6422-.5474-.779-.98952-1.6001-1.36849-2.4633Zm3.07382 2.9475c.31581.0632.56841.1053 1.03161.1263l.0211-4.2317c-1.09481.0421-2.14749.2737-3.15806.6947.52634 1.2211 1.20005 2.358 2.10535 3.4107Zm-2.48432-4.316c1.11584-.4632 2.27379-.7579 3.51593-.8l.0211-3.3265H6.4407c0 1.3896.27369 2.7791.73687 4.1265Zm-.71582-5.22127h4.23175V7.12451c-1.24214-.04211-2.37903-.29475-3.47382-.73688-.40002 1.15795-.67371 2.29484-.75793 3.537Zm1.13689-4.48441c.98952.40002 2.00009.63161 3.09486.67372V2.11376c-.4632.02105-.73685.06316-1.07371.12632-.84215.96846-1.51586 2.06325-2.02115 3.20014ZM19.3256 14.156l4.8213 8.3583c.3368.6105.4 1.2421.1052 1.7053-.2526.4632-.8.779-1.4948.779h-9.6214c-.6948 0-1.2211-.3158-1.4948-.779-.2737-.4632-.2316-1.0948.1263-1.7053l4.8212-8.3583c.3369-.6106.8422-.9474 1.3685-.9474.5264 0 1.0106.3368 1.3685.9474Zm3.4528 9.2741c.0053-.0158.0105-.0316.021-.0316 0-.021 0-.0632-.021-.0842l-4.8213-8.3793s-.021 0-.021-.0211c0 0-.0211.0211-.0211.0421l-4.8212 8.3793s-.0211.0422-.0211.0632c.0105 0 .0158.0158.0211.0316.0052.0158.0105.0316.021.0316h9.6425c.0106 0 .0158-.0158.0211-.0316Zm-4.8425-.8309c.4186 0 .758-.3393.758-.7579s-.3394-.7579-.758-.7579-.7579.3393-.7579.7579.3393.7579.7579.7579Zm-.8014-5.3058c-.0027-.0003-.0027-.0003.0015-.0003l1.4948.021v3.4317h-1.4316v-3.4106c0-.0337-.0539-.0404-.0647-.0418Z" clip-rule="evenodd"/>
</svg>
