<svg xmlns="http://www.w3.org/2000/svg" viewBox="0 0 32 32"><defs/><path fill="currentColor" d="M5 27H2v-3H0v8h2v-3h3v3h2v-8H5v3zM9 26h2v6h2v-6h2v-2H9v2zM17 26h2v6h2v-6h2v-2h-6v2zM29 24h-4v8h2v-2h2c.7956 0 1.5587-.3161 2.1213-.8787C31.6839 28.5587 32 27.7956 32 27c0-.7956-.3161-1.5587-.8787-2.1213C30.5587 24.3161 29.7956 24 29 24zm0 4h-2v-2h2c.2652 0 .5196.1054.7071.2929S30 26.7348 30 27c0 .2652-.1054.5196-.2929.7071S29.2652 28 29 28zM0 0v22h2V10h28v12h2V0H0zm30 8H2V2h28v6z"/><path fill="currentColor" d="M6 4H4v2h2V4zM10 4H8v2h2V4zM28 4H12v2h16V4z"/></svg>