<svg width="28" height="28" xmlns="http://www.w3.org/2000/svg"><g fill="none" fill-rule="evenodd" opacity=".6"><circle fill="#D0E2FF" cx="14" cy="14" r="14"/><path d="M16.488 6.533a4.977 4.977 0 00-4.977 4.978c0 .445.064.874.174 1.285l-5.152 5.151v3.519h3.52l5.151-5.151c.41.11.84.174 1.285.174a4.978 4.978 0 000-9.956zm-6.95 13.69l-1.76-.002v-1.759l4.426-4.426a4.997 4.997 0 001.76 1.76l-4.426 4.426zm6.95-4.979a3.733 3.733 0 110-7.466 3.732 3.732 0 013.734 3.733 3.732 3.732 0 01-3.734 3.733zm2.125-4.613a1.243 1.243 0 11-2.489 0 1.245 1.245 0 112.489 0z" fill="#0042A9" fill-rule="nonzero"/></g></svg>