<svg viewBox="0 0 14 11" xmlns="http://www.w3.org/2000/svg"><path d="m6.5702 0c.12833 0 .24316.051579.34447.11789l.0067544-.0073684 6.7544 4.4211c.18912.13263.32421.36105.32421.62632 0 .26526-.13509.49368-.33096.61895l.0067544.0073684-6.7544 4.4211-.0067544-.0073685c-.10132.066316-.21614.11789-.34447.11789-.37149 0-.67544-.33158-.67544-.73684v-8.8421c0-.40526.30395-.73684.67544-.73684zm-3.6228 0c.40526 0 .73684.33158.73684.73684v8.8421c0 .40526-.33158.73684-.73684.73684h-2.2105c-.40526 0-.73684-.33158-.73684-.73684v-8.8421c0-.40526.33158-.73684.73684-.73684z" fill="#4d5969" fill-rule="evenodd"/></svg>