<svg enable-background="new 0 0 14 14" viewBox="0 0 14 14" xmlns="http://www.w3.org/2000/svg"><path d="m7 0c-.3 0-.6.3-.6.6v3.4l-.5-.5c-.1-.1-.3-.2-.4-.2-.3 0-.5.2-.6.4s0 .5.1.7l2 1.9 1.9-1.9c.2-.2.3-.4.2-.6 0-.3-.2-.4-.4-.5s-.4 0-.6.2l-.5.5v-3.4c0-.2-.1-.3-.2-.4s-.2-.2-.4-.2zm-6.4 6.6c-.2 0-.4.1-.5.3s-.1.4 0 .6.3.3.5.3h12.8c.2 0 .4-.1.5-.3s.1-.4 0-.6-.3-.3-.5-.3zm6.4 1.6-.4.3s-.1.1-.1.1l-1.5 1.4c-.2.2-.2.4-.2.6s.2.4.4.4c.2.1.4 0 .6-.2l.5-.5v2.9c0 .2.1.4.3.5s.4.1.6 0 .3-.3.3-.5v-2.9l.6.7c.2.2.4.2.6.2s.4-.2.4-.4c.1-.2 0-.4-.2-.6l-1.4-1.5s-.1-.1-.1-.1z" fill="#4d5969"/></svg>