<svg enable-background="new 0 0 14 14" viewBox="0 0 14 14" xmlns="http://www.w3.org/2000/svg"><path d="m2.9 0c-.3 0-.6.3-.6.6v.6h-1.7c-.3 0-.6.2-.6.6v11.7c0 .2.3.5.6.5h12.2c.3 0 .6-.3.6-.6v-2.3c0-.1-.1-.2-.1-.3-.1-.1-.2-.1-.3 0s-.1.1-.1.3v2.3h-12.3v-8.7h12.2v2c0 .1.1.2.1.3h.4c.1-.1.1-.1.1-.3v-5c0-.3-.3-.6-.6-.6h-1.8v-.5c0-.3-.3-.6-.6-.6h-.5c-.3 0-.6.3-.6.6v.6h-5.2v-.6c0-.3-.3-.6-.6-.6zm0 .6h.6v1.8h-.6v-.9-.1zm7 0h.6v.8.1.8h-.6zm-9.3 1.2h1.8v.6c0 .3.3.6.6.6h.6c.3 0 .6-.3.6-.6v-.6h5.2v.6c0 .3.3.6.6.6h.6c.3 0 .6-.3.6-.6v-.6h1.8v2.3h-12.4zm10.7 4.7c-.1 0-.2.1-.3.2s0 .2.1.3l1.3 1.4h-5.1c-.1.1-.2.1-.3.2v.3c.1.1.2.1.3.1h5.2l-1.4 1.5c-.1.1-.1.3 0 .4s.3.1.4 0l2-2.1-2-2.1c-.1-.1-.2-.2-.2-.2z" fill="#4d5969"/></svg>