<svg enable-background="new 0 0 13 14" viewBox="0 0 13 14" xmlns="http://www.w3.org/2000/svg"><path d="m2.2 1.4h1.7c.4 0 .7-.3.7-.7s-.3-.7-.7-.7h-3.3c-.3 0-.6.3-.6.7v3.5c0 .4.3.7.6.7s.6-.3.6-.7v-1.8l3.4 3.7c.3.1.4.2.6.2.4 0 .7-.3.7-.7 0-.2-.1-.4-.2-.5zm3 6.3c-.2 0-.3.1-.5.2l-3.4 3.7v-1.8c0-.4-.3-.7-.6-.7s-.7.3-.7.7v3.5c0 .4.3.7.6.7h3.2c.4 0 .7-.3.7-.7s-.3-.7-.7-.7h-1.6l3.4-3.7c.1-.1.2-.3.2-.5 0-.4-.2-.7-.6-.7zm7.2-7.7h-3.3c-.4 0-.7.3-.7.7s.3.7.7.7h1.7l-3.5 3.7c-.1.1-.1.3-.1.5 0 .4.3.7.7.7.2 0 .3-.1.5-.2l3.4-3.7v1.8c0 .4.3.7.7.7s.5-.3.5-.7v-3.5c0-.4-.3-.7-.6-.7zm0 9.1c-.4 0-.7.3-.7.7v1.8l-3.4-3.7c-.2-.1-.3-.2-.5-.2-.4 0-.6.3-.6.7 0 .2.1.4.2.5l3.4 3.7h-1.7c-.4 0-.7.3-.7.7s.3.7.7.7h3.2c.4 0 .6-.3.6-.7v-3.5c.1-.4-.2-.7-.5-.7z" fill="#4d5969"/></svg>