<svg enable-background="new 0 0 14 14" viewBox="0 0 14 14" xmlns="http://www.w3.org/2000/svg"><path d="m6.9 0c-.2 0-.3.2-.3.3v1.9c0 .1.1.2.2.3s.2.1.3 0 .2-.2.2-.3v-1.9c0-.1 0-.2-.1-.3-.1 0-.2 0-.3 0zm-4.7 1.9c-.1 0-.2.1-.2.2s0 .3.1.3l1.4 1.3c.1.1.2.1.3.1s.2-.1.2-.2 0-.3-.1-.3l-1.3-1.4c-.1 0-.2 0-.4 0zm9.3 0c-.1 0-.1 0-.2.1l-1.4 1.3c-.1.1-.1.2-.1.3s.1.2.3.3c.1 0 .3 0 .3-.1l1.4-1.3c.1-.1.1-.3.1-.4-.1-.2-.3-.2-.4-.2zm-4.6 1.6c-.1 0-.1 0 0 0-1.9.1-3.3 1.5-3.3 3.2 0 1.8 1.5 3.2 3.3 3.2s3.3-1.4 3.3-3.2c0-1.7-1.4-3.1-3.1-3.2-.1 0-.1 0-.2 0zm0 .6c1.5 0 2.6 1.1 2.6 2.5s-1.2 2.6-2.6 2.6-2.6-1.1-2.6-2.5 1.1-2.6 2.6-2.6zm-6.6 2.3c-.2 0-.3.2-.3.3 0 .2.2.3.4.3h2c.1 0 .2-.1.3-.2s.1-.2 0-.3-.2-.1-.4-.1zm11.1 0c-.2 0-.3.2-.3.3 0 .2.2.3.4.3h2c.1 0 .2-.1.3-.2s.1-.2 0-.3c0-.1-.1-.2-.3-.2h-2.1zm-7.8 3.1c-.1 0-.1 0-.2.1l-1.3 1.4c-.1 0-.1.1-.1.3 0 .1.1.2.3.3s.3 0 .3-.1l1.4-1.3c0-.2.1-.3 0-.5-.1-.1-.2-.2-.4-.2zm6.5 0c-.1 0-.2.1-.3.2 0 .1 0 .3.1.3l1.4 1.3c.1.1.2.1.3.1s.2-.1.3-.3 0-.3-.1-.3l-1.4-1.3c-.1 0-.1 0-.3 0zm-3.2 1.3c-.2 0-.3.2-.3.3v1.9c0 .1.1.2.2.3s.2.1.3 0 .2-.2.2-.3v-1.9c0-.1 0-.2-.1-.3-.1 0-.2 0-.3 0z" fill="#4d5969"/></svg>