<svg fill="none" xmlns="http://www.w3.org/2000/svg" viewBox="0 0 25 31"><path d="M18.185 18.833a3.13 3.13 0 00-1.05-2.342 6.794 6.794 0 00-1.546-1.03 3.61 3.61 0 00.537-1.899 3.637 3.637 0 00-3.633-3.632 3.637 3.637 0 00-3.632 3.633c0 .695.196 1.345.537 1.898a6.79 6.79 0 00-1.546 1.03 3.129 3.129 0 00-1.05 2.342v.605a1.21 1.21 0 102.422 0v-.605c0-.205.085-.397.234-.53.57-.505 1.56-1.108 3.035-1.108 1.476 0 2.465.603 3.036 1.109a.706.706 0 01.234.529v.605a1.21 1.21 0 102.422 0v-.605zm-6.903-5.27c0-.668.543-1.211 1.211-1.211s1.211.543 1.211 1.21c0 .668-.543 1.211-1.21 1.211a1.212 1.212 0 01-1.212-1.21zm6.903 10.72c0 .668-.543 1.21-1.211 1.21H8.013a1.21 1.21 0 110-2.422h8.96c.67 0 1.212.542 1.212 1.211zm5.389-2.91a1.21 1.21 0 001.21-1.21V7.87a4.85 4.85 0 00-4.843-4.844h-3.866A3.638 3.638 0 0012.493 0a3.638 3.638 0 00-3.581 3.027h-3.86A4.85 4.85 0 00.21 7.871v18.285A4.85 4.85 0 005.053 31H19.94a4.85 4.85 0 004.843-4.844 1.211 1.211 0 00-2.421 0 2.425 2.425 0 01-2.422 2.422H5.053a2.425 2.425 0 01-2.422-2.422V7.871A2.425 2.425 0 015.053 5.45h4.261a3.635 3.635 0 003.18 1.877 3.635 3.635 0 003.178-1.877h4.269a2.425 2.425 0 012.422 2.422v12.291c0 .669.542 1.211 1.21 1.211zM12.493 4.904a1.212 1.212 0 01-1.212-1.21v-.061c0-.668.543-1.211 1.211-1.211s1.211.543 1.211 1.21v.061c0 .668-.543 1.211-1.21 1.211z" fill="#FF7B26"/></svg>