<svg viewBox="0 0 24 24" xmlns="http://www.w3.org/2000/svg"><g fill="none"><path d="m0 0h24v24h-24z" fill="#000" opacity="0"/><path d="m11.5 2c-5.79898987 0-10.5 4.70101013-10.5 10.5 0 5.7989899 4.70101013 10.5 10.5 10.5 5.7989899 0 10.5-4.7010101 10.5-10.5 0-5.79898987-4.7010101-10.5-10.5-10.5zm0 3.1514847c1.7405219 0 3.1514936 1.41098064 3.1514936 3.1515025 0 1.7405219-1.4109717 3.1514936-3.1514936 3.1514936-1.74052185 0-3.1515025-1.4109717-3.1515025-3.1514936-.00198025-.83643629.32941235-1.63918727.92086379-2.23063871s1.39420241-.92284405 2.23063871-.92086379zm0 14.9359975c-2.53280785-.001505-4.89646843-1.2716571-6.2955192-3.3830014 0-2.0910384 4.1970128-3.2336415 6.2955192-3.2336415s6.2656472 1.1426031 6.2955192 3.2336415c-1.4059055 2.0999721-3.7683812 3.3582777-6.2955192 3.3531294z" fill="#747d88"/></g></svg>