<svg viewBox="0 0 27 27" xmlns="http://www.w3.org/2000/svg" xmlns:xlink="http://www.w3.org/1999/xlink"><filter id="a"><feColorMatrix in="SourceGraphic" type="matrix" values="0 0 0 0 1.000000 0 0 0 0 1.000000 0 0 0 0 1.000000 0 0 0 1.000000 0"/></filter><g fill="none" fill-rule="evenodd" filter="url(#a)"><path d="m22 0c2.7614237 0 5 2.23857625 5 5v17c0 2.7614237-2.2385763 5-5 5h-17c-2.76142375 0-5-2.2385763-5-5v-17c0-2.76142375 2.23857625-5 5-5zm-1 1h-15c-2.76142375 0-5 2.23857625-5 5v15c0 2.7614237 2.23857625 5 5 5h15c2.7614237 0 5-2.2385763 5-5v-15c0-2.76142375-2.2385763-5-5-5z" fill="#cdcaca" opacity=".5"/><path d="m13.656 8h5.344v4h-5.344zm0 12v-6.656h5.344v6.656zm-6.656 0v-4h5.344v4zm0-5.344v-6.656h5.344v6.656z" fill="#fff" fill-rule="nonzero"/></g></svg>