<svg viewBox="0 0 16 16" xmlns="http://www.w3.org/2000/svg" xmlns:xlink="http://www.w3.org/1999/xlink"><filter id="a"><feColorMatrix in="SourceGraphic" type="matrix" values="0 0 0 0 1.000000 0 0 0 0 1.000000 0 0 0 0 1.000000 0 0 0 1.000000 0"/></filter><filter id="b"><feColorMatrix in="SourceGraphic" type="matrix" values="0 0 0 0 1.000000 0 0 0 0 1.000000 0 0 0 0 1.000000 0 0 0 1.000000 0"/></filter><g fill="none" fill-rule="evenodd" filter="url(#a)" opacity=".6" transform="translate(-755 -233)"><g filter="url(#b)" transform="translate(755 233)"><g fill-rule="nonzero"><path d="m0 0h16v16h-16z" fill="#000" opacity="0"/><g fill="#dbdbdb"><path d="m14.3744 11.0336-1.8112-3.1424c-.0832-.1472-.2432-.2432-.416-.2432h-3.6224c-.1728 0-.3328.0896-.416.2432l-1.8112 3.1424c-.0832.1472-.0832.3328 0 .48l1.8112 3.1424c.0832.1472.2432.2432.416.2432h3.6224c.1728 0 .3328-.0896.416-.2432l1.8112-3.1424c.0896-.1472.0896-.3264 0-.48zm-2.5024 2.9056h-3.072l-1.536-2.6624 1.536-2.6624h3.072l1.536 2.6624z"/><path d="m10.3744 9.7472c-.8448 0-1.5296.6848-1.5296 1.5296s.6848 1.5296 1.5296 1.5296 1.5296-.6848 1.5296-1.5296-.6912-1.5296-1.5296-1.5296zm0 2.0928c-.3136 0-.5696-.256-.5696-.5696s.256-.5696.5696-.5696.5696.256.5696.5696-.256.5696-.5696.5696z"/><path d="m6.4576 13.9392h-3.7952c-.0832 0-.1472-.064-.1472-.1472v-11.584c0-.0832.064-.1472.1472-.1472h7.0016l2.5344 2.5344v1.9968c0 .2624.2176.48.48.48s.48-.2176.48-.48v-2.1888c0-.128-.0512-.2496-.1408-.3392l-2.816-2.816c-.0896-.0896-.2112-.1408-.3392-.1408h-7.2c-.608 0-1.1072.4992-1.1072 1.1072v11.5776c0 .608.4992 1.1072 1.1072 1.1072h3.7952c.2624 0 .48-.2176.48-.48s-.2176-.48-.48-.48z"/></g><path d="m10.4384 5.0112c0-.2624-.2176-.48-.48-.48h-5.76c-.2624 0-.48.2176-.48.48s.2176.48.48.48h5.76c.2688 0 .48-.2176.48-.48zm-6.24 2.656c-.2624 0-.48.2176-.48.48s.2176.48.48.48h2.304c.2624 0 .48-.2176.48-.48s-.2176-.48-.48-.48z" fill="#d2d2d2"/></g></g></g></svg>