<svg viewBox="0 0 16 16" xmlns="http://www.w3.org/2000/svg" xmlns:xlink="http://www.w3.org/1999/xlink"><filter id="a"><feColorMatrix in="SourceGraphic" type="matrix" values="0 0 0 0 1.000000 0 0 0 0 1.000000 0 0 0 0 1.000000 0 0 0 1.000000 0"/></filter><filter id="b"><feColorMatrix in="SourceGraphic" type="matrix" values="0 0 0 0 0.453512 0 0 0 0 0.490089 0 0 0 0 0.533316 0 0 0 1.000000 0"/></filter><g fill="none" fill-rule="evenodd" filter="url(#a)" opacity=".6" transform="translate(-418 -547)"><g filter="url(#b)" transform="translate(418 547)"><g fill-rule="nonzero"><path d="m0 0h16v16h-16z" fill="#000" opacity="0"/><path d="m14 9.0176v-6.692l-6.0004-1.30226667-5.9996 1.30226667v6.6928c0 2.3973333 1.91906667 4.3753333 5.9996 5.9156 4.0810667-1.5402667 6.0004-3.5186667 6.0004-5.9164zm-13 .0008v-7.49906667l6.9996-1.51933333 7.0004 1.51933333v7.49826667c0 2.9697333-2.3334667 5.2972-7.0004 6.9824-4.6664-1.6853333-6.9996-4.0124-6.9996-6.9816zm4.4116-3.1344-.8232.56786667 2.292 3.3232 4.4710667-4.41946667-.7029334-.7112-3.6225333 3.58053333z" fill="#dbdbdb"/></g></g></g></svg>