<svg viewBox="0 0 31 13" xmlns="http://www.w3.org/2000/svg"><path clip-rule="evenodd" d="m19.5333.32723c-.3967-.436307-1.0829-.436306-1.4797 0l-2.0663 2.27231h-1.3033v-.63281c0-.55228-.4477-.999998-1-.999998h-4.52629c-.55228 0-1 .447718-1 .999998v.63281h-1.63134v.81579h1.63134v.63035c0 .55228.44772 1 1 1h4.52629c.5523 0 1-.44772 1-1v-.63035h1.1311l2.2385 2.46171c.3968.43631 1.083.43631 1.4797 0l2.2385-2.46171h2.7018v.63035c0 .55228.4477 1 1 1h4.5263c.5523 0 1-.44772 1-1v-2.07895c0-.55228-.4477-.999998-.9999-.999998h-4.5264c-.5523 0-1 .447718-1 .999998v.63281h-2.874zm-19.5333 1.6395c0-.55228.447715-.999998 1-.999998h4.52632c.55228 0 1 .447718 1 .999998v2.07895c0 .55228-.44772 1-1 1h-4.526321c-.552285 0-.999999-.44772-.999999-1zm18.0912-.64445c.3906-.390527 1.0237-.390528 1.4142 0l1.1817 1.18161c.3905.39052.3905 1.02369 0 1.41421l-1.1817 1.18162c-.3905.39052-1.0236.39052-1.4142 0l-1.1816-1.18162c-.3905-.39052-.3905-1.02369 0-1.41421zm-16.27528.46086c-.55229 0-1.000002.44771-1.000002 1v.44737c0 .55228.447712 1 1.000002 1h2.89474c.55228 0 1-.44772 1-1v-.44737c0-.55229-.44772-1-1-1h-2.89474zm7.15771 1c0-.55229.44772-1 1-1h2.89477c.5523 0 1 .44771 1 1v.44737c0 .55228-.4477 1-1 1h-2.89477c-.55228 0-1-.44772-1-1zm17.31597-1c-.5523 0-1 .44771-1 1v.44737c0 .55228.4477 1 1 1h2.8947c.5523 0 1-.44772 1-1v-.44737c0-.55229-.4477-1-1-1zm-17.1314 6.52545c-.55228 0-1 .44772-1 1v2.07891c0 .5523.44772 1 1 1h4.5263c.5523 0 1-.4477 1-1v-2.07891c0-.55228-.4477-1-1-1zm.81543.8125c-.55228 0-1 .44772-1 1.00001v.4474c0 .5522.44772 1 1 1h2.89477c.5523 0 1-.4478 1-1v-.4474c0-.55229-.4477-1.00001-1-1.00001z" fill-rule="evenodd"/></svg>