<svg viewBox="0 0 23 23" xmlns="http://www.w3.org/2000/svg"><path d="m18.491 20.516h-16.015v-16.16h10.231v-.898h-11.12v17.956h17.793v-11.222h-.89v10.324zm2.66-16.762-1.887-1.905a.884.884 0 0 0 -1.257 0l-11.505 11.608c.039-.039-.26.282-.412.598l-1.94 4.597c-.05.15.032.231.183.181l4.742-1.81c.31-.126.582-.402.573-.392l11.504-11.609a.899.899 0 0 0 0-1.268zm-15.513 13.59 1.494-3.253 1.888 1.905zm4.01-1.982-1.888-1.905 9.172-9.255 1.888 1.905zm9.802-9.892-1.89-1.905 1.075-1.084 1.888 1.905z" fill="#f80"/></svg>