<svg viewBox="0 0 24 24" xmlns="http://www.w3.org/2000/svg" xmlns:xlink="http://www.w3.org/1999/xlink"><filter id="a"><feColorMatrix in="SourceGraphic" type="matrix" values="0 0 0 0 0.453512 0 0 0 0 0.490089 0 0 0 0 0.533316 0 0 0 1.000000 0"/></filter><g fill="none" fill-rule="evenodd" filter="url(#a)"><path d="m12 0c6.627417 0 12 5.372583 12 12s-5.372583 12-12 12-12-5.372583-12-12 5.372583-12 12-12zm2.8591304 8.82221824c-.1713465 0-.333091.08074129-.4382608.21877554l-2.9217392 3.85341612c-.069317.0881633-.1741004.1394611-.2848695.1394611-.1107692 0-.2155525-.0512978-.2848696-.1394611l-1.59965216-1.9826087c-.10397561-.1322448-.2611506-.2091915-.42730435-.2091915s-.32332873.0769467-.42730435.2091915l-3.10434783 4.0919255c-.09895029.1300993-.15288889.2899756-.15339131.4546584v.6782609c.00393399.3070524.24691467.5549919.54782609.5590062h13.51304351c.3009114-.0040143.5438921-.2519538.5478261-.5590062v-.6857143c0-.1612698-.0512604-.3181892-.146087-.447205l-4.3826087-5.96273292c-.1051698-.13803425-.2669144-.21877554-.4382609-.21877554zm-5.2591304-2.56134867c-.80681598 0-1.46086956.66740161-1.46086956 1.49068322s.65405358 1.49068322 1.46086956 1.49068322c.806816 0 1.4608696-.66740161 1.4608696-1.49068322s-.6540536-1.49068322-1.4608696-1.49068322z" fill="#d8d8d8"/></g></svg>