<svg xmlns="http://www.w3.org/2000/svg" viewBox="0 0 32 31"><defs/><path fill="currentColor" d="M6.63102 30.2888c-1.19786 0-2.73797-.1712-4.62032-.4278h-.04279c-.04278 0-.17112-.0428-.4278-.0428-.25669-.0428-.42781-.0428-.556153-.0856l-.171123-.0428H.0427809L0 28.877V9.28342h6.80214c.55615 0 1.45455 0 1.71123-.08556.25668-.2139.25668-.2139.25668-.59893v-.08556c0-.08557-.04278-.25669-.17112-.55615-.17112-.29947-.34225-.59893-.55615-.85562-.25668-.34224-.51337-.81283-.72727-1.36898-.21391-.55615-.34225-1.19786-.34225-1.79679 0-1.24064.47059-2.26738 1.41177-2.951873C9.24064.342246 10.3102 0 11.508 0c1.1551 0 2.1391.342246 2.9519.983957.8556.684493 1.2834 1.668453 1.2834 2.866313 0 .59893-.1283 1.19786-.385 1.75401-.2567.51337-.5134.94117-.8128 1.28342-.2139.2139-.3851.51337-.5562.85561-.1711.29947-.2139.59893-.2139.94118 0 .47059.2567.64171.4278.64171h7.9572V16c0 .6845.0428 1.3262.2995 1.5829.385.385.7273.5989 1.0267.5989.0856 0 .2567-.0428.5562-.1711.2994-.1711.5989-.3423.8556-.5562.3422-.2566.8128-.5133 1.369-.7272.5561-.2139 1.1978-.3423 1.7968-.3423 1.2406 0 2.2674.4706 2.9518 1.4118.6418.8556.984 1.9251.984 3.123 0 1.1551-.3422 2.1818-.984 2.9946-.6844.8556-1.6684 1.2835-2.8663 1.2835-.5989 0-1.1978-.1284-1.754-.3851-.5133-.2567-.9412-.5133-1.2834-.8128-.2139-.2139-.5134-.385-.8556-.5562-.2995-.1711-.5989-.2139-.9412-.2139-.6417 0-1.1979.1284-1.1979 1.4546v4.9198l-2.8663.4278c-.2994.0428-.5561.0855-.77.1283-.3423.0428-.6417.0856-1.0268.1284-.6417.0427-1.2834.0855-1.8823.0855-.8984 0-1.6685-.2139-2.3102-.5989-.5133-.3422-1.155-.984-1.155-2.2246 0-.5989.1283-1.1551.4278-1.6685.2566-.4705.5133-.8983.8128-1.1978.2139-.2139.385-.5134.5561-.8984.1712-.3423.2567-.6845.2567-1.0695 0-.7273-.2139-1.2407-.6845-1.6257-.5133-.4278-1.155-.6417-1.9679-.6417-.8556 0-1.54009.2139-2.13902.6845-.51336.385-.77005.9412-.77005 1.7112 0 .4278.08556.8556.2139 1.2407.17113.4278.34225.7272.51337.9839.25669.3423.47059.6845.6845 1.0695.2567.4706.385.8984.385 1.2835 0 .77-.385 1.4973-1.0695 2.2246-.59893.385-1.49732.6417-2.69518.6417zm-4.32086-2.0107c1.75401.2994 3.20856.4278 4.32086.4278.72727 0 1.28342-.1284 1.58288-.4278.38503-.3851.59893-.7273.59893-1.0268 0-.0855-.04278-.2567-.17112-.5561-.17112-.2995-.34224-.5989-.55615-.8556-.25668-.3423-.51337-.8129-.72727-1.369-.2139-.5562-.34225-1.1979-.34225-1.7968 0-1.2407.47059-2.2674 1.41177-2.9519.85561-.6417 1.92509-.9839 3.12299-.9839 1.1551 0 2.1818.3422 2.9947.9839.8556.6845 1.2834 1.6685 1.2834 2.8663 0 .599-.1284 1.1979-.3851 1.754-.2566.5134-.5133.9412-.8128 1.2835-.2139.2139-.385.5133-.5561.8556-.1712.2994-.2139.5989-.2139.9412 0 .5133.2139.7272.385.8556.385.2567.8556.3422 1.4545.3422.5134 0 1.1123-.0428 1.7113-.0855.3422-.0428.5989-.0856.9411-.1284.2139-.0428.4706-.0855.8129-.1283l1.4973-.2139v-3.5508c0-1.9679 1.0267-3.0802 2.7808-3.0802.5561 0 1.155.1283 1.6684.4278.4706.2566.8984.5133 1.1979.8128.2139.2139.5133.385.8984.5561.3422.1712.6844.2567 1.0695.2567.7272 0 1.2406-.2139 1.6256-.6845.4279-.5133.6418-1.155.6418-1.9679 0-.8556-.2139-1.5401-.6845-2.139-.3851-.5134-.9412-.7701-1.7113-.7701-.4278 0-.8556.0856-1.2406.2139-.4278.1712-.7273.3423-.984.5134-.3422.2567-.6845.4706-1.0695.6845-.4706.2567-.8984.385-1.2834.385-.7701 0-1.4973-.385-2.2246-1.0695-.6845-.7273-.7273-1.7112-.7273-2.6952v-5.0909h-6.4171c-.9839 0-2.0535-.8128-2.0535-2.22459 0-.59893.1284-1.15508.4278-1.66845.2567-.47059.5134-.89839.8129-1.19786.2139-.2139.385-.51337.5561-.8984.1711-.34224.2567-.68449.2567-1.06951 0-.72728-.2139-1.24065-.6845-1.62567-.5134-.42781-1.1551-.64171-1.9251-.64171-.8556 0-1.5829.2139-2.13905.68449-.51337.38503-.77006.94117-.77006 1.71123 0 .42781.08556.85561.21391 1.24064.17112.42781.34224.72727.51336.98396.25669.34224.47059.68449.68454 1.06952.2566.47058.385.89839.385 1.28342v.08556c0 .68449-.0428 1.24064-.85563 1.88237-.51337.4278-1.36899.4278-2.73797.4278H1.62567v17.2834h.12834c.25669.0428.42781.0428.55615.0856z"/></svg>