<svg height="46" viewBox="0 0 46 46" width="46" xmlns="http://www.w3.org/2000/svg"><g fill="none" fill-rule="evenodd"><circle cx="23" cy="23" fill="#d4ecfc" r="23"/><path d="m27.7496837 17.1162572h-.2905209-.0549635c-.0209384 0-.0444942-.0025688-.0654326-.0025688-.0314077-.0077062-.0628154-.0128437-.0942231-.02055-.026173-.0077063-.1413345-.030825-.0680499-.02055.0078519 0 .0157038.0025687.0209384.0025687-.0104692-.0025687-.026173-.0077062-.0366423-.0128437-.026173-.0128438-.0497288-.0256876-.0759018-.0411001-.007852-.0051375-.0235558-.0154125-.0392596-.0256876-.0052346-.0077062-.0706673-.0590813-.0837538-.0693563-.0052346-.0051375-.0287904-.0256876-.0497288-.0462376-.0026174-.0051375-.0052347-.010275-.0104693-.0154125-.0026173-.0051375-.0052346-.010275-.0078519-.0154125-.0104692-.0128438-.0183211-.0282563-.0287904-.0411001-.0052346-.0077063-.026173-.0411001-.0418769-.0693564-.0026173-.0051375-.0052346-.0128438-.0078519-.0231188-.0026173-.0128437-.0078519-.0231188-.0130865-.0359625-.0026173-.0051375-.0026173-.0077063-.0052346-.0128438-.0104692-.030825 0-.0616501-.0261731-.0924751v-.0333939c-.0026173-.0128437-.0052346-.02055-.0052346-.0256875 0 .0025688.0026173.0128438.0052346.02055 0-.0179812-.0026173-.0333938-.0026173-.0436688 0-.0436688 0-.0847689.0026173-.1284377v-.0385313-2.5225166c0-.3467819.0052346-.6935637.0078519-1.0403455.4056825.3981569.8087477.7937451 1.2144301 1.191902 1.0730956 1.0531892 2.1488084 2.1089472 3.221904 3.1621364zm1.3008012 13.3832094h-12.1024239c-.2931383 0-.5103747-.2363254-.5234612-.5137508-.0130866-.2774255.2486441-.5137509.5234612-.5137509h.8165995v-4.7984328c0-.1412815-.0183211-.313388.0497289-.4443945.162273-.3159568.5627208-.2543067.8610937-.2543067h1.1071205c.1125442 0 .2277057.0025688.3402498.0051375.0130866 0 .0287904 0 .0418769.0025688.007852 0 .0157039.0025687.0235558.0025687s.0157038.0025688.0235558.0025688c.0052346 0 .0104692.0025688.0157038.0025688.0130865.0025687.0261731.0051375.0392596.010275h.0026173c.0183211.0051375.0366423.0128437.0549634.02055.1308653.0565126.2224711.166969.2617306.313388.007852.0231188.0209385.0513751.0235558.0796314 0 .0051375.0026173.0077063.0026173.010275v.0025688c0 .0077062 0 .0154125.0026173.0256875 0 .0025688-.0026173.0051375-.0026173.0077063v5.0090707h1.0730956v-.0282563c0-.0436688.0052346-.0899064.0052346-.1335752 0-.0462376.0026173-.0924752.0026173-.1387128.0026173-.1387127.0078519-.2774254.0104692-.4135694 0-.0385313.0026173-.0796314.0026173-.1181627 0-.0333938 0-.0642188.0026173-.0976126v-.0282563-.0308251-.030825-.0179813-.0462376-.0462376-6.7378423c0-.0642188-.0052346-.1258689-.0052346-.1900878 0-.0231188.0026173-.0488063.0052346-.0719251.0026173-.0154125.0052346-.0282563.0078519-.0411001.0052346-.0179812.0104693-.0359625.0157039-.0539438.0026173-.0051375.0052346-.0128438.0078519-.0179813s.0052346-.010275.0078519-.0154125c.0078519-.0154125.0157038-.0308251.0235558-.0462376.0026173-.0025687.0026173-.0077062.0052346-.010275.0052346-.0077063.0104692-.0179813.0183211-.0256875.0706673-.0976127.1805941-.1644003.3166941-.1823816.0130865-.0025687.0287903-.0025687.0444942-.0051375.0471115-.0025687.0968403-.0051375.1439518-.0051375h.034025c.2643479-.0051375.5286958.0025688.7930438.0077063h.0863711.0994576.6543266c.0392596 0 .0759018-.0051375.1151614-.0025688.0497289.0025688.0968404.010275.1387173.0256876.0026173 0 .0078519.0025687.0104692.0025687.034025.010275.0628153.0256875.0916057.0436688.0104692.0077063.0209385.0128438.0287904.0205501.0104692.0077062.0183211.0154125.0287903.0231187.0052347.0051376.007852.0077063.0130866.0128438s.0078519.0077063.0130865.0128438c.0157038.0179813.0314077.0359625.0444942.0565126.0026173.0051375.0078519.010275.0104692.0154125.0104693.0154125.0183212.0308251.0261731.0488063.0026173.0051375.0052346.0102751.0078519.0179813.0104692.0231188.0183212.0462376.0235558.0719251.0026173.0077063.0052346.0179813.0078519.0256876.0026173.0051375.0026173.0128437.0052346.0179813.0026173.0154125.0052346.030825.0052346.0488063v.0333938 8.0530444h1.1097379c0-.3288005.0157038-.657601.0157038-.9864016v-5.7154781c0-.0642188-.0052346-.125869.0130865-.1900878.0706673-.2517379.2983729-.3262318.5339305-.3262318h1.7614471c.1570383 0 .2931383.0462376.3873613.1387127.0130865.0128438.0261731.0282563.0392596.0436689.0183211.0231187.034025.0488063.0471115.0770626s.0235557.0590813.034025.0899064c.0078519.02055.0104692.0411.0130865.0642188v.0256876.0333938 6.7455485h.5548689c.2931383 0 .5103747.2363254.5234613.5137509.0130865.2774254-.2486441.5137508-.520844.5137508zm3.9468978-13.1083527c.0078519-.0513751-.0052346-.1078877-.0392596-.1592628-.0026173-.0025687-.0052346-.0077062-.0078519-.010275-.0026173-.0025687-.0052346-.0077063-.0078519-.010275-.0026173-.0025688-.0052346-.0077063-.007852-.010275-.0026173-.0025688-.0052346-.0051375-.0078519-.0077063 0 0 0-.0025687-.0026173-.0025687-.256496-.251738-.512992-.5034759-.7668707-.752645-.5915112-.5831072-1.1856397-1.1636457-1.7771509-1.7441841-.6674131-.6550324-1.3322089-1.3074959-1.9970047-1.9625282-.4763497-.4675133-.9526994-.9350266-1.4290491-1.4025398-.0837538-.0822002-.1648903-.1695378-.2538787-.2491692-.102075-.0924752-.2146192-.0770626-.3376325-.0770626h-11.3460225c-.4397074 0-.8820322-.0385313-1.28248.1798128-.4554113.2517379-.7276111.7320949-.7328458 1.2407082v.1900879 20.8428716c0 .0436688-.0026173.0847689 0 .1284377.007852.7064074.5443997 1.3074959 1.2589243 1.3974023.2407922.0308251.4920536.0128438.7354631.0128438h16.0728774c.3036075 0 .6386227.0282563.9291437-.0667876.5941285-.1926566.9945764-.7346637 1.0024283-1.348596v-.2055003-15.9827887z" fill="#25a6f7"/></g></svg>