<svg enable-background="new 0 0 38 38" viewBox="0 0 38 38" xmlns="http://www.w3.org/2000/svg"><g transform="translate(1 1)"><circle cx="18" cy="18" fill="#f7fcff" r="18" stroke="#d4ecfc"/><path d="m26.1 16.2h-2.1c-.1-.4-.3-.8-.5-1.2l1.5-1.5c.4-.4.4-.9 0-1.3l-1.2-1.2c-.4-.4-.9-.4-1.3 0l-1.5 1.5c-.4-.2-.8-.4-1.2-.5v-2.1c0-.5-.4-.9-.9-.9h-1.8c-.5 0-.9.4-.9.9v2.1c-.4.1-.8.3-1.2.5l-1.5-1.5c-.3-.3-.9-.3-1.2 0l-1.2 1.2c-.3.3-.3.9 0 1.2l1.5 1.5c-.2.4-.4.8-.5 1.2h-2.2c-.5 0-.9.4-.9.9v1.8c0 .5.4.9.9.9h2.1c.1.4.3.8.5 1.2l-1.5 1.6c-.4.4-.4.9 0 1.3l1.3 1.3c.4.4.9.4 1.3 0l1.5-1.5c.4.2.8.4 1.2.5v2.1c0 .5.4.9.9.9h1.8c.5 0 .9-.4.9-.9v-2.2c.4-.1.8-.3 1.2-.5l1.5 1.5c.3.3.9.3 1.2 0l1.2-1.2c.3-.3.3-.9 0-1.2l-1.5-1.6c.2-.4.4-.8.5-1.2h2.1c.5 0 .9-.4.9-.9v-1.8c0-.5-.4-.9-.9-.9zm-8.1 5.4c-2 0-3.6-1.6-3.6-3.6s1.6-3.6 3.6-3.6 3.6 1.6 3.6 3.6-1.6 3.6-3.6 3.6z" fill="#25a6f7"/></g></svg>