<svg fill="none" viewBox="0 0 19 17" xmlns="http://www.w3.org/2000/svg"><path d="m9.88 12.219c1.145 0 2.351-.493 3.1-1.24l2.478 2.48-2.479-2.48c.724-.711 1.24-2.05 1.24-3.099a4.339 4.339 0 1 0 -4.339 4.34z" stroke="#383946" stroke-linecap="round" stroke-linejoin="round"/><path d="m7.778 15.583h-7.556c-.122 0-.222-.186-.222-.416s.1-.417.222-.417h7.556c.122 0 .222.187.222.417s-.1.416-.222.416zm-4-4.167h-3.556c-.122 0-.222-.187-.222-.417s.1-.417.222-.417h3.556c.122 0 .222.187.222.417s-.1.417-.222.417zm-.992-4.583h-2.572c-.118 0-.214-.186-.214-.416s.096-.417.214-.417h2.572c.118 0 .214.187.214.417s-.096.416-.214.416z" fill="#383946"/></svg>