<svg viewBox="0 0 16 16" fill="none" xmlns="http://www.w3.org/2000/svg"><path d="M14.623 1.246A1.716 1.716 0 0 0 12.01 3.45L9.973 5.489a2.219 2.219 0 0 0-2.628.065L5.915 4.12a1.324 1.324 0 1 0-.462.464L6.89 6.023c-.213.297-.355.649-.4 1.03H4.273a1.715 1.715 0 1 0-.005.654h2.24a2.235 2.235 0 0 0 1.879 1.819v2.328a1.716 1.716 0 1 0 .654.008V9.523a2.233 2.233 0 0 0 1.892-2.204c0-.522-.18-1.003-.483-1.384l2.033-2.033a1.716 1.716 0 0 0 2.14-2.656Zm-5.92 7.628A1.556 1.556 0 0 1 7.15 7.319c0-.857.697-1.554 1.554-1.554.858 0 1.555.697 1.555 1.554 0 .857-.698 1.555-1.555 1.555Z" fill="#0278D5"/></svg>