<svg xmlns="http://www.w3.org/2000/svg" fill="currentColor" viewBox="0 0 30 30"><g clip-path="url(#a)"><path fill="url(#b)" fill-rule="evenodd" d="M0 1.905C0 .853.853 0 1.905 0h26.19C29.147 0 30 .853 30 1.905v5.428H15.424a4.192 4.192 0 0 0-8.25 1.048 4.19 4.19 0 0 0 8.25 1.048H30v18.666A1.905 1.905 0 0 1 28.095 30H1.905A1.905 1.905 0 0 1 0 28.095v-7.143h15.524v1.534a2.657 2.657 0 0 0 2.657 2.657h5.162A2.657 2.657 0 0 0 26 22.486v-5.163a2.657 2.657 0 0 0-2.657-2.656h-5.162a2.657 2.657 0 0 0-2.657 2.656v1.534H0V1.905Zm17.619 15.418c0-.31.252-.561.562-.561h5.162c.31 0 .562.251.562.561v5.163c0 .31-.252.562-.562.562h-5.162a.562.562 0 0 1-.562-.562v-5.163ZM11.365 6.286a2.095 2.095 0 1 0 0 4.19 2.095 2.095 0 0 0 0-4.19Z" clip-rule="evenodd"/></g><defs><linearGradient id="b" x1="-.381" x2="35.762" y1="0" y2="38.238" gradientUnits="userSpaceOnUse"><stop stop-color="#00E9DB"/><stop offset="1" stop-color="#249789"/></linearGradient><clipPath id="a"><path fill="#fff" d="M0 0h30v30H0z"/></clipPath></defs></svg>