<svg xmlns="http://www.w3.org/2000/svg" viewBox="0 0 41 40"><path fill="url(#a)" d="M21.414 39.18C4.296 30.837 1.786 11.062 2.717 1.231A1.103 1.103 0 0 1 3.827.24H39.76c.602 0 1.101.48 1.126 1.082C41.88 25.747 29.2 36.63 22.254 39.228c-.274.102-.577.08-.84-.049Z"/><circle cx="13.148" cy="15.228" r="3.847" fill="none" stroke="#fff" stroke-width="2.6" transform="rotate(45 13.148 15.228)"/><circle cx="26.069" cy="8.271" r="3.847" fill="none" stroke="#fff" stroke-width="2.6" transform="rotate(45 26.069 8.27)"/><circle cx="24.445" cy="26.524" r="4.361" fill="none" stroke="#fff" stroke-width="2.6" transform="rotate(45 24.445 26.524)"/><path stroke="#fff" stroke-linecap="round" stroke-width="2.6" d="m17.212 12.869 5.131-2.647m-6.131 8.486 4.162 4.001M1.517 12.852l7.867 1.476"/><defs><linearGradient id="a" x1="41.35" x2="-5.362" y1="-6.413" y2="35.771" gradientUnits="userSpaceOnUse"><stop stop-color="#F04E29"/><stop offset="1" stop-color="#FF8E75"/></linearGradient></defs></svg>